<?xml version="1.0" encoding="UTF-8" standalone="no"?>
<!DOCTYPE svg PUBLIC "-//W3C//DTD SVG 1.1//EN" "http://www.w3.org/Graphics/SVG/1.1/DTD/svg11.dtd">
<svg xmlns="http://www.w3.org/2000/svg" version="1.1" viewBox="0 0 200 200" width="200.0pt" height="200.0pt">
<path d="M 0.00 0.00 L 96.68 0.00 C 96.57 2.00 96.53 4.00 96.49 6.01 C 95.43 6.17 94.36 6.33 93.29 6.49 C 93.27 8.49 93.25 10.49 93.23 12.50 C 94.31 12.64 95.38 12.79 96.46 12.94 C 96.51 14.50 96.56 16.06 96.60 17.63 C 93.11 18.29 89.59 18.68 86.04 18.94 C 85.60 17.55 85.15 16.15 84.71 14.76 C 85.71 14.20 86.71 13.65 87.71 13.10 C 87.20 11.20 86.68 9.29 86.16 7.39 C 85.12 7.55 84.07 7.71 83.03 7.87 C 82.45 5.90 81.89 3.93 81.29 1.97 C 79.24 2.52 77.20 3.09 75.16 3.68 C 75.68 5.58 76.22 7.48 76.77 9.38 C 75.73 9.86 74.69 10.33 73.66 10.81 C 74.09 12.68 74.54 14.54 74.96 16.41 C 76.19 16.47 77.43 16.37 78.68 16.11 C 78.98 17.57 79.29 19.03 79.60 20.49 C 76.28 21.68 72.93 22.78 69.59 23.91 C 68.95 22.98 68.31 22.04 67.67 21.11 C 68.41 20.19 69.09 19.23 69.72 18.25 C 69.00 16.70 68.13 15.25 67.26 13.79 C 61.78 15.69 57.83 9.40 53.18 12.45 C 58.80 20.98 64.35 29.50 69.92 38.06 C 71.01 39.72 71.94 40.75 73.93 41.26 C 84.37 44.38 95.05 46.84 106.01 45.57 C 112.74 44.77 119.76 43.11 126.22 41.04 C 127.98 40.53 128.82 39.20 129.81 37.78 C 134.52 30.51 139.22 23.24 144.05 16.04 C 144.85 14.80 145.60 13.58 145.92 12.13 C 141.93 9.58 137.12 15.82 132.40 13.73 C 131.42 15.38 130.46 17.05 129.51 18.73 C 130.36 19.41 131.21 20.08 132.06 20.76 C 131.40 21.81 130.74 22.86 130.08 23.91 C 126.72 22.82 123.36 21.74 120.02 20.62 C 120.33 19.11 120.65 17.60 120.99 16.09 C 122.10 16.27 123.22 16.44 124.34 16.62 C 124.89 14.70 125.44 12.77 125.98 10.85 C 124.94 10.40 123.90 9.95 122.86 9.50 C 123.34 7.55 123.86 5.60 124.34 3.65 C 122.33 3.06 120.40 2.47 118.31 2.22 C 117.53 4.08 116.96 6.08 116.36 8.01 C 115.42 7.74 114.49 7.48 113.55 7.22 C 112.93 9.16 112.34 11.11 111.74 13.07 C 112.76 13.59 113.79 14.12 114.82 14.64 C 114.38 16.09 113.94 17.54 113.51 18.99 C 110.01 18.69 106.54 18.29 103.08 17.69 C 103.13 16.08 103.18 14.48 103.23 12.87 C 104.26 12.76 105.30 12.65 106.33 12.54 C 106.33 10.51 106.32 8.48 106.31 6.46 C 105.26 6.35 104.20 6.24 103.15 6.13 C 103.14 4.09 103.14 2.04 103.12 0.00 L 200.00 0.00 L 200.00 200.00 L 104.83 200.00 C 121.66 198.98 138.09 191.91 150.50 180.51 C 164.49 167.87 173.67 149.61 174.95 130.77 C 175.37 126.59 175.39 122.45 174.94 118.28 C 173.67 100.84 165.70 83.97 153.45 71.55 C 144.03 62.05 132.02 54.98 119.06 51.60 C 103.74 47.55 87.22 48.51 72.47 54.28 C 58.09 59.95 45.54 70.09 37.04 83.00 C 22.19 105.09 20.43 134.76 32.52 158.46 C 44.23 182.08 68.55 198.46 94.92 200.00 L 0.00 200.00 L 0.00 0.00 Z" fill="none"/>
<path d="M 96.68 0.00 L 103.12 0.00 C 103.14 2.04 103.14 4.09 103.15 6.13 C 104.20 6.24 105.26 6.35 106.31 6.46 C 106.32 8.48 106.33 10.51 106.33 12.54 C 105.30 12.65 104.26 12.76 103.23 12.87 C 103.18 14.48 103.13 16.08 103.08 17.69 C 106.54 18.29 110.01 18.69 113.51 18.99 C 113.94 17.54 114.38 16.09 114.82 14.64 C 113.79 14.12 112.76 13.59 111.74 13.07 C 112.34 11.11 112.93 9.16 113.55 7.22 C 114.49 7.48 115.42 7.74 116.36 8.01 C 116.96 6.08 117.53 4.08 118.31 2.22 C 120.40 2.47 122.33 3.06 124.34 3.65 C 123.86 5.60 123.34 7.55 122.86 9.50 C 123.90 9.95 124.94 10.40 125.98 10.85 C 125.44 12.77 124.89 14.70 124.34 16.62 C 123.22 16.44 122.10 16.27 120.99 16.09 C 120.65 17.60 120.33 19.11 120.02 20.62 C 123.36 21.74 126.72 22.82 130.08 23.91 C 130.74 22.86 131.40 21.81 132.06 20.76 C 131.21 20.08 130.36 19.41 129.51 18.73 C 130.46 17.05 131.42 15.38 132.40 13.73 C 137.12 15.82 141.93 9.58 145.92 12.13 C 145.60 13.58 144.85 14.80 144.05 16.04 C 139.22 23.24 134.52 30.51 129.81 37.78 C 128.82 39.20 127.98 40.53 126.22 41.04 C 119.76 43.11 112.74 44.77 106.01 45.57 C 95.05 46.84 84.37 44.38 73.93 41.26 C 71.94 40.75 71.01 39.72 69.92 38.06 C 64.35 29.50 58.80 20.98 53.18 12.45 C 57.83 9.40 61.78 15.69 67.26 13.79 C 68.13 15.25 69.00 16.70 69.72 18.25 C 69.09 19.23 68.41 20.19 67.67 21.11 C 68.31 22.04 68.95 22.98 69.59 23.91 C 72.93 22.78 76.28 21.68 79.60 20.49 C 79.29 19.03 78.98 17.57 78.68 16.11 C 77.43 16.37 76.19 16.47 74.96 16.41 C 74.54 14.54 74.09 12.68 73.66 10.81 C 74.69 10.33 75.73 9.86 76.77 9.38 C 76.22 7.48 75.68 5.58 75.16 3.68 C 77.20 3.09 79.24 2.52 81.29 1.97 C 81.89 3.93 82.45 5.90 83.03 7.87 C 84.07 7.71 85.12 7.55 86.16 7.39 C 86.68 9.29 87.20 11.20 87.71 13.10 C 86.71 13.65 85.71 14.20 84.71 14.76 C 85.15 16.15 85.60 17.55 86.04 18.94 C 89.59 18.68 93.11 18.29 96.60 17.63 C 96.56 16.06 96.51 14.50 96.46 12.94 C 95.38 12.79 94.31 12.64 93.23 12.50 C 93.25 10.49 93.27 8.49 93.29 6.49 C 94.36 6.33 95.43 6.17 96.49 6.01 C 96.53 4.00 96.57 2.00 96.68 0.00 Z" fill="#d71934"/>
<path d="M 101.34 2.52 C 101.37 4.15 101.41 5.77 101.44 7.39 C 102.76 8.27 104.07 9.14 105.38 10.01 C 104.05 10.91 102.72 11.80 101.39 12.70 C 101.40 15.00 101.42 17.30 101.43 19.60 C 105.71 20.50 110.02 21.10 114.36 21.57 C 115.13 19.72 116.15 17.79 116.44 15.79 C 116.26 14.05 114.76 12.37 113.97 10.84 C 115.35 10.32 116.72 9.78 118.10 9.25 C 118.50 7.91 118.91 6.56 119.32 5.21 C 120.14 5.19 120.96 5.17 121.79 5.15 C 121.62 6.92 121.46 8.69 121.30 10.45 C 122.20 11.67 123.10 12.89 124.00 14.11 C 122.45 14.63 120.90 15.15 119.34 15.66 C 118.89 17.87 118.52 20.10 118.21 22.34 C 121.98 23.60 125.99 25.54 129.98 25.75 C 131.91 25.99 132.70 23.86 133.34 22.43 C 133.41 20.65 132.59 18.95 132.63 17.15 C 136.39 16.21 140.07 15.24 143.67 13.76 C 138.22 22.32 132.51 30.71 127.01 39.23 C 114.86 32.98 101.31 32.06 87.98 34.03 C 82.61 34.78 77.92 37.11 72.87 38.82 C 71.04 37.55 69.87 35.16 68.62 33.35 C 64.46 26.59 59.70 20.25 55.83 13.33 C 59.60 15.08 63.40 16.55 67.48 17.42 C 67.04 18.85 66.28 20.36 66.23 21.87 C 66.70 23.31 67.44 24.70 68.09 26.07 C 73.00 25.33 77.63 24.27 81.85 21.51 C 81.27 19.64 80.69 17.77 80.11 15.91 C 78.77 15.34 77.43 14.78 76.13 14.14 C 76.44 12.63 77.47 11.38 78.27 10.06 C 77.93 7.49 77.22 5.99 79.10 3.78 C 80.02 5.63 80.89 7.51 81.75 9.39 C 83.04 9.88 84.34 10.38 85.63 10.87 C 84.66 12.82 82.78 14.61 83.39 16.95 C 83.68 18.54 84.13 20.65 85.82 21.31 C 89.68 21.13 93.92 20.84 97.56 19.51 C 98.79 17.95 98.28 14.93 98.52 13.00 C 97.09 12.02 95.66 11.04 94.24 10.05 C 95.59 9.07 96.93 8.09 98.27 7.11 C 98.35 5.53 98.42 3.97 98.54 2.39 C 99.48 2.42 100.41 2.47 101.34 2.52 Z" fill="#ca9701"/>
<path d="M 119.06 51.60 C 132.02 54.98 144.03 62.05 153.45 71.55 C 165.70 83.97 173.67 100.84 174.94 118.28 C 173.72 123.03 173.75 126.02 174.95 130.77 C 173.67 149.61 164.49 167.87 150.50 180.51 C 138.09 191.91 121.66 198.98 104.83 200.00 L 94.92 200.00 C 68.55 198.46 44.23 182.08 32.52 158.46 C 20.43 134.76 22.19 105.09 37.04 83.00 C 45.54 70.09 58.09 59.95 72.47 54.28 C 87.22 48.51 103.74 47.55 119.06 51.60 Z" fill="#d71934"/>
<path d="M 86.58 66.91 C 105.63 62.38 126.30 68.06 140.45 81.56 C 152.13 92.61 159.44 108.81 158.83 125.00 C 159.29 144.31 148.75 163.13 132.82 173.81 C 123.24 180.27 111.59 184.03 100.00 183.77 C 84.08 184.15 68.24 177.20 57.34 165.67 C 48.59 156.74 42.88 144.87 41.28 132.48 C 39.02 116.70 43.71 100.06 53.72 87.67 C 61.99 77.31 73.64 69.88 86.58 66.91 Z" fill="#ffffff"/>
<path d="M 92.37 68.80 C 94.64 68.38 97.02 68.39 99.32 68.29 C 97.94 71.59 96.47 74.84 94.93 78.07 C 96.53 76.59 98.12 75.10 99.72 73.61 C 100.52 74.45 101.31 75.29 102.11 76.12 C 103.23 73.53 104.35 70.93 105.49 68.34 C 107.64 68.75 109.78 69.17 111.92 69.60 C 110.23 73.38 108.59 77.18 107.01 81.01 C 108.43 82.44 109.86 83.87 111.28 85.30 C 113.41 80.59 115.32 75.79 117.41 71.06 C 119.36 71.75 121.29 72.46 123.23 73.17 C 121.15 79.00 118.59 84.55 116.14 90.24 C 117.64 91.63 119.14 93.03 120.66 94.40 C 123.25 88.22 125.71 81.96 128.63 75.94 C 130.37 77.21 132.11 78.47 133.85 79.74 C 130.90 86.22 128.34 92.86 125.36 99.32 C 126.84 100.83 128.32 102.33 129.83 103.81 C 132.50 97.00 135.52 90.34 138.27 83.56 C 139.83 85.00 141.60 86.48 142.80 88.24 C 142.62 90.21 141.64 92.19 140.89 94.01 C 138.74 98.88 136.70 103.80 134.61 108.69 C 136.07 110.13 137.54 111.56 139.01 112.99 C 141.61 106.57 144.38 100.22 147.04 93.83 C 148.33 96.08 150.11 98.43 150.73 100.98 C 148.99 106.78 145.95 112.23 143.87 117.94 C 145.31 119.37 146.75 120.80 148.20 122.24 C 150.07 117.68 151.94 113.12 153.98 108.62 C 154.79 112.26 155.94 116.27 155.73 120.00 C 155.19 122.67 153.80 125.21 152.78 127.72 C 147.40 140.35 142.08 152.90 136.76 165.55 C 135.28 169.95 129.70 172.28 126.02 174.65 C 132.18 159.72 138.50 144.85 144.95 130.04 C 141.85 132.91 138.86 135.90 135.91 138.92 C 133.28 141.46 132.21 145.42 130.75 148.73 C 126.58 158.53 122.49 168.35 118.23 178.11 C 115.65 178.77 113.08 179.44 110.49 180.06 C 114.43 170.99 118.11 161.80 122.22 152.81 C 117.87 157.29 111.56 161.75 109.52 167.76 C 107.72 172.12 105.87 176.47 104.07 180.83 C 101.72 180.85 99.38 180.86 97.04 180.85 C 97.87 178.94 98.71 177.03 99.56 175.12 C 98.06 173.68 96.57 172.24 95.05 170.82 C 93.79 174.04 92.47 177.23 91.12 180.42 C 89.04 179.98 86.96 179.54 84.87 179.10 C 86.48 174.64 88.39 170.30 90.36 165.99 C 88.90 164.50 87.42 163.02 85.94 161.54 C 83.79 166.74 81.59 171.91 79.42 177.11 C 77.41 176.25 75.41 175.37 73.42 174.48 C 76.15 168.64 78.50 162.65 81.10 156.76 C 79.67 155.26 78.23 153.77 76.80 152.27 C 74.14 158.59 71.34 164.86 68.88 171.27 C 66.86 170.23 65.04 168.97 63.28 167.53 C 66.27 160.88 69.06 154.15 71.90 147.44 C 70.46 146.01 69.04 144.57 67.61 143.13 C 64.68 149.85 61.82 156.60 59.05 163.38 C 57.46 161.59 55.88 159.79 54.31 157.99 C 57.11 151.36 59.94 144.76 62.72 138.13 C 61.25 136.75 59.77 135.36 58.29 133.99 C 55.82 140.00 53.21 145.95 50.75 151.97 C 49.41 149.03 46.04 145.13 48.00 141.87 C 49.79 137.55 51.71 133.28 53.55 128.98 C 52.13 127.67 50.71 126.37 49.27 125.09 C 51.72 120.85 55.38 118.15 58.63 114.63 C 61.05 112.18 62.11 108.61 63.48 105.47 C 67.72 95.40 72.03 85.26 76.29 75.17 C 77.30 71.73 82.35 71.27 85.25 70.12 C 81.08 80.45 76.79 90.85 72.10 100.95 C 76.77 96.17 83.25 91.66 85.22 85.20 C 87.62 79.77 89.54 74.00 92.37 68.80 Z" fill="#d71934"/>
<path d="M 68.99 77.63 C 62.67 93.37 55.64 108.83 49.31 124.57 C 47.64 128.11 46.19 131.75 44.77 135.40 C 43.80 130.92 43.18 126.55 43.72 121.97 C 44.36 118.92 45.91 115.98 47.11 113.11 C 50.40 105.36 53.71 97.62 56.93 89.85 C 58.81 84.53 64.50 80.67 68.99 77.63 Z" fill="#d71934"/>
<path d="M 99.73 78.08 C 101.42 79.67 103.03 81.38 104.64 83.06 C 104.61 90.15 104.63 97.25 104.63 104.34 C 101.31 104.34 97.98 104.33 94.66 104.33 C 94.67 97.24 94.64 90.15 94.63 83.06 C 96.30 81.38 97.96 79.66 99.73 78.08 Z" fill="#f6d102"/>
<path d="M 84.54 93.45 C 84.69 97.09 84.68 100.70 84.67 104.33 C 82.36 104.33 80.04 104.32 77.72 104.43 C 77.64 112.62 77.79 120.81 77.68 129.00 C 77.89 132.90 76.69 135.97 80.08 138.79 L 80.63 139.36 L 81.24 139.92 C 82.36 140.94 83.50 141.97 84.72 142.86 C 84.64 147.18 84.65 151.49 84.67 155.81 C 81.33 152.50 78.04 149.13 74.67 145.85 C 74.48 131.60 74.64 117.34 74.60 103.09 C 77.89 99.88 81.05 96.44 84.54 93.45 Z" fill="#f6d102"/>
<path d="M 114.64 93.06 C 115.38 93.77 116.12 94.48 116.85 95.20 C 119.53 97.81 122.14 100.48 124.73 103.18 C 124.67 117.34 124.71 131.51 124.70 145.67 C 121.36 149.04 118.03 152.43 114.63 155.75 C 114.63 151.39 114.64 147.04 114.61 142.69 C 116.95 140.98 119.64 138.89 121.00 136.28 C 121.62 134.31 121.50 132.05 121.57 130.00 C 121.50 121.46 121.54 112.91 121.54 104.37 C 119.23 104.36 116.93 104.34 114.63 104.33 C 114.62 100.58 114.62 96.82 114.64 93.06 Z" fill="#f6d102"/>
<path d="M 77.72 104.43 C 80.04 104.32 82.36 104.33 84.67 104.33 C 88.00 104.33 91.33 104.33 94.66 104.33 C 97.98 104.33 101.31 104.34 104.63 104.34 C 107.96 104.34 111.29 104.33 114.63 104.33 C 116.93 104.34 119.23 104.36 121.54 104.37 C 121.54 112.91 121.50 121.46 121.57 130.00 C 121.50 132.05 121.62 134.31 121.00 136.28 C 119.64 138.89 116.95 140.98 114.61 142.69 C 111.43 144.80 108.01 146.56 104.62 148.33 C 103.06 149.08 101.45 149.88 99.76 150.30 C 98.02 150.22 96.24 149.11 94.66 148.44 C 91.29 146.69 87.92 144.90 84.72 142.86 C 83.50 141.97 82.36 140.94 81.24 139.92 C 86.45 143.66 92.11 146.96 98.02 149.47 C 100.08 150.47 102.17 148.93 104.06 148.15 C 109.36 145.35 115.85 142.34 119.69 137.63 C 121.42 135.70 121.14 132.43 121.24 130.00 C 121.15 121.56 121.24 113.13 121.18 104.69 C 106.87 104.63 92.56 104.68 78.24 104.67 C 78.12 115.15 78.17 125.64 78.22 136.13 C 78.83 137.02 79.45 137.91 80.08 138.79 C 76.69 135.97 77.89 132.90 77.68 129.00 C 77.79 120.81 77.64 112.62 77.72 104.43 Z" fill="#ffffff"/>
<path d="M 78.24 104.67 C 92.56 104.68 106.87 104.63 121.18 104.69 C 121.24 113.13 121.15 121.56 121.24 130.00 C 121.14 132.43 121.42 135.70 119.69 137.63 C 115.85 142.34 109.36 145.35 104.06 148.15 C 102.17 148.93 100.08 150.47 98.02 149.47 C 92.11 146.96 86.45 143.66 81.24 139.92 L 80.63 139.36 L 80.08 138.79 C 79.45 137.91 78.83 137.02 78.22 136.13 C 78.17 125.64 78.12 115.15 78.24 104.67 Z" fill="#d71934"/>
<path d="M 118.73 106.56 C 119.85 109.73 118.43 110.44 116.37 112.47 C 116.43 110.58 116.46 108.69 116.61 106.82 C 117.31 106.72 118.02 106.63 118.73 106.56 Z" fill="#ffffff"/>
<path d="M 82.69 106.76 C 84.52 106.76 86.34 106.76 88.17 106.77 L 88.72 110.60 C 86.80 110.58 84.51 111.09 82.72 110.37 L 82.69 106.76 Z" fill="#ffffff"/>
<path d="M 94.28 106.76 C 95.99 106.76 97.70 106.76 99.42 106.76 C 99.54 108.37 99.66 109.99 99.80 111.60 C 97.81 110.61 95.87 110.53 94.00 111.35 C 94.10 109.82 94.19 108.29 94.28 106.76 Z" fill="#ffffff"/>
<path d="M 105.39 106.74 C 107.14 106.76 108.89 106.77 110.63 106.79 C 110.65 108.16 110.67 109.53 110.70 110.90 C 111.51 111.76 112.33 112.61 113.15 113.47 C 114.06 113.04 114.98 112.60 115.89 112.17 C 115.81 114.63 115.70 117.08 115.56 119.53 C 116.62 118.01 117.68 116.71 119.09 115.52 C 119.20 118.28 119.20 121.04 119.13 123.80 C 118.52 124.35 117.92 124.92 117.33 125.49 C 115.05 127.20 115.98 130.73 115.41 133.29 C 116.63 131.98 117.86 130.69 119.25 129.56 C 119.32 133.50 119.00 135.32 116.60 138.44 C 116.59 136.49 116.60 134.53 116.64 132.58 C 115.42 134.37 114.22 137.47 111.94 134.84 L 110.16 132.98 C 110.59 136.13 110.99 139.22 112.04 142.22 C 110.96 140.84 110.16 138.47 108.03 138.71 L 105.11 139.50 C 105.26 136.66 105.32 133.82 105.41 130.97 C 106.38 130.48 107.35 130.00 108.31 129.50 C 109.41 130.60 110.49 131.72 111.54 132.87 C 111.48 130.53 111.33 128.21 111.08 125.90 C 108.88 124.14 107.67 124.55 105.12 125.50 C 105.27 122.66 105.32 119.82 105.39 116.98 C 106.38 116.44 107.36 115.89 108.34 115.35 C 109.36 116.53 110.37 117.70 111.39 118.88 C 111.36 116.51 111.36 114.13 111.38 111.76 C 108.75 110.64 107.93 110.16 105.05 111.45 C 105.17 109.88 105.29 108.31 105.39 106.74 Z" fill="#ffffff"/>
<path d="M 64.65 113.11 C 64.66 120.65 64.69 128.20 64.65 135.74 C 60.85 131.98 57.08 128.20 53.33 124.40 C 57.13 120.66 60.86 116.85 64.65 113.11 Z" fill="#f6d102"/>
<path d="M 82.41 111.96 C 82.39 115.86 83.05 119.19 80.69 122.59 C 80.23 120.06 79.92 117.55 80.10 114.98 C 80.02 113.21 81.29 112.99 82.41 111.96 Z" fill="#ffffff"/>
<path d="M 89.43 112.24 L 91.44 113.33 L 93.65 111.55 C 93.52 114.73 93.74 117.97 93.36 121.13 C 92.07 121.76 90.90 121.87 89.85 121.47 C 87.85 118.60 88.93 115.41 89.43 112.24 Z" fill="#ffffff"/>
<path d="M 104.82 112.36 C 104.63 115.21 104.92 118.33 104.11 121.09 C 103.25 121.90 102.11 121.96 100.71 121.27 C 100.13 118.74 100.16 115.95 100.03 113.34 C 101.63 113.02 103.23 112.69 104.82 112.36 Z" fill="#ffffff"/>
<path d="M 134.66 113.09 C 138.28 116.86 142.24 120.34 145.71 124.24 C 142.57 128.45 138.24 131.84 134.63 135.66 C 134.65 128.14 134.61 120.61 134.66 113.09 Z" fill="#f6d102"/>
<path d="M 86.24 115.42 C 89.63 118.22 87.92 122.90 88.77 126.91 L 87.01 124.91 L 85.14 124.75 L 83.57 125.33 C 83.25 124.76 82.92 124.19 82.60 123.63 C 82.73 121.30 82.87 118.99 83.37 116.70 C 84.32 116.26 85.27 115.83 86.24 115.42 Z" fill="#ffffff"/>
<path d="M 97.07 115.39 C 101.16 117.61 99.04 121.99 99.72 125.85 C 98.03 124.67 96.13 124.50 94.04 125.34 C 94.18 122.55 94.22 119.74 94.46 116.96 C 95.32 116.42 96.19 115.90 97.07 115.39 Z" fill="#ffffff"/>
<path d="M 174.94 118.28 C 175.39 122.45 175.37 126.59 174.95 130.77 C 173.75 126.02 173.72 123.03 174.94 118.28 Z" fill="#d71934"/>
<path d="M 110.36 118.64 C 111.46 120.63 112.69 121.71 114.05 121.90 L 116.74 119.01 C 116.59 121.44 116.46 123.86 116.37 126.28 C 115.28 126.66 114.18 126.98 113.07 127.25 C 112.25 126.59 111.47 125.87 110.74 125.08 C 110.61 122.94 110.48 120.79 110.36 118.64 Z" fill="#d71934"/>
<path d="M 82.42 125.97 C 82.41 129.77 82.92 133.11 80.78 136.48 C 80.43 133.12 78.45 127.84 82.42 125.97 Z" fill="#ffffff"/>
<path d="M 104.84 126.37 C 104.66 129.28 104.81 132.36 104.17 135.21 C 103.20 135.85 102.04 135.89 100.67 135.33 C 100.13 132.49 100.16 129.50 99.98 126.62 C 101.60 126.93 103.23 126.85 104.84 126.37 Z" fill="#ffffff"/>
<path d="M 88.68 127.20 C 90.31 127.17 91.93 127.13 93.55 127.09 C 93.54 129.87 93.57 132.65 93.56 135.42 C 92.17 135.48 90.78 135.52 89.39 135.57 C 89.14 132.78 88.90 129.99 88.68 127.20 Z" fill="#ffffff"/>
<path d="M 88.59 131.23 C 88.46 134.01 88.40 136.78 88.51 139.56 C 86.61 139.14 84.71 138.76 82.79 138.41 C 82.85 135.84 82.24 132.82 83.67 130.60 C 85.53 129.56 86.84 130.59 88.59 131.23 Z" fill="#ffffff"/>
<path d="M 99.47 130.69 C 99.60 133.90 99.58 137.12 99.77 140.33 C 98.06 138.66 96.14 138.35 94.00 139.41 C 94.17 136.59 94.13 133.69 94.58 130.90 C 96.22 129.61 97.64 130.41 99.47 130.69 Z" fill="#ffffff"/>
<path d="M 100.03 140.26 C 100.77 140.60 101.51 140.93 102.25 141.26 C 103.11 140.93 103.95 140.59 104.79 140.23 C 104.73 142.04 104.68 143.86 104.64 145.67 C 102.82 146.37 100.91 147.30 98.97 147.51 C 97.09 146.84 95.49 145.86 93.76 144.87 C 95.06 144.72 97.16 143.73 98.35 144.59 C 99.10 145.34 99.79 146.14 100.44 146.99 C 100.27 144.75 100.15 142.51 100.03 140.26 Z" fill="#ffffff"/>
<path d="M 87.89 140.54 C 89.90 140.88 91.86 140.86 93.77 140.50 C 93.62 142.03 93.47 143.57 93.32 145.10 C 92.18 144.43 91.05 143.73 89.93 143.01 C 89.24 142.19 88.56 141.37 87.89 140.54 Z" fill="#ffffff"/>
<path d="M 94.66 148.44 C 96.24 149.11 98.02 150.22 99.76 150.30 C 101.45 149.88 103.06 149.08 104.62 148.33 C 104.63 154.12 104.63 159.91 104.62 165.70 C 102.99 167.43 101.35 169.16 99.72 170.88 C 98.05 169.22 96.38 167.54 94.71 165.87 C 94.64 160.06 94.63 154.25 94.66 148.44 Z" fill="#f6d102"/>
<path d="M 75.11 181.52 C 77.52 182.31 77.70 183.88 78.49 186.05 C 77.21 184.84 75.96 183.59 74.71 182.35 C 73.81 183.91 72.00 185.89 72.17 187.79 C 72.79 189.92 74.55 189.00 76.04 188.40 C 75.28 187.47 74.52 186.55 73.75 185.63 C 75.09 186.11 76.44 186.60 77.78 187.09 C 76.93 188.22 76.10 189.41 75.12 190.43 C 72.91 191.04 71.69 189.80 70.51 188.09 C 70.89 185.66 72.11 181.69 75.11 181.52 Z" fill="#ffffff"/>
<path d="M 127.50 183.15 C 125.65 183.29 123.80 183.37 121.95 183.47 C 122.57 185.95 122.88 188.21 124.90 189.99 C 126.38 189.39 127.63 188.32 128.64 186.78 C 128.35 188.06 128.22 189.24 127.08 190.10 C 126.02 190.48 124.89 190.67 123.79 190.91 C 122.90 188.86 120.53 185.81 121.64 183.53 C 122.37 181.42 125.96 182.61 127.50 183.15 Z" fill="#ffffff"/>
<path d="M 80.77 183.90 C 83.33 185.15 86.70 184.90 88.70 186.88 C 88.67 188.42 87.42 189.74 86.66 191.05 C 86.86 192.37 87.05 193.70 87.24 195.03 C 85.98 193.32 84.91 191.49 83.88 189.64 C 83.11 191.13 82.31 192.61 81.50 194.08 C 81.77 190.68 82.84 187.77 81.57 184.43 C 80.45 187.52 79.91 190.54 77.64 193.02 C 78.18 189.84 79.15 186.79 80.28 183.77 L 80.77 183.90 Z" fill="#ffffff"/>
<path d="M 119.38 183.80 L 120.40 183.59 C 117.91 185.27 115.97 184.93 116.35 188.61 C 117.97 188.43 119.59 188.26 121.21 188.08 C 119.98 188.60 118.75 189.11 117.52 189.61 C 117.51 191.08 117.49 192.54 117.46 194.01 C 116.44 190.97 115.63 187.91 115.07 184.76 C 116.51 184.45 117.94 184.13 119.38 183.80 Z" fill="#ffffff"/>
<path d="M 84.41 186.19 C 85.83 186.52 86.95 187.31 88.24 188.01 C 87.13 188.51 86.00 188.93 84.85 189.27 C 83.34 188.60 83.20 187.57 84.41 186.19 Z" fill="#d71934"/>
<path d="M 93.55 186.40 C 96.92 187.26 95.34 191.81 95.38 194.31 C 93.12 194.88 91.81 196.12 89.87 194.06 C 88.37 191.60 89.48 185.29 93.55 186.40 Z" fill="#ffffff"/>
<path d="M 97.54 186.21 C 99.41 188.16 100.87 190.36 102.41 192.57 C 102.49 190.32 102.54 188.07 102.78 185.83 C 104.55 188.92 103.67 192.81 103.46 196.23 C 101.80 194.09 100.22 191.89 98.65 189.69 C 98.66 191.64 98.69 193.60 98.72 195.55 L 97.30 195.58 C 97.31 192.46 97.26 189.31 97.54 186.21 Z" fill="#ffffff"/>
<path d="M 107.77 185.85 C 109.97 188.33 111.35 191.71 112.83 194.66 C 111.20 194.09 109.56 193.54 107.91 193.02 C 107.09 194.01 106.28 195.00 105.46 195.99 C 105.97 192.50 106.51 189.16 107.77 185.85 Z" fill="#ffffff"/>
<path d="M 93.31 186.97 C 94.37 189.20 95.06 191.28 93.53 193.51 C 92.56 193.71 91.58 193.77 90.56 193.69 C 90.63 192.13 90.73 190.58 90.86 189.03 C 91.67 188.34 92.49 187.65 93.31 186.97 Z" fill="#d71934"/>
<path d="M 108.15 190.30 L 108.99 190.30 L 109.42 191.03 L 109.01 191.75 L 108.18 191.75 L 107.75 191.03 L 108.15 190.30 Z" fill="#d71934"/>
</svg>
