<?xml version="1.0" encoding="UTF-8" standalone="no"?>
<!DOCTYPE svg PUBLIC "-//W3C//DTD SVG 1.1//EN" "http://www.w3.org/Graphics/SVG/1.1/DTD/svg11.dtd">
<svg xmlns="http://www.w3.org/2000/svg" version="1.1" viewBox="0 0 200 200" width="200.0pt" height="200.0pt">
<path d="M 0.00 0.00 L 200.00 0.00 L 200.00 200.00 L 0.00 200.00 L 0.00 0.00 Z" fill-opacity="0.0"/>
<path d="M 43.04 28.45 C 43.53 29.23 44.02 30.00 44.52 30.76 C 45.41 31.22 46.30 31.67 47.21 32.10 C 47.54 32.65 47.88 33.19 48.22 33.74 C 51.82 35.07 55.30 36.51 59.09 37.26 C 59.99 36.15 60.84 34.92 61.90 33.97 C 65.65 31.82 69.96 32.78 73.89 33.83 C 82.76 30.79 91.57 28.60 101.02 28.77 C 109.84 28.90 118.08 31.11 126.38 33.88 C 127.99 33.32 129.58 32.92 131.26 32.61 C 133.43 32.68 135.54 32.85 137.60 33.63 C 138.96 34.45 139.89 36.06 140.89 37.26 C 144.75 36.52 148.26 35.02 151.93 33.70 C 152.21 33.12 152.50 32.55 152.79 31.97 C 153.75 31.61 154.71 31.25 155.66 30.89 C 156.01 30.05 156.36 29.21 156.71 28.38 C 158.82 29.21 160.34 29.86 161.63 31.85 C 162.56 32.05 163.49 32.24 164.42 32.44 L 165.01 29.90 C 166.26 30.66 167.57 31.40 168.67 32.36 C 168.93 34.18 168.78 36.07 168.86 37.91 C 169.59 36.95 170.31 35.97 171.03 35.00 C 171.97 36.18 173.56 37.45 173.83 38.96 C 173.43 40.13 172.95 41.26 172.40 42.38 C 172.45 43.63 172.49 44.88 172.53 46.13 C 173.53 45.70 174.54 45.29 175.56 44.90 C 176.18 45.82 176.80 46.70 176.71 47.86 C 176.59 49.65 174.74 50.46 173.58 51.54 C 173.70 52.71 173.81 53.88 173.93 55.06 C 175.05 54.73 176.17 54.42 177.29 54.11 C 177.26 55.39 177.16 56.67 177.00 57.94 C 176.19 58.93 174.63 59.30 173.53 59.89 C 173.14 60.94 172.75 61.98 172.36 63.03 L 175.77 62.60 C 175.55 63.74 175.30 64.86 175.00 65.97 C 174.58 67.53 172.23 67.74 170.98 68.30 C 171.02 69.54 171.07 70.78 171.12 72.02 C 172.19 72.33 173.27 72.65 174.34 72.96 C 172.82 74.45 171.23 75.85 169.58 77.21 C 172.10 82.30 175.00 87.17 178.10 91.92 C 179.65 94.29 180.11 96.90 180.66 99.62 C 182.42 98.94 184.67 98.40 186.09 97.09 C 188.79 94.45 189.57 90.53 188.30 86.99 C 186.59 81.14 182.20 77.91 181.23 71.97 C 180.61 68.90 180.99 65.96 181.30 62.90 C 180.42 61.03 179.04 59.12 179.59 56.96 C 180.35 53.45 183.39 51.05 186.98 51.14 C 189.84 50.97 191.84 52.61 194.19 53.95 C 192.77 56.12 191.54 58.28 190.41 60.61 C 189.73 62.41 187.39 62.76 185.83 63.57 C 185.29 67.77 185.22 71.77 187.44 75.53 C 190.11 80.01 193.10 83.55 193.61 89.01 C 194.24 95.50 190.47 102.11 183.94 103.76 C 181.21 104.69 177.82 103.77 176.20 106.32 C 174.86 107.86 175.00 110.23 175.75 112.01 C 176.85 114.40 179.57 115.84 180.66 118.16 C 181.35 119.68 179.12 121.29 178.13 122.15 C 173.39 125.74 169.08 129.44 166.57 134.99 C 169.13 135.56 171.60 136.13 173.85 137.55 C 171.79 144.64 169.78 151.74 167.71 158.83 C 167.09 160.31 166.97 162.31 164.89 162.20 C 161.58 161.96 158.35 161.15 155.00 161.20 C 146.31 161.03 138.15 164.36 129.94 166.75 C 110.88 172.60 90.05 172.70 70.95 167.00 C 61.56 164.33 53.00 160.58 43.00 161.28 C 40.03 161.29 36.86 162.51 33.95 162.04 C 31.83 159.36 31.43 155.14 30.31 151.93 C 29.19 147.13 27.00 142.35 26.53 137.46 C 28.14 135.75 31.31 135.64 33.47 135.02 C 31.53 131.10 29.13 127.98 25.72 125.23 C 23.58 123.24 20.31 121.55 19.06 118.88 C 20.23 115.50 24.58 113.95 24.76 110.03 C 25.07 107.70 24.06 106.09 22.19 104.83 C 19.07 104.10 16.15 104.28 13.23 102.64 C 7.46 99.54 5.06 92.07 7.01 85.99 C 8.24 81.38 11.26 78.32 13.25 74.19 C 14.86 70.72 14.50 67.35 14.24 63.66 C 12.69 62.81 10.31 62.39 9.63 60.59 C 8.51 58.23 7.24 56.12 5.76 53.99 C 8.06 52.70 10.23 50.94 13.00 51.14 C 16.91 50.98 20.39 54.10 20.56 58.00 C 20.60 59.70 19.43 61.43 18.70 62.91 C 19.15 67.54 19.51 72.06 17.37 76.35 C 15.31 80.32 12.47 83.40 11.45 87.95 C 10.62 91.21 11.50 94.74 13.92 97.09 C 15.36 98.43 17.64 98.95 19.44 99.63 C 19.95 96.91 20.36 94.30 21.92 91.93 C 25.00 87.14 27.96 82.33 30.38 77.16 C 28.76 75.82 27.19 74.44 25.71 72.94 C 26.73 72.65 27.76 72.36 28.79 72.07 C 28.92 70.83 29.04 69.59 29.17 68.36 C 27.78 67.73 25.53 67.61 25.00 65.93 C 24.71 64.84 24.46 63.74 24.24 62.62 L 27.62 63.01 C 27.25 61.96 26.88 60.92 26.51 59.88 C 25.35 59.31 23.89 58.88 22.94 57.96 C 22.81 56.68 22.73 55.40 22.71 54.12 C 23.84 54.41 24.97 54.72 26.09 55.03 C 26.22 53.86 26.36 52.70 26.49 51.53 C 25.17 50.38 23.62 49.76 23.25 47.89 C 23.49 46.74 23.94 45.60 24.32 44.48 C 25.32 45.13 26.31 45.78 27.30 46.44 C 27.41 45.08 27.52 43.73 27.63 42.38 C 27.22 41.15 26.06 39.60 26.35 38.26 C 27.05 37.08 28.06 36.02 28.94 34.97 C 29.67 35.96 30.40 36.94 31.14 37.93 C 31.23 36.09 31.06 34.18 31.37 32.37 C 32.42 31.39 33.78 30.65 35.01 29.90 L 35.67 32.48 C 36.58 32.25 37.49 32.02 38.40 31.79 C 39.70 29.99 41.05 29.27 43.04 28.45 Z" fill="#020101"/>
<path d="M 124.26 34.56 C 126.80 35.31 127.95 36.65 129.14 38.96 C 127.91 40.41 126.52 41.66 125.14 42.96 C 125.67 43.91 126.19 44.86 126.71 45.81 C 124.78 49.79 123.33 53.83 122.01 58.04 C 115.28 55.07 108.43 52.86 101.00 52.71 C 92.87 52.49 85.36 54.76 78.02 58.05 C 76.71 53.93 75.29 49.98 73.51 46.03 C 73.90 45.00 74.24 43.96 74.53 42.91 C 73.43 41.47 72.01 40.27 70.88 38.84 C 71.85 37.09 72.97 35.53 74.95 34.88 C 81.21 32.51 87.87 31.07 94.51 30.28 C 104.44 29.22 114.88 31.36 124.26 34.56 Z" fill="#fce800"/>
<path d="M 41.46 29.96 C 43.24 31.22 45.04 32.47 46.84 33.70 C 43.49 34.33 39.43 34.64 36.47 36.44 C 35.61 38.08 37.02 39.76 37.56 41.34 C 37.42 43.32 36.24 46.65 37.82 48.18 C 42.26 51.93 47.12 54.14 53.03 54.08 C 53.72 56.28 54.16 58.68 55.23 60.72 C 56.39 61.86 58.33 62.27 59.78 62.95 C 59.16 63.89 58.54 64.83 57.91 65.77 C 57.04 65.45 56.16 65.14 55.29 64.82 C 55.06 66.97 54.79 69.12 54.47 71.26 C 54.94 72.33 55.41 73.41 55.88 74.48 C 54.91 74.51 53.95 74.52 52.99 74.51 C 52.09 72.74 51.55 70.78 50.89 68.92 C 49.65 69.08 48.40 69.24 47.15 69.41 C 47.13 73.04 47.58 75.64 49.07 78.95 C 47.76 78.68 46.47 78.33 45.21 77.90 C 44.26 74.64 44.37 71.48 42.09 68.69 C 40.26 71.93 39.83 75.13 39.66 78.79 C 38.71 77.68 36.89 76.73 37.19 75.04 C 37.02 72.42 38.26 70.40 35.98 68.44 C 33.94 69.88 33.21 72.84 31.78 74.89 C 30.67 74.93 29.56 74.92 28.46 74.88 C 29.92 72.06 30.36 69.94 30.33 66.79 C 28.67 66.35 27.01 65.92 25.41 65.29 C 26.56 64.38 27.80 63.60 29.06 62.85 C 28.53 61.46 27.99 60.07 27.45 58.69 C 26.01 57.96 24.57 57.23 23.15 56.45 C 24.49 56.28 25.82 56.12 27.16 55.96 C 27.43 54.12 27.68 52.28 27.94 50.43 C 26.59 49.41 25.24 48.38 23.90 47.33 C 25.33 47.27 26.75 47.18 28.17 47.05 C 28.74 45.49 28.92 43.74 29.19 42.11 C 28.54 40.50 27.95 38.87 27.39 37.22 C 28.76 37.89 30.12 38.56 31.48 39.24 C 32.45 36.71 33.06 34.37 32.89 31.61 C 33.74 32.29 34.60 32.97 35.46 33.64 C 37.17 33.45 38.89 33.27 40.60 33.09 C 40.88 32.05 41.17 31.00 41.46 29.96 Z" fill="#e32124"/>
<path d="M 158.50 29.91 C 158.83 31.05 159.15 32.19 159.47 33.32 C 162.29 33.48 164.59 33.43 167.20 32.21 C 167.27 34.75 167.52 36.94 168.51 39.30 C 169.84 38.58 171.18 37.87 172.51 37.16 C 172.07 38.79 171.59 40.41 171.06 42.02 C 171.14 43.71 171.22 45.41 171.31 47.10 C 172.92 47.12 174.54 47.13 176.15 47.14 C 174.81 48.27 173.46 49.38 172.09 50.47 C 172.32 52.28 172.56 54.10 172.81 55.91 C 174.17 56.11 175.52 56.32 176.88 56.53 C 175.45 57.28 174.01 57.97 172.55 58.65 C 172.01 60.11 171.47 61.58 170.93 63.04 C 172.31 63.76 173.69 64.48 175.06 65.21 C 173.27 65.76 171.46 66.26 169.64 66.72 C 169.67 69.86 170.10 72.08 171.56 74.89 C 170.47 74.93 169.39 74.92 168.31 74.86 C 166.72 72.55 165.53 69.99 163.92 67.68 C 162.59 70.15 162.72 72.33 162.78 75.03 C 163.01 77.01 161.47 77.48 160.33 78.77 C 160.16 75.12 159.74 71.91 157.92 68.67 C 155.68 71.45 155.76 74.62 154.76 77.86 C 153.56 78.36 152.30 78.73 150.96 78.95 C 152.47 75.56 152.86 72.70 152.78 68.99 C 151.59 69.07 150.42 69.20 149.26 69.38 C 148.36 70.98 147.82 72.78 146.97 74.41 C 146.00 74.42 145.03 74.40 144.05 74.36 C 144.56 73.34 145.07 72.33 145.58 71.31 C 145.25 69.15 144.97 66.99 144.73 64.82 C 143.80 65.16 142.87 65.50 141.94 65.83 C 141.49 64.81 141.03 63.80 140.58 62.78 C 141.88 62.14 143.68 61.80 144.73 60.75 C 145.76 58.72 146.15 56.35 147.18 54.30 C 150.33 53.55 153.19 53.78 156.08 52.13 C 158.32 50.89 161.00 49.64 162.66 47.65 C 163.60 45.87 162.65 43.25 162.43 41.32 C 162.99 39.71 164.31 38.15 163.56 36.43 C 160.52 34.69 156.57 34.28 153.17 33.70 C 154.08 33.08 154.98 32.46 155.88 31.82 C 156.76 31.19 157.63 30.55 158.50 29.91 Z" fill="#e32124"/>
<path d="M 67.68 33.12 C 67.32 34.65 66.94 36.17 66.53 37.68 C 68.25 35.92 69.90 34.34 72.28 33.52 C 71.60 35.16 70.73 36.69 69.89 38.25 C 70.08 39.25 70.28 40.26 70.47 41.27 C 71.61 41.92 72.74 42.58 73.87 43.25 C 72.25 44.53 70.60 45.77 68.93 47.00 C 67.99 46.77 67.05 46.54 66.11 46.31 C 64.78 48.89 63.62 51.64 62.01 54.06 C 60.35 56.23 58.06 58.02 56.02 59.82 C 55.50 57.86 54.97 55.91 54.44 53.95 C 57.45 52.90 58.36 51.92 60.00 49.25 C 57.70 49.14 55.39 49.07 53.08 49.02 L 53.18 47.26 C 55.71 47.19 58.25 47.14 60.78 47.09 C 61.64 43.30 63.27 40.38 61.12 36.68 C 61.82 35.89 62.51 35.11 63.21 34.33 C 63.46 35.15 63.70 35.97 63.94 36.79 C 65.09 35.42 66.26 34.21 67.68 33.12 Z" fill="#e32124"/>
<path d="M 128.04 33.68 C 130.48 34.29 131.79 35.99 133.46 37.72 C 133.06 36.19 132.70 34.65 132.36 33.11 C 133.75 34.23 134.97 35.46 136.14 36.80 C 136.37 36.00 136.59 35.20 136.82 34.40 C 137.51 35.14 138.20 35.89 138.89 36.64 C 136.93 40.35 138.38 43.36 139.25 47.09 C 141.80 47.14 144.35 47.20 146.91 47.28 L 146.99 49.03 C 144.67 49.07 142.36 49.13 140.05 49.24 C 141.67 51.90 142.58 52.89 145.56 53.96 C 145.03 55.91 144.50 57.86 143.98 59.81 C 141.83 57.89 139.26 55.95 137.67 53.52 C 136.25 51.19 135.09 48.69 133.83 46.27 C 132.92 46.51 132.02 46.75 131.11 46.98 C 129.54 45.85 127.96 44.73 126.39 43.60 C 127.55 42.45 129.22 41.41 129.96 39.93 C 130.01 37.82 128.65 35.68 128.04 33.68 Z" fill="#e32124"/>
<path d="M 95.70 37.35 C 97.34 40.36 97.68 46.27 93.88 47.87 C 90.78 49.15 89.58 46.98 87.35 45.29 C 89.28 45.40 91.20 45.71 93.13 45.82 C 93.87 44.82 94.56 43.79 95.22 42.73 C 93.61 43.08 91.85 43.87 90.17 43.76 C 86.99 42.90 86.16 38.61 88.32 36.33 C 90.48 34.09 94.26 34.50 95.70 37.35 Z" fill="#020101"/>
<path d="M 101.24 35.20 C 103.49 33.59 106.89 34.51 107.89 37.11 C 108.79 39.85 108.53 43.57 106.95 46.02 C 104.91 48.90 100.37 48.07 99.33 44.73 C 98.45 41.78 98.79 37.36 101.24 35.20 Z" fill="#020101"/>
<path d="M 49.01 35.60 C 53.05 36.93 57.03 38.21 61.20 39.07 C 60.69 41.35 60.18 43.62 59.72 45.90 C 57.08 45.95 54.45 46.02 51.81 46.10 C 51.79 47.50 51.78 48.91 51.76 50.31 C 53.79 50.29 55.82 50.27 57.85 50.24 C 57.51 50.82 57.16 51.40 56.81 51.98 C 52.88 52.24 48.52 53.24 44.92 51.17 C 42.73 49.92 39.83 48.71 38.34 46.63 C 38.02 44.73 38.86 42.58 39.19 40.71 C 38.43 39.66 37.67 38.61 36.91 37.56 C 40.85 36.38 44.84 34.29 49.01 35.60 Z" fill="#e32124"/>
<path d="M 155.02 35.23 C 157.78 35.66 160.47 36.70 163.12 37.55 C 162.36 38.61 161.61 39.67 160.85 40.74 C 161.16 42.58 162.01 44.75 161.64 46.62 C 160.23 48.72 157.25 49.94 155.09 51.18 C 151.47 53.24 147.14 52.24 143.21 51.99 C 142.85 51.40 142.49 50.81 142.13 50.22 C 144.18 50.26 146.24 50.29 148.30 50.31 C 148.27 48.91 148.25 47.50 148.23 46.10 C 145.58 46.02 142.93 45.96 140.28 45.92 C 139.81 43.64 139.31 41.36 138.82 39.09 C 141.82 38.35 144.73 37.72 147.65 36.68 C 150.02 35.87 152.47 34.93 155.02 35.23 Z" fill="#e32124"/>
<path d="M 47.94 36.81 C 49.03 37.67 50.09 38.55 51.15 39.45 C 49.40 39.83 47.65 40.19 45.89 40.53 C 46.55 39.28 47.22 38.03 47.94 36.81 Z" fill="#020101"/>
<path d="M 82.45 36.89 C 83.01 37.17 83.38 37.60 83.55 38.16 C 84.95 41.69 85.88 45.41 87.09 49.01 L 84.64 50.00 C 83.81 47.39 83.00 44.78 82.18 42.17 C 80.85 42.35 79.52 42.53 78.19 42.69 C 79.55 40.73 80.90 38.72 82.45 36.89 Z" fill="#020101"/>
<path d="M 92.06 36.81 C 93.21 37.97 94.77 39.60 93.12 41.09 C 91.23 43.76 89.83 39.88 89.23 38.34 C 90.15 37.77 91.09 37.27 92.06 36.81 Z" fill="#fce800"/>
<path d="M 102.45 37.44 L 104.02 36.14 C 106.68 37.84 106.09 42.47 104.79 44.85 C 103.94 45.92 103.03 45.95 102.04 44.95 C 101.17 42.79 101.35 39.49 102.45 37.44 Z" fill="#fce800"/>
<path d="M 119.70 37.11 C 119.13 39.53 118.49 41.92 117.76 44.30 C 118.21 45.06 118.66 45.81 119.11 46.57 C 117.65 47.80 116.34 49.14 115.06 50.56 C 114.70 49.20 114.35 47.84 114.01 46.48 C 112.31 45.97 110.61 45.45 108.91 44.92 C 111.45 41.53 115.28 37.61 119.70 37.11 Z" fill="#020101"/>
<path d="M 152.07 36.83 C 152.80 38.04 153.48 39.28 154.15 40.53 C 152.37 40.19 150.61 39.82 148.84 39.44 C 149.91 38.55 150.98 37.67 152.07 36.83 Z" fill="#020101"/>
<path d="M 116.41 40.12 C 116.03 41.59 115.66 43.05 115.28 44.52 C 114.17 44.25 113.06 43.99 111.95 43.72 C 113.43 42.51 114.91 41.31 116.41 40.12 Z" fill="#fce800"/>
<path d="M 72.29 46.57 C 72.66 47.41 73.03 48.24 73.40 49.07 C 69.95 49.79 66.92 51.11 63.82 52.75 C 64.71 51.39 65.51 49.94 66.51 48.66 C 68.33 47.78 70.40 47.33 72.29 46.57 Z" fill="#ffffff"/>
<path d="M 127.69 46.63 C 129.58 47.32 131.46 47.89 133.43 48.32 C 134.32 49.79 135.20 51.26 136.09 52.72 C 133.02 51.06 130.02 49.78 126.57 49.08 C 126.94 48.26 127.32 47.45 127.69 46.63 Z" fill="#ffffff"/>
<path d="M 71.01 50.95 C 73.29 50.31 74.27 51.40 75.91 52.71 C 74.50 52.95 73.09 53.19 71.68 53.42 C 73.07 54.05 74.46 54.69 75.85 55.32 C 75.97 56.40 76.09 57.48 76.20 58.55 C 74.45 57.32 72.71 56.05 70.99 54.77 C 71.75 56.35 73.95 58.47 73.33 60.25 C 71.91 60.13 70.50 59.92 69.09 59.72 C 67.46 60.22 65.84 60.73 64.22 61.24 C 62.59 64.09 61.03 66.94 59.95 70.06 C 59.75 70.55 59.55 71.04 59.34 71.52 C 58.68 72.00 58.02 72.47 57.36 72.94 C 56.76 72.32 56.15 71.69 55.55 71.07 C 56.04 69.91 56.54 68.76 57.04 67.60 C 58.05 66.77 59.16 65.94 60.03 64.95 C 60.58 63.54 60.53 61.85 60.64 60.34 C 59.33 60.59 58.02 60.83 56.71 61.06 C 60.69 57.20 65.51 52.39 71.01 50.95 Z" fill="#e32124"/>
<path d="M 128.00 50.78 C 133.86 51.71 139.22 57.10 143.35 61.07 C 142.02 60.83 140.70 60.58 139.38 60.34 C 139.49 61.86 139.50 63.50 139.96 64.96 C 140.85 65.95 142.00 66.79 143.04 67.62 C 143.53 68.78 144.01 69.93 144.49 71.09 C 143.85 71.70 143.21 72.30 142.57 72.91 L 141.65 72.16 C 141.12 71.68 140.60 71.20 140.07 70.72 C 139.33 67.17 137.54 64.32 135.79 61.22 C 134.19 60.73 132.59 60.25 130.98 59.78 C 129.52 59.97 128.06 60.13 126.59 60.25 C 126.34 58.36 128.16 56.42 129.02 54.81 C 127.20 56.15 125.33 57.42 123.36 58.55 C 124.07 55.41 125.68 54.67 128.20 53.18 C 126.84 53.06 125.47 52.94 124.11 52.81 C 125.32 51.97 126.35 50.43 128.00 50.78 Z" fill="#e32124"/>
<path d="M 16.61 53.38 C 19.03 54.83 18.83 57.38 19.40 59.84 C 18.64 60.57 17.89 61.31 17.13 62.05 C 17.62 65.45 18.25 68.63 17.46 72.05 C 16.21 77.93 11.35 81.85 10.10 88.01 C 9.36 91.46 10.18 94.87 12.56 97.49 C 14.52 99.74 17.39 100.17 20.12 100.96 C 20.52 101.80 20.92 102.64 21.31 103.48 C 17.99 102.84 14.50 102.50 11.85 100.16 C 7.95 96.74 6.81 91.09 8.26 86.21 C 9.86 80.82 14.14 77.04 15.43 71.79 C 16.21 68.62 15.69 65.69 15.19 62.54 C 13.92 61.95 12.60 61.40 11.41 60.66 C 9.75 58.69 8.75 56.09 7.53 53.83 C 10.62 53.02 13.54 51.58 16.61 53.38 Z" fill="#e32124"/>
<path d="M 184.95 52.73 C 187.34 52.03 190.13 53.21 192.47 53.81 C 191.50 55.75 190.57 57.76 189.36 59.55 C 188.21 61.17 185.80 61.80 184.77 63.46 C 183.87 66.08 184.03 69.13 184.63 71.80 C 185.87 77.26 190.69 81.30 191.93 87.01 C 193.01 92.00 191.79 97.42 187.60 100.62 C 184.73 102.78 181.56 102.96 178.11 103.23 C 180.34 100.33 183.56 100.25 186.44 98.42 C 189.29 96.17 190.51 92.52 190.03 88.97 C 189.40 83.62 185.86 79.99 183.65 75.38 C 181.67 71.10 182.31 66.97 182.67 62.46 C 181.96 61.06 180.91 59.56 180.75 57.98 C 180.90 55.55 182.55 53.33 184.95 52.73 Z" fill="#e32124"/>
<path d="M 93.18 56.12 C 103.66 54.47 114.60 56.74 123.57 62.40 C 136.67 70.53 144.79 85.57 144.29 101.00 C 144.02 117.31 134.18 132.54 119.56 139.68 C 104.66 147.12 86.09 145.29 72.99 135.00 C 59.11 124.47 52.59 105.86 57.08 88.98 C 61.26 71.98 75.89 58.75 93.18 56.12 Z" fill="#ffffff"/>
<path d="M 92.22 58.90 C 96.40 59.01 100.76 58.54 104.88 59.24 C 108.21 60.59 107.31 63.39 106.87 66.24 C 107.26 67.49 107.68 68.67 107.86 69.97 C 107.48 71.85 105.99 73.66 103.96 73.74 C 100.06 73.97 96.12 73.78 92.21 73.83 C 92.22 68.86 92.21 63.88 92.22 58.90 Z" fill="#020101"/>
<path d="M 69.25 61.15 C 70.15 61.26 71.05 61.38 71.95 61.52 C 66.03 66.33 60.98 71.86 57.59 78.75 C 51.27 91.24 50.97 106.51 56.73 119.27 C 60.50 127.87 66.82 134.64 74.44 140.00 C 66.27 137.59 57.91 135.91 49.41 135.15 C 49.79 134.28 50.17 133.41 50.55 132.53 C 51.32 131.14 53.19 129.48 52.31 127.79 C 51.26 124.76 48.99 123.64 45.98 123.19 C 41.77 122.65 39.43 119.78 36.56 117.01 C 40.31 114.70 44.78 113.10 47.18 109.19 C 49.10 106.40 48.54 102.24 46.04 99.99 C 44.52 98.82 42.46 98.24 40.70 97.51 C 41.49 95.32 42.19 92.63 43.79 90.90 C 45.73 88.79 48.05 87.23 49.76 84.88 C 53.13 79.91 57.95 77.50 59.72 71.29 L 59.34 71.52 C 59.55 71.04 59.75 70.55 59.95 70.06 L 60.24 71.07 C 61.99 68.16 63.57 65.16 65.17 62.17 C 66.53 61.82 67.89 61.45 69.25 61.15 Z" fill="#ffffff"/>
<path d="M 128.12 61.60 C 128.97 61.41 129.81 61.24 130.67 61.08 C 132.07 61.43 133.47 61.84 134.86 62.23 C 136.51 65.28 138.03 68.35 140.08 71.17 L 140.07 70.72 C 140.60 71.20 141.12 71.68 141.65 72.16 C 141.15 72.18 140.66 72.20 140.16 72.23 C 141.97 74.98 143.56 77.69 145.99 79.95 C 149.02 82.68 150.85 86.30 154.11 88.83 C 157.00 91.08 158.24 94.00 159.42 97.37 C 157.51 98.27 154.98 98.92 153.48 100.47 C 151.33 102.99 151.13 107.10 153.21 109.74 C 155.63 113.23 159.90 114.84 163.46 117.01 C 160.57 119.79 158.23 122.64 154.01 123.20 C 150.99 123.65 148.77 124.76 147.71 127.80 C 146.95 129.65 148.67 131.11 149.54 132.56 C 149.90 133.42 150.26 134.29 150.62 135.15 C 142.12 135.92 133.72 137.58 125.54 140.01 C 132.57 135.07 138.53 128.99 142.36 121.22 C 148.81 108.52 149.06 92.95 143.05 80.04 C 139.68 72.64 134.43 66.65 128.12 61.60 Z" fill="#ffffff"/>
<path d="M 95.89 62.33 C 98.21 62.08 101.10 62.07 103.42 62.36 C 103.80 63.06 104.17 63.77 104.53 64.49 C 101.33 64.73 98.13 64.74 94.93 64.56 C 95.23 63.81 95.55 63.07 95.89 62.33 Z" fill="#ffffff"/>
<path d="M 95.99 68.03 C 99.26 68.00 103.73 66.66 105.70 70.11 C 102.09 70.59 98.47 70.56 94.84 70.37 L 95.99 68.03 Z" fill="#ffffff"/>
<path d="M 36.00 69.67 C 36.06 72.15 35.02 76.19 36.82 78.18 C 38.09 79.90 40.15 78.78 41.96 78.76 C 40.92 75.47 41.30 73.65 42.50 70.53 C 43.05 73.12 42.91 76.39 44.28 78.70 C 46.23 80.07 48.64 80.85 50.82 81.81 C 48.42 84.77 45.62 87.28 42.97 89.99 C 40.81 92.27 40.30 94.95 39.39 97.84 C 38.30 97.97 37.22 98.10 36.13 98.23 L 36.15 99.21 C 38.99 99.30 42.83 98.91 45.12 100.85 C 47.76 103.27 47.49 107.57 44.97 110.00 C 42.10 112.78 38.19 114.48 34.98 116.87 C 37.73 119.90 40.25 123.16 44.43 124.18 C 46.15 124.78 48.46 124.95 49.86 126.14 C 51.36 127.70 50.83 129.27 50.87 131.23 C 49.22 129.93 47.59 128.59 45.96 127.26 C 47.11 129.28 48.62 131.25 48.98 133.57 C 48.05 134.07 47.09 134.52 46.13 134.95 C 44.79 132.70 43.35 130.60 41.37 128.85 C 42.25 130.80 43.22 132.69 44.19 134.58 C 42.65 134.43 40.45 134.82 39.15 133.92 C 37.06 131.61 35.81 128.62 33.73 126.28 C 31.24 123.45 27.90 121.22 24.95 118.90 C 27.08 116.19 30.20 113.97 28.98 110.07 C 27.09 106.65 22.79 104.73 21.43 100.52 C 20.18 96.93 22.23 93.95 23.99 91.00 C 26.95 86.50 29.53 81.93 31.87 77.08 C 33.40 74.70 34.70 72.19 36.00 69.67 Z" fill="#e32124"/>
<path d="M 48.89 69.31 C 50.04 71.44 50.95 73.79 52.34 75.77 C 53.78 75.81 55.25 75.66 56.69 75.56 C 54.45 77.95 52.55 79.85 49.22 80.64 C 49.66 79.66 50.11 78.67 50.57 77.69 C 48.51 74.77 48.52 72.79 48.89 69.31 Z" fill="#e32124"/>
<path d="M 151.07 69.45 C 151.52 72.92 151.45 74.73 149.48 77.67 C 149.93 78.65 150.37 79.64 150.82 80.63 C 147.59 79.84 145.74 78.17 143.48 75.86 C 144.90 75.86 146.31 75.80 147.71 75.68 C 149.06 73.77 149.94 71.50 151.07 69.45 Z" fill="#e32124"/>
<path d="M 157.51 70.47 C 158.78 73.67 159.06 75.40 158.04 78.78 C 159.84 78.79 161.93 79.90 163.18 78.16 C 164.96 76.18 163.93 72.13 163.98 69.72 C 168.12 77.03 171.80 84.61 176.41 91.60 C 178.13 94.47 179.65 97.13 178.56 100.57 C 177.40 104.60 172.62 106.87 171.07 110.09 C 169.88 114.04 172.92 116.15 175.03 118.92 C 171.58 121.65 167.46 124.31 164.98 127.97 C 163.59 129.91 162.49 132.18 160.86 133.91 C 159.57 134.82 157.40 134.43 155.88 134.58 C 156.82 132.68 157.78 130.78 158.65 128.85 C 156.68 130.60 155.21 132.69 153.86 134.94 C 152.89 134.51 151.93 134.06 150.99 133.57 C 151.39 131.28 152.92 129.26 154.07 127.27 C 152.43 128.59 150.78 129.91 149.09 131.18 C 149.26 128.97 148.59 127.16 150.69 125.71 C 153.10 124.56 156.46 124.34 158.82 122.83 C 161.22 121.30 163.13 118.99 164.99 116.87 C 161.67 114.32 157.34 112.58 154.56 109.46 C 152.25 106.84 152.48 102.46 155.44 100.44 C 157.74 98.98 161.21 99.29 163.85 99.20 L 163.94 98.28 C 162.83 98.11 161.73 97.95 160.62 97.78 C 159.65 94.68 159.01 91.81 156.57 89.47 C 154.02 87.00 151.47 84.59 149.22 81.83 C 151.39 80.86 153.79 80.06 155.75 78.70 C 157.11 76.40 156.93 73.05 157.51 70.47 Z" fill="#e32124"/>
<path d="M 97.91 75.91 C 99.28 75.84 100.65 75.78 102.01 75.75 C 104.45 80.71 106.83 85.70 109.32 90.63 C 108.08 90.65 106.84 90.66 105.59 90.68 C 105.22 89.85 104.85 89.02 104.48 88.18 C 101.50 88.18 98.52 88.18 95.54 88.21 C 95.18 89.02 94.82 89.82 94.45 90.62 C 93.23 90.63 92.01 90.64 90.79 90.64 C 93.21 85.76 95.39 80.74 97.91 75.91 Z" fill="#020101"/>
<path d="M 100.02 79.11 C 101.00 81.03 101.92 82.98 102.85 84.92 C 100.95 84.91 99.05 84.90 97.14 84.90 C 98.09 82.96 99.01 81.01 100.02 79.11 Z" fill="#ffffff"/>
<path d="M 58.76 92.43 C 63.14 92.64 67.89 91.95 72.16 92.83 C 75.15 94.34 74.32 97.05 73.84 99.73 C 74.19 101.02 74.88 102.47 74.75 103.83 C 74.38 105.53 72.85 107.14 71.06 107.22 C 66.97 107.47 62.85 107.25 58.76 107.31 C 58.77 102.35 58.77 97.39 58.76 92.43 Z" fill="#020101"/>
<path d="M 82.47 92.64 C 83.78 92.42 85.11 92.36 86.43 92.26 C 88.90 97.28 91.31 102.33 93.83 107.33 C 92.58 107.31 91.33 107.30 90.08 107.28 C 89.68 106.45 89.28 105.62 88.88 104.79 C 85.98 104.79 83.09 104.79 80.19 104.78 C 79.75 105.61 79.31 106.44 78.87 107.26 C 77.67 107.29 76.47 107.31 75.27 107.33 C 77.77 102.50 79.70 97.31 82.47 92.64 Z" fill="#020101"/>
<path d="M 89.62 92.26 C 91.16 92.39 92.77 92.36 94.28 92.70 C 96.27 94.38 97.87 96.56 99.59 98.52 C 101.37 96.49 103.15 94.46 104.92 92.43 C 106.47 92.42 108.03 92.42 109.58 92.41 C 106.87 95.43 103.84 98.28 101.44 101.56 C 101.07 103.43 101.20 105.43 101.12 107.34 C 100.04 107.32 98.97 107.30 97.90 107.28 C 97.89 105.33 97.89 103.38 97.89 101.43 C 95.12 98.38 92.32 95.37 89.62 92.26 Z" fill="#020101"/>
<path d="M 110.10 92.56 C 114.41 92.27 118.76 92.50 123.08 92.43 C 123.08 93.55 123.08 94.66 123.07 95.78 C 119.95 95.76 116.78 95.62 113.66 95.88 L 112.69 98.19 C 116.15 98.30 119.61 98.29 123.07 98.26 C 123.07 99.34 123.08 100.43 123.08 101.51 C 119.79 101.51 116.49 101.51 113.20 101.50 C 113.18 102.32 113.16 103.14 113.13 103.96 C 116.44 104.01 119.76 104.02 123.07 104.01 C 123.07 105.11 123.07 106.20 123.07 107.30 C 118.68 107.29 114.29 107.30 109.90 107.29 C 109.99 102.40 109.65 97.44 110.10 92.56 Z" fill="#020101"/>
<path d="M 126.45 92.55 C 130.17 92.33 134.14 92.30 137.86 92.57 C 140.93 92.96 141.96 97.20 140.59 99.59 C 139.76 100.67 138.62 101.58 137.62 102.51 C 138.87 104.09 140.08 105.70 141.29 107.31 C 139.92 107.31 138.54 107.31 137.16 107.31 C 135.85 105.51 134.54 103.71 133.23 101.92 C 132.00 101.95 130.78 101.98 129.55 102.02 C 129.57 103.78 129.58 105.55 129.60 107.31 C 128.51 107.31 127.42 107.31 126.33 107.31 C 126.43 102.40 126.18 97.46 126.45 92.55 Z" fill="#020101"/>
<path d="M 62.36 95.93 C 65.42 95.57 68.58 95.80 71.66 95.93 L 70.34 98.00 C 67.85 98.44 65.20 98.34 62.69 98.11 C 61.47 97.43 61.36 96.71 62.36 95.93 Z" fill="#ffffff"/>
<path d="M 137.09 95.99 C 138.23 96.59 138.32 97.38 137.38 98.37 C 134.77 98.79 132.03 98.59 129.39 98.62 C 129.48 97.67 129.59 96.72 129.71 95.78 C 132.14 95.73 134.71 95.51 137.09 95.99 Z" fill="#ffffff"/>
<path d="M 84.45 95.94 C 85.51 97.76 86.43 99.66 87.41 101.53 C 85.47 101.54 83.54 101.54 81.61 101.54 C 82.54 99.67 83.44 97.78 84.45 95.94 Z" fill="#ffffff"/>
<path d="M 62.67 101.59 C 65.73 101.31 68.99 101.26 72.02 101.91 L 71.41 103.73 C 68.15 104.30 64.68 103.99 61.39 103.78 C 61.80 103.04 62.22 102.31 62.67 101.59 Z" fill="#ffffff"/>
<path d="M 26.93 107.79 C 27.27 109.42 27.78 111.15 27.79 112.82 C 26.64 114.98 24.90 116.74 23.80 118.96 C 25.74 121.59 28.92 123.42 31.34 125.68 C 34.17 128.24 35.81 131.37 37.57 134.70 C 33.75 134.86 33.54 131.89 31.53 129.48 C 28.48 125.02 24.01 122.79 20.44 118.96 C 22.09 116.50 24.16 114.58 25.63 111.98 C 26.07 110.59 26.50 109.19 26.93 107.79 Z" fill="#e32124"/>
<path d="M 92.31 109.49 C 97.24 109.23 102.20 109.45 107.13 109.43 C 107.13 110.51 107.14 111.59 107.15 112.67 C 103.05 112.71 98.96 112.64 94.87 112.80 L 96.00 115.04 C 99.68 115.39 103.43 115.14 107.13 115.21 C 107.13 116.28 107.14 117.34 107.15 118.40 C 103.24 118.43 99.34 118.43 95.43 118.40 C 95.41 119.24 95.39 120.09 95.37 120.93 C 99.30 120.93 103.22 120.90 107.14 121.05 C 107.13 122.11 107.12 123.18 107.12 124.25 C 102.16 124.25 97.20 124.24 92.24 124.25 C 92.30 119.34 92.07 114.40 92.31 109.49 Z" fill="#020101"/>
<path d="M 173.08 108.01 C 174.06 112.63 176.83 115.38 179.53 118.96 C 175.99 122.84 171.54 125.00 168.48 129.49 C 166.47 131.89 166.22 134.82 162.44 134.71 C 163.94 131.87 165.44 129.01 167.68 126.67 C 169.85 124.38 172.44 122.78 174.73 120.69 C 175.71 119.82 176.54 118.76 175.50 117.55 C 174.44 115.98 173.08 114.52 172.21 112.85 C 172.19 111.24 172.72 109.58 173.08 108.01 Z" fill="#e32124"/>
<path d="M 92.33 126.42 C 96.04 126.21 100.19 126.21 103.89 126.40 C 106.65 126.46 107.81 129.71 107.37 132.05 C 107.20 133.82 105.08 135.08 103.89 136.22 C 105.16 137.94 106.42 139.67 107.64 141.43 C 106.21 141.29 104.79 141.07 103.39 140.78 C 101.93 139.26 100.74 137.44 99.50 135.73 C 98.15 135.73 96.80 135.72 95.45 135.72 C 95.46 137.53 95.46 139.34 95.46 141.15 C 94.39 141.15 93.31 141.14 92.24 141.14 C 92.31 136.24 92.07 131.31 92.33 126.42 Z" fill="#020101"/>
<path d="M 95.80 129.64 C 98.53 129.41 101.40 129.34 104.09 129.91 L 104.10 132.09 C 101.19 132.71 98.04 132.44 95.08 132.43 C 95.29 131.49 95.53 130.56 95.80 129.64 Z" fill="#ffffff"/>
<path d="M 52.01 136.72 C 61.43 137.83 70.92 139.82 79.81 143.17 C 84.44 144.89 89.07 146.41 93.99 147.04 C 102.48 148.34 110.78 146.68 118.72 143.71 C 130.07 139.33 141.91 137.09 154.00 136.12 C 160.35 135.68 166.31 136.04 172.46 137.72 C 170.08 145.39 168.31 153.32 165.56 160.85 C 162.36 160.89 159.21 159.99 156.00 159.94 C 146.57 159.48 137.68 163.22 128.78 165.75 C 110.43 171.24 90.44 171.34 72.05 165.98 C 63.97 163.75 55.42 160.22 47.00 159.94 C 42.70 159.72 38.59 160.45 34.37 161.09 C 31.99 153.33 29.78 145.51 27.58 137.70 C 35.62 135.49 43.81 135.66 52.01 136.72 Z" fill="#fce800"/>
<path d="M 38.68 140.50 C 39.69 140.19 40.71 139.92 41.74 139.67 C 42.16 143.94 42.25 148.21 42.32 152.49 C 44.43 152.41 46.55 152.34 48.66 152.26 C 48.70 153.22 48.74 154.17 48.78 155.12 C 45.54 155.19 42.29 155.25 39.05 155.35 C 39.03 150.40 38.50 145.44 38.68 140.50 Z" fill="#020101"/>
<path d="M 150.51 144.36 C 151.61 144.27 152.70 144.28 153.81 144.26 C 155.78 144.32 158.45 143.56 159.95 145.11 C 161.16 148.17 160.46 152.06 160.53 155.31 L 157.44 155.24 C 157.46 152.69 157.80 149.98 157.33 147.47 C 156.77 145.69 155.82 146.39 154.37 146.39 C 152.68 148.61 153.38 152.47 153.10 155.13 C 152.14 155.16 151.18 155.19 150.22 155.22 C 150.27 151.61 150.17 147.96 150.51 144.36 Z" fill="#020101"/>
<path d="M 57.88 145.12 C 60.49 146.46 60.40 149.21 61.01 151.72 C 57.96 151.40 54.92 151.03 51.86 150.78 C 52.58 151.84 53.37 152.82 54.23 153.75 C 56.37 153.66 58.49 153.20 60.62 152.98 C 58.84 154.57 57.71 156.48 54.99 156.17 C 51.19 155.97 48.92 152.64 49.81 148.97 C 50.58 145.30 54.50 143.41 57.88 145.12 Z" fill="#020101"/>
<path d="M 142.98 144.97 C 145.69 145.39 146.58 148.29 147.86 150.30 C 144.86 150.91 141.86 151.48 138.90 152.25 C 139.87 152.99 140.88 153.67 141.93 154.28 C 143.98 153.54 145.90 152.45 147.91 151.60 C 146.58 153.89 146.02 156.04 143.05 156.48 C 139.39 157.24 136.53 154.49 136.32 150.96 C 136.04 147.25 139.34 144.36 142.98 144.97 Z" fill="#020101"/>
<path d="M 55.13 146.77 C 56.52 146.79 57.58 148.56 58.52 149.44 C 56.38 149.24 54.27 148.89 52.17 148.47 C 53.13 147.85 54.12 147.29 55.13 146.77 Z" fill="#fce800"/>
<path d="M 63.49 145.57 L 66.15 147.30 C 66.67 149.67 66.61 152.19 66.77 154.60 C 68.91 151.87 69.72 147.63 74.03 148.36 C 71.96 151.89 69.64 155.24 67.37 158.65 C 66.30 158.33 65.24 158.01 64.17 157.70 C 63.79 153.66 63.54 149.62 63.49 145.57 Z" fill="#020101"/>
<path d="M 140.59 147.65 C 142.10 146.42 142.95 147.82 144.39 148.41 C 142.55 149.72 140.55 149.68 138.39 150.00 C 139.07 149.17 139.81 148.38 140.59 147.65 Z" fill="#fce800"/>
<path d="M 127.15 148.30 C 129.81 147.15 131.61 148.46 133.98 149.51 C 131.78 150.76 130.73 150.57 128.31 150.07 C 127.60 150.72 126.89 151.38 126.18 152.04 C 128.62 152.24 131.16 152.13 133.56 152.62 C 136.27 154.65 134.74 158.05 131.92 159.01 C 128.63 160.39 126.86 159.37 124.37 157.21 C 125.32 156.97 126.27 156.73 127.22 156.50 C 128.18 156.84 129.15 157.16 130.12 157.44 C 131.11 156.79 132.00 156.01 132.81 155.09 C 130.26 154.68 127.31 155.02 124.88 154.16 C 122.44 151.82 124.55 149.10 127.15 148.30 Z" fill="#020101"/>
<path d="M 97.60 149.89 C 98.60 149.91 99.59 149.92 100.59 149.94 C 100.71 152.66 100.82 155.37 100.92 158.09 C 102.10 156.77 103.28 155.44 104.43 154.10 C 105.70 153.96 106.96 153.83 108.23 153.69 C 106.91 155.13 105.58 156.56 104.25 157.99 C 106.02 160.33 107.77 162.69 109.37 165.15 C 108.09 165.01 106.82 164.81 105.58 164.53 C 104.14 163.08 102.99 161.31 101.73 159.69 C 101.46 161.52 101.26 163.35 101.11 165.19 C 100.21 165.24 99.30 165.29 98.39 165.34 C 98.14 160.19 97.80 155.04 97.60 149.89 Z" fill="#020101"/>
<path d="M 81.90 151.03 C 85.04 152.65 84.55 155.39 84.86 158.41 C 81.85 157.70 78.87 156.91 75.82 156.34 C 76.63 157.53 77.46 158.71 78.33 159.86 C 80.35 159.62 82.36 159.48 84.36 159.44 C 82.53 160.69 81.42 162.43 78.99 162.10 C 75.79 161.82 73.25 159.31 73.71 155.97 C 74.08 151.89 78.02 149.14 81.90 151.03 Z" fill="#020101"/>
<path d="M 120.31 150.48 C 121.26 154.05 122.51 157.69 122.86 161.37 C 121.81 161.60 120.76 161.79 119.70 161.97 C 117.83 162.58 115.08 164.45 113.45 162.55 C 111.57 159.96 111.26 156.08 110.41 153.06 L 113.31 152.44 C 114.07 155.06 114.42 158.36 116.08 160.58 C 117.17 160.54 118.26 160.45 119.34 160.33 C 118.89 157.35 118.26 154.42 117.55 151.49 C 118.47 151.15 119.39 150.82 120.31 150.48 Z" fill="#020101"/>
<path d="M 80.22 152.78 C 81.25 153.53 81.94 154.76 82.71 155.75 C 80.60 155.33 78.53 154.78 76.47 154.15 C 77.58 153.71 78.99 152.55 80.22 152.78 Z" fill="#fce800"/>
<path d="M 88.62 152.92 C 89.78 153.18 90.74 153.75 91.76 154.34 C 93.03 154.02 94.29 153.70 95.56 153.39 L 95.19 156.00 C 93.97 156.39 92.34 156.48 91.33 157.33 C 90.38 159.44 90.15 161.95 89.70 164.21 C 88.75 164.14 87.80 164.08 86.85 164.01 C 87.37 160.32 87.75 156.55 88.62 152.92 Z" fill="#020101"/>
</svg>