<?xml version="1.0" encoding="UTF-8" standalone="no"?>
<svg xmlns:dc="http://purl.org/dc/elements/1.1/" xmlns:cc="http://creativecommons.org/ns#" xmlns:rdf="http://www.w3.org/1999/02/22-rdf-syntax-ns#" xmlns:svg="http://www.w3.org/2000/svg" xmlns="http://www.w3.org/2000/svg" xmlns:sodipodi="http://sodipodi.sourceforge.net/DTD/sodipodi-0.dtd" xmlns:inkscape="http://www.inkscape.org/namespaces/inkscape" inkscape:version="1.0 (4035a4f, 2020-05-01)" sodipodi:docname="338.svg" id="svg23477" height="200.0pt" width="200.0pt" viewBox="0 0 200 200" version="1.1">
  <metadata id="metadata23483">
    <rdf:RDF>
      <cc:Work rdf:about="">
        <dc:format>image/svg+xml</dc:format>
        <dc:type rdf:resource="http://purl.org/dc/dcmitype/StillImage"/>
      </cc:Work>
    </rdf:RDF>
  </metadata>
  <defs id="defs23481"/>
  <sodipodi:namedview inkscape:current-layer="svg23477" inkscape:cy="133.33333" inkscape:cx="133.33333" inkscape:zoom="1.75125" showgrid="false" id="namedview23479" inkscape:window-height="480" inkscape:window-width="640" inkscape:pageshadow="2" inkscape:pageopacity="0" guidetolerance="10" gridtolerance="10" objecttolerance="10" borderopacity="1" bordercolor="#666666" pagecolor="#ffffff"/>
  <path style="fill:#ffffff;fill-opacity:0.048583" id="path23317" fill="#ffffff" d="M 0.00 0.00 L 200.00 0.00 L 200.00 200.00 L 0.00 200.00 L 0.00 0.00 Z"/>
  <path id="path23319" fill="#004b96" d="M 105.01 3.67 C 129.62 4.74 153.35 15.87 170.20 33.80 C 185.80 50.28 195.33 72.29 196.32 95.00 C 197.35 113.35 192.98 131.90 183.81 147.83 C 172.05 168.50 152.52 184.51 129.85 191.76 C 106.52 199.44 80.15 197.69 58.06 186.93 C 35.57 176.13 17.68 156.38 9.27 132.88 C 2.67 114.80 1.72 94.50 6.58 75.88 C 12.28 53.23 26.64 33.05 46.01 20.03 C 63.21 8.30 84.22 2.50 105.01 3.67 Z"/>
  <path id="path23321" fill="#ffffff" d="M 102.00 9.78 C 120.46 10.07 138.80 16.35 153.60 27.37 C 171.40 40.45 184.23 60.29 188.41 82.02 C 194.18 109.37 186.31 138.84 167.71 159.71 C 154.32 174.89 135.86 185.44 115.87 188.82 C 88.61 193.90 59.62 185.54 39.24 166.76 C 26.08 154.81 16.44 138.82 12.34 121.51 C 7.90 103.57 9.16 84.16 15.97 66.97 C 23.07 48.77 36.28 33.09 52.97 22.94 C 67.59 13.94 84.83 9.33 102.00 9.78 Z"/>
  <path id="path23323" fill="#004b96" d="M 137.74 20.30 C 157.36 29.51 173.35 46.31 181.53 66.37 C 186.46 78.24 188.65 91.17 188.06 104.00 C 187.21 126.25 177.39 147.93 161.34 163.33 C 147.58 176.81 129.13 185.55 109.99 187.61 C 84.39 190.77 57.70 181.74 39.17 163.81 C 22.56 148.15 12.50 125.83 11.89 103.00 C 11.31 87.29 15.01 71.39 22.65 57.64 C 35.31 34.31 58.79 17.44 85.01 13.10 C 102.81 10.07 121.44 12.47 137.74 20.30 Z"/>
  <path id="path23325" fill="#ffffff" d="M 128.12 17.70 C 141.35 22.18 153.32 29.93 162.95 40.04 C 178.19 55.89 187.26 77.96 186.85 100.00 C 187.11 116.31 182.23 132.74 173.50 146.48 C 163.91 161.57 149.74 173.64 133.16 180.39 C 117.52 187.03 99.63 188.47 83.00 185.31 C 61.28 181.08 41.59 168.16 28.89 150.05 C 18.66 135.59 12.83 117.74 13.15 100.00 C 12.72 77.98 21.85 55.88 37.04 40.04 C 49.50 26.87 66.17 17.77 84.02 14.52 C 98.59 11.90 114.10 12.80 128.12 17.70 Z"/>
  <path id="path23327" fill="#004b96" d="M 89.44 18.38 C 93.96 18.01 98.52 17.95 103.06 17.75 C 104.72 17.84 105.35 19.54 104.95 20.94 C 103.10 21.01 101.28 20.42 99.40 20.49 C 98.86 22.20 99.28 24.22 99.25 26.00 C 99.55 28.76 98.80 31.12 100.60 33.43 C 99.25 34.08 96.76 33.70 95.20 33.85 C 95.72 29.97 95.39 24.99 94.90 21.10 C 93.14 20.51 90.88 21.62 89.08 21.90 C 89.05 20.74 89.17 19.57 89.44 18.38 Z"/>
  <path id="path23329" fill="#004b96" d="M 107.24 18.12 C 112.26 18.16 117.41 20.04 122.48 20.51 C 122.37 21.58 123.04 23.90 122.40 24.63 C 119.19 22.10 115.78 22.38 111.96 21.51 L 111.10 21.91 C 110.69 23.06 110.67 24.04 111.04 24.87 C 113.59 25.57 116.27 25.69 118.84 26.29 C 117.80 30.82 112.93 27.17 110.12 28.06 C 109.56 29.20 109.46 30.24 109.84 31.17 C 113.47 32.76 117.19 32.64 121.01 32.87 C 120.93 33.91 120.54 34.90 119.85 35.85 C 114.78 35.64 109.49 33.96 104.36 33.46 C 106.05 28.80 107.17 23.05 107.24 18.12 Z"/>
  <path id="path23331" fill="#004b96" d="M 87.06 19.09 C 87.67 19.91 87.72 20.96 87.21 22.25 C 84.52 22.81 82.08 21.99 79.48 23.50 C 78.91 24.24 78.83 24.99 79.24 25.73 C 81.99 26.28 85.96 24.92 88.79 26.25 C 91.70 27.80 91.59 32.14 89.02 33.99 C 86.17 36.14 81.68 36.96 78.21 36.78 C 77.49 35.93 77.31 33.75 75.94 33.98 C 75.82 35.25 75.81 36.55 75.91 37.88 C 72.14 40.20 68.05 42.04 64.20 44.25 C 63.59 44.63 62.96 44.83 62.32 44.84 C 60.93 40.12 57.95 35.21 55.22 31.17 C 59.56 28.85 64.28 25.96 68.78 24.18 C 69.42 24.94 70.93 25.79 70.85 26.86 C 67.30 27.64 64.24 29.40 61.12 31.20 L 60.68 32.02 C 60.96 32.92 61.41 33.65 62.02 34.22 C 64.47 34.13 67.60 31.18 69.70 30.54 C 69.86 31.51 69.80 32.53 69.53 33.59 C 67.94 35.06 65.55 35.68 63.88 37.03 C 63.33 38.03 64.71 40.28 65.94 40.12 C 69.47 38.27 72.89 36.78 75.46 33.58 C 79.05 33.11 82.03 34.23 85.51 32.48 C 86.98 31.66 87.06 31.00 86.56 29.46 C 83.58 28.57 80.20 30.23 77.03 29.04 C 74.56 28.11 74.12 24.63 75.74 22.76 C 78.19 19.56 83.35 19.46 87.06 19.09 Z"/>
  <path id="path23333" fill="#004b96" d="M 128.57 22.30 C 132.20 24.47 136.31 25.85 139.84 28.15 C 142.00 29.61 142.44 32.74 140.71 34.68 C 139.51 36.24 137.94 35.99 136.19 36.26 C 136.32 38.70 137.40 41.60 137.11 43.92 C 135.42 43.53 133.84 42.59 132.31 41.79 C 133.50 38.39 132.53 34.95 129.00 33.55 C 127.23 33.84 126.66 37.20 126.48 38.70 C 124.93 38.55 123.47 37.52 122.08 36.85 C 124.17 32.14 127.45 27.43 128.57 22.30 Z"/>
  <path id="path23335" fill="#ffffff" d="M 131.29 27.25 C 133.10 27.47 136.85 29.21 137.60 30.93 C 137.30 35.49 132.13 32.05 130.10 30.86 C 129.66 29.70 130.83 28.30 131.29 27.25 Z"/>
  <path id="path23337" fill="#004b96" d="M 51.71 34.29 C 52.14 35.38 52.72 36.55 52.80 37.73 C 50.35 38.63 48.16 39.55 46.91 42.02 C 45.12 45.45 48.85 50.36 52.59 49.57 C 55.64 48.65 57.18 46.04 58.40 43.31 C 59.83 42.97 60.75 44.83 61.12 45.92 C 58.63 48.84 56.01 52.50 52.03 53.32 C 46.52 54.46 41.28 48.25 42.94 42.97 C 44.10 39.03 48.16 36.00 51.71 34.29 Z"/>
  <path id="path23339" fill="#004b96" d="M 153.01 38.97 C 157.03 39.33 159.88 42.95 162.15 45.93 C 162.54 46.33 162.70 46.88 162.63 47.56 C 161.61 48.02 160.61 48.64 159.49 48.63 C 158.63 46.21 157.40 44.11 154.96 43.02 C 151.17 41.34 145.99 46.04 148.13 49.90 C 149.40 52.77 152.12 53.14 154.06 55.01 C 154.00 56.03 153.32 56.87 152.01 57.54 C 148.97 55.22 145.20 52.81 144.02 48.99 C 142.40 43.83 147.83 38.16 153.01 38.97 Z"/>
  <path id="path23341" fill="#004b96" d="M 97.97 42.12 C 98.59 43.25 97.39 44.78 96.73 45.68 C 93.11 49.90 86.24 49.89 82.31 54.33 C 80.60 56.04 80.07 58.16 78.99 60.22 L 78.05 60.29 C 74.40 58.19 70.85 55.65 67.03 53.95 C 66.20 53.75 65.99 53.24 66.41 52.42 C 75.32 45.94 86.92 41.72 97.97 42.12 Z"/>
  <path id="path23343" fill="#004b96" d="M 104.04 42.05 C 114.15 42.55 124.74 46.03 132.89 52.09 L 132.81 52.79 C 129.61 54.81 125.42 57.86 122.30 59.60 C 120.69 54.71 117.66 52.00 113.07 49.90 C 109.62 47.95 104.98 47.85 103.31 43.88 C 102.89 42.52 103.14 41.92 104.04 42.05 Z"/>
  <path id="path23345" fill="#004b96" d="M 100.36 43.26 C 101.83 44.97 102.16 47.40 104.44 48.67 C 108.97 51.25 115.88 52.36 118.81 57.20 C 119.66 58.70 121.12 61.30 119.01 62.43 C 117.50 61.66 117.94 58.76 116.54 57.45 C 112.24 52.36 105.08 52.28 100.98 46.49 C 97.36 50.71 92.68 52.35 88.05 55.09 C 84.69 57.09 83.29 60.03 82.83 63.82 C 80.02 63.27 81.20 59.92 82.21 58.22 C 85.69 52.06 93.76 51.63 98.87 46.85 C 100.09 45.88 99.95 44.64 100.36 43.26 Z"/>
  <path id="path23347" fill="#004b96" d="M 37.68 47.50 C 40.01 50.22 42.96 52.04 45.68 54.31 C 46.88 55.31 48.03 56.14 49.55 56.61 C 50.21 57.70 47.81 60.07 46.99 60.73 C 42.81 56.88 39.36 54.38 34.78 51.02 C 35.53 50.24 36.77 47.65 37.68 47.50 Z"/>
  <path id="path23349" fill="#004b96" d="M 165.70 50.54 C 166.65 51.87 168.59 53.72 168.61 55.37 C 166.34 55.59 164.98 57.01 163.18 58.20 C 160.78 60.00 158.33 61.12 156.45 63.51 C 155.34 64.30 153.23 60.42 153.33 59.50 C 157.22 58.18 160.42 55.03 163.88 52.85 C 164.84 52.49 165.00 50.75 165.70 50.54 Z"/>
  <path id="path23351" fill="#004b96" d="M 100.18 52.15 L 100.86 52.16 L 100.85 52.84 L 100.17 52.83 L 100.18 52.15 Z"/>
  <path id="path23353" fill="#004b96" d="M 98.50 54.51 C 98.50 54.51 98.50 54.51 98.50 54.51 Z"/>
  <path id="path23355" fill="#004b96" d="M 135.82 54.16 C 137.24 56.09 138.42 58.67 139.07 60.97 C 139.17 64.83 137.90 68.05 137.49 71.89 C 137.29 73.48 136.07 74.94 135.60 76.48 C 135.11 79.55 135.47 83.05 133.81 85.83 C 133.12 87.21 132.26 88.41 132.77 90.03 C 133.80 92.32 136.78 93.74 138.71 95.24 C 137.78 98.08 135.11 99.22 135.72 102.81 C 133.09 104.54 131.26 106.26 130.47 109.43 C 129.66 112.95 128.27 116.14 125.13 118.18 C 120.80 120.87 116.69 123.54 113.95 127.96 C 111.94 129.74 112.26 131.46 111.73 133.85 C 110.46 137.49 106.05 139.21 102.83 140.73 C 100.28 141.87 98.85 140.44 96.84 139.17 C 94.89 137.75 91.64 137.74 90.48 135.53 C 89.37 133.62 90.23 131.32 89.45 129.48 C 87.66 126.31 84.85 125.13 82.45 122.55 C 79.89 119.87 76.21 119.20 73.80 116.19 C 71.68 113.89 71.45 111.26 70.51 108.42 C 69.42 106.37 67.65 105.32 65.91 103.88 C 65.33 102.34 66.32 101.33 64.95 100.02 C 64.19 98.77 62.17 96.96 63.48 95.50 C 65.66 94.26 67.31 92.80 68.83 90.81 C 66.92 85.85 65.76 80.83 65.36 75.49 C 64.48 73.32 63.35 71.38 63.05 69.00 C 62.21 64.69 61.66 59.17 64.43 55.42 C 65.48 54.67 66.89 55.70 67.90 56.11 C 74.02 59.13 79.74 62.55 84.27 67.74 C 85.74 68.17 87.62 67.40 89.13 67.15 C 96.26 65.14 104.54 66.01 111.88 66.60 C 113.87 66.72 116.11 68.48 117.64 66.65 C 121.93 62.56 126.63 58.77 131.72 55.73 C 132.95 55.12 134.41 54.10 135.82 54.16 Z"/>
  <path id="path23357" fill="#004b96" d="M 34.67 56.46 L 34.42 57.41 C 31.86 59.53 30.50 63.07 29.04 66.03 L 29.12 66.85 C 30.03 67.70 30.94 68.04 31.85 67.88 C 33.30 65.87 34.23 63.44 35.31 61.21 C 36.54 60.73 37.40 63.11 37.08 64.00 C 36.31 65.94 35.12 67.73 34.38 69.68 C 35.39 70.15 36.73 71.34 37.85 70.87 C 39.82 67.42 41.79 64.18 42.17 60.13 C 43.24 60.39 44.52 62.08 44.98 63.05 C 42.83 67.51 40.67 72.30 37.99 76.43 C 36.11 75.07 34.11 73.99 32.02 72.99 C 29.38 71.71 27.14 70.07 24.15 69.69 C 25.87 65.45 28.32 61.42 30.31 57.29 C 31.01 55.15 33.03 56.45 34.67 56.46 Z"/>
  <path id="path23359" fill="#004b96" d="M 60.69 57.35 C 59.08 61.05 59.41 64.57 59.45 68.48 C 55.50 71.07 53.86 75.39 50.30 78.30 C 49.24 79.04 47.00 80.35 45.93 79.17 C 45.73 77.77 46.67 76.42 47.18 75.12 C 50.38 68.47 54.96 62.05 60.69 57.35 Z"/>
  <path id="path23361" fill="#fcc000" d="M 66.03 58.14 C 72.02 60.65 77.18 65.75 82.28 69.73 C 84.02 70.95 85.47 73.01 87.45 73.77 C 87.31 72.87 87.01 71.95 86.55 71.00 C 87.82 69.50 90.68 69.24 92.50 68.64 C 99.29 67.66 107.06 67.66 113.44 70.48 C 113.68 71.23 113.83 72.01 113.91 72.82 C 115.83 72.35 117.61 70.36 118.84 68.86 C 122.38 64.39 127.02 61.55 132.10 59.16 C 133.21 58.72 134.32 57.97 135.55 58.39 C 136.13 60.25 137.13 62.67 136.58 64.62 C 135.70 66.72 134.74 68.68 134.58 71.01 C 134.41 74.81 132.37 78.18 132.03 82.00 C 131.74 85.02 129.59 86.79 130.26 90.02 C 130.36 93.08 133.12 94.07 134.83 96.09 C 134.77 97.20 133.61 98.11 133.09 99.08 C 132.02 100.42 132.26 102.01 131.75 103.75 C 128.14 107.75 122.85 108.36 119.73 112.84 C 116.22 113.66 113.03 115.90 109.76 117.39 L 108.86 117.11 C 107.51 113.94 109.10 109.25 110.03 106.02 C 113.80 105.38 117.01 104.65 118.90 100.93 C 119.79 98.67 122.49 99.51 123.71 97.35 C 118.93 98.23 114.24 97.02 109.49 97.59 C 107.94 98.94 106.11 100.33 105.21 102.20 C 104.22 104.26 102.65 105.54 102.93 107.99 C 103.28 111.23 102.78 114.31 103.50 117.44 C 104.20 121.04 105.91 124.22 106.22 127.93 L 105.16 129.02 C 102.11 127.07 99.32 128.05 95.99 127.92 C 95.12 127.43 95.53 125.67 95.74 124.86 C 97.71 119.51 98.26 113.61 98.84 107.97 C 99.19 106.55 97.59 104.46 96.07 105.11 C 96.36 106.71 97.24 107.80 96.65 109.49 C 95.73 113.32 95.98 117.55 94.49 121.19 L 92.89 119.78 C 93.33 117.44 94.28 115.56 93.55 113.12 C 92.85 111.20 92.00 109.37 91.49 107.38 L 90.40 107.45 C 91.75 111.04 92.48 114.45 91.21 118.23 C 88.37 117.04 85.88 114.91 82.98 113.95 C 81.63 112.76 80.35 111.07 78.64 110.42 C 76.72 109.81 74.85 110.26 73.65 108.38 C 72.56 106.73 71.04 105.71 69.56 104.46 C 69.06 101.93 67.46 100.29 66.66 98.02 C 66.49 94.09 71.06 94.41 71.40 91.02 C 69.99 85.19 67.93 79.40 66.53 73.56 C 66.36 69.28 64.27 65.63 63.55 61.56 C 64.23 60.61 64.86 58.38 66.03 58.14 Z"/>
  <path id="path23363" fill="#004b96" d="M 100.43 58.28 C 101.10 59.99 101.45 61.89 101.72 63.71 C 100.85 63.92 100.01 63.94 99.21 63.76 C 99.47 61.91 100.06 60.12 100.43 58.28 Z"/>
  <path id="path23365" fill="#004b96" d="M 167.30 58.34 C 168.52 58.06 169.72 57.98 170.90 58.08 C 173.07 61.60 174.67 65.72 176.55 69.45 C 177.92 70.95 175.64 73.43 174.26 73.02 C 173.79 71.53 173.77 68.29 171.97 67.75 C 168.43 69.53 164.01 70.74 161.26 73.62 C 160.33 72.31 159.36 70.73 159.13 69.12 C 163.02 67.63 166.99 65.76 170.62 63.72 C 170.00 61.53 168.24 60.20 167.30 58.34 Z"/>
  <path id="path23367" fill="#004b96" d="M 141.32 59.30 C 146.70 63.80 150.81 70.55 153.43 77.02 L 153.16 78.01 C 151.03 78.39 148.68 76.11 147.35 74.64 C 145.33 72.19 143.38 69.85 140.77 67.98 C 140.60 65.16 141.63 62.27 141.32 59.30 Z"/>
  <path id="path23369" fill="#004b96" d="M 65.90 60.04 C 69.65 60.43 70.94 63.44 74.04 64.93 C 76.25 65.79 77.35 68.34 78.88 70.14 C 80.25 71.56 79.20 73.11 79.58 75.01 C 80.14 75.69 80.69 76.38 81.25 77.07 C 80.93 79.65 77.77 82.30 75.69 83.72 C 74.45 84.53 73.48 86.09 72.03 86.44 C 69.63 84.53 69.87 82.21 69.44 79.48 C 67.79 74.77 66.83 69.95 66.18 65.01 C 66.12 63.43 65.26 61.51 65.90 60.04 Z"/>
  <path id="path23371" fill="#004b96" d="M 133.04 59.84 L 133.98 59.97 C 135.06 61.36 133.97 63.03 133.69 64.52 C 132.98 68.41 133.00 72.80 131.58 76.51 C 130.63 79.07 131.04 81.43 129.69 83.69 C 128.78 85.13 128.03 85.33 126.56 84.42 C 123.89 82.45 120.47 79.92 118.81 77.09 C 121.33 74.58 120.36 72.16 120.99 69.04 C 123.16 64.78 129.29 62.67 133.04 59.84 Z"/>
  <path id="path23373" fill="#ffffff" d="M 68.26 63.34 C 70.65 65.09 72.64 67.27 75.25 68.75 C 77.12 70.14 77.57 71.79 77.77 74.01 C 77.81 75.61 79.28 77.28 78.80 78.79 C 77.12 80.45 75.48 82.16 73.79 83.81 C 71.52 84.70 71.64 81.33 71.68 79.97 C 71.99 78.04 69.89 76.45 69.51 74.55 C 68.97 70.84 68.50 67.08 68.26 63.34 Z"/>
  <path id="path23375" fill="#ffffff" d="M 131.91 63.16 C 132.21 66.29 130.72 69.67 130.71 72.91 C 129.63 75.22 129.35 77.48 128.86 79.96 C 128.53 81.27 127.88 82.61 126.31 81.68 C 124.73 80.45 122.83 78.76 121.96 76.96 C 122.88 74.76 123.54 73.47 123.07 70.97 C 123.51 67.24 129.05 64.95 131.91 63.16 Z"/>
  <path id="path23377" fill="#004b96" d="M 60.86 71.15 C 60.97 71.83 60.72 72.47 60.11 73.07 C 56.89 76.67 53.01 81.11 48.13 82.20 C 48.02 84.09 50.01 85.62 50.40 87.48 C 51.64 92.38 52.05 98.52 55.56 102.47 C 57.99 105.27 61.24 106.07 64.82 106.16 L 64.80 106.90 C 59.26 108.27 53.08 105.40 51.12 99.91 C 49.46 95.49 50.89 88.91 47.75 84.32 C 47.13 83.27 45.37 82.82 45.35 81.56 C 50.84 82.00 53.47 77.23 56.76 73.76 C 57.75 72.85 59.33 70.44 60.86 71.15 Z"/>
  <path id="path23379" fill="#004b96" d="M 141.36 71.67 C 145.83 75.34 148.14 80.15 154.67 80.31 C 152.77 82.59 150.99 84.83 150.85 87.99 C 150.63 92.18 151.42 97.42 149.26 101.22 C 146.48 105.43 141.92 106.29 137.17 105.87 L 137.27 105.12 C 140.27 103.54 143.65 104.09 146.32 101.33 C 151.12 96.61 148.47 87.78 152.19 81.97 L 151.87 81.17 C 147.28 79.09 143.30 75.64 139.76 72.11 C 138.50 70.71 140.82 71.05 141.36 71.67 Z"/>
  <path id="path23381" fill="#004b96" d="M 94.62 72.31 C 96.69 72.69 98.09 75.14 100.09 75.86 C 101.73 74.51 103.34 72.18 105.69 72.27 C 104.23 74.33 102.17 75.02 101.80 77.82 C 100.18 76.78 99.89 77.35 98.26 77.77 C 97.46 75.41 95.26 74.83 94.35 72.64 L 94.62 72.31 Z"/>
  <path id="path23383" fill="#004b96" d="M 178.55 73.33 C 178.53 75.13 179.68 77.29 179.10 78.94 C 177.11 80.47 175.36 82.15 173.73 84.06 C 174.59 86.06 179.39 86.95 181.45 87.44 C 181.62 88.92 182.14 90.48 181.90 91.95 C 178.26 91.06 174.51 88.55 170.91 87.21 C 168.96 86.76 167.20 87.58 165.62 88.62 C 164.86 87.79 164.54 84.96 164.83 83.84 C 166.40 83.57 168.32 83.55 169.72 82.74 C 172.80 79.74 175.63 76.47 178.55 73.33 Z"/>
  <path id="path23385" fill="#004b96" d="M 33.66 76.43 C 34.86 77.19 37.29 78.33 37.31 79.93 C 36.39 83.88 35.70 87.90 34.70 91.82 C 33.08 91.48 31.72 90.51 30.02 90.35 C 26.39 89.82 22.84 88.32 19.23 88.65 C 19.45 87.07 19.78 85.51 20.24 83.98 C 23.69 84.68 29.07 86.56 32.81 86.80 C 33.52 84.36 34.41 81.53 34.07 78.99 C 34.29 78.50 32.87 76.48 33.66 76.43 Z"/>
  <path id="path23387" fill="#004b96" d="M 59.14 81.09 L 59.90 81.09 L 59.89 81.85 L 59.14 81.84 L 59.14 81.09 Z"/>
  <path id="path23389" fill="#004b96" d="M 57.39 83.40 C 57.63 83.64 57.63 83.64 57.39 83.40 Z"/>
  <path id="path23391" fill="#004b96" d="M 155.78 83.19 C 159.08 94.45 159.20 106.98 155.38 118.13 C 152.12 128.46 145.66 137.86 137.27 144.68 C 135.89 137.39 144.22 131.67 144.06 124.00 C 143.99 118.32 138.99 113.79 134.14 111.66 C 132.28 111.14 132.56 108.63 134.04 107.96 C 136.39 106.97 139.52 108.52 142.01 108.00 C 146.16 107.39 150.20 104.84 151.97 100.95 C 154.42 96.54 152.15 90.31 153.58 85.48 C 153.98 84.68 154.62 82.87 155.78 83.19 Z"/>
  <path id="path23393" fill="#004b96" d="M 44.12 84.15 C 45.28 83.84 46.38 85.19 47.03 85.99 C 50.17 90.81 46.85 97.78 50.17 102.85 C 52.28 106.55 55.94 108.45 59.98 109.36 C 62.56 109.67 65.23 108.85 67.78 109.23 C 68.75 110.90 66.92 111.16 65.87 111.83 C 61.42 114.14 56.97 118.61 57.22 124.00 C 57.04 129.21 61.03 134.26 63.28 138.75 C 64.24 140.83 65.70 143.52 64.78 145.83 C 64.14 145.82 63.55 145.56 63.00 145.04 C 49.95 134.23 41.62 118.09 41.71 101.00 C 41.80 95.55 41.73 89.17 44.12 84.15 Z"/>
  <path id="path23395" fill="#004b96" d="M 84.44 86.40 C 86.15 87.07 87.83 87.88 89.51 88.62 C 90.37 89.01 90.72 89.67 90.57 90.61 C 89.26 90.31 88.31 89.31 87.00 88.97 C 85.64 88.52 84.42 88.05 84.44 86.40 Z"/>
  <path id="path23397" fill="#004b96" d="M 116.68 86.36 C 115.48 87.65 110.86 89.47 109.07 89.91 L 109.00 89.03 C 111.08 86.97 113.66 85.60 116.68 86.36 Z"/>
  <path id="path23399" fill="#004b96" d="M 141.51 86.45 L 141.78 86.54 C 142.66 88.65 142.91 91.26 143.55 93.52 C 141.78 95.05 140.94 95.33 139.78 93.00 C 140.42 90.74 141.33 88.79 141.51 86.45 Z"/>
  <path id="path23401" fill="#004b96" d="M 59.66 87.49 L 60.00 87.46 L 60.34 87.47 C 60.18 89.85 61.35 91.66 61.71 93.88 C 60.69 96.21 59.36 95.87 58.16 93.90 C 58.23 91.74 59.41 89.67 59.66 87.49 Z"/>
  <path id="path23403" fill="#004b96" d="M 77.46 97.60 C 83.08 98.33 87.05 95.56 91.66 98.35 C 93.19 99.34 96.19 101.61 95.67 103.68 C 93.64 104.43 92.72 100.93 91.05 101.18 C 89.58 102.39 90.34 103.92 90.59 105.45 C 86.44 105.93 83.19 103.74 81.27 100.21 C 82.84 100.45 83.77 101.61 85.05 102.52 C 86.39 102.31 86.49 100.00 86.97 98.92 C 83.89 98.57 80.72 99.14 77.51 98.37 L 77.46 97.60 Z"/>
  <path id="path23405" fill="#fcc000" d="M 113.35 99.25 C 114.79 99.30 116.53 99.15 117.65 100.20 C 117.43 101.44 115.47 102.58 114.54 103.42 C 112.79 103.81 111.15 103.62 109.53 104.52 C 108.00 106.95 107.85 110.19 107.07 112.99 C 106.52 115.09 106.96 117.05 107.60 119.06 L 106.85 119.23 C 105.73 115.58 105.19 111.72 104.49 107.97 C 105.27 105.49 107.26 102.90 109.10 101.07 L 109.88 101.11 C 110.80 103.02 111.67 104.03 113.92 102.98 C 115.65 101.72 114.43 100.38 113.35 99.25 Z"/>
  <path id="path23407" fill="#ffffff" d="M 111.07 100.23 L 111.71 100.15 L 111.83 100.78 L 111.19 100.85 L 111.07 100.23 Z"/>
  <path id="path23409" fill="#004b96" d="M 90.40 107.45 L 91.49 107.38 C 92.00 109.37 92.85 111.20 93.55 113.12 C 94.28 115.56 93.33 117.44 92.89 119.78 C 92.08 120.64 91.37 122.92 90.06 122.89 C 89.75 121.38 90.83 119.69 91.21 118.23 C 92.48 114.45 91.75 111.04 90.40 107.45 Z"/>
  <path id="path23411" fill="#004b96" d="M 33.81 108.04 C 34.64 111.31 35.27 114.62 36.19 117.87 C 36.41 119.02 37.00 120.46 36.61 121.60 C 35.61 122.07 34.48 122.80 33.36 122.80 C 33.83 119.46 33.05 116.24 31.92 113.12 C 30.65 112.88 29.61 113.16 28.81 113.96 C 28.32 116.52 30.28 119.35 29.96 121.88 C 25.40 122.03 27.46 116.34 25.06 114.39 C 23.01 114.83 21.25 115.27 19.60 116.63 C 19.01 114.97 18.68 113.12 18.33 111.39 C 23.55 111.17 28.78 109.34 33.81 108.04 Z"/>
  <path id="path23413" fill="#004b96" d="M 170.01 108.23 C 171.92 108.11 172.16 110.12 173.54 110.51 C 174.95 108.33 176.57 107.96 178.90 109.15 C 181.46 110.34 181.00 113.72 180.74 116.02 C 180.09 119.15 179.17 123.64 178.35 126.52 C 176.48 124.74 174.25 124.79 171.89 124.18 C 168.91 123.56 166.25 122.52 163.15 122.73 C 163.53 119.25 164.70 115.86 165.47 112.44 C 166.14 110.36 167.34 107.74 170.01 108.23 Z"/>
  <path id="path23415" fill="#ffffff" d="M 126.80 111.19 C 127.02 116.38 120.36 116.98 117.75 120.76 C 116.22 123.60 113.63 125.31 111.76 127.88 C 109.83 128.62 110.05 125.63 109.44 124.52 C 108.73 123.93 108.00 123.35 107.26 122.79 C 107.09 121.61 106.95 120.43 106.85 119.23 L 107.60 119.06 C 108.10 119.96 108.64 122.39 110.02 122.00 C 110.49 120.56 109.17 119.63 109.15 118.15 L 109.76 117.39 C 113.03 115.90 116.22 113.66 119.73 112.84 C 120.18 113.70 120.66 113.84 121.17 113.26 C 122.36 111.99 125.08 111.01 126.80 111.19 Z"/>
  <path id="path23417" fill="#ffffff" d="M 143.03 110.76 C 145.06 111.30 149.09 112.82 149.79 114.88 C 147.39 115.61 142.27 114.36 140.32 112.72 C 138.97 110.71 141.54 110.15 143.03 110.76 Z"/>
  <path id="path23419" fill="#ffffff" d="M 59.70 112.35 C 59.91 114.57 57.57 115.18 55.91 115.78 C 54.49 116.04 52.43 116.82 51.10 116.09 C 51.60 113.69 57.41 110.89 59.70 112.35 Z"/>
  <path id="path23421" fill="#ffffff" d="M 75.09 112.06 C 77.73 112.06 80.24 114.16 82.98 113.95 C 85.88 114.91 88.37 117.04 91.21 118.23 C 90.83 119.69 89.75 121.38 90.06 122.89 C 91.37 122.92 92.08 120.64 92.89 119.78 L 94.49 121.19 C 94.25 122.30 93.91 123.37 93.49 124.41 C 91.79 125.09 91.88 125.99 91.41 127.55 C 90.75 127.97 90.23 127.83 89.85 127.13 C 87.85 124.36 84.69 123.08 82.95 120.02 C 81.89 118.19 79.83 117.93 78.06 116.93 C 76.32 116.19 74.67 113.99 75.09 112.06 Z"/>
  <path id="path23423" fill="#ffffff" d="M 168.52 112.49 C 169.77 112.46 170.62 112.27 171.34 113.50 C 171.58 115.38 170.81 117.42 170.12 119.15 C 169.26 119.57 168.26 119.47 167.11 118.85 C 166.86 116.78 167.77 114.41 168.52 112.49 Z"/>
  <path id="path23425" fill="#004b96" d="M 69.05 114.92 C 65.83 117.09 62.66 118.78 61.86 122.97 C 61.08 129.17 65.11 133.25 67.36 138.51 C 68.21 140.11 67.38 143.72 68.97 144.47 C 72.29 142.93 75.40 143.69 79.00 143.59 C 82.82 143.52 87.39 143.69 90.92 142.06 C 91.97 141.57 94.03 139.93 94.38 142.03 C 93.18 144.34 90.56 145.89 88.02 146.21 C 82.37 146.88 76.91 143.63 70.98 144.66 C 69.31 144.76 68.20 146.40 66.53 146.76 C 69.67 137.90 58.59 131.82 59.68 122.98 C 60.16 118.78 63.01 115.56 66.63 113.61 C 67.93 112.64 70.23 112.87 69.05 114.92 Z"/>
  <path id="path23427" fill="#004b96" d="M 132.07 113.01 C 135.31 114.09 138.73 116.54 140.48 119.50 C 142.50 123.32 141.39 127.77 139.27 131.29 C 136.59 136.00 133.57 139.64 134.68 145.46 C 129.28 143.24 125.48 145.07 120.11 146.12 C 115.77 147.04 111.50 147.25 108.20 143.80 C 107.20 142.98 106.26 141.40 108.05 140.84 C 109.92 140.88 111.17 143.45 112.92 144.17 C 117.32 146.54 122.28 144.65 126.84 143.83 C 128.90 143.08 131.20 143.98 133.15 143.20 C 133.41 141.48 133.46 139.91 134.42 138.39 C 136.56 134.40 139.40 129.60 139.49 125.00 C 139.37 120.36 136.16 117.47 132.11 115.86 C 130.60 115.54 130.23 113.03 132.07 113.01 Z"/>
  <path id="path23429" fill="#ffffff" d="M 177.69 113.30 C 178.51 115.57 177.37 118.55 176.80 120.82 C 175.69 120.94 174.56 120.85 173.39 120.54 C 172.88 118.61 173.92 116.21 174.36 114.31 C 175.01 112.79 176.28 112.23 177.69 113.30 Z"/>
  <path id="path23431" fill="#004b96" d="M 77.13 123.25 C 78.19 123.15 78.43 123.63 77.84 124.67 C 76.85 124.76 76.61 124.28 77.13 123.25 Z"/>
  <path id="path23433" fill="#004b96" d="M 124.23 123.26 L 124.77 123.26 L 124.77 123.81 L 124.23 123.80 L 124.23 123.26 Z"/>
  <path id="path23435" fill="#004b96" d="M 30.47 124.54 C 37.80 121.58 44.02 130.55 42.17 137.04 C 40.55 141.59 33.98 144.01 29.94 141.13 C 26.84 139.05 24.80 134.68 25.07 130.98 C 25.32 127.83 27.68 125.66 30.47 124.54 Z"/>
  <path id="path23437" fill="#004b96" d="M 162.33 124.31 C 165.24 127.22 169.11 128.24 172.28 130.72 C 174.78 132.76 174.13 136.35 172.84 138.89 C 171.24 141.91 168.86 145.04 164.97 144.04 C 161.46 142.72 158.46 140.30 154.94 138.95 C 154.47 137.57 156.18 135.85 156.63 134.51 C 157.12 134.43 157.48 134.62 157.71 135.09 C 158.62 136.55 160.50 137.18 161.96 138.07 C 163.52 138.87 165.25 140.15 167.02 140.28 C 169.69 139.90 171.98 135.55 169.44 133.56 C 166.48 131.81 163.48 129.77 160.16 128.79 C 160.55 127.22 161.64 125.78 162.33 124.31 Z"/>
  <path id="path23439" fill="#ffffff" d="M 107.82 127.23 C 109.21 129.23 110.09 132.47 108.62 134.64 C 107.09 137.31 103.90 137.77 101.19 136.77 C 99.92 135.26 102.07 134.73 102.99 134.00 C 104.84 132.88 105.10 131.02 105.16 129.02 L 106.22 127.93 C 106.72 127.50 107.25 127.27 107.82 127.23 Z"/>
  <path id="path23441" fill="#ffffff" d="M 31.49 128.59 C 35.07 127.17 37.76 128.47 39.03 132.01 C 40.82 137.09 32.44 140.84 29.63 136.40 C 27.28 133.39 28.15 130.29 31.49 128.59 Z"/>
  <path id="path23443" fill="#ffffff" d="M 95.17 127.88 C 95.36 128.85 95.42 129.87 95.34 130.92 C 95.82 133.69 98.86 134.30 99.93 135.97 C 97.72 138.88 90.94 135.88 92.07 131.99 C 92.37 130.67 93.09 126.52 95.17 127.88 Z"/>
  <path id="path23445" fill="#004b96" d="M 124.45 129.28 C 125.46 131.48 126.00 134.18 126.49 136.55 C 125.01 138.24 123.77 138.10 122.97 135.95 C 123.41 133.71 124.11 131.55 124.45 129.28 Z"/>
  <path id="path23447" fill="#004b96" d="M 77.37 130.16 C 78.82 131.57 78.79 134.53 79.49 136.45 C 77.82 137.87 76.98 137.90 75.46 136.35 C 76.47 134.33 76.97 132.38 77.37 130.16 Z"/>
  <path id="path23449" fill="#ffffff" d="M 99.41 138.24 C 100.39 137.77 101.44 137.79 102.55 138.29 C 103.13 140.46 98.68 140.53 99.41 138.24 Z"/>
  <path id="path23451" fill="#004b96" d="M 41.09 141.11 C 46.71 138.59 52.64 143.66 53.91 148.99 C 55.07 154.01 49.96 159.10 44.98 158.44 C 41.04 158.07 37.58 154.42 36.28 150.86 C 34.85 146.71 37.35 142.83 41.09 141.11 Z"/>
  <path id="path23453" fill="#004b96" d="M 104.80 143.17 C 107.71 146.55 111.39 148.93 116.00 148.87 C 122.13 149.38 126.42 145.58 132.69 147.38 L 132.52 148.50 C 127.04 152.05 121.46 154.56 115.15 156.26 C 99.21 160.05 82.23 158.80 68.65 148.98 C 68.57 147.12 72.51 146.35 74.00 146.38 C 79.56 147.11 84.97 149.10 90.89 147.67 C 93.52 147.04 95.12 145.29 96.94 143.44 C 98.03 143.56 99.11 143.76 100.17 144.03 C 99.55 146.77 99.23 150.77 101.67 152.77 C 102.13 150.85 102.61 148.96 102.73 146.99 C 103.05 145.81 101.76 144.41 102.49 143.51 C 103.29 143.14 104.06 143.03 104.80 143.17 Z"/>
  <path id="path23455" fill="#ffffff" d="M 43.45 144.48 C 46.55 143.06 49.95 146.00 50.48 148.98 C 50.62 151.49 48.55 153.36 46.53 154.46 C 43.45 155.79 40.12 152.96 39.52 150.03 C 39.24 147.54 41.41 145.51 43.45 144.48 Z"/>
  <path id="path23457" fill="#004b96" d="M 149.33 144.32 C 149.81 145.35 149.97 146.38 150.92 147.12 C 153.30 149.16 155.60 151.31 158.05 153.25 C 160.68 152.05 162.82 148.33 164.00 145.74 C 165.24 145.89 165.71 147.93 166.13 148.93 C 163.52 152.32 160.45 155.36 157.77 158.70 L 157.28 158.63 C 155.85 156.32 153.78 154.99 151.82 153.20 C 150.03 151.57 148.28 149.95 146.18 148.72 C 145.91 147.32 148.50 145.46 149.33 144.32 Z"/>
  <path id="path23459" fill="#004b96" d="M 145.69 150.09 C 146.20 151.17 146.28 152.12 145.94 152.95 C 143.74 153.82 141.70 154.21 140.20 156.25 C 137.31 159.55 140.76 165.41 144.92 164.79 C 147.98 164.03 149.61 161.76 151.22 159.26 L 151.85 159.20 C 152.67 160.05 153.29 161.00 153.68 162.04 C 150.76 164.79 147.32 168.52 143.00 168.49 C 137.53 168.42 133.57 161.82 135.85 156.90 C 137.20 154.22 139.47 152.46 142.06 151.06 C 143.08 150.70 144.68 149.37 145.69 150.09 Z"/>
  <path id="path23461" fill="#004b96" d="M 58.39 151.62 C 61.99 154.08 65.79 156.36 69.26 159.01 C 69.29 160.43 68.87 161.40 67.99 161.92 C 66.46 161.44 65.49 159.43 63.96 158.68 L 63.08 158.92 C 60.84 162.12 58.46 165.33 56.76 168.85 C 55.40 169.26 53.65 167.26 52.41 166.68 C 55.34 163.77 57.80 159.76 59.78 156.17 C 58.58 154.55 56.13 154.63 55.07 153.06 C 55.78 151.71 56.87 150.39 58.39 151.62 Z"/>
  <path id="path23463" fill="#004b96" d="M 71.03 160.15 C 74.04 160.69 77.06 162.03 79.99 162.98 C 82.07 163.79 85.06 165.15 84.63 167.88 C 84.56 169.39 83.05 170.09 82.16 171.12 C 82.35 172.22 83.58 172.89 83.63 174.12 C 83.77 176.66 81.60 178.90 79.01 178.64 C 74.61 178.38 70.28 176.16 66.08 174.84 C 68.04 170.09 69.90 165.17 71.03 160.15 Z"/>
  <path id="path23465" fill="#004b96" d="M 120.83 163.10 C 121.38 167.20 123.30 170.68 124.45 174.62 C 127.37 175.34 131.42 172.12 133.89 170.99 C 134.08 172.31 134.06 173.59 133.82 174.83 C 129.74 176.55 125.42 177.68 121.37 179.54 C 120.70 174.36 118.35 169.02 116.24 164.34 C 117.69 163.87 119.29 163.02 120.83 163.10 Z"/>
  <path id="path23467" fill="#ffffff" d="M 75.06 164.18 C 76.72 164.71 79.67 165.22 80.36 167.01 C 80.15 170.73 75.35 167.82 73.41 167.49 C 73.25 166.54 73.63 163.71 75.06 164.18 Z"/>
  <path id="path23469" fill="#004b96" d="M 108.53 165.39 C 107.80 166.50 107.37 167.67 107.65 169.01 C 108.17 172.03 108.44 175.10 109.05 178.10 C 111.95 178.96 116.17 177.22 118.87 176.05 C 118.75 177.23 118.62 178.41 118.46 179.58 C 117.13 180.62 115.63 180.42 114.01 180.73 C 111.03 181.06 108.05 181.62 105.06 181.81 C 105.13 177.92 104.41 173.96 103.81 170.12 C 103.61 168.78 103.22 167.76 102.46 166.63 C 103.62 165.64 106.94 165.80 108.53 165.39 Z"/>
  <path id="path23471" fill="#004b96" d="M 91.11 165.93 C 92.63 165.17 95.20 165.91 96.87 166.17 C 98.94 171.31 100.11 176.96 102.74 181.82 C 101.10 182.10 99.47 182.03 97.81 181.95 C 97.40 180.59 97.99 179.35 96.59 178.54 C 93.86 178.44 90.80 177.69 88.14 178.15 C 87.86 179.00 87.70 179.89 87.66 180.82 C 86.14 181.10 84.42 180.37 82.98 179.94 L 83.14 179.11 C 85.96 174.81 88.47 170.34 91.11 165.93 Z"/>
  <path id="path23473" fill="#ffffff" d="M 93.59 168.31 C 94.43 170.52 95.39 172.75 95.88 175.07 C 94.49 175.92 91.77 175.12 90.18 174.83 C 90.98 172.55 92.40 170.41 93.59 168.31 Z"/>
  <path id="path23475" fill="#ffffff" d="M 73.48 170.38 C 75.22 171.13 79.49 171.60 79.49 174.01 C 78.58 177.35 73.39 174.24 71.22 173.74 C 71.29 172.53 71.53 169.28 73.48 170.38 Z"/>
</svg>