<?xml version="1.0" encoding="UTF-8" standalone="no"?>
<svg xmlns:dc="http://purl.org/dc/elements/1.1/" xmlns:cc="http://creativecommons.org/ns#" xmlns:rdf="http://www.w3.org/1999/02/22-rdf-syntax-ns#" xmlns:svg="http://www.w3.org/2000/svg" xmlns="http://www.w3.org/2000/svg" xmlns:sodipodi="http://sodipodi.sourceforge.net/DTD/sodipodi-0.dtd" xmlns:inkscape="http://www.inkscape.org/namespaces/inkscape" inkscape:version="1.0 (4035a4f, 2020-05-01)" sodipodi:docname="4.svg" id="svg2819" height="200.0pt" width="200.0pt" viewBox="0 0 200 200" version="1.1">
  <metadata id="metadata2825">
    <rdf:RDF>
      <cc:Work rdf:about="">
        <dc:format>image/svg+xml</dc:format>
        <dc:type rdf:resource="http://purl.org/dc/dcmitype/StillImage"/>
      </cc:Work>
    </rdf:RDF>
  </metadata>
  <defs id="defs2823"/>
  <sodipodi:namedview inkscape:current-layer="svg2819" inkscape:cy="133.33333" inkscape:cx="133.33333" inkscape:zoom="2.50875" showgrid="false" id="namedview2821" inkscape:window-height="480" inkscape:window-width="640" inkscape:pageshadow="2" inkscape:pageopacity="0" guidetolerance="10" gridtolerance="10" objecttolerance="10" borderopacity="1" bordercolor="#666666" pagecolor="#ffffff"/>
  <path style="fill:#ffffff;fill-opacity:0" id="path2783" fill="#ffffff" d="M 0.00 0.00 L 94.35 0.00 C 87.79 1.04 80.94 1.79 74.57 3.54 C 57.36 8.06 41.44 17.29 29.00 30.00 C 16.80 42.29 7.94 57.82 3.54 74.56 C 1.70 81.11 1.13 87.55 0.00 94.25 L 0.00 0.00 Z"/>
  <path id="path2785" fill="#fdea00" d="M 94.35 0.00 L 105.47 0.00 L 106.50 0.12 L 107.33 0.23 C 120.50 1.72 133.28 4.78 145.12 10.86 C 165.15 20.89 181.51 37.79 190.88 58.13 C 196.12 69.10 198.78 80.87 200.00 92.92 L 200.00 107.72 C 198.69 120.34 195.71 132.63 190.03 144.02 C 180.35 163.93 163.94 180.36 144.01 190.02 C 132.60 195.74 120.27 198.68 107.62 200.00 L 92.82 200.00 C 76.11 198.46 59.98 193.35 45.90 184.13 C 26.68 171.80 12.02 152.70 5.05 130.95 C 2.22 122.59 1.13 114.07 0.00 105.36 L 0.00 94.25 C 1.13 87.55 1.70 81.11 3.54 74.56 C 7.94 57.82 16.80 42.29 29.00 30.00 C 41.44 17.29 57.36 8.06 74.57 3.54 C 80.94 1.79 87.79 1.04 94.35 0.00 Z"/>
  <path style="fill:#ffffff;fill-opacity:0" id="path2787" fill="#ffffff" d="M 105.47 0.00 L 200.00 0.00 L 200.00 92.92 C 198.78 80.87 196.12 69.10 190.88 58.13 C 181.51 37.79 165.15 20.89 145.12 10.86 C 133.28 4.78 120.50 1.72 107.33 0.23 L 106.50 0.12 L 105.47 0.00 Z"/>
  <path id="path2789" fill="#020000" d="M 85.57 6.00 C 102.05 3.44 119.21 5.29 134.76 11.36 C 150.02 17.28 163.72 27.25 174.04 39.97 C 185.22 53.61 192.50 70.46 194.68 87.97 C 197.09 106.27 194.00 125.29 185.88 141.88 C 172.73 169.14 146.34 189.08 116.45 194.08 C 96.56 197.53 75.62 194.53 57.58 185.42 C 32.86 173.20 14.15 149.89 7.66 123.07 C 2.44 102.07 4.62 79.42 13.82 59.83 C 26.99 31.39 54.52 10.60 85.57 6.00 Z"/>
  <path id="path2791" fill="#fdea00" d="M 89.50 10.88 C 114.66 7.85 140.47 15.76 159.46 32.56 C 173.10 44.53 183.02 60.60 187.38 78.23 C 191.76 95.49 190.82 114.00 184.76 130.75 C 175.25 157.40 152.73 178.64 125.53 186.47 C 106.68 192.00 86.14 191.17 67.82 184.11 C 41.67 174.10 21.02 151.53 13.60 124.51 C 8.28 105.62 9.35 84.92 16.70 66.72 C 23.13 50.63 34.34 36.46 48.55 26.55 C 60.63 18.02 74.82 12.62 89.50 10.88 Z"/>
  <path id="path2793" fill="#020000" d="M 70.42 24.65 C 75.55 24.66 80.67 24.66 85.80 24.67 C 90.58 41.43 95.54 58.13 100.23 74.90 C 105.25 58.19 109.99 41.40 114.91 24.66 C 119.91 24.66 124.92 24.65 129.92 24.67 C 121.85 49.95 113.75 75.22 105.72 100.51 C 102.15 100.53 98.58 100.52 95.01 100.55 C 87.03 76.24 79.26 51.86 71.35 27.53 C 71.04 26.57 70.73 25.61 70.42 24.65 Z"/>
  <path id="path2795" fill="#020000" d="M 32.43 62.08 C 40.30 62.09 48.17 62.07 56.04 62.07 C 61.69 62.02 67.37 64.72 71.32 68.69 C 76.76 74.24 78.59 82.50 76.59 89.95 C 75.73 93.54 73.79 96.46 71.68 99.41 C 73.92 102.40 75.98 105.31 76.88 109.00 C 79.11 117.44 76.18 126.86 69.29 132.28 C 65.50 135.30 60.88 136.80 56.05 136.79 C 48.17 136.82 40.29 136.78 32.42 136.78 C 32.47 111.88 32.44 86.98 32.43 62.08 Z"/>
  <path id="path2797" fill="#020000" d="M 129.51 62.08 C 137.35 62.09 145.20 62.07 153.04 62.07 C 163.62 62.08 173.08 70.41 174.26 80.97 C 175.16 87.83 172.95 94.09 168.74 99.44 C 170.34 101.58 171.90 103.60 172.95 106.08 C 175.97 113.08 175.01 121.42 170.68 127.66 C 166.97 133.19 160.61 136.61 153.97 136.77 C 145.81 136.86 137.65 136.76 129.49 136.79 C 129.52 111.89 129.49 86.99 129.51 62.08 Z"/>
  <path id="path2799" fill="#fdea00" d="M 46.37 76.11 C 50.77 76.23 55.32 75.77 59.68 76.39 C 65.87 78.93 65.29 90.78 58.59 92.44 C 54.55 92.87 50.41 92.53 46.35 92.62 C 46.37 87.11 46.36 81.61 46.37 76.11 Z"/>
  <path id="path2801" fill="#fdea00" d="M 143.54 76.10 C 147.93 76.24 152.46 75.77 156.80 76.39 C 163.03 79.20 162.41 90.65 155.60 92.45 C 151.61 92.85 147.53 92.54 143.51 92.61 C 143.53 87.11 143.51 81.60 143.54 76.10 Z"/>
  <path style="fill:#ffffff;fill-opacity:0" id="path2803" fill="#ffffff" d="M 0.00 105.36 C 1.13 114.07 2.22 122.59 5.05 130.95 C 12.02 152.70 26.68 171.80 45.90 184.13 C 59.98 193.35 76.11 198.46 92.82 200.00 L 0.00 200.00 L 0.00 105.36 Z"/>
  <path id="path2805" fill="#fdea00" d="M 46.45 106.29 C 49.94 106.04 53.51 106.09 57.00 106.23 C 58.65 106.32 59.85 106.78 61.04 107.94 C 65.47 112.07 65.01 120.61 58.88 122.93 C 54.96 124.05 50.39 123.33 46.33 123.49 C 46.47 117.76 46.18 112.01 46.45 106.29 Z"/>
  <path id="path2807" fill="#fdea00" d="M 143.55 106.17 C 147.53 106.28 151.67 105.85 155.60 106.45 C 161.92 108.79 163.17 118.67 157.28 122.26 C 153.47 124.44 147.78 123.22 143.51 123.48 C 143.54 117.71 143.51 111.94 143.55 106.17 Z"/>
  <path style="fill:#ffffff;fill-opacity:0" id="path2809" fill="#ffffff" d="M 200.00 107.72 L 200.00 200.00 L 107.62 200.00 C 120.27 198.68 132.60 195.74 144.01 190.02 C 163.94 180.36 180.35 163.93 190.03 144.02 C 195.71 132.63 198.69 120.34 200.00 107.72 Z"/>
  <path id="path2811" fill="#020000" d="M 86.00 138.21 C 91.76 138.14 96.90 143.15 96.81 148.95 C 96.87 154.65 96.86 160.36 96.82 166.06 C 96.89 169.93 94.68 173.44 91.40 175.39 C 86.58 178.17 79.91 176.97 76.65 172.35 C 73.58 168.23 74.65 162.80 74.47 158.00 C 74.55 154.33 74.18 150.50 74.80 146.87 C 75.84 141.67 80.73 137.98 86.00 138.21 Z"/>
  <path id="path2813" fill="#020000" d="M 120.41 139.59 C 123.77 141.59 125.74 145.07 125.78 148.97 C 125.90 154.62 125.87 160.32 125.80 165.97 C 125.75 169.62 124.13 173.05 121.05 175.10 C 116.05 178.42 108.42 176.91 105.20 171.78 C 103.59 169.40 103.58 166.92 103.26 164.17 C 105.80 164.15 108.34 164.19 110.87 164.22 C 111.62 166.91 111.44 169.27 114.97 169.39 C 118.69 169.00 118.13 165.45 118.42 162.68 C 114.71 162.97 111.39 163.11 108.28 160.74 C 103.15 157.24 102.38 150.68 104.15 145.14 C 106.62 138.80 114.59 136.29 120.41 139.59 Z"/>
  <path id="path2815" fill="#fdea00" d="M 88.77 148.20 C 89.51 151.32 89.04 154.80 89.15 158.00 C 88.99 161.08 89.61 164.67 88.68 167.61 C 87.10 170.34 83.07 169.77 82.47 166.69 C 82.17 160.93 82.23 154.92 82.43 149.15 C 82.73 145.85 87.54 145.14 88.77 148.20 Z"/>
  <path id="path2817" fill="#fdea00" d="M 113.48 146.43 C 119.11 144.17 120.30 154.72 115.00 154.96 C 110.66 155.43 110.16 147.77 113.48 146.43 Z"/>
</svg>