<?xml version="1.0" encoding="UTF-8"?>
<!-- Generator: Adobe Illustrator 13.0.2, SVG Export Plug-In . SVG Version: 6.00 Build 14948)  -->
<!DOCTYPE svg PUBLIC "-//W3C//DTD SVG 1.1 Tiny//EN" "http://www.w3.org/Graphics/SVG/1.1/DTD/svg11-tiny.dtd">
<svg version="1.1" baseProfile="tiny" id="Ebene_1" xmlns="http://www.w3.org/2000/svg" xmlns:xlink="http://www.w3.org/1999/xlink" x="0px" y="0px" width="458.766px" height="566px" viewBox="0 0 458.766 566" xml:space="preserve">
<path fill="#B1B3B4" d="M229.379,566c126.487,0,229.387-102.904,229.387-229.391V19.384c-0.018-7.76-6.101-14.077-13.747-14.515  C374.732,1.645,302.232,0,229.379,0C156.527,0,84.023,1.645,13.744,4.869C6.09,5.307,0.014,11.624,0,19.384v317.226  C0,463.096,102.896,566,229.379,566"/>
<path fill="#003B79" d="M229.379,554.114c119.93,0,217.501-97.568,217.501-217.505V19.377l-0.024,0.055  c0-1.488-1.189-2.693-2.691-2.693c-69.987-3.209-142.21-4.855-214.785-4.855c-72.575,0-144.801,1.646-214.795,4.855  c-1.488,0-2.677,1.205-2.677,2.693l-0.032-0.055v317.232C11.875,456.546,109.45,554.114,229.379,554.114"/>
<circle fill="#FFFFFF" cx="229.378" cy="337.687" r="190.021"/>
<path fill="#E2001A" d="M284.555,514.599c-5.734,1.092-11.825-1.519-14.915-6.863c-1.306-2.263-1.9-4.739-1.876-7.166l0.021-1.615  l-0.021-0.011c0.008-0.104,0-0.208-0.067-0.322c-0.178-0.279-0.541-0.383-0.829-0.219c-0.086,0.047-0.143,0.111-0.186,0.176  l-0.014-0.007l-0.588,0.809c-3.136,3.866-11.003,7.99-23.996,10.45c-0.302,0.054-0.608,0.111-0.918,0.164  c-0.043,0.011-0.089,0.018-0.128,0.028c-1.36,0.227-2.766,0.452-4.219,0.663c-0.292,0.046-0.576,0.086-0.879,0.129  c-5.411,0.751-11.292,1.306-17.254,1.389c-56.862,0.766-96.286-22.36-120.389-43.489c-11.405-11.416-21.337-24.314-29.492-38.369  c-16.179-28.152-24.754-60.187-24.804-92.664c0.018-13.719,1.566-27.357,4.563-40.676c1.94-5.513,7.237-9.479,13.402-9.479  c2.624,0,5.069,0.724,7.162,1.963l1.392,0.823l0.007-0.015c0.096,0.058,0.196,0.107,0.313,0.107c0.335,0,0.605-0.278,0.605-0.615  c0-0.09-0.032-0.179-0.05-0.248l0.01-0.011l-0.413-0.905c-1.784-4.65-1.417-13.525,2.937-26.007c0.118-0.293,0.214-0.583,0.324-0.88  c0.018-0.042,0.025-0.088,0.053-0.13c0.477-1.294,0.982-2.623,1.513-3.97c0.121-0.283,0.228-0.552,0.338-0.836  c2.054-5.064,4.514-10.434,7.418-15.639c27.776-49.614,67.517-72.211,97.856-82.503c15.599-4.176,31.738-6.332,47.995-6.358  c32.454,0.066,64.474,8.646,92.612,24.827c11.875,6.884,22.925,15.055,32.96,24.318c3.819,4.425,4.603,10.998,1.509,16.342  c-1.313,2.27-3.15,4.022-5.275,5.212l-1.402,0.8l0.014,0.011c-0.103,0.048-0.182,0.113-0.241,0.22  c-0.179,0.287-0.075,0.659,0.213,0.836c0.086,0.042,0.164,0.063,0.238,0.073l0.008,0.014l0.979,0.091  c4.923,0.788,12.441,5.537,21.06,15.555c0.206,0.235,0.395,0.48,0.608,0.726c0.032,0.028,0.057,0.066,0.086,0.1  c0.879,1.054,1.772,2.169,2.677,3.306c0.182,0.242,0.362,0.469,0.555,0.707c3.364,4.307,6.781,9.122,9.825,14.241  c29.086,48.863,28.776,94.575,22.547,125.997c-4.193,15.601-10.397,30.647-18.492,44.73c-16.293,28.082-39.737,51.538-67.823,67.819  C310.178,505.065,297.595,510.542,284.555,514.599"/>
<polygon fill="#FFFFFF" points="61.54,69.524 60.519,42.976 54.934,45.444 53.77,39.505 62.142,36.385 66.737,36.204 68.008,69.275   "/>
<path fill="#FFFFFF" d="M82.97,65.313c0.082,2.208-1.638,4.08-3.823,4.156c-2.207,0.073-4.083-1.669-4.154-3.878  c-0.092-2.206,1.666-4.08,3.87-4.156C81.072,61.358,82.898,63.118,82.97,65.313"/>
<polygon fill="#FFFFFF" points="105.595,40.34 105.855,48.871 116.53,48.579 116.68,53.817 105.983,54.109 106.375,68.029   99.999,68.21 99.081,35.132 116.776,34.632 116.936,40.03 "/>
<path fill="#FFFFFF" d="M135.688,67.751c-7.746,0.166-11.494-3.385-11.615-9.171l-0.345-16.516l6.318-0.135l0.324,15.091  c0.082,3.93,1.972,5.552,5.557,5.479c3.862-0.083,5.35-2.274,5.272-5.948l-0.31-14.851l6.212-0.135l0.328,15.634  C147.557,62.893,144.086,67.57,135.688,67.751"/>
<path fill="#FFFFFF" d="M160.485,67.39c-1.616,0.027-3.581-0.192-5.005-0.516l0.153-5.592c1.484,0.566,3.399,0.879,5.403,0.856  c2.111-0.036,3.87-1.041,3.834-2.96c-0.061-3.862-10.273-1.556-10.395-9.889c-0.071-5.001,3.649-8.387,10.651-8.497  c1.385-0.021,3.253,0.149,4.67,0.32l-0.107,5.3c-1.388-0.367-3.257-0.591-4.731-0.564c-2.698,0.039-3.798,1.082-3.788,2.65  c0.054,3.631,10.477,1.958,10.601,9.798C171.852,63.636,167.594,67.285,160.485,67.39"/>
<path fill="#FFFFFF" d="M183.389,67.093c-1.613,0.014-3.574-0.212-5.005-0.539l0.188-5.592c1.47,0.571,3.389,0.897,5.39,0.874  c2.118-0.011,3.869-1.02,3.855-2.922c-0.036-3.882-10.259-1.618-10.352-9.951c-0.043-5.001,3.702-8.376,10.708-8.445  c1.385-0.012,3.25,0.164,4.66,0.353l-0.132,5.297c-1.385-0.383-3.25-0.609-4.724-0.598c-2.702,0.03-3.802,1.071-3.798,2.64  c0.036,3.631,10.466,2.007,10.544,9.846C194.776,63.396,190.49,67.023,183.389,67.093"/>
<path fill="#FFFFFF" d="M210.521,55.216c-0.541,0.007-1.52,0.007-2.161,0.066l0.032,6.514c0.737,0.098,1.709,0.139,2.691,0.139  c3.093-0.016,4.506-1.443,4.492-3.543C215.575,56.138,213.699,55.209,210.521,55.216 M210.969,45.119  c-0.791,0.004-1.812,0.055-2.648,0.055l0.032,6.087c0.73,0.044,1.463,0.041,1.819,0.041c2.983-0.012,4.987-1.098,4.969-3.307  C215.138,46.277,214.159,45.104,210.969,45.119 M211.25,66.447c-1.855,0.007-5.201-0.08-9.113-0.063l-0.104-25.496  c2.595,0,6.76-0.166,10.145-0.187c6.863-0.025,9.672,2.315,9.683,6.328c0.007,2.458-1.353,4.622-3.898,5.61v0.055  c2.844,0.772,4.275,2.924,4.29,5.666C222.26,62.189,219.644,66.415,211.25,66.447"/>
<path fill="#FFFFFF" d="M240.447,51.271c-0.441-1.176-0.926-2.653-1.218-3.784h-0.046c-0.303,1.13-0.698,2.451-1.136,3.627  l-2.265,6.18l6.867,0.011L240.447,51.271z M245.704,66.334l-1.555-4.469l-9.843-0.018l-1.631,4.457l-6.372-0.018l9.508-25.477  l7.5,0.023l9.354,25.512L245.704,66.334z"/>
<polygon fill="#FFFFFF" points="258.523,66.397 258.719,40.902 265.044,40.949 264.884,60.854 273.186,60.92 273.129,66.509 "/>
<polygon fill="#FFFFFF" points="279.208,66.571 279.521,41.084 285.848,41.164 285.602,61.066 293.882,61.169 293.807,66.756 "/>
<path fill="#FFFFFF" d="M313.203,67.521c-11.558-0.203-15.146-7.972-15.004-16.198c0.192-10.501,5.82-17.749,16.898-17.551  c2.349,0.046,4.834,0.39,7.001,1.016l-0.801,5.774c-2.149-0.675-4.393-1.064-6.646-1.104c-6.18-0.11-9.302,4.49-9.423,10.909  c-0.128,7.203,2.791,11.286,9.462,11.398c2.001,0.038,4.709-0.498,6.446-1.256l0.62,5.701  C319.298,67.052,316.301,67.581,313.203,67.521"/>
<polygon fill="#FFFFFF" points="328.855,67.406 329.457,41.918 335.775,42.072 335.316,61.963 343.585,62.161 343.457,67.751 "/>
<path fill="#FFFFFF" d="M360.252,68.663c-7.731-0.226-11.313-3.962-11.12-9.743l0.483-16.512l6.318,0.178l-0.455,15.102  c-0.11,3.917,1.708,5.635,5.279,5.744c3.869,0.114,5.457-1.997,5.563-5.67l0.441-14.851l6.223,0.183l-0.46,15.636  C372.352,64.412,368.646,68.916,360.252,68.663"/>
<path fill="#FFFFFF" d="M390.787,47.995c-0.798-0.028-1.813-0.014-2.652-0.048l-0.228,6.073c0.729,0.078,1.467,0.106,1.812,0.121  c3.001,0.11,5.041-0.897,5.108-3.102C394.902,49.323,393.977,48.116,390.787,47.995 M389.918,58.078  c-0.544-0.029-1.526-0.059-2.153-0.038l-0.253,6.518c0.733,0.121,1.72,0.208,2.691,0.241c3.094,0.125,4.57-1.253,4.639-3.357  C394.934,59.188,393.107,58.187,389.918,58.078 M390.192,69.316c-1.858-0.073-5.19-0.292-9.112-0.435l0.939-25.478  c2.602,0.101,6.767,0.104,10.145,0.226c6.86,0.251,9.569,2.711,9.427,6.725c-0.104,2.453-1.545,4.556-4.122,5.442l-0.011,0.056  c2.815,0.884,4.154,3.093,4.055,5.839C401.37,65.511,398.572,69.622,390.192,69.316"/>
<polygon fill="#FFFFFF" points="57.322,122.334 56.721,107.976 42.72,108.56 43.322,122.911 36.936,123.168 35.583,90.115   41.934,89.848 42.492,103.065 56.5,102.49 55.962,89.266 62.323,89.006 63.683,122.063 "/>
<polygon fill="#FFFFFF" points="72.184,121.77 71.305,96.29 86.985,95.754 87.156,100.696 77.805,101.021 77.976,106.116   86.889,105.81 87.067,110.612 78.143,110.921 78.328,116.501 87.679,116.177 87.861,121.23 "/>
<polygon fill="#FFFFFF" points="96.066,120.978 95.297,95.499 101.637,95.309 102.381,120.789 "/>
<path fill="#FFFFFF" d="M120.368,99.812c-0.933,0.025-2.111,0.102-2.99,0.214l0.356,15.047c0.602,0.085,1.73,0.106,2.858,0.078  c4.549-0.107,7.778-2.785,7.657-7.933C128.121,102.216,125.465,99.687,120.368,99.812 M120.086,120.456  c-3.442,0.087-6.183,0.059-8.536,0.02l-0.616-25.439c2.296-0.103,6.799-0.315,9.935-0.39c8.284-0.205,13.861,3.197,14.075,12.108  C135.169,116.024,128.655,120.25,120.086,120.456"/>
<polygon fill="#FFFFFF" points="142.011,119.819 141.551,94.328 157.229,94.042 157.325,98.999 147.956,99.166 148.051,104.265   156.969,104.104 157.064,108.905 148.13,109.069 148.247,114.657 157.602,114.486 157.695,119.531 "/>
<path fill="#FFFFFF" d="M181.936,119.21l-7.803-12.365c-0.886-1.406-1.787-3.208-2.445-4.622h-0.046  c0.103,1.224,0.171,2.5,0.182,4.501l0.164,12.602l-6.083,0.069l-0.303-25.486l8.486-0.1l7.55,12.065  c0.986,1.517,1.89,3.117,2.706,4.831h0.046c-0.128-1.52-0.196-3.634-0.224-6.277l-0.174-10.734l6.137-0.077l0.285,25.502  L181.936,119.21z"/>
<polygon fill="#FFFFFF" points="216.714,118.974 216.672,108.675 205.833,108.724 205.872,119.013 199.56,119.043 199.454,93.545   205.765,93.527 205.818,103.277 216.65,103.232 216.604,93.472 222.93,93.451 223.037,118.943 "/>
<polygon fill="#FFFFFF" points="232.203,118.952 232.263,93.451 247.947,93.486 247.947,98.445 238.574,98.418 238.574,103.518   247.488,103.535 247.48,108.341 238.557,108.323 238.542,113.906 247.908,113.931 247.894,118.984 "/>
<polygon fill="#FFFFFF" points="256.06,119.036 256.234,93.538 262.56,93.577 262.399,119.064 "/>
<path fill="#FFFFFF" d="M298.121,119.465l-1.556-12.275c-0.271-2.163-0.487-4.128-0.605-5.6h-0.057  c-0.366,1.618-0.826,3.371-1.339,5.037l-4.285,12.74l-6.568-0.087l-3.521-11.865c-0.572-1.819-1.128-4.083-1.505-5.953l-0.04-0.004  c-0.124,1.914-0.341,3.777-0.665,5.829l-1.677,11.893l-6.322-0.079l4.297-25.444l7.945,0.106l4.005,12.991  c0.427,1.426,0.836,3.103,1.16,4.825h0.05c0.363-1.815,0.776-3.177,1.288-4.693l4.485-12.977l8.084,0.098l3.55,25.541  L298.121,119.465z"/>
<polygon fill="#FFFFFF" points="328.111,120.034 328.713,93.472 322.968,95.604 322.178,89.597 330.717,86.999 335.323,87.104   334.579,120.184 "/>
<path fill="#FFFFFF" d="M353.724,91.938c-2.93-0.076-4.649,1.396-4.71,3.546c-0.057,2.162,1.723,3.588,4.663,5.24  c2.888-1.693,4.343-3.165,4.414-5.035C358.145,93.782,356.82,92.028,353.724,91.938 M352.78,106.484  c-2.495,1.495-4.535,2.96-4.613,5.311c-0.064,2.504,1.801,4.17,4.938,4.257c2.837,0.077,5.04-1.326,5.107-3.782  C358.287,109.677,355.724,108.081,352.78,106.484 M352.374,121.23c-6.97-0.19-10.936-3.788-10.793-9.035  c0.114-3.813,2.979-6.432,6.219-8.349c-3.335-2.013-5.269-4.569-5.165-7.899c0.157-5.735,5.063-9.227,11.726-9.037  c6.365,0.175,10.288,3.768,10.163,8.422c-0.106,3.724-2.723,6.052-5.866,8.027c3.514,2.111,6.197,4.734,6.08,8.657  C364.563,118.34,358.842,121.408,352.374,121.23"/>
<path fill="#FFFFFF" d="M384.109,94.565h-0.054l-8.761,13.334c2.168-0.025,6.764,0.132,8.333,0.182L384.109,94.565z   M389.509,113.931l-0.271,7.885l-6.176-0.215l0.271-7.883l-13.417-0.465l-0.715-5.026l13.245-19.75l7.935,0.274l-0.662,19.446  l4.944,0.175l-0.21,5.728L389.509,113.931z"/>
<path fill="#FFFFFF" d="M411.554,106.703c-3.239-0.135-5.393,2.132-5.527,5.119c-0.132,3.335,1.573,5.907,4.806,6.042  c3.588,0.149,5.588-2.223,5.724-5.507C416.698,109.081,414.979,106.846,411.554,106.703 M410.17,123.183  c-6.856-0.286-11.271-5.127-10.875-14.536c0.563-13.52,8.333-19.669,17.869-19.276c1.627,0.069,2.937,0.174,3.823,0.361  l-0.238,5.576c-1.307-0.345-2.432-0.495-3.895-0.557c-5.051-0.205-8.696,2.394-10.295,7.719c-0.149,0.438-0.277,1.018-0.491,1.655  l0.043,0.044c1.677-1.739,4.083-2.727,7.269-2.588c6.309,0.262,10.021,4.534,9.782,10.167  C422.859,119.05,417.573,123.485,410.17,123.183"/>
<path fill="#FFFFFF" d="M230.808,415.083c-48.352,0-53.67-34.112-53.67-70.617c0-44.845,10.206-79.089,59.322-79.089  c10.434,0,12.815,1.294,22.369,3.911l-3.04,25.642c-9.543-2.822-10.856-4.354-20.856-4.354c-24.604,0-26.726,23.812-26.726,49.113  c0,27.442,2.47,49.758,28.684,49.758c8.91,0,12.167-2.605,19.778-6.087l3.253,25.209  C249.058,412.484,244.505,415.083,230.808,415.083"/>
<path fill="#FFFFFF" d="M333.017,413.125h0.26h0.506c22.611-0.1,27.431-15.876,27.478-36.575V266.466h-28.243v58.671H300.2v-58.671  h-28.254v146.659H300.2v-63.661h32.816V413.125z"/>
<path fill="#FFFFFF" d="M130.955,301.521c0.014-6.332,1.495-11.163,8.447-11.163h32.166v-23.893h-41.161  c-22.811,0-27.648,15.816-27.702,36.579v110.08h28.25v-61.711h34.322v-23.237h-34.322V301.521z"/>
</svg>