<?xml version="1.0" encoding="UTF-8" standalone="no"?>
<!DOCTYPE svg PUBLIC "-//W3C//DTD SVG 1.1//EN" "http://www.w3.org/Graphics/SVG/1.1/DTD/svg11.dtd">
<svg xmlns="http://www.w3.org/2000/svg" version="1.1" viewBox="0 0 200 200" width="200.0pt" height="200.0pt">
<path d="M 0.00 0.00 L 91.33 0.00 C 91.22 2.22 91.18 4.45 91.11 6.67 C 91.98 6.74 92.84 6.81 93.71 6.88 C 94.13 8.68 94.59 10.47 95.06 12.26 C 94.41 12.35 93.76 12.44 93.11 12.53 C 92.74 14.01 92.00 15.11 90.88 15.81 C 90.64 14.70 90.40 13.60 90.16 12.49 C 89.13 12.66 88.07 12.81 87.05 13.08 C 86.69 14.39 86.61 15.83 86.48 17.18 C 87.07 16.03 87.63 14.87 88.17 13.69 L 89.45 13.47 C 89.61 14.41 89.78 15.34 89.94 16.27 C 91.74 15.89 93.55 15.53 95.36 15.18 C 93.99 18.19 90.10 16.93 87.42 17.46 C 89.43 18.35 91.60 17.53 91.74 20.41 C 90.16 20.89 88.56 21.21 86.89 21.09 C 86.77 19.87 86.68 18.64 86.62 17.41 C 83.26 18.00 79.92 18.46 76.50 18.37 C 78.25 22.52 79.92 26.71 81.43 30.96 L 80.16 30.49 L 78.77 29.93 C 78.69 28.88 78.45 26.09 77.02 26.12 C 76.21 26.98 76.46 28.70 76.31 29.82 L 75.40 31.64 C 74.14 31.29 72.88 30.92 71.63 30.55 C 72.83 30.45 74.03 30.37 75.23 30.31 C 73.56 28.80 73.42 28.80 73.59 26.55 C 73.19 26.47 72.79 26.39 72.40 26.30 C 72.44 24.41 72.43 22.52 72.40 20.63 C 73.34 21.28 74.28 21.94 75.21 22.60 L 76.42 22.80 C 75.00 20.70 75.05 20.47 75.55 18.19 C 74.80 16.57 73.96 15.10 72.80 13.74 C 72.69 16.12 73.46 17.62 74.69 19.63 C 73.56 19.94 72.42 20.24 71.29 20.52 C 70.63 21.14 69.96 21.76 69.30 22.38 C 69.28 26.04 69.36 29.68 69.51 33.33 L 67.57 33.36 C 67.59 31.62 67.63 29.88 67.70 28.15 C 67.98 25.86 68.20 23.52 68.76 21.28 L 69.70 19.82 C 69.83 18.32 69.91 16.81 69.95 15.30 L 67.67 15.90 L 67.04 16.07 C 66.70 15.13 66.33 14.19 65.96 13.25 C 68.87 12.70 71.72 12.16 74.52 11.16 C 72.66 11.19 70.81 11.28 68.96 11.43 C 69.00 10.92 69.05 10.41 69.09 9.90 C 71.16 9.60 73.21 9.24 75.25 8.81 C 74.31 11.10 74.80 13.35 75.52 15.62 L 78.14 15.03 L 78.25 16.91 C 79.32 16.93 80.38 16.95 81.45 16.98 C 81.85 15.86 82.29 14.75 82.75 13.65 C 83.75 14.83 84.74 16.02 85.72 17.22 C 85.26 15.85 84.79 14.49 84.31 13.13 C 83.40 13.18 82.49 13.24 81.58 13.30 C 81.18 14.53 80.66 15.69 80.01 16.78 C 79.48 15.90 78.97 15.00 78.48 14.10 C 77.60 14.14 76.71 14.17 75.83 14.21 C 75.91 12.31 76.04 10.41 76.16 8.51 C 77.04 8.32 77.92 8.13 78.81 7.94 C 78.37 5.93 77.98 3.91 77.60 1.89 C 76.29 2.13 74.97 2.36 73.66 2.64 C 73.71 3.75 73.81 4.87 73.90 5.98 C 73.04 5.97 72.18 5.95 71.32 5.94 C 71.13 4.99 70.94 4.05 70.74 3.10 C 69.60 3.38 68.46 3.66 67.32 3.94 C 67.31 5.63 66.87 6.92 66.01 7.82 C 64.49 7.35 64.41 5.88 63.72 4.63 C 62.48 4.86 61.25 5.10 60.01 5.33 C 60.41 7.30 60.80 9.26 61.17 11.22 C 64.69 10.47 64.53 13.52 66.12 15.75 C 63.66 17.08 63.97 18.81 63.36 21.33 C 64.41 19.76 65.27 18.10 66.19 16.46 C 66.28 17.98 66.36 19.50 66.41 21.03 C 63.93 21.62 61.46 22.27 59.01 22.98 L 59.67 20.61 L 57.03 21.41 C 56.50 20.63 55.98 19.83 55.48 19.03 C 54.38 19.55 53.29 20.08 52.19 20.60 L 53.83 21.99 C 50.89 24.74 51.33 20.70 48.03 21.38 C 47.87 19.99 47.70 18.59 47.53 17.20 C 44.92 18.58 40.62 22.01 37.62 20.31 C 41.56 18.33 45.78 17.25 49.60 15.04 C 48.79 13.15 47.99 11.25 47.20 9.35 C 46.15 9.77 45.11 10.20 44.07 10.63 C 44.33 11.85 44.41 13.05 44.31 14.22 C 43.06 13.73 42.03 12.57 41.01 11.70 C 40.19 12.15 39.36 12.60 38.54 13.06 C 38.91 14.22 39.27 15.39 39.62 16.56 C 38.19 16.56 37.07 15.70 36.25 13.99 C 35.16 14.39 34.08 14.79 32.99 15.19 C 33.73 16.95 34.47 18.71 35.20 20.48 C 40.57 21.49 42.92 27.18 44.32 31.87 C 45.24 31.38 46.15 30.90 47.06 30.41 C 47.40 31.74 47.78 33.01 48.35 34.26 C 48.51 35.30 48.68 36.34 48.84 37.38 L 47.78 37.84 C 47.18 35.93 46.59 34.02 46.17 32.06 L 44.70 32.46 C 46.77 35.88 47.11 40.84 49.96 43.60 C 49.64 42.67 49.31 41.74 48.97 40.81 C 57.80 37.13 66.97 34.28 76.35 32.39 L 77.24 34.08 C 73.90 34.20 70.69 34.83 67.44 35.54 C 66.21 35.52 64.16 36.44 66.07 37.47 C 67.06 37.35 67.52 36.71 67.44 35.54 C 68.92 35.70 70.38 35.91 71.84 36.18 C 70.52 36.78 69.16 37.32 67.77 37.79 C 69.46 37.73 71.14 37.65 72.82 37.55 L 72.69 38.63 C 71.22 38.87 69.76 39.15 68.30 39.47 C 70.37 39.66 72.44 39.67 74.51 39.80 C 72.69 40.68 70.76 41.31 68.73 41.70 C 70.35 42.01 71.97 42.29 73.58 42.64 C 71.96 42.96 70.34 43.30 68.72 43.65 C 70.81 44.04 72.22 43.60 74.10 42.80 C 75.03 42.79 75.96 42.78 76.89 42.77 L 76.82 42.17 C 75.56 41.83 74.30 41.45 73.06 41.05 C 74.70 40.93 76.33 40.84 77.97 40.78 L 79.19 41.48 C 80.15 42.23 81.11 42.40 82.06 42.00 C 83.21 41.57 84.36 41.11 85.48 40.61 C 87.63 41.65 89.84 41.15 92.06 40.66 C 96.81 40.30 101.52 40.47 106.28 40.41 C 109.24 40.66 112.16 40.76 115.13 40.70 C 118.75 42.53 122.35 41.48 126.11 40.71 C 124.89 40.50 123.66 40.32 122.42 40.17 L 122.07 38.49 C 124.07 38.68 126.06 38.79 128.06 38.81 C 126.19 38.28 124.29 37.82 122.38 37.42 C 124.18 36.84 126.01 36.75 127.87 36.48 C 126.33 36.18 124.78 35.91 123.23 35.66 L 123.00 34.61 C 124.54 34.70 126.09 34.76 127.63 34.77 C 126.12 34.29 124.59 33.86 123.05 33.48 C 123.81 33.19 124.58 32.93 125.37 32.71 C 133.37 34.38 141.08 36.90 148.71 39.80 C 147.20 40.31 145.68 40.83 144.15 41.31 L 141.71 41.17 C 142.40 40.04 143.56 39.43 145.20 39.35 C 143.99 39.07 142.79 38.78 141.59 38.47 C 140.37 38.15 139.15 37.84 137.93 37.55 C 139.05 38.18 140.12 38.82 141.14 39.46 C 140.33 39.90 139.52 40.32 138.71 40.74 C 139.84 41.06 140.98 41.39 142.12 41.72 C 140.78 41.98 139.44 42.25 138.10 42.52 C 137.24 41.18 136.01 40.84 134.61 40.33 C 133.88 40.28 133.14 40.24 132.41 40.21 L 132.86 40.73 C 133.39 41.23 133.90 41.73 134.41 42.24 C 132.11 41.79 129.84 41.32 127.50 41.14 C 127.46 41.95 127.43 42.76 127.39 43.57 C 131.07 44.39 134.64 45.52 138.26 46.56 C 137.08 45.76 136.01 45.02 135.04 44.34 L 137.50 43.51 L 134.24 42.81 C 134.84 42.39 135.44 41.99 136.05 41.60 L 138.10 42.52 L 138.95 42.91 C 141.62 42.28 143.31 42.08 146.04 42.82 C 147.04 43.00 148.01 43.31 149.02 43.13 L 151.43 42.62 C 153.30 36.75 155.84 30.97 158.36 25.35 C 159.89 23.35 162.12 20.62 164.82 20.53 C 165.56 18.78 166.31 17.04 167.06 15.30 C 166.01 14.82 164.96 14.35 163.92 13.87 C 162.80 15.07 162.71 17.31 160.63 16.22 C 160.87 15.08 161.13 13.96 161.41 12.83 C 160.50 12.50 159.58 12.16 158.66 11.83 C 157.88 12.87 156.94 13.65 155.85 14.17 C 155.72 12.98 155.72 11.78 155.86 10.57 C 154.85 10.17 153.83 9.78 152.82 9.39 C 152.03 11.32 151.24 13.25 150.45 15.18 C 154.34 17.17 158.54 18.37 162.45 20.32 C 159.41 21.96 155.17 18.65 152.57 17.18 C 152.38 18.54 152.19 19.90 151.99 21.26 C 149.90 21.32 148.58 22.58 146.82 23.50 C 147.05 22.39 147.28 21.29 147.52 20.18 C 146.54 19.84 145.57 19.50 144.59 19.16 C 143.25 20.95 142.92 21.22 140.60 21.45 L 140.58 22.45 C 142.62 21.82 144.60 21.08 146.58 20.27 C 146.25 21.71 145.90 23.14 145.55 24.56 C 144.77 24.39 143.99 24.25 143.20 24.13 C 144.61 25.21 146.23 25.47 146.68 27.40 C 144.39 28.11 143.08 27.73 141.15 26.35 L 142.56 23.75 L 140.55 22.66 C 140.55 23.92 140.60 25.16 140.34 26.40 C 139.35 26.23 138.35 26.05 137.37 25.84 C 137.09 27.09 136.78 28.32 136.42 29.53 C 134.89 29.31 133.36 29.08 131.83 28.85 C 134.10 30.39 137.06 30.17 137.64 33.22 C 137.98 32.48 138.32 31.75 138.67 31.01 C 137.74 29.84 137.40 28.61 137.64 27.31 C 139.25 27.30 140.86 27.46 142.48 27.78 C 142.42 29.00 142.35 30.22 142.29 31.44 C 141.24 31.22 140.18 31.00 139.13 30.78 C 139.58 31.94 140.03 33.11 140.47 34.27 C 140.76 33.56 141.05 32.84 141.34 32.13 C 142.44 32.60 143.54 33.08 144.64 33.57 C 143.87 34.58 143.11 35.60 142.33 36.61 C 139.60 35.25 136.67 34.61 133.79 33.69 C 133.47 32.91 133.16 32.12 132.86 31.34 C 132.13 32.16 131.41 32.98 130.70 33.82 C 130.62 29.97 130.67 26.12 130.63 22.28 C 129.91 21.56 129.19 20.84 128.48 20.11 C 127.31 20.34 126.01 20.45 124.92 20.96 C 122.05 23.62 122.51 29.91 118.77 31.53 C 119.95 26.06 122.73 21.04 124.35 15.65 C 123.41 16.62 122.53 17.65 121.63 18.66 C 121.61 20.91 121.48 21.25 119.62 22.74 C 119.84 21.16 120.23 19.71 120.71 18.21 C 118.78 18.10 116.84 17.94 114.91 17.82 C 115.54 16.54 116.14 15.16 117.06 14.07 C 117.69 15.05 118.24 16.08 118.70 17.16 C 120.77 16.71 121.62 17.30 122.29 14.85 C 123.13 15.17 123.98 15.45 124.84 15.71 C 124.99 14.37 125.11 13.02 125.22 11.67 L 125.45 11.65 C 128.26 12.14 131.09 12.54 133.93 12.90 C 132.98 16.20 132.71 19.59 132.51 23.01 L 135.33 21.81 C 135.29 22.93 135.25 24.06 135.20 25.19 C 134.34 24.59 133.48 23.98 132.63 23.38 L 132.44 26.80 C 133.62 26.41 134.80 26.03 135.98 25.65 C 136.03 24.87 136.09 24.09 136.14 23.31 C 137.09 22.99 138.03 22.65 138.96 22.30 C 137.16 21.81 135.34 21.41 133.52 21.04 C 133.64 19.48 133.80 17.93 134.00 16.38 C 134.50 17.60 134.96 18.83 135.40 20.08 C 136.32 20.37 137.23 20.67 138.14 20.98 C 138.61 20.08 139.07 19.17 139.55 18.27 C 140.49 18.94 141.44 19.61 142.40 20.26 C 141.86 17.98 140.71 18.12 138.84 17.42 C 138.26 18.28 137.64 19.11 136.97 19.90 C 136.39 18.95 135.90 17.94 135.50 16.87 C 134.94 16.56 134.39 16.26 133.83 15.96 C 134.76 14.20 135.66 12.37 136.81 10.74 L 138.74 11.38 L 139.40 9.46 C 136.73 10.30 134.70 10.17 132.00 9.69 C 133.27 10.50 134.52 11.35 135.75 12.23 C 134.15 12.05 132.57 11.82 130.98 11.58 L 131.55 9.46 C 130.46 8.55 129.20 8.38 127.85 8.11 L 127.61 8.08 C 125.81 7.89 124.01 7.68 122.22 7.45 C 122.53 5.85 122.86 4.26 123.19 2.67 C 125.88 3.31 124.98 4.37 125.60 6.55 C 126.61 6.84 127.64 7.08 128.69 7.28 C 129.36 6.22 130.10 5.22 130.91 4.27 C 131.84 5.73 132.50 7.33 133.58 8.71 C 133.38 7.10 133.06 5.54 132.79 3.94 C 131.73 3.68 130.67 3.43 129.62 3.17 C 128.84 5.27 128.64 5.82 126.41 6.67 C 126.36 5.30 126.34 3.92 126.33 2.55 C 125.03 2.35 123.73 2.15 122.42 1.95 C 122.05 3.95 121.66 5.95 121.24 7.94 C 122.21 8.15 123.18 8.37 124.16 8.59 C 124.17 10.49 124.18 12.39 124.19 14.29 L 121.70 13.97 C 121.15 14.79 120.57 15.60 119.96 16.38 C 119.31 15.30 118.74 14.17 118.27 12.99 C 116.33 13.18 115.44 14.21 113.95 15.33 C 113.56 14.51 113.18 13.68 112.81 12.84 C 111.90 12.80 110.99 12.75 110.08 12.71 C 109.25 15.06 109.33 14.99 106.72 15.39 L 106.56 16.00 C 107.75 15.97 108.94 15.94 110.13 15.92 C 110.28 15.11 110.44 14.29 110.59 13.47 L 112.05 13.68 L 112.91 15.63 L 113.38 16.07 C 113.39 16.60 113.40 17.12 113.40 17.65 C 110.50 17.38 107.64 17.10 104.83 16.30 C 105.48 20.83 106.38 25.32 106.99 29.86 C 103.74 29.36 104.81 25.62 103.93 23.19 C 103.62 19.71 103.50 18.98 100.47 17.04 C 100.91 17.91 101.35 18.79 101.80 19.66 C 101.18 20.68 100.58 21.70 99.97 22.73 L 98.84 19.49 C 98.33 20.96 97.83 22.43 97.36 23.91 L 96.82 23.85 C 97.15 20.76 98.04 19.30 99.95 16.87 C 98.92 17.78 96.73 18.62 96.45 20.15 C 96.07 23.00 96.60 26.06 96.86 28.92 L 96.24 28.95 C 96.00 27.79 95.73 26.63 95.44 25.47 C 95.33 26.89 95.24 28.30 95.15 29.72 C 94.04 29.20 92.94 28.67 91.83 28.15 C 92.19 29.53 92.54 30.91 92.90 32.29 L 90.25 32.21 C 88.16 31.99 86.07 31.82 83.98 31.68 L 84.42 30.97 C 86.24 30.85 88.06 30.80 89.88 30.76 C 89.43 29.44 88.99 28.12 88.64 26.78 C 90.22 25.06 91.63 26.42 93.59 26.63 C 94.13 23.21 94.64 19.77 95.17 16.34 C 96.09 16.55 97.01 16.77 97.93 17.00 C 98.19 15.23 98.43 13.45 98.58 11.66 C 97.20 12.54 96.75 13.84 95.98 15.22 C 95.77 13.25 95.63 11.27 95.41 9.30 C 98.51 9.38 101.61 9.38 104.71 9.32 C 104.43 10.99 104.18 12.67 103.95 14.36 C 103.33 13.48 102.68 12.62 102.02 11.77 C 101.07 13.05 102.04 15.56 102.06 17.06 C 102.82 16.85 103.59 16.63 104.36 16.41 C 104.47 15.37 104.59 14.32 104.70 13.28 C 105.80 13.38 106.90 13.47 108.01 13.56 C 107.03 13.01 106.04 12.47 105.04 11.94 C 105.50 10.27 105.92 8.60 106.31 6.91 C 107.17 6.84 108.04 6.76 108.91 6.69 C 108.83 4.46 108.79 2.23 108.76 0.00 L 200.00 0.00 L 200.00 200.00 L 103.74 200.00 C 116.99 198.97 129.68 195.67 140.30 187.35 C 146.64 187.13 150.16 183.22 153.70 178.52 C 156.82 176.32 160.03 174.57 162.41 171.45 C 165.19 168.49 165.66 164.31 168.53 161.54 C 174.67 155.33 178.33 146.60 179.22 137.97 C 179.49 135.75 180.76 133.70 181.33 131.51 C 182.33 127.97 181.22 124.61 181.99 120.98 C 182.82 116.91 182.04 113.23 181.38 109.24 C 182.12 103.07 181.31 96.95 177.28 92.01 C 177.34 86.75 175.13 81.13 171.29 77.50 C 169.99 73.21 168.26 70.13 164.82 67.20 C 162.17 65.13 161.83 61.83 159.39 59.61 C 157.98 58.27 156.28 57.45 154.59 56.52 C 153.18 52.78 150.15 51.18 147.46 48.51 C 147.33 47.27 147.20 46.03 147.06 44.79 C 145.88 44.28 144.69 43.77 143.50 43.27 C 143.59 44.89 143.71 46.51 143.85 48.13 L 139.80 46.49 C 140.94 47.37 142.10 48.24 143.26 49.10 C 114.35 48.94 85.42 49.17 56.52 48.98 L 60.03 47.60 C 58.96 47.39 57.89 47.19 56.83 46.95 C 58.20 45.99 59.47 45.30 61.12 44.99 C 61.40 45.54 61.58 46.13 61.85 46.68 C 64.40 45.86 66.94 45.05 69.56 44.49 C 67.96 44.13 66.36 43.76 64.78 43.33 C 66.51 43.20 68.23 43.08 69.96 42.98 C 68.70 42.60 67.45 42.19 66.21 41.76 C 66.84 41.09 67.48 40.43 68.15 39.80 C 66.16 40.30 64.17 40.73 62.14 41.06 C 63.10 41.50 64.02 42.02 64.88 42.61 C 63.33 43.40 61.59 43.84 59.87 43.99 C 60.57 43.15 61.29 42.31 62.03 41.50 C 60.68 42.01 59.34 42.54 58.00 43.07 C 57.50 42.83 57.00 42.58 56.50 42.34 L 58.98 40.54 C 57.11 41.12 55.34 41.60 53.66 42.62 C 53.21 44.27 52.90 45.95 52.49 47.61 C 53.08 47.89 53.67 48.18 54.26 48.47 L 52.27 48.68 C 49.83 51.51 46.71 52.76 45.47 56.58 C 42.31 58.07 39.64 59.81 38.19 63.13 C 36.81 66.51 33.87 67.98 31.81 70.84 C 30.30 72.90 29.64 75.14 28.77 77.50 C 24.94 81.21 22.67 86.68 22.77 92.01 C 18.51 97.18 18.07 103.36 18.64 109.79 C 17.94 113.21 17.30 116.48 17.92 119.99 C 18.51 123.02 18.30 125.97 18.34 129.03 C 18.42 132.68 20.76 135.37 20.98 139.02 C 21.85 145.94 24.49 152.73 28.70 158.31 C 30.64 160.94 33.10 162.58 34.26 165.75 C 36.32 170.59 39.58 174.29 44.11 176.96 C 47.45 178.67 48.57 182.16 51.62 184.37 C 53.98 186.36 56.71 187.04 59.72 187.34 C 70.28 195.58 82.86 198.93 96.03 200.00 L 0.00 200.00 L 0.00 0.00 Z" fill="none"/>
<path d="M 91.33 0.00 L 95.03 0.00 C 94.85 1.13 94.70 2.27 94.57 3.41 C 95.74 3.50 96.90 3.56 98.07 3.59 C 98.14 2.39 98.21 1.20 98.26 0.00 L 101.71 0.00 C 101.99 1.73 102.24 3.46 102.48 5.20 C 101.57 3.52 100.70 1.82 99.85 0.11 C 99.38 1.55 98.92 2.99 98.47 4.44 C 97.25 4.42 96.04 4.41 94.82 4.39 C 93.98 2.89 94.45 0.77 92.16 1.16 C 91.98 2.81 91.94 4.45 91.89 6.11 C 97.28 6.11 102.67 6.17 108.06 6.14 C 108.03 4.46 108.00 2.77 107.95 1.09 C 107.28 1.23 106.60 1.36 105.93 1.50 C 105.62 2.78 105.18 4.00 104.59 5.14 C 104.66 3.43 104.75 1.71 104.87 0.00 L 108.76 0.00 C 108.79 2.23 108.83 4.46 108.91 6.69 C 108.04 6.76 107.17 6.84 106.31 6.91 C 105.92 8.60 105.50 10.27 105.04 11.94 C 106.04 12.47 107.03 13.01 108.01 13.56 C 106.90 13.47 105.80 13.38 104.70 13.28 C 104.59 14.32 104.47 15.37 104.36 16.41 C 103.59 16.63 102.82 16.85 102.06 17.06 C 102.04 15.56 101.07 13.05 102.02 11.77 C 102.68 12.62 103.33 13.48 103.95 14.36 C 104.18 12.67 104.43 10.99 104.71 9.32 C 101.61 9.38 98.51 9.38 95.41 9.30 C 95.63 11.27 95.77 13.25 95.98 15.22 C 96.75 13.84 97.20 12.54 98.58 11.66 C 98.43 13.45 98.19 15.23 97.93 17.00 C 97.01 16.77 96.09 16.55 95.17 16.34 C 94.64 19.77 94.13 23.21 93.59 26.63 C 91.63 26.42 90.22 25.06 88.64 26.78 C 88.99 28.12 89.43 29.44 89.88 30.76 C 88.06 30.80 86.24 30.85 84.42 30.97 L 84.83 30.18 C 85.11 28.99 85.32 27.78 85.46 26.56 C 84.03 26.65 82.60 26.76 81.17 26.88 C 81.46 28.06 81.76 29.23 82.06 30.40 L 82.33 32.03 C 80.77 31.44 78.88 31.71 77.43 32.49 L 76.99 30.80 C 78.04 30.68 79.10 30.57 80.16 30.49 L 81.43 30.96 C 79.92 26.71 78.25 22.52 76.50 18.37 C 79.92 18.46 83.26 18.00 86.62 17.41 C 86.68 18.64 86.77 19.87 86.89 21.09 C 88.56 21.21 90.16 20.89 91.74 20.41 C 91.60 17.53 89.43 18.35 87.42 17.46 C 90.10 16.93 93.99 18.19 95.36 15.18 C 93.55 15.53 91.74 15.89 89.94 16.27 C 89.78 15.34 89.61 14.41 89.45 13.47 L 88.17 13.69 C 87.63 14.87 87.07 16.03 86.48 17.18 C 86.61 15.83 86.69 14.39 87.05 13.08 C 88.07 12.81 89.13 12.66 90.16 12.49 C 90.40 13.60 90.64 14.70 90.88 15.81 C 92.00 15.11 92.74 14.01 93.11 12.53 C 93.76 12.44 94.41 12.35 95.06 12.26 C 94.59 10.47 94.13 8.68 93.71 6.88 C 92.84 6.81 91.98 6.74 91.11 6.67 C 91.18 4.45 91.22 2.22 91.33 0.00 Z" fill="#030000"/>
<path d="M 95.03 0.00 L 98.26 0.00 C 98.21 1.20 98.14 2.39 98.07 3.59 C 96.90 3.56 95.74 3.50 94.57 3.41 C 94.70 2.27 94.85 1.13 95.03 0.00 Z" fill="#ffffff"/>
<path d="M 101.71 0.00 L 104.87 0.00 C 104.75 1.71 104.66 3.43 104.59 5.14 C 105.18 4.00 105.62 2.78 105.93 1.50 C 106.60 1.36 107.28 1.23 107.95 1.09 C 108.00 2.77 108.03 4.46 108.06 6.14 C 102.67 6.17 97.28 6.11 91.89 6.11 C 91.94 4.45 91.98 2.81 92.16 1.16 C 94.45 0.77 93.98 2.89 94.82 4.39 C 96.04 4.41 97.25 4.42 98.47 4.44 C 98.92 2.99 99.38 1.55 99.85 0.11 C 100.70 1.82 101.57 3.52 102.48 5.20 C 102.24 3.46 101.99 1.73 101.71 0.00 Z" fill="#ffffff"/>
<path d="M 73.66 2.64 C 74.97 2.36 76.29 2.13 77.60 1.89 C 77.98 3.91 78.37 5.93 78.81 7.94 C 77.92 8.13 77.04 8.32 76.16 8.51 C 76.04 10.41 75.91 12.31 75.83 14.21 C 76.71 14.17 77.60 14.14 78.48 14.10 C 78.97 15.00 79.48 15.90 80.01 16.78 C 80.66 15.69 81.18 14.53 81.58 13.30 C 82.49 13.24 83.40 13.18 84.31 13.13 C 84.79 14.49 85.26 15.85 85.72 17.22 C 84.74 16.02 83.75 14.83 82.75 13.65 C 82.29 14.75 81.85 15.86 81.45 16.98 C 80.38 16.95 79.32 16.93 78.25 16.91 L 78.14 15.03 L 75.52 15.62 C 74.80 13.35 74.31 11.10 75.25 8.81 C 73.21 9.24 71.16 9.60 69.09 9.90 C 69.05 10.41 69.00 10.92 68.96 11.43 C 70.81 11.28 72.66 11.19 74.52 11.16 C 71.72 12.16 68.87 12.70 65.96 13.25 C 66.33 14.19 66.70 15.13 67.04 16.07 C 67.42 19.73 67.44 23.37 67.50 27.04 L 65.66 26.24 C 63.90 25.56 63.98 24.02 63.09 22.52 C 60.99 23.05 59.39 24.09 57.74 25.44 L 57.70 23.08 C 56.28 24.27 54.84 25.43 53.47 26.68 C 52.68 26.36 51.88 26.05 51.09 25.74 C 51.76 27.00 52.45 28.26 53.16 29.51 L 53.31 27.50 C 55.76 28.04 57.31 27.30 59.40 26.21 C 60.56 26.08 61.63 26.13 62.61 26.37 C 63.08 27.49 63.53 28.63 63.93 29.79 L 66.14 28.94 L 67.70 28.15 C 67.63 29.88 67.59 31.62 67.57 33.36 L 69.51 33.33 C 69.36 29.68 69.28 26.04 69.30 22.38 C 69.96 21.76 70.63 21.14 71.29 20.52 C 72.42 20.24 73.56 19.94 74.69 19.63 C 73.46 17.62 72.69 16.12 72.80 13.74 C 73.96 15.10 74.80 16.57 75.55 18.19 C 75.05 20.47 75.00 20.70 76.42 22.80 L 75.21 22.60 C 74.28 21.94 73.34 21.28 72.40 20.63 C 72.43 22.52 72.44 24.41 72.40 26.30 C 72.79 26.39 73.19 26.47 73.59 26.55 C 73.42 28.80 73.56 28.80 75.23 30.31 C 74.03 30.37 72.83 30.45 71.63 30.55 C 72.88 30.92 74.14 31.29 75.40 31.64 C 75.72 31.88 76.04 32.13 76.35 32.39 C 66.97 34.28 57.80 37.13 48.97 40.81 C 49.31 41.74 49.64 42.67 49.96 43.60 C 47.11 40.84 46.77 35.88 44.70 32.46 L 46.17 32.06 C 46.59 34.02 47.18 35.93 47.78 37.84 L 48.84 37.38 C 48.68 36.34 48.51 35.30 48.35 34.26 C 47.78 33.01 47.40 31.74 47.06 30.41 C 46.15 30.90 45.24 31.38 44.32 31.87 C 42.92 27.18 40.57 21.49 35.20 20.48 C 34.47 18.71 33.73 16.95 32.99 15.19 C 34.08 14.79 35.16 14.39 36.25 13.99 C 37.07 15.70 38.19 16.56 39.62 16.56 C 39.27 15.39 38.91 14.22 38.54 13.06 C 39.36 12.60 40.19 12.15 41.01 11.70 C 42.03 12.57 43.06 13.73 44.31 14.22 C 44.41 13.05 44.33 11.85 44.07 10.63 C 45.11 10.20 46.15 9.77 47.20 9.35 C 47.99 11.25 48.79 13.15 49.60 15.04 C 45.78 17.25 41.56 18.33 37.62 20.31 C 40.62 22.01 44.92 18.58 47.53 17.20 C 47.70 18.59 47.87 19.99 48.03 21.38 C 51.33 20.70 50.89 24.74 53.83 21.99 L 52.19 20.60 C 53.29 20.08 54.38 19.55 55.48 19.03 C 55.98 19.83 56.50 20.63 57.03 21.41 L 59.67 20.61 L 59.01 22.98 C 61.46 22.27 63.93 21.62 66.41 21.03 C 66.36 19.50 66.28 17.98 66.19 16.46 C 65.27 18.10 64.41 19.76 63.36 21.33 C 63.97 18.81 63.66 17.08 66.12 15.75 C 64.53 13.52 64.69 10.47 61.17 11.22 C 60.80 9.26 60.41 7.30 60.01 5.33 C 61.25 5.10 62.48 4.86 63.72 4.63 C 64.41 5.88 64.49 7.35 66.01 7.82 C 66.87 6.92 67.31 5.63 67.32 3.94 C 68.46 3.66 69.60 3.38 70.74 3.10 C 70.94 4.05 71.13 4.99 71.32 5.94 C 72.18 5.95 73.04 5.97 73.90 5.98 C 73.81 4.87 73.71 3.75 73.66 2.64 Z" fill="#030000"/>
<path d="M 122.42 1.95 C 123.73 2.15 125.03 2.35 126.33 2.55 C 126.34 3.92 126.36 5.30 126.41 6.67 C 128.64 5.82 128.84 5.27 129.62 3.17 C 130.67 3.43 131.73 3.68 132.79 3.94 C 133.06 5.54 133.38 7.10 133.58 8.71 C 132.50 7.33 131.84 5.73 130.91 4.27 C 130.10 5.22 129.36 6.22 128.69 7.28 C 127.64 7.08 126.61 6.84 125.60 6.55 C 124.98 4.37 125.88 3.31 123.19 2.67 C 122.86 4.26 122.53 5.85 122.22 7.45 C 124.01 7.68 125.81 7.89 127.61 8.08 L 125.21 9.02 C 125.23 9.90 125.23 10.78 125.22 11.67 C 125.11 13.02 124.99 14.37 124.84 15.71 C 123.98 15.45 123.13 15.17 122.29 14.85 C 121.62 17.30 120.77 16.71 118.70 17.16 C 118.24 16.08 117.69 15.05 117.06 14.07 C 116.14 15.16 115.54 16.54 114.91 17.82 C 116.84 17.94 118.78 18.10 120.71 18.21 C 120.23 19.71 119.84 21.16 119.62 22.74 C 121.48 21.25 121.61 20.91 121.63 18.66 C 122.53 17.65 123.41 16.62 124.35 15.65 C 122.73 21.04 119.95 26.06 118.77 31.53 C 122.51 29.91 122.05 23.62 124.92 20.96 C 126.01 20.45 127.31 20.34 128.48 20.11 C 129.19 20.84 129.91 21.56 130.63 22.28 C 130.67 26.12 130.62 29.97 130.70 33.82 C 131.41 32.98 132.13 32.16 132.86 31.34 C 133.16 32.12 133.47 32.91 133.79 33.69 C 136.67 34.61 139.60 35.25 142.33 36.61 C 143.11 35.60 143.87 34.58 144.64 33.57 C 143.54 33.08 142.44 32.60 141.34 32.13 C 141.05 32.84 140.76 33.56 140.47 34.27 C 140.03 33.11 139.58 31.94 139.13 30.78 C 140.18 31.00 141.24 31.22 142.29 31.44 C 142.35 30.22 142.42 29.00 142.48 27.78 C 140.86 27.46 139.25 27.30 137.64 27.31 C 137.40 28.61 137.74 29.84 138.67 31.01 C 138.32 31.75 137.98 32.48 137.64 33.22 C 137.06 30.17 134.10 30.39 131.83 28.85 C 133.36 29.08 134.89 29.31 136.42 29.53 C 136.78 28.32 137.09 27.09 137.37 25.84 C 138.35 26.05 139.35 26.23 140.34 26.40 C 140.60 25.16 140.55 23.92 140.55 22.66 L 142.56 23.75 L 141.15 26.35 C 143.08 27.73 144.39 28.11 146.68 27.40 C 146.23 25.47 144.61 25.21 143.20 24.13 C 143.99 24.25 144.77 24.39 145.55 24.56 C 147.37 25.07 149.08 25.44 150.99 25.36 C 148.16 29.07 145.76 33.16 143.27 37.11 C 144.54 37.29 145.80 37.48 147.07 37.68 C 148.30 35.73 149.51 33.76 150.55 31.69 C 148.98 33.21 147.55 34.86 146.01 36.40 C 147.44 33.55 149.20 30.92 151.17 28.42 C 152.76 28.39 154.35 28.35 155.94 28.31 C 157.02 25.78 158.13 23.71 160.23 21.84 C 157.90 20.96 155.59 20.03 153.28 19.11 C 152.84 21.06 152.32 22.95 151.58 24.80 L 151.11 21.91 C 149.49 23.64 147.75 23.94 145.55 24.56 C 145.90 23.14 146.25 21.71 146.58 20.27 C 144.60 21.08 142.62 21.82 140.58 22.45 L 140.60 21.45 C 142.92 21.22 143.25 20.95 144.59 19.16 C 145.57 19.50 146.54 19.84 147.52 20.18 C 147.28 21.29 147.05 22.39 146.82 23.50 C 148.58 22.58 149.90 21.32 151.99 21.26 C 152.19 19.90 152.38 18.54 152.57 17.18 C 155.17 18.65 159.41 21.96 162.45 20.32 C 158.54 18.37 154.34 17.17 150.45 15.18 C 151.24 13.25 152.03 11.32 152.82 9.39 C 153.83 9.78 154.85 10.17 155.86 10.57 C 155.72 11.78 155.72 12.98 155.85 14.17 C 156.94 13.65 157.88 12.87 158.66 11.83 C 159.58 12.16 160.50 12.50 161.41 12.83 C 161.13 13.96 160.87 15.08 160.63 16.22 C 162.71 17.31 162.80 15.07 163.92 13.87 C 164.96 14.35 166.01 14.82 167.06 15.30 C 166.31 17.04 165.56 18.78 164.82 20.53 C 162.12 20.62 159.89 23.35 158.36 25.35 C 155.84 30.97 153.30 36.75 151.43 42.62 L 149.02 43.13 L 150.97 41.75 L 150.52 40.40 C 152.18 37.98 153.16 35.29 154.22 32.57 C 153.18 33.04 152.14 33.50 151.10 33.96 C 151.39 34.70 151.69 35.43 151.99 36.16 C 150.86 36.42 149.73 36.67 148.60 36.92 C 149.29 37.63 149.97 38.35 150.63 39.08 C 150.01 39.34 149.37 39.59 148.71 39.80 C 141.08 36.90 133.37 34.38 125.37 32.71 C 124.58 32.93 123.81 33.19 123.05 33.48 C 124.59 33.86 126.12 34.29 127.63 34.77 C 126.09 34.76 124.54 34.70 123.00 34.61 L 123.23 35.66 C 124.78 35.91 126.33 36.18 127.87 36.48 C 126.01 36.75 124.18 36.84 122.38 37.42 C 124.29 37.82 126.19 38.28 128.06 38.81 C 126.06 38.79 124.07 38.68 122.07 38.49 L 122.42 40.17 C 123.66 40.32 124.89 40.50 126.11 40.71 C 122.35 41.48 118.75 42.53 115.13 40.70 C 112.16 40.76 109.24 40.66 106.28 40.41 L 107.98 39.85 C 110.06 39.93 111.99 40.10 114.04 39.53 C 112.49 38.39 109.38 38.39 107.77 39.35 L 107.19 37.97 C 110.13 38.11 113.06 38.25 115.99 38.62 L 115.95 36.51 C 112.90 36.86 109.84 37.08 106.77 37.03 L 106.51 36.43 C 109.59 36.33 112.65 36.27 115.72 35.94 C 113.20 33.99 109.01 34.96 105.99 34.41 C 109.76 33.67 113.43 34.15 117.18 34.73 L 116.73 32.87 C 113.14 33.09 109.70 32.87 106.15 32.37 C 101.21 31.74 96.45 32.48 91.54 32.37 L 90.25 32.21 L 92.90 32.29 C 92.54 30.91 92.19 29.53 91.83 28.15 C 92.94 28.67 94.04 29.20 95.15 29.72 C 95.24 28.30 95.33 26.89 95.44 25.47 C 95.73 26.63 96.00 27.79 96.24 28.95 L 96.86 28.92 C 96.60 26.06 96.07 23.00 96.45 20.15 C 96.73 18.62 98.92 17.78 99.95 16.87 C 98.04 19.30 97.15 20.76 96.82 23.85 L 97.36 23.91 C 97.83 22.43 98.33 20.96 98.84 19.49 L 99.97 22.73 C 100.58 21.70 101.18 20.68 101.80 19.66 C 101.35 18.79 100.91 17.91 100.47 17.04 C 103.50 18.98 103.62 19.71 103.93 23.19 C 104.81 25.62 103.74 29.36 106.99 29.86 C 106.38 25.32 105.48 20.83 104.83 16.30 C 107.64 17.10 110.50 17.38 113.40 17.65 C 113.40 17.12 113.39 16.60 113.38 16.07 L 112.91 15.63 L 112.05 13.68 L 110.59 13.47 C 110.44 14.29 110.28 15.11 110.13 15.92 C 108.94 15.94 107.75 15.97 106.56 16.00 L 106.72 15.39 C 109.33 14.99 109.25 15.06 110.08 12.71 C 110.99 12.75 111.90 12.80 112.81 12.84 C 113.18 13.68 113.56 14.51 113.95 15.33 C 115.44 14.21 116.33 13.18 118.27 12.99 C 118.74 14.17 119.31 15.30 119.96 16.38 C 120.57 15.60 121.15 14.79 121.70 13.97 L 124.19 14.29 C 124.18 12.39 124.17 10.49 124.16 8.59 C 123.18 8.37 122.21 8.15 121.24 7.94 C 121.66 5.95 122.05 3.95 122.42 1.95 Z" fill="#030000"/>
<path d="M 76.83 2.89 C 77.20 4.37 77.55 5.85 77.88 7.34 C 74.71 8.09 71.54 8.68 68.32 9.13 C 68.41 10.21 68.50 11.29 68.59 12.37 L 64.37 12.06 C 65.58 11.20 66.80 10.34 68.02 9.49 C 65.98 9.82 63.96 10.18 61.93 10.53 C 61.62 9.04 61.31 7.54 61.01 6.05 L 63.30 5.48 C 63.62 6.53 63.94 7.57 64.26 8.62 C 65.35 8.39 66.44 8.16 67.52 7.93 C 67.80 6.58 68.29 5.35 68.99 4.25 C 69.87 5.12 70.65 6.09 71.32 7.16 C 72.42 6.94 73.51 6.71 74.60 6.47 C 75.09 4.31 73.81 2.95 76.83 2.89 Z" fill="#ffffff"/>
<path d="M 136.07 4.77 C 137.32 4.80 138.57 4.96 139.81 5.08 C 139.90 6.22 139.99 7.37 140.08 8.51 C 139.24 7.57 138.55 5.16 136.96 5.70 L 135.46 8.41 C 135.52 7.15 135.60 5.95 136.07 4.77 Z" fill="#030000"/>
<path d="M 94.75 6.88 C 98.15 7.20 103.19 5.83 105.97 8.05 C 102.25 8.49 98.61 8.34 94.88 8.33 L 94.75 6.88 Z" fill="#ffffff"/>
<path d="M 127.61 8.08 L 127.85 8.11 C 129.20 8.38 130.46 8.55 131.55 9.46 L 130.98 11.58 C 129.07 11.32 127.34 11.32 125.45 11.65 L 125.22 11.67 C 125.23 10.78 125.23 9.90 125.21 9.02 L 127.61 8.08 Z" fill="#ffffff"/>
<path d="M 132.00 9.69 C 134.70 10.17 136.73 10.30 139.40 9.46 L 138.74 11.38 L 136.81 10.74 C 135.66 12.37 134.76 14.20 133.83 15.96 C 134.39 16.26 134.94 16.56 135.50 16.87 C 135.90 17.94 136.39 18.95 136.97 19.90 C 137.64 19.11 138.26 18.28 138.84 17.42 C 140.71 18.12 141.86 17.98 142.40 20.26 C 141.44 19.61 140.49 18.94 139.55 18.27 C 139.07 19.17 138.61 20.08 138.14 20.98 C 137.23 20.67 136.32 20.37 135.40 20.08 C 134.96 18.83 134.50 17.60 134.00 16.38 C 133.80 17.93 133.64 19.48 133.52 21.04 C 135.34 21.41 137.16 21.81 138.96 22.30 C 138.03 22.65 137.09 22.99 136.14 23.31 C 136.09 24.09 136.03 24.87 135.98 25.65 C 134.80 26.03 133.62 26.41 132.44 26.80 L 132.63 23.38 C 133.48 23.98 134.34 24.59 135.20 25.19 C 135.25 24.06 135.29 22.93 135.33 21.81 L 132.51 23.01 C 132.71 19.59 132.98 16.20 133.93 12.90 C 131.09 12.54 128.26 12.14 125.45 11.65 C 127.34 11.32 129.07 11.32 130.98 11.58 C 132.57 11.82 134.15 12.05 135.75 12.23 C 134.52 11.35 133.27 10.50 132.00 9.69 Z" fill="#030000"/>
<path d="M 46.30 10.29 C 47.20 11.71 47.87 13.22 48.55 14.75 C 44.32 16.48 40.11 18.25 35.89 20.00 C 35.58 18.64 33.70 16.21 34.85 15.10 C 36.22 14.87 36.71 16.84 37.47 17.71 C 38.50 17.31 39.52 16.90 40.55 16.48 C 40.25 15.28 40.07 14.08 39.99 12.87 C 41.65 13.20 42.06 14.29 43.01 15.51 C 43.98 15.06 44.94 14.61 45.91 14.16 C 45.78 12.60 44.20 11.11 46.30 10.29 Z" fill="#ffffff"/>
<path d="M 153.82 10.22 C 155.48 11.39 154.35 12.59 154.16 14.16 C 155.10 14.59 156.04 15.03 156.97 15.46 C 157.96 14.38 158.51 13.22 160.05 12.85 C 160.16 14.04 159.72 15.28 159.47 16.43 C 160.50 16.87 161.53 17.30 162.57 17.73 C 163.53 16.67 164.03 13.97 165.80 15.77 C 165.31 17.19 164.78 18.59 164.21 19.98 C 160.00 18.26 155.77 16.58 151.61 14.75 C 152.28 13.26 152.75 11.46 153.82 10.22 Z" fill="#ffffff"/>
<path d="M 93.81 13.36 L 94.65 13.34 L 95.07 14.06 L 94.64 14.79 L 93.81 14.81 L 93.39 14.09 L 93.81 13.36 Z" fill="#ffffff"/>
<path d="M 127.08 14.98 C 127.06 16.71 126.50 18.38 124.86 19.20 C 124.64 17.41 125.28 15.61 127.08 14.98 Z" fill="#030000"/>
<path d="M 130.32 15.24 C 133.43 15.59 131.95 19.79 130.95 21.50 C 130.07 19.40 130.03 17.46 130.32 15.24 Z" fill="#030000"/>
<path d="M 67.04 16.07 L 67.67 15.90 C 67.99 17.70 68.36 19.49 68.76 21.28 C 68.20 23.52 67.98 25.86 67.70 28.15 L 66.14 28.94 C 65.99 28.04 65.83 27.14 65.66 26.24 L 67.50 27.04 C 67.44 23.37 67.42 19.73 67.04 16.07 Z" fill="#ffffff"/>
<path d="M 67.67 15.90 L 69.95 15.30 C 69.91 16.81 69.83 18.32 69.70 19.82 L 68.76 21.28 C 68.36 19.49 67.99 17.70 67.67 15.90 Z" fill="#030000"/>
<path d="M 61.59 17.32 C 62.07 18.75 62.54 20.17 62.98 21.61 C 62.02 20.53 61.10 19.42 60.18 18.31 C 59.39 19.15 58.59 19.99 57.79 20.83 C 58.12 17.74 59.23 18.20 61.59 17.32 Z" fill="#030000"/>
<path d="M 93.88 18.16 C 94.28 19.25 94.01 20.11 93.09 20.74 C 91.63 20.08 92.19 16.76 93.88 18.16 Z" fill="#ffffff"/>
<path d="M 106.84 17.64 C 108.14 18.46 108.19 19.48 106.97 20.71 C 105.64 19.46 105.60 18.44 106.84 17.64 Z" fill="#ffffff"/>
<path d="M 108.52 17.92 C 110.23 18.13 111.92 18.29 113.61 18.63 L 113.15 21.13 C 111.62 21.31 110.15 20.98 108.72 20.46 L 108.52 17.92 Z" fill="#ffffff"/>
<path d="M 78.77 19.24 C 80.05 19.61 80.46 20.47 80.00 21.85 C 78.65 21.47 78.24 20.60 78.77 19.24 Z" fill="#ffffff"/>
<path d="M 85.49 18.27 C 85.62 19.36 85.72 20.45 85.81 21.54 C 83.25 21.46 81.87 21.89 80.04 19.77 C 81.84 19.17 83.64 18.68 85.49 18.27 Z" fill="#ffffff"/>
<path d="M 114.52 18.45 C 116.00 18.60 117.48 18.74 118.96 18.89 C 118.81 19.85 118.65 20.82 118.49 21.78 C 117.01 21.58 115.54 21.38 114.07 21.18 C 114.22 20.27 114.37 19.36 114.52 18.45 Z" fill="#ffffff"/>
<path d="M 46.78 19.23 L 47.68 22.83 C 46.64 22.79 45.61 22.76 44.58 22.73 C 45.53 24.29 46.50 25.85 47.46 27.40 C 48.18 26.76 48.89 26.11 49.60 25.46 C 51.78 29.51 54.37 33.19 56.81 37.10 C 55.53 37.29 54.25 37.48 52.98 37.68 C 51.46 35.35 50.17 32.75 48.36 30.63 C 47.07 30.03 45.65 29.66 44.30 29.21 C 46.06 29.21 47.81 29.17 49.57 29.09 C 47.76 28.55 45.92 28.34 44.05 28.16 C 42.97 25.67 41.88 23.66 39.79 21.85 C 42.10 20.96 44.41 19.95 46.78 19.23 Z" fill="#ffffff"/>
<path d="M 153.28 19.11 C 155.59 20.03 157.90 20.96 160.23 21.84 C 158.13 23.71 157.02 25.78 155.94 28.31 C 154.35 28.35 152.76 28.39 151.17 28.42 C 149.20 30.92 147.44 33.55 146.01 36.40 C 147.55 34.86 148.98 33.21 150.55 31.69 C 149.51 33.76 148.30 35.73 147.07 37.68 C 145.80 37.48 144.54 37.29 143.27 37.11 C 145.76 33.16 148.16 29.07 150.99 25.36 C 149.08 25.44 147.37 25.07 145.55 24.56 C 147.75 23.94 149.49 23.64 151.11 21.91 L 151.58 24.80 C 152.32 22.95 152.84 21.06 153.28 19.11 Z" fill="#ffffff"/>
<path d="M 54.89 20.45 C 55.73 21.21 56.30 22.07 56.58 23.05 C 55.97 23.63 55.18 24.01 54.21 24.19 C 53.86 22.54 54.08 21.29 54.89 20.45 Z" fill="#ffffff"/>
<path d="M 48.93 22.40 C 50.75 23.54 52.08 23.93 54.21 24.19 C 52.95 24.75 51.56 25.96 50.16 25.11 C 49.25 24.27 48.84 23.37 48.93 22.40 Z" fill="#ffffff"/>
<path d="M 65.93 22.30 C 66.52 22.93 66.56 23.73 66.05 24.70 C 64.56 24.64 64.18 22.04 65.93 22.30 Z" fill="#ffffff"/>
<path d="M 88.58 21.84 C 88.81 22.95 89.03 24.05 89.24 25.16 C 87.63 25.31 86.02 25.46 84.41 25.61 L 84.22 22.39 C 85.67 22.17 87.12 21.97 88.58 21.84 Z" fill="#ffffff"/>
<path d="M 89.59 21.65 C 91.00 21.65 92.42 21.66 93.83 21.67 C 92.58 24.20 93.36 25.55 89.92 25.36 C 89.81 24.13 89.70 22.89 89.59 21.65 Z" fill="#ffffff"/>
<path d="M 106.35 21.64 C 107.71 21.64 109.06 21.64 110.41 21.65 C 110.34 22.87 110.27 24.10 110.20 25.33 C 109.20 25.12 108.20 24.91 107.20 24.69 C 106.90 23.68 106.62 22.66 106.35 21.64 Z" fill="#ffffff"/>
<path d="M 111.27 22.00 C 112.92 22.12 114.57 22.24 116.21 22.38 C 115.06 24.87 114.14 27.25 113.48 29.93 L 111.72 30.21 C 111.91 28.49 112.31 26.83 112.76 25.17 L 111.07 25.23 C 111.14 24.15 111.20 23.08 111.27 22.00 Z" fill="#ffffff"/>
<path d="M 57.70 23.08 L 57.74 25.44 C 59.39 24.09 60.99 23.05 63.09 22.52 C 63.98 24.02 63.90 25.56 65.66 26.24 C 65.83 27.14 65.99 28.04 66.14 28.94 L 63.93 29.79 C 63.53 28.63 63.08 27.49 62.61 26.37 C 61.63 26.13 60.56 26.08 59.40 26.21 C 57.31 27.30 55.76 28.04 53.31 27.50 L 53.16 29.51 C 52.45 28.26 51.76 27.00 51.09 25.74 C 51.88 26.05 52.68 26.36 53.47 26.68 C 54.84 25.43 56.28 24.27 57.70 23.08 Z" fill="#ffffff"/>
<path d="M 70.61 21.66 C 70.91 25.52 71.00 29.52 70.28 33.33 C 69.98 29.48 69.89 25.48 70.61 21.66 Z" fill="#ffffff"/>
<path d="M 74.15 23.56 C 75.50 22.85 76.87 26.61 75.21 26.71 C 74.05 26.38 73.43 24.52 74.15 23.56 Z" fill="#ffffff"/>
<path d="M 75.98 23.75 L 76.57 23.66 L 76.66 24.26 L 76.07 24.35 L 75.98 23.75 Z" fill="#030000"/>
<path d="M 79.24 22.77 C 80.63 22.68 82.03 22.58 83.43 22.49 L 83.40 25.44 C 82.57 25.81 81.72 26.15 80.86 26.47 C 80.30 25.25 79.76 24.01 79.24 22.77 Z" fill="#ffffff"/>
<path d="M 116.57 22.50 C 117.99 22.63 119.41 22.76 120.82 22.89 C 120.39 24.18 119.77 25.27 118.98 26.16 C 118.19 26.02 117.42 25.84 116.67 25.60 L 116.57 22.50 Z" fill="#ffffff"/>
<path d="M 154.75 22.86 C 155.20 24.44 153.21 26.74 151.66 27.05 C 151.51 25.81 153.21 22.07 154.75 22.86 Z" fill="#030000"/>
<path d="M 100.95 24.73 C 101.70 25.61 102.04 26.77 101.96 28.22 L 101.86 28.89 L 100.64 28.00 C 100.46 26.88 100.57 25.79 100.95 24.73 Z" fill="#ffffff"/>
<path d="M 128.41 24.32 C 128.38 27.05 128.31 29.79 128.27 32.52 C 126.94 31.96 125.60 31.42 124.26 30.91 C 125.13 30.51 125.99 30.09 126.84 29.66 C 126.35 28.93 125.48 28.42 124.24 28.14 C 125.53 27.71 126.81 27.26 128.09 26.81 C 126.93 26.64 125.77 26.48 124.61 26.32 C 125.88 25.66 127.14 24.99 128.41 24.32 Z" fill="#ffffff"/>
<path d="M 77.02 26.12 C 78.45 26.09 78.69 28.88 78.77 29.93 C 77.95 29.73 77.14 29.74 76.31 29.82 C 76.46 28.70 76.21 26.98 77.02 26.12 Z" fill="#030000"/>
<path d="M 87.11 25.43 C 87.91 27.00 88.35 28.41 88.30 30.19 C 85.09 30.68 85.66 27.01 87.11 25.43 Z" fill="#ffffff"/>
<path d="M 107.42 25.55 C 108.68 25.75 109.93 25.95 111.19 26.17 C 111.21 27.24 111.19 28.31 111.12 29.38 C 110.03 29.56 108.93 29.71 107.83 29.85 C 107.69 28.42 107.55 26.98 107.42 25.55 Z" fill="#ffffff"/>
<path d="M 123.00 26.34 L 123.85 26.27 L 124.28 26.94 L 123.85 27.66 L 123.00 27.73 L 122.57 27.06 L 123.00 26.34 Z" fill="#ffffff"/>
<path d="M 147.23 26.48 L 148.04 26.39 L 148.42 27.13 L 148.02 27.94 L 147.24 28.05 L 146.85 27.30 L 147.23 26.48 Z" fill="#ffffff"/>
<path d="M 62.17 26.99 C 62.33 28.02 62.49 29.04 62.65 30.07 C 61.27 30.54 59.90 31.01 58.53 31.49 C 58.12 30.31 57.72 29.12 57.33 27.92 C 58.94 27.62 60.55 27.30 62.17 26.99 Z" fill="#ffffff"/>
<path d="M 81.17 26.88 C 82.60 26.76 84.03 26.65 85.46 26.56 C 85.32 27.78 85.11 28.99 84.83 30.18 C 83.91 30.27 82.99 30.34 82.06 30.40 C 81.76 29.23 81.46 28.06 81.17 26.88 Z" fill="#ffffff"/>
<path d="M 114.86 26.70 C 116.22 26.71 117.59 26.74 118.95 26.78 C 118.67 28.00 118.39 29.21 118.11 30.43 C 116.98 30.42 115.84 30.41 114.71 30.40 C 114.75 29.16 114.81 27.93 114.86 26.70 Z" fill="#ffffff"/>
<path d="M 49.06 29.67 L 49.62 29.49 L 49.80 30.05 L 49.24 30.23 L 49.06 29.67 Z" fill="#030000"/>
<path d="M 56.38 28.33 C 56.76 29.30 57.12 30.27 57.45 31.25 C 56.88 31.90 56.10 32.37 55.13 32.68 C 54.44 31.74 53.75 30.79 53.07 29.84 C 54.17 29.33 55.28 28.83 56.38 28.33 Z" fill="#ffffff"/>
<path d="M 78.77 29.93 L 80.16 30.49 C 79.10 30.57 78.04 30.68 76.99 30.80 L 77.43 32.49 L 77.76 33.65 L 77.91 34.36 L 78.05 35.21 L 78.13 36.09 L 78.18 36.90 L 78.20 37.50 C 79.54 38.90 81.71 38.71 82.87 37.19 L 82.82 36.55 L 82.76 35.74 L 82.69 34.86 L 82.63 34.05 L 82.41 32.52 L 82.33 32.03 L 82.06 30.40 C 82.99 30.34 83.91 30.27 84.83 30.18 L 84.42 30.97 L 83.98 31.68 C 86.07 31.82 88.16 31.99 90.25 32.21 L 91.54 32.37 C 96.45 32.48 101.21 31.74 106.15 32.37 C 109.70 32.87 113.14 33.09 116.73 32.87 L 117.18 34.73 C 113.43 34.15 109.76 33.67 105.99 34.41 C 106.16 35.08 106.33 35.76 106.51 36.43 L 106.77 37.03 L 107.19 37.97 L 107.77 39.35 L 107.98 39.85 L 106.28 40.41 C 101.52 40.47 96.81 40.30 92.06 40.66 L 92.22 40.19 L 92.40 39.69 L 93.24 37.70 L 93.51 37.07 L 93.62 36.17 C 93.69 35.57 93.76 34.98 93.83 34.39 C 90.52 33.89 87.24 34.02 83.91 34.16 L 84.16 34.71 L 84.60 35.73 L 85.07 36.99 L 85.33 37.78 L 85.43 39.56 L 85.45 40.03 L 85.48 40.61 C 84.36 41.11 83.21 41.57 82.06 42.00 L 82.40 41.56 C 83.27 41.02 83.67 40.42 83.61 39.79 C 83.44 37.78 79.33 38.06 79.37 40.20 L 79.30 40.75 L 79.19 41.48 L 77.97 40.78 C 76.86 40.41 75.72 40.13 74.59 39.81 L 74.51 39.80 L 72.67 39.25 C 74.03 38.99 75.39 38.71 76.75 38.42 L 76.73 37.54 L 76.70 36.99 L 76.65 36.40 C 75.41 36.24 74.18 36.09 72.94 35.94 L 72.89 35.57 C 74.34 35.07 75.79 34.57 77.24 34.08 L 76.35 32.39 C 76.04 32.13 75.72 31.88 75.40 31.64 L 76.31 29.82 C 77.14 29.74 77.95 29.73 78.77 29.93 Z" fill="#f68b1e"/>
<path d="M 121.93 29.32 L 122.79 29.26 L 123.22 29.92 L 122.77 30.63 L 121.91 30.70 L 121.48 30.04 L 121.93 29.32 Z" fill="#ffffff"/>
<path d="M 146.44 29.95 C 146.12 30.86 145.59 31.56 144.87 32.05 C 143.08 32.69 142.98 30.53 143.34 29.36 C 144.48 29.11 145.51 29.30 146.44 29.95 Z" fill="#ffffff"/>
<path d="M 154.89 30.07 C 153.97 30.53 153.04 30.55 152.08 30.14 C 152.17 28.64 154.61 28.72 154.89 30.07 Z" fill="#ffffff"/>
<path d="M 66.71 30.05 C 66.71 31.30 66.71 32.54 66.71 33.79 C 65.78 34.06 64.85 34.32 63.92 34.58 C 63.51 33.35 63.10 32.13 62.68 30.90 C 64.02 30.62 65.36 30.33 66.71 30.05 Z" fill="#ffffff"/>
<path d="M 100.00 30.28 C 102.35 30.40 105.22 29.97 107.20 31.36 C 102.40 31.63 97.57 31.63 92.78 31.36 C 94.76 29.96 97.65 30.39 100.00 30.28 Z" fill="#ffffff"/>
<path d="M 108.12 30.51 C 111.23 30.79 115.05 30.58 117.77 32.23 C 114.61 32.40 111.45 32.25 108.29 32.28 L 108.12 30.51 Z" fill="#ffffff"/>
<path d="M 153.18 31.27 L 153.91 30.84 L 154.68 31.20 L 154.71 32.01 L 153.98 32.46 L 153.22 32.09 L 153.18 31.27 Z" fill="#ffffff"/>
<path d="M 50.79 31.86 C 52.41 32.35 53.10 34.09 52.98 35.66 C 51.76 34.87 50.72 33.36 50.79 31.86 Z" fill="#030000"/>
<path d="M 58.32 32.31 C 58.90 32.91 59.46 33.54 60.00 34.18 C 60.26 33.07 60.55 31.98 60.86 30.88 C 62.60 31.69 64.42 37.47 60.50 34.45 C 59.68 35.30 58.85 36.15 58.01 36.98 C 57.14 35.83 56.27 34.67 55.42 33.51 C 56.37 33.07 57.34 32.67 58.32 32.31 Z" fill="#ffffff"/>
<path d="M 77.43 32.49 C 78.88 31.71 80.77 31.44 82.33 32.03 L 82.41 32.52 C 80.69 32.57 79.14 32.95 77.76 33.65 L 77.43 32.49 Z" fill="#ffffff"/>
<path d="M 117.60 32.06 C 119.13 31.80 120.71 31.77 122.36 31.97 C 122.60 32.43 122.68 32.89 122.62 33.37 C 120.93 33.26 119.07 32.94 117.60 32.06 Z" fill="#ffffff"/>
<path d="M 77.76 33.65 C 79.14 32.95 80.69 32.57 82.41 32.52 L 82.63 34.05 C 81.16 33.49 79.34 33.78 77.91 34.36 L 77.76 33.65 Z" fill="#030000"/>
<path d="M 104.55 33.07 C 101.68 33.31 98.81 33.49 95.94 33.60 C 98.85 32.90 101.58 32.81 104.55 33.07 Z" fill="#ffffff"/>
<path d="M 154.22 32.57 C 153.16 35.29 152.18 37.98 150.52 40.40 L 150.97 41.75 L 149.02 43.13 C 148.01 43.31 147.04 43.00 146.04 42.82 C 145.41 42.32 144.78 41.81 144.15 41.31 C 145.68 40.83 147.20 40.31 148.71 39.80 C 149.37 39.59 150.01 39.34 150.63 39.08 C 149.97 38.35 149.29 37.63 148.60 36.92 C 149.73 36.67 150.86 36.42 151.99 36.16 C 151.69 35.43 151.39 34.70 151.10 33.96 C 152.14 33.50 153.18 33.04 154.22 32.57 Z" fill="#ffffff"/>
<path d="M 77.24 34.08 C 75.79 34.57 74.34 35.07 72.89 35.57 L 72.94 35.94 C 74.18 36.09 75.41 36.24 76.65 36.40 L 76.70 36.99 C 75.37 36.58 73.62 36.56 73.01 38.07 C 74.19 38.42 75.43 38.24 76.73 37.54 L 76.75 38.42 C 75.39 38.71 74.03 38.99 72.67 39.25 L 74.51 39.80 C 72.44 39.67 70.37 39.66 68.30 39.47 C 69.76 39.15 71.22 38.87 72.69 38.63 L 72.82 37.55 C 71.14 37.65 69.46 37.73 67.77 37.79 C 69.16 37.32 70.52 36.78 71.84 36.18 C 70.38 35.91 68.92 35.70 67.44 35.54 C 70.69 34.83 73.90 34.20 77.24 34.08 Z" fill="#030000"/>
<path d="M 77.91 34.36 C 79.34 33.78 81.16 33.49 82.63 34.05 L 82.69 34.86 C 81.16 34.76 79.57 34.97 78.05 35.21 L 77.91 34.36 Z" fill="#ffffff"/>
<path d="M 83.91 34.16 C 87.24 34.02 90.52 33.89 93.83 34.39 C 90.61 34.75 87.39 34.80 84.16 34.71 L 83.91 34.16 Z" fill="#030000"/>
<path d="M 117.97 33.99 C 119.29 33.43 121.21 33.60 121.97 34.96 C 120.73 35.36 118.68 35.26 117.97 33.99 Z" fill="#ffffff"/>
<path d="M 52.98 35.66 L 53.49 35.34 C 53.88 35.99 53.71 36.10 52.98 35.66 Z" fill="#f68b1e"/>
<path d="M 78.05 35.21 C 79.57 34.97 81.16 34.76 82.69 34.86 L 82.76 35.74 C 81.24 36.01 79.68 36.17 78.13 36.09 L 78.05 35.21 Z" fill="#02a550"/>
<path d="M 84.16 34.71 C 87.39 34.80 90.61 34.75 93.83 34.39 C 93.76 34.98 93.69 35.57 93.62 36.17 C 90.62 35.73 87.62 35.79 84.60 35.73 L 84.16 34.71 Z" fill="#ffffff"/>
<path d="M 105.99 34.41 C 109.01 34.96 113.20 33.99 115.72 35.94 C 112.65 36.27 109.59 36.33 106.51 36.43 C 106.33 35.76 106.16 35.08 105.99 34.41 Z" fill="#ffffff"/>
<path d="M 128.44 35.21 C 129.41 34.04 130.93 34.66 131.64 35.77 C 130.84 36.27 128.19 36.84 128.44 35.21 Z" fill="#ffffff"/>
<path d="M 67.44 35.54 C 67.52 36.71 67.06 37.35 66.07 37.47 C 64.16 36.44 66.21 35.52 67.44 35.54 Z" fill="#ffffff"/>
<path d="M 78.13 36.09 C 79.68 36.17 81.24 36.01 82.76 35.74 L 82.82 36.55 C 81.44 37.26 79.64 37.47 78.18 36.90 L 78.13 36.09 Z" fill="#ffffff"/>
<path d="M 84.60 35.73 C 87.62 35.79 90.62 35.73 93.62 36.17 L 93.51 37.07 C 90.68 37.10 87.90 37.15 85.07 36.99 L 84.60 35.73 Z" fill="#f68b1e"/>
<path d="M 116.72 36.04 C 118.22 35.74 119.76 35.67 121.36 35.82 C 121.62 36.29 121.69 36.78 121.58 37.29 C 119.93 37.17 118.18 36.87 116.72 36.04 Z" fill="#ffffff"/>
<path d="M 131.64 35.77 C 133.21 35.36 134.30 35.68 134.92 36.74 C 133.35 37.18 132.26 36.86 131.64 35.77 Z" fill="#030000"/>
<path d="M 49.84 37.31 L 50.42 37.18 L 50.54 37.76 L 49.96 37.88 L 49.84 37.31 Z" fill="#ffffff"/>
<path d="M 76.70 36.99 L 76.73 37.54 C 75.43 38.24 74.19 38.42 73.01 38.07 C 73.62 36.56 75.37 36.58 76.70 36.99 Z" fill="#ffffff"/>
<path d="M 78.18 36.90 C 79.64 37.47 81.44 37.26 82.82 36.55 L 82.87 37.19 C 81.71 38.71 79.54 38.90 78.20 37.50 L 78.18 36.90 Z" fill="#030000"/>
<path d="M 85.07 36.99 C 87.90 37.15 90.68 37.10 93.51 37.07 L 93.24 37.70 C 90.61 37.89 87.97 37.94 85.33 37.78 L 85.07 36.99 Z" fill="#ffffff"/>
<path d="M 106.77 37.03 C 109.84 37.08 112.90 36.86 115.95 36.51 L 115.99 38.62 C 113.06 38.25 110.13 38.11 107.19 37.97 L 106.77 37.03 Z" fill="#f68b1e"/>
<path d="M 128.10 37.00 C 129.04 36.17 132.17 37.04 130.15 38.15 C 129.08 38.19 128.40 37.81 128.10 37.00 Z" fill="#02a550"/>
<path d="M 136.24 37.15 L 136.92 36.68 L 137.68 37.03 L 137.75 37.85 L 137.07 38.32 L 136.32 37.97 L 136.24 37.15 Z" fill="#ffffff"/>
<path d="M 48.49 38.28 L 49.06 38.12 L 49.22 38.69 L 48.65 38.86 L 48.49 38.28 Z" fill="#ffffff"/>
<path d="M 65.35 38.23 C 66.01 37.63 66.82 37.53 67.79 37.93 C 67.77 39.29 65.00 40.01 65.35 38.23 Z" fill="#030000"/>
<path d="M 85.33 37.78 C 87.97 37.94 90.61 37.89 93.24 37.70 L 92.40 39.69 C 90.28 38.66 87.47 38.01 85.43 39.56 L 85.33 37.78 Z" fill="#02a550"/>
<path d="M 116.58 38.01 C 117.85 37.64 121.42 37.43 121.88 39.02 C 120.31 39.61 117.97 38.84 116.58 38.01 Z" fill="#ffffff"/>
<path d="M 132.11 37.96 C 133.42 37.42 134.35 37.78 134.88 39.02 C 133.55 39.57 132.63 39.21 132.11 37.96 Z" fill="#030000"/>
<path d="M 137.93 37.55 C 139.15 37.84 140.37 38.15 141.59 38.47 C 142.79 38.78 143.99 39.07 145.20 39.35 C 143.56 39.43 142.40 40.04 141.71 41.17 L 144.15 41.31 C 144.78 41.81 145.41 42.32 146.04 42.82 C 143.31 42.08 141.62 42.28 138.95 42.91 L 138.10 42.52 C 139.44 42.25 140.78 41.98 142.12 41.72 C 140.98 41.39 139.84 41.06 138.71 40.74 C 139.52 40.32 140.33 39.90 141.14 39.46 C 140.12 38.82 139.05 38.18 137.93 37.55 Z" fill="#030000"/>
<path d="M 56.30 39.12 L 57.00 38.68 L 57.73 39.06 L 57.77 39.88 L 57.07 40.32 L 56.33 39.94 L 56.30 39.12 Z" fill="#ffffff"/>
<path d="M 83.61 39.79 C 82.20 39.81 80.75 39.92 79.37 40.20 C 79.33 38.06 83.44 37.78 83.61 39.79 Z" fill="#f68b1e"/>
<path d="M 85.43 39.56 C 87.47 38.01 90.28 38.66 92.40 39.69 L 92.22 40.19 C 90.03 40.06 87.62 39.61 85.45 40.03 L 85.43 39.56 Z" fill="#ffffff"/>
<path d="M 107.77 39.35 C 109.38 38.39 112.49 38.39 114.04 39.53 C 111.99 40.10 110.06 39.93 107.98 39.85 L 107.77 39.35 Z" fill="#ffffff"/>
<path d="M 128.16 39.02 C 129.53 38.42 130.37 38.69 130.69 39.84 C 129.66 40.72 128.82 40.45 128.16 39.02 Z" fill="#030000"/>
<path d="M 136.24 39.14 L 136.89 38.64 L 137.65 38.98 L 137.76 39.80 L 137.11 40.30 L 136.35 39.96 L 136.24 39.14 Z" fill="#030000"/>
<path d="M 54.55 40.09 C 54.65 41.12 54.10 41.48 52.89 41.17 C 53.07 39.96 53.63 39.60 54.55 40.09 Z" fill="#ffffff"/>
<path d="M 68.15 39.80 C 67.48 40.43 66.84 41.09 66.21 41.76 C 67.45 42.19 68.70 42.60 69.96 42.98 C 68.23 43.08 66.51 43.20 64.78 43.33 C 66.36 43.76 67.96 44.13 69.56 44.49 C 66.94 45.05 64.40 45.86 61.85 46.68 C 61.58 46.13 61.40 45.54 61.12 44.99 C 59.47 45.30 58.20 45.99 56.83 46.95 C 57.89 47.19 58.96 47.39 60.03 47.60 L 56.52 48.98 C 85.42 49.17 114.35 48.94 143.26 49.10 C 142.10 48.24 140.94 47.37 139.80 46.49 L 143.85 48.13 C 143.71 46.51 143.59 44.89 143.50 43.27 C 144.69 43.77 145.88 44.28 147.06 44.79 C 147.20 46.03 147.33 47.27 147.46 48.51 C 150.15 51.18 153.18 52.78 154.59 56.52 C 156.28 57.45 157.98 58.27 159.39 59.61 C 161.83 61.83 162.17 65.13 164.82 67.20 C 168.26 70.13 169.99 73.21 171.29 77.50 C 175.13 81.13 177.34 86.75 177.28 92.01 C 181.31 96.95 182.12 103.07 181.38 109.24 C 182.04 113.23 182.82 116.91 181.99 120.98 C 181.22 124.61 182.33 127.97 181.33 131.51 C 180.76 133.70 179.49 135.75 179.22 137.97 C 178.33 146.60 174.67 155.33 168.53 161.54 C 165.66 164.31 165.19 168.49 162.41 171.45 C 160.03 174.57 156.82 176.32 153.70 178.52 C 150.16 183.22 146.64 187.13 140.30 187.35 C 129.68 195.67 116.99 198.97 103.74 200.00 L 96.03 200.00 C 82.86 198.93 70.28 195.58 59.72 187.34 C 56.71 187.04 53.98 186.36 51.62 184.37 C 48.57 182.16 47.45 178.67 44.11 176.96 C 39.58 174.29 36.32 170.59 34.26 165.75 C 33.10 162.58 30.64 160.94 28.70 158.31 C 24.49 152.73 21.85 145.94 20.98 139.02 C 20.76 135.37 18.42 132.68 18.34 129.03 C 18.30 125.97 18.51 123.02 17.92 119.99 C 17.30 116.48 17.94 113.21 18.64 109.79 C 18.07 103.36 18.51 97.18 22.77 92.01 C 22.67 86.68 24.94 81.21 28.77 77.50 C 29.64 75.14 30.30 72.90 31.81 70.84 C 33.87 67.98 36.81 66.51 38.19 63.13 C 39.64 59.81 42.31 58.07 45.47 56.58 C 46.71 52.76 49.83 51.51 52.27 48.68 L 54.26 48.47 C 53.67 48.18 53.08 47.89 52.49 47.61 C 52.90 45.95 53.21 44.27 53.66 42.62 C 55.34 41.60 57.11 41.12 58.98 40.54 L 56.50 42.34 C 57.00 42.58 57.50 42.83 58.00 43.07 C 59.34 42.54 60.68 42.01 62.03 41.50 C 61.29 42.31 60.57 43.15 59.87 43.99 C 61.59 43.84 63.33 43.40 64.88 42.61 C 64.02 42.02 63.10 41.50 62.14 41.06 C 64.17 40.73 66.16 40.30 68.15 39.80 Z" fill="#030000"/>
<path d="M 74.51 39.80 L 74.59 39.81 C 75.72 40.13 76.86 40.41 77.97 40.78 C 76.33 40.84 74.70 40.93 73.06 41.05 C 74.30 41.45 75.56 41.83 76.82 42.17 L 76.89 42.77 C 75.96 42.78 75.03 42.79 74.10 42.80 C 72.22 43.60 70.81 44.04 68.72 43.65 C 70.34 43.30 71.96 42.96 73.58 42.64 C 71.97 42.29 70.35 42.01 68.73 41.70 C 70.76 41.31 72.69 40.68 74.51 39.80 Z" fill="#030000"/>
<path d="M 79.37 40.20 C 80.75 39.92 82.20 39.81 83.61 39.79 C 83.67 40.42 83.27 41.02 82.40 41.56 C 81.38 41.18 80.35 40.91 79.30 40.75 L 79.37 40.20 Z" fill="#ffffff"/>
<path d="M 85.45 40.03 C 87.62 39.61 90.03 40.06 92.22 40.19 L 92.06 40.66 C 89.84 41.15 87.63 41.65 85.48 40.61 L 85.45 40.03 Z" fill="#02a550"/>
<path d="M 121.01 40.60 C 119.39 41.11 117.61 41.08 116.00 40.53 C 116.90 38.84 119.84 39.56 121.01 40.60 Z" fill="#ffffff"/>
<path d="M 132.41 40.21 C 133.14 40.24 133.88 40.28 134.61 40.33 C 136.01 40.84 137.24 41.18 138.10 42.52 L 136.05 41.60 C 135.44 41.99 134.84 42.39 134.24 42.81 L 137.50 43.51 L 135.04 44.34 C 136.01 45.02 137.08 45.76 138.26 46.56 C 134.64 45.52 131.07 44.39 127.39 43.57 C 127.43 42.76 127.46 41.95 127.50 41.14 C 129.84 41.32 132.11 41.79 134.41 42.24 C 133.90 41.73 133.39 41.23 132.86 40.73 L 132.41 40.21 Z" fill="#030000"/>
<path d="M 52.89 41.17 C 53.19 42.87 51.20 43.26 50.36 41.98 C 50.98 41.32 51.82 41.04 52.89 41.17 Z" fill="#030000"/>
<path d="M 79.30 40.75 C 80.35 40.91 81.38 41.18 82.40 41.56 L 82.06 42.00 C 81.11 42.40 80.15 42.23 79.19 41.48 L 79.30 40.75 Z" fill="#030000"/>
<path d="M 123.45 42.21 C 124.39 40.86 126.68 42.30 124.96 43.37 C 123.85 43.51 123.34 43.12 123.45 42.21 Z" fill="#ffffff"/>
<path d="M 55.30 43.22 C 55.75 43.68 55.75 43.68 55.30 43.22 Z" fill="#ffffff"/>
<path d="M 131.08 42.97 C 132.41 42.38 133.31 42.68 133.79 43.87 C 132.64 44.60 131.74 44.30 131.08 42.97 Z" fill="#ffffff"/>
<path d="M 57.29 44.05 L 58.06 43.56 L 58.64 44.04 C 58.71 45.27 58.27 45.58 57.32 44.97 L 57.29 44.05 Z" fill="#ffffff"/>
<path d="M 63.29 44.19 L 63.86 43.66 L 64.65 44.06 L 64.62 44.97 C 63.69 45.68 63.24 45.42 63.29 44.19 Z" fill="#ffffff"/>
<path d="M 138.28 44.14 L 138.97 43.68 L 139.72 44.03 L 139.78 44.85 L 139.09 45.31 L 138.34 44.96 L 138.28 44.14 Z" fill="#ffffff"/>
<path d="M 54.31 45.23 L 55.03 44.75 L 55.76 45.10 L 55.76 45.94 L 55.04 46.42 L 54.31 46.07 L 54.31 45.23 Z" fill="#ffffff"/>
<path d="M 144.62 45.25 L 145.27 45.24 L 145.27 45.89 L 144.63 45.90 L 144.62 45.25 Z" fill="#ffffff"/>
<path d="M 138.24 46.07 L 138.93 45.60 L 139.69 45.94 L 139.76 46.75 L 139.08 47.22 L 138.31 46.88 L 138.24 46.07 Z" fill="#030000"/>
<path d="M 52.76 51.59 C 52.86 56.43 52.85 61.27 52.78 66.11 C 50.90 63.65 48.66 60.96 47.65 58.01 C 47.13 54.90 50.61 53.07 52.76 51.59 Z" fill="#f68b1e"/>
<path d="M 147.31 51.61 C 149.57 53.13 152.85 54.78 152.40 58.02 C 151.40 60.95 149.16 63.64 147.28 66.08 C 147.23 61.26 147.22 56.44 147.31 51.61 Z" fill="#f68b1e"/>
<path d="M 45.09 59.29 C 47.12 61.13 48.43 63.76 50.12 65.91 C 51.14 67.47 52.90 69.02 52.79 70.97 C 52.93 76.50 52.80 82.06 52.78 87.60 C 47.76 81.98 43.32 75.69 40.08 68.88 C 37.74 65.21 41.51 60.30 45.09 59.29 Z" fill="#f68b1e"/>
<path d="M 154.91 59.26 C 158.53 60.27 162.32 65.22 159.96 68.88 C 156.75 75.67 152.30 81.96 147.31 87.55 C 147.21 81.49 147.25 75.43 147.29 69.38 C 150.10 66.20 152.06 62.38 154.91 59.26 Z" fill="#f68b1e"/>
<path d="M 106.16 63.68 C 105.40 66.39 103.91 68.41 104.15 71.18 C 104.38 75.46 104.70 79.72 104.82 84.00 C 104.91 87.95 105.62 91.49 104.60 95.39 C 104.16 93.83 103.77 92.26 103.35 90.70 C 103.31 92.77 103.44 94.92 103.12 96.97 C 101.06 100.68 97.54 103.70 94.73 106.85 C 94.48 105.09 94.33 103.82 95.18 102.16 C 94.70 100.25 94.30 98.39 94.31 96.40 C 93.80 96.00 93.29 95.60 92.78 95.20 C 92.75 93.25 92.71 91.30 92.66 89.35 L 91.68 89.41 C 91.55 91.83 92.24 94.64 90.52 96.58 C 91.04 100.92 89.93 104.71 89.48 108.98 C 89.29 111.06 88.84 112.74 87.88 114.62 C 84.92 107.86 83.70 100.25 82.21 93.05 C 88.16 83.58 94.77 74.59 102.51 66.49 C 103.59 65.37 104.83 64.48 106.16 63.68 Z" fill="#fff200"/>
<path d="M 37.01 67.83 C 38.66 70.27 39.87 73.06 41.38 75.62 C 44.62 81.12 48.77 86.18 52.84 91.07 C 52.80 96.68 52.83 102.30 52.82 107.91 C 44.30 99.84 36.72 90.93 31.93 80.11 C 29.62 75.98 33.87 70.35 37.01 67.83 Z" fill="#f68b1e"/>
<path d="M 131.43 67.40 C 129.98 69.61 128.00 71.57 126.80 73.92 C 126.33 80.59 126.49 87.35 126.53 94.03 C 126.64 95.36 125.74 96.03 124.99 96.98 C 120.71 101.64 116.59 106.42 112.83 111.51 C 110.21 108.29 107.63 105.03 105.00 101.81 C 105.39 101.29 105.78 100.76 106.17 100.23 C 105.45 99.58 104.72 98.93 104.00 98.27 C 111.34 88.25 118.96 78.54 127.57 69.56 C 128.74 68.29 129.73 67.80 131.43 67.40 Z" fill="#fff200"/>
<path d="M 164.71 69.28 C 167.12 72.07 170.17 76.37 168.10 80.14 C 163.39 90.84 155.69 99.92 147.25 107.88 C 147.25 102.27 147.28 96.67 147.23 91.06 C 153.03 84.26 158.34 77.22 162.16 69.10 C 162.87 67.57 163.91 68.27 164.71 69.28 Z" fill="#f68b1e"/>
<path d="M 81.16 79.27 C 82.52 82.13 82.17 85.88 82.26 89.01 C 82.35 91.35 82.00 92.47 80.56 94.39 C 80.37 89.36 80.46 84.26 81.16 79.27 Z" fill="#fff200"/>
<path d="M 29.07 79.87 C 31.48 84.07 34.46 88.42 36.12 92.94 C 34.94 95.98 32.89 98.75 31.11 101.46 C 28.64 98.11 25.55 94.17 24.73 90.02 C 25.28 86.24 26.99 83.02 29.07 79.87 Z" fill="#f68b1e"/>
<path d="M 170.95 79.87 C 173.08 83.00 174.79 86.22 175.33 90.02 C 174.50 94.18 171.42 98.13 168.91 101.46 C 167.14 98.72 165.12 95.96 163.90 92.93 C 165.63 88.40 168.56 84.10 170.95 79.87 Z" fill="#f68b1e"/>
<path d="M 73.65 82.32 C 75.79 82.17 78.01 82.36 80.15 82.49 C 80.13 83.66 80.12 84.82 80.10 85.98 C 78.02 86.09 75.89 86.25 73.81 86.08 C 73.62 84.84 73.60 83.58 73.65 82.32 Z" fill="#fff200"/>
<path d="M 139.31 87.43 C 138.31 89.70 136.90 91.41 136.86 93.98 C 136.57 100.61 135.70 107.09 133.25 113.30 C 129.25 112.29 125.28 111.68 121.17 112.46 C 117.39 113.16 114.55 115.12 111.35 117.10 C 110.98 115.88 110.61 114.65 110.26 113.42 C 108.26 110.95 107.22 108.46 106.35 105.36 C 109.13 108.05 111.54 111.01 113.71 114.21 L 113.41 111.53 C 115.68 108.24 118.92 105.56 121.58 102.57 C 126.90 96.70 132.25 91.23 139.31 87.43 Z" fill="#fff200"/>
<path d="M 23.71 94.34 C 25.75 97.51 28.32 100.54 29.89 103.96 C 28.78 107.53 27.02 110.91 25.63 114.38 C 23.58 112.33 21.06 109.77 20.40 106.85 C 20.21 102.62 20.96 97.73 23.71 94.34 Z" fill="#f68b1e"/>
<path d="M 176.31 94.37 C 179.09 97.71 179.85 102.65 179.66 106.86 C 178.99 109.77 176.49 112.34 174.43 114.39 C 173.04 110.91 171.28 107.53 170.15 103.95 C 171.72 100.55 174.30 97.54 176.31 94.37 Z" fill="#f68b1e"/>
<path d="M 37.93 95.05 C 40.24 97.35 42.62 99.79 44.33 102.58 C 45.35 104.00 43.83 105.91 43.26 107.25 C 36.73 118.52 33.64 131.08 32.74 144.00 C 32.39 149.19 32.69 154.27 32.55 159.48 C 30.42 157.40 28.78 155.20 27.44 152.54 C 23.92 145.71 21.61 138.13 23.45 130.44 C 26.04 118.13 30.43 105.26 37.93 95.05 Z" fill="#f68b1e"/>
<path d="M 162.08 95.05 C 167.82 102.51 171.44 111.85 174.21 120.78 C 176.00 127.67 178.43 134.70 176.61 141.83 C 175.08 148.14 172.28 154.96 167.46 159.47 C 167.40 154.64 167.68 149.83 167.37 145.00 C 166.61 131.86 163.43 118.66 156.78 107.21 C 156.23 105.94 154.68 103.93 155.70 102.59 C 157.44 99.82 159.79 97.38 162.08 95.05 Z" fill="#f68b1e"/>
<path d="M 79.26 99.17 C 79.26 105.21 76.85 110.83 76.56 116.89 C 77.58 113.47 78.47 110.05 79.85 106.75 C 80.09 109.22 80.22 111.69 80.28 114.17 C 80.89 113.33 81.50 112.49 82.12 111.65 C 81.71 117.66 81.85 123.67 81.57 129.66 L 79.78 130.71 C 79.66 126.42 79.91 122.16 80.11 117.88 C 78.60 118.79 77.10 119.71 75.61 120.65 C 75.44 122.98 75.32 125.24 74.37 127.41 C 74.26 125.87 74.20 124.34 74.17 122.79 C 73.91 122.29 73.65 121.79 73.39 121.30 C 74.06 120.28 74.72 119.25 75.37 118.22 C 73.72 118.99 72.11 119.82 70.53 120.71 C 72.28 112.98 74.68 105.74 79.26 99.17 Z" fill="#fff200"/>
<path d="M 103.22 100.54 C 102.52 105.21 101.25 109.76 99.64 114.19 C 98.88 112.54 98.22 110.88 97.18 109.39 C 97.91 112.96 99.30 116.43 100.36 119.93 C 99.15 119.25 97.93 118.57 96.70 117.91 C 96.30 115.39 95.93 112.88 95.21 110.42 C 95.14 113.55 95.50 116.62 95.85 119.72 L 94.29 119.82 C 93.99 115.60 93.82 111.27 93.16 107.10 C 94.49 108.31 94.67 109.71 96.49 107.80 C 98.60 105.08 100.09 102.27 103.22 100.54 Z" fill="#fff200"/>
<path d="M 91.43 102.63 C 92.14 108.46 91.41 114.45 91.40 120.33 C 91.89 120.94 92.39 121.55 92.89 122.17 C 92.64 124.22 92.60 125.92 91.17 127.54 C 90.99 126.02 90.83 124.50 90.68 122.97 C 88.21 124.99 85.86 127.14 83.39 129.16 C 84.70 123.40 87.51 118.36 90.86 113.56 C 90.56 113.00 90.25 112.45 89.95 111.89 C 90.29 108.74 90.52 105.68 91.43 102.63 Z" fill="#fff200"/>
<path d="M 82.67 103.37 C 84.60 106.86 85.35 110.49 86.58 114.23 C 85.28 114.94 83.97 115.65 82.67 116.35 C 82.55 111.99 82.39 107.72 82.67 103.37 Z" fill="#fff200"/>
<path d="M 47.82 106.21 C 49.66 107.46 51.56 109.13 52.68 111.08 C 53.04 115.11 53.28 119.75 51.52 123.48 C 46.96 134.29 44.89 146.32 44.61 158.00 C 44.41 163.86 45.32 169.60 45.37 175.44 C 41.69 173.18 38.66 170.19 36.69 166.31 C 34.38 162.09 34.69 156.69 34.62 152.00 C 34.46 136.88 37.37 122.00 44.72 108.70 C 45.65 107.44 45.88 105.84 47.82 106.21 Z" fill="#f68b1e"/>
<path d="M 153.65 106.26 C 155.65 108.72 156.98 111.83 158.30 114.70 C 164.61 128.85 166.22 144.68 165.16 160.02 C 164.62 166.63 160.16 172.07 154.67 175.45 C 154.71 169.94 155.55 164.51 155.45 159.00 C 155.33 148.93 153.83 138.79 150.70 129.21 C 149.77 126.29 148.40 123.52 147.54 120.59 C 147.01 117.79 147.13 114.81 147.29 111.97 C 147.28 110.39 148.49 109.53 149.47 108.46 C 150.71 107.45 151.84 105.77 153.65 106.26 Z" fill="#f68b1e"/>
<path d="M 104.93 106.38 C 106.44 108.47 107.58 110.73 108.63 113.08 C 107.38 113.53 106.14 113.97 104.89 114.42 C 104.81 111.74 104.80 109.06 104.93 106.38 Z" fill="#fff200"/>
<path d="M 102.87 108.31 C 103.19 110.49 102.79 113.24 103.96 115.16 C 104.96 116.86 104.87 119.18 105.28 121.12 C 106.89 119.18 108.14 117.02 109.48 114.89 C 109.87 115.81 110.19 116.74 110.45 117.69 C 109.06 119.45 107.52 121.10 106.04 122.79 C 105.06 122.53 104.09 122.29 103.10 122.06 C 103.12 119.86 103.14 117.66 103.17 115.46 C 102.15 115.92 101.13 116.39 100.11 116.85 C 100.69 113.89 101.48 111.02 102.87 108.31 Z" fill="#fff200"/>
<path d="M 20.09 111.80 C 21.68 113.36 23.44 114.97 24.54 116.94 C 24.34 119.69 23.21 122.49 22.18 125.03 C 19.08 120.97 19.30 116.60 20.09 111.80 Z" fill="#f68b1e"/>
<path d="M 60.59 111.08 C 63.34 112.76 62.96 115.97 64.26 118.76 C 66.31 123.53 70.35 126.08 75.03 127.87 C 77.27 128.60 78.45 130.30 80.16 131.74 C 81.73 131.95 83.37 131.79 84.95 131.70 C 93.67 131.02 102.25 131.01 111.00 130.89 C 113.66 131.22 115.77 129.93 116.55 133.32 C 106.36 133.03 96.18 133.32 86.00 133.20 C 78.24 133.08 70.70 131.53 64.72 126.28 C 60.54 122.60 60.05 116.26 60.59 111.08 Z" fill="#ce2c1e"/>
<path d="M 179.95 111.80 C 180.73 116.60 180.97 120.96 177.86 125.03 C 176.85 122.49 175.73 119.69 175.51 116.94 C 176.61 114.99 178.36 113.36 179.95 111.80 Z" fill="#f68b1e"/>
<path d="M 120.03 116.09 C 121.74 116.62 123.33 117.40 125.06 117.91 C 127.64 117.64 130.16 116.39 132.69 115.75 C 133.31 118.45 133.82 121.14 134.22 123.88 C 128.77 124.08 123.34 124.07 117.89 123.90 C 118.00 121.65 117.44 117.14 120.03 116.09 Z" fill="#030000"/>
<path d="M 119.85 119.29 C 120.85 119.11 121.74 119.22 122.53 119.62 C 122.04 120.77 121.39 121.70 120.56 122.40 C 119.15 122.67 119.11 119.98 119.85 119.29 Z" fill="#f68b1e"/>
<path d="M 129.28 119.61 C 130.14 119.16 131.10 119.04 132.17 119.25 C 132.72 120.16 132.72 121.26 132.15 122.57 C 131.12 121.80 129.74 120.86 129.28 119.61 Z" fill="#f68b1e"/>
<path d="M 116.23 120.36 C 116.09 121.84 115.94 123.32 115.79 124.80 C 112.59 124.99 109.39 125.11 106.18 125.00 C 108.96 122.03 112.40 121.18 116.23 120.36 Z" fill="#ce2c1e"/>
<path d="M 123.80 124.91 C 123.92 126.24 124.04 127.57 124.16 128.91 C 121.74 128.93 119.31 128.97 116.89 129.02 C 116.95 127.96 117.03 126.91 117.11 125.86 C 119.32 125.36 121.55 125.13 123.80 124.91 Z" fill="#ce2c1e"/>
<path d="M 133.78 124.83 C 133.75 126.06 133.73 127.29 133.70 128.51 C 131.44 128.70 129.18 128.89 126.91 129.09 C 126.53 128.06 126.14 127.03 125.76 125.99 C 128.43 125.59 131.10 125.19 133.78 124.83 Z" fill="#ce2c1e"/>
<path d="M 20.25 125.55 C 22.66 127.48 21.98 129.14 20.57 131.44 C 20.36 129.47 20.26 127.52 20.25 125.55 Z" fill="#f68b1e"/>
<path d="M 52.61 125.97 C 53.16 130.80 53.43 135.35 55.03 139.99 C 55.79 142.40 57.01 144.68 57.62 147.13 C 57.38 151.11 56.29 155.00 56.07 159.00 C 55.18 167.77 56.27 176.30 57.36 184.98 C 53.49 183.77 50.27 181.22 48.52 177.53 C 47.46 174.93 47.39 171.77 47.11 169.00 C 45.72 154.50 47.65 139.66 52.61 125.97 Z" fill="#f68b1e"/>
<path d="M 98.11 126.13 C 100.22 126.04 102.38 126.23 104.49 126.37 C 104.92 127.34 105.35 128.31 105.77 129.28 C 106.92 128.19 107.40 125.00 109.29 126.80 L 109.36 129.23 C 105.55 129.88 101.59 129.82 97.74 129.76 C 97.81 128.54 97.93 127.33 98.11 126.13 Z" fill="#ce2c1e"/>
<path d="M 115.75 126.03 C 115.75 127.14 115.76 128.25 115.77 129.36 C 115.11 128.51 114.46 127.66 113.82 126.81 C 113.16 127.98 112.49 129.14 111.83 130.30 C 110.97 129.12 110.58 127.95 110.64 126.79 C 112.28 126.28 114.03 126.20 115.75 126.03 Z" fill="#ce2c1e"/>
<path d="M 135.40 125.62 C 138.84 125.86 141.85 126.44 144.97 127.93 C 144.88 129.54 144.80 131.14 144.72 132.74 C 141.33 131.47 138.36 131.04 134.72 131.06 C 134.96 129.25 135.18 127.43 135.40 125.62 Z" fill="#ffffff"/>
<path d="M 147.43 125.98 C 153.17 141.56 154.65 158.43 152.30 174.82 C 151.56 179.73 147.29 183.60 142.67 184.97 C 144.67 172.25 145.02 159.65 142.23 147.00 C 145.55 140.33 146.93 133.37 147.43 125.98 Z" fill="#f68b1e"/>
<path d="M 179.77 125.52 C 179.77 127.51 179.68 129.47 179.48 131.44 C 178.11 129.15 177.42 127.48 179.77 125.52 Z" fill="#f68b1e"/>
<path d="M 94.58 126.65 C 94.63 127.72 94.67 128.79 94.71 129.86 C 93.41 129.85 92.11 129.83 90.80 129.81 C 92.05 128.74 93.31 127.69 94.58 126.65 Z" fill="#ce2c1e"/>
<path d="M 100.26 127.26 C 101.46 126.03 103.66 127.15 102.72 128.83 C 101.51 130.05 99.29 128.95 100.26 127.26 Z" fill="#030000"/>
<path d="M 62.39 127.35 C 63.41 128.84 64.43 130.34 65.45 131.82 C 62.09 132.53 58.86 133.50 55.63 134.67 C 55.61 133.19 54.93 131.13 55.44 129.71 C 57.65 128.71 60.08 128.08 62.39 127.35 Z" fill="#ffffff"/>
<path d="M 65.26 129.00 C 68.35 130.32 70.92 131.94 74.05 132.93 C 78.81 134.43 84.04 134.67 89.00 134.70 C 96.66 134.74 104.35 134.51 112.00 134.71 C 114.24 134.88 116.18 134.55 117.89 136.32 C 109.27 136.66 100.63 136.29 92.00 136.64 C 83.82 136.95 75.86 136.37 68.49 132.50 C 66.97 131.69 66.21 130.36 65.26 129.00 Z" fill="#ce2c1e"/>
<path d="M 123.98 130.15 C 124.00 131.24 124.01 132.32 124.02 133.40 C 122.03 133.43 120.04 133.47 118.05 133.52 C 117.70 132.63 117.35 131.73 117.01 130.82 C 119.31 130.36 121.64 130.23 123.98 130.15 Z" fill="#ce2c1e"/>
<path d="M 127.49 130.47 C 129.39 130.14 131.35 130.00 133.27 129.83 C 133.14 130.86 133.01 131.89 132.88 132.92 C 131.27 132.92 129.66 132.93 128.05 132.88 C 127.83 132.09 127.65 131.28 127.49 130.47 Z" fill="#ce2c1e"/>
<path d="M 66.61 133.28 C 68.34 134.79 69.92 136.40 71.54 138.03 C 66.71 138.36 62.10 139.08 57.52 140.70 C 57.01 139.20 56.49 137.69 55.98 136.19 C 59.44 134.89 62.93 133.76 66.61 133.28 Z" fill="#02a550"/>
<path d="M 134.78 132.46 C 137.70 132.63 141.23 132.74 143.82 134.23 C 144.39 135.55 143.50 137.36 143.30 138.75 C 139.53 137.94 135.83 137.74 131.98 137.88 C 132.90 136.06 133.78 134.24 134.78 132.46 Z" fill="#02a550"/>
<path d="M 132.37 133.96 C 131.67 135.29 131.08 136.92 129.99 137.99 C 128.80 138.76 127.18 138.91 125.84 139.29 C 126.48 137.85 127.09 136.29 127.98 134.98 C 129.19 134.22 131.00 134.29 132.37 133.96 Z" fill="#ce2c1e"/>
<path d="M 70.93 135.33 C 75.94 136.67 80.73 138.19 86.00 138.09 C 94.67 137.96 103.33 138.11 112.00 137.85 C 115.19 138.10 118.30 137.08 120.55 139.85 C 114.64 139.77 108.94 138.46 103.00 138.73 C 98.57 138.77 94.34 139.71 90.00 140.49 C 83.37 141.67 75.97 139.92 70.93 135.33 Z" fill="#ce2c1e"/>
<path d="M 118.29 135.00 C 120.25 134.93 122.21 134.88 124.16 134.85 C 124.18 136.49 124.19 138.13 124.19 139.76 C 121.33 138.63 120.03 137.50 118.29 135.00 Z" fill="#ce2c1e"/>
<path d="M 142.83 140.39 C 142.21 141.86 141.60 143.33 140.98 144.80 C 132.34 143.56 124.55 147.29 116.00 146.31 C 110.96 145.76 106.10 144.91 100.99 145.44 C 94.93 145.74 89.80 147.98 83.99 147.39 C 79.50 147.01 75.53 145.25 71.00 145.13 C 67.20 144.94 63.54 145.66 59.88 146.57 C 59.24 145.07 58.60 143.57 57.98 142.06 C 62.67 140.68 67.05 139.45 72.01 139.95 C 77.51 140.57 82.22 142.76 88.00 142.26 C 92.71 141.70 97.21 140.31 102.00 140.20 C 107.08 139.86 111.98 140.69 117.00 141.20 C 126.23 142.01 133.77 137.39 142.83 140.39 Z" fill="#ffffff"/>
<path d="M 140.25 146.19 C 139.28 147.88 138.28 149.54 137.26 151.19 C 132.10 151.40 127.11 152.56 122.00 153.03 C 115.18 153.67 108.86 151.50 102.01 152.07 C 96.58 152.30 91.39 154.09 86.00 154.20 C 79.98 154.26 75.07 151.41 69.01 151.90 C 67.17 151.87 65.02 152.38 63.27 151.83 C 62.29 150.64 61.48 149.25 60.68 147.94 C 64.12 147.15 67.44 146.48 71.00 146.69 C 76.21 146.95 80.71 149.05 86.00 149.09 C 90.69 149.07 95.24 147.44 99.99 147.08 C 105.07 146.50 110.01 147.12 115.04 147.76 C 123.68 149.00 131.52 145.39 140.25 146.19 Z" fill="#02a550"/>
<path d="M 59.28 150.15 C 63.52 155.84 67.92 161.16 73.96 165.05 C 89.57 175.59 111.18 175.46 126.64 164.68 C 132.44 160.86 136.60 155.67 140.76 150.22 C 140.99 153.83 143.45 159.16 139.54 161.51 C 128.28 168.93 114.57 173.77 101.00 173.77 C 86.75 174.19 72.31 169.28 60.48 161.50 C 56.61 159.19 59.08 153.71 59.28 150.15 Z" fill="#f68b1e"/>
<path d="M 64.94 153.70 C 71.07 152.45 76.29 154.31 82.17 155.44 C 89.00 156.71 94.28 154.08 100.99 153.72 C 106.07 153.24 110.96 154.01 115.98 154.57 C 123.00 155.32 128.89 153.27 136.11 152.74 C 134.18 154.92 132.23 158.71 128.99 158.86 C 123.06 160.06 117.49 160.21 111.50 159.26 C 105.11 158.23 98.74 158.84 92.46 160.22 C 87.89 161.20 83.51 161.13 78.97 159.98 C 75.71 159.12 72.50 158.54 69.11 158.57 C 67.54 157.03 65.99 155.68 64.94 153.70 Z" fill="#ffffff"/>
<path d="M 70.91 160.08 C 77.03 160.57 81.97 162.98 88.00 162.42 C 92.70 161.94 97.21 160.59 101.97 160.37 C 106.39 160.04 110.63 160.72 115.00 161.21 C 119.50 161.71 123.75 161.16 128.24 160.90 C 125.42 163.04 122.25 165.61 118.81 166.58 C 115.24 166.80 111.59 165.79 108.00 165.62 C 102.19 165.17 96.56 166.05 90.88 167.15 C 91.10 167.72 91.32 168.28 91.55 168.85 L 89.59 169.80 L 88.97 170.00 C 89.36 169.23 89.76 168.46 90.15 167.69 C 87.12 167.68 84.04 168.09 81.23 166.78 C 77.48 165.13 73.93 162.84 70.91 160.08 Z" fill="#02a550"/>
<path d="M 58.29 164.26 C 60.28 163.36 61.60 164.83 63.35 165.63 C 74.39 172.06 87.17 175.96 100.00 175.88 C 111.89 175.96 123.63 172.66 134.08 167.07 C 136.28 166.23 139.37 163.16 141.71 164.27 C 142.78 167.59 141.95 171.60 141.83 175.04 L 139.01 174.45 C 138.80 175.18 138.66 175.93 138.50 176.67 C 139.69 176.32 140.89 175.97 142.08 175.62 C 141.13 176.87 140.36 178.13 139.01 178.99 C 117.61 192.67 89.32 193.77 66.73 182.27 C 64.06 180.82 60.94 179.38 58.87 177.11 C 57.70 173.42 57.50 168.05 58.29 164.26 Z" fill="#f68b1e"/>
<path d="M 115.29 168.19 C 106.99 171.29 98.22 171.37 89.59 169.80 L 91.55 168.85 C 99.11 166.60 107.59 166.58 115.29 168.19 Z" fill="#ffffff"/>
<path d="M 67.98 169.81 C 69.67 170.89 72.00 171.82 72.44 174.00 C 72.08 176.22 70.30 176.67 68.70 177.87 C 68.94 179.22 69.18 180.57 69.41 181.92 C 67.46 180.65 67.27 179.43 66.74 177.33 C 65.66 178.09 64.56 178.82 63.46 179.55 C 64.46 176.06 66.04 172.86 67.98 169.81 Z" fill="#030000"/>
<path d="M 133.67 171.63 C 132.31 172.19 130.60 172.45 129.41 173.36 C 127.49 175.23 129.35 178.80 131.87 178.74 C 133.61 178.03 135.23 177.02 136.91 176.19 C 135.88 178.54 134.77 180.41 132.00 180.59 C 128.21 180.88 125.44 176.53 127.19 173.19 C 128.32 171.10 131.89 169.16 133.67 171.63 Z" fill="#030000"/>
<path d="M 68.21 173.25 C 70.05 171.93 70.97 174.81 68.96 175.28 C 67.85 175.00 67.60 174.32 68.21 173.25 Z" fill="#f68b1e"/>
<path d="M 112.71 177.39 C 112.71 177.92 112.71 178.45 112.71 178.98 C 111.30 179.52 110.03 180.25 108.89 181.17 C 110.65 181.45 112.41 181.71 114.17 181.97 C 112.89 182.59 111.60 183.20 110.31 183.80 C 110.30 185.40 110.27 187.00 110.20 188.60 C 107.55 186.42 108.05 181.55 107.21 178.44 C 109.04 178.08 110.87 177.73 112.71 177.39 Z" fill="#030000"/>
<path d="M 89.13 177.74 L 90.03 177.71 C 91.61 181.05 92.18 184.95 92.82 188.57 C 91.66 187.58 90.54 186.56 89.44 185.51 C 88.71 185.40 87.98 185.29 87.25 185.19 C 86.17 185.94 85.10 186.64 83.87 187.11 C 84.88 183.69 86.94 180.53 89.13 177.74 Z" fill="#030000"/>
<path d="M 59.26 181.22 C 62.50 181.86 65.54 184.03 68.59 185.40 C 88.03 194.39 111.21 194.51 130.75 185.73 C 134.17 184.15 137.32 182.18 140.95 181.04 C 140.55 182.93 140.49 184.54 138.80 185.78 C 130.55 192.57 119.32 196.15 108.83 197.37 C 93.61 198.97 76.98 196.59 64.07 187.92 C 61.60 186.05 58.95 184.80 59.26 181.22 Z" fill="#f68b1e"/>
<path d="M 73.13 181.17 C 74.40 179.87 76.28 181.20 75.43 182.82 C 74.20 184.23 72.15 182.82 73.13 181.17 Z" fill="#030000"/>
<path d="M 88.20 181.43 C 89.87 180.47 91.14 182.43 89.80 183.70 C 88.12 184.64 86.80 182.72 88.20 181.43 Z" fill="#f68b1e"/>
<path d="M 118.05 183.27 C 119.64 182.41 121.15 184.27 119.76 185.55 C 118.15 186.45 116.70 184.57 118.05 183.27 Z" fill="#030000"/>
<path d="M 94.51 186.10 C 95.71 184.70 97.88 186.00 96.84 187.68 C 95.59 188.97 93.68 187.75 94.51 186.10 Z" fill="#030000"/>
</svg>
