<?xml version="1.0" encoding="UTF-8" standalone="no"?>
<!DOCTYPE svg PUBLIC "-//W3C//DTD SVG 1.1//EN" "http://www.w3.org/Graphics/SVG/1.1/DTD/svg11.dtd">
<svg xmlns="http://www.w3.org/2000/svg" version="1.1" viewBox="0 0 200 200" width="200.0pt" height="200.0pt">
<path d="M 0.00 0.00 L 200.00 0.00 L 200.00 200.00 L 0.00 200.00 L 0.00 0.00 Z" fill="none"/>
<path d="M 98.00 0.65 C 103.79 -0.56 109.26 1.01 114.74 2.74 C 114.75 4.76 114.77 6.77 114.80 8.79 C 108.36 5.97 100.44 4.45 94.02 8.11 C 90.83 9.91 89.69 14.11 91.75 17.19 C 93.73 19.85 96.80 20.85 99.97 21.29 C 105.35 22.11 110.18 20.47 115.06 18.44 C 115.02 20.50 114.99 22.56 114.94 24.62 C 105.45 28.29 93.48 28.37 85.25 21.77 C 81.13 18.55 79.98 12.38 83.14 8.11 C 86.66 3.32 92.41 1.65 98.00 0.65 Z" fill="#008863"/>
<path d="M 128.41 4.50 C 133.71 6.18 139.02 7.89 144.27 9.71 C 147.56 10.89 150.60 12.81 151.72 16.31 C 152.88 19.72 150.67 23.35 147.25 24.22 C 142.00 25.65 136.76 23.35 131.82 21.81 C 130.79 24.91 129.81 28.02 128.84 31.13 C 126.19 30.25 123.53 29.39 120.86 28.57 C 123.13 21.58 125.34 14.58 127.50 7.56 C 127.81 6.54 128.11 5.52 128.41 4.50 Z" fill="#008863"/>
<path d="M 69.22 6.08 C 69.99 7.68 70.76 9.29 71.53 10.89 C 67.31 11.32 61.69 11.53 58.20 14.20 C 56.90 15.10 56.04 17.22 58.17 17.68 C 63.74 17.83 71.22 15.24 76.21 18.76 C 79.48 21.51 77.91 25.81 75.49 28.53 C 70.38 34.01 63.28 34.97 56.24 35.90 C 55.34 34.21 54.44 32.51 53.54 30.82 C 60.07 30.18 66.42 30.85 70.75 24.94 C 64.19 21.62 58.23 26.89 51.37 23.77 C 48.04 21.70 46.99 18.59 49.16 15.14 C 53.28 8.83 62.35 7.19 69.22 6.08 Z" fill="#008863"/>
<path d="M 135.17 11.80 C 137.85 12.35 140.89 13.19 143.02 14.97 C 144.27 16.24 144.65 17.98 142.70 18.79 C 139.77 19.73 135.98 18.17 133.12 17.37 C 133.76 15.52 134.35 13.58 135.17 11.80 Z" fill="#ffffff"/>
<path d="M 116.53 36.67 C 126.58 39.01 134.21 45.48 144.07 48.00 C 150.09 49.63 156.71 49.90 162.94 50.27 C 168.30 63.49 171.21 76.61 172.06 90.85 C 161.13 90.89 150.20 90.87 139.27 90.87 C 139.82 94.14 140.35 97.41 140.78 100.69 C 151.36 100.67 161.94 100.68 172.52 100.69 C 172.51 104.01 172.44 107.33 172.32 110.65 C 161.96 110.63 151.59 110.64 141.23 110.64 C 140.94 113.91 140.63 117.17 140.25 120.43 C 150.60 120.41 160.94 120.42 171.29 120.42 C 170.59 123.72 169.86 127.01 169.10 130.30 C 158.51 130.31 147.93 130.30 137.34 130.30 C 135.74 133.69 133.96 136.93 132.00 140.13 C 143.26 140.11 154.54 140.11 165.80 140.13 C 162.31 148.40 157.87 156.20 152.19 163.17 C 139.24 179.21 121.46 190.34 102.16 197.19 C 100.35 197.92 98.93 197.59 97.16 196.95 C 84.82 192.42 73.21 186.34 62.93 178.10 C 50.20 168.00 40.45 155.14 34.24 140.12 C 45.51 140.12 56.77 140.11 68.04 140.13 C 66.10 136.93 64.32 133.68 62.71 130.31 C 52.12 130.29 41.53 130.32 30.95 130.29 C 30.19 127.01 29.48 123.73 28.80 120.44 C 39.13 120.40 49.46 120.42 59.79 120.43 C 59.41 117.17 59.12 113.92 58.90 110.65 C 48.50 110.63 38.11 110.64 27.71 110.65 C 27.60 107.33 27.52 104.01 27.51 100.69 C 38.10 100.69 48.68 100.67 59.26 100.70 C 59.69 97.41 60.22 94.14 60.79 90.87 C 49.85 90.87 38.92 90.88 27.99 90.86 C 28.83 76.68 31.77 63.43 37.12 50.27 C 43.09 49.89 49.24 49.67 55.03 48.24 C 65.35 45.87 73.27 39.01 83.76 36.60 C 94.00 34.21 106.30 34.22 116.53 36.67 Z" fill="#008863"/>
<path d="M 98.60 47.41 C 101.83 49.62 99.52 52.12 98.03 54.49 C 99.51 56.17 100.94 57.89 102.35 59.63 C 100.80 59.75 99.25 59.86 97.70 59.96 C 95.86 57.76 94.05 56.01 91.35 54.86 C 91.35 56.76 91.39 58.65 91.44 60.55 C 90.12 60.67 88.80 60.79 87.48 60.92 C 87.06 56.42 86.64 51.92 86.25 47.42 C 90.06 47.23 95.03 45.86 98.60 47.41 Z" fill="#ffffff"/>
<path d="M 101.76 46.09 C 106.66 46.53 111.54 47.08 116.42 47.60 L 116.13 50.43 C 114.34 50.29 112.55 50.15 110.76 50.02 C 110.43 53.52 110.07 57.02 109.71 60.51 C 108.36 60.38 107.00 60.25 105.65 60.12 C 106.06 56.58 106.45 53.04 106.84 49.50 C 105.08 49.33 103.32 49.15 101.56 48.98 L 101.76 46.09 Z" fill="#ffffff"/>
<path d="M 90.95 49.53 C 92.65 49.29 94.30 49.37 95.92 49.96 C 96.12 53.30 92.70 52.57 90.47 53.22 C 90.58 51.99 90.74 50.76 90.95 49.53 Z" fill="#00825b"/>
<path d="M 119.88 48.77 C 121.18 49.15 122.47 49.54 123.77 49.92 C 122.53 54.24 121.30 58.56 120.07 62.88 C 118.76 62.56 117.44 62.24 116.13 61.91 C 117.33 57.51 118.61 53.14 119.88 48.77 Z" fill="#ffffff"/>
<path d="M 73.45 50.57 C 77.96 48.66 83.07 49.77 84.33 54.96 C 85.84 60.91 78.98 64.66 73.99 64.77 C 69.81 64.89 66.84 61.04 67.28 57.04 C 67.65 53.86 70.68 51.65 73.45 50.57 Z" fill="#ffffff"/>
<path d="M 128.93 52.13 C 130.13 52.54 131.28 53.06 132.42 53.61 C 133.76 57.29 134.79 61.08 135.94 64.82 C 137.43 62.51 138.92 60.20 140.43 57.90 C 141.58 58.57 142.73 59.23 143.88 59.89 C 141.30 63.90 138.80 67.95 136.14 71.90 C 131.92 68.28 131.91 63.53 130.11 58.56 C 129.00 60.99 127.92 63.42 126.83 65.86 C 125.63 65.34 124.43 64.83 123.23 64.31 C 125.18 60.29 126.73 56.02 128.93 52.13 Z" fill="#ffffff"/>
<path d="M 74.17 53.14 C 77.35 51.66 79.72 53.99 80.29 57.00 C 80.97 60.86 75.12 63.50 72.75 60.31 C 70.76 57.73 70.92 54.47 74.17 53.14 Z" fill="#008863"/>
<path d="M 60.98 57.55 C 63.76 56.75 66.11 59.27 65.86 61.96 C 65.65 64.72 62.60 67.02 60.78 68.86 C 61.71 69.92 62.64 70.97 63.57 72.03 C 62.46 72.93 61.36 73.82 60.26 74.72 C 57.36 71.27 54.48 67.80 51.57 64.36 C 54.47 62.04 57.43 58.75 60.98 57.55 Z" fill="#ffffff"/>
<path d="M 62.35 62.94 C 61.40 64.37 60.27 65.62 59.14 66.91 C 58.18 65.75 57.23 64.59 56.28 63.43 C 58.42 62.43 60.84 59.36 62.35 62.94 Z" fill="#00855f"/>
<path d="M 149.78 66.24 C 153.06 67.76 156.48 72.35 156.92 75.93 C 156.36 76.90 155.66 77.80 155.00 78.70 C 153.92 75.80 153.49 72.14 150.64 70.34 C 147.89 68.19 143.92 70.70 143.84 73.95 C 144.42 75.94 145.58 77.80 146.60 79.61 L 148.74 78.12 L 147.37 76.05 L 149.42 74.55 C 150.64 76.42 151.87 78.29 153.10 80.15 C 151.45 81.39 149.80 82.61 148.15 83.84 C 144.76 80.63 140.44 77.06 140.37 71.98 C 140.35 67.41 145.71 64.14 149.78 66.24 Z" fill="#ffffff"/>
<path d="M 47.87 67.63 C 48.66 68.17 49.44 68.73 50.22 69.29 C 47.70 71.74 45.09 73.34 45.19 77.27 C 47.68 75.49 49.86 73.06 52.55 71.59 C 54.94 70.49 57.33 72.50 57.27 74.99 C 56.96 79.27 53.72 82.35 50.92 85.25 C 49.94 84.67 48.97 84.10 47.99 83.52 C 50.99 81.06 54.04 79.56 53.88 75.14 C 51.42 76.81 49.34 79.13 46.75 80.59 C 44.48 81.56 42.38 80.40 41.84 78.03 C 41.71 73.89 45.09 70.32 47.87 67.63 Z" fill="#ffffff"/>
<path d="M 92.03 73.42 C 97.16 72.35 102.84 72.35 107.98 73.41 C 113.62 74.57 117.76 78.00 123.20 79.49 C 126.68 80.43 130.15 80.54 133.72 80.75 C 137.05 88.84 138.67 97.27 138.94 106.01 C 139.63 118.20 136.64 130.38 129.23 140.21 C 121.79 150.06 111.48 156.13 100.04 160.29 C 91.12 157.01 82.83 152.73 75.98 146.03 C 67.74 138.16 62.53 127.34 61.39 116.02 C 60.37 104.04 61.72 91.92 66.32 80.76 C 70.55 80.50 74.85 80.37 78.86 78.85 C 83.43 77.11 87.11 74.45 92.03 73.42 Z" fill="#ffffff"/>
<path d="M 92.19 75.53 C 97.29 74.39 102.71 74.42 107.81 75.51 C 113.06 76.71 117.17 79.94 122.47 81.46 C 125.74 82.41 128.93 82.54 132.31 82.83 C 135.68 91.62 137.06 100.60 136.87 110.00 C 136.96 120.03 134.05 129.98 128.15 138.13 C 121.16 147.86 111.17 154.06 100.03 158.07 C 91.65 154.99 83.86 150.87 77.44 144.56 C 69.61 137.01 64.64 126.85 63.50 116.03 C 62.47 104.79 63.67 93.40 67.73 82.83 C 71.09 82.54 74.28 82.41 77.55 81.48 C 82.71 80.00 86.88 76.76 92.19 75.53 Z" fill="#008863"/>
<path d="M 101.92 82.09 C 103.96 82.27 105.99 82.57 108.01 82.82 C 107.22 83.37 106.43 83.92 105.64 84.47 C 107.81 84.71 109.98 84.97 112.14 85.29 C 110.82 85.65 109.50 86.00 108.18 86.34 C 107.72 86.61 107.25 86.89 106.79 87.16 C 108.30 87.48 110.07 87.52 111.45 88.25 C 112.18 89.56 112.88 90.90 113.54 92.26 C 111.64 91.36 109.75 90.46 107.83 89.62 C 109.06 91.06 110.81 92.38 111.65 94.09 C 112.06 95.66 112.40 97.25 112.68 98.86 C 111.54 97.34 110.43 95.80 109.34 94.26 C 108.65 94.41 107.96 94.56 107.28 94.71 C 111.38 97.80 110.19 101.47 110.52 106.02 C 109.17 103.41 107.97 100.73 106.78 98.05 C 106.71 101.42 106.41 104.77 106.05 108.12 L 108.35 106.65 C 108.59 109.92 108.49 112.92 110.05 115.90 C 111.21 118.20 113.18 121.55 116.04 121.81 C 118.34 122.12 120.51 120.39 120.42 118.03 C 119.84 112.86 115.35 108.26 114.56 103.02 C 114.27 100.81 114.86 98.11 116.52 96.53 C 120.15 93.87 123.95 93.21 128.28 94.56 C 127.55 95.99 126.82 97.42 126.11 98.85 C 124.73 98.99 123.37 99.14 121.98 99.16 C 120.97 98.10 120.17 96.77 119.34 95.56 C 117.85 97.20 115.81 98.53 115.86 100.98 C 115.70 106.47 121.03 111.27 122.52 116.22 C 123.19 118.82 121.83 120.69 120.76 122.91 C 120.60 123.57 120.45 124.23 120.29 124.89 C 118.51 125.24 116.73 125.59 114.96 125.97 C 116.92 126.77 118.90 127.17 121.00 127.47 C 118.36 129.51 115.85 131.62 113.80 134.26 C 115.89 133.41 117.95 132.51 120.04 131.66 C 118.36 134.91 115.51 136.34 112.61 138.25 C 113.54 138.64 114.47 139.03 115.40 139.41 C 114.17 140.46 112.80 141.46 111.75 142.70 C 111.23 144.39 111.46 146.35 111.39 148.11 C 110.51 148.49 109.63 148.87 108.76 149.26 C 108.73 148.34 108.70 147.43 108.67 146.51 C 106.91 147.36 105.12 148.16 103.31 148.93 C 103.99 147.55 104.67 146.17 105.37 144.81 C 103.88 144.73 102.39 144.63 100.90 144.52 C 102.88 142.81 104.80 142.81 107.29 142.68 C 108.76 140.54 111.30 138.20 109.96 135.39 C 108.67 135.26 107.38 135.24 106.08 135.21 C 106.19 133.67 106.32 132.13 106.49 130.60 C 105.99 128.01 105.55 125.42 105.08 122.84 C 104.40 125.65 104.11 127.54 105.29 130.33 C 104.78 130.68 104.28 131.03 103.77 131.38 C 103.36 129.92 103.04 128.45 102.81 126.97 C 103.20 124.91 104.27 122.94 104.87 120.91 C 104.07 119.82 103.06 118.88 102.16 117.86 C 103.64 117.40 105.13 116.92 106.60 116.44 C 104.14 116.32 101.67 116.24 99.20 116.11 C 100.84 115.29 102.49 114.47 104.13 113.64 C 101.22 114.16 98.32 114.53 95.36 114.65 C 97.21 115.40 99.04 116.21 100.86 117.02 C 100.07 117.45 99.28 117.88 98.49 118.32 C 96.26 116.56 94.31 115.49 93.88 112.41 C 91.43 111.24 88.99 110.30 86.39 109.53 C 87.93 111.03 89.49 112.52 91.02 114.03 C 87.92 113.37 84.87 112.50 81.80 111.70 C 82.65 112.52 83.51 113.34 84.37 114.16 C 79.34 112.66 75.67 114.65 71.15 116.42 C 72.13 115.02 73.12 113.63 74.13 112.25 L 69.45 112.92 C 71.01 112.00 72.60 111.13 74.21 110.29 C 73.13 109.69 72.07 109.07 71.01 108.44 C 73.78 108.57 76.34 109.50 79.04 109.99 C 81.83 109.63 84.29 107.29 86.99 106.47 C 88.87 105.92 90.84 105.64 92.75 105.25 C 92.59 106.25 92.43 107.25 92.24 108.24 C 94.44 107.56 96.65 106.91 98.85 106.22 C 98.58 107.31 98.29 108.38 98.00 109.46 C 99.94 108.51 102.84 107.92 104.21 106.19 C 104.55 104.79 104.52 103.29 104.61 101.85 C 103.33 103.72 102.01 105.55 100.64 107.35 C 100.05 105.63 99.97 103.88 99.87 102.08 C 98.07 103.52 96.19 104.82 94.27 106.08 C 94.51 104.85 94.79 103.63 95.09 102.41 C 92.42 103.71 89.74 104.83 86.94 105.80 C 89.01 101.36 92.75 100.66 96.81 98.86 C 94.88 98.86 92.95 98.86 91.02 98.84 C 94.15 97.33 97.29 96.18 99.88 93.78 C 98.19 94.12 96.51 94.49 94.83 94.90 C 94.13 94.14 93.42 93.37 92.72 92.61 C 95.59 92.31 97.89 92.17 100.13 90.14 C 98.81 89.48 97.43 88.65 96.00 88.25 C 94.44 88.41 92.89 88.92 91.37 89.30 C 91.31 87.93 91.25 86.56 91.19 85.18 C 93.19 85.30 95.17 85.45 97.15 85.65 C 98.13 85.40 99.11 85.15 100.09 84.90 C 98.01 84.59 95.94 84.25 93.87 83.84 C 96.50 82.86 99.13 82.28 101.92 82.09 Z" fill="#f2bc4a"/>
<path d="M 71.92 89.47 C 73.58 89.82 75.23 90.18 76.88 90.56 L 76.74 88.27 C 78.60 90.67 80.13 93.60 82.39 95.63 C 84.49 97.46 88.08 97.52 90.70 97.97 C 88.13 101.03 86.36 103.14 82.14 103.75 C 83.40 102.35 84.70 100.99 86.03 99.64 C 83.78 100.43 81.53 101.16 79.25 101.85 C 80.62 100.57 81.99 99.31 83.38 98.05 C 82.30 98.35 81.22 98.65 80.14 98.94 C 79.76 98.00 79.32 97.08 78.84 96.18 C 75.94 94.87 73.08 94.27 70.70 91.90 L 74.75 92.58 C 73.78 91.56 72.85 90.52 71.92 89.47 Z" fill="#f3bd4a"/>
<path d="M 85.38 90.52 C 89.06 90.22 92.75 90.07 96.43 89.93 C 93.06 91.35 90.04 92.84 86.29 92.15 C 85.97 91.61 85.67 91.07 85.38 90.52 Z" fill="#8ba456"/>
<path d="M 91.74 108.71 C 94.81 109.30 96.32 110.10 98.46 112.28 C 95.40 111.70 93.93 110.94 91.74 108.71 Z" fill="#57995b"/>
<path d="M 99.94 118.56 C 98.16 119.73 96.39 120.91 94.63 122.11 C 96.69 121.54 98.75 120.96 100.81 120.39 C 99.87 121.63 98.93 122.87 98.00 124.11 C 99.47 123.29 100.95 122.47 102.42 121.65 C 101.36 124.39 100.69 126.95 100.59 129.90 C 98.62 129.74 96.66 129.63 94.68 129.58 C 96.22 130.81 97.76 132.02 99.27 133.27 C 96.47 132.98 93.68 132.55 90.90 132.08 L 91.78 133.85 C 89.93 133.83 88.07 133.82 86.22 133.83 C 84.08 135.51 82.60 136.23 79.82 136.66 C 80.64 135.37 81.47 134.08 82.31 132.79 C 80.71 133.39 79.10 133.97 77.51 134.53 C 79.15 132.02 80.54 131.65 83.27 130.87 C 81.76 130.55 80.26 130.22 78.76 129.87 C 83.52 127.87 87.50 132.20 91.36 129.31 C 92.79 126.98 89.05 122.80 90.70 120.66 C 92.97 118.82 97.18 119.20 99.94 118.56 Z" fill="#f2bc4a"/>
<path d="M 56.84 149.57 C 59.02 151.44 61.76 153.48 63.04 156.11 C 64.14 158.30 62.30 160.67 60.03 160.62 C 57.84 160.65 55.70 158.44 53.97 157.26 C 53.24 158.08 52.50 158.89 51.76 159.71 C 50.97 158.95 50.18 158.20 49.39 157.44 C 51.88 154.82 54.26 152.10 56.84 149.57 Z" fill="#ffffff"/>
<path d="M 141.71 151.06 C 143.69 153.00 145.54 155.09 147.41 157.12 C 148.95 155.74 150.48 154.35 152.01 152.95 C 152.51 153.51 153.02 154.06 153.52 154.62 C 151.23 156.77 148.93 158.92 146.64 161.07 C 144.09 158.36 141.55 155.64 139.02 152.91 C 139.91 152.28 140.81 151.67 141.71 151.06 Z" fill="#ffffff"/>
<path d="M 57.90 153.40 C 60.32 155.25 60.29 155.73 59.51 158.63 C 58.06 157.61 56.63 156.57 55.21 155.51 C 56.09 154.78 56.99 154.07 57.90 153.40 Z" fill="#379d7f"/>
<path d="M 135.00 156.08 C 138.39 158.24 141.59 160.69 144.88 163.00 C 143.95 163.47 143.01 163.93 142.08 164.40 C 139.35 163.41 138.44 164.19 136.12 165.43 C 135.65 167.86 134.62 168.75 132.87 170.24 C 132.42 166.16 131.92 162.08 131.68 157.98 C 132.76 157.31 133.87 156.67 135.00 156.08 Z" fill="#ffffff"/>
<path d="M 65.11 158.98 C 68.32 157.43 72.71 159.68 74.63 162.40 C 76.97 165.41 74.65 170.33 70.97 170.78 C 67.76 171.10 64.34 169.15 62.70 166.44 C 61.26 163.73 62.57 160.47 65.11 158.98 Z" fill="#ffffff"/>
<path d="M 134.75 160.07 C 136.13 159.99 137.42 160.88 137.82 162.21 C 137.18 162.82 136.46 163.23 135.65 163.44 C 134.91 162.59 134.61 161.47 134.75 160.07 Z" fill="#49a68b"/>
<path d="M 68.16 161.10 C 69.89 160.96 71.12 161.77 72.18 163.06 C 72.76 165.58 71.30 167.51 69.04 168.43 C 67.92 168.06 66.06 167.52 65.63 166.27 C 64.76 164.26 66.29 161.88 68.16 161.10 Z" fill="#008863"/>
<path d="M 127.26 161.37 C 127.59 162.13 127.92 162.89 128.26 163.65 C 126.17 163.90 123.65 163.80 121.74 164.76 C 119.32 166.16 119.62 169.78 122.07 170.98 C 124.43 171.88 125.87 170.58 127.68 169.31 C 126.21 168.89 124.74 168.47 123.27 168.04 C 125.03 167.02 126.86 166.14 128.71 165.29 C 129.31 167.16 129.90 169.04 130.47 170.93 C 127.30 172.31 123.50 174.45 119.98 173.24 C 116.67 172.10 115.43 167.40 117.87 164.85 C 120.28 162.14 123.91 161.88 127.26 161.37 Z" fill="#ffffff"/>
<path d="M 78.05 162.52 C 80.99 163.77 87.12 164.38 87.96 168.03 C 87.49 169.56 85.79 170.60 84.68 171.70 C 85.42 173.38 86.14 175.08 86.85 176.78 C 85.59 176.37 84.33 175.95 83.07 175.53 C 82.03 173.43 80.90 171.41 79.52 169.52 C 78.96 170.95 78.41 172.38 77.87 173.82 C 76.81 173.55 75.75 173.28 74.69 173.00 C 75.82 169.51 76.96 166.03 78.05 162.52 Z" fill="#ffffff"/>
<path d="M 114.26 165.08 C 114.34 168.04 115.21 171.61 114.34 174.45 C 112.65 177.14 105.76 177.67 103.74 175.26 C 102.47 172.62 102.71 169.10 102.34 166.21 C 103.46 166.14 104.58 166.07 105.69 165.99 C 106.00 168.85 106.30 171.71 106.68 174.56 C 108.25 174.49 109.83 174.39 111.40 174.28 C 111.30 171.33 111.07 168.39 110.79 165.46 C 111.95 165.33 113.10 165.21 114.26 165.08 Z" fill="#ffffff"/>
<path d="M 80.83 164.99 C 82.24 165.98 83.65 166.97 84.95 168.10 C 83.14 169.08 81.42 168.81 79.47 168.70 C 79.92 167.46 80.37 166.22 80.83 164.99 Z" fill="#319a7b"/>
<path d="M 88.13 165.73 C 92.39 165.75 96.57 166.25 100.81 166.61 C 100.73 167.37 100.65 168.13 100.58 168.88 C 99.14 168.77 97.69 168.66 96.25 168.56 C 96.00 171.36 95.75 174.17 95.53 176.98 C 94.51 176.90 93.49 176.82 92.47 176.74 C 92.68 174.04 92.92 171.34 93.17 168.64 C 90.83 168.00 89.48 167.99 88.13 165.73 Z" fill="#ffffff"/>
</svg>
