<?xml version="1.0" encoding="UTF-8" standalone="no"?>
<svg xmlns:dc="http://purl.org/dc/elements/1.1/" xmlns:cc="http://creativecommons.org/ns#" xmlns:rdf="http://www.w3.org/1999/02/22-rdf-syntax-ns#" xmlns:svg="http://www.w3.org/2000/svg" xmlns="http://www.w3.org/2000/svg" xmlns:sodipodi="http://sodipodi.sourceforge.net/DTD/sodipodi-0.dtd" xmlns:inkscape="http://www.inkscape.org/namespaces/inkscape" viewBox="0 0 700 665.75" height="665.75" width="700" xml:space="preserve" version="1.1" id="svg2" inkscape:version="0.91 r13725" sodipodi:docname="Logo LOSC Lille 2018.svg"><sodipodi:namedview pagecolor="#ffffff" bordercolor="#666666" borderopacity="1" objecttolerance="10" gridtolerance="10" guidetolerance="10" inkscape:pageopacity="0" inkscape:pageshadow="2" inkscape:window-width="1280" inkscape:window-height="691" id="namedview19" showgrid="false" inkscape:zoom="0.28326512" inkscape:cx="-17.683096" inkscape:cy="435.7041" inkscape:window-x="0" inkscape:window-y="1" inkscape:window-maximized="1" inkscape:current-layer="svg2" showguides="false"/><metadata id="metadata8"><rdf:RDF><cc:Work rdf:about=""><dc:format>image/svg+xml</dc:format><dc:type rdf:resource="http://purl.org/dc/dcmitype/StillImage"/><dc:title/></cc:Work></rdf:RDF></metadata><defs id="defs6"/><path style="opacity:1;fill:none;fill-opacity:1;fill-rule:nonzero;stroke:#ffff00;stroke-width:0.36599648;stroke-linecap:butt;stroke-linejoin:miter;stroke-miterlimit:4;stroke-dasharray:none;stroke-dashoffset:0;stroke-opacity:1" d="m 136.43299,403.18299 13.25902,0 0,29.00902 -13.25902,0 z" id="path9267" inkscape:connector-curvature="0" sodipodi:nodetypes="ccccc"/><g id="g9322" transform="matrix(1.757659,0,0,1.757659,44.53973,-71.656759)"><g id="g9318"><path inkscape:connector-curvature="0" id="path4258" d="M 296.85796,419.53737 50.721627,419.53914 -25.34037,185.45009 173.78708,40.773345 372.91662,185.44725 Z" inkscape:transform-center-y="-19.88585" inkscape:transform-center-x="0.11350482" style="opacity:1;fill:#24216a;fill-opacity:1;fill-rule:nonzero;stroke:none;stroke-width:0.1239967;stroke-linecap:butt;stroke-linejoin:miter;stroke-miterlimit:4;stroke-dasharray:none;stroke-dashoffset:0;stroke-opacity:1"/><path style="opacity:1;fill:#ffffff;fill-opacity:1;fill-rule:nonzero;stroke:none;stroke-width:0.1239967;stroke-linecap:butt;stroke-linejoin:miter;stroke-miterlimit:4;stroke-dasharray:none;stroke-dashoffset:0;stroke-opacity:1" inkscape:transform-center-x="0.10210982" inkscape:transform-center-y="-17.8897" d="M 284.51555,402.52336 63.08649,402.52495 -5.34037,191.93386 173.79858,61.779834 352.93941,191.93131 Z" id="path9224" inkscape:connector-curvature="0"/></g><g id="g9303"><g id="g9251"><path sodipodi:nodetypes="ccccc" inkscape:connector-curvature="0" id="path9174" d="m 170.98026,77.499793 c 0.12103,25.129267 -13.49819,46.429867 -62.81777,78.291667 -74.722318,51.6269 -71.048306,74.31318 -80.169535,101.41306 L 7.65963,196.14831 Z" style="fill:#e01e13;fill-opacity:1;fill-rule:evenodd;stroke:none;stroke-width:1px;stroke-linecap:butt;stroke-linejoin:miter;stroke-opacity:1"/><path sodipodi:nodetypes="cscscccc" inkscape:connector-curvature="0" id="path9176" d="m 47.399362,315.60383 c -13.612777,-39.05305 -7.835316,-68.22356 5.302562,-90.71509 12.266575,-20.99988 30.705919,-36.68306 51.249776,-50.82921 -13.548735,16.70915 -22.541376,30.3319 -28.425927,41.84918 -15.922876,31.16435 -13.011716,50.50866 -7.695652,66.67901 0.884814,-21.6499 3.900338,-42.79574 26.641711,-60.14816 -15.747263,38.60608 -6.325791,62.13011 2.288245,73.55074 z" style="fill:#e01e13;fill-opacity:1;fill-rule:evenodd;stroke:none;stroke-width:1px;stroke-linecap:butt;stroke-linejoin:miter;stroke-opacity:1"/><path sodipodi:nodetypes="cccccc" inkscape:connector-curvature="0" id="path9228" d="m 173.80859,276.43359 -123.503902,50.96094 20.818359,64.07031 205.369143,0 20.81836,-64.07031 z" style="opacity:1;fill:#e01e13;fill-opacity:1;fill-rule:nonzero;stroke:none;stroke-width:1;stroke-linecap:butt;stroke-linejoin:miter;stroke-miterlimit:4;stroke-dasharray:none;stroke-dashoffset:0;stroke-opacity:1"/><path sodipodi:nodetypes="ccscsccccsccccccccc" inkscape:connector-curvature="0" id="path9243" d="m 164.75,224.625 c -2.3818,22.1516 6.28338,25.56822 14.75,30.375 0.58442,-9.31398 3.63634,-11.74689 7.87574,-12.69135 20.16863,-4.49323 25.8145,17.91102 38.74926,25.44135 7.14469,4.10501 21.6961,2.3667 29.15222,0.19856 25.98199,-7.5552 35.25005,-34.16352 37.34778,-54.19856 4.42113,-2.62963 9.72436,-2.87757 11,-14 -21.31011,-8.74078 -39.1363,-19.22351 -55.125,-30.625 2.06597,-1.46184 5.65529,-1.3069 6.375,-4.875 0.20468,-0.58771 -3.8743,-3.87316 -8.39851,-7.86286 -10.24542,-9.03499 -27.51774,-22.77632 -36.22649,-24.76214 -0.19454,-9.38395 -1.96506,-18.5137 -12.375,-26.25 0.0422,7.37131 -1.08763,15.05733 -4,21.75 l -8,-0.625 c 3.98348,-15.01858 4.38804,-31.188468 -4.63265,-45.646901 L 339.95422,196.14595 301.14466,315.59236 177.21684,266.621 C 165.23665,261.42521 151.31955,249.55566 164.75,224.625 Z" style="fill:#24216a;fill-opacity:1;fill-rule:evenodd;stroke:none;stroke-width:0.5;stroke-linecap:butt;stroke-linejoin:miter;stroke-miterlimit:4;stroke-dasharray:none;stroke-opacity:1"/><path sodipodi:nodetypes="cccccc" inkscape:connector-curvature="0" id="path9247" d="m 201.375,164.625 c 8.52377,4.47713 13.29397,10.65866 16.375,18.625 3.34082,-1.19585 7.17313,-1.44756 11.5,-1.625 4.39723,-1.37493 6.03513,-5.42219 6.375,-9.75 -2.47931,1.35373 -5.35457,1.51962 -8.5,0.875 -7.57968,-7.85775 -16.38782,-9.18526 -25.75,-8.125 z" style="fill:#201e5f;fill-opacity:1;fill-rule:evenodd;stroke:none;stroke-width:0.5;stroke-linecap:butt;stroke-linejoin:miter;stroke-miterlimit:4;stroke-dasharray:none;stroke-opacity:1"/></g><g id="g9295"><path d="m 175.03848,315.42986 c 0.83286,-8.43551 12.48791,-7.34003 12.48791,-7.34003 l -4.39527,-5.4409 c 0,0 -5.23905,-0.70883 -7.57347,5.2573 -0.0353,0.0899 -0.0802,0.20792 -0.1301,0.34652 -0.0328,0.0912 -0.10574,0.15077 -0.20426,0.1228 -0.0729,-0.0207 -0.12524,-0.0827 -0.10087,-0.20427 0.0279,-0.14103 0.0511,-0.21642 0.0753,-0.3149 1.45779,-5.91628 4.55698,-10.37721 4.55698,-10.37721 l -5.80565,-7.83731 -5.80564,7.83731 c 0,0 3.10039,4.46093 4.55697,10.37721 0.0243,0.0985 0.0486,0.17387 0.0754,0.3149 0.0244,0.12159 -0.0267,0.1836 -0.10087,0.20427 -0.0973,0.0279 -0.17144,-0.0316 -0.20426,-0.1228 -0.0499,-0.1386 -0.0948,-0.25654 -0.1301,-0.34652 -2.33319,-5.96613 -7.57226,-5.2573 -7.57226,-5.2573 l -4.39648,5.4409 c 0,0 11.65505,-1.09548 12.4879,7.34003 l 2.17879,0 z" style="fill:#ffffff;fill-opacity:1;fill-rule:nonzero;stroke:none" id="path166" inkscape:connector-curvature="0"/><g transform="translate(0.6672675,0)" style="fill:#ffffff;stroke:none" id="g9289"><path style="opacity:1;fill:#ffffff;fill-opacity:1;fill-rule:nonzero;stroke:none;stroke-width:0.50000978;stroke-linecap:butt;stroke-linejoin:miter;stroke-miterlimit:4;stroke-dasharray:none;stroke-dashoffset:0;stroke-opacity:1" d="m 85.125005,326.62497 0,39.22616 0,11.15084 32.874985,0 -3.125,-11.15084 -15.49999,0 0,-39.22616 z" id="rect9258" inkscape:connector-curvature="0" sodipodi:nodetypes="cccccccc"/><path style="opacity:1;fill:#ffffff;fill-opacity:1;fill-rule:nonzero;stroke:none;stroke-width:0.623016;stroke-linecap:butt;stroke-linejoin:miter;stroke-miterlimit:4;stroke-dasharray:none;stroke-dashoffset:0;stroke-opacity:1" d="m 229.81055,326.68747 c -4.89671,0 -8.83986,3.62768 -8.83986,8.1325 l 0,27.80559 4.83986,14.31391 26.5039,0 c 4.89672,0 8.83986,-3.62769 8.83986,-8.1325 l 0,-9.84143 -13.4629,0 0,7.47629 -13.25782,0 0,-29.00672 13.25782,0 0,7.22629 13.4629,0 0,-9.84143 c 0,-4.50482 -3.94314,-8.1325 -8.83986,-8.1325 l -22.5039,0 z" id="rect9273" inkscape:connector-curvature="0"/><path sodipodi:nodetypes="ssccsssssccccc" inkscape:connector-curvature="0" id="path9282" d="m 131.81055,326.68652 c -4.89671,0 -8.83985,3.62782 -8.83985,8.13281 l 0,27.80664 4.83985,14.31445 26.5039,0 c 4.89672,0 8.83985,-3.62782 8.83985,-8.13281 l 0,-33.98828 c 0,-4.50499 -3.94313,-8.13281 -8.83985,-8.13281 z m 4.62304,10.74804 13.25782,0 0,29.00782 -13.25782,0 z" style="opacity:1;fill:#ffffff;fill-opacity:1;fill-rule:nonzero;stroke:none;stroke-width:0.6230278;stroke-linecap:butt;stroke-linejoin:miter;stroke-miterlimit:4;stroke-dasharray:none;stroke-dashoffset:0;stroke-opacity:1"/><path sodipodi:nodetypes="cccccccsscccccccsssscc" inkscape:connector-curvature="0" id="path9284" d="m 183.9334,355.37597 14.75782,3.5 0,7.56641 -13.25782,0 0,-3.81641 -13.4624,0 4.83936,14.31445 26.5039,0 c 4.89672,0 8.83985,-3.62782 8.83985,-8.13281 l 0,-11.30664 c -0.23582,-3.96414 -3.3537,-7.36529 -15.46289,-9.75 l -11.25782,-2.75 0,-7.56641 13.25782,0 0,4.19141 13.46289,0 0,-6.80664 c 0,-4.50499 -3.94313,-8.13281 -8.83985,-8.13281 l -22.5039,0 c -4.89671,0 -8.83985,3.62782 -8.83985,8.13281 l 2.3e-4,12.93164 c 0.14641,4.83625 6.95909,6.30887 11.96266,7.625 z" style="opacity:1;fill:#ffffff;fill-opacity:1;fill-rule:nonzero;stroke:none;stroke-width:0.6230278;stroke-linecap:butt;stroke-linejoin:miter;stroke-miterlimit:4;stroke-dasharray:none;stroke-dashoffset:0;stroke-opacity:1"/></g></g></g></g></svg>