<?xml version="1.0" encoding="UTF-8" standalone="no"?>
<!DOCTYPE svg PUBLIC "-//W3C//DTD SVG 1.1//EN" "http://www.w3.org/Graphics/SVG/1.1/DTD/svg11.dtd">
<svg xmlns="http://www.w3.org/2000/svg" version="1.1" viewBox="0 0 200 200" width="200.0pt" height="200.0pt">
<path d="M 0.00 0.00 L 32.18 0.00 C 31.57 2.70 31.83 5.26 31.80 8.00 C 31.80 36.00 31.80 64.00 31.80 92.00 C 31.51 109.65 34.95 127.61 42.30 143.69 C 50.91 162.72 65.09 179.03 82.68 190.28 C 88.22 193.87 94.07 197.07 100.00 199.96 C 110.42 194.96 120.58 188.88 129.38 181.35 C 139.21 173.11 147.41 162.86 153.72 151.70 C 163.84 133.68 168.63 112.60 168.20 92.00 C 168.16 61.34 168.26 30.65 168.15 0.00 L 200.00 0.00 L 200.00 200.00 L 0.00 200.00 L 0.00 0.00 Z" fill="none"/>
<path d="M 32.18 0.00 L 168.15 0.00 C 168.26 30.65 168.16 61.34 168.20 92.00 C 168.63 112.60 163.84 133.68 153.72 151.70 C 147.41 162.86 139.21 173.11 129.38 181.35 C 120.58 188.88 110.42 194.96 100.00 199.96 C 94.07 197.07 88.22 193.87 82.68 190.28 C 65.09 179.03 50.91 162.72 42.30 143.69 C 34.95 127.61 31.51 109.65 31.80 92.00 C 31.80 64.00 31.80 36.00 31.80 8.00 C 31.83 5.26 31.57 2.70 32.18 0.00 Z" fill="#030000"/>
<path d="M 33.85 2.73 L 35.98 2.52 C 77.04 2.56 118.85 2.52 160.00 2.54 C 162.10 2.48 164.13 2.48 166.23 2.69 C 166.27 32.45 166.23 62.23 166.25 92.00 C 166.35 103.12 165.02 114.23 162.22 124.99 C 157.08 144.87 146.19 163.18 131.06 177.08 C 121.86 185.65 111.27 192.17 100.00 197.64 C 81.11 188.66 64.42 175.74 52.79 158.19 C 39.96 139.25 33.94 116.76 33.83 94.00 C 33.86 63.88 33.81 32.74 33.85 2.73 Z" fill="#ffffff"/>
<path d="M 37.95 6.88 L 39.98 6.70 C 78.65 6.71 117.33 6.70 156.00 6.70 C 158.05 6.65 160.01 6.64 162.05 6.88 C 162.19 34.12 162.06 64.41 162.12 92.00 C 162.12 111.21 158.31 130.10 149.09 147.07 C 138.43 167.19 120.65 183.47 100.00 192.87 C 76.26 181.98 56.73 162.37 46.68 138.16 C 40.14 122.83 37.90 106.57 37.88 90.00 C 37.94 63.41 37.81 32.97 37.95 6.88 Z" fill="#030000"/>
<path d="M 40.25 9.17 C 41.78 8.86 43.43 8.88 45.00 8.88 C 71.38 9.00 98.79 8.73 125.03 9.02 C 123.88 10.86 122.22 12.17 120.75 13.75 C 115.53 19.17 110.27 24.58 105.04 29.98 C 108.42 32.95 109.87 36.06 110.25 40.54 C 110.99 43.94 106.03 48.47 108.37 51.57 C 111.62 55.63 115.31 58.59 116.67 63.90 L 115.54 63.52 C 114.23 61.02 112.70 57.26 110.12 55.85 L 109.89 57.60 C 108.19 57.47 107.62 58.82 105.96 58.08 C 105.37 60.31 104.16 61.96 102.52 63.54 C 100.98 64.14 100.63 61.80 99.76 61.02 C 100.67 61.30 101.44 61.95 102.06 62.95 C 104.65 61.64 104.55 57.85 107.21 57.29 C 106.83 56.48 106.41 55.69 105.96 54.92 C 107.02 54.95 108.08 54.88 109.15 54.71 C 108.36 53.51 107.53 52.29 106.79 51.06 C 105.42 46.33 110.44 43.51 108.96 38.99 C 108.87 37.40 107.73 35.98 107.62 34.64 C 106.33 33.56 106.11 31.61 103.96 31.05 C 102.80 31.26 101.61 31.57 100.43 31.58 C 94.47 28.16 87.69 26.18 81.49 23.19 C 81.69 21.30 82.33 19.77 80.71 18.33 C 78.31 16.07 75.90 12.86 72.87 11.52 C 67.29 10.99 61.57 11.50 55.96 11.24 C 56.41 12.67 57.50 13.45 58.54 14.45 C 68.70 23.84 78.82 33.99 89.01 43.20 C 89.43 42.16 92.48 40.83 91.53 39.47 C 88.32 36.36 85.05 33.27 81.80 30.21 C 80.86 29.26 79.31 28.32 79.05 26.96 C 85.36 29.41 91.76 32.06 98.03 34.63 L 99.58 33.24 C 100.57 35.25 97.65 35.29 98.87 37.13 C 102.37 34.94 108.40 37.41 107.86 41.86 C 106.26 39.78 103.69 37.36 100.90 37.55 C 100.71 38.70 100.44 39.82 100.08 40.91 C 98.91 42.50 95.53 42.97 95.22 44.99 C 95.94 46.02 96.33 47.13 97.33 47.98 C 94.63 52.65 89.86 49.07 86.60 52.57 C 84.89 54.19 84.75 57.00 82.89 58.33 C 82.90 55.62 84.78 52.49 86.86 50.81 C 89.47 48.72 94.06 50.81 95.97 47.96 C 94.96 47.08 94.32 46.12 94.05 45.08 C 94.42 43.91 94.49 42.77 94.26 41.69 C 93.48 42.06 92.78 42.56 92.18 43.19 C 75.84 60.18 59.33 77.00 43.01 94.00 C 42.16 94.83 41.46 95.86 40.21 96.04 C 40.27 67.20 40.21 38.03 40.25 9.17 Z" fill="#ffffff"/>
<path d="M 42.52 11.40 C 44.78 11.33 47.32 11.02 49.52 11.55 C 61.62 22.96 73.49 34.69 85.64 46.05 C 83.29 49.59 79.62 52.61 76.71 55.78 L 76.02 55.93 C 64.80 45.63 53.74 34.85 42.54 24.50 C 42.55 20.14 42.49 15.76 42.52 11.40 Z" fill="#030000"/>
<path d="M 80.98 11.25 C 82.90 11.24 84.82 11.34 86.75 11.28 C 91.95 15.96 96.95 21.09 102.11 25.84 C 102.81 26.50 103.40 27.22 103.88 28.00 C 102.88 28.85 101.92 29.73 101.00 30.66 C 94.86 25.08 88.78 19.01 82.57 13.40 C 81.85 12.81 81.32 12.09 80.98 11.25 Z" fill="#030000"/>
<path d="M 91.97 11.24 C 100.98 11.34 110.01 11.35 119.03 11.24 C 119.10 12.97 116.68 14.36 115.62 15.51 C 114.17 15.54 112.37 15.21 111.06 15.91 C 109.49 17.15 108.28 18.72 106.79 20.05 C 107.54 20.95 108.20 21.92 108.79 22.98 C 107.79 23.77 106.87 24.61 106.02 25.51 C 101.77 21.58 97.75 17.41 93.50 13.47 C 92.81 12.89 92.30 12.15 91.97 11.24 Z" fill="#030000"/>
<path d="M 46.23 14.95 C 47.40 15.32 48.16 16.15 49.02 16.98 C 59.16 26.96 70.29 36.86 80.14 47.01 C 78.95 47.94 78.04 49.27 76.91 50.31 C 76.22 49.93 75.58 49.49 75.00 48.99 C 65.46 39.89 55.81 30.85 46.26 21.73 C 46.32 19.48 46.20 17.22 46.23 14.95 Z" fill="#ffffff"/>
<path d="M 68.07 15.49 C 72.26 14.94 74.14 17.59 76.77 20.26 C 77.79 21.74 75.69 22.61 74.99 23.61 C 72.45 21.32 69.94 18.91 67.49 16.52 C 67.11 15.60 67.30 15.25 68.07 15.49 Z" fill="#ffffff"/>
<path d="M 102.29 15.50 C 103.44 15.46 104.60 15.47 105.76 15.53 C 105.29 16.22 104.93 17.39 103.98 17.46 C 102.93 17.71 102.11 16.50 102.29 15.50 Z" fill="#ffffff"/>
<path d="M 119.47 20.48 L 120.60 20.43 C 121.18 22.64 121.40 24.71 121.35 27.00 C 121.28 40.62 120.84 54.36 120.72 68.00 C 120.28 69.14 121.03 71.54 120.24 72.19 C 123.40 72.35 123.42 73.11 123.85 75.86 C 122.84 75.71 121.87 75.39 120.94 74.90 C 119.97 75.23 119.00 75.54 118.01 75.82 C 117.35 75.56 116.69 75.31 116.02 75.08 C 114.74 75.93 113.46 76.79 112.20 77.69 C 112.37 78.76 112.57 79.81 112.80 80.86 C 114.66 79.58 116.61 77.09 118.91 76.99 C 121.75 77.53 120.41 81.01 119.21 82.52 L 119.83 82.35 C 120.00 83.26 120.36 83.68 120.91 83.63 L 118.94 84.30 C 121.41 85.18 121.00 89.11 118.02 88.17 C 115.58 86.89 116.33 85.22 118.15 83.85 C 115.98 83.20 114.07 85.18 112.10 83.87 C 108.61 81.71 105.25 79.36 101.70 77.30 C 101.67 78.18 101.76 79.03 101.96 79.85 C 102.36 80.79 103.81 80.68 104.68 81.20 C 100.73 82.71 97.82 86.36 93.84 87.56 C 92.29 87.34 90.75 86.69 89.30 86.11 C 90.73 85.53 91.66 85.94 93.02 86.88 C 94.65 85.97 95.57 84.83 95.80 83.44 C 94.31 83.48 92.82 83.53 91.33 83.58 L 91.38 82.30 C 93.51 80.90 96.60 79.84 98.88 81.51 C 101.68 80.80 101.41 79.60 101.57 77.16 C 98.76 75.70 96.41 73.15 94.20 70.90 C 93.47 69.98 92.10 68.67 92.23 67.40 C 93.74 67.01 94.50 66.27 94.52 65.17 C 94.69 63.52 96.05 63.60 96.99 62.54 C 99.30 64.35 100.78 66.99 102.76 69.23 C 105.26 72.41 108.32 74.95 111.17 77.79 C 112.05 77.14 112.97 76.63 113.94 76.26 C 114.33 75.27 114.82 74.46 115.43 73.82 C 117.07 73.65 119.40 73.29 118.02 71.09 C 117.11 69.77 117.53 68.48 117.56 66.98 C 118.16 52.96 118.26 39.00 118.56 24.98 C 118.56 23.40 119.07 21.98 119.47 20.48 Z" fill="#ffffff"/>
<path d="M 42.68 28.43 C 46.57 29.95 46.54 33.01 46.27 36.64 C 54.76 44.61 63.36 52.90 71.75 60.98 C 70.79 61.69 69.54 64.06 68.20 63.81 C 60.86 57.03 53.64 50.01 46.29 43.22 C 46.43 44.88 46.13 46.48 46.17 48.12 C 44.56 47.48 43.74 46.22 42.52 45.08 C 42.63 39.54 42.34 33.96 42.68 28.43 Z" fill="#030000"/>
<path d="M 104.02 32.19 L 105.08 32.61 C 105.74 34.06 106.59 34.74 107.62 34.64 L 106.66 37.06 C 105.13 36.19 102.97 35.98 102.13 34.03 L 104.02 32.19 Z" fill="#ffffff"/>
<path d="M 98.19 34.73 C 98.28 35.77 97.85 36.76 96.88 37.71 L 99.09 37.78 C 99.71 41.26 98.21 40.15 95.75 40.46 C 94.61 38.15 96.11 35.79 98.19 34.73 Z" fill="#030000"/>
<path d="M 104.95 40.02 C 104.78 41.79 104.46 42.87 103.81 44.49 C 102.56 44.56 101.32 44.66 100.09 44.80 C 100.44 43.45 100.70 42.08 101.03 40.73 C 102.34 39.99 103.54 40.19 104.95 40.02 Z" fill="#ffffff"/>
<path d="M 97.17 44.07 L 97.84 43.99 L 97.89 44.70 L 97.22 44.78 L 97.17 44.07 Z" fill="#ffffff"/>
<path d="M 97.69 45.83 C 99.09 45.75 100.46 45.89 101.80 46.25 C 101.89 48.43 98.22 48.94 97.26 47.08 L 97.69 45.83 Z" fill="#ffffff"/>
<path d="M 159.82 45.92 C 159.69 62.61 159.81 79.31 159.75 96.00 C 159.46 120.69 151.18 144.94 135.00 163.74 C 133.36 161.68 133.00 158.74 131.77 156.37 C 130.62 156.15 129.46 155.93 128.31 155.72 C 127.54 154.04 126.99 151.78 125.58 150.53 C 122.38 150.13 119.10 150.19 115.88 149.97 C 116.15 147.94 116.72 145.97 116.90 143.92 C 116.17 144.54 115.64 145.22 115.31 145.97 C 115.01 144.96 115.88 142.02 114.33 142.01 C 113.99 144.30 115.16 148.80 113.09 150.19 C 111.07 147.78 105.46 147.28 105.26 143.71 C 108.73 141.93 112.21 141.48 114.58 138.13 C 114.25 134.99 114.13 131.82 113.92 128.67 C 112.59 128.69 112.10 129.75 111.31 130.62 C 110.89 129.87 110.49 129.11 110.10 128.35 C 111.51 128.91 112.69 128.57 114.12 128.25 C 114.39 120.63 114.56 113.06 114.55 105.44 L 116.35 104.48 C 117.07 106.45 116.52 108.87 116.44 110.95 L 117.36 110.55 C 117.64 103.54 117.92 96.54 118.47 89.54 L 120.03 88.90 C 120.43 91.90 120.37 94.87 119.89 97.85 C 118.99 104.57 119.56 111.30 118.39 117.99 C 117.77 122.01 119.30 126.33 117.74 130.00 C 117.19 133.73 116.81 137.60 116.88 141.38 L 117.94 141.18 C 118.96 136.17 120.28 131.23 121.12 126.19 C 122.43 125.93 123.68 126.52 124.91 126.02 C 125.87 128.46 124.92 130.54 124.59 133.00 C 124.01 136.15 125.13 139.39 127.23 141.76 C 131.50 146.70 140.08 147.24 145.02 143.04 C 149.91 138.88 151.58 132.06 149.97 125.94 C 151.02 125.41 151.73 124.35 152.76 123.74 C 155.28 120.98 154.76 117.79 155.26 114.36 L 156.94 113.74 C 155.11 110.12 158.89 107.66 156.69 104.20 C 153.83 104.57 154.87 104.01 153.35 106.28 C 154.51 106.55 155.30 107.10 155.73 107.92 C 154.61 109.30 152.21 110.98 152.73 112.98 C 153.20 117.14 153.15 120.41 149.94 123.43 C 148.55 123.20 147.87 121.97 146.96 121.02 C 144.79 118.32 141.21 116.62 138.33 114.73 C 137.70 109.24 137.68 103.47 138.26 97.98 C 140.08 98.49 142.53 100.46 140.78 102.44 C 140.13 102.12 139.43 101.90 138.68 101.79 C 137.47 103.83 139.87 105.06 141.50 105.53 C 141.94 107.96 142.79 107.80 144.56 106.47 C 146.84 104.91 146.11 102.05 148.06 99.94 C 148.01 98.51 147.40 96.84 145.89 96.42 C 145.44 97.15 144.99 97.87 144.55 98.59 C 143.36 97.14 139.95 95.98 138.14 95.27 C 138.70 91.34 138.70 86.46 141.16 83.17 C 142.57 81.03 145.64 80.09 148.07 80.55 C 150.63 81.51 153.38 83.89 152.86 86.87 C 151.87 86.67 150.85 86.60 149.79 86.65 C 150.39 89.29 151.06 89.62 153.60 89.67 C 154.49 88.25 155.81 87.11 157.01 85.95 C 157.73 83.82 157.03 82.28 155.44 81.01 C 155.16 81.99 154.98 82.97 154.92 83.96 C 153.25 82.53 151.94 80.58 150.40 78.99 C 152.52 76.04 154.93 73.94 155.18 70.01 C 155.17 68.12 153.92 66.30 151.99 67.76 C 149.70 69.96 152.40 76.50 148.02 78.18 C 144.51 78.32 141.46 78.26 138.59 80.61 C 134.14 84.23 133.65 90.44 133.67 95.76 C 130.52 97.40 128.45 99.20 126.94 102.47 C 125.61 102.37 124.42 100.25 124.58 99.04 C 124.56 94.35 124.71 89.66 124.54 84.97 C 124.50 82.53 124.09 80.30 125.26 78.02 C 126.23 74.51 124.14 73.67 122.81 70.97 C 126.55 72.00 126.68 75.34 126.65 78.64 C 128.32 78.08 129.25 76.66 130.44 75.45 C 139.29 66.31 148.17 57.17 157.00 48.00 C 157.84 47.20 158.58 46.09 159.82 45.92 Z" fill="#ffffff"/>
<path d="M 42.70 49.43 C 44.35 50.02 45.29 51.31 46.51 52.49 C 52.21 58.03 58.01 63.50 63.71 69.04 C 62.74 70.00 62.05 71.11 60.88 71.89 C 59.79 72.02 58.85 70.55 58.03 69.95 C 52.93 64.93 47.57 60.16 42.50 55.13 C 42.47 53.21 42.50 51.33 42.70 49.43 Z" fill="#030000"/>
<path d="M 93.31 52.16 C 94.51 50.96 96.93 51.74 96.86 53.59 C 95.92 53.47 93.01 53.68 93.31 52.16 Z" fill="#ffffff"/>
<path d="M 97.85 53.94 C 99.29 54.51 103.97 54.27 104.08 56.20 C 102.91 56.32 101.72 56.25 100.52 55.97 C 99.95 56.69 100.11 57.70 100.99 59.02 C 100.07 59.37 99.13 59.65 98.18 59.86 C 98.89 59.21 99.62 58.58 100.36 57.98 C 99.51 56.66 98.92 55.09 97.85 53.94 Z" fill="#ffffff"/>
<path d="M 87.12 57.24 L 87.92 57.23 L 88.32 57.98 L 87.90 58.72 L 87.11 58.72 L 86.72 57.98 L 87.12 57.24 Z" fill="#ffffff"/>
<path d="M 82.19 59.23 C 83.25 59.00 83.48 59.51 82.87 60.76 C 81.82 60.99 81.60 60.48 82.19 59.23 Z" fill="#ffffff"/>
<path d="M 84.26 59.13 L 85.53 59.35 C 85.82 65.63 85.55 72.57 86.25 78.68 C 86.35 82.85 87.03 87.64 85.79 91.70 C 85.62 96.37 86.09 101.36 85.06 105.94 C 84.19 109.53 84.59 113.25 84.07 117.00 C 83.39 121.57 83.86 126.57 82.62 130.98 C 82.12 132.97 82.49 134.95 81.87 136.93 C 79.18 135.71 81.98 133.64 80.04 131.87 L 79.31 132.90 C 79.32 135.92 78.47 138.92 78.72 141.91 C 79.82 141.36 80.31 140.09 80.18 138.11 L 81.05 138.10 C 80.91 139.29 80.74 140.46 80.55 141.63 C 79.79 142.14 78.95 142.52 78.03 142.79 C 77.04 145.33 78.91 147.20 76.71 148.79 C 76.40 149.38 77.83 150.41 78.12 150.89 C 73.03 154.10 68.12 157.65 63.00 160.79 C 60.46 158.97 58.32 154.56 56.34 151.96 C 63.54 144.33 70.97 136.90 78.20 129.30 L 79.82 129.08 L 79.71 131.98 C 81.42 131.47 81.00 130.14 81.20 128.69 C 82.18 117.84 82.37 106.88 83.34 96.02 C 83.60 85.35 84.62 74.76 85.00 64.10 L 84.18 64.09 C 84.67 68.50 83.32 72.59 83.31 77.00 C 82.21 83.11 82.99 89.13 81.75 95.23 C 81.59 98.79 82.20 103.01 80.51 106.23 C 80.96 107.33 80.63 107.91 81.05 109.07 C 80.59 112.93 79.33 115.71 79.75 119.67 C 80.07 122.36 79.02 124.52 80.04 127.20 C 77.95 126.43 76.26 124.34 76.50 122.01 C 76.48 119.25 76.16 116.17 77.09 113.57 C 77.45 111.54 77.16 109.40 77.41 107.33 C 77.43 104.66 78.90 102.61 78.41 99.88 C 78.72 99.37 78.99 98.84 79.22 98.30 C 79.40 91.20 80.15 84.14 81.33 77.17 C 81.89 71.13 82.66 64.99 84.26 59.13 Z" fill="#ffffff"/>
<path d="M 42.71 59.80 C 47.16 62.91 50.89 67.40 55.00 71.01 C 55.93 72.08 58.05 73.29 58.00 74.81 C 52.91 76.12 47.87 77.64 42.80 79.04 C 42.48 77.70 42.41 76.29 42.60 74.82 C 44.89 73.96 48.87 73.90 50.45 72.14 C 47.73 69.87 45.23 67.37 42.58 65.04 C 42.57 63.26 42.35 61.57 42.71 59.80 Z" fill="#030000"/>
<path d="M 107.15 60.26 L 107.78 60.24 L 107.81 60.87 L 107.17 60.89 L 107.15 60.26 Z" fill="#ffffff"/>
<path d="M 81.98 62.10 C 82.52 63.84 82.23 64.75 81.13 64.82 C 80.60 63.42 80.89 62.51 81.98 62.10 Z" fill="#ffffff"/>
<path d="M 94.38 62.38 L 94.74 62.29 C 94.33 62.93 94.21 62.96 94.38 62.38 Z" fill="#ffffff"/>
<path d="M 80.66 66.79 C 81.12 68.14 80.34 69.71 79.83 70.96 C 80.15 71.52 80.35 72.09 80.43 72.65 C 79.44 77.76 77.63 82.58 76.39 87.61 L 74.89 88.07 C 74.75 86.09 75.65 84.05 75.97 82.10 C 74.74 82.10 74.94 84.57 74.54 85.45 C 74.09 87.94 73.01 90.47 73.04 93.00 C 75.94 94.99 75.13 90.73 75.26 89.17 C 77.89 89.05 76.16 91.65 75.58 92.90 C 75.58 95.06 76.15 96.97 76.91 98.97 C 76.75 105.38 74.96 111.56 74.74 117.99 C 74.73 120.02 74.43 122.71 75.52 124.50 C 76.46 125.68 77.51 126.75 78.28 128.06 C 76.05 127.91 74.27 125.00 73.74 123.05 C 72.90 115.64 75.08 107.37 75.79 99.99 C 75.87 98.34 74.75 96.63 74.28 95.05 C 73.08 94.14 71.43 93.97 71.95 92.02 C 73.09 85.09 75.14 78.36 78.04 71.97 C 78.91 70.30 78.97 67.72 80.66 66.79 Z" fill="#ffffff"/>
<path d="M 99.13 69.02 C 100.18 68.00 102.28 69.74 101.67 70.95 C 100.55 71.95 98.45 70.38 99.13 69.02 Z" fill="#030000"/>
<path d="M 121.49 77.22 C 123.04 76.22 124.52 79.08 122.28 78.90 C 121.46 78.41 121.19 77.85 121.49 77.22 Z" fill="#ffffff"/>
<path d="M 53.97 79.12 C 51.88 81.80 49.65 83.62 47.24 86.24 C 45.85 87.59 44.52 89.53 42.70 90.26 C 42.33 87.43 42.55 84.67 42.60 81.85 C 46.37 80.97 50.10 79.74 53.97 79.12 Z" fill="#030000"/>
<path d="M 117.25 79.24 L 117.78 79.26 L 117.76 79.78 L 117.23 79.77 L 117.25 79.24 Z" fill="#030000"/>
<path d="M 122.41 81.03 L 123.36 81.88 C 123.23 87.26 123.49 92.67 123.28 98.05 C 122.82 98.63 122.07 98.98 121.04 99.11 C 119.78 92.33 121.42 87.37 122.41 81.03 Z" fill="#ffffff"/>
<path d="M 97.18 87.95 C 98.45 88.14 98.52 90.64 98.98 91.67 L 96.72 91.37 C 97.07 92.27 97.40 93.18 97.71 94.10 C 96.34 92.97 94.71 93.34 93.17 93.86 C 93.51 93.09 94.20 92.56 95.26 92.25 C 94.97 91.42 94.57 90.67 94.07 90.00 C 95.06 90.37 96.05 90.75 97.05 91.13 C 97.30 90.11 97.34 89.05 97.18 87.95 Z" fill="#ffffff"/>
<path d="M 111.15 91.19 L 111.81 91.19 L 111.80 91.85 L 111.14 91.85 L 111.15 91.19 Z" fill="#ffffff"/>
<path d="M 114.48 91.38 C 117.09 90.79 116.39 94.53 117.07 95.97 C 116.30 96.16 115.63 96.49 115.08 96.96 C 114.71 95.08 114.36 93.32 114.48 91.38 Z" fill="#ffffff"/>
<path d="M 91.25 93.19 C 91.81 93.76 91.81 93.76 91.25 93.19 Z" fill="#ffffff"/>
<path d="M 99.15 93.19 L 99.85 93.13 L 99.89 93.82 L 99.20 93.88 L 99.15 93.19 Z" fill="#ffffff"/>
<path d="M 94.26 95.06 L 94.97 94.63 L 95.68 95.03 L 95.68 95.85 L 94.98 96.28 L 94.27 95.89 L 94.26 95.06 Z" fill="#ffffff"/>
<path d="M 100.15 95.15 L 100.84 95.12 L 100.86 95.81 L 100.17 95.84 L 100.15 95.15 Z" fill="#ffffff"/>
<path d="M 110.17 98.17 L 110.83 98.16 L 110.84 98.82 L 110.18 98.83 L 110.17 98.17 Z" fill="#ffffff"/>
<path d="M 115.37 98.20 C 116.84 97.16 118.16 99.78 116.11 99.91 C 115.19 99.55 114.95 98.98 115.37 98.20 Z" fill="#ffffff"/>
<path d="M 133.61 99.18 C 133.41 103.03 133.19 106.87 133.41 110.72 C 131.64 110.73 131.33 107.31 131.13 106.02 C 130.99 104.22 131.22 99.51 133.61 99.18 Z" fill="#ffffff"/>
<path d="M 111.17 100.16 L 111.83 100.16 L 111.84 100.81 L 111.18 100.82 L 111.17 100.16 Z" fill="#ffffff"/>
<path d="M 114.12 100.35 C 114.96 100.66 116.16 102.10 116.77 102.84 C 114.91 103.94 112.73 102.27 114.12 100.35 Z" fill="#ffffff"/>
<path d="M 120.58 99.57 C 121.71 99.72 122.84 99.82 123.96 99.88 C 124.71 101.40 124.73 102.78 124.03 104.01 C 122.92 103.71 121.81 103.44 120.69 103.19 C 120.07 102.21 120.04 101.00 120.58 99.57 Z" fill="#ffffff"/>
<path d="M 88.19 102.18 L 88.85 102.18 L 88.84 102.84 L 88.18 102.84 L 88.19 102.18 Z" fill="#ffffff"/>
<path d="M 95.20 102.19 L 95.86 102.18 L 95.87 102.84 L 95.21 102.85 L 95.20 102.19 Z" fill="#ffffff"/>
<path d="M 110.15 102.18 L 110.82 102.18 L 110.82 102.85 L 110.15 102.85 L 110.15 102.18 Z" fill="#ffffff"/>
<path d="M 96.16 104.18 L 96.77 104.14 L 96.79 104.75 L 96.18 104.79 L 96.16 104.18 Z" fill="#ffffff"/>
<path d="M 124.80 103.37 L 126.58 102.98 C 126.65 105.56 126.40 107.86 127.81 110.14 C 129.09 112.50 131.34 113.88 133.53 115.38 C 134.82 121.51 138.67 127.09 145.63 126.59 C 145.92 131.90 145.78 137.75 141.64 141.67 C 136.46 146.47 126.82 141.80 126.74 134.98 C 126.90 133.11 127.68 130.36 130.15 130.90 C 130.12 131.86 130.24 132.82 130.50 133.79 C 132.53 132.40 133.43 129.92 132.38 127.61 C 131.60 126.92 130.70 126.61 130.37 125.59 C 131.24 125.34 132.10 125.08 132.97 124.82 C 132.90 122.21 128.38 124.30 126.70 123.35 C 124.47 122.44 123.36 124.58 121.67 125.71 C 121.28 123.05 121.57 121.08 122.45 118.58 C 122.68 114.61 123.81 110.84 124.04 106.85 C 124.21 105.67 124.46 104.51 124.80 103.37 Z" fill="#ffffff"/>
<path d="M 99.28 105.27 C 99.74 105.76 99.74 105.76 99.28 105.27 Z" fill="#ffffff"/>
<path d="M 120.10 104.87 L 121.17 104.11 C 122.31 105.38 122.63 106.67 122.13 107.99 C 120.80 111.81 122.04 115.67 120.62 119.44 C 120.16 120.61 120.69 124.00 119.03 123.99 C 118.87 121.64 118.54 119.53 119.15 117.17 C 120.06 113.09 119.58 108.97 120.10 104.87 Z" fill="#ffffff"/>
<path d="M 89.20 107.16 L 89.83 107.16 L 89.83 107.79 L 89.20 107.79 L 89.20 107.16 Z" fill="#ffffff"/>
<path d="M 111.86 107.91 C 111.99 109.17 110.08 110.19 108.99 110.09 C 108.73 108.90 110.77 107.24 111.86 107.91 Z" fill="#ffffff"/>
<path d="M 88.16 109.18 L 88.80 109.14 L 88.84 109.79 L 88.20 109.83 L 88.16 109.18 Z" fill="#ffffff"/>
<path d="M 90.16 109.19 L 90.80 109.10 L 90.88 109.74 L 90.24 109.83 L 90.16 109.19 Z" fill="#ffffff"/>
<path d="M 92.23 109.14 L 92.92 109.12 L 92.96 109.78 L 92.27 109.80 L 92.23 109.14 Z" fill="#ffffff"/>
<path d="M 103.32 109.18 L 104.00 108.76 L 104.70 109.15 L 104.72 109.99 L 104.02 110.42 L 103.32 110.02 L 103.32 109.18 Z" fill="#ffffff"/>
<path d="M 106.27 109.14 L 106.97 109.13 L 106.98 109.81 L 106.27 109.82 L 106.27 109.14 Z" fill="#ffffff"/>
<path d="M 89.15 111.16 L 89.81 111.11 L 89.85 111.78 L 89.19 111.83 L 89.15 111.16 Z" fill="#ffffff"/>
<path d="M 91.19 111.18 L 91.87 111.16 L 91.90 111.84 L 91.21 111.86 L 91.19 111.18 Z" fill="#ffffff"/>
<path d="M 101.96 110.95 C 102.65 111.25 103.34 111.53 104.05 111.79 C 105.72 111.36 106.10 111.17 107.10 112.81 L 104.79 112.59 C 106.00 115.54 107.70 118.49 109.76 120.94 L 108.27 121.00 C 107.25 119.14 106.15 117.28 105.15 115.43 C 104.35 115.92 103.84 116.77 103.60 117.97 L 103.34 119.31 L 103.85 118.84 L 103.60 117.97 C 105.54 118.69 106.27 121.57 107.83 123.00 C 106.35 122.83 105.52 121.16 104.01 120.86 C 104.48 122.23 105.07 124.05 106.30 124.91 C 104.82 124.34 103.36 124.40 101.91 125.09 C 102.38 124.26 103.10 123.58 104.07 123.06 C 102.48 120.94 102.34 119.45 102.74 116.89 C 102.41 114.99 102.00 114.51 103.46 112.89 C 102.82 112.32 102.32 111.67 101.96 110.95 Z" fill="#ffffff"/>
<path d="M 108.96 112.27 L 109.66 112.27 L 109.65 112.93 L 108.95 112.92 L 108.96 112.27 Z" fill="#ffffff"/>
<path d="M 86.50 113.50 C 86.50 113.50 86.50 113.50 86.50 113.50 Z" fill="#ffffff"/>
<path d="M 96.29 114.28 C 96.74 114.76 96.74 114.76 96.29 114.28 Z" fill="#ffffff"/>
<path d="M 107.35 114.26 L 108.07 114.18 L 108.13 114.85 L 107.41 114.93 L 107.35 114.26 Z" fill="#ffffff"/>
<path d="M 99.11 116.14 L 99.87 115.75 L 100.57 116.14 L 100.58 116.90 L 99.89 117.35 L 99.11 116.99 L 99.11 116.14 Z" fill="#ffffff"/>
<path d="M 108.20 116.17 L 108.96 115.72 L 109.78 116.03 L 109.83 116.79 L 109.08 117.22 L 108.27 116.92 L 108.20 116.17 Z" fill="#030000"/>
<path d="M 111.04 116.31 L 111.67 116.15 L 111.82 116.77 L 111.20 116.93 L 111.04 116.31 Z" fill="#ffffff"/>
<path d="M 98.51 118.53 C 98.49 118.51 98.49 118.51 98.51 118.53 Z" fill="#ffffff"/>
<path d="M 103.60 117.97 L 103.85 118.84 L 103.34 119.31 L 103.60 117.97 Z" fill="#030000"/>
<path d="M 110.07 118.19 L 110.72 118.07 L 110.84 118.72 L 110.18 118.84 L 110.07 118.19 Z" fill="#ffffff"/>
<path d="M 112.17 118.21 L 112.83 118.17 L 112.87 118.82 L 112.21 118.86 L 112.17 118.21 Z" fill="#ffffff"/>
<path d="M 139.07 118.03 C 141.90 118.79 144.06 121.36 145.06 124.03 C 141.89 125.28 138.81 120.89 139.07 118.03 Z" fill="#ffffff"/>
<path d="M 111.22 120.15 L 111.93 120.12 L 111.96 120.80 L 111.25 120.84 L 111.22 120.15 Z" fill="#ffffff"/>
<path d="M 109.22 122.30 L 109.85 122.20 L 109.93 122.83 L 109.30 122.94 L 109.22 122.30 Z" fill="#ffffff"/>
<path d="M 107.19 124.21 L 107.97 123.79 L 108.78 124.10 L 108.81 124.85 L 108.03 125.28 L 107.22 124.96 L 107.19 124.21 Z" fill="#030000"/>
<path d="M 103.28 126.13 L 103.98 125.70 L 104.68 126.10 L 104.70 126.93 L 104.00 127.37 L 103.29 126.97 L 103.28 126.13 Z" fill="#ffffff"/>
<path d="M 106.15 126.14 L 106.82 126.06 L 106.89 126.73 L 106.22 126.82 L 106.15 126.14 Z" fill="#ffffff"/>
<path d="M 109.08 126.14 L 109.71 126.06 L 109.78 126.69 L 109.15 126.78 L 109.08 126.14 Z" fill="#ffffff"/>
<path d="M 115.26 126.26 L 115.85 126.30 C 115.83 129.51 115.85 132.73 115.84 135.94 L 115.07 135.93 C 115.10 132.71 115.23 129.48 115.26 126.26 Z" fill="#030000"/>
<path d="M 105.07 128.15 L 105.74 128.10 L 105.79 128.76 L 105.12 128.82 L 105.07 128.15 Z" fill="#ffffff"/>
<path d="M 107.21 128.14 L 107.85 128.08 L 107.90 128.72 L 107.26 128.78 L 107.21 128.14 Z" fill="#ffffff"/>
<path d="M 107.14 131.22 L 107.82 131.19 L 107.84 131.87 L 107.16 131.90 L 107.14 131.22 Z" fill="#ffffff"/>
<path d="M 102.21 131.94 L 102.89 131.94 L 102.88 132.65 L 102.21 132.65 L 102.21 131.94 Z" fill="#ffffff"/>
<path d="M 106.14 133.17 L 106.79 133.16 L 106.79 133.81 L 106.14 133.82 L 106.14 133.17 Z" fill="#ffffff"/>
<path d="M 105.08 136.97 C 104.39 139.08 101.65 137.38 100.00 137.48 C 97.52 137.08 95.39 138.38 92.84 138.08 C 92.94 136.80 93.61 136.07 94.86 135.90 C 98.50 135.39 101.78 134.91 105.08 136.97 Z" fill="#ffffff"/>
<path d="M 112.53 135.50 C 112.33 136.16 112.06 136.80 111.69 137.41 C 109.73 137.16 108.03 137.20 106.08 137.59 C 106.33 135.78 107.62 137.06 108.67 135.89 C 110.33 134.32 110.56 134.77 112.53 135.50 Z" fill="#ffffff"/>
<path d="M 90.72 138.51 C 88.64 138.31 86.20 138.68 84.28 137.80 C 85.78 135.78 90.94 134.89 90.72 138.51 Z" fill="#ffffff"/>
<path d="M 85.86 143.41 C 87.46 143.85 89.05 144.32 90.67 144.63 C 90.64 145.62 90.68 146.62 90.78 147.62 C 86.59 148.34 83.21 150.17 78.76 149.28 C 78.95 147.50 81.29 147.53 82.15 146.14 C 83.36 144.89 83.81 143.16 85.86 143.41 Z" fill="#ffffff"/>
<path d="M 103.15 141.85 C 103.89 142.61 104.35 143.61 104.52 144.86 C 105.20 147.11 107.37 147.31 108.56 149.37 C 105.21 149.78 102.06 149.20 98.74 149.08 C 98.49 145.69 100.55 143.62 103.15 141.85 Z" fill="#ffffff"/>
<path d="M 80.34 151.44 C 83.69 151.21 86.92 150.40 90.30 150.43 C 90.81 151.74 91.16 153.07 91.34 154.42 C 87.64 154.93 83.23 156.08 79.60 155.44 C 79.68 154.09 79.92 152.76 80.34 151.44 Z" fill="#ffffff"/>
<path d="M 92.36 150.33 C 102.50 150.78 112.85 151.34 123.03 151.82 C 125.66 151.72 125.82 153.39 126.56 155.47 C 125.43 155.82 124.23 155.96 122.98 155.88 C 113.05 155.41 103.10 155.23 93.16 154.79 C 92.46 153.27 92.20 151.78 92.36 150.33 Z" fill="#ffffff"/>
<path d="M 78.12 152.86 C 78.48 153.98 78.35 154.92 77.71 155.68 C 74.18 157.79 70.70 159.95 67.30 162.27 C 66.22 163.00 63.88 164.64 64.06 162.07 C 68.52 158.83 73.29 155.53 78.12 152.86 Z" fill="#ffffff"/>
<path d="M 89.12 156.32 C 90.74 157.18 91.32 161.41 91.36 163.17 C 86.38 163.63 81.38 164.32 76.39 164.59 C 76.30 162.34 76.91 160.25 77.19 158.05 C 80.93 156.90 85.23 156.95 89.12 156.32 Z" fill="#ffffff"/>
<path d="M 91.56 156.58 C 94.26 155.94 97.22 156.63 100.00 156.52 C 110.07 156.97 120.18 157.08 130.24 157.61 C 131.86 158.92 132.24 162.01 133.01 163.92 C 119.79 163.79 106.36 163.56 93.18 162.93 C 92.59 160.81 92.04 158.72 91.56 156.58 Z" fill="#ffffff"/>
<path d="M 75.31 158.85 C 75.56 160.87 74.91 162.63 74.62 164.59 C 72.71 165.65 70.81 166.75 68.91 167.85 C 67.89 166.96 66.94 166.00 66.05 164.95 C 68.92 162.68 72.15 160.71 75.31 158.85 Z" fill="#ffffff"/>
<path d="M 92.03 164.56 C 92.59 164.47 93.14 164.67 93.67 165.19 C 93.94 166.37 91.72 166.28 91.02 166.40 C 85.41 166.57 79.43 168.04 73.89 167.19 C 72.65 168.40 71.84 169.16 70.26 169.84 L 70.42 168.43 C 72.78 167.38 75.40 166.14 78.00 165.98 C 82.68 165.60 87.35 165.02 92.03 164.56 Z" fill="#ffffff"/>
<path d="M 95.41 164.55 C 107.86 165.02 120.31 165.14 132.76 165.40 L 132.73 166.76 C 120.24 166.32 107.50 166.54 95.06 165.96 L 95.41 164.55 Z" fill="#ffffff"/>
</svg>
