<?xml version="1.0" encoding="UTF-8" standalone="no"?>
<svg xmlns:dc="http://purl.org/dc/elements/1.1/" xmlns:cc="http://creativecommons.org/ns#" xmlns:rdf="http://www.w3.org/1999/02/22-rdf-syntax-ns#" xmlns:svg="http://www.w3.org/2000/svg" xmlns="http://www.w3.org/2000/svg" xmlns:sodipodi="http://sodipodi.sourceforge.net/DTD/sodipodi-0.dtd" xmlns:inkscape="http://www.inkscape.org/namespaces/inkscape" inkscape:version="1.0 (4035a4f, 2020-05-01)" sodipodi:docname="586.svg" id="svg14360" height="200.0pt" width="200.0pt" viewBox="0 0 200 200" version="1.1">
  <metadata id="metadata14366">
    <rdf:RDF>
      <cc:Work rdf:about="">
        <dc:format>image/svg+xml</dc:format>
        <dc:type rdf:resource="http://purl.org/dc/dcmitype/StillImage"/>
      </cc:Work>
    </rdf:RDF>
  </metadata>
  <defs id="defs14364"/>
  <sodipodi:namedview inkscape:current-layer="svg14360" inkscape:cy="133.33333" inkscape:cx="133.33333" inkscape:zoom="1.75125" showgrid="false" id="namedview14362" inkscape:window-height="480" inkscape:window-width="640" inkscape:pageshadow="2" inkscape:pageopacity="0" guidetolerance="10" gridtolerance="10" objecttolerance="10" borderopacity="1" bordercolor="#666666" pagecolor="#ffffff"/>
  <path style="fill:#ffffff;fill-opacity:0" id="path14274" fill="#ffffff" d="M 0.00 0.00 L 23.39 0.00 C 21.10 8.14 19.91 16.62 18.87 25.00 C 15.93 49.72 17.54 74.90 24.09 98.94 C 31.79 127.72 46.50 156.09 68.12 176.87 C 77.56 186.13 88.36 193.46 99.82 200.00 L 0.00 200.00 L 0.00 0.00 Z"/>
  <path id="path14276" fill="#f0ac20" d="M 23.39 0.00 L 23.42 0.00 C 24.73 0.59 26.08 1.09 27.45 1.49 C 43.98 4.89 61.18 5.26 77.83 2.51 C 89.79 0.89 101.81 0.23 113.83 1.56 C 120.94 2.05 127.89 3.66 135.00 4.01 C 145.31 4.64 155.79 4.37 165.99 2.67 C 169.44 2.10 172.79 1.67 176.06 0.36 L 176.37 0.15 L 176.59 0.00 L 176.88 0.00 C 180.07 14.14 182.12 28.50 182.49 43.00 C 183.46 71.23 177.86 99.74 166.67 125.66 C 158.81 143.68 147.88 160.99 133.92 174.92 C 124.01 184.98 112.42 193.19 100.09 200.00 L 99.82 200.00 C 88.36 193.46 77.56 186.13 68.12 176.87 C 46.50 156.09 31.79 127.72 24.09 98.94 C 17.54 74.90 15.93 49.72 18.87 25.00 C 19.91 16.62 21.10 8.14 23.39 0.00 Z"/>
  <path style="fill:#ffffff;fill-opacity:0" id="path14278" fill="#ffffff" d="M 23.42 0.00 L 176.59 0.00 L 176.37 0.15 L 176.06 0.36 C 172.79 1.67 169.44 2.10 165.99 2.67 C 155.79 4.37 145.31 4.64 135.00 4.01 C 127.89 3.66 120.94 2.05 113.83 1.56 C 101.81 0.23 89.79 0.89 77.83 2.51 C 61.18 5.26 43.98 4.89 27.45 1.49 C 26.08 1.09 24.73 0.59 23.42 0.00 Z"/>
  <path style="fill:#ffffff;fill-opacity:0" id="path14280" fill="#ffffff" d="M 176.88 0.00 L 200.00 0.00 L 200.00 200.00 L 100.09 200.00 C 112.42 193.19 124.01 184.98 133.92 174.92 C 147.88 160.99 158.81 143.68 166.67 125.66 C 177.86 99.74 183.46 71.23 182.49 43.00 C 182.12 28.50 180.07 14.14 176.88 0.00 Z"/>
  <path id="path14282" fill="#7c1d21" d="M 25.79 4.86 C 41.90 8.28 58.70 8.91 75.00 6.55 C 90.53 3.99 106.40 3.71 121.98 6.11 C 135.69 8.37 149.72 8.58 163.50 6.72 C 166.98 6.29 170.40 5.38 173.90 5.05 C 174.85 5.81 174.82 7.88 175.18 9.01 C 180.12 34.89 180.47 62.14 174.88 87.95 C 169.15 114.94 157.50 141.57 139.91 162.95 C 128.89 176.41 115.20 187.45 100.01 195.88 C 91.05 190.81 82.55 185.02 74.85 178.16 C 53.36 159.26 38.47 133.10 29.93 105.99 C 19.45 73.33 18.50 38.29 25.79 4.86 Z"/>
  <path id="path14284" fill="#ffffff" d="M 109.99 10.44 C 118.07 10.87 125.92 12.64 133.99 13.22 C 146.01 14.07 158.08 13.47 169.96 11.45 C 172.05 23.54 173.31 35.73 173.42 48.00 C 173.47 50.24 173.06 52.40 172.56 54.57 C 169.38 54.47 166.19 54.45 163.00 54.47 C 117.82 54.55 72.60 54.33 27.43 54.57 C 27.00 52.06 26.62 49.56 26.66 47.00 C 26.79 35.06 28.08 23.21 30.08 11.44 C 45.92 14.14 62.11 14.38 77.97 11.80 C 88.58 10.08 99.28 9.82 109.99 10.44 Z"/>
  <path id="path14286" fill="#f0ac20" d="M 75.81 21.18 C 81.61 26.24 82.05 36.52 77.43 42.48 C 73.36 47.92 64.34 48.17 59.90 43.09 C 55.94 38.57 55.48 32.37 57.24 26.80 C 54.67 26.62 52.14 26.31 49.55 26.47 C 49.55 32.94 49.54 39.40 49.56 45.87 L 48.35 45.78 C 48.49 38.99 48.40 32.19 48.40 25.40 C 50.82 25.41 53.23 25.42 55.65 25.43 C 55.65 23.70 55.66 21.97 55.67 20.24 C 49.12 20.31 42.54 20.07 36.00 20.38 C 35.95 22.04 35.96 23.71 35.96 25.36 C 38.41 25.39 40.86 25.42 43.31 25.44 C 43.35 32.22 43.06 39.05 43.53 45.81 L 42.19 45.94 C 42.21 39.47 42.20 32.99 42.20 26.52 C 39.74 26.50 37.29 26.49 34.83 26.47 C 34.82 24.05 34.82 21.63 34.81 19.20 C 42.13 19.10 49.45 19.19 56.76 19.14 C 56.75 21.01 56.72 22.88 56.71 24.75 C 57.04 25.17 57.36 25.60 57.69 26.02 C 60.19 18.49 69.87 16.32 75.81 21.18 Z"/>
  <path id="path14288" fill="#f0ac20" d="M 151.49 18.69 C 155.27 18.25 159.12 19.45 161.61 22.41 C 166.39 27.91 166.36 37.16 161.78 42.78 C 157.74 47.64 149.82 48.08 145.20 43.81 C 140.91 39.81 139.96 32.89 141.59 27.47 C 142.93 22.89 146.61 19.18 151.49 18.69 Z"/>
  <path id="path14290" fill="#f0ac20" d="M 81.94 19.18 C 86.95 19.23 92.00 18.94 97.00 19.27 C 101.76 19.74 104.86 24.42 104.31 29.03 C 104.18 32.29 102.23 34.11 100.09 36.27 C 101.77 39.56 103.47 42.84 105.10 46.16 C 102.42 46.17 99.74 46.17 97.06 46.15 C 95.48 43.31 94.15 40.27 92.33 37.58 C 91.40 37.29 90.43 37.09 89.43 37.00 C 89.43 40.06 89.44 43.12 89.43 46.17 C 86.92 46.17 84.42 46.17 81.91 46.17 C 82.00 37.17 81.92 28.18 81.94 19.18 Z"/>
  <path id="path14292" fill="#f0ac20" d="M 106.42 19.23 C 108.84 19.04 111.29 19.12 113.72 19.13 C 113.71 28.13 113.71 37.13 113.72 46.13 C 111.26 46.16 108.80 46.14 106.34 46.10 C 106.45 37.15 106.23 28.18 106.42 19.23 Z"/>
  <path id="path14294" fill="#f0ac20" d="M 116.81 19.15 C 119.13 19.15 121.46 19.16 123.79 19.16 C 126.50 23.28 128.95 27.50 131.89 31.46 C 131.91 27.37 131.87 23.28 131.93 19.19 C 134.40 19.16 136.86 19.14 139.33 19.10 C 139.35 28.12 139.34 37.14 139.34 46.16 C 137.20 46.17 135.07 46.18 132.93 46.18 C 130.01 41.93 127.40 37.50 124.34 33.34 C 124.28 37.62 124.33 41.89 124.30 46.17 C 121.80 46.17 119.30 46.17 116.80 46.17 C 116.79 37.16 116.78 28.16 116.81 19.15 Z"/>
  <path id="path14296" fill="#7c1d21" d="M 36.00 20.38 C 42.54 20.07 49.12 20.31 55.67 20.24 C 55.66 21.97 55.65 23.70 55.65 25.43 C 53.23 25.42 50.82 25.41 48.40 25.40 C 48.40 32.19 48.49 38.99 48.35 45.78 C 46.74 45.67 45.13 45.66 43.53 45.81 C 43.06 39.05 43.35 32.22 43.31 25.44 C 40.86 25.42 38.41 25.39 35.96 25.36 C 35.96 23.71 35.95 22.04 36.00 20.38 Z"/>
  <path id="path14298" fill="#7c1d21" d="M 66.15 19.97 C 70.18 19.17 74.53 20.62 76.88 24.09 C 80.72 29.60 80.31 38.59 75.12 43.13 C 70.61 47.08 63.17 46.08 59.84 41.11 C 55.18 34.32 57.09 21.94 66.15 19.97 Z"/>
  <path id="path14300" fill="#7c1d21" d="M 83.29 20.31 C 87.75 20.22 92.33 20.22 96.78 20.42 C 101.39 20.86 103.97 25.72 103.01 30.00 C 102.54 32.80 100.42 34.05 98.49 35.85 C 100.14 38.87 101.71 41.92 103.12 45.06 C 101.44 45.07 99.73 45.12 98.05 44.98 C 95.93 42.27 94.59 38.91 92.91 35.92 C 91.35 35.92 89.80 35.93 88.24 35.94 C 88.24 38.99 88.23 42.04 88.21 45.09 C 86.54 45.06 84.88 45.03 83.21 45.00 C 83.27 36.78 83.03 28.53 83.29 20.31 Z"/>
  <path id="path14302" fill="#7c1d21" d="M 107.54 20.33 C 109.23 20.18 110.94 20.20 112.64 20.19 C 112.60 28.45 112.60 36.72 112.63 44.98 C 110.89 44.95 109.16 44.94 107.42 44.95 C 107.54 36.75 107.27 28.52 107.54 20.33 Z"/>
  <path id="path14304" fill="#7c1d21" d="M 133.29 20.33 C 134.90 20.19 136.53 20.19 138.14 20.16 C 138.35 28.49 138.23 36.82 138.22 45.15 C 136.69 44.91 133.82 45.62 132.93 44.05 C 129.50 39.30 126.72 34.10 123.17 29.43 C 123.04 34.62 123.20 39.82 123.05 45.01 C 121.40 45.02 119.76 45.04 118.12 45.05 C 118.03 36.82 118.22 28.59 118.00 20.37 C 119.69 20.36 121.40 20.23 123.09 20.18 C 126.40 25.26 129.50 30.51 133.09 35.41 C 133.38 30.38 132.98 25.34 133.29 20.33 Z"/>
  <path id="path14306" fill="#7c1d21" d="M 149.34 20.39 C 153.79 18.76 159.07 20.33 161.66 24.37 C 165.08 29.55 164.76 37.85 160.46 42.47 C 155.95 47.18 147.60 46.40 144.21 40.76 C 140.25 34.49 141.54 23.13 149.34 20.39 Z"/>
  <path id="path14308" fill="#f0ac20" d="M 88.33 24.88 C 90.98 24.74 94.12 24.39 96.64 25.32 C 98.89 26.59 99.12 29.51 96.79 30.85 C 94.23 31.83 90.95 31.30 88.23 31.42 C 88.22 29.25 88.14 27.05 88.33 24.88 Z"/>
  <path id="path14310" fill="#f0ac20" d="M 66.32 25.34 C 68.63 24.12 71.38 25.20 72.71 27.33 C 74.85 30.80 74.69 35.84 71.97 38.96 C 69.74 41.14 66.44 40.96 64.49 38.53 C 61.57 35.01 61.98 27.60 66.32 25.34 Z"/>
  <path id="path14312" fill="#f0ac20" d="M 151.17 25.24 C 154.11 23.82 157.19 26.20 158.12 28.98 C 159.49 32.74 158.71 38.65 154.48 40.26 C 151.03 41.29 148.44 38.67 147.60 35.54 C 146.76 32.01 147.37 26.85 151.17 25.24 Z"/>
  <path id="path14314" fill="#ffffff" d="M 67.20 26.26 C 69.62 25.64 71.33 26.76 72.26 28.98 C 73.49 32.05 73.24 37.27 69.92 38.97 C 66.98 40.31 64.67 37.60 64.10 34.95 C 63.31 32.21 64.09 27.30 67.20 26.26 Z"/>
  <path id="path14316" fill="#ffffff" d="M 89.48 26.03 C 91.82 26.41 96.57 25.08 97.49 28.01 C 96.53 31.39 92.06 29.91 89.46 30.28 C 89.46 28.87 89.47 27.45 89.48 26.03 Z"/>
  <path id="path14318" fill="#ffffff" d="M 152.18 26.18 C 156.90 25.34 158.26 31.62 157.32 35.05 C 156.63 38.24 153.63 40.66 150.57 38.39 C 147.36 35.66 147.58 27.36 152.18 26.18 Z"/>
  <path id="path14320" fill="#ffffff" d="M 77.78 58.34 C 78.51 61.56 79.25 63.73 81.55 66.16 C 81.77 63.84 82.13 61.90 83.02 59.75 C 84.11 63.71 86.14 68.40 90.98 68.27 C 98.10 68.32 106.71 69.58 111.38 75.60 C 115.42 80.87 114.74 89.65 115.49 96.00 C 116.38 102.41 116.26 109.56 120.07 114.96 C 122.31 118.15 125.27 121.78 128.96 123.30 C 131.01 124.16 132.86 123.46 131.94 121.00 C 129.78 115.61 125.41 111.54 123.56 105.90 C 128.11 110.94 132.29 116.54 135.49 122.53 C 136.93 125.27 137.74 128.84 135.27 131.27 C 133.66 132.90 131.68 132.58 129.56 132.96 C 129.25 136.25 129.10 139.25 126.94 141.96 C 124.80 144.45 122.21 146.52 120.04 149.01 L 119.64 145.80 C 119.02 146.75 118.18 147.39 118.31 148.62 C 119.06 149.49 119.94 150.28 120.77 151.08 C 121.52 150.63 122.26 150.17 123.00 149.71 C 124.24 151.44 125.41 152.53 124.76 154.82 C 123.78 157.18 119.97 158.49 119.40 161.46 C 118.50 164.66 118.54 166.51 115.40 168.27 C 115.22 169.84 115.06 171.40 114.88 172.97 C 111.15 174.20 108.28 176.54 104.39 174.24 C 107.73 169.28 110.67 164.07 114.24 159.27 C 115.44 157.46 116.57 154.94 115.05 152.97 C 111.23 147.82 104.76 141.69 104.16 135.01 C 103.66 130.81 105.78 128.07 107.80 124.72 C 106.09 126.65 104.10 128.56 103.52 131.18 C 102.91 134.11 103.57 137.38 104.00 140.31 C 102.59 139.83 100.35 139.90 99.40 138.62 C 98.92 137.37 98.64 136.00 98.35 134.69 C 98.05 136.78 98.83 140.56 95.94 141.00 C 91.01 141.86 85.61 140.49 80.77 141.68 C 80.35 142.69 79.93 143.69 79.51 144.70 C 78.38 144.76 77.26 144.85 76.14 144.99 C 75.37 146.30 74.76 147.70 73.98 149.00 C 71.23 150.83 67.82 150.88 64.94 149.29 C 68.13 144.18 72.55 139.88 77.09 135.99 C 80.79 135.35 84.70 135.68 88.45 135.51 C 88.18 131.07 87.81 126.21 88.85 121.86 C 89.80 118.82 94.91 120.80 97.11 120.66 C 94.17 116.16 90.61 112.43 88.98 107.17 C 94.47 108.06 99.33 110.01 104.29 106.36 C 101.81 106.85 99.52 107.67 96.98 107.30 C 88.03 106.08 79.83 99.66 70.93 98.70 C 69.42 99.25 67.99 100.07 66.56 100.81 C 66.45 102.20 66.83 103.89 66.07 105.09 C 63.33 106.80 60.33 107.83 57.23 106.36 C 58.96 103.65 60.58 100.91 62.15 98.10 C 63.23 96.25 64.63 94.43 66.95 94.23 C 71.35 93.85 75.86 94.31 80.27 94.54 C 82.47 96.12 84.68 96.81 87.31 97.35 C 84.98 96.25 82.58 95.30 80.26 94.17 C 83.25 94.00 86.18 94.25 89.14 94.70 C 87.58 89.68 92.42 89.60 93.26 85.11 C 91.32 87.23 90.23 89.35 87.02 89.58 C 84.53 89.89 84.32 90.44 83.03 92.49 C 81.42 92.54 80.14 92.07 79.20 91.09 C 79.93 90.38 80.65 89.66 81.35 88.92 C 80.66 88.76 79.97 88.55 79.28 88.29 C 78.88 89.33 78.48 90.37 78.10 91.41 C 77.01 91.17 76.48 90.37 76.51 89.01 C 76.52 84.91 78.07 81.16 77.72 77.02 C 77.52 74.90 78.21 73.02 78.82 71.03 C 75.68 67.25 76.01 62.65 77.78 58.34 Z"/>
  <path id="path14322" fill="#f0ac20" d="M 121.03 62.44 C 127.16 62.33 133.29 62.54 139.42 62.46 C 139.42 64.82 139.42 67.18 139.42 69.54 C 135.54 69.49 131.66 69.50 127.78 69.56 L 127.80 71.25 C 130.11 71.26 132.43 71.26 134.75 71.26 C 134.73 73.61 134.72 75.96 134.71 78.31 C 132.40 78.33 130.10 78.37 127.80 78.41 C 127.82 81.49 127.83 84.56 127.83 87.64 C 125.52 87.64 123.20 87.65 120.89 87.66 C 120.81 79.30 120.44 70.77 121.03 62.44 Z"/>
  <path id="path14324" fill="#f0ac20" d="M 159.42 63.60 C 161.39 64.87 162.58 66.98 163.89 68.87 C 161.88 69.93 159.65 71.07 157.53 71.81 C 156.50 70.74 155.51 69.14 154.03 68.71 C 148.47 68.84 148.03 78.64 152.22 80.77 C 155.23 82.16 156.32 79.33 157.88 77.44 C 159.92 78.60 161.96 79.76 163.99 80.92 C 162.31 83.41 161.02 85.78 158.15 87.07 C 153.92 88.77 148.59 88.14 145.58 84.44 C 141.32 79.38 141.31 70.60 145.57 65.53 C 148.83 61.52 155.18 60.76 159.42 63.60 Z"/>
  <path id="path14326" fill="#ffffff" d="M 46.15 63.82 C 48.76 65.70 48.09 70.01 46.06 72.06 C 44.57 73.71 42.73 73.72 40.69 74.13 C 41.31 72.06 43.72 71.52 45.44 70.55 C 42.92 69.95 39.92 70.40 39.59 67.01 C 39.32 63.42 43.48 62.06 46.15 63.82 Z"/>
  <path id="path14328" fill="#ffffff" d="M 52.17 63.24 C 58.27 61.57 59.58 71.79 54.90 73.88 C 52.41 75.09 49.98 73.09 49.36 70.69 C 48.68 68.04 49.26 64.29 52.17 63.24 Z"/>
  <path id="path14330" fill="#ffffff" d="M 66.04 62.96 C 65.63 65.30 63.32 65.46 61.59 66.55 C 63.50 67.15 65.99 66.97 66.93 69.08 C 68.50 72.54 64.28 75.44 61.26 73.73 C 58.06 72.20 58.53 67.81 60.48 65.47 C 61.96 63.66 63.91 63.44 66.04 62.96 Z"/>
  <path id="path14332" fill="#ffffff" d="M 152.99 63.14 C 157.30 62.75 159.85 65.12 162.41 68.21 C 161.05 68.91 159.68 69.61 158.31 70.30 C 156.33 68.86 154.80 66.82 152.05 67.94 C 146.94 69.95 147.01 79.98 152.07 82.03 C 155.15 83.01 156.48 81.06 158.43 79.20 C 159.74 79.89 161.05 80.60 162.36 81.30 C 160.26 84.85 157.30 87.12 152.99 86.80 C 146.80 86.55 143.50 80.65 143.55 75.00 C 143.51 69.29 146.74 63.40 152.99 63.14 Z"/>
  <path id="path14334" fill="#ffffff" d="M 36.03 63.51 L 37.66 62.81 C 37.77 66.50 37.74 70.20 37.72 73.89 L 35.89 73.80 C 35.92 70.38 35.73 66.92 36.03 63.51 Z"/>
  <path id="path14336" fill="#ffffff" d="M 121.93 63.59 C 127.37 63.51 132.81 63.52 138.24 63.66 C 138.24 65.21 138.24 66.77 138.24 68.32 C 134.38 68.33 130.51 68.32 126.64 68.31 C 126.65 69.65 126.67 70.99 126.68 72.33 C 128.98 72.34 131.28 72.36 133.59 72.37 C 133.55 73.97 133.52 75.56 133.48 77.16 C 131.20 77.15 128.92 77.17 126.65 77.16 C 126.68 80.27 126.69 83.38 126.69 86.48 C 125.10 86.46 123.52 86.43 121.93 86.40 C 121.94 78.79 121.94 71.19 121.93 63.59 Z"/>
  <path id="path14338" fill="#7c1d21" d="M 42.18 65.25 C 43.99 64.55 45.59 64.99 46.15 66.95 C 45.16 68.33 43.48 69.07 42.02 67.95 C 41.14 67.22 41.09 65.85 42.18 65.25 Z"/>
  <path id="path14340" fill="#7c1d21" d="M 52.28 65.25 C 56.54 62.86 57.40 72.90 52.97 72.40 C 50.37 71.59 50.23 66.61 52.28 65.25 Z"/>
  <path id="path14342" fill="#7c1d21" d="M 61.35 69.39 C 62.67 68.27 65.50 68.68 65.37 70.69 C 65.16 73.76 59.02 72.01 61.35 69.39 Z"/>
  <path id="path14344" fill="#7c1d21" d="M 79.54 69.40 C 81.90 69.92 84.83 70.28 86.72 71.85 C 83.71 71.78 81.93 71.15 79.54 69.40 Z"/>
  <path id="path14346" fill="#7c1d21" d="M 95.44 71.75 C 95.32 72.49 95.14 73.21 94.91 73.91 C 92.66 74.61 90.10 74.65 87.77 74.64 C 89.44 73.87 91.21 73.51 92.98 73.08 C 93.81 72.65 94.62 72.20 95.44 71.75 Z"/>
  <path id="path14348" fill="#7c1d21" d="M 83.81 76.35 C 83.42 77.12 83.05 77.90 82.70 78.69 C 81.73 79.37 80.24 79.23 79.11 79.42 C 80.65 78.35 82.21 77.32 83.81 76.35 Z"/>
  <path id="path14350" fill="#ffffff" d="M 123.95 93.75 C 127.61 93.22 131.61 94.39 134.75 96.27 C 137.62 98.02 138.84 101.33 137.53 104.49 C 136.11 107.93 135.10 110.45 135.85 114.28 C 134.27 111.46 131.97 109.47 129.80 107.16 C 128.28 104.16 130.25 102.73 132.03 100.64 C 129.92 96.31 124.75 94.69 120.42 96.77 C 121.53 95.55 122.15 93.95 123.95 93.75 Z"/>
  <path id="path14352" fill="#7c1d21" d="M 131.31 95.87 C 133.47 97.30 136.10 98.20 136.36 101.16 C 136.43 103.90 134.81 106.79 133.83 109.31 C 131.45 106.92 135.81 102.77 134.37 99.94 C 133.60 98.47 132.36 97.17 131.31 95.87 Z"/>
  <path id="path14354" fill="#ffffff" d="M 72.60 99.89 C 74.20 100.20 75.80 100.52 77.40 100.86 C 76.81 102.78 76.19 104.69 75.63 106.62 C 76.65 107.71 78.06 108.74 78.73 110.10 C 78.29 113.59 76.73 115.93 73.84 117.88 C 72.42 114.02 71.15 110.02 70.24 106.00 C 69.87 103.45 70.98 101.70 72.60 99.89 Z"/>
  <path id="path14356" fill="#7c1d21" d="M 114.40 100.53 C 114.89 104.79 115.30 108.93 117.07 112.90 C 118.77 117.23 121.63 120.39 124.05 124.27 C 116.24 118.54 112.85 110.13 114.40 100.53 Z"/>
  <path id="path14358" fill="#7c1d21" d="M 127.96 132.46 C 128.28 137.86 127.00 141.28 122.35 144.25 C 124.98 140.72 126.13 138.53 126.28 134.04 C 126.83 133.51 127.39 132.98 127.96 132.46 Z"/>
</svg>