<svg height="374.521917" viewBox="0 0 749.98669 1052.0907" width="267.00707" xmlns="http://www.w3.org/2000/svg" xmlns:xlink="http://www.w3.org/1999/xlink"><clipPath id="a"><path d="m0 789.068h562.49v-789.068h-562.49z"/></clipPath><g clip-path="url(#a)" transform="matrix(1.3333333 0 0 -1.3333333 0 1052.0907)"><path d="m0 0v-67.38c-24.22 3.03-45.72 7.62-63 13.38v67.37c15.43-5.73 37.24-10.38 63-13.37" fill="#fff" transform="translate(215.3665 721.4893)"/><path d="m0 0v-67.53c-16.479-1.54-33.979-2.37-52.149-2.37-20.221 0-39.611 1.03-57.681 2.92v67.46c17.83-1.71 37.29-2.66 57.681-2.66 18.309 0 35.839.78 52.149 2.18" fill="#fff" transform="translate(334.9861 719.9692)"/><path d="m0 0v-67.29c-18.24-5.87-40.91-10.47-66.4-13.36v67.45c26.981 2.83 49.99 7.42 66.4 13.2" fill="#fff" transform="translate(411.1765 734.0894)"/><path d="m0 0c-.09-45.04-3.479-152.22-29.62-272.01-18.09-82.89-43.739-156.17-76.23-217.83-38.45-72.96-86.719-129.88-143.569-169.3-6.621 4.25-18.131 12.31-32.561 25.15-21.28 18.94-53.46 52.44-85.89 104.47-36.53 58.62-65.919 128.32-87.35 207.16-25.76 94.73-40.03 202.97-42.46 321.94 11.75-8.2 30.79-20.18 56.49-32.17 41-19.13 107.63-41.94 192.181-41.94 84.538 0 150.38 22.3 190.72 41.01 27.519 12.76 47.169 25.52 58.289 33.52" fill="#ed1639" transform="translate(530.2068 694.6592)"/><path d="m0 0c23.784-5.765 64.159-9.202 108.216-9.202 44.413 0 85.075 3.491 108.772 9.338l.295.072.037.005c17.603 4.394 17.806 8.147 17.806 8.306 0 .895-1.842 3.083-8.745 5.601-20.189 7.361-66.57 12.118-118.165 12.118-51.59 0-97.967-4.757-118.153-12.118-6.905-2.519-8.747-4.706-8.747-5.601 0-1.355 3.783-4.848 18.098-8.373zm-18.684-69.561c16.151-5.224 36.108-9.473 58-12.349v62.317c-23.142 2.796-43.057 6.935-58 12.047zm192.41-13.053c23.1 2.758 44.23 7.018 61.4 12.383v61.973c-15.886-5.179-36.974-9.289-61.4-11.96zm-119.62-1c17.76-1.777 36.311-2.678 55.18-2.678 16.901 0 33.592.724 49.651 2.152v62.531c-16.092-1.303-32.782-1.963-49.651-1.963-18.965 0-37.514.813-55.18 2.416zm-192.524 34.175c2.711-116.835 16.927-223.281 42.267-316.466 21.367-78.608 50.658-148.082 87.059-206.494 32.268-51.772 64.268-85.09 85.43-103.925 13.139-11.691 23.827-19.402 30.849-24.005 55.902 39.138 103.471 95.467 141.408 167.453 32.392 61.473 57.962 134.549 75.999 217.197 25.459 116.666 29.223 222.141 29.54 266.637-11.943-8.272-30.245-19.602-54.715-30.948-40.565-18.814-106.764-41.241-191.772-41.241-85.007 0-152.004 22.934-193.238 42.174-23.241 10.843-41.053 21.683-52.827 29.618m239.14-682.031c-2.746 1.429-68.025 36.194-134.033 141.228-38.257 60.889-68.983 133.138-91.324 214.74-27.776 101.475-42.626 217.88-44.138 345.981v.169c0 5.553 2.32 13.018 8.832 17.317 1.823 1.2 4.868 3.204 9.484 3.204 1.29 0 2.639-.16 4.011-.475 2.104-.484 4.229-1.386 6.316-2.684l1.349-.838c1.841-1.145 3.644-2.393 5.361-3.71 5.623-4.315 26.669-19.643 61.388-35.735 9.17-4.249 18.694-8.226 28.359-11.841v80.582c0 8.947 15.41 16.323 45.8 21.924 28.363 5.228 66.04 8.107 106.089 8.107 40.051 0 77.729-2.879 106.095-8.107 30.395-5.601 45.806-12.977 45.806-21.924v-80.368c56.48 21.352 87.843 47.552 89.175 48.678 2.32 2.066 8.663 6.97 16.39 6.97 2.505 0 4.947-.52 7.257-1.544 4.157-1.848 11.127-6.843 11.127-19.556 0-.103.02-1.097.02-1.097.471-33.815-.315-154.759-30.188-291.636-18.618-85.302-45.117-160.926-78.759-224.771-42.088-79.855-95.651-141.698-159.201-183.81l-7.38-4.883z" fill="#fff" transform="translate(173.5506 738.8608)"/><path d="m0 0c85.463 0 152.031 22.554 192.824 41.474 22.058 10.228 39.146 20.449 51.118 28.459-.554-46.858-4.899-148.897-29.438-261.347-17.989-82.43-43.481-155.292-75.767-216.565-37.435-71.031-84.271-126.726-139.239-165.592-6.932 4.636-16.97 12.012-29.145 22.846-21.04 18.726-52.86 51.863-84.971 103.379-36.272 58.206-65.465 127.456-86.768 205.827-24.939 91.714-39.081 196.327-42.062 311.076 11.742-7.663 28.273-17.407 49.153-27.148 41.464-19.347 108.832-42.409 194.295-42.409m-51.041 42.385v57.46c16.919-1.45 34.612-2.185 52.68-2.185 15.998 0 31.832.591 47.15 1.758v-57.533c-15.282-1.291-31.121-1.945-47.15-1.945-17.99 0-35.688.822-52.68 2.445m119.621 58.892c22.023 2.508 41.285 6.197 56.399 10.789v-56.72c-15.998-4.852-35.319-8.758-56.399-11.404zm-192.411-45.279v56.731c14.185-4.508 32.273-8.198 53-10.801v-57.248c-19.862 2.739-38.012 6.614-53 11.318m.54 76.253c.861.686 2.722 1.851 6.564 3.251 19.934 7.27 65.975 11.968 117.296 11.968 51.327 0 97.373-4.698 117.308-11.968 3.839-1.4 5.701-2.564 6.561-3.25-1.345-1.065-5.124-3.296-15.053-5.802h-.001l-.041-.01h-.01l-.59-.146c-23.513-5.801-63.951-9.264-108.174-9.264-43.671 0-83.66 3.379-107.303 9.053l-.901.222c-10.381 2.556-14.285 4.859-15.656 5.946m123.86 40.479c-40.196 0-78.034-2.894-106.542-8.148-14.093-2.598-25.232-5.654-33.105-9.084-4.368-1.903-7.656-3.877-10.053-6.036-3.111-2.801-4.689-5.918-4.689-9.262v-76.961c-8.447 3.245-16.765 6.761-24.808 10.488-34.483 15.982-55.345 31.174-60.917 35.45-1.784 1.368-3.655 2.663-5.563 3.849l-1.35.839c-2.321 1.443-4.701 2.451-7.076 2.997-1.554.357-3.091.538-4.57.538-5.365 0-8.937-2.351-10.855-3.614-7.346-4.849-9.961-13.204-9.961-19.406v-.14-.03-.029c1.515-128.316 16.395-244.932 44.227-346.612 22.405-81.839 53.231-154.313 91.618-215.41 66.365-105.601 132.226-140.674 134.997-142.115l6.528-3.399 2.612-1.36 2.456 1.625 6.151 4.069c63.907 42.349 117.748 104.5 160.035 184.729 33.748 64.048 60.324 139.885 78.99 225.406 29.931 137.145 30.717 258.323 30.245 292.196l-.012.608c-.005.215-.008.371-.008.462 0 14.653-8.818 20.154-12.609 21.839-2.637 1.168-5.419 1.76-8.274 1.76-8.529 0-15.425-5.274-18.048-7.597-1.807-1.52-31.573-26.162-85.018-46.916v76.734c0 8.875-11.097 13.709-14.744 15.298-7.874 3.43-19.014 6.486-33.109 9.084-28.511 5.254-66.35 8.148-106.548 8.148m-.569-167.73c-84.551 0-151.181 22.81-192.181 41.94-25.699 11.99-44.739 23.97-56.489 32.17 2.429-118.97 16.699-227.21 42.46-321.94 21.43-78.84 50.819-148.54 87.349-207.16 32.43-52.031 64.61-85.531 85.89-104.47 14.43-12.84 25.94-20.9 32.561-25.15 56.85 39.42 105.119 96.339 143.57 169.299 32.49 61.661 58.139 134.941 76.229 217.831 26.141 119.79 29.53 226.97 29.62 272.01-11.12-8-30.77-20.76-58.289-33.52-40.34-18.71-106.181-41.01-190.72-41.01m1.639 29.94c18.171 0 35.671.83 52.15 2.37v67.53c-16.31-1.4-33.84-2.18-52.15-2.18-20.39 0-39.85.95-57.68 2.66v-67.46c18.07-1.89 37.46-2.92 57.68-2.92m61.94 3.37c25.49 2.89 48.16 7.49 66.4 13.36v67.29c-16.41-5.78-39.419-10.37-66.4-13.2zm-129.41.67v67.38c-25.76 2.99-47.57 7.64-63 13.37v-67.37c17.28-5.76 38.78-10.35 63-13.38m66.4 73.05c46.021 0 86.431 3.75 109.371 9.41.019 0 .039.01.06.01 12.65 3.13 19.979 6.83 19.979 10.8 0 2.82-3.699 5.51-10.389 7.95-19.771 7.21-65.62 12.27-119.021 12.27-53.4 0-99.24-5.06-119.009-12.27-6.69-2.44-10.391-5.13-10.391-7.95 0-3.97 7.33-7.68 20-10.8.011-.01.02-.01.03-.01 22.951-5.66 63.361-9.41 109.37-9.41m0 55.7c82.511 0 149.401-12.33 149.401-27.53v-83.97c58.739 21.62 91.61 48.95 93.289 50.37 2.114 1.881 7.897 6.379 14.777 6.379 2.008 0 4.112-.384 6.243-1.329 3.6-1.6 9.64-5.97 9.64-17.27 0-.18.01-.57.02-1.14.471-33.72-.3-154.38-30.13-291.06-18.57-85.08-44.99-160.491-78.529-224.14-41.891-79.48-95.171-141.011-158.37-182.891l-6.151-4.069-6.53 3.399c-2.73 1.42-67.48 35.971-133.07 140.34-38.12 60.671-68.749 132.691-91.03 214.071-27.719 101.27-42.54 217.46-44.049 345.35v.14c0 4.91 2.03 11.48 7.71 15.23 1.813 1.194 4.326 2.79 8.106 2.79 1.048 0 2.195-.123 3.451-.411 1.974-.454 3.836-1.301 5.556-2.37l1.349-.839c1.78-1.106 3.497-2.294 5.159-3.57 6.461-4.957 27.373-20.036 61.859-36.02 9.28-4.3 19.939-8.8 31.91-13.16v84.17c0 15.2 66.88 27.53 149.389 27.53" fill="#ec173a" transform="translate(281.1975 615.1294)"/><path d="m0 0c0-3.97-7.329-7.67-19.979-10.8-.021 0-.041-.01-.06-.01-22.94-5.66-63.35-9.41-109.371-9.41-46.009 0-86.419 3.75-109.37 9.41-.01 0-.019 0-.03.01-12.67 3.12-20 6.83-20 10.8 0 2.82 3.701 5.51 10.391 7.95 19.769 7.21 65.609 12.27 119.009 12.27 53.401 0 99.25-5.06 119.021-12.27 6.69-2.44 10.389-5.13 10.389-7.95" fill="#ed1639" transform="translate(411.1765 747.3794)"/><path d="m0 0v-67.38c-24.22 3.03-45.72 7.62-63 13.38v67.37c15.43-5.73 37.24-10.38 63-13.37" fill="#ed1639" transform="translate(215.3665 721.4893)"/><path d="m0 0v-67.53c-16.479-1.54-33.979-2.37-52.149-2.37-20.221 0-39.611 1.03-57.681 2.92v67.46c17.83-1.71 37.29-2.66 57.681-2.66 18.309 0 35.839.78 52.149 2.18" fill="#ed1639" transform="translate(334.9861 719.9692)"/><path d="m0 0v-67.29c-18.24-5.87-40.91-10.47-66.4-13.36v67.45c26.981 2.83 49.99 7.42 66.4 13.2" fill="#ed1639" transform="translate(411.1765 734.0894)"/><g fill="#fff"><path d="m0 0c-3.209 0-6.04-1.595-7.758-4.032-1.335 2.721-3.627 4.883-6.448 6.036 2.818 1.644 4.717 4.691 4.717 8.19 0 5.242-4.247 9.486-9.488 9.486-5.239 0-9.487-4.244-9.487-9.486 0-3.525 1.926-6.592 4.778-8.228-3.062-1.282-5.493-3.758-6.729-6.843-1.62 2.909-4.723 4.877-8.29 4.877-5.239 0-9.488-4.244-9.488-9.486 0-5.241 4.249-9.485 9.488-9.485 3.567 0 6.67 1.969 8.29 4.877 1.265-3.156 3.785-5.668 6.947-6.923-2.974-1.6-4.996-4.74-4.996-8.357 0-5.24 4.248-9.484 9.487-9.484 5.241 0 9.488 4.244 9.488 9.484 0 3.59-1.992 6.71-4.931 8.322 2.917 1.129 5.294 3.324 6.662 6.113 1.718-2.436 4.549-4.032 7.758-4.032 5.24 0 9.486 4.244 9.486 9.485 0 5.242-4.246 9.486-9.486 9.486" transform="translate(299.3221 692.9692)"/><path d="m0 0c-3.208 0-6.039-1.595-7.756-4.03-1.335 2.72-3.628 4.882-6.449 6.034 2.817 1.644 4.716 4.691 4.716 8.19 0 5.242-4.247 9.487-9.486 9.487-5.241 0-9.489-4.245-9.489-9.487 0-3.524 1.926-6.591 4.778-8.227-3.062-1.282-5.493-3.758-6.729-6.843-1.62 2.908-4.723 4.876-8.289 4.876-5.24 0-9.488-4.244-9.488-9.486 0-5.24 4.248-9.485 9.488-9.485 3.566 0 6.669 1.969 8.289 4.877 1.265-3.157 3.785-5.668 6.947-6.923-2.974-1.6-4.996-4.74-4.996-8.356 0-5.24 4.248-9.485 9.489-9.485 5.239 0 9.486 4.245 9.486 9.485 0 3.589-1.992 6.709-4.93 8.321 2.917 1.129 5.294 3.323 6.663 6.112 1.717-2.436 4.548-4.031 7.756-4.031 5.24 0 9.487 4.245 9.487 9.485 0 5.242-4.247 9.486-9.487 9.486" transform="translate(202.4187 701.8442)"/><path d="m0 0c-3.208 0-6.038-1.595-7.755-4.032-1.336 2.721-3.628 4.884-6.45 6.036 2.817 1.644 4.716 4.691 4.716 8.19 0 5.242-4.246 9.486-9.486 9.486-5.241 0-9.489-4.244-9.489-9.486 0-3.525 1.927-6.592 4.779-8.227-3.061-1.282-5.493-3.759-6.728-6.845-1.62 2.909-4.724 4.878-8.291 4.878-5.239 0-9.487-4.244-9.487-9.486 0-5.24 4.248-9.485 9.487-9.485 3.568 0 6.671 1.969 8.291 4.878 1.265-3.157 3.783-5.669 6.945-6.924-2.973-1.601-4.996-4.74-4.996-8.356 0-5.241 4.248-9.485 9.489-9.485 5.24 0 9.486 4.244 9.486 9.485 0 3.589-1.991 6.708-4.928 8.32 2.917 1.13 5.293 3.325 6.661 6.114 1.718-2.436 4.548-4.032 7.756-4.032 5.24 0 9.486 4.245 9.486 9.485 0 5.242-4.246 9.486-9.486 9.486" transform="translate(397.3269 701.3203)"/><path d="m0 0c0-4.433-3.591-8.027-8.027-8.027-4.433 0-8.029 3.594-8.029 8.027 0 4.435 3.596 8.027 8.029 8.027 4.436 0 8.027-3.592 8.027-8.027" transform="translate(242.2835 314.5093)"/><path d="m0 0c0-4.434-3.592-8.027-8.027-8.027-4.434 0-8.029 3.593-8.029 8.027 0 4.435 3.595 8.026 8.029 8.026 4.435 0 8.027-3.591 8.027-8.026" transform="translate(226.2298 296.9976)"/><path d="m0 0c0-4.434-3.592-8.027-8.027-8.027-4.434 0-8.029 3.593-8.029 8.027 0 4.435 3.595 8.026 8.029 8.026 4.435 0 8.027-3.591 8.027-8.026" transform="translate(259.3655 296.9976)"/><path d="m0 0c0-4.433-3.591-8.026-8.027-8.026-4.433 0-8.029 3.593-8.029 8.026 0 4.436 3.596 8.027 8.029 8.027 4.436 0 8.027-3.591 8.027-8.027" transform="translate(242.2835 280.0737)"/><path d="m0 0c0-5.212-4.222-9.434-9.433-9.434s-9.433 4.222-9.433 9.434c0 5.21 4.222 9.432 9.433 9.432s9.433-4.222 9.433-9.432" transform="translate(243.7654 297.0503)"/><path d="m0 0c-9.873 0-17.906 7.897-17.906 17.607s8.033 17.61 17.906 17.61c9.872 0 17.903-7.9 17.903-17.61s-8.031-17.607-17.903-17.607m0 31.948c-8.071 0-14.636-6.43-14.636-14.341 0-7.905 6.565-14.338 14.636-14.338s14.635 6.433 14.635 14.338c0 7.911-6.564 14.341-14.635 14.341" transform="translate(189.4495 279.3638)"/><path d="m0 0c-1.984-2.437-6.499-2.039-10.082.879-3.592 2.922-4.888 7.262-2.905 9.7 1.984 2.434 6.496 2.039 10.083-.884 3.585-2.918 4.886-7.259 2.904-9.695" transform="translate(198.9475 295.3755)"/><path d="m263.293 273.777h14.866v48.763h-14.866zm7.73 4.127c-3.063 0-5.549 2.176-5.549 4.856 0 2.681 2.486 4.858 5.549 4.858 3.065 0 5.55-2.177 5.55-4.858 0-2.68-2.485-4.856-5.55-4.856m0 14.29c-3.063 0-5.549 2.176-5.549 4.856 0 2.681 2.486 4.856 5.549 4.856 3.065 0 5.55-2.175 5.55-4.856 0-2.68-2.485-4.856-5.55-4.856m0 14.288c-3.063 0-5.549 2.173-5.549 4.856 0 2.682 2.486 4.856 5.549 4.856 3.065 0 5.55-2.174 5.55-4.856 0-2.683-2.485-4.856-5.55-4.856"/><path d="m0 0h-150.403l-1.983 63.52h155.521zm-147.235 3.268h144.125l2.81 56.985h-148.712z" transform="translate(356.4178 265.8022)"/><path d="m0 0c0-4.433 3.592-8.027 8.027-8.027s8.029 3.594 8.029 8.027c0 4.435-3.594 8.027-8.029 8.027-4.435 0-8.027-3.592-8.027-8.027" transform="translate(319.2205 314.5093)"/><path d="m0 0c0-4.434 3.591-8.027 8.027-8.027 4.433 0 8.03 3.593 8.03 8.027 0 4.435-3.597 8.026-8.03 8.026-4.436 0-8.027-3.591-8.027-8.026" transform="translate(335.2762 296.9976)"/><path d="m0 0c0-4.434 3.592-8.027 8.027-8.027 4.433 0 8.03 3.593 8.03 8.027 0 4.435-3.597 8.026-8.03 8.026-4.435 0-8.027-3.591-8.027-8.026" transform="translate(302.1404 296.9976)"/><path d="m0 0c0-4.433 3.592-8.026 8.027-8.026s8.029 3.593 8.029 8.026c0 4.436-3.594 8.027-8.029 8.027-4.435 0-8.027-3.591-8.027-8.027" transform="translate(319.2205 280.0737)"/><path d="m0 0c0-5.212 4.222-9.434 9.432-9.434 5.213 0 9.434 4.222 9.434 9.434 0 5.21-4.221 9.432-9.434 9.432-5.21 0-9.432-4.222-9.432-9.432" transform="translate(317.741 297.0503)"/><path d="m0 0c-9.874 0-17.905 7.897-17.905 17.607s8.031 17.61 17.905 17.61c9.872 0 17.905-7.9 17.905-17.61s-8.033-17.607-17.905-17.607m0 31.948c-8.072 0-14.637-6.43-14.637-14.341 0-7.905 6.565-14.338 14.637-14.338 8.07 0 14.637 6.433 14.637 14.338 0 7.911-6.567 14.341-14.637 14.341" transform="translate(372.0564 279.3638)"/><path d="m0 0c2.436 1.984 2.038 6.498-.88 10.082-2.922 3.591-7.261 4.887-9.698 2.904-2.435-1.984-2.04-6.496.883-10.082 2.918-3.586 7.258-4.887 9.695-2.904" transform="translate(382.656 293.6362)"/><path d="m283.348 273.777h14.863v48.763h-14.863zm7.134 4.127c-3.064 0-5.549 2.176-5.549 4.856 0 2.681 2.485 4.858 5.549 4.858 3.065 0 5.549-2.177 5.549-4.858 0-2.68-2.484-4.856-5.549-4.856m0 14.29c-3.064 0-5.549 2.176-5.549 4.856 0 2.681 2.485 4.856 5.549 4.856 3.065 0 5.549-2.175 5.549-4.856 0-2.68-2.484-4.856-5.549-4.856m0 14.288c-3.064 0-5.549 2.173-5.549 4.856 0 2.682 2.485 4.856 5.549 4.856 3.065 0 5.549-2.174 5.549-4.856 0-2.683-2.484-4.856-5.549-4.856"/><path d="m0 0c-10.893 0-19.754 9.454-19.754 21.074 0 11.622 8.861 21.078 19.754 21.078 10.892 0 19.754-9.456 19.754-21.078 0-11.62-8.862-21.074-19.754-21.074m0 38.884c-9.091 0-16.485-7.99-16.485-17.81 0-9.819 7.394-17.807 16.485-17.807 9.09 0 16.487 7.988 16.487 17.807 0 9.82-7.397 17.81-16.487 17.81" transform="translate(280.1995 400.9414)"/><path d="m0 0c2.436 1.984 2.041 6.499-.879 10.082-2.923 3.592-7.264 4.888-9.699 2.905-2.434-1.984-2.04-6.496.881-10.083 2.92-3.586 7.259-4.886 9.697-2.904" transform="translate(289.7049 420.3511)"/><path d="m0 0h-33.957l-.446.915c-21.223 43.454-.11 76.182.107 76.508l.483.73h33.126l.418-1.005c16.897-40.68.874-75.856.71-76.204zm-31.91 3.268h29.795c2.322 5.699 13.423 36.391-.76 71.617h-29.141c-2.849-4.908-17.857-33.887.106-71.617" transform="translate(298.4021 326.0552)"/><path d="m0 0h14.936s9.118-4.447 7.846-29.773c-1.268-25.324-4.989-31.768-4.989-31.768s-24.6 8.353-24.509 37.942c0 0-.097 16.738 6.716 23.599" transform="translate(275.8445 396.0391)"/><path d="m0 0-22.585 27.471v186.409h3.27v-185.241l19.274-23.447 19.063 23.885 4.378 184.842 3.266-.077-4.402-185.942z" transform="translate(280.3138 53.5562)"/><path d="m0 0h15.857l-3.206-176.663-13.806-19.582z" transform="translate(282.3553 261.7007)"/><path d="m0 0 4.715-18.385h-12.917c3.425 13.105 5.327 20.522 5.704 22.25s.597 2.97.66 3.725h.471c.251-2.358.707-4.888 1.367-7.59m33.564-45.303-21.92 67.601h-25.268l-23.287-67.601h22.015l3.205 12.445h20.176l2.971-12.445zm-74.435 53.411v14.19h-53.789v-15.934h29.274l-31.207-37.383v-14.284h56.712v15.934h-30.549zm-65.244-53.411v67.601h-18.858v-30.312c0-3.394.095-5.783.284-7.166h-.189c-.188.44-.464.943-.825 1.509-.361.565-.746 1.147-1.154 1.744-.41.597-.818 1.179-1.226 1.744-.409.566-.754 1.053-1.037 1.462l-22.864 31.019h-19.234v-67.601h18.857v28.379c0 4.148-.094 7.888-.284 11.22h.19c1.193-2.075 2.733-4.401 4.62-6.977l23.853-32.622zm-97.819 24.231c-1.037-2.578-2.498-4.558-4.384-5.94-1.886-1.384-4.007-2.075-6.364-2.075-3.866 0-6.923 1.54-9.169 4.62-2.248 3.08-3.371 7.37-3.371 12.87 0 5.625 1.132 9.978 3.394 13.058 2.263 3.08 5.422 4.62 9.476 4.62 3.708 0 6.631-1.603 8.768-4.808 2.137-3.206 3.206-7.59 3.206-13.153 0-3.552-.519-6.616-1.556-9.192m18.975 27.884c-2.782 5.327-6.726 9.428-11.833 12.304-5.107 2.875-10.898 4.313-17.372 4.313-6.725 0-12.728-1.501-18.008-4.502s-9.381-7.252-12.304-12.752c-2.922-5.5-4.384-11.691-4.384-18.573 0-6.569 1.445-12.454 4.337-17.655 2.891-5.202 6.937-9.24 12.139-12.115 5.201-2.876 10.976-4.314 17.325-4.314 6.505 0 12.382 1.485 17.631 4.455 5.248 2.97 9.334 7.134 12.256 12.493 2.923 5.358 4.385 11.431 4.385 18.22 0 6.757-1.391 12.799-4.172 18.126m-73.423-52.115v67.601h-30.03l-8.674-36.535c-.754-3.897-1.304-7.276-1.649-10.135h-.283c-.095 1.256-.323 3.04-.684 5.35-.362 2.31-.653 3.842-.872 4.596l-9.287 36.724h-30.5v-67.601h17.866v31.867c0 2.64-.22 9.24-.66 19.8h.566c1.194-6.663 1.933-10.497 2.216-11.503l10.418-40.164h19.139l9.947 40.636c.534 2.042 1.304 5.719 2.31 11.031h.566l-.142-3.111c-.22-4.181-.33-8.014-.33-11.503v-37.053z" transform="translate(437.3308 494.209)"/><path d="m0 0c-4.935-2.421-10.512-3.63-16.735-3.63-7.794 0-14.229 2.663-19.304 7.99-5.076 5.327-7.614 12.595-7.614 21.803 0 9.554 2.656 17.207 7.966 22.958 5.312 5.752 12.21 8.627 20.696 8.627 5.249 0 10.246-1.069 14.991-3.205v4.95c-4.745 1.665-9.711 2.498-14.896 2.498-9.743 0-17.773-3.308-24.09-9.923-6.317-6.616-9.475-15.408-9.475-26.376 0-9.994 2.915-18.095 8.745-24.301 5.829-6.208 13.363-9.311 22.604-9.311 5.94 0 11.644 1.132 17.112 3.394zm-69.015 18.574h-26.069l11.361 31.349c.502 1.288 1.021 2.97 1.556 5.044h.188c.251-.786.487-1.572.707-2.357.22-.912.503-1.839.849-2.782zm14.567-25.315-25.221 67.601h-4.431l-25.504-67.601h5.139l7.731 21.025h29.322l7.731-21.025z" transform="translate(334.2556 536.1021)"/></g></g></svg>