<?xml version="1.0" encoding="UTF-8" standalone="no"?>
<!DOCTYPE svg PUBLIC "-//W3C//DTD SVG 1.1//EN" "http://www.w3.org/Graphics/SVG/1.1/DTD/svg11.dtd">
<svg xmlns="http://www.w3.org/2000/svg" version="1.1" viewBox="0 0 200 200" width="200.0pt" height="200.0pt">
<path d="M 0.00 0.00 L 200.00 0.00 L 200.00 200.00 L 0.00 200.00 L 0.00 0.00 Z" fill-opacity="0"/>
<path d="M 85.58 19.36 L 86.50 19.26 C 87.09 21.43 87.67 23.60 88.40 25.72 C 90.86 25.98 93.36 25.72 95.83 25.85 C 94.50 27.76 91.92 28.79 90.14 30.31 C 90.32 32.74 91.75 35.18 92.24 37.60 C 89.96 36.62 88.16 34.64 86.03 33.35 C 83.92 34.59 82.08 36.76 79.80 37.56 C 80.32 35.19 81.84 32.66 81.89 30.29 C 80.13 28.76 77.58 27.74 76.25 25.86 C 78.72 25.74 81.20 25.94 83.66 25.75 C 84.39 23.65 84.97 21.50 85.58 19.36 Z" fill="#bb9753"/>
<path d="M 113.48 19.32 L 114.38 19.30 C 114.93 21.47 115.56 23.62 116.35 25.73 C 118.79 26.01 121.30 25.70 123.75 25.86 C 122.40 27.75 119.86 28.76 118.10 30.30 C 118.22 32.73 119.57 35.18 120.23 37.52 C 117.92 36.80 116.07 34.62 113.98 33.37 C 111.76 34.79 109.78 36.55 107.54 37.94 C 108.14 35.46 109.67 32.83 109.79 30.33 C 108.07 28.75 105.43 27.78 104.19 25.84 C 106.64 25.73 109.13 25.98 111.57 25.74 C 112.30 23.63 112.88 21.47 113.48 19.32 Z" fill="#bb9753"/>
<path d="M 144.53 52.49 C 160.13 58.13 175.34 67.16 185.62 80.42 C 193.35 90.26 197.81 102.38 196.89 115.00 C 196.11 126.91 190.61 137.90 182.69 146.68 C 172.30 158.29 158.05 166.42 143.44 171.48 C 119.66 179.58 93.44 180.60 68.98 175.04 C 50.71 170.79 32.46 162.32 19.24 148.75 C 9.70 138.93 2.87 125.96 3.11 112.00 C 2.80 100.52 7.40 89.37 14.40 80.43 C 23.81 68.21 37.64 59.51 51.83 53.87 C 53.73 53.19 55.72 52.15 57.74 52.07 L 57.61 53.43 C 56.12 53.77 56.36 55.51 56.09 56.68 C 53.92 57.47 51.34 58.13 49.45 59.47 C 47.46 61.43 48.33 64.46 50.89 65.34 C 51.86 65.48 52.83 65.61 53.80 65.75 C 53.82 67.70 53.72 70.49 51.32 70.94 L 49.90 71.07 C 44.56 73.97 38.77 77.19 34.32 81.37 L 34.18 81.49 C 30.06 84.83 26.48 88.93 23.70 93.44 C 21.42 97.18 19.74 101.34 18.89 105.63 C 18.18 109.64 18.11 113.69 18.87 117.70 C 19.67 122.03 21.23 126.09 23.55 129.83 C 25.63 133.46 28.37 136.52 31.18 139.59 C 31.96 139.72 32.65 139.27 33.24 138.23 C 32.78 140.33 32.34 143.44 31.03 145.05 C 29.38 143.33 27.69 141.66 26.07 139.92 C 25.61 139.31 24.97 139.06 24.14 139.17 C 22.86 140.41 24.77 141.55 25.49 142.51 C 27.16 144.33 29.52 145.97 30.62 148.18 C 27.50 149.38 26.13 146.65 24.11 144.89 C 22.86 143.93 22.15 141.79 20.34 142.34 L 20.10 143.75 C 22.62 146.79 25.45 149.22 28.56 151.58 C 28.55 151.98 28.60 152.35 28.70 152.71 L 28.67 153.17 L 28.73 154.23 C 29.93 154.89 31.03 155.04 32.02 154.70 C 35.01 156.22 37.81 158.89 41.02 159.83 C 44.21 159.50 45.85 155.94 43.42 153.61 C 40.96 152.11 38.59 150.35 36.07 148.99 C 35.23 149.03 34.91 149.61 35.12 150.74 C 37.39 152.70 40.54 153.84 42.53 156.00 L 42.11 157.15 L 41.02 157.63 C 38.00 156.23 35.52 153.82 32.43 152.61 C 33.18 149.30 34.29 146.06 35.25 142.80 C 38.49 146.16 43.01 148.62 47.06 150.94 C 49.35 152.00 51.82 153.82 54.39 153.91 C 57.01 156.06 60.83 156.78 64.03 157.95 C 89.17 165.53 117.23 164.92 141.95 155.96 C 143.33 155.53 144.47 154.75 145.62 153.91 C 147.78 153.89 149.66 152.54 151.63 151.63 C 156.69 148.92 161.93 145.88 166.05 141.85 C 170.22 138.57 173.72 134.36 176.45 129.83 C 178.80 126.12 180.29 121.99 181.19 117.71 C 181.48 115.83 181.61 113.91 181.70 112.01 C 180.99 111.83 180.24 111.81 179.46 111.96 C 172.57 113.35 165.72 114.98 158.81 116.27 L 157.27 117.94 C 149.69 117.70 143.40 120.42 136.00 121.50 C 127.47 123.62 118.72 125.08 110.20 127.21 C 106.89 127.65 103.12 128.25 100.22 129.98 C 98.52 130.07 96.73 129.88 95.02 129.76 C 97.28 128.42 100.51 128.85 102.97 128.01 C 105.64 127.06 108.21 126.56 111.02 126.31 C 114.02 125.53 116.89 124.53 120.01 124.36 C 123.38 123.61 126.54 122.39 130.03 122.27 C 133.02 121.45 135.89 120.46 139.02 120.28 C 148.16 118.00 157.75 116.13 166.96 114.05 C 175.66 112.45 184.28 109.90 193.04 108.80 L 192.68 108.07 C 178.81 103.00 164.71 98.24 150.84 93.17 C 152.06 93.29 153.28 93.39 154.50 93.45 C 156.86 95.18 159.82 95.36 162.53 96.57 C 168.45 98.47 174.41 101.08 180.39 102.60 C 179.41 99.38 178.07 96.33 176.33 93.45 C 173.51 88.92 169.87 84.72 165.71 81.37 C 160.55 76.66 152.05 71.56 145.46 69.24 C 134.04 64.03 121.00 61.57 108.53 60.67 C 95.62 59.69 82.84 61.09 70.21 63.75 C 72.48 66.03 76.60 66.00 79.27 67.96 C 72.71 65.98 66.25 63.56 59.79 61.23 C 61.08 67.92 60.68 74.56 60.86 81.29 L 60.41 81.32 C 60.18 77.26 60.27 73.19 60.06 69.13 L 59.92 67.47 C 59.15 67.36 58.35 67.34 57.54 67.40 C 58.23 64.29 59.70 61.51 60.11 58.33 C 61.05 58.11 61.90 57.75 62.64 57.24 C 62.63 54.15 61.42 53.43 58.88 52.20 L 59.52 51.32 C 63.46 49.64 67.82 48.89 71.96 47.88 C 95.89 43.09 121.46 44.35 144.53 52.49 Z" fill="#bb9753"/>
<path d="M 97.08 49.27 C 99.96 49.19 102.91 49.19 105.78 49.33 L 106.32 51.15 C 103.42 51.77 100.29 51.15 97.33 51.40 C 95.59 51.67 95.78 53.45 97.10 53.93 C 99.94 54.35 102.92 53.86 105.79 54.20 L 106.02 56.05 C 104.06 56.38 101.99 56.11 100.00 56.17 C 98.08 56.03 96.35 56.72 94.95 55.04 C 92.93 53.09 94.26 49.39 97.08 49.27 Z" fill="#ffffff"/>
<path d="M 90.21 49.78 C 91.43 52.52 87.44 51.64 86.00 52.05 C 84.49 52.44 80.79 51.93 80.46 53.96 L 81.00 54.97 C 83.81 55.58 87.11 54.26 90.04 54.43 C 91.89 55.39 90.35 56.76 88.92 56.68 C 86.28 56.80 83.60 57.49 80.97 57.33 C 77.77 56.11 77.46 52.05 80.68 50.61 C 83.73 50.11 87.15 49.42 90.21 49.78 Z" fill="#ffffff"/>
<path d="M 112.04 49.92 C 115.26 49.67 118.77 50.46 121.97 51.03 L 121.88 52.90 C 118.70 53.07 115.26 51.59 112.16 52.23 C 111.46 53.07 111.57 53.83 112.48 54.51 C 114.91 55.00 117.42 55.10 119.86 55.47 C 120.79 55.46 121.31 56.06 121.41 57.26 C 118.79 58.20 115.04 56.82 112.18 56.71 C 108.80 55.61 108.69 51.15 112.04 49.92 Z" fill="#ffffff"/>
<path d="M 59.52 51.32 L 58.88 52.20 C 61.42 53.43 62.63 54.15 62.64 57.24 C 61.90 57.75 61.05 58.11 60.11 58.33 C 59.70 61.51 58.23 64.29 57.54 67.40 C 57.39 67.97 57.25 68.54 57.11 69.11 C 55.79 72.76 54.95 76.56 53.69 80.23 C 52.46 84.66 51.10 89.05 49.81 93.45 C 48.77 97.02 47.72 100.59 46.65 104.15 C 45.34 108.66 43.96 113.14 42.67 117.65 C 41.44 121.69 40.29 125.75 39.06 129.78 C 37.93 133.57 36.88 137.39 35.63 141.14 L 36.21 141.59 C 36.96 141.84 37.68 142.15 38.39 142.50 L 35.25 142.80 C 34.29 146.06 33.18 149.30 32.43 152.61 C 32.29 153.30 32.15 154.00 32.02 154.70 C 31.03 155.04 29.93 154.89 28.73 154.23 L 28.67 153.17 L 29.98 153.87 L 30.01 151.34 C 29.53 151.74 29.09 152.20 28.70 152.71 C 28.60 152.35 28.55 151.98 28.56 151.58 C 28.78 150.74 28.95 149.90 29.08 149.06 C 29.44 150.21 29.96 150.92 30.80 151.75 C 31.72 145.85 34.10 140.06 35.63 134.25 C 37.66 127.54 39.52 120.71 41.70 114.06 C 42.42 112.07 43.03 110.05 43.46 107.98 C 44.70 103.40 46.17 98.90 47.44 94.33 C 47.03 93.92 46.63 93.50 46.24 93.07 L 46.67 92.48 C 47.08 92.95 47.48 93.43 47.87 93.93 C 49.43 86.71 51.96 79.62 53.97 72.50 C 54.17 71.11 53.35 70.96 52.22 71.19 L 52.80 72.31 C 52.36 71.79 51.86 71.33 51.32 70.94 C 53.72 70.49 53.82 67.70 53.80 65.75 C 52.83 65.61 51.86 65.48 50.89 65.34 C 52.86 66.02 54.11 65.53 54.63 63.86 L 54.31 65.65 C 54.87 65.75 55.42 65.89 55.97 66.07 C 56.67 63.21 57.52 60.29 58.51 57.51 L 56.35 56.48 C 57.24 56.37 58.15 56.50 59.07 56.89 C 60.15 55.85 60.16 54.35 59.10 52.41 L 57.61 53.43 L 57.74 52.07 C 58.34 51.83 58.93 51.58 59.52 51.32 Z" fill="#000000"/>
<path d="M 72.01 52.01 C 73.50 51.62 75.17 51.52 74.57 53.59 C 71.70 54.56 68.61 54.87 65.77 55.92 L 65.17 56.93 L 65.84 58.13 C 68.77 58.63 73.23 55.50 75.81 57.13 C 75.61 57.81 75.26 58.31 74.77 58.63 C 72.17 59.21 69.58 59.83 66.98 60.41 C 64.19 60.76 61.81 57.16 63.80 54.86 C 65.70 52.86 69.47 52.92 72.01 52.01 Z" fill="#ffffff"/>
<path d="M 132.97 53.24 C 134.61 53.89 137.61 53.58 137.76 55.88 C 135.13 57.11 130.95 54.29 127.97 54.46 C 127.15 54.78 126.94 55.52 127.34 56.67 C 129.83 57.66 132.60 57.93 135.14 58.84 C 136.11 58.93 136.40 59.66 136.01 61.04 C 133.01 60.67 130.01 59.69 127.07 58.95 C 124.51 57.90 124.31 54.03 126.73 52.69 C 128.44 51.53 131.09 52.97 132.97 53.24 Z" fill="#ffffff"/>
<path d="M 57.61 53.43 L 59.10 52.41 C 60.16 54.35 60.15 55.85 59.07 56.89 C 58.15 56.50 57.24 56.37 56.35 56.48 L 58.51 57.51 C 57.52 60.29 56.67 63.21 55.97 66.07 C 55.42 65.89 54.87 65.75 54.31 65.65 L 54.63 63.86 C 54.11 65.53 52.86 66.02 50.89 65.34 C 48.33 64.46 47.46 61.43 49.45 59.47 C 51.34 58.13 53.92 57.47 56.09 56.68 C 56.36 55.51 56.12 53.77 57.61 53.43 Z" fill="#ffffff"/>
<path d="M 141.31 57.31 C 143.60 55.58 146.93 57.93 149.29 58.69 C 150.53 59.38 154.06 60.07 151.99 62.00 C 148.99 61.35 146.16 59.28 143.09 58.84 C 142.35 59.01 142.02 59.68 142.11 60.86 C 144.80 62.40 148.27 63.00 150.71 64.91 L 150.16 66.26 C 147.58 66.08 145.00 64.25 142.47 63.49 C 139.68 62.75 139.13 59.02 141.31 57.31 Z" fill="#ffffff"/>
<path d="M 57.02 58.02 C 56.60 59.47 56.23 60.94 55.92 62.42 C 54.20 62.39 52.60 63.44 50.94 63.16 C 49.45 60.83 52.37 60.53 53.82 59.76 C 54.92 59.26 55.99 58.68 57.02 58.02 Z" fill="#bb9753"/>
<path d="M 108.53 60.67 C 121.00 61.57 134.04 64.03 145.46 69.24 C 127.69 69.42 109.79 69.26 92.00 69.32 C 89.86 69.38 87.79 69.04 85.68 69.54 C 84.71 69.24 83.73 68.94 82.75 68.66 C 81.78 68.40 80.81 68.21 79.82 68.12 L 79.27 67.96 C 76.60 66.00 72.48 66.03 70.21 63.75 C 82.84 61.09 95.62 59.69 108.53 60.67 Z" fill="#e52528"/>
<path d="M 59.79 61.23 C 66.25 63.56 72.71 65.98 79.27 67.96 L 79.82 68.12 C 81.73 68.67 83.65 69.68 85.62 69.68 C 90.63 72.49 96.62 73.61 101.90 75.89 C 108.62 78.23 115.41 80.47 122.06 82.98 C 131.63 86.43 141.29 89.66 150.84 93.17 C 164.71 98.24 178.81 103.00 192.68 108.07 L 193.04 108.80 C 184.28 109.90 175.66 112.45 166.96 114.05 C 157.75 116.13 148.16 118.00 139.02 120.28 C 135.89 120.46 133.02 121.45 130.03 122.27 C 126.54 122.39 123.38 123.61 120.01 124.36 C 116.89 124.53 114.02 125.53 111.02 126.31 C 108.21 126.56 105.64 127.06 102.97 128.01 C 100.51 128.85 97.28 128.42 95.02 129.76 C 80.44 132.95 64.70 136.29 50.03 139.46 C 46.15 140.05 42.55 141.40 38.57 141.45 C 40.27 141.99 42.17 141.38 43.97 141.68 C 46.28 142.01 48.66 141.75 51.00 141.81 C 89.34 141.84 127.72 141.75 166.05 141.85 C 161.93 145.88 156.69 148.92 151.63 151.63 C 149.66 152.54 147.78 153.89 145.62 153.91 C 115.22 153.84 84.79 153.84 54.39 153.91 C 51.82 153.82 49.35 152.00 47.06 150.94 C 43.01 148.62 38.49 146.16 35.25 142.80 L 38.39 142.50 C 37.68 142.15 36.96 141.84 36.21 141.59 C 41.13 139.15 45.18 133.52 48.80 129.49 C 50.68 127.59 49.58 124.76 52.07 123.07 C 53.76 121.87 53.97 120.48 54.52 118.61 C 56.29 114.30 57.53 109.95 58.72 105.46 C 54.58 105.80 50.39 105.52 46.23 105.65 L 46.65 104.15 C 47.72 100.59 48.77 97.02 49.81 93.45 C 53.37 93.55 56.94 93.38 60.49 93.59 C 60.80 89.55 61.30 85.34 60.86 81.29 C 60.68 74.56 61.08 67.92 59.79 61.23 Z" fill="#ffffff"/>
<path d="M 43.26 62.19 C 44.33 62.07 44.81 62.58 44.71 63.73 C 42.18 65.58 38.75 66.70 36.59 68.98 L 36.98 70.03 L 38.02 70.70 C 40.67 69.31 43.20 67.47 45.97 66.33 C 48.02 67.56 46.46 68.46 45.13 69.14 C 42.99 70.22 41.02 71.67 38.84 72.67 C 35.79 73.19 33.27 69.91 35.19 67.23 C 37.48 65.11 40.55 63.73 43.26 62.19 Z" fill="#ffffff"/>
<path d="M 157.94 63.08 C 160.67 64.05 163.18 65.91 165.63 67.46 C 166.75 68.00 166.85 68.83 165.95 69.97 C 163.10 68.71 160.64 66.64 157.85 65.24 L 156.62 65.61 L 156.09 67.01 C 158.50 68.98 161.47 70.18 163.88 72.19 C 163.93 72.82 163.60 73.40 162.90 73.93 C 160.29 72.28 157.51 70.77 155.00 68.98 C 152.99 66.50 154.70 62.97 157.94 63.08 Z" fill="#ffffff"/>
<path d="M 55.85 66.36 L 55.12 69.03 C 54.77 69.78 54.39 69.97 53.99 69.60 C 53.10 68.20 54.45 66.68 55.85 66.36 Z" fill="#ffffff"/>
<path d="M 57.54 67.40 C 58.35 67.34 59.15 67.36 59.92 67.47 L 60.06 69.13 C 59.15 69.42 58.17 69.41 57.11 69.11 C 57.25 68.54 57.39 67.97 57.54 67.40 Z" fill="#e52528"/>
<path d="M 79.82 68.12 C 80.81 68.21 81.78 68.40 82.75 68.66 C 83.73 68.94 84.71 69.24 85.68 69.54 C 91.33 72.11 97.47 73.62 103.21 75.98 C 108.90 77.67 114.46 80.30 120.25 81.53 C 120.85 82.01 121.46 82.49 122.06 82.98 C 115.41 80.47 108.62 78.23 101.90 75.89 C 96.62 73.61 90.63 72.49 85.62 69.68 C 83.65 69.68 81.73 68.67 79.82 68.12 Z" fill="#000000"/>
<path d="M 57.11 69.11 C 58.17 69.41 59.15 69.42 60.06 69.13 C 60.27 73.19 60.18 77.26 60.41 81.32 C 58.11 81.46 55.79 81.39 53.48 81.43 L 53.69 80.23 C 54.95 76.56 55.79 72.76 57.11 69.11 Z" fill="#ffffff"/>
<path d="M 85.68 69.54 C 87.79 69.04 89.86 69.38 92.00 69.32 C 109.79 69.26 127.69 69.42 145.46 69.24 C 152.05 71.56 160.55 76.66 165.71 81.37 C 150.77 81.52 135.08 81.21 120.25 81.53 C 114.46 80.30 108.90 77.67 103.21 75.98 C 97.47 73.62 91.33 72.11 85.68 69.54 Z" fill="#ffffff"/>
<path d="M 31.20 72.03 C 29.34 74.55 25.92 76.15 24.32 78.96 C 25.11 80.34 25.91 80.62 26.74 79.78 C 28.79 78.08 30.70 75.97 32.94 74.53 L 34.00 74.96 L 34.19 76.01 C 32.13 78.01 29.89 79.87 27.75 81.78 C 24.99 83.71 21.10 80.58 22.60 77.51 C 23.97 75.41 26.25 73.81 28.09 72.12 C 28.99 71.30 31.05 69.71 31.20 72.03 Z" fill="#ffffff"/>
<path d="M 49.90 71.07 L 51.32 70.94 C 51.86 71.33 52.36 71.79 52.80 72.31 L 52.22 71.19 C 53.35 70.96 54.17 71.11 53.97 72.50 C 51.96 79.62 49.43 86.71 47.87 93.93 C 47.48 93.43 47.08 92.95 46.67 92.48 C 47.86 88.74 48.97 84.98 50.13 81.23 C 44.89 81.58 39.58 81.34 34.32 81.37 C 38.77 77.19 44.56 73.97 49.90 71.07 Z" fill="#ffffff"/>
<path d="M 171.78 72.24 C 174.16 73.69 176.13 75.97 178.14 77.90 C 179.29 79.03 179.17 80.52 177.16 79.96 C 175.27 78.20 173.46 76.18 171.43 74.57 C 170.28 73.53 168.95 74.43 169.06 75.87 C 171.09 78.01 173.48 79.77 175.37 82.06 C 174.56 85.15 172.86 82.35 171.66 81.34 C 170.11 79.40 166.47 77.83 167.07 75.02 C 166.98 72.92 170.00 71.05 171.78 72.24 Z" fill="#ffffff"/>
<path d="M 51.07 74.26 L 51.87 74.23 L 52.28 74.96 L 51.90 75.72 L 51.11 75.75 L 50.70 75.02 L 51.07 74.26 Z" fill="#ffffff"/>
<path d="M 50.27 78.26 C 50.76 78.68 50.76 78.68 50.27 78.26 Z" fill="#ffffff"/>
<path d="M 53.69 80.23 L 53.48 81.43 C 55.79 81.39 58.11 81.46 60.41 81.32 L 60.86 81.29 C 61.30 85.34 60.80 89.55 60.49 93.59 C 56.94 93.38 53.37 93.55 49.81 93.45 C 51.10 89.05 52.46 84.66 53.69 80.23 Z" fill="#e52528"/>
<path d="M 34.18 81.49 L 34.32 81.37 C 39.58 81.34 44.89 81.58 50.13 81.23 C 48.97 84.98 47.86 88.74 46.67 92.48 L 46.24 93.07 C 45.13 93.45 44.05 93.60 42.99 93.52 C 36.56 93.42 30.13 93.56 23.70 93.44 C 26.48 88.93 30.06 84.83 34.18 81.49 Z" fill="#e52528"/>
<path d="M 120.25 81.53 C 135.08 81.21 150.77 81.52 165.71 81.37 C 169.87 84.72 173.51 88.92 176.33 93.45 C 169.06 93.53 161.78 93.48 154.50 93.45 C 153.28 93.39 152.06 93.29 150.84 93.17 C 141.29 89.66 131.63 86.43 122.06 82.98 C 121.46 82.49 120.85 82.01 120.25 81.53 Z" fill="#e52528"/>
<path d="M 18.24 82.22 C 18.84 82.15 19.42 82.43 19.99 83.06 C 18.76 85.65 14.82 89.14 15.09 91.94 L 16.04 92.50 L 17.00 92.29 C 18.68 90.05 20.09 87.09 22.13 85.11 C 22.75 85.15 23.27 85.52 23.68 86.22 C 22.61 87.96 21.33 89.55 20.29 91.31 C 19.42 92.54 19.02 93.86 17.48 94.38 C 14.81 95.42 11.98 92.86 12.99 90.06 C 14.25 87.39 16.27 84.44 18.24 82.22 Z" fill="#ffffff"/>
<path d="M 183.96 85.00 C 185.36 87.32 188.02 90.36 188.09 93.06 L 186.89 93.71 C 184.86 91.28 183.68 87.19 181.05 85.39 L 179.97 85.97 L 179.61 87.02 C 180.89 89.18 182.36 91.19 183.49 93.46 C 184.11 94.55 183.94 95.27 182.99 95.62 C 181.48 95.40 180.99 93.02 180.11 91.91 C 179.01 89.67 176.40 87.75 178.04 85.09 C 179.50 82.77 182.41 82.73 183.96 85.00 Z" fill="#ffffff"/>
<path d="M 100.97 92.03 C 103.60 91.90 107.19 92.15 109.37 93.73 C 108.85 95.47 108.31 97.20 107.95 98.98 C 104.97 98.09 102.37 96.83 99.19 98.15 C 97.86 98.87 97.56 100.30 98.55 101.48 C 100.27 102.83 102.82 102.98 104.58 104.39 C 108.67 107.45 107.10 114.67 102.73 116.74 C 98.03 119.05 91.96 118.70 87.24 116.62 C 87.32 115.14 88.24 112.12 88.96 110.84 C 91.72 112.44 94.94 112.89 98.07 112.46 C 99.85 112.19 101.14 109.84 99.38 108.61 C 97.41 107.40 95.18 107.24 93.35 105.70 C 90.92 103.96 90.91 100.36 91.73 97.79 C 93.06 93.89 97.17 92.31 100.97 92.03 Z" fill="#000000"/>
<path d="M 23.70 93.44 C 30.13 93.56 36.56 93.42 42.99 93.52 C 44.05 93.60 45.13 93.45 46.24 93.07 C 46.63 93.50 47.03 93.92 47.44 94.33 C 46.17 98.90 44.70 103.40 43.46 107.98 L 42.15 107.79 L 42.83 105.30 C 35.00 106.02 26.80 105.41 18.89 105.63 C 19.74 101.34 21.42 97.18 23.70 93.44 Z" fill="#ffffff"/>
<path d="M 69.71 92.56 C 73.81 92.72 77.93 92.45 82.02 92.72 C 85.26 93.01 88.51 94.54 89.31 97.95 C 90.14 102.03 88.61 105.90 85.12 108.17 C 81.73 110.49 78.07 110.66 74.09 110.73 C 73.30 112.92 72.95 115.71 71.91 117.71 C 69.78 117.68 67.64 117.78 65.52 117.70 C 67.29 111.28 69.22 104.89 70.98 98.46 C 69.55 98.69 68.47 98.57 67.74 98.08 C 68.17 97.01 68.52 95.92 68.80 94.82 C 68.92 93.89 69.22 93.14 69.71 92.56 Z" fill="#000000"/>
<path d="M 110.61 92.59 C 112.91 92.61 115.22 92.59 117.52 92.61 C 117.54 98.33 117.97 104.08 117.78 109.80 L 118.56 109.90 C 120.39 106.12 122.33 102.35 124.41 98.70 C 123.41 98.41 122.29 98.34 121.04 98.47 C 121.65 96.52 122.23 94.57 122.78 92.60 C 126.80 92.61 130.81 92.60 134.83 92.60 C 130.03 100.91 125.52 109.41 120.69 117.70 C 117.88 117.74 115.08 117.69 112.27 117.73 C 111.59 115.60 111.93 113.27 111.73 111.01 C 111.32 104.87 110.95 98.73 110.61 92.59 Z" fill="#000000"/>
<path d="M 154.50 93.45 C 161.78 93.48 169.06 93.53 176.33 93.45 C 178.07 96.33 179.41 99.38 180.39 102.60 C 174.41 101.08 168.45 98.47 162.53 96.57 C 159.82 95.36 156.86 95.18 154.50 93.45 Z" fill="#ffffff"/>
<path d="M 11.86 97.04 C 11.28 100.05 10.04 102.84 9.75 105.95 C 9.92 106.85 10.68 107.21 12.01 107.02 C 13.05 104.21 13.19 101.17 14.41 98.38 L 15.91 98.07 C 16.88 99.26 15.58 101.13 15.41 102.51 C 14.64 104.80 15.06 107.47 12.82 108.86 C 10.22 109.92 8.05 108.81 7.56 106.04 C 7.80 103.67 8.42 101.30 9.11 99.03 C 9.62 97.59 9.86 95.34 11.86 97.04 Z" fill="#ffffff"/>
<path d="M 190.48 98.52 C 191.84 100.90 192.41 104.47 192.40 107.18 C 188.98 106.79 190.29 102.39 188.88 100.11 C 188.40 98.89 187.03 99.59 186.50 100.42 C 186.66 102.07 187.32 103.60 187.41 105.26 C 184.62 105.32 184.84 103.00 184.30 101.00 C 184.41 97.83 188.20 95.93 190.48 98.52 Z" fill="#ffffff"/>
<path d="M 77.60 98.45 C 79.26 97.75 83.22 98.39 82.81 101.00 C 82.60 104.51 78.55 105.18 75.74 105.04 C 76.40 102.86 76.93 100.63 77.60 98.45 Z" fill="#ffffff"/>
<path d="M 46.65 104.15 L 46.23 105.65 C 50.39 105.52 54.58 105.80 58.72 105.46 C 57.53 109.95 56.29 114.30 54.52 118.61 L 53.40 117.64 C 49.83 117.74 46.25 117.71 42.67 117.65 C 43.96 113.14 45.34 108.66 46.65 104.15 Z" fill="#e52528"/>
<path d="M 18.89 105.63 C 26.80 105.41 35.00 106.02 42.83 105.30 L 42.15 107.79 L 43.46 107.98 C 43.03 110.05 42.42 112.07 41.70 114.06 L 40.33 114.04 C 39.95 115.27 39.83 116.89 38.97 117.88 C 32.31 117.47 25.56 117.80 18.87 117.70 C 18.11 113.69 18.18 109.64 18.89 105.63 Z" fill="#e52528"/>
<path d="M 181.70 112.01 C 181.61 113.91 181.48 115.83 181.19 117.71 C 173.24 117.83 165.19 117.40 157.27 117.94 L 158.81 116.27 C 165.72 114.98 172.57 113.35 179.46 111.96 C 180.24 111.81 180.99 111.83 181.70 112.01 Z" fill="#e52528"/>
<path d="M 7.25 113.16 L 9.18 112.75 C 9.56 115.16 9.60 117.60 10.12 120.00 C 10.32 121.56 11.20 123.79 13.02 122.05 C 13.06 119.03 11.79 116.13 12.10 113.03 L 13.01 112.47 L 14.04 112.93 C 14.33 115.69 14.75 118.32 15.31 121.04 C 15.42 124.57 10.77 126.31 8.82 123.12 C 7.56 120.08 7.34 116.43 7.25 113.16 Z" fill="#ffffff"/>
<path d="M 192.62 115.96 C 192.20 119.02 191.99 123.33 190.04 125.80 C 187.49 125.48 189.85 121.63 189.85 119.98 C 190.01 118.18 191.73 113.96 188.18 115.19 C 187.24 118.08 187.32 121.21 185.96 124.05 L 184.18 123.77 C 184.43 121.00 185.52 118.32 185.72 115.47 C 186.88 111.75 192.11 111.90 192.62 115.96 Z" fill="#ffffff"/>
<path d="M 40.33 114.04 L 41.70 114.06 C 39.52 120.71 37.66 127.54 35.63 134.25 C 35.55 133.15 35.46 132.04 35.38 130.94 L 35.99 129.29 C 32.09 130.35 27.61 129.47 23.55 129.83 C 21.23 126.09 19.67 122.03 18.87 117.70 C 25.56 117.80 32.31 117.47 38.97 117.88 C 39.83 116.89 39.95 115.27 40.33 114.04 Z" fill="#ffffff"/>
<path d="M 42.67 117.65 C 46.25 117.71 49.83 117.74 53.40 117.64 L 54.52 118.61 C 53.97 120.48 53.76 121.87 52.07 123.07 C 49.58 124.76 50.68 127.59 48.80 129.49 C 45.60 129.98 42.30 129.73 39.06 129.78 C 40.29 125.75 41.44 121.69 42.67 117.65 Z" fill="#ffffff"/>
<path d="M 157.27 117.94 C 165.19 117.40 173.24 117.83 181.19 117.71 C 180.29 121.99 178.80 126.12 176.45 129.83 C 153.31 129.71 130.15 129.82 107.00 129.77 C 104.74 129.75 102.48 129.89 100.22 129.98 C 103.12 128.25 106.89 127.65 110.20 127.21 C 118.72 125.08 127.47 123.62 136.00 121.50 C 143.40 120.42 149.69 117.70 157.27 117.94 Z" fill="#ffffff"/>
<path d="M 15.89 126.88 L 17.01 126.70 C 18.60 128.93 19.66 131.55 21.19 133.85 C 22.87 136.68 19.37 140.29 16.44 138.53 C 14.42 136.97 13.33 134.10 12.02 131.94 C 11.54 130.85 10.33 129.15 12.05 128.52 C 13.75 129.19 14.30 132.14 15.42 133.59 C 16.37 134.78 16.84 137.21 18.77 136.76 L 19.44 135.98 C 19.36 133.29 14.76 129.51 15.89 126.88 Z" fill="#ffffff"/>
<path d="M 182.30 128.32 C 185.09 126.54 188.56 128.51 187.86 131.88 C 186.69 134.82 184.75 137.57 182.86 140.08 L 181.23 139.71 C 181.59 137.05 184.33 134.86 185.35 132.31 C 186.16 130.59 185.92 130.13 184.05 129.69 C 182.10 131.96 181.06 134.95 178.95 137.15 L 177.83 137.19 L 177.28 136.05 C 179.07 133.55 180.45 130.75 182.30 128.32 Z" fill="#ffffff"/>
<path d="M 23.55 129.83 C 27.61 129.47 32.09 130.35 35.99 129.29 L 35.38 130.94 C 34.65 133.37 34.01 135.82 33.24 138.23 C 32.65 139.27 31.96 139.72 31.18 139.59 C 28.37 136.52 25.63 133.46 23.55 129.83 Z" fill="#e52528"/>
<path d="M 39.06 129.78 C 42.30 129.73 45.60 129.98 48.80 129.49 C 45.18 133.52 41.13 139.15 36.21 141.59 L 35.63 141.14 C 36.88 137.39 37.93 133.57 39.06 129.78 Z" fill="#e52528"/>
<path d="M 95.02 129.76 C 94.45 130.23 93.77 130.54 92.99 130.71 C 78.31 133.62 61.87 137.45 46.95 140.45 C 45.81 140.62 44.82 141.03 43.97 141.68 C 42.17 141.38 40.27 141.99 38.57 141.45 C 42.55 141.40 46.15 140.05 50.03 139.46 C 64.70 136.29 80.44 132.95 95.02 129.76 Z" fill="#000000"/>
<path d="M 95.02 129.76 C 96.73 129.88 98.52 130.07 100.22 129.98 C 102.48 129.89 104.74 129.75 107.00 129.77 C 130.15 129.82 153.31 129.71 176.45 129.83 C 173.72 134.36 170.22 138.57 166.05 141.85 C 127.72 141.75 89.34 141.84 51.00 141.81 C 48.66 141.75 46.28 142.01 43.97 141.68 C 44.82 141.03 45.81 140.62 46.95 140.45 C 61.87 137.45 78.31 133.62 92.99 130.71 C 93.77 130.54 94.45 130.23 95.02 129.76 Z" fill="#e52528"/>
<path d="M 35.38 130.94 C 35.46 132.04 35.55 133.15 35.63 134.25 C 34.10 140.06 31.72 145.85 30.80 151.75 C 29.96 150.92 29.44 150.21 29.08 149.06 C 28.95 149.90 28.78 150.74 28.56 151.58 C 25.45 149.22 22.62 146.79 20.10 143.75 L 20.34 142.34 C 22.15 141.79 22.86 143.93 24.11 144.89 C 26.13 146.65 27.50 149.38 30.62 148.18 C 29.52 145.97 27.16 144.33 25.49 142.51 C 24.77 141.55 22.86 140.41 24.14 139.17 C 24.97 139.06 25.61 139.31 26.07 139.92 C 27.69 141.66 29.38 143.33 31.03 145.05 C 32.34 143.44 32.78 140.33 33.24 138.23 C 34.01 135.82 34.65 133.37 35.38 130.94 Z" fill="#ffffff"/>
<path d="M 174.23 140.24 C 177.07 139.38 180.09 142.70 178.33 145.33 C 176.46 147.74 173.95 149.75 171.62 151.72 C 170.11 152.16 169.54 150.40 170.65 149.70 C 172.59 147.74 175.96 145.83 176.77 143.13 L 175.07 142.11 C 173.48 143.50 172.03 145.03 170.45 146.42 C 169.36 147.25 168.79 148.37 167.24 147.76 C 166.57 145.97 168.43 145.53 169.42 144.40 C 171.04 143.10 172.38 141.17 174.23 140.24 Z" fill="#ffffff"/>
<path d="M 36.07 148.99 C 38.59 150.35 40.96 152.11 43.42 153.61 C 45.85 155.94 44.21 159.50 41.02 159.83 C 37.81 158.89 35.01 156.22 32.02 154.70 C 32.15 154.00 32.29 153.30 32.43 152.61 C 35.52 153.82 38.00 156.23 41.02 157.63 L 42.11 157.15 L 42.53 156.00 C 40.54 153.84 37.39 152.70 35.12 150.74 C 34.91 149.61 35.23 149.03 36.07 148.99 Z" fill="#ffffff"/>
<path d="M 163.89 150.14 C 166.88 150.65 167.83 154.55 165.33 156.32 C 162.81 157.90 160.15 159.94 157.29 160.79 L 156.71 159.07 C 159.25 157.35 162.32 156.03 164.64 154.02 C 164.56 152.62 164.02 152.03 163.02 152.23 C 160.56 153.48 158.31 155.18 155.87 156.47 L 154.29 155.82 C 154.67 154.00 157.04 153.45 158.43 152.41 C 160.21 151.49 161.76 149.71 163.89 150.14 Z" fill="#ffffff"/>
<path d="M 30.01 151.34 L 29.98 153.87 L 28.67 153.17 L 28.70 152.71 C 29.09 152.20 29.53 151.74 30.01 151.34 Z" fill="#ffffff"/>
<path d="M 54.39 153.91 C 84.79 153.84 115.22 153.84 145.62 153.91 C 144.47 154.75 143.33 155.53 141.95 155.96 C 117.23 164.92 89.17 165.53 64.03 157.95 C 60.83 156.78 57.01 156.06 54.39 153.91 Z" fill="#e52528"/>
<path d="M 49.07 156.58 C 51.30 157.46 53.45 158.49 55.69 159.34 C 57.00 159.85 58.00 160.55 58.52 161.92 C 59.19 164.24 57.37 166.50 55.00 166.52 C 51.95 165.57 48.98 164.19 46.11 162.81 L 46.20 161.17 C 49.28 160.73 52.93 164.70 56.04 164.04 L 56.57 162.96 C 55.33 160.60 50.66 160.16 48.40 158.57 C 47.79 157.43 48.02 156.76 49.07 156.58 Z" fill="#ffffff"/>
<path d="M 147.99 157.86 C 150.60 156.49 153.72 159.08 152.97 161.91 C 152.29 164.24 149.53 164.65 147.61 165.61 C 146.06 166.07 143.74 167.61 142.19 166.84 L 142.33 165.32 C 145.05 164.17 148.16 163.26 150.75 161.76 C 151.01 160.59 150.75 159.90 149.96 159.68 C 146.98 160.14 144.27 162.17 141.26 162.72 L 140.48 161.02 C 142.89 159.78 145.50 158.93 147.99 157.86 Z" fill="#ffffff"/>
<path d="M 66.98 163.09 C 68.90 163.85 72.38 163.81 73.15 166.03 C 74.41 168.21 72.51 171.17 69.99 170.94 C 67.03 170.56 64.10 169.60 61.25 168.73 L 60.96 166.97 C 62.77 166.33 65.08 167.85 66.95 168.12 C 68.59 168.34 71.54 170.02 71.36 167.03 C 69.00 165.23 64.93 165.31 62.19 163.84 C 62.07 160.77 65.39 162.90 66.98 163.09 Z" fill="#ffffff"/>
<path d="M 137.25 163.74 C 139.32 165.63 138.35 168.93 135.70 169.63 C 133.03 170.11 129.28 172.01 126.75 171.05 L 127.34 169.46 C 129.98 168.70 132.84 168.38 135.40 167.40 C 136.22 167.16 136.38 166.42 135.87 165.17 C 132.68 164.79 129.49 166.81 126.22 166.79 C 124.97 163.83 128.17 164.77 129.96 163.91 C 132.54 163.54 135.04 161.54 137.25 163.74 Z" fill="#ffffff"/>
<path d="M 79.10 165.18 C 80.36 165.62 84.85 165.14 84.01 167.29 C 82.73 167.14 81.46 167.11 80.21 167.21 C 79.77 169.56 81.66 168.52 83.19 169.16 C 83.83 171.66 81.23 170.11 80.00 170.13 L 79.81 171.92 C 81.60 172.48 83.21 171.32 82.95 173.94 C 81.24 173.78 79.56 173.48 77.88 173.17 C 78.25 170.53 78.40 167.75 79.10 165.18 Z" fill="#ffffff"/>
<path d="M 120.99 165.09 C 122.10 166.28 120.62 167.45 120.20 168.66 C 121.54 169.63 122.75 169.98 122.26 171.98 C 121.71 173.62 117.73 174.92 117.12 172.75 C 119.00 172.48 120.22 171.89 120.78 170.97 C 119.82 170.60 118.85 170.26 117.86 169.96 C 118.20 169.03 118.55 168.10 118.92 167.18 C 117.94 167.01 116.98 166.83 116.02 166.62 C 117.49 165.32 119.15 165.49 120.99 165.09 Z" fill="#ffffff"/>
<path d="M 90.47 167.93 C 89.25 167.91 88.03 167.91 86.80 167.93 C 86.53 170.10 90.52 169.65 90.09 171.99 C 90.47 174.94 84.69 175.72 84.42 172.77 C 85.64 172.80 86.85 172.84 88.06 172.91 L 88.52 171.89 C 87.54 171.04 84.94 170.48 85.05 168.94 C 84.57 165.96 90.22 164.93 90.47 167.93 Z" fill="#ffffff"/>
<path d="M 96.61 166.79 L 97.19 168.03 C 96.44 168.27 95.69 168.51 94.94 168.74 C 94.83 170.74 94.82 172.74 94.66 174.73 L 93.06 174.93 C 92.97 172.90 93.16 170.91 93.21 168.89 C 92.39 168.33 91.60 167.74 90.82 167.14 C 92.21 166.13 94.91 166.90 96.61 166.79 Z" fill="#ffffff"/>
<path d="M 109.18 166.69 C 111.22 167.99 111.51 171.60 110.49 173.57 C 109.71 175.03 105.34 176.04 106.06 173.40 C 107.08 173.30 108.11 173.18 109.13 173.04 L 109.04 172.08 C 107.27 171.89 105.86 171.90 105.44 169.85 C 104.92 167.48 106.99 165.84 109.18 166.69 Z" fill="#ffffff"/>
<path d="M 114.75 166.11 C 115.06 168.72 115.31 171.32 115.68 173.92 L 113.95 174.19 C 113.75 172.40 113.62 170.61 113.48 168.81 C 112.82 168.17 112.13 167.57 111.40 167.01 C 112.10 166.23 113.22 165.93 114.75 166.11 Z" fill="#ffffff"/>
<path d="M 99.90 166.97 C 101.34 166.57 102.54 166.67 103.51 167.26 C 103.56 169.79 103.63 172.32 103.63 174.85 C 103.03 174.99 102.42 174.93 101.80 174.68 C 101.67 171.33 102.64 169.52 99.90 166.97 Z" fill="#ffffff"/>
<path d="M 107.29 168.33 C 108.98 167.21 110.12 170.15 108.09 170.48 C 107.01 170.05 106.74 169.33 107.29 168.33 Z" fill="#bb9753"/>
</svg>