<?xml version="1.0" encoding="UTF-8" standalone="no"?>
<!DOCTYPE svg PUBLIC "-//W3C//DTD SVG 1.1//EN" "http://www.w3.org/Graphics/SVG/1.1/DTD/svg11.dtd">
<svg xmlns="http://www.w3.org/2000/svg" version="1.1" viewBox="0 0 200 200" width="200.0pt" height="200.0pt">
<path d="M 0.00 0.00 L 200.00 0.00 L 200.00 200.00 L 100.32 200.00 C 104.70 196.45 109.37 193.31 113.76 189.77 C 130.91 176.22 146.04 160.31 155.23 140.23 C 161.88 125.80 165.06 109.86 165.07 94.00 C 165.12 78.61 165.09 63.22 165.08 47.82 C 121.65 47.83 78.22 47.82 34.79 47.84 C 34.80 63.89 34.69 79.95 34.84 96.00 C 35.10 114.48 39.06 132.61 48.19 148.80 C 58.19 166.59 72.73 180.03 88.92 192.12 C 92.46 194.82 96.10 197.02 99.43 200.00 L 0.00 200.00 L 0.00 0.00 Z" fill="#ffffff"/>
<path d="M 99.83 0.69 C 101.43 4.21 102.59 8.09 103.74 11.76 C 107.74 11.78 111.75 11.82 115.76 11.85 C 112.50 14.28 109.28 16.75 106.06 19.22 C 107.29 23.13 108.47 27.05 109.59 30.98 C 106.39 28.57 103.17 26.18 99.95 23.80 C 96.71 26.20 93.47 28.60 90.26 31.04 C 91.43 27.09 92.63 23.15 93.83 19.21 C 90.62 16.74 87.39 14.28 84.15 11.86 C 88.15 11.82 92.15 11.78 96.16 11.76 C 97.35 8.06 98.52 4.35 99.83 0.69 Z" fill="#e7aa33"/>
<path d="M 69.78 12.61 C 71.05 16.53 72.30 20.45 73.60 24.36 C 77.59 24.40 81.57 24.44 85.55 24.47 C 82.31 26.91 79.08 29.38 75.86 31.86 C 77.12 35.71 78.32 39.57 79.46 43.46 C 76.20 41.17 72.98 38.80 69.79 36.41 C 66.55 38.81 63.34 41.23 60.04 43.55 C 61.26 39.65 62.48 35.75 63.70 31.85 C 60.49 29.37 57.27 26.91 54.05 24.46 C 58.04 24.44 62.02 24.40 66.01 24.37 C 66.95 21.50 67.86 18.63 68.78 15.77 C 69.10 14.71 69.44 13.66 69.78 12.61 Z" fill="#e7aa33"/>
<path d="M 130.10 12.72 C 131.42 16.58 132.64 20.47 133.87 24.36 C 137.86 24.40 141.86 24.44 145.85 24.46 C 142.64 26.91 139.42 29.36 136.22 31.83 C 137.42 35.76 138.64 39.68 139.87 43.60 C 136.59 41.23 133.36 38.80 130.09 36.43 C 126.90 38.81 123.70 41.17 120.46 43.48 C 121.58 39.59 122.75 35.72 124.04 31.88 C 120.83 29.37 117.59 26.89 114.32 24.46 C 118.31 24.44 122.30 24.40 126.29 24.36 C 127.22 21.60 128.12 18.82 129.02 16.05 C 129.38 14.94 129.73 13.83 130.10 12.72 Z" fill="#e7aa33"/>
<path d="M 34.79 47.84 C 78.22 47.82 121.65 47.83 165.08 47.82 C 165.09 63.22 165.12 78.61 165.07 94.00 C 165.06 109.86 161.88 125.80 155.23 140.23 C 146.04 160.31 130.91 176.22 113.76 189.77 C 109.37 193.31 104.70 196.45 100.32 200.00 L 99.43 200.00 C 96.10 197.02 92.46 194.82 88.92 192.12 C 72.73 180.03 58.19 166.59 48.19 148.80 C 39.06 132.61 35.10 114.48 34.84 96.00 C 34.69 79.95 34.80 63.89 34.79 47.84 Z" fill="#e7aa33"/>
<path d="M 38.61 51.60 C 79.49 51.59 120.37 51.58 161.24 51.58 C 161.21 66.72 161.34 81.86 161.18 97.00 C 161.15 112.70 157.51 128.46 150.52 142.52 C 139.33 165.05 120.26 181.93 99.98 196.14 C 84.40 185.51 68.63 172.87 57.53 157.47 C 45.53 141.11 39.35 121.21 38.83 101.00 C 38.34 84.55 38.72 68.06 38.61 51.60 Z" fill="#ffffff"/>
<path d="M 42.47 55.49 C 45.63 55.23 48.83 55.40 52.00 55.37 C 87.18 55.37 122.36 55.34 157.54 55.35 C 157.49 69.78 157.60 84.21 157.49 98.65 C 157.25 119.57 150.55 140.23 137.95 156.98 C 127.59 171.00 114.08 182.30 99.98 192.39 C 81.85 179.75 64.23 165.15 53.69 145.32 C 45.54 130.13 42.30 113.13 42.38 96.00 C 42.43 82.51 42.23 68.96 42.47 55.49 Z" fill="#d90512"/>
<path d="M 46.24 59.31 C 82.04 59.04 118.22 59.34 154.06 59.14 C 140.07 69.88 126.10 80.66 112.19 91.50 C 124.88 91.53 137.57 91.72 150.26 91.76 C 140.00 99.55 129.78 107.40 119.53 115.19 C 123.43 127.78 127.17 140.44 131.19 153.00 C 120.73 145.35 110.35 137.59 99.94 129.89 C 89.55 137.60 79.20 145.35 68.73 152.96 C 72.75 140.39 76.48 127.73 80.40 115.14 C 71.23 121.97 62.05 128.79 52.81 135.52 C 48.48 124.60 46.50 112.71 46.15 101.00 C 46.20 87.12 46.00 73.18 46.24 59.31 Z" fill="#ffffff"/>
<path d="M 99.95 64.75 C 103.42 74.54 106.30 84.62 109.66 94.44 C 111.01 94.90 112.59 94.78 113.99 94.84 C 122.87 94.80 131.75 94.85 140.62 94.92 C 132.41 101.41 123.97 107.61 115.72 114.06 C 118.94 124.14 121.99 134.29 125.05 144.42 C 116.67 138.25 108.29 132.07 99.96 125.84 C 91.60 132.06 83.23 138.27 74.83 144.44 C 77.92 134.32 80.94 124.17 84.20 114.10 C 75.99 107.59 67.49 101.45 59.30 94.92 C 69.57 94.85 79.85 94.79 90.12 94.81 C 93.50 84.83 96.47 74.70 99.95 64.75 Z" fill="#d90512"/>
<path d="M 62.69 69.05 C 64.31 71.85 68.10 71.45 69.72 74.38 C 70.81 76.64 70.76 80.08 68.84 81.92 C 67.03 83.76 63.92 83.53 62.77 86.07 C 62.09 86.07 61.41 86.07 60.73 86.07 C 58.79 83.10 55.03 83.75 53.44 80.54 C 52.35 77.87 52.66 74.10 55.42 72.56 C 57.72 71.28 60.14 69.73 62.69 69.05 Z" fill="#d90512"/>
<path d="M 82.46 70.61 C 83.89 70.39 85.37 70.41 86.82 70.36 C 84.63 72.63 82.37 74.84 80.13 77.06 C 82.36 80.04 84.60 83.01 86.73 86.07 C 85.41 86.09 84.09 86.10 82.78 86.11 C 81.01 83.68 79.30 81.24 77.37 78.93 C 76.32 81.27 76.19 83.57 76.16 86.10 C 75.16 86.10 74.17 86.10 73.17 86.10 C 73.12 80.87 73.14 75.65 73.14 70.43 C 74.19 70.42 75.23 70.41 76.28 70.40 C 76.28 72.48 76.29 74.57 76.30 76.65 C 78.32 74.64 80.18 72.32 82.46 70.61 Z" fill="#d90512"/>
<path d="M 59.80 73.47 C 59.91 76.15 59.91 78.81 59.82 81.48 C 58.12 80.43 56.32 80.46 56.33 78.00 C 55.95 75.10 57.82 74.82 59.80 73.47 Z" fill="#ffffff"/>
<path d="M 63.44 73.51 C 64.53 74.13 65.61 74.69 66.62 75.41 C 67.03 76.78 67.02 78.19 66.77 79.58 C 65.79 80.41 64.57 80.87 63.41 81.43 C 63.35 78.79 63.35 76.15 63.44 73.51 Z" fill="#ffffff"/>
</svg>