<?xml version="1.0" encoding="UTF-8" standalone="no"?>
<svg xmlns:dc="http://purl.org/dc/elements/1.1/" xmlns:cc="http://creativecommons.org/ns#" xmlns:rdf="http://www.w3.org/1999/02/22-rdf-syntax-ns#" xmlns:svg="http://www.w3.org/2000/svg" xmlns="http://www.w3.org/2000/svg" xmlns:sodipodi="http://sodipodi.sourceforge.net/DTD/sodipodi-0.dtd" xmlns:inkscape="http://www.inkscape.org/namespaces/inkscape" inkscape:version="1.0 (4035a4f, 2020-05-01)" sodipodi:docname="73.svg" id="svg20908" height="200.0pt" width="200.0pt" viewBox="0 0 200 200" version="1.1">
  <metadata id="metadata20914">
    <rdf:RDF>
      <cc:Work rdf:about="">
        <dc:format>image/svg+xml</dc:format>
        <dc:type rdf:resource="http://purl.org/dc/dcmitype/StillImage"/>
      </cc:Work>
    </rdf:RDF>
  </metadata>
  <defs id="defs20912"/>
  <sodipodi:namedview inkscape:current-layer="svg20908" inkscape:cy="133.33333" inkscape:cx="133.33333" inkscape:zoom="1.75125" showgrid="false" id="namedview20910" inkscape:window-height="480" inkscape:window-width="640" inkscape:pageshadow="2" inkscape:pageopacity="0" guidetolerance="10" gridtolerance="10" objecttolerance="10" borderopacity="1" bordercolor="#666666" pagecolor="#ffffff"/>
  <path style="fill:#ffffff;fill-opacity:0.048583" id="path20856" fill="#ffffff" d="M 0.00 0.00 L 200.00 0.00 L 200.00 200.00 L 99.71 200.00 C 101.54 198.55 103.49 198.82 103.69 196.00 C 104.21 191.77 98.36 192.03 98.03 189.04 C 98.56 186.45 101.03 187.56 102.38 188.83 C 103.96 187.70 103.20 187.38 105.18 188.37 C 104.98 191.80 105.99 195.27 105.65 198.67 C 106.64 198.93 107.71 198.98 108.86 198.82 C 108.73 197.44 108.49 196.06 108.15 194.69 C 108.97 193.52 111.15 194.30 112.31 193.30 C 115.37 191.48 114.55 186.61 110.96 186.12 C 108.43 186.22 106.12 185.84 103.92 187.27 C 102.10 187.76 101.85 186.04 100.00 186.33 C 97.59 186.18 94.83 187.77 95.57 190.53 C 95.97 193.52 99.87 193.47 101.29 196.04 C 101.13 198.00 98.72 199.19 97.25 197.71 C 96.43 196.81 95.64 196.68 94.51 196.40 C 94.95 197.07 95.30 197.77 95.55 198.50 C 96.52 198.82 97.29 199.32 97.85 200.00 L 87.50 200.00 L 87.64 198.58 L 90.53 198.62 C 90.40 194.93 91.31 191.16 91.68 187.49 C 92.81 187.46 93.95 187.60 95.10 187.90 L 94.70 186.37 C 91.87 186.21 89.14 185.83 86.35 185.41 L 85.79 186.90 C 87.43 186.63 88.49 186.89 88.96 187.70 C 88.00 191.56 88.54 196.53 86.56 200.00 L 0.00 200.00 L 0.00 0.00 Z"/>
  <path id="path20858" fill="#060d3c" d="M 98.81 8.17 C 102.22 16.26 98.91 27.38 99.13 36.00 C 98.84 43.25 103.43 49.84 108.99 54.04 C 110.49 54.90 113.20 56.35 114.49 54.47 C 116.12 51.56 116.56 48.10 118.14 45.13 C 121.02 39.12 126.58 34.96 132.90 33.08 L 133.68 33.29 C 134.43 34.85 134.92 36.52 135.58 38.11 C 135.42 39.97 130.99 40.02 131.56 42.13 C 133.12 42.12 134.73 41.95 136.39 41.62 C 137.35 46.55 138.20 52.27 137.59 57.21 C 126.09 56.94 116.77 65.32 112.47 75.44 C 110.53 80.25 108.95 85.98 111.43 90.86 C 109.78 92.83 108.70 95.08 107.25 97.18 L 107.44 98.37 C 111.66 98.99 115.08 97.56 118.54 95.40 C 117.86 98.38 113.85 100.58 111.05 101.21 C 108.63 101.71 106.13 101.53 104.74 103.98 C 104.04 106.51 104.23 109.89 107.09 110.95 C 111.81 112.57 116.96 115.78 119.44 120.20 C 117.97 119.92 116.54 119.44 115.15 118.75 C 105.59 115.75 94.22 118.65 85.94 123.91 C 84.15 124.80 82.89 127.26 81.06 124.86 C 81.67 121.77 83.11 119.18 84.52 116.41 L 83.07 116.51 C 81.79 119.45 80.11 122.00 79.51 125.24 C 78.45 126.19 77.60 129.14 76.05 127.05 C 76.80 122.76 80.18 118.51 83.39 115.64 C 86.11 116.21 86.74 114.32 87.26 112.12 C 87.46 110.28 89.64 109.80 91.15 109.56 C 96.08 108.84 99.98 105.39 101.78 100.81 C 104.74 94.02 106.19 84.94 101.32 78.65 C 95.91 71.43 85.63 67.48 80.28 59.69 C 76.17 54.13 75.34 47.14 76.67 40.49 C 78.39 34.07 82.70 30.46 86.22 25.21 C 89.02 21.15 89.77 15.16 87.21 10.84 C 85.41 7.85 82.43 6.54 79.13 5.92 C 78.75 4.64 80.99 4.28 81.78 3.71 C 87.50 1.78 96.03 1.59 98.81 8.17 Z"/>
  <path id="path20860" fill="#ffffff" d="M 89.11 4.72 C 91.88 4.87 94.44 5.54 96.08 7.95 C 98.26 11.26 98.21 16.20 98.12 20.02 C 97.58 25.10 97.08 31.42 96.57 36.53 C 93.81 35.64 91.32 34.98 89.48 32.54 C 87.71 30.19 88.40 26.99 89.53 24.51 C 91.11 21.12 91.13 17.50 90.67 13.85 C 93.94 12.10 93.46 5.88 89.13 6.75 C 87.97 6.69 87.72 4.19 89.11 4.72 Z"/>
  <path id="path20862" fill="#060d3c" d="M 107.83 119.10 C 112.29 119.17 117.20 120.40 120.78 123.15 C 123.19 125.01 123.51 128.24 124.19 130.98 C 124.65 135.14 124.52 139.37 122.93 143.29 L 121.62 143.42 C 121.42 141.92 121.68 140.57 120.73 139.30 C 119.11 136.47 115.74 136.91 113.01 136.00 C 109.42 134.86 106.47 136.77 104.78 139.86 L 104.01 140.03 C 97.06 137.88 90.33 135.15 83.77 132.01 C 83.07 130.60 83.01 126.67 85.18 126.12 C 91.70 121.49 99.82 118.83 107.83 119.10 Z"/>
  <path id="path20864" fill="#060d3c" d="M 79.15 127.14 L 79.93 126.38 C 83.98 125.27 82.46 134.67 79.11 133.95 C 76.67 132.67 77.69 128.85 79.15 127.14 Z"/>
  <path id="path20866" fill="#060d3c" d="M 75.37 128.32 C 75.89 128.53 76.36 128.81 76.78 129.16 C 77.15 132.15 76.46 134.66 74.38 136.85 C 74.67 133.96 74.50 131.14 75.37 128.32 Z"/>
  <path id="path20868" fill="#060d3c" d="M 82.84 133.01 C 89.48 136.45 96.56 139.32 103.75 141.38 C 104.24 144.82 104.23 147.53 107.95 149.00 C 111.36 149.76 115.78 151.53 118.63 148.67 C 120.16 147.85 120.38 144.58 122.21 145.02 C 119.19 152.37 111.86 158.12 104.01 159.38 C 99.14 159.59 94.12 157.76 90.46 154.53 C 85.28 150.11 81.96 143.64 80.73 137.00 C 79.90 135.00 81.57 134.17 82.84 133.01 Z"/>
  <path id="path20870" fill="#060d3c" d="M 77.97 134.29 C 79.42 135.33 79.16 136.85 79.54 138.39 C 81.30 146.63 86.21 154.25 93.77 158.25 L 94.19 159.11 C 85.51 157.69 78.10 150.36 75.59 142.05 C 74.93 139.66 75.83 135.59 77.97 134.29 Z"/>
  <path id="path20872" fill="#060d3c" d="M 109.37 137.39 C 111.71 136.74 114.48 138.07 116.87 138.37 C 119.25 138.59 120.48 141.00 120.05 143.17 C 117.41 144.08 117.31 142.78 117.27 140.59 L 116.19 141.03 L 115.97 142.46 L 114.58 143.10 C 114.81 141.19 114.61 140.08 113.99 139.77 L 113.34 140.15 C 113.27 141.96 112.66 142.67 111.53 142.29 C 111.59 141.31 111.58 140.33 111.49 139.37 C 109.41 138.99 110.97 141.14 109.27 141.65 C 107.67 141.41 106.64 140.89 106.17 140.09 C 107.14 138.96 107.89 137.86 109.37 137.39 Z"/>
  <path id="path20874" fill="#060d3c" d="M 105.39 142.35 C 107.48 142.40 110.01 142.20 109.27 145.07 C 110.18 144.77 111.15 144.20 112.18 143.37 L 112.16 146.13 C 113.89 146.69 113.31 144.21 114.92 144.03 L 115.18 146.28 C 117.03 146.36 116.97 143.35 119.11 145.03 C 119.93 146.09 117.65 147.48 116.98 148.19 C 114.81 149.41 111.45 148.26 109.15 147.79 C 106.43 147.37 105.25 144.91 105.39 142.35 Z"/>
  <path id="path20876" fill="#060d3c" d="M 56.59 154.52 L 57.89 154.06 C 60.27 155.91 62.82 157.39 65.32 159.04 L 65.10 160.48 C 64.01 159.93 62.96 159.22 61.95 158.37 C 59.78 161.41 57.44 164.45 55.68 167.74 L 55.01 168.02 C 54.32 167.72 53.69 167.32 53.11 166.81 L 53.03 166.03 C 55.41 163.17 57.30 159.97 59.58 157.03 C 58.80 156.20 57.79 155.60 56.55 155.25 L 56.56 154.94 L 56.59 154.52 Z"/>
  <path id="path20878" fill="#060d3c" d="M 139.99 155.16 C 142.05 158.33 144.39 161.39 146.88 164.25 C 147.42 164.71 147.66 165.20 147.61 165.73 C 146.82 166.32 145.98 166.74 145.09 166.97 C 143.82 164.68 141.91 162.83 140.74 160.51 C 140.47 161.90 139.85 162.26 138.90 161.58 C 138.80 159.79 137.94 158.28 137.56 156.58 C 138.32 155.94 139.13 155.47 139.99 155.16 Z"/>
  <path id="path20880" fill="#060d3c" d="M 134.12 159.81 C 135.93 161.53 137.90 162.68 139.38 164.70 C 139.60 163.15 139.66 162.86 141.27 163.24 C 140.74 165.06 144.31 168.88 141.08 169.11 C 138.91 167.76 136.99 165.80 135.14 164.20 C 135.29 166.73 137.74 169.01 138.48 171.29 L 136.91 171.86 C 135.63 168.97 134.04 166.22 132.59 163.41 C 132.19 162.37 130.82 161.31 131.13 160.17 C 132.16 159.77 133.17 158.62 134.12 159.81 Z"/>
  <path id="path20882" fill="#060d3c" d="M 66.92 160.66 C 69.16 160.29 72.76 161.68 72.72 164.31 C 73.89 164.73 74.90 164.30 75.77 163.49 C 77.93 164.55 80.28 164.82 82.51 165.58 C 82.79 166.74 83.59 166.88 84.90 166.00 C 87.54 167.03 90.34 166.44 92.81 167.83 C 94.33 167.00 96.32 167.68 98.02 167.54 C 99.45 167.68 100.41 167.11 100.85 168.89 C 99.34 169.36 97.47 168.18 96.17 169.02 C 96.08 170.31 96.08 171.59 96.17 172.86 C 97.36 173.14 98.62 173.25 99.94 173.20 C 99.79 175.47 97.23 173.28 95.84 174.66 C 95.76 176.18 95.77 177.68 95.86 179.18 C 97.43 179.64 99.20 179.29 100.58 178.42 C 100.90 178.89 101.09 179.44 101.14 180.06 C 98.92 181.10 95.43 180.34 92.96 180.22 C 93.29 176.24 93.29 172.22 93.47 168.22 C 92.05 168.68 90.82 168.63 89.78 168.06 L 88.79 168.55 C 88.44 172.34 87.46 175.84 87.42 179.67 C 86.41 179.61 85.40 179.51 84.40 179.37 C 84.93 175.70 85.92 171.35 86.25 167.60 C 83.68 167.93 81.90 166.56 79.83 166.56 C 78.83 170.29 77.60 173.94 76.62 177.66 C 75.77 177.41 74.91 177.15 74.06 176.87 C 74.79 173.30 76.22 169.61 77.21 166.05 C 76.28 164.06 74.78 164.96 73.13 165.21 C 73.75 169.02 70.37 174.61 65.99 173.91 C 63.52 173.64 61.52 171.50 61.42 168.99 C 61.37 165.56 63.46 161.65 66.92 160.66 Z"/>
  <path id="path20884" fill="#ffffff" d="M 68.12 162.14 C 69.90 161.64 71.30 163.23 70.94 164.99 C 70.41 167.63 69.08 170.52 66.98 172.26 C 64.78 173.50 63.07 171.02 63.75 168.96 C 64.56 166.65 65.83 163.32 68.12 162.14 Z"/>
  <path id="path20886" fill="#060d3c" d="M 127.60 162.41 C 130.33 165.58 132.73 169.25 135.78 172.10 C 135.31 172.92 133.56 173.70 132.61 173.56 C 131.23 171.33 131.37 169.67 128.14 170.55 C 129.72 167.99 127.96 166.75 126.21 165.06 C 126.24 166.60 126.40 168.11 126.26 169.65 L 128.24 170.06 C 127.88 170.79 127.27 171.40 126.43 171.88 C 126.19 173.18 128.07 177.40 125.20 176.04 C 125.16 171.77 125.18 167.37 124.53 163.17 C 125.31 162.42 126.57 161.70 127.60 162.41 Z"/>
  <path id="path20888" fill="#060d3c" d="M 120.70 164.30 L 121.15 164.82 C 121.91 168.72 123.28 172.89 123.85 176.74 C 122.30 177.03 121.71 178.11 120.47 178.80 C 120.97 178.37 121.36 177.88 121.61 177.32 C 120.56 176.56 121.29 174.40 120.12 174.25 C 121.15 172.62 119.71 172.28 119.08 170.88 C 119.96 168.77 118.64 167.30 118.19 165.20 C 118.99 164.82 119.83 164.52 120.70 164.30 Z"/>
  <path id="path20890" fill="#060d3c" d="M 110.23 165.83 C 111.98 166.30 113.25 166.33 115.07 166.12 C 115.21 167.62 115.41 169.11 115.63 170.59 C 116.39 170.85 117.25 170.89 118.23 170.73 C 118.11 171.60 117.36 172.24 115.98 172.63 C 116.37 174.24 116.69 175.87 116.94 177.51 C 117.38 177.91 117.96 178.01 118.69 177.82 C 117.19 178.33 115.94 179.08 114.27 178.91 C 113.99 175.87 113.42 172.81 112.75 169.84 C 112.96 168.09 111.76 166.63 110.20 166.01 C 110.76 170.58 111.40 175.31 111.85 179.89 C 108.63 179.80 106.67 174.07 103.82 172.90 C 103.33 175.35 104.81 178.49 103.73 180.64 C 101.67 180.18 102.94 178.53 102.56 177.02 C 102.22 173.92 102.45 170.83 101.83 167.77 L 103.02 167.27 C 105.74 168.94 106.98 172.78 109.74 174.05 C 109.45 171.87 109.31 169.59 108.68 167.47 C 108.15 167.20 107.64 166.92 107.13 166.63 C 107.80 167.00 108.50 167.23 109.23 167.32 C 109.61 166.62 109.95 166.13 110.23 165.83 Z"/>
  <path id="path20892" fill="#060d3c" d="M 137.42 177.03 C 136.53 178.14 136.60 179.12 136.51 180.45 C 134.72 179.74 133.87 182.89 134.99 183.93 C 134.87 185.04 134.44 186.08 133.69 187.05 C 134.87 188.60 137.05 189.55 138.81 190.30 L 138.45 191.42 C 135.88 193.09 132.74 189.84 131.02 188.20 L 132.52 184.85 L 130.40 183.92 C 127.84 185.76 130.29 187.54 130.58 189.79 C 130.65 191.19 133.02 193.34 131.24 194.04 C 129.51 195.00 128.66 194.68 128.68 193.07 C 127.68 189.70 126.62 186.26 125.14 183.06 C 126.08 181.91 128.86 181.49 130.30 180.87 C 130.13 180.34 129.91 179.82 129.65 179.32 C 130.47 181.70 133.89 181.44 135.56 179.91 C 135.28 178.28 136.25 177.83 137.42 177.03 Z"/>
  <path id="path20894" fill="#060d3c" d="M 65.51 179.39 C 66.37 178.42 67.77 179.71 68.58 180.20 C 67.69 181.68 66.88 183.18 66.30 184.82 C 67.37 185.43 68.90 186.71 70.13 186.23 C 70.87 184.94 71.09 182.30 72.19 181.48 C 73.26 181.71 74.09 182.14 74.69 182.79 C 72.74 185.99 72.08 189.87 70.42 193.21 C 70.60 193.78 70.99 194.24 71.58 194.60 C 70.10 194.12 68.75 194.42 67.27 193.62 C 68.01 191.75 69.15 189.84 69.48 187.85 C 68.34 187.14 67.13 186.56 65.83 186.09 C 64.69 187.75 63.97 189.75 63.43 191.68 C 62.31 191.69 61.42 190.98 60.38 190.50 C 62.48 187.08 64.13 183.16 65.51 179.39 Z"/>
  <path id="path20896" fill="#060d3c" d="M 123.68 183.18 C 124.18 186.48 125.67 189.71 125.78 193.02 C 125.52 197.01 119.89 198.33 117.55 195.52 C 115.72 192.72 116.07 188.82 114.44 185.88 L 114.77 185.16 C 115.76 185.08 116.75 185.04 117.74 185.06 C 117.89 188.14 118.89 191.22 119.57 194.23 C 120.28 196.55 122.96 196.46 123.52 194.10 C 122.87 190.69 121.72 187.38 120.95 184.01 C 121.83 183.66 122.74 183.38 123.68 183.18 Z"/>
  <path id="path20898" fill="#060d3c" d="M 77.46 184.51 C 79.64 183.56 82.59 184.04 84.05 186.05 C 86.22 189.23 85.03 193.86 82.25 196.27 C 79.72 198.14 76.06 197.20 74.49 194.56 C 72.76 191.47 74.26 186.18 77.46 184.51 Z"/>
  <path id="path20900" fill="#060d3c" d="M 86.35 185.41 C 89.14 185.83 91.87 186.21 94.70 186.37 L 95.10 187.90 C 93.95 187.60 92.81 187.46 91.68 187.49 C 91.31 191.16 90.40 194.93 90.53 198.62 L 87.64 198.58 L 87.50 200.00 L 86.56 200.00 C 88.54 196.53 88.00 191.56 88.96 187.70 C 88.49 186.89 87.43 186.63 85.79 186.90 L 86.35 185.41 Z"/>
  <path id="path20902" fill="#ffffff" d="M 78.97 185.75 C 80.66 184.32 82.75 186.04 82.61 187.98 C 82.46 190.50 81.82 193.36 80.19 195.35 C 78.29 196.92 76.12 195.25 76.28 193.02 C 76.54 190.61 77.12 187.48 78.97 185.75 Z"/>
  <path id="path20904" fill="#060d3c" d="M 100.00 186.33 C 101.85 186.04 102.10 187.76 103.92 187.27 C 106.12 185.84 108.43 186.22 110.96 186.12 C 114.55 186.61 115.37 191.48 112.31 193.30 C 111.15 194.30 108.97 193.52 108.15 194.69 C 108.49 196.06 108.73 197.44 108.86 198.82 C 107.71 198.98 106.64 198.93 105.65 198.67 C 105.99 195.27 104.98 191.80 105.18 188.37 C 103.20 187.38 103.96 187.70 102.38 188.83 C 101.03 187.56 98.56 186.45 98.03 189.04 C 98.36 192.03 104.21 191.77 103.69 196.00 C 103.49 198.82 101.54 198.55 99.71 200.00 L 97.85 200.00 C 97.29 199.32 96.52 198.82 95.55 198.50 C 95.30 197.77 94.95 197.07 94.51 196.40 C 95.64 196.68 96.43 196.81 97.25 197.71 C 98.72 199.19 101.13 198.00 101.29 196.04 C 99.87 193.47 95.97 193.52 95.57 190.53 C 94.83 187.77 97.59 186.18 100.00 186.33 Z"/>
  <path id="path20906" fill="#ffffff" d="M 107.58 187.55 L 108.86 187.02 C 112.89 187.91 111.56 193.79 108.13 193.49 C 108.19 191.51 107.64 189.55 107.58 187.55 Z"/>
</svg>