<?xml version="1.0" encoding="UTF-8" standalone="no"?>
<svg xmlns:dc="http://purl.org/dc/elements/1.1/" xmlns:cc="http://creativecommons.org/ns#" xmlns:rdf="http://www.w3.org/1999/02/22-rdf-syntax-ns#" xmlns:svg="http://www.w3.org/2000/svg" xmlns="http://www.w3.org/2000/svg" xmlns:sodipodi="http://sodipodi.sourceforge.net/DTD/sodipodi-0.dtd" xmlns:inkscape="http://www.inkscape.org/namespaces/inkscape" inkscape:version="1.0 (4035a4f, 2020-05-01)" sodipodi:docname="79.svg" id="svg2949" height="200.0pt" width="200.0pt" viewBox="0 0 200 200" version="1.1">
  <metadata id="metadata2955">
    <rdf:RDF>
      <cc:Work rdf:about="">
        <dc:format>image/svg+xml</dc:format>
        <dc:type rdf:resource="http://purl.org/dc/dcmitype/StillImage"/>
      </cc:Work>
    </rdf:RDF>
  </metadata>
  <defs id="defs2953"/>
  <sodipodi:namedview inkscape:current-layer="svg2949" inkscape:window-maximized="0" inkscape:window-y="23" inkscape:window-x="0" inkscape:cy="133.33333" inkscape:cx="133.33333" inkscape:zoom="1.14375" showgrid="false" id="namedview2951" inkscape:window-height="713" inkscape:window-width="980" inkscape:pageshadow="2" inkscape:pageopacity="0" guidetolerance="10" gridtolerance="10" objecttolerance="10" borderopacity="1" bordercolor="#666666" pagecolor="#ffffff"/>
  <path style="fill:#ffffff;fill-opacity:0" id="path2877" fill="#ffffff" d="M 0.00 0.00 L 98.39 0.00 C 95.19 2.22 94.65 3.37 94.14 7.23 C 92.44 8.28 90.37 8.90 89.72 11.00 C 89.17 12.95 89.44 15.60 91.22 16.87 C 93.15 17.85 95.29 18.35 97.24 19.30 C 96.84 19.82 96.40 20.31 95.93 20.77 C 90.73 21.77 85.29 21.86 80.01 21.98 C 81.71 20.27 84.99 18.96 84.23 16.02 C 84.19 14.44 81.76 13.70 80.62 12.91 C 79.26 10.83 78.28 8.60 75.33 9.31 C 72.60 10.19 72.83 12.16 72.36 14.53 C 71.47 16.10 69.24 17.66 70.36 19.58 C 71.24 22.35 74.39 21.73 76.65 22.42 C 71.74 24.24 66.49 25.48 61.31 26.22 C 62.37 24.44 63.64 22.99 65.16 21.59 C 65.03 19.13 65.75 17.15 63.29 15.65 C 60.90 14.03 59.08 15.37 56.77 16.27 C 55.98 15.10 55.23 13.77 54.21 12.79 C 51.72 11.10 48.64 12.18 45.93 12.61 C 47.30 14.93 48.72 17.21 50.18 19.47 C 52.64 19.47 53.58 20.12 55.34 21.81 C 54.75 22.88 54.14 23.95 53.54 25.03 C 55.05 27.46 56.58 29.88 58.10 32.31 C 60.44 32.11 62.71 31.76 64.93 31.00 C 70.54 29.08 76.31 28.15 82.17 27.41 C 90.13 26.59 97.99 25.83 106.01 26.37 C 115.58 27.08 125.94 27.90 135.07 31.00 C 137.30 31.76 139.56 32.11 141.90 32.31 C 143.42 29.88 144.95 27.46 146.46 25.03 C 145.86 23.95 145.25 22.88 144.66 21.80 C 146.42 20.14 147.36 19.46 149.82 19.47 C 151.28 17.21 152.70 14.92 154.06 12.60 C 151.36 12.18 148.28 11.10 145.79 12.79 C 144.77 13.77 144.02 15.10 143.23 16.27 C 140.92 15.37 139.10 14.03 136.71 15.65 C 134.25 17.16 134.97 19.14 134.84 21.59 C 136.36 22.99 137.63 24.44 138.70 26.22 C 133.51 25.48 128.26 24.24 123.35 22.42 C 125.61 21.73 128.76 22.35 129.63 19.58 C 130.76 17.66 128.53 16.10 127.64 14.53 C 127.17 12.16 127.40 10.20 124.68 9.31 C 121.72 8.60 120.74 10.83 119.38 12.91 C 118.24 13.70 115.81 14.44 115.77 16.02 C 115.02 18.91 118.26 20.25 119.92 21.98 C 114.66 21.86 109.24 21.76 104.07 20.77 C 103.60 20.31 103.15 19.82 102.75 19.29 C 105.46 17.73 109.99 17.87 110.44 13.99 C 111.10 10.10 108.90 8.73 105.86 7.23 C 105.42 4.05 104.98 2.43 102.37 0.43 L 101.47 0.00 L 200.00 0.00 L 200.00 200.00 L 100.19 200.00 C 112.17 190.06 122.97 178.82 132.72 166.70 C 154.70 139.10 170.49 107.09 174.70 71.77 C 161.35 67.91 147.93 64.27 134.48 60.76 C 133.08 57.63 131.97 54.87 128.00 54.78 C 124.73 54.46 123.20 56.38 121.14 58.47 C 116.31 57.86 111.48 57.28 106.63 56.81 C 104.83 54.35 103.37 52.25 100.00 52.26 C 96.63 52.25 95.17 54.35 93.37 56.81 C 88.52 57.28 83.69 57.86 78.86 58.47 C 76.80 56.38 75.27 54.46 72.00 54.78 C 68.03 54.87 66.92 57.63 65.52 60.76 C 52.07 64.27 38.66 67.91 25.30 71.77 C 29.07 103.42 42.18 132.55 60.80 158.18 C 72.05 173.61 85.14 187.78 99.81 200.00 L 0.00 200.00 L 0.00 0.00 Z"/>
  <path id="path2879" fill="#a8912d" d="M 98.39 0.00 L 101.47 0.00 L 102.37 0.43 C 104.98 2.43 105.42 4.05 105.86 7.23 C 108.90 8.73 111.10 10.10 110.44 13.99 C 109.99 17.87 105.46 17.73 102.75 19.29 C 103.15 19.82 103.60 20.31 104.07 20.77 C 109.24 21.76 114.66 21.86 119.92 21.98 C 118.26 20.25 115.02 18.91 115.77 16.02 C 115.81 14.44 118.24 13.70 119.38 12.91 C 120.74 10.83 121.72 8.60 124.68 9.31 C 127.40 10.20 127.17 12.16 127.64 14.53 C 128.53 16.10 130.76 17.66 129.63 19.58 C 128.76 22.35 125.61 21.73 123.35 22.42 C 128.26 24.24 133.51 25.48 138.70 26.22 C 137.63 24.44 136.36 22.99 134.84 21.59 C 134.97 19.14 134.25 17.16 136.71 15.65 C 139.10 14.03 140.92 15.37 143.23 16.27 C 144.02 15.10 144.77 13.77 145.79 12.79 C 148.28 11.10 151.36 12.18 154.06 12.60 C 152.70 14.92 151.28 17.21 149.82 19.47 C 147.36 19.46 146.42 20.14 144.66 21.80 C 145.25 22.88 145.86 23.95 146.46 25.03 C 144.95 27.46 143.42 29.88 141.90 32.31 C 139.56 32.11 137.30 31.76 135.07 31.00 C 125.94 27.90 115.58 27.08 106.01 26.37 C 97.99 25.83 90.13 26.59 82.17 27.41 C 76.31 28.15 70.54 29.08 64.93 31.00 C 62.71 31.76 60.44 32.11 58.10 32.31 C 56.58 29.88 55.05 27.46 53.54 25.03 C 54.14 23.95 54.75 22.88 55.34 21.81 C 53.58 20.12 52.64 19.47 50.18 19.47 C 48.72 17.21 47.30 14.93 45.93 12.61 C 48.64 12.18 51.72 11.10 54.21 12.79 C 55.23 13.77 55.98 15.10 56.77 16.27 C 59.08 15.37 60.90 14.03 63.29 15.65 C 65.75 17.15 65.03 19.13 65.16 21.59 C 63.64 22.99 62.37 24.44 61.31 26.22 C 66.49 25.48 71.74 24.24 76.65 22.42 C 74.39 21.73 71.24 22.35 70.36 19.58 C 69.24 17.66 71.47 16.10 72.36 14.53 C 72.83 12.16 72.60 10.19 75.33 9.31 C 78.28 8.60 79.26 10.83 80.62 12.91 C 81.76 13.70 84.19 14.44 84.23 16.02 C 84.99 18.96 81.71 20.27 80.01 21.98 C 85.29 21.86 90.73 21.77 95.93 20.77 C 96.40 20.31 96.84 19.82 97.24 19.30 C 95.29 18.35 93.15 17.85 91.22 16.87 C 89.44 15.60 89.17 12.95 89.72 11.00 C 90.37 8.90 92.44 8.28 94.14 7.23 C 94.65 3.37 95.19 2.22 98.39 0.00 Z"/>
  <path id="path2881" fill="#ffffff" d="M 98.44 9.26 C 100.05 8.78 101.74 8.81 102.67 10.42 C 104.15 12.88 101.97 15.80 99.22 15.13 C 96.35 14.30 96.12 10.86 98.44 9.26 Z"/>
  <path id="path2883" fill="#ffffff" d="M 77.04 13.73 C 77.80 14.72 80.70 16.57 79.11 17.79 C 78.73 19.36 75.18 19.44 75.04 17.78 C 74.10 15.90 75.91 14.90 77.04 13.73 Z"/>
  <path id="path2885" fill="#ffffff" d="M 122.97 13.74 C 124.09 14.91 125.90 15.90 124.96 17.78 C 124.84 19.43 121.24 19.37 120.89 17.79 C 119.36 16.51 122.17 14.72 122.97 13.74 Z"/>
  <path id="path2887" fill="#a8912d" d="M 139.21 33.34 C 138.94 34.84 138.65 36.33 138.36 37.83 C 132.10 35.57 125.61 34.10 119.03 33.15 C 100.05 30.43 79.85 31.54 61.64 37.83 C 61.34 36.34 61.05 34.85 60.78 33.35 C 66.02 31.71 71.31 30.28 76.76 29.51 C 97.36 26.25 119.24 27.04 139.21 33.34 Z"/>
  <path id="path2889" fill="#ba1319" d="M 100.00 32.56 C 101.10 33.49 102.16 34.44 103.23 35.39 C 102.15 36.25 101.08 37.10 100.00 37.96 C 98.92 37.10 97.85 36.25 96.77 35.39 C 97.84 34.44 98.90 33.48 100.00 32.56 Z"/>
  <path id="path2891" fill="#a8912d" d="M 81.74 34.84 C 82.22 35.66 82.70 36.48 83.17 37.30 C 81.80 38.27 80.45 38.98 78.89 39.60 C 78.54 38.47 78.24 37.32 78.00 36.16 C 79.01 34.53 80.08 34.95 81.74 34.84 Z"/>
  <path id="path2893" fill="#a8912d" d="M 121.98 36.18 C 121.75 37.32 121.47 38.44 121.14 39.56 C 119.43 39.00 118.12 38.51 116.91 37.14 C 117.76 34.71 120.55 33.67 121.98 36.18 Z"/>
  <path id="path2895" fill="#ba1319" d="M 61.86 39.06 C 62.76 40.36 63.30 41.87 63.23 43.47 C 61.89 42.97 61.12 42.18 60.90 41.08 C 60.97 40.35 61.29 39.67 61.86 39.06 Z"/>
  <path id="path2897" fill="#a8912d" d="M 105.76 39.11 C 116.41 39.97 126.57 41.01 136.69 44.67 C 136.37 46.19 136.05 47.72 135.73 49.24 C 127.03 46.13 117.95 44.50 108.76 43.69 C 102.82 42.95 97.18 42.95 91.24 43.68 C 82.05 44.50 72.97 46.13 64.26 49.24 C 63.95 47.71 63.64 46.18 63.33 44.65 C 69.55 42.43 75.97 41.10 82.52 40.27 C 90.32 39.36 97.89 38.51 105.76 39.11 Z"/>
  <path id="path2899" fill="#ba1319" d="M 138.10 39.08 C 138.63 39.70 139.02 40.37 139.26 41.09 C 138.83 42.14 138.00 42.93 136.77 43.47 C 136.72 41.88 137.23 40.40 138.10 39.08 Z"/>
  <path id="path2901" fill="#a8912d" d="M 100.00 52.26 C 103.37 52.25 104.83 54.35 106.63 56.81 C 111.48 57.28 116.31 57.86 121.14 58.47 C 123.20 56.38 124.73 54.46 128.00 54.78 C 131.97 54.87 133.08 57.63 134.48 60.76 C 147.93 64.27 161.35 67.91 174.70 71.77 C 170.49 107.09 154.70 139.10 132.72 166.70 C 122.97 178.82 112.17 190.06 100.19 200.00 L 99.81 200.00 C 85.14 187.78 72.05 173.61 60.80 158.18 C 42.18 132.55 29.07 103.42 25.30 71.77 C 38.66 67.91 52.07 64.27 65.52 60.76 C 66.92 57.63 68.03 54.87 72.00 54.78 C 75.27 54.46 76.80 56.38 78.86 58.47 C 83.69 57.86 88.52 57.28 93.37 56.81 C 95.17 54.35 96.63 52.25 100.00 52.26 Z"/>
  <path id="path2903" fill="#ffffff" d="M 98.38 55.35 C 101.08 54.26 103.89 56.05 103.81 59.00 C 103.55 62.11 99.81 63.73 97.46 61.56 C 95.43 59.75 95.96 56.50 98.38 55.35 Z"/>
  <path id="path2905" fill="#ffffff" d="M 71.47 57.50 C 74.54 56.68 77.35 59.99 75.87 62.84 C 74.73 65.26 71.11 65.66 69.48 63.54 C 67.69 61.51 68.89 58.11 71.47 57.50 Z"/>
  <path id="path2907" fill="#ffffff" d="M 126.49 57.53 C 129.67 56.60 132.46 59.94 130.96 62.88 C 129.62 65.63 125.40 65.59 124.14 62.81 C 123.02 60.77 124.34 58.17 126.49 57.53 Z"/>
  <path id="path2909" fill="#ffffff" d="M 93.43 61.03 C 95.39 63.15 96.80 65.27 100.00 65.33 C 103.20 65.27 104.61 63.15 106.57 61.03 C 111.16 61.44 116.12 61.43 120.54 62.72 C 122.18 64.44 123.66 66.27 125.49 67.82 C 125.54 73.23 125.52 78.64 125.49 84.04 C 123.05 85.98 120.88 87.47 121.09 90.97 C 121.15 94.12 123.39 95.38 125.47 97.29 C 125.75 103.24 125.27 108.64 123.96 114.45 C 120.87 115.36 118.13 115.63 116.82 119.01 C 115.41 122.32 117.15 124.41 118.84 127.04 C 115.09 133.43 110.42 139.13 104.46 143.58 C 100.62 141.94 99.38 141.94 95.54 143.58 C 89.58 139.13 84.91 133.43 81.16 127.05 C 82.85 124.41 84.59 122.32 83.18 119.01 C 81.87 115.63 79.13 115.36 76.04 114.45 C 74.73 108.64 74.25 103.24 74.53 97.29 C 76.61 95.38 78.85 94.13 78.91 90.97 C 79.13 87.47 76.95 85.98 74.51 84.04 C 74.48 78.64 74.46 73.23 74.51 67.82 C 76.33 66.27 77.82 64.45 79.45 62.73 C 83.86 61.40 88.85 61.45 93.43 61.03 Z"/>
  <path id="path2911" fill="#ba1319" d="M 66.69 64.84 C 67.95 65.77 69.17 66.75 70.39 67.72 C 70.35 73.12 70.44 78.51 70.32 83.91 C 68.38 85.80 66.21 87.10 65.91 90.04 C 65.43 93.49 68.14 95.20 70.27 97.34 C 70.31 103.77 70.74 109.95 72.28 116.21 C 71.45 118.74 69.89 121.21 71.11 123.86 C 72.02 126.66 75.67 127.30 77.59 129.25 C 79.28 131.33 80.53 133.74 82.16 135.87 C 85.35 140.20 89.29 143.57 93.27 147.13 C 93.73 149.22 93.75 152.05 95.52 153.49 C 96.88 154.50 98.55 155.12 100.06 155.85 C 100.08 158.24 100.09 160.62 100.10 163.01 C 97.46 163.56 95.04 164.11 93.08 166.09 C 89.30 169.75 89.34 176.25 93.06 179.94 C 95.01 181.96 97.44 182.44 100.08 182.98 C 100.11 186.93 100.10 190.88 100.05 194.83 C 86.84 183.44 74.98 170.43 64.63 156.40 C 46.80 132.15 34.09 104.66 29.73 74.73 C 42.00 71.32 54.27 67.60 66.69 64.84 Z"/>
  <path id="path2913" fill="#23376c" d="M 133.15 65.03 L 133.67 64.72 C 145.94 67.80 158.13 71.24 170.29 74.69 C 168.05 90.08 163.59 105.04 157.24 119.23 C 144.20 148.16 123.87 173.99 100.05 194.83 C 100.10 190.88 100.11 186.93 100.08 182.98 C 102.89 182.34 105.47 181.72 107.38 179.39 C 110.50 175.82 110.50 170.21 107.38 166.64 C 105.45 164.34 102.89 163.69 100.10 163.01 C 100.09 160.62 100.08 158.24 100.06 155.85 C 101.67 154.99 103.65 154.29 104.96 152.98 C 106.30 151.53 106.30 148.93 106.69 147.06 C 113.32 141.65 118.43 135.93 122.71 128.49 C 125.17 127.30 127.74 126.62 128.88 123.86 C 130.07 121.10 128.60 119.08 127.67 116.55 C 129.13 109.98 129.76 104.03 129.66 97.28 C 131.94 95.14 134.47 93.61 134.06 90.04 C 133.75 87.06 131.66 85.84 129.63 84.01 C 129.54 78.55 129.63 73.08 129.54 67.62 C 130.73 66.75 131.93 65.86 133.15 65.03 Z"/>
  <path id="path2915" fill="#a8912d" d="M 92.73 74.11 C 93.40 75.57 94.06 77.03 94.72 78.50 C 95.28 77.52 95.84 76.55 96.40 75.58 C 96.56 76.62 96.73 77.67 96.89 78.71 C 98.21 77.79 99.56 76.92 100.93 76.07 C 100.21 77.52 99.48 78.97 98.73 80.41 C 96.36 80.20 93.98 80.15 91.62 80.24 C 94.26 80.49 96.82 80.98 99.31 81.73 C 95.44 81.57 91.62 81.42 87.76 81.74 C 86.75 79.91 85.66 78.15 84.51 76.41 C 86.71 77.10 88.92 77.51 91.19 77.83 C 91.70 76.59 92.21 75.35 92.73 74.11 Z"/>
  <path id="path2917" fill="#ffffff" d="M 88.72 80.52 C 88.77 80.49 88.77 80.49 88.72 80.52 Z"/>
  <path id="path2919" fill="#a8912d" d="M 150.06 80.21 C 154.07 79.79 157.41 83.25 157.98 87.02 C 158.55 91.22 158.20 95.58 158.21 99.80 C 157.30 99.86 156.40 99.91 155.49 99.96 C 155.44 98.61 155.39 97.26 155.35 95.90 C 152.14 95.89 148.93 95.89 145.72 95.90 C 145.66 97.33 145.60 98.76 145.54 100.20 C 144.65 100.06 143.75 99.93 142.86 99.80 C 143.05 95.56 142.91 91.29 143.28 87.07 C 143.59 83.67 146.58 80.43 150.06 80.21 Z"/>
  <path id="path2921" fill="#a8912d" d="M 56.40 81.03 C 56.37 82.02 56.34 83.01 56.32 84.00 C 53.82 84.12 51.05 83.91 48.64 84.64 C 44.71 86.48 43.31 91.50 46.03 95.00 C 48.55 98.38 52.83 97.52 56.52 97.83 L 56.52 100.61 C 52.40 100.43 48.16 101.18 44.90 98.11 C 40.42 94.20 40.61 86.93 45.27 83.25 C 48.43 80.51 52.50 81.21 56.40 81.03 Z"/>
  <path id="path2923" fill="#23376c" d="M 153.66 84.33 C 155.97 86.21 155.26 90.47 155.50 93.15 C 152.19 93.15 148.89 93.15 145.58 93.14 C 145.64 90.82 145.53 88.39 146.00 86.12 C 147.24 83.06 151.20 82.05 153.66 84.33 Z"/>
  <path id="path2925" fill="#a8912d" d="M 90.91 84.09 C 93.71 84.69 96.19 85.65 98.17 87.82 C 100.93 90.17 100.41 93.91 101.80 97.42 C 101.14 97.46 100.47 97.50 99.81 97.55 C 100.31 98.45 100.82 99.36 101.33 100.27 C 100.03 100.37 98.73 100.46 97.44 100.55 C 97.39 101.73 97.34 102.92 97.30 104.10 C 96.36 103.58 95.41 103.07 94.47 102.55 C 93.61 102.87 92.26 104.23 91.31 103.58 C 90.42 103.05 89.57 102.43 88.73 101.83 C 88.60 100.55 88.21 99.30 87.58 98.09 C 89.20 97.12 90.83 96.15 92.48 95.23 C 92.86 93.31 93.24 91.39 93.59 89.47 C 92.92 91.35 92.65 93.80 91.37 95.35 C 90.03 94.67 88.74 93.95 87.32 93.46 L 87.58 92.81 C 86.76 92.00 86.00 91.15 85.29 90.25 C 86.92 88.01 88.87 85.96 90.91 84.09 Z"/>
  <path id="path2927" fill="#ffffff" d="M 70.40 87.44 C 72.92 85.58 76.54 88.03 76.24 90.93 C 75.91 93.70 72.75 95.49 70.33 93.76 C 68.05 92.21 68.07 88.94 70.40 87.44 Z"/>
  <path id="path2929" fill="#a8912d" d="M 111.94 86.94 C 115.06 87.72 116.54 89.99 118.21 92.52 C 116.80 92.51 115.40 92.50 113.99 92.48 C 112.92 91.01 111.86 89.54 110.78 88.07 L 109.26 89.82 C 111.24 92.73 114.88 93.91 114.50 97.98 C 114.43 100.47 112.40 101.04 110.78 102.47 C 112.91 106.21 114.93 109.47 115.30 113.90 C 114.87 114.81 114.43 115.71 114.00 116.62 C 112.03 116.62 110.07 116.62 108.10 116.61 C 108.26 115.90 108.42 115.18 108.58 114.46 C 109.54 114.09 110.51 113.72 111.47 113.35 C 110.38 110.74 109.47 108.54 106.61 107.49 C 103.76 105.90 101.42 106.88 98.55 107.73 C 98.16 107.58 97.77 107.43 97.38 107.28 C 96.22 110.61 94.54 113.66 92.69 116.65 C 90.66 116.63 88.63 116.60 86.60 116.52 C 87.73 114.72 88.47 114.16 90.45 113.36 C 90.75 110.88 90.72 108.13 91.58 105.77 C 92.40 104.63 93.44 103.66 94.44 102.67 C 95.50 103.52 96.55 104.37 97.60 105.22 C 97.66 103.90 97.71 102.59 97.76 101.27 C 99.29 101.00 100.82 100.73 102.35 100.47 L 100.63 98.61 C 102.83 98.01 104.74 97.83 107.03 97.98 C 108.97 97.89 111.07 98.58 112.60 97.08 C 111.23 94.71 109.17 93.14 107.52 91.01 C 106.77 88.17 109.37 86.34 111.94 86.94 Z"/>
  <path id="path2931" fill="#ffffff" d="M 125.44 87.50 C 127.99 85.54 131.73 87.97 131.36 91.00 C 131.06 93.75 127.65 95.54 125.39 93.69 C 123.15 92.01 123.21 89.15 125.44 87.50 Z"/>
  <path id="path2933" fill="#a8912d" d="M 87.41 102.51 C 89.42 102.58 90.50 103.92 92.08 104.99 C 90.56 106.29 88.62 106.96 86.28 107.02 C 85.59 108.54 84.91 110.07 84.21 111.59 C 83.58 110.70 82.89 109.81 82.37 108.86 C 82.45 107.05 83.10 105.24 83.62 103.52 C 84.86 103.06 86.12 102.72 87.41 102.51 Z"/>
  <path id="path2935" fill="#a8912d" d="M 102.25 107.00 C 104.32 107.56 106.38 108.14 108.43 108.75 C 107.40 112.03 105.25 114.30 102.88 116.67 C 100.89 116.63 98.91 116.58 96.92 116.50 C 98.22 114.02 99.01 114.03 101.68 113.42 C 102.17 111.26 102.32 109.22 102.25 107.00 Z"/>
  <path id="path2937" fill="#ffffff" d="M 75.24 118.18 C 77.98 116.54 81.30 118.81 80.87 121.92 C 80.70 124.56 77.54 126.15 75.30 124.74 C 72.75 123.40 72.74 119.56 75.24 118.18 Z"/>
  <path id="path2939" fill="#ffffff" d="M 120.46 118.49 C 122.67 116.51 126.51 118.19 126.60 121.15 C 126.96 124.00 123.67 126.22 121.17 124.86 C 118.72 123.75 118.38 120.14 120.46 118.49 Z"/>
  <path id="path2941" fill="#ffffff" d="M 98.38 145.35 C 101.08 144.26 103.88 146.05 103.81 149.00 C 103.54 152.09 99.81 153.79 97.46 151.55 C 95.43 149.76 95.96 146.49 98.38 145.35 Z"/>
  <path id="path2943" fill="#a8912d" d="M 100.10 163.01 C 102.89 163.69 105.45 164.34 107.38 166.64 C 110.50 170.21 110.50 175.82 107.38 179.39 C 105.47 181.72 102.89 182.34 100.08 182.98 C 97.44 182.44 95.01 181.96 93.06 179.94 C 89.34 176.25 89.30 169.75 93.08 166.09 C 95.04 164.11 97.46 163.56 100.10 163.01 Z"/>
  <path id="path2945" fill="#ba1319" d="M 100.12 165.96 C 100.03 170.68 100.13 175.40 100.08 180.13 C 98.08 179.47 96.06 179.03 94.71 177.28 C 92.71 174.77 92.71 171.23 94.70 168.72 C 96.03 166.98 98.12 166.55 100.12 165.96 Z"/>
  <path id="path2947" fill="#23376c" d="M 100.12 165.96 C 104.49 166.65 107.76 170.21 106.60 174.78 C 105.72 178.13 103.14 179.25 100.08 180.13 C 100.13 175.40 100.03 170.68 100.12 165.96 Z"/>
</svg>