<?xml version="1.0" encoding="utf-8"?>
<!-- Generator: Adobe Illustrator 23.1.1, SVG Export Plug-In . SVG Version: 6.00 Build 0)  -->
<svg version="1.1" id="Layer_1" xmlns="http://www.w3.org/2000/svg" xmlns:xlink="http://www.w3.org/1999/xlink" x="0px" y="0px"
	 viewBox="0 0 1920 1920" style="enable-background:new 0 0 1920 1920;" xml:space="preserve">
<style type="text/css">
	.st0{fill:none;}
	.st1{clip-path:url(#SVGID_2_);fill:none;stroke:#C8C8C8;stroke-width:2;stroke-miterlimit:10;}
	.st2{clip-path:url(#SVGID_4_);fill:none;stroke:#C8C8C8;stroke-width:2;stroke-miterlimit:10;}
	.st3{clip-path:url(#SVGID_6_);fill:none;stroke:#C8C8C8;stroke-width:2;stroke-miterlimit:10;}
	.st4{clip-path:url(#SVGID_8_);fill:none;stroke:#C8C8C8;stroke-width:2;stroke-miterlimit:10;}
	.st5{fill:#FFFFFF;}
	.st6{fill:#00CB47;}
	.st7{clip-path:url(#SVGID_10_);fill:#333333;}
	.st8{clip-path:url(#SVGID_10_);}
	.st9{opacity:0.4;clip-path:url(#SVGID_12_);}
	.st10{clip-path:url(#SVGID_14_);fill:#FFFFFF;}

		.st11{clip-path:url(#SVGID_12_);fill:none;stroke:#FFFFFF;stroke-width:4;stroke-linecap:round;stroke-linejoin:round;stroke-miterlimit:10;stroke-dasharray:30,30;}
	.st12{clip-path:url(#SVGID_12_);fill:#FDFAF8;}
	.st13{clip-path:url(#SVGID_12_);fill:#969696;}
	.st14{clip-path:url(#SVGID_12_);fill:url(#SVGID_15_);}
	.st15{clip-path:url(#SVGID_12_);fill:#C8C8C8;}
	.st16{clip-path:url(#SVGID_12_);fill:url(#SVGID_16_);}
	.st17{clip-path:url(#SVGID_12_);fill:url(#SVGID_17_);}
	.st18{clip-path:url(#SVGID_12_);fill:#FBD7C2;}
	.st19{clip-path:url(#SVGID_12_);fill:url(#SVGID_18_);}
	.st20{clip-path:url(#SVGID_12_);fill:url(#SVGID_19_);}
	.st21{clip-path:url(#SVGID_12_);fill:url(#SVGID_20_);}
	.st22{clip-path:url(#SVGID_12_);fill:none;stroke:#FFFFFF;stroke-width:4;stroke-linecap:round;stroke-linejoin:round;}

		.st23{clip-path:url(#SVGID_12_);fill:none;stroke:#FFFFFF;stroke-width:4;stroke-linecap:round;stroke-linejoin:round;stroke-dasharray:30.757,30.757;}
	.st24{clip-path:url(#SVGID_22_);fill:#FFFFFF;}
</style>
<pattern  y="1920" width="209" height="196" patternUnits="userSpaceOnUse" id="Unnamed_Pattern" viewBox="0 -245 209 196" style="overflow:visible;">
	<g>
		<rect y="-245" class="st0" width="209" height="196"/>
		<g>
			<defs>
				<rect id="SVGID_1_" y="-245" width="209" height="196"/>
			</defs>
			<clipPath id="SVGID_2_">
				<use xlink:href="#SVGID_1_"  style="overflow:visible;"/>
			</clipPath>
			<line class="st1" x1="10" y1="-294" x2="10" y2="-196"/>
			<line class="st1" x1="19" y1="-294" x2="19" y2="-196"/>
			<line class="st1" x1="28" y1="-294" x2="28" y2="-196"/>
			<line class="st1" x1="37" y1="-294" x2="37" y2="-196"/>
			<line class="st1" x1="46" y1="-294" x2="46" y2="-196"/>
			<line class="st1" x1="55" y1="-294" x2="55" y2="-196"/>
			<line class="st1" x1="64" y1="-294" x2="64" y2="-196"/>
			<line class="st1" x1="73" y1="-294" x2="73" y2="-196"/>
			<line class="st1" x1="82" y1="-294" x2="82" y2="-196"/>
			<line class="st1" x1="91" y1="-294" x2="91" y2="-196"/>
			<line class="st1" x1="100" y1="-294" x2="100" y2="-196"/>
			<line class="st1" x1="109" y1="-294" x2="109" y2="-196"/>
			<line class="st1" x1="118" y1="-294" x2="118" y2="-196"/>
			<line class="st1" x1="127" y1="-294" x2="127" y2="-196"/>
			<line class="st1" x1="136" y1="-294" x2="136" y2="-196"/>
			<line class="st1" x1="145" y1="-294" x2="145" y2="-196"/>
			<line class="st1" x1="154" y1="-294" x2="154" y2="-196"/>
			<line class="st1" x1="163" y1="-294" x2="163" y2="-196"/>
			<line class="st1" x1="172" y1="-294" x2="172" y2="-196"/>
			<line class="st1" x1="181" y1="-294" x2="181" y2="-196"/>
			<line class="st1" x1="190" y1="-294" x2="190" y2="-196"/>
			<line class="st1" x1="199" y1="-294" x2="199" y2="-196"/>
			<line class="st1" x1="208" y1="-294" x2="208" y2="-196"/>
			<line class="st1" x1="10" y1="-196" x2="10" y2="-98"/>
			<line class="st1" x1="19" y1="-196" x2="19" y2="-98"/>
			<line class="st1" x1="28" y1="-196" x2="28" y2="-98"/>
			<line class="st1" x1="37" y1="-196" x2="37" y2="-98"/>
			<line class="st1" x1="46" y1="-196" x2="46" y2="-98"/>
			<line class="st1" x1="55" y1="-196" x2="55" y2="-98"/>
			<line class="st1" x1="64" y1="-196" x2="64" y2="-98"/>
			<line class="st1" x1="73" y1="-196" x2="73" y2="-98"/>
			<line class="st1" x1="82" y1="-196" x2="82" y2="-98"/>
			<line class="st1" x1="91" y1="-196" x2="91" y2="-98"/>
			<line class="st1" x1="100" y1="-196" x2="100" y2="-98"/>
			<line class="st1" x1="109" y1="-196" x2="109" y2="-98"/>
			<line class="st1" x1="118" y1="-196" x2="118" y2="-98"/>
			<line class="st1" x1="127" y1="-196" x2="127" y2="-98"/>
			<line class="st1" x1="136" y1="-196" x2="136" y2="-98"/>
			<line class="st1" x1="145" y1="-196" x2="145" y2="-98"/>
			<line class="st1" x1="154" y1="-196" x2="154" y2="-98"/>
			<line class="st1" x1="163" y1="-196" x2="163" y2="-98"/>
			<line class="st1" x1="172" y1="-196" x2="172" y2="-98"/>
			<line class="st1" x1="181" y1="-196" x2="181" y2="-98"/>
			<line class="st1" x1="190" y1="-196" x2="190" y2="-98"/>
			<line class="st1" x1="199" y1="-196" x2="199" y2="-98"/>
			<line class="st1" x1="208" y1="-196" x2="208" y2="-98"/>
			<line class="st1" x1="10" y1="-98" x2="10" y2="0"/>
			<line class="st1" x1="19" y1="-98" x2="19" y2="0"/>
			<line class="st1" x1="28" y1="-98" x2="28" y2="0"/>
			<line class="st1" x1="37" y1="-98" x2="37" y2="0"/>
			<line class="st1" x1="46" y1="-98" x2="46" y2="0"/>
			<line class="st1" x1="55" y1="-98" x2="55" y2="0"/>
			<line class="st1" x1="64" y1="-98" x2="64" y2="0"/>
			<line class="st1" x1="73" y1="-98" x2="73" y2="0"/>
			<line class="st1" x1="82" y1="-98" x2="82" y2="0"/>
			<line class="st1" x1="91" y1="-98" x2="91" y2="0"/>
			<line class="st1" x1="100" y1="-98" x2="100" y2="0"/>
			<line class="st1" x1="109" y1="-98" x2="109" y2="0"/>
			<line class="st1" x1="118" y1="-98" x2="118" y2="0"/>
			<line class="st1" x1="127" y1="-98" x2="127" y2="0"/>
			<line class="st1" x1="136" y1="-98" x2="136" y2="0"/>
			<line class="st1" x1="145" y1="-98" x2="145" y2="0"/>
			<line class="st1" x1="154" y1="-98" x2="154" y2="0"/>
			<line class="st1" x1="163" y1="-98" x2="163" y2="0"/>
			<line class="st1" x1="172" y1="-98" x2="172" y2="0"/>
			<line class="st1" x1="181" y1="-98" x2="181" y2="0"/>
			<line class="st1" x1="190" y1="-98" x2="190" y2="0"/>
			<line class="st1" x1="199" y1="-98" x2="199" y2="0"/>
			<line class="st1" x1="208" y1="-98" x2="208" y2="0"/>
		</g>
	</g>
</pattern>
<pattern  y="1920" width="209" height="196" patternUnits="userSpaceOnUse" id="Unnamed_Pattern_2" viewBox="0 -245 209 196" style="overflow:visible;">
	<g>
		<rect y="-245" class="st0" width="209" height="196"/>
		<g>
			<defs>
				<rect id="SVGID_3_" y="-245" width="209" height="196"/>
			</defs>
			<clipPath id="SVGID_4_">
				<use xlink:href="#SVGID_3_"  style="overflow:visible;"/>
			</clipPath>
			<line class="st2" x1="10" y1="-294" x2="10" y2="-196"/>
			<line class="st2" x1="19" y1="-294" x2="19" y2="-196"/>
			<line class="st2" x1="28" y1="-294" x2="28" y2="-196"/>
			<line class="st2" x1="37" y1="-294" x2="37" y2="-196"/>
			<line class="st2" x1="46" y1="-294" x2="46" y2="-196"/>
			<line class="st2" x1="55" y1="-294" x2="55" y2="-196"/>
			<line class="st2" x1="64" y1="-294" x2="64" y2="-196"/>
			<line class="st2" x1="73" y1="-294" x2="73" y2="-196"/>
			<line class="st2" x1="82" y1="-294" x2="82" y2="-196"/>
			<line class="st2" x1="91" y1="-294" x2="91" y2="-196"/>
			<line class="st2" x1="100" y1="-294" x2="100" y2="-196"/>
			<line class="st2" x1="109" y1="-294" x2="109" y2="-196"/>
			<line class="st2" x1="118" y1="-294" x2="118" y2="-196"/>
			<line class="st2" x1="127" y1="-294" x2="127" y2="-196"/>
			<line class="st2" x1="136" y1="-294" x2="136" y2="-196"/>
			<line class="st2" x1="145" y1="-294" x2="145" y2="-196"/>
			<line class="st2" x1="154" y1="-294" x2="154" y2="-196"/>
			<line class="st2" x1="163" y1="-294" x2="163" y2="-196"/>
			<line class="st2" x1="172" y1="-294" x2="172" y2="-196"/>
			<line class="st2" x1="181" y1="-294" x2="181" y2="-196"/>
			<line class="st2" x1="190" y1="-294" x2="190" y2="-196"/>
			<line class="st2" x1="199" y1="-294" x2="199" y2="-196"/>
			<line class="st2" x1="208" y1="-294" x2="208" y2="-196"/>
			<line class="st2" x1="10" y1="-196" x2="10" y2="-98"/>
			<line class="st2" x1="19" y1="-196" x2="19" y2="-98"/>
			<line class="st2" x1="28" y1="-196" x2="28" y2="-98"/>
			<line class="st2" x1="37" y1="-196" x2="37" y2="-98"/>
			<line class="st2" x1="46" y1="-196" x2="46" y2="-98"/>
			<line class="st2" x1="55" y1="-196" x2="55" y2="-98"/>
			<line class="st2" x1="64" y1="-196" x2="64" y2="-98"/>
			<line class="st2" x1="73" y1="-196" x2="73" y2="-98"/>
			<line class="st2" x1="82" y1="-196" x2="82" y2="-98"/>
			<line class="st2" x1="91" y1="-196" x2="91" y2="-98"/>
			<line class="st2" x1="100" y1="-196" x2="100" y2="-98"/>
			<line class="st2" x1="109" y1="-196" x2="109" y2="-98"/>
			<line class="st2" x1="118" y1="-196" x2="118" y2="-98"/>
			<line class="st2" x1="127" y1="-196" x2="127" y2="-98"/>
			<line class="st2" x1="136" y1="-196" x2="136" y2="-98"/>
			<line class="st2" x1="145" y1="-196" x2="145" y2="-98"/>
			<line class="st2" x1="154" y1="-196" x2="154" y2="-98"/>
			<line class="st2" x1="163" y1="-196" x2="163" y2="-98"/>
			<line class="st2" x1="172" y1="-196" x2="172" y2="-98"/>
			<line class="st2" x1="181" y1="-196" x2="181" y2="-98"/>
			<line class="st2" x1="190" y1="-196" x2="190" y2="-98"/>
			<line class="st2" x1="199" y1="-196" x2="199" y2="-98"/>
			<line class="st2" x1="208" y1="-196" x2="208" y2="-98"/>
			<line class="st2" x1="10" y1="-98" x2="10" y2="0"/>
			<line class="st2" x1="19" y1="-98" x2="19" y2="0"/>
			<line class="st2" x1="28" y1="-98" x2="28" y2="0"/>
			<line class="st2" x1="37" y1="-98" x2="37" y2="0"/>
			<line class="st2" x1="46" y1="-98" x2="46" y2="0"/>
			<line class="st2" x1="55" y1="-98" x2="55" y2="0"/>
			<line class="st2" x1="64" y1="-98" x2="64" y2="0"/>
			<line class="st2" x1="73" y1="-98" x2="73" y2="0"/>
			<line class="st2" x1="82" y1="-98" x2="82" y2="0"/>
			<line class="st2" x1="91" y1="-98" x2="91" y2="0"/>
			<line class="st2" x1="100" y1="-98" x2="100" y2="0"/>
			<line class="st2" x1="109" y1="-98" x2="109" y2="0"/>
			<line class="st2" x1="118" y1="-98" x2="118" y2="0"/>
			<line class="st2" x1="127" y1="-98" x2="127" y2="0"/>
			<line class="st2" x1="136" y1="-98" x2="136" y2="0"/>
			<line class="st2" x1="145" y1="-98" x2="145" y2="0"/>
			<line class="st2" x1="154" y1="-98" x2="154" y2="0"/>
			<line class="st2" x1="163" y1="-98" x2="163" y2="0"/>
			<line class="st2" x1="172" y1="-98" x2="172" y2="0"/>
			<line class="st2" x1="181" y1="-98" x2="181" y2="0"/>
			<line class="st2" x1="190" y1="-98" x2="190" y2="0"/>
			<line class="st2" x1="199" y1="-98" x2="199" y2="0"/>
			<line class="st2" x1="208" y1="-98" x2="208" y2="0"/>
		</g>
	</g>
</pattern>
<pattern  y="1920" width="209" height="196" patternUnits="userSpaceOnUse" id="Unnamed_Pattern_3" viewBox="0 -245 209 196" style="overflow:visible;">
	<g>
		<rect y="-245" class="st0" width="209" height="196"/>
		<g>
			<defs>
				<rect id="SVGID_5_" y="-245" width="209" height="196"/>
			</defs>
			<clipPath id="SVGID_6_">
				<use xlink:href="#SVGID_5_"  style="overflow:visible;"/>
			</clipPath>
			<line class="st3" x1="10" y1="-294" x2="10" y2="-196"/>
			<line class="st3" x1="19" y1="-294" x2="19" y2="-196"/>
			<line class="st3" x1="28" y1="-294" x2="28" y2="-196"/>
			<line class="st3" x1="37" y1="-294" x2="37" y2="-196"/>
			<line class="st3" x1="46" y1="-294" x2="46" y2="-196"/>
			<line class="st3" x1="55" y1="-294" x2="55" y2="-196"/>
			<line class="st3" x1="64" y1="-294" x2="64" y2="-196"/>
			<line class="st3" x1="73" y1="-294" x2="73" y2="-196"/>
			<line class="st3" x1="82" y1="-294" x2="82" y2="-196"/>
			<line class="st3" x1="91" y1="-294" x2="91" y2="-196"/>
			<line class="st3" x1="100" y1="-294" x2="100" y2="-196"/>
			<line class="st3" x1="109" y1="-294" x2="109" y2="-196"/>
			<line class="st3" x1="118" y1="-294" x2="118" y2="-196"/>
			<line class="st3" x1="127" y1="-294" x2="127" y2="-196"/>
			<line class="st3" x1="136" y1="-294" x2="136" y2="-196"/>
			<line class="st3" x1="145" y1="-294" x2="145" y2="-196"/>
			<line class="st3" x1="154" y1="-294" x2="154" y2="-196"/>
			<line class="st3" x1="163" y1="-294" x2="163" y2="-196"/>
			<line class="st3" x1="172" y1="-294" x2="172" y2="-196"/>
			<line class="st3" x1="181" y1="-294" x2="181" y2="-196"/>
			<line class="st3" x1="190" y1="-294" x2="190" y2="-196"/>
			<line class="st3" x1="199" y1="-294" x2="199" y2="-196"/>
			<line class="st3" x1="208" y1="-294" x2="208" y2="-196"/>
			<line class="st3" x1="10" y1="-196" x2="10" y2="-98"/>
			<line class="st3" x1="19" y1="-196" x2="19" y2="-98"/>
			<line class="st3" x1="28" y1="-196" x2="28" y2="-98"/>
			<line class="st3" x1="37" y1="-196" x2="37" y2="-98"/>
			<line class="st3" x1="46" y1="-196" x2="46" y2="-98"/>
			<line class="st3" x1="55" y1="-196" x2="55" y2="-98"/>
			<line class="st3" x1="64" y1="-196" x2="64" y2="-98"/>
			<line class="st3" x1="73" y1="-196" x2="73" y2="-98"/>
			<line class="st3" x1="82" y1="-196" x2="82" y2="-98"/>
			<line class="st3" x1="91" y1="-196" x2="91" y2="-98"/>
			<line class="st3" x1="100" y1="-196" x2="100" y2="-98"/>
			<line class="st3" x1="109" y1="-196" x2="109" y2="-98"/>
			<line class="st3" x1="118" y1="-196" x2="118" y2="-98"/>
			<line class="st3" x1="127" y1="-196" x2="127" y2="-98"/>
			<line class="st3" x1="136" y1="-196" x2="136" y2="-98"/>
			<line class="st3" x1="145" y1="-196" x2="145" y2="-98"/>
			<line class="st3" x1="154" y1="-196" x2="154" y2="-98"/>
			<line class="st3" x1="163" y1="-196" x2="163" y2="-98"/>
			<line class="st3" x1="172" y1="-196" x2="172" y2="-98"/>
			<line class="st3" x1="181" y1="-196" x2="181" y2="-98"/>
			<line class="st3" x1="190" y1="-196" x2="190" y2="-98"/>
			<line class="st3" x1="199" y1="-196" x2="199" y2="-98"/>
			<line class="st3" x1="208" y1="-196" x2="208" y2="-98"/>
			<line class="st3" x1="10" y1="-98" x2="10" y2="0"/>
			<line class="st3" x1="19" y1="-98" x2="19" y2="0"/>
			<line class="st3" x1="28" y1="-98" x2="28" y2="0"/>
			<line class="st3" x1="37" y1="-98" x2="37" y2="0"/>
			<line class="st3" x1="46" y1="-98" x2="46" y2="0"/>
			<line class="st3" x1="55" y1="-98" x2="55" y2="0"/>
			<line class="st3" x1="64" y1="-98" x2="64" y2="0"/>
			<line class="st3" x1="73" y1="-98" x2="73" y2="0"/>
			<line class="st3" x1="82" y1="-98" x2="82" y2="0"/>
			<line class="st3" x1="91" y1="-98" x2="91" y2="0"/>
			<line class="st3" x1="100" y1="-98" x2="100" y2="0"/>
			<line class="st3" x1="109" y1="-98" x2="109" y2="0"/>
			<line class="st3" x1="118" y1="-98" x2="118" y2="0"/>
			<line class="st3" x1="127" y1="-98" x2="127" y2="0"/>
			<line class="st3" x1="136" y1="-98" x2="136" y2="0"/>
			<line class="st3" x1="145" y1="-98" x2="145" y2="0"/>
			<line class="st3" x1="154" y1="-98" x2="154" y2="0"/>
			<line class="st3" x1="163" y1="-98" x2="163" y2="0"/>
			<line class="st3" x1="172" y1="-98" x2="172" y2="0"/>
			<line class="st3" x1="181" y1="-98" x2="181" y2="0"/>
			<line class="st3" x1="190" y1="-98" x2="190" y2="0"/>
			<line class="st3" x1="199" y1="-98" x2="199" y2="0"/>
			<line class="st3" x1="208" y1="-98" x2="208" y2="0"/>
		</g>
	</g>
</pattern>
<pattern  y="1920" width="209" height="196" patternUnits="userSpaceOnUse" id="Unnamed_Pattern_4" viewBox="0 -245 209 196" style="overflow:visible;">
	<g>
		<rect y="-245" class="st0" width="209" height="196"/>
		<g>
			<defs>
				<rect id="SVGID_7_" y="-245" width="209" height="196"/>
			</defs>
			<clipPath id="SVGID_8_">
				<use xlink:href="#SVGID_7_"  style="overflow:visible;"/>
			</clipPath>
			<line class="st4" x1="10" y1="-294" x2="10" y2="-196"/>
			<line class="st4" x1="19" y1="-294" x2="19" y2="-196"/>
			<line class="st4" x1="28" y1="-294" x2="28" y2="-196"/>
			<line class="st4" x1="37" y1="-294" x2="37" y2="-196"/>
			<line class="st4" x1="46" y1="-294" x2="46" y2="-196"/>
			<line class="st4" x1="55" y1="-294" x2="55" y2="-196"/>
			<line class="st4" x1="64" y1="-294" x2="64" y2="-196"/>
			<line class="st4" x1="73" y1="-294" x2="73" y2="-196"/>
			<line class="st4" x1="82" y1="-294" x2="82" y2="-196"/>
			<line class="st4" x1="91" y1="-294" x2="91" y2="-196"/>
			<line class="st4" x1="100" y1="-294" x2="100" y2="-196"/>
			<line class="st4" x1="109" y1="-294" x2="109" y2="-196"/>
			<line class="st4" x1="118" y1="-294" x2="118" y2="-196"/>
			<line class="st4" x1="127" y1="-294" x2="127" y2="-196"/>
			<line class="st4" x1="136" y1="-294" x2="136" y2="-196"/>
			<line class="st4" x1="145" y1="-294" x2="145" y2="-196"/>
			<line class="st4" x1="154" y1="-294" x2="154" y2="-196"/>
			<line class="st4" x1="163" y1="-294" x2="163" y2="-196"/>
			<line class="st4" x1="172" y1="-294" x2="172" y2="-196"/>
			<line class="st4" x1="181" y1="-294" x2="181" y2="-196"/>
			<line class="st4" x1="190" y1="-294" x2="190" y2="-196"/>
			<line class="st4" x1="199" y1="-294" x2="199" y2="-196"/>
			<line class="st4" x1="208" y1="-294" x2="208" y2="-196"/>
			<line class="st4" x1="10" y1="-196" x2="10" y2="-98"/>
			<line class="st4" x1="19" y1="-196" x2="19" y2="-98"/>
			<line class="st4" x1="28" y1="-196" x2="28" y2="-98"/>
			<line class="st4" x1="37" y1="-196" x2="37" y2="-98"/>
			<line class="st4" x1="46" y1="-196" x2="46" y2="-98"/>
			<line class="st4" x1="55" y1="-196" x2="55" y2="-98"/>
			<line class="st4" x1="64" y1="-196" x2="64" y2="-98"/>
			<line class="st4" x1="73" y1="-196" x2="73" y2="-98"/>
			<line class="st4" x1="82" y1="-196" x2="82" y2="-98"/>
			<line class="st4" x1="91" y1="-196" x2="91" y2="-98"/>
			<line class="st4" x1="100" y1="-196" x2="100" y2="-98"/>
			<line class="st4" x1="109" y1="-196" x2="109" y2="-98"/>
			<line class="st4" x1="118" y1="-196" x2="118" y2="-98"/>
			<line class="st4" x1="127" y1="-196" x2="127" y2="-98"/>
			<line class="st4" x1="136" y1="-196" x2="136" y2="-98"/>
			<line class="st4" x1="145" y1="-196" x2="145" y2="-98"/>
			<line class="st4" x1="154" y1="-196" x2="154" y2="-98"/>
			<line class="st4" x1="163" y1="-196" x2="163" y2="-98"/>
			<line class="st4" x1="172" y1="-196" x2="172" y2="-98"/>
			<line class="st4" x1="181" y1="-196" x2="181" y2="-98"/>
			<line class="st4" x1="190" y1="-196" x2="190" y2="-98"/>
			<line class="st4" x1="199" y1="-196" x2="199" y2="-98"/>
			<line class="st4" x1="208" y1="-196" x2="208" y2="-98"/>
			<line class="st4" x1="10" y1="-98" x2="10" y2="0"/>
			<line class="st4" x1="19" y1="-98" x2="19" y2="0"/>
			<line class="st4" x1="28" y1="-98" x2="28" y2="0"/>
			<line class="st4" x1="37" y1="-98" x2="37" y2="0"/>
			<line class="st4" x1="46" y1="-98" x2="46" y2="0"/>
			<line class="st4" x1="55" y1="-98" x2="55" y2="0"/>
			<line class="st4" x1="64" y1="-98" x2="64" y2="0"/>
			<line class="st4" x1="73" y1="-98" x2="73" y2="0"/>
			<line class="st4" x1="82" y1="-98" x2="82" y2="0"/>
			<line class="st4" x1="91" y1="-98" x2="91" y2="0"/>
			<line class="st4" x1="100" y1="-98" x2="100" y2="0"/>
			<line class="st4" x1="109" y1="-98" x2="109" y2="0"/>
			<line class="st4" x1="118" y1="-98" x2="118" y2="0"/>
			<line class="st4" x1="127" y1="-98" x2="127" y2="0"/>
			<line class="st4" x1="136" y1="-98" x2="136" y2="0"/>
			<line class="st4" x1="145" y1="-98" x2="145" y2="0"/>
			<line class="st4" x1="154" y1="-98" x2="154" y2="0"/>
			<line class="st4" x1="163" y1="-98" x2="163" y2="0"/>
			<line class="st4" x1="172" y1="-98" x2="172" y2="0"/>
			<line class="st4" x1="181" y1="-98" x2="181" y2="0"/>
			<line class="st4" x1="190" y1="-98" x2="190" y2="0"/>
			<line class="st4" x1="199" y1="-98" x2="199" y2="0"/>
			<line class="st4" x1="208" y1="-98" x2="208" y2="0"/>
		</g>
	</g>
</pattern>
<pattern  y="1920" width="588" height="505" patternUnits="userSpaceOnUse" id="Unnamed_Pattern_5" viewBox="0 -505 588 505" style="overflow:visible;">
	<g>
		<rect y="-505" class="st0" width="588" height="505"/>
		<rect y="-36.1" class="st5" width="588" height="36.1"/>
		<rect y="-72.2" class="st6" width="588" height="36.1"/>
		<rect y="-108.3" class="st5" width="588" height="36.1"/>
		<rect y="-144.4" class="st6" width="588" height="36.1"/>
		<rect y="-180.5" class="st5" width="588" height="36.1"/>
		<rect y="-216.6" class="st6" width="588" height="36.1"/>
		<rect y="-252.7" class="st5" width="588" height="36.1"/>
		<rect y="-288.8" class="st6" width="588" height="36.1"/>
		<rect y="-324.9" class="st5" width="588" height="36.1"/>
		<rect y="-361" class="st6" width="588" height="36.1"/>
		<rect y="-396.9" class="st5" width="588" height="36.1"/>
		<rect y="-433" class="st6" width="588" height="36.1"/>
		<rect y="-468.9" class="st5" width="588" height="36.1"/>
		<rect y="-505" class="st6" width="588" height="36.1"/>
	</g>
</pattern>
<pattern  y="1920" width="361" height="588" patternUnits="userSpaceOnUse" id="Unnamed_Pattern_6" viewBox="0 -588 361 588" style="overflow:visible;">
	<g>
		<rect y="-588" class="st0" width="361" height="588"/>
		<rect y="-588" class="st5" width="36.1" height="588"/>
		<rect x="36.1" y="-588" class="st6" width="36.1" height="588"/>
		<rect x="72.2" y="-588" class="st5" width="36.1" height="588"/>
		<rect x="108.3" y="-588" class="st6" width="36.1" height="588"/>
		<rect x="144.4" y="-588" class="st5" width="36.1" height="588"/>
		<rect x="180.5" y="-588" class="st6" width="36.1" height="588"/>
		<rect x="216.6" y="-588" class="st5" width="36.1" height="588"/>
		<rect x="252.7" y="-588" class="st6" width="36.1" height="588"/>
		<rect x="288.8" y="-588" class="st5" width="36.1" height="588"/>
		<rect x="324.9" y="-588" class="st6" width="36.1" height="588"/>
	</g>
</pattern>
<g>
	<defs>
		<rect id="SVGID_9_" width="1920" height="1920"/>
	</defs>
	<clipPath id="SVGID_10_">
		<use xlink:href="#SVGID_9_"  style="overflow:visible;"/>
	</clipPath>
	<polygon class="st7" points="0.5,1157.42 1,1918.5 1368.05,1920 1823.48,1920 929.47,1059.02 	"/>
	<polygon class="st7" points="1192,0.5 987.87,974.13 1919.5,727.19 1919.5,0.5 	"/>
	<polygon class="st7" points="0.5,1087.03 912.96,990.38 1119,2.5 1,0.5 	"/>
	<polygon class="st7" points="1011.05,1040.41 1920,1916.5 1919.5,1855 1919.5,799.61 	"/>
	<g class="st8">
		<defs>
			<rect id="SVGID_11_" width="1920" height="1920"/>
		</defs>
		<clipPath id="SVGID_12_">
			<use xlink:href="#SVGID_11_"  style="overflow:visible;"/>
		</clipPath>
		<g class="st9">
			<g>
				<defs>
					<rect id="SVGID_13_" x="703.74" y="660.61" width="593.18" height="229.61"/>
				</defs>
				<clipPath id="SVGID_14_">
					<use xlink:href="#SVGID_13_"  style="overflow:visible;"/>
				</clipPath>
				<path class="st10" d="M1000.33,660.61c-163.22,0-295.63,51.04-296.57,114.14c0,0.23-0.02,0.45-0.02,0.67
					c0,63.41,132.79,114.81,296.59,114.81c156.7,0,285-47.04,295.83-106.63c0.49-2.7,0.76-5.42,0.76-8.17
					C1296.92,712.01,1164.13,660.61,1000.33,660.61"/>
			</g>
		</g>
		<path class="st11" d="M1542.94,1289.32c0,0-191.35-1190.46-535.77-284.29"/>
		<path class="st12" d="M1217.49,1490.24c0,46.42-97.22,84.06-217.15,84.06c-119.93,0-217.15-37.63-217.15-84.06
			c0-46.42,97.22-84.06,217.15-84.06C1120.27,1406.18,1217.49,1443.81,1217.49,1490.24"/>
		<path class="st13" d="M869.94,1441.69c0.74,27.09,57.25,47.53,126.21,45.64c68.96-1.89,124.27-25.38,123.53-52.47l-0.81-29.73
			L867.64,1412L869.94,1441.69z"/>

			<pattern  id="SVGID_15_" xlink:href="#Unnamed_Pattern" patternTransform="matrix(1.4866 -0.0407 -0.0407 -1.4866 9104.79 -377.2326)">
		</pattern>
		<path class="st14" d="M869.94,1441.69c0.74,27.09,57.25,47.53,126.21,45.64c68.96-1.89,124.27-25.38,123.53-52.47l-0.81-29.73
			L867.64,1412L869.94,1441.69z"/>
		<path class="st15" d="M1117.77,1405.53c0.74,27.09-55.29,51.35-124.25,53.23c-68.96,1.89-126.24-19.27-126.98-46.36
			c-0.74-27.09,55.33-49.86,124.29-51.75S1117.03,1378.43,1117.77,1405.53"/>
		<path class="st13" d="M911.02,1067.21c-24.2,12.2-18.64,72.03,12.42,133.64c31.06,61.6,75.86,101.65,100.06,89.44l26.56-13.39
			L936.9,1052.49L911.02,1067.21z"/>

			<pattern  id="SVGID_16_" xlink:href="#Unnamed_Pattern_2" patternTransform="matrix(0.6696 1.3279 1.3279 -0.6696 -6822.5532 2960.1047)">
		</pattern>
		<path class="st16" d="M911.02,1067.21c-24.2,12.2-18.64,72.03,12.42,133.64c31.06,61.6,75.86,101.65,100.06,89.44l26.56-13.39
			L936.9,1052.49L911.02,1067.21z"/>
		<path class="st15" d="M1049.23,1276.07c-24.2,12.2-70-28.17-101.06-89.77c-31.06-61.6-36.3-122.43-12.1-134.64
			c24.2-12.2,68.67,28.84,99.73,90.44C1066.87,1203.71,1073.43,1263.87,1049.23,1276.07"/>
		<path class="st13" d="M966.63,737.01c16.5,21.5,74.24,4.89,128.98-37.1c54.74-42,85.73-93.47,69.23-114.98l-18.1-23.6
			l-199.4,152.99L966.63,737.01z"/>

			<pattern  id="SVGID_17_" xlink:href="#Unnamed_Pattern_3" patternTransform="matrix(1.1799 -0.9052 -0.9052 -1.1799 13794.915 -9448.5986)">
		</pattern>
		<path class="st17" d="M966.63,737.01c16.5,21.5,74.24,4.89,128.98-37.1c54.74-42,85.73-93.47,69.23-114.98l-18.1-23.6
			l-199.4,152.99L966.63,737.01z"/>
		<path class="st15" d="M1146.08,562.31c16.5,21.5-14.64,74.02-69.37,116.02c-54.74,42-113.53,58.47-130.02,36.97
			c-16.5-21.5,15.54-72.84,70.28-114.84C1071.7,558.46,1129.58,540.8,1146.08,562.31"/>
		<path class="st18" d="M-211.99-238.73l448.58,558.29c0,0,60.83,87.38,125.16,88.51c64.33,1.13,136.49-7.12,161.06-4.13
			c24.57,2.99,48.52,8.64,48.52,8.64s43.58,11.69,39.89,33.29c-3.69,21.6-51.19,14.6-51.19,14.6s-36.93-10.12-65.35-2.78
			c-28.41,7.34-36.48,23.69-36.48,23.69s61.48,60.85,76.5,68.6c15.02,7.76,35.05,18.1,49.68,21.55
			c14.63,3.45,26.92,4.95,32.47,23.11c5.54,18.16-29.76,30.9-45.41,25.8c-15.65-5.1-101.4-46.39-107.81-54.93
			c-6.41-8.53-10.96-1.18-9.24,3.44c1.72,4.62,66.33,52.16,79.01,57.96c12.67,5.8,40.13,26.32,59.38,28.05
			c19.25,1.73,52.67-3.02,59.23,16.78c6.56,19.8-18.49,30.74-18.49,30.74s-24.74,9.61-68.08-9.04
			c-43.34-18.65-113.52-60.49-117.2-62.76c-3.68-2.27-21.75-14.96-23.71-12.61c-1.96,2.35,16.65,30.61,38.95,37.28
			c22.3,6.67,80.13,17.5,80.13,17.5s32.16,0.57,39.04,19.04c6.88,18.47-15.51,30.04-23.81,29.49c-8.3-0.55-69.65-2.39-69.65-2.39
			s-1.42,17.92-22.24,22.84c-20.82,4.92-42.03,5.53-80.13-17.5c-38.1-23.03-64.23-43.24-82.37-61.56
			c-18.14-18.32-46.45-53.09-66.39-81.67s-55.35-98.72-94.54-129.03C104.35,421.77-306.3,89.3-306.3,89.3V-240.1L-211.99-238.73z"/>
		<path class="st18" d="M-250.26,2206.42l235.09-295.22c0,0,161.28-214.58,177.68-233.72c16.4-19.14,80.64-112.08,84.74-129.84
			c4.1-17.77,19.14-158.55,16.4-168.11c-2.73-9.57,12.3-77.91,16.4-106.61c4.1-28.7,1.37-91.57,1.37-91.57s-10.93-49.2,10.93-53.31
			c21.87-4.1,34.17,36.9,34.17,36.9s20.5,51.94,19.14,91.57c-1.37,39.64-4.1,53.3,5.47,57.4c9.57,4.1,69.71-66.97,69.71-66.97
			l79.27-87.47c0,0,35.54-46.47,62.87-32.8c27.34,13.67-16.4,62.87-16.4,62.87l-88.84,102.51c0,0-8.2,10.93-5.47,15.03
			c2.73,4.1,28.7-24.6,28.7-24.6l123.01-127.11c0,0,27.34-36.9,54.67-23.23c27.33,13.67-10.93,51.94-10.93,51.94l-136.68,148.98
			c0,0-12.3,10.93-6.83,16.4c5.47,5.47,15.03-5.47,15.03-5.47l92.94-94.31l27.34-25.97c0,0,16.4-20.5,34.17-12.3
			c17.77,8.2,2.73,35.54,2.73,35.54l-94.31,102.51l-23.23,27.34c0,0-4.1,6.83,0,10.93c4.1,4.1,15.03-4.1,15.03-4.1l66.97-60.14
			c0,0,21.87-25.97,32.8-19.13c10.93,6.83-6.83,38.27-6.83,38.27l-43.74,64.24c0,0-69.71,91.57-83.37,103.88
			c-13.67,12.3-86.11,71.07-106.61,91.57c-20.5,20.5-125.74,176.31-125.74,176.31L53.16,2205.06L-250.26,2206.42z"/>
		<path class="st18" d="M2328.83,2079.32c0,0-441.47-353.99-492.04-405.93c-50.57-51.94-168.11-184.51-200.91-192.71
			c-32.8-8.2-207.75-39.64-237.82-41c-30.07-1.37-86.11-4.1-86.11-4.1s-42.37,0-24.6-23.23c17.77-23.24,25.97-35.54,51.94-38.27
			c25.97-2.73,95.67,1.37,99.77-4.1c4.1-5.47,15.03-10.94,4.1-23.24c-10.93-12.3-132.58-133.94-132.58-133.94s-28.7-28.7-13.67-41
			c15.03-12.3,39.64,4.1,39.64,4.1l125.74,98.41c0,0,16.4,13.67,23.24,9.57c6.83-4.1-12.3-20.5-12.3-20.5
			s-147.61-142.14-151.71-155.81c-4.1-13.67-4.1-19.14,4.1-28.7c8.2-9.57,39.64,15.04,39.64,15.04l143.51,128.48
			c0,0,9.57,8.2,15.03,4.1c5.47-4.1-6.83-17.77-6.83-17.77s-90.21-112.07-98.41-129.84c-8.2-17.77,5.47-27.34,5.47-27.34
			s8.2-10.93,34.17,12.3c25.97,23.24,128.48,143.51,135.31,143.51s13.67-6.83,12.3-12.3c-1.37-5.47-68.34-105.24-68.34-105.24
			s-12.3-20.5-1.37-28.7c10.93-8.2,27.33,12.3,27.33,12.3s80.96,102.24,97.04,121.64c39.64,47.84,125.74,209.12,146.24,224.15
			c20.5,15.03,256.95,218.68,293.86,241.92c36.9,23.23,236.45,135.31,236.45,135.31L2328.83,2079.32z"/>
		<path class="st13" d="M713.75,218.39c-25.62,8.84-28.15,68.88-5.64,134.09c22.5,65.22,61.52,110.92,87.14,102.08l28.12-9.7
			l-81.98-237.58L713.75,218.39z"/>

			<pattern  id="SVGID_18_" xlink:href="#Unnamed_Pattern_4" patternTransform="matrix(0.4851 1.4058 1.4058 -0.4851 -8495.6729 1709.5027)">
		</pattern>
		<path class="st19" d="M713.75,218.39c-25.62,8.84-28.15,68.88-5.64,134.09c22.5,65.22,61.52,110.92,87.14,102.08l28.12-9.7
			l-81.98-237.58L713.75,218.39z"/>
		<path class="st15" d="M822.65,443.93c-25.62,8.84-65.58-37.32-88.08-102.54c-22.5-65.22-19.52-126.2,6.1-135.04
			c25.62-8.84,64.17,37.81,86.68,103.02C849.85,374.59,848.27,435.09,822.65,443.93"/>
		<path class="st18" d="M1766.41-248.98c0,0-367.66,434.63-392.26,452.4c-24.6,17.77-121.64,99.78-159.91,103.87
			c-38.27,4.1-95.67,9.57-125.74,15.04c-30.07,5.47-64.24,24.6-76.54,66.97c-12.3,42.37-23.23,79.27-23.23,79.27
			s-6.83,25.97,4.1,31.43c10.93,5.47,17.77,2.73,17.77,2.73s-5.47,34.17,4.1,39.64c9.57,5.47,16.4,0,16.4,0v53.3
			c0,0,2.73,21.87,21.87,23.23c19.14,1.37,27.34-30.07,27.34-30.07s36.9-118.91,50.57-133.94c13.67-15.03,41-47.84,99.78-35.54
			c27.33,6.83,28.7,8.2,32.8,15.03c4.1,6.83,17.77,71.07,17.77,71.07s-31.43,27.34-39.64,34.17c-8.2,6.83-87.47,30.07-87.47,30.07
			s0.75,1.39,1.88,3.65l8.87,11.57c6.07,7.91,5.69,19.88,0.09,33.94c15.37-2.42,64.02-10.18,76.63-13.62
			c15.03-4.1,69.71-19.13,80.64-28.7c10.94-9.57,41-32.8,62.87-75.17c21.87-42.37,51.94-120.28,68.34-136.68
			c16.4-16.4,338.96-303.42,338.96-303.42l155.81-133.94l207.75-177.68L1766.41-248.98z"/>
		<pattern  id="SVGID_19_" xlink:href="#Unnamed_Pattern_5" patternTransform="matrix(1.3668 0 0 -1.3668 7899.7905 -2233.1995)">
		</pattern>
		<polygon class="st20" points="1624.95,-240.1 1920.17,51.03 2260.5,-249.66 		"/>
		<path class="st11" d="M427.66,1125.31c0,0,155.81-615.05,315.72-524.84s213.22,729.86,213.22,729.86"/>
		<pattern  id="SVGID_20_" xlink:href="#Unnamed_Pattern_6" patternTransform="matrix(1.3668 0 0 -1.3668 8082.9399 -2666.0906)">
		</pattern>
		<polygon class="st21" points="-203.79,1904.37 144.73,2138.09 87.33,2248.8 -322.7,2228.29 -306.3,2023.28 		"/>
		<path class="st22" d="M349.75,526.66c0,0-0.09-5.39-0.07-14.99"/>
		<path class="st23" d="M350.08,480.92c3.29-145.64,31.83-574.44,258.76-321.78"/>
		<path class="st22" d="M618.96,170.72c3.17,3.71,6.37,7.55,9.61,11.52"/>
		<g class="st9">
			<g>
				<defs>
					<rect id="SVGID_21_" x="703.06" y="774.73" width="593.1" height="716.19"/>
				</defs>
				<clipPath id="SVGID_22_">
					<use xlink:href="#SVGID_21_"  style="overflow:visible;"/>
				</clipPath>
				<path class="st24" d="M1000.33,890.22c-163.8,0-296.59-51.4-296.59-114.81c0-0.22,0.02-0.45,0.02-0.67l-0.71-0.01l79.27,716.19
					h434.63l79.2-707.33C1285.33,843.18,1157.03,890.22,1000.33,890.22"/>
			</g>
		</g>
	</g>
</g>
</svg>
