<?xml version="1.0" encoding="UTF-8" standalone="no"?>
<svg xmlns:dc="http://purl.org/dc/elements/1.1/" xmlns:cc="http://creativecommons.org/ns#" xmlns:rdf="http://www.w3.org/1999/02/22-rdf-syntax-ns#" xmlns:svg="http://www.w3.org/2000/svg" xmlns="http://www.w3.org/2000/svg" xmlns:sodipodi="http://sodipodi.sourceforge.net/DTD/sodipodi-0.dtd" xmlns:inkscape="http://www.inkscape.org/namespaces/inkscape" inkscape:version="1.0 (4035a4f, 2020-05-01)" height="186.31497" width="200" sodipodi:docname="15.svg" id="svg6821" version="1.1" viewBox="0 0 200.00001 186.31497">
  <metadata id="metadata6827">
    <rdf:RDF>
      <cc:Work rdf:about="">
        <dc:format>image/svg+xml</dc:format>
        <dc:type rdf:resource="http://purl.org/dc/dcmitype/StillImage"/>
      </cc:Work>
    </rdf:RDF>
  </metadata>
  <defs id="defs6825"/>
  <sodipodi:namedview inkscape:current-layer="svg6821" inkscape:cy="93.157486" inkscape:cx="100" inkscape:zoom="1.944537" showgrid="false" id="namedview6823" inkscape:window-height="480" inkscape:window-width="640" inkscape:pageshadow="2" inkscape:pageopacity="0" guidetolerance="10" gridtolerance="10" objecttolerance="10" borderopacity="1" bordercolor="#666666" pagecolor="#ffffff"/>
  <path style="stroke-width:0.775795" id="path6809" fill="#ffffff" d="m 100,186.31498 c 55.22886,0 100,-41.70675 100,-93.157494 C 200,41.706749 155.22886,0 100,0 44.77114,0 0,41.706749 0,93.157486 0,144.60823 44.77114,186.31498 100,186.31498 Z"/>
  <g transform="scale(0.77579519)" id="g6817" fill="#c3141e">
    <path id="path6811" d="M 107.53,121 C 105,94.69 90.76,74.34 75.64,75.56 60.52,76.78 50.3,99.11 52.8,125.43 a 81.39,81.39 0 0 0 2.74,14.67 c 5.38,18.8 17,31.76 29.14,30.78 11.26,-0.91 19.8,-13.53 22.4,-30.78 a 78.83,78.83 0 0 0 0.44,-19.09 z m -25.27,23.59 c -3.11,0.25 -6.16,-1.44 -8.72,-4.48 -3.45,-4.09 -6,-10.61 -6.75,-18.11 -1.24,-13.07 3.68,-24.14 11,-24.73 7.32,-0.59 14.21,9.52 15.45,22.59 0.78,8.27 -0.9,15.73 -4.09,20.25 -1.85,2.63 -4.21,4.26 -6.9,4.48 z"/>
    <path id="path6813" d="m 129.14,226.47 h -0.46 A 131.25,131.25 0 0 1 100.84,223 138.55,138.55 0 0 0 118,172.43 V 89.91 L 69.37,47.13 C 50.2,62.62 38.11,85.4 38.11,110.8 c 0,34.56 22.44,64.37 54.62,77.48 l -10.21,28.66 c -40.27,-16.66 -68.35,-54 -68.35,-97.38 0,-51.35 39.34,-94.17 91.67,-104.33 a 8.6,8.6 0 0 1 1.47,-0.12 c 4.31,0 7.8,3 7.8,6.78 a 6.86,6.86 0 0 1 -4.88,6.29 95.43,95.43 0 0 0 -26.39,9.39 l 44.83,39.32 45.25,-39.34 a 95.46,95.46 0 0 0 -26.36,-9.37 6.86,6.86 0 0 1 -4.88,-6.29 c 0,-3.74 3.49,-6.78 7.8,-6.78 a 8.59,8.59 0 0 1 1.47,0.13 c 52.33,10.15 91.67,53 91.67,104.33 0,43.39 -28.07,80.73 -68.35,97.38 l -10.21,-28.66 c 32.18,-13.11 54.62,-42.91 54.62,-77.48 0,-25.4 -12.08,-48.18 -31.25,-63.67 L 139.8,89.91 v 82.52 A 138.56,138.56 0 0 0 157,223 a 131.26,131.26 0 0 1 -27.83,3.43 z"/>
    <path id="path6815" d="m 200.23,112.63 c 3.26,17.37 -8.23,41.37 -30.4,57.55 -3.59,2.62 -4.37,4.08 -7,5.45 l -5.08,-14.73 a 40.61,40.61 0 0 0 8.24,-5.08 c 10.44,-7.63 16.06,-17.89 14.45,-26.52 -1.1,-5.87 -5.66,-11.68 -13.28,-6.11 a 87.17,87.17 0 0 0 -14.06,12.76 l 0.11,-42.26 35.08,-30.06 -0.29,18.74 -18.57,14.69 0.17,12.44 a 51.61,51.61 0 0 1 5.16,-4.16 c 12.18,-8.9 23.06,-5.61 25.48,7.29 z"/>
  </g>
  <path id="path6819" stroke-width="1.16369" stroke-miterlimit="10" stroke="#c3141e" fill="none" d="m 100,181.19473 c 52.18774,0 94.49961,-39.41816 94.49961,-88.037244 0,-48.619085 -42.31187,-88.037238 -94.49961,-88.037238 -52.187742,0 -94.499612,39.418153 -94.499612,88.037238 0,48.619084 42.304112,88.037244 94.499612,88.037244 z"/>
</svg>