<?xml version="1.0" encoding="UTF-8"?>
<!DOCTYPE svg PUBLIC "-//W3C//DTD SVG 1.1//EN" "http://www.w3.org/Graphics/SVG/1.1/DTD/svg11.dtd">
<!-- Creator: CorelDRAW X5 -->
<svg xmlns="http://www.w3.org/2000/svg" xml:space="preserve" width="68.2412mm" height="83.82mm" style="shape-rendering:geometricPrecision; text-rendering:geometricPrecision; image-rendering:optimizeQuality; fill-rule:evenodd; clip-rule:evenodd"
viewBox="0 0 6824 8382"
 xmlns:xlink="http://www.w3.org/1999/xlink"
 xmlns:svg="http://www.w3.org/2000/svg">
 <defs>
  <style type="text/css">
   <![CDATA[
    .fil6 {fill:#E6C677}
    .fil5 {fill:#05642B;fill-rule:nonzero}
    .fil4 {fill:#1A448E;fill-rule:nonzero}
    .fil1 {fill:#856B0F;fill-rule:nonzero}
    .fil7 {fill:#C3014B;fill-rule:nonzero}
    .fil2 {fill:#C4112D;fill-rule:nonzero}
    .fil0 {fill:#E6C677;fill-rule:nonzero}
    .fil3 {fill:white;fill-rule:nonzero}
   ]]>
  </style>
 </defs>
 <g id="Layer_x0020_1">
  <metadata id="CorelCorpID_0Corel-Layer"/>
 </g>
 <g id="Layer_x0020_1_0">
  <metadata id="CorelCorpID_1Corel-Layer"/>
  <g id="Elche_x0020_CF_x0020_Logo.cdr">
   <path class="fil0" d="M4545 14c463,897 1299,1501 2262,1713l0 1655c-500,452 -904,1197 -1211,2234 -389,1194 -914,1855 -2188,2749 -989,-585 -1805,-1317 -2178,-2641 -281,-1079 -657,-1828 -1213,-2364l0 -1634c1144,-346 1896,-913 2256,-1701l2272 -11z"/>
   <path class="fil1" d="M4545 14l-14 7c465,902 1306,1508 2273,1722l4 -16 -16 0 0 1655 16 0 -11 -12c-503,455 -908,1203 -1216,2241l16 5 -15 -5c-194,596 -422,1057 -759,1482 -338,424 -786,812 -1423,1259l9 13 8 -14c-988,-584 -1799,-1312 -2171,-2631l-16 4 16 -4c-281,-1080 -658,-1833 -1218,-2371l-11 12 16 0 0 -1634 -16 0 5 16c1146,-347 1904,-917 2267,-1710l-15 -7 0 16 2272 -11 0 -16 -14 7 14 -7 0 -16 -2283 11 -4 9c-358,782 -1105,1347 -2246,1692l-12 3 0 1653 5 5c554,533 929,1279 1209,2356l0 0 0 0c374,1328 1194,2065 2185,2650l9 5 9 -6c638,-447 1089,-837 1429,-1265 341,-428 570,-894 765,-1492l0 0c307,-1035 710,-1777 1207,-2226l5 -5 0 -1675 -13 -3c-959,-211 -1791,-812 -2251,-1705l-5 -9 -10 0 0 16z"/>
   <path class="fil2" d="M1381 5133c-189,-630 -498,-1272 -787,-1587l5673 0c-368,443 -623,1022 -804,1587l-4083 0z"/>
   <path class="fil2" d="M1381 5133l16 -5c-190,-631 -498,-1275 -790,-1593l-12 11 0 16 5673 0 0 -16 -13 -10c-370,445 -626,1026 -807,1592l15 5 0 -16 -4083 0 0 16 16 -5 -16 5 0 16 4094 0 4 -11c180,-564 435,-1141 801,-1582l22 -27 -5745 0 25 27c286,311 595,953 783,1581l3 12 12 0 0 -16z"/>
   <path class="fil3" d="M366 3204c3,1 -4,-1289 -4,-1289 304,-66 598,-182 875,-342l0 1631 -871 0z"/>
   <path class="fil3" d="M5535 1565c289,178 600,306 939,383l-1 1256 -938 0 0 -1639z"/>
   <path class="fil3" d="M1461 1430c370,-257 739,-582 977,-1058l1934 0c244,411 597,788 938,1041l0 1791 -3849 0 0 -1775z"/>
   <path class="fil4" d="M2078 6787c-457,-537 -604,-1391 -604,-1391l3894 0c-45,129 -149,711 -668,1391l-2623 0z"/>
   <path class="fil4" d="M3402 7979c-361,-197 -768,-523 -1002,-784l1947 0c-227,235 -597,554 -944,784z"/>
   <path class="fil5" d="M2123 6865l2525 0 -222 244 -2088 0c-82,-82 -151,-161 -215,-244z"/>
   <polygon class="fil0" points="2151,5975 2237,5975 2237,6342 2151,6342 "/>
   <polygon class="fil0" points="4772,5509 4859,5509 4859,5876 4772,5876 "/>
   <path class="fil6" d="M4587 5967l-148 367 86 0 31 -82 146 0 30 82 89 0 -146 -367 -88 0zm-8 225l0 0 51 -135 1 0 49 135 -101 0z"/>
   <path class="fil0" d="M2137 5632l83 0c-3,-21 -9,-40 -19,-57 -10,-16 -22,-30 -38,-41 -15,-11 -32,-20 -52,-26 -19,-6 -39,-9 -61,-9 -30,0 -57,5 -81,15 -24,10 -44,24 -60,41 -16,18 -29,38 -38,62 -9,23 -13,49 -13,76 0,27 4,52 13,75 9,23 21,43 38,60 16,17 37,31 60,41 24,10 51,14 81,14 24,0 46,-3 66,-10 20,-7 38,-17 53,-30 15,-13 27,-29 36,-47 9,-19 15,-39 17,-62l-83 0c-3,25 -12,45 -27,60 -15,15 -35,23 -61,23 -19,0 -36,-4 -49,-10 -14,-7 -24,-17 -33,-28 -8,-12 -15,-25 -19,-39 -4,-15 -5,-30 -5,-45 0,-16 2,-32 5,-47 4,-15 10,-28 19,-40 8,-12 19,-21 33,-28 13,-7 30,-11 49,-11 11,0 21,2 30,5 10,3 19,7 26,13 8,6 14,13 19,21 5,8 8,16 10,25z"/>
   <path class="fil0" d="M967 2348l152 0c-5,-53 -16,-101 -34,-142 -18,-41 -41,-76 -69,-103 -27,-28 -59,-50 -94,-65 -35,-15 -72,-22 -111,-22 -55,0 -104,12 -148,37 -43,25 -80,59 -110,103 -30,44 -53,95 -69,155 -16,58 -24,122 -24,191 0,67 8,130 24,188 16,58 39,108 69,151 30,43 67,77 110,102 44,24 93,36 148,36 44,0 84,-9 121,-26 37,-17 69,-42 96,-75 27,-33 49,-72 66,-119 17,-46 27,-98 31,-156l-152 0c-6,62 -23,112 -50,150 -27,38 -64,57 -112,57 -35,0 -65,-9 -90,-26 -25,-18 -45,-42 -60,-71 -15,-29 -27,-62 -34,-98 -7,-37 -10,-75 -10,-114 0,-40 3,-80 10,-117 7,-38 19,-71 34,-101 15,-30 35,-54 60,-71 25,-18 55,-27 90,-27 19,0 38,4 55,13 18,8 34,19 48,34 14,15 26,32 35,52 9,19 15,40 18,63z"/>
   <path class="fil1" d="M967 2348l0 16 170 0 -2 -18c-5,-55 -16,-104 -35,-147 -19,-43 -43,-79 -72,-108l-11 12 12 -11c-29,-30 -62,-53 -99,-68 -37,-15 -76,-23 -117,-23 -57,0 -109,13 -156,39 -46,26 -84,63 -115,108 -31,46 -55,99 -71,160 -16,60 -25,125 -25,195 0,68 8,133 25,193 16,59 40,111 71,156 31,45 70,81 115,107l0 0 0 0c46,25 99,38 156,38 46,0 89,-9 128,-27 39,-18 73,-45 101,-79 29,-34 52,-76 69,-124 17,-48 28,-102 32,-160l1 -17 -184 0 -1 15c-6,60 -22,107 -47,142l0 0 0 0c-24,34 -55,49 -99,50 -33,0 -59,-8 -81,-23l-9 13 10 -13c-23,-16 -41,-38 -55,-65 -15,-28 -25,-59 -32,-94l-16 3 16 -3c-7,-36 -10,-73 -10,-111 0,-40 3,-78 10,-115l-16 -3 16 3c7,-37 18,-69 32,-96l0 0 0 0c14,-28 32,-49 55,-65l0 0 0 0c22,-16 48,-24 80,-24 17,0 33,4 48,11l0 0 0 0c16,7 30,17 43,30 13,13 23,29 32,47l0 0c8,17 14,36 16,58l2 14 15 0 0 -16 16 -2c-3,-25 -9,-48 -20,-69l-15 7 15 -7c-10,-21 -23,-40 -38,-56 -15,-16 -33,-29 -53,-37l-6 15 7 -15c-19,-10 -40,-15 -62,-15 -38,0 -72,10 -100,30l10 13 -9 -13c-27,19 -49,45 -65,77l0 0 0 0c-16,31 -28,66 -35,105l0 0c-7,39 -10,79 -10,120 0,40 3,78 10,116l0 0 0 0c8,37 19,72 35,102 16,31 38,57 65,77l0 0 0 0c28,19 61,29 99,29 52,0 96,-22 125,-64l-13 -9 13 10c30,-41 47,-94 53,-158l-16 -2 0 16 152 0 0 -16 -16 -1c-4,56 -14,107 -30,152 -16,45 -37,83 -63,114 -26,31 -56,54 -90,71 -34,16 -72,24 -114,24 -52,0 -99,-11 -140,-34l-8 14 8 -14c-41,-24 -76,-56 -105,-97 -29,-41 -51,-90 -67,-146 -16,-57 -23,-118 -23,-184 0,-68 8,-130 23,-187 16,-58 38,-108 67,-150 29,-42 63,-75 105,-98 41,-23 88,-35 140,-35 37,0 72,7 105,21 33,14 63,34 88,61l0 0 0 0c26,26 48,58 65,98 17,39 28,85 33,137l16 -1 0 -16 -152 0 0 16 16 -2 -16 2z"/>
   <polygon class="fil0" points="5897,2257 6261,2257 6261,2077 5731,2077 5731,3051 5897,3051 5897,2648 6213,2648 6213,2482 5897,2482 "/>
   <polygon class="fil1" points="5731,2077 5715,2077 5715,3067 5913,3067 5913,2665 6229,2665 6229,2466 5913,2466 5913,2273 6277,2273 6277,2061 5715,2061 5715,2077 5731,2077 5731,2093 6245,2093 6245,2241 5881,2241 5881,2498 6196,2498 6196,2632 5881,2632 5881,3035 5748,3035 5748,2077 5731,2077 5731,2093 "/>
   <path class="fil1" d="M1920 3099l0 -612 -75 0 0 -281 256 22 -6 -187 303 -244 -9 -78 219 -147 53 -34 -194 -53 47 -15 -219 -34 44 -28 -137 -28 72 -28 -156 -41 41 -56 -144 -19 50 -34 -100 -45c161,-47 316,-46 464,5l418 253 248 -161 -61 -25 -59 -201 50 -353 -2 -43c40,-40 88,-70 154,-94 36,-13 147,-26 172,-22 49,9 231,88 231,88l6 39 55 59 105 376 -16 94 -98 75 189 83 92 14 65 18 30 57 460 290 23 97 41 3 108 108 5 122 16 36 147 95 28 19 162 -9 0 269 -84 0 0 656 0 107 -2988 0 -3 -110z"/>
   <polygon class="fil0" points="1872,2234 1872,2457 3446,2492 4962,2421 4968,2421 4968,2203 3536,2354 3439,2421 3338,2364 "/>
   <polygon class="fil0" points="4886,3188 1947,3188 1949,2463 1949,2485 3444,2512 4886,2448 "/>
   <path class="fil0" d="M2142 2231l628 55c0,0 -2,-44 37,-66 39,-22 86,-66 86,-66l-5 -108 -91 -166c0,0 109,100 116,106 6,6 11,144 11,144 0,0 92,33 98,45 6,13 137,-5 137,-5l63 -22c0,0 -87,-52 -142,-105 -55,-53 -72,-103 -105,-144 -33,-41 -92,-105 -92,-105l-34 -80 -223 -98 -190 111 6 81 -301 239 2 181z"/>
   <path class="fil1" d="M2448 2159c0,0 159,-116 201,-112 12,1 32,1 55,2l23 23c-49,11 -102,23 -120,28 -38,9 -159,59 -159,59z"/>
   <path class="fil6" d="M2690 1544l153 95 -27 2 75 53 -30 -3 103 117 100 155 84 105 109 89 95 136 23 34c0,0 -84,-159 -100,-195 -16,-36 -120,-230 -156,-300 -36,-70 -169,-248 -169,-248l-127 -162 -197 -117 -201 -123c-97,-47 -318,-52 -392,-19l72 39 -56 27 140 12 -50 59 189 45 -81 30 144 19 -53 30 228 33 -45 27 173 39c0,0 -6,23 -6,23z"/>
   <path class="fil0" d="M2902 2296l69 -95c0,0 39,6 101,5 63,-2 106,-11 106,-11l47 -8 116 130 -53 11 -45 -11 -253 -13 -87 -8z"/>
   <path class="fil6" d="M2886 1436l280 395 231 511 31 36 66 -52 86 -259 17 -44 -8 90 112 -61 111 -164 -53 143 106 -11 -253 110 -47 91c0,0 173,-77 209,-81 5,-1 233,83 278,125 23,22 715,-72 715,-72l-191 -139c0,0 -64,-67 -175,-67 -111,0 -196,92 -193,92l-140 -34 120 -17 181 -73 213 -37 -81 -90 -249 -7 -155 134 98 -164 219 -83 -417 -252 -146 74 30 -100 97 -15 -40 -40 -91 -18 -68 21 0 -42 -89 -39 -101 -33 20 75 -41 225c0,0 -159,298 -158,295 -2,2 3,111 6,113 6,3 -87,-187 -87,-187l-237 -351 41 19 3 -186 3 -36 -37 42 -123 98 -95 67z"/>
   <polygon class="fil1" points="3032,1462 3111,1682 3034,1588 3012,1502 2970,1449 2943,1426 3051,1357 3098,1313 "/>
   <polygon class="fil1" points="3572,1814 3734,1469 3532,1802 3502,1967 3428,2165 3285,1908 3216,1816 3352,2087 3385,2187 3425,2259 3549,1970 "/>
   <polygon class="fil1" points="3745,1702 3660,1887 3702,1666 3833,1545 "/>
   <path class="fil1" d="M3945 1777c9,-13 178,-130 178,-130l73 3 39 23 -290 103z"/>
   <path class="fil0" d="M3542 2315c0,0 89,-84 183,-122 0,0 78,19 131,44 53,25 78,51 78,51l-392 27z"/>
   <path class="fil1" d="M2473 1814c39,0 259,51 259,51 0,0 -256,-126 -256,-131 0,0 -6,80 -3,80z"/>
   <polygon class="fil1" points="3650,1505 3563,1687 3630,1469 3768,1380 "/>
   <polygon class="fil1" points="3216,2075 2901,1630 2757,1522 2793,1517 2758,1476 2596,1431 2689,1434 2623,1399 2482,1375 2547,1357 2401,1278 2282,1260 2332,1241 2304,1225 2784,1453 2926,1619 3107,1908 "/>
   <path class="fil0" d="M3555 1036c-41,159 -146,159 -146,159l92 7 11 319 -109 223 -239 -301 67 -258c0,0 -70,-92 -89,-229 -21,-158 38,-244 38,-244l174 13 -98 23c0,0 68,12 159,12 8,0 137,-38 137,-38 0,0 42,162 3,314z"/>
   <path class="fil0" d="M3044 653c21,-46 77,-83 168,-108 22,-6 120,-16 165,-2 73,19 127,41 162,66 -94,32 -212,52 -320,54l69 -39 -175 61 -53 83 -16 -114z"/>
   <polygon class="fil0" points="3101,1130 3129,1177 3038,1143 2994,1010 3052,853 3066,879 3059,991 3035,985 "/>
   <polygon class="fil0" points="3661,960 3652,888 3611,1096 3666,1033 3664,1139 3705,1072 3677,935 "/>
   <path class="fil1" d="M3272 1064c0,0 39,-12 70,-17 31,-5 94,16 94,16 -25,42 -122,48 -164,2z"/>
   <polygon class="fil1" points="3313,996 3313,981 3331,988 3344,1003 "/>
   <path class="fil1" d="M3539 830l-39 15c-3,1 -6,2 -10,3l18 2c-14,13 -41,24 -67,26l-30 -19 7 -3 -1 -1 -18 -2 13 -22 84 -10 43 11z"/>
   <path class="fil1" d="M3319 854l2 42 -27 -34 -18 16c0,0 -41,5 -68,-1 -16,-3 -17,-16 -17,-22l-18 -5 37 -3c-12,-4 -50,-13 -50,-13l46 -11 102 9 12 23 -1 0z"/>
   <polygon class="fil1" points="2367,1914 2443,1868 2604,1865 2782,2015 "/>
   <polygon class="fil1" points="1911,2306 1910,2286 3321,2387 3340,2408 "/>
   <polygon class="fil1" points="3356,2426 3375,2447 1909,2372 1907,2353 "/>
   <polygon class="fil1" points="3386,2460 3406,2481 1913,2432 1907,2407 "/>
   <polygon class="fil1" points="3555,2402 3570,2381 4935,2252 4928,2278 "/>
   <polygon class="fil1" points="3534,2432 3549,2410 4938,2319 4936,2341 "/>
   <polygon class="fil1" points="3507,2471 3523,2449 4939,2372 4935,2397 "/>
   <polygon class="fil5" points="2423,2988 2178,2988 2178,2884 2398,2884 2398,2811 2178,2811 2178,2720 2418,2720 2418,2641 2078,2641 2078,3067 2423,3067 "/>
   <polygon class="fil5" points="2966,2988 2745,2988 2745,2641 2645,2641 2645,3067 2966,3067 "/>
   <path class="fil5" d="M3479 2784l97 0c-3,-25 -10,-47 -22,-66 -11,-19 -26,-35 -44,-48 -17,-13 -37,-23 -60,-30 -22,-7 -46,-10 -71,-10 -35,0 -66,6 -94,17 -28,12 -51,27 -70,48 -19,20 -34,44 -44,72 -10,27 -15,57 -15,88 0,31 5,60 15,87 10,27 25,50 44,70 19,20 42,36 70,47 28,11 59,17 94,17 28,0 54,-4 77,-12 23,-8 44,-19 61,-35 17,-15 31,-33 42,-55 11,-21 17,-45 20,-72l-97 0c-4,29 -14,52 -32,69 -17,18 -41,26 -71,26 -23,0 -42,-4 -57,-12 -16,-8 -28,-19 -38,-33 -10,-14 -17,-29 -22,-45 -4,-17 -6,-35 -6,-53 0,-19 2,-37 6,-54 5,-18 12,-33 22,-47 10,-14 23,-25 38,-33 16,-8 35,-13 57,-13 12,0 24,2 35,6 11,4 22,9 30,16 9,7 16,15 22,24 6,9 10,19 11,29z"/>
   <polygon class="fil5" points="3902,2883 4086,2883 4086,3067 4186,3067 4186,2641 4086,2641 4086,2804 3902,2804 3902,2641 3802,2641 3802,3067 3902,3067 "/>
   <polygon class="fil5" points="4773,2988 4528,2988 4528,2884 4748,2884 4748,2811 4528,2811 4528,2720 4768,2720 4768,2641 4428,2641 4428,3067 4773,3067 "/>
   <path class="fil0" d="M3045 3753l0 -136 109 0 0 52 51 0 0 -52 110 0 0 52 51 0 0 -52 109 0 0 52 51 0 0 -52 109 0 0 52 51 0 0 -52 109 0 0 136 -67 0 0 147 131 0 0 106 102 0 0 -106 220 0 0 202 -1514 0 0 -202 220 0 0 106 104 0 0 -106 139 0 0 -147c0,0 -84,0 -84,0zm-122 353l0 0 1009 -3c49,353 262,553 639,626l0 324 -2300 0 0 -315c427,-115 644,-326 652,-633zm745 575l0 0c0,0 -14,-162 -217,-162 -202,0 -222,179 -222,179l0 234 435 0c0,0 3,-251 3,-251z"/>
   <polygon class="fil1" points="3745,3920 3745,3735 3110,3735 3110,3753 3129,3753 3129,3772 3708,3772 3708,3883 3618,3883 3618,3989 3553,3989 3553,3883 3295,3883 3295,3989 3230,3989 3230,3883 3147,3883 3147,3753 3129,3753 3129,3772 3129,3753 3110,3753 3110,3920 3193,3920 3193,4026 3332,4026 3332,3920 3516,3920 3516,4026 3655,4026 3655,3920 "/>
   <polygon class="fil1" points="3045,3753 3063,3753 3063,3636 3135,3636 3135,3670 3135,3689 3223,3689 3223,3636 3297,3636 3297,3670 3297,3689 3383,3689 3383,3636 3456,3636 3456,3670 3456,3689 3543,3689 3543,3636 3616,3636 3616,3670 3616,3689 3703,3689 3703,3636 3775,3636 3775,3735 3045,3735 3045,3753 3063,3753 3045,3753 3045,3772 3812,3772 3812,3600 3666,3600 3666,3652 3652,3652 3652,3618 3652,3600 3507,3600 3507,3652 3493,3652 3493,3618 3493,3600 3347,3600 3347,3652 3333,3652 3333,3618 3333,3600 3187,3600 3187,3652 3172,3652 3172,3618 3172,3600 3026,3600 3026,3772 3045,3772 "/>
   <path class="fil7" d="M3650 4926l0 -9 -408 0 0 -215 -9 0 9 1c7,-55 34,-95 71,-122 37,-27 85,-41 132,-41 47,0 95,14 131,41 36,27 62,67 68,122l9 -1 -9 0 -3 224 9 0 0 -9 0 9 9 0 3 -224 0 -1c-6,-59 -35,-105 -75,-135 -40,-30 -91,-45 -142,-45 -51,0 -102,15 -143,45 -41,30 -71,75 -79,135l0 1 0 234 435 0 0 -9 -9 0z"/>
   <polygon class="fil1" points="2867,4025 3008,4025 3008,3919 3193,3919 3193,4025 3332,4025 3332,3919 3516,3919 3516,4025 3655,4025 3655,3919 3838,3919 3838,4025 3977,4025 3977,3919 4161,3919 4161,4085 2665,4085 2665,4103 2684,4103 2665,4103 2665,4122 4198,4122 4198,3882 3940,3882 3940,3988 3875,3988 3875,3882 3618,3882 3618,3988 3553,3988 3553,3882 3295,3882 3295,3988 3230,3988 3230,3882 2971,3882 2971,3988 2904,3988 2904,3882 2647,3882 2647,4122 2665,4122 2665,4103 2684,4103 2684,3919 2867,3919 "/>
   <path class="fil1" d="M3951 4778l410 0 0 -90 -25 -10 -385 0 0 100zm447 0l0 0 155 0 0 -34c-55,-11 -107,-25 -155,-42l0 76zm155 38l0 0 -392 0 0 104 392 0 0 -104zm-383 -177l0 0 88 0c-31,-18 -61,-37 -88,-58l0 58zm-168 -141l0 0 80 0c-27,-31 -51,-64 -72,-100l-8 0 0 100zm-296 38l0 0 -6 0 6 0zm-43 -38l0 0 301 0 0 -100 -378 0 86 35 -31 42 22 23zm-168 -100l0 0 -35 0 0 24 29 0 6 -24zm-72 23l0 0 0 -23 -45 0 8 23 37 0zm-120 -23l0 0 -381 0 0 100 300 0 16 -17 -31 -33c0,0 96,-50 96,-50zm-116 139l0 0 -20 0 -1 23 -37 0 0 -7 0 -15 -396 0c-32,27 -68,53 -107,77l0 26 471 0 32 -87 0 7 37 0 0 -23 16 6 5 -6zm-43 141l0 0 -272 0 0 100 210 0 0 -30 63 0 -1 -71zm-62 139l0 0 -375 0 0 104 437 0 0 -42 -62 0 0 -61zm93 104l0 0 34 0 0 -40 -34 0 0 40zm65 0l0 0 408 0 0 -214c0,-22 -23,-167 -207,-167 -185,0 -201,167 -201,167l0 214 0 0zm437 0l0 0 35 0 0 -46 -35 0 0 46zm66 0l0 0 379 0 0 -104 -317 0 0 55 -62 0 0 49zm170 -242l0 0 -171 0 0 -21 52 -17 338 -1 0 -89 -14 -13 -368 -1 45 103 -51 18 0 21 0 64 63 0 0 36 107 0 0 -100 0 0zm490 281l0 0 0 77 149 0 0 -77 -149 0zm-37 77l0 0 0 -77 -544 0 0 77 544 0zm-1587 0l0 0 293 0 0 36 168 0 0 -36 408 0 0 -77 -408 0 0 77 0 36 -168 0 0 -36 0 -77 -293 0 0 77zm325 0l0 0 105 0 0 -71 -105 0 0 71zm572 0l0 0 115 0 0 -69 -115 -1 0 70zm-1388 -115l0 0 382 0 0 -104 -382 0 0 104zm454 38l0 0 -454 0 0 77 454 0 0 -77zm-454 -180l0 0 8 0 0 -27 -8 2 0 25zm45 0l0 0 503 0 0 -100 -334 0c-52,23 -108,44 -169,62l0 38 0 0zm248 -139l0 0 9 0 0 -5 -9 5zm194 -141l0 0 110 0 0 -100 -30 0c-22,36 -49,69 -80,100zm102 -139l0 0 301 0 0 -100 -261 0c-10,35 -24,68 -40,100zm338 0l0 0 502 0 0 -100 -502 0 0 100zm539 0l0 0 233 0c-16,-32 -29,-65 -41,-100l-193 0 0 100zm-827 -139l0 0 491 0 0 -100 -478 0c-2,35 -6,68 -13,100zm528 0l0 0 480 0c-9,-32 -16,-65 -21,-100l-459 0 0 100 0 0zm-580 -137l0 0 1072 0 2 16c24,173 88,307 191,407 55,53 121,97 200,132 69,31 147,55 234,72l15 3 0 358 -2337 0 0 -347 14 -4c211,-57 370,-138 475,-240 104,-101 158,-222 163,-368l-28 -29zm900 756l0 0 0 -67 -96 0 -1 67 97 0zm-63 -98l0 0 1 -72 -37 11c0,0 4,16 3,23l-1 38 32 0 0 0zm14 -181l0 0 -50 23 -33 17c11,15 18,31 25,48l84 -28 -26 -61zm-104 -61l0 0 -34 47c14,10 21,16 33,28l49 -23c0,0 -48,-52 -48,-52zm-64 30l0 0 38 -47 27 -37 -98 -40 -2 15 -20 92c20,3 36,9 56,16zm-94 -21l0 0 16 -56 -80 0 19 58c19,-2 29,-2 45,-1zm-78 6l0 0 -37 -105 -91 47 73 78c22,-10 27,-13 55,-20zm-129 -12l0 0 -43 51 58 21c10,-9 18,-15 29,-23l-45 -49zm-99 63l0 0 -22 61 86 28c6,-18 14,-35 27,-52l-61 -26 -29 -11zm55 121l0 0 -37 -11 1 73 33 0 0 -45 3 -16zm-3 92l0 0 -96 0 0 67 96 0 0 -67z"/>
   <path class="fil6" d="M3384 5490l1097 418 17 24 -261 0 0 350 132 0 0 224 -139 0 -3 92 139 0 0 105 -1966 0 0 -98 129 0 0 -102 -122 0 0 -224 132 0 0 -343 -309 0 0 -14 1155 -431zm-472 1009l0 0 0 98 947 0 0 -98 -947 0z"/>
   <path class="fil1" d="M2665 6293l0 183 79 0 0 -183 -79 0zm-37 183l0 0 0 -183 -79 0 0 183 79 0zm152 -183l0 0 0 183 79 0 0 -183 -79 0zm116 0l0 0 0 183 79 0 0 -183 -79 0zm116 0l0 0 0 183 79 0 0 -183 -79 0zm116 0l0 0 0 183 79 0 0 -183 -79 0zm116 0l0 0 0 183 79 0 0 -183 -79 0zm116 0l0 0 0 183 79 0 0 -183 -79 0zm116 0l0 0 0 183 79 0 0 -183 -79 0zm116 0l0 0 0 183 79 0 0 -183 -79 0zm116 0l0 0 0 183 79 0 0 -183 -79 0zm116 0l0 0 0 183 79 0 0 -183 -79 0zm116 0l0 0 0 183 79 0 0 -183 -79 0zm116 0l0 0 0 183 79 0 0 -183 -79 0zm116 0l0 0 0 183 79 0 0 -183 -79 0zm116 0l0 0 0 183 64 0 0 -183 -64 0zm88 -409l0 0 0 17 45 0 -45 -17zm-37 17l0 0 0 -32 -79 -31 0 62 79 0zm-80 -102l0 0 266 104 -7 36 -254 0 0 320 121 0 0 252 -137 0 0 66 140 0 0 133 -2000 0 0 -133 125 0 0 -66 -122 0 0 -252 114 0 0 -320 -292 0 -6 -36 1179 -443 871 339zm-36 102l0 0 0 -77 -79 -31 0 107 79 0zm-116 0l0 0 0 -122 -79 -31 0 152 79 0zm-116 0l0 0 0 -167 -79 -31 0 197 79 0zm-116 0l0 0 0 -212 -79 -31 0 242 79 0zm-116 0l0 0 0 -257 -79 -31 0 287 79 0zm-116 0l0 0 0 -302 -79 -31 0 332 79 0zm-116 0l0 0 0 -347 -79 -31 0 377 79 0zm-116 0l0 0 0 -392 -26 -10 -53 20 0 382 79 0 0 0zm-116 0l0 0 0 -368 -79 30 0 339 79 0zm-116 0l0 0 0 -325 -79 30 0 295 79 0zm-116 0l0 0 0 -281 -79 30 0 252 79 0zm-116 0l0 0 0 -238 -79 30 0 208 79 0zm-116 0l0 0 0 -195 -79 30 0 165 79 0zm-116 0l0 0 0 -151 -79 30 0 122 79 0 0 0zm-116 0l0 0 0 -108 -79 30 0 78 79 0zm-116 0l0 0 0 -64 -79 30 0 35 79 0zm-116 0l0 0 0 -21 -56 21 56 0zm53 712l0 0 0 60 1926 0 0 -59 -1926 0zm1418 -103l0 0 -909 0 0 66 909 0 0 -66zm36 1l0 0 0 65 332 0 0 -65c0,0 -332,0 -332,0zm-1328 0l0 0 0 65 346 0 0 -65 -346 0zm-115 -218l0 0 0 183 79 0 0 -183 -79 0zm135 -340l0 0 0 291 1628 0 0 -292 -1628 0z"/>
  </g>
 </g>
</svg>
