<?xml version="1.0" encoding="utf-8"?>
<!-- Generator: Adobe Illustrator 19.2.1, SVG Export Plug-In . SVG Version: 6.00 Build 0)  -->
<svg version="1.1" id="layer" xmlns="http://www.w3.org/2000/svg" xmlns:xlink="http://www.w3.org/1999/xlink" x="0px" y="0px"
	 viewBox="0 0 652 652" style="enable-background:new 0 0 652 652;" xml:space="preserve">
<style type="text/css">
	.st0{fill:#3E72B3;}
	.st1{fill:#FFFFFF;}
</style>
<path class="st0" d="M556.6,133.9C551.3,288,490.7,427.2,372.7,528l-1.3,1.4c-18.4,14.8-35.9,31.6-55.8,43.8
	c-90.5-60.6-167.8-157.4-200.2-257.8c-19.1-58.2-29.3-119.1-30.9-182.7l2.5-1.4c104.3-55.5,237.8-74.4,354.9-42.6
	C482,99.4,520.5,114.4,556.6,133.9"/>
<path class="st1" d="M544.6,140.2c-5.6,163.3-82.3,312.4-216.1,408.2l-13,9.4c-20.4-11.8-38.7-28.7-56.7-44.6
	c-107.8-97.6-158.2-230-162-373.6c98.9-50.1,219.7-69.9,331.6-42.1C468.8,107.3,507.7,121.7,544.6,140.2"/>
<path class="st0" d="M533.4,145.9c1.3,21.7-2.4,42.8-4.6,63.7c-15.4,105.6-62.1,200.2-139.9,277.2c-22.4,21.6-48.2,41.4-72.9,59.4
	l-3.6-1.8c-128.1-87.3-198.1-229-202.9-378.5l-0.7-20.2c72.2-39.5,154.2-59.8,240.6-54.7C415,95.1,477.5,115.8,533.4,145.9"/>
<path class="st1" d="M521.9,152.8l1.6,1c-6.2,107.5-41.4,208-110.8,289.7c-19.2-14.5-37.3-33.6-54-51.8
	c-69.9-80.4-104.3-177-111.4-282.1c8.9-3.6,18.6-4,28.4-5.1C362.7,95,447.8,113,521.9,152.8L521.9,152.8z"/>
<path class="st0" d="M399.3,175.1c0.3,4.9-0.3,10.4,0.4,15.3c2.4-3.1,6.3-4.2,10-3.4c2.1,0.6,4.3,2.4,4.4,5l0.3,19
	c0.2,1.8,3.1,0,2.1,2.4l-13.3,0c-0.9-2.2,2.2-0.8,2-2.7l0.1-18.2c-0.4-1.2-1.5-1.8-2.5-1.8c-1.6,0.4-3.2,1.7-3.6,3.1
	c0.1,5.9-0.8,12.1,0.3,17.8c0.6,0.8,2.2,0,1.5,1.6l-13.5-0.2c-0.2-1.6,2.9-0.9,2.6-3.1l0.2-31.5c0-1.6-1.5-1.8-2.3-2.2l0.2-1.2
	L399.3,175.1z M323.6,180.3c-0.8-2.2-3.1-3.8-5-4.6c-8.8-1.9-19.7-1.1-28.2-1.2l0,0.4c-0.4,1.4,1.2,1,1.9,1c1.2,0.2,2.1,1,2.7,2.2
	l-0.4,30.3c0.2,2.7-3,2.7-4.7,3.1l0,1c11.4-0.6,24.4,2.7,33.5-3.6c2.4-2.5,3.4-5.8,2.3-9.4c-1.1-2.6-3.5-4.9-6.2-5.8
	c-1.4-0.6-3.1-0.8-4.3-1.4c2.9-0.7,5.7-2.1,7.5-4.6C323.9,185.4,324.5,182.9,323.6,180.3 M491.3,188.8c-4.5-3-9.8-1.7-13.3,2.4
	c-0.8-1.4-2.3-3.6-4.3-3.8c-4.1-1-8.6,0.5-11.2,3.9c-0.4-1.2,0-2.5-0.1-3.5l-11.2,0l0,1.2l0.2,0c1,0,1.9,0.6,2.3,1.4l-0.1,18
	c0.2,2-0.5,4.3-2.8,3.9c0,0.4-0.2,1,0.2,1.4l13.5,0c1-2.5-1.8-0.4-1.9-2.6l0-17.2c0.6-1.4,2.2-2.9,3.8-2.9c1,0,2.3,0.6,2.5,1.8
	l-0.1,18c0,1-1.2,1.9-2.2,1.5l0,1.4l13.3-0.2c0.6-2.3-2.3-0.2-2.3-2.4l0.2-17c0.8-1.5,2.4-3.1,4.2-3.1c1.4,0,1.9,1.2,2.1,2.2l0,17.2
	c0.6,2.4-3.1,1.1-2.4,3.1c4.5,0.1,9.6,0.3,13.9,0.2c0.8-2.5-2.3-0.4-2.3-2.4l-0.5-19.6L491.3,188.8 M385.2,191.4
	c-0.8-2.2-2.7-3.6-4.6-4.2c-4.9-1.2-10.6-0.5-14.1,3.5c-3.2,3.3-3.8,8.4-3.3,13.1c0.7,4.3,3.8,8.5,8.1,9.7
	c5.5,1.4,11.2-0.8,14.4-5.1l-0.8-1c-2,1.9-5.1,3.1-8,1.8c-2.1-1-3.3-3.4-4-5.3c-0.9-5.1-2.4-11.6,1.8-15.4c5.5-1.5,1.7,5.3,4.8,7.1
	c1.2,0.6,2.7,1,3.9,0.5C385.2,195.5,385.8,193.1,385.2,191.4 M430.9,187.7c-3.9-0.1-7.2-0.3-11.1-0.2c-0.8,2.5,2.9,0.8,2.5,3.4
	c0.1,6.7-1,13.7,0.5,20c0.6,1.8,2.7,3,4.7,3.2c3.7,0.8,6.9-1.3,9.6-2.6c0,1.2-0.4,2.3,0.4,2.9c3.3-0.5,7.1-1.7,10.8-1.6l0.6-0.6
	c-0.2-0.4-0.2-1.4-1.2-1c-1-0.2-1.5-1.2-1.7-2l0.1-21.5l-11.4,0c0,0.4-0.2,1,0.2,1.4c0.8-0.2,1.4,0.2,1.8,0.8
	c1.3,6.1,0.2,12.9,0.5,19c-0.8,1-2,1.5-3.2,1.7c-1.2,0-2.7-0.4-2.9-1.8L430.9,187.7 M355.9,191.3c-1.7-1.6-4-4-6.8-4.4
	c-5.1-1.2-11.5,0-14.9,4.7c-2.8,3.9-3.5,10.1-1.4,14.7c2.1,5.1,7.3,7.1,12.4,7.6c4.7-0.3,9.8-2.4,12-7.3
	C359.4,202,359.1,195.5,355.9,191.3 M445.6,251.7c-3-7.9-13.4-7.2-19.3-4.2c-3.7,2.5-4.4,7.2-3.9,11.3c0.9,3.3,4,5.7,6.7,7.3
	c-2.6,0.9-5.1,1.9-6.7,4.4c-1,2.1-2,5.1-1.3,7.8c0.9,2.6,2.9,5.1,5.6,6.1c4.9,1.6,10.4,1.1,14.7-1.2c3.5-1.9,5-6,5-10.1
	c0.3-5.1-4-8.9-7.9-11.1c1.8-0.8,3.5-1.5,5.1-3.1C445.9,257.4,446.2,254.2,445.6,251.7 M415.8,270.1c1,0.8,2.2-0.2,3.3,0.2l0.3,6.3
	l-3.5,0.1l-0.3,7.8l-8.4,0.1l-0.1-7.8c-4.5-0.3-9.6-0.1-14.1-0.4l0.1-5.9l17.4-25.2c2,0.2,3.7-0.1,5.7,0.1L415.8,270.1z
	 M355.9,246.3c0.4,13.3-1.1,22.9,0.1,34.8c1.9,2,4.5,2,7.2,1.9l0,1.4c-7.2,0.1-16.6-0.2-25-0.2l0-1.2c2.5-0.6,5.1,0.3,7.1-1.7
	l0.8-3.3c-0.1-9.2,1-17.6-0.4-25.8c-2.1-2.4-4.7,0.3-7.1,0.7c-0.2-0.6-0.6-1-0.4-1.6l16.1-6.8C355.5,244.2,356.3,245.3,355.9,246.3
	 M388.1,248.5c1.5,2.2,2.3,5.1,1.5,7.9c-1,2.9-4.2,4.6-6.9,5.6c4.7,2.8,8.9,6.6,8,12.8c-0.5,4.5-3.4,8.4-8,9.7
	c-4.7,1.3-9,1.2-13.5-1.2c-2.3-1.4-3.5-3.8-4.2-6.3c-0.2-2.9,0.5-5.1,1.9-7.2c1.6-1.9,4-2.9,6.1-3.8c-3.3-2-7.4-5.4-6.9-10.1
	c0.4-2.9,1.1-5.9,3.2-7.8C374.5,244,383.3,244,388.1,248.5"/>
<path class="st1" d="M311.9,178.2c1.9,3.6,1.8,7.9,0.2,11.4c-1.6,1.9-4.1,2.3-6.5,1.9l0.4-14.1C307.8,176.2,310.5,176.6,311.9,178.2
	 M348.3,190.1c-0.8-1.2-2.1-2.4-3.5-2c-1.6,0.4-2.8,1.9-3.2,3.3c-0.1,6.5-2,14.3,1.1,20c1.5,1,3.5,0.8,4.9-0.3
	C350.4,204.4,349.1,196.9,348.3,190.1 M312.4,195.2c-1.9-1.4-4.3-1.6-6.8-1.5l-0.2,14.5c-0.4,2.1,1.5,2.6,3.1,2.6
	c2.4-0.6,4.9-1.1,5.7-3.6C315,203.3,315.9,198.2,312.4,195.2 M438,250.6c-0.6-2-2.5-3.8-4.6-3.4c-1.4,0-1.8,1-3,1.5
	c-1,1.2-1.2,3.1-0.7,4.7c1.3,3.5,4.6,5.3,7.3,7.2C439.1,257.9,438.7,253.8,438,250.6 M381.9,249.6c1.3,3.3,1.1,7.4-0.5,10.6
	c-2.9-1.4-6.8-3.8-7.5-7.5c-0.8-2.2,0.5-4.5,2.4-5.4C378.6,246.4,381.1,247.5,381.9,249.6 M397,270.2l10.2-15.7l-0.2,15.7L397,270.2
	z M438.8,278c-0.2,2.2-0.7,4.3-2.8,5.2c-1.8,0.6-2.9,0.5-4.7-0.1c-3.7-4.2-2.8-10.8-0.6-15.5C434.2,270.1,439,272.9,438.8,278
	 M382.7,275.7c0.6,2-0.1,4.3-0.7,6.1c-1.2,1.4-3.4,2.1-5.1,1.5c-1.9-0.2-2.9-2-3.5-3.8c-1.3-3.9-0.5-8.4,1.3-11.9
	C377.9,269.7,381.7,271.7,382.7,275.7"/>
<path class="st1" d="M249.7,170.9c0.4,1.2,0.4,2.4-1,2.7c-3.9,0-6.7,2.1-8.9,5.2l-3,4.5l-42.8,104.1c-1.6,0.4-2.9,0.5-4.3-0.1
	L144,179c-2.9-3.7-7.2-5.6-11.1-6.4c0.2-0.6,0-2.2,0.8-2.1l55.8,0c0.2,0.8,0.8,1.8,0,2.3c-4.9,1.9-11.9-0.6-14.5,5.1l1.1,8.4
	c8.5,21.1,17.2,42.3,26.5,63.2l1.8-2.3l21.3-53.3c1.6-5.1,5.8-11.1,3-16.2c-3.7-3.8-8.6-4-13.8-4.7l0-2.3
	C226.3,169.8,238.2,170.3,249.7,170.9 M268.2,251.9c-1.7-3.1-4.2-4.6-7-6.4c-11.1-5.4-25.6-3.7-35.1,4c-9.9,7.7-8.7,22-8.9,33.1
	l-8.8,0.1l0.3,7.2l8.8,0.3l0.1,144.9l22.2,23.4l0.4-169c0,0,10.4,0.3,14.1-0.2c-0.6-2.4,0.3-4.1-0.1-6.5c-5.3-0.3-9,0.5-14.1-0.2
	c-0.1-8,0-15.8-0.1-23.5l1.7-7c1.4-3.5,5-5.2,8.5-5.4c1.8,0.8,5.1,0.5,4.5,3.2c-2.8,4.1-4.8,9.1-3.3,14.2c0.6,1.8,1.7,3.3,3.5,4
	c4.1,1.4,10.3,1.5,13.3-2.4C271.3,261.8,269.9,256.3,268.2,251.9 M318.1,371c-18,0.5-39.9-0.8-58.7,0.5c-0.2,1-0.2,1.8,0.6,2.4
	c4.9,0.8,11.1,0.9,13,6.6l0,82.9l-1.3,10.9c-1.7,6.6-9.1,5.5-13.8,7.6c0.2,0.8,0,1.8,0.4,2.4l31.9,0.3l59.3,0.3
	c2.2,0,5.3,0.5,7.2-0.1c2.9-12.3,5.2-24.6,7.4-37.1c-1.4,0.2-2.5-0.4-3.9,0.3c-4.1,13.6-15.8,27.7-30,31.1c-9.4,1-22,4.6-29.9-3.2
	c-0.1-23.5,0.3-46.6,0.4-69.4c0.5-9-0.5-17.2,1.3-25.6c2.6-7.2,10.6-5.7,16.3-7.8L318.1,371z"/>
</svg>
