<?xml version="1.0" encoding="UTF-8" standalone="no"?>
<svg xmlns:dc="http://purl.org/dc/elements/1.1/" xmlns:cc="http://creativecommons.org/ns#" xmlns:rdf="http://www.w3.org/1999/02/22-rdf-syntax-ns#" xmlns:svg="http://www.w3.org/2000/svg" xmlns="http://www.w3.org/2000/svg" xmlns:sodipodi="http://sodipodi.sourceforge.net/DTD/sodipodi-0.dtd" xmlns:inkscape="http://www.inkscape.org/namespaces/inkscape" version="1.1" viewBox="0 0 200 200" width="200.0pt" height="200.0pt" id="svg3688" sodipodi:docname="5.svg" inkscape:version="1.0 (4035a4f, 2020-05-01)">
  <metadata id="metadata3694">
    <rdf:RDF>
      <cc:Work rdf:about="">
        <dc:format>image/svg+xml</dc:format>
        <dc:type rdf:resource="http://purl.org/dc/dcmitype/StillImage"/>
      </cc:Work>
    </rdf:RDF>
  </metadata>
  <defs id="defs3692"/>
  <sodipodi:namedview inkscape:document-rotation="0" pagecolor="#ffffff" bordercolor="#666666" borderopacity="1" objecttolerance="10" gridtolerance="10" guidetolerance="10" inkscape:pageopacity="0" inkscape:pageshadow="2" inkscape:window-width="640" inkscape:window-height="480" id="namedview3690" showgrid="false" inkscape:zoom="2.50875" inkscape:cx="262.23002" inkscape:cy="133.33333" inkscape:current-layer="svg3688"/>
  <path d="M 0.00 0.00 L 200.00 0.00 L 200.00 96.39 C 199.43 79.20 194.36 62.31 185.31 47.67 C 175.81 32.20 162.03 19.42 145.87 11.13 C 127.58 1.65 106.39 -1.82 86.01 1.09 C 68.95 3.37 52.55 10.41 38.94 20.91 C 24.81 31.80 13.70 46.52 7.13 63.12 C 0.59 79.45 -1.40 97.62 1.21 115.01 C 4.30 136.47 14.74 156.63 30.26 171.74 C 47.81 188.91 71.55 199.16 96.10 200.00 L 0.00 200.00 L 0.00 0.00 Z" fill="#ffffff" id="path3620" style="fill:#ffffff;fill-opacity:0"/>
  <path d="M 86.01 1.09 C 106.39 -1.82 127.58 1.65 145.87 11.13 C 162.03 19.42 175.81 32.20 185.31 47.67 C 194.36 62.31 199.43 79.20 200.00 96.39 L 200.00 103.91 C 199.32 124.40 192.15 144.39 179.71 160.68 C 161.86 184.36 133.30 199.22 103.62 200.00 L 96.10 200.00 C 71.55 199.16 47.81 188.91 30.26 171.74 C 14.74 156.63 4.30 136.47 1.21 115.01 C -1.40 97.62 0.59 79.45 7.13 63.12 C 13.70 46.52 24.81 31.80 38.94 20.91 C 52.55 10.41 68.95 3.37 86.01 1.09 Z" fill="#0066b2" id="path3622"/>
  <path d="M 86.52 5.88 C 114.40 1.73 143.52 10.65 164.25 29.75 C 179.77 43.87 190.51 63.24 193.91 83.97 C 196.52 98.37 195.43 113.16 191.40 127.19 C 186.00 145.28 175.21 161.66 160.58 173.61 C 146.83 184.97 129.75 192.42 112.02 194.51 C 81.95 198.60 50.71 187.12 30.23 164.77 C 17.14 150.66 8.45 132.59 5.85 113.51 C 3.26 95.61 5.96 76.91 13.49 60.47 C 26.69 31.42 54.84 10.15 86.52 5.88 Z" fill="#ffffff" id="path3624"/>
  <path d="M 84.51 10.76 C 109.57 6.23 136.24 12.96 156.18 28.80 C 169.70 39.48 180.11 53.94 185.76 70.23 C 190.87 84.98 192.17 101.14 189.28 116.50 C 185.93 135.41 176.19 153.07 162.19 166.19 C 141.87 185.52 112.63 194.34 85.01 189.51 C 66.50 186.53 49.05 177.43 35.88 164.12 C 22.76 151.05 13.75 133.78 10.73 115.50 C 5.65 87.34 14.94 57.38 34.97 36.98 C 48.13 23.31 65.78 13.89 84.51 10.76 Z" fill="#dc052d" id="path3626"/>
  <path d="M 106.79 15.31 C 109.03 15.61 111.23 16.08 113.47 16.53 C 114.46 19.62 115.39 22.72 116.23 25.85 C 118.39 23.39 120.56 20.93 122.68 18.44 C 124.89 19.01 127.09 19.58 129.30 20.12 C 126.16 23.70 122.86 27.13 119.63 30.63 C 117.19 32.94 117.17 36.72 116.32 39.85 C 114.35 39.42 112.37 38.98 110.40 38.54 C 110.94 35.44 112.41 31.83 111.21 28.79 C 109.82 24.28 108.05 19.86 106.79 15.31 Z" fill="#ffffff" id="path3628"/>
  <path d="M 89.35 16.48 C 91.60 15.97 93.97 15.85 96.26 15.65 C 99.62 23.00 102.96 30.35 106.40 37.66 C 104.21 37.63 102.01 37.57 99.82 37.52 C 99.26 36.23 98.70 34.95 98.13 33.66 C 95.57 33.88 93.01 34.12 90.44 34.37 C 90.10 35.76 89.75 37.15 89.41 38.54 C 87.31 38.92 85.20 39.30 83.10 39.67 C 85.22 31.96 87.11 24.15 89.35 16.48 Z" fill="#ffffff" id="path3630"/>
  <path d="M 69.99 21.64 C 74.84 20.92 77.47 27.11 74.63 30.68 C 79.68 30.76 82.62 37.31 78.82 40.82 C 75.32 43.67 70.62 45.23 66.52 47.05 C 63.35 40.35 59.90 33.79 56.64 27.14 C 61.03 25.38 65.33 22.51 69.99 21.64 Z" fill="#ffffff" id="path3632"/>
  <path d="M 133.85 22.05 C 138.49 24.67 143.18 27.18 147.83 29.79 C 147.00 31.17 146.18 32.55 145.37 33.94 C 142.47 32.35 139.57 30.78 136.67 29.19 C 136.11 30.31 135.56 31.43 135.00 32.55 C 137.64 34.04 140.30 35.50 142.97 36.94 C 142.17 38.29 141.36 39.65 140.55 41.01 C 137.94 39.62 135.36 38.18 132.79 36.69 C 132.19 37.96 131.59 39.23 131.00 40.50 C 133.81 42.00 136.60 43.56 139.41 45.09 C 138.56 46.49 137.72 47.88 136.88 49.28 C 132.50 46.76 128.00 44.45 123.61 41.93 C 127.03 35.32 130.21 28.55 133.85 22.05 Z" fill="#ffffff" id="path3634"/>
  <path d="M 93.19 22.29 C 94.30 24.63 95.41 26.98 96.52 29.32 C 94.86 29.47 93.19 29.61 91.53 29.74 C 91.87 28.32 92.20 26.90 92.52 25.47 C 92.75 24.41 92.98 23.35 93.19 22.29 Z" fill="#dc052d" id="path3636"/>
  <path d="M 69.20 26.55 C 69.92 27.59 70.75 28.33 70.72 29.67 C 69.58 31.05 67.47 31.71 65.94 32.58 C 65.28 31.32 64.62 30.06 63.96 28.79 C 65.70 28.02 67.44 27.25 69.20 26.55 Z" fill="#dc052d" id="path3638"/>
  <path d="M 73.10 34.64 C 73.90 35.62 74.51 36.76 74.92 38.07 C 73.23 38.93 71.54 39.79 69.84 40.64 C 69.21 39.22 68.58 37.82 68.01 36.38 C 69.66 35.64 71.31 34.96 73.10 34.64 Z" fill="#dc052d" id="path3640"/>
  <path d="M 156.31 36.64 C 159.20 39.68 162.50 42.71 164.69 46.30 C 167.36 51.82 160.68 57.20 155.47 56.48 C 154.33 59.39 153.21 62.32 152.06 65.23 C 150.64 63.47 149.23 61.70 147.83 59.93 C 148.85 57.62 150.05 55.33 150.78 52.92 C 150.44 52.04 149.96 51.20 149.34 50.39 C 147.53 52.19 145.74 54.02 143.95 55.84 C 142.48 54.46 141.02 53.07 139.56 51.68 C 144.23 46.97 148.97 42.33 153.62 37.61 C 154.39 37.07 155.41 35.37 156.31 36.64 Z" fill="#ffffff" id="path3642"/>
  <path d="M 38.98 42.87 C 41.71 41.98 43.77 43.18 46.26 44.04 C 45.11 45.60 43.93 47.14 42.73 48.67 C 40.09 48.57 38.29 48.26 36.78 50.84 C 34.99 54.11 38.14 56.76 40.54 58.47 C 42.93 60.06 46.21 60.74 48.01 57.92 C 49.46 56.07 48.19 54.57 47.48 52.74 C 48.70 51.16 49.94 49.60 51.19 48.04 C 52.84 50.25 54.48 52.05 54.38 55.01 C 54.26 59.28 50.49 63.95 46.51 65.35 C 41.15 67.19 35.05 63.28 32.04 59.00 C 28.04 53.12 32.83 44.85 38.98 42.87 Z" fill="#ffffff" id="path3644"/>
  <path d="M 92.17 44.09 C 109.82 41.50 128.08 47.73 140.51 60.49 C 150.06 70.22 155.92 83.35 156.57 96.99 C 157.24 109.08 154.03 121.23 147.29 131.30 C 139.77 142.65 128.16 151.15 114.99 154.68 C 101.84 158.23 87.35 156.97 75.14 150.87 C 63.91 145.38 54.63 136.08 49.21 124.81 C 43.06 112.42 41.95 97.78 45.68 84.50 C 51.63 63.33 70.33 46.96 92.17 44.09 Z" fill="#ffffff" id="path3646"/>
  <path d="M 156.31 43.55 C 157.65 45.16 161.27 47.52 158.71 49.69 C 156.08 52.47 154.37 48.83 152.46 47.27 C 153.73 46.02 155.00 44.76 156.31 43.55 Z" fill="#dc052d" id="path3648"/>
  <path d="M 107.84 48.48 C 107.68 55.86 108.19 63.32 107.55 70.68 C 102.63 63.36 97.67 56.07 92.61 48.85 C 92.48 57.68 92.63 66.51 92.53 75.34 C 97.50 82.77 102.59 90.14 107.66 97.51 C 107.77 88.72 107.55 79.92 107.78 71.12 C 113.27 77.96 117.80 85.58 122.92 92.70 C 122.96 83.88 122.78 75.06 123.01 66.24 C 128.53 73.24 133.26 80.91 138.33 88.23 C 138.47 80.37 138.29 72.50 138.43 64.63 C 149.14 76.57 153.83 91.82 151.68 107.75 C 147.26 101.29 142.85 94.83 138.44 88.36 C 138.36 95.57 138.42 102.77 138.44 109.98 C 138.47 111.73 138.26 113.06 137.53 114.62 C 133.05 107.22 127.92 100.13 122.94 93.04 C 123.02 97.70 123.07 102.34 122.94 107.00 C 122.80 111.05 123.34 115.09 122.76 119.03 C 121.76 118.08 120.89 117.04 120.11 115.90 C 116.03 109.81 111.84 103.79 107.73 97.72 C 107.77 106.42 107.53 115.14 107.88 123.83 C 107.55 123.79 107.23 123.75 106.90 123.70 C 102.12 116.66 97.35 109.61 92.47 102.64 C 92.36 110.15 92.51 117.67 92.43 125.19 C 92.48 126.53 92.02 127.48 91.53 128.66 C 87.06 121.37 81.96 114.47 77.19 107.36 C 77.11 116.17 77.33 124.98 77.07 133.79 C 71.56 126.82 66.87 119.16 61.78 111.87 C 61.67 119.75 61.82 127.63 61.70 135.51 C 56.98 130.08 53.19 124.00 50.84 117.18 C 48.01 109.23 47.64 100.92 48.47 92.59 C 53.06 98.84 57.29 105.37 61.69 111.76 C 61.73 106.18 61.72 100.59 61.70 95.00 C 61.72 91.63 61.37 88.55 62.46 85.30 C 66.98 92.77 72.20 99.85 77.13 107.07 C 77.38 98.20 76.79 89.26 77.45 80.41 C 82.34 87.81 87.48 95.04 92.40 102.43 C 92.44 93.51 92.37 84.59 92.43 75.67 C 87.45 68.07 81.95 60.78 77.23 53.02 C 81.11 51.53 84.92 50.02 89.01 49.18 C 95.29 47.77 101.47 47.95 107.84 48.48 Z" fill="#0066b2" id="path3650"/>
  <path d="M 111.47 49.20 C 115.59 50.21 119.54 51.48 123.27 53.54 C 123.13 57.55 123.62 61.90 122.54 65.72 C 119.14 60.04 115.13 54.72 111.47 49.20 Z" fill="#0066b2" id="path3652"/>
  <path d="M 76.97 53.29 C 77.52 62.10 77.26 71.02 77.13 79.84 C 72.46 74.22 68.80 67.78 64.43 61.92 C 67.47 59.39 70.52 56.94 73.96 54.97 C 74.96 54.40 75.97 53.84 76.97 53.29 Z" fill="#0066b2" id="path3654"/>
  <path d="M 173.81 57.97 C 174.71 59.75 175.61 61.53 176.53 63.31 C 173.67 67.98 170.67 72.56 167.55 77.07 C 171.71 75.37 175.93 73.82 180.13 72.23 C 180.78 74.07 181.43 75.92 182.07 77.77 C 175.06 80.34 168.14 83.13 161.10 85.62 C 160.44 83.72 159.76 81.82 159.08 79.92 C 161.94 75.55 164.94 71.27 167.94 66.99 C 163.94 68.76 159.94 70.54 156.00 72.42 C 155.16 70.64 154.32 68.85 153.48 67.06 C 160.28 64.08 166.98 60.87 173.81 57.97 Z" fill="#ffffff" id="path3656"/>
  <path d="M 28.29 64.67 C 27.01 67.98 25.84 71.31 24.83 74.71 C 26.18 75.11 27.53 75.51 28.88 75.91 C 29.96 72.84 31.05 69.78 32.12 66.71 C 33.61 67.31 35.10 67.92 36.59 68.52 C 35.49 71.50 34.41 74.48 33.30 77.45 C 35.92 78.30 38.54 79.13 41.16 79.96 C 40.59 81.87 40.02 83.79 39.44 85.71 C 32.29 83.41 25.15 81.07 18.02 78.71 C 19.96 73.52 21.77 68.28 23.63 63.06 C 25.20 63.54 26.75 64.11 28.29 64.67 Z" fill="#ffffff" id="path3658"/>
  <path d="M 61.87 64.59 C 61.95 71.15 61.77 77.68 61.99 84.22 C 61.60 84.07 61.21 83.91 60.82 83.76 C 58.82 80.66 56.73 77.64 54.60 74.63 C 56.68 71.01 59.12 67.73 61.87 64.59 Z" fill="#0066b2" id="path3660"/>
  <path style="fill:#ffffff;fill-opacity:0" d="M 200.00 103.91 L 200.00 200.00 L 103.62 200.00 C 133.30 199.22 161.86 184.36 179.71 160.68 C 192.15 144.39 199.32 124.40 200.00 103.91 Z" fill="#ffffff" id="path3662"/>
  <path d="M 139.26 116.51 C 141.54 119.46 143.50 122.67 145.61 125.74 C 143.40 129.19 141.03 132.50 138.37 135.63 C 138.22 129.04 138.44 122.46 138.21 115.87 C 138.56 116.08 138.91 116.29 139.26 116.51 Z" fill="#0066b2" id="path3664"/>
  <path d="M 39.55 118.87 C 40.39 120.66 41.22 122.46 42.07 124.25 C 40.33 127.68 38.51 131.07 36.69 134.46 C 40.47 134.82 44.46 134.77 48.16 135.65 C 49.37 137.15 50.32 138.95 51.30 140.62 C 44.85 144.33 38.47 148.15 32.00 151.84 C 30.97 150.18 29.94 148.53 28.91 146.88 C 32.67 144.70 36.42 142.51 40.17 140.30 C 36.41 139.75 32.65 139.24 28.90 138.62 C 30.51 135.11 32.09 131.58 33.80 128.12 C 29.91 130.21 25.93 132.12 22.00 134.13 C 21.17 132.36 20.34 130.60 19.51 128.83 C 26.19 125.51 32.79 122.02 39.55 118.87 Z" fill="#ffffff" id="path3666"/>
  <path d="M 160.28 118.98 C 167.15 121.70 173.74 125.16 180.53 128.09 C 179.73 130.01 178.92 131.94 178.11 133.86 C 172.74 134.60 167.39 135.43 161.99 135.93 C 165.93 138.03 169.82 140.22 173.85 142.16 C 172.90 143.90 172.00 145.67 171.01 147.40 C 164.42 143.85 157.80 140.37 151.26 136.73 C 152.30 134.97 153.32 133.21 154.33 131.44 C 159.53 130.74 164.76 130.29 169.95 129.57 C 165.90 127.85 161.90 126.02 157.90 124.17 C 158.66 122.40 159.37 120.67 160.28 118.98 Z" fill="#ffffff" id="path3668"/>
  <path d="M 123.11 120.30 C 127.69 126.00 131.38 132.39 135.76 138.24 C 127.41 145.65 118.76 149.79 107.75 151.74 C 107.45 145.49 107.67 139.25 107.56 133.00 C 107.60 130.29 107.27 127.79 108.48 125.27 C 112.95 132.55 118.03 139.48 122.83 146.55 C 123.02 137.82 122.47 129.01 123.11 120.30 Z" fill="#0066b2" id="path3670"/>
  <path d="M 92.56 130.05 L 92.76 130.26 L 93.00 130.52 C 95.27 133.07 97.06 136.16 99.04 138.97 C 101.93 143.25 105.05 147.43 107.64 151.89 C 102.50 152.22 97.43 152.30 92.31 151.67 C 92.30 144.46 92.40 137.26 92.23 130.06 L 92.56 130.05 Z" fill="#0066b2" id="path3672"/>
  <path d="M 77.44 134.34 C 81.05 139.99 84.99 145.41 88.70 150.99 C 84.65 149.99 80.90 148.69 77.12 146.93 C 77.13 142.73 76.79 138.43 77.44 134.34 Z" fill="#0066b2" id="path3674"/>
  <path d="M 148.71 139.98 C 149.87 141.04 150.98 142.14 152.11 143.24 C 149.86 145.43 147.62 147.61 145.37 149.79 C 146.24 150.70 147.10 151.61 147.96 152.53 C 150.10 150.46 152.26 148.40 154.39 146.31 C 155.52 147.43 156.66 148.55 157.81 149.67 C 155.55 151.78 153.32 153.92 151.07 156.04 C 152.01 157.07 152.96 158.09 153.90 159.12 C 156.35 156.70 158.84 154.32 161.32 151.92 C 162.51 153.02 163.70 154.12 164.89 155.23 C 160.93 159.14 156.88 162.96 152.89 166.84 C 147.95 161.23 142.84 155.78 137.95 150.12 C 141.54 146.75 144.98 143.19 148.71 139.98 Z" fill="#ffffff" id="path3676"/>
  <path d="M 54.18 143.15 C 55.71 144.45 57.25 145.74 58.79 147.03 C 55.70 150.83 52.22 154.40 49.40 158.40 C 46.87 161.12 52.87 166.25 55.23 163.26 C 58.51 159.58 61.15 155.29 64.20 151.41 C 65.84 152.55 67.50 153.69 69.15 154.83 C 66.50 158.31 63.95 161.87 61.35 165.38 C 59.83 167.30 58.41 169.23 55.85 169.72 C 51.97 170.51 48.16 168.11 45.58 165.43 C 43.36 162.93 41.77 159.75 43.52 156.49 C 45.83 152.42 49.45 149.07 52.32 145.38 C 52.94 144.64 53.56 143.90 54.18 143.15 Z" fill="#ffffff" id="path3678"/>
  <path d="M 59.95 147.98 C 61.05 148.71 62.13 149.47 63.22 150.23 C 61.31 151.63 59.39 153.02 57.45 154.37 C 58.24 152.23 59.05 150.07 59.95 147.98 Z" fill="#ffffff" id="path3680"/>
  <path d="M 134.55 152.86 C 137.78 159.54 141.11 166.18 144.41 172.82 C 142.63 173.73 140.85 174.63 139.08 175.54 C 137.75 172.92 136.45 170.28 135.14 167.64 C 132.74 168.74 130.34 169.83 127.94 170.92 C 129.14 173.62 130.28 176.34 131.42 179.05 C 129.57 179.78 127.72 180.52 125.88 181.27 C 122.87 174.43 120.19 167.47 117.13 160.66 C 119.01 159.93 120.90 159.21 122.78 158.48 C 123.84 160.97 124.89 163.46 125.93 165.95 C 128.21 164.94 130.49 163.93 132.77 162.93 C 131.60 160.45 130.39 157.99 129.15 155.54 C 130.94 154.62 132.74 153.74 134.55 152.86 Z" fill="#ffffff" id="path3682"/>
  <path d="M 72.52 157.01 C 74.48 157.40 76.42 158.15 78.31 158.80 C 79.77 163.70 81.00 168.57 82.80 173.36 C 83.90 169.31 84.91 165.25 86.00 161.20 C 87.94 161.67 89.89 162.10 91.82 162.58 C 89.74 169.71 87.93 176.91 86.03 184.09 C 84.10 183.66 82.05 183.30 80.19 182.63 C 77.96 177.91 77.02 172.52 75.12 167.63 C 73.53 171.66 72.36 175.82 70.88 179.90 C 69.03 179.24 67.19 178.59 65.34 177.94 C 67.85 171.01 69.84 163.86 72.52 157.01 Z" fill="#ffffff" id="path3684"/>
  <path d="M 110.15 162.88 C 113.29 164.16 114.31 166.76 115.47 169.69 C 113.48 169.85 111.48 170.00 109.49 170.13 C 108.11 168.43 107.56 166.93 105.02 167.22 C 101.97 167.28 101.03 170.44 100.87 172.97 C 100.86 175.80 101.43 179.99 104.97 180.36 C 108.22 180.66 109.07 178.86 110.43 176.42 C 112.37 176.32 114.32 176.24 116.27 176.17 C 115.56 179.10 115.20 181.70 112.48 183.48 C 108.43 186.15 101.76 186.23 97.98 183.01 C 94.11 179.35 93.69 172.41 95.73 167.74 C 98.04 162.32 105.09 161.06 110.15 162.88 Z" fill="#ffffff" id="path3686"/>
</svg>