<?xml version="1.0" encoding="UTF-8" standalone="no"?>
<svg xmlns:dc="http://purl.org/dc/elements/1.1/" xmlns:cc="http://creativecommons.org/ns#" xmlns:rdf="http://www.w3.org/1999/02/22-rdf-syntax-ns#" xmlns:svg="http://www.w3.org/2000/svg" xmlns="http://www.w3.org/2000/svg" xmlns:sodipodi="http://sodipodi.sourceforge.net/DTD/sodipodi-0.dtd" xmlns:inkscape="http://www.inkscape.org/namespaces/inkscape" id="Calque_1" data-name="Calque 1" viewBox="0 0 999.99998 1989.9195" version="1.1" sodipodi:docname="a.svg" width="1000" height="1989.9196" inkscape:version="0.92.4 (5da689c313, 2019-01-14)">
  <metadata id="metadata2483">
    <rdf:RDF>
      <cc:Work rdf:about="">
        <dc:format>image/svg+xml</dc:format>
        <dc:type rdf:resource="http://purl.org/dc/dcmitype/StillImage"/>
        <dc:title>Stade de Reims</dc:title>
      </cc:Work>
    </rdf:RDF>
  </metadata>
  <sodipodi:namedview pagecolor="#ffffff" bordercolor="#666666" borderopacity="1" objecttolerance="10" gridtolerance="10" guidetolerance="10" inkscape:pageopacity="0" inkscape:pageshadow="2" inkscape:window-width="1920" inkscape:window-height="1017" id="namedview2481" showgrid="false" showguides="false" fit-margin-top="0" fit-margin-left="0" fit-margin-right="0" fit-margin-bottom="0" inkscape:zoom="0.22973815" inkscape:cx="1346.5565" inkscape:cy="281.08516" inkscape:window-x="1912" inkscape:window-y="-8" inkscape:window-maximized="1" inkscape:current-layer="Calque_1"/>
  <defs id="defs2448"/>
  <title id="title2450">Stade de Reims</title>
  <path class="logo-stade-de-reims" d="M 499.97261,1326.5765 C 712.64998,1263.0801 892.07254,1023.6126 892.07254,802.7174 V 375.7739 h -72.04296 v 426.9435 c 0,86.78025 -33.52873,181.39484 -94.34065,266.4767 0,0 -86.2324,130.6087 -225.71632,180.7922 C 360.48869,1199.8028 274.25629,1069.1941 274.25629,1069.1941 213.38958,984.16702 179.91563,889.49765 179.91563,802.7174 V 375.7739 h -72.04295 v 426.9435 c 0,220.8952 179.42256,460.3079 392.09993,523.8591 z" id="path2452" style="fill:#eb0000;fill-opacity:1;stroke-width:5.47855139" inkscape:connector-curvature="0"/>
  <path class="logo-1" d="M 428.47751,1116.474 V 668.71203 l -89.2456,49.30696 v 301.32031 a 494.93234,494.93234 0 0 0 89.2456,97.1347 z" id="path2454" style="fill:#eb0000;fill-opacity:1;stroke-width:5.47855139" inkscape:connector-curvature="0"/>
  <path class="logo-1" d="m 587.3555,884.89567 78.2885,130.82783 a 524.51652,524.51652 0 0 1 -66.72875,78.0693 l -149.29053,-276.39289 88.69775,0.32872 a 23.393415,23.393415 0 0 0 16.76437,-7.17691 25.694406,25.694406 0 0 0 7.28647,-18.134 v -63.1677 A 36.487153,36.487153 0 0 0 544.12973,699.33713 C 502.87624,677.91599 432.25771,637.92257 380.32104,608.174 a 91.875308,91.875308 0 0 1 -46.07461,-79.5485 v -64.373 a 91.820523,91.820523 0 0 1 91.71095,-91.711 h 154.38558 a 71.221169,71.221169 0 0 1 71.22117,71.2212 v 39.6647 l -89.24561,49.307 v -57.8535 c 0,-14.5182 -10.9571,-23.8865 -27.9954,-23.8865 h -75.00136 a 28.050184,28.050184 0 0 0 -27.9954,27.9406 v 37.2542 a 33.967019,33.967019 0 0 0 17.03829,29.4198 c 0.93136,0.493 79.49378,41.0891 155.37172,81.84953 a 91.163096,91.163096 0 0 1 48.10168,80.42514 v 107.16047 c 0,0 1.86271,60.48321 -64.48255,69.85153 z" id="path2456" style="fill:#eb0000;fill-opacity:1;stroke-width:5.47855139" inkscape:connector-curvature="0"/>
  <path class="logo-1" d="m 718.45724,232.7289 v -28.8172 a 132.58095,132.58095 0 0 1 9.14918,-48.3208 L 767.59985,53.6898 h -70.45418 a 56.593437,56.593437 0 0 1 -15.28515,33.7479 c -13.03896,12.3815 -32.87131,17.0931 -52.5941,17.0931 -53.85416,0 -94.23108,-49.8 -94.23108,-104.5308 h -70.07068 c 0,54.7855 -40.37692,104.5308 -94.23108,104.5308 -19.83236,0 -39.55514,-4.7116 -52.5941,-17.0931 A 56.593437,56.593437 0 0 1 302.85433,53.6898 h -70.45418 l 39.99343,101.9011 a 132.58095,132.58095 0 0 1 9.14918,48.3208 v 28.8172 z m -194.7625,-42.1301 a 170.27338,170.27338 0 0 1 -47.33469,0 223.63447,223.63447 0 0 1 -30.6251,-54.7855 238.59092,238.59092 0 0 1 54.56637,-40.7604 v 0 a 241.43976,241.43976 0 0 1 54.29245,40.5961 224.62061,224.62061 0 0 1 -30.89903,54.9498 z" id="path2458" style="fill:#eb0000;fill-opacity:1;stroke-width:5.47855139" inkscape:connector-curvature="0"/>
  <polygon class="logo-1" points="182.51,302.08 182.51,309.36 154.36,309.36 154.36,268.31 182.51,268.31 182.51,275.57 162.68,275.57 162.68,284.76 179.55,284.76 178.19,291.76 162.68,291.76 162.68,302.08 " id="polygon2460" style="fill:#eb0000;fill-opacity:1" transform="matrix(5.4785515,0,0,5.4785515,0.05478551,0)"/>
  <path class="logo-1" d="M 45.581548,1989.7551 H 0 v -222.977 a 758.01238,758.01238 0 0 1 86.835041,-3.6706 c 63.605979,0 85.136689,16.4356 85.136689,74.6726 0,43.8284 -11.61453,61.305 -44.43105,67.6601 l 52.92281,84.3149 H 129.12946 L 55.607297,1873.3907 h 26.790117 c 34.569656,0 43.554486,-4.6568 43.554486,-34.2957 0,-29.639 -8.98483,-36.0489 -43.554486,-36.0489 H 45.855476 v 186.8734 z" id="path2462" style="fill:#eb0000;fill-opacity:1;stroke-width:5.47855139" inkscape:connector-curvature="0"/>
  <polygon class="logo-1" points="69.71,355.92 69.71,363.19 41.56,363.19 41.56,322.14 69.71,322.14 69.71,329.4 49.88,329.4 49.88,338.59 66.75,338.59 65.39,345.59 49.88,345.59 49.88,355.92 " id="polygon2464" style="fill:#eb0000;fill-opacity:1" transform="matrix(5.4785515,0,0,5.4785515,0.05478551,0)"/>
  <polygon class="logo-1" points="87.6,363.19 79.28,363.19 79.28,326.06 87.6,321.3 " id="polygon2466" style="fill:#eb0000;fill-opacity:1" transform="matrix(5.4785515,0,0,5.4785515,0.05478551,0)"/>
  <path class="logo-1" d="m 747.87706,1989.7551 -13.31288,-144.1406 -53.96373,136.9637 h -36.43237 l -53.6898,-136.9637 -13.03895,144.1406 h -45.74591 l 21.91421,-224.8945 h 38.34986 c 9.31353,0 12.76502,2.301 16.43565,11.3406 l 54.01852,141.4562 54.01852,-141.4562 c 3.50627,-9.3135 7.23168,-11.3406 16.43565,-11.3406 h 38.34986 l 21.91421,224.8945 z" id="path2468" style="fill:#eb0000;fill-opacity:1;stroke-width:5.47855139" inkscape:connector-curvature="0"/>
  <path class="logo-1" d="m 952.99403,1812.7979 a 10.518819,10.518819 0 0 0 -10.51882,-10.5188 h -49.03304 a 10.518819,10.518819 0 0 0 -10.51881,10.5188 v 15.5043 a 14.134663,14.134663 0 0 0 10.51881,14.8469 l 62.07199,22.6264 c 23.94127,8.3822 44.48584,19.9967 44.48584,52.8133 v 27.3927 a 43.828412,43.828412 0 0 1 -43.82841,43.8284 h -73.85088 a 43.828412,43.828412 0 0 1 -43.82841,-43.8284 v -11.5049 l 43.28056,-23.6126 v 31.0086 a 10.518819,10.518819 0 0 0 10.51882,10.5188 h 52.75845 a 10.518819,10.518819 0 0 0 10.51882,-10.5188 v -15.3947 c 0,-10.5188 -5.04027,-16.4357 -15.39473,-19.668 l -57.14129,-21.5855 c -24.92741,-8.7109 -44.48584,-21.0377 -44.48584,-54.1281 v -22.3525 a 43.828412,43.828412 0 0 1 43.82841,-43.8284 h 70.07067 a 43.828412,43.828412 0 0 1 43.82841,43.8284 v 8.9848 l -43.28055,23.6126 v -28.4337 z" id="path2470" style="fill:#eb0000;fill-opacity:1;stroke-width:5.47855139" inkscape:connector-curvature="0"/>
  <polygon class="logo-1" points="33.23,268.31 65.75,268.31 64.68,272.84 51.54,272.84 51.51,309.36 46.51,309.36 46.53,272.84 33.22,272.84 " id="polygon2472" style="fill:#eb0000;fill-opacity:1" transform="matrix(5.4785515,0,0,5.4785515,0.05478551,0)"/>
  <path class="logo-1" d="m 649.7562,1509.2862 v 148.3044 h 42.95185 c 35.11751,0 47.93732,-21.9142 47.93732,-73.9605 0,-52.0462 -13.31288,-74.2891 -50.18353,-74.3439 z m 136.96379,74.3987 c 0,80.4251 -25.91355,113.7895 -94.12151,113.7347 0,0 -51.49839,0 -88.53339,-3.3419 v -220.95 c 38.84293,-3.8897 88.53339,-3.5062 88.53339,-3.5062 68.20796,0 94.01194,33.967 93.95715,114.0634" id="path2474" style="fill:#eb0000;fill-opacity:1;stroke-width:5.47855139" inkscape:connector-curvature="0"/>
  <path class="logo-1" d="m 533.17263,1694.8447 -27.39276,-71.4951 h -99.16178 l -27.39276,71.5499 h -28.81718 l 79.439,-214.2114 a 16.435654,16.435654 0 0 1 15.1208,-10.6831 h 22.46206 a 16.435654,16.435654 0 0 1 15.1208,10.9571 l 79.11029,214.1565 z m -36.54194,-96.5868 -36.65151,-101.9011 a 2.4105626,2.4105626 0 0 0 -2.2462,-1.5888 h -2.301 a 2.4105626,2.4105626 0 0 0 -2.2462,1.5888 l -36.7063,101.8463 z" id="path2476" style="fill:#eb0000;fill-opacity:1;stroke-width:5.47855139" inkscape:connector-curvature="0"/>
  <path class="logo-1" d="M 37.089793,1694.8447 A 37.144579,37.144579 0 0 1 0.05478551,1657.6454 v -11.9981 L 27.776256,1630.4717 v 29.2555 a 11.778886,11.778886 0 0 0 11.778886,11.7789 h 75.713578 a 11.778886,11.778886 0 0 0 11.77889,-11.7789 v -36.268 c 0,-9.1492 -2.35578,-13.806 -17.0383,-19.0654 l -71.604664,-23.7221 c -24.105627,-8.437 -38.0211474,-18.9558 -38.0211474,-47.9921 v -25.804 a 37.089793,37.089793 0 0 1 37.0897934,-37.035 h 75.713578 a 36.815866,36.815866 0 0 1 36.59673,37.0898 v 9.8066 l -27.39276,15.1208 v -22.736 a 16.052156,16.052156 0 0 0 -16.05216,-16.0521 H 44.047554 a 16.052156,16.052156 0 0 0 -16.052156,15.9973 v 20.8185 a 21.421136,21.421136 0 0 0 15.613872,21.9142 l 70.7281,22.8456 c 33.58352,11.8337 40.26735,26.571 40.26735,46.6225 v 36.3228 a 37.089793,37.089793 0 0 1 -37.08979,37.035 z" id="path2478" style="fill:#eb0000;fill-opacity:1;stroke-width:5.47855139" inkscape:connector-curvature="0"/>
</svg>