<?xml version="1.0" encoding="UTF-8" standalone="no"?>
<!DOCTYPE svg PUBLIC "-//W3C//DTD SVG 1.1//EN" "http://www.w3.org/Graphics/SVG/1.1/DTD/svg11.dtd">
<svg xmlns="http://www.w3.org/2000/svg" version="1.1" viewBox="0 0 200 200" width="200.0pt" height="200.0pt">
<path d="M 0.00 0.00 L 200.00 0.00 L 200.00 46.55 C 199.03 46.57 198.06 46.59 197.09 46.61 C 197.33 42.77 197.14 39.42 195.69 35.81 L 193.47 36.97 C 193.71 34.14 194.21 30.71 193.34 27.95 C 192.57 27.46 191.79 27.00 190.99 26.56 C 189.81 21.90 188.17 18.26 185.18 14.47 C 183.60 15.71 182.05 16.99 180.52 18.30 C 179.74 17.74 178.97 17.17 178.20 16.60 C 177.01 17.42 175.77 18.15 174.59 18.98 C 173.67 14.21 172.26 10.77 169.41 6.84 C 165.91 10.34 163.72 13.58 161.88 18.19 C 160.48 17.45 159.07 16.72 157.65 16.00 C 154.72 21.88 154.64 28.01 154.69 34.44 C 153.15 34.07 151.61 33.72 150.08 33.36 C 149.96 34.55 149.84 35.74 149.72 36.93 C 127.65 28.43 103.96 24.99 80.48 28.60 C 70.55 30.13 60.89 32.92 51.56 36.64 C 51.67 35.14 51.78 33.65 51.88 32.15 C 50.13 32.39 48.38 32.65 46.63 32.91 C 46.82 26.17 46.26 19.87 42.33 14.17 C 41.20 15.05 40.08 15.93 38.97 16.83 C 37.58 11.50 35.28 8.15 31.09 4.63 C 28.27 8.49 26.66 12.07 25.68 16.75 C 24.42 15.92 23.14 15.15 21.87 14.34 C 21.23 14.91 20.60 15.48 19.97 16.05 C 18.30 14.65 16.59 13.31 14.86 11.98 C 11.42 16.30 10.00 19.57 9.22 25.09 C 8.08 24.90 6.94 24.71 5.80 24.52 C 5.81 27.50 6.06 30.41 6.48 33.37 C 1.79 34.92 2.95 40.27 2.77 44.09 C 1.85 44.00 0.92 43.92 0.00 43.85 L 0.00 0.00 Z" fill="#ffffff"/>
<path d="M 31.09 4.63 C 35.28 8.15 37.58 11.50 38.97 16.83 C 40.08 15.93 41.20 15.05 42.33 14.17 C 46.26 19.87 46.82 26.17 46.63 32.91 C 48.38 32.65 50.13 32.39 51.88 32.15 C 51.78 33.65 51.67 35.14 51.56 36.64 C 60.89 32.92 70.55 30.13 80.48 28.60 C 103.96 24.99 127.65 28.43 149.72 36.93 C 149.84 35.74 149.96 34.55 150.08 33.36 C 151.61 33.72 153.15 34.07 154.69 34.44 C 154.64 28.01 154.72 21.88 157.65 16.00 C 159.07 16.72 160.48 17.45 161.88 18.19 C 163.72 13.58 165.91 10.34 169.41 6.84 C 172.26 10.77 173.67 14.21 174.59 18.98 C 175.77 18.15 177.01 17.42 178.20 16.60 C 178.97 17.17 179.74 17.74 180.52 18.30 C 182.05 16.99 183.60 15.71 185.18 14.47 C 188.17 18.26 189.81 21.90 190.99 26.56 C 191.79 27.00 192.57 27.46 193.34 27.95 C 194.21 30.71 193.71 34.14 193.47 36.97 L 195.69 35.81 C 197.14 39.42 197.33 42.77 197.09 46.61 C 198.06 46.59 199.03 46.57 200.00 46.55 L 200.00 49.95 C 199.25 53.72 198.16 56.79 196.35 60.14 C 197.14 61.90 197.95 63.65 198.75 65.40 C 195.85 69.33 193.34 73.36 192.39 78.23 C 191.48 82.25 191.88 86.18 192.38 90.23 C 190.62 92.58 188.74 94.74 186.41 96.55 C 185.60 98.13 184.79 99.70 183.97 101.27 L 186.71 101.46 C 186.88 106.30 185.25 110.49 184.09 115.09 C 179.63 115.01 175.51 114.45 171.06 115.25 C 165.39 116.31 159.94 118.93 155.24 122.23 C 154.25 123.04 152.93 123.77 152.69 125.14 C 151.58 130.47 150.80 135.82 149.17 141.04 C 153.11 139.90 156.86 138.80 161.00 138.91 C 165.51 138.89 169.15 140.52 173.33 141.89 C 174.27 136.57 175.02 131.60 177.86 126.88 C 179.58 123.88 182.05 121.75 184.64 119.54 C 184.63 118.06 184.59 116.57 184.61 115.09 L 186.08 114.93 C 186.11 116.64 186.14 118.36 186.16 120.07 C 178.61 124.91 175.86 133.05 175.95 141.70 C 174.25 142.67 172.12 143.29 171.07 144.98 C 168.84 148.17 166.82 151.51 164.77 154.82 C 165.51 157.76 165.20 160.25 164.54 163.14 C 161.36 164.03 158.38 164.73 155.61 166.62 C 153.25 168.19 151.69 170.28 149.91 172.43 C 147.45 172.28 144.98 172.13 142.52 172.01 C 148.43 176.80 154.58 180.79 162.36 181.51 C 162.08 182.77 161.80 184.03 161.52 185.29 C 159.06 185.82 156.65 186.08 154.51 187.47 C 152.45 188.80 150.83 191.05 149.35 192.96 C 143.88 193.34 138.41 193.29 132.92 193.27 C 133.32 190.18 133.92 187.04 133.94 183.92 C 133.64 182.17 132.07 180.55 131.17 179.05 C 126.16 181.51 126.45 186.83 122.19 190.23 C 118.59 193.47 114.44 193.44 109.87 192.98 C 107.64 194.11 105.75 195.36 103.12 195.25 C 98.12 195.11 93.61 195.75 89.12 193.06 C 85.12 192.97 81.48 193.26 77.92 191.09 C 74.33 188.79 73.05 184.76 71.56 181.00 C 70.20 180.26 68.83 179.54 67.46 178.81 C 66.20 180.23 64.93 181.65 63.68 183.08 C 63.95 186.33 65.26 190.12 64.68 193.32 C 59.47 194.33 54.34 193.92 49.18 192.87 C 45.59 188.33 42.08 186.26 36.59 184.56 C 36.37 183.24 36.15 181.92 35.93 180.60 C 43.88 179.48 50.36 176.82 56.48 171.60 C 53.66 171.30 50.84 171.06 48.00 170.88 C 45.96 168.64 43.97 166.24 41.28 164.74 C 39.17 163.51 36.73 162.83 34.68 161.52 C 33.65 158.97 33.08 156.81 34.60 154.31 C 31.13 149.47 29.00 143.02 23.75 140.25 C 23.27 135.42 22.83 130.89 20.49 126.54 C 18.79 123.16 16.16 120.63 13.23 118.30 C 13.19 116.89 13.16 115.49 13.11 114.09 C 14.00 113.80 14.89 113.50 15.78 113.21 C 14.93 109.16 13.62 105.09 13.25 100.97 L 15.22 99.29 C 14.57 97.78 13.92 96.28 13.25 94.78 C 10.23 92.72 6.59 89.06 7.38 85.05 C 7.99 76.71 5.90 69.60 1.42 62.64 C 2.27 61.14 3.12 59.64 3.99 58.14 C 2.33 55.63 0.93 53.11 0.35 50.12 C 0.22 49.12 0.10 48.12 0.00 47.12 L 0.00 43.85 C 0.92 43.92 1.85 44.00 2.77 44.09 C 2.95 40.27 1.79 34.92 6.48 33.37 C 6.06 30.41 5.81 27.50 5.80 24.52 C 6.94 24.71 8.08 24.90 9.22 25.09 C 10.00 19.57 11.42 16.30 14.86 11.98 C 16.59 13.31 18.30 14.65 19.97 16.05 C 20.60 15.48 21.23 14.91 21.87 14.34 C 23.14 15.15 24.42 15.92 25.68 16.75 C 26.66 12.07 28.27 8.49 31.09 4.63 Z" fill="#122840"/>
<path d="M 31.40 6.91 C 34.34 11.06 35.99 15.69 37.48 20.50 C 39.00 19.54 40.52 18.59 42.04 17.64 C 44.18 21.80 44.58 26.06 44.67 30.67 C 42.65 28.09 41.00 25.43 38.09 23.77 C 36.46 24.89 35.11 26.24 33.68 27.59 C 33.71 24.13 33.65 20.67 33.28 17.23 C 30.06 21.23 31.38 25.30 31.18 30.05 C 29.89 29.26 28.59 28.47 27.28 27.70 C 28.40 29.85 29.60 31.94 30.83 34.02 C 29.02 33.84 27.22 33.66 25.42 33.48 C 25.25 36.40 25.06 39.33 24.75 42.24 C 23.05 38.69 22.18 35.12 21.78 31.22 C 23.09 31.17 24.40 31.13 25.71 31.09 C 24.46 28.80 22.95 26.34 22.24 23.81 C 21.63 21.60 22.23 19.04 22.55 16.81 C 24.36 18.36 26.10 19.97 27.78 21.64 C 28.07 17.66 28.47 13.77 29.93 10.02 C 30.41 8.98 30.90 7.95 31.40 6.91 Z" fill="#f8c800"/>
<path d="M 169.37 9.00 C 171.59 13.27 172.90 17.73 173.80 22.45 C 175.38 21.20 176.98 19.95 178.58 18.73 C 179.92 24.16 178.11 28.14 175.64 32.80 C 176.87 32.71 178.11 32.62 179.35 32.53 C 179.12 36.76 178.30 39.96 176.56 43.79 C 175.93 41.19 176.18 36.96 174.07 35.03 C 172.49 35.06 170.92 35.16 169.36 35.32 C 170.66 33.53 171.96 31.74 173.26 29.95 C 172.29 30.52 171.32 31.10 170.36 31.68 C 170.55 27.09 170.59 22.83 168.24 18.72 C 167.89 22.44 167.91 26.15 167.95 29.88 C 166.25 28.30 164.53 26.74 162.77 25.24 C 160.09 27.82 158.09 30.86 156.15 34.01 C 156.33 28.69 156.96 23.58 158.54 18.48 C 159.93 19.35 161.33 20.22 162.72 21.10 C 164.17 17.85 165.66 14.65 167.60 11.66 C 168.18 10.76 168.77 9.88 169.37 9.00 Z" fill="#f8c800"/>
<path d="M 15.65 14.83 C 16.80 16.13 17.89 17.48 18.97 18.84 C 18.76 23.04 19.09 25.50 21.43 29.03 L 19.34 29.07 C 19.59 32.83 19.46 37.39 21.14 40.83 C 22.47 43.63 24.96 45.31 27.29 47.20 C 26.14 48.01 24.99 48.83 23.84 49.65 C 22.92 45.68 21.58 42.53 19.07 39.30 C 18.25 33.92 18.23 28.46 17.27 23.10 C 15.69 26.42 15.73 29.72 15.33 33.31 L 12.44 32.56 C 14.04 34.92 15.73 37.21 17.42 39.50 C 16.46 40.48 15.50 41.46 14.54 42.44 C 12.49 40.03 10.42 37.79 9.19 34.82 C 8.17 32.34 8.13 29.31 7.91 26.66 C 9.13 26.94 10.35 27.22 11.57 27.50 C 11.73 22.41 12.92 19.05 15.65 14.83 Z" fill="#f8c800"/>
<path d="M 185.12 16.73 C 187.58 20.71 188.54 25.06 189.05 29.66 C 190.03 29.59 191.02 29.53 192.00 29.46 C 192.09 35.87 190.45 40.03 186.83 45.18 C 185.51 44.14 184.18 43.10 182.85 42.07 C 184.45 39.87 186.00 37.64 187.49 35.36 C 186.64 35.51 185.78 35.65 184.93 35.79 C 184.72 32.91 184.50 30.04 183.90 27.21 C 183.34 30.63 183.20 34.16 182.45 37.53 C 181.36 42.25 179.01 46.57 176.90 50.89 C 175.76 50.40 174.62 49.93 173.47 49.46 C 176.86 46.67 179.30 43.42 180.27 39.06 C 180.83 36.04 182.17 32.46 179.44 30.12 C 180.77 26.89 181.31 23.90 181.44 20.40 C 182.65 19.16 183.86 17.92 185.12 16.73 Z" fill="#f8c800"/>
<path d="M 38.13 25.70 C 40.57 28.59 42.16 31.81 43.38 35.38 C 45.47 34.92 47.57 34.49 49.67 34.10 C 48.46 38.55 46.58 42.36 44.01 46.17 C 45.41 46.15 46.82 46.13 48.22 46.11 C 48.19 48.69 48.36 51.38 47.92 53.93 C 46.96 56.36 45.18 58.52 43.74 60.69 C 45.07 60.85 46.40 61.01 47.73 61.17 C 46.51 64.17 45.24 67.13 43.88 70.06 C 42.53 68.81 40.99 67.61 39.90 66.13 C 39.73 64.23 39.83 62.40 39.86 60.50 C 41.45 59.10 43.03 57.69 44.60 56.27 C 43.03 56.64 41.47 57.02 39.90 57.39 C 39.79 54.88 39.68 52.37 39.57 49.86 C 40.64 47.94 41.64 46.01 42.55 44.02 C 41.34 44.69 40.14 45.37 38.94 46.06 C 38.85 43.56 38.75 41.07 38.66 38.57 L 37.16 38.51 C 37.01 41.44 36.87 44.37 36.76 47.30 L 34.34 45.81 C 36.46 49.44 37.03 51.99 37.02 56.22 C 35.53 55.56 34.04 54.91 32.55 54.26 C 34.12 56.13 35.70 58.00 37.28 59.88 C 37.26 61.65 37.24 63.43 37.22 65.20 C 33.60 63.20 29.56 61.31 27.24 57.71 C 25.66 55.44 25.92 52.45 25.72 49.80 C 27.41 49.94 29.10 49.96 30.78 50.11 C 28.43 45.11 27.26 40.73 26.84 35.21 C 28.84 35.87 30.83 36.55 32.81 37.28 C 33.10 34.93 33.25 32.37 34.14 30.16 C 34.87 28.34 36.68 26.96 38.13 25.70 Z" fill="#f8c800"/>
<path d="M 162.90 26.70 C 164.20 28.46 165.93 30.29 166.43 32.47 C 166.91 34.68 166.85 37.04 166.94 39.30 C 169.08 38.29 171.22 37.32 173.39 36.39 C 173.93 42.27 172.96 46.58 170.48 51.85 C 171.70 51.64 172.92 51.43 174.15 51.22 C 173.81 54.63 174.00 58.86 171.47 61.50 C 169.27 63.75 166.05 65.21 163.33 66.73 C 163.43 64.99 163.56 63.25 163.68 61.51 C 165.30 59.59 166.63 57.64 167.83 55.43 C 166.38 56.38 164.92 57.33 163.49 58.33 C 163.66 53.55 164.24 50.97 166.89 47.02 C 165.91 47.69 164.94 48.37 163.97 49.04 C 163.81 45.40 163.65 41.84 162.69 38.30 C 162.27 41.38 162.18 44.47 162.16 47.57 L 158.72 45.89 C 159.72 47.56 160.74 49.23 161.78 50.88 C 161.52 53.69 161.27 56.50 161.02 59.31 C 159.79 58.60 158.56 57.89 157.32 57.20 C 158.51 58.88 159.78 60.49 161.07 62.09 C 161.05 63.95 161.03 65.81 161.01 67.66 C 159.75 68.59 158.50 69.52 157.25 70.45 C 155.95 68.01 154.66 65.57 153.50 63.07 C 154.41 62.56 155.31 62.06 156.22 61.56 C 154.77 57.78 153.08 53.21 154.22 49.15 C 154.91 48.13 155.97 47.29 156.87 46.45 C 155.57 44.21 154.34 41.95 153.38 39.54 C 152.52 38.06 151.69 36.56 150.89 35.04 C 153.22 35.87 155.47 36.81 157.70 37.91 C 158.85 33.76 160.41 30.23 162.90 26.70 Z" fill="#f8c800"/>
<path d="M 148.11 41.15 C 148.11 49.91 148.11 58.68 148.11 67.45 C 117.38 58.32 84.59 58.77 53.81 67.44 C 53.82 58.66 53.78 49.88 53.76 41.10 C 64.02 36.44 74.78 33.07 85.99 31.76 C 107.02 28.90 128.56 33.43 148.11 41.15 Z" fill="#f8c800"/>
<path d="M 5.63 35.66 C 9.13 38.66 11.77 41.99 14.13 45.93 C 15.44 44.20 16.77 42.49 18.15 40.82 C 21.08 45.18 21.97 50.01 23.01 55.04 C 24.27 56.48 25.44 57.98 26.58 59.52 C 22.99 58.88 19.45 58.04 15.90 57.19 C 16.33 54.76 16.75 52.33 17.18 49.90 C 16.25 50.78 15.33 51.65 14.40 52.53 C 12.79 50.00 11.10 47.54 9.21 45.21 C 9.62 47.40 10.07 49.57 10.54 51.75 C 9.97 52.12 9.41 52.49 8.84 52.87 C 10.02 54.01 11.21 55.16 12.38 56.31 C 10.09 56.12 7.70 56.08 5.46 55.56 C 3.12 52.98 2.51 48.79 1.69 45.52 C 2.92 45.88 4.14 46.24 5.36 46.60 C 4.92 42.86 5.07 39.38 5.63 35.66 Z" fill="#f8c800"/>
<path d="M 102.91 37.05 C 105.28 37.79 105.57 40.83 106.38 42.82 C 105.15 42.88 103.93 42.95 102.70 43.01 C 101.94 41.55 101.33 40.10 100.07 38.99 C 98.84 40.22 98.04 41.14 98.01 42.95 C 97.85 46.16 97.46 50.18 99.00 53.10 C 101.63 53.92 101.50 51.40 102.98 49.85 C 104.13 49.59 105.30 49.36 106.47 49.17 C 105.80 51.21 105.71 54.42 103.50 55.48 C 100.98 56.71 96.80 56.36 95.15 53.82 C 93.98 51.90 93.93 49.19 93.84 47.01 C 93.88 44.47 93.81 41.33 95.09 39.07 C 96.58 36.50 100.37 36.43 102.91 37.05 Z" fill="#122840"/>
<path d="M 111.75 37.85 C 114.91 37.70 118.11 38.09 121.26 38.25 C 121.23 39.20 121.19 40.15 121.16 41.10 C 119.18 41.01 117.20 40.90 115.22 40.80 C 115.14 42.40 115.05 43.99 114.96 45.58 C 116.85 45.74 118.74 45.90 120.64 46.05 C 120.53 47.00 120.42 47.94 120.31 48.88 C 118.47 48.72 116.63 48.56 114.80 48.40 C 114.62 51.15 114.44 53.89 114.26 56.64 C 112.94 56.53 111.62 56.42 110.30 56.30 C 111.01 50.17 110.94 43.96 111.75 37.85 Z" fill="#122840"/>
<path d="M 88.28 37.66 C 88.45 38.60 88.62 39.53 88.79 40.46 C 86.81 40.70 84.84 40.92 82.87 41.15 C 83.05 42.78 83.22 44.41 83.39 46.04 C 85.27 45.79 87.14 45.54 89.02 45.30 L 89.29 48.16 C 87.45 48.37 85.62 48.58 83.79 48.80 C 84.08 51.51 84.38 54.22 84.69 56.92 C 83.41 57.09 82.13 57.25 80.84 57.41 C 80.04 51.21 79.38 44.99 78.67 38.77 C 81.87 38.40 85.08 38.03 88.28 37.66 Z" fill="#122840"/>
<path d="M 194.30 38.41 C 195.05 42.03 194.88 45.42 194.24 49.05 C 195.77 48.62 197.30 48.20 198.84 47.78 C 197.71 51.94 196.20 55.16 193.73 58.68 C 191.66 58.80 189.59 58.92 187.51 59.04 C 188.63 57.79 189.76 56.56 190.90 55.34 C 190.54 54.72 190.18 54.10 189.81 53.49 C 189.92 51.68 190.02 49.88 190.10 48.07 C 188.59 50.25 187.30 52.51 186.12 54.89 C 185.13 53.97 184.15 53.06 183.15 52.16 C 183.61 54.53 184.11 56.90 184.67 59.25 C 181.04 59.65 177.46 59.94 173.98 61.07 C 174.60 59.66 175.23 58.25 175.86 56.83 L 176.04 60.11 C 176.69 59.35 177.34 58.60 177.99 57.84 C 178.16 52.37 179.18 48.63 182.08 43.98 C 183.59 45.24 185.06 46.53 186.51 47.85 C 188.64 44.28 191.06 41.05 194.30 38.41 Z" fill="#f8c800"/>
<path d="M 0.00 47.12 C 0.10 48.12 0.22 49.12 0.35 50.12 C 0.93 53.11 2.33 55.63 3.99 58.14 C 3.12 59.64 2.27 61.14 1.42 62.64 C 5.90 69.60 7.99 76.71 7.38 85.05 C 6.59 89.06 10.23 92.72 13.25 94.78 C 13.92 96.28 14.57 97.78 15.22 99.29 L 13.25 100.97 C 13.62 105.09 14.93 109.16 15.78 113.21 C 14.89 113.50 14.00 113.80 13.11 114.09 C 13.16 115.49 13.19 116.89 13.23 118.30 C 16.16 120.63 18.79 123.16 20.49 126.54 C 22.83 130.89 23.27 135.42 23.75 140.25 C 29.00 143.02 31.13 149.47 34.60 154.31 C 33.08 156.81 33.65 158.97 34.68 161.52 C 36.73 162.83 39.17 163.51 41.28 164.74 C 43.97 166.24 45.96 168.64 48.00 170.88 C 50.84 171.06 53.66 171.30 56.48 171.60 C 50.36 176.82 43.88 179.48 35.93 180.60 C 36.15 181.92 36.37 183.24 36.59 184.56 C 42.08 186.26 45.59 188.33 49.18 192.87 C 54.34 193.92 59.47 194.33 64.68 193.32 C 65.26 190.12 63.95 186.33 63.68 183.08 C 64.93 181.65 66.20 180.23 67.46 178.81 C 68.83 179.54 70.20 180.26 71.56 181.00 C 73.05 184.76 74.33 188.79 77.92 191.09 C 81.48 193.26 85.12 192.97 89.12 193.06 C 93.61 195.75 98.12 195.11 103.12 195.25 C 105.75 195.36 107.64 194.11 109.87 192.98 C 114.44 193.44 118.59 193.47 122.19 190.23 C 126.45 186.83 126.16 181.51 131.17 179.05 C 132.07 180.55 133.64 182.17 133.94 183.92 C 133.92 187.04 133.32 190.18 132.92 193.27 C 138.41 193.29 143.88 193.34 149.35 192.96 C 150.83 191.05 152.45 188.80 154.51 187.47 C 156.65 186.08 159.06 185.82 161.52 185.29 C 161.80 184.03 162.08 182.77 162.36 181.51 C 154.58 180.79 148.43 176.80 142.52 172.01 C 144.98 172.13 147.45 172.28 149.91 172.43 C 151.69 170.28 153.25 168.19 155.61 166.62 C 158.38 164.73 161.36 164.03 164.54 163.14 C 165.20 160.25 165.51 157.76 164.77 154.82 C 166.82 151.51 168.84 148.17 171.07 144.98 C 172.12 143.29 174.25 142.67 175.95 141.70 C 175.86 133.05 178.61 124.91 186.16 120.07 C 186.14 118.36 186.11 116.64 186.08 114.93 L 184.61 115.09 L 184.09 115.09 C 185.25 110.49 186.88 106.30 186.71 101.46 L 183.97 101.27 C 184.79 99.70 185.60 98.13 186.41 96.55 C 188.74 94.74 190.62 92.58 192.38 90.23 C 191.88 86.18 191.48 82.25 192.39 78.23 C 193.34 73.36 195.85 69.33 198.75 65.40 C 197.95 63.65 197.14 61.90 196.35 60.14 C 198.16 56.79 199.25 53.72 200.00 49.95 L 200.00 200.00 L 0.00 200.00 L 0.00 47.12 Z" fill="#ffffff"/>
<path d="M 6.24 59.75 C 10.53 58.92 15.23 59.52 19.50 60.30 C 30.77 62.66 39.96 68.93 48.10 76.83 C 48.06 81.73 48.06 86.62 48.09 91.51 C 42.18 87.60 36.28 84.39 29.03 83.99 C 24.00 83.77 18.20 83.91 13.89 86.85 C 19.08 86.40 23.72 85.08 29.01 85.81 C 36.29 86.60 42.51 90.08 48.00 94.76 C 47.94 96.82 47.89 98.88 47.85 100.94 C 43.08 95.52 38.29 90.77 31.01 89.04 C 24.85 87.48 19.11 88.93 13.36 91.17 C 10.38 87.30 11.68 83.50 10.89 78.98 C 10.20 73.09 7.65 67.83 4.09 63.15 C 4.78 61.99 5.44 60.84 6.24 59.75 Z" fill="#f8c800"/>
<path d="M 194.58 61.10 C 195.24 62.55 195.92 63.98 196.58 65.42 C 194.79 67.80 193.05 70.08 191.88 72.85 C 189.44 78.55 189.18 84.66 189.11 90.76 C 188.30 91.64 187.49 92.52 186.68 93.40 C 182.57 91.48 178.65 89.85 173.99 90.30 C 165.66 91.03 159.27 96.03 153.25 101.37 C 153.32 99.12 153.39 96.87 153.45 94.62 C 158.31 91.57 163.28 89.01 169.03 88.13 C 174.80 87.12 180.08 88.18 185.80 88.52 C 180.53 85.41 173.87 85.03 167.96 86.07 C 162.39 87.08 157.83 89.72 153.11 92.66 C 153.20 87.42 153.19 82.17 153.12 76.93 C 157.86 72.49 162.84 68.51 168.76 65.75 C 176.92 61.80 185.62 60.91 194.58 61.10 Z" fill="#f8c800"/>
<path d="M 7.30 62.98 C 8.38 62.94 9.47 62.94 10.56 62.99 C 12.99 67.68 14.06 72.33 13.28 77.64 C 10.89 72.95 9.31 67.85 7.30 62.98 Z" fill="#122840"/>
<path d="M 101.19 62.49 C 116.92 62.86 133.20 64.55 148.17 69.63 C 148.17 88.10 147.83 106.56 147.84 125.03 C 147.93 136.01 142.55 146.27 134.60 153.62 C 125.46 162.11 113.55 166.58 101.19 167.35 C 101.24 132.40 101.23 97.45 101.19 62.49 Z" fill="#ffffff"/>
<path d="M 12.37 63.56 C 13.63 63.45 14.89 63.35 16.15 63.24 C 17.38 67.14 18.16 70.88 17.87 75.01 C 15.97 72.36 14.87 69.40 13.61 66.43 C 13.20 65.47 12.78 64.51 12.37 63.56 Z" fill="#122840"/>
<path d="M 19.54 64.48 C 20.46 64.46 21.38 64.49 22.31 64.55 C 22.94 67.34 23.29 70.17 23.17 73.04 C 20.43 72.08 20.18 66.96 19.54 64.48 Z" fill="#122840"/>
<path d="M 187.36 64.45 C 185.99 68.58 184.63 73.08 182.20 76.72 C 182.34 72.30 182.28 66.17 187.36 64.45 Z" fill="#122840"/>
<path d="M 193.06 64.69 C 190.80 69.50 189.24 75.01 186.04 79.27 C 186.64 74.92 187.56 70.39 189.48 66.41 C 189.94 65.14 191.96 65.19 193.06 64.69 Z" fill="#122840"/>
<path d="M 25.24 65.76 C 28.64 66.86 27.81 68.88 28.18 71.88 C 26.45 69.92 25.62 68.36 25.24 65.76 Z" fill="#122840"/>
<path d="M 178.33 66.85 C 179.16 66.58 180.01 66.34 180.86 66.12 C 179.84 69.28 178.70 72.37 176.99 75.23 C 177.12 72.53 177.13 69.32 178.33 66.85 Z" fill="#122840"/>
<path d="M 175.38 67.23 C 174.73 69.73 174.11 71.86 172.08 73.59 C 172.21 72.03 172.20 70.29 172.71 68.79 C 173.57 68.23 174.47 67.71 175.38 67.23 Z" fill="#122840"/>
<path d="M 34.32 69.05 C 34.22 71.13 33.96 73.01 33.09 74.93 C 32.68 72.06 31.36 70.97 34.32 69.05 Z" fill="#122840"/>
<path d="M 167.91 70.65 C 167.91 72.06 167.94 73.57 167.71 74.97 C 167.02 75.20 166.31 75.41 165.60 75.59 C 166.01 73.52 166.29 72.09 167.91 70.65 Z" fill="#122840"/>
<path d="M 31.35 92.57 C 30.99 97.01 30.47 101.40 29.61 105.76 C 31.11 105.20 32.62 104.63 34.12 104.07 C 32.59 106.88 31.03 109.69 29.45 112.48 C 25.50 112.24 21.35 112.52 17.49 111.68 C 16.10 108.43 15.91 105.10 15.51 101.64 C 17.47 102.17 19.42 102.72 21.36 103.29 C 20.89 104.48 20.40 105.67 19.90 106.86 C 21.07 108.05 22.22 109.27 23.35 110.50 C 23.82 109.19 24.44 107.93 24.88 106.60 C 24.25 104.19 23.87 101.74 23.52 99.27 C 24.74 98.16 25.95 97.04 27.16 95.92 C 25.69 96.41 24.23 96.92 22.76 97.42 C 22.03 96.09 21.29 94.77 20.54 93.45 C 20.23 96.02 19.99 98.60 19.70 101.17 C 17.85 98.57 16.39 95.92 15.52 92.83 C 21.11 89.87 25.64 90.16 31.35 92.57 Z" fill="#f8c800"/>
<path d="M 185.93 94.84 C 184.48 97.82 182.90 100.67 181.12 103.46 C 182.56 103.19 184.01 102.93 185.46 102.68 C 184.81 106.54 183.85 110.21 182.57 113.91 C 178.64 113.79 174.71 113.64 170.77 113.59 C 168.69 110.86 167.38 108.37 166.40 105.06 C 167.88 105.55 169.35 106.05 170.82 106.56 C 169.92 102.32 169.29 98.05 169.14 93.71 C 175.30 91.48 180.13 91.98 185.93 94.84 Z" fill="#f8c800"/>
<path d="M 34.19 93.35 C 35.73 94.23 37.41 95.15 38.68 96.39 C 39.02 99.36 38.58 102.46 38.40 105.44 C 37.72 105.63 37.03 105.82 36.34 106.01 C 36.41 104.65 36.47 103.29 36.54 101.93 C 35.36 101.83 34.18 101.72 33.00 101.61 C 33.38 98.86 33.71 96.09 34.19 93.35 Z" fill="#f8c800"/>
<path d="M 166.55 94.60 C 166.76 97.36 166.81 100.13 167.02 102.89 C 164.22 103.72 164.42 104.44 163.39 106.97 L 162.34 106.82 C 162.34 103.49 162.17 100.21 161.76 96.91 C 163.34 96.11 164.92 95.30 166.55 94.60 Z" fill="#f8c800"/>
<path d="M 180.20 96.17 C 180.16 100.23 178.76 104.63 179.78 108.53 C 179.34 108.80 178.90 109.07 178.47 109.34 C 177.67 110.28 176.86 111.21 176.04 112.14 C 175.60 110.95 175.16 109.77 174.72 108.59 C 176.00 106.22 176.37 103.66 176.81 101.04 C 175.46 99.96 174.14 98.84 172.82 97.72 C 174.38 98.08 175.92 98.46 177.47 98.86 C 178.38 97.96 179.29 97.06 180.20 96.17 Z" fill="#122840"/>
<path d="M 40.94 97.57 C 43.11 100.20 45.63 102.68 47.45 105.57 C 48.23 107.96 47.72 110.96 47.57 113.44 C 46.13 110.49 45.62 107.39 45.06 104.19 C 43.73 105.10 42.39 105.97 41.00 106.80 C 40.93 103.72 40.93 100.64 40.94 97.57 Z" fill="#f8c800"/>
<path d="M 160.05 97.97 C 159.92 102.33 160.94 105.86 157.52 109.23 L 156.10 104.97 C 155.34 108.37 154.66 111.74 153.41 115.00 C 153.16 111.73 153.17 108.46 153.13 105.19 C 155.21 102.50 157.42 100.14 160.05 97.97 Z" fill="#f8c800"/>
<path d="M 35.50 107.94 C 36.28 110.32 37.14 112.65 38.07 114.97 C 36.23 114.32 34.37 113.69 32.52 113.05 C 33.52 111.36 34.52 109.65 35.50 107.94 Z" fill="#f8c800"/>
<path d="M 38.97 107.72 C 40.43 108.05 41.93 107.78 42.74 109.29 C 44.08 111.88 44.66 114.87 45.71 117.60 C 46.49 116.55 47.27 115.50 48.05 114.45 C 47.93 116.38 47.81 118.31 47.68 120.23 C 45.61 118.84 43.11 117.41 41.65 115.35 C 40.10 113.19 39.43 110.30 38.97 107.72 Z" fill="#f8c800"/>
<path d="M 164.41 108.08 C 166.02 110.03 167.47 112.13 168.98 114.17 C 166.67 114.77 164.39 115.43 162.12 116.15 C 162.89 113.46 163.56 110.74 164.41 108.08 Z" fill="#f8c800"/>
<path d="M 158.36 109.23 C 159.68 108.81 161.02 108.46 162.37 108.16 C 161.57 111.15 160.87 114.47 158.98 117.00 C 157.35 119.22 154.97 120.47 152.71 121.95 C 152.75 119.88 152.81 117.81 152.88 115.74 C 153.54 116.47 154.20 117.19 154.86 117.92 C 155.92 115.03 156.76 111.86 158.36 109.23 Z" fill="#f8c800"/>
<path d="M 15.71 114.01 C 21.27 113.73 26.54 113.47 31.98 114.96 C 38.27 116.61 43.60 120.23 48.07 124.88 C 48.16 128.76 48.75 131.85 50.17 135.45 C 42.86 131.78 34.01 132.07 27.22 136.76 C 30.90 135.97 34.20 134.74 38.00 134.55 C 42.56 134.32 46.61 135.59 50.87 137.01 C 51.27 137.99 51.67 138.98 52.08 139.96 C 48.08 138.63 44.29 137.43 40.00 137.48 C 35.40 137.60 31.32 139.23 26.85 140.29 C 26.23 135.79 25.70 131.51 23.59 127.41 C 21.73 123.55 18.89 120.60 15.81 117.69 C 15.77 116.47 15.74 115.24 15.71 114.01 Z" fill="#f8c800"/>
<path d="M 171.06 115.25 C 175.51 114.45 179.63 115.01 184.09 115.09 L 184.61 115.09 C 184.59 116.57 184.63 118.06 184.64 119.54 C 182.05 121.75 179.58 123.88 177.86 126.88 C 175.02 131.60 174.27 136.57 173.33 141.89 C 169.15 140.52 165.51 138.89 161.00 138.91 C 156.86 138.80 153.11 139.90 149.17 141.04 C 150.80 135.82 151.58 130.47 152.69 125.14 C 152.93 123.77 154.25 123.04 155.24 122.23 C 159.94 118.93 165.39 116.31 171.06 115.25 Z" fill="#f8c800"/>
<path d="M 20.15 118.47 C 20.97 118.19 21.79 117.91 22.61 117.65 C 25.50 121.56 28.19 125.18 28.38 130.25 C 25.51 126.43 22.85 122.42 20.15 118.47 Z" fill="#122840"/>
<path d="M 26.20 118.51 C 26.97 118.45 27.74 118.41 28.52 118.39 C 30.51 121.37 31.74 124.32 32.25 127.89 C 29.84 125.06 27.88 121.82 26.20 118.51 Z" fill="#122840"/>
<path d="M 32.06 119.67 C 33.15 119.61 34.22 119.58 35.29 119.59 C 36.47 122.24 37.43 124.59 36.39 127.51 C 34.74 125.00 33.22 122.45 32.06 119.67 Z" fill="#122840"/>
<path d="M 180.37 118.79 C 177.43 122.78 174.85 127.07 171.71 130.91 C 172.65 127.24 174.13 123.43 176.41 120.37 C 177.16 119.20 179.16 119.24 180.37 118.79 Z" fill="#122840"/>
<path d="M 168.28 119.77 C 167.01 123.02 165.84 126.12 163.32 128.64 C 163.56 126.27 163.73 123.26 165.22 121.29 C 166.20 120.71 167.22 120.21 168.28 119.77 Z" fill="#122840"/>
<path d="M 174.08 119.35 C 172.22 122.55 170.29 125.86 167.94 128.73 C 169.17 124.90 169.31 120.26 174.08 119.35 Z" fill="#122840"/>
<path d="M 41.40 121.68 C 41.60 123.36 41.70 125.05 41.78 126.74 C 39.74 125.37 39.02 123.91 38.28 121.67 C 39.32 121.65 40.36 121.65 41.40 121.68 Z" fill="#122840"/>
<path d="M 162.01 121.28 C 161.21 123.35 160.29 125.08 158.74 126.69 C 159.34 123.98 159.41 122.66 162.01 121.28 Z" fill="#122840"/>
<path d="M 172.73 137.65 C 169.19 138.18 166.44 136.63 163.01 136.18 C 159.25 135.70 155.27 136.39 151.48 136.39 C 158.27 132.39 166.37 133.25 172.73 137.65 Z" fill="#122840"/>
<path d="M 36.84 140.07 C 38.50 140.06 40.15 140.06 41.81 140.04 C 43.89 142.29 45.97 144.55 48.03 146.80 C 47.68 147.49 47.33 148.18 46.98 148.87 C 48.13 149.88 49.27 150.89 50.42 151.90 C 48.21 151.93 46.00 151.95 43.79 151.98 C 43.78 150.01 43.76 148.03 43.75 146.05 C 42.90 145.97 42.04 145.88 41.19 145.79 C 39.80 143.84 38.33 141.95 36.84 140.07 Z" fill="#f8c800"/>
<path d="M 34.16 140.37 C 36.48 142.67 38.45 144.95 39.61 148.07 C 40.36 148.08 41.11 148.08 41.86 148.09 C 41.85 149.56 41.85 151.03 41.84 152.50 C 41.04 152.63 40.25 152.75 39.46 152.88 C 37.62 149.79 35.94 146.75 33.11 144.43 C 34.48 147.84 36.59 150.80 38.12 154.13 C 34.13 151.15 32.01 146.49 29.60 142.27 C 31.12 141.63 32.64 140.99 34.16 140.37 Z" fill="#f8c800"/>
<path d="M 45.28 140.84 C 46.39 141.09 47.49 141.36 48.59 141.63 C 51.04 142.52 53.22 143.85 55.42 145.23 C 54.49 145.56 53.56 145.90 52.64 146.23 L 54.29 147.48 C 53.89 147.99 53.48 148.50 53.08 149.01 C 54.81 150.11 56.52 151.22 58.22 152.37 C 54.40 152.25 52.04 150.90 49.04 148.82 C 49.46 148.00 49.88 147.19 50.30 146.37 C 48.60 144.56 46.91 142.73 45.28 140.84 Z" fill="#f8c800"/>
<path d="M 157.32 141.26 C 159.33 140.80 161.45 140.73 163.50 140.52 C 161.86 142.52 160.26 144.54 158.71 146.61 C 157.56 146.83 156.43 147.09 155.30 147.39 C 155.13 149.16 155.20 150.98 155.18 152.76 C 153.16 152.66 151.14 152.56 149.11 152.46 C 150.01 151.54 150.91 150.61 151.82 149.70 C 151.88 148.87 151.95 148.05 152.03 147.23 C 153.80 145.26 155.39 143.08 157.32 141.26 Z" fill="#f8c800"/>
<path d="M 154.68 141.60 C 152.11 144.15 149.56 146.14 148.75 149.88 C 147.74 150.86 146.72 151.82 145.70 152.79 C 144.34 152.71 142.98 152.63 141.62 152.54 C 143.65 150.96 145.74 149.46 147.77 147.89 C 147.17 147.23 146.57 146.58 145.97 145.92 C 147.66 144.56 149.37 143.26 151.32 142.29 C 152.43 142.05 153.55 141.82 154.68 141.60 Z" fill="#f8c800"/>
<path d="M 165.17 141.17 C 166.92 141.94 168.60 142.83 170.27 143.75 C 167.54 147.65 165.41 153.14 161.32 155.70 C 162.52 152.26 164.47 149.28 166.08 146.04 C 163.76 148.66 161.84 151.54 159.91 154.44 C 158.97 153.98 158.03 153.53 157.09 153.07 C 157.09 151.72 157.10 150.38 157.09 149.04 C 157.86 149.13 158.63 149.22 159.40 149.30 C 160.93 146.27 162.72 143.54 165.17 141.17 Z" fill="#f8c800"/>
<path d="M 61.84 155.23 C 65.62 156.99 68.86 159.99 72.39 162.21 C 70.49 162.32 68.59 162.45 66.70 162.59 C 66.23 161.74 65.77 160.88 65.31 160.02 C 59.71 160.98 55.36 162.54 50.65 165.77 C 51.36 166.11 52.07 166.46 52.77 166.80 C 56.65 164.22 60.51 162.04 65.31 161.79 C 63.64 163.05 61.46 163.59 59.53 164.55 C 57.25 165.57 55.72 167.23 53.95 168.92 C 52.79 168.92 51.63 168.91 50.47 168.90 C 46.48 165.13 42.02 162.89 36.84 161.20 C 36.46 159.78 36.08 158.36 35.70 156.94 C 43.84 152.78 53.20 152.75 61.84 155.23 Z" fill="#f8c800"/>
<path d="M 162.99 157.35 C 162.80 158.94 162.52 160.51 162.33 162.10 C 160.21 163.02 158.04 163.93 156.03 165.05 C 152.52 166.96 149.94 169.59 145.81 170.22 C 143.94 168.29 142.29 166.40 139.84 165.19 C 136.70 163.62 133.39 163.26 129.97 162.71 C 133.49 160.36 136.55 157.33 140.11 155.09 C 147.66 153.07 155.94 153.93 162.99 157.35 Z" fill="#f8c800"/>
<path d="M 44.92 156.26 C 48.02 156.08 48.87 158.53 50.60 160.56 C 48.20 159.60 46.29 158.52 44.92 156.26 Z" fill="#122840"/>
<path d="M 50.14 155.59 C 51.75 156.07 53.32 156.62 54.90 157.18 C 54.20 157.72 53.51 158.25 52.81 158.79 C 51.90 157.74 51.01 156.67 50.14 155.59 Z" fill="#122840"/>
<path d="M 147.03 156.55 C 147.97 156.65 148.90 156.79 149.83 156.98 C 148.14 157.85 146.45 158.69 144.69 159.39 C 145.44 158.44 146.15 157.39 147.03 156.55 Z" fill="#122840"/>
<path d="M 143.48 156.83 C 144.09 158.30 142.27 159.02 141.09 158.94 C 141.17 157.83 142.16 155.95 143.48 156.83 Z" fill="#122840"/>
<path d="M 155.19 157.29 C 153.34 159.09 151.44 160.43 149.06 161.48 C 150.90 158.87 151.99 157.79 155.19 157.29 Z" fill="#122840"/>
<path d="M 38.94 158.33 C 40.22 158.21 41.50 158.12 42.79 158.04 C 44.85 159.40 46.79 160.91 48.62 162.56 C 45.21 161.58 42.01 160.12 38.94 158.33 Z" fill="#122840"/>
<path d="M 156.17 158.98 C 157.37 159.20 158.56 159.42 159.76 159.65 C 157.11 161.14 154.40 162.35 151.48 163.23 C 152.97 161.73 154.57 160.35 156.17 158.98 Z" fill="#122840"/>
<path d="M 133.48 160.92 C 139.23 161.39 144.74 162.96 149.28 166.65 C 146.56 167.01 144.93 165.44 142.63 164.37 C 139.74 162.91 136.50 162.17 133.48 160.92 Z" fill="#122840"/>
<path d="M 65.98 165.46 C 69.17 165.10 71.48 166.66 74.15 168.07 C 73.82 169.07 73.50 170.07 73.17 171.07 C 75.22 171.45 77.27 171.84 79.33 172.18 C 81.54 175.61 84.45 174.53 87.98 175.05 C 85.51 178.78 83.52 180.75 79.26 182.34 C 78.83 181.41 78.40 180.49 77.97 179.56 C 76.97 179.90 75.96 180.21 74.93 180.49 C 72.24 178.97 70.51 175.58 68.58 173.25 L 68.11 176.72 C 63.72 174.92 60.09 172.72 56.39 169.74 C 59.46 167.74 62.21 165.83 65.98 165.46 Z" fill="#f8c800"/>
<path d="M 72.53 165.58 C 78.14 165.81 83.40 167.34 88.70 169.07 C 88.58 170.60 88.46 172.14 88.34 173.67 C 86.68 173.40 85.02 173.09 83.36 172.81 C 82.92 172.16 82.48 171.51 82.05 170.85 C 80.20 170.58 78.36 170.28 76.52 169.99 C 76.71 169.15 76.88 168.32 77.04 167.48 C 75.53 166.87 74.02 166.24 72.53 165.58 Z" fill="#f8c800"/>
<path d="M 128.96 165.58 C 126.87 166.51 124.73 167.32 122.57 168.07 C 122.74 168.94 122.92 169.81 123.11 170.67 C 121.51 170.73 119.93 170.99 118.33 171.08 C 117.14 173.14 115.28 174.08 113.36 175.34 C 116.30 174.98 118.50 174.45 120.85 172.61 C 122.59 172.05 124.33 171.51 126.07 170.94 C 127.32 168.80 128.91 166.97 130.61 165.18 C 132.65 165.49 134.79 165.71 136.77 166.30 C 139.32 167.10 141.46 169.23 143.47 170.92 C 139.62 173.45 135.69 175.61 131.52 177.56 L 130.97 173.58 C 130.19 175.35 129.45 177.12 128.71 178.90 C 127.10 179.68 125.49 180.45 123.87 181.22 C 123.23 180.35 122.59 179.48 121.95 178.61 C 121.45 179.90 120.96 181.18 120.46 182.47 C 118.18 181.26 115.53 180.17 113.96 178.05 C 112.10 175.63 111.55 172.53 110.85 169.64 C 116.94 168.54 122.85 164.73 128.96 165.58 Z" fill="#f8c800"/>
<path d="M 66.59 167.77 C 69.93 168.70 71.60 171.31 74.03 173.60 C 78.51 173.30 80.23 176.05 82.44 179.34 C 80.33 178.68 78.35 177.82 76.38 176.83 C 75.59 177.19 74.81 177.55 74.02 177.91 C 71.91 175.42 69.87 172.87 67.76 170.38 C 66.93 171.20 66.11 172.03 65.28 172.86 C 63.07 171.76 60.87 170.63 58.72 169.41 C 60.47 169.46 62.22 169.54 63.97 169.53 C 64.84 168.95 65.72 168.36 66.59 167.77 Z" fill="#122840"/>
<path d="M 131.55 168.69 C 134.52 170.15 137.54 169.97 140.76 170.13 C 138.67 171.01 136.28 172.35 133.99 172.42 C 132.83 172.02 131.75 171.35 130.66 170.81 C 128.51 172.78 126.55 174.93 124.65 177.13 C 124.02 177.04 123.40 176.96 122.77 176.87 C 120.84 177.90 118.90 178.80 116.82 179.51 C 119.17 176.68 121.13 174.15 125.05 173.67 C 127.11 171.87 129.21 170.14 131.55 168.69 Z" fill="#122840"/>
<path d="M 91.15 169.35 C 97.33 170.39 103.07 170.42 109.27 169.64 C 109.99 173.88 110.50 178.12 113.67 181.34 C 116.02 183.78 119.35 184.32 122.45 185.30 C 121.30 187.10 120.43 189.50 118.25 190.25 C 116.17 191.01 113.66 191.32 111.50 190.75 C 107.66 186.33 105.46 179.84 102.78 174.68 C 102.92 180.99 105.30 186.49 107.97 192.08 C 105.86 192.39 103.76 192.66 101.64 192.86 C 101.06 192.19 100.49 191.52 99.92 190.85 C 98.64 191.57 97.35 192.41 95.96 192.88 C 94.10 192.96 92.16 192.10 90.40 191.56 C 93.20 186.29 95.83 181.10 96.96 175.18 C 93.40 179.78 91.43 187.00 86.92 190.81 C 84.52 191.01 81.69 190.72 79.64 189.35 C 78.20 188.25 77.29 186.34 76.32 184.84 C 79.27 184.09 82.33 183.74 84.77 181.79 C 87.88 179.35 89.29 175.96 90.37 172.27 C 90.64 171.30 90.90 170.32 91.15 169.35 Z" fill="#f8c800"/>
<path d="M 57.21 173.24 C 60.31 174.55 63.12 176.63 65.98 178.37 C 61.61 184.21 57.00 187.43 50.23 190.05 C 47.06 186.20 43.50 184.46 38.84 182.90 C 43.11 180.85 47.29 179.56 51.15 177.15 C 53.21 175.92 55.10 174.35 57.21 173.24 Z" fill="#f8c800"/>
<path d="M 142.25 173.56 C 147.40 178.35 153.20 181.33 159.82 183.54 C 155.37 185.38 152.03 187.50 148.52 190.78 C 141.58 187.94 137.39 184.74 132.92 178.73 C 135.28 177.52 137.64 176.31 139.92 174.95 C 140.70 174.49 141.47 174.03 142.25 173.56 Z" fill="#f8c800"/>
<path d="M 145.31 178.98 C 145.98 178.73 146.36 178.89 146.43 179.47 C 146.35 180.82 144.37 182.77 143.00 182.71 C 142.92 181.29 144.15 179.70 145.31 178.98 Z" fill="#122840"/>
<path d="M 51.42 180.34 C 52.29 181.48 53.17 182.62 54.05 183.77 L 52.53 184.90 C 51.60 183.73 50.67 182.57 49.78 181.37 C 50.32 181.02 50.87 180.68 51.42 180.34 Z" fill="#122840"/>
<path d="M 149.35 180.65 C 148.16 183.29 147.24 184.37 144.55 185.56 C 145.78 183.24 146.89 181.73 149.35 180.65 Z" fill="#122840"/>
<path d="M 51.48 187.82 C 49.14 186.32 47.18 184.54 45.36 182.44 C 48.68 181.15 50.14 185.74 51.48 187.82 Z" fill="#122840"/>
<path d="M 153.81 182.55 C 152.10 184.63 150.23 186.44 148.03 187.97 C 149.46 185.17 150.26 183.03 153.81 182.55 Z" fill="#122840"/>
<path d="M 61.95 185.62 L 62.16 185.46 C 62.19 187.48 62.22 189.50 62.26 191.52 C 59.23 191.53 56.20 191.57 53.17 191.67 C 56.30 189.89 59.18 187.93 61.95 185.62 Z" fill="#f8c800"/>
<path d="M 135.97 185.30 C 138.92 187.90 141.95 190.20 145.27 192.32 C 141.95 192.10 138.63 191.91 135.30 191.77 C 135.53 189.61 135.75 187.46 135.97 185.30 Z" fill="#f8c800"/>
</svg>