<?xml version="1.0" encoding="UTF-8" standalone="no"?>
<svg xmlns:dc="http://purl.org/dc/elements/1.1/" xmlns:cc="http://creativecommons.org/ns#" xmlns:rdf="http://www.w3.org/1999/02/22-rdf-syntax-ns#" xmlns:svg="http://www.w3.org/2000/svg" xmlns="http://www.w3.org/2000/svg" xmlns:sodipodi="http://sodipodi.sourceforge.net/DTD/sodipodi-0.dtd" xmlns:inkscape="http://www.inkscape.org/namespaces/inkscape" inkscape:version="1.0 (4035a4f, 2020-05-01)" sodipodi:docname="559.svg" id="svg22516" height="200.0pt" width="200.0pt" viewBox="0 0 200 200" version="1.1">
  <metadata id="metadata22522">
    <rdf:RDF>
      <cc:Work rdf:about="">
        <dc:format>image/svg+xml</dc:format>
        <dc:type rdf:resource="http://purl.org/dc/dcmitype/StillImage"/>
      </cc:Work>
    </rdf:RDF>
  </metadata>
  <defs id="defs22520"/>
  <sodipodi:namedview inkscape:current-layer="svg22516" inkscape:cy="133.33333" inkscape:cx="133.33333" inkscape:zoom="1.75125" showgrid="false" id="namedview22518" inkscape:window-height="480" inkscape:window-width="640" inkscape:pageshadow="2" inkscape:pageopacity="0" guidetolerance="10" gridtolerance="10" objecttolerance="10" borderopacity="1" bordercolor="#666666" pagecolor="#ffffff"/>
  <path style="fill:#ffffff;fill-opacity:0.0242915" id="path22360" fill="#ffffff" d="M 0.00 0.00 L 100.01 0.00 C 88.43 10.97 71.84 16.60 56.00 15.98 C 42.40 15.86 28.93 11.53 18.65 2.43 C 17.51 11.83 18.11 21.49 17.97 31.00 C 18.75 47.19 20.93 63.27 24.94 79.00 C 34.32 116.26 53.34 150.58 78.46 179.51 C 84.75 187.06 91.90 193.93 99.63 200.00 L 0.00 200.00 L 0.00 0.00 Z"/>
  <path id="path22362" fill="#35200d" d="M 100.01 0.00 L 100.02 0.00 C 111.54 10.98 128.20 16.60 144.00 15.98 C 157.61 15.86 171.07 11.52 181.36 2.43 C 182.48 11.83 181.89 21.49 182.03 31.00 C 181.30 45.53 179.55 59.95 176.22 74.14 C 167.41 112.95 147.95 148.98 121.99 178.99 C 115.57 186.74 108.29 193.79 100.37 200.00 L 99.63 200.00 C 91.90 193.93 84.75 187.06 78.46 179.51 C 53.34 150.58 34.32 116.26 24.94 79.00 C 20.93 63.27 18.75 47.19 17.97 31.00 C 18.11 21.49 17.51 11.83 18.65 2.43 C 28.93 11.53 42.40 15.86 56.00 15.98 C 71.84 16.60 88.43 10.97 100.01 0.00 Z"/>
  <path style="fill:#ffffff;fill-opacity:0" id="path22364" fill="#ffffff" d="M 100.02 0.00 L 200.00 0.00 L 200.00 200.00 L 100.37 200.00 C 108.29 193.79 115.57 186.74 121.99 178.99 C 147.95 148.98 167.41 112.95 176.22 74.14 C 179.55 59.95 181.30 45.53 182.03 31.00 C 181.89 21.49 182.48 11.83 181.36 2.43 C 171.07 11.52 157.61 15.86 144.00 15.98 C 128.20 16.60 111.54 10.98 100.02 0.00 Z"/>
  <path id="path22366" fill="#b1722b" d="M 100.00 2.56 C 100.67 3.04 101.33 3.53 101.99 4.02 C 123.54 21.46 157.69 22.65 179.96 5.91 C 181.29 29.16 179.72 52.44 174.25 75.10 C 165.41 112.59 146.99 146.85 122.17 176.15 C 115.50 184.18 108.24 191.64 100.00 198.07 C 91.96 191.78 84.82 184.53 78.29 176.70 C 57.01 151.68 40.34 123.07 30.36 91.71 C 21.43 64.02 18.29 34.91 20.04 5.92 C 35.04 17.27 54.94 20.03 73.02 16.04 C 83.05 13.81 92.05 9.00 100.00 2.56 Z"/>
  <path id="path22368" fill="#ea2626" d="M 100.00 7.52 C 106.49 12.04 113.23 15.96 120.85 18.26 C 134.02 22.48 148.65 22.49 161.97 18.95 C 167.14 17.65 171.70 15.19 176.51 13.02 C 176.73 21.44 176.82 29.94 175.97 38.33 C 173.45 36.78 171.15 34.93 168.69 33.30 C 157.79 26.43 144.84 23.25 132.00 23.90 C 120.58 24.37 109.75 28.10 100.00 33.96 C 91.13 28.62 81.36 25.06 71.01 24.11 C 57.20 22.80 43.08 25.88 31.31 33.30 C 28.85 34.93 26.55 36.78 24.03 38.32 C 23.18 29.94 23.27 21.44 23.48 13.02 C 27.36 14.69 30.96 16.76 35.02 18.02 C 46.09 21.67 58.22 22.34 69.70 20.55 C 80.81 18.79 90.92 14.06 100.00 7.52 Z"/>
  <path id="path22370" fill="#ffffff" d="M 58.00 27.09 C 72.15 25.50 86.49 29.02 98.55 36.50 C 98.57 47.25 98.53 57.99 98.57 68.73 C 97.33 68.79 96.10 68.85 94.86 68.91 C 94.82 67.56 94.77 66.22 94.73 64.87 L 93.75 64.78 C 93.38 66.63 94.46 69.53 92.18 70.28 C 92.34 66.75 93.54 63.55 94.37 60.17 C 94.13 55.24 92.67 51.13 90.26 46.88 C 90.40 45.16 90.54 43.44 90.71 41.72 C 91.06 40.60 91.04 39.62 90.64 38.79 C 89.97 38.20 89.24 37.71 88.49 37.25 C 86.22 40.79 84.70 46.89 84.91 51.10 C 82.65 54.22 80.50 57.37 78.76 60.81 C 79.46 61.10 80.16 61.38 80.87 61.65 C 79.15 61.55 77.43 61.51 75.70 61.46 C 76.85 65.70 75.24 69.09 74.42 73.16 C 74.21 69.69 74.22 66.20 73.94 62.73 L 73.92 62.18 C 73.89 59.83 74.88 57.99 75.65 55.87 C 75.62 53.70 72.65 52.12 71.48 50.40 C 71.75 46.50 71.56 42.59 71.80 38.69 C 72.71 37.67 73.51 36.58 74.19 35.42 C 74.82 34.08 73.70 33.19 73.03 32.15 L 72.64 32.16 C 66.42 32.15 60.22 32.26 54.00 32.12 C 52.59 32.13 51.30 31.95 50.04 32.74 C 49.62 33.73 49.56 34.63 49.84 35.43 C 50.57 36.62 51.39 37.75 52.23 38.86 C 52.36 44.28 52.03 49.59 52.49 54.98 L 51.08 54.04 C 50.04 48.35 49.61 42.51 48.37 36.86 C 48.67 42.77 49.60 48.67 50.40 54.53 C 49.67 54.60 48.94 54.67 48.20 54.74 C 48.96 55.16 49.71 55.58 50.46 56.00 C 50.20 58.16 49.80 60.13 49.96 62.29 C 50.31 64.28 50.32 66.08 50.07 68.08 C 49.96 69.44 49.91 70.81 49.90 72.18 L 49.89 72.86 C 49.79 74.02 49.67 75.18 49.53 76.33 C 48.84 72.57 47.66 68.27 48.44 64.49 C 48.98 63.02 47.30 62.27 46.55 61.21 C 46.72 54.70 45.69 48.11 44.58 41.71 C 45.76 40.00 46.67 38.26 46.59 36.12 C 45.72 34.47 44.51 34.35 42.83 34.79 C 42.17 35.85 42.34 37.42 42.14 38.64 C 42.67 39.34 43.20 40.04 43.72 40.75 C 44.43 47.11 45.83 52.92 45.89 59.17 C 43.61 57.02 43.16 52.09 39.71 50.26 L 39.60 50.21 C 39.38 47.31 39.56 44.40 39.37 41.51 C 38.55 40.16 37.09 39.09 35.91 38.08 C 32.61 40.71 32.96 43.54 34.17 47.19 C 34.29 47.83 34.41 48.46 34.52 49.10 C 32.55 51.63 30.61 54.71 30.32 57.98 C 30.02 61.57 30.36 65.26 30.42 68.87 C 31.16 68.83 31.90 68.81 32.64 68.80 C 32.04 64.56 30.79 61.05 31.63 56.63 C 32.55 58.47 32.33 60.49 32.99 62.38 C 34.22 64.92 36.07 67.19 37.83 69.39 C 38.19 69.86 38.79 70.01 39.65 69.82 C 39.44 71.59 39.13 73.59 39.53 75.34 C 40.19 76.97 41.15 78.46 41.87 80.06 C 41.81 81.22 41.71 82.39 41.59 83.54 L 40.62 83.86 C 40.02 83.60 39.42 83.34 38.81 83.08 C 38.39 78.86 37.03 75.05 37.54 70.73 C 35.37 69.42 34.29 67.49 33.02 65.40 C 33.46 70.66 35.91 75.38 36.81 80.42 C 34.56 77.34 33.45 73.36 33.14 69.60 C 32.50 70.07 31.86 70.53 31.21 70.97 C 32.64 75.72 35.09 79.57 34.46 84.72 L 33.38 84.66 C 33.48 82.12 33.92 79.84 32.75 77.45 C 31.65 75.20 31.49 72.21 29.80 70.36 C 29.65 71.65 29.50 72.95 29.36 74.25 C 26.90 63.83 25.40 53.30 24.17 42.68 C 33.03 33.78 45.60 28.42 58.00 27.09 Z"/>
  <path id="path22372" fill="#ffffff" d="M 143.00 27.21 C 155.06 28.70 167.21 34.02 175.83 42.68 C 174.27 56.91 171.87 70.99 167.81 84.73 C 151.08 84.77 134.36 84.74 117.63 84.75 C 116.87 80.03 115.00 75.81 111.24 72.74 C 108.42 70.24 105.03 69.24 101.41 68.52 C 101.49 57.85 101.42 47.18 101.45 36.50 C 113.79 28.84 128.55 25.35 143.00 27.21 Z"/>
  <path id="path22374" fill="#ea2626" d="M 54.00 32.12 C 60.22 32.26 66.42 32.15 72.64 32.16 C 70.35 33.21 68.10 33.43 65.63 33.28 L 64.35 33.13 C 62.76 32.97 61.14 33.00 59.51 33.23 L 58.26 33.35 C 55.52 33.18 52.78 32.91 50.04 32.74 C 51.30 31.95 52.59 32.13 54.00 32.12 Z"/>
  <path id="path22376" fill="#b1722b" d="M 72.64 32.16 L 73.03 32.15 C 73.70 33.19 74.82 34.08 74.19 35.42 L 72.38 36.01 C 72.27 34.68 71.78 33.89 70.91 33.66 L 69.60 35.00 C 68.50 35.24 67.41 35.50 66.32 35.76 L 65.63 33.28 C 68.10 33.43 70.35 33.21 72.64 32.16 Z"/>
  <path id="path22378" fill="#35200d" d="M 144.41 36.32 C 142.08 35.92 140.35 34.36 138.02 33.99 C 135.51 33.53 132.83 34.18 131.18 36.21 C 128.48 39.73 130.57 45.60 134.74 46.85 C 135.07 44.97 135.15 43.08 135.14 41.18 C 137.68 41.36 142.04 40.13 143.93 42.07 C 142.12 43.24 139.93 42.79 137.87 42.90 C 137.88 44.10 137.89 45.30 137.89 46.50 C 139.92 47.09 143.41 47.35 144.30 49.52 C 142.11 49.25 139.94 48.92 137.76 48.57 L 138.04 49.80 C 141.29 52.78 145.48 54.83 148.27 58.72 C 152.72 64.89 150.79 74.48 144.25 78.40 C 139.13 81.46 133.36 81.19 127.78 79.67 C 125.92 78.89 123.84 79.10 124.39 76.36 C 127.93 77.38 131.37 78.09 135.08 77.99 C 135.08 76.82 135.10 75.65 135.10 74.47 C 128.49 74.21 122.69 70.58 120.83 64.03 C 118.83 56.85 123.29 50.12 129.84 47.36 C 126.91 43.68 125.45 37.99 129.44 34.45 C 133.18 30.30 142.35 30.76 144.41 36.32 Z"/>
  <path id="path22380" fill="#b1722b" d="M 50.04 32.74 C 52.78 32.91 55.52 33.18 58.26 33.35 L 57.75 35.41 C 56.59 35.39 55.42 35.36 54.26 35.33 L 53.02 33.89 C 52.17 34.11 51.87 34.88 52.14 36.22 L 49.84 35.43 C 49.56 34.63 49.62 33.73 50.04 32.74 Z"/>
  <path id="path22382" fill="#35200d" d="M 58.26 33.35 L 59.51 33.23 L 60.29 35.33 C 59.56 36.86 58.71 36.89 57.75 35.41 L 58.26 33.35 Z"/>
  <path id="path22384" fill="#b1722b" d="M 59.51 33.23 C 61.14 33.00 62.76 32.97 64.35 33.13 L 63.66 35.54 C 62.54 35.46 61.42 35.39 60.29 35.33 L 59.51 33.23 Z"/>
  <path id="path22386" fill="#35200d" d="M 64.35 33.13 L 65.63 33.28 L 66.32 35.76 C 64.84 36.70 64.95 37.01 63.66 35.54 L 64.35 33.13 Z"/>
  <path id="path22388" fill="#35200d" d="M 80.39 33.59 C 80.49 35.47 80.63 37.34 80.64 39.21 C 79.50 36.94 80.54 34.41 77.54 33.75 C 77.37 34.94 77.20 36.12 77.04 37.31 L 79.68 37.59 C 78.57 38.15 78.02 39.01 76.69 38.44 C 76.54 37.00 75.97 34.92 76.66 33.62 C 77.74 33.14 79.22 33.60 80.39 33.59 Z"/>
  <path id="path22390" fill="#35200d" d="M 53.02 33.89 L 54.26 35.33 C 53.63 36.35 52.92 36.65 52.14 36.22 C 51.87 34.88 52.17 34.11 53.02 33.89 Z"/>
  <path id="path22392" fill="#35200d" d="M 70.91 33.66 C 71.78 33.89 72.27 34.68 72.38 36.01 C 70.87 37.25 70.01 36.98 69.60 35.00 L 70.91 33.66 Z"/>
  <path id="path22394" fill="#ea2626" d="M 54.26 35.33 C 55.42 35.36 56.59 35.39 57.75 35.41 C 58.71 36.89 59.56 36.86 60.29 35.33 C 61.42 35.39 62.54 35.46 63.66 35.54 C 64.95 37.01 64.84 36.70 66.32 35.76 C 67.41 35.50 68.50 35.24 69.60 35.00 C 70.01 36.98 70.87 37.25 72.38 36.01 L 74.19 35.42 C 73.51 36.58 72.71 37.67 71.80 38.69 C 70.71 38.37 69.62 38.06 68.52 37.75 L 68.98 35.98 L 67.14 35.98 L 67.40 37.70 C 65.83 37.74 64.25 37.79 62.68 37.84 L 62.77 35.75 C 61.64 36.12 61.00 36.72 60.23 37.58 C 59.17 37.61 58.11 37.64 57.05 37.68 C 58.08 35.38 54.40 35.07 54.78 37.59 L 53.23 38.19 C 52.61 43.83 53.98 49.59 52.49 54.98 C 52.03 49.59 52.36 44.28 52.23 38.86 C 51.39 37.75 50.57 36.62 49.84 35.43 L 52.14 36.22 C 52.92 36.65 53.63 36.35 54.26 35.33 Z"/>
  <path id="path22396" fill="#ffffff" d="M 44.95 36.26 L 45.73 36.18 L 46.11 36.92 L 45.72 37.71 L 44.93 37.79 L 44.55 37.06 L 44.95 36.26 Z"/>
  <path id="path22398" fill="#35200d" d="M 57.05 37.68 L 54.78 37.59 C 54.40 35.07 58.08 35.38 57.05 37.68 Z"/>
  <path id="path22400" fill="#35200d" d="M 62.77 35.75 L 62.68 37.84 C 62.78 38.90 62.90 39.95 63.03 41.01 L 60.91 40.96 C 61.14 39.83 61.38 38.70 61.62 37.57 L 60.23 37.58 C 61.00 36.72 61.64 36.12 62.77 35.75 Z"/>
  <path id="path22402" fill="#35200d" d="M 67.14 35.98 L 68.98 35.98 L 68.52 37.75 C 68.24 40.23 68.35 42.61 69.10 45.01 C 68.43 45.27 67.76 45.53 67.10 45.81 C 67.22 43.08 67.66 40.44 67.40 37.70 L 67.14 35.98 Z"/>
  <path id="path22404" fill="#b1722b" d="M 35.91 38.08 C 37.09 39.09 38.55 40.16 39.37 41.51 C 39.56 44.40 39.38 47.31 39.60 50.21 L 38.00 49.57 L 38.88 46.81 C 38.32 48.25 37.81 49.71 37.35 51.19 C 35.85 50.01 34.93 48.92 34.17 47.19 C 32.96 43.54 32.61 40.71 35.91 38.08 Z"/>
  <path id="path22406" fill="#35200d" d="M 55.04 38.85 L 56.83 39.05 C 56.05 41.50 56.97 43.72 56.48 46.17 C 56.09 48.19 57.63 49.43 55.01 50.05 C 55.86 46.45 55.27 42.51 55.04 38.85 Z"/>
  <path id="path22408" fill="#35200d" d="M 90.64 38.79 C 91.04 39.62 91.06 40.60 90.71 41.72 L 90.01 41.99 L 89.62 41.21 C 89.67 40.15 90.00 39.35 90.64 38.79 Z"/>
  <path id="path22410" fill="#ffffff" d="M 88.97 39.83 L 89.62 41.21 L 90.01 41.99 C 89.10 44.01 89.97 45.04 87.15 44.66 C 87.69 43.03 88.28 41.41 88.97 39.83 Z"/>
  <path id="path22412" fill="#ffffff" d="M 35.06 40.48 C 36.11 41.66 35.99 44.23 35.16 45.51 C 34.07 43.96 33.43 41.92 35.06 40.48 Z"/>
  <path id="path22414" fill="#35200d" d="M 64.70 42.13 C 64.37 43.77 65.23 47.37 63.39 48.13 C 62.61 46.65 62.99 44.02 60.69 44.29 C 60.78 45.65 60.86 47.01 60.95 48.37 C 57.96 47.98 59.81 45.73 59.74 43.66 C 60.72 43.80 61.70 43.94 62.68 44.04 C 63.36 43.41 64.03 42.78 64.70 42.13 Z"/>
  <path id="path22416" fill="#35200d" d="M 34.17 47.19 C 34.93 48.92 35.85 50.01 37.35 51.19 C 37.81 49.71 38.32 48.25 38.88 46.81 L 38.00 49.57 L 39.60 50.21 L 39.71 50.26 C 39.63 51.45 39.56 52.64 39.49 53.83 C 38.45 53.33 37.43 53.09 36.42 53.10 C 36.06 53.50 35.73 53.93 35.45 54.38 C 35.19 52.61 34.86 50.86 34.52 49.10 C 34.41 48.46 34.29 47.83 34.17 47.19 Z"/>
  <path id="path22418" fill="#35200d" d="M 61.26 49.23 L 61.80 49.22 L 61.80 49.77 L 61.26 49.77 L 61.26 49.23 Z"/>
  <path id="path22420" fill="#ffffff" d="M 132.13 49.36 C 133.14 50.22 134.14 51.08 135.15 51.94 C 135.03 58.51 135.11 65.09 135.10 71.66 C 131.55 71.16 128.27 69.91 126.10 66.92 C 123.48 63.26 122.97 57.49 125.77 53.78 C 127.40 51.48 129.70 50.58 132.13 49.36 Z"/>
  <path id="path22422" fill="#35200d" d="M 61.12 51.79 C 60.25 53.20 59.39 54.60 58.49 55.97 L 60.86 56.30 C 59.19 57.05 57.61 57.91 56.06 58.87 C 55.21 57.99 54.37 57.10 53.52 56.21 C 56.10 54.81 58.55 53.20 61.12 51.79 Z"/>
  <path id="path22424" fill="#ffffff" d="M 67.07 54.15 C 68.67 54.38 70.27 54.54 71.88 54.62 L 71.91 55.36 C 71.05 55.26 70.20 55.15 69.35 55.05 C 69.73 57.07 71.58 58.17 68.97 59.26 C 68.25 57.58 67.63 55.89 67.07 54.15 Z"/>
  <path id="path22426" fill="#35200d" d="M 50.93 55.42 C 52.12 55.76 53.34 57.93 53.77 59.08 C 51.20 59.53 49.77 57.80 50.93 55.42 Z"/>
  <path id="path22428" fill="#ffffff" d="M 137.87 53.97 C 138.64 54.59 139.42 55.21 140.18 55.84 C 142.63 57.93 145.24 60.40 146.71 63.30 C 148.82 67.36 147.30 72.96 143.51 75.50 C 141.81 76.72 139.85 77.14 137.87 77.80 C 137.88 76.58 137.88 75.36 137.89 74.13 C 140.16 73.21 143.51 73.21 143.90 70.13 C 141.91 70.71 139.91 71.26 137.88 71.66 C 137.85 68.22 137.86 64.78 137.86 61.34 C 139.48 60.97 141.48 62.08 141.61 59.72 C 140.37 59.65 139.12 59.58 137.88 59.52 C 137.87 57.67 137.87 55.82 137.87 53.97 Z"/>
  <path id="path22430" fill="#35200d" d="M 41.16 56.29 C 40.72 57.77 37.25 57.77 35.92 57.90 C 35.74 55.60 39.78 55.77 41.16 56.29 Z"/>
  <path id="path22432" fill="#35200d" d="M 66.18 56.46 C 67.37 55.93 69.28 59.71 67.37 59.73 C 66.33 59.26 65.53 57.48 66.18 56.46 Z"/>
  <path id="path22434" fill="#ffffff" d="M 91.89 57.90 C 90.57 63.22 89.12 69.28 85.49 73.48 C 83.99 77.70 80.52 79.15 77.49 82.09 C 77.01 81.26 76.51 80.44 75.99 79.64 C 76.49 78.53 77.01 77.43 77.56 76.35 C 78.64 74.49 79.31 72.52 79.92 70.47 L 78.07 70.12 C 80.47 69.37 79.36 68.02 79.60 66.05 C 83.02 65.82 83.39 69.97 84.77 72.21 C 87.49 67.57 89.39 62.62 91.89 57.90 Z"/>
  <path id="path22436" fill="#35200d" d="M 39.77 58.86 C 41.00 59.76 42.13 60.72 43.17 61.84 C 41.56 62.21 40.46 62.95 38.91 61.97 C 39.18 60.93 39.47 59.89 39.77 58.86 Z"/>
  <path id="path22438" fill="#35200d" d="M 51.73 61.04 C 52.35 61.83 52.98 62.61 53.61 63.39 L 53.17 63.47 C 52.32 63.90 51.46 64.33 50.61 64.76 C 51.58 66.34 52.10 67.50 52.11 69.40 C 51.43 68.96 50.75 68.52 50.07 68.08 C 50.32 66.08 50.31 64.28 49.96 62.29 C 50.55 61.87 51.14 61.46 51.73 61.04 Z"/>
  <path id="path22440" fill="#ffffff" d="M 56.19 60.78 C 56.22 61.87 56.22 62.95 56.18 64.04 C 58.51 64.87 60.63 65.74 63.18 65.24 C 64.73 64.18 65.61 62.22 67.00 60.90 C 67.34 62.22 67.76 62.83 68.75 63.72 C 67.16 65.06 65.62 66.46 64.12 67.89 C 65.76 69.35 65.63 70.39 65.73 72.45 L 65.36 72.53 L 63.77 72.91 L 62.94 73.27 C 61.87 71.83 60.72 70.54 59.92 68.92 L 61.73 68.20 C 61.63 66.13 58.02 66.69 56.64 66.57 C 56.01 65.96 55.38 65.34 54.76 64.72 C 54.56 66.30 54.52 67.78 53.54 69.13 C 53.37 67.25 53.25 65.36 53.17 63.47 L 53.61 63.39 C 56.65 63.74 55.26 62.79 56.19 60.78 Z"/>
  <path id="path22442" fill="#35200d" d="M 72.01 61.08 C 72.68 61.38 73.31 61.75 73.92 62.18 L 73.94 62.73 C 73.33 63.19 72.69 63.58 72.01 63.91 C 70.81 62.87 70.91 62.15 72.01 61.08 Z"/>
  <path id="path22444" fill="#35200d" d="M 39.75 65.98 C 39.92 67.24 39.89 68.53 39.65 69.82 C 38.79 70.01 38.19 69.86 37.83 69.39 C 38.26 68.11 38.71 66.89 39.75 65.98 Z"/>
  <path id="path22446" fill="#ffffff" d="M 44.77 65.52 C 46.77 67.87 46.93 71.69 46.56 74.61 C 46.16 72.69 45.84 70.75 45.46 68.82 C 45.22 67.72 44.99 66.62 44.77 65.52 Z"/>
  <path id="path22448" fill="#35200d" d="M 72.22 66.24 C 73.63 65.82 73.58 69.15 72.20 68.76 C 71.64 67.92 71.64 67.08 72.22 66.24 Z"/>
  <path id="path22450" fill="#ffffff" d="M 55.74 67.44 C 57.24 67.25 59.55 71.25 58.33 72.47 C 57.11 71.17 55.66 69.30 55.74 67.44 Z"/>
  <path id="path22452" fill="#ffffff" d="M 41.49 69.15 L 42.09 68.56 L 42.69 69.01 C 42.66 70.57 42.26 70.95 41.48 70.16 L 41.49 69.15 Z"/>
  <path id="path22454" fill="#35200d" d="M 81.71 69.77 C 81.73 71.31 81.71 72.85 81.61 74.38 C 79.55 75.92 79.21 78.09 78.03 80.25 C 77.75 77.12 79.63 75.41 80.86 72.81 C 81.15 71.80 81.44 70.78 81.71 69.77 Z"/>
  <path id="path22456" fill="#35200d" d="M 51.83 71.08 C 52.61 72.23 52.83 72.81 51.90 73.97 C 51.20 73.71 50.53 73.35 49.89 72.86 L 49.90 72.18 C 50.50 71.68 51.15 71.31 51.83 71.08 Z"/>
  <path id="path22458" fill="#35200d" d="M 72.31 70.94 C 73.66 70.89 73.64 73.79 72.31 73.77 C 71.11 73.20 71.21 71.57 72.31 70.94 Z"/>
  <path id="path22460" fill="#35200d" d="M 101.00 71.66 C 108.10 72.08 114.16 77.88 114.76 84.98 C 115.49 91.29 111.75 97.54 105.95 100.03 C 99.47 103.02 90.56 100.34 87.28 93.88 C 91.03 94.69 94.34 95.91 98.28 95.49 C 98.84 94.65 99.40 93.81 99.96 92.97 C 100.54 93.51 101.12 94.04 101.70 94.58 C 102.93 93.23 104.18 91.90 105.44 90.59 C 105.50 89.13 105.55 87.68 105.60 86.23 C 106.33 86.34 107.07 86.45 107.80 86.56 C 107.56 85.01 107.41 83.78 106.36 82.55 C 107.84 79.72 107.80 79.54 106.24 76.70 C 105.27 76.57 104.30 76.44 103.33 76.30 C 103.38 75.38 103.44 74.46 103.50 73.53 C 98.94 72.70 95.37 74.97 90.89 74.58 C 94.16 72.77 97.10 71.08 101.00 71.66 Z"/>
  <path id="path22462" fill="#35200d" d="M 65.36 72.53 L 65.73 72.45 C 67.16 72.17 68.60 71.90 70.03 71.64 C 68.68 75.16 65.42 74.44 62.50 76.49 C 62.46 77.54 62.41 78.58 62.36 79.63 C 61.58 79.17 60.80 78.70 60.01 78.24 C 59.43 76.41 58.74 74.66 57.87 72.94 C 59.23 73.23 60.61 73.53 61.98 73.70 L 62.94 73.27 L 63.77 72.91 L 65.36 72.53 Z"/>
  <path id="path22464" fill="#35200d" d="M 46.66 75.05 C 46.37 77.95 48.90 78.36 48.33 81.49 C 47.29 80.75 46.54 79.68 46.06 78.28 C 44.08 80.24 44.04 82.48 43.70 85.07 C 42.60 84.80 41.58 84.40 40.62 83.86 L 41.59 83.54 C 41.71 82.39 41.81 81.22 41.87 80.06 C 44.32 79.13 45.67 77.38 46.66 75.05 Z"/>
  <path id="path22466" fill="#35200d" d="M 57.59 76.06 C 57.60 77.46 57.30 78.92 56.15 79.84 C 55.61 77.97 54.23 75.19 57.59 76.06 Z"/>
  <path id="path22468" fill="#35200d" d="M 66.29 76.09 C 67.09 76.05 67.90 76.04 68.72 76.05 C 68.48 77.43 68.19 78.81 67.79 80.15 C 67.25 78.81 66.71 77.48 66.29 76.09 Z"/>
  <path id="path22470" fill="#35200d" d="M 72.26 76.38 C 74.03 76.24 75.78 76.20 77.56 76.35 C 77.01 77.43 76.49 78.53 75.99 79.64 C 76.51 80.44 77.01 81.26 77.49 82.09 L 77.59 82.78 C 75.67 81.79 74.61 82.91 76.18 84.58 C 75.23 84.77 74.29 84.95 73.35 85.13 C 72.90 82.22 72.57 79.31 72.26 76.38 Z"/>
  <path id="path22472" fill="#35200d" d="M 50.13 78.34 L 50.97 78.33 L 51.36 79.03 L 50.91 79.75 L 50.07 79.76 L 49.68 79.05 L 50.13 78.34 Z"/>
  <path id="path22474" fill="#35200d" d="M 49.20 81.15 C 50.40 80.59 50.96 80.84 50.87 81.89 C 49.67 82.45 49.11 82.21 49.20 81.15 Z"/>
  <path id="path22476" fill="#35200d" d="M 55.23 81.07 C 56.40 80.50 56.94 80.76 56.85 81.83 C 55.68 82.40 55.14 82.14 55.23 81.07 Z"/>
  <path id="path22478" fill="#35200d" d="M 61.20 81.11 C 62.43 80.55 62.98 80.80 62.85 81.85 C 61.62 82.40 61.07 82.16 61.20 81.11 Z"/>
  <path id="path22480" fill="#35200d" d="M 67.19 81.11 C 68.41 80.53 68.96 80.77 68.82 81.83 C 67.59 82.40 67.05 82.16 67.19 81.11 Z"/>
  <path id="path22482" fill="#35200d" d="M 45.10 82.18 C 46.10 81.62 47.56 83.86 46.89 84.68 C 45.57 85.18 44.53 83.26 45.10 82.18 Z"/>
  <path id="path22484" fill="#35200d" d="M 51.00 84.18 C 50.85 85.56 48.59 85.34 48.09 84.29 C 48.94 83.26 50.34 82.56 51.00 84.18 Z"/>
  <path id="path22486" fill="#35200d" d="M 55.13 83.53 C 56.63 82.45 57.72 84.76 55.91 85.21 C 54.90 84.99 54.64 84.43 55.13 83.53 Z"/>
  <path id="path22488" fill="#35200d" d="M 62.02 82.73 C 63.11 83.22 63.69 83.97 63.76 84.98 C 62.64 85.38 61.49 85.37 60.31 84.94 C 60.48 83.99 61.05 83.25 62.02 82.73 Z"/>
  <path id="path22490" fill="#ea2626" d="M 77.59 82.78 L 77.76 84.21 C 77.25 84.38 76.72 84.50 76.18 84.58 C 74.61 82.91 75.67 81.79 77.59 82.78 Z"/>
  <path id="path22492" fill="#35200d" d="M 68.11 84.11 L 68.67 84.11 L 68.67 84.66 L 68.11 84.66 L 68.11 84.11 Z"/>
  <path id="path22494" fill="#ffffff" d="M 33.04 87.67 C 37.81 87.63 42.58 87.65 47.35 87.66 C 47.36 98.11 47.31 108.56 47.38 119.01 C 47.38 120.28 47.28 121.52 47.08 122.73 C 41.33 111.53 36.76 99.69 33.04 87.67 Z"/>
  <path id="path22496" fill="#ea2626" d="M 47.35 87.66 C 51.09 87.67 54.84 87.68 58.59 87.66 C 58.68 106.33 58.38 125.12 58.73 143.77 C 54.56 136.90 50.51 130.00 47.08 122.73 C 47.28 121.52 47.38 120.28 47.38 119.01 C 47.31 108.56 47.36 98.11 47.35 87.66 Z"/>
  <path id="path22498" fill="#ffffff" d="M 58.59 87.66 C 62.68 87.64 66.77 87.65 70.86 87.67 C 70.76 112.18 70.88 136.70 70.80 161.22 C 66.50 155.60 62.58 149.70 58.73 143.77 C 58.38 125.12 58.68 106.33 58.59 87.66 Z"/>
  <path id="path22500" fill="#ea2626" d="M 70.86 87.67 C 74.58 87.66 78.29 87.68 82.00 87.64 C 82.26 116.81 82.10 146.02 82.08 175.20 C 78.09 170.72 74.43 165.99 70.80 161.22 C 70.88 136.70 70.76 112.18 70.86 87.67 Z"/>
  <path id="path22502" fill="#ffffff" d="M 82.00 87.64 C 82.86 89.91 83.48 92.31 84.53 94.51 C 86.63 98.56 90.24 101.34 94.43 102.99 C 94.40 131.45 94.45 159.90 94.41 188.36 C 90.04 184.21 85.88 179.89 82.08 175.20 C 82.10 146.02 82.26 116.81 82.00 87.64 Z"/>
  <path id="path22504" fill="#ffffff" d="M 118.00 87.64 C 117.75 116.81 117.90 146.02 117.92 175.20 C 114.38 179.52 110.60 183.60 106.55 187.43 L 105.57 188.03 C 105.59 159.68 105.56 131.32 105.59 102.97 C 108.84 101.68 111.77 99.75 113.91 96.95 C 116.17 94.15 116.72 90.97 118.00 87.64 Z"/>
  <path id="path22506" fill="#ea2626" d="M 118.00 87.64 C 121.71 87.67 125.42 87.66 129.14 87.67 C 129.24 112.18 129.11 136.70 129.20 161.22 C 125.57 165.99 121.91 170.72 117.92 175.20 C 117.90 146.02 117.75 116.81 118.00 87.64 Z"/>
  <path id="path22508" fill="#ffffff" d="M 129.14 87.67 C 133.24 87.65 137.34 87.64 141.44 87.66 C 141.51 106.02 141.21 124.41 141.59 142.76 C 138.10 149.25 133.56 155.28 129.20 161.22 C 129.11 136.70 129.24 112.18 129.14 87.67 Z"/>
  <path id="path22510" fill="#ea2626" d="M 141.44 87.66 C 145.18 87.67 148.91 87.67 152.65 87.66 C 152.64 98.11 152.69 108.55 152.62 119.00 C 152.61 120.23 152.73 121.42 152.98 122.57 C 149.62 129.50 146.02 136.44 141.59 142.76 C 141.21 124.41 141.51 106.02 141.44 87.66 Z"/>
  <path id="path22512" fill="#ffffff" d="M 152.65 87.66 C 157.42 87.65 162.19 87.63 166.96 87.68 C 163.25 99.63 158.72 111.44 152.98 122.57 C 152.73 121.42 152.61 120.23 152.62 119.00 C 152.69 108.55 152.64 98.11 152.65 87.66 Z"/>
  <path id="path22514" fill="#ea2626" d="M 94.43 102.99 C 98.32 104.05 101.71 104.06 105.59 102.97 C 105.56 131.32 105.59 159.68 105.57 188.03 L 106.55 187.43 C 104.48 189.47 102.26 191.32 100.00 193.13 C 98.08 191.61 96.19 190.05 94.41 188.36 C 94.45 159.90 94.40 131.45 94.43 102.99 Z"/>
</svg>