<?xml version="1.0" encoding="UTF-8" standalone="no"?>
<!DOCTYPE svg PUBLIC "-//W3C//DTD SVG 1.1//EN" "http://www.w3.org/Graphics/SVG/1.1/DTD/svg11.dtd">
<svg xmlns="http://www.w3.org/2000/svg" version="1.1" viewBox="0 0 200 200" width="200.0pt" height="200.0pt">
<path d="M 0.00 0.00 L 90.74 0.00 L 90.52 0.14 C 87.35 1.93 84.51 3.76 84.81 7.85 C 85.69 14.55 87.53 21.15 88.71 27.81 C 89.74 33.11 92.04 37.50 97.19 39.78 C 89.43 43.47 80.92 44.75 72.75 41.48 C 66.03 46.23 59.68 51.48 53.02 56.30 C 56.48 62.31 57.75 69.21 54.65 75.67 C 52.43 80.10 48.75 82.15 45.00 85.03 C 43.48 85.95 43.93 88.46 43.77 90.00 C 43.93 113.55 51.09 136.83 62.84 157.15 C 72.38 173.43 85.01 188.05 99.59 200.00 L 0.00 200.00 L 0.00 0.00 Z" fill="#ffffff"/>
<path d="M 90.74 0.00 L 91.20 0.00 C 91.09 0.60 90.96 1.20 90.82 1.80 C 88.95 3.26 86.25 4.23 86.23 7.00 C 86.51 11.21 87.85 15.35 88.56 19.51 C 89.64 24.32 90.23 29.99 92.78 34.26 C 95.17 38.49 101.06 39.38 105.05 37.06 C 108.41 34.57 108.92 31.01 109.21 27.10 C 107.72 27.12 106.23 27.15 104.74 27.18 C 104.09 29.44 104.11 32.63 101.79 33.85 C 99.40 34.71 97.36 32.32 96.68 30.27 C 95.31 25.99 94.87 21.40 93.83 17.02 C 93.47 14.77 92.53 11.96 93.81 9.89 C 95.12 6.94 99.40 7.30 102.03 7.66 C 105.24 7.63 105.54 12.43 106.46 14.70 C 108.18 14.76 109.90 14.82 111.62 14.88 C 111.79 11.57 113.76 5.85 110.59 3.42 C 105.52 -0.89 96.59 3.53 91.50 0.00 L 107.15 0.00 C 110.46 1.14 113.63 3.24 114.06 6.98 C 113.98 10.31 113.06 13.65 112.50 16.94 C 109.78 16.50 107.05 16.13 104.31 15.80 C 103.99 13.61 104.55 10.66 102.63 9.19 C 100.46 8.91 98.23 9.01 96.04 8.98 C 93.52 13.09 95.73 17.05 96.27 21.50 C 97.38 25.83 96.76 30.45 101.10 33.00 C 102.95 30.50 103.04 28.33 103.11 25.30 C 105.83 25.50 108.54 25.80 111.25 26.11 C 110.73 29.49 110.17 33.24 108.13 36.09 C 106.78 38.00 104.86 38.89 102.84 39.93 L 100.25 40.13 L 99.45 40.07 L 97.34 39.80 L 97.19 39.78 C 92.04 37.50 89.74 33.11 88.71 27.81 C 87.53 21.15 85.69 14.55 84.81 7.85 C 84.51 3.76 87.35 1.93 90.52 0.14 L 90.74 0.00 Z" fill="#212a24"/>
<path d="M 91.20 0.00 L 91.50 0.00 C 96.59 3.53 105.52 -0.89 110.59 3.42 C 113.76 5.85 111.79 11.57 111.62 14.88 C 109.90 14.82 108.18 14.76 106.46 14.70 C 105.54 12.43 105.24 7.63 102.03 7.66 C 99.40 7.30 95.12 6.94 93.81 9.89 C 92.53 11.96 93.47 14.77 93.83 17.02 C 94.87 21.40 95.31 25.99 96.68 30.27 C 97.36 32.32 99.40 34.71 101.79 33.85 C 104.11 32.63 104.09 29.44 104.74 27.18 C 106.23 27.15 107.72 27.12 109.21 27.10 C 108.92 31.01 108.41 34.57 105.05 37.06 C 101.06 39.38 95.17 38.49 92.78 34.26 C 90.23 29.99 89.64 24.32 88.56 19.51 C 87.85 15.35 86.51 11.21 86.23 7.00 C 86.25 4.23 88.95 3.26 90.82 1.80 C 90.96 1.20 91.09 0.60 91.20 0.00 Z" fill="#008644"/>
<path d="M 107.15 0.00 L 200.00 0.00 L 200.00 200.00 L 100.04 200.00 C 123.74 180.30 142.02 154.58 150.62 124.83 C 153.43 115.12 155.17 105.11 155.71 95.01 C 155.85 92.06 156.14 88.79 155.41 85.90 C 151.44 82.10 146.66 80.13 144.48 74.56 C 141.97 68.43 143.16 62.05 146.60 56.56 C 140.21 51.30 133.48 46.40 126.85 41.44 C 118.88 44.71 110.46 43.53 102.84 39.93 C 104.86 38.89 106.78 38.00 108.13 36.09 C 110.17 33.24 110.73 29.49 111.25 26.11 C 108.54 25.80 105.83 25.50 103.11 25.30 C 103.04 28.33 102.95 30.50 101.10 33.00 C 96.76 30.45 97.38 25.83 96.27 21.50 C 95.73 17.05 93.52 13.09 96.04 8.98 C 98.23 9.01 100.46 8.91 102.63 9.19 C 104.55 10.66 103.99 13.61 104.31 15.80 C 107.05 16.13 109.78 16.50 112.50 16.94 C 113.06 13.65 113.98 10.31 114.06 6.98 C 113.63 3.24 110.46 1.14 107.15 0.00 Z" fill="#ffffff"/>
<path d="M 75.24 3.55 C 75.81 6.22 76.12 8.83 76.14 11.56 C 71.76 13.31 67.05 14.84 63.07 17.40 L 62.99 18.67 C 66.72 21.01 71.40 21.73 75.41 23.59 C 78.77 25.09 83.02 27.06 84.04 30.94 C 83.99 33.63 81.33 36.01 78.95 36.92 C 72.86 39.35 66.62 39.12 60.20 38.96 C 60.02 37.66 59.85 36.35 59.67 35.04 C 65.03 34.16 70.76 34.48 75.50 32.12 C 70.13 27.52 59.67 28.90 54.61 23.40 C 51.55 20.48 52.30 15.90 55.12 13.11 C 60.19 7.94 68.40 5.36 75.24 3.55 Z" fill="#2f3a34"/>
<path d="M 129.05 4.00 C 132.29 4.65 135.34 6.41 138.43 7.57 C 141.81 9.08 145.63 10.00 147.05 13.84 C 147.91 17.19 145.41 21.22 144.22 24.29 C 141.70 22.97 139.16 21.70 136.63 20.38 L 137.13 18.02 C 137.91 16.16 134.75 15.53 133.69 14.71 C 132.64 16.71 131.62 18.72 130.61 20.75 C 134.56 23.28 136.34 27.19 141.26 28.19 C 139.98 29.53 138.66 31.29 136.90 31.97 C 133.78 32.75 130.45 29.44 127.76 28.17 C 125.20 32.02 123.91 36.15 121.91 40.31 C 119.78 39.24 117.66 38.15 115.56 37.03 C 118.92 27.25 122.28 17.46 125.70 7.70 C 126.38 5.70 127.11 4.86 129.05 4.00 Z" fill="#26302b"/>
<path d="M 73.79 5.48 C 74.12 7.05 74.39 8.63 74.68 10.21 C 70.79 12.16 66.49 13.49 62.80 15.78 C 61.01 17.01 61.31 19.80 63.35 20.66 C 68.38 23.32 75.76 24.25 80.65 28.34 C 82.60 29.72 82.66 33.20 80.47 34.38 C 77.12 36.60 72.91 37.02 69.01 37.39 C 66.26 37.51 63.70 38.08 61.25 36.52 C 65.58 35.74 70.81 35.74 74.83 33.86 C 76.67 33.24 76.55 30.79 75.08 29.85 C 69.79 26.60 61.84 27.03 56.74 23.27 C 54.10 21.23 53.12 18.17 55.28 15.33 C 59.35 9.90 67.51 7.29 73.79 5.48 Z" fill="#018644"/>
<path d="M 128.24 6.19 C 130.91 5.34 134.65 7.88 137.24 8.72 C 139.91 10.03 144.70 11.17 145.59 14.39 C 146.02 16.86 144.37 19.76 143.63 22.09 C 142.04 21.35 140.46 20.60 138.89 19.84 C 138.72 18.23 139.31 16.11 137.80 15.10 C 136.28 14.22 134.49 13.71 132.85 13.10 C 131.25 15.92 129.82 18.78 128.57 21.76 C 132.39 23.86 135.47 26.73 138.35 29.97 C 133.37 31.66 131.46 26.99 127.10 27.03 C 124.08 29.72 123.02 34.72 121.05 38.23 C 119.87 37.53 118.70 36.82 117.52 36.12 C 120.03 28.77 122.52 21.42 125.10 14.09 C 126.05 11.47 126.81 8.59 128.24 6.19 Z" fill="#018644"/>
<path d="M 97.19 39.78 L 97.34 39.80 L 99.45 40.07 C 91.68 45.44 81.69 46.62 72.79 43.56 C 67.04 48.06 61.15 52.37 55.39 56.84 C 58.13 62.08 59.21 67.79 57.45 73.56 C 56.08 78.57 52.61 81.43 48.88 84.69 C 56.50 84.75 64.12 84.65 71.74 84.75 L 72.43 84.76 C 79.99 84.85 87.56 84.92 95.12 84.72 C 99.48 84.79 103.84 84.80 108.20 84.80 L 108.81 84.80 C 115.14 84.83 121.47 84.88 127.79 84.76 C 135.48 84.63 143.17 84.77 150.86 84.67 C 147.47 81.66 143.97 78.97 142.46 74.52 C 140.41 68.52 141.38 62.45 144.09 56.85 C 138.44 52.29 132.54 48.04 126.85 43.54 C 117.97 46.59 108.00 45.51 100.25 40.13 L 102.84 39.93 C 110.46 43.53 118.88 44.71 126.85 41.44 C 133.48 46.40 140.21 51.30 146.60 56.56 C 143.16 62.05 141.97 68.43 144.48 74.56 C 146.66 80.13 151.44 82.10 155.41 85.90 C 156.14 88.79 155.85 92.06 155.71 95.01 C 155.17 105.11 153.43 115.12 150.62 124.83 C 142.02 154.58 123.74 180.30 100.04 200.00 L 99.59 200.00 C 85.01 188.05 72.38 173.43 62.84 157.15 C 51.09 136.83 43.93 113.55 43.77 90.00 C 43.93 88.46 43.48 85.95 45.00 85.03 C 48.75 82.15 52.43 80.10 54.65 75.67 C 57.75 69.21 56.48 62.31 53.02 56.30 C 59.68 51.48 66.03 46.23 72.75 41.48 C 80.92 44.75 89.43 43.47 97.19 39.78 Z" fill="#fece08"/>
<path d="M 99.45 40.07 L 100.25 40.13 C 108.00 45.51 117.97 46.59 126.85 43.54 C 132.54 48.04 138.44 52.29 144.09 56.85 C 141.38 62.45 140.41 68.52 142.46 74.52 C 143.97 78.97 147.47 81.66 150.86 84.67 C 143.17 84.77 135.48 84.63 127.79 84.76 C 127.80 83.84 127.80 82.92 127.80 82.00 C 128.10 74.96 127.43 67.83 128.21 60.83 L 129.66 60.48 C 129.77 59.56 129.88 58.63 129.99 57.71 C 128.93 57.64 127.88 57.57 126.82 57.50 C 126.08 58.20 125.36 61.20 124.11 60.02 C 123.67 59.28 123.25 58.52 122.87 57.75 C 121.87 57.67 120.87 57.59 119.87 57.52 C 119.28 58.62 118.68 59.71 118.07 60.80 L 117.22 59.79 C 116.92 59.03 116.63 58.28 116.35 57.52 C 115.24 57.54 114.14 57.57 113.03 57.61 C 112.36 58.75 111.68 59.90 111.00 61.04 C 110.46 59.86 109.93 58.68 109.40 57.50 C 108.29 57.55 107.17 57.61 106.06 57.67 C 106.46 58.81 106.78 59.92 107.56 60.87 L 108.19 61.45 C 108.37 63.49 108.38 65.58 108.41 67.64 C 107.62 67.68 106.83 67.74 106.03 67.79 C 105.45 68.96 104.75 70.04 103.93 71.03 C 103.63 69.80 103.34 68.57 103.06 67.33 C 100.79 67.88 100.41 68.68 99.18 70.49 C 98.15 67.85 98.74 67.94 95.80 67.35 C 95.55 68.53 95.30 69.72 95.03 70.90 C 94.15 70.02 93.40 69.01 92.77 67.88 C 92.01 67.75 91.25 67.62 90.49 67.50 C 90.57 65.41 90.60 63.41 90.97 61.35 C 91.90 60.22 92.54 58.88 92.88 57.34 C 89.54 57.42 89.44 58.31 87.75 60.75 C 87.14 59.73 86.53 58.70 85.92 57.68 C 84.94 57.64 83.96 57.60 82.98 57.56 C 82.39 58.56 81.78 59.55 81.16 60.54 L 80.15 59.84 C 79.88 59.08 79.61 58.32 79.34 57.56 C 78.36 57.57 77.38 57.60 76.40 57.66 C 74.35 58.92 74.15 58.97 72.03 57.67 C 71.18 57.63 70.34 57.61 69.50 57.60 C 69.47 58.17 69.44 58.75 69.41 59.32 C 72.75 62.13 71.61 65.14 71.77 69.01 C 71.68 74.26 71.83 79.50 71.74 84.75 C 64.12 84.65 56.50 84.75 48.88 84.69 C 52.61 81.43 56.08 78.57 57.45 73.56 C 59.21 67.79 58.13 62.08 55.39 56.84 C 61.15 52.37 67.04 48.06 72.79 43.56 C 81.69 46.62 91.68 45.44 99.45 40.07 Z" fill="#019ee1"/>
<path d="M 100.96 44.14 L 99.75 46.22 C 101.21 47.84 102.63 49.18 103.14 51.39 C 102.19 52.21 100.66 52.88 100.12 54.05 C 99.83 56.50 100.02 59.02 100.09 61.48 C 101.22 61.32 102.35 61.17 103.48 61.01 C 103.34 62.80 102.83 64.30 102.04 65.90 L 101.76 66.09 C 99.92 65.99 97.15 66.88 95.96 65.06 C 94.69 61.74 96.30 57.28 96.51 53.81 C 96.86 55.40 97.10 57.01 97.38 58.61 C 98.07 57.54 99.43 56.60 98.89 55.18 C 98.18 53.71 97.20 52.34 96.32 50.98 C 96.63 50.31 96.93 49.64 97.24 48.97 L 97.54 48.21 C 97.51 47.32 97.48 46.44 97.44 45.55 C 98.11 44.69 99.28 44.22 100.96 44.14 Z" fill="#a29933"/>
<path d="M 94.56 46.59 C 94.58 47.47 94.59 48.36 94.59 49.25 C 93.92 49.67 93.25 50.09 92.58 50.52 C 90.63 49.25 90.38 49.12 90.55 46.59 C 91.90 46.30 93.22 46.13 94.56 46.59 Z" fill="#fff506"/>
<path d="M 94.56 46.59 C 95.56 47.12 96.55 47.66 97.54 48.21 L 97.24 48.97 C 96.93 49.64 96.63 50.31 96.32 50.98 L 95.99 51.82 C 94.85 51.38 93.71 50.95 92.58 50.52 C 93.25 50.09 93.92 49.67 94.59 49.25 C 94.59 48.36 94.58 47.47 94.56 46.59 Z" fill="#2590a5"/>
<path d="M 101.76 49.71 C 101.30 50.95 99.90 52.11 99.08 53.18 C 98.59 52.39 98.10 51.60 97.63 50.79 C 98.96 49.99 100.43 47.68 101.76 49.71 Z" fill="#ebda2a"/>
<path d="M 96.32 50.98 C 97.20 52.34 98.18 53.71 98.89 55.18 C 99.43 56.60 98.07 57.54 97.38 58.61 C 97.10 57.01 96.86 55.40 96.51 53.81 L 95.99 51.82 L 96.32 50.98 Z" fill="#d4d82c"/>
<path d="M 103.14 51.39 L 103.36 53.01 C 102.12 53.44 101.87 54.02 102.61 54.76 L 103.42 54.79 C 103.38 56.19 103.37 57.60 103.40 59.01 C 101.04 58.07 101.16 60.96 103.43 59.81 L 103.48 61.01 C 102.35 61.17 101.22 61.32 100.09 61.48 C 100.02 59.02 99.83 56.50 100.12 54.05 C 100.66 52.88 102.19 52.21 103.14 51.39 Z" fill="#ccc027"/>
<path d="M 103.36 53.01 L 103.42 54.79 L 102.61 54.76 C 101.87 54.02 102.12 53.44 103.36 53.01 Z" fill="#fef422"/>
<path d="M 69.50 57.60 C 70.34 57.61 71.18 57.63 72.03 57.67 C 74.15 58.97 74.35 58.92 76.40 57.66 C 77.38 57.60 78.36 57.57 79.34 57.56 C 79.61 58.32 79.88 59.08 80.15 59.84 C 79.41 59.22 78.68 58.59 77.94 57.96 C 76.70 58.52 75.50 59.45 74.16 59.73 C 72.58 59.19 71.18 58.13 69.56 57.60 C 70.62 59.60 71.34 61.32 73.94 61.30 C 79.62 61.33 85.29 61.21 90.97 61.35 C 90.60 63.41 90.57 65.41 90.49 67.50 C 91.25 67.62 92.01 67.75 92.77 67.88 C 93.40 69.01 94.15 70.02 95.03 70.90 C 95.30 69.72 95.55 68.53 95.80 67.35 C 98.74 67.94 98.15 67.85 99.18 70.49 C 100.41 68.68 100.79 67.88 103.06 67.33 C 103.34 68.57 103.63 69.80 103.93 71.03 C 104.75 70.04 105.45 68.96 106.03 67.79 C 106.83 67.74 107.62 67.68 108.41 67.64 C 108.38 65.58 108.37 63.49 108.19 61.45 C 110.46 60.45 109.74 57.74 107.27 58.13 C 107.08 59.00 107.17 59.91 107.56 60.87 C 106.78 59.92 106.46 58.81 106.06 57.67 C 107.17 57.61 108.29 57.55 109.40 57.50 C 109.93 58.68 110.46 59.86 111.00 61.04 C 111.68 59.90 112.36 58.75 113.03 57.61 C 114.14 57.57 115.24 57.54 116.35 57.52 C 116.63 58.28 116.92 59.03 117.22 59.79 C 116.46 59.07 115.68 58.38 114.87 57.72 C 112.84 58.21 112.85 59.63 111.99 61.25 C 117.41 61.40 122.79 60.97 128.21 60.83 C 127.43 67.83 128.10 74.96 127.80 82.00 C 125.22 81.64 124.94 81.88 123.38 83.80 C 123.20 80.80 121.23 81.86 119.06 81.86 C 118.48 82.53 117.92 83.22 117.39 83.93 C 116.96 80.65 114.57 82.20 112.18 81.79 C 111.95 82.55 111.72 83.31 111.49 84.06 C 110.95 83.09 110.41 82.12 109.87 81.15 C 109.51 82.36 109.16 83.58 108.81 84.80 L 108.20 84.80 C 108.16 83.76 108.11 82.73 108.06 81.69 C 106.88 81.72 105.71 81.74 104.53 81.77 C 104.03 80.97 103.52 80.16 103.02 79.36 C 102.99 81.14 102.97 82.92 102.96 84.71 C 100.87 84.52 98.31 84.82 96.39 83.89 C 95.62 83.27 95.40 82.31 95.71 81.01 C 95.88 78.27 96.15 75.58 97.03 72.96 C 98.68 72.98 100.34 73.00 102.00 73.03 C 102.50 75.46 102.83 77.85 104.09 80.04 C 104.23 78.13 104.31 76.23 104.35 74.32 C 105.73 74.31 107.11 74.29 108.49 74.27 L 107.79 71.89 C 106.14 71.87 104.48 72.00 102.83 72.01 C 98.96 70.94 95.25 72.29 91.24 72.02 L 90.64 74.35 C 92.02 74.25 93.40 74.15 94.78 74.04 C 94.62 77.59 94.50 81.09 95.09 84.61 C 94.74 83.53 94.40 82.44 94.04 81.37 C 91.67 81.92 91.33 81.94 90.16 84.09 C 89.80 83.11 89.43 82.14 89.06 81.16 C 88.35 82.15 87.65 83.13 86.95 84.11 C 86.73 83.30 86.52 82.49 86.31 81.68 C 84.87 81.75 83.43 81.81 81.98 81.87 C 81.85 82.59 81.72 83.30 81.59 84.01 C 80.09 80.85 76.86 80.66 75.39 83.96 C 75.01 82.39 74.17 81.65 72.87 81.74 C 72.70 82.74 72.56 83.75 72.43 84.76 L 71.74 84.75 C 71.83 79.50 71.68 74.26 71.77 69.01 C 71.61 65.14 72.75 62.13 69.41 59.32 C 69.44 58.75 69.47 58.17 69.50 57.60 Z" fill="#020101"/>
<path d="M 69.56 57.60 C 71.18 58.13 72.58 59.19 74.16 59.73 C 75.50 59.45 76.70 58.52 77.94 57.96 C 78.68 58.59 79.41 59.22 80.15 59.84 L 81.16 60.54 C 81.78 59.55 82.39 58.56 82.98 57.56 C 83.96 57.60 84.94 57.64 85.92 57.68 C 86.53 58.70 87.14 59.73 87.75 60.75 C 89.44 58.31 89.54 57.42 92.88 57.34 C 92.54 58.88 91.90 60.22 90.97 61.35 C 85.29 61.21 79.62 61.33 73.94 61.30 C 71.34 61.32 70.62 59.60 69.56 57.60 Z" fill="#9e2f31"/>
<path d="M 107.27 58.13 C 109.74 57.74 110.46 60.45 108.19 61.45 L 107.56 60.87 C 107.17 59.91 107.08 59.00 107.27 58.13 Z" fill="#7e3232"/>
<path d="M 114.87 57.72 C 115.68 58.38 116.46 59.07 117.22 59.79 L 118.07 60.80 C 118.68 59.71 119.28 58.62 119.87 57.52 C 120.87 57.59 121.87 57.67 122.87 57.75 C 123.25 58.52 123.67 59.28 124.11 60.02 C 125.36 61.20 126.08 58.20 126.82 57.50 C 127.88 57.57 128.93 57.64 129.99 57.71 C 129.88 58.63 129.77 59.56 129.66 60.48 L 128.21 60.83 C 122.79 60.97 117.41 61.40 111.99 61.25 C 112.85 59.63 112.84 58.21 114.87 57.72 Z" fill="#9c312d"/>
<path d="M 96.07 59.65 C 96.81 59.06 98.16 59.45 99.02 59.55 C 99.06 60.26 98.96 60.90 98.71 61.50 C 97.74 62.52 95.57 60.85 96.07 59.65 Z" fill="#e1db23"/>
<path d="M 103.40 59.01 L 103.43 59.81 C 101.16 60.96 101.04 58.07 103.40 59.01 Z" fill="#948316"/>
<path d="M 73.07 62.47 C 74.85 61.37 76.28 63.93 74.00 64.38 C 72.78 64.07 72.48 63.44 73.07 62.47 Z" fill="#863637"/>
<path d="M 81.13 64.13 C 79.06 64.80 76.93 64.95 75.57 62.91 C 77.97 62.09 80.63 60.21 81.13 64.13 Z" fill="#873136"/>
<path d="M 86.73 62.87 C 86.65 65.55 83.51 64.92 81.93 64.14 C 81.30 60.87 85.24 61.44 86.73 62.87 Z" fill="#873334"/>
<path d="M 88.16 62.12 C 89.83 61.75 90.76 63.68 89.05 64.42 C 87.41 64.71 86.40 62.85 88.16 62.12 Z" fill="#7d2f31"/>
<path d="M 96.07 62.25 C 97.25 61.68 98.51 63.69 97.87 64.66 C 96.74 65.13 95.37 63.22 96.07 62.25 Z" fill="#e5dd25"/>
<path d="M 116.06 61.67 C 116.61 62.53 117.06 63.45 117.43 64.43 C 115.81 64.45 114.20 64.47 112.59 64.47 C 113.18 61.45 113.34 62.03 116.06 61.67 Z" fill="#883536"/>
<path d="M 123.21 63.56 L 121.89 64.69 C 120.91 64.73 119.92 64.69 118.92 64.56 L 117.56 62.98 C 119.18 61.02 122.01 61.38 123.21 63.56 Z" fill="#823234"/>
<path d="M 124.31 62.38 C 125.38 60.76 127.32 62.06 126.99 63.72 C 126.09 64.04 125.15 64.23 124.16 64.27 L 124.31 62.38 Z" fill="#8d353b"/>
<path d="M 110.92 64.22 L 109.31 63.64 C 109.17 61.47 112.76 62.44 110.92 64.22 Z" fill="#933638"/>
<path d="M 109.31 63.64 L 110.92 64.22 C 111.48 64.32 112.03 64.40 112.59 64.47 C 114.20 64.47 115.81 64.45 117.43 64.43 C 117.93 64.47 118.43 64.51 118.92 64.56 C 119.92 64.69 120.91 64.73 121.89 64.69 C 122.65 64.57 123.41 64.43 124.16 64.27 C 125.15 64.23 126.09 64.04 126.99 63.72 L 126.88 66.48 C 125.03 66.00 123.22 66.14 121.33 66.23 L 120.53 65.12 C 120.27 65.80 120.00 66.48 119.73 67.16 C 117.54 66.97 115.99 67.24 114.42 65.44 L 113.82 66.20 C 112.22 66.12 110.72 65.98 109.15 66.42 L 109.31 63.64 Z" fill="#532525"/>
<path d="M 102.04 65.90 L 101.96 66.08 L 101.76 66.09 L 102.04 65.90 Z" fill="#dfd945"/>
<path d="M 73.17 66.30 C 74.46 65.84 76.42 65.32 77.61 66.25 C 77.54 67.91 73.94 67.36 73.17 66.30 Z" fill="#a83a3e"/>
<path d="M 85.18 66.28 C 86.47 65.81 88.40 65.32 89.59 66.24 C 89.53 67.90 85.94 67.37 85.18 66.28 Z" fill="#a6353b"/>
<path d="M 109.15 66.42 C 110.72 65.98 112.22 66.12 113.82 66.20 C 112.73 68.00 110.78 67.74 109.13 66.92 L 109.15 66.42 Z" fill="#a9393f"/>
<path d="M 121.33 66.23 C 123.22 66.14 125.03 66.00 126.88 66.48 L 126.87 66.91 C 125.12 67.64 122.46 68.24 121.33 66.23 Z" fill="#a23a3d"/>
<path d="M 83.05 68.61 C 82.61 69.95 82.15 71.27 81.66 72.59 C 80.95 71.32 80.26 70.04 79.61 68.73 C 80.75 68.66 81.90 68.61 83.05 68.61 Z" fill="#8a898a"/>
<path d="M 106.30 68.38 C 108.00 67.25 108.90 69.69 107.85 70.86 C 106.15 71.94 105.13 69.57 106.30 68.38 Z" fill="#7c2c2d"/>
<path d="M 118.74 68.58 C 119.61 70.10 117.89 71.38 117.26 72.66 C 116.99 71.22 116.72 69.79 116.53 68.33 C 117.27 68.39 118.00 68.47 118.74 68.58 Z" fill="#999898"/>
<path d="M 73.10 68.97 C 74.87 67.79 76.17 70.47 73.98 70.91 C 72.80 70.63 72.51 69.98 73.10 68.97 Z" fill="#963a39"/>
<path d="M 76.94 69.28 L 77.77 69.27 L 78.20 69.99 L 77.80 70.71 L 76.97 70.71 L 76.54 70.00 L 76.94 69.28 Z" fill="#a34040"/>
<path d="M 85.03 69.26 L 85.86 69.26 L 86.27 69.98 L 85.84 70.69 L 85.00 70.69 L 84.60 69.98 L 85.03 69.26 Z" fill="#a24044"/>
<path d="M 87.90 68.98 C 89.68 67.74 90.80 70.54 88.74 70.98 C 87.59 70.69 87.32 70.02 87.90 68.98 Z" fill="#8d3637"/>
<path d="M 91.30 69.27 L 92.12 69.26 L 92.54 69.98 L 92.14 70.71 L 91.32 70.72 L 90.90 70.00 L 91.30 69.27 Z" fill="#a23b3b"/>
<path d="M 109.93 69.27 L 110.78 69.27 L 111.22 69.97 L 110.79 70.67 L 109.94 70.67 L 109.51 69.97 L 109.93 69.27 Z" fill="#a4383e"/>
<path d="M 112.83 69.00 C 114.51 67.86 115.77 70.75 113.71 71.09 C 112.58 70.73 112.29 70.03 112.83 69.00 Z" fill="#7b3635"/>
<path d="M 121.23 68.95 C 123.00 67.64 123.96 70.62 122.00 71.04 C 120.92 70.73 120.67 70.04 121.23 68.95 Z" fill="#94383e"/>
<path d="M 124.33 69.04 C 125.53 67.75 127.81 68.86 126.78 70.57 C 125.58 71.73 123.38 70.76 124.33 69.04 Z" fill="#933539"/>
<path d="M 102.83 72.01 C 104.48 72.00 106.14 71.87 107.79 71.89 L 108.49 74.27 C 107.11 74.29 105.73 74.31 104.35 74.32 C 104.31 76.23 104.23 78.13 104.09 80.04 C 102.83 77.85 102.50 75.46 102.00 73.03 C 100.34 73.00 98.68 72.98 97.03 72.96 C 96.15 75.58 95.88 78.27 95.71 81.01 C 95.40 82.31 95.62 83.27 96.39 83.89 C 98.31 84.82 100.87 84.52 102.96 84.71 C 102.97 82.92 102.99 81.14 103.02 79.36 C 103.52 80.16 104.03 80.97 104.53 81.77 C 105.71 81.74 106.88 81.72 108.06 81.69 C 108.11 82.73 108.16 83.76 108.20 84.80 C 103.84 84.80 99.48 84.79 95.12 84.72 L 95.09 84.61 C 94.50 81.09 94.62 77.59 94.78 74.04 C 93.40 74.15 92.02 74.25 90.64 74.35 L 91.24 72.02 C 95.25 72.29 98.96 70.94 102.83 72.01 Z" fill="#953033"/>
<path d="M 72.75 71.75 C 75.57 71.36 78.00 72.25 80.37 73.65 C 77.72 74.04 75.06 74.32 72.38 74.41 L 72.75 71.75 Z" fill="#813433"/>
<path d="M 84.18 72.11 C 85.97 72.35 84.83 74.86 83.39 73.93 C 82.95 73.07 83.21 72.46 84.18 72.11 Z" fill="#7a3a3f"/>
<path d="M 85.92 71.89 C 87.89 71.70 89.07 71.23 90.55 72.89 C 89.81 74.95 87.43 74.10 85.79 74.10 L 85.92 71.89 Z" fill="#8e373b"/>
<path d="M 113.04 71.68 C 114.96 71.63 115.35 72.64 116.44 73.94 C 113.90 74.15 111.35 74.25 108.80 74.13 C 109.05 71.11 110.67 71.80 113.04 71.68 Z" fill="#8c3636"/>
<path d="M 126.84 71.89 L 127.43 74.46 C 124.55 74.31 121.67 74.12 118.81 73.80 C 121.04 71.05 123.66 71.59 126.84 71.89 Z" fill="#8f3637"/>
<path d="M 73.01 75.42 C 74.81 74.22 75.94 76.97 73.85 77.42 C 72.70 77.11 72.42 76.44 73.01 75.42 Z" fill="#923639"/>
<path d="M 81.13 77.13 C 79.65 77.97 77.39 77.37 75.73 77.35 C 74.71 73.94 81.65 73.92 81.13 77.13 Z" fill="#853235"/>
<path d="M 87.02 74.83 C 89.45 75.02 89.65 75.02 90.69 77.34 C 87.97 77.36 84.50 78.09 81.95 77.15 C 81.31 74.04 85.17 74.96 87.02 74.83 Z" fill="#873134"/>
<path d="M 91.28 75.46 C 92.40 74.42 94.86 75.31 93.86 76.99 C 92.70 78.13 90.22 77.17 91.28 75.46 Z" fill="#8d3236"/>
<path d="M 105.21 75.46 C 106.36 74.38 108.75 75.24 107.79 76.96 C 106.65 78.15 104.17 77.16 105.21 75.46 Z" fill="#8d3737"/>
<path d="M 109.20 75.36 C 110.09 74.73 110.70 74.99 111.05 76.15 C 111.00 78.40 107.85 77.26 109.20 75.36 Z" fill="#763136"/>
<path d="M 117.82 77.41 C 115.74 77.18 112.59 78.65 111.58 76.11 C 113.80 73.84 116.72 74.29 117.82 77.41 Z" fill="#8a3237"/>
<path d="M 119.21 75.21 C 120.62 74.11 125.00 75.08 123.31 77.34 C 121.43 77.76 119.85 77.72 118.00 77.20 C 117.48 76.29 117.88 75.63 119.21 75.21 Z" fill="#893437"/>
<path d="M 124.34 75.43 C 125.57 74.27 127.75 75.24 126.81 76.99 C 125.66 78.22 123.31 77.08 124.34 75.43 Z" fill="#833537"/>
<path d="M 73.65 78.45 C 77.13 78.29 80.69 78.26 84.15 78.69 C 84.50 79.67 84.12 80.45 83.01 81.02 C 80.32 80.92 77.68 80.71 74.98 80.95 C 73.98 81.14 73.11 80.79 72.37 79.88 L 73.65 78.45 Z" fill="#802f33"/>
<path d="M 84.89 78.54 C 86.76 78.23 88.42 78.26 90.27 78.67 C 91.19 81.99 86.74 80.99 84.90 81.02 L 84.89 78.54 Z" fill="#833035"/>
<path d="M 91.45 79.23 C 92.44 77.91 94.74 79.34 92.95 80.40 C 91.81 80.52 91.31 80.13 91.45 79.23 Z" fill="#a43336"/>
<path d="M 105.10 78.96 C 106.24 77.83 108.79 78.79 107.75 80.50 C 106.66 81.50 104.14 80.61 105.10 78.96 Z" fill="#893633"/>
<path d="M 108.21 78.72 C 109.98 78.49 111.75 78.34 113.53 78.27 C 114.50 79.62 114.00 81.77 111.99 81.18 C 109.69 81.03 109.40 80.69 108.21 78.72 Z" fill="#843133"/>
<path d="M 120.32 79.87 C 120.09 82.05 115.31 81.42 114.81 79.92 C 115.04 77.84 120.50 77.29 120.32 79.87 Z" fill="#833133"/>
<path d="M 127.31 78.53 L 127.06 81.25 C 125.89 81.18 121.41 81.39 121.48 79.82 C 122.44 77.21 125.19 78.57 127.31 78.53 Z" fill="#883235"/>
<path d="M 72.87 81.74 C 74.17 81.65 75.01 82.39 75.39 83.96 C 76.86 80.66 80.09 80.85 81.59 84.01 C 81.72 83.30 81.85 82.59 81.98 81.87 C 83.43 81.81 84.87 81.75 86.31 81.68 C 86.52 82.49 86.73 83.30 86.95 84.11 C 87.65 83.13 88.35 82.15 89.06 81.16 C 89.43 82.14 89.80 83.11 90.16 84.09 C 91.33 81.94 91.67 81.92 94.04 81.37 C 94.40 82.44 94.74 83.53 95.09 84.61 L 95.12 84.72 C 87.56 84.92 79.99 84.85 72.43 84.76 C 72.56 83.75 72.70 82.74 72.87 81.74 Z" fill="#953035"/>
<path d="M 109.87 81.15 C 110.41 82.12 110.95 83.09 111.49 84.06 C 111.72 83.31 111.95 82.55 112.18 81.79 C 114.57 82.20 116.96 80.65 117.39 83.93 C 117.92 83.22 118.48 82.53 119.06 81.86 C 121.23 81.86 123.20 80.80 123.38 83.80 C 124.94 81.88 125.22 81.64 127.80 82.00 C 127.80 82.92 127.80 83.84 127.79 84.76 C 121.47 84.88 115.14 84.83 108.81 84.80 C 109.16 83.58 109.51 82.36 109.87 81.15 Z" fill="#953032"/>
<path d="M 45.69 86.78 C 80.73 86.91 115.81 86.63 150.85 86.92 C 139.80 95.05 127.98 102.17 116.86 110.21 C 118.27 106.33 119.58 101.84 118.93 97.68 C 119.36 97.05 119.78 96.41 120.19 95.76 C 119.73 94.67 118.68 93.84 117.94 92.94 C 117.13 90.43 113.07 90.58 110.92 89.74 C 107.06 90.83 104.16 91.49 100.08 91.26 C 97.35 92.61 94.42 93.82 92.00 95.69 C 92.54 97.24 93.06 98.80 93.56 100.36 C 90.91 100.11 88.74 98.38 86.43 100.25 C 88.85 102.54 89.77 103.21 93.20 103.20 C 94.13 106.53 95.64 105.17 98.42 105.58 C 96.37 106.25 94.30 106.83 92.24 107.49 C 90.33 106.00 88.41 104.99 87.19 102.80 C 85.64 100.50 84.95 97.81 83.58 95.43 C 81.73 92.72 77.60 93.91 74.82 93.77 C 75.30 94.70 75.78 95.62 76.27 96.55 L 74.01 96.97 C 75.91 100.74 77.31 102.43 81.31 104.05 C 80.96 104.67 80.62 105.30 80.27 105.92 C 81.38 107.35 82.46 108.81 83.43 110.34 C 80.35 109.95 76.59 109.89 74.05 107.93 C 72.53 107.02 71.37 105.79 69.45 106.48 C 66.40 107.60 65.83 110.20 64.35 112.76 L 67.14 111.89 C 66.58 112.75 66.01 113.60 65.44 114.46 C 69.05 115.85 71.21 115.84 74.97 115.14 C 76.23 116.13 77.35 117.30 78.63 118.27 C 81.12 120.02 84.54 120.05 87.02 121.07 C 88.13 124.02 85.74 125.08 84.28 127.15 C 85.32 128.86 86.78 128.68 88.55 129.16 C 78.91 135.28 69.63 141.99 60.01 148.14 C 50.62 128.96 45.15 108.23 45.69 86.78 Z" fill="#fefefe"/>
<path d="M 153.80 87.72 C 154.16 103.75 150.99 119.45 145.42 134.42 C 136.13 159.38 119.88 180.51 99.81 197.80 C 84.01 184.47 70.71 168.33 61.04 150.03 C 70.98 143.24 81.12 136.71 90.95 129.78 C 90.16 129.55 89.35 129.35 88.55 129.16 C 86.78 128.68 85.32 128.86 84.28 127.15 C 85.74 125.08 88.13 124.02 87.02 121.07 C 84.54 120.05 81.12 120.02 78.63 118.27 C 77.35 117.30 76.23 116.13 74.97 115.14 C 71.21 115.84 69.05 115.85 65.44 114.46 C 66.01 113.60 66.58 112.75 67.14 111.89 L 64.35 112.76 C 65.83 110.20 66.40 107.60 69.45 106.48 C 71.37 105.79 72.53 107.02 74.05 107.93 C 76.59 109.89 80.35 109.95 83.43 110.34 C 82.46 108.81 81.38 107.35 80.27 105.92 C 80.62 105.30 80.96 104.67 81.31 104.05 C 77.31 102.43 75.91 100.74 74.01 96.97 L 76.27 96.55 C 75.78 95.62 75.30 94.70 74.82 93.77 C 77.60 93.91 81.73 92.72 83.58 95.43 C 84.95 97.81 85.64 100.50 87.19 102.80 C 88.41 104.99 90.33 106.00 92.24 107.49 C 94.30 106.83 96.37 106.25 98.42 105.58 C 95.64 105.17 94.13 106.53 93.20 103.20 C 89.77 103.21 88.85 102.54 86.43 100.25 C 88.74 98.38 90.91 100.11 93.56 100.36 C 93.06 98.80 92.54 97.24 92.00 95.69 C 94.42 93.82 97.35 92.61 100.08 91.26 C 104.16 91.49 107.06 90.83 110.92 89.74 C 113.07 90.58 117.13 90.43 117.94 92.94 C 118.68 93.84 119.73 94.67 120.19 95.76 C 119.78 96.41 119.36 97.05 118.93 97.68 C 119.58 101.84 118.27 106.33 116.86 110.21 C 116.28 111.33 115.70 112.46 115.13 113.59 C 128.10 105.08 140.83 96.23 153.80 87.72 Z" fill="#000000"/>
<path d="M 110.28 90.80 C 114.43 90.93 116.58 93.33 119.35 95.99 L 117.17 96.38 C 118.56 100.63 117.45 104.44 116.62 108.64 C 115.72 107.54 114.84 106.42 113.95 105.31 C 114.66 106.51 115.36 107.72 116.06 108.92 C 115.56 110.08 115.06 111.24 114.55 112.40 C 113.61 111.44 112.67 110.49 111.73 109.53 C 111.20 110.03 110.67 110.52 110.15 111.02 C 109.92 109.89 109.70 108.77 109.46 107.65 C 109.27 108.76 109.10 109.87 108.94 110.98 C 107.99 110.95 107.24 111.35 106.72 112.18 L 106.04 113.03 C 103.85 113.61 101.81 113.47 99.60 113.12 C 101.58 111.16 103.88 109.60 105.87 107.65 C 104.81 108.02 103.76 108.40 102.70 108.79 C 102.87 107.84 103.03 106.88 103.19 105.93 C 101.76 106.52 100.34 107.13 98.92 107.75 C 99.37 108.64 99.82 109.53 100.27 110.42 C 97.96 112.41 95.42 111.01 92.62 111.02 C 95.52 112.64 98.36 113.43 100.59 115.79 C 101.40 115.45 102.22 115.11 103.04 114.76 C 103.83 115.17 104.63 115.58 105.42 115.99 C 105.51 115.26 105.62 114.53 105.77 113.80 L 108.31 114.04 C 107.78 114.92 107.81 115.76 108.41 116.57 C 110.14 117.64 110.22 115.31 109.96 114.19 L 111.06 113.79 L 112.36 112.77 L 113.06 113.96 C 112.80 114.99 112.52 116.00 112.21 117.00 C 111.67 118.13 111.14 119.26 110.60 120.39 C 110.78 121.13 110.95 121.87 111.13 122.62 C 109.64 121.83 108.16 121.02 106.69 120.19 C 108.22 121.88 109.71 123.59 111.09 125.40 C 107.75 125.09 105.97 124.00 103.53 121.88 C 104.36 123.63 105.21 125.37 106.05 127.12 C 104.76 126.51 103.46 125.91 102.17 125.30 C 102.04 123.08 102.18 120.91 102.45 118.70 C 101.72 121.41 101.28 124.16 100.91 126.94 C 98.73 125.33 98.48 124.50 98.09 121.88 C 98.03 122.86 97.96 123.83 97.90 124.81 C 97.36 124.91 96.82 125.01 96.28 125.11 C 98.12 125.68 99.80 126.54 101.48 127.47 C 100.13 129.16 99.02 130.35 96.93 128.66 C 95.70 129.34 94.48 130.02 93.25 130.71 L 93.43 128.80 C 90.93 129.32 88.24 127.44 85.60 127.42 C 86.46 126.31 87.43 125.18 88.13 123.96 C 88.79 121.50 87.16 119.99 86.18 117.90 C 88.96 116.06 90.73 116.52 93.66 117.69 C 92.73 118.71 91.80 119.72 90.87 120.74 C 93.93 120.39 96.74 120.57 99.41 118.80 C 96.98 119.44 94.57 120.08 92.08 120.40 C 93.78 118.14 94.93 116.32 97.92 115.76 C 96.08 115.96 95.12 116.39 93.52 117.39 C 92.35 116.83 91.19 116.26 90.03 115.68 C 88.70 116.03 87.35 116.37 86.00 116.65 C 86.01 117.47 86.01 118.28 85.96 119.09 L 81.77 119.12 C 82.51 118.53 83.26 117.95 84.00 117.37 C 82.37 117.68 80.73 117.94 79.09 118.19 C 79.65 117.58 80.21 116.97 80.77 116.36 C 79.59 116.30 78.41 116.23 77.23 116.16 C 77.66 115.62 78.09 115.08 78.53 114.54 C 75.50 114.17 72.66 114.45 69.65 114.84 L 67.49 112.50 C 68.95 112.37 70.41 112.26 71.87 112.16 C 70.29 111.97 68.70 111.78 67.12 111.57 C 67.60 110.29 68.13 109.03 68.71 107.80 C 71.11 106.37 73.85 109.31 76.06 110.16 C 75.85 110.63 75.64 111.11 75.43 111.59 C 76.30 112.01 77.17 112.40 78.08 112.71 C 77.84 112.18 77.04 111.45 77.70 110.95 C 81.11 110.85 84.62 111.65 88.05 111.81 C 86.50 111.19 84.96 110.57 83.42 109.94 L 85.60 108.98 C 84.33 108.24 83.08 107.49 81.83 106.74 C 82.12 106.14 82.42 105.54 82.72 104.94 C 82.26 104.26 81.80 103.58 81.34 102.90 C 78.39 101.62 77.20 100.51 75.60 97.74 C 77.15 98.04 78.67 98.38 80.20 98.77 C 77.90 97.53 76.89 97.54 76.69 94.46 C 78.25 94.93 79.33 95.43 80.53 96.53 C 80.49 95.81 80.45 95.10 80.41 94.38 C 84.16 96.33 83.86 99.80 86.05 102.98 C 87.41 105.33 89.47 106.76 91.55 108.42 C 90.37 108.73 89.19 109.03 88.00 109.32 C 89.63 111.10 91.03 111.88 90.58 114.58 C 91.61 114.46 92.64 114.34 93.67 114.22 C 92.96 114.05 92.24 113.87 91.53 113.69 C 90.79 112.31 90.05 110.92 89.31 109.54 C 90.28 109.34 91.25 109.14 92.22 108.93 C 94.54 107.74 97.07 107.12 99.40 105.96 C 98.49 103.62 96.65 104.82 94.65 104.54 L 94.78 101.57 C 96.54 102.27 98.24 103.02 100.05 103.52 C 102.24 103.04 100.09 100.65 99.47 99.66 C 97.92 99.89 96.37 100.10 94.82 100.31 C 94.32 98.77 93.81 97.23 93.30 95.69 C 95.69 94.63 98.08 93.58 100.32 92.21 C 104.10 92.54 106.72 92.18 110.28 90.80 Z" fill="#fdcc06"/>
<path d="M 109.82 92.99 C 111.49 93.07 113.06 92.24 114.00 94.10 C 114.60 96.57 112.31 97.17 110.87 98.69 C 109.09 101.80 105.98 100.69 103.17 102.62 C 102.67 101.64 102.17 100.65 101.67 99.66 C 103.67 99.73 105.73 99.84 107.72 99.58 C 108.80 97.78 109.61 95.87 110.99 94.26 C 110.83 95.30 110.65 96.33 110.47 97.37 C 111.33 96.58 112.19 95.80 113.06 95.02 C 111.85 94.50 110.77 93.82 109.82 92.99 Z" fill="#c49b24"/>
<path d="M 102.81 94.29 C 104.04 96.62 100.31 96.59 99.56 94.91 C 100.45 93.71 101.53 93.50 102.81 94.29 Z" fill="#a48929"/>
<path d="M 115.48 99.11 C 114.74 102.19 113.70 104.56 111.84 107.11 C 110.50 104.67 111.78 103.14 112.88 100.99 C 113.74 100.35 114.60 99.73 115.48 99.11 Z" fill="#937821"/>
<path d="M 108.24 104.00 C 109.54 103.15 111.01 105.69 109.19 105.87 C 108.18 105.46 107.86 104.84 108.24 104.00 Z" fill="#8a661f"/>
<path d="M 103.19 105.93 C 103.03 106.88 102.87 107.84 102.70 108.79 C 103.76 108.40 104.81 108.02 105.87 107.65 C 103.88 109.60 101.58 111.16 99.60 113.12 C 101.81 113.47 103.85 113.61 106.04 113.03 L 105.77 113.80 C 105.62 114.53 105.51 115.26 105.42 115.99 C 104.63 115.58 103.83 115.17 103.04 114.76 C 102.22 115.11 101.40 115.45 100.59 115.79 C 98.36 113.43 95.52 112.64 92.62 111.02 C 95.42 111.01 97.96 112.41 100.27 110.42 C 99.82 109.53 99.37 108.64 98.92 107.75 C 100.34 107.13 101.76 106.52 103.19 105.93 Z" fill="#a38226"/>
<path d="M 109.46 107.65 C 109.70 108.77 109.92 109.89 110.15 111.02 C 110.67 110.52 111.20 110.03 111.73 109.53 C 112.67 110.49 113.61 111.44 114.55 112.40 C 113.85 113.97 113.05 115.50 112.21 117.00 C 112.52 116.00 112.80 114.99 113.06 113.96 L 112.36 112.77 L 111.92 112.09 C 110.83 112.11 110.54 112.67 111.06 113.79 L 109.96 114.19 L 108.31 114.04 L 105.77 113.80 L 106.04 113.03 L 106.72 112.18 C 107.92 113.83 108.98 112.54 108.94 110.98 C 109.10 109.87 109.27 108.76 109.46 107.65 Z" fill="#bc991e"/>
<path d="M 108.94 110.98 C 108.98 112.54 107.92 113.83 106.72 112.18 C 107.24 111.35 107.99 110.95 108.94 110.98 Z" fill="#876518"/>
<path d="M 125.69 111.37 C 127.09 112.12 128.34 113.25 129.60 114.22 C 128.90 114.65 128.19 115.09 127.49 115.53 C 128.03 115.93 128.57 116.33 129.11 116.73 C 128.34 117.13 127.58 117.53 126.81 117.93 C 125.49 117.35 124.20 116.69 122.92 116.05 C 122.88 114.96 122.83 113.87 122.79 112.78 C 121.35 113.56 119.92 114.35 118.53 115.19 L 118.30 113.50 C 120.09 111.37 123.04 110.55 125.69 111.37 Z" fill="#ecc10d"/>
<path d="M 111.92 112.09 L 112.36 112.77 L 111.06 113.79 C 110.54 112.67 110.83 112.11 111.92 112.09 Z" fill="#795c14"/>
<path d="M 108.31 114.04 L 109.96 114.19 C 110.22 115.31 110.14 117.64 108.41 116.57 C 107.81 115.76 107.78 114.92 108.31 114.04 Z" fill="#a1801c"/>
<path d="M 118.30 113.50 L 118.53 115.19 C 118.11 121.22 122.24 125.23 122.67 131.00 C 122.70 133.25 122.44 135.60 121.75 137.74 C 120.85 140.20 118.16 141.07 116.08 142.30 C 116.61 144.37 116.83 145.99 116.24 148.09 C 117.05 150.62 119.89 153.04 119.67 155.69 C 118.44 158.46 115.52 160.44 114.12 163.12 C 113.63 164.77 113.47 166.51 113.04 168.16 C 111.43 169.14 109.02 168.37 107.23 168.25 C 105.84 167.37 104.35 166.74 102.83 166.12 C 104.33 162.70 106.85 163.20 109.73 161.78 C 111.38 160.51 112.53 158.45 113.64 156.72 L 113.96 155.90 C 113.83 154.73 113.68 153.56 113.51 152.40 C 112.39 151.90 111.27 151.41 110.19 150.83 C 110.44 147.34 111.58 144.22 110.80 140.68 C 110.06 142.93 109.36 145.20 108.66 147.47 C 107.87 146.19 107.09 144.90 106.32 143.62 C 105.23 144.56 104.14 145.50 103.04 146.43 C 101.23 142.40 102.66 139.85 104.05 136.07 C 103.51 135.38 102.95 134.71 102.38 134.05 L 101.58 133.16 C 103.72 133.92 105.88 134.63 108.05 135.33 C 106.44 132.31 104.93 130.69 101.74 129.16 C 101.60 127.84 101.47 126.51 101.34 125.19 C 103.31 126.19 105.27 127.21 107.22 128.25 L 106.42 124.81 C 108.48 125.70 110.43 126.28 111.92 128.07 C 113.93 130.28 114.46 133.30 115.31 136.07 C 117.14 135.55 118.82 135.76 119.66 133.71 C 122.05 127.03 113.40 119.85 118.30 113.50 Z" fill="#fdcc04"/>
<path d="M 129.60 114.22 C 130.00 114.52 130.41 114.83 130.81 115.14 C 130.32 116.02 129.84 116.89 129.36 117.77 C 128.51 117.83 127.66 117.88 126.81 117.93 C 127.58 117.53 128.34 117.13 129.11 116.73 C 128.57 116.33 128.03 115.93 127.49 115.53 C 128.19 115.09 128.90 114.65 129.60 114.22 Z" fill="#836d1e"/>
<path d="M 89.16 119.25 C 89.65 119.75 89.65 119.75 89.16 119.25 Z" fill="#c28e1c"/>
<path d="M 90.21 123.26 C 90.99 122.87 94.04 122.41 93.72 123.94 C 92.61 124.90 91.01 124.35 90.21 123.26 Z" fill="#7e621b"/>
<path d="M 94.57 126.71 C 93.87 127.25 93.05 127.26 92.09 126.75 C 92.21 125.33 94.91 125.07 94.57 126.71 Z" fill="#9e7e11"/>
<path d="M 95.83 129.78 C 97.01 129.24 97.35 129.58 96.85 130.79 C 95.52 131.22 95.18 130.88 95.83 129.78 Z" fill="#fbd32b"/>
<path d="M 101.74 129.16 C 104.93 130.69 106.44 132.31 108.05 135.33 C 105.88 134.63 103.72 133.92 101.58 133.16 C 100.36 132.53 99.16 131.86 97.99 131.15 C 98.89 129.89 100.34 129.58 101.74 129.16 Z" fill="#cfa817"/>
<path d="M 112.10 132.23 L 112.90 132.23 L 113.31 132.97 L 112.91 133.71 L 112.11 133.70 L 111.71 132.97 L 112.10 132.23 Z" fill="#a27e1e"/>
<path d="M 102.38 134.05 C 102.95 134.71 103.51 135.38 104.05 136.07 C 102.66 139.85 101.23 142.40 103.04 146.43 C 104.14 145.50 105.23 144.56 106.32 143.62 C 107.09 144.90 107.87 146.19 108.66 147.47 C 109.36 145.20 110.06 142.93 110.80 140.68 C 111.58 144.22 110.44 147.34 110.19 150.83 C 111.27 151.41 112.39 151.90 113.51 152.40 C 113.68 153.56 113.83 154.73 113.96 155.90 L 113.64 156.72 C 113.42 155.61 113.19 154.50 112.95 153.39 C 110.82 152.53 108.72 151.68 106.89 150.25 C 107.79 150.59 108.70 150.91 109.62 151.23 C 108.75 149.72 107.87 148.23 106.93 146.77 C 106.13 147.34 105.34 147.92 104.56 148.51 C 104.13 148.16 103.69 147.82 103.26 147.47 C 102.47 147.86 101.68 148.26 100.89 148.66 C 101.44 148.14 101.98 147.61 102.52 147.07 C 101.94 146.15 101.37 145.22 100.79 144.29 C 99.01 144.52 97.22 144.73 95.43 144.91 C 96.64 142.36 98.43 141.62 100.90 140.61 C 101.37 139.22 101.84 137.97 101.62 136.46 C 102.04 136.03 102.45 135.59 102.86 135.15 L 102.38 134.05 Z" fill="#a7861b"/>
<path d="M 106.30 136.02 L 107.01 135.59 L 107.74 135.98 L 107.77 136.79 L 107.06 137.22 L 106.32 136.84 L 106.30 136.02 Z" fill="#c09917"/>
<path d="M 101.62 136.46 C 101.84 137.97 101.37 139.22 100.90 140.61 C 98.43 141.62 96.64 142.36 95.43 144.91 C 97.22 144.73 99.01 144.52 100.79 144.29 C 101.37 145.22 101.94 146.15 102.52 147.07 C 101.98 147.61 101.44 148.14 100.89 148.66 L 99.88 149.24 L 99.48 147.19 C 98.90 147.84 98.32 148.49 97.74 149.14 C 96.76 148.66 95.78 148.18 94.79 147.70 C 94.48 150.76 94.04 153.72 93.00 156.63 C 92.42 156.23 91.84 155.83 91.26 155.43 C 90.03 158.36 87.57 161.35 84.99 163.19 C 82.47 163.39 80.13 163.79 78.16 161.91 C 76.82 160.98 75.97 159.80 77.59 158.59 C 80.03 156.39 84.72 158.84 87.01 156.01 C 89.17 153.51 89.27 151.12 87.82 148.21 C 85.70 144.58 87.44 139.75 91.05 137.92 C 94.94 137.27 98.17 138.69 101.62 136.46 Z" fill="#fdcb05"/>
<path d="M 103.12 142.34 L 103.93 142.35 L 104.32 143.08 L 103.90 143.80 L 103.09 143.79 L 102.70 143.06 L 103.12 142.34 Z" fill="#d49c1c"/>
<path d="M 106.93 146.77 C 107.87 148.23 108.75 149.72 109.62 151.23 C 108.70 150.91 107.79 150.59 106.89 150.25 C 106.10 149.69 105.33 149.10 104.56 148.51 C 105.34 147.92 106.13 147.34 106.93 146.77 Z" fill="#f4ce15"/>
<path d="M 91.09 152.10 L 91.90 152.10 L 92.29 152.84 L 91.89 153.57 L 91.09 153.57 L 90.69 152.83 L 91.09 152.10 Z" fill="#a67c10"/>
</svg>