<?xml version="1.0" encoding="UTF-8" standalone="no"?>
<!DOCTYPE svg PUBLIC "-//W3C//DTD SVG 1.1//EN" "http://www.w3.org/Graphics/SVG/1.1/DTD/svg11.dtd">
<svg xmlns="http://www.w3.org/2000/svg" version="1.1" viewBox="0 0 100 100" width="100.0pt" height="100.0pt">
<path d="M 0.00 0.00 L 7.77 0.00 C 7.77 10.00 7.78 20.00 7.77 30.00 C 7.60 40.39 9.02 50.98 12.09 60.92 C 15.98 73.13 23.06 84.84 33.28 92.75 C 38.04 96.39 43.28 99.34 49.35 100.00 L 0.00 100.00 L 0.00 0.00 Z" fill="#ffffff"/>
<path d="M 7.77 0.00 L 92.14 0.00 C 92.24 11.33 92.20 22.67 92.15 34.00 C 91.82 52.17 86.89 70.86 74.90 84.91 C 68.87 91.91 60.03 99.07 50.53 100.00 L 49.35 100.00 C 43.28 99.34 38.04 96.39 33.28 92.75 C 23.06 84.84 15.98 73.13 12.09 60.92 C 9.02 50.98 7.60 40.39 7.77 30.00 C 7.78 20.00 7.77 10.00 7.77 0.00 Z" fill="#020302"/>
<path d="M 92.14 0.00 L 100.00 0.00 L 100.00 100.00 L 50.53 100.00 C 60.03 99.07 68.87 91.91 74.90 84.91 C 86.89 70.86 91.82 52.17 92.15 34.00 C 92.20 22.67 92.24 11.33 92.14 0.00 Z" fill="#ffffff"/>
<path d="M 10.51 2.87 C 36.81 2.86 63.11 2.86 89.41 2.87 C 89.22 16.56 89.95 30.38 88.75 44.02 C 87.04 59.24 81.31 74.40 70.63 85.62 C 65.86 90.56 59.69 95.16 52.98 96.93 C 47.45 98.38 41.42 95.06 36.94 92.09 C 23.17 82.52 15.09 66.11 12.13 49.95 C 9.52 34.69 10.81 18.39 10.51 2.87 Z" fill="#00a950"/>
<path d="M 13.90 5.57 C 14.79 5.61 15.69 5.65 16.58 5.70 C 17.96 7.46 18.59 7.47 20.68 7.77 C 22.35 4.90 24.14 4.63 25.80 7.58 C 26.62 7.57 27.43 7.56 28.25 7.55 C 30.19 4.82 31.96 4.85 33.91 7.55 C 34.66 7.54 35.41 7.53 36.17 7.51 C 37.44 6.21 38.79 5.63 40.50 5.02 C 40.75 5.93 40.99 6.83 41.24 7.73 C 42.21 7.65 43.17 7.57 44.14 7.48 C 45.35 6.06 46.37 5.65 48.17 5.14 C 48.23 8.47 48.22 11.80 48.22 15.13 C 43.33 15.15 38.44 15.15 33.55 15.13 C 33.54 13.97 33.53 12.81 33.52 11.65 C 31.93 11.65 30.33 11.65 28.74 11.65 C 28.74 12.81 28.74 13.97 28.73 15.13 C 23.79 15.15 18.84 15.15 13.90 15.13 C 13.90 11.94 13.90 8.75 13.90 5.57 Z" fill="#fff200"/>
<path d="M 76.04 5.99 C 79.74 5.12 80.53 8.30 82.73 10.44 C 82.15 9.32 81.56 8.21 80.97 7.10 L 83.84 7.19 L 83.24 8.61 C 83.90 8.74 84.55 8.86 85.21 8.98 C 83.73 10.30 81.02 10.75 81.41 13.19 C 81.72 19.79 81.28 26.28 79.62 32.69 C 78.08 37.50 75.94 42.71 71.72 45.76 C 64.79 50.81 56.29 52.26 47.90 50.99 C 50.04 49.57 52.11 48.10 54.13 46.52 C 60.98 45.43 66.30 41.62 71.29 37.04 C 70.10 37.32 68.91 37.60 67.72 37.89 C 68.55 36.17 69.37 34.45 70.18 32.72 C 71.13 31.82 72.11 30.95 73.11 30.11 C 72.28 32.48 71.39 34.83 70.57 37.20 C 72.55 33.50 73.91 29.74 77.05 26.79 C 75.48 28.00 73.81 29.44 71.98 30.23 C 70.13 30.52 68.21 30.45 66.33 30.50 C 64.93 31.70 63.49 33.05 61.84 33.89 C 60.21 34.33 58.38 34.17 56.70 34.22 C 57.06 32.38 57.41 30.54 57.69 28.68 C 60.98 23.69 64.78 19.07 68.04 14.05 C 70.06 11.08 72.47 7.20 76.04 5.99 Z" fill="#fff200"/>
<path d="M 79.48 8.70 C 79.39 10.12 79.29 11.53 79.19 12.95 C 77.52 12.53 75.93 11.94 74.33 11.28 C 71.91 13.83 73.39 16.45 73.45 19.55 C 72.78 17.47 72.00 15.32 72.22 13.10 C 72.92 11.77 74.67 10.95 75.84 10.10 L 75.16 8.84 C 76.60 8.77 78.04 8.73 79.48 8.70 Z" fill="#020302"/>
<path d="M 20.04 9.44 C 20.91 10.55 19.86 12.99 18.70 11.20 C 18.67 10.25 19.12 9.67 20.04 9.44 Z" fill="#00a950"/>
<path d="M 42.14 9.65 C 43.74 9.24 43.76 12.18 42.15 11.76 C 41.45 11.06 41.45 10.36 42.14 9.65 Z" fill="#00a950"/>
<path d="M 36.99 17.96 C 41.35 18.07 45.05 16.95 49.12 19.03 C 47.94 19.56 46.75 20.08 45.56 20.58 C 47.05 21.09 48.16 21.87 48.90 22.93 C 48.77 25.38 46.72 24.74 45.05 24.88 L 47.20 22.08 C 41.80 20.23 35.57 22.85 29.85 22.30 C 29.55 21.42 29.26 20.53 28.97 19.64 C 31.42 17.66 34.04 18.19 36.99 17.96 Z" fill="#fff200"/>
<path d="M 13.72 18.27 C 14.96 18.57 16.21 18.87 17.46 19.16 C 16.90 20.51 15.18 22.29 15.39 23.83 C 16.33 25.66 17.78 27.23 18.92 28.93 C 17.03 28.58 15.17 28.17 13.32 27.65 C 13.40 26.44 13.47 25.23 13.53 24.01 L 13.61 22.27 C 13.65 20.93 13.68 19.60 13.72 18.27 Z" fill="#fff200"/>
<path d="M 22.24 17.76 C 23.89 18.28 25.53 18.84 27.16 19.43 C 25.41 22.27 25.60 23.07 21.97 22.72 C 20.21 20.64 21.47 19.88 22.24 17.76 Z" fill="#fff200"/>
<path d="M 43.56 19.01 C 43.67 19.46 43.78 19.91 43.89 20.35 C 41.61 20.28 39.35 20.16 37.07 19.98 C 33.95 21.29 32.78 21.97 29.55 20.09 C 33.67 17.19 38.91 18.77 43.56 19.01 Z" fill="#020302"/>
<path d="M 19.34 22.67 C 21.80 23.25 24.41 24.59 26.94 24.43 C 31.85 24.23 36.74 24.10 41.66 24.13 C 42.52 24.68 43.37 25.24 44.23 25.80 L 42.51 26.93 L 44.81 29.29 C 43.19 29.91 41.58 30.54 39.88 30.93 C 38.96 29.39 38.57 27.46 38.05 25.75 C 35.44 26.39 33.31 27.65 31.09 29.10 C 28.83 30.60 26.46 30.66 23.88 31.07 L 24.04 33.58 C 22.87 33.56 21.71 33.56 20.55 33.56 C 19.61 33.59 18.67 33.63 17.73 33.66 C 16.36 32.06 14.94 32.04 13.00 31.67 L 12.98 30.21 C 15.03 30.64 17.09 31.03 19.15 31.39 C 19.02 29.42 18.88 27.44 18.76 25.46 C 20.50 26.09 22.24 26.70 24.00 27.27 C 22.47 25.71 20.90 24.20 19.34 22.67 Z" fill="#fff200"/>
<path d="M 37.68 27.85 C 38.46 29.80 40.22 31.54 39.46 33.73 C 35.91 34.01 32.79 36.05 29.89 33.14 C 32.62 31.06 34.98 31.99 38.00 32.26 C 37.03 31.04 36.06 29.83 35.08 28.61 C 35.95 28.35 36.81 28.10 37.68 27.85 Z" fill="#fff200"/>
<path d="M 44.18 27.77 C 45.30 28.00 46.41 28.23 47.52 28.46 L 49.76 28.95 C 49.08 30.45 48.40 31.95 47.72 33.46 C 46.53 31.57 45.37 29.66 44.18 27.77 Z" fill="#fff200"/>
<path d="M 57.38 28.94 C 56.78 32.39 55.59 34.68 53.37 37.33 C 50.27 41.02 47.10 45.31 43.09 48.02 C 44.13 45.21 45.97 43.17 47.80 40.87 C 50.36 37.75 52.71 34.47 55.28 31.35 C 55.97 30.54 56.67 29.74 57.38 28.94 Z" fill="#fff200"/>
<path d="M 67.19 31.20 C 66.98 34.49 62.52 36.82 59.85 38.02 C 57.65 39.24 55.90 38.45 53.62 37.97 C 54.41 36.86 55.21 35.75 56.02 34.65 C 57.95 34.71 59.88 34.75 61.81 34.80 C 62.92 33.92 64.02 33.03 65.16 32.19 C 65.82 31.84 66.50 31.51 67.19 31.20 Z" fill="#fff200"/>
<path d="M 69.49 31.12 L 70.18 32.72 L 69.54 33.75 C 68.79 34.93 68.04 36.11 67.29 37.29 C 61.84 40.93 56.57 43.51 49.77 42.67 C 50.85 41.28 51.93 39.91 53.03 38.54 C 54.59 38.82 56.21 39.28 57.81 39.27 C 63.04 38.08 65.87 34.67 69.49 31.12 Z" fill="#fff200"/>
<path d="M 68.76 37.87 C 65.93 41.39 62.05 43.60 57.85 45.08 C 54.41 46.34 50.26 45.76 46.69 45.61 C 48.45 44.10 49.09 42.99 51.49 43.28 C 56.15 43.66 59.95 42.29 63.91 39.97 C 65.46 39.16 67.07 38.46 68.76 37.87 Z" fill="#fff200"/>
<path d="M 53.52 46.45 C 50.32 48.90 47.67 50.92 43.37 50.59 C 44.25 49.04 45.19 47.52 46.25 46.08 C 48.69 46.07 51.09 46.27 53.52 46.45 Z" fill="#fff200"/>
<path d="M 43.09 48.02 C 42.79 50.21 41.26 52.17 40.07 54.00 C 39.01 54.22 37.95 54.45 36.88 54.68 C 38.85 52.24 40.49 49.84 43.09 48.02 Z" fill="#fff200"/>
<path d="M 42.85 50.73 C 44.18 50.87 45.51 51.01 46.84 51.14 C 44.92 53.28 43.02 55.43 40.99 57.47 C 39.91 54.43 41.40 53.13 42.85 50.73 Z" fill="#fff200"/>
<path d="M 52.89 51.95 C 53.04 54.62 52.51 57.38 52.44 60.06 C 51.84 57.75 51.31 55.43 50.84 53.08 C 51.51 52.58 52.19 52.20 52.89 51.95 Z" fill="#fff200"/>
<path d="M 56.34 51.86 C 56.46 54.52 56.44 57.17 56.61 59.83 C 55.92 59.24 55.24 58.66 54.55 58.08 C 54.92 55.78 54.02 53.19 56.34 51.86 Z" fill="#fff200"/>
<path d="M 40.12 55.24 L 40.46 57.78 C 38.90 60.57 36.36 62.87 34.33 65.34 C 31.53 68.51 29.18 71.98 26.99 75.58 C 27.03 73.79 27.07 72.01 27.11 70.22 C 32.15 65.77 35.90 60.41 40.12 55.24 Z" fill="#fff200"/>
<path d="M 39.30 54.44 C 36.45 59.35 32.90 63.89 28.82 67.84 C 27.42 69.32 25.69 69.45 23.82 70.01 C 27.26 66.04 30.89 62.25 34.22 58.18 C 35.87 56.88 37.56 55.63 39.30 54.44 Z" fill="#fff200"/>
<path d="M 55.01 59.36 C 55.63 60.48 56.25 61.61 56.87 62.73 C 54.76 64.51 52.67 66.29 50.81 68.34 C 52.34 67.37 53.81 66.32 55.27 65.24 C 56.33 66.11 57.38 66.99 58.43 67.87 C 58.60 69.06 58.78 70.25 58.96 71.44 C 59.37 70.04 59.75 68.64 60.14 67.23 C 61.28 68.02 62.45 68.78 63.64 69.51 C 62.79 68.04 61.46 67.17 60.51 65.86 C 61.54 65.01 62.72 64.37 64.05 63.94 C 62.50 63.76 60.96 63.56 59.41 63.38 C 59.46 64.90 59.50 66.42 59.46 67.95 C 58.31 66.94 57.17 65.92 56.04 64.88 C 57.40 62.79 57.59 61.43 57.67 58.97 C 61.31 60.10 64.67 60.78 67.46 63.56 C 73.66 69.11 73.71 79.98 67.56 85.59 C 62.44 90.50 54.58 91.22 48.65 87.32 C 44.24 84.51 42.50 80.07 41.46 75.16 C 43.02 74.91 44.58 74.68 46.13 74.45 L 46.21 73.46 C 44.64 73.38 43.07 73.30 41.50 73.21 C 42.63 69.59 43.69 66.23 46.56 63.57 C 48.95 61.19 51.88 60.34 55.01 59.36 Z" fill="#fff200"/>
</svg>