<?xml version="1.0" encoding="UTF-8" standalone="no"?>
<!DOCTYPE svg PUBLIC "-//W3C//DTD SVG 1.1//EN" "http://www.w3.org/Graphics/SVG/1.1/DTD/svg11.dtd">
<svg xmlns="http://www.w3.org/2000/svg" version="1.1" viewBox="0 0 200 200" width="200.0pt" height="200.0pt">
    <path d="M 0.00 0.00 L 94.79 0.00 C 89.88 0.66 84.97 1.36 80.11 2.26 C 60.59 6.17 42.31 16.18 28.49 30.50 C 16.92 42.29 8.45 57.12 3.96 73.00 C 1.93 79.98 1.05 87.49 0.00 94.69 L 0.00 0.00 Z" fill="none"/>
    <path d="M 94.79 0.00 L 105.47 0.00 L 106.52 0.12 L 107.34 0.23 C 112.86 1.08 118.56 1.72 123.95 3.07 C 140.16 7.02 155.31 15.10 167.63 26.35 C 183.05 40.45 193.97 59.47 198.07 79.99 C 198.96 84.28 199.48 88.73 200.00 93.10 L 200.00 107.52 C 198.46 124.15 193.41 140.23 184.27 154.27 C 172.23 173.07 153.80 187.51 132.68 194.73 C 124.47 197.62 115.96 199.08 107.32 200.00 L 93.03 200.00 C 76.25 198.51 60.03 193.39 45.90 184.14 C 27.08 172.06 12.72 153.60 5.54 132.43 C 2.41 123.63 1.18 114.56 0.00 105.34 L 0.00 94.69 C 1.05 87.49 1.93 79.98 3.96 73.00 C 8.45 57.12 16.92 42.29 28.49 30.50 C 42.31 16.18 60.59 6.17 80.11 2.26 C 84.97 1.36 89.88 0.66 94.79 0.00 Z" fill="#009a65"/>
    <path d="M 105.47 0.00 L 200.00 0.00 L 200.00 93.10 C 199.48 88.73 198.96 84.28 198.07 79.99 C 193.97 59.47 183.05 40.45 167.63 26.35 C 155.31 15.10 140.16 7.02 123.95 3.07 C 118.56 1.72 112.86 1.08 107.34 0.23 L 106.52 0.12 L 105.47 0.00 Z" fill="none"/>
    <path d="M 84.51 7.77 C 99.33 5.28 114.72 6.35 129.02 10.98 C 145.04 16.15 159.56 25.72 170.64 38.39 C 182.58 51.92 190.43 68.94 192.95 86.81 C 194.82 100.50 193.86 114.53 189.77 127.74 C 184.29 145.68 173.23 161.89 158.51 173.53 C 144.92 184.39 128.28 191.32 110.99 193.28 C 96.95 194.80 82.64 193.39 69.31 188.69 C 53.94 183.35 40.03 173.88 29.39 161.58 C 17.29 147.73 9.45 130.25 7.20 112.00 C 4.92 93.95 7.93 75.31 15.97 58.98 C 28.98 32.18 55.07 12.56 84.51 7.77 Z" fill="#ffffff"/>
    <path d="M 89.50 9.77 C 103.87 8.14 118.56 9.80 132.11 14.91 C 159.68 25.10 181.25 49.07 188.38 77.60 C 193.04 95.87 191.91 115.53 185.07 133.11 C 179.31 147.96 169.58 161.20 157.16 171.17 C 143.47 182.19 126.53 189.16 109.02 190.76 C 93.55 192.30 77.67 189.79 63.46 183.50 C 36.95 171.93 16.95 147.40 11.11 119.05 C 7.72 102.89 8.75 85.76 14.21 70.17 C 20.40 52.33 32.31 36.62 47.75 25.75 C 60.07 17.03 74.50 11.51 89.50 9.77 Z" fill="#009a65"/>
    <path d="M 89.21 10.98 C 112.27 8.14 136.00 14.44 154.47 28.56 C 169.22 39.72 180.36 55.50 185.90 73.15 C 190.11 86.74 191.28 101.21 188.77 115.24 C 185.43 135.39 174.91 154.15 159.57 167.61 C 137.70 187.11 106.36 194.71 77.98 187.26 C 47.16 179.64 21.91 154.89 13.59 124.26 C 8.15 104.70 9.54 83.29 17.62 64.64 C 24.27 49.18 35.34 35.69 49.21 26.16 C 61.08 17.95 74.88 12.73 89.21 10.98 Z" fill="#ffffff"/>
    <path d="M 92.31 13.32 C 94.12 12.50 96.57 12.52 98.10 13.91 C 99.46 15.20 99.54 17.22 99.74 18.95 C 99.86 21.38 100.18 24.18 99.40 26.52 C 98.19 29.07 94.20 29.42 92.04 28.00 C 90.11 26.20 90.18 22.44 89.92 20.00 C 89.89 17.54 89.60 14.49 92.31 13.32 Z" fill="#009a65"/>
    <path d="M 106.43 13.46 C 108.87 12.55 112.43 13.19 113.36 15.95 C 113.84 19.18 113.36 23.40 112.35 26.51 C 111.09 30.34 104.53 29.76 103.57 26.06 C 103.12 23.41 103.49 20.57 103.86 17.93 C 104.20 16.08 104.56 14.33 106.43 13.46 Z" fill="#009a65"/>
    <path d="M 87.72 14.75 C 85.57 15.69 83.37 16.45 81.14 17.17 C 81.44 18.63 81.75 20.08 82.05 21.54 C 83.80 21.18 85.55 20.81 87.30 20.44 L 87.70 22.21 C 85.99 22.59 84.29 22.97 82.58 23.34 C 82.90 26.35 84.43 28.73 82.39 31.43 C 80.72 26.27 79.88 20.80 78.65 15.50 C 81.71 14.88 84.58 14.09 87.72 14.75 Z" fill="#009a65"/>
    <path d="M 92.45 15.45 C 93.97 14.51 96.11 13.85 96.98 15.95 C 97.98 19.00 98.05 23.20 97.38 26.34 C 95.73 27.14 93.25 27.62 92.77 25.26 C 92.04 22.28 91.81 18.46 92.45 15.45 Z" fill="#ffffff"/>
    <path d="M 107.34 15.30 C 109.41 13.97 111.65 15.49 111.45 17.90 C 111.24 20.71 111.52 25.47 109.04 27.36 C 107.64 27.39 106.51 26.96 105.63 26.08 C 105.30 23.75 105.53 21.26 105.85 18.93 C 106.15 17.92 106.13 15.63 107.34 15.30 Z" fill="#ffffff"/>
    <path d="M 116.63 14.35 C 119.89 15.17 123.16 15.99 126.43 16.81 L 126.05 18.59 C 124.73 18.28 123.40 17.97 122.07 17.66 C 121.00 22.00 119.91 26.34 118.84 30.68 C 118.14 30.54 117.43 30.41 116.73 30.27 C 117.89 25.90 119.01 21.53 120.05 17.13 C 118.76 16.80 117.47 16.46 116.19 16.13 L 116.63 14.35 Z" fill="#009a65"/>
    <path d="M 130.19 18.27 C 132.59 18.96 135.60 19.99 137.14 22.07 C 137.98 25.10 135.96 26.12 134.21 28.07 C 134.63 28.84 135.06 29.61 135.49 30.38 C 134.53 31.76 133.57 34.27 131.80 34.71 C 129.18 34.76 126.43 33.19 124.01 32.27 C 126.14 27.65 127.78 22.75 130.19 18.27 Z" fill="#009a65"/>
    <path d="M 69.28 19.66 C 70.89 20.65 70.39 22.17 70.72 23.79 C 69.48 22.81 68.24 21.82 67.02 20.81 C 66.15 21.56 65.28 22.30 64.47 23.11 C 65.15 27.30 67.25 31.04 70.05 34.17 C 71.35 32.39 72.14 30.89 72.69 28.74 C 73.30 28.54 73.92 28.34 74.54 28.14 C 74.45 29.72 74.43 31.38 74.09 32.92 C 72.77 34.29 70.98 35.06 69.09 35.13 C 66.46 34.46 65.43 31.80 64.34 29.61 C 63.47 27.56 62.35 25.19 62.46 22.94 C 63.00 20.41 66.97 18.37 69.28 19.66 Z" fill="#009a65"/>
    <path d="M 131.53 20.30 C 132.82 21.18 134.09 22.01 135.29 23.01 C 134.85 24.23 134.28 25.39 133.71 26.55 C 132.28 25.95 130.86 25.35 129.43 24.75 C 130.13 23.26 130.82 21.78 131.53 20.30 Z" fill="#ffffff"/>
    <path d="M 56.99 24.30 C 59.22 28.30 61.84 32.12 63.89 36.22 C 64.54 37.33 63.82 38.07 63.65 39.29 C 60.54 34.91 58.07 30.10 55.23 25.53 L 56.99 24.30 Z" fill="#009a65"/>
    <path d="M 146.29 26.16 C 146.99 26.58 147.69 27.03 148.37 27.49 C 147.14 32.73 145.63 37.90 144.28 43.11 C 143.63 42.73 142.99 42.34 142.34 41.95 C 142.68 40.70 143.03 39.45 143.37 38.20 C 141.90 37.27 140.43 36.33 138.97 35.39 C 137.14 36.14 135.30 36.84 133.42 37.47 C 137.14 33.17 141.86 29.70 146.29 26.16 Z" fill="#009a65"/>
    <path d="M 128.95 26.16 C 130.38 27.13 131.78 28.00 133.07 29.15 C 132.86 30.49 132.66 31.65 131.52 32.52 C 129.90 32.67 128.15 32.01 126.57 31.66 C 127.35 29.82 128.14 27.99 128.95 26.16 Z" fill="#ffffff"/>
    <path d="M 51.96 27.44 L 53.78 28.11 C 52.59 29.07 51.39 30.02 50.19 30.97 C 52.93 34.63 55.66 38.30 58.38 41.97 C 57.76 42.30 57.13 42.63 56.51 42.96 C 53.83 39.39 51.18 35.80 48.52 32.22 C 47.36 33.04 46.20 33.85 45.03 34.67 C 44.79 34.11 44.54 33.55 44.30 32.99 C 46.83 31.12 49.33 29.15 51.96 27.44 Z" fill="#009a65"/>
    <path d="M 146.13 28.53 C 145.41 31.13 144.67 33.73 143.94 36.33 C 142.62 35.51 141.29 34.70 139.97 33.88 C 142.01 32.08 144.06 30.29 146.13 28.53 Z" fill="#ffffff"/>
    <path d="M 91.47 31.61 C 99.63 30.71 108.08 30.98 116.07 32.91 C 132.11 36.66 146.63 46.35 156.22 59.74 C 164.67 71.36 169.29 85.62 169.26 99.99 C 169.34 113.19 165.55 126.33 158.39 137.43 C 150.06 150.49 137.25 160.57 122.59 165.56 C 106.66 171.03 88.65 170.44 73.16 163.80 C 59.88 158.17 48.50 148.33 41.05 135.97 C 34.34 124.90 30.79 111.95 31.14 99.00 C 31.24 79.78 40.00 61.05 54.41 48.40 C 64.74 39.24 77.77 33.32 91.47 31.61 Z" fill="#009a65"/>
    <path d="M 88.25 33.29 C 99.46 31.39 111.27 32.14 122.03 35.84 C 136.08 40.58 148.44 50.06 156.65 62.41 C 165.76 75.91 169.74 92.83 167.53 108.97 C 166.06 120.67 161.42 131.89 154.28 141.26 C 143.44 155.61 126.84 165.31 108.98 167.53 C 84.31 170.98 58.86 159.75 44.65 139.33 C 36.56 127.91 32.13 114.00 32.30 100.00 C 32.18 84.36 37.85 68.91 47.82 56.89 C 57.95 44.56 72.53 36.04 88.25 33.29 Z" fill="#ffffff"/>
    <path d="M 155.32 32.48 L 156.88 33.92 C 153.92 37.24 151.02 40.62 148.07 43.94 C 149.72 45.63 151.50 46.84 152.04 49.28 C 149.40 47.93 147.33 46.04 145.09 44.13 C 147.92 40.96 150.69 37.74 153.50 34.55 C 154.10 33.86 154.71 33.17 155.32 32.48 Z" fill="#009a65"/>
    <path d="M 91.47 35.61 C 99.83 34.64 108.59 34.95 116.75 37.16 C 131.73 41.02 145.04 50.45 153.81 63.17 C 161.47 74.19 165.51 87.59 165.32 101.00 C 165.18 115.69 159.90 130.20 150.53 141.52 C 141.30 152.80 128.24 160.84 113.96 163.86 C 101.44 166.58 88.15 165.49 76.23 160.78 C 60.19 154.51 46.95 141.62 40.24 125.76 C 31.08 104.48 34.22 78.79 48.49 60.49 C 58.81 46.93 74.57 37.82 91.47 35.61 Z" fill="#009a65"/>
    <path d="M 40.19 36.24 C 43.42 39.48 46.43 42.90 49.49 46.29 C 51.31 44.89 53.06 43.50 55.27 42.75 C 53.85 45.48 51.63 47.28 49.41 49.31 C 46.08 45.56 42.56 41.97 39.32 38.14 C 39.60 37.50 39.89 36.87 40.19 36.24 Z" fill="#009a65"/>
    <path d="M 91.48 38.82 C 106.93 36.69 122.86 40.37 135.62 49.36 C 150.02 59.34 159.80 75.52 161.70 92.96 C 163.05 104.28 161.20 115.93 156.40 126.27 C 150.20 139.63 139.19 150.56 125.76 156.62 C 112.79 162.53 97.82 163.72 84.07 160.01 C 71.28 156.62 59.66 148.91 51.49 138.50 C 42.91 127.63 38.08 113.87 38.27 100.00 C 38.16 84.74 44.07 69.64 54.40 58.43 C 64.03 47.83 77.29 40.80 91.48 38.82 Z" fill="#ffffff"/>
    <path d="M 163.40 40.42 C 163.98 40.79 164.57 41.16 165.15 41.54 C 161.71 44.56 158.29 47.59 154.88 50.63 C 156.29 52.35 157.64 54.11 158.87 55.96 C 155.49 55.28 154.19 52.70 152.00 50.35 C 155.82 47.07 159.44 43.53 163.40 40.42 Z" fill="#009a65"/>
    <path d="M 36.09 40.80 L 37.65 41.95 C 36.34 43.45 35.04 44.96 33.74 46.46 C 34.89 47.43 36.04 48.39 37.19 49.35 C 38.84 47.69 40.48 46.18 42.64 45.19 C 41.54 47.18 40.25 49.03 38.89 50.85 C 40.15 51.86 41.41 52.88 42.67 53.89 C 44.27 52.11 45.91 50.38 47.71 48.78 C 47.35 52.31 44.90 54.15 42.85 56.81 C 38.88 53.55 34.97 50.20 30.99 46.94 C 32.69 44.89 34.39 42.85 36.09 40.80 Z" fill="#009a65"/>
    <path d="M 87.51 45.67 C 90.24 46.77 92.33 49.73 93.85 52.13 C 96.62 56.93 99.24 61.30 99.45 67.01 C 100.10 74.54 98.04 83.11 102.96 89.57 C 103.93 87.75 105.23 85.92 105.51 83.84 C 106.47 76.50 104.52 69.18 105.01 61.97 C 105.33 57.54 107.07 53.37 110.97 50.96 C 116.81 47.52 124.74 47.97 130.35 51.69 C 135.34 55.11 136.66 61.73 142.13 64.79 C 147.03 67.64 152.36 70.85 154.57 76.37 C 156.83 83.23 154.56 91.36 148.61 95.64 C 142.98 99.84 134.77 100.48 128.01 99.82 C 124.29 99.60 119.98 98.51 116.34 99.43 C 112.24 100.57 111.69 107.70 116.17 108.69 C 119.75 109.17 123.82 107.23 127.20 106.19 C 133.67 104.04 141.37 102.45 147.93 105.03 C 151.94 106.59 154.91 109.87 155.56 114.19 C 156.17 119.07 155.82 124.86 153.23 129.17 C 148.98 135.56 140.28 136.72 136.02 142.97 C 133.31 146.76 131.30 150.79 126.48 152.23 C 119.60 153.68 111.10 152.18 107.49 145.48 C 103.88 138.43 106.80 130.31 107.52 122.95 C 108.02 120.27 106.11 119.00 104.75 117.01 C 103.72 118.64 102.58 119.97 102.53 122.00 C 101.75 133.37 100.38 144.05 102.93 155.34 C 98.67 155.26 94.42 154.99 90.17 154.74 C 94.19 150.64 95.72 145.54 96.50 139.98 C 97.32 133.57 98.36 126.59 97.34 120.17 C 97.05 119.31 96.87 117.19 95.63 117.36 C 93.24 116.81 91.41 118.53 91.76 120.96 C 92.88 128.90 95.05 135.95 92.97 144.12 C 91.99 147.37 89.74 151.54 86.04 152.09 C 80.49 153.16 74.34 151.59 69.90 148.12 C 65.96 144.95 64.05 140.67 61.35 136.58 C 57.74 131.02 50.09 128.77 46.82 123.14 C 42.53 115.53 46.74 104.72 55.17 102.25 C 63.91 99.85 74.66 104.83 83.86 101.94 C 86.60 101.06 88.93 99.22 88.95 96.11 C 88.42 94.75 87.35 93.70 85.87 93.49 C 77.55 92.31 68.30 95.25 59.95 94.31 C 56.25 93.92 52.71 92.59 49.93 90.09 C 44.02 85.20 43.42 74.99 48.18 69.17 C 52.42 64.13 60.55 62.73 65.47 58.43 C 67.89 56.18 69.35 53.09 71.80 50.80 C 75.90 46.80 81.75 44.14 87.51 45.67 Z" fill="#009a65"/>
    <path d="M 83.61 48.07 C 84.44 55.48 84.48 62.92 84.30 70.36 C 83.35 69.51 82.41 68.66 81.47 67.80 C 81.52 61.43 80.97 55.10 80.36 48.77 C 81.44 48.53 82.53 48.30 83.61 48.07 Z" fill="#ffffff"/>
    <path d="M 86.24 48.18 C 88.39 50.05 90.96 52.29 90.79 55.42 C 90.52 62.01 90.11 68.61 89.53 75.18 C 88.48 74.21 87.43 73.24 86.38 72.27 C 86.60 64.23 86.09 56.20 86.24 48.18 Z" fill="#ffffff"/>
    <path d="M 78.33 49.49 C 78.89 55.12 79.39 60.75 79.58 66.40 C 78.58 65.88 77.59 65.36 76.60 64.83 C 76.16 60.20 75.65 55.58 75.22 50.96 C 76.26 50.47 77.29 49.98 78.33 49.49 Z" fill="#ffffff"/>
    <path d="M 121.68 51.04 C 122.21 60.34 122.26 69.35 125.51 78.24 C 124.56 79.28 123.62 80.33 122.66 81.37 C 118.63 72.17 118.80 62.85 119.37 53.01 C 119.17 51.81 120.94 51.66 121.68 51.04 Z" fill="#ffffff"/>
    <path d="M 27.98 51.88 C 29.27 51.85 30.55 51.87 31.83 51.95 C 31.63 52.81 31.43 53.67 31.23 54.53 C 30.00 54.24 28.77 53.96 27.53 53.69 C 27.51 55.18 26.38 57.06 27.88 58.08 C 30.22 60.06 33.25 62.20 36.33 62.68 C 37.13 62.03 37.92 61.35 38.68 60.65 C 37.82 59.17 36.98 57.69 36.16 56.19 C 37.15 56.54 38.81 56.52 39.44 57.50 C 42.06 60.25 38.14 66.16 34.48 64.50 C 30.43 63.08 26.94 60.51 24.27 57.16 C 25.23 55.47 26.14 52.79 27.98 51.88 Z" fill="#009a65"/>
    <path d="M 117.19 51.32 C 116.98 62.33 116.38 72.60 121.24 82.83 C 120.17 83.75 119.08 84.66 118.00 85.57 C 112.98 74.83 113.80 64.33 113.35 52.82 C 114.63 52.32 115.91 51.82 117.19 51.32 Z" fill="#ffffff"/>
    <path d="M 73.27 52.52 C 73.83 56.48 74.31 60.44 74.42 64.44 C 70.65 62.76 71.01 60.21 70.09 56.71 C 71.15 55.31 72.20 53.91 73.27 52.52 Z" fill="#ffffff"/>
    <path d="M 123.97 52.11 C 125.12 52.61 126.26 53.12 127.40 53.66 C 127.32 60.49 126.56 66.90 129.11 73.45 C 128.43 74.39 127.74 75.32 127.05 76.24 C 124.39 68.36 124.00 60.35 123.97 52.11 Z" fill="#ffffff"/>
    <path d="M 173.57 54.42 C 175.89 55.23 176.98 57.68 177.23 59.97 C 176.19 61.35 174.89 62.40 173.60 63.53 C 174.03 61.82 174.50 60.14 175.04 58.47 C 174.38 57.62 173.73 56.77 173.07 55.93 C 169.71 57.56 165.84 59.24 163.27 62.03 C 163.40 65.21 167.60 64.93 169.73 66.17 C 167.72 66.36 165.27 68.09 163.58 66.37 C 162.15 65.09 161.18 62.92 161.68 61.00 C 162.99 58.73 165.79 57.22 168.01 55.95 C 169.58 55.16 171.78 53.95 173.57 54.42 Z" fill="#009a65"/>
    <path d="M 129.80 54.19 C 132.82 58.25 132.01 62.46 132.77 67.18 C 131.97 68.60 131.15 70.02 130.31 71.42 C 128.76 65.72 129.06 59.98 129.80 54.19 Z" fill="#ffffff"/>
    <path d="M 111.02 55.00 C 111.80 66.18 111.60 76.59 116.16 87.10 C 115.33 87.64 114.51 88.18 113.68 88.72 C 111.40 84.88 109.17 81.40 108.71 76.83 C 108.29 72.01 107.11 66.73 107.85 61.95 C 108.28 59.27 109.63 57.25 111.02 55.00 Z" fill="#ffffff"/>
    <path d="M 92.88 57.43 C 94.18 60.75 95.79 64.40 96.03 67.98 C 95.71 72.12 94.73 76.22 94.11 80.32 C 93.18 79.39 92.25 78.45 91.32 77.51 C 91.90 70.82 92.32 64.12 92.88 57.43 Z" fill="#ffffff"/>
    <path d="M 69.11 60.02 C 68.86 61.30 68.61 62.58 68.36 63.87 C 77.00 64.88 83.38 70.90 88.91 77.09 C 94.20 82.53 97.95 88.92 101.57 95.54 C 106.23 94.14 110.75 92.58 114.82 89.83 C 124.34 83.45 130.87 74.51 136.01 64.41 C 136.02 69.98 134.74 74.90 131.45 79.44 C 124.84 88.99 115.13 95.71 105.05 101.19 C 106.95 107.12 109.43 112.78 113.25 117.75 C 119.27 125.95 127.41 131.57 136.45 136.01 C 131.43 136.06 126.78 135.34 122.56 132.45 C 112.26 125.30 105.21 115.24 99.26 104.39 C 93.54 106.21 88.09 108.57 83.32 112.29 C 75.09 118.36 69.51 126.54 64.93 135.55 C 65.10 132.43 65.06 129.11 66.20 126.18 C 68.14 121.07 72.09 116.71 75.91 112.90 C 81.77 107.04 88.71 102.87 95.99 99.04 C 91.57 82.98 79.49 70.68 64.58 63.81 C 65.65 63.86 66.71 63.92 67.78 63.97 C 67.56 62.98 67.33 61.99 67.11 61.00 C 67.78 60.67 68.44 60.35 69.11 60.02 Z" fill="#ffffff"/>
    <path d="M 137.33 64.46 C 139.43 65.73 141.40 67.22 143.37 68.68 C 141.35 69.14 139.33 69.57 137.30 69.94 C 137.28 68.12 137.25 66.29 137.33 64.46 Z" fill="#ffffff"/>
    <path d="M 180.39 64.58 L 180.38 66.64 C 176.40 68.54 172.22 70.04 168.15 71.73 C 168.86 73.45 169.58 75.18 170.29 76.91 L 168.63 77.64 C 167.63 75.26 166.65 72.87 165.67 70.48 C 170.56 68.49 175.45 66.45 180.39 64.58 Z" fill="#009a65"/>
    <path d="M 21.18 66.20 C 20.69 68.52 20.02 70.78 19.30 73.04 C 20.77 73.53 22.23 74.03 23.70 74.53 C 24.31 72.79 24.92 71.06 25.54 69.32 L 27.28 70.00 C 26.65 71.71 26.01 73.43 25.38 75.14 C 26.94 75.70 28.50 76.27 30.06 76.83 C 31.04 74.56 32.08 72.34 33.35 70.22 C 33.71 73.62 32.38 76.39 31.29 79.50 C 26.43 77.74 21.56 76.03 16.70 74.25 C 17.94 71.19 18.36 68.28 21.18 66.20 Z" fill="#009a65"/>
    <path d="M 69.34 66.92 C 62.69 70.77 55.33 73.51 48.40 76.84 C 49.44 74.87 49.87 73.03 52.07 72.10 C 57.22 69.66 63.51 65.92 69.34 66.92 Z" fill="#ffffff"/>
    <path d="M 71.21 69.23 C 72.35 69.75 73.47 70.34 74.58 70.92 C 65.70 74.52 57.26 78.80 49.28 84.13 C 49.08 82.63 48.88 81.14 48.69 79.64 C 55.68 75.21 63.39 71.92 71.21 69.23 Z" fill="#ffffff"/>
    <path d="M 145.31 70.09 C 146.65 71.19 147.86 72.38 149.12 73.57 C 144.69 74.76 140.20 74.96 135.62 74.86 C 135.99 73.95 136.36 73.03 136.73 72.12 C 139.63 71.60 142.47 70.86 145.31 70.09 Z" fill="#ffffff"/>
    <path d="M 74.52 73.52 C 76.86 72.57 78.02 74.30 79.93 75.32 C 75.38 76.59 70.86 77.62 66.53 79.54 C 61.33 81.73 56.73 84.81 52.20 88.13 C 51.57 87.46 50.93 86.78 50.29 86.10 C 57.62 80.64 65.84 76.37 74.52 73.52 Z" fill="#ffffff"/>
    <path d="M 183.98 75.05 L 184.30 77.06 C 180.38 78.09 175.95 78.55 172.32 80.37 C 170.50 81.36 171.52 83.40 172.32 84.72 C 177.12 85.27 182.03 82.77 186.89 82.55 C 184.16 86.06 178.02 86.42 173.90 86.96 C 169.66 87.48 167.81 80.24 171.47 78.42 C 175.29 76.57 179.86 76.04 183.98 75.05 Z" fill="#009a65"/>
    <path d="M 152.35 77.22 C 145.98 79.64 139.10 80.00 132.36 80.25 C 133.22 79.24 133.99 78.04 135.02 77.20 C 137.97 76.76 140.99 76.88 143.95 76.49 C 147.19 76.25 149.49 74.75 152.35 77.22 Z" fill="#ffffff"/>
    <path d="M 97.25 75.94 C 97.44 79.28 97.49 82.61 97.27 85.94 C 96.69 84.73 95.67 83.42 95.50 82.07 C 95.74 79.98 96.59 77.93 97.25 75.94 Z" fill="#ffffff"/>
    <path d="M 80.12 77.74 C 81.60 77.43 83.12 79.02 84.42 79.61 C 79.92 81.06 75.47 82.11 71.20 84.21 C 66.90 86.23 63.11 88.97 59.39 91.91 C 57.43 91.28 55.47 90.62 53.51 89.95 C 61.28 83.66 70.13 79.07 80.12 77.74 Z" fill="#ffffff"/>
    <path d="M 14.02 79.59 C 19.43 79.67 24.95 81.20 30.35 82.08 L 30.14 84.17 C 27.84 83.76 25.53 83.35 23.22 82.96 C 22.90 84.61 22.58 86.26 22.27 87.91 C 25.24 88.67 27.91 88.41 29.86 91.20 C 24.41 90.76 18.96 89.44 13.57 88.46 L 13.95 86.43 C 16.11 86.83 18.27 87.25 20.43 87.66 C 20.76 86.02 21.09 84.38 21.43 82.74 C 18.67 82.08 16.09 81.74 14.02 79.59 Z" fill="#009a65"/>
    <path d="M 152.50 79.85 C 152.68 81.02 152.86 82.19 153.03 83.36 C 145.05 84.65 136.83 85.49 128.78 84.27 C 130.58 82.98 131.73 82.12 134.01 82.26 C 140.35 82.16 146.29 80.91 152.50 79.85 Z" fill="#ffffff"/>
    <path d="M 85.81 82.17 C 86.64 83.23 87.48 84.29 88.31 85.34 C 82.61 86.14 77.54 87.63 72.56 90.56 C 69.26 92.56 65.95 92.04 62.24 92.21 C 69.16 86.78 76.95 82.98 85.81 82.17 Z" fill="#ffffff"/>
    <path d="M 108.97 84.73 C 109.94 86.38 110.91 88.04 111.88 89.71 C 110.50 90.48 109.11 91.26 107.72 92.03 C 108.12 89.59 108.55 87.16 108.97 84.73 Z" fill="#ffffff"/>
    <path d="M 136.99 86.88 C 142.38 87.00 147.53 86.13 152.88 85.67 C 151.57 86.94 150.18 90.02 148.07 89.85 C 140.50 89.96 132.78 89.18 125.32 87.91 C 129.22 85.75 132.79 86.94 136.99 86.88 Z" fill="#ffffff"/>
    <path d="M 89.73 87.67 C 90.53 89.02 91.33 90.38 92.13 91.73 C 86.52 90.65 81.07 90.72 75.41 91.17 C 80.27 88.66 84.25 87.77 89.73 87.67 Z" fill="#ffffff"/>
    <path d="M 124.20 90.26 C 131.91 91.03 139.58 91.48 147.32 91.83 C 146.13 92.76 144.94 93.69 143.75 94.61 C 136.39 93.55 129.05 93.32 121.83 91.35 C 122.62 90.98 123.41 90.61 124.20 90.26 Z" fill="#ffffff"/>
    <path d="M 187.07 89.70 C 187.12 92.08 187.34 94.55 187.02 96.92 C 185.31 99.89 182.99 98.84 180.29 98.31 C 177.71 99.67 175.71 101.17 173.00 98.98 C 171.61 96.70 171.83 93.35 171.44 90.76 C 176.65 90.43 181.86 90.09 187.07 89.70 Z" fill="#009a65"/>
    <path d="M 14.53 91.29 C 14.71 92.95 14.86 94.61 14.98 96.28 C 19.47 96.45 23.96 96.61 28.45 96.72 C 28.41 97.41 28.37 98.10 28.34 98.80 C 23.82 98.67 19.31 98.48 14.79 98.35 C 14.74 99.68 14.69 101.02 14.64 102.35 C 14.03 102.32 13.42 102.29 12.81 102.26 C 13.06 98.85 12.27 94.09 14.53 91.29 Z" fill="#009a65"/>
    <path d="M 179.22 92.33 C 178.84 93.98 179.18 96.68 177.64 97.70 C 176.65 97.93 175.61 97.87 174.52 97.52 C 173.89 95.98 173.62 94.42 173.33 92.79 C 175.29 92.57 177.26 92.45 179.22 92.33 Z" fill="#ffffff"/>
    <path d="M 180.62 92.47 C 182.24 92.14 183.92 91.99 185.57 91.80 C 185.00 94.27 186.13 96.47 183.00 97.22 C 180.45 96.46 180.78 94.65 180.62 92.47 Z" fill="#ffffff"/>
    <path d="M 119.94 93.33 C 126.83 94.98 133.82 95.28 140.83 96.04 C 137.99 97.40 135.24 98.53 132.00 98.18 C 126.84 97.70 121.83 96.33 116.63 96.02 C 117.73 95.12 118.84 94.23 119.94 93.33 Z" fill="#ffffff"/>
    <path d="M 66.02 104.10 C 70.62 104.21 74.86 106.90 78.96 108.88 C 77.00 109.61 75.59 110.22 73.51 109.39 C 67.08 107.17 60.52 106.79 53.81 106.11 C 57.86 104.41 61.61 103.71 66.02 104.10 Z" fill="#ffffff"/>
    <path d="M 78.06 105.33 C 79.51 104.89 81.16 104.98 82.47 105.79 C 81.82 106.54 81.07 107.04 80.23 107.31 C 78.93 107.38 78.20 106.72 78.06 105.33 Z" fill="#ffffff"/>
    <path d="M 0.00 105.34 C 1.18 114.56 2.41 123.63 5.54 132.43 C 12.72 153.60 27.08 172.06 45.90 184.14 C 60.03 193.39 76.25 198.51 93.03 200.00 L 0.00 200.00 L 0.00 105.34 Z" fill="none"/>
    <path d="M 144.14 106.76 C 133.76 109.41 123.58 112.36 113.41 115.74 C 112.27 113.87 111.17 111.97 110.10 110.05 C 113.79 110.62 117.61 112.43 121.24 111.19 C 129.14 108.89 135.54 105.26 144.14 106.76 Z" fill="#ffffff"/>
    <path d="M 51.01 108.47 C 59.16 108.18 67.95 109.05 75.45 112.43 C 71.13 113.26 67.33 112.19 63.01 111.89 C 58.16 111.45 53.40 111.91 48.56 112.37 C 49.36 111.06 50.15 109.74 51.01 108.47 Z" fill="#ffffff"/>
    <path d="M 92.44 108.57 C 91.71 110.96 90.86 113.25 89.85 115.53 C 89.08 114.02 88.32 112.50 87.63 110.95 C 89.20 110.09 90.81 109.32 92.44 108.57 Z" fill="#ffffff"/>
    <path d="M 147.28 108.37 C 148.25 109.27 149.22 110.18 150.18 111.09 C 138.76 112.53 127.91 115.53 117.43 120.29 C 116.59 119.42 115.75 118.56 114.91 117.69 C 125.29 113.53 136.40 110.90 147.28 108.37 Z" fill="#ffffff"/>
    <path d="M 200.00 107.52 L 200.00 200.00 L 107.32 200.00 C 115.96 199.08 124.47 197.62 132.68 194.73 C 153.80 187.51 172.23 173.07 184.27 154.27 C 193.41 140.23 198.46 124.15 200.00 107.52 Z" fill="none"/>
    <path d="M 86.22 112.02 C 87.31 115.32 87.94 118.59 88.34 122.03 C 89.04 127.62 90.92 132.55 90.81 138.01 C 90.75 140.76 89.85 143.17 88.90 145.69 C 86.95 135.26 86.16 124.79 83.07 114.56 C 84.12 113.71 85.17 112.86 86.22 112.02 Z" fill="#ffffff"/>
    <path d="M 50.16 114.31 C 57.52 113.10 64.60 113.92 71.93 114.88 C 71.31 115.66 70.69 116.44 70.07 117.22 C 62.73 116.04 55.44 116.29 48.05 116.37 C 48.74 115.67 49.44 114.99 50.16 114.31 Z" fill="#ffffff"/>
    <path d="M 151.34 113.29 C 151.57 114.20 151.81 115.12 152.04 116.04 C 141.47 117.29 131.27 120.04 121.64 124.61 C 120.63 123.74 119.62 122.86 118.61 121.98 C 129.12 117.51 139.85 113.98 151.34 113.29 Z" fill="#ffffff"/>
    <path d="M 81.20 115.88 C 84.47 126.37 85.82 137.02 86.65 147.94 C 85.71 148.32 84.77 148.69 83.83 149.06 C 83.65 138.53 82.36 128.12 79.06 118.08 C 79.77 117.35 80.49 116.61 81.20 115.88 Z" fill="#ffffff"/>
    <path d="M 49.43 118.91 C 55.93 117.87 62.81 117.89 69.24 119.36 C 66.54 121.54 64.14 120.25 61.00 120.29 C 56.97 119.95 53.29 121.03 49.50 122.19 C 49.46 121.10 49.38 120.00 49.43 118.91 Z" fill="#ffffff"/>
    <path d="M 152.96 118.39 L 151.67 121.00 C 149.23 121.90 146.47 122.08 143.92 122.65 C 137.87 123.78 132.16 125.98 126.72 128.83 C 125.55 127.89 124.39 126.95 123.24 126.01 C 132.62 121.75 142.67 119.07 152.96 118.39 Z" fill="#ffffff"/>
    <path d="M 77.49 119.44 C 80.14 129.37 81.96 139.37 81.81 149.69 C 80.40 149.57 79.00 149.43 77.59 149.30 C 78.20 140.07 77.99 131.11 75.41 122.17 C 76.07 121.24 76.78 120.34 77.49 119.44 Z" fill="#ffffff"/>
    <path d="M 66.18 122.77 C 65.77 123.68 65.35 124.58 64.93 125.48 C 61.34 125.69 57.93 126.20 54.48 127.22 C 53.40 126.15 52.32 125.07 51.25 123.99 C 56.28 122.10 60.91 122.01 66.18 122.77 Z" fill="#ffffff"/>
    <path d="M 73.64 123.84 C 75.90 131.99 76.42 140.60 75.23 148.97 C 74.10 147.33 73.00 146.25 73.36 144.09 C 73.80 138.25 73.02 132.60 71.71 126.93 C 72.32 125.89 72.98 124.86 73.64 123.84 Z" fill="#ffffff"/>
    <path d="M 111.23 123.54 C 111.34 124.17 111.44 124.81 111.54 125.45 C 111.34 132.07 111.35 138.69 111.07 145.30 C 109.57 142.61 108.04 140.27 108.48 137.02 C 109.02 132.48 110.22 127.99 111.23 123.54 Z" fill="#ffffff"/>
    <path d="M 152.19 123.16 C 151.77 124.17 151.34 125.18 150.91 126.19 C 144.05 126.92 137.96 128.57 132.16 132.41 C 130.95 131.62 129.73 130.83 128.52 130.03 C 136.11 126.38 143.84 124.21 152.19 123.16 Z" fill="#ffffff"/>
    <path d="M 64.91 128.59 C 62.99 129.42 61.04 130.17 59.09 130.94 C 58.29 130.13 57.50 129.32 56.71 128.51 C 59.52 127.98 62.15 127.51 64.91 128.59 Z" fill="#ffffff"/>
    <path d="M 113.70 126.70 C 114.47 127.50 115.22 128.31 115.98 129.13 L 116.68 129.97 C 116.59 136.69 116.69 143.27 117.32 149.97 C 116.23 148.86 113.27 147.80 113.44 145.98 C 113.19 140.81 113.34 135.59 113.48 130.42 C 113.54 129.18 113.62 127.94 113.70 126.70 Z" fill="#ffffff"/>
    <path d="M 149.41 128.51 C 146.72 130.70 143.84 133.28 140.61 134.65 C 138.68 135.13 136.25 134.08 134.34 133.73 C 138.81 130.34 143.96 129.26 149.41 128.51 Z" fill="#ffffff"/>
    <path d="M 69.97 128.90 C 71.47 134.41 71.76 139.64 71.20 145.33 C 70.34 143.93 68.94 142.49 68.55 140.87 C 68.32 138.09 68.47 135.26 68.40 132.47 C 68.89 131.27 69.42 130.07 69.97 128.90 Z" fill="#ffffff"/>
    <path d="M 118.73 131.20 C 119.80 132.32 122.27 133.34 122.20 135.12 C 122.59 140.05 122.96 144.92 123.93 149.78 C 122.42 150.03 120.90 150.27 119.38 150.50 C 118.74 144.07 118.48 137.66 118.73 131.20 Z" fill="#ffffff"/>
    <path d="M 124.45 134.94 C 125.81 135.57 127.17 136.19 128.53 136.82 C 128.86 139.66 129.31 142.44 130.02 145.20 C 128.66 146.57 127.27 147.91 125.86 149.23 C 124.79 144.46 124.40 139.82 124.45 134.94 Z" fill="#ffffff"/>
    <path d="M 30.65 136.14 C 34.31 138.71 34.49 142.34 35.69 146.27 C 38.69 146.91 42.69 146.89 45.18 148.79 C 46.24 150.85 46.58 153.31 47.54 155.43 C 49.35 155.63 51.20 155.50 53.01 155.61 C 53.48 157.34 53.68 159.14 54.12 160.88 C 56.34 161.52 58.71 161.40 60.92 162.02 C 63.37 163.86 63.87 168.06 65.36 170.67 C 69.33 171.99 72.93 170.83 76.19 174.15 C 70.73 174.06 65.96 173.68 61.10 176.60 C 60.73 172.70 61.43 166.89 56.87 165.16 C 54.45 163.88 52.61 166.59 50.71 167.68 C 49.68 166.03 48.70 164.05 47.25 162.73 C 45.72 161.43 43.44 160.86 41.59 160.14 C 42.44 157.86 44.59 155.61 42.82 153.24 C 40.17 149.46 34.76 150.99 30.94 151.40 C 31.43 149.33 32.14 147.15 32.18 145.01 C 31.98 142.04 31.14 139.08 30.65 136.14 Z" fill="#009a65"/>
    <path d="M 130.75 137.48 C 132.40 137.31 134.08 137.33 135.74 137.29 C 134.28 139.23 132.79 141.15 131.20 143.00 C 130.98 141.15 130.75 139.36 130.75 137.48 Z" fill="#ffffff"/>
    <path d="M 169.70 136.18 C 168.59 141.46 167.37 146.10 169.41 151.40 C 166.55 151.09 162.95 150.20 160.18 151.24 C 158.44 151.86 157.27 153.25 156.73 154.99 C 156.99 156.77 158.02 158.49 158.75 160.13 C 157.00 160.81 154.98 161.32 153.44 162.43 C 151.80 163.65 150.85 165.88 149.82 167.62 C 147.84 166.59 145.52 163.77 143.21 165.26 C 139.01 167.01 139.52 172.96 139.22 176.64 C 134.39 173.63 129.62 174.07 124.16 174.14 C 127.38 171.06 130.96 171.52 135.01 171.08 C 136.17 168.27 136.87 164.24 139.21 162.19 C 141.25 161.29 143.79 161.56 145.96 161.10 C 146.83 159.53 146.80 157.44 147.29 155.72 C 149.13 155.45 151.14 155.66 152.97 155.28 C 153.79 153.24 154.08 150.97 155.01 148.98 C 157.36 146.86 161.67 146.95 164.65 146.28 C 165.86 142.33 166.02 138.74 169.70 136.18 Z" fill="#009a65"/>
    <path d="M 87.31 169.94 C 86.66 173.97 85.97 178.01 85.04 181.99 C 84.76 183.83 83.80 184.72 82.55 185.98 C 82.80 181.49 83.86 177.21 84.82 172.83 L 81.46 173.06 C 83.34 171.65 85.11 170.71 87.31 169.94 Z" fill="#009a65"/>
    <path d="M 118.31 172.51 C 118.45 173.85 118.34 175.25 118.29 176.59 C 119.08 178.44 120.87 180.90 119.96 182.92 C 119.03 185.64 114.65 186.34 113.03 183.91 C 111.79 182.30 112.43 179.66 112.56 177.76 C 111.84 176.00 110.20 174.18 111.21 172.22 C 112.49 169.43 117.37 169.35 118.31 172.51 Z" fill="#009a65"/>
    <path d="M 97.70 174.21 C 97.76 175.70 96.93 177.26 96.47 178.65 C 96.81 180.60 97.82 182.90 96.74 184.70 C 95.59 187.30 91.26 187.24 89.91 184.88 C 88.59 182.89 90.00 180.24 90.68 178.23 C 90.52 176.69 90.00 174.92 90.39 173.41 C 91.59 170.19 97.20 170.82 97.70 174.21 Z" fill="#009a65"/>
    <path d="M 108.23 175.04 C 108.36 178.39 104.95 179.41 102.60 180.84 C 102.89 182.12 103.15 183.38 103.56 184.62 C 104.49 185.11 105.41 185.01 106.31 184.34 C 106.40 183.15 106.45 181.95 106.45 180.74 C 107.03 180.16 107.63 179.58 108.22 179.00 C 108.34 180.77 108.84 182.79 108.42 184.53 C 107.26 187.38 102.51 187.67 101.24 184.77 C 100.25 182.98 101.31 180.55 101.61 178.63 C 101.18 176.95 99.99 174.76 100.96 173.13 C 103.01 170.24 108.12 171.13 108.23 175.04 Z" fill="#009a65"/>
    <path d="M 115.14 171.71 C 117.58 173.62 115.79 175.21 115.17 177.53 C 114.19 175.99 113.23 174.42 112.37 172.81 C 113.28 172.41 114.21 172.04 115.14 171.71 Z" fill="#ffffff"/>
    <path d="M 92.49 173.60 L 93.97 172.71 C 96.70 173.24 95.87 178.13 93.23 177.66 C 92.02 176.40 91.96 175.20 92.49 173.60 Z" fill="#ffffff"/>
    <path d="M 103.85 172.78 C 106.53 173.25 105.57 175.42 106.09 177.46 C 104.95 177.49 103.81 177.51 102.67 177.53 C 102.84 175.73 102.46 174.18 103.85 172.78 Z" fill="#ffffff"/>
    <path d="M 115.28 178.32 C 117.72 176.63 118.87 182.77 117.18 183.28 C 114.40 185.31 113.01 178.55 115.28 178.32 Z" fill="#ffffff"/>
    <path d="M 92.36 179.41 C 96.16 178.24 96.13 184.88 93.03 184.92 C 90.58 184.22 91.35 181.03 92.36 179.41 Z" fill="#ffffff"/>
</svg>
