<?xml version="1.0" encoding="UTF-8"?>
<!-- Generator: Adobe Illustrator 13.0.0, SVG Export Plug-In . SVG Version: 6.00 Build 14948)  -->
<!DOCTYPE svg PUBLIC "-//W3C//DTD SVG 1.1//EN" "http://www.w3.org/Graphics/SVG/1.1/DTD/svg11.dtd">
<svg version="1.1" id="Ebene_1" xmlns="http://www.w3.org/2000/svg" xmlns:xlink="http://www.w3.org/1999/xlink" x="0px" y="0px" width="406.439px" height="591.603px" viewBox="0 0 406.439 591.603" enable-background="new 0 0 406.439 591.603" xml:space="preserve">
<path fill="#FECD1B" d="M83.732,94.372c3.335-17.808,15.824-31.042,31.78-34.845c0.877-0.214,1.651-0.235,2.603-0.418  c2.154-0.423,4.895-0.922,7.527-0.621c0.082,0.005,0.199,0,0.185,0c2.086,0.257,4.192,0.328,6.41,0.726  c2.121,0.375,4.28,1.144,6.221,1.867c0.473,0.178,1.506,0.96,2.047,0.83l0.093-0.21c2.55-2.518,4.655-5.58,7.342-7.982  c6.128-5.496,15.253-9.454,26.104-9.438c4.441,0.005,8.194,1.016,12.08,1.658c-2.053-8.649,2.822-16.55,7.341-19.599  c1.74-1.177,3.744-1.862,5.763-2.799v-7.569h-7.435V7.987h7.435c0-2.624,0-5.54,0.088-7.987h3.904h3.904  c0.088,2.447,0.088,5.364,0.088,7.987h7.435v7.985h-7.435v7.569c2.019,0.938,4.022,1.623,5.763,2.799  c4.519,3.049,9.394,10.949,7.341,19.599c3.886-0.642,7.639-1.653,12.08-1.658c10.852-0.015,19.977,3.943,26.104,9.438  c2.687,2.402,4.792,5.464,7.342,7.982l0.093,0.21c0.541,0.13,1.574-0.652,2.047-0.83c1.94-0.724,4.1-1.493,6.221-1.867  c2.218-0.397,4.324-0.468,6.41-0.726c-0.015,0,0.103,0.005,0.185,0c2.633-0.301,5.373,0.198,7.527,0.621  c0.951,0.183,1.726,0.204,2.603,0.418c15.956,3.802,28.445,17.037,31.78,34.845c0.639,3.416,0.926,7.692,0.648,11.818  c-1.244,18.569-7.035,31.067-13.567,43.66c-2.886,5.576-6.206,12.431-11.148,15.659c0.736,1.158,1.667,2.278,2.232,3.631  c1.287,3.092,1.229,7.358,0.186,10.577c-3.861,11.872-21.674,14.897-32.525,8.189c-4.821-2.982-7.443-6.482-8.175-13.792  c-8.999,9.562-28.557,9.147-35.767-2.075c-0.906-1.419-1.453-3.088-2.048-4.873c-1.263,1.87-2.432,3.861-4.09,5.29  c-3.868,3.339-9.539,5.021-15.233,5.065c-5.694-0.044-11.365-1.727-15.233-5.065c-1.658-1.429-2.827-3.42-4.09-5.29  c-0.595,1.785-1.142,3.454-2.048,4.873c-7.21,11.222-26.768,11.637-35.767,2.075c-0.731,7.31-3.354,10.81-8.175,13.792  c-10.852,6.708-28.664,3.683-32.525-8.189c-1.043-3.219-1.102-7.485,0.186-10.577c0.565-1.354,1.496-2.473,2.232-3.631  c-4.942-3.228-8.263-10.083-11.148-15.659c-6.532-12.592-12.323-25.091-13.567-43.66C82.807,102.064,83.094,97.788,83.732,94.372z"/>
<path fill="#E2002B" d="M124.155,84.309c-6.64,0.507-11.125,3.713-13.938,8.506c-5.017,8.535-1.413,24.184,1.39,32.456  c1.501,4.424,3.768,8.521,5.859,12.444c1.375,2.588,3.135,5.046,4.733,7.465c2.203,3.333,4.982,6.485,4.368,12.656  c2.695,0.443,4.694,0.697,6.785,1.345c3.69,1.136,6.196,3.557,8.921,5.708c0-4.414,1.438-7.076,3.247-9.442  c0.975-1.273,1.988-2.369,3.251-3.319c0.565-0.423,1.039-0.771,1.673-1.141c-0.658-0.595-1.36-1.377-1.945-2.073  c-2.472-2.904-3.881-7.396-5.489-11.199c-4.796-11.339-9.019-23.086-10.773-37.953c-0.536-4.532-0.814-9.69-0.186-14.416  C129.85,84.627,126.5,84.131,124.155,84.309"/>
<path fill="#E2002B" d="M178.224,69.689c5.06,0.42,9.276,2.007,13.011,3.938v59.319c0,2.299-0.107,4.724,0.186,6.744  c0.351,2.385,1.276,4.46,2.325,6.118c-5.86,3.072-8.161,5.171-10.969,11.717c-2.403-5.175-7.214-8.117-12.815-9.75  c0.312-1.722,0.887-3.334,0.74-5.493c-0.282-4.262-2.145-7.004-3.437-10.061c-1.281-3.036-2.583-6.062-3.813-9.123  c-3.631-9.044-10.241-29.774-5.669-41.897c1.087-2.878,2.892-4.918,4.929-6.739C166.261,71.279,171.394,69.114,178.224,69.689"/>
<path fill="#E2002B" d="M282.284,84.309c6.64,0.507,11.125,3.713,13.938,8.506c5.017,8.535,1.413,24.184-1.39,32.456  c-1.501,4.424-3.768,8.521-5.859,12.444c-1.375,2.588-3.135,5.046-4.733,7.465c-2.203,3.333-4.982,6.485-4.368,12.656  c-2.695,0.443-4.694,0.697-6.785,1.345c-3.69,1.136-6.196,3.557-8.921,5.708c0-4.414-1.438-7.076-3.247-9.442  c-0.975-1.273-1.988-2.369-3.251-3.319c-0.565-0.423-1.039-0.771-1.673-1.141c0.658-0.595,1.36-1.377,1.945-2.073  c2.472-2.904,3.881-7.396,5.489-11.199c4.796-11.339,9.019-23.086,10.773-37.953c0.536-4.532,0.814-9.69,0.186-14.416  C276.59,84.627,279.939,84.131,282.284,84.309"/>
<path fill="#E2002B" d="M228.216,69.689c-5.06,0.42-9.276,2.007-13.011,3.938v59.319c0,2.299,0.107,4.724-0.186,6.744  c-0.351,2.385-1.276,4.46-2.325,6.118c5.86,3.072,8.161,5.171,10.969,11.717c2.403-5.175,7.214-8.117,12.815-9.75  c-0.312-1.722-0.887-3.334-0.74-5.493c0.282-4.262,2.145-7.004,3.437-10.061c1.281-3.036,2.583-6.062,3.813-9.123  c3.631-9.044,10.241-29.774,5.669-41.897c-1.087-2.878-2.892-4.918-4.929-6.739C240.179,71.279,235.046,69.114,228.216,69.689"/>
<path fill="#E2002B" d="M0,388.379c0-112.234,90.979-203.215,203.223-203.215c112.232,0,203.217,90.98,203.217,203.215  c0,112.24-90.984,203.224-203.217,203.224C90.979,591.603,0,500.619,0,388.379z"/>
<path d="M27.197,386.546c0,3.889,3.768,7.043,8.424,7.043c4.65,0,8.418-3.154,8.418-7.043c0-3.887-3.768-7.043-8.418-7.043  C30.965,379.503,27.197,382.659,27.197,386.546z"/>
<path d="M44.162,450.311c9.198-2.728,15.229-12.437,12.918-22.136l-2.974-12.483l-35.445,9.241l2.979,12.482  C24.038,447.487,34.606,453.127,44.162,450.311z M29.552,435.349l-0.853-3.582l19.61-5.116l0.854,3.586  c1.194,5.005-2.413,9.62-7.151,11.052C36.972,442.796,30.819,440.663,29.552,435.349z"/>
<polygon points="71.031,479.049 78.163,474.915 67.868,455.473 35.918,473.989 46.511,493.989 53.648,489.85 47.306,477.879   53.375,474.356 58.537,484.106 65.67,479.966 60.512,470.221 64.981,467.627 "/>
<path d="M107.705,504.431l-7.771-6.353L77.451,528.18l8.487,6.937c5.947,4.866,13.699,6.186,17.969,0.465  c2.623-3.51,2.242-7.863-0.063-11.605c3.563,0.813,6.849-0.059,9.097-3.069C116.87,515.639,113.229,508.937,107.705,504.431z   M97.512,529.144c-1.574,2.109-4.1,1.254-7.024-1.138l-1.111-0.902l4.274-5.723l1.106,0.902  C97.873,524.833,99.052,527.086,97.512,529.144z M104.824,516.778c-1.126,1.501-2.784,1.446-5.47-0.752l-1.053-0.861l3.52-4.72  l1.009,0.826C105.517,513.467,105.945,515.269,104.824,516.778z"/>
<path d="M114.12,552.077l7.22,5.592l5.05-6.082l10.569,4.922l-0.937,8l8.8,1.868l2.598-39.77l-6.78-3.164L114.12,552.077z   M137.998,547.657l-6.012-2.799l7.415-8.96L137.998,547.657z"/>
<polygon points="258.001,558.802 255.968,551.858 266.156,548.601 263.772,540.441 253.584,543.698 252.093,538.587   264.026,534.771 261.642,526.612 241.319,533.107 252.005,569.64 272.907,562.957 270.52,554.796 "/>
<polygon points="296.448,541.333 282.692,515.384 275.019,519.827 292.733,553.237 311.585,542.316 307.631,534.85 "/>
<path d="M308.358,494.552c-7.055,7.124-4.92,19.044,1.886,26.422c6.814,7.371,18.135,10.008,25.184,2.887  c7.054-7.122,4.924-19.044-1.887-26.416C326.73,490.069,315.407,487.433,308.358,494.552z M329.852,517.815  c-3.774,3.806-8.984,1.28-13.211-3.298c-4.227-4.583-6.464-10.117-2.701-13.917c3.768-3.805,8.979-1.28,13.211,3.299  C331.381,508.481,333.614,514.01,329.852,517.815z"/>
<polygon points="339.361,453.859 357.472,464.354 333.283,465.33 329.037,473.352 360.991,491.871 365.242,483.853 347.133,473.357   371.321,472.381 375.567,464.364 343.617,445.84 "/>
<path d="M381.212,421.466l7.673-0.704l-0.083-9.391l-37.745,5.605l-1.541,7.603l32.301,21.169l3.729-8.547l-6.737-3.905  L381.212,421.466z M371.345,428.973l-9.92-5.721l11.29-1.007L371.345,428.973z"/>
<path d="M364.453,390.63c0,3.882,3.772,7.038,8.418,7.038c4.655,0,8.429-3.156,8.429-7.038c0-3.89-3.773-7.043-8.429-7.043  C368.226,383.587,364.453,386.74,364.453,390.63z"/>
<polygon points="351.68,367.686 359.597,365.619 356.506,352.64 384.035,345.468 381.909,336.567 346.469,345.807 "/>
<path d="M335.384,320.762c4.899,8.881,16.477,9.613,24.964,4.486c8.487-5.121,13.674-15.975,8.775-24.855  c-4.899-8.881-16.478-9.61-24.964-4.484C335.671,301.036,330.484,311.884,335.384,320.762z M348.604,303.964  c5.27-3.184,10.939-4.114,13.562,0.632c2.613,4.744-0.989,9.416-6.259,12.602c-5.275,3.185-10.949,4.107-13.563-0.637  C339.728,311.821,343.33,307.143,348.604,303.964z"/>
<polygon points="314.915,292.73 325.02,282.874 348.731,277.074 344.929,268.507 327.955,273.653 329.096,270.408 330.041,270.188   334.706,256.662 333.849,256.177 333.845,256.187 326.146,251.74 318.956,276.073 308.854,285.928 "/>
<polygon points="288.021,241.699 287.688,267.013 295.123,271.874 314.48,239.476 307.042,234.615 296.073,252.971 296.121,249.397   296.765,248.257 296.995,228.054 296.396,227.635 296.395,227.651 288.976,222.802 269.617,255.202 277.052,260.059 "/>
<path d="M253.336,242.15l0.404,8.045l8.979,0.244l-4.052-39.641l-7.199-1.884l-21.356,33.016l8.033,4.19l3.969-6.9L253.336,242.15z   M252.316,221.408l0.565,11.831l-6.376-1.667L252.316,221.408z"/>
<path d="M207.961,230.789h1.403c7.795,0,15.283-5.54,15.283-13.688c0-8.156-7.488-13.694-15.283-13.694h-10.169v38.205h8.766  V230.789z M207.961,211.944h1.403c3.105,0,6.392,1.909,6.392,5.157c0,3.242-3.286,5.153-6.392,5.153h-1.403V211.944z"/>
<path d="M172.34,229.98c1.799,0.579,3.491,1.241,3.827,3.189c0.317,1.878-0.795,3.754-2.545,4.338  c-2.51,0.819-5.366,0.22-6.482-2.202l-4.203,7.506c3.563,3.438,8.391,3.926,12.387,3.044c6.367-1.42,10.652-7.905,9.414-14.591  c-1.077-5.624-5.396-8.177-10.754-9.722l-2.516-0.742c-2.706-0.767-4.968-1.175-4.816-3.487c0.093-1.384,0.945-2.682,2.262-2.975  c2.009-0.512,4.096-0.646,5.465,0.872l3.953-7.193c-3.397-2.631-6.888-2.962-11.114-2.021c-5.304,1.175-10.276,7.033-9.136,13.224  c1.117,6.128,6.338,8.226,12.129,10.064L172.34,229.98z"/>
<polygon points="137.524,247.237 134.697,240.607 144.433,236.073 141.112,228.279 131.378,232.815 129.296,227.928   140.698,222.619 137.383,214.824 117.972,223.86 132.83,258.759 152.798,249.463 149.478,241.668 "/>
<path d="M98.048,283.896c6.893-7.464,5.87-19.827-1.481-26.807c-7.094-6.714-18.159-6.917-24.799,0.271l-8.54,9.251l26.28,26.535  L98.048,283.896z M77.637,263.287c3.422-3.706,9.077-2.955,12.753,0.489c3.895,3.666,5.426,10.255,1.789,14.195l-2.452,2.657  L75.18,265.942L77.637,263.287z"/>
<path d="M51.099,317.998c8.467,4.901,20.056,4.193,24.744-4.663c2.599-4.896,3.154-9.235,1.404-14.471l-0.007,0.001l-0.183-0.618  l-7.945,1.892l0.15,0.427l-0.009,0.002c1.463,2.88,1.259,5.893-0.438,8.697c-2.827,4.545-8.877,3.224-13.406,0.6  c-4.528-2.621-8.652-7.194-6.619-12.2c1.238-2.998,3.271-4.731,6.288-5.31l-2.33-7.678c-5.177,1.22-8.395,4.015-10.992,8.909  C37.303,301.998,42.631,313.089,51.099,317.998z"/>
<path d="M58.411,351.393l-11.748-2.83l0.302-1.368l15.263-7.423l-1.999-8.782l-0.031,0.017l-0.31-1.159l-13.649,7.212  c-1.419-3.852-4.396-6.588-7.95-7.446c-7.128-1.719-13.519,4.323-15.161,11.767l-2.287,10.356l35.602,8.593L58.411,351.393z   M39.023,345.215l-0.308,1.425l-7.955-1.919l0.316-1.425c0.917-4.157,2.657-5.243,5.206-4.626  C38.834,339.287,39.613,342.55,39.023,345.215z"/>
<path d="M183.37,559.118c3.587-1.743,6-5.042,6.573-8.825c1.136-7.551-5.061-13.798-12.28-14.994l-10.047-1.664l-5.708,37.733  l8.662,1.436l1.882-12.452l1.321,0.218l8.15,15.407l8.239-2.7l-0.022-0.038l1.011-0.265L183.37,559.118z M181.164,548.835  c-0.41,2.705-3.466,3.749-6.05,3.321l-1.385-0.229l1.272-8.432l1.385,0.228C180.418,544.395,181.573,546.133,181.164,548.835z"/>
<path d="M227.563,562.666l-0.273,0.549c-1.525,2.799-4.028,4.238-7.166,4.279c-5.191-0.005-7.424-6.034-7.785-11.433  c-0.36-5.398,1.063-11.506,6.182-12.452c3.076-0.543,5.577,0.293,7.683,2.629l4.895-6.23c-3.803-3.867-7.79-5.172-13.132-4.782  c-9.176,0.667-15.172,11.381-14.494,21.483c0.673,10.097,7.557,19.868,17.213,19.164c5.344-0.388,9.126-2.261,12.367-6.646  l-0.004-0.004l0.312-0.497L227.563,562.666z"/>
<path fill="#FECD1B" d="M24.818,388.552c0,3.888,3.768,7.041,8.419,7.041c4.655,0,8.424-3.153,8.424-7.041  c0-3.884-3.769-7.037-8.424-7.037C28.586,381.515,24.818,384.668,24.818,388.552z"/>
<path fill="#FECD1B" d="M362.205,388.552c0,3.888,3.769,7.041,8.424,7.041c4.65,0,8.419-3.153,8.419-7.041  c0-3.884-3.769-7.037-8.419-7.037C365.974,381.515,362.205,384.668,362.205,388.552z"/>
<path fill="#FECD1B" d="M48.603,318.785c8.473,4.907,20.06,4.192,24.749-4.657c2.599-4.902,3.149-9.237,1.404-14.472l-8,1.699  c1.463,2.885,1.263,5.897-0.438,8.697c-2.823,4.553-8.878,3.227-13.406,0.606c-4.529-2.628-8.647-7.196-6.62-12.207  c1.238-2.996,3.276-4.729,6.293-5.305l-2.33-7.682c-5.177,1.221-8.395,4.014-10.993,8.917  C34.807,302.784,40.141,313.877,48.603,318.785z"/>
<path fill="#FECD1B" d="M94.874,284.034c6.894-7.467,5.864-19.83-1.486-26.809c-7.093-6.714-18.159-6.916-24.799,0.272l-8.54,9.257  l26.285,26.53L94.874,284.034z M74.464,263.427c3.422-3.711,9.072-2.96,12.752,0.486c3.896,3.664,5.427,10.257,1.789,14.193  l-2.452,2.659l-14.546-14.685L74.464,263.427z"/>
<polygon fill="#FECD1B" points="287.157,238.655 286.831,263.965 294.26,268.831 313.613,236.433 306.184,231.572 295.216,249.927   295.551,224.618 288.112,219.759 268.755,252.152 276.188,257.016 "/>
<path fill="#FECD1B" d="M251.024,239.936l0.395,8.044l8.985,0.245l-4.046-39.638l-7.205-1.884l-21.356,33.013l8.028,4.193  l3.968-6.903L251.024,239.936z M250.002,219.193l0.564,11.83l-6.376-1.665L250.002,219.193z"/>
<path fill="#FECD1B" d="M205.646,228.575h1.403c7.795,0,15.283-5.538,15.283-13.693c0-8.15-7.488-13.688-15.283-13.688H196.88  v38.203h8.766V228.575z M205.646,209.731h1.403c3.105,0,6.392,1.904,6.392,5.151s-3.286,5.157-6.392,5.157h-1.403V209.731z"/>
<path fill="#FECD1B" d="M170.488,227.908c1.799,0.574,3.49,1.242,3.826,3.184c0.317,1.884-0.794,3.757-2.545,4.344  c-2.51,0.813-5.366,0.213-6.487-2.208l-4.197,7.507c3.563,3.439,8.389,3.93,12.386,3.044c6.367-1.415,10.652-7.9,9.419-14.593  c-1.082-5.615-5.402-8.175-10.754-9.719l-2.521-0.743c-2.705-0.762-4.968-1.169-4.815-3.481c0.092-1.39,0.945-2.682,2.261-2.975  c2.009-0.518,4.095-0.652,5.465,0.867l3.954-7.193c-3.398-2.628-6.889-2.962-11.114-2.022c-5.304,1.18-10.277,7.039-9.137,13.23  c1.117,6.128,6.338,8.22,12.124,10.058L170.488,227.908z"/>
<polygon fill="#FECD1B" points="134.614,246.266 131.786,239.636 141.521,235.106 138.202,227.312 128.467,231.844 126.385,226.957   137.787,221.648 134.468,213.853 115.061,222.888 129.925,257.794 149.887,248.498 146.567,240.702 "/>
<polygon fill="#FECD1B" points="314.978,289.478 325.089,279.621 348.799,273.823 344.992,265.254 328.022,270.401 334.116,253.055   326.21,248.487 319.024,272.82 308.919,282.68 "/>
<path fill="#FECD1B" d="M335.188,317.688c4.899,8.881,16.477,9.61,24.964,4.489c8.488-5.126,13.674-15.98,8.775-24.858  c-4.899-8.881-16.477-9.608-24.965-4.484C335.477,297.961,330.29,308.808,335.188,317.688z M348.409,300.891  c5.271-3.187,10.939-4.109,13.563,0.632c2.617,4.744-0.99,9.416-6.26,12.599c-5.27,3.188-10.949,4.11-13.562-0.634  C339.527,308.747,343.135,304.068,348.409,300.891z"/>
<polygon fill="#FECD1B" points="353.201,364.846 361.118,362.784 358.027,349.804 385.551,342.634 383.43,333.732 347.995,342.973   "/>
<path fill="#FECD1B" d="M45.614,447.408c9.203-2.73,15.233-12.442,12.923-22.141l-2.974-12.483l-35.449,9.241l2.979,12.482  C25.491,444.579,36.06,450.223,45.614,447.408z M31.009,432.445l-0.853-3.586l19.611-5.112l0.853,3.582  c1.195,5.006-2.417,9.622-7.151,11.058C38.429,439.896,32.276,437.754,31.009,432.445z"/>
<polygon fill="#FECD1B" points="71.89,475.797 79.031,471.662 68.727,452.22 36.776,470.737 47.374,490.737 54.511,486.602   48.164,474.622 54.233,471.109 59.396,480.854 66.532,476.72 61.37,466.97 65.84,464.379 "/>
<path fill="#FECD1B" d="M107.314,501.105l-7.775-6.349l-22.487,30.101l8.492,6.94c5.947,4.866,13.693,6.187,17.964,0.464  c2.627-3.513,2.242-7.861-0.059-11.607c3.563,0.816,6.844-0.061,9.097-3.068C116.48,512.32,112.828,505.616,107.314,501.105z   M97.117,525.825c-1.574,2.108-4.105,1.251-7.03-1.139l-1.106-0.902l4.275-5.723l1.102,0.905  C97.473,521.511,98.652,523.768,97.117,525.825z M104.424,513.457c-1.126,1.504-2.783,1.446-5.47-0.752l-1.053-0.862l3.525-4.718  l1.004,0.827C105.122,510.147,105.55,511.947,104.424,513.457z"/>
<path fill="#FECD1B" d="M112.136,549.447l7.215,5.59l5.056-6.075l10.568,4.917l-0.94,7.996l8.799,1.869l2.608-39.768l-6.791-3.158  L112.136,549.447z M136.013,545.024l-6.005-2.796l7.404-8.955L136.013,545.024z"/>
<path fill="#FECD1B" d="M188.022,547.733c1.141-7.548-5.064-13.797-12.274-14.993l-10.047-1.666l-5.709,37.73l8.658,1.439  l1.882-12.455l1.325,0.22l8.146,15.404l8.238-2.693l-7.854-13.677C184.571,555.475,187.398,551.883,188.022,547.733z   M179.243,546.279c-0.409,2.704-3.461,3.741-6.05,3.313l-1.38-0.229l1.272-8.425l1.38,0.229  C178.498,541.835,179.652,543.573,179.243,546.279z"/>
<path fill="#FECD1B" d="M217.808,565.83c-5.191,0-7.424-6.031-7.79-11.428c-0.355-5.399,1.063-11.501,6.187-12.452  c3.08-0.549,5.577,0.293,7.683,2.625l4.898-6.228c-3.802-3.87-7.794-5.175-13.142-4.787c-9.17,0.672-15.161,11.386-14.488,21.488  c0.678,10.094,7.557,19.868,17.208,19.165c5.348-0.388,9.126-2.263,12.378-6.646l-5.719-6.092  C223.502,564.331,220.977,565.792,217.808,565.83z"/>
<polygon fill="#FECD1B" points="255.154,557.418 253.126,550.474 263.319,547.219 260.931,539.059 250.742,542.316 249.245,537.204   261.179,533.388 258.796,525.228 238.478,531.723 249.162,568.256 270.062,561.576 267.678,553.416 "/>
<path fill="#FECD1B" d="M305.525,493.865c-7.049,7.119-4.918,19.044,1.892,26.416c6.806,7.372,18.135,10.007,25.183,2.886  c7.05-7.115,4.919-19.044-1.886-26.417C323.898,489.381,312.574,486.743,305.525,493.865z M327.014,517.126  c-3.763,3.801-8.975,1.275-13.211-3.303c-4.227-4.581-6.459-10.114-2.695-13.918c3.769-3.8,8.979-1.274,13.21,3.304  C328.545,507.787,330.782,513.321,327.014,517.126z"/>
<polygon fill="#FECD1B" points="293.47,540.504 279.708,514.553 272.045,518.996 289.76,552.406 308.606,541.486 304.647,534.02 "/>
<path fill="#FECD1B" d="M379.228,424.096l7.679-0.704l-0.088-9.391l-37.741,5.606l-1.55,7.596l32.306,21.174l3.729-8.546  l-6.743-3.905L379.228,424.096z M369.356,431.601l-9.915-5.717l11.285-1.007L369.356,431.601z"/>
<polygon fill="#FECD1B" points="336.451,454.826 354.562,465.324 330.373,466.302 326.127,474.318 358.081,492.835 362.332,484.817   344.222,474.323 368.41,473.347 372.657,465.33 340.707,446.812 "/>
<path fill="#FECD1B" d="M55.871,353.182l-11.749-2.835l0.298-1.361l15.269-7.428l-2.004-8.777l-13.592,7.235  c-1.204-4.469-4.436-7.668-8.355-8.614c-7.116-1.717-13.508,4.319-15.15,11.763l-2.286,10.359l35.596,8.593L55.871,353.182z   M36.483,347.003l-0.312,1.424l-7.956-1.917l0.322-1.429c0.916-4.156,2.656-5.237,5.206-4.62  C36.293,341.076,37.074,344.334,36.483,347.003z"/>
<path fill="#FFFFFF" d="M250.137,262.666L79.683,440.786c3.702,8.716,8.303,16.958,13.681,24.614l181.979-190.155  C267.464,270.211,259.022,265.984,250.137,262.666z"/>
<path fill="#FFFFFF" d="M69.667,375.661L184.65,255.512C123.481,263.984,75.5,313.688,69.667,375.661z"/>
<path fill="#FFFFFF" d="M313.087,311.387L131.12,501.538c7.872,5.026,16.306,9.249,25.183,12.563l170.455-178.113  C323.058,327.277,318.46,319.04,313.087,311.387z"/>
<path fill="#FFFFFF" d="M336.774,401.105l-114.979,120.15C282.963,512.784,330.945,463.081,336.774,401.105z"/>
<path fill="#3D5FA5" d="M275.343,275.245L93.364,465.4c10.093,14.37,22.93,26.672,37.756,36.138l181.967-190.151  C302.998,297.017,290.165,284.713,275.343,275.245z"/>
<path fill="#3D5FA5" d="M337.378,388.388c0-18.593-3.784-36.301-10.621-52.4L156.303,514.101c14.605,5.453,30.413,8.44,46.92,8.44  c6.303,0,12.5-0.445,18.572-1.286l114.979-120.15C337.168,396.918,337.378,392.678,337.378,388.388z"/>
<path fill="#3D5FA5" d="M203.223,254.226c-6.303,0-12.501,0.445-18.572,1.286L69.667,375.661c-0.394,4.19-0.604,8.434-0.604,12.728  c0,18.592,3.784,36.3,10.62,52.397l170.454-178.12C235.533,257.214,219.728,254.226,203.223,254.226z"/>
</svg>