<?xml version="1.0" encoding="UTF-8"?>
<!-- Generator: Adobe Illustrator 13.0.0, SVG Export Plug-In . SVG Version: 6.00 Build 14948)  -->
<!DOCTYPE svg PUBLIC "-//W3C//DTD SVG 1.0//EN" "http://www.w3.org/TR/2001/REC-SVG-20010904/DTD/svg10.dtd">
<svg version="1.0" id="HQFL" xmlns="http://www.w3.org/2000/svg" xmlns:xlink="http://www.w3.org/1999/xlink" x="0px" y="0px" width="398.907px" height="371.236px" viewBox="0 0 398.907 371.236" enable-background="new 0 0 398.907 371.236" xml:space="preserve">
<path fill="#BCA300" d="M396.58,93.101C392.97,62.714,379.465,24.333,361.38,0c-63.18,25.885-100.319,26.816-161.946,3.532  C137.846,26.816,100.707,25.885,37.527,0C19.443,24.333,5.938,62.714,2.29,93.101C0.932,104.782,0.155,113.63,0,121.547v6.675  c0.194,9.935,1.397,19.326,3.415,32.599c7.878,51.382,48.859,101.25,75.792,119.529c56.854,38.498,75.094,12.225,120.227,90.887  c45.173-78.663,63.413-52.389,120.228-90.887c26.972-18.279,67.953-68.147,75.792-119.529c2.057-13.272,3.221-22.625,3.454-32.56  v-6.713C398.752,113.63,397.976,104.82,396.58,93.101z"/>
<path fill="#FFFFFF" d="M278.137,286.985c5.277-2.212,10.439-4.541,15.562-7.103l8.731-4.851c3.959-2.445,7.917-4.929,11.72-7.606  c6.404-4.812,12.108-10.09,17.736-15.795c4.773-5.044,9.237-10.245,13.583-15.678c4.618-5.977,8.887-12.03,12.961-18.395  c3.221-5.317,6.248-10.634,9.12-16.145c2.717-5.55,5.161-11.099,7.412-16.881c1.552-4.308,2.911-8.499,4.153-12.885  c1.28-5.083,2.329-10.128,3.105-15.29c1.318-8.848,2.522-17.619,2.872-26.506c0.388-12.651-0.893-25.225-2.484-37.76  c-1.436-9.663-3.531-19.016-6.248-28.369c-1.164-3.958-2.444-7.84-3.803-11.759c-4.385-12.069-9.546-24.177-16.377-35.121  c-13.117,5.083-26.35,9.236-40.011,12.496c-5.2,1.125-10.362,2.057-15.601,2.911c-5.122,0.66-10.167,1.164-15.329,1.513  c-5.123,0.194-10.168,0.194-15.29,0.078c-5.163-0.271-10.207-0.699-15.33-1.281c-5.278-0.776-10.401-1.63-15.601-2.678  l-10.633-2.522c-9.78-2.678-19.443-5.666-28.951-9.159c-12.923,4.774-26.079,8.654-39.545,11.682  c-5.2,1.048-10.362,1.901-15.601,2.678c-5.123,0.582-10.206,1.009-15.33,1.281c-5.123,0.116-10.167,0.116-15.29-0.078  c-5.162-0.35-10.207-0.853-15.33-1.513c-5.278-0.854-10.4-1.785-15.601-2.911c-13.66-3.26-26.933-7.413-40.011-12.496l-1.475,2.484  C30.697,37.722,23.479,57.59,18.783,78.237c-0.97,4.618-1.824,9.197-2.484,13.854c-1.475,11.41-2.639,22.897-2.561,34.384  c0.194,12.263,1.94,24.488,4.036,36.557c0.931,4.385,1.979,8.614,3.221,12.923c1.397,4.308,2.911,8.577,4.58,12.845  c3.066,7.179,6.403,13.971,10.168,20.8c2.329,3.998,4.695,7.918,7.218,11.798c5.744,8.576,11.836,16.571,18.628,24.333l5.433,5.898  c6.248,6.365,12.612,12.186,19.947,17.347c4.58,3.027,9.197,5.861,13.971,8.616c5.277,2.833,10.594,5.433,16.105,7.839  c10.789,4.462,21.85,8.072,32.521,12.845l7.374,3.803c3.92,2.329,7.568,4.774,11.255,7.451l7.49,6.443l7.567,7.761  c5.822,6.792,11.254,13.815,16.183,21.306c5.938-9.081,12.613-17.426,19.986-25.342l7.53-7.102l7.528-5.822  c3.687-2.406,7.296-4.618,11.176-6.675l7.335-3.453C261.294,293.194,269.754,290.245,278.137,286.985z"/>
<path fill="#E32219" d="M255.706,32.676l-44.939,86.659l26.273-5.55l-42.184,74.278l-8.344-21.655l-48.549,93.721l-15.445-8.46  l9.779,33.492l33.491-9.78l-15.407-8.459l34.5-60.386l6.947,27.36L281.63,90.151l-37.294,6.946l38.187-63.257  c-4.191,0.116-8.344,0.116-12.573,0C265.175,33.608,260.479,33.22,255.706,32.676z"/>
<path d="M349.156,100.241c-0.272-0.271-0.815-0.621-1.591-1.048c-0.737-0.466-1.437-1.009-2.057-1.63  c-0.66-0.66-1.242-1.552-1.747-2.756c-1.086-2.755-2.213-5.277-3.299-7.684c-1.086-2.368-2.406-4.734-3.919-7.141  c-1.514-2.406-3.222-4.58-5.084-6.52c4.462-2.056,7.8-4.502,9.935-7.374c2.134-2.872,3.221-6.092,3.221-9.702  c-0.195-2.251-0.97-4.463-2.251-6.559c-1.319-2.057-3.415-3.803-6.249-5.162c-2.871-1.357-6.559-2.056-11.021-2.056h-7.296h-26.118  c-2.833,0-4.23,1.009-4.23,2.949c0,0.776,0.154,1.281,0.504,1.591c0.311,0.271,0.892,0.621,1.668,1.009  c0.777,0.388,1.36,0.815,1.786,1.318c0.389,0.466,0.583,1.243,0.583,2.291v43.387c0,0.932-0.193,1.669-0.583,2.096  c-0.387,0.466-0.97,0.893-1.747,1.281c-0.737,0.349-1.319,0.737-1.668,1.125c-0.35,0.35-0.543,0.932-0.543,1.708  c0,0.931,0.388,1.668,1.203,2.095c0.776,0.466,1.668,0.66,2.677,0.66h16.805c1.009,0,1.979-0.194,2.871-0.583  c0.893-0.388,1.358-1.125,1.358-2.173c0-0.815-0.194-1.397-0.542-1.708c-0.388-0.349-0.97-0.737-1.708-1.086  c-0.777-0.35-1.358-0.815-1.708-1.281c-0.388-0.504-0.582-1.242-0.582-2.29V78.508l8.499-1.28c0.466,0.543,0.932,1.164,1.475,1.824  c1.281,1.669,2.677,3.765,4.191,6.287c2.134,3.493,3.609,6.675,4.463,9.469c0.194,0.583,0.271,1.242,0.271,1.941  c0,0.543-0.154,1.009-0.426,1.358c-0.311,0.31-0.776,0.698-1.358,1.047c-0.621,0.388-1.087,0.738-1.359,1.048  c-0.31,0.311-0.465,0.776-0.465,1.319c0.077,1.747,1.358,2.601,3.765,2.601h19.016c0.97,0,1.824-0.155,2.561-0.543  c0.777-0.388,1.164-1.009,1.164-1.863C349.621,101.017,349.466,100.552,349.156,100.241z M324.552,66.362  c-1.863,1.747-4.153,3.027-6.753,3.919c-0.388,0.155-0.738,0.232-1.125,0.349c-3.065,0.893-6.054,1.32-8.848,1.32V53.555  c0-1.785,0.621-3.066,1.901-3.803c1.242-0.698,3.105-1.125,5.472-1.242c0.931,0,1.785,0.078,2.6,0.155  c2.95,0.311,5.2,1.242,6.792,2.794c2.018,1.902,3.065,4.386,3.182,7.413C327.772,61.899,326.686,64.383,324.552,66.362z"/>
<path d="M308.058,182.164c1.241-2.211,2.755-5.2,4.618-9.003c1.824-3.841,3.687-7.877,5.511-12.186  c1.863-4.308,3.415-8.227,4.618-11.72c1.164-3.455,1.786-6.016,1.786-7.568c0-1.164-0.311-2.057-0.932-2.639  c-0.622-0.582-1.514-1.164-2.717-1.708c-1.165-0.504-2.019-0.971-2.521-1.358c-0.467-0.388-0.738-1.009-0.738-1.863  c0-1.746,1.475-2.6,4.462-2.6h12.962c3.221,0,4.851,0.854,4.851,2.6c-0.039,1.009-0.427,1.824-1.086,2.367  c-0.66,0.543-1.474,1.125-2.328,1.747c-0.854,0.621-1.397,1.358-1.63,2.29c-0.543,2.095-1.708,5.355-3.531,9.78  c-1.863,4.424-3.998,9.236-6.403,14.476c-2.446,5.238-4.735,9.974-6.908,14.243c-2.135,4.269-3.765,7.295-4.813,9.003  c-1.087,1.785-2.018,3.066-2.756,3.881c-0.737,0.775-1.629,1.397-2.677,1.708c-1.087,0.35-2.562,0.543-4.424,0.543  c-1.979,0-3.415-0.078-4.269-0.156c-0.815-0.116-1.629-0.465-2.368-1.047c-0.737-0.543-1.63-1.475-2.599-2.755  c-2.989-3.726-5.667-7.762-8.034-12.108c-2.367-4.308-4.463-8.616-6.21-12.845c-1.746-4.269-3.375-8.46-4.773-12.535  c-1.436-4.114-2.911-8.344-4.423-12.729c-0.388-1.087-0.932-1.902-1.669-2.406c-0.698-0.504-1.319-1.009-1.862-1.396  c-0.543-0.427-0.854-1.009-0.932-1.747c0-1.94,2.096-2.911,6.209-2.911h16.765c3.803,0,5.705,0.854,5.705,2.6  c0,0.699-0.232,1.28-0.698,1.668c-0.465,0.389-1.204,0.854-2.173,1.319c-0.97,0.466-1.669,0.931-2.135,1.359  c-0.465,0.426-0.699,1.086-0.699,1.862c0.156,2.717,0.97,5.9,2.368,9.586c1.397,3.726,3.066,7.451,4.967,11.177  c1.901,3.764,4.114,7.878,6.598,12.302C305.691,177.818,307.32,180.729,308.058,182.164z"/>
<path d="M218.761,231.529v35.625c0,1.475,0.272,2.562,0.776,3.26c0.505,0.698,1.242,1.241,2.251,1.708  c0.97,0.465,1.668,0.892,2.096,1.241c0.427,0.311,0.659,0.97,0.659,1.863s-0.349,1.553-1.047,1.98  c-0.699,0.388-1.553,0.621-2.483,0.621h-11.371c-2.367,0-3.57-0.931-3.57-2.755c0-1.047,0.698-1.901,2.057-2.601  c1.397-0.698,2.368-1.28,2.911-1.746c0.543-0.465,0.814-1.669,0.814-3.57v-40.166c0-1.863-0.271-3.027-0.854-3.454  c-0.583-0.427-1.669-1.01-3.299-1.708c-1.629-0.738-2.444-1.63-2.444-2.755c0-1.824,1.203-2.756,3.57-2.756h17.347  c1.513,0,2.522,0.35,3.104,1.01c0.543,0.659,1.242,2.056,2.018,4.191l11.759,30.853l12.03-29.845  c0.97-2.445,1.746-4.112,2.329-4.928c0.582-0.854,1.63-1.281,3.027-1.281h16.222c1.823,0,2.716,0.893,2.716,2.601  c0,1.009-0.232,1.708-0.66,2.056c-0.426,0.388-1.125,0.738-2.056,1.049c-0.932,0.31-1.669,0.698-2.135,1.203  c-0.504,0.465-0.737,1.28-0.737,2.406v43.619c0,0.777,0.154,1.398,0.542,1.786c0.389,0.427,0.932,0.815,1.63,1.164  c0.738,0.35,1.32,0.738,1.708,1.125c0.389,0.349,0.583,0.971,0.661,1.747c0,1.824-1.553,2.755-4.541,2.755h-15.756  c-0.854,0-1.668-0.233-2.406-0.738c-0.737-0.465-1.126-1.164-1.126-2.018c0-0.776,0.195-1.358,0.505-1.708  c0.388-0.349,0.893-0.737,1.591-1.086c0.737-0.389,1.28-0.777,1.629-1.203c0.389-0.427,0.583-1.126,0.583-1.98v-38.419  l-14.359,35.975c-0.233,0.97-0.699,1.747-1.436,2.251c-0.699,0.504-1.979,0.815-3.842,0.854c-1.863,0-3.182-0.233-3.919-0.738  c-0.738-0.504-1.359-1.319-1.825-2.367L218.761,231.529z"/>
<path fill="#3B8A56" d="M146.423,151.196c0-2.677,2.716-5.627,5.937-7.141c3.261-1.513,7.063-4.734,8.228-7.761  c1.125-3.027-0.621-7.102-0.854-9.974c-0.388,3.88-2.329,9.042-6.015,11.604c-3.687,2.561-7.296,5.859-7.296,8.033v-6.675  c0-2.755,2.212-4.075,3.958-5.588c1.747-1.475,3.92-3.299,5.317-4.851c1.358-1.591,2.562-3.571,2.64-6.403  c0.038-2.794-2.756-7.219-2.601-8.46c-1.125,3.609-0.621,7.529-2.406,10.439c-1.785,2.911-6.908,5.201-6.908,7.567v-10.245  c0-2.483,3.066-4.424,5.123-6.636c2.057-2.173,4.929-3.687,6.365-7.102c1.436-3.415-0.428-7.761-1.863-10.4  c-0.659,3.182-0.465,8.499-3.57,10.517c-3.105,1.979-6.054,4.579-6.054,7.723v-7.839c0.039-3.647,3.647-7.528,7.334-10.71  c3.648-3.183,4.114-6.132,3.998-8.732c-0.155-2.6-1.63-4.773-2.6-7.374c-0.971,3.376-0.583,7.102-1.747,9.353  c-1.204,2.29-2.251,2.988-3.609,4.463c-1.358,1.474-3.376,3.919-3.376,5.316v-1.436v-0.039c0-1.708,0-3.571,0.31-5.278  c0.466-2.445,1.514-4.657,1.475-6.752c-0.078-4.114-2.754-7.103-2.678-11.138c0.039-4.036,1.436-7.684,2.445-11.836  c-6.131,4.463-9.624,8.615-9.08,15.523c0.659,6.947,6.946,10.828,6.325,20.685v1.901c0-2.29-2.367-5.045-6.17-7.606  c-0.66-0.427-1.242-0.97-1.746-1.591c-2.445-2.911-3.183-7.49-2.833-11.021c-1.785,2.057-3.92,6.326-2.406,10.867  c1.358,3.88,3.221,4.773,5.239,6.481c0.31,0.271,0.659,0.582,0.97,0.932c2.406,2.406,6.946,6.287,6.946,9.313v7.141  c0-1.358-1.164-2.057-2.794-3.298c-2.095-1.592-3.492-2.678-5.122-4.269c-0.156-0.194-0.35-0.35-0.544-0.543  c-1.862-1.863-3.609-4.89-4.036-10.051c-0.971,1.125-3.183,6.17-0.738,10.828c1.009,1.901,2.64,3.376,5.317,5.472  c0.31,0.271,0.621,0.504,0.97,0.776c3.027,2.406,6.752,6.365,6.946,8.81v0.388v8.538c0-2.251-2.6-3.182-4.036-4.89  c-1.165-1.436-2.755-2.794-3.88-4.54c-0.233-0.35-0.466-0.699-0.66-1.087c-1.087-2.251-1.009-5.123-1.63-7.762  c-1.086,2.367-2.949,5.006-2.601,7.995c0.35,2.949,1.631,4.89,4.774,7.762c0.039,0.039,0.078,0.077,0.117,0.077  c3.143,2.872,7.916,6.714,7.916,10.556v7.258c0-1.786-1.824-5.589-3.802-7.374c-1.126-0.97-2.639-1.863-4.114-2.833  c-1.204-0.815-2.367-1.746-3.26-2.833c-2.019-2.483-2.601-5.2-3.765-7.994c-2.057,6.597-0.854,13.233,5.899,15.173  c0.35,0.117,0.738,0.233,1.126,0.427c2.833,1.397,5.976,4.929,7.916,8.577v4.269c0,2.483-0.581,4.851-1.591,7.063  c-1.514-2.601-2.678-6.054-4.618-8.15c-0.543-0.582-1.125-1.086-1.707-1.552c-1.591-1.281-3.338-2.25-4.773-3.958  c-1.941-2.367-2.368-5.433-3.804-8.344c-0.039,2.833-1.281,5.278-0.854,8.033c0.427,2.717,2.833,6.752,6.481,7.606  c1.048,0.233,2.018,0.777,2.95,1.475c2.134,1.668,3.997,4.152,5.82,5.861c-1.397,2.677-3.454,5.123-5.82,7.217  c-5.356,4.773-12.38,7.8-17.503,8.189c-11.328,0.89-20.059-0.149-28.256,1.741c-8.19-1.89-16.92-0.851-28.249-1.741  c-5.161-0.389-12.186-3.416-17.541-8.189c-2.368-2.095-4.386-4.541-5.822-7.217c1.825-1.708,3.688-4.192,5.822-5.861  c0.931-0.698,1.901-1.242,2.949-1.475c3.647-0.854,6.093-4.889,6.481-7.606c0.427-2.755-0.776-5.2-0.854-8.033  c-1.436,2.911-1.863,5.977-3.804,8.344c-1.397,1.708-3.144,2.678-4.773,3.958c-0.583,0.466-1.165,0.97-1.708,1.552  c-1.94,2.096-3.105,5.549-4.618,8.15c-1.009-2.212-1.591-4.58-1.591-7.063v-4.269c1.94-3.648,5.083-7.18,7.917-8.577  c0.388-0.194,0.776-0.311,1.125-0.427c6.752-1.94,7.956-8.577,5.937-15.173c-1.164,2.794-1.746,5.511-3.764,7.994  c-0.932,1.087-2.096,2.018-3.299,2.833c-1.475,0.97-2.988,1.863-4.075,2.833c-2.018,1.785-3.841,5.588-3.841,7.374v-7.258  c0-3.841,4.773-7.684,7.917-10.556c0.039,0,0.077-0.039,0.116-0.077c3.183-2.872,4.424-4.813,4.773-7.762  c0.349-2.988-1.475-5.627-2.6-7.995c-0.622,2.639-0.544,5.511-1.63,7.762c-0.194,0.388-0.427,0.737-0.66,1.087  c-1.125,1.746-2.716,3.104-3.88,4.54c-1.397,1.708-4.036,2.639-4.036,4.89v-8.538v-0.388c0.194-2.445,3.919-6.404,6.985-8.81  c0.311-0.271,0.621-0.504,0.932-0.776c2.678-2.096,4.346-3.57,5.316-5.472c2.445-4.657,0.233-9.702-0.737-10.828  c-0.427,5.161-2.173,8.188-4.036,10.051c-0.194,0.194-0.35,0.35-0.543,0.543c-1.63,1.591-3.027,2.677-5.084,4.269  c-1.63,1.242-2.833,1.94-2.833,3.298v-7.141c0-3.027,4.54-6.908,6.946-9.313c0.311-0.35,0.66-0.66,0.971-0.932  c2.018-1.708,3.919-2.601,5.239-6.481c1.553-4.541-0.582-8.81-2.367-10.867c0.349,3.532-0.427,8.111-2.872,11.021  c-0.505,0.621-1.087,1.165-1.747,1.591c-3.803,2.562-6.17,5.316-6.17,7.606v-1.901c-0.622-9.857,5.665-13.738,6.325-20.685  c0.582-6.908-2.95-11.06-9.042-15.523c0.97,4.152,2.367,7.8,2.445,11.836c0.039,4.036-2.639,7.024-2.717,11.138  c0,2.095,1.048,4.307,1.475,6.752c0.311,1.707,0.349,3.57,0.349,5.278l-0.038,0.039v1.436c0-1.396-2.019-3.842-3.377-5.316  c-1.358-1.475-2.406-2.174-3.609-4.463c-1.164-2.25-0.776-5.976-1.707-9.353c-1.01,2.6-2.485,4.773-2.601,7.374  s0.311,5.549,3.998,8.732c3.648,3.182,7.257,7.063,7.296,10.71v7.839c0-3.144-2.911-5.743-6.054-7.723  c-3.105-2.018-2.912-7.334-3.571-10.517c-1.436,2.639-3.299,6.985-1.863,10.4c1.436,3.416,4.308,4.929,6.364,7.102  c2.057,2.212,5.123,4.153,5.123,6.636v10.245c0-2.367-5.123-4.656-6.908-7.567c-1.784-2.911-1.281-6.83-2.367-10.439  c0.117,1.242-2.678,5.666-2.6,8.46c0.039,2.833,1.242,4.812,2.639,6.403c1.359,1.552,3.571,3.376,5.278,4.851  c1.747,1.513,3.959,2.833,3.959,5.588v6.675c0-2.173-3.609-5.472-7.296-8.033c-3.687-2.562-5.628-7.724-6.016-11.604  c-0.233,2.872-1.979,6.946-0.814,9.974c1.164,3.027,4.967,6.248,8.188,7.761c3.221,1.514,5.938,4.463,5.938,7.141v5.938  c0,0.582,0.038,1.203,0.116,1.785l-0.078-0.155c0-2.018-5.083-4.696-7.334-5.705c-2.251-1.01-3.842-4.657-6.093-8.887  c-0.194,2.949-1.514,6.636,0.465,9.547c1.979,2.949,4.231,5.006,6.714,5.627c2.019,0.465,4.89,1.474,7.374,3.182  c1.514,3.726,4.502,7.218,7.956,10.129c5.627,4.735,12.574,7.956,17.036,8.383c11.639,1.1,18.94,0.628,24.477,1.324  c-4.948,1.879-9.831,5.179-15.124,11.017l4.851,4.424c5.696-9.113,9.54-12.892,14.542-14.532c5.004,1.64,8.847,5.418,14.526,14.532  l4.851-4.424c-5.282-5.84-10.158-9.14-15.101-11.019c5.531-0.694,12.822-0.224,24.453-1.322c4.463-0.427,11.41-3.648,17.038-8.383  c3.454-2.911,6.442-6.403,7.994-10.129c2.445-1.708,5.355-2.716,7.334-3.182c2.485-0.622,4.774-2.678,6.715-5.627  c1.979-2.911,0.698-6.598,0.465-9.547c-2.25,4.23-3.841,7.877-6.092,8.887c-2.251,1.008-7.335,3.687-7.335,5.705l-0.078,0.155  c0.078-0.582,0.117-1.203,0.117-1.785V151.196z"/>
<path fill="#BCA300" d="M99.116,64.615c-0.699-0.039-1.436-0.155-2.213-0.193c-3.958-0.272-5.821-5.045-2.988-7.878  c0.932-0.932,2.639-0.233,2.639,1.086c0,0.854-0.698,1.553-1.552,1.553h-0.039c0.155,0.039,0.31,0.039,0.427,0.039  c1.629,0,2.988-1.358,2.988-2.988c0-1.436-1.048-2.678-2.484-2.911c-2.522-0.388-4.346-2.522-4.346-5.045  c0,2.522-1.825,4.657-4.347,5.045c-1.436,0.233-2.522,1.475-2.522,2.911c0,1.63,1.319,2.988,2.949,2.988  c0.155,0,0.311,0,0.466-0.039c-0.854,0.039-1.552-0.66-1.552-1.553c0-0.854,0.699-1.552,1.552-1.552  c0.388,0,0.776,0.155,1.087,0.466c0.814,0.892,1.319,2.095,1.319,3.26c0,2.445-1.863,4.463-4.308,4.619  c-0.622,0.039-1.437,0.077-2.174,0.193c-0.543,0.039-0.931-0.311-0.931-0.815c0-0.311,0.271-0.621,0.621-0.737  c0.504-0.078,0.892-0.583,0.892-1.125c0-0.349-0.155-0.659-0.427-0.893l-2.988-2.328l-2.329,2.988  c-0.194,0.194-0.233,0.427-0.233,0.659c0,0.66,0.505,1.165,1.125,1.165l0,0c0.466,0,0.815,0.349,0.815,0.776  c0,0.388-0.311,0.699-0.66,0.738c-0.621,0.116-1.397,0.194-2.057,0.349c-2.988,0.504-5.549-1.669-5.549-4.541  c0-0.853,0.232-1.668,0.698-2.444c0.815-1.281,2.872-0.738,2.872,0.854c0,0.699-0.544,1.358-1.242,1.474  c1.513-0.077,2.716-1.357,2.716-2.949c0-1.63-1.358-2.911-2.988-2.911c-0.039,0-0.156,0-0.194,0  c-2.523,0.194-4.851-1.513-5.395-3.958c0.117,0.388,0.117,0.776,0.117,1.164c0,2.095-1.242,3.958-3.182,4.773  c-1.125,0.427-1.824,1.513-1.824,2.755c0,1.63,1.281,2.91,2.911,2.91c0.388,0,0.815-0.039,1.125-0.194  c-0.97,0.272-1.901-0.504-1.901-1.475c0-0.853,0.699-1.552,1.513-1.552c0.311,0,0.621,0.078,0.815,0.194  c1.358,0.854,2.212,2.329,2.212,3.997c0,2.018-1.32,3.803-3.26,4.385c-0.66,0.194-1.398,0.466-2.135,0.699  c-0.543,0.155-1.047-0.194-1.047-0.737c0-0.311,0.155-0.544,0.465-0.698c0.388-0.194,0.621-0.583,0.621-1.048  c0-0.427-0.232-0.854-0.621-1.047l-3.493-1.63l-1.552,3.493c-0.116,0.116-0.116,0.271-0.116,0.465c0,0.66,0.504,1.165,1.125,1.165  c0.117,0,0.233,0,0.311-0.078c0.466-0.078,0.931,0.271,0.931,0.737c0,0.35-0.194,0.621-0.465,0.777  c-0.66,0.232-1.319,0.465-1.979,0.776c-3.144,1.319-6.559-0.893-6.559-4.191c0-0.504,0.117-1.009,0.272-1.513  c0.543-1.63,2.988-1.242,2.988,0.504c0,0.583-0.35,1.126-0.893,1.397c1.242-0.388,2.096-1.552,2.096-2.833  c0-1.63-1.32-2.91-2.988-2.91c-0.271,0-0.582,0.039-0.893,0.078c-2.406,0.815-5.045-0.272-6.17-2.562l10.478,20.956v76.18  c0,5.51,4.463,9.974,10.013,9.974h17.658c3.415,0,6.209,2.794,6.209,6.132c0-3.338,2.716-6.132,6.132-6.132h17.735  c5.472,0,9.974-4.463,9.974-9.974v-76.18l10.439-20.956c-1.125,2.29-3.687,3.376-6.131,2.562c-0.272-0.039-0.582-0.078-0.893-0.078  c-1.629,0-2.949,1.28-2.949,2.91c0,1.281,0.814,2.445,2.018,2.833c-1.475-0.698-0.931-2.911,0.698-2.911  c0.66,0,1.242,0.428,1.436,1.01c0.155,0.504,0.232,1.009,0.232,1.513c0,2.522-2.056,4.579-4.579,4.579  c-0.66,0-1.242-0.078-1.785-0.349c-0.659-0.272-1.358-0.543-2.057-0.776c-0.854-0.349-0.621-1.552,0.233-1.552  c0.039,0,0.116,0,0.194,0c0.078,0.078,0.194,0.078,0.272,0.078c0.66,0,1.164-0.504,1.164-1.165c0-0.194-0.078-0.349-0.116-0.465  l-1.63-3.493l-3.415,1.63c-0.389,0.194-0.699,0.62-0.699,1.047c0,0.466,0.311,0.854,0.699,1.048  c0.232,0.154,0.427,0.388,0.427,0.698c0,0.427-0.311,0.776-0.776,0.776c-0.078,0-0.155-0.039-0.233-0.039  c-0.66-0.194-1.358-0.465-2.096-0.699c-3.842-1.125-4.501-6.248-1.125-8.382c1.048-0.582,2.329,0.117,2.329,1.358  c0,0.854-0.66,1.514-1.552,1.514c-0.078,0-0.233,0-0.35-0.039c0.35,0.155,0.699,0.194,1.087,0.194c1.63,0,2.988-1.28,2.988-2.91  c0-1.242-0.737-2.329-1.824-2.755c-2.406-0.971-3.687-3.493-3.066-5.938c-0.621,2.445-2.872,4.152-5.394,3.958  c-0.116,0-0.155,0-0.271,0c-1.63,0-2.95,1.281-2.95,2.911c0,1.591,1.164,2.872,2.755,2.949c-1.824-0.387-1.513-2.987,0.311-2.987  c0.543,0,1.048,0.232,1.32,0.66c0.465,0.776,0.659,1.591,0.659,2.444c0,2.562-2.057,4.657-4.618,4.657  c-0.232,0-0.504-0.039-0.737-0.116c-0.737-0.078-1.436-0.194-2.173-0.271c-1.009-0.155-0.893-1.591,0.038-1.591l0,0c0,0,0,0,0.039,0  c0.621,0,1.165-0.504,1.165-1.165c0-0.232-0.117-0.465-0.271-0.659l-2.368-2.988l-2.95,2.328c-0.271,0.194-0.465,0.543-0.465,0.893  c0,0.543,0.388,1.048,0.932,1.125c0.349,0.117,0.621,0.427,0.621,0.737c0,0.466-0.35,0.815-0.815,0.815  C99.154,64.615,99.154,64.615,99.116,64.615z"/>
<path d="M123.06,79.673H59.958c20.103-9.353,43.154-9.314,63.179,0H123.06z"/>
<path fill="#E32219" d="M123.06,81.923H59.958v73.93c0,4.23,3.454,7.645,7.723,7.645h17.658c2.329,0,4.618,1.009,6.209,2.678  c1.591-1.669,3.803-2.678,6.132-2.678h17.735c4.23,0,7.645-3.415,7.645-7.645V81.923z"/>
<path d="M91.979,120.584l11.172-16.54c4.037,1.863,8.848,0.039,10.634-4.036l3.609-8.383l-7.567,7.684  c-0.194,0.233-0.504,0.349-0.776,0.349c-0.622,0-1.087-0.504-1.087-1.086c0-0.156,0.039-0.311,0.078-0.427l4.269-9.896l-7.568,7.645  c-0.194,0.233-0.466,0.35-0.776,0.35c-0.582,0-1.087-0.505-1.087-1.087c0-0.155,0.039-0.311,0.117-0.466l4.269-9.896l-6.403,6.481  c-3.144,3.182-3.026,8.343,0.233,11.409L90.5,118.391l-12.457-18.46l10.245-6.908l-2.251-3.376l-0.582,0.35l-5.316-3.765  l1.475,6.365l-0.543,0.388l-5.355-3.764l1.514,6.365l-0.543,0.349l-5.356-3.765l1.514,6.365l-0.582,0.349l-5.316-3.764l1.474,6.364  l-0.543,0.388l-5.317-3.764l1.513,6.364l-0.582,0.349l2.29,3.376l10.245-6.908l13,19.286L66.4,154.106  c-0.116,0.194-0.194,0.427-0.194,0.66c0,1.242,1.592,1.708,2.212,0.698l22.085-32.696l22.039,32.696  c0.233,0.349,0.621,0.543,1.048,0.543c0.659,0,1.203-0.543,1.203-1.242c0-0.233-0.078-0.466-0.194-0.66L91.979,120.584z"/>
</svg>