<?xml version="1.0" encoding="UTF-8" standalone="no"?>
<svg xmlns:dc="http://purl.org/dc/elements/1.1/" xmlns:cc="http://creativecommons.org/ns#" xmlns:rdf="http://www.w3.org/1999/02/22-rdf-syntax-ns#" xmlns:svg="http://www.w3.org/2000/svg" xmlns="http://www.w3.org/2000/svg" xmlns:sodipodi="http://sodipodi.sourceforge.net/DTD/sodipodi-0.dtd" xmlns:inkscape="http://www.inkscape.org/namespaces/inkscape" inkscape:version="1.0 (4035a4f, 2020-05-01)" sodipodi:docname="95.svg" id="svg10130" height="200.0pt" width="200.0pt" viewBox="0 0 200 200" version="1.1">
  <metadata id="metadata10136">
    <rdf:RDF>
      <cc:Work rdf:about="">
        <dc:format>image/svg+xml</dc:format>
        <dc:type rdf:resource="http://purl.org/dc/dcmitype/StillImage"/>
      </cc:Work>
    </rdf:RDF>
  </metadata>
  <defs id="defs10134"/>
  <sodipodi:namedview inkscape:current-layer="svg10130" inkscape:cy="133.33333" inkscape:cx="133.33333" inkscape:zoom="1.75125" showgrid="false" id="namedview10132" inkscape:window-height="480" inkscape:window-width="640" inkscape:pageshadow="2" inkscape:pageopacity="0" guidetolerance="10" gridtolerance="10" objecttolerance="10" borderopacity="1" bordercolor="#666666" pagecolor="#ffffff"/>
  <path style="fill:#ffffff;fill-opacity:0" id="path10054" fill="#ffffff" d="M 0.00 0.00 L 92.96 0.00 C 89.87 1.37 92.63 5.63 93.13 7.95 C 92.63 9.44 90.37 10.31 89.03 10.97 C 84.06 11.87 80.53 9.07 77.42 5.60 C 76.64 4.40 74.48 4.85 73.44 5.46 C 62.52 10.63 53.45 18.53 45.76 27.77 C 39.37 35.69 33.69 44.51 29.91 53.99 C 23.92 69.18 22.96 85.99 26.53 101.89 C 31.31 124.71 41.97 146.53 55.71 165.33 C 60.96 172.29 67.00 178.69 73.35 184.67 C 80.65 191.14 88.16 197.54 97.83 200.00 L 0.00 200.00 L 0.00 0.00 Z"/>
  <path id="path10056" fill="#000000" d="M 92.96 0.00 L 95.06 0.00 L 95.63 0.49 C 97.84 3.17 99.65 1.14 102.76 1.95 C 103.46 1.21 104.25 0.56 105.14 0.00 L 107.28 0.00 C 107.80 0.59 108.29 1.20 108.75 1.83 C 108.16 3.93 107.67 5.92 106.87 7.95 C 108.35 10.85 112.90 11.72 115.82 10.71 C 118.83 9.56 121.03 7.45 123.13 5.09 C 124.25 4.68 125.40 4.80 126.56 5.45 C 140.34 11.88 151.82 23.26 160.23 35.76 C 172.01 52.33 177.58 72.77 175.01 93.01 C 170.99 121.80 157.33 149.52 139.14 172.05 C 130.93 181.67 121.15 192.03 109.65 197.63 C 107.40 198.74 105.02 199.12 102.73 200.00 L 97.83 200.00 C 88.16 197.54 80.65 191.14 73.35 184.67 C 67.00 178.69 60.96 172.29 55.71 165.33 C 41.97 146.53 31.31 124.71 26.53 101.89 C 22.96 85.99 23.92 69.18 29.91 53.99 C 33.69 44.51 39.37 35.69 45.76 27.77 C 53.45 18.53 62.52 10.63 73.44 5.46 C 74.48 4.85 76.64 4.40 77.42 5.60 C 80.53 9.07 84.06 11.87 89.03 10.97 C 90.37 10.31 92.63 9.44 93.13 7.95 C 92.63 5.63 89.87 1.37 92.96 0.00 Z"/>
  <path id="path10058" fill="#ffffff" d="M 95.06 0.00 L 105.14 0.00 C 104.25 0.56 103.46 1.21 102.76 1.95 C 99.65 1.14 97.84 3.17 95.63 0.49 L 95.06 0.00 Z"/>
  <path style="fill:#ffffff;fill-opacity:0.02834008" id="path10060" fill="#ffffff" d="M 107.28 0.00 L 200.00 0.00 L 200.00 200.00 L 102.73 200.00 C 105.02 199.12 107.40 198.74 109.65 197.63 C 121.15 192.03 130.93 181.67 139.14 172.05 C 157.33 149.52 170.99 121.80 175.01 93.01 C 177.58 72.77 172.01 52.33 160.23 35.76 C 151.82 23.26 140.34 11.88 126.56 5.45 C 125.40 4.80 124.25 4.68 123.13 5.09 C 121.03 7.45 118.83 9.56 115.82 10.71 C 112.90 11.72 108.35 10.85 106.87 7.95 C 107.67 5.92 108.16 3.93 108.75 1.83 C 108.29 1.20 107.80 0.59 107.28 0.00 Z"/>
  <path id="path10062" fill="#ffffff" d="M 74.98 7.89 C 75.06 9.12 73.37 9.86 72.74 10.86 C 66.39 18.34 59.82 28.43 59.52 38.49 C 59.20 37.00 59.25 34.35 59.88 32.83 C 61.15 25.06 65.69 17.65 70.72 11.73 C 72.08 10.54 73.22 8.40 74.98 7.89 Z"/>
  <path id="path10064" fill="#ffffff" d="M 125.94 8.09 L 126.71 8.22 C 132.01 14.04 136.70 19.99 139.27 27.54 C 140.77 31.11 140.56 34.61 141.52 38.30 C 140.73 36.42 140.37 34.08 140.12 32.02 C 137.44 23.13 132.26 15.75 126.11 8.92 L 125.94 8.09 Z"/>
  <path id="path10066" fill="#ffffff" d="M 74.49 40.62 C 81.12 42.42 86.15 48.26 87.11 55.05 C 86.52 56.79 85.66 57.21 87.35 58.68 C 89.19 58.93 90.40 55.61 92.06 54.95 C 95.66 55.58 98.31 58.16 99.57 61.52 C 100.17 61.58 100.53 61.36 100.64 60.86 C 102.01 57.84 104.63 55.53 107.94 54.95 C 109.49 55.98 110.64 57.65 112.03 58.89 C 114.43 57.83 113.72 56.90 112.92 55.04 C 113.98 48.47 118.50 42.84 124.89 40.84 C 130.12 38.96 135.52 40.26 140.00 43.34 C 144.12 43.02 147.73 44.62 151.02 46.98 C 157.26 51.55 161.48 58.41 165.19 65.07 C 121.77 65.14 78.26 65.12 34.84 65.08 C 38.20 59.13 41.63 53.38 46.78 48.77 C 50.44 45.56 55.00 42.92 60.03 43.34 C 64.39 40.46 69.36 39.08 74.49 40.62 Z"/>
  <path id="path10068" fill="#0099d8" d="M 34.84 65.08 C 78.26 65.12 121.77 65.14 165.19 65.07 C 167.54 70.09 170.13 75.53 171.09 81.00 C 166.11 81.10 161.13 81.02 156.15 81.05 C 150.81 81.02 145.47 81.03 140.13 81.04 C 134.84 81.04 129.55 81.04 124.25 81.05 C 118.91 81.02 113.56 81.03 108.21 81.04 C 102.90 81.04 97.59 81.04 92.28 81.04 C 87.10 81.02 81.91 81.03 76.72 81.04 C 71.40 81.04 66.08 81.05 60.76 81.04 C 55.45 81.03 50.13 81.02 44.82 81.05 C 39.56 81.02 34.31 81.08 29.06 81.01 C 30.40 75.44 31.89 70.06 34.84 65.08 Z"/>
  <path id="path10070" fill="#ffffff" d="M 39.76 68.25 C 40.99 70.55 41.67 73.18 42.25 75.72 L 42.80 75.69 C 43.65 73.21 44.42 70.70 45.30 68.23 C 46.14 68.20 46.98 68.21 47.82 68.25 C 46.58 71.79 45.11 75.28 43.73 78.78 C 42.98 78.94 42.19 78.91 41.37 78.69 C 40.14 75.41 38.83 72.18 37.53 68.93 C 37.66 68.16 38.40 67.93 39.76 68.25 Z"/>
  <path id="path10072" fill="#ffffff" d="M 54.61 68.34 C 56.01 71.82 57.51 75.27 58.76 78.80 C 57.91 78.95 57.09 78.94 56.30 78.78 C 56.02 77.95 55.60 77.26 55.04 76.69 C 53.62 76.48 52.27 76.53 51.00 76.84 C 50.11 77.91 49.92 79.59 48.11 78.82 L 47.82 77.97 C 49.05 75.09 50.18 72.18 51.37 69.29 C 51.88 67.69 53.35 68.27 54.61 68.34 Z"/>
  <path id="path10074" fill="#ffffff" d="M 60.55 68.44 C 61.32 68.19 62.07 68.10 62.83 68.16 C 63.36 70.99 62.91 74.05 63.06 76.93 C 65.01 77.14 67.01 76.86 68.96 77.07 C 69.43 78.48 69.09 79.07 67.97 78.85 C 65.55 78.67 62.88 79.12 60.54 78.60 C 60.68 75.21 60.66 71.82 60.55 68.44 Z"/>
  <path id="path10076" fill="#ffffff" d="M 71.58 68.42 C 74.27 68.07 77.19 68.27 79.91 68.32 C 80.45 68.29 80.65 68.69 80.51 69.54 C 78.79 70.63 76.17 69.86 74.17 70.17 C 72.38 74.85 80.91 69.93 79.92 73.88 C 78.06 74.32 76.04 73.97 74.14 74.14 C 74.03 75.07 74.01 75.99 74.08 76.91 C 76.31 77.21 78.67 76.73 80.85 77.20 L 80.69 78.68 C 77.79 78.84 74.41 79.08 71.58 78.58 C 71.73 75.20 71.73 71.80 71.58 68.42 Z"/>
  <path id="path10078" fill="#ffffff" d="M 83.46 68.39 C 87.43 66.59 88.35 73.81 90.95 74.93 C 91.16 72.77 90.65 70.31 91.23 68.21 C 92.38 67.91 93.04 68.17 93.22 68.99 C 93.05 72.13 93.67 75.89 92.89 78.85 C 89.56 80.04 88.26 73.18 86.06 72.11 C 85.63 74.29 86.13 76.61 85.79 78.80 C 85.04 78.96 84.25 78.91 83.44 78.64 C 83.51 75.22 83.49 71.81 83.46 68.39 Z"/>
  <path id="path10080" fill="#ffffff" d="M 106.80 71.74 C 104.90 72.00 104.58 72.22 103.47 70.53 C 101.65 68.99 98.59 70.45 98.83 72.98 C 98.22 76.04 100.77 78.45 103.56 76.58 C 104.51 74.79 104.90 75.07 106.76 75.23 C 105.96 80.00 98.48 80.43 96.71 76.23 C 95.35 73.64 96.27 70.21 98.83 68.76 C 101.47 67.06 106.26 68.32 106.80 71.74 Z"/>
  <path id="path10082" fill="#ffffff" d="M 110.19 68.18 C 111.32 67.91 112.00 68.18 112.23 68.99 C 112.04 72.07 112.73 75.96 111.86 78.82 C 110.53 79.24 109.89 78.96 109.95 77.98 C 110.03 74.77 109.62 71.32 110.19 68.18 Z"/>
  <path id="path10084" fill="#ffffff" d="M 121.58 68.37 C 123.02 71.83 124.46 75.31 125.79 78.81 C 124.93 78.93 124.10 78.93 123.28 78.80 C 122.96 78.04 122.55 77.35 122.05 76.73 C 120.56 76.43 119.23 76.50 118.05 76.91 C 117.09 78.01 116.91 79.55 115.06 78.81 L 114.76 78.01 C 115.95 75.09 117.13 72.17 118.31 69.24 C 118.91 67.73 120.32 68.20 121.58 68.37 Z"/>
  <path id="path10086" fill="#ffffff" d="M 142.85 71.83 C 141.07 72.10 140.56 71.89 139.60 70.41 C 136.94 68.87 134.51 71.15 134.95 74.01 C 134.73 76.57 137.61 78.17 139.65 76.65 C 140.55 75.12 141.07 74.93 142.85 75.20 C 142.49 80.14 134.29 80.37 132.81 76.01 C 132.14 74.36 132.25 72.65 132.88 71.01 C 134.44 66.83 142.60 67.03 142.85 71.83 Z"/>
  <path id="path10088" fill="#ffffff" d="M 151.46 68.37 C 154.22 68.08 157.05 68.37 159.83 68.20 L 159.93 69.94 C 158.05 70.32 156.04 70.00 154.12 70.12 C 153.87 70.92 153.92 71.77 154.27 72.68 C 155.82 72.74 157.57 72.27 159.03 72.82 C 159.86 75.38 155.56 73.96 154.22 74.25 C 153.84 75.74 154.12 77.33 153.83 78.84 C 153.05 78.98 152.26 78.91 151.45 78.63 C 151.52 75.21 151.50 71.79 151.46 68.37 Z"/>
  <path id="path10090" fill="#0099d8" d="M 53.60 71.24 C 53.89 72.45 54.24 73.63 54.64 74.80 C 53.74 75.00 52.85 75.04 51.98 74.92 C 51.46 73.71 52.48 71.85 53.60 71.24 Z"/>
  <path id="path10092" fill="#0099d8" d="M 120.61 71.25 C 120.91 72.42 121.30 73.58 121.55 74.76 C 120.68 75.03 119.84 75.09 119.03 74.92 C 118.62 73.59 119.41 71.93 120.61 71.25 Z"/>
  <path id="path10094" fill="#ffffff" d="M 148.61 78.59 C 147.06 79.03 145.39 79.44 146.17 77.08 C 146.60 75.65 149.24 77.17 148.61 78.59 Z"/>
  <path id="path10096" fill="#ffffff" d="M 162.55 76.60 C 163.07 77.30 163.16 78.04 162.81 78.81 C 162.00 78.94 161.17 78.89 160.33 78.65 C 160.28 76.13 160.26 76.64 162.55 76.60 Z"/>
  <path id="path10098" fill="#fcda1c" d="M 29.06 81.01 C 34.31 81.08 39.56 81.02 44.82 81.05 C 44.60 100.72 44.87 120.50 44.68 140.17 C 38.88 128.68 33.98 116.52 30.96 104.00 C 28.99 96.48 28.21 88.77 29.06 81.01 Z"/>
  <path id="path10100" fill="#e62e20" d="M 44.82 81.05 C 50.13 81.02 55.45 81.03 60.76 81.04 C 60.44 104.97 60.72 129.05 60.62 153.00 C 60.53 157.07 60.86 161.22 60.39 165.27 C 54.35 157.51 49.13 148.93 44.68 140.17 C 44.87 120.50 44.60 100.72 44.82 81.05 Z"/>
  <path id="path10102" fill="#fcda1c" d="M 60.76 81.04 C 66.08 81.05 71.40 81.04 76.72 81.04 C 76.57 82.69 76.56 84.35 76.57 86.00 C 76.65 118.34 76.45 150.75 76.68 183.07 C 70.79 177.67 65.07 171.75 60.39 165.27 C 60.86 161.22 60.53 157.07 60.62 153.00 C 60.72 129.05 60.44 104.97 60.76 81.04 Z"/>
  <path id="path10104" fill="#e62e20" d="M 76.72 81.04 C 81.91 81.03 87.10 81.02 92.28 81.04 C 92.64 85.90 92.39 90.81 92.40 95.68 L 93.06 95.91 C 98.16 94.39 102.97 94.94 108.02 95.92 C 108.71 91.26 108.28 85.83 108.21 81.04 C 113.56 81.03 118.91 81.02 124.25 81.05 C 124.62 114.77 124.15 148.74 124.49 182.47 C 119.71 186.95 114.27 191.28 108.33 194.10 C 108.35 176.40 108.34 158.66 108.34 140.96 L 108.08 139.83 C 106.73 139.37 105.31 140.31 103.90 140.46 C 100.04 141.09 96.38 140.56 92.67 139.48 L 92.41 139.43 C 92.50 155.62 92.42 171.81 92.46 188.00 C 92.47 189.94 92.46 191.88 92.22 193.81 C 86.49 191.26 81.33 187.25 76.68 183.07 C 76.45 150.75 76.65 118.34 76.57 86.00 C 76.56 84.35 76.57 82.69 76.72 81.04 Z"/>
  <path id="path10106" fill="#fcda1c" d="M 92.28 81.04 C 97.59 81.04 102.90 81.04 108.21 81.04 C 108.28 85.83 108.71 91.26 108.02 95.92 C 102.97 94.94 98.16 94.39 93.06 95.91 L 92.40 95.68 C 92.39 90.81 92.64 85.90 92.28 81.04 Z"/>
  <path id="path10108" fill="#fcda1c" d="M 124.25 81.05 C 129.55 81.04 134.84 81.04 140.13 81.04 C 140.34 109.00 140.11 137.02 140.25 164.98 C 135.44 171.15 130.28 177.21 124.49 182.47 C 124.15 148.74 124.62 114.77 124.25 81.05 Z"/>
  <path id="path10110" fill="#e62e20" d="M 140.13 81.04 C 145.47 81.03 150.81 81.02 156.15 81.05 C 156.28 99.72 156.20 118.41 156.19 137.08 L 156.49 138.41 C 152.15 147.79 146.27 156.61 140.25 164.98 C 140.11 137.02 140.34 109.00 140.13 81.04 Z"/>
  <path id="path10112" fill="#fcda1c" d="M 156.15 81.05 C 161.13 81.02 166.11 81.10 171.09 81.00 C 172.05 88.26 170.45 95.95 168.89 103.01 C 166.03 115.19 161.81 127.09 156.49 138.41 L 156.19 137.08 C 156.20 118.41 156.28 99.72 156.15 81.05 Z"/>
  <path id="path10114" fill="#d28b2f" d="M 110.87 99.11 C 111.53 99.41 111.88 99.96 111.93 100.76 C 109.58 102.28 106.98 102.64 104.39 103.50 C 102.10 104.61 102.41 107.63 100.03 108.17 C 98.41 108.42 94.29 109.04 93.64 107.02 C 93.39 102.82 97.78 99.17 100.65 96.62 C 103.65 95.75 108.19 97.55 110.87 99.11 Z"/>
  <path id="path10116" fill="#d28b2f" d="M 97.86 96.95 C 98.06 98.57 95.23 99.95 94.52 101.47 C 92.92 103.28 93.56 105.59 92.48 107.43 C 89.47 109.17 85.46 108.35 83.09 105.83 C 83.47 102.57 87.94 100.03 90.51 98.46 C 92.48 97.82 95.97 95.91 97.86 96.95 Z"/>
  <path id="path10118" fill="#d28b2f" d="M 113.83 101.18 C 124.57 109.36 124.19 127.41 113.02 135.03 C 111.99 135.60 110.36 137.73 109.18 136.98 C 109.08 136.35 109.41 135.75 110.19 135.19 C 112.02 133.39 114.01 131.48 114.60 128.88 C 117.22 120.06 116.31 110.41 110.51 103.03 C 110.95 101.81 112.64 101.33 113.83 101.18 Z"/>
  <path id="path10120" fill="#d28b2f" d="M 109.01 103.65 C 112.75 106.42 113.75 110.82 115.02 115.02 C 115.43 120.26 115.38 125.21 113.19 130.07 C 111.61 132.70 109.20 134.90 106.89 136.90 C 104.66 138.56 101.75 136.37 101.09 134.15 C 102.12 133.13 103.56 132.63 104.65 131.66 C 107.75 129.62 107.06 124.58 106.38 121.49 C 104.82 118.64 107.23 116.63 106.27 113.84 C 105.76 111.07 104.20 109.25 102.66 107.04 C 103.79 104.39 106.17 103.20 109.01 103.65 Z"/>
  <path id="path10122" fill="#d28b2f" d="M 85.43 108.55 C 88.08 109.28 91.28 108.49 94.01 108.72 C 95.38 108.98 97.11 109.84 98.49 109.39 C 99.87 109.14 101.58 108.10 102.83 109.07 C 105.81 111.95 105.83 116.00 104.90 119.79 C 100.28 121.33 95.79 121.33 90.99 121.12 C 86.93 120.40 83.10 119.10 79.19 117.81 C 77.82 115.12 79.92 110.72 81.08 108.12 C 82.24 105.82 83.90 108.00 85.43 108.55 Z"/>
  <path id="path10124" fill="#d28b2f" d="M 79.94 118.84 C 86.67 121.74 93.70 122.45 100.94 121.61 C 102.16 121.43 103.76 120.34 104.85 121.12 C 106.85 122.52 106.17 125.86 106.09 127.97 C 105.45 130.06 102.52 132.78 100.22 132.77 C 96.42 130.47 93.32 131.11 89.32 132.37 C 89.80 133.77 91.34 135.45 90.96 136.93 C 88.50 136.63 83.57 132.44 83.18 130.06 C 84.58 129.40 86.14 131.09 87.79 130.77 C 86.11 129.05 84.07 129.76 82.06 129.05 C 80.51 127.47 79.89 124.89 79.21 122.83 C 78.88 121.65 78.00 119.02 79.94 118.84 Z"/>
  <path id="path10126" fill="#d28b2f" d="M 100.64 135.50 C 101.23 137.15 103.52 137.45 103.88 138.90 C 100.98 139.68 96.68 139.56 93.92 138.29 C 92.03 137.56 91.41 134.98 91.14 133.18 C 94.37 130.77 98.94 131.89 100.64 135.50 Z"/>
  <path id="path10128" fill="#fcda1c" d="M 92.41 139.43 L 92.67 139.48 C 96.38 140.56 100.04 141.09 103.90 140.46 C 105.31 140.31 106.73 139.37 108.08 139.83 L 108.34 140.96 C 108.34 158.66 108.35 176.40 108.33 194.10 C 102.62 197.04 97.84 196.75 92.22 193.81 C 92.46 191.88 92.47 189.94 92.46 188.00 C 92.42 171.81 92.50 155.62 92.41 139.43 Z"/>
</svg>