<?xml version="1.0" encoding="UTF-8" standalone="no"?>
<svg xmlns:dc="http://purl.org/dc/elements/1.1/" xmlns:cc="http://creativecommons.org/ns#" xmlns:rdf="http://www.w3.org/1999/02/22-rdf-syntax-ns#" xmlns:svg="http://www.w3.org/2000/svg" xmlns="http://www.w3.org/2000/svg" xmlns:sodipodi="http://sodipodi.sourceforge.net/DTD/sodipodi-0.dtd" xmlns:inkscape="http://www.inkscape.org/namespaces/inkscape" inkscape:version="1.0 (4035a4f, 2020-05-01)" sodipodi:docname="98.svg" id="svg12184" height="200.0pt" width="200.0pt" viewBox="0 0 200 200" version="1.1">
  <metadata id="metadata12190">
    <rdf:RDF>
      <cc:Work rdf:about="">
        <dc:format>image/svg+xml</dc:format>
        <dc:type rdf:resource="http://purl.org/dc/dcmitype/StillImage"/>
      </cc:Work>
    </rdf:RDF>
  </metadata>
  <defs id="defs12188"/>
  <sodipodi:namedview inkscape:current-layer="svg12184" inkscape:cy="133.33333" inkscape:cx="133.33333" inkscape:zoom="1.75125" showgrid="false" id="namedview12186" inkscape:window-height="480" inkscape:window-width="640" inkscape:pageshadow="2" inkscape:pageopacity="0" guidetolerance="10" gridtolerance="10" objecttolerance="10" borderopacity="1" bordercolor="#666666" pagecolor="#ffffff"/>
  <path style="fill:#ffffff;fill-opacity:0" id="path12130" fill="#ffffff" d="M 0.00 0.00 L 97.65 0.00 C 88.13 1.29 79.24 4.65 71.71 10.68 C 56.63 22.50 47.26 40.90 42.02 59.00 C 34.73 84.91 34.58 113.49 41.50 139.50 C 45.98 155.89 53.91 172.81 66.19 184.81 C 74.31 193.02 84.72 198.71 96.29 200.00 L 0.00 200.00 L 0.00 0.00 Z"/>
  <path id="path12132" fill="#030000" d="M 97.65 0.00 L 102.59 0.00 L 103.52 0.11 L 104.33 0.24 C 110.47 1.40 116.39 2.98 121.83 6.14 C 133.76 12.90 142.68 24.01 149.07 35.95 C 158.91 54.38 163.25 75.47 163.93 96.23 C 164.38 118.38 160.43 141.59 150.57 161.57 C 144.82 173.25 136.56 184.33 125.78 191.80 C 119.25 196.32 111.92 199.03 104.04 200.00 L 96.29 200.00 C 84.72 198.71 74.31 193.02 66.19 184.81 C 53.91 172.81 45.98 155.89 41.50 139.50 C 34.58 113.49 34.73 84.91 42.02 59.00 C 47.26 40.90 56.63 22.50 71.71 10.68 C 79.24 4.65 88.13 1.29 97.65 0.00 Z"/>
  <path style="fill:#ffffff;fill-opacity:0" id="path12134" fill="#ffffff" d="M 102.59 0.00 L 200.00 0.00 L 200.00 200.00 L 104.04 200.00 C 111.92 199.03 119.25 196.32 125.78 191.80 C 136.56 184.33 144.82 173.25 150.57 161.57 C 160.43 141.59 164.38 118.38 163.93 96.23 C 163.25 75.47 158.91 54.38 149.07 35.95 C 142.68 24.01 133.76 12.90 121.83 6.14 C 116.39 2.98 110.47 1.40 104.33 0.24 L 103.52 0.11 L 102.59 0.00 Z"/>
  <path id="path12136" fill="#ed1c24" d="M 93.48 2.74 C 100.44 1.62 107.65 2.24 114.25 4.74 C 123.59 8.22 131.41 14.72 137.66 22.36 C 147.58 34.36 153.94 49.29 157.68 64.30 C 162.37 83.24 163.07 103.23 160.35 122.52 C 157.79 139.82 152.02 157.56 142.11 172.09 C 135.08 182.28 125.65 191.56 113.79 195.78 C 103.96 199.38 92.98 198.86 83.46 194.54 C 72.44 189.60 63.88 180.63 57.31 170.69 C 48.70 157.55 43.38 141.93 40.65 126.53 C 36.75 103.94 37.81 80.26 44.32 58.24 C 48.89 43.01 56.36 28.05 67.79 16.79 C 74.89 9.76 83.52 4.47 93.48 2.74 Z"/>
  <path id="path12138" fill="#030000" d="M 95.24 8.12 C 105.53 6.61 115.63 10.02 123.80 16.22 C 134.16 24.09 141.51 35.61 146.52 47.47 C 154.86 67.35 157.57 89.61 156.15 111.02 C 154.86 129.03 150.35 147.59 141.39 163.38 C 135.69 173.34 128.15 182.39 117.96 187.96 C 109.90 192.39 100.37 193.87 91.42 191.52 C 80.60 188.71 71.96 181.48 65.21 172.81 C 55.78 160.57 49.98 145.28 46.84 130.25 C 42.58 109.39 42.81 87.49 47.61 66.74 C 51.08 51.96 57.34 36.88 67.18 25.16 C 74.41 16.59 83.93 9.79 95.24 8.12 Z"/>
  <path id="path12140" fill="#ffffff" d="M 106.81 13.42 C 116.45 15.55 124.39 21.97 130.47 29.52 C 140.90 42.66 145.96 58.13 149.35 74.34 C 142.38 62.38 131.46 53.17 118.28 48.81 C 103.36 43.77 86.66 45.26 72.86 52.85 C 63.73 57.79 56.48 65.27 51.13 74.10 C 53.54 61.86 57.16 50.13 63.33 39.22 C 68.09 30.88 74.55 22.88 82.82 17.82 C 89.96 13.39 98.54 11.52 106.81 13.42 Z"/>
  <path id="path12142" fill="#030000" d="M 98.01 17.98 C 102.83 16.67 106.77 18.54 110.58 21.31 C 109.71 22.20 108.83 23.08 107.95 23.96 C 105.78 22.78 103.59 21.18 101.00 21.32 C 96.78 21.37 92.99 24.66 92.52 28.89 C 92.03 33.46 95.43 37.48 99.89 38.16 C 103.08 38.70 105.28 37.06 107.91 35.62 C 108.82 36.46 109.73 37.31 110.64 38.15 C 109.16 39.14 107.62 40.26 106.00 41.00 C 99.48 43.61 91.76 40.56 89.38 33.82 C 86.89 27.04 91.13 19.70 98.01 17.98 Z"/>
  <path id="path12144" fill="#030000" d="M 83.11 22.88 C 85.33 29.51 87.25 36.25 89.34 42.92 C 88.14 43.17 86.93 43.41 85.73 43.66 C 85.27 42.18 84.81 40.71 84.36 39.24 C 80.82 40.65 77.26 42.01 73.74 43.44 C 72.96 45.05 72.20 46.69 71.35 48.26 C 70.09 51.01 66.67 52.71 64.30 54.48 C 68.85 45.62 73.15 36.62 77.63 27.72 C 78.70 25.30 81.00 24.29 83.11 22.88 Z"/>
  <path id="path12146" fill="#030000" d="M 117.39 23.03 C 118.40 23.58 119.37 24.21 120.32 24.87 C 121.32 28.72 122.02 32.66 122.88 36.55 C 123.94 33.99 124.99 31.42 126.07 28.88 C 127.31 30.43 128.51 31.87 129.03 33.82 C 131.04 40.46 132.98 47.12 135.09 53.73 C 133.50 52.63 131.90 51.52 130.30 50.42 C 129.02 46.19 127.76 41.96 126.41 37.76 C 125.19 40.66 123.99 43.58 122.79 46.49 C 122.10 46.18 121.42 45.88 120.73 45.57 C 119.89 41.22 119.08 36.85 118.15 32.52 C 116.97 36.21 115.87 39.92 114.74 43.63 C 113.52 43.40 112.30 43.17 111.08 42.93 C 113.14 36.30 115.01 29.56 117.39 23.03 Z"/>
  <path id="path12148" fill="#ffffff" d="M 81.10 28.60 C 81.79 31.01 82.51 33.41 83.28 35.79 C 80.89 36.69 78.50 37.62 76.11 38.54 C 77.80 35.24 79.47 31.93 81.10 28.60 Z"/>
  <path id="path12150" fill="#ed1c24" d="M 93.33 49.63 C 93.36 83.34 93.35 117.05 93.34 150.76 C 90.07 150.06 86.81 149.32 83.56 148.51 C 83.60 116.30 83.56 84.09 83.58 51.88 C 86.82 51.09 90.07 50.34 93.33 49.63 Z"/>
  <path id="path12152" fill="#ffffff" d="M 102.95 49.43 C 107.22 49.81 111.33 50.54 115.48 51.58 C 115.47 64.63 115.47 77.68 115.48 90.72 C 111.30 90.72 107.11 90.74 102.92 90.70 C 103.17 76.98 103.13 63.15 102.95 49.43 Z"/>
  <path id="path12154" fill="#ed1c24" d="M 118.22 52.41 C 123.31 54.46 127.77 56.86 132.24 60.02 C 132.21 71.17 132.27 82.31 132.21 93.45 C 138.84 93.47 145.48 93.45 152.12 93.48 C 152.37 97.42 152.47 101.32 152.35 105.27 C 145.64 105.27 138.93 105.26 132.22 105.27 C 132.26 116.95 132.19 128.64 132.27 140.33 C 127.83 143.53 123.32 145.96 118.25 148.02 C 118.16 133.77 118.23 119.51 118.21 105.26 C 113.12 105.27 108.03 105.27 102.94 105.26 C 102.94 101.33 102.94 97.40 102.94 93.48 C 108.03 93.46 113.12 93.45 118.21 93.46 C 118.21 79.78 118.20 66.09 118.22 52.41 Z"/>
  <path id="path12156" fill="#ed1c24" d="M 73.75 56.23 C 73.78 85.54 73.81 114.85 73.74 144.16 C 70.36 141.97 67.19 139.64 64.11 137.05 C 64.17 112.49 64.13 87.93 64.13 63.37 C 67.19 60.75 70.37 58.41 73.75 56.23 Z"/>
  <path id="path12158" fill="#ffffff" d="M 135.15 62.34 C 143.81 70.27 149.01 79.23 151.61 90.71 C 146.10 90.74 140.60 90.73 135.09 90.72 C 135.16 81.26 135.07 71.80 135.15 62.34 Z"/>
  <path id="path12160" fill="#ed1c24" d="M 54.30 75.64 C 54.42 92.00 54.43 108.40 54.29 124.75 C 46.90 111.11 45.87 94.49 52.15 80.23 L 52.45 79.55 C 53.06 78.24 53.67 76.94 54.30 75.64 Z"/>
  <path id="path12162" fill="#ffffff" d="M 103.08 107.87 C 107.21 107.87 111.34 107.87 115.47 107.87 C 115.48 121.54 115.48 135.20 115.47 148.86 C 111.33 149.88 107.20 150.64 102.94 150.93 C 103.23 136.58 102.98 122.22 103.08 107.87 Z"/>
  <path id="path12164" fill="#ffffff" d="M 135.13 107.87 C 140.70 107.87 146.28 107.87 151.85 107.88 C 149.66 120.01 144.24 129.79 135.12 138.06 C 135.12 128.00 135.11 117.94 135.13 107.87 Z"/>
  <path id="path12166" fill="#ffffff" d="M 51.17 126.25 C 58.31 138.43 69.52 147.71 83.05 151.91 C 97.70 156.58 114.09 154.98 127.54 147.53 C 136.67 142.58 143.85 135.08 149.22 126.25 C 146.77 138.49 143.25 150.22 137.04 161.12 C 132.11 169.62 125.97 177.36 117.52 182.59 C 110.24 187.18 101.36 188.98 92.94 186.88 C 83.52 184.66 75.45 177.90 69.58 170.44 C 59.53 157.65 54.22 142.05 51.17 126.25 Z"/>
  <path id="path12168" fill="#030000" d="M 78.93 154.25 C 79.91 154.37 80.89 154.51 81.87 154.65 C 80.03 159.95 78.16 165.25 76.31 170.54 C 75.07 170.10 73.83 169.67 72.59 169.24 C 73.79 165.95 74.93 162.63 76.16 159.34 C 74.68 159.01 73.20 158.68 71.72 158.34 C 72.05 157.44 72.38 156.55 72.72 155.65 C 74.90 155.50 76.87 154.95 78.93 154.25 Z"/>
  <path id="path12170" fill="#030000" d="M 125.90 157.02 C 128.34 160.57 130.38 167.15 126.15 170.18 C 122.90 172.52 119.99 171.61 116.82 169.71 C 119.03 168.31 121.09 168.67 123.53 168.37 C 124.87 167.73 124.94 165.27 125.40 164.02 C 123.16 164.92 120.34 166.97 117.89 165.93 C 114.56 164.99 113.32 160.67 114.73 157.77 C 117.13 154.10 123.21 153.00 125.90 157.02 Z"/>
  <path id="path12172" fill="#030000" d="M 95.80 160.15 C 96.91 162.31 95.23 163.64 94.29 165.45 C 94.95 167.37 96.08 168.80 95.04 170.85 C 92.85 175.88 84.25 174.86 82.49 170.05 C 81.79 167.25 83.17 165.81 84.93 163.94 C 84.59 162.16 83.74 160.56 84.92 158.91 C 87.30 155.43 94.11 156.48 95.80 160.15 Z"/>
  <path id="path12174" fill="#030000" d="M 111.07 160.88 C 112.43 164.03 112.75 168.11 111.32 171.29 C 109.82 174.39 105.77 175.41 102.71 174.19 C 101.46 173.49 100.37 172.37 99.32 171.41 C 101.60 170.93 103.60 171.39 105.82 171.76 C 107.58 171.71 108.18 169.21 109.06 168.01 C 106.62 168.38 103.92 169.42 101.56 168.24 C 98.36 166.54 97.90 161.90 100.35 159.36 C 103.34 156.57 109.31 156.74 111.07 160.88 Z"/>
  <path id="path12176" fill="#ffffff" d="M 121.08 156.93 C 122.35 158.60 123.88 159.54 123.15 161.87 C 120.90 163.60 118.92 163.87 117.65 160.94 C 116.94 158.16 119.32 158.22 121.08 156.93 Z"/>
  <path id="path12178" fill="#ffffff" d="M 89.45 159.71 C 90.71 159.52 92.97 160.39 92.45 161.98 C 92.22 164.49 87.96 163.99 87.76 161.69 C 87.46 160.40 88.57 160.28 89.45 159.71 Z"/>
  <path id="path12180" fill="#ffffff" d="M 103.16 161.19 C 104.64 159.86 107.25 160.13 107.81 162.26 C 108.32 164.49 107.45 166.06 105.01 165.94 C 102.62 166.22 101.36 162.54 103.16 161.19 Z"/>
  <path id="path12182" fill="#ffffff" d="M 87.47 166.45 C 89.36 165.54 92.57 167.25 91.48 169.52 C 90.97 171.21 88.71 171.82 87.29 170.74 C 85.55 169.93 85.68 167.08 87.47 166.45 Z"/>
</svg>