<?xml version="1.0" encoding="UTF-8" standalone="no"?>
<svg xmlns:dc="http://purl.org/dc/elements/1.1/" xmlns:cc="http://creativecommons.org/ns#" xmlns:rdf="http://www.w3.org/1999/02/22-rdf-syntax-ns#" xmlns:svg="http://www.w3.org/2000/svg" xmlns="http://www.w3.org/2000/svg" xmlns:sodipodi="http://sodipodi.sourceforge.net/DTD/sodipodi-0.dtd" xmlns:inkscape="http://www.inkscape.org/namespaces/inkscape" inkscape:version="1.0 (4035a4f, 2020-05-01)" sodipodi:docname="100.svg" id="svg9291" height="200.0pt" width="200.0pt" viewBox="0 0 200 200" version="1.1">
  <metadata id="metadata9297">
    <rdf:RDF>
      <cc:Work rdf:about="">
        <dc:format>image/svg+xml</dc:format>
        <dc:type rdf:resource="http://purl.org/dc/dcmitype/StillImage"/>
      </cc:Work>
    </rdf:RDF>
  </metadata>
  <defs id="defs9295"/>
  <sodipodi:namedview inkscape:current-layer="svg9291" inkscape:cy="133.33333" inkscape:cx="133.33333" inkscape:zoom="1.75125" showgrid="false" id="namedview9293" inkscape:window-height="480" inkscape:window-width="640" inkscape:pageshadow="2" inkscape:pageopacity="0" guidetolerance="10" gridtolerance="10" objecttolerance="10" borderopacity="1" bordercolor="#666666" pagecolor="#ffffff"/>
  <path style="fill:#fdfdfd;fill-opacity:0" id="path9195" fill="#fdfdfd" d="M 0.00 0.00 L 100.34 0.00 C 95.51 5.73 90.06 9.66 83.98 13.93 C 71.81 21.96 59.93 29.30 46.03 34.02 C 39.66 36.45 33.13 38.03 26.54 39.60 C 22.34 57.29 22.40 79.04 25.92 97.00 C 29.69 117.17 37.85 136.57 49.60 153.43 C 62.06 171.50 78.39 186.47 97.14 197.84 C 98.67 198.63 100.05 200.22 101.74 198.75 C 120.16 187.73 136.40 173.46 148.94 155.99 C 170.42 126.64 180.39 88.99 176.08 52.89 C 175.49 48.50 175.14 43.57 173.65 39.42 C 157.97 36.29 142.67 30.34 129.04 21.93 C 120.43 16.83 111.89 11.26 104.35 4.66 C 103.18 3.21 100.87 1.89 100.69 0.00 L 200.00 0.00 L 200.00 200.00 L 111.46 200.00 C 111.51 198.94 111.60 197.89 111.75 196.85 C 113.29 196.34 113.92 197.21 113.64 199.47 L 116.34 199.69 C 116.80 198.65 117.03 197.44 117.02 196.06 C 114.98 197.85 113.70 196.02 111.17 196.07 C 111.37 197.36 111.36 198.67 111.14 200.00 L 0.00 200.00 L 0.00 0.00 Z"/>
  <path id="path9197" fill="#00001e" d="M 100.34 0.00 L 100.69 0.00 C 100.87 1.89 103.18 3.21 104.35 4.66 C 111.89 11.26 120.43 16.83 129.04 21.93 C 142.67 30.34 157.97 36.29 173.65 39.42 C 175.14 43.57 175.49 48.50 176.08 52.89 C 180.39 88.99 170.42 126.64 148.94 155.99 C 136.40 173.46 120.16 187.73 101.74 198.75 C 100.05 200.22 98.67 198.63 97.14 197.84 C 78.39 186.47 62.06 171.50 49.60 153.43 C 37.85 136.57 29.69 117.17 25.92 97.00 C 22.40 79.04 22.34 57.29 26.54 39.60 C 33.13 38.03 39.66 36.45 46.03 34.02 C 59.93 29.30 71.81 21.96 83.98 13.93 C 90.06 9.66 95.51 5.73 100.34 0.00 Z"/>
  <path id="path9199" fill="#f89828" d="M 100.05 6.75 C 111.38 16.47 123.01 23.71 136.11 30.84 C 147.03 36.59 158.66 40.12 170.46 43.41 C 173.70 62.06 173.63 81.11 169.55 99.62 C 165.40 99.79 161.22 99.58 157.06 99.73 C 156.05 97.26 160.29 92.65 158.37 89.66 C 155.61 85.77 152.32 82.21 149.67 78.22 C 149.50 71.92 149.54 65.50 147.54 59.44 C 146.27 55.27 142.85 51.82 138.92 50.06 C 132.24 47.25 125.17 46.71 118.00 47.39 C 105.88 47.75 92.99 48.42 81.00 46.82 C 75.33 46.59 68.81 49.18 63.37 47.62 C 63.15 46.08 63.88 44.42 63.28 42.99 C 62.49 41.77 61.58 40.56 60.50 39.58 C 57.74 40.17 56.62 42.98 56.60 45.62 C 54.81 45.70 53.01 45.76 51.22 45.76 C 50.39 44.26 49.72 42.63 49.10 41.03 L 48.29 41.20 C 47.09 43.70 45.19 45.15 44.88 47.94 C 44.77 49.20 43.64 49.85 43.27 51.07 C 43.41 52.03 43.46 52.99 43.42 53.94 C 40.18 56.09 41.91 57.79 42.58 60.72 C 43.47 61.35 44.58 61.56 45.89 61.34 L 45.81 63.65 L 45.72 62.55 C 44.97 62.30 44.22 62.19 43.45 62.21 C 43.29 63.70 43.41 64.97 43.80 66.03 C 46.26 66.95 48.63 66.34 51.13 66.78 C 54.12 67.33 57.15 67.25 60.14 67.80 C 65.70 69.15 70.78 71.51 75.81 74.18 C 77.29 74.85 77.72 76.49 77.77 77.99 C 77.85 84.64 77.29 91.30 76.63 97.91 C 76.58 98.70 76.30 99.30 75.81 99.71 C 61.21 99.55 45.08 99.86 30.69 99.55 C 26.96 81.34 26.30 61.39 30.17 43.19 C 43.10 39.98 55.54 35.73 67.22 29.24 C 78.60 22.75 90.37 15.63 100.05 6.75 Z"/>
  <path id="path9201" fill="#fdfdfd" d="M 60.81 41.20 C 60.12 43.80 60.81 45.41 59.08 47.81 L 58.23 47.18 C 58.59 44.87 57.32 41.36 60.81 41.20 Z"/>
  <path id="path9203" fill="#fdfdfd" d="M 56.51 47.57 C 57.87 48.59 59.23 49.56 60.34 50.86 C 60.73 52.04 60.67 53.15 61.78 53.93 C 61.53 51.50 60.75 49.91 59.27 47.99 C 61.79 46.25 61.45 47.64 62.80 49.37 C 66.74 49.39 71.17 49.86 74.96 48.75 C 76.42 48.72 78.73 47.83 79.96 48.63 C 80.24 50.29 79.39 50.84 77.39 50.28 L 77.75 52.87 C 76.53 52.51 75.31 52.12 74.11 51.70 C 74.55 52.76 75.13 53.78 75.86 54.75 L 72.52 53.20 C 72.13 54.41 72.59 55.49 73.88 56.44 C 72.91 56.44 71.94 56.40 70.96 56.31 C 71.78 58.04 73.05 58.34 71.91 60.19 C 72.24 60.78 72.42 61.25 72.45 61.60 L 70.28 61.22 C 70.34 65.10 70.89 62.51 72.66 64.45 L 70.50 64.31 L 70.24 65.87 C 69.08 64.57 69.63 63.87 69.62 62.38 C 69.14 61.67 69.26 60.90 69.99 60.08 C 68.68 59.82 68.16 59.28 68.43 58.46 C 67.79 58.19 65.53 58.51 65.38 59.31 C 65.57 60.18 65.75 61.06 65.93 61.94 C 65.11 62.32 64.61 62.84 64.43 63.50 C 62.75 63.27 62.68 65.37 61.08 65.18 L 61.34 62.04 C 60.41 63.05 59.54 63.70 58.71 63.98 C 60.12 61.74 59.66 61.63 58.07 60.03 C 58.01 61.63 57.50 62.73 56.54 63.34 C 52.41 62.96 49.21 65.02 45.07 65.03 L 45.72 62.55 L 45.81 63.65 L 48.19 63.77 C 48.33 62.71 48.32 61.64 48.18 60.57 C 45.02 60.89 46.00 57.75 43.34 56.21 C 44.86 55.86 45.36 57.09 46.74 57.43 C 48.60 58.24 49.91 57.28 51.83 58.35 C 54.47 58.67 55.05 60.18 56.91 60.88 C 56.84 60.06 56.57 59.42 56.08 58.96 C 53.69 57.63 51.08 55.69 48.32 55.49 C 47.55 54.32 49.90 52.36 50.09 50.99 C 50.21 47.56 53.85 47.34 56.51 47.57 Z"/>
  <path id="path9205" fill="#fdfdfd" d="M 90.12 49.17 C 93.72 49.53 97.38 49.35 101.00 49.45 C 106.98 49.35 114.19 49.87 120.00 48.89 C 126.13 48.22 132.07 49.00 137.81 51.18 C 137.68 51.70 137.56 52.23 137.44 52.75 C 140.83 55.53 142.98 59.83 144.09 63.99 C 145.18 66.06 143.96 69.42 146.58 70.37 C 146.18 64.52 144.33 55.85 138.48 53.00 L 138.30 51.62 C 140.87 52.12 142.96 54.63 144.25 56.77 C 146.90 61.83 147.88 68.22 147.27 73.88 L 146.25 74.61 C 146.52 75.71 146.72 76.82 146.84 77.96 C 150.07 81.79 153.31 85.61 156.60 89.39 C 157.61 92.74 154.92 97.13 154.41 100.52 C 153.52 102.54 153.62 104.56 152.34 106.44 C 150.69 107.14 149.55 107.00 148.92 106.03 C 149.36 105.09 150.19 104.52 151.42 104.32 C 151.99 100.28 151.68 96.01 151.82 91.95 C 152.79 92.25 153.76 92.51 154.75 92.71 C 154.57 91.19 153.38 90.63 152.39 89.61 C 146.41 84.58 139.49 79.64 134.68 73.36 C 131.56 68.43 128.44 63.56 125.36 58.66 C 123.78 56.65 124.00 53.48 124.69 51.16 C 122.88 51.29 121.45 54.55 121.60 56.08 C 123.27 60.18 125.51 63.90 127.87 67.62 C 124.39 64.39 119.01 65.21 115.09 67.05 C 112.99 68.25 110.91 69.00 108.45 68.49 C 107.24 66.88 105.60 64.60 105.35 62.58 L 104.23 62.12 C 104.44 64.79 105.99 66.87 106.56 69.25 C 104.23 68.53 103.06 64.97 102.13 62.92 C 100.93 61.35 101.93 59.24 100.30 58.05 C 100.10 62.26 101.70 65.32 102.84 69.15 C 99.58 68.10 98.57 62.94 97.80 60.08 C 97.81 57.35 93.40 56.65 91.41 56.34 C 92.97 64.27 88.03 72.86 84.87 79.88 C 85.74 79.59 86.55 79.08 87.29 78.35 C 86.76 85.21 82.48 91.04 83.61 98.47 C 82.86 98.76 82.18 99.15 81.57 99.64 C 81.63 101.30 80.90 102.53 80.62 104.09 C 80.40 106.73 78.76 106.65 77.11 105.05 C 76.01 106.95 76.14 107.06 73.89 106.92 L 74.81 105.32 C 75.36 103.72 76.34 103.42 77.44 102.36 C 77.63 101.24 77.92 100.14 78.29 99.05 C 78.47 92.51 80.06 84.88 79.15 78.18 C 79.77 78.45 80.39 78.72 81.00 78.99 C 80.66 74.84 77.53 72.10 77.39 68.01 C 77.28 62.58 77.73 56.87 81.91 52.91 C 83.92 50.86 85.71 49.66 88.72 50.30 C 89.80 51.39 90.49 52.06 90.58 53.68 L 91.60 53.69 C 91.61 51.88 90.91 50.72 90.12 49.17 Z"/>
  <path id="path9207" fill="#00001e" d="M 54.16 50.17 C 56.18 49.97 58.51 52.99 54.74 52.79 C 54.35 51.92 54.15 51.05 54.16 50.17 Z"/>
  <path id="path9209" fill="#00001e" d="M 56.70 49.03 C 61.61 50.60 58.13 56.37 59.89 59.62 C 59.15 59.57 58.40 59.49 57.66 59.38 C 57.33 57.20 54.95 56.92 55.68 54.49 L 58.08 54.84 C 57.63 52.90 57.17 50.96 56.70 49.03 Z"/>
  <path id="path9211" fill="#00001e" d="M 67.34 55.43 C 67.99 54.99 68.73 55.16 69.54 55.95 C 69.05 57.38 66.87 56.98 67.34 55.43 Z"/>
  <path id="path9213" fill="#fdfdfd" d="M 66.23 59.62 L 67.66 59.53 L 67.83 60.97 L 66.54 61.50 L 66.23 59.62 Z"/>
  <path id="path9215" fill="#b20838" d="M 95.34 60.24 C 96.49 62.91 98.33 65.92 98.73 68.77 C 96.31 66.63 95.15 63.43 95.34 60.24 Z"/>
  <path id="path9217" fill="#00001e" d="M 48.81 60.49 C 50.80 60.48 52.77 60.56 54.74 60.71 L 54.74 62.39 C 52.07 61.82 51.33 63.58 48.76 63.70 C 48.67 62.62 48.69 61.54 48.81 60.49 Z"/>
  <path id="path9219" fill="#fdfdfd" d="M 67.11 63.28 L 67.89 63.23 L 68.05 64.28 L 67.08 64.39 L 67.11 63.28 Z"/>
  <path id="path9221" fill="#fdfdfd" d="M 65.09 63.82 L 66.18 63.55 L 66.52 64.79 L 65.37 64.90 L 65.09 63.82 Z"/>
  <path id="path9223" fill="#fdfdfd" d="M 120.13 71.20 C 121.33 71.11 122.51 71.16 123.65 71.36 C 123.89 72.20 123.39 75.88 122.20 75.69 C 121.13 74.55 120.17 72.81 120.13 71.20 Z"/>
  <path id="path9225" fill="#fdfdfd" d="M 111.37 72.41 C 112.49 72.30 113.59 72.28 114.67 72.35 C 114.98 73.67 113.96 77.78 112.47 77.74 C 112.15 75.87 111.24 74.38 111.37 72.41 Z"/>
  <path id="path9227" fill="#fdfdfd" d="M 105.77 74.06 C 104.60 75.19 104.32 77.32 102.70 77.70 C 102.44 76.47 102.27 75.24 102.18 74.01 C 101.23 71.74 105.92 72.18 105.77 74.06 Z"/>
  <path id="path9229" fill="#f89828" d="M 116.25 74.42 C 117.91 75.41 118.11 77.68 120.33 78.79 C 120.13 79.80 120.17 80.86 120.47 81.95 C 119.61 82.60 118.77 83.26 117.95 83.94 C 116.51 83.25 115.99 81.70 113.99 81.40 C 112.66 81.83 111.31 82.49 110.08 83.14 C 110.15 84.11 110.36 85.12 110.71 86.16 C 108.85 85.73 109.46 81.12 106.14 81.29 C 105.55 81.78 104.94 82.21 104.30 82.59 C 101.47 81.13 99.51 82.91 98.48 85.42 C 97.82 87.67 95.81 89.98 93.50 90.61 C 92.61 93.46 95.23 93.73 94.65 96.40 C 94.23 96.87 93.88 97.38 93.60 97.92 L 92.62 99.74 C 90.13 99.66 87.65 99.66 85.15 99.72 L 84.61 99.10 C 84.34 93.61 85.95 88.06 87.91 82.99 C 88.56 81.39 88.79 79.73 89.09 78.04 C 90.86 77.81 91.18 81.23 93.00 81.53 C 95.37 80.80 95.56 76.84 97.94 76.35 C 99.98 76.96 100.57 78.75 102.15 79.85 C 104.63 80.27 105.13 75.96 106.94 75.03 C 108.88 76.25 110.72 79.13 113.03 79.48 C 114.61 78.00 114.96 76.09 116.25 74.42 Z"/>
  <path id="path9231" fill="#fdfdfd" d="M 93.99 75.25 C 95.79 75.15 94.28 79.68 93.38 79.64 C 93.32 78.14 91.27 75.30 93.99 75.25 Z"/>
  <path id="path9233" fill="#fdfdfd" d="M 126.68 76.31 C 128.72 77.82 130.26 82.38 126.76 82.98 L 126.21 81.85 C 128.02 81.53 128.00 78.17 126.23 77.98 C 127.45 81.04 124.95 80.59 125.42 83.53 L 123.13 83.40 C 123.42 84.56 127.05 85.46 126.68 83.38 C 130.08 83.46 129.34 85.69 129.91 87.99 C 131.19 89.71 129.93 91.29 127.90 90.84 C 127.51 89.02 125.42 88.42 126.60 86.62 L 128.84 86.66 C 128.66 85.97 128.32 85.52 127.82 85.29 C 127.26 85.67 126.71 86.08 126.16 86.50 C 125.14 86.40 124.12 86.31 123.10 86.21 C 123.31 87.17 124.06 87.59 125.34 87.49 C 126.66 89.40 127.46 91.46 128.66 93.23 C 127.87 93.91 126.87 94.38 125.68 94.65 C 125.27 95.66 124.92 96.69 124.64 97.72 C 123.78 97.93 122.71 97.77 121.42 97.22 C 121.47 96.41 121.47 95.59 121.44 94.78 C 118.95 92.12 121.86 87.25 119.20 84.93 C 119.94 83.91 120.74 83.41 121.60 83.44 C 122.00 82.17 121.84 80.93 121.13 79.71 C 123.26 78.11 123.64 76.32 126.68 76.31 Z"/>
  <path id="path9235" fill="#fdfdfd" d="M 107.66 83.15 C 107.77 86.52 110.67 87.21 111.50 90.09 C 110.10 91.82 106.66 89.91 105.28 90.19 C 105.40 91.87 106.99 92.09 106.23 94.00 C 106.36 95.45 106.57 96.89 106.62 98.36 C 109.19 98.42 110.45 100.11 112.60 101.39 C 112.73 102.69 113.15 103.56 113.86 103.99 L 113.60 103.00 C 112.39 100.86 115.55 100.73 116.40 101.85 C 116.39 103.58 116.38 105.21 115.70 106.84 C 114.43 106.85 113.87 105.75 112.65 105.36 C 111.11 104.56 109.75 104.36 109.07 102.55 C 107.80 102.61 106.53 102.66 105.26 102.70 C 104.88 101.55 105.42 100.24 105.75 99.12 C 103.68 99.38 104.78 100.86 104.37 102.36 C 103.54 102.84 102.58 102.48 101.50 101.26 C 102.16 98.84 99.53 97.90 98.26 96.24 C 100.10 94.61 98.99 93.32 99.34 91.39 C 99.86 91.07 100.36 90.74 100.85 90.38 C 99.79 90.35 98.87 89.64 98.09 88.25 C 99.20 87.46 100.47 87.30 101.91 87.75 L 101.51 87.30 C 100.24 87.33 99.43 86.91 99.09 86.04 L 100.33 85.28 C 100.26 82.54 105.58 82.64 104.58 85.67 C 106.67 85.56 106.23 82.57 107.66 83.15 Z"/>
  <path id="path9237" fill="#fdfdfd" d="M 115.03 83.05 C 115.90 84.30 118.83 86.05 118.62 87.40 L 119.61 87.66 L 119.69 89.05 C 117.04 91.49 116.15 86.67 114.83 85.32 C 113.86 85.32 112.91 85.22 111.99 85.01 C 111.93 83.79 114.20 83.72 115.03 83.05 Z"/>
  <path id="path9239" fill="#f89828" d="M 129.75 82.60 L 130.89 82.72 C 132.80 84.99 135.12 86.66 136.73 89.30 C 138.66 92.27 138.74 96.38 137.66 99.66 C 135.58 99.74 133.48 99.71 131.40 99.66 C 130.35 97.47 131.23 95.19 129.40 92.92 C 130.26 91.70 131.75 90.64 131.64 89.00 C 131.40 86.82 130.54 84.63 129.75 82.60 Z"/>
  <path id="path9241" fill="#f89828" d="M 142.12 83.19 C 144.84 85.09 148.05 87.22 149.83 90.07 C 150.59 93.04 149.76 96.56 149.68 99.64 C 147.69 99.57 145.39 100.08 143.52 99.35 C 144.31 96.46 145.85 93.76 146.53 90.87 C 146.60 87.97 142.51 85.91 142.12 83.19 Z"/>
  <path id="path9243" fill="#00001e" d="M 105.95 86.35 C 107.81 86.18 107.40 87.28 107.77 88.59 C 106.80 89.03 104.41 87.30 105.95 86.35 Z"/>
  <path id="path9245" fill="#f89828" d="M 110.71 86.16 C 111.69 86.10 112.68 86.19 113.66 86.43 C 115.60 88.17 115.71 90.56 118.75 91.21 L 118.90 91.86 C 117.05 92.43 115.37 92.45 114.35 94.38 C 114.22 96.44 115.67 97.65 115.88 99.66 C 112.37 100.42 110.65 98.57 107.84 97.06 C 107.54 95.82 106.94 93.16 107.89 92.18 C 109.52 92.17 111.58 92.16 112.48 90.54 C 112.91 88.96 111.29 87.57 110.71 86.16 Z"/>
  <path id="path9247" fill="#fdfdfd" d="M 97.80 90.23 C 98.94 91.02 98.76 94.07 97.78 94.78 C 95.66 95.31 95.68 93.45 95.09 92.02 C 95.46 91.26 96.84 89.67 97.80 90.23 Z"/>
  <path id="path9249" fill="#b20838" d="M 144.17 90.09 L 145.29 89.95 C 145.89 93.42 142.64 97.54 142.74 100.91 C 144.79 100.92 146.88 100.84 148.92 101.02 C 149.21 102.44 146.61 101.93 145.88 102.85 C 144.94 103.86 144.16 105.52 144.11 106.91 C 146.71 107.79 150.32 109.10 152.93 107.90 C 155.26 106.63 155.30 103.36 156.13 101.12 C 160.26 100.73 164.79 100.82 168.95 101.08 C 168.56 105.54 166.78 110.15 165.51 114.47 C 155.29 145.45 134.29 172.17 107.20 190.22 C 104.85 191.67 102.55 193.55 99.98 194.54 C 88.23 187.52 77.41 178.96 67.92 169.09 C 49.84 150.32 36.84 126.61 31.15 101.17 C 33.68 100.66 36.42 100.99 39.00 100.91 C 50.97 101.00 63.05 100.73 75.00 101.04 L 74.90 101.90 C 72.02 103.44 70.67 104.79 69.67 107.96 C 70.41 109.34 74.32 108.75 75.80 108.73 L 75.94 107.72 C 74.89 107.43 72.68 107.85 72.05 106.91 C 71.36 104.32 73.28 105.51 74.81 105.32 L 73.89 106.92 C 76.14 107.06 76.01 106.95 77.11 105.05 C 78.76 106.65 80.40 106.73 80.62 104.09 C 80.56 104.82 80.43 105.54 80.26 106.25 C 79.24 106.69 78.10 106.83 76.84 106.66 C 76.80 108.12 78.41 108.39 79.55 108.58 C 82.79 107.06 81.56 103.71 82.91 101.06 C 87.14 100.62 91.46 101.15 95.69 100.83 L 96.16 101.30 C 95.90 102.70 95.66 104.12 95.52 105.54 C 97.86 108.01 99.84 106.42 102.43 105.48 C 102.86 104.76 103.35 104.10 103.89 103.49 C 105.26 103.64 106.63 103.78 108.00 103.90 C 110.25 105.45 112.55 106.84 115.06 107.92 C 118.04 108.07 116.82 105.91 117.83 104.14 C 119.13 104.08 120.40 103.94 121.66 103.70 C 121.87 102.36 122.33 101.41 123.03 100.86 C 124.68 101.30 124.56 103.96 126.45 104.54 C 127.78 104.59 130.78 104.39 130.99 102.71 C 131.13 102.42 131.29 102.15 131.46 101.87 L 132.89 101.06 C 134.21 102.04 138.05 101.01 138.16 102.98 C 138.10 105.12 134.34 102.80 133.04 102.96 C 131.59 105.42 134.46 105.15 135.99 105.46 C 137.91 105.68 140.56 105.53 141.74 103.74 C 142.51 102.66 141.17 101.41 141.48 100.14 C 142.16 96.75 143.13 93.38 144.17 90.09 Z"/>
  <path id="path9251" fill="#fdfdfd" d="M 120.98 95.40 C 120.38 95.84 119.77 96.27 119.15 96.68 C 121.82 97.61 120.36 100.68 120.86 102.88 C 119.56 102.89 118.36 102.68 117.26 102.24 C 118.73 99.56 115.92 97.80 115.44 94.86 C 116.97 92.75 120.14 92.31 120.98 95.40 Z"/>
  <path id="path9253" fill="#fdfdfd" d="M 127.97 94.05 C 130.24 94.69 129.41 97.44 129.42 99.16 C 130.02 100.23 130.70 101.13 131.46 101.87 C 131.29 102.15 131.13 102.42 130.99 102.71 C 127.80 101.57 127.74 105.24 125.42 102.16 C 125.18 98.75 124.48 96.07 127.97 94.05 Z"/>
  <path id="path9255" fill="#fdfdfd" d="M 94.65 96.40 C 95.58 97.44 97.76 96.71 97.83 98.31 C 99.33 99.94 101.57 102.03 101.85 104.31 C 101.07 105.07 97.64 106.55 96.97 104.96 C 97.30 104.33 97.62 103.69 97.94 103.06 C 97.43 102.36 96.84 101.78 96.16 101.30 L 95.69 100.83 C 94.68 100.04 94.40 98.85 93.60 97.92 C 93.88 97.38 94.23 96.87 94.65 96.40 Z"/>
  <path id="path9257" fill="#f89828" d="M 148.05 104.21 C 148.55 104.90 148.49 105.76 147.88 106.78 C 146.48 107.16 146.65 103.88 148.05 104.21 Z"/>
  <path id="path9259" fill="#f89828" d="M 48.39 116.42 C 51.95 116.61 55.47 116.46 59.02 116.51 C 62.50 116.50 65.71 119.38 65.14 123.03 C 64.67 125.80 62.71 126.95 61.19 129.01 C 64.11 132.86 67.20 137.77 71.83 139.69 C 70.09 139.87 68.12 140.08 66.43 139.55 C 62.68 137.93 60.69 132.73 57.86 130.15 C 56.96 129.98 56.03 129.98 55.08 130.12 C 54.60 132.61 54.72 136.21 55.32 138.69 C 56.30 139.01 57.14 139.44 57.84 139.99 C 54.90 140.24 51.93 140.19 48.99 140.05 C 49.91 139.03 51.02 138.59 51.01 137.02 C 51.33 132.03 51.07 127.00 51.16 122.00 C 51.03 120.54 51.57 118.69 50.31 117.66 C 49.77 116.97 49.09 116.75 48.25 117.00 L 48.39 116.42 Z"/>
  <path id="path9261" fill="#f89828" d="M 80.30 116.42 C 84.83 115.52 90.05 116.12 93.43 119.56 C 97.42 123.51 97.30 130.68 94.14 135.07 C 89.27 142.40 76.07 141.95 72.39 133.63 C 68.93 126.84 72.74 118.08 80.30 116.42 Z"/>
  <path id="path9263" fill="#f89828" d="M 139.12 116.26 L 139.82 116.28 C 142.93 122.96 145.38 129.97 148.34 136.71 C 148.98 138.51 150.29 138.85 151.79 139.70 C 149.68 139.85 147.46 140.02 145.36 139.66 C 144.24 137.34 143.57 134.81 142.53 132.45 C 140.55 131.50 137.31 132.09 135.08 132.08 C 134.08 133.91 133.21 135.96 132.75 138.00 C 133.23 138.75 133.90 139.43 134.78 140.03 C 132.48 140.28 130.29 140.05 128.01 139.86 C 125.33 140.31 122.54 140.16 119.84 140.06 C 120.01 135.05 118.59 130.35 118.44 125.38 L 117.37 125.26 C 115.25 129.86 113.01 134.40 110.77 138.93 L 110.00 139.57 C 106.91 135.23 105.16 129.71 102.34 125.16 C 101.17 129.31 100.93 133.81 100.46 138.09 C 101.24 138.72 102.04 139.35 102.84 139.97 C 100.65 139.69 98.24 139.58 96.08 140.03 C 96.78 139.00 97.95 138.29 98.05 137.03 C 99.12 130.33 100.09 123.62 101.19 116.92 L 102.00 116.28 C 105.44 121.61 107.56 128.11 111.00 133.44 C 114.50 128.46 116.55 121.43 119.99 116.32 L 120.75 116.96 C 121.75 123.80 122.74 130.29 123.73 137.18 C 124.55 140.39 129.13 140.07 130.34 137.35 C 133.50 130.45 135.87 123.12 139.12 116.26 Z"/>
  <path id="path9265" fill="#00001e" d="M 48.25 117.00 C 49.09 116.75 49.77 116.97 50.31 117.66 C 48.80 118.16 48.12 117.94 48.25 117.00 Z"/>
  <path id="path9267" fill="#b20838" d="M 81.49 117.59 C 86.13 116.66 90.43 119.98 91.52 124.44 C 92.46 128.42 92.44 134.19 89.20 137.21 C 85.87 139.99 80.93 138.89 78.24 135.76 C 75.39 132.41 74.99 127.09 75.95 122.97 C 76.57 120.15 78.65 118.13 81.49 117.59 Z"/>
  <path id="path9269" fill="#b20838" d="M 55.03 118.07 C 57.70 117.49 60.08 118.38 61.08 121.01 C 61.68 123.13 61.62 126.31 59.93 127.94 C 58.56 129.24 57.04 128.82 55.36 128.62 C 54.41 125.54 54.82 121.30 55.03 118.07 Z"/>
  <path id="path9271" fill="#b20838" d="M 139.28 123.51 C 139.83 125.68 141.07 127.90 141.15 130.13 C 139.71 130.62 137.39 130.73 135.98 130.10 C 136.16 128.01 137.30 125.99 137.93 123.98 C 138.15 122.97 138.60 122.81 139.28 123.51 Z"/>
  <path id="path9273" fill="#00001e" d="M 48.99 140.05 C 51.93 140.19 54.90 140.24 57.84 139.99 L 57.82 140.68 C 54.95 140.88 52.06 140.87 49.19 140.74 L 48.99 140.05 Z"/>
  <path id="path9275" fill="#00001e" d="M 96.08 140.03 C 98.24 139.58 100.65 139.69 102.84 139.97 L 102.83 140.55 C 101.05 141.04 97.99 140.90 96.14 140.63 L 96.08 140.03 Z"/>
  <path id="path9277" fill="#00001e" d="M 119.84 140.06 C 122.54 140.16 125.33 140.31 128.01 139.86 C 130.29 140.05 132.48 140.28 134.78 140.03 L 134.75 140.63 C 129.95 140.81 125.03 140.81 120.22 140.75 L 119.84 140.06 Z"/>
  <path id="path9279" fill="#fdfdfd" d="M 98.57 158.99 C 98.78 161.09 97.67 162.44 96.97 164.29 L 95.98 164.33 C 96.51 161.99 97.08 159.83 96.56 157.41 C 96.21 155.64 94.44 154.59 92.83 155.68 C 91.43 157.51 92.41 159.37 93.04 161.26 C 90.75 161.86 89.50 157.54 91.29 156.17 C 93.67 153.00 98.80 155.13 98.57 158.99 Z"/>
  <path id="path9281" fill="#fdfdfd" d="M 107.64 156.33 C 108.06 158.52 107.96 160.64 106.26 162.26 C 105.45 163.66 103.20 164.49 103.06 166.08 C 104.57 166.59 106.39 166.15 107.97 166.09 L 107.98 167.11 C 105.31 167.76 103.00 166.41 100.22 166.78 C 102.76 165.09 105.81 162.12 106.39 159.03 C 106.67 156.71 105.64 156.10 103.91 154.96 C 102.65 155.32 102.08 156.12 101.10 156.89 C 100.46 153.59 106.64 154.27 107.64 156.33 Z"/>
  <path id="path9283" fill="#fdfdfd" d="M 85.84 155.01 C 85.64 158.98 85.70 163.00 85.81 166.98 L 85.00 167.53 L 84.17 166.97 C 84.41 163.95 84.23 160.96 84.27 157.94 C 83.90 157.38 83.54 156.80 83.19 156.22 C 84.05 155.76 84.93 155.36 85.84 155.01 Z"/>
  <path id="path9285" fill="#fdfdfd" d="M 111.06 155.17 C 113.51 155.21 115.94 155.28 118.39 155.14 L 118.54 155.99 L 117.83 156.72 C 115.66 156.06 113.23 156.14 111.04 156.65 L 111.06 155.17 Z"/>
  <path id="path9287" fill="#fdfdfd" d="M 116.17 158.25 L 117.00 158.04 C 116.12 161.05 114.63 163.73 114.22 166.89 L 112.61 166.99 C 112.99 164.11 115.15 161.07 116.17 158.25 Z"/>
  <path id="path9289" fill="#00001e" d="M 111.17 196.07 C 113.70 196.02 114.98 197.85 117.02 196.06 C 117.03 197.44 116.80 198.65 116.34 199.69 L 113.64 199.47 C 113.92 197.21 113.29 196.34 111.75 196.85 C 111.60 197.89 111.51 198.94 111.46 200.00 L 111.14 200.00 C 111.36 198.67 111.37 197.36 111.17 196.07 Z"/>
</svg>