<?xml version="1.0" encoding="UTF-8" standalone="no"?>
<svg xmlns:dc="http://purl.org/dc/elements/1.1/" xmlns:cc="http://creativecommons.org/ns#" xmlns:rdf="http://www.w3.org/1999/02/22-rdf-syntax-ns#" xmlns:svg="http://www.w3.org/2000/svg" xmlns="http://www.w3.org/2000/svg" xmlns:sodipodi="http://sodipodi.sourceforge.net/DTD/sodipodi-0.dtd" xmlns:inkscape="http://www.inkscape.org/namespaces/inkscape" inkscape:version="1.0 (4035a4f, 2020-05-01)" sodipodi:docname="102.svg" id="svg8812" height="200.0pt" width="200.0pt" viewBox="0 0 200 200" version="1.1">
  <metadata id="metadata8818">
    <rdf:RDF>
      <cc:Work rdf:about="">
        <dc:format>image/svg+xml</dc:format>
        <dc:type rdf:resource="http://purl.org/dc/dcmitype/StillImage"/>
      </cc:Work>
    </rdf:RDF>
  </metadata>
  <defs id="defs8816"/>
  <sodipodi:namedview inkscape:current-layer="svg8812" inkscape:cy="163.06084" inkscape:cx="119.25977" inkscape:zoom="1.5887088" showgrid="false" id="namedview8814" inkscape:window-height="480" inkscape:window-width="640" inkscape:pageshadow="2" inkscape:pageopacity="0" guidetolerance="10" gridtolerance="10" objecttolerance="10" borderopacity="1" bordercolor="#666666" pagecolor="#ffffff"/>
  <path style="fill:#ffffff;fill-opacity:0.00809717" id="path8752" fill="#ffffff" d="M 0.00 0.00 L 200.00 0.00 L 200.00 200.00 L 0.00 200.00 L 0.00 0.00 Z"/>
  <path id="path8754" fill="#1072ba" d="M 95.97 3.83 C 105.58 2.68 115.04 5.61 122.88 11.12 C 133.59 18.56 141.35 29.96 146.82 41.63 C 143.13 46.00 139.51 50.44 135.93 54.91 C 122.78 44.43 105.61 39.91 89.06 43.35 C 74.84 46.22 61.92 54.75 53.72 66.71 C 44.46 79.96 41.27 97.15 45.36 112.81 C 48.25 124.56 55.04 134.76 64.11 142.67 C 60.20 147.36 56.40 152.13 52.49 156.82 C 46.64 143.24 43.24 128.74 41.97 114.02 C 40.26 93.51 42.26 72.51 48.90 52.98 C 53.26 40.31 59.79 27.84 69.15 18.13 C 76.42 10.72 85.48 5.05 95.97 3.83 Z"/>
  <path id="path8756" fill="#ffffff" d="M 89.48 25.37 C 89.93 28.96 90.37 32.56 90.79 36.15 C 93.26 35.97 95.72 35.84 98.20 35.90 C 95.40 37.54 92.39 37.82 89.25 38.16 C 88.70 34.00 88.21 29.84 87.65 25.69 C 88.26 25.58 88.87 25.48 89.48 25.37 Z"/>
  <path id="path8758" fill="#ffffff" d="M 104.98 24.50 C 105.96 25.18 106.59 26.04 106.86 27.07 C 108.11 30.92 109.07 34.93 109.56 38.95 C 108.37 37.45 107.36 35.86 106.40 34.20 C 105.12 34.06 103.83 33.91 102.55 33.76 C 101.29 35.23 100.00 36.63 98.61 37.96 C 100.14 33.27 102.24 28.61 104.98 24.50 Z"/>
  <path id="path8760" fill="#ffffff" d="M 116.33 25.63 C 117.92 29.57 118.76 33.50 119.96 37.63 C 120.97 34.55 121.89 31.44 122.83 28.35 C 123.40 28.49 123.97 28.63 124.55 28.77 C 123.22 33.10 122.07 37.38 120.48 41.61 C 117.61 37.74 117.19 33.52 115.88 28.99 C 114.90 32.13 113.95 35.28 113.01 38.43 L 111.30 38.11 C 112.31 34.76 113.12 31.31 114.36 28.03 C 114.69 26.93 115.53 26.36 116.33 25.63 Z"/>
  <path id="path8762" fill="#ffffff" d="M 79.52 27.43 C 82.55 31.29 85.54 35.30 87.80 39.67 C 86.16 38.61 84.63 37.46 83.12 36.21 C 81.88 36.58 80.64 36.95 79.40 37.32 C 78.74 39.08 78.03 40.82 77.21 42.51 C 77.08 38.64 77.25 34.77 77.78 30.94 C 77.90 29.27 78.43 28.62 79.52 27.43 Z"/>
  <path id="path8764" fill="#1072ba" d="M 105.10 26.99 C 105.55 28.82 106.00 30.65 106.45 32.47 C 105.22 32.37 103.98 32.26 102.75 32.16 C 103.53 30.43 104.31 28.71 105.10 26.99 Z"/>
  <path id="path8766" fill="#ffffff" d="M 125.41 29.56 C 129.13 30.45 132.41 32.16 135.83 33.81 L 135.13 35.25 C 133.85 34.66 132.56 34.07 131.27 33.49 C 129.56 37.21 128.01 40.91 125.62 44.27 C 125.24 40.39 127.93 36.62 129.47 33.14 C 128.07 31.99 126.70 30.83 125.41 29.56 Z"/>
  <path id="path8768" fill="#ffffff" d="M 73.73 30.31 C 72.31 31.52 70.83 32.66 69.33 33.77 C 71.05 37.31 72.82 40.71 73.95 44.49 C 70.52 42.64 69.38 37.65 67.68 34.34 C 65.97 34.91 64.26 35.48 62.52 35.96 C 65.51 32.57 69.49 31.36 73.73 30.31 Z"/>
  <path id="path8770" fill="#1072ba" d="M 79.44 30.06 C 80.49 31.59 81.53 33.13 82.57 34.67 C 81.38 35.01 80.19 35.34 79.01 35.67 C 79.15 33.80 79.29 31.93 79.44 30.06 Z"/>
  <path id="path8772" fill="#ffffff" d="M 139.73 36.49 L 140.85 37.18 C 140.43 41.81 139.04 46.96 136.98 51.13 C 136.89 49.23 136.84 47.33 136.83 45.42 C 135.75 44.67 134.67 43.92 133.58 43.17 C 131.79 43.88 130.00 44.53 128.12 44.97 C 131.61 41.78 135.54 38.71 139.73 36.49 Z"/>
  <path id="path8774" fill="#ffffff" d="M 58.39 36.93 C 62.61 39.74 66.95 42.79 70.49 46.43 C 68.61 45.84 66.77 45.17 64.94 44.43 C 63.86 45.18 62.78 45.92 61.69 46.66 C 61.60 48.59 61.46 50.51 61.19 52.42 C 59.53 47.45 57.86 42.24 58.39 36.93 Z"/>
  <path id="path8776" fill="#1072ba" d="M 139.07 38.62 C 138.58 40.40 138.09 42.18 137.59 43.96 C 136.57 43.26 135.55 42.56 134.54 41.86 C 136.05 40.78 137.56 39.69 139.07 38.62 Z"/>
  <path id="path8778" fill="#1072ba" d="M 59.59 39.73 C 61.06 40.87 62.53 42.00 64.01 43.13 C 62.96 43.82 61.91 44.52 60.86 45.21 C 60.44 43.39 60.01 41.56 59.59 39.73 Z"/>
  <path id="path8780" fill="#020000" d="M 147.93 43.78 C 159.07 69.97 161.42 100.05 156.49 127.94 C 153.31 145.30 146.89 162.93 135.92 176.93 C 129.50 185.02 121.25 192.08 111.25 195.22 C 101.02 198.49 89.74 196.96 80.57 191.45 C 68.18 184.16 59.57 171.83 53.47 159.09 C 57.67 154.10 61.74 149.00 65.89 143.96 C 77.89 152.99 93.05 157.23 107.98 155.06 C 122.69 153.06 136.26 144.99 145.20 133.18 C 153.04 122.90 157.24 109.94 156.71 97.01 C 156.29 81.46 149.10 66.72 137.53 56.40 C 140.21 53.13 142.87 49.85 145.56 46.59 C 146.34 45.65 147.13 44.71 147.93 43.78 Z"/>
  <path id="path8782" fill="#1072ba" d="M 111.95 49.02 C 119.54 50.75 126.31 54.38 132.50 59.02 C 129.39 62.86 126.27 66.70 123.10 70.49 C 114.47 68.27 107.62 63.43 98.78 62.11 C 94.49 61.46 89.12 61.03 85.18 63.18 C 82.11 64.80 80.56 68.03 78.72 70.79 C 76.45 74.41 73.14 77.44 71.17 81.16 C 69.53 84.33 69.22 88.05 66.63 90.57 C 64.01 93.23 61.20 95.68 58.79 98.55 C 59.81 100.06 60.99 101.55 61.75 103.21 C 61.48 108.41 61.66 113.45 59.46 118.30 C 58.37 120.78 60.17 121.96 62.23 122.74 C 67.31 124.36 72.87 124.61 78.10 125.58 C 74.56 129.86 71.05 134.17 67.53 138.47 C 60.96 132.68 55.65 125.70 52.51 117.48 C 47.56 104.80 47.97 90.04 53.66 77.67 C 58.15 67.84 65.81 59.51 75.22 54.20 C 86.26 47.95 99.62 46.09 111.95 49.02 Z"/>
  <path id="path8784" fill="#020000" d="M 134.22 60.53 C 136.93 62.99 139.30 65.75 141.57 68.60 C 136.51 71.32 131.28 71.51 125.67 71.07 C 128.42 67.48 131.25 63.94 134.22 60.53 Z"/>
  <path id="path8786" fill="#020000" d="M 104.04 68.11 C 113.43 70.35 122.03 76.30 132.04 77.96 C 135.81 78.70 139.23 77.49 142.93 76.77 C 141.32 78.16 139.60 79.86 137.58 80.59 C 134.29 81.79 130.35 81.44 126.97 80.81 C 116.45 78.90 108.94 71.89 98.02 70.78 C 93.19 70.18 88.80 71.41 84.19 72.63 C 89.49 67.16 96.94 66.58 104.04 68.11 Z"/>
  <path id="path8788" fill="#020000" d="M 102.02 77.80 C 113.13 78.12 122.91 86.41 132.98 87.66 C 138.01 88.38 142.38 87.05 146.85 84.90 C 144.97 86.82 143.38 88.74 140.84 89.83 C 136.04 91.84 130.69 91.18 125.75 90.12 C 116.71 88.00 110.17 82.44 100.99 81.44 C 96.25 80.89 91.93 82.01 87.35 82.95 C 91.44 78.92 96.36 77.52 102.02 77.80 Z"/>
  <path id="path8790" fill="#020000" d="M 101.02 87.91 C 107.98 88.65 114.49 92.61 121.48 94.30 C 127.96 95.93 135.67 96.49 142.01 94.04 C 145.46 92.75 147.24 90.13 149.56 87.48 C 148.19 91.09 146.96 94.40 143.51 96.53 C 137.78 100.22 129.42 100.05 122.94 98.93 C 114.54 97.53 108.27 92.12 100.08 90.65 C 96.42 89.96 93.08 90.56 89.41 90.59 C 92.96 88.54 96.89 87.45 101.02 87.91 Z"/>
  <path id="path8792" fill="#020000" d="M 149.92 96.36 C 148.49 99.80 147.38 102.97 144.22 105.23 C 138.82 109.20 131.40 109.21 125.04 108.41 C 118.64 107.53 113.95 104.25 108.13 102.00 C 104.30 100.48 100.35 100.20 96.28 99.98 C 99.21 99.01 101.84 98.00 105.00 98.26 C 109.83 98.62 114.54 101.49 119.27 102.76 C 126.69 104.84 135.26 105.17 142.56 102.44 C 145.83 101.23 147.64 98.82 149.92 96.36 Z"/>
  <path id="path8794" fill="#020000" d="M 150.36 107.08 C 147.09 111.48 143.28 115.11 137.82 116.51 C 129.44 118.36 120.75 116.78 113.20 112.82 C 108.60 110.37 103.93 109.43 98.77 108.99 C 105.77 107.23 112.46 108.58 119.08 111.02 C 129.59 114.65 141.24 113.72 150.36 107.08 Z"/>
  <path id="path8796" fill="#020000" d="M 109.85 115.87 C 115.73 118.56 121.38 121.10 127.98 121.43 C 135.25 121.99 141.91 120.04 148.59 117.44 C 143.41 122.95 136.66 126.48 128.95 126.12 C 121.19 125.91 114.55 121.87 109.85 115.87 Z"/>
  <path id="path8798" fill="#020000" d="M 144.63 124.44 C 135.68 140.24 118.23 150.55 100.00 150.23 C 88.82 150.34 78.26 146.40 69.26 139.91 C 72.91 135.36 76.60 130.85 80.32 126.36 C 87.02 133.36 93.53 140.66 99.15 148.57 C 108.63 148.68 118.02 146.13 126.04 141.06 C 132.53 137.11 137.52 131.64 141.84 125.46 C 142.76 125.11 143.70 124.77 144.63 124.44 Z"/>
  <path id="path8800" fill="#ffffff" d="M 123.81 156.48 C 123.05 160.08 121.60 163.24 121.37 166.97 C 121.05 169.53 121.47 171.83 119.61 173.93 C 118.53 168.69 119.81 163.84 121.50 158.92 C 118.55 159.78 115.62 160.65 112.58 161.13 C 113.08 160.45 113.62 159.81 114.19 159.22 C 117.25 157.92 120.57 157.15 123.81 156.48 Z"/>
  <path id="path8802" fill="#ffffff" d="M 81.72 156.73 C 80.46 162.09 78.64 167.37 76.76 172.54 L 75.58 170.71 C 76.09 167.53 77.47 164.31 78.43 161.21 C 77.07 160.50 75.72 159.76 74.39 159.01 C 75.73 158.82 77.07 158.62 78.40 158.40 C 79.51 157.84 80.61 157.29 81.72 156.73 Z"/>
  <path id="path8804" fill="#ffffff" d="M 88.10 160.17 C 91.06 158.80 94.76 160.58 95.23 163.91 C 95.63 167.21 94.97 171.17 92.80 173.80 C 91.14 175.63 88.50 175.87 86.44 174.57 C 85.10 173.81 84.85 171.48 84.25 170.22 C 85.88 171.36 87.33 172.94 89.10 173.85 C 91.30 173.78 92.24 170.98 93.43 169.46 C 91.43 169.55 88.65 170.34 86.97 168.94 C 84.12 166.77 84.91 161.64 88.10 160.17 Z"/>
  <path id="path8806" fill="#ffffff" d="M 103.49 160.58 C 105.84 159.87 108.19 160.46 109.38 162.73 C 110.89 165.45 111.09 170.07 110.01 172.94 C 108.93 176.08 104.65 176.94 102.38 174.62 C 100.35 172.46 100.03 168.78 100.25 165.97 C 100.48 163.71 101.23 161.52 103.49 160.58 Z"/>
  <path id="path8808" fill="#020000" d="M 88.34 162.27 C 89.00 161.59 89.88 161.37 90.99 161.59 C 94.24 161.97 94.00 167.54 90.92 168.09 C 87.29 169.00 86.04 164.51 88.34 162.27 Z"/>
  <path id="path8810" fill="#020000" d="M 104.27 162.23 C 105.51 161.69 106.91 162.28 107.54 163.47 C 108.81 165.82 108.92 168.97 108.42 171.55 C 108.23 172.98 106.54 174.95 105.05 174.10 C 102.70 173.46 102.35 170.02 102.27 168.02 C 102.21 166.29 102.22 162.89 104.27 162.23 Z"/>
  <path id="path8820" d="m 146.82,41.63 c 1.11,2.15 1.11,2.15 0,0 z" style="fill:none;stroke:#000000;stroke-width:0.75px;stroke-linecap:butt;stroke-linejoin:miter;stroke-opacity:1"/>
  <path id="path8822" d="m 146.82,41.63 c -0.42002,0.871788 0.66431,1.686172 1.02904,2.415619 0.0576,0.115191 0,0.257577 0,0.386365 0,0.08586 -0.0106,0.342781 0,0.257576 0.0375,-0.302065 0.054,-0.606373 0.081,-0.90956" style="fill:none;stroke:#000000;stroke-width:0.75px;stroke-linecap:butt;stroke-linejoin:miter;stroke-opacity:1"/>
  <path id="path8824" d="m 52.49,156.82 c 0.01736,-0.0834 0.135535,-0.23298 0.05209,-0.25034 -0.35741,-0.0744 0.179784,0.708 0.288165,1.05661 0.07446,0.2395 0.0439,0.64217 0.19211,0.86449 0.121653,0.18249 0.19762,0.29919 0.288165,0.48028 0.03941,0.0788 0.730818,0.5491 0.159471,0.11896" style="fill:none;stroke:#000000;stroke-width:0.75px;stroke-linecap:butt;stroke-linejoin:miter;stroke-opacity:1"/>
</svg>