<?xml version="1.0" encoding="UTF-8" standalone="no"?>
<svg xmlns:dc="http://purl.org/dc/elements/1.1/" xmlns:cc="http://creativecommons.org/ns#" xmlns:rdf="http://www.w3.org/1999/02/22-rdf-syntax-ns#" xmlns:svg="http://www.w3.org/2000/svg" xmlns="http://www.w3.org/2000/svg" xmlns:sodipodi="http://sodipodi.sourceforge.net/DTD/sodipodi-0.dtd" xmlns:inkscape="http://www.inkscape.org/namespaces/inkscape" inkscape:version="1.0 (4035a4f, 2020-05-01)" sodipodi:docname="104.svg" id="svg1547" height="200.0pt" width="200.0pt" viewBox="0 0 200 200" version="1.1">
  <metadata id="metadata1553">
    <rdf:RDF>
      <cc:Work rdf:about="">
        <dc:format>image/svg+xml</dc:format>
        <dc:type rdf:resource="http://purl.org/dc/dcmitype/StillImage"/>
      </cc:Work>
    </rdf:RDF>
  </metadata>
  <defs id="defs1551"/>
  <sodipodi:namedview inkscape:current-layer="svg1547" inkscape:cy="133.33333" inkscape:cx="133.33333" inkscape:zoom="1.75125" showgrid="false" id="namedview1549" inkscape:window-height="480" inkscape:window-width="640" inkscape:pageshadow="2" inkscape:pageopacity="0" guidetolerance="10" gridtolerance="10" objecttolerance="10" borderopacity="1" bordercolor="#666666" pagecolor="#ffffff"/>
  <path style="fill:#ffffff;fill-opacity:0" id="path1499" fill="#ffffff" d="M 0.00 0.00 L 200.00 0.00 L 200.00 200.00 L 0.00 200.00 L 0.00 0.00 Z"/>
  <path id="path1501" fill="#b10d28" d="M 100.09 3.06 C 100.10 7.21 100.06 11.35 99.93 15.50 C 98.66 15.57 97.40 15.65 96.14 15.75 C 95.72 21.93 95.87 28.16 95.69 34.36 C 97.14 34.35 98.60 34.35 100.05 34.35 C 100.07 36.62 100.08 38.89 100.08 41.16 C 79.46 41.10 58.90 44.30 39.22 50.43 C 36.85 76.72 41.35 103.54 52.51 127.48 C 63.14 150.53 79.68 170.58 100.00 185.75 C 99.84 189.40 99.93 192.98 100.55 196.60 C 99.71 196.49 98.89 196.28 98.15 195.87 C 63.05 174.27 36.61 139.27 25.72 99.49 C 18.58 73.66 17.88 46.13 23.75 19.98 C 24.24 18.31 24.19 17.59 25.99 16.99 C 49.49 7.75 74.83 2.89 100.09 3.06 Z"/>
  <path id="path1503" fill="#002350" d="M 100.09 3.06 C 125.97 2.86 151.66 7.94 175.68 17.48 C 184.52 54.21 180.27 93.70 163.63 127.62 C 149.81 155.96 127.62 180.40 100.55 196.60 C 99.93 192.98 99.84 189.40 100.00 185.75 C 123.85 168.01 142.39 143.44 152.46 115.45 C 159.98 94.69 162.79 72.30 160.76 50.32 C 141.12 44.26 120.64 41.07 100.08 41.16 C 100.08 38.89 100.07 36.62 100.05 34.35 C 103.13 34.35 106.20 34.42 109.27 34.49 C 109.15 33.51 109.03 32.54 108.91 31.57 C 105.89 31.50 102.87 31.45 99.85 31.40 C 99.89 26.10 99.82 20.80 99.93 15.50 C 100.06 11.35 100.10 7.21 100.09 3.06 Z"/>
  <path id="path1505" fill="#ffffff" d="M 96.14 15.75 C 97.40 15.65 98.66 15.57 99.93 15.50 C 99.82 20.80 99.89 26.10 99.85 31.40 C 102.87 31.45 105.89 31.50 108.91 31.57 C 109.03 32.54 109.15 33.51 109.27 34.49 C 106.20 34.42 103.13 34.35 100.05 34.35 C 98.60 34.35 97.14 34.35 95.69 34.36 C 95.87 28.16 95.72 21.93 96.14 15.75 Z"/>
  <path id="path1507" fill="#ffffff" d="M 89.46 16.57 C 91.26 17.37 91.92 19.85 92.75 21.50 C 91.53 21.58 90.31 21.65 89.09 21.72 C 88.38 20.77 87.64 19.87 86.85 19.00 C 83.96 17.96 81.31 20.09 80.86 22.94 C 80.50 25.40 80.00 28.54 81.03 30.86 C 82.93 33.38 85.69 31.85 88.25 31.51 C 88.26 30.23 88.27 28.96 88.27 27.69 C 87.08 27.73 85.88 27.77 84.69 27.80 C 84.73 26.98 84.78 26.16 84.82 25.33 C 87.36 25.15 89.89 24.96 92.42 24.77 C 92.36 27.29 92.30 29.80 92.25 32.31 C 89.34 34.05 86.49 35.49 82.97 35.28 C 80.23 35.21 77.53 33.79 76.68 31.05 C 76.17 28.14 76.47 24.96 77.17 22.10 C 78.63 17.03 84.70 14.37 89.46 16.57 Z"/>
  <path id="path1509" fill="#ffffff" d="M 111.03 15.79 C 112.28 15.89 113.53 15.98 114.78 16.08 C 115.30 22.33 115.50 28.60 115.87 34.86 C 114.49 34.79 113.11 34.72 111.73 34.65 C 111.48 28.36 111.18 22.08 111.03 15.79 Z"/>
  <path id="path1511" fill="#ffffff" d="M 123.88 16.89 C 125.18 17.00 126.48 17.13 127.78 17.27 C 130.59 24.02 133.40 30.77 136.26 37.50 C 134.89 37.25 133.52 36.99 132.15 36.74 C 131.58 35.31 131.01 33.89 130.44 32.47 C 128.13 32.15 125.82 31.83 123.51 31.51 C 123.12 32.84 122.73 34.17 122.34 35.50 C 120.96 35.38 119.58 35.25 118.20 35.13 C 120.21 29.09 121.88 22.93 123.88 16.89 Z"/>
  <path id="path1513" fill="#ffffff" d="M 69.16 17.42 C 70.93 23.61 72.68 29.81 74.51 35.99 C 73.16 36.16 71.81 36.34 70.47 36.52 C 70.10 35.20 69.74 33.88 69.38 32.55 C 67.17 32.93 64.96 33.31 62.75 33.69 C 62.02 35.11 61.40 36.70 60.42 37.96 C 59.21 38.44 57.98 38.86 56.72 39.23 C 59.37 32.73 61.99 26.19 64.82 19.78 C 65.32 18.07 67.72 18.10 69.16 17.42 Z"/>
  <path id="path1515" fill="#ffffff" d="M 136.18 18.45 C 137.41 18.66 138.64 18.87 139.87 19.08 C 145.14 19.86 149.86 21.15 151.29 26.95 C 152.08 30.13 150.64 31.21 148.45 33.06 C 150.07 35.83 151.67 38.60 153.13 41.46 C 151.83 40.92 150.37 40.53 149.19 39.76 C 147.37 37.52 146.12 34.77 144.67 32.28 C 143.54 32.01 142.41 31.74 141.29 31.47 C 141.53 33.84 141.79 36.20 142.05 38.57 C 140.72 38.30 139.39 38.03 138.06 37.76 C 137.42 31.33 136.81 24.89 136.18 18.45 Z"/>
  <path id="path1517" fill="#ffffff" d="M 54.88 21.15 C 57.00 22.03 56.81 24.59 57.36 26.48 C 56.22 26.63 55.07 26.79 53.92 26.95 C 53.46 26.07 52.96 25.21 52.44 24.36 C 50.94 23.00 48.75 24.45 47.68 25.69 C 45.79 28.19 45.51 32.01 45.34 35.03 C 45.11 36.57 46.18 38.98 48.03 38.34 C 51.11 38.01 51.66 35.78 52.97 33.45 C 54.24 33.13 55.51 32.82 56.79 32.52 C 55.23 37.52 52.35 40.73 47.02 41.56 C 43.90 42.11 41.51 40.23 41.57 37.04 C 41.71 32.54 42.45 27.12 45.78 23.79 C 47.90 21.45 51.86 19.85 54.88 21.15 Z"/>
  <path id="path1519" fill="#002350" d="M 125.83 22.35 L 126.49 22.18 C 127.37 24.58 128.29 26.96 129.20 29.35 C 127.54 29.11 125.88 28.87 124.22 28.64 C 124.77 26.55 125.31 24.45 125.83 22.35 Z"/>
  <path id="path1521" fill="#b10d28" d="M 66.53 23.27 L 67.20 23.32 C 67.68 25.45 68.18 27.58 68.68 29.71 C 67.04 29.99 65.39 30.27 63.75 30.54 C 64.69 28.13 65.63 25.70 66.53 23.27 Z"/>
  <path id="path1523" fill="#002350" d="M 140.36 21.96 C 142.09 22.44 143.91 22.82 145.56 23.52 C 147.45 24.53 148.31 27.31 147.12 29.15 C 145.16 29.49 142.98 28.91 141.02 28.65 C 140.78 26.42 140.56 24.19 140.36 21.96 Z"/>
  <path id="path1525" fill="#ffffff" d="M 153.44 22.04 C 154.64 22.34 155.84 22.64 157.04 22.93 C 157.95 29.67 159.05 36.38 159.95 43.12 C 158.68 42.75 157.41 42.38 156.15 42.01 C 155.23 35.36 154.36 28.69 153.44 22.04 Z"/>
  <path id="path1527" fill="#ffffff" d="M 100.08 41.16 C 120.64 41.07 141.12 44.26 160.76 50.32 C 162.79 72.30 159.98 94.69 152.46 115.45 C 142.39 143.44 123.85 168.01 100.00 185.75 C 79.68 170.58 63.14 150.53 52.51 127.48 C 41.35 103.54 36.85 76.72 39.22 50.43 C 58.90 44.30 79.46 41.10 100.08 41.16 Z"/>
  <path id="path1529" fill="#b10d28" d="M 106.28 48.54 C 106.17 64.55 106.31 80.57 105.96 96.58 C 121.61 96.49 137.28 95.66 152.88 94.54 C 152.12 98.02 151.33 101.50 150.48 104.96 C 135.70 106.98 120.71 107.90 105.80 108.26 C 105.59 130.58 104.93 152.88 104.11 175.18 C 102.75 176.28 101.39 177.38 100.02 178.48 C 98.57 177.35 97.13 176.22 95.68 175.09 C 94.63 152.82 94.29 130.53 93.85 108.24 C 79.05 107.87 64.18 106.93 49.51 104.92 C 48.67 101.46 47.88 97.99 47.11 94.52 C 62.63 95.63 78.20 96.47 93.76 96.57 C 93.51 80.56 93.50 64.54 93.48 48.52 C 97.75 48.42 102.01 48.42 106.28 48.54 Z"/>
  <path id="path1531" fill="#002350" d="M 71.99 56.82 C 75.39 57.25 78.31 56.65 80.64 59.64 C 72.47 62.51 64.67 65.29 58.26 71.38 C 57.44 68.73 56.99 65.52 57.77 62.83 C 61.42 59.50 66.82 56.04 71.99 56.82 Z"/>
  <path id="path1533" fill="#002350" d="M 124.99 57.12 C 129.32 56.47 134.78 56.60 138.55 59.10 C 133.90 61.49 128.80 62.72 124.15 65.15 C 120.68 66.82 117.69 69.12 114.64 71.44 C 114.42 68.75 114.05 65.50 115.01 62.96 C 117.49 60.44 121.64 58.24 124.99 57.12 Z"/>
  <path id="path1535" fill="#002350" d="M 83.34 66.00 C 84.19 68.63 85.55 70.90 87.08 73.18 C 86.29 73.48 85.50 73.78 84.71 74.08 C 84.79 76.55 84.87 79.02 85.04 81.49 C 83.02 81.93 80.99 82.32 78.95 82.66 C 78.88 84.91 78.93 87.12 79.10 89.37 C 72.28 89.30 69.13 84.73 63.09 82.18 C 63.28 80.77 63.40 79.36 63.45 77.95 C 62.65 76.34 60.72 75.34 59.52 74.00 C 60.00 73.33 60.63 72.80 61.41 72.40 C 68.42 69.01 75.69 67.25 83.34 66.00 Z"/>
  <path id="path1537" fill="#002350" d="M 140.78 65.97 C 140.80 66.88 140.83 67.80 140.85 68.71 C 141.79 70.19 142.73 71.68 143.63 73.19 C 142.81 73.45 141.99 73.72 141.18 73.99 C 140.99 76.48 140.80 78.96 140.73 81.46 C 138.72 81.91 136.70 82.31 134.67 82.65 C 134.38 84.89 134.22 87.12 134.15 89.37 C 127.46 89.32 124.55 84.73 118.72 82.17 C 118.87 80.66 119.83 78.60 119.17 77.18 C 118.23 76.24 117.19 75.42 116.23 74.50 C 115.99 72.89 117.11 72.96 118.20 72.26 C 125.40 68.98 132.97 67.11 140.78 65.97 Z"/>
  <path id="path1539" fill="#002350" d="M 70.99 116.26 C 74.66 115.85 78.89 116.00 82.12 118.01 C 78.05 120.21 73.80 121.42 69.85 123.83 C 67.43 125.29 65.45 127.08 63.23 128.84 C 62.96 126.46 62.24 123.45 63.09 121.17 C 65.25 119.14 68.11 117.06 70.99 116.26 Z"/>
  <path id="path1541" fill="#002350" d="M 123.01 116.33 C 126.70 115.80 131.06 115.95 134.31 118.01 C 130.16 120.16 125.76 121.40 121.71 123.73 C 119.08 125.20 116.86 127.08 114.47 128.89 C 114.47 126.50 113.94 123.32 115.05 121.14 C 117.19 119.20 120.24 117.20 123.01 116.33 Z"/>
  <path id="path1543" fill="#002350" d="M 135.46 124.09 C 136.20 126.22 137.08 128.27 138.07 130.30 C 137.49 130.61 136.92 130.93 136.35 131.24 C 136.18 133.42 136.05 135.65 135.62 137.79 C 134.09 138.28 132.45 138.56 130.88 138.87 C 130.66 140.84 130.49 142.82 130.36 144.80 C 125.04 144.37 122.45 140.83 118.01 138.36 C 118.23 136.92 118.35 135.47 118.38 134.03 C 117.38 133.08 116.34 132.16 115.26 131.27 C 120.80 127.05 128.76 125.50 135.46 124.09 Z"/>
  <path id="path1545" fill="#002350" d="M 83.86 124.14 C 84.73 126.29 85.78 128.31 86.95 130.32 C 86.39 130.62 85.83 130.92 85.27 131.22 C 85.28 133.43 85.35 135.68 85.12 137.88 C 83.57 138.29 82.00 138.57 80.42 138.85 C 80.39 140.85 80.40 142.84 80.44 144.84 C 74.98 144.31 72.14 140.76 67.48 138.35 C 67.60 136.96 67.64 135.57 67.60 134.19 C 66.63 133.08 65.34 132.23 64.22 131.28 C 69.50 126.99 77.34 125.44 83.86 124.14 Z"/>
</svg>