<?xml version="1.0" encoding="UTF-8" standalone="no"?>
<svg xmlns:dc="http://purl.org/dc/elements/1.1/" xmlns:cc="http://creativecommons.org/ns#" xmlns:rdf="http://www.w3.org/1999/02/22-rdf-syntax-ns#" xmlns:svg="http://www.w3.org/2000/svg" xmlns="http://www.w3.org/2000/svg" xmlns:sodipodi="http://sodipodi.sourceforge.net/DTD/sodipodi-0.dtd" xmlns:inkscape="http://www.inkscape.org/namespaces/inkscape" inkscape:version="1.0 (4035a4f, 2020-05-01)" sodipodi:docname="113.svg" id="svg5691" height="200.0pt" width="200.0pt" viewBox="0 0 200 200" version="1.1">
  <metadata id="metadata5697">
    <rdf:RDF>
      <cc:Work rdf:about="">
        <dc:format>image/svg+xml</dc:format>
        <dc:type rdf:resource="http://purl.org/dc/dcmitype/StillImage"/>
      </cc:Work>
    </rdf:RDF>
  </metadata>
  <defs id="defs5695"/>
  <sodipodi:namedview inkscape:current-layer="svg5691" inkscape:cy="133.33333" inkscape:cx="133.33333" inkscape:zoom="1.75125" showgrid="false" id="namedview5693" inkscape:window-height="480" inkscape:window-width="640" inkscape:pageshadow="2" inkscape:pageopacity="0" guidetolerance="10" gridtolerance="10" objecttolerance="10" borderopacity="1" bordercolor="#666666" pagecolor="#ffffff"/>
  <path style="fill:#ffffff;fill-opacity:0" id="path5625" fill="#ffffff" d="M 0.00 0.00 L 94.52 0.00 C 87.64 1.06 81.12 1.75 74.47 3.56 C 57.79 7.98 42.23 16.81 30.00 28.99 C 16.24 42.43 6.59 60.00 2.52 78.78 C 1.44 83.92 0.84 89.17 0.00 94.36 L 0.00 0.00 Z"/>
  <path id="path5627" fill="#0056a0" d="M 94.52 0.00 L 105.62 0.00 L 106.60 0.13 L 107.31 0.24 C 113.25 1.16 118.97 1.74 124.79 3.28 C 143.43 7.97 160.64 18.22 173.66 32.36 C 185.69 45.44 194.20 61.64 197.87 79.04 C 198.91 83.64 199.33 88.24 200.00 92.90 L 200.00 107.79 C 198.50 122.38 194.61 136.52 187.27 149.29 C 177.03 167.50 160.99 182.32 141.98 190.98 C 131.02 196.19 119.28 198.81 107.25 200.00 L 92.81 200.00 C 76.10 198.42 59.99 193.37 45.89 184.14 C 27.28 172.19 13.07 154.05 5.78 133.18 C 2.50 124.18 1.27 114.89 0.00 105.46 L 0.00 94.36 C 0.84 89.17 1.44 83.92 2.52 78.78 C 6.59 60.00 16.24 42.43 30.00 28.99 C 42.23 16.81 57.79 7.98 74.47 3.56 C 81.12 1.75 87.64 1.06 94.52 0.00 Z"/>
  <path style="fill:#ffffff;fill-opacity:0" id="path5629" fill="#ffffff" d="M 105.62 0.00 L 200.00 0.00 L 200.00 92.90 C 199.33 88.24 198.91 83.64 197.87 79.04 C 194.20 61.64 185.69 45.44 173.66 32.36 C 160.64 18.22 143.43 7.97 124.79 3.28 C 118.97 1.74 113.25 1.16 107.31 0.24 L 106.60 0.13 L 105.62 0.00 Z"/>
  <path id="path5631" fill="#517db6" d="M 96.40 4.48 C 93.11 7.12 89.86 9.87 86.93 12.91 C 80.82 19.49 74.23 25.61 67.84 31.91 C 66.86 32.72 66.81 33.69 66.49 34.85 C 50.31 43.41 38.08 57.09 31.43 74.15 L 30.97 72.01 C 26.01 75.91 21.76 80.67 17.17 85.17 C 12.42 90.23 7.27 93.67 4.47 100.30 C 4.49 93.44 4.87 86.64 6.49 79.95 C 6.77 80.49 7.05 81.03 7.34 81.58 C 9.67 77.87 12.75 74.92 15.85 71.88 C 21.86 65.54 28.41 59.75 34.32 53.30 C 39.29 48.60 44.39 44.08 49.01 39.01 C 53.25 34.24 58.14 30.15 62.39 25.40 C 66.53 20.85 71.10 16.78 75.37 12.37 C 77.33 10.34 79.55 8.62 81.81 6.94 L 79.80 6.56 C 85.25 5.18 90.80 4.71 96.40 4.48 Z"/>
  <path id="path5633" fill="#3c6fae" d="M 96.40 4.48 L 97.19 4.43 C 101.22 4.30 105.22 4.51 109.23 4.80 C 101.77 10.95 95.46 18.76 88.12 24.98 C 86.99 25.93 86.87 26.28 86.83 27.74 C 79.80 29.51 72.92 31.42 66.49 34.85 C 66.81 33.69 66.86 32.72 67.84 31.91 C 74.23 25.61 80.82 19.49 86.93 12.91 C 89.86 9.87 93.11 7.12 96.40 4.48 Z"/>
  <path id="path5635" fill="#2561a6" d="M 109.23 4.80 C 112.25 4.97 115.21 5.54 118.15 6.23 C 114.16 11.18 109.26 15.25 104.94 19.94 C 101.64 23.62 98.66 25.54 93.89 26.93 C 91.54 27.24 89.19 27.52 86.83 27.74 C 86.87 26.28 86.99 25.93 88.12 24.98 C 95.46 18.76 101.77 10.95 109.23 4.80 Z"/>
  <path id="path5637" fill="#6490c0" d="M 79.80 6.56 L 81.81 6.94 C 79.55 8.62 77.33 10.34 75.37 12.37 C 71.10 16.78 66.53 20.85 62.39 25.40 C 58.14 30.15 53.25 34.24 49.01 39.01 C 44.39 44.08 39.29 48.60 34.32 53.30 C 28.41 59.75 21.86 65.54 15.85 71.88 C 12.75 74.92 9.67 77.87 7.34 81.58 C 7.05 81.03 6.77 80.49 6.49 79.95 C 8.08 72.95 10.11 66.13 13.30 59.66 C 15.63 59.28 16.52 57.57 17.98 55.95 C 20.08 53.38 22.46 51.14 24.82 48.82 C 34.50 39.19 44.16 29.46 53.83 19.83 C 55.67 17.79 59.34 16.18 59.63 13.30 C 66.00 10.18 72.88 8.04 79.80 6.56 Z"/>
  <path id="path5639" fill="#749fc9" d="M 59.63 13.30 C 59.34 16.18 55.67 17.79 53.83 19.83 C 44.16 29.46 34.50 39.19 24.82 48.82 C 22.46 51.14 20.08 53.38 17.98 55.95 C 16.52 57.57 15.63 59.28 13.30 59.66 C 22.69 39.41 39.37 22.68 59.63 13.30 Z"/>
  <path id="path5641" fill="#ffffff" d="M 86.83 27.74 C 89.19 27.52 91.54 27.24 93.89 26.93 C 108.36 25.69 123.31 28.88 135.97 36.02 C 147.66 42.56 157.48 52.27 164.08 63.93 C 171.84 77.49 175.02 93.51 173.13 109.01 C 171.21 125.20 163.72 140.64 152.09 152.09 C 141.11 163.27 126.31 170.67 110.80 172.88 C 97.00 174.92 82.58 172.91 69.87 167.12 C 55.64 160.69 43.61 149.64 36.02 135.98 C 28.87 123.30 25.70 108.39 26.92 93.89 C 27.18 91.98 27.42 90.06 27.65 88.14 C 28.49 83.36 29.78 78.70 31.43 74.15 C 38.08 57.09 50.31 43.41 66.49 34.85 C 72.92 31.42 79.80 29.51 86.83 27.74 Z"/>
  <path id="path5643" fill="#1593d2" d="M 88.44 30.51 C 104.39 27.82 121.15 30.74 135.18 38.82 C 148.14 46.21 158.57 57.73 164.66 71.35 C 170.94 85.24 172.42 101.15 169.02 115.99 C 163.24 142.00 141.99 163.26 115.97 169.03 C 99.66 172.77 82.09 170.58 67.31 162.70 C 52.77 155.08 41.13 142.30 34.88 127.13 C 29.64 114.50 28.22 100.36 30.79 86.94 C 33.17 74.27 39.15 62.35 47.81 52.81 C 58.35 41.10 72.87 33.08 88.44 30.51 Z"/>
  <path id="path5645" fill="#2c9cd6" d="M 146.27 51.46 C 147.90 51.93 149.37 53.27 150.58 54.43 C 153.91 57.79 156.72 61.78 159.06 65.89 C 153.41 72.57 146.86 78.48 140.73 84.73 C 138.17 87.50 134.31 89.87 134.06 93.97 C 132.82 103.59 132.78 113.68 133.40 123.35 C 132.99 129.48 133.39 135.77 132.37 141.82 C 132.74 135.02 132.46 128.18 132.42 121.37 C 132.52 110.14 132.58 98.85 132.37 87.61 C 132.43 81.74 132.33 75.86 132.40 69.98 C 132.32 66.90 134.04 64.13 136.78 62.76 C 138.42 62.17 140.23 61.99 141.94 61.69 C 141.88 60.61 141.83 59.52 141.79 58.44 C 141.23 54.98 143.53 53.03 146.27 51.46 Z"/>
  <path id="path5647" fill="#eaf8ff" d="M 141.79 58.44 C 141.83 59.52 141.88 60.61 141.94 61.69 C 140.23 61.99 138.42 62.17 136.78 62.76 C 134.04 64.13 132.32 66.90 132.40 69.98 C 132.33 75.86 132.43 81.74 132.37 87.61 C 130.71 84.75 130.41 82.23 130.41 78.98 C 129.66 80.72 128.94 82.47 128.14 84.19 C 127.81 80.37 127.50 76.55 127.16 72.74 C 127.05 71.35 126.90 69.98 126.67 68.61 C 125.31 63.24 120.79 61.87 115.76 61.95 C 115.71 60.79 115.67 59.64 115.63 58.48 C 124.35 58.41 133.07 58.51 141.79 58.44 Z"/>
  <path id="path5649" fill="#d6f0fd" d="M 58.56 58.55 C 67.13 58.44 75.71 58.55 84.29 58.44 C 84.88 59.14 85.46 59.83 86.06 60.53 C 80.42 64.17 76.69 69.27 71.71 73.64 C 71.17 72.79 70.62 71.94 70.07 71.09 C 69.73 75.64 69.67 80.13 69.92 84.69 C 69.41 95.13 69.58 105.56 69.61 116.00 C 69.60 120.61 70.27 125.56 69.08 129.98 C 69.04 110.97 68.98 91.98 69.12 72.97 C 69.60 69.67 66.12 67.13 64.31 64.67 C 62.75 62.46 60.67 62.19 58.23 61.52 L 58.56 58.55 Z"/>
  <path id="path5651" fill="#e6f6fe" d="M 86.06 60.53 C 88.11 62.90 90.09 65.35 92.10 67.76 C 87.98 72.82 83.39 77.33 78.50 81.64 C 77.28 80.19 76.05 78.76 74.79 77.35 L 74.68 77.23 L 74.55 77.10 C 72.54 80.59 73.07 85.21 71.94 89.10 C 71.25 87.64 70.55 86.18 69.92 84.69 C 69.67 80.13 69.73 75.64 70.07 71.09 C 70.62 71.94 71.17 72.79 71.71 73.64 C 76.69 69.27 80.42 64.17 86.06 60.53 Z"/>
  <path id="path5653" fill="#3ba4da" d="M 159.06 65.89 C 162.12 71.21 164.67 76.76 166.05 82.77 C 156.09 92.23 146.63 102.22 136.75 111.76 C 133.48 114.30 134.26 119.51 133.40 123.35 C 132.78 113.68 132.82 103.59 134.06 93.97 C 134.31 89.87 138.17 87.50 140.73 84.73 C 146.86 78.48 153.41 72.57 159.06 65.89 Z"/>
  <path id="path5655" fill="#f7fcff" d="M 92.10 67.76 C 96.60 73.03 100.96 78.41 105.45 83.68 C 103.80 84.27 102.22 84.63 100.88 85.82 C 97.24 89.03 94.01 92.76 90.84 96.42 C 86.72 91.50 82.59 86.59 78.50 81.64 C 83.39 77.33 87.98 72.82 92.10 67.76 Z"/>
  <path id="path5657" fill="#2c9cd6" d="M 126.67 68.61 C 126.90 69.98 127.05 71.35 127.16 72.74 C 126.87 84.69 126.85 96.68 126.95 108.64 C 126.62 108.50 126.28 108.37 125.95 108.23 C 123.08 104.84 120.34 101.34 117.40 98.00 C 115.25 95.49 113.15 92.94 111.05 90.38 C 115.71 86.52 119.73 81.98 124.46 78.21 C 124.93 79.08 125.39 79.95 125.86 80.82 C 125.72 76.71 126.14 72.68 126.67 68.61 Z"/>
  <path id="path5659" fill="#386cac" d="M 30.97 72.01 L 31.43 74.15 C 29.78 78.70 28.49 83.36 27.65 88.14 C 27.30 87.48 26.95 86.82 26.59 86.16 C 25.53 88.84 24.44 91.29 22.25 93.25 C 16.37 98.84 10.86 104.79 4.88 110.28 C 4.57 106.97 4.38 103.62 4.47 100.30 C 7.27 93.67 12.42 90.23 17.17 85.17 C 21.76 80.67 26.01 75.91 30.97 72.01 Z"/>
  <path id="path5661" fill="#c1e9fc" d="M 127.16 72.74 C 127.50 76.55 127.81 80.37 128.14 84.19 C 128.94 82.47 129.66 80.72 130.41 78.98 C 130.41 82.23 130.71 84.75 132.37 87.61 C 132.58 98.85 132.52 110.14 132.42 121.37 C 131.26 123.86 130.70 126.48 129.89 129.08 C 128.44 132.13 125.51 133.25 122.56 134.37 L 122.17 133.91 C 118.31 129.43 114.71 124.73 110.77 120.31 L 110.04 119.45 C 114.09 115.54 117.83 111.29 122.09 107.61 C 123.38 107.81 124.67 107.99 125.95 108.23 C 126.28 108.37 126.62 108.50 126.95 108.64 C 126.85 96.68 126.87 84.69 127.16 72.74 Z"/>
  <path id="path5663" fill="#f2faff" d="M 74.55 77.10 L 74.68 77.23 L 74.79 77.35 C 74.80 90.60 74.88 103.86 74.78 117.12 C 74.98 121.85 73.96 127.40 75.73 131.83 C 74.87 131.62 73.99 131.44 73.09 131.29 C 70.91 133.41 68.99 135.73 67.04 138.05 C 69.36 138.25 71.67 138.44 73.99 138.64 C 68.91 138.64 63.92 138.78 58.90 139.70 L 58.37 139.74 C 58.37 138.67 58.36 137.60 58.35 136.54 C 60.84 136.40 63.25 136.75 65.41 135.33 C 67.38 134.12 68.46 132.15 69.08 129.98 C 70.27 125.56 69.60 120.61 69.61 116.00 C 69.58 105.56 69.41 95.13 69.92 84.69 C 70.55 86.18 71.25 87.64 71.94 89.10 C 73.07 85.21 72.54 80.59 74.55 77.10 Z"/>
  <path id="path5665" fill="#1593d2" d="M 74.79 77.35 C 76.05 78.76 77.28 80.19 78.50 81.64 C 82.59 86.59 86.72 91.50 90.84 96.42 C 92.03 97.87 93.24 99.30 94.45 100.73 C 88.09 106.21 82.17 112.25 76.57 118.50 C 75.97 118.04 75.37 117.58 74.78 117.12 C 74.88 103.86 74.80 90.60 74.79 77.35 Z"/>
  <path id="path5667" fill="#4cafe0" d="M 166.05 82.77 C 170.23 98.61 168.74 115.71 161.41 130.40 C 153.14 147.27 137.70 160.35 119.64 165.61 C 108.94 168.80 97.66 169.11 86.72 167.03 C 95.96 157.18 105.84 147.94 115.20 138.20 C 117.38 135.80 119.00 134.66 122.17 133.91 L 122.56 134.37 C 124.82 136.76 126.63 139.61 129.04 141.85 C 130.14 141.97 131.25 141.96 132.37 141.82 C 133.39 135.77 132.99 129.48 133.40 123.35 C 134.26 119.51 133.48 114.30 136.75 111.76 C 146.63 102.22 156.09 92.23 166.05 82.77 Z"/>
  <path id="path5669" fill="#e8f7fe" d="M 105.45 83.68 C 107.18 85.71 108.89 87.76 110.59 89.82 C 106.08 94.48 101.52 99.09 96.81 103.55 C 96.03 102.60 95.24 101.66 94.45 100.73 C 93.24 99.30 92.03 97.87 90.84 96.42 C 94.01 92.76 97.24 89.03 100.88 85.82 C 102.22 84.63 103.80 84.27 105.45 83.68 Z"/>
  <path id="path5671" fill="#2460a6" d="M 26.59 86.16 C 26.95 86.82 27.30 87.48 27.65 88.14 C 27.42 90.06 27.18 91.98 26.92 93.89 C 25.79 97.85 24.06 101.19 20.96 103.96 C 15.93 108.58 11.52 113.88 6.21 118.17 C 5.62 115.56 5.15 112.94 4.88 110.28 C 10.86 104.79 16.37 98.84 22.25 93.25 C 24.44 91.29 25.53 88.84 26.59 86.16 Z"/>
  <path id="path5673" fill="#daf2fe" d="M 110.59 89.82 L 111.05 90.38 C 113.15 92.94 115.25 95.49 117.40 98.00 C 112.91 102.75 108.05 107.00 103.98 112.14 C 101.60 109.26 99.19 106.42 96.81 103.55 C 101.52 99.09 106.08 94.48 110.59 89.82 Z"/>
  <path id="path5675" fill="#ccecfd" d="M 117.40 98.00 C 120.34 101.34 123.08 104.84 125.95 108.23 C 124.67 107.99 123.38 107.81 122.09 107.61 C 117.83 111.29 114.09 115.54 110.04 119.45 C 108.02 117.01 106.00 114.58 103.98 112.14 C 108.05 107.00 112.91 102.75 117.40 98.00 Z"/>
  <path id="path5677" fill="#299bd5" d="M 94.45 100.73 C 95.24 101.66 96.03 102.60 96.81 103.55 C 99.19 106.42 101.60 109.26 103.98 112.14 C 106.00 114.58 108.02 117.01 110.04 119.45 L 110.77 120.31 C 109.44 119.75 108.08 119.27 106.69 118.86 L 106.38 118.79 C 102.09 123.38 97.77 127.88 93.19 132.19 C 90.78 134.41 89.06 136.61 87.54 139.51 C 87.11 138.53 86.69 137.54 86.28 136.55 C 84.35 136.42 82.02 136.59 80.25 135.73 C 78.47 134.93 77.08 133.22 75.73 131.83 C 73.96 127.40 74.98 121.85 74.78 117.12 C 75.37 117.58 75.97 118.04 76.57 118.50 C 82.17 112.25 88.09 106.21 94.45 100.73 Z"/>
  <path style="fill:#ffffff;fill-opacity:0" id="path5679" fill="#ffffff" d="M 0.00 105.46 C 1.27 114.89 2.50 124.18 5.78 133.18 C 13.07 154.05 27.28 172.19 45.89 184.14 C 59.99 193.37 76.10 198.42 92.81 200.00 L 0.00 200.00 L 0.00 105.46 Z"/>
  <path style="fill:#ffffff;fill-opacity:0" id="path5681" fill="#ffffff" d="M 200.00 107.79 L 200.00 200.00 L 107.25 200.00 C 119.28 198.81 131.02 196.19 141.98 190.98 C 160.99 182.32 177.03 167.50 187.27 149.29 C 194.61 136.52 198.50 122.38 200.00 107.79 Z"/>
  <path id="path5683" fill="#3ca4da" d="M 106.38 118.79 L 106.69 118.86 C 108.08 119.27 109.44 119.75 110.77 120.31 C 114.71 124.73 118.31 129.43 122.17 133.91 C 119.00 134.66 117.38 135.80 115.20 138.20 C 105.84 147.94 95.96 157.18 86.72 167.03 C 79.21 165.71 72.34 162.71 65.76 158.96 C 72.45 152.41 78.57 145.43 86.06 139.76 C 86.14 138.69 86.21 137.62 86.28 136.55 C 86.69 137.54 87.11 138.53 87.54 139.51 C 89.06 136.61 90.78 134.41 93.19 132.19 C 97.77 127.88 102.09 123.38 106.38 118.79 Z"/>
  <path id="path5685" fill="#d7f1fd" d="M 132.42 121.37 C 132.46 128.18 132.74 135.02 132.37 141.82 C 131.25 141.96 130.14 141.97 129.04 141.85 C 126.63 139.61 124.82 136.76 122.56 134.37 C 125.51 133.25 128.44 132.13 129.89 129.08 C 130.70 126.48 131.26 123.86 132.42 121.37 Z"/>
  <path id="path5687" fill="#d7f1fd" d="M 73.09 131.29 C 73.99 131.44 74.87 131.62 75.73 131.83 C 77.08 133.22 78.47 134.93 80.25 135.73 C 82.02 136.59 84.35 136.42 86.28 136.55 C 86.21 137.62 86.14 138.69 86.06 139.76 C 82.83 139.70 79.61 139.67 76.38 139.79 C 70.55 139.78 64.73 139.83 58.90 139.70 C 63.92 138.78 68.91 138.64 73.99 138.64 C 71.67 138.44 69.36 138.25 67.04 138.05 C 68.99 135.73 70.91 133.41 73.09 131.29 Z"/>
  <path id="path5689" fill="#2e9dd7" d="M 76.38 139.79 C 79.61 139.67 82.83 139.70 86.06 139.76 C 78.57 145.43 72.45 152.41 65.76 158.96 C 61.87 156.85 58.49 154.41 55.54 151.09 C 58.68 147.84 61.68 143.86 65.53 141.45 C 69.01 140.47 72.80 140.49 76.38 139.79 Z"/>
</svg>