<?xml version="1.0" encoding="UTF-8" standalone="no"?>
<svg xmlns:dc="http://purl.org/dc/elements/1.1/" xmlns:cc="http://creativecommons.org/ns#" xmlns:rdf="http://www.w3.org/1999/02/22-rdf-syntax-ns#" xmlns:svg="http://www.w3.org/2000/svg" xmlns="http://www.w3.org/2000/svg" xmlns:sodipodi="http://sodipodi.sourceforge.net/DTD/sodipodi-0.dtd" xmlns:inkscape="http://www.inkscape.org/namespaces/inkscape" inkscape:version="1.0 (4035a4f, 2020-05-01)" sodipodi:docname="17.svg" id="svg3358" height="200.0pt" width="200.0pt" viewBox="0 0 200 200" version="1.1">
  <metadata id="metadata3364">
    <rdf:RDF>
      <cc:Work rdf:about="">
        <dc:format>image/svg+xml</dc:format>
        <dc:type rdf:resource="http://purl.org/dc/dcmitype/StillImage"/>
      </cc:Work>
    </rdf:RDF>
  </metadata>
  <defs id="defs3362"/>
  <sodipodi:namedview inkscape:current-layer="svg3358" inkscape:cy="133.33333" inkscape:cx="133.33333" inkscape:zoom="1.75125" showgrid="false" id="namedview3360" inkscape:window-height="480" inkscape:window-width="640" inkscape:pageshadow="2" inkscape:pageopacity="0" guidetolerance="10" gridtolerance="10" objecttolerance="10" borderopacity="1" bordercolor="#666666" pagecolor="#ffffff"/>
  <path style="fill:#ffffff;fill-opacity:0.00809717" id="path3316" fill="#ffffff" d="M 0.00 0.00 L 200.00 0.00 L 200.00 200.00 L 103.29 200.00 C 114.77 198.90 124.64 194.88 133.68 187.77 C 148.17 176.45 158.20 159.03 163.74 141.70 C 169.12 124.99 170.90 107.44 169.72 89.96 C 168.24 69.30 162.05 47.95 150.29 30.73 C 141.71 17.99 129.43 6.96 114.47 2.54 C 107.66 0.77 100.98 -0.59 93.95 0.81 C 79.71 2.72 67.42 10.41 57.85 20.87 C 44.07 36.03 35.70 56.47 32.32 76.51 C 30.64 88.08 29.07 99.16 30.64 110.88 C 32.42 130.96 37.68 150.27 48.59 167.38 C 56.26 179.40 66.96 190.22 80.26 195.82 C 85.70 198.21 91.45 199.35 97.33 200.00 L 0.00 200.00 L 0.00 0.00 Z"/>
  <path id="path3318" fill="#030000" d="M 93.95 0.81 C 100.98 -0.59 107.66 0.77 114.47 2.54 C 129.43 6.96 141.71 17.99 150.29 30.73 C 162.05 47.95 168.24 69.30 169.72 89.96 C 170.90 107.44 169.12 124.99 163.74 141.70 C 158.20 159.03 148.17 176.45 133.68 187.77 C 124.64 194.88 114.77 198.90 103.29 200.00 L 97.33 200.00 C 91.45 199.35 85.70 198.21 80.26 195.82 C 66.96 190.22 56.26 179.40 48.59 167.38 C 37.68 150.27 32.42 130.96 30.64 110.88 C 29.07 99.16 30.64 88.08 32.32 76.51 C 35.70 56.47 44.07 36.03 57.85 20.87 C 67.42 10.41 79.71 2.72 93.95 0.81 Z"/>
  <path id="path3320" fill="#ffffff" d="M 89.44 6.61 C 99.93 4.02 111.16 5.39 120.81 10.21 C 133.67 16.56 143.22 27.45 150.26 39.74 C 160.87 58.51 165.46 80.59 165.25 102.04 C 164.86 123.28 159.92 144.65 148.91 162.97 C 142.87 172.95 134.52 182.32 124.39 188.28 C 114.98 193.85 103.75 196.41 92.91 194.50 C 80.60 192.49 69.90 185.51 61.56 176.46 C 50.06 163.90 42.80 147.93 38.82 131.49 C 34.27 112.37 33.98 92.02 37.96 72.77 C 41.32 56.58 47.99 40.39 58.49 27.50 C 66.51 17.68 76.96 9.68 89.44 6.61 Z"/>
  <path id="path3322" fill="#030000" d="M 91.50 8.80 C 102.73 6.38 114.37 8.91 124.05 14.93 C 135.60 22.04 144.48 33.52 150.45 45.55 C 160.11 64.95 163.69 87.49 162.33 109.01 C 161.22 126.32 156.70 143.99 148.17 159.17 C 141.32 171.25 131.86 182.07 119.16 188.14 C 109.12 192.99 97.34 193.84 86.75 190.33 C 76.66 187.04 68.34 180.49 61.48 172.52 C 51.79 161.13 45.42 146.95 41.73 132.53 C 36.37 111.15 36.45 88.34 41.97 67.00 C 45.72 52.65 52.33 38.36 62.13 27.12 C 69.95 18.25 79.77 11.26 91.50 8.80 Z"/>
  <path id="path3324" fill="#ffffff" d="M 106.04 10.14 C 114.62 11.32 122.19 15.22 128.95 20.50 C 109.02 73.03 89.18 125.59 69.21 178.10 C 51.58 161.65 42.85 137.80 40.32 114.25 C 38.02 92.16 41.06 68.74 50.49 48.50 C 56.11 36.49 64.44 24.99 75.56 17.53 C 84.51 11.51 95.28 8.50 106.04 10.14 Z"/>
  <path id="path3326" fill="#030000" d="M 99.51 34.62 C 104.54 36.72 107.98 42.64 107.78 48.02 C 107.77 51.92 105.66 55.03 105.88 58.96 C 105.97 61.73 105.69 64.09 104.94 66.75 C 103.87 65.81 102.79 64.86 101.72 63.91 C 98.74 69.18 101.11 73.95 99.60 79.54 C 98.47 78.12 97.32 76.72 96.16 75.32 C 93.70 80.24 95.16 84.62 95.21 89.79 C 94.15 89.68 93.09 89.57 92.03 89.46 C 87.97 98.08 87.40 107.61 87.04 117.00 C 85.65 115.76 83.87 114.72 83.29 112.85 C 81.52 107.12 83.82 101.05 82.38 94.97 C 75.97 103.62 73.82 115.56 69.06 125.13 C 66.52 120.86 67.06 116.42 67.88 111.75 C 68.81 106.14 71.47 101.10 72.06 95.47 C 64.55 100.62 59.35 109.33 52.80 115.65 C 52.05 108.85 55.84 103.65 59.32 98.22 C 62.17 93.74 66.19 91.21 67.81 85.97 C 61.79 86.50 57.46 90.33 51.60 92.67 C 52.57 89.77 53.62 87.08 55.99 85.02 C 64.07 77.52 76.58 73.65 85.69 67.68 C 87.28 66.66 87.98 65.65 88.65 63.88 C 87.52 62.93 86.53 62.25 85.00 62.24 C 80.67 61.91 75.58 62.70 71.46 61.35 C 69.72 60.82 68.53 58.87 67.39 57.55 C 74.71 57.30 82.04 57.54 89.37 57.05 C 87.68 55.70 86.10 54.39 83.94 53.91 C 80.60 52.87 77.37 53.32 74.51 51.01 C 78.27 50.67 82.02 51.47 85.74 51.22 C 86.43 50.66 87.08 50.06 87.69 49.43 C 80.90 44.39 72.78 46.66 64.96 47.13 C 62.73 47.01 62.59 50.75 61.64 52.14 C 57.59 50.55 56.69 46.57 57.77 42.71 C 59.85 40.60 63.14 39.37 65.72 37.87 C 67.05 36.89 68.40 35.54 69.98 35.01 C 74.29 34.48 78.68 35.55 83.04 35.02 C 88.36 34.57 94.36 32.56 99.51 34.62 Z"/>
  <path id="path3328" fill="#ffffff" d="M 86.41 39.32 C 89.64 38.61 92.07 39.70 91.59 43.33 C 89.20 44.24 86.94 44.54 84.63 43.22 C 84.11 41.34 84.96 40.40 86.41 39.32 Z"/>
  <path id="path3330" fill="#ffffff" d="M 64.49 39.99 C 65.73 38.97 67.25 40.89 66.46 42.07 C 65.13 43.06 63.72 41.25 64.49 39.99 Z"/>
  <path id="path3332" fill="#030000" d="M 86.30 40.93 C 87.23 40.57 90.43 41.00 89.49 42.54 C 88.22 43.33 86.32 42.49 86.30 40.93 Z"/>
  <path id="path3334" fill="#ffffff" d="M 62.04 42.52 C 64.39 43.52 66.05 43.74 68.57 43.51 L 68.76 44.63 C 66.97 44.85 65.10 44.95 63.37 45.45 C 61.88 46.35 60.95 48.28 59.89 49.62 C 59.65 47.59 59.41 45.56 59.39 43.51 C 60.26 43.15 61.14 42.82 62.04 42.52 Z"/>
  <path id="path3336" fill="#ffffff" d="M 100.94 49.74 L 102.87 49.06 C 102.78 52.47 102.06 55.11 100.51 58.13 C 100.53 55.38 100.33 52.43 100.94 49.74 Z"/>
  <path id="path3338" fill="#ffffff" d="M 96.89 56.77 C 98.63 60.58 98.44 62.97 97.34 66.93 C 96.63 63.26 94.92 60.30 96.89 56.77 Z"/>
  <path id="path3340" fill="#ffffff" d="M 92.79 65.63 C 93.68 68.84 93.66 71.72 92.81 74.92 C 92.07 71.52 90.15 68.67 92.79 65.63 Z"/>
  <path id="path3342" fill="#ffffff" d="M 80.37 75.51 C 79.49 78.52 76.98 78.31 74.50 79.43 C 69.44 81.13 64.71 83.51 59.82 85.61 C 65.64 80.65 72.88 77.07 80.37 75.51 Z"/>
  <path id="path3344" fill="#ffffff" d="M 89.11 80.79 C 87.31 89.15 86.38 97.06 85.85 105.59 C 84.73 98.49 84.73 91.01 86.26 83.97 C 86.49 82.14 87.76 81.72 89.11 80.79 Z"/>
  <path id="path3346" fill="#ffffff" d="M 78.73 81.99 C 77.02 84.19 75.01 86.08 73.10 88.10 C 68.00 93.51 63.71 99.51 58.92 105.14 C 62.95 97.31 68.32 89.76 74.50 83.47 C 75.76 82.03 76.96 82.18 78.73 81.99 Z"/>
  <path id="path3348" fill="#ffffff" d="M 80.45 83.97 L 82.45 84.08 C 77.84 93.64 74.52 103.60 70.75 113.50 C 71.96 105.47 74.20 97.68 77.16 90.12 C 78.04 88.05 78.93 85.67 80.45 83.97 Z"/>
  <path id="path3350" fill="#ffffff" d="M 136.53 106.46 C 142.57 109.55 146.66 114.62 149.78 120.53 C 148.38 120.58 146.97 120.62 145.56 120.67 C 143.68 117.81 141.78 115.07 139.12 112.86 C 132.90 107.52 123.92 105.46 116.04 107.85 C 107.13 110.32 100.05 117.96 98.22 127.02 C 96.07 136.90 100.54 147.54 108.99 153.03 C 116.46 158.08 126.44 158.66 134.43 154.45 C 140.21 151.55 144.06 146.63 146.72 140.86 C 148.06 140.86 149.40 140.86 150.73 140.86 C 147.09 151.33 138.14 159.29 127.04 160.81 C 113.77 162.91 100.27 154.83 95.70 142.24 C 90.97 130.02 95.52 115.67 106.29 108.28 C 115.03 102.08 127.10 101.39 136.53 106.46 Z"/>
  <path id="path3352" fill="#ffffff" d="M 124.98 111.11 C 128.63 111.86 130.63 114.34 132.93 117.01 C 131.93 117.58 130.94 118.15 129.95 118.71 C 128.25 117.05 126.64 114.90 124.14 114.48 C 120.83 113.82 116.97 115.68 116.10 119.09 C 115.10 121.84 117.12 124.09 118.50 126.24 C 118.76 124.45 118.98 122.66 119.20 120.87 C 125.07 120.90 130.94 120.88 136.81 120.87 C 136.82 122.03 136.83 123.18 136.84 124.34 C 132.04 124.34 127.24 124.35 122.43 124.32 C 122.42 125.31 122.41 126.30 122.39 127.29 C 126.89 128.88 130.87 130.60 133.90 134.46 C 135.10 134.52 136.31 134.58 137.51 134.64 C 136.87 136.15 136.12 137.51 135.23 138.89 C 134.74 141.77 134.67 144.35 132.76 146.72 C 129.80 150.64 125.44 150.99 121.29 153.11 C 120.87 153.18 120.46 153.25 120.04 153.32 C 118.19 151.62 116.06 150.37 114.00 148.96 C 111.33 147.09 110.20 144.46 108.68 141.70 C 109.75 141.30 110.83 140.90 111.90 140.50 C 113.73 144.05 115.45 145.99 118.72 148.25 C 119.04 142.15 118.82 136.02 118.89 129.91 C 115.72 127.93 112.99 126.14 112.56 122.08 C 111.39 115.06 118.38 109.59 124.98 111.11 Z"/>
  <path id="path3354" fill="#030000" d="M 122.69 131.09 C 125.07 131.95 127.36 133.15 129.55 134.38 C 127.09 134.48 124.63 134.50 122.17 134.47 C 122.32 133.34 122.50 132.22 122.69 131.09 Z"/>
  <path id="path3356" fill="#030000" d="M 122.44 137.88 C 125.46 137.89 128.49 137.89 131.51 137.91 C 131.33 140.23 131.65 142.30 130.25 144.31 C 128.42 147.01 125.39 147.67 122.49 148.66 C 122.41 145.07 122.42 141.48 122.44 137.88 Z"/>
</svg>