<?xml version="1.0" encoding="UTF-8" standalone="no"?>
<svg xmlns:dc="http://purl.org/dc/elements/1.1/" xmlns:cc="http://creativecommons.org/ns#" xmlns:rdf="http://www.w3.org/1999/02/22-rdf-syntax-ns#" xmlns:svg="http://www.w3.org/2000/svg" xmlns="http://www.w3.org/2000/svg" xmlns:sodipodi="http://sodipodi.sourceforge.net/DTD/sodipodi-0.dtd" xmlns:inkscape="http://www.inkscape.org/namespaces/inkscape" inkscape:version="1.0 (4035a4f, 2020-05-01)" sodipodi:docname="19.svg" id="svg3561" height="200.0pt" width="200.0pt" viewBox="0 0 200 200" version="1.1">
  <metadata id="metadata3567">
    <rdf:RDF>
      <cc:Work rdf:about="">
        <dc:format>image/svg+xml</dc:format>
        <dc:type rdf:resource="http://purl.org/dc/dcmitype/StillImage"/>
      </cc:Work>
    </rdf:RDF>
  </metadata>
  <defs id="defs3565"/>
  <sodipodi:namedview inkscape:current-layer="svg3561" inkscape:cy="133.33333" inkscape:cx="133.33333" inkscape:zoom="1.75125" showgrid="false" id="namedview3563" inkscape:window-height="480" inkscape:window-width="640" inkscape:pageshadow="2" inkscape:pageopacity="0" guidetolerance="10" gridtolerance="10" objecttolerance="10" borderopacity="1" bordercolor="#666666" pagecolor="#ffffff"/>
  <path style="fill:#ffffff;fill-opacity:0" id="path3531" fill="#ffffff" d="M 0.00 0.00 L 96.81 0.00 C 85.57 1.15 74.60 2.80 64.05 7.03 C 37.90 17.07 16.55 38.54 6.75 64.79 C 2.71 75.09 1.15 85.78 0.00 96.72 L 0.00 0.00 Z"/>
  <path id="path3533" fill="#ed1c29" d="M 96.81 0.00 L 103.65 0.00 L 104.57 0.06 L 105.39 0.15 C 111.53 0.96 117.87 1.66 123.89 3.14 C 141.96 7.51 158.66 17.05 171.63 30.38 C 185.70 44.71 195.28 63.41 198.59 83.23 C 199.16 86.87 199.56 90.55 200.00 94.21 L 200.00 105.84 C 198.95 119.10 195.88 132.00 189.96 143.96 C 179.76 165.03 161.97 182.17 140.52 191.54 C 129.52 196.53 117.79 199.01 105.79 200.00 L 94.16 200.00 C 80.44 198.80 67.10 195.56 54.82 189.19 C 34.42 178.85 17.84 161.27 8.68 140.31 C 3.44 128.61 1.16 116.19 0.00 103.50 L 0.00 96.72 C 1.15 85.78 2.71 75.09 6.75 64.79 C 16.55 38.54 37.90 17.07 64.05 7.03 C 74.60 2.80 85.57 1.15 96.81 0.00 Z"/>
  <path style="fill:#ffffff;fill-opacity:0" id="path3535" fill="#ffffff" d="M 103.65 0.00 L 200.00 0.00 L 200.00 94.21 C 199.56 90.55 199.16 86.87 198.59 83.23 C 195.28 63.41 185.70 44.71 171.63 30.38 C 158.66 17.05 141.96 7.51 123.89 3.14 C 117.87 1.66 111.53 0.96 105.39 0.15 L 104.57 0.06 L 103.65 0.00 Z"/>
  <path id="path3537" fill="#ffffff" d="M 83.53 4.93 C 101.25 1.85 119.78 3.77 136.45 10.55 C 162.82 21.11 183.75 43.66 192.29 70.76 C 199.37 92.88 198.15 117.56 188.80 138.83 C 177.32 165.43 153.52 185.99 125.53 193.48 C 105.65 198.86 84.00 197.75 64.83 190.17 C 49.78 184.26 36.23 174.50 25.91 162.06 C 14.27 148.18 6.70 130.99 4.36 113.03 C 1.88 94.62 4.80 75.56 12.77 58.78 C 25.97 30.73 52.93 10.09 83.53 4.93 Z"/>
  <path id="path3539" fill="#ed1c29" d="M 95.54 7.97 C 111.07 7.20 126.81 10.39 140.76 17.25 C 157.13 25.23 170.96 38.18 180.07 53.94 C 188.67 68.72 192.97 85.91 192.42 103.00 C 191.75 130.15 178.42 156.35 156.96 172.95 C 141.12 185.40 121.14 192.35 101.00 192.46 C 84.09 192.66 67.15 188.07 52.66 179.33 C 28.92 165.17 12.35 140.20 8.73 112.76 C 6.38 95.86 8.86 78.36 15.76 62.77 C 23.52 45.20 36.95 30.21 53.52 20.51 C 66.26 12.99 80.78 8.75 95.54 7.97 Z"/>
  <path id="path3541" fill="#ffffff" d="M 89.26 24.20 C 113.14 20.67 137.88 29.01 154.77 46.23 C 169.09 60.62 177.27 80.67 176.88 101.00 C 176.86 125.75 163.98 149.67 143.51 163.52 C 130.53 172.45 114.76 177.22 99.00 176.88 C 82.24 176.75 65.69 170.81 52.58 160.39 C 41.36 151.52 32.68 139.52 27.89 126.03 C 23.08 112.63 22.15 97.92 25.13 84.00 C 28.22 69.40 35.74 55.83 46.42 45.41 C 57.96 34.00 73.18 26.45 89.26 24.20 Z"/>
  <path id="path3543" fill="#ed1c29" d="M 99.27 34.14 C 101.21 35.39 102.92 37.06 104.66 38.58 C 107.33 37.33 110.01 36.12 112.70 34.91 C 110.50 38.18 108.58 41.33 107.94 45.31 C 102.19 45.31 96.44 45.30 90.69 45.32 C 89.99 41.35 88.21 38.24 85.99 34.94 C 88.67 36.15 91.35 37.36 94.02 38.57 C 95.72 37.06 97.40 35.44 99.27 34.14 Z"/>
  <path id="path3545" fill="#ed1c29" d="M 99.96 49.54 C 104.54 52.59 110.26 53.69 114.89 50.05 C 114.17 53.32 113.06 54.66 110.76 56.87 C 108.24 59.08 109.44 61.83 109.63 64.71 C 111.55 64.30 113.47 63.91 115.39 63.52 C 114.62 64.98 114.04 66.74 112.93 67.97 C 111.48 68.52 109.91 68.78 108.40 69.12 C 108.03 74.20 107.82 78.81 110.73 83.25 C 114.39 81.81 116.76 80.27 119.46 77.45 C 121.67 75.15 122.96 74.46 126.16 73.98 C 126.32 72.28 126.16 70.35 126.71 68.72 C 128.46 65.79 132.57 64.24 134.86 61.91 C 136.85 59.04 137.69 55.34 139.20 52.20 C 141.42 53.85 143.55 54.97 143.99 57.98 C 145.11 65.72 141.56 70.82 138.30 77.30 C 145.37 73.84 151.25 69.00 157.24 63.99 C 158.05 67.51 159.16 70.49 156.72 73.68 C 152.97 78.01 147.99 81.26 143.91 85.30 C 152.23 86.00 160.25 85.33 168.53 85.34 C 167.28 88.53 165.84 91.18 162.44 92.44 C 156.55 94.58 149.41 93.93 143.22 94.80 C 152.97 98.72 163.61 100.34 173.41 104.11 C 173.31 107.47 169.62 109.01 166.80 109.54 C 161.42 110.23 155.75 109.41 150.47 108.34 C 145.37 107.30 140.74 105.13 135.74 103.74 C 139.37 107.45 143.72 109.87 148.07 112.92 C 153.58 116.72 159.27 120.27 164.71 124.19 C 162.94 125.66 161.42 127.57 158.96 127.73 C 154.45 128.19 150.05 125.91 146.20 123.82 C 139.59 120.24 134.10 115.43 127.35 112.24 C 129.05 116.50 131.79 119.96 134.90 123.29 C 134.16 123.96 133.42 124.64 132.67 125.31 C 135.39 128.48 138.17 131.58 141.15 134.50 C 142.53 133.46 143.90 132.31 145.41 131.47 C 147.18 131.16 149.06 131.28 150.84 131.42 C 152.84 131.50 153.58 133.14 154.97 134.36 C 153.68 134.17 152.39 134.02 151.09 133.92 C 148.92 134.73 146.97 136.26 144.95 137.41 C 147.99 138.75 150.43 140.72 152.83 142.96 C 152.56 144.35 152.29 145.74 152.01 147.12 C 151.44 146.24 150.86 145.37 150.28 144.49 C 147.46 143.93 145.28 142.96 142.90 141.41 C 143.66 143.30 144.32 145.21 144.96 147.14 C 143.23 149.47 141.49 151.78 139.57 153.96 C 139.84 152.39 140.13 150.83 140.39 149.26 C 138.11 146.41 138.72 144.22 139.10 140.80 C 137.95 142.31 136.83 143.85 135.66 145.35 C 134.90 145.39 134.14 145.43 133.39 145.47 C 132.43 146.76 131.46 148.04 130.45 149.30 C 130.67 146.66 131.15 144.08 131.65 141.48 C 133.23 139.97 136.16 138.44 136.47 136.13 C 134.59 133.09 131.97 130.46 129.67 127.72 C 128.91 128.27 128.15 128.81 127.40 129.36 C 124.83 125.83 122.08 120.66 117.98 118.81 C 115.43 117.79 113.18 119.10 113.73 121.97 C 115.96 128.47 123.10 133.76 126.90 139.11 C 129.22 142.59 127.95 146.04 127.38 149.83 C 126.86 148.14 126.30 146.46 125.80 144.76 C 124.44 147.79 123.01 150.78 121.40 153.68 C 121.30 150.51 121.26 147.33 121.16 144.15 C 119.94 146.14 118.73 148.14 117.54 150.15 C 117.03 146.72 116.77 142.86 115.36 139.67 C 114.11 136.99 111.94 135.62 109.67 133.89 C 108.73 135.49 107.32 137.05 107.46 139.03 C 107.77 145.14 112.75 149.25 112.34 155.07 C 112.19 158.14 110.39 160.40 108.81 162.88 C 108.06 159.77 107.33 156.70 105.96 153.79 C 104.00 156.65 102.14 159.58 100.13 162.41 C 98.19 159.57 96.38 156.64 94.44 153.80 C 93.00 156.68 92.26 159.73 91.54 162.84 C 89.90 160.29 88.13 158.23 88.07 155.02 C 87.61 149.02 92.65 145.17 92.85 139.00 C 92.78 137.28 91.88 135.54 91.26 133.96 C 89.24 135.16 87.32 135.98 85.96 137.99 C 83.60 141.37 83.38 146.21 82.91 150.16 C 81.69 148.17 80.46 146.19 79.20 144.22 C 79.13 147.40 79.12 150.58 79.07 153.75 C 77.38 150.85 75.95 147.89 74.71 144.77 C 74.10 146.46 73.48 148.14 72.85 149.82 C 72.39 146.09 71.19 141.97 73.70 138.71 C 77.50 133.76 83.95 128.70 86.45 122.49 C 87.13 120.73 86.56 119.59 85.11 118.48 C 82.69 118.23 80.77 119.44 79.14 121.09 C 76.76 123.55 74.84 126.60 72.90 129.42 C 72.19 128.84 71.47 128.27 70.75 127.70 C 68.22 130.57 65.72 133.45 63.42 136.51 C 65.07 138.28 66.88 139.93 68.73 141.50 C 69.28 144.04 69.73 146.56 69.89 149.16 C 68.92 148.08 67.95 147.00 66.99 145.92 C 64.41 144.87 62.73 142.98 60.93 140.96 C 61.24 143.06 61.58 145.14 61.81 147.25 C 61.11 147.74 60.41 148.24 59.71 148.74 C 60.07 150.48 60.41 152.22 60.74 153.96 C 58.81 151.77 57.10 149.42 55.40 147.06 C 56.03 145.16 56.68 143.27 57.41 141.41 C 55.05 142.96 52.92 143.89 50.15 144.52 C 49.46 145.32 48.77 146.12 48.08 146.92 C 47.91 145.61 47.74 144.29 47.56 142.98 C 49.97 140.69 52.36 138.73 55.41 137.34 C 53.30 136.21 51.30 134.65 49.04 133.85 C 47.95 134.02 46.87 134.23 45.80 134.48 C 46.25 133.59 46.68 132.70 47.10 131.79 C 49.70 131.52 52.31 131.36 54.91 131.14 C 56.30 132.31 57.69 133.48 59.08 134.64 C 62.15 131.71 64.92 128.51 67.66 125.26 C 66.91 124.63 66.17 124.00 65.42 123.37 C 68.49 120.00 71.28 116.58 72.96 112.27 C 64.17 116.46 56.93 123.65 47.14 127.02 C 44.69 127.79 41.40 128.26 39.03 127.04 C 37.83 126.18 36.79 125.05 35.80 123.95 C 43.63 118.74 51.44 113.51 59.21 108.23 C 61.16 106.90 62.93 105.38 64.60 103.71 C 54.08 107.31 44.65 110.82 33.21 109.47 C 29.70 108.86 28.00 107.19 26.44 104.08 C 36.55 100.69 47.15 98.59 57.13 94.84 C 50.75 93.84 43.00 94.71 37.08 92.05 C 34.06 90.72 33.01 88.20 31.84 85.35 C 40.07 85.34 48.21 85.97 56.46 85.34 C 52.34 81.19 47.20 77.93 43.46 73.46 C 41.25 70.41 42.32 67.35 43.15 64.05 C 49.14 69.00 55.01 73.86 62.04 77.31 C 58.99 71.16 55.53 66.26 56.27 58.95 C 56.34 55.48 58.62 54.08 61.05 52.11 C 62.57 55.22 63.45 58.77 65.33 61.66 C 67.46 64.10 71.51 65.56 73.48 68.52 C 74.26 70.25 74.05 72.50 74.30 74.37 C 75.39 74.38 76.48 74.40 77.57 74.41 C 80.19 76.77 82.67 79.45 85.59 81.43 C 87.26 82.46 89.06 83.27 90.79 81.85 C 93.58 79.77 93.27 75.67 93.74 72.58 C 90.59 73.71 90.06 72.58 87.61 70.92 C 89.52 70.69 91.43 70.48 93.35 70.26 C 92.94 69.06 92.54 67.86 92.14 66.66 C 87.80 66.54 84.00 67.53 81.02 63.63 C 83.76 63.38 86.52 63.29 89.27 63.11 C 89.27 62.36 89.27 61.61 89.26 60.87 C 84.93 61.96 77.88 63.81 74.34 60.12 C 74.54 58.80 74.77 57.48 75.02 56.16 C 76.25 57.11 77.42 58.81 78.96 59.26 C 82.17 59.86 85.76 59.37 88.99 59.11 C 88.19 57.67 87.95 55.18 86.17 54.69 C 83.82 55.31 81.79 56.36 79.60 57.38 C 79.29 56.49 78.97 55.60 78.65 54.71 C 85.23 50.91 92.39 49.41 99.96 49.54 Z"/>
  <path id="path3547" fill="#ffffff" d="M 99.36 53.55 C 97.62 54.96 95.85 56.34 94.09 57.71 C 93.84 56.43 93.59 55.16 93.33 53.89 C 95.34 53.73 97.35 53.64 99.36 53.55 Z"/>
  <path id="path3549" fill="#ffffff" d="M 66.15 75.01 C 69.48 76.70 70.17 79.40 71.01 82.76 C 73.42 81.66 75.88 81.01 78.51 80.59 C 76.47 82.65 74.21 83.91 71.58 85.04 C 73.83 88.15 76.00 91.59 79.24 93.76 C 81.57 95.31 84.12 95.99 86.75 96.85 C 86.64 97.65 86.53 98.44 86.42 99.23 C 84.05 98.40 81.79 97.70 79.69 96.27 C 75.68 93.49 73.11 89.65 70.56 85.59 C 68.06 86.81 65.76 87.63 62.98 87.99 C 64.83 86.00 66.93 84.73 69.37 83.59 C 67.24 80.86 65.92 78.64 66.15 75.01 Z"/>
  <path id="path3551" fill="#ffffff" d="M 134.32 74.70 C 134.12 78.73 133.42 80.51 131.00 83.55 C 133.50 84.71 135.50 85.98 137.24 88.17 C 134.58 87.60 132.26 86.76 129.83 85.58 C 125.75 92.16 121.27 97.93 113.10 99.18 C 114.21 95.83 116.94 96.06 119.61 94.57 C 123.56 92.71 126.30 88.49 128.74 85.04 C 126.09 83.90 123.92 82.64 121.86 80.59 C 124.57 80.98 126.86 81.65 129.32 82.81 C 130.22 78.92 131.03 77.10 134.32 74.70 Z"/>
  <path id="path3553" fill="#ffffff" d="M 90.84 89.68 C 97.06 89.65 103.28 89.66 109.50 89.67 C 108.80 100.90 107.11 111.49 100.13 120.68 C 93.30 111.46 91.54 100.87 90.84 89.68 Z"/>
  <path id="path3555" fill="#ed1c29" d="M 95.73 93.65 C 98.70 93.65 101.67 93.65 104.65 93.64 L 104.59 96.23 C 102.86 96.23 101.12 96.23 99.38 96.23 C 99.38 97.43 99.38 98.64 99.38 99.84 C 101.10 99.85 102.83 99.86 104.56 99.86 L 104.66 102.43 C 102.90 102.44 101.14 102.45 99.38 102.45 C 99.38 103.93 99.38 105.40 99.38 106.88 C 101.32 106.88 103.26 106.88 105.20 106.87 L 105.33 109.40 C 102.13 109.39 98.94 109.39 95.75 109.39 C 95.74 104.14 95.75 98.90 95.73 93.65 Z"/>
  <path style="fill:#ffffff;fill-opacity:0" id="path3557" fill="#ffffff" d="M 0.00 103.50 C 1.16 116.19 3.44 128.61 8.68 140.31 C 17.84 161.27 34.42 178.85 54.82 189.19 C 67.10 195.56 80.44 198.80 94.16 200.00 L 0.00 200.00 L 0.00 103.50 Z"/>
  <path style="fill:#ffffff;fill-opacity:0" id="path3559" fill="#ffffff" d="M 200.00 105.84 L 200.00 200.00 L 105.79 200.00 C 117.79 199.01 129.52 196.53 140.52 191.54 C 161.97 182.17 179.76 165.03 189.96 143.96 C 195.88 132.00 198.95 119.10 200.00 105.84 Z"/>
</svg>