<?xml version="1.0" encoding="UTF-8" standalone="no"?>
<svg xmlns:dc="http://purl.org/dc/elements/1.1/" xmlns:cc="http://creativecommons.org/ns#" xmlns:rdf="http://www.w3.org/1999/02/22-rdf-syntax-ns#" xmlns:svg="http://www.w3.org/2000/svg" xmlns="http://www.w3.org/2000/svg" xmlns:sodipodi="http://sodipodi.sourceforge.net/DTD/sodipodi-0.dtd" xmlns:inkscape="http://www.inkscape.org/namespaces/inkscape" inkscape:version="1.0 (4035a4f, 2020-05-01)" sodipodi:docname="328.svg" id="svg19683" height="200.0pt" width="200.0pt" viewBox="0 0 200 200" version="1.1">
  <metadata id="metadata19689">
    <rdf:RDF>
      <cc:Work rdf:about="">
        <dc:format>image/svg+xml</dc:format>
        <dc:type rdf:resource="http://purl.org/dc/dcmitype/StillImage"/>
      </cc:Work>
    </rdf:RDF>
  </metadata>
  <defs id="defs19687"/>
  <sodipodi:namedview inkscape:current-layer="svg19683" inkscape:cy="133.33333" inkscape:cx="133.33333" inkscape:zoom="1.75125" showgrid="false" id="namedview19685" inkscape:window-height="480" inkscape:window-width="640" inkscape:pageshadow="2" inkscape:pageopacity="0" guidetolerance="10" gridtolerance="10" objecttolerance="10" borderopacity="1" bordercolor="#666666" pagecolor="#ffffff"/>
  <path style="fill:#ffffff;fill-opacity:0" id="path19491" fill="#ffffff" d="M 0.00 0.00 L 14.48 0.00 C 14.27 32.31 14.47 64.68 14.38 97.00 C 14.05 110.31 16.54 123.92 21.90 136.13 C 23.54 139.81 25.41 143.39 27.47 146.85 C 29.37 149.95 31.41 152.96 33.60 155.86 C 35.41 158.23 37.33 160.51 39.31 162.73 C 41.62 165.31 44.04 167.79 46.58 170.14 C 49.99 173.30 53.55 176.29 57.31 179.05 C 61.09 181.83 64.99 184.43 69.04 186.80 C 75.11 190.21 81.44 193.41 87.95 195.86 C 92.09 197.41 96.29 198.83 100.55 200.00 L 0.00 200.00 L 0.00 0.00 Z"/>
  <path id="path19493" fill="#fff203" d="M 14.48 0.00 L 185.53 0.00 C 185.74 5.77 185.58 11.55 185.57 17.32 C 182.88 19.23 181.80 21.21 180.84 24.31 C 180.71 18.03 180.45 11.76 180.77 5.47 L 180.40 5.47 L 180.10 5.47 C 166.28 5.54 152.43 5.16 138.63 5.57 C 121.97 5.43 105.28 5.23 88.63 5.54 C 65.78 5.37 42.90 5.32 20.04 5.42 C 19.94 13.87 20.16 22.33 20.18 30.77 C 19.96 39.76 19.96 48.75 20.10 57.74 C 19.93 67.40 19.89 77.11 20.13 86.76 C 20.14 97.01 19.27 108.32 21.66 118.30 C 22.27 121.00 22.97 123.68 23.76 126.34 C 24.52 128.75 25.43 131.10 26.46 133.40 C 24.90 134.26 23.41 135.20 21.90 136.13 C 16.54 123.92 14.05 110.31 14.38 97.00 C 14.47 64.68 14.27 32.31 14.48 0.00 Z"/>
  <path style="fill:#ffffff;fill-opacity:0" id="path19495" fill="#ffffff" d="M 185.53 0.00 L 200.00 0.00 L 200.00 200.00 L 101.58 200.00 C 111.20 198.12 120.50 193.76 129.05 189.07 C 150.62 177.08 168.51 159.21 178.33 136.36 C 181.12 129.68 183.24 122.75 184.58 115.64 C 185.74 110.45 185.66 105.27 185.60 99.99 C 185.59 95.40 185.59 90.82 185.60 86.23 C 185.61 81.41 185.61 76.58 185.62 71.76 C 185.62 67.75 185.62 63.74 185.62 59.74 C 185.63 54.97 185.61 50.20 185.60 45.43 C 185.62 40.72 185.62 36.02 185.58 31.32 C 185.63 26.65 185.62 21.99 185.57 17.32 C 185.58 11.55 185.74 5.77 185.53 0.00 Z"/>
  <path id="path19497" fill="#514602" d="M 20.04 5.42 C 42.90 5.32 65.78 5.37 88.63 5.54 C 82.13 7.75 75.76 6.88 69.10 7.53 C 66.74 7.65 65.07 9.84 62.98 10.69 C 59.60 11.41 56.09 11.60 52.66 12.04 C 43.63 12.28 34.59 12.00 25.57 12.17 C 25.42 25.83 25.50 39.51 25.48 53.17 C 24.66 51.31 23.70 49.53 22.76 47.72 C 22.20 49.76 21.66 51.81 21.14 53.86 C 20.98 46.16 20.85 38.46 20.18 30.77 C 20.16 22.33 19.94 13.87 20.04 5.42 Z"/>
  <path id="path19499" fill="#cec203" d="M 180.40 5.47 L 180.77 5.47 C 180.45 11.76 180.71 18.03 180.84 24.31 C 180.75 28.61 180.89 32.91 180.89 37.21 C 180.84 40.99 180.93 44.79 181.03 48.57 C 182.56 47.52 184.08 46.47 185.60 45.43 C 185.61 50.20 185.63 54.97 185.62 59.74 C 184.19 60.34 182.76 60.95 181.33 61.55 C 181.02 59.36 180.69 57.17 180.45 54.98 C 179.80 47.46 180.52 39.90 180.08 32.35 C 179.94 23.80 180.48 15.28 180.13 6.72 L 180.10 5.47 L 180.40 5.47 Z"/>
  <path id="path19501" fill="#695e02" d="M 88.63 5.54 C 105.28 5.23 121.97 5.43 138.63 5.57 C 131.25 8.07 123.81 5.59 117.18 9.20 C 113.85 10.86 110.28 11.58 106.62 12.07 C 88.63 12.15 70.64 12.20 52.66 12.04 C 56.09 11.60 59.60 11.41 62.98 10.69 C 65.07 9.84 66.74 7.65 69.10 7.53 C 75.76 6.88 82.13 7.75 88.63 5.54 Z"/>
  <path id="path19503" fill="#7f7402" d="M 138.63 5.57 C 152.43 5.16 166.28 5.54 180.10 5.47 L 180.13 6.72 C 175.29 6.94 170.12 6.60 165.39 7.73 C 161.42 9.09 157.86 11.24 153.69 12.12 C 138.00 12.12 122.31 12.18 106.62 12.07 C 110.28 11.58 113.85 10.86 117.18 9.20 C 123.81 5.59 131.25 8.07 138.63 5.57 Z"/>
  <path id="path19505" fill="#938802" d="M 165.39 7.73 C 170.12 6.60 175.29 6.94 180.13 6.72 C 180.48 15.28 179.94 23.80 180.08 32.35 C 179.58 31.05 179.04 29.78 178.50 28.50 C 177.30 28.38 176.10 28.27 174.90 28.15 C 174.90 22.81 174.90 17.47 174.91 12.12 C 167.84 12.14 160.77 12.11 153.69 12.12 C 157.86 11.24 161.42 9.09 165.39 7.73 Z"/>
  <path id="path19507" fill="#8cd2f4" d="M 25.57 12.17 C 34.59 12.00 43.63 12.28 52.66 12.04 C 70.64 12.20 88.63 12.15 106.62 12.07 C 122.31 12.18 138.00 12.12 153.69 12.12 C 160.77 12.11 167.84 12.14 174.91 12.12 C 174.90 17.47 174.90 22.81 174.90 28.15 C 174.90 38.14 174.90 48.13 174.91 58.12 C 174.86 67.77 174.93 77.43 174.90 87.08 C 174.79 94.10 175.07 101.14 174.80 108.16 C 174.21 114.36 172.60 120.50 170.65 126.41 C 162.36 150.50 143.61 168.80 121.26 180.25 C 115.52 183.14 109.49 185.78 103.25 187.37 C 101.14 187.96 99.26 187.37 97.25 186.76 C 89.68 184.32 82.33 181.24 75.38 177.35 C 69.88 174.27 64.60 170.80 59.67 166.86 C 55.86 163.80 52.24 160.51 48.86 156.97 C 46.06 154.03 43.50 150.87 41.03 147.65 C 38.48 144.17 36.28 140.50 34.20 136.73 C 31.36 131.29 29.14 125.51 27.59 119.57 C 25.93 113.06 25.36 106.50 25.49 99.79 C 25.50 92.26 25.51 84.72 25.50 77.18 C 25.45 69.18 25.57 61.17 25.48 53.17 C 25.50 39.51 25.42 25.83 25.57 12.17 Z"/>
  <path id="path19509" fill="#849d88" d="M 98.69 13.51 L 98.75 14.32 C 96.81 16.49 95.89 17.80 95.81 20.87 C 96.95 19.51 98.06 18.15 98.97 16.62 C 99.82 16.36 100.66 16.09 101.51 15.83 C 101.53 16.45 101.57 17.08 101.61 17.71 L 102.28 18.42 C 101.60 18.58 100.93 18.76 100.25 18.95 C 99.52 19.17 98.79 19.41 98.07 19.65 C 98.71 20.55 99.35 21.45 99.99 22.36 C 99.00 21.83 98.00 21.32 97.00 20.82 L 96.96 23.20 C 95.83 21.50 94.96 22.08 93.77 23.34 C 95.14 19.76 95.82 16.27 98.69 13.51 Z"/>
  <path id="path19511" fill="#e7e30b" d="M 98.75 14.32 L 98.97 16.62 C 98.06 18.15 96.95 19.51 95.81 20.87 C 95.89 17.80 96.81 16.49 98.75 14.32 Z"/>
  <path id="path19513" fill="#ede003" d="M 185.57 17.32 C 185.62 21.99 185.63 26.65 185.58 31.32 C 183.34 33.05 181.99 34.58 180.89 37.21 C 180.89 32.91 180.75 28.61 180.84 24.31 C 181.80 21.21 182.88 19.23 185.57 17.32 Z"/>
  <path id="path19515" fill="#fff300" d="M 100.25 18.95 C 100.93 18.76 101.60 18.58 102.28 18.42 L 103.17 19.30 C 103.27 22.10 102.58 24.69 102.07 27.40 L 102.87 27.80 C 103.84 28.25 104.80 28.73 105.74 29.24 C 107.94 31.23 111.80 33.90 112.67 36.69 C 108.45 38.19 104.99 38.40 100.96 36.25 C 97.15 34.79 97.02 31.28 97.70 27.76 L 97.78 27.35 C 99.37 26.55 100.35 25.46 100.08 23.59 L 99.99 22.36 C 99.35 21.45 98.71 20.55 98.07 19.65 C 98.79 19.41 99.52 19.17 100.25 18.95 Z"/>
  <path id="path19517" fill="#90b683" d="M 103.17 19.30 L 104.05 20.22 C 103.79 22.74 103.30 25.29 102.87 27.80 L 102.07 27.40 C 102.58 24.69 103.27 22.10 103.17 19.30 Z"/>
  <path id="path19519" fill="#c3c821" d="M 96.96 23.20 L 96.95 23.88 C 95.87 24.14 94.62 24.30 93.54 23.98 L 93.77 23.34 C 94.96 22.08 95.83 21.50 96.96 23.20 Z"/>
  <path id="path19521" fill="#7bada7" d="M 93.54 23.98 C 94.62 24.30 95.87 24.14 96.95 23.88 L 96.94 24.38 C 96.22 25.28 94.50 27.01 93.34 25.91 C 93.16 25.31 93.23 24.67 93.54 23.98 Z"/>
  <path id="path19523" fill="#85b5a4" d="M 100.08 23.59 C 100.35 25.46 99.37 26.55 97.78 27.35 C 98.00 25.50 98.57 24.65 100.08 23.59 Z"/>
  <path id="path19525" fill="#6a0039" d="M 97.70 27.76 C 97.02 31.28 97.15 34.79 100.96 36.25 C 104.99 38.40 108.45 38.19 112.67 36.69 C 111.80 33.90 107.94 31.23 105.74 29.24 C 108.15 30.83 110.29 32.86 112.40 34.82 C 112.94 35.35 113.94 36.29 113.30 37.09 C 111.61 37.59 109.84 37.75 108.13 38.20 C 107.91 39.15 107.70 40.10 107.51 41.06 C 106.49 42.61 105.32 43.80 105.11 45.73 C 106.67 45.63 108.21 45.38 109.75 45.14 C 110.49 45.73 111.22 46.32 111.96 46.91 C 112.80 46.69 113.64 46.47 114.49 46.25 C 114.95 46.84 115.42 47.44 115.89 48.03 C 118.63 48.29 122.71 47.21 124.36 50.00 C 125.07 52.28 123.64 53.15 122.51 54.84 C 118.68 54.78 114.85 54.77 111.01 54.81 C 110.10 53.70 109.20 52.59 108.31 51.47 C 111.01 52.56 113.67 53.77 116.42 54.74 C 114.15 52.73 111.71 50.31 108.90 49.06 C 107.09 48.25 104.61 49.07 102.72 49.30 C 104.86 51.17 107.01 53.07 109.28 54.78 C 106.71 54.76 104.13 54.76 101.55 54.69 C 99.79 52.46 97.91 49.90 95.24 48.71 C 93.55 48.11 91.41 48.63 89.66 48.76 C 91.59 50.81 93.51 52.79 95.91 54.30 C 96.60 54.08 97.29 53.86 97.98 53.62 C 98.71 53.97 99.44 54.31 100.18 54.65 C 93.27 54.81 86.37 54.70 79.47 54.77 C 78.16 53.13 76.79 52.30 77.69 49.96 C 78.83 47.19 83.85 48.34 86.23 48.05 C 86.63 47.34 87.04 46.63 87.44 45.91 C 88.27 46.53 89.11 47.14 89.94 47.76 C 90.86 46.92 91.78 46.07 92.70 45.23 C 94.07 45.89 95.43 46.55 96.80 47.21 C 97.02 46.41 97.24 45.61 97.46 44.80 C 99.34 45.80 100.86 45.64 102.89 45.47 C 103.47 43.83 104.05 42.20 104.65 40.57 C 103.86 41.02 103.06 41.47 102.26 41.91 C 100.71 41.17 99.21 40.32 97.68 39.54 C 97.39 38.96 97.11 38.39 96.83 37.81 C 95.17 37.40 93.57 37.46 91.88 37.60 C 95.61 36.48 98.40 37.98 101.81 39.18 C 100.28 36.89 98.04 34.68 97.13 32.06 C 97.16 30.60 97.43 29.19 97.70 27.76 Z"/>
  <path id="path19527" fill="#ada102" d="M 174.90 28.15 C 176.10 28.27 177.30 28.38 178.50 28.50 C 179.04 29.78 179.58 31.05 180.08 32.35 C 180.52 39.90 179.80 47.46 180.45 54.98 C 179.12 55.17 177.78 55.35 176.45 55.59 C 175.91 56.41 175.40 57.26 174.91 58.12 C 174.90 48.13 174.90 38.14 174.90 28.15 Z"/>
  <path id="path19529" fill="#a7ae20" d="M 99.83 28.52 C 101.06 30.11 102.05 31.98 103.45 33.42 C 105.05 34.34 106.81 35.00 108.51 35.70 C 107.02 35.88 105.53 36.06 104.04 36.25 C 101.53 33.88 100.04 32.15 99.83 28.52 Z"/>
  <path id="path19531" fill="#776c02" d="M 20.18 30.77 C 20.85 38.46 20.98 46.16 21.14 53.86 C 21.66 51.81 22.20 49.76 22.76 47.72 C 23.70 49.53 24.66 51.31 25.48 53.17 C 25.57 61.17 25.45 69.18 25.50 77.18 C 24.65 76.10 23.80 75.01 22.95 73.92 C 22.34 75.31 21.73 76.69 21.12 78.07 C 20.55 71.30 20.79 64.51 20.10 57.74 C 19.96 48.75 19.96 39.76 20.18 30.77 Z"/>
  <path id="path19533" fill="#ddd103" d="M 185.58 31.32 C 185.62 36.02 185.62 40.72 185.60 45.43 C 184.08 46.47 182.56 47.52 181.03 48.57 C 180.93 44.79 180.84 40.99 180.89 37.21 C 181.99 34.58 183.34 33.05 185.58 31.32 Z"/>
  <path id="path19535" fill="#fff303" d="M 91.88 37.60 C 93.57 37.46 95.17 37.40 96.83 37.81 C 97.11 38.39 97.39 38.96 97.68 39.54 C 97.19 40.26 96.68 40.96 96.14 41.65 C 94.54 41.77 92.95 41.90 91.33 41.82 C 90.89 40.92 90.48 40.01 90.09 39.09 L 91.88 37.60 Z"/>
  <path id="path19537" fill="#8fbb9c" d="M 90.09 39.09 C 90.48 40.01 90.89 40.92 91.33 41.82 C 92.95 41.90 94.54 41.77 96.14 41.65 C 94.42 42.47 93.15 43.54 91.23 42.41 C 89.41 41.95 90.23 40.52 90.09 39.09 Z"/>
  <path id="path19539" fill="#8cd4f6" d="M 95.24 48.71 C 97.91 49.90 99.79 52.46 101.55 54.69 L 100.18 54.65 C 99.44 54.31 98.71 53.97 97.98 53.62 C 97.29 53.86 96.60 54.08 95.91 54.30 C 93.51 52.79 91.59 50.81 89.66 48.76 C 91.41 48.63 93.55 48.11 95.24 48.71 Z"/>
  <path id="path19541" fill="#88c1e5" d="M 82.90 48.98 C 85.11 50.21 87.29 52.07 88.54 54.28 C 86.83 53.93 85.40 53.12 83.89 52.30 C 83.19 52.91 82.49 53.53 81.74 54.07 C 80.16 52.07 79.98 49.53 82.90 48.98 Z"/>
  <path id="path19543" fill="#8cd4f6" d="M 108.90 49.06 C 111.71 50.31 114.15 52.73 116.42 54.74 C 113.67 53.77 111.01 52.56 108.31 51.47 C 109.20 52.59 110.10 53.70 111.01 54.81 L 109.28 54.78 C 107.01 53.07 104.86 51.17 102.72 49.30 C 104.61 49.07 107.09 48.25 108.90 49.06 Z"/>
  <path id="path19545" fill="#785584" d="M 119.24 49.08 C 120.75 47.96 122.54 50.33 121.50 51.68 C 120.03 52.79 118.16 50.42 119.24 49.08 Z"/>
  <path id="path19547" fill="#ffb71d" d="M 61.62 54.72 C 67.57 54.75 73.52 54.74 79.47 54.77 C 86.37 54.70 93.27 54.81 100.18 54.65 L 101.55 54.69 C 104.13 54.76 106.71 54.76 109.28 54.78 L 111.01 54.81 C 114.85 54.77 118.68 54.78 122.51 54.84 C 128.63 54.86 134.75 54.85 140.87 54.87 C 140.85 71.58 140.76 88.29 140.44 105.00 C 140.32 109.41 140.36 113.88 139.28 118.18 C 137.75 124.17 134.37 129.66 130.04 134.04 C 123.62 140.56 115.05 145.21 106.51 148.34 C 103.90 149.16 101.54 150.35 98.80 149.42 C 88.97 146.39 79.33 141.30 71.99 134.01 C 65.58 127.60 61.73 119.11 61.53 110.01 C 61.26 91.59 61.55 73.14 61.62 54.72 Z"/>
  <path id="path19549" fill="#c2b603" d="M 176.45 55.59 C 177.78 55.35 179.12 55.17 180.45 54.98 C 180.69 57.17 181.02 59.36 181.33 61.55 C 182.76 60.95 184.19 60.34 185.62 59.74 C 185.62 63.74 185.62 67.75 185.62 71.76 C 184.16 72.63 182.71 73.49 181.25 74.36 C 180.84 78.31 180.62 82.24 180.64 86.21 C 180.65 90.37 180.57 94.50 180.79 98.65 C 180.86 102.16 180.66 105.65 180.26 109.14 C 180.20 106.93 180.04 104.74 179.96 102.53 C 180.39 94.71 180.08 86.91 179.74 79.10 C 177.98 81.68 176.27 84.26 174.90 87.08 C 174.93 77.43 174.86 67.77 174.91 58.12 C 175.40 57.26 175.91 56.41 176.45 55.59 Z"/>
  <path id="path19551" fill="#000426" d="M 64.09 57.51 C 67.37 57.22 70.71 57.38 74.00 57.36 C 95.37 57.38 116.75 57.35 138.12 57.38 C 138.12 64.58 138.14 71.79 138.11 79.00 C 113.44 79.08 88.71 78.85 64.04 79.08 C 63.94 71.91 63.65 64.66 64.09 57.51 Z"/>
  <path id="path19553" fill="#8b8002" d="M 20.10 57.74 C 20.79 64.51 20.55 71.30 21.12 78.07 C 21.73 76.69 22.34 75.31 22.95 73.92 C 23.80 75.01 24.65 76.10 25.50 77.18 C 25.51 84.72 25.50 92.26 25.49 99.79 C 24.52 99.61 23.54 99.42 22.56 99.24 C 22.10 100.51 21.64 101.78 21.18 103.05 C 20.88 97.61 20.57 92.19 20.13 86.76 C 19.89 77.11 19.93 67.40 20.10 57.74 Z"/>
  <path id="path19555" fill="#fff303" d="M 74.37 59.48 C 75.21 60.26 76.05 61.03 76.89 61.82 C 77.61 61.06 78.33 60.30 79.05 59.54 C 79.66 60.48 80.27 61.42 80.88 62.35 C 81.70 61.46 82.52 60.56 83.35 59.67 C 82.69 61.11 82.01 62.53 81.31 63.94 C 84.03 63.71 86.73 63.60 89.45 63.76 C 88.31 64.87 87.14 65.96 85.96 67.03 C 86.91 67.91 87.87 68.79 88.81 69.68 C 85.50 70.80 82.47 70.39 79.15 69.57 C 75.55 70.52 72.12 70.96 68.39 70.60 C 69.57 69.40 70.80 68.24 72.04 67.09 C 70.89 66.02 69.76 64.92 68.65 63.81 C 71.27 63.53 73.88 63.59 76.51 63.73 C 75.78 62.32 75.07 60.90 74.37 59.48 Z"/>
  <path id="path19557" fill="#fff702" d="M 101.57 60.18 C 102.18 60.65 102.78 61.13 103.37 61.61 C 103.42 62.90 103.47 64.19 103.51 65.47 L 101.40 65.75 C 101.27 64.26 101.12 62.76 100.95 61.26 C 100.73 62.80 100.51 64.35 100.30 65.89 C 99.55 65.71 98.80 65.53 98.05 65.36 L 98.11 67.12 C 100.05 67.23 101.98 67.37 103.91 67.61 C 104.27 66.54 104.64 65.48 105.02 64.43 C 105.39 66.32 105.87 68.06 105.59 70.00 C 104.78 71.92 103.65 73.68 102.86 75.61 C 101.69 75.72 100.53 75.83 99.37 75.94 C 96.69 71.66 97.02 67.65 97.41 62.82 C 98.26 62.20 99.11 61.58 99.98 60.98 C 100.50 60.70 101.03 60.44 101.57 60.18 Z"/>
  <path id="path19559" fill="#fff303" d="M 121.86 61.96 C 122.53 61.15 123.21 60.34 123.90 59.53 C 124.56 60.42 125.21 61.32 125.87 62.21 C 126.66 61.38 127.46 60.55 128.26 59.72 C 127.61 61.13 126.92 62.52 126.23 63.91 C 128.92 63.71 131.60 63.62 134.29 63.76 C 133.22 64.83 132.12 65.89 131.01 66.93 C 131.93 68.02 132.83 69.11 133.72 70.22 C 130.11 70.57 126.77 70.16 123.27 69.35 L 122.75 71.30 C 124.02 70.91 125.28 70.52 126.55 70.13 C 127.20 71.86 127.86 73.59 128.46 75.33 C 127.50 74.10 126.57 72.84 125.65 71.57 C 125.13 74.42 125.87 74.79 123.18 75.91 L 121.77 73.40 C 120.69 73.89 119.62 74.41 118.56 74.97 C 119.64 73.42 120.73 71.87 121.81 70.33 C 119.02 70.58 116.22 70.78 113.41 70.69 C 114.51 69.42 115.70 68.24 116.93 67.08 C 115.80 66.01 114.69 64.92 113.59 63.81 C 116.18 63.54 118.75 63.58 121.34 63.69 C 120.69 62.34 120.05 60.99 119.41 59.63 C 120.23 60.40 121.05 61.18 121.86 61.96 Z"/>
  <path id="path19561" fill="#050528" d="M 78.03 61.93 L 78.74 61.50 L 79.52 61.89 L 79.58 62.72 L 78.85 63.14 L 78.09 62.75 L 78.03 61.93 Z"/>
  <path id="path19563" fill="#0f0f27" d="M 122.87 61.94 L 123.63 61.53 L 124.40 61.94 L 124.42 62.75 L 123.66 63.14 L 122.89 62.75 L 122.87 61.94 Z"/>
  <path id="path19565" fill="#6a6618" d="M 101.99 68.03 C 102.69 69.20 100.92 70.49 99.95 70.84 C 99.82 69.61 100.35 67.47 101.99 68.03 Z"/>
  <path id="path19567" fill="#969011" d="M 75.99 70.44 C 78.11 70.57 80.23 70.68 82.35 70.81 C 82.83 72.29 83.31 73.77 83.79 75.25 C 82.99 74.59 82.20 73.92 81.41 73.25 C 80.60 74.39 79.79 75.52 78.97 76.65 C 78.14 75.63 77.32 74.60 76.50 73.56 C 78.10 73.16 79.69 72.75 81.28 72.33 C 80.08 72.22 78.89 72.11 77.69 72.01 C 76.42 73.21 75.15 74.39 73.84 75.55 C 74.53 73.83 75.26 72.13 75.99 70.44 Z"/>
  <path id="path19569" fill="#030427" d="M 122.01 72.33 C 122.95 71.94 123.89 71.95 124.82 72.36 C 124.64 73.95 122.31 73.76 122.01 72.33 Z"/>
  <path id="path19571" fill="#afa303" d="M 185.62 71.76 C 185.61 76.58 185.61 81.41 185.60 86.23 C 184.61 86.58 183.62 86.94 182.61 87.25 C 181.95 86.91 181.29 86.57 180.64 86.21 C 180.62 82.24 180.84 78.31 181.25 74.36 C 182.71 73.49 184.16 72.63 185.62 71.76 Z"/>
  <path id="path19573" fill="#fff203" d="M 64.04 79.08 C 88.71 78.85 113.44 79.08 138.11 79.00 C 137.82 91.40 138.59 103.91 137.66 116.28 L 135.44 116.24 C 135.44 114.31 135.44 112.38 135.44 110.45 C 133.68 110.45 131.91 110.46 130.15 110.46 C 130.08 108.89 130.02 107.31 129.95 105.74 C 128.25 105.74 126.55 105.73 124.86 105.73 C 124.86 103.88 124.86 102.03 124.86 100.18 C 123.35 100.18 121.83 100.19 120.32 100.19 C 120.31 98.51 120.30 96.83 120.29 95.15 C 118.67 95.16 117.05 95.17 115.43 95.17 C 115.44 93.75 115.45 92.33 115.47 90.91 C 113.70 90.87 111.93 90.83 110.16 90.79 C 110.15 88.97 110.15 87.15 110.15 85.33 C 108.32 85.32 106.49 85.31 104.66 85.30 C 103.55 83.89 102.43 82.48 101.26 81.12 C 100.30 82.50 99.40 83.91 98.49 85.32 C 96.55 85.31 94.62 85.30 92.69 85.29 C 92.69 87.07 92.69 88.85 92.70 90.62 C 90.65 90.61 88.60 90.60 86.55 90.59 C 86.55 92.23 86.55 93.87 86.54 95.51 C 84.77 95.51 83.00 95.50 81.23 95.49 C 81.23 97.13 81.23 98.77 81.22 100.41 C 79.41 100.39 77.60 100.38 75.79 100.36 C 75.76 102.16 75.74 103.96 75.72 105.77 C 73.94 105.76 72.17 105.75 70.40 105.74 C 70.40 107.28 70.40 108.81 70.39 110.35 C 69.14 110.34 67.89 110.34 66.65 110.33 C 66.65 111.93 66.65 113.52 66.65 115.12 L 64.54 115.33 C 63.56 103.32 64.29 91.14 64.04 79.08 Z"/>
  <path id="path19575" fill="#dbce02" d="M 179.74 79.10 C 180.08 86.91 180.39 94.71 179.96 102.53 C 179.32 104.64 178.57 106.72 177.84 108.80 C 176.83 108.58 175.81 108.37 174.80 108.16 C 175.07 101.14 174.79 94.10 174.90 87.08 C 176.27 84.26 177.98 81.68 179.74 79.10 Z"/>
  <path id="path19577" fill="#6a003a" d="M 101.26 81.12 C 102.43 82.48 103.55 83.89 104.66 85.30 C 106.49 85.31 108.32 85.32 110.15 85.33 C 110.15 87.15 110.15 88.97 110.16 90.79 C 111.93 90.83 113.70 90.87 115.47 90.91 C 115.45 92.33 115.44 93.75 115.43 95.17 C 117.05 95.17 118.67 95.16 120.29 95.15 C 120.30 96.83 120.31 98.51 120.32 100.19 C 121.83 100.19 123.35 100.18 124.86 100.18 C 124.86 102.03 124.86 103.88 124.86 105.73 C 126.55 105.73 128.25 105.74 129.95 105.74 C 130.02 107.31 130.08 108.89 130.15 110.46 C 131.91 110.46 133.68 110.45 135.44 110.45 C 135.44 112.38 135.44 114.31 135.44 116.24 L 137.66 116.28 C 137.02 118.61 136.14 120.87 135.27 123.12 C 133.86 123.13 132.44 123.14 131.03 123.15 C 130.97 121.15 130.93 119.14 130.88 117.14 C 128.75 117.15 126.62 117.15 124.49 117.16 C 124.48 115.30 124.46 113.45 124.45 111.59 C 122.69 111.61 120.92 111.63 119.16 111.64 C 119.12 109.95 119.08 108.26 119.04 106.57 C 117.30 106.57 115.56 106.57 113.81 106.57 C 113.82 104.86 113.82 103.15 113.83 101.44 C 112.15 101.44 110.48 101.44 108.80 101.43 C 108.80 99.66 108.80 97.90 108.80 96.13 C 107.24 96.13 105.67 96.14 104.11 96.15 C 104.01 94.38 103.92 92.62 103.83 90.86 C 101.92 90.86 100.02 90.86 98.12 90.86 C 98.11 92.51 98.09 94.16 98.08 95.81 C 96.27 95.88 94.46 95.94 92.65 96.02 C 92.66 97.79 92.67 99.56 92.68 101.33 C 90.83 101.32 88.98 101.32 87.14 101.31 C 87.14 103.03 87.14 104.75 87.15 106.47 C 85.41 106.48 83.66 106.48 81.92 106.49 C 81.89 108.27 81.86 110.06 81.83 111.85 C 79.97 111.83 78.11 111.82 76.26 111.81 C 76.24 113.62 76.23 115.44 76.21 117.25 C 74.54 117.25 72.88 117.24 71.21 117.24 C 71.22 118.98 71.22 120.73 71.22 122.47 C 69.75 122.48 68.28 122.49 66.81 122.51 C 65.86 120.18 65.09 117.78 64.54 115.33 L 66.65 115.12 C 66.65 113.52 66.65 111.93 66.65 110.33 C 67.89 110.34 69.14 110.34 70.39 110.35 C 70.40 108.81 70.40 107.28 70.40 105.74 C 72.17 105.75 73.94 105.76 75.72 105.77 C 75.74 103.96 75.76 102.16 75.79 100.36 C 77.60 100.38 79.41 100.39 81.22 100.41 C 81.23 98.77 81.23 97.13 81.23 95.49 C 83.00 95.50 84.77 95.51 86.54 95.51 C 86.55 93.87 86.55 92.23 86.55 90.59 C 88.60 90.60 90.65 90.61 92.70 90.62 C 92.69 88.85 92.69 87.07 92.69 85.29 C 94.62 85.30 96.55 85.31 98.49 85.32 C 99.40 83.91 100.30 82.50 101.26 81.12 Z"/>
  <path id="path19579" fill="#000426" d="M 73.29 82.70 C 74.75 84.68 76.00 86.86 77.28 88.96 C 75.98 91.40 74.68 93.84 73.33 96.25 C 72.02 93.84 70.72 91.42 69.42 89.00 C 70.69 86.86 71.88 84.75 73.29 82.70 Z"/>
  <path id="path19581" fill="#000426" d="M 130.05 82.08 C 131.27 84.21 133.03 86.38 133.67 88.77 C 132.77 91.26 131.33 93.59 130.10 95.94 C 128.80 93.52 127.50 91.10 126.20 88.69 C 126.98 87.33 127.76 85.97 128.56 84.61 C 129.06 83.77 129.55 82.92 130.05 82.08 Z"/>
  <path id="path19583" fill="#9f9303" d="M 180.64 86.21 C 181.29 86.57 181.95 86.91 182.61 87.25 C 183.62 86.94 184.61 86.58 185.60 86.23 C 185.59 90.82 185.59 95.40 185.60 99.99 C 184.54 100.54 183.48 101.09 182.42 101.64 C 181.87 100.65 181.32 99.65 180.79 98.65 C 180.57 94.50 180.65 90.37 180.64 86.21 Z"/>
  <path id="path19585" fill="#a09403" d="M 20.13 86.76 C 20.57 92.19 20.88 97.61 21.18 103.05 C 21.64 101.78 22.10 100.51 22.56 99.24 C 23.54 99.42 24.52 99.61 25.49 99.79 C 25.36 106.50 25.93 113.06 27.59 119.57 C 26.28 121.81 25.00 124.07 23.76 126.34 C 22.97 123.68 22.27 121.00 21.66 118.30 C 19.27 108.32 20.14 97.01 20.13 86.76 Z"/>
  <path id="path19587" fill="#fff203" d="M 98.12 90.86 C 100.02 90.86 101.92 90.86 103.83 90.86 C 103.92 92.62 104.01 94.38 104.11 96.15 C 105.67 96.14 107.24 96.13 108.80 96.13 C 108.80 97.90 108.80 99.66 108.80 101.43 C 110.48 101.44 112.15 101.44 113.83 101.44 C 113.82 103.15 113.82 104.86 113.81 106.57 C 115.56 106.57 117.30 106.57 119.04 106.57 C 119.08 108.26 119.12 109.95 119.16 111.64 C 120.92 111.63 122.69 111.61 124.45 111.59 C 124.46 113.45 124.48 115.30 124.49 117.16 C 126.62 117.15 128.75 117.15 130.88 117.14 C 130.93 119.14 130.97 121.15 131.03 123.15 C 132.34 123.43 133.65 123.71 134.96 123.99 C 129.33 133.24 120.64 139.54 110.91 143.94 C 108.91 144.58 107.92 145.58 106.23 143.70 L 106.86 142.34 C 107.69 140.48 108.45 138.59 109.28 136.73 C 108.46 135.90 107.65 135.06 106.83 134.23 C 108.26 132.69 110.65 131.45 111.54 129.59 C 112.27 126.47 109.39 122.83 108.36 119.95 C 109.47 117.25 109.98 114.09 112.69 112.52 L 115.08 113.61 C 114.30 114.58 113.53 115.56 112.75 116.53 C 112.66 117.70 112.55 118.87 112.43 120.04 C 112.92 120.37 113.41 120.69 113.90 121.02 C 115.07 117.47 116.51 114.77 114.50 111.16 C 113.10 111.69 111.30 112.08 110.49 113.46 C 109.03 115.87 108.28 118.77 107.28 121.40 C 107.70 121.81 108.13 122.23 108.56 122.64 L 107.30 123.05 C 107.47 124.10 107.63 125.16 107.79 126.22 C 108.80 126.24 109.82 126.26 110.84 126.27 C 110.79 129.28 111.02 129.64 108.30 131.31 C 106.98 129.23 105.18 127.21 104.30 124.89 C 104.12 123.18 104.31 121.40 104.39 119.69 C 103.39 119.55 102.40 119.41 101.40 119.26 C 100.94 119.31 100.49 119.36 100.03 119.43 C 98.90 118.66 97.76 117.90 96.61 117.15 C 96.53 118.02 96.46 118.89 96.38 119.76 C 93.17 122.41 90.87 122.35 86.84 122.35 C 87.73 123.41 88.63 124.46 89.52 125.52 C 93.43 125.41 95.83 125.27 98.75 122.41 C 97.36 125.88 99.09 125.42 101.12 127.24 C 101.38 127.75 101.63 128.25 101.89 128.76 C 101.62 130.18 101.45 131.60 101.35 133.02 C 102.62 134.68 104.72 136.02 105.53 137.95 C 105.61 139.49 104.98 141.10 104.60 142.59 C 103.05 142.24 101.51 141.90 99.96 141.56 C 100.16 142.72 100.36 143.87 100.54 145.03 C 101.24 145.25 101.95 145.47 102.66 145.68 L 104.24 145.60 C 102.79 146.49 101.87 147.57 100.02 147.07 C 95.99 146.23 92.11 144.35 88.42 142.57 C 79.49 138.03 71.25 131.72 66.81 122.51 C 68.28 122.49 69.75 122.48 71.22 122.47 C 71.22 120.73 71.22 118.98 71.21 117.24 C 72.88 117.24 74.54 117.25 76.21 117.25 C 76.23 115.44 76.24 113.62 76.26 111.81 C 78.11 111.82 79.97 111.83 81.83 111.85 C 81.86 110.06 81.89 108.27 81.92 106.49 C 83.66 106.48 85.41 106.48 87.15 106.47 C 87.14 104.75 87.14 103.03 87.14 101.31 C 88.98 101.32 90.83 101.32 92.68 101.33 C 92.67 99.56 92.66 97.79 92.65 96.02 C 94.46 95.94 96.27 95.88 98.08 95.81 C 98.09 94.16 98.11 92.51 98.12 90.86 Z"/>
  <path id="path19589" fill="#8d8102" d="M 180.79 98.65 C 181.32 99.65 181.87 100.65 182.42 101.64 C 183.48 101.09 184.54 100.54 185.60 99.99 C 185.66 105.27 185.74 110.45 184.58 115.64 C 183.21 115.60 181.81 115.54 180.44 115.59 C 179.88 116.39 179.34 117.20 178.83 118.04 C 179.44 115.10 179.95 112.13 180.26 109.14 C 180.66 105.65 180.86 102.16 180.79 98.65 Z"/>
  <path id="path19591" fill="#eeaf2d" d="M 43.19 102.63 C 45.84 102.33 48.67 105.04 49.69 107.30 C 50.36 110.56 49.67 114.20 49.63 117.54 C 52.90 118.46 56.93 119.00 58.82 122.21 C 59.71 124.91 58.90 128.31 58.72 131.10 C 62.49 132.94 66.13 134.97 69.38 137.67 C 75.45 142.65 81.95 147.40 88.85 151.17 C 93.63 153.66 99.03 155.95 104.53 154.81 C 109.54 153.75 114.37 151.33 118.82 148.85 C 127.55 144.06 134.29 136.78 142.86 131.70 C 142.52 128.95 141.96 125.98 142.35 123.23 C 143.92 119.45 148.42 118.82 151.90 117.87 C 151.89 114.54 151.55 111.23 151.36 107.91 C 152.70 105.50 155.08 103.10 157.96 102.83 C 160.72 103.66 163.38 106.03 163.79 108.99 C 164.27 112.26 164.54 115.70 164.59 119.01 C 164.76 123.49 161.83 126.70 162.47 131.21 C 162.90 135.59 162.18 139.91 159.42 143.44 C 155.79 145.10 151.67 144.90 148.12 147.11 C 141.49 151.06 135.24 156.39 129.36 161.34 C 123.55 166.18 116.52 168.84 109.12 170.08 C 104.39 170.42 99.60 170.45 94.87 170.14 C 88.18 168.95 81.86 166.41 76.02 162.98 C 67.51 158.22 60.97 151.17 52.17 146.80 C 48.61 144.76 44.45 144.08 40.93 142.07 C 38.01 138.10 37.76 131.83 38.77 127.15 C 36.01 120.76 36.86 114.44 37.81 107.77 C 38.34 105.59 41.01 103.11 43.19 102.63 Z"/>
  <path id="path19593" fill="#ede003" d="M 179.96 102.53 C 180.04 104.74 180.20 106.93 180.26 109.14 C 179.95 112.13 179.44 115.10 178.83 118.04 C 178.06 121.08 177.25 124.11 176.24 127.07 L 175.95 125.68 C 174.18 125.87 172.41 126.15 170.65 126.41 C 172.60 120.50 174.21 114.36 174.80 108.16 C 175.81 108.37 176.83 108.58 177.84 108.80 C 178.57 106.72 179.32 104.64 179.96 102.53 Z"/>
  <path id="path19595" fill="#000426" d="M 43.10 103.94 C 47.05 103.97 48.57 107.35 49.25 110.73 C 45.21 111.43 43.46 112.31 40.54 115.20 C 37.31 111.17 38.38 106.05 43.10 103.94 Z"/>
  <path id="path19597" fill="#000426" d="M 159.82 105.14 C 162.94 107.26 162.58 110.18 163.01 113.53 C 162.20 113.96 161.38 114.37 160.55 114.75 C 157.81 112.89 155.50 111.61 152.18 110.99 C 152.72 109.44 153.05 107.43 154.16 106.18 C 155.84 104.67 157.80 103.24 159.82 105.14 Z"/>
  <path id="path19599" fill="#000028" d="M 95.40 106.59 C 95.74 109.97 95.68 113.44 95.65 116.84 L 96.75 116.61 C 96.09 117.59 95.43 118.57 94.76 119.54 C 91.98 116.20 93.82 112.27 91.11 109.26 C 91.40 108.46 91.70 107.68 92.01 106.89 C 93.61 106.02 93.75 105.04 95.40 106.59 Z"/>
  <path id="path19601" fill="#000326" d="M 104.18 106.30 C 105.34 105.72 106.51 105.16 107.67 104.60 C 109.53 109.03 107.55 112.45 106.29 116.68 C 105.70 116.40 105.11 116.13 104.52 115.85 C 102.44 115.36 100.42 114.66 98.39 113.98 C 100.46 112.45 102.66 111.37 105.04 110.43 L 102.65 110.83 C 102.66 107.83 101.65 108.56 99.32 107.52 C 100.94 107.11 102.57 106.72 104.18 106.30 Z"/>
  <path id="path19603" fill="#c2cda1" d="M 151.36 107.91 C 151.55 111.23 151.89 114.54 151.90 117.87 C 151.43 114.50 150.95 111.32 151.36 107.91 Z"/>
  <path id="path19605" fill="#000326" d="M 114.50 111.16 C 116.51 114.77 115.07 117.47 113.90 121.02 C 113.41 120.69 112.92 120.37 112.43 120.04 C 112.55 118.87 112.66 117.70 112.75 116.53 C 113.53 115.56 114.30 114.58 115.08 113.61 L 112.69 112.52 C 109.98 114.09 109.47 117.25 108.36 119.95 C 109.39 122.83 112.27 126.47 111.54 129.59 C 110.65 131.45 108.26 132.69 106.83 134.23 C 107.65 135.06 108.46 135.90 109.28 136.73 C 108.45 138.59 107.69 140.48 106.86 142.34 L 106.23 143.70 C 106.10 143.97 105.97 144.25 105.84 144.53 C 105.31 144.89 104.77 145.24 104.24 145.60 L 102.66 145.68 C 101.95 145.47 101.24 145.25 100.54 145.03 C 100.36 143.87 100.16 142.72 99.96 141.56 C 101.51 141.90 103.05 142.24 104.60 142.59 C 104.98 141.10 105.61 139.49 105.53 137.95 C 104.72 136.02 102.62 134.68 101.35 133.02 C 101.45 131.60 101.62 130.18 101.89 128.76 C 101.63 128.25 101.38 127.75 101.12 127.24 C 99.09 125.42 97.36 125.88 98.75 122.41 C 95.83 125.27 93.43 125.41 89.52 125.52 C 88.63 124.46 87.73 123.41 86.84 122.35 C 90.87 122.35 93.17 122.41 96.38 119.76 C 96.46 118.89 96.53 118.02 96.61 117.15 C 97.76 117.90 98.90 118.66 100.03 119.43 C 100.49 119.36 100.94 119.31 101.40 119.26 C 102.40 119.41 103.39 119.55 104.39 119.69 C 104.31 121.40 104.12 123.18 104.30 124.89 C 105.18 127.21 106.98 129.23 108.30 131.31 C 111.02 129.64 110.79 129.28 110.84 126.27 C 109.82 126.26 108.80 126.24 107.79 126.22 C 107.63 125.16 107.47 124.10 107.30 123.05 L 108.56 122.64 C 108.13 122.23 107.70 121.81 107.28 121.40 C 108.28 118.77 109.03 115.87 110.49 113.46 C 111.30 112.08 113.10 111.69 114.50 111.16 Z"/>
  <path id="path19607" fill="#000326" d="M 48.18 112.00 C 48.25 113.86 48.31 115.73 48.36 117.59 C 46.19 117.03 44.03 116.45 41.89 115.81 C 43.88 114.00 45.66 112.97 48.18 112.00 Z"/>
  <path id="path19609" fill="#000126" d="M 153.31 112.48 C 155.82 113.34 157.58 114.32 159.63 116.05 C 157.51 116.72 155.38 117.35 153.24 117.96 C 153.25 116.13 153.27 114.31 153.31 112.48 Z"/>
  <path id="path19611" fill="#302f20" d="M 95.79 114.24 C 96.97 114.70 98.15 115.17 99.32 115.64 L 100.73 116.20 C 101.76 116.37 102.80 116.51 103.84 116.64 C 104.53 117.10 105.21 117.58 105.90 118.05 C 104.00 118.31 102.09 118.55 100.18 118.76 C 98.70 117.28 97.22 115.79 95.79 114.24 Z"/>
  <path id="path19613" fill="#000426" d="M 163.29 114.95 C 163.54 119.82 162.99 123.25 161.13 127.72 C 155.09 127.62 149.52 128.38 143.98 130.89 C 143.79 128.36 143.26 125.56 143.79 123.05 C 146.59 119.39 151.67 119.66 155.75 118.63 C 158.64 118.11 160.90 116.56 163.29 114.95 Z"/>
  <path id="path19615" fill="#7c7002" d="M 180.44 115.59 C 181.81 115.54 183.21 115.60 184.58 115.64 C 183.24 122.75 181.12 129.68 178.33 136.36 C 177.08 136.63 175.86 136.97 174.60 137.20 C 173.98 136.82 173.34 136.51 172.67 136.27 C 173.98 133.25 175.23 130.20 176.24 127.07 C 177.25 124.11 178.06 121.08 178.83 118.04 C 179.34 117.20 179.88 116.39 180.44 115.59 Z"/>
  <path id="path19617" fill="#000426" d="M 38.09 114.61 C 39.18 115.37 40.26 116.11 41.36 116.85 C 47.09 119.61 52.90 118.27 58.02 122.69 C 57.88 125.31 57.73 127.93 57.53 130.54 C 51.75 128.51 45.93 127.21 39.87 126.34 C 38.33 122.18 37.86 119.06 38.09 114.61 Z"/>
  <path id="path19619" fill="#b3a703" d="M 27.59 119.57 C 29.14 125.51 31.36 131.29 34.20 136.73 C 32.70 137.90 31.24 139.12 29.79 140.34 C 28.66 138.04 27.57 135.72 26.46 133.40 C 25.43 131.10 24.52 128.75 23.76 126.34 C 25.00 124.07 26.28 121.81 27.59 119.57 Z"/>
  <path id="path19621" fill="#fff203" d="M 175.95 125.68 L 176.24 127.07 C 175.23 130.20 173.98 133.25 172.67 136.27 C 164.75 154.23 150.30 169.33 133.99 180.00 C 125.01 185.87 115.24 190.70 105.00 193.94 C 100.31 195.71 95.91 193.06 91.54 191.54 C 84.90 189.04 78.69 186.13 72.53 182.61 L 71.72 182.16 C 72.94 180.56 74.16 178.95 75.38 177.35 C 82.33 181.24 89.68 184.32 97.25 186.76 C 99.26 187.37 101.14 187.96 103.25 187.37 C 109.49 185.78 115.52 183.14 121.26 180.25 C 143.61 168.80 162.36 150.50 170.65 126.41 C 172.41 126.15 174.18 125.87 175.95 125.68 Z"/>
  <path id="path19623" fill="#000426" d="M 40.12 128.04 C 46.63 128.37 53.18 130.32 59.17 132.83 C 66.45 135.93 70.95 141.14 77.48 145.52 C 83.56 149.73 90.63 154.54 97.97 156.03 C 102.48 157.09 106.91 155.75 111.07 154.06 C 117.80 151.21 124.14 147.40 129.81 142.79 C 134.89 138.68 140.40 134.04 146.39 131.37 C 151.07 129.29 155.81 129.09 160.84 129.12 C 161.81 134.40 161.04 137.91 158.68 142.59 C 154.57 143.46 150.78 143.90 147.13 146.13 C 140.55 150.19 134.82 154.95 128.98 159.95 C 120.96 166.78 110.38 169.58 100.00 169.30 C 88.30 168.91 77.12 163.02 67.98 156.06 C 60.99 150.49 54.12 145.43 45.51 142.61 C 43.96 141.92 41.69 141.71 41.07 139.92 C 39.63 136.35 38.64 131.73 40.12 128.04 Z"/>
  <path id="path19625" fill="#000326" d="M 100.33 128.00 C 100.48 129.51 100.59 131.01 100.68 132.52 C 99.56 132.54 98.44 132.59 97.32 132.65 C 97.47 133.68 97.64 134.71 97.84 135.73 L 96.26 136.34 L 96.81 137.51 C 95.26 138.37 93.72 139.26 92.17 140.14 C 91.54 139.66 90.91 139.18 90.28 138.70 C 90.34 138.14 90.40 137.58 90.46 137.02 C 91.67 136.72 93.79 136.94 94.37 135.63 C 94.78 133.54 94.66 131.32 95.21 129.27 C 95.90 127.33 98.72 128.32 100.33 128.00 Z"/>
  <path id="path19627" fill="#ede003" d="M 26.46 133.40 C 27.57 135.72 28.66 138.04 29.79 140.34 C 30.48 141.71 31.21 143.08 32.00 144.40 C 30.49 145.21 28.98 146.03 27.47 146.85 C 25.41 143.39 23.54 139.81 21.90 136.13 C 23.41 135.20 24.90 134.26 26.46 133.40 Z"/>
  <path id="path19629" fill="#7cbbdc" d="M 49.23 133.66 C 50.93 134.19 52.50 134.92 54.12 135.64 C 53.45 137.49 52.85 139.44 51.96 141.19 C 50.06 140.85 48.31 140.16 46.51 139.49 C 47.38 137.50 48.17 135.55 49.23 133.66 Z"/>
  <path id="path19631" fill="#80c0df" d="M 151.48 133.78 C 152.37 135.32 153.22 136.88 154.08 138.44 C 152.41 139.55 150.70 140.56 148.96 141.54 C 148.08 139.35 147.24 137.16 146.41 134.96 C 148.10 134.53 149.77 134.10 151.48 133.78 Z"/>
  <path id="path19633" fill="#4d7496" d="M 150.07 134.74 C 150.82 136.33 151.50 137.94 152.12 139.59 C 149.93 138.64 148.03 136.95 150.07 134.74 Z"/>
  <path id="path19635" fill="#2d4568" d="M 50.17 136.08 L 50.89 135.68 L 51.63 136.08 L 51.64 136.89 L 50.91 137.29 L 50.18 136.89 L 50.17 136.08 Z"/>
  <path id="path19637" fill="#83c4e3" d="M 56.81 136.55 C 56.19 138.47 55.52 140.36 55.00 142.31 C 56.85 140.85 58.02 138.92 59.36 137.02 C 60.68 139.69 58.93 141.95 57.08 143.76 C 54.96 143.09 52.49 142.87 53.30 139.96 C 54.24 138.25 54.16 135.02 56.81 136.55 Z"/>
  <path id="path19639" fill="#77b4d3" d="M 143.67 135.83 C 146.06 135.44 147.19 139.70 148.38 141.17 C 146.85 142.15 145.31 143.10 143.75 144.02 C 142.42 145.14 141.11 146.26 139.68 147.25 C 137.90 145.48 136.51 143.49 135.15 141.40 C 137.83 141.15 138.52 142.75 140.20 144.43 C 141.04 144.05 141.88 143.67 142.72 143.29 C 141.70 141.45 140.71 139.60 139.88 137.66 C 142.43 138.37 143.49 140.49 145.64 141.83 C 145.04 139.81 144.20 137.88 143.67 135.83 Z"/>
  <path id="path19641" fill="#655a02" d="M 172.67 136.27 C 173.34 136.51 173.98 136.82 174.60 137.20 C 175.86 136.97 177.08 136.63 178.33 136.36 C 168.51 159.21 150.62 177.08 129.05 189.07 C 120.50 193.76 111.20 198.12 101.58 200.00 L 100.55 200.00 C 96.29 198.83 92.09 197.41 87.95 195.86 C 88.98 194.26 90.19 192.88 91.54 191.54 C 95.91 193.06 100.31 195.71 105.00 193.94 C 115.24 190.70 125.01 185.87 133.99 180.00 C 150.30 169.33 164.75 154.23 172.67 136.27 Z"/>
  <path id="path19643" fill="#c2b603" d="M 34.20 136.73 C 36.28 140.50 38.48 144.17 41.03 147.65 C 39.72 148.90 38.47 150.21 37.26 151.55 C 35.44 149.21 33.62 146.89 32.00 144.40 C 31.21 143.08 30.48 141.71 29.79 140.34 C 31.24 139.12 32.70 137.90 34.20 136.73 Z"/>
  <path id="path19645" fill="#1a2a4c" d="M 49.35 138.14 L 50.08 137.74 L 50.82 138.14 L 50.84 138.95 L 50.12 139.35 L 49.37 138.95 L 49.35 138.14 Z"/>
  <path id="path19647" fill="#86c8ea" d="M 61.31 138.94 C 62.96 139.60 64.40 140.55 65.68 141.78 C 64.92 143.69 63.99 145.53 63.16 147.40 C 64.84 145.59 66.49 143.74 68.21 141.97 C 68.43 143.70 68.62 145.44 68.77 147.19 C 69.34 146.44 69.91 145.69 70.48 144.94 C 71.58 145.96 72.70 146.95 73.85 147.93 C 72.94 149.05 72.03 150.18 71.13 151.30 C 71.93 152.15 72.74 153.01 73.54 153.87 C 74.45 152.45 75.37 151.04 76.29 149.62 C 78.25 150.89 80.21 152.17 82.17 153.43 C 82.17 154.10 82.17 154.78 82.17 155.45 C 83.50 155.23 84.83 155.02 86.16 154.83 C 84.13 156.74 82.02 158.58 79.90 160.40 C 79.84 158.35 80.09 156.35 80.28 154.32 C 79.30 153.57 78.33 152.81 77.36 152.05 L 76.99 154.49 L 75.32 154.28 C 76.39 155.55 77.41 156.82 78.42 158.15 C 74.89 156.57 71.66 154.34 68.81 151.73 L 69.74 149.81 C 69.59 149.46 69.45 149.11 69.30 148.76 L 67.52 151.56 C 66.95 149.92 66.62 148.22 66.51 146.43 C 65.94 147.13 65.37 147.82 64.79 148.52 C 63.67 147.83 62.54 147.14 61.41 146.46 C 61.84 144.79 62.34 143.29 63.20 141.78 L 62.80 141.02 C 61.73 142.45 60.65 143.89 59.45 145.23 L 58.06 144.38 C 58.98 142.47 60.02 140.63 61.31 138.94 Z"/>
  <path id="path19649" fill="#7bb9d8" d="M 137.17 144.38 C 135.90 144.95 134.62 145.52 133.34 146.07 C 133.61 146.67 133.88 147.27 134.15 147.87 C 134.53 148.03 134.92 148.19 135.30 148.36 C 136.15 147.63 136.93 146.86 137.81 146.17 C 137.87 147.85 138.48 148.83 136.70 149.81 C 133.47 151.67 130.08 147.28 132.50 144.55 C 134.08 142.78 135.25 144.06 137.17 144.38 Z"/>
  <path id="path19651" fill="#ddd003" d="M 32.00 144.40 C 33.62 146.89 35.44 149.21 37.26 151.55 C 36.02 152.97 34.81 154.42 33.60 155.86 C 31.41 152.96 29.37 149.95 27.47 146.85 C 28.98 146.03 30.49 145.21 32.00 144.40 Z"/>
  <path id="path19653" fill="#cfc203" d="M 41.03 147.65 C 43.50 150.87 46.06 154.03 48.86 156.97 C 47.57 158.27 46.27 159.56 44.94 160.83 C 42.70 160.57 41.18 161.69 39.31 162.73 C 37.33 160.51 35.41 158.23 33.60 155.86 C 34.81 154.42 36.02 152.97 37.26 151.55 C 38.47 150.21 39.72 148.90 41.03 147.65 Z"/>
  <path id="path19655" fill="#72abca" d="M 128.86 152.86 C 129.88 152.90 132.43 151.17 132.26 153.08 C 129.73 155.47 126.64 157.30 123.82 159.31 C 122.62 156.87 119.94 154.91 121.47 152.03 C 122.58 153.42 123.66 154.84 124.72 156.28 C 125.59 155.82 126.45 155.35 127.32 154.89 C 126.38 153.57 125.43 152.26 124.60 150.86 C 126.27 148.22 127.40 151.80 128.86 152.86 Z"/>
  <path id="path19657" fill="#85c7e5" d="M 76.99 154.49 C 78.03 153.71 78.68 153.85 78.92 154.90 C 78.35 155.67 77.70 155.53 76.99 154.49 Z"/>
  <path id="path19659" fill="#96e1ff" d="M 117.27 155.01 C 119.83 154.91 121.91 158.14 123.67 159.70 C 122.39 159.74 121.10 159.79 119.82 159.83 C 119.52 160.63 119.23 161.43 118.93 162.24 L 117.91 161.58 C 116.12 162.61 114.28 163.53 112.40 164.40 C 111.65 162.51 110.89 160.62 110.07 158.76 C 108.64 161.10 108.69 163.56 108.18 166.17 C 107.32 164.06 106.43 161.96 105.34 159.96 C 104.83 162.51 104.26 164.25 102.64 166.33 C 102.41 164.41 102.39 162.47 102.23 160.54 C 99.51 161.02 99.54 162.96 101.71 164.46 C 101.11 164.87 100.51 165.29 99.92 165.71 C 99.36 164.82 98.80 163.94 98.24 163.06 C 97.10 163.92 95.95 164.79 94.80 165.64 C 93.81 164.81 92.68 163.98 91.88 162.97 C 91.69 161.67 91.55 160.35 91.47 159.02 C 90.46 158.87 89.46 158.72 88.45 158.57 C 89.47 159.36 90.50 160.15 91.53 160.93 C 89.51 161.23 88.37 161.25 86.91 162.81 C 86.49 162.63 86.06 162.44 85.64 162.25 C 86.41 160.27 87.17 158.29 87.91 156.30 C 89.53 157.00 91.13 157.72 92.73 158.46 C 95.35 158.44 96.44 158.74 98.38 160.51 C 100.47 159.27 101.51 159.09 103.96 159.53 C 107.74 158.90 111.41 157.96 115.08 156.90 C 115.82 158.44 116.58 159.96 117.35 161.48 C 117.30 159.29 117.15 157.19 117.27 155.01 Z"/>
  <path id="path19661" fill="#dccf03" d="M 48.86 156.97 C 52.24 160.51 55.86 163.80 59.67 166.86 C 58.39 168.27 57.10 169.67 55.81 171.08 C 54.15 169.77 52.52 168.43 50.92 167.06 C 48.81 165.06 46.96 162.90 44.94 160.83 C 46.27 159.56 47.57 158.27 48.86 156.97 Z"/>
  <path id="path19663" fill="#273d5f" d="M 119.18 158.07 L 119.71 158.05 L 119.72 158.58 L 119.19 158.60 L 119.18 158.07 Z"/>
  <path id="path19665" fill="#39587a" d="M 112.59 158.99 L 113.31 158.57 L 114.03 158.99 L 114.03 159.81 L 113.31 160.22 L 112.58 159.81 L 112.59 158.99 Z"/>
  <path id="path19667" fill="#c0b403" d="M 44.94 160.83 C 46.96 162.90 48.81 165.06 50.92 167.06 C 49.43 168.03 48.01 169.09 46.58 170.14 C 44.04 167.79 41.62 165.31 39.31 162.73 C 41.18 161.69 42.70 160.57 44.94 160.83 Z"/>
  <path id="path19669" fill="#253956" d="M 95.90 159.29 C 95.98 160.54 96.05 161.79 96.12 163.04 C 95.27 163.27 94.43 163.50 93.59 163.73 C 93.54 160.95 93.10 160.68 95.90 159.29 Z"/>
  <path id="path19671" fill="#203254" d="M 113.52 161.05 L 114.25 160.63 L 114.98 161.02 L 114.98 161.84 L 114.25 162.26 L 113.52 161.87 L 113.52 161.05 Z"/>
  <path id="path19673" fill="#afa303" d="M 50.92 167.06 C 52.52 168.43 54.15 169.77 55.81 171.08 C 57.78 172.62 59.75 174.17 61.77 175.66 C 60.24 176.73 58.77 177.89 57.31 179.05 C 53.55 176.29 49.99 173.30 46.58 170.14 C 48.01 169.09 49.43 168.03 50.92 167.06 Z"/>
  <path id="path19675" fill="#ebde03" d="M 59.67 166.86 C 64.60 170.80 69.88 174.27 75.38 177.35 C 74.16 178.95 72.94 180.56 71.72 182.16 C 68.28 180.18 65.00 177.96 61.77 175.66 C 59.75 174.17 57.78 172.62 55.81 171.08 C 57.10 169.67 58.39 168.27 59.67 166.86 Z"/>
  <path id="path19677" fill="#cacf9a" d="M 94.87 170.14 C 99.60 170.45 104.39 170.42 109.12 170.08 C 104.14 171.17 99.86 171.29 94.87 170.14 Z"/>
  <path id="path19679" fill="#9d9203" d="M 61.77 175.66 C 65.00 177.96 68.28 180.18 71.72 182.16 L 72.53 182.61 C 70.94 183.84 69.96 185.03 69.04 186.80 C 64.99 184.43 61.09 181.83 57.31 179.05 C 58.77 177.89 60.24 176.73 61.77 175.66 Z"/>
  <path id="path19681" fill="#867b02" d="M 72.53 182.61 C 78.69 186.13 84.90 189.04 91.54 191.54 C 90.19 192.88 88.98 194.26 87.95 195.86 C 81.44 193.41 75.11 190.21 69.04 186.80 C 69.96 185.03 70.94 183.84 72.53 182.61 Z"/>
</svg>