<?xml version="1.0" encoding="UTF-8"?>
<!DOCTYPE svg PUBLIC "-//W3C//DTD SVG 1.1//EN" "http://www.w3.org/Graphics/SVG/1.1/DTD/svg11.dtd">
<!-- Creator: CorelDRAW X6 -->
<svg xmlns="http://www.w3.org/2000/svg" xml:space="preserve" width="210mm" height="297mm" version="1.1" style="shape-rendering:geometricPrecision; text-rendering:geometricPrecision; image-rendering:optimizeQuality; fill-rule:evenodd; clip-rule:evenodd" viewBox="0 0 21000 29700" xmlns:xlink="http://www.w3.org/1999/xlink">
 <defs>
  <style type="text/css">
   <![CDATA[
    .fil0 {fill:none}
    .fil2 {fill:#00579C}
    .fil3 {fill:white}
    .fil4 {fill:#00579C;fill-rule:nonzero}
    .fil1 {fill:#648189;fill-rule:nonzero}
   ]]>
  </style>
 </defs>
 <g id="Слой_x0020_1">
  <metadata id="CorelCorpID_0Corel-Layer"/>
  <g id="_1148530480">
   <path class="fil0" d="M19083 9345c-2779,-1527 -5550,-2167 -8576,-2155 -3022,12 -5829,746 -8618,2094 495,3780 1386,7063 3005,9983 1309,2363 3081,4510 5604,6334 2648,-1929 4486,-4164 5814,-6692 1479,-2817 2336,-5989 2771,-9564zm-17231 -177c2770,-1371 5594,-2101 8650,-2105 3034,-4 5840,611 8619,2149 142,-963 286,-1844 390,-2859 -3323,-1723 -6200,-2133 -9011,-2153 -2789,-20 -5673,382 -9017,2120 102,992 231,1907 369,2849z"/>
   <path class="fil1" d="M1680 5842c-252,130 -388,282 -450,480 -64,203 -54,459 -14,790 262,2194 602,4352 1114,6396 511,2043 1194,3972 2141,5707l0 0c683,1279 1480,2461 2398,3540 918,1078 1959,2054 3130,2919l1 1c158,123 321,181 483,181 169,-1 338,-65 499,-185 1333,-992 2529,-2135 3576,-3442 1047,-1307 1945,-2779 2682,-4429l0 0c734,-1602 1257,-3335 1655,-5165 398,-1831 672,-3757 907,-5744 30,-250 8,-460 -73,-631 -80,-169 -220,-301 -427,-396l-2 -1c-1316,-664 -2699,-1165 -4148,-1502 -1447,-336 -2961,-509 -4538,-517 -1582,-8 -3129,137 -4624,462 -1494,324 -2937,827 -4310,1536zm-545 451c71,-225 221,-396 500,-539 1382,-713 2832,-1220 4335,-1545 1502,-326 3056,-471 4646,-463 1586,8 3106,181 4560,519 1457,339 2847,842 4170,1510l0 0c228,105 384,253 474,443 90,189 114,417 82,686 -236,1990 -510,3920 -909,5754 -399,1835 -924,3575 -1662,5185l0 0c-741,1658 -1643,3137 -2695,4451 -1052,1314 -2254,2462 -3594,3460 -178,132 -367,204 -558,204 -183,1 -367,-64 -543,-201l0 0c-1177,-870 -2223,-1850 -3147,-2935 -924,-1084 -1724,-2272 -2410,-3557l0 0c-952,-1744 -1638,-3680 -2151,-5731 -513,-2049 -853,-4212 -1116,-6409 -41,-344 -51,-611 18,-831z"/>
   <path class="fil2" d="M10508 7190c-3022,12 -5829,746 -8618,2094 495,3780 1386,7063 3005,9983 1309,2363 3081,4510 5604,6334 2648,-1929 4486,-4164 5814,-6692 1479,-2817 2336,-5989 2771,-9564 -2779,-1527 -5550,-2167 -8576,-2155zm-5236 6688c165,-545 475,-1147 993,-1431l0 -657 -377 1 0 -727 3523 0 0 -1777 -910 0 0 -737 5994 -1 0 738 -4433 0 0 1777 4998 0 0 735 -4997 -6 0 482c606,166 1204,353 1795,568 620,225 1228,478 1832,741l25 11 -221 670 -30 -13c-583,-255 -1170,-500 -1767,-719 -538,-197 -1082,-372 -1633,-528l0 2336 2398 -1 1 729 -2399 0 -1 1343c642,-111 1274,-254 1898,-445 593,-181 1170,-402 1740,-647l30 -13 228 659 -26 11c-702,287 -1410,559 -2138,772 -570,167 -1145,294 -1731,389l0 730 4798 0 0 744 -4800 0 1 3437 -654 1 1 -3437 -3145 0 0 -2045c-307,-231 -586,-492 -786,-823 -274,-454 -357,-976 -385,-1498 -24,-450 47,-941 177,-1371zm8018 6881c88,-93 230,-87 325,-6l313 268c94,80 128,229 55,334l-329 468c-55,78 -222,90 -293,31l-418 -348c-103,-84 -110,-262 -19,-358l367 -387zm-1111 1247l414 -485c53,-62 186,-79 251,-28l92 71c92,71 124,208 83,316l-213 556c-3,8 -18,41 -9,49l56 48c164,-196 317,-402 464,-611l19 -27 171 145 -15 22c-175,264 -367,515 -569,759l-19 23 -258 -214c-78,-65 -95,-194 -58,-285l211 -518c7,-17 30,-85 12,-100l-50 -44c-6,0 -17,8 -21,12l-366 437c-1,1 -4,5 -5,7l96 81 -140 149 -120 -105c-65,-57 -84,-191 -27,-259zm-698 803l414 -470c60,-68 205,-78 275,-21l513 420c76,62 121,198 48,278 -143,156 -299,299 -457,440 -68,61 -212,89 -289,33l-135 -99 159 -145 77 59c9,7 14,7 22,-1l427 -417 0 -4 -149 -123 -431 453c-64,67 -208,80 -279,20l-172 -146c-76,-64 -88,-203 -22,-278zm-486 1053l15 -497 170 -199 710 617 -147 144 -534 -460 -4 396 -210 -1z"/>
   <path class="fil2" d="M6266 13384c-414,441 -530,1215 -533,1788 -3,549 145,1082 528,1484l5 -3272z"/>
   <path class="fil2" d="M6921 12140c844,-227 1639,-171 2489,-5l0 -344 -2489 0 0 349z"/>
   <path class="fil2" d="M7386 18064c-158,-42 -313,-94 -465,-155l0 961 2493 1 1 -665c-678,38 -1369,36 -2029,-141z"/>
   <path class="fil2" d="M6921 17146c277,131 562,225 864,283 531,101 1087,86 1625,61l-2 -4633c-627,-129 -1297,-229 -1932,-104 -191,37 -376,94 -554,170l0 4224z"/>
   <path class="fil2" d="M12050 22510l-398 432 124 104c9,7 16,3 23,-5l403 -428 -137 -116c-5,1 -13,9 -15,12z"/>
   <path class="fil2" d="M13094 21360l368 310c8,6 37,-3 43,-11l303 -411c11,-15 12,-50 -3,-63l-323 -278c-13,-12 -41,-12 -53,2l-348 382c-14,15 -2,57 13,70z"/>
   <path class="fil2" d="M2866 7750l-266 -1041c-56,-218 21,-448 243,-535 469,-183 944,-353 1424,-507l32 -10 69 365 -25 8c-469,148 -930,322 -1392,493 -21,7 -47,28 -41,53l86 345c347,-138 697,-267 1049,-389l32 -11 81 366 -26 8c-340,107 -675,234 -1006,366 -6,2 -39,13 -42,18 -1,2 1,12 1,14l86 342c6,25 45,6 61,0 433,-175 873,-332 1321,-468l31 -9 78 359 -27 8c-449,135 -886,302 -1324,468 -211,80 -384,-38 -445,-243zm-1014 1418c2770,-1371 5594,-2101 8650,-2105 3034,-4 5840,611 8619,2149 142,-963 286,-1844 390,-2859 -3323,-1723 -6200,-2133 -9011,-2153 -2789,-20 -5673,382 -9017,2120 102,992 231,1907 369,2849zm2921 -1686l-284 -1489c-39,-203 -2,-373 207,-454 119,-46 235,39 301,131 251,348 497,698 733,1056l362 -1336c43,-159 146,-284 322,-264 171,19 233,179 252,329l185 1506 -316 66 -176 -1374 -376 1358c-33,121 -99,171 -217,190 -103,17 -173,-77 -225,-151l-706 -1006 247 1341 -311 94zm2192 -541l-218 -1894 28 -5c478,-85 959,-156 1440,-216 222,-28 390,139 401,355l25 501c8,171 -136,364 -309,388l-1125 158 67 653 -310 60zm5473 -246l-31 -3c-448,-42 -895,-66 -1345,-74 -235,-4 -370,-175 -369,-406l6 -1514 326 5 -21 1501c0,24 16,37 39,38 460,16 928,26 1385,83l27 3 -16 367zm112 13l125 -1906 325 30 -137 1909 -313 -34zm-3333 -60c-225,10 -411,-227 -423,-437l-51 -963c-10,-227 174,-495 414,-511 333,-22 665,-40 999,-35 205,3 410,244 409,443l-3 1000c-1,198 -179,454 -389,463l-957 40zm4684 248l-316 -57 147 -1512c19,-194 213,-356 410,-320 482,89 962,188 1438,304l27 6 -55 372 -32 -8c-469,-120 -946,-221 -1422,-306 -25,-4 -40,-1 -43,26l-37 365c359,64 718,130 1073,214l26 6 -43 371 -33 -8c-352,-84 -707,-154 -1063,-219l-78 767zm1530 329l55 -366 311 86 -56 357 -311 -78zm492 -260l191 -1107c9,-54 32,-105 64,-149 79,-109 218,-177 351,-132 484,144 963,306 1436,484l25 9 -87 356 -32 -12c-459,-176 -927,-331 -1397,-475 -26,-8 -39,6 -44,31l-193 1029c-4,20 -4,72 21,79 459,135 916,283 1362,457l24 10 -86 358 -32 -12c-266,-103 -538,-199 -810,-289 -168,-55 -338,-108 -508,-155 -225,-61 -324,-260 -285,-481zm1749 982l90 -355 300 117 -86 356 -304 -117z"/>
   <path class="fil2" d="M7113 5357l55 507c372,-67 746,-122 1121,-162 27,-3 33,-34 31,-57l-34 -426c-2,-23 -11,-26 -34,-24 -381,43 -761,100 -1139,161z"/>
   <path class="fil2" d="M9068 5245l42 911c3,73 62,125 135,123 290,-22 580,-37 871,-43 73,-2 134,-51 133,-127l-6 -889c-1,-78 -54,-155 -138,-151l-908 40c-72,3 -132,64 -129,137z"/>
   <path class="fil3" d="M3126 7261c331,-132 666,-259 1006,-366l26 -8 -81 -366 -32 11c-353,122 -703,251 -1049,389l-86 -345c-6,-25 21,-46 41,-53 462,-171 923,-345 1392,-493l25 -8 -69 -365 -32 10c-480,153 -955,323 -1424,507 -222,87 -299,317 -243,535l266 1041c60,205 233,323 445,243 438,-166 875,-333 1324,-468l27 -8 -78 -359 -31 9c-447,136 -887,293 -1321,468 -15,6 -54,24 -61,0l-86 -342c-1,-2 -3,-12 -1,-14 3,-4 36,-16 42,-18z"/>
   <path class="fil3" d="M4490 5993l284 1489 311 -94 -247 -1341 706 1006c52,74 121,168 225,151 118,-19 183,-70 217,-190l376 -1358 176 1374 316 -66 -185 -1506c-19,-150 -81,-310 -252,-329 -177,-20 -279,105 -322,264l-362 1336c-236,-358 -483,-708 -733,-1056 -67,-92 -183,-177 -301,-131 -209,81 -246,251 -207,454z"/>
   <path class="fil3" d="M6747 5046l218 1894 310 -60 -67 -653 1125 -158c172,-24 317,-218 309,-388l-25 -501c-11,-216 -179,-383 -401,-355 -482,61 -962,131 -1440,216l-28 5zm420 818l-55 -507c379,-61 758,-119 1139,-161 23,-3 32,0 34,24l34 426c2,22 -4,54 -31,57 -376,41 -750,95 -1121,162z"/>
   <path class="fil3" d="M8743 5247l51 963c11,210 197,447 423,437l957 -40c209,-9 388,-265 389,-463l3 -1000c1,-199 -204,-440 -409,-443 -334,-5 -666,14 -999,35 -240,16 -424,284 -414,511zm368 909l-42 -911c-3,-73 57,-134 129,-137l908 -40c83,-4 137,73 138,151l6 889c1,76 -60,125 -133,127 -291,6 -581,21 -871,43 -72,2 -131,-50 -135,-123z"/>
   <path class="fil3" d="M10697 4697l-6 1514c-1,231 134,402 369,406 450,8 897,32 1345,74l31 3 16 -367 -27 -3c-457,-57 -925,-67 -1385,-83 -24,-1 -39,-14 -39,-38l21 -1501 -326 -5z"/>
   <polygon class="fil3" points="12675,4801 12550,6707 12863,6741 13000,4831 "/>
   <path class="fil3" d="M13732 5325l-147 1512 316 57 78 -767c356,66 711,136 1063,219l33 8 43 -371 -26 -6c-355,-84 -714,-150 -1073,-214l37 -365c3,-27 18,-30 43,-26 476,85 954,186 1422,306l32 8 55 -372 -27 -6c-476,-116 -956,-215 -1438,-304 -197,-36 -391,126 -410,320z"/>
   <polygon class="fil3" points="15486,6859 15431,7224 15741,7302 15798,6945 "/>
   <path class="fil3" d="M16114 5857l-191 1107c-38,221 60,420 285,481 171,47 340,100 508,155 271,89 543,185 810,289l32 12 86 -358 -24 -10c-446,-174 -903,-322 -1362,-457 -25,-7 -24,-59 -21,-79l193 -1029c5,-25 17,-39 44,-31 470,145 937,299 1397,475l32 12 87 -356 -25 -9c-473,-179 -952,-340 -1436,-484 -133,-45 -271,23 -351,132 -32,44 -55,95 -64,149z"/>
   <polygon class="fil3" points="17761,7591 17671,7946 17975,8064 18061,7708 "/>
   <polygon class="fil3" points="11888,23783 11178,23166 11009,23365 10994,23861 11204,23863 11208,23467 11742,23927 "/>
   <path class="fil3" d="M11502 23086l172 146c71,60 216,47 279,-20l431 -453 149 123 0 4 -427 417c-8,8 -13,8 -22,1l-77 -59 -159 145 135 99c78,57 221,29 289,-33 157,-141 314,-284 457,-440 74,-80 28,-216 -48,-278l-513 -420c-69,-57 -215,-47 -275,21l-414 470c-66,75 -53,214 22,278zm274 -40l-124 -104 398 -432c3,-3 11,-11 15,-12l137 116 -403 428c-7,8 -14,13 -23,5z"/>
   <path class="fil3" d="M12178 22006c-58,67 -38,202 27,259l120 105 140 -149 -96 -81c1,-3 3,-6 5,-7l366 -437c4,-4 15,-12 21,-12l50 44c17,15 -5,83 -12,100l-211 518c-37,91 -20,220 58,285l258 214 19 -23c201,-244 393,-496 569,-759l15 -22 -171 -145 -19 27c-147,209 -300,415 -464,611l-56 -48c-9,-7 7,-41 9,-49l213 -556c41,-107 9,-244 -83,-316l-92 -71c-65,-51 -198,-34 -251,28l-414 485z"/>
   <path class="fil3" d="M12941 21504l418 348c71,60 238,48 293,-31l329 -468c74,-105 39,-253 -55,-334l-313 -268c-94,-81 -237,-87 -325,6l-367 387c-91,96 -83,274 19,358zm520 166l-368 -310c-15,-13 -27,-54 -13,-70l348 -382c12,-13 39,-13 53,-2l323 278c15,13 14,48 3,63l-303 411c-6,8 -35,17 -43,11z"/>
   <path class="fil3" d="M10498 25601c-2522,-1824 -4294,-3971 -5604,-6334 -1618,-2921 -2510,-6203 -3005,-9983 2788,-1348 5595,-2082 8618,-2094 3026,-12 5796,628 8576,2155 -435,3576 -1291,6748 -2771,9564 -1328,2528 -3166,4763 -5814,6692zm4 -18539c-3057,4 -5880,734 -8650,2105 -138,-942 -268,-1857 -369,-2849 3344,-1738 6228,-2140 9017,-2120 2811,20 5688,430 9011,2153 -104,1016 -248,1896 -390,2859 -2778,-1538 -5584,-2153 -8619,-2149zm-9272 -740c-64,203 -54,459 -14,790 262,2194 602,4352 1114,6396 511,2043 1194,3972 2141,5707l0 0c683,1279 1480,2461 2398,3540 918,1078 1959,2054 3130,2919l1 1c158,123 321,181 483,181 169,-1 338,-65 499,-185 1333,-992 2529,-2135 3576,-3442 1047,-1307 1945,-2779 2682,-4429l0 0c734,-1602 1257,-3335 1655,-5165 398,-1831 672,-3757 907,-5744 30,-250 8,-460 -73,-631 -80,-169 -220,-301 -427,-396l-2 -1c-1316,-664 -2699,-1165 -4148,-1502 -1447,-336 -2961,-509 -4538,-517 -1582,-8 -3129,137 -4624,462 -1494,324 -2937,827 -4310,1536 -252,130 -388,282 -450,480z"/>
   <path class="fil4" d="M5500 16734c99,164 218,311 349,445 132,135 278,257 430,372l10 7 0 12 0 2020 3121 0 25 0 0 25 -1 3412 604 -1 -1 -3412 0 -25 25 0 4775 0 0 -694 -4773 0 -25 0 0 -25 0 -730 0 -21 21 -3c293,-47 582,-103 870,-167 288,-64 573,-138 858,-221 363,-106 722,-227 1077,-358 356,-131 708,-270 1058,-414l0 0 4 -2 -212 -612 -5 2c-284,122 -571,239 -862,348 -290,109 -583,209 -880,300 -313,96 -627,179 -944,253 -317,74 -636,137 -957,193l-29 5 0 -30 1 -1343 0 -25 25 0 2374 0 -1 -679 -2373 1 -25 0 0 -25 0 -2336 0 -33 32 9c275,78 549,161 822,249 273,88 544,181 812,280 298,109 594,225 890,346 296,121 588,246 879,373l5 2 206 -623 -4 -2c-301,-131 -603,-260 -909,-385 -305,-124 -612,-244 -921,-356 -294,-107 -591,-207 -891,-302 -300,-95 -601,-183 -902,-266l-18 -5 0 -19 0 -482 0 -25 25 0 4972 6 0 -685 -4973 0 -25 0 0 -25 0 -1777 0 -25 25 0 4408 0 0 -688 -5945 1 0 687 885 0 25 0 0 25 0 1777 0 25 -25 0 -3498 0 0 677 352 -1 25 0 0 25 0 657 0 15 -13 7c-230,126 -419,316 -571,537 -187,269 -320,583 -410,880 -66,219 -117,454 -148,691 -29,226 -40,454 -28,672 14,260 41,519 99,770 58,250 146,492 282,716zm314 480c-135,-137 -256,-287 -357,-454 -138,-230 -229,-476 -288,-731 -59,-254 -87,-516 -101,-779 -12,-221 -1,-452 29,-681 31,-240 82,-478 149,-699 91,-301 226,-620 416,-894 154,-222 344,-415 575,-545l0 -617 -352 1 -25 0 0 -25 0 -727 0 -25 25 0 3498 0 0 -1727 -885 0 -25 0 0 -25 0 -737 0 -25 25 0 5994 -1 25 0 0 25 0 738 0 25 -25 0 -4408 0 0 1727 4973 0 25 0 0 25 0 735 0 25 -25 0 -4972 -6 0 438c299,82 594,169 886,261 299,94 596,195 893,302 311,113 618,232 923,356 304,124 607,253 910,386l25 11 21 9 -7 22 -221 670 -9 26 -25 -11 -30 -13c-292,-128 -585,-253 -878,-373 -293,-120 -589,-235 -888,-345 -269,-99 -539,-192 -810,-279 -261,-84 -524,-164 -789,-239l0 2278 2373 -1 25 0 0 25 1 729 0 25 -25 0 -2374 0 -1 1289c311,-54 619,-116 925,-187 316,-73 629,-157 940,-252 296,-90 588,-191 877,-299 288,-108 575,-224 860,-347l30 -13 25 -11 9 25 228 659 8 22 -22 9 -26 11 0 0c-352,144 -705,284 -1060,414 -356,131 -715,252 -1081,359 -285,83 -572,157 -861,222 -282,63 -566,118 -852,164l0 684 4773 0 25 0 0 25 0 744 0 25 -25 0 -4775 0 1 3412 0 25 -25 0 -654 1 -25 0 0 -25 1 -3413 -3121 0 -25 0 0 -25 0 -2032c-151,-114 -295,-235 -426,-369zm429 -540c-185,-194 -316,-418 -402,-660 -94,-265 -135,-551 -133,-842 2,-323 39,-711 145,-1067 84,-280 210,-542 394,-739l43 -46 0 63 -5 3272 0 62 -43 -45zm-355 -676c77,216 191,418 348,595l5 -3143c-156,184 -265,419 -340,670 -105,351 -142,733 -143,1052 -1,285 38,565 130,825zm1007 1150l0 -4224 0 -17 15 -6c91,-38 183,-72 276,-100 93,-29 188,-52 283,-71 320,-63 648,-69 976,-44 326,26 651,83 966,148l20 4 0 20 2 4633 0 24 -24 1c-269,12 -543,22 -817,17 -274,-6 -547,-27 -814,-78 -152,-29 -300,-67 -444,-115 -145,-47 -286,-104 -426,-170l-14 -7 0 -16zm50 -4207l0 4191c133,62 268,116 406,161 143,47 288,84 438,113 264,50 534,72 806,77 264,5 529,-4 790,-16l-2 -4589c-306,-63 -623,-118 -940,-143 -323,-25 -647,-19 -962,43 -95,19 -187,42 -278,70 -87,27 -172,57 -256,92zm-16 4946c76,31 152,59 229,84 76,26 154,49 233,70 328,88 665,133 1003,150 339,18 680,9 1019,-10l26 -1 0 26 -1 665 0 25 -25 0 -2493 -1 -25 0 0 -25 0 -961 0 -37 34 14zm213 132c-67,-22 -133,-46 -198,-72l0 900 2443 1 1 -614c-331,18 -665,26 -998,9 -342,-18 -681,-63 -1013,-152 -79,-21 -158,-45 -236,-71zm2262 -5858c-424,-83 -834,-138 -1242,-144 -408,-6 -816,36 -1235,149l-31 8 0 -33 0 -349 0 -25 25 0 2489 0 25 0 0 25 0 344 0 30 -30 -6zm-1242 -194c403,6 806,59 1221,139l0 -289 -2439 0 0 291c413,-108 815,-149 1218,-142z"/>
   <polygon class="fil3" points="11178,23166 11009,23365 10994,23861 11204,23863 11208,23467 11742,23927 11888,23783 "/>
   <path class="fil4" d="M11181 23201l-148 173 -14 462 160 1 4 -371 1 -54 41 35 516 445 111 -109 -671 -583zm-191 147l170 -199 16 -19 19 16 710 617 20 18 -19 19 -147 144 -16 16 -17 -15 -493 -425 -4 342 0 25 -25 0 -210 -1 -26 0 1 -25 15 -497 0 -9 6 -7z"/>
   <path class="fil3" d="M11502 23086l172 146c71,60 216,47 279,-20l431 -453 149 123 0 4 -427 417c-8,8 -13,8 -22,1l-77 -59 -159 145 135 99c78,57 221,29 289,-33 157,-141 314,-284 457,-440 74,-80 28,-216 -48,-278l-513 -420c-69,-57 -215,-47 -275,21l-414 470c-66,75 -53,214 22,278zm274 -40l-124 -104 398 -432c3,-3 11,-11 15,-12l137 116 -403 428c-7,8 -14,13 -23,5z"/>
   <path class="fil4" d="M11518 23067l172 146c30,25 77,35 123,32 48,-3 94,-21 122,-50l431 -453 16 -17 18 15 149 123 10 9 -1 13 0 4 -1 9 -6 6 -427 417c-9,8 -17,13 -27,13 -10,0 -18,-3 -27,-10l-60 -46 -121 110 110 81c31,23 77,29 123,24 52,-6 103,-27 135,-55 79,-71 157,-142 233,-214 77,-73 151,-147 222,-224l0 0c2,-2 3,-3 4,-5l0 0c27,-32 31,-75 22,-117 -9,-44 -34,-86 -65,-114l0 0c-2,-2 -4,-4 -7,-6l-513 -420c-30,-24 -77,-34 -124,-31 -46,3 -91,20 -116,49l-414 469 0 0 -2 2 0 0c-27,32 -38,77 -34,122 4,45 22,88 53,116l0 0 2 2 0 0zm140 184l-172 -146 0 0 -2 -2 0 0c-41,-37 -65,-92 -70,-149 -5,-57 10,-116 46,-159l0 0 2 -2 0 0 414 -470c34,-39 92,-61 150,-65 59,-4 119,9 159,42l513 420c3,2 6,5 9,8l0 0c38,35 68,87 80,140 12,56 5,114 -33,159l0 0c-2,3 -4,5 -6,7l0 0c-72,79 -147,154 -224,227 -77,73 -156,145 -234,215 -39,35 -101,61 -163,68 -57,6 -115,-3 -158,-34l-135 -99 -25 -18 23 -21 159 -145 15 -14 17 13 71 55 404 -395 -112 -92 -415 436c-37,38 -96,61 -155,65 -58,4 -118,-10 -158,-44zm102 -185l-124 -104 -20 -17 18 -19 398 -432 0 0c2,-2 7,-7 12,-11 4,-4 10,-7 15,-8l13 -4 10 9 137 116 20 17 -18 19 -403 428c-6,6 -13,12 -21,15 -12,4 -24,2 -36,-8zm-72 -126l96 81 382 -405 -101 -85 -377 410z"/>
   <path class="fil3" d="M12204 22264l120 105 140 -149 -96 -81c1,-3 3,-6 5,-7l366 -437c4,-4 15,-12 21,-12l50 44c17,15 -5,83 -12,100l-211 518c-37,91 -20,220 58,285l258 214 19 -23c201,-244 393,-496 569,-759l15 -22 -171 -145 -19 27c-147,209 -300,415 -464,611l-56 -48c-9,-7 7,-41 9,-49l213 -556c41,-107 9,-244 -83,-316l-92 -71c-65,-51 -198,-34 -251,28l-414 485c-58,67 -38,202 27,259z"/>
   <path class="fil4" d="M12221 22245l102 89 106 -112 -75 -64 -14 -12 7 -17c1,-3 2,-5 4,-7l0 0c2,-3 4,-5 5,-7l366 -437c4,-4 10,-10 17,-14 7,-4 14,-7 22,-7l10 0 8 7 50 44c14,12 17,33 14,56l0 0c-3,28 -15,60 -19,72l-211 518c-17,43 -22,95 -12,144 9,44 30,85 63,113l238 198 3 -4c100,-122 199,-246 293,-372 95,-126 186,-254 274,-386l3 -4 -133 -113 -3 5c-74,105 -149,209 -226,311 -77,102 -156,203 -239,302l-16 19 -19 -16 -56 -48c-21,-18 -5,-58 1,-74l0 0 1 -3 0 0 213 -556c19,-50 21,-106 7,-158 -13,-51 -41,-97 -82,-129l-92 -71c-27,-21 -69,-28 -111,-23 -42,5 -83,22 -106,48l-414 485c-23,27 -31,70 -27,112 5,44 23,87 51,112zm87 142l-120 -105c-38,-33 -62,-89 -68,-145 -6,-54 6,-110 39,-149l414 -485c31,-36 84,-59 138,-65 54,-6 109,4 147,33l92 71c50,39 84,95 100,155 16,62 14,130 -9,189l-213 556 0 0 -1 3 0 0c-3,6 -21,12 -15,17l37 32c75,-91 149,-185 221,-281 77,-102 152,-206 225,-310l19 -27 16 -22 21 18 171 145 17 14 -12 18 -15 22c-88,132 -180,261 -276,388 -95,127 -194,251 -295,373l-19 23 -16 19 -19 -16 -258 -214c-42,-35 -69,-86 -80,-141 -12,-58 -7,-121 14,-173l211 -518c4,-10 13,-37 16,-59l0 0c1,-8 4,-12 3,-12l-37 -32 -354 422 77 66 20 17 -18 19 -140 149 -17 17 -18 -16zm84 -238l0 0 0 0 0 0z"/>
   <path class="fil3" d="M12941 21504l418 348c71,60 238,48 293,-31l329 -468c74,-105 39,-253 -55,-334l-313 -268c-94,-81 -237,-87 -325,6l-367 387c-91,96 -83,274 19,358zm152 -144c-15,-13 -27,-54 -13,-70l348 -382c12,-13 39,-13 53,-2l323 278c15,13 14,48 3,63l-303 411c-6,8 -35,17 -43,11l-368 -310z"/>
   <path class="fil4" d="M12957 21485l418 348 0 0c2,2 4,3 6,5 31,22 81,31 129,26 48,-5 93,-22 118,-51 1,-1 3,-3 4,-6l329 -468c32,-45 41,-100 32,-152 -9,-56 -39,-110 -83,-148l-313 -268c-44,-37 -99,-57 -153,-56l0 0c-50,1 -100,20 -138,61l-367 387c-3,3 -6,7 -9,10 -34,42 -50,99 -47,155 3,56 24,110 63,148 3,3 6,6 10,9l0 0zm386 386l-418 -348 0 0c-4,-4 -9,-7 -13,-11 -49,-46 -75,-113 -79,-181 -3,-68 16,-137 58,-189 4,-5 8,-9 11,-13l367 -387c48,-51 110,-75 173,-76 66,-1 133,23 186,68l313 268c53,45 89,110 100,178 11,65 -1,132 -41,189l-329 468c-2,3 -4,5 -7,9 -33,40 -92,63 -151,69 -59,6 -121,-6 -163,-35 -3,-2 -6,-5 -9,-7l0 0zm-266 -493l-1 -1 -1 -1c-11,-10 -20,-28 -24,-46 -4,-20 -3,-42 9,-56l0 -1 1 -1 0 0 348 -382c11,-12 27,-18 43,-18 16,-1 33,5 45,15l323 278c13,11 19,29 20,47 1,18 -4,38 -13,50l-303 411c-7,9 -22,17 -36,20 -15,4 -31,3 -42,-4l-1 -1 -1 -1 -368 -310 0 0zm31 -39l0 0 1 1 0 0 366 309c1,0 -2,-3 1,-4 5,-1 8,-1 8,-1l303 -411c3,-4 4,-11 4,-18 0,-5 -1,-10 -3,-11l-323 -278c-2,-2 -6,-3 -10,-3l0 0c-3,0 -6,1 -8,2l-348 382c-1,2 0,7 1,14 2,8 5,16 9,20z"/>
   <path class="fil3" d="M6896 17146l0 -4224 0 -17 15 -6c91,-38 183,-72 276,-100 93,-29 188,-52 283,-71 320,-63 648,-69 976,-44 326,26 651,83 966,148l20 4 0 20 2 4633 0 24 -24 1c-269,12 -543,22 -817,17 -274,-6 -547,-27 -814,-78 -152,-29 -300,-67 -444,-115 -145,-47 -286,-104 -426,-170l-14 -7 0 -16zm7026 -191l0 0zm-3884 1915l0 -730 0 -21 21 -3c293,-47 582,-103 870,-167 288,-64 573,-138 858,-221 363,-106 722,-227 1077,-358 356,-131 708,-270 1058,-414l4 -2 -212 -612 -5 2c-284,122 -571,239 -862,348 -290,109 -583,209 -880,300 -313,96 -627,179 -944,253 -317,74 -636,137 -957,193l-29 5 0 -30 1 -1343 0 -25 25 0 2374 0 -1 -679 -2373 1 -25 0 0 -25 0 -2336 0 -33 32 9c275,78 549,161 822,249 273,88 544,181 812,280 298,109 594,225 890,346 296,121 588,246 879,373l5 2 206 -623 -4 -2c-301,-131 -603,-260 -909,-385 -305,-124 -612,-244 -921,-356 -294,-107 -591,-207 -891,-302 -300,-95 -601,-183 -902,-266l-18 -5 0 -19 0 -482 0 -25 25 0 4972 6 0 -685 -4973 0 -25 0 0 -25 0 -1777 0 -25 25 0 4408 0 0 -688 -5945 1 0 687 885 0 25 0 0 25 0 1777 0 25 -25 0 -3498 0 0 677 352 -1 25 0 0 25 0 657 0 15 -13 7c-230,126 -419,316 -571,537 -187,269 -320,583 -410,880 -66,219 -117,454 -148,691 -29,226 -40,454 -28,672 14,260 41,519 99,770 58,250 146,492 282,716 99,164 218,311 349,445 132,135 278,257 430,372l10 7 0 12 0 2020 3121 0 25 0 0 25 -1 3412 604 -1 -1 -3412 0 -25 25 0 4775 0 0 -694 -4773 0 -25 0 0 -25zm-3747 -5487l-5 3272 0 62 -43 -45c-185,-194 -316,-418 -402,-660 -94,-265 -135,-551 -133,-842 2,-323 39,-711 145,-1067 84,-280 210,-542 394,-739l43 -46 0 63zm639 4502c76,31 152,59 229,84 76,26 154,49 233,70 328,88 665,133 1003,150 339,18 680,9 1019,-10l26 -1 0 26 -1 665 0 25 -25 0 -2493 -1 -25 0 0 -25 0 -961 0 -37 34 14zm2475 -5726c-424,-83 -834,-138 -1242,-144 -408,-6 -816,36 -1235,149l-31 8 0 -33 0 -349 0 -25 25 0 2489 0 25 0 0 25 0 344 0 30 -30 -6z"/>
   <path class="fil4" d="M6871 17146l0 -4224 0 -17 0 -17 15 -6 15 -6c46,-19 92,-38 138,-54 46,-17 93,-32 140,-47 48,-15 95,-28 142,-40 48,-12 95,-23 143,-32 161,-32 325,-49 489,-55 164,-6 329,-1 493,11l0 0c163,13 327,34 489,59 162,26 322,56 480,89l20 4 20 4 0 20 0 20 0 0 2 4633 0 24 0 24 -24 1 -24 1c-134,6 -270,12 -407,15 -137,3 -274,4 -411,2 -138,-3 -275,-10 -411,-22 -137,-13 -273,-31 -407,-56 -76,-15 -152,-31 -226,-51 -75,-19 -149,-41 -221,-65 -73,-24 -145,-50 -216,-79 -71,-29 -142,-60 -212,-93l-14 -7 -14 -7 0 -16 0 -16 0 0zm50 -4224l0 4224 0 0 0 0c69,33 139,63 209,91 70,28 141,54 213,78 72,24 145,45 218,64 73,19 148,36 223,50 133,25 267,43 402,56 135,12 271,19 408,22 136,3 273,2 409,-2 135,-3 271,-9 406,-15l-2 -4633 0 0 0 0c-157,-32 -317,-63 -478,-88 -160,-25 -323,-46 -485,-59l0 0c-163,-13 -326,-18 -488,-11 -161,6 -322,23 -481,55 -47,9 -94,20 -141,31 -48,12 -94,25 -140,39 -46,14 -92,29 -138,46 -46,17 -91,35 -136,53zm3092 5948l0 -730 0 -21 0 -21 21 -3 21 -3c145,-23 290,-49 436,-77 146,-28 290,-58 432,-90 144,-32 287,-67 429,-103 142,-37 284,-76 427,-117 181,-53 361,-110 540,-170l0 0c177,-59 356,-122 535,-188 178,-65 355,-133 531,-202 173,-68 342,-136 509,-204l-195 -564c-135,58 -271,115 -410,171 -143,58 -288,114 -434,169 -146,55 -292,107 -438,157 -146,50 -294,98 -443,143 -158,48 -315,93 -471,135 -157,42 -315,81 -474,118 -157,37 -317,71 -478,103 -161,32 -322,62 -481,90l-29 5 -29 5 0 -30 0 -30 1 -1343 0 -25 0 -25 25 0 25 0 0 0 2349 0 -1 -629 -2348 1 0 0 -25 0 -25 0 0 -25 0 -25 0 -2336 0 0 0 -33 0 -33 32 9 32 9c140,40 277,80 413,121 135,41 271,84 411,128 139,45 275,90 408,136 135,46 270,94 405,144 147,54 296,110 446,169 147,57 296,117 445,178 151,62 298,123 442,184 139,59 278,119 418,180l190 -575c-146,-64 -291,-126 -436,-188 -149,-63 -301,-126 -456,-190 -154,-63 -307,-124 -459,-182 -153,-59 -306,-117 -461,-173 -146,-53 -294,-105 -443,-155 -147,-50 -296,-98 -447,-146 -152,-48 -302,-94 -450,-137 -152,-45 -302,-87 -451,-128l-18 -5 -18 -5 0 -19 0 -19 0 -482 0 0 0 -25 0 -25 25 0 25 0 4948 5 0 -636 -4948 0 0 0 -25 0 -25 0 0 -25 0 -25 0 -1777 0 0 0 -25 0 -25 25 0 25 0 4383 0 0 -638 -5895 1 0 637 860 0 0 0 25 0 25 0 0 25 0 25 0 1777 0 25 0 25 -25 0 -25 0 -3473 0 0 627 327 -1 25 0 25 0 0 25 0 25 0 657 0 0 0 15 0 15 -13 7 -13 7c-109,60 -208,134 -298,219 -98,92 -186,197 -264,310 -87,125 -162,261 -227,400l0 0c-73,156 -132,317 -179,473 -33,110 -63,224 -87,340 -24,115 -45,231 -60,347 -15,114 -25,228 -30,342 -5,110 -4,219 1,326 7,129 17,258 33,386 16,128 37,255 66,379 29,124 65,246 111,364 46,118 101,233 168,345 49,81 103,158 161,231 58,73 120,143 185,209 66,67 135,130 206,192 72,62 146,121 222,177l10 7 10 8 0 12 0 12 0 0 0 1995 3096 0 25 0 25 0 0 25 0 25 -1 3388 554 -1 -1 -3387 0 0 0 -25 0 -25 25 0 25 0 4750 0 0 -644 -4748 0 -25 0 -25 0 0 -25 0 -25zm49 -730l0 730 4773 0 25 0 0 25 0 694 0 25 -25 0 -4775 0 1 3412 0 25 -25 0 -604 1 -25 0 0 -25 1 -3412 -3121 0 -25 0 0 -25 0 -2020 0 0 0 0c-77,-58 -152,-117 -224,-179 -72,-62 -143,-127 -209,-195 -66,-68 -130,-138 -189,-213 -59,-75 -114,-154 -164,-236 -68,-113 -125,-231 -172,-353 -47,-121 -84,-245 -113,-371 -29,-127 -51,-255 -67,-384 -16,-129 -26,-259 -33,-390 -6,-108 -6,-219 -1,-330 5,-115 15,-231 30,-346 15,-118 36,-236 60,-351 25,-118 55,-233 88,-344 48,-158 108,-321 182,-480l0 0c66,-141 142,-279 231,-407 80,-116 170,-223 271,-318 93,-88 196,-164 308,-226l0 0 0 0 0 -657 -352 1 -25 0 0 -25 0 -677 0 -25 25 0 3498 0 0 -1777 0 0 -885 0 -25 0 0 -25 0 -687 0 -25 25 0 5945 -1 25 0 0 25 0 688 0 25 -25 0 -4408 0 0 0 0 1776 0 0 4973 0 25 0 0 25 0 685 0 25 -25 0 -4972 -6 0 482c152,42 303,85 452,128 152,45 303,91 451,137 149,47 298,96 448,146 148,50 296,102 444,156 154,56 308,114 462,174 156,60 309,121 459,183 150,61 303,125 457,190 153,65 304,130 453,195l4 2 21 9 -7 22 -206 623 -9 26 -25 -11 -5 -2c-144,-63 -290,-126 -437,-189 -149,-63 -296,-125 -441,-184 -147,-60 -295,-119 -444,-177 -147,-57 -295,-113 -445,-168 -134,-49 -268,-97 -404,-144 -137,-47 -273,-93 -407,-136 -134,-43 -270,-86 -410,-128 -139,-42 -276,-82 -412,-121l0 2335 0 0 2373 -1 25 0 0 25 1 679 0 25 -25 0 -2374 0 0 0 -1 1343c162,-28 322,-58 480,-89 158,-32 317,-66 476,-103 158,-37 315,-76 472,-118 158,-42 315,-87 470,-134 147,-45 295,-93 442,-143 147,-50 293,-103 437,-156 145,-54 289,-110 433,-169 142,-57 285,-117 428,-179l5 -2 25 -11 9 25 212 612 8 22 -22 9 -4 2 0 0c-178,73 -354,144 -527,212 -177,69 -354,137 -532,202 -176,65 -355,128 -537,188l0 0c-180,60 -360,117 -542,170 -142,42 -285,81 -428,118 -143,37 -287,72 -431,104 -145,33 -290,63 -434,90 -144,28 -290,53 -438,77zm-3747 -4756l-5 3272 0 62 0 62 -43 -45 -43 -45c-92,-96 -170,-200 -237,-309 -70,-114 -126,-235 -170,-360 -46,-130 -80,-266 -102,-405l0 0c-23,-146 -33,-295 -33,-445 1,-175 12,-368 39,-565 23,-170 58,-343 107,-509 44,-148 100,-291 170,-422 64,-120 140,-231 230,-326l43 -46 43 -46 0 63 0 63zm-54 3272l5 -3272c-87,92 -160,199 -222,316 -68,128 -123,268 -166,413 -49,164 -83,334 -106,501 -27,195 -38,386 -39,559 -1,148 9,294 32,437l0 0c21,136 54,268 100,396 43,122 98,239 166,350 65,106 141,207 230,300zm678 1207c37,15 75,30 114,44 39,14 77,28 114,40 37,12 75,25 115,36 39,12 77,23 117,33 163,44 328,77 495,101 167,24 335,40 503,49 169,9 339,11 508,9 169,-2 339,-9 508,-19l26 -1 26 -1 0 26 0 26 -1 665 0 25 0 25 -25 0 -25 0 0 0 -2493 -1 -25 0 -25 0 0 -25 0 -25 0 -961 0 0 0 -37 0 -37 34 14 34 14zm96 91c-38,-14 -76,-29 -115,-44l0 961 2493 1 0 0 1 -665c-169,9 -339,16 -510,19 -171,2 -341,0 -511,-9 -170,-9 -339,-24 -507,-49 -168,-24 -336,-58 -501,-102 -40,-11 -79,-22 -118,-34 -38,-11 -77,-24 -117,-37 -40,-13 -78,-27 -116,-41zm2364 -5769c-211,-41 -419,-76 -625,-101 -206,-25 -410,-40 -613,-43 -203,-3 -406,6 -610,30 -204,24 -410,62 -618,119l-31 8 -31 8 0 -33 0 -33 0 0 0 -349 0 -25 0 -25 25 0 25 0 2489 0 0 0 25 0 25 0 0 25 0 25 0 344 0 30 0 30 -30 -6 -30 -6zm-619 -150c207,25 416,60 629,101l0 -344 0 0 -2489 0 0 349c211,-57 419,-96 626,-120 206,-24 411,-33 617,-30 206,3 411,19 618,44z"/>
   <path class="fil3" d="M3084 7279c3,-4 36,-16 42,-18 331,-132 666,-259 1006,-366l26 -8 -81 -366 -32 11c-353,122 -703,251 -1049,389l-86 -345c-6,-25 21,-46 41,-53 462,-171 923,-345 1392,-493l25 -8 -69 -365 -32 10c-480,153 -955,323 -1424,507 -222,87 -299,317 -243,535l266 1041c60,205 233,323 445,243 438,-166 875,-333 1324,-468l27 -8 -78 -359 -31 9c-447,136 -887,293 -1321,468 -15,6 -54,24 -61,0l-86 -342c-1,-2 -3,-12 -1,-14z"/>
   <path class="fil4" d="M3063 7266c7,-11 34,-21 48,-26l0 0 6 -2 0 0c167,-66 334,-131 500,-192 168,-62 337,-120 507,-174l4 -1 -70 -316 -5 2c-176,61 -351,123 -525,188 -177,66 -352,133 -523,201l-26 11 -7 -28 -86 -345c-5,-19 1,-37 12,-51 11,-15 29,-26 45,-31l0 0 128 -48 0 0c420,-156 841,-312 1265,-446l4 -1 -59 -315 -6 2c-238,76 -477,157 -715,242 -237,85 -473,173 -707,264 -100,39 -168,109 -207,194 -42,93 -49,204 -21,312l266 1041 0 0c3,12 7,23 11,34 31,81 81,144 145,181 63,36 141,46 226,21 10,-3 19,-6 29,-10l0 0 4 -2 0 0c437,-166 874,-332 1321,-467l4 -1 -67 -310 -5 2c-222,67 -444,141 -664,219 -220,78 -438,161 -654,248l0 0 -3 1 0 0c-7,3 -18,7 -29,10 -27,7 -54,5 -62,-29l-86 -342c0,-2 -2,-8 -2,-13 -1,-6 0,-13 3,-18l0 -1 1 -1zm65 21l0 0c-6,2 -13,2 -18,3l85 340c1,5 0,-7 2,-8 7,-2 16,-5 22,-8l0 0 4 -1 0 0c217,-88 435,-171 656,-249 220,-78 442,-151 667,-220l31 -9 26 -8 6 26 78 359 5 23 -22 7 -27 8c-447,135 -882,300 -1318,466l0 0 -4 2 0 0c-11,4 -22,8 -33,11 -99,29 -190,17 -265,-26 -74,-42 -132,-115 -167,-206 -5,-12 -9,-25 -13,-38l0 -1 -266 -1041c-30,-119 -23,-241 24,-345 44,-96 121,-175 234,-219 235,-92 471,-180 709,-265 236,-84 475,-165 717,-242l32 -10 27 -9 5 28 69 365 4 22 -21 7 -25 8c-427,135 -845,290 -1263,445l0 0 -128 48 -1 0c-8,3 -16,8 -22,15 -2,3 -4,6 -3,9l79 317c167,-66 333,-130 498,-191 175,-65 350,-128 526,-188l32 -11 26 -9 6 27 81 366 5 22 -22 7 -26 8c-170,53 -338,112 -505,173 -169,62 -335,127 -499,192l0 0c-2,1 -5,2 -7,3z"/>
   <path class="fil3" d="M4490 5993l284 1489 311 -94 -247 -1341 706 1006c52,74 121,168 225,151 118,-19 183,-70 217,-190l376 -1358 176 1374 316 -66 -185 -1506c-19,-150 -81,-310 -252,-329 -177,-20 -279,105 -322,264l-362 1336c-236,-358 -483,-708 -733,-1056 -67,-92 -183,-177 -301,-131 -209,81 -246,251 -207,454z"/>
   <path class="fil4" d="M4499 5991l282 1478 292 -89 -245 -1333 -8 -45 26 37 706 1006 0 0c26,36 55,78 91,108 35,29 75,47 123,39 57,-9 102,-26 135,-55 34,-29 57,-70 73,-128l376 -1358 13 -48 6 49 175 1363 297 -62 -184 -1497c-10,-82 -33,-167 -81,-229 -37,-49 -89,-83 -162,-91 -79,-9 -143,12 -193,53 -58,47 -97,120 -119,204l-362 1336 -6 21 -12 -18c-118,-179 -239,-356 -361,-532 -123,-177 -247,-351 -372,-524 -36,-50 -86,-97 -143,-122 -46,-20 -96,-25 -146,-6 -102,39 -161,100 -191,175 -30,76 -29,167 -10,267zm264 1493l-284 -1489c-20,-103 -20,-198 11,-278 31,-80 95,-145 202,-187 56,-22 111,-16 162,6 61,26 114,76 151,129 126,175 250,349 372,525 118,170 235,341 349,514l356 -1315c24,-87 65,-164 126,-214 54,-44 122,-67 207,-57 79,9 135,46 176,99 50,65 74,154 85,239l185 1506 1 9 -9 2 -316 66 -11 2 -1 -11 -170 -1325 -363 1310c-17,62 -43,107 -80,138 -37,31 -84,49 -145,59 -55,9 -101,-11 -140,-44 -38,-31 -68,-74 -95,-112l0 0 -679 -969 239 1296 2 9 -9 3 -311 94 -11 3 -2 -11z"/>
   <path class="fil3" d="M6747 5046l218 1894 310 -60 -67 -653 1125 -158c172,-24 317,-218 309,-388l-25 -501c-11,-216 -179,-383 -401,-355 -482,61 -962,131 -1440,216l-28 5zm420 818l-55 -507c379,-61 758,-119 1139,-161 23,-3 32,0 34,24l34 426c2,22 -4,54 -31,57 -376,41 -750,95 -1121,162z"/>
   <path class="fil4" d="M6775 5067l212 1844 261 -51 -65 -630 -2 -24 24 -3 1125 -158c78,-11 151,-60 203,-127 55,-69 88,-155 84,-236l-25 -501c-1,-11 -1,-21 -3,-31l0 0c-11,-89 -51,-167 -112,-222 -60,-54 -140,-86 -231,-81 -9,0 -19,1 -28,2l0 0c-241,30 -481,63 -721,99 -239,36 -479,75 -718,117l0 0 -5 1zm165 1876l-218 -1894 -3 -23 23 -4 28 -5 0 0c239,-43 479,-82 720,-117 241,-36 481,-69 722,-99l0 0c11,-1 21,-2 31,-3 105,-5 197,31 267,94 69,63 115,152 128,253l0 0c1,12 2,23 3,34l25 501c5,93 -33,191 -94,269 -60,76 -144,132 -236,145l-1101 155 65 629 2 23 -22 4 -310 60 -26 5 -3 -27zm203 -1076l-55 -507 -3 -23 23 -4c191,-31 381,-61 569,-88 190,-27 380,-52 572,-74 17,-2 29,-1 41,6 13,8 19,20 21,41l34 426c1,17 -1,37 -10,54 -9,16 -22,27 -44,30 -187,20 -373,44 -559,71 -188,27 -375,58 -560,91l-26 5 -3 -27zm-3 -489l50 457c179,-32 357,-61 535,-87 186,-27 373,-51 561,-71 2,0 4,-2 5,-4 4,-7 5,-17 4,-26l-34 -426c0,-3 5,-1 3,-2 0,0 -3,1 -9,1 -190,21 -380,46 -570,73 -183,26 -365,55 -545,84z"/>
   <path class="fil3" d="M8743 5247l51 963c11,210 197,447 423,437l957 -40c209,-9 388,-265 389,-463l3 -1000c1,-199 -204,-440 -409,-443 -334,-5 -666,14 -999,35 -240,16 -424,284 -414,511zm368 909l-42 -911c-3,-73 57,-134 129,-137l908 -40c83,-4 137,73 138,151l6 889c1,76 -60,125 -133,127 -291,6 -581,21 -871,43 -72,2 -131,-50 -135,-123z"/>
   <path class="fil4" d="M8768 5246l51 963c6,105 57,216 135,297 70,73 162,120 261,116l957 -40c92,-4 178,-60 244,-139 73,-87 121,-201 121,-299l3 -1000c0,-95 -50,-202 -126,-284 -72,-78 -166,-133 -259,-134 -166,-2 -333,1 -499,8 -165,7 -332,17 -499,28 -108,7 -204,69 -274,156 -77,94 -122,217 -117,329l0 0zm1 965l-51 -963 0 0c-5,-124 44,-259 128,-363 78,-97 187,-166 309,-174 166,-11 332,-21 500,-28 167,-7 333,-10 501,-8 107,1 214,63 295,150 84,91 140,210 140,318l-3 1000c0,110 -52,235 -133,331 -74,88 -173,152 -280,156l-957 40c-115,5 -220,-49 -299,-131 -87,-90 -143,-213 -149,-329zm316 -54l-42 -911 0 0 0 0c-2,-44 15,-83 43,-113 28,-29 67,-48 109,-50l0 0 0 0 0 0 908 -40 0 0 5 0 0 0c47,0 86,21 114,53 27,31 42,73 44,116l0 0c0,2 0,4 0,7l6 889c0,44 -17,81 -45,107 -29,27 -69,43 -113,44 -144,3 -290,9 -435,16 -144,7 -289,16 -435,27l-1 0c-43,1 -82,-14 -111,-40 -29,-26 -47,-63 -49,-107zm8 -913l0 0 42 911c1,29 14,54 33,72 19,18 46,28 75,27l0 0c144,-11 289,-20 436,-27 145,-7 290,-13 436,-16 31,-1 60,-12 80,-31 18,-17 30,-42 29,-71l-6 -889c0,-1 0,-3 0,-5 -1,-32 -13,-63 -32,-85 -18,-22 -44,-36 -75,-36l-4 0 0 0 -908 40 0 0 0 0 0 0c-29,1 -56,14 -75,35 -19,20 -31,47 -29,76l0 0z"/>
   <path class="fil3" d="M10697 4697l-6 1514c-1,231 134,402 369,406 450,8 897,32 1345,74l31 3 16 -367 -27 -3c-457,-57 -925,-67 -1385,-83 -24,-1 -39,-14 -39,-38l21 -1501 -326 -5z"/>
   <path class="fil4" d="M10722 4722l-6 1489c0,112 32,208 94,276 58,64 143,103 251,105 226,4 451,12 674,24 224,12 448,29 673,50l0 0 5 1 14 -318 -5 -1c-408,-51 -825,-64 -1236,-78 -49,-2 -98,-3 -146,-5 -18,-1 -34,-7 -46,-18 -11,-11 -18,-26 -18,-46l21 -1476 -276 -4zm-56 1489l6 -1514 0 -25 25 0 326 5 25 0 0 25 -21 1501c0,5 1,8 3,9 2,2 7,4 12,4 49,2 98,3 146,5 414,13 832,27 1241,78l27 3 23 3 -1 23 -16 367 -1 26 -26 -2 -31 -3 0 0c-223,-21 -447,-38 -671,-50 -224,-12 -448,-20 -673,-24 -122,-2 -220,-47 -287,-121 -70,-77 -107,-185 -107,-310z"/>
   <polygon class="fil3" points="12675,4801 12550,6707 12863,6741 13000,4831 "/>
   <path class="fil4" d="M12698 4828l-122 1857 263 28 134 -1859 -275 -26zm-173 1877l125 -1906 2 -26 25 2 325 30 24 2 -2 24 -137 1909 -2 26 -26 -3 -313 -34 -24 -3 2 -24z"/>
   <path class="fil3" d="M13732 5325l-147 1512 316 57 78 -767c356,66 711,136 1063,219l33 8 43 -371 -26 -6c-355,-84 -714,-150 -1073,-214l37 -365c3,-27 18,-30 43,-26 476,85 954,186 1422,306l32 8 55 -372 -27 -6c-476,-116 -956,-215 -1438,-304 -197,-36 -391,126 -410,320z"/>
   <path class="fil4" d="M13757 5328l-145 1490 267 48 75 -740 3 -27 27 5c178,33 356,67 533,103 179,37 356,75 531,116l6 1 37 -321 -4 -1c-177,-42 -355,-79 -534,-114 -178,-35 -358,-67 -537,-99l-23 -4 2 -23 37 -365c2,-23 12,-37 27,-45l0 0c13,-6 28,-6 45,-3l0 0c243,43 487,91 731,144 233,50 464,104 693,163l5 1 47 -322 -4 -1c-237,-58 -476,-112 -716,-162 -240,-50 -480,-97 -720,-142 -8,-1 -16,-3 -24,-3 -82,-8 -163,21 -227,72 -64,51 -111,124 -126,204 -2,8 -3,17 -4,25zm-197 1508l147 -1512c1,-10 2,-20 4,-30 17,-93 71,-176 144,-235 74,-58 167,-91 263,-82 9,1 19,2 28,4 241,45 482,92 722,142 240,50 479,104 718,162l27 6 22 5 -3 22 -55 372 -4 27 -27 -7 -32 -8c-229,-59 -460,-113 -691,-162 -242,-52 -486,-100 -730,-143l0 0c-7,-1 -13,-2 -14,-1l0 0c-1,0 1,1 0,5l-34 342c172,31 344,62 516,96 179,35 358,73 536,115l26 6 22 5 -3 22 -43 371 -3 28 -27 -6 -33 -8c-177,-42 -354,-80 -529,-116 -168,-34 -337,-67 -506,-98l-75 740 -3 27 -26 -5 -316 -57 -23 -4 2 -23z"/>
   <polygon class="fil3" points="15486,6859 15431,7224 15741,7302 15798,6945 "/>
   <path class="fil4" d="M15507 6890l-48 315 262 66 48 -308 -263 -73zm-101 330l55 -366 4 -28 27 8 311 86 21 6 -3 22 -56 357 -4 27 -26 -7 -311 -78 -22 -6 3 -22z"/>
   <path class="fil3" d="M16114 5857l-191 1107c-38,221 60,420 285,481 171,47 340,100 508,155 271,89 543,185 810,289l32 12 86 -358 -24 -10c-446,-174 -903,-322 -1362,-457 -25,-7 -24,-59 -21,-79l193 -1029c5,-25 17,-39 44,-31 470,145 937,299 1397,475l32 12 87 -356 -25 -9c-473,-179 -952,-340 -1436,-484 -133,-45 -271,23 -351,132 -32,44 -55,95 -64,149z"/>
   <path class="fil4" d="M16138 5861l-191 1107c-19,108 -3,209 45,291 45,76 120,135 223,163 86,24 172,49 256,74 86,26 170,53 254,81 136,45 272,91 407,139 135,48 269,98 404,150l5 2 74 -309 -4 -2c-223,-87 -448,-167 -675,-242 -226,-75 -455,-146 -685,-213l0 0c-20,-6 -31,-23 -36,-43 -6,-22 -5,-50 -2,-64l193 -1029c3,-18 11,-33 23,-43 14,-11 31,-14 53,-8 235,72 470,147 703,226 233,79 465,161 695,250l5 2 75 -307 -4 -2c-236,-89 -473,-174 -712,-254 -239,-80 -480,-157 -723,-229l-1 0c-58,-19 -117,-15 -171,5 -60,23 -114,65 -152,118 -15,21 -28,43 -38,67 -10,23 -17,47 -21,71zm-240 1099l191 -1107c5,-29 13,-56 25,-83 12,-27 27,-53 44,-77 44,-61 106,-110 175,-136 64,-24 134,-29 203,-6l0 0c242,72 483,149 724,230 240,81 478,166 714,255l25 9 21 8 -5 21 -87 356 -7 28 -26 -10 -32 -12c-229,-88 -460,-170 -693,-249 -233,-79 -467,-153 -702,-226 -4,-1 -7,-2 -7,-1 -2,2 -4,6 -5,13l-193 1029c-2,9 -3,28 1,42 1,5 2,8 2,8l0 0c229,67 458,138 686,214 228,76 454,157 677,243l24 10 20 8 -5 21 -86 358 -7 28 -27 -10 -32 -12c-132,-51 -266,-101 -402,-149 -135,-48 -271,-94 -406,-139 -85,-28 -169,-55 -253,-81 -85,-26 -170,-51 -254,-74 -116,-32 -201,-98 -252,-185 -54,-91 -72,-205 -51,-324z"/>
   <polygon class="fil3" points="17761,7591 17671,7946 17975,8064 18061,7708 "/>
   <path class="fil4" d="M17779 7625l-78 306 257 99 74 -307 -253 -99zm-132 316l90 -355 7 -27 26 10 300 117 20 8 -5 21 -86 356 -7 28 -27 -10 -304 -117 -21 -8 5 -21z"/>
  </g>
 </g>
</svg>