<?xml version="1.0" encoding="UTF-8" standalone="no"?>
<!DOCTYPE svg PUBLIC "-//W3C//DTD SVG 1.1//EN" "http://www.w3.org/Graphics/SVG/1.1/DTD/svg11.dtd">
<svg xmlns="http://www.w3.org/2000/svg" version="1.1" viewBox="0 0 200 200" width="200.0pt" height="200.0pt">
<path d="M 0.00 0.00 L 200.00 0.00 L 200.00 200.00 L 0.00 200.00 L 0.00 0.00 Z" fill="none"/>
<path d="M 101.77 3.03 C 103.17 4.28 104.49 5.61 105.89 6.86 C 107.18 6.77 108.47 6.70 109.75 6.63 C 110.15 9.97 111.45 10.38 113.92 12.15 C 113.95 13.35 113.89 14.55 113.73 15.76 L 112.07 15.94 C 111.97 14.82 111.87 13.70 111.76 12.58 C 109.46 11.34 109.25 10.93 108.47 8.45 C 105.91 8.23 104.01 7.50 101.78 6.30 C 98.85 6.71 97.32 8.37 95.26 10.24 C 94.22 11.49 90.73 10.76 90.88 12.72 L 93.06 13.27 C 92.20 13.82 91.67 14.58 90.57 14.48 C 90.01 13.93 89.50 13.34 89.02 12.72 C 88.81 11.29 89.73 10.57 90.37 9.40 C 91.50 9.61 92.64 9.82 93.77 10.02 C 94.75 9.01 95.73 8.00 96.72 7.00 C 96.67 6.06 96.62 5.12 96.57 4.18 C 97.62 4.65 98.66 5.13 99.70 5.61 C 100.38 4.74 101.05 3.86 101.77 3.03 Z" fill="#2e362b"/>
<path d="M 101.78 6.30 C 104.01 7.50 105.91 8.23 108.47 8.45 C 109.25 10.93 109.46 11.34 111.76 12.58 C 111.87 13.70 111.97 14.82 112.07 15.94 C 109.91 15.92 108.57 17.11 106.83 18.16 C 106.11 16.10 105.71 14.20 105.63 12.02 C 104.75 12.97 103.88 13.98 102.86 14.78 C 101.31 15.31 99.53 15.20 97.91 15.33 C 98.64 14.53 99.38 13.74 100.12 12.95 C 98.08 12.55 95.46 10.75 93.79 12.71 L 93.06 13.27 L 90.88 12.72 C 90.73 10.76 94.22 11.49 95.26 10.24 C 97.32 8.37 98.85 6.71 101.78 6.30 Z" fill="#00ab4e"/>
<path d="M 100.25 8.04 C 102.13 7.41 102.87 9.46 101.02 10.18 C 99.16 10.53 98.60 8.96 100.25 8.04 Z" fill="#035727"/>
<path d="M 78.90 8.74 C 82.43 9.03 83.91 11.50 86.68 13.22 C 86.52 11.97 86.37 10.72 86.21 9.47 C 87.22 10.50 88.14 11.58 89.02 12.72 C 89.50 13.34 90.01 13.93 90.57 14.48 C 91.67 14.58 92.20 13.82 93.06 13.27 L 93.79 12.71 C 94.95 12.85 96.11 12.99 97.26 13.15 C 95.70 14.20 94.10 15.21 92.45 16.12 C 90.50 17.07 88.14 18.65 85.92 18.43 C 85.19 17.60 84.54 16.70 83.98 15.73 C 81.89 16.68 80.07 17.13 77.76 17.24 C 77.42 15.42 77.04 13.61 76.64 11.80 C 78.05 12.54 79.44 13.30 80.92 13.90 C 81.35 12.19 79.55 10.26 78.90 8.74 Z" fill="#d18a26"/>
<path d="M 100.12 12.95 C 99.38 13.74 98.64 14.53 97.91 15.33 C 99.53 15.20 101.31 15.31 102.86 14.78 C 103.88 13.98 104.75 12.97 105.63 12.02 C 105.71 14.20 106.11 16.10 106.83 18.16 C 106.30 18.42 105.77 18.68 105.23 18.92 C 104.90 18.11 104.57 17.30 104.24 16.49 C 101.88 16.76 99.51 16.93 97.14 17.07 C 96.11 17.54 95.05 17.95 93.98 18.31 C 93.45 17.59 92.94 16.86 92.45 16.12 C 94.10 15.21 95.70 14.20 97.26 13.15 C 96.11 12.99 94.95 12.85 93.79 12.71 C 95.46 10.75 98.08 12.55 100.12 12.95 Z" fill="#203c24"/>
<path d="M 112.07 15.94 L 113.73 15.76 C 116.33 17.70 120.04 18.60 121.97 21.15 C 121.63 22.27 121.11 23.33 120.42 24.33 C 118.29 25.47 116.07 26.46 113.85 27.41 C 114.28 26.17 114.74 24.95 115.23 23.74 L 115.58 23.51 L 115.14 23.30 L 113.76 22.61 L 113.13 22.29 C 112.83 22.79 112.53 23.28 112.23 23.78 C 110.34 23.72 108.45 23.70 106.56 23.72 L 104.98 23.73 C 100.97 23.72 97.02 24.37 92.99 24.07 C 88.37 23.75 84.17 25.39 79.53 24.29 C 78.67 26.15 78.01 26.10 76.21 26.70 C 76.45 27.11 76.69 27.52 76.94 27.93 C 76.47 28.34 76.02 28.76 75.57 29.20 C 72.91 27.17 70.43 25.42 69.21 22.14 C 70.37 20.60 71.31 18.93 72.34 17.31 C 76.50 16.91 80.77 19.60 84.98 19.32 C 87.41 19.02 89.52 18.24 91.99 18.64 C 96.39 19.26 100.82 19.36 105.23 18.92 C 105.77 18.68 106.30 18.42 106.83 18.16 C 108.57 17.11 109.91 15.92 112.07 15.94 Z" fill="#ee1b23"/>
<path d="M 79.20 19.88 C 81.65 20.13 84.01 20.69 86.40 21.24 C 89.07 19.12 92.65 19.92 95.82 19.85 C 95.55 20.93 95.29 22.02 95.03 23.11 C 93.53 21.41 93.24 20.69 90.75 20.74 C 91.57 21.56 92.40 22.38 93.24 23.19 C 91.66 23.07 90.07 22.95 88.49 22.86 C 85.72 24.23 83.02 23.77 80.14 23.05 C 79.79 22.00 79.47 20.94 79.20 19.88 Z" fill="#f9a6a2"/>
<path d="M 97.82 20.09 C 99.70 21.82 99.10 24.03 96.41 22.89 C 95.69 21.77 96.96 20.67 97.82 20.09 Z" fill="#fbbfbb"/>
<path d="M 113.13 22.29 L 113.76 22.61 C 112.44 27.04 112.97 31.14 112.81 35.76 C 111.25 36.23 110.16 36.16 109.54 37.91 C 109.70 39.09 109.89 40.27 110.11 41.44 C 110.15 42.15 110.18 42.86 110.21 43.58 C 109.22 42.20 108.38 40.73 107.56 39.25 C 106.10 40.67 104.79 42.10 102.97 43.05 C 101.07 42.39 99.51 40.81 98.00 39.50 C 98.88 39.44 99.75 39.39 100.63 39.34 C 101.66 39.87 102.74 40.54 103.88 40.82 C 105.76 40.08 106.51 36.94 104.66 35.54 C 102.81 33.86 101.37 31.49 98.50 32.55 C 96.98 33.79 95.56 35.12 93.90 36.20 C 93.78 35.19 93.65 34.18 93.50 33.17 C 92.65 35.10 92.10 37.10 91.60 39.14 C 91.05 40.91 90.53 42.74 88.83 43.75 C 87.52 44.05 86.03 43.09 84.78 42.75 C 84.38 43.51 83.96 44.27 83.55 45.02 L 83.46 45.05 C 82.84 44.64 82.22 44.23 81.60 43.83 C 83.13 42.63 83.65 40.78 85.88 41.33 C 87.38 41.29 88.68 42.18 89.74 40.77 C 90.57 37.97 89.66 35.75 86.42 36.30 C 86.10 35.63 85.77 34.96 85.43 34.29 C 82.19 34.37 81.39 34.25 80.30 37.60 C 79.54 38.22 78.78 38.85 78.01 39.47 C 77.05 37.10 75.07 32.32 77.21 30.22 C 80.82 29.50 84.61 33.03 88.05 33.99 C 91.06 32.68 93.27 29.75 96.25 28.34 C 98.27 27.78 100.49 28.07 102.51 27.53 C 104.43 26.79 105.33 25.26 106.56 23.72 C 108.45 23.70 110.34 23.72 112.23 23.78 C 112.53 23.28 112.83 22.79 113.13 22.29 Z" fill="#00ab4e"/>
<path d="M 104.98 23.73 C 103.94 24.36 102.92 25.07 101.84 25.63 C 100.23 25.81 98.59 25.40 96.98 25.47 C 93.38 26.70 90.93 29.08 88.04 31.41 C 84.34 29.61 81.29 27.49 76.94 27.93 C 76.69 27.52 76.45 27.11 76.21 26.70 C 78.01 26.10 78.67 26.15 79.53 24.29 C 84.17 25.39 88.37 23.75 92.99 24.07 C 97.02 24.37 100.97 23.72 104.98 23.73 Z" fill="#ffffff"/>
<path d="M 113.76 22.61 L 115.14 23.30 L 115.23 23.74 C 114.74 24.95 114.28 26.17 113.85 27.41 C 116.07 26.46 118.29 25.47 120.42 24.33 C 122.24 25.96 123.50 27.07 123.71 29.65 C 123.12 31.69 122.47 33.70 122.00 35.77 C 121.67 36.92 121.36 38.07 121.06 39.23 L 119.74 37.86 C 120.02 34.54 122.64 30.49 121.70 27.31 C 119.87 24.68 118.00 26.93 116.15 28.18 C 114.75 29.22 115.17 30.63 114.83 32.18 C 115.89 31.58 116.95 30.98 118.01 30.38 C 117.34 31.55 116.65 32.70 115.84 33.78 C 114.93 34.64 114.09 35.54 113.27 36.48 L 112.81 35.76 C 112.97 31.14 112.44 27.04 113.76 22.61 Z" fill="#1c2717"/>
<path d="M 115.14 23.30 L 115.58 23.51 L 115.23 23.74 L 115.14 23.30 Z" fill="#c19a9e"/>
<path d="M 104.98 23.73 L 106.56 23.72 C 105.33 25.26 104.43 26.79 102.51 27.53 C 100.49 28.07 98.27 27.78 96.25 28.34 C 93.27 29.75 91.06 32.68 88.05 33.99 C 84.61 33.03 80.82 29.50 77.21 30.22 C 75.07 32.32 77.05 37.10 78.01 39.47 C 78.91 41.64 79.45 42.72 81.60 43.83 C 82.22 44.23 82.84 44.64 83.46 45.05 C 82.67 45.29 81.89 45.53 81.11 45.78 C 80.42 45.01 79.73 44.25 79.04 43.49 C 77.22 41.57 75.85 39.56 75.04 37.02 C 74.72 34.74 74.54 32.45 74.70 30.16 L 75.57 29.20 C 76.02 28.76 76.47 28.34 76.94 27.93 C 81.29 27.49 84.34 29.61 88.04 31.41 C 90.93 29.08 93.38 26.70 96.98 25.47 C 98.59 25.40 100.23 25.81 101.84 25.63 C 102.92 25.07 103.94 24.36 104.98 23.73 Z" fill="#191c13"/>
<path d="M 121.70 27.31 C 122.64 30.49 120.02 34.54 119.74 37.86 L 119.47 37.54 C 119.16 36.78 118.87 36.02 118.59 35.25 C 117.68 34.75 116.76 34.26 115.84 33.78 C 116.65 32.70 117.34 31.55 118.01 30.38 C 116.95 30.98 115.89 31.58 114.83 32.18 C 115.17 30.63 114.75 29.22 116.15 28.18 C 118.00 26.93 119.87 24.68 121.70 27.31 Z" fill="#00ab4e"/>
<path d="M 131.16 27.75 C 132.08 29.87 131.45 31.72 131.28 33.92 C 132.96 34.50 134.68 34.97 136.40 35.44 C 134.95 36.95 133.11 37.17 131.18 37.66 C 128.71 38.12 127.23 38.45 125.51 40.35 C 124.59 40.60 123.66 40.84 122.74 41.08 C 122.59 39.29 122.31 37.53 122.00 35.77 C 122.47 33.70 123.12 31.69 123.71 29.65 C 125.15 30.82 126.59 32.01 128.00 33.22 C 128.99 31.36 130.02 29.53 131.16 27.75 Z" fill="#ee1b23"/>
<path d="M 65.00 29.99 C 67.84 29.74 69.93 31.10 72.23 32.55 C 73.08 31.78 73.92 31.00 74.70 30.16 C 74.54 32.45 74.72 34.74 75.04 37.02 C 74.36 37.43 73.68 37.85 73.00 38.26 C 70.16 37.38 68.48 37.06 65.63 38.31 C 66.39 36.59 67.16 34.89 67.95 33.18 C 66.94 32.14 65.94 31.09 65.00 29.99 Z" fill="#ee1b23"/>
<path d="M 98.50 32.55 C 101.37 31.49 102.81 33.86 104.66 35.54 C 106.51 36.94 105.76 40.08 103.88 40.82 C 102.74 40.54 101.66 39.87 100.63 39.34 C 99.75 39.39 98.88 39.44 98.00 39.50 C 99.51 40.81 101.07 42.39 102.97 43.05 C 104.79 42.10 106.10 40.67 107.56 39.25 C 108.38 40.73 109.22 42.20 110.21 43.58 C 111.54 44.81 112.34 43.70 113.55 43.00 C 115.50 44.09 116.75 45.57 119.20 44.96 C 119.98 45.00 120.62 44.56 121.13 43.64 C 122.80 46.04 123.19 46.60 126.23 46.88 C 123.96 50.87 121.22 54.60 119.51 58.77 C 117.96 59.34 116.42 59.94 114.89 60.53 C 115.66 59.65 116.43 58.76 117.19 57.86 C 110.86 55.79 104.57 55.93 98.00 55.91 C 92.49 55.95 87.11 56.20 81.85 58.00 C 82.99 59.01 84.13 60.00 85.33 60.95 C 83.27 60.52 81.40 59.98 79.86 58.48 L 79.77 58.34 C 77.62 54.61 75.22 51.07 73.31 47.20 C 74.24 46.91 75.14 46.56 76.02 46.16 C 77.06 44.79 76.99 43.52 79.04 43.49 C 79.73 44.25 80.42 45.01 81.11 45.78 L 79.18 46.42 C 79.54 47.53 79.93 48.61 80.32 49.71 C 88.53 48.09 96.71 47.98 105.03 47.97 C 110.82 48.12 116.42 49.36 121.96 50.99 C 122.60 48.70 123.51 47.64 120.97 46.22 C 118.13 46.49 116.45 46.68 113.93 45.09 C 110.20 45.09 109.39 44.47 106.86 41.98 C 105.86 42.73 104.91 43.51 104.00 44.36 C 102.63 43.96 101.26 43.57 99.88 43.19 C 98.59 43.51 97.32 43.85 96.00 44.02 C 94.71 43.49 93.52 42.80 92.27 42.18 C 91.19 43.07 90.22 44.26 88.97 44.89 C 87.18 45.06 85.35 44.99 83.55 45.02 C 83.96 44.27 84.38 43.51 84.78 42.75 C 86.03 43.09 87.52 44.05 88.83 43.75 C 90.53 42.74 91.05 40.91 91.60 39.14 C 92.49 39.85 93.37 40.56 94.26 41.26 C 94.15 39.58 94.05 37.89 93.90 36.20 C 95.56 35.12 96.98 33.79 98.50 32.55 Z" fill="#b57331"/>
<path d="M 93.50 33.17 C 93.65 34.18 93.78 35.19 93.90 36.20 C 94.05 37.89 94.15 39.58 94.26 41.26 C 93.37 40.56 92.49 39.85 91.60 39.14 C 92.10 37.10 92.65 35.10 93.50 33.17 Z" fill="#143f1d"/>
<path d="M 85.43 34.29 C 85.77 34.96 86.10 35.63 86.42 36.30 C 89.66 35.75 90.57 37.97 89.74 40.77 C 88.68 42.18 87.38 41.29 85.88 41.33 C 83.65 40.78 83.13 42.63 81.60 43.83 C 79.45 42.72 78.91 41.64 78.01 39.47 C 78.78 38.85 79.54 38.22 80.30 37.60 C 81.39 34.25 82.19 34.37 85.43 34.29 Z" fill="#b77432"/>
<path d="M 115.84 33.78 C 116.76 34.26 117.68 34.75 118.59 35.25 C 118.87 36.02 119.16 36.78 119.47 37.54 L 119.74 37.86 L 121.06 39.23 C 120.95 40.22 120.86 41.22 120.79 42.22 C 119.70 42.66 119.02 43.37 118.74 44.35 C 117.82 43.22 116.82 42.15 115.78 41.14 C 114.79 41.11 113.79 41.12 112.80 41.15 C 111.90 41.22 111.01 41.32 110.11 41.44 C 109.89 40.27 109.70 39.09 109.54 37.91 C 110.16 36.16 111.25 36.23 112.81 35.76 L 113.27 36.48 C 114.09 35.54 114.93 34.64 115.84 33.78 Z" fill="#b67431"/>
<path d="M 69.96 37.69 C 71.47 38.10 72.39 39.12 73.50 40.13 C 76.96 41.07 77.36 43.54 75.03 46.14 C 74.30 45.12 73.58 44.10 72.87 43.08 C 72.05 42.26 71.24 41.45 70.43 40.63 C 69.14 40.58 67.74 41.53 67.15 39.96 C 67.88 38.81 68.81 38.06 69.96 37.69 Z" fill="#b57330"/>
<path d="M 131.18 37.66 C 131.47 38.66 131.67 39.67 131.75 40.69 C 130.48 42.36 128.84 43.04 126.90 43.62 C 126.00 44.49 125.02 45.18 123.97 45.68 C 121.87 44.65 122.83 42.92 122.74 41.08 C 123.66 40.84 124.59 40.60 125.51 40.35 C 127.23 38.45 128.71 38.12 131.18 37.66 Z" fill="#b57131"/>
<path d="M 110.11 41.44 C 111.01 41.32 111.90 41.22 112.80 41.15 L 113.55 43.00 C 112.34 43.70 111.54 44.81 110.21 43.58 C 110.18 42.86 110.15 42.15 110.11 41.44 Z" fill="#34451e"/>
<path d="M 112.80 41.15 C 113.79 41.12 114.79 41.11 115.78 41.14 C 116.82 42.15 117.82 43.22 118.74 44.35 L 119.20 44.96 C 116.75 45.57 115.50 44.09 113.55 43.00 L 112.80 41.15 Z" fill="#1aa149"/>
<path d="M 92.27 42.18 C 93.52 42.80 94.71 43.49 96.00 44.02 C 97.32 43.85 98.59 43.51 99.88 43.19 C 101.26 43.57 102.63 43.96 104.00 44.36 C 103.66 44.79 103.34 45.24 103.01 45.68 C 103.69 46.44 104.36 47.21 105.03 47.97 C 96.71 47.98 88.53 48.09 80.32 49.71 C 79.93 48.61 79.54 47.53 79.18 46.42 L 81.11 45.78 C 81.89 45.53 82.67 45.29 83.46 45.05 L 83.55 45.02 C 85.35 44.99 87.18 45.06 88.97 44.89 C 90.22 44.26 91.19 43.07 92.27 42.18 Z" fill="#e2ab3a"/>
<path d="M 106.86 41.98 C 109.39 44.47 110.20 45.09 113.93 45.09 C 116.45 46.68 118.13 46.49 120.97 46.22 C 123.51 47.64 122.60 48.70 121.96 50.99 C 116.42 49.36 110.82 48.12 105.03 47.97 C 104.36 47.21 103.69 46.44 103.01 45.68 C 103.34 45.24 103.66 44.79 104.00 44.36 C 104.91 43.51 105.86 42.73 106.86 41.98 Z" fill="#f2c74d"/>
<path d="M 120.79 42.22 L 121.13 43.64 C 120.62 44.56 119.98 45.00 119.20 44.96 L 118.74 44.35 C 119.02 43.37 119.70 42.66 120.79 42.22 Z" fill="#5b4c41"/>
<path d="M 129.09 47.18 C 130.59 46.67 131.20 49.04 131.74 49.97 L 129.11 50.20 C 129.72 51.50 130.33 52.77 130.87 54.10 C 131.19 55.34 131.45 56.58 131.69 57.83 C 129.41 55.49 127.34 52.98 125.25 50.47 C 126.41 49.29 127.65 48.00 129.09 47.18 Z" fill="#d69a3d"/>
<path d="M 69.97 47.25 C 72.63 47.94 74.59 51.12 76.29 53.11 C 75.12 54.01 73.93 54.90 72.74 55.77 C 71.58 57.50 70.36 59.15 69.04 60.77 C 66.61 59.15 64.35 57.56 62.91 54.94 C 63.41 52.95 65.91 51.71 67.35 50.40 C 68.23 49.35 69.06 48.27 69.97 47.25 Z" fill="#d39533"/>
<path d="M 103.69 50.05 C 103.60 51.27 103.52 52.50 103.44 53.72 C 98.09 53.53 92.75 53.90 87.40 53.81 C 87.39 52.99 87.37 52.17 87.36 51.35 C 92.75 50.18 98.19 50.01 103.69 50.05 Z" fill="#e7b441"/>
<path d="M 105.39 50.15 C 110.60 50.39 115.76 50.90 120.81 52.30 C 120.21 53.54 119.61 54.78 119.01 56.02 C 117.46 55.59 115.92 55.16 114.38 54.73 C 114.03 53.57 113.68 52.42 113.34 51.27 C 112.57 52.23 111.76 53.15 110.91 54.03 C 109.13 54.10 107.32 53.90 105.55 53.77 C 105.50 52.56 105.45 51.35 105.39 50.15 Z" fill="#f3c94f"/>
<path d="M 129.11 50.20 L 131.74 49.97 C 133.07 50.86 134.42 51.68 135.61 52.78 C 134.70 56.01 133.27 54.20 130.87 54.10 C 130.33 52.77 129.72 51.50 129.11 50.20 Z" fill="#e9b13e"/>
<path d="M 94.11 51.18 C 95.88 49.93 96.97 52.75 94.93 53.21 C 93.81 52.91 93.54 52.23 94.11 51.18 Z" fill="#b67431"/>
<path d="M 125.25 50.47 C 127.34 52.98 129.41 55.49 131.69 57.83 C 131.45 56.58 131.19 55.34 130.87 54.10 C 133.27 54.20 134.70 56.01 135.61 52.78 C 136.12 53.25 136.63 53.73 137.13 54.21 C 136.07 55.77 134.97 57.30 133.80 58.79 L 133.31 59.41 C 132.01 59.62 130.86 60.45 129.81 59.22 C 127.93 56.81 126.12 54.99 123.79 53.02 C 124.23 52.15 124.72 51.30 125.25 50.47 Z" fill="#ba7d3d"/>
<path d="M 82.05 52.18 C 84.96 50.90 84.83 53.03 85.96 54.96 C 83.67 54.66 81.23 55.63 82.05 52.18 Z" fill="#d79834"/>
<path d="M 98.00 55.91 C 104.57 55.93 110.86 55.79 117.19 57.86 C 116.43 58.76 115.66 59.65 114.89 60.53 C 114.08 60.88 113.27 61.23 112.47 61.57 C 111.55 61.53 110.64 61.50 109.73 61.49 C 101.67 61.68 93.32 62.07 85.33 60.95 C 84.13 60.00 82.99 59.01 81.85 58.00 C 87.11 56.20 92.49 55.95 98.00 55.91 Z" fill="#70511e"/>
<path d="M 79.77 58.34 L 79.86 58.48 C 81.40 59.98 83.27 60.52 85.33 60.95 C 93.32 62.07 101.67 61.68 109.73 61.49 C 97.78 62.12 85.43 61.06 73.50 62.04 C 73.72 78.02 73.51 94.01 73.61 110.00 C 73.66 113.19 73.52 116.38 73.38 119.56 C 72.47 118.64 71.55 117.74 70.61 116.86 C 69.46 116.29 68.34 115.66 67.22 115.03 C 68.16 114.64 69.08 114.23 70.01 113.82 C 69.82 112.17 69.62 110.53 69.36 108.88 L 69.22 107.90 C 69.45 106.60 69.70 105.31 69.96 104.02 C 68.43 103.62 66.90 103.23 65.38 102.83 C 66.54 102.45 67.70 102.05 68.85 101.64 C 69.43 98.55 71.63 95.55 68.59 93.09 C 68.80 91.82 69.02 90.55 69.24 89.28 C 68.54 89.40 67.83 89.51 67.12 89.61 C 66.63 88.87 66.14 88.13 65.66 87.39 C 67.08 87.15 68.50 86.90 69.92 86.65 C 69.65 83.08 69.03 79.76 69.94 76.21 C 67.21 75.84 64.55 75.69 61.82 76.14 C 62.02 79.49 61.78 82.74 61.54 86.08 C 62.55 86.79 63.75 87.25 65.13 87.46 C 64.66 87.97 64.19 88.48 63.73 89.00 C 62.92 89.16 62.12 89.32 61.32 89.48 C 59.75 93.13 59.61 96.84 59.59 100.75 C 61.37 101.36 63.04 102.09 64.68 103.02 C 63.68 103.22 62.72 103.51 61.79 103.88 C 60.95 104.69 61.94 106.90 61.95 108.00 C 61.69 109.96 61.45 111.93 61.22 113.89 C 62.68 114.26 64.13 114.59 65.60 114.88 C 64.58 116.47 63.31 118.14 62.78 119.97 C 63.24 120.79 63.74 121.58 64.24 122.36 C 62.80 123.61 63.38 125.02 63.21 126.71 C 66.08 128.48 67.74 130.80 71.41 129.30 C 69.97 126.15 66.25 122.82 66.37 119.29 C 67.28 118.26 68.41 120.43 68.95 121.05 C 70.17 123.35 69.39 125.76 71.77 127.47 C 72.11 126.35 72.46 125.24 72.84 124.13 L 73.86 125.19 C 73.31 126.68 73.02 128.22 72.87 129.79 C 73.03 130.93 73.19 132.06 73.36 133.19 C 74.74 148.65 76.47 164.68 84.97 178.13 C 87.33 182.26 91.27 184.55 94.09 188.22 C 80.89 187.06 67.33 181.59 57.94 172.07 C 46.32 160.79 40.32 143.81 38.63 128.00 C 37.72 116.64 37.60 105.74 41.37 94.83 C 42.75 90.27 45.14 86.22 46.93 81.84 C 41.76 89.21 39.09 98.71 37.82 107.54 C 36.01 126.89 39.60 148.17 50.68 164.46 C 59.04 176.89 72.38 184.96 86.98 187.80 C 89.41 188.43 91.79 188.22 93.63 190.08 C 85.69 192.84 75.28 192.44 67.44 189.49 C 42.81 177.21 27.14 149.96 29.04 122.47 C 29.81 106.30 36.53 91.14 47.09 79.00 C 47.62 79.21 48.16 79.42 48.69 79.64 C 51.57 75.07 54.99 70.98 59.68 68.20 C 59.65 69.82 59.64 71.44 59.62 73.06 C 62.63 73.55 65.73 73.92 68.78 73.79 C 69.96 71.46 71.05 67.78 69.13 65.61 C 68.36 64.77 68.97 63.65 69.00 62.65 C 72.52 61.03 76.13 59.65 79.77 58.34 Z" fill="#00518b"/>
<path d="M 65.85 58.93 C 66.23 60.00 66.61 61.08 66.98 62.15 C 67.77 61.72 68.57 61.29 69.37 60.86 L 69.00 62.65 C 68.97 63.65 68.36 64.77 69.13 65.61 C 71.05 67.78 69.96 71.46 68.78 73.79 C 65.73 73.92 62.63 73.55 59.62 73.06 C 59.64 71.44 59.65 69.82 59.68 68.20 C 59.96 65.88 60.65 63.69 61.30 61.45 C 63.91 62.13 64.21 60.39 65.85 58.93 Z" fill="#00ab4e"/>
<path d="M 119.51 58.77 C 123.27 59.44 126.47 61.02 130.00 62.37 C 130.22 63.41 130.46 64.44 130.70 65.47 C 130.15 65.50 129.61 65.52 129.06 65.55 C 128.96 68.42 129.26 70.76 130.21 73.47 C 131.39 74.07 132.63 74.19 133.32 75.39 C 132.04 75.76 130.75 76.12 129.46 76.49 C 130.02 80.00 129.70 83.47 129.73 87.00 C 130.88 87.10 132.04 87.20 133.20 87.30 C 132.98 88.11 132.76 88.93 132.55 89.74 C 131.68 89.55 130.81 89.35 129.94 89.16 C 130.11 90.30 130.29 91.44 130.46 92.58 C 127.58 94.94 129.65 98.48 130.30 101.41 C 131.32 101.93 132.34 102.45 133.36 102.98 C 132.32 103.14 131.28 103.34 130.26 103.57 C 128.70 104.22 129.99 106.76 129.98 108.02 C 129.88 109.86 129.14 112.19 129.84 113.93 C 130.68 114.37 131.54 114.76 132.41 115.12 C 131.11 115.72 129.82 116.31 128.50 116.85 C 127.54 117.97 126.58 119.10 125.67 120.26 C 125.70 100.81 125.62 81.36 125.73 61.92 C 121.31 61.59 116.89 61.79 112.47 61.57 C 113.27 61.23 114.08 60.88 114.89 60.53 C 116.42 59.94 117.96 59.34 119.51 58.77 Z" fill="#00518b"/>
<path d="M 133.31 59.41 L 133.80 58.79 C 134.53 59.87 135.22 60.97 135.92 62.07 C 136.53 61.74 137.15 61.41 137.76 61.07 C 138.51 63.48 139.22 65.90 139.89 68.33 C 139.50 69.91 139.42 71.47 139.44 73.08 C 137.93 73.45 136.41 73.82 134.91 74.24 L 134.96 76.62 L 133.32 75.39 C 132.63 74.19 131.39 74.07 130.21 73.47 C 129.26 70.76 128.96 68.42 129.06 65.55 C 129.61 65.52 130.15 65.50 130.70 65.47 C 130.46 64.44 130.22 63.41 130.00 62.37 L 129.76 61.10 C 130.68 61.38 131.60 61.65 132.52 61.92 C 132.77 61.08 133.03 60.24 133.31 59.41 Z" fill="#00ab4e"/>
<path d="M 109.73 61.49 C 110.64 61.50 111.55 61.53 112.47 61.57 C 116.89 61.79 121.31 61.59 125.73 61.92 C 125.62 81.36 125.70 100.81 125.67 120.26 L 125.43 121.16 L 125.09 118.38 C 123.54 119.29 121.84 120.74 120.02 120.96 C 115.04 121.45 109.96 120.80 104.98 121.24 C 102.88 121.31 101.39 123.04 99.79 124.22 L 99.55 124.41 C 98.12 123.13 96.90 121.64 94.91 121.32 C 89.99 120.74 84.92 121.40 79.98 121.04 C 77.68 120.97 75.73 119.29 73.79 118.20 L 73.82 121.22 C 73.67 120.67 73.53 120.12 73.38 119.56 C 73.52 116.38 73.66 113.19 73.61 110.00 C 73.51 94.01 73.72 78.02 73.50 62.04 C 85.43 61.06 97.78 62.12 109.73 61.49 Z" fill="#ffffff"/>
<path d="M 66.93 64.09 C 66.29 64.75 65.54 64.96 64.67 64.74 C 64.50 63.22 66.79 62.14 66.93 64.09 Z" fill="#42ad88"/>
<path d="M 66.93 64.09 C 66.68 66.29 67.10 69.26 65.29 70.83 C 63.91 68.86 64.49 66.96 64.67 64.74 C 65.54 64.96 66.29 64.75 66.93 64.09 Z" fill="#004893"/>
<path d="M 132.52 64.49 L 133.42 64.36 L 133.75 64.49 C 135.20 65.78 135.65 69.23 133.94 70.37 C 131.57 69.89 132.60 66.27 132.52 64.49 Z" fill="#004d8f"/>
<path d="M 133.42 64.36 L 133.75 64.49 L 133.42 64.36 Z" fill="#5a8db5"/>
<path d="M 76.49 65.31 C 83.93 64.94 91.43 65.23 98.88 65.19 C 98.84 72.48 98.75 79.78 98.93 87.07 C 98.32 86.64 97.70 86.22 97.09 85.79 C 96.26 85.67 95.42 85.57 94.58 85.48 C 94.43 87.25 94.34 89.03 94.25 90.80 C 89.77 90.70 85.21 91.13 80.76 90.60 C 80.90 89.00 80.88 87.40 80.84 85.80 C 79.89 85.85 78.94 85.90 77.99 85.96 C 77.86 87.53 77.67 89.03 78.09 90.57 L 76.45 90.80 C 76.47 82.31 76.36 73.79 76.49 65.31 Z" fill="#ed1720"/>
<path d="M 100.18 64.79 C 100.61 65.60 101.02 66.42 101.42 67.25 L 101.31 67.96 C 99.85 69.50 102.51 70.75 103.22 72.08 C 102.73 76.14 102.99 80.23 102.49 84.29 L 101.10 85.39 C 100.06 78.74 99.79 71.51 100.18 64.79 Z" fill="#92caee"/>
<path d="M 100.18 64.79 C 107.82 64.87 115.45 64.73 123.08 64.88 C 123.10 66.73 123.11 68.59 123.08 70.44 C 122.03 70.28 120.98 70.10 119.94 69.91 L 118.81 69.66 C 118.29 69.55 117.77 69.44 117.25 69.34 L 117.01 67.82 C 117.35 67.19 117.70 66.56 118.05 65.94 C 113.58 66.12 109.10 65.89 104.63 66.13 C 107.67 68.84 112.34 67.84 116.09 67.86 C 115.68 68.53 115.27 69.21 114.87 69.89 C 111.90 68.44 109.83 69.88 107.00 70.75 C 106.08 70.09 105.13 69.48 104.18 68.87 C 103.85 69.93 103.53 71.00 103.22 72.08 C 102.51 70.75 99.85 69.50 101.31 67.96 C 102.87 69.10 105.02 68.34 103.89 66.30 C 103.08 66.06 102.25 66.38 101.42 67.25 C 101.02 66.42 100.61 65.60 100.18 64.79 Z" fill="#108ed0"/>
<path d="M 77.98 65.54 L 80.32 65.92 C 80.65 67.44 80.83 68.97 81.00 70.51 C 79.93 70.37 78.86 70.24 77.79 70.10 C 77.85 68.58 77.91 67.06 77.98 65.54 Z" fill="#fdd606"/>
<path d="M 86.16 65.72 C 87.15 65.71 88.15 65.71 89.14 65.70 C 89.18 67.23 89.22 68.76 89.27 70.29 C 88.18 70.28 87.09 70.28 85.99 70.28 C 86.05 68.76 86.11 67.24 86.16 65.72 Z" fill="#fcd306"/>
<path d="M 97.15 65.62 C 97.41 67.13 97.63 68.65 97.86 70.17 C 96.60 70.16 95.34 70.15 94.08 70.14 C 94.21 69.37 94.34 68.59 94.48 67.82 C 94.44 66.15 95.33 65.42 97.15 65.62 Z" fill="#fcd206"/>
<path d="M 103.89 66.30 C 105.02 68.34 102.87 69.10 101.31 67.96 L 101.42 67.25 C 102.25 66.38 103.08 66.06 103.89 66.30 Z" fill="#97cff0"/>
<path d="M 104.63 66.13 C 109.10 65.89 113.58 66.12 118.05 65.94 C 117.70 66.56 117.35 67.19 117.01 67.82 L 116.09 67.86 C 112.34 67.84 107.67 68.84 104.63 66.13 Z" fill="#b9dcf3"/>
<path d="M 119.18 66.42 C 120.37 65.72 121.68 67.48 120.88 68.51 C 119.73 69.15 118.34 67.43 119.18 66.42 Z" fill="#a4ceea"/>
<path d="M 116.09 67.86 L 117.01 67.82 L 117.25 69.34 C 117.77 69.44 118.29 69.55 118.81 69.66 L 119.94 69.91 C 119.98 71.30 120.01 72.70 120.05 74.09 C 119.47 73.67 118.82 73.39 118.11 73.25 C 117.41 75.11 117.54 77.41 120.16 76.67 C 120.70 79.18 119.62 83.78 122.04 85.20 C 123.79 86.23 122.86 89.35 123.09 91.10 C 116.61 91.21 110.13 91.15 103.65 91.14 C 103.57 89.89 103.47 88.65 103.36 87.40 L 103.22 87.38 C 102.02 87.29 100.82 87.20 99.62 87.12 C 100.11 86.53 100.60 85.96 101.10 85.39 L 102.49 84.29 C 102.99 80.23 102.73 76.14 103.22 72.08 C 103.53 71.00 103.85 69.93 104.18 68.87 C 105.13 69.48 106.08 70.09 107.00 70.75 C 106.91 71.84 106.81 72.93 106.72 74.02 C 106.73 75.63 106.82 77.23 106.91 78.84 C 106.10 78.48 105.28 78.13 104.45 77.80 C 104.33 79.18 104.20 80.56 104.06 81.94 C 104.88 82.89 105.70 83.84 106.54 84.76 L 107.14 85.38 C 108.37 85.06 110.82 85.05 110.05 83.10 C 109.80 81.86 109.49 80.62 109.29 79.38 C 109.99 80.69 111.18 81.25 112.35 82.12 C 112.50 82.82 112.65 83.51 112.80 84.21 L 112.99 85.13 C 113.96 85.17 114.94 85.20 115.91 85.22 C 116.11 82.56 116.29 79.90 116.32 77.23 C 116.49 75.23 116.71 73.23 116.89 71.23 C 116.22 70.78 115.55 70.33 114.87 69.89 C 115.27 69.21 115.68 68.53 116.09 67.86 Z" fill="#084ca1"/>
<path d="M 114.87 69.89 C 115.55 70.33 116.22 70.78 116.89 71.23 C 116.71 73.23 116.49 75.23 116.32 77.23 C 116.09 75.72 115.82 74.22 115.56 72.71 C 115.06 72.72 114.56 72.72 114.06 72.72 C 113.71 72.08 113.36 71.44 113.02 70.79 C 112.10 68.65 111.03 70.01 110.63 71.54 C 110.15 72.72 109.65 73.89 109.17 75.08 C 108.36 74.73 107.54 74.37 106.72 74.02 C 106.81 72.93 106.91 71.84 107.00 70.75 C 109.83 69.88 111.90 68.44 114.87 69.89 Z" fill="#58a3d3"/>
<path d="M 139.89 68.33 C 144.89 71.56 148.83 76.04 151.91 81.10 C 154.71 86.16 157.30 91.01 158.35 96.77 C 156.93 95.93 155.54 95.06 154.15 94.18 C 153.89 94.66 153.63 95.14 153.38 95.62 C 156.49 97.49 159.91 97.99 159.72 102.46 C 158.25 101.61 156.76 100.40 155.10 100.01 L 154.91 101.08 C 157.73 103.42 160.91 103.49 160.81 108.04 C 159.20 107.26 157.71 106.37 155.98 105.89 L 155.87 106.99 C 158.40 109.06 161.52 109.05 161.07 113.24 C 159.50 112.53 157.93 111.68 156.29 111.17 C 155.97 113.31 160.14 114.45 161.48 115.77 C 160.77 123.61 160.58 131.35 158.58 139.01 C 154.93 154.79 147.07 169.22 133.43 178.44 C 125.23 183.77 115.18 187.72 105.34 187.85 C 108.13 184.38 111.75 182.05 114.13 178.20 C 120.13 169.07 122.88 157.26 124.33 146.55 C 125.01 142.11 125.06 137.58 125.87 133.17 C 126.10 132.12 126.32 131.07 126.52 130.02 C 126.37 128.20 126.13 126.39 125.95 124.56 L 126.14 123.83 C 126.74 125.63 126.56 128.63 128.54 129.44 C 130.59 130.99 133.68 128.62 135.17 127.17 C 136.84 125.09 136.52 121.32 136.44 118.76 C 135.32 117.56 134.39 116.31 133.53 114.91 C 134.90 114.59 136.58 114.52 137.80 113.77 C 138.12 112.06 137.71 110.53 137.44 108.85 L 137.30 107.91 C 137.58 106.19 137.79 104.65 137.30 102.93 C 136.70 103.44 136.10 103.96 135.50 104.47 L 134.51 102.58 C 136.17 102.00 137.84 101.44 139.50 100.89 C 139.61 96.82 139.84 93.18 137.82 89.46 C 137.13 89.45 136.44 89.43 135.75 89.40 C 135.34 88.73 134.92 88.05 134.51 87.38 C 135.69 87.20 136.86 87.02 138.03 86.83 C 137.88 84.99 138.39 83.35 137.06 81.88 C 137.30 79.62 138.34 77.66 137.17 75.56 C 136.65 76.16 136.13 76.75 135.61 77.35 L 135.27 76.97 L 134.96 76.62 L 134.91 74.24 C 136.41 73.82 137.93 73.45 139.44 73.08 C 139.42 71.47 139.50 69.91 139.89 68.33 Z" fill="#00518b"/>
<path d="M 113.02 70.79 C 112.25 71.46 111.45 71.71 110.63 71.54 C 111.03 70.01 112.10 68.65 113.02 70.79 Z" fill="#f56967"/>
<path d="M 119.94 69.91 C 120.98 70.10 122.03 70.28 123.08 70.44 C 122.91 75.37 122.62 80.30 122.04 85.20 C 119.62 83.78 120.70 79.18 120.16 76.67 C 120.15 75.81 120.11 74.95 120.05 74.09 C 120.01 72.70 119.98 71.30 119.94 69.91 Z" fill="#6abae8"/>
<path d="M 82.24 70.82 C 85.91 70.54 89.58 70.55 93.26 70.68 C 93.23 75.45 93.56 80.29 93.13 85.05 C 89.59 85.54 85.92 85.18 82.35 85.29 C 82.30 80.46 82.36 75.64 82.24 70.82 Z" fill="#ffffff"/>
<path d="M 113.02 70.79 C 113.36 71.44 113.71 72.08 114.06 72.72 C 114.56 72.72 115.06 72.72 115.56 72.71 C 115.82 74.22 116.09 75.72 116.32 77.23 C 116.29 79.90 116.11 82.56 115.91 85.22 C 114.94 85.20 113.96 85.17 112.99 85.13 L 112.80 84.21 C 113.23 81.46 113.91 78.71 114.65 76.03 C 113.14 76.40 111.64 76.76 110.13 77.11 C 111.27 75.89 112.36 74.63 113.35 73.29 C 112.68 73.40 112.00 73.50 111.33 73.62 L 110.63 71.54 C 111.45 71.71 112.25 71.46 113.02 70.79 Z" fill="#bcc1d5"/>
<path d="M 87.03 72.15 C 89.56 70.72 89.70 76.14 87.07 74.75 C 86.31 73.90 86.30 73.03 87.03 72.15 Z" fill="#5858a5"/>
<path d="M 110.63 71.54 L 111.33 73.62 C 112.00 73.50 112.68 73.40 113.35 73.29 C 112.36 74.63 111.27 75.89 110.13 77.11 C 111.64 76.76 113.14 76.40 114.65 76.03 C 113.91 78.71 113.23 81.46 112.80 84.21 C 112.65 83.51 112.50 82.82 112.35 82.12 C 111.18 81.25 109.99 80.69 109.29 79.38 C 109.09 77.97 109.05 76.54 109.17 75.08 C 109.65 73.89 110.15 72.72 110.63 71.54 Z" fill="#ee1921"/>
<path d="M 118.11 73.25 C 118.82 73.39 119.47 73.67 120.05 74.09 C 120.11 74.95 120.15 75.81 120.16 76.67 C 117.54 77.41 117.41 75.11 118.11 73.25 Z" fill="#7e8175"/>
<path d="M 105.09 74.31 C 106.62 73.87 106.63 76.97 105.10 76.55 C 104.42 75.81 104.42 75.06 105.09 74.31 Z" fill="#a38e63"/>
<path d="M 106.72 74.02 C 107.54 74.37 108.36 74.73 109.17 75.08 C 109.05 76.54 109.09 77.97 109.29 79.38 C 109.49 80.62 109.80 81.86 110.05 83.10 C 110.82 85.05 108.37 85.06 107.14 85.38 C 107.09 83.20 107.05 81.02 106.91 78.84 C 106.82 77.23 106.73 75.63 106.72 74.02 Z" fill="#a9cae5"/>
<path d="M 61.82 76.14 C 64.55 75.69 67.21 75.84 69.94 76.21 C 69.03 79.76 69.65 83.08 69.92 86.65 C 68.50 86.90 67.08 87.15 65.66 87.39 L 65.13 87.46 C 63.75 87.25 62.55 86.79 61.54 86.08 C 61.78 82.74 62.02 79.49 61.82 76.14 Z" fill="#da9c32"/>
<path d="M 77.90 75.77 C 78.90 75.78 79.91 75.78 80.91 75.79 C 80.91 77.39 80.92 79.00 80.93 80.60 C 79.88 80.43 78.84 80.25 77.80 80.08 C 77.83 78.64 77.87 77.21 77.90 75.77 Z" fill="#fcd108"/>
<path d="M 83.05 76.15 C 86.35 75.05 86.18 78.01 85.09 80.08 C 82.34 80.05 83.05 78.15 83.05 76.15 Z" fill="#6d6eb4"/>
<path d="M 86.85 75.97 C 89.75 74.36 89.94 79.13 88.01 80.52 C 86.34 79.51 85.65 77.62 86.85 75.97 Z" fill="#7171b5"/>
<path d="M 89.81 76.00 C 93.57 74.75 93.52 80.62 90.14 79.89 C 89.78 78.61 89.67 77.32 89.81 76.00 Z" fill="#6767b0"/>
<path d="M 97.21 75.63 C 97.45 77.27 97.65 78.91 97.85 80.55 C 96.61 80.55 95.38 80.56 94.14 80.57 C 94.22 79.66 94.32 78.75 94.42 77.84 C 94.42 76.18 95.35 75.45 97.21 75.63 Z" fill="#fabb0a"/>
<path d="M 129.46 76.49 C 130.75 76.12 132.04 75.76 133.32 75.39 C 132.77 76.73 132.33 78.09 132.03 79.46 L 132.02 80.63 C 131.72 81.89 130.56 83.57 131.14 84.82 C 132.08 85.50 133.78 83.34 134.68 82.85 C 134.84 84.34 136.50 86.24 137.25 83.89 L 137.06 81.88 C 138.39 83.35 137.88 84.99 138.03 86.83 C 136.86 87.02 135.69 87.20 134.51 87.38 L 133.20 87.30 C 132.04 87.20 130.88 87.10 129.73 87.00 C 129.70 83.47 130.02 80.00 129.46 76.49 Z" fill="#ae7538"/>
<path d="M 133.32 75.39 L 134.96 76.62 L 135.27 76.97 L 135.61 77.35 C 136.13 76.75 136.65 76.16 137.17 75.56 C 138.34 77.66 137.30 79.62 137.06 81.88 C 136.16 81.86 135.36 82.18 134.68 82.85 C 133.78 83.34 132.08 85.50 131.14 84.82 C 130.56 83.57 131.72 81.89 132.02 80.63 C 133.49 81.37 134.74 81.34 135.75 80.53 C 136.81 79.14 134.64 79.53 133.92 79.36 C 133.29 79.38 132.66 79.42 132.03 79.46 C 132.33 78.09 132.77 76.73 133.32 75.39 Z" fill="#d89a33"/>
<path d="M 104.45 77.80 C 105.28 78.13 106.10 78.48 106.91 78.84 C 107.05 81.02 107.09 83.20 107.14 85.38 L 106.54 84.76 C 105.70 83.84 104.88 82.89 104.06 81.94 C 104.20 80.56 104.33 79.18 104.45 77.80 Z" fill="#a2935f"/>
<path d="M 118.04 77.60 C 121.35 78.98 120.01 80.86 120.20 83.82 C 116.86 82.21 118.01 80.68 118.04 77.60 Z" fill="#c2a251"/>
<path d="M 132.03 79.46 C 132.66 79.42 133.29 79.38 133.92 79.36 C 134.64 79.53 136.81 79.14 135.75 80.53 C 134.74 81.34 133.49 81.37 132.02 80.63 L 132.03 79.46 Z" fill="#fcc731"/>
<path d="M 87.02 81.20 C 88.75 80.20 89.57 82.55 88.57 83.74 C 86.92 84.79 85.77 82.35 87.02 81.20 Z" fill="#5a5ba6"/>
<path d="M 152.69 80.46 L 154.29 81.64 C 170.15 100.66 174.75 127.81 166.00 150.99 C 160.21 166.85 148.42 180.51 133.62 188.61 C 130.08 190.11 126.64 191.50 123.23 193.29 C 115.78 195.99 107.70 197.39 99.78 197.33 C 99.93 195.78 99.47 193.70 100.23 192.32 C 102.76 191.30 105.31 190.64 108.00 191.50 C 112.16 192.68 116.39 192.86 120.69 192.80 L 120.70 192.24 C 116.77 192.30 112.87 192.10 109.03 191.14 C 107.70 190.58 105.78 190.87 105.96 188.89 C 114.23 187.85 122.24 185.58 129.58 181.56 C 139.86 176.01 148.18 166.78 153.17 156.26 C 159.43 143.69 161.51 130.25 161.99 116.34 C 163.60 117.25 165.20 118.17 166.89 118.92 C 166.59 116.39 163.32 115.94 161.77 114.07 L 161.36 111.12 C 163.06 111.89 164.74 112.67 166.49 113.31 C 165.50 111.02 163.41 110.55 161.58 109.01 C 161.39 107.83 161.28 106.64 161.25 105.44 C 162.40 106.15 163.53 106.88 164.67 107.61 C 164.97 107.17 165.27 106.74 165.57 106.31 C 162.99 104.63 160.17 104.18 160.16 100.46 C 161.37 100.96 162.58 101.41 163.81 101.83 C 164.25 99.15 159.07 99.01 158.82 96.16 C 157.87 90.38 154.70 85.81 152.69 80.46 Z" fill="#00518b"/>
<path d="M 137.06 81.88 L 137.25 83.89 C 136.50 86.24 134.84 84.34 134.68 82.85 C 135.36 82.18 136.16 81.86 137.06 81.88 Z" fill="#f7bd30"/>
<path d="M 94.58 85.48 C 95.42 85.57 96.26 85.67 97.09 85.79 C 97.70 86.22 98.32 86.64 98.93 87.07 L 99.62 87.12 C 100.82 87.20 102.02 87.29 103.22 87.38 C 103.25 88.22 103.27 89.06 103.29 89.90 C 101.30 89.21 99.33 88.86 97.24 89.29 C 95.55 91.27 98.23 93.47 99.24 95.10 C 100.63 94.01 102.00 92.90 103.30 91.71 L 104.20 92.21 C 104.72 94.11 104.86 96.02 105.01 97.98 C 103.32 97.56 101.70 97.10 100.14 96.31 L 99.24 95.90 C 98.12 95.82 97.00 95.76 95.87 95.71 C 95.83 94.53 95.81 93.35 95.76 92.16 C 95.79 91.41 95.29 90.95 94.25 90.80 C 94.34 89.03 94.43 87.25 94.58 85.48 Z" fill="#fee706"/>
<path d="M 77.99 85.96 C 78.94 85.90 79.89 85.85 80.84 85.80 C 80.88 87.40 80.90 89.00 80.76 90.60 L 79.81 90.60 C 79.57 90.59 79.33 90.59 79.09 90.59 L 78.09 90.57 C 77.67 89.03 77.86 87.53 77.99 85.96 Z" fill="#fcd30c"/>
<path d="M 65.13 87.46 L 65.66 87.39 C 66.14 88.13 66.63 88.87 67.12 89.61 C 67.83 89.51 68.54 89.40 69.24 89.28 C 69.02 90.55 68.80 91.82 68.59 93.09 C 71.63 95.55 69.43 98.55 68.85 101.64 C 67.70 102.05 66.54 102.45 65.38 102.83 L 65.04 102.92 L 64.68 103.02 C 63.04 102.09 61.37 101.36 59.59 100.75 C 59.61 96.84 59.75 93.13 61.32 89.48 C 62.12 89.32 62.92 89.16 63.73 89.00 C 64.19 88.48 64.66 87.97 65.13 87.46 Z" fill="#00ab4e"/>
<path d="M 133.20 87.30 L 134.51 87.38 C 134.92 88.05 135.34 88.73 135.75 89.40 C 136.44 89.43 137.13 89.45 137.82 89.46 C 139.84 93.18 139.61 96.82 139.50 100.89 C 137.84 101.44 136.17 102.00 134.51 102.58 L 133.36 102.98 C 132.34 102.45 131.32 101.93 130.30 101.41 C 129.65 98.48 127.58 94.94 130.46 92.58 C 130.29 91.44 130.11 90.30 129.94 89.16 C 130.81 89.35 131.68 89.55 132.55 89.74 C 132.76 88.93 132.98 88.11 133.20 87.30 Z" fill="#00ab4e"/>
<path d="M 97.24 89.29 C 99.33 88.86 101.30 89.21 103.29 89.90 L 103.30 91.71 C 102.00 92.90 100.63 94.01 99.24 95.10 C 98.23 93.47 95.55 91.27 97.24 89.29 Z" fill="#ee1823"/>
<path d="M 79.81 90.60 L 79.09 90.59 C 79.33 90.59 79.57 90.59 79.81 90.60 Z" fill="#f25051"/>
<path d="M 65.91 91.56 C 68.06 92.24 66.27 97.09 65.85 98.73 C 65.29 98.39 64.73 98.05 64.17 97.71 C 64.27 95.26 63.51 93.14 65.91 91.56 Z" fill="#00667f"/>
<path d="M 76.35 92.34 C 82.81 92.02 89.29 92.26 95.76 92.16 C 95.81 93.35 95.83 94.53 95.87 95.71 C 97.00 95.76 98.12 95.82 99.24 95.90 C 99.07 97.59 98.89 99.28 98.72 100.97 C 98.28 100.80 97.85 100.62 97.42 100.45 C 97.46 101.56 97.48 102.67 97.48 103.79 L 95.91 103.87 C 96.22 103.06 96.31 102.17 96.17 101.20 C 96.09 99.77 96.01 98.34 95.95 96.91 C 94.55 96.60 93.15 96.29 91.75 95.98 L 92.15 98.18 L 90.01 97.85 L 88.85 97.06 C 88.28 97.36 87.72 97.67 87.17 97.99 C 86.15 98.03 85.13 98.05 84.11 98.06 L 83.92 96.16 C 82.72 96.43 81.54 96.73 80.37 97.09 L 79.76 98.27 C 78.36 98.30 77.36 97.85 76.14 97.23 C 76.18 95.60 76.23 93.97 76.35 92.34 Z" fill="#11a1dd"/>
<path d="M 104.20 92.21 C 110.44 92.51 116.70 92.32 122.95 92.31 C 123.22 98.21 123.02 104.10 123.12 110.00 C 123.07 112.43 123.34 114.63 122.03 116.81 C 121.81 115.53 121.63 114.25 121.48 112.97 C 120.46 113.00 119.45 113.04 118.43 113.09 C 118.33 114.70 118.31 116.31 118.34 117.92 L 120.04 118.33 C 113.02 119.24 107.00 117.31 100.25 120.04 C 100.24 112.14 100.48 104.21 100.14 96.31 C 101.70 97.10 103.32 97.56 105.01 97.98 C 104.86 96.02 104.72 94.11 104.20 92.21 Z" fill="#ee1922"/>
<path d="M 132.95 91.86 C 135.41 92.05 134.95 94.13 135.08 96.01 C 135.26 97.82 133.51 99.46 132.94 96.99 C 132.52 95.23 132.55 93.63 132.95 91.86 Z" fill="#005888"/>
<path d="M 82.36 93.29 C 86.49 93.91 89.79 93.85 93.91 93.23 L 93.90 94.80 C 89.95 95.33 85.78 95.12 81.81 94.94 L 82.36 93.29 Z" fill="#cfe6f6"/>
<path d="M 110.21 92.93 C 111.18 92.89 112.15 92.85 113.11 92.81 C 113.15 94.24 113.18 95.67 113.22 97.10 C 112.38 97.40 111.54 97.70 110.70 97.98 L 109.94 98.04 C 110.04 96.34 110.13 94.63 110.21 92.93 Z" fill="#fccd06"/>
<path d="M 118.95 92.87 C 119.78 92.86 120.60 92.88 121.42 92.92 C 121.53 94.47 121.62 96.02 121.72 97.57 C 120.55 97.57 119.38 97.56 118.20 97.57 C 118.42 96.05 118.34 94.28 118.95 92.87 Z" fill="#fff501"/>
<path d="M 78.33 94.35 C 79.15 93.68 79.95 93.62 80.74 94.15 C 81.82 96.33 76.90 96.92 78.33 94.35 Z" fill="#a5d2ee"/>
<path d="M 83.92 96.16 L 84.11 98.06 C 83.61 99.04 83.14 100.04 82.69 101.04 C 79.75 100.32 80.10 104.96 82.97 103.93 L 83.01 106.04 C 82.38 105.76 81.76 105.50 81.12 105.24 C 80.90 106.56 80.71 107.89 80.52 109.21 C 81.22 110.31 81.92 111.42 82.65 112.51 L 83.93 112.81 L 85.99 113.23 C 88.07 113.30 90.11 113.01 92.16 112.68 C 92.41 109.89 92.40 107.10 92.54 104.31 C 92.70 102.06 93.48 100.22 92.15 98.18 L 91.75 95.98 C 93.15 96.29 94.55 96.60 95.95 96.91 C 96.01 98.34 96.09 99.77 96.17 101.20 C 93.87 100.63 94.09 102.38 94.51 103.94 L 95.91 103.87 L 97.48 103.79 C 97.36 106.25 96.93 108.68 96.73 111.14 C 97.42 111.91 98.19 112.59 99.05 113.20 C 99.15 115.51 99.17 117.82 99.17 120.13 C 92.51 117.21 86.40 119.27 79.49 118.34 C 77.11 117.47 74.06 112.46 78.49 112.12 C 78.59 110.22 78.67 108.30 78.84 106.41 C 79.28 103.70 79.53 101.00 79.76 98.27 L 80.37 97.09 C 81.54 96.73 82.72 96.43 83.92 96.16 Z" fill="#084ca1"/>
<path d="M 76.14 97.23 C 77.36 97.85 78.36 98.30 79.76 98.27 C 79.53 101.00 79.28 103.70 78.84 106.41 C 75.46 104.61 76.49 100.41 76.14 97.23 Z" fill="#69bae8"/>
<path d="M 88.85 97.06 C 88.47 98.17 88.10 99.28 87.73 100.40 L 89.88 100.27 C 89.21 101.52 88.53 102.77 87.86 104.03 C 88.92 103.70 89.98 103.36 91.04 103.03 C 90.57 105.01 90.11 106.98 89.73 108.97 C 88.55 108.81 87.38 108.63 86.22 108.44 C 85.91 107.67 85.63 106.89 85.37 106.10 C 85.08 104.31 85.47 102.64 85.89 100.91 C 86.33 99.94 86.75 98.97 87.17 97.99 C 87.72 97.67 88.28 97.36 88.85 97.06 Z" fill="#ea2026"/>
<path d="M 88.85 97.06 L 90.01 97.85 C 90.66 100.08 91.47 102.24 92.54 104.31 C 92.40 107.10 92.41 109.89 92.16 112.68 L 89.56 112.36 C 89.57 111.24 89.62 110.11 89.73 108.97 C 90.11 106.98 90.57 105.01 91.04 103.03 C 89.98 103.36 88.92 103.70 87.86 104.03 C 88.53 102.77 89.21 101.52 89.88 100.27 L 87.73 100.40 C 88.10 99.28 88.47 98.17 88.85 97.06 Z" fill="#c0e0f7"/>
<path d="M 84.11 98.06 C 85.13 98.05 86.15 98.03 87.17 97.99 C 86.75 98.97 86.33 99.94 85.89 100.91 C 83.00 103.98 83.93 107.49 83.69 111.37 C 83.41 109.60 83.20 107.82 83.01 106.04 L 82.97 103.93 C 83.00 102.97 82.91 102.01 82.69 101.04 C 83.14 100.04 83.61 99.04 84.11 98.06 Z" fill="#5ba8d8"/>
<path d="M 90.01 97.85 L 92.15 98.18 C 93.48 100.22 92.70 102.06 92.54 104.31 C 91.47 102.24 90.66 100.08 90.01 97.85 Z" fill="#55afe2"/>
<path d="M 106.24 98.35 C 107.47 98.23 108.71 98.13 109.94 98.04 L 110.70 97.98 C 112.83 98.05 114.97 98.15 117.11 98.22 C 117.30 102.99 117.18 107.76 117.24 112.54 C 115.74 112.62 114.24 112.69 112.74 112.75 C 112.97 111.18 113.02 109.64 112.87 108.11 C 112.16 107.65 111.29 107.71 110.27 108.28 C 109.88 109.92 110.49 111.21 111.03 112.71 C 109.39 112.65 107.75 112.57 106.11 112.48 C 106.34 107.77 106.20 103.07 106.24 98.35 Z" fill="#ffffff"/>
<path d="M 110.28 99.27 C 111.20 98.89 112.06 98.82 112.88 99.07 C 113.26 101.08 113.56 102.66 111.09 103.10 C 109.98 101.83 110.01 100.86 110.28 99.27 Z" fill="#7474b7"/>
<path d="M 82.69 101.04 C 82.91 102.01 83.00 102.97 82.97 103.93 C 80.10 104.96 79.75 100.32 82.69 101.04 Z" fill="#8e876d"/>
<path d="M 85.89 100.91 C 85.47 102.64 85.08 104.31 85.37 106.10 C 85.63 108.47 85.88 110.84 85.99 113.23 L 83.93 112.81 L 83.69 111.37 C 83.93 107.49 83.00 103.98 85.89 100.91 Z" fill="#aacbe8"/>
<path d="M 96.17 101.20 C 96.31 102.17 96.22 103.06 95.91 103.87 L 94.51 103.94 C 94.09 102.38 93.87 100.63 96.17 101.20 Z" fill="#a08e64"/>
<path d="M 64.68 103.02 L 65.04 102.92 C 64.02 106.17 63.40 109.38 63.18 112.78 C 64.06 111.86 64.93 110.94 65.79 110.02 C 66.76 111.08 67.63 112.66 69.04 113.07 C 69.23 111.70 69.34 110.30 69.36 108.88 C 69.62 110.53 69.82 112.17 70.01 113.82 C 69.08 114.23 68.16 114.64 67.22 115.03 C 66.68 114.98 66.14 114.93 65.60 114.88 C 64.13 114.59 62.68 114.26 61.22 113.89 C 61.45 111.93 61.69 109.96 61.95 108.00 C 61.94 106.90 60.95 104.69 61.79 103.88 C 62.72 103.51 63.68 103.22 64.68 103.02 Z" fill="#bf732e"/>
<path d="M 65.04 102.92 L 65.38 102.83 C 66.90 103.23 68.43 103.62 69.96 104.02 C 69.70 105.31 69.45 106.60 69.22 107.90 L 69.36 108.88 C 69.34 110.30 69.23 111.70 69.04 113.07 C 67.63 112.66 66.76 111.08 65.79 110.02 C 64.93 110.94 64.06 111.86 63.18 112.78 C 63.40 109.38 64.02 106.17 65.04 102.92 Z" fill="#e8aa31"/>
<path d="M 101.97 103.01 C 102.91 103.02 103.86 103.02 104.80 103.02 C 104.87 104.57 104.94 106.12 105.02 107.68 C 103.95 107.67 102.88 107.68 101.80 107.68 C 101.86 106.13 101.92 104.57 101.97 103.01 Z" fill="#fcce06"/>
<path d="M 114.33 103.38 C 116.68 102.25 117.57 107.73 115.02 107.15 C 113.19 107.85 113.36 104.03 114.33 103.38 Z" fill="#6d6db3"/>
<path d="M 118.61 103.31 C 119.57 103.19 120.54 103.10 121.51 103.04 C 121.57 104.57 121.64 106.11 121.72 107.64 C 120.60 107.64 119.47 107.64 118.34 107.64 C 118.40 106.20 118.43 104.73 118.61 103.31 Z" fill="#fee805"/>
<path d="M 130.26 103.57 C 131.28 103.34 132.32 103.14 133.36 102.98 C 131.81 106.08 131.49 109.37 131.24 112.78 C 132.13 111.76 133.01 110.72 133.88 109.69 C 134.91 111.01 135.36 112.42 137.01 113.03 C 137.24 111.66 137.38 110.26 137.44 108.85 C 137.71 110.53 138.12 112.06 137.80 113.77 C 136.58 114.52 134.90 114.59 133.53 114.91 L 132.41 115.12 C 131.54 114.76 130.68 114.37 129.84 113.93 C 129.14 112.19 129.88 109.86 129.98 108.02 C 129.99 106.76 128.70 104.22 130.26 103.57 Z" fill="#bf732e"/>
<path d="M 133.36 102.98 L 134.51 102.58 L 135.50 104.47 C 136.10 103.96 136.70 103.44 137.30 102.93 C 137.79 104.65 137.58 106.19 137.30 107.91 L 137.44 108.85 C 137.38 110.26 137.24 111.66 137.01 113.03 C 135.36 112.42 134.91 111.01 133.88 109.69 C 133.01 110.72 132.13 111.76 131.24 112.78 C 131.49 109.37 131.81 106.08 133.36 102.98 Z" fill="#edad30"/>
<path d="M 106.88 103.66 C 108.99 103.64 111.11 103.65 113.23 103.67 C 113.22 104.76 113.20 105.85 113.19 106.95 C 111.14 106.93 109.10 106.94 107.05 106.96 C 106.99 105.86 106.93 104.76 106.88 103.66 Z" fill="#7577b9"/>
<path d="M 81.12 105.24 C 81.76 105.50 82.38 105.76 83.01 106.04 C 83.20 107.82 83.41 109.60 83.69 111.37 L 83.93 112.81 L 82.65 112.51 C 81.92 111.42 81.22 110.31 80.52 109.21 C 80.71 107.89 80.90 106.56 81.12 105.24 Z" fill="#a49464"/>
<path d="M 94.54 105.32 C 97.23 105.66 96.44 108.52 96.29 110.42 C 92.74 110.70 94.53 107.44 94.54 105.32 Z" fill="#c2a450"/>
<path d="M 85.37 106.10 C 85.63 106.89 85.91 107.67 86.22 108.44 C 87.38 108.63 88.55 108.81 89.73 108.97 C 89.62 110.11 89.57 111.24 89.56 112.36 L 92.16 112.68 C 90.11 113.01 88.07 113.30 85.99 113.23 C 85.88 110.84 85.63 108.47 85.37 106.10 Z" fill="#913e65"/>
<path d="M 110.27 108.28 C 111.29 107.71 112.16 107.65 112.87 108.11 C 113.02 109.64 112.97 111.18 112.74 112.75 L 111.03 112.71 C 110.49 111.21 109.88 109.92 110.27 108.28 Z" fill="#7878b9"/>
<path d="M 101.97 113.11 C 102.93 113.10 103.89 113.08 104.85 113.07 C 104.90 114.61 104.96 116.15 105.02 117.69 C 103.94 117.69 102.86 117.70 101.78 117.72 C 101.85 116.18 101.91 114.64 101.97 113.11 Z" fill="#fcd206"/>
<path d="M 118.43 113.09 C 119.45 113.04 120.46 113.00 121.48 112.97 C 121.63 114.25 121.81 115.53 122.03 116.81 C 121.39 117.34 120.73 117.85 120.04 118.33 L 118.34 117.92 C 118.31 116.31 118.33 114.70 118.43 113.09 Z" fill="#fab70b"/>
<path d="M 65.60 114.88 C 66.14 114.93 66.68 114.98 67.22 115.03 C 68.34 115.66 69.46 116.29 70.61 116.86 C 71.55 117.74 72.47 118.64 73.38 119.56 C 73.53 120.12 73.67 120.67 73.82 121.22 L 73.93 122.79 L 72.84 124.13 C 72.46 125.24 72.11 126.35 71.77 127.47 C 69.39 125.76 70.17 123.35 68.95 121.05 C 68.41 120.43 67.28 118.26 66.37 119.29 C 66.25 122.82 69.97 126.15 71.41 129.30 C 67.74 130.80 66.08 128.48 63.21 126.71 C 63.38 125.02 62.80 123.61 64.24 122.36 C 63.74 121.58 63.24 120.79 62.78 119.97 C 63.31 118.14 64.58 116.47 65.60 114.88 Z" fill="#00ab4e"/>
<path d="M 132.41 115.12 L 133.53 114.91 C 134.39 116.31 135.32 117.56 136.44 118.76 C 136.52 121.32 136.84 125.09 135.17 127.17 C 133.68 128.62 130.59 130.99 128.54 129.44 C 126.56 128.63 126.74 125.63 126.14 123.83 L 124.97 122.95 L 125.43 121.16 L 125.67 120.26 C 126.58 119.10 127.54 117.97 128.50 116.85 C 129.82 116.31 131.11 115.72 132.41 115.12 Z" fill="#00ab4e"/>
<path d="M 73.79 118.20 C 75.73 119.29 77.68 120.97 79.98 121.04 C 84.92 121.40 89.99 120.74 94.91 121.32 C 96.90 121.64 98.12 123.13 99.55 124.41 C 98.43 125.46 96.61 126.25 96.49 127.98 C 96.80 129.48 98.10 130.69 98.84 132.04 C 98.96 133.99 98.22 135.59 97.47 137.31 C 97.35 138.66 97.23 140.01 97.11 141.36 C 96.38 140.76 95.64 140.17 94.90 139.58 L 93.84 138.76 C 90.72 142.47 89.16 145.21 89.85 150.29 C 88.57 150.80 87.28 151.27 86.00 151.76 C 87.46 153.24 88.72 151.89 90.53 151.68 C 92.10 155.88 95.19 157.28 99.32 158.18 C 99.22 159.47 98.92 160.63 98.42 161.82 C 91.10 163.14 87.86 170.21 89.91 177.03 C 91.76 183.74 100.47 185.69 106.15 183.08 C 106.17 181.93 106.15 180.77 106.12 179.62 C 103.68 179.70 100.82 180.22 98.48 179.45 C 93.29 177.43 93.20 168.52 98.22 166.27 C 100.40 165.16 103.41 165.82 105.79 165.95 C 106.14 164.81 106.49 163.66 106.84 162.52 C 104.64 161.84 102.49 161.42 100.18 161.39 C 100.27 160.28 100.27 159.17 100.34 158.07 C 105.03 157.05 106.57 155.68 109.14 151.76 C 110.69 151.89 112.07 153.39 113.09 151.70 C 111.95 151.26 110.82 150.82 109.70 150.37 C 110.27 145.86 108.94 143.26 106.49 139.67 C 107.06 138.60 107.62 137.53 108.17 136.44 C 109.99 135.92 111.81 135.41 113.64 134.92 C 114.03 133.73 114.40 132.54 114.75 131.34 C 115.22 132.26 115.69 133.17 116.17 134.08 C 119.17 133.61 121.77 132.66 124.69 133.05 C 124.72 141.24 123.38 149.16 121.74 157.15 C 120.11 164.22 117.71 171.48 113.75 177.61 C 111.44 181.25 108.34 183.85 105.14 186.67 C 101.38 186.10 97.71 186.44 93.94 186.50 C 86.43 181.28 82.37 173.60 79.55 165.11 C 76.26 154.89 74.62 143.75 74.39 133.03 L 76.99 132.67 C 78.65 133.11 80.30 133.69 81.99 133.88 C 83.11 133.84 83.93 132.44 84.75 131.77 L 85.44 134.25 L 85.53 134.68 C 87.71 135.45 89.88 136.29 92.03 137.16 C 93.63 136.54 95.24 135.94 96.87 135.38 C 97.59 133.61 97.50 133.03 96.95 131.22 C 94.53 131.39 92.11 131.67 89.69 131.90 C 91.92 130.96 94.12 129.86 96.29 128.79 C 95.71 127.17 95.05 125.62 94.11 124.17 C 90.98 126.66 88.80 128.21 84.61 127.27 C 84.29 126.60 83.97 125.94 83.64 125.27 C 82.05 125.37 80.46 125.50 78.87 125.54 C 77.45 125.40 76.05 125.16 74.64 124.96 C 74.80 124.24 74.57 123.51 73.93 122.79 L 73.82 121.22 L 73.79 118.20 Z" fill="#00518b"/>
<path d="M 125.09 118.38 L 125.43 121.16 L 124.97 122.95 L 125.09 124.63 C 123.99 124.90 122.89 125.24 121.81 125.64 L 121.11 125.89 L 120.07 125.81 C 118.41 125.23 116.99 125.18 115.25 125.37 C 115.03 126.72 114.86 128.08 114.76 129.44 C 113.89 130.10 113.02 130.77 112.16 131.45 C 108.76 131.76 105.46 131.63 102.08 131.19 C 101.94 132.45 101.97 133.67 102.15 134.86 C 103.53 135.72 105.15 136.28 106.65 136.89 C 106.18 137.69 105.70 138.48 105.21 139.27 C 104.17 138.93 103.14 138.60 102.10 138.27 C 101.31 136.19 100.69 134.10 100.19 131.92 C 101.07 130.94 101.96 129.97 102.78 128.93 C 105.31 129.97 106.98 130.79 109.74 129.83 C 110.49 130.26 111.24 130.69 111.99 131.13 C 112.33 130.13 112.67 129.13 113.02 128.14 C 109.91 127.34 107.57 126.08 105.01 124.19 C 104.43 125.40 103.89 126.64 103.32 127.86 C 102.27 126.46 101.15 125.33 99.79 124.22 C 101.39 123.04 102.88 121.31 104.98 121.24 C 109.96 120.80 115.04 121.45 120.02 120.96 C 121.84 120.74 123.54 119.29 125.09 118.38 Z" fill="#00508b"/>
<path d="M 132.15 118.37 C 132.72 119.22 132.99 120.09 132.97 120.98 C 131.86 123.54 130.09 125.86 128.52 128.16 C 128.92 124.34 129.33 121.22 132.15 118.37 Z" fill="#00687d"/>
<path d="M 73.93 122.79 C 74.57 123.51 74.80 124.24 74.64 124.96 L 73.86 125.19 L 72.84 124.13 L 73.93 122.79 Z" fill="#849b9c"/>
<path d="M 124.97 122.95 L 126.14 123.83 L 125.95 124.56 L 125.09 124.63 L 124.97 122.95 Z" fill="#819bb0"/>
<path d="M 94.11 124.17 C 95.05 125.62 95.71 127.17 96.29 128.79 C 94.12 129.86 91.92 130.96 89.69 131.90 C 88.55 132.03 87.41 132.15 86.27 132.26 C 85.98 132.92 85.71 133.58 85.44 134.25 L 84.75 131.77 C 84.60 130.27 84.60 128.77 84.61 127.27 C 88.80 128.21 90.98 126.66 94.11 124.17 Z" fill="#00aa4f"/>
<path d="M 105.01 124.19 C 107.57 126.08 109.91 127.34 113.02 128.14 C 112.67 129.13 112.33 130.13 111.99 131.13 C 111.24 130.69 110.49 130.26 109.74 129.83 C 106.98 130.79 105.31 129.97 102.78 128.93 L 103.32 127.86 C 103.89 126.64 104.43 125.40 105.01 124.19 Z" fill="#00ab4e"/>
<path d="M 73.86 125.19 L 74.64 124.96 C 76.05 125.16 77.45 125.40 78.87 125.54 C 80.27 125.67 81.67 125.85 83.06 126.05 C 82.98 128.10 81.15 128.13 79.72 129.09 C 80.38 130.01 81.03 130.92 81.68 131.83 C 78.75 131.12 75.81 130.44 72.87 129.79 C 73.02 128.22 73.31 126.68 73.86 125.19 Z" fill="#e1a333"/>
<path d="M 83.64 125.27 C 83.97 125.94 84.29 126.60 84.61 127.27 C 84.60 128.77 84.60 130.27 84.75 131.77 C 83.93 132.44 83.11 133.84 81.99 133.88 C 80.30 133.69 78.65 133.11 76.99 132.67 L 74.39 133.03 L 73.36 133.19 C 73.19 132.06 73.03 130.93 72.87 129.79 C 75.81 130.44 78.75 131.12 81.68 131.83 C 81.03 130.92 80.38 130.01 79.72 129.09 C 81.15 128.13 82.98 128.10 83.06 126.05 C 81.67 125.85 80.27 125.67 78.87 125.54 C 80.46 125.50 82.05 125.37 83.64 125.27 Z" fill="#ba7330"/>
<path d="M 99.55 124.41 L 99.79 124.22 C 101.15 125.33 102.27 126.46 103.32 127.86 L 102.78 128.93 C 101.96 129.97 101.07 130.94 100.19 131.92 C 100.69 134.10 101.31 136.19 102.10 138.27 L 101.25 138.01 C 100.47 137.75 99.68 137.50 98.89 137.27 C 99.07 139.88 100.13 140.69 102.09 142.16 C 103.17 141.24 104.22 140.29 105.21 139.27 C 105.70 138.48 106.18 137.69 106.65 136.89 C 107.15 136.74 107.66 136.59 108.17 136.44 C 107.62 137.53 107.06 138.60 106.49 139.67 C 106.01 140.58 105.53 141.48 105.06 142.39 L 104.27 143.98 C 105.05 146.36 105.29 148.39 107.83 149.50 C 108.45 149.80 109.07 150.09 109.70 150.37 C 110.82 150.82 111.95 151.26 113.09 151.70 C 112.07 153.39 110.69 151.89 109.14 151.76 L 107.43 151.43 C 104.44 150.47 100.78 153.02 100.65 156.16 L 100.34 158.07 C 100.27 159.17 100.27 160.28 100.18 161.39 L 98.42 161.82 C 98.92 160.63 99.22 159.47 99.32 158.18 L 98.97 156.90 C 98.54 153.56 96.84 152.75 94.14 151.20 L 92.45 151.39 L 90.53 151.68 C 88.72 151.89 87.46 153.24 86.00 151.76 C 87.28 151.27 88.57 150.80 89.85 150.29 C 90.50 150.01 91.15 149.72 91.79 149.41 C 94.33 147.95 95.25 144.25 94.08 141.63 L 93.73 139.81 L 94.90 139.58 C 95.64 140.17 96.38 140.76 97.11 141.36 C 97.23 140.01 97.35 138.66 97.47 137.31 C 98.22 135.59 98.96 133.99 98.84 132.04 C 98.10 130.69 96.80 129.48 96.49 127.98 C 96.61 126.25 98.43 125.46 99.55 124.41 Z" fill="#ebbb07"/>
<path d="M 115.25 125.37 C 116.99 125.18 118.41 125.23 120.07 125.81 C 118.74 125.69 117.56 125.86 116.51 126.34 C 115.71 127.48 118.48 128.40 119.26 128.35 C 118.53 129.66 117.78 130.96 117.03 132.26 C 120.22 131.65 123.37 130.86 126.52 130.02 C 126.32 131.07 126.10 132.12 125.87 133.17 L 124.69 133.05 C 121.77 132.66 119.17 133.61 116.17 134.08 C 115.69 133.17 115.22 132.26 114.75 131.34 L 114.76 129.44 C 114.86 128.08 115.03 126.72 115.25 125.37 Z" fill="#a7733b"/>
<path d="M 125.09 124.63 L 125.95 124.56 C 126.13 126.39 126.37 128.20 126.52 130.02 C 123.37 130.86 120.22 131.65 117.03 132.26 C 117.78 130.96 118.53 129.66 119.26 128.35 C 119.80 127.55 120.06 126.70 120.07 125.81 L 121.11 125.89 C 120.77 127.10 120.79 128.40 121.17 129.78 C 122.71 128.65 123.95 126.99 121.81 125.64 C 122.89 125.24 123.99 124.90 125.09 124.63 Z" fill="#d09133"/>
<path d="M 99.22 126.39 C 99.92 126.21 100.50 126.48 100.96 127.21 C 101.67 129.03 99.66 130.04 98.37 128.79 C 97.83 127.80 98.12 127.01 99.22 126.39 Z" fill="#2b617a"/>
<path d="M 116.51 126.34 C 117.56 125.86 118.74 125.69 120.07 125.81 C 120.06 126.70 119.80 127.55 119.26 128.35 C 118.48 128.40 115.71 127.48 116.51 126.34 Z" fill="#f5bc31"/>
<path d="M 121.11 125.89 L 121.81 125.64 C 123.95 126.99 122.71 128.65 121.17 129.78 C 120.79 128.40 120.77 127.10 121.11 125.89 Z" fill="#f6bb30"/>
<path d="M 114.76 129.44 L 114.75 131.34 C 114.40 132.54 114.03 133.73 113.64 134.92 C 111.81 135.41 109.99 135.92 108.17 136.44 C 107.66 136.59 107.15 136.74 106.65 136.89 C 105.15 136.28 103.53 135.72 102.15 134.86 C 101.97 133.67 101.94 132.45 102.08 131.19 C 105.46 131.63 108.76 131.76 112.16 131.45 C 113.02 130.77 113.89 130.10 114.76 129.44 Z" fill="#00ab4e"/>
<path d="M 96.95 131.22 C 97.50 133.03 97.59 133.61 96.87 135.38 C 95.24 135.94 93.63 136.54 92.03 137.16 C 89.88 136.29 87.71 135.45 85.53 134.68 L 85.44 134.25 C 85.71 133.58 85.98 132.92 86.27 132.26 C 87.41 132.15 88.55 132.03 89.69 131.90 C 92.11 131.67 94.53 131.39 96.95 131.22 Z" fill="#00ab4e"/>
<path d="M 98.89 137.27 C 99.68 137.50 100.47 137.75 101.25 138.01 C 101.56 139.38 101.83 140.77 102.09 142.16 C 100.13 140.69 99.07 139.88 98.89 137.27 Z" fill="#f9cb41"/>
<path d="M 101.25 138.01 L 102.10 138.27 C 103.14 138.60 104.17 138.93 105.21 139.27 C 104.22 140.29 103.17 141.24 102.09 142.16 C 101.83 140.77 101.56 139.38 101.25 138.01 Z" fill="#459e46"/>
<path d="M 93.84 138.76 L 94.90 139.58 L 93.73 139.81 L 94.08 141.63 C 92.23 144.38 91.50 145.96 91.79 149.41 C 91.15 149.72 90.50 150.01 89.85 150.29 C 89.16 145.21 90.72 142.47 93.84 138.76 Z" fill="#1ca44d"/>
<path d="M 64.92 139.82 C 65.78 141.20 66.58 142.60 67.39 144.01 C 64.56 145.74 61.57 147.24 58.84 149.11 C 59.04 151.04 60.71 152.87 61.72 154.47 C 64.41 152.78 67.14 151.21 69.94 149.73 C 70.73 151.15 71.52 152.58 72.31 154.01 C 69.66 155.69 66.61 156.95 64.19 158.95 C 65.72 162.11 67.68 165.07 69.40 168.12 C 67.66 169.18 65.90 170.21 64.12 171.20 C 59.59 163.48 55.17 155.69 50.70 147.94 C 55.41 145.19 60.05 142.27 64.92 139.82 Z" fill="#ffffff"/>
<path d="M 106.49 139.67 C 108.94 143.26 110.27 145.86 109.70 150.37 C 109.07 150.09 108.45 149.80 107.83 149.50 C 107.56 146.67 107.36 144.36 105.06 142.39 C 105.53 141.48 106.01 140.58 106.49 139.67 Z" fill="#039b5a"/>
<path d="M 94.08 141.63 C 95.25 144.25 94.33 147.95 91.79 149.41 C 91.50 145.96 92.23 144.38 94.08 141.63 Z" fill="#265f7a"/>
<path d="M 105.06 142.39 C 107.36 144.36 107.56 146.67 107.83 149.50 C 105.29 148.39 105.05 146.36 104.27 143.98 L 105.06 142.39 Z" fill="#236476"/>
<path d="M 133.68 142.22 C 137.94 143.72 143.43 145.04 146.76 148.24 C 151.14 152.40 148.61 160.44 143.01 162.04 C 139.52 163.06 136.00 161.57 132.73 160.43 C 131.49 163.23 130.61 166.31 129.01 168.92 C 127.21 168.39 125.46 167.64 123.72 166.95 C 126.42 159.42 129.61 152.05 132.59 144.63 C 132.95 143.82 133.31 143.02 133.68 142.22 Z" fill="#ffffff"/>
<path d="M 97.41 144.46 C 100.35 142.75 103.54 144.68 103.61 148.01 C 103.56 151.26 99.53 153.05 97.09 150.94 C 95.01 149.07 95.21 146.12 97.41 144.46 Z" fill="#ffffff"/>
<path d="M 137.83 148.38 C 139.38 149.16 141.56 149.91 142.59 151.39 C 144.06 153.86 141.90 157.42 139.02 157.32 C 137.46 157.32 136.10 156.73 134.76 156.01 C 135.30 153.25 136.47 150.82 137.83 148.38 Z" fill="#00518b"/>
<path d="M 107.43 151.43 C 105.30 153.46 103.28 154.85 100.65 156.16 C 100.78 153.02 104.44 150.47 107.43 151.43 Z" fill="#1f607a"/>
<path d="M 90.53 151.68 L 92.45 151.39 C 94.20 153.81 96.52 155.30 98.97 156.90 L 99.32 158.18 C 95.19 157.28 92.10 155.88 90.53 151.68 Z" fill="#02a254"/>
<path d="M 92.45 151.39 L 94.14 151.20 C 96.84 152.75 98.54 153.56 98.97 156.90 C 96.52 155.30 94.20 153.81 92.45 151.39 Z" fill="#276774"/>
<path d="M 107.43 151.43 L 109.14 151.76 C 106.57 155.68 105.03 157.05 100.34 158.07 L 100.65 156.16 C 103.28 154.85 105.30 153.46 107.43 151.43 Z" fill="#00a057"/>
<path d="M 98.42 161.82 L 100.18 161.39 C 102.49 161.42 104.64 161.84 106.84 162.52 C 106.49 163.66 106.14 164.81 105.79 165.95 C 103.41 165.82 100.40 165.16 98.22 166.27 C 93.20 168.52 93.29 177.43 98.48 179.45 C 100.82 180.22 103.68 179.70 106.12 179.62 C 106.15 180.77 106.17 181.93 106.15 183.08 C 100.47 185.69 91.76 183.74 89.91 177.03 C 87.86 170.21 91.10 163.14 98.42 161.82 Z" fill="#ffffff"/>
<path d="M 96.15 187.23 C 99.20 186.49 103.45 186.45 105.81 188.88 C 105.17 190.93 101.80 191.21 100.01 191.46 C 97.86 191.43 94.52 191.06 93.27 189.04 C 94.13 188.16 95.09 187.55 96.15 187.23 Z" fill="#00518b"/>
<path d="M 93.83 190.96 C 95.58 191.31 97.31 191.73 99.04 192.14 C 99.14 193.88 99.22 195.61 99.32 197.34 C 93.11 197.36 86.97 196.45 80.97 194.89 C 79.31 194.39 77.67 194.19 76.67 192.56 C 82.67 192.74 88.03 192.64 93.83 190.96 Z" fill="#00508a"/>
</svg>
