<?xml version="1.0" encoding="UTF-8" standalone="no"?>
<!-- Created with Inkscape (http://www.inkscape.org/) -->
<svg xmlns:dc="http://purl.org/dc/elements/1.1/" xmlns:cc="http://creativecommons.org/ns#" xmlns:rdf="http://www.w3.org/1999/02/22-rdf-syntax-ns#" xmlns:svg="http://www.w3.org/2000/svg" xmlns="http://www.w3.org/2000/svg" xmlns:sodipodi="http://sodipodi.sourceforge.net/DTD/sodipodi-0.dtd" xmlns:inkscape="http://www.inkscape.org/namespaces/inkscape" width="601" height="601" id="svg5938" sodipodi:version="0.32" inkscape:version="0.48.2 r9819" version="1.0" sodipodi:docname="Montpellier HSC.svg" inkscape:output_extension="org.inkscape.output.svg.inkscape">
  <defs id="defs5940">
    <inkscape:perspective sodipodi:type="inkscape:persp3d" inkscape:vp_x="0 : 526.18109 : 1" inkscape:vp_y="0 : 1000 : 0" inkscape:vp_z="744.09448 : 526.18109 : 1" inkscape:persp3d-origin="372.04724 : 350.78739 : 1" id="perspective5946"/>
  </defs>
  <sodipodi:namedview id="base" pagecolor="#ffffff" bordercolor="#666666" borderopacity="1.0" inkscape:pageopacity="0.0" inkscape:pageshadow="2" inkscape:zoom="8.0044488" inkscape:cx="290.86359" inkscape:cy="589.05992" inkscape:document-units="px" inkscape:current-layer="layer1" showgrid="false" inkscape:window-width="1366" inkscape:window-height="706" inkscape:window-x="-8" inkscape:window-y="-8" inkscape:window-maximized="1"/>
  <metadata id="metadata5943">
    <rdf:RDF>
      <cc:Work rdf:about="">
        <dc:format>image/svg+xml</dc:format>
        <dc:type rdf:resource="http://purl.org/dc/dcmitype/StillImage"/>
      </cc:Work>
    </rdf:RDF>
  </metadata>
  <g inkscape:label="Calque 1" inkscape:groupmode="layer" id="layer1" transform="translate(-330.35839,104.7105)">
    <g id="g3029" transform="matrix(23.962396,0,0,23.962396,-7584.6024,-11396.17)">
      <path id="path1621" style="fill:#ffffff;fill-opacity:1;fill-rule:nonzero;stroke:none" d="m 349.39089,483.79075 c 0,3.6125 -2.92875,6.54125 -6.54125,6.54125 -3.61375,0 -6.5425,-2.92875 -6.5425,-6.54125 0,-3.6125 2.92875,-6.54125 6.5425,-6.54125 3.6125,0 6.54125,2.92875 6.54125,6.54125" inkscape:connector-curvature="0"/>
      <path id="path1623" style="fill:#999b9e;fill-opacity:1;fill-rule:nonzero;stroke:none" d="m 336.15839,483.79075 c 0,3.68875 3.00125,6.69 6.69125,6.69 3.68875,0 6.68875,-3.00125 6.68875,-6.69 0,-3.68875 -3,-6.69 -6.68875,-6.69 -3.69,0 -6.69125,3.00125 -6.69125,6.69 z m 0.2975,0 c 0,-3.525 2.8675,-6.3925 6.39375,-6.3925 3.52375,0 6.3925,2.8675 6.3925,6.3925 0,3.525 -2.86875,6.3925 -6.3925,6.3925 -3.52625,0 -6.39375,-2.8675 -6.39375,-6.3925" inkscape:connector-curvature="0"/>
      <path id="path1625" style="fill:#999b9e;fill-opacity:1;fill-rule:nonzero;stroke:none" d="m 330.35839,483.79075 c 0,6.89125 5.60625,12.49875 12.49875,12.49875 6.89125,0 12.49875,-5.6075 12.49875,-12.49875 0,-6.89125 -5.6075,-12.49875 -12.49875,-12.49875 -6.8925,0 -12.49875,5.6075 -12.49875,12.49875" inkscape:connector-curvature="0"/>
      <path id="path1627" style="fill:#ffffff;fill-opacity:1;fill-rule:nonzero;stroke:none" d="m 330.75339,483.79075 c 0,-6.67375 5.43,-12.1025 12.10375,-12.1025 6.6725,0 12.1025,5.42875 12.1025,12.1025 0,6.67375 -5.43,12.1025 -12.1025,12.1025 -6.67375,0 -12.10375,-5.42875 -12.10375,-12.1025" inkscape:connector-curvature="0"/>
      <path id="path1629" style="fill:#0067a6;fill-opacity:1;fill-rule:nonzero;stroke:none" d="m 339.97839,490.3195 2.88625,0.56625 6.64,-5.3125 0.27,-3.09125 -9.79625,7.8375" inkscape:connector-curvature="0"/>
      <path id="path1631" style="fill:#ffffff;fill-opacity:1;fill-rule:nonzero;stroke:none" d="m 349.68589,482.37075 -10.03625,8.03 3.2525,0.6375 6.73875,-5.3925 0.305,-3.48375 -0.26,0.20875 z m -0.0825,0.43 c -0.045,0.5175 -0.22625,2.595 -0.235,2.69875 -0.0937,0.075 -6.44,5.1525 -6.54125,5.23375 -0.11125,-0.0213 -2.0475,-0.40125 -2.52,-0.49375 0.445,-0.35625 8.81625,-7.05375 9.29625,-7.43875" inkscape:connector-curvature="0"/>
      <path id="path1633" style="fill:#0067a6;fill-opacity:1;fill-rule:nonzero;stroke:none" d="m 349.39464,479.997 -11.6725,9.34 -1.4025,-1.7525 11.6725,-9.34 1.4025,1.7525" inkscape:connector-curvature="0"/>
      <path id="path1635" style="fill:#ffffff;fill-opacity:1;fill-rule:nonzero;stroke:none" d="m 347.90214,478.13325 -11.78375,9.42875 1.58125,1.975 11.895,-9.5175 -1.58125,-1.975 -0.11125,0.0887 z m 0.0675,0.31125 c 0.145,0.1825 1.07875,1.34875 1.22375,1.53125 -0.21625,0.1725 -11.2325,8.9875 -11.45,9.16125 -0.145,-0.1825 -1.07875,-1.34875 -1.22375,-1.53125 0.21625,-0.1725 11.23375,-8.9875 11.45,-9.16125" inkscape:connector-curvature="0"/>
      <path id="path1637" style="fill:#0067a6;fill-opacity:1;fill-rule:nonzero;stroke:none" d="m 345.95089,477.13075 c -0.975,-0.37875 -1.91,-0.635 -2.59875,-0.795 l -7.92125,6.3375 0.18375,0.1825 0,2.54625 10.33625,-8.27125" inkscape:connector-curvature="0"/>
      <path id="path1639" style="fill:#ffffff;fill-opacity:1;fill-rule:nonzero;stroke:none" d="m 343.26339,476.22325 -8.045,6.43875 c 0,0 0.20375,0.20375 0.25375,0.2525 0,0.11375 0,2.785 0,2.785 l 10.76125,-8.61125 -0.23,-0.09 c -1.01375,-0.39375 -1.98375,-0.65375 -2.61875,-0.80125 l -0.0675,-0.0163 -0.0537,0.0425 z m 0.12375,0.2675 c 0.575,0.13625 1.40125,0.36 2.28,0.68625 -0.36875,0.29375 -9.47625,7.58125 -9.91,7.92875 0,-0.46375 0,-2.30875 0,-2.30875 0,0 -0.0788,-0.0788 -0.1125,-0.1125 0.24,-0.19125 7.63625,-6.11 7.7425,-6.19375" inkscape:connector-curvature="0"/>
      <path id="path1641" style="fill:#f79239;fill-opacity:1;fill-rule:nonzero;stroke:none" d="m 334.63964,483.79075 c 0,4.53125 3.68625,8.2175 8.2175,8.2175 4.53,0 8.21625,-3.68625 8.21625,-8.2175 0,-4.53125 -3.68625,-8.2175 -8.21625,-8.2175 -4.53125,0 -8.2175,3.68625 -8.2175,8.2175 z m 1.7825,0 c 0,-3.54875 2.88625,-6.435 6.435,-6.435 3.5475,0 6.435,2.88625 6.435,6.435 0,3.54875 -2.8875,6.435 -6.435,6.435 -3.54875,0 -6.435,-2.88625 -6.435,-6.435" inkscape:connector-curvature="0"/>
      <path id="path1643" style="fill:#999b9e;fill-opacity:1;fill-rule:nonzero;stroke:none" d="m 336.16714,483.79075 c 0,3.68875 3.00125,6.69 6.69,6.69 3.68875,0 6.69,-3.00125 6.69,-6.69 0,-3.68875 -3.00125,-6.69 -6.69,-6.69 -3.68875,0 -6.69,3.00125 -6.69,6.69 z m 0.29625,0 c 0,-3.525 2.86875,-6.3925 6.39375,-6.3925 3.525,0 6.3925,2.8675 6.3925,6.3925 0,3.525 -2.8675,6.3925 -6.3925,6.3925 -3.525,0 -6.39375,-2.8675 -6.39375,-6.3925" inkscape:connector-curvature="0"/>
      <path id="path1645" style="fill:#999b9e;fill-opacity:1;fill-rule:nonzero;stroke:none" d="m 334.37714,483.79075 c 0,4.675 3.80375,8.47875 8.48,8.47875 4.675,0 8.47875,-3.80375 8.47875,-8.47875 0,-4.675 -3.80375,-8.47875 -8.47875,-8.47875 -4.67625,0 -8.48,3.80375 -8.48,8.47875 z m 0.2975,0 c 0,-4.51125 3.67,-8.1825 8.1825,-8.1825 4.51125,0 8.18125,3.67125 8.18125,8.1825 0,4.51125 -3.67,8.1825 -8.18125,8.1825 -4.5125,0 -8.1825,-3.67125 -8.1825,-8.1825" inkscape:connector-curvature="0"/>
      <path id="path1647" style="fill:#0067a6;fill-opacity:1;fill-rule:nonzero;stroke:none" d="m 332.77714,489.47325 c -0.0862,0.015 -0.0862,0.015 -0.11375,-0.0275 -0.007,-0.0112 -0.03,-0.0487 -0.045,-0.0787 -0.0625,-0.10375 -0.1025,-0.16625 -0.1575,-0.255 -0.035,-0.0538 -0.0838,-0.12625 -0.12,-0.175 -0.0175,-0.0288 -0.0425,-0.0613 -0.0487,-0.0725 -0.0387,-0.06 -0.0362,-0.10125 0.009,-0.13 0.0425,-0.0275 0.0863,-0.002 0.15,0.08 0.0762,0.1 0.13375,0.10375 0.28125,0.002 l 1.1875,-0.805 c 0.2075,-0.13875 0.21875,-0.17 0.13125,-0.34625 -0.0263,-0.0537 -0.0225,-0.0925 0.0138,-0.11625 0.0425,-0.0263 0.0913,-0.001 0.14,0.075 0.004,0.006 0.0225,0.0375 0.035,0.0625 0.1075,0.19375 0.19,0.3375 0.23875,0.41375 0.0512,0.0825 0.1225,0.18125 0.19875,0.28375 0.0188,0.0288 0.0425,0.0612 0.0525,0.075 0.035,0.0575 0.0325,0.1025 -0.004,0.12625 -0.0512,0.0325 -0.0775,0.0175 -0.1675,-0.0937 -0.0762,-0.095 -0.13875,-0.0987 -0.2625,-0.0175 l -1.16125,0.765 1.45375,-0.2525 c 0.0637,-0.0125 0.1275,-0.025 0.195,-0.0388 0.1725,-0.0425 0.19375,-0.04 0.2375,0.0288 0.0263,0.0425 0.0238,0.0763 -0.0113,0.12625 l -1.015,1.455 0.85875,-0.5 c 0.0788,-0.045 0.17625,-0.10375 0.27125,-0.1625 0.1675,-0.10625 0.2,-0.1875 0.12625,-0.31625 -0.0713,-0.11875 -0.075,-0.155 -0.0238,-0.1875 0.04,-0.0263 0.085,-0.006 0.1225,0.0537 0.006,0.0113 0.0237,0.045 0.0387,0.075 0.03,0.06 0.0687,0.1275 0.10875,0.19 0.0475,0.0737 0.0925,0.14 0.1425,0.2 0.025,0.0325 0.0513,0.0675 0.06,0.0825 0.0325,0.0513 0.0288,0.0888 -0.007,0.1125 -0.0437,0.0275 -0.0675,0.0138 -0.155,-0.0813 -0.0788,-0.0863 -0.1275,-0.0875 -0.27625,-10e-4 l -1.2425,0.7 c -0.0325,0.0163 -0.0613,0.035 -0.10125,0.06 l -0.0513,0.0325 c -0.0825,0.0525 -0.0888,0.0925 -0.0263,0.20375 0.0563,0.1 0.0588,0.1425 0.0125,0.17125 -0.045,0.0288 -0.0863,0.007 -0.13375,-0.0662 l -0.1875,-0.31625 c -0.0412,-0.065 -0.125,-0.19125 -0.15625,-0.235 l -0.02,-0.0312 c -0.025,-0.04 -0.025,-0.0525 0.007,-0.1 l 0.84,-1.21 -1.425,0.24125" inkscape:connector-curvature="0"/>
      <path id="path1649" style="fill:#0067a6;fill-opacity:1;fill-rule:nonzero;stroke:none" d="m 332.33964,487.16825 c -0.0937,-0.2975 0.19875,-0.64625 0.6625,-0.7925 0.415,-0.13125 0.76125,-0.0437 0.8425,0.21375 0.0925,0.295 -0.205,0.65125 -0.66625,0.79625 -0.4125,0.13 -0.7575,0.04 -0.83875,-0.2175 z m -0.0987,0.0125 c 0.16125,0.5075 0.67375,0.79125 1.16,0.6375 0.2525,-0.08 0.465,-0.2825 0.54625,-0.51875 0.07,-0.205 0.07,-0.48625 -10e-4,-0.7125 -0.1625,-0.515 -0.67125,-0.8025 -1.155,-0.64875 -0.48625,0.1525 -0.72375,0.69 -0.55,1.2425" inkscape:connector-curvature="0"/>
      <path id="path1651" style="fill:#0067a6;fill-opacity:1;fill-rule:nonzero;stroke:none" d="m 332.11089,484.26575 c -0.20375,0.02 -0.21875,0.0362 -0.23,0.255 -0.002,0.0288 -0.0188,0.0487 -0.0475,0.0512 -0.04,0.004 -0.0638,-0.025 -0.07,-0.0863 -0.001,-0.01 -0.004,-0.0362 -0.004,-0.0587 -0.004,-0.0987 -0.007,-0.1625 -0.0138,-0.21875 -0.004,-0.0413 -0.0112,-0.0925 -0.02,-0.135 -0.006,-0.0312 -0.0125,-0.0637 -0.0138,-0.0787 -0.005,-0.0513 0.0138,-0.0788 0.0513,-0.0825 0.0437,-0.005 0.0587,0.02 0.0863,0.13125 0.0212,0.0925 0.0625,0.11 0.21875,0.095 l 1.37,-0.135 c 0.0775,-0.007 0.0962,0.002 0.1025,0.065 0.004,0.045 -0.0113,0.0763 -0.07,0.13125 l -1.2775,1.24 0.9425,-0.0925 c 0.1825,-0.0187 0.2425,-0.035 0.2825,-0.075 0.03,-0.0337 0.03,-0.0312 0.0337,-0.18625 -10e-4,-0.0387 0.0238,-0.07 0.055,-0.0725 0.0325,-0.004 0.0563,0.025 0.0613,0.0737 10e-4,0.01 10e-4,0.0337 0.002,0.0538 -10e-4,0.07 0.002,0.13125 0.0125,0.22875 0.005,0.0587 0.0138,0.1225 0.0238,0.16875 0.009,0.03 0.015,0.0625 0.015,0.0763 0.005,0.045 -0.0125,0.0737 -0.0487,0.0775 -0.0412,0.004 -0.0588,-0.0238 -0.0725,-0.11 -0.0188,-0.115 -0.08,-0.13125 -0.385,-0.10125 l -0.725,0.0713 c -0.29875,0.0362 -0.22,0.0263 -0.24,0.0312 -0.1225,0.0175 -0.15125,0.0462 -0.15,0.13375 0.004,0.0875 -0.01,0.1125 -0.0538,0.11625 -0.035,0.004 -0.0562,-0.0225 -0.0625,-0.085 l -0.02,-0.25625 -0.0263,-0.2375 c -0.007,-0.0875 -0.006,-0.0975 0.05,-0.1525 l 0.925,-0.90625 -0.7025,0.07" inkscape:connector-curvature="0"/>
      <path id="path1653" style="fill:#0067a6;fill-opacity:1;fill-rule:nonzero;stroke:none" d="m 333.19589,482.7795 c 0.1875,0.015 0.205,0.004 0.2525,-0.18125 0.007,-0.03 0.0275,-0.0475 0.0525,-0.045 0.0387,0.002 0.055,0.0275 0.0512,0.0713 l -0.001,0.015 c -0.005,0.0412 -0.004,0.0163 -0.0112,0.08 l -0.001,0.0225 -0.002,0.0213 -0.004,0.02 -0.003,0.0225 c -0.009,0.075 -0.0162,0.14375 -0.0237,0.23875 -0.008,0.0875 -0.009,0.14375 -0.0138,0.26 l -10e-4,0.02 -0.002,0.0238 10e-4,0.025 -0.002,0.0238 c 0.001,0.02 0,0.0387 -10e-4,0.0462 -0.002,0.0438 -0.0225,0.065 -0.0612,0.0625 -0.0362,-0.004 -0.0412,-0.009 -0.0525,-0.11875 -0.0113,-0.11125 -0.0512,-0.14125 -0.2125,-0.15375 l -1.22625,-0.0987 c -0.0412,-0.004 -0.0462,0.004 -0.0525,0.075 -0.0125,0.1625 0.0275,0.24 0.19375,0.3775 0.0613,0.0487 0.0888,0.0875 0.0863,0.11875 -0.002,0.0275 -0.03,0.0487 -0.06,0.0462 -0.009,0 -0.0213,-0.004 -0.0337,-0.007 l -0.37375,-0.13875 c -0.04,-0.0138 -0.0588,-0.0387 -0.0563,-0.07 0.002,-0.03 0.0175,-0.045 0.0462,-0.0525 0.06,-0.015 0.0663,-0.02 0.0713,-0.0825 l 0.085,-1.04875 c 0.008,-0.1 -0.005,-0.135 -0.0587,-0.175 -0.0387,-0.0288 -0.05,-0.045 -0.0487,-0.0738 0.004,-0.0362 0.03,-0.0512 0.0712,-0.0437 l 0.415,0.0775 c 0.0575,0.0125 0.0775,0.03 0.0738,0.0688 -0.002,0.0325 -0.03,0.0562 -0.0888,0.075 -0.23,0.0712 -0.25875,0.10625 -0.27625,0.32625 -0.005,0.0562 0.002,0.07 0.04,0.0725 l 1.22875,0.1" inkscape:connector-curvature="0"/>
      <path id="path1655" style="fill:#0067a6;fill-opacity:1;fill-rule:nonzero;stroke:none" d="m 332.43714,481.27575 c -0.235,-0.0588 -0.28,-0.1025 -0.24625,-0.2325 0.0425,-0.175 0.2425,-0.2725 0.4475,-0.22125 0.23,0.0575 0.345,0.21125 0.29875,0.3975 -0.03,0.1175 -0.075,0.1625 -0.1475,0.14375 l -0.3525,-0.0875 z m 0.57625,0.14375 c -0.0288,-0.008 -0.0375,-0.02 -0.0312,-0.045 0.006,-0.0213 0.0238,-0.0575 0.045,-0.0913 0.0663,-0.10625 0.10125,-0.18 0.12125,-0.265 0.0713,-0.27875 -0.10625,-0.57 -0.3925,-0.6425 -0.3025,-0.075 -0.54,0.10875 -0.63625,0.49625 -0.0163,0.0625 -0.04,0.17875 -0.0575,0.2825 -0.025,0.12625 -0.045,0.23 -0.0575,0.2775 -0.0138,0.0575 -0.025,0.1 -0.055,0.20125 -0.0275,0.0863 -0.0312,0.10125 -0.0337,0.11125 -0.006,0.0162 -0.0113,0.0337 -0.0138,0.0437 -0.01,0.0425 10e-4,0.07 0.0388,0.0788 0.025,0.006 0.0475,-0.006 0.06,-0.035 0.0775,-0.17375 0.0962,-0.1825 0.2775,-0.1375 l 1.02625,0.2575 c 0.1575,0.04 0.19125,0.075 0.185,0.1875 -0.006,0.10625 -0.004,0.115 0.0312,0.125 0.0387,0.009 0.0612,-0.01 0.0712,-0.0512 0.003,-0.007 0.006,-0.025 0.009,-0.0463 l 0.006,-0.0225 0.004,-0.025 0.006,-0.0225 0.005,-0.02 c 0.0225,-0.11375 0.0337,-0.17 0.0537,-0.25 0.0225,-0.0888 0.0412,-0.15375 0.0625,-0.225 l 0.005,-0.0225 0.008,-0.02 0.005,-0.02 0.006,-0.0225 c 0.0175,-0.0612 0.0113,-0.0362 0.0238,-0.0763 l 0.004,-0.015 c 0.0112,-0.0425 -0.001,-0.0687 -0.0387,-0.0788 -0.025,-0.006 -0.0463,0.007 -0.0588,0.0362 -0.0788,0.17375 -0.0962,0.1825 -0.27875,0.1375 l -0.4,-0.10125" inkscape:connector-curvature="0"/>
      <path id="path1657" style="fill:#0067a6;fill-opacity:1;fill-rule:nonzero;stroke:none" d="m 333.89214,479.92075 c 0.18625,0.0825 0.28625,0.0475 0.36,-0.12 0.0825,-0.18875 0.0625,-0.36625 -0.0575,-0.50875 -0.0537,-0.065 -0.065,-0.0962 -0.0487,-0.13375 0.0138,-0.03 0.0425,-0.04 0.0738,-0.0263 0.0237,0.01 0.07,0.0387 0.11375,0.0725 0.045,0.0337 0.10125,0.07 0.1925,0.11875 0.035,0.0175 0.04,0.0312 0.0275,0.0588 -0.005,0.0125 -0.025,0.0512 -0.04,0.0838 -0.0475,0.0975 -0.11125,0.235 -0.19,0.415 -0.07,0.16 -0.16625,0.37875 -0.19875,0.46 -0.05,0.11375 -0.0325,0.0737 -0.1125,0.28 -0.005,0.02 -0.0125,0.0362 -0.0163,0.0437 -0.0175,0.04 -0.0437,0.0538 -0.0787,0.0388 -0.0325,-0.015 -0.035,-0.0225 -0.0113,-0.12875 0.0263,-0.11 -10e-4,-0.15 -0.15,-0.215 l -0.96875,-0.42625 c -0.17125,-0.075 -0.19,-0.0725 -0.2975,0.0888 -0.0163,0.0263 -0.04,0.0362 -0.0638,0.025 -0.035,-0.015 -0.0425,-0.0438 -0.025,-0.0838 l 0.006,-0.0138 0.009,-0.0138 0.006,-0.0137 0.009,-0.0213 0.0125,-0.0225 0.01,-0.0212 0.007,-0.0188 0.0125,-0.02 0.007,-0.0187 c 0.0387,-0.0738 0.0675,-0.14 0.12625,-0.27375 0.0425,-0.0975 0.0925,-0.21625 0.1225,-0.2925 0.19875,-0.5025 0.14,-0.34875 0.19125,-0.48625 l 0.009,-0.0188 c 0.0125,-0.0312 0.03,-0.0375 0.0612,-0.0238 l 0.09,0.0425 0.1625,0.0662 c 0.0713,0.03 0.0813,0.0463 0.0625,0.0888 -0.0125,0.0275 -0.0337,0.0387 -0.10625,0.0488 -0.17375,0.025 -0.25625,0.085 -0.32125,0.2325 -0.0988,0.22375 -0.0988,0.25 10e-4,0.2925 l 0.37625,0.16625 c 0.0687,0.03 0.0975,0.0225 0.11875,-0.0263 0.1175,-0.26875 0.1175,-0.31375 0.009,-0.41 -0.055,-0.0475 -0.0725,-0.08 -0.0575,-0.1125 0.0137,-0.0325 0.05,-0.0425 0.0863,-0.0238 l 0.2375,0.11875 0.20875,0.08 c 0.045,0.02 0.06,0.0487 0.0462,0.0825 -0.015,0.0325 -0.0425,0.045 -0.1,0.0425 -0.14875,-0.009 -0.2225,0.0263 -0.265,0.12 l -0.0175,0.0487 c -0.0675,0.1725 -0.0675,0.16625 0.01,0.20125 l 0.36,0.1575" inkscape:connector-curvature="0"/>
      <path id="path1659" style="fill:#0067a6;fill-opacity:1;fill-rule:nonzero;stroke:none" d="m 333.55089,478.35075 c -0.1575,-0.10125 -0.1775,-0.0987 -0.3075,0.04 -0.0212,0.0237 -0.0462,0.0288 -0.0675,0.015 -0.0325,-0.0213 -0.035,-0.05 -0.0112,-0.0863 0,0 0.006,-0.0113 0.0187,-0.025 l 0.008,-0.0138 0.0137,-0.0188 0.015,-0.02 0.0125,-0.02 0.0112,-0.0175 0.0138,-0.015 0.0125,-0.02 c 0.04,-0.0575 0.0825,-0.11875 0.12875,-0.19 0.0525,-0.0825 0.08,-0.12875 0.14,-0.23125 l 0.0113,-0.0175 0.0125,-0.0188 0.0113,-0.0238 0.0125,-0.0187 c 0.009,-0.0188 0.0188,-0.0338 0.0238,-0.04 0.0238,-0.0375 0.0512,-0.0475 0.0838,-0.0263 0.03,0.02 0.03,0.0288 -0.01,0.12875 -0.0425,0.10375 -0.0212,0.1475 0.115,0.23625 l 0.86875,0.56 c 0.15,0.0962 0.24875,0.0813 0.3325,-0.0488 0.105,-0.1625 0.10625,-0.3175 0.009,-0.5025 -0.0337,-0.0587 -0.0375,-0.0887 -0.02,-0.1175 0.0188,-0.0275 0.0438,-0.0325 0.0713,-0.015 0.035,0.0225 0.0937,0.0688 0.145,0.12125 0.045,0.0412 0.0813,0.0737 0.1175,0.1 0.0437,0.035 0.0475,0.0488 0.02,0.0925 l -0.0175,0.0263 c -0.05,0.0712 -0.0437,0.0625 -0.13125,0.18375 -0.0663,0.0925 -0.13375,0.19375 -0.23625,0.35375 -0.0975,0.15125 -0.175,0.275 -0.26,0.42 -0.0312,0.0537 -0.04,0.0725 -0.045,0.0813 -0.009,0.0163 -0.0175,0.0312 -0.0237,0.04 -0.0238,0.0375 -0.0513,0.0462 -0.0838,0.0262 -0.03,-0.02 -0.03,-0.0288 0.01,-0.12875 0.0425,-0.105 0.0213,-0.14875 -0.115,-0.23625 l -0.88875,-0.57375" inkscape:connector-curvature="0"/>
      <path id="path1661" style="fill:#0067a6;fill-opacity:1;fill-rule:nonzero;stroke:none" d="m 334.49214,476.99325 c -0.14,-0.125 -0.16,-0.125 -0.31,-0.006 -0.025,0.0187 -0.05,0.0212 -0.0688,0.004 -0.0288,-0.0263 -0.0275,-0.055 0.001,-0.0875 0,0 0.009,-0.01 0.0225,-0.0213 l 0.01,-0.0125 0.0163,-0.0163 0.0188,-0.0175 0.015,-0.0175 0.0138,-0.0162 0.0163,-0.0125 0.015,-0.0175 c 0.0475,-0.0512 0.1,-0.105 0.15625,-0.16875 0.065,-0.0725 0.0987,-0.115 0.17375,-0.2075 l 0.0138,-0.015 0.015,-0.0175 0.015,-0.0213 0.015,-0.0162 c 0.0125,-0.0175 0.0237,-0.0312 0.0288,-0.0363 0.03,-0.0337 0.0587,-0.0387 0.0875,-0.0137 0.0263,0.025 0.025,0.0337 -0.0288,0.12625 -0.0587,0.0962 -0.045,0.14375 0.0763,0.25125 l 0.77375,0.68625 c 0.13375,0.1175 0.23375,0.1175 0.33625,0.002 0.1275,-0.145 0.15375,-0.2975 0.085,-0.49625 -0.0238,-0.0625 -0.0238,-0.0937 -0.001,-0.11875 0.0225,-0.025 0.0475,-0.0262 0.0725,-0.004 0.03,0.0275 0.0813,0.0825 0.125,0.14125 0.0375,0.0475 0.0688,0.0863 0.1,0.11625 0.0387,0.0412 0.04,0.0562 0.006,0.095 l -0.0213,0.0225 c -0.06,0.0637 -0.0538,0.0562 -0.1575,0.1625 -0.08,0.0825 -0.16125,0.17125 -0.2875,0.31375 -0.12,0.13375 -0.215,0.24625 -0.32125,0.37625 -0.0387,0.0475 -0.05,0.065 -0.0575,0.0725 -0.01,0.015 -0.0213,0.0288 -0.0288,0.0362 -0.0288,0.0325 -0.0575,0.0387 -0.0863,0.0125 -0.0275,-0.0238 -0.0263,-0.0325 0.0288,-0.12625 0.0575,-0.0962 0.0437,-0.1425 -0.0775,-0.25 l -0.79125,-0.7025" inkscape:connector-curvature="0"/>
      <path id="path1663" style="fill:#0067a6;fill-opacity:1;fill-rule:nonzero;stroke:none" d="m 336.65589,476.31575 c 0.12375,0.14125 0.1425,0.145 0.30625,0.0463 0.0275,-0.0163 0.0525,-0.015 0.07,0.005 0.025,0.0288 0.0187,0.0575 -0.0138,0.0863 l -0.0113,0.01 c -0.0337,0.025 -0.0138,0.009 -0.0637,0.0487 l -0.0175,0.015 -0.0162,0.0138 -0.0163,0.0113 -0.0175,0.015 c -0.0525,0.0425 -0.11375,0.0925 -0.1725,0.14375 -0.0975,0.085 -0.10125,0.0875 -0.27125,0.25 -0.0138,0.015 -0.0275,0.0263 -0.0337,0.0312 -0.0325,0.0288 -0.0613,0.0312 -0.0875,0.002 -0.0237,-0.0275 -0.0212,-0.0362 0.045,-0.12125 0.07,-0.0888 0.0625,-0.13625 -0.0437,-0.25875 l -0.695,-0.7975 c -0.1225,-0.1425 -0.1425,-0.145 -0.30625,-0.0475 -0.0275,0.0163 -0.0525,0.015 -0.0687,-0.005 -0.0263,-0.0288 -0.02,-0.0575 0.0125,-0.0863 0,0 0.01,-0.009 0.025,-0.0188 l 0.0113,-0.01 0.0175,-0.015 0.0213,-0.015 0.0175,-0.015 0.0162,-0.0137 0.0175,-0.0113 0.0175,-0.015 c 0.05,-0.0412 0.11375,-0.0925 0.16625,-0.13875 0.1025,-0.09 0.1025,-0.09 0.27625,-0.25375 0.0138,-0.0163 0.0275,-0.0275 0.0337,-0.0325 0.0325,-0.0288 0.0625,-0.0312 0.0875,-0.001 0.0238,0.0275 0.0213,0.0362 -0.045,0.12125 -0.07,0.0875 -0.0625,0.135 0.0437,0.2575 l 0.695,0.79875" inkscape:connector-curvature="0"/>
      <path id="path1665" style="fill:#0067a6;fill-opacity:1;fill-rule:nonzero;stroke:none" d="m 337.44964,475.662 c 0.11125,0.17 0.21375,0.195 0.36625,0.095 0.1725,-0.11375 0.2525,-0.27375 0.22875,-0.45875 -0.009,-0.0838 -0.001,-0.115 0.0325,-0.1375 0.0275,-0.0188 0.0575,-0.0113 0.0763,0.0175 0.0138,0.0213 0.0375,0.07 0.0562,0.1225 0.0188,0.0525 0.0475,0.11375 0.0975,0.20375 0.0188,0.0337 0.0163,0.0487 -0.01,0.065 -0.01,0.007 -0.0488,0.03 -0.0788,0.05 -0.0925,0.055 -0.22125,0.13625 -0.385,0.24375 -0.14625,0.095 -0.34625,0.2275 -0.4175,0.2775 -0.10375,0.0675 -0.0662,0.0437 -0.24625,0.17375 -0.015,0.0138 -0.03,0.0238 -0.0375,0.0275 -0.0362,0.025 -0.065,0.0225 -0.0863,-0.01 -0.02,-0.03 -0.0188,-0.0375 0.06,-0.11375 0.0813,-0.0775 0.08,-0.12625 -0.009,-0.2625 l -0.58125,-0.88375 c -0.10375,-0.15625 -0.12125,-0.16375 -0.29875,-0.0875 -0.0275,0.0137 -0.0525,0.007 -0.0675,-0.0138 -0.0212,-0.0325 -0.0112,-0.06 0.025,-0.0838 l 0.0125,-0.009 0.015,-0.006 0.0125,-0.009 0.02,-0.0125 0.0225,-0.0125 0.02,-0.0125 0.0163,-0.0113 0.0213,-0.01 0.0175,-0.0113 c 0.0713,-0.0412 0.13125,-0.0813 0.25375,-0.16125 0.0888,-0.0588 0.195,-0.13125 0.26125,-0.17875 0.44125,-0.31375 0.3075,-0.2175 0.42625,-0.305 l 0.0163,-0.0113 c 0.0288,-0.0175 0.0462,-0.0138 0.065,0.0138 l 0.0525,0.085 0.10125,0.14375 c 0.0425,0.065 0.0412,0.0825 0.002,0.10875 -0.025,0.0163 -0.0488,0.0138 -0.115,-0.0163 -0.16,-0.0737 -0.26125,-0.0687 -0.39625,0.02 -0.20375,0.135 -0.2175,0.15625 -0.15875,0.24625 l 0.22625,0.34375 c 0.0412,0.0625 0.0688,0.0725 0.11375,0.0425 0.245,-0.16125 0.27,-0.19875 0.23,-0.34 -0.0213,-0.0687 -0.0175,-0.105 0.0138,-0.125 0.03,-0.02 0.065,-0.009 0.085,0.0275 l 0.135,0.2275 0.13125,0.18125 c 0.0275,0.0412 0.0238,0.075 -0.006,0.0937 -0.03,0.02 -0.06,0.0163 -0.1075,-0.0175 -0.12,-0.0888 -0.2,-0.1 -0.28625,-0.0425 l -0.0425,0.03 c -0.15,0.10875 -0.1475,0.10375 -0.1,0.17375 l 0.21625,0.32875" inkscape:connector-curvature="0"/>
      <path id="path1667" style="fill:#0067a6;fill-opacity:1;fill-rule:nonzero;stroke:none" d="m 338.39589,473.89825 c -0.045,-0.10375 -0.0263,-0.15125 0.075,-0.195 0.15375,-0.0663 0.33625,0.0187 0.41125,0.19375 0.0825,0.19125 0.002,0.37125 -0.2025,0.46 -0.0638,0.0275 -0.0775,0.0212 -0.11,-0.0538 l -0.17375,-0.405 z m -0.52,-0.0538 -0.0225,0.006 -0.0188,0.009 -0.0212,0.009 -0.025,0.009 -0.02,0.009 -0.015,0.006 c -0.0175,0.004 -0.0288,0.01 -0.0288,0.01 -0.0413,0.0163 -0.055,0.0425 -0.04,0.0775 0.0113,0.0238 0.0337,0.0338 0.065,0.0263 0.185,-0.0437 0.20375,-0.035 0.2775,0.1375 l 0.4175,0.9725 c 0.065,0.14875 0.0575,0.1975 -0.0362,0.26 -0.0888,0.06 -0.0937,0.0675 -0.08,0.10125 0.015,0.035 0.0437,0.0425 0.0838,0.025 0.007,-0.002 0.0237,-0.01 0.0412,-0.02 l 0.0213,-0.01 0.0225,-0.0112 0.0213,-0.01 0.02,-0.008 c 0.10125,-0.05 0.1525,-0.075 0.22125,-0.10375 0.0875,-0.0375 0.14375,-0.0625 0.2175,-0.0888 l 0.0212,-0.009 0.02,-0.005 0.0188,-0.009 0.0212,-0.009 c 0.06,-0.0238 0.0363,-0.0125 0.075,-0.0275 l 0.0137,-0.006 c 0.0413,-0.0162 0.055,-0.0425 0.04,-0.0775 -0.01,-0.0238 -0.0337,-0.0337 -0.065,-0.0263 -0.185,0.0437 -0.20375,0.035 -0.2775,-0.1375 l -0.17375,-0.405 c -0.0188,-0.045 -0.0163,-0.0575 0.0213,-0.0737 0.0788,-0.0337 0.11875,-0.0175 0.26875,0.10875 l 0.485,0.41375 c 0.0425,0.0375 0.0575,0.04 0.1,0.0213 0.006,-0.002 0.0188,-0.007 0.0312,-0.0163 0.025,-0.0138 0.06,-0.0312 0.10125,-0.0525 0.035,-0.0175 0.06,-0.0288 0.065,-0.03 l 0.235,-0.0863 c 0.0362,-0.0138 0.0525,-0.0462 0.04,-0.0763 -0.0125,-0.0288 -0.0337,-0.04 -0.0775,-0.0288 -0.0913,0.02 -0.10875,0.0125 -0.22125,-0.0812 l -0.35875,-0.3 c -0.12375,-0.10375 -0.2025,-0.12375 -0.33625,-0.0913 0.27375,-0.165 0.36,-0.3475 0.2675,-0.5625 -0.105,-0.24375 -0.35,-0.32 -0.63625,-0.1975 -0.0638,0.0275 -0.15625,0.0725 -0.25375,0.12 -0.12375,0.065 -0.2375,0.11875 -0.30375,0.1475 -0.0825,0.0362 -0.125,0.0537 -0.20375,0.0813 l -0.0187,0.009" inkscape:connector-curvature="0"/>
      <path id="path1669" style="fill:#0067a6;fill-opacity:1;fill-rule:nonzero;stroke:none" d="m 342.12214,473.147 c 0.0637,-0.006 0.0725,-0.0213 0.065,-0.0913 l -0.0462,-0.44625 c -0.025,-0.24375 -0.04,-0.2625 -0.28875,-0.28125 -0.0413,-0.006 -0.0675,-0.0238 -0.0713,-0.06 -0.004,-0.0475 0.0238,-0.0738 0.08,-0.08 0,0 0.0175,-10e-4 0.0412,0 l 0.05,-0.005 0.03,0 0.0337,-0.004 0.0263,-0.002 0.0275,0 0.0275,-0.002 c 0.0975,-0.004 0.18375,-0.0125 0.31875,-0.025 0.10625,-0.0112 0.18375,-0.0225 0.33,-0.045 l 0.0263,-0.002 0.0312,-0.004 0.0325,-0.006 0.03,-0.002 c 0.0263,-0.006 0.05,-0.009 0.06,-0.01 0.0575,-0.006 0.09,0.015 0.0937,0.0613 0.006,0.05 -0.004,0.0575 -0.13875,0.0962 -0.14375,0.0412 -0.16875,0.0975 -0.1475,0.3125 l 0.14125,1.37625 c 0.0263,0.24375 0.0412,0.2625 0.29375,0.28125 0.04,0.002 0.0663,0.0238 0.07,0.06 0.005,0.0475 -0.0225,0.0738 -0.08,0.08 l -0.02,10e-4 c -0.0538,0.002 -0.06,0.004 -0.21875,0.0125 -0.08,0.005 -0.19125,0.0125 -0.27125,0.0213 -0.19125,0.02 -0.1875,0.0188 -0.4975,0.065 -0.0238,0.005 -0.0475,0.007 -0.0575,0.009 -0.0562,0.006 -0.0888,-0.015 -0.0937,-0.0613 -0.005,-0.05 10e-4,-0.0575 0.13875,-0.0987 0.14125,-0.0425 0.16625,-0.095 0.14375,-0.31 l -0.0588,-0.575 c -0.0138,-0.10375 -0.0175,-0.10625 -0.075,-0.10125 l -0.71625,0.0737 c -0.0937,0.01 -0.0962,0.0138 -0.0875,0.1 l 0.0612,0.5925 c 0.025,0.245 0.04,0.26 0.28875,0.2825 0.0412,0.002 0.0663,0.0238 0.07,0.06 0.005,0.0475 -0.0225,0.0738 -0.0788,0.08 l -0.0212,10e-4 c -0.0538,0.002 -0.0563,0.002 -0.215,0.0125 -0.0875,0.005 -0.1875,0.0125 -0.28875,0.0225 -0.1675,0.0175 -0.18,0.0188 -0.48,0.0625 -0.0275,0.006 -0.05,0.009 -0.06,0.01 -0.0575,0.006 -0.09,-0.015 -0.095,-0.0613 -0.005,-0.05 0.005,-0.0587 0.13875,-0.0987 0.14125,-0.0425 0.17,-0.095 0.1475,-0.31 l -0.14125,-1.37625 c -0.025,-0.24375 -0.04,-0.2625 -0.2925,-0.28125 -0.045,-0.005 -0.0663,-0.0237 -0.0713,-0.0637 -0.004,-0.04 0.0275,-0.07 0.0813,-0.0763 0,0 0.0162,-0.001 0.04,0 l 0.02,-0.002 0.03,-0.002 0.0337,0 0.03,-0.004 0.0275,-0.002 0.0263,0 0.0312,-0.002 c 0.0875,-0.006 0.19125,-0.0125 0.29125,-0.0238 0.1675,-0.0163 0.1775,-0.0175 0.4775,-0.0625 0.0238,-0.005 0.0462,-0.007 0.0562,-0.009 0.0575,-0.006 0.09,0.015 0.095,0.0612 0.005,0.05 -0.001,0.0575 -0.13875,0.095 -0.14125,0.0425 -0.16625,0.0987 -0.145,0.31375 l 0.0462,0.445 c 0.006,0.0662 0.025,0.0812 0.0962,0.075 l 0.71625,-0.0738" inkscape:connector-curvature="0"/>
      <path id="path1671" style="fill:#0067a6;fill-opacity:1;fill-rule:nonzero;stroke:none" d="m 344.16589,473.2145 c 0.11125,0.0125 0.1775,0.095 0.16375,0.21 -0.015,0.135 -0.0875,0.15625 -0.41625,0.12 -0.08,-0.009 -0.1,-0.0225 -0.095,-0.0625 0.0175,-0.15375 0.1875,-0.285 0.3475,-0.2675 z m 0.405,0.50875 c 0.0937,0.01 0.13125,-0.0163 0.14,-0.09 0.0275,-0.2525 -0.22375,-0.4825 -0.575,-0.52125 -0.41875,-0.0475 -0.79125,0.22125 -0.8325,0.60125 -0.0437,0.39 0.255,0.74375 0.67,0.79 0.20125,0.0225 0.40125,-0.0288 0.56375,-0.13875 0.055,-0.0375 0.0862,-0.0738 0.09,-0.10375 0.002,-0.0237 -0.0188,-0.0475 -0.0412,-0.0475 -0.0213,10e-4 -0.0375,0.006 -0.0838,0.0312 -0.115,0.0675 -0.20375,0.09 -0.3075,0.0787 -0.27625,-0.0312 -0.46375,-0.30125 -0.42875,-0.6175 0.007,-0.0588 0.0213,-0.0713 0.0725,-0.065 l 0.7325,0.0825 z m -0.6125,-0.77875 c 0.01,0.0138 0.0125,0.0175 0.02,0.0175 0.007,0.001 0.0163,0 0.05,-0.015 l 0.57625,-0.25125 c 0.0337,-0.0125 0.0487,-0.0237 0.05,-0.04 0.001,-0.007 -0.002,-0.0163 -0.009,-0.0337 l -0.0575,-0.095 c -0.015,-0.025 -0.015,-0.0275 -0.0288,-0.03 -0.01,-10e-4 -0.0275,0.005 -0.0537,0.0238 l -0.53,0.33625 c -0.04,0.025 -0.04,0.0225 -0.04,0.0312 -10e-4,0.005 -10e-4,0.005 0.01,0.0275 l 0.0125,0.0288" inkscape:connector-curvature="0"/>
      <path id="path1673" style="fill:#0067a6;fill-opacity:1;fill-rule:nonzero;stroke:none" d="m 345.02714,473.82825 c 0.0375,-0.1475 0.0213,-0.19125 -0.09,-0.22875 -0.0487,-0.015 -0.0663,-0.0325 -0.0575,-0.0637 0.009,-0.0362 0.009,-0.0362 0.15875,-0.0425 0.0838,-0.002 0.2775,-0.06 0.39125,-0.11375 0.0637,-0.0312 0.0838,-0.0362 0.11,-0.03 0.0238,0.006 0.03,0.0238 0.0212,0.055 l -0.0462,0.18125 c -0.007,0.0312 -0.009,0.045 0.001,0.0475 0.002,10e-4 0.0125,-0.002 0.0188,-0.009 0.1175,-0.0913 0.295,-0.13625 0.41375,-0.10625 0.1325,0.0337 0.2175,0.155 0.1875,0.27125 -0.0325,0.1275 -0.15875,0.2 -0.28875,0.16625 -0.075,-0.0188 -0.1225,-0.0613 -0.16125,-0.14375 -0.0337,-0.0638 -0.0475,-0.0838 -0.0712,-0.09 -0.0312,-0.007 -0.0738,0.0175 -0.10375,0.0588 -0.035,0.055 -0.0538,0.1025 -0.0925,0.255 l -0.0888,0.34375 c -0.0512,0.2 -0.05,0.20375 0.1,0.2775 0.0425,0.0188 0.0575,0.045 0.0487,0.0763 -0.007,0.0337 -0.0412,0.0437 -0.0987,0.03 -0.007,-0.003 -0.03,-0.009 -0.0475,-0.015 -0.12625,-0.0387 -0.23875,-0.07 -0.30125,-0.0863 -0.055,-0.0137 -0.17625,-0.0425 -0.2975,-0.0675 -0.0188,-0.002 -0.0412,-0.009 -0.05,-0.0112 -0.0562,-0.0138 -0.08,-0.04 -0.0712,-0.0738 0.007,-0.03 0.0337,-0.0462 0.08,-0.0425 0.165,0.01 0.17,0.005 0.22125,-0.19375 l 0.11375,-0.445" inkscape:connector-curvature="0"/>
      <path id="path1675" style="fill:#0067a6;fill-opacity:1;fill-rule:nonzero;stroke:none" d="m 346.76589,474.7045 c -0.0387,0.0913 -0.0738,0.1425 -0.115,0.16625 -0.0613,0.035 -0.15375,0.0412 -0.22,0.0125 -0.0787,-0.0325 -0.11,-0.12625 -0.0725,-0.215 0.0325,-0.0788 0.0937,-0.1225 0.19875,-0.14625 0.1025,-0.0213 0.25,-0.035 0.2725,-0.0275 0.0125,0.005 0.015,0.02 0.006,0.0425 l -0.07,0.1675 z m 0.14625,-0.3525 c -0.0113,0.0263 -0.0113,0.0263 -0.12,0.0312 l -0.0763,0.002 -0.08,0.005 -0.0763,0.002 c -0.125,0.006 -0.22,0.0125 -0.2925,0.02 -0.16375,0.0188 -0.27125,0.09 -0.325,0.21875 -0.0637,0.1525 0.004,0.31125 0.16375,0.3775 0.0725,0.03 0.15125,0.0425 0.23875,0.0412 0.0825,-0.004 0.10125,-0.01 0.29125,-0.0675 0.009,-10e-4 0.015,-0.002 0.02,0 0.007,0.002 0.0125,0.0113 0.0125,0.025 l 0.006,0.09 c 0.002,0.015 0.005,0.0312 0.007,0.0437 0.0188,0.06 0.0625,0.10625 0.1325,0.135 0.0962,0.04 0.215,0.0387 0.34375,-0.004 0.0625,-0.0213 0.0987,-0.0463 0.11,-0.0725 0.01,-0.0225 0,-0.0475 -0.02,-0.055 -0.007,-0.004 -0.0212,-0.006 -0.0312,-0.002 -0.105,0.0175 -0.0962,0.0162 -0.12125,0.005 -0.045,-0.0213 -0.0462,-0.0625 -0.005,-0.16125 l 0.27125,-0.65125 c 0.0775,-0.1875 -0.025,-0.33125 -0.32875,-0.4575 -0.1825,-0.0762 -0.38875,-0.095 -0.55375,-0.0537 -0.1175,0.0325 -0.24375,0.11375 -0.26875,0.175 -0.0163,0.0387 0.005,0.0775 0.05,0.0962 0.0587,0.0238 0.16,0.0375 0.2475,0.0362 0.0687,-0.004 0.0987,-0.02 0.17125,-0.0913 0.0925,-0.0888 0.18125,-0.12125 0.2575,-0.09 0.0863,0.0362 0.095,0.1125 0.0337,0.26 l -0.0587,0.14125" inkscape:connector-curvature="0"/>
      <path id="path1677" style="fill:#0067a6;fill-opacity:1;fill-rule:nonzero;stroke:none" d="m 347.73964,474.65575 c 0.1075,-0.175 0.10875,-0.18 -0.0125,-0.29375 -0.035,-0.0312 -0.0413,-0.06 -0.025,-0.0875 0.0188,-0.03 0.0538,-0.03 0.10375,0.001 0.004,0.002 0.0225,0.0137 0.0413,0.0288 l 0.055,0.0337 0.0238,0.0188 c 0.0775,0.0512 0.14,0.0925 0.17,0.11125 l 0.0838,0.0525 c 0.0263,0.0125 0.0625,0.035 0.0662,0.0375 0.0413,0.0263 0.0413,0.0325 0,0.0975 l -0.40375,0.65 c -0.095,0.15375 -0.0875,0.2725 0.0263,0.34375 0.0613,0.0375 0.16,0.0513 0.24,0.0325 0.0488,-0.0113 0.0675,-0.0275 0.11,-0.095 l 0.28375,-0.4575 c 0.10875,-0.17375 0.10875,-0.18 -0.0125,-0.29375 -0.0362,-0.0325 -0.0437,-0.0613 -0.0263,-0.0888 0.0175,-0.0288 0.0525,-0.03 0.1025,10e-4 0.005,0.002 0.025,0.015 0.0425,0.0288 l 0.0275,0.0175 0.025,0.0187 0.0275,0.0175 c 0.0637,0.0425 0.115,0.0775 0.12,0.08 0.0363,0.0225 0.07,0.0437 0.14625,0.0888 l 0.0613,0.0375 c 0.0325,0.02 0.0337,0.0275 0.004,0.075 l -0.44875,0.7225 c -0.085,0.1375 -0.0863,0.16 0.006,0.2325 0.0312,0.0263 0.0387,0.0462 0.0238,0.0687 -0.0175,0.03 -0.0512,0.0275 -0.1475,-0.01 -0.085,-0.0312 -0.18875,-0.0612 -0.30625,-0.09 -0.0925,-0.0188 -0.1025,-0.0225 -0.11875,-0.0325 -0.025,-0.015 -0.0263,-0.0288 -0.006,-0.06 l 0.0613,-0.0975 c 0.015,-0.025 0.0163,-0.0437 0.002,-0.0512 -0.0125,-0.009 -0.001,-0.008 -0.11,0 -0.155,0.0112 -0.29375,-0.0188 -0.4025,-0.0863 -0.22,-0.1375 -0.26125,-0.36375 -0.11,-0.6075 l 0.27625,-0.445" inkscape:connector-curvature="0"/>
      <path id="path1679" style="fill:#0067a6;fill-opacity:1;fill-rule:nonzero;stroke:none" d="m 349.16964,476.38575 c -0.13,0.16 -0.13,0.16375 -0.0263,0.29375 0.03,0.035 0.0337,0.065 0.0138,0.09 -0.0225,0.0263 -0.0575,0.0225 -0.1025,-0.015 -0.006,-0.005 -0.025,-0.02 -0.0375,-0.0337 -0.1,-0.0888 -0.1875,-0.16375 -0.24375,-0.20875 -0.0375,-0.0312 -0.14,-0.11125 -0.235,-0.18125 -0.0163,-0.01 -0.035,-0.025 -0.0412,-0.03 -0.045,-0.0375 -0.0562,-0.0713 -0.0337,-0.0975 0.02,-0.025 0.05,-0.0275 0.09,-0.006 0.14625,0.0788 0.1525,0.0763 0.2825,-0.0825 l 0.76375,-0.93625 c 0.0962,-0.11875 0.0962,-0.1425 0,-0.25875 -0.0238,-0.0263 -0.025,-0.0488 -0.006,-0.0713 0.0238,-0.0288 0.055,-0.0213 0.15375,0.035 0.13,0.0763 0.19625,0.10625 0.40125,0.16625 0.0188,0.005 0.03,0.0112 0.0387,0.0175 0.0225,0.0188 0.0175,0.05 -0.0125,0.0875 l -1.005,1.23125" inkscape:connector-curvature="0"/>
      <path id="path1681" style="fill:#0067a6;fill-opacity:1;fill-rule:nonzero;stroke:none" d="m 349.94964,476.132 c 0.0638,-0.065 0.07,-0.0863 0.0387,-0.11625 l -0.0625,-0.0613 c -0.035,-0.0337 -0.045,-0.0625 -0.0263,-0.0813 0.0188,-0.0188 0.055,-0.0137 0.11625,0.0113 0.1725,0.0725 0.345,0.0875 0.49125,0.0437 0.0788,-0.0238 0.11125,-0.0225 0.13625,0.002 0.03,0.0288 0.0288,0.05 -0.009,0.0888 l -0.155,0.15875 c -0.0463,0.0475 -0.0513,0.0763 -0.015,0.11125 l 0.14875,0.145 c 0.0425,0.0412 0.0425,0.0537 0.005,0.0913 -0.04,0.0425 -0.0612,0.0437 -0.0962,0.0112 l -0.135,-0.13375 c -0.0425,-0.04 -0.0612,-0.04 -0.105,0.004 l -0.38,0.39 c -0.175,0.18 -0.21625,0.27875 -0.145,0.34875 0.0213,0.02 0.0625,0.0387 0.10625,0.0475 0.07,0.0125 0.0763,0.0138 0.0875,0.025 0.0137,0.0138 0.0137,0.04 0.001,0.0537 -0.0225,0.0225 -0.0875,0.035 -0.165,0.03 -0.125,-0.01 -0.255,-0.0663 -0.34375,-0.1525 -0.165,-0.16 -0.15375,-0.34 0.0325,-0.53125 l 0.47375,-0.48625" inkscape:connector-curvature="0"/>
      <path id="path1683" style="fill:#0067a6;fill-opacity:1;fill-rule:nonzero;stroke:none" d="m 352.44714,478.09075 c -0.05,0.035 -0.0888,0.0325 -0.1175,-0.01 -0.0263,-0.0388 -0.0188,-0.0763 0.0288,-0.1375 0.17125,-0.22625 0.2,-0.4 0.09,-0.56125 -0.12625,-0.18625 -0.34875,-0.255 -0.49625,-0.155 -0.0975,0.0663 -0.13125,0.16625 -0.10375,0.32625 0.007,0.0288 0.0125,0.0538 0.0188,0.0813 l 0.0263,0.0925 0.0288,0.09 0.0238,0.09 c 0.115,0.40125 0.0387,0.70625 -0.22375,0.885 -0.38875,0.265 -0.90375,0.12625 -1.2125,-0.3275 -0.14125,-0.20875 -0.2625,-0.53 -0.24375,-0.6525 0.004,-0.03 0.0163,-0.0475 0.0725,-0.09 0.0238,-0.02 0.0375,-0.0288 0.11,-0.0787 0.0562,-0.0425 0.09,-0.065 0.10375,-0.075 0.13125,-0.0888 0.17375,-0.0975 0.21,-0.045 0.02,0.0312 0.0175,0.07 -0.0125,0.115 -0.009,0.0175 0.0275,-0.0312 -0.1175,0.14875 -0.14625,0.18125 -0.1475,0.3775 0,0.59375 0.16125,0.2375 0.41125,0.31625 0.59125,0.1925 0.1225,-0.0825 0.1625,-0.19125 0.1475,-0.37625 -0.007,-0.0525 -0.0187,-0.11 -0.0637,-0.3325 -0.1025,-0.49125 -0.0575,-0.73 0.17125,-0.885 0.32875,-0.22375 0.835,-0.06 1.12625,0.36875 0.0875,0.12875 0.17875,0.34625 0.185,0.445 0.002,0.0462 -0.0113,0.0725 -0.065,0.10875 l -0.2775,0.18875" inkscape:connector-curvature="0"/>
      <path id="path1685" style="fill:#0067a6;fill-opacity:1;fill-rule:nonzero;stroke:none" d="m 352.18339,479.4245 c 0.0663,-0.0288 0.10625,-0.0375 0.14,-0.03 0.0625,0.0163 0.125,0.07 0.155,0.13875 0.0788,0.17625 -0.0712,0.4125 -0.335,0.53 -0.29,0.12875 -0.55,0.0838 -0.635,-0.10625 -0.0588,-0.13125 -0.004,-0.23 0.1775,-0.31 l 0.4975,-0.2225 z m -0.86875,0.3875 c 0.0387,-0.0175 0.055,-0.015 0.0638,0.006 0.004,0.008 0.006,0.0125 0.006,0.0213 0.0163,0.12125 0.0325,0.17625 0.0688,0.25875 0.16125,0.36125 0.575,0.52 0.93875,0.3575 0.33375,-0.14875 0.4875,-0.5125 0.35,-0.82375 -0.04,-0.0875 -0.0863,-0.14625 -0.15625,-0.19 -0.16625,-0.105 -0.1575,-0.1 -0.16375,-0.1125 -0.007,-0.0163 0.004,-0.03 0.0412,-0.0462 l 0.13375,-0.06 c 0.03,-0.0138 0.04,-0.03 0.0288,-0.0537 -0.01,-0.0225 -0.02,-0.0263 -0.10375,-0.0563 -0.0937,-0.0312 -0.2175,-0.13125 -0.30875,-0.24625 -0.105,-0.13125 -0.10125,-0.1275 -0.1375,-0.11125 -0.025,0.0113 -0.0312,0.035 -0.0213,0.0625 0.05,0.15875 0.0425,0.17375 -0.11875,0.24625 l -1.03125,0.45875 c -0.15375,0.0687 -0.205,0.0625 -0.27,-0.035 -0.0637,-0.0913 -0.07,-0.0975 -0.10625,-0.0813 -0.0362,0.0163 -0.0437,0.0463 -0.025,0.0875 0.002,0.007 0.01,0.025 0.0212,0.0425 l 0.01,0.0225 0.0137,0.0238 0.01,0.0212 0.009,0.02 c 0.055,0.11 0.0775,0.155 0.11125,0.23125 0.0312,0.0688 0.0575,0.135 0.085,0.2025 l 0.009,0.0213 0.006,0.0213 0.009,0.0188 0.01,0.0225 0.009,0.025 0.01,0.0225 0.006,0.015 c 0.005,0.0175 0.01,0.03 0.01,0.03 0.0188,0.0412 0.0463,0.0562 0.0825,0.04 0.025,-0.0112 0.0337,-0.0362 0.0263,-0.0675 -0.0475,-0.1925 -0.0388,-0.21125 0.14,-0.29 l 0.23375,-0.105" inkscape:connector-curvature="0"/>
      <path id="path1687" style="fill:#0067a6;fill-opacity:1;fill-rule:nonzero;stroke:none" d="m 353.19089,481.1845 c 0.0512,0.20625 -0.18,0.42875 -0.53875,0.5175 -0.32375,0.08 -0.56875,0.015 -0.61375,-0.1675 -0.05,-0.2 0.2025,-0.43625 0.56625,-0.52625 0.2925,-0.0725 0.5425,0.004 0.58625,0.17625 z m 0.1075,0.0213 c -0.1125,-0.45125 -0.49875,-0.72 -0.895,-0.62125 -0.37125,0.0925 -0.58,0.49625 -0.47375,0.9225 0.1125,0.45125 0.50375,0.7225 0.89875,0.625 0.365,-0.0913 0.575,-0.50375 0.47,-0.92625" inkscape:connector-curvature="0"/>
      <path id="path1689" style="fill:#0067a6;fill-opacity:1;fill-rule:nonzero;stroke:none" d="m 352.96589,482.467 c 0.1525,-0.0137 0.18625,-0.0437 0.18375,-0.1625 -10e-4,-0.05 0.01,-0.0725 0.0413,-0.0763 0.0375,-0.002 0.0375,-0.002 0.0937,0.13625 0.0312,0.0787 0.15,0.24125 0.23875,0.33 0.05,0.0487 0.0625,0.0675 0.065,0.0937 0.002,0.0238 -0.0125,0.0362 -0.045,0.0387 l -0.18625,0.0175 c -0.0312,0.002 -0.045,0.006 -0.0437,0.0175 0,0.002 0.006,0.01 0.015,0.0137 0.125,0.08 0.2275,0.2325 0.23875,0.355 0.0125,0.135 -0.0725,0.25625 -0.1925,0.26625 -0.13,0.0125 -0.24125,-0.0825 -0.25375,-0.215 -0.006,-0.0775 0.0175,-0.13625 0.0813,-0.20125 0.0488,-0.0525 0.0638,-0.0725 0.0613,-0.0962 -0.004,-0.0325 -0.0412,-0.0638 -0.09,-0.0775 -0.0637,-0.0162 -0.115,-0.0162 -0.2725,-0.002 l -0.35375,0.0325 c -0.205,0.0188 -0.2075,0.0213 -0.22625,0.1875 -0.005,0.0462 -0.0238,0.0687 -0.0563,0.0725 -0.0337,0.002 -0.055,-0.025 -0.06,-0.0838 -0.001,-0.007 -0.004,-0.0312 -0.002,-0.0512 -0.006,-0.13 -0.015,-0.2475 -0.0213,-0.31125 -0.005,-0.0562 -0.0187,-0.18125 -0.035,-0.30375 -0.005,-0.0175 -0.006,-0.0412 -0.007,-0.05 -0.005,-0.0587 0.01,-0.0888 0.045,-0.0925 0.0325,-0.002 0.055,0.0162 0.0675,0.0612 0.0462,0.15875 0.0525,0.16125 0.2575,0.1425 l 0.4575,-0.0412" inkscape:connector-curvature="0"/>
      <path id="path1691" style="fill:#0067a6;fill-opacity:1;fill-rule:nonzero;stroke:none" d="m 353.29589,483.812 c 0.0913,0.002 0.11,-0.007 0.11125,-0.05 l 0.002,-0.0888 c 0.001,-0.0475 0.015,-0.0738 0.0425,-0.0738 0.0263,10e-4 0.0462,0.0312 0.0688,0.0937 0.065,0.175 0.17125,0.31125 0.3025,0.39 0.0712,0.0425 0.0925,0.0662 0.0913,0.10125 -0.001,0.0425 -0.0175,0.0562 -0.0713,0.055 l -0.22125,-0.006 c -0.0675,-0.002 -0.0925,0.0138 -0.0937,0.0638 l -0.005,0.20875 c -10e-4,0.0588 -0.01,0.0663 -0.0638,0.065 -0.0587,-10e-4 -0.0737,-0.015 -0.0725,-0.0637 l 0.005,-0.19 c 0.001,-0.0588 -0.0112,-0.0725 -0.0725,-0.0738 l -0.545,-0.015 c -0.25125,-0.006 -0.35125,0.0312 -0.35375,0.13 -10e-4,0.0288 0.0138,0.0725 0.0362,0.11 0.0387,0.06 0.0412,0.0662 0.04,0.0813 0,0.0187 -0.0188,0.0375 -0.0375,0.0375 -0.0325,-10e-4 -0.085,-0.04 -0.13375,-0.1 -0.0775,-0.0987 -0.125,-0.23375 -0.12125,-0.3575 0.006,-0.22875 0.14625,-0.3425 0.4125,-0.33625 l 0.67875,0.0188" inkscape:connector-curvature="0"/>
      <path id="path1693" style="fill:#0067a6;fill-opacity:1;fill-rule:nonzero;stroke:none" d="m 351.95214,487.28575 c -0.0925,-0.03 -0.12125,-0.0575 -0.15125,-0.1425 -0.0612,-0.1925 -0.0587,-0.46 0.009,-0.72375 0.075,-0.29375 0.2125,-0.5575 0.3825,-0.74625 0.26875,-0.28875 0.7125,-0.4225 1.095,-0.325 0.6575,0.17 1,0.91125 0.79125,1.7225 -0.0425,0.16625 -0.15,0.42 -0.22625,0.5325 -0.0337,0.0475 -0.0575,0.0587 -0.105,0.0562 l -0.27875,-0.0263 c -0.0275,-0.004 -0.0437,-0.004 -0.0537,-0.006 -0.0362,-0.01 -0.06,-0.05 -0.0513,-0.0863 0.01,-0.0387 0.0488,-0.0675 0.13375,-0.10125 0.28,-0.1025 0.38625,-0.20375 0.44375,-0.42875 0.115,-0.45 -0.21625,-0.87875 -0.79625,-1.0275 -0.5775,-0.1475 -1.0875,0.0688 -1.20125,0.5125 -0.065,0.25375 0.0175,0.45625 0.29375,0.7075 0.0487,0.0437 0.0625,0.0712 0.0525,0.1075 -0.0125,0.0488 -0.055,0.065 -0.10625,0.0488 l -0.23125,-0.0738" inkscape:connector-curvature="0"/>
      <path id="path1695" style="fill:#0067a6;fill-opacity:1;fill-rule:nonzero;stroke:none" d="m 351.69339,487.86825 c -0.18875,-0.0825 -0.1925,-0.0813 -0.28875,0.055 -0.0262,0.0387 -0.0537,0.05 -0.0837,0.0362 -0.0312,-0.0138 -0.0362,-0.0475 -0.0138,-0.10125 0.004,-0.007 0.0138,-0.03 0.0238,-0.0462 0.0575,-0.12 0.10625,-0.225 0.135,-0.29125 0.0188,-0.0438 0.0688,-0.165 0.11125,-0.275 0.005,-0.0175 0.0138,-0.04 0.0175,-0.0475 0.0237,-0.0537 0.0525,-0.0737 0.0837,-0.0587 0.03,0.0125 0.0413,0.04 0.03,0.085 -0.035,0.1625 -0.0312,0.1675 0.1575,0.25 l 1.1075,0.48125 c 0.14,0.0612 0.1625,0.0537 0.24875,-0.0688 0.0187,-0.03 0.04,-0.0387 0.0662,-0.0263 0.035,0.015 0.035,0.0475 0.007,0.1575 -0.0375,0.14625 -0.0475,0.2175 -0.0512,0.4325 10e-4,0.0175 -0.002,0.0312 -0.006,0.0412 -0.0112,0.0263 -0.0425,0.0312 -0.0863,0.0112 l -1.45875,-0.635" inkscape:connector-curvature="0"/>
      <path id="path1697" style="fill:#0067a6;fill-opacity:1;fill-rule:nonzero;stroke:none" d="m 352.06589,488.53075 c 0.17625,0.10625 0.1825,0.10625 0.29375,-0.0163 0.03,-0.035 0.06,-0.0425 0.0875,-0.0263 0.03,0.0175 0.03,0.0525 0,0.10375 -0.002,0.004 -0.0138,0.0225 -0.0275,0.0412 l -0.0337,0.055 -0.0175,0.0238 c -0.05,0.08 -0.0913,0.1425 -0.10875,0.1725 l -0.0512,0.0838 c -0.0125,0.0275 -0.035,0.0637 -0.0375,0.0687 -0.025,0.0413 -0.03,0.04 -0.0962,0 l -0.65625,-0.3925 c -0.15625,-0.0937 -0.27375,-0.0838 -0.3425,0.0312 -0.0375,0.0613 -0.05,0.16 -0.03,0.24125 0.0125,0.0475 0.0288,0.0663 0.0975,0.1075 l 0.46125,0.27625 c 0.17625,0.10625 0.18125,0.10625 0.29375,-0.0163 0.0312,-0.0375 0.06,-0.045 0.0875,-0.0288 0.03,0.0188 0.0312,0.0538 10e-4,0.10375 -0.002,0.005 -0.015,0.025 -0.0288,0.0425 l -0.0163,0.0275 -0.0188,0.0263 -0.0162,0.0275 c -0.0425,0.065 -0.0763,0.11625 -0.08,0.12 -0.0213,0.0375 -0.0425,0.0713 -0.085,0.14875 l -0.0375,0.0612 c -0.0188,0.0325 -0.0263,0.035 -0.075,0.005 l -0.72875,-0.43625 c -0.13875,-0.0838 -0.16125,-0.085 -0.2325,0.009 -0.0263,0.0325 -0.045,0.0387 -0.0687,0.025 -0.0288,-0.0175 -0.0275,-0.0512 0.009,-0.1475 0.0288,-0.0863 0.0575,-0.19 0.0838,-0.30875 0.0188,-0.0913 0.0213,-0.1025 0.0312,-0.1175 0.015,-0.0263 0.0288,-0.0275 0.06,-0.007 l 0.0987,0.0588 c 0.025,0.015 0.0437,0.0162 0.0512,0.002 0.009,-0.0138 0.008,-0.001 -10e-4,-0.11 -0.0138,-0.155 0.0138,-0.29375 0.08,-0.40375 0.1325,-0.2225 0.36,-0.2675 0.605,-0.12 l 0.44875,0.26875" inkscape:connector-curvature="0"/>
      <path id="path1699" style="fill:#0067a6;fill-opacity:1;fill-rule:nonzero;stroke:none" d="m 350.85589,490.40075 c 0.0575,0.0487 0.0613,0.0525 0.0638,0.0787 0.005,0.0475 -0.0213,0.11375 -0.0663,0.16625 -0.14125,0.16375 -0.43125,0.135 -0.66,-0.0625 -0.23125,-0.19875 -0.3075,-0.47 -0.1725,-0.62625 0.0437,-0.05 0.1025,-0.0775 0.1675,-0.075 0.0587,0.002 0.0962,0.0238 0.23125,0.14125 l 0.43625,0.3775 z m 0.69375,0.6 c 0.0687,0.0588 0.085,0.0663 0.10875,0.0337 0.0163,-0.0187 0.0188,-0.03 0.0512,-0.11125 0.0625,-0.18 0.0888,-0.235 0.155,-0.33625 0.05,-0.0775 0.0587,-0.1125 0.0337,-0.1325 -0.02,-0.0175 -0.0425,-0.0163 -0.0738,0.0125 -0.10625,0.0925 -0.125,0.0937 -0.23125,10e-4 l -1.0625,-0.9175 c -0.0537,-0.0475 -0.095,-0.0863 -0.11375,-0.10875 -0.0138,-0.0163 -0.0263,-0.0312 -0.035,-0.0375 -0.0238,-0.0213 -0.0562,-0.0213 -0.0738,0 -0.0137,0.0163 -0.0125,0.0387 0.004,0.0775 0.0412,0.1025 0.05,0.1375 0.0362,0.15375 -0.005,0.006 -0.015,0.0125 -0.025,0.0175 -0.225,0.0875 -0.27375,0.12 -0.37875,0.24125 -0.3025,0.35 -0.30125,0.82125 0.002,1.08375 0.28125,0.2425 0.67375,0.21875 0.91125,-0.0562 0.0588,-0.0688 0.0588,-0.0688 0.10625,-0.22625 0.0175,-0.0562 0.0312,-0.0962 0.0325,-0.10625 0.002,-0.015 0.005,-0.0275 0.0125,-0.035 0.01,-0.0125 0.01,-0.0125 0.0525,0.025 l 0.4875,0.42125" inkscape:connector-curvature="0"/>
      <path id="path1701" style="fill:#0067a6;fill-opacity:1;fill-rule:nonzero;stroke:none" d="m 340.68964,494.63075 c -0.055,0.2175 -0.0375,0.26 0.1325,0.3 0.105,0.0275 0.1425,0.0588 0.1275,0.10375 -0.0138,0.0425 -0.0537,0.055 -0.12375,0.0375 -0.0113,-0.002 -0.0475,-0.015 -0.0763,-0.025 -0.1475,-0.0525 -0.29875,-0.1 -0.44875,-0.1375 -0.13375,-0.035 -0.25125,-0.0587 -0.36,-0.0787 -0.0275,-0.004 -0.0588,-0.009 -0.0688,-0.0113 -0.065,-0.0175 -0.0863,-0.0425 -0.0763,-0.0825 0.0125,-0.0488 0.0525,-0.0588 0.13,-0.0388 0.21125,0.0575 0.26875,0.035 0.3075,-0.11625 l 0.28125,-1.0975 c 0.0337,-0.135 0.03,-0.1525 -0.0225,-0.16875 -0.0138,-0.004 -0.0275,-0.007 -0.0425,-0.005 l -0.19875,0.009 c -0.0438,0.002 -0.08,-0.001 -0.1075,-0.005 -0.0362,-0.006 -0.0563,-0.0375 -0.0487,-0.0688 0.0125,-0.0487 0.0587,-0.06 0.21625,-0.06 0.32,0.002 0.5,-0.0112 0.65875,-0.0487 0.0212,-0.006 0.0412,-0.006 0.0525,-0.004 0.035,0.009 0.0425,0.0375 0.025,0.10375 l -0.3575,1.39375" inkscape:connector-curvature="0"/>
      <path id="path1703" style="fill:#0067a6;fill-opacity:1;fill-rule:nonzero;stroke:none" d="m 341.70714,493.76325 c -0.0325,0.3225 0.11625,0.63875 0.3125,0.65875 0.0225,10e-4 0.0538,-0.001 0.0813,-0.009 0.0113,-0.002 0.0238,-0.004 0.0288,-0.004 0.0163,0.002 0.0337,0.0263 0.0312,0.045 -0.007,0.075 -0.17625,0.125 -0.36125,0.10625 -0.295,-0.03 -0.5225,-0.3225 -0.49125,-0.63375 0.0375,-0.37 0.385,-0.64625 0.76625,-0.60875 0.4275,0.0425 0.7225,0.43125 0.67625,0.8925 -0.0463,0.46 -0.3975,0.8875 -0.91875,1.11375 -0.125,0.055 -0.275,0.0975 -0.48875,0.14625 -0.0288,0.005 -0.0537,0.009 -0.075,0.006 -0.0337,-0.004 -0.0563,-0.03 -0.0525,-0.0637 0.004,-0.0325 0.0238,-0.045 0.115,-0.0663 0.5075,-0.11625 0.93,-0.60375 0.9825,-1.13625 0.04,-0.4 -0.11,-0.765 -0.32125,-0.78625 -0.15,-0.015 -0.26375,0.12125 -0.285,0.33875" inkscape:connector-curvature="0"/>
      <path id="path1705" style="fill:#0067a6;fill-opacity:1;fill-rule:nonzero;stroke:none" d="m 343.94339,494.0795 c 0.01,-0.0263 0.0412,-0.12625 0.0575,-0.18875 0.0137,-0.0475 0.015,-0.0588 0.0137,-0.0788 -0.002,-0.0238 -0.0137,-0.0312 -0.05,-0.0288 l -0.785,0.0625 c -0.0738,0.006 -0.12625,0.0138 -0.14625,0.015 -0.035,0.007 -0.065,0.0138 -0.0788,0.015 -0.0362,0.002 -0.0525,-0.0275 -0.0575,-0.0987 -10e-4,-0.005 -0.005,-0.0587 -0.0137,-0.1325 -0.005,-0.025 -0.0113,-0.0937 -0.0138,-0.12625 -0.007,-0.10625 -0.005,-0.11125 0.0437,-0.115 0.0175,-0.001 0.05,-0.001 0.0813,10e-4 0.13375,0.0113 0.24,0.0113 0.375,10e-4 l 0.945,-0.0763 c 0.0688,-0.005 0.0775,-0.004 0.08,0.0213 0.002,0.025 0.004,0.0188 -0.0512,0.16 -0.0138,0.0312 -0.0188,0.0463 -0.0188,0.0463 l -0.075,0.1775 -0.0713,0.17875 -0.0725,0.17875 c -0.0763,0.18375 -0.18875,0.485 -0.32625,0.88 -0.0475,0.13375 -0.0837,0.24 -0.10375,0.3025 -0.0375,0.12 -0.04,0.1225 -0.0812,0.12625 l -0.0338,0.002 c -0.0137,-10e-4 -0.02,-10e-4 -0.02,-10e-4 -0.0525,0.004 -0.0575,0.005 -0.0625,-0.0175 0,-0.002 0,-0.005 0.002,-0.0138 0.001,-0.0137 0.002,-0.0312 0.007,-0.0425 l 0.455,-1.24875" inkscape:connector-curvature="0"/>
      <path id="path1707" style="fill:#0067a6;fill-opacity:1;fill-rule:nonzero;stroke:none" d="m 345.75464,494.56825 c 0.035,0.14375 0.055,0.1525 0.2325,0.13375 0.0337,-0.002 0.0575,0.0113 0.065,0.0437 0.0113,0.0437 -0.0213,0.075 -0.0937,0.0925 l -0.44625,0.09 c -0.0163,0.004 -0.095,0.03 -0.21125,0.0675 -0.03,0.006 -0.07,0.02 -0.0838,0.0225 -0.0637,0.0162 -0.0925,0.006 -0.1025,-0.0362 -0.0125,-0.0488 0.004,-0.0613 0.125,-0.10625 0.0863,-0.03 0.11125,-0.0812 0.0863,-0.18125 l -0.0525,-0.2125 c -0.02,-0.08 -0.0238,-0.0825 -0.10125,-0.0625 l -0.58375,0.14375 c -0.1075,0.0275 -0.10125,0.0312 -0.13125,-0.09 -0.006,-0.0238 -0.001,-0.0512 0.0188,-0.0962 l 0.64625,-1.5275 c 0.0288,-0.07 0.0437,-0.08 0.15375,-0.1075 0.0213,-0.005 0.0425,-0.001 0.0475,0.009 0.006,0.01 -0.0113,0.045 -0.08,0.1825 -0.11625,0.235 -0.215,0.445 -0.29375,0.6325 l -0.2375,0.565 c -0.085,0.1975 -0.0675,0.15625 -0.0787,0.19 -0.01,0.0288 -0.0125,0.0325 -0.01,0.04 0.004,0.0138 0.0188,0.015 0.0638,0.004 l 0.43625,-0.1075 c 0.0825,-0.0213 0.0875,-0.0275 0.0675,-0.10875 l -0.1,-0.4 c -0.0213,-0.0888 -0.02,-0.095 0.0175,-0.125 0.005,-0.004 0.01,-0.007 0.015,-0.009 0.16375,-0.10375 0.14,-0.0925 0.24875,-0.15 0.0288,-0.0137 0.0475,-0.0263 0.06,-0.0325 0.007,-0.005 0.01,-0.005 0.0163,-0.006 0.0162,-0.005 0.0238,0.002 0.03,0.0312 l 0.14625,0.59 c 0.0188,0.0725 0.0288,0.0787 0.0925,0.0625 l 0.175,-0.0438 c 0.0538,-0.0125 0.0538,-0.0125 0.075,0.0738 0.0175,0.0663 0.0125,0.08 -0.045,0.0937 l -0.16875,0.0412 c -0.06,0.015 -0.065,0.025 -0.05,0.09 l 0.0512,0.20375" inkscape:connector-curvature="0"/>
      <path id="path1709" style="fill:#0067a6;fill-opacity:1;fill-rule:nonzero;stroke:none" d="m 338.45214,493.1495 -1.10625,-0.01 -0.54875,-0.96125 1.10625,0.009 0.54875,0.9625" inkscape:connector-curvature="0"/>
      <path id="path1711" style="fill:#0067a6;fill-opacity:1;fill-rule:nonzero;stroke:none" d="m 347.15964,493.1495 1.1075,-0.01 0.5475,-0.96125 -1.10625,0.009 -0.54875,0.9625" inkscape:connector-curvature="0"/>
    </g>
  </g>
</svg>