<?xml version="1.0" encoding="UTF-8"?>
<!-- Generator: Adobe Illustrator 13.0.0, SVG Export Plug-In . SVG Version: 6.00 Build 14948)  -->
<!DOCTYPE svg PUBLIC "-//W3C//DTD SVG 1.1 Tiny//EN" "http://www.w3.org/Graphics/SVG/1.1/DTD/svg11-tiny.dtd">
<svg version="1.1" baseProfile="tiny" id="Ebene_1" xmlns="http://www.w3.org/2000/svg" xmlns:xlink="http://www.w3.org/1999/xlink" x="0px" y="0px" width="488.068px" height="566px" viewBox="0 0 488.068 566" xml:space="preserve">
<path fill="#D49F45" d="M488.018,0H0.05L0,416.076c0,25.574,6.869,45.36,20.417,58.809c13.44,13.344,33.132,19.649,58.502,20.361  c73.123,2.045,119.199,18.247,155.328,58.827L244.034,566l9.786-11.928c36.129-40.58,82.205-56.782,155.328-58.827  c25.37-0.712,45.063-7.018,58.503-20.361c13.548-13.448,20.417-33.234,20.417-58.809L488.018,0z"/>
<path fill="#003A80" d="M409.148,482.332c-76.364,2.456-128.693,19.76-165.114,61.657c-36.421-41.897-88.75-59.201-165.114-61.657  c-43.856-1.384-66.259-21.733-66.259-66.256l0.029-226.202h462.689l0.028,226.202C475.407,460.598,453.004,480.948,409.148,482.332z  "/>
<polygon fill="#DA001A" points="12.71,12.66 475.358,12.66 475.378,177.211 12.689,177.211 "/>
<polygon fill="#D49F45" points="298.872,222.32 298.872,449.331 443.618,449.331 443.618,377.131 378.916,377.131 378.916,222.32   "/>
<polygon fill="#FFFFFF" points="369.067,232.168 369.067,386.976 433.773,386.976 433.773,439.483 308.719,439.483 308.719,232.168   "/>
<path fill="#D49F45" d="M35.463,335.824c0,65.632,53.392,119.024,119.018,119.024c65.632,0,119.024-53.393,119.024-119.024  c0-65.629-53.392-119.018-119.024-119.018C88.855,216.806,35.463,270.195,35.463,335.824z"/>
<path fill="#FFFFFF" d="M45.901,335.824c0-59.872,48.708-108.579,108.58-108.579c59.875,0,108.585,48.707,108.585,108.579  c0,59.873-48.71,108.586-108.585,108.586C94.608,444.41,45.901,395.697,45.901,335.824z"/>
<path fill="#D49F45" d="M217.665,268.335c-6.685,2.774-9.906-2.149-10.835-5.531c-3.975,3.975-1.782,8.881-0.205,10.259  c-1.3,0.669-6.729,3.776-6.977,10.426c5.491,1.553,10.66-0.97,12.246-2.1c0.348,1.793,2.798,4.837,8.043,3.823  c-2.708-2.874-3.972-8.031-0.12-10.184l1.01-0.523c5.657-2.436,9.01,1.805,9.918,3.832c1.866,4.173,0.251,9.173-3.607,11.147  l-25.303,13.069c-12.981,6.554-11.696,18.749-8.893,24.333l11.629,23.037c2.173,4.591-1.081,7.756-3.402,8.819  c-3.715,1.7-8.195,0.23-9.956-3.213l-15.633-30.56c0.87,0.701,3.218,1.554,5.286,0.616c-6.863-11.124,5.3-10.691,1.317-20.759  c0.891,1.187,3.776,1.919,5.184,1.405c-6.127-13.765,7.733-13.627,0.692-24.518c0.748,0.616,3.688,0.43,4.933-0.613  c-8.583-8.557-0.855-14.339-11.308-17.832c1.519,0.064,3.44-1.53,3.823-3.344c-7.167,0.497-10.581-8.75-20.861-7.444  c-4.206,0.534-7.912,1.688-11.673,2.874c-2.158,0.684-3.791-0.108-5.774,0.882c-0.753,0.756-1.591,3.122-1.591,3.122  c-2.678,0.575-7.059,1.808-8.265,3.102c-0.368,1.361-0.003,2.652,0.517,3.686c0,0,0.628,0.222,0.78,0.987  c0.75,3.767,1.974,7.059,4.147,9.015l6.355-1.58c0,0,5.038,2.792,6.659,6.98c0.943,2.438,0.54,3.963-2.436,4.007  c-2.55,0.044-7.544-1.046-9.533-1.364c-0.838,2.149-1.229,6.276,0.646,7.687c1.02,0.763,6.367,0.494,7.999,0.371  c-0.412,5.826-4.611,9.381-11.807,7.041c-20.625-6.693-33.86-8.63-41.366-25.393c0.275-1.171,1.714-12.643-6.559-15.566  c1.031,3.221,1.898,6.98,0.993,10.11c-1.361-5.333-5.359-8.84-11.638-8.212c3.56,2.523,5.768,5.687,5.797,8.919  c-2.646-1.948-7.494-2.582-11.086-1.046c17.084,7.722,11.27,20.885,3.727,22.091c3.113,2.575,8.148,1.875,11.191,0l10.233,13.092  c-1.907,0.4-3.796,1.913-4.498,3.192c2.068-0.117,5.354,0.222,6.726,1.563c0.768,2.076,1.784,5.771,0.417,11.124  c4.007-2.088,5.625-4.985,6.194-7.587l15.055,8.813c-7.599,3.998-30.309,15.423-41.915,10.078  c-1.764-0.814-13.186-5.718-19.479,0.681c4.264-0.143,8.405,1.601,9.153,3.31c-4.398,0.484-9.711,2.403-11.051,7.315  c1.659-1.069,7.208-1.46,10.07-0.97c-2.5,1.983-4.489,5.54-4.2,10.125c0,0,9.176-8.486,16.708-6.302  c3.507,1.016,1.802,7.155,1.113,8.63c5.683-0.821,7.129-6.448,7.146-6.904l17.525-0.73c1.174,0.57,1.673,3.07,0.59,5.067  c3-0.835,4.331-2.61,5.082-5.44c3.68,0.443,5.721,2.949,6.148,6.688c2.549-2.634,2.208-6.711,1.156-8.797l19.091-4.608l6.629,7.316  c0,0-34.158,21.349-45.79,20.793c1.805,4.115,10.172,3.654,14.039,2.199c-1.186,2.144-0.339,5.245-0.339,5.245  s2.576,0.17,5.242-3.215c0,0,5.12,10.23,4.296,12.032c-2.398,5.266-19.109,6.398-19.109,6.398  c-3.04-2.418-11.401-5.239-16.057-1.702c3.572,0.154,6.446,2.876,6.907,4.57c-1.957,0.015-8.791,0.832-10.342,7.176  c3.835-1.747,8.473-1.747,9.892-0.987c-2.172,1.551-4.856,5.154-4.162,9.626c4.93-5.21,11.778-7.556,16.332-6.542  c2.666,0.593,2.813,4.588,2.039,7.436c3.796-0.999,5.978-4.915,6.784-6.98l18.276-5.694c0,0,0.59,1.627,0.555,4.231  c2.284-0.263,4.538-3.078,4.708-5.102c0,0,3.429,5.21,8.82,4.299c-3.13-5.283-7.441-18.887-7.421-22.38  c0.026-4.41,13.338-7.032,15.572-7.698l6.445,9.413c0,0-6.554,3.206-7.681,7.409c5.747-2.538,10.376-2.284,11.845-1.922  c1.259,1.329,2.515,3.691,3.037,6.486c1.25-0.801,2.874-3.163,3.043-5.581c14.608,4.632,14.631,6.872,11.071,21.617  c-6.635-0.651-17.213-0.984-19.503,5.791c4.01-1.106,8.618-0.391,11.112,0.569c-3.107,1.055-8.683,4.294-7.348,10.684  c0,0,5.397-6.04,11.606-4.971c-3.327,2.047-7.479,6.34-3.832,11.699c3.297-6.793,11.004-7.474,14.231-6.825l4.574-9.903  c1.86-4.027,6.98-3.519,7.546,1.601c4.839-5.949-0.599-12.456-2.152-13.224l4.179-8.98c1.34,0.131,4.81,1.011,6.849-1.399  c-2.132-0.648-4.007-2.041-4.836-3.516c2.132,0.148,7.803,1.021,10.49-2.685c-9.112-1.825-30.35-14.78-31.95-22.759  c4.159,3.376,10.187,4.349,15.408,2.013c3.37-1.511,5.923-4.136,7.246-7.43c3.773-7.795,13.735-1.464,15.289-15.891  c-3.983,5.651-12.774,1.893-14.506,8.91c-3.531-15.537,18.896-5.391,19.05-28.856c-5.531,9.596-25.32,6.174-23.694,18.311  c-8.475-25.063,29.505-8.828,27.426-41.356c-7.412,14.696-36.862,10.806-34.076,28.183l-1.612-3.195  c-2.226-4.585-1.711-10.96,5.201-14.704l25.983-13.394l0,0c7.079-3.63,10.067-12.354,6.764-20.148  C235.074,270.782,227.714,263.616,217.665,268.335z M149.051,261.89c0,0-0.619-2.015,1.91-2.512c2.827-0.555,5.52,1.136,7.821,1.927  C157.337,263.058,151.768,264.106,149.051,261.89z M149.166,277.056c-11.174,5.029-20.505,4.722-29.073-0.062  C121.953,283.048,138.185,290.974,149.166,277.056z"/>
<path fill="#FFFFFF" d="M170.989,153.298c-4.252,4.118-9.436,6.422-16.322,6.422c-6.887,0-12.158-2.304-16.41-6.422  c-6.119-5.928-5.949-13.253-5.949-23.381c0-10.128-0.169-17.453,5.949-23.381c4.252-4.118,9.523-6.425,16.41-6.425  c6.886,0,12.07,2.308,16.322,6.425c6.121,5.928,6.037,13.253,6.037,23.381C177.025,140.045,177.11,147.37,170.989,153.298z   M162.233,113.451c-1.7-1.898-4.337-3.131-7.567-3.131s-5.952,1.232-7.652,3.131c-2.298,2.471-2.891,5.187-2.891,16.466  s0.593,13.995,2.891,16.465c1.7,1.893,4.422,3.128,7.652,3.128s5.867-1.235,7.567-3.128c2.295-2.471,2.973-5.187,2.973-16.465  S164.529,115.922,162.233,113.451z"/>
<polygon fill="#FFFFFF" points="77.809,149.017 52.477,149.017 52.477,101.238 51.849,100.607 41.291,100.607 40.66,101.238   40.66,158.596 41.291,159.227 77.797,159.227 78.428,158.596 78.428,149.636 "/>
<polygon fill="#FFFFFF" points="123.286,100.607 111.4,100.607 100.261,124.233 88.953,100.607 76.749,100.607 76.336,101.019   94.309,135.186 94.309,158.596 94.94,159.227 105.413,159.227 106.043,158.596 106.043,135.186 123.908,101.229 "/>
<polygon fill="#FFFFFF" points="229.275,100.607 228.647,101.238 228.647,136.502 204.673,100.607 194.761,100.607 194.13,101.238   194.13,158.596 194.761,159.227 205.316,159.227 205.947,158.596 205.947,123.247 229.924,159.227 239.833,159.227 240.464,158.596   240.464,101.238 239.833,100.607 "/>
<path fill="#FFFFFF" d="M348.418,101.238l-0.631-0.631H339.3l-0.613,0.61l-21.614,57.548l0.464,0.461h11.688l3.656-10.374h21.509  l3.572,10.374h11.696l0.458-0.456L348.418,101.238z M336.199,139.221l7.651-21.325l7.395,21.325H336.199z"/>
<polygon fill="#FFFFFF" points="381.565,100.607 380.931,101.232 380.931,158.596 381.565,159.227 392.12,159.227 392.75,158.596   392.75,101.238 392.12,100.607 "/>
<polygon fill="#FFFFFF" points="294.751,100.607 294.118,101.238 294.118,136.502 270.144,100.607 260.232,100.607 259.601,101.238   259.601,158.596 260.232,159.227 270.787,159.227 271.417,158.596 271.417,123.247 295.394,159.227 305.306,159.227   305.937,158.596 305.937,101.238 305.306,100.607 "/>
<path fill="#FFFFFF" d="M446.061,129.505c-2.553-2.307-6.037-3.788-11.563-4.529l-7.141-0.987c-2.465-0.327-4.422-1.235-5.613-2.304  c-1.273-1.154-1.784-2.719-1.784-4.203c0-4.03,3.058-7.406,9.354-7.406c3.843,0,8.229,0.485,11.962,3.674l0.87-0.047l6.612-6.331  v-0.806c-5.088-4.562-11.01-6.455-19.105-6.455c-13.096,0-21.086,7.328-21.086,17.786c0,4.939,1.445,8.727,4.334,11.524  c2.722,2.555,6.548,4.118,11.734,4.859l7.313,0.987c2.804,0.415,4.165,0.987,5.356,2.056c1.273,1.156,1.869,2.885,1.869,4.941  c0,4.693-3.741,7.246-10.712,7.246c-5.403,0-10.397-1.166-14.177-4.559l-0.888,0.047l-6.746,6.536v0.879  c5.853,5.499,12.692,7.307,21.641,7.307c12.666,0,22.444-6.422,22.444-17.783C450.737,136.75,449.291,132.469,446.061,129.505z"/>
<path fill="#FFFFFF" d="M74.149,82.424c-4.045,4.045-8.98,6.308-15.537,6.308c-6.554,0-11.571-2.263-15.616-6.308  c-5.829-5.826-5.666-13.028-5.666-22.978c0-9.953-0.164-17.155,5.666-22.984c4.045-4.042,9.062-6.311,15.616-6.311  c6.557,0,11.492,2.269,15.537,6.311c5.826,5.829,5.744,13.031,5.744,22.984C79.894,69.396,79.976,76.598,74.149,82.424z   M65.814,43.261c-1.618-1.863-4.127-3.078-7.202-3.078s-5.663,1.215-7.284,3.078c-2.185,2.43-2.748,5.099-2.748,16.186  c0,11.08,0.563,13.752,2.748,16.179c1.621,1.863,4.208,3.075,7.284,3.075s5.584-1.212,7.202-3.075  c2.187-2.427,2.833-5.099,2.833-16.179C68.647,48.36,68.001,45.691,65.814,43.261z"/>
<path fill="#FFFFFF" d="M347.425,84.323l-4.492-4.489c3.642-5.342,3.563-11.731,3.563-20.388c0-9.953,0.078-17.155-5.748-22.984  c-4.045-4.042-8.983-6.311-15.536-6.311c-6.554,0-11.571,2.269-15.616,6.311c-5.826,5.829-5.663,13.031-5.663,22.984  c0,9.95-0.163,17.152,5.663,22.978c4.045,4.045,9.063,6.308,15.616,6.308c4.532,0,8.416-1.048,11.652-3.154l4.652,4.652h0.894  l5.015-5.017V84.323z M334.196,71.093l-4.291-4.287l-5.986,5.908l5.018,4.938c-1.055,0.724-2.346,1.048-3.724,1.048  c-3.072,0-5.663-1.212-7.281-3.075c-2.188-2.427-2.754-5.099-2.754-16.179c0-11.086,0.566-13.755,2.754-16.186  c1.618-1.863,4.209-3.078,7.281-3.078c3.075,0,5.584,1.215,7.201,3.078c2.185,2.43,2.833,5.099,2.833,16.186  C335.247,65.27,335.083,68.587,334.196,71.093z"/>
<polygon fill="#FFFFFF" points="124.378,78.216 101.385,78.216 101.385,31.27 100.754,30.639 90.77,30.639 90.139,31.27   90.139,87.617 90.77,88.248 124.378,88.248 125.009,87.617 125.009,78.844 "/>
<polygon fill="#FFFFFF" points="163.001,30.639 151.737,30.639 141.136,53.859 130.374,30.639 119.098,30.639 118.473,31.264   135.473,64.621 135.473,87.617 136.101,88.248 146.007,88.248 146.638,87.617 146.638,64.621 163.638,31.264 "/>
<polygon fill="#FFFFFF" points="211.887,30.639 196.919,61.788 181.868,30.639 171.409,30.639 170.781,31.267 170.781,87.623   171.412,88.248 181.395,88.248 182.028,87.623 182.028,54.668 193.114,76.516 200.722,76.516 211.726,54.668 211.726,87.617   212.357,88.248 222.339,88.248 222.973,87.623 222.973,31.27 222.345,30.639 "/>
<polygon fill="#FFFFFF" points="293.56,30.639 283.572,30.639 282.944,31.264 282.944,87.623 283.572,88.248 293.56,88.248   294.191,87.617 294.191,31.27 "/>
<path fill="#FFFFFF" d="M388.25,30.639l-0.628,0.628v36.836c0,6.635-3.966,10.598-10.035,10.598c-6.068,0-9.953-3.963-9.953-10.598  V31.27l-0.631-0.631h-9.984l-0.631,0.631v37.236c0,12.219,9.386,20.227,21.199,20.227c11.816,0,21.203-8.008,21.203-20.227V31.27  l-0.631-0.631H388.25z"/>
<polygon fill="#FFFFFF" points="420.32,78.216 420.32,64.218 442.427,64.218 443.058,63.587 443.058,54.814 442.427,54.184   420.32,54.184 420.32,40.673 446.394,40.673 447.025,40.04 447.025,31.27 446.394,30.639 409.707,30.639 409.076,31.27   409.076,87.617 409.707,88.248 446.394,88.248 447.025,87.617 447.025,78.844 446.394,78.216 "/>
<path fill="#FFFFFF" d="M256.093,30.639h-21.707l-0.625,0.625v56.353l0.628,0.631h9.988l0.63-0.631V68.575h11.086  c11.896,0,19.016-9.176,19.016-18.971C275.109,39.815,267.989,30.639,256.093,30.639z M255.524,58.462h-10.517V40.673h10.517  c5.1,0,8.335,4.241,8.335,8.931C263.859,54.3,260.624,58.462,255.524,58.462z"/>
</svg>