<?xml version="1.0" encoding="utf-8"?>
<!-- Generator: Adobe Illustrator 19.0.0, SVG Export Plug-In . SVG Version: 6.00 Build 0)  -->
<svg version="1.1" id="layer" xmlns="http://www.w3.org/2000/svg" xmlns:xlink="http://www.w3.org/1999/xlink" x="0px" y="0px"
	 viewBox="-153 -46 652 652" style="enable-background:new -153 -46 652 652;" xml:space="preserve">
<style type="text/css">
	.st0{fill:#004071;}
	.st1{fill:#EC1C24;}
	.st2{fill:#C4A361;}
	.st3{fill:#FFFFFF;}
</style>
<path id="XMLID_185_" class="st0" d="M173.3,29.7c-137.8,0-250,112.1-250,250c0,137.8,112.2,250,250,250c137.8,0,250-112.2,250-250
	C423.3,141.8,311.2,29.7,173.3,29.7"/>
<path id="XMLID_174_" class="st0" d="M173.1,321.2c-29.8,0-54,23-54,51.3c0,10,3,19.3,8.2,27.2c14.2,5.5,29.7,8.5,45.8,8.5
	c16.2,0,31.6-3,45.8-8.5c5.2-7.9,8.2-17.2,8.2-27.2C227.2,344.2,203,321.2,173.1,321.2"/>
<path id="XMLID_218_" class="st1" d="M220.3,283.1c15.7,26,35.9,48.4,59.6,67.5c-10.2,15.5-23.7,28.7-39.5,38.5
	c0.6-3.4,0.9-6.8,0.9-10.3c0-35.2-30.5-63.7-68.1-63.7c-37.6,0-68.1,28.5-68.1,63.7c0,3.5,0.3,7,0.9,10.3
	c-15.8-9.8-29.3-23-39.5-38.5c23.6-19.1,43.8-41.5,59.5-67.5H220.3 M217.4,278.1c-20-35-31.8-76.4-32.7-124.8
	c-3.8-0.3-7.7-0.5-11.6-0.5c-4,0-7.8,0.2-11.7,0.6c-0.9,48.3-12.7,89.7-32.7,124.7H217.4"/>
<path id="XMLID_217_" class="st2" d="M177.7,387.7l0.2,0.5c-0.9,1.8-2.4,4-4.3,5.5l-0.4,0.2l-0.4-0.2c-1.9-1.5-3.4-3.7-4.3-5.5
	l0.2-0.5c1.5-0.9,2.6-2.4,3-4.1l1.5-1.2l1.5,1.2C175.1,385.4,176.2,386.8,177.7,387.7 M182,359.1c0-5.2-6.8-21.5-8.9-21.5l-0.5,0.2
	c-2.5,2-8.4,16.4-8.4,21.3c0,3.9,7.8,14.1,7.8,19.7l1.1,1l1-1v0C174.2,373.2,182,363,182,359.1 M168.7,378.3
	c-3.7-9.7-10.1-15-16.7-15c-5,0-9.1,4-9.1,9.1c0,5,4.1,9,9.1,9c1.5,0,3.1-0.7,3.8-1.6c1.3-1.5,1-3,0.9-3.2l-0.6-0.3l-0.5,0
	c-1.7,0-3-1.4-3-3c0-1.7,1.4-3,3-3c3,0,8.2,2.9,11.1,9v0l0,0l1,0.6l1.1-1.1L168.7,378.3 M193.9,363.3c-6.6,0-13,5.3-16.7,15
	l-0.1,0.5l1.1,1.1l1-0.6h0l0,0l0,0c2.8-6.1,8.1-9,11-9c1.7,0,3,1.4,3,3c0,1.7-1.4,3-3,3l-0.5,0l-0.6,0.3c-0.1,0.3-0.4,1.8,0.9,3.2
	c0.8,0.8,2.3,1.6,3.8,1.6c5,0,9.1-4,9.1-9C203,367.3,198.9,363.3,193.9,363.3"/>
<path id="XMLID_220_" class="st3" d="M173,47.6c-62,0-120.3,24.1-164.1,68c-43.8,43.8-68,102.1-68,164.1c0,62,24.2,120.3,68,164.1
	c43.8,43.8,102.1,68,164.1,68c62,0,120.3-24.1,164.1-68c43.8-43.9,68-102.1,68-164.1c0-62-24.1-120.3-68-164.1
	C293.3,71.7,235,47.6,173,47.6 M173,56.8c123.1,0,222.9,99.8,222.9,222.9S296.1,502.6,173,502.6C49.8,502.6-50,402.8-50,279.7
	S49.8,56.8,173,56.8 M235.8,143.1c-3.6-1.7-7.3-3.2-11-4.6l22-53c3.7,1.4,7.4,2.9,11,4.5L235.8,143.1 M172.2,82.6v19h21.3
	c5.2,0,9.5-4.3,9.5-9.5c0-5.2-4.3-9.5-9.5-9.5H172.2 M172.2,129L172.2,129c-3.9,0-7.8,0.2-11.6,0.5V72.4h33
	c10.8,0,21.1,8.8,21.1,19.6c0,9-7.1,16.6-15.7,18.9l15,24c-4.8-1.4-9.7-2.5-14.6-3.4l-12.6-19.8h-14.5V129 M33.9,138.8l14,12.8
	l15.6-17.2c3.5-3.9,3.2-9.9-0.6-13.4c-3.9-3.5-9.9-3.2-13.4,0.6L33.9,138.8 M68.4,170.3c-2.8,2.7-5.6,5.4-8.2,8.3l-41.7-38
	l23.9-26.3c7.3-8,20.3-9,28.3-1.7c8,7.3,8,20.2,0.7,28.2l-16.1,17.8L68.4,170.3 M286,122.1c8.6-2,24.4,13.7,27.4,24.3
	c2.5-1.9,8.1-6,8.1-6c-6.7-19-33.3-38-45.9-26.1c-7.5,7.1-3.2,18,3.3,24.8l6.3,6.7c6.5,6.8,12.1,13.6,6.9,17.9
	c-5.5,4.6-21-6.9-30.4-26.6l-8.3,6.3c2,5.2,6.5,12.7,12.5,19.1c6.9,7.2,14.3,11.9,21,13.2c5.2,1,10.5,0.2,13.9-3
	c8.6-8,5.5-19.6-8.1-33.9l-5.6-5.9C281.1,126.4,283.6,122.7,286,122.1 M106.1,119.1c5.6-2.3,11.3-4.3,17.1-6l-16.2-18.5L106.1,119.1
	 M109.6,81.9l44,48.3c-4.5,0.6-9,1.3-13.4,2.3l-10-11.5c-8.4,2.2-16.6,5.1-24.5,8.5l-0.6,15.2c-4.1,2-8,4.2-11.9,6.6l4.3-65.1
	C101.5,84.7,105.5,83.2,109.6,81.9 M191.2,154.1c62,8.8,109.7,62,109.7,126.4c0,20.6-4.9,40.1-13.6,57.4
	C231,295.6,196.8,236.2,191.2,154.1 M240.4,389.1c0.6-3.4,0.9-6.8,0.9-10.4c0-35.2-30.5-63.7-68.1-63.7c-37.6,0-68.1,28.5-68.1,63.7
	c0,3.5,0.3,7,0.9,10.4c-15.8-9.8-29.3-23-39.5-38.6c23.6-19.1,43.8-41.5,59.5-67.5h94.5c15.7,26,35.9,48.4,59.6,67.5
	C269.7,366.1,256.2,379.2,240.4,389.1 M219,399.7c-14.2,5.5-29.7,8.5-45.8,8.5c-16.2,0-31.6-3-45.8-8.5c-5.2-7.9-8.2-17.2-8.2-27.2
	c0-28.3,24.2-51.3,54-51.3c29.8,0,54,23,54,51.3C227.2,382.5,224.2,391.8,219,399.7 M45.4,280.5c0-64.4,47.7-117.7,109.7-126.4
	c-5.6,82.1-39.8,141.6-96.1,183.8C50.4,320.6,45.4,301.1,45.4,280.5 M173.1,152.8c3.9,0,7.8,0.2,11.6,0.6
	c0.9,48.4,12.7,89.7,32.7,124.7h-88.6c20-35,31.8-76.4,32.7-124.7C165.3,153,169.2,152.8,173.1,152.8 M173.1,143.6
	c-75.5,0-136.9,61.4-136.9,136.9c0,75.5,61.4,136.9,136.9,136.9c75.5,0,136.9-61.4,136.9-136.9C310,205,248.6,143.6,173.1,143.6
	 M61.8,411.8l-7.4,3.5l5.1,4.4L61.8,411.8 M59.1,432.7l-2.8-2.1l2.3-7.6l-7.3-6.2l-7.2,3.5l-2.4-2.3l21.4-10.1l2.6,2.2L59.1,432.7
	 M65.7,437.4l12-18.2l2.6,1.7l-12,18.2L65.7,437.4 M89.6,426.8l3.7,20.3l0,0l7.6-14.4l2.7,1.4l-9.9,19L91,452l-3.7-20.5l0,0
	L79.5,446l-2.7-1.5l10-19.1L89.6,426.8 M126.6,442.7l-1,2.9l-7.1-2.5l-6.1,17.5l-2.9-1l6.1-17.5l-7.1-2.4l1-2.9L126.6,442.7
	 M173.7,458.7l9.8,0.2l-0.1,5.7c-0.1,3.9-4.3,6.3-9.7,6.2c-5.7-0.1-11.6-4.1-11.5-11.4c0.1-6.1,5.1-11,11.9-10.9
	c5.1,0.1,7.8,2.8,9,4l-2.2,2.2c-1-1-2.7-3-6.5-3.1c-5.7-0.1-9,3.6-9.1,8c-0.1,4.2,3.2,8,8.6,8.1c3.7,0.1,6.4-1.6,6.4-3.4l0-2.4
	l-6.7-0.1L173.7,458.7 M207.1,445.7l0.4,3.1l-14.3,2.1l0.8,5.6l7.2-1l0.4,3.1l-7.2,1l0.9,6.5l14.8-2.1l0.4,3.1l-17.9,2.6l-3-21.2
	L207.1,445.7 M218.3,446l1.8,6.1l9.1-2.8c2.2-0.7,3.1-2.2,2.5-4.2c-0.7-2.3-2.6-2.3-4.3-1.8L218.3,446 M226.5,440.3
	c3.3-1,6.9-0.3,8.2,3.9c1.3,4.5-1.2,6.7-2.9,7.4l6.7,7.2l-3.2,1.2l-6.6-7.3L221,455l2.6,8.6l-3,0.8l-6.2-20.5L226.5,440.3
	 M273.6,420.3l1.6,8l5.5-3.9L273.6,420.3 M292.9,428l-2.7,2.1l-6.6-4l-7.8,5.5l1.5,7.8l-2.8,1.7l-4.5-23l2.8-2L292.9,428
	 M286.2,405.5l14.6,15.7l-2.3,2L284,407.6L286.2,405.5 M294.7,397.1l20.6,1.4l0,0l-12.1-10.9l2.1-2.3l15.9,14.3l-1.8,2.3l-20.8-1.4
	l0,0l12.2,11l-2.2,2.2l-16-14.4L294.7,397.1 M258.4,425.8l10.1,18.9l-2.7,1.5l-7.3-13.3l0,0l-0.5,15l-12.4-8.4l0,0l6.5,13.7
	l-2.8,1.2l-9.3-19.3l2.8-1.4l12.6,8.5l0.4-15.2L258.4,425.8 M51,398.2L51,398.2l0,0.1l-2.2,1.3l-0.1,0.1l0-0.1
	c-1.4-4.7-6.6-10.8-10.2-10.8l-0.4,0l-1.7,1.3c-0.4,0.8-0.4,2.2,1.2,4.4l2,2.7c3,4,4.4,7.4,4,9.9l-2.2,3.4l-2.9,0.8l-2.4-0.4
	c-2.5-0.8-5.3-3-7.6-6.2c-2.3-3.1-3.6-6.2-4.1-8.2l0,0l0.1,0l2.3-2.1l0,0.1c2.6,7.9,7.8,13.4,10.9,13.4l1.4-0.4l1.3-1.9
	c0.4-1.9-1.3-4.4-3.1-6.8l-2.3-3.1c-1.6-2.1-2.4-4.5-2.1-6.4l1.8-3l3-1C42.6,385.3,49.3,391.7,51,398.2 M137.5,457.9l0.7-3.1
	l7.6,1.7l-0.7,3.1L137.5,457.9"/>
</svg>
