<?xml version="1.0" encoding="UTF-8"?>
<!-- Generator: Adobe Illustrator 13.0.2, SVG Export Plug-In . SVG Version: 6.00 Build 14948)  -->
<!DOCTYPE svg PUBLIC "-//W3C//DTD SVG 1.0//EN" "http://www.w3.org/TR/2001/REC-SVG-20010904/DTD/svg10.dtd">
<svg version="1.0" id="Ebene_1" xmlns="http://www.w3.org/2000/svg" xmlns:xlink="http://www.w3.org/1999/xlink" x="0px" y="0px" width="536.455px" height="635.463px" viewBox="0 0 536.455 635.463" enable-background="new 0 0 536.455 635.463" xml:space="preserve">
<path fill="#C5004A" d="M73.662,380.809c19.708,44.916,45.631,86.527,77.046,123.678c32.573,38.518,72.129,73.389,117.519,103.834  c45.391-30.445,84.946-65.316,117.52-103.834c31.415-37.15,57.337-78.762,77.046-123.678  c25.03-57.045,40.662-119.785,47.313-190.139H26.35C33.001,261.024,48.632,323.764,73.662,380.809z"/>
<path fill="#004B7B" d="M360.832,34.43c-21.571-5.401-55.131-11.839-92.503-11.838c0,0-0.206,0-0.208,0  c-37.371,0-70.928,6.438-92.499,11.838c-58.931,14.754-110.354,41.455-152.98,79.324c0.139,26.635,1.375,52.24,3.708,76.916h483.755  c2.333-24.676,3.57-50.281,3.708-76.916C471.187,75.885,419.764,49.184,360.832,34.43z"/>
<path fill="#C5004A" d="M22.642,113.754c42.626-37.869,94.049-64.57,152.98-79.324c21.571-5.4,55.127-11.838,92.499-11.838  c0.002,0,0.208,0,0.208,0c37.372-0.001,70.932,6.437,92.503,11.838c58.932,14.754,110.354,41.455,152.981,79.324  c-0.138,26.635-1.375,52.24-3.708,76.916h22.723c2.416-26.279,3.627-53.559,3.627-81.954v-4.976l-3.672-3.359  C486.649,58.182,430.643,28.62,366.319,12.515C343.515,6.806,308.003,0,268.328,0h-0.201c-39.675,0-75.187,6.806-97.991,12.515  C105.813,28.62,49.806,58.182,3.672,100.381L0,103.74v4.976c0,28.396,1.211,55.675,3.626,81.954H26.35  C24.018,165.994,22.781,140.389,22.642,113.754z"/>
<path fill="#FFFFFF" d="M82.579,138.01c-7.404,4.979-16.453,0.321-21.324-6.036c-5.214-6.763-5.385-16.56,2.244-21.741  c1.239-0.854,2.532-1.485,3.963-2.03c-2.126-3.163-3.184-4.744-5.31-7.906c-2.02,0.609-3.889,1.485-5.62,2.671  c-12.147,8.429-13.889,25.256-4.786,36.495c8.482,10.491,24.006,15.427,35.79,7.201c1.367-0.961,2.521-2.094,3.44-3.461  c-2.18-3.248-3.28-4.882-5.47-8.13C84.608,136.173,83.679,137.241,82.579,138.01z"/>
<path fill="#FFFFFF" d="M99.256,126.792c-7.351-12.179-14.69-24.337-22.03-36.522c-4.103,2.474-6.122,3.745-10.149,6.357  c9.498,14.652,18.996,29.311,28.482,43.958c7.094-4.604,10.705-6.763,18.002-10.844c-1.891-3.419-2.842-5.107-4.754-8.504  C104.961,123.395,103.059,124.506,99.256,126.792z"/>
<path fill="#FFFFFF" d="M122.343,114.09c-2.116-4.242-3.173-6.357-5.278-10.587c3.461-1.72,5.203-2.564,8.718-4.193  c-1.646-3.526-2.468-5.283-4.103-8.819c-3.601,1.677-5.395,2.537-8.963,4.321c-2.03-4.081-3.056-6.116-5.085-10.192  c4.177-2.094,6.282-3.098,10.513-5.048c-1.624-3.531-2.436-5.294-4.06-8.825c-8.632,3.958-12.895,6.089-21.324,10.641  c8.291,15.363,16.592,30.726,24.893,46.11c7.276-3.953,10.961-5.791,18.429-9.22c-1.613-3.536-2.436-5.31-4.07-8.835  C128.123,111.237,126.189,112.156,122.343,114.09z"/>
<path fill="#FFFFFF" d="M155.975,70.26c-3.494-11.287-15.449-10.871-24.327-7.051c-4.401,1.747-6.581,2.655-10.918,4.562  c6.976,16.004,13.942,31.998,20.94,47.996c3.707-1.603,5.566-2.372,9.316-3.878c-3.59-8.985-5.385-13.478-8.963-22.446  c0.053-0.021,0.075-0.043,0.149-0.059c5.908,6.271,11.634,12.708,17.211,19.29c3.985-1.453,5.993-2.158,10-3.483  c-5.299-6.656-10.78-13.167-16.442-19.535C157.033,81.158,157.631,75.645,155.975,70.26z M141.723,83.502  c-0.727,0.251-1.09,0.379-1.806,0.646c-2.073-5.197-3.109-7.793-5.192-12.98c0.587-0.225,0.865-0.347,1.431-0.566  c5.278-2.372,8.227-0.166,9.53,3.36C147.183,78.006,146.402,81.665,141.723,83.502z"/>
<path fill="#FFFFFF" d="M187.492,45.891c0.758,10.39,1.634,20.774,2.639,31.121c-0.053,0.021-0.075,0.021-0.139,0.032  c-4.092-9.615-8.354-19.188-12.735-28.686c-5.94,1.512-8.889,2.334-14.775,4.092c3.418,17.211,7.019,34.353,10.822,51.479  c4.103-1.293,6.165-1.902,10.32-3.056c-2.906-12.254-5.748-24.508-8.547-36.778c0.054-0.016,0.085-0.026,0.15-0.048  c0.085,0.385,0.149,0.571,0.256,0.94c1.944,4.311,2.917,6.469,4.808,10.791c3.878,7.612,7.617,15.283,11.25,22.997  c2.981-0.759,4.487-1.106,7.489-1.784c-0.427-8.392-0.737-16.784-0.951-25.176c-0.396-5.208-0.566-7.799-0.919-13.018  c0.064-0.011,0.096-0.021,0.16-0.021c3.387,12.137,6.709,24.3,9.968,36.463c4.017-0.786,6.047-1.159,10.096-1.827  c-4.658-16.934-9.519-33.813-14.615-50.629C196.637,43.909,193.581,44.523,187.492,45.891z"/>
<path fill="#FFFFFF" d="M232.961,37.729c-14.572,1.431-18.28,17.163-16.356,29.284c1.752,10.993,8.461,25.801,21.645,24.497  c13.184-1.292,16.869-17.12,16.442-28.236C254.221,51.019,247.533,36.297,232.961,37.729z M237.309,81.98  c-6.752,0.657-8.814-12.382-9.316-16.533c-0.556-4.615-1.581-17.446,5.908-18.178c7.479-0.737,8.985,12.046,9.327,16.693  C243.548,68.107,244.061,81.302,237.309,81.98z"/>
<path fill="#FFFFFF" d="M283.537,60.603c-0.106,2.703,0,5.417,0.534,7.943c-0.054,0.064-0.085,0.085-0.149,0.134  c-3.975-10.791-8.354-21.431-13.099-31.901c-4.444-0.021-6.677,0-11.121,0.118c0.48,17.462,0.918,34.909,1.378,52.371  c3.975-0.107,5.972-0.134,9.946-0.107c0.043-9.621,0.064-14.423,0.129-24.038c-0.021-0.865-0.032-1.293-0.075-2.158  c-0.182-2.11-0.288-3.167-0.491-5.283c0.063-0.053,0.106-0.085,0.16-0.128c4.423,10.48,8.482,21.1,12.158,31.891  c3.771,0.149,5.651,0.251,9.412,0.523c1.239-17.415,2.479-34.834,3.729-52.248c-4.615-0.332-6.934-0.459-11.549-0.646  C284.114,46.489,283.922,51.195,283.537,60.603z"/>
<path fill="#FFFFFF" d="M300.417,47.814c3.536,0.294,5.289,0.481,8.825,0.866c-1.561,14.134-3.131,28.258-4.68,42.392  c3.964,0.438,5.94,0.679,9.893,1.245c1.998-14.076,3.985-28.156,5.994-42.227c3.536,0.502,5.31,0.78,8.846,1.367  c0.662-3.841,0.962-5.753,1.613-9.594c-9.883-1.512-19.711-2.746-29.657-3.739C300.919,42.007,300.737,43.931,300.417,47.814z"/>
<path fill="#FFFFFF" d="M363.632,58.92c4.487,1.202,6.71,1.848,11.165,3.205c1.132-3.734,1.698-5.593,2.831-9.311  c-9.05-2.746-13.611-3.969-22.777-6.138c-4.007,16.992-8.003,33.99-12.02,50.993c3.899,0.919,5.844,1.4,9.722,2.458  c2.266-8.408,3.397-12.612,5.663-21.009c3.792,1.025,5.694,1.56,9.476,2.687c1.111-3.729,1.678-5.577,2.789-9.311  c-3.878-1.17-5.833-1.715-9.754-2.767C361.901,65.394,362.479,63.241,363.632,58.92z"/>
<path fill="#FFFFFF" d="M402.574,60.474c-13.739-5.267-24.23,6.966-27.959,18.825c-3.377,10.731-3.825,26.896,8.664,31.661  s23.002-7.5,27.66-17.767C416.109,81.825,416.323,65.736,402.574,60.474z M400.181,88.588c-1.592,3.862-7.041,15.887-13.472,13.419  c-6.442-2.468-2.469-15.059-1.068-18.974c1.56-4.402,6.389-16.335,13.515-13.601C406.292,72.157,401.933,84.267,400.181,88.588z"/>
<path fill="#FFFFFF" d="M444.742,79.683c-13.034-6.96-25.085,3.665-30.31,15.107c-4.712,10.336-6.977,26.266,4.893,32.59  c11.902,6.335,23.932-4.306,29.903-14.028C455.853,102.583,457.786,86.638,444.742,79.683z M438.973,107.338  c-2.051,3.622-8.964,14.882-15.128,11.591c-6.175-3.291-0.673-15.299,1.186-19.017c2.105-4.161,8.376-15.417,15.192-11.773  C447.05,91.782,441.248,103.267,438.973,107.338z"/>
<path fill="#FFFFFF" d="M465.66,92.712c-2.051,3.307-3.066,4.957-5.128,8.258c3.13,1.955,4.68,2.938,7.777,4.968  c-7.81,11.88-15.608,23.771-23.407,35.662c3.461,2.286,5.192,3.451,8.61,5.854c8.184-11.624,16.378-23.248,24.562-34.871  c3.056,2.158,4.595,3.269,7.597,5.513c2.329-3.12,3.493-4.68,5.822-7.799C483.139,104.079,474.517,98.203,465.66,92.712z"/>
<path fill="#FFFFFF" d="M144.939,123.438l-11.688,55.619h9.882l1.806-9.37h10.085l1.87,9.37h10.608l-12.083-55.619H144.939z   M146.531,160.98l2.147-14.829l1.058-8.408h0.149l1.133,8.408l2.542,14.829H146.531z"/>
<path fill="#FFFFFF" d="M191.092,161.792c-0.064,4.124-0.064,8.184-4.946,8.184c-5.417,0-4.946-6.346-4.946-10.534v-36.003h-9.958  v41.303c0,10.417,5.556,15.213,14.84,15.213c14.358,0,14.968-10.042,14.968-15.94v-40.576h-9.958V161.792z"/>
<path fill="#FFFFFF" d="M225.012,149.976c-0.791,3.258-1.004,6.432-1.527,9.679h-0.128c-0.62-3.173-0.94-6.346-1.816-9.519  l-6.004-26.698h-10.684l14.551,55.619h8.152l13.953-55.619h-10.417L225.012,149.976z"/>
<polygon fill="#FFFFFF" points="255.536,156.194 264.424,156.194 264.424,145.852 255.536,145.852 255.536,133.748 265.621,133.748   265.621,123.438 245.578,123.438 245.578,179.057 265.76,179.057 265.76,168.736 255.536,168.736 "/>
<path fill="#FFFFFF" d="M299.487,139.356c0-15.192-11.356-15.918-17.702-15.918h-10.011v55.619h9.946v-25.673h0.129l8.749,25.673  h10.481l-8.739-25.31C297.287,150.724,299.487,145.489,299.487,139.356z M283.462,147.401l-1.741-0.064v-14.839h1.336  c5.011-0.299,6.741,2.959,6.741,6.944C289.798,144.015,288.003,147.401,283.462,147.401z"/>
<path fill="#FFFFFF" d="M323.194,158.395h6.347c0,3.846-0.802,11.368-5.876,11.368c-7.34,0-7.682-12.767-7.682-18.525  c0-5.235,0.662-18.953,7.403-18.515c3.825,0,4.615,4.348,5.075,7.147l9.7-4.124c-2.147-7.896-7.147-13.205-14.828-13.205  c-14.221,0-17.96,16.164-17.96,28.995c0,12.318,4.392,28.418,17.96,28.418c13.557,0,16.164-15.726,16.164-27.532v-4.348h-16.304  V158.395z"/>
<path fill="#FFFFFF" d="M366.078,148.438c0,2.863,0.192,5.758,0.802,8.418l-0.149,0.139l-12.414-33.557h-9.541v55.619h9.946v-25.534  l-0.074-2.286l-0.46-5.599l0.129-0.149l12.296,33.568h9.424v-55.619h-9.958V148.438z"/>
<polygon fill="#FFFFFF" points="392.99,168.736 392.99,156.194 401.858,156.194 401.858,145.852 392.99,145.852 392.99,133.748   403.076,133.748 403.076,123.438 383.044,123.438 383.044,179.057 403.204,179.057 403.204,168.736 "/>
<path fill="#FFFFFF" d="M341.091,551.01l-5.754-9.971l20.565-35.619h4.701c-3.729-9.68-8.942-18.611-15.353-26.549l-2.34,4.049  h-41.132l-20.565-35.619l2.35-4.07c-5-0.781-10.128-1.186-15.341-1.186c-5.214,0-10.342,0.404-15.342,1.186l2.351,4.07  l-20.566,35.619h-41.143l-2.34-4.049c-6.399,7.938-11.602,16.869-15.331,26.549h4.69l20.577,35.619l-5.756,9.969  c22.181,20.49,46.533,39.65,72.865,57.313C294.559,590.659,318.91,571.499,341.091,551.01z"/>
<path fill="#004B7B" d="M510.105,190.67c-6.65,70.354-22.282,133.094-47.313,190.139c-19.709,44.916-45.631,86.527-77.046,123.678  c-6.281,7.426-12.827,14.713-19.618,21.863c-1.091-7.266-2.957-14.275-5.525-20.93h-4.701l-20.565,35.619l5.754,9.971  c-22.181,20.488-46.532,39.648-72.863,57.311c-26.332-17.662-50.685-36.822-72.865-57.313l5.756-9.969l-20.577-35.619h-4.69  c-2.574,6.654-4.44,13.664-5.528,20.928c-6.79-7.15-13.335-14.436-19.615-21.861c-31.416-37.15-57.338-78.762-77.046-123.678  C48.632,323.764,33.001,261.024,26.35,190.67H3.626c6.769,73.634,23.078,139.346,49.349,199.215  c20.583,46.912,47.662,90.375,80.483,129.188c35.471,41.945,78.733,79.744,128.586,112.348l6.183,4.043l6.183-4.043  c49.853-32.604,93.116-70.402,128.587-112.348c32.821-38.813,59.899-82.275,80.483-129.188  c26.27-59.869,42.579-125.582,49.348-199.215H510.105z"/>
<polygon fill="#004B7B" points="243.533,498.262 218.833,541.04 243.533,583.836 292.934,583.836 317.623,541.04 292.934,498.262   "/>
<path fill="#004B7B" d="M342.911,482.92l2.34-4.049c-15.106-18.697-36.869-31.785-61.688-35.641l-2.35,4.07l20.565,35.619H342.911z"/>
<path fill="#004B7B" d="M234.665,482.92l20.566-35.619l-2.351-4.07c-24.829,3.855-46.58,16.943-61.698,35.641l2.34,4.049H234.665z"/>
<path fill="#FFFFFF" d="M392.074,361.94c-0.642-0.727-0.16-1.699-0.417-2.906c-0.694-3.078-2.703-6.047-5.225-7.309  c-8.952-4.486-17.157,6.154-27.499,3.537c-0.139-0.117-0.289-0.268-0.417-0.406c0.642-2.318,4.178-5.994,6.036-7.297  c-1.453-4.723-2.916-9.445-4.369-14.178c-2.906-8.473-4.316-15.566-6.667-24.796c-1.101-4.316-3.13-9.38-2.714-14.38  c0.77-0.492,1.528-0.972,2.287-1.453c4.925,0.641,12.585,7.073,18.333,9.167c3.461-0.374,6.068-3.313,8.974-4.584  c1.944-0.695,3.889-1.389,5.833-2.083c0.203-0.064,0.417-0.149,0.62-0.214c-7.639-19.38-15.267-38.76-22.916-58.14  c-2.223-0.705-8.536,3.355-11.047,4.594c-2.703-3.697-5.428-7.372-8.131-11.068c-2.157-1.058-8.119,3.077-11.036,3.975  c2.073,3.889,4.156,7.777,6.239,11.666c-8.952,0-17.916,0-26.891,0c-3.002,1.389-6.239,3.419-9.786,4.38  c-0.074,0.128-0.128,0.278-0.213,0.406c3.547,2.372,7.094,4.722,10.641,7.094c-2.81,2.03-10.833,0.16-14.178,0.203  c-2.853,1.325-5.694,2.639-8.547,3.963c-0.416-1.25-0.822-2.5-1.239-3.739c2.746-2.094,5.705-3.429,7.084-6.88  c2.788-7.073-5.962-20.491-10.642-21.88c-3.387,1.795-6.805,3.611-10.202,5.406c0.192,0.555,0.416,1.111,0.608,1.677  c-1.73,0.758-3.461,1.528-5.203,2.286c-0.128-0.139-0.267-0.289-0.405-0.427c1.282-5.118,2.489-13.045,4.166-19.37  c-0.074-0.149-0.139-0.277-0.213-0.427c-3.548,1.667-7.084,3.344-10.631,5c-2.222,7.03-4.434,14.038-6.667,21.068  c-0.139,0-0.278,0-0.417,0c-1.132-3.226-3.75-5.299-5.417-7.927c-3.194-5.213-6.399-10.427-9.583-15.641  c-0.929-1.581-2.575-2.82-3.13-4.786c4.647-1.111,3.504-7.778-0.844-8.536c-3.002-0.545-9.733,4.199-12.5,5.203  c-0.267,1.944,1.827,4.893,2.713,6.667c-0.961,0.556-1.944,1.111-2.927,1.667c-0.075,0.833,0.406,0.491,1.058,1.047  c-0.417,0.278-0.844,0.545-1.25,0.833c3.387,4.167,6.806,8.333,10.203,12.5c0.492,1.944,0.973,3.889,1.453,5.833  c4.444,8.055,8.91,16.122,13.344,24.177c0,0.064,0,0.139,0,0.225c-6.656-0.983-13.344-1.966-20-2.928  c-3.205,1.378-6.389,2.767-9.594,4.156c-0.428,1.421,1.634,2.895,2.297,4.594c-2.436,3.066-5.385,5.919-7.927,8.964  c-7.81,9.38-12.339,28.483-12.072,45.428c0.128,0.063,0.267,0.148,0.417,0.213c10.555-0.15,21.111-0.277,31.666-0.428  c0,0.074,0,0.15,0,0.215c-0.897,2.146-1.806,4.305-2.713,6.451c-22.233,4.787-46.634,6.016-64.39,15.643  c-6.025,3.268-11.41,8.225-15.213,13.748c-2.308,3.346-3.002,7.875-6.25,10.203c-6.752,4.873-15.47,6.859-24.177,9.391  c-2.917,0.354-5.833,0.695-8.75,1.037c-3.269,1.539-6.539,3.066-9.808,4.594c1.496,1.41,16.196,1.752,19.391,2.084  c0.908-0.908,1.806-1.816,2.714-2.725c16.591,0.043,28.076-2.244,38.76-8.74c12.692-7.723,21.111-20.148,36.057-25.641  c-1.367,4.104-4.167,8.205-5.62,12.715c-3.963,12.264-4.305,23.855-14.594,30.02c-3.771,2.244-11.453,3.654-17.51,2.5  c-1.88-0.352-3.75-0.705-5.62-1.047c-3.205,1.604-6.399,3.184-9.594,4.797c3.397,4.168,6.805,8.344,10.203,12.49  c1.037,1.73-4.263,10.277-5.417,11.9c-5.673,8.014-14.69,20.406-26.25,9.574c-3.611,1.592-7.222,3.205-10.844,4.797  c1.325,1.121,2.639,2.221,3.963,3.344c-1.111,1.367-2.222,2.756-3.333,4.166c0,0.268,0,0.555,0,0.834  c15.074,2.885,35.063-1.326,46.474-5c5.609-1.816,11.816-2.896,15.224-6.881c4.412-5.203,0.171-18.525,6.87-22.094  c5.374-2.885,11.709,1.24,16.046,2.287c8.472,2.072,19.017,1.58,26.463-1.047c9.23-3.248,14.22-12.266,23.974-14.594  c5.694-0.332,11.399-0.686,17.083-1.027c9.583-1.773,18.397-3.631,26.891-6.047c1.261,0.428,3.322,1.41,5.417,0.834  c0.896-0.619,1.805-1.26,2.702-1.881c3.814-1.453,7.649-2.906,11.464-4.369c10.363-4.199,20.234-6.912,31.058-10.225  c2.884-0.865,16.046-5.234,19.166-4.369c5.353,2.223,10.716,4.445,16.047,6.678c0.074,0.139,0.139,0.277,0.214,0.406  c-3.494,2.99-6.016,6.1-12.104,6.688c-0.064,0.129-0.118,0.268-0.192,0.406c0.405,2.66-2.126,1.453-2.703,2.5  c0,5.971,0,11.943,0,17.916c8.023-0.951,22.275-16.037,25.844-22.488c5.822,2.691,11.655,5.404,17.499,8.119  c12.8,5.641,25.086,11.676,37.725,17.5c3.813-1.742,7.649-3.463,11.463-5.215c0-0.213,0-0.406,0-0.619  C436.528,391.254,414.285,376.596,392.074,361.94z"/>
<path fill="#004B7B" d="M400.813,378.819c-3.568-2.084-15.93-12.146-18.75-12.285c-0.844-2.906-0.257-4.873-1.667-7.105  c-3.91-6.164-11.73-4.732-17.297-1.869c-1.281,0.662-12.927,4.561-14.391,1.238c2.03-2.199,4.039-4.434,6.047-6.654  c-0.331-4.104-2.682-9.68-4.572-14.596c-4.306-11.121-7.243-25.671-9.167-38.759c0.481-0.267,0.962-0.545,1.453-0.823  c2.19-0.833,4.733,1.742,6.036,2.693c3.568,2.617,7.692,4.903,12.714,6.261c5.117,1.378,12.009-6.026,15.63-6.667  c-0.096-5.246-3.525-9.894-5.203-13.761c-3.226-7.35-6.015-14.722-8.76-22.093c-0.609-1.624-1.271-6.293-2.276-7.714  c-2.671-3.675-6.132-12.35-6.474-15.833c-0.62-0.064-1.25-0.128-1.87-0.214c0.054,3.141-0.619,10.289-3.333,12.094  c-0.246,0.748-0.16,0.62-0.631,1.047c-4.615-5.833-10.32-13.227-13.963-19.594c-0.203-0.139-0.417-0.278-0.62-0.406  c-0.993,1.165-0.213,13.611,0.62,16.453c-10.619-0.064-21.271-0.128-31.88-0.203c0,0.481,0,0.972,0,1.464  c3.194,3.119,6.389,6.239,9.583,9.369c-4.647,3.023-17.147,1.549-23.974,1.453c0.053,2.19,6.207,12.329,7.927,13.558  c-0.694,5.534-5.245,4.979-8.333,7.906c-0.609-0.214-7.574-17.457-7.714-21.036c2.971-0.737,3.75-2.489,5.417-4.37  c7.896-8.996-4.894-19.433-8.771-24.807c-0.256,0-0.534,0-0.822,0c-1.475,4.541-0.149,11.068-1.047,14.786c-0.054,0-0.129,0-0.203,0  c-1.849-2.885-4.038-5.47-6.047-7.917c-3.472,0.139-4.38,1.891-7.287,2.297c0.342-7.425,3.9-13.141,3.953-19.808  c-0.417,0-0.833,0-1.25,0c-1.282,1.977-3.515,3.227-5.203,5.214c-5.128,6.068-8.141,16.944-6.261,28.546  c-2.158-2.329-2.671-5.31-4.786-8.12c-4.338-5.748-8.194-11.111-12.094-17.296c-2.361-3.75-4.583-11.165-10.63-9.797  c-1.539,1.528-1.122,12.617-0.609,15.224c2.19,11.517,6.613,18.279,11.453,26.046c1.293,2.041,1.742,5.396,3.761,6.656  c0,0.214,0,0.428,0,0.63c-6.987-0.694-12.275-2.575-19.594-2.489c-0.053,0.085-0.63,3.739-0.63,3.739  c-1.357,1.624-4.135,2.896-6.058,3.953c0.769,0.342-0.609,1.047-0.609,1.047c-0.961,0.278-6.699,6.528-7.713,7.917  c-7.725,10.491-12.618,27.756-12.297,47.105c10.619,0,21.26,0,31.89,0c-1.036,1.494-2.126,3.867-2.094,5.213  c-4.188,2.586-10.758,0.982-15.417,2.713c-4.84,1.795-13.066,1.176-18.963,3.322c-6.474,2.383-13.493,3.387-19.177,5.631  c-2.223,0.695-4.445,1.389-6.677,2.084c-5.897,3.633-12.361,6.678-16.667,11.879c-3.13,3.793-4.402,8.494-7.286,12.715  c-3.868,5.65-25.117,12.307-35.438,12.297c0,0.342,0,0.705,0,1.047c8.856,4.615,26.281,4.434,36.474,1.25  c2.575-0.801,13.942-6.164,14.797-5.844c5.662-5.172,13.055-9.445,18.546-14.168c4.466-3.824,10.438-10.662,17.308-11.879  c-10.042,13.162-5.096,35.256-21.891,42.734c-2.458,1.09-9.006,2.713-12.713,1.666c-1.827-0.533-6.037-1.143-7.714-0.854  c-0.203,0-0.417,0-0.62,0c0.684,2.156,1.389,4.314,2.073,6.473c1.111,4.734-0.801,9.916-2.073,12.715  c-4.209,9.273-8.205,18.449-18.557,22.926c-0.417-0.074-0.833-0.148-1.25-0.213c-1.731,0.043-3.622,0.736-5.406-0.215  c-2.03-1.047-4.038-2.072-6.057-3.129c-0.203,0-0.417,0-0.62,0c-3.258,4.24-6.527,8.492-9.796,12.725  c0.075,0.277,0.149,0.555,0.213,0.832c16.303,3.461,54.476-3.824,62.317-11.666c4.754-4.775,0.16-19.23,6.88-22.307  c5.854-2.672,13.354,1.346,17.917,3.141c4.829,1.879,17.831,0.533,21.88-0.834c10.331-3.473,15.791-11.537,25.427-15.234  c6.592-0.48,13.194-0.961,19.786-1.443c7.777-1.313,16.912-3.898,24.604-5.629c2.158,0.139,4.306,0.277,6.464,0.406  c2.168-0.621,5.63-2.842,7.927-3.953c4.167-1.389,8.333-2.777,12.489-4.168c5.139-2.734,14.54-5.736,20.01-6.879  c13.387-2.799,26.09-9.766,41.058-3.74c-1.165,7.479-8.333,11.133-16.666,11.453c0,7.072,0,14.166,0,21.25  c3.45-0.064,6.954-3.279,9.166-5c6.806-5.246,19.198-13.195,18.761-24.166c4.936,1.74,9.85,3.473,14.786,5.203  c10.438,4.785,24.358,14.016,30.021,23.547c4.572,0,15.972-0.193,19.583-1.668c0.139,0,0.277,0,0.428,0c0-0.555,0-1.111,0-1.656  C431.838,399.715,417.512,388.487,400.813,378.819z"/>
</svg>