<?xml version="1.0" encoding="UTF-8" standalone="no"?>
<!DOCTYPE svg PUBLIC "-//W3C//DTD SVG 1.1//EN" "http://www.w3.org/Graphics/SVG/1.1/DTD/svg11.dtd">
<svg xmlns="http://www.w3.org/2000/svg" version="1.1" viewBox="0 0 200 200" width="200.0pt" height="200.0pt">
<path d="M 0.00 0.00 L 200.00 0.00 L 200.00 200.00 L 0.00 200.00 L 0.00 0.00 Z" fill="none"/>
<path d="M 87.51 6.86 C 103.15 4.90 119.13 6.48 133.87 12.16 C 152.15 19.08 168.05 31.82 178.93 48.04 C 196.00 73.14 199.65 106.24 188.70 134.52 C 182.57 150.53 171.97 164.86 158.40 175.36 C 145.31 185.61 129.47 192.32 112.98 194.50 C 93.44 197.21 73.14 193.56 55.76 184.24 C 31.40 171.29 13.36 147.54 7.68 120.51 C 3.65 101.70 5.48 81.72 12.99 64.01 C 19.16 49.37 29.03 36.34 41.50 26.50 C 54.72 15.97 70.77 9.12 87.51 6.86 Z" fill="#014e9e"/>
<path d="M 85.52 10.80 C 100.71 8.26 116.52 9.73 131.01 14.94 C 157.11 24.23 178.18 45.83 186.78 72.17 C 193.19 91.46 192.86 112.80 185.85 131.88 C 176.23 158.47 153.87 179.66 126.79 187.82 C 106.23 194.13 83.52 192.84 63.85 184.16 C 38.60 173.20 19.05 150.47 12.17 123.81 C 7.50 106.12 8.33 86.97 14.59 69.78 C 20.21 54.27 30.12 40.30 42.97 29.95 C 55.17 20.00 69.98 13.32 85.52 10.80 Z" fill="#ffffff"/>
<path d="M 93.77 15.16 C 94.00 16.22 94.22 17.28 94.44 18.34 C 93.01 18.55 91.57 18.75 90.13 18.95 C 90.65 23.07 91.29 27.16 91.85 31.27 C 90.68 31.45 89.52 31.62 88.35 31.80 C 87.67 27.74 87.12 23.67 86.52 19.59 C 85.06 19.72 83.60 19.84 82.14 19.95 C 82.01 18.94 81.87 17.92 81.74 16.91 C 85.75 16.32 89.76 15.71 93.77 15.16 Z" fill="#014e9e"/>
<path d="M 95.31 14.62 C 96.48 14.84 97.66 15.09 98.83 15.34 L 99.31 15.51 C 100.55 19.23 101.54 23.05 102.36 26.87 C 103.45 22.96 104.77 19.11 106.14 15.29 C 107.42 15.32 108.69 15.35 109.97 15.39 C 108.02 20.54 105.98 25.67 103.99 30.80 C 102.82 30.79 101.64 30.78 100.47 30.77 C 98.69 25.41 96.83 20.06 95.31 14.62 Z" fill="#014e9e"/>
<path d="M 112.40 15.87 C 115.89 16.52 119.37 17.23 122.86 17.94 C 122.63 18.97 122.41 20.00 122.19 21.02 C 119.06 20.92 115.92 18.66 113.94 22.13 C 116.14 22.73 118.35 23.28 120.57 23.81 C 120.35 24.78 120.13 25.74 119.92 26.71 C 116.85 26.68 114.59 24.83 112.79 28.34 C 115.32 29.01 117.87 29.56 120.43 30.07 C 120.32 31.17 120.21 32.27 120.10 33.36 C 116.47 32.69 112.85 31.96 109.24 31.19 C 110.27 26.08 111.28 20.96 112.40 15.87 Z" fill="#014e9e"/>
<path d="M 77.92 19.08 C 81.73 21.03 81.14 24.31 80.28 27.85 C 81.76 29.28 83.24 30.70 84.72 32.13 C 83.47 32.57 82.23 33.01 80.98 33.44 C 78.87 31.48 77.15 29.55 74.15 29.08 C 74.69 31.13 75.28 33.16 75.90 35.18 C 74.75 35.49 73.60 35.81 72.45 36.12 C 70.79 31.24 69.18 26.35 67.50 21.48 C 70.53 20.56 74.81 18.18 77.92 19.08 Z" fill="#014e9e"/>
<path d="M 128.17 19.77 C 131.20 20.74 135.34 21.92 137.35 24.51 C 139.02 28.55 136.56 30.78 133.42 32.80 C 133.56 34.95 133.67 37.10 133.74 39.25 C 132.67 38.63 131.58 38.02 130.59 37.30 C 129.77 34.66 129.53 31.99 128.13 29.53 C 127.10 31.48 126.13 33.45 125.16 35.42 C 124.11 34.94 123.07 34.45 122.02 33.97 C 124.07 29.25 125.76 24.32 128.17 19.77 Z" fill="#014e9e"/>
<path d="M 76.58 22.47 C 77.31 23.37 77.45 23.88 77.16 24.99 C 75.91 25.77 74.54 26.37 73.21 27.01 C 72.80 25.66 72.40 24.32 72.01 22.97 C 73.51 22.76 75.07 22.48 76.58 22.47 Z" fill="#ffffff"/>
<path d="M 130.35 24.10 C 132.05 24.63 133.55 25.31 134.53 26.89 C 132.92 29.98 130.89 27.91 128.49 27.26 C 129.06 26.18 129.68 25.12 130.35 24.10 Z" fill="#ffffff"/>
<path d="M 58.52 25.66 C 60.85 24.76 63.41 24.83 65.07 26.90 C 66.95 29.22 68.65 32.04 69.23 35.00 C 69.31 40.10 60.81 44.21 57.60 39.46 C 55.96 37.25 54.41 34.71 53.79 32.01 C 53.46 29.01 55.97 26.71 58.52 25.66 Z" fill="#014e9e"/>
<path d="M 143.79 26.92 C 146.81 28.75 149.71 30.82 152.61 32.83 C 151.99 33.72 151.38 34.60 150.76 35.48 C 148.79 34.18 146.84 32.87 144.89 31.54 C 144.36 32.33 143.83 33.12 143.30 33.90 C 144.96 35.00 146.61 36.10 148.26 37.21 C 147.61 38.12 146.95 39.03 146.29 39.95 C 144.71 38.84 143.14 37.73 141.57 36.62 C 140.96 37.43 140.35 38.23 139.74 39.04 C 141.76 40.40 143.78 41.76 145.79 43.13 C 145.21 44.06 144.62 44.98 144.03 45.91 C 140.99 43.92 137.98 41.89 134.98 39.86 C 137.84 35.51 140.62 31.06 143.79 26.92 Z" fill="#014e9e"/>
<path d="M 61.89 28.92 C 63.67 30.71 65.29 33.46 65.57 35.98 C 64.43 37.04 63.16 37.90 61.90 38.81 C 59.91 36.34 58.07 34.02 57.20 30.90 C 58.09 29.73 60.45 27.60 61.89 28.92 Z" fill="#ffffff"/>
<path d="M 47.96 33.76 C 51.35 33.22 54.61 36.74 54.20 40.05 C 53.48 42.20 51.28 43.92 49.77 45.54 C 50.84 46.74 51.91 47.95 52.98 49.16 C 52.07 49.97 51.16 50.77 50.25 51.58 C 46.80 47.68 43.42 43.72 40.01 39.78 C 42.40 37.71 44.92 34.81 47.96 33.76 Z" fill="#014e9e"/>
<path d="M 90.50 36.85 C 110.71 33.75 131.56 40.54 145.96 55.05 C 157.53 66.63 164.49 82.60 164.78 99.00 C 165.14 110.66 162.24 122.33 156.48 132.46 C 149.09 145.52 137.09 155.87 123.02 161.11 C 111.27 165.54 98.29 166.45 86.04 163.66 C 70.01 160.11 55.59 150.16 46.53 136.47 C 37.66 123.24 33.99 106.73 36.44 90.99 C 38.46 77.37 45.02 64.49 54.84 54.84 C 64.43 45.24 77.09 38.87 90.50 36.85 Z" fill="#014e9e"/>
<path d="M 156.03 36.13 C 157.01 36.76 157.97 37.40 158.93 38.05 C 155.53 42.16 151.94 46.10 148.25 49.95 C 147.39 49.17 146.52 48.40 145.65 47.62 C 149.10 43.79 152.42 39.82 156.03 36.13 Z" fill="#014e9e"/>
<path d="M 48.10 37.56 C 49.22 37.13 50.84 38.52 50.32 39.65 C 49.67 40.88 48.70 41.95 47.87 43.06 C 46.80 41.94 45.73 40.82 44.66 39.70 C 45.78 38.97 46.89 38.13 48.10 37.56 Z" fill="#ffffff"/>
<path d="M 162.10 41.30 C 162.84 42.16 163.58 43.03 164.32 43.89 C 163.06 47.92 161.92 51.94 160.13 55.77 C 162.51 53.06 165.21 50.72 168.00 48.43 C 168.75 49.32 169.50 50.20 170.25 51.08 C 166.26 54.49 162.21 57.81 158.11 61.08 C 157.42 60.27 156.73 59.47 156.05 58.66 C 157.16 54.73 158.37 50.83 159.98 47.06 C 157.57 49.59 154.95 51.83 152.18 53.95 C 151.49 53.04 150.80 52.13 150.11 51.21 C 154.11 47.91 158.12 44.62 162.10 41.30 Z" fill="#014e9e"/>
<path d="M 40.10 44.53 C 39.37 46.06 39.49 47.56 37.80 48.30 C 36.26 49.33 32.90 50.85 35.14 52.98 C 38.27 51.89 41.50 46.66 44.92 48.99 C 49.04 51.45 47.53 55.94 44.76 58.77 C 42.92 60.86 40.77 60.56 38.24 60.81 C 38.43 59.76 38.63 58.72 38.84 57.68 C 40.41 56.94 43.11 56.65 43.65 54.72 C 44.32 53.43 44.10 52.53 43.01 52.04 C 40.76 53.36 38.88 55.39 36.54 56.52 C 33.42 57.43 30.35 54.18 31.12 51.05 C 32.24 46.40 35.44 44.59 40.10 44.53 Z" fill="#014e9e"/>
<path d="M 100.20 45.82 C 103.30 49.46 105.63 53.66 108.68 57.35 C 112.92 62.92 117.54 68.54 116.93 76.00 C 116.62 86.91 109.69 94.30 107.83 104.53 C 107.05 108.75 106.28 113.12 106.43 117.42 L 108.14 117.49 C 109.98 112.56 110.22 107.33 112.70 102.55 C 116.39 95.03 123.55 88.70 131.78 86.76 C 138.41 85.31 146.31 86.81 151.03 91.97 C 155.36 96.55 156.09 104.26 152.41 109.43 C 149.95 112.87 145.15 113.95 142.49 116.49 C 141.36 118.11 140.79 120.17 140.03 121.99 C 138.89 120.64 136.62 118.95 136.64 117.03 C 137.18 113.31 139.80 109.60 138.19 105.80 C 136.25 101.43 130.48 100.19 126.43 102.26 C 120.78 105.14 117.95 110.69 115.62 116.28 C 116.85 117.15 118.12 117.94 119.19 119.00 C 119.66 120.82 119.72 123.08 118.80 124.77 C 117.57 125.62 116.14 126.21 114.82 126.88 C 115.83 128.17 116.82 129.90 118.27 130.73 C 121.33 132.15 125.82 131.42 128.49 133.51 C 130.81 135.36 130.85 138.00 131.49 140.68 C 128.95 140.56 126.47 140.54 123.97 141.00 C 119.23 142.06 113.84 139.84 111.33 135.66 C 108.91 132.08 108.62 128.32 107.58 124.24 C 104.66 126.83 105.87 130.22 106.59 133.52 C 107.58 137.33 110.56 142.12 108.94 146.00 C 107.27 149.96 103.46 153.23 100.11 155.77 C 96.47 152.43 90.23 147.61 91.30 142.02 C 92.35 136.75 95.27 132.71 94.75 126.99 C 94.87 125.84 94.30 125.08 93.02 124.72 C 92.19 127.09 91.91 129.61 91.07 131.98 C 89.76 135.72 87.32 138.95 83.52 140.38 C 78.84 142.48 74.41 139.86 69.18 140.73 C 69.72 138.12 69.67 135.68 71.82 133.81 C 74.38 131.24 79.53 132.32 82.53 130.55 C 83.81 129.57 84.84 128.19 85.91 126.99 C 84.51 126.21 82.78 125.65 81.62 124.53 C 80.98 122.88 80.94 120.89 81.38 119.19 C 82.19 117.92 83.82 117.14 85.01 116.25 C 82.54 110.60 79.74 104.90 73.87 102.12 C 69.66 100.19 63.98 101.61 62.25 106.19 C 60.83 109.65 63.54 113.51 63.88 116.99 C 64.03 119.15 61.74 120.44 60.41 121.81 C 59.74 120.10 59.19 118.27 58.28 116.68 C 55.62 114.07 51.39 113.11 48.81 110.17 C 45.31 106.20 44.92 99.93 47.28 95.28 C 50.29 89.39 56.58 86.48 62.99 86.26 C 74.06 85.63 84.58 94.34 88.63 104.21 C 90.65 108.53 90.60 113.52 92.71 117.73 L 94.21 117.23 C 94.04 109.04 92.54 100.55 88.82 93.19 C 85.49 86.01 81.82 77.36 84.45 69.40 C 87.27 61.71 94.07 55.53 98.32 48.36 C 98.93 47.50 99.56 46.66 100.20 45.82 Z" fill="#ffffff"/>
<path d="M 23.85 83.03 C 25.19 84.26 26.48 85.54 27.79 86.79 C 26.46 88.10 25.14 89.41 23.83 90.74 C 22.53 89.42 21.21 88.11 19.88 86.81 C 21.20 85.55 22.50 84.26 23.85 83.03 Z" fill="#014e9e"/>
<path d="M 176.87 83.03 C 178.21 84.26 179.50 85.54 180.81 86.80 C 179.48 88.11 178.16 89.42 176.86 90.75 C 175.55 89.43 174.23 88.11 172.89 86.81 C 174.22 85.55 175.52 84.26 176.87 83.03 Z" fill="#014e9e"/>
<path d="M 31.20 114.14 C 32.02 117.01 33.16 120.05 33.27 123.04 C 33.08 125.58 31.30 127.19 28.99 127.93 C 26.20 128.82 22.45 130.34 19.95 128.04 C 17.65 125.76 17.11 121.57 16.07 118.60 C 21.08 117.02 26.14 115.58 31.20 114.14 Z" fill="#014e9e"/>
<path d="M 171.94 114.11 C 175.88 116.87 179.83 119.61 183.71 122.43 C 182.81 123.52 182.61 124.91 181.06 125.00 C 176.94 125.60 172.74 125.66 168.58 125.94 C 168.93 124.86 169.28 123.79 169.64 122.72 C 172.94 122.65 176.24 122.58 179.54 122.53 C 176.64 120.80 173.79 119.01 170.98 117.15 C 171.30 116.13 171.62 115.12 171.94 114.11 Z" fill="#014e9e"/>
<path d="M 182.19 117.24 C 184.12 115.88 185.01 118.00 184.53 119.67 C 182.91 120.03 180.64 119.09 182.19 117.24 Z" fill="#014e9e"/>
<path d="M 29.42 118.48 C 29.53 120.11 29.89 121.93 29.54 123.55 C 27.51 124.79 24.86 125.77 22.46 125.50 C 21.29 124.40 20.78 122.57 20.07 121.16 C 23.17 120.22 26.29 119.33 29.42 118.48 Z" fill="#ffffff"/>
<path d="M 179.45 127.21 C 180.98 125.72 182.68 128.00 181.54 129.43 C 179.91 130.69 178.28 128.78 179.45 127.21 Z" fill="#014e9e"/>
<path d="M 172.00 128.72 C 173.58 128.51 175.31 129.11 176.86 129.41 C 175.96 131.74 175.04 134.04 174.38 136.45 C 176.74 134.70 177.41 132.14 179.07 129.82 C 179.66 133.37 179.81 136.76 176.08 138.45 C 173.77 138.45 171.00 137.41 169.54 135.55 C 168.31 133.19 169.74 129.96 172.00 128.72 Z" fill="#014e9e"/>
<path d="M 36.87 130.47 C 37.37 131.44 37.87 132.41 38.37 133.38 C 34.59 137.53 30.78 141.65 26.95 145.76 C 26.36 144.54 25.78 143.32 25.20 142.09 C 25.91 141.40 26.62 140.72 27.33 140.03 C 26.52 138.45 25.71 136.86 24.91 135.28 C 23.91 135.37 22.91 135.46 21.92 135.56 C 21.31 134.49 20.71 133.43 20.11 132.36 C 25.67 131.53 31.27 130.99 36.87 130.47 Z" fill="#014e9e"/>
<path d="M 173.87 130.52 C 173.42 132.01 172.94 133.49 172.44 134.97 C 172.04 134.34 171.65 133.70 171.26 133.06 C 172.07 132.16 172.97 131.34 173.87 130.52 Z" fill="#ffffff"/>
<path d="M 34.68 133.34 C 32.88 134.77 31.14 136.28 29.41 137.79 C 28.93 136.81 28.46 135.83 27.99 134.85 C 30.22 134.38 32.46 133.89 34.68 133.34 Z" fill="#ffffff"/>
<path d="M 40.75 138.16 C 42.77 140.72 45.74 143.70 46.29 146.99 C 45.72 151.32 42.44 151.86 38.72 152.19 C 37.80 154.05 36.89 155.91 35.97 157.77 C 35.14 156.61 34.32 155.45 33.50 154.28 C 34.40 152.57 35.29 150.85 36.17 149.13 C 35.77 148.42 35.37 147.72 34.97 147.02 C 33.42 148.11 31.87 149.20 30.32 150.28 C 29.61 149.39 28.90 148.50 28.19 147.62 C 32.28 144.36 36.40 141.07 40.75 138.16 Z" fill="#014e9e"/>
<path d="M 160.96 137.76 C 163.56 137.21 164.85 139.63 166.42 141.18 C 169.08 141.77 171.34 141.98 172.34 144.93 C 172.69 148.31 170.03 151.96 167.06 153.40 C 163.68 154.24 162.76 151.67 161.23 149.37 C 158.78 148.38 156.44 148.02 155.81 145.02 C 155.92 141.95 158.07 138.86 160.96 137.76 Z" fill="#014e9e"/>
<path d="M 161.66 141.37 C 162.52 142.01 163.30 142.73 164.09 143.45 C 162.92 144.16 161.69 144.99 160.39 145.45 C 158.16 144.37 159.72 141.56 161.66 141.37 Z" fill="#ffffff"/>
<path d="M 40.38 142.96 C 41.17 144.03 41.99 145.13 42.59 146.32 C 42.56 147.59 41.55 147.91 40.61 148.49 C 39.38 147.49 38.27 146.28 37.17 145.13 C 38.23 144.39 39.29 143.66 40.38 142.96 Z" fill="#ffffff"/>
<path d="M 168.60 145.41 C 169.46 147.39 167.99 148.58 166.79 149.94 C 165.21 149.71 164.71 148.54 163.80 147.42 C 165.34 146.50 166.63 144.70 168.60 145.41 Z" fill="#ffffff"/>
<path d="M 155.46 148.68 C 157.97 150.09 160.86 153.06 162.29 155.55 C 164.08 159.19 160.45 163.26 157.04 164.13 C 155.47 163.97 153.91 163.68 152.36 163.28 C 153.97 161.53 155.81 160.71 157.88 159.68 C 159.55 159.04 158.63 156.97 158.79 155.58 C 156.77 157.15 154.58 159.72 151.99 160.23 C 148.73 159.86 145.72 156.43 147.20 153.14 C 148.38 150.12 152.14 147.10 155.46 148.68 Z" fill="#014e9e"/>
<path d="M 48.91 149.16 C 49.79 149.71 50.67 150.28 51.53 150.85 C 50.87 153.93 50.22 157.00 49.55 160.07 C 52.27 159.08 55.05 157.63 57.92 157.21 C 58.94 157.61 59.94 158.07 60.92 158.57 C 57.52 162.77 54.05 166.91 50.36 170.87 C 49.54 170.12 48.72 169.37 47.90 168.62 C 50.10 165.91 52.42 163.35 55.02 161.02 C 52.61 162.15 49.93 163.57 47.27 163.90 L 46.14 162.76 C 46.07 160.16 47.03 157.40 47.74 154.91 C 45.88 157.79 43.74 160.42 41.51 163.01 C 40.59 162.34 39.69 161.66 38.78 160.98 C 42.13 157.03 45.38 152.96 48.91 149.16 Z" fill="#014e9e"/>
<path d="M 152.66 151.43 C 153.81 152.01 154.95 152.60 156.08 153.21 C 154.94 154.31 153.82 155.53 152.50 156.40 C 151.20 156.62 150.90 155.67 150.13 154.86 C 150.75 153.54 151.69 152.50 152.66 151.43 Z" fill="#ffffff"/>
<path d="M 144.06 156.77 C 146.72 157.52 146.81 159.64 147.72 161.86 C 149.36 163.06 151.60 163.80 151.88 166.09 C 152.70 170.00 147.34 173.45 143.97 173.49 C 140.71 173.14 140.64 170.32 140.08 167.77 C 138.28 166.01 136.08 164.89 136.52 161.95 C 137.43 159.01 141.02 156.59 144.06 156.77 Z" fill="#014e9e"/>
<path d="M 141.55 160.63 C 143.73 159.57 143.98 160.73 144.47 162.55 C 143.77 163.49 141.50 164.45 140.61 163.48 C 139.10 161.59 140.18 161.82 141.55 160.63 Z" fill="#ffffff"/>
<path d="M 63.99 161.17 C 68.60 161.64 71.14 163.97 71.60 168.68 C 70.43 168.65 69.25 168.62 68.07 168.59 C 67.77 167.51 67.47 166.43 67.17 165.35 C 65.63 165.10 64.09 164.85 62.53 164.74 C 63.86 167.79 67.11 169.12 68.56 171.94 C 69.25 175.15 66.32 178.26 63.04 177.67 C 58.36 176.88 56.15 174.36 55.56 169.68 C 56.67 169.81 57.77 169.95 58.88 170.09 C 60.36 172.87 61.49 175.11 65.14 174.02 C 64.29 171.25 61.20 169.90 59.52 167.52 C 58.13 164.55 60.69 160.87 63.99 161.17 Z" fill="#014e9e"/>
<path d="M 133.10 161.90 C 135.42 166.57 138.46 171.33 139.81 176.37 C 138.97 177.06 138.11 177.72 137.23 178.36 C 135.50 174.91 133.85 171.42 132.17 167.94 C 131.48 168.87 130.79 169.80 130.10 170.73 C 129.19 170.07 128.27 169.41 127.36 168.75 C 129.03 166.22 130.83 163.92 133.10 161.90 Z" fill="#014e9e"/>
<path d="M 73.61 165.57 C 77.37 166.82 81.16 167.99 84.93 169.19 C 84.68 170.25 84.43 171.31 84.17 172.37 C 82.76 171.95 81.35 171.53 79.94 171.10 C 78.73 175.01 77.52 178.92 76.29 182.82 C 75.14 182.54 73.99 182.27 72.85 182.00 C 73.98 178.01 75.23 174.05 76.48 170.10 C 75.36 169.66 74.24 169.22 73.12 168.78 L 72.27 168.45 C 72.72 167.49 73.16 166.53 73.61 165.57 Z" fill="#014e9e"/>
<path d="M 147.47 165.47 C 147.84 166.23 148.13 167.02 148.33 167.82 C 147.19 169.27 146.12 169.98 144.21 169.90 C 143.83 168.93 143.53 167.94 143.27 166.93 C 144.66 166.41 146.06 165.92 147.47 165.47 Z" fill="#ffffff"/>
<path d="M 121.30 167.69 C 121.50 168.77 121.70 169.86 121.90 170.95 C 120.52 171.25 119.14 171.55 117.75 171.84 C 118.67 175.91 119.57 179.97 120.39 184.06 C 119.22 184.26 118.06 184.45 116.89 184.65 C 116.02 180.73 115.16 176.81 114.30 172.88 C 113.00 173.02 111.71 173.09 110.41 173.11 L 108.70 170.69 C 112.85 169.46 117.07 168.59 121.30 167.69 Z" fill="#014e9e"/>
<path d="M 91.45 169.71 C 92.69 175.30 93.79 180.92 94.89 186.54 C 93.63 186.32 92.37 186.09 91.12 185.86 C 90.87 184.85 90.62 183.85 90.37 182.84 C 88.65 182.61 86.92 182.37 85.19 182.14 C 84.66 183.00 84.12 183.87 83.59 184.73 C 82.38 184.54 81.18 184.35 79.97 184.16 C 82.61 179.69 84.88 174.96 87.76 170.64 C 88.29 169.51 90.36 169.96 91.45 169.71 Z" fill="#014e9e"/>
<path d="M 96.31 170.87 C 99.16 170.56 102.29 170.30 105.09 171.00 C 107.44 171.73 108.63 173.58 108.77 175.97 C 108.88 179.00 109.62 183.53 106.46 185.32 C 103.58 186.73 99.67 186.29 96.52 186.50 C 96.43 181.31 95.95 176.05 96.31 170.87 Z" fill="#014e9e"/>
<path d="M 89.27 173.17 C 89.45 175.40 89.67 177.62 89.89 179.84 C 88.81 179.68 87.73 179.52 86.65 179.36 C 87.56 177.31 88.44 175.26 89.27 173.17 Z" fill="#ffffff"/>
<path d="M 99.76 173.53 C 101.36 173.83 103.02 174.07 104.58 174.56 C 105.68 176.73 105.41 179.67 105.11 182.02 C 103.55 182.70 101.80 183.06 100.14 183.47 C 99.91 180.16 99.80 176.84 99.76 173.53 Z" fill="#ffffff"/>
</svg>
