<?xml version="1.0" encoding="UTF-8" standalone="no"?>
<svg xmlns:dc="http://purl.org/dc/elements/1.1/" xmlns:cc="http://creativecommons.org/ns#" xmlns:rdf="http://www.w3.org/1999/02/22-rdf-syntax-ns#" xmlns:svg="http://www.w3.org/2000/svg" xmlns="http://www.w3.org/2000/svg" xmlns:sodipodi="http://sodipodi.sourceforge.net/DTD/sodipodi-0.dtd" xmlns:inkscape="http://www.inkscape.org/namespaces/inkscape" inkscape:version="1.0 (4035a4f, 2020-05-01)" sodipodi:docname="563.svg" id="svg17799" height="200.0pt" width="200.0pt" viewBox="0 0 200 200" version="1.1">
  <metadata id="metadata17805">
    <rdf:RDF>
      <cc:Work rdf:about="">
        <dc:format>image/svg+xml</dc:format>
        <dc:type rdf:resource="http://purl.org/dc/dcmitype/StillImage"/>
      </cc:Work>
    </rdf:RDF>
  </metadata>
  <defs id="defs17803"/>
  <sodipodi:namedview inkscape:current-layer="svg17799" inkscape:cy="133.33333" inkscape:cx="133.33333" inkscape:zoom="1.75125" showgrid="false" id="namedview17801" inkscape:window-height="480" inkscape:window-width="640" inkscape:pageshadow="2" inkscape:pageopacity="0" guidetolerance="10" gridtolerance="10" objecttolerance="10" borderopacity="1" bordercolor="#666666" pagecolor="#ffffff"/>
  <path style="fill:#ffffff;fill-opacity:0" id="path17385" fill="#ffffff" d="M 0.00 0.00 L 200.00 0.00 L 200.00 200.00 L 0.00 200.00 L 0.00 0.00 Z"/>
  <path id="path17387" fill="#3b9ad5" d="M 78.00 1.00 C 97.91 1.50 118.21 -0.05 137.99 1.87 C 154.87 2.80 172.11 4.16 188.73 7.32 C 189.38 22.45 188.80 37.82 189.00 53.00 C 188.40 69.85 190.29 87.29 187.88 103.95 C 185.03 120.87 179.10 137.10 169.16 151.17 C 152.95 173.80 126.40 190.92 100.00 198.91 C 62.64 187.07 29.42 161.44 16.83 123.13 C 11.05 106.05 10.45 88.85 11.00 71.00 C 11.19 49.87 10.62 28.39 11.27 7.32 C 33.14 3.41 55.83 1.84 78.00 1.00 Z"/>
  <path id="path17389" fill="#822b45" d="M 88.00 6.96 C 119.27 6.92 151.86 8.19 182.73 13.32 C 183.36 40.66 182.82 68.59 183.00 96.01 C 181.79 111.29 177.52 126.60 170.00 140.00 C 155.43 166.27 129.57 182.94 101.97 192.99 C 98.36 193.54 95.01 191.52 91.62 190.40 C 62.79 178.65 36.20 158.07 24.70 128.32 C 18.17 111.86 16.23 94.59 17.00 77.00 C 17.19 55.86 16.63 34.39 17.27 13.32 C 37.22 10.03 57.80 8.03 78.01 7.88 C 81.35 7.50 84.61 6.86 88.00 6.96 Z"/>
  <path id="path17391" fill="#f7d64f" d="M 72.72 13.42 L 71.91 13.72 L 72.72 13.42 Z"/>
  <path id="path17393" fill="#ffffff" d="M 72.72 13.42 C 74.91 12.97 76.97 12.93 79.17 13.28 L 79.83 13.65 C 80.88 14.59 81.13 15.71 80.57 17.01 L 79.85 17.48 L 78.98 17.43 L 78.28 17.38 C 76.06 16.57 70.77 17.59 74.27 20.25 L 74.94 20.64 L 77.17 21.49 L 78.03 21.83 L 79.04 22.26 L 79.95 22.68 L 80.89 23.19 L 81.56 23.77 C 82.69 25.42 83.23 26.18 82.53 28.20 L 82.35 28.82 L 82.10 29.66 C 80.65 29.84 79.84 30.65 79.66 32.10 L 78.83 32.35 L 78.21 32.51 C 75.78 33.14 73.29 33.12 70.83 32.71 L 70.17 32.35 C 68.72 31.11 68.12 27.11 71.19 28.48 L 71.80 28.57 C 73.94 28.74 75.71 29.57 77.41 27.80 C 77.70 27.70 77.69 27.51 77.36 27.24 C 76.30 25.89 75.37 25.21 73.76 24.62 L 73.09 24.37 L 70.94 23.61 L 70.28 23.29 C 67.19 21.82 67.97 19.69 68.35 16.86 L 68.75 16.12 L 70.28 14.70 L 71.02 14.19 L 71.91 13.72 L 72.72 13.42 Z"/>
  <path id="path17395" fill="#f7d64f" d="M 79.17 13.28 L 79.83 13.65 L 79.17 13.28 Z"/>
  <path id="path17397" fill="#ffffff" d="M 83.13 13.21 C 88.39 12.83 94.62 12.83 99.88 13.21 C 100.81 18.70 97.92 16.28 94.22 17.30 C 93.62 22.08 94.40 27.15 93.71 31.95 C 92.24 31.88 90.76 31.88 89.29 31.95 C 88.60 27.14 89.38 22.08 88.78 17.30 C 85.09 16.28 82.19 18.70 83.13 13.21 Z"/>
  <path id="path17399" fill="#f7d64f" d="M 109.07 13.08 C 109.08 19.28 108.70 25.56 109.23 31.74 C 110.42 31.89 111.61 32.00 112.81 32.07 C 113.38 33.73 109.10 32.75 108.20 32.85 C 108.35 28.08 106.80 16.04 109.07 13.08 Z"/>
  <path id="path17401" fill="#ffffff" d="M 109.07 13.08 C 115.10 11.91 112.16 16.25 113.38 20.08 L 113.93 20.65 C 116.50 21.14 119.17 21.18 121.76 20.81 C 122.65 17.34 120.14 10.18 126.19 13.85 C 125.86 20.20 126.09 26.56 125.93 32.92 C 119.90 34.09 122.84 29.75 121.62 25.92 L 121.07 25.35 C 118.50 24.86 115.83 24.82 113.24 25.19 C 112.98 27.47 113.01 29.78 112.81 32.07 C 111.61 32.00 110.42 31.89 109.23 31.74 C 108.70 25.56 109.08 19.28 109.07 13.08 Z"/>
  <path id="path17403" fill="#f7d64f" d="M 53.92 14.36 L 53.36 14.92 L 53.92 14.36 Z"/>
  <path id="path17405" fill="#ffffff" d="M 53.92 14.36 C 57.83 13.77 61.94 13.80 65.87 14.21 C 67.40 20.51 61.23 16.58 57.74 18.96 C 56.29 19.65 56.29 20.34 57.73 21.04 C 59.10 21.78 60.36 21.69 61.85 21.59 C 64.94 22.32 63.67 23.75 63.13 25.92 C 61.27 26.14 59.47 26.19 57.74 26.97 C 56.27 27.68 56.28 28.36 57.76 29.01 C 58.82 29.39 59.90 29.67 60.99 29.85 C 62.57 30.21 64.15 30.24 65.76 30.10 C 65.82 31.01 65.84 31.92 65.80 32.84 C 64.14 32.62 63.27 32.80 61.99 33.89 C 59.09 33.99 56.08 34.16 53.20 33.81 C 52.87 27.63 52.71 21.07 53.36 14.92 L 53.92 14.36 Z"/>
  <path id="path17407" fill="#f7d64f" d="M 71.02 14.19 L 70.28 14.70 L 71.02 14.19 Z"/>
  <path id="path17409" fill="#f7d64f" d="M 126.19 13.85 C 127.35 17.79 127.86 30.29 125.93 32.92 C 126.09 26.56 125.86 20.20 126.19 13.85 Z"/>
  <path id="path17411" fill="#ffffff" d="M 142.48 19.20 L 142.69 19.89 L 143.38 22.10 L 143.63 22.89 L 144.37 25.11 L 144.63 25.89 L 145.40 28.10 L 145.66 28.88 L 146.37 31.08 L 146.55 31.78 C 147.87 35.07 144.97 33.67 143.00 33.61 L 142.42 33.00 L 141.93 30.94 C 141.72 27.58 138.03 28.83 135.92 29.33 L 135.14 29.54 L 134.49 30.10 L 133.61 32.00 L 132.97 32.55 C 131.67 32.80 130.32 32.84 128.93 32.68 L 128.72 32.02 L 129.38 29.86 L 129.63 29.10 L 130.34 26.90 L 130.55 26.21 C 131.19 24.07 131.81 21.93 132.43 19.78 L 132.63 19.09 L 133.32 16.90 L 133.56 16.22 C 135.73 11.69 142.54 13.47 142.48 19.20 Z"/>
  <path id="path17413" fill="#ffffff" d="M 50.07 15.31 L 50.30 15.89 C 50.08 16.99 49.84 18.09 49.60 19.19 L 49.47 19.82 C 49.26 20.84 49.07 21.85 48.88 22.88 C 47.95 23.37 47.68 24.14 48.06 25.20 L 47.58 27.18 L 47.43 27.82 C 47.16 28.94 46.89 30.07 46.62 31.19 L 46.47 31.82 C 46.37 36.14 42.70 35.44 39.83 34.14 C 40.25 33.17 40.01 32.42 39.13 31.91 C 38.95 30.87 38.75 29.83 38.54 28.79 L 38.39 28.14 L 37.88 26.16 C 37.63 25.27 37.37 25.27 37.13 26.16 L 36.63 28.14 L 36.48 28.78 C 36.19 30.26 35.88 31.74 35.56 33.21 L 35.39 33.81 C 34.98 36.44 33.07 35.64 31.07 36.23 L 29.15 35.95 L 28.98 35.09 C 29.33 34.06 29.04 33.31 28.11 32.86 C 27.94 31.85 27.75 30.83 27.55 29.82 L 27.41 29.17 C 27.14 28.06 26.87 26.95 26.58 25.84 L 26.40 25.17 C 26.11 24.06 25.82 22.95 25.55 21.84 L 25.42 21.19 C 24.86 16.50 24.13 16.68 29.03 17.35 L 29.61 17.90 C 29.95 19.32 30.24 20.75 30.48 22.19 L 30.57 22.81 C 30.74 24.20 30.87 25.60 30.95 27.01 C 30.57 28.79 32.62 30.27 32.97 27.92 C 33.15 26.89 33.33 25.85 33.49 24.82 L 33.59 24.20 C 33.76 23.18 33.92 22.16 34.09 21.14 C 35.04 20.65 35.28 19.89 34.80 18.86 C 34.32 14.55 40.87 14.99 40.48 19.17 L 40.64 19.81 C 40.90 20.93 41.14 22.05 41.38 23.18 L 41.50 23.83 C 41.68 24.86 41.86 25.88 42.04 26.91 C 42.40 29.27 44.43 27.79 44.05 26.01 C 44.14 24.60 44.26 23.20 44.43 21.81 L 44.52 21.20 C 44.76 19.73 45.04 18.27 45.36 16.82 L 45.70 16.21 C 47.03 14.59 48.25 15.18 50.07 15.31 Z"/>
  <path id="path17415" fill="#f7d64f" d="M 50.07 15.31 C 50.41 15.23 50.48 15.42 50.30 15.89 L 50.07 15.31 Z"/>
  <path id="path17417" fill="#f7d64f" d="M 152.97 15.34 L 152.39 15.90 L 152.97 15.34 Z"/>
  <path id="path17419" fill="#ffffff" d="M 152.97 15.34 C 154.33 15.05 155.70 15.10 157.09 15.48 L 157.84 16.11 L 158.26 17.02 L 158.59 17.83 L 159.40 20.10 L 159.66 20.88 L 160.33 23.10 L 160.52 23.83 L 160.95 25.89 C 160.57 27.61 162.35 29.26 162.98 26.95 C 163.71 24.53 164.40 22.12 165.38 19.78 L 165.63 19.24 C 166.05 18.42 166.48 17.62 166.94 16.82 C 167.98 17.14 169.04 17.08 170.11 16.65 C 170.86 17.34 171.60 18.05 172.33 18.78 C 171.78 19.80 171.99 20.57 172.95 21.09 C 172.97 22.36 172.99 23.63 173.00 24.91 C 172.66 25.96 172.96 26.69 173.91 27.09 C 174.09 28.46 174.29 29.83 174.50 31.19 L 174.59 31.80 C 174.54 34.90 176.58 37.37 172.04 37.11 C 171.90 35.91 171.23 35.20 170.01 34.97 C 169.96 32.90 169.90 30.85 169.58 28.79 L 169.46 28.17 C 169.24 27.15 169.01 26.14 168.76 25.12 C 168.65 24.27 168.41 24.31 168.02 25.24 L 167.69 26.11 L 167.41 26.86 L 166.64 29.11 L 166.38 29.90 L 165.65 32.12 L 165.38 32.87 L 164.60 34.91 L 164.00 35.52 L 163.20 35.84 C 162.63 35.00 161.84 34.78 160.85 35.18 L 159.76 33.67 L 159.41 33.02 L 158.61 30.90 L 158.34 30.12 L 157.63 27.91 L 157.41 27.20 L 156.82 25.19 C 156.91 22.93 154.68 22.20 155.01 24.97 C 155.01 26.62 155.00 28.26 154.99 29.91 C 154.00 30.35 153.75 31.10 154.23 32.16 C 153.67 33.78 154.07 34.70 152.05 35.04 C 151.63 34.10 150.91 33.83 149.90 34.22 L 149.23 33.00 C 150.08 32.58 150.31 31.88 149.93 30.89 C 149.96 29.62 149.98 28.36 150.00 27.09 C 150.98 26.70 151.28 25.97 150.91 24.91 C 151.06 23.54 151.23 22.17 151.43 20.81 L 151.53 20.20 C 151.77 18.76 152.06 17.32 152.39 15.90 L 152.97 15.34 Z"/>
  <path id="path17421" fill="#f7d64f" d="M 157.09 15.48 L 157.84 16.11 L 157.09 15.48 Z"/>
  <path id="path17423" fill="#f7d64f" d="M 45.70 16.21 L 45.36 16.82 L 45.70 16.21 Z"/>
  <path id="path17425" fill="#f7d64f" d="M 68.75 16.12 L 68.35 16.86 L 68.75 16.12 Z"/>
  <path id="path17427" fill="#f7d64f" d="M 133.56 16.22 L 133.32 16.90 L 133.56 16.22 Z"/>
  <path id="path17429" fill="#f7d64f" d="M 170.11 16.65 C 169.04 17.08 167.98 17.14 166.94 16.82 C 167.59 15.25 169.18 15.45 170.11 16.65 Z"/>
  <path id="path17431" fill="#f7d64f" d="M 29.03 17.35 L 29.61 17.90 L 29.03 17.35 Z"/>
  <path id="path17433" fill="#f7d64f" d="M 78.28 17.38 L 78.98 17.43 L 78.28 17.38 Z"/>
  <path id="path17435" fill="#f7d64f" d="M 80.57 17.01 L 79.85 17.48 L 80.57 17.01 Z"/>
  <path id="path17437" fill="#f7d64f" d="M 158.26 17.02 L 158.59 17.83 L 158.26 17.02 Z"/>
  <path id="path17439" fill="#f7d64f" d="M 34.80 18.86 C 35.28 19.89 35.04 20.65 34.09 21.14 C 33.68 20.13 33.91 19.36 34.80 18.86 Z"/>
  <path id="path17441" fill="#f7d64f" d="M 40.48 19.17 L 40.64 19.81 L 40.48 19.17 Z"/>
  <path id="path17443" fill="#f7d64f" d="M 49.60 19.19 L 49.47 19.82 L 49.60 19.19 Z"/>
  <path id="path17445" fill="#f7d64f" d="M 57.74 18.96 L 57.73 21.04 C 56.29 20.34 56.29 19.65 57.74 18.96 Z"/>
  <path id="path17447" fill="#f7d64f" d="M 132.63 19.09 L 132.43 19.78 L 132.63 19.09 Z"/>
  <path id="path17449" fill="#f7d64f" d="M 139.17 21.04 C 138.38 20.84 137.65 20.54 136.97 20.15 C 137.44 17.84 139.37 19.31 139.17 21.04 Z"/>
  <path id="path17451" fill="#f7d64f" d="M 142.48 19.20 L 142.69 19.89 L 142.48 19.20 Z"/>
  <path id="path17453" fill="#f7d64f" d="M 165.63 19.24 L 165.38 19.78 L 165.63 19.24 Z"/>
  <path id="path17455" fill="#f7d64f" d="M 172.33 18.78 C 173.16 19.34 173.37 20.11 172.95 21.09 C 171.99 20.57 171.78 19.80 172.33 18.78 Z"/>
  <path id="path17457" fill="#f7d64f" d="M 74.27 20.25 L 74.94 20.64 L 74.27 20.25 Z"/>
  <path id="path17459" fill="#f7d64f" d="M 113.38 20.08 L 113.93 20.65 L 113.38 20.08 Z"/>
  <path id="path17461" fill="#822b45" d="M 136.97 20.15 C 137.65 20.54 138.38 20.84 139.17 21.04 L 139.43 23.23 L 139.48 23.97 L 139.49 24.84 L 138.93 25.53 L 137.02 25.60 L 136.42 24.97 L 136.42 22.89 L 136.51 22.16 L 136.97 20.15 Z"/>
  <path id="path17463" fill="#f7d64f" d="M 151.53 20.20 L 151.43 20.81 L 151.53 20.20 Z"/>
  <path id="path17465" fill="#f7d64f" d="M 159.40 20.10 L 159.66 20.88 L 159.40 20.10 Z"/>
  <path id="path17467" fill="#f7d64f" d="M 25.42 21.19 L 25.55 21.84 L 25.42 21.19 Z"/>
  <path id="path17469" fill="#f7d64f" d="M 44.52 21.20 L 44.43 21.81 L 44.52 21.20 Z"/>
  <path id="path17471" fill="#f7d64f" d="M 63.13 25.92 C 63.67 23.75 64.94 22.32 61.85 21.59 C 66.37 19.11 65.81 26.69 63.13 25.92 Z"/>
  <path id="path17473" fill="#f7d64f" d="M 77.17 21.49 L 78.03 21.83 L 77.17 21.49 Z"/>
  <path id="path17475" fill="#f7d64f" d="M 30.48 22.19 L 30.57 22.81 L 30.48 22.19 Z"/>
  <path id="path17477" fill="#f7d64f" d="M 79.04 22.26 L 79.95 22.68 L 79.04 22.26 Z"/>
  <path id="path17479" fill="#f7d64f" d="M 136.51 22.16 L 136.42 22.89 L 136.51 22.16 Z"/>
  <path id="path17481" fill="#f7d64f" d="M 143.38 22.10 L 143.63 22.89 L 143.38 22.10 Z"/>
  <path id="path17483" fill="#f7d64f" d="M 41.38 23.18 L 41.50 23.83 L 41.38 23.18 Z"/>
  <path id="path17485" fill="#f7d64f" d="M 48.88 22.88 C 49.27 23.92 49.00 24.70 48.06 25.20 C 47.68 24.14 47.95 23.37 48.88 22.88 Z"/>
  <path id="path17487" fill="#f7d64f" d="M 70.28 23.29 L 70.94 23.61 L 70.28 23.29 Z"/>
  <path id="path17489" fill="#f7d64f" d="M 80.89 23.19 L 81.56 23.77 L 80.89 23.19 Z"/>
  <path id="path17491" fill="#f7d64f" d="M 139.43 23.23 L 139.48 23.97 L 139.43 23.23 Z"/>
  <path id="path17493" fill="#f7d64f" d="M 156.82 25.19 L 155.01 24.97 C 154.68 22.20 156.91 22.93 156.82 25.19 Z"/>
  <path id="path17495" fill="#f7d64f" d="M 160.33 23.10 L 160.52 23.83 L 160.33 23.10 Z"/>
  <path id="path17497" fill="#f7d64f" d="M 33.59 24.20 L 33.49 24.82 L 33.59 24.20 Z"/>
  <path id="path17499" fill="#f7d64f" d="M 73.09 24.37 L 73.76 24.62 L 73.09 24.37 Z"/>
  <path id="path17501" fill="#f7d64f" d="M 168.76 25.12 L 168.02 25.24 C 168.41 24.31 168.65 24.27 168.76 25.12 Z"/>
  <path id="path17503" fill="#f7d64f" d="M 26.40 25.17 L 26.58 25.84 L 26.40 25.17 Z"/>
  <path id="path17505" fill="#3b9ad5" d="M 37.88 26.16 L 37.13 26.16 C 37.37 25.27 37.63 25.27 37.88 26.16 Z"/>
  <path id="path17507" fill="#f7d64f" d="M 121.07 25.35 L 121.62 25.92 L 121.07 25.35 Z"/>
  <path id="path17509" fill="#f7d64f" d="M 136.42 24.97 L 137.02 25.60 L 136.42 24.97 Z"/>
  <path id="path17511" fill="#f7d64f" d="M 139.49 24.84 L 138.93 25.53 L 139.49 24.84 Z"/>
  <path id="path17513" fill="#f7d64f" d="M 144.37 25.11 L 144.63 25.89 L 144.37 25.11 Z"/>
  <path id="path17515" fill="#f7d64f" d="M 150.91 24.91 C 151.28 25.97 150.98 26.70 150.00 27.09 C 149.66 26.04 149.96 25.31 150.91 24.91 Z"/>
  <path id="path17517" fill="#f7d64f" d="M 173.00 24.91 C 173.98 25.30 174.28 26.03 173.91 27.09 C 172.96 26.69 172.66 25.96 173.00 24.91 Z"/>
  <path id="path17519" fill="#f7d64f" d="M 44.05 26.01 C 44.43 27.79 42.40 29.27 42.04 26.91 C 42.63 26.49 43.30 26.19 44.05 26.01 Z"/>
  <path id="path17521" fill="#f7d64f" d="M 130.55 26.21 L 130.34 26.90 L 130.55 26.21 Z"/>
  <path id="path17523" fill="#f7d64f" d="M 160.95 25.89 C 161.71 26.14 162.38 26.49 162.98 26.95 C 162.35 29.26 160.57 27.61 160.95 25.89 Z"/>
  <path id="path17525" fill="#f7d64f" d="M 167.69 26.11 L 167.41 26.86 L 167.69 26.11 Z"/>
  <path id="path17527" fill="#f7d64f" d="M 30.95 27.01 C 31.71 27.20 32.38 27.50 32.97 27.92 C 32.62 30.27 30.57 28.79 30.95 27.01 Z"/>
  <path id="path17529" fill="#f7d64f" d="M 47.58 27.18 L 47.43 27.82 L 47.58 27.18 Z"/>
  <path id="path17531" fill="#f7d64f" d="M 57.74 26.97 L 57.76 29.01 C 56.28 28.36 56.27 27.68 57.74 26.97 Z"/>
  <path id="path17533" fill="#f7d64f" d="M 77.36 27.24 C 77.69 27.51 77.70 27.70 77.41 27.80 L 77.36 27.24 Z"/>
  <path id="path17535" fill="#f7d64f" d="M 157.41 27.20 L 157.63 27.91 L 157.41 27.20 Z"/>
  <path id="path17537" fill="#f7d64f" d="M 36.63 28.14 L 36.48 28.78 L 36.63 28.14 Z"/>
  <path id="path17539" fill="#f7d64f" d="M 38.39 28.14 L 38.54 28.79 L 38.39 28.14 Z"/>
  <path id="path17541" fill="#f7d64f" d="M 71.19 28.48 L 71.80 28.57 L 71.19 28.48 Z"/>
  <path id="path17543" fill="#f7d64f" d="M 82.53 28.20 L 82.35 28.82 L 82.53 28.20 Z"/>
  <path id="path17545" fill="#f7d64f" d="M 145.40 28.10 L 145.66 28.88 L 145.40 28.10 Z"/>
  <path id="path17547" fill="#f7d64f" d="M 169.46 28.17 L 169.58 28.79 L 169.46 28.17 Z"/>
  <path id="path17549" fill="#f7d64f" d="M 27.41 29.17 L 27.55 29.82 L 27.41 29.17 Z"/>
  <path id="path17551" fill="#f7d64f" d="M 65.76 30.10 C 64.15 30.24 62.57 30.21 60.99 29.85 C 62.14 28.85 65.61 27.79 65.76 30.10 Z"/>
  <path id="path17553" fill="#f7d64f" d="M 129.63 29.10 L 129.38 29.86 L 129.63 29.10 Z"/>
  <path id="path17555" fill="#f7d64f" d="M 135.14 29.54 L 134.49 30.10 L 135.14 29.54 Z"/>
  <path id="path17557" fill="#f7d64f" d="M 135.92 29.33 C 138.03 28.83 141.72 27.58 141.93 30.94 C 139.92 30.44 137.90 29.97 135.92 29.33 Z"/>
  <path id="path17559" fill="#f7d64f" d="M 166.64 29.11 L 166.38 29.90 L 166.64 29.11 Z"/>
  <path id="path17561" fill="#f7d64f" d="M 82.10 29.66 C 81.85 31.04 81.04 31.85 79.66 32.10 C 79.84 30.65 80.65 29.84 82.10 29.66 Z"/>
  <path id="path17563" fill="#f7d64f" d="M 154.99 29.91 C 155.35 30.91 155.10 31.66 154.23 32.16 C 153.75 31.10 154.00 30.35 154.99 29.91 Z"/>
  <path id="path17565" fill="#f7d64f" d="M 158.34 30.12 L 158.61 30.90 L 158.34 30.12 Z"/>
  <path id="path17567" fill="#f7d64f" d="M 46.62 31.19 L 46.47 31.82 L 46.62 31.19 Z"/>
  <path id="path17569" fill="#f7d64f" d="M 146.37 31.08 L 146.55 31.78 L 146.37 31.08 Z"/>
  <path id="path17571" fill="#f7d64f" d="M 149.93 30.89 C 150.31 31.88 150.08 32.58 149.23 33.00 C 148.58 32.12 148.82 31.41 149.93 30.89 Z"/>
  <path id="path17573" fill="#f7d64f" d="M 174.50 31.19 L 174.59 31.80 L 174.50 31.19 Z"/>
  <path id="path17575" fill="#f7d64f" d="M 39.13 31.91 C 40.01 32.42 40.25 33.17 39.83 34.14 C 38.88 33.86 38.64 33.12 39.13 31.91 Z"/>
  <path id="path17577" fill="#f7d64f" d="M 70.17 32.35 L 70.83 32.71 L 70.17 32.35 Z"/>
  <path id="path17579" fill="#f7d64f" d="M 78.83 32.35 L 78.21 32.51 L 78.83 32.35 Z"/>
  <path id="path17581" fill="#f7d64f" d="M 89.29 31.95 C 90.76 31.88 92.24 31.88 93.71 31.95 C 93.88 33.74 89.12 33.74 89.29 31.95 Z"/>
  <path id="path17583" fill="#f7d64f" d="M 128.72 32.02 L 128.93 32.68 C 128.52 32.80 128.45 32.58 128.72 32.02 Z"/>
  <path id="path17585" fill="#f7d64f" d="M 133.61 32.00 L 132.97 32.55 L 133.61 32.00 Z"/>
  <path id="path17587" fill="#f7d64f" d="M 165.65 32.12 L 165.38 32.87 L 165.65 32.12 Z"/>
  <path id="path17589" fill="#f7d64f" d="M 28.11 32.86 C 29.04 33.31 29.33 34.06 28.98 35.09 C 28.01 34.67 27.72 33.93 28.11 32.86 Z"/>
  <path id="path17591" fill="#f7d64f" d="M 35.56 33.21 L 35.39 33.81 L 35.56 33.21 Z"/>
  <path id="path17593" fill="#f7d64f" d="M 65.80 32.84 C 65.97 34.80 63.13 34.18 61.99 33.89 C 63.27 32.80 64.14 32.62 65.80 32.84 Z"/>
  <path id="path17595" fill="#f7d64f" d="M 142.42 33.00 L 143.00 33.61 L 142.42 33.00 Z"/>
  <path id="path17597" fill="#f7d64f" d="M 159.41 33.02 L 159.76 33.67 L 159.41 33.02 Z"/>
  <path id="path17599" fill="#f7d64f" d="M 149.90 34.22 C 150.91 33.83 151.63 34.10 152.05 35.04 C 151.04 35.52 150.33 35.25 149.90 34.22 Z"/>
  <path id="path17601" fill="#f7d64f" d="M 160.85 35.18 C 161.84 34.78 162.63 35.00 163.20 35.84 C 162.19 36.40 161.41 36.18 160.85 35.18 Z"/>
  <path id="path17603" fill="#f7d64f" d="M 164.60 34.91 L 164.00 35.52 L 164.60 34.91 Z"/>
  <path id="path17605" fill="#f7d64f" d="M 170.01 34.97 C 171.23 35.20 171.90 35.91 172.04 37.11 C 170.57 37.35 169.89 36.64 170.01 34.97 Z"/>
  <path id="path17607" fill="#f7d64f" d="M 29.15 35.95 L 31.07 36.23 C 30.16 37.66 29.52 37.57 29.15 35.95 Z"/>
  <path id="path17609" fill="#ffffff" d="M 72.18 37.17 C 75.23 35.89 73.52 42.43 74.04 44.05 C 73.76 46.25 75.87 46.99 77.09 45.21 L 78.14 43.89 C 79.70 42.25 79.11 39.37 79.04 37.30 C 82.29 35.57 80.61 43.15 80.88 44.80 C 79.53 44.91 78.80 45.67 78.68 47.11 L 77.81 47.33 L 77.09 47.46 L 74.97 47.63 L 74.17 47.38 C 70.77 45.69 72.11 40.28 72.18 37.17 Z"/>
  <path id="path17611" fill="#f7d64f" d="M 79.04 37.30 C 79.11 39.37 79.70 42.25 78.14 43.89 C 78.11 42.46 76.92 37.49 79.04 37.30 Z"/>
  <path id="path17613" fill="#ffffff" d="M 87.28 39.32 L 87.60 39.90 L 87.99 40.72 C 87.48 42.38 89.55 44.46 89.89 41.97 C 90.49 40.27 89.03 36.21 91.96 37.13 C 92.01 40.41 92.02 43.68 91.94 46.96 C 90.52 47.20 89.45 46.77 88.74 45.66 L 88.38 45.23 C 87.60 44.24 86.85 43.20 86.02 42.26 C 84.39 42.09 84.88 45.70 84.92 46.71 C 81.75 48.39 83.31 40.61 83.02 38.99 C 82.51 35.45 86.60 37.14 87.28 39.32 Z"/>
  <path id="path17615" fill="#f7d64f" d="M 91.96 37.13 C 93.57 36.44 93.61 47.47 91.94 46.96 C 92.02 43.68 92.01 40.41 91.96 37.13 Z"/>
  <path id="path17617" fill="#f7d64f" d="M 95.04 37.13 C 94.99 40.38 94.99 43.62 95.04 46.87 C 93.41 47.61 93.41 36.38 95.04 37.13 Z"/>
  <path id="path17619" fill="#ffffff" d="M 95.04 37.13 C 97.96 34.41 97.95 49.59 95.04 46.87 C 94.99 43.62 94.99 40.38 95.04 37.13 Z"/>
  <path id="path17621" fill="#ffffff" d="M 108.04 37.19 C 104.44 40.80 105.20 40.97 104.59 46.08 L 104.06 46.63 C 100.14 48.37 103.80 39.74 100.22 38.74 C 95.70 35.81 106.82 37.28 108.04 37.19 Z"/>
  <path id="path17623" fill="#ffffff" d="M 110.20 37.17 C 112.40 36.88 114.65 36.90 116.85 37.14 C 117.40 39.76 114.74 38.61 113.10 39.17 C 111.29 39.66 111.30 40.21 113.10 40.82 C 116.84 41.03 116.84 42.97 113.10 43.18 C 111.30 43.79 111.29 44.34 113.10 44.83 C 114.74 45.39 117.41 44.24 116.85 46.86 C 114.65 47.10 112.40 47.12 110.20 46.82 C 109.82 43.68 109.82 40.31 110.20 37.17 Z"/>
  <path id="path17625" fill="#ffffff" d="M 119.20 37.16 C 122.34 36.79 125.15 36.54 127.27 39.33 L 127.68 39.88 L 128.21 40.70 C 127.85 41.77 127.81 42.86 128.08 43.97 L 127.93 44.79 C 126.52 44.81 125.79 45.54 125.76 46.98 L 125.01 47.21 C 123.26 46.83 121.73 46.75 119.97 47.18 C 118.23 44.53 119.01 40.19 119.20 37.16 Z"/>
  <path id="path17627" fill="#f7d64f" d="M 87.28 39.32 L 87.60 39.90 L 87.28 39.32 Z"/>
  <path id="path17629" fill="#f7d64f" d="M 113.10 39.17 L 113.10 40.82 C 111.30 40.21 111.29 39.66 113.10 39.17 Z"/>
  <path id="path17631" fill="#822b45" d="M 123.98 38.99 C 124.24 40.11 124.94 40.79 126.07 41.02 C 125.95 43.09 125.65 44.15 124.08 45.56 C 121.44 44.64 122.15 42.04 121.55 39.78 C 122.33 39.45 123.14 39.19 123.98 38.99 Z"/>
  <path id="path17633" fill="#f7d64f" d="M 123.98 38.99 C 125.56 38.62 126.26 39.30 126.07 41.02 C 124.94 40.79 124.24 40.11 123.98 38.99 Z"/>
  <path id="path17635" fill="#f7d64f" d="M 127.27 39.33 L 127.68 39.88 L 127.27 39.33 Z"/>
  <path id="path17637" fill="#f7d64f" d="M 121.55 39.78 C 122.15 42.04 121.44 44.64 124.08 45.56 C 119.35 47.40 121.10 42.54 121.55 39.78 Z"/>
  <path id="path17639" fill="#f7d64f" d="M 87.99 40.72 C 88.68 41.07 89.31 41.48 89.89 41.97 C 89.55 44.46 87.48 42.38 87.99 40.72 Z"/>
  <path id="path17641" fill="#f7d64f" d="M 128.21 40.70 C 129.46 41.74 129.67 43.14 128.08 43.97 C 127.81 42.86 127.85 41.77 128.21 40.70 Z"/>
  <path id="path17643" fill="#f7d64f" d="M 86.02 42.26 C 86.17 43.35 86.66 46.76 84.92 46.71 C 84.88 45.70 84.39 42.09 86.02 42.26 Z"/>
  <path id="path17645" fill="#f7d64f" d="M 113.10 43.18 L 113.10 44.83 C 111.29 44.34 111.30 43.79 113.10 43.18 Z"/>
  <path id="path17647" fill="#f7d64f" d="M 74.04 44.05 C 75.07 44.36 76.09 44.75 77.09 45.21 C 75.87 46.99 73.76 46.25 74.04 44.05 Z"/>
  <path id="path17649" fill="#f7d64f" d="M 80.88 44.80 C 80.93 46.09 80.20 46.86 78.68 47.11 C 78.80 45.67 79.53 44.91 80.88 44.80 Z"/>
  <path id="path17651" fill="#f7d64f" d="M 88.38 45.23 L 88.74 45.66 L 88.38 45.23 Z"/>
  <path id="path17653" fill="#f7d64f" d="M 127.93 44.79 C 127.88 46.10 127.15 46.84 125.76 46.98 C 125.79 45.54 126.52 44.81 127.93 44.79 Z"/>
  <path id="path17655" fill="#f7d64f" d="M 104.59 46.08 L 104.06 46.63 L 104.59 46.08 Z"/>
  <path id="path17657" fill="#f7d64f" d="M 74.17 47.38 L 74.97 47.63 L 74.17 47.38 Z"/>
  <path id="path17659" fill="#f7d64f" d="M 77.81 47.33 L 77.09 47.46 L 77.81 47.33 Z"/>
  <path id="path17661" fill="#f7d64f" d="M 119.97 47.18 C 121.73 46.75 123.26 46.83 125.01 47.21 C 123.57 48.30 121.08 49.11 119.97 47.18 Z"/>
  <path id="path17663" fill="#f7d64f" d="M 66.00 48.94 C 69.24 51.51 72.70 54.63 75.00 58.09 C 74.57 62.86 62.64 68.46 69.22 72.78 C 79.33 82.65 89.64 92.03 100.00 102.07 C 111.85 91.94 122.78 80.89 133.68 69.74 C 131.85 66.88 129.38 64.39 127.28 61.72 C 121.74 57.54 131.24 51.20 134.69 49.42 C 140.38 54.11 147.77 60.10 151.79 66.12 C 150.80 75.79 157.70 79.75 160.83 87.89 C 158.13 90.99 152.32 83.68 149.39 82.60 C 145.54 81.11 140.80 72.70 137.23 78.23 C 127.29 88.55 116.50 98.39 106.93 109.00 C 111.53 115.06 117.39 119.18 122.77 124.23 C 132.04 133.89 142.17 143.04 151.06 153.00 C 149.19 155.32 143.95 162.65 141.22 157.79 C 128.49 144.81 115.30 132.37 103.30 118.70 C 102.06 117.84 100.70 115.18 99.26 117.23 C 86.20 130.78 71.96 143.47 59.76 157.76 C 56.72 162.85 48.24 155.01 50.38 151.40 C 64.42 135.81 79.38 124.60 93.07 109.00 C 83.50 98.25 72.50 88.88 63.28 77.72 C 60.08 73.78 57.81 78.20 54.78 79.78 C 50.10 82.77 45.49 87.52 40.09 88.97 C 39.40 82.87 47.46 78.24 47.85 71.98 C 48.31 68.74 47.44 65.66 50.44 63.46 C 56.17 59.19 60.39 53.27 66.00 48.94 Z"/>
  <path id="path17665" fill="#ffffff" d="M 73.29 160.21 L 73.28 160.70 C 72.46 162.25 71.54 163.75 70.71 165.30 L 70.58 166.03 L 70.67 166.83 L 71.12 167.67 L 71.82 168.36 L 72.29 169.09 L 72.56 169.88 L 71.99 170.32 C 70.87 169.82 69.78 169.28 68.72 168.69 L 68.25 168.34 C 66.30 166.90 67.73 166.32 68.34 164.58 L 68.70 163.88 L 69.20 162.92 L 69.66 162.04 L 70.18 161.08 L 70.68 160.39 C 71.54 158.95 72.41 158.89 73.29 160.21 Z"/>
  <path id="path17667" fill="#f7d64f" d="M 127.91 159.48 L 127.49 160.14 L 127.91 159.48 Z"/>
  <path id="path17669" fill="#ffffff" d="M 127.91 159.48 C 129.64 159.00 131.49 164.00 132.36 165.25 L 132.54 165.95 L 132.51 167.93 L 131.88 168.50 L 131.07 168.48 L 130.31 168.27 C 129.44 167.76 128.57 167.26 127.69 166.76 L 127.13 166.49 C 125.56 165.14 127.30 168.78 127.19 169.26 L 127.22 169.83 L 126.89 171.25 L 126.17 171.31 C 124.41 168.97 122.98 166.31 121.70 163.69 L 121.71 163.18 C 123.33 161.20 124.48 162.50 126.28 163.33 L 126.76 163.60 C 130.35 165.98 128.39 163.96 127.73 161.64 L 127.57 160.96 L 127.49 160.14 L 127.91 159.48 Z"/>
  <path id="path17671" fill="#f7d64f" d="M 70.68 160.39 L 70.18 161.08 L 70.68 160.39 Z"/>
  <path id="path17673" fill="#f7d64f" d="M 73.29 160.21 C 73.47 160.29 73.47 160.45 73.28 160.70 L 73.29 160.21 Z"/>
  <path id="path17675" fill="#f7d64f" d="M 127.57 160.96 L 127.73 161.64 L 127.57 160.96 Z"/>
  <path id="path17677" fill="#f7d64f" d="M 69.66 162.04 L 69.20 162.92 L 69.66 162.04 Z"/>
  <path id="path17679" fill="#f7d64f" d="M 79.97 163.38 L 79.17 163.62 L 79.97 163.38 Z"/>
  <path id="path17681" fill="#ffffff" d="M 79.97 163.38 L 82.09 163.54 L 82.81 163.67 L 83.67 163.89 C 83.76 165.33 84.50 166.10 85.89 166.21 L 86.04 167.02 C 85.79 168.11 85.92 169.15 86.41 170.15 C 85.63 171.28 84.83 172.39 83.86 173.38 L 83.14 173.69 C 82.03 173.72 80.91 173.68 79.78 173.57 L 78.90 173.30 L 78.05 172.81 L 77.42 172.24 C 74.78 168.79 75.66 165.85 79.17 163.62 L 79.97 163.38 Z"/>
  <path id="path17683" fill="#f7d64f" d="M 82.09 163.54 L 82.81 163.67 L 82.09 163.54 Z"/>
  <path id="path17685" fill="#f7d64f" d="M 121.71 163.18 L 121.70 163.69 C 121.52 163.43 121.53 163.26 121.71 163.18 Z"/>
  <path id="path17687" fill="#f7d64f" d="M 126.28 163.33 L 126.76 163.60 L 126.28 163.33 Z"/>
  <path id="path17689" fill="#f7d64f" d="M 68.70 163.88 L 68.34 164.58 L 68.70 163.88 Z"/>
  <path id="path17691" fill="#f7d64f" d="M 83.67 163.89 C 85.06 164.07 85.80 164.84 85.89 166.21 C 84.50 166.10 83.76 165.33 83.67 163.89 Z"/>
  <path id="path17693" fill="#f7d64f" d="M 116.07 164.46 L 115.21 164.57 L 116.07 164.46 Z"/>
  <path id="path17695" fill="#ffffff" d="M 116.07 164.46 L 116.98 164.57 L 117.73 164.70 L 118.63 164.91 C 118.76 166.34 119.52 167.10 120.91 167.21 L 121.09 168.02 C 120.81 169.13 120.85 170.22 121.21 171.30 L 120.68 172.12 L 120.27 172.67 C 118.03 175.31 115.64 175.82 112.76 173.70 L 112.30 173.25 C 109.69 169.37 110.72 165.99 115.21 164.57 L 116.07 164.46 Z"/>
  <path id="path17697" fill="#f7d64f" d="M 116.98 164.57 L 117.73 164.70 L 116.98 164.57 Z"/>
  <path id="path17699" fill="#f7d64f" d="M 70.71 165.30 L 70.58 166.03 L 70.71 165.30 Z"/>
  <path id="path17701" fill="#f7d64f" d="M 81.75 165.63 L 81.26 165.65 C 81.48 165.50 81.64 165.50 81.75 165.63 Z"/>
  <path id="path17703" fill="#f7d64f" d="M 118.63 164.91 C 120.03 165.06 120.79 165.82 120.91 167.21 C 119.52 167.10 118.76 166.34 118.63 164.91 Z"/>
  <path id="path17705" fill="#f7d64f" d="M 132.36 165.25 L 132.54 165.95 L 132.36 165.25 Z"/>
  <path id="path17707" fill="#822b45" d="M 81.26 165.65 L 81.75 165.63 C 83.89 167.09 84.14 167.50 83.68 170.11 L 83.18 170.75 C 82.43 171.07 81.65 171.32 80.86 171.49 L 80.20 171.30 L 78.81 170.11 C 79.13 169.02 79.13 167.97 78.81 166.95 C 79.61 166.49 80.43 166.05 81.26 165.65 Z"/>
  <path id="path17709" fill="#ffffff" d="M 92.26 167.28 L 92.61 167.81 C 93.11 168.90 93.60 169.99 94.09 171.09 C 94.29 171.71 94.48 171.67 94.69 170.96 C 95.08 169.48 95.44 168.02 96.13 166.64 L 96.84 166.66 C 97.23 167.40 97.59 168.15 97.92 168.90 C 97.03 169.35 96.79 170.07 97.19 171.08 C 97.03 172.73 96.88 174.42 96.55 176.05 L 95.90 176.55 L 95.11 176.55 L 94.41 176.15 C 93.75 175.06 93.12 173.96 92.52 172.84 L 92.25 172.38 C 90.95 169.08 91.17 174.12 90.56 175.08 L 90.03 175.60 C 87.43 176.44 88.51 174.80 87.90 173.07 C 88.89 172.73 89.23 172.02 88.92 170.94 C 89.18 168.22 88.25 163.57 92.26 167.28 Z"/>
  <path id="path17711" fill="#f7d64f" d="M 96.84 166.66 L 96.13 166.64 C 96.33 166.09 96.56 166.10 96.84 166.66 Z"/>
  <path id="path17713" fill="#f7d64f" d="M 105.02 166.96 C 103.93 167.21 102.87 167.08 101.84 166.57 C 102.96 165.47 104.35 165.32 105.02 166.96 Z"/>
  <path id="path17715" fill="#f7d64f" d="M 117.09 166.68 L 114.95 166.84 C 115.56 165.42 116.28 165.36 117.09 166.68 Z"/>
  <path id="path17717" fill="#f7d64f" d="M 127.13 166.49 L 127.69 166.76 L 127.13 166.49 Z"/>
  <path id="path17719" fill="#f7d64f" d="M 70.67 166.83 L 71.12 167.67 L 70.67 166.83 Z"/>
  <path id="path17721" fill="#f7d64f" d="M 78.81 166.95 C 79.13 167.97 79.13 169.02 78.81 170.11 C 77.52 169.31 77.22 167.60 78.81 166.95 Z"/>
  <path id="path17723" fill="#f7d64f" d="M 86.04 167.02 C 87.68 167.67 87.58 169.06 86.41 170.15 C 85.92 169.15 85.79 168.11 86.04 167.02 Z"/>
  <path id="path17725" fill="#f7d64f" d="M 92.26 167.28 L 92.61 167.81 L 92.26 167.28 Z"/>
  <path id="path17727" fill="#ffffff" d="M 101.84 166.57 C 102.87 167.08 103.93 167.21 105.02 166.96 L 106.94 166.94 C 107.15 168.16 107.86 168.86 109.07 169.04 C 109.03 170.62 108.96 172.21 108.86 173.80 C 107.51 173.91 106.78 174.68 106.68 176.12 L 105.83 176.36 L 105.19 176.53 C 103.51 176.93 102.32 177.14 100.83 176.09 C 101.39 174.70 101.10 173.66 99.96 172.97 C 100.27 170.63 99.20 167.76 101.84 166.57 Z"/>
  <path id="path17729" fill="#f7d64f" d="M 106.94 166.94 C 108.53 166.79 109.24 167.49 109.07 169.04 C 107.86 168.86 107.15 168.16 106.94 166.94 Z"/>
  <path id="path17731" fill="#822b45" d="M 114.95 166.84 L 117.09 166.68 C 118.34 168.19 119.33 168.96 118.69 171.10 L 118.18 171.74 C 117.42 172.07 116.64 172.33 115.84 172.53 L 115.08 172.28 L 113.76 170.81 L 113.45 169.94 L 113.50 169.09 L 113.77 168.34 L 114.95 166.84 Z"/>
  <path id="path17733" fill="#f7d64f" d="M 68.25 168.34 L 68.72 168.69 L 68.25 168.34 Z"/>
  <path id="path17735" fill="#f7d64f" d="M 71.82 168.36 L 72.29 169.09 L 71.82 168.36 Z"/>
  <path id="path17737" fill="#f7d64f" d="M 104.20 168.64 L 102.87 170.09 C 100.92 168.72 102.60 167.02 104.20 168.64 Z"/>
  <path id="path17739" fill="#f7d64f" d="M 113.77 168.34 L 113.50 169.09 L 113.77 168.34 Z"/>
  <path id="path17741" fill="#f7d64f" d="M 121.09 168.02 C 122.66 168.87 122.46 170.25 121.21 171.30 C 120.85 170.22 120.81 169.13 121.09 168.02 Z"/>
  <path id="path17743" fill="#f7d64f" d="M 130.31 168.27 L 131.07 168.48 L 130.31 168.27 Z"/>
  <path id="path17745" fill="#f7d64f" d="M 132.51 167.93 L 131.88 168.50 L 132.51 167.93 Z"/>
  <path id="path17747" fill="#f7d64f" d="M 97.92 168.90 C 98.50 169.81 98.25 170.54 97.19 171.08 C 96.79 170.07 97.03 169.35 97.92 168.90 Z"/>
  <path id="path17749" fill="#822b45" d="M 104.20 168.64 C 104.92 169.15 105.63 169.69 106.33 170.24 L 106.65 170.89 C 106.86 172.47 106.02 173.19 105.16 174.36 L 103.23 173.91 C 103.10 172.64 102.98 171.36 102.87 170.09 L 104.20 168.64 Z"/>
  <path id="path17751" fill="#f7d64f" d="M 127.19 169.26 L 127.22 169.83 L 127.19 169.26 Z"/>
  <path id="path17753" fill="#f7d64f" d="M 71.99 170.32 L 72.56 169.88 C 72.87 170.47 72.68 170.62 71.99 170.32 Z"/>
  <path id="path17755" fill="#f7d64f" d="M 83.68 170.11 L 83.18 170.75 L 83.68 170.11 Z"/>
  <path id="path17757" fill="#f7d64f" d="M 106.33 170.24 L 106.65 170.89 L 106.33 170.24 Z"/>
  <path id="path17759" fill="#f7d64f" d="M 113.45 169.94 L 113.76 170.81 L 113.45 169.94 Z"/>
  <path id="path17761" fill="#f7d64f" d="M 80.20 171.30 L 80.86 171.49 L 80.20 171.30 Z"/>
  <path id="path17763" fill="#f7d64f" d="M 88.92 170.94 C 89.23 172.02 88.89 172.73 87.90 173.07 C 87.57 172.04 87.91 171.33 88.92 170.94 Z"/>
  <path id="path17765" fill="#f7d64f" d="M 94.09 171.09 L 94.69 170.96 C 94.48 171.67 94.29 171.71 94.09 171.09 Z"/>
  <path id="path17767" fill="#f7d64f" d="M 118.69 171.10 L 118.18 171.74 L 118.69 171.10 Z"/>
  <path id="path17769" fill="#f7d64f" d="M 126.17 171.31 L 126.89 171.25 C 126.82 171.84 126.58 171.86 126.17 171.31 Z"/>
  <path id="path17771" fill="#f7d64f" d="M 77.42 172.24 L 78.05 172.81 L 77.42 172.24 Z"/>
  <path id="path17773" fill="#f7d64f" d="M 92.25 172.38 L 92.52 172.84 L 92.25 172.38 Z"/>
  <path id="path17775" fill="#f7d64f" d="M 115.08 172.28 L 115.84 172.53 L 115.08 172.28 Z"/>
  <path id="path17777" fill="#f7d64f" d="M 120.68 172.12 L 120.27 172.67 L 120.68 172.12 Z"/>
  <path id="path17779" fill="#f7d64f" d="M 78.90 173.30 L 79.78 173.57 L 78.90 173.30 Z"/>
  <path id="path17781" fill="#f7d64f" d="M 83.86 173.38 L 83.14 173.69 L 83.86 173.38 Z"/>
  <path id="path17783" fill="#f7d64f" d="M 99.96 172.97 C 101.10 173.66 101.39 174.70 100.83 176.09 C 99.79 175.66 99.50 174.62 99.96 172.97 Z"/>
  <path id="path17785" fill="#f7d64f" d="M 112.30 173.25 L 112.76 173.70 L 112.30 173.25 Z"/>
  <path id="path17787" fill="#f7d64f" d="M 103.23 173.91 L 105.16 174.36 C 104.09 175.67 103.44 175.52 103.23 173.91 Z"/>
  <path id="path17789" fill="#f7d64f" d="M 108.86 173.80 C 108.92 175.08 108.19 175.85 106.68 176.12 C 106.78 174.68 107.51 173.91 108.86 173.80 Z"/>
  <path id="path17791" fill="#f7d64f" d="M 90.56 175.08 L 90.03 175.60 L 90.56 175.08 Z"/>
  <path id="path17793" fill="#f7d64f" d="M 94.41 176.15 L 95.11 176.55 L 94.41 176.15 Z"/>
  <path id="path17795" fill="#f7d64f" d="M 96.55 176.05 L 95.90 176.55 L 96.55 176.05 Z"/>
  <path id="path17797" fill="#f7d64f" d="M 105.83 176.36 L 105.19 176.53 L 105.83 176.36 Z"/>
</svg>