<?xml version="1.0" encoding="UTF-8" standalone="no"?>
<!-- Created with Inkscape (http://www.inkscape.org/) -->
<svg xmlns:dc="http://purl.org/dc/elements/1.1/" xmlns:cc="http://creativecommons.org/ns#" xmlns:rdf="http://www.w3.org/1999/02/22-rdf-syntax-ns#" xmlns:svg="http://www.w3.org/2000/svg" xmlns="http://www.w3.org/2000/svg" xmlns:sodipodi="http://sodipodi.sourceforge.net/DTD/sodipodi-0.dtd" xmlns:inkscape="http://www.inkscape.org/namespaces/inkscape" width="646.49219" height="646.47345" id="svg2" version="1.1" inkscape:version="0.48.2 r9819" sodipodi:docname="Logo FC Metz.svg">
  <defs id="defs4">
    <clipPath id="clipPath6445" clipPathUnits="userSpaceOnUse">
      <path id="path6447" d="m 122.497,658.707 37.005,0 0,43.468 -37.005,0 0,-43.468 z" inkscape:connector-curvature="0"/>
    </clipPath>
    <clipPath id="clipPath6309" clipPathUnits="userSpaceOnUse">
      <path id="path6311" d="m 121.497,617.601 37.005,0 0,43.468 -37.005,0 0,-43.468 z" inkscape:connector-curvature="0"/>
    </clipPath>
    <clipPath id="clipPath6161" clipPathUnits="userSpaceOnUse">
      <path id="path6163" d="m 121.497,578.295 37.005,0 0,43.468 -37.005,0 0,-43.468 z" inkscape:connector-curvature="0"/>
    </clipPath>
    <clipPath id="clipPath6015" clipPathUnits="userSpaceOnUse">
      <path id="path6017" d="m 121.497,62.217 37.005,0 0,43.468 -37.005,0 0,-43.468 z" inkscape:connector-curvature="0"/>
    </clipPath>
    <clipPath id="clipPath5941" clipPathUnits="userSpaceOnUse">
      <path id="path5943" d="m 121.497,99.717 37.005,0 0,43.468 -37.005,0 0,-43.468 z" inkscape:connector-curvature="0"/>
    </clipPath>
    <linearGradient id="linearGradient5889" gradientTransform="matrix(-3.6692657,-4.280777,-24.963913,21.397858,152.31531,153.0379)" gradientUnits="userSpaceOnUse" y2="0" x2="0.98313999" y1="0" x1="0.5">
      <stop id="stop5891" offset="0" style="stop-opacity:1;stop-color:#ed1c24"/>
      <stop id="stop5893" offset="1" style="stop-opacity:1;stop-color:#bc151b"/>
    </linearGradient>
    <linearGradient id="linearGradient5879" gradientTransform="matrix(-3.6692657,-4.280777,-24.963913,21.397858,152.31531,153.0379)" gradientUnits="userSpaceOnUse" y2="0" x2="0.5" y1="0" x1="0">
      <stop id="stop5881" offset="0" style="stop-opacity:1;stop-color:#bc151b"/>
      <stop id="stop5883" offset="1" style="stop-opacity:1;stop-color:#ed1c24"/>
    </linearGradient>
    <clipPath id="clipPath5613" clipPathUnits="userSpaceOnUse">
      <path id="path5615" d="m 121.497,142.214 37.005,0 0,43.468 -37.005,0 0,-43.468 z" inkscape:connector-curvature="0"/>
    </clipPath>
    <clipPath id="clipPath5467" clipPathUnits="userSpaceOnUse">
      <path id="path5469" d="m 121.497,181.214 37.005,0 0,43.468 -37.005,0 0,-43.468 z" inkscape:connector-curvature="0"/>
    </clipPath>
    <clipPath id="clipPath5193" clipPathUnits="userSpaceOnUse">
      <path id="path5195" d="m 121.497,219.214 37.005,0 0,43.468 -37.005,0 0,-43.468 z" inkscape:connector-curvature="0"/>
    </clipPath>
    <clipPath id="clipPath4609" clipPathUnits="userSpaceOnUse">
      <path id="path4611" d="m 119.033,261.214 41.934,0 0,43.468 -41.934,0 0,-43.468 z" inkscape:connector-curvature="0"/>
    </clipPath>
    <clipPath id="clipPath4503" clipPathUnits="userSpaceOnUse">
      <path id="path4505" d="m 125.895,306.249 28.561,0 0,33.121 -28.561,0 0,-33.121 z" inkscape:connector-curvature="0"/>
    </clipPath>
    <clipPath id="clipPath4495" clipPathUnits="userSpaceOnUse">
      <path id="path4497" d="m 121.497,297.951 37.005,0 0,43.468 -37.005,0 0,-43.468 z" inkscape:connector-curvature="0"/>
    </clipPath>
    <clipPath id="clipPath4359" clipPathUnits="userSpaceOnUse">
      <path id="path4361" d="m 121.497,340.688 37.005,0 0,43.467 -37.005,0 0,-43.467 z" inkscape:connector-curvature="0"/>
    </clipPath>
    <clipPath id="clipPath3991" clipPathUnits="userSpaceOnUse">
      <path id="path3993" d="m 130.167,384.699 21.287,0 0,38.332 -21.287,0 0,-38.332 z" inkscape:connector-curvature="0"/>
    </clipPath>
    <clipPath id="clipPath3983" clipPathUnits="userSpaceOnUse">
      <path id="path3985" d="m 122.497,382.424 37.005,0 0,43.468 -37.005,0 0,-43.468 z" inkscape:connector-curvature="0"/>
    </clipPath>
    <clipPath id="clipPath3819" clipPathUnits="userSpaceOnUse">
      <path id="path3821" d="m 128.622,461.126 22.08,0 0,-36.11 -22.08,0 0,36.11" inkscape:connector-curvature="0"/>
    </clipPath>
    <clipPath id="clipPath3811" clipPathUnits="userSpaceOnUse">
      <path id="path3813" d="m 128.622,461.126 0,-35.995 22.167,0 0,35.995" inkscape:connector-curvature="0"/>
    </clipPath>
    <clipPath id="clipPath3803" clipPathUnits="userSpaceOnUse">
      <path id="path3805" d="m 121.497,418.161 37.005,0 0,43.468 -37.005,0 0,-43.468 z" inkscape:connector-curvature="0"/>
    </clipPath>
    <linearGradient id="linearGradient3751" gradientTransform="matrix(-3.6692657,-4.280777,-24.963913,21.397858,152.31531,470.72189)" gradientUnits="userSpaceOnUse" y2="0" x2="0.98313999" y1="0" x1="0.5">
      <stop id="stop3753" offset="0" style="stop-opacity:1;stop-color:#ed1c24"/>
      <stop id="stop3755" offset="1" style="stop-opacity:1;stop-color:#bc151b"/>
    </linearGradient>
    <linearGradient id="linearGradient3741" gradientTransform="matrix(-3.6692657,-4.280777,-24.963913,21.397858,152.31531,470.72189)" gradientUnits="userSpaceOnUse" y2="0" x2="0.5" y1="0" x1="0">
      <stop id="stop3743" offset="0" style="stop-opacity:1;stop-color:#bc151b"/>
      <stop id="stop3745" offset="1" style="stop-opacity:1;stop-color:#ed1c24"/>
    </linearGradient>
    <clipPath id="clipPath3475" clipPathUnits="userSpaceOnUse">
      <path id="path3477" d="m 121.497,459.898 37.005,0 0,43.468 -37.005,0 0,-43.468 z" inkscape:connector-curvature="0"/>
    </clipPath>
    <clipPath id="clipPath3329" clipPathUnits="userSpaceOnUse">
      <path id="path3331" d="m 121.497,495.601 37.005,0 0,43.468 -37.005,0 0,-43.468 z" inkscape:connector-curvature="0"/>
    </clipPath>
    <clipPath id="clipPath3193" clipPathUnits="userSpaceOnUse">
      <path id="path3195" d="m 121.497,537.252 37.005,0 0,43.468 -37.005,0 0,-43.468 z" inkscape:connector-curvature="0"/>
    </clipPath>
    <clipPath id="clipPath3007" clipPathUnits="userSpaceOnUse">
      <path id="path3009" d="m -659.623,792.028 1116.139,0 0,59.527 -1116.139,0 0,-59.527 z" inkscape:connector-curvature="0"/>
    </clipPath>
    <clipPath id="clipPath2999" clipPathUnits="userSpaceOnUse">
      <path id="path3001" d="m -36.81,787.556 505.373,0 0,64 -505.373,0 0,-64 z" inkscape:connector-curvature="0"/>
    </clipPath>
    <clipPath id="clipPath3983-9" clipPathUnits="userSpaceOnUse">
      <path inkscape:connector-curvature="0" id="path3985-4" d="m 122.497,382.424 37.005,0 0,43.468 -37.005,0 0,-43.468 z"/>
    </clipPath>
    <clipPath id="clipPath3991-8" clipPathUnits="userSpaceOnUse">
      <path inkscape:connector-curvature="0" id="path3993-8" d="m 130.167,384.699 21.287,0 0,38.332 -21.287,0 0,-38.332 z"/>
    </clipPath>
    <clipPath id="clipPath3803-2" clipPathUnits="userSpaceOnUse">
      <path inkscape:connector-curvature="0" id="path3805-4" d="m 121.497,418.161 37.005,0 0,43.468 -37.005,0 0,-43.468 z"/>
    </clipPath>
    <clipPath id="clipPath3811-5" clipPathUnits="userSpaceOnUse">
      <path inkscape:connector-curvature="0" id="path3813-5" d="m 128.622,461.126 0,-35.995 22.167,0 0,35.995"/>
    </clipPath>
    <clipPath id="clipPath3819-1" clipPathUnits="userSpaceOnUse">
      <path inkscape:connector-curvature="0" id="path3821-7" d="m 128.622,461.126 22.08,0 0,-36.11 -22.08,0 0,36.11"/>
    </clipPath>
    <clipPath id="clipPath5941-1" clipPathUnits="userSpaceOnUse">
      <path inkscape:connector-curvature="0" id="path5943-1" d="m 121.497,99.717 37.005,0 0,43.468 -37.005,0 0,-43.468 z"/>
    </clipPath>
    <clipPath id="clipPath5613-5" clipPathUnits="userSpaceOnUse">
      <path inkscape:connector-curvature="0" id="path5615-2" d="m 121.497,142.214 37.005,0 0,43.468 -37.005,0 0,-43.468 z"/>
    </clipPath>
    <linearGradient id="linearGradient5879-7" gradientTransform="matrix(-3.6692657,-4.280777,-24.963913,21.397858,152.31531,153.0379)" gradientUnits="userSpaceOnUse" y2="0" x2="0.5" y1="0" x1="0">
      <stop id="stop5881-6" offset="0" style="stop-opacity:1;stop-color:#bc151b"/>
      <stop id="stop5883-1" offset="1" style="stop-opacity:1;stop-color:#ed1c24"/>
    </linearGradient>
    <linearGradient id="linearGradient5889-4" gradientTransform="matrix(-3.6692657,-4.280777,-24.963913,21.397858,152.31531,153.0379)" gradientUnits="userSpaceOnUse" y2="0" x2="0.98313999" y1="0" x1="0.5">
      <stop id="stop5891-2" offset="0" style="stop-opacity:1;stop-color:#ed1c24"/>
      <stop id="stop5893-3" offset="1" style="stop-opacity:1;stop-color:#bc151b"/>
    </linearGradient>
    <clipPath id="clipPath4609-2" clipPathUnits="userSpaceOnUse">
      <path inkscape:connector-curvature="0" id="path4611-2" d="m 119.033,261.214 41.934,0 0,43.468 -41.934,0 0,-43.468 z"/>
    </clipPath>
    <clipPath id="clipPath4609-2-1" clipPathUnits="userSpaceOnUse">
      <path inkscape:connector-curvature="0" id="path4611-2-6" d="m 119.033,261.214 41.934,0 0,43.468 -41.934,0 0,-43.468 z"/>
    </clipPath>
    <clipPath id="clipPath5941-1-8" clipPathUnits="userSpaceOnUse">
      <path inkscape:connector-curvature="0" id="path5943-1-5" d="m 121.497,99.717 37.005,0 0,43.468 -37.005,0 0,-43.468 z"/>
    </clipPath>
    <clipPath id="clipPath3803-2-7" clipPathUnits="userSpaceOnUse">
      <path inkscape:connector-curvature="0" id="path3805-4-6" d="m 121.497,418.161 37.005,0 0,43.468 -37.005,0 0,-43.468 z"/>
    </clipPath>
    <clipPath id="clipPath3811-5-1" clipPathUnits="userSpaceOnUse">
      <path inkscape:connector-curvature="0" id="path3813-5-8" d="m 128.622,461.126 0,-35.995 22.167,0 0,35.995"/>
    </clipPath>
    <clipPath id="clipPath3819-1-9" clipPathUnits="userSpaceOnUse">
      <path inkscape:connector-curvature="0" id="path3821-7-2" d="m 128.622,461.126 22.08,0 0,-36.11 -22.08,0 0,36.11"/>
    </clipPath>
    <clipPath id="clipPath3983-9-7" clipPathUnits="userSpaceOnUse">
      <path inkscape:connector-curvature="0" id="path3985-4-9" d="m 122.497,382.424 37.005,0 0,43.468 -37.005,0 0,-43.468 z"/>
    </clipPath>
    <clipPath id="clipPath3991-8-5" clipPathUnits="userSpaceOnUse">
      <path inkscape:connector-curvature="0" id="path3993-8-4" d="m 130.167,384.699 21.287,0 0,38.332 -21.287,0 0,-38.332 z"/>
    </clipPath>
    <clipPath id="clipPath5613-5-3" clipPathUnits="userSpaceOnUse">
      <path inkscape:connector-curvature="0" id="path5615-2-1" d="m 121.497,142.214 37.005,0 0,43.468 -37.005,0 0,-43.468 z"/>
    </clipPath>
    <linearGradient id="linearGradient5879-7-2" gradientTransform="matrix(-3.6692657,-4.280777,-24.963913,21.397858,152.31531,153.0379)" gradientUnits="userSpaceOnUse" y2="0" x2="0.5" y1="0" x1="0">
      <stop id="stop5881-6-3" offset="0" style="stop-opacity:1;stop-color:#bc151b"/>
      <stop id="stop5883-1-3" offset="1" style="stop-opacity:1;stop-color:#ed1c24"/>
    </linearGradient>
    <linearGradient id="linearGradient5889-4-4" gradientTransform="matrix(-3.6692657,-4.280777,-24.963913,21.397858,152.31531,153.0379)" gradientUnits="userSpaceOnUse" y2="0" x2="0.98313999" y1="0" x1="0.5">
      <stop id="stop5891-2-1" offset="0" style="stop-opacity:1;stop-color:#ed1c24"/>
      <stop id="stop5893-3-1" offset="1" style="stop-opacity:1;stop-color:#bc151b"/>
    </linearGradient>
    <clipPath id="clipPath4609-2-1-3" clipPathUnits="userSpaceOnUse">
      <path inkscape:connector-curvature="0" id="path4611-2-6-8" d="m 119.033,261.214 41.934,0 0,43.468 -41.934,0 0,-43.468 z"/>
    </clipPath>
    <clipPath id="clipPath5941-1-8-7" clipPathUnits="userSpaceOnUse">
      <path inkscape:connector-curvature="0" id="path5943-1-5-4" d="m 121.497,99.717 37.005,0 0,43.468 -37.005,0 0,-43.468 z"/>
    </clipPath>
    <clipPath id="clipPath3983-9-7-2" clipPathUnits="userSpaceOnUse">
      <path inkscape:connector-curvature="0" id="path3985-4-9-7" d="m 122.497,382.424 37.005,0 0,43.468 -37.005,0 0,-43.468 z"/>
    </clipPath>
    <clipPath id="clipPath3991-8-5-7" clipPathUnits="userSpaceOnUse">
      <path inkscape:connector-curvature="0" id="path3993-8-4-9" d="m 130.167,384.699 21.287,0 0,38.332 -21.287,0 0,-38.332 z"/>
    </clipPath>
    <clipPath id="clipPath5613-5-3-3" clipPathUnits="userSpaceOnUse">
      <path inkscape:connector-curvature="0" id="path5615-2-1-1" d="m 121.497,142.214 37.005,0 0,43.468 -37.005,0 0,-43.468 z"/>
    </clipPath>
    <linearGradient id="linearGradient5879-7-2-9" gradientTransform="matrix(-3.6692657,-4.280777,-24.963913,21.397858,152.31531,153.0379)" gradientUnits="userSpaceOnUse" y2="0" x2="0.5" y1="0" x1="0">
      <stop id="stop5881-6-3-8" offset="0" style="stop-opacity:1;stop-color:#bc151b"/>
      <stop id="stop5883-1-3-6" offset="1" style="stop-opacity:1;stop-color:#ed1c24"/>
    </linearGradient>
    <linearGradient id="linearGradient5889-4-4-5" gradientTransform="matrix(-3.6692657,-4.280777,-24.963913,21.397858,152.31531,153.0379)" gradientUnits="userSpaceOnUse" y2="0" x2="0.98313999" y1="0" x1="0.5">
      <stop id="stop5891-2-1-0" offset="0" style="stop-opacity:1;stop-color:#ed1c24"/>
      <stop id="stop5893-3-1-2" offset="1" style="stop-opacity:1;stop-color:#bc151b"/>
    </linearGradient>
    <clipPath id="clipPath5941-1-8-7-8" clipPathUnits="userSpaceOnUse">
      <path inkscape:connector-curvature="0" id="path5943-1-5-4-6" d="m 121.497,99.717 37.005,0 0,43.468 -37.005,0 0,-43.468 z"/>
    </clipPath>
    <clipPath id="clipPath5613-5-3-3-0" clipPathUnits="userSpaceOnUse">
      <path inkscape:connector-curvature="0" id="path5615-2-1-1-2" d="m 121.497,142.214 37.005,0 0,43.468 -37.005,0 0,-43.468 z"/>
    </clipPath>
    <linearGradient id="linearGradient5879-7-2-9-4" gradientTransform="matrix(-3.6692657,-4.280777,-24.963913,21.397858,152.31531,153.0379)" gradientUnits="userSpaceOnUse" y2="0" x2="0.5" y1="0" x1="0">
      <stop id="stop5881-6-3-8-8" offset="0" style="stop-opacity:1;stop-color:#bc151b"/>
      <stop id="stop5883-1-3-6-6" offset="1" style="stop-opacity:1;stop-color:#ed1c24"/>
    </linearGradient>
    <linearGradient id="linearGradient5889-4-4-5-5" gradientTransform="matrix(-3.6692657,-4.280777,-24.963913,21.397858,152.31531,153.0379)" gradientUnits="userSpaceOnUse" y2="0" x2="0.98313999" y1="0" x1="0.5">
      <stop id="stop5891-2-1-0-0" offset="0" style="stop-opacity:1;stop-color:#ed1c24"/>
      <stop id="stop5893-3-1-2-9" offset="1" style="stop-opacity:1;stop-color:#bc151b"/>
    </linearGradient>
    <clipPath id="clipPath4609-2-1-3-0" clipPathUnits="userSpaceOnUse">
      <path inkscape:connector-curvature="0" id="path4611-2-6-8-0" d="m 119.033,261.214 41.934,0 0,43.468 -41.934,0 0,-43.468 z"/>
    </clipPath>
    <clipPath id="clipPath5941-1-8-7-8-6" clipPathUnits="userSpaceOnUse">
      <path inkscape:connector-curvature="0" id="path5943-1-5-4-6-1" d="m 121.497,99.717 37.005,0 0,43.468 -37.005,0 0,-43.468 z"/>
    </clipPath>
    <clipPath id="clipPath5613-5-3-3-0-3" clipPathUnits="userSpaceOnUse">
      <path inkscape:connector-curvature="0" id="path5615-2-1-1-2-8" d="m 121.497,142.214 37.005,0 0,43.468 -37.005,0 0,-43.468 z"/>
    </clipPath>
    <linearGradient id="linearGradient5879-7-2-9-4-9" gradientTransform="matrix(-3.6692657,-4.280777,-24.963913,21.397858,152.31531,153.0379)" gradientUnits="userSpaceOnUse" y2="0" x2="0.5" y1="0" x1="0">
      <stop id="stop5881-6-3-8-8-3" offset="0" style="stop-opacity:1;stop-color:#bc151b"/>
      <stop id="stop5883-1-3-6-6-4" offset="1" style="stop-opacity:1;stop-color:#ed1c24"/>
    </linearGradient>
    <linearGradient id="linearGradient5889-4-4-5-5-4" gradientTransform="matrix(-3.6692657,-4.280777,-24.963913,21.397858,152.31531,153.0379)" gradientUnits="userSpaceOnUse" y2="0" x2="0.98313999" y1="0" x1="0.5">
      <stop id="stop5891-2-1-0-0-6" offset="0" style="stop-opacity:1;stop-color:#ed1c24"/>
      <stop id="stop5893-3-1-2-9-0" offset="1" style="stop-opacity:1;stop-color:#bc151b"/>
    </linearGradient>
    <clipPath id="clipPath5613-5-3-3-0-3-6" clipPathUnits="userSpaceOnUse">
      <path inkscape:connector-curvature="0" id="path5615-2-1-1-2-8-6" d="m 121.497,142.214 37.005,0 0,43.468 -37.005,0 0,-43.468 z"/>
    </clipPath>
    <linearGradient id="linearGradient5879-7-2-9-4-9-1" gradientTransform="matrix(-3.6692657,-4.280777,-24.963913,21.397858,152.31531,153.0379)" gradientUnits="userSpaceOnUse" y2="0" x2="0.5" y1="0" x1="0">
      <stop id="stop5881-6-3-8-8-3-8" offset="0" style="stop-opacity:1;stop-color:#bc151b"/>
      <stop id="stop5883-1-3-6-6-4-4" offset="1" style="stop-opacity:1;stop-color:#ed1c24"/>
    </linearGradient>
    <linearGradient id="linearGradient5889-4-4-5-5-4-9" gradientTransform="matrix(-3.6692657,-4.280777,-24.963913,21.397858,152.31531,153.0379)" gradientUnits="userSpaceOnUse" y2="0" x2="0.98313999" y1="0" x1="0.5">
      <stop id="stop5891-2-1-0-0-6-6" offset="0" style="stop-opacity:1;stop-color:#ed1c24"/>
      <stop id="stop5893-3-1-2-9-0-3" offset="1" style="stop-opacity:1;stop-color:#bc151b"/>
    </linearGradient>
  </defs>
  <sodipodi:namedview id="base" pagecolor="#ffffff" bordercolor="#666666" borderopacity="1.0" inkscape:pageopacity="0.0" inkscape:pageshadow="2" inkscape:zoom="0.49497475" inkscape:cx="192.16232" inkscape:cy="615.99902" inkscape:document-units="px" inkscape:current-layer="g2993" showgrid="false" fit-margin-bottom="5" fit-margin-top="5" fit-margin-right="5" fit-margin-left="5" inkscape:window-width="1304" inkscape:window-height="746" inkscape:window-x="54" inkscape:window-y="-8" inkscape:window-maximized="1"/>
  <metadata id="metadata7">
    <rdf:RDF>
      <cc:Work rdf:about="">
        <dc:format>image/svg+xml</dc:format>
        <dc:type rdf:resource="http://purl.org/dc/dcmitype/StillImage"/>
        <dc:title/>
      </cc:Work>
    </rdf:RDF>
  </metadata>
  <g inkscape:label="Calque 1" inkscape:groupmode="layer" id="layer1" transform="translate(-563.94528,-336.27101)">
    <g transform="matrix(1.25,0,0,-1.25,54.504313,1087.2455)" inkscape:label="ancien sochaux" id="g2993">
      <g transform="matrix(14.974525,0,0,14.974525,3235.8298,-3874.9496)" id="g5609">
        <g transform="translate(-312.12015,116.97064)" clip-path="url(#clipPath5613-5-3-3-0-3-6)" id="g5611">
          <g transform="translate(140.5167,147.6488)" id="g5617">
            <path id="path5619" style="fill:#ffffff;fill-opacity:1;fill-rule:evenodd;stroke:none" d="m 0,0 c -9.364,0 -17.002,7.637 -17.002,17.001 0,9.365 7.638,17.002 17.002,17.002 9.364,0 17.002,-7.637 17.002,-17.002 C 17.002,7.637 9.364,0 0,0" inkscape:connector-curvature="0"/>
          </g>
          <g transform="translate(140.5158,148.5808)" id="g5621">
            <path id="path5623" style="fill:#00adef;fill-opacity:1;fill-rule:evenodd;stroke:none" d="m 0,0 c -8.849,0 -16.066,7.217 -16.066,16.066 0,8.849 7.217,16.066 16.066,16.066 8.849,0 16.066,-7.217 16.066,-16.066 C 16.066,7.217 8.849,0 0,0" inkscape:connector-curvature="0"/>
          </g>
          <g transform="translate(140.5158,148.5808)" id="g5625">
            <path id="path5627" style="fill:none;stroke:#ffffff;stroke-width:0.19400001;stroke-linecap:butt;stroke-linejoin:miter;stroke-miterlimit:2.61299992;stroke-opacity:1;stroke-dasharray:none" d="m 0,0 c -8.849,0 -16.066,7.217 -16.066,16.066 0,8.849 7.217,16.066 16.066,16.066 8.849,0 16.066,-7.217 16.066,-16.066 C 16.066,7.217 8.849,0 0,0 z" inkscape:connector-curvature="0"/>
          </g>
          <g transform="translate(132.7732,175.041)" id="g5629">
            <path id="path5631" style="fill:#ffffff;fill-opacity:1;fill-rule:evenodd;stroke:none" d="m 0,0 -0.733,0.377 -0.222,-0.158 0.425,-0.597 -0.308,-0.219 -1.065,1.495 0.618,0.441 c 0.321,0.229 0.66,0.157 0.838,-0.093 0.15,-0.21 0.108,-0.437 -0.008,-0.598 L 0.357,0.254 0,0 m -1.119,1.064 -0.291,-0.207 0.282,-0.394 0.29,0.206 c 0.135,0.097 0.165,0.242 0.083,0.357 -0.082,0.116 -0.229,0.135 -0.364,0.038" inkscape:connector-curvature="0"/>
          </g>
          <g transform="translate(132.7732,175.041)" id="g5633">
            <path id="path5635" style="fill:none;stroke:#ffffff;stroke-width:0.02;stroke-linecap:butt;stroke-linejoin:miter;stroke-miterlimit:2.61299992;stroke-opacity:1;stroke-dasharray:none" d="m 0,0 -0.733,0.377 -0.222,-0.158 0.425,-0.597 -0.308,-0.219 -1.065,1.495 0.618,0.441 c 0.321,0.229 0.66,0.157 0.838,-0.093 0.15,-0.21 0.108,-0.437 -0.008,-0.598 L 0.357,0.254 0,0 m -1.119,1.064 -0.291,-0.207 0.282,-0.394 0.29,0.206 c 0.135,0.097 0.165,0.242 0.083,0.357 -0.082,0.116 -0.229,0.135 -0.364,0.038 z" inkscape:connector-curvature="0"/>
          </g>
          <g transform="translate(134.3013,175.9308)" id="g5637">
            <path id="path5639" style="fill:#ffffff;fill-opacity:1;fill-rule:evenodd;stroke:none" d="M 0,0 -0.255,0.232 -0.861,-0.094 -0.81,-0.436 -1.158,-0.623 -1.407,1.328 -1.145,1.469 0.348,0.187 0,0 M -1.011,0.926 -0.91,0.222 -0.486,0.45" inkscape:connector-curvature="0"/>
          </g>
          <g transform="translate(134.3013,175.9308)" id="g5641">
            <path id="path5643" style="fill:none;stroke:#ffffff;stroke-width:0.02;stroke-linecap:butt;stroke-linejoin:miter;stroke-miterlimit:2.61299992;stroke-opacity:1;stroke-dasharray:none" d="M 0,0 -0.255,0.232 -0.861,-0.094 -0.81,-0.436 -1.158,-0.623 -1.407,1.328 -1.145,1.469 0.348,0.187 0,0 M -1.011,0.926 -0.91,0.222 -0.486,0.45 -1.011,0.926 z" inkscape:connector-curvature="0"/>
          </g>
          <g transform="translate(135.3831,176.3814)" id="g5645">
            <path id="path5647" style="fill:#ffffff;fill-opacity:1;fill-rule:evenodd;stroke:none" d="m 0,0 c -0.198,-0.077 -0.386,-0.073 -0.56,-0.003 -0.25,0.102 -0.329,0.317 -0.444,0.613 -0.116,0.295 -0.204,0.507 -0.089,0.751 0.079,0.17 0.215,0.3 0.413,0.378 0.337,0.132 0.672,0.052 0.875,-0.281 L -0.162,1.318 C -0.251,1.441 -0.384,1.511 -0.561,1.442 -0.657,1.404 -0.723,1.34 -0.752,1.265 c -0.04,-0.099 -0.028,-0.189 0.1,-0.517 0.129,-0.33 0.181,-0.403 0.278,-0.449 0.072,-0.035 0.164,-0.038 0.26,0 C 0.063,0.368 0.113,0.51 0.095,0.66 L 0.453,0.8 C 0.529,0.417 0.335,0.131 0,0" inkscape:connector-curvature="0"/>
          </g>
          <g transform="translate(135.3831,176.3814)" id="g5649">
            <path id="path5651" style="fill:none;stroke:#ffffff;stroke-width:0.02;stroke-linecap:butt;stroke-linejoin:miter;stroke-miterlimit:2.61299992;stroke-opacity:1;stroke-dasharray:none" d="m 0,0 c -0.198,-0.077 -0.386,-0.073 -0.56,-0.003 -0.25,0.102 -0.329,0.317 -0.444,0.613 -0.116,0.295 -0.204,0.507 -0.089,0.751 0.079,0.17 0.215,0.3 0.413,0.378 0.337,0.132 0.672,0.052 0.875,-0.281 L -0.162,1.318 C -0.251,1.441 -0.384,1.511 -0.561,1.442 -0.657,1.404 -0.723,1.34 -0.752,1.265 c -0.04,-0.099 -0.028,-0.189 0.1,-0.517 0.129,-0.33 0.181,-0.403 0.278,-0.449 0.072,-0.035 0.164,-0.038 0.26,0 C 0.063,0.368 0.113,0.51 0.095,0.66 L 0.453,0.8 C 0.529,0.417 0.335,0.131 0,0 z" inkscape:connector-curvature="0"/>
          </g>
          <g transform="translate(136.2943,176.7151)" id="g5653">
            <path id="path5655" style="fill:#ffffff;fill-opacity:1;fill-rule:evenodd;stroke:none" d="M 0,0 -0.513,1.763 -0.15,1.869 0.363,0.106" inkscape:connector-curvature="0"/>
          </g>
          <g transform="translate(136.2943,176.7151)" id="g5657">
            <path id="path5659" style="fill:none;stroke:#ffffff;stroke-width:0.02;stroke-linecap:butt;stroke-linejoin:miter;stroke-miterlimit:2.61299992;stroke-opacity:1;stroke-dasharray:none" d="M 0,0 -0.513,1.763 -0.15,1.869 0.363,0.106 0,0 z" inkscape:connector-curvature="0"/>
          </g>
          <g transform="translate(138.1491,177.1461)" id="g5661">
            <path id="path5663" style="fill:#ffffff;fill-opacity:1;fill-rule:evenodd;stroke:none" d="m 0,0 -0.961,0.967 0.207,-1.108 -0.372,-0.069 -0.337,1.805 0.331,0.061 0.961,-0.964 -0.206,1.105 0.372,0.07 0.337,-1.805" inkscape:connector-curvature="0"/>
          </g>
          <g transform="translate(138.1491,177.1461)" id="g5665">
            <path id="path5667" style="fill:none;stroke:#ffffff;stroke-width:0.02;stroke-linecap:butt;stroke-linejoin:miter;stroke-miterlimit:2.61299992;stroke-opacity:1;stroke-dasharray:none" d="m 0,0 -0.961,0.967 0.207,-1.108 -0.372,-0.069 -0.337,1.805 0.331,0.061 0.961,-0.964 -0.206,1.105 0.372,0.07 L 0.332,0.062 0,0 z" inkscape:connector-curvature="0"/>
          </g>
          <g transform="translate(140.0269,177.5019)" id="g5669">
            <path id="path5671" style="fill:#ffffff;fill-opacity:1;fill-rule:evenodd;stroke:none" d="m 0,0 c -0.147,-0.16 -0.329,-0.227 -0.535,-0.238 -0.212,-0.011 -0.39,0.052 -0.533,0.174 -0.205,0.175 -0.212,0.404 -0.229,0.721 -0.016,0.317 -0.034,0.546 0.152,0.741 0.129,0.136 0.294,0.217 0.511,0.229 0.448,0.024 0.691,-0.243 0.76,-0.549 L -0.255,1.058 C -0.308,1.228 -0.424,1.318 -0.617,1.307 -0.72,1.302 -0.803,1.259 -0.854,1.197 -0.923,1.116 -0.938,1.03 -0.919,0.677 -0.9,0.324 -0.877,0.238 -0.799,0.164 c 0.057,-0.056 0.144,-0.088 0.247,-0.082 0.114,0.006 0.204,0.049 0.264,0.117 0.058,0.07 0.078,0.154 0.073,0.249 L -0.218,0.518 -0.574,0.499 -0.59,0.798 0.141,0.836 0.155,0.568 C 0.169,0.303 0.129,0.141 0,0" inkscape:connector-curvature="0"/>
          </g>
          <g transform="translate(140.0269,177.5019)" id="g5673">
            <path id="path5675" style="fill:none;stroke:#ffffff;stroke-width:0.02;stroke-linecap:butt;stroke-linejoin:miter;stroke-miterlimit:2.61299992;stroke-opacity:1;stroke-dasharray:none" d="m 0,0 c -0.147,-0.16 -0.329,-0.227 -0.535,-0.238 -0.212,-0.011 -0.39,0.052 -0.533,0.174 -0.205,0.175 -0.212,0.404 -0.229,0.721 -0.016,0.317 -0.034,0.546 0.152,0.741 0.129,0.136 0.294,0.217 0.511,0.229 0.448,0.024 0.691,-0.243 0.76,-0.549 L -0.255,1.058 C -0.308,1.228 -0.424,1.318 -0.617,1.307 -0.72,1.302 -0.803,1.259 -0.854,1.197 -0.923,1.116 -0.938,1.03 -0.919,0.677 -0.9,0.324 -0.877,0.238 -0.799,0.164 c 0.057,-0.056 0.144,-0.088 0.247,-0.082 0.114,0.006 0.204,0.049 0.264,0.117 0.058,0.07 0.078,0.154 0.073,0.249 L -0.218,0.518 -0.574,0.499 -0.59,0.798 0.141,0.836 0.155,0.568 C 0.169,0.303 0.129,0.141 0,0 z" inkscape:connector-curvature="0"/>
          </g>
          <g transform="translate(141.7507,177.1944)" id="g5677">
            <path id="path5679" style="fill:#ffffff;fill-opacity:1;fill-rule:evenodd;stroke:none" d="M 0,0 C -0.211,0.024 -0.376,0.115 -0.497,0.259 -0.67,0.465 -0.639,0.693 -0.603,1.008 -0.567,1.323 -0.547,1.552 -0.331,1.714 -0.181,1.827 0,1.879 0.211,1.855 0.571,1.814 0.83,1.587 0.854,1.198 L 0.473,1.241 C 0.452,1.392 0.367,1.515 0.178,1.537 0.075,1.549 -0.013,1.522 -0.074,1.469 -0.156,1.401 -0.187,1.316 -0.227,0.965 -0.267,0.614 -0.255,0.525 -0.191,0.439 -0.144,0.374 -0.064,0.329 0.039,0.317 0.228,0.296 0.338,0.397 0.393,0.539 L 0.774,0.496 C 0.663,0.122 0.357,-0.041 0,0" inkscape:connector-curvature="0"/>
          </g>
          <g transform="translate(141.7507,177.1944)" id="g5681">
            <path id="path5683" style="fill:none;stroke:#ffffff;stroke-width:0.02;stroke-linecap:butt;stroke-linejoin:miter;stroke-miterlimit:2.61299992;stroke-opacity:1;stroke-dasharray:none" d="M 0,0 C -0.211,0.024 -0.376,0.115 -0.497,0.259 -0.67,0.465 -0.639,0.693 -0.603,1.008 -0.567,1.323 -0.547,1.552 -0.331,1.714 -0.181,1.827 0,1.879 0.211,1.855 0.571,1.814 0.83,1.587 0.854,1.198 L 0.473,1.241 C 0.452,1.392 0.367,1.515 0.178,1.537 0.075,1.549 -0.013,1.522 -0.074,1.469 -0.156,1.401 -0.187,1.316 -0.227,0.965 -0.267,0.614 -0.255,0.525 -0.191,0.439 -0.144,0.374 -0.064,0.329 0.039,0.317 0.228,0.296 0.338,0.397 0.393,0.539 L 0.774,0.496 C 0.663,0.122 0.357,-0.041 0,0 z" inkscape:connector-curvature="0"/>
          </g>
          <g transform="translate(142.7027,177.0762)" id="g5685">
            <path id="path5687" style="fill:#ffffff;fill-opacity:1;fill-rule:evenodd;stroke:none" d="M 0,0 0.417,1.788 0.785,1.702 0.441,0.225 1.297,0.026 1.225,-0.286" inkscape:connector-curvature="0"/>
          </g>
          <g transform="translate(142.7027,177.0762)" id="g5689">
            <path id="path5691" style="fill:none;stroke:#ffffff;stroke-width:0.02;stroke-linecap:butt;stroke-linejoin:miter;stroke-miterlimit:2.61299992;stroke-opacity:1;stroke-dasharray:none" d="M 0,0 0.417,1.788 0.785,1.702 0.441,0.225 1.297,0.026 1.225,-0.286 0,0 z" inkscape:connector-curvature="0"/>
          </g>
          <g transform="translate(144.7502,176.487)" id="g5693">
            <path id="path5695" style="fill:#ffffff;fill-opacity:1;fill-rule:evenodd;stroke:none" d="M 0,0 C -0.374,0.135 -0.583,0.483 -0.45,0.849 L -0.039,1.984 0.317,1.855 -0.09,0.732 C -0.163,0.533 -0.083,0.37 0.109,0.301 0.301,0.231 0.469,0.304 0.542,0.503 L 0.949,1.625 1.302,1.497 0.89,0.363 C 0.757,-0.003 0.374,-0.136 0,0" inkscape:connector-curvature="0"/>
          </g>
          <g transform="translate(144.7502,176.487)" id="g5697">
            <path id="path5699" style="fill:none;stroke:#ffffff;stroke-width:0.02;stroke-linecap:butt;stroke-linejoin:miter;stroke-miterlimit:2.61299992;stroke-opacity:1;stroke-dasharray:none" d="M 0,0 C -0.374,0.135 -0.583,0.483 -0.45,0.849 L -0.039,1.984 0.317,1.855 -0.09,0.732 C -0.163,0.533 -0.083,0.37 0.109,0.301 0.301,0.231 0.469,0.304 0.542,0.503 L 0.949,1.625 1.302,1.497 0.89,0.363 C 0.757,-0.003 0.374,-0.136 0,0 z" inkscape:connector-curvature="0"/>
          </g>
          <g transform="translate(146.4516,175.7473)" id="g5701">
            <path id="path5703" style="fill:#ffffff;fill-opacity:1;fill-rule:evenodd;stroke:none" d="M 0,0 -0.72,0.374 0.126,2.003 0.817,1.645 C 1.153,1.47 1.256,1.19 1.111,0.911 1.017,0.73 0.831,0.679 0.723,0.685 0.804,0.585 0.883,0.413 0.77,0.196 0.612,-0.109 0.307,-0.159 0,0 M 0.321,0.702 -0.029,0.884 -0.237,0.483 0.113,0.301 C 0.266,0.222 0.386,0.276 0.443,0.386 0.5,0.496 0.473,0.623 0.321,0.702 M 0.643,1.374 0.315,1.545 0.12,1.17 0.448,0.999 C 0.591,0.925 0.71,0.959 0.768,1.072 0.826,1.184 0.786,1.301 0.643,1.374" inkscape:connector-curvature="0"/>
          </g>
          <g transform="translate(146.4516,175.7473)" id="g5705">
            <path id="path5707" style="fill:none;stroke:#ffffff;stroke-width:0.02;stroke-linecap:butt;stroke-linejoin:miter;stroke-miterlimit:2.61299992;stroke-opacity:1;stroke-dasharray:none" d="M 0,0 -0.72,0.374 0.126,2.003 0.817,1.645 C 1.153,1.47 1.256,1.19 1.111,0.911 1.017,0.73 0.831,0.679 0.723,0.685 0.804,0.585 0.883,0.413 0.77,0.196 0.612,-0.109 0.307,-0.159 0,0 M 0.321,0.702 -0.029,0.884 -0.237,0.483 0.113,0.301 C 0.266,0.222 0.386,0.276 0.443,0.386 0.5,0.496 0.473,0.623 0.321,0.702 M 0.643,1.374 0.315,1.545 0.12,1.17 0.448,0.999 C 0.591,0.925 0.71,0.959 0.768,1.072 0.826,1.184 0.786,1.301 0.643,1.374 z" inkscape:connector-curvature="0"/>
          </g>
          <g transform="translate(148.7898,174.3946)" id="g5709">
            <path id="path5711" style="fill:#ffffff;fill-opacity:1;fill-rule:evenodd;stroke:none" d="M 0,0 C -0.175,-0.018 -0.353,0.05 -0.512,0.173 L -1.067,0.599 0.051,2.055 0.606,1.629 C 0.766,1.506 0.877,1.352 0.905,1.178 0.952,0.882 0.781,0.694 0.613,0.476 0.444,0.257 0.298,0.031 0,0 M 0.538,1.134 C 0.532,1.233 0.487,1.317 0.383,1.397 L 0.157,1.571 -0.572,0.622 -0.346,0.448 c 0.104,-0.08 0.196,-0.102 0.294,-0.083 0.106,0.023 0.195,0.12 0.365,0.341 0.169,0.221 0.231,0.32 0.225,0.428" inkscape:connector-curvature="0"/>
          </g>
          <g transform="translate(148.7898,174.3946)" id="g5713">
            <path id="path5715" style="fill:none;stroke:#ffffff;stroke-width:0.02;stroke-linecap:butt;stroke-linejoin:miter;stroke-miterlimit:2.61299992;stroke-opacity:1;stroke-dasharray:none" d="M 0,0 C -0.175,-0.018 -0.353,0.05 -0.512,0.173 L -1.067,0.599 0.051,2.055 0.606,1.629 C 0.766,1.506 0.877,1.352 0.905,1.178 0.952,0.882 0.781,0.694 0.613,0.476 0.444,0.257 0.298,0.031 0,0 M 0.538,1.134 C 0.532,1.233 0.487,1.317 0.383,1.397 L 0.157,1.571 -0.572,0.622 -0.346,0.448 c 0.104,-0.08 0.196,-0.102 0.294,-0.083 0.106,0.023 0.195,0.12 0.365,0.341 0.169,0.221 0.231,0.32 0.225,0.428 z" inkscape:connector-curvature="0"/>
          </g>
          <g transform="translate(149.0598,173.9309)" id="g5717">
            <path id="path5719" style="fill:#ffffff;fill-opacity:1;fill-rule:evenodd;stroke:none" d="M 0,0 1.292,1.304 2.199,0.406 1.974,0.179 1.336,0.811 1.033,0.505 1.576,-0.033 1.351,-0.26 0.808,0.278 0.494,-0.039 1.132,-0.671 0.907,-0.898" inkscape:connector-curvature="0"/>
          </g>
          <g transform="translate(149.0598,173.9309)" id="g5721">
            <path id="path5723" style="fill:none;stroke:#ffffff;stroke-width:0.02;stroke-linecap:butt;stroke-linejoin:miter;stroke-miterlimit:2.61299992;stroke-opacity:1;stroke-dasharray:none" d="M 0,0 1.292,1.304 2.199,0.406 1.974,0.179 1.336,0.811 1.033,0.505 1.576,-0.033 1.351,-0.26 0.808,0.278 0.494,-0.039 1.132,-0.671 0.907,-0.898 0,0 z" inkscape:connector-curvature="0"/>
          </g>
          <g transform="translate(150.831,171.9216)" id="g5725">
            <path id="path5727" style="fill:#ffffff;fill-opacity:1;fill-rule:evenodd;stroke:none" d="M 0,0 C -0.173,0.238 -0.256,0.453 -0.219,0.715 L 0.112,0.653 C 0.09,0.486 0.157,0.329 0.262,0.183 0.393,0.003 0.528,-0.047 0.647,0.039 0.699,0.077 0.732,0.124 0.737,0.179 0.742,0.229 0.731,0.275 0.689,0.355 L 0.576,0.563 C 0.498,0.711 0.465,0.839 0.479,0.956 0.495,1.083 0.564,1.19 0.689,1.281 0.954,1.473 1.29,1.401 1.536,1.062 1.693,0.846 1.757,0.653 1.731,0.429 L 1.409,0.491 C 1.427,0.656 1.353,0.784 1.278,0.887 1.16,1.05 1.016,1.067 0.914,0.993 0.877,0.966 0.846,0.924 0.841,0.87 0.836,0.819 0.85,0.752 0.888,0.682 L 0.997,0.479 C 1.083,0.322 1.111,0.204 1.1,0.096 1.086,-0.042 1.004,-0.159 0.873,-0.254 0.585,-0.463 0.238,-0.328 0,0" inkscape:connector-curvature="0"/>
          </g>
          <g transform="translate(150.831,171.9216)" id="g5729">
            <path id="path5731" style="fill:none;stroke:#ffffff;stroke-width:0.02;stroke-linecap:butt;stroke-linejoin:miter;stroke-miterlimit:2.61299992;stroke-opacity:1;stroke-dasharray:none" d="M 0,0 C -0.173,0.238 -0.256,0.453 -0.219,0.715 L 0.112,0.653 C 0.09,0.486 0.157,0.329 0.262,0.183 0.393,0.003 0.528,-0.047 0.647,0.039 0.699,0.077 0.732,0.124 0.737,0.179 0.742,0.229 0.731,0.275 0.689,0.355 L 0.576,0.563 C 0.498,0.711 0.465,0.839 0.479,0.956 0.495,1.083 0.564,1.19 0.689,1.281 0.954,1.473 1.29,1.401 1.536,1.062 1.693,0.846 1.757,0.653 1.731,0.429 L 1.409,0.491 C 1.427,0.656 1.353,0.784 1.278,0.887 1.16,1.05 1.016,1.067 0.914,0.993 0.877,0.966 0.846,0.924 0.841,0.87 0.836,0.819 0.85,0.752 0.888,0.682 L 0.997,0.479 C 1.083,0.322 1.111,0.204 1.1,0.096 1.086,-0.042 1.004,-0.159 0.873,-0.254 0.585,-0.463 0.238,-0.328 0,0 z" inkscape:connector-curvature="0"/>
          </g>
          <g transform="translate(153.0944,171.2105)" id="g5733">
            <path id="path5735" style="fill:#ffffff;fill-opacity:1;fill-rule:evenodd;stroke:none" d="m 0,0 -1.321,-0.744 -0.186,0.33 1.321,0.744 -0.248,0.441 0.279,0.157 0.682,-1.212 -0.279,-0.157" inkscape:connector-curvature="0"/>
          </g>
          <g transform="translate(153.0944,171.2105)" id="g5737">
            <path id="path5739" style="fill:none;stroke:#ffffff;stroke-width:0.02;stroke-linecap:butt;stroke-linejoin:miter;stroke-miterlimit:2.61299992;stroke-opacity:1;stroke-dasharray:none" d="m 0,0 -1.321,-0.744 -0.186,0.33 1.321,0.744 -0.248,0.441 0.279,0.157 L 0.527,-0.284 0.248,-0.441 0,0 z" inkscape:connector-curvature="0"/>
          </g>
          <g transform="translate(152.5104,168.8694)" id="g5741">
            <path id="path5743" style="fill:#ffffff;fill-opacity:1;fill-rule:evenodd;stroke:none" d="M 0,0 0.533,0.629 0.43,0.88 -0.248,0.602 -0.392,0.951 1.306,1.65 1.595,0.948 C 1.745,0.583 1.599,0.27 1.315,0.153 1.076,0.055 0.865,0.147 0.734,0.296 L 0.167,-0.405 0,0 M 1.29,0.849 1.154,1.179 0.706,0.994 0.842,0.665 C 0.905,0.511 1.04,0.449 1.171,0.503 1.302,0.557 1.354,0.696 1.29,0.849" inkscape:connector-curvature="0"/>
          </g>
          <g transform="translate(152.5104,168.8694)" id="g5745">
            <path id="path5747" style="fill:none;stroke:#ffffff;stroke-width:0.02;stroke-linecap:butt;stroke-linejoin:miter;stroke-miterlimit:2.61299992;stroke-opacity:1;stroke-dasharray:none" d="M 0,0 0.533,0.629 0.43,0.88 -0.248,0.602 -0.392,0.951 1.306,1.65 1.595,0.948 C 1.745,0.583 1.599,0.27 1.315,0.153 1.076,0.055 0.865,0.147 0.734,0.296 L 0.167,-0.405 0,0 M 1.29,0.849 1.154,1.179 0.706,0.994 0.842,0.665 C 0.905,0.511 1.04,0.449 1.171,0.503 1.302,0.557 1.354,0.696 1.29,0.849 z" inkscape:connector-curvature="0"/>
          </g>
          <g transform="translate(153.0265,167.1798)" id="g5749">
            <path id="path5751" style="fill:#ffffff;fill-opacity:1;fill-rule:evenodd;stroke:none" d="M 0,0 0.284,0.195 0.105,0.86 -0.239,0.889 -0.341,1.27 1.615,1.065 1.692,0.778 0.102,-0.381 0,0 M 1.133,0.772 0.424,0.835 0.549,0.37" inkscape:connector-curvature="0"/>
          </g>
          <g transform="translate(153.0265,167.1798)" id="g5753">
            <path id="path5755" style="fill:none;stroke:#ffffff;stroke-width:0.02;stroke-linecap:butt;stroke-linejoin:miter;stroke-miterlimit:2.61299992;stroke-opacity:1;stroke-dasharray:none" d="M 0,0 0.284,0.195 0.105,0.86 -0.239,0.889 -0.341,1.27 1.615,1.065 1.692,0.778 0.102,-0.381 0,0 M 1.133,0.772 0.424,0.835 0.549,0.37 1.133,0.772 z" inkscape:connector-curvature="0"/>
          </g>
          <g transform="translate(153.2037,166.1101)" id="g5757">
            <path id="path5759" style="fill:#ffffff;fill-opacity:1;fill-rule:evenodd;stroke:none" d="M 0,0 C -0.042,0.291 -0.014,0.52 0.14,0.735 L 0.405,0.525 C 0.307,0.387 0.292,0.217 0.317,0.04 0.349,-0.181 0.445,-0.289 0.59,-0.268 c 0.064,0.009 0.115,0.036 0.145,0.081 0.028,0.042 0.039,0.088 0.04,0.179 L 0.772,0.228 c 0,0.168 0.031,0.296 0.098,0.393 C 0.944,0.725 1.055,0.788 1.208,0.81 1.532,0.856 1.795,0.635 1.854,0.22 1.892,-0.044 1.858,-0.244 1.731,-0.43 L 1.475,-0.225 C 1.567,-0.088 1.562,0.06 1.544,0.187 1.516,0.386 1.397,0.468 1.272,0.45 1.226,0.444 1.18,0.421 1.15,0.375 1.122,0.333 1.103,0.267 1.104,0.187 L 1.105,-0.044 C 1.107,-0.222 1.077,-0.339 1.017,-0.43 0.939,-0.545 0.813,-0.61 0.652,-0.633 0.3,-0.683 0.057,-0.402 0,0" inkscape:connector-curvature="0"/>
          </g>
          <g transform="translate(153.2037,166.1101)" id="g5761">
            <path id="path5763" style="fill:none;stroke:#ffffff;stroke-width:0.02;stroke-linecap:butt;stroke-linejoin:miter;stroke-miterlimit:2.61299992;stroke-opacity:1;stroke-dasharray:none" d="M 0,0 C -0.042,0.291 -0.014,0.52 0.14,0.735 L 0.405,0.525 C 0.307,0.387 0.292,0.217 0.317,0.04 0.349,-0.181 0.445,-0.289 0.59,-0.268 c 0.064,0.009 0.115,0.036 0.145,0.081 0.028,0.042 0.039,0.088 0.04,0.179 L 0.772,0.228 c 0,0.168 0.031,0.296 0.098,0.393 C 0.944,0.725 1.055,0.788 1.208,0.81 1.532,0.856 1.795,0.635 1.854,0.22 1.892,-0.044 1.858,-0.244 1.731,-0.43 L 1.475,-0.225 C 1.567,-0.088 1.562,0.06 1.544,0.187 1.516,0.386 1.397,0.468 1.272,0.45 1.226,0.444 1.18,0.421 1.15,0.375 1.122,0.333 1.103,0.267 1.104,0.187 L 1.105,-0.044 C 1.107,-0.222 1.077,-0.339 1.017,-0.43 0.939,-0.545 0.813,-0.61 0.652,-0.633 0.3,-0.683 0.057,-0.402 0,0 z" inkscape:connector-curvature="0"/>
          </g>
          <g transform="translate(153.3575,164.3158)" id="g5765">
            <path id="path5767" style="fill:#ffffff;fill-opacity:1;fill-rule:evenodd;stroke:none" d="M 0,0 -0.016,0.811 1.82,0.846 1.835,0.068 C 1.842,-0.31 1.646,-0.534 1.331,-0.54 1.127,-0.544 0.993,-0.405 0.947,-0.308 0.898,-0.426 0.785,-0.578 0.54,-0.583 0.197,-0.589 0.007,-0.346 0,0 M 0.77,0.053 0.763,0.448 0.311,0.439 0.319,0.044 c 0.003,-0.171 0.108,-0.251 0.232,-0.248 0.123,0.002 0.223,0.086 0.219,0.257 M 1.515,0.092 1.508,0.462 1.085,0.454 1.092,0.084 c 0.003,-0.161 0.09,-0.249 0.216,-0.246 0.127,0.002 0.21,0.094 0.207,0.254" inkscape:connector-curvature="0"/>
          </g>
          <g transform="translate(153.3575,164.3158)" id="g5769">
            <path id="path5771" style="fill:none;stroke:#ffffff;stroke-width:0.02;stroke-linecap:butt;stroke-linejoin:miter;stroke-miterlimit:2.61299992;stroke-opacity:1;stroke-dasharray:none" d="M 0,0 -0.016,0.811 1.82,0.846 1.835,0.068 C 1.842,-0.31 1.646,-0.534 1.331,-0.54 1.127,-0.544 0.993,-0.405 0.947,-0.308 0.898,-0.426 0.785,-0.578 0.54,-0.583 0.197,-0.589 0.007,-0.346 0,0 M 0.77,0.053 0.763,0.448 0.311,0.439 0.319,0.044 c 0.003,-0.171 0.108,-0.251 0.232,-0.248 0.123,0.002 0.223,0.086 0.219,0.257 M 1.515,0.092 1.508,0.462 1.085,0.454 1.092,0.084 c 0.003,-0.161 0.09,-0.249 0.216,-0.246 0.127,0.002 0.21,0.094 0.207,0.254 z" inkscape:connector-curvature="0"/>
          </g>
          <g transform="translate(153.4099,162.2346)" id="g5773">
            <path id="path5775" style="fill:#ffffff;fill-opacity:1;fill-rule:evenodd;stroke:none" d="M 0,0 C -0.114,0.149 -0.168,0.322 -0.144,0.541 -0.121,0.76 -0.031,0.92 0.112,1.042 0.317,1.217 0.545,1.187 0.86,1.153 1.176,1.119 1.404,1.1 1.568,0.886 1.682,0.737 1.736,0.561 1.712,0.342 1.689,0.123 1.599,-0.035 1.456,-0.156 1.251,-0.331 1.023,-0.304 0.708,-0.27 0.392,-0.236 0.164,-0.215 0,0 M 1.271,0.146 C 1.336,0.194 1.383,0.273 1.394,0.376 1.405,0.479 1.376,0.57 1.323,0.63 1.254,0.712 1.171,0.74 0.82,0.777 0.469,0.815 0.382,0.805 0.297,0.74 0.232,0.692 0.185,0.61 0.174,0.507 0.163,0.404 0.192,0.316 0.245,0.256 0.314,0.174 0.397,0.144 0.748,0.106 1.099,0.068 1.186,0.081 1.271,0.146" inkscape:connector-curvature="0"/>
          </g>
          <g transform="translate(153.4099,162.2346)" id="g5777">
            <path id="path5779" style="fill:none;stroke:#ffffff;stroke-width:0.02;stroke-linecap:butt;stroke-linejoin:miter;stroke-miterlimit:2.61299992;stroke-opacity:1;stroke-dasharray:none" d="M 0,0 C -0.114,0.149 -0.168,0.322 -0.144,0.541 -0.121,0.76 -0.031,0.92 0.112,1.042 0.317,1.217 0.545,1.187 0.86,1.153 1.176,1.119 1.404,1.1 1.568,0.886 1.682,0.737 1.736,0.561 1.712,0.342 1.689,0.123 1.599,-0.035 1.456,-0.156 1.251,-0.331 1.023,-0.304 0.708,-0.27 0.392,-0.236 0.164,-0.215 0,0 M 1.271,0.146 C 1.336,0.194 1.383,0.273 1.394,0.376 1.405,0.479 1.376,0.57 1.323,0.63 1.254,0.712 1.171,0.74 0.82,0.777 0.469,0.815 0.382,0.805 0.297,0.74 0.232,0.692 0.185,0.61 0.174,0.507 0.163,0.404 0.192,0.316 0.245,0.256 0.314,0.174 0.397,0.144 0.748,0.106 1.099,0.068 1.186,0.081 1.271,0.146 z" inkscape:connector-curvature="0"/>
          </g>
          <g transform="translate(152.9782,161.1036)" id="g5781">
            <path id="path5783" style="fill:#ffffff;fill-opacity:1;fill-rule:evenodd;stroke:none" d="M 0,0 C 0.092,0.387 0.413,0.635 0.792,0.545 L 1.966,0.265 1.879,-0.103 0.717,0.173 C 0.511,0.222 0.358,0.125 0.311,-0.074 0.264,-0.273 0.356,-0.432 0.562,-0.481 L 1.723,-0.757 1.636,-1.122 0.462,-0.843 C 0.083,-0.753 -0.092,-0.387 0,0" inkscape:connector-curvature="0"/>
          </g>
          <g transform="translate(152.9782,161.1036)" id="g5785">
            <path id="path5787" style="fill:none;stroke:#ffffff;stroke-width:0.02;stroke-linecap:butt;stroke-linejoin:miter;stroke-miterlimit:2.61299992;stroke-opacity:1;stroke-dasharray:none" d="M 0,0 C 0.092,0.387 0.413,0.635 0.792,0.545 L 1.966,0.265 1.879,-0.103 0.717,0.173 C 0.511,0.222 0.358,0.125 0.311,-0.074 0.264,-0.273 0.356,-0.432 0.562,-0.481 L 1.723,-0.757 1.636,-1.122 0.462,-0.843 C 0.083,-0.753 -0.092,-0.387 0,0 z" inkscape:connector-curvature="0"/>
          </g>
          <g transform="translate(152.3626,159.1229)" id="g5789">
            <path id="path5791" style="fill:#ffffff;fill-opacity:1;fill-rule:evenodd;stroke:none" d="M 0,0 0.819,0.095 0.915,0.35 0.23,0.609 0.364,0.962 2.081,0.313 1.813,-0.397 C 1.673,-0.767 1.351,-0.895 1.064,-0.787 0.823,-0.695 0.732,-0.484 0.738,-0.285 L -0.155,-0.41 0,0 M 1.522,-0.262 1.648,0.072 1.195,0.244 1.069,-0.09 C 1.01,-0.245 1.066,-0.382 1.198,-0.433 c 0.133,-0.05 0.265,0.016 0.324,0.171" inkscape:connector-curvature="0"/>
          </g>
          <g transform="translate(152.3626,159.1229)" id="g5793">
            <path id="path5795" style="fill:none;stroke:#ffffff;stroke-width:0.02;stroke-linecap:butt;stroke-linejoin:miter;stroke-miterlimit:2.61299992;stroke-opacity:1;stroke-dasharray:none" d="M 0,0 0.819,0.095 0.915,0.35 0.23,0.609 0.364,0.962 2.081,0.313 1.813,-0.397 C 1.673,-0.767 1.351,-0.895 1.064,-0.787 0.823,-0.695 0.732,-0.484 0.738,-0.285 L -0.155,-0.41 0,0 M 1.522,-0.262 1.648,0.072 1.195,0.244 1.069,-0.09 C 1.01,-0.245 1.066,-0.382 1.198,-0.433 c 0.133,-0.05 0.265,0.016 0.324,0.171 z" inkscape:connector-curvature="0"/>
          </g>
          <g transform="translate(151.7152,157.3626)" id="g5797">
            <path id="path5799" style="fill:#ffffff;fill-opacity:1;fill-rule:evenodd;stroke:none" d="M 0,0 C -0.061,0.208 -0.025,0.398 0.072,0.581 0.172,0.769 0.317,0.889 0.495,0.948 0.751,1.034 0.951,0.922 1.231,0.773 1.511,0.624 1.716,0.521 1.788,0.261 1.839,0.081 1.823,-0.102 1.721,-0.295 1.51,-0.691 1.157,-0.762 0.86,-0.663 l 0.178,0.336 c 0.173,-0.042 0.31,0.012 0.401,0.182 0.048,0.092 0.053,0.184 0.027,0.26 C 1.432,0.216 1.366,0.273 1.054,0.439 0.741,0.605 0.655,0.629 0.552,0.6 0.474,0.58 0.403,0.522 0.354,0.431 0.301,0.33 0.292,0.23 0.319,0.145 0.349,0.058 0.41,-0.002 0.495,-0.047 L 0.556,-0.08 0.724,0.235 0.988,0.095 0.644,-0.552 0.408,-0.426 C 0.173,-0.301 0.055,-0.183 0,0" inkscape:connector-curvature="0"/>
          </g>
          <g transform="translate(151.7152,157.3626)" id="g5801">
            <path id="path5803" style="fill:none;stroke:#ffffff;stroke-width:0.02;stroke-linecap:butt;stroke-linejoin:miter;stroke-miterlimit:2.61299992;stroke-opacity:1;stroke-dasharray:none" d="M 0,0 C -0.061,0.208 -0.025,0.398 0.072,0.581 0.172,0.769 0.317,0.889 0.495,0.948 0.751,1.034 0.951,0.922 1.231,0.773 1.511,0.624 1.716,0.521 1.788,0.261 1.839,0.081 1.823,-0.102 1.721,-0.295 1.51,-0.691 1.157,-0.762 0.86,-0.663 l 0.178,0.336 c 0.173,-0.042 0.31,0.012 0.401,0.182 0.048,0.092 0.053,0.184 0.027,0.26 C 1.432,0.216 1.366,0.273 1.054,0.439 0.741,0.605 0.655,0.629 0.552,0.6 0.474,0.58 0.403,0.522 0.354,0.431 0.301,0.33 0.292,0.23 0.319,0.145 0.349,0.058 0.41,-0.002 0.495,-0.047 L 0.556,-0.08 0.724,0.235 0.988,0.095 0.644,-0.552 0.408,-0.426 C 0.173,-0.301 0.055,-0.183 0,0 z" inkscape:connector-curvature="0"/>
          </g>
          <g transform="translate(128.4018,160.4659)" id="g5805">
            <path id="path5807" style="fill:#ffffff;fill-opacity:1;fill-rule:evenodd;stroke:none" d="m 0,0 -0.604,-0.168 0.226,-0.809 -0.428,-0.12 -0.226,0.809 -0.997,-0.278 -0.111,0.4 2.456,0.686 0.377,-1.35 -0.428,-0.12" inkscape:connector-curvature="0"/>
          </g>
          <g transform="translate(128.4018,160.4659)" id="g5809">
            <path id="path5811" style="fill:none;stroke:#ffffff;stroke-width:0.022;stroke-linecap:butt;stroke-linejoin:miter;stroke-miterlimit:2.61299992;stroke-opacity:1;stroke-dasharray:none" d="m 0,0 -0.604,-0.168 0.226,-0.809 -0.428,-0.12 -0.226,0.809 -0.997,-0.278 -0.111,0.4 L 0.316,0.52 0.693,-0.83 0.265,-0.95 0,0 z" inkscape:connector-curvature="0"/>
          </g>
          <g transform="translate(127.6801,157.1988)" id="g5813">
            <path id="path5815" style="fill:#ffffff;fill-opacity:1;fill-rule:evenodd;stroke:none" d="m 0,0 c -0.225,0.059 -0.394,0.182 -0.496,0.401 -0.103,0.219 -0.091,0.43 0.008,0.641 0.142,0.304 0.433,0.434 0.832,0.621 C 0.743,1.85 1.029,1.99 1.354,1.905 1.58,1.846 1.749,1.72 1.852,1.501 1.954,1.282 1.941,1.074 1.842,0.863 1.7,0.559 1.41,0.426 1.011,0.24 0.612,0.052 0.325,-0.086 0,0 M 1.439,1.014 C 1.488,1.104 1.498,1.21 1.45,1.313 1.402,1.416 1.312,1.48 1.212,1.499 1.081,1.526 0.965,1.495 0.521,1.287 0.076,1.079 -0.022,1.01 -0.085,0.891 -0.134,0.802 -0.143,0.692 -0.094,0.59 -0.046,0.487 0.042,0.426 0.142,0.406 0.273,0.379 0.391,0.407 0.835,0.616 1.279,0.824 1.376,0.896 1.439,1.014" inkscape:connector-curvature="0"/>
          </g>
          <g transform="translate(127.6801,157.1988)" id="g5817">
            <path id="path5819" style="fill:none;stroke:#ffffff;stroke-width:0.022;stroke-linecap:butt;stroke-linejoin:miter;stroke-miterlimit:2.61299992;stroke-opacity:1;stroke-dasharray:none" d="m 0,0 c -0.225,0.059 -0.394,0.182 -0.496,0.401 -0.103,0.219 -0.091,0.43 0.008,0.641 0.142,0.304 0.433,0.434 0.832,0.621 C 0.743,1.85 1.029,1.99 1.354,1.905 1.58,1.846 1.749,1.72 1.852,1.501 1.954,1.282 1.941,1.074 1.842,0.863 1.7,0.559 1.41,0.426 1.011,0.24 0.612,0.052 0.325,-0.086 0,0 M 1.439,1.014 C 1.488,1.104 1.498,1.21 1.45,1.313 1.402,1.416 1.312,1.48 1.212,1.499 1.081,1.526 0.965,1.495 0.521,1.287 0.076,1.079 -0.022,1.01 -0.085,0.891 -0.134,0.802 -0.143,0.692 -0.094,0.59 -0.046,0.487 0.042,0.426 0.142,0.406 0.273,0.379 0.391,0.407 0.835,0.616 1.279,0.824 1.376,0.896 1.439,1.014 z" inkscape:connector-curvature="0"/>
          </g>
          <g transform="translate(128.9405,155.2351)" id="g5821">
            <path id="path5823" style="fill:#ffffff;fill-opacity:1;fill-rule:evenodd;stroke:none" d="m 0,0 c -0.232,0.018 -0.42,0.11 -0.559,0.307 -0.14,0.198 -0.165,0.407 -0.105,0.632 0.086,0.325 0.35,0.504 0.71,0.758 C 0.405,1.952 0.662,2.141 0.997,2.114 1.229,2.095 1.418,2.002 1.558,1.804 1.698,1.607 1.721,1.4 1.661,1.174 1.575,0.85 1.313,0.668 0.953,0.414 0.593,0.16 0.335,-0.027 0,0 M 1.238,1.252 C 1.271,1.348 1.261,1.455 1.195,1.548 1.13,1.641 1.031,1.688 0.929,1.689 0.795,1.693 0.686,1.642 0.285,1.358 -0.115,1.075 -0.2,0.99 -0.241,0.862 -0.274,0.765 -0.262,0.656 -0.197,0.564 -0.131,0.471 -0.034,0.426 0.068,0.425 0.202,0.421 0.313,0.47 0.713,0.753 1.114,1.036 1.197,1.124 1.238,1.252" inkscape:connector-curvature="0"/>
          </g>
          <g transform="translate(128.9405,155.2351)" id="g5825">
            <path id="path5827" style="fill:none;stroke:#ffffff;stroke-width:0.022;stroke-linecap:butt;stroke-linejoin:miter;stroke-miterlimit:2.61299992;stroke-opacity:1;stroke-dasharray:none" d="m 0,0 c -0.232,0.018 -0.42,0.11 -0.559,0.307 -0.14,0.198 -0.165,0.407 -0.105,0.632 0.086,0.325 0.35,0.504 0.71,0.758 C 0.405,1.952 0.662,2.141 0.997,2.114 1.229,2.095 1.418,2.002 1.558,1.804 1.698,1.607 1.721,1.4 1.661,1.174 1.575,0.85 1.313,0.668 0.953,0.414 0.593,0.16 0.335,-0.027 0,0 M 1.238,1.252 C 1.271,1.348 1.261,1.455 1.195,1.548 1.13,1.641 1.031,1.688 0.929,1.689 0.795,1.693 0.686,1.642 0.285,1.358 -0.115,1.075 -0.2,0.99 -0.241,0.862 -0.274,0.765 -0.262,0.656 -0.197,0.564 -0.131,0.471 -0.034,0.426 0.068,0.425 0.202,0.421 0.313,0.47 0.713,0.753 1.114,1.036 1.197,1.124 1.238,1.252 z" inkscape:connector-curvature="0"/>
          </g>
          <g transform="translate(131.4447,155.2063)" id="g5829">
            <path id="path5831" style="fill:#ffffff;fill-opacity:1;fill-rule:evenodd;stroke:none" d="m 0,0 -1.506,-1.473 -0.29,0.297 1.506,1.473 -0.389,0.397 0.317,0.311 1.068,-1.092 -0.317,-0.31" inkscape:connector-curvature="0"/>
          </g>
          <g transform="translate(131.4447,155.2063)" id="g5833">
            <path id="path5835" style="fill:none;stroke:#ffffff;stroke-width:0.022;stroke-linecap:butt;stroke-linejoin:miter;stroke-miterlimit:2.61299992;stroke-opacity:1;stroke-dasharray:none" d="m 0,0 -1.506,-1.473 -0.29,0.297 1.506,1.473 -0.389,0.397 0.317,0.311 L 0.706,-0.087 0.389,-0.397 0,0 z" inkscape:connector-curvature="0"/>
          </g>
          <g transform="translate(131.6265,152.3049)" id="g5837">
            <path id="path5839" style="fill:#ffffff;fill-opacity:1;fill-rule:evenodd;stroke:none" d="M 0,0 -0.717,0.529 0.798,2.581 1.486,2.073 C 1.82,1.826 1.849,1.458 1.589,1.106 1.421,0.879 1.188,0.824 1.065,0.839 1.126,0.705 1.162,0.478 0.96,0.204 0.677,-0.18 0.305,-0.225 0,0 M 0.602,0.886 0.254,1.144 -0.119,0.639 0.23,0.382 C 0.382,0.27 0.539,0.332 0.641,0.471 0.743,0.609 0.754,0.775 0.602,0.886 M 1.195,1.735 0.868,1.977 0.52,1.504 0.847,1.263 C 0.988,1.158 1.138,1.195 1.242,1.336 1.346,1.477 1.337,1.631 1.195,1.735" inkscape:connector-curvature="0"/>
          </g>
          <g transform="translate(131.6265,152.3049)" id="g5841">
            <path id="path5843" style="fill:none;stroke:#ffffff;stroke-width:0.022;stroke-linecap:butt;stroke-linejoin:miter;stroke-miterlimit:2.61299992;stroke-opacity:1;stroke-dasharray:none" d="M 0,0 -0.717,0.529 0.798,2.581 1.486,2.073 C 1.82,1.826 1.849,1.458 1.589,1.106 1.421,0.879 1.188,0.824 1.065,0.839 1.126,0.705 1.162,0.478 0.96,0.204 0.677,-0.18 0.305,-0.225 0,0 M 0.602,0.886 0.254,1.144 -0.119,0.639 0.23,0.382 C 0.382,0.27 0.539,0.332 0.641,0.471 0.743,0.609 0.754,0.775 0.602,0.886 M 1.195,1.735 0.868,1.977 0.52,1.504 0.847,1.263 C 0.988,1.158 1.138,1.195 1.242,1.336 1.346,1.477 1.337,1.631 1.195,1.735 z" inkscape:connector-curvature="0"/>
          </g>
          <g transform="translate(133.9647,150.923)" id="g5845">
            <path id="path5847" style="fill:#ffffff;fill-opacity:1;fill-rule:evenodd;stroke:none" d="M 0,0 0.093,0.459 -0.58,0.803 -0.9,0.459 -1.286,0.656 0.563,2.576 0.854,2.428 0.386,-0.197 0,0 M 0.376,1.827 -0.286,1.123 0.186,0.883" inkscape:connector-curvature="0"/>
          </g>
          <g transform="translate(133.9647,150.923)" id="g5849">
            <path id="path5851" style="fill:none;stroke:#ffffff;stroke-width:0.022;stroke-linecap:butt;stroke-linejoin:miter;stroke-miterlimit:2.61299992;stroke-opacity:1;stroke-dasharray:none" d="M 0,0 0.093,0.459 -0.58,0.803 -0.9,0.459 -1.286,0.656 0.563,2.576 0.854,2.428 0.386,-0.197 0,0 m 0.376,1.827 -0.662,-0.704 0.472,-0.24 0.19,0.944 z" inkscape:connector-curvature="0"/>
          </g>
          <g transform="translate(134.9844,150.4878)" id="g5853">
            <path id="path5855" style="fill:#ffffff;fill-opacity:1;fill-rule:evenodd;stroke:none" d="M 0,0 0.805,2.42 1.199,2.289 0.534,0.29 1.45,-0.014 1.31,-0.436" inkscape:connector-curvature="0"/>
          </g>
          <g transform="translate(134.9844,150.4878)" id="g5857">
            <path id="path5859" style="fill:none;stroke:#ffffff;stroke-width:0.022;stroke-linecap:butt;stroke-linejoin:miter;stroke-miterlimit:2.61299992;stroke-opacity:1;stroke-dasharray:none" d="M 0,0 0.805,2.42 1.199,2.289 0.534,0.29 1.45,-0.014 1.31,-0.436 0,0 z" inkscape:connector-curvature="0"/>
          </g>
          <g transform="translate(137.0111,149.881)" id="g5861">
            <path id="path5863" style="fill:#ffffff;fill-opacity:1;fill-rule:evenodd;stroke:none" d="M 0,0 0.454,2.51 0.863,2.436 0.488,0.363 1.438,0.191 1.359,-0.246" inkscape:connector-curvature="0"/>
          </g>
          <g transform="translate(137.0111,149.881)" id="g5865">
            <path id="path5867" style="fill:none;stroke:#ffffff;stroke-width:0.022;stroke-linecap:butt;stroke-linejoin:miter;stroke-miterlimit:2.61299992;stroke-opacity:1;stroke-dasharray:none" d="M 0,0 0.454,2.51 0.863,2.436 0.488,0.363 1.438,0.191 1.359,-0.246 0,0 z" inkscape:connector-curvature="0"/>
          </g>
          <g id="g5869">
            <g id="g5871">
              <g id="g5877">
                <path id="path5885" style="fill:url(#linearGradient5879-7-2-9-4-9-1);fill-rule:evenodd;stroke:none" d="m 152.833,154.524 c -0.815,-1.28 -4.171,-4.044 -6.744,-4.832 -7.139,5.749 -14.237,11.477 -21.377,17.221 0.395,2.36 1.459,5.592 3.457,7.812 l 24.664,-20.201" inkscape:connector-curvature="0"/>
              </g>
              <g id="g5887">
                <path id="path5895" style="fill:url(#linearGradient5889-4-4-5-5-4-9);fill-rule:evenodd;stroke:none" d="m 152.833,154.524 c -0.815,-1.28 -4.171,-4.044 -6.744,-4.832 -7.139,5.749 -14.237,11.477 -21.377,17.221 0.395,2.36 1.459,5.592 3.457,7.812 l 24.664,-20.201" inkscape:connector-curvature="0"/>
              </g>
            </g>
          </g>
          <g transform="translate(152.8328,154.5239)" id="g5897">
            <path id="path5899" style="fill:none;stroke:#000000;stroke-width:0.035;stroke-linecap:butt;stroke-linejoin:miter;stroke-miterlimit:2.61299992;stroke-opacity:1;stroke-dasharray:none" d="m 0,0 c -0.815,-1.28 -4.171,-4.044 -6.743,-4.831 -7.14,5.748 -14.237,11.476 -21.377,17.22 0.395,2.36 1.458,5.592 3.457,7.812 L 0,0 z" inkscape:connector-curvature="0"/>
          </g>
          <g transform="translate(151.2877,161.5288)" id="g5901">
            <path id="path5903" style="fill:#ffffff;fill-opacity:1;fill-rule:evenodd;stroke:none" d="m 0,0 c 3.067,11.493 -9.633,17.204 -14.638,13.058 -2.374,-1.965 0.964,-4.509 1.346,-6.391 0.137,-0.684 -0.345,-0.758 -0.698,-0.441 -0.68,0.606 -1.584,2.521 -2.292,1.635 -0.243,-0.308 -0.298,-0.68 -0.082,-0.928 0.427,-0.482 1.363,-0.666 1.983,-1.285 0.129,-0.129 0.115,-0.363 0.023,-0.46 -0.091,-0.091 -0.316,-0.124 -0.441,-0.096 -3.732,0.904 -2.727,1.175 -4.605,1.175 -0.982,0 -1.919,-0.647 -2.089,-1.391 -1.896,-8.196 7.599,-16.662 16.415,-11.249 -6.63,-2.388 -12.535,2.75 -11.281,9.178 0.266,1.369 2.727,0.965 3.608,2.039 0.932,1.139 -0.151,3.513 1.199,4.073 C -5.863,11.281 0.455,7.503 0,0" inkscape:connector-curvature="0"/>
          </g>
          <g transform="translate(151.2877,161.5288)" id="g5905">
            <path id="path5907" style="fill:none;stroke:#20190e;stroke-width:0.18000001;stroke-linecap:butt;stroke-linejoin:miter;stroke-miterlimit:2.61299992;stroke-opacity:1;stroke-dasharray:none" d="m 0,0 c 3.067,11.493 -9.633,17.204 -14.638,13.058 -2.374,-1.965 0.964,-4.509 1.346,-6.391 0.137,-0.684 -0.345,-0.758 -0.698,-0.441 -0.68,0.606 -1.584,2.521 -2.292,1.635 -0.243,-0.308 -0.298,-0.68 -0.082,-0.928 0.427,-0.482 1.363,-0.666 1.983,-1.285 0.129,-0.129 0.115,-0.363 0.023,-0.46 -0.091,-0.091 -0.316,-0.124 -0.441,-0.096 -3.732,0.904 -2.727,1.175 -4.605,1.175 -0.982,0 -1.919,-0.647 -2.089,-1.391 -1.896,-8.196 7.599,-16.662 16.415,-11.249 -6.63,-2.388 -12.535,2.75 -11.281,9.178 0.266,1.369 2.727,0.965 3.608,2.039 0.932,1.139 -0.151,3.513 1.199,4.073 C -5.863,11.281 0.455,7.503 0,0 z" inkscape:connector-curvature="0"/>
          </g>
          <g transform="translate(128.4725,174.4399)" id="g5909">
            <path id="path5911" style="fill:#ffffff;fill-opacity:1;fill-rule:evenodd;stroke:none" d="M 0,0 6.681,-4.826 6.231,-5.574" inkscape:connector-curvature="0"/>
          </g>
          <g transform="translate(128.4725,174.4399)" id="g5913">
            <path id="path5915" style="fill:none;stroke:#20190e;stroke-width:0.18000001;stroke-linecap:butt;stroke-linejoin:miter;stroke-miterlimit:2.61299992;stroke-opacity:1;stroke-dasharray:none" d="M 0,0 6.681,-4.826 6.231,-5.574 0,0 z" inkscape:connector-curvature="0"/>
          </g>
          <g transform="translate(143.6823,168.2742)" id="g5917">
            <path id="path5919" style="fill:#ffffff;fill-opacity:1;fill-rule:evenodd;stroke:none" d="m 0,0 c 3.519,0 6.388,-2.869 6.388,-6.388 0,-3.519 -2.869,-6.389 -6.388,-6.389 -3.518,0 -6.388,2.87 -6.388,6.389 C -6.388,-2.869 -3.518,0 0,0" inkscape:connector-curvature="0"/>
          </g>
          <g transform="translate(143.6823,168.2742)" id="g5921">
            <path id="path5923" style="fill:none;stroke:#20190e;stroke-width:0.18000001;stroke-linecap:butt;stroke-linejoin:miter;stroke-miterlimit:2.61299992;stroke-opacity:1;stroke-dasharray:none" d="m 0,0 c 3.519,0 6.388,-2.869 6.388,-6.388 0,-3.519 -2.869,-6.389 -6.388,-6.389 -3.518,0 -6.388,2.87 -6.388,6.389 C -6.388,-2.869 -3.518,0 0,0 z" inkscape:connector-curvature="0"/>
          </g>
          <g transform="translate(140.8976,161.6638)" id="g5925">
            <path id="path5927" style="fill:none;stroke:#1f54a9;stroke-width:1.05599999;stroke-linecap:round;stroke-linejoin:round;stroke-miterlimit:2.61299992;stroke-opacity:1;stroke-dasharray:none" d="m 0,0 0,4.679 c 0.693,0 1.413,0.004 2.08,0 C 3.744,4.665 3.918,3.958 3.918,3.69 3.918,3.422 4.043,2.451 2.357,2.456 2.08,2.456 1.606,2.424 1.275,2.438 2.402,1.57 3.672,0.858 4.656,-0.166 5.059,-0.582 4.974,-1.324 5.336,-1.78 5.568,-2.071 5.975,-2.281 6.351,-2.29 6.794,-2.304 7.295,-2.165 7.622,-1.865 7.939,-1.579 8.14,-1.1 8.127,-0.676 8.113,-0.259 7.867,0.179 7.536,0.425 6.978,0.836 6.061,0.68 5.591,1.19 c -0.304,0.33 -0.206,0.957 0,1.359 0.152,0.3 0.595,0.448 0.93,0.425 C 6.932,2.947 7.402,2.558 7.429,2.133" inkscape:connector-curvature="0"/>
          </g>
          <g transform="translate(146.6094,157.3294)" id="g5929">
            <path id="path5931" style="fill:none;stroke:#1f54a9;stroke-width:1.05599999;stroke-linecap:round;stroke-linejoin:round;stroke-miterlimit:2.61299992;stroke-opacity:1;stroke-dasharray:none" d="m 0,0 c -0.716,-0.013 -1.628,-0.049 -2.156,-0.018 -0.523,0.027 -1.31,0.671 -1.579,1.239 -0.21,0.447 -0.273,1.203 -0.036,1.744 0.233,0.533 1.23,1.441 2.268,1.132" inkscape:connector-curvature="0"/>
          </g>
          <g transform="translate(138.5331,158.935)" id="g5933">
            <path id="path5935" style="fill:#1f54a9;fill-opacity:1;fill-rule:nonzero;stroke:none" d="M 0,0 C -0.013,0.928 -0.035,1.886 -0.013,2.892 0.052,2.971 0.122,3.053 0.179,3.136 0.183,3.493 0.187,3.85 0.183,4.212 0.27,4.308 0.34,4.403 0.453,4.499 0.457,4.778 0.71,6.681 0.71,6.681 c 0,0 0.214,-1.885 0.214,-2.164 0.095,-0.1 0.196,-0.201 0.296,-0.296 0,-0.353 0,-0.706 0,-1.054 0.043,-0.083 0.091,-0.166 0.139,-0.244 0,-0.615 0,-1.228 0,-1.843 0.592,0 1.185,0 1.777,0 0.07,-0.505 0.009,-0.953 0.205,-1.524 0.2,-0.579 0.862,-1.041 0.806,-1.233 -0.035,-0.109 -0.218,-0.244 -0.275,-0.244 -0.64,0 -1.263,-0.013 -1.86,0.018 C 1.098,-1.472 0.41,-0.749 0,0" inkscape:connector-curvature="0"/>
          </g>
        </g>
      </g>
    </g>
  </g>
</svg>