<?xml version="1.0" encoding="UTF-8" standalone="no"?>
<svg xmlns:dc="http://purl.org/dc/elements/1.1/" xmlns:cc="http://creativecommons.org/ns#" xmlns:rdf="http://www.w3.org/1999/02/22-rdf-syntax-ns#" xmlns:svg="http://www.w3.org/2000/svg" xmlns="http://www.w3.org/2000/svg" xmlns:sodipodi="http://sodipodi.sourceforge.net/DTD/sodipodi-0.dtd" xmlns:inkscape="http://www.inkscape.org/namespaces/inkscape" inkscape:version="1.0 (4035a4f, 2020-05-01)" sodipodi:docname="62.svg" id="svg2102" height="200.0pt" width="200.0pt" viewBox="0 0 200 200" version="1.1">
  <metadata id="metadata2108">
    <rdf:RDF>
      <cc:Work rdf:about="">
        <dc:format>image/svg+xml</dc:format>
        <dc:type rdf:resource="http://purl.org/dc/dcmitype/StillImage"/>
      </cc:Work>
    </rdf:RDF>
  </metadata>
  <defs id="defs2106"/>
  <sodipodi:namedview inkscape:current-layer="svg2102" inkscape:cy="133.33333" inkscape:cx="133.33333" inkscape:zoom="1.75125" showgrid="false" id="namedview2104" inkscape:window-height="480" inkscape:window-width="640" inkscape:pageshadow="2" inkscape:pageopacity="0" guidetolerance="10" gridtolerance="10" objecttolerance="10" borderopacity="1" bordercolor="#666666" pagecolor="#ffffff"/>
  <path style="fill:#ffffff;fill-opacity:0" id="path1944" fill="#ffffff" d="M 0.00 0.00 L 53.57 0.00 L 53.53 0.29 C 43.18 9.76 32.77 19.18 22.47 28.70 C 28.07 33.85 34.30 40.49 36.43 47.95 C 37.85 58.45 32.58 69.72 29.53 79.50 C 27.21 87.76 26.22 96.29 26.36 104.86 C 24.18 104.54 23.13 104.64 22.48 106.94 C 22.11 108.89 22.69 110.56 23.42 112.34 C 20.76 114.09 17.93 115.01 14.96 116.34 C 15.72 117.87 16.63 119.23 16.63 121.01 C 15.19 120.15 14.68 118.45 13.90 117.02 C 11.22 117.86 8.77 119.25 6.07 120.06 C 4.88 118.31 4.33 116.47 4.43 114.55 C 5.49 115.77 6.07 117.20 6.89 118.58 C 11.84 116.41 16.76 114.18 21.71 112.02 C 21.22 110.00 21.05 108.13 21.16 106.05 C 16.27 108.55 11.08 110.49 6.27 113.12 L 5.86 114.81 C 5.34 114.16 4.82 113.51 4.29 112.86 C 11.00 108.73 18.88 106.48 25.53 102.34 C 18.80 104.57 12.33 108.02 5.88 111.00 C 1.80 112.82 3.59 118.53 6.03 121.03 C 8.53 120.10 10.94 118.99 13.36 117.87 C 13.92 118.94 14.46 120.01 14.98 121.11 C 10.77 122.67 6.57 124.28 2.41 125.96 C 8.89 143.09 19.64 158.46 33.86 170.06 C 45.53 179.72 59.38 186.84 74.09 190.53 C 76.13 191.03 75.54 190.90 77.14 190.25 C 67.62 188.68 58.39 184.68 49.95 180.11 C 28.67 168.36 12.24 149.14 3.39 126.55 C 11.14 123.09 19.27 120.42 27.11 117.16 C 28.37 118.38 29.27 119.25 29.50 121.14 C 27.45 119.70 27.07 117.67 24.49 119.69 C 25.42 121.79 26.32 123.90 27.52 125.88 C 28.80 125.38 30.08 124.89 31.37 124.41 C 31.68 126.21 29.09 126.33 27.90 127.06 C 36.54 143.75 51.01 157.28 68.33 164.61 C 75.07 167.34 82.39 169.70 89.69 170.03 C 89.12 170.55 88.55 171.06 87.98 171.58 C 71.26 168.80 55.59 161.46 43.35 149.66 C 34.45 141.36 27.93 131.16 23.17 120.02 C 17.18 122.50 11.09 124.73 5.04 127.07 C 12.66 146.36 26.15 163.15 43.43 174.63 C 55.50 182.78 69.26 188.07 83.59 190.52 L 84.25 191.73 C 81.88 191.51 79.59 191.12 77.21 191.46 C 81.29 192.34 85.66 193.07 89.84 193.29 C 89.78 192.96 89.72 192.64 89.66 192.31 C 87.16 192.09 84.91 193.40 83.63 190.55 C 87.18 191.01 90.74 191.39 94.32 191.65 C 96.24 193.47 98.11 195.35 99.98 197.23 C 101.85 195.34 103.72 193.46 105.66 191.64 C 108.90 191.66 112.60 190.49 115.70 190.99 C 116.10 193.38 111.65 192.00 110.35 192.31 C 110.28 192.63 110.22 192.95 110.16 193.28 C 142.10 190.46 171.69 171.77 188.45 144.48 C 192.05 138.64 195.07 132.40 197.53 125.99 C 193.41 124.24 189.19 122.69 185.00 121.12 C 185.66 118.93 186.47 118.22 188.25 116.87 C 184.51 116.34 185.85 120.84 182.95 120.48 C 183.60 119.09 184.29 117.71 185.00 116.34 C 182.15 115.13 179.29 113.98 176.57 112.50 C 177.43 109.91 178.59 106.78 176.03 104.74 L 173.59 104.86 C 173.75 93.91 172.10 83.04 168.15 72.80 C 165.47 65.25 162.37 56.01 163.50 47.95 C 165.65 40.49 171.86 33.85 177.47 28.70 C 168.08 20.05 158.65 11.42 149.17 2.85 C 148.45 2.01 146.75 1.11 146.66 0.00 L 200.00 0.00 L 200.00 200.00 L 100.09 200.00 C 102.53 198.11 104.71 194.11 107.85 193.64 C 107.51 193.36 107.16 193.08 106.81 192.79 C 104.18 194.29 102.23 196.95 99.99 198.98 C 97.74 197.05 95.87 194.24 93.19 192.93 L 92.84 193.15 L 92.52 193.34 L 92.10 193.61 C 95.26 194.18 97.42 198.06 99.87 200.00 L 0.00 200.00 L 0.00 0.00 Z"/>
  <path id="path1946" fill="#004f9e" d="M 53.57 0.00 L 53.83 0.00 L 53.68 0.28 L 53.53 0.57 C 66.84 10.28 86.96 10.35 99.93 0.00 L 100.03 0.00 C 113.01 10.41 133.19 10.24 146.51 0.51 L 146.51 0.26 L 146.49 0.00 L 146.66 0.00 C 146.75 1.11 148.45 2.01 149.17 2.85 C 158.65 11.42 168.08 20.05 177.47 28.70 C 171.86 33.85 165.65 40.49 163.50 47.95 C 162.37 56.01 165.47 65.25 168.15 72.80 C 172.10 83.04 173.75 93.91 173.59 104.86 L 176.03 104.74 C 178.59 106.78 177.43 109.91 176.57 112.50 C 179.29 113.98 182.15 115.13 185.00 116.34 C 184.29 117.71 183.60 119.09 182.95 120.48 C 185.85 120.84 184.51 116.34 188.25 116.87 C 186.47 118.22 185.66 118.93 185.00 121.12 C 189.19 122.69 193.41 124.24 197.53 125.99 C 195.07 132.40 192.05 138.64 188.45 144.48 C 171.69 171.77 142.10 190.46 110.16 193.28 C 110.22 192.95 110.28 192.63 110.35 192.31 C 111.65 192.00 116.10 193.38 115.70 190.99 C 112.60 190.49 108.90 191.66 105.66 191.64 C 103.72 193.46 101.85 195.34 99.98 197.23 C 98.11 195.35 96.24 193.47 94.32 191.65 C 90.74 191.39 87.18 191.01 83.63 190.55 C 84.91 193.40 87.16 192.09 89.66 192.31 C 89.72 192.64 89.78 192.96 89.84 193.29 C 85.66 193.07 81.29 192.34 77.21 191.46 C 79.59 191.12 81.88 191.51 84.25 191.73 L 83.59 190.52 C 69.26 188.07 55.50 182.78 43.43 174.63 C 26.15 163.15 12.66 146.36 5.04 127.07 C 11.09 124.73 17.18 122.50 23.17 120.02 C 27.93 131.16 34.45 141.36 43.35 149.66 C 55.59 161.46 71.26 168.80 87.98 171.58 C 88.55 171.06 89.12 170.55 89.69 170.03 C 82.39 169.70 75.07 167.34 68.33 164.61 C 51.01 157.28 36.54 143.75 27.90 127.06 C 29.09 126.33 31.68 126.21 31.37 124.41 C 30.08 124.89 28.80 125.38 27.52 125.88 C 26.32 123.90 25.42 121.79 24.49 119.69 C 27.07 117.67 27.45 119.70 29.50 121.14 C 29.27 119.25 28.37 118.38 27.11 117.16 C 19.27 120.42 11.14 123.09 3.39 126.55 C 12.24 149.14 28.67 168.36 49.95 180.11 C 58.39 184.68 67.62 188.68 77.14 190.25 C 75.54 190.90 76.13 191.03 74.09 190.53 C 59.38 186.84 45.53 179.72 33.86 170.06 C 19.64 158.46 8.89 143.09 2.41 125.96 C 6.57 124.28 10.77 122.67 14.98 121.11 C 14.46 120.01 13.92 118.94 13.36 117.87 C 10.94 118.99 8.53 120.10 6.03 121.03 C 3.59 118.53 1.80 112.82 5.88 111.00 C 12.33 108.02 18.80 104.57 25.53 102.34 C 18.88 106.48 11.00 108.73 4.29 112.86 C 4.82 113.51 5.34 114.16 5.86 114.81 L 6.27 113.12 C 11.08 110.49 16.27 108.55 21.16 106.05 C 21.05 108.13 21.22 110.00 21.71 112.02 C 16.76 114.18 11.84 116.41 6.89 118.58 C 6.07 117.20 5.49 115.77 4.43 114.55 C 4.33 116.47 4.88 118.31 6.07 120.06 C 8.77 119.25 11.22 117.86 13.90 117.02 C 14.68 118.45 15.19 120.15 16.63 121.01 C 16.63 119.23 15.72 117.87 14.96 116.34 C 17.93 115.01 20.76 114.09 23.42 112.34 C 22.69 110.56 22.11 108.89 22.48 106.94 C 23.13 104.64 24.18 104.54 26.36 104.86 C 26.22 96.29 27.21 87.76 29.53 79.50 C 32.58 69.72 37.85 58.45 36.43 47.95 C 34.30 40.49 28.07 33.85 22.47 28.70 C 32.77 19.18 43.18 9.76 53.53 0.29 L 53.57 0.00 Z"/>
  <path id="path1948" fill="#ffffff" d="M 53.83 0.00 L 99.93 0.00 C 86.96 10.35 66.84 10.28 53.53 0.57 L 53.68 0.28 L 53.83 0.00 Z"/>
  <path id="path1950" fill="#ffffff" d="M 100.03 0.00 L 146.49 0.00 L 146.51 0.26 L 146.51 0.51 C 133.19 10.24 113.01 10.41 100.03 0.00 Z"/>
  <path id="path1952" fill="#ffffff" d="M 54.40 2.58 C 67.71 11.51 87.16 11.26 99.98 1.49 C 113.28 11.62 132.94 11.35 146.60 2.01 C 156.17 11.04 166.08 19.73 175.66 28.75 C 170.21 33.74 164.76 40.06 162.42 47.18 C 160.84 58.20 165.36 68.04 168.71 78.22 C 172.38 90.32 173.58 103.85 170.57 116.22 C 168.35 125.28 163.16 132.26 157.29 139.29 C 145.70 152.80 129.24 162.43 111.53 164.89 C 110.36 165.15 108.89 165.13 108.06 166.08 C 105.34 168.77 102.67 171.52 99.98 174.23 C 97.08 171.38 94.31 168.39 91.35 165.61 C 89.70 164.91 87.74 164.85 85.99 164.52 C 68.66 161.41 52.96 151.72 41.75 138.23 C 36.46 131.75 31.76 125.29 29.60 117.06 C 26.44 105.30 27.43 92.21 30.53 80.53 C 33.75 69.69 39.31 58.82 37.53 47.19 C 35.16 40.07 29.74 33.75 24.27 28.77 C 33.65 19.95 43.29 11.40 52.72 2.64 C 53.11 2.05 53.67 2.03 54.40 2.58 Z"/>
  <path id="path1954" fill="#004f9e" d="M 99.97 4.69 C 113.37 13.71 132.58 13.93 146.16 5.19 C 154.76 13.05 163.44 20.84 171.93 28.81 C 166.75 33.97 161.21 40.69 159.63 47.98 C 158.64 56.84 161.94 66.73 164.93 75.01 C 168.06 83.28 169.59 92.17 169.72 101.00 C 169.80 109.45 168.26 118.56 163.92 125.92 C 157.87 135.84 149.78 144.66 140.12 151.15 C 130.47 157.71 119.41 161.55 107.85 162.91 C 105.02 165.22 102.61 168.10 99.98 170.64 C 97.29 168.12 94.89 165.16 92.00 162.89 C 86.21 162.10 80.50 161.01 75.02 158.91 C 59.47 153.25 46.63 142.17 37.60 128.42 C 33.54 122.58 31.46 115.83 30.62 108.83 C 29.54 99.02 30.71 88.91 33.49 79.47 C 36.80 69.63 41.47 58.55 40.30 47.96 C 38.71 40.67 33.20 33.96 28.00 28.81 C 36.50 20.84 45.17 13.04 53.79 5.20 C 67.37 13.94 86.57 13.69 99.97 4.69 Z"/>
  <path id="path1956" fill="#ffffff" d="M 99.91 15.73 C 102.19 16.88 101.48 19.10 102.72 21.27 C 107.30 30.73 111.75 40.25 116.28 49.74 C 117.34 52.57 120.49 52.64 121.02 55.90 C 120.29 56.65 119.55 57.40 118.82 58.16 C 118.76 70.81 118.64 83.47 118.72 96.12 C 120.93 98.89 119.79 103.60 119.83 106.94 C 119.77 109.13 118.07 108.63 116.51 109.01 C 116.32 108.11 116.12 107.20 115.93 106.30 C 104.26 101.77 92.19 98.04 80.60 93.37 C 79.56 91.47 80.29 88.13 80.02 85.91 C 80.51 85.36 80.99 84.81 81.48 84.26 C 81.39 75.74 81.40 67.21 81.43 58.69 C 80.48 57.60 78.73 56.64 79.54 54.96 C 80.13 53.06 82.56 52.26 83.36 50.38 C 88.05 40.42 92.77 30.42 97.42 20.44 C 98.32 18.57 97.65 16.53 99.91 15.73 Z"/>
  <path id="path1958" fill="#ffffff" d="M 51.58 22.35 C 51.68 23.63 51.77 24.90 51.84 26.18 C 52.87 24.35 53.53 22.64 55.52 21.64 C 55.29 23.41 54.68 24.65 53.72 26.10 C 52.71 26.31 51.69 26.52 50.68 26.73 C 50.46 27.78 50.24 28.84 50.02 29.89 C 51.39 28.97 52.84 26.09 54.68 26.96 C 53.35 29.56 51.49 29.79 49.25 31.15 L 49.63 34.08 C 47.56 32.75 46.70 30.92 46.70 28.50 C 47.46 29.07 48.22 29.64 48.98 30.23 C 48.74 29.09 48.50 27.95 48.28 26.82 C 51.15 26.63 49.30 22.07 51.58 22.35 Z"/>
  <path id="path1960" fill="#ffffff" d="M 68.28 22.18 C 69.57 21.31 72.37 26.42 70.36 26.43 C 69.32 25.64 67.82 23.55 68.28 22.18 Z"/>
  <path id="path1962" fill="#ffffff" d="M 72.24 21.99 C 73.00 23.03 73.31 24.11 73.62 25.36 C 75.19 26.92 74.91 27.66 74.84 29.80 L 77.24 28.93 C 76.77 30.18 76.23 31.38 75.61 32.53 C 76.05 33.02 76.48 33.50 76.92 33.98 C 76.34 34.88 75.75 35.77 75.17 36.66 C 75.90 36.99 76.64 37.31 77.38 37.64 C 75.55 39.22 74.71 40.41 72.08 39.54 C 70.05 41.09 70.52 45.56 67.38 44.77 C 68.34 42.88 68.84 41.04 70.73 39.88 C 70.89 38.44 71.04 36.99 71.19 35.55 L 72.89 35.74 C 72.26 33.98 71.60 32.23 70.96 30.47 C 72.46 30.56 73.02 32.27 73.90 33.29 L 74.60 31.63 C 72.68 29.58 70.10 29.90 68.97 26.96 C 71.43 26.81 71.80 28.42 73.11 30.08 C 73.42 28.71 72.88 27.41 71.48 26.18 C 71.70 24.78 71.95 23.38 72.24 21.99 Z"/>
  <path id="path1964" fill="#ffffff" d="M 127.71 21.98 C 128.01 23.39 128.28 24.80 128.53 26.22 C 126.98 27.41 126.43 28.70 126.89 30.10 C 127.80 29.15 129.31 25.58 130.99 26.93 C 129.85 29.52 127.87 30.22 125.28 30.86 L 126.03 33.37 C 126.71 31.80 127.69 30.99 128.97 30.93 C 128.39 32.32 127.69 33.64 126.95 34.95 C 124.76 33.04 123.29 31.77 122.81 28.75 C 123.52 29.11 124.23 29.48 124.94 29.85 C 124.89 28.89 124.85 27.93 124.81 26.97 C 125.36 26.48 125.91 25.97 126.44 25.45 C 126.61 24.06 126.87 23.10 127.71 21.98 Z"/>
  <path id="path1966" fill="#ffffff" d="M 131.69 22.16 C 132.23 23.36 130.41 26.66 128.99 26.13 C 128.39 25.11 130.39 21.50 131.69 22.16 Z"/>
  <path id="path1968" fill="#ffffff" d="M 145.71 22.22 C 146.61 23.49 147.36 24.84 148.10 26.20 C 148.57 25.02 147.47 22.22 149.43 22.30 C 149.95 24.39 149.02 26.20 151.65 26.81 C 151.44 27.94 151.23 29.08 151.01 30.21 C 151.77 29.64 152.53 29.07 153.29 28.51 C 153.36 31.10 152.12 32.62 150.38 34.38 L 150.70 31.12 C 148.40 29.77 146.55 29.54 145.26 26.88 C 147.12 26.15 148.50 28.92 149.94 29.81 C 149.60 26.73 148.98 26.71 146.24 26.01 C 145.48 24.81 144.80 23.60 144.19 22.32 C 144.70 22.28 145.20 22.25 145.71 22.22 Z"/>
  <path id="path1970" fill="#004f9e" d="M 99.56 23.19 C 101.10 23.04 100.85 24.16 101.42 25.22 C 101.33 25.76 101.22 26.31 101.12 26.84 L 102.62 27.40 L 102.06 29.24 L 103.54 30.00 L 104.39 31.75 C 103.24 32.01 100.85 31.26 100.02 32.35 C 102.06 32.92 105.01 32.28 105.90 34.67 C 104.42 34.91 102.96 35.15 101.54 35.67 C 104.29 35.72 106.70 35.22 107.56 38.54 C 106.09 38.54 104.61 38.54 103.13 38.53 L 103.12 39.46 C 106.18 40.09 108.70 39.35 109.65 43.08 C 107.04 42.98 104.24 42.48 101.65 42.84 L 101.02 43.48 C 104.14 43.75 107.21 44.20 110.29 44.75 C 110.84 45.73 111.38 46.71 111.93 47.70 C 109.45 47.38 107.01 47.15 104.52 47.41 C 107.32 48.87 110.57 47.96 113.27 50.17 C 104.48 48.70 95.88 48.22 87.11 50.22 C 91.09 41.14 95.56 32.26 99.56 23.19 Z"/>
  <path id="path1972" fill="#ffffff" d="M 52.08 31.04 C 52.32 32.26 51.16 34.29 49.92 34.55 C 50.03 33.27 50.47 31.10 52.08 31.04 Z"/>
  <path id="path1974" fill="#ffffff" d="M 147.86 31.04 C 149.53 31.11 149.90 33.14 149.97 34.47 C 148.76 34.46 147.69 32.12 147.86 31.04 Z"/>
  <path id="path1976" fill="#ffffff" d="M 46.84 33.55 C 48.57 33.44 50.08 35.93 49.96 37.51 L 48.37 36.84 C 47.58 35.79 47.07 34.70 46.84 33.55 Z"/>
  <path id="path1978" fill="#ffffff" d="M 122.99 33.17 C 124.38 33.52 125.49 34.47 126.31 36.03 C 127.07 35.78 127.84 35.54 128.60 35.30 C 128.83 36.80 129.04 38.31 129.24 39.82 C 130.99 41.02 132.76 43.55 131.04 45.50 C 129.93 43.32 129.35 41.09 127.61 39.30 C 127.47 38.20 127.33 37.09 127.20 35.99 C 126.59 36.41 125.98 36.82 125.37 37.24 C 126.12 38.23 126.85 39.22 127.58 40.22 C 125.36 40.18 124.11 39.03 122.57 37.64 C 123.32 37.31 124.06 36.97 124.81 36.64 L 122.99 33.17 Z"/>
  <path id="path1980" fill="#ffffff" d="M 153.11 33.54 C 153.05 34.88 151.59 37.49 150.05 37.33 C 149.92 35.66 151.34 33.52 153.11 33.54 Z"/>
  <path id="path1982" fill="#ffffff" d="M 51.26 34.95 C 52.72 36.23 52.63 37.82 53.02 39.59 C 54.52 41.43 55.85 42.84 55.32 45.48 C 53.52 43.00 54.51 42.77 52.23 43.96 L 54.89 46.16 C 53.25 46.19 51.66 46.03 50.11 45.68 C 50.34 44.90 50.57 44.12 50.83 43.35 C 49.61 42.65 48.76 41.76 48.27 40.66 C 50.62 40.15 51.18 42.19 53.31 42.49 L 52.20 39.59 C 51.18 39.71 50.17 39.84 49.16 40.00 C 48.13 39.22 47.11 38.42 46.10 37.62 C 46.85 37.35 47.61 37.09 48.37 36.84 C 48.99 38.00 50.00 38.68 50.95 39.56 C 50.52 37.88 50.62 36.35 51.26 34.95 Z"/>
  <path id="path1984" fill="#004f9e" d="M 73.39 35.41 C 73.42 35.54 73.42 35.54 73.39 35.41 Z"/>
  <path id="path1986" fill="#ffffff" d="M 148.75 35.02 C 149.40 36.39 149.49 37.91 149.01 39.58 C 150.55 37.62 151.32 37.24 153.76 36.94 C 152.99 38.28 152.08 39.13 150.83 40.02 C 149.84 39.85 148.84 39.71 147.85 39.59 L 146.68 42.42 C 148.88 42.23 149.28 40.06 151.70 40.70 C 151.16 41.77 150.31 42.66 149.15 43.36 C 149.40 44.12 149.64 44.89 149.87 45.66 C 148.31 46.04 146.69 46.19 145.02 46.13 L 147.64 43.93 C 145.52 42.85 146.32 43.34 144.53 45.37 C 144.25 42.81 145.41 41.38 146.95 39.62 C 147.40 37.87 147.08 36.08 148.75 35.02 Z"/>
  <path id="path1988" fill="#ffffff" d="M 75.41 40.95 C 74.47 42.16 73.36 42.98 72.07 43.44 L 73.62 44.56 C 74.05 46.46 69.52 46.18 68.49 46.05 C 69.16 45.53 69.82 45.01 70.49 44.49 C 70.89 43.58 71.33 42.69 71.80 41.82 C 73.08 40.63 74.28 40.34 75.41 40.95 Z"/>
  <path id="path1990" fill="#ffffff" d="M 124.48 40.89 C 128.45 39.44 129.16 45.44 132.20 47.21 C 132.65 46.09 133.09 44.97 133.52 43.85 C 135.21 45.28 136.88 45.85 136.80 48.43 L 139.30 48.53 C 139.66 45.81 141.19 44.39 143.96 44.11 C 143.18 46.08 142.18 46.88 140.49 47.96 C 141.75 48.56 142.80 48.02 143.65 46.34 C 144.93 46.57 146.21 46.80 147.48 47.04 C 146.45 49.33 145.11 48.05 143.08 48.15 L 143.70 50.00 C 142.36 49.88 141.03 49.68 139.70 49.40 C 140.26 50.19 143.03 52.28 140.61 52.59 C 139.75 51.36 138.94 50.10 138.07 48.87 C 137.21 50.29 136.35 51.69 135.19 52.90 C 134.70 51.89 135.13 50.72 136.50 49.41 L 132.68 50.07 L 132.81 48.13 C 131.60 48.23 130.39 48.33 129.18 48.43 C 129.39 47.65 129.59 46.88 129.80 46.11 C 128.78 45.67 125.96 46.36 126.37 44.53 L 127.85 43.41 C 126.54 42.96 125.42 42.12 124.48 40.89 Z"/>
  <path id="path1992" fill="#ffffff" d="M 67.04 43.90 C 66.70 45.66 66.34 47.42 66.05 49.19 C 66.41 48.31 66.76 47.43 67.11 46.55 C 68.81 46.74 70.80 46.03 70.75 48.45 C 69.57 48.35 68.39 48.23 67.21 48.12 L 67.26 50.06 L 63.43 49.41 C 64.80 50.68 65.25 51.83 64.77 52.86 C 63.58 51.75 62.81 50.38 61.99 48.99 C 60.80 49.98 60.25 51.31 59.43 52.58 C 56.88 52.31 59.60 50.28 60.23 49.41 C 58.91 49.66 57.58 49.88 56.26 50.07 L 56.93 48.16 C 54.90 48.05 53.51 49.31 52.47 47.05 C 53.75 46.81 55.04 46.57 56.33 46.34 C 57.17 48.01 58.21 48.56 59.45 47.98 C 57.83 46.86 56.71 46.06 56.02 44.07 C 58.89 44.51 60.26 45.80 60.68 48.61 L 63.11 48.34 C 63.28 45.66 64.87 44.91 67.04 43.90 Z"/>
  <path id="path1994" fill="#004f9e" d="M 114.82 53.39 C 116.27 53.99 118.19 54.40 117.31 56.44 C 106.45 52.20 93.36 53.00 82.27 55.92 C 82.17 53.90 82.36 53.97 84.16 53.36 C 94.00 50.95 105.04 50.40 114.82 53.39 Z"/>
  <path id="path1996" fill="#004f9e" d="M 93.99 55.84 C 100.65 55.42 107.45 55.61 114.01 56.88 C 115.31 56.95 116.13 57.74 116.46 59.27 C 113.97 59.01 111.50 58.54 109.01 58.33 C 104.32 58.25 100.31 56.67 95.53 57.49 C 95.66 60.05 95.81 62.60 95.87 65.16 C 92.89 65.49 89.69 65.38 86.94 66.49 C 89.79 66.67 92.61 66.50 95.44 66.26 L 96.47 67.76 C 98.79 67.67 102.48 68.91 103.63 66.30 C 106.37 66.63 107.04 66.97 109.14 65.06 C 107.16 64.99 105.18 64.93 103.20 64.89 C 103.28 62.93 103.37 60.98 103.47 59.03 C 106.65 59.28 109.88 59.60 113.01 60.25 C 114.46 60.78 116.48 60.52 116.34 62.62 C 113.55 62.29 110.36 61.76 107.60 62.41 C 109.99 62.87 112.73 62.81 114.97 63.81 C 115.97 64.13 116.41 65.06 116.27 66.59 C 114.24 66.21 112.23 65.76 110.23 65.25 C 109.45 65.79 108.68 66.33 107.91 66.88 C 109.74 67.29 116.72 67.20 116.39 70.43 C 113.30 69.77 110.26 69.16 107.08 69.26 C 107.42 70.94 110.77 70.22 112.06 70.81 C 113.67 71.42 116.91 71.71 116.24 74.18 C 108.37 72.24 100.46 71.99 92.42 72.75 C 91.79 72.89 91.20 73.18 90.64 73.62 C 99.09 73.94 106.90 73.24 115.13 75.87 C 116.14 76.06 116.53 76.93 116.30 78.50 C 111.52 77.14 106.73 77.17 101.81 77.16 L 102.29 77.67 C 106.13 78.30 110.01 78.16 113.80 79.29 C 115.54 79.89 116.86 79.95 116.29 82.31 C 114.15 82.36 110.83 81.07 108.95 82.36 C 111.45 82.75 113.90 83.06 116.25 84.08 L 116.44 86.86 C 113.13 86.13 107.95 84.79 104.86 86.66 C 108.55 86.83 112.47 87.09 116.01 88.29 C 116.48 88.85 116.60 89.73 116.37 90.94 C 113.91 90.42 111.52 90.04 109.00 90.36 C 110.87 91.87 114.03 91.48 116.30 92.01 C 116.34 93.42 116.37 94.84 116.39 96.25 C 108.59 93.97 100.83 91.63 93.21 88.79 C 90.69 87.81 87.72 87.05 85.54 85.42 C 84.07 84.47 84.63 82.52 84.46 81.03 C 84.51 73.18 84.38 65.34 84.40 57.49 C 87.35 56.32 90.85 56.15 93.99 55.84 Z"/>
  <path id="path1998" fill="#004f9e" d="M 97.47 58.97 C 99.03 58.99 100.60 59.02 102.16 59.05 C 102.02 61.52 101.91 64.00 101.90 66.47 C 100.55 66.53 99.20 66.56 97.84 66.56 C 97.67 64.03 97.54 61.50 97.47 58.97 Z"/>
  <path id="path2000" fill="#004f9e" d="M 84.65 87.33 C 85.94 87.75 87.20 88.28 88.45 88.78 C 88.45 90.75 88.43 92.71 88.41 94.68 C 87.14 94.22 85.88 93.76 84.61 93.30 C 84.61 91.32 84.56 89.32 84.65 87.33 Z"/>
  <path id="path2002" fill="#004f9e" d="M 90.27 89.53 C 91.57 89.96 92.86 90.42 94.15 90.89 C 94.13 92.81 94.12 94.73 94.10 96.66 C 92.86 96.25 91.61 95.84 90.36 95.43 C 90.30 93.46 90.27 91.49 90.27 89.53 Z"/>
  <path id="path2004" fill="#004f9e" d="M 95.95 91.49 L 96.24 91.58 C 97.34 91.89 98.43 92.24 99.50 92.63 C 99.76 94.65 99.70 96.65 99.68 98.68 C 98.38 98.21 97.10 97.70 95.83 97.16 C 95.88 95.27 95.92 93.38 95.95 91.49 Z"/>
  <path id="path2006" fill="#004f9e" d="M 101.45 93.33 C 102.81 93.60 104.07 94.13 105.35 94.65 C 105.30 96.63 105.27 98.60 105.25 100.58 C 103.99 100.17 102.72 99.75 101.45 99.33 C 101.42 97.33 101.35 95.32 101.45 93.33 Z"/>
  <path id="path2008" fill="#004f9e" d="M 107.10 95.01 C 108.35 95.43 109.60 95.86 110.85 96.28 C 110.86 98.40 110.85 100.53 110.77 102.65 C 109.51 102.17 108.26 101.66 107.03 101.12 C 107.08 99.08 107.10 97.04 107.10 95.01 Z"/>
  <path id="path2010" fill="#004f9e" d="M 112.60 97.03 C 113.78 96.76 115.22 97.56 116.39 97.81 C 116.40 100.04 116.40 102.28 116.39 104.52 C 115.15 104.07 113.90 103.62 112.66 103.17 C 112.56 101.12 112.47 99.09 112.60 97.03 Z"/>
  <path id="path2012" fill="#004f9e" d="M 174.92 102.29 C 176.11 102.74 177.29 103.21 178.46 103.72 C 182.31 105.57 186.23 107.28 190.11 109.07 C 192.34 110.13 194.51 110.78 196.09 112.82 C 195.84 113.19 195.59 113.56 195.34 113.93 C 194.82 112.54 193.98 111.62 192.81 111.18 C 187.77 108.87 182.76 106.49 177.67 104.30 C 176.56 103.82 175.64 103.15 174.92 102.29 Z"/>
  <path id="path2014" fill="#004f9e" d="M 178.80 106.06 C 183.51 108.43 188.44 110.39 193.13 112.79 C 195.46 114.21 194.15 116.81 193.20 118.69 C 188.25 116.39 183.22 114.23 178.22 112.02 C 178.75 109.99 178.93 108.16 178.80 106.06 Z"/>
  <path id="path2016" fill="#ffffff" d="M 50.49 110.26 C 54.92 110.39 59.35 110.37 63.78 110.22 C 63.52 111.48 63.26 112.74 63.00 113.99 C 60.29 112.39 58.78 112.14 55.61 112.59 C 55.61 114.70 55.61 116.82 55.62 118.93 C 58.04 118.89 60.45 118.81 62.87 118.70 L 62.45 121.27 C 60.31 121.81 57.78 121.29 55.57 121.38 C 55.78 123.57 55.03 126.92 56.22 128.80 C 58.97 130.55 62.57 129.35 65.09 127.65 C 64.74 129.07 64.39 130.50 64.03 131.91 C 59.55 131.77 55.07 131.71 50.59 131.86 C 50.90 124.70 51.06 117.41 50.49 110.26 Z"/>
  <path id="path2018" fill="#ffffff" d="M 111.85 112.01 C 111.80 113.59 111.74 115.16 111.68 116.74 C 113.31 116.68 114.93 116.60 116.56 116.52 C 116.38 117.29 116.21 118.05 116.03 118.82 C 114.59 118.81 113.15 118.80 111.71 118.78 C 111.62 121.90 111.47 125.07 111.75 128.17 C 112.76 130.54 114.41 129.74 116.40 129.22 C 116.69 133.69 107.85 133.32 107.75 129.04 C 107.46 125.79 107.68 122.48 107.63 119.21 C 106.72 118.94 105.81 118.67 104.91 118.40 C 105.77 117.14 106.15 116.70 107.74 116.39 C 107.69 115.58 107.64 114.77 107.60 113.96 C 108.99 113.27 110.42 112.63 111.85 112.01 Z"/>
  <path id="path2020" fill="#ffffff" d="M 63.98 116.50 C 65.76 116.46 67.53 116.39 69.31 116.29 C 69.95 119.94 71.22 123.39 72.04 127.00 C 74.11 124.29 75.51 119.96 75.72 116.54 C 77.18 116.45 78.64 116.37 80.10 116.29 C 77.15 121.05 75.05 126.44 73.19 131.71 C 72.01 131.76 70.82 131.80 69.64 131.85 C 68.02 126.73 66.79 121.11 63.98 116.50 Z"/>
  <path id="path2022" fill="#ffffff" d="M 91.05 117.96 C 92.68 119.63 92.58 121.54 92.61 123.71 C 89.43 123.87 86.26 123.81 83.08 123.95 C 83.43 126.09 83.77 128.03 85.88 129.13 C 88.19 130.33 90.22 129.60 92.39 128.53 C 92.09 129.53 91.79 130.53 91.49 131.53 C 88.39 132.31 85.58 133.01 82.58 131.38 C 78.45 128.98 77.77 123.15 80.30 119.35 C 82.58 115.83 88.01 114.96 91.05 117.96 Z"/>
  <path id="path2024" fill="#ffffff" d="M 104.32 116.04 C 103.98 117.69 103.62 119.32 103.24 120.96 C 102.49 120.55 101.74 120.14 100.99 119.73 C 99.76 120.57 98.64 121.31 98.58 122.96 C 98.31 125.92 98.55 128.82 98.94 131.77 C 97.37 131.77 95.80 131.78 94.23 131.79 C 94.58 126.74 94.63 121.68 94.09 116.63 C 95.43 116.59 96.77 116.54 98.11 116.49 L 98.03 119.95 C 99.98 117.82 101.04 115.83 104.32 116.04 Z"/>
  <path id="path2026" fill="#ffffff" d="M 122.45 116.50 C 126.19 115.46 130.99 116.42 132.48 120.46 C 133.36 123.49 133.17 127.45 130.87 129.87 C 128.21 132.68 123.15 133.12 119.92 131.12 C 114.75 127.59 116.18 118.02 122.45 116.50 Z"/>
  <path id="path2028" fill="#ffffff" d="M 134.11 116.48 C 135.57 116.44 137.04 116.39 138.50 116.35 L 138.52 118.99 C 140.32 117.70 141.63 116.11 144.02 116.16 C 146.42 115.96 148.72 117.38 148.79 119.96 C 148.86 123.94 148.88 127.86 149.52 131.81 C 147.88 131.80 146.24 131.79 144.60 131.78 C 144.88 128.26 145.14 124.65 144.78 121.13 C 144.06 117.76 139.04 119.06 138.72 121.94 C 138.40 125.15 138.69 128.53 138.99 131.74 C 137.42 131.77 135.85 131.79 134.27 131.82 C 134.61 126.69 134.76 121.59 134.11 116.48 Z"/>
  <path id="path2030" fill="#004f9e" d="M 195.50 116.42 L 196.33 116.29 C 195.77 118.09 195.26 119.62 193.96 121.01 C 191.57 120.17 189.23 119.24 187.03 117.97 C 189.57 118.13 191.57 119.39 193.97 120.05 C 194.55 118.91 194.99 117.74 195.30 116.52 L 195.50 116.42 Z"/>
  <path id="path2032" fill="#ffffff" d="M 172.90 117.21 C 180.74 120.40 188.83 123.11 196.57 126.55 C 189.51 144.33 177.98 160.15 162.72 171.75 C 149.39 182.08 133.63 188.74 117.08 191.77 C 116.66 191.09 116.74 190.58 117.32 190.24 C 135.05 187.38 151.99 179.32 165.69 167.73 C 178.63 156.87 188.68 142.76 194.91 127.06 C 188.92 124.83 182.97 122.43 176.99 120.19 C 176.07 120.50 175.77 122.45 175.25 123.26 C 163.15 151.07 134.47 171.47 103.92 171.93 C 105.64 170.00 107.34 170.67 109.64 170.81 C 109.57 170.59 109.49 170.38 109.42 170.16 C 108.31 170.00 107.20 169.84 106.08 169.68 C 107.88 168.13 108.89 166.29 111.46 166.16 C 135.63 162.79 156.05 147.21 168.04 126.30 C 169.03 126.70 170.00 127.15 170.95 127.65 C 158.77 149.98 136.55 166.17 111.16 169.41 C 111.54 169.66 111.92 169.90 112.31 170.15 C 120.22 168.71 127.93 166.56 135.16 162.98 C 150.94 155.43 164.00 142.56 172.06 127.05 C 170.65 126.25 168.51 126.49 168.64 124.41 C 169.95 124.89 171.24 125.38 172.53 125.89 C 173.57 123.86 174.54 121.80 175.47 119.72 C 172.88 117.67 172.50 119.67 170.47 121.16 C 170.81 119.01 171.36 118.47 172.90 117.21 Z"/>
  <path id="path2034" fill="#004f9e" d="M 86.00 118.03 C 88.33 118.16 88.62 119.58 88.58 121.57 C 86.72 121.83 84.88 121.91 83.00 121.87 C 83.56 120.02 83.61 118.20 86.00 118.03 Z"/>
  <path id="path2036" fill="#004f9e" d="M 123.30 118.32 C 125.14 117.22 127.04 118.35 127.86 120.12 C 128.77 122.17 128.64 124.85 128.38 127.05 C 128.03 129.35 126.43 131.14 123.92 130.53 C 121.77 129.49 121.38 127.21 121.31 125.03 C 121.30 122.76 121.03 119.66 123.30 118.32 Z"/>
  <path id="path2038" fill="#ffffff" d="M 31.90 126.37 C 44.00 147.26 64.32 162.82 88.54 166.18 C 91.31 166.33 92.42 168.39 94.00 170.33 C 86.75 169.05 79.68 168.22 72.75 165.50 C 54.06 158.84 38.66 145.10 29.08 127.82 C 29.74 127.05 30.68 126.57 31.90 126.37 Z"/>
  <path id="path2040" fill="#ffffff" d="M 176.47 132.43 C 179.34 133.78 182.06 135.48 184.83 137.02 C 184.50 137.63 184.18 138.23 183.85 138.84 C 182.31 138.00 180.77 137.15 179.22 136.31 C 180.29 137.92 181.40 139.50 182.54 141.05 C 181.36 142.76 177.73 141.22 175.93 141.27 C 177.35 142.36 178.85 143.34 180.39 144.27 C 179.96 145.24 179.49 145.71 178.97 145.70 C 176.21 144.17 173.51 142.21 171.09 140.16 C 172.85 138.18 177.29 140.02 179.61 139.80 C 178.26 137.80 176.90 135.81 175.47 133.88 C 175.79 133.39 176.13 132.91 176.47 132.43 Z"/>
  <path id="path2042" fill="#ffffff" d="M 23.11 132.47 L 24.05 132.79 C 24.98 135.04 22.41 138.37 21.84 140.72 C 23.55 139.68 25.26 138.64 26.97 137.60 C 27.28 138.26 27.58 138.91 27.88 139.57 C 25.18 141.20 22.46 142.80 19.84 144.56 L 18.79 142.95 C 19.51 140.63 20.54 138.39 21.38 136.10 C 19.68 137.01 18.02 138.46 16.13 138.91 C 15.27 137.80 15.37 137.02 16.44 136.56 C 18.67 135.21 20.88 133.82 23.11 132.47 Z"/>
  <path id="path2044" fill="#ffffff" d="M 97.68 142.33 C 98.51 144.29 97.19 144.81 96.10 146.21 C 97.30 147.46 98.43 148.09 98.27 150.04 C 97.72 153.52 91.60 154.00 90.72 150.48 C 90.35 148.65 91.78 147.77 92.87 146.59 C 92.32 145.64 90.74 144.29 91.28 143.15 C 92.21 140.15 96.02 139.52 97.68 142.33 Z"/>
  <path id="path2046" fill="#ffffff" d="M 112.01 141.01 C 114.25 141.99 113.76 143.27 113.96 145.47 C 112.53 144.26 112.65 142.26 110.99 141.44 C 109.92 141.90 109.19 142.73 108.78 143.91 C 109.25 144.47 109.72 145.03 110.18 145.60 C 112.97 145.79 116.11 149.94 113.17 152.20 C 111.04 154.36 106.83 153.18 106.71 150.01 C 106.65 148.67 108.15 147.77 108.93 146.81 C 108.17 145.61 106.70 144.48 107.54 142.95 C 107.95 141.47 110.59 140.13 112.01 141.01 Z"/>
  <path id="path2048" fill="#ffffff" d="M 88.96 140.98 C 88.88 144.89 88.94 148.80 88.91 152.72 L 87.22 152.59 C 87.30 149.32 87.34 146.04 87.25 142.76 C 86.16 142.73 85.06 142.69 83.97 142.65 C 85.42 141.31 87.11 141.31 88.96 140.98 Z"/>
  <path id="path2050" fill="#ffffff" d="M 100.06 141.09 C 102.37 140.96 104.71 141.13 107.01 141.29 C 105.35 145.31 102.55 148.58 101.50 152.92 C 100.73 152.83 99.96 152.73 99.20 152.64 C 101.18 149.34 103.10 146.00 105.10 142.71 C 103.10 142.74 101.11 142.78 99.12 142.80 C 99.32 142.12 99.63 141.55 100.06 141.09 Z"/>
  <path id="path2052" fill="#ffffff" d="M 29.06 141.55 C 30.62 142.52 31.42 143.91 32.28 145.46 L 29.93 145.47 C 28.01 147.02 25.19 147.99 25.07 150.79 C 23.77 150.04 22.78 148.62 21.83 147.48 C 24.57 146.98 28.88 144.69 29.06 141.55 Z"/>
  <path id="path2054" fill="#004f9e" d="M 93.24 142.20 C 94.77 140.52 95.87 141.93 96.89 143.21 C 96.46 144.03 96.00 144.82 95.50 145.60 C 93.76 146.15 92.19 143.70 93.24 142.20 Z"/>
  <path id="path2056" fill="#ffffff" d="M 169.88 142.99 C 171.59 144.30 173.35 145.65 174.81 147.24 C 177.52 150.16 172.95 155.65 169.60 153.40 C 167.66 152.15 165.92 150.53 164.15 149.05 L 165.78 147.60 C 167.59 148.94 169.22 150.62 171.14 151.79 C 172.55 152.03 174.30 150.33 173.43 148.99 C 171.80 147.22 169.80 145.79 168.07 144.11 L 169.88 142.99 Z"/>
  <path id="path2058" fill="#004f9e" d="M 94.07 146.97 C 95.72 147.63 97.70 149.10 96.41 151.06 C 95.67 151.59 94.87 152.04 94.02 152.41 C 93.26 151.63 92.53 150.83 91.83 150.00 C 92.42 148.85 93.05 147.79 94.07 146.97 Z"/>
  <path id="path2060" fill="#004f9e" d="M 110.21 147.25 C 111.80 147.66 112.39 148.76 113.29 150.00 C 112.25 151.73 111.46 153.33 109.20 151.87 C 107.45 150.11 108.64 148.54 110.21 147.25 Z"/>
  <path id="path2062" fill="#ffffff" d="M 34.10 147.45 L 35.75 148.95 C 33.81 150.68 31.87 152.41 29.94 154.15 C 30.55 155.18 33.45 156.85 31.99 157.92 C 30.18 158.33 28.39 154.88 27.06 153.89 C 29.40 151.74 31.68 149.52 34.10 147.45 Z"/>
  <path id="path2064" fill="#ffffff" d="M 162.08 151.04 C 164.77 152.85 167.10 155.44 169.31 157.81 L 167.92 159.26 C 166.71 158.04 165.45 156.87 164.17 155.73 C 164.77 157.54 165.40 159.35 166.07 161.14 C 164.38 162.31 161.48 160.00 159.66 159.58 C 160.64 161.49 164.26 162.81 161.92 165.06 C 159.66 162.78 157.52 160.36 155.53 157.83 L 155.81 156.86 C 158.08 156.19 161.24 158.50 163.56 159.11 C 162.85 156.84 161.88 154.63 161.35 152.32 L 162.08 151.04 Z"/>
  <path id="path2066" fill="#ffffff" d="M 47.53 160.04 C 46.39 163.28 44.89 158.86 42.99 158.98 C 42.61 161.37 45.95 163.51 43.58 165.57 C 42.01 168.16 36.18 164.71 37.47 162.43 C 39.56 161.48 39.90 165.73 42.36 164.08 C 41.72 162.22 39.90 160.04 40.97 158.10 C 43.41 155.76 46.00 157.86 47.53 160.04 Z"/>
  <path id="path2068" fill="#ffffff" d="M 153.54 158.95 C 153.58 159.86 153.63 160.78 153.67 161.69 C 155.37 163.83 156.37 165.95 159.18 166.84 C 157.89 167.73 156.59 168.59 155.24 169.40 C 155.52 166.55 153.25 164.98 151.83 162.73 C 151.05 162.54 150.26 162.34 149.47 162.15 C 150.77 160.99 152.10 159.92 153.54 158.95 Z"/>
  <path id="path2070" fill="#ffffff" d="M 51.84 162.77 L 53.55 163.97 C 52.92 167.33 52.08 170.66 51.27 173.98 C 49.89 173.50 49.34 172.31 49.63 170.41 C 48.81 169.89 47.99 169.37 47.17 168.86 C 45.30 169.82 45.36 170.38 43.48 168.91 C 46.23 166.82 48.96 164.67 51.84 162.77 Z"/>
  <path id="path2072" fill="#ffffff" d="M 148.65 163.26 C 148.94 165.09 147.52 165.11 146.36 166.15 C 147.72 168.38 149.08 170.61 150.37 172.89 L 148.67 173.85 C 147.02 171.78 145.79 169.38 144.34 167.17 L 142.01 168.63 C 140.96 167.73 140.87 167.10 141.75 166.72 C 143.92 165.65 146.21 163.36 148.65 163.26 Z"/>
  <path id="path2074" fill="#004f9e" d="M 51.25 165.67 C 51.46 167.61 50.62 170.00 48.48 168.02 C 48.97 166.45 49.89 165.66 51.25 165.67 Z"/>
  <path id="path2076" fill="#ffffff" d="M 56.09 165.73 C 58.76 166.84 61.45 168.13 63.77 169.87 C 62.16 171.28 61.53 170.36 59.94 169.66 C 58.71 171.99 57.49 174.32 56.22 176.63 C 54.59 175.96 54.19 175.15 55.02 174.18 C 55.97 172.36 57.04 170.61 57.99 168.79 C 57.15 168.22 56.31 167.65 55.47 167.09 L 56.09 165.73 Z"/>
  <path id="path2078" fill="#ffffff" d="M 139.01 168.76 C 140.52 169.29 141.48 170.33 141.50 172.00 C 141.57 174.01 139.74 174.60 138.42 175.69 C 139.40 177.03 139.63 178.21 139.10 179.23 L 137.44 178.61 C 136.10 176.03 135.06 173.30 133.66 170.74 C 135.32 169.87 137.07 168.67 139.01 168.76 Z"/>
  <path id="path2080" fill="#ffffff" d="M 65.28 170.20 C 66.86 170.66 68.36 171.31 69.88 171.95 C 67.20 173.24 64.95 177.93 66.33 180.65 C 64.69 180.29 63.16 179.69 61.64 179.01 C 62.32 178.51 63.01 178.00 63.69 177.50 C 64.35 175.95 65.00 174.39 65.58 172.81 C 65.48 171.94 65.38 171.07 65.28 170.20 Z"/>
  <path id="path2082" fill="#004f9e" d="M 139.08 173.09 C 137.69 174.88 136.95 172.62 136.33 171.48 C 137.90 169.74 140.14 171.15 139.08 173.09 Z"/>
  <path id="path2084" fill="#ffffff" d="M 89.96 170.79 C 91.28 170.82 94.89 170.41 95.56 171.68 C 93.93 171.86 92.27 171.89 90.56 171.78 C 90.19 171.61 89.99 171.28 89.96 170.79 Z"/>
  <path id="path2086" fill="#ffffff" d="M 127.49 172.62 C 131.08 171.13 133.83 174.68 133.74 177.98 C 133.99 180.80 130.58 183.14 128.04 182.12 C 124.30 180.59 123.08 174.28 127.49 172.62 Z"/>
  <path id="path2088" fill="#ffffff" d="M 77.92 174.87 L 76.97 176.48 C 75.91 175.94 74.86 175.41 73.80 174.88 L 73.24 176.11 C 74.60 177.83 77.66 179.24 75.87 181.80 C 73.51 184.43 71.72 182.82 69.14 181.70 C 69.40 181.11 69.66 180.51 69.92 179.92 C 71.35 180.51 72.52 181.32 74.15 181.06 C 74.13 178.63 70.04 177.77 71.02 175.10 C 72.41 172.09 75.86 173.42 77.92 174.87 Z"/>
  <path id="path2090" fill="#004f9e" d="M 128.27 174.24 C 131.47 173.51 133.28 181.30 128.95 180.32 C 127.31 179.26 125.97 175.17 128.27 174.24 Z"/>
  <path id="path2092" fill="#ffffff" d="M 117.36 175.78 C 115.46 178.13 116.66 183.21 118.89 185.10 C 117.34 185.35 115.80 185.60 114.25 185.84 C 115.37 182.54 114.61 179.27 112.91 176.32 C 114.38 176.02 115.85 175.78 117.36 175.78 Z"/>
  <path id="path2094" fill="#ffffff" d="M 85.20 176.27 L 86.81 176.28 C 88.31 178.13 89.13 180.43 90.65 182.30 C 91.43 180.21 90.23 176.77 93.27 176.61 C 93.64 179.91 92.69 183.37 92.34 186.66 C 91.73 186.60 91.11 186.55 90.49 186.49 C 89.21 184.75 88.48 182.03 86.67 180.84 C 86.45 182.52 86.25 184.20 86.04 185.88 L 84.10 185.63 C 84.27 182.55 84.44 179.25 85.20 176.27 Z"/>
  <path id="path2096" fill="#ffffff" d="M 96.34 177.39 C 97.96 177.20 99.56 177.29 101.18 177.39 C 100.74 178.18 100.27 178.97 99.78 179.74 C 99.65 182.40 99.45 184.53 100.93 186.86 C 99.40 186.84 97.88 186.83 96.35 186.83 C 97.90 184.54 97.67 182.28 97.56 179.63 C 97.14 178.89 96.74 178.14 96.34 177.39 Z"/>
  <path id="path2098" fill="#ffffff" d="M 109.90 178.81 C 108.61 178.82 107.31 178.84 106.01 178.88 C 106.39 181.57 110.95 180.25 110.77 183.88 C 110.13 187.37 107.00 186.76 104.32 186.59 C 104.33 185.97 104.34 185.36 104.36 184.74 C 105.83 184.87 107.27 184.80 108.67 184.52 C 108.48 182.07 105.03 182.85 104.07 180.86 C 101.59 177.40 110.53 174.43 109.90 178.81 Z"/>
  <path id="path2100" fill="#004f9e" d="M 92.52 193.34 L 92.84 193.15 L 93.19 192.93 C 95.87 194.24 97.74 197.05 99.99 198.98 C 102.23 196.95 104.18 194.29 106.81 192.79 C 107.16 193.08 107.51 193.36 107.85 193.64 C 104.71 194.11 102.53 198.11 100.09 200.00 L 99.87 200.00 C 97.42 198.06 95.26 194.18 92.10 193.61 L 92.52 193.34 Z"/>
</svg>