<?xml version="1.0" encoding="UTF-8"?>
<!-- Generator: Adobe Illustrator 13.0.0, SVG Export Plug-In . SVG Version: 6.00 Build 14948)  -->
<!DOCTYPE svg PUBLIC "-//W3C//DTD SVG 1.0//EN" "http://www.w3.org/TR/2001/REC-SVG-20010904/DTD/svg10.dtd">
<svg version="1.0" id="Ebene_1" xmlns="http://www.w3.org/2000/svg" xmlns:xlink="http://www.w3.org/1999/xlink" x="0px" y="0px" width="340.231px" height="452.8px" viewBox="0 0 340.231 452.8" enable-background="new 0 0 340.231 452.8" xml:space="preserve">
<path fill="#FFFFFF" d="M332.744,21.319C332.214,21.191,257.846,0.033,170.877,0c-0.255,0-0.506,0.01-0.762,0.01  S169.609,0,169.354,0C82.385,0.033,8.018,21.191,7.488,21.319C3.06,22.573,0,26.621,0,31.233v237.459l0.189,1.916  c0.204,1.561,23.121,118.723,165.769,181.331c1.315,0.572,2.729,0.861,4.144,0.861c0.005,0,0.009-0.004,0.014-0.004  s0.009,0.004,0.014,0.004c1.415,0,2.829-0.289,4.144-0.861c142.648-62.608,165.565-179.77,165.769-181.331l0.189-1.916V31.233  C340.231,26.621,337.171,22.573,332.744,21.319z"/>
<path d="M331.093,27.061c-0.222-0.057-75.262-20.94-160.977-21.082C84.4,6.121,9.361,27.005,9.139,27.061  c-1.878,0.516-3.165,2.214-3.165,4.163v237.468l0.071,0.809c0.085,0.644,22.17,115.478,162.33,176.97  c0.553,0.241,1.149,0.364,1.741,0.364s1.187-0.123,1.741-0.364c140.16-61.492,162.245-176.326,162.33-176.97l0.071-0.809V31.224  C334.257,29.275,332.97,27.577,331.093,27.061z"/>
<path fill="#FFFFFF" d="M170.116,14.645c-35.296,0.042-68.739,3.685-95.795,7.895v349.19c22.686,23.636,53.645,47.273,95.795,66.038  c42.15-18.765,73.109-42.402,95.795-66.038V22.539C238.854,18.329,205.412,14.687,170.116,14.645z"/>
<path d="M123.25,337.89c-13.207-13.197-19.275-28.896-19.266-44.62l0,0c0-18.75,8.566-37.491,23.485-52.4l0,0  c11.698-11.693,25.718-19.47,40.277-22.303l0,0l-20.354-20.345c-5.449,5.444-26.465,26.413-34.299,34.247l0,0h0.095l-3.197,3.16  l-1.126,1.093c-0.748,0.634-1.892,1.22-3.197,1.201l0,0c-1.476,0.095-3.032-0.705-4.03-1.845l0,0l-11.154-11.276  c-1.107-0.97-1.958-2.484-1.864-4.002l0,0c-0.024-1.315,0.577-2.46,1.334-3.344l0,0l77.272-77.239l-17.019-16.995  c-5.439,5.435-26.465,26.413-34.303,34.256l0,0h0.076l-3.179,3.146l-1.135,1.102c-0.729,0.61-1.864,1.235-3.203,1.211l0,0  c-1.48,0.095-3.008-0.714-4.016-1.85l0,0l-11.168-11.281c-1.083-0.97-1.944-2.464-1.859-3.997l0,0  c-0.024-1.32,0.577-2.464,1.343-3.349l0,0l86.34-86.297c1.769-1.831,4.262-2.966,7-2.966l0,0c2.715-0.014,5.142,1.102,6.859,2.89  l0,0l57.453,57.458c0.634,0.756,1.225,1.901,1.202,3.207l0,0c0.094,1.466-0.695,3.022-1.821,4.021l0,0l-0.544,0.539h-0.023  c-0.327,0.303-0.771,0.748-1.306,1.272l0,0c-1.093,1.083-2.545,2.526-3.997,3.978l0,0c-2.904,2.89-5.79,5.775-5.799,5.775l0,0  l-1.315,1.296L188.303,85.11l-22.047,22.066l81.34,81.349c0.644,0.762,1.235,1.916,1.211,3.211l0,0  c0.095,1.471-0.695,3.018-1.831,4.03l0,0l-12.951,12.871l-48.522-48.522l-22.057,22.047l40.05,40.05  c7.407,3.169,14.507,7.938,20.993,14.437l0,0c12.501,12.648,19.592,27.875,19.602,43.044l0,0c0,10.988-3.746,21.892-11.688,31.55  l0,0l-1.296,1.58l-18.93-18.944l0.729-1.23c3.534-5.988,5.596-12.133,5.586-18.207l0,0c-0.009-7.261-2.862-14.541-10.052-21.749l0,0  c-7.734-7.715-16.149-10.818-24.725-10.837l0,0c-12.999-0.023-26.508,7.417-37.155,18.088l0,0  c-10.671,10.639-18.103,24.162-18.079,37.166l0,0c0.01,8.576,3.123,16.995,10.828,24.71l0,0c6.532,6.523,13.793,9.3,21.225,9.309  l0,0c8.457,0,17.203-3.689,24.961-10.089l0,0l1.291-1.05l18.646,18.646l-1.461,1.301c-11.911,10.567-25.77,15.988-39.606,15.988l0,0  C149.767,355.927,135.254,349.895,123.25,337.89L123.25,337.89z"/>
<path fill="#E53138" d="M175.527,221.116l-3.694,0.497c-14.919,2.048-29.602,9.702-41.753,21.863l0,0  c-14.342,14.323-22.416,32.179-22.416,49.794l0,0c0.014,14.777,5.633,29.431,18.183,42.009l0,0  c11.418,11.395,24.933,16.953,38.518,16.962l0,0c12.308,0,24.72-4.593,35.685-13.784l0,0l-13.519-13.528  c-7.947,6.183-16.953,9.876-25.997,9.886l0,0c-8.377,0.01-16.712-3.24-23.826-10.387l0,0c-8.334-8.301-11.93-17.823-11.911-27.316  l0,0c0.019-14.427,8.042-28.651,19.162-39.767l0,0c11.121-11.121,25.339-19.147,39.757-19.171l0,0  c9.489-0.009,19.015,3.581,27.326,11.911l0,0c7.744,7.724,11.154,16.083,11.135,24.36l0,0c0,6.466-2.043,12.805-5.383,18.831l0,0  l14.03,14.034c6.556-8.632,9.579-18.064,9.579-27.615l0,0c0.009-14.001-6.57-28.348-18.523-40.448l0,0  c-6.258-6.272-13.079-10.808-20.15-13.793l0,0l-0.355-0.151l-43.144-43.139l27.274-27.255l48.522,48.517l10.354-10.269  c0.88-1.022,0.648-0.61,0.743-1.419l0,0c-0.019-0.369-0.038-0.421-0.251-0.729l0,0l-83.833-83.832l27.265-27.274l48.526,48.536  c2.81-2.805,9.271-9.262,10.369-10.283l0,0c0.87-0.998,0.643-0.596,0.733-1.405l0,0c-0.019-0.369-0.028-0.421-0.25-0.748l0,0  l-57.349-57.339c-1.116-1.135-2.507-1.774-4.229-1.788l0,0c-1.717,0-3.254,0.705-4.371,1.863l0,0l-86.245,86.193  c-0.345,0.454-0.364,0.525-0.388,0.875l0,0c0.085,0.743-0.128,0.355,0.79,1.396l0,0l11.177,11.291  c1.007,0.894,0.62,0.667,1.395,0.761l0,0c0.341-0.023,0.436-0.042,0.762-0.274l0,0l0.842-0.833l0.062-0.076l0.052-0.062l0.104-0.104  c0.085-0.085,0.189-0.199,0.336-0.35l0,0c0.289-0.284,0.709-0.705,1.235-1.23l0,0c1.059-1.064,2.568-2.587,4.385-4.398l0,0  c3.633-3.628,8.471-8.472,13.315-13.301l0,0c9.669-9.659,19.352-19.309,19.352-19.309l0,0l1.291-1.292l22.236,22.189l-79.75,79.699  c-0.327,0.445-0.359,0.53-0.383,0.885l0,0c0.094,0.757-0.137,0.359,0.79,1.41l0,0l11.168,11.281c0.998,0.875,0.61,0.663,1.41,0.748  l0,0c0.354-0.019,0.43-0.042,0.747-0.26l0,0l0.908-0.903l0.047-0.057l0.104-0.113c0.085-0.076,0.189-0.189,0.336-0.341l0,0  c0.289-0.284,0.709-0.705,1.234-1.239l0,0c1.06-1.064,2.568-2.578,4.385-4.399l0,0c3.633-3.628,8.472-8.462,13.315-13.301l0,0  c9.669-9.659,19.351-19.318,19.351-19.318l0,0l1.292-1.296l25.5,25.477l-1.306,1.305l1.306-1.305L175.527,221.116L175.527,221.116z"/>
</svg>