<?xml version="1.0" encoding="UTF-8" standalone="no"?>
<!DOCTYPE svg PUBLIC "-//W3C//DTD SVG 1.1//EN" "http://www.w3.org/Graphics/SVG/1.1/DTD/svg11.dtd">
<svg xmlns="http://www.w3.org/2000/svg" version="1.1" viewBox="0 0 200 200" width="200.0pt" height="200.0pt">
<path d="M 0.00 0.00 L 200.00 0.00 L 200.00 200.00 L 0.00 200.00 L 0.00 0.00 Z" fill-opacity="0"/>
<path d="M 39.30 3.70 C 79.99 3.70 120.67 3.70 161.36 3.71 C 161.34 15.93 161.34 28.15 161.36 40.38 C 120.67 40.38 79.97 40.41 39.28 40.36 C 39.38 28.14 39.35 15.92 39.30 3.70 Z" fill="#030000"/>
<path d="M 49.44 6.75 C 51.57 6.75 53.70 6.75 55.83 6.75 C 56.45 12.36 56.78 17.98 57.11 23.61 C 58.38 18.01 58.66 12.34 59.42 6.66 C 61.45 6.67 63.47 6.67 65.50 6.68 C 63.83 16.87 62.20 27.07 60.50 37.26 C 57.98 37.25 55.46 37.25 52.94 37.23 C 51.87 27.06 50.61 16.91 49.44 6.75 Z" fill="#ffffff"/>
<path d="M 67.06 6.66 C 69.23 6.66 71.40 6.67 73.57 6.67 C 73.61 16.93 73.56 27.18 73.60 37.44 C 71.37 37.42 69.14 37.41 66.91 37.38 C 66.98 27.15 66.74 16.89 67.06 6.66 Z" fill="#ffffff"/>
<path d="M 75.63 6.67 C 80.15 6.66 84.68 6.66 89.20 6.67 C 89.14 8.29 89.15 9.92 89.08 11.54 C 87.96 11.53 86.84 11.51 85.72 11.50 C 85.76 20.14 85.69 28.77 85.76 37.41 C 83.44 37.42 81.13 37.42 78.82 37.42 C 78.84 28.78 78.79 20.14 78.85 11.50 C 77.77 11.50 76.70 11.49 75.62 11.48 C 75.62 9.88 75.62 8.28 75.63 6.67 Z" fill="#ffffff"/>
<path d="M 90.76 6.67 C 94.43 6.66 98.10 6.66 101.78 6.67 C 101.79 8.27 101.81 9.88 101.82 11.48 C 100.40 11.48 98.98 11.49 97.56 11.50 C 97.56 13.81 97.56 16.11 97.57 18.42 C 98.99 18.43 100.40 18.44 101.82 18.45 C 101.81 20.04 101.80 21.63 101.78 23.22 C 100.37 23.23 98.97 23.23 97.56 23.23 C 97.55 26.35 97.55 29.47 97.57 32.59 C 98.99 32.60 100.40 32.61 101.82 32.61 C 101.81 34.22 101.81 35.82 101.82 37.42 C 98.11 37.42 94.41 37.42 90.71 37.41 C 90.74 27.16 90.67 16.91 90.76 6.67 Z" fill="#ffffff"/>
<path d="M 106.95 6.76 C 110.58 6.58 114.33 6.51 117.95 6.84 C 120.92 8.35 119.41 14.35 119.73 17.15 C 117.54 17.14 115.36 17.13 113.17 17.13 C 112.72 15.51 114.33 10.00 110.91 11.87 C 110.76 13.51 110.77 15.15 110.76 16.79 C 113.34 18.35 116.15 19.67 118.56 21.48 C 119.52 22.25 119.48 23.84 119.57 24.96 C 119.62 28.25 119.70 31.58 119.51 34.87 C 119.53 36.16 118.27 37.20 117.06 37.31 C 113.46 37.53 109.48 37.52 105.88 37.31 C 104.35 36.92 103.86 35.50 103.85 34.06 C 103.72 31.10 103.84 28.13 103.83 25.17 C 106.02 25.17 108.20 25.16 110.39 25.16 C 110.42 27.55 110.46 29.93 110.60 32.31 C 111.34 32.41 112.08 32.48 112.82 32.54 C 113.06 30.31 113.14 28.07 113.15 25.82 C 110.87 24.03 108.34 22.66 105.93 21.07 C 104.59 20.21 104.27 19.59 104.16 18.01 C 104.03 15.07 103.95 12.06 104.30 9.14 C 104.47 7.86 105.66 6.77 106.95 6.76 Z" fill="#ffffff"/>
<path d="M 124.95 6.76 C 128.58 6.58 132.33 6.50 135.96 6.85 C 138.96 8.31 137.35 14.37 137.73 17.12 C 135.53 17.12 133.33 17.13 131.14 17.24 C 131.12 15.43 131.14 13.67 131.00 11.87 C 127.80 10.01 128.89 15.31 128.90 16.89 L 129.64 17.30 C 131.97 18.88 135.75 20.11 137.24 22.51 C 137.91 26.23 137.54 30.24 137.56 34.03 C 137.67 35.75 136.85 37.07 135.06 37.31 C 131.46 37.53 127.48 37.52 123.88 37.31 C 122.28 36.91 121.88 35.54 121.84 34.06 C 121.73 31.10 121.84 28.13 121.81 25.17 C 124.00 25.17 126.19 25.16 128.38 25.16 C 128.40 27.55 128.44 29.93 128.59 32.32 C 129.33 32.40 130.07 32.47 130.81 32.52 C 130.98 30.34 131.62 27.40 130.60 25.41 C 128.27 23.36 125.07 22.26 122.76 20.17 C 121.57 17.52 122.20 13.84 122.10 10.96 C 122.07 8.90 122.58 6.99 124.95 6.76 Z" fill="#ffffff"/>
<path d="M 140.13 6.67 C 143.81 6.66 147.49 6.66 151.17 6.67 C 151.17 8.28 151.17 9.88 151.18 11.49 C 149.74 11.50 148.31 11.51 146.87 11.51 C 146.88 13.82 146.91 16.14 147.01 18.45 C 148.40 18.44 149.79 18.42 151.17 18.41 C 151.17 20.01 151.17 21.60 151.16 23.19 C 149.74 23.23 148.31 23.26 146.89 23.29 C 146.89 26.37 146.89 29.45 146.89 32.54 C 148.33 32.59 149.77 32.61 151.21 32.66 C 151.19 34.25 151.17 35.83 151.15 37.41 C 147.47 37.42 143.79 37.42 140.11 37.42 C 140.19 27.17 140.15 16.92 140.13 6.67 Z" fill="#ffffff"/>
<path d="M 131.00 11.87 C 131.14 13.67 131.12 15.43 131.14 17.24 L 129.64 17.30 L 128.90 16.89 C 128.89 15.31 127.80 10.01 131.00 11.87 Z" fill="#030000"/>
<path d="M 39.33 42.83 C 80.00 42.84 120.67 42.83 161.35 42.84 C 161.35 82.26 161.34 121.68 161.35 161.11 C 161.55 162.75 160.14 164.00 159.26 165.25 C 148.84 177.74 135.37 188.48 119.82 193.73 C 106.38 198.35 91.44 197.99 78.21 192.83 C 62.84 186.93 49.32 175.60 39.31 162.68 C 39.33 122.73 39.29 82.78 39.33 42.83 Z" fill="#030000"/>
<path d="M 41.03 44.54 C 60.80 44.48 80.58 44.55 100.35 44.50 C 100.13 51.67 100.82 59.05 99.96 66.14 C 97.84 61.46 95.78 56.76 93.49 52.15 C 95.10 50.20 96.70 48.25 98.25 46.26 C 92.83 46.15 87.39 46.11 81.97 46.20 C 78.93 45.88 77.78 49.80 75.02 49.82 C 73.03 50.31 69.19 49.97 68.22 52.18 C 67.06 55.80 67.23 59.97 67.03 63.75 C 71.78 60.39 76.59 61.18 82.02 61.09 C 84.85 69.11 86.92 77.61 83.15 85.72 C 73.18 79.48 63.39 72.94 53.54 66.50 C 52.30 68.71 49.19 72.44 50.94 74.94 C 54.25 78.51 58.48 81.24 62.05 84.58 C 56.68 83.24 51.33 81.83 45.96 80.49 C 44.84 83.48 43.72 86.19 46.03 88.99 C 49.81 91.46 54.60 92.20 58.55 94.50 C 53.51 94.51 48.48 94.08 43.43 94.06 C 43.42 96.30 43.07 98.84 43.71 101.02 C 44.40 102.46 45.68 102.96 47.16 103.24 C 51.55 104.02 56.01 104.43 60.41 105.17 C 55.08 106.79 49.56 107.80 44.15 109.12 C 45.14 111.58 45.80 116.53 49.11 116.76 C 53.67 116.79 58.24 115.88 62.81 115.62 C 58.31 118.14 53.73 120.52 49.20 122.98 C 50.76 125.20 52.63 130.36 55.99 129.90 C 60.35 128.73 64.33 126.35 68.65 124.99 C 65.19 128.51 61.52 131.83 57.95 135.25 C 59.87 137.04 63.08 141.68 66.04 140.48 C 69.51 138.50 72.53 135.69 75.73 133.31 C 74.98 137.84 74.29 142.38 73.59 146.91 C 69.26 147.30 64.92 147.47 60.57 147.76 C 60.45 150.14 60.38 152.51 60.34 154.88 C 61.46 154.05 62.57 153.16 63.79 152.48 C 65.56 152.45 67.32 152.52 69.09 152.69 C 66.99 154.98 64.75 157.13 62.49 159.26 C 64.38 161.16 66.27 163.05 68.18 164.93 C 68.22 163.43 68.25 161.93 68.27 160.43 C 69.66 159.27 71.05 158.10 72.46 156.96 C 72.67 160.19 72.87 163.42 73.29 166.64 C 76.12 166.65 78.94 166.63 81.77 166.57 C 80.59 165.32 79.31 164.08 78.32 162.67 C 78.19 159.28 79.31 155.71 79.80 152.34 C 82.32 152.66 83.98 153.71 85.95 155.18 C 85.92 152.54 85.75 149.95 85.42 147.33 C 83.97 147.12 82.52 146.91 81.07 146.69 C 82.67 141.07 84.25 135.45 85.85 129.83 C 89.12 131.39 92.50 132.62 95.94 133.76 C 95.08 134.83 94.26 135.92 93.48 137.05 C 93.03 138.70 94.77 140.57 95.51 141.96 C 89.71 151.44 85.02 162.24 83.13 173.23 C 82.42 174.95 86.13 174.98 87.07 175.59 C 89.23 168.85 91.96 162.43 95.95 156.55 C 94.96 163.20 93.85 169.83 93.00 176.50 C 94.23 176.80 95.45 177.11 96.67 177.42 C 97.87 171.24 98.30 165.00 100.01 158.90 C 100.73 170.99 100.18 183.19 100.34 195.31 C 78.72 195.26 59.63 183.06 45.51 167.51 C 43.87 165.42 40.62 162.92 41.05 160.03 C 41.07 121.54 41.12 83.03 41.03 44.54 Z" fill="#f6dc05"/>
<path d="M 102.42 46.22 C 107.95 46.24 113.50 46.12 119.03 46.23 C 121.06 46.12 122.76 48.51 124.24 49.68 C 126.77 50.04 130.35 49.85 132.26 51.79 C 133.57 55.52 133.38 59.93 133.61 63.85 C 128.88 60.46 123.92 61.05 118.47 61.19 C 115.97 68.69 113.47 78.40 117.65 85.71 C 127.43 79.21 137.33 72.89 147.13 66.43 C 148.37 68.84 151.71 72.80 149.35 75.38 C 146.05 78.64 142.14 81.31 138.73 84.48 C 144.02 83.20 149.30 81.86 154.54 80.41 C 155.78 83.24 156.88 86.82 154.27 89.25 C 150.32 91.50 145.71 92.56 141.59 94.55 C 146.80 94.45 151.99 94.14 157.19 94.02 C 157.03 96.80 158.25 101.62 154.91 102.89 C 150.16 104.02 145.20 104.24 140.41 105.23 C 145.69 106.76 151.12 107.83 156.47 109.10 C 155.48 111.47 154.89 116.18 151.86 116.70 C 147.24 116.91 142.54 115.88 137.91 115.64 C 142.37 118.15 146.93 120.50 151.42 122.96 C 149.96 125.16 148.06 129.93 144.99 129.98 C 140.53 128.95 136.40 126.48 132.06 124.99 C 135.50 128.53 139.13 131.88 142.67 135.31 C 140.68 137.04 138.08 141.11 135.14 140.68 C 131.41 139.10 128.21 135.76 124.92 133.40 C 125.60 137.90 126.33 142.39 126.99 146.89 C 131.39 147.31 135.80 147.44 140.20 147.81 C 140.22 150.23 140.22 152.64 140.20 155.05 C 139.15 154.16 138.10 153.26 137.05 152.37 C 135.25 152.49 133.45 152.62 131.65 152.75 C 133.72 154.98 135.90 157.10 138.14 159.17 C 136.24 161.10 134.33 163.03 132.39 164.92 C 132.42 163.51 132.45 162.09 132.49 160.68 C 131.04 159.43 129.55 158.22 128.02 157.06 C 127.81 160.12 127.84 163.25 127.37 166.28 C 124.86 167.19 121.55 166.50 118.89 166.51 C 120.13 165.09 121.36 163.67 122.58 162.24 C 121.93 159.03 121.38 155.81 120.96 152.56 C 118.12 152.49 116.73 153.69 114.62 155.31 C 114.57 152.58 114.75 149.98 115.20 147.28 C 116.61 147.11 118.02 146.94 119.43 146.77 C 118.03 141.13 116.33 135.55 114.75 129.96 C 119.07 126.63 122.69 122.71 124.65 117.54 C 128.51 107.96 125.99 96.55 118.57 89.42 C 113.66 84.52 107.24 82.02 100.33 81.91 C 100.36 77.27 100.26 72.62 100.31 67.98 C 100.27 66.05 101.25 64.70 101.99 62.99 C 103.66 59.38 105.30 55.75 107.05 52.18 C 105.44 50.24 103.88 48.27 102.42 46.22 Z" fill="#f6dc05"/>
<path d="M 81.97 49.63 C 83.74 49.51 85.51 49.53 87.28 49.58 C 86.06 52.70 83.39 52.21 81.97 49.63 Z" fill="#f6dc05"/>
<path d="M 113.10 49.70 C 115.07 49.43 117.03 49.47 119.00 49.62 C 117.86 50.71 116.95 52.09 115.14 51.70 C 114.14 51.68 113.65 50.40 113.10 49.70 Z" fill="#030000"/>
<path d="M 130.72 52.44 C 132.36 54.62 131.96 58.74 132.38 61.38 C 130.60 60.71 128.80 60.20 126.97 59.87 C 127.66 59.22 128.34 58.57 129.02 57.92 C 125.70 56.65 122.64 55.88 119.04 56.15 L 119.66 57.65 C 122.40 58.21 125.33 58.02 128.11 58.20 C 125.45 60.24 121.18 59.54 118.13 58.82 C 115.80 57.96 116.58 55.30 117.87 53.87 C 120.71 50.24 126.95 50.83 130.72 52.44 Z" fill="#030000"/>
<path d="M 82.40 53.61 C 83.68 54.91 84.74 57.52 82.66 58.64 C 79.97 59.76 76.36 59.15 73.49 59.37 C 73.76 58.96 74.02 58.55 74.29 58.14 C 77.07 58.10 79.65 58.33 82.17 56.94 C 78.49 54.67 74.58 57.05 70.88 58.04 C 71.89 58.61 72.90 59.19 73.92 59.75 C 72.02 60.06 70.15 60.54 68.30 61.19 C 68.67 58.40 68.56 55.17 69.67 52.57 C 73.45 51.02 79.33 50.28 82.40 53.61 Z" fill="#f6dc05"/>
<path d="M 86.04 55.06 C 86.62 55.92 87.91 56.82 87.79 57.91 C 87.70 59.60 85.94 59.56 84.75 60.24 C 85.26 58.53 85.68 56.81 86.04 55.06 Z" fill="#f6dc05"/>
<path d="M 114.40 54.87 C 114.90 56.67 115.38 58.47 115.82 60.27 C 114.91 59.79 113.15 59.52 112.74 58.47 C 112.32 57.19 113.79 55.91 114.40 54.87 Z" fill="#030000"/>
<path d="M 99.52 83.22 C 96.72 84.25 93.83 85.59 90.91 86.06 C 92.49 87.65 94.33 88.52 94.79 90.93 C 92.16 93.66 90.15 96.86 87.67 99.69 C 85.61 100.62 83.22 100.94 81.02 101.40 C 80.34 99.39 79.32 97.32 79.09 95.21 C 81.15 91.91 84.81 87.12 89.03 86.94 C 92.03 83.88 95.43 83.47 99.52 83.22 Z" fill="#ffffff"/>
<path d="M 104.74 83.53 C 109.34 84.87 113.56 86.58 117.03 89.99 C 113.87 89.19 110.96 88.87 108.33 86.82 C 107.12 85.74 105.93 84.64 104.74 83.53 Z" fill="#ffffff"/>
<path d="M 108.91 89.42 C 111.70 89.85 114.58 90.57 117.24 91.51 C 120.27 92.34 122.43 96.03 121.36 99.05 C 120.46 101.35 118.44 103.26 116.76 105.03 C 114.75 104.06 112.72 103.14 110.66 102.28 C 109.51 99.10 107.99 96.09 106.72 92.97 C 106.15 91.48 107.46 89.73 108.91 89.42 Z" fill="#ffffff"/>
<path d="M 97.12 92.05 C 99.07 91.62 102.94 92.16 104.58 93.41 C 106.28 95.59 108.27 100.14 108.73 102.88 C 107.70 105.10 106.00 107.13 104.23 108.80 C 100.37 108.96 96.13 108.65 92.43 107.49 C 91.16 106.07 89.49 102.37 89.48 100.45 C 91.25 97.46 93.66 93.21 97.12 92.05 Z" fill="#ffffff"/>
<path d="M 77.82 97.68 C 78.54 99.41 79.24 101.15 79.93 102.90 C 79.25 105.81 78.79 108.68 78.57 111.66 C 77.80 112.49 77.02 113.31 76.23 114.13 C 75.33 109.54 75.30 105.02 76.64 100.51 C 77.02 99.56 77.41 98.62 77.82 97.68 Z" fill="#ffffff"/>
<path d="M 122.47 101.33 C 123.44 101.21 124.02 101.68 124.21 102.74 C 125.52 108.68 124.46 114.74 121.59 120.07 C 119.59 118.93 118.00 117.38 117.26 115.14 C 117.39 112.18 117.51 109.10 118.13 106.20 C 119.32 104.40 120.85 102.75 122.47 101.33 Z" fill="#ffffff"/>
<path d="M 92.09 110.14 C 94.40 109.34 97.55 110.12 99.98 110.33 C 101.62 110.71 103.79 110.66 104.60 112.41 C 105.61 114.25 107.03 116.91 106.63 119.01 C 104.90 122.68 101.55 127.03 96.93 126.18 C 91.56 125.98 87.97 120.00 88.04 115.12 C 88.63 113.18 90.42 111.27 92.09 110.14 Z" fill="#ffffff"/>
<path d="M 79.24 113.34 C 81.36 114.40 83.49 115.42 85.64 116.43 C 87.18 119.69 88.51 122.96 90.52 125.99 C 89.39 126.89 88.50 128.66 86.90 128.43 C 81.83 126.52 79.22 121.33 77.06 116.73 C 77.76 115.59 78.45 114.42 79.24 113.34 Z" fill="#ffffff"/>
<path d="M 115.94 116.50 C 117.04 118.28 119.69 120.23 118.48 122.52 C 117.21 125.97 114.36 127.82 110.83 128.41 C 108.03 128.70 104.38 129.99 102.37 127.34 C 105.22 124.89 106.91 121.98 108.81 118.80 C 111.04 117.74 113.57 117.20 115.94 116.50 Z" fill="#ffffff"/>
<path d="M 110.25 130.43 C 108.57 131.13 106.33 131.37 104.92 132.46 C 103.75 134.31 107.25 136.17 107.27 138.03 C 106.79 139.41 105.88 140.71 105.11 141.96 C 111.26 151.89 115.65 162.77 117.76 174.27 C 116.34 174.71 114.93 175.15 113.52 175.59 C 111.29 168.88 108.73 162.51 104.64 156.68 C 105.72 163.29 106.68 169.90 107.65 176.52 C 106.33 176.80 105.02 177.07 103.70 177.35 C 102.98 171.12 102.16 164.96 100.46 158.92 C 100.11 150.79 100.43 142.54 100.33 134.38 C 101.70 134.39 102.83 134.12 103.69 133.57 C 104.14 132.07 100.53 132.57 99.99 132.20 C 103.50 130.52 106.37 130.17 110.25 130.43 Z" fill="#f6dc05"/>
</svg>