<?xml version="1.0" encoding="UTF-8" standalone="no"?>
<!DOCTYPE svg PUBLIC "-//W3C//DTD SVG 1.1//EN" "http://www.w3.org/Graphics/SVG/1.1/DTD/svg11.dtd">
<svg xmlns="http://www.w3.org/2000/svg" version="1.1" viewBox="0 0 200 200" width="200.0pt" height="200.0pt">
<path d="M 0.00 0.00 L 200.00 0.00 L 200.00 200.00 L 0.00 200.00 L 0.00 0.00 Z" fill-opacity="0"/>
<path d="M 86.00 6.11 C 106.88 4.69 128.61 7.03 149.29 10.08 C 149.18 60.04 149.28 110.09 149.24 160.06 C 143.06 165.91 136.40 171.09 129.40 175.92 C 129.41 169.08 129.40 162.24 129.41 155.40 C 122.75 155.41 116.08 155.31 109.42 155.43 C 109.31 166.36 109.42 177.29 109.38 188.22 C 106.22 189.87 103.14 191.84 99.81 193.13 C 96.36 192.43 92.85 189.76 89.62 188.22 C 89.62 177.28 89.63 166.33 89.62 155.39 C 82.94 155.39 76.27 155.37 69.59 155.40 C 69.60 162.24 69.59 169.08 69.60 175.92 C 62.60 171.09 55.94 165.91 49.76 160.07 C 49.75 110.07 49.76 60.07 49.75 10.07 C 61.77 8.29 73.87 6.83 86.00 6.11 Z" fill="#ffeb00"/>
<path d="M 49.75 10.07 C 49.76 60.07 49.75 110.07 49.76 160.07 C 42.60 153.24 35.70 145.23 32.03 135.93 C 30.34 131.81 29.73 127.44 29.80 123.00 C 29.88 86.46 29.73 49.92 29.87 13.39 C 36.48 12.18 43.11 11.06 49.75 10.07 Z" fill="#006fb7"/>
<path d="M 149.29 10.08 C 155.92 11.04 162.53 12.20 169.13 13.39 C 169.24 50.59 169.16 87.81 169.17 125.01 C 169.07 138.55 158.58 151.18 149.24 160.06 C 149.28 110.09 149.18 60.04 149.29 10.08 Z" fill="#006fb7"/>
<path d="M 107.43 18.15 C 106.00 20.09 104.59 22.04 103.35 24.12 C 104.47 22.98 105.53 21.66 106.85 20.77 C 108.55 20.44 110.48 20.94 112.19 21.19 C 111.52 22.04 111.02 23.60 109.91 23.91 C 108.75 23.92 107.58 23.88 106.42 23.79 C 108.20 24.41 110.01 24.96 111.83 25.48 C 112.65 28.23 112.12 30.90 112.35 33.68 C 113.17 34.33 114.12 34.86 115.19 35.26 C 113.61 35.97 112.08 36.42 110.38 36.70 C 109.85 39.81 110.48 40.17 112.59 42.29 C 110.72 41.93 108.84 41.58 106.96 41.25 C 107.34 43.09 107.80 44.89 108.35 46.68 C 107.13 47.09 105.42 48.47 104.17 48.03 C 103.35 47.44 102.54 46.82 101.75 46.18 L 101.72 49.00 C 96.76 48.58 93.22 45.14 88.27 44.79 C 89.04 41.02 90.05 37.56 93.85 35.86 C 96.73 34.46 100.04 34.97 101.11 31.37 C 99.56 31.66 98.02 31.97 96.48 32.30 L 96.70 29.83 C 98.10 29.33 99.49 28.82 100.88 28.28 C 98.60 26.16 98.65 26.08 95.75 27.12 C 96.14 27.60 96.54 28.07 96.95 28.53 C 94.69 29.11 92.46 30.06 90.16 30.38 C 88.41 30.38 88.25 28.38 87.52 27.19 C 90.34 28.90 92.41 28.62 95.55 28.22 C 94.83 26.84 94.13 25.45 93.44 24.06 C 95.51 22.67 97.47 21.10 99.60 19.80 C 101.24 19.21 103.22 19.47 104.95 19.26 C 105.78 18.89 106.61 18.52 107.43 18.15 Z" fill="#006fb7"/>
<path d="M 101.59 22.97 C 100.88 24.48 98.61 25.76 97.50 23.97 C 97.55 22.08 100.41 22.20 101.59 22.97 Z" fill="#ffeb00"/>
<path d="M 77.53 25.09 C 78.69 25.71 79.87 26.23 81.10 26.69 C 82.09 28.93 83.10 31.38 85.28 32.71 C 87.03 33.73 89.16 34.21 91.08 34.82 C 89.67 36.25 88.43 37.75 87.25 39.38 C 85.77 38.11 84.27 36.86 82.77 35.61 C 82.21 36.03 81.65 36.45 81.09 36.86 C 80.81 35.34 80.54 33.82 80.24 32.31 C 79.56 32.88 78.89 33.45 78.22 34.03 C 77.59 31.39 78.02 28.97 75.03 27.77 C 75.94 27.56 76.84 27.35 77.75 27.14 L 77.53 25.09 Z" fill="#006fb7"/>
<path d="M 129.26 38.30 C 129.26 39.55 129.21 40.81 129.13 42.06 C 128.53 44.78 125.77 44.09 123.70 44.34 C 123.89 45.62 124.08 46.90 124.27 48.18 C 122.52 45.83 121.40 43.41 117.97 43.61 C 115.36 43.63 114.47 46.55 115.39 48.63 C 116.96 51.68 120.35 54.04 121.74 57.24 C 122.83 59.87 122.36 63.21 119.93 64.92 C 117.85 66.48 114.88 66.24 112.40 66.49 C 113.74 69.66 114.39 71.03 117.85 72.07 C 118.77 71.32 119.69 70.59 120.63 69.88 C 120.29 71.91 120.05 72.92 118.51 74.35 C 120.14 78.21 118.96 81.73 119.29 85.68 C 120.19 86.14 121.10 86.58 122.03 86.98 C 121.35 87.29 120.67 87.60 119.99 87.91 C 118.82 87.61 117.65 87.31 116.48 87.02 C 116.98 88.13 117.49 89.24 118.01 90.35 C 115.06 89.07 112.08 88.73 108.90 88.52 C 108.21 89.31 107.52 90.10 106.82 90.88 C 106.68 88.52 106.83 87.72 108.32 85.95 C 107.15 85.76 105.98 85.56 104.81 85.35 C 106.85 83.69 107.86 83.86 110.32 84.11 C 109.30 83.33 108.29 82.54 107.28 81.74 C 110.05 81.47 112.24 82.75 114.80 83.54 C 114.10 80.52 113.93 77.79 111.01 76.06 C 108.29 74.69 105.45 73.83 103.03 71.88 C 101.44 71.68 99.94 71.37 98.42 70.89 C 102.15 69.69 103.87 68.11 103.62 63.97 C 102.31 56.37 92.91 51.15 85.71 54.48 C 85.29 55.14 84.88 55.81 84.46 56.47 C 81.91 56.14 81.39 56.19 79.33 57.62 C 79.72 58.34 80.11 59.05 80.50 59.77 C 77.80 58.71 75.78 57.76 72.92 59.18 L 73.95 56.36 L 71.53 56.29 C 73.68 55.05 75.20 53.78 77.82 54.50 C 81.69 52.32 85.08 48.94 89.17 47.26 C 92.80 46.66 96.32 50.59 100.01 50.75 C 102.30 50.80 104.53 50.25 106.76 50.18 C 110.25 53.54 110.62 57.57 112.31 61.78 C 114.11 63.33 119.26 63.17 119.56 60.03 C 120.02 56.44 116.07 53.47 114.31 50.66 C 112.02 47.52 113.28 42.38 117.14 41.19 C 120.42 40.53 123.86 41.02 127.18 40.48 C 127.88 39.76 128.58 39.03 129.26 38.30 Z" fill="#006fb7"/>
<path d="M 94.17 59.12 C 96.72 58.38 98.55 59.66 100.74 60.70 C 100.62 62.49 100.81 63.47 101.72 64.98 C 98.99 66.03 95.99 66.95 93.56 68.60 C 91.56 70.17 93.26 74.07 93.63 76.18 C 94.57 76.80 95.51 77.44 96.43 78.08 C 94.36 78.22 92.69 77.99 90.70 77.42 C 89.60 78.21 88.50 78.97 87.58 79.98 L 88.56 82.90 C 85.18 81.43 81.53 79.36 78.45 82.61 C 78.49 80.49 79.02 79.43 80.26 77.79 L 76.62 78.56 C 78.28 75.72 78.84 76.26 81.84 76.13 C 80.90 75.37 79.97 74.60 79.06 73.82 C 81.75 73.64 82.32 74.17 84.20 76.05 C 85.55 75.35 86.89 74.64 88.23 73.92 C 87.33 72.11 86.42 70.30 85.55 68.48 C 84.55 67.77 83.55 67.05 82.56 66.32 C 87.52 65.22 89.31 60.51 94.17 59.12 Z" fill="#006fb7"/>
<path d="M 65.98 98.86 C 71.04 99.16 77.22 97.96 81.93 99.95 C 87.22 103.06 86.38 112.17 81.78 115.73 C 83.03 118.98 84.23 122.24 85.41 125.51 C 83.44 125.53 81.47 125.54 79.50 125.55 C 78.47 122.73 77.46 119.90 76.49 117.06 C 74.78 117.01 73.07 116.97 71.37 116.94 C 71.37 119.80 71.36 122.66 71.36 125.53 C 69.57 125.53 67.78 125.53 65.98 125.53 C 65.98 116.64 65.98 107.75 65.98 98.86 Z" fill="#006fb7"/>
<path d="M 91.81 98.85 C 93.61 98.85 95.40 98.85 97.20 98.85 C 97.21 102.68 97.20 106.50 97.23 110.33 C 98.24 110.13 99.26 109.93 100.28 109.73 C 101.77 106.08 103.32 102.46 104.91 98.85 C 106.98 98.85 109.05 98.85 111.12 98.86 C 109.12 103.29 107.07 107.69 105.04 112.10 C 107.11 116.58 109.21 121.04 111.27 125.52 C 109.21 125.53 107.16 125.53 105.10 125.54 C 103.45 122.11 101.87 118.65 100.32 115.18 C 99.29 115.26 98.26 115.34 97.22 115.43 C 97.20 118.80 97.21 122.16 97.20 125.53 C 95.40 125.53 93.60 125.52 91.80 125.52 C 91.80 116.63 91.80 107.74 91.81 98.85 Z" fill="#006fb7"/>
<path d="M 120.22 99.26 C 124.06 97.59 129.01 98.70 132.98 99.38 C 132.93 101.00 132.88 102.62 132.82 104.24 C 129.96 104.00 126.86 103.44 124.01 103.93 C 120.88 104.61 120.98 108.50 120.76 111.00 C 120.80 113.66 120.43 118.49 123.03 120.11 C 125.98 121.20 129.76 120.34 132.85 120.15 C 132.88 121.79 132.90 123.43 132.93 125.08 C 129.13 125.67 124.51 126.54 120.77 125.37 C 117.80 124.36 116.30 121.74 115.73 118.80 C 115.02 114.69 115.02 110.31 115.66 106.19 C 116.19 103.26 117.35 100.54 120.22 99.26 Z" fill="#006fb7"/>
<path d="M 71.39 103.86 C 73.68 103.97 76.36 103.68 78.52 104.53 C 80.52 105.66 80.42 110.32 78.33 111.35 C 76.18 112.08 73.61 111.78 71.36 111.87 C 71.36 109.20 71.37 106.53 71.39 103.86 Z" fill="#ffeb00"/>
<path d="M 67.06 134.70 C 69.61 135.90 68.95 138.61 69.83 141.04 C 66.53 140.51 67.71 137.20 67.06 134.70 Z" fill="#006fb7"/>
<path d="M 71.62 135.28 C 72.21 135.26 72.79 135.24 73.38 135.22 C 73.90 137.69 74.43 140.16 74.98 142.62 C 75.77 140.31 75.38 135.61 78.03 134.77 C 77.61 137.77 77.13 140.85 76.18 143.73 C 75.41 144.50 74.62 144.51 73.83 143.77 C 73.23 141.96 72.87 140.05 72.47 138.19 C 71.96 140.59 71.90 142.85 70.21 144.78 C 69.46 144.13 68.71 143.48 67.97 142.83 C 68.85 142.04 69.74 141.26 70.64 140.48 C 70.96 138.75 71.29 137.01 71.62 135.28 Z" fill="#006fb7"/>
<path d="M 81.55 135.26 C 82.56 135.25 83.57 135.25 84.58 135.24 C 85.33 138.30 86.01 141.38 86.72 144.44 C 85.56 143.54 84.33 142.84 83.02 142.33 C 81.75 142.87 80.55 143.57 79.40 144.43 C 80.12 141.37 80.80 138.31 81.55 135.26 Z" fill="#006fb7"/>
<path d="M 90.04 135.25 C 91.05 135.25 92.06 135.26 93.07 135.26 C 93.83 138.35 94.58 141.44 95.15 144.57 C 94.22 143.87 93.30 143.17 92.39 142.45 C 91.81 142.44 91.24 142.43 90.67 142.42 C 89.79 143.15 88.90 143.86 87.99 144.56 C 88.51 141.41 89.30 138.34 90.04 135.25 Z" fill="#006fb7"/>
<path d="M 97.29 135.61 L 98.61 134.79 C 98.71 137.33 98.72 139.87 98.73 142.40 C 100.32 142.69 101.62 142.75 102.82 143.97 C 100.92 144.10 99.03 144.17 97.13 144.22 C 97.15 141.37 96.91 138.43 97.29 135.61 Z" fill="#006fb7"/>
<path d="M 103.68 134.93 C 106.23 134.92 105.62 139.57 106.44 141.24 L 106.96 140.85 C 108.16 141.52 108.17 142.67 108.68 143.84 C 107.65 143.94 106.62 144.01 105.59 144.04 C 104.69 141.07 104.06 138.00 103.68 134.93 Z" fill="#006fb7"/>
<path d="M 108.62 134.60 C 109.33 135.21 110.00 135.86 110.62 136.56 C 110.64 138.04 109.03 140.55 107.42 139.06 C 107.81 137.58 108.21 136.09 108.62 134.60 Z" fill="#006fb7"/>
<path d="M 114.72 134.73 C 114.29 137.93 113.54 141.04 112.83 144.17 C 112.03 144.17 111.24 144.18 110.45 144.18 C 110.09 142.52 109.73 140.86 109.38 139.20 C 111.99 139.40 111.01 140.55 111.75 142.83 C 112.45 140.50 111.93 135.69 114.72 134.73 Z" fill="#006fb7"/>
<path d="M 116.96 135.65 C 117.40 135.35 117.84 135.07 118.29 134.79 C 118.43 138.18 118.48 141.55 118.10 144.93 C 115.92 142.83 116.79 138.39 116.96 135.65 Z" fill="#006fb7"/>
<path d="M 121.54 135.27 L 123.15 135.24 C 123.21 138.45 123.14 141.64 122.80 144.84 C 121.88 144.83 120.95 144.81 120.02 144.79 C 120.54 144.00 121.06 143.20 121.59 142.41 C 121.56 140.03 121.55 137.65 121.54 135.27 Z" fill="#006fb7"/>
<path d="M 125.89 135.66 L 127.09 134.80 C 127.25 136.42 127.40 138.05 127.54 139.68 C 128.90 137.76 129.72 135.79 131.95 134.72 C 131.37 136.44 130.70 138.13 130.02 139.81 C 130.75 141.38 131.46 142.95 132.11 144.55 C 129.82 143.72 128.99 141.81 127.53 140.03 C 127.41 141.41 127.30 142.79 127.18 144.17 L 125.71 144.18 C 125.74 141.37 125.46 138.44 125.89 135.66 Z" fill="#006fb7"/>
<path d="M 83.16 136.57 C 83.55 138.01 83.93 139.45 84.32 140.89 L 81.71 140.84 C 82.19 139.42 82.67 137.99 83.16 136.57 Z" fill="#ffeb00"/>
<path d="M 91.69 136.62 C 92.08 138.04 92.44 139.48 92.79 140.91 C 91.92 140.89 91.04 140.87 90.16 140.85 C 90.66 139.44 91.15 138.02 91.69 136.62 Z" fill="#ffeb00"/>
<path d="M 89.62 155.39 C 89.63 166.33 89.62 177.28 89.62 188.22 C 82.76 184.44 76.07 180.34 69.60 175.92 C 69.59 169.08 69.60 162.24 69.59 155.40 C 76.27 155.37 82.94 155.39 89.62 155.39 Z" fill="#006fb7"/>
<path d="M 109.42 155.43 C 116.08 155.31 122.75 155.41 129.41 155.40 C 129.40 162.24 129.41 169.08 129.40 175.92 C 122.93 180.34 116.24 184.44 109.38 188.22 C 109.42 177.29 109.31 166.36 109.42 155.43 Z" fill="#006fb7"/>
</svg>