<?xml version="1.0" encoding="utf-8"?>
<!-- Generator: Adobe Illustrator 25.0.1, SVG Export Plug-In . SVG Version: 6.00 Build 0)  -->
<svg version="1.0" id="Layer_1" xmlns="http://www.w3.org/2000/svg" xmlns:xlink="http://www.w3.org/1999/xlink" x="0px" y="0px"
	 viewBox="0 0 336 242" style="enable-background:new 0 0 336 242;" xml:space="preserve">
<style type="text/css">
	.st0{fill:#FFFFFF;}
	.st1{fill:#135CA3;}
	.st2{fill:#DCDDDD;}
	.st3{fill:#FCF118;}
	.st4{fill:#EB1B24;}
	.st5{fill:#D9D9D9;}
	.st6{fill:#D5B715;}
	.st7{fill:#EA5A41;}
	.st8{fill:#12997B;}
	.st9{fill:#9EA5AB;}
	.st10{fill:#E6E7E7;}
	.st11{fill:#E5D5BA;}
	.st12{fill:#666E71;}
	.st13{fill:#F0837D;}
	.st14{fill:#8A8E92;}
	.st15{fill:#9E8B9D;}
	.st16{fill:none;}
</style>
<path class="st0" d="M210.9,76.8l3.2-5l-1.4-0.8l5.9-16l0.9,0.6l1.8-2.8l2.3,1.4l4.3-8.2c-5.6-3.5-11.4-6.6-17.6-9l-3.6,8.3l2.3,1.2
	l-0.9,1.7c-3.2-1.5-6.5-2.7-9.9-3.6l0.4-1.8l3,0.9l2.5-8.8c-9.6-3.3-19.5-5.2-29.6-5.8l-0.8,9.1l2.1,0.2l0.8,0.1l-0.2,1.9
	c-2.9-0.2-5.8-0.3-8.7-0.3s-5.8,0.1-8.7,0.3l-0.2-1.9l0.8-0.1l2.1-0.2l-0.7-9.1c-10.1,0.5-20.1,2.5-29.7,5.8l2.5,8.8l3-0.9l0.4,1.8
	c-3.4,0.9-6.7,2.1-9.9,3.6l-0.8-1.7l2.3-1.2l-3.6-8.3c-6.1,2.4-12,5.5-17.5,9l4.3,8.2l2.3-1.4l1.8,2.8l0.9-0.6l5.9,16l-1.4,0.9
	l3.2,5c-33.8,23.7-42,70.4-18.3,104.2s70.4,42,104.2,18.3s42-70.4,18.3-104.2C224.3,88.1,218.1,81.9,210.9,76.8L210.9,76.8z"/>
<path class="st1" d="M208.6,77.3L208.6,77.3L208.6,77.3L208.6,77.3l-0.4-0.2c-0.5-0.3-1-0.6-1.5-0.9l1.1-1.8l1.5,0.9l0.5,0.3
	l2.1-3.2l-0.5-0.3l-0.6-0.4l7.1-19.1l0.6,0.3l0.7,0.4l1.8-2.8l1.5,0.9l0.7,0.4l2.8-5.3l-0.5-0.3c-0.7-0.4-1.4-0.8-2.1-1.2l-0.7-0.4
	l-1.3,2l-1.5-0.8l1-2.1l-0.3-0.2l-0.4-0.2c-0.8-0.4-1.6-0.8-2.4-1.2l-0.7-0.4l-1.1,2.1c-0.6-0.3-1.1-0.5-1.7-0.8l1-2.1l-0.6-0.3
	c-0.9-0.4-1.8-0.8-2.6-1.2l-0.7-0.3l-2.3,5.4l0.3,0.2l2.1,0.9l-1.4,2.9l0.5,0.3c0.6,0.3,1.2,0.6,1.8,0.8l-1.1,1.6
	c-0.4-0.2-0.9-0.4-1.4-0.6l-0.4-0.2l-1.6,2.6l-0.7-0.3l1.3-2.7l-0.5-0.2l-0.3-0.1l-1.4-0.6l-0.8-0.3l-1.4,2.7l-0.7-0.3l1-2.8
	l-0.8-0.3l-1.4-0.5l-0.8-0.3l-1.4,2.7l-0.8-0.2l0.8-2.9l-0.7-0.2h-0.1l-1.3-0.4l-0.8-0.3l-1.1,2.9l-0.7-0.2l0.6-3l-0.6-0.2l-1.6-0.4
	l0.1-1.9c0.8,0.2,1.6,0.4,2.3,0.6l0.6,0.2l0.7-3.2c0.8,0.2,1.6,0.5,2.4,0.7l0.2,0.1l0.6,0.1l1.7-5.6l-0.5-0.2
	c-0.9-0.3-1.9-0.6-2.8-0.8l-0.5-0.1L198,37l-1.6-0.4l0.3-2.3l-0.4-0.1c-0.8-0.2-1.6-0.4-2.4-0.6l-0.3-0.1l-0.4-0.1l-0.6,2.2
	l-1.6-0.3l0.3-2.3l-0.8-0.2c-0.7-0.1-1.4-0.3-2.1-0.4l-0.7-0.2l-0.6,2.3l-1.7-0.3l0.2-2.3l-0.6-0.1h-0.2c-0.7-0.1-1.5-0.2-2.2-0.3
	l-0.6-0.1l-0.5,2.3l-1.5-0.2l0.1-2.3l-0.7-0.1c-0.8-0.1-1.7-0.2-2.5-0.2h-0.5l-0.5,5.9h0.5c0.8,0.1,1.6,0.1,2.4,0.2l-0.3,3.2
	l0.7,0.1l2.6,0.3l-0.7,1.8l-1.6-0.2H179l-0.5,0l-0.6,3l-1.1-0.1l0.1-3h-0.4l-2.1-0.1h-0.6l-0.3,3l-1.3-0.2l0.1-3h-0.6
	c-0.9,0-1.2,0-2,0h-0.8l-0.2,3h-0.9l-0.2-3h-0.8c-0.8,0-1.1,0-2,0h-0.6v3l-1.2,0.1l-0.3-3h-0.6l-2.1,0.1h-0.4l0.1,3l-1.1,0.1l-0.6-3
	l-0.5,0h-0.2l-1.6,0.2l-0.7-1.8l2.6-0.3l0.7-0.1l-0.3-3.2l2.4-0.2h0.5l-0.4-5.8h-0.5c-0.8,0.1-1.7,0.1-2.5,0.2l-0.7,0.1l0.1,2.3
	l-1.5,0.2l-0.5-2.3l-0.6,0.1c-0.8,0.1-1.5,0.2-2.2,0.3h-0.2l-0.6,0.1l0.2,2.3l-1.7,0.3l-0.6-2.3l-0.7,0.2c-0.7,0.1-1.4,0.2-2.1,0.4
	l-0.8,0.2l0.3,2.3l-1.6,0.4l-0.6-2.2l-0.4,0.1l-0.3,0.1l-2.4,0.6l-0.5,0.1l0.3,2.3L138,37l-0.7-2.2l-0.5,0.1
	c-0.9,0.3-1.9,0.5-2.8,0.9l-0.5,0.2l1.7,5.7l0.6-0.2l0.2-0.1c0.8-0.2,1.6-0.5,2.4-0.7l0.7,3.2l0.5-0.2c0.8-0.2,1.6-0.4,2.3-0.6
	L142,45l-1.5,0.4l-0.6,0.2l0.6,3l-0.7,0.2l-1-2.9l-0.8,0.3l-1.3,0.4h-0.1l-0.7,0.2l0.8,2.9l-0.8,0.2l-1.4-2.7l-0.8,0.3l-1.4,0.5
	l-0.8,0.3l1,2.8l-0.7,0.3l-1.4-2.7l-0.8,0.3l-1.4,0.6l-0.3,0.1l-0.5,0.2l1.3,2.7l-0.7,0.3l-1.6-2.6l-0.4,0.2
	c-0.5,0.2-0.9,0.4-1.4,0.6l-1.1-1.6c0.6-0.3,1.2-0.6,1.8-0.9l0.5-0.3l-1.4-2.9c0.7-0.3,1.4-0.6,2.1-0.9l0.3-0.2l-2.4-5.4l-0.7,0.3
	c-0.9,0.4-1.8,0.8-2.6,1.2l-0.6,0.3l1,2.1c-0.6,0.3-1.1,0.5-1.7,0.8l-1.1-2.1l-0.7,0.4c-0.8,0.4-1.6,0.8-2.4,1.2l-0.4,0.2l-0.3,0.2
	l1,2.1l-1.5,0.8l-1.3-2l-0.7,0.4c-0.7,0.4-1.4,0.8-2,1.2l-0.5,0.3l2.8,5.2l0.7-0.4l1.5-0.9l1.8,2.8l0.7-0.4l0.6-0.3l7.1,19.1
	l-0.6,0.4l-0.5,0.3l2.1,3.2l0.5-0.3l1.5-0.9l1,1.8l-1.4,0.9l-0.4,0.2l0,0h-0.1l0,0c-33.6,22.4-42.7,67.8-20.2,101.4
	s67.8,42.7,101.4,20.2s42.7-67.8,20.2-101.4C223.5,89.5,216.6,82.6,208.6,77.3L208.6,77.3z"/>
<path class="st2" d="M209.8,71.1c-1-0.6-1.9-1.1-2.9-1.6c0.9-1.4,3.6-5.5,4.5-6.6c0.4-0.5,1.1-0.8,1.8-0.8L209.8,71.1z"/>
<path class="st2" d="M213.6,61.1c-1.1-0.1-2.3,0.3-3,1.2c-0.9,1.1-3.8,5.5-4.6,6.7l-0.7-0.4c0.8-1.3,3.5-5.5,4.9-7.4
	c1-1.4,2.8-1.3,3.8-1.2L213.6,61.1z"/>
<path class="st2" d="M210.3,44.1l1.6-3.6l2,0.9l-1,2.1l0.6,0.3l0.1,0.1c0.8,0.4,1.5,0.7,2.2,1.1l0.5,0.3l1.1-2.1
	c0.7,0.4,1.4,0.7,2.1,1.1l-1,2l0.5,0.3l0.2,0.1c0.7,0.4,1.3,0.7,2,1.1l0.5,0.3l1.3-2l1.5,0.9l-1.9,3.4
	C218.8,48,214.6,45.9,210.3,44.1z"/>
<path class="st2" d="M211.4,48.2l1-2c2.6,1.2,5.1,2.5,7.6,3.8l-1.2,1.9C216.4,50.6,213.9,49.3,211.4,48.2z"/>
<path class="st2" d="M213.3,50.2c1.2,0.6,2.4,1.2,3.6,1.9l-2.6,7c-1.8-0.5-3.8,0.1-5,1.5c-1.4,1.9-4.2,6.3-5,7.5
	c-0.9-0.4-1.8-0.8-2.7-1.2L213.3,50.2z"/>
<path class="st2" d="M200.1,57.2l1-2.8c2.1,0.8,4.1,1.6,6.1,2.6l-1.7,2.4C203.8,58.6,202,57.9,200.1,57.2z"/>
<path class="st2" d="M205,60.3l-2,2.9l-1-0.4l1.3-3.2L205,60.3z"/>
<path class="st2" d="M199.2,56.8c-1.9-0.7-3.8-1.3-5.8-1.9l0.2-3c2.2,0.6,4.4,1.3,6.6,2.1L199.2,56.8z"/>
<path class="st2" d="M195.6,56.7l-1,3.3l-1.4-0.4l0.2-3.6C194.1,56.3,194.9,56.5,195.6,56.7z"/>
<path class="st2" d="M197.3,62.1l-1,2.7c-1.1-0.4-2.3-0.8-3.4-1.2l0.2-3C194.5,61.1,195.9,61.6,197.3,62.1z"/>
<path class="st2" d="M195.5,60.4l1-3.3c2,0.7,3.9,1.4,5.8,2.1l-1.3,3.2C199.3,61.7,197.4,61,195.5,60.4z"/>
<path class="st2" d="M198.3,62.4c1.3,0.5,2.7,1.1,4,1.7l-1.7,2.4c-1.1-0.5-2.2-0.9-3.3-1.3L198.3,62.4z"/>
<path class="st2" d="M194.8,46.3l-0.6,3l0.8,0.2l1.3,0.4l0.5,0.1l1-2.8l1,0.3l-0.8,2.9l0.5,0.2l0.2,0.1l1.3,0.5l0.4,0.1l1.4-2.7
	l1.1,0.4l-1,2.8l0.5,0.2l1.4,0.5l0.7,0.3l1.3-2.7l1,0.4l-1.3,2.7l0.5,0.2l0.3,0.1l1.3,0.6l0.4,0.2l1.6-2.6l0.8,0.4l-2.8,4
	c-4.6-2.1-9.3-3.8-14.2-5.2l0.3-4.9L194.8,46.3z"/>
<path class="st2" d="M176.9,35.9l0.3-3.9c0.6,0,1.1,0.1,1.7,0.2l-0.1,2.3l0.6,0.1l2.1,0.2l0.7,0.1l0.4-2.3l1.7,0.2l-0.2,2.3l0.5,0.1
	c0.8,0.1,1.7,0.3,2.5,0.4l0.6,0.1l0.6-2.3l1.7,0.3l-0.3,2.3l0.8,0.1l1.9,0.4l0.8,0.2l0.6-2.2l1.8,0.4l-0.3,2.3l0.8,0.2
	c0.6,0.2,1.2,0.3,1.9,0.5l0.8,0.2l0.7-2.2l1.8,0.6l-1.1,3.7C192.5,38,184.7,36.5,176.9,35.9z"/>
<path class="st2" d="M179.4,39.4l0.2-2.2c5.7,0.6,11.4,1.7,17,3.2l-0.5,2.2C190.7,41.1,185.1,40,179.4,39.4z"/>
<path class="st2" d="M182.5,40.8c3.5,0.5,7.1,1.2,10.5,2L192,63.3c-0.7-0.2-1.5-0.4-2.2-0.6c0-1.5-0.1-7-0.2-9.3
	c-0.2-4.3-6.8-4.9-8.4-1.4c-0.8,1.9-2.9,7-3.4,8.4c-0.8-0.1-1.5-0.2-2.3-0.2L182.5,40.8z"/>
<path class="st2" d="M182.9,54.1c-0.8,1.5-2.4,5.3-2.9,6.6l-1.1-0.1c0.7-1.7,2.6-6.3,3.3-8.1c1.2-2.8,6.2-1.9,6.4,1
	c0.1,2.1,0.1,7.2,0.2,9l-1.2-0.3V55C187.5,51.7,184.2,50.8,182.9,54.1z"/>
<path class="st2" d="M186.5,55v6.9c-1.8-0.4-3.6-0.8-5.5-1c0.6-1.5,2.1-4.9,2.8-6.4C184.7,52.3,186.5,52.7,186.5,55z"/>
<path class="st2" d="M162.4,52.7l0.1,3.5c-0.8,0-1.6,0.1-2.3,0.2l-1.2-3.4C160.1,52.8,161.3,52.7,162.4,52.7z"/>
<path class="st2" d="M158.6,51.9l-1-2.8c3.3-0.4,6.6-0.5,9.9-0.5v2.9C164.5,51.5,161.5,51.6,158.6,51.9z"/>
<path class="st2" d="M167.5,57v2.9c-2,0-3.9,0.1-5.9,0.2l-1-2.8C162.9,57.1,165.2,57,167.5,57z"/>
<path class="st2" d="M163.6,56.1l-0.1-3.5c1.4-0.1,3.1-0.1,4.5-0.1s3.1,0,4.5,0.1l-0.1,3.5c-1.3-0.1-3-0.1-4.4-0.1
	S164.9,56,163.6,56.1z"/>
<path class="st2" d="M168.5,51.5v-2.9c3.3,0,6.6,0.2,9.9,0.5l-1,2.8C174.5,51.6,171.5,51.5,168.5,51.5z"/>
<path class="st2" d="M175.4,57.3l-1,2.8c-1.9-0.1-3.9-0.2-5.9-0.2V57C170.8,57,173.1,57.1,175.4,57.3z"/>
<path class="st2" d="M173.5,56.1l0.1-3.5c1.2,0.1,2.3,0.2,3.4,0.3l-1.2,3.4C175,56.2,174.2,56.2,173.5,56.1z"/>
<path class="st2" d="M156.8,43.4l0.6,3l0.8-0.1l1.5-0.1l0.7,0l-0.1-3l1.2-0.1l0.3,3h0.5l1.9-0.1h0.8l-0.1-3h1.4l0.2,2.1l0.1,0.8h0.2
	h0.6h0.6h0.6h0.6h0.2l0.1-0.8l0.2-2.2h1.4l-0.1,3h0.8l1.9,0.1h0.5l0.4-3l1.2,0.1l-0.1,3l0.7,0l1.5,0.1l0.8,0.1l0.6-3l1.2,0.1
	l-1.7,4.6c-7.2-0.8-14.4-0.8-21.5,0l-1.7-4.6L156.8,43.4z"/>
<path class="st2" d="M160.6,60.2c-0.8,0.1-1.6,0.1-2.3,0.2c-0.5-1.3-2.6-6.5-3.4-8.4c-1.5-3.6-8.2-2.9-8.4,1.4
	c-0.1,2.3-0.2,7.8-0.2,9.3c-0.8,0.2-1.5,0.4-2.2,0.6l-1.1-20.5c3.5-0.8,7-1.5,10.5-2L160.6,60.2z"/>
<path class="st2" d="M153.1,54.1c-1.4-3.3-4.7-2.3-4.7,1v7.1l-1.2,0.3c0-1.8,0.1-6.8,0.2-9c0.1-2.9,5.2-3.8,6.4-1
	c0.8,1.8,2.6,6.5,3.3,8.1l-1.1,0.1C155.5,59.4,153.9,55.6,153.1,54.1z"/>
<path class="st2" d="M155,60.9c-1.9,0.3-3.7,0.6-5.5,1V55c0-2.3,1.8-2.7,2.7-0.5C152.9,56,154.4,59.4,155,60.9z"/>
<path class="st2" d="M136.8,56.8l-1-2.8c2.2-0.8,4.4-1.5,6.6-2.1l0.2,3C140.6,55.5,138.7,56.2,136.8,56.8z"/>
<path class="st2" d="M142.7,56l0.2,3.6l-1.4,0.4l-1-3.3C141.2,56.5,141.9,56.2,142.7,56z"/>
<path class="st2" d="M135.9,57.2c-1.8,0.7-3.7,1.4-5.4,2.2l-1.7-2.4c2-0.9,4-1.8,6.1-2.6L135.9,57.2z"/>
<path class="st2" d="M132.7,59.6l1.3,3.2l-1,0.4l-2-2.9L132.7,59.6z"/>
<path class="st2" d="M137.7,62.4l1,2.7c-1.1,0.4-2.2,0.9-3.3,1.3l-1.7-2.4C135,63.5,136.4,62.9,137.7,62.4z"/>
<path class="st2" d="M134.9,62.4l-1.3-3.2c1.9-0.8,3.8-1.5,5.8-2.2l1,3.3C138.6,61,136.7,61.7,134.9,62.4z"/>
<path class="st2" d="M142.9,60.7l0.2,3c-1.1,0.4-2.3,0.8-3.4,1.2l-1-2.7C140.1,61.6,141.5,61.1,142.9,60.7z"/>
<path class="st2" d="M136,40.3l-1.1-3.7l1.8-0.5l0.7,2.2l0.8-0.2c0.6-0.2,1.2-0.4,1.8-0.5l0.8-0.2l-0.4-2.3l1.8-0.4l0.6,2.2l0.8-0.2
	l1.9-0.4l0.8-0.1l-0.3-2.3l1.7-0.3l0.6,2.3l0.6-0.1c0.9-0.2,1.7-0.3,2.5-0.4l0.5-0.1l-0.2-2.3l1.7-0.2l0.5,2.3l0.7-0.1l2.1-0.2
	l0.6-0.1l-0.1-2.3c0.6-0.1,1.1-0.1,1.7-0.1l0.3,3.9C151.3,36.5,143.5,38,136,40.3z"/>
<path class="st2" d="M139.9,42.6l-0.5-2.2c5.6-1.5,11.3-2.6,17-3.2l0.2,2.2C151,40,145.4,41.1,139.9,42.6z"/>
<path class="st2" d="M126.2,51.8l1.6,2.6l0.4-0.2l1.3-0.6l0.3-0.1l0.5-0.2l-1.2-2.7l1-0.4l1.4,2.7l0.7-0.3l1.4-0.5l0.5-0.2l-1-2.8
	l1.1-0.4l1.4,2.7l0.4-0.1l1.3-0.5l0.2-0.1l0.5-0.2l-0.8-2.9l1-0.3l1,2.8l0.5-0.2l1.3-0.3l0.8-0.2l-0.6-3l1-0.3l0.2,5
	c-4.9,1.3-9.6,3.1-14.2,5.2l-2.8-4L126.2,51.8z"/>
<path class="st2" d="M113.3,50.4l-1.8-3.4l1.5-0.9l1.3,2l0.5-0.3c0.7-0.4,1.3-0.8,2-1.1l0.2-0.1l0.5-0.3l-1-2
	c0.7-0.4,1.4-0.7,2.1-1.1l1.1,2.1l0.5-0.3c0.8-0.4,1.5-0.7,2.2-1.1l0.1-0.1l0.6-0.3l-1-2.1l2-0.9l1.6,3.6
	C121.4,46,117.3,48.1,113.3,50.4z"/>
<path class="st2" d="M117.2,51.9L116,50c2.5-1.4,5-2.7,7.6-3.9l1,2C122.1,49.3,119.6,50.6,117.2,51.9z"/>
<path class="st2" d="M119.1,52c1.2-0.6,2.4-1.2,3.6-1.9l11.7,16.7c-0.9,0.4-1.8,0.8-2.7,1.2c-0.8-1.2-3.6-5.6-5-7.5
	c-1.2-1.4-3.2-2-5-1.5L119.1,52z"/>
<path class="st2" d="M122.1,60.1c1.4-0.4,2.8,0.1,3.8,1.2c1.4,1.9,4.1,6,4.9,7.4l-0.7,0.4c-0.8-1.3-3.7-5.6-4.6-6.7
	c-0.7-0.9-1.9-1.3-3-1.2L122.1,60.1z"/>
<path class="st2" d="M122.8,62.1c0.7,0,1.3,0.3,1.8,0.8c0.9,1.1,3.6,5.2,4.5,6.6c-1,0.5-2,1.1-3,1.6L122.8,62.1z"/>
<path class="st2" d="M126.6,74.1l-1-1.5c26.1-15.6,58.6-15.6,84.7,0l-1,1.5C183.8,58.9,152,58.9,126.6,74.1L126.6,74.1z"/>
<path class="st2" d="M129.2,73.8c24.2-13.4,53.5-13.4,77.7,0l-1.1,1.8c-23.5-13-52.1-13-75.6,0L129.2,73.8z"/>
<path class="st2" d="M168,66.8c13.5,0,26.9,3.6,38.6,10.4h-2.8c-22.3-12.3-49.3-12.3-71.6,0h-2.7C141.1,70.4,154.5,66.8,168,66.8z"
	/>
<path class="st2" d="M134.4,77.2c21.1-10.9,46.2-10.9,67.2,0H134.4z"/>
<polygon class="st1" points="190.8,43.8 189.7,43.6 189.7,50.4 190.8,50.6 "/>
<polygon class="st1" points="184.9,42.5 183.8,42.3 181.4,48.8 182.5,49 "/>
<polygon class="st1" points="215.3,52.5 214.4,52 210.8,57.6 211.7,58.1 "/>
<polygon class="st1" points="145.2,50.6 146.3,50.4 146.3,43.6 145.2,43.8 "/>
<polygon class="st1" points="151.1,42.5 153.5,49 154.6,48.8 152.2,42.3 "/>
<polygon class="st1" points="125.2,57.6 121.6,52 120.7,52.5 124.3,58.1 "/>
<path class="st3" d="M208.3,92.1c0.8,1.3,1.5,2.7,2.2,4.1l-2.2,1.1V92.1z"/>
<path class="st3" d="M208.3,99c1-0.4,2-0.9,2.9-1.4c2.5,5.1,4.4,10.4,5.9,15.8c-2.8,1.5-5.7,2.8-8.8,4V99z"/>
<path class="st3" d="M212.8,96.9c3.3-1.6,6.4-3.5,9.5-5.5c3.4,4,6.4,8.4,8.9,13c-3.9,3.1-8.1,5.9-12.5,8.2
	C217.2,107.2,215.2,101.9,212.8,96.9z"/>
<path class="st3" d="M231.9,105.8c2.6,5.1,4.6,10.6,5.9,16.2c-4.7,5.4-10.2,10.2-16.2,14.1c0-0.2,0-0.4,0-0.6
	c0-7.2-0.9-14.4-2.6-21.3C223.5,111.8,227.9,109,231.9,105.8z"/>
<path class="st3" d="M221.1,90.1c-2.9,1.9-6,3.7-9.1,5.3c-1.1-2.2-2.4-4.4-3.7-6.6v-9.9C213,82.1,217.3,85.9,221.1,90.1z"/>
<path class="st3" d="M208.3,128.4v-9.3c3.2-1.3,6.2-2.6,9.2-4.2c1.6,6.7,2.5,13.6,2.5,20.6c0,0.6,0,1.1,0,1.7
	c-4.8,3-9.9,5.6-15.1,7.7C207.2,139.7,208.4,134.1,208.3,128.4z"/>
<path class="st3" d="M131.2,144.9c-5.3-2.1-10.3-4.7-15.1-7.7c0-0.6,0-1.1,0-1.7c0-6.9,0.8-13.8,2.4-20.5c2.9,1.5,6,2.9,9.2,4.2v9.3
	C127.7,134.1,128.9,139.7,131.2,144.9z"/>
<path class="st3" d="M127.7,97.2l-2.2-1.1c0.7-1.4,1.4-2.8,2.2-4.1V97.2z"/>
<path class="st3" d="M127.7,99v18.4c-3.1-1.2-6-2.6-8.8-4c1.4-5.4,3.4-10.7,5.9-15.8C125.7,98.1,126.7,98.5,127.7,99z"/>
<path class="st3" d="M117.4,112.6c-4.4-2.4-8.6-5.1-12.5-8.2c2.5-4.7,5.5-9,8.9-13c3,2,6.2,3.9,9.5,5.5
	C120.8,101.9,118.8,107.2,117.4,112.6z"/>
<path class="st3" d="M117,114.2c-1.7,7-2.6,14.1-2.6,21.3c0,0.2,0,0.4,0,0.6c-6-3.9-11.4-8.7-16.2-14.1c1.3-5.6,3.3-11.1,5.9-16.2
	C108.2,109,112.5,111.8,117,114.2z"/>
<path class="st3" d="M127.7,78.9v9.9c-1.3,2.2-2.6,4.3-3.7,6.6c-3.1-1.6-6.2-3.4-9.1-5.3C118.7,85.9,123,82.1,127.7,78.9z"/>
<path class="st3" d="M114.4,162.1c-6.8-4.5-12.7-10.1-17.7-16.6c-0.7-7.2-0.4-14.4,1-21.4c4.9,5.4,10.5,10.1,16.6,14
	c0.1,5.6,0.8,11.2,2,16.6h1.7c-1.1-5.1-1.8-10.4-2-15.6c5.1,3.1,10.5,5.8,16.1,7.9c3.8,7.3,9.8,13.3,17.2,17.2
	c0.3,4.2,0.8,8.3,1.7,12.4c-8.3-1.5-16.4-3.9-24.1-7.4c-0.5,0.4-1,0.7-1.7,0.9c8.3,3.9,17.1,6.6,26.1,8.1c1.7,7.4,4.3,14.6,7.9,21.3
	c-6.3-0.5-12.5-1.7-18.6-3.4c-6.5-6.6-11.9-14.2-15.9-22.5l-0.2,0.3l-1.2,0.6c3.7,7.5,8.5,14.5,14.2,20.7c-9.5-3-18.4-7.5-26.3-13.5
	c-7.4-9.7-12.2-21.1-14-33.1c4.9,6,10.7,11.2,17.2,15.4V162.1z"/>
<path class="st3" d="M115.1,186.3c7.6,4.9,15.9,8.6,24.6,11.1c3.8,3.9,8,7.4,12.5,10.5C137.9,204.7,124.9,197.2,115.1,186.3z"/>
<path class="st3" d="M156.5,208.8c-4.9-3-9.4-6.5-13.5-10.5c5.6,1.4,11.4,2.3,17.2,2.8c1.6,3,3.5,5.8,5.5,8.6
	C162.6,209.6,159.5,209.3,156.5,208.8z"/>
<path class="st3" d="M168,209.7h-0.4c-9.7-13-15.5-28.5-16.6-44.7c10.8,5,23.2,5,34,0c-1.2,16.2-6.9,31.7-16.6,44.7L168,209.7z"/>
<path class="st3" d="M175.9,201.1c5.8-0.4,11.6-1.4,17.2-2.8c-4.2,3.9-8.7,7.4-13.6,10.4c-3,0.5-6.1,0.8-9.1,0.9
	C172.4,206.9,174.2,204.1,175.9,201.1z"/>
<path class="st3" d="M183.8,207.9c4.5-3.1,8.7-6.6,12.5-10.5c8.7-2.5,17-6.2,24.6-11.1C211.1,197.2,198.1,204.7,183.8,207.9z"/>
<path class="st3" d="M220.8,164.4c6.8-4.3,12.9-9.7,18-15.8c-1.8,12.1-6.6,23.5-14.1,33.1c-7.9,5.9-16.8,10.5-26.3,13.5
	c5.7-6.2,10.5-13.2,14.2-20.8l-0.1,0.1h-0.6h-1.1c-4,8-9.2,15.3-15.5,21.7c-6.1,1.7-12.3,2.8-18.6,3.4c3.5-6.7,6.2-13.9,7.9-21.3
	c6.6-1.1,13.1-2.9,19.3-5.2c-0.2-0.5-0.4-1-0.4-1.5c-6,2.3-12.2,4-18.5,5.1c0.8-4.1,1.4-8.2,1.7-12.4c7.4-3.8,13.4-9.8,17.2-17.2
	c5.6-2.1,11-4.8,16.1-7.9c-0.2,5.8-1,11.6-2.4,17.3c0.5,0.4,0.9,1,1.1,1.5l0.1,0.3c1.8-6.6,2.7-13.4,2.9-20.3
	c6.1-3.9,11.7-8.6,16.6-14c1.4,7.1,1.7,14.3,1,21.4c-5.3,6.9-11.7,12.8-18.9,17.4L220.8,164.4z"/>
<path class="st1" d="M171.8,182.8c-0.8-0.4-1.7-0.6-2.6-0.6c-2.3,0-4,1.8-4,6c0,3.1,1.4,6.4,5,6.4c0.8,0.1,1.5-0.2,2.2-0.7
	c0.7-0.7,1.3-1.5,1.7-2.3l0.1-0.1h0.1c0.3,0.1,0.6,0.3,0.8,0.6v0.1c-0.4,1.2-1,2.4-1.9,3.3c-1.1,0.4-2.3,0.6-3.5,0.6
	c-5.2,0-8.4-2.6-8.4-7.7c-0.1-2.7,1.4-5.2,3.9-6.4c1.5-0.7,3.1-1,4.8-1c1.8,0,3.7,0.3,4.7,0.4h0.2v0.2c-0.2,1.3-0.3,2.5-0.4,3.8
	c-0.1,0.2-1,0.4-1.1,0.1C172.8,184.1,172.6,183.3,171.8,182.8z"/>
<path class="st1" d="M120.8,165.6c0,1.5,0,2.8,0,3.8c0,0.7,0.2,0.9,0.6,1s0.9,0.1,1.5,0.2h0.1v0.1c0,0.3,0,0.6-0.1,0.9h-0.1
	c-1.3,0-2.3-0.1-3.6-0.1c-1.3,0-2.3,0.1-3.7,0.1l-0.1-0.1c-0.1-0.2-0.2-0.8,0-0.9c0.4-0.1,0.8-0.1,1.2-0.2c0.5-0.1,0.6-0.4,0.6-1
	c0-0.6,0.1-3.7,0.1-5.1c0-2.6,0-4-0.1-4.9c0-0.7-0.2-0.8-0.6-0.9s-0.8-0.1-1.3-0.2l-0.1-0.1c-0.1-0.3-0.1-0.7,0-1h0.1
	c0.8,0,2.1,0.1,3.5,0.1h5.2c0.9,0,1.9,0,2.8-0.2h0.1c0,0,0.2,0.2,0.2,0.4c-0.2,1.2-0.3,2.4-0.4,3.6l-0.1,0.1c-0.2,0.1-0.8,0.2-1,0
	l-0.1-0.1c-0.1-0.7-0.3-1.3-0.5-1.9c-0.2-0.3-0.5-0.5-0.8-0.5c-1.1-0.1-2.2-0.1-3.3,0c-0.1,0.1-0.1,0.2-0.1,0.3c0,1.2,0,3,0,4.8
	c0.7,0,1.5,0,2.2,0c0.5,0,0.7-0.2,0.8-0.6c0.1-0.3,0.2-0.7,0.3-1l0.1-0.1c0.3-0.1,0.7-0.1,1,0l0.1,0.1c-0.1,0.6-0.1,1.4-0.1,2.4
	s0,1.7,0,2.4v0.1c-0.1,0.1-0.1,0.1-0.2,0.1h-0.3c-0.2,0-0.3,0-0.5,0h-0.1v-0.1c-0.1-0.4-0.2-0.7-0.3-1.1c-0.2-0.4-0.4-0.5-0.6-0.5
	C122.5,165.6,121.4,165.6,120.8,165.6z"/>
<path class="st1" d="M208.8,168.9c1.3-3,3.1-8.1,3.7-9.8c0.2-0.5,0.4-1,0.5-1.6v-0.1h0.1c0.3,0,0.8,0,1.2,0s0.8,0,1.1,0h0.1l0.4,1.4
	c0.8,2.2,2.6,7.5,3.4,9.5c0.8,1.9,0.8,2,2.5,2.3l0.1,0.1c0.1,0.3,0,0.6-0.1,0.9h-0.1c-0.6,0-1.6-0.1-3.4-0.1c-1.9,0-2.7,0.1-3.5,0.1
	h-0.1v-0.1c-0.1-0.3-0.1-0.6,0-0.9l0.1-0.1c0.4,0,0.7-0.1,1.1-0.3c0.1-0.1,0.2-0.2,0.2-0.3c-0.2-0.8-0.7-2.3-1-3.1l-0.1-0.1
	c-0.4,0-1.2,0-1.8,0c-0.9,0-1.5,0-1.9,0c-0.1,0-0.1,0.1-0.1,0.1c-0.2,0.6-0.4,1.2-0.6,1.7c-0.1,0.4-0.2,0.7-0.3,1.1
	c0,0.3,0.1,0.5,0.5,0.6s0.7,0.2,1.1,0.2l0.1,0.1c0.1,0.3,0.1,0.7-0.1,0.9l-0.1,0.1c-0.7,0-1.6-0.1-2.9-0.1c-0.9,0-1.8,0.1-2.6,0.1
	l-0.1-0.1c-0.1-0.3-0.1-0.6,0-0.9l0.1-0.1C207.9,170.4,208.2,170.2,208.8,168.9z M214.5,165.2c-0.2-0.7-0.9-2.8-1.4-4
	c-0.4,1.3-1,3-1.4,4c0.3,0,0.7,0,1.2,0S214.2,165.2,214.5,165.2L214.5,165.2z"/>
<rect x="129.2" y="78.8" class="st2" width="77.6" height="27.8"/>
<polygon class="st4" points="161.6,106.6 161.6,97.9 151.7,97.9 151.7,106.6 138.9,106.6 138.9,97.9 129.2,97.9 129.2,87.4 
	138.9,87.4 138.9,78.8 151.7,78.8 151.7,87.4 161.6,87.4 161.6,78.8 174.4,78.8 174.4,87.4 184.3,87.4 184.3,78.8 197.1,78.8 
	197.1,87.4 206.8,87.4 206.8,97.9 197.1,97.9 197.1,106.6 184.3,106.6 184.3,97.9 174.4,97.9 174.4,106.6 "/>
<path class="st5" d="M191.6,148.8c-5.1,0-7-1.5-12.2-1.5c-5.2,0-5.8,2-11.5,2s-6.3-2-11.5-2s-7.1,1.5-12.2,1.5
	c-3.4-0.1-6.8-0.6-10.1-1.4c1,1.9,2.2,3.6,3.6,5.3c2.2,0.4,4.4,0.6,6.6,0.6c5.1,0,7-1.5,12.2-1.5s5.8,1.9,11.5,1.9s6.3-1.9,11.5-1.9
	s7.1,1.5,12.2,1.5c2.2,0,4.4-0.2,6.6-0.6c1.3-1.7,2.5-3.4,3.6-5.3C198.5,148.3,195.1,148.7,191.6,148.8z"/>
<path class="st5" d="M179.5,156.2c-5.2,0-5.8,2-11.5,2s-6.3-2-11.5-2s-7.1,1.5-12.2,1.5c-0.6,0-1.2,0-1.9-0.1c1.8,1.6,3.8,3,5.9,4.2
	c2.6-0.4,4.6-1.1,8.2-1.1c5.2,0,5.8,2,11.5,2s6.3-2,11.5-2c3.6,0,5.6,0.7,8.2,1.1c2.1-1.2,4.1-2.6,5.9-4.2c-0.6,0-1.2,0.1-1.9,0.1
	C186.5,157.7,184.7,156.2,179.5,156.2z"/>
<path class="st4" d="M154.7,144c0,0-0.8-1.4-1.8-1.3s-1.6,0.6-2.6,0.6s-5.1-1.9-5.1-1.9c0.1,0.5,0.2,1.1,0.2,1.7
	c-0.1,0.6-0.4,1.1-0.8,1.5c0,0,1.5,0.1,5.2,0.6S154.7,144,154.7,144z"/>
<path class="st4" d="M164.9,145c0.5-0.3,1.2-0.2,1.6,0.2c0.6,0.3,0.8,1,0.6,1.6c-0.3,0.9-1.1,1.4-2,1.5c-1,0-2.3,0-2.9-1.2
	c-0.7-1.7-1.6-3.4-2.6-5c-0.6-0.6-1.5-0.9-2.3-0.7c-0.9,0.1-1,0.1-1.1-0.1c-0.2-0.5,0.5-1,1.6-1.2s2.4-0.3,3.2,0.7
	c0.7,1,2.8,4.2,3,5.2c0.2,1-0.1,1.6,0.6,1.6c0.7,0,0.9-1,0.8-1.2c-0.1-0.2-0.8-0.2-0.9-0.6S164.6,145.2,164.9,145z"/>
<path class="st6" d="M144.5,121.7c0.3-0.1,0.6-0.1,0.9-0.2c-0.2-0.1-0.3-0.1-0.5-0.2L144.5,121.7z M149.1,137.1
	c-0.1,0.1-0.1,0.2-0.2,0.2c0.1,0.1,0.1,0.3,0.2,0.5C149.1,137.6,149.1,137.4,149.1,137.1z M147.7,135.6c-0.2-1-0.3-2.1-0.1-3.1
	c0.1-0.4,0.2-0.9,0.4-1.3c0.7,1.4,1.2,2.8,1.5,4.4c0.1-0.6,0.4-1.2,0.8-1.7c0.3,1.3,0.5,2.7,0.4,4c0,0.6-0.3,1.1-0.7,1.4
	c-0.3-0.2-0.5-0.5-0.6-0.8c0,0,0,0.1,0,0.1c0,0.1,0,0.2-0.1,0.3c-0.2,0-0.3,0-0.5-0.1c0.6,0.3,8.6,4.3,11.3,5.4l-0.1,1
	c-2.7-1.2-13.6-6.8-15-7.6c0,0.1,0,0.1,0,0.2c-0.2,0.7-0.6,1.4-1.2,1.8c0-0.3,0-0.5,0-0.8c0-0.6,0.3-1.1,0.8-1.5l-1.4-0.9
	c-0.2,0.5-0.5,0.9-1,1.1c-1.3,0.7-2.8,1.1-4.3,0.9c0.4-0.3,3.5-2.7,5-2.2c-0.6-0.7-2.9-3.1-3.5-5.3l0,0c-0.6,0.2-2.7-2-3.5-3.3
	c1.5,0.3,2.7,1.2,3.4,2.5c0-0.3,0-0.7,0.2-1c0.2-0.6,0.3-1.3,0.2-1.9c0,0.2-0.1,0.3-0.3,0.3c-1,0.6-4.1-0.6-5.3-1.5
	c0.6-0.2,1.2-0.4,1.8-0.4c-1-0.8-1.8-1.8-2.4-3c0.4,0,3.7,0.5,4.5,3.2h0.1c-0.6-1.2-0.7-2.5-0.6-3.8c0-0.2,0.1-0.3,0.1-0.4
	c0.3,0.3,1.9,2.1,1.7,3.9c0,0.3-0.1,0.5-0.2,0.8h-0.1c0.2,0.2,0.5,0.3,0.7,0.6c-0.2-1.9-0.5-3.7-1-5.6v-0.1c-0.2,0-0.4-0.1-0.5-0.3
	c-0.5-0.6-0.8-1.3-0.9-2.1c0.5,0.4,0.9,0.8,1.2,1.3l-0.2-1.3H138c-1.3-0.4-2.5-1.2-3.2-2.3c0.8,0.1,1.5,0.3,2.2,0.5
	c-1-1.1-1.7-2.5-1.9-4c1.3,0.7,2.4,1.6,3.2,2.8c0-0.2,0-0.4,0-0.6v-0.1c-0.2-0.1-0.3-0.3-0.4-0.5c-0.6-1.1-0.9-2.4-0.8-3.6
	c0-0.1,0-0.2,0.1-0.2c0.7,0.8,1.2,1.7,1.6,2.7c0.3-0.7,0.7-1.3,1.2-1.8c0,0.7,0,1.4-0.1,2.2c-0.2,1.2-0.5,2.3-1.3,2.6h-0.1
	c0.1,0.3,0.2,0.7,0.1,1.1c0,0,0,0.1,0,0.1c-0.1,0.1-0.2,0.1-0.4,0.1c0.3,0.2,0.5,0.6,0.6,0.9l0,0l0.3,2.4c0,0.1,0,0.2,0.1,0.4
	c1.4-0.9,2.6-2.1,3.6-3.5c-0.2-0.2-0.3-0.4-0.4-0.7c-0.3-0.9-0.3-1.8-0.2-2.7c0-0.4,0.2-0.8,0.3-1.2c0.3,0.5,0.5,1.1,0.6,1.6
	c0.5-0.9,1.2-1.7,2-2.3c0,0.3,0,0.7-0.1,1c-0.1,0.6-0.2,1.2-0.4,1.8c0.7-0.7,1.6-1.3,2.6-1.5c-0.4,1-1.1,1.9-1.8,2.7
	c0.2,0,0.4,0,0.6,0c1,0,2,0.3,2.8,0.8c-0.6,0.1-3.3,0.3-4.2-0.2c-0.2,0.1-0.5,0.1-0.7,0.1c-0.1-0.1-0.1-0.3-0.1-0.4
	c-0.1,0.1-0.2,0.2-0.3,0.2v0.1c0,0.3-0.2,0.6-0.4,0.8h-0.1l0.1,0.1c-1,1.5-2.4,2.7-3.9,3.6c0.2,0.6,0.4,1.5,0.5,2.5
	c0.9-0.6,2.9-2.1,4.6-3.5c0,0-0.1-0.1-0.1-0.1l0,0c0.1-0.3,0.3-0.6,0.6-0.7c0.2-0.1,0.3-0.1,0.5-0.2c-0.1,0-0.3-0.1-0.4-0.1
	c0-0.1,0-0.2,0-0.3c0-0.2,0.2-0.4,0.3-0.6c1.3-0.9,2.8-1.4,4.4-1.2c-0.9,1-2,1.7-3.2,2.2c1,0,2.1,0.3,3,0.8
	c-0.9,0.4-1.9,0.7-2.9,0.8c0.8,0.1,1.6,0.4,2.3,0.9c-0.7,0.1-4.4,0.5-5-0.5c-1.6,1.2-3.3,2.4-4,2.9c0.2,1.2,0.3,2.5,0.1,3.7
	c0,0.3-0.1,0.6-0.2,0.9c0,0.1-0.1,0.2-0.1,0.3c-0.2,1.7,2.3,4.8,3.4,5.9c0,0,2,1.2,5,2.8c-0.2-0.1-0.3-0.3-0.5-0.4
	c-0.9-1.1-1.5-2.5-1.6-4C146.8,134.7,147.3,135.1,147.7,135.6z M138.9,117.7v-0.2c0.2-1.3,0.8-2.4,1.7-3.3c0,0.7,0,1.4-0.1,2.1
	c-0.2,1.1-0.5,2.3-1.3,2.6C139,118.5,138.8,118.1,138.9,117.7L138.9,117.7z M142.7,121.5c0.1-0.3,0.2-0.7,0.3-1
	c0.5-1.1,1.3-2.1,2.2-2.8c-0.2,0.7-1.3,4.4-2.5,4.5C142.7,122,142.6,121.7,142.7,121.5L142.7,121.5z M143,131.8
	c0.4-0.9,1-1.6,1.8-2.2c0,0.1,0,0.2,0,0.4c-0.2,1.3-0.8,4.5-2.2,4.8c-0.2-0.3-0.3-0.6-0.2-0.9c-0.1,0.1-0.2,0.2-0.3,0.3
	c-0.4-0.5-0.5-1.1-0.4-1.7V132c0.1-1.2,0.6-2.4,1.3-3.4C143.1,129.7,143.1,130.7,143,131.8z M135.8,133.3c-0.5,0.3-1,0.3-1.5,0.1
	c-1.4-0.5-2.7-1.4-3.5-2.6C131.4,130.9,135.5,131.7,135.8,133.3L135.8,133.3z M141.9,135.5c-0.2,0.5-0.5,0.8-1,0.9
	c-1.7,0.4-3.4,0.3-5-0.5c0.4-0.2,0.9-0.4,1.3-0.5c-1.6,0-3.2-0.6-4.4-1.6c0.6-0.1,4.9-0.9,5.9,0.9c-0.1,0.1-0.2,0.3-0.3,0.4
	c0.5-0.1,1.1-0.2,1.6-0.2l-0.2-0.2c-0.3-0.3-0.6-0.6-0.8-0.9c-0.5,0.1-1,0.1-1.4-0.1c-1.4-0.6-2.5-1.7-3.2-3
	c1.3,0.4,2.5,0.9,3.7,1.6c-0.2-0.3-0.3-0.6-0.3-0.9c0.5,0.3,3.6,2.3,3.7,3.7C141.5,135.2,141.7,135.3,141.9,135.5L141.9,135.5z
	 M144.5,136.4c-0.2-0.5-0.3-1-0.1-1.5c0-0.3,0.1-0.6,0.2-0.8c0.4,0.6,0.6,1.3,0.5,2c0,0.2-0.1,0.4-0.3,0.6
	C144.7,136.6,144.5,136.5,144.5,136.4L144.5,136.4z"/>
<path class="st4" d="M181.4,144c0,0,0.8-1.4,1.8-1.3c1,0.1,1.6,0.6,2.6,0.6s5.1-1.9,5.1-1.9c-0.1,0.5-0.2,1.1-0.2,1.7
	c0.1,0.6,0.4,1.1,0.8,1.5c0,0-1.5,0.1-5.2,0.6S181.4,144,181.4,144z"/>
<path class="st4" d="M171.1,145c-0.5-0.3-1.2-0.2-1.6,0.2c-0.6,0.3-0.8,1-0.6,1.6c0.3,0.9,1.1,1.4,2,1.5c1,0,2.3,0,2.9-1.2
	c0.7-1.7,1.6-3.4,2.6-5c0.6-0.6,1.5-0.9,2.3-0.7c0.9,0.1,1,0.1,1.1-0.1c0.2-0.5-0.5-1-1.6-1.2c-1.1-0.2-2.5-0.3-3.2,0.7
	c-0.7,1-2.8,4.2-3,5.2c-0.2,1,0.1,1.6-0.6,1.6c-0.7,0-0.9-1-0.8-1.2c0.1-0.2,0.8-0.2,0.9-0.6S171.4,145.2,171.1,145z"/>
<path class="st6" d="M191.5,121.7c-0.3-0.1-0.6-0.1-0.9-0.2c0.2-0.1,0.3-0.1,0.5-0.2L191.5,121.7z M186.9,137.1
	c0.1,0.1,0.1,0.2,0.2,0.2c-0.1,0.1-0.1,0.3-0.2,0.5C186.9,137.6,186.9,137.4,186.9,137.1z M188.3,135.6c0.2-1,0.3-2.1,0.1-3.1
	c-0.1-0.4-0.2-0.9-0.4-1.3c-0.7,1.4-1.2,2.8-1.5,4.4c-0.1-0.6-0.4-1.2-0.8-1.7c-0.3,1.3-0.5,2.7-0.4,4c0,0.6,0.3,1.1,0.7,1.4
	c0.3-0.2,0.5-0.5,0.6-0.8c0,0,0,0.1,0,0.1c0,0.1,0,0.2,0.1,0.3c0.2,0,0.3,0,0.5-0.1c-0.6,0.3-8.6,4.3-11.3,5.4l0.1,1
	c2.7-1.2,13.6-6.8,15-7.6c0,0.1,0,0.1,0,0.2c0.2,0.7,0.6,1.4,1.2,1.8c0-0.3,0-0.5-0.1-0.8c0-0.6-0.3-1.1-0.8-1.5l1.4-0.8
	c0.2,0.5,0.5,0.9,1,1.1c1.3,0.7,2.8,1.1,4.3,0.9c-0.4-0.3-3.5-2.7-5-2.2c0.6-0.7,2.9-3.1,3.5-5.3l0,0c0.6,0.2,2.7-2,3.5-3.3
	c-1.5,0.3-2.7,1.2-3.4,2.5c0-0.3,0-0.7-0.2-1c-0.2-0.6-0.3-1.3-0.2-1.9c0,0.2,0.1,0.3,0.3,0.3c1,0.6,4.1-0.6,5.3-1.5
	c-0.6-0.2-1.2-0.4-1.8-0.4c1-0.8,1.8-1.8,2.4-3c-0.4,0-3.7,0.5-4.5,3.2H198c0.6-1.2,0.7-2.5,0.6-3.8c0-0.2-0.1-0.3-0.1-0.4
	c-0.3,0.3-1.9,2.1-1.6,3.9c0,0.3,0.1,0.5,0.2,0.8h0.1c-0.2,0.2-0.5,0.3-0.7,0.6c0.2-1.9,0.5-3.7,1-5.6v-0.1c0.2,0,0.3-0.1,0.5-0.3
	c0.5-0.6,0.8-1.3,0.9-2.1c-0.5,0.4-0.9,0.8-1.2,1.3l0.2-1.3h0.2c1.3-0.4,2.5-1.2,3.2-2.3c-0.8,0.1-1.5,0.2-2.2,0.5
	c1-1.1,1.7-2.5,1.9-4c-1.3,0.7-2.4,1.7-3.2,2.9c0-0.2,0-0.4,0-0.6v-0.1c0.2-0.1,0.3-0.3,0.4-0.5c0.6-1.1,0.9-2.4,0.8-3.6
	c0-0.1,0-0.2-0.1-0.2c-0.7,0.8-1.2,1.7-1.6,2.7c-0.3-0.7-0.6-1.3-1.2-1.8c0,0.7,0,1.4,0.1,2.1c0.2,1.2,0.5,2.3,1.3,2.6l0,0
	c-0.1,0.3-0.2,0.7-0.1,1.1v0.1c0.1,0.1,0.2,0.1,0.4,0.1c-0.3,0.2-0.6,0.6-0.6,0.9l0,0l-0.3,2.4c0,0.1,0,0.2-0.1,0.4
	c-1.4-0.9-2.6-2.1-3.6-3.5c0.2-0.2,0.3-0.4,0.4-0.7c0.3-0.9,0.3-1.8,0.2-2.7c0-0.4-0.2-0.8-0.4-1.2c-0.3,0.5-0.5,1.1-0.6,1.6
	c-0.5-0.9-1.2-1.7-2-2.3c0,0.3,0,0.7,0.1,1c0.1,0.6,0.2,1.2,0.4,1.8c-0.7-0.7-1.6-1.3-2.6-1.5c0.5,1,1.1,1.9,1.8,2.7
	c-0.2,0-0.4,0-0.6,0c-1,0-1.9,0.3-2.8,0.8c0.6,0.1,3.3,0.3,4.2-0.2c0.2,0.1,0.5,0.1,0.7,0.1c0.1-0.1,0.1-0.3,0.1-0.4
	c0.1,0.1,0.2,0.2,0.3,0.2v0.1c0,0.3,0.2,0.6,0.4,0.8h0.1l-0.1,0.1c1,1.5,2.3,2.8,3.9,3.7c-0.1,0.6-0.4,1.5-0.5,2.5
	c-0.9-0.6-2.9-2.1-4.6-3.5c0,0,0.1,0,0.1-0.1l0,0c-0.1-0.3-0.3-0.6-0.6-0.7c-0.2-0.1-0.3-0.1-0.5-0.2c0.1,0,0.3-0.1,0.4-0.1
	c0-0.1,0-0.2,0-0.3c0-0.2-0.1-0.4-0.3-0.6c-1.3-0.9-2.8-1.4-4.4-1.2c0.9,0.9,2,1.7,3.2,2.1c-1,0-2.1,0.3-3,0.8
	c0.9,0.4,1.9,0.7,2.9,0.8c-0.8,0.1-1.6,0.4-2.3,0.9c0.7,0.1,4.4,0.5,5-0.5c1.6,1.2,3.3,2.4,4,2.9c-0.2,1.2-0.3,2.5-0.1,3.7
	c0,0.3,0.1,0.6,0.2,0.9c0,0.1,0.1,0.2,0.1,0.3c0.2,1.7-2.3,4.8-3.4,5.9c0,0-2,1.2-5,2.8c0.2-0.1,0.3-0.3,0.5-0.4
	c0.9-1.1,1.5-2.5,1.6-4C189.2,134.7,188.7,135.1,188.3,135.6z M197.1,117.7c0-0.1,0-0.1,0-0.2c-0.2-1.3-0.8-2.4-1.7-3.3
	c0,0.7,0,1.4,0.1,2.1c0.2,1.1,0.5,2.3,1.3,2.6C197,118.5,197.2,118.1,197.1,117.7L197.1,117.7z M193.3,121.5c-0.1-0.3-0.2-0.7-0.3-1
	c-0.5-1.1-1.3-2.1-2.2-2.8c0.2,0.7,1.3,4.4,2.5,4.5C193.3,122,193.4,121.7,193.3,121.5L193.3,121.5z M193,131.8
	c-0.4-0.9-1-1.6-1.8-2.2c0,0.1,0,0.2,0,0.4c0.2,1.3,0.8,4.5,2.2,4.8c0.2-0.3,0.3-0.6,0.2-0.9c0.1,0.1,0.2,0.2,0.3,0.3
	c0.3-0.5,0.5-1.1,0.4-1.7V132c-0.2-1.2-0.6-2.4-1.4-3.4C192.9,129.7,192.9,130.7,193,131.8z M200.2,133.3c0.5,0.3,1,0.3,1.5,0.1
	c1.4-0.5,2.7-1.4,3.5-2.6C204.6,130.9,200.5,131.7,200.2,133.3L200.2,133.3z M194.1,135.5c0.2,0.5,0.5,0.8,1,0.9
	c1.7,0.4,3.4,0.3,5-0.5c-0.4-0.2-0.9-0.4-1.4-0.5c1.6,0,3.2-0.6,4.4-1.6c-0.6-0.1-4.9-0.9-5.9,0.9c0.1,0.1,0.2,0.3,0.3,0.4
	c-0.5-0.1-1.1-0.2-1.6-0.2l0.2-0.2c0.3-0.3,0.6-0.6,0.8-0.9c0.5,0.1,1,0.1,1.4-0.1c1.4-0.6,2.5-1.7,3.2-3c-1.3,0.4-2.5,0.9-3.7,1.6
	c0.2-0.3,0.3-0.6,0.3-0.9c-0.5,0.3-3.6,2.3-3.7,3.7C194.5,135.2,194.3,135.3,194.1,135.5L194.1,135.5z M191.5,136.4
	c0.2-0.5,0.3-1,0.1-1.5c0-0.3-0.1-0.6-0.2-0.8c-0.4,0.6-0.6,1.3-0.5,2c0,0.2,0.1,0.4,0.3,0.6C191.3,136.6,191.5,136.5,191.5,136.4
	L191.5,136.4z"/>
<path class="st1" d="M140.5,96.9h-0.6c-1.4,0.4-2.9-0.4-3.4-1.8c-0.2-0.5-0.3-1-0.4-1.5c0-0.2,0-0.5,0-0.7c0.5-3.5,3.1-3.9,4.9-3.6
	c0.5,0.1,1,0.3,1.5,0.5l0.5,0.3l-0.1-0.6c-0.2-1.3-0.4-2.6-0.7-3.8c0.1-1.5,0.6-2.9,1.4-4.1c0.5-0.9,1.1-1.7,1.7-2.5
	c0.6,0.8,1.2,1.6,1.7,2.5c0.8,1.2,1.2,2.6,1.4,4l-0.1,0.4l-0.2,1c-0.1,0.6-0.3,1.5-0.4,2.6l-0.1,0.6l0.5-0.3c0.5-0.3,1-0.4,1.5-0.5
	c1.7-0.3,4.4,0.1,4.9,3.6c0,0.2,0,0.5,0,0.7c-0.1,0.5-0.2,1-0.4,1.5c-0.4,1.4-1.8,2.3-3.3,2l-0.7-0.1c-0.2,0.2-0.4,0.3-0.7,0.3H147
	v1.4l0.5,0.1c0.3-0.5,0.4-0.5,0.6-0.4c0.1,0,0.2,0.1,0.3,0.1c0.2,0.1,0.4,0.3,0.6,0.5c0.5,0.7,0.7,1.6,0.3,2.3
	c-0.3,0.8-1.1,1.4-2,1.3H147v0.8c0.1,1.4-3.6,1.4-3.5,0v-0.8h-0.3c-0.9,0.1-1.7-0.5-2-1.3c-0.4-0.8-0.2-1.7,0.3-2.3
	c0.2-0.2,0.4-0.4,0.6-0.5l0.3-0.2l1-0.4l-0.1-0.5l-2.2-0.1C140.9,97.2,140.7,97.1,140.5,96.9z"/>
<path class="st6" d="M148.1,99.1c0.6,0.5,0.9,1.3,0.5,2c-0.3,0.7-1.1,1.1-1.9,0.8c0,0-0.1,0-0.1-0.1l-0.3-0.2l0.1,1.8
	c0,0.5-2.2,0.5-2.2,0l0.1-1.8l-0.3,0.2c-0.7,0.4-1.6,0.1-1.9-0.6c0,0,0-0.1-0.1-0.1c-0.3-0.7-0.1-1.6,0.6-2c0,0.3,0,0.5,0.1,0.8
	c0.2,0.6,0.6,1.1,1.6,0.6l0.1-0.2c0-1.2,0-2.4,0-3.5v-0.2h-3c-0.2,0-0.4-0.2-0.4-0.7s0.3-0.7,0.4-0.7h1.3l-0.1-0.3
	c-0.1-0.6-0.6-1.1-1.1-1.3c-0.2-0.1-0.3-0.1-0.5-0.1h-0.2c-1.4,0.1-1.8,1.7-1.1,3c-2.6,0.1-2.6-3.4-2.6-3.5c0.4-3,2.6-3.3,4.2-3
	c1.2,0.1,2.1,0.9,2.6,2l0.4-0.1c-0.2-2.1-0.5-4.2-1-6.2c0-2,1.8-4.6,2.4-5.4c0.6,0.8,2.4,3.5,2.4,5.4c-0.5,2.1-0.8,4.1-1,6.2
	l0.4,0.1c0.4-1.1,1.4-1.9,2.6-2c1.6-0.2,3.7,0.1,4.1,3c0,0.3,0,3.5-2.6,3.5c0.7-1.3,0.3-2.9-1.2-3h-0.2c-0.2,0-0.4,0.1-0.5,0.1
	c-0.5,0.2-1,0.7-1.1,1.3l-0.1,0.3h1.3c0.2,0,0.4,0.2,0.4,0.7s-0.2,0.7-0.4,0.7h-3v0.2c0,1.1,0,2.2,0,3.5l0.1,0.2
	c1,0.5,1.5,0,1.6-0.6C148.2,99.6,148.2,99.3,148.1,99.1z"/>
<polygon class="st1" points="145.3,81.8 144.5,95.1 146.1,95.1 "/>
<path class="st1" d="M185.9,96.9h-0.6c-1.4,0.4-2.9-0.4-3.3-1.8c-0.2-0.5-0.3-1-0.4-1.5c0-0.2,0-0.5,0-0.7c0.5-3.5,3.2-3.9,4.9-3.6
	c0.5,0.1,1,0.3,1.5,0.5l0.5,0.3l-0.1-0.6c-0.2-1.3-0.4-2.6-0.7-3.8c0.1-1.4,0.5-2.8,1.2-4.1c0.5-0.9,1.1-1.7,1.7-2.5
	c0.4,0.5,1.2,1.7,1.7,2.5c0.8,1.2,1.2,2.6,1.4,4l-0.1,0.4l-0.2,1c-0.1,0.6-0.3,1.5-0.4,2.6l-0.1,0.6l0.5-0.3c0.5-0.3,1-0.4,1.5-0.5
	c1.8-0.3,4.4,0.1,4.9,3.6c0,0.2,0,0.5,0,0.7c-0.1,0.5-0.2,1-0.4,1.5c-0.4,1.4-1.8,2.3-3.3,2l-0.7-0.1c-0.2,0.2-0.4,0.3-0.7,0.3h-2.4
	v1.4l0.5,0.1c0.3-0.5,0.4-0.5,0.6-0.4c0.1,0,0.2,0.1,0.3,0.1c0.2,0.1,0.4,0.3,0.6,0.5c0.5,0.7,0.7,1.6,0.3,2.3
	c-0.3,0.8-1.1,1.4-2,1.3h-0.3v0.8c0.1,1.4-3.6,1.4-3.4,0v-0.8h-0.3c-0.9,0.1-1.7-0.5-2-1.3c-0.4-0.8-0.2-1.7,0.4-2.4
	c0.2-0.2,0.4-0.4,0.6-0.5c0.1-0.1,0.2-0.1,0.3-0.2l1-0.4l-0.1-0.5l-2.2-0.1C186.4,97.2,186.1,97.1,185.9,96.9z"/>
<path class="st6" d="M193.5,99.1c0.6,0.4,0.9,1.3,0.6,2c-0.3,0.7-1.1,1.1-1.9,0.8c0,0-0.1,0-0.1-0.1l-0.3-0.2l0.1,1.8
	c0,0.5-2.2,0.5-2.2,0l0.1-1.8l-0.3,0.2c-0.7,0.4-1.6,0.1-1.9-0.6c0,0,0-0.1-0.1-0.1c-0.3-0.7-0.1-1.5,0.5-2c0,0.3,0,0.5,0.1,0.8
	c0.2,0.6,0.6,1.1,1.6,0.6l0.1-0.2c0-1.2,0-2.4,0-3.5v-0.2h-3c-0.2,0-0.4-0.2-0.4-0.7s0.3-0.7,0.4-0.7h1.3l-0.1-0.3
	c-0.1-0.6-0.6-1-1.1-1.3c-0.2-0.1-0.3-0.1-0.5-0.1H186c-1.4,0.1-1.8,1.7-1.1,3c-2.7,0.1-2.6-3.4-2.6-3.5c0.4-3,2.6-3.3,4.1-3
	c1.2,0.1,2.1,0.9,2.6,2l0.4-0.1c-0.2-2.1-0.5-4.2-1-6.2c0-2,1.8-4.6,2.4-5.4c0.6,0.8,2.4,3.5,2.4,5.4c-0.5,2-0.8,4.1-1,6.2l0.4,0.1
	c0.4-1.1,1.4-1.9,2.6-2c1.6-0.2,3.7,0.1,4.2,3c0,0.3-0.1,3.5-2.6,3.5c0.7-1.3,0.2-2.9-1.2-3h-0.2c-0.2,0-0.4,0.1-0.5,0.1
	c-0.6,0.2-1,0.7-1.1,1.3l-0.1,0.3h1.3c0.2,0,0.4,0.2,0.4,0.7s-0.3,0.7-0.4,0.7h-3v0.2c0,1.1-0.1,2.2-0.1,3.5l0.1,0.2
	c1,0.5,1.5,0,1.6-0.6C193.6,99.6,193.6,99.3,193.5,99.1z"/>
<polygon class="st1" points="190.7,81.8 189.9,95.1 191.5,95.1 "/>
<path class="st1" d="M163.2,96.9h-0.6c-1.4,0.4-2.9-0.4-3.4-1.8c-0.2-0.5-0.3-1-0.4-1.5c0-0.2,0-0.5,0-0.7c0.5-3.5,3.1-3.9,4.9-3.6
	c0.5,0.1,1,0.3,1.5,0.5l0.5,0.3l-0.1-0.6c-0.2-1.3-0.4-2.6-0.7-3.9c0.1-1.5,0.6-2.9,1.4-4.1c0.5-0.9,1.1-1.7,1.6-2.5
	c0.6,0.8,1.2,1.6,1.7,2.5c0.8,1.2,1.2,2.6,1.4,4l0,0.4l-0.2,1c-0.1,0.6-0.3,1.5-0.4,2.6l-0.1,0.6l0.5-0.3c0.5-0.3,1-0.4,1.5-0.5
	c1.8-0.3,4.4,0.1,4.9,3.6c0,0.2,0,0.5,0,0.7c0,0.5-0.2,1-0.4,1.5c-0.4,1.4-1.8,2.3-3.3,2l-0.7-0.1c-0.2,0.2-0.4,0.3-0.7,0.3h-2.4
	v1.4l0.5,0.1c0.3-0.5,0.4-0.5,0.6-0.4c0.1,0,0.2,0.1,0.3,0.1c0.2,0.1,0.4,0.3,0.6,0.5c0.5,0.7,0.7,1.6,0.3,2.3
	c-0.3,0.8-1.1,1.4-2,1.3h-0.3v0.8c0.1,1.4-3.5,1.4-3.5,0v-0.8H166c-0.9,0-1.7-0.6-2-1.4c-0.4-0.8-0.2-1.7,0.3-2.3
	c0.2-0.2,0.4-0.4,0.6-0.5l0.3-0.2l1-0.4l-0.1-0.5l-2.2-0.1C163.7,97.2,163.4,97.1,163.2,96.9z"/>
<path class="st6" d="M170.8,99.1c0.6,0.5,0.9,1.3,0.5,2c-0.3,0.7-1.1,1.1-1.9,0.8c0,0-0.1,0-0.1-0.1l-0.3-0.2l0.1,1.8
	c0,0.5-2.2,0.5-2.2,0l0.1-1.8l-0.3,0.2c-0.7,0.4-1.6,0.1-1.9-0.6c0,0,0-0.1-0.1-0.1c-0.3-0.7-0.1-1.5,0.5-2c0,0.3,0,0.5,0.1,0.8
	c0.2,0.6,0.6,1.1,1.6,0.6l0.1-0.2c0-1.2,0-2.4,0-3.5v-0.2h-3c-0.2,0-0.4-0.2-0.4-0.7s0.3-0.7,0.4-0.7h1.2l-0.1-0.3
	c-0.1-0.6-0.6-1.1-1.1-1.3c-0.2-0.1-0.3-0.1-0.5-0.1h-0.2c-1.4,0.1-1.8,1.7-1.1,3c-2.7,0.1-2.6-3.4-2.6-3.5c0.4-3,2.6-3.3,4.2-3
	c1.2,0.1,2.1,0.9,2.6,2l0.4-0.1c-0.2-2.1-0.5-4.2-1-6.2c0-2,1.8-4.6,2.4-5.4c0.6,0.8,2.4,3.5,2.4,5.4c-0.5,2.1-0.8,4.1-1,6.2
	l0.4,0.1c0.4-1.1,1.4-1.9,2.6-2c1.6-0.2,3.7,0.1,4.2,3c0,0.3,0,3.5-2.6,3.5c0.7-1.3,0.2-2.9-1.2-3h-0.2c-0.2,0-0.4,0.1-0.5,0.1
	c-0.6,0.2-1,0.7-1.1,1.3l-0.1,0.3h1.3c0.2,0,0.4,0.2,0.4,0.7s-0.3,0.7-0.4,0.7h-3v0.2c0,1.1,0,2.2,0,3.5l0.1,0.2
	c1,0.5,1.5,0,1.6-0.6C170.9,99.6,170.9,99.3,170.8,99.1z"/>
<polygon class="st1" points="168,81.8 167.2,95.1 168.8,95.1 "/>
<path class="st6" d="M182.1,127.4l-4.7-2.4c0.3-0.9,0.5-1.8,0.5-2.7l5.5-0.5l-5.6-0.5c0-0.9-0.2-1.7-0.5-2.6l5.2-1.9l-5.5,1
	c-0.4-0.9-1-1.7-1.6-2.5l4-3.9l-4.6,3.2c-0.6-0.6-1.3-1.1-2.1-1.5l1.9-5.1l-2.8,4.7c-1.1-0.4-2.2-0.7-3.3-0.8l-0.4-5.4l-0.4,5.4
	c-1.1,0-2.3,0.3-3.3,0.8l-2.8-4.8l2,5.1c-0.8,0.4-1.5,0.9-2.1,1.5l-4.6-3.2l4,3.9c-0.7,0.7-1.2,1.6-1.6,2.5l-5.5-1l5.2,1.9
	c-0.3,0.8-0.4,1.7-0.5,2.6l-5.6,0.5l5.5,0.5c0,0.9,0.2,1.8,0.5,2.7l-4.7,2.4l5-1.6c0.4,1,1,1.9,1.7,2.7l-3.5,4.1l4.1-3.5l0.1,0.1
	l0,0c0,0,0.2,0,0.7-1.1c-3.4-3.2-3.6-8.6-0.3-12.1s8.6-3.6,12.1-0.3s3.6,8.6,0.3,12.1c-0.1,0.1-0.2,0.2-0.2,0.3
	c0.2,0.3,0.4,0.7,0.6,1v0.2l0.1-0.1l4.1,3.4l-3.4-4.1c0.7-0.8,1.3-1.7,1.7-2.7L182.1,127.4z"/>
<path class="st6" d="M166.9,116.9c0,0.1,0,0.2,0,0.2C166.9,117.1,166.9,117,166.9,116.9c0,0,0.1,0,0.1,0S166.9,116.8,166.9,116.9z
	 M167.9,116.8v-0.4l0,0V116.8c-0.2,0-0.3,0.2-0.3,0.5c-0.2-0.2-0.3-0.2-0.4-0.1s0,0.1,0,0.1s0.2,0,0.4,0.1c0,0.3,0.2,0.5,0.3,0.5
	s0.3-0.2,0.3-0.5c0.2-0.1,0.3-0.2,0.4-0.1s0.1,0,0-0.1s-0.2-0.1-0.4,0.1C168.2,117,168.1,116.8,167.9,116.8L167.9,116.8z
	 M168.7,116.8c0,0,0.1,0,0.1,0.1c0,0.1,0,0.1,0,0.1s0-0.1,0-0.2S168.7,116.8,168.7,116.8L168.7,116.8z M163.4,119.8
	c-0.2-0.1-0.4-0.3-0.6-0.6c0.1-0.2,0.1-0.5,0.1-0.7c0.1-0.2,0.2-0.3,0.1-0.3s-0.1,0.2-0.2,0.2c-0.1-0.1-0.3-0.2-0.4,0
	c0-0.2-0.1-0.4-0.3-0.6c-0.1,0-0.2,0-0.2-0.2c0.2,0.1,0.3-0.2,0.6-0.1c0.3,0.1,0.1,0.6,0.2,0.6s0-0.7,0.5-0.6
	c0.5,0.1,0.4,0.5,0.3,0.8c-0.1,0.2-0.1,0.4,0,0.6c-0.3,0-0.1-0.4-0.4-0.4s-0.4,0.3-0.2,0.6c0.3,0.4,0.9,0.4,1.2,0.1c0,0,0,0,0,0
	c0.4-0.3,0.6-0.7,0.5-1.2c0.1,0,0.2,0,0.2-0.1c0.2,0.5,0.7,0.8,1.2,0.7c0.5,0,0.9-0.3,0.9-0.6s-0.1-0.6-0.2-0.5s-0.2,0.4-0.3,0.4
	c0.1-0.3,0.1-0.5,0-0.8c-0.1-0.3,0-0.7,0.3-0.7c0.3,0,0.4,0.3,0.5,0.3s-0.3-0.4-0.1-0.8s0.5-0.2,0.5-0.4c0,0.2,0.3,0.1,0.5,0.4
	s-0.2,0.7-0.1,0.8s0.1-0.3,0.5-0.3c0.3,0,0.4,0.3,0.3,0.7c-0.1,0.3-0.1,0.5,0,0.8c-0.2-0.1-0.2-0.4-0.3-0.4s-0.3,0.2-0.2,0.5
	s0.4,0.5,0.9,0.6c0.5,0,1-0.3,1.2-0.8c0.1,0.1,0.2,0.1,0.2,0.1c0,0.5,0.2,0.9,0.6,1.2c0.4,0.3,0.9,0.3,1.2-0.1c0,0,0,0,0,0
	c0.2-0.3,0.1-0.7-0.2-0.6s-0.1,0.4-0.4,0.4c0.1-0.2,0.1-0.4,0-0.6c0-0.2-0.2-0.7,0.3-0.8s0.4,0.6,0.5,0.6s-0.2-0.5,0.2-0.6
	c0.4-0.2,0.5,0.1,0.6,0.1c-0.1,0.2-0.2,0.1-0.2,0.2c-0.1,0.2-0.2,0.4-0.3,0.6c-0.1-0.1-0.3-0.1-0.4,0c0-0.1-0.1-0.3-0.2-0.2
	c0,0,0.1,0.2,0.1,0.3c-0.1,0.2-0.1,0.5,0.1,0.7c-0.1,0.2-0.3,0.4-0.6,0.6C169.5,118.4,166.2,118.4,163.4,119.8L163.4,119.8z"/>
<path class="st6" d="M165.6,119.5c0.5,0.2,0.5,0.3,0.1,0.6c-0.1,0-0.3,0.1-0.4,0.1c-0.5-0.1-0.5-0.3-0.1-0.7
	C165.3,119.5,165.5,119.5,165.6,119.5"/>
<path class="st6" d="M170.9,117.7c0-0.1,0-0.3-0.2-0.3c-0.1,0-0.3,0-0.3,0.2c0,0,0,0.1,0,0.1c0,0.2,0.1,0.3,0.2,0.3
	S170.9,117.9,170.9,117.7"/>
<path class="st6" d="M163.7,120.1l0.6,0.2l-0.3,0.5l-0.2,0.1c0,0,0,0,0-0.1s0.2-0.4,0.3-0.4c0-0.1-0.3-0.1-0.5-0.1c0,0,0,0,0-0.1
	C163.6,120.2,163.6,120.2,163.7,120.1"/>
<path class="st7" d="M163.6,120.6c0-0.1,0-0.2,0.1-0.2c0,0,0,0,0,0c0.1,0,0.2,0,0.3,0.1c-0.1,0.1-0.1,0.2-0.2,0.3
	C163.7,120.7,163.6,120.7,163.6,120.6C163.6,120.6,163.6,120.6,163.6,120.6"/>
<path class="st8" d="M165.2,119.9c0-0.1,0.1-0.2,0.2-0.2s0.3,0,0.3,0.1s-0.1,0.2-0.3,0.2C165.4,120.1,165.2,120,165.2,119.9"/>
<path class="st6" d="M167.8,119.1c-1.5,0-2.9,0.4-4.2,0.9c-0.2,0.1-0.2-0.1-0.1-0.1c2.8-1.4,6-1.4,8.7,0c0.1,0,0.1,0.2-0.1,0.1
	C170.7,119.5,169.3,119.2,167.8,119.1"/>
<path class="st6" d="M167.8,120.3c-1.3-0.1-2.7,0.2-3.9,0.8c-0.2,0.1-0.2-0.1-0.1-0.1c2.5-1.2,5.5-1.2,8,0c0.1,0.1,0.1,0.3-0.1,0.1
	C170.5,120.5,169.2,120.2,167.8,120.3"/>
<polyline class="st6" points="167.8,119.9 167.3,119.6 167.8,119.2 167.5,119.2 167,119.6 167.5,119.9 167.8,119.9 "/>
<path class="st6" d="M166.8,119.6c0-0.1,0-0.1,0.1-0.1c0.1,0,0.1,0.1,0.1,0.1s0,0.1-0.1,0.1C166.8,119.7,166.8,119.7,166.8,119.6"/>
<path class="st6" d="M167,119.5c0-0.1-0.1-0.1-0.1-0.1s-0.2,0.1-0.2,0.2c0,0.1,0.1,0.2,0.2,0.2c0,0,0,0,0,0c0.1,0,0.1-0.1,0.1-0.1
	l0.5,0.3c-0.5,0-1.1,0.1-1.6,0.2c0.4-0.3,0.4-0.5-0.1-0.7c0.6-0.2,1.1-0.2,1.7-0.3L167,119.5"/>
<path class="st6" d="M172,120.1l-0.6,0.2l0.3,0.5l0.2,0.1c0,0,0,0,0-0.1l-0.3-0.4c0.2,0,0.3-0.1,0.5-0.1v-0.1
	C172.1,120.2,172.1,120.2,172,120.1"/>
<path class="st7" d="M172.1,120.6c0-0.1,0-0.2-0.1-0.2c0,0,0,0,0,0c-0.1,0-0.2,0-0.3,0.1c0.1,0.1,0.1,0.2,0.2,0.3
	C172,120.7,172.1,120.7,172.1,120.6"/>
<path class="st6" d="M170.1,119.5c-0.5,0.2-0.5,0.3-0.1,0.6c0.1,0,0.3,0.1,0.4,0.1c0.5-0.1,0.5-0.3,0.2-0.6
	C170.4,119.5,170.2,119.5,170.1,119.5"/>
<polyline class="st6" points="167.8,119.9 168.4,119.6 167.8,119.2 168.2,119.2 168.7,119.6 168.1,119.9 167.8,119.9 "/>
<path class="st6" d="M168.9,119.6c0-0.1,0-0.1-0.1-0.1c-0.1,0-0.1,0.1-0.1,0.1c0,0.1,0,0.1,0.1,0.1c0,0,0,0,0,0
	C168.8,119.7,168.9,119.7,168.9,119.6"/>
<path class="st6" d="M168.7,119.5c0-0.1,0.1-0.1,0.1-0.1c0.1,0,0.2,0.1,0.2,0.2s-0.1,0.2-0.2,0.2s-0.1,0-0.2-0.1l-0.5,0.3
	c0.5,0,1.1,0.1,1.6,0.2c-0.4-0.3-0.4-0.5,0.1-0.7c-0.6-0.2-1.1-0.2-1.7-0.3L168.7,119.5"/>
<polyline class="st7" points="167.8,119.3 167.4,119.6 167.8,119.9 168.2,119.6 167.8,119.3 "/>
<path class="st9" d="M167.8,120.4c-1.3-0.1-2.7,0.2-3.9,0.8c1.4,0,2,0,3.9,0s2.5,0,3.9,0C170.5,120.6,169.2,120.3,167.8,120.4"/>
<path class="st6" d="M164.8,117.5c-0.1,0.2-0.1,0.4,0.1,0.5c-0.1,0.3-0.3,0.1-0.4-0.1S164.4,117.4,164.8,117.5"/>
<path class="st6" d="M165.1,117.4c-0.1-0.1-0.3-0.1-0.3,0c0,0,0,0,0,0.1c-0.1-0.1-0.2-0.3-0.1-0.4c0,0,0.1-0.1,0.1-0.1
	C165,117,165.3,117,165.1,117.4"/>
<path class="st6" d="M165.2,117.9c0.1-0.2,0.1-0.4-0.1-0.5c0.1-0.3,0.3-0.1,0.4,0.1C165.6,117.7,165.6,118.1,165.2,117.9"/>
<path class="st8" d="M162.5,118.9c-0.1-0.1,0-0.2,0-0.3s0.2,0,0.2,0.2c0,0.2,0,0.3,0,0.3S162.6,119.1,162.5,118.9"/>
<path class="st6" d="M162.8,119.2c0.1-0.2,0.1-0.4,0-0.6c-0.1-0.2-0.2-0.2-0.4-0.1l0,0v0.1c0,0,0.2,0,0.3,0.2s0,0.3,0,0.4
	s0,0.1,0,0.1"/>
<path class="st6" d="M164.3,120.2c0-0.1,0-0.1,0.1-0.1c0,0,0.1,0.1,0.1,0.1c0,0.1,0,0.1-0.1,0.1
	C164.4,120.3,164.4,120.3,164.3,120.2C164.3,120.2,164.3,120.2,164.3,120.2"/>
<path class="st6" d="M164.3,120.2c0-0.1,0.1-0.2,0.1-0.2c0,0,0,0,0,0c0.1,0,0.1,0.1,0.1,0.2s-0.1,0.2-0.1,0.2c0,0-0.1,0-0.1-0.1
	l-0.2,0.4c0.4-0.2,0.8-0.3,1.2-0.5c-0.4-0.1-0.5-0.3-0.2-0.6c-0.4,0.1-0.9,0.3-1.3,0.4L164.3,120.2"/>
<path class="st8" d="M170.5,117.7c0-0.1,0.1-0.2,0.1-0.2c0.1,0,0.2,0.1,0.1,0.2c0,0.1-0.1,0.1-0.1,0.1
	C170.6,117.9,170.5,117.8,170.5,117.7"/>
<path class="st6" d="M170.9,117.5c0.1,0.2,0.1,0.4-0.1,0.5c0.1,0.3,0.3,0.1,0.4-0.1C171.3,117.8,171.2,117.4,170.9,117.5"/>
<path class="st6" d="M170.5,117.4c0.1-0.1,0.3-0.1,0.3,0.1c0,0,0,0,0,0.1c0.1-0.1,0.2-0.3,0.1-0.4c0,0-0.1-0.1-0.1-0.1
	C170.7,117,170.4,117,170.5,117.4"/>
<path class="st6" d="M170.4,117.9c-0.1-0.2-0.1-0.4,0.1-0.5c-0.1-0.3-0.3-0.1-0.4,0.1S170.1,118.1,170.4,117.9"/>
<path class="st8" d="M173.2,118.9c0-0.1,0-0.3,0-0.3s-0.1,0.1-0.2,0.2s0,0.3,0,0.3S173.1,119,173.2,118.9"/>
<path class="st6" d="M172.9,119.2c-0.1-0.2-0.1-0.4-0.1-0.6c0-0.1,0.2-0.2,0.3-0.2c0,0,0.1,0,0.1,0l0,0v0.1c0,0-0.2,0-0.3,0.2
	s0,0.3,0,0.4S172.9,119.2,172.9,119.2"/>
<path class="st6" d="M172.6,117.9c0,0-0.2-0.2-0.2,0s-0.1,0.3,0,0.3s0-0.1,0.1-0.2C172.5,117.8,172.6,118,172.6,117.9"/>
<path class="st6" d="M163.3,118c0.1,0.1,0.1,0.2,0.1,0.2S163.4,118.1,163.3,118c0-0.2-0.2,0-0.2,0S163.3,117.9,163.3,118"/>
<path class="st6" d="M171.3,120.2c0-0.1,0-0.1-0.1-0.1c-0.1,0-0.1,0.1-0.1,0.1s0,0.1,0.1,0.1C171.3,120.3,171.3,120.2,171.3,120.2
	C171.3,120.2,171.3,120.2,171.3,120.2"/>
<path class="st6" d="M171.4,120.2c0-0.1-0.1-0.2-0.1-0.2c0,0,0,0,0,0c-0.1,0-0.2,0.1-0.2,0.2c0,0.1,0.1,0.2,0.2,0.2c0,0,0,0,0,0
	c0,0,0.1,0,0.1-0.1l0.2,0.4c-0.4-0.2-0.8-0.3-1.1-0.5c0.4-0.1,0.5-0.3,0.2-0.6c0.4,0.1,0.8,0.3,1.2,0.4L171.4,120.2"/>
<path class="st8" d="M170.5,119.9c0-0.1-0.1-0.2-0.2-0.2c-0.1,0-0.3,0-0.3,0.1c0,0.1,0.1,0.2,0.2,0.2
	C170.3,120.1,170.5,120,170.5,119.9"/>
<path class="st6" d="M167.5,117.4c0-0.3,0.1-0.5,0.3-0.5s0.3,0.2,0.3,0.5s-0.1,0.5-0.3,0.5S167.5,117.6,167.5,117.4"/>
<path class="st8" d="M167.6,117.4c0-0.2,0.1-0.3,0.2-0.3s0.2,0.1,0.2,0.3s-0.1,0.3-0.2,0.3S167.6,117.5,167.6,117.4"/>
<path class="st6" d="M165.3,117.7c0-0.1,0-0.3-0.2-0.3c-0.1,0-0.3,0-0.3,0.2c0,0,0,0.1,0,0.1c0,0.2,0.1,0.3,0.2,0.3
	C165.1,118.1,165.3,117.9,165.3,117.7"/>
<path class="st8" d="M164.9,117.7c0-0.1,0.1-0.1,0.2-0.1c0.1,0,0.1,0.1,0.1,0.2c0,0.1-0.1,0.1-0.1,0.1
	C164.9,117.9,164.9,117.8,164.9,117.7C164.9,117.7,164.9,117.7,164.9,117.7"/>
<path class="st10" d="M161.4,130.8L161.4,130.8L161.4,130.8c0.5-0.8,1-1.3,1.6-1.3c0.3,0,0.5,0,0.7,0.2c0-0.3,0-0.9,0-1.8
	c0-1.1,0.1-2.3,0.2-3.4c0.1-0.7,0.2-1.5,0.3-2.2v-0.1h6.5c0.1,0,0.2,0.1,0.3,0.1c0.3,0.1,0.5,0.4,0.5,0.8c0.1,1,0.3,2,0.6,3
	c0.3,1.1,0.6,2,0.3,2.4c-0.1,0.1-0.2,0.1-0.3,0.2c0.5,0.7,0.8,1.4,1,2.2c0.4,1.2,0.4,2.5,0.2,3.7c0.6-1,0.9-2.1,1-3.2
	c0-0.8,0-1.5,0.1-2.3c-1.3-2.4-2.3-4.9-3-7.6h-7.3c-2,7.8-2.7,7.6-2.8,7.7s-0.2,0.3-0.5,0.7c1.1,5.7-0.9,8.7-2.2,10h0.8
	c1.1,0,2.2,0.1,3.3,0.5C164.1,137.6,161.5,131,161.4,130.8"/>
<path class="st11" d="M164.5,122.4c-0.2,1-0.3,2-0.3,3.1c-0.1,1.4,0.3,2.7,1,3.9c0.7,0.9,1.7,1.5,2.9,1.6c0.6,0,1.2-0.2,1.7-0.7
	c0.9-0.8,1.8-2.6,1.6-6.9c-0.1-0.8-0.6-0.9-0.6-0.9h-0.8h-0.6L164.5,122.4"/>
<path class="st12" d="M168.6,127.5c-0.2-0.1-0.3,0.1-0.2,0.2s0.2,0.2,0.2,0.3s-0.2,0.2-0.3,0.2c-0.3,0.1-0.6,0.2-0.7,0.1
	c-0.1-0.1-0.2-0.3-0.2-0.4v-2.6c-0.1-0.2-0.1-0.3-0.2-0.3l0,0h-0.1c-0.1,0-1.2-0.4-1.7,0.3c0,0,0,0.1,0,0.2c0.1,0.3,0.4,0.5,0.7,0.5
	c0.4,0.1,0.8,0,1.1-0.2v2.3c0,0.2,0.1,0.5,0.3,0.6c0.3,0.2,0.7,0.1,1-0.1c0,0,0.4-0.1,0.4-0.3C169,127.8,168.8,127.6,168.6,127.5z
	 M165.6,125.2c0.2-0.2,0.6-0.3,0.9-0.2c-0.2,0-0.3,0.1-0.4,0.3c0,0,0,0.2,0.1,0.2H166C165.9,125.5,165.7,125.4,165.6,125.2
	L165.6,125.2z"/>
<path class="st12" d="M170.5,124.9L170.5,124.9c-0.1,0-1.3-0.4-1.8,0.3l0,0.1l0.2,0.2c0.1,0.2,0.2,0.2,0.6,0.4c0.4,0.1,0.7,0,1-0.2
	c0.1-0.1,0.2-0.3,0.2-0.5l0,0L170.5,124.9z M169,125.4C169,125.3,169,125.3,169,125.4c0.2-0.3,0.6-0.4,1-0.3c-0.2,0-0.5,0.1-0.6,0.3
	c0,0.1,0.1,0.2,0.2,0.3h-0.2C169.1,125.5,169.1,125.5,169,125.4L169,125.4z"/>
<path class="st12" d="M164.9,123.9c-0.1,0-0.1,0.1-0.1,0.1c0,0.1,0.1,0.1,0.1,0.1c0.7-0.1,2.1-0.2,2.3,0.2h0.1
	C166.9,123.7,165.1,123.9,164.9,123.9z"/>
<path class="st12" d="M168.4,124.4L168.4,124.4c0.8-0.4,1.7-0.5,2.4-0.1c0.1,0.1,0.2-0.1,0.1-0.2C170.1,123.6,169,123.7,168.4,124.4
	"/>
<path class="st13" d="M167.2,128.9c-0.2,0-0.3,0.2-0.4,0.3v0.1l0.1,0.1c0.3,0.3,0.8,0.5,1.2,0.4c0.3-0.1,0.6-0.3,0.8-0.6l0.1-0.1
	l-0.1-0.1c-0.2-0.2-0.6-0.1-0.9,0C167.8,128.9,167.5,128.8,167.2,128.9"/>
<polyline class="st14" points="166.6,138 169.9,138 169.6,138.6 166.6,138 "/>
<path class="st14" d="M181.5,139.6c-0.4,0-0.7-0.1-1.1-0.2l-2.3-1.4h0.5c0.4,0,0.7-0.1,0.8-0.2c0.1-0.2,0.1-0.4,0-0.6
	c-0.8-2-3.4-3.4-3.4-3.4l-0.4-0.2l0.4-0.1c0.4,0,0.7-0.2,0.9-0.5c0.1-0.3,0-0.7-0.2-1c-0.8-0.9-1.4-1.8-2-2.8
	c-0.3,3.7,0.3,7.3,1.7,10.7c1.7-0.1,3.3-0.1,5,0.2c0.1,0,0.3-0.1,0.3-0.2S181.7,139.8,181.5,139.6"/>
<path class="st15" d="M171.1,139.2c0.1,0,0.2-0.1,0.3-1.1c0-0.2,0-0.4-0.2-0.5c-0.2-0.1-0.8,0.2-1.1,0.5
	C170.5,138.7,170.9,139.3,171.1,139.2"/>
<path class="st14" d="M164,130.8c0.2-0.5,0.5-1,0.9-1.4c-0.5-0.9-0.9-1.9-0.9-3c0,0.5,0,1,0,1.5c0,1,0,1.7,0.1,1.9
	C164.2,130,164.2,130.4,164,130.8"/>
<path class="st15" d="M172,126.1c-0.1-0.5-0.3-1.1-0.4-1.7c0,1.1-0.1,2.3-0.3,3.4c0.3,0.2,0.6,0.4,0.8,0.7c0.1,0,0.2,0,0.2-0.1
	C172.5,128,172.3,127.1,172,126.1"/>
<path class="st14" d="M160.8,130c-0.5,0.6-0.8,1.3-0.9,2.1c0,0.1,0.1,0.3,0.1,0.4c0,2-4.1,4.4-4.4,4.5c-0.1,0.2-0.2,0.4-0.2,0.7
	c0,0.2,0.1,0.4,0.2,0.5c0,0,0.2,0.2,0.2,0.3c0,0,0,0.1,0,0.1c0,0.1-0.2,0.2-1.1-0.1c-0.2,0.1-0.6,0.3-0.6,0.5v0.1
	c0,0.2,0.1,0.4,0.3,0.5c1.4,0.2,2.8,0.2,4.3,0.2C159.8,138.6,161.9,135.8,160.8,130"/>
<path class="st0" d="M171.4,134.4c0.4-0.8,0.7-1.7,0.6-2.6c0-1.2-0.3-2.4-0.7-3.6c-0.4,4-1.2,6.6-2.6,8
	C169.8,136,170.8,135.4,171.4,134.4"/>
<path class="st0" d="M168.5,135.5C168.5,135.4,168.5,135.4,168.5,135.5c0-0.3-0.2-0.7-0.9-1.4l-3-2.4c0.8,2.4,2.8,3.8,3.6,3.8
	C168.3,135.5,168.4,135.5,168.5,135.5"/>
<path class="st15" d="M174.4,132.2c-0.2,1-0.6,2-1.2,2.8c0,0,0,0.1-0.1,0.1c-0.9,0.9-1.9,1.6-3.1,2c0.8-0.1,1.6-0.2,2,0.4
	c2.2,0.3,2.5,0.6,2.5,0.9c0,0.2-0.6,0.7-1.6,1.1c-1.3,0.6-2.9,1.3-3.3,2.4c1.5-1,3.3-1.5,5.1-1.6c0.4-0.2,0.9-0.3,1.4-0.4
	C175.2,137.5,174.6,134.9,174.4,132.2"/>
<path class="st6" d="M167,139l0.1,3.3c0.5-0.4,0.7-1.1,0.7-1.7C167.7,140,167.4,139.4,167,139"/>
<path class="st15" d="M165.6,137.5c-0.1,0.1-0.2,0.3-0.2,0.5c0,1,0.3,1.1,0.3,1.1c0.2,0,0.5-0.4,0.8-0.9v-0.3
	C166.2,137.6,165.8,137.4,165.6,137.5"/>
<path class="st6" d="M172.9,139.4c0.8-0.3,1.5-0.7,1.5-0.9s-0.8-0.5-2.5-0.7c-0.5-0.6-1.2-0.5-2-0.4l-0.5,0.1v-0.1
	c1.4-0.4,2.7-1.2,3.7-2.3c0.4-1.3,0.4-2.8,0-4.1c-0.2-1.1-0.8-2-1.7-2.8c0.6,1.6,1.3,4.5,0.1,6.5c-0.7,1.1-1.8,1.8-3,1.9h-0.3
	l0.2-0.2c1.4-1.2,2.3-3.8,2.7-7.8c-0.4,2.2-1,3.4-1.8,3.8c-1.1,0.4-2.5-0.5-3.9-1.6l0.1-0.1c1.9,1.4,3,1.9,3.8,1.5
	c0.8-0.3,1.3-1.4,1.7-3.4c-0.2,0.7-0.6,1.2-1.1,1.7c-0.5,0.5-1.2,0.8-1.9,0.7c-1.2,0-2.4-0.7-3.1-1.7l0,0c-2.1,3-1.2,4.2,0.2,5.9
	c0.6,0.7,1.2,1.5,1.6,2.3l0.2,0.1h3.3c0.3-0.2,0.8-0.6,1.2-0.4s0.3,0.3,0.3,0.7c0,0.8-0.2,1.3-0.5,1.3c-0.3,0.1-1-0.7-1.2-1.1
	l-0.2,0.5l-0.5-0.1l0.1,3.4l0.2-0.1C169.8,140.8,171.6,140,172.9,139.4z M167.4,132.6c0,0,1.6,1.6,2.5,1l0.1,0.1c-1,0.7-2.6-1-2.7-1
	L167.4,132.6z M164.4,131.5l-0.1-0.2l3.4,2.8c0.5,0.5,1.1,1.2,1,1.5c0,0.1-0.1,0.2-0.4,0.2C167.4,135.7,165.2,134.1,164.4,131.5"/>
<path class="st15" d="M166.6,142.3l-0.1-3.5c-0.2,0.3-0.5,0.6-0.8,0.6s-0.5-0.5-0.5-1.4c0-0.4,0.1-0.7,0.3-0.8c0.3-0.1,0.7,0,1,0.2
	c-0.4-0.7-0.9-1.4-1.4-2c-1-1.3-1.9-2.3-1.3-4c0,0.1-0.1,0.2-0.2,0.3l-0.2,0.3l0,0l-0.1,0.2v0.1l-0.1,0.1c-0.3,0.4-0.5,0.7-0.6,0.9
	c0.5,1.6,0.8,3.2,0.9,4.9c0,0.7-0.1,1.4-0.4,2C164.4,140.7,165.6,141.4,166.6,142.3"/>
<path class="st14" d="M163.9,130.1c0-0.1,0-0.1,0-0.2l0,0c-0.2-0.2-0.5-0.3-0.7-0.2c-0.5,0.1-1,0.5-1.5,1.2c0.1,0.2,0.5,1.2,0.9,2.5
	l-0.1-0.2C162.8,132.7,164.1,131,163.9,130.1"/>
<path class="st6" d="M168.8,142.4l-0.1-3.7l-1.9-0.3c0,0.1-0.1,0.1-0.1,0.2c0.7,0.5,1.2,1.2,1.3,2c0,0.7-0.3,1.4-0.8,1.9l-0.1,0.1
	l-0.1,0.1c0.3,0.3,0.6,0.5,0.8,0.8C168.2,143,168.8,142.4,168.8,142.4"/>
<rect x="68" y="21" class="st16" width="200" height="200"/>
</svg>
