<?xml version="1.0" encoding="UTF-8"?>
<!DOCTYPE svg PUBLIC "-//W3C//DTD SVG 1.1//EN" "http://www.w3.org/Graphics/SVG/1.1/DTD/svg11.dtd">
<!-- Creator: CorelDRAW X5 -->
<svg xmlns="http://www.w3.org/2000/svg" xml:space="preserve" width="67.1406mm" height="83.82mm" style="shape-rendering:geometricPrecision; text-rendering:geometricPrecision; image-rendering:optimizeQuality; fill-rule:evenodd; clip-rule:evenodd"
viewBox="0 0 6714 8382"
 xmlns:xlink="http://www.w3.org/1999/xlink"
 xmlns:svg="http://www.w3.org/2000/svg">
 <defs>
  <style type="text/css">
   <![CDATA[
    .fil0 {fill:#FFE667}
    .fil4 {fill:black;fill-rule:nonzero}
    .fil1 {fill:#005087;fill-rule:nonzero}
    .fil5 {fill:#E60005;fill-rule:nonzero}
    .fil3 {fill:#FFE667;fill-rule:nonzero}
    .fil2 {fill:white;fill-rule:nonzero}
   ]]>
  </style>
 </defs>
 <g id="Layer_x0020_1">
  <metadata id="CorelCorpID_0Corel-Layer"/>
 </g>
 <g id="Layer_x0020_1_0">
  <metadata id="CorelCorpID_1Corel-Layer"/>
  <path class="fil0" d="M3352 10c113,0 207,94 207,209 0,34 -8,66 -23,95l13 0c115,0 209,94 209,209 0,116 -94,209 -209,209 -43,0 -81,-14 -115,-36 1,238 192,430 428,430 202,0 371,-140 416,-328 -32,10 -75,14 -111,5 -113,-26 -183,-138 -157,-251 26,-113 138,-183 251,-157l7 2c-8,-31 -8,-64 -1,-97 26,-113 138,-183 251,-157 113,26 183,138 157,251 -8,33 -23,63 -43,87l12 2c113,26 183,138 157,251 -26,113 -138,183 -251,157 -36,-8 -68,-26 -94,-49l-2 7c-53,230 90,463 321,514 201,44 329,-13 396,-81 -34,-6 -69,-21 -99,-46 -89,-74 -100,-206 -26,-295 74,-89 206,-100 295,-26l54 50c73,-128 84,-150 121,-206 63,-97 160,-69 263,-4l160 111 -301 313c9,19 11,40 11,62 0,102 -82,184 -184,184 -30,0 -57,-1 -82,-14 -174,146 -415,211 -655,156 -199,-46 -361,-166 -464,-325l7 -9c-160,93 -355,127 -550,82 -148,-34 -275,-109 -370,-210 -95,101 -223,176 -370,210 -195,45 -387,21 -547,-72l-3 5c-103,159 -259,273 -458,319 -240,55 -481,-10 -655,-156 -25,12 -52,14 -82,14 -102,0 -184,-83 -184,-184 0,-22 2,-42 11,-62l-301 -313 160 -111c103,-66 200,-93 263,4 37,57 48,78 121,206l54 -50c89,-74 220,-63 295,26 74,88 63,220 -26,295 -30,25 -65,40 -99,46 67,67 196,125 397,81 231,-51 374,-283 321,-514l-2 -7c-26,23 -57,40 -94,49 -113,26 -225,-44 -251,-157 -26,-113 44,-225 157,-251l12 -2c-21,-25 -36,-54 -43,-87 -26,-113 44,-225 157,-251 113,-26 225,44 251,157 8,33 7,66 -1,97l7 -2c113,-26 225,44 251,157 26,113 -44,225 -157,251 -36,8 -80,4 -111,-5 45,188 215,328 417,328 236,0 427,-192 428,-430 -35,22 -72,36 -115,36 -116,0 -209,-94 -209,-209 0,-115 94,-209 209,-209l13 0c-15,-28 -23,-61 -23,-95 0,-116 94,-209 207,-209z"/>
  <path class="fil1" d="M3352 0c59,0 114,25 153,65 39,40 64,94 64,155 0,17 -2,35 -6,51 -4,17 -10,33 -18,48l-17 -9c7,-14 13,-29 16,-44 4,-15 5,-30 5,-47 0,-55 -22,-105 -58,-141 -36,-36 -85,-59 -139,-59l0 -20z"/>
  <polygon class="fil1" points="3536,304 3549,304 3549,323 3536,324 "/>
  <path class="fil1" d="M3549 304c60,0 115,25 155,64 40,40 64,94 64,155 0,60 -25,115 -64,155 -40,40 -94,64 -155,64 -22,0 -44,-4 -64,-10 -14,-5 -28,-11 -41,-18 5,110 51,208 123,280 76,76 180,123 295,123 98,0 187,-33 259,-89 68,-54 120,-129 144,-215 -13,3 -28,5 -43,6 -19,1 -39,0 -57,-4 -59,-14 -107,-50 -136,-97 -30,-47 -41,-106 -28,-165l0 0c14,-59 50,-107 97,-136 47,-30 106,-41 165,-28l0 0 -4 19 0 0c-54,-12 -107,-2 -150,25 -43,27 -76,70 -88,124l0 0c-12,54 -2,107 25,150 27,43 71,76 124,89 16,4 34,5 52,4 20,-1 39,-4 55,-9l16 -5 -4 17c-23,97 -79,182 -155,242 -75,59 -169,94 -271,94 -121,0 -230,-49 -309,-128 -79,-79 -128,-190 -129,-311l0 -18 15 10c17,11 34,19 52,25 18,6 37,9 58,9 55,0 105,-22 141,-58 36,-36 58,-86 58,-141 0,-55 -22,-105 -58,-141 -36,-36 -86,-58 -141,-58l0 -20z"/>
  <polygon class="fil1" points="4264,387 4271,388 4266,407 4259,406 "/>
  <path class="fil1" d="M4259 400c-4,-16 -6,-33 -6,-51 0,-17 2,-34 6,-51 14,-59 50,-107 97,-136 47,-30 106,-41 165,-28l0 0c59,14 107,50 136,97 30,47 41,106 28,165l0 0c-4,17 -10,33 -17,48 -8,16 -17,30 -28,43l-15 -13c10,-12 19,-25 26,-39 7,-14 12,-28 16,-44l0 0c12,-54 2,-107 -25,-150 -27,-43 -70,-76 -124,-88l0 0c-54,-12 -107,-2 -151,25 -43,27 -76,71 -89,124 -4,16 -5,31 -5,46 0,16 2,31 6,46l-19 5z"/>
  <polygon class="fil1" points="4634,473 4646,475 4642,494 4630,492 "/>
  <path class="fil1" d="M4646 475l0 0c59,14 107,50 136,97 30,47 41,106 28,165l0 0c-14,59 -50,107 -97,136 -47,30 -106,41 -165,28l0 0c-19,-4 -36,-11 -52,-19 -17,-9 -32,-19 -46,-32l13 -14c12,11 26,21 42,29 15,8 31,14 47,17l0 0c54,12 107,2 150,-25 43,-27 76,-70 88,-124l0 0c12,-54 2,-107 -25,-150 -27,-43 -71,-76 -124,-89l4 -19z"/>
  <polygon class="fil1" points="4466,846 4464,853 4445,847 4447,841 "/>
  <path class="fil1" d="M4464 852l-1 5c-24,111 -2,222 54,312 56,90 145,158 256,184l5 1c88,19 162,19 222,6 66,-13 116,-41 152,-72 -12,-3 -25,-8 -37,-13 -17,-8 -33,-18 -48,-30l0 0c-46,-39 -72,-93 -77,-148 -5,-56 12,-113 50,-160l0 0c39,-46 93,-72 148,-77 56,-5 113,12 160,50l0 0 -10 11 -3 3c-42,-35 -95,-50 -145,-46 -51,4 -100,28 -135,70l0 0c-35,42 -50,95 -46,145 4,51 28,100 70,135l0 0c14,11 28,20 44,28 17,8 34,13 50,16l18 3 -13 13c-39,39 -96,74 -175,90 -63,13 -139,13 -230,-6l-5 -1c-116,-27 -210,-99 -268,-193 -58,-94 -82,-210 -56,-327l1 -5 19 4z"/>
  <polygon class="fil1" points="5349,910 5403,959 5389,974 5336,924 "/>
  <path class="fil1" d="M5388 962l40 -71c39,-69 52,-91 81,-136 34,-52 77,-70 126,-67 47,3 98,27 151,61l-11 16c-50,-32 -99,-55 -142,-57 -41,-3 -79,13 -108,58 -29,44 -42,66 -81,135l-40 71 -17 -10z"/>
  <polygon class="fil1" points="5786,749 5956,866 5647,1187 5633,1174 5926,869 5775,765 "/>
  <path class="fil1" d="M5649 1176c5,10 8,21 9,33 2,11 2,22 2,33 0,54 -22,102 -57,137 -35,35 -84,57 -137,57 -15,0 -30,0 -44,-2 -12,-2 -25,-5 -36,-10 -89,73 -194,126 -308,153 -112,27 -231,29 -350,1 -99,-23 -189,-64 -267,-119 -81,-57 -150,-129 -203,-211l16 -11c52,80 119,150 198,205 76,53 164,93 260,116 116,27 233,25 341,-1 113,-27 217,-80 305,-153l5 -4 6 3c11,6 23,9 36,11 13,2 27,2 41,2 48,0 92,-20 123,-51 32,-32 51,-75 51,-123 0,-11 0,-21 -2,-30 -1,-9 -4,-19 -8,-28l18 -8z"/>
  <polygon class="fil1" points="4258,1238 4265,1229 4280,1241 4273,1250 "/>
  <path class="fil1" d="M4277 1243c-83,48 -174,80 -271,95 -93,14 -190,11 -286,-11 -74,-17 -142,-44 -205,-80 -61,-35 -116,-77 -163,-126 -47,49 -102,92 -164,126 -62,35 -131,63 -205,79 -99,23 -197,28 -291,16 -93,-12 -182,-42 -263,-89l10 -17c79,46 165,74 256,86 92,12 188,7 284,-15 72,-17 139,-43 199,-77 62,-35 118,-80 166,-130l7 -8 7 8c48,51 104,95 166,130 61,34 128,61 199,77 94,22 189,25 279,11 94,-14 183,-46 264,-92l10 17z"/>
  <polygon class="fil1" points="2443,1249 2441,1255 2423,1246 2426,1241 "/>
  <path class="fil1" d="M2440 1255c-53,82 -120,152 -199,207 -77,53 -166,93 -265,116 -119,28 -239,26 -350,-1 -114,-27 -219,-80 -308,-153 -12,5 -24,8 -36,10 -14,2 -29,2 -44,2 -54,0 -102,-22 -137,-57 -35,-35 -57,-84 -57,-137 0,-11 1,-22 2,-33 2,-11 5,-22 9,-33l18 8c-4,9 -6,18 -8,27 -1,10 -2,20 -2,30 0,48 20,92 51,123 32,32 75,51 123,51 15,0 28,0 41,-2 13,-2 25,-5 36,-11l6 -3 5 4c87,73 192,126 305,153 109,26 225,28 342,1 97,-22 183,-61 258,-113 77,-54 142,-122 194,-201l16 11z"/>
  <polygon class="fil1" points="1057,1187 748,866 918,749 929,765 778,869 1071,1174 "/>
  <path class="fil1" d="M918 749c53,-34 104,-57 151,-61 49,-3 92,15 126,67 29,44 42,67 81,135l41 72 -17 10 -41 -72c-38,-68 -51,-90 -80,-134 -29,-45 -67,-61 -108,-58 -43,3 -92,26 -142,57l-11 -16z"/>
  <polygon class="fil1" points="1301,959 1355,910 1368,924 1314,974 "/>
  <path class="fil1" d="M1355 909c46,-39 104,-55 160,-50 56,5 110,31 149,77l0 0c39,46 55,104 50,160 -5,56 -31,110 -77,148l0 0c-15,12 -31,23 -48,30 -12,6 -24,10 -37,13 36,31 86,59 152,72 60,12 134,13 222,-6l5 -1c111,-26 200,-94 256,-184 56,-90 78,-201 54,-312l-1 -5 19 -4 1 5c25,116 2,233 -56,327 -59,94 -152,166 -268,193l-5 1c-91,20 -167,19 -230,6 -79,-16 -137,-51 -175,-90l-13 -13 19 -3c17,-3 34,-8 50,-16 15,-7 30,-16 44,-28l0 0c42,-35 66,-85 70,-135 4,-51 -10,-103 -46,-145l0 0c-35,-42 -85,-66 -135,-70 -51,-4 -103,11 -146,46l-13 -15z"/>
  <polygon class="fil1" points="2240,853 2238,846 2257,841 2259,847 "/>
  <path class="fil1" d="M2254 851c-14,12 -29,23 -46,32 -16,8 -34,15 -52,19l0 0c-59,14 -118,2 -165,-28 -47,-30 -84,-77 -97,-136l0 0c-14,-59 -2,-118 28,-165 30,-48 78,-84 136,-97l4 19c-54,12 -97,45 -124,89 -27,43 -38,97 -25,150l0 0c12,54 45,97 89,124 43,27 97,38 150,25l0 0c17,-4 33,-10 48,-18 15,-8 29,-18 41,-29l13 14z"/>
  <polygon class="fil1" points="2058,475 2070,473 2074,492 2062,494 "/>
  <path class="fil1" d="M2065 488c-11,-13 -20,-27 -28,-43 -8,-15 -13,-31 -17,-49l0 0c-14,-59 -2,-118 28,-165 30,-47 77,-84 136,-97l0 0c59,-14 118,-2 165,28 47,30 84,77 97,136l0 0c4,17 6,34 6,51 0,17 -2,34 -6,51l-19 -5c4,-15 6,-31 6,-46 0,-15 -2,-31 -5,-46l0 0c-12,-54 -45,-97 -89,-124 -43,-27 -97,-38 -150,-25l0 0c-54,12 -97,45 -124,89 -27,43 -38,97 -25,150l0 0c4,16 9,30 16,44 7,14 16,27 26,39l-15 13z"/>
  <polygon class="fil1" points="2433,388 2440,387 2445,406 2438,407 "/>
  <path class="fil1" d="M2441 387c59,-14 118,-2 165,28 48,30 84,78 97,137 14,59 2,118 -28,165 -30,48 -78,84 -136,97 -18,4 -38,5 -57,4 -15,-1 -29,-3 -43,-6 24,86 76,161 144,215 71,56 161,89 259,89 115,0 220,-47 295,-123 72,-72 118,-171 123,-280 -13,7 -27,13 -41,18 -20,6 -41,10 -64,10 -61,0 -115,-25 -155,-64 -40,-40 -64,-94 -64,-155 0,-60 25,-115 64,-155 40,-40 94,-64 155,-64l0 20c-55,0 -105,22 -141,58 -36,36 -58,86 -58,141 0,55 22,105 58,141 36,36 86,58 141,58 20,0 39,-3 58,-9 18,-6 36,-14 52,-25l15 -10 0 18c-1,122 -50,232 -129,311 -79,79 -188,128 -309,128 -102,0 -196,-35 -271,-94 -76,-60 -132,-144 -155,-242l-4 -17 16 5c16,5 35,8 55,9 18,1 36,0 52,-4 54,-12 97,-45 124,-89 27,-43 38,-97 25,-150 -12,-54 -45,-97 -89,-124 -43,-27 -97,-38 -151,-25l-4 -19z"/>
  <polygon class="fil1" points="3155,304 3168,304 3168,324 3155,323 "/>
  <path class="fil1" d="M3159 318c-8,-15 -14,-31 -18,-48 -4,-16 -6,-34 -6,-51 0,-60 24,-115 64,-155 39,-40 94,-65 153,-65l0 20c-54,0 -103,22 -139,59 -36,36 -58,86 -58,141 0,16 2,32 5,47 4,15 9,30 16,44l-17 9z"/>
  <path class="fil2" d="M3357 1383c1849,0 3348,1499 3348,3348 0,1849 -1499,3348 -3348,3348 -1849,0 -3348,-1499 -3348,-3348 0,-1849 1499,-3348 3348,-3348z"/>
  <path class="fil1" d="M3357 1373c927,0 1767,376 2374,983 608,608 983,1447 983,2374 0,927 -376,1767 -983,2374 -608,608 -1447,983 -2374,983 -927,0 -1767,-376 -2374,-983 -608,-608 -983,-1447 -983,-2374 0,-927 376,-1767 983,-2374 608,-608 1447,-983 2374,-983zm2360 997c-604,-604 -1438,-978 -2360,-978 -922,0 -1756,374 -2360,978 -604,604 -978,1438 -978,2360 0,922 374,1756 978,2360 604,604 1438,978 2360,978 922,0 1756,-374 2360,-978 604,-604 978,-1439 978,-2360 0,-922 -374,-1756 -978,-2360z"/>
  <path class="fil1" d="M133 4748c0,-1776 1439,-3215 3215,-3215 1776,0 3215,1439 3215,3215 0,1776 -1439,3215 -3215,3215 -1776,0 -3215,-1439 -3215,-3215z"/>
  <path class="fil2" d="M3871 1753l718 938 770 3 0 544 -350 0 1118 1496 -2415 3269 -719 2 -2417 -3277 1136 -1495 -388 0 0 -545 795 -2 710 -936c0,0 278,-36 514,-36 196,0 529,40 529,40z"/>
  <path class="fil3" d="M2393 2407c-325,-6 -610,-184 -760,-448 -13,-24 -18,-53 -18,-83 0,-66 37,-123 94,-150 499,-228 1054,-356 1638,-356 573,0 1115,122 1608,342l-3 0c56,27 98,85 98,153 0,31 -13,71 -28,96 -157,267 -445,446 -776,446 -41,0 -111,1 -111,1l-1742 -1z"/>
  <path class="fil4" d="M3328 1781c554,0 1077,137 1535,380 -161,153 -378,247 -617,247 -41,0 -111,1 -111,1l-1742 -1c-233,-4 -445,-97 -601,-246 459,-243 981,-381 1536,-381z"/>
  <path class="fil4" d="M3328 1762c274,0 541,34 796,97 263,65 514,162 748,285l-18 34c-231,-122 -479,-218 -739,-282 -252,-62 -516,-95 -787,-95 -272,0 -536,33 -788,96 -260,64 -508,160 -740,283l-18 -34c234,-124 485,-221 748,-286 255,-63 522,-97 797,-97z"/>
  <path class="fil3" d="M1778 2148c187,-49 456,-355 1587,-355 1014,0 1413,336 1413,336l-170 43 -153 12 37 -110 -49 -67 -67 80 -43 6 -37 -115 -49 103 -117 56 183 257c170,-9 352,-88 497,-186 84,-68 156,-151 211,-245 15,-25 28,-65 28,-96 0,-68 -42,-126 -98,-153l3 0c-493,-220 -1035,-342 -1608,-342 -584,0 -1139,127 -1638,356 -57,28 -94,85 -94,150 0,30 5,59 18,83 39,69 88,133 145,189z"/>
  <path class="fil4" d="M1777 2143c41,-11 86,-34 144,-64 204,-105 563,-291 1444,-291 1016,0 1415,336 1417,337l-7 8c-1,-1 -397,-335 -1410,-335 -878,0 -1236,185 -1439,290 -59,30 -104,54 -147,65l-3 -10z"/>
  <path class="fil4" d="M4780 2134c-175,44 -156,42 -332,56l39 -115 -43 -60 -64 76 -49 7 -34 -106 -44 92 -113 54 180 251 -9 6 -187 -262 121 -58 54 -113 39 123 37 -5 70 -83 55 75 -35 105 145 -12 169 -43 3 10z"/>
  <path class="fil4" d="M4313 2387c80,-4 162,-24 242,-54 89,-33 176,-80 252,-131l6 9c-77,52 -164,98 -254,132 -81,30 -164,50 -245,55l-1 -11z"/>
  <path class="fil4" d="M2393 2417c-162,-3 -314,-48 -445,-125 -135,-79 -247,-193 -324,-328l0 0c-7,-13 -12,-27 -15,-42 -3,-15 -4,-30 -4,-45 0,-35 10,-67 27,-94 17,-28 42,-50 73,-65l0 0c254,-116 521,-206 800,-267 271,-59 553,-90 842,-90 283,0 558,30 824,86 274,58 537,145 788,257l-8 18c-250,-111 -512,-198 -784,-256 -264,-56 -538,-86 -820,-86 -287,0 -568,31 -838,89 -277,60 -544,150 -796,265 -27,13 -49,33 -65,58 -15,24 -24,53 -24,84 0,14 1,28 4,42 3,13 7,25 13,37 75,132 185,243 317,321 128,75 277,120 435,122l0 20z"/>
  <polygon class="fil4" points="4956,1722 4953,1722 4951,1703 4955,1702 "/>
  <path class="fil4" d="M4956 1704c30,14 57,38 75,67 18,27 28,60 28,95 0,16 -3,33 -8,50 -6,19 -13,37 -22,51 -81,137 -196,251 -333,330 -133,76 -287,120 -451,120 -41,0 -110,1 -110,1l-1 -20c0,0 71,-1 111,-1 160,0 311,-43 441,-117 135,-77 247,-189 326,-323l0 0c7,-13 15,-29 20,-46 5,-15 7,-31 7,-45 0,-31 -9,-60 -25,-84 -17,-26 -40,-47 -67,-60l8 -18z"/>
  <polygon class="fil4" points="4135,2418 2393,2417 2393,2397 4135,2399 "/>
  <path class="fil3" d="M3859 1849l2181 2883 -2684 3634 -2684 -3640 2179 -2880c0,0 269,-35 497,-35 190,0 511,39 511,39z"/>
  <polygon class="fil5" points="1838,3431 1838,6044 1234,5292 1234,4197 "/>
  <path class="fil5" d="M1857 3431l0 2668c-214,-267 -428,-533 -642,-800l0 -1108 608 -772 15 12 19 0zm-38 2560l0 -2505 -566 718 0 1081 566 705z"/>
  <polygon class="fil5" points="2419,2671 2419,6919 3023,7691 3023,1871 "/>
  <path class="fil5" d="M2438 2678l0 4235 566 724 0 -5708 -566 750zm-38 4241l0 -4248 19 0 -15 -11 638 -845c0,1977 0,3954 0,5931 -214,-273 -428,-547 -642,-821l0 -6z"/>
  <polygon class="fil5" points="4871,3439 4871,6024 5464,5284 5464,4202 "/>
  <path class="fil5" d="M4890 3495l0 2476 556 -693 0 -1069 -556 -714zm-38 2530l0 -2585 19 0 15 -12 597 768 0 1095c-210,262 -421,525 -631,787l0 -54z"/>
  <polygon class="fil5" points="4293,2675 4293,6906 3693,7698 3682,1854 "/>
  <path class="fil5" d="M4312 2675l0 4237c-212,281 -425,561 -637,842 -4,-1986 -7,-3971 -11,-5957l645 867 -15 11 19 0zm-38 4224l0 -4218 -572 -770 11 5730 562 -742z"/>
  <path class="fil1" d="M3867 1843l2185 2889c-898,1217 -1798,2434 -2696,3651 -899,-1219 -1799,-2437 -2696,-3657l2184 -2886 16 12 -2175 2874 2672 3624 2672 -3617 -2177 -2877 16 -12z"/>
  <path class="fil1" d="M2850 1835c1,0 270,-35 498,-35 190,0 512,39 512,39l-2 19c-1,0 -321,-39 -510,-39 -228,0 -495,35 -495,35l-3 -19z"/>
  <path class="fil5" d="M3227 488c0,-72 58,-130 130,-130 71,0 129,58 129,130 0,71 -58,130 -129,130 -72,0 -130,-58 -130,-130z"/>
  <path class="fil5" d="M2169 622c0,-71 58,-129 130,-129 71,0 130,58 130,129 0,72 -58,130 -130,130 -72,0 -130,-58 -130,-130z"/>
  <path class="fil5" d="M4294 622c0,-71 58,-129 129,-129 72,0 130,58 130,129 0,72 -58,130 -130,130 -71,0 -129,-58 -129,-130z"/>
  <path class="fil5" d="M5375 1289c0,-71 58,-129 129,-129 72,0 130,58 130,129 0,72 -58,130 -130,130 -71,0 -129,-58 -129,-130z"/>
  <path class="fil5" d="M1066 1289c0,-71 58,-129 129,-129 72,0 130,58 130,129 0,72 -58,130 -130,130 -71,0 -129,-58 -129,-130z"/>
  <polygon class="fil5" points="3347,1448 3041,1566 3348,1706 3655,1570 "/>
  <polygon class="fil1" points="1983,1712 1740,1932 2076,1953 2314,1715 "/>
  <polygon class="fil1" points="4704,1712 4947,1932 4612,1953 4374,1715 "/>
  <path class="fil4" d="M2364 3983c-102,-64 -187,-88 -301,-88 -417,0 -721,364 -721,862 0,470 309,841 701,841 116,0 204,-25 321,-88l0 -481c-74,71 -148,106 -230,106 -190,0 -318,-159 -318,-392 0,-219 133,-382 312,-382 82,0 148,28 236,103l0 -481z"/>
  <polygon class="fil4" points="5369,4275 5369,3916 4411,3916 4411,5594 4845,5594 4845,4903 5322,4903 5322,4545 4845,4545 4845,4275 "/>
  <polygon class="fil4" points="1370,2733 1370,3188 2272,3187 3341,6895 4374,3187 5310,3187 5310,2733 4037,2733 3352,5236 2662,2733 "/>
  <polygon class="fil3" points="2209,2038 2301,2183 2294,2307 2393,2301 2662,1908 "/>
  <path class="fil4" d="M2223 2043l87 137 -6 118 84 -6 253 -368 -418 119zm69 141l-97 -152 489 -140c-95,139 -191,278 -286,417l-113 8 7 -132z"/>
 </g>
</svg>
