<?xml version="1.0" encoding="UTF-8" standalone="no"?>
<svg xmlns:dc="http://purl.org/dc/elements/1.1/" xmlns:cc="http://creativecommons.org/ns#" xmlns:rdf="http://www.w3.org/1999/02/22-rdf-syntax-ns#" xmlns:svg="http://www.w3.org/2000/svg" xmlns="http://www.w3.org/2000/svg" xmlns:sodipodi="http://sodipodi.sourceforge.net/DTD/sodipodi-0.dtd" xmlns:inkscape="http://www.inkscape.org/namespaces/inkscape" inkscape:version="1.0 (4035a4f, 2020-05-01)" sodipodi:docname="99.svg" id="svg13043" height="200.0pt" width="200.0pt" viewBox="0 0 200 200" version="1.1">
  <metadata id="metadata13049">
    <rdf:RDF>
      <cc:Work rdf:about="">
        <dc:format>image/svg+xml</dc:format>
        <dc:type rdf:resource="http://purl.org/dc/dcmitype/StillImage"/>
      </cc:Work>
    </rdf:RDF>
  </metadata>
  <defs id="defs13047"/>
  <sodipodi:namedview inkscape:current-layer="svg13043" inkscape:cy="133.33333" inkscape:cx="133.33333" inkscape:zoom="1.75125" showgrid="false" id="namedview13045" inkscape:window-height="480" inkscape:window-width="640" inkscape:pageshadow="2" inkscape:pageopacity="0" guidetolerance="10" gridtolerance="10" objecttolerance="10" borderopacity="1" bordercolor="#666666" pagecolor="#ffffff"/>
  <path style="fill:#ffffff;fill-opacity:0.04048583" id="path13023" fill="#ffffff" d="M 0.00 0.00 L 99.94 0.00 C 93.40 7.42 86.31 14.32 79.68 21.66 C 63.54 38.72 47.43 55.82 31.33 72.91 C 33.19 76.90 35.37 80.71 37.47 84.57 C 58.23 123.06 79.15 161.47 99.84 200.00 L 0.00 200.00 L 0.00 0.00 Z"/>
  <path id="path13025" fill="#b59c7a" d="M 99.94 0.00 L 100.14 0.00 C 123.06 24.28 145.98 48.63 168.90 72.91 C 160.56 89.09 151.57 104.96 143.04 121.04 C 128.75 147.31 114.60 173.77 100.27 200.00 L 99.84 200.00 C 79.15 161.47 58.23 123.06 37.47 84.57 C 35.37 80.71 33.19 76.90 31.33 72.91 C 47.43 55.82 63.54 38.72 79.68 21.66 C 86.31 14.32 93.40 7.42 99.94 0.00 Z"/>
  <path style="fill:#ffffff;fill-opacity:0" id="path13027" fill="#ffffff" d="M 100.14 0.00 L 200.00 0.00 L 200.00 200.00 L 100.27 200.00 C 114.60 173.77 128.75 147.31 143.04 121.04 C 151.57 104.96 160.56 89.09 168.90 72.91 C 145.98 48.63 123.06 24.28 100.14 0.00 Z"/>
  <path id="path13029" fill="#ffffff" d="M 100.11 8.62 C 120.30 29.99 140.33 51.58 160.45 73.03 C 140.35 90.40 120.24 107.75 100.09 125.07 C 79.98 107.73 59.87 90.40 39.77 73.04 C 59.88 51.58 79.92 30.00 100.11 8.62 Z"/>
  <path id="path13031" fill="#ce0000" d="M 100.07 20.98 C 106.76 26.88 111.17 34.97 111.45 44.00 C 111.91 52.09 109.19 58.83 107.46 66.50 C 110.53 62.21 113.46 57.75 116.32 53.32 C 117.39 51.78 117.69 50.12 117.96 48.31 C 119.59 48.34 121.22 48.34 122.85 48.32 C 122.85 50.13 122.88 51.94 122.90 53.75 C 121.94 53.75 120.99 53.76 120.03 53.76 C 114.29 58.98 109.93 65.82 107.13 73.03 C 110.90 69.99 113.52 66.28 117.72 63.74 C 121.54 61.35 126.17 59.79 130.59 61.48 C 134.91 63.12 137.94 67.78 139.38 71.97 C 140.28 74.71 138.78 77.07 136.69 78.71 C 133.89 80.97 130.56 81.22 127.23 82.37 C 123.70 83.52 120.96 85.97 117.96 88.08 C 118.18 82.03 121.31 77.72 123.36 72.24 C 117.72 73.79 112.63 76.33 109.24 81.26 C 106.61 84.92 105.91 89.03 105.34 93.41 C 107.50 93.46 109.66 93.44 111.82 93.49 C 111.82 94.15 111.83 94.82 111.83 95.49 C 109.66 95.54 107.48 95.52 105.31 95.58 C 106.17 99.03 107.22 101.61 109.56 104.32 C 108.28 104.21 107.00 104.13 105.72 104.09 C 105.08 106.57 105.01 109.18 102.78 110.83 C 101.15 112.05 98.94 111.92 97.47 110.52 C 95.60 108.82 95.48 106.41 94.93 104.10 C 93.64 104.14 92.36 104.21 91.09 104.31 C 93.40 101.65 94.48 98.95 95.34 95.58 C 93.16 95.52 90.99 95.54 88.82 95.51 C 88.83 94.83 88.83 94.15 88.83 93.47 C 90.98 93.43 93.14 93.46 95.30 93.42 C 94.71 89.13 94.07 85.11 91.54 81.48 C 88.15 76.48 82.98 73.74 77.25 72.27 C 79.17 77.69 82.08 82.18 82.27 88.12 C 79.28 85.96 76.39 83.32 72.83 82.24 C 69.24 81.07 65.90 80.71 63.04 77.96 C 61.39 76.41 60.69 74.38 61.22 72.15 C 63.23 66.03 67.90 60.02 75.07 60.84 C 83.61 62.17 87.14 68.07 93.21 73.04 C 90.21 65.92 85.94 58.81 80.06 53.70 C 79.13 53.73 78.21 53.76 77.28 53.79 C 77.31 51.96 77.34 50.13 77.36 48.30 C 78.99 48.33 80.62 48.32 82.24 48.28 C 82.49 50.40 82.99 52.01 84.23 53.76 C 87.17 58.02 90.01 62.39 93.25 66.43 C 90.98 57.82 87.92 50.15 89.16 40.98 C 90.08 33.06 94.27 26.28 100.07 20.98 Z"/>
  <path id="path13033" fill="#420a92" d="M 46.12 87.73 C 64.12 102.93 82.13 118.20 100.11 133.43 C 118.10 118.25 135.98 102.92 154.06 87.86 C 136.13 121.80 118.06 155.70 100.11 189.63 C 82.15 155.66 64.01 121.73 46.12 87.73 Z"/>
  <path id="path13035" fill="#ffffff" d="M 88.16 133.99 C 89.47 133.84 90.80 133.73 92.12 133.67 C 94.08 138.30 96.03 142.93 98.05 147.53 C 96.27 147.54 94.48 147.56 92.70 147.57 C 92.36 146.74 92.02 145.92 91.68 145.09 C 90.45 145.10 89.22 145.11 87.99 145.14 C 87.73 145.94 87.46 146.75 87.20 147.55 C 85.53 147.55 83.86 147.55 82.18 147.55 C 84.28 143.09 85.84 138.33 88.16 133.99 Z"/>
  <path id="path13037" fill="#ffffff" d="M 113.08 133.54 C 115.67 133.84 116.73 135.63 118.31 137.39 C 117.11 137.81 115.92 138.24 114.72 138.66 C 113.30 138.03 111.98 136.76 110.33 137.33 C 107.64 138.09 107.27 141.99 109.41 143.56 C 111.13 145.17 113.15 143.54 114.82 142.74 C 115.96 143.16 117.11 143.57 118.26 143.98 C 116.33 145.86 114.98 147.78 112.02 147.85 C 107.56 148.30 103.55 144.51 104.09 139.98 C 104.38 135.55 108.86 132.71 113.08 133.54 Z"/>
  <path id="path13039" fill="#420a92" d="M 90.03 138.38 C 90.53 139.77 91.01 141.15 91.49 142.54 C 90.63 142.57 89.76 142.59 88.90 142.61 C 89.28 141.20 89.65 139.79 90.03 138.38 Z"/>
  <path id="path13041" fill="#ce0000" d="M 95.90 152.59 C 99.24 152.56 102.58 152.56 105.92 152.58 C 105.92 153.82 105.92 155.05 105.90 156.29 C 103.98 156.31 102.06 156.30 100.14 156.31 L 100.10 157.93 C 101.78 158.00 103.46 158.07 105.15 158.14 C 105.15 159.19 105.15 160.24 105.14 161.29 C 103.47 161.31 101.80 161.32 100.14 161.34 C 100.13 163.00 100.13 164.65 100.13 166.31 C 98.72 166.30 97.31 166.30 95.90 166.31 C 95.89 161.73 95.89 157.16 95.90 152.59 Z"/>
</svg>