<?xml version="1.0" encoding="UTF-8" standalone="no"?>
<!DOCTYPE svg PUBLIC "-//W3C//DTD SVG 1.1//EN" "http://www.w3.org/Graphics/SVG/1.1/DTD/svg11.dtd">
<svg xmlns="http://www.w3.org/2000/svg" version="1.1" viewBox="0 0 200 200" width="200.0pt" height="200.0pt">
<path d="M 0.00 0.00 L 96.39 0.00 C 91.86 0.25 87.31 0.50 82.78 0.79 C 67.61 2.29 52.06 5.18 37.87 10.88 C 31.61 13.48 24.64 16.92 20.09 22.07 C 16.63 25.91 16.30 31.09 15.90 36.00 C 14.76 63.93 18.33 92.33 27.11 118.92 C 31.05 130.62 35.83 142.25 42.14 152.89 C 50.10 166.06 60.45 177.94 72.69 187.29 C 78.26 191.54 84.22 195.35 90.76 197.92 C 93.25 198.80 95.80 199.50 98.39 200.00 L 0.00 200.00 L 0.00 0.00 Z" fill="#ffffff"/>
<path d="M 96.39 0.00 L 105.97 0.00 L 104.90 0.28 C 103.41 0.70 101.95 1.21 100.51 1.78 C 100.22 3.74 100.03 5.71 99.83 7.67 C 98.59 8.01 97.34 8.32 96.10 8.65 C 101.64 8.85 106.46 7.60 111.39 10.73 C 102.63 10.29 94.08 10.44 85.34 11.23 C 83.96 10.67 82.59 10.08 81.34 9.27 C 80.01 6.38 80.51 3.09 82.78 0.79 C 87.31 0.50 91.86 0.25 96.39 0.00 Z" fill="#1585c1"/>
<path d="M 105.97 0.00 L 200.00 0.00 L 200.00 200.00 L 101.44 200.00 C 105.30 199.34 108.97 198.20 112.53 196.56 C 123.37 191.47 133.25 184.15 141.90 175.89 C 153.51 164.81 162.08 151.23 168.70 136.69 C 180.65 110.14 184.93 80.95 184.24 52.00 C 183.95 44.09 183.73 35.83 181.79 28.13 C 180.44 22.62 175.85 18.72 171.36 15.67 C 161.97 9.51 150.43 5.97 139.51 3.69 C 128.15 1.46 116.49 0.20 104.90 0.28 L 105.97 0.00 Z" fill="#ffffff"/>
<path d="M 82.78 0.79 C 80.51 3.09 80.01 6.38 81.34 9.27 C 82.59 10.08 83.96 10.67 85.34 11.23 C 77.55 11.83 69.80 13.33 62.18 14.99 C 52.55 17.26 42.62 20.15 33.88 24.85 C 29.95 27.08 25.72 29.76 24.44 34.38 C 22.58 41.03 23.01 48.58 22.91 55.44 C 22.91 56.53 22.93 57.62 22.95 58.71 C 23.64 78.42 27.28 98.12 32.90 117.00 C 36.59 129.17 41.16 141.46 47.45 152.54 C 54.67 165.06 64.14 176.55 75.45 185.59 C 80.87 189.86 86.57 193.69 93.09 196.07 C 92.31 196.68 91.54 197.30 90.76 197.92 C 84.22 195.35 78.26 191.54 72.69 187.29 C 60.45 177.94 50.10 166.06 42.14 152.89 C 35.83 142.25 31.05 130.62 27.11 118.92 C 18.33 92.33 14.76 63.93 15.90 36.00 C 16.30 31.09 16.63 25.91 20.09 22.07 C 24.64 16.92 31.61 13.48 37.87 10.88 C 52.06 5.18 67.61 2.29 82.78 0.79 Z" fill="#1a99ce"/>
<path d="M 100.51 1.78 C 101.95 1.21 103.41 0.70 104.90 0.28 C 116.49 0.20 128.15 1.46 139.51 3.69 C 150.43 5.97 161.97 9.51 171.36 15.67 C 175.85 18.72 180.44 22.62 181.79 28.13 C 183.73 35.83 183.95 44.09 184.24 52.00 C 184.93 80.95 180.65 110.14 168.70 136.69 C 162.08 151.23 153.51 164.81 141.90 175.89 C 133.25 184.15 123.37 191.47 112.53 196.56 L 111.53 194.32 C 126.96 186.56 140.20 174.13 150.04 160.02 C 158.91 146.88 165.16 131.65 169.59 116.48 C 175.02 97.74 177.67 78.22 177.04 58.70 C 177.03 57.61 177.00 56.52 176.97 55.42 C 176.58 48.24 176.33 40.67 174.33 33.72 C 172.73 27.66 166.56 24.30 161.39 21.61 C 146.23 14.28 128.05 11.74 111.39 10.73 C 106.46 7.60 101.64 8.85 96.10 8.65 C 97.34 8.32 98.59 8.01 99.83 7.67 C 100.03 5.71 100.22 3.74 100.51 1.78 Z" fill="#1172b5"/>
<path d="M 85.34 11.23 C 94.08 10.44 102.63 10.29 111.39 10.73 C 128.05 11.74 146.23 14.28 161.39 21.61 C 166.56 24.30 172.73 27.66 174.33 33.72 C 176.33 40.67 176.58 48.24 176.97 55.42 C 146.38 43.92 112.67 40.17 80.19 42.85 C 60.72 44.49 41.20 48.51 22.91 55.44 C 23.01 48.58 22.58 41.03 24.44 34.38 C 25.72 29.76 29.95 27.08 33.88 24.85 C 42.62 20.15 52.55 17.26 62.18 14.99 C 69.80 13.33 77.55 11.83 85.34 11.23 Z" fill="#0f132d"/>
<path d="M 93.69 19.11 C 95.15 18.94 96.63 18.91 98.10 18.84 C 98.17 24.92 98.35 31.00 98.47 37.07 C 97.06 37.10 95.65 37.12 94.23 37.14 C 94.04 31.14 93.57 25.11 93.69 19.11 Z" fill="#ffffff"/>
<path d="M 105.02 19.06 C 109.15 18.66 113.39 19.14 117.54 19.13 C 117.50 20.37 117.46 21.60 117.42 22.84 C 113.94 22.74 110.43 22.38 106.96 22.59 C 104.94 22.88 104.70 26.05 106.94 26.12 C 109.66 26.49 112.58 26.09 115.23 26.76 C 119.55 28.14 118.83 36.18 114.29 36.83 C 110.11 37.54 105.62 36.55 101.36 36.73 C 101.42 35.51 101.48 34.29 101.55 33.06 C 105.05 33.14 108.59 33.49 112.09 33.30 C 113.80 33.56 114.37 30.62 112.84 30.23 C 109.92 29.41 105.89 30.39 103.13 28.90 C 99.57 26.68 100.57 19.60 105.02 19.06 Z" fill="#ffffff"/>
<path d="M 74.38 20.51 C 78.55 20.06 82.95 19.30 87.12 19.80 C 91.70 21.51 91.47 27.69 87.72 30.29 C 89.43 32.50 91.07 34.75 92.65 37.06 C 91.06 37.15 89.47 37.24 87.88 37.32 C 86.36 35.11 84.83 32.91 83.25 30.74 C 81.99 30.89 80.73 31.05 79.47 31.20 C 79.69 33.49 79.90 35.78 80.11 38.07 C 78.73 38.20 77.36 38.33 75.98 38.46 C 75.40 32.49 74.68 26.50 74.38 20.51 Z" fill="#ffffff"/>
<path d="M 60.51 22.74 C 61.85 22.41 63.18 22.24 64.55 22.01 C 68.14 27.49 71.68 33.00 75.32 38.45 C 73.81 38.73 72.30 39.02 70.79 39.31 C 69.94 38.01 69.12 36.70 68.28 35.40 C 65.90 35.86 63.52 36.31 61.14 36.76 C 60.88 38.22 60.61 39.69 60.34 41.15 C 58.87 41.37 57.41 41.59 55.94 41.80 C 57.62 35.50 58.65 28.99 60.51 22.74 Z" fill="#ffffff"/>
<path d="M 136.95 21.78 C 140.20 21.61 143.56 22.43 146.77 22.90 C 146.60 24.09 146.43 25.28 146.25 26.48 C 143.53 26.05 140.72 25.35 137.95 25.38 C 136.42 25.53 135.75 27.25 134.93 28.36 C 138.45 29.02 141.99 29.61 145.55 30.04 C 145.40 31.25 145.22 32.47 145.03 33.68 C 141.59 33.06 138.13 32.53 134.67 32.02 C 134.27 34.37 133.88 36.71 133.49 39.06 C 132.11 38.87 130.73 38.67 129.35 38.47 C 130.05 34.38 130.52 30.19 131.57 26.18 C 132.26 23.66 134.34 21.98 136.95 21.78 Z" fill="#ffffff"/>
<path d="M 86.02 24.10 C 87.61 28.07 81.40 27.02 79.25 27.63 C 79.06 26.34 78.87 25.04 78.69 23.75 C 80.57 23.79 84.86 22.43 86.02 24.10 Z" fill="#090d28"/>
<path d="M 152.22 25.25 C 155.75 24.35 160.05 26.20 163.55 26.87 C 163.22 28.04 162.89 29.20 162.55 30.37 C 159.65 29.91 154.17 26.74 152.41 30.43 C 151.38 32.44 149.82 36.54 151.66 38.37 C 154.02 39.94 157.40 40.20 160.12 40.95 C 159.83 42.11 159.53 43.27 159.24 44.42 C 156.43 43.72 153.49 43.22 150.77 42.21 C 147.84 41.08 146.12 38.10 146.41 34.99 C 146.77 31.20 148.18 26.55 152.22 25.25 Z" fill="#ffffff"/>
<path d="M 48.03 25.74 C 53.21 25.32 55.86 33.72 51.39 36.37 C 49.08 37.69 46.22 38.21 43.67 38.93 C 44.19 40.94 44.68 42.96 45.09 45.00 C 43.80 45.28 42.52 45.58 41.24 45.87 C 39.64 40.10 38.17 34.30 36.48 28.56 C 40.26 27.53 44.12 26.13 48.03 25.74 Z" fill="#ffffff"/>
<path d="M 63.05 26.83 C 64.15 28.59 65.24 30.36 66.32 32.14 C 64.89 32.34 63.46 32.56 62.03 32.76 C 62.36 30.79 62.70 28.81 63.05 26.83 Z" fill="#000119"/>
<path d="M 44.19 30.11 C 45.48 29.79 46.74 29.69 47.96 29.80 C 49.16 30.89 49.65 32.18 48.50 33.53 C 46.76 34.51 44.63 34.92 42.73 35.50 C 42.30 33.97 41.88 32.45 41.46 30.92 C 42.37 30.65 43.28 30.38 44.19 30.11 Z" fill="#0e122c"/>
<path d="M 80.19 42.85 C 112.67 40.17 146.38 43.92 176.97 55.42 C 177.00 56.52 177.03 57.61 177.04 58.70 C 146.58 47.02 113.41 43.42 80.99 45.82 C 61.26 47.53 41.46 51.54 22.95 58.71 C 22.93 57.62 22.91 56.53 22.91 55.44 C 41.20 48.51 60.72 44.49 80.19 42.85 Z" fill="#ffffff"/>
<path d="M 177.04 58.70 C 177.67 78.22 175.02 97.74 169.59 116.48 C 165.16 131.65 158.91 146.88 150.04 160.02 C 140.20 174.13 126.96 186.56 111.53 194.32 C 105.61 197.19 99.45 198.48 93.09 196.07 C 86.57 193.69 80.87 189.86 75.45 185.59 C 64.14 176.55 54.67 165.06 47.45 152.54 C 41.16 141.46 36.59 129.17 32.90 117.00 C 27.28 98.12 23.64 78.42 22.95 58.71 C 41.46 51.54 61.26 47.53 80.99 45.82 C 113.41 43.42 146.58 47.02 177.04 58.70 Z" fill="#101430"/>
<path d="M 101.79 49.31 C 101.85 50.32 101.91 51.33 101.97 52.34 C 101.96 53.12 101.97 53.91 101.99 54.69 L 101.87 54.36 C 100.57 56.54 99.24 58.70 97.84 60.82 C 98.61 61.15 99.38 61.48 100.16 61.80 C 101.03 73.33 100.89 84.86 98.89 96.28 C 96.23 111.99 90.87 129.49 80.25 141.72 C 75.37 147.32 69.04 151.09 61.43 151.09 C 68.15 147.21 73.83 142.48 78.32 136.10 C 85.33 126.16 89.90 114.37 92.89 102.64 C 96.64 89.22 98.29 75.80 99.77 62.00 C 98.69 61.84 97.62 61.67 96.55 61.46 L 95.62 60.25 C 97.74 57.96 99.85 55.83 101.07 52.89 C 101.33 51.70 101.57 50.50 101.79 49.31 Z" fill="#fefefe"/>
<path d="M 51.00 52.21 C 45.67 72.64 43.39 94.41 45.94 115.43 C 48.45 137.05 56.80 159.17 71.28 175.63 C 73.94 178.73 76.94 181.46 79.92 184.24 C 72.30 179.98 65.87 173.31 60.58 166.45 C 45.41 146.46 37.80 120.76 35.51 96.03 C 34.36 82.86 33.94 68.83 36.87 55.88 C 41.56 54.54 46.26 53.34 51.00 52.21 Z" fill="#ffffff"/>
<path d="M 101.97 52.34 C 103.05 54.75 104.41 57.02 105.54 59.41 C 106.62 61.63 106.19 64.17 106.02 66.54 C 105.24 73.49 105.20 80.50 106.01 87.44 C 106.15 89.40 106.35 91.35 106.54 93.30 C 105.14 93.36 103.74 93.40 102.33 93.44 C 101.94 83.87 101.87 74.39 103.77 64.96 C 104.74 61.13 103.38 58.15 101.99 54.69 C 101.97 53.91 101.96 53.12 101.97 52.34 Z" fill="#2eade6"/>
<path d="M 150.56 52.59 C 151.55 52.83 152.54 53.07 153.52 53.31 C 157.32 54.22 161.07 55.31 164.81 56.41 C 167.14 68.46 167.19 80.60 166.19 92.80 C 164.84 111.47 160.51 130.45 152.40 147.39 C 145.64 161.57 135.35 176.00 121.73 184.25 C 126.84 179.29 131.88 174.41 135.83 168.42 C 148.40 151.01 154.97 128.91 156.25 107.62 C 157.50 89.19 155.15 70.44 150.56 52.59 Z" fill="#ffffff"/>
<path d="M 101.87 54.36 L 101.99 54.69 C 103.38 58.15 104.74 61.13 103.77 64.96 C 101.87 74.39 101.94 83.87 102.33 93.44 C 101.50 93.47 100.67 93.53 99.85 93.62 L 99.27 96.29 L 98.89 96.28 C 100.89 84.86 101.03 73.33 100.16 61.80 C 99.38 61.48 98.61 61.15 97.84 60.82 C 99.24 58.70 100.57 56.54 101.87 54.36 Z" fill="#0f1131"/>
<path d="M 96.55 61.46 C 97.62 61.67 98.69 61.84 99.77 62.00 C 98.29 75.80 96.64 89.22 92.89 102.64 C 91.93 99.66 92.44 96.86 92.88 93.85 C 86.18 95.02 81.55 99.30 77.32 104.31 C 73.65 109.05 71.24 114.99 70.94 121.00 C 71.20 125.08 72.54 129.23 74.02 133.02 C 74.78 135.06 76.56 135.29 78.32 136.10 C 73.83 142.48 68.15 147.21 61.43 151.09 C 69.04 151.09 75.37 147.32 80.25 141.72 C 81.04 143.20 81.44 145.19 82.95 146.05 C 86.20 148.08 89.96 149.85 93.73 150.65 C 99.93 151.43 106.91 151.43 112.65 148.61 C 115.94 147.18 118.31 144.87 120.93 142.51 C 126.22 148.11 132.36 152.52 140.31 152.98 C 135.21 148.59 130.27 144.15 126.20 138.75 C 127.60 139.05 128.99 139.37 130.38 139.69 C 139.76 127.22 137.54 107.42 125.79 97.21 C 121.34 92.30 115.00 87.35 108.15 86.94 C 108.17 88.10 108.21 89.26 108.26 90.42 C 109.45 90.85 110.63 91.30 111.81 91.76 L 111.82 92.78 C 110.06 92.96 108.30 93.17 106.54 93.30 C 106.35 91.35 106.15 89.40 106.01 87.44 C 107.48 79.69 106.16 71.91 108.38 64.18 C 113.53 65.48 118.48 66.49 123.34 68.69 C 136.05 74.60 146.69 84.57 152.60 97.36 C 153.90 100.81 154.34 104.38 156.25 107.62 C 154.97 128.91 148.40 151.01 135.83 168.42 C 132.80 168.51 132.05 171.00 129.72 172.59 C 126.61 174.70 122.71 175.97 119.14 177.07 C 118.40 176.34 117.66 175.61 116.92 174.88 C 117.48 170.82 117.72 166.93 115.92 163.11 C 113.02 156.62 106.11 152.30 98.98 152.77 C 92.06 153.16 85.82 157.94 83.52 164.46 C 82.31 167.80 82.74 171.09 82.91 174.55 C 82.74 175.75 82.53 176.94 82.30 178.13 C 78.51 177.37 75.15 175.85 71.28 175.63 C 56.80 159.17 48.45 137.05 45.94 115.43 C 46.54 113.59 47.29 111.98 47.35 110.01 C 47.48 104.09 46.79 97.95 47.33 91.98 C 47.49 88.23 50.79 84.83 53.23 82.24 C 56.46 79.13 59.48 75.80 62.79 72.79 C 71.08 66.22 80.74 62.94 91.02 61.00 C 92.95 60.63 94.65 61.14 96.55 61.46 Z" fill="#151b3e"/>
<path d="M 108.15 86.94 C 115.00 87.35 121.34 92.30 125.79 97.21 C 137.54 107.42 139.76 127.22 130.38 139.69 C 128.99 139.37 127.60 139.05 126.20 138.75 C 124.37 136.40 122.61 133.96 120.90 131.52 C 117.69 126.49 115.10 121.15 112.74 115.69 C 113.95 114.86 115.09 113.96 116.23 113.03 C 114.86 113.42 113.51 113.84 112.16 114.25 C 109.87 108.19 108.27 101.99 106.89 95.67 C 108.69 94.96 110.35 94.03 111.82 92.78 L 111.81 91.76 C 110.63 91.30 109.45 90.85 108.26 90.42 C 108.21 89.26 108.17 88.10 108.15 86.94 Z" fill="#182148"/>
<path d="M 111.82 92.78 C 110.35 94.03 108.69 94.96 106.89 95.67 C 105.48 95.93 104.07 96.15 102.66 96.32 C 101.53 96.33 100.40 96.32 99.27 96.29 L 99.85 93.62 C 100.67 93.53 101.50 93.47 102.33 93.44 C 103.74 93.40 105.14 93.36 106.54 93.30 C 108.30 93.17 110.06 92.96 111.82 92.78 Z" fill="#ffffff"/>
<path d="M 92.88 93.85 C 92.44 96.86 91.93 99.66 92.89 102.64 C 89.90 114.37 85.33 126.16 78.32 136.10 C 76.56 135.29 74.78 135.06 74.02 133.02 C 72.54 129.23 71.20 125.08 70.94 121.00 C 71.24 114.99 73.65 109.05 77.32 104.31 C 81.55 99.30 86.18 95.02 92.88 93.85 Z" fill="#19224b"/>
<path d="M 98.89 96.28 L 99.27 96.29 C 100.40 96.32 101.53 96.33 102.66 96.32 C 103.34 102.94 104.69 109.42 106.67 115.77 C 102.96 116.61 99.02 116.20 95.37 117.01 L 94.61 119.31 C 98.91 119.27 103.14 118.79 107.28 117.65 C 110.32 126.65 114.40 134.19 120.32 141.61 C 120.52 141.91 120.72 142.21 120.93 142.51 C 118.31 144.87 115.94 147.18 112.65 148.61 C 106.91 151.43 99.93 151.43 93.73 150.65 C 89.96 149.85 86.20 148.08 82.95 146.05 C 81.44 145.19 81.04 143.20 80.25 141.72 C 90.87 129.49 96.23 111.99 98.89 96.28 Z" fill="#1a234d"/>
<path d="M 102.66 96.32 C 104.07 96.15 105.48 95.93 106.89 95.67 C 108.27 101.99 109.87 108.19 112.16 114.25 C 110.35 114.81 108.52 115.35 106.67 115.77 C 104.69 109.42 103.34 102.94 102.66 96.32 Z" fill="#2da8e0"/>
<path d="M 116.23 113.03 C 115.09 113.96 113.95 114.86 112.74 115.69 C 110.96 116.45 109.14 117.10 107.28 117.65 C 103.14 118.79 98.91 119.27 94.61 119.31 L 95.37 117.01 C 99.02 116.20 102.96 116.61 106.67 115.77 C 108.52 115.35 110.35 114.81 112.16 114.25 C 113.51 113.84 114.86 113.42 116.23 113.03 Z" fill="#d4dbe4"/>
<path d="M 112.74 115.69 C 115.10 121.15 117.69 126.49 120.90 131.52 C 119.65 134.91 120.22 138.11 120.32 141.61 C 114.40 134.19 110.32 126.65 107.28 117.65 C 109.14 117.10 110.96 116.45 112.74 115.69 Z" fill="#2da7df"/>
<path d="M 101.99 130.24 C 109.31 131.34 115.80 136.76 120.19 142.46 C 116.15 139.72 112.49 136.81 107.83 135.15 C 103.64 133.53 99.22 132.94 95.01 134.88 C 90.88 136.68 88.32 140.09 86.55 144.12 C 85.64 143.01 84.72 141.90 83.81 140.79 C 86.48 133.38 94.29 129.11 101.99 130.24 Z" fill="#fefefe"/>
<path d="M 120.90 131.52 C 122.61 133.96 124.37 136.40 126.20 138.75 C 130.27 144.15 135.21 148.59 140.31 152.98 C 132.36 152.52 126.22 148.11 120.93 142.51 C 120.72 142.21 120.52 141.91 120.32 141.61 C 120.22 138.11 119.65 134.91 120.90 131.52 Z" fill="#2a80c2"/>
<path d="M 98.98 152.77 C 106.11 152.30 113.02 156.62 115.92 163.11 C 117.72 166.93 117.48 170.82 116.92 174.88 C 115.45 178.83 113.27 182.36 109.65 184.67 C 103.69 188.71 95.55 188.54 89.75 184.26 C 86.30 181.86 84.41 178.38 82.91 174.55 C 82.74 171.09 82.31 167.80 83.52 164.46 C 85.82 157.94 92.06 153.16 98.98 152.77 Z" fill="#bc2e34"/>
<path d="M 94.43 155.46 C 98.86 153.88 104.21 154.22 108.21 156.78 C 114.06 160.25 117.07 167.66 115.20 174.22 C 113.78 179.86 109.17 184.16 103.58 185.58 C 95.55 187.66 86.77 182.23 84.80 174.22 C 82.63 166.56 87.01 158.22 94.43 155.46 Z" fill="#272341"/>
<path d="M 94.47 157.52 C 101.32 154.53 109.56 157.56 112.57 164.44 C 115.87 171.26 112.58 179.68 105.75 182.75 C 98.68 186.24 89.80 182.42 87.09 175.12 C 84.31 168.35 87.84 160.39 94.47 157.52 Z" fill="#fefefe"/>
<path d="M 105.08 157.79 C 109.41 159.92 110.35 164.89 109.19 169.20 C 108.38 172.23 106.39 174.15 104.29 176.32 C 106.41 176.31 108.54 176.31 110.67 176.33 C 108.02 179.87 104.62 182.41 100.00 182.32 C 95.39 182.41 91.99 179.88 89.34 176.34 C 93.95 176.31 98.65 176.17 103.23 176.52 C 105.67 173.57 103.96 168.97 100.48 167.76 C 96.73 166.50 92.02 167.27 88.16 167.66 C 93.89 164.52 99.41 161.03 105.08 157.79 Z" fill="#0f132d"/>
<path d="M 111.53 194.32 L 112.53 196.56 C 108.97 198.20 105.30 199.34 101.44 200.00 L 98.39 200.00 C 95.80 199.50 93.25 198.80 90.76 197.92 C 91.54 197.30 92.31 196.68 93.09 196.07 C 99.45 198.48 105.61 197.19 111.53 194.32 Z" fill="#198ac7"/>
</svg>