<?xml version="1.0" encoding="UTF-8" standalone="no"?>
<!DOCTYPE svg PUBLIC "-//W3C//DTD SVG 1.1//EN" "http://www.w3.org/Graphics/SVG/1.1/DTD/svg11.dtd">
<svg xmlns="http://www.w3.org/2000/svg" version="1.1" viewBox="0 0 200 200" width="200.0pt" height="200.0pt">
<path d="M 0.00 0.00 L 100.07 0.00 C 98.58 0.99 97.15 1.99 95.88 3.26 C 95.74 4.62 98.35 5.26 99.25 5.80 C 97.98 7.15 96.73 8.52 95.50 9.91 C 96.98 11.02 98.46 12.12 99.94 13.23 C 101.29 12.18 102.64 11.12 103.99 10.08 C 102.77 8.34 101.54 6.60 100.36 4.83 C 101.56 4.73 102.75 4.64 103.95 4.54 C 103.94 4.00 103.93 3.45 103.93 2.90 C 102.21 2.16 101.26 1.50 100.10 0.00 L 200.00 0.00 L 200.00 200.00 L 102.52 200.00 C 113.89 199.01 126.03 196.16 135.46 189.45 C 140.24 186.04 144.07 181.15 144.01 175.02 C 143.99 136.03 143.99 97.04 144.00 58.06 C 114.59 58.08 85.18 58.08 55.77 58.06 C 55.74 95.37 55.81 132.69 55.74 170.00 C 55.81 174.16 55.35 178.67 57.63 182.38 C 60.13 186.61 64.44 189.95 68.71 192.27 C 77.61 196.98 87.21 199.13 97.19 200.00 L 0.00 200.00 L 0.00 0.00 Z" opacity="0"/>
<path d="M 100.07 0.00 L 100.10 0.00 C 101.26 1.50 102.21 2.16 103.93 2.90 C 103.93 3.45 103.94 4.00 103.95 4.54 C 102.75 4.64 101.56 4.73 100.36 4.83 C 101.54 6.60 102.77 8.34 103.99 10.08 C 102.64 11.12 101.29 12.18 99.94 13.23 C 98.46 12.12 96.98 11.02 95.50 9.91 C 96.73 8.52 97.98 7.15 99.25 5.80 C 98.35 5.26 95.74 4.62 95.88 3.26 C 97.15 1.99 98.58 0.99 100.07 0.00 Z" fill="#ffd100"/>
<path d="M 91.23 9.51 C 94.65 10.41 97.08 12.48 99.77 14.63 C 102.75 12.43 105.45 10.15 109.17 9.34 C 111.81 8.61 114.59 9.88 117.11 10.62 C 120.11 9.62 122.95 8.85 126.09 9.77 C 134.41 11.73 142.66 19.72 141.56 28.83 C 140.96 35.71 134.62 41.32 130.28 46.30 C 128.55 48.51 126.53 48.12 124.00 48.21 C 106.39 48.09 88.77 48.24 71.15 48.13 C 68.03 44.52 64.53 41.17 61.68 37.34 C 58.63 33.07 56.90 27.95 58.75 22.79 C 61.96 13.60 73.13 6.76 82.68 10.50 C 85.64 9.87 88.21 8.49 91.23 9.51 Z" fill="#ffd100"/>
<path d="M 87.97 15.85 C 91.37 15.44 94.37 16.37 97.56 17.37 C 97.53 21.46 97.56 25.56 97.58 29.65 C 99.09 29.64 100.60 29.64 102.11 29.63 C 102.10 25.49 102.14 21.35 102.24 17.21 C 107.45 15.74 113.12 14.51 117.73 18.24 C 121.49 21.31 121.28 25.30 121.75 29.73 C 123.03 29.71 124.30 29.68 125.58 29.66 C 125.75 24.99 125.39 20.61 124.59 16.02 C 130.73 18.44 135.69 22.94 135.48 30.01 C 134.98 35.50 129.23 40.28 126.10 44.59 C 124.09 44.58 122.07 44.57 120.06 44.57 C 121.53 43.34 124.22 42.05 124.65 40.03 C 124.65 38.02 122.93 36.81 121.75 35.41 C 120.85 32.78 120.59 29.92 116.97 30.52 C 114.34 30.93 114.40 33.42 113.50 35.44 C 111.99 37.24 110.41 38.28 111.00 40.94 C 112.03 42.42 113.78 43.44 115.14 44.57 C 111.04 44.55 106.94 44.56 102.83 44.58 C 104.11 43.21 106.32 41.79 106.87 39.91 C 106.83 38.22 105.03 36.70 104.10 35.41 C 103.05 32.80 102.66 29.84 98.97 30.63 C 96.57 30.98 96.51 33.64 95.58 35.43 C 94.29 37.23 92.49 38.39 93.08 40.88 C 94.20 42.29 95.79 43.40 97.15 44.56 C 93.40 44.56 89.65 44.58 85.90 44.49 C 86.07 44.09 86.24 43.68 86.41 43.28 C 87.59 41.89 89.31 41.18 88.98 39.07 C 88.29 37.76 87.26 36.58 86.34 35.41 C 85.22 33.08 85.19 30.58 82.00 30.40 C 78.87 30.60 78.88 33.09 77.76 35.37 C 76.84 36.56 75.78 37.77 75.10 39.10 C 74.56 41.12 76.86 42.24 78.01 43.43 C 77.57 44.02 77.13 44.60 76.69 45.19 C 71.94 44.05 70.13 40.24 67.24 36.74 C 64.93 33.68 63.35 30.37 64.56 26.48 C 66.11 21.10 70.11 17.99 75.17 16.08 C 74.32 20.62 73.93 25.02 74.13 29.64 C 75.34 29.69 76.55 29.75 77.77 29.80 C 78.09 27.29 78.27 24.52 79.17 22.16 C 80.61 18.56 84.13 16.13 87.97 15.85 Z" fill="#dc271d"/>
<path d="M 82.03 42.50 C 83.15 42.64 84.27 42.80 85.38 42.98 C 84.87 43.58 84.36 44.17 83.84 44.76 C 82.27 44.67 80.70 44.58 79.13 44.50 C 79.15 43.93 79.16 43.37 79.18 42.80 C 80.13 42.68 81.08 42.58 82.03 42.50 Z" fill="#dc271d"/>
<path d="M 100.06 41.96 C 100.78 42.52 101.40 43.24 101.89 44.10 C 100.29 44.59 98.78 44.55 97.18 44.12 C 97.96 43.17 98.88 42.38 100.06 41.96 Z" fill="#dc271d"/>
<path d="M 119.88 44.07 C 118.27 44.56 116.79 44.54 115.18 44.11 C 116.63 41.81 118.54 41.41 119.88 44.07 Z" fill="#dc271d"/>
<path d="M 71.24 50.03 C 90.32 50.04 109.40 50.06 128.47 50.02 C 128.48 52.13 128.48 54.24 128.48 56.34 C 109.39 56.32 90.30 56.39 71.21 56.31 C 71.23 54.22 71.24 52.12 71.24 50.03 Z" fill="#ffd100"/>
<path d="M 55.77 58.06 C 85.18 58.08 114.59 58.08 144.00 58.06 C 143.99 97.04 143.99 136.03 144.01 175.02 C 144.07 181.15 140.24 186.04 135.46 189.45 C 126.03 196.16 113.89 199.01 102.52 200.00 L 97.19 200.00 C 87.21 199.13 77.61 196.98 68.71 192.27 C 64.44 189.95 60.13 186.61 57.63 182.38 C 55.35 178.67 55.81 174.16 55.74 170.00 C 55.81 132.69 55.74 95.37 55.77 58.06 Z" fill="#ffd100"/>
<path d="M 61.30 63.83 C 86.98 63.81 112.65 63.83 138.33 63.82 C 138.32 67.98 138.32 72.14 138.33 76.30 C 123.31 76.16 108.25 76.56 93.24 76.10 L 93.41 75.78 L 94.03 74.79 C 93.40 73.62 92.78 72.45 92.15 71.28 C 92.70 70.08 94.30 68.50 93.91 67.14 C 93.04 63.92 88.93 65.28 86.40 64.85 C 86.42 68.60 86.45 72.34 86.41 76.08 C 78.05 76.50 69.65 76.23 61.28 76.27 C 61.34 72.12 61.34 67.98 61.30 63.83 Z" fill="#004293"/>
<path d="M 86.40 64.85 C 88.93 65.28 93.04 63.92 93.91 67.14 C 94.30 68.50 92.70 70.08 92.15 71.28 C 92.78 72.45 93.40 73.62 94.03 74.79 L 93.41 75.78 L 92.23 75.95 L 92.53 75.21 C 91.39 73.29 90.21 71.66 88.44 70.27 C 88.19 72.20 87.94 74.14 87.74 76.07 L 86.41 76.08 C 86.45 72.34 86.42 68.60 86.40 64.85 Z" fill="#ffffff"/>
<path d="M 107.37 65.26 C 109.39 64.51 112.19 64.68 112.99 67.04 C 113.42 69.17 113.41 71.60 112.88 73.71 C 111.07 76.39 106.81 76.12 105.89 72.96 C 105.64 70.73 105.06 66.60 107.37 65.26 Z" fill="#ffffff"/>
<path d="M 88.29 65.87 C 89.60 66.22 90.87 66.51 92.14 66.98 C 92.62 70.06 90.07 68.86 88.05 69.55 C 88.13 68.33 88.21 67.10 88.29 65.87 Z" fill="#004293"/>
<path d="M 108.01 67.00 C 112.46 64.11 112.88 74.25 109.02 74.06 C 106.75 72.59 107.14 69.17 108.01 67.00 Z" fill="#004293"/>
<path d="M 88.44 70.27 C 90.21 71.66 91.39 73.29 92.53 75.21 L 92.23 75.95 C 90.75 76.13 89.25 76.17 87.74 76.07 C 87.94 74.14 88.19 72.20 88.44 70.27 Z" fill="#004293"/>
<path d="M 61.33 81.92 C 87.00 81.87 112.67 81.92 138.35 81.90 C 138.35 110.60 138.32 139.30 138.36 168.00 C 138.29 171.49 138.72 175.38 137.74 178.75 C 135.96 182.77 131.65 185.83 127.91 187.89 C 110.15 196.89 88.24 196.78 70.71 187.26 C 66.35 184.58 61.18 180.76 61.36 175.05 C 61.31 144.11 61.39 112.87 61.33 81.92 Z" fill="#ffffff"/>
<path d="M 73.55 87.42 C 91.05 87.05 108.71 87.43 126.25 87.24 C 126.33 103.49 126.22 119.75 126.31 136.00 C 126.22 138.35 126.37 140.94 124.90 142.93 C 122.88 145.82 119.37 147.82 116.20 149.23 C 108.56 152.43 100.21 153.70 92.04 151.87 C 86.22 150.63 79.36 148.23 75.32 143.63 C 72.92 140.85 73.47 137.42 73.36 134.00 C 73.57 118.50 73.17 102.90 73.55 87.42 Z" fill="#ffd100"/>
<path d="M 79.00 92.98 C 92.91 92.99 106.83 92.98 120.74 92.99 C 120.65 107.97 120.83 123.01 120.67 137.98 C 120.75 140.34 118.39 141.58 116.69 142.72 C 108.39 147.53 97.81 148.36 88.76 145.30 C 85.44 144.13 81.57 142.44 79.33 139.62 C 78.96 138.14 79.01 136.52 78.97 135.00 C 79.06 121.00 79.02 106.99 79.00 92.98 Z" fill="#004293"/>
<path d="M 96.01 98.73 C 98.57 98.72 101.12 98.72 103.68 98.72 C 103.33 103.76 102.68 108.89 102.87 113.94 L 104.05 115.43 C 108.97 115.42 113.90 114.90 118.82 114.71 C 118.82 117.18 118.82 119.65 118.84 122.12 C 114.00 121.92 109.18 121.52 104.36 121.08 C 103.79 121.67 103.23 122.27 102.67 122.87 C 102.96 127.93 103.16 133.00 103.57 138.06 C 101.08 138.05 98.59 138.05 96.11 138.05 C 96.37 133.36 97.02 128.65 96.98 123.95 C 97.09 122.74 96.30 121.14 94.94 121.25 C 90.29 121.32 85.66 122.00 81.00 122.12 C 81.00 119.65 81.00 117.19 81.00 114.72 C 85.99 114.89 91.01 115.50 95.99 115.36 C 96.77 114.42 97.10 113.31 96.98 112.04 C 96.86 107.59 96.30 103.16 96.01 98.73 Z" fill="#ffd100"/>
<path d="M 95.29 156.33 C 100.09 155.09 105.28 155.77 109.37 158.65 C 115.51 162.75 118.45 170.94 115.95 177.95 C 113.52 185.46 105.84 190.40 97.99 189.44 C 89.76 188.66 82.95 181.30 82.91 173.01 C 82.71 165.34 87.90 158.37 95.29 156.33 Z" fill="#004293"/>
<path d="M 99.06 157.42 C 99.84 159.19 100.61 160.96 101.34 162.75 C 97.82 163.25 94.55 163.56 91.41 165.39 C 88.60 167.02 86.78 169.32 84.56 171.61 C 85.50 167.83 86.64 164.33 89.66 161.67 C 92.30 159.04 95.56 158.24 99.06 157.42 Z" fill="#ffffff"/>
<path d="M 102.46 157.41 C 105.02 160.21 107.13 163.14 107.60 167.02 C 108.25 171.00 106.71 174.14 105.08 177.62 C 103.83 176.17 102.61 174.70 101.43 173.19 C 102.44 170.89 103.67 168.57 103.93 166.03 C 104.22 163.02 103.15 160.29 102.46 157.41 Z" fill="#ffffff"/>
<path d="M 108.22 159.71 C 109.09 160.57 109.94 161.43 110.79 162.31 C 114.93 166.98 116.49 173.82 113.13 179.37 C 111.23 179.38 109.41 179.17 107.53 179.01 C 110.04 174.03 111.15 169.02 109.52 163.53 C 109.09 162.26 108.66 160.98 108.22 159.71 Z" fill="#ffffff"/>
<path d="M 101.40 165.65 C 100.90 167.36 100.38 169.06 99.84 170.76 C 96.91 171.24 93.61 171.48 91.02 173.04 C 88.92 174.33 87.13 176.26 85.26 177.87 C 86.68 173.93 88.37 170.38 92.08 168.13 C 94.94 166.16 98.05 165.95 101.40 165.65 Z" fill="#ffffff"/>
<path d="M 98.55 173.77 C 100.24 176.02 101.69 178.33 104.15 179.82 C 106.46 181.19 109.22 181.92 111.70 182.91 C 107.71 183.13 103.87 183.72 100.16 181.84 C 96.88 180.26 95.04 177.61 92.93 174.78 C 94.79 174.40 96.67 174.06 98.55 173.77 Z" fill="#ffffff"/>
<path d="M 90.62 176.25 C 92.56 178.81 94.21 181.28 96.94 183.08 C 99.71 184.93 103.26 185.61 106.42 186.55 C 102.84 187.37 99.61 188.29 95.95 187.14 C 92.16 186.19 89.68 183.70 87.08 180.96 C 88.24 179.37 89.42 177.80 90.62 176.25 Z" fill="#ffffff"/>
</svg>
