<?xml version="1.0" encoding="UTF-8" standalone="no"?>
<!DOCTYPE svg PUBLIC "-//W3C//DTD SVG 1.1//EN" "http://www.w3.org/Graphics/SVG/1.1/DTD/svg11.dtd">
<svg xmlns="http://www.w3.org/2000/svg" version="1.1" viewBox="0 0 200 200" width="200.0pt" height="200.0pt">
<path d="M 0.00 0.00 L 13.22 0.00 C 12.67 7.16 13.76 13.85 14.02 21.00 C 16.73 52.02 23.66 82.87 35.18 111.82 C 45.76 138.63 62.09 163.20 82.17 183.83 C 87.85 189.64 93.93 195.19 100.48 200.00 L 0.00 200.00 L 0.00 0.00 Z" fill="#ffffff"/>
<path d="M 13.22 0.00 L 13.60 0.00 L 13.82 0.14 L 14.13 0.34 C 23.17 5.91 34.13 8.85 44.52 10.61 C 58.83 12.59 73.72 10.75 87.50 6.61 C 91.68 5.31 95.75 3.73 99.53 1.51 C 111.54 6.58 123.92 10.25 137.00 11.00 C 143.28 11.03 149.82 11.44 156.02 10.30 C 166.56 8.82 177.64 6.02 186.56 0.00 L 186.80 0.00 C 187.56 10.75 186.35 21.28 185.77 31.98 C 184.55 44.79 182.84 57.42 180.22 70.03 C 176.75 86.35 173.02 102.11 166.60 117.57 C 153.33 150.44 130.62 180.35 100.93 200.00 L 100.48 200.00 C 93.93 195.19 87.85 189.64 82.17 183.83 C 62.09 163.20 45.76 138.63 35.18 111.82 C 23.66 82.87 16.73 52.02 14.02 21.00 C 13.76 13.85 12.67 7.16 13.22 0.00 Z" fill="#1aa03f"/>
<path d="M 13.60 0.00 L 186.56 0.00 C 177.64 6.02 166.56 8.82 156.02 10.30 C 149.82 11.44 143.28 11.03 137.00 11.00 C 123.92 10.25 111.54 6.58 99.53 1.51 C 95.75 3.73 91.68 5.31 87.50 6.61 C 73.72 10.75 58.83 12.59 44.52 10.61 C 34.13 8.85 23.17 5.91 14.13 0.34 L 13.82 0.14 L 13.60 0.00 Z" fill="#ffffff"/>
<path d="M 186.80 0.00 L 200.00 0.00 L 200.00 200.00 L 100.93 200.00 C 130.62 180.35 153.33 150.44 166.60 117.57 C 173.02 102.11 176.75 86.35 180.22 70.03 C 182.84 57.42 184.55 44.79 185.77 31.98 C 186.35 21.28 187.56 10.75 186.80 0.00 Z" fill="#ffffff"/>
<path d="M 100.40 8.56 C 102.91 9.20 105.30 10.44 107.78 11.23 C 122.61 16.22 138.40 18.25 154.00 16.75 C 162.65 15.93 172.33 14.88 180.23 11.04 C 180.26 28.67 177.19 46.55 173.89 63.84 C 169.31 84.57 163.70 106.28 154.43 125.44 C 141.91 151.31 124.18 175.85 100.37 192.40 C 81.85 177.00 67.00 156.64 55.25 135.74 C 41.77 111.34 32.68 83.93 26.53 56.81 C 23.07 41.94 21.63 27.08 20.77 11.87 C 46.82 19.70 75.17 19.04 100.40 8.56 Z" fill="#ffffff"/>
<path d="M 49.99 21.10 C 55.32 20.02 60.57 21.47 65.57 23.27 C 65.56 25.85 65.55 28.44 65.56 31.02 C 61.23 29.11 56.77 27.73 51.98 28.14 C 48.44 28.57 45.39 31.38 44.89 34.96 C 44.22 38.95 45.43 42.98 49.45 44.54 C 54.99 46.34 61.72 44.83 66.32 41.31 C 66.25 43.66 66.26 46.01 66.36 48.36 C 60.53 52.29 50.93 53.27 44.51 50.39 C 35.78 46.89 33.22 34.20 39.19 27.22 C 41.87 23.96 45.92 21.97 49.99 21.10 Z" fill="#000000"/>
<path d="M 89.22 20.81 C 96.61 21.16 105.59 19.44 112.28 22.71 C 115.59 24.19 118.42 26.65 120.00 29.94 C 122.94 37.01 121.07 46.22 113.72 49.74 C 106.69 53.15 97.05 51.30 89.34 51.79 C 89.30 41.46 89.27 31.14 89.22 20.81 Z" fill="#000000"/>
<path d="M 135.26 20.76 C 145.35 20.73 155.43 20.79 165.52 20.72 C 165.56 23.12 165.57 25.52 165.55 27.92 C 162.18 27.86 158.81 27.82 155.44 27.96 C 155.49 35.96 155.48 43.95 155.44 51.95 C 152.54 51.89 149.64 51.88 146.73 51.93 C 146.68 43.91 146.76 35.89 146.69 27.87 C 142.89 27.87 139.09 27.87 135.28 27.89 C 135.27 25.51 135.27 23.13 135.26 20.76 Z" fill="#000000"/>
<path d="M 98.16 27.80 C 102.40 27.70 107.38 27.04 110.71 30.29 C 114.30 34.22 113.58 42.31 108.24 44.43 C 105.22 45.72 101.31 45.15 98.07 45.25 C 98.18 39.43 97.97 33.60 98.16 27.80 Z" fill="#ffffff"/>
<path d="M 35.68 56.24 C 79.20 56.28 122.72 56.31 166.24 56.22 C 164.59 70.35 160.43 84.37 155.78 97.78 C 149.75 114.58 142.22 131.41 132.26 146.27 C 123.45 159.48 113.24 171.61 101.07 181.87 C 83.28 166.15 69.52 145.13 58.99 124.00 C 48.65 102.72 40.62 79.38 35.68 56.24 Z" fill="#1aa03f"/>
<path d="M 43.34 61.84 C 46.88 61.83 50.42 61.83 53.96 61.85 C 54.01 72.15 53.99 82.46 53.97 92.76 C 48.73 83.09 45.29 72.65 43.34 61.84 Z" fill="#feed01"/>
<path d="M 72.74 61.84 C 78.90 61.84 85.07 61.83 91.24 61.84 C 91.27 95.67 91.26 129.50 91.24 163.34 C 84.75 155.47 78.99 147.06 73.64 138.39 C 72.65 137.01 72.71 135.62 72.69 134.01 C 72.77 109.95 72.68 85.90 72.74 61.84 Z" fill="#feed01"/>
<path d="M 110.13 61.84 C 116.33 61.83 122.52 61.81 128.72 61.85 C 128.76 87.22 128.70 112.66 128.75 138.03 C 128.90 139.99 127.89 141.36 126.96 142.97 C 122.04 150.96 116.44 158.61 110.07 165.51 C 110.18 130.95 110.05 96.40 110.13 61.84 Z" fill="#feed01"/>
<path d="M 147.53 62.07 C 151.35 61.52 155.32 61.95 159.17 61.84 C 156.98 74.38 152.79 86.64 147.48 98.19 C 147.50 86.16 147.39 74.09 147.53 62.07 Z" fill="#feed01"/>
</svg>