<?xml version="1.0" encoding="UTF-8"?>
<svg id="uuid-7079b71e-6492-45fa-98d5-24a8f43fef2b" xmlns="http://www.w3.org/2000/svg" version="1.1" viewBox="0 0 240.5 441.9">
  <!-- Generator: Adobe Illustrator 29.7.1, SVG Export Plug-In . SVG Version: 2.1.1 Build 8)  -->
  <defs>
    <style>
      .st0 {
        fill: #f1cb2f;
      }

      .st1 {
        fill: #262425;
      }
    </style>
  </defs>
  <path class="st0" d="M119.6,1c0-.3.2-.7.3-1,.3,1.3.9,2.5,1.1,3.8h.2c0,.2,0,.5,0,.7.3.6.5,1.2.6,1.8,0,.3.2.6.3.9,0,.3.2.6.3.9.7,2.1,1.4,4.3,2.1,6.4.2.6.4,1.2.6,1.8,0,.3.2.6.3.9.1.3.2.6.3.9,0,.3.2.6.3.9.4,1.2.8,2.4,1.1,3.6,7.9,0,15.9,0,23.8,0-.5.3-1,.6-1.5,1-.7.5-1.4,1-2.1,1.5-.4.3-.8.6-1.2.9-.4.3-.8.6-1.2.9-.3.2-.6.4-.9.6-.4.3-.8.6-1.2.9-.7.5-1.4,1-2,1.5-.4.3-.8.6-1.2.9-.7.5-1.4,1-2.1,1.5-.4.3-.8.6-1.2.9-.7.5-1.4,1-2,1.5-.4.3-.8.6-1.2.9-.6.5-1.8.8-1.5,1.8.2.3.4.6.3,1h.2c0,.2,0,.5.1.7.1.3.2.6.4.9.1.3.2.6.3.9,0,.3.2.6.3.9,0,.3.2.5.3.8.2.6.4,1.2.6,1.8.4,1.3,1,2.5,1.2,3.9h.2c.1.5.3,1.1.5,1.6,0,.3.2.6.3.9,0,.3.2.6.3.9.2.6.4,1.2.6,1.8.7,2,1.2,4,2,5.9-.2-.2-.5-.5-.7-.7-.3-.2-.6-.4-.9-.6-.4-.3-.8-.6-1.2-.9-.7-.5-1.4-1-2.1-1.5-1.1-.8-2.2-1.5-3.2-2.3-1.1-.8-2.2-1.5-3.2-2.4-.4-.2-.7-.5-1.1-.7h0c-.3-.3-.6-.5-.9-.7-.8-.6-1.6-1.2-2.4-1.8-1.1-.8-2.2-1.5-3.3-2.4-.2,0-.6,0-.8,0v.2c-.3.2-.7.5-1.1.7-1.1.8-2.1,1.6-3.2,2.4-.4.3-.8.6-1.2.9-1.1.8-2.1,1.6-3.2,2.3-.4.3-.8.6-1.2.9-.7.5-1.3,1-2,1.5-1.1.8-2.1,1.6-3.2,2.3-1.2.9-2.5,1.7-3.6,2.8.1-.3.2-.7.4-1.1h.2c0-.2,0-.7,0-.9h.2c0-.3.1-.7.2-1,.2-.5.3-1.1.5-1.6h.2c.3-1.6,1-3.2,1.4-4.8.3-.9.6-1.8.9-2.7.2-.6.4-1.2.6-1.8.2-.5.3-1.1.4-1.6h.2c.2-1.5.9-2.8,1.3-4.3.3-1,.7-2,1-3-.3-.2-.5-.4-.8-.6-1.1-.8-2.2-1.5-3.2-2.3-.7-.5-1.4-1-2.1-1.5-.4-.3-.8-.6-1.2-.9-.7-.5-1.4-1-2.1-1.5-.4-.3-.8-.6-1.2-.9-1.1-.8-2.2-1.6-3.2-2.4-.7-.5-1.4-1-2.1-1.5-.4-.3-.8-.6-1.2-.9-.4-.2-.7-.5-1.1-.8h0c-.3-.3-1-.7-1.3-.8,8,0,16,0,24,0,0-.1,0-.4-.1-.5h.3c.6-2.6,1.6-5,2.3-7.5,0-.3.2-.6.3-.9.1-.3.2-.6.3-.9,0-.2,0-.6,0-.8h.2c0-.3.1-.7.2-1,1-3,2-6,3-9,0-.3.2-.6.3-.9h0ZM115.4,23.2c-.5,1.4-1.9,2.2-3.4,2.2-4.8,0-9.5,0-14.3,0,3.9,2.9,7.9,5.7,11.8,8.6,1.3.8,1.7,2.5,1.1,3.9-1.5,4.6-3,9.2-4.5,13.8,3.9-2.9,7.8-5.7,11.8-8.6,1.1-.8,2.7-1,3.9-.1,4,2.9,7.9,5.8,11.9,8.7-1.4-4.2-2.7-8.3-4.1-12.5-.3-.8-.6-1.7-.7-2.6,0-.9.4-1.9,1.2-2.4,4-2.9,8-5.8,12-8.7-4.6,0-9.2,0-13.7,0-1,0-2.1,0-2.9-.7-.7-.5-1-1.3-1.2-2-1.4-4.5-2.9-9-4.3-13.5-1.6,4.6-3,9.3-4.6,14h0Z"/>
  <path class="st0" d="M2,256.8c39.4-61.9,78.7-123.8,118.1-185.6,39.4,61.9,78.7,123.8,118.1,185.6-38.7,59.5-77.4,119.1-116.1,178.7-.6,1-1.3,2-1.9,2.9-26.4-40.7-52.9-81.4-79.3-122-12.9-19.9-25.8-39.7-38.7-59.6h0ZM120.1,82.6c-29.4,45.2-58.8,90.5-88.2,135.7,4.9,3.9,10,7.6,15.1,11.1,12.1-18.5,24.1-37.1,36.2-55.7,12.3-18.9,24.5-37.9,36.9-56.8,24.3,37.5,48.7,75,73,112.4,5.2-3.5,10.2-7.2,15.1-11.1-29.4-45.2-58.8-90.5-88.2-135.7h0ZM116.2,194.9c-.2,1.9-.2,4.2,1.4,5.6,1.6,1.3,4.4,1.1,5.5-.7,1-1.6,1-3.5.8-5.2-.4-3.3-1.6-6.6-3.8-9.1-2.3,2.6-3.5,6-3.9,9.4h0ZM108.3,186.6c-1.1,1.9-1.7,4.1-1.9,6.2-.2,2.7-.3,5.6,1.2,8,1.5,2.4,5.7,1.8,6.5-.9.5-1.7.2-3.6-.4-5.3-1.1-3.1-2.8-6.1-5.4-8ZM126.7,193.7c-.7,1.9-1.4,4-.8,6,.7,2.5,4.4,3.4,6.2,1.5,1.3-1.4,1.6-3.3,1.8-5.1.1-3.3-.4-6.7-2-9.5-2.4,1.8-4,4.4-5.1,7.2ZM96.1,195.5c.1,2.5.5,5,1.7,7.2.7,1.2,1.9,2.4,3.3,2.4,1.7,0,3.5-1,3.9-2.7.4-1.6-.2-3.2-.8-4.6-1.6-3.2-4.1-6-7.3-7.8-.7,1.8-.9,3.7-.8,5.5h0ZM137.6,194.9c-1.4,1.9-2.7,4-2.7,6.4-.1,2.9,3.9,4.7,6,2.9,1.5-1.2,2.1-3.1,2.6-4.9.6-3.1.8-6.4-.3-9.3-2.2,1.2-4.1,3-5.6,5h0ZM87.8,204.4c.8,1.8,1.8,3.6,3.6,4.6,1.9,1.1,4.5-.3,5.2-2.3.5-1.9-.5-3.9-1.7-5.4-2.2-2.7-5.1-5-8.5-6-.5,3.1.2,6.2,1.4,9ZM148.8,197.9c-2.3,1.8-4.6,4-5.4,6.9-.8,2.7,2.4,5.4,4.9,4.4,1.6-.7,2.7-2.2,3.5-3.8,1.5-3.1,2.4-6.6,1.9-10-1.8.5-3.4,1.4-4.9,2.5h0ZM77.1,202.8c0,2.9,1.3,5.6,2.7,8.1,1.1,1.8,2.5,3.5,4.5,4.3,2.6,1,5.6-1.9,4.8-4.5-.7-2.1-2.5-3.6-4.2-4.9-2.3-1.5-5-2.8-7.8-3ZM154.8,206c-1.6,1.2-3.3,2.6-3.9,4.6-.9,2.6,2.2,5.6,4.8,4.6,2.1-.8,3.5-2.6,4.7-4.4,1.4-2.4,2.6-5.1,2.6-7.9-3,.2-5.8,1.5-8.2,3.2h0ZM119.9,208.2c-10-.2-19.9,3.8-27.1,10.6-7.4,6.9-12,16.7-12.4,26.9.2.1.4.4.6.5.2-2.8.5-5.7,1.2-8.4,1.4-5.4,4-10.4,7.5-14.7.8,2,1.7,4,2.6,5.9-1.1,3.3-2.1,6.7-2.7,10.2-.2.8-.1,1.7-.4,2.5-1.5,1.9-3.1,3.6-4.6,5.4,4.2,1,8.4,1.8,12.7,2.3-2.4-2.4-4.6-5.1-6.7-7.8.5-4.1,1.5-8.1,2.9-12,4.8-1.2,9.7-1.5,14.6-1.7,1.6,2.1,3,4.4,4.5,6.5-1.7,4.6-3.2,9.4-4.8,14.1-1.5.5-3,.9-4.5,1.5,10.9,1,21.8.3,32.7-.2-.5-.4-1.2-.7-1.3-1.4-1.5-4.6-2.9-9.2-4.4-13.8,1.3-2.1,2.6-4.2,4.1-6.3,1.5,0,3,0,4.5.4,2.5.6,4.7,1.9,6.8,3.3.8.5,1.1,1.4,1.6,2.2,1.2,2.4,1.8,5,1.9,7.7,0,.6.2,1.3-.2,1.8-.9,1.8-2.1,3.4-3.2,4.9,3.2-.5,6.4-1.1,9.5-2-1.5-1.6-3.2-3-4.7-4.6-.2-1.2-.2-2.5-.5-3.7-.4-2-1.2-3.9-2.2-5.6-.3-.6-.8-1.2-.6-1.9.4-3,.8-6,1.2-9,5.7,6.6,9.3,15.1,9.6,23.9.2,0,.5-.2.7-.2-.4-9.2-4.2-18.2-10.5-24.9-7.2-7.8-17.7-12.6-28.4-12.6h0ZM69.3,211.8c.7,2.9,2.4,5.4,4.4,7.5,1.4,1.4,3.1,2.9,5.1,3.2,2.4.4,4.7-2.2,4.2-4.6-.5-1.8-2-3-3.6-3.9-3.1-1.7-6.6-2.7-10.1-2.4h0ZM161.6,213.6c-1.7.8-3.4,1.9-4.2,3.6-1.2,2.4,1.2,5.8,3.9,5.2,2.1-.4,3.8-1.8,5.2-3.3,1.9-2.1,3.6-4.6,4.2-7.4-3.2-.3-6.4.5-9.2,1.8ZM30.2,220.9c.6,8.2,1.2,16.4,2.6,24.5-7.7,2.4-15.5,4.7-23.2,7.1,5,5.3,10.4,10.2,16.2,14.5,14.6,10.8,31.6,18.1,49.2,22.3,18.3,4.4,37.3,5.8,56,4.9,15.2-.8,30.4-3.2,44.9-7.9,11.2-3.6,22-8.5,31.9-14.9,8.3-5.3,15.9-11.7,22.6-18.9-7.7-2.4-15.5-4.6-23.2-7.1,1.4-8.1,2.1-16.3,2.6-24.5-3,2.4-6.1,4.7-9.2,6.9-13.1,9.4-27.4,17.4-43,21.6-12.1,3.4-24.7,4.2-37.2,4.3-12,0-24.1-.7-35.8-3.7-9.4-2.3-18.5-6.1-27.1-10.7-9.7-5.2-18.7-11.6-27.4-18.4h0ZM63.6,222.2c1.6,3.4,4.5,6,7.7,7.8,1.6.8,3.6,1.4,5.2.4,1.6-1.1,2.5-3.5,1.4-5.2-1.1-1.6-2.9-2.4-4.7-2.9-3.1-.9-6.5-1.1-9.6-.1h0ZM162.6,224.6c-2,2-.5,5.9,2.2,6.2,1.7.2,3.3-.5,4.7-1.3,2.9-1.8,5.6-4.2,7-7.4-2.2-.7-4.6-.7-6.8-.4-2.5.4-5.3,1-7.1,2.9h0ZM12.2,248.5c5.7-1.8,11.4-3.5,17.1-5.2-.8-6-1.5-12.1-1.9-18.2-5.2,7.7-10.1,15.6-15.2,23.4h0ZM212.7,225.2c-.5,6.1-1.1,12.1-2,18.1,5.7,1.7,11.4,3.5,17.2,5.2-5.1-7.8-10.1-15.6-15.2-23.3h0ZM59.8,233.5c1.6,2,3.6,3.6,5.9,4.8,2.1,1.1,4.5,2,6.9,1.6,2.6-.5,3.8-4.3,1.9-6.2-1.5-1.5-3.8-1.8-5.8-2-3,0-6.2.2-8.8,1.8h0ZM166.1,233.2c-2.2,1.6-1.6,5.4.8,6.4,1.6.6,3.3.3,4.8-.2,3.3-1.1,6.4-3.1,8.6-5.9-1.9-1.2-4.2-1.6-6.4-1.8-2.6-.1-5.6,0-7.8,1.5h0ZM12.3,261.1c35.9,55.3,71.9,110.5,107.8,165.8,36.9-56.7,73.7-113.5,110.6-170.1-1.6,1.4-3,3-4.6,4.4-12.4,11.4-27.2,20.1-43,25.9-.5,3.6-1.6,7.3-3.9,10.2-2.4,3-6.1,4.9-9.8,5.6,1.5,3.8,2.8,7.9,2.7,12,0,3.6-1.1,7.3-3.5,10-3.1,3.5-7.5,5.5-11.9,6.6-1-5.3-3.1-10.6-6.9-14.5-3.1-3.2-7.5-5-11.9-5.6-1.8-.2-4-.3-5.4,1.2-1.6,1.9-1.9,4.6-1.9,7.1,0,7,3.9,13.5,9.4,17.7,4.5,3.4,10.1,5,15.7,5-.4,1.8-.8,3.6-1.2,5.5-1.1,3.8-2.4,7.7-5.2,10.6-2.2,2.3-5.3,3.6-8.5,3.7-2.9.2-5.6-.9-8.2-2-2.6-1.2-5.1-2.6-7.5-4,.6,2.7.9,5.4,1.2,8.2,1,11.4-.6,23.3-6.2,33.4-1.4-2.5-2.5-5.1-3.5-7.8-3.6-10.8-3.8-22.6-1.5-33.8-3.5,2-7,4.1-10.9,5.4-2.8,1-5.9.9-8.7,0-2.7-.9-4.9-2.9-6.5-5.3-2.6-4.1-3.7-9-4.6-13.7,6,0,12.2-2,16.8-5.9,5.7-4.8,9.3-12.5,8-20-.4-2.1-1.5-4.7-4-5-3.3-.4-6.6.5-9.6,1.9-3.1,1.3-5.7,3.7-7.6,6.5-2.4,3.5-3.8,7.6-4.6,11.8-3.9-1-7.7-2.6-10.7-5.3-2.9-2.5-4.6-6.3-4.8-10.1-.3-4.6,1-9,2.7-13.2-3.3-.6-6.5-2.1-8.8-4.5-3-3-4.3-7.2-4.9-11.3-17.7-6.5-34.2-16.6-47.4-30.2.7,1.5,1.8,2.8,2.7,4.3h0Z"/>
  <path class="st0" d="M107.4,210.9c3.8-1,7.7-1.9,11.7-2,5.7,0,11.4,1.2,16.5,3.5-2.8,1.1-5.5,2.1-8.3,3.1-.8.4-1.8.2-2.7.2-2.7,0-5.3-.1-7.9-.2-.6,0-1.1-.2-1.6-.5-2.6-1.4-5.2-2.7-7.7-4.1h0Z"/>
  <path class="st0" d="M109.2,227.1c1.3-4.2,4.1-7.6,7.4-10.4,2.9.1,5.8.1,8.7.3.8.4,1.4,1.1,2,1.7,2.6,2.5,4.8,5.4,5.9,8.9-1.4,2-2.7,4.2-4.1,6.3-5.1,0-10.2,0-15.3,0-1.6-2.3-3.1-4.6-4.7-6.9h0Z"/>
  <path class="st0" d="M43.2,243.5c0-.1.3-.4.4-.6,3.5,1.9,7,3.6,10.5,5.4-.5.9-1.3,0-2,0-1-.1-1.6.8-2,1.5-1.3,2.4-2.5,4.9-3.8,7.4,4-.9,8-1.7,11.9-2.6.7-.2,1.7-.5,1.9-1.4,0-1.2-1.2-1.6-2-2.1.1-.1.3-.3.4-.4,2.8,1.3,5.4,2.8,8.2,4.1,0,.1-.2.4-.2.6-1-.4-2.1-.6-3.2-.3-3.8.7-7.6,1.5-11.4,2.4,1,4.6,1.9,9.2,2.9,13.8.2.9.4,1.9.9,2.8.6.6,1.4,1.1,2,1.7-.9,2.1-1.8,4.1-2.8,6.2-.5-.2-.9-.4-1.3-.6.7-2.2.2-4.6-.9-6.6-.2-.5-.7-.7-1.2-1-1.8-1-3.6-2.1-5.4-3,.2-.8,1-.3,1.5-.2.4.1.9-.2,1-.6.1-1-.1-2.1-.3-3.1-.6-2.8-1.1-5.6-1.7-8.3-.4.1-.8.2-1.1.3-1.2,2.4-2.5,4.7-3.6,7.2-.7,1.3.8,2.3,1.7,2.9v.3c0,0-.3.1-.3.1-3.5-1.8-7.1-3.6-10.6-5.4.7-.9,1.5.3,2.4.3,1.3.2,1.9-1.1,2.4-2,2.6-5.1,5.3-10.2,7.8-15.4.8-1.5-.9-2.7-2.1-3.2h0Z"/>
  <path class="st0" d="M176.7,253.4c6.1-3.4,12.3-6.8,18.4-10.3,1,1.6,1.8,3.3,2.8,4.9.2.3.6.9,0,1-1.2-1-2.3-2.3-3.9-2.6-1.8-.4-3.4.9-4.9,1.6,3.2,5.6,6.2,11.3,9.4,16.9.5,1,1.8,1.4,2.8.9.5-.1,1.1-.9,1.5-.3-.2.3-.6.5-.9.7-3.3,1.8-6.6,3.7-9.9,5.5,0-.1-.2-.4-.2-.5.8-.6,2-1,2.1-2.2,0-.9-.5-1.6-.9-2.4-2.9-5.3-5.9-10.6-8.8-15.9-1.6.9-3.6,1.7-4.1,3.6-.5,1.4,0,2.9.3,4.4-.1,0-.4.1-.5.2-1.1-1.8-2.1-3.7-3.1-5.6h0Z"/>
  <path class="st0" d="M106.5,256.9c.6-.4,1.5-.3,2,.2.7.6.3,1.6.4,2.3,0,.6.6,1,1.1,1.1.8.2,1.8.4,2.6.1,1-.6.5-2.1,1.3-2.8.8-.7,2.2-.4,2.6.6.4,1.2,0,2.7-1.3,3.1-1.7.5-3.5.4-5.3.3-1.4-.2-3.1-.3-4-1.6-.6-1-.5-2.6.6-3.3h0Z"/>
  <path class="st0" d="M163.4,261.2c.3-1.5.4-3,.8-4.5,4.9,5.8,9.5,11.9,14.4,17.7.9,1.1,2.1,2.2,3.6,1.9,0,.1.1.4.2.5-3.5.9-7,1.9-10.4,2.8-.4.2-.7,0-.9-.4,1-.3,3-.7,2.4-2.2-.9-1.4-2-2.7-3-4-2.6.8-5.3,1.4-8,2.2-.2,1.7-.9,3.5,0,5.1.8,1.1,2.2.5,3.4.4,0,.1,0,.4-.1.6-2.4.7-4.9,1.4-7.3,2-.6-.2-.1-.7.2-.9,1.4-.8,1.7-2.4,2-3.9,1-5.8,1.9-11.6,2.8-17.5h0ZM164.1,265.2c-.5,2.9-.9,5.9-1.4,8.8,2.2-.6,4.4-1.2,6.6-1.8.5,0,0-.5,0-.7-1.7-2.1-3.3-4.3-5.1-6.3Z"/>
  <path class="st0" d="M68.6,275.6c4.5-5.7,9-11.5,13.5-17.1.2.4.3.8.3,1.3,1.1,6.6,2.3,13.3,3.4,19.9.2,1.2.4,2.4.9,3.4.3.7,1,1,1.6,1.4l-.2.5c-3.6-1-7.3-1.8-10.9-2.8,0-.2,0-.5,0-.6.9.1,1.9.6,2.8.1.6-.5.4-1.4.3-2-.2-1.2-.3-2.5-.7-3.7-2.6-.8-5.3-1.3-8-2-1,1.3-2.4,2.6-2.6,4.3.2,1.3,1.7,1.6,2.7,2,0,.1-.2.5-.3.6-2.6-.8-5.2-1.2-7.7-2.1.5-.7,1.5-.4,2.2-.8,1.1-.5,1.8-1.5,2.6-2.4h0ZM72.6,272.9c2.3.5,4.6,1.1,6.9,1.7-.5-2.9-1-5.8-1.4-8.7-1.9,2.3-3.7,4.7-5.5,7Z"/>
  <path class="st0" d="M130.2,263.1c3.5-.3,7-.6,10.6-.9,2.1-.1,4.4-.1,6.4.8,2,1,3.5,3.2,3.3,5.5,0,2.4-1.7,4.5-3.9,5.5-2.1.9-4.3,1-6.5,1.2.2,2.5.4,4.9.6,7.4.1.7.1,1.5.8,2,.8.6,1.8.4,2.6.4,0,.2,0,.4,0,.6-4,.3-8.1.8-12.1,1,.3-1,1.7-.5,2.4-1.2.8-.5.8-1.6.7-2.5-.5-5.5-1-11-1.4-16.5-.2-.8,0-1.9-.9-2.4-.8-.5-1.8-.3-2.6-.3v-.6h0ZM139,263.7c.3,3.4.6,6.8.9,10.2,1.3,0,2.7-.2,3.7-1.2,1.1-1.1,1.3-2.8,1.2-4.2-.1-1.5-.5-3.2-1.8-4.2-1.1-.8-2.6-.7-3.9-.6h0Z"/>
  <path class="st0" d="M97.7,262.5c4.1.1,8.2.3,12.3.4,0,.2,0,.5,0,.6-1.3-.2-3.3,0-3.4,1.7-.2,4.7-.3,9.5-.5,14.2,2.8-3.7,5.3-7.6,8-11.4.3-.5.8-1,.8-1.6,0-.8.1-1.8-.7-2.3-.7-.6-1.7-.5-2.5-.6,0-.1,0-.5,0-.6,4,.1,8.1.3,12.1.4v.5c-.9.1-2.3-.1-2.9.9-.6,1.2-.3,2.7-.5,4-.1,5.2-.4,10.4-.5,15.5,0,1.2,1.2,1.9,2.2,1.9.4.1,1.3-.2,1,.7-4.2-.1-8.3-.3-12.4-.4v-.6c1-.1,2.1,0,2.8-.5.8-.6.7-1.8.8-2.6.1-4.4.3-8.7.4-13-2.8,3.9-5.5,7.9-8.3,11.8-.7.8-.6,2.1-.3,3.1.6,1.2,2.1,1.2,3.2,1.3,0,.1-.2.4-.3.5-4-.1-8-.2-12-.4,0-.1-.2-.4-.2-.6.9,0,2,.1,2.8-.5.6-.5.7-1.3.7-2,.2-5.6.4-11.1.6-16.7,0-.8.2-1.7-.4-2.3-.7-.8-1.8-.7-2.8-.8v-.6h0Z"/>
  <path class="st1" d="M115.4,23.2c1.6-4.7,2.9-9.4,4.6-14,1.4,4.5,2.9,9,4.3,13.5.2.8.6,1.6,1.2,2,.8.6,1.9.7,2.9.7,4.6,0,9.2,0,13.7,0-4,2.9-8,5.8-12,8.7-.8.5-1.1,1.5-1.2,2.4,0,.9.4,1.7.7,2.6,1.4,4.2,2.7,8.3,4.1,12.5-4-2.9-7.9-5.8-11.9-8.7-1.1-.8-2.8-.7-3.9.1-3.9,2.9-7.8,5.7-11.8,8.6,1.5-4.6,3-9.2,4.5-13.8.6-1.3.1-3.1-1.1-3.9-3.9-2.9-7.9-5.7-11.8-8.6,4.8,0,9.5,0,14.3,0,1.4,0,2.9-.8,3.4-2.2h0Z"/>
  <path class="st1" d="M1.1,254.7c39.7-62.4,79.3-124.7,119-187.1,4.3,7,8.8,13.9,13.2,20.9,19,29.9,38.1,59.9,57.1,89.8,16.6,26.2,33.3,52.3,49.9,78.5l.2-.3h0c-2.9,4.2-5.5,8.6-8.3,12.8-36.3,55.8-72.6,111.6-108.8,167.5-1.1,1.7-2.3,3.3-3.2,5.1h-.2c-.6-1.1-1.2-2.1-1.9-3.2-38.9-59.8-77.9-119.7-116.7-179.6-.5-.8-1.1-1.5-1.4-2.4.2-.8.7-1.4,1.1-2.1h0ZM2,256.8c12.9,19.8,25.8,39.7,38.7,59.6,26.4,40.7,52.9,81.4,79.3,122,.7-1,1.3-2,1.9-2.9,38.7-59.5,77.4-119.1,116.1-178.7-39.4-61.9-78.7-123.8-118.1-185.6C80.7,133,41.4,194.9,2,256.8Z"/>
  <path class="st1" d="M120.1,82.6c29.4,45.2,58.8,90.5,88.2,135.7-4.9,3.9-10,7.6-15.1,11.1-24.4-37.5-48.7-74.9-73-112.4-12.4,18.9-24.6,37.8-36.9,56.8-12.1,18.6-24.1,37.1-36.2,55.7-5.2-3.5-10.2-7.2-15.1-11.1,29.4-45.2,58.8-90.5,88.2-135.7h0Z"/>
  <path class="st1" d="M116.2,194.9c.4-3.4,1.6-6.8,3.9-9.4,2.2,2.5,3.3,5.8,3.8,9.1.2,1.8.2,3.7-.8,5.2-1.2,1.8-3.9,2-5.5.7-1.5-1.4-1.6-3.7-1.4-5.6h0Z"/>
  <path class="st1" d="M108.3,186.6c2.7,2,4.3,5,5.4,8,.6,1.7.9,3.6.4,5.3-.8,2.7-5,3.3-6.5.9-1.5-2.3-1.5-5.3-1.2-8,.3-2.2.8-4.3,1.9-6.2Z"/>
  <path class="st1" d="M126.7,193.7c1.2-2.7,2.8-5.3,5.1-7.2,1.7,2.9,2.2,6.2,2,9.5-.1,1.8-.5,3.8-1.8,5.1-1.8,1.9-5.4,1-6.2-1.5-.6-2,0-4.1.8-6Z"/>
  <path class="st1" d="M96.1,195.5c0-1.9.1-3.8.8-5.5,3.2,1.7,5.7,4.6,7.3,7.8.7,1.4,1.2,3,.8,4.6-.4,1.7-2.2,2.7-3.9,2.7-1.5,0-2.7-1.1-3.3-2.4-1.2-2.2-1.6-4.7-1.7-7.2h0Z"/>
  <path class="st1" d="M137.6,194.9c1.5-2,3.4-3.8,5.6-5,1.2,3,1,6.3.3,9.3-.4,1.8-1.1,3.7-2.6,4.9-2.1,1.9-6.1,0-6-2.9,0-2.4,1.3-4.6,2.7-6.4h0Z"/>
  <path class="st1" d="M87.8,204.4c-1.2-2.8-1.8-6-1.4-9,3.4,1,6.3,3.3,8.5,6,1.2,1.5,2.2,3.4,1.7,5.4-.7,2-3.3,3.3-5.2,2.3-1.8-1-2.8-2.8-3.6-4.6Z"/>
  <path class="st1" d="M148.8,197.9c1.5-1.1,3.1-2,4.9-2.5.5,3.4-.4,6.9-1.9,10-.8,1.5-1.9,3.1-3.5,3.8-2.5,1-5.7-1.7-4.9-4.4.8-2.9,3.1-5.1,5.4-6.9h0Z"/>
  <path class="st1" d="M77.1,202.8c2.8.2,5.5,1.4,7.8,3,1.8,1.2,3.6,2.7,4.2,4.9.8,2.6-2.2,5.5-4.8,4.5-2-.8-3.4-2.5-4.5-4.3-1.5-2.4-2.7-5.2-2.7-8.1Z"/>
  <path class="st1" d="M154.8,206c2.4-1.6,5.2-3,8.2-3.2,0,2.8-1.2,5.5-2.6,7.9-1.2,1.8-2.6,3.6-4.7,4.4-2.6,1-5.7-1.9-4.8-4.6.6-2,2.3-3.4,3.9-4.6h0Z"/>
  <path class="st1" d="M119.9,208.2c10.7,0,21.2,4.7,28.4,12.6,6.3,6.7,10.1,15.7,10.5,24.9-.2,0-.5.2-.7.2-.3-8.8-3.8-17.3-9.6-23.9-.4,3-.8,6-1.2,9-.2.7.3,1.3.6,1.9.9,1.8,1.8,3.7,2.2,5.6.3,1.2.3,2.5.5,3.7,1.5,1.6,3.2,3,4.7,4.6-3.1.9-6.3,1.5-9.5,2,1.1-1.6,2.3-3.2,3.2-4.9.3-.6.1-1.2.2-1.8-.1-2.6-.7-5.3-1.9-7.7-.4-.8-.8-1.7-1.6-2.2-2.1-1.4-4.3-2.8-6.8-3.3-1.5-.4-3-.4-4.5-.4-1.4,2-2.8,4.2-4.1,6.3,1.5,4.6,2.9,9.2,4.4,13.8.2.7.9,1,1.3,1.4-10.9.5-21.8,1.2-32.7.2,1.4-.6,3-1,4.5-1.5,1.7-4.7,3.1-9.4,4.8-14.1-1.5-2.2-2.9-4.4-4.5-6.5-4.9.2-9.9.5-14.6,1.7-1.4,3.9-2.4,7.9-2.9,12,2,2.7,4.2,5.4,6.7,7.8-4.3-.5-8.5-1.3-12.7-2.3,1.5-1.8,3.1-3.6,4.6-5.4.3-.8.2-1.7.4-2.5.6-3.5,1.6-6.9,2.7-10.2-.9-2-1.7-3.9-2.6-5.9-3.5,4.3-6.1,9.3-7.5,14.7-.7,2.8-1.1,5.6-1.2,8.4-.2-.1-.4-.4-.6-.5.4-10.1,5-19.9,12.4-26.9,7.2-6.8,17.2-10.8,27.1-10.6h0ZM107.4,210.9c2.6,1.4,5.2,2.7,7.7,4.1.5.3,1,.5,1.6.5,2.7,0,5.3.1,7.9.2.9,0,1.8.1,2.7-.2,2.8-1.1,5.5-2,8.3-3.1-5.2-2.3-10.9-3.6-16.5-3.5-3.9.1-7.8,1-11.7,2h0ZM109.2,227.1c1.7,2.2,3.2,4.6,4.7,6.9,5.1,0,10.2,0,15.3,0,1.4-2.1,2.6-4.2,4.1-6.3-1.1-3.5-3.3-6.5-5.9-8.9-.7-.6-1.2-1.3-2-1.7-2.9-.1-5.8-.2-8.7-.3-3.3,2.7-6.2,6.2-7.4,10.4h0Z"/>
  <path class="st1" d="M69.3,211.8c3.5-.4,7.1.7,10.1,2.4,1.5.9,3.1,2.1,3.6,3.9.5,2.3-1.7,5-4.2,4.6-2.1-.4-3.7-1.8-5.1-3.2-2-2.1-3.7-4.7-4.4-7.5h0Z"/>
  <path class="st1" d="M161.6,213.6c2.9-1.3,6-2.1,9.2-1.8-.7,2.8-2.3,5.3-4.2,7.4-1.4,1.5-3.1,2.9-5.2,3.3-2.7.6-5.2-2.8-3.9-5.2.9-1.7,2.6-2.8,4.2-3.6Z"/>
  <path class="st1" d="M30.2,220.9c8.7,6.8,17.7,13.2,27.4,18.4,8.6,4.6,17.6,8.4,27.1,10.7,11.7,2.9,23.8,3.7,35.8,3.7,12.5,0,25.1-.9,37.2-4.3,15.6-4.2,29.9-12.2,43-21.6,3.1-2.2,6.2-4.6,9.2-6.9-.6,8.2-1.3,16.4-2.6,24.5,7.7,2.4,15.4,4.7,23.2,7.1-6.7,7.2-14.3,13.6-22.6,18.9-9.9,6.4-20.7,11.3-31.9,14.9-14.5,4.6-29.7,7.1-44.9,7.9-18.8,1-37.7-.5-56-4.9-17.6-4.2-34.6-11.5-49.2-22.3-5.9-4.3-11.2-9.2-16.2-14.4,7.7-2.4,15.5-4.6,23.2-7.1-1.4-8.1-2-16.3-2.6-24.5h0ZM43.2,243.5c1.2.5,2.9,1.6,2.1,3.2-2.5,5.2-5.2,10.3-7.8,15.4-.5.9-1.1,2.3-2.4,2-.8,0-1.7-1.2-2.4-.3,3.5,1.9,7.1,3.6,10.6,5.4h.3c0-.1,0-.5,0-.5-1-.6-2.4-1.6-1.7-2.9,1.1-2.5,2.4-4.8,3.6-7.2.4-.1.7-.2,1.1-.3.6,2.8,1.1,5.5,1.7,8.3.2,1,.4,2.1.3,3.1,0,.4-.6.8-1,.6-.5,0-1.3-.5-1.5.2,1.9.9,3.6,2,5.4,3,.4.3.9.5,1.2,1,1.1,2,1.7,4.4.9,6.6.5.2.9.4,1.3.6.9-2.1,1.8-4.1,2.8-6.2-.7-.5-1.4-1-2-1.7-.5-.8-.7-1.8-.9-2.8-1-4.6-1.9-9.2-2.9-13.8,3.8-.8,7.6-1.6,11.4-2.4,1.1-.3,2.2,0,3.2.3,0-.1.2-.4.2-.6-2.7-1.4-5.4-2.8-8.2-4.1,0,.1-.3.3-.4.4.8.6,2.1,1,2,2.1-.2.9-1.2,1.1-1.9,1.4-4,.9-8,1.7-11.9,2.6,1.3-2.4,2.5-4.9,3.8-7.4.4-.7,1-1.6,2-1.5.7,0,1.5.9,2,0-3.5-1.8-7-3.6-10.5-5.4,0,.1-.3.4-.4.6h0ZM176.7,253.4c1,1.9,2,3.7,3.1,5.6.1,0,.4-.1.5-.2-.2-1.4-.8-2.9-.3-4.4.6-1.9,2.6-2.7,4.1-3.6,2.9,5.3,5.9,10.6,8.8,15.9.4.8.9,1.5.9,2.4-.1,1.1-1.3,1.6-2.1,2.2,0,.1.2.4.2.5,3.3-1.8,6.6-3.7,9.9-5.5.3-.2.7-.3.9-.7-.4-.6-1,.1-1.5.3-1,.5-2.3.2-2.8-.9-3.2-5.6-6.3-11.3-9.4-16.9,1.6-.7,3.1-2.1,4.9-1.6,1.6.3,2.7,1.6,3.9,2.6.6-.2.2-.7,0-1-.9-1.6-1.8-3.3-2.8-4.9-6.1,3.5-12.3,6.9-18.4,10.3h0ZM106.5,256.9c-1.1.7-1.1,2.3-.6,3.3.9,1.3,2.6,1.5,4,1.6,1.8.1,3.6.2,5.3-.3,1.3-.4,1.7-1.9,1.3-3.1-.4-1-1.8-1.2-2.6-.6-.8.7-.3,2.2-1.3,2.8-.8.2-1.8,0-2.6-.1-.5-.1-1.1-.5-1.1-1.1,0-.8.3-1.7-.4-2.3-.5-.5-1.4-.6-2-.2h0ZM163.4,261.2c-.9,5.8-1.9,11.6-2.8,17.5-.3,1.4-.6,3.1-2,3.9-.3.1-.9.7-.2.9,2.4-.6,4.9-1.3,7.3-2,0-.1,0-.4.1-.6-1.1,0-2.6.7-3.4-.4-.8-1.6,0-3.4,0-5.1,2.7-.7,5.3-1.4,8-2.2,1,1.3,2.2,2.6,3,4,.6,1.5-1.4,1.9-2.4,2.2.2.4.4.6.9.4,3.5-1,7-1.9,10.4-2.8,0-.1-.1-.4-.2-.5-1.6.3-2.8-.8-3.6-1.9-4.8-5.9-9.5-11.9-14.4-17.7-.4,1.5-.5,3-.8,4.5h0ZM68.6,275.6c-.8.9-1.5,1.9-2.6,2.4-.7.4-1.7,0-2.2.8,2.5.9,5.1,1.3,7.7,2.1,0-.1.2-.5.3-.6-1-.4-2.5-.7-2.7-2,.2-1.7,1.6-3,2.6-4.3,2.6.8,5.3,1.3,8,2,.3,1.2.4,2.5.7,3.7,0,.7.3,1.5-.3,2-.8.5-1.9,0-2.8-.1,0,.2,0,.5,0,.6,3.6,1,7.3,1.8,10.9,2.8l.2-.5c-.6-.4-1.3-.7-1.6-1.4-.5-1.1-.7-2.3-.9-3.4-1.1-6.6-2.3-13.3-3.4-19.9,0-.4-.2-.9-.3-1.3-4.6,5.7-9,11.4-13.5,17.1h0ZM130.2,263.1v.6c.9,0,1.8-.2,2.6.3.8.5.8,1.6.9,2.4.5,5.5,1,11,1.4,16.5,0,.9.1,2-.7,2.5-.7.7-2.1.1-2.4,1.2,4-.2,8.1-.7,12.1-1,0-.2,0-.4,0-.6-.9,0-1.9.2-2.6-.4-.7-.4-.7-1.3-.8-2-.2-2.5-.4-4.9-.6-7.4,2.2-.2,4.5-.4,6.5-1.2,2.1-.9,3.9-3,3.9-5.5.2-2.3-1.2-4.5-3.3-5.5-2-1-4.2-1-6.4-.8-3.5.3-7,.6-10.6.9h0ZM97.7,262.5v.6c1,0,2.1,0,2.8.8.6.6.4,1.5.4,2.3-.2,5.6-.3,11.1-.6,16.7,0,.7-.1,1.5-.7,2-.8.6-1.9.5-2.8.5,0,.1.2.4.2.6,4,.2,8,.3,12,.4,0-.1.2-.4.3-.5-1.1-.1-2.6,0-3.2-1.3-.2-1-.4-2.2.3-3.1,2.8-3.9,5.5-7.9,8.3-11.8-.2,4.3-.3,8.7-.4,13,0,.9,0,2-.8,2.6-.7.6-1.8.4-2.6.5v.6c4,.1,8.2.3,12.3.4.2-.9-.6-.6-1-.7-1.1,0-2.3-.7-2.2-1.9,0-5.2.3-10.4.5-15.5.2-1.3-.1-2.8.5-4,.7-1,2-.8,3.1-.9v-.5c-4.2-.2-8.2-.3-12.2-.4,0,.1,0,.5,0,.6.8.1,1.8,0,2.5.6.8.5.6,1.5.7,2.3,0,.6-.4,1.1-.8,1.6-2.7,3.8-5.2,7.7-8,11.4.2-4.7.3-9.5.5-14.2,0-1.7,2.1-1.9,3.4-1.7,0-.2,0-.5,0-.6-4.1-.1-8.2-.3-12.3-.4h0Z"/>
  <path class="st1" d="M63.6,222.2c3.1-1,6.5-.7,9.6.1,1.8.6,3.7,1.3,4.7,2.9,1.2,1.7.3,4.1-1.4,5.2-1.6,1-3.7.4-5.2-.4-3.2-1.8-6.2-4.4-7.7-7.8h0Z"/>
  <path class="st1" d="M162.6,224.6c1.9-1.9,4.6-2.5,7.1-2.9,2.3-.3,4.6-.3,6.8.4-1.4,3.1-4.1,5.6-7,7.4-1.4.8-3.1,1.5-4.7,1.3-2.7-.3-4.2-4.2-2.2-6.2h0Z"/>
  <path class="st1" d="M12.2,248.5c5.1-7.8,10.1-15.6,15.2-23.4.4,6.1,1.1,12.1,1.9,18.2-5.7,1.7-11.4,3.4-17.1,5.2Z"/>
  <path class="st1" d="M212.7,225.2c5.1,7.8,10.1,15.6,15.2,23.3-5.7-1.7-11.4-3.5-17.2-5.2.9-6,1.5-12.1,2-18.1h0Z"/>
  <path class="st1" d="M59.8,233.5c2.6-1.6,5.8-1.9,8.8-1.8,2,.1,4.3.5,5.8,2,1.9,1.9.8,5.7-1.9,6.2-2.4.4-4.8-.5-6.9-1.6-2.3-1.2-4.3-2.8-5.9-4.8h0Z"/>
  <path class="st1" d="M166.1,233.2c2.2-1.6,5.1-1.7,7.8-1.5,2.2.2,4.5.6,6.4,1.8-2.1,2.8-5.2,4.8-8.6,5.9-1.5.5-3.3.8-4.8.2-2.4-1-3-4.8-.8-6.4h0Z"/>
  <path class="st1" d="M12.3,261.1c-.9-1.5-1.9-2.8-2.7-4.3,13.2,13.6,29.7,23.7,47.4,30.2.6,4.1,1.9,8.3,4.9,11.3,2.4,2.4,5.6,3.9,8.8,4.5-1.7,4.2-3,8.6-2.7,13.2.2,3.8,1.9,7.6,4.8,10.1,3,2.7,6.8,4.3,10.7,5.3.8-4.2,2.2-8.2,4.6-11.8,1.9-2.8,4.4-5.2,7.6-6.5,3-1.3,6.3-2.3,9.6-1.9,2.4.3,3.6,2.9,4,5,1.3,7.5-2.3,15.2-8,20-4.6,4-10.7,5.9-16.8,5.9,1,4.7,2,9.6,4.6,13.7,1.5,2.4,3.8,4.4,6.5,5.3,2.8,1,5.9,1,8.7,0,3.8-1.3,7.4-3.3,10.9-5.4-2.2,11.1-2.1,22.9,1.5,33.8.9,2.7,2,5.3,3.5,7.8,5.6-10.1,7.2-22,6.2-33.4-.2-2.7-.6-5.5-1.2-8.2,2.4,1.5,4.9,2.8,7.5,4,2.6,1.1,5.3,2.2,8.2,2,3.2,0,6.3-1.4,8.5-3.7,2.8-2.9,4.2-6.8,5.2-10.6.5-1.8.9-3.6,1.2-5.5-5.6,0-11.2-1.6-15.7-5-5.5-4.1-9.3-10.7-9.4-17.7,0-2.5.3-5.1,1.9-7.1,1.3-1.5,3.5-1.4,5.4-1.2,4.4.6,8.8,2.4,11.9,5.6,3.8,4,5.9,9.2,6.9,14.5,4.4-1.1,8.9-3.1,11.9-6.6,2.4-2.7,3.6-6.4,3.5-10,0-4.2-1.2-8.2-2.7-12,3.8-.7,7.4-2.5,9.8-5.6,2.3-2.9,3.4-6.6,3.9-10.2,15.8-5.8,30.6-14.5,43-25.9,1.6-1.4,3-3,4.6-4.4-36.9,56.7-73.7,113.5-110.6,170.1-35.9-55.3-71.8-110.5-107.8-165.8h0Z"/>
  <path class="st1" d="M139,263.7c1.3-.1,2.8-.2,3.9.6,1.3.9,1.7,2.6,1.8,4.2.1,1.5,0,3.1-1.2,4.2-1,1-2.4,1.1-3.7,1.2-.3-3.4-.5-6.8-.9-10.2h0Z"/>
  <path class="st1" d="M164.1,265.2c1.7,2.1,3.3,4.2,5.1,6.3.1.2.6.6,0,.7-2.2.6-4.4,1.2-6.6,1.8.5-2.9,1-5.9,1.4-8.8Z"/>
  <path class="st1" d="M72.6,272.9c1.8-2.4,3.6-4.7,5.5-7,.4,2.9.9,5.8,1.4,8.7-2.3-.6-4.6-1.2-6.9-1.7Z"/>
</svg>