<?xml version="1.0" encoding="UTF-8" standalone="no"?>
<!DOCTYPE svg PUBLIC "-//W3C//DTD SVG 1.1//EN" "http://www.w3.org/Graphics/SVG/1.1/DTD/svg11.dtd">
<svg xmlns="http://www.w3.org/2000/svg" version="1.1" viewBox="0 0 200 200" width="200.0pt" height="200.0pt">
<path d="M 0.00 0.00 L 200.00 0.00 L 200.00 200.00 L 0.00 200.00 L 0.00 0.00 Z" opacity="0" />
<path d="M 145.97 5.22 C 149.12 5.89 152.98 6.47 155.59 8.44 C 157.20 9.51 156.86 11.33 157.25 13.04 C 160.74 12.71 164.33 12.01 166.11 15.82 C 169.25 22.69 172.35 29.62 175.33 36.56 C 176.80 40.27 173.73 42.32 171.09 44.16 C 172.36 47.02 174.00 49.93 174.62 53.00 C 174.37 55.73 172.19 57.00 169.85 57.80 C 163.62 59.63 157.00 58.50 150.82 56.99 C 151.01 55.53 151.20 54.07 151.40 52.61 C 147.45 52.73 142.80 53.42 140.10 49.82 C 139.30 47.45 140.26 44.43 140.47 41.98 C 136.23 42.98 132.23 43.80 128.08 41.91 C 126.16 41.04 124.54 39.34 124.99 37.08 C 125.85 32.89 127.23 28.80 128.36 24.68 C 110.80 22.79 93.14 22.81 75.58 24.66 C 76.57 28.83 78.04 32.90 78.86 37.10 C 79.27 39.25 77.74 41.01 75.90 41.86 C 71.72 43.81 67.68 43.00 63.40 41.98 C 63.44 44.56 65.18 48.97 62.85 50.84 C 60.08 53.29 55.81 52.71 52.42 52.60 C 52.62 54.07 52.82 55.54 53.01 57.00 C 46.83 58.49 40.37 59.61 34.12 57.84 C 31.69 57.09 29.58 55.67 29.16 52.99 C 29.87 49.93 31.52 47.06 32.75 44.18 C 31.26 42.99 28.95 41.74 28.43 39.80 C 27.60 37.57 29.24 35.00 30.05 32.95 C 32.87 27.05 35.19 20.89 38.17 15.09 C 39.88 12.06 43.84 12.71 46.70 13.10 C 46.79 10.46 46.96 8.83 49.61 7.58 C 56.39 4.62 64.72 4.45 72.00 3.32 C 96.57 0.91 121.57 1.30 145.97 5.22 Z" fill="#000000"/>
<path d="M 144.98 6.65 C 148.85 7.24 152.54 8.12 155.68 10.58 C 154.52 16.35 153.42 22.13 152.41 27.92 C 149.39 26.52 146.31 25.47 143.01 24.98 C 118.74 21.12 93.90 20.75 69.51 23.75 C 63.14 24.66 57.24 24.98 51.41 28.00 C 50.53 22.14 49.24 16.37 48.25 10.53 C 53.44 6.51 60.72 6.59 66.99 5.50 C 92.83 2.35 119.24 2.65 144.98 6.65 Z" fill="#ffffff"/>
<path d="M 90.91 8.86 C 97.43 8.92 104.34 8.03 110.75 9.35 C 112.28 9.13 113.82 8.95 115.35 8.77 C 115.18 9.88 115.01 10.99 114.85 12.10 C 115.60 11.72 116.35 11.34 117.10 10.96 L 116.07 9.06 C 117.34 9.03 118.62 9.01 119.90 8.99 C 118.35 10.83 116.90 12.73 115.63 14.78 C 116.35 15.50 117.08 16.22 117.81 16.94 C 116.15 16.85 114.48 16.77 112.82 16.70 C 113.42 15.82 114.03 14.95 114.63 14.07 C 113.72 12.52 112.80 10.99 111.87 9.46 C 111.08 10.54 110.30 11.61 109.49 12.67 C 109.93 14.51 110.98 15.18 112.65 14.69 C 111.54 15.49 111.02 17.12 109.47 16.69 C 108.35 14.87 108.11 13.17 105.87 12.32 C 106.28 13.75 106.73 15.16 107.21 16.55 L 103.25 16.46 C 103.86 14.94 105.51 10.69 103.35 9.84 L 102.40 11.81 C 101.60 10.97 100.82 10.11 100.03 9.26 C 99.99 11.06 99.96 12.85 99.93 14.65 C 100.44 15.23 100.95 15.81 101.46 16.39 C 100.01 16.45 98.57 16.51 97.12 16.58 C 98.08 14.27 98.13 11.91 98.20 9.44 C 97.38 10.13 96.59 10.90 95.72 11.51 L 94.32 10.00 C 93.81 12.41 93.79 14.83 93.60 17.28 C 91.00 15.61 89.70 13.08 87.85 10.69 C 88.03 12.92 88.64 14.94 89.67 16.75 C 85.60 16.62 81.63 17.20 77.58 17.48 C 78.06 16.85 78.54 16.22 79.02 15.59 C 78.57 13.52 79.38 11.43 77.08 10.43 C 75.13 12.06 74.95 15.40 74.26 17.73 C 73.63 17.80 73.01 17.87 72.38 17.94 C 71.49 15.94 70.62 13.94 69.79 11.92 C 69.37 12.11 68.95 12.30 68.53 12.48 C 69.22 15.11 69.78 16.61 67.39 18.32 C 64.71 20.29 62.81 17.70 60.13 17.95 C 59.24 19.45 58.32 20.57 56.44 20.40 C 53.39 20.20 51.68 16.77 53.16 14.19 C 54.45 11.94 56.96 12.39 59.17 11.90 C 59.66 13.16 60.16 14.41 60.64 15.68 C 60.81 13.69 61.45 12.29 62.55 11.48 C 64.72 10.15 66.47 11.32 68.71 11.82 C 68.64 11.33 68.56 10.83 68.49 10.33 C 72.58 10.74 76.77 9.32 80.75 10.19 C 80.73 12.20 80.75 14.22 80.77 16.23 C 81.66 16.17 82.55 16.11 83.43 16.05 C 83.96 15.07 84.49 14.09 85.03 13.12 L 85.62 16.45 C 88.22 14.43 86.94 11.48 86.01 8.89 C 87.06 8.95 88.10 9.00 89.15 9.04 C 90.31 10.83 91.48 12.62 92.72 14.36 C 92.61 13.12 92.46 11.88 92.29 10.65 C 91.92 10.15 91.54 9.66 91.15 9.17 L 90.91 8.86 Z" fill="#000000"/>
<path d="M 80.17 9.05 C 81.80 9.13 83.44 9.22 85.07 9.30 C 85.07 10.41 85.07 11.52 85.06 12.62 C 84.08 11.50 83.09 10.37 82.10 9.24 C 82.57 11.37 82.92 13.50 83.16 15.65 C 81.40 13.52 81.04 13.71 81.97 10.89 C 81.37 10.28 80.77 9.66 80.17 9.05 Z" fill="#000000"/>
<path d="M 130.03 10.17 C 129.89 11.24 129.76 12.31 129.62 13.38 C 128.63 12.29 127.65 11.18 126.66 10.09 C 123.91 12.52 123.42 14.63 126.50 17.09 C 127.62 16.10 128.72 15.10 129.87 14.15 C 129.07 16.18 128.71 18.02 126.01 17.75 C 122.37 17.34 121.11 13.11 123.58 10.58 C 125.17 8.79 128.01 9.98 130.03 10.17 Z" fill="#000000"/>
<path d="M 106.26 10.04 C 107.45 8.94 109.77 9.99 108.69 11.66 C 107.47 12.90 105.31 11.69 106.26 10.04 Z" fill="#ffffff"/>
<path d="M 131.29 9.99 C 136.81 10.83 142.35 11.43 147.84 12.51 L 146.85 13.75 C 147.67 15.92 148.17 18.17 148.75 20.41 C 147.19 20.24 145.63 20.09 144.07 19.96 C 144.72 19.31 145.34 18.63 145.92 17.93 C 146.03 15.93 144.47 13.81 143.77 11.99 C 143.25 13.00 142.73 14.02 142.22 15.03 C 141.63 13.88 141.03 12.75 140.42 11.61 C 140.07 13.55 139.73 15.50 139.40 17.44 C 140.01 17.99 140.61 18.54 141.22 19.09 C 139.53 18.93 137.84 18.77 136.15 18.62 C 138.11 16.44 138.05 14.17 138.34 11.40 C 137.50 12.16 136.68 12.93 135.85 13.70 L 134.62 11.88 C 133.97 13.36 133.59 14.91 133.22 16.47 C 133.84 17.03 134.47 17.59 135.10 18.15 C 133.32 18.10 131.54 18.03 129.76 17.97 C 130.43 17.44 131.10 16.92 131.77 16.39 C 131.83 14.22 131.82 12.11 131.29 9.99 Z" fill="#000000"/>
<path d="M 73.98 11.10 C 74.85 12.22 73.90 14.14 73.32 15.23 C 72.54 14.08 72.03 12.88 71.80 11.62 C 72.51 10.90 73.23 10.72 73.98 11.10 Z" fill="#ffffff"/>
<path d="M 66.99 14.07 C 67.69 16.32 66.17 17.19 65.04 18.85 C 63.43 16.86 61.75 15.04 63.49 12.46 C 64.36 10.81 66.88 12.57 66.99 14.07 Z" fill="#ffffff"/>
<path d="M 148.85 12.96 C 149.81 12.68 150.78 12.82 151.77 13.39 C 150.75 14.43 149.68 15.34 148.54 16.13 C 148.41 15.00 148.51 13.94 148.85 12.96 Z" fill="#000000"/>
<path d="M 47.52 15.19 C 48.43 20.12 49.27 25.08 50.34 29.99 C 50.66 31.20 50.75 32.29 51.92 33.00 C 55.19 34.94 58.81 33.94 62.31 33.36 C 61.97 34.41 61.58 35.47 61.37 36.56 C 62.12 38.19 63.61 39.54 64.79 40.88 C 58.71 38.98 53.19 35.85 47.23 33.68 C 42.06 31.81 36.81 31.52 31.55 33.25 C 34.33 27.67 36.51 21.79 39.32 16.24 C 41.23 13.13 44.70 14.25 47.52 15.19 Z" fill="#ffffff"/>
<path d="M 56.82 12.82 C 58.01 14.02 60.43 14.95 60.24 16.92 C 59.20 17.84 58.13 18.70 57.02 19.51 C 54.19 18.03 53.94 14.46 56.82 12.82 Z" fill="#ffffff"/>
<path d="M 164.60 16.33 C 167.38 21.85 169.53 27.69 172.33 33.22 C 167.93 31.85 163.43 31.70 158.99 32.94 C 152.04 34.91 146.01 38.87 139.01 40.78 C 140.35 39.59 141.63 38.35 142.93 37.11 C 142.36 35.85 141.79 34.58 141.22 33.32 C 144.04 33.76 147.21 34.60 150.00 33.81 C 151.45 33.35 152.82 32.93 153.19 31.26 C 154.54 25.97 155.24 20.48 156.43 15.14 C 159.14 14.12 162.90 13.25 164.60 16.33 Z" fill="#ffffff"/>
<path d="M 73.97 24.74 C 74.77 27.58 75.58 30.42 76.42 33.24 C 72.99 32.11 69.71 31.04 66.03 31.45 C 61.80 31.67 56.37 33.33 52.42 31.53 L 51.95 30.03 C 53.70 28.49 55.82 27.69 58.05 27.14 C 63.25 25.90 68.65 25.20 73.97 24.74 Z" fill="#c82325"/>
<path d="M 130.06 24.94 C 133.96 24.84 138.00 25.65 141.84 26.30 C 145.46 27.02 149.09 27.59 151.98 30.08 L 151.49 31.48 C 147.63 33.36 142.14 31.68 137.97 31.46 C 134.25 31.01 130.95 32.10 127.48 33.24 C 128.25 30.48 128.88 27.55 130.06 24.94 Z" fill="#c82325"/>
<path d="M 120.49 29.44 C 120.97 34.27 118.46 38.25 118.79 43.00 C 118.89 47.02 118.40 51.42 119.58 55.22 C 120.65 58.52 120.39 61.75 120.39 65.15 C 127.07 68.76 129.54 75.68 128.75 82.98 C 128.05 87.55 127.96 91.74 128.24 96.35 C 127.13 95.47 124.53 94.82 125.00 92.96 C 125.54 89.29 126.97 86.26 125.96 82.43 C 120.65 88.49 120.62 95.62 121.56 103.22 C 126.97 107.42 131.36 112.70 133.68 119.21 C 135.95 125.03 135.94 130.99 135.37 137.12 C 137.42 134.69 139.79 132.38 140.00 129.01 C 140.39 123.68 135.28 119.61 135.49 114.00 C 135.39 110.98 136.79 108.76 138.53 106.46 C 136.73 105.20 135.17 103.80 133.66 102.21 L 137.02 101.94 L 134.86 100.32 L 136.62 99.35 L 133.12 98.86 C 134.49 97.30 135.75 95.61 137.55 94.53 C 140.03 93.02 142.78 92.88 145.59 92.51 C 147.80 83.78 147.03 75.12 145.34 66.40 C 147.89 68.31 149.80 70.34 151.64 72.94 C 151.98 72.28 152.32 71.61 152.67 70.95 C 153.67 72.65 154.65 74.36 155.64 76.07 C 156.22 76.50 156.78 76.96 157.31 77.44 C 158.52 80.96 159.82 84.38 161.52 87.70 C 161.84 80.21 162.39 73.14 166.34 66.56 C 167.94 69.23 168.74 71.62 169.28 74.70 C 169.85 73.91 170.42 73.13 171.00 72.34 C 172.09 74.80 172.76 77.17 173.24 79.82 L 174.61 79.58 C 174.97 83.72 175.10 87.86 175.57 92.00 C 174.87 99.07 176.06 105.36 173.48 112.17 C 172.84 116.56 170.94 120.37 169.25 124.41 C 167.67 127.60 164.65 129.23 164.22 132.97 C 163.70 136.71 166.29 140.84 167.55 144.32 C 168.38 143.06 169.21 141.80 170.04 140.54 C 171.39 146.38 171.94 151.68 167.33 156.25 C 169.38 156.73 171.92 157.03 173.68 158.26 C 175.32 159.45 176.27 161.51 175.40 163.46 C 173.37 168.62 170.86 173.60 168.71 178.72 C 167.58 181.14 166.69 183.91 165.07 186.05 C 163.07 188.17 159.42 187.37 156.85 187.19 C 156.98 188.23 157.11 189.26 157.24 190.29 C 155.38 192.03 153.50 193.35 150.98 193.94 C 141.58 196.22 131.61 196.90 122.00 197.85 C 100.84 199.06 79.75 198.59 58.81 195.17 C 55.35 194.55 51.08 193.93 48.19 191.79 C 46.70 190.70 47.03 188.88 46.67 187.22 C 43.64 187.44 39.84 188.29 38.08 185.05 C 34.88 178.48 32.10 171.67 29.05 165.01 C 27.83 162.49 27.74 159.93 30.25 158.20 C 34.85 155.41 40.90 156.28 45.94 157.02 C 45.95 155.79 45.96 154.56 45.97 153.33 C 39.59 152.20 34.40 152.48 28.21 154.30 C 34.52 146.86 39.91 138.78 44.78 130.35 C 37.99 127.87 34.18 121.70 31.80 115.21 C 28.58 105.71 27.49 95.38 29.37 85.48 C 29.81 81.63 29.39 78.25 32.21 75.17 C 33.05 72.08 34.12 69.53 35.94 66.89 C 36.81 73.05 38.15 78.98 40.20 84.86 C 41.94 81.95 42.46 78.32 44.82 75.97 C 45.81 73.86 46.82 71.77 47.95 69.74 L 48.50 72.69 C 49.93 70.59 51.45 68.59 53.11 66.65 C 54.23 76.60 52.62 85.44 56.59 94.47 C 59.07 94.58 61.55 94.64 64.03 94.66 C 66.98 96.85 69.56 97.88 70.49 101.82 C 68.47 101.42 66.82 101.02 64.80 101.79 C 65.76 102.53 66.73 103.26 67.71 103.99 C 66.67 104.70 65.64 105.41 64.61 106.13 C 67.01 109.49 69.04 112.67 68.62 117.00 C 68.18 125.24 63.95 131.40 58.92 137.57 C 60.84 140.11 62.16 142.62 65.25 143.94 C 68.30 142.36 63.89 138.26 65.81 135.90 C 66.51 135.06 67.25 134.26 68.03 133.49 C 67.94 126.81 69.05 120.27 72.40 114.40 C 75.59 108.61 80.44 104.19 86.10 100.85 C 86.44 94.86 86.43 89.10 83.95 83.51 C 82.73 84.51 81.46 85.48 80.35 86.60 C 79.39 89.74 79.78 93.50 80.67 96.63 C 81.62 96.18 82.57 95.72 83.53 95.27 C 84.14 96.34 84.75 97.41 85.36 98.48 C 82.96 99.64 80.38 101.06 77.99 98.97 C 75.43 96.29 74.80 91.62 73.47 88.24 C 72.52 88.76 71.58 89.27 70.63 89.78 C 69.37 90.58 68.12 91.38 66.88 92.20 C 65.73 92.41 64.57 92.60 63.41 92.76 C 64.82 91.74 66.30 90.86 67.84 90.05 L 67.50 90.00 C 69.44 88.43 71.14 86.75 72.59 84.70 C 69.13 86.34 66.17 88.48 62.36 89.31 C 64.96 87.06 67.94 85.34 70.67 83.24 C 70.35 78.31 71.99 73.83 72.34 68.98 C 72.70 66.60 72.36 64.12 74.76 62.74 C 77.56 60.68 80.22 61.31 83.36 61.97 C 83.31 58.52 84.38 55.41 84.93 52.07 C 85.10 47.75 85.18 43.31 84.87 38.99 C 83.89 35.72 83.27 32.91 83.41 29.43 C 95.77 29.45 108.13 29.44 120.49 29.44 Z" fill="#000000"/>
<path d="M 84.93 31.33 C 86.81 31.31 88.68 31.29 90.56 31.22 C 90.88 31.31 91.19 31.40 91.51 31.50 C 92.96 31.41 94.41 31.34 95.87 31.26 C 95.79 32.11 95.72 32.96 95.65 33.81 C 92.19 33.99 88.74 34.11 85.28 34.18 C 85.16 33.23 85.05 32.28 84.93 31.33 Z" fill="#c49222"/>
<path d="M 96.63 31.30 C 98.50 31.33 100.37 31.32 102.23 31.27 C 102.57 31.57 102.91 31.88 103.25 32.18 C 103.50 31.96 103.75 31.74 104.01 31.52 C 105.12 31.36 106.23 31.21 107.34 31.05 C 107.34 32.00 107.33 32.95 107.32 33.90 C 103.77 34.02 100.24 34.01 96.69 33.88 C 96.67 33.02 96.65 32.16 96.63 31.30 Z" fill="#c49222"/>
<path d="M 108.26 31.48 C 109.96 31.28 111.73 31.32 113.44 31.31 C 115.29 31.36 117.14 31.37 118.99 31.37 C 118.88 32.20 118.77 33.03 118.66 33.86 C 115.09 34.01 111.55 34.04 107.98 33.91 C 108.06 33.09 108.15 32.29 108.26 31.48 Z" fill="#c49222"/>
<path d="M 76.37 35.61 C 77.85 37.31 77.69 38.55 76.00 39.99 C 73.03 42.09 68.18 41.44 64.79 40.88 C 63.61 39.54 62.12 38.19 61.37 36.56 C 61.58 35.47 61.97 34.41 62.31 33.36 C 66.74 32.60 72.79 32.39 76.37 35.61 Z" fill="#bfcad0"/>
<path d="M 141.22 33.32 C 141.79 34.58 142.36 35.85 142.93 37.11 C 141.63 38.35 140.35 39.59 139.01 40.78 C 135.58 41.62 130.23 42.11 127.40 39.58 C 125.65 37.96 126.53 36.37 128.09 35.10 C 131.83 32.46 136.91 32.63 141.22 33.32 Z" fill="#bfcad0"/>
<path d="M 36.98 33.80 C 45.93 33.01 53.57 38.46 61.69 41.47 C 61.84 42.32 61.99 43.17 62.14 44.02 C 58.74 42.90 55.68 41.68 52.00 42.13 C 46.10 42.76 40.06 44.47 34.19 42.72 C 31.85 41.94 29.94 40.71 29.78 38.01 C 30.43 34.69 34.18 34.08 36.98 33.80 Z" fill="#c82325"/>
<path d="M 168.03 33.93 C 170.15 34.23 174.09 35.22 173.89 38.00 C 174.24 40.64 171.87 41.91 169.77 42.69 C 163.56 44.59 157.22 42.57 151.00 42.07 C 147.51 41.76 144.68 43.04 141.54 44.27 C 141.76 43.33 141.99 42.40 142.21 41.46 C 150.66 38.30 158.62 32.55 168.03 33.93 Z" fill="#c82325"/>
<path d="M 85.17 34.86 C 88.67 34.79 92.17 34.73 95.68 34.70 C 95.22 35.73 94.77 36.76 94.31 37.78 C 91.71 37.84 89.10 37.85 86.50 37.84 C 86.06 36.85 85.62 35.86 85.17 34.86 Z" fill="#c49222"/>
<path d="M 96.72 34.73 C 100.22 34.72 103.72 34.72 107.21 34.72 C 106.79 35.74 106.36 36.75 105.93 37.77 C 103.30 37.85 100.67 37.85 98.03 37.79 C 97.60 36.77 97.16 35.75 96.72 34.73 Z" fill="#c49222"/>
<path d="M 108.10 34.74 C 111.67 34.72 115.24 34.72 118.81 34.73 C 118.32 35.74 117.83 36.76 117.34 37.78 C 114.74 37.83 112.15 37.84 109.55 37.81 C 109.07 36.78 108.59 35.76 108.10 34.74 Z" fill="#c49222"/>
<path d="M 86.65 38.64 C 89.17 38.64 91.69 38.65 94.20 38.67 C 94.23 43.25 94.23 47.83 94.21 52.42 C 91.68 52.44 89.15 52.45 86.62 52.45 C 86.61 50.24 86.60 48.03 86.59 45.82 C 87.79 45.88 89.00 45.94 90.20 46.00 C 90.06 47.33 89.92 48.66 89.78 49.99 L 90.92 50.04 C 90.90 48.61 90.88 47.18 90.87 45.75 L 93.36 46.44 L 93.48 44.76 L 90.88 45.30 C 90.88 43.87 90.88 42.44 90.88 41.01 L 89.79 41.00 C 89.93 42.33 90.06 43.67 90.20 45.00 C 88.98 45.14 87.76 45.28 86.54 45.43 C 86.59 43.16 86.62 40.90 86.65 38.64 Z" fill="#c49222"/>
<path d="M 98.25 38.65 C 100.71 38.64 103.17 38.63 105.63 38.63 C 105.71 41.02 105.79 43.40 105.91 45.78 L 102.26 44.80 C 102.35 43.53 102.44 42.27 102.54 41.00 L 101.25 41.00 C 101.38 42.44 101.52 43.89 101.65 45.33 C 100.49 45.15 99.32 44.96 98.15 44.78 C 98.19 42.74 98.22 40.69 98.25 38.65 Z" fill="#c49222"/>
<path d="M 109.70 38.65 C 112.18 38.64 114.65 38.65 117.13 38.66 C 117.16 40.95 117.19 43.23 117.23 45.52 C 116.08 45.36 114.92 45.19 113.77 45.04 C 113.84 43.69 113.91 42.35 113.98 41.00 L 112.91 41.00 C 113.02 42.30 113.13 43.59 113.24 44.89 C 112.01 45.14 110.79 45.39 109.56 45.64 C 109.62 43.31 109.66 40.98 109.70 38.65 Z" fill="#c49222"/>
<path d="M 52.97 43.59 C 51.10 46.33 51.84 47.97 52.66 50.91 C 48.34 49.56 44.63 47.77 40.00 47.51 C 37.31 47.37 34.92 48.02 32.32 48.60 C 32.99 47.27 33.64 45.94 34.29 44.60 C 40.81 46.07 46.53 44.03 52.97 43.59 Z" fill="#ffffff"/>
<path d="M 52.97 43.59 C 56.11 43.44 60.31 44.05 62.21 46.87 C 63.31 48.57 61.71 49.84 60.28 50.52 C 57.93 51.35 55.12 51.18 52.66 50.91 C 51.84 47.97 51.10 46.33 52.97 43.59 Z" fill="#bfcad0"/>
<path d="M 153.14 43.73 C 153.20 45.86 153.27 47.99 153.33 50.11 L 156.17 49.22 C 152.27 50.85 148.37 51.82 144.15 50.71 C 142.42 50.09 140.42 48.82 141.67 46.76 C 144.32 43.40 149.27 43.39 153.14 43.73 Z" fill="#bfcad0"/>
<path d="M 153.14 43.73 C 158.72 44.57 163.93 45.83 169.61 44.60 C 170.24 45.94 170.87 47.27 171.50 48.60 C 165.84 46.97 161.65 47.22 156.17 49.22 L 153.33 50.11 C 153.27 47.99 153.20 45.86 153.14 43.73 Z" fill="#ffffff"/>
<path d="M 101.67 45.96 C 101.51 47.31 101.35 48.66 101.18 50.01 L 102.55 50.00 C 102.45 48.58 102.35 47.16 102.26 45.75 C 103.44 45.93 104.62 46.12 105.80 46.30 C 105.76 48.35 105.73 50.40 105.70 52.45 C 103.21 52.45 100.72 52.45 98.23 52.43 C 98.20 50.38 98.18 48.32 98.14 46.27 C 99.32 46.16 100.49 46.06 101.67 45.96 Z" fill="#c49222"/>
<path d="M 109.62 46.28 C 110.84 46.12 112.06 45.96 113.28 45.80 C 113.16 47.20 113.04 48.60 112.92 50.00 L 113.94 50.02 C 113.89 48.66 113.84 47.29 113.80 45.93 C 114.93 46.04 116.06 46.15 117.19 46.25 C 117.18 48.31 117.17 50.37 117.15 52.43 C 114.66 52.44 112.16 52.45 109.67 52.44 C 109.65 50.39 109.64 48.33 109.62 46.28 Z" fill="#c49222"/>
<path d="M 50.99 52.00 C 51.05 53.33 51.11 54.67 51.17 56.00 C 45.52 57.07 37.85 58.25 32.61 55.36 C 30.63 54.47 30.41 51.39 32.54 50.56 C 38.63 47.48 45.12 49.52 50.99 52.00 Z" fill="#c82325"/>
<path d="M 169.28 49.67 C 170.75 50.15 172.98 51.14 173.00 52.96 C 172.56 55.08 170.35 55.96 168.50 56.51 C 163.29 57.78 157.68 56.97 152.50 55.96 C 152.67 54.62 152.84 53.28 153.01 51.94 C 158.37 49.72 163.44 48.04 169.28 49.67 Z" fill="#c82325"/>
<path d="M 86.63 53.26 C 89.15 53.28 91.66 53.30 94.18 53.34 C 94.68 54.79 95.17 56.25 95.67 57.71 C 92.14 57.83 88.64 57.85 85.11 57.76 C 85.62 56.26 86.12 54.76 86.63 53.26 Z" fill="#c49222"/>
<path d="M 98.10 53.33 L 98.93 53.32 C 101.26 53.31 103.59 53.33 105.91 53.38 C 106.32 54.84 106.73 56.30 107.14 57.76 C 103.67 57.86 100.21 57.85 96.74 57.73 C 97.20 56.26 97.65 54.80 98.10 53.33 Z" fill="#c49222"/>
<path d="M 109.40 54.19 L 109.73 53.28 C 112.20 53.28 114.67 53.29 117.14 53.32 C 117.70 54.78 118.26 56.25 118.82 57.71 C 115.24 57.84 111.67 57.85 108.09 57.73 C 108.52 56.55 108.96 55.37 109.40 54.19 Z" fill="#c49222"/>
<path d="M 85.15 58.65 C 88.65 58.61 92.15 58.61 95.65 58.65 C 95.65 60.82 95.65 62.99 95.63 65.15 C 92.28 64.94 91.84 63.03 89.90 60.91 C 88.34 60.53 86.55 61.18 84.97 61.39 C 85.03 60.48 85.09 59.56 85.15 58.65 Z" fill="#c49222"/>
<path d="M 96.68 58.65 C 100.23 58.61 103.77 58.61 107.32 58.65 C 107.32 60.71 107.32 62.76 107.33 64.82 C 103.77 64.91 100.23 64.90 96.67 64.80 C 96.68 62.75 96.68 60.70 96.68 58.65 Z" fill="#c49222"/>
<path d="M 108.26 58.64 C 111.74 58.61 115.22 58.62 118.70 58.66 C 118.71 60.70 118.71 62.75 118.73 64.79 C 115.22 64.90 111.73 64.93 108.23 64.82 C 108.24 62.76 108.25 60.70 108.26 58.64 Z" fill="#c49222"/>
<path d="M 92.60 66.32 C 98.79 66.29 104.98 66.29 111.17 66.32 C 111.17 69.46 111.16 72.61 111.17 75.75 C 108.40 77.30 105.28 79.52 102.00 79.47 C 99.08 79.65 97.00 77.70 94.58 76.37 C 93.96 76.92 93.37 77.49 92.78 78.07 C 92.82 77.01 92.85 75.95 92.87 74.88 C 93.73 73.93 94.59 72.98 95.34 71.94 C 94.67 69.99 93.55 68.15 92.60 66.32 Z" fill="#ffffff"/>
<path d="M 99.98 68.84 C 101.06 68.90 102.15 68.95 103.23 69.01 C 104.18 69.99 105.16 70.92 106.17 71.83 C 106.21 72.95 106.25 74.06 106.29 75.18 L 104.12 75.14 C 104.04 75.97 103.96 76.80 103.88 77.62 C 102.62 77.63 101.37 77.64 100.11 77.65 C 100.01 77.00 99.91 76.35 99.80 75.71 C 97.08 74.83 97.90 73.65 97.37 71.32 C 98.24 71.19 99.10 71.07 99.97 70.95 L 99.98 68.84 Z" fill="#c82325"/>
<path d="M 51.76 70.50 C 51.99 78.90 51.56 86.90 54.75 94.89 L 51.52 93.16 C 51.92 94.61 52.54 96.09 52.70 97.60 C 51.75 99.41 50.58 101.11 49.56 102.90 C 45.45 97.26 41.26 92.74 41.55 85.19 C 43.90 89.46 44.90 94.28 48.17 97.66 C 46.21 91.23 42.20 86.82 44.12 79.58 C 45.78 85.28 46.15 90.60 49.82 95.52 C 48.03 88.14 44.55 82.32 47.46 74.46 C 48.65 81.00 48.06 86.90 51.29 92.97 C 50.49 84.95 47.71 78.40 51.76 70.50 Z" fill="#ffffff"/>
<path d="M 147.86 70.17 C 149.14 72.28 150.71 74.49 150.99 77.00 C 151.45 81.37 150.28 86.00 150.13 90.45 C 151.90 85.14 151.95 79.78 152.54 74.28 C 153.57 75.46 154.14 76.37 154.25 77.98 C 154.68 82.66 152.88 86.99 152.12 91.63 C 154.13 87.55 154.87 83.06 156.85 78.96 C 157.79 84.21 155.95 88.38 154.17 93.14 C 155.83 90.43 157.32 87.64 159.08 85.00 C 159.76 91.03 155.26 94.79 154.97 100.72 C 154.20 99.84 153.44 98.96 152.67 98.08 C 153.54 96.89 154.42 95.71 155.29 94.52 C 153.84 94.68 152.40 94.84 150.95 94.99 L 151.91 92.57 C 150.26 92.77 148.62 92.97 146.97 93.17 C 149.14 85.49 148.49 77.99 147.86 70.17 Z" fill="#c49222"/>
<path d="M 166.41 69.89 C 169.37 77.62 166.48 85.11 162.84 92.01 C 163.36 85.44 162.95 79.36 165.11 73.13 C 165.53 72.04 165.96 70.96 166.41 69.89 Z" fill="#c49222"/>
<path d="M 34.09 72.54 L 35.46 72.10 C 36.55 80.12 39.03 88.05 42.90 95.17 C 45.09 99.39 48.45 101.81 49.60 106.49 C 50.53 109.95 51.71 112.30 54.41 114.73 C 52.75 111.46 50.49 108.83 50.50 104.98 C 50.41 101.62 52.85 99.61 54.97 97.40 C 54.28 96.76 53.60 96.12 52.92 95.47 C 56.30 95.92 59.59 96.09 63.00 96.03 C 63.45 96.52 63.91 97.00 64.36 97.49 C 65.75 98.11 67.12 98.76 68.49 99.42 C 66.88 99.93 65.34 100.14 63.96 101.16 C 64.22 102.42 64.53 103.66 64.86 104.90 C 63.26 105.36 61.76 105.40 60.11 105.34 C 62.83 107.10 65.28 108.74 66.38 111.97 C 67.76 116.37 66.71 121.67 64.83 125.78 C 61.40 133.51 54.57 138.71 51.07 146.11 C 49.21 149.97 49.39 153.89 49.74 158.03 C 49.02 157.81 48.30 157.59 47.57 157.37 C 47.96 150.74 45.69 144.54 46.27 137.91 C 44.27 142.62 45.46 146.93 46.31 151.71 C 41.50 150.98 36.93 150.79 32.15 151.82 C 38.30 144.59 43.12 136.54 47.67 128.25 C 45.58 128.18 43.50 128.07 41.43 127.91 C 43.42 126.82 45.43 125.75 47.45 124.69 C 44.08 125.36 41.47 126.40 38.34 124.84 C 40.80 124.05 43.30 123.39 45.76 122.58 C 42.20 122.78 39.24 123.90 35.99 121.64 C 38.82 121.24 41.66 121.03 44.48 120.59 C 40.33 119.96 36.77 121.16 33.74 117.56 C 36.95 117.64 40.11 117.92 43.32 117.76 C 38.72 116.50 34.72 117.56 31.90 112.72 C 35.20 113.49 38.43 114.43 41.82 114.77 C 39.31 113.65 36.62 112.99 34.15 111.80 C 32.17 110.91 31.58 108.95 30.49 107.21 C 33.75 108.74 36.81 110.46 40.39 111.17 C 37.80 109.60 34.74 108.49 32.42 106.56 C 30.94 105.37 30.50 102.96 29.76 101.30 C 33.06 103.49 35.76 106.15 39.56 107.49 C 36.80 105.10 33.05 103.05 30.97 100.06 C 29.77 98.46 29.98 96.34 29.66 94.42 C 31.97 96.76 33.96 99.48 36.45 101.64 C 37.22 102.36 38.12 102.51 39.12 102.61 L 41.93 101.66 C 43.51 102.93 45.30 104.11 46.15 106.02 C 47.64 109.36 47.87 113.30 49.35 116.65 C 50.19 118.51 51.76 119.53 53.25 120.83 C 51.73 118.45 50.03 116.56 49.30 113.76 C 47.95 109.36 48.00 105.08 43.94 102.14 C 37.26 96.90 29.58 88.48 31.34 79.25 C 35.00 84.47 35.04 90.85 40.03 95.53 C 38.11 91.68 35.86 88.22 34.77 84.00 C 33.54 80.20 33.84 76.45 34.09 72.54 Z" fill="#bfcad0"/>
<path d="M 76.04 76.08 C 76.46 77.48 75.76 78.13 73.95 78.04 C 73.84 76.26 74.53 75.61 76.04 76.08 Z" fill="#ffffff"/>
<path d="M 94.58 76.37 C 97.00 77.70 99.08 79.65 102.00 79.47 C 105.28 79.52 108.40 77.30 111.17 75.75 C 111.17 77.23 111.18 78.71 111.18 80.19 C 105.01 80.21 98.84 80.22 92.67 80.19 L 92.78 78.07 C 93.37 77.49 93.96 76.92 94.58 76.37 Z" fill="#bfcad0"/>
<path d="M 170.88 75.24 C 171.23 77.83 171.66 80.26 170.98 82.84 C 168.85 90.80 163.00 97.66 160.11 105.06 C 165.85 97.89 168.85 89.44 173.81 81.94 C 173.70 84.80 173.49 87.58 172.37 90.24 C 168.59 99.34 161.94 105.41 156.76 113.21 C 163.74 107.36 168.60 98.15 174.28 91.11 C 173.97 93.47 173.90 95.65 172.82 97.81 C 168.98 105.34 162.79 110.00 157.92 116.39 C 164.61 111.61 168.35 104.97 174.30 99.55 C 172.27 109.07 164.37 112.46 158.96 119.65 C 164.75 115.87 168.62 110.54 173.88 106.18 C 171.60 114.45 165.01 116.77 159.97 122.89 C 164.44 120.21 167.91 116.48 172.09 113.41 C 171.06 115.75 170.69 117.96 168.69 119.66 C 165.84 122.11 162.65 124.04 160.07 126.84 C 163.20 125.10 166.11 123.02 169.20 121.22 C 166.88 127.04 161.11 128.80 158.00 134.17 C 158.23 130.73 158.45 127.29 158.66 123.86 C 156.64 126.66 155.03 129.49 153.76 132.71 C 152.52 128.01 150.49 123.81 147.93 119.70 C 147.81 124.69 147.32 129.59 145.90 134.39 C 144.72 129.63 142.78 125.96 139.96 122.02 C 137.33 118.20 136.01 113.67 138.27 109.34 C 139.68 106.82 142.09 106.19 144.55 105.08 C 141.76 104.91 139.13 104.52 136.42 103.84 C 138.76 102.99 140.71 102.14 142.46 100.34 C 140.35 98.99 138.17 98.08 135.80 97.31 C 140.36 94.10 145.14 93.87 150.52 93.64 C 149.87 94.44 149.21 95.25 148.55 96.05 C 150.18 95.93 151.82 95.82 153.45 95.70 C 152.57 96.47 151.69 97.25 150.82 98.02 C 152.30 99.45 154.50 100.96 154.91 103.09 C 155.62 106.17 153.18 109.39 151.98 112.09 C 153.28 110.60 155.29 108.88 155.63 106.84 C 156.27 103.37 155.92 99.42 156.94 96.05 C 157.98 92.77 160.11 90.35 162.33 87.81 C 161.92 91.03 161.12 93.86 159.86 96.83 C 158.05 100.95 157.59 105.26 157.33 109.71 C 158.43 106.97 158.84 104.12 159.45 101.26 C 160.24 97.49 162.81 94.04 164.60 90.63 C 167.32 85.73 168.19 80.19 170.88 75.24 Z" fill="#c49222"/>
<path d="M 100.87 81.50 C 101.59 81.09 102.33 80.71 103.08 80.35 C 103.06 83.02 102.97 85.68 102.85 88.34 C 102.03 88.21 101.20 88.07 100.38 87.94 C 100.50 85.80 100.49 83.61 100.87 81.50 Z" fill="#c49222"/>
<path d="M 76.69 83.01 C 76.27 85.19 73.55 87.27 71.56 87.93 C 72.47 86.17 74.72 83.58 76.69 83.01 Z" fill="#ffffff"/>
<path d="M 89.66 88.03 C 92.15 91.47 92.92 95.55 91.15 99.51 C 90.94 95.58 90.69 91.85 89.66 88.03 Z" fill="#ffffff"/>
<path d="M 30.03 87.84 C 34.07 92.67 36.72 97.87 41.93 101.66 L 39.12 102.61 C 34.33 98.55 29.93 94.74 30.03 87.84 Z" fill="#ffffff"/>
<path d="M 99.77 89.33 C 102.13 90.01 105.11 90.13 106.56 92.42 C 107.27 93.81 107.03 95.72 107.21 97.25 C 104.73 97.15 102.25 97.09 99.78 97.05 C 99.56 94.45 99.56 91.94 99.77 89.33 Z" fill="#ffffff"/>
<path d="M 110.56 90.89 C 113.13 93.92 113.27 95.60 112.76 99.57 C 111.78 96.75 111.30 93.77 110.56 90.89 Z" fill="#ffffff"/>
<path d="M 144.56 96.11 C 145.24 98.38 141.64 98.79 140.63 97.06 C 141.49 96.06 143.36 95.26 144.56 96.11 Z" fill="#000000"/>
<path d="M 59.22 97.60 C 60.73 97.75 62.22 97.97 63.72 98.19 C 62.95 98.74 62.18 99.28 61.39 99.80 C 60.65 99.09 59.92 98.36 59.22 97.60 Z" fill="#000000"/>
<path d="M 100.39 98.46 C 104.46 98.63 108.42 99.10 112.36 100.16 C 108.92 102.78 105.40 105.27 101.92 107.83 C 100.51 106.79 99.10 105.75 97.69 104.71 C 98.73 104.37 99.78 104.02 100.82 103.68 C 100.68 101.94 100.54 100.20 100.39 98.46 Z" fill="#0f85c0"/>
<path d="M 138.50 100.00 L 139.26 99.61 L 139.99 100.02 L 139.96 100.83 L 139.21 101.21 L 138.47 100.81 L 138.50 100.00 Z" fill="#c82325"/>
<path d="M 90.64 100.56 C 90.77 101.74 90.91 102.91 91.06 104.08 C 92.65 104.42 94.26 104.65 95.88 104.86 C 97.69 106.18 99.50 107.50 101.29 108.84 C 101.25 111.78 101.25 114.73 101.21 117.67 C 97.27 120.52 93.36 123.39 89.39 126.20 C 86.69 125.24 83.97 124.37 81.22 123.54 C 79.72 119.15 78.33 114.72 76.88 110.32 C 80.84 106.00 85.17 102.75 90.64 100.56 Z" fill="#ffffff"/>
<path d="M 111.23 102.45 C 113.95 105.38 116.97 104.05 120.50 104.57 C 122.96 106.01 125.00 108.39 126.98 110.42 C 125.38 114.69 124.42 119.29 122.49 123.42 C 119.92 124.54 117.16 125.23 114.53 126.21 C 110.47 123.38 106.47 120.46 102.51 117.49 C 102.53 114.61 102.54 111.74 102.52 108.87 C 104.67 107.27 106.84 105.71 109.00 104.12 C 109.74 103.56 110.48 103.01 111.23 102.45 Z" fill="#ffffff"/>
<path d="M 75.96 111.53 C 77.34 115.57 78.62 119.65 80.00 123.69 C 76.52 126.25 73.04 128.80 69.51 131.30 C 69.88 125.27 71.03 119.49 74.24 114.29 C 74.81 113.37 75.38 112.45 75.96 111.53 Z" fill="#0f85c0"/>
<path d="M 127.96 111.50 C 132.08 117.78 134.11 123.66 134.19 131.23 C 130.76 128.73 127.33 126.22 123.89 123.72 C 124.86 120.76 125.81 117.80 126.80 114.85 C 127.18 113.73 127.57 112.61 127.96 111.50 Z" fill="#0f85c0"/>
<path d="M 101.93 118.73 C 105.93 121.33 109.70 124.31 113.58 127.10 C 112.08 131.66 110.57 136.22 109.09 140.79 C 104.33 140.80 99.58 140.79 94.82 140.83 C 93.27 136.26 91.78 131.66 90.31 127.06 C 94.19 124.30 97.94 121.33 101.93 118.73 Z" fill="#0f85c0"/>
<path d="M 80.79 124.69 C 83.56 125.48 86.29 126.43 89.04 127.29 C 90.61 131.93 92.09 136.61 93.65 141.25 C 91.91 143.63 90.19 146.01 88.42 148.37 C 83.87 148.33 79.32 148.32 74.76 148.36 C 71.77 143.41 70.26 138.51 69.60 132.77 C 73.33 130.09 76.98 127.26 80.79 124.69 Z" fill="#ffffff"/>
<path d="M 123.07 124.61 C 126.64 127.42 130.82 129.76 134.04 132.94 C 133.91 138.53 131.89 143.58 129.12 148.36 C 124.58 148.32 120.05 148.32 115.52 148.39 C 113.71 146.05 111.97 143.66 110.22 141.28 C 111.79 136.60 113.22 131.87 114.88 127.23 C 117.63 126.43 120.36 125.54 123.07 124.61 Z" fill="#ffffff"/>
<path d="M 149.16 123.84 C 151.52 130.23 149.89 135.91 148.50 142.23 C 147.55 145.93 148.34 149.33 149.48 152.86 C 151.72 150.31 153.56 147.68 153.95 144.21 C 154.68 138.51 154.05 133.20 156.97 127.94 C 156.99 134.51 159.43 141.57 158.22 148.03 C 156.91 154.13 150.97 155.60 146.87 160.14 C 144.72 155.73 141.37 152.24 138.85 148.10 C 136.28 143.27 137.44 138.45 139.58 133.75 C 139.77 136.46 139.77 139.29 140.28 141.96 C 140.86 144.70 142.57 147.36 143.89 149.82 C 143.80 140.63 148.45 132.96 149.16 123.84 Z" fill="#c49222"/>
<path d="M 141.81 126.23 C 143.04 129.16 144.38 131.75 144.48 135.00 C 144.59 138.95 143.79 143.04 143.03 146.91 C 139.93 141.68 140.44 136.52 141.41 130.80 C 141.56 129.28 141.69 127.76 141.81 126.23 Z" fill="#c49222"/>
<path d="M 151.68 128.83 C 153.74 136.60 155.00 144.74 149.85 151.63 C 147.30 144.37 150.80 139.19 151.28 132.01 C 151.41 130.95 151.54 129.89 151.68 128.83 Z" fill="#c49222"/>
<path d="M 163.39 128.79 C 162.83 132.24 162.59 135.56 162.96 139.04 C 163.48 144.35 161.35 148.99 157.69 152.76 C 158.78 149.13 159.88 145.81 159.28 141.99 C 158.80 138.08 158.75 134.70 161.32 131.45 C 162.00 130.56 162.69 129.67 163.39 128.79 Z" fill="#c49222"/>
<path d="M 68.06 135.03 C 69.32 141.30 71.69 146.35 74.87 151.83 C 71.68 151.35 71.34 147.69 68.93 146.95 C 64.32 148.32 60.63 150.33 55.55 149.52 C 54.28 148.69 53.13 147.64 51.97 146.66 C 53.60 143.69 55.48 140.94 57.55 138.26 C 59.25 140.41 60.86 143.30 63.24 144.76 C 65.07 145.69 66.56 145.15 67.93 143.76 C 68.08 140.46 66.11 138.11 68.06 135.03 Z" fill="#bfcad0"/>
<path d="M 136.81 137.21 C 136.64 141.36 135.94 145.07 138.28 148.81 C 140.84 152.67 144.00 156.02 146.10 160.22 C 142.44 158.91 138.13 158.27 134.85 156.16 C 131.67 153.66 131.87 150.44 131.53 146.73 C 132.64 147.86 133.73 148.99 134.82 150.13 C 134.29 148.16 133.52 146.03 133.55 143.98 C 133.68 141.34 135.42 139.32 136.81 137.21 Z" fill="#c49222"/>
<path d="M 164.29 139.68 C 165.15 142.17 165.93 144.67 166.64 147.20 C 167.62 146.36 168.60 145.52 169.58 144.68 C 169.38 149.08 169.51 153.78 164.79 155.77 C 159.34 157.22 153.74 158.06 148.32 159.74 C 151.59 156.70 155.64 154.88 159.10 152.13 C 161.73 150.02 162.95 147.10 163.53 143.86 C 163.79 142.47 164.04 141.07 164.29 139.68 Z" fill="#c49222"/>
<path d="M 109.08 142.10 C 111.13 144.11 112.65 146.75 114.39 149.04 C 112.98 153.41 111.53 157.78 110.12 162.15 C 104.50 163.29 99.30 163.35 93.69 162.09 C 92.33 157.74 90.91 153.42 89.44 149.10 C 91.13 146.76 92.79 144.38 94.55 142.09 C 99.38 141.96 104.26 141.86 109.08 142.10 Z" fill="#ffffff"/>
<path d="M 68.90 148.36 C 69.94 149.75 70.73 151.72 72.19 152.69 C 73.45 152.80 74.71 152.82 75.99 152.75 C 83.68 161.32 94.98 166.08 106.51 164.38 C 116.08 163.03 124.47 157.77 129.94 149.82 C 130.59 152.79 131.47 154.87 133.42 157.21 C 130.18 157.54 125.69 158.18 124.91 162.03 C 125.51 166.64 127.24 171.17 128.38 175.69 C 119.25 176.34 110.16 177.11 101.00 176.99 C 92.48 177.04 84.04 176.25 75.56 175.72 C 76.55 171.43 78.05 167.24 78.87 162.92 C 79.35 160.25 76.48 158.35 74.24 157.77 C 68.13 156.37 62.90 158.24 57.31 160.44 C 55.48 159.86 53.66 159.29 51.82 158.74 C 50.97 155.22 50.98 152.25 51.62 148.70 C 52.96 149.66 54.31 150.63 55.67 151.59 C 60.43 151.05 64.61 150.73 68.90 148.36 Z" fill="#ffffff"/>
<path d="M 75.57 149.70 C 79.80 149.64 84.02 149.65 88.25 149.60 C 89.66 153.61 91.00 157.65 92.21 161.73 C 85.10 159.12 80.34 155.55 75.57 149.70 Z" fill="#0f85c0"/>
<path d="M 115.63 149.59 C 119.85 149.64 124.07 149.64 128.29 149.71 C 123.42 155.69 118.86 159.01 111.65 161.75 C 112.88 157.66 114.20 153.61 115.63 149.59 Z" fill="#0f85c0"/>
<path d="M 33.45 158.51 C 40.54 156.63 48.89 159.21 55.64 161.50 C 50.83 163.86 45.36 166.16 39.99 166.61 C 36.84 166.82 32.43 166.31 30.31 163.67 C 28.78 161.06 31.14 159.19 33.45 158.51 Z" fill="#c82325"/>
<path d="M 171.18 158.80 C 173.86 159.91 174.15 160.83 173.71 163.66 C 171.32 166.23 167.33 166.82 164.00 166.62 C 158.44 166.14 153.17 163.96 148.24 161.47 C 155.03 159.28 164.21 156.24 171.18 158.80 Z" fill="#c82325"/>
<path d="M 74.53 159.57 C 76.59 160.23 78.53 162.69 76.45 164.50 C 73.45 167.67 67.38 167.64 63.40 166.96 C 62.03 166.07 60.70 165.11 59.36 164.16 C 59.48 163.17 59.60 162.18 59.71 161.18 C 64.19 159.21 69.76 158.16 74.53 159.57 Z" fill="#bfcad0"/>
<path d="M 129.45 159.53 C 134.08 158.20 139.31 159.14 143.68 160.99 C 143.61 162.03 143.54 163.06 143.46 164.10 C 142.82 165.01 142.18 165.92 141.54 166.83 C 137.75 167.39 134.19 167.73 130.50 166.45 C 128.84 165.82 127.11 164.81 126.50 163.05 C 126.17 161.35 128.02 160.01 129.45 159.53 Z" fill="#bfcad0"/>
<path d="M 143.68 160.99 C 153.14 164.98 161.62 170.72 172.32 167.03 C 169.86 172.08 167.72 177.28 165.39 182.39 C 164.86 183.36 164.38 184.81 163.36 185.35 C 161.17 186.63 158.69 185.70 156.39 185.25 C 155.41 179.98 154.50 174.68 153.33 169.45 C 153.03 168.10 152.47 167.39 151.19 166.84 C 148.27 165.78 144.54 166.43 141.54 166.83 C 142.18 165.92 142.82 165.01 143.46 164.10 C 143.54 163.06 143.61 162.03 143.68 160.99 Z" fill="#ffffff"/>
<path d="M 59.71 161.18 C 59.60 162.18 59.48 163.17 59.36 164.16 C 60.70 165.11 62.03 166.07 63.40 166.96 C 60.38 166.54 56.97 165.94 53.93 166.48 C 52.54 166.72 51.04 167.43 50.69 168.93 C 49.47 173.55 48.88 178.35 47.88 183.02 C 48.04 186.72 41.19 186.85 39.62 184.49 C 36.58 178.89 34.45 172.76 31.58 167.05 C 42.10 170.64 50.44 165.17 59.71 161.18 Z" fill="#ffffff"/>
<path d="M 76.42 166.97 C 75.58 169.82 74.77 172.68 73.97 175.55 C 67.94 174.82 61.51 174.36 55.72 172.43 C 53.76 171.87 52.62 170.50 51.32 169.04 C 56.75 166.96 61.51 168.62 67.00 168.88 C 70.35 169.11 73.33 168.09 76.42 166.97 Z" fill="#c82325"/>
<path d="M 127.50 166.95 C 130.30 167.97 132.95 168.98 135.99 168.90 C 141.85 168.84 146.80 166.81 152.59 169.08 C 151.29 170.45 150.14 171.80 148.26 172.38 C 142.46 174.37 135.96 174.80 129.90 175.56 C 129.35 173.64 128.81 171.73 128.28 169.81 C 128.02 168.86 127.76 167.90 127.50 166.95 Z" fill="#c82325"/>
<path d="M 51.47 172.30 C 57.20 175.45 64.37 175.81 70.79 176.68 C 94.06 179.41 117.82 179.04 141.01 175.66 C 144.97 175.10 148.78 174.21 152.36 172.37 C 153.21 177.63 154.35 182.83 155.26 188.07 C 155.96 190.57 153.64 191.06 151.88 191.91 C 144.96 194.14 137.20 194.61 130.00 195.56 C 106.56 197.80 82.77 197.33 59.49 193.70 C 56.39 193.06 52.79 192.61 50.03 190.98 C 48.76 190.38 48.30 189.40 48.65 188.03 C 49.42 182.76 50.77 177.59 51.47 172.30 Z" fill="#ffffff"/>
<path d="M 60.23 180.78 C 59.91 181.44 59.59 182.09 59.25 182.74 C 58.36 182.14 57.48 181.50 56.60 180.87 C 55.98 181.47 55.36 182.08 54.74 182.69 L 57.73 182.48 C 57.51 183.83 57.28 185.18 57.06 186.52 C 56.27 185.46 55.47 184.41 54.66 183.36 C 55.05 184.96 55.46 186.56 55.94 188.14 C 54.46 187.82 52.97 187.52 51.48 187.25 C 53.47 184.89 54.48 182.09 52.48 179.39 C 55.06 179.86 57.65 180.30 60.23 180.78 Z" fill="#000000"/>
<path d="M 149.24 179.72 C 149.80 180.05 150.36 180.38 150.91 180.71 C 150.69 183.09 151.14 183.82 152.51 185.66 C 150.19 188.37 147.25 187.90 144.02 188.44 C 144.60 187.80 145.18 187.17 145.77 186.54 C 145.26 184.83 145.09 182.71 144.01 181.24 C 140.47 181.02 144.25 187.23 141.72 188.70 C 139.27 190.62 136.65 186.57 134.91 189.71 C 130.97 190.08 127.05 190.39 123.11 190.84 C 119.74 189.89 119.18 184.82 122.33 183.25 C 125.65 182.65 129.09 182.79 132.43 182.12 C 131.94 182.77 131.45 183.42 130.96 184.07 C 131.21 185.89 131.47 187.71 131.74 189.54 C 133.03 188.80 134.31 188.02 135.59 187.27 C 136.18 184.87 136.24 184.04 134.91 181.83 C 139.72 181.38 144.50 180.66 149.24 179.72 Z" fill="#000000"/>
<path d="M 66.28 181.70 C 70.01 183.73 68.23 189.67 63.98 189.33 C 60.55 189.25 59.63 186.72 59.48 183.68 C 61.57 181.75 63.35 179.86 66.28 181.70 Z" fill="#000000"/>
<path d="M 149.68 182.52 L 147.19 183.11 C 148.29 183.85 149.39 184.59 150.48 185.34 C 149.56 185.97 148.64 186.59 147.70 187.20 C 147.43 185.16 147.16 183.13 146.86 181.11 C 147.95 181.28 148.89 181.75 149.68 182.52 Z" fill="#ffffff"/>
<path d="M 77.53 186.04 C 77.79 184.96 78.07 183.89 78.34 182.82 C 80.78 183.02 83.22 183.22 85.66 183.43 C 85.47 184.65 85.28 185.87 85.08 187.09 C 84.34 185.88 83.60 184.67 82.85 183.46 C 82.61 185.47 82.39 187.49 82.19 189.50 C 82.84 190.01 83.49 190.52 84.14 191.03 C 82.31 190.91 80.48 190.79 78.65 190.67 C 79.27 190.16 79.88 189.66 80.49 189.15 C 80.57 187.21 80.63 185.27 80.67 183.33 C 79.64 184.46 78.61 185.58 77.58 186.70 C 76.52 188.78 75.85 190.46 73.17 190.46 C 69.61 190.42 67.53 186.67 69.68 183.74 C 72.37 180.69 76.57 182.15 77.53 186.04 Z" fill="#000000"/>
<path d="M 139.91 181.79 C 141.59 183.27 141.03 186.44 141.24 188.47 C 140.35 188.16 139.48 187.83 138.62 187.47 C 138.19 185.98 137.99 184.42 137.76 182.90 C 138.45 182.48 139.16 182.11 139.91 181.79 Z" fill="#ffffff"/>
<path d="M 64.00 181.26 C 65.20 182.98 66.69 183.70 66.04 186.01 C 65.83 188.15 62.83 189.36 62.14 186.87 C 60.97 185.02 63.11 182.76 64.00 181.26 Z" fill="#ffffff"/>
<path d="M 101.90 183.82 C 103.71 183.83 105.51 183.83 107.32 183.85 C 106.66 184.36 106.00 184.88 105.33 185.40 C 105.45 187.33 105.59 189.26 105.76 191.18 C 107.28 190.30 108.42 189.30 109.54 187.98 L 110.24 190.52 C 112.03 188.79 111.06 185.45 109.78 183.64 C 111.27 183.61 112.77 183.57 114.26 183.52 C 113.78 184.24 113.31 184.95 112.83 185.67 C 112.98 187.34 113.14 189.02 113.31 190.69 C 115.23 190.00 115.91 189.41 117.00 187.63 C 117.13 188.79 117.27 189.95 117.41 191.12 C 110.94 191.42 104.50 191.59 98.03 191.62 C 98.39 190.78 98.75 189.94 99.11 189.10 L 96.06 188.99 C 96.34 189.87 96.63 190.75 96.92 191.62 C 93.15 191.15 89.37 191.19 85.57 191.24 C 87.89 188.75 86.93 186.35 86.46 183.35 L 89.58 183.43 C 89.32 184.59 89.10 185.75 88.89 186.91 L 91.96 186.18 L 89.65 184.43 C 90.65 184.23 91.65 184.05 92.66 183.89 C 92.78 186.70 92.52 188.50 94.54 190.63 C 95.35 188.36 96.04 185.98 97.09 183.81 L 98.78 183.86 C 99.90 186.22 100.40 188.98 101.86 191.08 C 104.82 190.55 103.31 187.78 103.61 185.59 C 103.04 184.99 102.47 184.41 101.90 183.82 Z" fill="#000000"/>
<path d="M 71.38 184.41 C 72.37 182.90 73.55 182.80 74.92 184.09 C 75.40 186.58 75.70 188.32 73.05 189.53 C 70.48 188.78 70.92 186.50 71.38 184.41 Z" fill="#ffffff"/>
<path d="M 124.90 183.31 C 125.59 184.18 126.26 185.05 126.96 185.90 L 128.14 183.92 C 129.86 184.46 129.39 187.46 129.26 188.94 C 128.46 188.54 127.74 188.03 127.01 187.53 C 126.10 188.71 125.74 189.85 124.09 190.08 C 121.50 187.68 121.72 185.01 124.90 183.31 Z" fill="#ffffff"/>
<path d="M 96.95 186.44 C 98.36 185.46 99.27 188.21 97.63 188.38 C 96.72 187.99 96.50 187.34 96.95 186.44 Z" fill="#ffffff"/>
<path d="M 89.16 188.32 C 90.14 187.69 90.87 187.91 91.32 188.98 C 91.03 191.03 88.13 190.20 89.16 188.32 Z" fill="#ffffff"/>
</svg>
