<?xml version="1.0" encoding="UTF-8"?>
<!-- Generator: Adobe Illustrator 19.1.0, SVG Export Plug-In . SVG Version: 6.00 Build 0)  -->
<svg version="1.1" id="Ebene_1" xmlns="http://www.w3.org/2000/svg" xmlns:xlink="http://www.w3.org/1999/xlink" x="0px" y="0px" viewBox="0 0 85 85" style="enable-background:new 0 0 85 85;" xml:space="preserve">
<style type="text/css">
	.st0{fill:#FFFFFF;}
	.st1{fill:#65B32E;}
</style>
<path class="st0" d="M78,42.6C78,62.2,62.1,78,42.5,78C22.9,78,7,62.2,7,42.6C7,23,22.9,7,42.5,7C62.1,7,78,21.1,78,42.6z"/>
<g>
	<path class="st1" d="M7.7,42.5C8.3,20.9,23.2,12.1,33,9c4.5-1.4,8.4-1.5,8.4-0.9c0,0.4-3.4,0.1-8.1,1.8c-8.3,3-20,10.4-20.7,29.4   c0,17.5,14.2,31.6,31.7,31.6c17.5,0,31.6-14.2,31.6-31.6c0-3.7-0.6-6.7-1.5-9.2c-1.5-4.5-3.4-6.6-2.6-6.6c0.6,0,2.3,3.5,3.5,6.8   c1.4,3.8,2,7.3,2,12.3c0,19.2-15.6,34.8-34.8,34.8C23.3,77.3,7.7,61.8,7.7,42.5L7.7,42.5z"/>
	<path class="st1" d="M39,31.6c0-6.2,10.2-5.6,10.2-5.6V48c0,1.5,1,2.5,2.7,2.5c2.8,0,2.6-2.5,2.6-2.5c0,1.5,0-16,0-22.7   c0-5.5,10.1-5.5,10.1-5.5v29.4l0,1.8c-0.9,5.5-5.7,9.8-11.3,9.8c-3.7,0-7-1.8-9.1-4.7C42,59,38.7,60.8,35,60.8   c-5.7,0-10.4-4.2-11.3-9.8l-0.1-1.8c0,0,0-16.2,0-23.8c0-5.5,10.1-5.5,10.1-5.5s0,28.2,0,28.3c0,1.6,1.1,2.5,2.6,2.5   c1.5,0,2.8-0.9,2.8-2.5C39,48,39,36.8,39,31.6L39,31.6z"/>
</g>
</svg>