<svg xmlns="http://www.w3.org/2000/svg" xml:space="preserve" width="192.31mm" height="245.54019mm" fill-rule="evenodd" stroke-linejoin="round" stroke-width="28.222" preserveAspectRatio="xMidYMid" version="1.2" viewBox="0 0 19231 24554.019"><defs class="ClipPathGroup"><clipPath id="a" clipPathUnits="userSpaceOnUse"><path d="M0 0h21000v29700H0z"/></clipPath></defs><g class="SlideGroup"><g class="Slide" clip-path="url(#a)" transform="translate(-886 -2573.98)"><g class="Page"><g class="Group"><g class="com.sun.star.drawing.ClosedBezierShape"><path fill="none" d="M886 2574h19231v24554H886z" class="BoundingBox"/><path fill="#053a5a" d="M10490 3222c-1326-21-2860 273-4305 738-1564 503-3016 1205-3985 1926-313 1220-479 2428-568 3718-89 1310-98 2691-99 4245 0 457 36 915 104 1373 67 454 167 904 295 1350 567 1983 1714 3867 3158 5508 1575 1790 3500 3287 5410 4308 1890-1062 3830-2588 5418-4400 1422-1623 2559-3472 3119-5416 129-444 236-899 313-1361 75-459 118-918 118-1375-1-1552-26-2922-126-4226-97-1265-263-2457-546-3678l-1-1h-1c-1030-791-2373-1452-3817-1923-1473-481-3043-764-4487-786Zm0 0zm-4503 121c1506-484 3112-789 4511-768 1513 23 3150 317 4679 816 1511 493 2922 1189 4011 2024l1 2c5 4 10 7 14 10 90 66 172 127 210 292 300 1278 476 2522 576 3842 100 1304 126 2694 126 4275 1 497-45 991-126 1479-79 482-193 962-329 1435-590 2044-1775 3976-3254 5664-1684 1921-3749 3530-5746 4628l-153 84-153-80c-2028-1057-4081-2638-5752-4536-1503-1709-2700-3678-3295-5760-135-472-240-950-312-1434-72-481-109-970-109-1467 0-1578 9-2978 99-4288 91-1327 264-2577 592-3849 17-64 47-130 85-186l-1-1c39-58 89-113 141-152 1021-763 2547-1503 4185-2030z"/></g><g class="com.sun.star.drawing.ClosedBezierShape"><path fill="none" d="M1534 13897h14844v12493H1534z" class="BoundingBox"/><path fill="#fff" d="M16377 21444c-5327-3713-10228-6032-14843-7547 2 441 38 883 103 1325 68 453 167 903 295 1350 567 1983 1714 3868 3158 5509 1576 1790 3500 3287 5410 4308 1890-1062 3831-2589 5419-4401 156-179 309-360 458-544z"/></g><g class="com.sun.star.drawing.ClosedBezierShape"><path fill="none" d="M1657 3222h17811v14566H1657z" class="BoundingBox"/><defs><linearGradient id="b" x1="10432" x2="10692" y1="17940" y2="3070" gradientUnits="userSpaceOnUse"><stop offset="0.17" style="stop-color:#3ebff0"/><stop offset="1" style="stop-color:#053a5a"/></linearGradient></defs><path d="m1657 9280 2238 768 2198 836 2160 913 2126 997 2095 1090 2067 1190 2044 1298 2024 1415 120-300 112-303 102-304 93-306 93-336 83-339 74-342 63-345 50-343 37-344 23-344 8-344-26-2206-38-1028-62-992-86-937-117-919-152-911-191-912-1-1h-1l-401-290-427-277-452-264-473-250-493-234-510-219-524-203-536-185-556-171-563-152-567-131-568-111-567-89-563-68-557-44-547-20-506 7-523 34-535 61-544 85-549 107-552 129-551 149-545 166-580 198-566 214-546 228-523 241-495 251-462 260-427 265-385 269-193 837-151 840-115 850z" style="fill:url(#b)"/></g><g class="com.sun.star.drawing.ClosedBezierShape"><path fill="none" d="M1534 9279h13691v17180H1534z" class="BoundingBox"/><path fill="#fff" d="M14512 15054c94 25 174 73 236 143-78-48-157-96-236-143zm0 0zm50-3151c-285-574-655-1142-1065-1442-303-222-707-283-982-275-218 7-421-17-625-192-214-181-459-293-716-350-1273-283-2310-219-3264 109-822 283-1463 644-1729 1165-1481-596-2987-1138-4524-1639-9 107-17 216-24 325-90 1311-99 2691-99 4245v47c1396 459 2820 991 4274 1614-15-25-23-59-25-101-4-153 114-181 179-238 74 213 252 211 440 248 150 30 307 35 453 83 192 62 339 185 447 337 76 108 90 211 84 377 1902 889 3857 1938 5874 3180-57 684-111 1368-170 2056-32 370-88 772-192 1098-209 662-413 1232-711 1720-287 469-698 1264-1692 2116-8 6-16 13-24 20l55 52c79-77 152-151 220-210 32-27 63-52 92-72 1773-1247 2642-2829 2880-4691 76-588 120-1144 161-1702 22-310 43-620 68-937 7-93 78-162 158-222 712-528 1038-1911 1104-3142 3-56 6-111 8-166 41-1169-114-2324-655-3413zm0 0zm-3209 3719c26 27 39 62 3 74-251 83-451 2-674-64-116-35-241-50-361-35-34 4-69 61-49 89 45 63 126 89 200 111 168 50 330 94 474 180 38 23 94 88 27 129-155 94-338 141-516 166-26 3-55-14-73-33-79-90-172-184-304-225-25-8-51 25-60 49-61 178-196 249-364 235-152-13-306-185-277-311 4-19-33-34-52-28-152 46-218 178-277 318-10 22-25 66-47 56-127-57-247-135-347-232-23-22 35-75 10-96-57-47-146-33-210-69-75-42-187-74-203-159-21-104 25-240 115-297 344-219 939-295 1465-320 564-26 1172 98 1520 462zm0 0zm2332 423c-20-11-46-46-3-66 116-57 239-118 368-122 95-4 195 36 268 96 74 60 129 151 151 244 24 104 12 222-28 321-42 103-127 184-209 258-61 55-142 84-215 122-69 37-100 86-152 126-47 36-54 95-92 132-38 38-77 45-120 45-46 0-104-19-147-36-60-25-53-91-21-131 51-63 113-128 168-187 52-55 111-97 168-150 66-63 95-161 110-252 15-83-32-176-86-251-43-60-95-114-160-149z"/></g><g class="Group"><g class="com.sun.star.drawing.ClosedBezierShape"><path fill="none" d="M5782 9465h9442v16994H5782z" class="BoundingBox"/><path fill="#083a63" d="M6120 14509c-191-919-129-1819 121-2415 8-25 14-53 0-73-114-169-251-387-172-786 139-698 860-1145 1839-1482 955-327 1992-392 3265-109 257 57 502 169 715 350 205 175 407 199 625 192 275-8 680 53 983 275 410 300 780 868 1065 1442 541 1089 696 2245 655 3414-45 1271-368 2755-1111 3307-81 60-152 129-159 222-69 887-111 1725-228 2639-239 1863-1109 3445-2880 4692-94 63-198 169-313 281l-55-51c1012-860 1426-1663 1715-2136 298-488 502-1058 712-1720 104-326 161-729 192-1099 99-1154 185-2298 291-3450 6-63 37-81 60-67 60 34 93 68 162 74 142 13 260-4 414-86 374-199 522-500 677-893 213-539 267-1059 196-1512-45-281-216-454-467-479-327-32-676 249-942 565-139 165-236 343-311 540-70 182-105 380-119 575-17 238-12 485 20 714 9 59 34 117 29 176-2 25-29 50-53 59-115 46-239 84-359 90-78 4-161-13-239 0-43 6-86 19-128 9-26-6-57-9-56-61 5-510 80-1190 89-1428 12-305-31-316-82-550-92-414-643-1075-1092-1309-29-15-20-46-1-80 207-371 272-698 272-1008 1-387-229-659-511-879-20-16-48-26-74-22-988 160-2069 247-2883 202-476-26-951-109-1325-295-13-7-34-7-41 5-156 262-239 576-266 816-55 485-118 889-177 1339-4 27-35 97-53 12zm0 0zm5232 1114c26 27 39 62 4 74-252 83-452 2-675-64-116-35-241-50-361-35-33 4-69 61-49 89 45 63 126 89 200 111 168 50 330 93 475 180 37 23 93 88 26 129-154 94-338 141-516 166-26 3-55-14-73-34-78-89-172-183-304-224-25-8-51 25-59 49-62 178-196 249-364 235-153-13-307-186-278-311 4-19-33-34-51-28-153 46-219 178-278 317-10 23-24 67-47 57-127-57-247-135-347-232-23-22 35-75 10-96-57-47-145-34-210-69-75-42-187-74-203-159-20-104 26-241 115-298 344-218 939-294 1466-319 563-26 1171 98 1519 462zm0 0zm-5392-451c-64 57-182 85-178 238 2 75 26 125 72 139 180 55 296 122 447 199 29 14 113 67 46 86-140 37-178 121-207 271-9 49-31 119-26 173 1 11 28 16 42-5 92-142 210-222 348-249 42-8 71 6 76 53 9 76-13 122 85 212 52 48 152 81 223 72 70-9 146-54 179-112 19-35 18-79 22-119 1-16 25-41 48-22s37 63 65 84c42 33 89 60 139 75 20 5 41-4 41-19 9-184-1-293-82-408-108-152-255-275-447-337-146-48-302-53-453-83-187-37-366-35-440-248zm0 0zm1173 3309c521 313 1062 347 1622 106 88-37 190-79 166-231-15-94-69-117-172-129-82-9-145 39-215 66-141 54-273 67-438 30-236-54-399-13-526 76-110 77-222 94-421 52-20-4-45 16-16 30zm0 0zm-82 1302c-27 54-39 87-13 116 41 44 94 55 146 73 45 15 102 12 138-17 35-27 77-35 116-30 65 8 125 24 185 43 71 22 143 30 217 27 105-6 210-30 307-60 102-32 211-50 317-30 133 26 258 29 387 30 207 2 419-1 612-69 69-25 142-80 146-149 5-98-67-150-136-161-90-13-188 22-281 38-140 25-349 56-503 24-170-36-345-70-519-85-154-13-227 13-308 55-59 30-118 78-184 74-69-3-108-23-157-54-58-36-109-34-165-33-139 1-250 98-305 208zm0 0zm856 568c-203-44-318 34-320 139-3 129 108 188 203 219 157 50 298 56 451 49 162-7 329-57 484-119 112-45 208-146 278-248 34-49 55-116-21-160-97-57-228-53-341-35-97 15-194 48-286 83-145 53-395 84-448 72zm0 0zm5777-4305c-20-11-45-46-3-66 116-57 239-118 369-122 94-4 194 35 267 95 74 61 129 152 151 245 24 103 12 222-28 321-42 102-126 184-209 258-61 55-142 84-215 122-69 37-99 86-152 126-47 36-54 94-92 132-38 37-77 45-119 45-47 0-105-19-147-36-61-25-54-91-22-131 51-63 113-128 169-187 52-55 110-97 167-150 66-63 95-161 111-252 14-83-33-176-86-251-44-60-95-114-161-149zm0 0zm-6119 5436c434 621 1497 1046 2525 918 853-107 1705-596 2024-1086 67-104 67-233-17-357-96-143-264-180-426-123-460 163-901 406-1389 619-373 162-612 282-1178 350-255 31-492 38-770-20-259-53-518-130-769-301z"/></g><g class="com.sun.star.drawing.ClosedBezierShape"><path fill="none" d="M2966 5864h15107v3159H2966z" class="BoundingBox"/><path fill="#fff" d="M15744 5991h2228l1 686-1222-1 659 803-648 758h1310v657c0 18-14 32-32 32h-2366v-457l864-989-794-923zm0 0zm-1765 644c-455 0-627 434-627 829 0 399 178 812 631 812 454 0 622-435 622-828 0-387-185-813-626-813zm0 0zm17-690c496 0 965 178 1258 592 184 261 269 574 269 890 0 950-640 1539-1576 1539-461 0-899-159-1194-525-219-275-319-617-319-965 0-912 658-1531 1562-1531zm0 0zm-3047 802v1375c86-28 164-77 227-144 135-145 175-351 175-543 0-190-37-397-169-541-64-71-144-119-233-147zm0 0zm-838 1372V6750c-86 30-164 80-226 148-134 147-176 351-176 545 0 188 46 379 175 522 61 68 140 122 227 154zm0 0zm843-2008c733 78 1279 523 1279 1324 0 812-550 1239-1288 1330v257h-839v-255c-732-81-1279-511-1279-1312 0-403 147-757 465-1012 232-185 528-293 823-331v-248h839zm0 0zM7106 7563h391l-145-449c-20-61-38-123-57-185-15 62-32 123-51 184zm0 0zm554 661h-714l-214 702h-917l985-2932h1035l1000 2932h-943zm0 0zM4713 6702h-865v2224h-882V5994h2629v2932h-882z"/></g><g class="com.sun.star.drawing.ClosedBezierShape"><path fill="none" d="M8903 3971h3251v1343H8903z" class="BoundingBox"/><path fill="#ffce08" d="M11937 5313c-122 0-214-88-214-211 0-124 92-213 216-213 125 0 214 88 214 213s-92 211-216 211zm0 0zm-439-357 59 273-22 10c-98 44-262 56-367 56-258 0-528-79-669-312-60-100-86-215-86-331 0-451 370-681 786-681 103 0 257 13 353 57l23 11-80 275-30-11c-80-30-166-43-252-43-238 0-411 124-411 375s175 371 413 371c78 0 178-13 251-39zm0 0zm-1434 350c-122 0-214-88-214-210 0-125 92-213 216-213 125 0 214 87 214 213 0 124-92 210-216 210zm0 0zm-786-1028v220h499v286h-499v492h-375V3990h909v288z"/></g></g><g class="com.sun.star.drawing.ClosedBezierShape"><path fill="none" d="M1534 9278h4720v6234H1534z" class="BoundingBox"/><path fill="#ffce08" d="M5964 15174c83-52 186-491 210-669-8 30-35 81-51 4-192-918-129-1818 121-2414 8-25 14-54 0-74-114-169-251-387-172-786 22-112 59-217 110-317-1481-596-2987-1138-4525-1639-9 107-17 216-24 325-90 1311-99 2691-99 4246v47c1397 459 2821 991 4275 1614-15-25-23-59-25-101-4-153 114-181 179-238 0 1 0 1 1 2z"/></g><g class="com.sun.star.drawing.ClosedBezierShape"><path fill="none" d="M1534 13896h11726v12491H1534z" class="BoundingBox"/><path fill="#fff" d="M5855 15548c-20-6-36-19-48-38-1453-622-2877-1155-4273-1613 2 441 38 883 103 1325 68 453 167 903 295 1350 567 1983 1714 3868 3158 5509 1573 1788 3496 3284 5405 4305 994-852 1404-1646 1691-2116 298-488 502-1058 711-1720 104-326 160-728 192-1098 59-687 113-1372 170-2056-2016-1243-3971-2291-5875-3180 0 10 0 20-1 31-1 16-22 25-41 19-51-15-98-42-139-74-28-22-43-65-65-85-23-19-47 6-48 23-4 39-3 83-23 118-33 58-109 104-178 112-71 9-171-24-224-72-98-90-75-136-84-212-5-46-34-61-76-53-138 27-256 107-348 249-14 22-41 16-42 6-6-55 17-124 26-174 29-150 66-233 207-271 67-18-17-72-46-86-151-77-268-144-447-199zm0 0zm1279 2932c-29-14-5-34 16-29 198 42 311 25 422-53 127-88 290-130 526-76 163 38 296 24 437-30 69-26 133-75 215-66 103 12 157 36 172 129 23 152-78 194-166 232-561 240-1100 207-1622-107zm0 0zm-95 1418c-27-28-14-62 13-116 55-110 166-206 304-208 57-1 109-3 167 33 49 31 88 51 157 55 66 3 124-45 183-75 81-41 154-67 308-54 174 14 348 48 519 84 154 32 363 2 503-23 93-17 190-52 281-38 69 10 141 62 136 160-4 69-78 125-146 149-194 68-405 71-612 69-129-1-254-4-387-29-106-21-215-3-317 29-96 30-201 55-306 60-75 4-146-4-217-27-61-18-120-35-185-43-40-4-83 3-117 30-37 29-93 32-139 17-51-18-104-29-145-73zm0 0zm549 593c3-106 117-183 321-139 53 11 301-19 447-73 92-34 188-67 286-83 113-18 244-22 340 35 76 45 56 111 22 160-70 103-166 204-278 248-155 63-323 113-484 119-152 7-294 2-450-49-95-31-207-90-204-218zm0 0zm2694 962c489-213 930-456 1389-619 163-57 330-20 427 123 84 124 84 253 16 357-318 490-1170 978-2024 1085-1027 128-2089-296-2523-916 251 170 509 247 767 301 279 57 516 50 771 19 565-68 804-188 1177-350z"/></g><g class="com.sun.star.drawing.ClosedBezierShape"><path fill="none" d="M5961 12333h8958v7065H5961z" class="BoundingBox"/><path fill="#fff" d="M5961 15172c74 210 253 210 440 247 150 31 307 36 453 83 192 63 338 185 446 338 77 109 90 212 84 377 1903 889 3859 1937 5875 3180 38-464 78-929 121-1394 6-64 37-81 60-68 60 35 92 68 162 74 141 13 259-3 414-86 374-199 522-499 677-893 212-539 266-1058 195-1512-20-132-69-240-141-320-78-48-157-96-236-144-28-7-58-13-89-16-327-32-676 249-943 566-139 165-235 343-311 540-70 182-105 380-119 575-17 238-11 485 20 715 10 58 35 116 30 175-2 26-30 50-54 60-114 45-237 84-358 90-77 4-161-13-239-1-43 7-85 20-127 10-27-6-57-9-56-61 5-511 80-1191 89-1429 12-304-31-316-83-550-92-415-643-1076-1091-1310-29-15-21-45-2-79 207-370 272-694 273-1002v-5c1-388-229-660-511-880-20-16-49-26-74-22-317 52-644 95-967 129-687 73-1364 104-1917 73-475-26-950-109-1324-295-14-6-34-6-42 6-156 261-239 575-266 815-55 485-117 888-177 1338 0 2-1 5-1 8-25 178-130 611-211 668zm0 0zm2406 308c344-218 938-295 1465-319 564-27 1173 98 1521 461 26 27 39 63 3 74-251 84-451 2-674-64-116-34-241-49-362-35-34 4-69 62-49 89 44 63 126 89 201 111 168 51 329 95 474 182 38 22 94 88 27 129-155 93-338 140-516 165-28 4-56-13-74-33-79-89-172-183-304-225-25-8-51 25-60 50-62 177-196 248-364 234-152-12-306-185-277-311 4-19-33-33-52-28-152 47-218 179-278 318-9 22-24 66-46 56-127-56-247-135-347-231-23-23 35-76 10-96-57-47-146-34-210-70-76-41-187-75-204-160-20-104 26-240 116-297zm0 0zm5317 566c-21-10-46-45-4-66 117-56 240-118 369-123 95-3 195 37 268 97 74 60 129 152 151 245 24 103 12 221-29 320-41 103-126 185-208 258-61 55-142 84-215 123-69 37-100 86-152 125-47 36-54 95-93 133-37 37-76 44-119 44-46 1-104-18-147-36-60-25-53-91-21-131 50-63 113-127 168-187 52-55 111-97 167-150 67-63 96-161 111-251 14-84-32-177-86-252-43-60-95-113-160-149z"/></g><g class="com.sun.star.drawing.ClosedBezierShape"><path fill="none" d="M13877 15482h4734v5963h-4734z" class="BoundingBox"/><path fill="#ffce08" d="M14103 18624c-80 60-151 129-158 221-25 317-46 628-68 937 822 521 1656 1074 2499 1662 921-1136 1697-2369 2234-3659-1125-824-2259-1590-3402-2303-66 1231-393 2613-1105 3142z"/></g></g></g></g></g></svg>