<?xml version="1.0" encoding="UTF-8" standalone="no"?>
<svg xmlns:dc="http://purl.org/dc/elements/1.1/" xmlns:cc="http://creativecommons.org/ns#" xmlns:rdf="http://www.w3.org/1999/02/22-rdf-syntax-ns#" xmlns:svg="http://www.w3.org/2000/svg" xmlns="http://www.w3.org/2000/svg" xmlns:sodipodi="http://sodipodi.sourceforge.net/DTD/sodipodi-0.dtd" xmlns:inkscape="http://www.inkscape.org/namespaces/inkscape" inkscape:version="1.0 (4035a4f, 2020-05-01)" sodipodi:docname="112.svg" id="svg2681" height="200.0pt" width="200.0pt" viewBox="0 0 200 200" version="1.1">
  <metadata id="metadata2687">
    <rdf:RDF>
      <cc:Work rdf:about="">
        <dc:format>image/svg+xml</dc:format>
        <dc:type rdf:resource="http://purl.org/dc/dcmitype/StillImage"/>
      </cc:Work>
    </rdf:RDF>
  </metadata>
  <defs id="defs2685"/>
  <sodipodi:namedview inkscape:current-layer="svg2681" inkscape:cy="133.33333" inkscape:cx="133.33333" inkscape:zoom="1.75125" showgrid="false" id="namedview2683" inkscape:window-height="480" inkscape:window-width="640" inkscape:pageshadow="2" inkscape:pageopacity="0" guidetolerance="10" gridtolerance="10" objecttolerance="10" borderopacity="1" bordercolor="#666666" pagecolor="#ffffff"/>
  <path style="fill:#ffffff;fill-opacity:0" id="path2625" fill="#ffffff" d="M 0.00 0.00 L 200.00 0.00 L 200.00 200.00 L 0.00 200.00 L 0.00 0.00 Z"/>
  <path id="path2627" fill="#1b4094" d="M 20.09 2.36 C 72.94 2.09 126.34 2.39 179.24 2.21 C 179.37 31.80 179.26 61.40 179.30 91.00 C 179.34 98.75 179.06 106.33 177.80 113.99 C 175.17 130.11 167.79 144.91 157.39 157.42 C 141.95 175.91 121.86 188.55 99.82 197.79 C 81.36 190.39 63.57 179.65 49.44 165.55 C 35.79 152.11 25.54 135.11 21.89 116.16 C 19.29 103.28 20.30 90.98 19.95 78.00 C 20.13 52.92 19.79 27.40 20.09 2.36 Z"/>
  <path id="path2629" fill="#ffd200" d="M 26.25 8.40 C 74.98 8.22 124.34 8.43 173.12 8.30 C 173.30 16.58 173.17 24.87 173.19 33.16 C 124.18 33.16 75.18 33.19 26.17 33.15 C 26.23 24.91 26.03 16.64 26.25 8.40 Z"/>
  <path id="path2631" fill="#1b4094" d="M 29.50 12.12 C 32.30 11.78 35.66 11.58 38.30 12.67 C 40.34 13.96 40.15 17.59 39.57 19.59 C 38.34 22.52 35.33 21.90 32.74 22.25 C 32.73 24.67 32.73 27.09 32.73 29.51 C 31.63 29.51 30.53 29.51 29.42 29.51 C 29.52 23.71 29.29 17.90 29.50 12.12 Z"/>
  <path id="path2633" fill="#1b4094" d="M 43.73 12.41 C 44.42 11.49 46.96 12.08 48.08 11.86 C 49.38 17.75 50.86 23.62 52.01 29.55 C 50.85 29.53 49.70 29.51 48.54 29.49 C 48.24 28.03 47.93 26.57 47.63 25.11 C 46.40 25.12 45.17 25.14 43.95 25.15 C 43.68 26.60 43.42 28.05 43.15 29.50 C 42.01 29.49 40.86 29.48 39.71 29.47 C 41.19 23.82 42.11 18.00 43.73 12.41 Z"/>
  <path id="path2635" fill="#1b4094" d="M 53.76 11.90 C 56.69 12.03 60.46 11.46 63.13 12.81 C 65.38 14.91 64.78 18.03 63.19 20.35 C 64.75 23.28 64.62 26.32 65.11 29.52 C 63.92 29.53 62.73 29.54 61.54 29.54 C 61.40 27.39 61.38 25.19 61.05 23.05 C 60.51 21.66 58.11 21.94 56.90 21.63 C 56.87 24.30 56.90 26.96 56.84 29.63 C 55.79 29.53 54.74 29.42 53.68 29.32 C 53.80 23.51 53.70 17.71 53.76 11.90 Z"/>
  <path id="path2637" fill="#1b4094" d="M 67.27 12.05 C 68.87 11.93 70.49 11.93 72.09 11.90 C 72.90 15.45 73.32 19.17 74.51 22.61 C 75.46 19.06 75.98 15.40 76.93 11.84 C 78.53 11.89 80.14 11.95 81.74 12.04 C 81.77 17.83 81.66 23.59 81.82 29.38 C 80.74 29.43 79.66 29.48 78.58 29.54 C 78.62 24.64 78.77 19.76 78.52 14.87 C 77.37 19.74 76.54 24.66 75.45 29.54 C 74.79 29.55 74.12 29.55 73.46 29.56 C 72.33 24.69 71.52 19.76 70.39 14.89 C 70.17 19.77 70.27 24.64 70.33 29.52 C 69.25 29.49 68.18 29.46 67.11 29.42 C 67.30 23.64 66.97 17.83 67.27 12.05 Z"/>
  <path id="path2639" fill="#1b4094" d="M 87.37 12.19 C 88.78 11.85 90.32 11.99 91.76 11.97 C 93.04 17.84 94.42 23.69 95.73 29.55 C 94.50 29.49 93.26 29.42 92.02 29.36 C 91.78 27.93 91.54 26.50 91.29 25.07 C 90.03 25.11 88.76 25.15 87.50 25.20 C 87.31 26.59 87.12 27.98 86.93 29.36 C 85.74 29.42 84.56 29.49 83.37 29.55 C 84.77 23.79 85.81 17.90 87.37 12.19 Z"/>
  <path id="path2641" fill="#1b4094" d="M 110.90 12.10 C 113.01 13.13 112.90 15.53 113.52 17.50 L 110.66 17.39 C 109.74 16.08 109.48 13.50 107.32 14.35 C 105.80 15.71 106.37 19.12 106.19 21.00 C 106.45 23.12 105.65 26.39 108.01 27.46 C 110.29 26.81 109.75 25.00 110.42 23.13 C 111.47 23.20 112.52 23.26 113.57 23.33 C 113.13 25.45 113.21 27.93 111.15 29.20 C 108.44 30.55 104.45 30.13 103.40 26.85 C 102.52 23.18 102.47 18.04 103.46 14.40 C 104.50 11.39 108.35 10.98 110.90 12.10 Z"/>
  <path id="path2643" fill="#1b4094" d="M 118.56 12.25 C 119.82 11.68 121.58 12.06 122.96 11.97 C 124.25 17.85 125.66 23.70 126.92 29.59 L 123.60 29.47 C 123.08 28.08 122.76 26.57 122.42 25.12 C 121.17 25.15 119.92 25.19 118.67 25.23 C 118.47 26.63 118.27 28.03 118.07 29.43 C 116.90 29.46 115.73 29.49 114.56 29.52 C 115.98 23.79 117.00 17.94 118.56 12.25 Z"/>
  <path id="path2645" fill="#1b4094" d="M 128.61 11.86 C 129.68 11.91 130.75 11.97 131.82 12.02 C 131.85 16.83 131.83 21.64 131.83 26.45 C 133.80 26.46 135.78 26.45 137.75 26.46 C 137.75 27.47 137.75 28.49 137.75 29.51 C 134.68 29.51 131.61 29.50 128.54 29.45 C 128.62 23.59 128.54 17.73 128.61 11.86 Z"/>
  <path id="path2647" fill="#1b4094" d="M 147.79 12.19 C 149.63 13.07 149.69 15.66 150.28 17.37 C 149.20 17.38 148.11 17.40 147.02 17.40 C 146.45 15.46 146.24 13.22 143.63 14.62 C 142.47 18.30 142.68 22.82 143.48 26.57 C 146.44 28.93 146.56 25.32 146.98 23.28 C 148.04 23.25 149.11 23.22 150.17 23.19 C 149.90 24.74 150.00 26.76 149.05 28.07 C 147.65 30.12 144.58 30.22 142.46 29.49 C 140.23 28.42 139.80 26.28 139.63 24.02 C 139.50 20.84 139.25 17.27 140.26 14.22 C 141.41 11.29 145.30 10.98 147.79 12.19 Z"/>
  <path id="path2649" fill="#1b4094" d="M 152.64 11.88 C 153.71 11.91 154.77 11.95 155.84 12.00 C 155.91 17.81 155.81 23.62 155.93 29.43 C 154.82 29.46 153.71 29.50 152.60 29.53 C 152.62 23.64 152.57 17.76 152.64 11.88 Z"/>
  <path id="path2651" fill="#1b4094" d="M 161.19 12.18 C 163.78 11.01 167.51 11.26 168.97 14.08 C 169.98 16.46 169.80 19.45 169.82 22.00 C 169.66 24.66 169.76 27.68 167.21 29.28 C 164.75 30.35 160.89 30.26 159.47 27.54 C 158.27 25.03 158.46 21.73 158.48 19.00 C 158.64 16.56 158.74 13.49 161.19 12.18 Z"/>
  <path id="path2653" fill="#ffd200" d="M 163.34 14.35 C 164.74 13.79 165.84 14.45 166.17 15.92 C 166.64 19.15 166.68 22.72 166.08 25.93 C 165.33 27.45 163.76 27.85 162.51 26.53 C 161.60 23.86 161.73 20.75 161.88 17.96 C 162.08 16.98 162.06 14.55 163.34 14.35 Z"/>
  <path id="path2655" fill="#ffd200" d="M 32.64 14.36 C 33.83 14.48 35.02 14.61 36.21 14.75 C 36.53 15.78 36.67 16.81 36.63 17.82 C 36.30 20.07 34.34 19.19 32.64 19.81 C 32.63 18.00 32.63 16.18 32.64 14.36 Z"/>
  <path id="path2657" fill="#ffd200" d="M 56.86 14.40 C 58.88 14.69 61.50 14.00 61.29 17.01 C 61.30 19.81 58.81 19.17 56.88 19.47 C 56.87 17.78 56.87 16.09 56.86 14.40 Z"/>
  <path id="path2659" fill="#ffd200" d="M 45.82 15.83 C 46.49 18.04 46.80 20.30 46.97 22.59 C 46.14 22.53 45.30 22.46 44.46 22.39 C 44.87 20.20 45.30 18.01 45.82 15.83 Z"/>
  <path id="path2661" fill="#ffd200" d="M 89.43 15.69 C 89.95 17.93 90.41 20.19 90.83 22.45 C 89.94 22.46 89.04 22.47 88.15 22.48 C 88.52 20.20 88.93 17.94 89.43 15.69 Z"/>
  <path id="path2663" fill="#ffd200" d="M 120.70 15.75 C 121.26 17.99 121.62 20.26 121.92 22.54 C 121.05 22.50 120.17 22.46 119.30 22.42 C 119.72 20.19 120.18 17.96 120.70 15.75 Z"/>
  <path id="path2665" fill="#ffffff" d="M 26.26 39.25 C 35.68 39.07 45.13 39.26 54.56 39.17 C 54.51 54.59 54.59 70.01 54.51 85.43 C 45.06 85.36 35.60 85.43 26.14 85.39 C 26.28 70.03 26.01 54.60 26.26 39.25 Z"/>
  <path id="path2667" fill="#231f20" d="M 54.56 39.17 C 60.27 39.24 65.97 39.23 71.69 39.18 C 71.69 54.59 71.68 70.00 71.69 85.40 C 81.02 85.40 90.35 85.40 99.68 85.40 C 99.64 91.10 99.64 96.79 99.68 102.48 C 90.34 102.56 80.99 102.43 71.65 102.55 C 71.72 127.05 71.68 151.56 71.67 176.07 C 65.53 172.03 59.84 167.25 54.54 162.17 C 54.54 142.27 54.56 122.37 54.53 102.48 C 45.13 102.56 35.74 102.44 26.34 102.55 C 25.92 96.79 25.82 91.16 26.14 85.39 C 35.60 85.43 45.06 85.36 54.51 85.43 C 54.59 70.01 54.51 54.59 54.56 39.17 Z"/>
  <path id="path2669" fill="#ffffff" d="M 71.69 39.18 C 81.01 39.19 90.34 39.20 99.67 39.17 C 99.68 54.58 99.66 69.99 99.68 85.40 C 90.35 85.40 81.02 85.40 71.69 85.40 C 71.68 70.00 71.69 54.59 71.69 39.18 Z"/>
  <path id="path2671" fill="#ffd200" d="M 111.16 39.27 C 114.86 39.07 118.58 39.25 122.28 39.17 C 122.40 85.88 122.18 132.62 122.39 179.32 C 118.80 181.84 114.95 183.87 111.09 185.93 C 111.13 137.20 110.97 87.93 111.16 39.27 Z"/>
  <path id="path2673" fill="#ffd200" d="M 133.73 39.17 C 137.49 39.21 141.24 39.20 144.99 39.20 C 145.21 78.12 144.98 117.07 145.10 156.00 C 145.09 157.94 145.19 159.96 144.84 161.87 C 141.64 165.58 137.47 168.57 133.72 171.71 C 133.71 127.53 133.68 83.35 133.73 39.17 Z"/>
  <path id="path2675" fill="#ffd200" d="M 156.44 39.26 C 160.19 39.06 163.96 39.26 167.72 39.19 C 167.74 66.46 167.70 93.73 167.74 121.00 C 167.65 124.49 168.23 127.58 166.66 130.80 C 163.95 137.07 160.60 143.16 156.40 148.55 C 156.37 112.21 156.27 75.57 156.44 39.26 Z"/>
  <path id="path2677" fill="#ffffff" d="M 99.68 102.48 C 99.66 132.04 99.69 161.60 99.66 191.16 C 89.82 187.09 80.54 181.97 71.67 176.07 C 71.68 151.56 71.72 127.05 71.65 102.55 C 80.99 102.43 90.34 102.56 99.68 102.48 Z"/>
  <path id="path2679" fill="#ffffff" d="M 26.34 102.55 C 35.74 102.44 45.13 102.56 54.53 102.48 C 54.56 122.37 54.54 142.27 54.54 162.17 C 48.86 156.51 43.68 150.38 39.41 143.59 C 31.47 131.24 27.18 117.18 26.34 102.55 Z"/>
</svg>