<?xml version="1.0" encoding="UTF-8" standalone="no"?>
<!DOCTYPE svg PUBLIC "-//W3C//DTD SVG 1.1//EN" "http://www.w3.org/Graphics/SVG/1.1/DTD/svg11.dtd">
<svg xmlns="http://www.w3.org/2000/svg" version="1.1" viewBox="0 0 200 200" width="200.0pt" height="200.0pt">
<path d="M 0.00 0.00 L 69.85 0.00 C 68.87 8.42 66.67 17.33 60.62 23.62 C 54.50 29.75 45.14 32.26 36.79 33.31 C 36.34 55.86 35.93 78.45 36.58 101.00 C 36.97 119.42 42.17 137.65 51.44 153.56 C 59.90 168.10 71.66 180.81 85.15 190.82 C 89.90 194.29 94.67 197.54 100.03 199.99 C 105.68 197.35 111.00 193.70 115.98 189.97 C 133.02 177.03 146.99 160.01 155.18 140.17 C 160.29 127.76 163.13 114.42 163.42 101.00 C 164.07 78.45 163.66 55.86 163.21 33.30 C 154.80 32.24 145.54 29.79 139.38 23.62 C 133.35 17.37 131.13 8.36 130.15 0.00 L 200.00 0.00 L 200.00 200.00 L 0.00 200.00 L 0.00 0.00 Z" fill="#ffffff"/>
<path d="M 69.85 0.00 L 130.15 0.00 C 131.13 8.36 133.35 17.37 139.38 23.62 C 145.54 29.79 154.80 32.24 163.21 33.30 C 163.66 55.86 164.07 78.45 163.42 101.00 C 163.13 114.42 160.29 127.76 155.18 140.17 C 146.99 160.01 133.02 177.03 115.98 189.97 C 111.00 193.70 105.68 197.35 100.03 199.99 C 94.67 197.54 89.90 194.29 85.15 190.82 C 71.66 180.81 59.90 168.10 51.44 153.56 C 42.17 137.65 36.97 119.42 36.58 101.00 C 35.93 78.45 36.34 55.86 36.79 33.31 C 45.14 32.26 54.50 29.75 60.62 23.62 C 66.67 17.33 68.87 8.42 69.85 0.00 Z" fill="#cc0337"/>
<path d="M 76.62 7.68 C 92.21 7.69 107.79 7.69 123.38 7.68 C 125.38 15.88 128.20 23.61 134.39 29.62 C 140.45 35.41 147.75 37.92 155.66 40.08 C 155.89 52.72 155.81 65.36 156.10 78.00 C 155.55 92.83 156.65 106.56 153.11 121.18 C 146.41 150.89 125.89 175.94 100.00 191.34 C 84.02 181.86 70.07 168.62 60.13 152.89 C 50.48 137.72 44.97 119.97 44.37 102.00 C 43.70 81.39 44.09 60.65 44.38 40.02 C 52.49 37.93 60.08 35.16 66.12 29.12 C 71.98 23.13 74.67 15.66 76.62 7.68 Z" fill="#ffffff"/>
<path d="M 99.18 13.24 C 101.30 12.68 102.56 14.82 104.10 15.92 C 104.06 16.93 104.03 17.94 104.00 18.95 C 103.34 19.27 102.68 19.60 102.03 19.92 C 104.31 21.32 104.97 20.78 104.54 23.99 C 105.10 23.04 105.68 22.09 106.27 21.15 C 106.68 21.90 107.10 22.64 107.53 23.37 C 108.11 22.64 108.70 21.92 109.28 21.20 C 112.77 22.08 116.25 23.00 119.69 24.06 C 120.53 25.27 121.37 26.47 122.22 27.68 L 119.02 27.76 C 120.21 28.00 121.40 28.24 122.59 28.48 C 121.48 29.50 120.20 30.32 118.76 30.94 L 121.99 30.14 C 121.26 32.45 120.68 34.61 120.81 37.05 C 119.66 37.10 118.51 37.17 117.36 37.26 L 116.09 38.39 C 112.90 36.30 111.69 33.18 109.88 30.02 C 110.90 29.94 111.92 29.86 112.93 29.78 L 111.77 28.21 L 111.51 27.86 C 113.15 27.61 113.24 26.94 111.78 25.85 L 111.56 25.72 L 111.43 25.71 C 108.73 25.53 106.01 25.51 103.31 25.52 C 103.07 24.31 102.82 23.10 102.58 21.88 C 102.23 23.10 101.87 24.32 101.52 25.54 C 100.51 25.53 99.49 25.53 98.47 25.52 C 98.12 24.34 97.78 23.16 97.43 21.97 C 97.18 23.17 96.93 24.36 96.68 25.56 C 93.95 25.54 91.22 25.53 88.49 25.44 L 88.29 25.28 C 88.03 24.22 87.77 23.15 87.52 22.08 C 89.23 21.73 90.96 21.48 92.70 21.33 L 92.38 23.40 C 93.13 22.40 93.89 21.40 94.64 20.39 C 94.77 21.47 94.89 22.55 95.02 23.63 C 95.83 22.29 96.69 21.01 97.63 19.75 C 97.04 19.48 96.45 19.21 95.86 18.94 C 95.92 17.95 95.98 16.97 96.05 15.98 C 96.99 15.00 97.97 13.87 99.18 13.24 Z" fill="#d4bf90"/>
<path d="M 99.26 16.99 L 100.00 16.59 L 100.73 16.99 L 100.73 17.79 L 100.00 18.19 L 99.26 17.79 L 99.26 16.99 Z" fill="#f5f0e5"/>
<path d="M 87.52 22.08 C 87.77 23.15 88.03 24.22 88.29 25.28 L 88.32 25.46 L 86.60 27.02 L 88.54 28.25 L 88.39 28.42 L 87.00 29.97 C 88.06 29.97 89.12 29.97 90.18 29.97 C 88.23 33.11 87.37 36.29 83.82 38.09 C 82.28 37.51 80.70 37.19 79.10 36.84 C 79.04 35.57 79.00 34.29 78.86 33.02 C 79.49 32.73 80.11 32.44 80.74 32.15 C 82.08 33.49 83.43 34.83 84.78 36.17 C 84.98 35.42 85.19 34.67 85.39 33.92 C 84.82 32.36 84.25 30.79 83.70 29.23 C 84.44 28.85 85.19 28.48 85.93 28.11 C 84.87 28.06 83.81 28.01 82.75 27.96 C 83.72 27.48 84.69 26.99 85.66 26.50 C 86.10 25.36 86.55 24.21 86.96 23.05 L 86.16 22.39 C 86.61 22.29 87.06 22.18 87.52 22.08 Z" fill="#dccca6"/>
<path d="M 97.43 21.97 C 97.78 23.16 98.12 24.34 98.47 25.52 C 99.49 25.53 100.51 25.53 101.52 25.54 C 101.87 24.32 102.23 23.10 102.58 21.88 C 102.82 23.10 103.07 24.31 103.31 25.52 C 106.01 25.51 108.73 25.53 111.43 25.71 L 111.78 25.85 L 111.51 27.86 L 111.28 28.14 C 110.32 29.03 109.37 29.91 108.41 30.80 C 109.72 34.08 111.17 36.42 113.83 38.83 C 112.93 39.75 112.03 40.68 111.13 41.60 C 111.55 42.17 111.97 42.74 112.38 43.32 L 112.38 43.88 C 103.88 41.31 96.13 41.30 87.64 43.89 L 87.62 43.33 C 88.03 42.74 88.44 42.16 88.86 41.58 C 87.97 40.66 87.08 39.74 86.19 38.82 C 88.83 36.40 90.27 34.09 91.59 30.81 C 90.68 29.91 89.82 29.00 88.69 28.35 L 88.54 28.25 L 86.60 27.02 L 88.32 25.46 L 88.49 25.44 C 91.22 25.53 93.95 25.54 96.68 25.56 C 96.93 24.36 97.18 23.17 97.43 21.97 Z" fill="#d6c295"/>
<path d="M 99.14 22.34 C 100.90 21.14 102.16 23.85 100.02 24.30 C 98.86 24.02 98.57 23.36 99.14 22.34 Z" fill="#eae0c9"/>
<path d="M 86.16 22.39 L 86.96 23.05 C 86.55 24.21 86.10 25.36 85.66 26.50 C 84.69 26.99 83.72 27.48 82.75 27.96 L 82.13 28.25 C 81.77 29.24 81.81 30.15 82.24 30.96 C 83.37 30.28 83.54 29.28 82.75 27.96 C 83.81 28.01 84.87 28.06 85.93 28.11 C 85.19 28.48 84.44 28.85 83.70 29.23 C 84.25 30.79 84.82 32.36 85.39 33.92 C 85.19 34.67 84.98 35.42 84.78 36.17 C 83.43 34.83 82.08 33.49 80.74 32.15 C 80.11 32.44 79.49 32.73 78.86 33.02 L 78.10 30.42 C 79.21 30.50 80.32 30.58 81.42 30.66 C 80.14 30.07 78.85 29.49 77.57 28.89 C 78.79 28.31 80.01 27.72 81.24 27.15 C 82.51 26.88 83.62 24.94 81.73 24.75 C 80.95 25.27 80.79 26.06 81.24 27.15 L 77.47 27.89 C 80.07 24.20 81.83 23.28 86.16 22.39 Z" fill="#c8ad70"/>
<path d="M 89.29 23.32 C 89.82 23.79 89.82 23.79 89.29 23.32 Z" fill="#fdfcfa"/>
<path d="M 110.20 23.32 C 110.74 23.79 110.74 23.79 110.20 23.32 Z" fill="#fdfcfa"/>
<path d="M 84.09 24.31 C 84.63 24.78 84.63 24.78 84.09 24.31 Z" fill="#faf7f2"/>
<path d="M 115.29 24.27 C 115.80 24.76 115.80 24.76 115.29 24.27 Z" fill="#f9f7f1"/>
<path d="M 81.73 24.75 C 83.62 24.94 82.51 26.88 81.24 27.15 C 80.79 26.06 80.95 25.27 81.73 24.75 Z" fill="#e6dbc0"/>
<path d="M 88.29 25.28 L 88.49 25.44 L 88.32 25.46 L 88.29 25.28 Z" fill="#f9f6f0"/>
<path d="M 111.56 25.72 L 111.78 25.85 L 111.43 25.71 L 111.56 25.72 Z" fill="#f8f5ee"/>
<path d="M 111.78 25.85 C 113.24 26.94 113.15 27.61 111.51 27.86 L 111.78 25.85 Z" fill="#c2a461"/>
<path d="M 92.61 26.88 C 93.94 26.90 95.27 26.95 96.60 27.01 C 96.78 28.49 96.94 29.96 97.07 31.44 C 93.52 31.89 93.97 29.25 92.61 26.88 Z" fill="#fbf9f4"/>
<path d="M 103.74 26.69 C 104.95 26.78 106.17 26.89 107.38 27.01 C 105.96 29.43 106.45 31.94 102.80 31.40 C 103.09 29.83 103.38 28.25 103.74 26.69 Z" fill="#fbf9f4"/>
<path d="M 82.13 28.25 L 82.75 27.96 C 83.54 29.28 83.37 30.28 82.24 30.96 C 81.81 30.15 81.77 29.24 82.13 28.25 Z" fill="#ece3cf"/>
<path d="M 88.54 28.25 L 88.69 28.35 L 88.39 28.42 L 88.54 28.25 Z" fill="#f9f7f1"/>
<path d="M 88.69 28.35 C 89.82 29.00 90.68 29.91 91.59 30.81 C 90.27 34.09 88.83 36.40 86.19 38.82 C 87.08 39.74 87.97 40.66 88.86 41.58 C 88.44 42.16 88.03 42.74 87.62 43.33 C 86.46 41.50 85.20 39.76 83.82 38.09 C 87.37 36.29 88.23 33.11 90.18 29.97 C 89.12 29.97 88.06 29.97 87.00 29.97 L 88.39 28.42 L 88.69 28.35 Z" fill="#c6aa6c"/>
<path d="M 99.27 28.12 L 100.00 27.72 L 100.74 28.12 L 100.73 28.92 L 100.00 29.32 L 99.26 28.92 L 99.27 28.12 Z" fill="#eae1cb"/>
<path d="M 111.28 28.14 L 111.77 28.21 L 112.93 29.78 C 111.92 29.86 110.90 29.94 109.88 30.02 C 111.69 33.18 112.90 36.30 116.09 38.39 C 114.69 39.91 113.47 41.56 112.38 43.32 C 111.97 42.74 111.55 42.17 111.13 41.60 C 112.03 40.68 112.93 39.75 113.83 38.83 C 111.17 36.42 109.72 34.08 108.41 30.80 C 109.37 29.91 110.32 29.03 111.28 28.14 Z" fill="#c6aa6c"/>
<path d="M 111.28 28.14 L 111.51 27.86 L 111.77 28.21 L 111.28 28.14 Z" fill="#f9f7f1"/>
<path d="M 117.82 28.09 C 118.24 29.01 118.24 29.93 117.83 30.85 C 116.34 30.55 116.30 28.35 117.82 28.09 Z" fill="#ede4d1"/>
<path d="M 115.27 29.13 C 116.92 29.43 114.81 32.86 113.99 33.29 C 112.44 34.38 113.18 32.37 113.34 31.63 C 113.74 30.41 114.39 29.57 115.27 29.13 Z" fill="#f8f5ef"/>
<path d="M 99.27 30.11 L 100.01 29.71 L 100.74 30.12 L 100.74 30.92 L 100.00 31.32 L 99.27 30.92 L 99.27 30.11 Z" fill="#ebe2cc"/>
<path d="M 107.27 34.55 C 102.14 35.47 97.87 35.47 92.73 34.55 C 97.68 33.24 102.32 33.23 107.27 34.55 Z" fill="#cbb178"/>
<path d="M 95.95 38.34 C 96.93 37.49 99.45 38.37 98.52 39.80 C 97.54 40.62 94.93 39.80 95.95 38.34 Z" fill="#fbf9f5"/>
<path d="M 102.33 38.06 C 103.46 37.85 104.13 38.15 104.34 38.97 C 103.63 41.27 99.24 39.69 102.33 38.06 Z" fill="#fbf9f5"/>
<path d="M 92.81 39.15 C 93.47 40.59 90.78 40.92 89.86 40.70 C 90.18 39.40 91.54 38.40 92.81 39.15 Z" fill="#ede4d0"/>
<path d="M 107.22 39.18 C 108.04 38.55 110.53 39.39 109.95 40.61 C 109.13 41.23 106.64 40.40 107.22 39.18 Z" fill="#ede5d1"/>
<path d="M 93.49 44.68 C 111.89 42.13 130.67 50.59 140.99 66.01 C 151.89 81.87 152.25 103.70 141.90 119.93 C 134.84 131.22 123.12 139.45 110.03 142.05 C 98.59 144.44 86.29 142.62 76.07 136.93 C 64.96 130.81 56.44 120.37 52.74 108.24 C 47.98 92.94 51.12 75.63 61.13 63.10 C 69.04 53.04 80.79 46.31 93.49 44.68 Z" fill="#cc0337"/>
<path d="M 95.69 46.72 C 97.97 47.19 99.17 46.34 99.63 49.01 C 99.14 51.38 97.26 50.85 95.40 51.50 C 94.87 52.72 94.33 53.93 93.77 55.13 C 93.02 52.40 92.91 49.68 92.93 46.86 C 93.64 47.89 94.34 48.93 95.01 49.99 C 95.99 49.91 96.96 49.83 97.94 49.75 L 97.78 48.09 L 95.31 48.58 C 95.41 47.95 95.51 47.33 95.69 46.72 Z" fill="#f3c7d2"/>
<path d="M 105.73 47.18 C 108.24 47.35 110.68 47.52 112.60 49.35 C 110.60 49.30 108.62 49.15 106.64 48.94 C 108.03 49.88 109.38 50.87 110.62 52.00 C 109.45 51.92 108.27 51.84 107.09 51.75 C 106.33 52.81 105.49 53.78 104.56 54.66 C 104.78 52.13 105.07 49.64 105.73 47.18 Z" fill="#eeafbf"/>
<path d="M 89.06 48.34 C 90.81 49.34 90.22 50.85 90.24 52.50 C 90.85 53.44 91.46 54.38 92.07 55.31 C 90.20 54.43 88.35 53.53 86.46 52.69 C 86.54 54.29 86.64 55.65 85.95 57.16 C 84.94 54.73 84.15 52.23 83.38 49.72 C 85.25 49.21 87.15 48.65 89.06 48.34 Z" fill="#f4cdd7"/>
<path d="M 88.88 50.10 C 89.72 51.93 85.43 52.96 85.11 51.08 C 85.50 49.74 87.84 49.30 88.88 50.10 Z" fill="#d83f67"/>
<path d="M 113.23 50.08 C 115.91 48.75 120.34 50.64 119.57 54.03 C 119.15 56.95 115.97 57.82 113.67 56.32 C 111.15 55.10 111.19 51.72 113.23 50.08 Z" fill="#f4cdd8"/>
<path d="M 81.40 50.72 C 80.51 52.82 78.75 53.72 77.09 55.13 C 78.39 54.77 79.68 54.41 80.98 54.04 L 81.29 55.03 C 80.28 55.97 79.33 56.92 78.52 58.04 C 80.56 57.29 82.54 56.41 84.57 55.62 C 83.26 58.22 80.94 58.84 78.54 60.08 C 77.45 57.96 76.33 55.85 75.21 53.75 C 77.23 52.65 79.26 51.58 81.40 50.72 Z" fill="#eeabbc"/>
<path d="M 114.31 51.13 C 115.72 50.82 116.73 51.39 117.96 51.96 C 117.98 52.87 117.98 53.78 117.98 54.70 C 117.26 55.14 116.54 55.59 115.82 56.03 C 115.05 55.49 114.30 54.92 113.57 54.33 C 112.61 52.88 113.55 52.34 114.31 51.13 Z" fill="#cc0337"/>
<path d="M 121.24 54.13 C 124.24 52.40 128.84 55.53 127.32 58.99 C 126.24 61.72 123.04 61.73 121.09 59.93 C 119.11 58.46 119.46 55.60 121.24 54.13 Z" fill="#f4cdd8"/>
<path d="M 73.21 54.72 C 74.26 57.28 75.25 59.86 76.21 62.46 C 74.22 62.45 72.65 61.68 70.93 60.76 C 71.51 62.56 71.98 64.36 72.30 66.23 C 69.47 65.07 66.79 63.69 64.36 61.83 C 66.61 61.57 68.16 62.37 70.08 63.34 C 69.31 61.52 68.67 59.77 68.71 57.76 C 70.35 58.56 71.97 59.39 73.59 60.24 C 73.15 57.97 71.23 56.63 73.21 54.72 Z" fill="#efb2c2"/>
<path d="M 125.98 57.91 C 125.40 58.78 124.78 59.62 124.12 60.44 C 123.17 59.57 120.23 58.07 121.44 56.48 C 122.37 53.78 126.62 55.27 125.98 57.91 Z" fill="#cc0337"/>
<path d="M 92.50 56.75 C 96.61 55.95 100.87 55.89 105.02 56.35 C 119.24 58.12 131.59 68.52 135.89 82.17 C 140.41 96.02 136.24 111.66 125.46 121.43 C 114.06 132.01 96.61 134.38 82.82 127.19 C 69.51 120.46 61.22 105.87 62.41 90.97 C 63.46 74.33 76.16 59.95 92.50 56.75 Z" fill="#ffffff"/>
<path d="M 129.02 57.67 C 132.01 58.30 133.67 61.12 135.51 63.29 C 134.32 62.86 133.13 62.41 131.95 61.96 C 130.28 63.25 129.19 66.03 126.71 65.09 C 128.06 63.55 129.46 62.07 130.88 60.60 C 130.24 59.64 129.61 58.67 129.02 57.67 Z" fill="#f0b9c7"/>
<path d="M 111.14 60.10 C 108.77 61.29 106.38 62.42 103.97 63.52 C 102.42 63.39 100.87 63.27 99.32 63.20 C 99.91 64.18 100.51 65.17 101.10 66.16 C 98.85 66.63 96.60 66.66 94.31 66.71 C 95.02 67.61 95.74 68.51 96.45 69.42 C 94.59 69.69 92.74 69.77 90.87 69.82 C 91.20 70.56 91.52 71.30 91.82 72.06 C 90.84 73.90 87.52 73.10 85.73 73.62 C 86.58 74.29 87.43 74.96 88.29 75.63 C 85.39 78.33 82.53 81.07 79.77 83.91 C 74.89 83.84 71.53 82.62 67.42 80.10 C 70.96 72.95 75.90 66.89 82.99 63.03 C 91.59 58.10 101.68 57.42 111.14 60.10 Z" fill="#000000"/>
<path d="M 113.74 61.14 C 118.59 63.45 122.77 66.51 126.56 70.31 C 123.15 72.38 119.91 74.20 117.45 77.46 C 115.68 79.65 115.00 82.03 112.27 83.26 C 107.06 85.92 102.54 89.51 98.20 93.40 C 94.32 92.88 90.70 92.62 87.24 90.64 C 84.78 89.27 83.19 87.13 81.43 85.02 C 84.39 82.32 87.13 79.34 90.22 76.79 C 91.66 76.92 93.11 77.11 94.55 77.34 C 93.91 76.21 93.27 75.09 92.63 73.96 C 94.71 73.12 96.42 73.64 98.54 73.99 C 97.88 72.80 97.23 71.62 96.58 70.43 C 98.71 70.07 100.47 70.81 102.48 71.38 C 101.93 70.28 101.38 69.18 100.83 68.09 C 101.59 67.63 102.36 67.17 103.12 66.71 C 104.52 67.21 105.92 67.70 107.33 68.16 C 106.87 67.05 106.39 65.94 105.91 64.84 C 108.50 63.59 111.08 62.25 113.74 61.14 Z" fill="#000000"/>
<path d="M 65.23 63.51 C 64.77 64.58 64.30 65.65 63.82 66.71 C 65.46 67.86 67.08 69.02 68.68 70.24 C 66.23 71.66 64.87 69.26 62.88 68.12 C 61.86 68.83 60.84 69.53 59.80 70.21 C 61.09 67.39 62.11 64.72 65.23 63.51 Z" fill="#eeacbd"/>
<path d="M 136.65 64.16 C 137.78 65.72 138.84 67.24 139.61 69.02 C 139.14 70.76 136.80 72.07 135.61 73.42 C 133.41 72.14 132.09 70.25 130.68 68.21 C 132.65 66.83 134.61 65.42 136.65 64.16 Z" fill="#f1becb"/>
<path d="M 135.88 66.65 C 137.46 66.86 138.12 68.35 138.01 69.81 C 136.55 69.41 135.68 68.16 135.88 66.65 Z" fill="#d5315b"/>
<path d="M 133.25 68.14 C 134.54 67.39 136.39 69.92 135.82 71.07 C 134.60 71.82 132.46 69.28 133.25 68.14 Z" fill="#d2214e"/>
<path d="M 58.55 71.23 C 60.85 72.11 63.09 72.98 65.23 74.23 C 64.38 76.20 60.66 76.42 58.80 77.21 C 60.48 78.12 62.10 79.10 63.62 80.28 C 60.70 80.06 58.35 79.23 55.88 77.71 C 55.85 75.30 60.37 75.33 61.94 74.53 C 60.63 73.85 59.33 73.18 58.02 72.50 L 58.55 71.23 Z" fill="#eda6b9"/>
<path d="M 127.92 71.98 C 130.05 75.40 132.11 78.63 133.39 82.48 C 135.34 88.30 135.47 94.80 134.37 100.80 C 132.46 110.32 126.66 118.48 118.48 123.67 C 122.30 110.19 122.12 95.88 116.67 82.88 C 119.08 77.71 123.08 74.71 127.92 71.98 Z" fill="#000000"/>
<path d="M 134.33 74.16 C 137.38 73.93 140.44 73.95 143.50 74.03 C 142.46 77.32 140.18 79.46 137.75 81.77 C 137.79 80.07 137.84 78.37 137.88 76.68 C 136.66 75.89 135.46 75.07 134.33 74.16 Z" fill="#e5839d"/>
<path d="M 62.37 81.33 C 61.38 82.54 60.26 83.71 59.45 85.05 C 59.05 86.37 60.46 87.85 60.92 89.09 C 58.82 87.85 54.26 86.03 53.95 83.38 C 56.71 82.32 59.48 81.84 62.37 81.33 Z" fill="#eda7b9"/>
<path d="M 145.01 80.53 C 145.21 81.12 145.41 81.71 145.62 82.30 C 143.75 82.67 141.89 83.03 140.02 83.39 C 140.40 85.33 141.00 87.09 140.34 89.07 C 142.76 88.90 145.18 88.78 147.60 88.76 C 146.50 91.13 143.17 90.34 140.98 90.78 C 141.12 92.32 141.27 93.86 141.42 95.39 L 140.00 95.35 C 139.98 90.82 139.28 86.54 138.09 82.18 C 140.39 81.63 142.70 81.07 145.01 80.53 Z" fill="#eb9fb2"/>
<path d="M 66.47 82.45 C 67.37 82.93 68.28 83.41 69.20 83.88 C 72.50 85.54 76.01 86.07 79.66 86.39 C 81.92 88.98 83.92 91.44 87.07 93.03 C 90.50 94.83 94.03 95.03 97.80 95.49 C 99.42 103.74 98.72 112.11 95.03 119.72 C 85.09 117.06 74.43 112.41 66.87 105.32 C 64.33 97.84 64.51 90.04 66.47 82.45 Z" fill="#000000"/>
<path d="M 56.49 84.15 L 57.21 83.74 L 57.95 84.12 L 57.98 84.93 L 57.26 85.34 L 56.51 84.96 L 56.49 84.15 Z" fill="#d73b64"/>
<path d="M 114.98 84.33 C 120.00 97.40 120.36 112.18 115.44 125.33 C 109.26 128.23 103.36 129.07 96.57 128.81 C 96.66 125.36 95.95 121.84 97.64 118.77 C 101.30 111.50 101.49 102.96 99.90 95.10 C 104.40 90.74 109.25 86.96 114.98 84.33 Z" fill="#000000"/>
<path d="M 58.64 91.69 L 59.93 92.25 C 60.63 96.27 60.91 100.25 60.08 104.29 C 61.09 105.16 61.98 106.11 62.75 107.14 C 59.56 106.88 56.59 106.17 53.58 105.10 C 55.81 102.94 58.16 100.93 60.59 98.99 C 57.93 99.01 55.28 99.03 52.62 98.95 C 53.31 95.91 56.74 97.32 59.03 96.89 C 58.90 95.16 58.76 93.43 58.64 91.69 Z" fill="#e6859e"/>
<path d="M 144.92 99.96 C 146.48 102.85 146.50 106.50 142.83 107.59 C 143.35 105.40 145.13 103.42 143.68 101.29 C 142.45 100.82 141.51 101.00 140.84 101.83 C 139.55 102.90 140.40 104.61 140.45 106.04 C 139.93 106.32 139.41 106.60 138.89 106.88 C 138.80 104.63 138.09 102.54 139.67 100.64 C 141.07 99.05 143.12 99.70 144.92 99.96 Z" fill="#edaabb"/>
<path d="M 55.39 108.50 C 58.31 108.78 61.20 109.02 64.14 108.84 C 61.71 110.79 59.77 113.12 57.83 115.54 C 57.97 113.86 58.36 112.39 58.91 110.82 C 57.95 110.53 56.99 110.22 56.04 109.91 C 55.81 109.45 55.59 108.98 55.39 108.50 Z" fill="#eca4b7"/>
<path d="M 137.20 107.41 C 139.53 108.40 141.85 109.42 144.16 110.45 C 143.77 110.94 143.39 111.43 143.00 111.93 C 141.40 111.18 139.80 110.43 138.19 109.70 C 137.29 111.50 136.49 113.15 134.79 114.35 C 135.37 111.95 136.25 109.68 137.20 107.41 Z" fill="#eca4b7"/>
<path d="M 68.94 110.34 C 76.81 116.10 85.27 119.90 94.70 122.36 C 94.70 124.45 94.69 126.55 94.68 128.65 C 90.55 127.55 86.55 126.34 82.80 124.20 C 76.85 120.93 72.60 115.95 68.94 110.34 Z" fill="#000000"/>
<path d="M 64.00 113.81 C 66.24 113.81 67.61 116.04 68.05 117.99 C 68.09 120.49 65.77 121.19 64.08 122.43 C 62.15 120.84 60.28 119.77 59.93 117.05 C 60.71 115.26 61.75 113.56 64.00 113.81 Z" fill="#eeadbe"/>
<path d="M 135.91 114.83 C 138.05 115.75 140.04 116.83 140.32 119.41 C 138.42 118.37 136.59 117.21 134.78 116.04 C 134.16 116.93 133.55 117.82 132.93 118.71 C 134.79 120.14 136.64 121.20 137.48 123.53 C 135.53 122.70 132.10 121.30 131.56 118.98 C 131.57 117.00 133.62 113.97 135.91 114.83 Z" fill="#eca3b6"/>
<path d="M 64.04 114.82 C 65.64 116.47 67.05 117.34 65.68 119.75 C 64.02 119.93 63.08 120.61 62.12 118.81 C 61.23 116.66 62.72 116.19 64.04 114.82 Z" fill="#cc0337"/>
<path d="M 69.84 119.27 C 70.53 121.22 70.58 123.22 70.73 125.25 C 71.96 124.50 73.20 123.76 74.45 123.06 C 73.71 125.66 71.84 127.42 69.77 129.02 L 67.17 127.91 C 68.22 127.32 69.27 126.75 70.33 126.19 C 69.56 125.44 68.78 124.68 68.00 123.92 C 67.31 124.90 66.62 125.87 65.90 126.82 C 66.14 123.61 65.18 123.39 68.31 122.50 C 68.85 121.44 69.36 120.36 69.84 119.27 Z" fill="#efb4c3"/>
<path d="M 129.55 120.44 C 131.17 122.71 135.22 124.54 133.34 127.78 C 131.33 126.29 130.29 124.98 129.18 122.74 C 128.41 123.53 127.64 124.31 126.87 125.09 C 128.86 126.22 130.33 127.39 131.67 129.25 C 128.49 129.43 126.93 128.00 125.30 125.56 C 125.91 123.52 128.12 121.94 129.55 120.44 Z" fill="#f0b7c6"/>
<path d="M 111.45 131.49 C 113.60 131.30 115.40 132.77 115.31 135.01 C 115.62 138.53 110.70 140.50 108.67 137.32 C 106.94 134.76 108.42 131.79 111.45 131.49 Z" fill="#eda7b9"/>
<path d="M 87.36 131.85 C 88.29 131.83 89.21 131.81 90.14 131.79 C 89.31 134.37 88.48 136.94 87.40 139.43 C 86.16 137.22 87.25 134.31 87.36 131.85 Z" fill="#eca3b6"/>
<path d="M 93.14 132.97 C 94.99 132.62 96.50 133.29 98.23 133.80 C 97.88 135.65 98.67 138.86 96.85 139.98 C 95.11 140.10 92.60 140.47 91.80 138.46 C 91.49 136.71 91.84 134.28 93.14 132.97 Z" fill="#f0b8c7"/>
<path d="M 102.04 132.81 C 103.30 132.82 104.44 133.05 105.47 133.50 C 106.15 135.07 106.58 136.75 107.11 138.37 C 104.59 140.65 103.19 140.69 100.19 139.14 C 100.27 137.69 100.33 136.23 100.43 134.78 C 100.95 134.11 101.49 133.45 102.04 132.81 Z" fill="#f1bdca"/>
<path d="M 110.16 133.19 C 111.07 133.05 111.99 132.93 112.91 132.85 C 113.43 134.12 114.04 135.17 113.72 136.59 C 112.53 137.43 111.34 137.52 110.13 136.88 C 109.71 135.58 109.72 134.35 110.16 133.19 Z" fill="#ce0c3e"/>
<path d="M 94.21 134.10 C 95.95 133.11 97.60 135.58 95.22 135.99 C 93.96 135.64 93.63 135.01 94.21 134.10 Z" fill="#d63760"/>
<path d="M 102.11 134.34 C 102.97 133.64 103.85 133.60 104.74 134.23 C 106.22 136.67 100.59 136.98 102.11 134.34 Z" fill="#da4a6f"/>
<path d="M 93.16 137.09 C 94.84 136.68 95.91 136.96 96.37 137.94 C 95.82 139.76 92.90 138.93 93.16 137.09 Z" fill="#d01b49"/>
<path d="M 104.87 137.22 C 106.05 139.00 103.18 139.48 102.02 138.89 C 101.46 137.07 103.53 136.27 104.87 137.22 Z" fill="#d2204e"/>
<path d="M 102.83 151.83 C 102.84 159.85 102.83 167.87 102.83 175.89 C 100.97 175.89 99.11 175.88 97.25 175.88 C 97.25 169.62 97.26 163.36 97.25 157.10 C 96.00 157.55 94.75 157.99 93.50 158.43 C 93.02 157.06 92.54 155.69 92.06 154.31 C 95.65 152.73 98.84 151.72 102.83 151.83 Z" fill="#000000"/>
</svg>