<?xml version="1.0" encoding="UTF-8" standalone="no"?>
<!DOCTYPE svg PUBLIC "-//W3C//DTD SVG 1.1//EN" "http://www.w3.org/Graphics/SVG/1.1/DTD/svg11.dtd">
<svg xmlns="http://www.w3.org/2000/svg" version="1.1" viewBox="0 0 200 200" width="200.0pt" height="200.0pt">
<path d="M 0.00 0.00 L 95.29 0.00 C 89.46 0.77 83.91 0.94 78.21 2.41 C 56.52 7.11 36.72 19.43 22.69 36.60 C 12.77 48.62 5.73 62.98 2.41 78.21 C 1.22 82.87 0.67 87.61 0.65 92.42 L 0.64 92.88 L 0.00 90.56 L 0.00 0.00 Z" fill="#ffffff"/>
<path d="M 95.29 0.00 L 104.96 0.00 L 107.29 0.29 C 117.78 1.09 128.04 3.39 137.78 7.39 C 159.84 16.35 178.47 33.57 189.20 54.81 C 195.69 67.42 199.03 81.24 200.00 95.35 L 200.00 105.02 C 198.93 119.26 195.50 133.19 188.84 145.87 C 178.47 165.94 161.17 182.28 140.50 191.42 C 129.14 196.52 117.00 199.12 104.62 200.00 L 94.98 200.00 C 80.00 198.89 65.35 195.11 52.17 187.81 C 24.77 172.91 5.07 145.03 1.05 114.01 C 0.77 111.39 0.43 108.78 0.00 106.18 L 0.00 90.56 L 0.64 92.88 C 1.23 98.93 0.62 104.94 1.61 110.98 C 3.38 125.55 8.06 139.64 15.89 152.09 C 30.93 176.34 56.48 193.62 84.81 197.69 C 90.34 198.29 95.57 199.40 101.00 199.21 C 115.61 198.34 129.88 195.64 143.07 189.06 C 173.21 174.55 194.94 144.44 198.21 111.03 C 199.54 103.28 199.49 96.72 198.22 88.97 C 194.88 54.76 172.18 24.05 140.99 9.92 C 112.09 -3.37 77.13 -1.60 49.80 14.71 C 28.08 27.49 11.59 48.67 4.79 72.96 C 2.82 79.36 2.41 86.00 0.65 92.42 C 0.67 87.61 1.22 82.87 2.41 78.21 C 5.73 62.98 12.77 48.62 22.69 36.60 C 36.72 19.43 56.52 7.11 78.21 2.41 C 83.91 0.94 89.46 0.77 95.29 0.00 Z" fill="#000000"/>
<path d="M 104.96 0.00 L 200.00 0.00 L 200.00 95.35 C 199.03 81.24 195.69 67.42 189.20 54.81 C 178.47 33.57 159.84 16.35 137.78 7.39 C 128.04 3.39 117.78 1.09 107.29 0.29 L 104.96 0.00 Z" fill="#ffffff"/>
<path d="M 140.99 9.92 C 172.18 24.05 194.88 54.76 198.22 88.97 C 199.49 96.72 199.54 103.28 198.21 111.03 C 194.94 144.44 173.21 174.55 143.07 189.06 C 129.88 195.64 115.61 198.34 101.00 199.21 C 95.57 199.40 90.34 198.29 84.81 197.69 C 56.48 193.62 30.93 176.34 15.89 152.09 C 8.06 139.64 3.38 125.55 1.61 110.98 C 0.62 104.94 1.23 98.93 0.64 92.88 L 0.65 92.42 C 2.41 86.00 2.82 79.36 4.79 72.96 C 11.59 48.67 28.08 27.49 49.80 14.71 C 77.13 -1.60 112.09 -3.37 140.99 9.92 Z" fill="#fed201"/>
<path d="M 99.30 8.13 C 99.30 11.13 100.23 15.11 98.96 17.87 C 96.92 19.88 92.87 20.18 90.50 18.53 C 88.46 16.26 89.10 11.92 88.77 9.05 C 89.68 9.03 90.58 9.01 91.49 8.99 C 91.68 11.72 91.92 14.45 92.17 17.18 C 93.74 17.20 95.31 17.16 96.88 17.07 C 96.88 14.38 96.86 11.68 96.93 8.98 C 97.72 8.68 98.51 8.40 99.30 8.13 Z" fill="#000000"/>
<path d="M 102.17 8.19 C 103.02 8.50 103.86 8.82 104.70 9.14 C 106.52 11.29 108.05 13.59 109.65 15.91 C 110.32 13.14 108.90 9.60 112.47 8.70 C 112.49 12.51 112.21 16.30 111.94 20.10 C 111.10 20.04 110.25 19.98 109.41 19.91 C 107.74 17.46 106.03 15.04 104.30 12.64 C 104.14 14.84 103.99 17.05 103.85 19.25 L 101.36 19.01 C 101.62 15.40 101.86 11.79 102.17 8.19 Z" fill="#000000"/>
<path d="M 79.48 10.52 C 83.59 8.95 87.82 11.49 87.91 15.96 C 87.24 21.69 77.96 23.24 75.60 18.03 C 74.37 14.46 76.12 11.73 79.48 10.52 Z" fill="#000000"/>
<path d="M 125.93 16.49 C 125.54 18.02 125.64 20.34 124.53 21.49 C 121.53 22.77 117.61 21.92 115.21 19.73 C 113.13 17.48 113.65 12.91 116.54 11.53 C 120.34 9.95 126.51 11.19 125.93 16.49 Z" fill="#000000"/>
<path d="M 75.42 11.10 C 74.09 13.93 72.67 16.70 71.21 19.45 C 71.74 20.78 72.27 22.11 72.80 23.43 C 71.84 23.81 70.88 24.17 69.92 24.54 C 69.44 23.15 68.96 21.75 68.47 20.36 C 65.89 19.06 63.29 17.80 60.70 16.50 C 61.83 16.07 62.95 15.65 64.08 15.23 C 65.81 16.09 67.55 16.94 69.28 17.80 C 70.11 16.15 70.85 14.39 71.90 12.87 C 73.02 12.21 74.20 11.62 75.42 11.10 Z" fill="#000000"/>
<path d="M 80.45 12.44 C 83.65 11.18 86.25 14.94 84.53 17.59 C 82.85 19.90 77.76 19.46 77.83 16.00 C 77.46 14.28 79.02 13.00 80.45 12.44 Z" fill="#fed201"/>
<path d="M 119.07 13.02 C 121.84 12.49 123.02 14.63 124.77 16.31 C 123.17 16.24 121.57 16.21 119.98 16.21 C 118.23 18.37 122.50 18.31 123.60 19.35 C 121.62 19.75 119.89 20.17 118.06 18.96 C 115.46 18.00 116.41 13.35 119.07 13.02 Z" fill="#fed201"/>
<path d="M 135.45 15.77 C 139.21 16.87 142.50 18.70 145.03 21.74 C 144.44 22.63 143.86 23.52 143.27 24.41 C 142.82 26.45 143.29 28.17 140.92 29.01 C 137.46 28.83 134.00 26.53 130.88 25.12 C 132.36 21.99 133.69 18.75 135.45 15.77 Z" fill="#000000"/>
<path d="M 137.81 18.75 C 139.46 19.86 141.01 21.04 142.51 22.36 C 140.20 21.93 138.02 21.17 135.83 20.36 C 136.48 19.81 137.14 19.28 137.81 18.75 Z" fill="#fed201"/>
<path d="M 56.60 21.76 C 55.97 22.60 55.34 23.44 54.70 24.27 C 53.73 23.99 52.76 23.71 51.79 23.42 C 50.22 24.75 47.86 25.69 47.64 27.99 C 47.98 29.33 49.37 31.65 51.01 31.20 C 54.21 30.88 55.36 28.69 56.17 25.89 C 57.01 25.52 57.86 25.16 58.70 24.80 C 58.24 26.67 58.20 29.32 56.62 30.62 C 55.02 32.07 52.96 33.29 50.81 33.64 C 47.44 34.16 43.80 30.48 45.11 27.11 C 47.09 22.71 51.88 20.19 56.60 21.76 Z" fill="#000000"/>
<path d="M 135.83 22.39 C 137.69 23.39 139.46 24.52 141.00 25.97 C 138.52 26.93 136.30 25.20 134.02 24.36 C 134.61 23.69 135.22 23.04 135.83 22.39 Z" fill="#fed201"/>
<path d="M 147.30 24.27 C 152.46 22.30 158.88 28.20 155.39 33.39 C 152.29 37.54 146.59 35.28 144.66 31.31 C 143.32 28.72 144.75 25.45 147.30 24.27 Z" fill="#000000"/>
<path d="M 100.00 25.07 C 124.37 24.62 147.96 37.34 161.72 57.32 C 170.60 70.06 175.17 85.50 175.08 101.00 C 174.84 114.92 170.70 128.10 163.65 140.05 C 161.43 137.72 159.15 135.46 156.78 133.28 C 160.28 130.46 163.41 127.54 165.06 123.24 C 169.05 114.39 166.41 103.13 159.55 96.45 C 153.03 90.47 144.08 85.65 135.00 86.19 C 126.58 86.27 118.17 86.37 109.75 86.12 C 113.17 83.36 116.68 80.73 120.13 78.00 C 123.62 74.55 129.73 75.96 134.29 75.70 C 134.28 72.10 134.28 68.51 134.28 64.91 C 130.94 62.64 127.75 60.05 124.23 58.09 C 121.72 57.15 118.66 57.33 116.00 57.28 C 108.39 57.45 100.81 57.17 93.21 57.57 C 93.15 60.01 93.13 62.44 93.12 64.88 C 94.18 65.97 95.25 67.07 96.31 68.17 C 92.97 70.67 89.57 72.93 86.61 75.90 C 90.36 73.61 93.62 70.91 97.12 68.26 C 96.12 67.12 95.01 65.97 94.18 64.70 C 93.74 62.46 93.95 60.07 93.92 57.79 C 102.28 57.56 110.65 57.64 119.01 57.59 C 124.46 57.13 129.37 62.70 133.86 65.34 C 133.80 68.62 133.79 71.90 133.76 75.18 C 129.62 75.50 123.27 74.04 120.10 77.28 C 116.11 80.42 112.02 83.44 108.05 86.62 C 115.37 86.65 122.68 86.83 130.00 86.68 C 134.13 86.65 138.46 86.41 142.46 87.50 C 148.10 88.93 153.07 91.82 157.56 95.47 C 165.12 101.53 168.27 112.69 164.97 121.80 C 163.40 126.83 159.88 130.08 155.84 133.20 C 159.68 136.85 163.87 140.18 165.65 145.36 C 168.02 152.29 166.87 160.65 162.72 166.70 C 157.99 173.45 149.18 177.46 141.00 177.00 C 125.13 176.95 109.26 177.00 93.39 176.97 C 90.16 173.43 86.55 170.16 83.57 166.41 C 82.34 164.33 82.74 161.11 82.47 158.74 C 85.21 158.68 87.94 158.62 90.67 158.56 C 90.87 149.80 90.93 141.04 90.62 132.29 C 79.75 131.88 68.88 132.45 58.02 132.03 C 54.78 128.62 50.98 125.55 48.13 121.82 C 47.42 119.44 47.57 116.64 48.11 114.24 C 50.61 113.73 53.30 113.74 55.85 113.67 C 55.61 108.10 56.02 102.51 55.64 96.95 C 55.69 94.48 53.83 93.40 52.29 91.80 C 46.27 86.47 40.46 80.91 34.50 75.51 C 32.10 75.35 29.69 75.16 27.29 75.02 C 24.65 72.22 21.88 69.55 19.24 66.75 C 16.91 64.87 17.90 60.81 17.60 58.10 C 23.73 58.04 29.89 58.26 36.01 57.96 C 46.37 57.22 56.82 57.98 67.19 57.52 C 57.51 57.21 47.80 57.37 38.11 57.40 C 52.09 37.39 75.43 24.62 100.00 25.07 Z" fill="#000000"/>
<path d="M 149.19 26.22 C 150.30 25.47 152.33 27.06 153.19 27.81 C 155.38 30.25 152.12 34.62 149.16 32.90 C 145.96 31.57 145.96 27.49 149.19 26.22 Z" fill="#fed201"/>
<path d="M 157.61 27.80 C 158.38 28.58 159.14 29.37 159.89 30.17 L 160.22 30.56 C 160.41 32.44 160.47 34.33 160.57 36.22 C 162.60 36.17 164.62 36.13 166.65 36.09 C 167.45 36.86 168.25 37.63 169.04 38.40 C 166.08 38.49 163.11 38.62 160.14 38.74 C 159.17 39.87 158.20 40.99 157.22 42.12 C 156.50 41.43 155.79 40.74 155.07 40.05 C 156.04 38.96 157.01 37.86 157.98 36.76 C 157.88 33.77 157.74 30.79 157.61 27.80 Z" fill="#000000"/>
<path d="M 43.55 30.40 C 43.01 31.09 42.46 31.77 41.92 32.46 C 38.50 32.44 37.33 33.92 35.39 36.52 C 38.32 35.53 41.00 33.58 44.01 32.91 C 45.64 32.68 47.08 34.22 46.66 35.84 C 45.94 38.55 43.37 40.83 40.92 42.04 C 38.75 43.15 37.29 41.85 35.19 41.24 C 37.16 40.43 39.26 39.98 41.21 39.15 C 42.92 38.33 43.56 36.63 44.47 35.08 C 41.63 36.22 38.95 38.12 35.99 38.87 C 33.49 38.68 33.33 37.17 33.87 35.03 C 35.98 31.41 39.19 29.06 43.55 30.40 Z" fill="#000000"/>
<path d="M 99.68 32.52 C 100.39 34.66 101.07 36.80 101.73 38.96 C 104.11 38.99 106.49 39.02 108.87 39.05 C 107.03 40.46 105.18 41.87 103.33 43.27 C 104.01 45.48 104.71 47.68 105.41 49.88 C 103.52 48.49 101.63 47.11 99.74 45.72 C 97.86 47.06 96.00 48.41 94.14 49.75 C 94.79 47.56 95.45 45.38 96.13 43.19 C 94.24 41.80 92.37 40.39 90.48 39.00 C 92.84 38.98 95.20 38.96 97.57 38.94 C 97.93 37.86 98.29 36.78 98.65 35.69 C 98.99 34.63 99.34 33.58 99.68 32.52 Z" fill="#fed201"/>
<path d="M 31.55 39.57 C 32.03 40.24 32.52 40.91 33.02 41.58 C 34.65 42.46 36.99 42.56 36.69 45.01 C 35.93 48.35 32.65 51.17 30.58 53.82 C 27.90 51.48 25.17 49.19 22.44 46.89 C 25.31 43.71 26.89 40.28 31.55 39.57 Z" fill="#000000"/>
<path d="M 168.90 40.32 C 171.60 40.64 173.96 43.75 174.92 46.11 C 175.32 47.59 175.50 50.18 173.25 49.77 C 172.18 46.45 171.90 44.05 168.62 42.13 C 169.58 45.31 172.14 48.59 172.06 51.93 C 170.91 53.57 169.93 53.71 168.08 53.07 C 165.76 51.85 163.75 49.45 162.83 47.01 C 162.12 45.34 163.42 43.37 163.92 41.79 C 164.62 43.66 165.02 45.63 165.72 47.49 C 166.41 49.27 168.35 50.42 169.75 51.63 C 168.86 48.64 167.28 45.94 166.39 42.97 C 166.04 41.47 167.26 39.90 168.90 40.32 Z" fill="#000000"/>
<path d="M 30.51 41.68 C 29.56 45.15 29.13 46.11 25.68 47.38 C 26.93 44.90 28.26 43.31 30.51 41.68 Z" fill="#fed201"/>
<path d="M 33.74 44.03 C 34.05 46.78 32.41 48.16 31.00 50.23 C 30.34 49.69 29.68 49.14 29.01 48.59 C 30.52 46.99 32.06 45.45 33.74 44.03 Z" fill="#fed201"/>
<path d="M 18.88 59.33 C 34.59 59.32 50.31 59.33 66.02 59.32 C 65.99 60.97 65.97 62.61 65.95 64.26 C 63.50 64.25 61.05 64.25 58.60 64.25 C 65.40 70.65 72.31 76.95 79.22 83.25 C 87.81 76.97 96.37 70.63 104.89 64.26 C 101.76 64.25 98.63 64.26 95.50 64.26 C 95.47 62.62 95.45 60.98 95.42 59.34 C 104.67 59.30 113.92 59.33 123.17 59.33 C 123.17 60.97 123.18 62.61 123.19 64.25 C 120.17 64.25 117.15 64.26 114.12 64.26 C 103.19 72.31 92.17 80.27 81.19 88.27 C 81.15 97.34 81.21 106.42 81.16 115.50 C 83.02 115.50 84.88 115.51 86.74 115.52 C 86.75 117.13 86.76 118.74 86.77 120.35 C 74.09 120.37 61.42 120.35 48.74 120.36 C 48.75 118.62 48.75 116.89 48.75 115.16 C 51.71 115.17 54.66 115.16 57.61 115.16 C 57.58 107.95 57.59 100.74 57.60 93.52 C 47.41 84.32 37.20 75.17 27.07 65.89 C 24.82 63.50 21.91 64.45 18.88 64.15 C 18.88 62.54 18.89 60.93 18.88 59.33 Z" fill="#fed201"/>
<path d="M 29.03 75.40 C 31.47 75.86 33.70 75.60 35.60 77.38 C 41.04 82.23 46.30 87.28 51.75 92.11 C 53.02 93.46 55.20 94.94 55.17 96.95 C 55.59 102.35 55.18 107.81 55.35 113.23 C 52.67 113.35 49.99 113.47 47.31 113.56 C 47.26 116.48 47.25 119.40 47.33 122.33 C 51.01 125.57 54.15 129.80 58.16 132.57 C 68.75 133.34 79.53 132.49 90.17 132.94 C 90.40 141.35 90.36 149.77 90.20 158.19 C 87.47 158.23 84.74 158.28 82.01 158.30 C 82.19 160.90 82.04 163.77 82.72 166.28 C 84.81 169.20 87.61 171.63 90.02 174.28 C 79.02 172.99 68.33 168.91 59.06 162.89 C 43.00 152.45 31.15 135.75 26.92 117.03 C 23.61 103.25 24.52 88.81 29.03 75.40 Z" fill="#000000"/>
<path d="M 85.90 88.16 C 102.27 88.15 118.63 88.18 135.00 88.14 C 140.99 87.91 147.03 90.59 151.27 94.74 C 156.42 99.99 157.21 107.93 155.60 114.80 C 154.12 120.00 150.60 123.68 146.28 126.71 C 149.06 128.68 151.69 130.50 153.72 133.31 C 157.71 138.61 157.85 146.48 155.43 152.47 C 152.04 160.17 143.39 165.40 135.01 165.09 C 117.90 165.09 100.78 165.11 83.67 165.07 C 83.63 163.31 83.59 161.55 83.54 159.79 C 86.28 159.78 89.01 159.78 91.75 159.77 C 91.75 137.65 91.73 115.52 91.75 93.39 C 89.80 93.39 87.85 93.39 85.89 93.39 C 85.90 91.65 85.90 89.90 85.90 88.16 Z" fill="#fed201"/>
<path d="M 115.73 93.15 C 120.11 93.23 124.54 92.94 128.91 93.29 C 131.04 93.62 131.89 96.02 131.79 97.95 C 131.85 104.98 131.84 112.02 131.80 119.05 C 131.70 120.40 131.68 123.17 129.80 123.20 C 125.15 123.67 120.40 123.26 115.72 123.36 C 115.73 113.29 115.72 103.22 115.73 93.15 Z" fill="#000000"/>
<path d="M 200.00 105.02 L 200.00 200.00 L 104.62 200.00 C 117.00 199.12 129.14 196.52 140.50 191.42 C 161.17 182.28 178.47 165.94 188.84 145.87 C 195.50 133.19 198.93 119.26 200.00 105.02 Z" fill="#ffffff"/>
<path d="M 0.00 106.18 C 0.43 108.78 0.77 111.39 1.05 114.01 C 5.07 145.03 24.77 172.91 52.17 187.81 C 65.35 195.11 80.00 198.89 94.98 200.00 L 0.00 200.00 L 0.00 106.18 Z" fill="#ffffff"/>
<path d="M 115.73 129.24 C 120.33 129.38 125.06 128.91 129.61 129.50 C 132.22 130.47 131.72 133.79 131.84 136.00 C 131.62 143.52 132.27 151.19 131.34 158.66 C 126.13 159.25 120.96 159.35 115.72 159.28 C 115.74 149.27 115.72 139.25 115.73 129.24 Z" fill="#000000"/>
<path d="M 86.65 181.38 C 86.22 185.29 85.61 189.14 84.33 192.87 C 82.31 190.39 83.85 187.63 84.07 184.74 C 82.81 184.70 81.55 184.65 80.30 184.59 C 82.34 183.38 84.50 182.38 86.65 181.38 Z" fill="#000000"/>
<path d="M 116.90 182.02 C 118.39 182.91 117.64 184.57 117.69 186.00 C 118.34 186.34 118.99 186.68 119.64 187.02 C 118.99 188.52 119.11 190.72 117.32 191.30 C 115.19 192.30 113.24 192.25 111.45 190.64 C 110.84 188.38 110.63 185.40 110.89 183.07 C 112.53 181.71 114.91 180.98 116.90 182.02 Z" fill="#000000"/>
<path d="M 91.17 183.11 C 93.11 182.52 95.65 182.29 96.97 184.17 C 97.20 185.27 97.34 186.40 97.37 187.56 C 97.31 188.93 97.87 190.84 96.99 191.99 C 94.96 194.20 89.71 193.48 89.29 190.15 C 89.69 187.82 89.97 185.17 91.17 183.11 Z" fill="#000000"/>
<path d="M 106.54 183.46 C 108.94 184.78 108.57 188.72 108.02 190.95 C 105.93 194.43 101.47 194.00 99.85 190.20 C 101.30 190.71 102.74 191.25 104.18 191.80 C 104.72 191.49 105.26 191.18 105.80 190.86 C 105.51 188.65 105.75 186.43 105.50 184.22 C 104.28 184.33 103.14 184.58 102.00 185.02 C 101.67 186.66 102.41 187.83 104.20 188.54 C 103.25 188.94 102.30 189.34 101.35 189.74 C 100.81 188.37 99.34 186.60 100.04 185.09 C 101.32 182.78 104.32 182.02 106.54 183.46 Z" fill="#000000"/>
<path d="M 116.18 182.87 C 115.75 184.07 115.09 185.13 114.43 186.22 C 113.62 185.51 112.82 184.80 112.02 184.08 C 113.38 183.58 114.75 183.15 116.18 182.87 Z" fill="#fed201"/>
<path d="M 92.53 184.39 C 94.38 184.19 94.74 184.26 95.77 185.80 C 94.48 187.16 93.35 186.58 91.80 186.13 L 92.53 184.39 Z" fill="#fed201"/>
<path d="M 116.85 187.11 C 117.93 189.36 116.06 189.76 114.89 191.32 C 114.10 190.26 113.28 189.25 112.68 188.07 C 114.10 187.27 115.16 186.57 116.85 187.11 Z" fill="#fed201"/>
<path d="M 92.49 188.51 C 93.72 188.04 94.63 188.45 95.55 189.28 C 96.37 191.20 93.95 192.05 92.52 191.37 C 90.96 190.92 90.29 188.66 92.49 188.51 Z" fill="#fed201"/>
</svg>