<?xml version="1.0" encoding="UTF-8" standalone="no"?>
<!DOCTYPE svg PUBLIC "-//W3C//DTD SVG 1.1//EN" "http://www.w3.org/Graphics/SVG/1.1/DTD/svg11.dtd">
<svg xmlns="http://www.w3.org/2000/svg" version="1.1" viewBox="0 0 200 200" width="200.0pt" height="200.0pt">
<path d="M 0.00 0.00 L 200.00 0.00 L 200.00 200.00 L 0.00 200.00 L 0.00 0.00 Z" fill="none"/>
<path d="M 88.18 5.24 C 89.83 5.17 91.48 5.11 93.12 5.06 C 93.27 7.72 93.41 10.39 93.55 13.06 C 94.72 12.99 95.89 12.91 97.06 12.84 C 96.98 10.15 96.89 7.46 96.79 4.77 C 98.42 4.71 100.06 4.65 101.70 4.59 C 102.01 11.73 102.57 18.86 102.66 26.02 C 101.04 26.04 99.41 26.06 97.78 26.07 C 97.66 23.14 97.52 20.21 97.37 17.28 C 96.15 17.35 94.92 17.43 93.69 17.50 C 93.90 20.42 94.10 23.33 94.25 26.25 C 92.61 26.34 90.96 26.44 89.32 26.53 C 88.84 19.44 88.61 12.33 88.18 5.24 Z" fill="#01189a"/>
<path d="M 82.23 6.17 C 84.14 13.08 86.03 19.99 87.70 26.97 C 86.04 27.41 84.38 27.85 82.72 28.30 C 79.93 23.90 77.33 19.39 74.59 14.95 C 75.81 19.77 77.13 24.55 78.46 29.33 C 77.06 29.74 75.66 30.16 74.26 30.57 C 72.42 23.68 70.51 16.81 68.76 9.89 C 70.50 9.42 72.24 8.95 73.98 8.48 C 76.74 12.44 79.23 16.55 81.64 20.72 C 80.53 16.28 79.30 11.87 78.09 7.46 C 79.47 7.03 80.85 6.60 82.23 6.17 Z" fill="#01189a"/>
<path d="M 110.98 5.32 C 112.95 5.59 114.92 5.86 116.89 6.13 C 117.50 13.41 117.77 20.71 118.33 27.99 C 116.65 27.76 114.96 27.53 113.28 27.30 C 113.31 25.98 113.34 24.67 113.37 23.35 C 112.07 23.07 110.78 22.79 109.48 22.51 C 108.99 23.86 108.51 25.21 108.02 26.56 C 106.38 26.27 104.74 25.99 103.10 25.70 C 105.75 18.92 108.34 12.11 110.98 5.32 Z" fill="#01189a"/>
<path d="M 123.25 7.51 C 124.88 8.05 126.50 8.60 128.13 9.14 C 127.43 14.01 126.58 18.84 125.94 23.71 C 128.29 19.38 130.46 14.97 132.72 10.59 C 134.31 11.13 135.90 11.67 137.49 12.20 C 133.85 18.51 130.21 24.80 126.55 31.09 C 124.69 30.47 122.84 29.84 120.99 29.21 C 121.86 21.99 122.52 14.75 123.25 7.51 Z" fill="#01189a"/>
<path d="M 113.27 10.04 C 113.34 13.14 113.32 16.24 113.31 19.34 C 112.39 19.20 111.47 19.06 110.54 18.92 C 111.34 15.93 112.21 12.96 113.27 10.04 Z" fill="#fefefe"/>
<path d="M 62.91 12.23 C 63.57 13.31 64.20 14.42 64.83 15.52 C 62.81 16.58 60.80 17.65 58.79 18.72 C 59.48 19.99 60.17 21.26 60.86 22.53 C 62.73 21.59 64.60 20.66 66.48 19.72 C 67.11 20.86 67.75 21.99 68.38 23.13 C 66.46 24.10 64.54 25.07 62.61 26.04 C 63.41 27.58 64.20 29.12 64.99 30.66 C 67.03 29.66 69.07 28.65 71.10 27.63 C 71.71 28.77 72.32 29.92 72.93 31.07 C 69.35 32.85 65.78 34.66 62.23 36.51 C 59.01 30.16 55.84 23.78 52.64 17.42 C 56.06 15.70 59.44 13.86 62.91 12.23 Z" fill="#01189a"/>
<path d="M 140.73 14.17 C 142.37 14.85 143.91 15.80 145.46 16.66 C 144.45 21.30 143.28 25.89 142.09 30.48 C 144.41 26.62 146.65 22.71 148.98 18.86 C 150.25 19.60 151.51 20.35 152.77 21.09 C 149.17 27.25 145.51 33.39 141.93 39.56 C 140.39 38.64 138.86 37.72 137.32 36.80 C 138.51 31.85 139.84 26.93 141.00 21.98 C 138.48 26.15 136.15 30.44 133.61 34.61 C 132.36 33.82 131.12 33.04 129.87 32.26 C 133.58 26.29 136.89 20.05 140.73 14.17 Z" fill="#01189a"/>
<path d="M 45.43 22.46 C 49.69 21.70 51.72 25.49 52.36 29.10 C 56.29 29.94 59.64 33.36 58.56 37.55 C 57.13 40.86 53.18 43.24 50.43 45.42 C 45.89 39.87 41.47 34.25 36.89 28.74 C 39.60 26.62 42.26 23.82 45.43 22.46 Z" fill="#01189a"/>
<path d="M 45.58 26.73 C 46.54 27.73 47.50 28.74 48.50 29.70 C 47.72 30.51 46.95 31.32 46.17 32.12 C 45.13 30.80 44.09 29.47 43.06 28.15 C 43.90 27.67 44.74 27.20 45.58 26.73 Z" fill="#fefefe"/>
<path d="M 32.67 32.22 C 37.19 36.52 42.50 39.30 46.36 44.60 C 47.41 46.19 47.66 47.95 46.71 49.65 C 45.01 52.32 42.74 54.62 40.89 57.18 C 40.49 56.51 40.10 55.83 39.70 55.16 C 35.05 52.95 31.61 49.50 28.06 45.87 C 26.27 44.04 25.65 41.34 27.04 39.08 C 28.75 36.68 30.84 34.54 32.67 32.22 Z" fill="#01189a"/>
<path d="M 51.57 33.55 C 52.62 34.27 54.11 35.44 53.87 36.88 C 53.41 37.82 52.92 38.75 52.40 39.67 C 51.00 38.01 49.63 36.32 48.28 34.61 C 49.38 34.25 50.46 33.84 51.57 33.55 Z" fill="#fefefe"/>
<path d="M 33.10 38.75 C 34.37 41.37 35.56 44.02 36.66 46.71 C 34.26 44.89 32.00 43.19 30.69 40.37 C 31.49 39.82 32.29 39.28 33.10 38.75 Z" fill="#fefefe"/>
<path d="M 37.68 42.96 C 39.91 44.60 41.51 46.45 42.98 48.78 C 42.26 49.37 41.55 49.95 40.83 50.54 C 39.68 48.06 38.58 45.55 37.68 42.96 Z" fill="#fefefe"/>
<path d="M 178.67 46.92 C 186.47 58.57 191.44 71.59 193.69 85.42 C 183.04 82.23 172.20 79.84 161.19 78.25 C 172.73 82.28 183.90 87.04 194.54 93.08 C 195.20 104.95 194.10 116.73 190.46 128.08 C 181.10 123.29 171.56 118.60 161.66 115.02 C 170.67 121.39 179.73 127.59 188.20 134.70 C 183.48 146.32 177.11 156.24 168.56 165.40 C 158.54 157.31 149.98 147.86 141.40 138.31 C 147.39 149.84 155.05 160.57 163.25 170.61 C 153.52 179.14 143.07 185.23 130.90 189.61 C 124.87 180.74 120.86 171.02 116.78 161.18 C 117.82 171.48 120.73 181.90 123.66 191.82 C 110.60 195.00 97.06 195.70 83.81 193.29 C 82.47 184.88 82.12 176.47 82.80 167.98 C 83.20 161.73 84.65 155.81 84.16 149.51 C 78.13 151.02 73.94 155.97 68.00 157.24 C 64.50 157.05 63.23 153.61 62.14 150.84 C 60.49 145.75 58.62 140.33 58.51 134.95 C 58.39 133.44 59.16 131.17 61.02 131.44 C 67.07 132.31 71.82 139.06 77.97 140.18 C 78.81 140.42 79.58 140.11 80.28 139.23 C 81.97 135.69 81.84 130.87 77.88 128.92 C 73.62 128.67 69.35 130.87 64.99 130.72 C 61.60 130.66 57.06 129.94 54.59 127.39 C 51.71 123.16 51.39 117.20 51.69 112.25 C 53.99 110.80 56.58 109.42 58.53 107.52 C 60.20 106.10 59.85 103.32 60.23 101.32 C 57.53 103.60 55.03 106.34 51.09 105.16 C 48.89 101.92 49.68 95.40 53.40 93.41 C 61.11 87.90 70.51 83.97 79.22 80.31 C 83.80 78.37 88.49 76.71 93.21 75.16 C 94.09 73.56 94.87 71.50 96.33 70.36 C 100.35 67.21 105.50 65.02 110.18 63.05 C 111.05 62.58 112.51 62.19 112.92 61.21 C 114.49 58.23 115.39 55.36 118.01 53.06 C 123.98 48.03 131.31 45.37 139.02 44.57 C 152.14 43.08 165.80 43.88 178.67 46.92 Z" fill="#01189a"/>
<path d="M 21.93 45.70 C 23.97 48.57 25.88 51.54 27.85 54.46 C 31.70 55.09 35.56 55.68 39.45 56.06 C 39.60 56.69 39.74 57.31 39.89 57.93 C 39.22 58.87 38.56 59.81 37.90 60.74 C 35.10 60.32 32.31 59.90 29.50 59.57 C 31.36 61.55 33.34 63.09 35.62 64.56 C 34.80 65.94 33.98 67.33 33.17 68.71 C 27.06 65.10 20.93 61.52 14.80 57.93 C 15.64 56.50 16.48 55.08 17.32 53.65 C 20.09 55.28 22.86 56.90 25.65 58.50 C 23.49 55.70 21.38 52.88 19.32 50.01 C 20.19 48.56 21.03 47.13 21.93 45.70 Z" fill="#01189a"/>
<path d="M 27.62 70.74 C 29.09 71.29 30.56 71.84 32.02 72.39 C 31.46 73.91 30.90 75.43 30.33 76.95 C 28.83 76.40 27.32 75.86 25.81 75.32 C 26.41 73.79 27.02 72.27 27.62 70.74 Z" fill="#01189a"/>
<path d="M 16.05 73.83 C 15.87 75.39 15.67 76.94 15.47 78.50 C 13.02 78.65 10.76 77.67 10.80 81.12 C 15.04 82.52 20.20 83.99 24.64 83.79 C 26.98 81.05 22.82 80.67 21.09 79.69 C 21.31 78.17 21.53 76.66 21.76 75.14 C 24.60 76.11 28.35 76.51 29.11 80.01 C 29.74 83.34 28.09 88.78 24.01 88.89 C 19.45 88.82 14.82 87.47 10.42 86.36 C 5.77 85.09 6.26 78.69 8.58 75.58 C 10.45 73.05 13.33 73.94 16.05 73.83 Z" fill="#01189a"/>
<path d="M 98.97 78.42 C 103.18 78.62 106.27 80.79 109.40 83.36 C 103.90 84.17 98.61 84.24 93.50 86.75 C 93.68 86.40 93.86 86.04 94.04 85.68 C 95.03 85.11 95.98 84.50 96.90 83.83 C 97.65 82.12 97.76 79.86 98.97 78.42 Z" fill="#fefefe"/>
<path d="M 5.39 92.00 C 6.73 92.08 8.07 92.15 9.41 92.23 C 9.41 94.52 9.41 96.80 9.40 99.09 C 10.74 99.14 12.07 99.20 13.41 99.25 C 13.46 97.12 13.50 95.00 13.55 92.88 C 14.85 92.88 16.15 92.89 17.46 92.90 C 17.46 95.02 17.47 97.14 17.47 99.27 C 20.53 99.36 23.60 99.44 26.66 99.53 C 26.63 101.20 26.60 102.87 26.57 104.54 C 19.49 104.41 12.42 104.30 5.35 104.19 C 5.34 100.13 5.34 96.07 5.39 92.00 Z" fill="#01189a"/>
<path d="M 22.37 91.65 C 24.02 91.84 25.67 92.03 27.31 92.22 C 27.12 93.90 26.93 95.58 26.74 97.26 C 25.13 97.09 23.53 96.92 21.92 96.75 C 22.07 95.05 22.22 93.35 22.37 91.65 Z" fill="#01189a"/>
<path d="M 27.11 110.80 C 28.49 118.33 30.70 125.64 34.18 132.48 C 31.92 133.68 29.65 134.87 27.39 136.05 C 23.40 128.47 20.96 120.37 19.65 111.92 C 22.14 111.56 24.63 111.19 27.11 110.80 Z" fill="#f80e05"/>
<path d="M 13.88 113.00 C 15.14 121.98 18.18 130.42 21.94 138.63 C 19.70 139.76 17.47 140.89 15.22 142.00 C 10.77 133.01 7.87 123.82 6.27 113.92 C 8.80 113.59 11.34 113.28 13.88 113.00 Z" fill="#f80e05"/>
<path d="M 36.86 137.90 C 40.76 143.38 44.70 148.74 49.62 153.37 C 56.78 160.32 65.38 165.41 74.64 169.03 C 74.20 171.64 73.75 174.24 73.31 176.85 C 55.20 170.80 40.32 157.95 30.37 141.80 C 32.52 140.45 34.63 139.11 36.86 137.90 Z" fill="#f80e05"/>
<path d="M 25.27 144.77 C 36.08 162.45 52.85 176.19 72.57 182.70 C 72.49 185.37 72.41 188.04 72.33 190.72 C 50.16 183.63 30.71 168.84 18.89 148.68 C 20.26 147.80 21.64 146.91 23.03 146.06 C 23.77 145.62 24.52 145.19 25.27 144.77 Z" fill="#f80e05"/>
</svg>
