<?xml version="1.0" encoding="UTF-8" standalone="no"?>
<!DOCTYPE svg PUBLIC "-//W3C//DTD SVG 1.1//EN" "http://www.w3.org/Graphics/SVG/1.1/DTD/svg11.dtd">
<svg xmlns="http://www.w3.org/2000/svg" version="1.1" viewBox="0 0 200 200" width="200.0pt" height="200.0pt">
<path d="M 0.00 0.00 L 200.00 0.00 L 200.00 200.00 L 0.00 200.00 L 0.00 0.00 Z" fill="none"/>
<path d="M 100.87 0.59 C 102.00 3.98 103.06 7.38 104.04 10.81 C 107.83 10.89 111.62 10.91 115.41 10.95 C 112.35 13.18 109.29 15.40 106.26 17.66 C 107.46 21.17 108.62 24.68 109.69 28.23 C 106.64 26.19 103.67 24.03 100.74 21.81 C 97.67 23.94 94.65 26.13 91.61 28.30 C 92.73 24.72 93.87 21.15 94.94 17.55 C 91.90 15.37 88.87 13.17 85.85 10.96 C 89.63 10.91 93.42 10.89 97.20 10.83 C 98.21 7.34 99.39 3.92 100.87 0.59 Z" fill="#fbc630"/>
<path d="M 30.65 40.49 C 77.30 40.49 123.96 40.49 170.62 40.48 C 170.51 61.98 170.84 83.51 170.45 105.00 L 168.64 104.22 C 168.45 83.67 168.68 63.10 168.52 42.55 C 123.25 42.50 77.96 42.46 32.69 42.56 C 32.61 63.22 32.68 83.87 32.65 104.52 L 30.70 104.97 C 30.58 83.47 30.68 61.98 30.65 40.49 Z" fill="#2f3869"/>
<path d="M 168.52 42.55 C 168.68 63.10 168.45 83.67 168.64 104.22 C 167.91 103.91 167.19 103.58 166.48 103.23 L 166.90 103.02 C 167.64 101.39 167.60 99.74 167.66 98.00 C 167.58 79.81 167.64 61.63 167.62 43.44 C 122.93 43.46 78.23 43.45 33.54 43.45 C 33.58 63.73 33.54 84.00 33.56 104.27 L 32.65 104.52 C 32.68 83.87 32.61 63.22 32.69 42.56 C 77.96 42.46 123.25 42.50 168.52 42.55 Z" fill="#ffffff"/>
<path d="M 33.54 43.45 C 78.23 43.45 122.93 43.46 167.62 43.44 C 167.64 61.63 167.58 79.81 167.66 98.00 C 167.60 99.74 167.64 101.39 166.90 103.02 L 166.48 103.23 C 165.53 102.72 164.58 102.20 163.64 101.66 C 163.76 83.57 163.66 65.48 163.69 47.40 C 121.65 47.40 79.60 47.39 37.55 47.40 C 37.54 65.70 37.59 84.01 37.52 102.31 C 36.22 102.99 34.91 103.66 33.56 104.27 C 33.54 84.00 33.58 63.73 33.54 43.45 Z" fill="#2f3869"/>
<path d="M 92.56 51.37 C 94.26 51.16 95.99 51.14 97.70 51.06 C 97.74 58.71 97.73 66.36 97.71 74.01 C 93.29 75.04 89.86 77.48 86.01 79.69 C 81.77 78.95 78.86 75.25 78.84 71.01 C 78.76 67.07 81.27 63.26 85.16 62.28 C 87.63 61.64 90.23 63.00 92.54 63.75 C 92.45 59.64 92.21 55.47 92.56 51.37 Z" fill="#e52736"/>
<path d="M 145.71 51.28 C 147.46 51.28 149.21 51.28 150.96 51.28 C 150.94 60.70 150.98 70.12 150.94 79.54 C 149.19 79.53 147.45 79.52 145.71 79.51 C 145.71 70.10 145.71 60.69 145.71 51.28 Z" fill="#e52736"/>
<path d="M 154.59 51.26 C 156.33 51.27 158.07 51.28 159.81 51.29 C 159.79 60.70 159.81 70.11 159.80 79.52 C 158.06 79.52 156.33 79.53 154.59 79.53 C 154.58 70.10 154.58 60.68 154.59 51.26 Z" fill="#e52736"/>
<path d="M 41.45 52.16 C 45.55 52.22 49.77 51.88 53.84 52.40 C 58.14 53.51 60.32 58.86 58.85 62.87 C 58.07 65.48 55.56 66.81 53.55 68.39 C 56.07 72.05 58.52 75.75 60.96 79.46 C 58.82 79.48 56.68 79.49 54.54 79.50 C 52.97 77.05 51.29 74.64 49.92 72.07 C 48.75 69.98 48.84 67.12 48.60 64.77 C 50.21 64.02 51.94 63.34 53.41 62.34 C 53.66 60.78 53.62 59.13 53.64 57.56 C 51.53 57.10 49.41 56.71 47.28 56.36 C 47.10 64.05 47.21 71.72 47.20 79.42 C 45.29 79.45 43.37 79.49 41.46 79.51 C 41.43 70.40 41.44 61.28 41.45 52.16 Z" fill="#e52736"/>
<path d="M 104.46 52.31 C 108.10 52.00 112.28 52.01 115.92 52.33 C 118.87 52.52 120.74 55.23 121.30 57.91 C 121.68 60.11 120.42 62.28 119.64 64.30 C 120.79 65.49 122.09 66.71 122.98 68.10 C 124.20 71.14 123.66 74.90 121.18 77.20 C 119.25 79.21 116.68 79.22 114.09 79.74 C 111.01 77.26 108.04 75.63 104.32 74.27 C 104.44 66.96 104.08 59.61 104.46 52.31 Z" fill="#e52736"/>
<path d="M 109.67 56.44 C 111.76 56.75 113.84 57.09 115.92 57.49 C 115.71 58.94 115.58 60.46 115.18 61.87 C 113.97 62.31 112.73 62.69 111.48 63.02 C 111.46 64.44 111.44 65.85 111.42 67.27 C 113.54 67.60 115.64 67.98 117.74 68.44 C 117.69 70.07 117.69 71.80 117.39 73.39 C 115.61 75.20 111.98 74.53 109.63 74.75 C 109.63 68.64 109.60 62.54 109.67 56.44 Z" fill="#ffffff"/>
<path d="M 74.41 63.59 C 77.09 65.79 77.04 68.87 77.65 72.01 C 73.35 72.01 69.06 71.95 64.77 72.24 C 65.99 73.57 66.94 75.63 68.99 75.71 C 70.45 75.25 71.76 74.57 73.14 73.91 C 74.51 74.57 75.87 75.23 77.23 75.91 C 74.20 78.64 71.37 80.80 67.02 79.90 C 60.84 78.71 57.84 71.40 61.07 66.07 C 63.78 61.37 70.18 60.17 74.41 63.59 Z" fill="#e52736"/>
<path d="M 125.59 62.76 C 127.27 62.54 128.99 62.51 130.68 62.42 C 130.72 65.94 130.47 69.55 130.91 73.05 C 131.16 76.06 135.82 76.37 136.58 73.64 C 137.17 70.03 136.82 66.24 136.86 62.59 C 138.63 62.58 140.40 62.56 142.16 62.55 C 142.06 66.87 142.65 71.52 141.71 75.75 C 138.95 81.99 128.35 81.78 125.77 75.46 C 125.09 71.35 125.27 66.91 125.59 62.76 Z" fill="#e52736"/>
<path d="M 69.51 65.57 C 70.81 66.19 71.71 67.71 72.67 68.75 C 70.01 68.84 67.36 68.81 64.70 68.65 C 66.15 67.29 67.16 64.93 69.51 65.57 Z" fill="#ffffff"/>
<path d="M 86.37 67.35 C 89.12 65.49 92.53 67.95 92.52 71.00 C 92.61 73.70 89.74 76.22 87.07 75.09 C 83.96 73.76 83.66 69.28 86.37 67.35 Z" fill="#ffffff"/>
<path d="M 94.77 76.08 C 99.35 75.31 103.02 75.37 107.47 76.81 C 105.26 80.03 101.43 78.66 98.07 79.01 C 96.97 78.04 95.86 77.06 94.77 76.08 Z" fill="#2f3869"/>
<path d="M 85.67 80.70 C 83.04 85.23 80.97 89.63 81.74 95.03 C 82.74 104.25 90.70 111.51 100.00 111.57 C 109.15 111.87 117.24 104.99 118.75 96.03 C 120.02 90.24 117.67 85.66 115.09 80.70 C 121.66 83.94 126.10 87.51 130.78 93.13 C 126.05 96.93 119.92 100.48 116.44 105.46 C 112.38 111.21 112.61 118.82 109.79 124.80 C 108.54 127.59 105.63 129.42 104.38 132.11 C 105.75 133.46 107.28 134.70 108.74 135.95 C 111.55 135.42 113.92 134.62 116.44 133.26 C 120.71 133.58 124.84 134.56 129.07 135.13 C 130.65 134.35 132.09 133.21 133.53 132.20 C 126.50 147.17 109.04 155.42 92.95 151.98 C 81.83 149.76 72.85 142.54 67.20 132.86 C 68.43 133.69 69.66 134.57 70.98 135.24 C 75.60 134.99 80.22 133.86 84.79 133.10 C 87.71 134.44 90.41 135.12 93.60 135.48 C 94.70 133.99 95.81 132.52 96.93 131.06 C 92.95 127.71 89.75 123.70 88.48 118.57 C 87.28 114.39 87.41 109.63 84.85 106.15 C 81.14 100.50 76.17 96.22 70.83 92.17 C 74.42 88.18 78.29 84.62 83.10 82.12 C 83.96 81.65 84.81 81.18 85.67 80.70 Z" fill="#fbc630"/>
<path d="M 87.52 81.01 C 87.71 82.59 86.74 86.20 84.73 85.89 C 83.95 84.36 86.54 82.05 87.52 81.01 Z" fill="#2f3869"/>
<path d="M 95.03 84.43 C 96.45 86.18 98.01 88.05 98.91 90.12 C 98.36 92.57 96.69 94.85 95.47 97.02 C 93.10 96.56 90.75 96.01 88.41 95.42 C 88.33 92.72 88.30 90.03 88.31 87.33 C 90.53 86.31 92.74 85.29 95.03 84.43 Z" fill="#2f3869"/>
<path d="M 109.97 84.66 C 111.88 85.38 113.63 86.33 115.43 87.28 C 115.37 89.89 115.39 92.51 115.37 95.12 C 114.12 95.58 112.88 96.04 111.62 96.46 L 110.00 96.69 C 108.99 94.61 107.61 92.48 107.14 90.21 C 107.43 88.19 108.75 86.25 109.97 84.66 Z" fill="#2f3869"/>
<path d="M 115.43 87.28 L 116.48 87.86 C 119.08 95.45 115.49 104.77 107.83 107.74 C 107.35 106.24 106.84 104.74 106.33 103.25 C 103.74 103.34 101.14 103.43 98.55 103.53 C 98.80 103.14 99.05 102.76 99.31 102.38 C 102.31 102.48 105.30 102.59 108.30 102.80 C 110.07 100.97 111.79 99.10 113.32 97.06 L 111.62 96.46 C 112.88 96.04 114.12 95.58 115.37 95.12 C 115.39 92.51 115.37 89.89 115.43 87.28 Z" fill="#c9c3cc"/>
<path d="M 6.34 90.72 C 9.42 92.15 12.64 93.15 15.81 94.34 C 18.04 94.93 19.10 97.82 17.63 99.65 C 15.75 102.26 12.44 104.02 10.79 106.77 C 9.45 109.58 10.89 113.24 14.18 113.57 C 18.39 114.09 22.13 110.53 25.46 108.42 C 28.54 106.28 32.21 106.59 35.41 105.08 C 38.02 103.55 39.83 101.42 42.95 100.84 C 46.91 100.15 49.29 97.22 52.97 95.89 C 56.24 94.69 59.24 92.92 62.46 91.65 C 66.23 90.54 69.15 92.91 71.92 95.08 C 76.86 98.99 81.25 103.07 84.42 108.59 C 86.07 112.01 86.04 116.16 87.23 119.79 C 88.52 124.74 92.26 128.21 95.35 132.10 C 90.69 131.04 89.17 127.57 86.18 124.43 C 87.03 126.56 87.84 128.91 89.22 130.76 C 90.49 132.15 92.09 133.27 93.52 134.48 C 89.98 133.95 87.79 133.02 84.90 130.98 C 80.28 132.84 75.09 133.54 70.16 134.00 C 69.97 132.19 70.16 130.42 70.37 128.63 L 69.10 128.52 C 70.61 126.41 72.06 124.27 73.41 122.06 C 70.92 122.28 68.45 122.56 65.97 122.91 C 66.59 120.18 67.00 117.49 67.14 114.68 C 66.12 116.83 65.43 119.20 64.19 121.23 C 62.97 122.03 61.58 122.58 60.28 123.22 C 61.41 125.45 62.58 127.67 63.74 129.89 C 63.53 131.24 63.33 132.60 63.13 133.96 C 63.94 132.71 64.73 131.46 65.52 130.19 C 64.36 127.79 63.30 125.35 62.42 122.83 C 65.42 124.21 66.86 126.98 67.64 130.03 C 66.97 132.04 66.17 134.14 63.91 134.72 C 60.40 135.79 56.81 137.56 53.15 137.87 C 51.76 137.10 50.65 135.67 49.56 134.52 C 48.82 134.26 48.07 134.00 47.33 133.74 C 46.66 132.57 45.98 131.40 45.31 130.24 C 46.88 129.99 48.43 129.73 50.02 129.67 C 51.63 131.13 52.91 133.01 54.26 134.71 C 55.95 134.13 58.06 133.69 59.41 132.49 C 59.80 129.48 57.21 128.38 55.31 126.66 C 53.51 125.41 52.51 123.66 51.46 121.80 C 51.15 122.94 50.83 124.07 50.51 125.21 C 45.35 125.13 40.46 125.49 35.45 124.84 C 35.40 122.02 35.42 119.20 35.16 116.38 C 34.06 119.47 33.83 123.28 32.05 126.06 C 28.91 129.95 23.42 128.89 19.11 130.18 C 16.45 130.83 15.36 132.87 13.80 134.88 C 15.76 133.79 17.69 132.44 19.78 131.65 C 23.07 130.75 27.00 131.43 30.17 130.16 C 32.27 128.79 33.95 126.73 35.81 125.08 C 34.61 127.97 34.18 130.67 31.07 132.08 C 27.84 134.11 24.71 133.13 21.11 133.12 C 19.45 134.29 17.77 135.45 16.08 136.59 C 15.08 136.44 14.08 136.29 13.08 136.14 C 12.06 137.29 11.10 138.43 9.96 139.46 C 8.38 139.61 6.79 139.64 5.18 139.56 C 7.06 134.04 12.96 132.75 15.07 127.22 C 17.22 126.52 19.34 125.78 21.43 124.95 C 20.57 121.94 19.94 118.96 19.47 115.86 C 16.80 116.17 13.90 116.97 11.43 115.53 C 7.53 113.74 6.17 108.25 8.92 104.95 C 10.74 102.73 13.04 100.86 15.12 98.88 C 13.10 98.32 10.82 98.01 8.94 97.04 C 6.63 95.52 6.90 93.16 6.34 90.72 Z" fill="#e52736"/>
<path d="M 136.87 90.80 C 140.46 90.40 142.82 92.96 145.35 95.04 C 148.23 95.86 151.01 96.84 153.60 98.37 C 156.85 100.27 160.46 101.37 163.70 103.30 C 167.77 105.71 172.43 105.90 176.38 108.61 C 179.52 110.69 182.64 112.39 186.18 113.70 C 187.64 112.70 189.54 111.71 190.45 110.16 C 190.55 105.73 185.14 102.98 183.28 99.32 C 182.93 98.10 183.01 96.83 183.54 95.66 C 186.19 93.31 190.41 92.49 193.69 91.29 C 193.14 93.05 192.98 95.30 191.91 96.84 C 190.43 98.20 187.93 98.60 186.10 99.29 C 188.25 101.56 190.95 104.01 192.28 106.87 C 193.48 110.03 192.78 113.22 189.83 115.05 C 187.20 116.88 184.72 116.14 181.80 115.81 C 182.48 119.12 181.94 122.18 181.30 125.44 C 182.96 125.86 184.62 126.26 186.29 126.64 C 186.76 128.09 187.23 129.54 187.69 130.99 C 190.52 133.62 193.32 136.05 194.95 139.65 C 191.58 139.61 190.31 139.14 187.70 137.04 C 183.00 137.48 180.50 133.53 176.01 133.59 C 173.68 133.39 171.59 133.79 169.57 132.37 C 166.98 130.94 166.94 127.90 166.19 125.35 C 167.63 127.00 168.92 128.94 170.63 130.32 C 172.66 131.85 175.63 131.34 178.03 131.47 C 181.36 131.25 184.03 133.44 186.88 134.86 C 185.43 133.48 183.91 131.89 182.17 130.89 C 179.03 129.32 174.22 130.79 171.40 128.64 C 167.62 125.74 168.43 120.80 165.95 116.42 C 165.74 118.95 167.66 124.34 164.04 125.09 C 159.10 125.69 154.05 125.34 149.08 125.96 C 149.11 124.91 149.14 123.86 149.17 122.81 C 146.80 126.39 142.46 128.09 140.41 131.74 C 142.35 134.23 144.58 133.77 147.41 133.73 C 146.99 132.85 146.55 131.97 146.12 131.09 L 145.61 133.20 C 144.31 132.76 143.01 132.30 141.71 131.83 C 143.09 130.81 144.51 129.87 145.94 128.94 C 146.44 129.77 146.94 130.61 147.45 131.44 C 149.43 130.52 151.52 130.37 153.66 130.27 C 152.44 131.88 151.18 133.44 149.89 134.99 C 148.95 136.00 148.01 137.13 146.90 137.96 C 142.87 137.58 138.77 135.60 134.97 134.26 C 134.43 132.78 133.90 131.29 133.37 129.81 C 134.60 127.37 135.93 124.99 137.44 122.72 C 138.61 125.96 135.63 129.26 135.64 132.71 C 137.21 129.81 138.77 126.91 140.41 124.06 C 139.17 122.86 137.76 121.72 136.74 120.32 C 135.68 117.72 135.60 114.74 134.15 112.16 C 133.73 116.08 134.49 119.47 135.75 123.13 C 131.91 122.79 129.60 122.06 126.35 120.02 C 128.47 122.94 130.38 125.96 132.20 129.07 C 131.71 129.44 131.21 129.81 130.72 130.18 C 130.27 131.48 129.80 132.78 129.32 134.07 C 125.93 132.84 122.74 132.00 119.09 132.04 C 118.30 131.52 117.51 131.00 116.72 130.47 C 114.25 132.54 112.03 133.87 108.93 134.89 C 111.13 131.90 113.16 128.86 114.66 125.45 C 111.57 128.47 110.37 132.01 105.56 132.62 C 107.73 130.18 110.01 128.29 111.36 125.24 C 113.83 119.53 114.24 111.90 117.64 106.60 C 120.73 102.09 126.14 98.71 130.42 95.38 C 132.50 93.84 134.52 91.91 136.87 90.80 Z" fill="#e52736"/>
<path d="M 83.40 96.63 C 84.21 97.48 85.00 98.34 85.78 99.22 C 87.32 101.33 88.68 103.57 90.08 105.77 L 88.57 105.52 C 85.72 103.15 84.58 100.03 83.40 96.63 Z" fill="#2f3869"/>
<path d="M 137.94 97.93 C 136.96 101.39 133.96 103.83 131.55 106.36 C 132.73 102.07 134.03 100.08 137.94 97.93 Z" fill="#ffffff"/>
<path d="M 66.11 99.89 C 68.46 102.49 68.64 104.21 68.59 107.63 C 67.86 106.30 67.18 104.94 66.57 103.54 C 66.39 102.33 66.23 101.11 66.11 99.89 Z" fill="#ffffff"/>
<path d="M 98.55 103.53 C 101.14 103.43 103.74 103.34 106.33 103.25 C 106.84 104.74 107.35 106.24 107.83 107.74 C 105.28 108.67 102.35 109.81 99.61 109.57 C 98.49 108.89 97.38 108.18 96.30 107.44 L 96.57 106.64 C 97.22 105.59 97.87 104.55 98.55 103.53 Z" fill="#2f3869"/>
<path d="M 90.08 105.77 C 92.24 106.09 94.41 106.36 96.57 106.64 L 96.30 107.44 C 97.38 108.18 98.49 108.89 99.61 109.57 C 95.12 109.33 92.07 108.30 88.57 105.52 L 90.08 105.77 Z" fill="#c9c3cc"/>
<path d="M 81.22 113.17 C 84.11 115.79 84.97 117.56 85.13 121.53 C 83.97 119.86 82.89 118.13 81.79 116.42 C 80.74 116.95 79.69 117.48 78.63 118.01 C 79.46 116.36 80.25 114.74 81.22 113.17 Z" fill="#ffffff"/>
<path d="M 121.74 114.77 L 121.98 114.55 L 122.26 114.30 C 123.08 115.66 123.90 117.02 124.71 118.38 C 123.54 118.37 122.35 118.32 121.18 118.42 C 119.57 119.61 118.28 121.26 116.85 122.66 C 117.76 119.46 119.53 117.16 121.74 114.77 Z" fill="#ffffff"/>
<path d="M 67.49 124.23 C 68.65 122.93 70.46 123.87 69.52 125.53 C 68.38 126.91 66.60 125.86 67.49 124.23 Z" fill="#fbc630"/>
<path d="M 132.00 124.04 C 133.55 123.10 134.47 125.24 133.45 126.33 C 131.96 127.30 130.99 125.09 132.00 124.04 Z" fill="#fbc630"/>
<path d="M 81.34 125.82 C 81.35 126.71 81.30 127.60 81.20 128.48 C 80.05 128.83 78.88 129.13 77.68 129.36 C 78.85 128.12 80.06 126.93 81.34 125.82 Z" fill="#ffffff"/>
<path d="M 163.91 125.70 C 165.30 128.88 167.83 132.49 167.64 136.04 C 167.77 141.93 167.16 147.53 168.33 153.38 C 168.88 146.50 168.21 139.65 168.88 132.79 C 171.33 135.63 170.52 138.56 170.66 142.00 C 170.51 149.02 171.29 155.26 167.57 161.58 C 155.01 181.72 132.76 195.26 109.21 197.76 C 79.89 201.19 49.66 186.90 33.93 161.89 C 29.02 154.01 31.07 142.70 30.65 133.68 C 31.32 133.42 31.98 133.15 32.64 132.89 C 32.39 140.74 33.10 148.49 33.81 156.28 C 36.10 163.33 42.13 169.56 47.31 174.69 C 58.95 186.14 74.85 193.31 90.98 195.36 C 100.14 195.92 110.07 196.18 118.98 193.74 C 133.83 190.16 147.51 182.17 157.84 170.91 C 161.06 167.20 164.51 163.24 166.67 158.80 C 168.29 155.74 167.45 152.58 167.43 149.22 C 166.80 153.35 167.09 157.04 164.69 160.61 C 155.10 175.25 140.25 186.48 123.49 191.59 C 112.39 195.20 100.47 195.71 88.95 194.21 C 72.45 191.62 56.87 183.81 45.43 171.57 C 41.32 167.29 36.92 162.31 34.88 156.67 C 33.29 149.06 33.54 140.56 33.57 132.80 C 34.92 130.69 36.17 128.51 37.46 126.36 C 37.68 133.91 37.46 141.46 37.56 149.01 C 37.58 152.24 38.17 155.39 39.79 158.22 C 54.37 181.46 82.83 194.49 109.96 190.69 C 128.61 188.35 146.08 178.42 157.68 163.64 C 160.42 160.13 163.11 156.66 163.48 152.04 C 164.08 143.29 163.31 134.46 163.91 125.70 Z" fill="#2f3869"/>
<path d="M 123.00 127.43 C 123.33 128.17 123.65 128.91 123.96 129.66 C 122.93 129.58 121.89 129.51 120.86 129.43 C 121.57 127.99 121.05 127.16 123.00 127.43 Z" fill="#ffffff"/>
<path d="M 52.39 129.23 C 53.53 129.21 54.68 129.19 55.82 129.17 L 56.42 129.16 C 56.82 130.15 57.22 131.15 57.61 132.15 C 56.71 132.54 55.81 132.92 54.91 133.31 C 54.07 131.95 53.23 130.58 52.39 129.23 Z" fill="#e52736"/>
<path d="M 9.53 129.86 C 8.96 131.57 7.65 136.24 5.43 133.30 C 5.43 131.60 8.40 130.73 9.53 129.86 Z" fill="#e52736"/>
<path d="M 191.18 130.02 C 192.79 131.02 194.44 131.65 194.91 133.68 C 192.02 135.42 191.23 132.27 191.18 130.02 Z" fill="#e52736"/>
<path d="M 3.24 134.49 C 3.95 134.46 4.66 134.46 5.37 134.49 C 5.04 136.17 4.65 137.83 4.26 139.50 L 1.70 138.93 C 2.19 137.45 2.60 135.92 3.24 134.49 Z" fill="#e52736"/>
<path d="M 197.14 134.34 C 197.51 135.95 197.89 137.56 198.29 139.16 C 197.39 139.34 196.50 139.51 195.60 139.69 C 195.46 138.00 195.30 136.34 195.24 134.65 C 195.87 134.55 196.50 134.44 197.14 134.34 Z" fill="#e52736"/>
<path d="M 143.67 142.46 L 141.95 144.84 C 140.89 144.03 139.84 143.21 138.78 142.40 C 138.25 143.11 137.71 143.81 137.17 144.51 C 142.54 148.66 147.94 152.77 153.32 156.91 L 154.93 154.76 C 151.87 152.19 148.87 150.08 145.04 148.81 C 145.81 147.76 146.58 146.70 147.35 145.64 C 150.43 148.13 154.16 150.27 156.70 153.31 C 158.48 156.21 155.28 160.15 152.15 158.95 C 148.77 157.22 145.89 154.43 142.81 152.21 C 140.30 150.17 137.19 148.38 135.22 145.80 C 134.86 143.78 134.87 141.93 136.78 140.74 C 139.27 139.03 141.51 141.37 143.67 142.46 Z" fill="#2f3869"/>
<path d="M 68.75 145.18 C 69.13 147.79 67.33 149.39 65.34 150.68 C 64.56 150.28 63.79 149.86 63.03 149.42 C 64.18 148.35 65.33 147.28 66.50 146.23 L 64.82 144.22 C 62.62 146.04 60.41 147.85 58.18 149.65 C 59.00 151.31 59.79 152.99 60.50 154.70 C 57.66 157.00 54.94 159.77 51.74 161.54 C 48.74 162.68 45.66 158.92 46.85 156.14 C 47.87 154.66 49.41 153.47 50.76 152.29 C 51.15 153.16 51.54 154.02 51.93 154.89 C 50.94 155.66 49.95 156.42 48.95 157.18 C 49.58 157.86 50.20 158.55 50.80 159.26 C 52.94 157.47 55.10 155.69 57.26 153.91 C 56.66 152.50 55.13 150.72 55.32 149.16 C 57.01 146.50 60.10 144.49 62.64 142.65 C 65.05 140.77 68.24 142.33 68.75 145.18 Z" fill="#2f3869"/>
<path d="M 131.97 148.65 C 134.83 151.22 136.91 154.79 138.97 158.02 C 142.03 161.43 144.87 165.10 147.26 169.02 C 146.26 168.87 145.26 168.67 144.27 168.45 C 141.72 166.28 139.92 163.06 137.86 160.42 C 137.18 160.99 136.49 161.56 135.81 162.13 C 138.06 165.16 140.31 168.19 142.60 171.18 L 140.67 173.00 C 135.43 166.14 130.34 159.16 125.18 152.23 C 127.07 151.07 129.66 148.28 131.97 148.65 Z" fill="#2f3869"/>
<path d="M 73.13 150.24 C 75.80 149.98 77.94 152.38 77.43 155.01 C 76.14 157.91 73.84 160.43 71.99 162.99 C 69.15 166.60 66.68 170.55 63.60 173.95 C 62.93 173.58 62.31 173.12 61.73 172.57 C 63.71 169.34 66.18 166.40 68.41 163.34 C 67.68 162.82 66.96 162.30 66.24 161.77 C 63.97 164.91 61.67 168.01 59.28 171.06 L 57.34 169.29 C 61.23 164.19 65.01 159.01 68.82 153.85 C 69.91 152.53 71.25 150.37 73.13 150.24 Z" fill="#2f3869"/>
<path d="M 131.21 151.76 C 133.21 153.77 134.74 156.29 136.33 158.61 C 135.59 159.03 134.85 159.45 134.11 159.86 C 132.29 157.39 130.46 154.91 128.66 152.42 C 129.49 152.19 130.35 151.86 131.21 151.76 Z" fill="#ffffff"/>
<path d="M 73.07 152.75 C 73.84 153.15 74.62 153.56 75.38 153.97 C 73.60 156.38 71.80 158.79 70.01 161.20 C 69.30 160.71 68.59 160.22 67.87 159.73 C 69.54 157.37 71.23 154.97 73.07 152.75 Z" fill="#ffffff"/>
<path d="M 119.54 155.72 C 120.36 155.34 121.18 154.97 122.00 154.59 C 124.55 160.82 127.22 167.00 129.80 173.22 C 130.58 175.32 131.38 177.54 129.49 179.33 C 127.80 180.97 125.38 180.85 123.95 178.94 C 121.72 175.44 120.53 171.22 118.81 167.44 C 117.66 164.46 115.93 161.45 115.35 158.31 C 115.77 157.54 116.22 156.79 116.70 156.04 C 119.76 162.25 122.08 168.84 124.87 175.16 C 125.73 177.36 126.30 177.29 128.56 177.83 C 125.97 170.31 122.63 163.04 119.54 155.72 Z" fill="#2f3869"/>
<path d="M 82.48 155.82 L 84.95 155.92 C 82.42 162.26 79.34 168.35 76.64 174.62 C 75.67 176.63 76.14 177.27 77.06 179.23 C 78.17 177.36 79.19 175.45 80.18 173.52 C 80.89 174.01 81.60 174.51 82.31 175.00 C 81.25 177.31 80.19 179.62 79.14 181.93 C 76.75 180.92 74.37 179.89 71.98 178.89 C 75.32 171.17 78.59 163.26 82.48 155.82 Z" fill="#2f3869"/>
<path d="M 90.91 158.65 C 93.59 159.11 96.28 159.55 98.96 159.99 C 96.75 167.33 92.92 174.06 90.44 181.27 L 92.33 182.64 C 92.72 180.79 93.12 178.94 93.51 177.09 L 95.97 177.59 C 95.55 180.20 95.09 182.80 94.60 185.39 C 92.02 184.88 89.43 184.46 86.83 184.09 C 88.82 176.30 93.08 169.12 95.73 161.49 C 94.83 161.74 93.96 162.03 93.10 162.36 C 92.74 163.80 92.43 165.26 92.20 166.74 L 89.66 166.71 C 90.09 164.03 90.51 161.34 90.91 158.65 Z" fill="#2f3869"/>
<path d="M 111.25 159.41 C 112.07 163.52 112.64 167.60 112.72 171.80 C 113.50 175.60 115.46 180.82 113.52 184.40 C 111.56 184.10 109.60 183.79 107.64 183.48 C 106.05 175.41 106.12 167.60 103.69 159.76 C 106.21 159.48 108.72 159.38 111.25 159.41 Z" fill="#2f3869"/>
<path d="M 103.69 159.76 C 106.12 167.60 106.05 175.41 107.64 183.48 C 109.60 183.79 111.56 184.10 113.52 184.40 C 111.51 184.81 109.42 185.23 107.38 185.32 C 106.36 182.40 106.26 179.11 105.77 176.06 C 105.18 170.62 104.07 165.22 103.69 159.76 Z" fill="#2f3869"/>
<path d="M 106.58 162.17 C 107.55 161.72 108.39 161.75 109.08 162.27 C 109.67 165.00 109.96 167.80 110.42 170.56 C 109.53 170.65 108.63 170.75 107.74 170.84 C 107.33 167.97 106.71 165.07 106.58 162.17 Z" fill="#ffffff"/>
<path d="M 108.53 174.21 C 109.11 173.64 109.71 173.09 110.32 172.56 C 111.13 175.80 111.52 179.07 111.72 182.40 C 110.79 182.34 109.86 182.27 108.93 182.21 C 108.74 179.57 108.29 176.83 108.53 174.21 Z" fill="#ffffff"/>
</svg>
