<?xml version="1.0" encoding="UTF-8" standalone="no"?>
<!DOCTYPE svg PUBLIC "-//W3C//DTD SVG 1.1//EN" "http://www.w3.org/Graphics/SVG/1.1/DTD/svg11.dtd">
<svg xmlns="http://www.w3.org/2000/svg" version="1.1" viewBox="0 0 200 200" width="200.0pt" height="200.0pt">
<path d="M 0.00 0.00 L 200.00 0.00 L 200.00 200.00 L 0.00 200.00 L 0.00 0.00 Z" fill="#ffffff"/>
<path d="M 99.67 1.48 C 118.52 10.06 134.94 24.57 145.94 42.12 C 156.79 59.42 161.92 79.64 161.77 100.00 C 161.91 118.93 157.58 137.72 148.22 154.23 C 137.18 173.66 119.97 189.21 99.81 198.75 C 79.92 189.77 62.67 174.05 51.67 155.22 C 40.00 135.20 35.98 111.93 38.00 88.99 C 39.51 71.51 45.08 54.50 54.83 39.87 C 65.79 23.35 81.62 9.69 99.67 1.48 Z" fill="#000000"/>
<path d="M 99.79 12.40 C 123.93 22.14 145.23 42.09 154.16 66.82 C 159.47 81.01 160.67 95.98 159.30 110.99 C 157.79 126.23 152.40 141.01 143.52 153.51 C 132.97 168.38 117.89 180.07 101.18 187.23 C 99.42 188.16 98.14 187.13 96.48 186.53 C 81.71 179.82 68.19 169.63 58.23 156.77 C 48.53 144.43 42.41 129.56 40.38 114.02 C 38.03 96.18 40.05 77.20 47.66 60.77 C 55.08 44.39 67.89 30.63 82.98 20.98 C 88.23 17.68 93.90 14.40 99.79 12.40 Z" fill="#ffffff"/>
<path d="M 99.77 24.07 C 109.19 29.27 116.59 37.78 120.05 48.00 C 126.12 64.62 120.20 85.59 105.09 95.34 C 108.95 88.41 111.64 81.03 111.97 73.04 C 112.63 60.53 108.30 48.16 99.71 39.01 C 89.99 48.91 85.69 63.88 87.81 77.49 C 88.69 83.91 91.15 89.73 94.24 95.37 C 83.41 88.24 77.33 75.82 76.98 63.00 C 76.28 47.16 85.63 31.24 99.77 24.07 Z" fill="#000000"/>
<path d="M 88.00 26.49 C 83.38 32.08 79.00 37.55 76.49 44.46 C 71.65 57.08 73.14 72.22 80.26 83.71 C 83.90 90.01 89.23 94.48 95.26 98.38 C 86.27 98.06 77.81 93.80 71.85 87.13 C 62.76 77.20 59.46 62.34 64.72 49.76 C 69.10 39.43 78.37 31.78 88.00 26.49 Z" fill="#f36f21"/>
<path d="M 111.32 26.52 C 119.24 30.75 126.71 36.81 131.71 44.32 C 137.54 53.05 138.51 64.17 135.17 74.03 C 130.68 87.40 118.37 97.95 103.97 98.43 C 108.67 95.32 113.11 92.08 116.48 87.49 C 124.66 76.90 127.62 62.44 124.43 49.46 C 122.29 40.50 117.24 33.37 111.32 26.52 Z" fill="#f36f21"/>
<path d="M 99.68 43.20 C 112.45 58.64 112.43 82.31 99.71 97.77 C 86.83 82.45 86.88 58.56 99.68 43.20 Z" fill="#f36f21"/>
<path d="M 55.81 59.10 C 56.11 63.23 56.46 67.28 57.74 71.24 C 62.02 85.51 73.65 96.93 88.04 100.83 C 104.67 105.61 123.23 99.46 133.88 85.90 C 140.00 78.36 142.94 69.31 143.60 59.70 C 150.80 72.64 154.30 87.76 153.78 102.55 C 136.63 108.73 118.19 111.43 100.00 111.26 C 81.54 111.51 62.80 108.78 45.41 102.48 C 45.19 88.27 48.17 74.30 54.58 61.59 C 54.98 60.76 55.40 59.93 55.81 59.10 Z" fill="#f36f21"/>
<path d="M 47.23 107.51 C 48.62 107.84 50.01 108.19 51.39 108.54 C 52.12 113.94 52.46 119.42 53.36 124.80 C 54.97 125.54 56.87 125.74 58.60 126.12 C 58.14 120.67 57.51 115.23 57.04 109.77 C 58.37 110.11 59.81 110.33 61.07 110.90 C 62.13 115.98 61.84 121.35 62.84 126.44 C 63.68 127.64 66.69 127.73 68.07 128.22 C 67.76 122.72 67.12 117.26 66.93 111.75 C 68.27 111.95 69.62 112.14 70.96 112.34 C 71.52 118.60 71.87 124.87 72.30 131.14 C 64.58 129.92 56.80 128.48 49.34 126.11 C 48.76 119.90 47.79 113.72 47.23 107.51 Z" fill="#000000"/>
<path d="M 150.03 108.84 C 153.32 109.35 152.88 113.43 151.63 115.61 C 149.53 119.17 146.06 119.90 142.42 121.08 C 142.19 123.57 141.93 126.07 141.64 128.57 C 140.32 128.85 139.00 129.13 137.68 129.41 C 138.31 123.21 138.54 116.89 139.53 110.75 C 142.86 109.83 146.56 108.68 150.03 108.84 Z" fill="#000000"/>
<path d="M 148.29 113.00 C 148.22 116.74 145.84 117.88 142.71 119.06 C 142.86 116.64 143.05 114.22 143.35 111.81 C 145.30 111.48 147.59 110.27 148.29 113.00 Z" fill="#ffffff"/>
<path d="M 130.54 111.92 C 132.73 117.74 134.54 123.70 136.73 129.53 C 135.20 129.84 133.66 130.12 132.12 130.40 C 131.62 128.78 131.11 127.17 130.59 125.56 C 128.83 125.86 127.07 126.16 125.31 126.45 C 124.69 128.24 124.07 130.03 123.44 131.83 C 122.29 131.89 121.13 131.95 119.98 132.00 C 122.38 125.78 124.94 119.60 127.58 113.49 C 127.99 112.26 129.50 112.34 130.54 111.92 Z" fill="#000000"/>
<path d="M 79.79 113.52 L 82.10 113.52 C 85.23 119.83 87.66 126.56 90.41 133.06 C 88.92 132.95 87.44 132.84 85.95 132.73 C 85.24 130.95 84.55 129.16 83.85 127.37 C 82.07 127.22 80.29 127.07 78.50 126.93 C 78.10 128.56 77.70 130.19 77.30 131.81 C 76.16 131.69 75.02 131.58 73.87 131.46 C 75.52 125.46 77.54 119.32 79.79 113.52 Z" fill="#000000"/>
<path d="M 108.38 114.48 C 113.33 114.00 118.31 113.79 123.26 113.22 L 122.68 115.84 C 120.99 116.03 119.26 116.04 117.56 116.08 C 117.38 121.59 117.20 127.10 116.83 132.59 C 115.55 132.67 114.26 132.74 112.98 132.81 C 113.11 127.36 113.25 121.90 113.51 116.46 C 111.65 116.63 109.79 116.83 107.92 116.91 C 108.05 116.09 108.20 115.28 108.38 114.48 Z" fill="#000000"/>
<path d="M 90.25 114.40 C 91.84 114.44 93.42 114.47 95.00 114.51 C 96.34 116.64 97.66 118.76 98.99 120.88 C 100.41 118.77 101.81 116.64 103.19 114.50 C 104.42 114.55 105.65 114.61 106.87 114.69 C 104.87 117.71 102.77 120.66 100.65 123.60 C 102.71 126.75 104.79 129.86 106.56 133.18 C 105.09 133.21 103.62 133.22 102.15 133.23 C 100.84 131.14 99.52 129.04 98.19 126.96 C 96.81 129.10 95.43 131.24 94.03 133.37 C 92.93 133.19 91.83 133.00 90.73 132.81 C 92.55 129.88 94.52 127.06 96.46 124.22 C 94.92 121.88 93.36 119.54 91.88 117.16 C 91.33 116.24 90.79 115.33 90.25 114.40 Z" fill="#000000"/>
<path d="M 128.53 118.25 C 129.06 120.06 129.59 121.87 130.13 123.68 C 128.79 123.87 127.46 124.06 126.12 124.25 C 126.92 122.25 127.72 120.24 128.53 118.25 Z" fill="#ffffff"/>
<path d="M 80.79 119.42 C 81.59 121.37 82.38 123.33 83.17 125.29 C 81.81 125.16 80.45 125.03 79.09 124.90 C 79.31 124.20 79.52 123.50 79.74 122.80 C 80.09 121.67 80.44 120.55 80.79 119.42 Z" fill="#ffffff"/>
<path d="M 50.36 129.62 C 81.99 139.25 117.33 139.19 148.98 129.64 C 141.26 151.70 122.98 168.89 101.03 176.45 C 100.09 176.80 99.08 176.77 97.98 176.35 C 77.21 168.95 59.61 153.26 51.48 132.57 C 51.10 131.59 50.73 130.60 50.36 129.62 Z" fill="#000000"/>
<path d="M 89.92 143.06 C 90.87 143.48 91.81 143.93 92.74 144.38 C 94.02 143.28 95.75 142.63 97.11 143.91 C 98.36 145.03 98.16 147.19 97.52 148.57 C 96.31 150.21 94.75 150.07 92.97 150.23 C 93.75 149.66 94.54 149.10 95.33 148.55 C 95.55 147.33 95.79 146.12 96.03 144.91 C 95.44 144.64 94.85 144.37 94.25 144.11 C 94.39 145.45 94.55 146.79 94.47 148.14 C 93.42 147.17 92.39 146.18 91.38 145.18 L 91.54 150.08 C 90.93 150.02 90.32 149.96 89.70 149.90 C 89.73 147.63 89.68 145.32 89.92 143.06 Z" fill="#ffffff"/>
<path d="M 102.76 143.94 L 102.90 146.93 C 103.24 146.93 103.57 146.92 103.91 146.91 C 104.48 146.01 104.88 143.64 106.21 143.54 C 107.25 143.31 108.29 143.11 109.35 142.95 C 108.18 143.78 106.99 144.57 105.79 145.33 C 107.87 146.01 110.53 146.04 109.56 149.08 C 107.23 151.45 105.55 149.61 103.29 148.45 C 102.45 150.99 100.23 150.05 98.25 150.04 C 99.53 149.46 100.73 148.78 101.87 147.99 L 99.43 146.40 C 100.08 145.77 100.73 145.14 101.39 144.52 L 97.88 143.92 C 99.48 143.52 101.39 142.53 102.76 143.94 Z" fill="#ffffff"/>
<path d="M 106.10 147.14 C 107.72 145.97 109.01 148.90 107.05 149.29 C 105.95 148.89 105.64 148.18 106.10 147.14 Z" fill="#000000"/>
<path d="M 97.34 154.25 C 97.96 154.91 98.57 155.57 99.19 156.24 C 98.40 156.89 97.62 157.54 96.84 158.20 C 97.77 159.14 98.69 160.08 99.62 161.02 C 100.55 160.08 101.47 159.13 102.40 158.19 C 101.64 157.57 100.89 156.95 100.13 156.33 L 101.99 154.17 C 104.12 155.68 106.52 155.57 106.91 158.55 C 107.45 159.88 107.99 161.21 108.52 162.54 C 107.05 161.80 105.59 161.03 104.15 160.24 C 103.27 161.11 102.38 161.99 101.50 162.86 C 103.11 164.48 104.87 166.07 106.26 167.89 L 105.03 169.98 C 103.17 168.29 101.38 166.53 99.60 164.76 C 97.97 166.40 96.34 168.05 94.73 169.70 C 94.06 169.11 93.40 168.50 92.75 167.90 C 94.41 166.22 96.08 164.54 97.75 162.86 C 96.82 161.94 95.89 161.03 94.97 160.11 C 94.29 160.92 93.61 161.73 92.93 162.54 C 92.20 161.77 91.47 160.99 90.76 160.21 C 91.36 159.72 91.96 159.22 92.56 158.73 C 92.65 157.94 92.74 157.16 92.83 156.38 C 94.49 155.85 95.89 155.21 97.34 154.25 Z" fill="#ffffff"/>
</svg>