<?xml version="1.0" encoding="UTF-8" standalone="no"?>
<!DOCTYPE svg PUBLIC "-//W3C//DTD SVG 1.1//EN" "http://www.w3.org/Graphics/SVG/1.1/DTD/svg11.dtd">
<svg xmlns="http://www.w3.org/2000/svg" version="1.1" viewBox="0 0 200 200" width="200.0pt" height="200.0pt">
<path d="M 0.00 0.00 L 200.00 0.00 L 200.00 200.00 L 124.90 200.00 C 124.66 197.03 123.26 194.57 122.44 191.76 C 125.19 189.23 126.22 186.35 124.13 182.98 C 121.88 179.57 115.71 181.26 112.21 180.70 C 112.21 187.07 112.31 193.44 112.15 199.80 C 113.67 199.74 115.19 199.75 116.72 199.82 C 116.51 197.29 116.60 194.73 116.62 192.18 C 117.53 192.31 118.39 192.54 119.21 192.89 C 119.02 195.51 120.66 197.45 120.84 200.00 L 0.00 200.00 L 0.00 0.00 Z" fill="none"/>
<path d="M 89.24 1.94 C 93.80 -0.54 97.86 5.74 102.47 4.08 C 102.64 5.17 103.35 5.88 104.59 6.21 C 105.01 8.03 106.53 8.14 106.33 10.17 C 108.86 10.45 109.78 11.57 111.38 13.35 L 110.07 14.59 C 110.92 15.50 111.77 16.42 112.63 17.33 C 112.20 17.83 111.74 18.29 111.23 18.72 C 112.26 19.60 113.43 21.57 114.92 21.56 C 116.66 20.65 116.82 19.10 117.68 17.52 C 118.71 15.41 121.05 15.19 122.30 13.18 C 125.44 7.86 133.54 7.50 138.93 6.70 C 153.70 6.60 168.50 6.47 183.27 6.70 C 182.14 8.88 179.47 10.40 177.25 11.27 C 172.96 13.99 169.90 19.00 165.20 20.98 C 162.29 24.67 157.64 27.03 153.01 27.51 C 151.89 28.53 150.90 29.63 149.51 30.26 C 147.16 30.87 143.46 30.78 141.77 32.78 C 140.08 34.20 140.35 36.38 137.80 36.60 C 135.24 36.52 133.42 38.01 130.94 37.00 C 128.40 37.65 125.40 39.87 123.10 37.96 C 121.74 38.94 120.28 39.12 118.72 38.52 C 117.43 40.59 116.37 41.68 116.64 44.31 L 115.97 44.79 L 116.11 42.86 C 116.09 41.80 115.85 40.74 115.40 39.68 C 116.10 39.27 116.73 38.78 117.30 38.24 C 116.28 36.10 115.64 34.42 113.22 33.45 C 113.24 34.72 113.16 35.99 112.99 37.23 L 111.92 37.58 C 111.18 36.50 110.47 35.41 109.79 34.29 C 110.64 34.56 111.49 34.83 112.34 35.11 C 113.20 32.74 112.27 30.18 113.86 28.25 C 113.09 27.48 112.32 26.72 111.52 25.98 C 111.70 25.34 111.79 24.71 111.76 24.08 L 111.32 23.75 L 109.84 22.53 C 110.52 22.07 111.22 21.65 111.96 21.28 C 111.61 20.09 110.61 19.17 108.97 18.52 C 109.70 18.01 110.43 17.50 111.16 16.98 C 110.29 16.23 109.42 15.47 108.55 14.73 C 108.76 13.87 108.97 13.01 109.19 12.16 C 107.70 11.49 106.16 10.94 104.62 10.40 C 103.83 8.86 102.56 7.81 101.60 6.41 C 98.09 4.89 94.51 2.95 90.72 2.13 C 90.26 2.73 89.80 3.33 89.33 3.93 C 88.80 3.36 88.25 2.80 87.70 2.24 C 86.58 2.06 85.51 2.11 84.48 2.37 C 84.06 2.59 83.65 2.81 83.23 3.04 C 83.45 3.67 83.66 4.30 83.88 4.93 C 83.05 5.15 82.23 5.35 81.40 5.52 C 80.56 1.35 86.35 0.27 89.24 1.94 Z" fill="#3d3209"/>
<path d="M 84.48 2.37 C 85.51 2.11 86.58 2.06 87.70 2.24 C 88.25 2.80 88.80 3.36 89.33 3.93 C 89.80 3.33 90.26 2.73 90.72 2.13 C 94.51 2.95 98.09 4.89 101.60 6.41 C 102.56 7.81 103.83 8.86 104.62 10.40 C 106.16 10.94 107.70 11.49 109.19 12.16 C 108.97 13.01 108.76 13.87 108.55 14.73 C 109.42 15.47 110.29 16.23 111.16 16.98 C 110.43 17.50 109.70 18.01 108.97 18.52 C 110.61 19.17 111.61 20.09 111.96 21.28 C 111.22 21.65 110.52 22.07 109.84 22.53 L 111.32 23.75 L 110.01 24.89 C 108.67 24.81 107.33 24.69 105.99 24.60 C 106.56 26.06 108.19 27.03 109.26 28.13 L 110.04 27.90 C 110.71 27.69 111.20 27.05 111.52 25.98 C 112.32 26.72 113.09 27.48 113.86 28.25 C 112.27 30.18 113.20 32.74 112.34 35.11 C 111.49 34.83 110.64 34.56 109.79 34.29 C 110.47 35.41 111.18 36.50 111.92 37.58 L 112.99 37.23 C 113.16 35.99 113.24 34.72 113.22 33.45 C 115.64 34.42 116.28 36.10 117.30 38.24 C 116.73 38.78 116.10 39.27 115.40 39.68 C 115.85 40.74 116.09 41.80 116.11 42.86 C 114.85 42.80 113.68 43.00 112.59 43.47 C 110.05 42.09 109.35 43.24 107.27 44.55 C 103.71 44.04 105.82 42.05 105.98 39.79 C 103.35 40.71 104.20 44.77 105.05 46.71 C 105.76 46.47 106.47 46.24 107.19 46.02 C 106.74 47.60 106.54 49.27 106.24 50.89 L 104.97 51.82 C 101.09 51.46 98.19 52.78 94.97 49.90 C 95.30 47.51 95.25 46.38 97.47 45.03 C 97.77 46.07 98.25 46.96 98.91 47.72 C 102.15 46.85 102.28 40.09 98.91 39.88 C 99.56 42.06 100.70 43.74 100.02 46.11 C 99.13 45.23 98.31 44.29 97.52 43.31 C 96.80 43.48 96.08 43.65 95.36 43.82 C 93.44 42.48 93.05 43.04 91.23 44.01 C 91.16 42.66 90.70 41.76 89.84 41.30 C 89.45 41.00 89.05 40.70 88.65 40.40 C 90.02 39.22 90.04 38.40 88.69 37.92 L 88.62 37.88 C 89.37 35.29 91.30 35.22 92.84 33.56 L 93.88 32.01 C 95.51 31.65 96.77 30.75 98.14 29.86 C 97.57 29.02 96.83 28.30 95.91 27.68 L 94.64 29.15 C 91.44 28.49 94.77 25.66 92.92 23.27 C 93.23 21.52 93.75 20.45 94.88 19.06 C 97.54 21.35 98.63 18.42 101.88 19.08 C 102.23 18.23 102.57 17.37 102.92 16.52 C 101.68 16.41 100.45 16.28 99.22 16.13 L 98.70 18.17 C 97.99 17.81 97.41 17.22 96.96 16.40 C 95.67 17.22 94.40 17.99 93.08 18.74 C 93.49 17.59 93.89 16.43 94.26 15.27 C 91.61 14.34 92.86 14.00 92.00 12.12 C 89.32 11.97 89.79 9.30 87.06 8.74 C 87.59 7.60 89.02 6.40 88.05 5.14 C 87.70 4.01 86.33 3.75 83.95 4.37 C 84.12 3.70 84.30 3.04 84.48 2.37 Z" fill="#f9de0e"/>
<path d="M 83.95 4.37 C 86.33 3.75 87.70 4.01 88.05 5.14 C 89.02 6.40 87.59 7.60 87.06 8.74 C 89.79 9.30 89.32 11.97 92.00 12.12 C 92.86 14.00 91.61 14.34 94.26 15.27 C 93.89 16.43 93.49 17.59 93.08 18.74 C 94.40 17.99 95.67 17.22 96.96 16.40 C 97.41 17.22 97.99 17.81 98.70 18.17 L 99.22 16.13 C 100.45 16.28 101.68 16.41 102.92 16.52 C 102.57 17.37 102.23 18.23 101.88 19.08 C 98.63 18.42 97.54 21.35 94.88 19.06 C 93.75 20.45 93.23 21.52 92.92 23.27 L 92.29 24.29 C 92.45 24.80 92.62 25.31 92.79 25.82 C 92.20 26.22 91.60 26.63 91.00 27.04 C 90.63 25.90 90.63 24.70 90.99 23.42 C 87.35 23.55 86.37 20.97 84.44 18.51 C 83.11 16.45 80.48 16.98 79.44 14.56 C 77.18 10.52 73.27 9.60 69.03 8.95 C 58.11 7.59 46.73 7.76 35.74 8.01 C 37.11 10.72 39.96 12.27 43.00 12.00 C 46.82 12.26 50.14 10.70 53.86 10.38 C 53.64 11.32 52.81 11.96 51.35 12.30 L 52.66 13.56 C 54.00 14.45 56.30 13.79 57.88 14.04 C 58.33 14.61 58.77 15.19 59.21 15.76 C 60.14 15.62 61.07 15.44 61.98 15.23 C 64.21 14.91 65.61 12.80 67.82 12.95 C 67.03 14.25 66.23 14.89 64.87 15.56 C 63.52 15.77 62.90 16.20 63.00 16.85 C 64.29 17.05 65.94 17.23 67.11 16.55 C 68.01 16.09 68.93 15.67 69.87 15.29 L 71.25 15.71 C 70.47 16.37 67.92 17.03 68.03 18.16 C 69.75 18.74 71.91 16.95 73.69 16.69 L 73.15 18.15 C 72.50 18.55 69.65 18.88 70.03 19.87 C 71.57 20.19 73.05 20.46 74.08 18.99 C 75.05 18.97 76.02 19.00 76.99 19.08 C 75.85 20.32 73.81 20.63 72.94 22.00 C 74.98 21.83 76.96 21.39 78.95 20.96 C 78.65 21.53 78.36 22.10 78.06 22.68 C 75.96 22.58 74.94 22.95 74.99 23.81 C 76.60 24.20 78.54 24.18 80.01 23.35 L 81.62 23.78 C 81.04 24.70 79.96 25.12 78.37 25.04 C 78.75 25.88 79.11 26.73 79.46 27.58 C 78.05 27.13 76.81 26.34 75.72 25.21 C 73.68 24.39 71.35 26.25 69.12 26.25 C 68.35 26.19 67.82 26.69 67.55 27.74 C 70.72 28.05 73.47 26.99 76.51 26.37 C 76.38 28.62 73.91 27.67 72.46 28.78 C 73.66 28.79 74.86 28.78 76.05 28.76 L 77.46 29.80 C 75.85 29.72 75.03 30.05 74.99 30.80 C 76.38 31.23 77.46 31.08 78.24 30.34 C 78.92 30.53 79.59 30.75 80.26 30.99 C 79.30 31.64 78.33 32.28 77.35 32.90 C 79.26 33.77 80.60 32.85 82.31 32.11 C 85.75 33.91 86.93 31.49 90.09 31.78 C 89.41 33.44 85.65 34.03 84.01 33.78 C 81.83 33.40 80.11 34.75 77.90 34.73 C 77.55 35.66 77.22 36.60 76.91 37.54 C 78.14 37.20 79.24 36.46 80.20 35.32 C 80.83 35.89 81.47 36.46 82.10 37.02 C 84.29 35.35 85.10 35.67 87.71 35.95 C 88.96 35.05 90.11 34.13 91.06 32.90 C 90.59 31.90 90.09 30.93 89.56 29.98 C 90.10 29.21 90.66 28.46 91.23 27.71 C 92.86 28.81 93.23 29.93 92.33 31.07 C 91.68 31.88 91.84 32.71 92.84 33.56 C 91.30 35.22 89.37 35.29 88.62 37.88 C 87.18 37.71 85.75 36.28 84.37 37.34 C 82.32 38.51 82.02 38.60 80.12 37.04 C 79.37 37.63 78.61 38.23 77.85 38.82 C 76.60 38.42 75.34 37.88 74.05 37.73 C 70.73 37.90 67.74 36.80 64.44 36.27 C 63.03 34.67 61.43 33.47 59.83 32.08 C 57.96 31.31 55.85 31.17 53.91 30.60 C 57.94 29.15 62.11 31.08 66.13 28.18 L 63.91 26.41 C 60.20 27.40 56.76 27.87 52.92 28.05 C 53.53 28.68 54.13 29.31 54.74 29.94 L 53.41 30.45 C 51.65 29.61 50.20 28.47 48.21 28.29 C 43.61 27.51 40.52 24.77 37.21 21.76 C 34.57 20.64 32.81 19.13 30.72 17.23 C 27.30 16.11 26.16 13.17 22.64 12.35 C 20.99 11.38 16.85 8.93 17.66 6.65 C 29.76 6.36 41.89 6.83 54.00 6.65 C 58.41 6.46 62.64 7.27 67.03 7.37 C 72.22 7.90 77.45 8.76 80.33 13.65 C 81.41 16.03 83.99 15.58 85.32 17.66 C 86.68 19.54 87.59 21.40 89.86 22.35 C 90.91 21.87 92.86 21.21 93.04 19.89 C 92.14 19.73 91.30 19.45 90.51 19.05 C 91.32 18.05 92.75 17.17 93.06 15.89 L 91.13 15.52 C 90.90 12.86 89.21 13.74 88.81 11.19 C 87.31 9.28 82.76 9.01 83.97 5.57 C 85.01 6.06 86.04 6.58 87.06 7.13 L 86.99 5.17 L 83.95 4.37 Z" fill="#5a5126"/>
<path d="M 96.75 6.45 L 96.80 7.21 C 95.20 7.03 93.58 6.95 91.98 6.84 C 90.35 6.99 89.44 6.26 89.24 4.66 C 91.37 2.92 94.63 5.66 96.75 6.45 Z" fill="#74650c"/>
<path d="M 91.98 6.84 C 93.58 6.95 95.20 7.03 96.80 7.21 C 96.50 9.26 92.72 8.42 91.98 6.84 Z" fill="#ebd240"/>
<path d="M 19.32 7.91 C 24.12 7.83 28.94 7.91 33.73 8.06 C 34.89 9.53 36.56 10.82 37.23 12.57 C 31.33 13.15 23.21 13.29 19.32 7.91 Z" fill="#f6dd0e"/>
<path d="M 35.74 8.01 C 46.73 7.76 58.11 7.59 69.03 8.95 C 73.27 9.60 77.18 10.52 79.44 14.56 C 80.48 16.98 83.11 16.45 84.44 18.51 C 86.37 20.97 87.35 23.55 90.99 23.42 C 90.63 24.70 90.63 25.90 91.00 27.04 L 91.23 27.71 C 90.66 28.46 90.10 29.21 89.56 29.98 C 90.09 30.93 90.59 31.90 91.06 32.90 C 90.11 34.13 88.96 35.05 87.71 35.95 C 85.10 35.67 84.29 35.35 82.10 37.02 C 81.47 36.46 80.83 35.89 80.20 35.32 C 79.24 36.46 78.14 37.20 76.91 37.54 C 77.22 36.60 77.55 35.66 77.90 34.73 C 80.11 34.75 81.83 33.40 84.01 33.78 C 85.65 34.03 89.41 33.44 90.09 31.78 C 86.93 31.49 85.75 33.91 82.31 32.11 C 80.60 32.85 79.26 33.77 77.35 32.90 C 78.33 32.28 79.30 31.64 80.26 30.99 C 79.59 30.75 78.92 30.53 78.24 30.34 L 77.46 29.80 L 76.05 28.76 C 74.86 28.78 73.66 28.79 72.46 28.78 C 73.91 27.67 76.38 28.62 76.51 26.37 C 73.47 26.99 70.72 28.05 67.55 27.74 C 67.82 26.69 68.35 26.19 69.12 26.25 C 71.35 26.25 73.68 24.39 75.72 25.21 C 76.81 26.34 78.05 27.13 79.46 27.58 C 79.11 26.73 78.75 25.88 78.37 25.04 C 79.96 25.12 81.04 24.70 81.62 23.78 L 80.01 23.35 L 78.06 22.68 C 78.36 22.10 78.65 21.53 78.95 20.96 C 76.96 21.39 74.98 21.83 72.94 22.00 C 73.81 20.63 75.85 20.32 76.99 19.08 C 76.02 19.00 75.05 18.97 74.08 18.99 L 73.15 18.15 L 73.69 16.69 C 73.30 16.28 72.48 15.96 71.25 15.71 L 69.87 15.29 C 68.93 15.67 68.01 16.09 67.11 16.55 L 64.87 15.56 C 66.23 14.89 67.03 14.25 67.82 12.95 C 65.61 12.80 64.21 14.91 61.98 15.23 L 61.64 14.00 C 62.32 13.38 62.67 12.73 62.71 12.07 C 61.42 11.47 59.61 12.85 58.39 13.30 C 56.48 13.44 54.57 13.53 52.66 13.56 L 51.35 12.30 C 52.81 11.96 53.64 11.32 53.86 10.38 C 50.14 10.70 46.82 12.26 43.00 12.00 C 39.96 12.27 37.11 10.72 35.74 8.01 Z" fill="#f8de0d"/>
<path d="M 137.94 7.65 C 146.96 7.56 156.00 7.78 165.04 7.65 L 164.73 9.07 C 159.84 11.60 152.91 11.34 147.82 9.54 C 148.13 10.52 148.93 11.15 150.22 11.44 L 150.68 12.17 C 147.62 15.39 144.13 13.43 141.03 11.55 L 140.17 12.07 L 137.47 13.55 L 136.29 13.89 C 137.33 14.61 138.35 15.36 139.36 16.13 C 136.52 17.33 134.06 15.78 131.49 14.73 C 131.68 15.67 132.41 16.28 133.68 16.55 L 131.25 17.07 L 129.70 17.32 C 128.97 18.03 128.23 18.73 127.48 19.42 L 126.14 19.15 L 125.91 20.00 C 125.73 20.60 125.55 21.19 125.38 21.79 L 125.12 22.61 C 126.14 22.93 127.16 23.25 128.18 23.58 C 125.54 25.80 123.89 24.32 121.12 23.80 L 122.35 25.22 L 120.92 26.03 C 120.22 26.30 119.81 27.04 119.71 28.25 C 118.71 28.40 117.70 28.55 116.70 28.70 C 117.47 29.13 118.25 29.53 119.03 29.92 C 119.49 29.55 119.95 29.18 120.40 28.81 C 121.56 28.88 122.73 28.94 123.90 28.97 C 124.92 29.71 125.85 30.57 126.68 31.56 L 122.25 30.58 C 122.96 31.39 123.66 32.20 124.37 33.00 C 122.57 33.91 121.63 32.87 120.18 32.02 C 118.89 33.36 117.32 33.52 115.63 34.10 C 113.99 31.65 113.48 31.91 115.77 29.91 C 114.93 28.16 113.60 27.15 114.26 25.05 C 113.49 24.16 112.70 23.27 111.91 22.40 C 113.60 22.42 115.11 22.45 116.63 21.63 C 118.12 20.53 118.11 17.88 119.76 16.78 C 121.42 15.63 122.86 14.70 123.93 12.94 C 127.26 8.62 133.06 8.70 137.94 7.65 Z" fill="#f7df0b"/>
<path d="M 167.10 7.70 C 171.75 7.61 176.40 7.80 181.05 7.62 C 180.55 9.22 178.49 9.70 177.08 10.34 C 173.00 11.76 168.15 11.79 164.03 10.59 C 164.89 9.35 165.91 8.39 167.10 7.70 Z" fill="#f2de15"/>
<path d="M 150.22 11.44 L 150.84 11.24 L 150.68 12.17 L 150.22 11.44 Z" fill="#989c51"/>
<path d="M 62.71 12.07 C 62.67 12.73 62.32 13.38 61.64 14.00 C 60.02 14.24 58.94 14.00 58.39 13.30 C 59.61 12.85 61.42 11.47 62.71 12.07 Z" fill="#887011"/>
<path d="M 159.97 11.94 L 157.98 13.21 C 158.32 13.57 158.67 13.92 159.03 14.27 C 160.26 13.27 161.51 12.32 162.81 11.43 C 166.62 12.46 170.37 12.36 174.27 12.13 C 172.25 14.96 168.31 16.02 165.01 16.31 C 161.59 16.35 158.35 16.47 155.50 14.33 C 153.69 15.47 151.86 15.17 149.85 15.16 C 151.46 10.49 156.12 11.96 159.97 11.94 Z" fill="#f5e10e"/>
<path d="M 40.77 13.12 C 43.68 13.25 46.37 13.27 49.18 12.38 C 50.42 12.74 51.37 14.03 52.25 14.92 C 48.92 15.36 42.90 16.51 40.77 13.12 Z" fill="#ebd839"/>
<path d="M 52.66 13.56 C 54.57 13.53 56.48 13.44 58.39 13.30 C 58.94 14.00 60.02 14.24 61.64 14.00 L 61.98 15.23 C 61.07 15.44 60.14 15.62 59.21 15.76 C 58.77 15.19 58.33 14.61 57.88 14.04 C 56.30 13.79 54.00 14.45 52.66 13.56 Z" fill="#c4b94a"/>
<path d="M 137.47 13.55 L 140.17 12.07 C 141.28 13.54 144.62 13.54 144.69 15.30 C 142.29 16.16 139.43 14.97 137.47 13.55 Z" fill="#efde40"/>
<path d="M 27.75 13.69 C 31.84 14.31 34.84 14.27 38.91 13.53 L 40.40 14.57 C 37.98 14.62 35.53 14.67 33.13 15.01 L 32.97 15.82 C 36.01 16.24 38.64 16.50 41.61 15.41 C 42.55 15.77 43.35 16.29 44.00 16.96 C 40.40 17.15 36.68 17.29 33.10 16.85 C 31.48 16.15 28.26 15.57 27.75 13.69 Z" fill="#e5d446"/>
<path d="M 33.13 15.01 C 35.53 14.67 37.98 14.62 40.40 14.57 L 41.61 15.41 C 38.64 16.50 36.01 16.24 32.97 15.82 L 33.13 15.01 Z" fill="#ffe00f"/>
<path d="M 106.11 15.08 C 107.01 15.30 107.27 15.95 106.91 17.02 C 105.32 17.92 104.21 15.56 106.11 15.08 Z" fill="#503f09"/>
<path d="M 149.15 15.71 C 148.03 16.24 146.91 16.28 145.77 15.83 C 146.06 14.26 148.30 15.04 149.15 15.71 Z" fill="#8e8743"/>
<path d="M 48.78 16.53 C 52.19 16.56 54.91 15.06 58.18 16.56 C 59.25 16.44 63.67 16.86 61.62 18.62 C 57.42 19.57 53.31 19.05 49.29 17.59 L 48.78 16.53 Z" fill="#f7e017"/>
<path d="M 64.87 15.56 L 67.11 16.55 C 65.94 17.23 64.29 17.05 63.00 16.85 C 62.90 16.20 63.52 15.77 64.87 15.56 Z" fill="#f5df6b"/>
<path d="M 71.25 15.71 C 72.48 15.96 73.30 16.28 73.69 16.69 C 71.91 16.95 69.75 18.74 68.03 18.16 C 67.92 17.03 70.47 16.37 71.25 15.71 Z" fill="#ecd94a"/>
<path d="M 145.77 15.83 C 146.91 16.28 148.03 16.24 149.15 15.71 C 150.84 16.44 152.46 16.17 154.23 16.14 C 152.95 17.91 151.16 18.69 149.15 19.39 C 146.99 18.84 143.84 18.50 141.77 19.42 C 140.42 19.24 139.14 18.74 137.94 17.93 C 139.50 15.80 143.64 17.00 145.77 15.83 Z" fill="#f9df0e"/>
<path d="M 155.85 16.37 L 157.03 16.86 L 157.38 17.72 L 158.46 17.98 L 159.36 17.39 C 163.16 17.60 166.22 17.32 169.93 16.11 C 164.78 22.66 153.72 23.37 146.11 22.07 L 146.04 20.87 C 150.25 20.75 152.96 19.35 155.85 16.37 Z" fill="#f8e10f"/>
<path d="M 131.25 17.07 L 133.68 16.55 L 134.87 16.93 C 134.89 17.96 133.94 18.34 132.02 18.06 C 130.92 19.93 129.32 21.81 127.48 19.42 C 128.23 18.73 128.97 18.03 129.70 17.32 L 131.25 17.07 Z" fill="#b6a753"/>
<path d="M 157.03 16.86 C 157.96 16.78 158.73 16.95 159.36 17.39 L 158.46 17.98 L 157.38 17.72 L 157.03 16.86 Z" fill="#e3d157"/>
<path d="M 33.46 17.97 C 36.09 17.96 38.71 18.15 41.33 18.24 C 39.42 18.83 37.46 19.24 35.52 19.76 C 34.48 19.39 33.79 18.79 33.46 17.97 Z" fill="#c3b748"/>
<path d="M 41.33 18.24 C 45.41 16.66 47.64 18.22 51.27 19.75 C 51.89 21.70 53.52 21.46 55.12 20.87 L 56.12 22.09 C 55.27 22.73 54.23 23.08 52.99 23.14 C 46.92 23.57 40.98 22.45 35.52 19.76 C 37.46 19.24 39.42 18.83 41.33 18.24 Z" fill="#f9dc0b"/>
<path d="M 73.15 18.15 L 74.08 18.99 C 73.05 20.46 71.57 20.19 70.03 19.87 C 69.65 18.88 72.50 18.55 73.15 18.15 Z" fill="#cdc04d"/>
<path d="M 63.22 19.27 C 65.63 18.38 68.14 19.70 70.21 20.86 L 69.19 21.66 C 65.70 22.30 58.85 23.57 56.42 20.26 C 58.75 20.09 61.01 20.10 63.22 19.27 Z" fill="#f3de2e"/>
<path d="M 107.61 19.38 C 108.17 20.40 108.24 21.68 107.71 22.72 L 105.91 21.84 L 105.14 20.97 L 104.90 20.14 C 105.79 19.77 106.69 19.52 107.61 19.38 Z" fill="#877017"/>
<path d="M 136.20 18.18 C 138.71 19.51 141.09 20.68 143.99 20.86 C 144.35 22.37 141.01 22.52 140.02 22.73 C 137.63 22.91 135.13 22.00 133.03 20.92 C 131.40 18.89 134.93 18.46 136.20 18.18 Z" fill="#f9e02e"/>
<path d="M 141.77 19.42 C 143.84 18.50 146.99 18.84 149.15 19.39 C 147.12 20.14 143.64 20.80 141.77 19.42 Z" fill="#bcae52"/>
<path d="M 51.27 19.75 C 52.54 19.93 54.40 19.59 55.12 20.87 C 53.52 21.46 51.89 21.70 51.27 19.75 Z" fill="#f3e048"/>
<path d="M 125.91 20.00 C 126.99 20.33 128.04 20.74 129.04 21.23 C 128.88 22.48 126.23 22.26 125.38 21.79 C 125.55 21.19 125.73 20.60 125.91 20.00 Z" fill="#ecc736"/>
<path d="M 105.14 20.97 L 105.91 21.84 L 105.14 20.97 Z" fill="#dbc567"/>
<path d="M 131.37 20.99 C 134.12 22.81 136.54 23.86 139.91 23.88 C 137.62 26.99 131.89 26.24 129.74 22.98 C 130.11 22.23 130.66 21.57 131.37 20.99 Z" fill="#f1df38"/>
<path d="M 71.65 22.20 C 72.70 22.66 73.15 23.24 73.01 23.94 C 69.04 25.49 65.22 26.35 61.09 24.68 L 61.04 23.87 C 64.62 23.43 68.16 23.16 71.65 22.20 Z" fill="#e8d23b"/>
<path d="M 98.91 23.23 C 98.88 24.60 94.57 26.27 95.43 23.41 C 96.26 21.10 97.42 22.56 98.91 23.23 Z" fill="#887a16"/>
<path d="M 40.76 23.03 C 45.56 24.60 51.10 23.90 56.15 23.87 C 52.98 26.31 47.93 23.77 44.48 25.81 C 42.94 25.14 41.77 24.40 40.76 23.03 Z" fill="#e5d04f"/>
<path d="M 58.08 23.02 C 59.07 23.94 59.97 24.93 60.88 25.92 C 55.17 27.22 50.09 28.42 44.48 25.81 C 47.93 23.77 52.98 26.31 56.15 23.87 C 56.79 23.58 57.43 23.30 58.08 23.02 Z" fill="#f5de1f"/>
<path d="M 78.06 22.68 L 80.01 23.35 C 78.54 24.18 76.60 24.20 74.99 23.81 C 74.94 22.95 75.96 22.58 78.06 22.68 Z" fill="#e4d768"/>
<path d="M 147.88 23.57 C 149.77 26.41 152.91 23.51 154.51 26.48 C 149.75 27.66 145.16 26.99 140.39 26.19 C 141.25 22.72 144.93 22.71 147.88 23.57 Z" fill="#f6dd1d"/>
<path d="M 162.28 22.27 C 160.74 24.15 156.89 25.91 154.51 26.48 C 152.91 23.51 149.77 26.41 147.88 23.57 C 152.80 24.11 157.50 23.34 162.28 22.27 Z" fill="#f0da3e"/>
<path d="M 92.29 24.29 L 92.92 23.27 C 94.77 25.66 91.44 28.49 94.64 29.15 C 94.37 30.09 94.12 31.05 93.88 32.01 L 92.84 33.56 C 91.84 32.71 91.68 31.88 92.33 31.07 C 93.23 29.93 92.86 28.81 91.23 27.71 L 91.00 27.04 C 91.60 26.63 92.20 26.22 92.79 25.82 C 92.62 25.31 92.45 24.80 92.29 24.29 Z" fill="#cebd34"/>
<path d="M 105.99 24.60 C 107.33 24.69 108.67 24.81 110.01 24.89 C 109.97 25.90 109.98 26.90 110.04 27.90 L 109.26 28.13 C 108.19 27.03 106.56 26.06 105.99 24.60 Z" fill="#7e6f16"/>
<path d="M 111.32 23.75 L 111.76 24.08 C 111.79 24.71 111.70 25.34 111.52 25.98 C 111.20 27.05 110.71 27.69 110.04 27.90 C 109.98 26.90 109.97 25.90 110.01 24.89 L 111.32 23.75 Z" fill="#f2e250"/>
<path d="M 129.15 23.85 C 130.91 25.48 132.22 26.27 134.55 26.94 L 134.76 27.86 C 131.12 28.48 128.82 28.87 125.98 26.11 C 127.01 25.32 128.07 24.57 129.15 23.85 Z" fill="#e6d035"/>
<path d="M 100.75 24.99 C 102.14 24.99 103.52 25.05 104.88 25.18 C 105.06 26.46 105.04 27.70 104.83 28.91 C 104.24 28.80 103.77 28.57 103.41 28.23 C 105.38 26.95 103.58 25.52 101.85 26.30 L 100.75 24.99 Z" fill="#b2972d"/>
<path d="M 122.35 25.22 C 123.28 25.23 123.89 25.55 124.17 26.20 C 124.11 27.57 121.29 27.12 120.92 26.03 L 122.35 25.22 Z" fill="#d8ba5c"/>
<path d="M 84.39 25.78 C 83.79 26.66 82.98 27.37 81.94 27.92 C 83.89 28.57 85.03 28.02 86.81 27.37 C 87.94 28.16 89.07 28.63 89.22 30.18 C 88.18 29.91 87.18 29.55 86.20 29.09 C 83.08 30.61 82.42 29.49 79.70 27.96 C 80.51 25.29 81.94 25.88 84.39 25.78 Z" fill="#7a6513"/>
<path d="M 101.85 26.30 C 103.58 25.52 105.38 26.95 103.41 28.23 C 102.86 27.61 102.34 26.96 101.85 26.30 Z" fill="#452c0f"/>
<path d="M 63.91 26.41 L 66.13 28.18 C 62.11 31.08 57.94 29.15 53.91 30.60 C 53.75 30.57 53.58 30.52 53.41 30.45 L 54.74 29.94 C 54.13 29.31 53.53 28.68 52.92 28.05 C 56.76 27.87 60.20 27.40 63.91 26.41 Z" fill="#e5d141"/>
<path d="M 125.57 27.05 C 127.22 28.20 129.04 29.02 130.80 29.99 C 127.95 30.60 126.42 29.30 123.90 28.97 C 122.73 28.94 121.56 28.88 120.40 28.81 L 121.24 28.05 C 122.75 27.84 124.14 27.59 125.57 27.05 Z" fill="#e1c945"/>
<path d="M 137.30 26.78 C 139.20 25.91 140.64 26.98 142.50 27.36 C 144.91 27.89 147.49 27.70 149.95 27.88 L 149.92 29.13 C 145.46 31.27 141.56 29.70 137.34 27.91 L 137.30 26.78 Z" fill="#e8d444"/>
<path d="M 95.91 27.68 C 96.83 28.30 97.57 29.02 98.14 29.86 C 96.77 30.75 95.51 31.65 93.88 32.01 C 94.12 31.05 94.37 30.09 94.64 29.15 L 95.91 27.68 Z" fill="#877218"/>
<path d="M 68.98 29.06 C 69.47 30.67 64.80 31.59 63.75 31.19 C 63.58 29.89 67.86 28.76 68.98 29.06 Z" fill="#e4cf4b"/>
<path d="M 106.65 29.33 C 108.06 29.32 109.47 29.32 110.87 29.33 C 111.31 30.94 110.56 31.86 109.86 33.23 C 108.65 32.04 107.61 30.72 106.65 29.33 Z" fill="#92841f"/>
<path d="M 133.56 29.02 L 136.02 27.94 C 138.15 29.26 140.24 30.20 142.60 31.06 C 140.00 33.30 134.98 31.82 133.56 29.02 Z" fill="#e7d629"/>
<path d="M 77.46 29.80 L 78.24 30.34 C 77.46 31.08 76.38 31.23 74.99 30.80 C 75.03 30.05 75.85 29.72 77.46 29.80 Z" fill="#d4cc5e"/>
<path d="M 132.90 29.92 C 133.88 30.71 134.87 31.48 135.88 32.22 L 135.16 33.32 L 134.33 33.41 L 133.26 33.53 C 133.13 34.47 133.20 35.46 133.46 36.49 C 131.07 37.28 131.22 34.52 129.43 33.59 C 129.52 34.81 130.62 36.43 128.93 37.02 C 127.93 38.22 126.50 35.29 125.56 34.74 L 125.98 38.43 C 124.91 37.70 123.90 36.88 122.97 35.99 C 122.36 36.72 121.73 37.43 121.10 38.14 C 120.09 37.85 119.09 37.53 118.10 37.19 C 117.48 36.31 116.86 35.43 116.23 34.55 C 117.69 34.79 118.99 34.59 120.12 33.93 C 121.23 34.11 122.36 34.56 123.49 34.53 C 124.84 33.72 125.89 32.64 127.47 32.24 C 129.66 31.68 130.65 29.93 132.90 29.92 Z" fill="#f0dd2c"/>
<path d="M 72.14 30.16 C 74.07 31.46 75.98 32.80 77.82 34.25 C 77.54 35.53 75.34 36.26 74.34 37.10 L 73.76 35.24 C 72.75 35.71 71.74 36.19 70.74 36.66 C 70.66 35.84 70.57 35.02 70.49 34.20 C 69.72 34.90 68.94 35.60 68.15 36.30 L 67.95 33.90 C 67.02 34.45 66.08 34.95 65.13 35.40 C 64.34 34.70 63.75 33.79 63.36 32.67 C 66.57 32.59 69.15 31.08 72.14 30.16 Z" fill="#f5de0c"/>
<path d="M 100.07 33.51 C 101.92 34.53 102.46 36.07 102.08 38.14 C 100.70 37.41 99.33 36.64 97.97 35.87 C 98.57 35.27 99.28 33.68 100.07 33.51 Z" fill="#89751d"/>
<path d="M 105.94 33.16 C 106.34 34.01 106.74 34.87 107.12 35.73 C 106.05 36.85 105.00 37.38 103.96 37.31 C 103.80 35.90 104.32 33.47 105.94 33.16 Z" fill="#7b6618"/>
<path d="M 134.33 33.41 L 135.16 33.32 C 135.78 34.21 136.18 35.11 136.37 35.99 C 135.03 36.30 133.22 34.74 134.33 33.41 Z" fill="#ecda5e"/>
<path d="M 136.53 32.59 C 137.78 32.76 138.74 33.22 139.42 33.99 C 138.72 36.34 136.33 34.17 136.53 32.59 Z" fill="#ebe256"/>
<path d="M 93.97 35.02 C 94.49 35.91 94.82 36.82 94.95 37.76 C 93.99 38.34 93.00 38.83 91.99 39.25 C 91.79 37.80 92.12 35.14 93.97 35.02 Z" fill="#927d1f"/>
<path d="M 88.69 37.92 C 90.04 38.40 90.02 39.22 88.65 40.40 C 86.67 39.10 86.69 38.27 88.69 37.92 Z" fill="#534c11"/>
<path d="M 98.91 39.88 C 102.28 40.09 102.15 46.85 98.91 47.72 C 98.25 46.96 97.77 46.07 97.47 45.03 C 95.25 46.38 95.30 47.51 94.97 49.90 C 98.19 52.78 101.09 51.46 104.97 51.82 L 106.24 50.89 C 108.12 49.75 109.08 48.05 107.86 45.98 L 107.19 46.02 C 106.47 46.24 105.76 46.47 105.05 46.71 C 104.20 44.77 103.35 40.71 105.98 39.79 C 105.82 42.05 103.71 44.04 107.27 44.55 C 109.35 43.24 110.05 42.09 112.59 43.47 C 113.68 43.00 114.85 42.80 116.11 42.86 L 115.97 44.79 C 115.19 45.34 114.77 46.30 114.71 47.69 C 113.80 48.06 112.88 48.42 111.97 48.80 C 113.25 51.69 115.64 51.59 117.93 53.12 C 120.37 55.39 123.94 56.43 126.94 57.76 C 130.19 57.65 133.06 58.82 136.10 59.89 C 145.96 63.22 155.32 68.41 164.08 73.98 C 164.85 74.39 165.45 74.93 165.89 75.60 C 162.72 76.12 159.48 75.99 156.33 76.57 C 156.71 79.11 157.39 81.90 157.15 84.47 C 154.66 82.70 152.07 81.07 149.50 79.42 C 158.71 95.33 159.66 115.18 151.82 131.83 C 145.34 146.07 132.63 156.83 117.79 161.56 C 110.08 164.20 102.23 164.37 94.17 164.01 L 94.26 162.32 C 95.91 162.61 97.57 162.86 99.23 163.08 C 96.88 159.87 93.41 157.25 90.50 154.52 C 71.07 150.22 55.57 132.87 53.82 113.01 C 52.53 100.69 56.23 87.64 64.11 78.05 C 66.16 75.14 68.97 73.11 71.24 70.49 C 69.93 70.72 68.65 71.02 67.39 71.41 C 63.12 73.15 58.91 75.47 55.17 78.15 C 44.62 93.57 43.42 114.70 51.54 131.46 C 59.14 147.77 75.74 160.21 93.69 162.23 L 94.09 163.65 C 92.68 163.47 91.27 163.29 89.86 163.13 C 71.48 159.21 55.29 146.00 48.69 128.27 C 42.58 112.47 44.04 94.17 52.52 79.52 C 49.86 81.10 47.29 82.84 44.71 84.55 C 44.70 81.82 45.53 79.16 45.62 76.50 C 42.45 76.09 39.29 76.06 36.13 75.59 C 37.04 74.39 38.55 73.70 39.81 72.84 C 47.78 67.91 56.19 63.39 65.00 60.12 C 68.29 58.79 71.49 57.64 75.10 57.82 C 78.21 56.71 81.71 55.50 84.41 53.56 C 85.21 54.38 86.10 54.90 87.07 55.13 C 86.41 54.38 85.66 53.71 84.83 53.11 C 88.05 52.61 90.47 52.19 91.77 48.84 C 90.53 47.87 89.60 46.74 88.96 45.44 C 90.32 45.79 91.68 46.13 93.04 46.46 C 93.11 44.81 90.43 45.80 89.40 45.42 C 89.60 44.01 89.21 43.00 88.22 42.41 L 87.86 40.30 L 89.84 41.30 C 90.70 41.76 91.16 42.66 91.23 44.01 C 93.05 43.04 93.44 42.48 95.36 43.82 C 96.08 43.65 96.80 43.48 97.52 43.31 C 98.31 44.29 99.13 45.23 100.02 46.11 C 100.70 43.74 99.56 42.06 98.91 39.88 Z" fill="#4f4030"/>
<path d="M 109.08 44.08 L 109.94 44.07 L 109.96 44.93 L 109.10 44.94 L 109.08 44.08 Z" fill="#d7da8b"/>
<path d="M 107.19 46.02 L 107.86 45.98 C 109.08 48.05 108.12 49.75 106.24 50.89 C 106.54 49.27 106.74 47.60 107.19 46.02 Z" fill="#ecde3e"/>
<path d="M 110.22 49.19 C 111.85 50.06 114.25 52.18 114.80 53.94 C 114.18 54.70 113.26 55.05 112.01 54.99 C 111.90 56.14 111.79 57.30 111.68 58.46 C 111.08 57.28 111.19 55.68 110.34 54.68 C 109.32 53.92 108.24 53.23 107.18 52.52 C 108.00 51.17 108.83 50.02 110.22 49.19 Z" fill="#f8de11"/>
<path d="M 93.13 49.13 C 94.43 50.52 95.35 52.18 96.72 53.51 L 94.74 53.86 L 93.41 54.84 C 93.33 54.83 93.26 54.85 93.19 54.91 C 91.91 55.33 90.56 55.50 89.14 55.44 C 89.00 56.18 88.84 56.92 88.69 57.66 C 86.97 54.70 91.42 51.16 93.13 49.13 Z" fill="#e9da2d"/>
<path d="M 102.67 53.69 C 104.11 54.96 105.26 53.89 106.94 53.79 C 109.94 55.20 109.93 57.27 110.93 60.09 C 113.58 59.51 113.21 59.86 113.43 56.88 C 114.91 57.39 116.59 60.16 118.05 59.32 C 117.64 57.16 116.27 55.72 115.12 53.94 L 116.27 53.54 C 117.83 57.86 121.56 55.77 124.42 58.69 C 120.67 58.82 116.64 61.26 112.99 60.75 C 111.86 60.28 110.99 60.36 110.39 61.01 C 103.98 59.26 97.66 59.97 91.24 60.97 C 89.64 59.38 92.70 56.52 93.19 54.91 C 93.26 54.85 93.33 54.83 93.41 54.84 C 95.61 54.95 97.77 53.96 99.67 55.08 C 100.31 52.79 100.90 53.99 102.67 53.69 Z" fill="#bdbdbe"/>
<path d="M 86.37 55.62 C 86.04 57.21 85.50 58.72 84.94 60.23 C 82.49 59.90 80.25 58.89 77.77 58.68 C 79.56 56.24 83.58 56.94 86.37 55.62 Z" fill="#b8b9b6"/>
<path d="M 88.36 58.52 C 89.26 58.83 89.55 59.61 89.23 60.87 C 86.47 61.49 86.55 60.04 88.36 58.52 Z" fill="#c4c4c3"/>
<path d="M 69.02 59.97 C 76.13 58.04 83.09 61.49 89.99 62.76 C 93.50 63.57 97.09 63.51 100.58 64.37 C 100.55 65.35 100.51 66.33 100.49 67.31 C 100.51 68.11 100.54 68.92 100.59 69.73 C 100.17 68.80 99.72 67.88 99.25 66.98 C 99.40 68.93 99.01 70.42 100.72 71.78 C 100.65 72.43 100.58 73.08 100.52 73.73 C 94.43 74.16 87.98 72.30 81.99 71.17 C 77.11 70.32 72.98 68.57 67.98 69.90 C 63.75 71.35 59.94 73.97 55.91 75.93 C 52.68 77.47 50.00 80.09 46.63 81.22 C 46.56 79.28 46.65 77.35 46.66 75.41 C 44.68 75.29 42.91 75.50 41.06 74.83 C 40.92 73.33 42.80 72.49 43.84 71.77 C 51.77 67.30 60.31 62.68 69.02 59.97 Z" fill="#0a853c"/>
<path d="M 130.02 59.63 C 138.36 61.59 146.23 65.08 153.64 69.33 C 156.00 70.73 160.11 71.95 161.05 74.70 C 159.31 74.74 157.58 74.78 155.84 74.86 C 154.66 76.68 155.85 79.26 155.38 81.37 C 148.00 77.22 141.43 72.35 133.27 69.64 C 127.03 68.66 121.53 70.99 115.02 72.14 C 110.10 72.63 105.52 74.09 100.52 73.73 C 100.58 73.08 100.65 72.43 100.72 71.78 C 103.30 70.64 102.62 69.75 102.83 67.40 L 100.49 67.31 C 100.51 66.33 100.55 65.35 100.58 64.37 C 106.44 64.02 112.30 62.87 117.98 61.48 C 122.23 60.99 125.53 58.78 130.02 59.63 Z" fill="#ce0413"/>
<path d="M 107.75 61.53 L 106.60 62.80 C 102.83 63.15 98.96 63.04 95.19 62.82 L 95.37 61.64 C 99.13 60.54 103.87 60.95 107.75 61.53 Z" fill="#cac5c5"/>
<path d="M 73.07 63.18 C 71.91 64.40 71.11 66.04 69.20 65.89 C 69.17 64.77 69.33 63.72 69.68 62.75 C 70.31 60.82 72.08 62.64 73.07 63.18 Z" fill="#0e3c1b"/>
<path d="M 75.67 63.24 C 76.15 64.29 76.58 65.74 76.51 66.90 C 73.71 67.71 73.84 63.17 75.67 63.24 Z" fill="#073d14"/>
<path d="M 126.11 62.97 C 126.93 63.43 127.74 63.91 128.57 64.37 C 129.11 63.86 129.64 63.36 130.17 62.84 C 130.62 64.16 130.89 65.44 131.02 66.83 C 130.02 67.07 129.01 67.22 127.99 67.28 C 125.93 66.61 125.81 64.84 126.11 62.97 Z" fill="#7c0e12"/>
<path d="M 78.96 63.71 C 79.74 64.40 80.39 65.25 80.90 66.25 C 81.64 65.37 82.42 64.54 83.25 63.77 C 83.23 65.48 83.33 66.83 81.82 67.94 C 80.83 68.20 79.88 67.85 78.95 66.89 C 78.69 65.90 78.69 64.84 78.96 63.71 Z" fill="#0c3d15"/>
<path d="M 119.19 64.30 C 121.07 64.21 122.96 64.22 124.84 64.22 C 124.91 65.36 124.94 66.49 124.93 67.61 C 123.24 67.64 121.55 67.72 119.86 67.80 C 119.41 66.67 119.29 65.50 119.19 64.30 Z" fill="#790a10"/>
<path d="M 133.26 64.23 C 134.98 63.94 136.85 64.51 138.59 64.57 C 138.47 65.76 138.80 67.42 137.96 68.35 C 136.05 68.21 134.16 67.32 132.36 66.68 C 132.34 65.90 132.64 65.08 133.26 64.23 Z" fill="#730d0f"/>
<path d="M 62.06 64.42 C 63.12 65.78 64.05 66.96 63.84 68.79 C 60.57 70.59 58.01 65.44 62.06 64.42 Z" fill="#123d22"/>
<path d="M 85.19 65.12 C 88.69 63.93 88.23 66.64 87.93 69.04 C 86.94 68.76 85.95 68.45 84.96 68.12 C 84.95 67.11 85.03 66.11 85.19 65.12 Z" fill="#0d2d15"/>
<path d="M 113.14 65.11 C 115.14 65.07 114.86 66.40 115.60 67.80 C 115.77 66.40 116.24 65.26 117.00 64.38 C 118.68 65.60 117.83 67.96 117.63 69.67 C 116.52 69.64 114.67 70.05 113.92 69.03 C 112.90 67.84 112.89 66.59 113.14 65.11 Z" fill="#840b0f"/>
<path d="M 90.44 66.28 C 92.99 64.54 92.17 70.81 90.15 69.72 C 89.41 68.63 89.51 67.48 90.44 66.28 Z" fill="#0b5120"/>
<path d="M 94.15 66.16 C 95.03 66.45 95.84 66.85 96.57 67.35 C 96.73 68.17 96.84 69.00 96.91 69.83 C 95.73 71.59 94.53 70.79 93.11 69.86 C 93.30 68.57 93.61 67.35 94.15 66.16 Z" fill="#0f3d19"/>
<path d="M 99.25 66.98 C 99.72 67.88 100.17 68.80 100.59 69.73 C 100.54 68.92 100.51 68.11 100.49 67.31 L 102.83 67.40 C 102.62 69.75 103.30 70.64 100.72 71.78 C 99.01 70.42 99.40 68.93 99.25 66.98 Z" fill="#4f1b10"/>
<path d="M 104.90 67.04 C 107.92 65.75 108.23 67.24 108.77 69.74 C 107.51 70.80 106.85 71.07 105.18 71.07 C 105.07 69.73 104.98 68.39 104.90 67.04 Z" fill="#680d10"/>
<path d="M 67.39 71.41 C 68.65 71.02 69.93 70.72 71.24 70.49 C 68.97 73.11 66.16 75.14 64.11 78.05 C 56.23 87.64 52.53 100.69 53.82 113.01 C 55.57 132.87 71.07 150.22 90.50 154.52 C 93.41 157.25 96.88 159.87 99.23 163.08 C 97.57 162.86 95.91 162.61 94.26 162.32 L 94.17 164.01 C 92.71 163.83 91.32 163.46 89.86 163.13 C 91.27 163.29 92.68 163.47 94.09 163.65 L 93.69 162.23 C 75.74 160.21 59.14 147.77 51.54 131.46 C 43.42 114.70 44.62 93.57 55.17 78.15 C 58.91 75.47 63.12 73.15 67.39 71.41 Z" fill="#bcbcbc"/>
<path d="M 73.09 70.89 C 74.20 70.68 75.41 70.78 76.73 71.20 C 69.59 76.19 63.61 83.33 60.47 91.48 C 55.92 102.36 56.07 115.21 61.01 125.94 C 65.66 136.20 74.39 144.87 84.94 148.96 C 86.68 149.74 88.11 151.51 89.14 153.05 C 81.33 150.43 74.13 146.63 68.35 140.66 C 56.25 128.69 51.73 110.20 56.96 94.01 C 59.72 84.71 65.60 76.93 73.09 70.89 Z" fill="#f4f4f4"/>
<path d="M 125.80 71.24 C 126.79 70.97 127.78 70.70 128.78 70.43 C 141.62 79.56 148.61 95.41 147.71 111.02 C 147.02 120.40 143.70 129.43 137.78 136.78 C 131.65 144.66 123.11 150.01 113.63 152.94 C 114.75 151.52 116.11 149.56 117.89 148.88 C 131.06 143.70 141.29 131.60 144.33 117.79 C 148.40 100.25 140.82 81.17 125.80 71.24 Z" fill="#f0f0f0"/>
<path d="M 131.77 70.96 C 137.00 71.94 142.41 75.26 146.96 78.04 C 150.00 82.65 152.30 87.88 153.78 93.20 C 159.05 111.70 153.84 132.59 140.22 146.22 C 130.54 156.22 117.34 161.95 103.51 162.96 C 106.37 160.11 109.33 156.97 112.52 154.50 C 126.27 151.12 137.87 141.87 144.20 129.20 C 150.20 117.30 150.49 102.65 145.69 90.30 C 142.77 82.67 137.86 76.34 131.77 70.96 Z" fill="#bcbcbc"/>
<path d="M 77.93 71.78 C 79.15 71.86 80.35 72.04 81.52 72.31 C 83.02 72.88 85.20 72.64 86.41 73.58 C 87.94 77.51 89.99 81.43 91.16 85.47 C 89.60 85.17 88.03 84.89 86.47 84.62 C 83.64 80.34 80.90 75.97 77.93 71.78 Z" fill="#fcfcfc"/>
<path d="M 124.77 71.81 C 121.66 76.03 119.10 80.72 115.89 84.84 C 114.91 85.01 113.93 85.20 112.96 85.39 C 114.11 81.32 116.65 77.11 118.27 73.09 C 120.06 72.15 122.77 71.76 124.77 71.81 Z" fill="#fcfcfc"/>
<path d="M 76.99 72.78 C 79.73 76.47 82.10 80.48 84.80 84.22 C 81.94 83.64 78.87 83.00 76.15 81.91 C 74.56 80.43 73.12 78.78 71.57 77.25 C 72.92 75.59 75.14 73.85 76.99 72.78 Z" fill="#fcfcfc"/>
<path d="M 125.38 73.03 C 125.72 72.24 130.90 76.46 130.13 76.86 C 128.31 78.84 126.48 80.85 124.54 82.69 C 122.34 83.29 120.18 83.94 117.94 84.35 C 120.50 80.63 122.97 76.85 125.38 73.03 Z" fill="#fcfcfb"/>
<path d="M 87.93 73.57 C 89.85 73.99 91.80 74.22 93.75 74.44 C 95.14 78.03 95.44 82.22 96.31 86.01 C 95.27 85.99 94.24 85.96 93.20 85.94 C 91.15 82.05 89.51 77.66 87.93 73.57 Z" fill="#fdfdfd"/>
<path d="M 116.88 73.00 C 114.77 77.26 113.10 81.89 110.66 85.95 C 109.19 86.08 107.73 86.16 106.26 86.18 C 107.19 82.39 107.65 78.40 108.69 74.65 C 111.29 73.86 114.20 73.68 116.88 73.00 Z" fill="#fcfcfc"/>
<path d="M 95.50 74.87 C 97.20 75.03 98.90 75.15 100.60 75.25 C 100.65 78.85 100.49 82.43 100.66 86.02 C 99.51 86.50 98.51 86.48 97.67 85.95 C 96.92 82.26 96.27 78.55 95.50 74.87 Z" fill="#ffffff"/>
<path d="M 102.00 75.27 C 103.67 75.06 105.34 74.85 107.01 74.65 C 106.86 78.47 105.49 82.43 104.92 86.27 C 103.95 86.29 102.97 86.30 102.00 86.30 C 101.88 82.64 101.92 78.93 102.00 75.27 Z" fill="#ffffff"/>
<path d="M 70.43 78.01 C 71.74 79.18 73.05 80.29 73.93 81.85 C 70.89 80.41 71.48 80.40 69.04 81.86 C 70.70 82.07 72.36 82.42 74.00 82.92 C 83.50 85.76 93.04 87.80 103.01 87.62 C 113.75 87.13 124.43 84.68 134.54 81.08 C 136.86 88.03 136.53 94.83 136.31 102.03 C 133.96 123.28 123.29 142.30 107.89 156.89 C 105.76 158.80 103.76 161.37 101.23 162.68 C 87.57 151.20 76.46 137.29 70.66 120.22 C 66.60 108.27 64.69 94.29 67.89 81.94 C 69.57 80.98 69.03 79.27 70.43 78.01 Z" fill="#fdfdfd"/>
<path d="M 131.21 78.19 C 132.22 78.04 133.41 79.43 132.48 80.24 C 131.03 80.57 129.64 81.02 128.31 81.59 C 128.33 80.37 130.27 78.96 131.21 78.19 Z" fill="#fbfbfb"/>
<path d="M 66.00 84.51 C 65.96 87.03 65.25 89.50 65.15 92.03 C 64.04 91.85 62.96 91.40 61.91 90.67 C 63.13 88.69 63.98 85.75 66.00 84.51 Z" fill="#f9fafa"/>
<path d="M 70.29 85.17 C 77.09 86.88 84.00 89.21 91.01 90.16 C 99.21 91.82 107.16 91.09 115.31 89.58 L 114.56 90.66 C 110.22 91.69 105.65 91.99 101.20 92.26 L 101.26 93.69 L 100.44 92.25 C 97.18 92.35 94.09 91.65 90.94 90.97 C 85.28 90.45 79.45 88.55 73.75 87.29 C 72.74 86.86 71.71 86.62 70.66 86.58 C 70.55 92.09 69.81 97.48 70.43 103.01 C 70.42 106.13 71.51 108.95 71.62 112.04 C 73.57 117.80 75.39 123.56 77.99 129.07 L 79.00 129.84 C 80.40 128.70 81.56 127.52 82.66 126.09 C 82.68 124.11 82.65 122.72 81.62 120.99 C 81.55 115.68 83.07 109.69 86.79 105.72 C 89.46 102.29 93.04 101.87 96.64 99.81 C 98.27 99.40 100.11 99.63 101.78 99.40 C 101.09 101.20 97.56 99.78 96.02 100.86 C 93.31 101.99 91.81 104.16 90.51 106.68 C 89.88 107.37 89.57 108.10 89.59 108.86 C 89.06 112.36 89.18 115.66 89.69 119.16 C 93.09 116.05 96.42 112.61 99.58 109.25 C 99.22 106.02 99.90 103.26 102.72 101.40 C 102.63 100.74 102.52 100.08 102.38 99.44 C 104.38 99.58 106.19 99.91 108.10 100.53 C 111.26 98.25 113.87 94.91 116.77 92.25 C 116.74 93.21 116.71 94.17 116.69 95.12 C 115.03 95.65 113.98 97.41 112.52 98.37 C 109.28 100.71 106.76 104.09 103.84 106.82 C 102.15 108.37 100.55 109.92 99.15 111.74 L 98.05 112.97 C 93.93 116.59 89.77 120.48 86.30 124.73 C 85.52 125.57 84.69 126.36 83.83 127.10 C 82.34 128.29 80.89 129.45 79.76 131.01 C 80.84 134.57 83.64 137.94 85.78 140.97 C 88.30 141.13 90.49 137.18 92.25 135.54 C 94.25 133.57 95.54 132.37 93.64 129.61 L 93.19 128.82 C 94.10 129.92 94.98 131.05 95.86 132.18 C 97.41 130.74 98.78 129.26 99.90 127.46 L 101.27 126.22 C 102.78 125.00 104.70 123.71 105.52 121.90 C 103.41 119.27 99.20 117.09 98.27 113.81 C 100.59 116.60 103.37 119.00 105.87 121.64 C 107.46 120.05 109.01 118.41 110.63 116.86 C 112.32 115.95 113.42 114.80 114.54 113.25 C 115.11 112.57 115.68 111.89 116.24 111.21 C 118.32 110.17 119.50 108.48 120.86 106.70 C 121.91 105.38 123.10 104.20 124.18 102.92 C 125.50 101.32 123.98 100.06 123.18 98.70 C 124.80 99.32 124.65 100.62 125.27 102.01 C 126.94 101.35 129.04 99.46 129.47 97.68 C 130.76 97.21 131.48 96.49 131.62 95.53 C 132.17 92.97 132.40 89.22 130.98 86.96 C 128.05 87.71 124.99 88.16 122.16 89.22 C 120.27 89.86 119.20 91.82 117.19 91.85 C 117.93 91.16 118.57 90.40 119.12 89.58 C 117.65 89.96 116.17 90.30 114.68 90.59 L 115.51 89.41 C 121.02 88.45 126.69 86.97 131.93 85.03 L 132.35 85.40 C 134.60 95.39 133.56 106.19 130.68 115.95 C 125.82 133.28 115.00 147.80 101.13 159.03 C 91.01 150.05 82.13 140.20 76.39 127.81 C 70.32 114.91 67.28 99.22 70.29 85.17 Z" fill="#12313c"/>
<path d="M 136.73 84.99 L 137.70 85.00 C 138.72 86.86 139.68 88.75 140.77 90.57 C 139.09 91.07 139.53 91.67 139.24 93.12 L 141.08 92.03 C 142.00 93.90 142.46 95.99 143.15 97.98 C 141.77 99.09 139.36 99.02 137.68 99.54 C 137.22 98.07 137.51 96.36 137.50 94.84 C 137.79 91.61 137.15 88.21 136.73 84.99 Z" fill="#fcfcfc"/>
<path d="M 70.66 86.58 C 71.71 86.62 72.74 86.86 73.75 87.29 C 79.45 88.55 85.28 90.45 90.94 90.97 C 94.09 91.65 97.18 92.35 100.44 92.25 L 101.26 93.69 C 101.57 95.49 100.71 97.90 101.78 99.40 C 100.11 99.63 98.27 99.40 96.64 99.81 C 93.04 101.87 89.46 102.29 86.79 105.72 C 83.07 109.69 81.55 115.68 81.62 120.99 C 82.65 122.72 82.68 124.11 82.66 126.09 C 81.56 127.52 80.40 128.70 79.00 129.84 L 77.99 129.07 C 75.39 123.56 73.57 117.80 71.62 112.04 C 71.51 108.95 70.42 106.13 70.43 103.01 C 69.81 97.48 70.55 92.09 70.66 86.58 Z" fill="#cf0212"/>
<path d="M 130.98 86.96 C 132.40 89.22 132.17 92.97 131.62 95.53 C 130.36 94.87 129.32 94.79 128.49 95.27 C 128.26 96.05 128.59 96.86 129.47 97.68 C 129.04 99.46 126.94 101.35 125.27 102.01 C 124.65 100.62 124.80 99.32 123.18 98.70 C 122.53 98.52 121.88 98.34 121.22 98.17 C 121.76 96.29 120.08 94.34 118.11 94.91 L 116.69 95.12 C 116.71 94.17 116.74 93.21 116.77 92.25 L 117.19 91.85 C 119.20 91.82 120.27 89.86 122.16 89.22 C 124.99 88.16 128.05 87.71 130.98 86.96 Z" fill="#0a6eaf"/>
<path d="M 61.45 92.02 C 62.50 92.59 63.59 93.07 64.72 93.47 L 65.21 94.17 C 65.22 96.12 65.20 98.08 65.21 100.03 C 63.26 99.76 61.36 99.29 59.43 98.92 C 59.62 97.41 60.04 95.97 60.54 94.54 C 60.84 93.70 61.15 92.86 61.45 92.02 Z" fill="#fefefe"/>
<path d="M 116.69 95.12 L 118.11 94.91 C 118.98 95.92 119.79 96.96 120.59 98.02 L 121.22 98.17 C 121.88 98.34 122.53 98.52 123.18 98.70 C 123.98 100.06 125.50 101.32 124.18 102.92 C 123.10 104.20 121.91 105.38 120.86 106.70 C 117.87 104.20 115.04 101.33 112.52 98.37 C 113.98 97.41 115.03 95.65 116.69 95.12 Z" fill="#d1da5d"/>
<path d="M 118.11 94.91 C 120.08 94.34 121.76 96.29 121.22 98.17 L 120.59 98.02 C 119.79 96.96 118.98 95.92 118.11 94.91 Z" fill="#468069"/>
<path d="M 128.49 95.27 C 129.32 94.79 130.36 94.87 131.62 95.53 C 131.48 96.49 130.76 97.21 129.47 97.68 C 128.59 96.86 128.26 96.05 128.49 95.27 Z" fill="#71ad90"/>
<path d="M 117.08 97.10 C 118.45 96.41 118.92 99.11 119.14 99.97 C 120.04 100.00 120.95 100.04 121.86 100.07 C 123.35 101.54 122.33 102.91 121.01 103.99 C 119.24 103.35 118.83 100.91 117.01 100.07 C 115.09 99.24 115.27 97.67 117.08 97.10 Z" fill="#67924e"/>
<path d="M 112.52 98.37 C 115.04 101.33 117.87 104.20 120.86 106.70 C 119.50 108.48 118.32 110.17 116.24 111.21 C 115.08 110.30 113.91 109.42 112.93 111.10 C 113.15 111.92 113.68 112.63 114.54 113.25 C 113.42 114.80 112.32 115.95 110.63 116.86 C 109.85 116.58 109.06 116.33 108.26 116.10 C 107.21 116.08 106.16 116.06 105.11 116.04 C 103.45 114.66 101.92 112.44 99.78 111.96 L 99.15 111.74 C 100.55 109.92 102.15 108.37 103.84 106.82 C 106.76 104.09 109.28 100.71 112.52 98.37 Z" fill="#0b6daf"/>
<path d="M 132.55 96.96 C 132.09 119.74 120.69 140.26 103.93 155.22 C 103.27 156.15 102.60 156.47 101.92 156.20 L 101.36 155.46 C 101.15 149.79 101.36 144.10 101.24 138.43 C 103.99 138.12 107.06 137.82 109.57 136.57 C 112.02 135.14 114.01 132.98 116.26 131.24 C 120.21 127.08 120.40 122.42 121.13 117.05 C 120.49 114.80 120.07 112.58 119.03 110.46 C 122.73 106.69 126.44 102.95 130.18 99.23 C 130.89 98.38 131.68 97.62 132.55 96.96 Z" fill="#fdfdfc"/>
<path d="M 101.78 99.40 L 102.38 99.44 C 102.52 100.08 102.63 100.74 102.72 101.40 C 99.90 103.26 99.22 106.02 99.58 109.25 C 96.42 112.61 93.09 116.05 89.69 119.16 C 89.18 115.66 89.06 112.36 89.59 108.86 L 90.54 108.58 L 90.99 107.58 L 90.51 106.68 C 91.81 104.16 93.31 101.99 96.02 100.86 C 97.56 99.78 101.09 101.20 101.78 99.40 Z" fill="#f8de0a"/>
<path d="M 140.22 100.31 C 141.29 100.04 142.37 99.89 143.46 99.84 C 143.72 102.23 144.32 104.71 144.13 107.11 C 141.76 107.15 139.38 107.12 137.01 107.24 C 136.49 105.29 137.38 103.03 137.46 101.02 C 138.37 100.74 139.29 100.51 140.22 100.31 Z" fill="#fefefe"/>
<path d="M 59.00 100.37 C 60.99 100.57 62.95 101.06 64.94 101.32 C 66.00 102.82 65.73 105.38 66.02 107.17 C 63.50 107.11 60.91 107.37 58.42 107.00 C 58.54 104.79 58.76 102.58 59.00 100.37 Z" fill="#ffffff"/>
<path d="M 107.38 101.06 C 105.72 103.64 102.69 106.36 100.31 108.25 C 100.08 103.85 102.90 100.71 107.38 101.06 Z" fill="#f3da3a"/>
<path d="M 91.31 103.05 C 91.87 103.73 90.36 105.84 89.61 106.01 L 88.28 105.24 C 88.97 104.33 90.08 103.02 91.31 103.05 Z" fill="#d6ba46"/>
<path d="M 88.28 105.24 L 89.61 106.01 C 88.27 110.28 87.78 115.49 89.22 119.82 C 88.26 120.66 87.37 121.97 86.05 122.14 C 85.05 121.25 84.13 120.31 83.46 119.15 C 84.29 116.82 84.56 114.37 83.66 112.01 C 84.75 109.46 86.22 107.12 88.28 105.24 Z" fill="#f7de0b"/>
<path d="M 90.51 106.68 L 90.99 107.58 L 90.54 108.58 L 89.59 108.86 C 89.57 108.10 89.88 107.37 90.51 106.68 Z" fill="#ddc457"/>
<path d="M 58.52 108.61 C 61.05 108.59 63.62 108.46 66.15 108.67 C 66.97 110.39 66.96 112.44 67.48 114.27 C 65.24 115.29 61.74 115.66 59.20 116.20 C 58.84 113.71 58.39 111.13 58.52 108.61 Z" fill="#ffffff"/>
<path d="M 136.17 109.03 C 138.30 108.01 141.58 108.82 143.98 108.57 C 144.47 110.84 143.73 113.40 143.46 115.67 C 140.72 115.09 137.96 114.63 135.25 113.95 C 135.57 112.31 135.89 110.67 136.17 109.03 Z" fill="#fdfdfd"/>
<path d="M 116.24 111.21 C 115.68 111.89 115.11 112.57 114.54 113.25 C 113.68 112.63 113.15 111.92 112.93 111.10 C 113.91 109.42 115.08 110.30 116.24 111.21 Z" fill="#7eb085"/>
<path d="M 83.66 112.01 C 84.56 114.37 84.29 116.82 83.46 119.15 C 82.33 117.09 82.67 114.06 83.66 112.01 Z" fill="#c6ac45"/>
<path d="M 99.15 111.74 L 99.78 111.96 C 101.70 114.24 103.74 116.33 105.95 118.33 C 106.78 117.65 107.55 116.91 108.26 116.10 C 109.06 116.33 109.85 116.58 110.63 116.86 C 109.01 118.41 107.46 120.05 105.87 121.64 C 103.37 119.00 100.59 116.60 98.27 113.81 L 98.05 112.97 L 99.15 111.74 Z" fill="#bfd267"/>
<path d="M 99.78 111.96 C 101.92 112.44 103.45 114.66 105.11 116.04 C 106.16 116.06 107.21 116.08 108.26 116.10 C 107.55 116.91 106.78 117.65 105.95 118.33 C 103.74 116.33 101.70 114.24 99.78 111.96 Z" fill="#267171"/>
<path d="M 118.10 111.36 L 119.08 111.82 C 119.36 114.47 120.96 116.26 120.34 118.98 L 119.39 118.76 C 118.47 116.81 117.03 115.18 116.06 113.30 C 116.73 112.65 117.41 112.00 118.10 111.36 Z" fill="#dbc83e"/>
<path d="M 98.05 112.97 L 98.27 113.81 C 99.20 117.09 103.41 119.27 105.52 121.90 C 104.70 123.71 102.78 125.00 101.27 126.22 C 100.59 125.15 99.81 124.81 98.95 125.18 C 98.43 126.15 98.74 126.91 99.90 127.46 C 98.78 129.26 97.41 130.74 95.86 132.18 C 94.98 131.05 94.10 129.92 93.19 128.82 C 91.99 128.62 90.83 128.63 89.70 128.85 L 88.85 129.09 L 87.62 128.78 C 87.44 128.25 87.57 127.63 88.03 126.92 C 88.99 125.34 88.41 124.61 86.30 124.73 C 89.77 120.48 93.93 116.59 98.05 112.97 Z" fill="#0b6dad"/>
<path d="M 115.17 114.31 C 118.11 115.71 119.28 121.07 119.35 124.10 C 118.25 126.68 116.93 130.03 114.51 131.58 C 114.60 129.55 114.80 127.40 114.57 125.36 C 114.05 122.62 112.50 120.60 111.21 118.24 C 112.58 116.98 113.88 115.66 115.17 114.31 Z" fill="#f7e009"/>
<path d="M 67.85 115.87 C 68.18 117.23 69.68 119.43 68.90 120.71 C 66.46 121.76 63.97 122.68 61.55 123.79 C 60.62 122.00 60.13 119.94 59.54 118.01 C 61.71 116.67 65.27 116.47 67.85 115.87 Z" fill="#fbfbfb"/>
<path d="M 135.11 115.25 C 137.78 116.06 140.57 116.22 143.24 117.06 C 142.62 119.31 142.08 121.68 141.11 123.80 C 138.54 122.63 135.91 121.61 133.34 120.47 C 133.85 118.70 134.43 116.96 135.11 115.25 Z" fill="#fcfcfc"/>
<path d="M 110.21 119.22 C 113.34 122.00 114.45 127.02 113.61 131.07 C 111.95 135.17 108.34 136.37 104.44 137.52 C 107.52 133.76 106.92 128.40 105.37 124.13 C 106.37 123.22 107.35 122.29 108.28 121.32 C 108.93 120.62 109.58 119.92 110.21 119.22 Z" fill="#f7df0b"/>
<path d="M 82.53 120.46 L 83.27 120.58 C 84.13 121.32 84.91 122.12 85.61 122.99 C 84.97 124.32 84.26 124.86 83.45 124.61 C 83.08 123.24 82.77 121.85 82.53 120.46 Z" fill="#d2c04b"/>
<path d="M 69.76 121.81 C 70.44 123.47 71.14 125.12 71.85 126.77 C 69.70 128.26 67.51 129.71 65.31 131.12 C 63.96 129.23 62.92 127.17 61.92 125.09 C 64.47 123.91 67.12 122.80 69.76 121.81 Z" fill="#fbfbfb"/>
<path d="M 132.96 121.92 C 135.56 122.89 138.09 124.06 140.68 125.06 C 139.78 127.11 138.64 129.03 137.62 131.02 C 135.33 130.47 132.97 128.11 130.83 126.91 C 131.55 125.25 132.15 123.54 132.96 121.92 Z" fill="#fcfcfc"/>
<path d="M 86.30 124.73 C 88.41 124.61 88.99 125.34 88.03 126.92 C 86.02 126.52 84.99 128.13 86.24 129.74 C 87.08 130.24 87.95 130.02 88.85 129.09 L 89.70 128.85 L 90.33 130.48 C 88.40 131.22 87.06 131.88 84.96 131.26 C 83.82 129.75 83.76 128.95 83.83 127.10 C 84.69 126.36 85.52 125.57 86.30 124.73 Z" fill="#cbdb72"/>
<path d="M 98.95 125.18 C 99.81 124.81 100.59 125.15 101.27 126.22 L 99.90 127.46 C 98.74 126.91 98.43 126.15 98.95 125.18 Z" fill="#96c395"/>
<path d="M 104.14 125.33 L 105.27 125.58 C 105.68 130.61 101.48 131.82 97.45 132.56 C 99.12 129.84 102.02 127.77 104.14 125.33 Z" fill="#e7d63d"/>
<path d="M 83.83 127.10 C 83.76 128.95 83.82 129.75 84.96 131.26 C 86.61 132.86 89.37 131.63 91.45 131.65 C 90.78 132.42 90.10 133.19 89.44 133.97 L 88.54 135.08 C 89.98 136.17 90.63 135.86 92.25 135.54 C 90.49 137.18 88.30 141.13 85.78 140.97 C 83.64 137.94 80.84 134.57 79.76 131.01 C 80.89 129.45 82.34 128.29 83.83 127.10 Z" fill="#0a6dac"/>
<path d="M 88.03 126.92 C 87.57 127.63 87.44 128.25 87.62 128.78 L 88.85 129.09 C 87.95 130.02 87.08 130.24 86.24 129.74 C 84.99 128.13 86.02 126.52 88.03 126.92 Z" fill="#628942"/>
<path d="M 72.26 128.00 C 73.18 129.98 74.26 131.89 75.16 133.88 C 74.55 135.61 72.42 136.93 71.29 138.43 C 69.22 136.83 67.67 134.34 65.96 132.34 C 68.06 130.90 70.20 129.50 72.26 128.00 Z" fill="#fbfbfb"/>
<path d="M 89.70 128.85 C 90.83 128.63 91.99 128.62 93.19 128.82 L 93.64 129.61 C 93.29 130.78 92.90 131.93 92.47 133.06 C 92.45 131.17 91.74 130.31 90.33 130.48 L 89.70 128.85 Z" fill="#c4cb47"/>
<path d="M 130.28 128.16 C 132.38 129.60 134.59 130.92 136.59 132.51 C 135.13 134.36 133.65 136.18 132.09 137.95 C 130.84 136.33 128.67 134.94 127.83 133.10 C 128.20 132.39 128.56 131.67 128.92 130.95 C 129.38 130.03 129.83 129.09 130.28 128.16 Z" fill="#fcfcfc"/>
<path d="M 93.64 129.61 C 95.54 132.37 94.25 133.57 92.25 135.54 C 90.63 135.86 89.98 136.17 88.54 135.08 L 89.44 133.97 C 90.74 134.07 91.75 133.76 92.47 133.06 C 92.90 131.93 93.29 130.78 93.64 129.61 Z" fill="#d1e07a"/>
<path d="M 84.96 131.26 C 87.06 131.88 88.40 131.22 90.33 130.48 C 91.74 130.31 92.45 131.17 92.47 133.06 C 91.75 133.76 90.74 134.07 89.44 133.97 C 90.10 133.19 90.78 132.42 91.45 131.65 C 89.37 131.63 86.61 132.86 84.96 131.26 Z" fill="#53864e"/>
<path d="M 105.74 129.33 C 105.59 131.99 105.93 134.14 104.26 136.36 C 100.69 138.11 97.97 137.63 94.42 136.20 L 94.45 135.28 C 96.60 131.84 99.91 133.69 102.77 131.70 C 103.79 130.94 104.78 130.16 105.74 129.33 Z" fill="#fedb09"/>
<path d="M 94.45 135.28 L 94.42 136.20 L 93.93 136.06 L 94.45 135.28 Z" fill="#b8be61"/>
<path d="M 126.81 135.00 C 128.31 134.98 129.52 137.73 131.02 138.41 L 130.96 138.95 C 129.36 140.21 127.35 142.76 125.35 143.02 C 124.78 142.09 124.20 141.17 123.62 140.25 C 124.71 138.51 125.72 136.73 126.81 135.00 Z" fill="#fbfbfb"/>
<path d="M 76.04 135.38 C 77.04 136.99 77.98 138.64 79.04 140.21 C 78.41 141.21 77.76 142.20 76.99 143.11 C 75.20 142.35 73.69 140.63 72.11 139.47 C 73.41 138.10 74.69 136.70 76.04 135.38 Z" fill="#fcfcfc"/>
<path d="M 92.94 137.02 C 96.00 136.95 98.25 138.77 101.24 138.43 C 101.36 144.10 101.15 149.79 101.36 155.46 L 101.92 156.20 C 101.68 156.49 101.43 156.77 101.19 157.06 C 99.16 156.38 98.01 154.90 96.51 153.49 C 93.18 150.01 89.77 146.89 87.16 142.79 C 88.98 140.81 90.85 138.69 92.94 137.02 Z" fill="#cd0311"/>
<path d="M 79.74 141.42 C 80.74 143.00 82.99 144.68 83.08 146.58 C 81.20 146.03 79.62 144.98 77.98 143.95 C 78.56 143.10 79.15 142.26 79.74 141.42 Z" fill="#fbfbfb"/>
<path d="M 122.87 141.65 C 123.49 142.33 124.04 143.06 124.50 143.83 C 122.99 145.52 120.40 146.32 118.46 147.38 C 119.93 145.71 121.10 142.98 122.87 141.65 Z" fill="#e8e8e8"/>
<path d="M 77.26 180.75 C 80.92 180.95 84.21 180.29 87.47 181.66 C 90.72 183.64 90.78 189.44 87.52 191.44 C 85.62 192.88 83.64 192.34 81.41 192.46 C 81.47 194.91 81.41 197.36 81.55 199.81 C 79.98 199.76 78.42 199.73 76.85 199.72 C 76.88 194.29 77.42 188.36 76.97 182.92 C 76.75 182.17 76.85 181.45 77.26 180.75 Z" fill="#020202"/>
<path d="M 129.22 180.73 C 133.41 180.84 137.60 180.81 141.79 180.74 C 141.83 182.03 141.86 183.32 141.86 184.62 C 140.46 184.61 139.06 184.64 137.65 184.69 C 137.78 189.73 137.55 194.78 137.81 199.82 C 136.29 199.74 134.78 199.74 133.26 199.80 C 133.42 194.74 133.28 189.68 133.37 184.61 C 131.99 184.63 130.60 184.65 129.22 184.68 C 129.21 183.36 129.17 182.05 129.22 180.73 Z" fill="#020202"/>
<path d="M 157.56 182.39 C 158.64 183.84 156.15 184.25 156.03 185.91 C 154.02 184.67 152.97 184.26 150.61 184.74 C 150.43 185.51 150.39 186.31 150.49 187.13 C 153.43 189.03 159.18 189.40 158.82 193.99 C 159.34 197.74 155.44 200.33 152.01 199.76 C 149.20 200.21 147.58 198.62 145.61 196.96 C 146.62 196.14 147.60 195.29 148.55 194.40 C 150.17 196.59 152.96 197.38 154.79 194.97 C 154.52 194.14 154.13 193.35 153.61 192.60 C 151.31 191.41 147.97 190.78 146.66 188.45 C 145.56 185.93 146.84 184.18 147.95 182.02 C 150.98 179.95 154.94 179.94 157.56 182.39 Z" fill="#030303"/>
<path d="M 43.20 180.74 C 46.98 180.79 50.79 180.87 54.58 180.68 C 54.85 181.97 54.89 183.30 54.71 184.66 C 52.31 184.64 49.92 184.54 47.52 184.72 C 47.53 185.94 47.52 187.16 47.50 188.38 C 49.56 188.30 51.61 188.28 53.67 188.25 C 53.68 189.46 53.67 190.67 53.63 191.88 C 51.71 191.86 49.79 191.81 47.87 191.81 C 47.51 193.25 47.41 194.74 47.55 196.30 C 49.98 196.31 52.39 196.21 54.81 196.33 C 54.87 197.51 54.82 198.69 54.67 199.89 C 50.85 199.62 46.98 199.74 43.15 199.81 C 43.31 193.46 43.23 187.09 43.20 180.74 Z" fill="#020202"/>
<path d="M 63.27 181.21 C 65.88 179.44 69.82 181.07 71.91 183.03 C 70.94 183.91 70.06 184.86 69.28 185.87 C 67.20 184.47 65.09 183.61 63.41 186.04 C 65.89 189.31 70.36 188.30 72.33 192.72 C 72.82 196.77 70.34 200.35 66.00 199.75 C 62.95 200.14 61.11 199.08 59.03 196.96 C 60.01 195.97 61.23 195.37 62.07 194.23 C 63.07 196.17 65.04 196.63 67.09 196.29 C 68.08 195.07 68.14 194.03 67.29 192.71 C 65.19 191.52 61.66 190.98 60.37 188.65 C 58.43 186.22 60.63 182.10 63.27 181.21 Z" fill="#030303"/>
<path d="M 97.28 181.36 C 100.48 179.34 106.54 180.96 106.81 185.16 C 107.61 188.82 107.36 193.01 106.55 196.68 C 104.87 200.37 100.26 200.36 97.09 199.17 C 93.51 197.46 94.44 193.26 94.24 190.00 C 94.30 187.15 94.16 182.73 97.28 181.36 Z" fill="#020202"/>
<path d="M 112.21 180.70 C 115.71 181.26 121.88 179.57 124.13 182.98 C 126.22 186.35 125.19 189.23 122.44 191.76 C 123.26 194.57 124.66 197.03 124.90 200.00 L 120.84 200.00 C 120.66 197.45 119.02 195.51 119.21 192.89 C 118.39 192.54 117.53 192.31 116.62 192.18 C 116.60 194.73 116.51 197.29 116.72 199.82 C 115.19 199.75 113.67 199.74 112.15 199.80 C 112.31 193.44 112.21 187.07 112.21 180.70 Z" fill="#020203"/>
<path d="M 81.32 184.12 C 82.86 184.09 84.05 184.25 85.50 184.78 C 85.65 186.02 85.67 187.26 85.45 188.49 C 84.58 189.79 82.77 189.00 81.34 189.30 C 81.36 187.57 81.36 185.85 81.32 184.12 Z" fill="#ffffff"/>
<path d="M 120.60 185.38 C 120.65 186.13 120.68 186.89 120.70 187.65 C 119.51 189.16 118.40 189.11 116.67 188.62 C 116.60 187.29 116.57 185.96 116.66 184.62 C 118.33 183.80 119.23 184.40 120.60 185.38 Z" fill="#ffffff"/>
<path d="M 101.07 184.48 C 103.56 185.16 102.22 189.05 102.58 191.01 C 102.43 192.55 103.03 194.75 101.89 195.94 C 100.56 197.13 98.49 195.58 98.72 194.04 C 98.69 191.34 98.68 188.62 98.77 185.92 C 99.41 184.88 100.18 184.39 101.07 184.48 Z" fill="#ffffff"/>
</svg>
