<svg width="500" height="500" viewBox="0 0 500 500" xmlns="http://www.w3.org/2000/svg"><title>nec</title><g fill="none" fill-rule="evenodd"><path d="M30.268 10.966l1.708 8.375c1.792 8.632 3.926 22.05 3.926 29.228 0 1.282-.085 2.393-.256 3.248 0 0-1.622 8.888-2.56 14.186-2.476-3.162-8.366-10.597-8.366-10.597l-3.927 17.947c-.086.513-2.476 11.623-3.16 24.015-2.56-2.05-8.535-6.923-8.535-6.923l-2.135 15.212c-.085.684-2.39 17.605-1.024 28.715 1.023 7.778 2.304 14.017 10.84 29.656 2.476 4.615 5.464 8.803 8.622 13.332 2.732 3.846 5.55 7.863 8.196 12.392 6.23 10.426 9.987 19.827 11.78 24.27l.17.514c4.61 11.537 3.415 61.02.77 90.845-1.025 11.792-3.416 26.406-5.72 40.507-2.647 16.323-4.952 30.34-4.952 38.458 0 16.152 10.33 35.466 23.988 45.038 9.134 6.41 32.012 11.366 65.903 18.117 15.963 3.248 31.073 6.24 40.207 9.06 29.878 9.058 66.5 23.5 79.988 31.45l4.44 2.648.938-.513 3.5-2.136c13.488-7.95 50.11-22.392 79.988-31.45 9.134-2.736 24.243-5.812 40.207-9.06 33.89-6.837 56.768-11.793 65.902-18.117 13.66-9.572 23.988-28.886 23.988-45.038 0-8.12-2.305-22.135-4.95-38.372-2.306-14.187-4.696-28.8-5.72-40.594-2.647-29.827-3.927-79.31.768-90.846l.17-.428c1.793-4.53 5.55-13.844 11.78-24.27 2.647-4.445 5.464-8.46 8.196-12.307 3.158-4.53 6.145-8.718 8.62-13.333 8.538-15.64 9.903-21.878 10.842-29.655 1.452-11.11-.94-27.946-1.024-28.715l-2.134-15.212s-5.976 4.786-8.537 6.923c-.683-12.478-3.073-23.502-3.158-24.015l-3.928-17.947s-5.89 7.52-8.366 10.597c-.854-4.7-2.56-14.186-2.56-14.186-.172-.855-.257-1.966-.257-3.248 0-7.265 2.133-20.597 3.926-29.228l2.22-10.427H404.34s-5.803 7.35-5.89 7.52c-1.79 1.88-35.767 35.382-148.11 35.98-112.51-.513-146.486-34.1-148.28-35.98-.084-.17-5.89-7.52-5.89-7.52H29.928l.34 1.88z" fill="#000"/><path d="M250.256 54.123c-.085 0-.085 0 0 0-113.707-.598-148.024-34.953-149.56-36.577-.342-.427-5.464-6.922-5.464-6.922l-63.256.085L33.683 19c2.05 9.57 4.866 27.09 3.756 33.158l-3.245 17.947c-1.878-2.308-8.536-10.683-8.536-10.683L22.5 73.78c-.17.77-2.902 13.673-3.33 27.09-1.28-1.025-8.792-7.093-8.792-7.093L8.67 105.913c-.085.683-2.39 17.348-1.024 28.202.94 7.606 2.22 13.674 10.67 29.057 2.477 4.53 5.38 8.717 8.538 13.16 2.73 3.932 5.548 7.948 8.28 12.478 6.317 10.597 10.16 19.998 11.95 24.527l.172.428c4.78 11.964 3.585 60.848.854 91.614-1.025 11.792-3.415 26.492-5.72 40.593-2.646 16.237-4.95 30.167-4.95 38.2 0 15.64 9.987 34.356 23.22 43.586 8.877 6.152 31.584 11.11 65.218 17.86 16.05 3.248 31.16 6.324 40.378 9.06 29.964 9.143 66.756 23.586 80.33 31.62l3.585 2.136 3.5-2.136c13.574-8.034 50.367-22.562 80.33-31.62 9.22-2.82 24.33-5.812 40.378-9.06 33.634-6.75 56.342-11.708 65.22-17.86 13.23-9.23 23.22-27.947 23.22-43.586 0-7.948-2.306-21.964-4.952-38.2-2.305-14.188-4.695-28.802-5.72-40.595-2.73-30.767-3.926-79.65.854-91.615l.17-.428c1.793-4.53 5.635-13.93 11.952-24.527 2.732-4.53 5.55-8.546 8.28-12.477 3.16-4.444 6.06-8.632 8.537-13.16 8.45-15.3 9.73-21.452 10.67-29.058 1.366-10.854-.94-27.52-1.025-28.202l-1.707-12.136s-7.598 6.068-8.793 7.094c-.426-13.417-3.158-26.32-3.33-27.09L474.77 59.42s-6.658 8.375-8.45 10.768l-3.245-17.947c-1.11-6.067 1.707-23.587 3.67-33.16l1.708-8.288h-63.255s-5.122 6.495-5.463 6.922c-1.537 1.453-35.854 35.808-149.476 36.406z" fill="#FFF"/><path d="M250.17 61.046c-120.365-.598-154.085-38.2-154.768-38.97-.17-.17-3.585-4.53-3.585-4.53H40.512s5.464 26.237 3.756 35.808c0 0 6.744-8.546 5.89-28.03h37.903l1.28 1.623c.343.427 33.977 41.192 160.83 41.876 126.854-.6 160.49-41.45 160.83-41.876l1.28-1.624h37.903c-.854 19.485 5.89 28.03 5.89 28.03-1.707-9.656 3.756-35.807 3.756-35.807h-51.306s-3.414 4.36-3.585 4.53c-.6.77-34.403 38.457-154.77 38.97z" fill="#000"/><path d="M250.17 477.84c-9.39-5.898-47.548-27.092-80.243-36.322-27.744-7.862-92.195-17.007-102.44-25.553-10.243-8.63-16.56-21.11-16.56-32.133 0-11.88 9.05-49.14 11.268-78.624 1.28-16.836 4.695-71.617-2.05-96.4-5.377-19.742-25.865-43.243-32.523-56.917-8.622-17.775-7.256-32.645-7.256-32.645l17.84 13.075C30.61 114.117 33.6 91.897 33.6 91.897c2.22 2.222 6.06 8.29 15.878 18.887-4.098-17.947-4.61-26.322-1.622-39.483 1.792 3.163 7.512 22.392 31.33 31.536 0 0-7.172 5.128-10.33 10.94-3.16 5.725-7.513 25.98-7.513 25.98l15.453-4.36s19.975-.17 27.744 4.53c7.768 4.786 8.536 16.067 8.11 19.656-.427 3.59-1.367 15.64-28.94 4.36 0 0 6.744 11.11 18.44 11.11 9.902 0 17.33-7.522 17.33-19.315 0-11.794-6.49-18.29-11.867-21.537-5.378-3.247-27.317-7.093-37.134-4.102 0 0 1.11-10.084 3.926-13.332 2.818-3.247 7.257-10.682 20.403-10.34 13.146.256 37.988 10.682 48.573 13.76-2.56-2.82-5.976-5.984-9.39-8.376 0 0 14.34-2.65 18.44-6.837-6.49 1.282-18.696 3.162-29.88-.428 0 0 4.098-5.213 5.806-7.777 1.707-2.563 7.683-10.255 16.134-10.255 8.195 0 18.695 3.675 23.22 6.666 4.524 2.99 11.78 8.545 19.975 11.622 8.195 3.162 20.573 4.786 25.268 3.675 0 0-6.657 7.947-16.133 11.793 0 0 7.342 7.777 8.622 12.734l-10.245.427s5.634 7.778 6.06 12.05c0 0-9.475 1.454-13.572 3.25 0 0 18.097 9.827 23.56 16.578-.682-5.47-4.78-10.853-8.194-14.357 0 0 4.694-.256 7.084-.17 0 0-3.414-8.803-5.122-11.623 0 0 5.378-1.025 9.647-.256 0 0-6.062-14.613-9.05-17.604 0 0 15.28-8.205 26.122-23.673 0 0-14.427 5.128-24.842 5.128-10.33 0-18.61-4.1-21.512-5.982-2.988-1.88-15.195-11.11-21.854-13.502-6.658-2.393-18.44-6.068-28.94-1.282s-13.145 16.92-21.51 20.425c0 0-24.5-.172-41.83-11.624C54 79.334 51.184 57.798 52.464 44.38c-4.098 4.103-13.574 29.23-12.89 43.842L29.328 75.318s-5.55 25.382-2.135 41.02l-11.61-9.4s-2.305 16.323-1.024 26.408c.855 6.922 1.964 12.22 9.818 26.493 4.354 7.947 10.67 15.467 16.646 25.38 6.83 11.452 10.927 21.708 12.635 25.98 6.06 15.042 3.584 69.48 1.364 94.862-2.22 25.382-10.67 64.096-10.67 78.197 0 14.1 9.56 30.423 20.23 37.858 13.49 9.4 78.71 18.46 103.636 25.98 30.39 9.23 67.61 23.844 81.865 32.305 14.256-8.46 51.476-23.075 81.866-32.304 24.928-7.607 90.148-16.58 103.635-25.982 10.67-7.435 20.232-23.758 20.232-37.86 0-14.1-8.366-52.814-10.67-78.196-2.22-25.382-4.696-79.82 1.365-94.86 1.708-4.274 5.72-14.53 12.634-25.98 5.976-9.915 12.293-17.435 16.647-25.383 7.853-14.36 8.963-19.572 9.817-26.494 1.28-10.085-1.025-26.408-1.025-26.408l-11.61 9.4c3.415-15.638-2.134-41.02-2.134-41.02L460.6 88.222c.682-14.613-8.793-39.74-12.89-43.84 1.28 13.416-1.537 35.038-18.867 46.49-17.328 11.45-41.828 11.622-41.828 11.622-8.366-3.59-11.097-15.64-21.512-20.425-10.5-4.787-22.28-1.112-28.94 1.28-6.658 2.394-18.865 11.624-21.853 13.504-2.987 1.88-11.183 5.982-21.512 5.982-10.33 0-24.84-5.127-24.84-5.127 10.755 15.467 26.035 23.67 26.035 23.67-2.988 2.992-9.05 17.606-9.05 17.606 4.27-.684 9.648.257 9.648.257-1.708 2.82-5.122 11.622-5.122 11.622 2.39-.17 7.085.17 7.085.17-3.413 3.42-7.51 8.804-8.194 14.36 5.464-6.753 23.56-16.58 23.56-16.58-4.096-1.88-13.572-3.248-13.572-3.248.427-4.273 6.06-12.05 6.06-12.05l-10.243-.428c1.28-4.957 8.623-12.734 8.623-12.734-9.476-3.846-16.134-11.794-16.134-11.794 4.694 1.11 16.987-.598 25.267-3.675 8.195-3.162 15.45-8.63 19.976-11.622 4.524-2.992 15.024-6.666 23.22-6.666 8.536 0 14.426 7.69 16.133 10.254 1.708 2.564 5.805 7.777 5.805 7.777-11.182 3.59-23.39 1.71-29.877.428 4.098 4.102 18.44 6.837 18.44 6.837-3.415 2.393-6.745 5.555-9.39 8.375 10.584-3.076 35.426-13.503 48.572-13.76 13.146-.255 17.585 7.094 20.403 10.342 2.817 3.247 3.926 13.332 3.926 13.332-9.817-2.99-31.756.854-37.134 4.102-5.378 3.247-11.866 9.828-11.866 21.536 0 11.794 7.342 19.314 17.33 19.314 11.695 0 18.44-11.11 18.44-11.11-27.574 11.28-28.514-.77-28.94-4.358-.427-3.59.426-14.87 8.11-19.656 7.768-4.786 27.743-4.53 27.743-4.53l15.452 4.36s-4.355-20.255-7.514-25.98c-3.158-5.727-10.33-10.94-10.33-10.94 23.818-9.145 29.538-28.373 31.33-31.535 2.988 13.16 2.56 21.536-1.622 39.483 9.732-10.512 13.66-16.665 15.878-18.887 0 0 2.988 22.22-4.524 40.508l17.842-13.074s1.365 14.87-7.342 32.646c-6.658 13.673-27.146 37.175-32.524 56.917-6.744 24.782-3.33 79.563-2.05 96.4 2.22 29.483 11.27 66.744 11.27 78.623 0 11.024-6.318 23.502-16.562 32.133-10.244 8.546-74.695 17.776-102.44 25.553-32.352 9.058-70.51 30.252-79.9 36.15z" fill="#000"/><path d="M180.256 105.742c-4.61-2.393-8.707-5.213-11.95-7.435l-2.733-1.88c-3.756-2.48-13.402-5.983-21.085-5.983-6.915 0-11.866 7.008-12.805 8.46-.598.856-1.366 1.967-2.22 3.078 6.488 1.025 14 .683 22.196-.94l12.89-2.65-9.306 9.315c-2.646 2.65-8.024 4.7-12.634 5.983 1.28 1.196 2.56 2.393 3.67 3.675l9.56 10.426-13.572-3.93c-3.073-.855-7.17-2.308-11.95-4.017-11.355-4.017-26.806-9.4-35.684-9.572-9.817-.17-13.573 4.36-16.305 7.693l-1.025 1.282c-.768.854-1.537 3.162-2.134 5.896 11.696-.94 28.94 2.223 34.318 5.556 5.207 3.163 13.83 10.512 13.83 24.955 0 13.675-8.708 23.246-21.257 23.246-13.743 0-21.51-12.477-21.853-12.99l-6.317-10.34 11.183 4.614c14.598 5.983 19.805 4.444 21.342 3.504 1.622-.94 1.878-2.65 2.134-4.614.34-2.992-.513-12.307-6.233-15.81-5.378-3.334-19.463-4.017-25.097-3.932-.94.256-21.342 5.982-21.342 5.982l1.366-6.495c.427-2.136 4.61-21.023 7.94-27.09 1.62-2.992 4.182-5.812 6.4-7.95-11.096-5.64-17.755-13.33-21.767-19.655 0 .855-.085 1.71-.085 2.48 0 6.323 1.11 13.16 3.414 23.16l3.415 14.612s-16.9-16.58-18.78-18.8c0 0 .342 15.724 3.927 25.124l5.464 13.16s-17.414-10.51-21.51-13.5c0 0 .938 8.288 4.78 17.774 2.048 4.872 10.926 18.375 11.694 19.57 8.537 12.564 18.098 26.75 21.768 39.997 3.244 11.793 4.183 30.082 4.183 47.858 0 20.767-1.365 41.02-2.048 49.91-1.196 16.15-4.525 34.867-7.17 49.908-2.22 12.478-4.1 23.33-4.1 28.373 0 1.88.172 3.76.6 5.64 19.377-12.05 58.304-30.252 124.718-38.37V105.74h.17z" fill="#ED1C24"/><path d="M57.5 33.613l-1.11 11.11c-.17 1.794-.256 3.675-.256 5.555 0 13.332 4.525 28.715 17.33 37.26 14.17 9.4 34.06 10.77 38.67 10.94 2.732-1.368 4.866-4.188 7.342-7.52 3.33-4.445 7.085-9.573 13.487-12.478 11.354-5.213 23.647-1.88 31.927 1.11 4.354 1.54 10.33 5.47 15.366 8.89V68.14C106.33 56.6 85.67 29.68 85.67 29.68H58.1l-.598 3.93z" fill="#ED1C24"/><path d="M304.207 142.32c3.16.597 7.17 1.537 9.817 2.648V108.39h-.085c-4.44 1.71-10.672 3.163-16.39 3.847 2.133 1.538 4.61 3.076 7.34 4.187l5.378 2.222-4.012 4.274c-1.536 1.623-3.5 4.016-5.122 6.324l11.354.512-4.354 5.983c-1.28 2.05-2.817 4.528-3.927 6.58zM202.707 112.322c-5.634-.683-11.866-2.136-16.305-3.845v36.49c2.56-1.11 6.574-2.05 9.732-2.648-1.024-2.137-2.56-4.616-4.012-6.58l-4.354-5.984 11.354-.512c-1.622-2.308-3.585-4.7-5.122-6.324l-4.012-4.274 5.463-2.222c2.733-1.025 5.123-2.563 7.257-4.102z" fill="#009B69"/><path d="M187.512 93.435c1.45.855 9.134 5.385 19.464 5.385 9.56 0 23.304-4.872 23.475-4.872l11.696-4.102-7.085 10.17c-8.023 11.452-18.267 19.058-23.645 22.647 2.902 4.957 5.975 12.136 7.085 14.87l2.817 6.666-7.085-1.197c-.94-.17-1.878-.17-2.903-.17 1.365 3.076 2.56 6.152 2.73 6.75l2.22 5.812s-3.073-.17-4.78-.257c1.878 2.906 3.415 6.24 3.84 9.914l1.71 14.015-8.794-11.024c-3.927-4.87-16.646-12.477-21.768-15.298v197.843c19.036-2.137 40.207-3.42 63.768-3.504 23.56.085 44.817 1.453 63.854 3.504v-198.1c-5.122 2.82-17.927 10.427-21.94 15.384l-8.792 11.024 1.707-14.015c.427-3.674 2.05-7.007 3.842-9.913-1.707.086-4.78.257-4.78.257l2.22-5.812c.17-.512 1.45-3.674 2.73-6.75-1.024 0-2.048.084-2.902.17l-7.085 1.196 2.817-6.666c1.11-2.65 4.183-9.913 7.085-14.87-5.463-3.504-15.707-11.11-23.646-22.647l-7.086-10.17 11.696 4.102c.17.086 13.914 4.872 23.475 4.872 10.245 0 18.013-4.445 19.465-5.385l1.195-.77V69.08c-18.098 2.477-39.27 4.1-63.854 4.187-24.585-.086-45.67-1.71-63.768-4.188v23.586c.512.428 1.024.77 1.024.77z" fill="#009B69"/><path d="M320.085 105.742c4.61-2.393 8.708-5.213 11.952-7.435l2.73-1.88c3.757-2.48 13.404-5.983 21.087-5.983 6.914 0 11.866 7.008 12.805 8.46.596.856 1.364 1.967 2.218 3.078-6.488 1.025-14 .683-22.195-.94l-12.89-2.65 9.305 9.315c2.646 2.65 8.024 4.7 12.634 5.983-1.28 1.196-2.56 2.393-3.67 3.675L344.5 127.79l13.573-3.93c3.073-.855 7.17-2.308 11.95-4.017 11.355-4.017 26.806-9.4 35.684-9.572 9.817-.17 13.573 4.36 16.305 7.693l1.025 1.282c.768.854 1.536 3.162 2.134 5.896-11.694-.94-28.938 2.223-34.316 5.556-5.122 3.163-13.83 10.512-13.83 24.955 0 13.675 8.708 23.246 21.256 23.246 13.744 0 21.513-12.477 21.854-12.99l6.317-10.34-11.182 4.614c-14.597 5.983-19.805 4.444-21.34 3.504-1.623-.94-1.88-2.65-2.135-4.614-.342-2.992.512-12.307 6.23-15.81 5.38-3.334 19.465-4.017 25.1-3.932.938.256 21.34 5.982 21.34 5.982l-1.365-6.495c-.427-2.136-4.61-21.023-7.94-27.09-1.62-2.992-4.182-5.812-6.402-7.95 11.098-5.64 17.756-13.33 21.768-19.655 0 .855.086 1.71.086 2.48 0 6.323-1.11 13.16-3.415 23.16l-3.415 14.612s16.903-16.58 18.78-18.8c0 0-.34 15.724-3.926 25.124l-5.463 13.16s17.415-10.51 21.513-13.5c0 0-.94 8.288-4.78 17.774-2.05 4.872-10.927 18.375-11.696 19.57-8.536 12.564-18.097 26.75-21.768 39.997-3.245 11.793-4.184 30.082-4.184 47.858 0 20.767 1.366 41.02 2.05 49.91 1.194 16.15 4.523 34.867 7.17 49.908 2.22 12.478 4.097 23.33 4.097 28.373 0 1.88-.17 3.76-.597 5.64-19.378-12.05-58.305-30.252-124.72-38.37V105.74h-.17z" fill="#000"/><path d="M442.33 29.767h-27.574s-20.658 26.92-94.5 38.372v20.253c4.95-3.418 10.927-7.264 15.28-8.802 8.28-2.99 20.574-6.41 31.927-1.11 6.403 2.99 10.16 8.033 13.488 12.477 2.477 3.333 4.61 6.153 7.343 7.52 4.61-.17 24.414-1.538 38.67-10.938 12.805-8.547 17.33-23.93 17.33-37.262 0-1.88-.086-3.76-.256-5.555l-1.11-11.11-.598-3.846zM301.988 308.54v-2.308h-4.525l-.085.514c-.34 1.367-1.024 2.222-2.05 2.65-1.023.427-2.987.683-5.89.683h-56.682v-28.887h23.646l6.147.598c.084.087.17.087.34.172.17.342.342.684.427 1.11l.085.43H264.512c.17.34.342.682.427 1.11h3.584v-25.64h-.34v-2.477h-4.696l-.086.513c-.34 1.453-.94 2.393-1.963 2.735-.684.34-2.306.683-5.89.683h-22.71v-25.894h54.21l6.145.77c.085.084.256.084.342.17.17.256.34.598.426.94l.086.427h.938c.17.34.34.768.512 1.195h3.585v-25.81h-.34v-1.708h-.6v-.598H293.88l-.085.512c-.342 1.367-1.025 2.307-2.05 2.734l-5.975.684h-88.353v4.273h.597c.342 0 .683.086 1.025.086v1.024c2.987.342 5.122.684 6.487 1.367.342.6.513 1.454.513 2.565v97.17c0 1.11-.17 2.65-1.196 3.418-1.108.684-3.328 1.282-6.145 1.453l-.597.085v4.274h1.537v1.197h90.743l6.146.77c.086 0 .17.085.256.085.257.428.513.855.683 1.453l.17.427H298.575c.17.342.342.77.427 1.197h3.585v-26.15h-.597zM420.902 315.55l-.853-.94.34-.258.427-.427-.427-.427-21.085-23.844-.256-.256-.343.085-3.073.94-.683.256.343.683c.597 1.11.94 2.478.94 4.273 0 3.42-2.562 6.58-7.77 9.657-5.292 3.162-11.353 4.7-18.097 4.7-11.183 0-19.976-3.503-26.805-10.767-5.12-5.3-8.365-11.965-9.645-19.827-.256-1.967-.342-4.104-.342-6.24 0-27.52 12.89-41.278 38.67-41.278 6.66 0 12.55 1.453 17.586 4.444 1.194.684 2.22 1.453 3.158 2.222 1.878 1.966 2.817 4.102 2.902 6.41l-.256 2.05.598.086-.256.6 1.45.597-.085.684 2.22.855 16.562-26.152-.854-.77.427-.597.256-.427-.426-.342-1.622-1.45-.34-.258-.342.257c-2.05 1.28-3.757 1.88-5.208 1.88-.256 0-1.195-.087-3.84-1.625l-7.428-3.675c-7.94-3.675-16.646-5.555-26.037-5.555-8.28 0-16.22 1.282-23.646 3.675-7.682 2.478-14.597 6.153-20.4 11.025-13.148 10.94-19.892 26.322-19.892 45.55 0 7.863 1.366 15.298 4.098 22.22 2.902 7.093 6.914 13.332 11.95 18.545.343.427.77.77 1.196 1.11l.256.258c11.183 11.45 26.037 17.177 44.39 17.177 12.976 0 24.074-2.564 33.037-7.777l7.94-5.127c2.22-1.623 3.926-2.478 5.036-2.478 1.025 0 1.964.342 2.903 1.026l.256.342.085-.086c.34.256.597.598.94.94l2.047-1.965zM187.768 221.03c.77-.77 2.22-1.37 4.27-1.71v-2.906h-.343v-2.48H156.355v4.189l.512.086c.427.084.768.17 1.11.255v.855c1.45.256 2.56.598 3.33 1.025.34.684.596 1.624.596 2.906v66.404c-2.39-5.3-10.073-17.35-23.304-36.663-15.11-22.048-19.89-29.654-21.427-32.303.086-.342.342-.598.77-.77l3.67-.597v-2.906h-.512v-2.48H78.67v4.189l.513.086c.427.084.768.17 1.11.255v.855c1.11.256 1.963.512 2.56.854.427.684.598 1.71.598 3.077v97.17c0 1.538-.34 2.82-1.023 3.504-.768.683-2.22 1.196-4.183 1.538l-.512.086v4.187h1.535v1.11h34.147v-2.905c-.17 0-.256-.085-.342-.085v-2.307l-.512-.086c-2.304-.427-3.328-1.025-3.84-1.538-.17-.17-.342-.513-.513-.855 0-.257-.085-.6-.085-.94v-74.523c3.84 8.12 12.805 22.22 27.317 42.816l15.62 21.964c5.72 8.204 6.574 10.17 6.66 10.597 0 .77-.342 1.282-1.11 1.623l-3.244.855-.427.086v4.187h1.707v1.11h36.45v-2.905c-.17 0-.256-.085-.34-.085v-2.222l-.513-.085c-2.05-.428-2.817-.94-3.073-1.282-.17-.17-.34-.513-.51-.855 0-.34-.087-.683-.087-1.11v-97.34c0-1.88.342-3.077 1.195-3.93z" fill="#000"/><path d="M295.756 329.137c-1.195-.513-3.33-.77-6.402-.77h-90.147v-1.88c2.817-.256 5.037-.854 6.232-1.623 1.194-.855 1.706-2.393 1.706-4.444v-97.255c0-2.222-.683-3.76-1.878-4.444l.086.087c-1.195-.94-3.5-1.54-6.744-1.795v-1.88h87.244l6.146-.77H292.17c1.28-.512 2.22-1.623 2.647-3.16h2.476v24.44h-2.56c-.513-1.28-1.367-2.307-2.648-2.82h-.17l-6.147-.598H231.05V261.708h24.243c3.073 0 5.207-.256 6.402-.77 1.195-.512 2.05-1.537 2.56-3.16h2.477v24.526h-2.476c-.427-1.367-1.28-2.307-2.56-2.82-1.367-.513-3.33-.77-6.403-.77H231.05v32.476H289.267c3.16 0 5.208-.256 6.403-.77 1.28-.512 2.22-1.537 2.647-2.99h2.39v24.783h-2.39c-.512-1.538-1.366-2.563-2.56-3.076zM413.56 312.985c-1.28 0-2.9.77-5.377 2.478l-7.94 5.3c-8.536 4.955-19.463 7.52-32.523 7.52-18.183 0-32.952-5.727-43.964-17.007-4.95-5.043-8.878-11.11-11.61-18.118-2.646-6.752-4.012-14.1-4.012-21.793 0-18.887 6.488-33.842 19.378-44.61 5.72-4.786 12.464-8.46 20.06-10.854 7.257-2.392 15.11-3.674 23.22-3.674 9.22 0 17.757 1.88 25.525 5.47l7.342 3.675c2.133 1.197 3.584 1.795 4.438 1.795 1.536 0 3.414-.598 5.463-1.88l.6.513-15.965 25.296-1.45-.598.17-1.624c0-4.102-2.647-7.777-7.94-10.853-5.207-3.078-11.012-4.616-17.755-4.616-26.037 0-39.27 14.1-39.27 41.96 0 11.71 3.587 21.366 10.587 28.716 7 7.35 16.304 11.11 27.658 11.11 6.915 0 13.232-1.624 18.695-4.87 5.634-3.334 8.366-6.838 8.366-10.684 0-1.71-.256-2.99-.768-4.187l2.05-.685 20.4 23.074-1.194 1.11c-1.195-1.282-2.732-1.965-4.183-1.965zM186.232 218.807c-.854.854-1.28 2.307-1.28 4.358v97.17c0 2.22.426 3.76 1.28 4.614.597.683 1.622 1.196 3.244 1.538v1.965H154.05v-1.965l2.816-.77h.172c1.195-.598 1.792-1.538 1.792-2.734 0-.77-.854-2.65-6.83-11.28l-15.622-21.965c-15.963-22.733-25.268-37.433-28.256-44.953l-.17-.342h-1.537v75.975c0 2.05.426 3.504 1.28 4.358.768.77 2.134 1.368 4.012 1.795v1.966H78.84v-1.967c1.965-.342 3.416-.94 4.355-1.71.94-.94 1.45-2.478 1.45-4.358v-97.34c0-2.05-.425-3.504-1.28-4.358-.682-.77-1.792-1.368-3.5-1.795v-1.966h40.123v1.966l-3.073.513h-.172c-.94.342-1.366 1.025-1.366 1.88 0 .513 0 1.71 22.195 34.1 14.854 21.706 22.878 34.525 23.817 38.115l.086.427H163.098v-69.054c0-2.136-.513-3.59-1.452-4.358l.086.085c-.683-.853-1.964-1.366-4.183-1.793v-1.966h32.865v1.967c-2.05.512-3.33 1.11-4.183 1.88z" fill="#FFF"/><path d="M115.634 384.6c1.025 0 1.45.343 1.45 1.368v18.802c0 .94-.51 1.367-1.45 1.367v.77h8.622v-.77c-.94 0-1.45-.342-1.45-1.367v-14.016h.084l12.037 13.503c.512.513.768.94.768 1.197 0 .34-.256.512-.768.598v.77h8.963v-.77c-.853 0-1.366-.342-1.366-1.368v-18.8c0-.94.513-1.368 1.366-1.368v-.77h-8.366v.77c.854 0 1.366.34 1.366 1.367v13.674h-.085l-10.16-12.05c-1.108-1.197-1.62-1.966-1.62-2.222 0-.342.34-.598.938-.77v-.77h-10.33v.856zM164.89 384.6v-.768h-9.22v.77c.94 0 1.452.34 1.452 1.366v18.802c0 .94-.512 1.367-1.45 1.367v.77h9.218v-.77c-.94 0-1.45-.342-1.45-1.367v-18.802c-.086-1.025.426-1.367 1.45-1.367zM192.805 384.6v-.768h-9.22v.77c.854 0 1.366.34 1.366 1.366v15.127c0 1.624-1.365 2.307-4.01 2.307-1.196 0-2.22-.256-3.074-.77-.854-.597-1.366-1.366-1.622-2.22l-.768-.257L173 405.71l.598.085 1.195-.512 2.305.854c1.878.598 3.414.855 4.865.855 2.817 0 5.037-.513 6.66-1.624 1.62-1.11 2.475-2.735 2.475-4.7v-14.87c.17-.855.768-1.197 1.707-1.197zM214.402 384.6v-.768h-10.926v.77c.94 0 1.45.34 1.45 1.366v18.802c0 .94-.34 1.367-1.11 1.367v.77h7.513v-.77c-.854 0-1.196-.342-1.196-1.367v-16.067h.086c1.11 2.48 2.73 5.64 4.695 9.23l5.122 8.973h.94l10.584-18.46h.086v16.324c0 .94-.512 1.367-1.366 1.367v.77h8.366v-.77c-1.024 0-1.45-.342-1.45-1.367v-18.802c0-.94.51-1.367 1.45-1.367v-.768h-10.84v.77l.938.597c0 .512-.256 1.196-.854 2.22l-6.83 11.54h-.084l-6.488-11.54-.94-2.22c-.085-.257.257-.513.854-.6zM257.512 393.062v-5.555h13.147c1.108 0 1.706.342 1.877 1.367h.94v-5.982h-.94c-.086.598-.77 1.025-1.878 1.025h-20.745v.77c.853 0 1.365.34 1.365 1.367v18.8c0 .94-.512 1.37-1.365 1.37v.768h20.744c1.108 0 1.706.256 1.877.854h.94v-5.896h-.94c-.086.854-.77 1.367-1.878 1.367H257.51v-6.41h7.854c1.11 0 1.707.342 1.963 1.197h.938v-5.982h-.94c-.255.77-.852 1.11-1.962 1.11h-7.854v-.17zM291.232 389.9c1.707-1.88 4.012-2.735 6.83-2.735 1.962 0 3.84.342 5.292.855 1.195.598 1.963 1.196 1.963 1.88l-.085.77.853.255 4.525-5.555-.77-.513c-.34.513-.852.77-1.45.77l-3.073-.94c-2.305-.77-4.78-1.11-7.34-1.11-4.526 0-8.197 1.11-11.014 3.417-2.73 2.222-4.012 5.042-4.012 8.46 0 3.163 1.367 5.983 4.184 8.205 2.903 2.306 6.488 3.417 10.756 3.417 3.16 0 5.976-.342 8.622-1.367 2.05-.598 3.67-1.624 4.78-2.564v-.342c-.597-.085-.938-.342-.938-.77v-5.554c0-.513.34-.77.94-.854v-.77h-11.696c-.854 0-1.366-.256-1.452-.854h-.94v5.042h.94c.256-.513.77-.77 1.452-.77h5.122v3.676c-1.964.94-3.927 1.367-5.89 1.367-2.99 0-5.38-.77-7.257-2.307-1.878-1.453-2.732-3.333-2.732-5.555.087-2.05.77-4.017 2.392-5.555zM322.646 383.832v.77c.854 0 1.366.34 1.366 1.366v18.802c0 .94-.512 1.367-1.366 1.367v.77h20.744c1.11 0 1.708.256 1.878.854h1.11v-5.896h-1.11c-.085.855-.768 1.368-1.878 1.368h-13.146v-6.41h7.854c1.11 0 1.707.342 1.963 1.196h1.025v-5.982h-1.024c-.255.77-.853 1.11-1.962 1.11h-7.854v-5.554h13.146c1.11 0 1.708.342 1.878 1.368h1.11v-5.983h-1.11c-.085.6-.768 1.026-1.878 1.026h-20.744v-.17zM363.45 390.754h.087l12.036 13.503.768 1.197c0 .34-.084.512-.596.598v.77h8.963v-.77c-1.024 0-1.45-.342-1.45-1.368v-18.8c0-.94.51-1.368 1.45-1.368v-.77h-8.45v.77c.938 0 1.365.34 1.365 1.367v13.674l-10.33-12.05c-1.024-1.197-1.62-1.966-1.45-2.222 0-.342.256-.598.938-.77v-.77h-10.414v.77c.94 0 1.622.342 1.622 1.368v18.8c0 .94-.598 1.37-1.622 1.37v.768h8.707v-.768c-1.11 0-1.622-.342-1.622-1.368v-13.93zM184.268 421.435l-.768-.342-1.707-.256c-1.878 0-2.817.77-2.817 2.307 0 .94.853 1.71 2.475 2.05 1.623.514 2.306 1.027 2.306 1.625 0 .853-.597 1.366-1.963 1.366-1.195 0-1.964-.513-1.964-1.367h-.086l-.94 1.708.257.085.257-.256.768.342 1.878.34c1.964 0 3.074-.854 3.074-2.478 0-1.11-.854-1.88-2.476-2.307-1.62-.342-2.475-.855-2.475-1.367 0-.855.598-1.197 1.878-1.197 1.28 0 1.878.343 1.878.94l.258.087.768-1.453-.086-.086-.512.257zM194.512 421.007c.342 0 .512.257.512.6v6.665c0 .34-.085.512-.512.598v.085h2.05v-.085c-.257-.086-.513-.257-.513-.598v-6.666c0-.342.255-.6.51-.6v-.084h-2.048v.085zM208.94 421.007v-.085h-2.306v.085c.256 0 .342.257.342.6v6.665l-.342.598v.085h1.707v-.085l-.34-.598v-5.983l3.67 6.41-.34.255v.086h1.963v-.085l-.342-.598v-7.008l.343-.257v-.17h-1.878v.084c.256 0 .34.257.34.6v5.04l-3.072-5.383.256-.257zM228.915 421.606l-.256.17c-.6-.77-1.623-1.025-2.562-1.025-1.11 0-1.964.343-2.56 1.198-.77.77-.94 1.71-.94 2.905 0 2.735 1.195 4.188 3.67 4.188.94 0 1.878-.34 2.56-1.11l.257.085.256-.085-1.108-1.453-.256.085.085.342-.597.598c-.34.342-.853.513-1.365.513-1.622 0-2.476-1.11-2.476-3.162 0-2.222.854-3.162 2.476-3.162l1.365.343.513.598v.258l.085.085.94-1.367h-.085zM238.476 420.922v.085c.085 0 .256.257.256.6v6.665c0 .34-.086.512-.256.598v.085h5.122c.34 0 .512.086.597.257h.085v-1.624h-.085l-.597.342h-3.67v-2.735h2.56c.34 0 .512.085.512.342h.256v-1.71H243c0 .257-.085.343-.512.343h-2.56v-2.564h3.584c.342 0 .512.085.598.512h.085v-1.71h-.085l-.512.343h-5.122v.172zM267.073 421.862v1.453h.086l.34-.342.598-.256v5.555l-.342.598v.085h1.878v-.085l-.34-.598v-6.666l.34-.6v-.084h-1.878v.085l.342.342c0 .512-.086.598-.598.598-.085 0-.256 0-.34-.086h-.087zM287.05 424.682c0-2.564-.94-3.93-3.074-3.93-1.878 0-2.817 1.025-2.817 2.734 0 1.71.852 2.564 2.56 2.564.853 0 1.62-.342 2.22-1.026 0 2.05-.77 3.162-2.22 3.162-.854 0-1.196-.342-1.196-.94v-.085l-.256-.085-1.024 1.368.085.085.085-.085.768.34 1.45.343c1.026 0 1.708-.342 2.306-1.11.767-.855 1.11-1.966 1.11-3.334zm-3.074-2.905c1.195 0 1.707.512 1.707 1.71 0 1.11-.512 1.708-1.707 1.708-1.11 0-1.708-.598-1.708-1.71 0-1.196.598-1.708 1.708-1.708zM301.988 421.862c-.598-.77-1.45-1.11-2.476-1.11-1.11 0-1.878.34-2.475 1.11-.598.855-.854 1.88-.854 3.077 0 1.195.256 2.22.854 2.904.597.855 1.365 1.197 2.475 1.197.94 0 1.878-.34 2.476-1.196.512-.77.853-1.71.853-2.905 0-1.198-.34-2.223-.852-3.078zm-.342 3.077c0 2.05-.768 3.16-2.048 3.16-1.452 0-2.22-1.11-2.22-3.16 0-2.223.768-3.163 2.22-3.163 1.28 0 2.048.94 2.048 3.162zM315.05 420.75c-.94 0-1.88.343-2.477 1.112-.512.855-.853 1.88-.853 3.077 0 1.195.34 2.22.853 2.904.598.855 1.45 1.197 2.476 1.197 1.11 0 1.877-.34 2.474-1.196.598-.77.854-1.71.854-2.905 0-1.198-.256-2.223-.854-3.078-.683-.684-1.365-1.11-2.475-1.11zm0 7.436c-1.367 0-2.05-1.11-2.05-3.162 0-2.222.768-3.162 2.05-3.162 1.45 0 2.218.94 2.218 3.162 0 2.05-.768 3.162-2.22 3.162z" fill="#000"/></g></svg>