<?xml version="1.0" encoding="UTF-8"?>
<svg xmlns="http://www.w3.org/2000/svg" xmlns:xlink="http://www.w3.org/1999/xlink" width="302.83pt" height="314.36pt" viewBox="0 0 302.83 314.36" version="1.1">
<defs>
<clipPath id="clip1">
  <path d="M 0 0 L 302.828125 0 L 302.828125 314.359375 L 0 314.359375 Z M 0 0 "/>
</clipPath>
</defs>
<g id="surface1">
<g clip-path="url(#clip1)" clip-rule="nonzero">
<path style=" stroke:none;fill-rule:nonzero;fill:rgb(0%,0%,0%);fill-opacity:1;" d="M 291.296875 167.980469 C 284.339844 150.535156 277.113281 132.476563 277.113281 110.964844 L 277.113281 108.660156 C 277.113281 87.996094 277.113281 75.511719 289.304688 58.335938 L 293.144531 52.925781 L 240.859375 -0.00390625 L 235.425781 3.757813 C 235.089844 3.984375 200.304688 27.527344 156.816406 27.527344 C 73.640625 27.527344 50.878906 15.324219 50.644531 15.195313 L 45.027344 12.089844 L 40.734375 16.917969 L 0 64.828125 L 5.398438 69.96875 C 17.332031 81.316406 23.140625 98.839844 23.140625 123.542969 C 23.140625 138.058594 18.398438 151.960938 13.816406 165.402344 C 9.117188 179.164063 4.265625 193.394531 4.265625 208.535156 C 4.265625 246.464844 34.617188 273.320313 64.609375 280.238281 L 73.277344 282.152344 C 94.4375 286.742188 129.835938 294.433594 152.15625 310.902344 L 156.816406 314.359375 L 161.476563 310.902344 C 183.695313 294.511719 219.308594 286.816406 240.566406 282.207031 L 249.535156 280.238281 C 282.414063 272.652344 302.828125 246.179688 302.828125 211.1875 C 302.828125 196.871094 297.207031 182.859375 291.296875 167.980469 "/>
</g>
<path style=" stroke:none;fill-rule:nonzero;fill:rgb(100%,100%,100%);fill-opacity:1;" d="M 156.816406 32.726563 C 71.109375 32.726563 48.308594 19.851563 48.09375 19.714844 L 46.148438 18.578125 L 44.691406 20.277344 L 7.140625 64.449219 L 8.972656 66.207031 C 21.988281 78.582031 28.324219 97.332031 28.324219 123.542969 C 28.324219 138.929688 23.445313 153.257813 18.714844 167.089844 C 14.167969 180.453125 9.441406 194.265625 9.441406 208.535156 C 9.441406 214.507813 10.320313 220.113281 11.796875 225.445313 L 238.078125 8.214844 C 234.65625 10.496094 200.203125 32.726563 157.078125 32.726563 "/>
<path style=" stroke:none;fill-rule:nonzero;fill:rgb(0%,0%,0%);fill-opacity:1;" d="M 14.800781 208.535156 C 14.800781 195.128906 19.160156 182.347656 23.777344 168.808594 C 28.648438 154.554688 33.679688 139.820313 33.679688 123.542969 C 33.679688 97.003906 27.308594 77.601563 14.390625 64.183594 C 17.097656 60.996094 45.058594 28.128906 47.425781 25.328125 C 54.566406 28.507813 81.976563 38.070313 156.816406 38.070313 C 176.890625 38.070313 195.179688 33.570313 209.363281 28.335938 L 15.144531 214.773438 C 14.925781 212.730469 14.800781 210.648438 14.800781 208.535156 "/>
<path style=" stroke:none;fill-rule:nonzero;fill:rgb(100%,100%,100%);fill-opacity:1;" d="M 286.476563 169.914063 C 279.664063 152.835938 271.945313 133.484375 271.945313 110.964844 L 271.945313 108.683594 C 271.929688 93.359375 271.945313 81.839844 277.054688 69.535156 L 63.59375 274.585938 C 64.324219 274.761719 65.058594 275.011719 65.789063 275.171875 L 74.382813 277.082031 C 95.949219 281.757813 132.046875 289.597656 155.226563 306.742188 L 156.816406 307.898438 L 158.402344 306.742188 C 181.496094 289.683594 217.792969 281.8125 239.472656 277.136719 L 248.371094 275.171875 C 279.226563 268.058594 297.644531 244.125 297.644531 211.1875 C 297.644531 197.882813 292.210938 184.300781 286.476563 169.914063 "/>
<path style=" stroke:none;fill-rule:nonzero;fill:rgb(0%,0%,0%);fill-opacity:1;" d="M 247.164063 269.953125 L 238.339844 271.902344 C 216.699219 276.597656 180.855469 284.425781 156.816406 301.390625 C 132.6875 284.339844 97.039063 276.511719 75.515625 271.847656 L 74.382813 271.601563 L 267.402344 86.390625 C 266.675781 92.710938 266.601563 99.246094 266.601563 106.453125 L 266.601563 110.964844 C 266.601563 134.519531 274.519531 154.382813 281.5 171.90625 C 287.292969 186.398438 292.269531 198.914063 292.269531 211.1875 C 292.269531 241.460938 275.410156 263.425781 247.164063 269.953125 "/>
<path style=" stroke:none;fill-rule:nonzero;fill:rgb(97.65625%,27.830505%,6.272888%);fill-opacity:1;" d="M 21.324219 64.03125 C 27.40625 56.882813 43.777344 37.628906 48.957031 31.542969 C 60.679688 35.804688 90.382813 43.269531 156.816406 43.269531 C 168.710938 43.269531 180.171875 41.730469 190.335938 39.417969 L 20.316406 202.601563 C 21.367188 192.066406 24.925781 181.546875 28.6875 170.5 C 33.683594 155.839844 38.871094 140.683594 38.871094 123.542969 C 38.871094 97.78125 33.105469 78.222656 21.324219 64.03125 M 246.015625 264.898438 L 237.246094 266.832031 C 216.046875 271.394531 181.582031 279 156.816406 295.195313 C 135.042969 280.941406 106.015625 273.363281 84.980469 268.613281 L 261.449219 99.160156 C 261.417969 101.578125 261.402344 103.996094 261.402344 106.507813 L 261.402344 110.964844 C 261.402344 135.511719 269.53125 155.882813 276.679688 173.832031 C 282.273438 187.820313 287.105469 199.910156 287.105469 211.1875 C 287.105469 238.878906 271.738281 258.96875 246.015625 264.898438 "/>
<path style=" stroke:none;fill-rule:nonzero;fill:rgb(100%,100%,100%);fill-opacity:1;" d="M 24.234375 229.390625 L 28.65625 225.203125 L 63.167969 248.351563 L 63.253906 248.277344 L 42.21875 212.429688 L 46.644531 208.246094 L 70.335938 250.769531 L 64.953125 255.84375 "/>
<path style=" stroke:none;fill-rule:nonzero;fill:rgb(100%,100%,100%);fill-opacity:1;" d="M 88.820313 200.886719 C 96.972656 209.550781 104.03125 220.25 94.582031 229.15625 C 85.097656 238.101563 74.863281 230.421875 66.703125 221.742188 C 58.550781 213.09375 51.476563 202.398438 60.953125 193.480469 C 70.421875 184.550781 80.671875 192.230469 88.820313 200.886719 M 71.132813 217.585938 C 78.605469 225.511719 85.441406 231.25 91.3125 225.71875 C 97.167969 220.164063 91.871094 213.007813 84.394531 205.0625 C 76.925781 197.121094 70.078125 191.410156 64.214844 196.933594 C 58.351563 202.460938 63.648438 209.644531 71.132813 217.585938 "/>
<path style=" stroke:none;fill-rule:nonzero;fill:rgb(100%,100%,100%);fill-opacity:1;" d="M 79.417969 177.320313 L 83.652344 173.328125 L 112.464844 203.929688 L 126.414063 190.789063 L 129.933594 194.542969 L 111.765625 211.679688 "/>
<path style=" stroke:none;fill-rule:nonzero;fill:rgb(100%,100%,100%);fill-opacity:1;" d="M 102.445313 155.609375 L 120.179688 138.882813 L 123.71875 142.632813 L 110.207031 155.367188 L 120.355469 166.136719 L 133.09375 154.128906 L 136.632813 157.894531 L 123.894531 169.890625 L 135.484375 182.214844 L 149.5625 168.921875 L 153.097656 172.683594 L 134.796875 189.957031 "/>
<path style=" stroke:none;fill-rule:nonzero;fill:rgb(100%,100%,100%);fill-opacity:1;" d="M 126.382813 133.019531 L 131.855469 127.867188 L 170.210938 145.835938 L 170.3125 145.742188 L 143.300781 117.066406 L 147.527344 113.082031 L 179.875 147.414063 L 174.070313 152.90625 L 136.882813 135.480469 L 136.777344 135.566406 L 162.957031 163.390625 L 158.738281 167.378906 "/>
<path style=" stroke:none;fill-rule:nonzero;fill:rgb(100%,100%,100%);fill-opacity:1;" d="M 155.214844 105.804688 L 164.402344 97.148438 C 175.074219 87.101563 183.679688 93.507813 192.589844 102.996094 C 200.742188 111.652344 206.609375 122.203125 197.175781 131.101563 L 187.566406 140.167969 Z M 188.542969 132.722656 L 192.953125 128.527344 C 200.261719 121.640625 194.015625 113.378906 188.222656 107.207031 C 181.972656 100.5625 174.824219 93.855469 167.140625 101.113281 L 162.707031 105.300781 "/>
<path style=" stroke:none;fill-rule:nonzero;fill:rgb(100%,100%,100%);fill-opacity:1;" d="M 189.9375 73.078125 L 195.601563 67.71875 L 237.175781 93.359375 L 232.746094 97.539063 L 221.417969 90.425781 L 210.472656 100.761719 L 216.789063 112.589844 L 212.378906 116.785156 Z M 208.066406 96.488281 L 217.285156 87.78125 L 197.289063 75.308594 L 197.203125 75.394531 Z M 208.066406 96.488281 "/>
<path style=" stroke:none;fill-rule:nonzero;fill:rgb(100%,100%,100%);fill-opacity:1;" d="M 209 55.074219 L 216.132813 48.355469 L 248.648438 69.109375 L 248.734375 69.015625 L 229.980469 35.304688 L 237.089844 28.601563 L 269.441406 62.945313 L 265.1875 66.933594 L 236.941406 36.90625 L 236.835938 37 L 257.519531 74.199219 L 253.28125 78.175781 L 217.417969 55.316406 L 217.328125 55.421875 L 245.59375 85.425781 L 241.355469 89.414063 "/>
<path style=" stroke:none;fill-rule:nonzero;fill:rgb(0%,0%,0%);fill-opacity:1;" d="M 265.308594 241.613281 C 264.390625 241.738281 263.601563 241.792969 262.929688 241.792969 C 261.308594 241.800781 260.441406 241.457031 260.089844 241.175781 C 259.753906 240.894531 259.675781 240.707031 259.652344 240.207031 C 259.605469 239.300781 260.449219 237.660156 261.328125 236.828125 L 259.113281 234.59375 C 257.773438 235.96875 256.550781 237.945313 256.503906 240.207031 C 256.480469 241.421875 257.007813 242.8125 258.1875 243.683594 C 259.351563 244.554688 260.910156 244.9375 262.929688 244.941406 C 263.769531 244.941406 264.699219 244.875 265.734375 244.730469 "/>
<path style=" stroke:none;fill-rule:nonzero;fill:rgb(0%,0%,0%);fill-opacity:1;" d="M 246.832031 238.425781 C 246.828125 237.480469 247.113281 236.453125 247.535156 235.683594 C 247.945313 234.902344 248.523438 234.460938 248.695313 234.433594 L 247.753906 231.433594 L 247.75 231.433594 C 246.367188 231.898438 245.460938 232.953125 244.777344 234.175781 C 244.105469 235.410156 243.6875 236.882813 243.683594 238.425781 C 243.679688 239.984375 244.144531 241.667969 245.363281 242.996094 C 246.582031 244.324219 248.464844 245.167969 250.886719 245.328125 L 251.101563 242.191406 C 249.25 242.050781 248.265625 241.492188 247.683594 240.863281 C 247.101563 240.234375 246.835938 239.398438 246.832031 238.425781 "/>
<path style=" stroke:none;fill-rule:nonzero;fill:rgb(0%,0%,0%);fill-opacity:1;" d="M 227.988281 212.992188 L 227.988281 208.207031 L 261.160156 200.421875 L 259.445313 198.453125 C 251.703125 189.554688 247.167969 181.144531 244.566406 174.984375 C 243.261719 171.902344 242.445313 169.382813 241.960938 167.644531 C 241.714844 166.777344 241.550781 166.101563 241.453125 165.652344 C 241.351563 165.203125 241.320313 165.003906 241.316406 165.003906 L 241.113281 163.808594 L 227.988281 162.636719 L 227.988281 149.332031 C 231.75 150.652344 240.113281 153.933594 247.53125 159.078125 L 249.324219 156.492188 C 238.828125 149.230469 226.949219 145.675781 226.867188 145.644531 L 225.234375 145.152344 L 224.875 146.820313 C 223.28125 154.222656 222.511719 161.613281 218.726563 170.226563 C 214.949219 178.84375 208.136719 188.777344 194.292969 201.078125 L 192.332031 202.824219 L 194.792969 203.734375 C 194.796875 203.734375 208.957031 208.964844 218.480469 212.449219 C 208.699219 214.15625 201.261719 222.683594 201.261719 232.933594 C 201.261719 233.074219 201.269531 233.214844 201.273438 233.355469 C 200.175781 232.484375 198.6875 231.996094 196.984375 232.015625 C 196.390625 232.015625 195.761719 232.066406 195.089844 232.171875 L 195.589844 235.28125 C 196.105469 235.199219 196.570313 235.164063 196.984375 235.164063 C 198.558594 235.191406 199.207031 235.613281 199.6875 236.203125 C 200.164063 236.808594 200.457031 237.878906 200.453125 239.242188 C 200.476563 240.429688 199.707031 242.035156 198.566406 243.238281 C 197.460938 244.472656 195.984375 245.191406 195.339844 245.144531 L 186.054688 245.144531 C 186.1875 244.820313 186.289063 244.496094 186.371094 244.175781 C 186.667969 243 186.699219 241.835938 186.699219 240.867188 C 186.699219 240.394531 186.691406 239.972656 186.691406 239.632813 C 186.722656 238.011719 185.644531 236.675781 184.433594 236.078125 C 183.214844 235.4375 181.808594 235.214844 180.355469 235.210938 C 179.789063 235.210938 179.214844 235.25 178.648438 235.320313 L 179.039063 238.445313 L 179.039063 238.441406 C 179.484375 238.386719 179.929688 238.359375 180.355469 238.359375 C 181.453125 238.351563 182.429688 238.566406 182.953125 238.855469 C 183.488281 239.1875 183.511719 239.28125 183.542969 239.632813 C 183.542969 240.019531 183.550781 240.433594 183.550781 240.867188 C 183.5625 242.03125 183.453125 243.308594 183.101563 244.042969 C 182.925781 244.417969 182.738281 244.644531 182.488281 244.808594 C 182.238281 244.96875 181.878906 245.113281 181.203125 245.113281 L 181.203125 245.144531 L 174.398438 245.144531 C 174.226563 243.550781 173.367188 242.039063 172.285156 240.570313 C 171.054688 239.042969 169.636719 237.609375 167.621094 237.285156 L 167.234375 240.410156 C 167.605469 240.386719 168.898438 241.261719 169.789063 242.488281 C 170.511719 243.382813 171.039063 244.511719 171.21875 245.144531 L 161.398438 245.144531 L 161.398438 245.101563 C 161.359375 242.835938 160.246094 240.320313 160.234375 240.222656 L 157.320313 241.410156 C 157.320313 241.410156 157.371094 241.539063 157.464844 241.789063 C 157.742188 242.503906 158.273438 244.253906 158.25 245.101563 L 158.25 245.144531 L 154.964844 245.144531 C 154.886719 244.917969 154.789063 244.710938 154.695313 244.503906 C 154.035156 243.152344 152.964844 241.855469 152.929688 241.804688 L 150.480469 243.78125 C 150.488281 243.789063 150.582031 243.90625 150.738281 244.113281 C 150.929688 244.371094 151.207031 244.757813 151.449219 245.144531 L 150.914063 245.144531 L 150.914063 248.292969 L 195.339844 248.292969 C 197.460938 248.246094 199.324219 247.003906 200.871094 245.382813 C 201.851563 244.320313 202.6875 243.050781 203.167969 241.652344 C 206.464844 248.808594 213.6875 253.773438 222.074219 253.773438 C 233.585938 253.773438 242.878906 244.453125 242.902344 232.933594 C 242.898438 223.511719 236.613281 215.539063 227.988281 212.992188 "/>
<path style=" stroke:none;fill-rule:nonzero;fill:rgb(100%,100%,100%);fill-opacity:1;" d="M 227.988281 165.792969 L 238.46875 166.730469 C 239.402344 170.667969 243.21875 183.796875 255.394531 198.539063 L 227.988281 204.972656 "/>
<path style=" stroke:none;fill-rule:nonzero;fill:rgb(100%,100%,100%);fill-opacity:1;" d="M 198.328125 201.679688 C 211.136719 189.957031 217.8125 180.160156 221.609375 171.492188 C 223.03125 168.25 224.050781 165.175781 224.839844 162.242188 L 224.839844 211.421875 C 221.234375 210.113281 215.0625 207.847656 209.351563 205.746094 C 204.949219 204.125 200.824219 202.605469 198.328125 201.679688 "/>
<path style=" stroke:none;fill-rule:nonzero;fill:rgb(0%,0%,0%);fill-opacity:1;" d="M 230.234375 181.609375 L 230.234375 183.390625 L 233.667969 183.390625 L 231.117188 190.125 L 233.335938 190.125 L 235.886719 183.410156 L 235.886719 181.609375 L 235.648438 181.609375 "/>
<path style=" stroke:none;fill-rule:nonzero;fill:rgb(0%,0%,0%);fill-opacity:1;" d="M 242.097656 181.613281 L 236.667969 181.613281 L 236.667969 183.390625 L 240.117188 183.390625 L 237.566406 190.125 L 239.785156 190.125 L 242.335938 183.410156 L 242.335938 181.613281 "/>
<path style=" stroke:none;fill-rule:nonzero;fill:rgb(0%,0%,0%);fill-opacity:1;" d="M 81.878906 84.539063 L 64.0625 84.539063 L 64.0625 95.527344 L 77.925781 95.527344 L 77.925781 101.746094 L 64.0625 101.746094 L 64.0625 119.390625 L 53.507813 119.390625 L 53.507813 78.472656 L 81.878906 78.472656 "/>
<path style=" stroke:none;fill-rule:nonzero;fill:rgb(0%,0%,0%);fill-opacity:1;" d="M 119.113281 94.800781 C 118.464844 95.203125 111.875 94.824219 109.617188 94.824219 C 103.933594 94.824219 98.9375 94.554688 95.347656 91.257813 C 91.757813 87.96875 90.335938 81.757813 90.335938 75.386719 L 90.335938 73.789063 C 90.335938 67.847656 90.6875 62.050781 94.335938 58.449219 C 97.96875 54.851563 104.007813 54.089844 109.503906 54.089844 C 111.875 54.089844 118.242188 54.027344 119.113281 54.449219 L 119.113281 60.601563 C 118.316406 60.214844 112.882813 60.164063 111.035156 60.164063 C 107.605469 60.164063 103.460938 60.382813 101.527344 62.890625 C 99.597656 65.398438 100.105469 69.890625 100.105469 74.3125 L 100.105469 74.859375 C 100.105469 79.59375 100.636719 84.46875 102.4375 86.730469 C 104.238281 88.988281 107.054688 88.742188 110.171875 88.742188 C 112.273438 88.742188 118.242188 89.132813 119.113281 88.789063 "/>
<path style=" stroke:none;fill-rule:nonzero;fill:rgb(100%,100%,100%);fill-opacity:1;" d="M 215.570313 230.257813 L 215.570313 235.648438 L 219.386719 239.460938 L 224.773438 239.460938 L 228.589844 235.648438 L 228.589844 230.257813 L 224.773438 226.445313 L 219.386719 226.445313 "/>
<path style=" stroke:none;fill-rule:nonzero;fill:rgb(100%,100%,100%);fill-opacity:1;" d="M 214.816406 228.789063 L 217.914063 225.6875 L 217.914063 221.308594 L 214.816406 218.214844 L 210.4375 218.214844 L 207.339844 221.308594 L 207.339844 225.6875 L 210.4375 228.789063 "/>
<path style=" stroke:none;fill-rule:nonzero;fill:rgb(100%,100%,100%);fill-opacity:1;" d="M 229.34375 237.121094 L 226.246094 240.21875 L 226.246094 244.597656 L 229.34375 247.695313 L 233.722656 247.695313 L 236.824219 244.597656 L 236.824219 240.21875 L 233.722656 237.121094 "/>
<path style=" stroke:none;fill-rule:nonzero;fill:rgb(100%,100%,100%);fill-opacity:1;" d="M 214.816406 237.121094 L 210.4375 237.121094 L 207.339844 240.21875 L 207.339844 244.597656 L 210.4375 247.695313 L 214.816406 247.695313 L 217.914063 244.597656 L 217.914063 240.21875 "/>
</g>
</svg>
