<?xml version="1.0" encoding="UTF-8" standalone="no"?>
<svg xmlns:dc="http://purl.org/dc/elements/1.1/" xmlns:cc="http://creativecommons.org/ns#" xmlns:rdf="http://www.w3.org/1999/02/22-rdf-syntax-ns#" xmlns:svg="http://www.w3.org/2000/svg" xmlns="http://www.w3.org/2000/svg" xmlns:sodipodi="http://sodipodi.sourceforge.net/DTD/sodipodi-0.dtd" xmlns:inkscape="http://www.inkscape.org/namespaces/inkscape" inkscape:version="1.0 (4035a4f, 2020-05-01)" sodipodi:docname="2.svg" id="svg1219" height="200.0pt" width="200.0pt" viewBox="0 0 200 200" version="1.1">
  <metadata id="metadata1225">
    <rdf:RDF>
      <cc:Work rdf:about="">
        <dc:format>image/svg+xml</dc:format>
        <dc:type rdf:resource="http://purl.org/dc/dcmitype/StillImage"/>
      </cc:Work>
    </rdf:RDF>
  </metadata>
  <defs id="defs1223"/>
  <sodipodi:namedview inkscape:current-layer="svg1219" inkscape:cy="133.33333" inkscape:cx="133.33333" inkscape:zoom="2.50875" showgrid="false" id="namedview1221" inkscape:window-height="480" inkscape:window-width="640" inkscape:pageshadow="2" inkscape:pageopacity="0" guidetolerance="10" gridtolerance="10" objecttolerance="10" borderopacity="1" bordercolor="#666666" pagecolor="#ffffff"/>
  <path style="fill:#ffffff;fill-opacity:0.01619433" id="path1157" fill="#ffffff" d="M 0.00 0.00 L 99.35 0.00 L 99.10 0.34 C 90.70 9.62 79.45 17.35 67.01 19.79 C 54.48 22.38 41.36 19.70 30.57 12.92 C 27.09 21.82 23.38 30.64 19.91 39.54 C 30.38 48.11 37.68 61.31 37.71 75.00 C 37.94 88.71 31.38 101.56 23.19 112.17 C 20.83 115.44 17.76 118.16 15.47 121.45 C 15.14 122.96 15.62 124.70 15.90 126.20 C 18.88 138.94 25.06 151.30 34.85 160.17 C 40.90 165.73 48.30 169.63 56.23 171.78 C 68.96 175.15 82.56 180.57 92.26 189.74 C 95.46 192.61 97.43 196.22 99.36 200.00 L 0.00 200.00 L 0.00 0.00 Z"/>
  <path id="path1159" fill="#1566ac" d="M 99.35 0.00 L 99.79 0.00 L 100.04 0.35 C 106.03 7.53 114.32 13.46 122.93 17.07 C 137.61 23.21 154.93 21.55 168.25 12.88 C 171.85 21.76 175.47 30.63 179.00 39.55 C 171.00 46.04 164.98 55.18 162.43 65.18 C 160.26 73.75 160.98 82.71 163.87 91.02 C 167.64 101.94 174.45 111.38 182.23 119.79 C 183.62 121.31 183.88 121.85 183.50 123.94 C 180.05 141.99 169.59 159.32 152.86 167.85 C 146.08 171.43 139.11 172.42 132.00 175.09 C 123.39 178.24 114.64 182.62 107.74 188.74 C 103.95 191.82 101.72 195.83 99.36 200.00 L 99.36 200.00 C 97.43 196.22 95.46 192.61 92.26 189.74 C 82.56 180.57 68.96 175.15 56.23 171.78 C 48.30 169.63 40.90 165.73 34.85 160.17 C 25.06 151.30 18.88 138.94 15.90 126.20 C 15.62 124.70 15.14 122.96 15.47 121.45 C 17.76 118.16 20.83 115.44 23.19 112.17 C 31.38 101.56 37.94 88.71 37.71 75.00 C 37.68 61.31 30.38 48.11 19.91 39.54 C 23.38 30.64 27.09 21.82 30.57 12.92 C 41.36 19.70 54.48 22.38 67.01 19.79 C 79.45 17.35 90.70 9.62 99.10 0.34 L 99.35 0.00 Z"/>
  <path style="fill:#ffffff;fill-opacity:0" id="path1161" fill="#ffffff" d="M 99.79 0.00 L 200.00 0.00 L 200.00 200.00 L 99.36 200.00 C 101.72 195.83 103.95 191.82 107.74 188.74 C 114.64 182.62 123.39 178.24 132.00 175.09 C 139.11 172.42 146.08 171.43 152.86 167.85 C 169.59 159.32 180.05 141.99 183.50 123.94 C 183.88 121.85 183.62 121.31 182.23 119.79 C 174.45 111.38 167.64 101.94 163.87 91.02 C 160.98 82.71 160.26 73.75 162.43 65.18 C 164.98 55.18 171.00 46.04 179.00 39.55 C 175.47 30.63 171.85 21.76 168.25 12.88 C 154.93 21.55 137.61 23.21 122.93 17.07 C 114.32 13.46 106.03 7.53 100.04 0.35 L 99.79 0.00 Z"/>
  <path id="path1163" fill="#ffffff" d="M 102.00 6.02 C 110.76 14.53 121.77 20.92 133.97 22.68 C 145.35 24.40 157.00 22.01 166.99 16.41 C 170.02 23.98 173.13 31.53 176.15 39.11 C 164.82 49.20 157.70 63.62 158.97 79.01 C 160.21 95.57 170.26 110.34 181.37 122.09 C 178.42 138.88 169.10 155.37 154.10 164.14 C 146.12 169.01 137.81 169.78 129.24 173.27 C 118.29 177.52 105.55 184.34 99.46 194.82 C 97.41 191.48 95.02 188.51 92.01 186.00 C 82.14 177.54 69.39 172.51 56.96 169.20 C 49.18 167.13 42.13 163.24 36.21 157.78 C 26.25 148.57 19.89 135.31 17.57 122.05 C 24.80 114.34 31.09 106.12 35.40 96.41 C 39.11 88.11 40.84 79.04 39.71 69.97 C 38.24 57.97 31.70 47.07 22.74 39.11 C 25.78 31.53 28.87 23.98 31.91 16.41 C 43.36 22.84 57.02 24.98 69.79 21.72 C 80.78 18.99 89.99 12.82 98.03 5.02 C 99.68 3.03 100.56 5.01 102.00 6.02 Z"/>
  <path id="path1165" fill="#1566ac" d="M 99.44 7.39 C 101.21 8.64 102.77 10.21 104.43 11.60 C 113.68 19.36 124.86 24.61 136.99 25.55 C 146.91 26.39 156.74 24.30 165.71 20.07 C 166.32 21.50 166.94 22.92 167.55 24.35 C 128.24 70.92 88.81 117.40 49.38 163.87 C 45.30 161.62 41.36 159.26 37.98 156.03 C 28.47 147.29 22.86 135.45 20.23 122.94 C 26.91 115.67 32.77 107.96 37.01 99.00 C 41.73 89.01 43.83 77.99 41.80 67.03 C 39.75 55.86 33.79 46.20 25.75 38.33 C 28.25 32.26 30.69 26.16 33.15 20.07 C 47.10 26.77 63.39 27.71 77.78 21.77 C 86.07 18.52 92.82 13.19 99.44 7.39 Z"/>
  <path id="path1167" fill="#ffffff" d="M 115.57 56.46 C 118.44 57.40 121.79 60.33 123.14 63.04 C 124.55 65.76 122.56 68.88 120.17 70.23 C 118.88 70.88 116.99 70.19 115.63 70.04 C 117.01 68.32 117.89 67.43 120.09 66.85 C 120.37 66.27 120.66 65.70 120.96 65.13 C 120.31 64.26 119.66 63.38 119.02 62.51 C 118.15 63.73 117.39 65.32 116.15 66.21 C 113.19 67.91 109.07 65.34 109.10 61.98 C 108.98 58.76 112.23 55.39 115.57 56.46 Z"/>
  <path id="path1169" fill="#1566ac" d="M 115.25 59.70 C 116.80 60.67 116.80 63.23 114.83 63.53 C 113.31 63.93 112.25 61.96 111.40 61.04 C 112.56 59.75 113.46 58.49 115.25 59.70 Z"/>
  <path id="path1171" fill="#ffffff" d="M 107.94 66.02 C 110.85 67.20 113.93 69.93 115.32 72.77 C 116.84 77.24 111.97 81.82 107.54 79.23 C 109.01 77.96 110.67 77.04 112.27 75.97 C 113.65 75.01 111.52 72.91 111.24 71.81 C 110.25 73.07 109.37 75.11 107.86 75.82 C 104.80 77.29 100.79 74.37 101.13 71.01 C 101.35 67.78 104.61 64.71 107.94 66.02 Z"/>
  <path id="path1173" fill="#1566ac" d="M 105.98 68.64 C 107.77 68.81 109.47 71.36 107.68 72.64 C 105.66 73.84 104.94 72.00 103.46 70.95 C 104.03 70.15 104.78 68.51 105.98 68.64 Z"/>
  <path id="path1175" fill="#ffffff" d="M 99.92 74.89 C 101.98 75.67 101.98 77.32 102.56 79.14 C 104.43 79.40 106.03 79.02 107.29 80.70 C 109.67 84.54 105.50 90.32 101.07 89.04 C 98.68 88.25 98.75 86.45 98.19 84.36 C 96.65 84.16 94.98 84.44 93.96 83.04 C 91.35 79.45 95.82 73.75 99.92 74.89 Z"/>
  <path id="path1177" fill="#1566ac" d="M 136.70 76.32 C 139.13 77.81 141.65 79.82 143.52 81.98 L 143.32 83.89 C 140.81 81.99 138.51 79.69 135.84 78.05 C 134.81 78.16 134.06 78.80 133.58 79.97 C 135.85 82.74 138.94 84.41 140.85 87.53 C 137.38 86.90 134.65 83.66 131.77 81.67 L 131.17 83.24 C 130.50 82.89 129.83 82.53 129.16 82.17 C 130.23 81.33 131.26 80.46 132.27 79.56 C 133.48 77.97 134.11 75.21 136.70 76.32 Z"/>
  <path id="path1179" fill="#1566ac" d="M 96.52 78.55 C 98.38 76.17 101.21 79.38 99.13 81.20 C 97.25 82.39 94.97 80.47 96.52 78.55 Z"/>
  <path id="path1181" fill="#1566ac" d="M 101.53 82.53 C 103.27 80.82 104.55 82.38 105.45 83.99 C 105.06 85.23 104.25 86.04 103.01 86.42 C 101.42 85.53 99.84 84.28 101.53 82.53 Z"/>
  <path id="path1183" fill="#ffffff" d="M 89.86 82.75 C 93.90 85.86 97.72 89.25 101.62 92.52 C 100.92 93.36 100.22 94.20 99.52 95.05 C 96.54 92.61 93.58 90.15 90.64 87.67 C 90.40 88.92 90.16 90.18 89.92 91.43 C 89.09 90.87 88.25 90.32 87.41 89.76 C 87.87 87.21 88.19 84.84 89.86 82.75 Z"/>
  <path id="path1185" fill="#1566ac" d="M 121.16 84.32 C 122.75 83.26 124.61 84.88 123.36 86.48 C 121.95 87.61 119.57 85.75 121.16 84.32 Z"/>
  <path id="path1187" fill="#1566ac" d="M 130.35 83.23 C 131.26 86.59 134.38 87.67 136.52 90.21 C 136.51 90.86 136.42 91.51 136.25 92.16 C 133.24 89.70 130.20 87.25 127.28 84.67 C 128.29 84.18 129.32 83.69 130.35 83.23 Z"/>
  <path id="path1189" fill="#1566ac" d="M 126.83 88.10 C 129.16 89.84 131.57 91.69 133.49 93.88 L 133.37 95.79 C 130.15 93.35 126.98 90.79 124.10 87.96 C 125.15 87.33 126.06 87.37 126.83 88.10 Z"/>
  <path id="path1191" fill="#1566ac" d="M 121.95 91.61 C 124.20 91.24 125.89 92.94 127.71 93.96 C 126.28 95.70 124.84 97.44 123.44 99.21 C 125.17 99.73 126.35 100.24 128.11 99.47 C 127.67 97.55 127.95 95.94 128.93 94.64 C 129.94 97.33 130.65 99.12 128.22 101.21 C 125.47 103.52 121.67 100.17 119.95 98.03 C 117.95 95.61 119.68 92.97 121.95 91.61 Z"/>
  <path id="path1193" fill="#ffffff" d="M 125.36 94.10 C 124.33 95.50 123.26 96.86 122.18 98.22 C 121.64 97.15 121.13 96.07 120.66 94.97 C 122.04 92.46 123.11 93.90 125.36 94.10 Z"/>
  <path id="path1195" fill="#ffffff" d="M 83.23 97.58 C 82.50 98.44 81.76 99.31 81.02 100.17 C 79.31 100.34 77.52 99.70 76.45 101.40 C 73.80 104.64 77.97 109.04 81.11 109.87 C 84.26 110.54 85.33 108.10 87.17 106.17 C 86.35 105.46 85.54 104.75 84.72 104.05 C 83.91 104.77 83.11 105.49 82.30 106.21 C 81.73 105.62 81.16 105.02 80.60 104.43 C 81.98 102.83 83.35 101.23 84.73 99.63 C 86.79 101.35 88.84 103.08 90.89 104.81 C 88.93 107.96 86.78 111.87 83.00 113.09 C 79.12 114.24 74.91 111.11 73.30 107.73 C 70.73 101.92 76.90 94.15 83.23 97.58 Z"/>
  <path id="path1197" fill="#1566ac" d="M 116.21 98.70 C 118.27 99.53 120.06 100.79 121.74 102.24 C 123.17 103.63 124.74 104.36 124.27 106.71 C 121.53 104.89 119.07 101.89 115.93 100.87 L 114.67 102.57 C 114.23 101.97 113.79 101.37 113.35 100.77 C 114.30 100.07 115.25 99.38 116.21 98.70 Z"/>
  <path id="path1199" fill="#1566ac" d="M 108.63 99.39 C 112.63 101.86 116.24 105.17 119.65 108.40 C 120.90 109.51 120.49 109.64 120.25 111.21 C 117.01 108.64 113.88 105.93 110.67 103.33 C 109.37 101.94 107.60 101.61 108.63 99.39 Z"/>
  <path id="path1201" fill="#1566ac" d="M 111.54 107.46 C 113.62 109.10 117.50 111.17 117.96 113.94 C 114.92 113.57 112.31 110.09 109.86 108.39 C 109.01 109.24 108.16 110.10 107.31 110.96 C 109.87 113.42 112.49 115.71 114.84 118.32 C 111.00 118.40 107.86 113.84 104.80 111.83 C 105.30 111.33 105.78 110.82 106.25 110.29 C 107.61 108.60 108.97 105.21 111.54 107.46 Z"/>
  <path id="path1203" fill="#ffffff" d="M 72.18 109.95 C 71.53 110.83 70.87 111.69 70.21 112.56 C 67.44 112.26 64.45 113.65 66.31 116.74 C 69.44 117.58 72.24 112.73 75.57 113.44 C 77.95 114.03 79.16 116.51 78.72 118.83 C 78.12 121.60 75.79 124.39 73.07 125.28 C 71.52 125.32 69.96 124.64 68.49 124.16 C 69.18 123.30 69.87 122.44 70.56 121.58 C 71.65 121.69 72.75 121.75 73.84 121.77 C 75.33 121.10 76.46 119.08 75.54 117.53 C 73.88 116.15 73.00 117.76 71.45 118.45 C 69.20 119.74 66.85 121.70 64.39 119.56 C 61.16 116.77 63.39 112.26 66.28 110.23 C 68.21 108.76 70.04 109.64 72.18 109.95 Z"/>
  <path id="path1205" fill="#1566ac" d="M 103.00 114.72 C 104.79 115.11 106.50 116.33 108.08 117.25 C 106.69 118.96 105.29 120.66 103.91 122.37 C 104.98 122.88 106.07 123.32 107.19 123.69 C 108.56 122.00 108.46 120.00 108.99 117.91 C 109.53 118.92 110.01 119.95 110.42 121.01 C 110.51 122.96 108.76 124.71 107.08 125.45 C 103.97 125.41 100.98 122.63 99.50 120.06 C 99.03 117.51 100.83 115.67 103.00 114.72 Z"/>
  <path id="path1207" fill="#ffffff" d="M 102.65 116.39 C 103.66 116.90 104.67 117.41 105.67 117.93 C 104.72 119.08 103.76 120.23 102.80 121.38 C 102.16 120.57 101.61 119.72 101.13 118.83 C 101.46 117.96 101.97 117.15 102.65 116.39 Z"/>
  <path id="path1209" fill="#ffffff" d="M 59.97 117.87 C 60.71 118.31 61.44 118.76 62.16 119.21 C 61.16 120.47 60.15 121.72 59.14 122.97 C 62.43 125.71 65.71 128.47 69.01 131.21 C 68.29 132.11 67.58 133.01 66.86 133.90 C 63.52 131.16 60.21 128.38 56.90 125.61 C 55.92 126.75 54.94 127.90 53.96 129.04 C 53.26 128.57 52.55 128.09 51.84 127.62 C 54.43 124.30 57.08 120.93 59.97 117.87 Z"/>
  <path id="path1211" fill="#1566ac" d="M 94.48 117.27 C 94.63 119.08 93.49 120.78 95.57 121.75 L 98.42 120.76 L 97.53 123.31 C 99.97 125.73 102.82 127.50 104.81 130.38 C 101.30 130.09 98.58 126.60 95.89 124.54 C 95.02 125.59 94.17 126.65 93.30 127.70 C 95.88 129.87 98.50 131.99 100.96 134.31 L 98.98 134.66 C 96.60 133.34 94.61 131.19 92.54 129.43 C 91.67 129.71 90.79 129.99 89.92 130.27 C 90.17 129.61 90.42 128.95 90.68 128.29 C 89.91 127.40 89.09 126.52 88.48 125.51 C 87.96 124.07 89.57 122.74 90.42 121.78 C 90.44 123.96 90.53 125.21 91.88 127.05 C 92.81 126.01 93.75 124.96 94.67 123.91 C 93.82 122.92 92.90 121.92 92.19 120.82 C 92.19 119.09 93.23 118.26 94.48 117.27 Z"/>
  <path id="path1213" fill="#1566ac" d="M 87.41 132.47 C 89.74 130.48 93.65 134.11 95.12 135.91 C 97.85 138.52 94.08 143.70 90.80 142.30 C 88.64 141.38 86.55 139.69 85.36 137.64 C 84.54 135.54 85.67 133.64 87.41 132.47 Z"/>
  <path id="path1215" fill="#ffffff" d="M 88.88 133.37 C 90.88 134.77 96.71 138.06 93.05 140.65 C 90.20 140.68 88.04 137.95 86.38 135.96 C 87.15 135.03 87.99 134.16 88.88 133.37 Z"/>
  <path id="path1217" fill="#1566ac" d="M 78.71 135.54 C 82.83 139.05 87.12 142.41 91.07 146.11 C 88.37 147.90 86.00 144.01 83.92 142.67 C 82.77 144.01 81.63 145.35 80.49 146.69 C 82.29 148.21 84.09 149.73 85.90 151.24 C 85.49 151.78 85.08 152.32 84.67 152.87 C 80.58 149.60 76.62 146.18 72.60 142.84 L 73.93 141.21 C 75.65 142.65 77.38 144.09 79.10 145.52 C 80.22 144.14 81.34 142.75 82.46 141.37 C 80.75 139.96 79.04 138.55 77.33 137.15 L 78.71 135.54 Z"/>
</svg>