<?xml version="1.0" encoding="UTF-8" standalone="no"?>
<!DOCTYPE svg PUBLIC "-//W3C//DTD SVG 1.1//EN" "http://www.w3.org/Graphics/SVG/1.1/DTD/svg11.dtd">
<svg xmlns="http://www.w3.org/2000/svg" version="1.1" viewBox="0 0 200 200" width="200.0pt" height="200.0pt">
<path d="M 0.00 0.00 L 94.49 0.00 C 87.84 1.02 80.93 1.78 74.47 3.55 C 57.53 8.05 41.83 17.03 29.49 29.49 C 16.07 42.77 6.65 60.05 2.58 78.48 C 1.51 83.71 0.83 89.03 0.00 94.31 L 0.00 0.00 Z" fill="#ffffff"/>
<path d="M 94.49 0.00 L 106.88 0.00 L 109.28 0.44 C 121.77 2.05 133.88 5.06 145.12 10.85 C 165.41 20.99 181.86 38.14 191.21 58.80 C 196.22 69.53 198.74 80.98 200.00 92.71 L 200.00 107.90 C 198.59 120.96 195.46 133.66 189.36 145.36 C 179.32 165.37 162.35 181.68 142.00 191.00 C 131.19 196.14 119.64 198.69 107.80 200.00 L 92.57 200.00 C 79.63 198.62 67.05 195.56 55.43 189.59 C 35.58 179.72 19.33 163.16 9.87 143.12 C 4.82 132.67 2.04 121.52 0.58 110.04 C 0.39 108.95 0.20 107.87 0.00 106.78 L 0.00 94.31 C 0.83 89.03 1.51 83.71 2.58 78.48 C 6.65 60.05 16.07 42.77 29.49 29.49 C 41.83 17.03 57.53 8.05 74.47 3.55 C 80.93 1.78 87.84 1.02 94.49 0.00 Z" fill="#66442b"/>
<path d="M 106.88 0.00 L 200.00 0.00 L 200.00 92.71 C 198.74 80.98 196.22 69.53 191.21 58.80 C 181.86 38.14 165.41 20.99 145.12 10.85 C 133.88 5.06 121.77 2.05 109.28 0.44 L 106.88 0.00 Z" fill="#ffffff"/>
<path d="M 85.51 5.77 C 104.08 2.87 123.45 5.58 140.47 13.55 C 165.97 25.30 185.52 48.60 192.57 75.78 C 198.35 97.75 196.10 121.66 186.06 142.06 C 174.12 166.69 151.30 185.56 124.81 192.50 C 102.45 198.46 78.06 196.05 57.40 185.61 C 31.99 172.99 12.96 148.75 6.93 121.00 C 2.23 100.03 4.82 77.59 14.29 58.30 C 27.71 30.48 54.95 10.33 85.51 5.77 Z" fill="#ffffff"/>
<path d="M 104.89 10.72 C 109.05 11.25 114.14 11.09 117.92 13.05 C 122.14 15.24 122.33 21.27 119.84 24.80 C 117.66 27.62 113.72 27.18 110.55 27.48 C 110.37 29.94 110.17 32.38 109.96 34.83 C 107.58 34.65 105.21 34.45 102.83 34.25 C 103.55 26.41 104.25 18.57 104.89 10.72 Z" fill="#66442b"/>
<path d="M 69.96 15.68 C 70.79 17.46 71.62 19.25 72.46 21.03 C 71.25 21.61 70.04 22.18 68.82 22.76 C 71.38 28.07 73.80 33.45 76.32 38.78 C 74.16 39.78 72.00 40.79 69.85 41.80 C 67.32 36.43 64.89 31.02 62.27 25.69 C 61.16 26.27 60.05 26.85 58.93 27.44 C 58.09 25.62 57.25 23.81 56.41 22.00 C 60.94 19.93 65.45 17.81 69.96 15.68 Z" fill="#66442b"/>
<path d="M 111.72 16.05 C 112.62 16.80 114.29 17.71 114.33 19.00 C 114.56 20.82 112.31 21.60 111.18 22.59 C 111.26 20.40 111.39 18.22 111.72 16.05 Z" fill="#ffffff"/>
<path d="M 136.34 18.50 C 138.99 19.39 141.47 20.88 143.97 22.12 C 142.15 30.01 140.24 37.88 138.36 45.76 C 136.30 44.68 134.06 43.70 132.21 42.29 L 132.33 39.39 C 131.13 38.72 129.93 38.04 128.73 37.37 C 128.06 38.22 127.39 39.06 126.71 39.91 C 124.54 38.81 122.37 37.72 120.20 36.62 C 125.58 30.62 130.67 24.22 136.34 18.50 Z" fill="#66442b"/>
<path d="M 137.05 26.07 C 136.13 28.94 135.14 31.79 134.18 34.65 C 133.38 34.18 132.60 33.69 131.80 33.21 C 133.55 30.83 135.28 28.43 137.05 26.07 Z" fill="#ffffff"/>
<path d="M 48.18 27.27 C 49.57 28.75 50.95 30.23 52.34 31.71 C 51.15 32.65 46.23 34.24 47.94 36.22 C 50.67 36.58 53.58 36.12 56.25 36.73 C 60.18 38.46 61.91 43.23 60.09 47.11 C 58.72 50.14 55.84 51.41 53.17 53.06 C 51.86 51.45 50.55 49.85 49.22 48.26 C 51.18 47.37 53.06 46.58 54.53 44.95 C 54.00 43.75 53.17 43.23 52.03 43.39 C 49.83 43.22 47.31 43.53 45.22 42.76 C 41.55 41.10 40.15 36.27 41.69 32.69 C 42.98 30.04 45.79 28.74 48.18 27.27 Z" fill="#66442b"/>
<path d="M 82.17 30.06 C 84.60 28.38 88.67 29.72 88.44 33.00 C 88.27 36.29 83.73 37.95 81.48 35.54 C 79.79 33.90 80.37 31.34 82.17 30.06 Z" fill="#66442b"/>
<path d="M 159.58 32.79 C 161.28 34.45 162.87 36.19 164.49 37.93 C 160.48 41.77 156.12 45.34 152.39 49.45 C 150.89 50.42 153.49 52.78 154.52 51.54 C 158.85 48.16 162.65 44.07 166.74 40.39 C 168.35 42.14 169.97 43.89 171.58 45.64 C 166.99 49.63 162.89 54.49 157.87 57.92 C 152.65 61.03 146.67 55.76 145.33 50.83 C 144.61 47.38 146.44 45.02 148.76 42.77 C 152.37 39.45 155.89 36.03 159.58 32.79 Z" fill="#66442b"/>
<path d="M 91.50 41.74 C 105.47 39.76 119.85 42.63 131.76 50.23 C 143.26 57.51 152.08 68.79 156.30 81.73 C 160.93 95.75 160.07 111.45 153.86 124.85 C 148.25 137.12 138.34 147.30 126.21 153.22 C 114.16 159.17 100.10 160.76 87.01 157.77 C 74.52 154.96 63.06 147.92 54.88 138.08 C 45.99 127.56 40.97 113.78 41.16 100.00 C 41.04 84.80 47.25 69.74 57.91 58.92 C 66.83 49.71 78.82 43.58 91.50 41.74 Z" fill="#ed1c24"/>
<path d="M 99.02 45.86 L 101.38 44.75 C 101.47 47.52 101.50 50.29 101.51 53.06 C 103.43 53.08 105.34 53.10 107.26 53.12 L 107.28 55.69 C 105.35 55.67 103.41 55.65 101.48 55.63 C 101.48 58.48 101.48 61.34 101.48 64.19 C 103.32 64.96 105.55 65.61 107.07 66.93 C 108.60 68.43 109.38 70.86 110.25 72.80 C 103.56 72.99 96.85 72.97 90.16 72.82 C 90.96 70.92 91.68 68.62 93.10 67.10 C 94.61 65.68 96.96 64.97 98.84 64.17 C 98.83 61.33 98.83 58.49 98.84 55.65 C 96.91 55.65 94.98 55.66 93.05 55.66 C 93.07 54.82 93.10 53.97 93.13 53.13 C 95.00 53.11 96.87 53.10 98.75 53.08 C 98.78 50.69 98.72 48.24 99.02 45.86 Z" fill="#ffffff"/>
<path d="M 22.46 55.66 C 24.45 56.54 26.41 57.50 28.38 58.42 C 27.10 60.30 25.07 61.49 25.69 64.04 C 27.01 67.19 31.48 69.53 34.80 68.73 C 37.31 68.03 37.19 64.96 37.80 62.93 C 39.64 64.09 41.49 65.22 43.34 66.35 C 42.03 70.93 40.05 74.80 35.02 75.91 C 28.26 77.26 18.81 71.56 19.24 64.00 C 19.20 60.77 20.68 58.23 22.46 55.66 Z" fill="#66442b"/>
<path d="M 75.22 58.15 C 75.92 59.38 76.63 60.61 77.33 61.84 C 78.77 61.86 80.21 61.87 81.65 61.89 C 80.93 63.18 80.20 64.48 79.47 65.77 C 80.24 66.95 81.01 68.13 81.78 69.31 C 80.32 69.32 78.86 69.34 77.41 69.35 C 76.67 70.58 75.93 71.81 75.19 73.03 C 74.45 71.78 73.72 70.53 72.98 69.28 C 71.52 69.31 70.07 69.34 68.61 69.37 C 69.37 68.14 70.13 66.92 70.89 65.69 C 70.19 64.43 69.48 63.18 68.78 61.92 C 70.16 61.86 71.55 61.79 72.93 61.69 C 73.73 60.54 74.46 59.33 75.22 58.15 Z" fill="#ffffff"/>
<path d="M 125.16 58.14 C 125.87 59.38 126.58 60.61 127.29 61.85 C 128.73 61.86 130.17 61.87 131.61 61.88 C 130.89 63.17 130.16 64.46 129.43 65.74 C 130.19 66.93 130.94 68.12 131.70 69.31 C 130.25 69.32 128.80 69.34 127.36 69.35 C 126.62 70.58 125.87 71.81 125.13 73.04 C 124.41 71.80 123.69 70.56 122.97 69.31 C 121.50 69.33 120.03 69.34 118.56 69.35 C 119.32 68.13 120.08 66.91 120.84 65.69 C 120.13 64.43 119.41 63.17 118.69 61.92 C 120.09 61.86 121.48 61.79 122.88 61.69 C 123.67 60.53 124.41 59.33 125.16 58.14 Z" fill="#ffffff"/>
<path d="M 179.46 58.96 C 180.42 61.12 181.38 63.28 182.35 65.44 C 176.91 67.91 171.44 70.29 166.00 72.77 C 166.71 74.35 167.41 75.92 168.11 77.51 C 166.39 78.29 164.66 79.07 162.94 79.85 C 161.26 76.07 159.57 72.29 157.93 68.50 C 165.11 65.32 172.25 62.06 179.46 58.96 Z" fill="#66442b"/>
<path d="M 64.62 75.60 C 71.76 75.17 78.97 75.58 86.13 75.43 C 86.15 76.76 86.17 78.08 86.20 79.41 C 78.79 79.39 71.37 79.50 63.96 79.33 C 64.14 78.08 64.36 76.83 64.62 75.60 Z" fill="#ffffff"/>
<path d="M 89.45 75.58 C 96.65 75.20 103.91 75.57 111.13 75.43 C 111.15 76.76 111.16 78.09 111.18 79.41 C 103.76 79.40 96.34 79.46 88.93 79.38 C 89.06 78.10 89.24 76.84 89.45 75.58 Z" fill="#ffffff"/>
<path d="M 114.48 75.59 C 121.65 75.19 128.88 75.56 136.07 75.45 C 136.09 76.77 136.11 78.08 136.14 79.40 C 128.74 79.41 121.34 79.46 113.94 79.37 C 114.08 78.10 114.26 76.84 114.48 75.59 Z" fill="#ffffff"/>
<path d="M 13.30 77.92 C 15.17 78.23 17.03 78.52 18.90 78.82 C 18.59 80.58 18.29 82.35 17.98 84.11 C 19.06 84.29 20.13 84.47 21.21 84.65 C 21.46 83.01 21.71 81.37 21.96 79.73 C 23.85 80.07 25.74 80.41 27.64 80.74 C 27.34 82.38 27.04 84.03 26.74 85.67 C 29.67 86.17 32.61 86.66 35.55 87.12 C 35.15 89.50 34.74 91.87 34.33 94.25 C 26.60 92.84 18.87 91.51 11.14 90.14 C 11.85 86.07 12.57 81.99 13.30 77.92 Z" fill="#66442b"/>
<path d="M 102.51 81.68 C 104.29 81.37 106.31 81.97 108.06 82.28 C 107.76 83.28 107.42 84.27 107.05 85.24 C 105.03 85.68 102.86 85.59 100.80 85.66 C 101.26 84.42 101.04 82.12 102.51 81.68 Z" fill="#ffffff"/>
<path d="M 66.10 82.58 C 69.21 81.57 72.21 80.54 75.06 82.83 C 74.29 87.37 66.20 87.61 66.10 82.58 Z" fill="#ffffff"/>
<path d="M 77.84 81.94 C 79.70 81.94 81.60 82.18 83.45 82.38 C 82.81 83.77 82.12 85.13 81.36 86.47 C 82.13 86.91 82.90 87.35 83.67 87.78 C 83.13 89.52 82.52 91.23 81.89 92.93 L 80.85 90.17 C 79.93 91.01 79.02 91.84 78.10 92.68 C 75.21 92.51 72.76 92.76 70.41 90.71 C 69.51 91.48 68.62 92.24 67.73 93.01 C 66.96 90.65 66.57 89.89 68.13 87.71 L 69.99 89.81 C 70.61 89.13 71.26 88.46 71.92 87.82 C 75.19 87.09 76.76 87.14 79.88 88.71 C 80.31 87.99 80.72 87.26 81.12 86.53 C 79.56 86.14 78.01 85.72 76.46 85.26 C 76.79 84.02 76.45 82.52 77.84 81.94 Z" fill="#ffffff"/>
<path d="M 100.02 82.83 C 97.75 86.51 92.70 86.80 90.48 82.91 C 92.95 80.29 97.15 81.78 100.02 82.83 Z" fill="#ffffff"/>
<path d="M 123.19 81.57 C 124.25 82.50 123.71 84.68 123.99 85.99 C 120.89 86.00 117.28 87.47 115.63 83.91 C 116.99 81.72 120.92 81.91 123.19 81.57 Z" fill="#ffffff"/>
<path d="M 126.61 82.34 C 128.80 82.58 132.60 81.23 133.59 83.89 C 132.84 86.25 131.56 87.44 128.99 87.08 C 126.67 87.02 127.24 83.97 126.61 82.34 Z" fill="#ffffff"/>
<path d="M 188.07 83.97 C 188.36 86.31 188.65 88.65 188.92 91.00 C 181.17 92.02 173.43 93.11 165.70 94.25 C 165.35 91.89 165.00 89.53 164.64 87.17 C 172.45 86.12 180.24 84.90 188.07 83.97 Z" fill="#66442b"/>
<path d="M 108.55 86.96 C 108.19 88.68 108.75 92.23 106.65 92.94 L 105.39 89.97 C 103.26 91.29 101.64 92.81 98.94 92.51 C 96.40 92.80 95.37 90.30 96.28 88.23 C 99.05 86.82 101.87 87.52 104.40 89.09 C 104.80 89.18 105.21 89.26 105.61 89.34 C 106.58 88.52 107.55 87.73 108.55 86.96 Z" fill="#ffffff"/>
<path d="M 92.87 86.81 C 94.29 88.58 95.31 92.04 92.24 92.64 C 91.47 90.34 91.81 88.95 92.87 86.81 Z" fill="#ffffff"/>
<path d="M 117.95 87.22 L 119.22 89.98 C 120.18 89.23 121.16 88.50 122.13 87.78 C 124.81 87.86 127.02 87.38 128.68 89.97 C 127.06 92.78 125.18 92.18 122.36 92.22 C 121.42 91.57 120.48 90.92 119.58 90.21 C 118.52 91.16 117.55 92.17 116.66 93.26 C 116.60 90.92 116.65 89.24 117.95 87.22 Z" fill="#ffffff"/>
<path d="M 129.70 87.94 C 130.97 88.09 132.24 88.26 133.50 88.45 C 133.33 89.59 133.11 90.73 132.89 91.86 C 132.03 91.74 131.18 91.61 130.32 91.47 C 130.10 90.29 129.89 89.12 129.70 87.94 Z" fill="#ffffff"/>
<path d="M 134.16 94.89 C 132.75 95.91 131.18 98.32 129.18 97.71 C 127.52 97.43 127.10 96.28 126.48 94.88 C 129.13 92.76 131.37 93.78 134.16 94.89 Z" fill="#ffffff"/>
<path d="M 73.85 94.42 C 73.79 95.54 73.73 96.66 73.66 97.79 C 71.27 97.44 67.15 99.03 66.54 95.78 C 68.54 94.32 71.45 94.65 73.85 94.42 Z" fill="#ffffff"/>
<path d="M 99.78 94.89 C 98.89 95.88 98.31 97.16 96.86 97.24 C 94.12 97.30 91.76 97.98 90.53 94.92 C 93.61 94.45 96.69 94.54 99.78 94.89 Z" fill="#ffffff"/>
<path d="M 107.30 94.60 C 107.42 95.80 107.40 96.99 107.41 98.19 C 105.23 97.91 103.14 97.75 101.05 96.98 C 101.25 93.82 105.06 94.02 107.30 94.60 Z" fill="#ffffff"/>
<path d="M 117.24 94.38 C 119.77 94.17 122.36 94.51 124.79 95.21 C 123.44 98.92 119.95 97.95 116.76 98.65 C 116.78 97.13 116.46 95.75 117.24 94.38 Z" fill="#ffffff"/>
<path d="M 83.65 96.02 C 80.81 98.37 78.52 98.79 75.53 96.40 C 78.35 94.11 80.54 95.30 83.65 96.02 Z" fill="#ffffff"/>
<path d="M 64.33 99.81 C 88.26 99.80 112.19 99.83 136.12 99.81 C 136.11 101.10 136.10 102.39 136.09 103.68 C 112.16 103.73 88.24 103.71 64.31 103.70 C 64.32 102.40 64.32 101.11 64.33 99.81 Z" fill="#ffffff"/>
<path d="M 69.12 105.17 C 71.32 105.09 73.59 105.66 75.77 105.97 C 75.67 106.90 75.57 107.83 75.46 108.76 C 72.26 109.10 69.15 109.26 66.02 108.30 C 66.89 107.40 67.74 105.36 69.12 105.17 Z" fill="#ffffff"/>
<path d="M 110.15 105.29 C 114.01 104.57 118.21 105.28 122.05 105.84 C 123.27 105.96 124.20 106.75 124.83 108.22 C 120.43 109.21 115.66 109.07 111.19 108.64 C 109.62 108.57 109.63 106.39 110.15 105.29 Z" fill="#ffffff"/>
<path d="M 127.49 105.65 C 129.56 105.44 131.57 105.66 133.62 105.87 C 133.41 106.83 133.20 107.80 132.97 108.77 C 130.80 108.79 128.63 108.80 126.45 108.77 C 126.76 107.71 127.11 106.67 127.49 105.65 Z" fill="#ffffff"/>
<path d="M 77.88 105.70 C 81.82 105.75 86.04 105.25 89.89 106.06 C 89.62 107.30 89.43 108.56 87.90 108.65 C 84.98 108.98 81.99 108.87 79.06 108.67 C 78.65 107.69 78.26 106.70 77.88 105.70 Z" fill="#ffffff"/>
<path d="M 0.00 106.78 C 0.20 107.87 0.39 108.95 0.58 110.04 C 2.04 121.52 4.82 132.67 9.87 143.12 C 19.33 163.16 35.58 179.72 55.43 189.59 C 67.05 195.56 79.63 198.62 92.57 200.00 L 0.00 200.00 L 0.00 106.78 Z" fill="#ffffff"/>
<path d="M 110.25 111.75 C 112.68 114.29 113.54 117.54 113.51 120.99 C 113.54 130.45 113.45 139.91 113.53 149.37 C 112.49 149.91 111.45 150.44 110.40 150.98 C 110.27 141.32 110.38 131.65 110.36 121.99 C 110.33 119.32 110.06 116.82 108.36 114.65 C 104.83 110.05 97.63 109.42 93.32 113.28 C 90.98 115.27 90.07 117.95 90.10 120.97 C 89.97 130.94 90.29 140.93 89.94 150.90 C 88.89 150.38 87.84 149.85 86.78 149.32 C 86.88 139.88 86.77 130.43 86.81 120.99 C 86.81 117.39 87.80 113.99 90.41 111.41 C 95.69 106.03 105.17 106.18 110.25 111.75 Z" fill="#ffffff"/>
<path d="M 200.00 107.90 L 200.00 200.00 L 107.80 200.00 C 119.64 198.69 131.19 196.14 142.00 191.00 C 162.35 181.68 179.32 165.37 189.36 145.36 C 195.46 133.66 198.59 120.96 200.00 107.90 Z" fill="#ffffff"/>
<path d="M 66.13 111.22 C 67.28 111.21 68.42 111.26 69.56 111.37 C 70.37 113.48 69.87 114.94 68.05 115.76 C 70.72 116.49 73.34 116.91 75.70 118.46 C 72.13 119.29 69.02 119.52 65.38 119.13 C 66.39 118.36 67.40 117.60 68.41 116.84 C 67.41 115.05 66.55 113.24 66.13 111.22 Z" fill="#ffffff"/>
<path d="M 79.66 111.28 C 81.08 114.12 77.18 115.55 74.97 115.26 C 72.38 115.20 72.03 113.80 70.92 111.81 C 73.57 111.19 77.14 109.68 79.66 111.28 Z" fill="#ffffff"/>
<path d="M 87.07 111.15 C 85.93 112.61 85.60 114.52 83.43 114.56 C 82.89 113.62 82.48 112.62 82.06 111.62 C 83.72 111.40 85.40 111.25 87.07 111.15 Z" fill="#ffffff"/>
<path d="M 117.11 111.00 C 118.23 111.28 119.35 111.58 120.47 111.90 C 119.64 113.24 118.78 114.56 117.90 115.86 C 116.49 114.64 115.13 113.38 113.81 112.06 C 114.90 111.69 116.00 111.33 117.11 111.00 Z" fill="#ffffff"/>
<path d="M 121.40 111.13 C 123.96 111.12 126.52 111.19 129.07 111.37 C 128.71 112.48 128.36 113.66 127.85 114.72 C 126.13 115.31 124.27 115.64 122.49 115.98 C 122.14 114.36 121.78 112.74 121.40 111.13 Z" fill="#ffffff"/>
<path d="M 131.59 111.59 C 133.15 109.82 135.15 113.18 133.78 114.86 C 132.93 114.91 132.06 114.90 131.19 114.84 C 130.64 113.50 130.78 112.42 131.59 111.59 Z" fill="#ffffff"/>
<path d="M 98.83 112.93 C 99.40 126.41 98.96 139.96 99.08 153.46 C 96.99 153.12 94.78 152.85 92.76 152.18 C 92.14 146.86 92.64 141.37 92.50 136.00 C 92.66 130.28 92.12 124.43 92.76 118.75 C 93.41 115.24 95.97 114.31 98.83 112.93 Z" fill="#ffffff"/>
<path d="M 101.53 112.80 C 103.19 113.78 105.59 114.68 106.67 116.38 C 107.94 118.26 107.78 120.82 107.85 122.99 C 107.79 132.76 107.83 142.52 107.81 152.28 C 105.67 152.71 103.52 153.07 101.36 153.41 C 101.43 139.88 101.13 126.32 101.53 112.80 Z" fill="#ffffff"/>
<path d="M 83.54 115.75 C 83.16 116.70 82.75 117.64 82.30 118.56 C 80.84 119.61 78.37 118.83 76.69 118.77 C 76.96 117.96 77.26 117.16 77.60 116.38 C 79.44 115.75 81.62 115.85 83.54 115.75 Z" fill="#ffffff"/>
<path d="M 118.04 116.88 C 120.88 116.20 123.01 116.71 125.61 117.94 C 122.78 118.80 120.28 119.73 117.39 118.49 C 117.57 117.93 117.79 117.40 118.04 116.88 Z" fill="#ffffff"/>
<path d="M 126.14 117.26 C 128.50 116.75 130.85 116.65 133.25 116.49 C 133.38 117.38 133.51 118.27 133.63 119.15 C 130.69 119.42 127.33 121.12 126.14 117.26 Z" fill="#ffffff"/>
<path d="M 64.35 120.90 C 70.75 120.94 77.16 120.87 83.56 120.90 C 83.57 122.19 83.58 123.48 83.59 124.78 C 77.16 124.78 70.74 124.76 64.31 124.79 C 64.32 123.49 64.34 122.20 64.35 120.90 Z" fill="#ffffff"/>
<path d="M 116.86 120.87 C 123.27 120.90 129.67 120.90 136.07 120.90 C 136.09 122.19 136.11 123.48 136.13 124.77 C 129.66 124.79 123.19 124.80 116.71 124.78 C 116.76 123.48 116.81 122.17 116.86 120.87 Z" fill="#ffffff"/>
<path d="M 67.24 126.33 C 69.28 126.04 71.39 126.00 73.43 126.30 C 73.74 127.45 74.00 128.60 74.23 129.76 C 72.14 129.78 69.60 130.23 67.63 129.44 C 66.66 128.52 66.53 127.48 67.24 126.33 Z" fill="#ffffff"/>
<path d="M 76.70 126.38 C 78.48 126.06 80.37 126.13 82.18 126.11 C 81.95 127.26 81.68 128.40 81.37 129.53 C 79.54 130.32 77.76 129.18 76.03 128.62 C 76.23 127.86 76.45 127.11 76.70 126.38 Z" fill="#ffffff"/>
<path d="M 116.44 126.53 C 119.30 126.47 121.94 126.14 124.64 127.29 C 125.03 130.88 120.68 129.97 118.47 129.59 C 117.70 128.62 117.09 127.58 116.44 126.53 Z" fill="#ffffff"/>
<path d="M 132.73 126.52 C 132.99 127.62 133.17 128.74 133.39 129.85 C 131.50 129.77 129.45 129.94 127.62 129.45 C 127.06 128.72 126.54 127.96 126.07 127.16 C 128.31 126.25 130.34 125.94 132.73 126.52 Z" fill="#ffffff"/>
<path d="M 168.47 129.16 C 169.19 130.34 169.88 131.54 170.57 132.73 C 172.03 132.76 173.49 132.79 174.95 132.82 C 174.22 134.09 173.49 135.36 172.76 136.62 C 173.51 137.85 174.25 139.08 174.99 140.31 C 173.53 140.33 172.06 140.35 170.59 140.37 C 169.88 141.58 169.17 142.78 168.45 143.98 C 167.74 142.78 167.02 141.58 166.31 140.37 C 164.84 140.35 163.37 140.33 161.89 140.31 C 162.62 138.98 163.34 137.65 164.06 136.32 C 163.32 135.18 162.59 134.05 161.86 132.91 C 163.29 132.81 164.72 132.68 166.15 132.52 C 166.94 131.41 167.68 130.27 168.47 129.16 Z" fill="#66442b"/>
<path d="M 31.99 129.03 C 32.69 130.28 33.39 131.54 34.09 132.79 C 35.54 132.79 37.00 132.79 38.45 132.78 C 37.72 134.09 37.00 135.40 36.27 136.72 C 37.04 137.91 37.80 139.11 38.57 140.31 C 37.10 140.32 35.62 140.34 34.15 140.35 C 33.42 141.59 32.69 142.84 31.95 144.08 C 31.23 142.84 30.50 141.60 29.77 140.36 C 28.27 140.34 26.76 140.32 25.26 140.30 C 26.03 139.11 26.81 137.91 27.59 136.72 C 26.87 135.43 26.15 134.14 25.43 132.86 C 26.83 132.79 28.23 132.70 29.63 132.59 C 30.45 131.43 31.21 130.23 31.99 129.03 Z" fill="#66442b"/>
<path d="M 69.92 133.10 C 71.09 135.60 68.02 135.63 66.41 135.94 C 66.32 134.62 66.28 133.30 66.29 131.99 C 68.26 131.36 68.87 130.89 69.92 133.10 Z" fill="#ffffff"/>
<path d="M 117.89 130.74 C 118.65 131.66 119.40 132.58 120.15 133.51 C 121.65 132.70 123.30 131.34 125.02 131.25 C 127.05 131.06 128.05 132.20 129.47 133.45 C 130.49 132.59 131.51 131.71 132.53 130.84 C 133.00 132.15 133.49 133.45 133.95 134.76 C 131.28 134.85 128.66 134.89 126.00 135.23 C 122.97 135.05 120.21 134.93 117.20 135.28 C 116.23 134.15 117.69 131.99 117.89 130.74 Z" fill="#ffffff"/>
<path d="M 72.74 131.61 C 75.76 131.61 80.06 130.87 82.61 132.79 C 82.38 133.73 82.12 134.65 81.81 135.56 C 78.59 136.59 75.31 136.41 72.06 135.67 C 72.23 134.31 72.45 132.95 72.74 131.61 Z" fill="#ffffff"/>
<path d="M 82.10 138.10 C 82.69 139.42 82.54 140.57 81.67 141.53 C 79.88 141.74 78.03 141.68 76.22 141.69 C 76.30 140.43 76.39 139.18 76.49 137.93 C 78.34 137.66 80.72 136.25 82.10 138.10 Z" fill="#ffffff"/>
<path d="M 123.38 137.78 C 123.99 138.97 124.17 140.38 124.52 141.66 C 122.25 141.64 119.88 141.75 117.64 141.38 C 117.33 140.32 117.09 139.23 116.90 138.13 C 119.06 137.76 121.20 137.56 123.38 137.78 Z" fill="#ffffff"/>
<path d="M 127.25 137.82 C 129.25 137.62 131.33 137.70 133.34 137.78 C 132.35 139.07 131.89 141.85 129.87 141.64 C 128.37 141.80 127.32 141.63 126.00 140.92 C 126.30 139.80 126.55 138.76 127.25 137.82 Z" fill="#ffffff"/>
<path d="M 66.66 137.70 C 69.24 137.80 72.25 137.36 74.68 138.33 C 74.71 139.61 74.51 140.50 73.58 141.43 C 71.56 141.77 69.44 141.67 67.39 141.60 C 67.13 140.31 66.89 139.01 66.66 137.70 Z" fill="#ffffff"/>
<path d="M 77.85 146.40 C 76.20 146.51 74.40 146.59 72.79 146.14 C 72.03 145.46 71.54 144.42 71.04 143.54 C 73.29 143.23 78.66 142.64 77.85 146.40 Z" fill="#ffffff"/>
<path d="M 80.42 142.80 C 81.23 143.25 82.04 143.72 82.83 144.20 C 82.61 146.83 82.29 147.26 80.14 148.69 C 80.15 146.72 80.19 144.76 80.42 142.80 Z" fill="#ffffff"/>
<path d="M 117.60 143.56 C 117.91 141.74 119.98 144.20 120.01 145.02 C 120.55 146.89 119.68 147.96 117.95 148.56 C 116.66 146.85 116.35 145.42 117.60 143.56 Z" fill="#ffffff"/>
<path d="M 123.46 143.53 C 124.98 142.87 126.28 143.25 127.73 143.86 C 126.80 146.38 122.70 147.98 121.25 145.18 C 121.93 144.52 122.67 143.97 123.46 143.53 Z" fill="#ffffff"/>
<path d="M 70.06 159.69 C 72.68 160.65 75.26 161.81 77.82 162.90 C 74.68 170.13 71.64 177.41 68.49 184.63 C 66.33 183.69 64.16 182.75 62.00 181.81 C 64.29 176.28 66.69 170.81 69.00 165.29 C 68.13 164.88 67.26 164.48 66.39 164.07 C 67.60 162.59 68.79 161.11 70.06 159.69 Z" fill="#66442b"/>
<path d="M 124.47 161.65 C 128.18 160.62 131.61 162.16 133.82 165.17 C 136.76 169.19 138.53 175.07 137.01 179.93 C 135.23 185.26 127.76 187.18 123.60 183.42 C 119.56 179.73 117.52 173.52 118.32 168.14 C 118.85 164.89 121.34 162.48 124.47 161.65 Z" fill="#66442b"/>
<path d="M 85.15 165.23 C 90.71 163.55 97.29 166.62 97.26 172.99 C 97.17 179.16 90.90 184.91 86.87 189.08 C 84.52 188.65 82.17 188.22 79.83 187.76 C 81.92 185.37 84.07 183.03 86.33 180.79 C 84.61 180.08 82.11 179.66 81.01 178.01 C 78.02 173.72 80.01 166.81 85.15 165.23 Z" fill="#66442b"/>
<path d="M 110.86 165.77 C 111.73 173.59 112.42 181.42 113.29 189.24 C 110.93 189.46 108.56 189.69 106.20 189.90 C 105.56 183.99 104.99 178.07 104.39 172.15 C 103.42 172.19 102.46 172.23 101.49 172.27 C 101.84 170.42 102.17 168.55 102.59 166.71 C 105.33 166.31 108.11 166.07 110.86 165.77 Z" fill="#66442b"/>
<path d="M 125.06 167.16 C 127.74 166.50 128.57 169.63 129.51 171.49 C 130.36 173.85 131.86 177.76 130.11 179.97 C 127.89 179.44 127.15 177.41 126.28 175.55 C 125.30 172.99 124.15 169.86 125.06 167.16 Z" fill="#ffffff"/>
<path d="M 87.38 170.38 C 88.48 169.68 90.93 170.60 90.76 172.14 C 90.80 173.77 90.24 176.23 88.10 175.79 C 85.17 175.87 85.29 171.38 87.38 170.38 Z" fill="#ffffff"/>
</svg>