<?xml version="1.0" encoding="UTF-8" standalone="no"?>
<!DOCTYPE svg PUBLIC "-//W3C//DTD SVG 1.1//EN" "http://www.w3.org/Graphics/SVG/1.1/DTD/svg11.dtd">
<svg xmlns="http://www.w3.org/2000/svg" version="1.1" viewBox="0 0 200 200" width="200.0pt" height="200.0pt">
<path d="M 0.00 0.00 L 87.26 0.00 C 82.63 1.50 78.01 1.75 73.22 2.73 C 58.53 5.78 44.08 9.42 30.36 15.63 C 30.10 56.41 30.36 97.22 30.23 138.00 C 30.06 149.41 33.18 162.18 41.62 170.33 C 47.31 175.60 54.83 178.85 61.84 181.93 C 71.41 186.26 80.64 191.31 90.23 195.58 C 93.50 196.95 96.74 198.36 99.88 200.00 L 0.00 200.00 L 0.00 0.00 Z" fill="#ffffff"/>
<path d="M 87.26 0.00 L 112.80 0.00 C 115.40 0.91 118.06 1.40 120.77 1.77 C 130.05 3.11 138.78 5.55 147.83 7.85 C 155.09 9.73 162.29 12.62 169.22 15.47 C 169.14 58.62 169.23 101.85 169.18 145.00 C 168.98 149.33 167.97 153.67 166.56 157.76 C 163.67 165.72 157.43 171.90 150.21 176.09 C 144.77 179.01 139.03 181.46 133.41 184.03 C 125.11 187.86 117.43 192.27 108.91 195.67 C 105.82 196.92 102.87 198.46 99.92 200.00 L 99.88 200.00 C 96.74 198.36 93.50 196.95 90.23 195.58 C 80.64 191.31 71.41 186.26 61.84 181.93 C 54.83 178.85 47.31 175.60 41.62 170.33 C 33.18 162.18 30.06 149.41 30.23 138.00 C 30.36 97.22 30.10 56.41 30.36 15.63 C 44.08 9.42 58.53 5.78 73.22 2.73 C 78.01 1.75 82.63 1.50 87.26 0.00 Z" fill="#000000"/>
<path d="M 112.80 0.00 L 200.00 0.00 L 200.00 200.00 L 99.92 200.00 C 102.87 198.46 105.82 196.92 108.91 195.67 C 117.43 192.27 125.11 187.86 133.41 184.03 C 139.03 181.46 144.77 179.01 150.21 176.09 C 157.43 171.90 163.67 165.72 166.56 157.76 C 167.97 153.67 168.98 149.33 169.18 145.00 C 169.23 101.85 169.14 58.62 169.22 15.47 C 162.29 12.62 155.09 9.73 147.83 7.85 C 138.78 5.55 130.05 3.11 120.77 1.77 C 118.06 1.40 115.40 0.91 112.80 0.00 Z" fill="#ffffff"/>
<path d="M 86.80 0.48 C 95.58 0.52 104.34 0.56 113.13 0.44 C 115.31 1.30 117.53 1.81 119.86 2.11 C 128.83 3.35 137.88 5.71 146.67 7.93 C 154.13 9.82 161.52 12.90 168.66 15.79 C 168.65 58.86 168.64 101.94 168.67 145.00 C 168.45 154.09 165.04 163.01 158.40 169.36 C 152.27 175.43 144.55 178.41 136.84 182.04 C 129.93 184.99 123.28 188.43 116.57 191.78 C 111.13 194.53 105.39 196.47 100.08 199.47 C 86.30 193.79 73.34 186.49 59.70 180.54 C 52.90 177.50 45.69 173.95 40.48 168.51 C 33.13 160.51 30.64 148.57 30.73 138.00 C 30.85 97.33 30.61 56.64 30.85 15.97 C 45.26 9.44 60.49 5.58 76.00 2.71 C 79.66 2.06 83.28 1.80 86.80 0.48 Z" fill="#ffffff"/>
<path d="M 94.11 12.31 C 104.30 10.90 114.82 15.36 120.22 24.20 C 117.20 22.36 114.66 20.31 112.05 17.95 C 109.78 15.84 107.08 15.54 104.14 15.25 C 104.54 16.31 104.97 17.35 105.39 18.39 L 102.52 17.64 C 102.41 16.75 102.30 15.85 102.19 14.96 C 101.43 14.20 100.66 13.45 99.88 12.72 C 100.17 14.40 100.89 15.73 102.06 16.72 C 99.55 17.05 97.03 17.34 94.51 17.61 C 94.34 16.34 94.19 15.06 94.08 13.79 C 94.93 13.72 95.77 13.66 96.62 13.63 L 96.06 16.35 C 96.53 15.60 97.00 14.85 97.47 14.09 C 98.01 15.02 98.55 15.95 99.09 16.88 C 98.92 15.83 98.76 14.78 98.61 13.73 C 97.09 13.31 95.58 12.88 94.11 12.31 Z" fill="#000000"/>
<path d="M 92.81 12.96 C 92.75 14.05 92.63 15.13 92.45 16.20 C 93.36 16.87 94.27 17.55 95.17 18.22 C 92.05 17.87 91.04 17.06 88.83 14.92 C 89.75 16.24 90.70 17.54 91.68 18.82 L 87.88 19.80 C 88.30 18.56 88.73 17.32 89.15 16.08 C 88.04 16.38 86.93 16.67 85.82 16.95 C 86.53 17.97 87.25 19.01 87.96 20.04 L 86.41 21.11 C 85.87 19.46 85.33 17.81 84.75 16.17 C 87.26 14.62 89.86 13.40 92.81 12.96 Z" fill="#000000"/>
<path d="M 104.14 15.25 C 107.08 15.54 109.78 15.84 112.05 17.95 C 114.66 20.31 117.20 22.36 120.22 24.20 L 120.88 25.56 C 118.55 25.67 116.97 25.05 114.94 24.01 L 113.56 23.33 C 110.98 21.36 108.47 19.52 105.39 18.39 C 104.97 17.35 104.54 16.31 104.14 15.25 Z" fill="#000000"/>
<path d="M 84.75 16.17 C 85.33 17.81 85.87 19.46 86.41 21.11 C 85.20 22.01 84.04 22.97 82.96 24.02 C 82.43 22.90 81.91 21.79 81.39 20.67 C 82.05 20.26 82.71 19.84 83.36 19.41 C 83.34 18.65 83.31 17.90 83.26 17.14 C 83.75 16.80 84.24 16.48 84.75 16.17 Z" fill="#000000"/>
<path d="M 83.26 17.14 C 83.31 17.90 83.34 18.65 83.36 19.41 C 82.71 19.84 82.05 20.26 81.39 20.67 C 81.91 21.79 82.43 22.90 82.96 24.02 C 82.10 25.18 81.31 26.40 80.53 27.60 C 79.81 27.67 79.10 27.74 78.39 27.81 L 78.56 26.25 C 77.64 26.50 76.71 26.76 75.79 27.01 C 76.88 27.69 77.97 28.35 79.07 29.02 C 78.79 29.40 78.50 29.79 78.21 30.17 C 76.81 29.75 75.71 29.45 74.23 29.71 L 77.52 30.84 C 76.60 31.50 75.67 32.17 74.75 32.84 C 74.60 33.56 74.46 34.28 74.31 34.99 C 74.86 34.75 75.42 34.51 75.97 34.26 C 76.69 33.32 77.12 32.41 78.35 32.11 C 77.71 35.73 77.31 39.03 78.44 42.60 C 80.71 53.01 91.61 60.07 102.04 58.14 C 113.59 56.14 121.76 44.08 118.62 32.59 C 120.12 31.64 121.61 30.67 123.10 29.70 C 123.47 31.49 123.85 33.27 124.29 35.04 C 125.03 44.58 121.04 53.74 113.09 59.17 C 107.48 63.30 101.01 64.12 94.21 63.61 L 94.06 61.67 C 95.24 61.28 96.41 60.90 97.57 60.46 L 94.13 60.64 L 94.35 59.44 C 92.43 59.51 90.53 59.53 88.64 59.92 C 90.04 60.15 91.46 60.35 92.88 60.51 L 92.53 62.99 C 90.98 62.60 89.43 62.20 87.88 61.81 C 87.73 61.08 87.58 60.35 87.43 59.62 L 89.11 59.65 C 88.73 58.68 88.36 57.70 87.99 56.73 C 87.37 58.97 86.87 59.32 84.95 60.29 C 78.55 55.49 73.86 49.13 72.91 41.01 C 71.72 31.99 75.93 22.49 83.26 17.14 Z" fill="#000000"/>
<path d="M 111.27 20.27 C 111.80 20.68 111.80 20.68 111.27 20.27 Z" fill="#000000"/>
<path d="M 80.58 23.32 C 80.97 24.16 80.76 25.12 79.96 26.19 C 78.94 25.72 78.23 25.02 77.83 24.08 C 78.86 23.14 79.78 22.88 80.58 23.32 Z" fill="#8b8989"/>
<path d="M 114.94 24.01 C 116.97 25.05 118.55 25.67 120.88 25.56 C 120.94 26.30 121.01 27.04 121.06 27.78 L 117.99 27.07 C 118.34 27.81 118.70 28.55 119.07 29.28 L 123.67 28.32 C 122.05 29.64 120.33 30.82 118.61 32.01 C 117.25 28.88 115.65 26.03 113.56 23.33 L 114.94 24.01 Z" fill="#000000"/>
<path d="M 94.90 27.14 C 93.99 27.58 93.06 27.61 92.12 27.23 C 92.25 25.76 94.64 25.72 94.90 27.14 Z" fill="#000000"/>
<path d="M 83.22 26.52 C 83.25 27.69 83.28 28.85 83.30 30.02 C 86.16 28.38 89.41 25.13 91.92 29.27 C 91.25 29.72 90.57 30.16 89.89 30.59 C 90.14 29.73 90.37 28.88 90.61 28.03 C 88.72 28.26 86.92 28.69 85.10 29.24 C 86.65 30.33 87.56 30.74 89.40 30.87 C 88.68 31.29 87.95 31.72 87.22 32.14 C 89.74 34.44 93.50 32.18 96.76 32.65 L 98.30 32.61 C 97.63 30.51 96.68 28.71 95.52 26.83 C 98.76 27.54 101.65 28.47 105.00 28.00 C 107.69 27.63 110.35 27.18 113.07 27.12 C 113.16 30.19 112.79 32.93 114.16 35.78 C 115.34 38.35 116.56 40.89 117.55 43.54 C 113.37 43.93 109.53 45.40 105.47 46.28 C 102.06 47.05 99.29 44.67 95.96 44.06 C 93.91 44.08 90.91 42.70 91.51 45.99 L 91.86 46.82 L 92.33 47.63 L 93.41 47.47 C 93.39 48.79 93.37 50.10 93.35 51.41 C 94.30 51.75 95.24 52.09 96.18 52.44 C 95.07 52.43 93.96 52.41 92.85 52.38 C 92.66 51.04 92.46 49.69 92.25 48.35 C 90.33 46.36 90.28 45.30 90.35 42.55 C 89.39 41.42 88.43 40.30 87.48 39.17 C 88.58 39.79 89.68 40.41 90.78 41.02 C 89.99 38.71 89.16 36.43 88.25 34.17 C 87.47 33.23 86.72 32.29 85.98 31.33 L 84.87 31.46 C 84.08 30.94 83.28 30.41 82.48 29.89 C 82.73 28.77 82.96 27.64 83.22 26.52 Z" fill="#000000"/>
<path d="M 90.61 28.03 C 90.37 28.88 90.14 29.73 89.89 30.59 L 89.40 30.87 C 87.56 30.74 86.65 30.33 85.10 29.24 C 86.92 28.69 88.72 28.26 90.61 28.03 Z" fill="#ffffff"/>
<path d="M 94.35 28.58 C 96.52 29.29 96.31 30.80 96.76 32.65 C 93.50 32.18 89.74 34.44 87.22 32.14 C 87.95 31.72 88.68 31.29 89.40 30.87 L 89.89 30.59 C 90.57 30.16 91.25 29.72 91.92 29.27 C 92.68 28.92 93.49 28.05 94.35 28.58 Z" fill="#ffffff"/>
<path d="M 112.75 29.48 L 112.23 32.34 C 107.94 33.32 103.27 34.54 98.97 33.16 L 98.45 32.74 L 98.65 30.79 C 103.50 31.29 108.00 30.12 112.75 29.48 Z" fill="#ffffff"/>
<path d="M 121.05 32.17 C 121.22 33.66 121.32 35.15 121.40 36.64 L 122.42 36.38 C 122.55 37.17 122.68 37.95 122.81 38.74 C 121.95 38.75 121.09 38.76 120.23 38.77 C 120.46 36.55 120.55 34.36 121.05 32.17 Z" fill="#ffffff"/>
<path d="M 90.08 33.57 C 91.55 33.53 93.02 33.49 94.48 33.45 C 95.08 36.68 95.53 39.89 95.71 43.17 C 94.43 43.13 93.14 43.09 91.86 43.05 C 91.42 39.86 90.74 36.72 90.08 33.57 Z" fill="#e50613"/>
<path d="M 95.04 33.54 C 96.41 33.54 97.78 33.54 99.15 33.53 C 100.34 37.25 101.09 40.89 100.81 44.82 C 99.37 44.26 97.93 43.69 96.49 43.13 C 96.11 39.91 95.54 36.74 95.04 33.54 Z" fill="#ffffff"/>
<path d="M 113.37 35.45 L 114.46 37.47 C 110.37 38.36 106.28 39.61 102.13 40.08 L 100.66 37.62 C 104.79 36.86 109.16 35.22 113.37 35.45 Z" fill="#ffffff"/>
<path d="M 115.37 40.27 C 115.78 41.16 116.20 42.04 116.61 42.93 C 111.39 43.72 106.89 45.92 101.53 45.76 L 101.58 42.89 C 106.42 42.92 110.60 40.71 115.37 40.27 Z" fill="#ffffff"/>
<path d="M 109.05 56.12 C 109.34 57.34 109.63 58.56 109.92 59.78 L 107.55 59.12 L 107.11 61.34 L 105.15 59.02 C 104.71 60.15 104.27 61.28 103.81 62.40 C 103.59 61.38 103.37 60.36 103.17 59.34 C 104.59 58.95 106.02 58.61 107.46 58.30 C 107.99 57.58 108.52 56.85 109.05 56.12 Z" fill="#ffffff"/>
<path d="M 100.84 59.88 L 101.65 59.88 L 102.09 60.63 L 101.75 61.39 L 100.95 61.39 L 100.50 60.64 L 100.84 59.88 Z" fill="#8b8989"/>
<path d="M 122.76 76.02 C 121.89 77.76 120.99 79.50 120.10 81.23 C 118.08 80.55 116.06 79.96 113.99 79.49 C 113.50 80.36 113.01 81.23 112.52 82.11 C 115.57 83.33 119.36 84.00 121.96 86.04 C 125.09 89.14 123.79 95.97 119.55 97.62 C 114.38 100.05 109.01 98.83 104.20 96.23 C 105.19 94.59 106.15 92.88 107.29 91.34 C 109.17 91.97 111.00 93.09 112.94 93.44 C 115.13 93.68 115.55 92.32 116.83 90.94 C 113.76 89.25 110.01 88.76 107.15 86.81 C 104.02 83.60 105.39 77.32 109.45 75.44 C 113.79 73.18 118.41 74.76 122.76 76.02 Z" fill="#000000"/>
<path d="M 41.90 74.76 C 44.35 74.76 46.84 74.70 49.28 74.88 C 49.90 80.64 49.33 86.53 49.56 92.32 C 52.59 92.31 55.61 92.31 58.64 92.31 C 58.61 94.34 58.59 96.37 58.56 98.40 C 53.01 98.36 47.46 98.38 41.91 98.37 C 41.93 90.50 41.94 82.63 41.90 74.76 Z" fill="#e50613"/>
<path d="M 78.72 74.80 C 81.04 74.82 83.35 74.83 85.67 74.84 C 88.71 82.65 91.63 90.50 94.65 98.32 C 92.26 98.34 89.88 98.36 87.50 98.40 C 86.95 97.07 86.40 95.75 85.85 94.42 C 83.41 94.45 80.92 94.31 78.49 94.62 C 77.72 95.81 77.11 97.12 76.45 98.38 C 74.12 98.35 71.79 98.33 69.46 98.30 C 72.67 90.53 75.66 82.64 78.72 74.80 Z" fill="#000000"/>
<path d="M 136.65 74.91 C 138.85 74.92 141.06 74.92 143.26 74.91 C 143.26 77.86 143.26 80.81 143.26 83.77 C 145.56 80.82 147.86 77.89 150.11 74.90 C 152.83 74.91 155.56 74.92 158.28 74.95 C 155.27 78.70 152.14 82.38 149.07 86.09 C 152.35 90.28 155.75 94.38 159.18 98.45 C 156.29 98.49 153.40 98.49 150.51 98.49 C 148.14 95.37 145.69 92.31 143.26 89.25 C 143.27 92.33 143.27 95.41 143.28 98.50 C 141.07 98.49 138.85 98.49 136.64 98.49 C 136.67 90.63 136.66 82.77 136.65 74.91 Z" fill="#000000"/>
<path d="M 81.94 83.49 C 82.69 85.38 83.37 87.31 84.04 89.23 C 82.75 89.23 81.46 89.23 80.17 89.23 C 80.75 87.31 81.35 85.40 81.94 83.49 Z" fill="#ffffff"/>
<path d="M 42.31 109.41 C 47.69 109.15 53.09 109.38 58.48 109.33 C 58.38 128.68 58.51 148.02 58.41 167.37 C 52.67 164.57 46.31 160.18 43.86 154.05 C 41.90 148.17 42.26 141.13 42.22 135.00 C 42.31 126.48 42.07 117.93 42.31 109.41 Z" fill="#000000"/>
<path d="M 107.51 109.40 C 112.83 109.15 118.18 109.38 123.51 109.33 C 123.44 131.23 123.52 153.13 123.47 175.03 C 118.15 177.65 112.78 180.18 107.45 182.80 C 107.43 158.38 107.31 133.80 107.51 109.40 Z" fill="#000000"/>
<path d="M 139.44 109.40 C 144.73 109.14 150.06 109.42 155.37 109.27 C 155.40 119.85 155.37 130.43 155.39 141.00 C 155.40 145.72 155.16 151.09 153.29 155.49 C 150.47 161.04 144.80 164.59 139.41 167.31 C 139.33 148.03 139.26 128.67 139.44 109.40 Z" fill="#000000"/>
<path d="M 74.92 109.33 C 80.36 109.31 85.79 109.28 91.23 109.36 C 91.19 133.83 91.22 158.30 91.21 182.77 C 85.69 180.37 80.31 177.68 74.93 174.98 C 74.93 153.09 74.94 131.21 74.92 109.33 Z" fill="#000000"/>
</svg>