<?xml version="1.0" encoding="utf-8"?>
<!-- Generator: Adobe Illustrator 26.3.1, SVG Export Plug-In . SVG Version: 6.00 Build 0)  -->
<svg version="1.1" id="Capa_1" xmlns="http://www.w3.org/2000/svg" xmlns:xlink="http://www.w3.org/1999/xlink" x="0px" y="0px"
	 viewBox="0 0 549.5 637.1" style="enable-background:new 0 0 549.5 637.1;" xml:space="preserve">
<style type="text/css">
	.st0{fill:#FFFFFF;}
	.st1{fill:#EE0005;}
	.st2{fill:#63257E;}
	.st3{fill:#FBCF00;}
	.st4{clip-path:url(#SVGID_00000001652235022843442070000006447745765945764268_);}
	.st5{clip-path:url(#SVGID_00000114059644775218080340000011029335863051975050_);}
	.st6{fill:#F3C700;}
	.st7{fill:none;stroke:#63257E;stroke-width:0;stroke-miterlimit:10;}
</style>
<g>
	<g>
		<path class="st0" d="M448,173.9c-22.8-12.6-97.2-22.6-173.2-23.3c-76,0.7-150.5,10.7-173.2,23.2c-4.4,2.4-7.8,4.2-8.4,14.6
			c-8.5,121.4,8.7,222.9,52.5,310.3c33.6,67.1,81.9,116.8,129.1,133c47.2-16.1,95.5-65.8,129.1-133c43.8-87.4,61-188.9,52.5-310.3
			C455.7,178.1,452.3,176.2,448,173.9z"/>
	</g>
	<g>
		<g>
			<ellipse class="st1" cx="274.8" cy="110.3" rx="99" ry="38.6"/>
			<path class="st2" d="M274.8,151.2c-56.8,0-101.3-18-101.3-40.9s44.5-40.9,101.3-40.9c56.8,0,101.3,18,101.3,40.9
				S331.6,151.2,274.8,151.2z M274.8,74c-52.4,0-96.7,16.6-96.7,36.3s44.3,36.3,96.7,36.3c52.4,0,96.7-16.6,96.7-36.3
				S327.2,74,274.8,74z"/>
		</g>
		<g>
			<g>
				<circle class="st3" cx="274.8" cy="106.1" r="9.8"/>
			</g>
			<g>
				<path class="st2" d="M274.8,98.6c4.2,0,7.5,3.4,7.5,7.5c0,4.2-3.4,7.5-7.5,7.5s-7.5-3.4-7.5-7.5
					C267.2,101.9,270.6,98.6,274.8,98.6 M274.8,94c-6.7,0-12.1,5.4-12.1,12.1c0,6.7,5.4,12.1,12.1,12.1s12.1-5.4,12.1-12.1
					C286.9,99.4,281.4,94,274.8,94L274.8,94z"/>
			</g>
		</g>
		<g>
			<g>
				<path class="st3" d="M179.7,129.3c-5.4,0-9.8-4.3-9.8-9.6c0-5.3,4.4-9.6,9.8-9.6c5.4,0,9.8,4.3,9.8,9.6
					C189.5,125,185.1,129.3,179.7,129.3z"/>
			</g>
			<g>
				<path class="st2" d="M179.7,112.4c4.2,0,7.5,3.3,7.5,7.3c0,4-3.4,7.3-7.5,7.3c-4.2,0-7.5-3.3-7.5-7.3
					C172.2,115.6,175.6,112.4,179.7,112.4 M179.7,107.8c-6.7,0-12.1,5.3-12.1,11.9c0,6.6,5.4,11.9,12.1,11.9
					c6.7,0,12.1-5.3,12.1-11.9C191.8,113.1,186.4,107.8,179.7,107.8L179.7,107.8z"/>
			</g>
		</g>
		<g>
			<g>
				<path class="st3" d="M369.8,129.3c-5.4,0-9.8-4.3-9.8-9.6c0-5.3,4.4-9.6,9.8-9.6c5.4,0,9.8,4.3,9.8,9.6
					C379.6,125,375.2,129.3,369.8,129.3z"/>
			</g>
			<g>
				<path class="st2" d="M369.8,112.4c4.2,0,7.5,3.3,7.5,7.3c0,4-3.4,7.3-7.5,7.3s-7.5-3.3-7.5-7.3
					C362.3,115.6,365.6,112.4,369.8,112.4 M369.8,107.8c-6.7,0-12.1,5.3-12.1,11.9c0,6.6,5.4,11.9,12.1,11.9s12.1-5.3,12.1-11.9
					C381.9,113.1,376.5,107.8,369.8,107.8L369.8,107.8z"/>
			</g>
		</g>
		<g>
			<g>
				<path class="st3" d="M226,119.1c-4.7,0-8.8-3.4-9.6-8.1c-1-5.3,2.6-10.4,7.9-11.4c0.6-0.1,1.2-0.2,1.7-0.2
					c4.7,0,8.8,3.4,9.6,8.1c1,5.3-2.6,10.4-7.9,11.4C227.2,119,226.6,119.1,226,119.1z"/>
			</g>
			<g>
				<path class="st2" d="M226,101.7c3.6,0,6.7,2.5,7.4,6.2c0.7,4.1-2,8-6.1,8.7c-0.5,0.1-0.9,0.1-1.3,0.1c-3.6,0-6.7-2.5-7.4-6.2
					c-0.7-4.1,2-8,6.1-8.7C225.1,101.8,225.6,101.7,226,101.7 M226,97.1L226,97.1c-0.7,0-1.4,0.1-2.2,0.2c-3.2,0.6-6,2.4-7.8,5
					c-1.8,2.7-2.5,5.9-2,9.1c1,5.8,6,10,11.9,10c0.7,0,1.4-0.1,2.2-0.2c6.6-1.2,11-7.5,9.8-14.1C236.9,101.3,231.9,97.1,226,97.1
					L226,97.1z"/>
			</g>
		</g>
		<g>
			<g>
				<path class="st3" d="M323.5,119.1c-0.6,0-1.2-0.1-1.7-0.2c-5.3-1-8.9-6.1-7.9-11.4c0.8-4.7,4.9-8.1,9.6-8.1
					c0.6,0,1.2,0.1,1.7,0.2c5.3,1,8.9,6.1,7.9,11.4C332.3,115.7,328.3,119.1,323.5,119.1C323.5,119.1,323.5,119.1,323.5,119.1z"/>
			</g>
			<g>
				<path class="st2" d="M323.5,101.7c0.4,0,0.9,0,1.3,0.1c4.1,0.7,6.8,4.6,6.1,8.7c-0.7,3.6-3.8,6.2-7.4,6.2c-0.4,0-0.9,0-1.3-0.1
					c-4.1-0.7-6.8-4.6-6.1-8.7C316.8,104.3,319.9,101.7,323.5,101.7 M323.5,97.1c-5.9,0-10.9,4.2-11.9,10c-0.6,3.2,0.1,6.4,2,9.1
					s4.6,4.4,7.8,5c0.7,0.1,1.4,0.2,2.2,0.2c5.9,0,10.9-4.2,11.9-10c0.6-3.2-0.1-6.4-2-9.1c-1.8-2.7-4.6-4.4-7.8-5
					C324.9,97.2,324.2,97.1,323.5,97.1L323.5,97.1z"/>
			</g>
		</g>
		<g>
			<g>
				<g>
					<path class="st3" d="M274.8,197.9c-22.8,0-45-1.9-64.4-5.5l-11-55.7c23.1-5.5,49.8-8.5,75.6-8.5c32.4,0,58.5,4.5,75.2,8.5
						l-11,55.7C319.8,195.9,297.6,197.9,274.8,197.9z"/>
				</g>
				<g>
					<path class="st2" d="M274.9,130.4c30.8,0,55.9,4.1,72.6,7.9l-10.3,52c-18.8,3.4-40.3,5.2-62.4,5.2s-43.6-1.8-62.4-5.2l-10.3-52
						C224.4,133.2,250.1,130.4,274.9,130.4 M274.9,125.8c-29.7,0-57,3.8-78.2,9.1l11.8,59.4c19.1,3.7,41.9,5.8,66.3,5.8
						c24.4,0,47.2-2.1,66.3-5.8l11.8-59.4C331.6,129.7,304.6,125.8,274.9,125.8L274.9,125.8z"/>
				</g>
			</g>
		</g>
		<g>
			<defs>
				<path id="SVGID_1_" d="M461.7,188.1c-0.8-12.5-5.5-15.9-11.2-18.9c-23.4-13-98.2-23.2-175.8-23.9
					C197.2,146,122.4,156.2,99,169.2c-5.7,3.1-10.4,6.5-11.2,18.9c-10.9,155.7,22.7,252.6,53.1,313.1
					C175,569.4,224.3,620,272.7,636.7c1.8,0.6,2.4,0.6,4.5-0.1c48.3-16.8,97.4-67.3,131.5-135.4C439,440.7,472.6,343.8,461.7,188.1z
					"/>
			</defs>
			<clipPath id="SVGID_00000018200919634314182050000013581497631876479642_">
				<use xlink:href="#SVGID_1_"  style="overflow:visible;"/>
			</clipPath>
			<g style="clip-path:url(#SVGID_00000018200919634314182050000013581497631876479642_);">
				<g>
					<rect x="244.2" y="117.1" class="st2" width="61.2" height="533"/>
				</g>
				<g>
					<rect x="361.6" y="117.1" class="st2" width="61.2" height="533"/>
				</g>
				<g>
					<rect x="126.8" y="117.1" class="st2" width="61.2" height="533"/>
				</g>
				<g>
					<defs>
						<polygon id="SVGID_00000158715067113904271840000005912703907108146858_" points="463.8,168.9 85.7,490.8 85.7,140.3 
							463.8,140.3 						"/>
					</defs>
					<use xlink:href="#SVGID_00000158715067113904271840000005912703907108146858_"  style="overflow:visible;fill:#EE0005;"/>
					<clipPath id="SVGID_00000110469758521008783810000004735586088485902465_">
						<use xlink:href="#SVGID_00000158715067113904271840000005912703907108146858_"  style="overflow:visible;"/>
					</clipPath>
					<g style="clip-path:url(#SVGID_00000110469758521008783810000004735586088485902465_);">
						<g>
							<g>
								<path class="st6" d="M73.4,183.2c0,0,117,39.5,324.6,20c-207-25.2-312.6-90.3-312.6-90.3"/>
							</g>
						</g>
						<g>
							<g>
								<path class="st6" d="M11.6,248.4c0,0,118.6,34.8,325.2,6.9C129,238.5,21.9,158.5,21.9,158.5"/>
							</g>
						</g>
						<g>
							<g>
								<path class="st6" d="M-42.8,312.4c0,0,120.5,29.3,325.2-10.7c-208.4-4.6-326.7-98.3-326.7-98.3"/>
							</g>
						</g>
						<g>
							<g>
								<path class="st6" d="M-103.7,335.8c0,0,116.6,68.9,324.8,17.9C12.4,334.9-94.2,230.9-94.2,230.9"/>
							</g>
						</g>
						<g>
							<g>
								<path class="st6" d="M-147.5,309.1c0,0,96.1,148.7,314.2,91C63.8,386.7-99.5,223.9-99.5,223.9"/>
							</g>
						</g>
					</g>
				</g>
			</g>
			<use xlink:href="#SVGID_1_"  style="overflow:visible;fill:none;stroke:#63257E;stroke-width:0;stroke-miterlimit:10;"/>
		</g>
		<g>
			<g>
				<path class="st2" d="M461.7,188.1c-0.8-12.5-5.5-15.9-11.2-18.9c-23.4-13-98.2-23.2-175.8-23.9C197.2,146,122.4,156.2,99,169.2
					c-5.7,3.1-10.4,6.5-11.2,18.9c-10.9,155.7,22.7,252.6,53.1,313.1C175,569.4,224.3,620,272.7,636.7c1.8,0.6,2.4,0.6,4.5-0.1
					c48.3-16.8,97.4-67.3,131.5-135.4C439,440.7,472.6,343.8,461.7,188.1z M403.9,498.8c-33.7,67.1-81.9,116.8-129.1,133
					c-47.2-16.2-95.5-65.8-129.1-133c-43.8-87.4-61-188.9-52.5-310.3c0.6-10.4,4.1-12.2,8.4-14.6c22.7-12.6,97.1-22.5,173.2-23.2
					c76,0.7,150.5,10.7,173.2,23.3c4.3,2.3,7.7,4.2,8.4,14.6C464.9,309.9,447.7,411.4,403.9,498.8z"/>
			</g>
			<g>
				<path class="st7" d="M448,173.9c-22.8-12.6-97.2-22.6-173.2-23.3c-76,0.7-150.5,10.7-173.2,23.2c-4.4,2.4-7.8,4.2-8.4,14.6
					c-8.5,121.4,8.7,222.9,52.5,310.3c33.6,67.1,81.9,116.8,129.1,133c47.2-16.1,95.5-65.8,129.1-133c43.8-87.4,61-188.9,52.5-310.3
					C455.7,178.1,452.3,176.2,448,173.9z"/>
			</g>
		</g>
		<g>
			<rect x="269.4" y="0" class="st2" width="10.7" height="35.3"/>
		</g>
		<g>
			<rect x="263.8" y="5.6" class="st2" width="22" height="10.7"/>
		</g>
		<g>
			<path class="st2" d="M174.9,122.6c-3.4-6.7-5.1-14-5.1-21.5c0-26.5,21.6-48.1,48.1-48.1v13.8c-18.9,0-34.3,15.4-34.3,34.3
				c0,5.4,1.2,10.6,3.6,15.3L174.9,122.6z"/>
		</g>
		<g>
			<path class="st2" d="M220.8,113.7c-7.9-9.2-12.2-20.9-12.2-33c0-28,22.8-50.8,50.8-50.8c7.5,0,14.8,1.6,21.6,4.8l-5.9,12.5
				c-4.9-2.3-10.2-3.5-15.7-3.5c-20.4,0-37,16.6-37,37c0,8.8,3.2,17.4,8.9,24L220.8,113.7z"/>
		</g>
		<g>
			<rect x="267.9" y="36.4" class="st2" width="13.8" height="65.1"/>
		</g>
		<g>
			<path class="st2" d="M374.6,122.6l-12.3-6.2c2.4-4.8,3.6-9.9,3.6-15.3c0-18.9-15.4-34.3-34.3-34.3V53c26.5,0,48.1,21.6,48.1,48.1
				C379.7,108.7,378,115.9,374.6,122.6z"/>
		</g>
		<g>
			<path class="st2" d="M328.7,113.7l-10.5-9c5.7-6.7,8.9-15.2,8.9-24c0-20.4-16.6-37-37-37c-5.5,0-10.8,1.2-15.7,3.5l-5.9-12.5
				c6.8-3.2,14-4.8,21.6-4.8c28,0,50.8,22.8,50.8,50.8C340.9,92.8,336.6,104.5,328.7,113.7z"/>
		</g>
		<g>
			<path class="st3" d="M370.5,120.6l-4.1-2.1c2.7-5.4,4.1-11.3,4.1-17.4c0-21.4-17.4-38.9-38.9-38.9h-2.8v-4.6h2.8
				c24,0,43.5,19.5,43.5,43.5C375.1,107.9,373.6,114.5,370.5,120.6z"/>
		</g>
		<g>
			<g>
				<g>
					<path class="st2" d="M191.3,133.8c-7.5,0-14.4-5-16.6-12.6l10.3-2.9c1,3.4,4.6,5.5,8,4.5c3.4-1,5.5-4.6,4.5-8l10.3-2.9
						c2.6,9.1-2.8,18.7-11.9,21.2C194.4,133.6,192.8,133.8,191.3,133.8z"/>
				</g>
				<g>
					<path class="st2" d="M214.4,128.7c-8.2,0-15.6-6-17-14.4l10.6-1.8c0.6,3.5,3.9,5.9,7.5,5.3c1.7-0.3,3.2-1.2,4.2-2.6
						c1-1.4,1.4-3.1,1.1-4.8l10.6-1.8c0.8,4.5-0.3,9.1-3,12.8c-2.7,3.7-6.6,6.2-11.2,7C216.3,128.6,215.3,128.7,214.4,128.7z"/>
				</g>
			</g>
			<g>
				<g>
					<path class="st2" d="M238.2,125.5c-8.7,0-16.3-6.5-17.4-15.4l10.6-1.3c0.5,3.8,3.9,6.4,7.6,6c1.8-0.2,3.4-1.1,4.6-2.6
						c1.1-1.4,1.6-3.2,1.4-5.1l10.6-1.3c0.6,4.7-0.7,9.3-3.6,13c-2.9,3.7-7,6-11.7,6.6C239.6,125.4,238.9,125.5,238.2,125.5z"/>
				</g>
				<g>
					<path class="st2" d="M262.5,123.8c-9.6,0-17.4-7.7-17.6-17.3l10.7-0.2c0.1,3.8,3.2,6.8,6.9,6.8c1.8,0,3.5-0.8,4.8-2.1
						c1.3-1.3,2-3,1.9-4.9l10.7-0.2c0.1,4.7-1.7,9.1-5,12.5c-3.3,3.4-7.7,5.3-12.4,5.3C262.7,123.8,262.6,123.8,262.5,123.8z"/>
				</g>
			</g>
			<g>
				<g>
					<path class="st2" d="M311.3,125.5c-0.7,0-1.4,0-2.1-0.1c-4.7-0.6-8.8-2.9-11.7-6.6s-4.2-8.3-3.6-13l10.6,1.3
						c-0.2,1.8,0.3,3.6,1.4,5.1c1.1,1.4,2.7,2.4,4.6,2.6c3.7,0.5,7.2-2.2,7.6-6l10.6,1.3C327.7,118.9,320.1,125.5,311.3,125.5z"/>
				</g>
				<g>
					<path class="st2" d="M287,123.8c-0.1,0-0.2,0-0.3,0c-4.7-0.1-9.1-2-12.4-5.3c-3.3-3.4-5-7.8-5-12.5l10.7,0.2
						c0,1.8,0.7,3.6,1.9,4.9c1.3,1.3,3,2,4.8,2.1c0,0,0.1,0,0.1,0c3.7,0,6.8-3,6.9-6.8l10.7,0.2C304.4,116.1,296.5,123.8,287,123.8z
						"/>
				</g>
			</g>
			<g>
				<g>
					<path class="st2" d="M358.2,133.8c-1.6,0-3.1-0.2-4.7-0.6c-9.1-2.6-14.5-12.1-11.9-21.2l10.3,2.9c-1,3.4,1,7,4.5,8
						c1.7,0.5,3.4,0.3,4.9-0.6c1.5-0.9,2.6-2.2,3.1-3.9l10.3,2.9c-1.2,4.4-4.1,8.1-8.1,10.4C364,133.1,361.2,133.8,358.2,133.8z"/>
				</g>
				<g>
					<path class="st2" d="M335.1,128.7c-0.9,0-1.9-0.1-2.9-0.2c-4.5-0.8-8.5-3.2-11.2-7c-2.7-3.7-3.7-8.3-3-12.8l10.6,1.8
						c-0.3,1.7,0.1,3.4,1.1,4.8c1,1.4,2.5,2.3,4.2,2.6c3.5,0.6,6.9-1.8,7.5-5.3l10.6,1.8C350.7,122.7,343.4,128.7,335.1,128.7z"/>
				</g>
			</g>
		</g>
		<g>
			<rect x="267.4" y="9.8" class="st3" width="14.7" height="2.4"/>
		</g>
		<g>
			<circle class="st0" cx="274.7" cy="491.8" r="49.9"/>
		</g>
		<g>
			<g>
				<g>
					<g>
						<path class="st2" d="M274.7,546.9c-14.7,0-28.6-5.7-39-16.1c-10.4-10.4-16.1-24.3-16.1-39s5.7-28.6,16.1-39
							c10.4-10.4,24.3-16.1,39-16.1s28.6,5.7,39,16.1c10.4,10.4,16.1,24.3,16.1,39s-5.7,28.6-16.1,39
							C303.3,541.2,289.5,546.9,274.7,546.9z M274.7,441.9c-27.5,0-49.9,22.4-49.9,49.9s22.4,49.9,49.9,49.9s49.9-22.4,49.9-49.9
							S302.2,441.9,274.7,441.9z"/>
					</g>
				</g>
				<g>
					<g>
						<path class="st2" d="M306.8,469l3.8-3.8c-4.1-5.5-9.5-10.1-15.7-13.2l-5.8,21.4h-23.1l1.4,5.3h20.3l-3.6,13.2h5.4l3.4-12.5
							c3.4,1.4,5.7,4.7,5.7,8.5c0,5.1-4.1,9.2-9.2,9.2h-22.4L254.6,452c-6.2,3.1-11.6,7.7-15.7,13.2l3.8,3.8
							c2.4-3.4,5.4-6.4,8.7-8.9l3.6,13.2h-7.9v46.5c1.6,1.6,3.4,3.1,5.3,4.4v-21.8l28.8,0l-6.4,23.5l-5-18.3h-5.4l7.8,28.8
							c0.9,0,1.7,0.1,2.6,0.1c0.9,0,1.7,0,2.6-0.1l9.3-34.1l3.5,0l9,20.4c1.5-1.1,2.8-2.4,4.1-3.7l-7.9-18c5-2.3,8.5-7.3,8.5-13.2
							c0-6.3-4-11.6-9.6-13.6l3.8-14.1C301.4,462.6,304.4,465.6,306.8,469z M252.3,497.1v-18.5h4.1l5,18.5H252.3z"/>
					</g>
				</g>
			</g>
		</g>
		<g>
			<g>
				<path class="st3" d="M226,117.5c-4,0-7.4-2.9-8.1-6.8c-0.8-4.5,2.2-8.8,6.7-9.6c0.5-0.1,1-0.1,1.5-0.1c4,0,7.4,2.9,8.1,6.8
					c0.8,4.5-2.2,8.8-6.7,9.6C227,117.5,226.5,117.5,226,117.5z"/>
			</g>
			<g>
				<path class="st2" d="M226,101.7c3.6,0,6.7,2.5,7.4,6.2c0.7,4.1-2,8-6.1,8.7c-0.5,0.1-0.9,0.1-1.3,0.1c-3.6,0-6.7-2.5-7.4-6.2
					c-0.7-4.1,2-8,6.1-8.7C225.1,101.8,225.6,101.7,226,101.7 M226,100.2L226,100.2c-0.5,0-1.1,0-1.6,0.1c-2.4,0.4-4.4,1.8-5.8,3.7
					c-1.4,2-1.9,4.4-1.5,6.8c0.8,4.3,4.5,7.4,8.9,7.4c0.5,0,1.1,0,1.6-0.1c4.9-0.9,8.2-5.6,7.3-10.5
					C234.1,103.3,230.4,100.2,226,100.2L226,100.2z"/>
			</g>
		</g>
		<g>
			<g>
				<path class="st3" d="M250.3,111.7c-2.9,0-5.3-2.4-5.3-5.3s2.4-5.3,5.3-5.3c2.9,0,5.3,2.4,5.3,5.3S253.2,111.7,250.3,111.7z"/>
			</g>
			<g>
				<path class="st2" d="M250.3,103.4c1.6,0,3,1.3,3,3c0,1.6-1.3,3-3,3c-1.6,0-3-1.3-3-3C247.3,104.8,248.7,103.4,250.3,103.4
					 M250.3,98.8c-4.2,0-7.6,3.4-7.6,7.6c0,4.2,3.4,7.6,7.6,7.6c4.2,0,7.6-3.4,7.6-7.6C257.9,102.2,254.5,98.8,250.3,98.8
					L250.3,98.8z"/>
			</g>
		</g>
		<g>
			<g>
				<circle class="st3" cx="274.8" cy="106.1" r="8.3"/>
			</g>
			<g>
				<path class="st2" d="M274.8,98.6c4.2,0,7.5,3.4,7.5,7.5c0,4.2-3.4,7.5-7.5,7.5s-7.5-3.4-7.5-7.5
					C267.2,101.9,270.6,98.6,274.8,98.6 M274.8,97c-5,0-9,4.1-9,9s4.1,9,9,9s9-4.1,9-9S279.7,97,274.8,97L274.8,97z"/>
			</g>
		</g>
		<g>
			<g>
				<path class="st3" d="M299.2,111.7c-2.9,0-5.3-2.4-5.3-5.3s2.4-5.3,5.3-5.3c2.9,0,5.3,2.4,5.3,5.3S302.1,111.7,299.2,111.7z"/>
			</g>
			<g>
				<path class="st2" d="M299.2,103.4c1.6,0,3,1.3,3,3c0,1.6-1.3,3-3,3c-1.6,0-3-1.3-3-3C296.2,104.8,297.5,103.4,299.2,103.4
					 M299.2,98.8c-4.2,0-7.6,3.4-7.6,7.6c0,4.2,3.4,7.6,7.6,7.6s7.6-3.4,7.6-7.6C306.8,102.2,303.4,98.8,299.2,98.8L299.2,98.8z"/>
			</g>
		</g>
		<g>
			<g>
				<path class="st3" d="M323.5,117.5c-0.5,0-1,0-1.5-0.1c-4.5-0.8-7.5-5.1-6.7-9.6c0.7-3.9,4.1-6.8,8.1-6.8c0.5,0,1,0,1.5,0.1
					c4.5,0.8,7.5,5.1,6.7,9.6C330.9,114.7,327.5,117.5,323.5,117.5C323.5,117.5,323.5,117.5,323.5,117.5z"/>
			</g>
			<g>
				<path class="st2" d="M323.5,101.7c0.4,0,0.9,0,1.3,0.1c4.1,0.7,6.8,4.6,6.1,8.7c-0.7,3.6-3.8,6.2-7.4,6.2c-0.4,0-0.9,0-1.3-0.1
					c-4.1-0.7-6.8-4.6-6.1-8.7C316.8,104.3,319.9,101.7,323.5,101.7 M323.5,100.2c-4.4,0-8.1,3.1-8.9,7.4c-0.4,2.4,0.1,4.8,1.5,6.8
					c1.4,2,3.4,3.3,5.8,3.7c0.5,0.1,1.1,0.1,1.6,0.1c4.4,0,8.1-3.1,8.9-7.4c0.4-2.4-0.1-4.8-1.5-6.8c-1.4-2-3.4-3.3-5.8-3.7
					C324.6,100.2,324,100.2,323.5,100.2L323.5,100.2z"/>
			</g>
		</g>
		<g>
			<g>
				<path class="st3" d="M346.8,118.7c-2.9,0-5.3-2.4-5.3-5.3s2.4-5.3,5.3-5.3c2.9,0,5.3,2.4,5.3,5.3S349.7,118.7,346.8,118.7z"/>
			</g>
			<g>
				<path class="st2" d="M346.8,110.4c1.6,0,3,1.3,3,3c0,1.6-1.3,3-3,3c-1.6,0-3-1.3-3-3C343.8,111.8,345.2,110.4,346.8,110.4
					 M346.8,105.8c-4.2,0-7.6,3.4-7.6,7.6c0,4.2,3.4,7.6,7.6,7.6s7.6-3.4,7.6-7.6C354.4,109.2,351,105.8,346.8,105.8L346.8,105.8z"
					/>
			</g>
		</g>
		<g>
			<g>
				<path class="st3" d="M179.7,127.8c-4.6,0-8.3-3.6-8.3-8.1s3.7-8.1,8.3-8.1c4.6,0,8.3,3.6,8.3,8.1S184.3,127.8,179.7,127.8z"/>
			</g>
			<g>
				<path class="st2" d="M179.7,112.4c4.2,0,7.5,3.3,7.5,7.3c0,4-3.4,7.3-7.5,7.3c-4.2,0-7.5-3.3-7.5-7.3
					C172.2,115.6,175.6,112.4,179.7,112.4 M179.7,110.8c-5,0-9,4-9,8.9s4.1,8.9,9,8.9c5,0,9-4,9-8.9S184.7,110.8,179.7,110.8
					L179.7,110.8z"/>
			</g>
		</g>
		<g>
			<g>
				<path class="st3" d="M369.8,127.8c-4.6,0-8.3-3.6-8.3-8.1s3.7-8.1,8.3-8.1c4.6,0,8.3,3.6,8.3,8.1S374.3,127.8,369.8,127.8z"/>
			</g>
			<g>
				<path class="st2" d="M369.8,112.4c4.2,0,7.5,3.3,7.5,7.3c0,4-3.4,7.3-7.5,7.3s-7.5-3.3-7.5-7.3
					C362.3,115.6,365.6,112.4,369.8,112.4 M369.8,110.8c-5,0-9,4-9,8.9s4.1,8.9,9,8.9s9-4,9-8.9S374.8,110.8,369.8,110.8
					L369.8,110.8z"/>
			</g>
		</g>
		<g>
			<g>
				<path class="st3" d="M202.7,118.7c-2.9,0-5.3-2.4-5.3-5.3s2.4-5.3,5.3-5.3c2.9,0,5.3,2.4,5.3,5.3S205.6,118.7,202.7,118.7z"/>
			</g>
			<g>
				<path class="st2" d="M202.7,110.4c1.6,0,3,1.3,3,3c0,1.6-1.3,3-3,3c-1.6,0-3-1.3-3-3C199.7,111.8,201.1,110.4,202.7,110.4
					 M202.7,105.8c-4.2,0-7.6,3.4-7.6,7.6c0,4.2,3.4,7.6,7.6,7.6c4.2,0,7.6-3.4,7.6-7.6C210.3,109.2,206.9,105.8,202.7,105.8
					L202.7,105.8z"/>
			</g>
		</g>
		<g>
			<g>
				<circle class="st3" cx="274.8" cy="35.3" r="13.3"/>
			</g>
			<g>
				<path class="st2" d="M274.8,24.6c5.9,0,10.6,4.8,10.6,10.6c0,5.9-4.8,10.6-10.6,10.6s-10.6-4.8-10.6-10.6
					C264.1,29.4,268.9,24.6,274.8,24.6 M274.8,19.3c-8.8,0-16,7.2-16,16c0,8.8,7.2,16,16,16s16-7.2,16-16
					C290.7,26.5,283.6,19.3,274.8,19.3L274.8,19.3z"/>
			</g>
		</g>
		<g>
			<path class="st3" d="M224.3,110.7c-7.2-8.4-11.1-19-11.1-30c0-25.5,20.7-46.2,46.2-46.2c6.9,0,13.5,1.5,19.6,4.4l-2,4.2
				c-5.5-2.6-11.5-3.9-17.7-3.9c-22.9,0-41.6,18.7-41.6,41.6c0,9.9,3.5,19.5,10,27L224.3,110.7z"/>
		</g>
		<g>
			<path class="st3" d="M325.3,110.7l-3.5-3c6.4-7.5,10-17.1,10-27c0-22.9-18.7-41.6-41.6-41.6c-6.2,0-12.1,1.3-17.7,3.9l-2-4.2
				c6.2-2.9,12.8-4.4,19.6-4.4c25.5,0,46.2,20.7,46.2,46.2C336.3,91.7,332.4,102.4,325.3,110.7z"/>
		</g>
		<g>
			<g>
				<g>
					<path class="st3" d="M191.3,129.6c-5.7,0-10.9-3.8-12.5-9.5l2.2-0.6c1.6,5.7,7.5,9,13.2,7.4c5.7-1.6,9-7.5,7.4-13.2l2.2-0.6
						c1.9,6.9-2.1,14.1-9,16C193.6,129.5,192.5,129.6,191.3,129.6z"/>
				</g>
				<g>
					<path class="st3" d="M214.4,124.5c-6.2,0-11.8-4.5-12.8-10.9l2.3-0.4c1,5.8,6.5,9.8,12.3,8.8c2.8-0.5,5.3-2,6.9-4.3
						c1.7-2.3,2.3-5.2,1.8-8l2.3-0.4c0.6,3.4-0.2,6.9-2.2,9.7c-2,2.8-5,4.7-8.4,5.3C215.8,124.4,215.1,124.5,214.4,124.5z"/>
				</g>
			</g>
			<g>
				<g>
					<path class="st3" d="M238.2,121.3c-6.6,0-12.4-5-13.3-11.7l2.3-0.3c0.7,6.1,6.3,10.4,12.3,9.6c2.9-0.4,5.6-1.8,7.4-4.2
						c1.8-2.3,2.6-5.2,2.3-8.2l2.3-0.3c0.4,3.5-0.5,7-2.7,9.9c-2.2,2.8-5.4,4.6-8.9,5C239.3,121.2,238.7,121.3,238.2,121.3z"/>
				</g>
				<g>
					<path class="st3" d="M262.5,119.6c-7.3,0-13.3-5.9-13.4-13.2l2.3,0c0.1,6.1,5.2,11,11.2,10.9c3,0,5.7-1.2,7.8-3.4
						c2.1-2.1,3.2-4.9,3.1-7.9l2.3,0c0.1,3.6-1.3,6.9-3.8,9.5c-2.5,2.6-5.8,4-9.4,4C262.7,119.6,262.6,119.6,262.5,119.6z"/>
				</g>
			</g>
			<g>
				<g>
					<path class="st3" d="M311.3,121.3c-0.5,0-1.1,0-1.6-0.1c-3.5-0.4-6.7-2.2-8.9-5c-2.2-2.8-3.2-6.3-2.7-9.9l2.3,0.3
						c-0.4,2.9,0.4,5.8,2.3,8.2c1.8,2.3,4.4,3.8,7.4,4.2c6.1,0.8,11.6-3.6,12.3-9.6l2.3,0.3C323.7,116.3,318,121.3,311.3,121.3z"/>
				</g>
				<g>
					<path class="st3" d="M287,119.6c-0.1,0-0.1,0-0.2,0c-3.6-0.1-6.9-1.5-9.4-4c-2.5-2.6-3.8-5.9-3.8-9.5l2.3,0
						c0,3,1.1,5.7,3.1,7.9c2.1,2.1,4.8,3.3,7.8,3.4c6.1,0.1,11.1-4.8,11.2-10.9l2.3,0C300.2,113.7,294.2,119.6,287,119.6z"/>
				</g>
			</g>
			<g>
				<g>
					<path class="st3" d="M358.2,129.6c-1.2,0-2.4-0.2-3.5-0.5c-6.9-1.9-10.9-9.1-9-16l2.2,0.6c-1.6,5.7,1.7,11.6,7.4,13.2
						c2.8,0.8,5.6,0.4,8.1-1c2.5-1.4,4.3-3.7,5.1-6.4l2.2,0.6c-0.9,3.3-3.1,6.1-6.2,7.8C362.6,129.1,360.4,129.6,358.2,129.6z"/>
				</g>
				<g>
					<path class="st3" d="M335.1,124.5c-0.7,0-1.4-0.1-2.2-0.2c-3.4-0.6-6.4-2.4-8.4-5.3c-2-2.8-2.8-6.3-2.2-9.7l2.3,0.4
						c-0.5,2.8,0.2,5.7,1.8,8c1.7,2.3,4.1,3.9,6.9,4.3c5.8,1,11.4-3,12.3-8.8l2.3,0.4C346.9,120,341.4,124.5,335.1,124.5z"/>
				</g>
			</g>
		</g>
		<g>
			<rect x="272.5" y="35.3" class="st3" width="4.6" height="68.4"/>
		</g>
		<g>
			<path class="st3" d="M179,120.6c-3-6.1-4.6-12.6-4.6-19.5c0-24,19.5-43.5,43.5-43.5h2.8v4.6h-2.8c-21.4,0-38.9,17.4-38.9,38.9
				c0,6.1,1.4,12,4.1,17.4L179,120.6z"/>
		</g>
		<g>
			<rect x="273.5" y="4.3" class="st3" width="2.4" height="32.6"/>
		</g>
	</g>
</g>
</svg>
