<?xml version="1.0" encoding="UTF-8"?>
<svg xmlns="http://www.w3.org/2000/svg" xmlns:xlink="http://www.w3.org/1999/xlink" width="15834.3pt" height="21520.3pt" viewBox="0 0 15834.3 21520.3" version="1.1">
<defs>
<clipPath id="clip1">
  <path d="M 5662 13779 L 5698 13779 L 5698 13967 L 5662 13967 Z M 5662 13779 "/>
</clipPath>
<clipPath id="clip2">
  <path d="M 5761.429688 13966.300781 C 5704.480469 13918.398438 5653.859375 13851.199219 5623.898438 13779.5 L 5899.308594 13781.601563 C 5869.351563 13853.300781 5818.390625 13918.398438 5761.429688 13966.300781 "/>
</clipPath>
<clipPath id="clip3">
  <path d="M 5741 13779 L 5777 13779 L 5777 13967 L 5741 13967 Z M 5741 13779 "/>
</clipPath>
<clipPath id="clip4">
  <path d="M 5761.429688 13966.300781 C 5704.480469 13918.398438 5653.859375 13851.199219 5623.898438 13779.5 L 5899.308594 13781.601563 C 5869.351563 13853.300781 5818.390625 13918.398438 5761.429688 13966.300781 "/>
</clipPath>
<clipPath id="clip5">
  <path d="M 5820 13779 L 5856 13779 L 5856 13967 L 5820 13967 Z M 5820 13779 "/>
</clipPath>
<clipPath id="clip6">
  <path d="M 5761.429688 13966.300781 C 5704.480469 13918.398438 5653.859375 13851.199219 5623.898438 13779.5 L 5899.308594 13781.601563 C 5869.351563 13853.300781 5818.390625 13918.398438 5761.429688 13966.300781 "/>
</clipPath>
</defs>
<g id="surface1">
<path style=" stroke:none;fill-rule:evenodd;fill:rgb(95.698547%,79.199219%,7.798767%);fill-opacity:1;" d="M 5569.691406 13582.101563 L 5679.910156 13582.101563 C 5682.449219 13537.300781 5721.441406 13500.800781 5766.96875 13500.800781 C 5812.710938 13500.800781 5850.070313 13536.800781 5852.308594 13582 L 5960.21875 13582.101563 C 5974.488281 13740.300781 5884.390625 13912 5756.53125 13995.601563 C 5628.710938 13912 5555.859375 13740.300781 5570.128906 13582.101563 L 5678.050781 13582 C 5678.050781 13582.101563 5569.691406 13582.101563 5569.691406 13582.101563 "/>
<path style="fill:none;stroke-width:10;stroke-linecap:butt;stroke-linejoin:miter;stroke:rgb(13.699341%,12.199402%,12.5%);stroke-opacity:1;stroke-miterlimit:3.864;" d="M 55696.914063 79381.984375 L 56799.101563 79381.984375 C 56824.492188 79829.992188 57214.414063 80194.992188 57669.6875 80194.992188 C 58127.109375 80194.992188 58500.703125 79834.992188 58523.085938 79383 L 59602.1875 79381.984375 C 59744.882813 77799.992188 58843.90625 76083 57565.3125 75246.984375 C 56287.109375 76083 55558.59375 77799.992188 55701.289063 79381.984375 L 56780.507813 79383 C 56780.507813 79381.984375 55696.914063 79381.984375 55696.914063 79381.984375 Z M 55696.914063 79381.984375 " transform="matrix(0.1,0,0,-0.1,0,21520.3)"/>
<path style=" stroke:none;fill-rule:nonzero;fill:rgb(100%,100%,100%);fill-opacity:1;" d="M 5706.671875 13581.300781 C 5706.671875 13548.800781 5732.808594 13522.398438 5765.328125 13522.398438 C 5797.839844 13522.398438 5824.238281 13548.800781 5824.238281 13581.300781 L 5706.671875 13581.300781 "/>
<path style="fill:none;stroke-width:10;stroke-linecap:butt;stroke-linejoin:miter;stroke:rgb(13.699341%,12.199402%,12.5%);stroke-opacity:1;stroke-miterlimit:3.864;" d="M 57066.71875 79389.992188 C 57066.71875 79714.992188 57328.085938 79979.015625 57653.28125 79979.015625 C 57978.398438 79979.015625 58242.382813 79714.992188 58242.382813 79389.992188 Z M 57066.71875 79389.992188 " transform="matrix(0.1,0,0,-0.1,0,21520.3)"/>
<path style=" stroke:none;fill-rule:nonzero;fill:rgb(95.698547%,79.199219%,7.798767%);fill-opacity:1;" d="M 5744.28125 13557.699219 C 5744.28125 13546 5753.75 13536.5 5765.421875 13536.5 C 5777.109375 13536.5 5786.550781 13546 5786.550781 13557.699219 C 5786.550781 13569.398438 5777.109375 13578.800781 5765.421875 13578.800781 C 5753.75 13578.800781 5744.28125 13569.398438 5744.28125 13557.699219 "/>
<path style="fill:none;stroke-width:10;stroke-linecap:butt;stroke-linejoin:miter;stroke:rgb(13.699341%,12.199402%,12.5%);stroke-opacity:1;stroke-miterlimit:3.864;" d="M 57442.8125 79626.007813 C 57442.8125 79743 57537.5 79838 57654.21875 79838 C 57771.09375 79838 57865.507813 79743 57865.507813 79626.007813 C 57865.507813 79509.015625 57771.09375 79414.992188 57654.21875 79414.992188 C 57537.5 79414.992188 57442.8125 79509.015625 57442.8125 79626.007813 Z M 57442.8125 79626.007813 " transform="matrix(0.1,0,0,-0.1,0,21520.3)"/>
<path style=" stroke:none;fill-rule:nonzero;fill:rgb(100%,100%,100%);fill-opacity:1;" d="M 5928.28125 13679.898438 C 5932.71875 13652.898438 5934.550781 13625.699219 5933.261719 13598.699219 L 5781.078125 13598.699219 L 5781.078125 13625.199219 L 5835.828125 13680 L 5928.28125 13679.898438 "/>
<path style="fill:none;stroke-width:10;stroke-linecap:butt;stroke-linejoin:miter;stroke:rgb(13.699341%,12.199402%,12.5%);stroke-opacity:1;stroke-miterlimit:3.864;" d="M 59282.8125 78404.015625 C 59327.1875 78674.015625 59345.507813 78946.007813 59332.617188 79216.007813 L 57810.78125 79216.007813 L 57810.78125 78951.007813 L 58358.28125 78403 Z M 59282.8125 78404.015625 " transform="matrix(0.1,0,0,-0.1,0,21520.3)"/>
<path style=" stroke:none;fill-rule:nonzero;fill:rgb(100%,100%,100%);fill-opacity:1;" d="M 5601.011719 13679.898438 C 5596.558594 13652.898438 5594.730469 13625.699219 5596.019531 13598.699219 L 5748.199219 13598.699219 L 5748.199219 13625.199219 L 5693.449219 13680 L 5601.011719 13679.898438 "/>
<path style="fill:none;stroke-width:10;stroke-linecap:butt;stroke-linejoin:miter;stroke:rgb(13.699341%,12.199402%,12.5%);stroke-opacity:1;stroke-miterlimit:3.864;" d="M 56010.117188 78404.015625 C 55965.585938 78674.015625 55947.304688 78946.007813 55960.195313 79216.007813 L 57481.992188 79216.007813 L 57481.992188 78951.007813 L 56934.492188 78403 Z M 56010.117188 78404.015625 " transform="matrix(0.1,0,0,-0.1,0,21520.3)"/>
<path style=" stroke:none;fill-rule:nonzero;fill:rgb(100%,100%,100%);fill-opacity:1;" d="M 5761.429688 13966.300781 C 5704.480469 13918.398438 5653.828125 13851.199219 5623.871094 13779.5 L 5899.308594 13781.601563 C 5869.320313 13853.300781 5818.390625 13918.398438 5761.429688 13966.300781 "/>
<g clip-path="url(#clip1)" clip-rule="nonzero">
<g clip-path="url(#clip2)" clip-rule="nonzero">
<path style=" stroke:none;fill-rule:nonzero;fill:rgb(92.89856%,12.89978%,15.299988%);fill-opacity:1;" d="M 5662.488281 13966.300781 L 5697.320313 13966.300781 L 5697.320313 13779.5 L 5662.488281 13779.5 L 5662.488281 13966.300781 "/>
</g>
</g>
<g clip-path="url(#clip3)" clip-rule="nonzero">
<g clip-path="url(#clip4)" clip-rule="nonzero">
<path style=" stroke:none;fill-rule:nonzero;fill:rgb(92.89856%,12.89978%,15.299988%);fill-opacity:1;" d="M 5741.691406 13966.300781 L 5776.539063 13966.300781 L 5776.539063 13779.5 L 5741.691406 13779.5 L 5741.691406 13966.300781 "/>
</g>
</g>
<g clip-path="url(#clip5)" clip-rule="nonzero">
<g clip-path="url(#clip6)" clip-rule="nonzero">
<path style=" stroke:none;fill-rule:nonzero;fill:rgb(92.89856%,12.89978%,15.299988%);fill-opacity:1;" d="M 5820.878906 13966.300781 L 5855.730469 13966.300781 L 5855.730469 13779.5 L 5820.878906 13779.5 L 5820.878906 13966.300781 "/>
</g>
</g>
<path style="fill:none;stroke-width:10;stroke-linecap:butt;stroke-linejoin:miter;stroke:rgb(13.699341%,12.199402%,12.5%);stroke-opacity:1;stroke-miterlimit:3.864;" d="M 57614.296875 75539.992188 C 57044.804688 76019.015625 56538.28125 76691.007813 56238.710938 77408 L 58993.085938 77386.984375 C 58693.203125 76669.992188 58183.90625 76019.015625 57614.296875 75539.992188 Z M 57614.296875 75539.992188 " transform="matrix(0.1,0,0,-0.1,0,21520.3)"/>
<path style=" stroke:none;fill-rule:nonzero;fill:rgb(92.89856%,12.89978%,15.299988%);fill-opacity:1;" d="M 5669.679688 13614.800781 L 5669.679688 13651.800781 C 5669.679688 13657.699219 5665.699219 13660.898438 5656.980469 13660.898438 C 5649.679688 13660.898438 5644.671875 13658.300781 5644.671875 13651.800781 L 5644.671875 13614.800781 L 5624.671875 13614.800781 L 5624.671875 13652.5 C 5624.671875 13662.5 5635.269531 13668.898438 5657.25 13668.898438 C 5681.601563 13668.898438 5689.671875 13660.5 5689.671875 13652.5 L 5689.671875 13614.800781 L 5669.679688 13614.800781 "/>
<path style=" stroke:none;fill-rule:evenodd;fill:rgb(92.89856%,12.89978%,15.299988%);fill-opacity:1;" d="M 5859.421875 13621 L 5869.730469 13621 C 5883.621094 13621 5883.621094 13629.601563 5883.621094 13639.398438 C 5883.621094 13652.800781 5881.238281 13657.898438 5869.070313 13657.898438 L 5859.421875 13657.898438 Z M 5839.421875 13666.101563 L 5871.988281 13666.101563 C 5906.140625 13666.101563 5903.871094 13647.398438 5903.871094 13639.199219 C 5903.871094 13622.5 5899 13612.800781 5872.789063 13612.800781 L 5839.421875 13612.800781 L 5839.421875 13666.101563 "/>
<path style=" stroke:none;fill-rule:nonzero;fill:rgb(4.299927%,34.098816%,62.399292%);fill-opacity:1;" d="M 5766.449219 13647.199219 L 5704.050781 13703.898438 L 5602.03125 13704.199219 C 5606.078125 13722.199219 5611.410156 13738.800781 5617.671875 13756.300781 L 5908.25 13756.300781 C 5914.5 13738.800781 5919.828125 13721.300781 5923.878906 13703.199219 L 5821.710938 13703.601563 L 5766.449219 13647.199219 "/>
<path style="fill:none;stroke-width:10;stroke-linecap:butt;stroke-linejoin:miter;stroke:rgb(13.699341%,12.199402%,12.5%);stroke-opacity:1;stroke-miterlimit:3.864;" d="M 57664.492188 78731.007813 L 57040.507813 78164.015625 L 56020.3125 78161.007813 C 56060.78125 77981.007813 56114.101563 77814.992188 56176.71875 77639.992188 L 59082.5 77639.992188 C 59145 77814.992188 59198.28125 77989.992188 59238.789063 78171.007813 L 58217.109375 78166.984375 Z M 57664.492188 78731.007813 " transform="matrix(0.1,0,0,-0.1,0,21520.3)"/>
<path style=" stroke:none;fill-rule:nonzero;fill:rgb(100%,100%,100%);fill-opacity:1;" d="M 5653.640625 13734.398438 L 5648.390625 13720 L 5643.289063 13734.398438 Z M 5638.21875 13746.898438 L 5627.511719 13746.898438 L 5641.859375 13713.601563 L 5656.160156 13713.601563 L 5670.191406 13746.898438 L 5658.789063 13746.898438 L 5655.929688 13739.5 L 5641.148438 13739.5 Z M 5702.410156 13746.898438 L 5675.378906 13746.898438 L 5675.378906 13713.601563 L 5686.199219 13713.601563 L 5686.199219 13741.398438 L 5702.410156 13741.398438 Z M 5717.46875 13746.898438 L 5706.921875 13746.898438 L 5706.921875 13713.601563 L 5724.359375 13713.601563 L 5732.480469 13736.199219 L 5741.199219 13713.601563 L 5758.089844 13713.601563 L 5758.089844 13746.898438 L 5747.511719 13746.898438 L 5747.511719 13721.199219 L 5737.398438 13746.898438 L 5727.089844 13746.898438 L 5717.609375 13721.199219 Z M 5795.730469 13746.898438 L 5766.871094 13746.898438 L 5766.871094 13713.601563 L 5795.160156 13713.601563 L 5795.160156 13718.699219 L 5777.710938 13718.699219 L 5777.710938 13726.898438 L 5793.78125 13726.898438 L 5793.78125 13732.101563 L 5777.710938 13732.101563 L 5777.710938 13741.800781 L 5795.730469 13741.800781 Z M 5813.371094 13718.699219 L 5813.371094 13728 L 5818.179688 13728 C 5822.488281 13728 5823.71875 13725.199219 5823.71875 13723.101563 C 5823.71875 13720 5821.621094 13718.699219 5818.179688 13718.699219 Z M 5813.371094 13733.199219 L 5813.371094 13746.898438 L 5802.539063 13746.898438 L 5802.539063 13713.601563 L 5822.550781 13713.601563 C 5829.929688 13713.601563 5834.691406 13716.601563 5834.691406 13722.398438 C 5834.691406 13726.601563 5832.109375 13729.898438 5825.058594 13730.601563 C 5827.441406 13730.800781 5834.460938 13731.101563 5834.460938 13737.101563 C 5834.460938 13739.300781 5834.691406 13745.5 5835.691406 13746.898438 L 5825.058594 13746.898438 C 5823.640625 13744.898438 5823.921875 13742.699219 5823.921875 13740.5 C 5823.921875 13736.5 5824.488281 13733.199219 5816.179688 13733.199219 Z M 5853.488281 13746.898438 L 5842.648438 13746.898438 L 5842.648438 13713.601563 L 5853.488281 13713.601563 Z M 5869.320313 13746.898438 L 5858.609375 13746.898438 L 5872.960938 13713.601563 L 5887.25 13713.601563 L 5901.300781 13746.898438 L 5889.898438 13746.898438 L 5887.03125 13739.5 L 5872.25 13739.5 Z M 5884.738281 13734.398438 L 5879.488281 13720 L 5874.398438 13734.398438 L 5884.738281 13734.398438 "/>
<path style=" stroke:none;fill-rule:evenodd;fill:rgb(100%,100%,100%);fill-opacity:1;" d="M 5638.21875 13746.898438 L 5641.171875 13739.5 L 5655.960938 13739.5 L 5658.808594 13746.898438 L 5670.230469 13746.898438 L 5656.160156 13713.601563 L 5641.890625 13713.601563 L 5627.53125 13746.898438 Z M 5653.640625 13734.398438 L 5643.308594 13734.398438 L 5648.28125 13720.101563 L 5648.421875 13720.101563 L 5653.640625 13734.398438 "/>
<path style=" stroke:none;fill-rule:nonzero;fill:rgb(100%,100%,100%);fill-opacity:1;" d="M 5702.410156 13746.898438 L 5702.410156 13741.398438 L 5686.199219 13741.398438 L 5686.199219 13713.601563 L 5675.378906 13713.601563 L 5675.378906 13746.898438 L 5702.410156 13746.898438 "/>
<path style=" stroke:none;fill-rule:nonzero;fill:rgb(100%,100%,100%);fill-opacity:1;" d="M 5717.488281 13746.898438 L 5717.488281 13721.199219 L 5717.628906 13721.199219 L 5727.121094 13746.898438 L 5737.429688 13746.898438 L 5747.398438 13721.199219 L 5747.539063 13721.199219 L 5747.539063 13746.898438 L 5758.089844 13746.898438 L 5758.089844 13713.601563 L 5741.25 13713.601563 L 5732.621094 13736.300781 L 5732.480469 13736.300781 L 5724.359375 13713.601563 L 5706.949219 13713.601563 L 5706.949219 13746.898438 L 5717.488281 13746.898438 "/>
<path style=" stroke:none;fill-rule:nonzero;fill:rgb(100%,100%,100%);fill-opacity:1;" d="M 5795.730469 13746.898438 L 5795.730469 13741.800781 L 5777.710938 13741.800781 L 5777.710938 13732.101563 L 5793.78125 13732.101563 L 5793.78125 13726.898438 L 5777.710938 13726.898438 L 5777.710938 13718.800781 L 5795.160156 13718.800781 L 5795.160156 13713.601563 L 5766.871094 13713.601563 L 5766.871094 13746.898438 L 5795.730469 13746.898438 "/>
<path style=" stroke:none;fill-rule:evenodd;fill:rgb(100%,100%,100%);fill-opacity:1;" d="M 5813.371094 13718.699219 L 5818.179688 13718.699219 C 5821.621094 13718.699219 5823.71875 13720 5823.71875 13723.101563 C 5823.71875 13725.199219 5822.488281 13728 5818.179688 13728 L 5813.371094 13728 Z M 5813.371094 13733.199219 L 5816.179688 13733.199219 C 5824.488281 13733.199219 5823.921875 13736.5 5823.921875 13740.5 C 5823.921875 13742.699219 5823.640625 13744.898438 5825.058594 13746.898438 L 5835.691406 13746.898438 C 5834.691406 13745.5 5834.460938 13739.300781 5834.460938 13737.101563 C 5834.460938 13731.101563 5827.441406 13730.699219 5825.058594 13730.601563 L 5825.058594 13730.5 C 5832.109375 13729.699219 5834.691406 13726.601563 5834.691406 13722.398438 C 5834.691406 13716.601563 5829.929688 13713.601563 5822.570313 13713.601563 L 5802.539063 13713.601563 L 5802.539063 13746.898438 L 5813.371094 13746.898438 L 5813.371094 13733.199219 "/>
<path style=" stroke:none;fill-rule:nonzero;fill:rgb(100%,100%,100%);fill-opacity:1;" d="M 5842.648438 13746.898438 L 5853.488281 13746.898438 L 5853.488281 13713.601563 L 5842.648438 13713.601563 L 5842.648438 13746.898438 "/>
<path style=" stroke:none;fill-rule:evenodd;fill:rgb(100%,100%,100%);fill-opacity:1;" d="M 5869.320313 13746.898438 L 5872.269531 13739.5 L 5887.058594 13739.5 L 5889.929688 13746.898438 L 5901.328125 13746.898438 L 5887.25 13713.601563 L 5872.988281 13713.601563 L 5858.628906 13746.898438 Z M 5884.738281 13734.398438 L 5874.429688 13734.398438 L 5879.378906 13720.101563 L 5879.519531 13720.101563 L 5884.738281 13734.398438 "/>
<path style=" stroke:none;fill-rule:nonzero;fill:rgb(72.898865%,41.999817%,15.699768%);fill-opacity:1;" d="M 5714.648438 13859.699219 C 5714.648438 13833.800781 5735.679688 13812.699219 5761.609375 13812.699219 C 5787.53125 13812.699219 5808.53125 13833.800781 5808.53125 13859.699219 C 5808.53125 13885.601563 5787.53125 13906.601563 5761.609375 13906.601563 C 5735.679688 13906.601563 5714.648438 13885.601563 5714.648438 13859.699219 "/>
<path style="fill:none;stroke-width:10;stroke-linecap:butt;stroke-linejoin:miter;stroke:rgb(13.699341%,12.199402%,12.5%);stroke-opacity:1;stroke-miterlimit:3.864;" d="M 57396.914063 76684.992188 C 57455.703125 76876.984375 57634.21875 77016.984375 57845.507813 77016.984375 " transform="matrix(0.1,0,0,-0.1,0,21520.3)"/>
<path style="fill:none;stroke-width:10;stroke-linecap:butt;stroke-linejoin:miter;stroke:rgb(13.699341%,12.199402%,12.5%);stroke-opacity:1;stroke-miterlimit:3.864;" d="M 57611.484375 76638 C 57691.71875 76769.992188 57834.296875 76859.015625 57998.59375 76864.015625 " transform="matrix(0.1,0,0,-0.1,0,21520.3)"/>
<path style="fill:none;stroke-width:10;stroke-linecap:butt;stroke-linejoin:miter;stroke:rgb(13.699341%,12.199402%,12.5%);stroke-opacity:1;stroke-miterlimit:3.864;" d="M 57599.21875 76644.015625 C 57438.789063 76644.015625 57296.601563 76724.992188 57211.914063 76848 " transform="matrix(0.1,0,0,-0.1,0,21520.3)"/>
<path style="fill:none;stroke-width:10;stroke-linecap:butt;stroke-linejoin:miter;stroke:rgb(13.699341%,12.199402%,12.5%);stroke-opacity:1;stroke-miterlimit:3.864;" d="M 57601.40625 76639.992188 C 57611.796875 76601.984375 57616.09375 76561.007813 57616.09375 76519.992188 C 57616.09375 76376.007813 57552.1875 76248 57451.289063 76163 " transform="matrix(0.1,0,0,-0.1,0,21520.3)"/>
<path style="fill:none;stroke-width:10;stroke-linecap:butt;stroke-linejoin:miter;stroke:rgb(13.699341%,12.199402%,12.5%);stroke-opacity:1;stroke-miterlimit:3.864;" d="M 57599.492188 76421.007813 C 57586.914063 76419.015625 57573.28125 76419.015625 57560.507813 76419.015625 C 57383.789063 76419.015625 57229.882813 76516.007813 57150 76661.007813 " transform="matrix(0.1,0,0,-0.1,0,21520.3)"/>
<path style="fill:none;stroke-width:10;stroke-linecap:butt;stroke-linejoin:miter;stroke:rgb(13.699341%,12.199402%,12.5%);stroke-opacity:1;stroke-miterlimit:3.864;" d="M 57775.585938 76806.984375 C 57835.195313 76728 57869.882813 76629.015625 57869.882813 76523 C 57869.882813 76364.015625 57790.585938 76223 57668.984375 76138 " transform="matrix(0.1,0,0,-0.1,0,21520.3)"/>
<path style="fill:none;stroke-width:10;stroke-linecap:butt;stroke-linejoin:miter;stroke:rgb(13.699341%,12.199402%,12.5%);stroke-opacity:1;stroke-miterlimit:3.864;" d="M 57146.484375 76606.007813 C 57146.484375 76864.992188 57356.796875 77076.007813 57616.09375 77076.007813 C 57875.3125 77076.007813 58085.3125 76864.992188 58085.3125 76606.007813 C 58085.3125 76346.984375 57875.3125 76136.984375 57616.09375 76136.984375 C 57356.796875 76136.984375 57146.484375 76346.984375 57146.484375 76606.007813 Z M 57146.484375 76606.007813 " transform="matrix(0.1,0,0,-0.1,0,21520.3)"/>
</g>
</svg>
