<?xml version="1.0" encoding="utf-8"?>
<!-- Generator: Adobe Illustrator 13.0.0, SVG Export Plug-In . SVG Version: 6.00 Build 14948)  -->
<!DOCTYPE svg PUBLIC "-//W3C//DTD SVG 1.1//EN" "http://www.w3.org/Graphics/SVG/1.1/DTD/svg11.dtd">
<svg version="1.1" id="Ebene_1" xmlns="http://www.w3.org/2000/svg" xmlns:xlink="http://www.w3.org/1999/xlink" x="0px" y="0px"
	 width="509.603px" height="682.031px" viewBox="0 0 509.603 682.031" enable-background="new 0 0 509.603 682.031"
	 xml:space="preserve">
<path fill="#FFFFFF" d="M128.5,550.879C68.121,465.639,25.414,369.05,9.648,265.619C1.332,210.784-1.873,153.957,1.073,98.603
	h138.948c3.726-26.248,16.806-49.724,35.604-67.222c44.959-41.841,113.394-41.841,158.353,0
	c18.797,17.498,31.878,40.974,35.604,67.222H508.53c2.945,55.354-0.26,112.181-8.576,167.016
	c-15.766,103.432-58.473,200.02-118.852,285.26c-36.989,52.063-77.097,90.958-126.301,131.152
	C205.598,641.577,165.662,603.115,128.5,550.879z"/>
<path d="M249.776,666.092c-42.966-33.611-80.996-75.105-113.394-120.844C76.351,460.701,34.77,366.539,19.177,264.146
	c-7.536-49.637-9.962-100.313-9.355-147.698c0-4.071,4.158-8.142,8.229-8.142h130.72c3.204-54.835,50.849-98.841,106.03-98.841
	c55.181,0,102.826,44.006,106.03,98.841h130.72c4.071,0,8.229,4.071,8.229,8.142c0.606,47.385-1.819,98.062-9.356,147.698
	c-15.593,102.393-57.173,196.555-117.205,281.103c-32.399,45.739-70.428,87.233-113.394,120.844
	C257.4,667.998,252.202,667.998,249.776,666.092z"/>
<path fill="#FAB815" d="M165.056,116.534c0,4.158-4.158,8.316-8.229,8.316H26.281c-0.174,44.267,2.339,91.044,9.268,136.87
	c15.247,99.793,55.788,191.531,114.261,273.999c30.319,42.621,65.489,81.516,104.991,113.308
	c39.502-31.792,74.672-70.687,104.991-113.308c58.473-82.468,99.014-174.206,114.261-273.999c6.93-45.826,9.442-92.603,9.269-136.87
	H352.775c-4.071,0-8.229-4.158-8.229-8.316c0-48.51-39.068-90.438-89.745-90.438C204.125,26.097,165.056,68.024,165.056,116.534z"/>
<path d="M241.894,141.743h-60.552l0,0H43.259c0.433,35.863,2.686,71.9,7.537,107.417h116.772l74.326-68.261V141.743z"/>
<path d="M458.806,249.159c4.851-35.517,7.104-71.553,7.537-107.417H352.775l0,0h-85.066v39.155l74.326,68.261H458.806z"/>
<path d="M436.024,348.867c7.796-23.996,14.12-48.685,18.625-73.806H331.985l-77.184-70.947l-77.185,70.947H54.954
	c4.504,25.121,10.828,49.81,18.625,73.806H436.024z"/>
<path d="M254.801,627.197c34.477-29.54,64.97-64.19,91.217-101.266c33.351-46.952,60.898-97.628,80.996-151.077H82.588
	c20.097,53.448,47.645,104.125,80.995,151.077C189.831,563.007,220.324,597.657,254.801,627.197z"/>
<path fill="#FFFFFF" d="M236.783,146.853h-50.33l0,0H48.457c0.26,16.027,0.953,32.139,1.993,48.338
	c1.126,16.545,2.772,32.832,4.851,48.857h110.276l71.207-65.403V146.853z"/>
<path fill="#FFFFFF" d="M454.302,244.048c2.079-16.025,3.725-32.312,4.851-48.857c1.04-16.199,1.732-32.312,1.993-48.338H352.775
	l0,0h-79.956v31.792l71.207,65.403H454.302z"/>
<path fill="#00579F" d="M432.299,343.756c3.465-10.742,6.584-21.657,9.355-32.832c2.599-10.222,4.851-20.444,6.844-30.666H330.08
	l-75.278-69.215l-75.279,69.215H61.104c1.993,10.222,4.245,20.443,6.844,30.666c2.772,11.175,5.891,22.09,9.355,32.832H432.299z"/>
<path fill="#E1171A" d="M103.724,210.177V160.54H79.123v50.244c0,3.985,2.339,7.364,7.45,10.829
	c7.45,4.591,19.404,6.843,35.95,6.843c27.98,0,41.667-6.324,41.667-19.404v-49.118h-25.122v49.118
	c0,7.362-5.717,11.435-16.545,11.435C109.961,220.486,103.724,217.021,103.724,210.177z"/>
<path fill="#E1171A" d="M412.721,193.025c0-14.813-8.576-22.783-25.121-24.515l-17.672-0.606v50.85l18.798-1.126
	C403.279,215.202,412.721,210.091,412.721,193.025L412.721,193.025z M436.716,193.632c0,27.894-34.13,33.092-54.834,33.092h-36.47
	v-67.31h33.611C417.313,159.414,436.716,170.762,436.716,193.632z"/>
<path d="M254.801,42.382c40.455,0,73.459,33.178,73.459,73.633H181.342C181.342,75.56,214.347,42.382,254.801,42.382z"/>
<path fill="#FAB815" d="M254.801,110.557c12.647,0,23.042-10.395,23.042-23.129c0-12.734-10.396-23.128-23.042-23.128
	c-12.647,0-23.043,10.395-23.043,23.128C231.758,100.162,242.154,110.557,254.801,110.557z"/>
<path fill="#FFFFFF" d="M254.801,47.493c35.95,0,65.576,28.067,68.088,63.41h-52.322c7.45-5.11,12.474-13.687,12.474-23.476
	c0-15.506-12.734-28.24-28.24-28.24c-15.506,0-28.24,12.734-28.24,28.24c0,9.79,5.024,18.366,12.475,23.476h-52.323
	C189.225,75.56,218.851,47.493,254.801,47.493z"/>
<rect x="355.548" y="287.275" fill="#FFFFFF" width="11.955" height="47.905"/>
<polygon fill="#FFFFFF" points="141.581,335.786 141.581,287.794 153.535,287.794 153.535,330.068 177.531,330.068 177.531,335.786 
	"/>
<polygon fill="#FFFFFF" points="263.637,329.462 285.293,329.462 285.293,335.786 251.683,335.786 251.683,287.794 285.293,287.794 
	285.293,294.119 263.637,294.119 263.637,307.806 283.041,307.806 283.041,314.649 263.637,314.649 "/>
<polygon fill="#FFFFFF" points="224.308,300.962 211.748,316.901 209.496,316.901 197.455,301.481 197.455,335.786 185.5,335.786 
	185.5,287.794 197.455,287.794 210.968,304.947 224.308,287.794 236.263,287.794 236.263,335.786 224.308,335.786 "/>
<path fill="#FFFFFF" d="M326.96,301.481c0-6.93-6.063-7.363-11.435-7.363v14.813C320.897,308.932,326.96,309.104,326.96,301.481
	L326.96,301.481z M319.598,315.168h-4.072v20.617h-11.435v-47.991h11.435c6.064,0,14.986,0.693,20.098,4.678
	c3.118,2.599,5.024,7.276,3.985,11.261c-1.126,4.332-5.284,7.19-9.789,8.663c9.009,2.512,14.121,15.073,16.026,23.389h-12.56
	C330.686,330.068,326.268,316.555,319.598,315.168z"/>
<path fill="#FFFFFF" d="M401.72,299.836l-6.844,19.404h13.687L401.72,299.836L401.72,299.836z M377.204,336.306l18.278-48.511h13.08
	l17.759,48.511H414.28l-3.378-10.828h-17.758l-3.985,10.828H377.204z"/>
<path fill="#FFFFFF" d="M107.882,299.836l6.844,19.404h-13.688L107.882,299.836L107.882,299.836z M132.398,336.306l-18.278-48.511
	h-13.081l-17.758,48.511h12.041l3.379-10.828h17.758l3.985,10.828H132.398z"/>
<path fill="#BA6916" d="M254.801,410.544c-15.939,0-30.406,6.498-40.888,17.065c-3.119,3.119-4.678,8.923-2.252,12.994
	c1.559,2.513,3.378,4.852,5.457,6.931c4.332,4.244,8.836,0.953,11.608-3.033c12.561-18.364,28.154-27.027,48.338-29.453
	C270.221,412.19,262.684,410.544,254.801,410.544L254.801,410.544z M205.251,438.611c3.292,7.537,8.576,13.34,15.246,17.759
	c6.843,4.504,15.246,7.45,24.602,9.095c6.063,1.041,6.15,1.473,7.016,8.75c0.52,3.725,0.174,7.363-0.172,11.175
	c0.086,5.804-5.371,8.662-9.616,7.45c-24.515-4.678-37.249-15.68-44.525-34.045C199.014,451.519,201.613,444.761,205.251,438.611
	L205.251,438.611z M197.021,469.623c0.434,19.925,11.001,37.337,26.681,47.472c6.237,3.985,13.167,5.024,18.538-2.166
	c1.993-2.686,3.726-5.458,5.111-8.403c2.772-6.063-1.992-7.969-6.583-8.749C218.332,493.706,205.337,484.783,197.021,469.623
	L197.021,469.623z M239.901,524.285c7.71-7.45,12.561-16.025,14.9-25.295c2.425-8.576,3.378-17.498,2.079-26.161
	c-0.953-6.15-0.78-7.97,3.292-13.081c2.772-3.552,6.584-6.41,10.135-9.009c3.898-3.292,8.316-0.26,9.875,3.812
	c10.048,24.775,2.772,46.951-11.781,70.081c-4.332,1.04-8.922,1.56-13.6,1.56C249.69,526.191,244.666,525.498,239.901,524.285
	L239.901,524.285z M276.891,521.859c13.514-23.649,18.537-45.912,8.402-69.734c-1.818-4.418-2.772-9.789,3.292-11.348
	c2.858-0.78,5.89-1.213,8.921-1.213c6.498-0.346,9.183,2.772,11.262,8.057c2.426,6.497,3.812,13.427,3.812,20.79
	C312.581,492.406,297.768,513.11,276.891,521.859L276.891,521.859z M301.926,434.973c-8.143-0.78-15.766,0.867-22.869,4.331
	c-7.71,3.638-14.987,9.443-21.05,16.892c-2.946,3.465-4.592,5.544-9.79,4.852c-4.764-0.693-9.269-1.733-13.34-3.119
	c-4.852-1.646-4.765-7.017-2.253-10.569c13.254-19.491,29.886-27.114,52.583-28.153C291.704,423.278,297.421,428.65,301.926,434.973
	z"/>
<path fill="#E1171A" d="M179.696,379.965H129.54v83.162c11.695,20.53,24.429,40.455,38.202,59.859
	c3.898,5.458,7.883,10.915,11.955,16.286V379.965z"/>
<path fill="#E1171A" d="M329.906,539.271c4.071-5.371,8.056-10.828,11.954-16.286c13.773-19.404,26.507-39.329,38.203-59.859
	v-83.162h-50.157V539.271z"/>
<path fill="#E1171A" d="M279.835,410.978v-31.013h-50.069v31.013c7.709-3.379,16.199-5.285,25.035-5.285
	C263.637,405.693,272.126,407.599,279.835,410.978z"/>
<path fill="#E1171A" d="M254.801,620.44c8.576-7.536,16.892-15.333,25.034-23.475v-71.121c-7.709,3.379-16.199,5.198-25.034,5.198
	c-8.836,0-17.326-1.819-25.035-5.198v71.121C237.909,605.107,246.225,612.904,254.801,620.44z"/>
<path fill="#FFFFFF" d="M129.54,379.965H90.038c9.183,23.736,19.924,46.952,32.052,69.475c2.426,4.591,4.938,9.096,7.45,13.687
	V379.965z"/>
<path fill="#FFFFFF" d="M229.766,379.965h-50.07v159.306c9.875,13.081,20.357,25.728,31.359,37.943
	c6.063,6.756,12.301,13.34,18.711,19.751v-71.121c-22.089-9.702-37.596-31.878-37.596-57.433c0-25.641,15.507-47.731,37.596-57.433
	V379.965z"/>
<path fill="#FFFFFF" d="M380.063,463.126c2.512-4.591,5.024-9.096,7.45-13.687c12.128-22.522,22.87-45.739,32.052-69.475h-39.501
	V463.126z"/>
<path fill="#FFFFFF" d="M279.835,596.965c6.411-6.411,12.648-12.995,18.712-19.751c11.002-12.215,21.483-24.862,31.359-37.943
	V379.965h-50.071v31.013c22.09,9.702,37.597,31.792,37.597,57.433c0,25.555-15.506,47.731-37.597,57.433V596.965z"/>
</svg>
