<?xml version="1.0" encoding="UTF-8" standalone="no"?>
<svg xmlns:dc="http://purl.org/dc/elements/1.1/" xmlns:cc="http://creativecommons.org/ns#" xmlns:rdf="http://www.w3.org/1999/02/22-rdf-syntax-ns#" xmlns:svg="http://www.w3.org/2000/svg" xmlns="http://www.w3.org/2000/svg" xmlns:sodipodi="http://sodipodi.sourceforge.net/DTD/sodipodi-0.dtd" xmlns:inkscape="http://www.inkscape.org/namespaces/inkscape" inkscape:version="1.0 (4035a4f, 2020-05-01)" sodipodi:docname="28.svg" id="svg4288" height="200.0pt" width="200.0pt" viewBox="0 0 200 200" version="1.1">
  <metadata id="metadata4294">
    <rdf:RDF>
      <cc:Work rdf:about="">
        <dc:format>image/svg+xml</dc:format>
        <dc:type rdf:resource="http://purl.org/dc/dcmitype/StillImage"/>
      </cc:Work>
    </rdf:RDF>
  </metadata>
  <defs id="defs4292"/>
  <sodipodi:namedview inkscape:current-layer="svg4288" inkscape:cy="133.33333" inkscape:cx="133.33333" inkscape:zoom="1.75125" showgrid="false" id="namedview4290" inkscape:window-height="480" inkscape:window-width="640" inkscape:pageshadow="2" inkscape:pageopacity="0" guidetolerance="10" gridtolerance="10" objecttolerance="10" borderopacity="1" bordercolor="#666666" pagecolor="#ffffff"/>
  <path style="fill:#ffffff;fill-opacity:0" id="path4250" fill="#ffffff" d="M 0.00 0.00 L 200.00 0.00 L 200.00 128.61 C 195.91 114.29 192.36 99.82 188.40 85.47 C 162.94 85.55 137.47 85.43 112.00 85.53 C 108.05 85.40 104.73 86.34 101.54 83.44 C 91.55 75.39 76.72 74.79 66.24 82.25 C 64.36 83.41 62.32 85.57 60.02 85.47 C 54.51 85.66 48.99 85.42 43.48 85.47 C 42.49 81.96 41.56 78.44 40.68 74.89 C 76.58 74.85 112.48 74.88 148.38 74.88 C 147.39 70.92 146.33 66.98 145.20 63.06 C 96.95 63.15 48.69 63.08 0.44 63.10 C 1.53 67.00 2.55 70.90 3.51 74.83 C 6.42 74.85 9.33 74.87 12.23 74.87 C 17.05 92.83 21.85 110.79 26.53 128.78 C 36.01 128.89 45.49 128.80 54.97 128.83 C 52.19 118.27 49.28 107.74 46.61 97.15 C 49.22 97.14 51.82 97.13 54.42 97.12 C 53.00 103.10 52.21 108.96 54.01 114.97 C 57.11 126.90 67.69 135.88 79.95 137.03 C 88.97 137.98 97.37 134.81 104.08 128.86 C 136.05 128.76 168.03 128.88 200.00 128.80 L 200.00 200.00 L 0.00 200.00 L 0.00 0.00 Z"/>
  <path id="path4252" fill="#faef33" d="M 0.44 63.10 C 48.69 63.08 96.95 63.15 145.20 63.06 C 146.33 66.98 147.39 70.92 148.38 74.88 C 112.48 74.88 76.58 74.85 40.68 74.89 C 41.56 78.44 42.49 81.96 43.48 85.47 C 48.99 85.42 54.51 85.66 60.02 85.47 C 62.32 85.57 64.36 83.41 66.24 82.25 C 76.72 74.79 91.55 75.39 101.54 83.44 C 104.73 86.34 108.05 85.40 112.00 85.53 C 137.47 85.43 162.94 85.55 188.40 85.47 C 192.36 99.82 195.91 114.29 200.00 128.61 L 200.00 128.80 C 168.03 128.88 136.05 128.76 104.08 128.86 C 97.37 134.81 88.97 137.98 79.95 137.03 C 67.69 135.88 57.11 126.90 54.01 114.97 C 52.21 108.96 53.00 103.10 54.42 97.12 C 51.82 97.13 49.22 97.14 46.61 97.15 C 49.28 107.74 52.19 118.27 54.97 128.83 C 45.49 128.80 36.01 128.89 26.53 128.78 C 21.85 110.79 17.05 92.83 12.23 74.87 C 9.33 74.87 6.42 74.85 3.51 74.83 C 2.55 70.90 1.53 67.00 0.44 63.10 Z"/>
  <path id="path4254" fill="#da2128" d="M 19.54 65.41 C 23.72 81.49 28.21 97.49 32.21 113.61 C 31.69 115.71 30.49 118.44 31.59 120.50 C 32.79 122.64 34.62 124.44 36.15 126.34 C 33.59 126.42 31.03 126.47 28.47 126.52 C 23.65 108.53 18.87 90.52 14.12 72.51 C 11.22 72.50 8.33 72.50 5.43 72.51 C 4.78 70.15 4.14 67.79 3.49 65.43 C 8.84 65.42 14.19 65.43 19.54 65.41 Z"/>
  <path id="path4256" fill="#ffffff" d="M 21.95 65.34 C 23.21 65.37 24.46 65.41 25.72 65.47 C 30.15 80.49 33.80 95.78 37.97 110.87 C 36.77 111.26 35.57 111.64 34.38 112.03 C 30.22 96.47 26.12 80.90 21.95 65.34 Z"/>
  <path id="path4258" fill="#da2128" d="M 28.48 65.54 C 32.30 65.25 36.17 65.45 40.00 65.43 C 74.47 65.42 108.95 65.43 143.42 65.42 C 144.07 67.77 144.71 70.12 145.37 72.47 C 109.42 72.52 73.47 72.46 37.52 72.50 C 38.89 77.58 40.24 82.67 41.62 87.76 C 47.70 87.71 53.79 87.74 59.87 87.71 C 58.35 90.04 56.88 92.39 55.46 94.78 C 51.45 94.77 47.45 94.77 43.45 94.78 C 46.31 105.32 49.02 115.90 51.90 126.44 C 49.43 126.46 46.96 126.47 44.49 126.49 C 44.19 125.12 43.90 123.75 43.61 122.38 C 44.15 120.25 45.29 117.86 44.36 115.69 C 43.56 113.99 41.90 112.60 40.60 111.27 C 36.84 97.92 33.51 84.44 29.79 71.07 C 29.30 69.25 28.77 67.40 28.48 65.54 Z"/>
  <path id="path4260" fill="#da2128" d="M 87.07 79.95 C 87.71 82.42 88.37 84.89 89.05 87.35 C 84.97 87.20 81.28 86.82 77.41 88.40 C 69.47 91.41 64.17 99.53 64.72 108.03 C 65.18 118.09 73.90 126.59 83.99 126.70 C 89.45 126.98 93.92 124.64 98.18 121.49 C 98.77 123.89 99.38 126.29 99.99 128.69 C 95.96 131.28 91.88 133.49 87.04 134.11 C 77.60 135.57 67.71 131.69 61.77 124.21 C 56.82 118.06 54.73 109.79 56.23 102.03 C 57.73 93.77 63.29 86.52 70.75 82.74 C 75.86 80.06 81.39 79.57 87.07 79.95 Z"/>
  <path id="path4262" fill="#1b1907" d="M 99.38 82.82 C 95.95 85.22 92.73 87.46 90.68 91.25 C 89.74 91.29 88.79 91.32 87.85 91.36 C 89.67 87.87 91.73 85.24 94.88 82.89 C 96.98 81.86 97.21 81.65 99.38 82.82 Z"/>
  <path id="path4264" fill="#ffffff" d="M 106.18 87.67 C 133.00 87.80 159.81 87.65 186.63 87.75 C 190.02 100.65 193.46 113.55 196.92 126.44 C 166.66 126.50 136.40 126.40 106.14 126.49 C 109.02 122.49 111.53 118.45 112.43 113.52 C 114.26 105.43 112.50 97.03 107.88 90.19 C 107.32 89.35 106.75 88.51 106.18 87.67 Z"/>
  <path id="path4266" fill="#000000" d="M 105.96 88.33 L 106.05 90.49 C 104.41 91.78 102.44 92.70 100.62 93.72 C 106.56 99.41 111.53 108.33 111.02 116.71 L 109.37 117.67 C 108.62 113.52 108.18 109.53 106.34 105.68 C 104.59 101.62 101.86 98.28 98.79 95.15 C 97.04 97.35 95.50 99.65 94.07 102.07 C 99.52 106.84 102.36 112.41 104.01 119.39 C 103.27 119.56 102.52 119.73 101.78 119.90 C 100.36 114.18 98.21 109.57 94.19 105.23 C 92.98 105.61 91.77 105.98 90.55 106.35 C 91.55 102.64 92.67 99.11 95.08 96.04 C 97.87 92.29 101.74 90.13 105.96 88.33 Z"/>
  <path id="path4268" fill="#030000" d="M 87.88 90.55 L 87.11 92.90 C 87.83 92.39 88.55 91.88 89.27 91.37 C 89.66 95.62 89.43 99.84 89.09 104.08 C 88.64 107.19 90.87 110.04 91.37 113.11 C 91.76 115.44 92.11 117.77 92.56 120.08 C 90.69 122.32 89.51 123.40 86.61 124.05 C 86.55 123.17 86.49 122.28 86.43 121.40 C 87.01 120.91 87.59 120.42 88.16 119.93 C 86.99 118.53 85.82 117.13 84.66 115.72 C 83.13 117.98 81.93 120.32 80.88 122.83 C 78.75 122.25 76.65 121.61 74.58 120.84 C 74.58 120.01 74.58 119.18 74.58 118.36 C 75.74 118.45 76.90 118.55 78.06 118.66 C 78.45 114.59 79.27 113.06 82.15 110.26 C 81.90 109.64 81.65 109.03 81.40 108.42 C 78.69 108.47 75.86 109.28 73.68 107.27 C 71.81 106.14 73.06 104.54 73.36 102.94 C 74.42 103.73 75.48 104.52 76.54 105.32 C 77.45 104.84 78.36 104.36 79.27 103.87 C 77.51 102.68 75.45 101.60 73.99 100.03 C 73.01 98.65 72.74 96.72 72.20 95.14 C 74.78 95.50 75.28 96.00 76.74 98.01 C 78.06 98.45 79.38 98.87 80.71 99.29 C 81.37 98.89 82.04 98.48 82.70 98.08 C 82.27 96.99 81.83 95.92 81.40 94.83 C 80.83 94.09 80.26 93.36 79.67 92.63 C 82.38 91.84 85.11 91.12 87.88 90.55 Z"/>
  <path id="path4270" fill="#da2027" d="M 111.84 90.60 C 114.14 90.62 116.44 90.65 118.74 90.69 C 121.22 100.43 123.89 110.13 126.44 119.85 C 127.47 119.85 128.50 119.86 129.53 119.87 C 126.93 110.11 124.37 100.34 121.72 90.60 C 123.13 90.62 124.54 90.64 125.95 90.66 C 128.41 99.98 130.87 109.21 133.35 118.51 C 133.62 120.17 134.46 122.57 132.29 123.27 C 129.42 123.83 126.28 123.71 123.38 123.40 C 120.50 122.91 119.78 120.47 119.07 118.02 C 116.96 109.86 114.77 101.71 112.61 93.56 C 112.35 92.57 112.09 91.59 111.84 90.60 Z"/>
  <path id="path4272" fill="#da2027" d="M 128.03 90.63 C 130.33 90.63 132.63 90.62 134.93 90.62 C 138.02 96.26 140.89 102.01 144.02 107.63 C 142.78 101.91 141.08 96.29 139.59 90.63 C 140.88 90.62 142.16 90.61 143.45 90.60 C 146.40 101.58 149.29 112.57 152.23 123.55 C 150.12 123.55 148.01 123.55 145.89 123.55 C 142.75 117.71 139.75 111.81 136.47 106.05 C 138.09 111.87 139.64 117.72 141.25 123.54 C 139.77 123.55 138.29 123.56 136.80 123.57 C 133.86 112.60 131.02 101.59 128.03 90.63 Z"/>
  <path id="path4274" fill="#da1f26" d="M 145.58 90.63 C 147.25 90.62 148.93 90.62 150.61 90.61 C 153.56 101.59 156.38 112.60 159.42 123.56 C 157.73 123.56 156.05 123.56 154.37 123.57 C 151.39 112.60 148.56 101.60 145.58 90.63 Z"/>
  <path id="path4276" fill="#da2027" d="M 155.12 90.95 C 158.06 90.37 162.98 90.36 165.91 90.96 C 168.52 91.84 168.87 94.20 169.61 96.51 C 171.45 103.60 173.34 110.67 175.25 117.74 C 175.55 119.55 176.52 121.61 174.97 123.09 C 171.84 123.91 168.33 123.64 165.13 123.50 C 163.33 123.42 161.78 122.59 161.00 120.92 C 159.74 117.93 159.15 114.61 158.28 111.48 C 156.95 106.29 155.46 101.14 154.15 95.95 C 153.91 93.98 152.73 91.97 155.12 90.95 Z"/>
  <path id="path4278" fill="#da2027" d="M 170.13 90.63 C 172.43 90.62 174.73 90.62 177.03 90.63 C 180.10 96.25 182.99 101.98 186.07 107.59 C 184.89 101.90 183.18 96.27 181.67 90.64 C 182.96 90.63 184.25 90.62 185.55 90.60 C 188.50 101.58 191.36 112.57 194.33 123.54 C 192.23 123.55 190.13 123.56 188.03 123.58 C 184.93 117.97 182.09 112.22 178.96 106.63 C 180.15 112.32 181.83 117.93 183.33 123.55 C 181.85 123.55 180.37 123.55 178.89 123.55 C 175.97 112.57 173.08 101.59 170.13 90.63 Z"/>
  <path id="path4280" fill="#ffffff" d="M 160.54 94.02 L 163.46 94.64 C 166.33 102.81 167.96 111.54 170.45 119.87 C 169.42 119.86 168.38 119.85 167.34 119.84 C 165.37 112.40 163.41 104.96 161.42 97.53 C 161.12 96.36 160.83 95.19 160.54 94.02 Z"/>
  <path id="path4282" fill="#161305" d="M 67.82 104.65 C 70.12 106.33 72.59 107.72 74.95 109.31 L 75.64 111.54 C 71.40 110.34 68.82 108.82 65.70 105.72 L 67.82 104.65 Z"/>
  <path id="path4284" fill="#da2128" d="M 35.37 114.32 C 38.34 112.28 42.38 114.43 42.38 117.99 C 42.42 121.51 38.29 123.82 35.36 121.69 C 32.76 119.85 32.79 116.16 35.37 114.32 Z"/>
  <path id="path4286" fill="#fdfac3" d="M 41.77 123.47 C 41.86 124.57 41.96 125.66 42.08 126.75 C 40.46 126.63 38.85 126.50 37.25 126.34 C 38.62 125.15 40.14 124.26 41.77 123.47 Z"/>
</svg>