<?xml version="1.0" encoding="UTF-8" standalone="no"?>
<!-- Created with Inkscape (http://www.inkscape.org/) -->

<svg
   xmlns:dc="http://purl.org/dc/elements/1.1/"
   xmlns:cc="http://creativecommons.org/ns#"
   xmlns:rdf="http://www.w3.org/1999/02/22-rdf-syntax-ns#"
   xmlns:svg="http://www.w3.org/2000/svg"
   xmlns="http://www.w3.org/2000/svg"
   xmlns:sodipodi="http://sodipodi.sourceforge.net/DTD/sodipodi-0.dtd"
   xmlns:inkscape="http://www.inkscape.org/namespaces/inkscape"
   width="700"
   height="700"
   viewBox="0 0 185.20834 185.20834"
   version="1.1"
   id="svg1699"
   inkscape:version="0.92.4 (5da689c313, 2019-01-14)"
   sodipodi:docname="girona-fc-logo.svg"
   inkscape:export-filename="C:\Users\suitedoalex\sites\girona-fc-logo-0.png"
   inkscape:export-xdpi="561.73712"
   inkscape:export-ydpi="561.73712">
  <defs
     id="defs1693">
    <clipPath
       clipPathUnits="userSpaceOnUse"
       id="clipPath18">
      <path
         d="M 0,595.276 H 841.89 V 0 H 0 Z"
         id="path16"
         inkscape:connector-curvature="0" />
    </clipPath>
  </defs>
  <sodipodi:namedview
     id="base"
     pagecolor="#ffffff"
     bordercolor="#666666"
     borderopacity="1.0"
     inkscape:pageopacity="0.0"
     inkscape:pageshadow="2"
     inkscape:zoom="0.7"
     inkscape:cx="5.724746"
     inkscape:cy="312.79855"
     inkscape:document-units="mm"
     inkscape:current-layer="layer1"
     showgrid="false"
     units="px"
     inkscape:window-width="1920"
     inkscape:window-height="1017"
     inkscape:window-x="-8"
     inkscape:window-y="-8"
     inkscape:window-maximized="1" />
  <metadata
     id="metadata1696">
    <rdf:RDF>
      <cc:Work
         rdf:about="">
        <dc:format>image/svg+xml</dc:format>
        <dc:type
           rdf:resource="http://purl.org/dc/dcmitype/StillImage" />
        <dc:title></dc:title>
      </cc:Work>
    </rdf:RDF>
  </metadata>
  <g
     inkscape:label="Layer 1"
     inkscape:groupmode="layer"
     id="layer1"
     transform="translate(0,-111.79161)">
    <g
       transform="matrix(4.7156191,0,0,-4.7156191,-3484.639,2842.2533)"
       id="g12"
       inkscape:export-filename="C:\Users\suitedoalex\sites\girona-fc-logo-4.png"
       inkscape:export-xdpi="92.900223"
       inkscape:export-ydpi="92.900223">
      <g
         id="g14"
         clip-path="url(#clipPath18)">
        <g
           id="g20"
           transform="translate(760.9756,568.0256)">
          <path
             d="M 0,0 C 0.997,0.22 1.785,0.479 1.842,0.498 L 1.891,0.514 1.935,0.539 C 2.063,0.612 2.191,0.738 2.269,0.864 L 4.807,4.737 4.821,4.761 C 4.905,4.906 4.928,5.075 4.884,5.237 4.841,5.399 4.736,5.534 4.588,5.619 L 4.228,5.821 H 4.09 C 3.947,5.821 3.829,5.778 3.229,5.537 3.102,5.486 2.933,5.418 2.809,5.371 L 2.785,5.384 C 2.689,5.439 2.582,5.468 2.473,5.468 2.25,5.468 2.042,5.348 1.931,5.155 L 1.913,5.125 1.922,5.156 C 2,5.445 1.86,5.743 1.604,5.875 l 0.08,0.301 C 1.727,6.337 1.705,6.505 1.622,6.65 1.538,6.795 1.404,6.899 1.242,6.942 L 0.549,7.128 C 0.496,7.143 0.442,7.149 0.388,7.149 0.104,7.149 -0.145,6.958 -0.216,6.686 L -0.298,6.379 h -0.008 c -0.283,0 -0.531,-0.191 -0.604,-0.463 L -0.919,5.882 v 0.033 c 0,0.3 -0.212,0.551 -0.494,0.611 v 0.312 c 0,0.345 -0.28,0.626 -0.625,0.626 h -0.719 c -0.345,0 -0.625,-0.281 -0.625,-0.626 V 6.526 C -3.664,6.466 -3.875,6.215 -3.875,5.915 V 5.881 l -0.01,0.034 c -0.072,0.273 -0.321,0.464 -0.604,0.464 h -0.007 l -0.082,0.306 c -0.072,0.273 -0.321,0.464 -0.605,0.464 -0.054,0 -0.108,-0.006 -0.162,-0.021 L -6.036,6.942 C -6.197,6.899 -6.332,6.796 -6.416,6.651 -6.5,6.506 -6.521,6.337 -6.479,6.177 L -6.397,5.875 C -6.653,5.744 -6.794,5.447 -6.717,5.157 l 0.009,-0.032 -0.017,0.029 c -0.111,0.194 -0.319,0.314 -0.543,0.314 -0.109,0 -0.216,-0.029 -0.312,-0.084 L -7.603,5.371 c -0.125,0.047 -0.293,0.115 -0.419,0.166 -0.602,0.241 -0.72,0.284 -0.863,0.284 L -9.025,5.819 -9.387,5.617 C -9.686,5.444 -9.789,5.061 -9.616,4.763 l 2.554,-3.9 c 0.077,-0.126 0.206,-0.251 0.333,-0.324 l 0.043,-0.025 0.049,-0.016 c 0.057,-0.019 0.855,-0.281 1.859,-0.502 -5.247,-1.107 -9.199,-5.773 -9.199,-11.345 0,-6.394 5.203,-11.596 11.596,-11.596 6.394,0 11.596,5.202 11.596,11.596 C 9.215,-5.771 5.256,-1.102 0,0"
             style="fill:#ffffff;fill-opacity:1;fill-rule:nonzero;stroke:none"
             id="path22"
             inkscape:connector-curvature="0" />
        </g>
        <g
           id="g24"
           transform="translate(758.6094,567.4489)">
          <path
             d="m 0,0 c -5.938,0 -10.771,-4.832 -10.771,-10.771 0,-5.939 4.833,-10.771 10.771,-10.771 5.939,0 10.771,4.832 10.771,10.771 C 10.771,-4.832 5.939,0 0,0"
             style="fill:#bf0c26;fill-opacity:1;fill-rule:nonzero;stroke:none"
             id="path26"
             inkscape:connector-curvature="0" />
        </g>
        <g
           id="g28"
           transform="translate(765.3262,573.1979)">
          <path
             d="m 0,0 -0.238,0.134 c -0.053,0.031 -1.301,-0.521 -1.354,-0.491 l -0.216,0.125 c -0.053,0.03 -0.121,0.012 -0.151,-0.041 l -0.358,-0.621 c -0.031,-0.052 -0.012,-0.121 0.041,-0.151 l 0.214,-0.124 C -2.008,-1.2 -1.99,-1.268 -2.021,-1.321 L -2.209,-1.647 C -2.239,-1.7 -2.312,-1.726 -2.368,-1.706 l -1.315,0.423 c -0.058,0.018 -0.092,0.08 -0.077,0.139 l 0.13,0.485 c 0.016,0.058 0.077,0.094 0.135,0.078 l 0.264,-0.07 c 0.058,-0.016 0.119,0.019 0.135,0.078 l 0.186,0.692 c 0.015,0.059 -0.02,0.12 -0.078,0.136 L -3.252,0.326 C -3.311,0.341 -3.346,0.402 -3.33,0.461 l 0.182,0.678 c 0.016,0.059 -0.019,0.12 -0.078,0.136 L -3.919,1.46 C -3.978,1.476 -4.039,1.441 -4.055,1.382 L -4.236,0.704 C -4.253,0.646 -4.313,0.61 -4.372,0.625 L -4.613,0.69 C -4.671,0.706 -4.732,0.671 -4.749,0.612 l -0.186,-0.693 c -0.015,-0.059 0.021,-0.12 0.08,-0.135 l 0.24,-0.065 c 0.059,-0.016 0.094,-0.077 0.078,-0.136 L -4.675,-0.931 C -4.69,-0.99 -4.752,-1.03 -4.812,-1.02 l -1.34,0.174 c -0.061,0.006 -0.111,0.061 -0.111,0.122 v 0.53 c 0,0.061 0.05,0.111 0.111,0.111 h 0.272 c 0.061,0 0.111,0.049 0.111,0.11 v 0.717 c 0,0.061 -0.05,0.111 -0.111,0.111 h -0.272 c -0.061,0 -0.111,0.05 -0.111,0.111 v 0.702 c 0,0.061 -0.049,0.111 -0.111,0.111 h -0.719 c -0.06,0 -0.11,-0.05 -0.11,-0.111 V 0.966 c 0,-0.061 -0.05,-0.111 -0.11,-0.111 h -0.273 c -0.061,0 -0.111,-0.05 -0.111,-0.111 V 0.027 c 0,-0.061 0.05,-0.11 0.111,-0.11 h 0.273 c 0.06,0 0.11,-0.05 0.11,-0.111 v -0.53 c 0,-0.061 -0.05,-0.116 -0.11,-0.122 l -1.34,-0.174 c -0.061,-0.01 -0.122,0.03 -0.138,0.089 l -0.138,0.514 c -0.015,0.059 0.02,0.12 0.078,0.136 l 0.241,0.065 c 0.059,0.015 0.094,0.076 0.079,0.135 L -8.717,0.612 C -8.732,0.671 -8.794,0.706 -8.853,0.69 L -9.093,0.625 C -9.152,0.61 -9.213,0.646 -9.229,0.704 L -9.411,1.382 C -9.427,1.441 -9.487,1.476 -9.547,1.46 l -0.692,-0.185 c -0.059,-0.016 -0.094,-0.077 -0.078,-0.136 l 0.181,-0.678 c 0.017,-0.059 -0.019,-0.12 -0.078,-0.135 l -0.263,-0.071 c -0.058,-0.016 -0.094,-0.077 -0.079,-0.136 l 0.186,-0.692 c 0.016,-0.059 0.077,-0.094 0.136,-0.078 l 0.263,0.07 c 0.059,0.016 0.119,-0.02 0.136,-0.078 l 0.13,-0.485 c 0.016,-0.059 -0.02,-0.121 -0.077,-0.139 l -1.315,-0.423 c -0.057,-0.02 -0.13,0.006 -0.16,0.059 l -0.188,0.326 c -0.031,0.053 -0.012,0.121 0.041,0.152 l 0.216,0.124 c 0.052,0.03 0.071,0.099 0.04,0.151 l -0.359,0.621 c -0.03,0.053 -0.098,0.071 -0.151,0.041 l -0.215,-0.125 c -0.054,-0.03 -1.301,0.522 -1.354,0.491 L -13.466,0 c -0.053,-0.03 -0.071,-0.099 -0.041,-0.151 l 2.545,-3.883 c 0.03,-0.052 0.099,-0.121 0.151,-0.151 0,0 2.362,-0.783 4.077,-0.783 l 0.003,0.001 v -0.001 c 1.714,0 4.076,0.783 4.076,0.783 0.052,0.03 0.121,0.099 0.151,0.151 l 2.545,3.883 C 0.071,-0.099 0.053,-0.03 0,0"
             style="fill:#181817;fill-opacity:1;fill-rule:nonzero;stroke:none"
             id="path30"
             inkscape:connector-curvature="0" />
        </g>
        <g
           id="g32"
           transform="translate(758.5937,570.1545)">
          <path
             d="M 0,0 C 2.56,0 3.985,-0.941 3.99,-0.932 L 6.452,2.808 6.41,2.84 c 0,0 -1.076,-0.523 -1.215,-0.523 -0.067,0 -0.133,0.017 -0.192,0.052 L 4.93,2.411 4.735,2.075 4.81,2.033 C 4.993,1.927 5.058,1.69 4.95,1.505 L 4.762,1.18 C 4.689,1.054 4.553,0.976 4.405,0.976 4.361,0.976 4.318,0.983 4.276,0.997 L 2.967,1.418 C 2.77,1.479 2.652,1.691 2.706,1.892 l 0.13,0.483 c 0.045,0.169 0.199,0.287 0.373,0.287 0.034,0 0.067,-0.004 0.101,-0.013 L 3.413,2.621 3.514,2.995 3.409,3.023 C 3.311,3.05 3.227,3.114 3.175,3.204 3.123,3.292 3.11,3.397 3.137,3.496 L 3.275,4.015 2.901,4.115 2.762,3.596 C 2.717,3.428 2.563,3.31 2.389,3.31 2.354,3.31 2.321,3.315 2.289,3.324 L 2.208,3.345 2.106,2.971 2.188,2.949 C 2.288,2.923 2.371,2.859 2.423,2.77 2.475,2.68 2.488,2.576 2.462,2.476 L 2.324,1.962 C 2.277,1.788 2.119,1.667 1.938,1.667 1.919,1.667 1.9,1.668 1.881,1.671 L 0.548,1.845 C 0.349,1.867 0.194,2.04 0.194,2.24 v 0.53 c 0,0.212 0.173,0.386 0.386,0.386 H 0.688 V 3.543 H 0.58 C 0.367,3.543 0.194,3.717 0.194,3.93 V 4.467 H -0.195 V 3.93 c 0,-0.213 -0.173,-0.387 -0.386,-0.387 H -0.689 V 3.156 h 0.108 c 0.213,0 0.386,-0.174 0.386,-0.386 V 2.24 c 0,-0.2 -0.155,-0.373 -0.354,-0.395 L -1.882,1.671 C -1.9,1.668 -1.92,1.667 -1.939,1.667 c -0.181,0 -0.339,0.121 -0.385,0.295 l -0.139,0.514 c -0.026,0.1 -0.013,0.204 0.039,0.294 0.052,0.089 0.135,0.153 0.235,0.179 L -2.107,2.971 -2.209,3.345 -2.29,3.324 C -2.322,3.315 -2.355,3.31 -2.389,3.31 c -0.174,0 -0.329,0.118 -0.374,0.286 l -0.139,0.519 -0.374,-0.1 0.139,-0.519 C -3.11,3.397 -3.124,3.292 -3.176,3.204 -3.228,3.114 -3.311,3.05 -3.41,3.023 l -0.105,-0.028 0.101,-0.374 0.103,0.028 c 0.034,0.009 0.067,0.013 0.101,0.013 0.174,0 0.328,-0.118 0.373,-0.287 l 0.13,-0.483 C -2.653,1.691 -2.771,1.479 -2.968,1.418 L -4.277,0.997 C -4.318,0.983 -4.362,0.976 -4.406,0.976 -4.554,0.976 -4.69,1.054 -4.764,1.18 L -4.951,1.505 C -5.058,1.69 -4.994,1.927 -4.81,2.033 L -4.736,2.075 -4.931,2.411 -5.004,2.369 C -5.062,2.334 -5.129,2.317 -5.196,2.317 c -0.138,0 -1.215,0.523 -1.215,0.523 l -0.042,-0.032 2.462,-3.74 C -3.985,-0.941 -2.56,0 0,0"
             style="fill:#c18e00;fill-opacity:1;fill-rule:nonzero;stroke:none"
             id="path34"
             inkscape:connector-curvature="0" />
        </g>
        <g
           id="g36"
           transform="translate(758.6094,547.9772)">
          <path
             d="m 0,0 c -4.797,0 -8.7,3.903 -8.7,8.701 0,4.798 3.903,8.7 8.7,8.7 4.798,0 8.701,-3.902 8.701,-8.7 C 8.701,3.903 4.798,0 0,0"
             style="fill:#ffffff;fill-opacity:1;fill-rule:nonzero;stroke:none"
             id="path38"
             inkscape:connector-curvature="0" />
        </g>
        <g
           id="g40"
           transform="translate(762.8066,563.8093)">
          <path
             d="m 0,0 -6.416,-15.105 c 0.304,-0.085 0.613,-0.153 0.928,-0.202 L 0.788,-0.529 C 0.536,-0.338 0.273,-0.162 0,0"
             style="fill:#bf0c26;fill-opacity:1;fill-rule:nonzero;stroke:none"
             id="path42"
             inkscape:connector-curvature="0" />
        </g>
        <g
           id="g44"
           transform="translate(764.2695,562.7116)">
          <path
             d="m 0,0 -6.073,-14.3 c 0.136,-0.007 0.274,-0.011 0.413,-0.011 0.204,0 0.405,0.008 0.604,0.023 L 0.698,-0.741 C 0.48,-0.48 0.247,-0.232 0,0"
             style="fill:#bf0c26;fill-opacity:1;fill-rule:nonzero;stroke:none"
             id="path46"
             inkscape:connector-curvature="0" />
        </g>
        <g
           id="g48"
           transform="translate(765.5488,561.1838)">
          <path
             d="m 0,0 -5.364,-12.632 c 0.391,0.076 0.773,0.18 1.143,0.309 L 0.574,-1.035 C 0.407,-0.675 0.215,-0.329 0,0"
             style="fill:#bf0c26;fill-opacity:1;fill-rule:nonzero;stroke:none"
             id="path50"
             inkscape:connector-curvature="0" />
        </g>
        <g
           id="g52"
           transform="translate(766.5527,559.0056)">
          <path
             d="m 0,0 -4.102,-9.657 c 0.504,0.265 0.977,0.58 1.413,0.939 l 2.996,7.055 C 0.261,-1.09 0.156,-0.534 0,0"
             style="fill:#bf0c26;fill-opacity:1;fill-rule:nonzero;stroke:none"
             id="path54"
             inkscape:connector-curvature="0" />
        </g>
        <g
           id="g56"
           transform="translate(761.1885,564.5427)">
          <path
             d="m 0,0 -6.446,-15.18 c 0.273,-0.146 0.556,-0.277 0.847,-0.391 l 6.467,15.23 C 0.587,-0.211 0.298,-0.098 0,0"
             style="fill:#bf0c26;fill-opacity:1;fill-rule:nonzero;stroke:none"
             id="path58"
             inkscape:connector-curvature="0" />
        </g>
        <g
           id="g60"
           transform="translate(759.418,564.9147)">
          <path
             d="m 0,0 -6.172,-14.535 c 0.243,-0.207 0.499,-0.402 0.766,-0.581 L 0.95,-0.148 C 0.64,-0.081 0.322,-0.031 0,0"
             style="fill:#bf0c26;fill-opacity:1;fill-rule:nonzero;stroke:none"
             id="path62"
             inkscape:connector-curvature="0" />
        </g>
        <g
           id="g64"
           transform="translate(757.4727,564.8762)">
          <path
             d="m 0,0 -5.55,-13.069 c 0.206,-0.283 0.43,-0.553 0.671,-0.806 L 1.046,0.077 C 0.692,0.074 0.343,0.047 0,0"
             style="fill:#bf0c26;fill-opacity:1;fill-rule:nonzero;stroke:none"
             id="path66"
             inkscape:connector-curvature="0" />
        </g>
        <g
           id="g68"
           transform="translate(755.2803,564.2546)">
          <path
             d="m 0,0 -4.435,-10.442 c 0.147,-0.397 0.324,-0.78 0.527,-1.146 L 1.191,0.419 C 0.78,0.31 0.382,0.169 0,0"
             style="fill:#bf0c26;fill-opacity:1;fill-rule:nonzero;stroke:none"
             id="path70"
             inkscape:connector-curvature="0" />
        </g>
        <g
           id="g72"
           transform="translate(752.5039,562.2595)">
          <path
             d="m 0,0 -2.154,-5.073 c -0.011,-0.168 -0.016,-0.338 -0.016,-0.509 0,-0.535 0.051,-1.058 0.149,-1.564 L 1.586,1.349 C 1.002,0.967 0.469,0.513 0,0"
             style="fill:#bf0c26;fill-opacity:1;fill-rule:nonzero;stroke:none"
             id="path74"
             inkscape:connector-curvature="0" />
        </g>
        <g
           id="g76"
           transform="translate(758.6094,567.4489)">
          <path
             d="m 0,0 c -5.938,0 -10.771,-4.832 -10.771,-10.771 0,-5.939 4.833,-10.771 10.771,-10.771 5.939,0 10.771,4.832 10.771,10.771 C 10.771,-4.832 5.939,0 0,0 m 0,-21.853 c -6.11,0 -11.081,4.972 -11.081,11.082 0,6.11 4.971,11.082 11.081,11.082 6.11,0 11.082,-4.972 11.082,-11.082 0,-6.11 -4.972,-11.082 -11.082,-11.082"
             style="fill:#181817;fill-opacity:1;fill-rule:nonzero;stroke:none"
             id="path78"
             inkscape:connector-curvature="0" />
        </g>
        <g
           id="g80"
           transform="translate(760.7891,561.6721)">
          <path
             d="m 0,0 v -10.085 l 1.479,1.479 v 7.127 z"
             style="fill:#fccb00;fill-opacity:1;fill-rule:nonzero;stroke:none"
             id="path82"
             inkscape:connector-curvature="0" />
        </g>
        <g
           id="g84"
           transform="translate(759.3154,550.614)">
          <path
             d="M 0,0 V 12.192 L -0.742,12.935 -1.467,12.21 V -0.018 l 0.725,-0.724 z"
             style="fill:#fccb00;fill-opacity:1;fill-rule:nonzero;stroke:none"
             id="path86"
             inkscape:connector-curvature="0" />
        </g>
        <g
           id="g88"
           transform="translate(760.7891,552.0866)">
          <path
             d="M 0,0 V 9.248 L -1.474,10.72 V -1.473 Z"
             style="fill:#bf0c26;fill-opacity:1;fill-rule:nonzero;stroke:none"
             id="path90"
             inkscape:connector-curvature="0" />
        </g>
        <g
           id="g92"
           transform="translate(756.376,561.3513)">
          <path
             d="m 0,0 v -9.282 l 1.473,-1.473 V 1.473 Z"
             style="fill:#bf0c26;fill-opacity:1;fill-rule:nonzero;stroke:none"
             id="path94"
             inkscape:connector-curvature="0" />
        </g>
        <g
           id="g96"
           transform="translate(753.4307,558.4059)">
          <path
             d="M 0,0 V -3.391 L 1.467,-4.858 V 1.467 Z"
             style="fill:#bf0c26;fill-opacity:1;fill-rule:nonzero;stroke:none"
             id="path98"
             inkscape:connector-curvature="0" />
        </g>
        <g
           id="g100"
           transform="translate(763.7344,555.0324)">
          <path
             d="M 0,0 V 3.356 L -1.467,4.822 V -1.467 Z"
             style="fill:#bf0c26;fill-opacity:1;fill-rule:nonzero;stroke:none"
             id="path102"
             inkscape:connector-curvature="0" />
        </g>
        <g
           id="g104"
           transform="translate(754.8975,559.8727)">
          <path
             d="M 0,0 V -6.325 L 1.479,-7.804 V 1.479 Z"
             style="fill:#fccb00;fill-opacity:1;fill-rule:nonzero;stroke:none"
             id="path106"
             inkscape:connector-curvature="0" />
        </g>
        <g
           id="g108"
           transform="translate(751.7354,556.7101)">
          <path
             d="M 0,0 1.695,-1.695 V 1.696 Z"
             style="fill:#fccb00;fill-opacity:1;fill-rule:nonzero;stroke:none"
             id="path110"
             inkscape:connector-curvature="0" />
        </g>
        <g
           id="g112"
           transform="translate(762.2676,553.4865)">
          <path
             d="M 0,0 V 6.289 L -1.479,7.768 V -1.479 Z"
             style="fill:#fccb00;fill-opacity:1;fill-rule:nonzero;stroke:none"
             id="path114"
             inkscape:connector-curvature="0" />
        </g>
        <g
           id="g116"
           transform="translate(765.4121,556.7101)">
          <path
             d="M 0,0 -1.678,1.678 V -1.678 Z"
             style="fill:#fccb00;fill-opacity:1;fill-rule:nonzero;stroke:none"
             id="path118"
             inkscape:connector-curvature="0" />
        </g>
        <g
           id="g120"
           transform="translate(756.376,552.069)">
          <path
             d="M 0,0 -1.479,1.479 -2.945,2.946 -4.641,4.641 -2.945,6.337 -1.479,7.804 0,9.282 1.473,10.755 2.197,11.48 2.939,10.737 4.413,9.265 5.892,7.786 7.358,6.319 9.036,4.641 7.358,2.963 5.892,1.497 4.413,0.018 2.939,-1.455 2.197,-2.197 1.473,-1.473 Z M 2.197,12.079 -5.24,4.641 2.197,-2.797 9.636,4.641 Z"
             style="fill:#181817;fill-opacity:1;fill-rule:nonzero;stroke:none"
             id="path122"
             inkscape:connector-curvature="0" />
        </g>
        <g
           id="g124"
           transform="translate(758.5625,552.8781)">
          <path
             d="M 0,0 -0.081,0.034 C -0.607,0.25 -3.229,1.383 -3.229,2.41 L -3.233,6.786 H 3.232 L 3.229,2.409 C 3.229,1.383 0.606,0.25 0.08,0.034 Z"
             style="fill:#ffffff;fill-opacity:1;fill-rule:nonzero;stroke:none"
             id="path126"
             inkscape:connector-curvature="0" />
        </g>
        <g
           id="g128"
           transform="translate(761.0391,554.6891)">
          <path
             d="m 0,0 v 0.002 0.83 C 0,1.038 0.175,1.206 0.393,1.213 L 0.392,0.599 C 0.392,0.422 0.241,0.215 0,0 m -3.251,-1.066 c 0.065,0.128 0.205,0.216 0.365,0.216 0.224,0 0.407,-0.171 0.407,-0.382 V -1.42 c -0.238,0.1 -0.502,0.221 -0.772,0.354 m -1.828,5.68 C -5.141,4.523 -5.237,4.463 -5.35,4.462 v 0.152 z m 4.391,0 H -0.14 C -0.202,4.522 -0.301,4.461 -0.414,4.461 c -0.113,0 -0.212,0.061 -0.274,0.153 m -1.647,0 h 0.549 C -1.849,4.522 -1.947,4.461 -2.061,4.461 c -0.113,0 -0.211,0.061 -0.274,0.153 m -1.645,0 h 0.547 C -3.495,4.522 -3.593,4.461 -3.706,4.461 -3.82,4.461 -3.918,4.522 -3.98,4.614 M 0.396,4.062 C 0.135,4.056 -0.07,3.856 -0.07,3.609 V 2.78 c 0,-0.211 -0.153,-0.383 -0.344,-0.383 -0.192,0 -0.344,0.172 -0.344,0.383 v 0.829 c 0,0.251 -0.211,0.454 -0.477,0.454 -0.266,0 -0.481,-0.203 -0.481,-0.454 L -1.717,2.78 c 0,-0.211 -0.151,-0.383 -0.344,-0.383 -0.191,0 -0.343,0.172 -0.343,0.383 v 0.829 c 0,0.251 -0.216,0.454 -0.482,0.454 -0.266,0 -0.476,-0.203 -0.476,-0.454 V 2.78 c 0,-0.211 -0.153,-0.383 -0.344,-0.383 -0.192,0 -0.344,0.172 -0.344,0.383 v 0.829 c 0,0.251 -0.212,0.454 -0.477,0.454 -0.266,0 -0.481,-0.203 -0.481,-0.454 L -5.009,2.78 c 0,-0.209 -0.148,-0.379 -0.339,-0.382 l -0.001,1.279 c 0.226,0.003 0.413,0.205 0.413,0.453 l 0.002,0.382 v 0.102 h 0.813 V 4.13 c 0,-0.25 0.186,-0.454 0.415,-0.454 0.227,0 0.413,0.204 0.413,0.454 v 0.484 h 0.814 V 4.13 c 0,-0.25 0.191,-0.454 0.418,-0.454 0.229,0 0.417,0.204 0.417,0.454 l 0.004,0.382 -0.002,0.102 h 0.813 V 4.13 c 0,-0.25 0.187,-0.454 0.415,-0.454 C -0.187,3.676 0,3.88 0,4.13 v 0.484 h 0.396 z m -1.631,-4.127 c -0.266,0 -0.481,-0.204 -0.481,-0.454 L -1.717,-1.073 C -1.953,-1.19 -2.186,-1.297 -2.4,-1.388 c -10e-4,0.013 -0.004,0.026 -0.004,0.04 v 0.829 c 0,0.25 -0.216,0.454 -0.482,0.454 -0.266,0 -0.476,-0.204 -0.476,-0.454 V -1.01 c -0.234,0.118 -0.467,0.245 -0.688,0.376 v 0.115 c 0,0.25 -0.212,0.454 -0.477,0.454 -0.097,0 -0.184,-0.029 -0.259,-0.075 -0.054,0.042 -0.105,0.084 -0.151,0.126 0,0.006 0.001,0.011 0.001,0.016 l 0.002,0.382 -0.002,0.448 c 0,0.21 0.185,0.382 0.408,0.382 0.224,0 0.407,-0.172 0.407,-0.382 v -0.83 c 0,-0.251 0.186,-0.454 0.415,-0.454 0.227,0 0.413,0.203 0.413,0.454 v 0.83 c 0,0.21 0.184,0.382 0.407,0.382 0.224,0 0.407,-0.172 0.407,-0.382 v -0.83 c 0,-0.251 0.191,-0.454 0.418,-0.454 0.229,0 0.417,0.203 0.417,0.454 l 0.004,0.382 -0.004,0.448 c 0,0.21 0.185,0.382 0.409,0.382 0.224,0 0.406,-0.172 0.406,-0.382 v -0.83 c 0,-0.193 0.113,-0.357 0.268,-0.423 -0.063,-0.042 -0.129,-0.083 -0.197,-0.125 v 0.027 c 0,0.25 -0.211,0.454 -0.477,0.454 M 0.394,1.998 C 0.134,1.991 -0.07,1.792 -0.07,1.545 V 0.716 c 0,-0.212 -0.153,-0.383 -0.344,-0.383 -0.192,0 -0.344,0.171 -0.344,0.383 V 1.545 C -0.758,1.796 -0.969,2 -1.235,2 -1.501,2 -1.716,1.796 -1.716,1.545 L -1.717,0.716 c 0,-0.212 -0.151,-0.383 -0.344,-0.383 -0.191,0 -0.343,0.171 -0.343,0.383 V 1.545 C -2.404,1.796 -2.62,2 -2.886,2 -3.152,2 -3.362,1.796 -3.362,1.545 V 0.716 c 0,-0.212 -0.153,-0.383 -0.344,-0.383 -0.192,0 -0.344,0.171 -0.344,0.383 V 1.545 C -4.05,1.796 -4.262,2 -4.527,2 -4.793,2 -5.008,1.796 -5.008,1.545 L -5.009,0.716 c 0,-0.177 -0.106,-0.323 -0.254,-0.368 -0.052,0.089 -0.083,0.173 -0.083,0.251 l -0.001,1.014 c 0.225,0.004 0.411,0.205 0.411,0.453 l 0.002,0.382 -0.002,0.448 c 0,0.211 0.185,0.382 0.408,0.382 0.224,0 0.407,-0.171 0.407,-0.382 v -0.83 c 0,-0.251 0.186,-0.454 0.415,-0.454 0.227,0 0.413,0.203 0.413,0.454 v 0.83 c 0,0.211 0.184,0.382 0.407,0.382 0.224,0 0.407,-0.171 0.407,-0.382 v -0.83 c 0,-0.251 0.191,-0.454 0.418,-0.454 0.229,0 0.417,0.203 0.417,0.454 l 0.004,0.382 -0.004,0.448 c 0,0.211 0.185,0.382 0.409,0.382 0.224,0 0.406,-0.171 0.406,-0.382 v -0.83 c 0,-0.251 0.187,-0.454 0.415,-0.454 C -0.187,1.612 0,1.815 0,2.066 v 0.83 c 0,0.207 0.176,0.375 0.395,0.381 z m -6.04,2.913 0.003,-4.312 c 0,-0.453 0.519,-0.966 1.584,-1.571 0.753,-0.427 1.518,-0.743 1.526,-0.747 l 0.056,-0.023 0.057,0.023 c 0.008,0.004 0.772,0.32 1.525,0.747 1.066,0.605 1.583,1.118 1.583,1.57 l 0.004,4.313 z"
             style="fill:#bf0c26;fill-opacity:1;fill-rule:nonzero;stroke:none"
             id="path130"
             inkscape:connector-curvature="0" />
        </g>
        <g
           id="g132"
           transform="translate(754.9902,547.05)">
          <path
             d="m 0,0 c -0.129,-0.057 -0.257,-0.051 -0.382,0.001 -0.122,0.051 -0.211,0.14 -0.258,0.255 -0.067,0.165 -0.011,0.296 0.083,0.523 0.095,0.228 0.148,0.36 0.313,0.428 C -0.13,1.254 -0.008,1.256 0.119,1.204 0.37,1.099 0.447,0.874 0.396,0.658 L 0.215,0.733 C 0.239,0.875 0.185,0.987 0.052,1.043 -0.019,1.071 -0.093,1.069 -0.153,1.042 -0.238,1.003 -0.278,0.942 -0.377,0.705 -0.477,0.467 -0.491,0.394 -0.459,0.306 -0.437,0.244 -0.385,0.191 -0.314,0.162 -0.236,0.13 -0.155,0.131 -0.087,0.165 -0.023,0.197 0.019,0.25 0.05,0.326 L 0.077,0.393 -0.175,0.498 -0.111,0.65 0.32,0.471 0.245,0.29 C 0.182,0.137 0.112,0.051 0,0"
             style="fill:#ffffff;fill-opacity:1;fill-rule:nonzero;stroke:none"
             id="path134"
             inkscape:connector-curvature="0" />
        </g>
        <g
           id="g136"
           transform="translate(755.3369,546.7907)">
          <path
             d="M 0,0 0.392,1.22 0.576,1.16 0.185,-0.06 Z"
             style="fill:#ffffff;fill-opacity:1;fill-rule:nonzero;stroke:none"
             id="path138"
             inkscape:connector-curvature="0" />
        </g>
        <g
           id="g140"
           transform="translate(756.583,547.5949)">
          <path
             d="M 0,0 -0.281,0.064 -0.37,-0.327 -0.089,-0.391 C 0.037,-0.42 0.139,-0.368 0.167,-0.245 0.195,-0.122 0.126,-0.029 0,0 m -0.026,-1.129 -0.144,0.587 -0.237,0.053 -0.12,-0.527 -0.19,0.044 0.285,1.25 0.485,-0.111 C 0.289,0.113 0.406,-0.074 0.357,-0.286 0.316,-0.466 0.182,-0.555 0.032,-0.562 L 0.194,-1.18 Z"
             style="fill:#ffffff;fill-opacity:1;fill-rule:nonzero;stroke:none"
             id="path142"
             inkscape:connector-curvature="0" />
        </g>
        <g
           id="g144"
           transform="translate(757.7656,547.3405)">
          <path
             d="M 0,0 C -0.04,0.053 -0.106,0.091 -0.181,0.1 -0.257,0.108 -0.33,0.085 -0.38,0.042 -0.449,-0.02 -0.47,-0.09 -0.498,-0.346 c -0.028,-0.256 -0.023,-0.328 0.032,-0.404 0.039,-0.053 0.106,-0.091 0.181,-0.099 0.075,-0.008 0.148,0.015 0.198,0.058 0.07,0.061 0.09,0.131 0.118,0.387 C 0.06,-0.147 0.055,-0.075 0,0 m 0.048,-0.923 c -0.099,-0.078 -0.216,-0.115 -0.353,-0.1 -0.135,0.015 -0.241,0.076 -0.319,0.173 -0.111,0.139 -0.095,0.281 -0.067,0.526 0.027,0.244 0.041,0.386 0.179,0.497 0.097,0.079 0.214,0.115 0.35,0.1 C -0.026,0.258 0.081,0.197 0.159,0.1 0.271,-0.039 0.252,-0.18 0.225,-0.425 0.197,-0.67 0.186,-0.812 0.048,-0.923"
             style="fill:#ffffff;fill-opacity:1;fill-rule:nonzero;stroke:none"
             id="path146"
             inkscape:connector-curvature="0" />
        </g>
        <g
           id="g148"
           transform="translate(759.0293,546.2717)">
          <path
             d="m 0,0 -0.606,0.893 0.013,-0.903 -0.193,-0.003 -0.021,1.282 0.178,0.002 0.607,-0.89 -0.015,0.9 0.194,0.003 0.021,-1.282 z"
             style="fill:#ffffff;fill-opacity:1;fill-rule:nonzero;stroke:none"
             id="path150"
             inkscape:connector-curvature="0" />
        </g>
        <g
           id="g152"
           transform="translate(759.8379,547.3366)">
          <path
             d="m 0,0 -0.125,-0.589 0.391,0.05 z m 0.461,-0.94 -0.12,0.243 -0.502,-0.064 -0.055,-0.266 -0.205,-0.027 0.302,1.33 0.155,0.02 0.63,-1.21 z"
             style="fill:#ffffff;fill-opacity:1;fill-rule:nonzero;stroke:none"
             id="path154"
             inkscape:connector-curvature="0" />
        </g>
        <g
           id="g156"
           transform="translate(760.9756,547.7272)">
          <path
             d="M 0,0 0.13,-0.453 0.67,-0.298 0.703,-0.416 0.163,-0.571 0.319,-1.113 0.188,-1.151 -0.166,0.08 0.599,0.3 0.632,0.182 Z"
             style="fill:#ffffff;fill-opacity:1;fill-rule:nonzero;stroke:none"
             id="path158"
             inkscape:connector-curvature="0" />
        </g>
        <g
           id="g160"
           transform="translate(762.5312,547.0178)">
          <path
             d="m 0,0 c -0.117,-0.047 -0.242,-0.047 -0.354,0 -0.157,0.067 -0.205,0.184 -0.306,0.436 -0.102,0.252 -0.15,0.369 -0.083,0.526 0.048,0.113 0.138,0.199 0.254,0.246 0.214,0.087 0.425,0.021 0.555,-0.187 L -0.063,0.969 C -0.154,1.101 -0.295,1.155 -0.443,1.095 -0.521,1.063 -0.584,1.002 -0.615,0.929 -0.658,0.821 -0.635,0.736 -0.533,0.488 -0.433,0.239 -0.392,0.16 -0.285,0.114 -0.212,0.082 -0.125,0.082 -0.046,0.113 0.103,0.174 0.169,0.312 0.142,0.469 L 0.27,0.521 C 0.321,0.282 0.212,0.086 0,0"
             style="fill:#ffffff;fill-opacity:1;fill-rule:nonzero;stroke:none"
             id="path162"
             inkscape:connector-curvature="0" />
        </g>
      </g>
    </g>
  </g>
</svg>
