<svg height="418.99963" width="238.269" xmlns="http://www.w3.org/2000/svg"><path d="m412.57143 1155.1242c-24.24745-3.1412-48.07785-14.0721-62.2304-28.5449-10.35882-10.5931-15.41981-19.1707-19.00852-32.2165-1.91816-6.9729-2.15346-11.153-2.68186-47.6435-.56896-39.2913-.61924-40.0644-2.83806-43.6323-2.18631-3.51566-4.73843-5.04956-10.49116-6.30546l-2.75-.6003v53.01896 53.0191h-22-22v-113.49996-113.50002l26.25.034c14.4375.019 30.75.4439 36.25.9453 23.27644 2.1221 35.39786 9.8427 40.05227 25.5106 1.99581 6.7184 2.9355 31.7602 1.62067 43.1891-.58078 5.0482-2.00843 11.3927-3.17256 14.0988-4.05649 9.4295-14.10165 16.6181-25.03058 17.9125-8.4731 1.0035-7.49789 2.4714 2.5302 3.8086 9.85823 1.3145 17.77312 6.28982 21.48723 13.50702 3.63533 7.06406 4.05862 11.47846 4.33352 45.19256.26779 32.8429.3073 33.4085 2.86726 41.0457 3.29317 9.8247 7.43322 16.2642 14.9023 23.1792 11.23484 10.4015 24.49376 14.7971 45.15569 14.9702l12.746.1067.004 18.1075.004 18.1076-6.14669.6424c-7.91221.827-21.5749.6199-29.85331-.4526zm-89.613-189.86188c5.25665-1.9986 5.73994-4.8272 5.41239-31.677l-.29939-24.5423-2.80576-2.4119c-2.14703-1.8456-3.96657-2.4118-7.75-2.4118h-4.94424v31 31h3.9349c2.1642 0 5.06764-.4307 6.4521-.957zm-128.65463 140.89858c-22.70941-3.1424-34.42463-14.5678-38.36803-37.4189-1.1985-6.9447-1.3884-21.4139-1.1055-84.20416.312-69.22842.4966-76.33532 2.1237-81.76402 6.8218-22.7611 20.96802-31.83589 49.61746-31.82967 30.16826.007 44.14015 9.17207 50.72439 33.27517 1.63008 5.9673 1.77561 12.8929 1.77561 84.50002 0 71.60706-.14553 78.53266-1.77561 84.49996-4.93394 18.0618-13.68866 27.151-30.32589 31.4844-7.30177 1.9019-24.05259 2.6491-32.66613 1.4572zm18.17349-34.8475c1.36194-1.3619 2.09494-4.0018 2.5684-9.25.3644-4.0392.51926-40.5708.34414-81.18118l-.3184-73.8371-2.80576-2.4129c-3.58302-3.0813-7.13115-3.0669-10.23969.042l-2.45455 2.4546v81.04542c0 79.71216.0329 81.07836 2 83.04546 2.60404 2.604 8.34639 2.6536 10.90586.094zm209.26729 34.8982c-21.10768-2.9624-32.67352-13.215-37.90474-33.6009-1.61624-6.2984-1.76841-13.5174-1.76841-83.89136 0-72.20512.11704-77.43592 1.87952-84.00002 6.54224-24.3657 20.58963-33.74337 50.62048-33.79301 30.28246-.0501 45.24771 10.48921 50.40934 35.50081 1.29338 6.2673 1.59066 14.9111 1.59066 46.25v38.54222h-30.03362-30.03362l.28362 39.08906.28362 39.0892 2.36078 1.9108c3.01472 2.4402 7.26323 2.4404 10.27844.0006 2.3594-1.9091 2.36095-1.9258 2.6574-28.5l.29662-26.5897h21.95338 21.95338v23.5422c0 17.5467-.40267 25.5051-1.58114 31.25-3.92922 19.1544-13.56441 29.7193-30.7361 33.7016-8.15358 1.891-24.38309 2.6391-32.50961 1.4985zm20.62347-173.45818c-.33569-29.952-.34522-29.9886-7.79662-29.9886-7.4514 0-7.46093.037-7.79662 29.9886l-.29662 26.4659h8.09324 8.09324zm94.20338 173.53038c-22.22391-3.2275-34.49068-13.339-39.45714-32.5246-1.19653-4.6222-1.54286-11.7493-1.54286-31.75v-25.7899h22 22l .006 23.75c.006 24.6333.72897 30.5024 3.97243 32.2382 3.18924 1.7069 6.99117 1.1335 9.56744-1.4427 2.42654-2.4266 2.45455-2.6626 2.45455-20.6843 0-16.2904-.21649-18.677-2.03499-22.4335-1.11925-2.312-13.03101-16.6595-26.47058-31.88316-18.52204-20.98092-25.22922-29.29062-27.71501-34.33682l-3.27942-6.6573-.33082-22.6854c-.26889-18.4389-.028-23.8676 1.28704-29.0006 5.35889-20.9178 23.18116-32.13947 51.04378-32.13947 29.89947 0 47.53286 12.74277 51.58087 37.27507.49915 3.025.91015 14.6125.91334 25.75l.005 20.25h-22.5-22.5v-23.5455-23.5454l-2.45455-2.4546c-2.70315-2.7031-5.13657-3.0536-8.99533-1.2954-3.56368 1.6237-4.53797 6.1064-4.54454 20.9094-.009 20.0557-.94653 18.3553 27.25019 49.4173 26.4017 29.08458 28.96163 32.34038 31.39604 39.93058 2.05416 6.4046 3.11082 45.6898 1.50616 55.9968-2.82481 18.1444-14.04882 30.1977-32.62559 35.0364-6.99063 1.8208-23.20824 2.6786-30.53238 1.6149zm-470.999959-117.56446v-113.50002h41.999999 42v15.5 15.5h-19.5-19.5v26.5 26.5h19 19v16 16.00002h-19-19v55.49996 55.5h-22.499999-22.5zm568.999959 15.99996v-97.49998h-14.5-14.5v-16-16h51.5 51.5v16 16h-15-15v97.49998 97.5h-22-22zm-267.67133-168.52319c-20.5902-1.99353-43.10544-7.39234-62.82867-15.06535-6.05-2.35365-22.91144-10.33398-37.46987-17.73405-36.15015-18.37519-55.80439-26.02943-81.53013-31.75149-9.90311-2.2027-34.92456-3.02487-43.86516-1.44135-20.9517 3.71089-42.763699 16.36406-66.384799 38.50981l-9.25 8.67224v-34.99063-34.99063l5.0872-4.57389c15.4951-13.93139 41.257599-25.94125 64.912799-30.26068 14.288-2.60901 38.18556-2.36993 52.92588.52947 22.39854 4.40578 43.11864 12.88102 67.57408 27.64016 34.12847 20.59692 62.44162 31.8036 95 37.60212 16.99825 3.02733 52.0886 3.3108 68 .54933 34.20035-5.93557 64.50071-17.70189 98.5-38.2498 24.15338-14.5974 40.90258-21.72138 63.57863-27.04204 10.85771-2.54763 13.66122-2.8009 31.42137-2.83861 21.73145-.0461 28.72797.99796 46.66013 6.96315 17.16105 5.70867 33.71766 15.01073 43.96181 24.69922l5.37806 5.08634v35.07992 35.07991l-7.25-7.08676c-21.7394-21.24992-41.58117-33.59603-62.62822-38.96905-7.72195-1.9713-11.87227-2.39342-23.5-2.39011-31.44151.009-60.29735 8.19885-93.12178 26.42994-33.47553 18.59272-56.04003 27.8879-84 34.60283-23.1201 5.55258-51.07503 7.88571-71.17133 5.94zm-3.82867-83.64872c-20.3234-2.52191-40.94387-7.71431-59.13637-14.891-6.525-2.57402-24.91363-11.26491-40.86363-19.31309-35.89005-18.10969-56.33767-25.78991-82-30.79957-11.86556-2.31633-37.30976-2.32155-50.13566-.0103-23.5664 4.24671-44.699999 14.36009-59.614299 28.52806l-5.75 5.46226v-32.32939-32.3294l3.25-2.87242c14.7472-13.03391 38.130799-23.40346 61.562099-27.29993 14.0246-2.3322 42.41201-1.60932 56.05574 1.42744 23.14841 5.15227 43.67123 13.78269 69.70217 29.31169 48.62508 29.00776 85.0261 40.21937 130.42995 40.17276 21.12833-.0217 34.24885-1.67477 54.46435-6.86206 23.93909-6.14277 49.27473-17.06708 73.59449-31.73273 31.77711-19.16269 52.8301-27.69837 79.94116-32.4112 12.98037-2.25643 36.41893-2.2188 49.5.0795 23.30357 4.09432 46.54991 14.55721 60.65448 27.29985l3.84552 3.47419v31.93046 31.93045l-7.19773-6.1949c-31.1349-26.79698-71.8338-35.56179-119.99224-25.84121-21.39749 4.319-32.48299 8.96029-76.06683 31.84776-31.66024 16.62594-61.61533 26.46377-93.04442 30.55756-10.68936 1.39234-40.69801 1.92008-49.19878.86523zm-6-83.43588c-28.88886-7.08859-58.43899-18.98456-90.74805-36.53236-32.28343-17.53388-60.48581-27.62345-88.88029-31.79746-12.49092-1.83617-19.43902-1.94402-32.66112-.50696-30.6883 3.33541-61.675099 14.87408-75.960499 28.28572l-3.25 3.0512v-32.0798-32.07981l4.0569-3.66522c8.7652-7.91883 20.6812-14.14823 37.153099-19.42279 33.9857-10.88274 70.29797-9.04619 114.78996 5.80571 22.86999 7.63424 41.27008 15.55601 69.75 30.02936l23.25 11.81554v-69.47922-69.47922l-3.25 1.99925c-7.54355 4.64046-20.11908 10.27958-28.04793 12.57727-42.85679 12.41941-89.42311-4.7607-114.36723-42.19448-3.1954-4.7954-5.8155-8.7909-5.8223-8.87887-.01-.088-3.3866.94171-7.5105 2.28818-22.6115 7.38273-46.96 6.84043-69.973499-1.55848-33.8142-12.34063-58.6085-41.41436-66.1521-77.56975-1.6122-7.72669-1.6122-28.27331 0-36 3.1795-15.23889 9.6725-30.10011 18.1433-41.52659 5.4592-7.36412 17.6816-19.42386 23.7677-23.45146l3.8661-2.55845-1.3059-6.23175c-5.8527-27.92798 8.6569-57.48625 35.7691-72.86709 4.666299-2.64725 5.841799-3.7911 5.512999-5.36466-.2299-1.1-1.3656-5.55948-2.5239-9.90996-2.3597-8.86335-2.797299-22.1301-1.0158-30.79082 1.8208-8.85141 8.308-21.082597 14.9447-28.177227 10.4626-11.18449 23.1675-18.0622 39.1761-21.20761l8.4196-1.6543-2.5056-8.13004c-2.2421-7.27531-2.5118-9.91729-2.5652-25.13004-.064-18.2142301.5588-21.8016601 6.1622-35.4999997 8.68199-21.2245443 24.91257-38.4330153 45.77816-48.5363033 14.93728-7.232753 22.24646-8.790554 41.75006-8.898166l16.75007-.09242 3.65257-5.486556c5.23526-7.863923 23.55533-25.812214 32.35524-31.698638 13.8978-9.29648 27.30078-15.15458 44.39601-19.40435 11.71983-2.91348 35.82959-3.6221 49.09364-1.44294 19.66469 3.23073 39.26197 11.42759 55.81368 23.34491 9.55094 6.876734 24.71427 22.453682 30.18873 31.012212 3.30793 5.171463 4.37539 6.162675 6.16968 5.728942 30.94994-7.481542 68.50736 3.731887 90.00894 26.873755 15.11876 16.272113 21.18673 31.8792633 22.05214 56.719233.46963 13.47984-.63738 25.46623-3.26756 35.38032-.45532 1.71628.54455 2.40062 7.04834 4.82409 21.73501 8.09899 44.74655 31.110791 53.81092 53.811538 3.95729 9.91062 4.9802 16.13201 4.45288 27.08274l-.4734 9.83124 7.09903 3.68118c14.36835 7.45066 26.65048 22.92235 31.17367 39.26921 2.29662 8.30002 2.84059 27.81601 1.05917 38-1.7089 9.76937-2.85393 7.71831 10.16305 18.20477 14.38072 11.58509 26.71422 30.47554 30.87886 47.29523 2.66731 10.77245 2.4009 32.32838-.5438 44-7.27116 28.82003-27.4779 53.63749-54.63192 67.09771-16.48266 8.17044-27.18526 10.64527-46.5 10.7525-11.44655.0635-17.67938-.38495-23.83374-1.71501-4.58356-.99058-8.4416-1.65124-8.57342-1.46813-12.59809 17.49971-25.52099 28.76695-43.09284 37.57188-18.85003 9.4454-36.00837 13.54886-57 13.63169-16.18378.0639-24.26878-1.65274-39.74958-8.43957-5.08773-2.23048-9.81292-4.30058-10.50042-4.60023-.99325-.43291-1.25 13.75268-1.25 69.06217 0 38.28385.15747 69.60699.34994 69.60699.19247 0 4.57997-2.30056 9.75-5.11236 52.74299-28.68503 99.28532-45.20298 137.90006-48.94094 36.50313-3.53356 75.58672 5.85225 94.96764 22.80621l5.03236 4.40218v32.03882 32.03881l-3.86405-3.49094c-20.32353-18.36108-70.36572-30.40815-105.13595-25.31023-29.25349 4.28906-57.10484 14.19688-89.75195 31.92828-25.98419 14.11261-49.96133 24.49142-72.74805 31.4899-11.15651 3.4265-26.0725 7.13254-28.75 7.14326-1.65905.007-1.75-7.92367-1.75-152.59333v-152.60035l5.6498 5.1636c15.14242 13.83933 40.24779 23.52003 67.68555 26.09975 48.94197 4.60157 94.81967-18.77613 105.67049-53.84603l1.6522-5.33993 3.6691 4.47766c2.01801 2.46271 6.36265 6.27633 9.65476 8.47471 20.3922 13.61739 46.92518 11.21098 64.07781-5.81154 23.19914-23.02317 16.4-62.64305-13.29997-77.50134-3.73652-1.8693-8.7724-3.69546-11.19084-4.05813l-4.39717-.65939 2.9557-4.64934c4.99273-7.8536 7.16921-16.8214 6.6979-27.59751-.36306-8.30095-.81433-10.14497-4.11909-16.8317-6.74429-13.64614-18.63845-22.3335-34.83411-25.44244-4.60467-.88392-8.52059-1.71896-8.70203-1.85564-.18145-.13668.37486-1.32413 1.23625-2.63877 2.55199-3.89482 5.51555-13.55655 6.17787-20.14094 2.37383-23.59915-14.57509-47.24602-40.24962-56.15566-7.89941-2.74128-17.57135-4.46831-25.0846-4.47912-2.8875-.004-5.25-.19327-5.25-.42027 0-.22699 1.58343-2.814487 3.51873-5.749997 7.52892-11.42001 10.8538-24.68254 10.2378-40.83728-.3466-9.08969-1.00964-13.17674-3.16346-19.5-9.51647-27.9388201-34.65716-46.4132997-63.2551-46.4826397-8.69547-.0211-20.13874 2.08044-26.67088 4.89801-2.65809 1.14655-4.97571 2.08463-5.15025 2.08463-.17455 0-.85871-2.3625-1.52037-5.25-1.96772-8.5872603-7.70564-19.1430063-14.34997-26.3988653-12.61854-13.779912-28.55721-21.157598-47.74372-22.099592-13.5641-.665952-23.08494 1.308325-35.81422 7.426571-16.32223 7.845176-29.11612 23.080776-33.47963 39.8692063-1.44546 5.56135-1.03201 5.47049-11.10893 2.44141-8.79448-2.64358-25.07936-2.90849-34-.55309-34.27101 9.04891-55.72531 42.8276197-49.1604 77.4005597 1.73899 9.15809 6.47681 20.42933 11.20438 26.65514 1.67418 2.20476 3.32105 4.462447 3.65971 5.017077.39196.64194-2.5314 1.08423-8.04398 1.21702-18.97092.45698-34.88923 7.04363-47.76778 19.76528-12.66049 12.50621-17.09799 23.76868-16.13829 40.95943.5508 9.86808 2.8063 16.88519 7.81075 24.30037 1.61459 2.39236 2.93561 4.55218 2.93561 4.79961 0 .24743-4.25286.44987-9.45076.44987-5.198 0-11.8355.49577-14.75 1.10171-12.6907 2.63839-24.5055 11.45875-29.0202 21.66495-6.2307 14.08544-1.2746 33.77669 12.2166 48.53816l4.9756 5.44416-3.7356.60401c-6.6053 1.068-18.0404 7.31917-24.2856 13.2761-11.2673 10.74718-16.042299 21.23549-16.103399 35.37091-.058 13.52262 5.393699 25.1687 15.568799 33.25662 19.1598 15.22951 48.2771 14.17124 68.71969-2.49763l5.63513-4.59488 1.79978 4.16795c3.02704 7.01004 10.04465 17.01423 15.62706 22.27767 19.43228 18.32195 47.8962 28.38223 80.3029 28.38223 32.73782 0 61.03266-10.1035 80.75-28.83414l5.75-5.46226v152.65222 152.65222l-2.25-.0724c-1.2375-.0398-5.85-.95576-10.25-2.03541z" fill="#e53233" transform="matrix(.32691 0 0 .32691 -5.9624203 41.064064)"/></svg>