<?xml version="1.0" encoding="UTF-8" standalone="no"?>
<svg xmlns:dc="http://purl.org/dc/elements/1.1/" xmlns:cc="http://creativecommons.org/ns#" xmlns:rdf="http://www.w3.org/1999/02/22-rdf-syntax-ns#" xmlns:svg="http://www.w3.org/2000/svg" xmlns="http://www.w3.org/2000/svg" xmlns:sodipodi="http://sodipodi.sourceforge.net/DTD/sodipodi-0.dtd" xmlns:inkscape="http://www.inkscape.org/namespaces/inkscape" inkscape:version="1.0 (4035a4f, 2020-05-01)" sodipodi:docname="450.svg" id="svg17291" height="200.0pt" width="200.0pt" viewBox="0 0 200 200" version="1.1">
  <metadata id="metadata17297">
    <rdf:RDF>
      <cc:Work rdf:about="">
        <dc:format>image/svg+xml</dc:format>
        <dc:type rdf:resource="http://purl.org/dc/dcmitype/StillImage"/>
      </cc:Work>
    </rdf:RDF>
  </metadata>
  <defs id="defs17295"/>
  <sodipodi:namedview inkscape:current-layer="svg17291" inkscape:cy="133.33333" inkscape:cx="133.33333" inkscape:zoom="1.75125" showgrid="false" id="namedview17293" inkscape:window-height="480" inkscape:window-width="640" inkscape:pageshadow="2" inkscape:pageopacity="0" guidetolerance="10" gridtolerance="10" objecttolerance="10" borderopacity="1" bordercolor="#666666" pagecolor="#ffffff"/>
  <path style="fill:#ffffff;fill-opacity:0" id="path17083" fill="#ffffff" d="M 0.00 0.00 L 92.42 0.00 C 90.25 1.13 87.94 0.68 85.74 1.67 C 69.79 5.81 56.69 17.16 47.30 30.35 C 36.60 45.65 30.40 63.68 27.98 82.03 C 27.98 85.37 26.77 88.59 27.00 92.00 C 26.84 98.00 26.94 104.00 27.00 110.00 C 28.05 117.89 28.76 125.33 30.87 133.05 C 34.76 148.47 41.81 163.67 52.14 175.88 C 61.32 186.62 72.60 195.00 86.44 198.56 C 88.37 199.36 90.29 198.86 92.14 200.00 L 0.00 200.00 L 0.00 0.00 Z"/>
  <path id="path17085" fill="#7e7044" d="M 92.42 0.00 L 108.85 0.00 L 109.91 1.03 C 112.34 0.65 114.31 1.82 116.68 2.33 C 133.74 7.85 147.00 20.80 156.23 35.82 C 174.29 65.99 177.43 104.41 167.82 137.81 C 160.93 160.55 147.34 182.45 125.86 193.85 C 120.95 196.10 115.20 198.92 109.78 199.00 L 108.64 200.00 L 92.14 200.00 C 90.29 198.86 88.37 199.36 86.44 198.56 C 72.60 195.00 61.32 186.62 52.14 175.88 C 41.81 163.67 34.76 148.47 30.87 133.05 C 28.76 125.33 28.05 117.89 27.00 110.00 C 26.94 104.00 26.84 98.00 27.00 92.00 C 26.77 88.59 27.98 85.37 27.98 82.03 C 30.40 63.68 36.60 45.65 47.30 30.35 C 56.69 17.16 69.79 5.81 85.74 1.67 C 87.94 0.68 90.25 1.13 92.42 0.00 Z"/>
  <path style="fill:#ffffff;fill-opacity:0" id="path17087" fill="#ffffff" d="M 108.85 0.00 L 200.00 0.00 L 200.00 200.00 L 108.64 200.00 L 109.78 199.00 C 115.20 198.92 120.95 196.10 125.86 193.85 C 147.34 182.45 160.93 160.55 167.82 137.81 C 177.43 104.41 174.29 65.99 156.23 35.82 C 147.00 20.80 133.74 7.85 116.68 2.33 C 114.31 1.82 112.34 0.65 109.91 1.03 L 108.85 0.00 Z"/>
  <path id="path17089" fill="#cfa105" d="M 95.99 1.03 C 100.87 1.08 105.48 0.61 110.02 1.83 C 123.04 4.28 134.10 11.37 143.23 20.76 C 161.88 40.16 170.63 67.55 171.97 94.00 C 171.89 100.59 172.41 107.50 171.24 113.98 C 170.19 125.56 167.45 137.12 163.00 147.88 C 157.51 162.06 148.66 175.19 137.03 185.05 C 126.49 193.75 112.84 199.72 99.00 199.00 C 90.98 199.20 82.82 196.83 75.63 193.36 C 60.91 186.04 49.30 172.69 41.69 158.32 C 34.52 144.61 30.12 129.36 28.69 113.98 C 27.55 107.12 28.13 99.94 28.03 93.00 C 29.45 68.11 37.54 42.25 54.32 23.36 C 65.19 11.12 79.35 2.20 95.99 1.03 Z"/>
  <path id="path17091" fill="#9b7903" d="M 93.31 7.35 C 108.86 4.92 124.69 11.49 136.01 21.99 C 137.35 23.34 139.30 24.92 139.81 26.81 C 139.10 27.65 138.83 28.70 139.00 29.95 C 139.03 41.22 138.96 52.51 139.04 63.77 C 142.21 62.92 145.46 62.16 148.69 61.54 C 149.41 55.10 148.78 48.13 149.01 41.59 L 149.04 40.23 C 146.46 35.93 143.49 32.03 140.34 28.16 C 142.96 28.16 143.88 30.90 145.39 32.59 C 147.35 35.41 150.15 38.58 150.99 41.94 L 150.06 42.74 C 149.52 48.56 149.91 55.07 149.89 61.02 C 152.64 61.20 154.97 60.28 157.51 59.43 L 158.04 58.19 C 155.99 52.66 153.02 47.43 150.99 41.94 C 154.49 45.53 155.03 49.93 157.40 54.55 C 157.81 56.02 159.41 58.21 158.79 59.68 C 154.46 61.09 150.09 62.50 145.69 63.70 C 140.16 65.05 134.60 65.78 129.02 66.94 C 125.03 67.24 121.33 68.40 117.29 68.02 L 117.14 67.02 C 120.46 66.64 123.60 65.77 126.98 65.89 C 126.99 56.95 127.04 48.00 126.96 39.06 C 123.34 39.15 120.12 38.36 116.89 39.98 L 117.33 38.32 C 118.99 37.64 120.56 38.21 121.71 36.72 C 121.95 35.15 121.92 33.55 122.09 31.97 L 123.00 32.01 C 123.35 33.93 123.27 36.06 124.25 37.72 C 125.10 37.94 125.98 37.99 126.90 37.89 C 126.78 34.32 127.97 31.47 124.89 28.88 C 125.38 28.25 126.07 27.75 126.96 27.38 C 123.77 26.63 120.26 27.30 116.99 26.96 C 115.84 25.56 117.90 24.30 119.03 23.88 C 120.33 23.84 121.63 23.83 122.94 23.86 C 120.28 22.30 117.29 21.40 114.66 19.71 L 114.41 19.58 C 111.88 22.87 109.82 26.57 107.05 29.65 C 107.68 26.24 110.70 23.37 112.55 20.50 C 113.51 18.78 114.87 18.19 116.34 17.03 L 116.20 14.92 L 116.01 13.06 L 115.96 11.13 C 112.89 9.65 109.43 8.75 106.01 8.84 L 106.02 10.90 L 105.83 12.70 C 105.63 17.74 105.60 22.91 105.83 27.94 L 107.05 29.65 C 106.48 30.70 106.13 31.53 104.82 31.79 C 105.33 25.58 104.93 19.24 105.04 13.00 C 104.90 11.57 105.66 9.53 104.76 8.34 C 101.61 8.05 98.38 8.06 95.23 8.33 L 94.85 9.06 C 95.15 16.58 94.45 24.34 95.18 31.81 C 94.39 31.89 93.98 31.47 93.96 30.56 L 94.54 29.21 C 94.51 23.60 94.78 17.92 94.37 12.33 C 94.25 11.09 94.19 9.85 94.18 8.61 C 90.67 8.77 87.11 9.67 83.88 11.04 C 83.89 12.15 83.82 13.26 83.69 14.36 C 83.42 15.29 83.23 16.24 83.12 17.22 L 83.78 18.07 C 86.25 18.85 87.74 20.90 88.62 23.22 C 87.54 22.38 85.86 19.99 84.37 20.41 C 81.95 21.57 79.31 22.45 77.02 23.86 C 79.11 23.72 84.16 23.54 82.99 26.97 C 79.65 27.16 76.29 26.94 72.94 27.15 C 74.58 28.28 77.05 28.75 77.10 31.13 C 75.90 30.58 74.78 29.27 73.43 29.35 C 72.81 32.10 73.02 35.07 73.16 37.87 C 74.06 38.00 74.91 37.94 75.71 37.69 C 77.02 36.67 76.21 32.53 77.89 32.96 C 78.01 34.22 78.15 35.47 78.32 36.72 C 79.14 37.94 81.22 37.71 82.20 38.87 C 79.23 39.32 76.05 38.77 73.03 39.07 C 72.99 48.01 72.97 56.96 73.04 65.90 C 76.45 65.73 79.61 66.79 82.98 66.95 C 82.98 58.96 83.01 50.97 82.97 42.98 C 83.16 41.47 82.07 40.31 82.20 38.87 C 84.08 39.60 84.99 42.01 85.85 43.71 L 83.33 42.94 C 83.35 51.16 83.32 59.43 83.36 67.64 C 86.87 67.57 91.20 68.50 94.49 67.56 C 94.24 64.01 94.36 60.43 94.40 56.87 C 92.48 53.80 89.97 50.95 88.37 47.69 C 90.85 49.63 91.95 52.22 93.56 54.84 C 94.28 51.37 93.65 47.86 94.44 44.38 C 95.42 40.20 94.60 35.98 95.18 31.81 L 96.16 33.01 C 96.34 35.63 96.34 38.07 96.10 40.69 C 98.84 40.34 101.19 40.34 103.92 40.70 C 103.94 38.33 103.69 35.93 103.55 33.56 C 103.78 32.73 104.21 32.15 104.82 31.79 C 105.44 36.02 104.57 40.44 105.43 44.70 C 106.23 48.15 105.78 51.68 106.63 55.10 C 106.23 55.69 105.86 56.30 105.49 56.90 C 105.51 60.41 105.71 63.97 105.35 67.47 C 107.56 68.96 111.45 67.63 114.11 68.13 C 108.38 69.64 101.93 68.83 96.00 69.05 C 92.15 69.22 88.76 68.95 84.98 68.21 C 80.13 68.01 74.35 67.92 69.72 66.32 L 72.01 65.93 C 72.69 57.29 71.91 46.87 72.41 38.01 C 72.18 32.97 72.67 27.98 72.21 22.95 C 72.24 21.89 72.27 20.83 72.29 19.77 L 72.25 17.51 C 70.10 17.56 68.15 20.49 66.13 21.47 C 66.28 20.54 66.63 19.78 67.20 19.18 C 74.80 13.05 83.67 8.97 93.31 7.35 Z"/>
  <path id="path17093" fill="#ffffff" d="M 95.23 8.33 C 98.38 8.06 101.61 8.05 104.76 8.34 C 105.66 9.53 104.90 11.57 105.04 13.00 C 104.93 19.24 105.33 25.58 104.82 31.79 C 104.21 32.15 103.78 32.73 103.55 33.56 L 102.99 34.07 C 101.61 35.14 101.15 36.76 99.95 38.07 C 98.80 36.73 98.35 35.12 96.90 34.06 L 96.16 33.01 L 95.18 31.81 C 94.45 24.34 95.15 16.58 94.85 9.06 L 95.23 8.33 Z"/>
  <path id="path17095" fill="#cfe5d0" d="M 94.18 8.61 C 94.19 9.85 94.25 11.09 94.37 12.33 C 92.24 12.75 90.91 12.25 89.09 13.68 C 86.47 12.85 86.00 15.66 83.69 14.36 C 83.82 13.26 83.89 12.15 83.88 11.04 C 87.11 9.67 90.67 8.77 94.18 8.61 Z"/>
  <path id="path17097" fill="#ec977a" d="M 106.01 8.84 C 109.43 8.75 112.89 9.65 115.96 11.13 L 116.01 13.06 C 112.62 12.55 109.34 11.75 106.02 10.90 L 106.01 8.84 Z"/>
  <path id="path17099" fill="#e54532" d="M 106.02 10.90 C 109.34 11.75 112.62 12.55 116.01 13.06 L 116.20 14.92 C 112.75 14.05 109.40 13.01 105.83 12.70 L 106.02 10.90 Z"/>
  <path id="path17101" fill="#f8f0c0" d="M 83.06 11.60 L 82.98 13.11 C 82.20 14.76 74.79 18.52 73.02 18.59 C 72.59 17.15 72.89 16.24 73.93 15.87 C 76.77 14.37 79.88 12.13 83.06 11.60 Z"/>
  <path id="path17103" fill="#019138" d="M 94.37 12.33 C 94.78 17.92 94.51 23.60 94.54 29.21 L 93.96 30.56 L 92.84 29.26 C 93.26 27.67 92.68 26.83 91.09 26.74 L 90.95 26.22 C 91.18 24.62 90.54 23.80 89.02 23.76 L 88.62 23.22 C 87.74 20.90 86.25 18.85 83.78 18.07 L 83.12 17.22 C 83.23 16.24 83.42 15.29 83.69 14.36 C 86.00 15.66 86.47 12.85 89.09 13.68 C 90.91 12.25 92.24 12.75 94.37 12.33 Z"/>
  <path id="path17105" fill="#ffef90" d="M 116.99 11.62 C 120.49 12.23 123.67 14.72 126.84 16.28 C 127.37 17.66 126.69 19.33 126.94 20.83 C 123.92 18.77 120.45 17.31 117.13 15.83 C 117.04 14.43 116.99 13.02 116.99 11.62 Z"/>
  <path id="path17107" fill="#ffe730" d="M 82.98 13.11 C 82.94 15.28 83.12 17.55 82.78 19.70 C 80.87 20.46 78.98 21.25 77.11 22.09 C 75.56 22.78 76.00 24.34 75.58 25.73 C 74.79 25.76 74.01 25.77 73.22 25.78 C 73.00 23.40 72.97 20.98 73.02 18.59 C 74.79 18.52 82.20 14.76 82.98 13.11 Z"/>
  <path id="path17109" fill="#e2001a" d="M 105.83 12.70 C 109.40 13.01 112.75 14.05 116.20 14.92 L 116.34 17.03 C 114.87 18.19 113.51 18.78 112.55 20.50 C 110.70 23.37 107.68 26.24 107.05 29.65 L 105.83 27.94 C 105.60 22.91 105.63 17.74 105.83 12.70 Z"/>
  <path id="path17111" fill="#ffe508" d="M 117.13 15.83 C 120.45 17.31 123.92 18.77 126.94 20.83 C 127.02 22.49 127.04 24.16 126.85 25.82 C 126.02 25.82 125.19 25.81 124.36 25.78 C 124.21 24.90 124.07 24.02 123.96 23.13 C 122.36 21.36 119.29 20.83 117.18 19.73 C 116.97 18.46 116.96 17.16 117.13 15.83 Z"/>
  <path id="path17113" fill="#bcc2d7" d="M 72.25 17.51 L 72.29 19.77 C 68.01 21.66 66.04 26.09 61.78 28.27 C 61.07 24.82 63.87 24.47 65.46 22.10 L 66.13 21.47 C 68.15 20.49 70.10 17.56 72.25 17.51 Z"/>
  <path id="path17115" fill="#8796bb" d="M 127.62 17.51 C 128.58 17.30 129.50 17.69 130.36 18.69 C 133.18 21.12 136.94 23.58 138.63 26.95 L 136.48 26.56 C 133.41 24.56 130.63 22.11 127.66 19.97 L 127.62 17.51 Z"/>
  <path id="path17117" fill="#cfa105" d="M 114.41 19.58 L 114.66 19.71 C 117.29 21.40 120.28 22.30 122.94 23.86 C 121.63 23.83 120.33 23.84 119.03 23.88 C 117.90 24.30 115.84 25.56 116.99 26.96 C 120.26 27.30 123.77 26.63 126.96 27.38 C 126.07 27.75 125.38 28.25 124.89 28.88 C 127.97 31.47 126.78 34.32 126.90 37.89 C 125.98 37.99 125.10 37.94 124.25 37.72 C 123.27 36.06 123.35 33.93 123.00 32.01 L 122.09 31.97 C 121.92 33.55 121.95 35.15 121.71 36.72 C 120.56 38.21 118.99 37.64 117.33 38.32 L 116.89 39.98 C 115.74 41.12 114.83 42.57 114.04 43.98 C 111.78 47.80 108.98 51.32 106.63 55.10 C 105.78 51.68 106.23 48.15 105.43 44.70 C 104.57 40.44 105.44 36.02 104.82 31.79 C 106.13 31.53 106.48 30.70 107.05 29.65 C 109.82 26.57 111.88 22.87 114.41 19.58 Z"/>
  <path id="path17119" fill="#7a91bf" d="M 72.29 19.77 C 72.27 20.83 72.24 21.89 72.21 22.95 C 68.73 25.93 65.82 30.02 61.83 32.27 C 61.85 30.94 61.84 29.60 61.78 28.27 C 66.04 26.09 68.01 21.66 72.29 19.77 Z"/>
  <path id="path17121" fill="#cfa105" d="M 84.37 20.41 C 85.86 19.99 87.54 22.38 88.62 23.22 L 89.02 23.76 C 89.33 25.18 89.97 26.00 90.95 26.22 L 91.09 26.74 C 91.30 28.01 91.89 28.85 92.84 29.26 L 93.96 30.56 C 93.98 31.47 94.39 31.89 95.18 31.81 C 94.60 35.98 95.42 40.20 94.44 44.38 C 93.65 47.86 94.28 51.37 93.56 54.84 C 91.95 52.22 90.85 49.63 88.37 47.69 L 87.91 47.27 C 87.73 46.06 87.17 45.19 86.25 44.65 L 85.85 43.71 C 84.99 42.01 84.08 39.60 82.20 38.87 C 81.22 37.71 79.14 37.94 78.32 36.72 C 78.15 35.47 78.01 34.22 77.89 32.96 C 76.21 32.53 77.02 36.67 75.71 37.69 C 74.91 37.94 74.06 38.00 73.16 37.87 C 73.02 35.07 72.81 32.10 73.43 29.35 C 74.78 29.27 75.90 30.58 77.10 31.13 C 77.05 28.75 74.58 28.28 72.94 27.15 C 76.29 26.94 79.65 27.16 82.99 26.97 C 84.16 23.54 79.11 23.72 77.02 23.86 C 79.31 22.45 81.95 21.57 84.37 20.41 Z"/>
  <path id="path17123" fill="#004c93" d="M 127.66 19.97 C 130.63 22.11 133.41 24.56 136.48 26.56 L 138.63 26.95 C 138.82 39.33 138.88 52.30 138.60 64.64 C 134.99 64.94 131.59 66.08 127.91 65.96 C 127.51 58.29 127.84 49.79 127.75 42.00 C 127.47 34.69 127.70 27.27 127.66 19.97 Z"/>
  <path id="path17125" fill="#55542e" d="M 65.46 22.10 C 63.87 24.47 61.07 24.82 61.78 28.27 C 61.84 29.60 61.85 30.94 61.83 32.27 C 61.09 42.46 61.67 52.84 61.49 63.07 L 61.86 64.13 C 64.14 64.80 66.31 64.74 68.43 65.84 C 65.80 66.51 63.75 65.14 60.99 64.97 C 54.47 63.46 47.65 61.95 41.41 59.53 C 41.20 59.08 41.23 58.58 41.50 58.02 C 43.98 59.67 46.92 60.83 49.91 60.99 C 49.86 54.99 50.24 48.85 49.84 42.88 C 46.98 46.83 45.15 51.75 43.24 56.23 C 42.93 56.97 42.35 57.56 41.50 58.02 C 45.75 45.49 52.87 33.56 62.16 24.11 C 63.22 23.17 63.84 21.97 65.46 22.10 Z"/>
  <path id="path17127" fill="#004c93" d="M 72.21 22.95 C 72.67 27.98 72.18 32.97 72.41 38.01 C 71.91 46.87 72.69 57.29 72.01 65.93 L 69.72 66.32 L 68.43 65.84 C 66.31 64.74 64.14 64.80 61.86 64.13 L 61.49 63.07 C 61.67 52.84 61.09 42.46 61.83 32.27 C 65.82 30.02 68.73 25.93 72.21 22.95 Z"/>
  <path id="path17129" fill="#2d5a16" d="M 89.02 23.76 C 90.54 23.80 91.18 24.62 90.95 26.22 C 89.97 26.00 89.33 25.18 89.02 23.76 Z"/>
  <path id="path17131" fill="#d7c100" d="M 78.32 25.19 C 79.11 24.67 79.93 24.66 80.80 25.16 C 81.47 26.49 77.71 26.45 78.32 25.19 Z"/>
  <path id="path17133" fill="#d5bf00" d="M 119.18 25.16 C 120.06 24.66 120.88 24.67 121.64 25.20 C 122.22 26.46 118.51 26.50 119.18 25.16 Z"/>
  <path id="path17135" fill="#f7f1d2" d="M 61.01 26.90 C 61.02 27.92 61.01 28.94 60.98 29.95 C 58.99 33.80 55.98 36.81 53.74 40.59 C 52.93 42.01 52.16 42.72 50.63 43.38 C 50.49 42.19 50.60 41.08 50.96 40.07 C 53.86 35.57 57.18 30.63 61.01 26.90 Z"/>
  <path id="path17137" fill="#3a5b14" d="M 91.09 26.74 C 92.68 26.83 93.26 27.67 92.84 29.26 C 91.89 28.85 91.30 28.01 91.09 26.74 Z"/>
  <path id="path17139" fill="#efe39c" d="M 139.81 26.81 L 140.34 28.16 C 143.49 32.03 146.46 35.93 149.04 40.23 L 149.01 41.59 C 146.06 40.08 144.97 37.47 142.91 35.09 C 141.47 33.48 140.08 31.84 139.00 29.95 C 138.83 28.70 139.10 27.65 139.81 26.81 Z"/>
  <path id="path17141" fill="#ffec6c" d="M 60.98 29.95 C 61.00 31.91 61.01 33.88 60.97 35.83 C 59.02 38.15 58.14 41.05 56.25 43.42 C 54.26 45.87 52.55 48.51 50.71 51.07 C 50.76 48.50 50.66 45.94 50.63 43.38 C 52.16 42.72 52.93 42.01 53.74 40.59 C 55.98 36.81 58.99 33.80 60.98 29.95 Z"/>
  <path id="path17143" fill="#ffe500" d="M 139.00 29.95 C 140.08 31.84 141.47 33.48 142.91 35.09 C 144.97 37.47 146.06 40.08 149.01 41.59 C 148.78 48.13 149.41 55.10 148.69 61.54 C 145.46 62.16 142.21 62.92 139.04 63.77 C 138.96 52.51 139.03 41.22 139.00 29.95 Z"/>
  <path id="path17145" fill="#beaa07" d="M 96.16 33.01 L 96.90 34.06 C 96.86 35.73 97.28 37.29 97.27 38.95 C 99.20 39.03 101.13 39.02 103.06 38.92 C 103.07 37.31 102.99 35.69 102.99 34.07 L 103.55 33.56 C 103.69 35.93 103.94 38.33 103.92 40.70 C 101.19 40.34 98.84 40.34 96.10 40.69 C 96.34 38.07 96.34 35.63 96.16 33.01 Z"/>
  <path id="path17147" fill="#6a5d30" d="M 96.90 34.06 C 98.35 35.12 98.80 36.73 99.95 38.07 C 101.15 36.76 101.61 35.14 102.99 34.07 C 102.99 35.69 103.07 37.31 103.06 38.92 C 101.13 39.02 99.20 39.03 97.27 38.95 C 97.28 37.29 96.86 35.73 96.90 34.06 Z"/>
  <path id="path17149" fill="#ffe500" d="M 60.97 35.83 C 61.01 45.21 60.97 54.58 60.99 63.96 C 57.76 63.16 54.50 62.38 51.26 61.66 C 50.02 58.87 51.01 54.26 50.71 51.07 C 52.55 48.51 54.26 45.87 56.25 43.42 C 58.14 41.05 59.02 38.15 60.97 35.83 Z"/>
  <path id="path17151" fill="#ffe500" d="M 73.03 39.07 C 76.05 38.77 79.23 39.32 82.20 38.87 C 82.07 40.31 83.16 41.47 82.97 42.98 C 83.01 50.97 82.98 58.96 82.98 66.95 C 79.61 66.79 76.45 65.73 73.04 65.90 C 72.97 56.96 72.99 48.01 73.03 39.07 Z"/>
  <path id="path17153" fill="#ffe500" d="M 126.96 39.06 C 127.04 48.00 126.99 56.95 126.98 65.89 C 123.60 65.77 120.46 66.64 117.14 67.02 C 116.72 58.10 117.27 48.90 116.89 39.98 C 120.12 38.36 123.34 39.15 126.96 39.06 Z"/>
  <path id="path17155" fill="#2c3d2a" d="M 116.89 39.98 C 117.27 48.90 116.72 58.10 117.14 67.02 L 117.29 68.02 L 114.87 68.07 L 115.37 67.17 C 116.36 65.78 115.94 63.64 116.05 62.00 C 115.92 56.05 116.21 50.07 115.90 44.13 L 114.04 43.98 C 114.83 42.57 115.74 41.12 116.89 39.98 Z"/>
  <path id="path17157" fill="#054e94" d="M 49.84 42.88 C 50.24 48.85 49.86 54.99 49.91 60.99 C 46.92 60.83 43.98 59.67 41.50 58.02 C 42.35 57.56 42.93 56.97 43.24 56.23 C 45.15 51.75 46.98 46.83 49.84 42.88 Z"/>
  <path id="path17159" fill="#cbb700" d="M 96.05 43.41 C 98.97 43.91 101.08 43.90 104.00 43.36 L 103.91 44.87 C 101.32 45.03 98.67 45.04 96.08 44.85 L 96.05 43.41 Z"/>
  <path id="path17161" fill="#024d93" d="M 150.06 42.74 L 150.99 41.94 C 153.02 47.43 155.99 52.66 158.04 58.19 L 157.51 59.43 C 154.97 60.28 152.64 61.20 149.89 61.02 C 149.91 55.07 149.52 48.56 150.06 42.74 Z"/>
  <path id="path17163" fill="#004c93" d="M 83.33 42.94 L 85.85 43.71 L 86.25 44.65 C 85.76 46.21 86.31 47.08 87.91 47.27 L 88.37 47.69 C 89.97 50.95 92.48 53.80 94.40 56.87 C 94.36 60.43 94.24 64.01 94.49 67.56 C 91.20 68.50 86.87 67.57 83.36 67.64 C 83.32 59.43 83.35 51.16 83.33 42.94 Z"/>
  <path id="path17165" fill="#004c93" d="M 114.04 43.98 L 115.90 44.13 C 116.21 50.07 115.92 56.05 116.05 62.00 C 115.94 63.64 116.36 65.78 115.37 67.17 C 112.06 66.82 108.64 67.10 105.35 67.47 C 105.71 63.97 105.51 60.41 105.49 56.90 C 105.86 56.30 106.23 55.69 106.63 55.10 C 108.98 51.32 111.78 47.80 114.04 43.98 Z"/>
  <path id="path17167" fill="#273e3e" d="M 86.25 44.65 C 87.17 45.19 87.73 46.06 87.91 47.27 C 86.31 47.08 85.76 46.21 86.25 44.65 Z"/>
  <path id="path17169" fill="#ba9004" d="M 100.01 45.82 C 100.58 45.75 104.12 46.06 102.01 46.99 C 100.56 47.08 98.69 47.37 97.34 46.74 C 97.32 46.02 98.20 45.71 100.01 45.82 Z"/>
  <path id="path17171" fill="#ffe500" d="M 95.31 47.59 C 98.18 48.62 101.54 47.87 104.57 48.32 C 104.95 54.69 104.96 61.24 104.88 67.63 C 101.66 67.78 98.44 67.75 95.21 67.66 C 94.76 64.39 94.92 61.22 95.70 58.02 C 94.88 54.59 95.25 51.08 95.31 47.59 Z"/>
  <path id="path17173" fill="#594a00" d="M 95.88 48.89 C 98.59 48.79 101.34 48.97 104.05 48.98 C 104.20 49.97 104.19 50.97 104.04 51.99 C 101.35 52.03 98.66 51.98 95.97 52.02 C 95.84 50.99 95.82 49.95 95.88 48.89 Z"/>
  <path id="path17175" fill="#c29704" d="M 97.22 50.17 C 97.98 49.79 103.27 49.26 102.79 50.77 C 101.46 51.15 98.53 51.15 97.21 50.77 L 97.22 50.17 Z"/>
  <path id="path17177" fill="#776101" d="M 95.89 53.00 C 98.61 53.00 101.33 52.99 104.05 53.00 C 104.19 55.21 104.86 57.84 104.28 59.97 C 103.00 61.80 101.82 63.72 100.48 65.50 C 99.09 66.06 98.60 63.96 97.81 63.15 C 97.27 61.83 94.40 59.63 96.50 58.54 C 97.56 60.34 98.39 62.16 99.99 63.59 C 103.18 60.39 103.63 58.61 102.88 54.10 C 100.99 53.96 99.06 53.95 97.17 54.10 C 96.94 55.53 96.71 56.96 96.47 58.39 C 95.06 57.04 95.82 54.79 95.89 53.00 Z"/>
  <path id="path17179" fill="#cfa105" d="M 97.17 54.10 C 99.06 53.95 100.99 53.96 102.88 54.10 C 103.63 58.61 103.18 60.39 99.99 63.59 C 98.39 62.16 97.56 60.34 96.50 58.54 L 96.47 58.39 C 96.71 56.96 96.94 55.53 97.17 54.10 Z"/>
  <path id="path17181" fill="#867a53" d="M 39.15 65.05 C 40.45 64.50 41.96 65.35 43.24 65.70 C 50.31 68.07 57.64 69.76 64.98 71.00 C 66.03 71.03 66.84 71.51 67.44 72.44 C 58.19 71.31 49.01 68.70 40.15 66.01 C 37.55 73.96 36.19 82.59 35.76 90.99 C 34.91 97.60 35.09 104.41 35.98 111.00 C 35.64 115.15 37.16 118.79 37.20 122.90 C 39.16 123.44 40.15 122.07 41.96 121.89 C 49.49 119.72 56.42 118.42 63.99 116.96 C 66.49 117.22 68.56 115.84 71.02 115.95 C 73.77 116.10 76.31 114.97 79.01 114.98 C 83.73 115.07 88.29 114.05 93.00 114.00 C 98.00 114.00 103.00 113.96 108.00 114.02 C 112.69 114.25 117.28 115.13 122.00 114.99 C 124.36 115.33 126.56 116.05 128.98 115.95 C 131.43 115.87 133.51 117.23 136.01 116.97 C 143.07 118.40 150.22 119.58 157.22 121.75 C 159.47 121.79 160.59 123.53 162.75 122.83 C 162.77 119.43 163.83 116.38 163.99 113.03 C 163.87 109.66 164.59 106.37 164.61 103.00 C 165.12 97.17 163.92 91.72 163.94 85.98 C 162.85 79.34 162.09 72.35 159.81 66.01 C 156.29 66.82 151.95 68.65 148.21 69.25 C 135.88 72.66 123.78 73.82 111.00 75.00 C 104.66 75.00 98.34 75.15 92.00 75.00 C 86.61 75.20 81.39 73.87 75.99 73.88 C 73.44 72.97 70.71 73.37 68.25 72.67 C 70.24 71.19 73.24 72.36 75.53 72.59 C 101.77 75.57 129.09 73.99 154.46 66.44 C 156.38 66.05 158.94 64.39 160.82 65.09 C 162.84 71.66 163.92 78.20 164.89 84.98 C 165.87 97.94 166.07 110.81 163.56 123.63 C 162.98 124.23 162.14 124.35 161.03 123.98 C 122.13 112.36 79.52 112.23 40.53 123.50 C 39.29 123.85 36.28 125.13 36.21 122.89 C 33.26 103.85 33.58 83.60 39.15 65.05 Z"/>
  <path id="path17183" fill="#ffffff" d="M 40.15 66.01 C 49.01 68.70 58.19 71.31 67.44 72.44 L 68.25 72.67 C 70.71 73.37 73.44 72.97 75.99 73.88 C 81.39 73.87 86.61 75.20 92.00 75.00 C 98.34 75.15 104.66 75.00 111.00 75.00 C 123.78 73.82 135.88 72.66 148.21 69.25 C 151.95 68.65 156.29 66.82 159.81 66.01 C 162.09 72.35 162.85 79.34 163.94 85.98 C 163.92 91.72 165.12 97.17 164.61 103.00 C 164.59 106.37 163.87 109.66 163.99 113.03 C 163.83 116.38 162.77 119.43 162.75 122.83 C 160.59 123.53 159.47 121.79 157.22 121.75 C 150.22 119.58 143.07 118.40 136.01 116.97 C 133.51 117.23 131.43 115.87 128.98 115.95 C 126.56 116.05 124.36 115.33 122.00 114.99 C 117.28 115.13 112.69 114.25 108.00 114.02 C 103.00 113.96 98.00 114.00 93.00 114.00 C 88.29 114.05 83.73 115.07 79.01 114.98 C 76.31 114.97 73.77 116.10 71.02 115.95 C 68.56 115.84 66.49 117.22 63.99 116.96 C 56.42 118.42 49.49 119.72 41.96 121.89 C 40.15 122.07 39.16 123.44 37.20 122.90 C 37.16 118.79 35.64 115.15 35.98 111.00 C 35.09 104.41 34.91 97.60 35.76 90.99 C 36.19 82.59 37.55 73.96 40.15 66.01 Z"/>
  <path id="path17185" fill="#033059" d="M 105.35 67.47 C 108.64 67.10 112.06 66.82 115.37 67.17 L 114.87 68.07 L 114.11 68.13 C 111.45 67.63 107.56 68.96 105.35 67.47 Z"/>
  <path id="path17187" fill="#000000" d="M 152.85 73.37 C 153.26 75.06 151.52 77.11 151.14 78.78 C 149.46 79.06 145.79 76.62 146.05 79.93 C 148.37 80.56 150.43 79.58 152.51 81.44 C 155.12 84.70 153.18 89.90 149.50 91.48 C 145.89 93.10 140.95 92.52 137.36 91.01 C 137.30 89.38 139.01 87.54 139.58 85.96 C 140.79 86.38 145.80 88.69 146.14 86.14 C 144.56 85.06 142.04 85.90 140.34 84.65 C 137.37 83.05 137.72 79.07 139.83 76.87 C 143.23 72.96 148.05 72.92 152.85 73.37 Z"/>
  <path id="path17189" fill="#000000" d="M 47.11 73.59 L 47.62 73.18 C 49.77 74.05 52.10 74.22 54.26 74.98 C 54.19 76.93 54.20 78.90 54.24 80.85 C 55.27 81.14 56.34 81.31 57.43 81.36 C 57.37 79.45 57.35 77.52 57.41 75.61 C 59.70 75.94 62.07 76.38 64.34 76.87 C 64.25 82.23 64.30 87.59 64.32 92.94 C 62.04 92.94 59.78 92.88 57.51 92.99 C 57.19 90.87 57.51 88.64 57.36 86.50 C 56.32 86.37 55.28 86.28 54.23 86.22 C 54.16 88.42 54.26 90.63 54.22 92.83 C 51.88 92.85 49.54 92.86 47.20 92.84 C 47.14 86.43 47.31 79.99 47.11 73.59 Z"/>
  <path id="path17191" fill="#000000" d="M 67.77 77.33 C 72.35 77.79 76.97 78.51 81.59 78.77 C 81.67 80.02 81.70 81.28 81.68 82.55 C 79.33 82.35 76.97 82.22 74.62 82.09 L 75.18 83.60 C 77.18 83.66 79.18 83.83 81.18 83.84 C 81.15 85.05 81.15 86.27 81.19 87.48 C 79.74 88.39 73.90 85.94 74.81 89.00 C 77.15 89.14 79.49 89.12 81.83 89.24 C 81.85 90.46 81.85 91.68 81.85 92.90 C 77.67 92.78 71.56 93.29 67.71 92.66 C 67.81 87.55 67.70 82.44 67.77 77.33 Z"/>
  <path id="path17193" fill="#000000" d="M 121.40 78.62 C 124.23 78.71 128.45 77.41 130.87 78.03 C 132.70 82.93 134.81 88.04 136.48 92.95 C 133.92 92.93 131.38 92.90 128.82 92.97 C 128.60 92.17 128.40 91.37 128.21 90.57 C 126.44 90.81 124.57 90.40 122.85 90.84 C 122.81 91.80 122.54 92.51 122.05 92.96 C 119.80 92.79 117.60 93.09 115.35 93.10 C 117.05 88.32 119.36 83.31 121.40 78.62 Z"/>
  <path id="path17195" fill="#000000" d="M 84.81 79.49 C 86.73 78.75 90.03 79.41 92.19 79.53 C 92.23 82.72 91.97 86.19 92.28 89.32 C 94.43 89.30 96.58 89.34 98.72 89.26 C 98.95 90.73 98.85 92.01 98.43 93.12 C 94.03 92.84 89.33 93.45 85.02 92.80 C 84.64 88.57 85.07 83.80 84.81 79.49 Z"/>
  <path id="path17197" fill="#000000" d="M 100.91 79.67 C 103.28 79.31 105.77 79.62 108.18 79.45 C 108.24 82.65 107.95 86.18 108.29 89.32 C 110.44 89.34 112.59 89.30 114.74 89.13 C 115.00 90.70 114.89 92.03 114.41 93.14 C 110.07 92.85 105.38 93.39 101.13 92.87 C 100.65 88.64 101.08 83.98 100.91 79.67 Z"/>
  <path id="path17199" fill="#adadad" d="M 125.18 82.08 C 126.53 81.90 127.13 85.96 127.18 86.98 C 126.06 87.10 124.95 87.13 123.84 87.06 C 124.24 85.35 125.08 83.89 125.18 82.08 Z"/>
  <path id="path17201" fill="#000000" d="M 128.11 96.91 C 129.84 99.21 130.55 102.55 132.27 104.83 C 132.40 102.28 131.89 99.28 132.54 96.87 C 134.45 97.02 136.36 96.76 138.26 96.96 C 138.30 102.04 138.25 107.12 138.29 112.20 C 135.33 111.59 132.22 111.49 129.30 110.75 C 128.05 108.24 127.17 105.08 125.43 102.92 C 125.61 105.44 125.45 107.95 125.55 110.47 C 123.50 110.16 121.42 110.29 119.44 109.75 C 119.53 105.60 119.52 101.41 119.44 97.26 C 122.10 96.45 125.32 97.07 128.11 96.91 Z"/>
  <path id="path17203" fill="#000000" d="M 38.53 96.86 C 40.79 97.18 43.38 96.41 45.48 97.33 C 46.30 100.89 47.75 104.31 48.49 107.88 L 49.35 107.60 C 50.15 104.10 51.50 100.74 52.38 97.26 C 54.62 96.53 57.15 97.10 59.48 96.87 L 59.38 97.89 C 57.12 102.82 55.10 109.91 52.63 114.40 C 50.10 114.91 47.55 115.51 45.09 116.28 L 44.52 115.66 C 42.72 109.56 39.93 103.80 38.21 97.66 L 38.53 96.86 Z"/>
  <path id="path17205" fill="#000000" d="M 61.54 96.86 C 65.37 96.92 69.23 96.96 73.06 96.85 C 73.99 96.67 74.75 96.83 75.34 97.33 C 75.31 98.39 75.27 99.44 75.25 100.49 C 72.94 100.60 70.63 100.61 68.32 100.74 L 68.31 102.19 C 70.38 102.42 72.85 101.51 74.77 102.02 C 74.90 103.19 74.89 104.33 74.75 105.45 C 72.62 105.59 70.50 105.73 68.38 105.94 L 68.28 107.53 C 70.66 107.44 73.25 106.77 75.60 107.18 C 75.57 108.29 75.54 109.38 75.52 110.47 C 70.76 111.08 65.96 111.63 61.26 112.56 C 61.34 107.65 60.79 101.53 61.54 96.86 Z"/>
  <path id="path17207" fill="#000000" d="M 78.67 96.84 C 82.79 96.89 86.92 96.86 91.04 96.86 C 93.03 97.31 94.79 97.08 95.72 99.27 C 96.90 101.83 96.00 103.99 93.11 104.39 C 93.22 106.27 96.74 107.45 96.87 109.45 C 94.24 109.19 91.59 109.65 88.96 109.52 C 87.94 108.13 86.98 106.59 85.85 105.30 C 85.82 106.74 85.82 108.19 85.83 109.63 C 83.42 109.69 81.04 109.96 78.63 109.99 C 78.69 105.61 78.61 101.22 78.67 96.84 Z"/>
  <path id="path17209" fill="#000000" d="M 103.17 97.16 C 106.56 96.43 110.80 96.39 113.93 98.07 C 117.47 99.87 118.02 105.51 114.77 107.83 C 112.09 109.69 108.10 109.47 104.98 109.25 C 101.47 108.83 97.64 107.12 97.78 103.00 C 97.68 99.79 100.25 97.76 103.17 97.16 Z"/>
  <path id="path17211" fill="#000000" d="M 147.00 96.87 C 149.86 97.12 153.07 96.56 155.81 97.15 C 158.01 104.02 159.80 111.05 161.90 117.94 C 159.35 117.10 156.78 116.35 154.19 115.65 C 153.70 114.81 153.44 113.81 153.41 112.65 C 151.68 112.02 149.61 111.72 147.79 111.46 C 147.75 112.83 147.42 113.62 146.81 113.84 C 144.55 113.40 142.34 112.79 140.04 112.56 C 141.53 108.35 143.43 104.20 145.01 100.00 C 145.58 99.00 145.64 97.00 147.00 96.87 Z"/>
  <path id="path17213" fill="#929292" d="M 89.04 100.03 C 89.92 102.58 84.79 103.24 85.64 100.46 C 86.49 98.91 87.66 100.01 89.04 100.03 Z"/>
  <path id="path17215" fill="#ffffff" d="M 105.35 100.40 C 106.61 99.79 108.29 99.85 109.54 100.47 C 110.67 101.86 110.53 104.14 109.58 105.60 C 108.25 106.36 105.63 106.43 104.70 105.01 C 104.33 103.68 104.09 101.33 105.35 100.40 Z"/>
  <path id="path17217" fill="#a6a6a6" d="M 150.32 101.01 C 151.64 103.00 152.29 105.71 152.16 108.09 C 150.71 108.01 149.63 107.61 148.90 106.88 C 149.38 104.86 150.08 103.15 150.32 101.01 Z"/>
  <path id="path17219" fill="#9b7b04" d="M 112.99 120.90 C 121.90 120.64 130.23 122.50 138.98 123.88 C 145.44 124.58 152.32 126.88 158.53 128.52 C 159.63 128.95 161.38 129.01 162.05 130.07 C 162.38 132.11 161.28 133.42 160.50 135.16 C 160.48 133.36 161.59 131.69 161.40 129.96 C 157.84 129.03 154.30 127.99 150.78 126.92 L 149.71 127.56 C 149.89 137.04 149.87 146.59 149.69 156.07 C 149.86 156.98 150.26 157.84 150.89 158.64 C 148.38 163.56 144.86 168.11 141.35 172.35 C 138.66 174.92 136.19 178.08 132.98 179.97 C 134.49 177.44 137.94 175.83 138.94 173.23 C 138.74 168.72 139.01 164.20 138.82 159.70 C 138.62 148.07 138.95 135.87 138.67 124.30 C 135.36 124.43 130.48 122.12 127.63 123.52 C 127.85 138.72 127.72 153.95 127.69 169.16 C 127.87 173.80 127.28 178.74 127.69 183.27 C 128.93 182.71 130.08 182.00 131.23 181.28 C 129.49 183.88 126.94 184.76 124.39 186.36 C 118.75 189.78 112.28 191.46 105.89 192.79 C 96.16 194.13 86.33 191.69 77.55 187.51 C 74.93 186.02 71.73 184.63 69.81 182.26 C 70.61 182.59 71.42 182.89 72.24 183.14 C 72.61 181.91 72.65 180.55 72.39 179.08 C 72.26 173.13 72.29 167.17 72.30 161.22 C 72.16 148.66 72.40 135.56 72.18 123.09 C 68.44 122.91 64.99 124.01 61.32 124.34 C 61.01 133.30 61.35 142.77 61.16 151.79 C 61.06 157.76 61.22 163.73 61.12 169.70 C 61.21 171.51 60.27 173.69 62.00 174.95 C 64.10 176.90 66.20 178.83 68.17 180.91 C 65.93 180.17 64.82 178.42 63.14 176.85 C 57.54 171.75 52.74 165.46 49.19 158.78 C 51.05 155.60 49.76 150.51 49.97 146.88 C 50.24 140.45 49.92 134.00 50.17 127.57 C 49.10 127.04 47.61 127.10 45.70 127.74 C 53.72 124.18 63.42 123.74 71.96 122.00 C 76.06 121.75 79.86 120.65 84.01 120.95 C 93.71 119.75 103.31 119.32 112.99 120.90 Z"/>
  <path id="path17221" fill="#ffe500" d="M 82.92 122.21 C 82.95 125.69 83.18 129.33 82.80 132.77 C 80.57 135.33 83.35 136.02 82.78 138.97 C 82.65 152.46 82.92 165.86 83.00 179.33 C 79.37 178.49 76.49 176.27 73.01 175.00 C 73.02 157.71 72.96 140.38 73.03 123.09 C 76.46 123.23 79.56 122.62 82.92 122.21 Z"/>
  <path id="path17223" fill="#004c93" d="M 83.46 121.48 C 86.99 121.57 91.14 120.58 94.50 121.44 C 94.27 125.45 94.27 129.56 94.50 133.56 L 93.26 134.08 C 89.92 133.73 86.48 134.31 83.19 133.80 C 83.57 129.70 83.10 125.54 83.46 121.48 Z"/>
  <path id="path17225" fill="#ffe500" d="M 95.04 121.92 C 98.10 121.58 101.91 121.43 104.91 122.00 C 104.90 125.86 105.04 129.76 104.87 133.61 C 101.65 133.65 98.44 133.61 95.23 133.64 C 94.76 129.80 95.09 125.79 95.04 121.92 Z"/>
  <path id="path17227" fill="#004c93" d="M 105.38 121.36 C 108.90 120.70 112.89 121.47 116.50 121.51 C 116.73 125.57 116.35 129.66 116.72 133.72 C 113.37 134.11 108.67 134.23 105.37 133.65 C 105.63 129.60 105.63 125.41 105.38 121.36 Z"/>
  <path id="path17229" fill="#ffe500" d="M 117.02 122.23 C 120.40 122.61 123.51 123.24 126.95 123.08 C 127.06 140.75 126.99 158.46 126.96 176.13 C 123.70 177.96 120.43 179.89 117.03 181.43 C 117.07 166.69 116.96 151.79 117.06 137.05 C 117.33 136.25 117.71 135.49 118.21 134.77 C 116.06 131.35 117.35 126.26 117.02 122.23 Z"/>
  <path id="path17231" fill="#004c93" d="M 72.18 123.09 C 72.40 135.56 72.16 148.66 72.30 161.22 C 67.83 158.61 65.75 154.03 61.16 151.79 C 61.35 142.77 61.01 133.30 61.32 124.34 C 64.99 124.01 68.44 122.91 72.18 123.09 Z"/>
  <path id="path17233" fill="#004b91" d="M 127.63 123.52 C 130.48 122.12 135.36 124.43 138.67 124.30 C 138.95 135.87 138.62 148.07 138.82 159.70 C 134.31 161.75 131.97 166.44 127.69 169.16 C 127.72 153.95 127.85 138.72 127.63 123.52 Z"/>
  <path id="path17235" fill="#ffe500" d="M 60.92 125.13 C 61.10 138.06 60.95 151.06 61.00 164.00 C 61.08 166.56 60.52 169.07 60.59 171.63 C 59.42 169.76 58.19 167.97 57.17 166.01 C 55.73 163.21 53.18 161.29 51.48 158.77 C 50.76 155.01 51.08 150.86 51.00 147.00 C 51.04 140.42 50.92 133.82 51.07 127.25 C 54.36 126.61 57.68 125.96 60.92 125.13 Z"/>
  <path id="path17237" fill="#ffe500" d="M 139.03 125.15 C 142.29 125.92 145.62 126.65 148.91 127.24 C 149.10 136.44 148.99 145.69 148.90 154.89 C 145.57 158.55 143.00 163.39 139.01 166.29 C 139.05 152.60 138.95 138.85 139.03 125.15 Z"/>
  <path id="path17239" fill="#00458b" d="M 45.70 127.74 C 47.61 127.10 49.10 127.04 50.17 127.57 C 49.92 134.00 50.24 140.45 49.97 146.88 C 49.53 147.49 49.06 148.09 48.58 148.67 C 46.16 147.53 45.58 143.46 42.92 143.02 L 42.77 144.91 C 41.05 140.25 39.55 135.61 38.23 130.82 L 38.47 129.87 C 40.88 129.20 43.31 128.51 45.70 127.74 Z"/>
  <path id="path17241" fill="#00448a" d="M 149.71 127.56 L 150.78 126.92 C 154.30 127.99 157.84 129.03 161.40 129.96 C 161.59 131.69 160.48 133.36 160.50 135.16 L 160.34 135.75 C 158.49 137.00 158.48 138.84 157.68 140.76 C 156.26 145.09 154.18 149.08 152.07 153.11 C 151.30 154.57 150.77 155.89 151.27 157.57 L 150.89 158.64 C 150.26 157.84 149.86 156.98 149.69 156.07 C 149.87 146.59 149.89 137.04 149.71 127.56 Z"/>
  <path id="path17243" fill="#ebd000" d="M 83.98 134.99 C 94.65 135.00 105.35 135.01 116.01 134.99 C 115.99 145.63 115.94 156.40 116.01 167.02 C 115.05 170.16 112.14 171.81 109.01 171.97 C 105.92 172.03 102.70 173.00 100.00 174.48 C 96.83 172.86 93.52 171.82 89.91 171.94 L 89.89 170.97 C 93.18 170.86 95.57 170.89 98.48 172.60 C 99.86 173.78 102.37 172.73 102.84 171.18 C 102.05 165.93 102.77 160.52 102.25 155.22 C 106.00 155.51 109.78 155.19 113.52 155.48 L 114.25 155.98 C 110.46 156.08 106.68 155.87 102.89 156.10 C 103.02 161.17 102.84 166.25 103.07 171.31 C 103.97 171.27 104.87 171.11 105.76 170.83 C 109.25 171.63 114.05 169.74 115.00 165.98 C 115.06 156.33 114.91 146.62 115.07 136.97 C 105.05 136.83 95.02 136.95 85.00 136.90 C 85.00 146.56 84.98 156.31 84.97 165.98 C 85.48 168.95 88.04 169.16 89.25 171.18 C 86.37 171.48 84.85 169.43 83.99 167.02 C 84.01 156.39 84.01 145.62 83.98 134.99 Z"/>
  <path id="path17245" fill="#1d2a34" d="M 160.34 135.75 C 158.35 143.34 155.08 150.72 151.27 157.57 C 150.77 155.89 151.30 154.57 152.07 153.11 C 154.18 149.08 156.26 145.09 157.68 140.76 C 158.48 138.84 158.49 137.00 160.34 135.75 Z"/>
  <path id="path17247" fill="#004c93" d="M 85.37 137.37 C 89.16 137.09 93.01 137.42 96.81 137.17 C 97.00 141.05 96.87 145.00 96.90 148.89 C 93.14 148.96 88.97 149.23 85.28 148.72 C 85.55 144.95 85.40 141.14 85.37 137.37 Z"/>
  <path id="path17249" fill="#d5a500" d="M 97.02 138.21 L 97.83 138.20 C 98.05 142.09 97.98 146.01 97.93 149.90 L 97.05 149.84 C 96.96 145.97 97.13 142.09 97.02 138.21 Z"/>
  <path id="path17251" fill="#ffe500" d="M 99.07 138.02 L 100.93 138.03 C 101.09 142.38 100.93 146.75 101.00 151.11 C 105.24 151.50 109.58 151.16 113.84 151.27 C 113.98 152.14 114.04 153.03 113.99 153.92 C 109.67 154.10 105.33 153.93 101.00 154.00 C 100.99 159.73 100.97 165.46 100.99 171.18 L 99.99 172.08 L 98.99 171.21 C 99.04 165.48 99.00 159.74 99.00 154.00 C 94.67 153.93 90.33 154.09 86.00 153.92 C 85.97 153.01 86.02 152.13 86.16 151.27 C 90.43 151.15 94.77 151.52 99.01 151.09 C 99.06 146.74 98.92 142.37 99.07 138.02 Z"/>
  <path id="path17253" fill="#bf9500" d="M 102.23 138.13 L 102.85 138.46 C 103.12 142.22 102.94 146.03 102.96 149.80 L 102.14 149.91 C 102.11 146.00 102.08 142.04 102.23 138.13 Z"/>
  <path id="path17255" fill="#004c93" d="M 103.17 137.16 C 106.93 137.49 110.82 136.98 114.53 137.45 C 114.47 141.17 114.36 144.92 114.61 148.64 C 111.04 149.34 106.78 148.89 103.08 148.91 C 103.07 145.02 102.94 141.03 103.17 137.16 Z"/>
  <path id="path17257" fill="#012d6e" d="M 42.92 143.02 C 45.58 143.46 46.16 147.53 48.58 148.67 C 49.06 148.09 49.53 147.49 49.97 146.88 C 49.76 150.51 51.05 155.60 49.19 158.78 L 48.69 157.58 C 48.69 154.63 46.91 152.82 45.86 150.14 C 44.91 148.39 44.89 146.58 42.99 145.57 L 42.77 144.91 L 42.92 143.02 Z"/>
  <path id="path17259" fill="#303124" d="M 42.99 145.57 C 44.89 146.58 44.91 148.39 45.86 150.14 C 46.91 152.82 48.69 154.63 48.69 157.58 C 46.42 153.79 44.39 149.76 42.99 145.57 Z"/>
  <path id="path17261" fill="#00377d" d="M 61.16 151.79 C 65.75 154.03 67.83 158.61 72.30 161.22 C 72.29 167.17 72.26 173.13 72.39 179.08 C 68.21 176.47 65.70 171.33 61.12 169.70 C 61.22 163.73 61.06 157.76 61.16 151.79 Z"/>
  <path id="path17263" fill="#d3a300" d="M 86.20 155.16 C 90.10 154.93 94.03 155.01 97.93 155.07 C 97.98 160.32 98.10 165.62 97.83 170.86 L 97.12 170.59 C 96.96 165.72 97.08 160.81 97.03 155.93 C 93.42 156.03 89.82 155.90 86.20 155.98 L 86.20 155.16 Z"/>
  <path id="path17265" fill="#c9b200" d="M 148.90 154.89 C 148.91 156.27 149.26 158.29 148.38 159.45 C 145.50 163.64 142.52 167.80 139.32 171.74 C 139.11 169.93 138.94 168.12 139.01 166.29 C 143.00 163.39 145.57 158.55 148.90 154.89 Z"/>
  <path id="path17267" fill="#004c93" d="M 102.89 156.10 C 106.68 155.87 110.46 156.08 114.25 155.98 C 114.52 156.92 114.60 157.93 114.47 159.00 C 114.22 162.06 115.27 165.66 113.13 168.09 C 111.17 170.48 108.58 169.66 105.76 170.83 C 104.87 171.11 103.97 171.27 103.07 171.31 C 102.84 166.25 103.02 161.17 102.89 156.10 Z"/>
  <path id="path17269" fill="#004c93" d="M 85.30 156.30 C 89.09 155.82 93.10 156.27 96.95 156.04 C 96.84 161.00 96.90 165.95 96.93 170.91 C 94.08 170.86 90.80 170.03 88.01 169.31 C 83.83 166.39 86.04 160.69 85.30 156.30 Z"/>
  <path id="path17271" fill="#022b71" d="M 138.82 159.70 C 139.01 164.20 138.74 168.72 138.94 173.23 C 137.94 175.83 134.49 177.44 132.98 179.97 C 132.39 180.40 131.80 180.83 131.23 181.28 C 130.08 182.00 128.93 182.71 127.69 183.27 C 127.28 178.74 127.87 173.80 127.69 169.16 C 131.97 166.44 134.31 161.75 138.82 159.70 Z"/>
  <path id="path17273" fill="#0c1e65" d="M 61.12 169.70 C 65.70 171.33 68.21 176.47 72.39 179.08 C 72.65 180.55 72.61 181.91 72.24 183.14 C 71.42 182.89 70.61 182.59 69.81 182.26 C 69.28 181.79 68.73 181.34 68.17 180.91 C 66.20 178.83 64.10 176.90 62.00 174.95 C 60.27 173.69 61.21 171.51 61.12 169.70 Z"/>
  <path id="path17275" fill="#003f85" d="M 83.38 170.02 C 84.47 169.76 85.47 170.13 86.39 171.13 C 88.61 172.59 91.83 172.36 94.37 172.98 C 94.45 177.26 94.28 181.63 94.45 185.95 C 91.58 185.76 88.94 185.38 86.18 184.60 C 85.19 184.37 84.21 184.14 83.23 183.91 C 83.46 179.29 83.09 174.62 83.38 170.02 Z"/>
  <path id="path17277" fill="#003f85" d="M 116.63 170.19 C 116.62 175.01 116.52 179.85 116.69 184.67 C 112.78 184.90 109.26 186.41 105.41 186.94 C 105.73 182.38 105.21 177.37 105.65 172.94 C 108.09 172.31 111.47 172.69 113.49 171.11 C 114.54 169.97 115.59 169.66 116.63 170.19 Z"/>
  <path id="path17279" fill="#f9df00" d="M 95.01 174.02 C 97.06 173.61 98.32 175.54 99.98 176.28 C 101.53 175.55 103.05 173.58 104.93 174.04 C 104.98 178.07 104.89 182.10 104.95 186.12 C 101.65 186.23 98.34 186.24 95.03 186.15 C 95.04 182.11 95.02 178.06 95.01 174.02 Z"/>
  <path id="path17281" fill="#d7be00" d="M 73.01 175.00 C 76.49 176.27 79.37 178.49 83.00 179.33 C 83.05 182.11 82.97 184.86 82.62 187.62 C 79.62 186.14 75.99 184.87 73.58 182.51 C 72.76 180.23 73.06 177.41 73.01 175.00 Z"/>
  <path id="path17283" fill="#bda800" d="M 126.96 176.13 C 126.95 178.17 127.23 180.55 126.48 182.47 C 123.67 184.45 120.68 186.29 117.48 187.57 C 117.08 185.52 116.90 183.51 117.03 181.43 C 120.43 179.89 123.70 177.96 126.96 176.13 Z"/>
  <path id="path17285" fill="#0e1d64" d="M 83.23 183.91 C 84.21 184.14 85.19 184.37 86.18 184.60 C 88.94 185.38 91.58 185.76 94.45 185.95 C 94.53 187.88 94.59 189.81 94.78 191.73 C 91.25 192.38 86.91 190.37 83.43 189.50 C 82.70 187.80 83.29 185.73 83.23 183.91 Z"/>
  <path id="path17287" fill="#0e1d63" d="M 116.69 184.67 C 116.98 186.39 116.94 187.99 116.55 189.47 C 113.03 190.44 108.79 192.29 105.18 191.80 C 105.23 190.17 105.31 188.55 105.41 186.94 C 109.26 186.41 112.78 184.90 116.69 184.67 Z"/>
  <path id="path17289" fill="#c9b300" d="M 95.03 186.15 C 98.34 186.24 101.65 186.23 104.95 186.12 C 105.01 187.24 104.96 188.38 104.80 189.54 C 101.67 189.63 98.45 189.63 95.33 189.54 C 95.01 188.47 94.91 187.34 95.03 186.15 Z"/>
</svg>