<?xml version="1.0" encoding="UTF-8" standalone="no"?>
<!DOCTYPE svg PUBLIC "-//W3C//DTD SVG 1.1//EN" "http://www.w3.org/Graphics/SVG/1.1/DTD/svg11.dtd">
<svg xmlns="http://www.w3.org/2000/svg" version="1.1" viewBox="0 0 200 200" width="200.0pt" height="200.0pt">
<path d="M 0.00 0.00 L 200.00 0.00 L 200.00 200.00 L 0.00 200.00 L 0.00 0.00 Z" fill="#ffffff"/>
<path d="M 119.12 2.80 C 121.78 3.44 124.42 4.47 127.18 4.82 C 130.59 5.97 133.65 7.05 136.99 8.25 C 143.43 11.11 149.67 14.13 155.46 18.21 C 169.94 27.86 181.37 41.39 189.09 56.93 C 194.82 69.02 198.59 82.57 198.74 96.00 C 199.07 105.48 198.43 114.91 196.03 124.11 C 195.07 128.20 193.50 132.21 192.25 136.23 C 190.52 139.80 189.00 143.56 187.12 147.09 C 173.93 171.27 150.87 189.41 124.10 196.00 C 118.88 197.37 113.40 198.24 108.01 198.60 C 98.71 199.01 88.82 198.98 79.72 196.86 C 71.82 195.23 64.21 192.53 56.92 189.08 C 44.02 182.61 31.93 173.42 23.05 161.97 C 16.65 154.19 11.76 145.43 7.93 136.14 C 6.81 133.18 5.91 130.15 4.81 127.18 C 4.40 124.45 3.57 121.77 2.87 119.10 C 1.10 108.67 0.90 98.35 1.83 87.82 C 2.67 84.23 2.68 80.36 4.06 76.94 C 4.11 75.52 4.60 74.30 4.95 72.92 C 5.17 71.89 5.48 70.87 5.89 69.87 C 10.81 54.44 19.69 40.58 31.10 29.11 C 41.26 19.67 52.85 11.99 65.93 7.26 C 68.29 6.59 70.55 5.54 72.91 4.96 C 74.22 4.52 75.54 4.13 76.93 4.02 C 80.44 2.97 84.20 2.48 87.82 1.89 C 98.28 0.79 108.74 1.21 119.12 2.80 Z" fill="#010501"/>
<path d="M 87.50 4.78 C 103.69 2.73 120.31 4.63 135.48 10.71 C 154.04 18.01 170.15 31.26 180.95 48.02 C 199.37 76.04 201.36 113.30 186.11 143.15 C 177.51 160.27 163.73 174.66 147.00 183.98 C 132.75 191.97 116.35 196.29 100.00 196.14 C 80.75 196.30 61.49 190.23 45.65 179.32 C 28.90 167.84 15.93 151.02 9.23 131.84 C 3.80 116.54 2.59 99.99 5.17 84.00 C 8.75 62.79 19.65 43.07 35.67 28.72 C 50.02 15.73 68.30 7.28 87.50 4.78 Z" fill="#ffffff"/>
<path d="M 88.14 6.07 C 103.61 4.02 119.64 6.04 134.19 11.64 C 151.78 18.41 167.22 30.54 177.97 46.01 C 188.98 61.71 195.07 80.81 194.96 100.00 C 195.09 115.77 190.99 131.58 183.41 145.39 C 174.28 162.20 159.80 176.06 142.76 184.70 C 142.65 174.91 142.84 165.12 142.66 155.33 C 153.30 146.97 161.62 135.88 165.96 123.01 C 169.85 111.83 170.76 99.83 168.83 88.16 C 170.56 86.43 172.21 84.64 173.45 82.50 C 175.73 78.53 178.49 75.34 179.94 70.92 C 181.81 65.21 181.69 58.68 179.24 53.16 C 174.62 59.41 167.36 63.26 159.62 63.72 C 152.08 51.59 141.01 41.79 127.88 36.12 C 112.91 29.55 95.68 28.53 80.03 33.28 C 64.72 37.86 51.14 47.84 42.28 61.15 C 41.32 62.27 40.86 63.89 39.09 63.63 C 31.76 62.77 25.54 58.98 20.89 53.33 C 17.53 60.69 18.52 69.48 22.77 76.26 C 25.56 80.40 27.60 84.72 31.30 88.18 C 30.23 95.44 29.92 102.70 31.06 109.99 C 31.69 115.44 33.48 120.46 34.94 125.71 C 34.62 128.80 34.48 131.89 34.57 135.00 C 34.61 146.21 34.53 157.42 34.61 168.64 C 13.22 148.40 2.10 118.23 5.84 88.96 C 8.28 67.45 18.49 47.08 34.06 32.07 C 48.67 17.86 67.89 8.55 88.14 6.07 Z" fill="#010501"/>
<path d="M 91.64 9.53 C 90.53 9.86 89.48 10.33 88.48 10.95 C 88.96 14.58 89.49 18.07 89.46 21.73 C 90.07 23.95 90.54 26.04 90.66 28.37 C 85.70 24.33 80.99 20.08 75.69 16.45 C 77.25 20.50 78.34 24.68 79.52 28.85 C 80.50 28.85 81.49 28.85 82.47 28.87 C 80.26 29.98 78.03 30.65 75.62 31.16 C 76.52 30.46 77.45 29.78 78.40 29.13 C 77.56 25.09 75.22 20.92 75.46 16.78 C 74.69 15.98 73.92 15.19 73.13 14.40 C 71.79 14.57 70.44 14.70 69.09 14.80 C 71.47 13.33 74.10 12.67 76.77 11.94 C 80.50 14.42 84.18 16.90 87.33 20.12 C 87.67 19.79 88.02 19.46 88.38 19.15 C 87.88 16.44 87.45 13.71 87.00 10.99 C 85.85 10.90 84.71 10.81 83.56 10.73 C 86.16 9.64 88.85 9.51 91.64 9.53 Z" fill="#ffffff"/>
<path d="M 93.49 9.05 C 99.20 8.82 104.91 8.91 110.61 9.30 C 110.43 11.11 110.93 13.42 109.73 14.86 C 109.36 13.71 108.97 12.56 108.57 11.42 C 106.81 9.76 103.53 9.95 101.28 9.33 C 101.28 11.76 101.23 14.19 101.05 16.61 C 102.32 16.78 103.42 17.25 104.68 16.78 C 105.43 15.59 106.63 14.69 107.01 13.34 C 106.95 16.38 106.81 19.39 106.31 22.39 C 105.84 20.97 105.07 19.68 104.60 18.26 C 103.37 17.87 102.26 18.23 101.02 18.36 C 101.17 21.15 101.13 23.95 101.00 26.75 C 103.01 26.68 104.96 26.21 106.95 26.04 C 108.27 25.03 108.98 23.18 109.89 21.80 C 109.63 23.83 109.36 25.85 109.08 27.87 C 104.27 27.01 99.65 26.99 94.77 27.13 L 96.81 25.92 C 96.97 20.77 96.54 15.56 96.33 10.41 C 95.41 9.91 94.46 9.46 93.49 9.05 Z" fill="#ffffff"/>
<path d="M 116.97 10.55 C 119.89 10.84 122.68 11.69 125.35 12.89 C 123.19 12.88 121.09 12.60 118.93 12.75 C 117.29 13.46 116.03 15.08 114.67 16.23 C 115.29 14.33 115.85 12.21 116.97 10.55 Z" fill="#ffffff"/>
<path d="M 126.02 12.70 C 127.75 13.14 129.44 13.67 131.14 14.18 C 125.88 18.51 120.86 22.95 116.41 28.13 C 118.55 28.47 120.78 29.12 122.95 29.03 C 124.67 28.24 125.91 26.38 127.33 25.14 C 126.55 27.37 125.63 29.35 124.42 31.38 C 120.18 29.98 116.07 28.57 111.60 28.13 C 115.81 22.54 120.62 17.17 126.02 12.70 Z" fill="#ffffff"/>
<path d="M 66.65 15.05 C 67.47 16.79 68.23 18.54 68.94 20.32 C 67.81 19.14 66.42 18.46 65.01 17.68 C 62.78 17.81 60.53 18.87 58.40 19.51 C 59.79 21.91 61.02 24.33 62.10 26.88 C 63.18 25.98 64.19 25.02 65.19 24.03 C 65.12 22.79 65.08 21.55 65.07 20.31 C 66.85 22.93 67.97 25.84 69.00 28.82 C 67.97 27.75 66.86 26.76 65.84 25.68 C 64.36 26.13 63.53 26.65 62.46 27.71 C 63.98 30.01 65.20 32.31 66.25 34.85 C 68.04 33.67 70.01 32.55 71.56 31.05 C 71.62 29.56 71.66 28.06 71.67 26.56 C 72.58 28.38 73.45 30.15 74.05 32.11 C 69.24 33.63 65.08 36.23 60.55 38.35 C 61.16 37.62 61.79 36.90 62.43 36.19 C 59.73 31.65 57.12 27.05 54.34 22.56 C 53.41 22.81 52.48 23.08 51.55 23.36 C 55.66 19.53 61.60 17.42 66.65 15.05 Z" fill="#ffffff"/>
<path d="M 133.70 15.65 C 137.25 16.58 140.64 17.99 143.50 20.33 C 142.60 20.10 141.70 19.89 140.79 19.70 C 138.33 24.37 135.96 29.10 133.62 33.84 C 134.19 34.60 134.77 35.37 135.33 36.14 C 132.59 34.73 129.84 33.37 126.95 32.29 L 129.72 31.83 C 132.09 27.24 133.92 22.32 136.03 17.60 C 135.34 16.87 134.56 16.22 133.70 15.65 Z" fill="#ffffff"/>
<path d="M 51.11 23.46 C 47.12 26.97 50.72 30.65 51.03 34.89 C 51.17 38.45 53.64 40.76 54.25 44.21 C 48.62 41.06 42.98 38.28 37.01 35.83 C 36.11 36.42 35.22 37.02 34.28 37.55 C 36.41 34.16 39.72 31.44 43.07 29.32 C 42.36 30.25 41.67 31.20 41.00 32.17 C 44.05 33.76 46.98 35.52 50.06 37.04 C 50.19 33.66 48.41 30.24 47.58 27.00 L 44.51 28.15 C 46.55 25.93 48.41 24.73 51.11 23.46 Z" fill="#ffffff"/>
<path d="M 155.28 26.62 C 154.12 32.87 151.92 39.08 149.76 45.05 C 150.25 45.88 150.75 46.70 151.25 47.53 C 148.22 45.74 145.98 43.29 143.38 40.97 L 146.35 41.88 C 146.93 40.49 147.47 39.09 147.99 37.68 C 146.71 36.76 145.43 35.85 144.15 34.94 C 142.90 35.90 141.65 36.88 140.40 37.85 C 141.04 38.65 141.67 39.47 142.29 40.30 C 140.22 39.33 138.36 38.04 136.57 36.62 C 137.46 36.78 138.34 36.95 139.23 37.14 C 142.67 34.71 145.91 32.14 149.53 30.07 C 148.61 32.18 146.86 33.11 145.08 34.39 C 146.16 35.13 147.23 35.88 148.31 36.62 C 149.02 34.22 149.63 31.80 150.35 29.41 C 151.94 28.38 153.61 27.50 155.28 26.62 Z" fill="#ffffff"/>
<path d="M 127.88 36.12 C 141.01 41.79 152.08 51.59 159.62 63.72 C 167.36 63.26 174.62 59.41 179.24 53.16 C 181.69 58.68 181.81 65.21 179.94 70.92 C 178.49 75.34 175.73 78.53 173.45 82.50 C 172.21 84.64 170.56 86.43 168.83 88.16 C 170.76 99.83 169.85 111.83 165.96 123.01 C 161.62 135.88 153.30 146.97 142.66 155.33 C 139.09 158.04 135.28 160.45 131.27 162.47 C 118.61 168.80 103.87 171.24 89.86 169.05 C 72.69 166.64 56.97 157.56 46.03 144.15 C 42.13 139.41 39.04 134.16 36.39 128.64 C 35.92 127.66 35.44 126.68 34.94 125.71 C 33.48 120.46 31.69 115.44 31.06 109.99 C 29.92 102.70 30.23 95.44 31.30 88.18 C 27.60 84.72 25.56 80.40 22.77 76.26 C 18.52 69.48 17.53 60.69 20.89 53.33 C 25.54 58.98 31.76 62.77 39.09 63.63 C 40.86 63.89 41.32 62.27 42.28 61.15 C 51.14 47.84 64.72 37.86 80.03 33.28 C 95.68 28.53 112.91 29.55 127.88 36.12 Z" fill="#ffffff"/>
<path d="M 121.94 35.09 C 136.92 40.09 149.73 50.39 158.22 63.67 C 157.61 64.21 156.99 64.75 156.38 65.29 C 148.06 51.94 135.06 41.67 120.02 36.97 C 105.77 32.43 90.13 32.94 76.20 38.36 C 62.75 43.52 51.41 53.16 43.72 65.30 C 43.13 64.75 42.54 64.19 41.95 63.64 C 50.17 50.85 62.33 40.81 76.66 35.63 C 91.13 30.34 107.35 30.14 121.94 35.09 Z" fill="#010501"/>
<path d="M 135.83 48.91 C 135.66 56.86 135.08 64.88 133.72 72.73 C 131.79 73.71 129.89 74.76 128.01 75.85 C 127.60 74.02 127.01 72.33 126.27 70.62 C 126.86 68.81 127.34 67.31 126.53 65.45 C 125.67 63.43 125.06 60.17 122.85 59.26 C 120.90 58.37 118.61 58.18 116.54 57.70 C 118.48 56.98 120.32 56.08 122.32 55.50 C 118.06 53.09 114.98 52.77 110.08 53.63 C 111.72 52.49 113.37 51.39 114.95 50.18 C 111.09 50.22 107.60 50.00 104.13 52.01 C 102.78 50.84 101.43 49.68 100.08 48.50 C 98.74 49.67 97.40 50.84 96.05 51.99 C 93.09 50.53 91.00 50.10 87.66 50.24 C 87.68 46.44 87.69 42.64 87.67 38.84 C 104.27 35.27 121.96 39.25 135.83 48.91 Z" fill="#010501"/>
<path d="M 87.67 38.84 C 87.69 42.64 87.68 46.44 87.66 50.24 L 85.52 50.24 C 87.07 51.41 88.59 52.61 90.14 53.79 C 84.89 52.74 82.55 53.23 77.76 55.39 C 79.77 55.98 81.58 56.97 83.52 57.72 C 81.05 58.40 77.35 58.42 75.69 60.65 C 74.11 63.96 72.62 66.96 73.78 70.69 C 73.23 72.42 72.69 74.14 72.11 75.86 C 70.22 74.79 68.32 73.72 66.39 72.70 C 65.00 64.80 64.44 56.84 64.35 48.83 C 71.40 43.98 79.27 40.54 87.67 38.84 Z" fill="#f66e01"/>
<path d="M 100.09 50.31 C 101.42 51.47 102.67 52.71 103.90 53.98 C 105.84 52.70 107.79 51.90 110.03 51.22 C 109.55 52.95 108.98 54.63 108.31 56.26 C 111.90 54.68 114.30 54.25 118.26 54.87 C 116.21 56.32 115.00 57.02 114.38 59.52 C 117.98 59.61 121.43 58.94 123.98 62.11 C 124.89 64.90 121.78 66.47 120.19 68.22 C 122.19 67.80 124.10 67.17 126.00 66.45 C 125.51 67.89 124.93 69.29 124.26 70.65 C 126.46 73.67 126.68 75.16 126.24 78.91 C 128.71 77.04 131.31 75.37 134.17 74.15 C 138.09 72.36 142.76 72.36 147.02 71.13 C 151.57 69.93 155.41 68.01 159.02 64.98 C 166.57 65.14 173.81 61.24 178.97 55.91 C 180.95 63.01 179.75 70.49 175.56 76.55 C 173.07 80.09 171.71 83.58 168.51 86.50 C 165.74 89.26 162.15 90.59 159.56 93.53 C 156.79 96.49 153.70 99.22 150.19 101.27 C 142.40 104.79 137.38 109.53 128.89 110.53 L 126.87 108.51 C 130.06 107.62 133.29 108.30 136.43 107.06 C 134.94 106.44 133.45 105.83 131.94 105.24 C 130.32 106.20 128.69 107.17 127.04 108.09 L 126.70 104.91 C 127.74 104.87 128.79 104.84 129.83 104.80 L 129.57 102.42 C 132.04 102.72 133.00 102.01 134.82 103.80 L 132.28 104.40 C 135.00 105.61 138.87 105.72 141.32 103.82 C 138.82 103.13 136.37 102.68 133.79 102.52 L 134.88 101.10 C 133.01 101.08 131.14 101.04 129.27 101.05 L 129.53 103.54 C 128.21 103.23 126.89 102.92 125.57 102.61 C 128.22 99.63 131.31 97.90 132.89 93.97 C 132.31 93.42 131.73 92.87 131.16 92.31 C 135.30 89.90 132.29 83.70 134.97 80.97 C 138.00 78.86 141.36 78.83 143.31 75.19 C 138.91 76.18 133.29 77.65 131.19 82.14 C 130.15 85.39 130.31 89.08 129.89 92.45 C 130.58 92.86 131.27 93.27 131.96 93.68 C 128.84 95.15 127.61 97.81 125.63 100.43 C 123.63 98.54 121.95 97.02 119.14 96.45 C 118.78 99.50 118.91 102.34 119.38 105.37 C 118.32 105.78 117.25 106.17 116.18 106.54 C 115.61 106.18 115.05 105.82 114.48 105.46 C 113.55 111.15 111.71 115.07 107.82 119.33 C 107.87 117.41 107.92 115.49 107.98 113.57 C 106.14 118.52 103.17 122.30 100.08 126.48 C 97.01 122.31 94.01 118.56 92.26 113.58 C 92.31 115.48 92.31 117.38 92.29 119.27 C 88.48 115.10 86.51 111.06 85.74 105.45 C 85.12 105.82 84.49 106.19 83.87 106.55 C 82.83 106.16 81.80 105.75 80.78 105.32 C 81.25 102.29 81.34 99.49 81.05 96.43 C 78.16 97.03 76.66 98.43 74.63 100.42 C 72.29 97.55 71.02 94.49 67.27 93.20 C 68.33 97.43 71.28 99.68 74.64 102.05 C 73.34 102.80 71.93 103.35 70.42 103.70 L 70.79 100.87 C 66.46 100.69 63.09 103.27 58.84 103.92 C 61.66 105.81 64.52 105.11 67.72 105.06 C 66.85 104.33 65.99 103.59 65.14 102.83 C 66.89 102.42 68.62 102.54 70.39 102.57 L 70.27 104.81 C 71.41 104.85 72.54 104.88 73.68 104.92 C 73.20 107.04 72.58 108.95 71.46 110.83 C 63.24 109.40 57.18 104.68 49.85 101.21 C 46.81 99.40 44.15 96.91 41.33 94.77 C 41.78 94.30 42.23 93.83 42.68 93.35 C 46.55 95.96 50.71 95.65 55.11 95.03 C 53.82 93.69 53.24 91.49 51.01 91.93 C 47.33 92.20 43.78 91.86 40.15 92.67 C 37.54 91.08 35.05 89.21 32.61 87.37 C 28.65 84.16 27.09 80.07 24.16 75.87 C 20.22 69.89 19.45 62.80 21.09 55.89 C 26.25 61.10 33.58 65.20 41.07 64.95 C 46.18 69.33 52.43 71.41 59.01 72.31 C 64.63 72.93 69.56 75.52 73.95 78.97 C 73.48 75.23 73.74 73.73 75.83 70.66 C 75.19 69.30 74.71 67.89 74.25 66.46 C 76.14 67.22 78.00 67.79 79.99 68.22 C 78.55 66.67 75.18 64.73 76.23 62.25 C 78.10 59.00 82.59 59.55 85.76 59.56 C 85.12 56.99 84.03 56.35 81.91 54.94 C 86.17 54.28 88.05 54.52 91.85 56.41 C 91.24 54.70 90.69 52.98 90.17 51.24 C 92.44 51.90 94.34 52.70 96.29 54.02 C 97.49 52.72 98.73 51.45 100.09 50.31 Z" fill="#010501"/>
<path d="M 21.80 59.52 C 23.55 61.26 25.23 63.45 27.45 64.56 C 31.06 66.50 34.89 67.18 38.77 68.30 L 39.71 69.13 L 40.18 70.71 C 40.80 70.17 41.44 69.66 42.01 69.08 C 45.87 72.51 50.46 73.67 55.38 74.69 C 55.86 75.63 56.33 76.57 56.80 77.50 C 52.98 77.19 49.44 77.03 46.06 75.02 C 43.82 73.77 43.03 71.55 40.49 71.05 L 41.59 73.88 C 36.61 72.95 32.14 73.16 27.80 70.22 C 23.85 67.79 22.55 63.86 21.80 59.52 Z" fill="#ffffff"/>
<path d="M 178.22 59.63 C 177.71 63.98 176.17 67.91 172.28 70.27 C 167.92 73.20 163.54 72.90 158.58 73.92 C 159.34 72.31 159.65 69.21 161.32 68.34 C 165.16 67.15 169.01 66.57 172.61 64.61 C 174.98 63.43 176.41 61.49 178.22 59.63 Z" fill="#ffffff"/>
<path d="M 100.09 65.87 C 103.35 63.50 105.42 63.53 109.31 64.14 C 106.18 65.03 104.08 65.47 102.26 68.39 C 104.60 67.52 107.30 65.63 109.87 66.10 C 112.70 66.84 114.47 69.01 114.17 72.03 C 115.31 73.21 115.91 74.10 116.28 75.76 C 115.45 75.58 114.62 75.40 113.80 75.21 C 113.10 76.42 112.22 77.31 111.18 78.21 C 109.76 77.52 108.36 76.78 106.98 75.99 C 108.19 77.76 109.22 79.60 110.16 81.52 C 108.26 82.17 106.40 82.89 104.47 83.46 C 104.22 83.97 103.97 84.48 103.72 84.99 C 102.74 83.21 100.45 82.26 100.66 80.05 C 101.46 78.49 103.70 77.79 105.11 76.91 C 102.46 75.75 97.46 75.03 95.22 77.28 C 97.12 78.24 99.41 78.37 99.56 81.01 C 98.60 82.40 97.55 83.72 96.34 84.91 C 96.10 84.42 95.85 83.93 95.60 83.44 C 93.66 82.83 91.78 82.14 89.91 81.35 C 90.98 79.53 92.10 77.74 93.31 76.00 C 91.87 76.80 90.39 77.52 88.90 78.22 C 87.95 77.28 87.10 76.30 86.31 75.21 L 84.19 75.74 C 84.23 75.05 84.28 74.36 84.32 73.67 C 84.91 73.14 85.51 72.61 86.10 72.08 C 85.38 68.58 88.60 65.64 91.99 66.07 C 94.06 66.45 96.01 67.66 97.93 68.50 C 96.02 65.44 94.04 65.00 90.68 64.13 C 94.50 63.58 96.89 63.46 100.09 65.87 Z" fill="#ffffff"/>
<path d="M 91.96 69.86 C 94.80 70.20 96.06 72.27 97.90 74.17 C 94.88 73.02 91.68 72.82 88.75 71.41 C 89.69 70.83 90.78 69.43 91.96 69.86 Z" fill="#010501"/>
<path d="M 111.40 71.42 C 108.46 72.89 105.22 72.97 102.23 74.23 C 103.18 73.17 104.13 72.11 105.01 71.00 C 107.83 69.89 108.96 69.00 111.40 71.42 Z" fill="#010501"/>
<path d="M 159.22 68.71 C 156.79 75.79 150.03 77.24 143.36 77.49 C 143.83 76.56 144.31 75.63 144.78 74.71 C 148.45 73.83 151.90 73.21 155.17 71.22 C 156.52 70.37 157.87 69.54 159.22 68.71 Z" fill="#ffffff"/>
<path d="M 175.89 71.51 C 174.57 73.65 173.18 75.63 171.00 76.98 C 166.80 79.83 161.05 79.60 156.15 79.99 C 156.60 78.70 157.05 77.40 157.50 76.10 C 164.10 75.60 169.80 73.98 175.89 71.51 Z" fill="#ffffff"/>
<path d="M 24.27 71.55 C 25.31 71.90 26.35 72.27 27.39 72.64 C 32.28 74.73 37.36 75.56 42.61 76.08 C 43.09 77.39 43.56 78.69 44.04 79.99 C 40.37 80.08 36.38 78.26 33.54 80.84 C 37.32 81.43 41.17 81.35 44.95 81.92 C 46.16 82.43 46.79 84.07 47.58 85.06 C 44.14 85.09 40.56 85.11 37.17 84.47 C 33.88 83.79 31.66 81.82 29.11 79.80 C 31.94 80.32 32.97 81.13 35.31 79.36 C 30.14 78.19 26.91 76.17 24.27 71.55 Z" fill="#ffffff"/>
<path d="M 56.93 75.17 C 61.39 76.28 66.71 77.57 68.95 82.08 C 70.19 85.55 69.92 89.70 70.04 93.34 C 69.10 92.51 68.02 91.70 67.28 90.69 C 65.90 87.91 67.14 84.02 65.59 81.37 C 63.93 79.72 61.14 79.10 59.10 77.95 C 58.33 77.06 57.61 76.13 56.93 75.17 Z" fill="#ffffff"/>
<path d="M 43.51 75.88 C 50.68 78.28 57.83 78.45 64.40 82.60 C 62.47 82.76 60.83 82.21 59.35 83.70 C 61.54 84.30 63.49 85.20 65.44 86.34 C 60.91 86.34 56.25 86.35 51.78 85.56 C 49.65 85.22 48.16 82.95 46.62 81.60 C 50.36 82.64 54.02 83.24 57.88 83.61 C 58.34 83.11 58.60 82.58 58.80 81.95 C 54.43 81.71 49.89 81.55 46.17 78.93 C 45.27 77.93 44.38 76.92 43.51 75.88 Z" fill="#ffffff"/>
<path d="M 156.70 75.91 C 155.00 77.68 153.83 79.49 151.47 80.36 C 148.06 81.62 144.12 81.76 140.55 82.26 C 144.39 84.65 149.53 82.33 153.57 81.60 C 152.37 82.82 151.13 83.99 149.83 85.09 C 145.12 86.62 139.59 86.16 134.70 86.36 C 136.54 85.21 138.46 84.38 140.46 83.86 C 140.51 83.36 140.57 82.85 140.62 82.35 C 138.97 82.54 137.33 82.71 135.68 82.85 C 140.49 79.44 145.86 78.57 151.49 77.36 C 153.23 76.88 154.96 76.40 156.70 75.91 Z" fill="#ffffff"/>
<path d="M 171.06 79.72 C 168.73 81.72 166.54 83.56 163.50 84.35 C 159.98 85.15 156.17 85.07 152.58 85.07 C 153.41 84.01 154.17 82.93 154.85 81.77 C 160.39 81.62 165.69 81.13 171.06 79.72 Z" fill="#ffffff"/>
<path d="M 34.38 86.01 C 35.54 86.18 36.70 86.34 37.86 86.51 C 41.24 87.04 44.60 86.74 47.99 86.93 C 49.42 87.07 50.29 89.26 51.22 90.21 C 44.72 91.78 39.53 89.85 34.38 86.01 Z" fill="#ffffff"/>
<path d="M 165.82 86.01 C 160.56 89.89 155.58 91.75 148.97 90.21 C 150.27 88.79 150.71 86.67 152.96 86.88 C 157.37 86.97 161.46 86.78 165.82 86.01 Z" fill="#ffffff"/>
<path d="M 49.79 86.82 C 51.15 86.88 52.52 86.95 53.88 87.02 C 57.96 87.23 61.83 87.73 65.31 90.05 C 61.25 90.10 55.80 91.13 52.16 88.96 C 51.36 88.26 50.57 87.55 49.79 86.82 Z" fill="#ffffff"/>
<path d="M 90.99 86.32 C 91.66 87.55 92.16 88.90 92.93 90.07 C 94.05 91.04 95.60 91.58 96.86 92.39 C 97.14 91.47 97.44 90.55 97.74 89.64 C 97.68 90.96 97.60 92.27 97.52 93.59 C 99.19 91.76 100.86 91.58 102.53 93.06 C 102.71 92.17 102.67 91.27 102.43 90.33 C 102.51 91.07 102.86 91.72 103.49 92.30 C 104.69 91.57 106.06 91.02 107.18 90.15 C 107.91 88.92 108.43 87.54 109.03 86.24 C 109.06 87.49 109.05 88.73 109.02 89.97 C 107.78 91.85 106.13 92.59 106.33 95.13 C 106.41 96.52 104.50 97.62 103.69 98.57 C 103.31 98.02 102.93 97.47 102.54 96.91 C 101.67 98.11 100.85 99.33 100.09 100.61 C 99.29 99.35 98.46 98.13 97.57 96.92 C 97.17 97.45 96.77 97.97 96.37 98.49 C 94.04 96.45 93.50 96.13 93.74 92.88 C 90.93 90.70 91.07 89.84 90.99 86.32 Z" fill="#ffffff"/>
<path d="M 150.30 86.91 C 148.54 88.27 147.38 89.83 145.04 90.10 C 141.67 90.49 138.16 90.23 134.79 90.06 C 139.63 86.95 144.77 87.06 150.30 86.91 Z" fill="#ffffff"/>
<path d="M 32.22 89.12 C 33.02 89.61 33.82 90.11 34.61 90.61 C 33.50 97.71 33.68 104.95 35.01 112.01 C 37.77 127.85 46.57 141.82 58.90 152.00 C 59.77 151.72 60.65 151.51 61.54 151.36 C 87.43 151.27 113.35 151.52 139.24 151.24 C 139.78 151.66 140.31 152.09 140.83 152.53 C 147.38 146.63 153.41 140.46 157.67 132.65 C 164.88 120.03 167.69 105.02 165.56 90.65 C 166.34 90.11 167.11 89.57 167.88 89.04 C 170.81 108.28 165.65 128.19 153.29 143.27 C 143.20 155.70 128.77 164.46 113.02 167.41 C 97.46 170.53 80.79 167.80 66.94 160.08 C 53.41 152.61 42.57 140.49 36.69 126.19 C 31.73 114.43 30.62 101.72 32.22 89.12 Z" fill="#010501"/>
<path d="M 53.52 91.61 C 57.24 92.05 62.63 90.90 65.63 93.51 C 62.56 94.21 59.54 94.44 56.43 93.87 C 55.45 93.13 54.48 92.37 53.52 91.61 Z" fill="#ffffff"/>
<path d="M 146.74 91.64 C 143.18 95.21 139.15 94.28 134.68 93.61 C 137.43 90.78 143.15 92.09 146.74 91.64 Z" fill="#ffffff"/>
<path d="M 148.97 91.92 C 152.56 92.17 156.04 92.13 159.64 91.92 C 155.45 95.65 150.39 95.94 145.06 95.04 C 146.25 93.80 146.90 91.53 148.97 91.92 Z" fill="#ffffff"/>
<path d="M 38.04 92.84 C 38.70 93.56 39.36 94.28 40.02 95.00 C 43.74 98.88 48.01 102.10 52.90 104.36 C 56.65 114.54 61.15 124.30 66.86 133.54 C 66.43 135.87 66.27 138.12 66.31 140.49 C 65.53 139.98 64.76 139.48 63.98 138.98 C 62.68 142.04 61.41 145.11 60.19 148.20 C 44.15 134.83 35.35 113.64 38.04 92.84 Z" fill="#010501"/>
<path d="M 162.18 92.84 C 164.66 113.76 156.11 134.72 139.99 148.20 C 138.72 145.12 137.46 142.04 136.18 138.96 C 135.40 139.48 134.63 139.99 133.86 140.51 C 133.96 138.10 133.81 135.91 133.25 133.55 C 139.00 124.37 143.51 114.57 147.21 104.40 C 152.11 102.11 156.31 98.97 160.04 95.08 C 160.76 94.33 161.47 93.58 162.18 92.84 Z" fill="#010501"/>
<path d="M 57.62 95.70 C 61.10 95.27 64.19 94.34 67.34 96.38 C 63.81 96.98 60.79 97.98 57.62 95.70 Z" fill="#ffffff"/>
<path d="M 141.18 95.34 L 140.62 96.91 C 138.03 97.44 135.33 96.84 132.78 96.38 C 135.48 94.63 138.14 95.19 141.18 95.34 Z" fill="#ffffff"/>
<path d="M 49.49 96.89 C 51.61 96.58 53.89 96.11 56.05 96.22 C 57.75 96.73 58.58 98.03 59.82 99.20 C 56.01 99.23 52.53 99.62 49.49 96.89 Z" fill="#ffffff"/>
<path d="M 143.92 96.26 C 146.31 96.08 148.82 96.60 151.17 96.91 C 149.28 98.02 147.46 98.90 145.26 99.21 C 143.62 99.21 141.98 99.20 140.34 99.18 C 141.44 98.19 142.51 96.78 143.92 96.26 Z" fill="#ffffff"/>
<path d="M 60.68 98.29 C 63.57 98.17 66.16 97.40 68.39 99.72 C 65.38 100.04 63.15 100.27 60.68 98.29 Z" fill="#ffffff"/>
<path d="M 139.48 98.30 C 136.93 100.36 134.69 100.01 131.64 99.66 C 134.03 97.57 136.56 98.06 139.48 98.30 Z" fill="#ffffff"/>
<path d="M 80.00 98.77 C 79.99 101.23 79.74 103.50 79.15 105.89 C 80.98 106.93 82.54 107.49 84.64 107.72 C 85.21 109.39 85.79 111.06 86.33 112.74 C 85.44 114.14 84.53 115.43 83.91 116.98 C 84.39 118.67 85.42 120.25 86.29 121.78 C 85.60 122.16 84.90 122.55 84.21 122.94 C 85.22 124.61 86.25 126.26 87.30 127.90 C 84.13 127.17 82.71 127.16 79.93 128.66 C 76.40 128.61 72.90 130.16 69.35 130.37 C 70.59 128.27 71.86 126.19 73.29 124.20 L 71.32 122.88 C 72.14 121.05 72.95 119.23 73.76 117.40 L 70.71 117.84 C 72.68 113.28 73.94 108.83 74.90 103.97 C 75.55 101.15 77.61 99.97 80.00 98.77 Z" fill="#010501"/>
<path d="M 140.34 99.18 C 141.98 99.20 143.62 99.21 145.26 99.21 C 145.41 99.82 145.56 100.43 145.70 101.04 C 145.06 101.43 144.39 101.70 143.70 101.86 C 143.80 101.26 143.89 100.66 143.98 100.06 C 142.59 99.88 141.20 99.73 139.81 99.60 L 140.34 99.18 Z" fill="#010501"/>
<path d="M 53.99 100.77 C 55.95 100.31 58.06 99.67 60.08 99.67 C 61.28 100.05 62.28 101.10 63.27 101.86 C 59.92 102.21 57.11 102.11 53.99 100.77 Z" fill="#ffffff"/>
<path d="M 120.12 98.82 C 121.27 99.37 122.38 99.97 123.46 100.64 C 124.73 102.33 125.43 103.91 125.77 106.01 C 126.41 110.17 127.95 113.99 129.41 117.91 L 126.40 117.38 C 127.21 119.23 128.02 121.09 128.87 122.92 C 128.20 123.32 127.53 123.71 126.86 124.11 C 128.27 126.16 129.57 128.28 130.85 130.43 C 127.22 130.13 123.96 128.64 120.26 128.67 C 117.46 127.18 116.03 127.14 112.83 127.97 C 113.89 126.32 114.92 124.66 115.93 122.98 C 115.25 122.57 114.56 122.17 113.88 121.76 C 114.72 120.03 115.92 118.82 116.11 116.99 C 115.80 115.45 114.62 114.08 113.84 112.74 C 114.37 111.07 114.93 109.40 115.49 107.74 C 117.62 107.46 119.15 107.00 120.97 105.89 C 120.49 103.53 120.21 101.23 120.12 98.82 Z" fill="#010501"/>
<path d="M 139.81 99.60 C 141.20 99.73 142.59 99.88 143.98 100.06 C 143.89 100.66 143.80 101.26 143.70 101.86 C 141.41 102.08 139.17 101.99 136.89 101.82 C 137.87 101.09 138.83 100.33 139.81 99.60 Z" fill="#ffffff"/>
<path d="M 68.23 105.16 C 69.49 106.03 70.75 106.89 71.97 107.81 C 69.63 107.98 67.29 107.97 64.96 107.80 C 65.28 105.73 66.59 105.94 68.23 105.16 Z" fill="#ffffff"/>
<path d="M 113.22 114.25 C 113.86 115.21 114.52 116.17 115.19 117.11 C 114.21 118.31 113.27 119.53 112.40 120.81 C 113.02 121.67 113.43 122.63 113.82 123.62 C 111.78 128.03 109.00 132.46 107.92 137.15 C 105.22 137.58 102.66 138.21 100.10 139.15 C 97.52 138.21 94.94 137.58 92.24 137.14 C 91.17 132.39 88.36 127.98 86.28 123.57 C 86.77 122.71 87.26 121.85 87.77 121.00 C 86.86 119.65 85.82 118.55 85.22 117.06 L 86.82 114.19 C 88.69 117.20 90.50 119.51 93.60 121.30 C 97.03 123.28 98.53 126.45 100.08 129.91 C 101.65 126.26 103.40 123.01 106.99 120.99 C 109.89 119.37 111.56 117.05 113.22 114.25 Z" fill="#010501"/>
<path d="M 34.94 125.71 C 35.44 126.68 35.92 127.66 36.39 128.64 C 39.04 134.16 42.13 139.41 46.03 144.15 C 45.73 155.34 46.11 166.56 45.83 177.76 C 41.87 175.00 38.11 171.96 34.61 168.64 C 34.53 157.42 34.61 146.21 34.57 135.00 C 34.48 131.89 34.62 128.80 34.94 125.71 Z" fill="#f66e01"/>
<path d="M 85.06 128.87 C 88.56 129.96 91.03 134.54 90.65 138.06 C 89.89 140.00 88.25 141.35 87.77 143.50 C 86.33 142.50 85.17 141.22 83.81 140.12 C 83.08 138.41 82.74 136.54 82.10 134.79 C 82.19 136.86 82.50 138.90 82.80 140.95 C 81.34 142.40 80.95 143.95 80.51 145.90 C 79.16 144.47 77.85 143.03 76.58 141.53 C 76.01 139.97 75.66 138.34 75.18 136.75 C 75.19 138.72 75.41 140.68 75.74 142.63 C 74.57 144.52 74.84 145.03 75.20 147.14 C 73.00 144.90 68.76 144.04 68.04 140.91 C 67.39 137.93 67.24 133.93 70.08 132.00 C 71.53 130.83 72.99 131.17 74.69 131.23 C 76.57 130.03 78.19 130.04 80.33 130.02 C 82.06 129.45 83.08 128.36 85.06 128.87 Z" fill="#010501"/>
<path d="M 114.17 129.21 C 116.30 128.21 117.96 128.98 119.77 130.14 C 122.13 129.95 123.35 129.96 125.42 131.23 C 126.65 131.12 127.86 131.15 129.05 131.32 C 133.24 133.20 133.45 139.75 131.00 143.01 C 129.12 144.50 126.82 145.38 125.10 147.19 C 125.25 143.68 124.21 140.46 124.79 136.90 C 124.38 138.46 124.06 140.03 123.60 141.57 C 122.26 143.16 120.65 144.69 119.05 146.01 C 119.20 145.05 119.37 144.09 119.54 143.14 C 118.80 142.45 118.05 141.76 117.29 141.08 C 117.64 138.98 117.81 136.94 117.83 134.81 C 117.30 136.58 117.06 138.49 116.31 140.17 C 114.88 141.28 113.65 142.61 112.20 143.70 C 111.99 141.35 110.33 140.09 109.50 138.08 C 109.05 135.00 111.35 130.63 114.17 129.21 Z" fill="#010501"/>
<path d="M 91.03 140.02 C 94.94 139.59 96.89 140.03 100.12 142.17 C 103.66 139.65 109.01 138.14 111.56 142.77 C 111.09 143.76 110.63 144.74 110.17 145.73 C 112.58 144.82 114.53 143.44 116.51 141.82 C 117.28 142.49 118.05 143.16 118.83 143.83 C 118.22 145.00 117.62 146.18 117.04 147.36 C 120.14 146.92 121.81 144.93 124.29 143.31 C 124.21 145.29 123.74 146.86 122.95 148.65 C 128.08 147.18 131.19 143.43 135.59 140.81 C 136.11 142.44 136.28 144.11 136.60 145.79 C 137.76 146.93 138.51 148.26 139.21 149.72 L 138.29 150.48 C 120.54 150.14 102.76 150.43 85.00 150.33 C 77.11 150.41 69.21 150.17 61.33 150.46 C 61.23 149.15 62.02 147.82 62.41 146.58 C 63.67 146.10 64.94 145.63 66.20 145.16 L 62.87 145.49 C 63.46 143.94 64.14 142.44 64.80 140.91 C 68.99 143.61 72.22 147.09 77.13 148.65 C 77.03 147.66 74.62 143.57 76.87 143.70 C 78.83 145.68 80.26 146.82 83.08 147.36 C 82.49 146.22 81.96 145.07 81.48 143.90 C 82.16 143.20 82.84 142.49 83.52 141.77 C 85.53 143.47 87.66 144.82 90.15 145.72 C 89.56 144.76 88.97 143.80 88.37 142.84 C 89.24 141.88 90.11 140.93 91.03 140.02 Z" fill="#010501"/>
<path d="M 46.03 144.15 C 56.97 157.56 72.69 166.64 89.86 169.05 C 103.87 171.24 118.61 168.80 131.27 162.47 C 131.28 171.51 131.25 180.55 131.29 189.59 C 102.89 199.63 70.41 195.13 45.83 177.76 C 46.11 166.56 45.73 155.34 46.03 144.15 Z" fill="#010501"/>
<path d="M 61.33 150.46 C 69.21 150.17 77.11 150.41 85.00 150.33 C 102.76 150.43 120.54 150.14 138.29 150.48 L 139.24 151.24 C 113.35 151.52 87.43 151.27 61.54 151.36 L 61.33 150.46 Z" fill="#f66e01"/>
<path d="M 61.80 152.50 C 72.56 152.60 83.33 152.51 94.08 152.54 C 95.29 152.44 96.39 152.91 97.39 153.93 C 99.20 153.99 101.01 154.01 102.82 154.01 C 103.37 153.50 103.93 152.99 104.48 152.48 C 115.70 152.54 126.94 152.66 138.16 152.42 C 138.52 152.84 138.87 153.27 139.21 153.70 C 135.74 155.75 132.38 158.02 128.73 159.73 C 117.07 165.38 103.66 167.47 90.84 165.59 C 79.87 164.22 69.98 159.69 60.86 153.62 L 61.07 153.33 C 61.30 153.04 61.54 152.76 61.80 152.50 Z" fill="#ffffff"/>
<path d="M 68.42 153.98 C 73.14 153.87 77.86 153.86 82.57 153.98 C 84.97 156.75 87.59 159.29 90.21 161.84 C 82.32 160.46 75.37 157.96 68.42 153.98 Z" fill="#010501"/>
<path d="M 117.94 154.01 C 122.53 153.72 127.18 153.98 131.78 153.96 C 124.81 157.94 117.85 160.47 109.93 161.84 C 112.72 159.35 115.09 156.40 117.94 154.01 Z" fill="#010501"/>
<path d="M 142.66 155.33 C 142.84 165.12 142.65 174.91 142.76 184.70 C 139.05 186.57 135.22 188.21 131.29 189.59 C 131.25 180.55 131.28 171.51 131.27 162.47 C 135.28 160.45 139.09 158.04 142.66 155.33 Z" fill="#f66e01"/>
<path d="M 87.24 174.75 C 88.66 174.78 90.08 174.79 91.50 174.82 C 91.50 177.31 91.52 179.80 91.55 182.29 C 92.62 182.06 93.69 181.82 94.76 181.57 C 95.09 180.48 95.45 179.41 95.86 178.37 C 95.82 180.80 95.92 183.23 95.99 185.66 C 94.67 182.83 95.14 182.03 91.50 182.41 C 91.51 184.61 91.52 186.81 91.54 189.01 C 92.45 189.26 93.35 189.52 94.25 189.77 C 91.46 189.73 88.64 189.64 85.86 189.76 L 88.16 188.87 C 88.42 184.58 88.32 180.22 88.19 175.93 C 87.88 175.54 87.56 175.14 87.24 174.75 Z" fill="#ffffff"/>
<path d="M 109.65 174.58 C 110.98 174.76 112.18 175.09 113.42 175.60 C 113.38 177.08 113.35 178.57 113.33 180.05 C 112.38 177.72 112.10 175.82 109.57 174.61 C 106.31 174.99 105.62 178.25 105.30 180.97 C 105.01 183.66 105.40 188.01 108.05 189.47 C 112.05 189.68 112.51 187.53 113.81 184.46 C 113.79 186.27 113.71 188.08 113.65 189.89 C 113.26 189.58 112.87 189.27 112.47 188.96 C 109.85 189.94 106.79 190.48 104.42 188.62 C 100.94 185.96 100.43 180.50 103.13 177.13 C 104.79 174.98 107.05 174.48 109.65 174.58 Z" fill="#ffffff"/>
</svg>