<?xml version="1.0" encoding="UTF-8" standalone="no"?>
<!DOCTYPE svg PUBLIC "-//W3C//DTD SVG 1.1//EN" "http://www.w3.org/Graphics/SVG/1.1/DTD/svg11.dtd">
<svg xmlns="http://www.w3.org/2000/svg" version="1.1" viewBox="0 0 200 200" width="200.0pt" height="200.0pt">
<path d="M 0.00 0.00 L 200.00 0.00 L 200.00 63.61 C 190.35 63.55 180.68 63.74 171.03 63.51 C 163.07 47.23 149.93 34.45 133.65 26.56 C 133.63 25.67 133.60 24.79 133.57 23.90 C 128.67 23.15 124.14 22.12 120.37 18.66 C 116.11 14.83 114.62 9.79 113.70 4.32 C 109.21 4.33 104.72 4.28 100.24 4.32 C 95.73 4.36 91.22 4.22 86.72 4.35 C 85.67 10.25 83.93 15.07 79.49 19.26 C 86.39 19.12 93.29 19.22 100.19 19.19 C 100.19 25.04 100.19 30.90 100.19 36.76 C 89.00 36.75 77.80 36.76 66.61 36.76 C 66.60 33.35 66.61 29.95 66.64 26.55 C 53.27 33.19 41.70 43.01 33.73 55.70 C 25.07 69.24 20.59 85.70 21.60 101.76 C 16.24 90.47 15.79 76.19 15.78 63.93 C 10.52 63.92 5.26 63.92 0.00 63.92 L 0.00 0.00 Z" opacity="0"/>
<path d="M 86.72 4.35 C 91.22 4.22 95.73 4.36 100.24 4.32 C 100.11 9.27 100.23 14.23 100.19 19.19 C 93.29 19.22 86.39 19.12 79.49 19.26 C 83.93 15.07 85.67 10.25 86.72 4.35 Z" fill="#ed1c24"/>
<path d="M 100.24 4.32 C 104.72 4.28 109.21 4.33 113.70 4.32 C 114.62 9.79 116.11 14.83 120.37 18.66 C 124.14 22.12 128.67 23.15 133.57 23.90 C 133.60 24.79 133.63 25.67 133.65 26.56 C 133.76 30.77 133.77 34.98 133.76 39.19 L 133.67 41.60 C 129.55 42.76 126.27 44.01 123.80 47.74 C 120.90 53.39 122.00 58.85 121.49 65.00 C 120.90 74.74 119.55 85.70 113.92 93.95 C 110.36 99.34 105.47 102.86 100.20 106.40 C 100.19 100.54 100.19 94.68 100.19 88.83 C 100.19 83.07 100.19 77.32 100.20 71.57 C 100.19 65.76 100.19 59.96 100.19 54.15 C 100.19 48.36 100.19 42.56 100.19 36.76 C 100.19 30.90 100.19 25.04 100.19 19.19 C 100.23 14.23 100.11 9.27 100.24 4.32 Z" fill="#0064af"/>
<path d="M 108.18 17.33 C 111.73 16.70 115.13 19.73 115.75 23.11 C 116.88 28.68 115.26 33.94 113.20 39.05 C 113.57 39.65 113.94 40.25 114.31 40.84 C 114.24 42.04 114.18 43.23 114.11 44.42 C 112.71 44.63 111.30 44.82 109.89 45.00 C 111.23 45.23 112.56 45.45 113.89 45.66 C 114.29 52.95 114.21 60.25 114.48 67.54 C 117.72 70.22 118.84 74.19 117.06 78.08 C 114.02 83.27 105.00 82.74 102.98 76.93 C 101.66 73.15 104.65 70.81 104.49 67.01 C 104.41 60.67 104.34 54.36 104.69 48.02 C 105.11 44.22 103.44 41.32 106.11 38.10 C 104.34 33.14 102.73 28.54 103.38 23.16 C 103.75 20.55 105.46 17.89 108.18 17.33 Z" fill="#e2a952"/>
<path d="M 66.64 26.55 C 66.61 29.95 66.60 33.35 66.61 36.76 C 77.80 36.76 89.00 36.75 100.19 36.76 C 100.19 42.56 100.19 48.36 100.19 54.15 C 92.97 54.15 85.75 54.16 78.52 54.14 C 78.16 52.01 77.61 49.74 76.57 47.82 C 74.04 44.14 71.10 42.67 66.81 41.78 C 66.67 40.91 66.53 40.03 66.40 39.16 C 54.17 46.58 44.17 57.23 38.36 70.36 C 31.13 86.27 30.64 104.45 36.17 120.95 C 29.69 115.99 24.61 109.35 21.60 101.76 C 20.59 85.70 25.07 69.24 33.73 55.70 C 41.70 43.01 53.27 33.19 66.64 26.55 Z" fill="#ed1c24"/>
<path d="M 133.65 26.56 C 149.93 34.45 163.07 47.23 171.03 63.51 C 166.82 63.32 162.62 63.35 158.41 63.35 C 152.82 54.26 145.40 46.43 136.32 40.76 C 135.47 40.23 134.62 39.71 133.76 39.19 C 133.77 34.98 133.76 30.77 133.65 26.56 Z" fill="#ed1c24"/>
<path d="M 114.16 28.11 C 113.59 32.15 113.95 36.47 110.83 39.53 C 111.25 36.73 111.82 33.95 112.20 31.13 C 110.22 33.43 110.42 35.98 109.71 38.73 L 107.88 39.75 C 106.92 36.05 106.00 32.34 104.88 28.68 C 106.24 29.25 107.55 29.84 108.97 30.24 C 110.77 30.42 112.63 28.93 114.16 28.11 Z" fill="#ffffff"/>
<path d="M 66.40 39.16 C 66.53 40.03 66.67 40.91 66.81 41.78 C 71.10 42.67 74.04 44.14 76.57 47.82 C 68.67 51.74 62.23 56.94 56.59 63.70 C 53.01 63.69 49.42 63.71 45.84 63.72 C 45.83 84.69 45.89 105.66 45.84 126.64 C 42.46 124.98 39.18 123.22 36.17 120.95 C 30.64 104.45 31.13 86.27 38.36 70.36 C 44.17 57.23 54.17 46.58 66.40 39.16 Z" fill="#919598"/>
<path d="M 112.77 40.89 L 112.54 42.63 C 109.92 42.96 107.40 43.29 105.32 41.34 C 107.63 40.97 110.48 40.12 112.77 40.89 Z" fill="#ffffff"/>
<path d="M 133.76 39.19 C 134.62 39.71 135.47 40.23 136.32 40.76 C 145.40 46.43 152.82 54.26 158.41 63.35 C 153.41 63.34 148.42 63.35 143.43 63.33 C 137.86 56.65 131.48 51.76 123.80 47.74 C 126.27 44.01 129.55 42.76 133.67 41.60 L 133.76 39.19 Z" fill="#919598"/>
<path d="M 106.18 44.60 C 108.74 47.03 111.52 49.93 112.94 53.20 C 113.39 55.44 113.15 57.85 113.16 60.11 C 111.02 57.15 108.78 54.22 106.88 51.09 C 105.67 49.36 106.26 46.62 106.18 44.60 Z" fill="#ed1c24"/>
<path d="M 76.57 47.82 C 77.61 49.74 78.16 52.01 78.52 54.14 C 78.66 59.97 78.73 65.78 79.39 71.58 C 80.09 77.52 81.20 83.31 83.56 88.84 C 87.02 96.63 93.16 101.90 100.20 106.40 C 105.47 102.86 110.36 99.34 113.92 93.95 C 119.55 85.70 120.90 74.74 121.49 65.00 C 122.00 58.85 120.90 53.39 123.80 47.74 C 131.48 51.76 137.86 56.65 143.43 63.33 C 141.43 63.33 139.42 63.33 137.43 63.41 C 137.32 73.47 137.08 83.08 139.06 93.02 C 140.99 103.09 144.80 112.67 151.03 120.86 C 146.39 130.21 140.03 138.44 131.26 144.26 C 127.78 146.67 124.02 148.45 120.20 150.26 C 114.60 146.33 108.20 143.44 102.92 139.11 C 100.61 137.10 97.71 134.28 97.80 130.98 C 98.50 127.99 101.96 127.37 104.51 126.83 C 111.84 125.79 119.46 126.17 126.85 126.09 C 126.90 121.86 126.89 117.63 126.89 113.41 C 118.30 113.50 109.56 113.04 101.00 113.94 C 94.85 114.53 89.08 117.29 85.06 122.03 C 80.76 127.02 80.27 134.89 83.39 140.60 C 86.19 145.89 90.59 149.72 95.26 153.32 C 82.90 152.95 71.16 146.86 62.06 138.76 C 62.06 113.75 62.07 88.74 62.06 63.74 C 60.23 63.72 58.41 63.70 56.59 63.70 C 62.23 56.94 68.67 51.74 76.57 47.82 Z" fill="#e2a952"/>
<path d="M 78.52 54.14 C 85.75 54.16 92.97 54.15 100.19 54.15 C 100.19 59.96 100.19 65.76 100.20 71.57 C 93.26 71.57 86.33 71.56 79.39 71.58 C 78.73 65.78 78.66 59.97 78.52 54.14 Z" fill="#ffffff"/>
<path d="M 106.12 55.03 C 108.13 57.28 110.23 59.57 111.89 62.10 C 113.36 64.00 112.85 67.03 113.01 69.32 C 110.75 66.87 108.15 64.47 106.40 61.61 C 105.93 59.50 106.15 57.18 106.12 55.03 Z" fill="#919598"/>
<path d="M 137.43 63.41 C 139.42 63.33 141.43 63.33 143.43 63.33 C 148.42 63.35 153.41 63.34 158.41 63.35 C 162.62 63.35 166.82 63.32 171.03 63.51 C 180.68 63.74 190.35 63.55 200.00 63.61 L 200.00 98.44 C 194.96 98.44 189.92 98.44 184.88 98.44 C 184.87 91.94 184.95 85.43 184.83 78.93 C 182.13 78.93 179.42 78.96 176.72 79.05 C 172.92 79.16 169.11 79.10 165.31 79.12 C 161.76 79.14 158.20 79.04 154.65 79.15 C 153.94 91.97 157.66 104.91 165.97 114.81 C 168.62 117.94 171.74 120.57 175.07 122.94 C 182.58 128.06 191.06 129.98 200.00 130.69 L 200.00 142.79 C 189.43 142.28 179.14 140.57 169.55 135.89 C 166.17 134.36 163.11 132.31 160.16 130.08 C 156.77 127.36 153.75 124.24 151.03 120.86 C 144.80 112.67 140.99 103.09 139.06 93.02 C 137.08 83.08 137.32 73.47 137.43 63.41 Z" fill="#070404"/>
<path d="M 0.00 63.92 C 5.26 63.92 10.52 63.92 15.78 63.93 C 15.79 76.19 16.24 90.47 21.60 101.76 C 24.61 109.35 29.69 115.99 36.17 120.95 C 39.18 123.22 42.46 124.98 45.84 126.64 C 45.89 105.66 45.83 84.69 45.84 63.72 C 49.42 63.71 53.01 63.69 56.59 63.70 C 58.41 63.70 60.23 63.72 62.06 63.74 C 62.07 88.74 62.06 113.75 62.06 138.76 C 62.05 140.12 62.03 141.47 62.02 142.83 C 57.30 142.76 52.61 142.47 47.97 141.58 C 41.94 140.32 36.06 138.49 30.66 135.49 C 19.61 129.59 11.04 120.42 6.11 108.89 C 2.33 100.34 1.09 91.57 0.00 82.37 L 0.00 63.92 Z" fill="#070404"/>
<path d="M 198.20 65.50 C 198.16 75.82 198.18 86.15 198.18 96.47 C 194.37 96.48 190.56 96.48 186.75 96.48 C 186.75 89.93 186.77 83.39 186.74 76.85 C 175.38 76.85 164.03 76.84 152.68 76.85 C 151.20 92.76 156.19 108.96 167.99 120.00 C 176.27 127.78 186.92 131.58 198.12 132.53 C 198.12 135.24 198.12 137.95 198.11 140.66 C 189.91 140.26 181.87 138.88 174.24 135.75 C 161.07 130.56 150.71 119.83 145.39 106.77 C 139.74 93.41 139.27 79.77 139.54 65.48 C 159.09 65.47 178.64 65.44 198.20 65.50 Z" fill="#ffffff"/>
<path d="M 2.28 65.82 C 6.08 65.81 9.89 65.81 13.70 65.82 C 13.96 80.71 14.96 95.27 22.47 108.52 C 28.12 118.57 37.35 125.85 48.10 129.82 C 48.12 108.49 48.11 87.15 48.10 65.82 C 52.02 65.81 55.95 65.81 59.87 65.82 C 59.86 90.77 59.83 115.72 59.89 140.68 C 45.12 140.23 30.61 135.57 19.81 125.20 C 10.49 116.38 5.32 104.57 3.31 92.03 C 1.82 83.28 2.32 74.79 2.28 65.82 Z" fill="#ffffff"/>
<path d="M 106.18 67.34 C 108.55 69.07 110.62 70.40 111.30 73.48 C 109.51 73.14 107.85 72.72 106.28 71.77 L 106.23 70.88 C 106.20 69.70 106.19 68.52 106.18 67.34 Z" fill="#ed1c24"/>
<path d="M 79.39 71.58 C 86.33 71.56 93.26 71.57 100.20 71.57 C 100.19 77.32 100.19 83.07 100.19 88.83 C 94.65 88.82 89.11 88.81 83.56 88.84 C 81.20 83.31 80.09 77.52 79.39 71.58 Z" fill="#ed1c24"/>
<path d="M 105.28 71.56 C 105.81 73.25 106.11 75.28 107.12 76.75 C 107.41 75.64 107.68 74.52 107.91 73.40 C 109.10 75.42 109.72 77.37 110.17 79.65 C 108.41 78.89 106.65 78.12 104.88 77.39 C 104.58 75.31 104.34 73.53 105.28 71.56 Z" fill="#ffffff"/>
<path d="M 115.13 71.91 C 115.55 72.60 115.97 73.29 116.38 73.98 C 116.27 74.99 116.15 76.01 116.01 77.02 C 115.14 76.09 114.26 75.15 113.39 74.22 C 113.10 75.85 113.25 76.68 113.96 78.23 C 113.33 78.47 112.70 78.71 112.08 78.95 C 111.52 77.65 110.97 76.35 110.43 75.05 C 112.04 74.07 113.60 73.02 115.13 71.91 Z" fill="#ffffff"/>
<path d="M 154.65 79.15 C 158.20 79.04 161.76 79.14 165.31 79.12 C 168.50 90.84 168.77 102.97 165.97 114.81 C 157.66 104.91 153.94 91.97 154.65 79.15 Z" fill="#919598"/>
<path d="M 165.31 79.12 C 169.11 79.10 172.92 79.16 176.72 79.05 C 180.15 93.68 179.70 108.63 175.07 122.94 C 171.74 120.57 168.62 117.94 165.97 114.81 C 168.77 102.97 168.50 90.84 165.31 79.12 Z" fill="#ed1c24"/>
<path d="M 176.72 79.05 C 179.42 78.96 182.13 78.93 184.83 78.93 C 184.95 85.43 184.87 91.94 184.88 98.44 C 189.92 98.44 194.96 98.44 200.00 98.44 L 200.00 130.69 C 191.06 129.98 182.58 128.06 175.07 122.94 C 179.70 108.63 180.15 93.68 176.72 79.05 Z" opacity="0"/>
<path d="M 0.00 82.37 C 1.09 91.57 2.33 100.34 6.11 108.89 C 11.04 120.42 19.61 129.59 30.66 135.49 C 38.88 151.02 52.37 163.51 68.44 170.58 C 83.21 177.15 99.64 178.64 115.50 175.83 C 113.39 180.10 108.77 182.79 104.04 182.76 C 96.62 182.78 89.19 182.74 81.77 182.76 C 81.79 187.13 81.78 191.49 81.79 195.86 C 89.88 195.85 97.97 195.89 106.05 195.86 C 111.98 195.80 117.76 194.11 122.48 190.47 C 128.89 185.68 132.59 178.30 132.64 170.29 C 148.38 163.09 161.21 151.04 169.55 135.89 C 179.14 140.57 189.43 142.28 200.00 142.79 L 200.00 200.00 L 0.00 200.00 L 0.00 82.37 Z" opacity="0"/>
<path d="M 83.56 88.84 C 89.11 88.81 94.65 88.82 100.19 88.83 C 100.19 94.68 100.19 100.54 100.20 106.40 C 93.16 101.90 87.02 96.63 83.56 88.84 Z" fill="#ffffff"/>
<path d="M 126.89 113.41 C 126.89 117.63 126.90 121.86 126.85 126.09 C 119.46 126.17 111.84 125.79 104.51 126.83 C 101.96 127.37 98.50 127.99 97.80 130.98 C 97.71 134.28 100.61 137.10 102.92 139.11 C 108.20 143.44 114.60 146.33 120.20 150.26 C 123.94 152.72 127.23 155.69 129.63 159.49 C 131.49 162.85 132.73 166.40 132.64 170.29 C 132.59 178.30 128.89 185.68 122.48 190.47 C 117.76 194.11 111.98 195.80 106.05 195.86 C 97.97 195.89 89.88 195.85 81.79 195.86 C 81.78 191.49 81.79 187.13 81.77 182.76 C 89.19 182.74 96.62 182.78 104.04 182.76 C 108.77 182.79 113.39 180.10 115.50 175.83 C 117.04 171.36 115.26 168.35 112.34 165.13 C 107.18 159.98 101.08 157.55 95.26 153.32 C 90.59 149.72 86.19 145.89 83.39 140.60 C 80.27 134.89 80.76 127.02 85.06 122.03 C 89.08 117.29 94.85 114.53 101.00 113.94 C 109.56 113.04 118.30 113.50 126.89 113.41 Z" fill="#070404"/>
<path d="M 98.19 116.59 C 106.82 114.97 116.00 115.75 124.76 115.57 C 124.74 118.34 124.74 121.11 124.74 123.88 C 118.08 123.88 111.14 123.74 104.47 124.66 C 102.06 125.08 99.29 125.75 97.43 127.43 C 95.65 129.09 95.23 131.67 96.13 133.89 C 97.51 137.56 101.10 140.55 104.19 142.79 C 110.31 146.98 117.84 150.54 123.50 155.50 C 128.44 159.88 131.27 166.34 130.52 172.98 C 129.29 184.17 119.25 193.34 108.04 193.74 C 99.94 193.84 91.82 193.73 83.71 193.77 C 83.71 190.76 83.71 187.75 83.71 184.74 C 90.82 184.69 97.93 184.81 105.03 184.71 C 111.93 184.45 119.20 178.25 118.14 170.90 C 116.92 165.44 111.32 160.99 106.84 158.09 C 99.33 153.60 91.44 148.93 86.44 141.52 C 83.89 137.83 82.86 133.42 83.92 129.01 C 85.30 122.60 92.07 117.87 98.19 116.59 Z" fill="#ffffff"/>
<path d="M 151.03 120.86 C 153.75 124.24 156.77 127.36 160.16 130.08 C 153.09 142.88 142.75 152.99 129.63 159.49 C 127.23 155.69 123.94 152.72 120.20 150.26 C 124.02 148.45 127.78 146.67 131.26 144.26 C 140.03 138.44 146.39 130.21 151.03 120.86 Z" fill="#919598"/>
<path d="M 160.16 130.08 C 163.11 132.31 166.17 134.36 169.55 135.89 C 161.21 151.04 148.38 163.09 132.64 170.29 C 132.73 166.40 131.49 162.85 129.63 159.49 C 142.75 152.99 153.09 142.88 160.16 130.08 Z" fill="#ed1c24"/>
<path d="M 30.66 135.49 C 36.06 138.49 41.94 140.32 47.97 141.58 C 59.35 155.36 76.16 164.36 94.00 165.87 C 100.16 166.57 106.24 166.01 112.34 165.13 C 115.26 168.35 117.04 171.36 115.50 175.83 C 99.64 178.64 83.21 177.15 68.44 170.58 C 52.37 163.51 38.88 151.02 30.66 135.49 Z" fill="#ed1c24"/>
<path d="M 62.06 138.76 C 71.16 146.86 82.90 152.95 95.26 153.32 C 101.08 157.55 107.18 159.98 112.34 165.13 C 106.24 166.01 100.16 166.57 94.00 165.87 C 76.16 164.36 59.35 155.36 47.97 141.58 C 52.61 142.47 57.30 142.76 62.02 142.83 C 62.03 141.47 62.05 140.12 62.06 138.76 Z" fill="#919598"/>
</svg>
