<?xml version="1.0" encoding="UTF-8" standalone="no"?>
<!DOCTYPE svg PUBLIC "-//W3C//DTD SVG 1.1//EN" "http://www.w3.org/Graphics/SVG/1.1/DTD/svg11.dtd">
<svg xmlns="http://www.w3.org/2000/svg" version="1.1" viewBox="0 0 200 200" width="200.0pt" height="200.0pt">
<path d="M 0.00 0.00 L 200.00 0.00 L 200.00 200.00 L 0.00 200.00 L 0.00 0.00 Z" fill="#ffffff"/>
<path d="M 108.99 2.29 C 122.83 4.24 135.48 10.89 145.77 20.23 C 159.70 32.87 169.10 49.97 174.05 68.01 C 180.85 93.05 179.41 120.51 169.48 144.54 C 161.75 163.15 148.73 179.94 130.80 189.62 C 118.06 196.57 103.17 199.23 88.85 196.63 C 67.95 193.01 50.68 179.17 39.23 161.76 C 23.50 137.84 18.29 107.18 23.16 79.17 C 27.10 54.88 39.61 30.51 59.53 15.54 C 73.60 4.88 91.40 -0.46 108.99 2.29 Z" fill="#000001"/>
<path d="M 115.88 29.99 C 115.02 31.54 113.87 32.94 112.87 34.42 C 109.63 32.39 105.93 31.54 102.16 32.42 C 100.27 33.03 99.57 35.48 101.50 36.48 C 106.12 38.84 111.30 38.50 115.09 42.95 C 118.11 46.83 116.15 52.01 111.92 53.94 C 106.13 56.51 98.13 55.19 92.79 51.95 C 93.73 50.34 95.02 49.06 96.13 47.56 C 99.51 49.53 104.81 51.30 108.51 49.44 C 110.44 48.29 110.07 45.73 108.12 44.78 C 103.77 42.70 97.53 42.58 94.59 38.22 C 92.46 34.18 95.10 29.62 99.12 28.14 C 104.24 26.15 111.27 26.93 115.88 29.99 Z" fill="#ffffff"/>
<path d="M 83.30 28.09 C 85.08 27.76 86.95 27.92 88.75 27.74 C 88.70 36.33 87.86 46.08 87.53 54.78 C 85.53 54.93 83.55 55.18 81.55 55.18 C 82.14 46.19 82.43 37.04 83.30 28.09 Z" fill="#ffffff"/>
<path d="M 132.61 29.28 C 137.69 39.04 143.15 48.61 148.31 58.33 C 146.12 57.78 143.92 57.60 141.70 57.33 C 140.85 56.09 140.33 54.71 139.60 53.41 C 135.08 52.82 129.78 51.92 125.33 52.29 C 124.83 53.29 124.35 54.30 123.90 55.32 C 121.74 55.62 119.40 55.06 117.19 55.16 L 117.36 54.24 C 122.06 46.23 126.57 38.10 130.99 29.93 C 131.17 29.21 131.71 28.99 132.61 29.28 Z" fill="#ffffff"/>
<path d="M 68.00 29.27 C 72.03 28.92 76.87 30.65 77.92 34.97 C 79.17 39.77 75.85 44.58 71.56 46.55 C 67.14 48.83 62.90 48.27 58.26 49.23 C 57.68 51.94 57.73 54.66 57.33 57.39 C 55.34 57.67 53.36 57.83 51.39 58.32 C 52.28 49.29 53.36 40.16 54.36 31.13 C 58.42 30.15 63.74 29.81 68.00 29.27 Z" fill="#ffffff"/>
<path d="M 71.00 35.01 C 73.87 38.15 71.14 42.52 67.52 43.36 C 64.59 43.81 61.59 44.10 58.64 44.49 C 59.00 41.31 59.25 38.09 59.68 34.92 C 63.10 34.84 67.97 33.17 71.00 35.01 Z" fill="#000001"/>
<path d="M 131.73 39.37 L 132.56 39.18 C 134.01 42.46 135.71 45.61 137.26 48.85 C 134.17 48.56 130.90 48.40 127.85 47.95 C 128.67 44.94 130.63 42.30 131.73 39.37 Z" fill="#000001"/>
<path d="M 163.27 47.12 C 167.93 54.81 171.04 64.14 173.24 72.84 C 176.58 87.65 177.25 103.01 174.80 118.01 C 171.87 137.62 163.20 157.04 149.35 171.37 C 137.87 183.22 122.57 191.55 106.00 192.99 C 92.02 194.54 77.46 190.84 65.50 183.54 C 52.89 175.94 43.12 164.77 36.12 151.90 C 24.79 131.10 21.35 106.45 24.50 83.12 C 26.04 72.41 29.29 60.07 34.54 50.65 L 34.71 50.89 C 28.79 64.71 25.95 80.01 25.60 95.00 C 25.20 120.25 32.11 145.89 48.48 165.52 C 50.28 167.17 51.64 169.73 53.74 170.93 C 54.07 140.43 53.79 109.56 53.89 79.01 L 54.29 76.78 C 64.21 75.05 74.29 73.79 84.36 73.45 C 84.63 77.07 84.40 80.70 84.57 84.32 C 76.73 86.85 69.68 90.98 64.67 97.65 C 59.58 104.30 56.76 112.60 57.21 121.00 C 57.38 136.86 68.85 151.08 84.13 155.12 L 84.56 155.80 C 84.43 166.75 84.49 177.70 84.55 188.65 L 84.81 189.21 C 94.71 191.77 104.76 191.46 114.71 189.38 L 115.14 188.09 C 115.21 182.20 115.00 176.29 115.25 170.41 C 119.96 170.63 124.67 170.42 129.39 170.59 C 131.01 165.57 131.59 160.13 132.94 155.01 C 136.01 139.12 139.93 123.17 142.89 107.30 C 140.28 107.11 137.43 107.66 134.91 107.13 C 134.11 105.88 135.31 104.25 135.47 102.85 C 136.18 99.31 137.38 95.82 137.85 92.26 C 131.56 92.10 125.26 92.24 118.97 92.19 C 117.36 92.17 115.52 91.77 115.19 89.92 C 115.11 84.44 115.06 78.92 115.26 73.45 C 125.48 73.78 135.58 75.14 145.67 76.78 C 145.57 108.09 145.74 139.43 145.58 170.74 L 146.80 170.45 C 157.70 158.97 165.56 144.77 169.69 129.50 C 174.45 113.14 174.90 95.33 172.62 78.52 C 171.03 67.60 167.88 57.15 163.27 47.12 Z" fill="#0165ad"/>
<path d="M 88.42 59.67 C 88.63 60.39 87.98 60.81 86.50 60.93 C 86.44 62.44 86.54 63.96 86.44 65.47 C 84.26 66.32 85.60 62.20 85.19 61.09 L 82.98 60.37 C 84.22 59.27 86.82 59.86 88.42 59.67 Z" fill="#ffffff"/>
<path d="M 91.85 59.51 C 92.29 59.50 92.73 59.50 93.18 59.51 C 93.18 61.22 93.15 62.92 93.20 64.63 C 92.71 65.09 92.25 65.08 91.83 64.61 C 91.88 62.91 91.86 61.21 91.85 59.51 Z" fill="#ffffff"/>
<path d="M 97.38 59.20 C 98.81 60.15 99.90 61.54 101.28 62.57 C 101.27 61.49 101.29 60.40 101.33 59.31 L 102.57 59.42 C 102.61 61.29 102.52 63.16 102.51 65.03 C 100.76 64.41 100.21 62.56 98.44 61.89 L 98.56 64.82 L 97.28 64.90 C 97.29 63.01 97.31 61.10 97.38 59.20 Z" fill="#ffffff"/>
<path d="M 111.38 60.95 C 109.37 60.48 107.22 60.13 107.69 63.02 C 108.35 64.19 109.46 64.51 111.03 63.98 C 110.28 63.34 109.55 62.70 108.82 62.04 C 109.91 62.10 111.00 62.16 112.10 62.21 C 112.38 65.86 108.05 66.46 106.58 63.50 C 104.83 60.26 110.58 57.37 111.38 60.95 Z" fill="#ffffff"/>
<path d="M 75.33 60.63 C 77.43 60.49 79.23 59.52 80.28 61.97 C 79.25 63.30 79.20 64.74 80.13 66.27 C 78.99 65.72 77.91 64.97 76.88 64.01 L 76.14 66.43 L 75.26 66.24 C 75.26 64.38 75.13 62.47 75.33 60.63 Z" fill="#ffffff"/>
<path d="M 121.49 60.60 C 122.62 60.06 124.75 60.28 125.01 61.82 C 124.00 61.76 122.99 61.69 121.98 61.59 C 119.68 64.27 122.66 65.49 125.07 65.29 C 124.58 66.97 122.41 66.47 121.35 65.67 C 119.59 64.80 119.52 61.28 121.49 60.60 Z" fill="#ffffff"/>
<path d="M 67.51 61.60 C 69.36 60.70 71.56 61.88 71.42 64.02 C 71.54 66.40 68.06 68.58 66.28 66.68 C 64.56 65.22 65.62 62.41 67.51 61.60 Z" fill="#ffffff"/>
<path d="M 128.57 61.30 L 129.75 61.23 C 129.86 62.86 129.75 64.49 129.87 66.11 C 130.84 66.14 131.81 66.21 132.77 66.33 L 132.62 67.49 C 131.25 67.32 129.89 67.09 128.58 66.64 C 128.57 64.86 128.57 63.08 128.57 61.30 Z" fill="#ffffff"/>
<path d="M 61.63 63.32 C 63.18 64.22 61.34 67.00 59.84 66.76 C 57.28 66.60 59.82 69.10 57.32 68.96 C 57.29 67.14 57.27 65.32 57.27 63.50 C 58.38 63.28 60.81 62.02 61.63 63.32 Z" fill="#ffffff"/>
<path d="M 76.43 62.10 C 76.97 61.29 77.76 61.23 78.82 61.93 C 79.18 63.45 75.80 64.25 76.43 62.10 Z" fill="#000001"/>
<path d="M 136.21 62.21 L 137.31 62.48 C 137.53 64.20 136.45 67.83 139.38 67.32 C 140.96 65.67 138.37 63.24 141.12 62.94 C 141.02 64.99 141.76 66.76 140.18 68.38 C 138.41 69.02 136.43 67.88 136.16 66.02 C 136.06 64.74 136.08 63.47 136.21 62.21 Z" fill="#ffffff"/>
<path d="M 67.25 63.24 C 68.96 61.27 71.41 63.76 69.55 65.58 C 67.72 67.43 65.64 64.82 67.25 63.24 Z" fill="#000001"/>
<path d="M 52.87 64.21 L 52.99 65.57 L 50.63 65.63 L 50.66 66.60 C 51.77 66.68 52.73 66.96 53.53 67.46 C 54.64 69.78 49.10 72.13 49.20 69.36 C 50.23 69.28 51.27 69.21 52.31 69.16 C 52.28 67.26 49.26 68.45 49.24 66.85 C 48.74 65.04 51.48 64.17 52.87 64.21 Z" fill="#ffffff"/>
<path d="M 58.84 64.21 L 59.79 63.77 C 62.59 64.46 58.99 67.41 58.33 65.05 L 58.84 64.21 Z" fill="#000001"/>
<path d="M 145.23 64.12 L 146.92 63.93 C 146.23 65.66 146.91 67.26 146.39 69.04 C 147.28 69.26 148.21 69.23 149.21 68.96 C 148.57 68.47 147.91 68.02 147.21 67.61 L 147.96 66.24 L 146.99 64.43 C 147.95 63.75 149.35 65.36 149.95 66.04 L 149.41 67.24 C 149.90 68.21 150.01 69.07 149.72 69.82 C 148.81 71.00 146.41 69.81 145.22 69.53 C 145.14 67.73 145.16 65.91 145.23 64.12 Z" fill="#ffffff"/>
<path d="M 146.99 75.96 C 152.76 77.24 158.15 79.23 163.85 80.69 C 157.74 79.62 151.81 77.87 145.67 76.78 C 135.58 75.14 125.48 73.78 115.26 73.45 C 105.20 73.00 94.61 73.01 84.56 73.44 L 84.36 73.45 C 74.29 73.79 64.21 75.05 54.29 76.78 C 48.12 77.73 42.19 79.66 36.05 80.60 C 42.48 78.97 48.47 76.73 55.02 75.40 C 85.19 68.34 116.91 68.51 146.99 75.96 Z" fill="#ffffff"/>
<path d="M 84.56 73.44 C 94.61 73.01 105.20 73.00 115.26 73.45 C 115.06 78.92 115.11 84.44 115.19 89.92 C 115.52 91.77 117.36 92.17 118.97 92.19 C 125.26 92.24 131.56 92.10 137.85 92.26 C 137.38 95.82 136.18 99.31 135.47 102.85 C 135.31 104.25 134.11 105.88 134.91 107.13 C 137.43 107.66 140.28 107.11 142.89 107.30 C 139.93 123.17 136.01 139.12 132.94 155.01 C 131.59 160.13 131.01 165.57 129.39 170.59 C 124.67 170.42 119.96 170.63 115.25 170.41 C 115.00 176.29 115.21 182.20 115.14 188.09 L 114.71 189.38 C 104.76 191.46 94.71 191.77 84.81 189.21 L 84.55 188.65 C 84.49 177.70 84.43 166.75 84.56 155.80 L 84.13 155.12 C 68.85 151.08 57.38 136.86 57.21 121.00 C 56.76 112.60 59.58 104.30 64.67 97.65 C 69.68 90.98 76.73 86.85 84.57 84.32 C 84.40 80.70 84.63 77.07 84.36 73.45 L 84.56 73.44 Z" fill="#000001"/>
<path d="M 84.48 87.62 C 93.10 85.22 103.02 86.43 110.70 91.08 L 111.02 91.82 C 109.62 92.01 108.20 92.14 106.78 92.20 C 107.96 94.18 110.18 95.75 110.86 97.93 C 110.65 101.07 109.40 103.94 109.12 107.09 C 105.16 107.34 100.45 107.69 96.61 106.90 C 97.61 104.53 97.98 101.80 98.73 99.30 C 97.02 98.38 95.40 97.47 93.89 96.23 C 92.05 96.58 90.66 98.53 88.66 99.02 C 89.19 104.75 92.36 112.41 91.69 118.44 C 85.37 117.68 79.05 116.48 72.96 114.62 C 72.10 116.51 70.97 118.16 69.88 119.90 C 70.95 121.60 72.08 123.20 72.91 125.04 C 79.06 123.44 85.19 121.95 91.53 121.33 L 92.25 122.62 C 94.28 122.37 95.70 121.19 97.82 121.50 L 97.54 122.36 C 96.00 122.53 94.15 122.40 92.79 123.18 C 91.86 123.61 91.44 124.55 91.51 126.00 C 90.86 130.86 89.74 135.78 88.32 140.47 C 89.73 141.28 91.17 142.08 92.63 142.80 C 92.79 143.63 92.89 144.46 92.93 145.29 C 88.35 146.68 93.29 148.72 90.87 151.82 C 89.57 153.06 86.62 152.52 84.96 152.28 C 75.42 149.63 67.23 142.95 63.16 133.88 C 58.88 124.82 59.15 113.65 63.70 104.74 C 67.82 96.39 75.56 90.19 84.48 87.62 Z" fill="#e0041d"/>
<path d="M 92.11 90.07 C 94.08 88.68 95.57 90.18 96.36 91.98 C 95.77 93.80 95.26 94.97 93.11 94.78 C 90.81 94.54 90.37 91.06 92.11 90.07 Z" fill="#ffffff"/>
<path d="M 112.21 94.77 C 119.65 94.80 127.10 94.80 134.55 94.77 C 133.62 98.74 132.80 102.83 131.75 106.76 C 125.17 107.01 118.42 106.85 111.82 106.84 C 112.58 103.62 113.50 100.39 113.97 97.12 C 113.41 96.31 112.83 95.53 112.21 94.77 Z" fill="#ffffff"/>
<path d="M 83.14 97.14 C 85.18 95.65 87.43 97.66 86.89 99.93 C 86.85 102.18 83.15 102.49 82.32 100.71 C 81.95 99.62 81.81 97.63 83.14 97.14 Z" fill="#ffffff"/>
<path d="M 93.89 96.23 C 95.40 97.47 97.02 98.38 98.73 99.30 C 97.98 101.80 97.61 104.53 96.61 106.90 L 96.07 107.43 L 96.41 109.04 C 95.84 112.07 95.06 115.33 95.27 118.42 C 96.36 118.30 97.45 118.18 98.55 118.06 C 98.39 119.23 98.15 120.38 97.82 121.50 C 95.70 121.19 94.28 122.37 92.25 122.62 L 91.53 121.33 C 85.19 121.95 79.06 123.44 72.91 125.04 C 72.08 123.20 70.95 121.60 69.88 119.90 C 70.97 118.16 72.10 116.51 72.96 114.62 C 79.05 116.48 85.37 117.68 91.69 118.44 C 92.36 112.41 89.19 104.75 88.66 99.02 C 90.66 98.53 92.05 96.58 93.89 96.23 Z" fill="#ffffff"/>
<path d="M 101.18 97.18 C 102.89 95.77 104.67 97.23 105.37 98.90 C 105.13 100.77 104.15 102.15 102.10 101.83 C 99.82 101.59 99.38 98.13 101.18 97.18 Z" fill="#ffffff"/>
<path d="M 71.53 108.57 C 73.37 107.66 75.90 108.72 75.56 111.00 C 75.71 113.06 72.62 114.34 71.30 112.68 C 69.87 111.72 70.21 109.53 71.53 108.57 Z" fill="#ffffff"/>
<path d="M 96.41 109.04 C 97.59 110.24 98.68 111.51 99.63 112.89 C 99.64 114.71 99.13 116.36 98.55 118.06 C 97.45 118.18 96.36 118.30 95.27 118.42 C 95.06 115.33 95.84 112.07 96.41 109.04 Z" fill="#e0041d"/>
<path d="M 101.08 110.05 C 113.88 110.13 126.69 110.14 139.49 110.05 C 139.28 112.37 138.42 114.69 138.01 117.00 C 137.35 118.65 137.65 121.00 136.37 122.28 C 124.43 122.10 112.46 122.25 100.51 122.21 C 101.12 119.46 101.75 116.72 102.41 113.99 C 103.20 112.14 101.91 111.46 101.08 110.05 Z" fill="#ffffff"/>
<path d="M 63.59 118.56 C 65.12 116.28 68.75 117.23 68.51 120.01 C 68.58 122.07 65.57 123.44 64.21 121.77 C 63.20 121.18 63.20 119.52 63.59 118.56 Z" fill="#ffffff"/>
<path d="M 92.79 123.18 L 92.82 123.23 C 94.05 125.51 96.84 127.16 96.28 130.06 C 95.49 132.52 95.08 135.12 94.41 137.63 C 93.26 137.66 92.11 137.57 90.95 137.37 C 90.41 137.84 89.90 138.35 89.42 138.90 C 91.35 139.62 91.70 141.72 93.29 142.95 C 93.54 146.08 91.46 149.42 91.37 152.49 C 89.31 152.58 86.95 152.88 84.96 152.28 C 86.62 152.52 89.57 153.06 90.87 151.82 C 93.29 148.72 88.35 146.68 92.93 145.29 C 92.89 144.46 92.79 143.63 92.63 142.80 C 91.17 142.08 89.73 141.28 88.32 140.47 C 89.74 135.78 90.86 130.86 91.51 126.00 C 91.44 124.55 91.86 123.61 92.79 123.18 Z" fill="#ffffff"/>
<path d="M 97.96 125.22 C 110.75 125.19 123.54 125.29 136.32 125.16 C 135.68 129.09 134.73 133.64 133.44 137.45 C 121.41 137.27 109.36 137.42 97.33 137.37 C 98.17 134.17 98.76 130.93 99.65 127.75 C 99.01 126.95 98.45 126.10 97.96 125.22 Z" fill="#ffffff"/>
<path d="M 71.17 127.16 C 72.47 125.34 75.87 126.69 75.58 129.00 C 75.72 131.18 72.58 132.48 71.21 130.75 C 70.11 130.11 70.12 127.85 71.17 127.16 Z" fill="#ffffff"/>
<path d="M 83.22 138.23 C 85.18 136.79 87.36 138.76 86.92 140.94 C 86.80 143.24 84.15 143.27 82.63 142.38 C 81.85 141.32 81.70 138.73 83.22 138.23 Z" fill="#ffffff"/>
<path d="M 94.94 140.40 C 107.58 140.38 120.26 140.39 132.91 140.39 L 133.44 140.65 C 132.17 144.54 131.69 148.67 130.48 152.58 C 118.42 152.53 106.32 152.63 94.27 152.53 C 94.89 149.28 95.74 146.05 96.51 142.83 C 95.76 142.08 95.24 141.27 94.94 140.40 Z" fill="#ffffff"/>
<path d="M 91.50 155.57 C 104.45 155.61 117.41 155.54 130.34 155.61 C 129.13 159.62 128.48 163.79 127.35 167.83 C 115.44 167.73 103.52 167.71 91.61 167.84 L 91.16 167.41 C 91.95 164.28 92.59 161.13 93.36 158.00 C 92.74 157.19 92.12 156.38 91.50 155.57 Z" fill="#ffffff"/>
<path d="M 98.31 182.43 C 97.39 183.59 96.88 185.67 95.27 185.81 C 95.46 184.92 95.69 184.04 95.98 183.18 C 93.70 182.92 93.34 180.13 95.12 179.13 C 97.11 177.76 99.73 180.33 98.31 182.43 Z" fill="#ffffff"/>
<path d="M 90.10 178.60 C 90.75 180.70 90.34 183.29 90.40 185.51 L 89.34 185.55 C 89.16 184.24 89.17 182.90 89.38 181.51 C 88.70 181.06 87.98 180.66 87.21 180.34 C 88.18 179.77 89.14 179.18 90.10 178.60 Z" fill="#ffffff"/>
<path d="M 101.46 179.49 L 103.01 178.58 C 106.25 179.12 106.42 184.60 103.60 185.61 C 100.41 186.07 100.09 181.36 101.46 179.49 Z" fill="#ffffff"/>
<path d="M 110.06 178.61 C 111.38 179.05 112.17 179.85 112.43 181.03 C 111.71 182.68 110.84 184.90 109.21 185.85 C 109.07 184.97 109.25 184.07 109.74 183.14 C 106.38 182.72 107.10 179.00 110.06 178.61 Z" fill="#ffffff"/>
<path d="M 95.46 180.25 L 96.17 179.80 C 97.43 180.15 97.73 180.88 97.08 181.99 C 95.48 182.59 94.94 182.01 95.46 180.25 Z" fill="#000001"/>
<path d="M 103.94 180.11 C 104.34 181.46 104.86 184.22 102.92 184.59 C 101.39 183.31 101.11 179.55 103.94 180.11 Z" fill="#000001"/>
<path d="M 109.13 180.22 C 110.71 178.87 111.88 181.85 109.93 182.35 C 108.68 181.93 108.41 181.23 109.13 180.22 Z" fill="#000001"/>
</svg>