<?xml version="1.0" encoding="UTF-8" standalone="no"?>
<!-- Created with Inkscape (http://www.inkscape.org/) -->
<svg xmlns:dc="http://purl.org/dc/elements/1.1/" xmlns:cc="http://creativecommons.org/ns#" xmlns:rdf="http://www.w3.org/1999/02/22-rdf-syntax-ns#" xmlns:svg="http://www.w3.org/2000/svg" xmlns="http://www.w3.org/2000/svg" xmlns:sodipodi="http://sodipodi.sourceforge.net/DTD/sodipodi-0.dtd" xmlns:inkscape="http://www.inkscape.org/namespaces/inkscape" width="287.304293956" height="348.063019258" viewBox="0 0 809.51636 980.71179" id="svg2" version="1.1" inkscape:version="0.48.2 r9819" sodipodi:docname="Nouveau document 1">
  <defs id="defs4">
    <clipPath id="clipPath5331" clipPathUnits="userSpaceOnUse">
      <path id="path5333" d="m 0,0 595.275,0 0,841.887 L 0,841.887 0,0 z" inkscape:connector-curvature="0"/>
    </clipPath>
    <clipPath id="clipPath5315" clipPathUnits="userSpaceOnUse">
      <path id="path5317" d="m 0,0 595.275,0 0,841.887 L 0,841.887 0,0 z" inkscape:connector-curvature="0"/>
    </clipPath>
    <clipPath id="clipPath5301" clipPathUnits="userSpaceOnUse">
      <path id="path5303" d="m 0,0 595.275,0 0,841.887 L 0,841.887 0,0 z" inkscape:connector-curvature="0"/>
    </clipPath>
    <clipPath id="clipPath5285" clipPathUnits="userSpaceOnUse">
      <path id="path5287" d="m 0,0 595.275,0 0,841.887 L 0,841.887 0,0 z" inkscape:connector-curvature="0"/>
    </clipPath>
    <clipPath id="clipPath5269" clipPathUnits="userSpaceOnUse">
      <path id="path5271" d="m 0,0 595.275,0 0,841.887 L 0,841.887 0,0 z" inkscape:connector-curvature="0"/>
    </clipPath>
    <clipPath id="clipPath5145" clipPathUnits="userSpaceOnUse">
      <path id="path5147" d="m 0,0 595.275,0 0,841.887 L 0,841.887 0,0 z" inkscape:connector-curvature="0"/>
    </clipPath>
    <clipPath id="clipPath5129" clipPathUnits="userSpaceOnUse">
      <path id="path5131" d="m 0,0 595.275,0 0,841.887 L 0,841.887 0,0 z" inkscape:connector-curvature="0"/>
    </clipPath>
    <clipPath id="clipPath5113" clipPathUnits="userSpaceOnUse">
      <path id="path5115" d="m 0,0 595.275,0 0,841.887 L 0,841.887 0,0 z" inkscape:connector-curvature="0"/>
    </clipPath>
    <clipPath id="clipPath4931" clipPathUnits="userSpaceOnUse">
      <path id="path4933" d="m 0,0 595.275,0 0,841.887 L 0,841.887 0,0 z" inkscape:connector-curvature="0"/>
    </clipPath>
    <clipPath id="clipPath4861" clipPathUnits="userSpaceOnUse">
      <path id="path4863" d="m 0,0 595.275,0 0,841.887 L 0,841.887 0,0 z" inkscape:connector-curvature="0"/>
    </clipPath>
    <clipPath id="clipPath4791" clipPathUnits="userSpaceOnUse">
      <path id="path4793" d="m 0,0 595.275,0 0,841.887 L 0,841.887 0,0 z" inkscape:connector-curvature="0"/>
    </clipPath>
    <clipPath id="clipPath4721" clipPathUnits="userSpaceOnUse">
      <path id="path4723" d="m 0,0 595.275,0 0,841.887 L 0,841.887 0,0 z" inkscape:connector-curvature="0"/>
    </clipPath>
    <clipPath id="clipPath4651" clipPathUnits="userSpaceOnUse">
      <path id="path4653" d="m 0,0 595.275,0 0,841.887 L 0,841.887 0,0 z" inkscape:connector-curvature="0"/>
    </clipPath>
    <clipPath id="clipPath4581" clipPathUnits="userSpaceOnUse">
      <path id="path4583" d="m 0,0 595.275,0 0,841.887 L 0,841.887 0,0 z" inkscape:connector-curvature="0"/>
    </clipPath>
    <clipPath id="clipPath4511" clipPathUnits="userSpaceOnUse">
      <path id="path4513" d="m 0,0 595.275,0 0,841.887 L 0,841.887 0,0 z" inkscape:connector-curvature="0"/>
    </clipPath>
    <clipPath id="clipPath4441" clipPathUnits="userSpaceOnUse">
      <path id="path4443" d="m 0,0 595.275,0 0,841.887 L 0,841.887 0,0 z" inkscape:connector-curvature="0"/>
    </clipPath>
    <clipPath id="clipPath4371" clipPathUnits="userSpaceOnUse">
      <path id="path4373" d="m 0,0 595.275,0 0,841.887 L 0,841.887 0,0 z" inkscape:connector-curvature="0"/>
    </clipPath>
    <clipPath id="clipPath4337" clipPathUnits="userSpaceOnUse">
      <path id="path4339" d="m 0,0 595.275,0 0,841.887 L 0,841.887 0,0 z" inkscape:connector-curvature="0"/>
    </clipPath>
    <clipPath id="clipPath4299" clipPathUnits="userSpaceOnUse">
      <path id="path4301" d="m 0,0 595.275,0 0,841.887 L 0,841.887 0,0 z" inkscape:connector-curvature="0"/>
    </clipPath>
    <clipPath id="clipPath4191" clipPathUnits="userSpaceOnUse">
      <path id="path4193" d="m 283.464,354.33 34.02,0 0,45.351 -34.02,0 0,-45.351 z" inkscape:connector-curvature="0"/>
    </clipPath>
    <linearGradient id="linearGradient4179" spreadMethod="pad" gradientTransform="matrix(0,-15.635178,-93.465195,0,347.24866,383.62811)" gradientUnits="userSpaceOnUse" y2="0" x2="1" y1="0" x1="0">
      <stop id="stop4181" offset="0" style="stop-opacity:1;stop-color:#da1c30"/>
      <stop id="stop4183" offset="1" style="stop-opacity:1;stop-color:#730a13"/>
    </linearGradient>
    <clipPath id="clipPath4037" clipPathUnits="userSpaceOnUse">
      <path id="path4039" d="m 283.464,354.33 34.02,0 0,45.351 -34.02,0 0,-45.351 z" inkscape:connector-curvature="0"/>
    </clipPath>
    <linearGradient id="linearGradient4025" spreadMethod="pad" gradientTransform="matrix(0,28.315811,-147.15715,0,374.05081,370.41599)" gradientUnits="userSpaceOnUse" y2="0" x2="1" y1="0" x1="0">
      <stop id="stop4027" offset="0" style="stop-opacity:1;stop-color:#da1c30"/>
      <stop id="stop4029" offset="1" style="stop-opacity:1;stop-color:#730a13"/>
    </linearGradient>
    <clipPath id="clipPath4001" clipPathUnits="userSpaceOnUse">
      <path id="path4003" d="m 283.464,354.33 34.02,0 0,45.351 -34.02,0 0,-45.351 z" inkscape:connector-curvature="0"/>
    </clipPath>
    <clipPath id="clipPath3989" clipPathUnits="userSpaceOnUse">
      <path id="path3991" d="m 283.464,161.577 34.02,0 0,45.351 -34.02,0 0,-45.351 z" inkscape:connector-curvature="0"/>
    </clipPath>
    <clipPath id="clipPath3905" clipPathUnits="userSpaceOnUse">
      <path id="path3907" d="m 158.742,354.33 34.011,0 0,45.351 -34.011,0 0,-45.351 z" inkscape:connector-curvature="0"/>
    </clipPath>
    <clipPath id="clipPath3857" clipPathUnits="userSpaceOnUse">
      <path id="path3859" d="m 158.742,360.09 34.011,0 0,39.591 -34.011,0 0,-39.591 z" inkscape:connector-curvature="0"/>
    </clipPath>
    <clipPath id="clipPath3845" clipPathUnits="userSpaceOnUse">
      <path id="path3847" d="m 158.742,161.577 34.011,0 0,45.351 -34.011,0 0,-45.351 z" inkscape:connector-curvature="0"/>
    </clipPath>
    <clipPath id="clipPath3833" clipPathUnits="userSpaceOnUse">
      <path id="path3835" d="m 34.02,501.732 362.826,0 0,158.742 -362.826,0 0,-158.742 z" inkscape:connector-curvature="0"/>
    </clipPath>
    <clipPath id="clipPath3769" clipPathUnits="userSpaceOnUse">
      <path id="path3771" d="m 34.02,354.33 34.011,0 0,45.351 -34.011,0 0,-45.351 z" inkscape:connector-curvature="0"/>
    </clipPath>
    <clipPath id="clipPath3757" clipPathUnits="userSpaceOnUse">
      <path id="path3759" d="m 34.02,358.477 34.011,0 0,41.204 -34.011,0 0,-41.204 z" inkscape:connector-curvature="0"/>
    </clipPath>
    <clipPath id="clipPath3745" clipPathUnits="userSpaceOnUse">
      <path id="path3747" d="m 34.02,161.577 34.011,0 0,45.351 -34.011,0 0,-45.351 z" inkscape:connector-curvature="0"/>
    </clipPath>
    <radialGradient id="radialGradient3733" spreadMethod="pad" gradientTransform="matrix(46.956863,0,0,-46.956863,542.57327,757.42357)" gradientUnits="userSpaceOnUse" r="1" cy="0" cx="0" fy="0" fx="0">
      <stop id="stop3735" offset="0" style="stop-opacity:1;stop-color:#0e88d3"/>
      <stop id="stop3737" offset="1" style="stop-opacity:1;stop-color:#173e7d"/>
    </radialGradient>
    <clipPath id="clipPath3729" clipPathUnits="userSpaceOnUse">
      <path id="path3731" d="m -0.400909,-1.02812 0.873336,0 0,0.473433 -0.873336,0 0,-0.473433 z" inkscape:connector-curvature="0"/>
    </clipPath>
    <clipPath id="clipPath3719" clipPathUnits="userSpaceOnUse">
      <path id="path3721" d="m 524.763,805.701 c -0.561,0 -1.015,-0.454 -1.015,-1.016 l 0,0 0,-13.084 0.586,-3.335 c 0.336,0.002 0.676,0.003 1.016,0.003 l 0,0 c 1.11,0 2.254,-0.012 3.422,-0.043 l 0,0 1.16,-0.004 0.004,0 c 5.415,-0.162 10.995,-0.63 16.44,-1.333 l 0,0 c 0.684,1.363 1.421,3.306 1.422,5.476 l 0,0 c 0.005,2.605 -2.415,5.742 -3.718,7.339 l 0,0 c -0.608,0.739 -1.177,1.056 -0.764,1.381 l 0,0 c 0.489,0.389 4.152,-2.013 7.828,-5.448 l 0,0 c 0.033,-0.033 0.685,0.372 1.702,1.359 l 0,0 c -0.311,-0.194 -0.679,-0.309 -1.073,-0.309 l 0,0 c -1.127,0 -2.038,0.913 -2.038,2.033 l 0,0 c 0,1.128 0.911,2.038 2.038,2.038 l 0,0 c 1.125,0 2.034,-0.91 2.034,-2.038 l 0,0 c 0,-0.379 -0.109,-0.735 -0.29,-1.039 l 0,0 c 2.039,2.193 1.989,3.844 2.592,3.7 l 0,0 c 0.122,-0.028 0.302,-0.09 0.349,-0.236 l 0,0 c 0.354,-1.12 -0.137,-2.986 -0.811,-4.648 l 0,0 c -0.762,-1.874 -1.749,-3.488 -1.749,-3.488 l 0,0 c 0,0 2.482,-3.225 3.119,-6.87 l 0,0 c 0.058,-0.334 0.095,-0.661 0.117,-0.983 l 0,0 c 0.392,-0.077 0.781,-0.151 1.167,-0.229 l 0,0 c 0.329,0.801 1.117,1.363 2.039,1.363 l 0,0 c 1.215,0 2.2,-0.985 2.2,-2.199 l 0,0 c 0,-0.029 -10e-4,-0.055 -0.005,-0.084 l 0,0 c 0.753,-0.177 1.493,-0.353 2.222,-0.536 l 0,0 0,21.214 c 0,0.562 -0.455,1.016 -1.018,1.016 l 0,0 -38.976,0 z m 26.543,-15.71 c 0,0 -1.419,-1.821 -2.884,-3.38 l 0,0 c 2.056,-0.29 4.083,-0.612 6.068,-0.965 l 0,0 c -0.399,0.734 -0.842,1.538 -1.552,2.43 l 0,0 c -1.421,1.795 -1.605,1.918 -1.63,1.918 l 0,0 c -0.002,0 -0.002,-0.003 -0.002,-0.003" inkscape:connector-curvature="0"/>
    </clipPath>
    <linearGradient id="linearGradient3707" spreadMethod="pad" gradientTransform="matrix(0,-16.169571,-16.169571,0,544.61621,786.97177)" gradientUnits="userSpaceOnUse" y2="0" x2="1" y1="0" x1="0">
      <stop id="stop3709" offset="0" style="stop-opacity:1;stop-color:#8cd024"/>
      <stop id="stop3711" offset="1" style="stop-opacity:1;stop-color:#5db32b"/>
    </linearGradient>
    <clipPath id="clipPath3703" clipPathUnits="userSpaceOnUse">
      <path id="path3705" d="m -0.0312958,-1.24561 1.0436258,0 0,2.49134 -1.0436258,0 0,-2.49134 z" inkscape:connector-curvature="0"/>
    </clipPath>
    <clipPath id="clipPath3553" clipPathUnits="userSpaceOnUse">
      <path id="path3555" d="m 510.237,739.845 56.691,0 0,68.031 -56.691,0 0,-68.031 z" inkscape:connector-curvature="0"/>
    </clipPath>
    <clipPath id="clipPath3421" clipPathUnits="userSpaceOnUse">
      <path id="path3423" d="m 34.02,735.84 113.382,0 0,87.381 -113.382,0 0,-87.381 z" inkscape:connector-curvature="0"/>
    </clipPath>
    <radialGradient id="radialGradient3409" spreadMethod="pad" gradientTransform="matrix(82.766129,0,0,-82.766113,69.986893,758.42078)" gradientUnits="userSpaceOnUse" r="1" cy="0" cx="0" fy="0" fx="0">
      <stop id="stop3411" offset="0" style="stop-opacity:1;stop-color:#a9bfc9"/>
      <stop id="stop3413" offset="1" style="stop-opacity:1;stop-color:#475563"/>
    </radialGradient>
    <clipPath id="clipPath3405" clipPathUnits="userSpaceOnUse">
      <path id="path3407" d="m -0.433289,0.0294495 1.368424,0 0,0.0120391 -1.368424,0 0,-0.0120391 z" inkscape:connector-curvature="0"/>
    </clipPath>
    <clipPath id="clipPath3395" clipPathUnits="userSpaceOnUse">
      <path id="path3397" d="m 34.128,754.987 113.256,0 0,0.995 -113.256,0 0,-0.995 z" inkscape:connector-curvature="0"/>
    </clipPath>
    <clipPath id="clipPath3383" clipPathUnits="userSpaceOnUse">
      <path id="path3385" d="m 34.02,735.84 113.382,0 0,87.381 -113.382,0 0,-87.381 z" inkscape:connector-curvature="0"/>
    </clipPath>
    <radialGradient id="radialGradient3371" spreadMethod="pad" gradientTransform="matrix(18.305954,0,0,-18.305954,123.01569,801.54974)" gradientUnits="userSpaceOnUse" r="1" cy="0" cx="0" fy="0" fx="0">
      <stop id="stop3373" offset="0" style="stop-opacity:1;stop-color:#a9bfc9"/>
      <stop id="stop3375" offset="1" style="stop-opacity:1;stop-color:#475563"/>
    </radialGradient>
    <clipPath id="clipPath3367" clipPathUnits="userSpaceOnUse">
      <path id="path3369" d="m -0.294647,0.79538 0.2568357,0 0,0.127594 -0.2568357,0 0,-0.127594 z" inkscape:connector-curvature="0"/>
    </clipPath>
    <clipPath id="clipPath3357" clipPathUnits="userSpaceOnUse">
      <path id="path3359" d="m 119.835,786.924 c -1.26,-0.198 -2.214,-0.828 -2.124,-1.395 l 0,0 c 0.09,-0.576 1.188,-0.873 2.448,-0.675 l 0,0 c 1.269,0.207 2.214,0.828 2.124,1.404 l 0,0 c -0.072,0.45 -0.774,0.729 -1.683,0.729 l 0,0 c -0.243,0 -0.504,-0.018 -0.765,-0.063" inkscape:connector-curvature="0"/>
    </clipPath>
    <radialGradient id="radialGradient3345" spreadMethod="pad" gradientTransform="matrix(18.303543,0,0,-18.303543,122.9109,801.47595)" gradientUnits="userSpaceOnUse" r="1" cy="0" cx="0" fy="0" fx="0">
      <stop id="stop3347" offset="0" style="stop-opacity:1;stop-color:#a9bfc9"/>
      <stop id="stop3349" offset="1" style="stop-opacity:1;stop-color:#475563"/>
    </radialGradient>
    <clipPath id="clipPath3341" clipPathUnits="userSpaceOnUse">
      <path id="path3343" d="m -0.511566,0.623077 0.635803,0 0,0.285218 -0.635803,0 0,-0.285218 z" inkscape:connector-curvature="0"/>
    </clipPath>
    <clipPath id="clipPath3331" clipPathUnits="userSpaceOnUse">
      <path id="path3333" d="m 120.658,790.071 c -0.414,-0.009 -0.84,-0.046 -1.273,-0.114 l 0,0 c -3.231,-0.495 -5.841,-1.971 -5.427,-3.582 l 0,0 c 0.189,-0.729 0.864,-1.251 2.196,-1.521 l 0,0 c -0.477,0.792 -0.567,1.746 -0.567,1.746 l 0,0 c 0,0 1.224,0.954 4.023,2.016 l 0,0 c 0,0 2.601,-0.252 4.266,-0.693 l 0,0 c 0,0 0.135,-0.702 -0.054,-1.845 l 0,0 c 0.855,0.567 1.296,1.098 1.359,1.692 l 0,0 0,0.351 -0.036,0.243 c -0.217,0.879 -1.873,1.656 -4.031,1.707 l 0,0 -0.456,0 z" inkscape:connector-curvature="0"/>
    </clipPath>
    <radialGradient id="radialGradient3319" spreadMethod="pad" gradientTransform="matrix(18.304108,0,0,-18.304108,123.09065,801.65179)" gradientUnits="userSpaceOnUse" r="1" cy="0" cx="0" fy="0" fx="0">
      <stop id="stop3321" offset="0" style="stop-opacity:1;stop-color:#a9bfc9"/>
      <stop id="stop3323" offset="1" style="stop-opacity:1;stop-color:#475563"/>
    </radialGradient>
    <clipPath id="clipPath3315" clipPathUnits="userSpaceOnUse">
      <path id="path3317" d="m 0.252716,0.10791 0.134338,0 0,0.528351 -0.134338,0 0,-0.528351 z" inkscape:connector-curvature="0"/>
    </clipPath>
    <clipPath id="clipPath3305" clipPathUnits="userSpaceOnUse">
      <path id="path3307" d="m 129.303,799.677 c -0.261,0 -0.792,-2.151 -1.161,-4.77 l 0,0 c -0.378,-2.664 -0.459,-4.887 -0.18,-4.896 l 0,0 c 0.45,-0.027 1.512,2.358 1.827,4.59 l 0,0 c 0.387,2.691 -0.306,5.013 -0.468,5.076 l 0,0 -0.018,0 z" inkscape:connector-curvature="0"/>
    </clipPath>
    <radialGradient id="radialGradient3293" spreadMethod="pad" gradientTransform="matrix(18.303192,0,0,-18.303192,123.16507,801.66595)" gradientUnits="userSpaceOnUse" r="1" cy="0" cx="0" fy="0" fx="0">
      <stop id="stop3295" offset="0" style="stop-opacity:1;stop-color:#a9bfc9"/>
      <stop id="stop3297" offset="1" style="stop-opacity:1;stop-color:#475563"/>
    </radialGradient>
    <clipPath id="clipPath3289" clipPathUnits="userSpaceOnUse">
      <path id="path3291" d="m -0.739594,-0.346817 0.569718,0 0,0.221832 -0.569718,0 0,-0.221832 z" inkscape:connector-curvature="0"/>
    </clipPath>
    <clipPath id="clipPath3279" clipPathUnits="userSpaceOnUse">
      <path id="path3281" d="m 117.441,807.993 c 0.279,-0.045 0.576,-0.135 0.774,-0.261 l 0,0 -3.051,-1.368 -3.645,-0.954 c 0,0 -0.216,0.018 -0.45,0.252 l 0,0 c -0.72,-0.549 -1.242,-1.053 -1.44,-1.332 l 0,0 0,-0.261 c 0.468,-0.117 2.727,0.441 5.301,1.323 l 0,0 c 2.871,0.99 5.13,2.034 5.022,2.331 l 0,0 c -0.054,0.144 -0.783,0.288 -1.8,0.288 l 0,0 c -0.225,0 -0.459,0 -0.711,-0.018" inkscape:connector-curvature="0"/>
    </clipPath>
    <radialGradient id="radialGradient3267" spreadMethod="pad" gradientTransform="matrix(18.302139,0,0,-18.302139,122.8483,801.36951)" gradientUnits="userSpaceOnUse" r="1" cy="0" cx="0" fy="0" fx="0">
      <stop id="stop3269" offset="0" style="stop-opacity:1;stop-color:#a9bfc9"/>
      <stop id="stop3271" offset="1" style="stop-opacity:1;stop-color:#475563"/>
    </radialGradient>
    <clipPath id="clipPath3263" clipPathUnits="userSpaceOnUse">
      <path id="path3265" d="m -0.59256,-0.339478 0.203751,0 0,0.07016 -0.203751,0 0,-0.07016 z" inkscape:connector-curvature="0"/>
    </clipPath>
    <clipPath id="clipPath3253" clipPathUnits="userSpaceOnUse">
      <path id="path3255" d="m 114.975,807.579 c -0.261,-0.072 -0.513,-0.144 -0.756,-0.234 l 0,0 c -0.846,-0.297 -1.566,-0.657 -2.214,-1.044 l 0,0 c 0.792,0.153 2.277,0.477 3.726,1.278 l 0,0 -0.756,0 z" inkscape:connector-curvature="0"/>
    </clipPath>
    <radialGradient id="radialGradient3241" spreadMethod="pad" gradientTransform="matrix(18.305191,0,0,-18.305191,123.17569,801.79272)" gradientUnits="userSpaceOnUse" r="1" cy="0" cx="0" fy="0" fx="0">
      <stop id="stop3243" offset="0" style="stop-opacity:1;stop-color:#a9bfc9"/>
      <stop id="stop3245" offset="1" style="stop-opacity:1;stop-color:#475563"/>
    </radialGradient>
    <clipPath id="clipPath3237" clipPathUnits="userSpaceOnUse">
      <path id="path3239" d="m -0.0251465,-0.288971 0.3047945,0 0,0.2701111 -0.3047945,0 0,-0.2701111 z" inkscape:connector-curvature="0"/>
    </clipPath>
    <clipPath id="clipPath3227" clipPathUnits="userSpaceOnUse">
      <path id="path3229" d="m 122.715,807.082 0,-0.106 c 0.342,-0.342 1.449,-1.287 2.736,-2.448 l 0,0 c 1.255,-1.129 2.322,-2.098 2.713,-2.39 l 0,0 0.129,0 c -0.166,0.356 -0.993,1.701 -2.41,2.948 l 0,0 c -1.008,0.891 -1.917,1.395 -2.277,1.575 l 0,0 c -0.419,0.214 -0.732,0.357 -0.887,0.421 l 0,0 -0.004,0 z" inkscape:connector-curvature="0"/>
    </clipPath>
    <radialGradient id="radialGradient3215" spreadMethod="pad" gradientTransform="matrix(18.304321,0,0,-18.304306,123.00777,801.51099)" gradientUnits="userSpaceOnUse" r="1" cy="0" cx="0" fy="0" fx="0">
      <stop id="stop3217" offset="0" style="stop-opacity:1;stop-color:#a9bfc9"/>
      <stop id="stop3219" offset="1" style="stop-opacity:1;stop-color:#475563"/>
    </radialGradient>
    <clipPath id="clipPath3211" clipPathUnits="userSpaceOnUse">
      <path id="path3213" d="m -0.494431,-0.189987 0.711503,0 0,0.714935 -0.711503,0 0,-0.714935 z" inkscape:connector-curvature="0"/>
    </clipPath>
    <clipPath id="clipPath3201" clipPathUnits="userSpaceOnUse">
      <path id="path3203" d="m 119.781,804.951 c -3.402,-0.387 -5.823,-3.627 -5.409,-7.236 l 0,0 c 0.351,-3.094 2.687,-5.459 5.492,-5.813 l 0,0 0.007,0 c -0.002,0.026 -0.056,0.634 -0.126,1.241 l 0,0 c -0.063,0.612 -0.153,1.224 -0.153,1.224 l 0,0 -0.738,-0.081 c 0,0 -0.846,0.81 -1.512,1.755 l 0,0 c -0.621,0.882 -1.053,1.899 -1.053,1.899 l 0,0 c 0,0 0.315,1.107 0.729,2.133 l 0,0 c 0.423,1.044 0.945,1.998 0.945,1.998 l 0,0 c 0,0 0.99,0.234 2.016,0.351 l 0,0 c 1.089,0.126 2.223,0.135 2.223,0.135 l 0,0 c 0,0 0.765,-0.756 1.404,-1.656 l 0,0 c 0.648,-0.918 1.17,-1.989 1.17,-1.989 l 0,0 c 0,0 -0.144,-1.026 -0.558,-2.052 l 0,0 c -0.423,-1.035 -1.125,-2.088 -1.125,-2.088 l 0,0 -0.657,-0.108 c 0,0 0.09,-0.585 0.135,-1.188 l 0,0 c 0.045,-0.63 0.072,-1.26 0.072,-1.26 l 0,0 c 2.655,0.981 4.401,3.816 4.041,6.912 l 0,0 c -0.378,3.366 -3.105,5.859 -6.228,5.859 l 0,0 c -0.225,0 -0.45,-0.009 -0.675,-0.036" inkscape:connector-curvature="0"/>
    </clipPath>
    <radialGradient id="radialGradient3189" spreadMethod="pad" gradientTransform="matrix(18.303757,0,0,-18.303741,123.06819,801.6792)" gradientUnits="userSpaceOnUse" r="1" cy="0" cx="0" fy="0" fx="0">
      <stop id="stop3191" offset="0" style="stop-opacity:1;stop-color:#a9bfc9"/>
      <stop id="stop3193" offset="1" style="stop-opacity:1;stop-color:#475563"/>
    </radialGradient>
    <clipPath id="clipPath3185" clipPathUnits="userSpaceOnUse">
      <path id="path3187" d="m -0.251678,0.0578003 0.24499465,0 0,0.2395937 -0.24499465,0 0,-0.2395937 z" inkscape:connector-curvature="0"/>
    </clipPath>
    <clipPath id="clipPath3175" clipPathUnits="userSpaceOnUse">
      <path id="path3177" d="m 120.687,800.621 -0.231,-0.017 c -1.17,-0.126 -2.007,-1.197 -1.863,-2.385 l 0,0 c 0.135,-1.188 1.188,-2.043 2.349,-1.908 l 0,0 c 1.17,0.135 2.007,1.206 1.872,2.394 l 0,0 c -0.124,1.077 -1.019,1.886 -2.055,1.916 l 0,0 -0.072,0 z" inkscape:connector-curvature="0"/>
    </clipPath>
    <radialGradient id="radialGradient3163" spreadMethod="pad" gradientTransform="matrix(18.304321,0,0,-18.304306,122.99605,801.52924)" gradientUnits="userSpaceOnUse" r="1" cy="0" cx="0" fy="0" fx="0">
      <stop id="stop3165" offset="0" style="stop-opacity:1;stop-color:#a9bfc9"/>
      <stop id="stop3167" offset="1" style="stop-opacity:1;stop-color:#475563"/>
    </radialGradient>
    <clipPath id="clipPath3159" clipPathUnits="userSpaceOnUse">
      <path id="path3161" d="m -0.90535,0.245621 0.140625,0 0,0.253692 -0.140625,0 0,-0.253692 z" inkscape:connector-curvature="0"/>
    </clipPath>
    <clipPath id="clipPath3149" clipPathUnits="userSpaceOnUse">
      <path id="path3151" d="m 107.343,797.031 c -0.576,-0.189 -0.918,-1.215 -0.774,-2.412 l 0,0 c 0.153,-1.26 0.801,-2.232 1.449,-2.151 l 0,0 c 0.648,0.081 1.053,1.17 0.9,2.439 l 0,0 c -0.135,1.089 -0.63,1.953 -1.179,2.124 l 0,0 -0.396,0 z" inkscape:connector-curvature="0"/>
    </clipPath>
    <radialGradient id="radialGradient3137" spreadMethod="pad" gradientTransform="matrix(18.30423,0,0,-18.30423,123.12738,801.7226)" gradientUnits="userSpaceOnUse" r="1" cy="0" cx="0" fy="0" fx="0">
      <stop id="stop3139" offset="0" style="stop-opacity:1;stop-color:#a9bfc9"/>
      <stop id="stop3141" offset="1" style="stop-opacity:1;stop-color:#475563"/>
    </radialGradient>
    <clipPath id="clipPath3133" clipPathUnits="userSpaceOnUse">
      <path id="path3135" d="m -0.893127,0.0254822 0.329956,0 0,0.6737828 -0.329956,0 0,-0.6737828 z" inkscape:connector-curvature="0"/>
    </clipPath>
    <clipPath id="clipPath3123" clipPathUnits="userSpaceOnUse">
      <path id="path3125" d="m 108.756,801.252 -0.153,0 c -0.799,-0.09 -1.409,-1.03 -1.823,-2.213 l 0,0 0,-0.206 c 0.836,0.449 1.904,0.682 1.904,0.682 l 0,0 c 0,0 1.116,-1.242 2.151,-3.969 l 0,0 c 0,0 0,-2.988 -0.504,-4.608 l 0,0 c 0,0 -1.404,-0.45 -2.52,-0.144 l 0,0 c 0.625,-1.34 1.401,-1.829 2.248,-1.871 l 0,0 0.21,0 0.197,0.017 c 1.647,0.18 2.349,3.474 2.043,6.48 l 0,0 c -0.324,3.141 -2.133,5.832 -3.744,5.832 l 0,0 -0.009,0 z" inkscape:connector-curvature="0"/>
    </clipPath>
    <linearGradient id="linearGradient3109" spreadMethod="pad" gradientTransform="matrix(113.35246,0,0,-113.35246,34.04985,778.97742)" gradientUnits="userSpaceOnUse" y2="0" x2="1" y1="0" x1="0">
      <stop id="stop3111" offset="0" style="stop-opacity:1;stop-color:#d1d0d0"/>
      <stop id="stop3113" offset="0.5" style="stop-opacity:1;stop-color:#ffffff"/>
      <stop id="stop3115" offset="1" style="stop-opacity:1;stop-color:#d3d2d2"/>
    </linearGradient>
    <clipPath id="clipPath3105" clipPathUnits="userSpaceOnUse">
      <path id="path3107" d="m 0,-0.321091 0.999695,0 0,0.646317 -0.999695,0 0,-0.646317 z" inkscape:connector-curvature="0"/>
    </clipPath>
    <radialGradient id="radialGradient3083" spreadMethod="pad" gradientTransform="matrix(57.677322,0,0,-9.5027924,90.708267,813.55652)" gradientUnits="userSpaceOnUse" r="1" cy="0" cx="0" fy="0" fx="0">
      <stop id="stop3085" offset="0" style="stop-opacity:1;stop-color:#374752"/>
      <stop id="stop3087" offset="1" style="stop-opacity:1;stop-color:#8cbdd3"/>
    </radialGradient>
    <clipPath id="clipPath3079" clipPathUnits="userSpaceOnUse">
      <path id="path3081" d="m -0.982925,-1.01675 1.965866,0 0,2.03353 -1.965866,0 0,-2.03353 z" inkscape:connector-curvature="0"/>
    </clipPath>
    <clipPath id="clipPath3069" clipPathUnits="userSpaceOnUse">
      <path id="path3071" d="m 34.02,813.555 c 0,-5.337 25.38,-9.657 56.691,-9.657 l 0,0 c 31.311,0 56.691,4.32 56.691,9.657 l 0,0 c 0,5.337 -25.38,9.666 -56.691,9.666 l 0,0 c -31.311,0 -56.691,-4.329 -56.691,-9.666" inkscape:connector-curvature="0"/>
    </clipPath>
    <radialGradient id="radialGradient3057" spreadMethod="pad" gradientTransform="matrix(57.677322,0,0,-9.5027924,90.708267,745.49872)" gradientUnits="userSpaceOnUse" r="1" cy="0" cx="0" fy="0" fx="0">
      <stop id="stop3059" offset="0" style="stop-opacity:1;stop-color:#2e3840"/>
      <stop id="stop3061" offset="1" style="stop-opacity:1;stop-color:#97c3d7"/>
    </radialGradient>
    <clipPath id="clipPath3053" clipPathUnits="userSpaceOnUse">
      <path id="path3055" d="m -0.982925,-1.0168 1.965866,0 0,2.03358 -1.965866,0 0,-2.03358 z" inkscape:connector-curvature="0"/>
    </clipPath>
    <clipPath id="clipPath3043" clipPathUnits="userSpaceOnUse">
      <path id="path3045" d="m 107.775,744.399 c 0.143,-1.256 2.108,-1.851 5.612,-1.851 l 0,0 c 6.3,0 17.572,1.923 32.186,5.392 l 0,0 c -1.845,1.208 -5.026,2.324 -9.256,3.299 l 0,0 c -0.008,0.002 -0.017,0.004 -0.026,0.006 l 0,0 c -0.028,0.007 -0.055,0.013 -0.084,0.019 l 0,0 c -0.01,0.003 -0.02,0.005 -0.031,0.007 l 0,0 c -0.024,0.006 -0.047,0.011 -0.071,0.017 l 0,0 c -0.017,0.004 -0.034,0.007 -0.051,0.011 l 0,0 c -0.017,0.004 -0.034,0.008 -0.052,0.012 l 0,0 c -0.02,0.004 -0.039,0.009 -0.059,0.013 l 0,0 c -0.014,0.003 -0.027,0.006 -0.04,0.009 l 0,0 c -0.126,0.029 -0.252,0.057 -0.379,0.085 l 0,0 c -0.002,0 -0.003,0 -0.005,10e-4 l 0,0 c -0.068,0.015 -0.134,0.029 -0.203,0.044 l 0,0 c -0.003,0.001 -0.007,0.002 -0.01,0.002 l 0,0 c -3.154,0.684 -6.836,1.294 -10.943,1.811 l 0,0 c -0.004,0.001 -0.008,0.001 -0.012,0.002 l 0,0 c -0.087,0.011 -0.179,0.022 -0.266,0.033 l 0,0 c -0.004,0 -0.006,10e-4 -0.01,10e-4 l 0,0 c -0.119,0.015 -0.242,0.03 -0.361,0.045 l 0,0 c -0.018,0.002 -0.034,0.004 -0.052,0.006 l 0,0 c -0.021,0.003 -0.042,0.005 -0.063,0.008 l 0,0 c -0.034,0.004 -0.068,0.008 -0.101,0.012 l 0,0 c -0.015,0.002 -0.028,0.003 -0.043,0.005 l 0,0 c -0.032,0.004 -0.064,0.008 -0.096,0.012 l 0,0 c -0.022,0.002 -0.043,0.005 -0.064,0.008 l 0,0 c -0.037,0.004 -0.072,0.008 -0.108,0.012 l 0,0 c -0.009,0.002 -0.021,0.003 -0.03,0.004 l 0,0 c -2.704,0.322 -5.579,0.605 -8.6,0.844 l 0,0 c -4.528,-4.855 -6.959,-8.406 -6.782,-9.869" inkscape:connector-curvature="0"/>
    </clipPath>
    <radialGradient id="radialGradient3031" spreadMethod="pad" gradientTransform="matrix(57.677322,0,0,-9.5027924,90.708267,745.49872)" gradientUnits="userSpaceOnUse" r="1" cy="0" cx="0" fy="0" fx="0">
      <stop id="stop3033" offset="0" style="stop-opacity:1;stop-color:#2b363f"/>
      <stop id="stop3035" offset="1" style="stop-opacity:1;stop-color:#8cbdd3"/>
    </radialGradient>
    <clipPath id="clipPath3027" clipPathUnits="userSpaceOnUse">
      <path id="path3029" d="m -0.982925,-1.0168 1.965866,0 0,2.03358 -1.965866,0 0,-2.03358 z" inkscape:connector-curvature="0"/>
    </clipPath>
    <clipPath id="clipPath3017" clipPathUnits="userSpaceOnUse">
      <path id="path3019" d="m 34.02,745.497 c 0,-5.337 25.38,-9.657 56.691,-9.657 l 0,0 c 31.311,0 56.691,4.32 56.691,9.657 l 0,0 c 0,0.009 0,0.019 0,0.028 l 0,0 c 0,0.002 0,0.004 0,0.006 l 0,0 c -10e-4,0.009 -10e-4,0.018 -10e-4,0.027 l 0,0 c 0,0.002 0,0.003 0,0.005 l 0,0 c -0.001,0.008 -0.001,0.016 -0.001,0.024 l 0,0 c -0.001,0.002 -0.001,0.004 -0.001,0.006 l 0,0 c 0,0.008 -0.001,0.018 -0.001,0.026 l 0,0 c -0.001,0.003 -0.001,0.005 -0.001,0.007 l 0,0 c -0.001,0.009 -0.001,0.017 -0.002,0.026 l 0,0 c 0,0 0,10e-4 0,10e-4 l 0,0 c -0.001,0.01 -0.002,0.019 -0.003,0.028 l 0,0 c 0,0.002 -0.001,0.005 -0.001,0.007 l 0,0 c -0.001,0.009 -0.002,0.017 -0.003,0.026 l 0,0 c 0,0.002 -0.001,0.004 -0.001,0.006 l 0,0 c -0.001,0.007 -0.002,0.014 -0.003,0.021 l 0,0 c 0,0.003 -10e-4,0.006 -10e-4,0.009 l 0,0 c -0.001,0.008 -0.003,0.017 -0.004,0.025 l 0,0 c 0,0.003 -0.001,0.005 -0.001,0.008 l 0,0 c -0.002,0.007 -0.003,0.013 -0.004,0.02 l 0,0 c 0,0.003 -0.001,0.005 -0.001,0.008 l 0,0 c -0.002,0.008 -0.003,0.016 -0.005,0.024 l 0,0 c -0.001,0.004 -0.002,0.007 -0.002,0.01 l 0,0 c -0.001,0.006 -0.003,0.012 -0.004,0.018 l 0,0 c -0.001,0.005 -0.002,0.01 -0.003,0.015 l 0,0 c -0.002,0.006 -0.003,0.012 -0.004,0.017 l 0,0 c -10e-4,0.004 -0.002,0.008 -0.003,0.012 l 0,0 c -0.002,0.006 -0.003,0.011 -0.004,0.016 l 0,0 c -0.002,0.007 -0.004,0.013 -0.005,0.02 l 0,0 c -10e-4,0.004 -0.002,0.007 -0.003,0.012 l 0,0 c -0.002,0.004 -0.003,0.009 -0.004,0.014 l 0,0 c -0.002,0.006 -0.004,0.013 -0.006,0.02 l 0,0 c -0.002,0.005 -0.003,0.01 -0.005,0.015 l 0,0 c -10e-4,0.003 -0.002,0.007 -0.003,0.01 l 0,0 c -0.002,0.008 -0.005,0.017 -0.008,0.025 l 0,0 c -0.001,0.003 -0.002,0.007 -0.003,0.01 l 0,0 c -0.002,0.005 -0.003,0.01 -0.005,0.016 l 0,0 c -0.001,0.002 -0.002,0.005 -0.003,0.007 l 0,0 c -0.003,0.01 -0.007,0.021 -0.011,0.031 l 0,0 c 0,0.001 -0.001,0.003 -0.001,0.004 l 0,0 c -0.007,0.019 -0.014,0.038 -0.022,0.056 l 0,0 c 0,10e-4 0,10e-4 0,0.002 l 0,0 c -0.244,0.609 -0.82,1.203 -1.696,1.775 l 0,0 c -14.614,-3.469 -25.886,-5.392 -32.186,-5.392 l 0,0 c -3.504,0 -5.469,0.595 -5.612,1.851 l 0,0 c -0.177,1.463 2.254,5.014 6.782,9.869 l 0,0 c -4.301,0.341 -8.896,0.593 -13.701,0.741 l 0,0 c -0.006,0 -0.009,0 -0.015,0 l 0,0 c -0.118,0.004 -0.235,0.007 -0.353,0.011 l 0,0 c -0.013,0 -0.021,0 -0.033,10e-4 l 0,0 c -0.053,0.001 -0.106,0.003 -0.158,0.004 l 0,0 c -0.011,10e-4 -0.018,10e-4 -0.029,10e-4 l 0,0 c -0.048,0.002 -0.096,0.003 -0.144,0.004 l 0,0 c -0.017,10e-4 -0.031,10e-4 -0.047,0.002 l 0,0 c -0.373,0.01 -0.748,0.02 -1.124,0.03 l 0,0 c -0.015,0 -0.029,0 -0.044,10e-4 l 0,0 c -0.048,10e-4 -0.095,0.002 -0.143,0.003 l 0,0 c -0.013,0 -0.027,10e-4 -0.04,10e-4 l 0,0 c -0.049,10e-4 -0.099,0.002 -0.148,0.004 l 0,0 c -0.017,0 -0.032,0 -0.049,10e-4 l 0,0 c -0.047,10e-4 -0.095,0.002 -0.143,0.003 l 0,0 c -0.013,0 -0.025,10e-4 -0.038,10e-4 l 0,0 c -0.05,10e-4 -0.101,0.002 -0.152,0.003 l 0,0 c -0.013,0.001 -0.026,0.001 -0.039,0.001 l 0,0 c -0.116,0.003 -0.234,0.006 -0.35,0.008 l 0,0 c -0.011,0 -0.019,0 -0.03,0.001 l 0,0 c -0.247,0.005 -0.494,0.01 -0.741,0.014 l 0,0 c -0.03,0.001 -0.06,0.002 -0.09,0.002 l 0,0 c -0.039,10e-4 -0.078,0.002 -0.118,0.002 l 0,0 c -0.014,10e-4 -0.026,10e-4 -0.041,10e-4 l 0,0 c -0.048,0.001 -0.096,0.002 -0.144,0.003 l 0,0 c -0.015,0 -0.032,0 -0.047,10e-4 l 0,0 c -0.052,0 -0.103,0.001 -0.155,0.002 l 0,0 c -0.011,0 -0.022,10e-4 -0.034,10e-4 l 0,0 c -0.046,10e-4 -0.092,10e-4 -0.139,0.002 l 0,0 c -0.02,0 -0.04,0.001 -0.061,0.001 l 0,0 c -0.049,10e-4 -0.097,0.002 -0.146,0.002 l 0,0 c -0.013,10e-4 -0.024,10e-4 -0.037,10e-4 l 0,0 c -0.051,10e-4 -0.1,0.002 -0.151,0.002 l 0,0 c -0.015,10e-4 -0.026,10e-4 -0.041,10e-4 l 0,0 c -0.052,10e-4 -0.105,0.002 -0.157,0.002 l 0,0 c -0.011,10e-4 -0.025,10e-4 -0.036,10e-4 l 0,0 c -0.046,0.001 -0.092,0.001 -0.139,0.002 l 0,0 c -0.018,0 -0.036,0 -0.055,10e-4 l 0,0 c -0.191,0.002 -0.383,0.005 -0.574,0.007 l 0,0 c -0.011,0.001 -0.023,0.001 -0.035,0.001 l 0,0 c -0.048,0 -0.095,10e-4 -0.143,10e-4 l 0,0 c -0.032,10e-4 -0.06,10e-4 -0.092,0.002 l 0,0 c -0.032,0 -0.066,0 -0.098,0.001 l 0,0 c -0.027,0 -0.053,0 -0.079,10e-4 l 0,0 c -0.037,0 -0.075,0 -0.112,10e-4 l 0,0 c -0.028,0 -0.058,0 -0.086,10e-4 l 0,0 c -0.036,0 -0.07,0 -0.106,10e-4 l 0,0 c -0.027,0 -0.05,0 -0.076,0.001 l 0,0 c -0.036,0 -0.072,0 -0.108,10e-4 l 0,0 c -0.028,0 -0.061,0 -0.09,0 l 0,0 c -0.043,10e-4 -0.085,10e-4 -0.128,0.002 l 0,0 c -0.015,0 -0.028,0 -0.043,0 l 0,0 c -0.049,0 -0.098,10e-4 -0.147,10e-4 l 0,0 c -0.017,0 -0.038,0.001 -0.055,0.001 l 0,0 c -0.048,0 -0.095,0 -0.143,10e-4 l 0,0 c -0.016,0 -0.03,0 -0.045,0 l 0,0 c -0.05,10e-4 -0.101,10e-4 -0.151,10e-4 l 0,0 c -0.015,0 -0.029,10e-4 -0.044,10e-4 l 0,0 c -0.125,10e-4 -0.251,10e-4 -0.376,0.002 l 0,0 c -0.03,0 -0.057,0 -0.087,10e-4 l 0,0 c -0.036,0 -0.073,0 -0.11,0 l 0,0 c -0.026,0 -0.052,0 -0.078,10e-4 l 0,0 c -0.036,0 -0.07,0 -0.106,0 l 0,0 c -0.03,0 -0.058,0 -0.088,0 l 0,0 c -0.037,10e-4 -0.075,10e-4 -0.112,10e-4 l 0,0 c -0.027,0 -0.053,0 -0.08,0 l 0,0 c -0.034,0 -0.069,10e-4 -0.103,10e-4 l 0,0 c -0.03,0 -0.058,0 -0.088,0 l 0,0 c -0.039,0 -0.076,0 -0.115,0 l 0,0 c -0.025,0 -0.05,0.001 -0.074,0.001 l 0,0 c -0.036,0 -0.071,0 -0.106,0 l 0,0 c -0.032,0 -0.06,0 -0.093,0 l 0,0 c -0.034,0 -0.069,0 -0.103,0 l 0,0 c -0.029,0 -0.058,0 -0.086,0 l 0,0 c -0.041,10e-4 -0.082,10e-4 -0.122,10e-4 l 0,0 c -0.021,0 -0.043,0 -0.064,0 l 0,0 c -0.052,0 -0.104,0 -0.156,0 l 0,0 c -0.013,0 -0.024,0 -0.037,0 l 0,0 c -0.065,0 -0.13,0 -0.195,0 l 0,0 c -31.311,0 -56.691,-4.329 -56.691,-9.666" inkscape:connector-curvature="0"/>
    </clipPath>
    <clipPath id="clipPath3001" clipPathUnits="userSpaceOnUse">
      <path id="path3003" d="m 0,728.505 595.275,0 0,102.042 -595.275,0 0,-102.042 z" inkscape:connector-curvature="0"/>
    </clipPath>
    <clipPath id="clipPath3769-9" clipPathUnits="userSpaceOnUse">
      <path inkscape:connector-curvature="0" id="path3771-4" d="m 34.02,354.33 34.011,0 0,45.351 -34.011,0 0,-45.351 z"/>
    </clipPath>
    <clipPath id="clipPath3757-8" clipPathUnits="userSpaceOnUse">
      <path inkscape:connector-curvature="0" id="path3759-8" d="m 34.02,358.477 34.011,0 0,41.204 -34.011,0 0,-41.204 z"/>
    </clipPath>
  </defs>
  <sodipodi:namedview id="base" pagecolor="#ffffff" bordercolor="#666666" borderopacity="1.0" inkscape:pageopacity="0.0" inkscape:pageshadow="2" inkscape:zoom="0.175" inkscape:cx="-2.3614356" inkscape:cy="-404.36607" inkscape:document-units="px" inkscape:current-layer="g2993" showgrid="false" fit-margin-top="0" fit-margin-left="0" fit-margin-right="0" fit-margin-bottom="0" inkscape:window-width="511" inkscape:window-height="403" inkscape:window-x="212" inkscape:window-y="150" inkscape:window-maximized="0"/>
  <metadata id="metadata7">
    <rdf:RDF>
      <cc:Work rdf:about="">
        <dc:format>image/svg+xml</dc:format>
        <dc:type rdf:resource="http://purl.org/dc/dcmitype/StillImage"/>
        <dc:title/>
      </cc:Work>
    </rdf:RDF>
  </metadata>
  <g inkscape:label="Calque 1" inkscape:groupmode="layer" id="layer1" transform="translate(-195.98746,-75.280537)">
    <g transform="matrix(1.25,0,0,-1.25,2.953125,1077.1482)" inkscape:label="dijon brest" id="g2993">
      <g transform="matrix(19.041284,0,0,19.041284,-493.35701,-6808.9453)" id="g3753">
        <g clip-path="url(#clipPath3757-8)" id="g3755">
          <g transform="translate(51.0195,398.2864)" id="g3761">
            <path id="path3763" style="fill:#231f20;fill-opacity:1;fill-rule:nonzero;stroke:none" d="m 0,0 c -0.695,-0.022 -3.482,0.224 -5.689,1.399 -4.199,-2.914 -6.122,-4.01 -11.315,-5.363 0.224,-4.473 -0.01,-24.666 17.044,-35.813 l 0.046,-0.032 0.017,0.012 C 17.159,-28.65 16.788,-8.437 17.012,-3.964 11.818,-2.611 10.055,-1.515 5.853,1.399 3.651,0.224 0.693,-0.022 0,0" inkscape:connector-curvature="0"/>
          </g>
        </g>
      </g>
      <g transform="matrix(19.041284,0,0,19.041284,-493.35701,-6808.9453)" id="g3765">
        <g clip-path="url(#clipPath3769-9)" id="g3767">
          <g transform="translate(67.0794,393.6371)" id="g3773">
            <path id="path3775" style="fill:#ed1c24;fill-opacity:1;fill-rule:nonzero;stroke:none" d="M 0,0 C -4.995,1.308 -6.374,2.317 -10.416,5.138 -12.534,4 -15.217,4.003 -15.884,4.024 l 0,0.004 -0.08,-0.003 -0.08,0.003 0,-0.004 C -16.713,4.003 -19.394,4 -21.517,5.138 -25.556,2.317 -26.936,1.308 -31.931,0 c 0.216,-4.329 -0.479,-23.922 15.924,-34.708 l 0.044,-0.032 0.017,0.012 C 0.459,-23.94 -0.215,-4.329 0,0" inkscape:connector-curvature="0"/>
          </g>
          <g transform="translate(66.3045,392.909)" id="g3777">
            <path id="path3779" style="fill:#ffffff;fill-opacity:1;fill-rule:nonzero;stroke:none" d="m 0,0 c -4.711,1.235 -6.012,2.185 -9.823,4.844 -1.998,-1.072 -4.529,-1.069 -5.158,-1.05 l 0,0.004 -0.075,-0.002 -0.075,0.002 0,-0.004 C -15.762,3.775 -18.29,3.772 -20.293,4.844 -24.102,2.185 -25.404,1.235 -30.114,0 c 0.203,-4.081 -0.452,-22.551 15.018,-32.72 l 0.041,-0.03 0.016,0.011 C 0.432,-22.569 -0.203,-4.081 0,0" inkscape:connector-curvature="0"/>
          </g>
          <g transform="translate(66.0893,392.8485)" id="g3781">
            <path id="path3783" style="fill:#ed1c24;fill-opacity:1;fill-rule:nonzero;stroke:none" d="m 0,0 c -4.649,1.167 -5.933,2.065 -9.693,4.577 -1.972,-1.012 -4.47,-1.01 -5.09,-0.992 l 0,0.004 -0.074,-0.002 -0.075,0.002 0,-0.004 c -0.622,-0.018 -3.117,-0.02 -5.093,0.992 -3.759,-2.512 -5.044,-3.41 -9.692,-4.577 0.201,-3.856 -0.446,-21.313 14.82,-30.923 l 0,-0.055 0.041,0.027 0.016,-0.013 0,0.023 C 0.426,-21.33 -0.201,-3.856 0,0" inkscape:connector-curvature="0"/>
          </g>
          <g transform="translate(52.9892,364.5672)" id="g3785">
            <path id="path3787" style="fill:#231f20;fill-opacity:1;fill-rule:nonzero;stroke:none" d="M 0,0 C -0.001,-0.001 -0.001,-0.002 -0.002,-0.002 -0.001,-0.001 -0.001,0 0,0.001 0,0.001 0,0 0,0 m -0.329,-0.13 c -0.145,0 -0.27,0.073 -0.365,0.214 -0.08,0.117 -0.13,0.265 -0.13,0.382 0,0.147 0.133,0.264 0.305,0.264 0.135,0 0.26,-0.064 0.353,-0.18 0.097,-0.126 0.159,-0.292 0.159,-0.429 0,-0.147 -0.133,-0.251 -0.322,-0.251 m -0.094,0.97 c -0.356,0 -0.625,-0.249 -0.625,-0.578 0,-0.031 0.004,-0.06 0.01,-0.09 l 0,-0.004 c 0.001,-0.001 0.001,-0.001 0.002,-0.002 0.048,-0.218 0.258,-0.385 0.531,-0.417 0.058,-0.009 0.096,-0.007 0.096,-0.007 0.337,0 0.628,0.258 0.628,0.559 0,0.298 -0.285,0.539 -0.642,0.539 m -1.008,-1.334 c -10e-4,-0.001 -0.002,-0.001 -0.004,-0.002 0.004,0.003 0.007,0.006 0.011,0.009 -0.002,-0.003 -0.005,-0.005 -0.007,-0.007 M -1.56,0.297 c -0.047,0 -0.09,-0.003 -0.166,-0.012 -0.011,-0.002 -0.026,-0.002 -0.034,-0.002 -0.031,0 -0.045,0.022 -0.045,0.071 0,0.064 0.022,0.141 0.05,0.184 0.023,0.033 0.051,0.037 0.198,0.037 0.139,0 0.227,-0.003 0.337,-0.004 0.025,-0.003 0.05,-0.003 0.065,-0.003 0.045,0 0.06,0.011 0.07,0.061 0.006,0.019 0.026,0.065 0.077,0.19 0.008,0.016 0.011,0.027 0.011,0.035 0,0.011 -0.014,0.022 -0.028,0.022 -0.017,0 -0.028,-0.007 -0.048,-0.022 -0.063,-0.06 -0.079,-0.067 -0.178,-0.067 l -0.49,0 c -0.081,0 -0.087,-0.004 -0.09,-0.059 C -1.848,0.525 -1.868,0.404 -1.902,0.294 -1.946,0.15 -1.946,0.15 -1.946,0.134 c 0,-0.031 0.033,-0.056 0.078,-0.056 0.011,0 0.029,0 0.049,0.002 0.082,0.009 0.152,0.013 0.189,0.013 0.199,0 0.347,-0.121 0.35,-0.285 0,-0.003 0,-0.007 0,-0.01 -10e-4,-0.017 -0.003,-0.032 -0.006,-0.048 -0.003,-0.013 -0.007,-0.027 -0.011,-0.039 -0.005,-0.016 -0.01,-0.032 -0.018,-0.046 -0.07,-0.126 -0.234,-0.208 -0.44,-0.208 -0.102,0 -0.18,0.018 -0.285,0.064 -0.023,0.009 -0.037,0.013 -0.048,0.013 -0.022,0 -0.043,-0.016 -0.043,-0.032 0,-0.057 0.235,-0.125 0.43,-0.125 0.396,0 0.693,0.226 0.693,0.524 0,0.245 -0.209,0.396 -0.552,0.396 M -2.569,0.045 c -0.209,0 -0.373,0.185 -0.373,0.425 0,0.192 0.113,0.324 0.28,0.324 0.215,0 0.401,-0.215 0.401,-0.459 0,-0.176 -0.121,-0.29 -0.308,-0.29 m 0.052,0.753 C -2.522,0.798 -2.526,0.799 -2.531,0.8 -2.533,0.801 -2.535,0.802 -2.538,0.803 -2.53,0.802 -2.524,0.8 -2.517,0.798 M -2.131,0.68 c -0.11,0.119 -0.262,0.178 -0.452,0.178 -0.212,0 -0.37,-0.057 -0.483,-0.173 -0.088,-0.094 -0.139,-0.217 -0.139,-0.345 0,-0.247 0.187,-0.422 0.45,-0.422 0.121,0 0.212,0.027 0.353,0.105 0.025,0.013 0.04,0.018 0.051,0.018 0.012,0 0.02,-0.009 0.02,-0.023 0,-0.048 -0.057,-0.164 -0.119,-0.244 -0.133,-0.169 -0.325,-0.274 -0.594,-0.324 -0.042,-0.009 -0.059,-0.018 -0.059,-0.039 0,-0.02 0.02,-0.034 0.054,-0.034 0.161,0 0.427,0.08 0.61,0.184 0.289,0.165 0.464,0.432 0.464,0.708 0,0.155 -0.054,0.299 -0.156,0.411 m -0.895,-0.897 c 0,0.023 -0.02,0.034 -0.065,0.034 -0.185,0.005 -0.241,0.057 -0.241,0.236 l 0,0.453 c 0,0.066 0.006,0.176 0.011,0.233 0.003,0.023 0.006,0.046 0.006,0.057 0,0.021 -0.011,0.032 -0.034,0.032 -0.014,0 -0.025,-0.004 -0.045,-0.02 C -3.504,0.726 -3.547,0.705 -3.68,0.677 -3.858,0.645 -3.886,0.635 -3.886,0.596 c 0,-0.017 0.014,-0.03 0.034,-0.03 0.006,0 0.014,0.002 0.034,0.009 0.028,0.014 0.057,0.018 0.09,0.018 0.034,0 0.059,-0.009 0.08,-0.023 l 0.024,-0.022 c 0.002,-0.003 0.004,-0.006 0.006,-0.01 l 0.02,-0.206 0,-0.346 c 0,-0.014 -0.001,-0.028 -0.003,-0.041 L -3.63,-0.126 c -0.029,-0.035 -0.076,-0.053 -0.146,-0.057 -0.062,-0.002 -0.084,-0.011 -0.084,-0.034 0,-0.02 0.016,-0.032 0.053,-0.032 0.012,0 0.034,0 0.057,0.002 0.11,0.007 0.226,0.012 0.319,0.012 0.096,0 0.215,-0.005 0.325,-0.012 0.011,-0.002 0.026,-0.002 0.031,-0.002 0.029,0 0.049,0.014 0.049,0.032" inkscape:connector-curvature="0"/>
          </g>
          <g transform="translate(53.985,392.5682)" id="g3789">
            <path id="path3791" style="fill:#231f20;fill-opacity:1;fill-rule:nonzero;stroke:none" d="m 0,0 c 0,0 -1.193,0.701 -1.496,-0.233 -0.013,-0.035 -0.023,-0.071 -0.029,-0.108 -0.004,-0.016 -0.008,-0.031 -0.011,-0.048 l 0.005,-0.001 c -0.001,-0.004 0,-0.008 -0.001,-0.013 l -0.007,0.001 c 0.002,-0.011 0.005,-0.021 0.007,-0.032 0.002,-0.047 0.014,-0.093 0.039,-0.136 0.303,-0.83 1.476,-0.32 1.476,-0.32 0.558,0.235 1.014,0.349 1.087,0.367 l 0.028,-0.001 c 0,0 -0.489,0.176 -1.098,0.524 m -2.557,0.729 c 0.04,-0.023 0.084,-0.036 0.128,-0.041 0.013,-0.004 0.024,-0.007 0.036,-0.01 l 0,0.008 c 0.005,0 0.01,-0.001 0.015,-0.001 l 0,-0.004 c 0.015,0.002 0.028,0.004 0.043,0.007 0.044,0.004 0.088,0.013 0.13,0.026 0.963,0.247 0.313,1.432 0.313,1.432 -0.326,0.608 -0.48,1.091 -0.48,1.091 l 0,-0.024 C -2.393,3.147 -2.537,2.71 -2.811,2.178 c 0,0 -0.591,-1.112 0.254,-1.449 m -0.638,-1.223 c 0.027,0.042 0.04,0.089 0.042,0.139 0.003,0.01 0.005,0.019 0.008,0.029 l -0.008,0.001 c 0,0.004 0,0.009 0,0.013 l 0.003,0 c -0.002,0.009 -0.004,0.017 -0.006,0.025 -0.006,0.055 -0.021,0.111 -0.04,0.162 C -3.5,0.8 -4.679,0.224 -4.679,0.224 -5.293,-0.065 -5.783,-0.194 -5.783,-0.194 l 0.024,-0.001 c 0.064,-0.022 0.523,-0.181 1.085,-0.471 0,0 1.162,-0.621 1.479,0.172 m 0.818,0.426 0,0.032 c 0,0 0,-0.007 -0.001,-0.018 -0.005,0.09 -0.006,0.142 -0.006,0.142 L -2.386,-0.165 C -2.438,-0.837 -2.805,-4.02 -5.08,-5.629 l 0.51,-0.024 c 0.597,-0.131 1.69,-0.671 2.097,-2.85 0,0 0.014,0.05 0.04,0.136 l 0.005,-0.013 0,0.026 c 0.183,0.576 0.943,2.626 2.457,2.526 -2.067,1.799 -2.365,5.022 -2.406,5.76" inkscape:connector-curvature="0"/>
          </g>
          <g transform="translate(51.6682,392.5005)" id="g3793">
            <path id="path3795" style="fill:#231f20;fill-opacity:1;fill-rule:nonzero;stroke:none" d="m 0,0 c 0,0.011 0,0.021 0,0.032 0.001,0.078 -0.116,0.077 -0.121,0 0,-0.006 0,-0.012 -0.001,-0.018 l 0.121,0 c -0.003,0.047 -0.004,0.094 -0.006,0.141 -0.002,0.078 -0.12,0.078 -0.121,0 -0.013,-2.086 -0.963,-4.419 -2.666,-5.664 -0.047,-0.035 -0.032,-0.109 0.031,-0.113 1.576,-0.075 2.261,-1.392 2.549,-2.829 0.012,-0.061 0.101,-0.055 0.116,0 0.013,0.045 0.026,0.09 0.041,0.135 l -0.117,0 c 0.002,-0.004 0.003,-0.008 0.004,-0.012 0.023,-0.063 0.118,-0.055 0.119,0.016 0.004,0.431 0.403,1.012 0.622,1.363 0.396,0.636 0.991,1.15 1.775,1.129 0.051,-0.002 0.082,0.068 0.043,0.103 C 0.807,-4.298 0.123,-2.071 0,0 c -0.005,0.077 -0.126,0.078 -0.121,0 0.105,-1.765 0.613,-3.587 1.685,-5.012 0.155,-0.207 0.331,-0.397 0.513,-0.581 0.13,-0.131 0.201,-0.1 0.017,-0.11 C 2.011,-5.707 1.921,-5.729 1.84,-5.746 1.443,-5.832 1.107,-6.11 0.837,-6.397 0.541,-6.712 0.325,-7.1 0.139,-7.486 0.028,-7.717 -0.17,-8.052 -0.172,-8.312 c 0.04,0.005 0.079,0.011 0.119,0.016 -0.002,0.004 -0.003,0.008 -0.004,0.012 -0.02,0.056 -0.099,0.06 -0.117,0 -0.014,-0.045 -0.028,-0.09 -0.04,-0.135 l 0.116,0 c -0.299,1.497 -1.032,2.841 -2.665,2.918 0.01,-0.037 0.02,-0.075 0.03,-0.112 1.74,1.272 2.713,3.636 2.726,5.768 l -0.121,0 c 0.002,-0.047 0.004,-0.094 0.006,-0.141 0.004,-0.078 0.117,-0.078 0.121,0 C 0,0.02 0,0.026 0,0.032 l -0.121,0 c 0,-0.011 0,-0.021 0,-0.032 0,-0.078 0.12,-0.078 0.121,0" inkscape:connector-curvature="0"/>
          </g>
          <g transform="translate(50.8481,392.0586)" id="g3797">
            <path id="path3799" style="fill:#231f20;fill-opacity:1;fill-rule:nonzero;stroke:none" d="M 0,0 C 0.02,0.055 0.036,0.111 0.05,0.168 0.06,0.207 0.031,0.242 -0.008,0.244 -0.01,0.209 -0.012,0.173 -0.014,0.138 0.028,0.136 0.052,0.177 0.045,0.214 c -0.3,1.434 -1.909,0.378 -2.707,0.16 -0.067,-0.019 -0.051,-0.116 0.016,-0.119 0.723,-0.033 2.08,-1.415 2.64,-0.269 0.034,0.069 -0.07,0.131 -0.104,0.061 -0.51,-1.044 -1.855,0.298 -2.536,0.329 0.006,-0.04 0.011,-0.079 0.016,-0.119 0.42,0.115 0.807,0.301 1.208,0.463 0.191,0.077 0.393,0.12 0.599,0.13 0.146,0.008 0.284,-0.03 0.414,-0.095 0.145,-0.09 0.241,-0.218 0.291,-0.387 -0.008,-0.169 0.025,-0.206 0.102,-0.11 -0.033,0.002 -0.061,-0.028 -0.061,-0.06 0,-0.005 0,-0.009 0.001,-0.014 0,-0.034 0.027,-0.059 0.06,-0.06 -0.069,0.084 -0.103,0.054 -0.1,-0.092 C -0.139,-0.043 -0.023,-0.074 0,0" inkscape:connector-curvature="0"/>
          </g>
          <g transform="translate(51.4124,393.2392)" id="g3801">
            <path id="path3803" style="fill:#231f20;fill-opacity:1;fill-rule:nonzero;stroke:none" d="M 0,0 C 0.054,-0.02 0.109,-0.037 0.164,-0.052 0.202,-0.062 0.24,-0.032 0.24,0.007 0.205,0.008 0.169,0.009 0.134,0.01 0.134,-0.033 0.172,-0.054 0.21,-0.048 1.685,0.183 0.5,1.847 0.259,2.582 0.238,2.645 0.141,2.635 0.14,2.566 0.139,2.238 -0.151,1.817 -0.291,1.538 -0.354,1.411 -0.402,1.279 -0.442,1.144 -0.581,0.673 -0.473,0.226 -0.014,0.006 0.055,-0.027 0.117,0.077 0.047,0.11 -1.075,0.647 0.258,1.842 0.261,2.566 0.222,2.56 0.182,2.555 0.142,2.549 0.275,2.145 0.469,1.769 0.656,1.389 0.746,1.207 0.804,1.01 0.83,0.809 0.854,0.621 0.812,0.44 0.693,0.288 0.566,0.127 0.255,0.15 0.255,0.014 c 0,0.034 -0.028,0.059 -0.061,0.061 -0.005,0 -0.009,0 -0.014,0 C 0.147,0.076 0.12,0.047 0.12,0.015 0.195,0.085 0.165,0.118 0.032,0.116 -0.042,0.141 -0.074,0.024 0,0" inkscape:connector-curvature="0"/>
          </g>
          <g transform="translate(54.0156,392.6203)" id="g3805">
            <path id="path3807" style="fill:#231f20;fill-opacity:1;fill-rule:nonzero;stroke:none" d="m 0,0 c -0.62,0.356 -1.436,0.411 -1.625,-0.425 -0.009,-0.04 0.018,-0.075 0.058,-0.077 -0.001,0.036 -0.002,0.072 -0.003,0.108 -0.041,0.002 -0.067,-0.04 -0.058,-0.077 0.339,-1.465 1.912,-0.126 2.695,-0.166 C 1.139,-0.64 1.144,-0.54 1.083,-0.518 0.707,-0.379 0.35,-0.194 0,0 c -0.068,0.038 -0.129,-0.066 -0.061,-0.104 0.359,-0.199 0.727,-0.388 1.112,-0.53 0.006,0.039 0.011,0.079 0.016,0.118 -0.378,0.019 -0.855,-0.263 -1.197,-0.393 -0.189,-0.072 -0.388,-0.112 -0.59,-0.126 -0.123,-0.009 -0.244,0.012 -0.363,0.045 -0.152,0.053 -0.265,0.149 -0.34,0.289 0.002,0.228 -0.045,0.29 -0.139,0.186 0.033,-0.002 0.06,0.028 0.06,0.06 0,0.005 0,0.009 0,0.013 0.001,0.035 -0.028,0.059 -0.06,0.061 0.139,-0.008 0.202,0.339 0.386,0.454 0.168,0.106 0.405,0.069 0.586,0.032 0.184,-0.038 0.366,-0.116 0.529,-0.209 C 0.007,-0.143 0.067,-0.039 0,0" inkscape:connector-curvature="0"/>
          </g>
          <g transform="translate(54.1104,392.6807)" id="g3809">
            <path id="path3811" style="fill:#ffffff;fill-opacity:1;fill-rule:nonzero;stroke:none" d="M 0,0 C 0,0 -1.189,0.699 -1.495,-0.229 -1.508,-0.266 -1.52,-0.305 -1.526,-0.345 -1.529,-0.36 -1.533,-0.374 -1.536,-0.389 l 0.004,0 c 0,-0.005 0,-0.009 0,-0.014 l -0.007,0.001 c 0.002,-0.011 0.005,-0.021 0.007,-0.031 0.002,-0.047 0.014,-0.093 0.038,-0.136 0.303,-0.831 1.477,-0.321 1.477,-0.321 0.561,0.236 1.017,0.35 1.088,0.367 l 0.027,-0.001 c 0,0 -0.489,0.176 -1.098,0.524 m -2.557,0.73 c 0.04,-0.024 0.084,-0.037 0.129,-0.042 0.012,-0.003 0.023,-0.007 0.036,-0.01 l 0,0.008 c 0.005,0 0.009,-0.001 0.014,-0.001 l 0,-0.004 c 0.016,0.002 0.029,0.005 0.044,0.007 0.044,0.004 0.087,0.013 0.127,0.025 0.966,0.246 0.315,1.433 0.315,1.433 -0.325,0.608 -0.48,1.091 -0.48,1.091 l 0,-0.024 C -2.393,3.148 -2.537,2.711 -2.811,2.179 c 0,0 -0.591,-1.112 0.254,-1.449 m -2.834,-0.942 -0.008,0.001 0.008,-0.001 z m 2.195,-0.283 c 0.028,0.042 0.041,0.09 0.043,0.14 0.003,0.01 0.005,0.019 0.008,0.029 l -0.008,0.001 c 0,0.004 0,0.009 0,0.014 l 0.002,0 c -0.001,0.008 -0.003,0.015 -0.004,0.023 -0.007,0.055 -0.022,0.111 -0.041,0.163 C -3.5,0.8 -4.679,0.224 -4.679,0.224 -5.292,-0.065 -5.783,-0.194 -5.783,-0.194 l 0.024,-0.001 c 0.062,-0.021 0.522,-0.18 1.085,-0.471 0,0 1.161,-0.62 1.478,0.171 m 0.819,0.428 0,0.031 c 0,0 0,-0.007 -0.001,-0.018 -0.005,0.09 -0.006,0.142 -0.006,0.142 l -10e-4,-0.252 c -0.053,-0.672 -0.42,-3.855 -2.695,-5.465 l 0.511,-0.024 c 0.597,-0.131 1.69,-0.672 2.096,-2.85 0,0 0.013,0.051 0.04,0.135 l 0.005,-0.012 0,0.026 c 0.183,0.575 0.943,2.627 2.457,2.527 -2.067,1.798 -2.365,5.021 -2.406,5.76" inkscape:connector-curvature="0"/>
          </g>
          <g transform="translate(59.206,375.0772)" id="g3813">
            <path id="path3815" style="fill:#231f20;fill-opacity:1;fill-rule:nonzero;stroke:none" d="m 0,0 c -0.262,-0.243 -0.608,-0.443 -1.025,-0.58 -0.486,-0.176 -1.016,-0.244 -1.766,-0.244 -2.272,0 -2.956,0.352 -2.956,1.52 l 0,2.024 c 0,0.489 0.309,0.611 1.457,0.611 1.887,0 3.213,-0.232 3.997,-0.705 C 0.44,2.081 0.544,1.49 0.558,1.326 0.559,1.307 0.559,1.287 0.56,1.268 0.556,0.74 0.303,0.317 0,0 m -4.983,-5.026 c -1.255,0 -2.239,0.943 -2.239,2.165 0,0.968 0.667,1.64 1.653,1.652 0.057,-0.002 0.117,-0.003 0.184,-0.006 1.222,-0.084 2.251,-1.139 2.251,-2.333 0,-0.896 -0.729,-1.478 -1.849,-1.478 M -5.681,6.618 c 0,0.529 0.552,0.801 1.655,0.801 2.14,0 3.707,-0.951 3.707,-2.227 0,-0.829 -0.795,-1.331 -2.075,-1.331 l -1.831,0 c -0.97,0 -1.456,0.271 -1.456,0.815 l 0,1.942 z m -11.866,-2.27 0.568,-0.422 c -0.218,0.123 -0.408,0.266 -0.568,0.422 M 1.247,3.453 C 0.739,3.617 0.342,3.684 -0.54,3.82 c 1.632,0.34 2.47,0.964 2.47,1.834 0,0.841 -0.815,1.561 -2.183,1.928 -0.795,0.204 -1.898,0.312 -3.222,0.312 -0.419,0 -0.772,-0.013 -1.081,-0.027 -2.073,-0.109 -2.073,-0.109 -3.022,-0.109 -0.53,0 -0.949,0.014 -1.147,0.028 -0.294,0.025 -0.452,0.041 -0.533,0.05 -0.007,-0.001 -0.017,-0.001 -0.031,-0.001 -0.353,0 -0.443,-0.133 -0.443,-0.282 0,-0.149 -0.03,-0.196 0.433,-0.25 0.379,-0.03 0.641,-0.079 0.823,-0.156 l 0.234,-0.16 0.157,-3.773 0,-2.667 c 0,-0.761 -0.265,-1.141 -0.95,-1.344 -0.573,-0.177 -0.639,-0.204 -0.639,-0.326 0,-0.122 0.133,-0.191 0.353,-0.191 0.11,0 0.11,0 0.552,0.041 0.421,0.031 1.011,0.053 1.723,0.063 -0.35,-0.14 -0.657,-0.325 -0.922,-0.557 -0.526,-0.478 -0.832,-1.106 -0.832,-1.757 0,-0.393 0.11,-0.751 0.308,-1.057 -0.037,-0.015 -0.077,-0.041 -0.121,-0.084 -0.373,-0.349 -0.56,-0.477 -0.865,-0.594 -0.39,-0.14 -1.085,-0.232 -1.747,-0.232 -0.73,0 -1.425,0.105 -1.425,0.209 0,0.046 0.034,0.069 0.661,0.408 2.528,1.373 2.867,1.629 2.867,2.257 0,0.838 -1.068,1.478 -2.46,1.478 -0.131,0 -0.262,-0.007 -0.393,-0.018 1.554,0.463 2.592,1.453 2.592,2.645 0,1.254 -1.006,2.146 -3.15,2.773 l -2.436,0.725 c -1.228,0.362 -1.831,0.807 -1.831,1.337 0,0.767 1.094,1.407 2.39,1.407 1.765,0 3.664,-1.044 4.133,-2.284 0.112,-0.266 0.223,-0.363 0.424,-0.363 0.179,0 0.291,0.097 0.291,0.265 0,0.056 0,0.111 -0.022,0.153 -0.224,1.087 -0.269,1.296 -0.269,1.686 l 0,0.14 c 0.023,0.153 0.023,0.278 0.023,0.306 0,0.112 -0.089,0.195 -0.268,0.195 -0.067,0 -0.179,-0.028 -0.268,-0.069 -0.335,-0.14 -0.335,-0.14 -0.514,-0.14 -0.223,0 -0.29,0.014 -0.938,0.209 -0.805,0.237 -1.632,0.363 -2.48,0.363 -1.107,0 -2.074,-0.249 -2.787,-0.669 l 0,10e-4 c 0,0 -10e-4,-10e-4 -0.002,-0.002 -0.798,-0.47 -1.277,-1.156 -1.277,-1.951 0,-0.258 0.045,-0.495 0.138,-0.714 0,-10e-4 0,-0.002 10e-4,-0.003 l 0,0 c 0.284,-0.664 1.009,-1.156 2.251,-1.553 l 3.262,-1.032 c 1.295,-0.411 1.782,-0.784 1.827,-1.406 l 0,-0.188 c -0.081,-0.868 -1.34,-1.597 -2.765,-1.597 -1.743,0 -3.91,1.31 -4.357,2.648 -0.089,0.223 -0.201,0.306 -0.402,0.306 -0.201,0 -0.335,-0.125 -0.335,-0.334 0,-0.209 0.067,-0.39 0.357,-1.143 0.157,-0.376 0.224,-0.557 0.268,-0.767 l 0.134,-0.529 c 1.118,-0.418 2.659,-0.697 3.977,-0.697 0.306,0 0.602,0.018 0.889,0.052 -0.359,-0.117 -0.7,-0.271 -1.007,-0.462 -0.458,-0.279 -0.797,-0.617 -0.797,-0.768 0,-0.069 0.084,-0.139 0.203,-0.139 0.068,0 0.136,0.023 0.238,0.104 0.627,0.466 1.238,0.675 2.019,0.675 0.949,0 1.645,-0.453 1.645,-1.07 0,-0.268 -0.102,-0.477 -0.373,-0.768 -0.272,-0.292 -0.458,-0.431 -1.68,-1.13 -2.222,-1.291 -2.239,-1.303 -2.239,-1.419 0,-0.093 0.085,-0.14 0.22,-0.14 0.068,0 0.187,0 0.306,0.012 0.356,0.024 0.729,0.035 1.119,0.035 0.323,0 0.832,-0.011 1.493,-0.035 0.781,-0.024 1.171,-0.035 2.155,-0.035 0.305,0 0.373,0.011 0.424,0.046 0.085,0.047 0.186,0.187 0.56,0.745 l 0.407,0.617 c 0.074,0.116 0.125,0.196 0.16,0.253 0.477,-0.505 1.242,-0.812 2.164,-0.812 0.73,0 1.272,0.14 2.12,0.536 0.153,0.07 0.238,0.093 0.306,0.093 0.067,0 0.118,-0.047 0.118,-0.116 0,-0.245 -0.339,-0.839 -0.712,-1.245 -0.798,-0.862 -1.951,-1.398 -3.562,-1.653 -0.255,-0.047 -0.357,-0.093 -0.357,-0.198 0,-0.105 0.119,-0.175 0.323,-0.175 0.967,0 2.561,0.408 3.664,0.943 1.73,0.838 2.782,2.2 2.782,3.608 0,0.791 -0.323,1.524 -0.933,2.094 -0.218,0.199 -0.463,0.365 -0.734,0.498 0.199,-0.004 0.394,-0.007 0.583,-0.007 1.567,0 2.802,0.177 3.685,0.53 1.168,0.475 1.897,1.358 1.897,2.322 0,0.896 -0.618,1.562 -1.831,1.901 M -9.258,7.836 c 0.074,0.003 -0.199,0.021 0,0" inkscape:connector-curvature="0"/>
          </g>
          <g transform="translate(59.206,375.0772)" id="g3817">
            <path id="path3819" style="fill:none;stroke:#231f20;stroke-width:0.138;stroke-linecap:butt;stroke-linejoin:miter;stroke-miterlimit:1;stroke-opacity:1;stroke-dasharray:none" d="m 0,0 c -0.262,-0.243 -0.608,-0.443 -1.025,-0.58 -0.486,-0.176 -1.016,-0.244 -1.766,-0.244 -2.272,0 -2.956,0.352 -2.956,1.52 l 0,2.024 c 0,0.489 0.309,0.611 1.457,0.611 1.887,0 3.213,-0.232 3.997,-0.705 C 0.44,2.081 0.544,1.49 0.558,1.326 0.559,1.307 0.559,1.287 0.56,1.268 0.556,0.74 0.303,0.317 0,0 z m -4.983,-5.026 c -1.255,0 -2.239,0.943 -2.239,2.165 0,0.968 0.667,1.64 1.653,1.652 0.057,-0.002 0.117,-0.003 0.184,-0.006 1.222,-0.084 2.251,-1.139 2.251,-2.333 0,-0.896 -0.729,-1.478 -1.849,-1.478 z M -5.681,6.618 c 0,0.529 0.552,0.801 1.655,0.801 2.14,0 3.707,-0.951 3.707,-2.227 0,-0.829 -0.795,-1.331 -2.075,-1.331 l -1.831,0 c -0.97,0 -1.456,0.271 -1.456,0.815 l 0,1.942 z m -11.866,-2.27 0.568,-0.422 c -0.218,0.123 -0.408,0.266 -0.568,0.422 z M 1.247,3.453 C 0.739,3.617 0.342,3.684 -0.54,3.82 c 1.632,0.34 2.47,0.964 2.47,1.834 0,0.841 -0.815,1.561 -2.183,1.928 -0.795,0.204 -1.898,0.312 -3.222,0.312 -0.419,0 -0.772,-0.013 -1.081,-0.027 -2.073,-0.109 -2.073,-0.109 -3.022,-0.109 -0.53,0 -0.949,0.014 -1.147,0.028 -0.294,0.025 -0.452,0.041 -0.533,0.05 -0.007,-0.001 -0.017,-0.001 -0.031,-0.001 -0.353,0 -0.443,-0.133 -0.443,-0.282 0,-0.149 -0.03,-0.196 0.433,-0.25 0.379,-0.03 0.641,-0.079 0.823,-0.156 l 0.234,-0.16 0.157,-3.773 0,-2.667 c 0,-0.761 -0.265,-1.141 -0.95,-1.344 -0.573,-0.177 -0.639,-0.204 -0.639,-0.326 0,-0.122 0.133,-0.191 0.353,-0.191 0.11,0 0.11,0 0.552,0.041 0.421,0.031 1.011,0.053 1.723,0.063 -0.35,-0.14 -0.657,-0.325 -0.922,-0.557 -0.526,-0.478 -0.832,-1.106 -0.832,-1.757 0,-0.393 0.11,-0.751 0.308,-1.057 -0.037,-0.015 -0.077,-0.041 -0.121,-0.084 -0.373,-0.349 -0.56,-0.477 -0.865,-0.594 -0.39,-0.14 -1.085,-0.232 -1.747,-0.232 -0.73,0 -1.425,0.105 -1.425,0.209 0,0.046 0.034,0.069 0.661,0.408 2.528,1.373 2.867,1.629 2.867,2.257 0,0.838 -1.068,1.478 -2.46,1.478 -0.131,0 -0.262,-0.007 -0.393,-0.018 1.554,0.463 2.592,1.453 2.592,2.645 0,1.254 -1.006,2.146 -3.15,2.773 l -2.436,0.725 c -1.228,0.362 -1.831,0.807 -1.831,1.337 0,0.767 1.094,1.407 2.39,1.407 1.765,0 3.664,-1.044 4.133,-2.284 0.112,-0.266 0.223,-0.363 0.424,-0.363 0.179,0 0.291,0.097 0.291,0.265 0,0.056 0,0.111 -0.022,0.153 -0.224,1.087 -0.269,1.296 -0.269,1.686 l 0,0.14 c 0.023,0.153 0.023,0.278 0.023,0.306 0,0.112 -0.089,0.195 -0.268,0.195 -0.067,0 -0.179,-0.028 -0.268,-0.069 -0.335,-0.14 -0.335,-0.14 -0.514,-0.14 -0.223,0 -0.29,0.014 -0.938,0.209 -0.805,0.237 -1.632,0.363 -2.48,0.363 -1.107,0 -2.074,-0.249 -2.787,-0.669 l 0,10e-4 c 0,0 -10e-4,-10e-4 -0.002,-0.002 -0.798,-0.47 -1.277,-1.156 -1.277,-1.951 0,-0.258 0.045,-0.495 0.138,-0.714 0,-10e-4 0,-0.002 10e-4,-0.003 l 0,0 c 0.284,-0.664 1.009,-1.156 2.251,-1.553 l 3.262,-1.032 c 1.295,-0.411 1.782,-0.784 1.827,-1.406 l 0,-0.188 c -0.081,-0.868 -1.34,-1.597 -2.765,-1.597 -1.743,0 -3.91,1.31 -4.357,2.648 -0.089,0.223 -0.201,0.306 -0.402,0.306 -0.201,0 -0.335,-0.125 -0.335,-0.334 0,-0.209 0.067,-0.39 0.357,-1.143 0.157,-0.376 0.224,-0.557 0.268,-0.767 l 0.134,-0.529 c 1.118,-0.418 2.659,-0.697 3.977,-0.697 0.306,0 0.602,0.018 0.889,0.052 -0.359,-0.117 -0.7,-0.271 -1.007,-0.462 -0.458,-0.279 -0.797,-0.617 -0.797,-0.768 0,-0.069 0.084,-0.139 0.203,-0.139 0.068,0 0.136,0.023 0.238,0.104 0.627,0.466 1.238,0.675 2.019,0.675 0.949,0 1.645,-0.453 1.645,-1.07 0,-0.268 -0.102,-0.477 -0.373,-0.768 -0.272,-0.292 -0.458,-0.431 -1.68,-1.13 -2.222,-1.291 -2.239,-1.303 -2.239,-1.419 0,-0.093 0.085,-0.14 0.22,-0.14 0.068,0 0.187,0 0.306,0.012 0.356,0.024 0.729,0.035 1.119,0.035 0.323,0 0.832,-0.011 1.493,-0.035 0.781,-0.024 1.171,-0.035 2.155,-0.035 0.305,0 0.373,0.011 0.424,0.046 0.085,0.047 0.186,0.187 0.56,0.745 l 0.407,0.617 c 0.074,0.116 0.125,0.196 0.16,0.253 0.477,-0.505 1.242,-0.812 2.164,-0.812 0.73,0 1.272,0.14 2.12,0.536 0.153,0.07 0.238,0.093 0.306,0.093 0.067,0 0.118,-0.047 0.118,-0.116 0,-0.245 -0.339,-0.839 -0.712,-1.245 -0.798,-0.862 -1.951,-1.398 -3.562,-1.653 -0.255,-0.047 -0.357,-0.093 -0.357,-0.198 0,-0.105 0.119,-0.175 0.323,-0.175 0.967,0 2.561,0.408 3.664,0.943 1.73,0.838 2.782,2.2 2.782,3.608 0,0.791 -0.323,1.524 -0.933,2.094 -0.218,0.199 -0.463,0.365 -0.734,0.498 0.199,-0.004 0.394,-0.007 0.583,-0.007 1.567,0 2.802,0.177 3.685,0.53 1.168,0.475 1.897,1.358 1.897,2.322 0,0.896 -0.618,1.562 -1.831,1.901 z M -9.258,7.836 c 0.074,0.003 -0.199,0.021 0,0 z" inkscape:connector-curvature="0"/>
          </g>
          <g transform="translate(59.2336,375.3005)" id="g3821">
            <path id="path3823" style="fill:#ffffff;fill-opacity:1;fill-rule:nonzero;stroke:none" d="m 0,0 c -0.262,-0.243 -0.609,-0.443 -1.026,-0.58 -0.486,-0.177 -1.015,-0.245 -1.765,-0.245 -2.273,0 -2.957,0.353 -2.957,1.521 l 0,2.024 c 0,0.489 0.309,0.611 1.457,0.611 1.887,0 3.214,-0.232 3.997,-0.706 C 0.435,2.084 0.542,1.497 0.557,1.328 0.559,1.307 0.559,1.286 0.56,1.264 0.555,0.738 0.302,0.317 0,0 m -3.016,-3.583 c 0,-0.895 -0.73,-1.477 -1.849,-1.477 -1.256,0 -2.24,0.943 -2.24,2.164 0,0.978 0.679,1.653 1.679,1.653 1.29,0 2.41,-1.094 2.41,-2.34 m -2.665,10.2 c 0,0.53 0.551,0.802 1.654,0.802 2.14,0 3.707,-0.951 3.707,-2.228 0,-0.828 -0.794,-1.33 -2.074,-1.33 l -1.831,0 c -0.971,0 -1.456,0.271 -1.456,0.814 l 0,1.942 z m -5.483,-4.801 10e-4,0 0,-0.001 c 0,0 -10e-4,0.001 -10e-4,0.001 m -6.383,2.532 0.567,-0.422 c -0.217,0.123 -0.407,0.265 -0.567,0.422 M 1.246,3.453 C 0.739,3.616 0.342,3.684 -0.541,3.82 1.091,4.159 1.93,4.784 1.93,5.653 1.93,6.495 1.114,7.214 -0.254,7.581 -1.049,7.785 -2.152,7.893 -3.475,7.893 -3.894,7.893 -4.247,7.88 -4.557,7.866 -6.63,7.758 -6.63,7.758 -7.578,7.758 c -0.53,0 -0.95,0.014 -1.148,0.027 -0.295,0.026 -0.454,0.041 -0.534,0.05 -0.007,0 -0.017,0 -0.03,0 -0.352,0 -0.443,-0.133 -0.443,-0.283 0,-0.149 -0.03,-0.195 0.433,-0.249 0.38,-0.031 0.642,-0.079 0.823,-0.156 l 0.234,-0.16 0.157,-3.77 0,-2.67 c 0,-0.761 -0.265,-1.141 -0.949,-1.344 -0.573,-0.177 -0.639,-0.204 -0.639,-0.326 0,-0.123 0.132,-0.191 0.352,-0.191 0.111,0 0.111,0 0.552,0.041 0.463,0.033 1.128,0.057 1.937,0.065 -0.391,-0.144 -0.729,-0.341 -1.018,-0.594 -0.526,-0.477 -0.832,-1.105 -0.832,-1.757 0,-0.393 0.11,-0.75 0.308,-1.056 -0.037,-0.016 -0.077,-0.042 -0.121,-0.084 -0.373,-0.349 -0.56,-0.478 -0.865,-0.594 -0.39,-0.14 -1.085,-0.233 -1.747,-0.233 -0.73,0 -1.425,0.105 -1.425,0.21 0,0.046 0.034,0.069 0.661,0.407 2.528,1.373 2.867,1.629 2.867,2.258 0,0.838 -1.068,1.477 -2.46,1.477 -0.304,0 -0.609,-0.031 -0.909,-0.087 1.772,0.404 2.99,1.457 2.99,2.748 0,1.255 -1.005,2.146 -3.15,2.773 l -2.435,0.725 c -1.229,0.362 -1.832,0.808 -1.832,1.338 0,0.767 1.095,1.407 2.39,1.407 1.765,0 3.664,-1.045 4.133,-2.285 0.112,-0.265 0.224,-0.362 0.425,-0.362 0.179,0 0.29,0.097 0.29,0.264 0,0.056 0,0.112 -0.022,0.154 -0.223,1.087 -0.268,1.296 -0.268,1.686 l 0,0.139 c 0.022,0.154 0.022,0.279 0.022,0.307 0,0.112 -0.089,0.195 -0.268,0.195 -0.067,0 -0.179,-0.028 -0.268,-0.07 -0.335,-0.139 -0.335,-0.139 -0.514,-0.139 -0.223,0 -0.29,0.014 -0.938,0.209 -0.804,0.237 -1.631,0.362 -2.48,0.362 -1.106,0 -2.073,-0.248 -2.787,-0.668 l 0,0 c 0,0 0,0 -0.001,0 -0.798,-0.471 -1.278,-1.157 -1.278,-1.952 0,-0.259 0.046,-0.496 0.139,-0.715 0,-0.001 0,-0.001 0,-0.002 l 10e-4,0 c 0.284,-0.664 1.008,-1.156 2.251,-1.554 l 3.261,-1.031 c 1.296,-0.411 1.783,-0.784 1.828,-1.407 l 0,-0.188 c -0.082,-0.867 -1.34,-1.597 -2.766,-1.597 -1.743,0 -3.91,1.311 -4.357,2.648 -0.089,0.223 -0.201,0.307 -0.402,0.307 -0.201,0 -0.335,-0.126 -0.335,-0.334 0,-0.21 0.067,-0.391 0.357,-1.143 0.157,-0.377 0.224,-0.558 0.269,-0.767 l 0.134,-0.529 c 1.117,-0.418 2.659,-0.697 3.976,-0.697 0.501,0 0.979,0.047 1.425,0.133 -0.511,-0.118 -1,-0.313 -1.425,-0.577 -0.458,-0.279 -0.797,-0.617 -0.797,-0.768 0,-0.07 0.084,-0.14 0.203,-0.14 0.068,0 0.136,0.024 0.238,0.105 0.627,0.465 1.238,0.675 2.019,0.675 0.949,0 1.645,-0.454 1.645,-1.071 0,-0.267 -0.102,-0.477 -0.373,-0.768 -0.272,-0.291 -0.458,-0.431 -1.68,-1.129 -2.222,-1.292 -2.239,-1.304 -2.239,-1.419 0,-0.094 0.085,-0.14 0.221,-0.14 0.068,0 0.186,0 0.305,0.011 0.356,0.024 0.729,0.035 1.12,0.035 0.322,0 0.831,-0.011 1.493,-0.035 0.78,-0.023 1.17,-0.035 2.154,-0.035 0.305,0 0.373,0.012 0.424,0.047 0.085,0.046 0.187,0.186 0.56,0.745 l 0.407,0.616 c 0.074,0.117 0.125,0.197 0.16,0.253 0.477,-0.505 1.242,-0.811 2.164,-0.811 0.73,0 1.272,0.14 2.12,0.535 0.153,0.07 0.238,0.094 0.306,0.094 0.068,0 0.118,-0.047 0.118,-0.116 0,-0.245 -0.339,-0.839 -0.712,-1.246 -0.798,-0.861 -1.951,-1.397 -3.562,-1.653 -0.255,-0.046 -0.356,-0.093 -0.356,-0.198 0,-0.105 0.118,-0.174 0.322,-0.174 0.967,0 2.561,0.407 3.664,0.942 1.731,0.838 2.782,2.2 2.782,3.608 0,0.792 -0.322,1.525 -0.933,2.095 -0.236,0.216 -0.504,0.392 -0.803,0.531 0.182,-0.003 0.361,-0.006 0.535,-0.006 1.566,0 2.801,0.177 3.684,0.529 1.169,0.476 1.897,1.358 1.897,2.323 0,0.896 -0.618,1.562 -1.831,1.901 M -9.26,7.835 c 0.078,0.003 -0.198,0.022 0,0" inkscape:connector-curvature="0"/>
          </g>
          <g transform="translate(43.5029,379.3921)" id="g3825">
            <path id="path3827" style="fill:#ffffff;fill-opacity:1;fill-rule:nonzero;stroke:none" d="m 0,0 -1.195,-0.29 -0.66,0.677 0.66,0.299 L 0,0 z" inkscape:connector-curvature="0"/>
          </g>
        </g>
      </g>
    </g>
  </g>
</svg>