<?xml version="1.0" encoding="UTF-8" standalone="no"?>
<!DOCTYPE svg PUBLIC "-//W3C//DTD SVG 1.1//EN" "http://www.w3.org/Graphics/SVG/1.1/DTD/svg11.dtd">
<svg xmlns="http://www.w3.org/2000/svg" version="1.1" viewBox="0 0 200 200" width="200.0pt" height="200.0pt">
<path d="M 0.00 0.00 L 23.32 0.00 C 23.19 49.30 23.31 98.69 23.26 148.00 C 23.39 153.13 23.44 159.11 26.65 163.39 C 30.02 168.17 35.84 170.16 41.19 171.79 C 55.03 175.59 69.62 179.96 82.34 186.68 C 88.52 190.11 95.37 194.22 99.60 200.00 L 0.00 200.00 L 0.00 0.00 Z" fill="#ffffff"/>
<path d="M 23.32 0.00 L 176.78 0.00 C 176.90 48.96 176.78 98.03 176.84 147.00 C 176.88 151.96 176.52 157.65 174.16 162.12 C 170.86 167.60 165.36 169.74 159.54 171.56 C 145.48 175.45 130.58 179.81 117.65 186.67 C 111.28 189.95 105.52 194.17 100.49 199.27 L 100.40 200.00 L 99.60 200.00 C 95.37 194.22 88.52 190.11 82.34 186.68 C 69.62 179.96 55.03 175.59 41.19 171.79 C 35.84 170.16 30.02 168.17 26.65 163.39 C 23.44 159.11 23.39 153.13 23.26 148.00 C 23.31 98.69 23.19 49.30 23.32 0.00 Z" fill="#004ea1"/>
<path d="M 176.78 0.00 L 200.00 0.00 L 200.00 200.00 L 100.40 200.00 L 100.49 199.27 C 105.52 194.17 111.28 189.95 117.65 186.67 C 130.58 179.81 145.48 175.45 159.54 171.56 C 165.36 169.74 170.86 167.60 174.16 162.12 C 176.52 157.65 176.88 151.96 176.84 147.00 C 176.78 98.03 176.90 48.96 176.78 0.00 Z" fill="#ffffff"/>
<path d="M 25.12 2.00 C 75.04 2.00 124.96 2.00 174.87 2.00 C 174.81 51.32 174.87 100.68 174.84 150.01 C 174.80 154.36 174.01 159.67 171.10 163.08 C 167.95 166.69 163.22 168.41 158.76 169.76 C 148.73 172.52 138.84 175.38 129.19 179.27 C 118.38 183.54 108.31 188.83 99.94 197.03 C 96.52 193.70 92.86 190.70 88.79 188.19 C 74.44 179.21 56.71 174.06 40.50 169.55 C 35.63 168.04 30.40 165.92 27.62 161.36 C 25.54 157.85 25.32 152.99 25.16 149.00 C 25.13 100.01 25.19 50.99 25.12 2.00 Z" fill="#ffffff"/>
<path d="M 27.04 3.93 C 75.64 3.92 124.25 3.92 172.85 3.93 C 172.81 52.92 172.85 102.02 172.83 151.02 C 172.81 156.00 171.46 161.20 167.06 164.08 C 161.66 167.70 154.10 168.76 147.95 170.81 C 131.48 175.81 112.70 182.32 99.99 194.34 C 91.31 186.25 81.03 181.18 70.08 176.91 C 60.63 173.23 51.01 170.45 41.25 167.75 C 36.44 166.24 31.73 164.52 29.06 159.91 C 27.44 156.67 27.14 152.57 27.05 149.00 C 27.06 100.65 27.09 52.28 27.04 3.93 Z" fill="#004ea1"/>
<path d="M 32.33 9.17 C 77.24 8.97 122.81 9.15 167.79 9.08 C 167.79 18.94 167.80 28.79 167.79 38.65 C 122.61 38.63 77.44 38.64 32.26 38.64 C 32.32 28.82 32.14 18.98 32.33 9.17 Z" fill="#ffffff"/>
<path d="M 84.40 15.93 C 87.07 20.86 89.76 25.78 92.33 30.76 C 91.16 31.00 89.99 31.24 88.83 31.51 C 88.02 30.51 87.55 29.37 86.89 28.27 C 85.07 28.36 83.25 28.36 81.42 28.38 C 81.02 29.46 80.63 30.54 80.24 31.62 C 78.97 31.31 77.70 31.00 76.43 30.68 C 79.15 25.80 81.74 20.85 84.40 15.93 Z" fill="#004ea1"/>
<path d="M 104.85 16.23 C 104.77 19.77 105.07 23.36 104.70 26.87 C 104.31 32.20 95.47 32.95 93.26 28.77 C 92.25 24.98 92.92 20.61 92.75 16.69 C 93.99 16.52 95.23 16.36 96.47 16.22 C 96.57 19.63 96.23 23.12 96.61 26.52 C 96.81 28.93 100.07 28.89 100.90 26.87 C 101.36 23.66 100.81 20.28 101.13 17.06 C 102.02 16.38 103.75 16.50 104.85 16.23 Z" fill="#004ea1"/>
<path d="M 109.41 16.14 C 110.40 17.69 111.35 19.26 112.27 20.85 C 113.40 19.29 114.63 17.85 115.49 16.11 C 116.63 16.58 117.75 17.08 118.89 17.54 C 117.60 19.40 115.35 21.56 114.63 23.66 C 115.86 26.02 117.59 27.99 118.98 30.27 C 117.78 30.65 116.57 31.00 115.35 31.33 C 114.39 29.67 113.40 28.03 112.43 26.38 C 111.26 28.07 110.17 29.82 109.02 31.53 C 107.89 31.10 106.76 30.67 105.63 30.22 C 107.19 28.03 108.75 25.84 110.40 23.72 C 108.90 21.56 107.48 19.38 105.86 17.31 C 107.05 16.95 108.22 16.53 109.41 16.14 Z" fill="#004ea1"/>
<path d="M 142.13 16.75 C 144.99 16.89 149.39 16.19 151.62 18.38 C 153.13 20.76 152.40 23.31 150.24 25.01 C 151.54 26.74 152.81 28.51 154.12 30.24 C 152.84 30.63 151.56 31.02 150.27 31.39 C 148.93 29.15 147.40 27.04 145.92 24.86 C 145.91 26.94 145.92 29.01 145.93 31.09 C 144.36 31.05 142.84 30.94 141.31 30.56 C 140.31 30.84 139.31 31.11 138.31 31.38 C 136.91 29.12 135.50 26.85 134.02 24.64 C 134.00 26.75 134.02 28.86 134.00 30.97 C 132.78 31.05 131.57 31.12 130.36 31.19 C 130.38 26.37 130.38 21.55 130.36 16.73 C 133.07 16.96 138.58 16.00 139.99 19.07 C 141.37 21.55 139.95 23.09 138.43 25.02 C 139.63 26.81 140.88 28.55 142.11 30.31 C 142.18 25.79 142.15 21.27 142.13 16.75 Z" fill="#004ea1"/>
<path d="M 43.98 15.83 C 46.41 20.65 49.22 25.30 51.51 30.20 C 52.34 28.83 53.45 27.66 54.28 26.31 C 55.10 27.23 56.01 28.07 56.84 28.98 C 56.07 29.84 55.32 30.70 54.58 31.58 C 53.99 31.04 53.40 30.50 52.82 29.96 C 51.28 30.55 49.74 31.16 48.20 31.75 C 47.72 30.61 47.23 29.48 46.74 28.36 C 44.89 28.38 43.04 28.38 41.19 28.37 C 40.72 29.46 40.25 30.55 39.79 31.64 C 38.53 31.32 37.29 30.96 36.05 30.59 C 38.27 26.62 40.39 22.61 42.54 18.61 C 43.03 17.68 43.51 16.76 43.98 15.83 Z" fill="#004ea1"/>
<path d="M 61.61 16.59 C 62.86 16.42 64.11 16.26 65.37 16.10 C 65.18 20.18 65.91 24.80 64.80 28.74 C 63.41 31.48 60.96 31.26 58.30 31.09 C 58.11 30.04 57.92 28.98 57.73 27.93 C 58.84 27.94 59.96 27.94 61.07 27.94 C 62.08 24.24 61.48 20.62 61.61 16.59 Z" fill="#004ea1"/>
<path d="M 120.01 16.77 C 122.81 16.82 125.60 16.76 128.39 16.65 C 128.49 17.72 128.74 18.78 129.12 19.83 C 126.81 20.25 122.99 18.45 123.49 22.19 C 124.83 22.18 126.17 22.18 127.50 22.18 C 127.50 23.25 127.51 24.33 127.51 25.40 C 126.18 25.41 124.85 25.42 123.53 25.42 L 123.59 28.09 C 125.48 28.09 127.37 28.09 129.26 28.09 C 129.10 29.05 128.95 30.02 128.80 30.98 C 125.87 31.01 122.94 31.08 120.01 31.02 C 120.05 26.27 120.05 21.52 120.01 16.77 Z" fill="#004ea1"/>
<path d="M 154.35 16.77 C 157.18 16.76 160.00 16.77 162.83 16.78 C 163.06 17.82 163.28 18.86 163.48 19.90 C 161.30 19.94 159.24 19.40 157.43 20.97 C 158.59 21.99 160.15 22.42 162.11 22.28 C 162.11 23.32 162.11 24.35 162.12 25.39 C 160.78 25.41 159.43 25.42 158.09 25.44 C 158.12 26.32 158.15 27.19 158.19 28.06 C 160.15 28.09 162.11 28.05 164.07 28.11 C 163.70 29.09 163.31 30.06 162.91 31.03 C 160.05 31.04 157.20 31.03 154.34 31.03 C 154.37 26.28 154.36 21.52 154.35 16.77 Z" fill="#004ea1"/>
<path d="M 136.87 21.12 C 137.69 22.94 135.29 23.51 134.15 24.19 C 134.04 22.75 133.97 21.30 133.94 19.85 C 134.93 19.70 136.85 19.79 136.87 21.12 Z" fill="#ffffff"/>
<path d="M 146.88 19.26 C 148.04 19.96 148.73 20.85 148.95 21.92 C 148.30 23.34 147.37 23.57 146.01 24.07 C 145.86 22.19 145.69 20.87 146.88 19.26 Z" fill="#ffffff"/>
<path d="M 43.46 23.03 C 45.03 23.32 44.82 24.28 45.17 25.56 C 44.24 25.57 43.32 25.57 42.39 25.57 C 42.72 24.71 43.08 23.87 43.46 23.03 Z" fill="#ffffff"/>
<path d="M 84.90 22.56 C 85.41 23.51 85.68 24.60 85.69 25.82 C 84.44 25.98 83.40 25.76 82.58 25.16 C 83.02 23.88 83.80 23.01 84.90 22.56 Z" fill="#ffffff"/>
<path d="M 68.35 26.59 C 69.19 27.43 70.07 28.23 70.93 29.05 C 69.95 29.74 69.21 30.66 68.35 31.48 C 67.52 30.68 66.69 29.88 65.86 29.09 C 66.69 28.25 67.52 27.42 68.35 26.59 Z" fill="#004ea1"/>
<path d="M 74.67 55.17 C 83.11 60.70 91.52 66.30 99.97 71.82 C 108.41 66.35 116.74 60.71 125.20 55.27 C 120.44 66.04 115.60 76.78 110.78 87.52 C 103.07 84.22 96.94 84.27 89.21 87.47 C 84.26 76.76 79.53 65.92 74.67 55.17 Z" fill="#ffffff"/>
<path d="M 111.52 67.20 C 108.39 71.94 103.73 75.70 99.93 79.92 C 96.12 75.74 91.80 71.94 88.41 67.40 C 92.54 69.26 96.12 72.22 99.97 74.60 C 103.83 72.16 107.51 69.38 111.52 67.20 Z" fill="#004ea1"/>
<path d="M 45.93 84.31 C 56.65 89.08 67.41 93.92 78.15 98.70 C 74.81 105.25 74.92 113.66 78.11 120.24 C 67.27 125.10 56.40 129.89 45.61 134.84 C 51.19 126.33 56.87 117.86 62.31 109.26 C 56.67 101.12 51.20 92.69 45.93 84.31 Z" fill="#ffffff"/>
<path d="M 154.12 84.35 C 148.71 92.75 143.19 101.09 137.62 109.38 C 143.17 117.87 148.71 126.38 154.39 134.78 C 143.56 130.02 132.82 125.07 121.98 120.34 C 123.28 116.58 124.56 113.05 124.40 109.00 C 124.43 105.48 123.11 101.82 121.96 98.52 C 132.77 94.00 143.33 88.90 154.12 84.35 Z" fill="#ffffff"/>
<path d="M 117.86 99.13 C 121.62 105.35 121.21 112.34 118.76 118.96 C 118.42 118.23 118.14 117.48 117.93 116.71 C 120.46 110.48 119.60 102.91 115.37 97.62 C 110.55 91.24 101.62 88.28 94.01 90.98 C 85.96 93.50 80.12 101.50 80.60 110.00 C 80.53 119.94 89.14 128.50 98.98 128.90 C 106.10 129.34 112.94 125.54 116.61 119.46 C 117.15 119.53 117.69 119.60 118.22 119.68 C 114.46 124.96 109.65 129.05 103.01 129.88 C 93.17 131.47 83.26 125.30 80.33 115.79 C 76.86 106.00 82.13 94.78 91.51 90.61 C 101.01 86.20 112.74 90.03 117.86 99.13 Z" fill="#ffffff"/>
<path d="M 110.28 95.07 C 110.44 96.85 110.36 98.65 110.51 100.44 C 113.11 101.52 112.90 98.36 115.89 100.05 C 114.82 100.74 113.71 101.36 112.54 101.89 L 116.00 101.17 C 115.81 102.62 115.72 104.08 115.72 105.55 C 113.90 104.83 112.07 104.11 110.24 103.39 L 112.20 101.77 C 110.44 102.46 109.11 103.63 107.15 103.78 C 108.56 104.24 110.50 104.28 111.60 105.31 C 113.02 107.86 115.02 109.85 116.15 112.57 C 115.46 113.25 114.81 113.97 114.20 114.71 C 114.86 115.85 115.56 116.93 116.14 118.12 C 113.24 118.74 110.50 118.78 107.57 118.50 C 107.35 119.70 107.14 120.90 106.93 122.09 C 107.54 121.06 108.21 120.07 108.94 119.13 L 113.96 118.93 C 112.21 119.50 110.44 120.03 108.66 120.51 C 111.14 121.21 113.71 120.01 115.58 118.44 C 112.86 122.65 109.29 125.50 104.43 126.81 C 103.81 126.67 103.19 126.54 102.57 126.41 C 100.04 128.07 98.32 126.49 95.58 126.63 C 90.62 125.78 86.91 122.36 84.30 118.24 C 85.48 118.40 86.66 118.64 87.84 118.97 C 88.55 119.71 89.13 120.56 89.57 121.52 C 89.36 120.60 89.16 119.68 89.00 118.75 C 92.72 119.69 94.76 121.47 93.02 125.61 C 93.59 124.33 94.17 123.04 94.73 121.75 C 94.46 120.58 94.37 119.40 94.33 118.20 C 95.69 118.49 96.85 118.29 97.82 117.60 C 97.54 116.00 97.37 114.40 97.29 112.79 C 99.18 112.77 101.06 112.69 102.93 112.55 C 100.93 112.37 98.93 112.34 96.93 112.50 L 96.96 110.43 C 98.93 110.65 100.89 110.80 102.86 110.85 C 101.06 109.99 99.23 110.00 97.28 109.88 C 97.39 108.45 97.53 107.03 97.54 105.59 C 95.98 104.97 94.49 104.13 93.09 103.21 C 93.80 102.22 94.53 101.25 95.28 100.30 C 94.33 100.48 93.41 100.70 92.50 100.98 C 92.72 102.18 92.12 103.15 90.69 103.89 C 90.12 103.16 89.56 102.44 88.99 101.71 C 88.30 102.65 86.51 102.89 87.71 104.17 C 89.74 105.09 91.82 105.35 94.03 105.42 C 94.82 106.10 95.54 106.83 96.23 107.61 C 96.20 110.51 96.26 113.41 96.35 116.31 C 94.65 116.84 93.00 117.58 91.49 118.52 C 90.36 118.58 89.23 118.54 88.09 118.39 C 86.94 117.11 86.14 115.51 85.28 114.08 C 84.45 115.12 83.70 116.21 83.02 117.34 C 84.26 114.28 81.83 112.07 82.15 109.08 C 82.01 106.30 82.93 103.76 84.29 101.38 C 86.09 101.38 87.82 101.23 89.59 100.82 C 88.78 100.37 87.97 99.93 87.16 99.48 C 87.40 96.78 89.19 95.38 91.10 93.78 C 90.98 95.44 91.52 96.71 92.72 97.58 C 92.31 96.31 91.90 95.03 91.49 93.75 C 97.57 90.27 104.81 90.92 110.28 95.07 Z" fill="#ffffff"/>
<path d="M 111.12 95.85 L 111.34 95.99 C 112.38 96.68 113.29 97.47 114.07 98.37 C 113.38 99.01 112.11 99.73 111.19 99.92 C 111.04 98.54 111.01 97.19 111.12 95.85 Z" fill="#ffffff"/>
<path d="M 57.56 97.69 C 62.33 100.89 66.07 105.67 70.48 109.39 C 66.18 113.32 62.27 117.80 57.63 121.32 C 59.68 117.10 62.64 113.40 65.10 109.39 C 62.53 105.54 59.78 101.75 57.56 97.69 Z" fill="#004ea1"/>
<path d="M 86.27 98.46 C 86.55 98.58 86.55 98.58 86.27 98.46 Z" fill="#ffffff"/>
<path d="M 142.32 97.62 C 140.43 101.82 137.25 105.19 135.14 109.22 C 136.69 113.45 140.48 116.94 142.25 121.24 C 137.64 117.75 133.72 113.36 129.48 109.42 C 133.85 105.60 137.70 101.12 142.32 97.62 Z" fill="#004ea1"/>
<path d="M 85.99 100.33 C 85.99 100.32 85.99 100.32 85.99 100.33 Z" fill="#ffffff"/>
<path d="M 91.96 103.56 L 92.89 103.52 L 93.28 104.10 C 92.67 105.18 92.10 105.22 91.57 104.22 L 91.96 103.56 Z" fill="#ffffff"/>
<path d="M 85.36 104.99 L 85.99 104.50 L 86.64 104.94 L 86.66 105.85 L 86.02 106.34 L 85.37 105.90 L 85.36 104.99 Z" fill="#004ea1"/>
<path d="M 113.38 106.10 L 113.98 105.67 L 114.66 106.12 L 114.70 106.93 L 114.03 107.42 L 113.39 107.00 L 113.38 106.10 Z" fill="#ffffff"/>
<path d="M 116.78 105.42 C 117.93 106.80 117.80 109.11 117.13 110.67 C 115.95 109.54 115.42 106.58 116.78 105.42 Z" fill="#ffffff"/>
<path d="M 86.96 117.18 C 85.97 118.13 84.98 118.12 83.97 117.15 C 84.95 116.07 85.95 116.08 86.96 117.18 Z" fill="#ffffff"/>
<path d="M 105.94 120.40 C 107.82 123.00 106.81 124.69 103.72 124.86 C 104.07 124.19 104.41 123.51 104.72 122.82 C 105.11 122.00 105.52 121.19 105.94 120.40 Z" fill="#004ea1"/>
<path d="M 89.29 131.41 C 96.01 134.56 104.13 134.67 110.77 131.28 C 115.52 142.07 120.39 152.81 125.18 163.58 C 116.69 158.24 108.40 152.57 99.94 147.18 C 91.49 152.68 83.09 158.29 74.60 163.73 C 79.69 153.05 84.15 142.06 89.29 131.41 Z" fill="#ffffff"/>
<path d="M 99.98 138.99 C 103.76 143.28 108.53 147.03 111.60 151.84 C 107.61 149.54 103.87 146.81 99.95 144.39 C 96.10 146.81 92.42 149.52 88.44 151.71 C 90.96 147.68 94.90 144.63 98.01 141.05 C 98.66 140.36 99.32 139.68 99.98 138.99 Z" fill="#004ea1"/>
</svg>