<?xml version="1.0" encoding="UTF-8" standalone="no"?>
<!DOCTYPE svg PUBLIC "-//W3C//DTD SVG 1.1//EN" "http://www.w3.org/Graphics/SVG/1.1/DTD/svg11.dtd">
<svg xmlns="http://www.w3.org/2000/svg" version="1.1" viewBox="0 0 200 200" width="200.0pt" height="200.0pt">
<path d="M 0.00 0.00 L 94.22 0.00 C 92.53 0.07 90.85 0.17 89.17 0.24 C 84.17 0.46 79.17 0.77 74.17 1.03 C 70.04 1.23 65.94 1.67 61.84 2.16 C 49.89 3.51 38.10 5.43 26.32 7.83 C 26.53 12.84 26.87 17.86 27.65 22.81 C 28.51 28.64 28.55 35.17 30.18 40.83 C 30.47 41.27 30.77 41.70 31.09 42.10 C 29.92 45.08 31.12 48.09 31.62 51.15 C 33.14 59.34 34.99 67.45 36.87 75.58 C 38.02 79.08 38.89 82.64 39.90 86.18 C 49.52 119.45 64.13 151.98 84.14 180.33 C 88.78 187.27 94.44 193.40 99.48 200.00 L 0.00 200.00 L 0.00 0.00 Z" fill="none"/>
<path d="M 94.22 0.00 L 107.03 0.00 L 107.74 0.04 C 112.16 0.33 116.59 0.49 121.02 0.78 C 121.02 2.31 121.02 3.84 121.01 5.37 C 109.70 4.72 98.32 4.95 86.98 4.97 C 88.98 3.61 88.85 2.55 89.17 0.24 C 90.85 0.17 92.53 0.07 94.22 0.00 Z" fill="#8f1e19"/>
<path d="M 107.03 0.00 L 200.00 0.00 L 200.00 200.00 L 100.34 200.00 C 103.64 195.67 107.42 191.71 110.67 187.32 C 119.43 175.92 126.99 163.73 133.83 151.09 C 139.63 140.25 144.85 129.07 149.30 117.61 C 152.85 108.92 155.93 100.03 158.59 91.03 C 166.88 63.93 171.65 36.08 173.72 7.84 C 166.25 6.36 158.80 5.04 151.28 3.80 C 141.19 2.63 131.19 1.07 121.02 0.78 C 116.59 0.49 112.16 0.33 107.74 0.04 L 107.03 0.00 Z" fill="none"/>
<path d="M 74.17 1.03 C 74.98 3.12 75.03 3.75 74.21 5.85 C 69.84 6.04 65.56 6.94 61.18 7.12 C 61.69 5.47 61.84 3.89 61.84 2.16 C 65.94 1.67 70.04 1.23 74.17 1.03 Z" fill="#641814"/>
<path d="M 74.17 1.03 C 79.17 0.77 84.17 0.46 89.17 0.24 C 88.85 2.55 88.98 3.61 86.98 4.97 C 82.72 5.13 78.46 5.54 74.21 5.85 C 75.03 3.75 74.98 3.12 74.17 1.03 Z" fill="#7a1c17"/>
<path d="M 121.02 0.78 C 131.19 1.07 141.19 2.63 151.28 3.80 C 151.11 5.06 150.91 6.32 150.70 7.57 L 148.89 8.40 C 139.64 7.15 130.31 6.30 121.01 5.37 C 121.02 3.84 121.02 2.31 121.02 0.78 Z" fill="#a41818"/>
<path d="M 61.84 2.16 C 61.84 3.89 61.69 5.47 61.18 7.12 C 51.28 8.28 41.30 9.67 31.58 11.88 C 31.94 17.59 32.50 23.29 33.12 28.98 C 33.93 34.45 34.98 40.00 35.23 45.57 C 33.87 44.39 32.48 43.25 31.09 42.10 C 30.77 41.70 30.47 41.27 30.18 40.83 C 28.55 35.17 28.51 28.64 27.65 22.81 C 26.87 17.86 26.53 12.84 26.32 7.83 C 38.10 5.43 49.89 3.51 61.84 2.16 Z" fill="#4f1511"/>
<path d="M 151.28 3.80 C 158.80 5.04 166.25 6.36 173.72 7.84 C 171.65 36.08 166.88 63.93 158.59 91.03 C 156.92 90.97 155.24 90.91 153.57 90.85 C 159.59 71.43 163.82 51.42 166.43 31.27 C 167.37 24.86 168.13 18.37 168.18 11.89 C 161.81 10.26 155.37 9.44 148.89 8.40 L 150.70 7.57 C 150.91 6.32 151.11 5.06 151.28 3.80 Z" fill="#b61417"/>
<path d="M 86.98 4.97 C 98.32 4.95 109.70 4.72 121.01 5.37 C 130.31 6.30 139.64 7.15 148.89 8.40 C 155.37 9.44 161.81 10.26 168.18 11.89 C 168.13 18.37 167.37 24.86 166.43 31.27 C 163.82 51.42 159.59 71.43 153.57 90.85 C 150.70 99.87 147.53 108.71 144.11 117.54 C 139.73 128.67 134.55 139.44 128.94 150.00 C 122.13 162.41 114.55 174.38 105.87 185.58 C 104.01 187.99 102.10 190.35 99.99 192.55 C 94.79 187.05 90.40 180.70 86.01 174.54 C 66.41 145.77 52.57 113.85 43.28 80.37 C 40.84 70.03 38.02 59.65 36.44 49.13 C 36.95 49.18 37.45 49.23 37.96 49.29 C 38.66 55.71 40.29 61.72 41.63 68.03 C 42.89 72.92 43.87 77.84 45.62 82.59 C 52.78 109.25 64.87 137.74 79.31 161.31 C 82.42 166.46 85.66 171.58 89.22 176.44 C 92.59 181.21 96.04 185.99 99.98 190.31 C 106.72 182.66 112.55 174.13 118.01 165.53 C 127.74 150.37 135.81 134.10 142.56 117.41 C 146.24 108.78 149.27 99.84 152.04 90.89 C 159.83 65.57 164.60 39.48 167.02 13.12 C 155.51 10.59 143.69 9.15 131.98 7.92 C 125.68 7.22 119.40 7.01 113.07 6.87 C 105.36 6.27 97.59 6.18 89.87 6.67 C 84.87 7.05 79.88 6.87 74.89 7.44 C 70.64 7.93 66.15 7.62 62.02 8.72 C 52.29 9.61 42.52 11.00 32.98 13.13 C 34.09 24.85 35.50 36.64 37.69 48.21 C 37.14 48.03 36.59 47.85 36.04 47.68 C 35.78 46.97 35.51 46.27 35.23 45.57 C 34.98 40.00 33.93 34.45 33.12 28.98 C 32.50 23.29 31.94 17.59 31.58 11.88 C 41.30 9.67 51.28 8.28 61.18 7.12 C 65.56 6.94 69.84 6.04 74.21 5.85 C 78.46 5.54 82.72 5.13 86.98 4.97 Z" fill="#b98637"/>
<path d="M 89.87 6.67 C 88.62 10.12 88.99 13.41 88.98 17.00 C 89.00 22.10 89.02 27.20 88.95 32.30 C 87.03 32.39 85.46 33.33 83.64 33.74 L 83.15 31.99 C 81.50 32.98 79.89 34.06 78.98 35.83 C 78.62 37.60 78.90 39.55 78.94 41.34 C 77.17 42.97 76.48 43.62 77.92 45.91 L 76.19 46.62 C 75.07 45.08 74.92 43.87 74.94 42.01 C 75.00 30.49 75.09 18.95 74.89 7.44 C 79.88 6.87 84.87 7.05 89.87 6.67 Z" fill="#7a1c17"/>
<path d="M 89.87 6.67 C 97.59 6.18 105.36 6.27 113.07 6.87 C 112.15 7.83 110.98 8.49 111.03 9.99 C 110.89 18.98 111.12 28.00 110.95 37.00 C 110.87 39.40 111.10 41.21 112.13 43.40 C 105.85 45.52 100.71 49.96 98.14 56.11 C 97.04 59.25 96.35 62.46 96.27 65.80 C 94.38 64.49 90.88 63.91 89.67 62.01 C 87.89 56.67 92.76 50.06 91.34 44.48 C 90.96 42.88 89.92 41.84 89.02 40.48 C 92.02 38.38 94.64 40.89 97.39 42.07 C 96.39 37.85 94.75 35.43 90.21 34.76 C 91.17 34.03 92.11 33.29 93.05 32.55 C 91.69 32.45 90.32 32.36 88.95 32.30 C 89.02 27.20 89.00 22.10 88.98 17.00 C 88.99 13.41 88.62 10.12 89.87 6.67 Z" fill="#8d1e19"/>
<path d="M 113.07 6.87 C 119.40 7.01 125.68 7.22 131.98 7.92 C 132.04 15.28 132.01 22.65 131.96 30.01 C 131.89 31.95 132.34 33.54 133.09 35.30 C 129.84 37.84 126.02 38.87 121.96 39.12 C 118.00 39.47 115.17 40.95 112.13 43.40 C 111.10 41.21 110.87 39.40 110.95 37.00 C 111.12 28.00 110.89 18.98 111.03 9.99 C 110.98 8.49 112.15 7.83 113.07 6.87 Z" fill="#9a1b18"/>
<path d="M 74.89 7.44 C 75.09 18.95 75.00 30.49 74.94 42.01 C 74.92 43.87 75.07 45.08 76.19 46.62 C 75.81 47.10 75.43 47.58 75.06 48.06 C 75.23 48.80 75.41 49.53 75.58 50.27 C 71.74 52.72 68.50 55.85 67.52 60.46 C 66.58 63.30 67.58 65.62 68.17 68.38 C 64.70 66.60 61.38 64.57 58.06 62.54 C 58.87 60.94 59.10 59.80 59.06 58.01 C 58.96 43.00 59.06 27.98 58.98 12.96 C 58.69 10.50 60.42 10.06 62.02 8.72 C 66.15 7.62 70.64 7.93 74.89 7.44 Z" fill="#601813"/>
<path d="M 131.98 7.92 C 143.69 9.15 155.51 10.59 167.02 13.12 C 164.60 39.48 159.83 65.57 152.04 90.89 C 146.51 90.65 141.01 89.99 135.49 89.63 C 136.25 85.63 136.87 81.00 135.89 77.00 C 134.38 72.95 132.01 69.20 128.41 66.70 C 125.39 64.43 121.34 63.47 117.82 62.12 C 119.45 62.12 121.09 62.08 122.72 61.99 C 124.47 63.15 127.68 62.86 129.81 63.39 C 127.63 62.48 125.44 61.61 123.25 60.75 C 120.24 59.49 117.03 59.92 114.14 58.21 L 114.97 57.86 C 118.64 57.73 122.28 57.71 125.90 58.38 C 123.55 55.85 121.01 53.92 117.37 53.85 C 117.93 53.20 118.50 52.56 119.08 51.94 C 121.71 50.52 124.82 52.43 126.78 54.22 C 130.11 57.21 131.26 60.97 133.04 64.84 C 133.49 59.06 132.88 52.07 128.91 47.51 C 131.79 45.39 134.18 43.98 135.80 40.63 C 134.22 41.08 132.63 41.43 131.00 41.71 C 132.83 39.17 134.39 36.69 135.27 33.66 C 134.54 34.21 133.82 34.75 133.09 35.30 C 132.34 33.54 131.89 31.95 131.96 30.01 C 132.01 22.65 132.04 15.28 131.98 7.92 Z" fill="#aa1718"/>
<path d="M 62.02 8.72 C 60.42 10.06 58.69 10.50 58.98 12.96 C 59.06 27.98 58.96 43.00 59.06 58.01 C 59.10 59.80 58.87 60.94 58.06 62.54 C 52.66 59.16 47.47 55.48 42.45 51.57 C 40.87 50.35 39.55 49.02 37.69 48.21 C 35.50 36.64 34.09 24.85 32.98 13.13 C 42.52 11.00 52.29 9.61 62.02 8.72 Z" fill="#4f1511"/>
<path d="M 83.15 31.99 L 83.64 33.74 C 85.46 33.33 87.03 32.39 88.95 32.30 C 90.32 32.36 91.69 32.45 93.05 32.55 C 92.11 33.29 91.17 34.03 90.21 34.76 C 94.75 35.43 96.39 37.85 97.39 42.07 C 94.64 40.89 92.02 38.38 89.02 40.48 C 89.92 41.84 90.96 42.88 91.34 44.48 C 92.76 50.06 87.89 56.67 89.67 62.01 C 90.88 63.91 94.38 64.49 96.27 65.80 C 96.35 62.46 97.04 59.25 98.14 56.11 C 100.71 49.96 105.85 45.52 112.13 43.40 C 115.17 40.95 118.00 39.47 121.96 39.12 C 126.02 38.87 129.84 37.84 133.09 35.30 C 133.82 34.75 134.54 34.21 135.27 33.66 C 134.39 36.69 132.83 39.17 131.00 41.71 C 132.63 41.43 134.22 41.08 135.80 40.63 C 134.18 43.98 131.79 45.39 128.91 47.51 C 132.88 52.07 133.49 59.06 133.04 64.84 C 131.26 60.97 130.11 57.21 126.78 54.22 C 124.82 52.43 121.71 50.52 119.08 51.94 C 119.72 51.47 120.37 51.02 121.02 50.58 C 126.07 51.52 128.92 55.03 131.34 59.25 L 132.39 60.07 C 132.15 54.30 130.70 48.70 125.52 45.47 C 122.22 43.31 118.75 43.54 114.96 43.54 C 105.93 45.03 98.45 52.65 97.47 61.83 C 97.11 63.52 96.68 65.21 96.26 66.89 C 95.63 66.47 95.00 66.07 94.36 65.68 C 93.21 65.08 92.05 64.51 90.87 63.97 C 91.45 65.71 92.18 67.39 92.76 69.12 C 93.39 71.43 92.35 74.24 91.87 76.53 C 93.70 77.01 95.15 76.33 96.73 75.51 C 98.48 79.84 96.80 83.25 95.64 87.43 C 97.76 87.81 99.60 85.01 101.01 83.72 L 102.19 85.15 C 99.97 85.82 100.32 84.91 99.31 87.35 C 97.52 87.83 95.79 88.41 94.06 89.10 C 94.29 88.44 94.52 87.79 94.75 87.13 C 91.65 85.85 88.60 85.56 85.27 85.74 C 87.19 90.24 91.85 93.87 95.99 96.30 L 95.84 96.95 C 94.85 100.72 93.71 105.09 91.16 108.13 C 89.32 109.84 85.81 109.86 83.46 110.44 L 82.77 112.80 C 85.27 111.65 87.38 111.00 90.16 110.87 C 88.48 112.73 86.52 113.51 87.00 116.44 C 88.82 114.92 89.65 112.75 92.14 112.39 C 94.89 111.72 96.79 113.11 99.26 114.07 C 98.41 112.94 97.56 111.81 96.71 110.69 L 98.51 111.47 C 99.05 112.27 99.57 113.07 100.08 113.88 C 99.61 114.69 99.15 115.49 98.69 116.30 C 97.49 114.39 96.45 112.92 93.97 112.86 C 90.49 112.70 88.48 115.07 88.78 118.49 C 87.69 117.39 86.60 116.49 86.01 115.00 L 87.28 111.88 C 85.48 112.46 83.99 113.29 82.41 114.27 C 82.20 112.96 82.14 111.62 82.23 110.24 C 85.03 108.75 88.09 109.04 91.01 107.87 C 90.00 106.85 88.43 106.43 87.11 105.88 C 78.76 102.60 70.64 98.62 62.93 94.05 C 63.67 93.34 64.42 92.62 65.16 91.91 C 64.32 91.08 63.48 90.24 62.64 89.41 C 63.82 87.64 64.80 87.11 66.88 86.68 C 66.90 88.98 67.35 90.09 68.65 91.90 C 68.63 90.40 68.61 88.90 68.59 87.40 C 71.16 87.70 72.92 88.06 72.10 91.10 C 72.74 90.68 73.39 90.26 74.04 89.84 C 76.38 91.28 78.44 92.78 81.23 93.21 C 81.11 90.78 80.88 89.79 79.19 88.06 L 79.04 86.83 C 81.43 89.12 81.89 89.91 82.09 93.33 C 84.21 92.90 86.16 92.22 88.14 91.36 C 86.67 89.59 85.37 87.79 84.20 85.81 L 83.75 85.11 C 85.26 85.12 86.77 85.06 88.28 84.92 C 86.88 83.83 85.31 83.04 83.82 82.10 C 81.73 80.75 80.27 78.91 77.89 77.98 L 79.06 77.15 C 83.49 81.58 89.21 85.01 95.36 86.34 C 95.68 84.89 95.98 83.43 96.28 81.98 C 93.87 81.41 91.16 81.28 88.92 80.22 C 91.42 80.59 93.90 81.06 96.41 81.38 C 96.67 79.85 96.63 78.38 96.30 76.96 C 94.61 77.13 92.91 77.25 91.22 77.35 C 91.61 74.21 92.51 70.85 91.63 67.75 C 91.09 66.32 88.93 65.04 89.55 63.48 L 88.52 62.19 C 87.95 56.86 90.68 51.41 90.85 46.08 C 90.27 43.17 88.97 40.48 86.08 39.29 C 83.64 38.81 79.68 40.56 81.00 43.61 C 79.67 42.87 79.67 41.63 78.25 42.99 C 79.02 44.06 79.33 45.13 79.59 46.40 C 78.54 46.79 75.39 47.04 76.07 48.89 C 76.68 49.70 77.36 50.45 78.11 51.15 C 79.36 50.31 81.51 49.50 81.97 47.95 C 82.07 46.87 82.13 45.78 82.15 44.69 L 83.03 44.67 C 82.93 46.01 82.85 47.35 82.77 48.68 C 81.07 50.45 79.57 51.38 77.28 52.26 C 78.15 52.87 79.03 53.46 79.93 54.03 C 79.09 56.13 78.90 58.03 78.94 60.29 C 81.03 58.57 83.62 57.91 85.78 56.33 C 86.20 57.92 86.80 59.43 87.42 60.95 C 86.32 60.37 85.55 59.32 85.11 57.79 C 82.92 58.88 79.90 59.45 79.59 62.36 C 82.69 62.40 85.68 62.29 88.76 62.90 L 88.36 64.25 C 83.86 61.78 78.26 63.48 75.42 67.60 L 74.78 68.15 C 75.41 65.54 77.45 64.33 79.65 63.14 C 77.76 59.64 77.83 58.10 78.93 54.35 C 78.22 53.91 77.66 53.36 77.25 52.70 C 76.75 51.83 76.20 51.02 75.58 50.27 C 75.41 49.53 75.23 48.80 75.06 48.06 C 75.43 47.58 75.81 47.10 76.19 46.62 L 77.92 45.91 C 76.48 43.62 77.17 42.97 78.94 41.34 C 78.90 39.55 78.62 37.60 78.98 35.83 C 79.89 34.06 81.50 32.98 83.15 31.99 Z" fill="#fcf8f3"/>
<path d="M 90.64 32.87 C 89.96 33.89 89.28 34.91 88.59 35.92 C 92.25 35.66 94.78 36.52 96.21 40.19 C 92.62 38.17 89.38 40.09 85.75 38.73 C 83.10 38.24 81.61 39.62 79.66 41.15 C 78.95 37.21 79.14 35.70 82.34 33.28 C 82.46 34.27 82.59 35.26 82.71 36.26 C 85.04 34.05 87.25 32.57 90.64 32.87 Z" fill="#16385b"/>
<path d="M 133.87 36.22 C 132.59 38.49 131.02 40.29 129.14 42.05 C 130.87 42.30 132.59 42.22 134.33 42.14 C 132.71 44.26 130.58 45.47 128.26 46.66 C 126.61 45.43 124.81 44.00 122.82 43.37 C 120.17 43.17 117.51 43.29 114.86 43.05 C 115.13 42.01 115.65 41.41 116.42 41.24 C 119.71 40.14 123.06 39.65 126.47 39.11 C 129.27 38.73 131.16 37.05 133.87 36.22 Z" fill="#16385b"/>
<path d="M 86.08 39.29 C 88.97 40.48 90.27 43.17 90.85 46.08 C 90.68 51.41 87.95 56.86 88.52 62.19 L 89.55 63.48 C 88.93 65.04 91.09 66.32 91.63 67.75 C 92.51 70.85 91.61 74.21 91.22 77.35 C 92.91 77.25 94.61 77.13 96.30 76.96 C 96.63 78.38 96.67 79.85 96.41 81.38 C 93.90 81.06 91.42 80.59 88.92 80.22 C 91.16 81.28 93.87 81.41 96.28 81.98 C 95.98 83.43 95.68 84.89 95.36 86.34 C 89.21 85.01 83.49 81.58 79.06 77.15 C 76.77 74.33 74.58 71.48 75.42 67.60 C 78.26 63.48 83.86 61.78 88.36 64.25 L 88.76 62.90 C 85.68 62.29 82.69 62.40 79.59 62.36 C 79.90 59.45 82.92 58.88 85.11 57.79 C 85.55 59.32 86.32 60.37 87.42 60.95 C 86.80 59.43 86.20 57.92 85.78 56.33 C 83.62 57.91 81.03 58.57 78.94 60.29 C 78.90 58.03 79.09 56.13 79.93 54.03 C 79.03 53.46 78.15 52.87 77.28 52.26 C 79.57 51.38 81.07 50.45 82.77 48.68 C 82.85 47.35 82.93 46.01 83.03 44.67 L 82.15 44.69 C 82.13 45.78 82.07 46.87 81.97 47.95 C 81.51 49.50 79.36 50.31 78.11 51.15 C 77.36 50.45 76.68 49.70 76.07 48.89 C 75.39 47.04 78.54 46.79 79.59 46.40 C 79.33 45.13 79.02 44.06 78.25 42.99 C 79.67 41.63 79.67 42.87 81.00 43.61 C 79.68 40.56 83.64 38.81 86.08 39.29 Z" fill="#16385b"/>
<path d="M 82.84 41.18 L 83.57 41.19 L 83.60 41.87 L 82.87 41.86 L 82.84 41.18 Z" fill="#e6e6e7"/>
<path d="M 31.09 42.10 C 32.48 43.25 33.87 44.39 35.23 45.57 C 35.51 46.27 35.78 46.97 36.04 47.68 C 36.59 47.85 37.14 48.03 37.69 48.21 C 39.55 49.02 40.87 50.35 42.45 51.57 C 47.47 55.48 52.66 59.16 58.06 62.54 C 61.38 64.57 64.70 66.60 68.17 68.38 C 67.58 65.62 66.58 63.30 67.52 60.46 C 68.50 55.85 71.74 52.72 75.58 50.27 C 76.20 51.02 76.75 51.83 77.25 52.70 C 76.40 52.23 75.55 51.79 74.68 51.39 C 71.89 54.23 68.86 56.57 68.25 60.78 C 67.05 67.81 71.30 73.68 77.07 77.17 C 76.27 73.71 73.90 72.01 74.78 68.15 L 75.42 67.60 C 74.58 71.48 76.77 74.33 79.06 77.15 L 77.89 77.98 C 76.98 77.61 76.08 77.21 75.20 76.78 C 74.09 76.00 72.99 75.20 71.89 74.40 C 73.27 80.78 78.22 83.03 83.75 85.11 L 84.20 85.81 C 82.68 85.35 81.17 84.87 79.64 84.43 L 78.80 84.41 L 79.04 86.83 L 79.19 88.06 C 75.01 87.89 71.81 86.83 68.20 84.80 C 65.22 82.82 61.36 84.79 58.11 85.25 C 57.84 86.03 57.58 86.81 57.31 87.59 C 59.52 85.89 61.46 85.66 64.22 85.47 C 62.84 87.75 60.54 88.55 61.00 91.52 C 61.57 90.83 62.11 90.12 62.64 89.41 C 63.48 90.24 64.32 91.08 65.16 91.91 C 64.42 92.62 63.67 93.34 62.93 94.05 C 56.86 90.65 51.36 86.47 45.62 82.59 C 43.87 77.84 42.89 72.92 41.63 68.03 C 40.29 61.72 38.66 55.71 37.96 49.29 C 37.45 49.23 36.95 49.18 36.44 49.13 C 38.02 59.65 40.84 70.03 43.28 80.37 C 41.11 78.78 39.20 76.95 36.87 75.58 C 34.99 67.45 33.14 59.34 31.62 51.15 C 31.12 48.09 29.92 45.08 31.09 42.10 Z" fill="#fcf4ed"/>
<path d="M 114.96 43.54 C 118.75 43.54 122.22 43.31 125.52 45.47 C 130.70 48.70 132.15 54.30 132.39 60.07 L 131.34 59.25 C 128.92 55.03 126.07 51.52 121.02 50.58 C 113.49 49.71 106.13 55.33 102.82 61.76 C 101.96 64.35 101.05 66.40 99.19 68.44 C 98.50 67.72 97.82 66.99 97.13 66.26 C 97.22 64.78 97.33 63.30 97.47 61.83 C 98.45 52.65 105.93 45.03 114.96 43.54 Z" fill="#16385b"/>
<path d="M 80.42 45.48 C 80.53 45.51 80.53 45.51 80.42 45.48 Z" fill="#f9f8f5"/>
<path d="M 121.02 50.58 C 120.37 51.02 119.72 51.47 119.08 51.94 C 118.50 52.56 117.93 53.20 117.37 53.85 C 121.01 53.92 123.55 55.85 125.90 58.38 C 122.28 57.71 118.64 57.73 114.97 57.86 C 117.47 56.44 120.68 57.19 123.49 57.16 C 121.60 54.73 117.99 54.74 115.21 54.83 C 116.42 53.70 117.35 52.75 118.11 51.21 C 111.41 52.10 105.39 57.42 102.86 63.57 C 106.47 61.13 110.26 60.00 114.14 58.21 C 117.03 59.92 120.24 59.49 123.25 60.75 C 125.44 61.61 127.63 62.48 129.81 63.39 C 127.68 62.86 124.47 63.15 122.72 61.99 C 122.00 60.50 119.67 60.53 118.23 60.16 C 110.93 58.38 103.80 62.99 99.89 68.91 C 100.69 69.80 101.49 70.70 102.28 71.59 C 103.87 70.51 105.47 69.47 107.21 68.64 C 106.48 70.29 104.24 71.13 102.87 72.22 C 103.40 73.36 103.93 74.49 104.46 75.63 C 106.60 76.42 108.37 77.36 110.20 78.72 C 111.25 77.57 111.99 76.07 112.81 74.73 C 113.64 77.36 114.00 79.30 113.20 82.05 C 115.41 81.25 116.54 80.07 117.92 78.29 C 118.90 80.55 119.22 82.68 119.36 85.14 C 124.03 81.02 121.60 75.34 119.74 70.53 C 121.51 71.44 121.77 74.49 122.50 76.22 C 123.61 79.27 122.74 82.32 120.79 84.78 C 119.07 86.34 117.02 86.83 114.82 87.36 C 115.95 88.00 117.11 88.59 118.31 89.10 L 117.83 89.67 C 116.22 91.92 114.20 93.65 112.10 95.40 C 113.37 95.20 114.65 94.99 115.92 94.77 C 114.99 97.29 115.16 99.35 115.47 101.92 C 114.89 106.11 115.30 109.96 112.94 113.70 C 109.30 112.86 105.70 112.03 102.12 110.97 C 99.89 110.66 97.04 108.64 94.98 109.84 C 94.99 108.68 95.00 107.52 95.00 106.35 C 96.33 106.49 97.65 106.62 98.98 106.75 C 97.93 106.12 96.87 105.50 95.82 104.88 C 97.83 102.29 99.85 99.79 101.21 96.79 C 99.42 96.83 97.63 96.89 95.84 96.95 L 95.99 96.30 C 97.70 96.24 99.41 96.21 101.13 96.22 C 102.38 93.37 102.39 89.53 100.50 86.94 L 102.16 86.22 C 104.44 89.57 103.34 95.15 105.83 98.37 C 105.51 94.07 105.74 89.79 105.67 85.49 C 107.24 85.56 108.43 85.30 109.89 84.76 C 113.01 85.58 115.60 86.98 118.75 85.27 C 118.51 83.54 118.25 81.81 117.96 80.09 C 116.08 81.31 114.24 82.53 112.10 83.27 C 112.59 81.35 112.92 79.47 113.12 77.50 C 111.81 78.48 110.82 79.14 109.11 78.82 C 107.72 78.10 106.47 76.95 104.92 76.77 C 105.66 79.91 106.30 82.30 108.97 84.37 C 107.81 83.99 106.64 83.65 105.45 83.37 C 104.94 76.40 102.00 70.89 96.26 66.89 C 96.68 65.21 97.11 63.52 97.47 61.83 C 97.33 63.30 97.22 64.78 97.13 66.26 C 97.82 66.99 98.50 67.72 99.19 68.44 C 101.05 66.40 101.96 64.35 102.82 61.76 C 106.13 55.33 113.49 49.71 121.02 50.58 Z" fill="#efefee"/>
<path d="M 74.68 51.39 C 75.55 51.79 76.40 52.23 77.25 52.70 C 77.66 53.36 78.22 53.91 78.93 54.35 C 77.83 58.10 77.76 59.64 79.65 63.14 C 77.45 64.33 75.41 65.54 74.78 68.15 C 73.90 72.01 76.27 73.71 77.07 77.17 C 71.30 73.68 67.05 67.81 68.25 60.78 C 68.86 56.57 71.89 54.23 74.68 51.39 Z" fill="#16385b"/>
<path d="M 118.11 51.21 C 117.35 52.75 116.42 53.70 115.21 54.83 C 117.99 54.74 121.60 54.73 123.49 57.16 C 120.68 57.19 117.47 56.44 114.97 57.86 L 114.14 58.21 C 110.26 60.00 106.47 61.13 102.86 63.57 C 105.39 57.42 111.41 52.10 118.11 51.21 Z" fill="#16385b"/>
<path d="M 118.23 60.16 C 119.67 60.53 122.00 60.50 122.72 61.99 C 121.09 62.08 119.45 62.12 117.82 62.12 C 115.11 61.85 113.14 62.90 111.06 64.47 C 113.10 65.19 115.83 66.02 116.95 68.03 C 113.64 68.19 110.33 68.13 107.02 68.18 C 108.85 69.46 111.86 68.60 114.01 68.74 C 116.17 68.52 117.87 69.48 119.88 70.05 C 118.59 67.92 116.68 66.50 114.97 64.74 C 116.93 64.73 118.83 64.25 120.77 64.18 C 128.39 65.65 134.59 72.37 135.74 79.98 C 136.40 87.23 132.16 94.79 131.49 102.00 C 131.20 104.12 131.35 106.16 130.28 108.03 C 128.58 102.68 127.84 98.40 129.65 92.91 C 128.68 92.64 127.71 92.36 126.75 92.09 C 127.13 90.35 128.58 88.39 128.85 86.86 C 128.06 85.32 127.75 88.29 127.14 88.75 C 126.73 87.51 126.31 86.27 125.88 85.03 C 124.23 88.10 121.57 88.81 118.31 89.10 C 117.11 88.59 115.95 88.00 114.82 87.36 C 117.02 86.83 119.07 86.34 120.79 84.78 C 122.74 82.32 123.61 79.27 122.50 76.22 C 121.77 74.49 121.51 71.44 119.74 70.53 C 121.60 75.34 124.03 81.02 119.36 85.14 C 119.22 82.68 118.90 80.55 117.92 78.29 C 116.54 80.07 115.41 81.25 113.20 82.05 C 114.00 79.30 113.64 77.36 112.81 74.73 C 111.99 76.07 111.25 77.57 110.20 78.72 C 108.37 77.36 106.60 76.42 104.46 75.63 C 103.93 74.49 103.40 73.36 102.87 72.22 C 104.24 71.13 106.48 70.29 107.21 68.64 C 105.47 69.47 103.87 70.51 102.28 71.59 C 101.49 70.70 100.69 69.80 99.89 68.91 C 103.80 62.99 110.93 58.38 118.23 60.16 Z" fill="#16385b"/>
<path d="M 117.82 62.12 C 121.34 63.47 125.39 64.43 128.41 66.70 C 132.01 69.20 134.38 72.95 135.89 77.00 C 136.87 81.00 136.25 85.63 135.49 89.63 C 141.01 89.99 146.51 90.65 152.04 90.89 C 149.27 99.84 146.24 108.78 142.56 117.41 C 137.32 117.16 132.11 117.06 126.92 116.15 C 128.20 116.05 129.48 115.93 130.76 115.80 C 130.20 115.16 129.65 114.53 129.09 113.89 C 129.48 111.93 129.85 109.98 130.28 108.03 C 131.35 106.16 131.20 104.12 131.49 102.00 C 132.16 94.79 136.40 87.23 135.74 79.98 C 134.59 72.37 128.39 65.65 120.77 64.18 C 118.83 64.25 116.93 64.73 114.97 64.74 C 116.68 66.50 118.59 67.92 119.88 70.05 C 117.87 69.48 116.17 68.52 114.01 68.74 C 111.86 68.60 108.85 69.46 107.02 68.18 C 110.33 68.13 113.64 68.19 116.95 68.03 C 115.83 66.02 113.10 65.19 111.06 64.47 C 113.14 62.90 115.11 61.85 117.82 62.12 Z" fill="#d8d8d7"/>
<path d="M 90.87 63.97 C 92.05 64.51 93.21 65.08 94.36 65.68 C 95.00 66.07 95.63 66.47 96.26 66.89 C 102.00 70.89 104.94 76.40 105.45 83.37 C 106.64 83.65 107.81 83.99 108.97 84.37 L 109.89 84.76 C 108.43 85.30 107.24 85.56 105.67 85.49 C 105.74 89.79 105.51 94.07 105.83 98.37 C 103.34 95.15 104.44 89.57 102.16 86.22 L 100.50 86.94 C 102.39 89.53 102.38 93.37 101.13 96.22 C 99.41 96.21 97.70 96.24 95.99 96.30 C 91.85 93.87 87.19 90.24 85.27 85.74 C 88.60 85.56 91.65 85.85 94.75 87.13 C 94.52 87.79 94.29 88.44 94.06 89.10 C 95.79 88.41 97.52 87.83 99.31 87.35 C 100.32 84.91 99.97 85.82 102.19 85.15 L 101.01 83.72 C 99.60 85.01 97.76 87.81 95.64 87.43 C 96.80 83.25 98.48 79.84 96.73 75.51 C 95.15 76.33 93.70 77.01 91.87 76.53 C 92.35 74.24 93.39 71.43 92.76 69.12 C 92.18 67.39 91.45 65.71 90.87 63.97 Z" fill="#16385b"/>
<path d="M 119.36 65.20 L 120.10 65.17 L 120.16 65.82 L 119.43 65.85 L 119.36 65.20 Z" fill="#d2d6da"/>
<path d="M 120.44 65.81 C 123.46 65.61 126.04 69.02 127.83 71.10 C 131.21 75.36 129.98 79.65 130.13 84.67 C 129.72 84.73 129.31 84.79 128.90 84.85 C 128.91 81.15 129.89 76.51 127.75 73.28 C 126.08 69.78 123.08 68.37 120.44 65.81 Z" fill="#8293a3"/>
<path d="M 36.87 75.58 C 39.20 76.95 41.11 78.78 43.28 80.37 C 52.57 113.85 66.41 145.77 86.01 174.54 C 85.54 176.53 84.96 178.45 84.14 180.33 C 64.13 151.98 49.52 119.45 39.90 86.18 C 38.89 82.64 38.02 79.08 36.87 75.58 Z" fill="#222248"/>
<path d="M 71.89 74.40 C 72.99 75.20 74.09 76.00 75.20 76.78 C 76.08 77.21 76.98 77.61 77.89 77.98 C 80.27 78.91 81.73 80.75 83.82 82.10 C 85.31 83.04 86.88 83.83 88.28 84.92 C 86.77 85.06 85.26 85.12 83.75 85.11 C 78.22 83.03 73.27 80.78 71.89 74.40 Z" fill="#16385b"/>
<path d="M 104.92 76.77 C 106.47 76.95 107.72 78.10 109.11 78.82 C 110.82 79.14 111.81 78.48 113.12 77.50 C 112.92 79.47 112.59 81.35 112.10 83.27 C 114.24 82.53 116.08 81.31 117.96 80.09 C 118.25 81.81 118.51 83.54 118.75 85.27 C 115.60 86.98 113.01 85.58 109.89 84.76 L 108.97 84.37 C 106.30 82.30 105.66 79.91 104.92 76.77 Z" fill="#941d19"/>
<path d="M 45.62 82.59 C 51.36 86.47 56.86 90.65 62.93 94.05 C 70.64 98.62 78.76 102.60 87.11 105.88 C 88.43 106.43 90.00 106.85 91.01 107.87 C 88.09 109.04 85.03 108.75 82.23 110.24 C 82.14 111.62 82.20 112.96 82.41 114.27 C 83.22 118.09 82.80 121.95 83.86 125.72 C 81.69 125.76 79.69 125.50 77.82 126.79 C 73.61 129.25 72.54 135.51 75.83 139.14 C 77.99 141.34 81.10 141.75 84.04 141.54 C 82.98 142.75 81.64 142.98 80.18 143.45 C 79.40 149.33 80.89 155.63 79.31 161.31 C 64.87 137.74 52.78 109.25 45.62 82.59 Z" fill="#222248"/>
<path d="M 68.20 84.80 C 71.81 86.83 75.01 87.89 79.19 88.06 C 80.88 89.79 81.11 90.78 81.23 93.21 C 78.44 92.78 76.38 91.28 74.04 89.84 C 73.39 90.26 72.74 90.68 72.10 91.10 C 72.92 88.06 71.16 87.70 68.59 87.40 C 68.61 88.90 68.63 90.40 68.65 91.90 C 67.35 90.09 66.90 88.98 66.88 86.68 C 64.80 87.11 63.82 87.64 62.64 89.41 C 62.11 90.12 61.57 90.83 61.00 91.52 C 60.54 88.55 62.84 87.75 64.22 85.47 C 61.46 85.66 59.52 85.89 57.31 87.59 C 57.58 86.81 57.84 86.03 58.11 85.25 C 61.36 84.79 65.22 82.82 68.20 84.80 Z" fill="#16385b"/>
<path d="M 78.80 84.41 L 79.64 84.43 C 81.17 84.87 82.68 85.35 84.20 85.81 C 85.37 87.79 86.67 89.59 88.14 91.36 C 86.16 92.22 84.21 92.90 82.09 93.33 C 81.89 89.91 81.43 89.12 79.04 86.83 L 78.80 84.41 Z" fill="#16385b"/>
<path d="M 125.88 85.03 C 126.31 86.27 126.73 87.51 127.14 88.75 C 127.75 88.29 128.06 85.32 128.85 86.86 C 128.58 88.39 127.13 90.35 126.75 92.09 C 127.71 92.36 128.68 92.64 129.65 92.91 C 127.84 98.40 128.58 102.68 130.28 108.03 C 129.85 109.98 129.48 111.93 129.09 113.89 C 129.65 114.53 130.20 115.16 130.76 115.80 C 129.48 115.93 128.20 116.05 126.92 116.15 C 123.89 115.70 120.88 115.12 117.84 114.72 C 116.19 114.46 114.56 114.10 112.94 113.70 C 115.30 109.96 114.89 106.11 115.47 101.92 C 115.75 102.11 116.03 102.31 116.31 102.51 C 116.73 98.54 117.75 94.92 121.22 92.58 C 121.24 94.12 121.26 95.66 121.28 97.20 C 122.99 94.24 124.63 91.06 125.39 87.71 C 122.80 89.07 120.82 89.81 117.83 89.67 L 118.31 89.10 C 121.57 88.81 124.23 88.10 125.88 85.03 Z" fill="#e4e4e3"/>
<path d="M 125.39 87.71 C 124.63 91.06 122.99 94.24 121.28 97.20 C 121.26 95.66 121.24 94.12 121.22 92.58 C 117.75 94.92 116.73 98.54 116.31 102.51 C 116.03 102.31 115.75 102.11 115.47 101.92 C 115.16 99.35 114.99 97.29 115.92 94.77 C 114.65 94.99 113.37 95.20 112.10 95.40 C 114.20 93.65 116.22 91.92 117.83 89.67 C 120.82 89.81 122.80 89.07 125.39 87.71 Z" fill="#16385b"/>
<path d="M 153.57 90.85 C 155.24 90.91 156.92 90.97 158.59 91.03 C 155.93 100.03 152.85 108.92 149.30 117.61 C 147.57 117.55 145.84 117.50 144.11 117.54 C 147.53 108.71 150.70 99.87 153.57 90.85 Z" fill="#d0d0ce"/>
<path d="M 95.84 96.95 C 97.63 96.89 99.42 96.83 101.21 96.79 C 99.85 99.79 97.83 102.29 95.82 104.88 C 96.87 105.50 97.93 106.12 98.98 106.75 C 97.65 106.62 96.33 106.49 95.00 106.35 C 95.00 107.52 94.99 108.68 94.98 109.84 C 97.04 108.64 99.89 110.66 102.12 110.97 C 100.91 111.13 99.71 111.30 98.51 111.47 L 96.71 110.69 C 97.56 111.81 98.41 112.94 99.26 114.07 C 96.79 113.11 94.89 111.72 92.14 112.39 C 89.65 112.75 88.82 114.92 87.00 116.44 C 86.52 113.51 88.48 112.73 90.16 110.87 C 87.38 111.00 85.27 111.65 82.77 112.80 L 83.46 110.44 C 85.81 109.86 89.32 109.84 91.16 108.13 C 93.71 105.09 94.85 100.72 95.84 96.95 Z" fill="#16385b"/>
<path d="M 98.51 111.47 C 99.71 111.30 100.91 111.13 102.12 110.97 C 105.70 112.03 109.30 112.86 112.94 113.70 C 114.56 114.10 116.19 114.46 117.84 114.72 C 116.66 118.42 116.50 122.22 117.85 125.90 C 113.13 128.16 111.47 132.78 113.37 137.63 C 114.96 140.85 118.52 142.20 121.96 141.60 C 120.74 143.43 119.07 142.98 117.16 143.34 C 117.24 144.42 117.32 145.50 117.41 146.59 C 116.82 147.07 116.23 147.54 115.63 148.01 L 114.71 148.40 C 113.77 147.99 112.84 147.54 111.90 147.12 C 110.84 147.73 109.84 148.42 108.84 149.12 C 108.97 150.86 109.75 153.40 112.00 152.94 C 113.93 152.66 115.14 150.03 117.16 151.02 C 116.62 151.65 115.89 152.10 114.98 152.39 L 116.05 153.45 C 118.26 156.89 115.73 161.82 118.01 165.53 C 112.55 174.13 106.72 182.66 99.98 190.31 C 96.04 185.99 92.59 181.21 89.22 176.44 C 89.90 174.07 88.88 171.52 88.97 169.00 C 89.06 164.67 88.87 160.32 89.04 155.99 C 89.03 154.34 89.73 154.12 91.00 153.42 C 92.35 153.18 93.14 152.40 93.36 151.07 C 93.89 151.62 94.42 152.17 94.96 152.71 C 95.05 150.99 95.12 149.27 95.15 147.55 C 94.35 148.24 93.67 149.14 93.12 150.25 L 92.98 147.81 L 91.93 147.77 C 91.93 149.29 91.92 150.81 91.89 152.32 C 91.07 151.96 90.50 151.23 90.17 150.12 C 90.56 149.22 90.96 148.32 91.36 147.42 C 92.05 147.12 92.73 146.83 93.42 146.54 C 93.38 144.86 93.36 143.19 93.43 141.51 C 95.99 137.10 97.23 131.99 99.50 127.48 C 100.42 126.02 102.01 125.26 103.15 127.02 C 103.45 131.36 103.34 135.78 103.16 140.13 C 102.49 140.43 101.81 140.74 101.14 141.04 C 103.35 141.09 105.56 141.10 107.76 141.07 C 107.06 140.76 106.35 140.45 105.65 140.15 C 105.38 138.02 105.38 135.90 105.48 133.76 C 106.72 133.74 107.97 133.72 109.21 133.70 C 109.74 134.45 110.27 135.21 110.79 135.97 C 110.58 134.30 110.53 132.73 110.80 131.06 C 108.81 132.76 108.07 132.84 105.40 132.71 C 105.41 130.69 105.43 128.68 105.47 126.67 C 108.82 126.65 110.43 126.38 112.77 129.00 C 112.56 127.93 112.36 126.86 112.16 125.79 C 107.20 125.65 102.23 125.82 97.27 125.64 C 97.57 126.41 97.87 127.17 98.17 127.94 C 96.71 130.87 96.04 134.69 94.03 137.21 C 92.56 134.16 91.24 131.00 89.95 127.87 C 89.56 126.76 90.99 126.19 91.64 125.45 C 89.05 125.90 86.47 125.79 83.86 125.72 C 82.80 121.95 83.22 118.09 82.41 114.27 C 83.99 113.29 85.48 112.46 87.28 111.88 L 86.01 115.00 C 86.60 116.49 87.69 117.39 88.78 118.49 C 88.48 115.07 90.49 112.70 93.97 112.86 C 96.45 112.92 97.49 114.39 98.69 116.30 C 99.15 115.49 99.61 114.69 100.08 113.88 C 99.57 113.07 99.05 112.27 98.51 111.47 Z" fill="#1d3361"/>
<path d="M 117.84 114.72 C 120.88 115.12 123.89 115.70 126.92 116.15 C 132.11 117.06 137.32 117.16 142.56 117.41 C 135.81 134.10 127.74 150.37 118.01 165.53 C 115.73 161.82 118.26 156.89 116.05 153.45 C 116.74 152.97 117.39 152.45 118.01 151.90 C 118.61 150.20 116.54 149.16 115.63 148.01 C 116.23 147.54 116.82 147.07 117.41 146.59 C 117.32 145.50 117.24 144.42 117.16 143.34 C 119.07 142.98 120.74 143.43 121.96 141.60 C 123.69 140.52 125.25 139.87 126.11 137.86 C 123.45 139.91 121.57 140.72 118.12 139.87 C 115.50 138.03 114.53 134.16 115.58 131.20 C 116.31 128.55 117.97 126.45 121.00 126.96 C 123.41 126.64 124.61 129.47 125.94 131.03 C 125.89 129.50 125.86 127.97 125.84 126.44 C 123.01 126.68 120.77 125.10 117.85 125.90 C 116.50 122.22 116.66 118.42 117.84 114.72 Z" fill="#203b6d"/>
<path d="M 144.11 117.54 C 145.84 117.50 147.57 117.55 149.30 117.61 C 144.85 129.07 139.63 140.25 133.83 151.09 C 132.20 150.73 130.57 150.34 128.94 150.00 C 134.55 139.44 139.73 128.67 144.11 117.54 Z" fill="#224075"/>
<path d="M 83.86 125.72 C 86.47 125.79 89.05 125.90 91.64 125.45 C 90.99 126.19 89.56 126.76 89.95 127.87 C 91.24 131.00 92.56 134.16 94.03 137.21 C 96.04 134.69 96.71 130.87 98.17 127.94 C 97.87 127.17 97.57 126.41 97.27 125.64 C 102.23 125.82 107.20 125.65 112.16 125.79 C 112.36 126.86 112.56 127.93 112.77 129.00 C 110.43 126.38 108.82 126.65 105.47 126.67 C 105.43 128.68 105.41 130.69 105.40 132.71 C 108.07 132.84 108.81 132.76 110.80 131.06 C 110.53 132.73 110.58 134.30 110.79 135.97 C 110.27 135.21 109.74 134.45 109.21 133.70 C 107.97 133.72 106.72 133.74 105.48 133.76 C 105.38 135.90 105.38 138.02 105.65 140.15 C 106.35 140.45 107.06 140.76 107.76 141.07 C 105.56 141.10 103.35 141.09 101.14 141.04 C 101.81 140.74 102.49 140.43 103.16 140.13 C 103.34 135.78 103.45 131.36 103.15 127.02 C 102.01 125.26 100.42 126.02 99.50 127.48 C 97.23 131.99 95.99 137.10 93.43 141.51 C 91.77 137.53 90.19 133.50 88.38 129.60 C 86.59 124.85 77.30 125.83 76.69 130.96 C 75.96 134.19 76.52 138.80 80.00 140.23 C 81.84 141.10 83.31 140.45 85.16 140.06 C 85.21 138.08 85.18 136.11 85.05 134.13 C 84.34 133.82 83.63 133.49 82.93 133.17 C 84.41 133.09 85.89 133.07 87.37 133.12 C 87.32 135.47 87.29 137.83 87.24 140.18 C 86.16 140.61 85.09 141.05 84.04 141.54 C 81.10 141.75 77.99 141.34 75.83 139.14 C 72.54 135.51 73.61 129.25 77.82 126.79 C 79.69 125.50 81.69 125.76 83.86 125.72 Z" fill="#ffffff"/>
<path d="M 125.84 126.44 C 125.86 127.97 125.89 129.50 125.94 131.03 C 124.61 129.47 123.41 126.64 121.00 126.96 C 117.97 126.45 116.31 128.55 115.58 131.20 C 114.53 134.16 115.50 138.03 118.12 139.87 C 121.57 140.72 123.45 139.91 126.11 137.86 C 125.25 139.87 123.69 140.52 121.96 141.60 C 118.52 142.20 114.96 140.85 113.37 137.63 C 111.47 132.78 113.13 128.16 117.85 125.90 C 120.77 125.10 123.01 126.68 125.84 126.44 Z" fill="#c1c8d6"/>
<path d="M 88.38 129.60 C 90.19 133.50 91.77 137.53 93.43 141.51 C 93.36 143.19 93.38 144.86 93.42 146.54 C 92.73 146.83 92.05 147.12 91.36 147.42 C 90.96 148.32 90.56 149.22 90.17 150.12 C 89.77 148.72 89.07 147.90 88.08 147.65 C 87.64 149.17 87.18 150.68 86.69 152.18 C 85.61 150.94 85.67 149.52 85.45 147.99 C 84.41 147.59 83.34 147.42 82.24 147.30 C 81.92 149.19 81.98 151.08 82.00 152.99 L 83.85 153.02 C 83.66 152.08 83.47 151.14 83.28 150.21 C 84.45 151.16 85.60 152.12 86.76 153.08 C 87.35 152.43 87.94 151.78 88.53 151.14 C 89.25 152.04 90.08 152.80 91.00 153.42 C 89.73 154.12 89.03 154.34 89.04 155.99 C 88.87 160.32 89.06 164.67 88.97 169.00 C 88.88 171.52 89.90 174.07 89.22 176.44 C 85.66 171.58 82.42 166.46 79.31 161.31 C 80.89 155.63 79.40 149.33 80.18 143.45 C 81.64 142.98 82.98 142.75 84.04 141.54 C 85.09 141.05 86.16 140.61 87.24 140.18 C 87.29 137.83 87.32 135.47 87.37 133.12 C 85.89 133.07 84.41 133.09 82.93 133.17 C 83.63 133.49 84.34 133.82 85.05 134.13 C 85.18 136.11 85.21 138.08 85.16 140.06 C 83.31 140.45 81.84 141.10 80.00 140.23 C 76.52 138.80 75.96 134.19 76.69 130.96 C 77.30 125.83 86.59 124.85 88.38 129.60 Z" fill="#202a54"/>
<path d="M 82.24 147.30 C 83.34 147.42 84.41 147.59 85.45 147.99 C 85.67 149.52 85.61 150.94 86.69 152.18 C 87.18 150.68 87.64 149.17 88.08 147.65 C 89.07 147.90 89.77 148.72 90.17 150.12 C 90.50 151.23 91.07 151.96 91.89 152.32 C 91.92 150.81 91.93 149.29 91.93 147.77 L 92.98 147.81 L 93.12 150.25 C 93.67 149.14 94.35 148.24 95.15 147.55 C 95.12 149.27 95.05 150.99 94.96 152.71 C 94.42 152.17 93.89 151.62 93.36 151.07 C 93.14 152.40 92.35 153.18 91.00 153.42 C 90.08 152.80 89.25 152.04 88.53 151.14 C 87.94 151.78 87.35 152.43 86.76 153.08 C 85.60 152.12 84.45 151.16 83.28 150.21 C 83.47 151.14 83.66 152.08 83.85 153.02 L 82.00 152.99 C 81.98 151.08 81.92 149.19 82.24 147.30 Z" fill="#80879f"/>
<path d="M 102.70 147.52 C 103.26 148.89 103.48 150.17 103.54 151.64 C 104.07 152.07 104.61 152.49 105.14 152.92 C 102.27 152.68 98.21 153.85 95.91 151.87 C 95.96 150.69 96.02 149.51 96.10 148.33 C 98.27 146.98 100.32 147.45 102.70 147.52 Z" fill="#6f7d9a"/>
<path d="M 111.90 147.12 C 112.84 147.54 113.77 147.99 114.71 148.40 L 115.63 148.01 C 116.54 149.16 118.61 150.20 118.01 151.90 C 117.39 152.45 116.74 152.97 116.05 153.45 L 114.98 152.39 C 115.89 152.10 116.62 151.65 117.16 151.02 C 115.14 150.03 113.93 152.66 112.00 152.94 C 109.75 153.40 108.97 150.86 108.84 149.12 C 109.84 148.42 110.84 147.73 111.90 147.12 Z" fill="#7c89a5"/>
<path d="M 106.75 147.94 C 107.15 150.12 106.72 151.42 108.73 152.85 C 107.86 153.00 107.02 153.00 106.20 152.86 C 105.75 151.91 105.27 148.06 106.75 147.94 Z" fill="#8a95ad"/>
<path d="M 117.11 148.16 L 117.71 148.09 L 117.78 148.68 L 117.19 148.76 L 117.11 148.16 Z" fill="#7685a2"/>
<path d="M 97.06 149.17 C 98.26 148.34 99.63 148.26 101.18 148.91 C 101.33 150.01 101.34 151.13 101.21 152.27 C 99.20 152.19 96.67 151.78 97.06 149.17 Z" fill="#192f5e"/>
<path d="M 111.16 148.94 C 112.79 147.69 113.73 150.63 112.69 151.69 C 111.07 152.76 110.32 150.00 111.16 148.94 Z" fill="#1a3261"/>
<path d="M 128.94 150.00 C 130.57 150.34 132.20 150.73 133.83 151.09 C 126.99 163.73 119.43 175.92 110.67 187.32 C 109.08 186.69 107.49 186.11 105.87 185.58 C 114.55 174.38 122.13 162.41 128.94 150.00 Z" fill="#1f3869"/>
<path d="M 86.01 174.54 C 90.40 180.70 94.79 187.05 99.99 192.55 C 102.10 190.35 104.01 187.99 105.87 185.58 C 107.49 186.11 109.08 186.69 110.67 187.32 C 107.42 191.71 103.64 195.67 100.34 200.00 L 99.48 200.00 C 94.44 193.40 88.78 187.27 84.14 180.33 C 84.96 178.45 85.54 176.53 86.01 174.54 Z" fill="#1e315e"/>
</svg>
