<?xml version="1.0" encoding="UTF-8" standalone="no"?>
<svg
   xmlns:dc="http://purl.org/dc/elements/1.1/"
   xmlns:cc="http://creativecommons.org/ns#"
   xmlns:rdf="http://www.w3.org/1999/02/22-rdf-syntax-ns#"
   xmlns:svg="http://www.w3.org/2000/svg"
   xmlns="http://www.w3.org/2000/svg"
   xmlns:sodipodi="http://sodipodi.sourceforge.net/DTD/sodipodi-0.dtd"
   xmlns:inkscape="http://www.inkscape.org/namespaces/inkscape"
   inkscape:version="1.0 (4035a4f, 2020-05-01)"
   sodipodi:docname="57.svg"
   id="svg1031"
   height="200.0pt"
   width="200.0pt"
   viewBox="0 0 200 200"
   version="1.1">
  <metadata
     id="metadata1037">
    <rdf:RDF>
      <cc:Work
         rdf:about="">
        <dc:format>image/svg+xml</dc:format>
        <dc:type
           rdf:resource="http://purl.org/dc/dcmitype/StillImage" />
      </cc:Work>
    </rdf:RDF>
  </metadata>
  <defs
     id="defs1035" />
  <sodipodi:namedview
     inkscape:current-layer="svg1031"
     inkscape:cy="133.33333"
     inkscape:cx="133.33333"
     inkscape:zoom="1.75125"
     showgrid="false"
     id="namedview1033"
     inkscape:window-height="480"
     inkscape:window-width="640"
     inkscape:pageshadow="2"
     inkscape:pageopacity="0"
     guidetolerance="10"
     gridtolerance="10"
     objecttolerance="10"
     borderopacity="1"
     bordercolor="#666666"
     pagecolor="#ffffff" />
  <path
     style="fill:#ffffff;fill-opacity:0"
     id="path945"
     fill="#ffffff"
     d="M 0.00 0.00 L 200.00 0.00 L 200.00 200.00 L 100.42 200.00 C 106.45 196.46 112.76 193.50 118.57 189.58 C 141.04 175.12 159.85 155.74 171.51 131.52 C 181.79 110.31 186.03 86.47 184.24 62.99 C 182.97 47.20 180.02 31.86 176.41 16.46 C 128.37 -5.39 71.42 -5.29 23.32 16.34 C 18.32 37.23 14.14 59.48 15.22 81.02 C 16.57 107.83 26.26 134.02 42.82 155.15 C 54.26 169.93 68.51 181.85 84.35 191.66 C 89.15 194.68 94.31 197.03 99.15 200.00 L 0.00 200.00 L 0.00 0.00 Z" />
  <path
     id="path947"
     fill="#9b844b"
     d="M 176.41 16.46 C 180.02 31.86 182.97 47.20 184.24 62.99 C 186.03 86.47 181.79 110.31 171.51 131.52 C 159.85 155.74 141.04 175.12 118.57 189.58 C 112.76 193.50 106.45 196.46 100.42 200.00 L 99.15 200.00 C 94.31 197.03 89.15 194.68 84.35 191.66 C 68.51 181.85 54.26 169.93 42.82 155.15 C 26.26 134.02 16.57 107.83 15.22 81.02 C 14.14 59.48 18.32 37.23 23.32 16.34 C 71.42 -5.29 128.37 -5.39 176.41 16.46 Z" />
  <path
     id="path949"
     fill="#db2024"
     d="M 99.93 5.60 C 99.88 16.67 99.84 27.74 99.96 38.81 C 98.06 39.81 95.97 40.90 94.48 42.47 C 93.00 44.36 92.29 46.96 91.39 49.16 C 88.73 47.94 86.34 46.46 84.00 44.70 C 86.57 45.02 89.13 45.37 91.69 45.69 C 91.71 43.73 91.72 41.78 91.74 39.83 C 87.27 39.04 83.97 39.11 79.65 40.54 C 78.80 40.34 77.94 40.15 77.09 39.95 C 72.61 40.55 68.14 41.03 63.61 40.91 C 63.93 46.35 64.00 51.76 63.43 57.19 C 60.54 49.06 59.55 40.66 57.34 32.36 C 53.69 32.61 50.05 33.20 46.45 33.81 C 45.05 43.48 40.83 52.83 37.08 61.79 C 39.94 61.77 42.79 61.76 45.65 61.73 C 46.28 59.99 46.81 58.03 47.85 56.49 C 49.68 56.24 51.57 56.21 53.42 56.14 C 53.71 58.02 54.00 59.89 54.28 61.77 C 60.28 61.76 66.27 61.75 72.26 61.74 C 72.12 56.00 71.32 50.89 74.85 45.88 C 77.31 51.10 81.84 52.89 86.05 56.30 C 81.84 56.54 79.11 54.85 75.80 52.62 C 75.90 55.16 75.48 58.13 76.34 60.54 C 79.49 61.98 83.25 62.13 86.61 61.56 C 89.24 61.09 91.20 58.97 93.18 57.33 C 95.33 59.03 97.52 60.65 99.96 61.91 C 99.89 67.58 99.85 73.25 99.94 78.92 C 96.62 79.09 93.37 79.41 90.21 80.51 C 87.04 81.50 84.31 83.17 81.01 83.19 C 72.68 83.24 64.33 83.14 56.00 83.14 C 53.74 83.22 51.42 83.17 49.46 84.43 C 47.76 85.65 46.40 87.52 45.07 89.12 C 43.73 89.64 42.03 90.03 41.00 91.04 C 39.75 92.97 39.74 96.17 40.75 98.20 C 42.34 99.77 44.57 100.16 46.10 101.89 C 47.98 103.68 49.21 105.75 51.96 106.18 C 56.97 106.80 62.18 106.18 67.23 106.10 C 67.01 109.42 66.89 112.73 66.91 116.06 C 61.46 123.29 54.27 128.29 46.50 132.74 C 36.57 111.27 33.16 87.50 35.28 64.01 C 36.88 47.33 39.85 30.72 43.76 14.43 C 61.89 8.57 80.87 5.58 99.93 5.60 Z" />
  <path
     id="path951"
     fill="#cf1843"
     d="M 99.93 5.60 C 118.94 5.62 137.92 8.57 155.98 14.50 C 161.02 36.70 165.56 60.37 164.86 83.18 C 151.91 83.20 138.95 83.16 126.00 83.20 C 121.46 83.12 117.43 83.81 113.16 81.89 C 108.75 79.99 104.76 79.09 99.94 78.92 C 99.85 73.25 99.89 67.58 99.96 61.91 C 103.86 62.10 107.32 61.36 110.94 60.00 C 111.35 60.59 111.76 61.19 112.17 61.78 C 115.04 61.77 117.92 61.78 120.79 61.79 C 120.41 56.78 119.59 51.25 120.25 46.26 L 122.10 45.83 C 123.30 50.93 122.68 56.56 122.82 61.79 C 125.53 61.79 128.23 61.79 130.94 61.79 C 131.38 61.38 131.82 60.97 132.25 60.57 C 137.26 63.01 141.77 61.51 147.00 61.66 C 151.45 61.71 155.90 61.88 160.35 61.80 C 158.84 52.56 157.90 43.20 156.76 33.91 C 153.86 33.43 150.97 32.91 148.08 32.36 C 149.39 41.20 151.11 50.41 150.70 59.35 C 149.80 55.28 149.44 51.16 148.82 47.05 C 148.36 44.52 146.83 42.58 144.49 41.53 C 140.76 39.77 135.74 40.63 131.73 40.90 C 131.89 43.26 131.98 45.61 132.00 47.98 C 134.97 46.58 137.59 45.98 140.89 45.77 C 137.43 47.55 134.19 49.70 130.96 51.86 C 130.69 48.75 131.18 43.67 128.59 41.42 C 126.63 39.55 124.49 40.12 122.03 40.10 C 118.30 40.33 114.72 40.13 111.05 39.39 C 111.07 40.59 111.08 41.80 111.09 43.00 C 109.39 41.75 107.68 40.19 105.71 39.39 C 103.85 38.92 101.86 38.87 99.96 38.81 C 99.84 27.74 99.88 16.67 99.93 5.60 Z" />
  <path
     id="path953"
     fill="#ffffff"
     d="M 43.76 14.43 C 39.85 30.72 36.88 47.33 35.28 64.01 C 33.16 87.50 36.57 111.27 46.50 132.74 C 54.27 128.29 61.46 123.29 66.91 116.06 C 66.89 112.73 67.01 109.42 67.23 106.10 C 62.18 106.18 56.97 106.80 51.96 106.18 C 49.21 105.75 47.98 103.68 46.10 101.89 C 44.57 100.16 42.34 99.77 40.75 98.20 C 39.74 96.17 39.75 92.97 41.00 91.04 C 42.03 90.03 43.73 89.64 45.07 89.12 C 46.40 87.52 47.76 85.65 49.46 84.43 C 51.42 83.17 53.74 83.22 56.00 83.14 C 64.33 83.14 72.68 83.24 81.01 83.19 C 84.31 83.17 87.04 81.50 90.21 80.51 C 93.37 79.41 96.62 79.09 99.94 78.92 C 104.76 79.09 108.75 79.99 113.16 81.89 C 117.43 83.81 121.46 83.12 126.00 83.20 C 138.95 83.16 151.91 83.20 164.86 83.18 C 165.56 60.37 161.02 36.70 155.98 14.50 C 157.26 14.92 158.54 15.35 159.81 15.79 C 164.71 38.00 169.72 62.05 168.26 84.81 C 151.76 84.85 135.25 84.84 118.75 84.82 C 122.07 87.75 125.25 90.59 127.62 94.40 C 130.23 98.44 131.47 102.85 132.62 107.46 C 136.60 106.44 140.69 105.72 144.59 104.44 C 146.15 103.91 147.30 102.09 148.38 100.92 C 154.42 100.31 160.48 99.96 166.54 99.59 C 164.27 112.15 160.53 124.37 154.78 135.79 C 146.95 151.35 135.88 165.32 122.77 176.77 C 116.95 181.92 110.68 186.47 104.29 190.89 C 102.81 191.78 101.34 192.68 99.86 193.57 C 98.40 192.71 96.95 191.85 95.49 191.00 C 76.03 178.09 59.24 161.63 47.67 141.21 C 56.47 138.88 64.62 135.15 72.62 130.87 C 70.21 126.72 68.50 122.70 67.27 118.06 C 61.19 125.64 53.23 131.12 44.55 135.33 C 33.76 113.23 29.63 88.46 31.57 63.99 C 32.98 47.82 36.26 31.64 39.77 15.80 C 41.09 15.33 42.42 14.87 43.76 14.43 Z" />
  <path
     id="path955"
     fill="#263778"
     d="M 39.77 15.80 C 36.26 31.64 32.98 47.82 31.57 63.99 C 29.63 88.46 33.76 113.23 44.55 135.33 C 42.37 136.32 40.15 137.20 37.93 138.09 C 28.55 122.24 22.87 104.35 21.12 86.02 C 19.19 68.28 22.16 49.31 25.45 31.83 C 26.29 28.13 26.65 23.92 28.38 20.53 C 31.78 18.32 36.01 17.27 39.77 15.80 Z" />
  <path
     id="path957"
     fill="#263778"
     d="M 159.81 15.79 C 163.81 17.19 167.72 18.78 171.64 20.37 C 175.23 35.35 177.77 50.63 178.88 66.00 C 179.39 72.27 179.10 78.51 178.65 84.77 C 175.19 84.78 171.72 84.80 168.26 84.81 C 169.72 62.05 164.71 38.00 159.81 15.79 Z" />
  <path
     id="path959"
     fill="#9b844b"
     d="M 57.34 32.36 C 59.55 40.66 60.54 49.06 63.43 57.19 C 64.00 51.76 63.93 46.35 63.61 40.91 C 68.14 41.03 72.61 40.55 77.09 39.95 C 77.94 40.15 78.80 40.34 79.65 40.54 C 83.97 39.11 87.27 39.04 91.74 39.83 C 91.72 41.78 91.71 43.73 91.69 45.69 C 89.13 45.37 86.57 45.02 84.00 44.70 C 86.34 46.46 88.73 47.94 91.39 49.16 C 92.29 46.96 93.00 44.36 94.48 42.47 C 95.97 40.90 98.06 39.81 99.96 38.81 C 101.86 38.87 103.85 38.92 105.71 39.39 C 107.68 40.19 109.39 41.75 111.09 43.00 C 111.08 41.80 111.07 40.59 111.05 39.39 C 114.72 40.13 118.30 40.33 122.03 40.10 C 124.49 40.12 126.63 39.55 128.59 41.42 C 131.18 43.67 130.69 48.75 130.96 51.86 C 134.19 49.70 137.43 47.55 140.89 45.77 C 137.59 45.98 134.97 46.58 132.00 47.98 C 131.98 45.61 131.89 43.26 131.73 40.90 C 135.74 40.63 140.76 39.77 144.49 41.53 C 146.83 42.58 148.36 44.52 148.82 47.05 C 149.44 51.16 149.80 55.28 150.70 59.35 C 151.11 50.41 149.39 41.20 148.08 32.36 C 150.97 32.91 153.86 33.43 156.76 33.91 C 157.90 43.20 158.84 52.56 160.35 61.80 C 155.90 61.88 151.45 61.71 147.00 61.66 C 141.77 61.51 137.26 63.01 132.25 60.57 C 131.82 60.97 131.38 61.38 130.94 61.79 C 128.23 61.79 125.53 61.79 122.82 61.79 C 122.68 56.56 123.30 50.93 122.10 45.83 L 120.25 46.26 C 119.59 51.25 120.41 56.78 120.79 61.79 C 117.92 61.78 115.04 61.77 112.17 61.78 C 111.76 61.19 111.35 60.59 110.94 60.00 C 107.32 61.36 103.86 62.10 99.96 61.91 C 97.52 60.65 95.33 59.03 93.18 57.33 C 91.20 58.97 89.24 61.09 86.61 61.56 C 83.25 62.13 79.49 61.98 76.34 60.54 C 75.48 58.13 75.90 55.16 75.80 52.62 C 79.11 54.85 81.84 56.54 86.05 56.30 C 81.84 52.89 77.31 51.10 74.85 45.88 C 71.32 50.89 72.12 56.00 72.26 61.74 C 66.27 61.75 60.28 61.76 54.28 61.77 C 54.00 59.89 53.71 58.02 53.42 56.14 C 51.57 56.21 49.68 56.24 47.85 56.49 C 46.81 58.03 46.28 59.99 45.65 61.73 C 42.79 61.76 39.94 61.77 37.08 61.79 C 40.83 52.83 45.05 43.48 46.45 33.81 C 50.05 33.20 53.69 32.61 57.34 32.36 Z" />
  <path
     id="path961"
     fill="#ffffff"
     d="M 56.22 33.70 C 58.40 42.64 59.93 51.63 62.73 60.41 C 60.34 60.40 57.96 60.40 55.57 60.39 C 55.21 58.49 54.83 56.59 54.46 54.70 C 51.70 54.83 48.94 54.92 46.18 55.01 C 45.74 56.77 45.30 58.54 44.87 60.31 C 43.00 60.36 41.13 60.40 39.26 60.45 C 42.52 52.21 46.17 43.77 47.82 35.03 C 50.62 34.60 53.42 34.16 56.22 33.70 Z" />
  <path
     id="path963"
     fill="#ffffff"
     d="M 149.87 34.10 C 150.85 34.29 151.83 34.47 152.81 34.64 C 153.70 34.80 154.58 34.96 155.47 35.11 C 156.53 43.55 157.40 52.01 158.67 60.41 C 156.69 60.40 154.71 60.40 152.73 60.40 C 152.05 51.61 151.12 42.83 149.87 34.10 Z" />
  <path
     id="path965"
     fill="#ffffff"
     d="M 107.90 42.10 C 109.66 43.64 110.24 46.56 111.06 48.69 C 107.11 50.25 103.12 51.69 99.16 53.23 C 100.46 54.74 101.76 57.38 103.96 57.57 C 105.99 57.53 108.05 56.68 109.99 56.11 C 110.24 56.73 110.48 57.34 110.72 57.96 C 106.98 60.16 103.45 61.54 99.12 59.84 C 93.01 57.76 91.71 49.69 94.64 44.60 C 97.28 40.16 103.86 38.81 107.90 42.10 Z" />
  <path
     id="path967"
     fill="#9b844b"
     d="M 51.52 40.66 C 52.34 44.25 53.11 47.86 53.86 51.47 C 51.77 51.55 49.68 51.64 47.59 51.72 C 48.81 48.00 50.12 44.31 51.52 40.66 Z" />
  <path
     id="path969"
     fill="#ffffff"
     d="M 90.25 40.64 C 90.30 41.67 90.35 42.71 90.40 43.74 C 87.83 43.72 84.48 42.30 82.85 45.05 C 83.47 47.52 87.43 48.33 89.33 49.78 C 92.90 51.40 92.74 56.67 89.67 58.71 C 85.80 61.44 81.67 60.36 77.35 59.77 C 77.28 58.34 77.21 56.91 77.14 55.49 C 79.60 56.53 82.62 58.56 85.33 57.40 C 86.42 56.72 86.89 55.88 86.75 54.89 C 84.63 52.50 81.03 51.52 78.66 49.37 C 76.89 47.14 77.76 44.45 79.71 42.69 C 82.57 40.03 86.67 40.72 90.25 40.64 Z" />
  <path
     id="path971"
     fill="#ffffff"
     d="M 112.52 40.84 C 114.07 41.04 115.63 41.22 117.16 41.48 C 117.58 42.08 117.98 42.68 118.39 43.27 C 120.56 42.17 122.32 40.85 124.90 41.24 C 127.26 41.54 128.77 43.18 129.13 45.49 C 129.82 50.41 129.63 55.47 129.97 60.43 C 128.07 60.41 126.17 60.40 124.27 60.39 C 124.23 55.71 124.58 50.80 123.72 46.18 C 123.10 43.55 119.42 44.18 118.78 46.49 C 118.25 51.06 118.84 55.85 119.14 60.44 C 117.14 60.42 115.14 60.40 113.14 60.39 C 113.33 53.82 113.11 47.38 112.52 40.84 Z" />
  <path
     id="path973"
     fill="#ffffff"
     d="M 65.45 42.29 C 67.00 42.10 68.60 42.01 70.16 42.18 L 71.32 44.35 C 73.22 42.86 75.19 41.68 77.37 40.61 C 77.28 41.89 77.19 43.17 77.11 44.44 C 74.99 45.53 72.53 46.03 71.65 48.50 C 70.37 52.15 70.71 56.57 70.67 60.41 C 68.62 60.40 66.57 60.40 64.53 60.40 C 65.33 54.36 65.22 48.35 65.45 42.29 Z" />
  <path
     id="path975"
     fill="#ffffff"
     d="M 133.57 42.30 C 137.46 41.34 144.40 41.28 146.73 45.27 C 148.56 49.95 148.25 55.48 149.32 60.41 C 147.83 60.41 146.34 60.42 144.85 60.42 C 144.41 60.04 143.98 59.66 143.54 59.28 C 140.57 60.40 138.02 61.67 134.86 60.17 C 131.69 58.68 131.20 54.00 133.60 51.63 C 135.82 49.25 139.98 48.68 142.94 47.69 C 141.84 46.36 140.91 44.22 138.87 44.35 C 136.87 44.52 134.87 45.19 132.93 45.69 C 133.11 44.55 133.32 43.42 133.57 42.30 Z" />
  <path
     id="path977"
     fill="#9b844b"
     d="M 101.97 42.69 C 104.63 42.80 105.76 45.62 104.97 47.87 C 103.11 49.23 100.67 49.98 98.56 50.85 C 99.17 47.69 98.26 44.03 101.97 42.69 Z" />
  <path
     id="path979"
     fill="#cf1843"
     d="M 102.86 43.90 C 103.36 44.87 103.72 45.86 103.95 46.87 C 102.53 47.67 101.03 48.17 99.51 48.74 C 100.52 46.94 100.70 44.63 102.86 43.90 Z" />
  <path
     id="path981"
     fill="#db2024"
     d="M 50.23 47.42 C 51.99 46.34 52.87 48.76 51.69 49.92 C 49.97 50.98 49.10 48.57 50.23 47.42 Z" />
  <path
     id="path983"
     fill="#cf1843"
     d="M 111.64 50.05 C 111.72 52.00 111.80 53.95 111.88 55.90 C 111.20 55.37 110.52 54.85 109.85 54.32 C 108.23 54.99 106.64 55.68 104.95 56.13 C 103.49 56.00 102.16 54.95 100.92 54.24 C 104.43 52.69 108.01 51.31 111.64 50.05 Z" />
  <path
     id="path985"
     fill="#9b844b"
     d="M 142.55 49.84 C 142.74 52.37 142.90 54.90 143.06 57.43 C 141.61 57.52 140.04 57.72 138.60 57.42 C 136.88 56.46 136.71 53.45 138.15 52.21 C 139.50 51.26 141.07 50.58 142.55 49.84 Z" />
  <path
     id="path987"
     fill="#cf1843"
     d="M 141.70 51.46 C 141.29 53.51 142.18 55.73 139.98 56.84 L 138.51 54.98 C 138.37 53.43 140.72 52.40 141.70 51.46 Z" />
  <path
     id="path989"
     fill="#9b844b"
     d="M 92.45 81.48 C 100.62 79.57 109.43 80.92 116.52 85.44 C 128.04 92.60 133.62 106.91 130.07 120.01 C 126.46 134.23 112.64 144.23 98.00 143.21 C 82.43 142.54 69.34 129.56 68.52 114.00 C 67.40 98.96 77.77 84.87 92.45 81.48 Z" />
  <path
     id="path991"
     fill="#9b844b"
     d="M 57.00 84.74 C 64.95 84.80 72.90 84.81 80.85 84.78 C 77.94 87.31 75.15 89.77 72.91 92.94 C 70.34 96.55 68.90 100.45 67.42 104.58 C 62.31 104.57 57.03 105.21 51.96 104.54 C 49.03 103.98 47.68 101.09 46.08 98.91 C 43.48 98.03 41.59 98.46 41.57 95.01 C 41.61 91.36 42.91 91.50 45.94 90.78 C 47.19 89.15 48.38 87.25 49.97 85.95 C 51.87 84.68 54.80 84.83 57.00 84.74 Z" />
  <path
     id="path993"
     fill="#ffffff"
     d="M 97.71 86.15 C 97.79 91.74 97.79 97.33 97.78 102.92 C 96.21 103.86 94.64 104.81 93.08 105.76 C 88.21 102.93 83.30 100.14 78.48 97.22 C 81.25 94.24 83.82 91.40 87.45 89.43 C 90.72 87.61 94.10 86.97 97.71 86.15 Z" />
  <path
     id="path995"
     fill="#ffffff"
     d="M 101.80 86.17 C 105.54 87.00 109.06 87.61 112.41 89.59 C 115.90 91.55 118.43 94.34 121.13 97.22 C 116.27 100.16 111.35 102.96 106.42 105.77 C 104.89 104.82 103.34 103.88 101.79 102.95 C 101.80 97.36 101.76 91.76 101.80 86.17 Z" />
  <path
     id="path997"
     fill="#9b844b"
     d="M 96.11 88.08 C 96.14 92.69 96.11 97.31 96.11 101.92 C 95.06 102.54 94.01 103.17 92.96 103.79 C 88.95 101.47 84.93 99.15 80.93 96.81 C 85.66 91.90 89.42 89.68 96.11 88.08 Z" />
  <path
     id="path999"
     fill="#9b844b"
     d="M 103.54 88.01 C 106.49 88.98 109.81 89.87 112.46 91.53 C 114.71 92.96 116.73 94.99 118.68 96.81 C 114.68 99.12 110.67 101.42 106.69 103.77 C 105.63 103.19 104.57 102.61 103.51 102.03 C 103.50 97.35 103.48 92.68 103.54 88.01 Z" />
  <path
     id="path1001"
     fill="#263778"
     d="M 176.60 98.95 C 174.87 107.51 172.36 115.86 168.89 123.88 C 158.25 148.86 139.64 169.27 116.94 183.90 C 112.88 186.71 108.88 189.04 104.29 190.89 C 110.68 186.47 116.95 181.92 122.77 176.77 C 135.88 165.32 146.95 151.35 154.78 135.79 C 160.53 124.37 164.27 112.15 166.54 99.59 C 169.90 99.37 173.25 99.16 176.60 98.95 Z" />
  <path
     id="path1003"
     fill="#ffffff"
     d="M 76.47 101.13 C 81.54 103.37 86.17 106.63 91.08 109.22 C 91.06 111.05 91.04 112.89 91.02 114.73 C 86.14 117.50 81.31 120.36 76.41 123.09 C 73.70 115.84 73.13 108.29 76.47 101.13 Z" />
  <path
     id="path1005"
     fill="#ffffff"
     d="M 123.10 100.94 C 126.31 108.45 126.04 115.54 123.14 123.09 C 118.30 120.31 113.49 117.48 108.60 114.78 C 108.60 112.91 108.59 111.04 108.57 109.17 C 113.46 106.51 118.17 103.52 123.10 100.94 Z" />
  <path
     id="path1007"
     fill="#cf1843"
     d="M 151.97 102.15 C 155.64 101.75 159.34 101.66 163.02 101.42 C 160.64 113.29 157.15 124.86 151.72 135.72 C 140.26 158.83 121.79 177.97 100.15 191.79 C 99.43 176.21 99.91 160.54 99.87 144.94 C 111.10 144.83 121.58 139.05 127.58 129.57 C 131.63 123.37 132.94 116.33 132.76 109.02 C 136.58 108.09 140.48 107.40 144.24 106.25 C 147.39 105.26 148.75 102.18 151.97 102.15 Z" />
  <path
     id="path1009"
     fill="#9b844b"
     d="M 77.21 103.53 C 81.42 105.22 85.27 107.94 89.25 110.11 C 89.25 111.36 89.24 112.61 89.24 113.86 C 85.23 116.09 81.31 118.47 77.35 120.77 C 75.88 115.97 75.38 111.48 76.31 106.50 C 76.58 105.51 76.88 104.52 77.21 103.53 Z" />
  <path
     id="path1011"
     fill="#9b844b"
     d="M 122.26 103.24 C 122.80 105.28 123.34 107.32 123.87 109.37 C 119.32 110.39 114.79 111.47 110.27 112.62 C 110.25 111.81 110.24 111.00 110.23 110.19 C 114.24 107.87 118.24 105.54 122.26 103.24 Z" />
  <path
     id="path1013"
     fill="#ffffff"
     d="M 98.46 107.51 C 101.71 106.53 104.96 109.48 104.32 112.80 C 103.60 116.31 99.33 117.80 96.64 115.32 C 94.05 112.87 95.06 108.57 98.46 107.51 Z" />
  <path
     id="path1015"
     fill="#9b844b"
     d="M 98.31 109.28 C 100.25 108.72 101.63 109.02 102.62 110.90 C 103.59 113.66 100.31 116.15 98.03 114.29 C 96.15 112.83 96.56 110.64 98.31 109.28 Z" />
  <path
     id="path1017"
     fill="#cf1843"
     d="M 124.01 110.96 C 123.67 114.29 123.15 117.50 122.38 120.75 C 118.49 118.56 114.64 116.30 110.79 114.03 C 115.17 112.89 119.57 111.83 124.01 110.96 Z" />
  <path
     id="path1019"
     fill="#ffffff"
     d="M 93.08 118.28 C 94.65 119.04 96.19 119.88 97.73 120.70 C 97.79 126.39 97.84 132.07 97.70 137.75 C 93.87 136.91 90.30 136.19 86.88 134.14 C 83.54 132.18 81.11 129.51 78.50 126.71 C 83.30 123.87 88.10 120.82 93.08 118.28 Z" />
  <path
     id="path1021"
     fill="#ffffff"
     d="M 106.39 118.43 C 111.55 120.52 116.25 124.02 121.13 126.72 C 118.42 129.61 115.86 132.40 112.35 134.35 C 109.01 136.29 105.52 136.92 101.80 137.75 C 101.76 132.09 101.83 126.43 101.74 120.78 C 103.26 119.96 104.79 119.06 106.39 118.43 Z" />
  <path
     id="path1023"
     fill="#db2024"
     d="M 92.95 120.23 C 94.04 120.73 95.09 121.27 96.16 121.81 C 96.13 126.48 96.14 131.16 96.07 135.83 C 89.42 134.21 85.63 132.02 80.93 127.09 C 84.94 124.83 88.84 122.32 92.95 120.23 Z" />
  <path
     id="path1025"
     fill="#cf1843"
     d="M 106.62 120.18 C 110.73 122.35 114.66 124.84 118.71 127.11 C 114.02 131.98 110.09 134.16 103.55 135.89 C 103.52 131.22 103.38 126.54 103.58 121.87 C 104.57 121.28 105.58 120.71 106.62 120.18 Z" />
  <path
     id="path1027"
     fill="#db2024"
     d="M 73.57 132.18 C 75.70 134.21 77.56 136.33 79.89 138.14 C 85.61 142.58 92.66 144.82 99.87 144.94 C 99.91 160.54 99.43 176.21 100.15 191.79 L 99.80 191.98 C 79.90 179.40 62.89 162.32 51.10 141.88 C 58.95 139.41 66.29 135.99 73.57 132.18 Z" />
  <path
     id="path1029"
     fill="#263778"
     d="M 47.67 141.21 C 59.24 161.63 76.03 178.09 95.49 191.00 C 93.54 190.12 91.59 189.30 89.70 188.29 C 70.25 176.81 53.12 161.92 40.89 142.79 C 43.15 142.28 45.43 141.79 47.67 141.21 Z" />
</svg>
