<?xml version="1.0" encoding="UTF-8" standalone="no"?>
<!-- Created with Inkscape (http://www.inkscape.org/) -->
<svg xmlns:dc="http://purl.org/dc/elements/1.1/" xmlns:cc="http://creativecommons.org/ns#" xmlns:rdf="http://www.w3.org/1999/02/22-rdf-syntax-ns#" xmlns:svg="http://www.w3.org/2000/svg" xmlns="http://www.w3.org/2000/svg" version="1.1" width="464.3125" height="464.34375" id="svg7473">
  <defs id="defs7475"/>
  <g transform="translate(-190.70089,-271.61888)" id="layer1">
    <path d="m 422.85714,272.61888 c -127.31783,0 -231.15625,103.85356 -231.15625,231.15625 0,127.32541 103.83842,231.1875 231.15625,231.1875 127.31783,0 231.15625,-103.86209 231.15625,-231.1875 0,-127.30269 -103.83842,-231.15625 -231.15625,-231.15625 z m 0.6875,20.09375 c 44.08,-0.50736 92.92441,15.75851 131.71875,47.34375 l -23.21875,28.03125 c -28.85911,-21.59701 -59.56213,-37.82669 -108.375,-37.78125 -92.85501,0.0682 -174.09619,72.60804 -175.40625,172.1875 -1.34792,102.29045 81.21463,176.23955 175.28125,176.15625 69.47087,-0.0606 119.84673,-37.31407 149.53125,-83.96875 l -15.25,0 c -33.71314,42.73966 -74.90901,71 -133.4375,71 -101.10155,0 -162.15625,-77.74198 -162.15625,-164.78125 0,-83.42714 73.32293,-159.36369 161.4375,-159.5 69.06953,-0.10602 128.65162,43.96518 149.21875,107.71875 l 43.5625,-0.1875 0,12.59375 -14.3125,0 0,58.5 -15.40625,0 0,-58.5 -11.1875,0 c 3.04418,11.94954 4.375,25.00833 4.375,38.09375 0,10.00338 -0.76098,20.03715 -2.09375,29.59375 l 54.40625,0 c -7.70889,83.31356 -83.86126,185.96875 -209.1875,185.96875 -146.93082,0 -211.43356,-129.44412 -211.0625,-213 0.50736,-114.01281 94.7024,-208.07539 211.5625,-209.46875 z m 0.125,60.09375 c -24.16411,0.14388 -49.75854,7.05385 -76.90625,22.5625 -34.0539,19.45397 -62.77809,59.14476 -71.0625,97.25 44.4965,-57.73337 122.47715,-90.72768 210.28125,-80.40625 4.56627,-0.43164 7.08827,-0.0736 12.09375,0.5625 l 2.5,-16.90625 c -23.98237,-14.66052 -49.50865,-23.20638 -76.90625,-23.0625 z m 87.6875,30.65625 -1.84375,11.59375 c 12.66136,5.51284 18.56278,11.83875 23.75,24.75 l 11,-0.0625 c -9.36728,-15.50865 -20.06315,-25.58119 -32.90625,-36.28125 z m -62.25,15.625 c -70.25556,0.81585 -131.61657,35.84342 -175.21875,89.09375 -3.33194,21.63487 1.06158,47.13549 10.15625,69.90625 11.15441,-27.54148 21.81697,-40.61886 37,-62.125 l 0,-45.0625 16.625,0 0,58.46875 32.78125,0 0,13.5 -49.5625,0 0,-8.875 c -12.5402,18.93903 -23.50047,32.4932 -31.40625,56.9375 12.65379,26.58734 34.86868,49.22245 67.21875,67.09375 27.85953,-15.06944 41.21026,-23.43628 63.875,-43.125 l -99.6875,-0.125 0,-65.5 243.96875,0.0312 c 1.69626,-10.47288 2.68089,-19.2414 2.71875,-28.09375 0.0151,-3.19563 -0.109,-6.43321 -0.34375,-9.75 -1.50694,-21.26381 -3.90327,-39.21581 -17.125,-61.5625 l -15.78125,-0.15625 c 0.6361,7.66345 0.18411,13.50037 -3.375,21.15625 l 4.1875,0 0,71.96875 -15.9375,0 0,-44.0625 -13.21875,44.125 -15.34375,-0.0625 -14.59375,-44.06245 0,44.0625 -17.625,0 0,-71.96875 1.09375,0 c -5.25537,-9.23855 -4.55664,-18.47636 -4.125,-27.59375 -45.51122,6.45184 -77.49793,27.59518 -110.96875,64.875 l -4.4375,-10.53125 c 28.96513,-35.33367 67.74438,-59.68052 119.84375,-65.625 3.5894,-6.21709 6.20751,-7.86068 11.03125,-12.09375 -6.19709,-0.54428 -12.33374,-0.82017 -18.40625,-0.84375 -1.11962,-0.004 -2.22858,-0.0129 -3.34375,0 z m 43.9375,5.21875 c -24.42915,0.44678 -33.92043,30.76342 -20.3125,46.96875 l 11.375,0.0312 3.375,9.84375 c 4.36181,1.39336 16.15695,1.20919 22.34375,-3.53125 l 1.78125,-6.59375 5.3125,0 c 14.2516,-23.3538 0.57687,-47.22606 -23.875,-46.7187 z m -85.84375,46.59375 18.8125,0 0,71.96875 -18.8125,0 0,-71.96875 z m 97.9375,22.84375 c -4.86917,1.25705 -8.02588,1.45936 -13.28125,1.65625 l 6.84375,21 6.4375,-22.65625 z m -11.5625,69 -4.4375,4.375 c -3.44553,-2.84729 -8.14672,-4.00949 -12.53125,-4.0625 -6.573,-0.0909 -13.39065,3.33581 -16.84375,9.25 -1.44636,2.5141 -1.96875,5.7649 -1.96875,9.6875 0,5.30838 1.31835,9.61591 3.96875,12.78125 l -4.5,4.46875 2.1875,1.875 4.5,-4.375 c 3.42281,2.91544 8.23386,4.01888 12.65625,3.875 7.03493,-0.2196 13.02802,-2.37772 16.625,-8.875 1.3252,-2.5974 2.15625,-5.95614 2.15625,-9.75 0,-5.45226 -1.5115,-9.68972 -4.09375,-12.71875 l 4.5,-4.46875 -2.21875,-2.0625 z m -104.53125,0.3125 c -4.24822,0.13631 -7.90836,1.00916 -10.6875,2.53125 -2.78671,1.7114 -4.94848,3.99464 -6.28125,7.03125 -1.3252,2.84729 -1.96875,6.20997 -1.96875,10.125 l 0,1.28125 c 0.12873,3.16534 0.96181,6.08637 2.46875,8.8125 1.46908,2.5974 3.62711,4.53284 6.40625,6.0625 2.85486,1.27219 6.13606,2.03125 9.9375,2.03125 2.79428,0 5.23676,-0.45573 7.53125,-1.03125 2.33993,-0.87842 4.31793,-2.08307 5.96875,-3.71875 1.64325,-1.52966 2.95584,-3.54456 3.78125,-5.9375 1.00715,-2.27935 1.53125,-4.89332 1.53125,-7.9375 0,-3.36223 -0.70968,-6.18759 -1.65625,-8.65625 -1.01473,-2.53682 -2.32368,-4.56409 -4.15625,-6.09375 -1.65082,-1.44636 -3.61933,-2.72845 -5.90625,-3.28125 -2.15061,-0.7724 -4.50009,-1.21875 -6.96875,-1.21875 z m 213.21875,0.3125 c -7.74675,0.0454 -12.14292,5.6569 -11.96875,18.5 0,6.08836 0.8032,11.43705 3.46875,14.875 1.82499,2.40051 4.89364,3.59375 8.6875,3.59375 8.54945,0 12.15049,-6.55926 11.96875,-12.375 0,-8.03451 -5.38594,-12.875 -11.15625,-12.875 -2.75642,0 -5.43738,0.56728 -7.40625,2.9375 -0.24232,-6.29282 3.17094,-9.7131 6.59375,-9.78125 2.09761,-0.0606 4.30556,1.21884 5.8125,3.6875 l 5.375,-0.96875 c -1.94615,-4.74801 -4.78685,-7.60132 -11.375,-7.59375 z m -78.4375,0.34375 -8.71875,8.90625 4.09375,3.6875 3.0625,-2.90625 0,26.4375 6.125,0 0,-36.125 -4.5625,0 z m 53.25,0 -8.75,8.90625 4.125,3.6875 3.03125,-2.90625 0,26.4375 6.125,0 0,-36.125 -4.53125,0 z m -28.3125,0.125 c -7.65588,0 -12.27378,3.9913 -12.53125,12.59375 0,8.11781 5.58667,12.78125 11.28125,12.78125 2.5974,0 5.11453,-0.93546 7.25,-2.84375 0,6.59572 -2.92766,9.6042 -6.5625,9.6875 -2.37779,0.0682 -4.90475,-1.52739 -5.84375,-3.625 l -4.875,0.78125 c 1.52209,4.87674 4.3181,7.65252 10.90625,7.78125 7.60287,0.1666 11.96875,-5.13439 11.96875,-18.5 0.24232,-5.61886 -0.50553,-10.29402 -2.40625,-13.65625 -1.77198,-3.02903 -4.62881,-5 -9.1875,-5 z m -219.71875,0.125 0,35.9375 17.84375,0 c 4.84645,0 11.17052,-0.85897 13.59375,-5.53125 0.68911,-1.31763 1.35324,-3.00927 1.40625,-4.78125 0.0757,-2.09003 -0.48527,-3.91168 -1.5,-5.5625 -1.0223,-1.66597 -2.4762,-2.91883 -4.4375,-3.5625 2.77914,-1.01473 4.46299,-3.91934 4.28125,-8.03125 -0.2499,-5.69458 -5.302,-8.46875 -11.875,-8.46875 l -19.3125,0 z m 88.0625,0 0,35.9375 17.25,0 c 3.80144,0 6.97065,-0.87104 9.25,-2.71875 2.47623,-1.95373 4.14728,-4.36581 5.34375,-7.28125 0.939,-2.83972 1.4375,-6.07527 1.4375,-9.4375 0,-3.02903 -0.61785,-5.7406 -1.625,-8.15625 -1.00715,-2.46109 -2.81632,-4.56409 -5.15625,-6.09375 -2.27935,-1.51452 -5.43427,-2.25 -9.03125,-2.25 l -17.46875,0 z m 131.15625,5.34375 c 4.61928,0 6.40625,3.2648 6.40625,6.9375 0,3.61212 -2.2906,7.31154 -6.53125,7.28125 -4.24822,-0.0379 -6.34567,-3.81781 -6.40625,-7.4375 -0.0681,-3.5364 1.84382,-6.78125 6.53125,-6.78125 z m -159.53125,0.0937 c 4.42239,0 7.29606,1.40271 8.75,4.25 1.33277,2.78671 1.96875,5.79968 1.96875,9.09375 0,1.84014 -0.33265,3.82368 -0.96875,5.65625 -0.69668,1.83257 -1.83307,3.34054 -3.46875,4.71875 -1.64325,1.20404 -3.62509,1.78125 -6.09375,1.78125 -3.80144,0 -6.49412,-1.30981 -8.28125,-3.9375 -1.84014,-2.72613 -2.46875,-5.92115 -2.46875,-9.84375 0.19689,-2.72613 0.79777,-5.00361 1.8125,-6.84375 1.13589,-1.64325 2.48548,-3.03156 4,-3.78125 1.46908,-0.76483 3.10675,-1.09375 4.75,-1.09375 z m 87.875,0 c 2.97603,0 5.44111,0.94495 7.28125,2.90625 l -16.53125,16.71875 c -0.95415,-1.84014 -1.46875,-4.23697 -1.46875,-7.03125 0,-4.55869 1.16189,-7.7262 3.3125,-9.6875 2.16576,-1.9613 4.62711,-2.90625 7.40625,-2.90625 z m -139.46875,0.75 9.5625,0 c 2.88515,0 5.75,0.48632 5.75,4 0,2.83215 -2.84192,3.9375 -5.25,3.9375 l -10.0625,0 0,-7.9375 z m 88.0625,0 8.21875,0 c 7.32269,0 8.52666,5.14746 8.875,11.28125 0,3.48339 -0.63224,6.52185 -2.09375,8.9375 -1.51452,2.58982 -3.67649,3.78125 -6.78125,3.78125 l -8.21875,0 0,-24 z m 60.46875,4.75 c 1.00715,1.77198 1.5,4.24646 1.5,7.09375 0,3.03661 -0.52036,5.64376 -1.65625,7.46875 -1.89315,3.40766 -5.0821,5 -8.90625,5 -3.10476,0 -5.55673,-0.87488 -7.59375,-2.84375 l 16.65625,-16.7187 z m 116.78125,5.96875 c 4.3088,0 6.53125,3.68427 6.53125,7.28125 0,3.61212 -2.22629,6.96875 -6.65625,6.96875 -4.31637,0 -6.25853,-3.26096 -6.28125,-6.8125 -0.0303,-3.66513 2.0293,-7.51323 6.40625,-7.4375 z m -265.3125,2.96875 10.6875,0 c 3.2865,0 6.02176,1.65868 5.96875,5.1875 -0.0757,3.52125 -2.54978,5.125 -6.09375,5.125 l -10.5625,0 0,-10.3125 z m 101.59375,30.5625 c -26.71607,23.86121 -39.1829,32.54296 -68.875,49.1875 18.4771,6.55786 35.64172,9.98869 52.9375,10.125 9.07195,0.053 18.17911,-0.79713 27.53125,-2.53125 16.14475,-21.71817 25.38805,-35.3262 33.9375,-56.71875 l -45.53125,-0.0625 z m 58.9375,0 c -9.88222,22.40727 -18.3444,37.23954 -31.1875,52.9375 32.85744,-11.83595 51.69948,-24.07839 75.75,-52.9375 l -44.5625,0 z" id="path74" style="fill:#110f0e;fill-opacity:1;fill-rule:nonzero;stroke:none"/>
    <path d="m 423.54464,292.71263 c -116.8601,1.40093 -211.05514,95.45594 -211.5625,209.46875 -0.37106,83.55588 64.13168,213 211.0625,213 125.32624,0 201.47104,-102.66277 209.1875,-185.96875 l -54.40625,0 c 1.33277,-9.56417 2.09375,-19.59794 2.09375,-29.59375 0,-13.08542 -1.32325,-26.13664 -4.375,-38.09375 l 11.1875,0 0,58.5 15.40625,0 0,-58.5 14.3125,0 0,-12.59375 -43.5625,0.1875 C 552.32126,385.36531 492.73917,341.28654 423.66964,341.40013 c -88.11457,0.13631 -161.4375,76.07286 -161.4375,159.5 0,87.03169 61.06227,164.78125 162.15625,164.78125 58.53606,0 99.73193,-28.26792 133.4375,-71 l 15.25,0 c -29.68452,46.65468 -80.06795,83.93185 -149.53125,84 -94.06662,0.0757 -176.62917,-73.89705 -175.28125,-176.1875 1.31006,-99.57946 82.54367,-172.11177 175.40625,-172.1875 48.8053,-0.0454 79.52346,16.18424 108.375,37.78125 l 23.21875,-28.03125 C 516.46905,308.47871 467.61707,292.20527 423.54464,292.71263 z m 0.125,60.09375 c 27.3976,-0.14388 52.95513,8.40198 76.9375,23.0625 l -2.5625,16.90625 c -5.00548,-0.6361 -7.49623,-0.99414 -12.0625,-0.5625 -87.8041,-10.32143 -165.77718,22.67288 -210.28125,80.40625 8.29198,-38.10524 37.00102,-77.79603 71.0625,-97.25 27.14771,-15.50865 52.74971,-22.41862 76.90625,-22.5625 z m 87.6875,30.6875 c 12.85067,10.70006 23.53897,20.74135 32.90625,36.25 l -11,0.0625 c -5.18722,-12.91125 -11.08864,-19.24473 -23.75,-24.75 l 1.84375,-11.5625 z m -62.25,15.59375 c 1.11508,-0.0129 2.22422,-0.004 3.34375,0 6.072,0.0236 12.1785,0.29947 18.375,0.84375 -4.81616,4.23307 -7.40302,5.88423 -11,12.09375 -52.0918,5.95205 -90.87862,30.29133 -119.84375,65.625 l 4.4375,10.53125 c 33.47082,-37.2874 65.44996,-58.42316 110.96875,-64.875 -0.43921,9.10982 -1.13037,18.3552 4.125,27.59375 l -1.09375,0 0,71.96875 17.59375,0 0,-44.0625 14.625,44.0625 15.34375,0.0625 13.21875,-44.125 0,44.0625 15.9375,0 0,-71.96875 -4.1875,0 c 3.56669,-7.65588 4.0111,-13.4928 3.375,-21.15625 l 15.78125,0.125 c 13.22173,22.34669 15.61806,40.32994 17.125,61.59375 0.23475,3.31679 0.3589,6.5468 0.34375,9.75 -0.0379,8.85235 -1.03006,17.6133 -2.71875,28.09375 l -243.96875,-0.0312 0,65.5 99.6875,0.125 c -22.66474,19.69629 -36.01547,28.06313 -63.875,43.125 -32.35007,-17.8713 -54.55739,-40.50641 -67.21875,-67.09375 7.91335,-24.4443 18.86605,-37.99847 31.40625,-56.9375 l 0,8.875 49.5625,0 0,-13.46875 -32.78125,0 0,-58.5 -16.625,0 0,45.0625 c -15.1906,21.50614 -25.83801,34.58352 -37,62.125 -9.09467,-22.77081 -13.48819,-48.279 -10.15625,-69.9063 43.60218,-53.2572 104.96867,-88.27807 175.21875,-89.09375 z m 43.9375,5.21875 c 24.45187,-0.50736 38.1266,23.3649 23.875,46.71875 l -5.3125,0 -1.78125,6.59375 c -6.1868,4.74044 -17.98194,4.92461 -22.34375,3.53125 l -3.34375,-9.84375 -11.40625,-0.0312 c -13.6155,-16.20533 -4.11665,-46.52197 20.3125,-46.96875 z m -85.84375,46.59375 0,71.96875 18.8125,0 0,-71.96875 -18.8125,0 z m 97.9375,22.84375 -6.4375,22.6875 -6.84375,-21.03125 c 5.25537,-0.18931 8.41208,-0.39163 13.28125,-1.65625 z m -11.5625,69.03125 2.21875,2 -4.5,4.5 c 2.58225,3.02903 4.09375,7.26649 4.09375,12.71875 0,3.80144 -0.7998,7.14503 -2.125,9.75 -3.59698,6.4897 -9.61375,8.62415 -16.65625,8.84375 -4.41482,0.15145 -9.25712,-0.92073 -12.6875,-3.84375 l -4.46875,4.375 -2.1875,-1.875 4.5,-4.46875 c -2.65798,-3.17291 -3.96875,-7.4653 -3.96875,-12.78125 0,-3.9226 0.51481,-7.1734 1.96875,-9.6875 3.44553,-5.90661 10.27832,-9.3333 16.84375,-9.25 4.3921,0.053 9.07815,1.22278 12.53125,4.0625 l 4.4375,-4.34375 z m -104.53125,0.28125 c 2.47623,0 4.81814,0.45392 6.96875,1.21875 2.27935,0.5528 4.23175,1.83489 5.875,3.28125 1.83257,1.52966 3.17277,3.55693 4.1875,6.09375 0.95415,2.46866 1.65625,5.29402 1.65625,8.65625 0,3.04418 -0.51652,5.65058 -1.53125,7.9375 -0.81784,2.39294 -2.13043,4.40784 -3.78125,5.9375 -1.65082,1.63568 -3.62882,2.83276 -5.96875,3.71875 -2.28692,0.56794 -4.73697,1.03125 -7.53125,1.03125 -3.79386,0 -7.09021,-0.75906 -9.9375,-2.03125 -2.78671,-1.52966 -4.94474,-3.4651 -6.40625,-6.0625 -1.51452,-2.72613 -2.31634,-5.64716 -2.4375,-8.8125 l 0,-1.28125 c 0,-3.91503 0.6123,-7.27771 1.9375,-10.125 1.3252,-3.03661 3.49454,-5.29617 6.28125,-7 2.77157,-1.52966 6.44685,-2.42619 10.6875,-2.5625 z m 213.21875,0.3125 c 6.58057,-0.008 9.42127,2.84574 11.375,7.59375 l -5.375,0.96875 c -1.50694,-2.46866 -3.71489,-3.74808 -5.8125,-3.6875 -3.41523,0.0682 -6.83607,3.48843 -6.59375,9.78125 1.96887,-2.37022 4.64983,-2.90625 7.40625,-2.90625 5.76274,0 11.15625,4.80924 11.15625,12.84375 0.18174,5.81574 -3.4193,12.375 -11.96875,12.375 -3.79386,0 -6.83126,-1.18567 -8.65625,-3.59375 -2.66555,-3.43795 -3.5,-8.78664 -3.5,-14.875 -0.18174,-12.83553 4.222,-18.45456 11.96875,-18.5 z m -78.4375,0.34375 4.5625,0 0,36.125 -6.15625,0 0,-26.4375 -3.03125,2.90625 -4.09375,-3.6875 8.71875,-8.90625 z m 53.25,0 4.53125,0 0,36.125 -6.125,0 0,-26.4375 -3.0625,2.90625 -4.09375,-3.6875 8.75,-8.90625 z m -28.3125,0.125 c 4.55869,0 7.41552,1.97097 9.1875,5 1.90072,3.35465 2.64857,8.03739 2.40625,13.65625 0,13.36561 -4.36588,18.6666 -11.96875,18.5 -6.58815,-0.12116 -9.38416,-2.90451 -10.90625,-7.78125 l 4.875,-0.78125 c 0.939,2.09761 3.46596,3.69315 5.84375,3.625 3.63484,-0.0833 6.5625,-3.09178 6.5625,-9.6875 -2.13547,1.90072 -4.6526,2.84375 -7.25,2.84375 -5.68701,0 -11.28125,-4.66344 -11.28125,-12.78125 0.25747,-8.61003 4.87537,-12.59375 12.53125,-12.59375 z m -219.71875,0.125 19.3125,0 c 6.573,0 11.6251,2.77417 11.875,8.46875 0.18174,4.10434 -1.49454,7.0241 -4.28125,8.03125 1.9613,0.64367 3.4152,1.89653 4.4375,3.5625 1.00715,1.65082 1.56815,3.46489 1.5,5.5625 -0.053,1.77198 -0.70957,3.45605 -1.40625,4.78125 -2.42323,4.66471 -8.7473,5.53125 -13.59375,5.53125 l -17.84375,0 0,-35.9375 z m 88.0625,0 17.46875,0 c 3.59698,0 6.7519,0.73548 9.03125,2.25 2.33993,1.52966 4.12542,3.63266 5.125,6.09375 1.01473,2.41565 1.65625,5.13479 1.65625,8.15625 0,3.36223 -0.52975,6.59778 -1.46875,9.4375 -1.1889,2.92302 -2.84384,5.32752 -5.3125,7.28125 -2.27935,1.84771 -5.44856,2.71875 -9.25,2.71875 l -17.25,0 0,-35.9375 z m 131.15625,5.34375 c -4.67986,0 -6.59183,3.24485 -6.53125,6.78125 0.0606,3.61969 2.1656,7.39964 6.40625,7.4375 4.24065,0.0303 6.53125,-3.66913 6.53125,-7.28125 0,-3.6727 -1.78697,-6.9375 -6.40625,-6.9375 z m -159.53125,0.0937 c -1.64325,0 -3.27335,0.32892 -4.75,1.09375 -1.50694,0.74969 -2.86411,2.138 -4,3.78125 -1.00715,1.83257 -1.60804,4.11762 -1.8125,6.84375 0,3.9226 0.62861,7.1413 2.46875,9.875 1.7947,2.62011 4.48739,3.90625 8.28125,3.90625 2.46866,0 4.4505,-0.58478 6.09375,-1.78125 1.63568,-1.38578 2.77207,-2.87861 3.46875,-4.71875 0.6361,-1.83257 0.96875,-3.81611 0.96875,-5.65625 0,-3.29407 -0.64355,-6.33829 -1.96875,-9.125 -1.45394,-2.83972 -4.32761,-4.21875 -8.75,-4.21875 z m 87.875,0 c -2.77914,0 -5.27174,0.94495 -7.4375,2.90625 -2.14304,1.9613 -3.28125,5.12881 -3.28125,9.6875 0,2.79428 0.50703,5.19111 1.46875,7.03125 l 16.53125,-16.7187 c -1.83257,-1.9613 -4.30522,-2.90625 -7.28125,-2.90625 z m -139.46875,0.75 0,7.9375 10.0625,0 c 2.40808,0 5.25,-1.11293 5.25,-3.9375 0,-3.52125 -2.86485,-4 -5.75,-4 l -9.5625,0 z m 88.0625,0 0,24 8.21875,0 c 3.10476,0 5.27431,-1.19143 6.78125,-3.78125 1.46908,-2.41565 2.09375,-5.44654 2.09375,-8.9375 -0.34834,-6.13379 -1.55231,-11.28125 -8.875,-11.28125 l -8.21875,0 z m 60.46875,4.75 -16.65625,16.71875 c 2.02945,1.96887 4.48899,2.84375 7.59375,2.84375 3.83173,0 7.02068,-1.58477 8.90625,-5 1.13589,-1.82499 1.65625,-4.43214 1.65625,-7.46875 0,-2.84729 -0.49285,-5.32177 -1.5,-7.09375 z m 116.78125,5.96875 c -4.37695,-0.0682 -6.43654,3.77994 -6.40625,7.4375 0.0227,3.55911 1.96488,6.8125 6.28125,6.8125 4.42996,0 6.65625,-3.35663 6.65625,-6.96875 0,-3.59698 -2.22245,-7.28125 -6.53125,-7.28125 z m -265.3125,2.96875 0,10.3125 10.5625,0 c 3.54397,0 6.0256,-1.60375 6.09375,-5.125 0.0606,-3.52882 -2.651,-5.1875 -5.9375,-5.1875 l -10.71875,0 z m 101.59375,30.5625 45.53125,0.0625 c -8.54945,21.39255 -17.79275,35.00058 -33.9375,56.71875 -9.35214,1.73412 -18.4593,2.58426 -27.53125,2.53125 -17.29578,-0.13631 -34.4604,-3.56714 -52.9375,-10.125 29.6921,-16.64454 42.15893,-25.32629 68.875,-49.1875 z m 58.9375,0 44.5625,0 c -24.05052,28.85911 -42.89256,41.10155 -75.75,52.9375 12.8431,-15.69796 21.31285,-30.53023 31.1875,-52.9375 z" id="path78" style="fill:#f9dd05;fill-opacity:1;fill-rule:nonzero;stroke:none"/>
  </g>
</svg>