<?xml version="1.0" encoding="UTF-8" standalone="no"?>
<!DOCTYPE svg PUBLIC "-//W3C//DTD SVG 1.1//EN" "http://www.w3.org/Graphics/SVG/1.1/DTD/svg11.dtd">
<svg xmlns="http://www.w3.org/2000/svg" version="1.1" viewBox="0 0 200 200" width="200.0pt" height="200.0pt">
<path d="M 0.00 0.00 L 99.22 0.00 C 95.31 1.98 90.35 2.12 86.14 3.34 C 63.48 7.21 40.04 7.36 17.27 4.32 C 16.23 12.99 17.57 23.25 18.04 32.00 C 18.19 37.09 19.61 41.94 19.95 47.00 C 25.54 82.01 36.63 117.51 55.02 147.99 C 66.24 166.72 80.44 184.80 97.75 198.25 C 98.41 198.74 98.84 199.32 99.05 200.00 L 0.00 200.00 L 0.00 0.00 Z" fill="none"/>
<path d="M 99.22 0.00 L 101.22 0.00 L 101.58 0.52 C 108.63 2.41 115.87 3.90 123.14 4.66 C 128.38 5.79 133.66 5.92 139.00 6.13 C 153.54 6.83 168.31 6.29 182.73 4.33 C 183.53 15.05 182.79 26.32 181.26 36.99 C 180.40 47.74 178.00 58.45 175.78 68.99 C 167.20 106.75 152.12 142.42 127.77 172.78 C 121.70 180.36 115.04 187.33 107.74 193.75 C 105.45 196.02 102.62 197.58 100.50 200.00 L 99.05 200.00 C 98.84 199.32 98.41 198.74 97.75 198.25 C 80.44 184.80 66.24 166.72 55.02 147.99 C 36.63 117.51 25.54 82.01 19.95 47.00 C 19.61 41.94 18.19 37.09 18.04 32.00 C 17.57 23.25 16.23 12.99 17.27 4.32 C 40.04 7.36 63.48 7.21 86.14 3.34 C 90.35 2.12 95.31 1.98 99.22 0.00 Z" fill="#dbbf98"/>
<path d="M 101.22 0.00 L 200.00 0.00 L 200.00 200.00 L 100.50 200.00 C 102.62 197.58 105.45 196.02 107.74 193.75 C 115.04 187.33 121.70 180.36 127.77 172.78 C 152.12 142.42 167.20 106.75 175.78 68.99 C 178.00 58.45 180.40 47.74 181.26 36.99 C 182.79 26.32 183.53 15.05 182.73 4.33 C 168.31 6.29 153.54 6.83 139.00 6.13 C 133.66 5.92 128.38 5.79 123.14 4.66 C 115.87 3.90 108.63 2.41 101.58 0.52 L 101.22 0.00 Z" fill="none"/>
<path d="M 100.00 3.06 C 125.95 10.18 152.42 10.46 179.02 7.58 L 179.91 7.95 C 180.53 20.03 179.25 33.04 177.27 45.00 C 173.77 69.51 166.99 93.74 157.62 116.66 C 146.85 141.49 132.16 165.72 112.93 184.92 C 108.89 188.72 104.70 193.14 100.00 196.06 C 98.29 195.29 96.88 193.77 95.39 192.65 C 86.27 184.73 78.03 175.85 70.79 166.19 C 53.49 143.05 40.67 116.83 32.62 89.10 C 28.38 75.54 25.49 62.00 23.15 48.00 C 21.16 35.10 19.32 20.96 20.08 7.95 L 20.98 7.59 C 47.47 10.45 74.16 10.17 100.00 3.06 Z" fill="#006086"/>
<path d="M 82.37 11.44 C 83.82 11.28 85.42 10.80 86.84 11.12 C 87.16 14.39 86.78 17.72 87.00 21.01 C 87.01 23.56 91.46 23.90 92.41 22.02 C 92.87 18.90 92.48 15.61 92.58 12.45 C 93.04 11.04 94.57 10.74 95.85 11.12 C 96.10 14.71 95.66 18.36 95.90 21.97 C 96.12 22.61 96.74 23.02 97.77 23.19 L 97.80 23.84 C 95.57 24.67 94.34 25.15 92.05 24.16 C 89.30 25.20 86.08 25.57 84.31 22.71 C 83.41 19.71 84.34 16.21 83.75 13.16 C 82.69 12.80 82.23 12.22 82.37 11.44 Z" fill="#dbbf98"/>
<path d="M 112.81 11.19 C 113.01 12.02 113.00 12.88 112.78 13.78 C 111.51 13.74 111.37 12.02 109.98 11.97 C 108.42 12.04 107.54 13.35 108.22 14.77 C 110.01 16.84 113.93 16.71 114.26 19.98 C 114.63 24.65 109.11 25.87 105.66 24.40 C 104.33 23.69 105.06 21.42 106.59 22.43 C 108.31 23.74 110.09 24.36 111.23 22.00 C 112.13 17.59 104.47 18.80 105.16 14.06 C 106.15 10.43 109.76 10.26 112.81 11.19 Z" fill="#dbbf98"/>
<path d="M 100.27 22.26 C 101.09 21.72 101.84 21.82 102.52 22.56 C 103.60 23.93 101.67 25.55 100.36 24.64 C 99.74 23.87 99.71 23.08 100.27 22.26 Z" fill="#dbbf98"/>
<path d="M 115.29 22.28 C 116.09 21.75 116.84 21.83 117.53 22.52 C 118.69 23.92 116.70 25.56 115.37 24.64 C 114.76 23.87 114.74 23.08 115.29 22.28 Z" fill="#dbbf98"/>
<path d="M 52.86 28.97 C 53.23 35.81 52.59 42.92 53.29 49.71 C 55.30 49.97 57.50 49.72 59.48 49.33 C 61.15 48.78 63.31 48.55 61.96 51.04 L 61.03 51.46 C 57.09 51.23 52.69 51.89 48.90 51.09 L 48.50 50.05 C 48.62 44.16 48.60 38.33 48.49 32.42 C 48.06 30.85 46.57 31.29 45.29 30.80 L 45.32 30.23 C 47.58 29.55 50.57 28.64 52.86 28.97 Z" fill="#dbbf98"/>
<path d="M 81.84 29.17 C 81.74 30.14 81.85 34.31 80.16 33.87 C 80.02 32.99 79.88 32.12 79.74 31.25 C 77.63 30.35 75.67 30.60 73.42 30.48 C 73.05 33.03 72.92 36.07 73.39 38.60 C 75.53 38.83 78.16 37.98 80.10 38.86 L 80.07 40.00 C 77.88 40.54 75.49 39.80 73.27 40.27 C 73.03 43.33 73.14 46.56 73.37 49.63 C 76.60 50.55 79.88 48.66 82.91 48.99 C 83.33 50.40 83.03 51.21 82.01 51.44 C 77.89 51.20 72.96 51.96 69.06 51.04 C 68.43 44.67 69.28 37.88 68.59 31.46 C 67.74 31.27 66.90 31.08 66.05 30.90 L 66.04 30.06 C 71.13 28.62 76.62 28.85 81.84 29.17 Z" fill="#dbbf98"/>
<path d="M 106.82 29.23 C 107.32 30.12 107.44 35.27 105.30 33.83 C 105.13 32.98 104.93 32.13 104.72 31.29 C 101.57 29.46 98.04 29.80 95.50 32.47 C 92.41 36.49 92.59 41.86 94.69 46.29 C 95.90 48.67 98.23 50.44 101.00 50.15 C 103.34 50.23 104.82 48.93 106.84 48.17 C 107.18 49.11 107.00 49.84 106.32 50.35 C 100.97 53.31 92.24 52.71 89.63 46.31 C 87.82 41.41 88.55 34.44 93.01 31.07 C 97.00 27.98 102.14 28.13 106.82 29.23 Z" fill="#dbbf98"/>
<path d="M 131.74 29.26 C 131.96 30.29 132.26 34.70 130.21 33.91 C 130.00 33.08 129.78 32.25 129.55 31.43 C 126.57 29.41 122.85 29.84 120.32 32.34 C 117.05 36.66 117.19 43.30 120.28 47.68 C 122.00 49.88 124.31 50.49 127.02 50.02 C 128.80 50.01 130.02 48.29 131.69 48.29 C 132.27 50.35 130.02 50.97 128.53 51.49 C 123.97 52.51 118.78 52.35 115.63 48.41 C 111.40 42.86 113.15 32.64 119.86 29.76 C 123.42 28.04 128.00 28.33 131.74 29.26 Z" fill="#dbbf98"/>
<path d="M 152.89 29.13 C 152.95 30.27 153.50 34.66 151.35 33.76 C 151.22 32.89 151.06 32.03 150.86 31.17 C 149.03 30.86 146.77 30.50 144.98 31.04 C 144.29 32.75 144.31 36.36 144.90 38.10 C 146.86 39.06 149.50 37.95 151.65 38.37 C 151.99 39.46 151.77 40.07 150.99 40.21 C 149.00 40.25 146.99 40.00 145.01 40.18 L 144.55 40.99 C 144.73 43.73 144.12 47.28 145.12 49.78 C 147.21 49.95 149.43 49.70 151.48 49.32 C 153.12 48.76 155.39 48.59 153.99 51.05 L 153.03 51.45 C 149.03 51.16 143.87 52.04 140.17 50.97 C 139.79 44.63 140.71 37.59 139.67 31.40 C 138.82 31.22 137.98 31.06 137.14 30.89 L 137.19 30.11 C 141.88 28.30 147.92 29.08 152.89 29.13 Z" fill="#dbbf98"/>
<path d="M 29.12 57.19 C 46.69 57.15 64.32 57.14 81.89 57.20 C 82.57 58.14 82.58 60.86 81.86 61.78 C 65.93 61.83 49.94 61.77 34.00 61.80 C 32.61 61.68 30.78 62.11 29.53 61.47 C 29.11 60.24 28.56 58.41 29.12 57.19 Z" fill="#feed00"/>
<path d="M 89.51 57.38 C 89.82 60.62 88.48 65.15 90.59 67.73 C 89.17 67.78 87.74 67.77 86.32 67.67 C 86.75 67.35 87.20 67.07 87.68 66.81 C 88.15 64.59 88.05 61.48 87.77 59.21 L 86.31 58.72 L 86.31 58.29 C 87.39 57.89 88.34 57.40 89.51 57.38 Z" fill="#dbbf98"/>
<path d="M 97.57 57.46 C 101.18 60.66 98.48 68.49 93.27 67.75 C 94.22 66.62 97.08 66.30 96.88 64.11 C 95.03 63.76 93.64 64.16 92.74 62.13 C 91.35 59.04 94.51 56.09 97.57 57.46 Z" fill="#dbbf98"/>
<path d="M 105.17 57.80 C 106.72 59.15 106.67 62.13 107.05 63.99 C 107.72 64.02 108.30 63.62 108.82 62.78 C 108.46 61.46 107.65 60.51 108.08 59.06 C 108.61 56.81 112.39 56.52 113.59 58.35 C 114.54 59.41 113.29 60.84 112.98 61.96 C 114.24 63.81 114.96 66.20 112.65 67.58 C 109.43 68.47 108.64 68.03 106.97 65.33 C 105.16 67.34 104.49 68.71 101.48 67.55 C 99.66 65.01 99.24 60.81 101.22 58.25 C 102.20 56.98 103.99 56.68 105.17 57.80 Z" fill="#dbbf98"/>
<path d="M 118.04 57.19 C 135.61 57.14 153.27 57.17 170.85 57.17 C 171.28 58.53 170.67 60.16 170.53 61.57 C 169.73 61.79 168.89 61.87 168.01 61.81 C 151.37 61.76 134.70 61.83 118.07 61.79 C 117.25 61.08 117.25 57.92 118.04 57.19 Z" fill="#feed00"/>
<path d="M 95.19 58.17 C 97.83 56.96 98.53 62.29 95.93 62.75 C 93.68 62.65 93.35 59.31 95.19 58.17 Z" fill="#006086"/>
<path d="M 103.06 58.12 C 105.41 57.89 105.24 61.47 105.26 63.00 C 105.17 64.90 104.98 67.86 102.25 66.79 C 101.40 64.46 100.71 59.76 103.06 58.12 Z" fill="#006086"/>
<path d="M 110.18 58.17 C 111.86 57.25 113.55 59.65 111.91 61.02 C 110.12 62.07 108.06 59.54 110.18 58.17 Z" fill="#006086"/>
<path d="M 30.21 63.23 C 47.38 63.09 64.69 63.14 81.86 63.23 C 82.56 64.21 82.54 66.77 81.81 67.74 C 64.99 67.78 48.03 67.81 31.22 67.71 C 30.27 66.57 29.79 64.65 30.21 63.23 Z" fill="#e21e24"/>
<path d="M 112.65 64.32 C 113.60 66.42 111.05 67.82 109.28 66.73 C 108.79 65.46 108.89 64.39 109.58 63.52 C 110.54 62.46 111.81 63.73 112.65 64.32 Z" fill="#006086"/>
<path d="M 118.07 63.22 C 135.27 63.15 152.59 63.09 169.78 63.23 C 170.21 64.64 169.34 66.44 168.73 67.71 C 151.90 67.81 134.96 67.78 118.12 67.74 C 117.28 66.97 117.25 64.00 118.07 63.22 Z" fill="#e21e24"/>
<path d="M 99.58 73.40 C 100.22 74.47 100.74 75.59 101.32 76.70 C 103.24 76.60 104.12 75.56 105.12 74.06 C 106.10 72.56 107.87 72.61 108.83 74.11 C 108.57 75.58 107.72 76.72 106.68 77.76 C 105.65 78.44 106.94 79.61 107.68 79.72 C 108.34 78.15 108.48 75.29 110.96 76.15 C 111.28 77.24 111.49 78.37 111.58 79.54 C 112.14 80.25 112.77 80.90 113.46 81.51 C 115.32 82.19 117.94 81.13 119.58 82.44 C 120.03 83.41 119.84 83.96 119.02 84.07 C 117.02 84.74 115.45 85.46 113.76 86.72 C 112.63 86.68 111.58 86.44 110.47 86.28 C 111.11 87.98 111.76 88.75 111.35 90.77 C 112.01 89.50 113.35 87.24 114.99 87.55 C 116.87 88.11 118.94 87.02 120.88 86.90 C 121.01 85.85 121.39 85.07 122.01 84.54 C 122.92 84.80 123.81 85.19 124.67 85.72 C 124.97 84.88 125.43 84.22 126.04 83.74 C 127.78 83.97 127.73 85.53 128.17 86.86 C 129.97 85.76 130.63 81.66 134.04 81.69 C 135.22 82.31 137.57 83.75 138.07 84.94 C 137.65 85.58 137.31 86.25 137.07 86.95 C 137.31 87.59 137.53 88.23 137.74 88.88 C 136.70 90.40 134.92 90.36 133.27 90.37 C 133.26 91.21 133.47 92.08 133.91 93.00 C 133.75 93.56 133.60 94.13 133.46 94.71 C 136.60 96.13 137.42 90.87 140.71 93.16 C 140.59 93.68 140.48 94.20 140.37 94.72 C 141.20 95.67 142.65 96.29 141.82 97.77 C 141.05 98.01 140.28 98.25 139.51 98.49 C 139.25 99.25 138.99 100.02 138.73 100.78 C 136.31 100.58 135.79 98.74 134.01 97.52 C 133.28 97.85 132.82 98.58 132.63 99.71 C 130.25 101.08 128.36 96.89 126.19 97.17 C 126.88 98.17 127.17 99.07 127.05 99.88 C 125.48 100.60 124.41 99.97 122.95 99.48 C 122.22 99.49 119.74 99.78 120.17 100.83 C 122.24 101.71 124.12 101.09 126.04 101.73 C 127.46 101.45 128.59 100.15 130.10 100.00 C 130.65 100.75 130.57 101.74 129.88 102.99 C 130.58 104.17 132.02 104.59 132.17 105.95 C 131.90 107.69 130.02 106.35 129.01 106.19 C 128.84 106.99 128.68 107.79 128.50 108.59 C 127.30 109.17 126.21 107.35 125.00 107.05 C 122.55 106.37 124.63 104.03 122.21 104.24 C 122.45 105.09 122.67 105.94 122.89 106.79 C 120.41 107.20 119.69 109.07 117.11 109.22 C 117.06 110.86 120.33 112.37 119.64 114.62 C 117.63 115.76 116.48 113.74 114.19 114.22 C 113.99 114.98 113.80 115.75 113.61 116.51 C 112.41 116.57 110.93 115.39 109.94 114.75 L 109.23 115.09 C 108.58 117.13 107.06 116.97 105.24 117.25 C 104.06 118.54 101.64 120.00 102.16 121.98 C 102.85 126.91 101.90 131.79 102.32 136.68 C 105.96 137.77 110.52 136.37 114.03 137.90 C 115.91 138.54 117.19 140.08 119.11 140.66 C 119.97 140.92 120.59 141.37 120.97 142.01 C 122.07 143.98 124.10 144.82 125.45 146.50 C 126.16 148.41 127.19 150.71 126.79 152.78 C 126.19 152.80 125.70 152.46 125.33 151.74 C 124.14 149.22 121.75 148.02 120.32 145.71 C 119.76 145.04 119.28 142.90 118.27 143.04 C 118.29 145.02 116.58 147.47 117.75 149.18 C 118.42 151.05 120.03 151.36 121.46 152.53 C 122.02 153.93 122.60 155.42 122.74 156.93 C 122.72 159.10 119.60 159.96 118.61 158.00 C 119.29 156.54 120.95 157.16 120.62 155.37 C 120.35 154.72 119.99 154.10 119.54 153.51 C 115.59 152.81 114.84 152.63 112.00 149.84 C 109.81 150.03 111.82 153.62 111.02 154.97 C 109.37 156.78 108.22 158.84 105.40 157.57 C 105.08 155.71 107.60 155.59 108.78 154.84 C 109.55 151.88 106.24 145.40 102.25 147.23 C 102.06 150.32 101.85 153.87 102.25 156.92 C 103.00 160.89 106.44 161.66 109.57 163.46 C 112.55 164.40 115.66 164.45 118.66 165.50 C 116.01 166.15 113.48 164.85 110.98 164.77 C 109.34 164.86 107.57 163.28 106.06 163.96 L 106.10 164.93 C 107.88 167.25 112.14 165.85 114.53 167.37 C 114.33 167.93 114.14 168.49 113.98 169.05 C 115.02 169.53 116.22 169.68 117.57 169.53 C 117.75 170.40 117.53 170.79 116.92 170.71 C 114.45 171.56 113.99 169.32 112.00 169.14 L 111.60 170.65 C 110.68 168.68 110.17 168.44 108.10 167.79 C 106.50 167.48 105.49 165.69 104.20 165.12 C 104.21 166.01 104.15 166.88 104.02 167.73 L 103.23 167.80 C 103.18 166.54 103.07 165.29 102.92 164.06 L 102.06 164.11 C 101.43 165.78 100.37 168.14 101.16 169.86 C 101.92 170.89 102.94 171.69 103.73 172.69 C 102.84 172.42 101.94 172.21 101.02 172.07 C 100.94 172.86 101.13 173.74 101.59 174.72 L 100.41 174.61 C 99.89 170.84 100.60 166.75 99.87 163.13 C 98.39 162.58 98.09 167.05 97.69 168.01 C 98.10 168.79 98.40 169.58 98.58 170.38 C 97.05 170.90 96.97 171.33 96.34 172.68 C 96.27 170.67 97.47 168.98 97.32 167.00 C 97.19 166.28 97.58 162.72 96.22 163.25 C 94.75 167.42 94.56 171.29 94.60 175.68 C 94.37 175.17 94.14 174.66 93.92 174.14 C 93.36 174.25 92.80 174.37 92.24 174.50 C 92.30 173.87 92.53 173.35 92.93 172.96 C 94.45 171.59 94.43 169.00 93.88 167.18 C 92.29 168.06 91.24 170.56 89.31 171.62 C 89.33 169.77 91.15 169.44 91.84 167.87 C 92.62 165.84 94.65 165.73 94.72 163.42 C 93.32 164.35 92.16 165.03 90.52 165.56 C 90.06 166.47 89.53 167.33 88.94 168.13 L 88.90 166.10 C 86.64 165.75 85.89 170.19 84.73 171.44 C 83.88 171.20 83.29 171.11 82.45 171.46 C 82.23 168.74 80.96 169.52 79.30 170.56 C 79.27 168.58 83.41 168.94 82.12 165.89 C 80.06 164.92 79.11 166.41 77.27 166.76 C 77.51 165.78 79.07 165.47 79.82 164.96 C 79.66 164.36 79.51 163.75 79.37 163.14 C 80.99 163.74 82.18 164.65 84.00 164.01 C 87.21 162.98 90.26 162.13 93.59 161.56 C 95.11 160.48 97.03 159.06 97.14 157.02 C 97.39 153.99 97.99 149.92 97.05 147.08 C 94.57 146.50 94.98 148.16 95.32 149.86 C 95.62 152.67 96.75 156.41 94.76 158.71 C 93.69 159.21 92.46 159.26 91.06 158.87 C 90.80 157.02 92.46 157.24 93.66 156.60 C 94.29 154.06 92.62 150.72 91.75 148.30 C 89.72 149.06 87.30 149.27 85.55 150.54 C 84.10 152.01 85.39 154.94 83.98 156.13 C 83.23 156.27 82.70 155.78 82.38 154.67 C 81.63 152.63 83.08 150.76 83.93 148.99 C 85.22 146.54 87.51 147.51 89.78 145.85 C 88.86 143.39 85.25 140.81 83.62 138.42 C 81.29 137.64 78.34 140.05 75.55 138.44 C 74.36 137.09 75.99 136.61 76.77 135.73 C 78.39 134.06 80.05 132.63 80.38 130.21 C 81.95 129.82 81.88 132.50 83.47 131.53 C 83.85 130.49 84.34 130.01 84.93 130.09 L 85.48 131.58 C 89.33 132.96 93.51 137.43 97.88 136.06 C 97.90 132.03 98.33 127.99 98.13 123.98 C 98.08 122.04 100.00 120.62 97.72 119.27 C 96.80 119.43 95.88 119.64 94.98 119.90 C 94.58 118.90 94.50 117.69 94.72 116.29 C 93.54 115.04 91.81 113.34 90.05 113.12 C 89.54 113.54 89.14 114.09 88.84 114.78 C 87.91 114.90 87.22 113.81 86.38 113.45 C 85.27 113.80 84.22 114.42 83.08 114.68 C 82.28 112.31 80.81 113.95 79.12 112.82 C 79.24 111.91 79.47 110.98 79.81 110.04 C 79.11 109.78 78.48 109.43 77.91 109.00 C 78.66 106.27 83.20 105.47 85.53 106.48 C 85.62 105.66 85.89 104.98 86.33 104.41 C 87.19 104.24 88.05 104.07 88.90 103.88 C 88.98 102.73 89.34 101.90 89.98 101.38 C 92.16 102.07 92.79 103.72 93.39 105.73 C 95.59 106.26 94.29 103.12 96.07 102.80 C 98.33 103.07 97.99 105.24 98.48 107.00 C 99.55 110.39 94.55 111.38 92.27 110.71 C 91.81 109.87 91.06 109.29 90.02 108.99 C 90.18 108.41 90.33 107.82 90.49 107.23 C 89.65 106.96 88.93 106.99 88.34 107.34 C 87.44 108.54 89.25 110.29 89.65 111.47 C 91.95 112.57 94.02 113.41 96.06 115.02 C 98.79 115.07 99.13 111.76 100.79 111.29 C 102.70 113.50 101.86 115.13 101.30 117.62 C 102.39 117.10 103.90 116.23 104.17 114.97 C 103.57 113.74 102.95 112.59 102.68 111.23 C 101.04 110.08 99.17 109.43 99.02 107.12 L 100.75 106.63 C 98.67 104.22 99.96 101.84 96.58 100.45 C 93.52 100.82 90.52 99.85 87.53 100.30 C 87.59 100.84 87.70 101.39 87.85 101.93 C 86.17 103.30 84.70 101.55 83.03 101.07 C 81.19 101.82 81.10 105.86 78.34 104.77 C 78.20 103.88 78.06 103.00 77.90 102.12 C 76.63 100.83 74.88 102.85 74.39 103.97 C 74.85 105.85 78.07 105.75 77.11 108.11 C 75.12 109.32 74.08 107.77 72.28 107.30 C 71.16 109.37 71.16 111.70 68.25 111.81 C 68.18 110.51 68.10 109.21 68.02 107.91 C 66.51 107.75 65.29 108.08 64.14 106.87 C 64.04 105.19 67.66 104.34 68.88 103.90 C 69.14 102.16 67.48 101.55 69.12 100.13 C 70.76 99.78 71.68 102.94 72.97 103.63 C 74.95 102.03 76.48 98.46 75.60 95.98 C 76.15 95.42 76.56 94.81 76.82 94.14 C 74.92 93.31 74.52 95.69 73.74 96.84 C 71.02 96.60 69.45 99.73 67.24 98.81 C 66.71 97.33 67.99 96.48 68.63 95.31 C 67.81 95.14 66.99 94.96 66.17 94.79 C 66.41 91.67 69.35 92.12 70.38 90.03 C 69.49 88.40 69.16 86.74 69.92 84.99 C 72.23 84.44 72.63 85.86 73.46 87.56 C 74.90 87.60 76.54 87.11 78.01 86.96 C 79.47 84.24 73.26 84.93 74.13 82.07 C 74.34 80.64 76.03 81.67 76.91 81.72 C 77.42 80.84 77.60 79.72 77.44 78.34 C 79.84 77.63 79.42 78.98 81.00 79.89 C 82.61 78.38 84.07 76.09 87.00 76.75 C 88.54 77.29 90.06 77.08 91.59 77.41 C 92.03 79.14 91.35 80.30 92.54 82.04 L 92.01 82.95 C 89.39 83.66 87.81 85.91 85.14 86.41 C 84.40 87.69 84.19 89.27 83.66 90.64 C 81.75 90.10 81.57 88.67 80.73 87.13 C 79.22 86.50 79.19 88.81 78.66 89.68 C 77.59 90.37 76.39 90.82 75.22 91.32 C 74.62 92.98 77.49 93.37 78.61 93.66 C 78.85 92.85 79.09 92.04 79.32 91.23 C 81.11 90.81 81.69 93.21 83.74 92.38 C 84.43 93.93 85.36 93.64 86.79 94.09 C 86.86 94.93 86.70 95.80 86.30 96.69 C 89.61 96.70 90.70 99.71 93.91 98.81 C 94.73 95.74 92.09 96.48 91.69 93.31 C 90.81 93.65 89.92 93.95 89.02 94.23 C 87.42 93.71 87.40 92.53 87.59 91.14 C 86.82 90.77 84.55 90.08 85.74 88.91 C 88.45 85.66 91.54 88.58 93.85 85.79 C 93.99 84.23 91.59 82.72 93.46 81.45 C 95.00 80.37 95.42 83.20 96.88 82.03 C 97.03 79.94 92.17 77.22 95.16 75.34 C 95.70 75.46 96.23 75.56 96.77 75.64 C 97.62 74.54 97.84 73.03 99.58 73.40 Z" fill="#dbbf98"/>
<path d="M 119.05 74.11 C 120.35 74.36 121.54 74.98 122.81 75.35 C 123.20 76.93 123.40 78.36 123.94 79.93 C 123.45 81.78 120.58 79.67 119.44 80.47 C 118.02 81.29 114.30 81.93 113.51 80.04 C 113.18 78.26 115.92 73.79 117.96 76.12 C 117.81 76.65 117.66 77.18 117.51 77.72 C 119.48 77.87 117.67 75.19 119.05 74.11 Z" fill="#dbbf98"/>
<path d="M 102.99 79.95 C 104.41 80.50 105.29 82.63 106.54 83.67 C 105.95 84.40 105.36 85.11 104.74 85.81 C 102.45 85.17 101.60 84.84 99.21 85.65 C 99.09 84.91 99.27 84.29 99.75 83.80 C 101.16 82.39 101.00 80.74 102.99 79.95 Z" fill="#006086"/>
<path d="M 95.42 87.42 C 97.93 87.10 98.38 93.29 102.04 91.86 C 103.12 90.43 100.15 89.34 99.68 88.42 C 100.93 88.06 102.20 87.72 103.45 87.32 C 103.38 87.84 103.30 88.35 103.22 88.87 C 103.92 89.24 104.70 89.47 105.56 89.54 C 105.77 90.33 105.97 91.13 106.16 91.93 C 107.86 92.33 106.29 88.93 108.49 89.33 C 108.21 90.50 107.94 91.67 107.70 92.85 C 105.64 93.16 104.76 91.09 102.99 91.18 C 102.57 92.21 102.47 93.41 102.69 94.78 C 101.81 95.48 100.28 95.91 99.93 97.03 C 99.85 98.11 100.94 100.60 99.34 100.89 C 98.78 98.75 96.58 97.57 95.46 95.57 C 96.24 93.94 97.39 94.60 98.74 93.82 C 99.82 91.16 95.08 89.63 95.42 87.42 Z" fill="#006086"/>
<path d="M 127.34 88.33 L 128.02 87.83 L 128.96 88.03 C 130.63 90.37 126.24 90.94 127.34 88.33 Z" fill="#006086"/>
<path d="M 119.91 89.76 C 120.60 89.40 121.27 89.00 121.93 88.56 C 123.18 89.55 123.84 90.55 125.57 90.60 C 125.78 91.55 123.95 92.92 123.17 92.76 C 122.48 92.14 121.76 91.84 121.02 91.86 C 119.50 92.98 119.99 94.15 119.85 95.79 C 119.19 95.39 118.57 94.90 118.00 94.32 C 116.60 96.07 115.91 95.58 113.91 95.84 C 113.17 97.99 115.05 101.54 117.73 100.24 C 117.22 101.07 116.47 104.28 115.31 103.89 C 115.08 103.08 114.80 102.29 114.46 101.53 C 112.76 100.00 112.37 102.90 111.85 103.96 C 112.02 105.33 112.52 108.54 110.20 108.04 C 109.74 106.29 109.53 104.16 107.10 104.93 C 106.56 105.99 106.39 107.19 106.57 108.54 C 105.74 108.09 104.40 107.85 104.00 106.95 C 103.98 105.97 103.95 104.99 103.93 104.00 C 103.26 104.30 102.62 104.75 102.00 105.33 C 100.96 104.66 100.31 103.35 100.14 102.14 C 101.09 101.90 102.55 100.95 103.50 101.41 C 103.78 102.39 104.28 103.02 104.98 103.29 C 106.85 101.97 106.96 102.32 108.94 103.05 C 112.55 100.83 108.21 97.38 108.35 94.33 C 108.75 93.95 109.19 93.63 109.66 93.37 C 109.99 94.77 109.44 97.79 111.86 96.93 C 112.22 96.21 112.42 95.43 112.45 94.58 C 114.08 94.58 113.80 95.38 114.65 93.53 C 116.02 93.06 117.69 94.10 118.91 93.02 C 119.86 90.58 117.81 91.08 116.26 90.63 C 117.07 88.53 118.26 89.49 119.91 89.76 Z" fill="#006086"/>
<path d="M 113.50 91.50 C 113.50 91.50 113.50 91.50 113.50 91.50 Z" fill="#006086"/>
<path d="M 128.13 92.20 L 128.76 92.20 L 128.75 92.81 L 128.12 92.81 L 128.13 92.20 Z" fill="#006086"/>
<path d="M 97.14 95.23 L 97.89 95.14 L 97.96 95.85 L 97.22 95.95 L 97.14 95.23 Z" fill="#dbbf98"/>
<path d="M 120.30 97.22 C 120.97 97.28 121.12 97.78 120.74 98.72 C 118.88 100.06 118.42 97.78 120.30 97.22 Z" fill="#006086"/>
<path d="M 82.20 99.23 L 82.78 99.22 L 82.78 99.80 L 82.20 99.81 L 82.20 99.23 Z" fill="#006086"/>
<path d="M 118.31 102.33 C 118.70 102.71 118.70 102.71 118.31 102.33 Z" fill="#006086"/>
<path d="M 117.50 104.51 C 117.50 104.51 117.50 104.51 117.50 104.51 Z" fill="#006086"/>
<path d="M 88.94 168.13 L 88.39 168.65 L 88.94 168.13 Z" fill="#dbbf98"/>
<path d="M 104.66 169.16 C 105.99 171.39 109.74 170.70 110.59 172.74 C 109.11 172.79 108.33 171.34 106.97 172.07 L 106.58 173.70 C 106.45 172.40 102.40 169.83 104.66 169.16 Z" fill="#dbbf98"/>
</svg>
