<?xml version="1.0" encoding="UTF-8" standalone="no"?>
<!DOCTYPE svg PUBLIC "-//W3C//DTD SVG 1.1//EN" "http://www.w3.org/Graphics/SVG/1.1/DTD/svg11.dtd">
<svg xmlns="http://www.w3.org/2000/svg" version="1.1" viewBox="0 0 200 200" width="200.0pt" height="200.0pt">
<path d="M 0.00 0.00 L 98.45 0.00 C 90.02 1.38 82.12 3.80 75.71 9.71 C 64.25 19.78 60.49 36.73 66.16 50.84 C 67.71 54.71 69.92 58.28 72.66 61.43 C 59.32 67.29 47.69 76.51 39.85 88.88 C 30.84 102.65 26.90 119.68 28.79 136.01 C 30.56 153.27 38.95 169.58 51.77 181.24 C 60.90 189.47 71.99 195.40 84.00 198.09 C 88.04 199.02 92.29 199.48 96.41 200.00 L 0.00 200.00 L 0.00 0.00 Z" fill="none"/>
<path d="M 98.45 0.00 L 100.80 0.00 L 101.61 0.06 L 102.34 0.15 C 110.79 1.31 118.73 4.04 125.02 9.99 C 132.79 16.96 136.73 26.70 137.21 37.04 C 131.85 37.05 126.49 37.05 121.12 37.03 C 120.47 32.98 119.70 29.14 117.30 25.70 C 112.83 18.86 103.98 15.14 95.98 17.01 C 87.84 18.74 81.16 25.67 79.97 33.94 C 79.19 39.07 80.29 44.39 83.31 48.63 C 85.69 52.02 88.90 54.17 92.17 56.61 C 101.42 63.23 110.47 70.17 119.89 76.55 C 125.73 81.34 132.37 85.12 137.59 90.41 C 143.69 96.32 147.89 103.59 150.74 111.55 C 145.42 111.42 140.10 111.46 134.78 111.44 C 131.78 105.06 127.44 99.41 121.46 95.56 C 110.68 88.39 99.94 81.16 89.21 73.91 C 83.36 69.81 77.51 66.59 72.66 61.43 C 69.92 58.28 67.71 54.71 66.16 50.84 C 60.49 36.73 64.25 19.78 75.71 9.71 C 82.12 3.80 90.02 1.38 98.45 0.00 Z" fill="#f99c1c"/>
<path d="M 100.80 0.00 L 200.00 0.00 L 200.00 200.00 L 103.91 200.00 C 119.69 198.85 134.82 193.21 146.85 182.84 C 158.11 173.25 166.32 160.30 169.92 145.94 C 172.82 134.70 172.81 122.92 170.36 111.59 C 163.82 111.61 157.27 111.68 150.74 111.55 C 147.89 103.59 143.69 96.32 137.59 90.41 C 132.37 85.12 125.73 81.34 119.89 76.55 C 127.44 79.12 133.78 83.74 139.50 89.20 C 143.33 85.11 147.32 81.16 151.31 77.23 C 136.03 61.88 113.69 53.86 92.17 56.61 C 88.90 54.17 85.69 52.02 83.31 48.63 C 80.29 44.39 79.19 39.07 79.97 33.94 C 81.16 25.67 87.84 18.74 95.98 17.01 C 103.98 15.14 112.83 18.86 117.30 25.70 C 119.70 29.14 120.47 32.98 121.12 37.03 C 126.49 37.05 131.85 37.05 137.21 37.04 C 136.73 26.70 132.79 16.96 125.02 9.99 C 118.73 4.04 110.79 1.31 102.34 0.15 L 101.61 0.06 L 100.80 0.00 Z" fill="none"/>
<path d="M 92.17 56.61 C 113.69 53.86 136.03 61.88 151.31 77.23 C 147.32 81.16 143.33 85.11 139.50 89.20 C 133.78 83.74 127.44 79.12 119.89 76.55 C 110.47 70.17 101.42 63.23 92.17 56.61 Z" fill="#a51e22"/>
<path d="M 72.66 61.43 C 77.51 66.59 83.36 69.81 89.21 73.91 C 74.80 76.82 62.02 85.73 53.97 97.98 C 48.59 106.28 45.38 116.10 45.05 125.99 C 44.44 141.03 50.41 156.28 61.15 166.85 C 75.47 181.68 97.93 186.96 117.45 180.45 C 134.38 174.94 147.94 161.08 153.10 144.04 C 154.81 138.81 155.24 133.45 155.60 128.00 L 153.36 128.14 C 148.57 128.33 143.76 128.26 138.96 128.16 C 137.59 128.12 136.22 128.08 134.85 128.03 C 134.79 122.50 134.98 116.96 134.78 111.44 C 140.10 111.46 145.42 111.42 150.74 111.55 C 157.27 111.68 163.82 111.61 170.36 111.59 C 172.81 122.92 172.82 134.70 169.92 145.94 C 166.32 160.30 158.11 173.25 146.85 182.84 C 134.82 193.21 119.69 198.85 103.91 200.00 L 96.41 200.00 C 92.29 199.48 88.04 199.02 84.00 198.09 C 71.99 195.40 60.90 189.47 51.77 181.24 C 38.95 169.58 30.56 153.27 28.79 136.01 C 26.90 119.68 30.84 102.65 39.85 88.88 C 47.69 76.51 59.32 67.29 72.66 61.43 Z" fill="#a51e22"/>
<path d="M 89.21 73.91 C 99.94 81.16 110.68 88.39 121.46 95.56 C 127.44 99.41 131.78 105.06 134.78 111.44 C 134.98 116.96 134.79 122.50 134.85 128.03 C 136.22 128.08 137.59 128.12 138.96 128.16 C 138.43 138.17 134.95 147.63 127.79 154.79 C 117.45 165.69 100.93 169.48 86.88 164.12 C 73.04 158.99 62.85 145.78 61.89 131.00 C 61.31 124.30 62.77 117.89 65.16 111.68 C 59.90 111.72 54.60 111.51 49.35 111.83 C 46.52 122.60 46.37 134.36 50.01 144.96 C 54.20 157.66 63.43 168.53 75.24 174.79 C 82.24 178.57 90.06 180.58 97.99 181.01 C 114.28 181.73 130.58 174.57 140.96 161.99 C 149.02 152.47 153.01 140.54 153.36 128.14 L 155.60 128.00 C 155.24 133.45 154.81 138.81 153.10 144.04 C 147.94 161.08 134.38 174.94 117.45 180.45 C 97.93 186.96 75.47 181.68 61.15 166.85 C 50.41 156.28 44.44 141.03 45.05 125.99 C 45.38 116.10 48.59 106.28 53.97 97.98 C 62.02 85.73 74.80 76.82 89.21 73.91 Z" fill="#ffffff"/>
<path d="M 95.10 115.01 C 95.93 118.41 95.84 122.24 94.58 125.52 C 93.31 128.80 89.24 129.32 86.40 127.87 C 85.38 126.81 84.74 125.59 84.02 124.34 C 85.02 124.30 86.02 124.26 87.02 124.23 C 88.35 125.33 88.86 126.52 90.77 125.94 C 91.99 125.11 92.39 123.11 93.13 121.86 C 90.74 122.19 88.54 123.36 86.35 121.81 C 83.23 119.52 83.64 112.87 87.51 111.47 C 90.36 110.06 94.44 111.85 95.10 115.01 Z" fill="#000000"/>
<path d="M 100.52 111.67 C 102.93 110.30 107.08 111.24 107.98 114.09 C 109.17 117.64 109.19 121.67 108.09 125.24 C 107.18 129.38 100.48 129.79 98.59 126.27 C 97.43 124.21 97.50 121.30 97.48 118.99 C 97.73 116.29 97.67 113.01 100.52 111.67 Z" fill="#000000"/>
<path d="M 49.35 111.83 C 54.60 111.51 59.90 111.72 65.16 111.68 C 62.77 117.89 61.31 124.30 61.89 131.00 C 62.85 145.78 73.04 158.99 86.88 164.12 C 100.93 169.48 117.45 165.69 127.79 154.79 C 134.95 147.63 138.43 138.17 138.96 128.16 C 143.76 128.26 148.57 128.33 153.36 128.14 C 153.01 140.54 149.02 152.47 140.96 161.99 C 130.58 174.57 114.28 181.73 97.99 181.01 C 90.06 180.58 82.24 178.57 75.24 174.79 C 63.43 168.53 54.20 157.66 50.01 144.96 C 46.37 134.36 46.52 122.60 49.35 111.83 Z" fill="#f99c1c"/>
<path d="M 80.71 110.98 C 81.31 116.69 81.00 122.33 81.06 128.05 C 79.98 128.05 78.89 128.05 77.81 128.05 C 77.81 124.28 77.81 120.50 77.80 116.72 C 76.23 116.58 74.66 116.42 73.10 116.24 C 75.47 114.28 78.18 112.73 80.71 110.98 Z" fill="#000000"/>
<path d="M 112.47 111.57 C 115.39 111.56 118.32 111.56 121.24 111.56 L 121.27 114.19 C 119.00 114.20 116.72 114.24 114.44 114.28 C 114.25 115.32 114.05 116.36 113.86 117.39 C 116.11 117.25 118.11 116.43 120.07 117.99 C 123.63 121.24 122.11 127.95 117.12 128.65 C 113.02 128.90 111.36 127.33 110.00 123.67 C 112.64 124.02 113.46 123.96 115.19 126.13 C 116.97 125.71 118.12 125.84 118.68 123.78 C 119.24 121.43 118.01 120.73 116.53 119.24 C 114.69 119.91 112.83 120.52 110.93 121.00 C 111.45 117.86 111.99 114.72 112.47 111.57 Z" fill="#000000"/>
<path d="M 91.42 113.88 C 91.95 114.98 92.46 116.08 92.96 117.18 C 91.70 118.52 91.39 120.51 89.15 119.87 C 87.09 119.66 87.10 116.78 87.04 115.24 C 88.64 114.03 89.42 113.74 91.42 113.88 Z" fill="#ffffff"/>
<path d="M 102.25 114.17 C 105.56 113.25 105.57 116.71 105.73 118.98 C 105.64 121.42 106.19 126.14 102.49 125.87 C 100.13 124.53 100.54 120.30 100.63 117.96 C 100.90 116.98 100.81 114.09 102.25 114.17 Z" fill="#ffffff"/>
</svg>
