<?xml version="1.0" encoding="UTF-8" standalone="no"?>
<!DOCTYPE svg PUBLIC "-//W3C//DTD SVG 1.1//EN" "http://www.w3.org/Graphics/SVG/1.1/DTD/svg11.dtd">
<svg xmlns="http://www.w3.org/2000/svg" version="1.1" viewBox="0 0 200 200" width="200.0pt" height="200.0pt">
<path d="M 0.00 0.00 L 200.00 0.00 L 200.00 200.00 L 100.10 200.00 C 115.89 190.70 130.18 179.06 141.89 164.92 C 162.28 140.46 173.90 110.06 177.13 78.51 C 177.43 74.64 178.39 70.87 178.54 67.00 C 178.73 61.46 178.53 55.89 178.30 50.36 C 171.48 50.84 164.87 52.00 158.00 51.40 C 135.32 50.15 114.53 38.65 100.00 21.44 C 85.89 38.12 65.96 49.47 44.01 51.25 C 36.49 52.11 29.25 50.95 21.79 50.37 C 21.47 57.86 20.92 65.21 22.19 72.61 C 22.95 78.77 23.44 84.93 24.62 91.03 C 29.49 119.00 41.26 145.54 59.93 167.05 C 71.29 180.28 84.90 191.14 99.90 200.00 L 0.00 200.00 L 0.00 0.00 Z" fill="none"/>
<path d="M 100.21 0.71 C 101.22 2.81 102.12 4.96 103.01 7.11 C 105.58 7.41 108.14 7.68 110.71 7.95 C 108.83 9.65 106.94 11.35 105.05 13.04 C 105.55 15.56 106.08 18.07 106.61 20.58 C 104.42 19.29 102.23 18.00 100.03 16.72 C 97.82 18.00 95.61 19.28 93.40 20.57 C 93.93 18.08 94.46 15.59 94.97 13.10 C 93.06 11.39 91.17 9.67 89.28 7.94 C 91.70 7.72 94.19 7.63 96.57 7.12 C 98.00 5.14 98.72 2.70 100.21 0.71 Z" fill="#cf8a15"/>
<path d="M 100.00 21.44 C 114.53 38.65 135.32 50.15 158.00 51.40 C 164.87 52.00 171.48 50.84 178.30 50.36 C 178.53 55.89 178.73 61.46 178.54 67.00 C 178.39 70.87 177.43 74.64 177.13 78.51 C 173.90 110.06 162.28 140.46 141.89 164.92 C 130.18 179.06 115.89 190.70 100.10 200.00 L 99.90 200.00 C 84.90 191.14 71.29 180.28 59.93 167.05 C 41.26 145.54 29.49 119.00 24.62 91.03 C 23.44 84.93 22.95 78.77 22.19 72.61 C 20.92 65.21 21.47 57.86 21.79 50.37 C 29.25 50.95 36.49 52.11 44.01 51.25 C 65.96 49.47 85.89 38.12 100.00 21.44 Z" fill="#cf8a15"/>
<path d="M 100.00 26.66 C 107.77 34.67 116.51 41.56 126.62 46.38 C 141.36 53.65 157.98 55.99 174.24 53.87 C 175.85 91.28 164.70 130.66 141.08 160.05 C 129.68 174.36 115.61 186.17 100.00 195.65 C 78.99 182.96 60.91 165.84 48.24 144.73 C 31.98 117.72 24.46 85.27 25.74 53.87 C 36.53 55.17 47.45 54.84 58.00 52.04 C 74.27 47.91 88.47 38.73 100.00 26.66 Z" fill="#312758"/>
<path d="M 100.00 33.04 C 107.97 40.10 116.66 46.22 126.38 50.62 C 140.17 57.02 155.38 59.76 170.54 59.10 C 170.32 92.38 160.41 126.59 140.52 153.52 C 129.49 168.50 115.63 181.06 100.00 191.12 C 80.91 178.86 64.48 162.77 52.65 143.35 C 37.32 118.31 29.68 88.35 29.44 59.10 C 40.45 59.52 51.48 58.34 62.01 55.05 C 76.25 50.73 88.97 42.93 100.00 33.04 Z" fill="#ffffff"/>
<path d="M 100.58 56.64 C 102.97 57.01 100.87 59.29 99.92 60.00 C 99.20 58.86 98.26 56.22 100.58 56.64 Z" fill="#cf8a15"/>
<path d="M 96.18 57.83 C 97.46 58.53 95.34 60.27 95.03 60.96 L 93.80 58.76 C 94.07 57.58 95.29 56.82 96.18 57.83 Z" fill="#cf8a15"/>
<path d="M 105.00 57.13 C 105.62 57.42 106.24 57.71 106.87 58.01 C 106.35 59.58 105.84 61.15 105.36 62.73 C 106.86 62.91 108.35 63.09 109.84 63.27 C 109.07 65.36 108.34 67.45 107.60 69.55 C 102.76 69.54 97.93 69.54 93.09 69.54 C 92.07 65.99 90.60 62.95 88.75 59.77 C 89.34 58.28 90.04 58.80 91.32 58.70 C 91.28 60.27 91.25 61.84 91.26 63.41 C 92.63 63.08 93.98 62.71 95.34 62.37 C 96.41 62.93 97.45 63.53 98.53 64.08 C 99.12 63.34 99.72 62.61 100.32 61.87 C 100.93 62.63 101.54 63.39 102.14 64.15 C 104.76 62.93 105.15 62.59 105.61 59.72 L 103.76 59.52 C 104.17 58.72 104.59 57.93 105.00 57.13 Z" fill="#cf8a15"/>
<path d="M 110.24 58.49 C 112.42 58.36 112.50 61.09 110.67 61.34 C 109.12 61.73 108.52 58.87 110.24 58.49 Z" fill="#cf8a15"/>
<path d="M 55.99 71.65 C 57.16 72.22 58.33 72.81 59.51 73.35 C 63.25 74.19 67.07 74.49 70.83 75.18 C 71.92 76.41 70.72 78.38 70.34 79.70 C 69.25 79.48 68.17 79.25 67.09 79.02 C 65.80 79.92 64.52 80.83 63.26 81.76 C 66.61 83.55 70.27 84.41 73.47 86.47 C 75.40 84.26 75.57 82.89 78.91 83.51 C 85.16 79.09 92.25 76.30 100.00 76.39 C 107.74 76.30 114.84 79.09 121.09 83.50 C 124.44 82.89 124.60 84.25 126.53 86.47 C 129.75 84.46 133.39 83.53 136.75 81.76 C 135.48 80.83 134.21 79.92 132.93 79.02 C 131.84 79.25 130.75 79.48 129.66 79.70 C 129.30 78.39 128.03 76.38 129.18 75.19 C 132.94 74.51 136.75 74.08 140.52 73.43 C 141.67 72.81 142.82 72.20 143.98 71.60 C 144.32 72.65 144.65 73.70 144.99 74.75 C 145.80 74.61 146.61 74.47 147.41 74.33 C 147.73 75.32 148.05 76.31 148.36 77.30 C 149.49 78.03 150.63 78.75 151.75 79.49 C 150.87 79.33 150.00 79.17 149.13 78.99 C 148.25 80.44 147.38 81.88 146.49 83.31 C 147.79 82.66 149.09 82.01 150.39 81.38 C 150.53 82.93 150.50 84.50 150.32 86.08 C 150.80 86.13 151.28 86.18 151.77 86.23 C 150.87 86.63 149.98 87.03 149.09 87.43 L 149.22 83.79 C 147.94 84.95 146.64 85.91 145.98 87.56 C 147.23 87.90 148.49 88.22 149.75 88.52 C 147.90 89.12 145.46 88.36 144.84 90.64 C 146.33 91.11 147.81 91.60 149.29 92.11 C 146.64 92.20 144.01 91.99 141.37 91.76 C 142.31 92.86 143.26 93.93 144.22 95.01 C 143.02 94.48 141.82 93.95 140.60 93.45 C 140.53 95.01 141.41 96.47 143.25 97.81 C 141.33 96.93 139.30 96.36 137.37 95.53 C 138.13 96.79 138.97 98.02 139.79 99.24 C 139.66 100.58 139.51 101.92 139.35 103.26 C 143.02 106.79 144.53 109.42 144.97 114.59 L 147.70 113.26 L 147.74 115.61 C 148.95 115.34 150.16 115.08 151.37 114.82 C 151.88 116.18 152.39 117.54 152.94 118.88 C 152.26 120.11 151.59 121.35 150.97 122.61 C 149.31 124.77 147.87 127.12 146.44 129.44 C 147.68 130.39 148.93 131.34 150.14 132.32 C 148.33 131.74 146.19 131.74 145.16 129.94 C 145.43 128.93 145.74 127.94 146.09 126.97 C 145.66 126.23 145.24 125.49 144.81 124.75 C 146.03 123.82 147.25 122.88 148.45 121.93 C 147.45 121.27 146.44 120.61 145.43 119.95 C 145.33 118.84 145.24 117.73 145.14 116.63 C 143.81 120.11 141.15 122.08 139.08 124.99 C 139.41 127.29 140.57 128.99 141.69 130.96 C 139.94 133.90 139.97 136.72 140.06 140.04 C 139.07 141.50 138.07 142.96 137.11 144.44 C 135.81 144.47 134.52 144.50 133.22 144.52 C 136.85 141.51 138.76 138.00 138.55 133.21 C 137.88 130.64 136.33 128.26 135.11 125.92 C 135.15 127.72 135.20 129.51 135.25 131.30 C 131.06 131.72 128.78 132.90 125.57 135.53 C 125.45 136.38 125.33 137.23 125.21 138.08 C 122.67 138.40 120.39 138.66 118.24 140.22 C 107.37 147.32 92.63 147.33 81.76 140.22 C 79.61 138.65 77.36 138.40 74.81 138.09 C 74.69 137.24 74.57 136.39 74.44 135.54 C 71.24 132.92 68.95 131.73 64.77 131.31 C 64.82 129.50 64.86 127.70 64.88 125.90 C 63.67 128.25 62.13 130.64 61.45 133.21 C 61.25 137.99 63.15 141.52 66.79 144.51 C 65.49 144.50 64.19 144.47 62.89 144.45 C 61.92 142.96 60.93 141.49 59.93 140.02 C 60.03 136.71 60.05 133.90 58.33 130.96 C 59.42 129.00 60.60 127.32 60.90 125.04 C 58.92 122.05 56.17 120.15 54.86 116.62 C 54.76 117.73 54.66 118.85 54.56 119.96 C 53.55 120.61 52.55 121.27 51.55 121.94 C 52.76 122.89 53.98 123.82 55.20 124.75 C 54.77 125.49 54.34 126.22 53.92 126.96 C 54.26 127.93 54.56 128.92 54.82 129.92 C 53.96 131.71 51.55 131.77 49.85 132.34 C 51.06 131.35 52.31 130.40 53.55 129.44 C 52.13 127.11 50.69 124.76 49.03 122.60 C 48.39 121.36 47.75 120.12 47.07 118.90 C 47.61 117.55 48.13 116.18 48.63 114.82 C 49.84 115.08 51.05 115.34 52.26 115.61 L 52.29 113.27 L 55.02 114.57 C 55.49 109.43 56.98 106.85 60.58 103.29 C 59.88 99.65 60.65 98.45 62.52 95.49 C 60.69 96.27 58.86 97.03 57.02 97.79 C 58.10 96.36 59.63 95.44 59.39 93.45 C 58.19 93.95 56.99 94.48 55.79 95.02 C 56.75 93.94 57.69 92.86 58.63 91.76 C 55.99 91.99 53.37 92.20 50.72 92.10 C 52.20 91.59 53.68 91.11 55.17 90.64 C 54.53 88.31 52.23 89.17 50.34 88.68 C 51.94 88.18 53.07 87.73 54.19 86.45 C 53.03 85.62 51.86 84.79 50.69 83.97 L 50.94 87.44 C 50.05 87.03 49.15 86.63 48.26 86.23 C 48.73 86.17 49.20 86.12 49.68 86.07 C 49.48 84.49 49.46 82.93 49.61 81.38 C 50.92 82.01 52.23 82.66 53.53 83.31 C 52.64 81.88 51.76 80.45 50.88 79.01 C 50.02 79.16 49.16 79.30 48.29 79.44 C 49.40 78.73 50.50 78.00 51.62 77.32 C 51.94 76.33 52.26 75.34 52.59 74.35 C 53.41 74.48 54.23 74.62 55.05 74.75 C 55.36 73.72 55.67 72.68 55.99 71.65 Z" fill="#312758"/>
<path d="M 100.00 78.03 C 107.29 77.83 113.90 80.46 119.85 84.49 C 118.54 87.37 117.49 90.27 116.91 93.40 C 112.19 89.17 106.44 86.48 100.00 86.58 C 93.56 86.48 87.78 89.17 83.07 93.43 C 82.52 90.29 81.47 87.38 80.15 84.48 C 86.10 80.46 92.71 77.82 100.00 78.03 Z" fill="#cf8a15"/>
<path d="M 98.53 80.27 C 98.65 81.67 98.72 83.06 98.79 84.46 C 97.68 84.67 96.57 84.88 95.46 85.09 C 96.43 84.37 97.40 83.65 98.38 82.94 C 97.14 82.68 95.91 82.42 94.68 82.14 C 96.11 80.50 96.40 80.37 98.53 80.27 Z" fill="#ffffff"/>
<path d="M 101.45 80.06 C 102.44 80.26 103.44 80.46 104.43 80.66 C 104.11 82.13 103.79 83.60 103.47 85.08 C 102.50 84.76 101.52 84.45 100.57 84.11 C 100.83 82.76 101.14 81.41 101.45 80.06 Z" fill="#ffffff"/>
<path d="M 92.55 80.84 C 94.02 81.40 93.88 83.98 93.85 85.28 C 92.80 84.53 90.30 81.51 92.55 80.84 Z" fill="#ffffff"/>
<path d="M 102.35 81.41 L 102.87 81.32 L 102.96 81.85 L 102.43 81.93 L 102.35 81.41 Z" fill="#cf8a15"/>
<path d="M 106.29 80.67 C 107.56 81.07 108.84 81.47 110.11 81.88 C 108.63 83.28 107.11 84.60 105.49 85.84 C 106.35 84.71 107.24 83.58 108.13 82.47 C 107.52 81.87 106.90 81.27 106.29 80.67 Z" fill="#ffffff"/>
<path d="M 102.02 83.15 L 102.54 83.07 L 102.62 83.59 L 102.10 83.67 L 102.02 83.15 Z" fill="#cf8a15"/>
<path d="M 78.01 86.18 C 80.51 86.83 80.16 91.82 78.54 93.56 C 79.30 94.33 80.06 95.11 80.83 95.88 C 77.24 100.97 75.25 106.74 75.83 113.02 C 76.56 123.25 84.23 132.23 94.18 134.66 C 99.01 135.94 103.58 135.20 108.38 134.24 C 107.87 136.55 106.95 138.23 108.86 140.17 C 109.72 141.42 111.84 139.98 112.97 139.80 C 112.00 138.06 111.64 137.19 109.52 136.65 C 110.14 137.50 110.77 138.35 111.40 139.19 L 109.88 139.83 C 109.39 138.87 108.89 137.91 108.40 136.95 C 109.29 136.44 110.18 135.93 111.07 135.42 C 110.43 135.00 109.79 134.58 109.15 134.17 L 108.85 133.98 C 112.71 131.81 116.34 129.62 119.06 126.04 C 126.05 117.24 125.83 104.80 119.18 95.88 C 119.94 95.11 120.71 94.33 121.47 93.55 C 119.37 90.54 120.24 88.72 121.38 85.60 C 123.86 90.12 124.31 94.92 124.33 99.99 C 124.71 105.12 130.17 108.04 131.36 111.95 C 130.49 113.96 129.02 115.84 128.47 117.96 C 128.55 120.07 129.42 122.23 130.08 124.24 C 126.75 131.79 120.76 137.90 113.18 141.22 C 103.32 145.57 91.29 144.69 82.26 138.76 C 76.77 135.24 72.56 130.17 69.92 124.23 C 70.59 122.22 71.43 120.07 71.56 117.96 C 71.05 115.76 69.48 113.75 68.33 111.84 C 70.73 107.80 75.94 103.97 75.73 99.04 C 75.60 94.58 76.51 90.36 78.01 86.18 Z" fill="#cf8a15"/>
<path d="M 105.99 89.17 C 108.64 90.00 111.23 90.78 113.00 93.05 C 106.40 89.24 99.07 87.80 91.80 90.73 C 87.59 92.23 85.25 95.44 81.76 97.91 C 86.87 90.08 97.07 86.67 105.99 89.17 Z" fill="#ffffff"/>
<path d="M 91.81 91.84 L 93.85 93.11 C 92.72 95.19 91.45 97.18 90.12 99.13 C 87.64 100.07 85.61 101.28 83.51 102.89 C 82.99 102.26 82.50 101.62 82.01 100.97 C 83.84 96.90 87.77 93.60 91.81 91.84 Z" fill="#ffffff"/>
<path d="M 108.10 91.95 C 112.19 93.88 115.71 96.67 117.75 100.79 L 116.30 102.63 C 114.28 101.11 112.30 99.96 109.95 99.01 C 108.76 97.26 107.60 95.49 106.53 93.65 C 107.04 93.07 107.56 92.51 108.10 91.95 Z" fill="#ffffff"/>
<path d="M 95.49 93.57 C 98.33 92.77 101.66 93.19 104.58 93.39 C 105.83 95.47 107.09 97.55 108.36 99.63 C 107.05 101.22 105.75 102.81 104.44 104.39 C 101.45 104.21 98.52 104.20 95.53 104.39 C 94.22 102.81 92.92 101.22 91.62 99.64 C 92.86 97.61 93.98 95.41 95.49 93.57 Z" fill="#ffffff"/>
<path d="M 113.00 93.05 C 115.47 93.93 116.83 95.84 118.25 97.91 C 116.18 96.63 114.53 94.93 113.00 93.05 Z" fill="#ffffff"/>
<path d="M 81.76 97.91 C 80.51 101.93 78.53 105.08 79.00 109.55 C 79.73 107.09 80.37 104.61 81.08 102.14 C 81.68 102.78 82.24 103.43 82.78 104.11 C 83.16 108.75 83.08 113.23 80.73 117.39 C 79.99 115.55 79.41 113.66 78.82 111.77 C 79.14 114.63 78.89 117.19 80.15 119.79 C 81.91 123.93 84.97 126.56 87.90 129.82 C 83.34 127.40 80.10 122.59 78.57 117.77 C 78.25 114.18 78.79 110.56 78.46 106.95 C 78.09 103.51 79.85 100.60 81.76 97.91 Z" fill="#ffffff"/>
<path d="M 118.25 97.91 C 121.20 101.64 122.05 105.59 121.99 110.32 C 121.29 105.94 119.66 102.06 118.25 97.91 Z" fill="#ffffff"/>
<path d="M 118.96 102.22 C 120.89 107.69 121.12 111.62 119.94 117.32 C 116.17 113.95 117.26 108.54 117.10 104.01 C 117.71 103.41 118.33 102.81 118.96 102.22 Z" fill="#ffffff"/>
<path d="M 96.03 106.01 C 98.62 105.50 101.39 105.46 103.99 105.96 C 105.86 107.97 107.01 110.71 108.38 113.07 C 107.09 115.78 105.62 118.20 103.79 120.58 C 101.26 120.58 98.73 120.58 96.20 120.58 C 94.34 118.20 92.88 115.78 91.59 113.06 C 92.98 110.79 94.08 107.83 96.03 106.01 Z" fill="#ffffff"/>
<path d="M 84.01 113.20 C 86.10 113.17 88.25 113.44 90.33 113.62 C 91.65 116.45 93.15 118.96 95.06 121.42 C 94.42 123.08 93.77 124.73 93.11 126.38 C 90.94 126.15 88.99 126.21 87.04 125.12 C 82.84 122.64 80.73 117.42 84.01 113.20 Z" fill="#ffffff"/>
<path d="M 109.72 113.78 C 111.80 113.32 113.98 113.25 116.10 113.03 C 117.17 115.80 118.49 117.90 116.82 120.84 C 114.95 125.05 111.23 126.31 106.87 126.40 C 106.21 124.74 105.56 123.08 104.93 121.41 C 106.83 119.03 108.15 116.36 109.72 113.78 Z" fill="#ffffff"/>
<path d="M 122.54 111.87 C 122.14 118.31 118.78 125.94 112.93 129.17 C 114.21 127.14 116.29 125.59 117.66 123.58 C 120.38 119.94 120.92 116.04 122.54 111.87 Z" fill="#ffffff"/>
<path d="M 68.96 126.32 C 70.26 128.30 71.53 130.28 72.76 132.29 C 71.28 131.40 69.80 130.52 68.38 129.54 C 68.55 128.46 68.75 127.39 68.96 126.32 Z" fill="#ffffff"/>
<path d="M 86.62 126.53 C 88.03 126.73 89.43 126.94 90.84 127.18 C 94.24 127.79 97.23 129.51 99.79 131.79 C 96.05 131.52 92.56 130.70 89.30 128.84 C 88.39 128.09 87.50 127.32 86.62 126.53 Z" fill="#ffffff"/>
<path d="M 113.38 126.57 C 109.71 130.10 105.24 131.51 100.21 131.79 C 103.91 128.22 108.37 126.95 113.38 126.57 Z" fill="#ffffff"/>
<path d="M 131.04 126.32 C 131.25 127.39 131.46 128.46 131.63 129.54 C 130.19 130.52 128.71 131.41 127.22 132.29 C 127.87 131.24 128.53 130.20 129.20 129.16 C 129.81 128.21 130.42 127.27 131.04 126.32 Z" fill="#ffffff"/>
<path d="M 80.56 128.37 C 81.29 129.13 81.98 129.93 82.65 130.76 C 81.43 132.12 80.23 133.49 79.01 134.85 C 78.12 133.28 76.68 132.30 77.24 130.34 C 78.15 129.29 79.07 128.32 80.56 128.37 Z" fill="#ffffff"/>
<path d="M 87.90 129.82 L 88.12 129.38 L 88.31 130.07 L 87.90 129.82 Z" fill="#ffffff"/>
<path d="M 112.93 129.17 L 112.70 129.43 L 112.93 129.17 Z" fill="#312758"/>
<path d="M 118.68 128.28 L 119.12 129.08 C 120.13 131.41 121.14 131.69 123.33 132.72 C 122.26 132.67 121.20 132.61 120.14 132.56 L 120.90 135.37 C 119.38 133.77 117.90 132.14 116.43 130.49 L 118.95 130.97 L 118.68 128.28 Z" fill="#ffffff"/>
<path d="M 79.37 130.14 C 82.29 129.03 80.11 133.26 78.43 132.05 C 78.18 131.35 78.49 130.71 79.37 130.14 Z" fill="#cf8a15"/>
<path d="M 89.17 130.29 L 89.70 130.18 L 89.81 130.70 L 89.28 130.82 L 89.17 130.29 Z" fill="#ffffff"/>
<path d="M 110.63 130.08 L 111.13 129.87 L 111.32 130.37 L 110.83 130.58 L 110.63 130.08 Z" fill="#ffffff"/>
<path d="M 91.66 131.43 C 91.81 131.63 91.81 131.63 91.66 131.43 Z" fill="#ffffff"/>
<path d="M 108.18 131.29 L 108.70 131.17 L 108.82 131.69 L 108.29 131.81 L 108.18 131.29 Z" fill="#ffffff"/>
<path d="M 85.94 131.94 C 85.66 133.67 85.34 135.38 84.79 137.05 C 84.06 139.75 83.47 136.46 83.23 135.63 L 80.17 135.95 C 82.00 134.47 83.90 133.10 85.94 131.94 Z" fill="#ffffff"/>
<path d="M 93.29 132.14 C 94.59 131.41 95.35 131.69 95.58 132.97 L 93.69 133.30 L 93.23 132.72 L 93.29 132.14 Z" fill="#ffffff"/>
<path d="M 104.49 131.60 C 105.73 131.60 106.34 132.03 106.32 132.90 C 105.15 134.27 103.83 133.03 104.49 131.60 Z" fill="#312758"/>
<path d="M 116.61 131.24 C 115.85 132.45 115.07 133.64 114.28 134.81 L 118.29 133.53 C 117.46 134.25 116.62 134.97 115.79 135.68 C 116.08 136.64 116.36 137.61 116.63 138.57 C 115.42 137.11 114.28 135.59 113.32 133.95 L 113.56 133.38 C 114.57 132.66 115.59 131.95 116.61 131.24 Z" fill="#ffffff"/>
<path d="M 96.12 132.89 C 97.82 132.49 99.61 132.39 101.50 132.60 C 101.95 132.93 102.39 133.28 102.80 133.66 C 100.57 133.79 98.15 133.99 96.12 132.89 Z" fill="#ffffff"/>
<path d="M 64.34 133.85 C 65.15 134.16 65.97 134.46 66.79 134.74 C 67.54 134.28 68.27 133.81 69.00 133.33 C 69.17 135.81 69.57 136.43 71.18 138.16 C 70.33 138.32 69.48 138.49 68.63 138.66 C 68.32 139.49 68.00 140.32 67.69 141.15 C 66.35 139.74 65.56 139.17 63.55 138.81 C 64.43 136.97 64.60 135.90 64.34 133.85 Z" fill="#cf8a15"/>
<path d="M 88.31 134.19 C 89.42 134.69 90.45 135.27 91.52 135.85 C 90.78 137.63 90.06 139.42 89.36 141.22 C 89.12 139.98 88.89 138.74 88.65 137.49 C 87.67 138.21 86.70 138.93 85.72 139.64 C 86.53 137.80 87.30 135.93 88.31 134.19 Z" fill="#ffffff"/>
<path d="M 108.38 134.24 L 108.85 133.98 L 109.15 134.17 C 109.79 134.58 110.43 135.00 111.07 135.42 C 110.18 135.93 109.29 136.44 108.40 136.95 C 108.89 137.91 109.39 138.87 109.88 139.83 L 111.40 139.19 C 110.77 138.35 110.14 137.50 109.52 136.65 C 111.64 137.19 112.00 138.06 112.97 139.80 C 111.84 139.98 109.72 141.42 108.86 140.17 C 106.95 138.23 107.87 136.55 108.38 134.24 Z" fill="#ffffff"/>
<path d="M 130.69 133.17 C 131.46 133.73 132.24 134.29 133.01 134.86 C 133.90 134.48 134.79 134.11 135.68 133.73 C 135.46 134.70 135.25 135.66 135.03 136.63 C 135.54 137.32 136.06 138.02 136.57 138.72 C 134.28 139.12 133.51 139.59 131.95 141.19 C 131.73 140.38 131.50 139.56 131.28 138.75 C 130.30 138.49 129.33 138.23 128.36 137.97 C 129.10 137.41 129.84 136.85 130.59 136.28 C 130.62 135.24 130.65 134.20 130.69 133.17 Z" fill="#cf8a15"/>
<path d="M 88.48 136.05 L 89.20 135.65 L 89.95 136.06 L 89.99 136.86 L 89.27 137.26 L 88.52 136.86 L 88.48 136.05 Z" fill="#cf8a15"/>
<path d="M 94.96 135.81 C 95.34 138.05 95.57 140.30 95.82 142.56 C 95.05 141.80 94.28 141.05 93.51 140.29 C 92.59 140.75 91.66 141.21 90.74 141.66 C 92.02 139.62 93.38 137.63 94.96 135.81 Z" fill="#ffffff"/>
<path d="M 97.73 136.57 C 100.11 136.76 101.56 137.66 102.08 139.29 L 98.84 137.50 L 98.64 138.75 C 101.72 139.16 102.22 140.25 100.37 142.96 C 100.22 141.96 100.08 140.95 99.95 139.95 C 99.18 140.72 98.42 141.49 97.63 142.23 C 97.65 140.35 97.68 138.46 97.73 136.57 Z" fill="#ffffff"/>
<path d="M 104.79 136.31 C 105.77 138.24 106.75 140.17 107.70 142.11 C 106.82 141.58 105.94 141.04 105.07 140.50 C 104.40 141.24 103.73 141.98 103.06 142.72 L 103.20 139.35 L 105.80 139.37 C 104.87 138.99 103.94 138.60 103.01 138.22 L 104.79 136.31 Z" fill="#ffffff"/>
<path d="M 125.66 138.85 C 127.01 139.89 127.94 140.36 129.63 140.68 C 128.88 142.19 128.62 142.99 128.92 144.74 C 127.24 144.62 126.29 144.87 124.85 145.66 C 124.44 144.07 123.91 143.03 122.91 141.75 C 123.50 141.42 124.09 141.08 124.67 140.73 C 125.01 140.11 125.34 139.48 125.66 138.85 Z" fill="#cf8a15"/>
<path d="M 74.00 138.88 C 74.80 140.19 75.63 141.02 76.91 141.86 C 75.91 143.02 75.35 144.03 74.94 145.52 C 73.64 144.87 72.27 144.64 70.84 144.85 C 71.05 143.45 70.87 142.07 70.29 140.73 C 71.67 140.41 72.90 139.80 74.00 138.88 Z" fill="#cf8a15"/>
<path d="M 80.22 144.27 C 81.06 145.10 81.89 145.92 82.73 146.75 C 82.23 147.88 81.71 148.99 81.17 150.10 C 79.99 149.82 78.77 149.65 77.53 149.60 C 77.33 148.38 77.17 147.15 77.05 145.92 C 78.10 145.35 79.15 144.79 80.22 144.27 Z" fill="#cf8a15"/>
<path d="M 119.60 144.23 C 120.75 144.81 121.89 145.42 123.02 146.04 C 122.68 146.61 122.35 147.17 122.01 147.74 C 122.21 148.37 122.41 149.01 122.61 149.64 C 121.21 149.63 119.90 149.72 118.53 150.01 C 118.05 148.96 117.61 147.89 117.20 146.81 C 117.95 145.91 118.75 145.05 119.60 144.23 Z" fill="#cf8a15"/>
<path d="M 69.60 146.65 C 70.74 146.79 71.87 147.11 73.01 147.30 C 72.93 148.65 73.08 149.74 73.51 151.01 C 72.25 151.39 71.14 151.88 70.02 152.57 C 69.22 151.55 68.40 150.54 67.60 149.52 C 68.24 148.56 68.87 147.54 69.60 146.65 Z" fill="#cf8a15"/>
<path d="M 130.25 146.18 C 130.91 147.33 131.56 148.47 132.24 149.60 C 131.28 150.41 130.54 151.27 129.86 152.34 C 128.66 151.74 127.45 151.21 126.20 150.75 C 126.52 150.18 126.85 149.61 127.18 149.04 C 126.95 148.40 126.72 147.77 126.49 147.14 C 127.20 147.14 127.92 147.14 128.63 147.12 C 129.18 146.82 129.72 146.50 130.25 146.18 Z" fill="#cf8a15"/>
<path d="M 84.58 149.73 C 85.19 150.06 85.80 150.38 86.42 150.69 C 87.15 150.54 87.88 150.37 88.61 150.19 C 88.50 151.97 88.81 153.05 89.54 154.64 C 88.76 154.66 87.97 154.68 87.18 154.71 C 86.82 155.38 86.46 156.06 86.10 156.74 C 85.13 155.41 84.34 154.50 82.87 153.72 C 83.68 152.44 84.20 151.21 84.58 149.73 Z" fill="#cf8a15"/>
<path d="M 111.06 150.37 C 112.64 150.52 113.82 150.39 115.31 149.86 C 115.60 151.34 116.09 152.47 116.91 153.72 C 115.50 154.50 114.85 155.15 113.93 156.46 C 112.72 155.26 111.84 154.78 110.17 154.32 C 110.52 153.84 110.86 153.37 111.20 152.89 C 111.16 152.05 111.12 151.21 111.06 150.37 Z" fill="#cf8a15"/>
<path d="M 79.54 151.05 C 79.62 152.15 79.70 153.25 79.79 154.35 C 79.00 154.82 78.21 155.28 77.42 155.75 C 76.64 155.01 75.85 154.27 75.05 153.53 C 76.40 151.11 76.91 151.31 79.54 151.05 Z" fill="#cf8a15"/>
<path d="M 95.97 150.78 C 96.69 151.74 97.41 152.69 98.13 153.64 C 97.53 154.67 96.89 155.67 96.25 156.67 C 95.22 156.32 94.19 155.97 93.16 155.61 C 93.01 154.54 92.84 153.47 92.65 152.41 C 93.76 151.87 94.87 151.34 95.97 150.78 Z" fill="#cf8a15"/>
<path d="M 103.88 150.92 C 104.90 151.33 105.89 151.82 106.85 152.37 C 106.95 153.44 106.97 154.53 106.89 155.63 C 105.77 155.97 104.65 156.34 103.53 156.69 C 102.99 155.59 102.20 154.65 101.61 153.57 C 102.35 152.67 103.10 151.78 103.88 150.92 Z" fill="#cf8a15"/>
<path d="M 120.26 151.34 C 121.26 151.25 122.26 151.20 123.28 151.20 C 123.77 151.95 124.25 152.71 124.72 153.47 C 123.93 154.26 123.14 155.06 122.36 155.85 C 121.63 155.35 120.91 154.85 120.20 154.34 C 120.18 153.33 120.20 152.33 120.26 151.34 Z" fill="#cf8a15"/>
<path d="M 89.06 157.33 C 89.98 157.34 90.90 157.36 91.82 157.39 C 92.09 158.46 92.35 159.54 92.62 160.62 C 91.69 161.02 90.75 161.43 89.81 161.85 C 89.08 161.13 88.35 160.41 87.62 159.70 C 88.09 158.91 88.56 158.11 89.06 157.33 Z" fill="#cf8a15"/>
<path d="M 107.88 157.58 C 108.83 157.41 109.79 157.27 110.75 157.16 C 111.21 158.06 111.68 158.96 112.16 159.84 C 111.41 160.52 110.67 161.18 109.93 161.85 C 109.03 161.44 108.13 161.03 107.23 160.62 C 107.43 159.61 107.60 158.57 107.88 157.58 Z" fill="#cf8a15"/>
<path d="M 97.58 158.67 C 98.03 159.25 98.40 159.90 98.77 160.53 C 98.31 161.26 97.85 161.97 97.37 162.69 C 96.71 162.37 96.04 162.06 95.37 161.74 C 95.27 160.89 95.17 160.04 95.07 159.19 C 95.90 158.99 96.74 158.82 97.58 158.67 Z" fill="#cf8a15"/>
<path d="M 102.23 158.41 C 102.97 158.69 103.71 158.98 104.44 159.29 C 104.56 160.06 104.67 160.84 104.78 161.61 C 103.99 161.97 103.20 162.33 102.41 162.68 C 102.00 161.99 101.60 161.28 101.21 160.58 C 101.53 159.85 101.87 159.13 102.23 158.41 Z" fill="#cf8a15"/>
<path d="M 101.77 164.79 C 101.44 165.70 101.11 166.60 100.78 167.51 C 100.08 167.48 99.38 167.45 98.68 167.42 C 98.56 166.55 98.44 165.69 98.33 164.83 C 99.47 164.75 100.62 164.76 101.77 164.79 Z" fill="#cf8a15"/>
</svg>
