<?xml version="1.0" encoding="UTF-8" standalone="no"?>
<!DOCTYPE svg PUBLIC "-//W3C//DTD SVG 1.1//EN" "http://www.w3.org/Graphics/SVG/1.1/DTD/svg11.dtd">
<svg xmlns="http://www.w3.org/2000/svg" version="1.1" viewBox="0 0 200 200" width="200.0pt" height="200.0pt">
<path d="M 0.00 0.00 L 95.33 0.00 C 87.78 1.27 80.37 1.81 72.98 4.00 C 56.36 8.66 41.03 17.60 29.03 30.02 C 16.54 42.32 7.64 58.30 3.29 75.24 C 1.73 81.17 1.24 87.20 0.00 93.20 L 0.00 0.00 Z" opacity="0" />
<path d="M 95.33 0.00 L 105.23 0.00 L 106.58 0.23 L 107.30 0.35 C 120.48 1.81 133.29 4.83 145.14 10.94 C 171.52 24.14 191.30 49.36 197.58 78.21 C 198.61 82.98 199.12 87.80 200.00 92.59 L 200.00 108.22 C 198.90 113.85 198.41 119.42 196.93 124.98 C 192.38 143.22 182.46 159.92 168.84 172.86 C 156.74 184.19 142.02 192.63 125.93 196.79 C 120.39 198.26 114.78 199.02 109.14 200.00 L 90.68 200.00 C 84.62 198.78 78.58 198.18 72.64 196.35 C 55.83 191.58 40.36 182.36 28.27 169.73 C 16.53 157.80 8.04 142.64 3.65 126.51 C 1.85 120.05 1.20 113.74 0.00 107.09 L 0.00 93.20 C 1.24 87.20 1.73 81.17 3.29 75.24 C 7.64 58.30 16.54 42.32 29.03 30.02 C 41.03 17.60 56.36 8.66 72.98 4.00 C 80.37 1.81 87.78 1.27 95.33 0.00 Z" fill="#ed1c24"/>
<path d="M 105.23 0.00 L 200.00 0.00 L 200.00 92.59 C 199.12 87.80 198.61 82.98 197.58 78.21 C 191.30 49.36 171.52 24.14 145.14 10.94 C 133.29 4.83 120.48 1.81 107.30 0.35 L 106.58 0.23 L 105.23 0.00 Z" opacity="0" />
<path d="M 87.21 2.20 C 100.72 0.41 114.68 1.48 127.77 5.27 C 158.08 13.87 183.27 37.79 193.47 67.58 C 200.37 87.42 200.74 109.43 194.59 129.50 C 189.90 144.72 181.41 158.88 170.05 170.05 C 154.50 185.98 133.13 196.15 111.01 198.47 C 96.96 200.22 82.43 198.43 68.98 194.14 C 48.14 187.31 29.97 173.35 17.79 155.14 C 0.70 129.76 -3.40 96.66 6.64 67.78 C 13.25 48.43 26.13 31.61 42.68 19.68 C 55.80 10.29 71.20 4.26 87.21 2.20 Z" fill="#ffffff"/>
<path d="M 87.21 4.20 C 113.62 0.58 141.11 8.27 161.64 25.31 C 174.91 36.23 185.32 50.79 191.15 66.97 C 198.95 88.31 198.93 112.64 190.96 133.93 C 180.64 162.36 156.30 185.00 127.22 193.30 C 108.90 198.55 88.57 198.31 70.41 192.52 C 52.82 186.91 36.88 176.09 25.22 161.78 C 3.84 136.24 -2.42 99.85 8.54 68.49 C 14.59 50.59 26.25 34.73 41.19 23.22 C 54.55 13.03 70.53 6.34 87.21 4.20 Z" fill="#ed1c24"/>
<path d="M 93.14 6.86 C 96.88 6.86 100.63 6.86 104.37 6.87 C 104.44 11.47 104.44 16.07 104.42 20.67 L 101.59 20.67 C 101.60 16.89 101.60 13.12 101.61 9.34 C 99.70 9.35 97.80 9.36 95.89 9.37 C 95.89 13.14 95.89 16.90 95.91 20.66 C 94.98 20.66 94.05 20.66 93.12 20.66 C 93.15 16.06 93.15 11.46 93.14 6.86 Z" fill="#ffffff"/>
<path d="M 84.87 7.07 C 86.66 11.66 88.07 16.40 89.59 21.08 C 88.69 21.38 87.78 21.68 86.88 21.97 C 85.97 19.15 85.03 16.34 84.07 13.54 C 83.01 15.56 81.94 17.58 80.83 19.57 C 78.90 18.16 76.99 16.74 75.09 15.30 C 75.54 18.38 75.98 21.46 76.44 24.54 L 73.61 24.70 C 72.90 19.68 72.04 14.68 71.61 9.62 C 74.48 11.37 77.19 13.36 79.85 15.41 C 81.37 12.39 82.34 9.39 84.87 7.07 Z" fill="#ffffff"/>
<path d="M 110.91 7.95 L 113.65 7.23 C 112.99 11.82 112.63 16.48 111.68 21.02 C 110.77 21.24 109.86 21.45 108.94 21.63 C 109.56 17.09 109.80 12.39 110.91 7.95 Z" fill="#ffffff"/>
<path d="M 124.97 9.07 C 125.82 14.23 126.56 19.40 127.42 24.55 C 126.55 24.71 125.68 24.87 124.81 25.03 C 124.50 24.11 124.19 23.19 123.88 22.26 C 122.21 21.82 120.53 21.37 118.86 20.91 C 118.21 21.63 117.57 22.34 116.93 23.06 C 116.23 22.37 115.52 21.68 114.82 20.99 C 118.21 16.99 121.31 12.84 124.97 9.07 Z" fill="#ffffff"/>
<path d="M 64.18 13.73 C 65.06 13.38 65.95 13.05 66.86 12.74 C 66.64 15.23 66.28 17.72 66.13 20.22 C 65.85 22.71 67.24 24.99 68.13 27.24 C 67.33 27.64 66.53 28.05 65.73 28.46 C 64.84 26.72 64.07 24.76 62.84 23.24 C 60.92 21.43 58.42 20.21 56.40 18.51 C 56.59 17.57 56.82 16.63 57.09 15.71 C 59.20 17.05 61.26 18.47 63.29 19.93 C 63.54 17.87 63.68 15.75 64.18 13.73 Z" fill="#ffffff"/>
<path d="M 135.17 13.51 C 136.04 13.94 136.92 14.36 137.80 14.78 C 137.22 16.04 136.64 17.30 136.07 18.56 C 138.04 17.91 140.01 17.26 141.99 16.61 C 142.99 17.12 144.00 17.62 145.01 18.13 C 142.45 19.07 139.88 19.97 137.32 20.89 C 138.48 24.49 139.62 28.10 140.55 31.77 C 139.42 31.15 138.34 30.48 137.31 29.74 C 135.97 27.26 135.42 24.29 134.57 21.61 C 133.66 23.57 132.73 25.53 131.80 27.48 C 130.95 27.03 130.10 26.57 129.24 26.12 C 131.19 21.90 133.21 17.72 135.17 13.51 Z" fill="#ffffff"/>
<path d="M 122.94 16.17 C 123.74 16.70 123.98 17.69 123.67 19.14 C 122.55 19.42 121.55 19.17 120.68 18.40 C 121.20 17.02 121.95 16.28 122.94 16.17 Z" fill="#ed1c24"/>
<path d="M 48.15 21.41 C 52.91 23.37 56.96 27.01 61.36 29.69 C 60.81 30.48 60.26 31.28 59.71 32.07 C 57.13 30.36 54.55 28.63 51.93 26.96 C 52.51 29.99 53.09 33.02 53.67 36.04 L 50.80 36.62 C 50.01 31.53 48.75 26.51 48.15 21.41 Z" fill="#ffffff"/>
<path d="M 147.41 22.54 C 151.37 21.72 155.23 23.34 156.90 27.11 C 158.50 30.84 156.58 35.18 152.86 36.64 C 148.28 38.54 142.48 34.90 142.18 29.97 C 141.86 26.78 144.35 23.36 147.41 22.54 Z" fill="#ffffff"/>
<path d="M 94.25 24.66 C 110.34 23.44 126.44 27.28 140.09 35.90 C 154.23 44.67 165.36 58.25 171.16 73.85 C 177.32 90.29 177.49 108.97 171.56 125.50 C 166.56 139.71 157.19 152.19 145.11 161.15 C 131.66 171.19 114.97 176.40 98.21 176.11 C 85.82 175.63 73.60 172.33 62.81 166.18 C 45.85 156.59 32.85 140.36 27.38 121.64 C 24.09 110.65 23.59 99.38 25.06 88.05 C 25.60 88.66 26.15 89.27 26.69 89.89 C 22.74 115.51 33.48 142.19 53.75 158.25 C 67.98 169.57 85.84 175.31 104.02 174.36 C 105.87 174.14 108.78 174.45 109.95 172.76 C 108.12 172.18 105.91 172.73 103.99 172.76 C 81.58 174.11 59.27 164.30 44.79 147.20 C 32.76 133.14 26.42 114.47 27.55 95.99 C 28.48 81.67 33.51 67.72 42.32 56.36 C 51.72 43.89 65.22 34.72 80.21 30.39 C 94.79 26.20 110.79 26.75 125.02 32.03 C 140.19 37.53 153.37 48.43 161.87 62.12 C 167.61 71.21 170.81 81.31 172.48 91.89 C 172.85 90.31 173.36 88.88 173.15 87.23 C 169.73 67.06 157.45 48.80 140.24 37.78 C 125.88 28.51 107.89 24.23 90.94 26.69 C 90.29 26.14 89.64 25.60 88.99 25.05 C 90.75 24.91 92.50 24.78 94.25 24.66 Z" fill="#ffffff"/>
<path d="M 147.55 25.64 C 151.52 23.59 156.80 28.75 153.53 32.53 C 150.87 36.20 144.94 33.32 145.12 29.18 C 145.38 27.64 146.20 26.44 147.55 25.64 Z" fill="#ed1c24"/>
<path d="M 83.97 26.14 C 85.34 25.83 86.71 25.51 88.08 25.20 C 88.68 25.74 89.28 26.29 89.89 26.84 C 74.74 28.53 60.28 35.89 49.15 46.18 C 37.27 57.55 29.09 72.57 26.83 88.93 C 26.31 88.31 25.79 87.69 25.27 87.07 C 27.65 75.78 31.85 65.08 38.77 55.78 C 49.54 40.74 65.96 30.14 83.97 26.14 Z" fill="#ffffff"/>
<path d="M 36.45 31.48 C 39.65 29.73 43.47 30.41 45.72 33.30 C 48.53 36.90 47.34 42.15 43.46 44.42 C 40.46 46.34 37.02 46.04 34.45 43.55 C 30.59 40.14 32.07 33.70 36.45 31.48 Z" fill="#ffffff"/>
<path d="M 162.50 30.94 C 164.81 33.13 167.05 35.40 169.28 37.68 C 168.62 38.30 167.97 38.93 167.32 39.55 C 166.15 38.39 164.98 37.23 163.81 36.07 C 163.63 37.56 163.45 39.05 163.27 40.54 C 161.50 40.98 159.72 41.41 157.94 41.83 C 159.11 43.10 160.27 44.38 161.43 45.66 C 160.73 46.27 160.03 46.88 159.33 47.49 C 157.05 45.20 154.76 42.93 152.52 40.60 C 155.07 39.58 157.70 38.85 160.38 38.24 C 160.92 35.75 161.53 33.30 162.50 30.94 Z" fill="#ffffff"/>
<path d="M 39.37 33.42 C 41.62 33.08 43.55 34.99 44.36 36.92 C 44.90 41.03 39.91 44.72 36.56 41.45 C 33.49 38.49 35.71 34.34 39.37 33.42 Z" fill="#ed1c24"/>
<path d="M 108.02 40.02 C 114.52 38.45 121.92 39.71 127.39 43.62 C 130.21 45.60 131.75 48.49 134.12 50.83 C 137.39 52.86 140.77 53.51 143.14 56.89 C 144.97 59.85 145.82 63.19 148.10 65.92 C 150.07 68.26 150.33 70.77 150.57 73.71 C 153.75 74.37 156.78 75.28 159.73 76.66 C 157.99 81.43 155.36 84.99 151.71 88.44 C 155.14 89.13 158.41 89.72 161.44 91.58 C 164.22 93.16 165.94 95.51 167.86 97.98 C 163.06 100.93 158.10 103.08 152.35 101.70 C 156.84 105.82 159.24 111.68 159.61 117.70 C 154.15 119.77 148.58 115.90 144.52 112.58 C 143.66 114.57 142.80 116.56 141.91 118.53 C 137.20 115.93 134.71 113.53 132.10 108.81 C 130.09 111.54 127.97 113.67 125.26 115.73 C 121.43 110.03 118.82 104.16 119.75 97.11 C 116.27 99.80 110.84 103.74 106.28 101.90 C 105.21 102.95 104.14 104.06 102.96 104.98 C 100.91 100.97 99.06 96.84 97.41 92.65 C 95.87 97.32 94.55 101.63 90.20 104.46 C 87.71 98.93 84.87 93.72 83.43 87.78 C 81.29 90.02 79.33 92.15 76.49 93.53 C 71.62 96.02 66.69 96.28 61.34 96.74 C 61.96 93.06 62.97 89.62 64.31 86.15 C 62.77 87.92 61.23 89.70 59.70 91.49 C 59.42 95.43 58.34 99.21 57.81 103.11 C 58.11 104.72 59.78 106.04 61.21 106.70 C 64.05 106.72 66.99 105.38 69.76 104.73 C 74.73 103.48 79.56 101.81 84.47 100.33 L 84.26 103.15 C 81.48 106.23 77.32 108.19 74.04 110.73 C 70.39 110.09 66.75 109.45 63.08 108.98 C 62.01 115.76 61.99 122.51 62.04 129.35 C 65.14 128.41 68.27 127.56 71.40 126.73 C 71.72 129.26 71.99 131.80 72.30 134.34 C 73.50 134.87 74.70 135.40 75.90 135.94 C 75.83 137.40 75.77 138.86 75.71 140.32 C 77.25 140.90 78.79 141.49 80.33 142.07 C 80.67 144.79 80.67 147.48 80.48 150.22 C 81.73 150.92 82.99 151.61 84.26 152.31 C 89.26 147.96 93.80 143.16 98.30 138.30 C 99.53 136.85 100.19 137.10 102.00 137.20 C 100.75 139.42 99.39 141.57 98.04 143.74 C 100.07 145.93 102.06 148.14 104.01 150.40 C 101.45 156.58 98.11 162.21 94.05 167.51 C 93.40 166.70 92.75 165.88 92.10 165.07 C 95.21 160.63 98.16 156.13 100.47 151.21 C 98.91 149.29 97.34 147.39 95.74 145.51 C 92.10 149.07 88.31 152.46 84.74 156.09 C 82.38 155.01 79.70 154.05 77.66 152.41 C 76.81 150.16 77.32 147.06 77.16 144.62 C 75.93 143.96 74.63 143.36 73.50 142.54 C 72.98 141.21 73.14 139.59 73.02 138.18 C 71.90 137.76 70.77 137.34 69.65 136.92 C 69.30 135.12 68.95 133.32 68.59 131.52 C 65.40 132.16 62.21 132.63 58.96 132.83 C 58.99 125.18 59.33 117.51 59.59 109.86 C 57.78 108.33 55.55 106.74 54.33 104.68 C 54.20 100.98 55.63 97.14 56.47 93.56 C 52.85 94.51 48.73 95.92 44.97 95.56 C 41.88 95.18 38.81 93.92 35.86 92.94 C 39.13 89.47 42.79 86.67 46.83 84.17 C 43.05 83.08 39.51 82.26 36.69 79.30 C 34.97 77.58 34.50 75.48 33.73 73.26 C 38.43 71.71 43.06 71.35 47.98 71.54 C 46.42 68.64 45.50 66.03 45.01 62.76 C 50.68 62.17 55.99 63.93 61.69 63.90 C 60.95 59.06 60.43 54.23 60.73 49.32 C 64.30 50.07 67.61 51.15 70.96 52.58 C 74.78 49.02 77.90 47.77 83.02 46.92 C 85.38 44.47 87.79 42.31 91.19 41.47 C 96.87 39.64 102.35 41.66 108.02 40.02 Z" fill="#ed1c24"/>
<path d="M 20.92 50.16 C 22.47 52.49 23.85 54.91 25.21 57.34 C 27.73 57.16 30.26 56.97 32.78 56.81 C 31.93 58.58 31.08 60.38 30.13 62.10 C 29.16 63.54 28.95 65.05 26.88 64.94 C 27.61 62.75 28.72 60.77 29.87 58.78 C 27.97 59.03 26.06 59.25 24.14 59.47 C 23.04 57.56 21.95 55.64 20.88 53.72 C 19.31 56.04 18.89 58.48 15.88 59.26 C 17.24 56.06 18.99 53.05 20.92 50.16 Z" fill="#ffffff"/>
<path d="M 177.19 49.98 C 180.48 51.30 181.75 55.53 183.45 58.40 C 180.62 58.45 177.78 58.47 174.95 58.52 C 173.87 60.80 172.69 62.99 171.34 65.11 C 169.71 62.46 168.18 59.75 166.68 57.01 L 168.19 56.16 C 169.21 57.94 170.22 59.72 171.24 61.49 C 172.12 59.79 173.00 58.08 173.88 56.36 C 176.09 56.55 178.30 56.72 180.51 56.89 C 179.31 54.63 178.15 52.36 177.19 49.98 Z" fill="#ffffff"/>
<path d="M 81.47 51.28 C 85.57 54.95 88.64 59.28 88.61 65.00 C 88.82 68.50 87.35 71.29 85.88 74.34 C 81.59 71.26 79.19 66.22 78.91 61.02 C 78.80 57.43 80.12 54.50 81.47 51.28 Z" fill="#ffffff"/>
<path d="M 63.26 52.61 C 64.25 53.01 65.23 53.41 66.22 53.81 C 69.10 55.14 72.82 56.63 74.74 59.26 C 77.04 63.51 77.70 68.41 76.50 73.11 C 72.01 70.87 68.13 67.81 65.57 63.42 C 63.57 60.08 63.52 56.38 63.26 52.61 Z" fill="#ffffff"/>
<path d="M 109.67 58.59 C 108.29 64.75 104.66 70.02 98.76 72.53 C 96.16 73.19 93.24 72.86 90.58 72.88 C 91.75 69.98 92.73 67.27 95.11 65.10 C 99.21 61.25 104.26 59.64 109.67 58.59 Z" fill="#ffffff"/>
<path d="M 126.00 61.40 C 126.34 65.42 126.88 69.02 124.72 72.67 C 121.56 78.13 116.45 79.86 110.84 81.78 C 113.88 79.70 117.33 77.60 119.84 74.88 C 121.78 72.80 122.58 70.36 123.64 67.78 C 122.22 67.26 120.80 66.74 119.38 66.21 C 121.46 64.34 123.58 62.80 126.00 61.40 Z" fill="#ffffff"/>
<path d="M 184.61 62.30 C 186.18 64.26 187.11 66.33 187.85 68.72 C 185.30 68.41 183.22 67.10 180.85 66.29 C 177.62 65.60 174.85 70.12 176.07 72.93 C 176.91 76.09 180.54 78.69 183.61 76.62 C 185.47 74.69 186.52 71.96 188.05 69.76 C 188.84 71.99 189.57 74.24 190.28 76.49 C 189.37 75.88 188.44 75.29 187.50 74.73 C 186.45 76.22 185.65 78.12 183.85 78.83 C 180.00 80.59 175.46 77.70 174.39 73.84 C 173.12 70.33 174.74 65.75 178.46 64.57 C 180.62 63.76 182.52 64.88 184.65 65.39 L 184.61 62.30 Z" fill="#ffffff"/>
<path d="M 18.06 67.71 C 21.30 67.25 25.58 65.24 28.58 67.03 C 25.62 68.09 22.58 68.80 19.52 69.48 C 20.92 71.84 25.09 74.88 23.46 77.86 C 21.72 75.79 20.22 73.55 18.55 71.44 C 16.92 69.13 14.12 68.47 11.65 66.95 C 14.03 65.70 15.74 67.09 18.06 67.71 Z" fill="#ffffff"/>
<path d="M 48.30 65.19 C 52.93 65.91 57.71 66.49 62.20 67.85 C 66.68 69.42 68.75 72.97 70.70 77.01 C 67.59 77.72 64.47 79.10 61.37 77.60 C 56.91 75.51 53.01 71.98 50.12 68.01 C 49.50 67.08 48.90 66.14 48.30 65.19 Z" fill="#ffffff"/>
<path d="M 119.61 68.33 C 117.07 73.05 113.06 76.56 107.78 77.81 C 105.42 78.36 102.79 76.87 100.60 76.09 C 105.79 71.01 112.11 67.50 119.61 68.33 Z" fill="#ffffff"/>
<path d="M 141.43 70.96 C 139.25 74.27 136.69 78.00 133.38 80.26 C 129.22 82.70 124.62 82.57 119.96 82.45 C 123.23 79.57 126.11 76.21 129.54 73.54 C 133.14 70.91 137.05 70.16 141.43 70.96 Z" fill="#ffffff"/>
<path d="M 50.78 74.61 C 53.31 75.66 55.59 77.37 57.90 78.83 C 54.23 80.15 51.01 81.79 47.01 80.71 C 43.24 80.05 40.34 77.93 37.52 75.46 C 41.78 73.94 46.39 73.47 50.78 74.61 Z" fill="#ffffff"/>
<path d="M 8.18 76.53 C 13.35 77.25 18.20 78.93 23.24 80.47 C 19.18 82.49 15.05 84.38 11.03 86.48 C 14.06 87.53 20.30 86.89 21.72 90.28 C 16.56 89.65 11.45 88.55 6.41 87.30 C 9.84 84.15 13.78 82.90 17.89 80.83 C 14.83 79.70 9.97 79.57 8.18 76.53 Z" fill="#ffffff"/>
<path d="M 82.65 76.96 C 81.93 81.41 81.09 85.46 77.64 88.65 C 74.00 92.32 69.65 92.37 64.84 92.98 C 66.50 88.37 68.02 84.16 72.03 81.05 C 75.18 78.48 78.79 77.77 82.65 76.96 Z" fill="#ffffff"/>
<path d="M 155.81 78.41 C 153.12 81.03 150.04 84.06 146.52 85.48 C 142.81 87.02 138.33 85.68 134.47 85.14 C 139.70 78.77 147.77 75.26 155.81 78.41 Z" fill="#ffffff"/>
<path d="M 90.14 77.38 C 95.78 83.51 95.88 92.76 91.50 99.63 C 89.67 95.67 87.04 91.44 86.39 87.09 C 85.88 83.44 88.25 80.26 90.14 77.38 Z" fill="#ffffff"/>
<path d="M 100.38 79.82 C 103.72 82.67 106.35 86.43 106.53 90.95 C 106.46 94.65 105.16 97.93 103.87 101.33 C 102.08 97.03 99.79 92.64 98.86 88.05 C 98.33 85.08 99.27 82.52 100.38 79.82 Z" fill="#ffffff"/>
<path d="M 63.59 81.86 C 60.85 85.58 57.43 89.17 53.21 91.22 C 49.56 92.58 46.26 91.70 42.61 90.98 C 46.48 88.00 50.59 85.10 55.02 83.00 C 57.83 81.74 60.59 81.85 63.59 81.86 Z" fill="#ffffff"/>
<path d="M 192.60 83.92 C 187.59 85.22 182.42 86.14 177.29 86.78 C 178.26 83.79 181.97 84.45 184.49 83.63 C 187.21 83.46 190.46 81.51 192.60 83.92 Z" fill="#ffffff"/>
<path d="M 121.49 84.77 C 120.66 92.40 116.18 97.80 108.82 99.99 C 109.65 96.27 110.16 91.57 112.48 88.44 C 114.66 86.24 118.62 85.63 121.49 84.77 Z" fill="#ffffff"/>
<path d="M 129.20 88.50 C 132.34 95.47 129.11 104.72 126.05 111.26 C 122.46 106.06 121.89 101.61 123.48 95.49 C 124.29 92.16 126.71 90.54 129.20 88.50 Z" fill="#ffffff"/>
<path d="M 193.63 88.54 C 192.65 89.87 191.54 90.97 190.28 92.05 C 190.28 94.02 190.28 96.00 190.29 97.98 C 191.73 98.66 193.15 99.36 194.57 100.09 C 192.69 100.59 191.74 100.74 189.95 100.05 C 186.04 98.70 182.19 97.19 178.34 95.69 C 183.22 92.76 188.17 90.22 193.63 88.54 Z" fill="#ffffff"/>
<path d="M 164.43 97.08 C 161.40 97.88 158.20 98.73 155.04 98.66 C 150.08 98.23 145.57 95.39 141.57 92.64 C 148.72 88.54 158.39 92.59 164.43 97.08 Z" fill="#ffffff"/>
<path d="M 174.13 92.46 C 174.46 100.04 174.40 107.54 172.84 115.00 C 170.00 128.83 163.17 142.13 153.08 152.08 C 142.07 163.58 126.92 171.53 111.09 173.51 L 110.14 173.29 C 110.87 172.05 112.88 171.73 114.20 171.40 C 135.70 167.34 154.54 152.97 164.58 133.58 C 171.32 120.83 173.77 106.38 172.27 92.07 C 172.89 92.19 173.51 92.32 174.13 92.46 Z" fill="#ed1c24"/>
<path d="M 6.59 92.65 C 11.61 94.60 16.47 96.78 21.20 99.35 C 16.42 101.62 11.52 103.68 6.66 105.78 C 6.53 101.40 6.49 97.02 6.59 92.65 Z" fill="#ffffff"/>
<path d="M 188.55 92.56 C 188.53 94.22 188.52 95.87 188.50 97.52 C 186.63 96.80 184.76 96.07 182.89 95.34 C 184.77 94.41 186.66 93.49 188.55 92.56 Z" fill="#ed1c24"/>
<path d="M 135.90 93.07 C 138.15 95.91 140.68 98.77 141.46 102.42 C 142.27 106.26 141.17 110.72 140.56 114.54 C 137.67 112.04 134.94 109.88 133.86 106.02 C 132.45 101.34 134.22 97.34 135.90 93.07 Z" fill="#ffffff"/>
<path d="M 8.31 95.40 C 11.19 96.65 14.04 97.92 16.89 99.22 C 14.03 100.49 11.16 101.73 8.29 102.97 C 8.30 100.44 8.30 97.92 8.31 95.40 Z" fill="#ed1c24"/>
<path d="M 145.09 101.02 C 146.28 101.50 147.46 101.99 148.63 102.49 C 153.28 105.90 155.76 110.78 157.38 116.19 C 154.49 115.30 151.78 114.68 149.63 112.37 C 146.57 109.13 145.87 105.26 145.09 101.02 Z" fill="#ffffff"/>
<path d="M 185.22 102.76 C 187.18 104.42 186.77 106.78 187.06 109.09 C 189.50 109.52 191.55 109.09 193.18 111.36 C 188.30 111.44 183.27 110.75 178.37 110.27 C 178.74 108.11 178.80 105.68 179.68 103.65 C 180.57 101.89 183.72 101.95 185.22 102.76 Z" fill="#ffffff"/>
<path d="M 182.94 104.01 C 185.48 104.09 185.18 107.24 185.40 109.03 C 183.59 108.86 181.77 108.67 179.96 108.47 C 180.63 107.10 180.84 103.78 182.94 104.01 Z" fill="#ed1c24"/>
<path d="M 20.98 108.23 C 21.27 110.85 21.55 113.46 21.67 116.09 C 19.62 114.59 19.83 112.54 19.30 110.32 C 18.23 110.53 17.15 110.73 16.08 110.93 C 16.27 112.83 16.42 114.74 16.48 116.65 C 14.88 115.10 14.57 113.26 14.00 111.18 C 12.37 111.42 10.75 111.66 9.12 111.90 C 9.25 114.52 10.47 116.61 8.52 118.80 C 7.88 116.01 7.44 113.18 7.03 110.34 C 11.67 109.59 16.32 108.89 20.98 108.23 Z" fill="#ffffff"/>
<path d="M 200.00 108.22 L 200.00 200.00 L 109.14 200.00 C 114.78 199.02 120.39 198.26 125.93 196.79 C 142.02 192.63 156.74 184.19 168.84 172.86 C 182.46 159.92 192.38 143.22 196.93 124.98 C 198.41 119.42 198.90 113.85 200.00 108.22 Z" opacity="0"/>
<path d="M 0.00 107.09 C 1.20 113.74 1.85 120.05 3.65 126.51 C 8.04 142.64 16.53 157.80 28.27 169.73 C 40.36 182.36 55.83 191.58 72.64 196.35 C 78.58 198.18 84.62 198.78 90.68 200.00 L 0.00 200.00 L 0.00 107.09 Z" opacity="0"/>
<path d="M 178.28 115.57 C 182.65 115.81 186.99 117.30 191.31 118.02 L 190.96 119.89 C 186.16 118.90 181.34 118.02 176.58 116.85 C 177.14 116.41 177.71 115.98 178.28 115.57 Z" fill="#ffffff"/>
<path d="M 22.28 118.39 C 23.44 121.28 24.33 124.24 25.30 127.20 L 23.57 127.84 C 22.97 125.91 22.38 123.98 21.79 122.04 C 20.58 123.47 19.37 124.91 18.17 126.36 C 16.02 125.79 13.87 125.25 11.72 124.70 C 12.42 127.07 13.05 129.45 13.53 131.88 C 10.48 130.16 10.25 125.23 9.12 122.22 C 11.85 122.83 14.58 123.49 17.30 124.15 C 18.92 122.20 20.54 120.25 22.28 118.39 Z" fill="#ffffff"/>
<path d="M 176.49 121.38 L 177.78 121.34 C 177.50 123.09 176.99 124.81 176.72 126.56 L 179.29 128.02 C 180.41 125.87 180.31 123.67 182.98 122.91 C 182.49 124.72 181.92 126.51 181.33 128.29 C 182.92 128.88 184.52 129.46 186.11 130.05 C 187.13 127.68 187.36 125.37 189.78 123.95 C 189.16 126.82 188.33 129.62 187.41 132.40 C 182.99 130.86 178.55 129.39 174.06 128.06 C 174.80 125.82 175.47 123.49 176.49 121.38 Z" fill="#ffffff"/>
<path d="M 133.17 126.82 C 136.69 127.95 136.28 133.09 134.70 135.64 C 132.96 138.87 130.00 139.79 126.70 140.71 C 129.68 138.18 133.40 136.34 133.78 131.99 C 134.14 129.56 132.77 128.71 131.23 127.19 C 130.45 128.20 129.68 129.21 128.91 130.22 C 130.12 131.48 131.43 132.65 132.86 133.74 C 130.97 133.72 129.25 134.91 128.13 132.80 C 126.37 129.48 129.59 125.69 133.17 126.82 Z" fill="#ed1c24"/>
<path d="M 143.56 127.44 C 145.26 130.74 142.10 132.52 140.68 135.22 C 142.59 134.70 144.50 134.19 146.41 133.68 C 145.94 134.53 145.47 135.38 145.00 136.23 C 142.53 136.22 140.05 136.22 137.57 136.23 C 139.37 134.04 142.27 132.07 141.98 128.89 C 140.39 128.40 138.57 129.31 136.96 129.66 C 139.21 127.65 140.29 125.39 143.56 127.44 Z" fill="#ed1c24"/>
<path d="M 121.16 126.89 C 123.01 126.92 124.85 126.95 126.69 126.98 C 125.95 127.65 125.20 128.32 124.46 129.00 C 124.67 132.11 124.08 134.29 126.93 136.37 C 124.91 136.32 122.88 136.31 120.85 136.35 C 123.50 134.25 122.76 131.95 122.77 128.99 C 122.25 128.28 121.71 127.58 121.16 126.89 Z" fill="#ed1c24"/>
<path d="M 153.68 126.69 C 152.10 128.49 150.33 128.94 148.11 129.55 C 149.73 131.09 153.02 133.25 152.01 135.91 C 151.15 138.76 148.96 139.71 146.41 140.65 C 147.68 139.13 149.34 137.68 150.24 135.90 C 150.55 133.88 147.64 132.04 146.48 130.65 C 146.96 129.70 147.47 128.77 148.02 127.86 C 149.67 127.01 151.87 126.99 153.68 126.69 Z" fill="#ed1c24"/>
<path d="M 27.58 130.48 C 26.10 133.87 24.33 137.08 22.33 140.20 C 26.05 140.34 29.70 140.74 33.33 141.54 C 29.23 144.52 24.88 147.08 20.66 149.90 L 19.48 148.17 C 22.57 146.25 25.65 144.32 28.74 142.39 C 25.68 142.18 22.63 141.92 19.58 141.63 C 20.99 138.96 22.51 136.36 24.02 133.75 C 20.44 135.37 16.85 136.89 13.00 137.78 C 14.13 136.11 14.93 135.35 16.77 134.62 C 20.31 133.09 23.91 131.69 27.58 130.48 Z" fill="#ffffff"/>
<path d="M 172.61 132.30 C 176.81 134.18 180.74 136.66 184.86 138.69 L 183.97 140.46 C 180.39 138.55 176.78 136.69 173.23 134.71 C 172.16 136.66 171.09 138.61 170.03 140.56 C 173.60 142.66 177.76 144.14 180.94 146.81 L 179.99 147.81 C 175.66 146.20 171.72 143.55 167.53 141.58 C 169.20 138.50 170.64 135.19 172.61 132.30 Z" fill="#ffffff"/>
<path d="M 30.49 148.63 C 33.96 146.87 37.57 148.38 39.76 151.31 C 42.51 154.84 41.46 160.39 37.27 162.25 C 32.36 164.93 25.99 160.40 26.26 155.00 C 26.17 152.13 28.05 149.88 30.49 148.63 Z" fill="#ffffff"/>
<path d="M 31.35 150.37 C 34.35 149.39 37.40 150.32 38.78 153.28 C 40.84 156.63 37.84 161.26 34.00 160.98 C 31.61 161.13 29.62 159.21 28.55 157.26 C 27.26 154.56 28.94 151.70 31.35 150.37 Z" fill="#ed1c24"/>
<path d="M 160.18 152.00 C 163.72 155.29 167.13 158.78 170.39 162.35 C 165.88 162.89 161.66 161.91 157.25 161.17 C 159.28 163.62 161.34 166.03 163.46 168.41 L 161.91 169.74 C 158.79 166.07 155.65 162.44 152.62 158.70 C 157.02 159.24 161.42 159.82 165.82 160.39 C 163.39 157.86 160.90 155.41 158.45 152.91 L 160.18 152.00 Z" fill="#ffffff"/>
<path d="M 45.08 157.73 C 47.83 159.77 50.51 161.87 52.87 164.37 C 50.00 165.22 48.69 162.50 46.61 161.03 C 46.39 162.96 46.16 164.89 45.91 166.82 C 43.83 167.53 41.74 168.23 39.65 168.93 C 41.54 170.45 43.39 172.00 45.16 173.65 C 41.86 174.71 38.60 169.95 36.27 168.16 C 38.90 167.18 41.54 166.21 44.18 165.26 C 44.46 162.75 44.76 160.24 45.08 157.73 Z" fill="#ffffff"/>
<path d="M 152.89 166.06 C 155.01 167.95 154.40 170.26 154.69 172.80 C 155.69 172.77 156.70 172.75 157.71 172.73 C 156.06 174.44 154.28 175.88 152.31 177.23 C 151.88 174.75 152.48 172.46 152.73 170.01 C 152.65 167.82 150.20 165.85 148.02 166.19 C 144.70 165.96 141.39 169.77 141.98 172.91 C 142.86 176.64 148.28 176.32 151.17 177.83 C 149.21 179.09 147.24 180.32 145.23 181.49 C 145.40 180.48 145.58 179.47 145.75 178.47 C 144.41 177.84 142.79 177.35 141.66 176.35 C 139.52 173.90 139.56 170.08 141.55 167.55 C 144.08 164.12 149.65 162.90 152.89 166.06 Z" fill="#ffffff"/>
<path d="M 68.37 172.62 C 70.96 175.17 75.14 178.02 73.16 182.21 C 71.70 186.23 66.23 185.10 62.87 185.60 C 61.32 183.77 59.35 182.00 58.26 179.85 C 57.42 177.90 57.87 175.86 59.34 174.37 C 61.35 171.80 65.47 172.85 68.37 172.62 Z" fill="#ffffff"/>
<path d="M 130.69 172.02 C 131.44 172.72 132.19 173.42 132.93 174.13 C 135.71 176.95 138.79 179.57 141.30 182.64 C 141.49 183.31 141.52 184.09 141.37 184.98 C 138.09 182.29 135.28 179.23 132.24 176.27 C 132.47 180.11 132.71 183.95 132.78 187.79 L 130.92 187.78 C 130.51 182.52 130.46 177.29 130.69 172.02 Z" fill="#ffffff"/>
<path d="M 66.62 174.34 C 65.42 177.21 64.17 180.07 62.88 182.90 C 61.36 181.01 58.70 179.02 60.31 176.32 C 61.57 173.87 64.34 174.54 66.62 174.34 Z" fill="#ed1c24"/>
<path d="M 68.71 175.02 C 70.17 177.03 72.86 179.25 71.08 181.92 C 69.92 183.95 66.84 183.43 64.86 183.73 C 66.02 180.77 67.30 177.87 68.71 175.02 Z" fill="#ed1c24"/>
<path d="M 78.88 176.46 C 79.43 176.59 79.97 176.73 80.51 176.91 C 79.47 181.66 78.24 186.40 76.72 191.02 C 76.32 190.36 75.94 189.69 75.58 189.01 C 76.31 184.79 77.55 180.54 78.88 176.46 Z" fill="#ffffff"/>
<path d="M 115.45 177.51 C 117.61 176.57 120.35 176.45 122.47 177.58 C 125.59 179.28 127.21 183.46 125.71 186.76 C 123.91 191.59 116.19 193.19 112.89 189.10 C 109.55 185.66 110.85 179.21 115.45 177.51 Z" fill="#ffffff"/>
<path d="M 89.56 177.70 C 91.08 182.76 92.35 187.89 93.62 193.02 L 91.79 193.46 C 90.82 189.80 89.86 186.14 88.94 182.47 C 86.88 185.99 84.97 189.56 82.82 193.02 C 82.33 192.04 82.16 191.15 82.30 190.38 C 84.35 185.98 87.07 181.86 89.56 177.70 Z" fill="#ffffff"/>
<path d="M 102.37 178.62 C 104.72 182.42 106.51 186.60 108.29 190.70 C 108.81 191.73 108.77 192.91 108.16 194.22 C 107.33 192.89 106.53 191.55 105.75 190.19 C 103.67 190.32 101.60 190.47 99.53 190.64 C 99.14 191.77 98.74 192.89 98.35 194.02 C 97.74 193.70 97.14 193.39 96.54 193.07 C 98.52 188.28 100.12 183.29 102.37 178.62 Z" fill="#ffffff"/>
<path d="M 116.20 179.22 C 119.44 177.56 123.47 179.34 124.17 182.95 C 125.37 187.93 118.39 191.84 114.82 188.18 C 111.67 185.48 112.55 180.90 116.20 179.22 Z" fill="#ed1c24"/>
<path d="M 122.25 182.46 L 123.32 183.96 C 120.22 184.48 116.28 186.50 113.42 184.64 C 116.30 183.68 119.24 182.93 122.25 182.46 Z" fill="#ffffff"/>
<path d="M 102.60 183.13 C 103.54 184.96 104.33 186.85 105.16 188.73 C 103.53 188.79 101.90 188.85 100.27 188.90 C 101.01 186.96 101.75 185.03 102.60 183.13 Z" fill="#ed1c24"/>
</svg>
