<svg xmlns="http://www.w3.org/2000/svg" viewBox="0 0 160 160"><title>Excelsior Rotterdam logo - Brandlogos.net</title><circle cx="80" cy="80" r="78" style="fill:#fff"/><path d="M512,436a76,76,0,1,1-76,76,76,76,0,0,1,76-76m0-4a80,80,0,1,0,80,80A80,80,0,0,0,512,432Z" transform="translate(-432 -432)"/><path d="M512,472a40,40,0,0,0-40,40h80A40,40,0,0,0,512,472Z" transform="translate(-432 -432)"/><path d="M472,512a40,40,0,0,0,80,0Z" transform="translate(-432 -432)" style="fill:#e2001a"/><path d="M451.22,507.11v9.8h-1.95v-7.66l-2.2,1-.46-1.63,3-1.53Z" transform="translate(-432 -432)" style="fill:#e2001a"/><path d="M460.21,507.91a3.28,3.28,0,0,1,1.06,2.48,4,4,0,0,1-.74,2.12l-2.83,4.4h-2.16l2-3.14h-.28a3.57,3.57,0,0,1-2.48-1,3.2,3.2,0,0,1-1-2.36,3.27,3.27,0,0,1,1-2.48,4.15,4.15,0,0,1,5.38,0Zm-1.35,3.7a1.67,1.67,0,0,0,.5-1.22,1.71,1.71,0,0,0-.5-1.26,1.81,1.81,0,0,0-1.32-.49,1.77,1.77,0,0,0-1.31.49,1.7,1.7,0,0,0-.49,1.26,1.65,1.65,0,0,0,.49,1.23,1.77,1.77,0,0,0,1.31.49A1.82,1.82,0,0,0,458.86,511.61Z" transform="translate(-432 -432)" style="fill:#e2001a"/><path d="M562.5,515.69a6.86,6.86,0,0,1,0-7.36,3.56,3.56,0,0,1,3-1.41,3.52,3.52,0,0,1,3,1.41,6.86,6.86,0,0,1,0,7.36,3.53,3.53,0,0,1-3,1.42A3.57,3.57,0,0,1,562.5,515.69Zm4.57-1.23a4.71,4.71,0,0,0,.54-2.45,4.76,4.76,0,0,0-.54-2.45,1.72,1.72,0,0,0-1.58-.89,1.75,1.75,0,0,0-1.6.89,4.66,4.66,0,0,0-.55,2.45,4.61,4.61,0,0,0,.55,2.45,1.76,1.76,0,0,0,1.6.9A1.73,1.73,0,0,0,567.07,514.46Z" transform="translate(-432 -432)" style="fill:#e2001a"/><path d="M578.46,515.17v1.74h-7.08v-1.32L575.2,512a6.31,6.31,0,0,0,.91-1,1.52,1.52,0,0,0,.29-.91A1.41,1.41,0,0,0,576,509a1.57,1.57,0,0,0-1.13-.39,1.69,1.69,0,0,0-1.16.44,2.1,2.1,0,0,0-.63,1.16l-1.73-.49a3.2,3.2,0,0,1,1.12-2,3.44,3.44,0,0,1,2.36-.83,3.78,3.78,0,0,1,2.52.81,2.79,2.79,0,0,1,1,2.26,3,3,0,0,1-.43,1.58,7.84,7.84,0,0,1-1.37,1.56l-2.2,2Z" transform="translate(-432 -432)" style="fill:#e2001a"/><path d="M466.31,536.73l3.22,4.77a5,5,0,0,1,1,3.76,3.86,3.86,0,0,1-1.78,2.51h0a3.89,3.89,0,0,1-2.48.77,4.31,4.31,0,0,1-2.27-.83l-2,5.07-1.81-2.69,1.81-4.47h0l-1.2-1.77-3.35,2.25-1.55-2.3Zm-2,8a2.29,2.29,0,0,0,1.28,1,1.66,1.66,0,0,0,1.38-.27h0a1.63,1.63,0,0,0,.8-1.23,2.56,2.56,0,0,0-.52-1.58l-1.54-2.29-3,2Z" transform="translate(-432 -432)"/><path d="M469.45,560.5a6.77,6.77,0,0,1-1.67-2.15,6.62,6.62,0,0,1-.68-2.44,6.27,6.27,0,0,1,.31-2.46,6.4,6.4,0,0,1,1.3-2.23h0a6.32,6.32,0,0,1,2-1.57,6.59,6.59,0,0,1,2.41-.64,6.47,6.47,0,0,1,2.52.35,7.24,7.24,0,0,1,4,3.54,6.62,6.62,0,0,1,.68,2.44,6.27,6.27,0,0,1-.31,2.46,6.52,6.52,0,0,1-1.3,2.22h0a6.42,6.42,0,0,1-4.46,2.2,6.53,6.53,0,0,1-2.53-.34A7.06,7.06,0,0,1,469.45,560.5Zm1.72-1.9a3.56,3.56,0,0,0,1.35.78,3.47,3.47,0,0,0,1.46.16,4,4,0,0,0,1.4-.44,4.07,4.07,0,0,0,1.21-.95h0a4.38,4.38,0,0,0,.8-1.34,3.88,3.88,0,0,0,.23-1.46,3.72,3.72,0,0,0-.35-1.45,3.49,3.49,0,0,0-.94-1.24,3.61,3.61,0,0,0-2.81-.94,4.21,4.21,0,0,0-1.4.43,4.32,4.32,0,0,0-1.22,1h0a4.25,4.25,0,0,0-.8,1.33,3.74,3.74,0,0,0,.11,2.91A3.5,3.5,0,0,0,471.17,558.6Z" transform="translate(-432 -432)"/><path d="M485.85,559.57l-3.4-1.76,1.17-2.27,9.27,4.8-1.17,2.27-3.4-1.76-4.62,8.92-2.47-1.28Z" transform="translate(-432 -432)"/><path d="M497.05,564.19l-3.71-1,.64-2.47,10.11,2.61-.64,2.47-3.71-1-2.51,9.73-2.69-.69Z" transform="translate(-432 -432)"/><path d="M505.69,563.52l9.48.32-.09,2.46-6.74-.23-.09,2.56,5.94.2-.09,2.46-5.93-.2-.09,2.65,6.83.23-.08,2.46-9.57-.32Z" transform="translate(-432 -432)"/><path d="M517.49,563.66l5.65-1.16a5,5,0,0,1,3.86.5,3.91,3.91,0,0,1,1.63,2.61h0a4,4,0,0,1-.23,2.59,4.33,4.33,0,0,1-1.63,1.8l3.91,3.8-3.17.64L524.05,571h0l-2.1.43.81,3.95L520,576Zm6.69,4.88a2.32,2.32,0,0,0,1.45-.79,1.65,1.65,0,0,0,.28-1.38h0a1.62,1.62,0,0,0-.83-1.21,2.64,2.64,0,0,0-1.66-.12l-2.7.55.72,3.55Z" transform="translate(-432 -432)"/><path d="M529.71,560.9l4.41-2.15a7.24,7.24,0,0,1,2.65-.76,6.46,6.46,0,0,1,2.49.25,6,6,0,0,1,2.11,1.18,6.51,6.51,0,0,1,1.52,2h0a6.33,6.33,0,0,1,.65,2.44,5.75,5.75,0,0,1-.36,2.4,6.47,6.47,0,0,1-1.32,2.13,7.61,7.61,0,0,1-2.22,1.63l-4.42,2.15Zm8.85,6.92a4.37,4.37,0,0,0,1.27-.92,3.4,3.4,0,0,0,.74-1.23,3.82,3.82,0,0,0,.17-1.4,4,4,0,0,0-.42-1.5h0a4.06,4.06,0,0,0-.92-1.25,3.63,3.63,0,0,0-1.22-.75,3.73,3.73,0,0,0-1.42-.18,4.36,4.36,0,0,0-1.52.43l-1.92.95,3.33,6.82Z" transform="translate(-432 -432)"/><path d="M544.33,552.25l2-1.65,12.31,6.21-2.21,1.87-2.7-1.41-4.07,3.44.94,2.9-2.15,1.82Zm7,3.79-3.92-2,1.36,4.2Z" transform="translate(-432 -432)"/><path d="M551.19,546.3l1.69-2.47,6.27.27-2.54-5.74,1.68-2.47L568.7,543l-1.54,2.26-6.79-4.64,2.44,6v.06l-6.38-.11,6.75,4.61-1.54,2.26Z" transform="translate(-432 -432)"/><path d="M454.64,481l5.72-8.85,2.3,1.49-4.07,6.3,2.41,1.53,3.58-5.55,2.3,1.49-3.6,5.59,2.47,1.6,4.12-6.38,2.3,1.48-5.77,8.89Z" transform="translate(-432 -432)"/><path d="M471.67,470.11l-8.09-2,2.67-2.42,5.23,1.4-.85-5.35,2.59-2.35,1.12,8.21,8.42,2L480.09,472l-5.55-1.45.88,5.68-2.59,2.35Z" transform="translate(-432 -432)"/><path d="M489.47,466.49a7.38,7.38,0,0,1-2.79.82,6.87,6.87,0,0,1-5.07-1.66,7.47,7.47,0,0,1-1.77-2.26h0a7.26,7.26,0,0,1-.84-2.77,7.38,7.38,0,0,1,.27-2.74,7,7,0,0,1,1.33-2.44,7.61,7.61,0,0,1,2.36-1.87,9.78,9.78,0,0,1,1.67-.68,8,8,0,0,1,1.51-.28,6.43,6.43,0,0,1,1.39,0,8.3,8.3,0,0,1,1.33.31l-.7,2.9a7.78,7.78,0,0,0-2-.26,4.19,4.19,0,0,0-1.89.51,3.92,3.92,0,0,0-1.29,1,3.73,3.73,0,0,0-.71,1.42,4.4,4.4,0,0,0-.11,1.62,4.73,4.73,0,0,0,.51,1.64h0a4.76,4.76,0,0,0,1,1.37A4.37,4.37,0,0,0,485,464a3.76,3.76,0,0,0,1.57.26,3.81,3.81,0,0,0,1.63-.45,4.38,4.38,0,0,0,1.6-1.32,8.22,8.22,0,0,0,.91-1.83l2.65.86a10.17,10.17,0,0,1-.51,1.44,6.69,6.69,0,0,1-.77,1.28,6.62,6.62,0,0,1-1.13,1.22A8.75,8.75,0,0,1,489.47,466.49Z" transform="translate(-432 -432)"/><path d="M493.09,449.59l10.29-2.26L504,450l-7.33,1.61.61,2.77L503.7,453l.59,2.68-6.45,1.42.63,2.87,7.42-1.63.59,2.66-10.39,2.27Z" transform="translate(-432 -432)"/><path d="M509.32,446.9l3.08.1-.31,11.2,7,.2-.09,2.77-10-.27Z" transform="translate(-432 -432)"/><path d="M525.83,463.1a9.08,9.08,0,0,1-2.83-1.37,8,8,0,0,1-2.25-2.37l2.25-1.62a8.72,8.72,0,0,0,1.57,1.72,5.19,5.19,0,0,0,2,1,2.62,2.62,0,0,0,1.53.06,1.1,1.1,0,0,0,.77-.79h0a1.25,1.25,0,0,0,0-.54,1.17,1.17,0,0,0-.29-.53,4.64,4.64,0,0,0-.73-.61,13,13,0,0,0-1.27-.79,17.3,17.3,0,0,1-1.58-1.08,5.3,5.3,0,0,1-1.24-1.18,3.27,3.27,0,0,1-.59-1.38,4.11,4.11,0,0,1,.15-1.76h0a4.09,4.09,0,0,1,.8-1.57,4,4,0,0,1,1.33-1,4.68,4.68,0,0,1,1.71-.42,6.41,6.41,0,0,1,2,.24,8.11,8.11,0,0,1,4.53,3.1L531.54,454a10.79,10.79,0,0,0-1.54-1.47,4.65,4.65,0,0,0-1.64-.84,2.2,2.2,0,0,0-1.39,0,1.11,1.11,0,0,0-.67.72h0a1.24,1.24,0,0,0,0,.6,1.13,1.13,0,0,0,.34.56,4.94,4.94,0,0,0,.79.62l1.33.8a14,14,0,0,1,1.66,1.11,5.42,5.42,0,0,1,1.13,1.18,3.28,3.28,0,0,1,.53,1.34,3.94,3.94,0,0,1-.14,1.6h0a4.31,4.31,0,0,1-.88,1.78,3.74,3.74,0,0,1-1.38,1,4.6,4.6,0,0,1-1.78.38A7,7,0,0,1,525.83,463.1Z" transform="translate(-432 -432)"/><path d="M539.47,453l2.76,1.37L536,467l-2.76-1.37Z" transform="translate(-432 -432)"/><path d="M544,472.62a7.74,7.74,0,0,1-2-2.32,7.62,7.62,0,0,1-.85-2.68,6.9,6.9,0,0,1,.25-2.74,7.31,7.31,0,0,1,1.35-2.53h0a7,7,0,0,1,2.21-1.82,7.35,7.35,0,0,1,2.65-.81,7.19,7.19,0,0,1,2.82.29,8,8,0,0,1,4.62,3.77,7.42,7.42,0,0,1,.85,2.68,7,7,0,0,1-1.6,5.26h0a7,7,0,0,1-2.21,1.83,7.2,7.2,0,0,1-5.47.52A7.73,7.73,0,0,1,544,472.62Zm1.83-2.17a4.35,4.35,0,0,0,1.53.81,3.89,3.89,0,0,0,1.62.11,4.59,4.59,0,0,0,2.86-1.65h0a4.8,4.8,0,0,0,.84-1.51,4.46,4.46,0,0,0,.2-1.65,4.31,4.31,0,0,0-3.08-3.75,3.87,3.87,0,0,0-1.62-.1,4.34,4.34,0,0,0-1.54.53,4.49,4.49,0,0,0-1.31,1.12h0a4.49,4.49,0,0,0-.83,1.51,4,4,0,0,0-.2,1.64,4.18,4.18,0,0,0,.43,1.58,4.07,4.07,0,0,0,1.13,1.36Z" transform="translate(-432 -432)"/><path d="M562.6,470.83l3.61,5.28a5.57,5.57,0,0,1,1.13,4.17,4.32,4.32,0,0,1-2,2.8h0a4.44,4.44,0,0,1-2.76.88,4.86,4.86,0,0,1-2.52-.91l-2.2,5.64-2-3,2-5h0l-1.35-2-3.7,2.52L551,478.72Zm-2.12,9a2.55,2.55,0,0,0,1.43,1.14,1.85,1.85,0,0,0,1.54-.31h0a1.79,1.79,0,0,0,.88-1.37,2.83,2.83,0,0,0-.59-1.75l-1.74-2.6-3.32,2.26Z" transform="translate(-432 -432)"/></svg>