<?xml version="1.0" encoding="UTF-8" standalone="no"?>
<!DOCTYPE svg PUBLIC "-//W3C//DTD SVG 1.1//EN" "http://www.w3.org/Graphics/SVG/1.1/DTD/svg11.dtd">
<svg xmlns="http://www.w3.org/2000/svg" version="1.1" viewBox="0 0 200 200" width="200.0pt" height="200.0pt">
<path d="M 0.00 0.00 L 28.82 0.00 L 28.80 1.00 C 28.32 29.34 27.72 57.66 27.33 86.00 C 27.17 94.08 26.98 102.03 28.38 110.02 C 31.59 129.96 41.30 147.45 54.36 162.60 C 67.25 177.47 82.80 190.40 100.00 199.99 C 119.30 189.35 138.69 172.58 151.84 154.87 C 164.69 137.78 172.76 117.56 172.78 95.99 C 172.43 64.33 171.74 32.66 171.18 1.00 L 171.12 0.00 L 200.00 0.00 L 200.00 200.00 L 0.00 200.00 L 0.00 0.00 Z" fill-opacity="0"/>
<path d="M 28.82 0.00 L 171.12 0.00 L 171.18 1.00 C 123.72 1.00 76.26 1.00 28.80 1.00 L 28.82 0.00 Z" fill="#444444"/>
<path d="M 28.80 1.00 C 76.26 1.00 123.72 1.00 171.18 1.00 C 171.74 32.66 172.43 64.33 172.78 95.99 C 172.76 117.56 164.69 137.78 151.84 154.87 C 138.69 172.58 119.30 189.35 100.00 199.99 C 82.80 190.40 67.25 177.47 54.36 162.60 C 41.30 147.45 31.59 129.96 28.38 110.02 C 26.98 102.03 27.17 94.08 27.33 86.00 C 27.72 57.66 28.32 29.34 28.80 1.00 Z" fill="#000000"/>
<path d="M 32.11 3.53 C 77.37 3.53 122.63 3.53 167.89 3.53 C 168.55 33.34 169.04 63.18 169.54 93.00 C 169.75 101.79 168.74 110.58 166.34 119.05 C 161.77 135.32 152.70 149.95 141.54 162.52 C 129.58 175.88 115.44 187.32 100.00 196.42 C 86.97 188.77 74.94 179.42 64.28 168.72 C 54.13 158.49 45.35 146.89 39.19 133.81 C 33.30 121.40 30.16 107.76 30.45 94.00 C 30.93 63.85 31.45 33.67 32.11 3.53 Z" fill="#ffffff"/>
<path d="M 38.56 10.17 C 41.65 9.72 44.88 9.92 48.00 9.90 C 81.33 9.91 114.67 9.90 148.00 9.91 C 152.51 9.91 157.02 9.81 161.53 10.07 C 162.17 38.38 162.95 66.69 163.49 95.00 C 163.79 112.27 158.06 128.65 148.70 143.00 C 147.81 110.81 146.87 78.49 146.04 46.31 C 140.95 46.29 135.86 46.30 130.77 46.30 C 130.97 57.53 131.30 68.76 131.43 80.00 C 131.50 82.56 131.30 84.93 132.61 87.24 C 137.50 96.83 137.67 108.41 133.20 118.20 C 131.96 120.78 132.38 123.24 132.38 126.00 C 132.69 138.02 132.88 150.05 133.19 162.08 C 126.84 168.51 119.98 174.32 112.70 179.68 C 112.36 164.40 111.85 149.12 111.58 133.83 C 124.15 128.88 132.92 116.64 132.69 103.00 C 132.63 89.11 123.26 76.69 110.13 72.37 C 109.80 67.71 109.79 63.05 109.64 58.38 C 103.21 58.38 96.79 58.38 90.36 58.38 C 90.21 63.05 90.20 67.71 89.87 72.37 C 81.64 75.16 74.69 80.98 70.78 88.78 C 66.26 97.65 66.14 108.51 70.58 117.44 C 74.20 125.02 80.70 130.66 88.42 133.83 C 88.14 149.12 87.64 164.40 87.30 179.68 C 80.03 174.32 73.16 168.52 66.81 162.08 C 67.12 150.05 67.31 138.02 67.62 126.00 C 67.62 123.24 68.04 120.78 66.79 118.20 C 63.31 110.47 62.65 101.99 64.84 93.79 C 65.56 90.06 68.40 86.80 68.49 83.04 C 68.71 70.77 68.98 58.56 69.23 46.30 C 64.14 46.30 59.05 46.29 53.96 46.31 C 53.12 78.49 52.20 110.81 51.30 143.00 C 41.94 128.65 36.21 112.28 36.51 95.00 C 37.11 66.79 37.70 38.36 38.56 10.17 Z" fill="#000000"/>
<path d="M 52.43 16.53 C 53.54 16.42 54.65 16.34 55.76 16.29 C 55.80 24.14 55.76 31.99 55.78 39.84 C 54.64 39.85 53.50 39.87 52.36 39.89 C 52.34 36.41 52.34 32.93 52.34 29.46 C 50.98 29.45 49.62 29.45 48.26 29.45 C 48.26 32.92 48.26 36.39 48.26 39.87 C 47.10 39.86 45.95 39.85 44.79 39.84 C 44.79 32.03 44.80 24.23 44.79 16.42 C 45.95 16.41 47.10 16.41 48.26 16.40 C 48.26 19.73 48.26 23.05 48.26 26.38 C 49.63 26.37 50.99 26.36 52.35 26.36 C 52.37 23.09 52.20 19.79 52.43 16.53 Z" fill="#ffffff"/>
<path d="M 70.85 16.40 C 70.85 17.49 70.85 18.58 70.85 19.66 C 68.64 19.66 66.42 19.66 64.21 19.66 C 64.21 21.90 64.21 24.13 64.21 26.37 C 66.16 26.37 68.12 26.37 70.07 26.37 C 70.06 27.46 70.06 28.54 70.07 29.62 C 68.12 29.63 66.16 29.63 64.21 29.63 C 64.21 31.89 64.21 34.16 64.21 36.43 C 66.42 36.43 68.63 36.42 70.84 36.42 C 70.85 37.56 70.85 38.71 70.86 39.86 C 67.49 39.86 64.12 39.86 60.76 39.85 C 60.72 32.06 60.82 24.26 60.69 16.47 C 64.08 16.39 67.46 16.39 70.85 16.40 Z" fill="#ffffff"/>
<path d="M 75.19 16.47 C 78.07 16.43 82.80 15.69 84.96 18.04 C 87.54 21.68 86.86 26.57 83.70 29.67 C 84.94 33.04 86.11 36.43 87.27 39.83 C 86.03 39.84 84.79 39.85 83.55 39.85 C 82.53 36.67 81.73 33.38 80.43 30.30 C 79.79 30.06 79.14 29.85 78.48 29.67 C 78.46 33.07 78.48 36.47 78.46 39.87 C 77.34 39.86 76.22 39.86 75.10 39.85 C 75.18 32.07 74.94 24.25 75.19 16.47 Z" fill="#ffffff"/>
<path d="M 94.72 16.59 C 95.63 16.44 96.56 16.33 97.49 16.24 C 99.27 24.13 101.08 32.02 102.79 39.93 C 101.64 39.89 100.50 39.86 99.36 39.83 C 99.01 38.15 98.65 36.46 98.29 34.78 C 96.80 34.81 95.31 34.83 93.82 34.85 C 93.50 36.51 93.17 38.17 92.85 39.83 C 91.68 39.85 90.51 39.86 89.34 39.87 C 91.18 32.13 92.68 24.27 94.72 16.59 Z" fill="#ffffff"/>
<path d="M 114.52 17.48 C 116.31 18.95 116.15 21.08 116.61 23.19 C 115.55 23.20 114.49 23.20 113.43 23.20 C 113.00 22.05 112.52 20.91 111.98 19.81 C 110.36 19.32 109.37 19.72 109.00 21.03 C 108.68 25.00 108.88 29.03 108.85 33.01 C 108.84 34.30 109.02 37.30 111.02 36.52 C 112.67 36.85 112.73 34.16 113.32 33.11 C 114.43 33.14 115.54 33.18 116.66 33.21 C 116.22 35.14 116.20 37.21 114.60 38.60 C 111.74 41.25 105.78 40.05 105.50 35.65 C 105.30 30.79 105.35 25.84 105.47 20.98 C 105.61 16.52 111.36 14.78 114.52 17.48 Z" fill="#ffffff"/>
<path d="M 120.29 16.52 C 121.41 16.42 122.52 16.35 123.64 16.30 C 123.66 23.01 123.64 29.71 123.65 36.42 C 125.69 36.42 127.72 36.42 129.76 36.42 C 129.76 37.57 129.77 38.71 129.77 39.85 C 126.58 39.86 123.39 39.86 120.20 39.86 C 120.28 32.09 120.05 24.29 120.29 16.52 Z" fill="#ffffff"/>
<path d="M 131.85 16.36 C 135.18 16.41 138.52 16.42 141.85 16.40 C 141.86 17.49 141.86 18.58 141.86 19.66 C 139.66 19.66 137.46 19.66 135.26 19.66 C 135.26 21.90 135.26 24.13 135.26 26.37 C 137.21 26.37 139.15 26.37 141.10 26.37 C 141.10 27.45 141.10 28.54 141.10 29.63 C 139.15 29.63 137.21 29.63 135.26 29.62 C 135.26 31.89 135.26 34.16 135.26 36.43 C 137.46 36.43 139.65 36.42 141.85 36.42 C 141.86 37.56 141.86 38.71 141.87 39.86 C 138.51 39.86 135.16 39.86 131.81 39.86 C 131.82 32.03 131.76 24.19 131.85 16.36 Z" fill="#ffffff"/>
<path d="M 155.04 17.95 C 156.44 19.33 156.30 21.39 156.63 23.19 C 155.58 23.20 154.53 23.20 153.48 23.21 C 152.82 22.29 152.61 19.33 151.06 19.69 C 147.96 18.85 147.35 25.11 150.24 25.55 C 152.40 26.75 155.59 27.13 156.16 29.96 C 156.65 32.38 156.68 35.30 155.55 37.55 C 154.04 40.40 149.42 40.59 147.02 38.93 C 144.99 37.47 145.08 35.48 144.53 33.24 C 145.66 33.21 146.80 33.18 147.93 33.16 C 148.73 34.99 148.37 36.84 150.99 36.58 C 153.65 36.72 153.04 32.08 152.54 30.51 C 150.52 29.23 147.66 28.62 146.03 26.87 C 144.62 24.68 144.65 21.15 145.84 18.87 C 147.66 15.61 152.56 15.35 155.04 17.95 Z" fill="#ffffff"/>
<path d="M 78.48 19.55 C 79.72 19.64 80.97 19.74 82.21 19.84 C 82.87 21.50 83.27 23.12 82.90 24.91 C 82.46 27.34 80.36 26.47 78.50 27.02 C 78.47 24.53 78.47 22.04 78.48 19.55 Z" fill="#000000"/>
<path d="M 95.80 24.42 L 96.01 24.30 L 96.26 24.16 C 96.73 26.63 97.21 29.10 97.69 31.58 C 96.60 31.57 95.52 31.57 94.44 31.57 C 94.90 29.19 95.36 26.81 95.80 24.42 Z" fill="#000000"/>
<path d="M 93.06 45.70 C 93.11 48.98 93.14 52.25 92.97 55.53 C 89.82 53.78 92.79 49.52 89.69 47.02 C 90.81 46.58 91.93 46.14 93.06 45.70 Z" fill="#a9a9a9"/>
<path d="M 97.75 46.04 C 100.82 47.68 97.84 52.79 96.95 55.09 C 96.41 55.00 95.88 54.91 95.35 54.82 C 95.63 53.88 95.91 52.94 96.18 52.00 C 94.29 50.18 93.96 45.19 97.75 46.04 Z" fill="#bababa"/>
<path d="M 101.25 46.13 C 102.53 45.74 103.52 46.04 104.21 47.01 C 104.62 49.27 104.62 51.73 104.23 53.99 C 102.88 55.81 100.38 55.24 100.19 52.94 C 100.17 50.94 99.50 47.53 101.25 46.13 Z" fill="#c0c0c0"/>
<path d="M 107.95 45.97 C 110.31 45.89 109.92 49.40 109.97 50.93 C 110.00 52.32 110.00 55.23 107.95 55.04 C 105.55 55.21 106.05 53.29 105.54 51.62 C 106.46 52.17 107.38 52.72 108.30 53.26 C 107.94 52.32 107.59 51.39 107.24 50.46 C 107.57 49.55 107.92 48.64 108.28 47.74 C 107.36 48.29 106.44 48.85 105.53 49.41 C 105.83 48.04 105.93 45.63 107.95 45.97 Z" fill="#b6b6b6"/>
<path d="M 98.04 48.92 C 97.76 50.08 97.11 50.38 96.10 49.82 C 94.94 48.04 97.58 46.75 98.04 48.92 Z" fill="#666666"/>
<path d="M 102.28 47.87 L 102.73 47.86 C 103.21 49.60 103.17 51.53 102.64 53.25 C 101.47 51.72 101.72 49.59 102.28 47.87 Z" fill="#1f1f1f"/>
<path d="M 91.46 74.46 C 102.84 71.08 115.47 74.83 123.08 83.94 C 130.19 92.14 132.16 104.12 128.18 114.20 C 123.55 126.33 110.98 134.36 98.00 133.30 C 82.72 132.60 69.88 119.32 69.82 104.00 C 69.30 90.61 78.63 78.12 91.46 74.46 Z" fill="#2c2c2c"/>
<path d="M 94.51 75.76 C 107.00 73.08 120.24 79.87 125.58 91.41 C 130.93 102.59 127.97 116.54 118.52 124.55 C 108.93 132.99 94.07 133.73 83.69 126.28 C 73.76 119.41 69.42 106.51 73.01 94.98 C 76.02 85.26 84.50 77.64 94.51 75.76 Z" fill="#ffffff"/>
<path d="M 100.47 83.05 C 98.92 83.09 97.37 83.13 95.81 83.16 C 95.40 82.49 94.98 81.81 94.57 81.14 C 93.10 81.03 91.48 80.60 90.05 80.97 C 88.45 81.97 87.43 83.75 85.84 84.72 C 83.54 86.01 81.02 86.98 78.59 88.01 C 81.41 84.77 84.86 81.53 88.81 79.73 C 93.02 79.20 97.47 79.70 100.47 83.05 Z" fill="#000000"/>
<path d="M 91.08 82.50 C 93.21 82.24 94.02 83.60 95.48 84.78 C 98.60 84.62 101.46 84.27 104.36 85.76 C 108.15 85.62 111.57 86.19 115.20 87.21 C 115.59 89.86 116.55 90.23 113.76 91.75 C 113.75 90.42 113.77 89.08 113.83 87.74 C 113.12 88.76 112.38 89.74 111.60 90.70 C 112.62 91.44 113.64 92.19 114.66 92.94 C 112.31 94.55 109.82 95.84 107.77 97.86 C 107.75 96.55 107.72 95.24 107.68 93.93 C 107.15 94.59 106.61 95.25 106.07 95.91 C 104.56 96.03 103.05 96.15 101.54 96.29 C 100.92 97.42 100.31 98.55 99.69 99.67 C 96.61 99.99 94.23 99.99 91.40 98.63 C 90.98 95.89 90.47 93.37 89.10 90.93 C 87.64 88.31 88.15 83.90 91.08 82.50 Z" fill="#000000"/>
<path d="M 91.22 84.85 C 93.32 84.65 94.15 87.03 92.35 88.13 C 91.39 87.12 91.01 86.03 91.22 84.85 Z" fill="#909090"/>
<path d="M 97.81 86.10 C 100.52 86.19 102.04 84.97 103.20 88.10 C 100.99 88.02 99.57 87.33 97.81 86.10 Z" fill="#777777"/>
<path d="M 87.15 85.80 L 86.27 88.94 C 82.79 91.34 78.78 93.02 75.05 95.02 C 75.84 93.95 76.64 92.88 77.44 91.81 C 77.46 91.08 77.48 90.36 77.51 89.63 C 79.46 88.82 81.40 87.99 83.37 87.21 C 84.62 86.72 85.89 86.25 87.15 85.80 Z" fill="#282828"/>
<path d="M 117.95 88.97 C 119.13 92.63 118.09 94.94 116.46 98.17 C 115.91 96.54 114.82 94.77 114.88 93.04 C 115.55 91.52 116.92 90.26 117.95 88.97 Z" fill="#363636"/>
<path d="M 86.55 91.10 C 88.28 93.45 89.07 94.91 89.09 97.92 C 82.71 100.26 80.18 106.15 74.37 109.22 C 74.75 107.40 75.14 105.59 75.54 103.79 C 74.93 103.26 74.31 102.74 73.70 102.22 C 73.94 100.61 74.19 98.99 74.43 97.38 C 76.21 96.89 77.78 96.50 79.15 95.17 C 81.30 93.18 83.84 92.11 86.55 91.10 Z" fill="#000000"/>
<path d="M 111.30 100.15 C 110.21 102.91 109.81 103.50 106.98 101.99 C 105.85 101.94 104.72 101.89 103.59 101.85 C 104.03 101.15 104.47 100.46 104.92 99.77 C 107.31 98.81 108.99 99.38 111.30 100.15 Z" fill="#000000"/>
<path d="M 89.30 99.79 C 90.31 100.23 91.32 100.69 92.32 101.17 C 90.65 102.74 88.96 103.96 87.96 106.10 C 85.54 111.09 83.18 116.12 80.78 121.12 C 79.46 119.33 78.16 117.51 76.88 115.69 C 78.02 113.28 78.35 110.07 80.41 108.40 C 83.45 105.60 86.38 102.71 89.30 99.79 Z" fill="#000000"/>
<path d="M 112.82 100.38 C 113.36 100.22 113.90 100.07 114.45 99.95 C 113.84 102.85 113.35 105.77 112.91 108.71 C 113.30 110.38 113.61 112.07 113.90 113.77 C 114.83 115.79 115.85 117.89 116.38 120.05 C 116.01 122.02 112.59 121.96 111.07 122.64 C 105.90 119.50 101.06 116.05 95.40 113.79 C 96.02 111.97 96.71 110.21 97.50 108.47 C 99.90 109.00 101.99 109.67 104.23 110.65 C 104.63 111.22 105.03 111.79 105.44 112.36 L 105.87 109.28 C 106.80 109.56 107.73 109.85 108.66 110.14 C 110.53 108.61 110.55 108.37 110.81 105.93 L 112.37 107.23 C 113.47 104.82 113.13 102.89 112.82 100.38 Z" fill="#000000"/>
<path d="M 93.82 102.30 C 95.46 102.83 97.10 103.35 98.75 103.87 C 96.97 106.32 94.33 108.73 93.94 111.81 C 93.08 117.18 92.81 122.53 91.07 127.73 C 88.89 125.71 85.89 125.48 83.33 123.93 C 84.31 121.26 85.54 119.24 87.34 117.06 C 87.26 111.82 90.67 106.31 93.82 102.30 Z" fill="#000000"/>
<path d="M 100.31 104.30 C 102.99 104.48 105.17 105.22 107.28 106.89 C 104.49 107.07 101.70 107.17 98.92 107.32 C 99.36 106.31 99.80 105.28 100.31 104.30 Z" fill="#5c5c5c"/>
<path d="M 110.15 110.13 C 113.65 109.56 111.17 113.37 109.07 111.98 C 108.72 111.25 109.08 110.63 110.15 110.13 Z" fill="#6f6f6f"/>
<path d="M 95.24 116.33 C 97.09 116.91 99.07 117.45 100.82 118.29 C 101.32 119.37 101.61 120.57 101.95 121.72 C 103.48 121.99 105.00 122.25 106.53 122.51 C 107.26 124.30 107.98 126.08 108.72 127.86 C 103.76 129.65 99.21 129.29 94.10 128.71 C 94.39 125.76 94.66 122.81 94.93 119.85 C 95.03 118.68 95.14 117.51 95.24 116.33 Z" fill="#000000"/>
<path d="M 94.27 155.53 C 95.90 158.62 97.03 161.89 98.44 165.15 C 97.19 168.57 95.84 171.95 94.48 175.33 C 92.78 172.06 91.49 168.63 90.26 165.16 C 91.62 161.96 92.81 158.69 94.27 155.53 Z" fill="#009ee0"/>
<path d="M 105.77 155.61 C 107.18 158.75 108.40 161.98 109.75 165.15 C 108.51 168.62 107.22 172.06 105.52 175.33 C 104.16 171.95 102.81 168.57 101.56 165.15 C 102.94 161.93 104.06 158.67 105.77 155.61 Z" fill="#009ee0"/>
<path d="M 100.19 169.84 C 101.47 172.92 102.93 176.01 103.81 179.22 C 103.33 182.48 101.63 185.76 100.32 188.77 C 99.78 188.87 99.43 188.58 99.27 187.92 C 98.15 185.16 96.56 182.18 96.20 179.22 C 97.11 175.98 98.36 172.69 100.19 169.84 Z" fill="#009ee0"/>
</svg>