<?xml version="1.0" encoding="UTF-8" standalone="no"?>
<!DOCTYPE svg PUBLIC "-//W3C//DTD SVG 1.1//EN" "http://www.w3.org/Graphics/SVG/1.1/DTD/svg11.dtd">
<svg xmlns="http://www.w3.org/2000/svg" version="1.1" viewBox="0 0 200 200" width="200.0pt" height="200.0pt">
<path d="M 0.00 0.00 L 40.00 0.00 L 40.08 0.60 C 38.21 2.22 36.32 3.82 34.57 5.57 C 25.14 15.07 15.67 24.53 6.20 34.00 C 13.44 40.83 17.81 49.91 20.85 59.25 C 23.50 67.80 24.59 76.36 23.63 85.30 C 23.35 88.85 23.03 92.40 22.76 95.95 C 22.28 104.34 20.71 112.52 19.47 120.82 C 18.57 125.69 17.76 130.58 16.91 135.45 C 16.04 140.19 15.49 144.95 15.65 149.77 C 16.01 159.50 21.82 167.48 29.91 172.46 C 32.22 173.93 34.71 175.17 37.21 176.28 C 44.41 179.33 52.13 181.26 59.75 182.91 C 63.39 183.70 67.04 184.37 70.69 185.10 C 73.45 185.72 76.19 186.43 78.91 187.20 C 86.98 189.60 94.34 193.57 100.02 199.89 C 106.90 192.18 116.10 188.22 125.98 185.88 C 139.29 182.81 154.21 180.89 166.51 174.52 C 173.96 170.66 180.26 165.14 183.03 157.00 C 186.38 147.85 183.29 138.19 182.03 128.96 C 180.68 122.28 179.78 115.53 178.66 108.80 C 177.35 96.84 175.55 84.10 176.36 72.09 C 177.62 62.19 181.01 52.51 185.95 43.86 C 188.03 40.13 190.77 36.94 193.82 33.98 C 190.19 30.41 186.61 26.79 182.97 23.23 C 181.50 21.75 180.03 20.26 178.56 18.77 C 177.13 17.33 175.71 15.90 174.29 14.45 C 169.70 9.81 165.01 5.27 160.43 0.61 L 160.58 0.00 L 200.00 0.00 L 200.00 200.00 L 0.00 200.00 L 0.00 0.00 Z" fill-opacity="0"/>
<path d="M 40.00 0.00 L 40.49 0.00 L 40.79 0.18 C 47.04 4.26 54.14 7.11 61.18 9.49 C 61.10 10.66 61.01 11.82 60.92 12.99 C 57.90 12.08 54.87 11.18 51.80 10.42 C 53.61 13.50 55.74 16.35 57.73 19.30 C 60.55 23.43 61.54 27.91 63.48 32.61 C 66.74 40.39 68.31 48.84 67.87 57.28 C 65.11 55.68 62.34 54.09 59.57 52.49 C 59.88 51.50 60.40 50.46 60.45 49.42 C 58.99 37.96 54.09 28.46 48.41 18.61 C 45.76 14.25 41.31 10.95 37.78 7.28 C 38.78 6.25 39.74 5.20 40.65 4.10 C 40.46 2.93 40.27 1.76 40.08 0.60 L 40.00 0.00 Z" fill="#2c66a4"/>
<path d="M 40.49 0.00 L 160.01 0.00 C 153.93 3.55 147.69 6.35 141.08 8.75 C 132.92 11.66 124.50 13.44 115.93 14.62 C 108.94 15.53 101.90 15.93 94.86 15.60 C 89.25 15.37 83.77 14.48 78.22 13.75 C 72.46 12.76 66.76 11.27 61.18 9.49 C 54.14 7.11 47.04 4.26 40.79 0.18 L 40.49 0.00 Z" fill-opacity="0"/>
<path d="M 160.01 0.00 L 160.58 0.00 L 160.43 0.61 C 159.86 1.99 159.21 3.34 158.57 4.69 C 153.77 7.27 148.91 9.46 143.82 11.38 C 142.90 10.51 141.99 9.63 141.08 8.75 C 147.69 6.35 153.93 3.55 160.01 0.00 Z" fill="#8b9fcd"/>
<path d="M 40.08 0.60 C 40.27 1.76 40.46 2.93 40.65 4.10 C 39.74 5.20 38.78 6.25 37.78 7.28 C 35.77 9.20 33.83 11.19 31.86 13.15 C 29.75 15.19 27.71 17.31 25.63 19.38 C 23.31 21.71 21.01 24.06 18.63 26.34 C 16.06 28.79 13.63 31.37 11.23 33.99 C 9.55 34.00 7.88 34.00 6.20 34.00 C 15.67 24.53 25.14 15.07 34.57 5.57 C 36.32 3.82 38.21 2.22 40.08 0.60 Z" fill="#bdc5e2"/>
<path d="M 160.43 0.61 C 165.01 5.27 169.70 9.81 174.29 14.45 C 173.18 14.98 172.08 15.51 170.97 16.04 C 168.03 12.98 165.01 9.99 162.04 6.96 C 161.01 5.89 159.99 5.16 158.57 4.69 C 159.21 3.34 159.86 1.99 160.43 0.61 Z" fill="#778cbc"/>
<path d="M 158.57 4.69 C 159.99 5.16 161.01 5.89 162.04 6.96 C 165.01 9.99 168.03 12.98 170.97 16.04 C 172.55 17.67 174.20 19.23 175.87 20.76 C 176.77 20.10 177.66 19.44 178.56 18.77 C 180.03 20.26 181.50 21.75 182.97 23.23 C 182.77 24.36 182.63 25.49 182.55 26.62 C 184.10 29.39 186.77 31.62 188.90 33.95 C 180.40 45.68 174.09 58.33 173.04 73.00 C 172.51 88.98 174.48 105.20 177.19 120.94 C 178.83 131.01 181.78 139.94 181.28 150.01 C 181.20 157.05 176.27 163.71 170.88 167.84 C 162.26 174.40 150.30 177.46 139.90 179.88 C 130.24 181.67 120.88 182.70 111.78 186.76 C 107.27 188.62 103.50 191.53 99.99 194.87 C 94.35 189.85 87.69 186.12 80.44 184.01 C 79.32 183.69 78.19 183.39 77.06 183.09 C 78.34 181.65 79.62 180.20 80.89 178.75 C 87.59 182.62 94.26 186.51 100.98 190.31 C 113.54 180.75 127.19 179.24 142.04 175.91 C 133.69 170.90 125.20 166.10 116.76 161.25 C 114.33 159.87 111.94 158.45 109.52 157.06 C 115.15 147.67 121.94 139.42 126.02 129.10 C 132.49 132.85 138.99 136.55 145.46 140.31 C 155.60 146.15 165.68 152.11 175.91 157.80 C 177.79 153.27 178.65 148.88 177.93 143.97 C 176.71 135.43 175.04 126.93 173.63 118.41 C 170.49 116.53 167.35 114.66 164.14 112.90 C 157.79 109.24 151.45 105.56 145.11 101.89 C 152.95 99.10 160.80 96.03 168.17 92.16 C 170.19 91.18 170.07 90.48 170.37 88.33 C 159.46 94.33 147.44 98.76 135.61 102.62 C 134.68 98.66 135.92 95.30 137.03 91.57 C 140.01 91.19 141.85 89.75 144.00 87.83 C 143.56 87.33 143.13 86.82 142.70 86.32 C 140.36 87.91 140.04 88.61 137.26 87.08 C 139.23 85.43 142.50 84.01 142.77 81.16 C 142.19 78.69 140.93 78.40 138.63 78.32 C 140.58 74.27 140.06 70.27 139.90 65.94 C 145.30 64.13 150.65 62.15 155.95 60.05 C 161.45 57.85 166.84 55.38 172.04 52.53 C 175.42 51.01 176.68 48.42 178.19 45.26 C 175.70 43.81 173.20 42.38 170.68 40.97 C 157.46 33.41 144.36 25.54 131.03 18.20 C 129.05 18.61 127.09 19.14 125.12 19.59 C 123.99 18.81 122.87 18.03 121.74 17.25 C 129.25 15.79 136.66 14.11 143.82 11.38 C 148.91 9.46 153.77 7.27 158.57 4.69 Z" fill="#10457f"/>
<path d="M 37.78 7.28 C 41.31 10.95 45.76 14.25 48.41 18.61 C 54.09 28.46 58.99 37.96 60.45 49.42 C 60.40 50.46 59.88 51.50 59.57 52.49 C 57.11 51.08 54.66 49.65 52.21 48.23 C 51.31 41.58 48.59 35.71 45.87 29.66 C 44.02 25.68 41.16 22.01 38.46 18.56 C 36.70 16.23 34.41 14.54 31.86 13.15 C 33.83 11.19 35.77 9.20 37.78 7.28 Z" fill="#3e71ab"/>
<path d="M 141.08 8.75 C 141.99 9.63 142.90 10.51 143.82 11.38 C 136.66 14.11 129.25 15.79 121.74 17.25 L 119.82 17.63 C 118.51 16.65 117.21 15.64 115.93 14.62 C 124.50 13.44 132.92 11.66 141.08 8.75 Z" fill="#7592c5"/>
<path d="M 51.80 10.42 C 54.87 11.18 57.90 12.08 60.92 12.99 C 61.58 13.18 62.23 13.38 62.88 13.57 C 62.52 14.45 62.16 15.33 61.81 16.21 C 63.36 17.22 64.93 18.17 66.52 19.13 C 67.26 23.47 69.60 26.96 70.90 31.11 C 72.48 36.13 73.91 41.14 74.56 46.37 C 75.13 51.55 76.27 56.28 75.18 61.49 C 72.74 60.10 70.31 58.69 67.87 57.28 C 68.31 48.84 66.74 40.39 63.48 32.61 C 61.54 27.91 60.55 23.43 57.73 19.30 C 55.74 16.35 53.61 13.50 51.80 10.42 Z" fill="#1c5c9d"/>
<path d="M 61.18 9.49 C 66.76 11.27 72.46 12.76 78.22 13.75 C 77.77 14.82 77.34 15.89 76.91 16.97 C 72.16 16.15 67.49 14.99 62.88 13.57 C 62.23 13.38 61.58 13.18 60.92 12.99 C 61.01 11.82 61.10 10.66 61.18 9.49 Z" fill="#3b6fae"/>
<path d="M 31.86 13.15 C 34.41 14.54 36.70 16.23 38.46 18.56 C 41.16 22.01 44.02 25.68 45.87 29.66 C 48.59 35.71 51.31 41.58 52.21 48.23 C 48.33 46.03 44.49 43.76 40.64 41.52 C 40.21 36.29 36.60 31.54 33.86 27.17 C 31.78 23.84 28.88 21.50 25.63 19.38 C 27.71 17.31 29.75 15.19 31.86 13.15 Z" fill="#517db3"/>
<path d="M 62.88 13.57 C 67.49 14.99 72.16 16.15 76.91 16.97 C 83.19 18.04 89.55 18.76 95.93 18.94 C 103.91 19.10 111.90 18.67 119.82 17.63 L 121.74 17.25 C 122.87 18.03 123.99 18.81 125.12 19.59 C 122.49 20.14 119.80 20.46 117.14 20.80 C 111.87 21.46 106.61 22.07 101.29 22.10 C 88.02 22.15 74.49 20.14 61.81 16.21 C 62.16 15.33 62.52 14.45 62.88 13.57 Z" fill="#0a5095"/>
<path d="M 78.22 13.75 C 83.77 14.48 89.25 15.37 94.86 15.60 C 95.21 16.71 95.57 17.83 95.93 18.94 C 89.55 18.76 83.19 18.04 76.91 16.97 C 77.34 15.89 77.77 14.82 78.22 13.75 Z" fill="#4d7ab5"/>
<path d="M 115.93 14.62 C 117.21 15.64 118.51 16.65 119.82 17.63 C 111.90 18.67 103.91 19.10 95.93 18.94 C 95.57 17.83 95.21 16.71 94.86 15.60 C 101.90 15.93 108.94 15.53 115.93 14.62 Z" fill="#6086bd"/>
<path d="M 174.29 14.45 C 175.71 15.90 177.13 17.33 178.56 18.77 C 177.66 19.44 176.77 20.10 175.87 20.76 C 174.20 19.23 172.55 17.67 170.97 16.04 C 172.08 15.51 173.18 14.98 174.29 14.45 Z" fill="#446396"/>
<path d="M 61.81 16.21 C 74.49 20.14 88.02 22.15 101.29 22.10 C 101.16 25.68 100.67 29.23 102.44 32.52 C 105.56 38.60 113.23 42.70 120.00 41.08 C 123.83 40.16 126.96 37.83 129.34 34.73 C 133.11 40.42 134.73 46.73 136.91 53.11 C 137.69 55.54 138.10 58.03 138.45 60.55 C 133.18 57.53 127.91 54.48 122.64 51.44 C 103.91 40.71 85.29 29.79 66.52 19.13 C 64.93 18.17 63.36 17.22 61.81 16.21 Z" fill="#fbfbfb"/>
<path d="M 131.03 18.20 C 144.36 25.54 157.46 33.41 170.68 40.97 C 170.11 43.49 169.71 45.90 170.31 48.45 C 168.38 46.88 166.67 45.43 164.01 45.58 C 160.53 45.48 157.41 48.18 156.46 51.43 C 155.51 54.31 155.75 57.08 155.95 60.05 C 150.65 62.15 145.30 64.13 139.90 65.94 C 136.35 67.12 132.79 68.24 129.20 69.27 C 128.78 68.57 128.36 67.87 127.94 67.16 C 132.66 65.77 137.36 64.35 142.00 62.67 C 140.82 61.96 139.63 61.26 138.45 60.55 C 138.10 58.03 137.69 55.54 136.91 53.11 C 134.73 46.73 133.11 40.42 129.34 34.73 C 130.01 32.47 130.68 30.42 129.93 28.07 C 129.09 24.76 125.21 22.64 121.98 22.76 C 119.98 23.10 118.15 24.54 116.37 25.47 C 116.63 23.91 116.89 22.36 117.14 20.80 C 119.80 20.46 122.49 20.14 125.12 19.59 C 127.09 19.14 129.05 18.61 131.03 18.20 Z" fill="#f1f1f2"/>
<path d="M 25.63 19.38 C 28.88 21.50 31.78 23.84 33.86 27.17 C 36.60 31.54 40.21 36.29 40.64 41.52 C 33.90 37.72 27.21 33.81 20.57 29.85 C 19.90 28.70 19.29 27.51 18.63 26.34 C 21.01 24.06 23.31 21.71 25.63 19.38 Z" fill="#668bbc"/>
<path d="M 66.52 19.13 C 85.29 29.79 103.91 40.71 122.64 51.44 C 123.13 57.18 123.02 62.88 122.81 68.62 C 114.39 70.65 105.74 73.23 97.11 73.90 C 89.63 70.24 82.49 65.54 75.18 61.49 C 76.27 56.28 75.13 51.55 74.56 46.37 C 73.91 41.14 72.48 36.13 70.90 31.11 C 69.60 26.96 67.26 23.47 66.52 19.13 Z" fill="#0a5095"/>
<path d="M 117.14 20.80 C 116.89 22.36 116.63 23.91 116.37 25.47 C 118.15 24.54 119.98 23.10 121.98 22.76 C 125.21 22.64 129.09 24.76 129.93 28.07 C 130.68 30.42 130.01 32.47 129.34 34.73 C 126.96 37.83 123.83 40.16 120.00 41.08 C 113.23 42.70 105.56 38.60 102.44 32.52 C 100.67 29.23 101.16 25.68 101.29 22.10 C 106.61 22.07 111.87 21.46 117.14 20.80 Z" fill="#d81e05"/>
<path d="M 182.97 23.23 C 186.61 26.79 190.19 30.41 193.82 33.98 C 190.77 36.94 188.03 40.13 185.95 43.86 C 181.01 52.51 177.62 62.19 176.36 72.09 C 175.55 84.10 177.35 96.84 178.66 108.80 C 179.78 115.53 180.68 122.28 182.03 128.96 C 183.29 138.19 186.38 147.85 183.03 157.00 C 180.26 165.14 173.96 170.66 166.51 174.52 C 154.21 180.89 139.29 182.81 125.98 185.88 C 116.10 188.22 106.90 192.18 100.02 199.89 C 100.01 198.22 100.00 196.54 99.99 194.87 C 103.50 191.53 107.27 188.62 111.78 186.76 C 120.88 182.70 130.24 181.67 139.90 179.88 C 150.30 177.46 162.26 174.40 170.88 167.84 C 176.27 163.71 181.20 157.05 181.28 150.01 C 181.78 139.94 178.83 131.01 177.19 120.94 C 174.48 105.20 172.51 88.98 173.04 73.00 C 174.09 58.33 180.40 45.68 188.90 33.95 C 186.77 31.62 184.10 29.39 182.55 26.62 C 182.63 25.49 182.77 24.36 182.97 23.23 Z" fill="#002d63"/>
<path d="M 18.63 26.34 C 19.29 27.51 19.90 28.70 20.57 29.85 L 19.92 29.72 C 18.20 31.09 16.61 32.59 15.03 34.11 C 21.25 42.38 25.41 51.86 28.15 61.80 C 29.28 65.93 29.44 70.27 30.77 74.27 C 29.59 75.93 28.36 77.57 27.23 79.28 C 27.42 72.27 26.49 65.34 24.11 58.73 C 21.08 49.81 17.27 41.31 11.23 33.99 C 13.63 31.37 16.06 28.79 18.63 26.34 Z" fill="#89a1cb"/>
<path d="M 19.92 29.72 L 20.57 29.85 C 27.21 33.81 33.90 37.72 40.64 41.52 C 44.49 43.76 48.33 46.03 52.21 48.23 C 54.66 49.65 57.11 51.08 59.57 52.49 C 62.34 54.09 65.11 55.68 67.87 57.28 C 70.31 58.69 72.74 60.10 75.18 61.49 C 82.49 65.54 89.63 70.24 97.11 73.90 C 105.74 73.23 114.39 70.65 122.81 68.62 C 124.52 68.14 126.23 67.65 127.94 67.16 C 128.36 67.87 128.78 68.57 129.20 69.27 C 127.14 69.84 125.09 70.45 123.02 71.01 C 116.89 72.65 110.73 74.12 104.50 75.31 C 93.36 77.16 82.34 79.84 71.48 82.95 C 68.44 83.80 65.41 84.73 62.41 85.72 C 59.90 86.52 57.40 87.37 54.92 88.27 C 51.71 89.39 48.54 90.62 45.41 91.95 C 39.46 94.21 34.02 97.38 28.39 100.26 C 28.99 98.69 28.84 97.30 30.52 96.48 C 37.27 92.44 45.01 89.51 52.29 86.56 C 48.32 84.20 44.30 81.94 40.30 79.63 C 38.60 78.64 36.92 77.62 35.19 76.67 C 33.72 75.87 32.23 75.09 30.77 74.27 C 29.44 70.27 29.28 65.93 28.15 61.80 C 25.41 51.86 21.25 42.38 15.03 34.11 C 16.61 32.59 18.20 31.09 19.92 29.72 Z" fill="#fefefe"/>
<path d="M 6.20 34.00 C 7.88 34.00 9.55 34.00 11.23 33.99 C 17.27 41.31 21.08 49.81 24.11 58.73 C 23.02 58.91 21.94 59.08 20.85 59.25 C 17.81 49.91 13.44 40.83 6.20 34.00 Z" fill="#326aab"/>
<path d="M 170.68 40.97 C 173.20 42.38 175.70 43.81 178.19 45.26 C 176.68 48.42 175.42 51.01 172.04 52.53 C 171.47 51.17 170.90 49.81 170.31 48.45 C 169.71 45.90 170.11 43.49 170.68 40.97 Z" fill="#d9dadc"/>
<path d="M 164.01 45.58 C 166.67 45.43 168.38 46.88 170.31 48.45 C 170.90 49.81 171.47 51.17 172.04 52.53 C 166.84 55.38 161.45 57.85 155.95 60.05 C 155.75 57.08 155.51 54.31 156.46 51.43 C 157.41 48.18 160.53 45.48 164.01 45.58 Z" fill="#d81e05"/>
<path d="M 47.57 52.45 C 49.63 54.79 48.80 57.18 48.85 60.00 C 50.66 58.71 52.59 56.60 54.99 56.98 C 58.33 57.54 61.48 59.44 62.26 62.96 C 63.45 67.99 59.43 72.24 55.22 74.24 C 46.61 78.74 34.91 72.38 33.29 63.00 C 32.78 58.99 33.10 55.03 35.93 51.93 C 39.09 48.59 44.71 48.84 47.57 52.45 Z" fill="#d81e05"/>
<path d="M 122.64 51.44 C 127.91 54.48 133.18 57.53 138.45 60.55 C 139.63 61.26 140.82 61.96 142.00 62.67 C 137.36 64.35 132.66 65.77 127.94 67.16 C 126.23 67.65 124.52 68.14 122.81 68.62 C 123.02 62.88 123.13 57.18 122.64 51.44 Z" fill="#0d4b8b"/>
<path d="M 20.85 59.25 C 21.94 59.08 23.02 58.91 24.11 58.73 C 26.49 65.34 27.42 72.27 27.23 79.28 C 26.85 80.85 26.48 82.43 26.11 84.01 C 25.28 84.44 24.46 84.87 23.63 85.30 C 24.59 76.36 23.50 67.80 20.85 59.25 Z" fill="#5b82ba"/>
<path d="M 139.90 65.94 C 140.06 70.27 140.58 74.27 138.63 78.32 C 135.90 79.79 133.70 81.62 133.64 84.98 C 133.47 87.96 134.85 89.77 137.03 91.57 C 135.92 95.30 134.68 98.66 135.61 102.62 C 129.29 104.62 122.91 106.46 116.45 107.98 C 115.89 104.04 117.42 100.86 118.44 97.17 C 119.69 96.80 120.94 96.42 122.18 96.04 C 121.95 93.18 121.68 90.32 121.57 87.47 L 122.68 85.21 C 124.19 88.37 125.69 91.52 127.15 94.70 C 128.01 94.42 128.87 94.14 129.73 93.86 C 130.63 89.74 131.39 85.59 132.14 81.44 C 131.16 81.57 130.19 81.69 129.21 81.82 C 128.99 84.53 128.78 87.24 128.58 89.94 C 127.66 87.53 126.79 85.09 125.93 82.65 L 124.12 83.53 L 122.37 82.55 C 122.42 78.70 122.81 74.85 123.02 71.01 C 125.09 70.45 127.14 69.84 129.20 69.27 C 132.79 68.24 136.35 67.12 139.90 65.94 Z" fill="#0d4a89"/>
<path d="M 162.16 69.27 C 164.58 72.04 165.05 76.59 166.03 80.05 C 164.93 80.62 163.82 81.18 162.72 81.74 C 161.69 78.81 161.53 74.62 158.96 72.67 C 158.22 76.22 159.15 79.40 160.17 82.76 C 159.08 83.33 158.00 83.91 156.92 84.48 C 155.77 80.75 154.72 77.01 153.84 73.20 C 154.73 72.62 155.63 72.03 156.52 71.45 C 156.80 72.02 157.09 72.59 157.37 73.17 C 158.80 71.35 159.45 69.25 162.16 69.27 Z" fill="#fefefe"/>
<path d="M 123.02 71.01 C 122.81 74.85 122.42 78.70 122.37 82.55 L 124.12 83.53 C 123.54 83.82 122.97 84.10 122.40 84.39 L 122.68 85.21 L 121.57 87.47 C 121.12 86.49 120.60 85.56 120.01 84.69 C 119.09 84.73 118.16 84.81 117.23 84.92 C 116.71 85.75 116.19 86.59 115.69 87.43 C 114.34 85.90 113.18 86.41 111.36 86.39 C 111.65 90.44 111.88 94.47 111.99 98.54 C 113.30 98.23 114.62 97.93 115.93 97.62 C 115.52 94.26 115.23 91.05 116.07 87.72 L 117.62 88.85 C 118.40 91.45 118.34 94.46 118.44 97.17 C 117.42 100.86 115.89 104.04 116.45 107.98 C 109.02 109.90 101.35 111.10 93.81 112.58 C 77.19 116.17 60.52 120.76 44.81 127.32 L 42.29 128.35 L 40.04 127.88 C 47.00 123.49 51.80 117.09 58.06 111.92 C 58.82 111.61 59.58 111.30 60.35 110.99 C 59.94 108.51 59.51 106.04 59.06 103.57 C 60.37 103.14 61.68 102.70 62.98 102.27 C 63.36 104.82 63.77 107.37 64.19 109.91 C 65.41 109.47 66.63 109.03 67.85 108.60 C 67.36 104.91 66.97 101.22 66.37 97.55 C 68.79 93.05 71.50 88.19 71.48 82.95 C 82.34 79.84 93.36 77.16 104.50 75.31 C 110.73 74.12 116.89 72.65 123.02 71.01 Z" fill="#0a5095"/>
<path d="M 30.77 74.27 C 32.23 75.09 33.72 75.87 35.19 76.67 C 31.93 83.90 26.62 87.78 26.26 96.06 C 25.09 96.03 23.93 95.99 22.76 95.95 C 23.03 92.40 23.35 88.85 23.63 85.30 C 24.46 84.87 25.28 84.44 26.11 84.01 C 26.48 82.43 26.85 80.85 27.23 79.28 C 28.36 77.57 29.59 75.93 30.77 74.27 Z" fill="#7392c2"/>
<path d="M 151.02 74.74 C 153.08 75.22 153.37 77.81 152.41 79.39 C 151.16 80.87 149.36 81.96 147.83 83.12 C 150.57 84.93 150.77 83.93 153.16 82.48 L 154.54 83.83 C 152.85 85.28 151.05 87.18 148.83 87.73 C 145.56 87.38 143.98 83.96 144.12 80.99 C 144.05 77.61 147.60 73.91 151.02 74.74 Z" fill="#fefefe"/>
<path d="M 35.19 76.67 C 36.92 77.62 38.60 78.64 40.30 79.63 C 38.32 83.33 36.87 86.94 34.22 90.25 C 31.70 93.38 28.61 96.00 26.06 99.12 C 26.13 98.10 26.20 97.08 26.26 96.06 C 26.62 87.78 31.93 83.90 35.19 76.67 Z" fill="#6389bb"/>
<path d="M 148.05 77.27 L 150.47 76.66 C 149.97 79.21 149.91 79.58 147.58 80.87 C 147.68 79.66 147.78 78.46 148.05 77.27 Z" fill="#4b739f"/>
<path d="M 138.63 78.32 C 140.93 78.40 142.19 78.69 142.77 81.16 C 142.50 84.01 139.23 85.43 137.26 87.08 C 140.04 88.61 140.36 87.91 142.70 86.32 C 143.13 86.82 143.56 87.33 144.00 87.83 C 141.85 89.75 140.01 91.19 137.03 91.57 C 134.85 89.77 133.47 87.96 133.64 84.98 C 133.70 81.62 135.90 79.79 138.63 78.32 Z" fill="#fefefe"/>
<path d="M 40.30 79.63 C 44.30 81.94 48.32 84.20 52.29 86.56 C 45.01 89.51 37.27 92.44 30.52 96.48 C 28.84 97.30 28.99 98.69 28.39 100.26 C 34.02 97.38 39.46 94.21 45.41 91.95 C 44.63 97.47 38.83 102.09 35.36 106.17 C 35.81 106.73 36.26 107.28 36.72 107.83 C 34.15 108.15 32.75 109.47 31.05 111.25 C 28.91 113.15 26.42 114.35 23.82 115.45 C 24.62 110.02 25.42 104.58 26.06 99.12 C 28.61 96.00 31.70 93.38 34.22 90.25 C 36.87 86.94 38.32 83.33 40.30 79.63 Z" fill="#4c7ab1"/>
<path d="M 138.14 80.60 C 138.89 80.66 139.64 80.75 140.39 80.87 C 139.68 83.42 139.13 83.67 136.69 84.61 C 137.10 83.31 137.24 81.66 138.14 80.60 Z" fill="#517aa6"/>
<path d="M 129.21 81.82 C 130.19 81.69 131.16 81.57 132.14 81.44 C 131.39 85.59 130.63 89.74 129.73 93.86 C 128.87 94.14 128.01 94.42 127.15 94.70 C 125.69 91.52 124.19 88.37 122.68 85.21 L 122.40 84.39 C 122.97 84.10 123.54 83.82 124.12 83.53 L 125.93 82.65 C 126.79 85.09 127.66 87.53 128.58 89.94 C 128.78 87.24 128.99 84.53 129.21 81.82 Z" fill="#fefefe"/>
<path d="M 71.48 82.95 C 71.50 88.19 68.79 93.05 66.37 97.55 C 66.08 95.87 65.80 94.18 65.51 92.49 C 64.33 92.80 63.14 93.10 61.96 93.41 C 62.18 90.85 62.45 88.30 62.41 85.72 C 65.41 84.73 68.44 83.80 71.48 82.95 Z" fill="#1c5c9d"/>
<path d="M 117.23 84.92 C 118.16 84.81 119.09 84.73 120.01 84.69 C 120.60 85.56 121.12 86.49 121.57 87.47 C 121.68 90.32 121.95 93.18 122.18 96.04 C 120.94 96.42 119.69 96.80 118.44 97.17 C 118.34 94.46 118.40 91.45 117.62 88.85 L 116.07 87.72 C 115.23 91.05 115.52 94.26 115.93 97.62 C 114.62 97.93 113.30 98.23 111.99 98.54 C 111.88 94.47 111.65 90.44 111.36 86.39 C 113.18 86.41 114.34 85.90 115.69 87.43 C 116.19 86.59 116.71 85.75 117.23 84.92 Z" fill="#fefefe"/>
<path d="M 62.41 85.72 C 62.45 88.30 62.18 90.85 61.96 93.41 C 62.07 95.38 62.41 97.39 62.70 99.35 C 61.38 99.79 60.06 100.24 58.74 100.68 C 58.47 98.68 58.19 96.67 57.90 94.67 C 56.65 95.09 55.39 95.51 54.13 95.93 C 54.40 97.93 54.66 99.92 54.95 101.91 C 53.02 104.86 50.95 107.60 48.63 110.25 C 48.74 110.91 48.86 111.57 48.98 112.22 C 48.03 112.72 47.06 113.10 46.05 113.38 C 44.00 112.05 43.57 109.59 44.39 107.40 C 45.20 106.49 46.44 105.94 47.45 105.28 C 47.41 104.57 47.37 103.85 47.34 103.14 C 48.18 99.88 50.26 97.76 51.95 94.97 C 53.25 92.84 54.04 90.59 54.92 88.27 C 57.40 87.37 59.90 86.52 62.41 85.72 Z" fill="#2b65a3"/>
<path d="M 106.00 87.90 C 108.28 87.77 109.17 88.81 109.46 90.98 C 108.61 93.83 105.43 94.59 103.14 95.95 C 105.31 97.99 106.89 96.59 109.33 96.13 C 109.29 99.69 102.30 102.29 100.58 98.43 C 98.21 94.30 100.78 87.80 106.00 87.90 Z" fill="#fefefe"/>
<path d="M 54.92 88.27 C 54.04 90.59 53.25 92.84 51.95 94.97 C 50.26 97.76 48.18 99.88 47.34 103.14 C 45.13 104.01 42.92 104.35 41.59 106.54 C 40.30 108.48 40.37 110.52 40.53 112.74 C 40.37 113.59 40.21 114.44 40.07 115.30 C 38.11 114.06 36.24 112.71 34.47 111.22 C 35.55 110.48 36.64 109.75 37.72 109.01 L 36.72 107.83 C 36.26 107.28 35.81 106.73 35.36 106.17 C 38.83 102.09 44.63 97.47 45.41 91.95 C 48.54 90.62 51.71 89.39 54.92 88.27 Z" fill="#3b6faa"/>
<path d="M 99.25 88.63 C 99.14 89.90 99.03 91.17 98.90 92.44 C 97.93 93.18 96.14 93.72 95.78 94.98 C 95.39 97.15 95.63 99.46 95.67 101.66 C 94.45 101.89 93.24 102.12 92.03 102.34 C 92.03 98.46 91.90 94.59 91.71 90.72 C 92.86 90.47 94.02 90.23 95.18 89.98 L 95.03 92.55 C 96.23 90.66 96.85 89.17 99.25 88.63 Z" fill="#fefefe"/>
<path d="M 170.37 88.33 C 170.07 90.48 170.19 91.18 168.17 92.16 C 160.80 96.03 152.95 99.10 145.11 101.89 C 151.45 105.56 157.79 109.24 164.14 112.90 C 163.05 114.45 162.03 116.03 161.00 117.62 C 157.85 117.43 155.89 118.62 153.39 120.31 C 155.91 114.40 149.98 108.41 144.13 110.26 C 138.68 112.03 136.96 118.95 138.17 123.98 C 139.44 129.35 143.31 132.96 148.16 135.24 C 147.26 136.93 146.36 138.62 145.46 140.31 C 138.99 136.55 132.49 132.85 126.02 129.10 C 121.73 126.64 117.47 124.15 113.18 121.70 C 108.73 119.19 104.36 116.54 99.90 114.06 C 84.82 116.41 69.86 120.91 55.37 125.66 C 68.76 133.61 82.37 141.30 95.84 149.15 C 100.40 151.79 104.96 154.42 109.52 157.06 C 111.94 158.45 114.33 159.87 116.76 161.25 C 114.30 162.23 111.84 163.09 109.26 163.69 C 107.36 162.21 105.53 160.90 103.02 160.83 C 100.73 160.68 98.90 162.46 97.12 163.68 C 97.34 160.22 97.96 157.49 94.80 155.17 C 90.84 151.61 85.09 153.33 82.78 157.80 C 80.45 163.13 81.28 169.68 85.18 174.07 C 82.83 175.07 80.49 176.09 78.16 177.13 C 74.29 174.86 70.38 172.63 66.47 170.41 C 51.69 161.86 36.91 153.30 22.10 144.79 C 22.27 142.97 22.44 141.15 22.61 139.32 C 23.92 138.39 25.24 137.46 26.58 136.56 C 27.31 136.11 28.04 135.66 28.78 135.24 C 29.96 139.72 31.79 143.63 35.83 146.20 C 42.85 151.28 53.45 149.45 57.64 141.64 C 59.84 137.01 57.12 131.60 52.03 130.81 C 48.91 130.08 47.02 131.73 44.58 133.30 C 44.77 131.31 44.85 129.33 44.81 127.32 C 60.52 120.76 77.19 116.17 93.81 112.58 C 101.35 111.10 109.02 109.90 116.45 107.98 C 122.91 106.46 129.29 104.62 135.61 102.62 C 147.44 98.76 159.46 94.33 170.37 88.33 Z" fill="#f2f2f3"/>
<path d="M 106.51 89.61 C 106.24 90.62 105.96 91.64 105.69 92.65 C 104.77 92.87 103.84 93.05 102.90 93.20 C 103.89 91.10 103.87 90.02 106.51 89.61 Z" fill="#467aaf"/>
<path d="M 65.51 92.49 C 65.80 94.18 66.08 95.87 66.37 97.55 C 66.97 101.22 67.36 104.91 67.85 108.60 C 66.63 109.03 65.41 109.47 64.19 109.91 C 63.77 107.37 63.36 104.82 62.98 102.27 C 61.68 102.70 60.37 103.14 59.06 103.57 C 59.51 106.04 59.94 108.51 60.35 110.99 C 59.58 111.30 58.82 111.61 58.06 111.92 L 56.52 111.85 C 55.97 108.54 55.48 105.22 54.95 101.91 C 54.66 99.92 54.40 97.93 54.13 95.93 C 55.39 95.51 56.65 95.09 57.90 94.67 C 58.19 96.67 58.47 98.68 58.74 100.68 C 60.06 100.24 61.38 99.79 62.70 99.35 C 62.41 97.39 62.07 95.38 61.96 93.41 C 63.14 93.10 64.33 92.80 65.51 92.49 Z" fill="#fefefe"/>
<path d="M 85.02 91.88 C 87.43 91.15 89.68 92.24 89.51 94.97 C 88.92 97.54 85.67 98.61 83.70 99.96 C 84.44 100.41 85.19 100.86 85.94 101.28 C 87.01 100.86 88.06 100.40 89.09 99.90 C 89.39 100.50 89.68 101.10 89.98 101.70 C 87.85 102.88 84.71 105.56 82.29 103.75 C 78.27 100.57 80.02 93.08 85.02 91.88 Z" fill="#fefefe"/>
<path d="M 84.39 94.30 C 85.13 93.92 86.04 93.84 87.10 94.07 C 86.38 96.36 85.84 96.66 83.65 97.66 C 83.85 96.53 84.10 95.41 84.39 94.30 Z" fill="#4277ad"/>
<path d="M 73.96 94.62 C 75.90 94.18 78.22 94.63 78.22 97.03 C 78.55 100.09 74.85 101.13 72.80 102.44 C 74.72 104.80 76.82 103.08 79.37 102.99 C 77.77 105.31 75.91 107.04 72.99 107.41 C 67.15 105.78 68.17 95.70 73.96 94.62 Z" fill="#fefefe"/>
<path d="M 22.76 95.95 C 23.93 95.99 25.09 96.03 26.26 96.06 C 26.20 97.08 26.13 98.10 26.06 99.12 C 25.42 104.58 24.62 110.02 23.82 115.45 C 23.55 117.04 23.27 118.62 23.01 120.21 C 21.83 120.40 20.65 120.61 19.47 120.82 C 20.71 112.52 22.28 104.34 22.76 95.95 Z" fill="#839ac9"/>
<path d="M 75.04 96.61 C 77.00 98.57 73.89 99.55 72.64 100.53 C 73.28 98.45 72.06 96.57 75.04 96.61 Z" fill="#4b7db0"/>
<path d="M 54.95 101.91 C 55.48 105.22 55.97 108.54 56.52 111.85 L 58.06 111.92 C 51.80 117.09 47.00 123.49 40.04 127.88 L 42.29 128.35 C 37.70 130.45 33.15 132.71 28.78 135.24 C 28.04 135.66 27.31 136.11 26.58 136.56 C 23.33 136.02 22.28 136.85 19.86 138.80 C 20.22 136.58 20.57 134.35 20.95 132.13 C 21.29 130.42 21.61 128.70 21.91 126.98 C 26.55 125.09 30.66 123.70 33.23 119.03 C 33.32 119.88 33.40 120.73 33.49 121.58 C 35.30 120.99 37.92 120.67 39.17 119.14 C 39.73 117.97 39.77 116.56 40.07 115.30 C 40.21 114.44 40.37 113.59 40.53 112.74 C 41.56 114.40 42.02 116.26 44.19 116.64 C 46.47 117.20 48.57 114.99 50.33 113.85 C 49.88 113.31 49.43 112.76 48.98 112.22 C 48.86 111.57 48.74 110.91 48.63 110.25 C 50.95 107.60 53.02 104.86 54.95 101.91 Z" fill="#1d5c9d"/>
<path d="M 47.34 103.14 C 47.37 103.85 47.41 104.57 47.45 105.28 C 46.44 105.94 45.20 106.49 44.39 107.40 C 43.57 109.59 44.00 112.05 46.05 113.38 C 47.06 113.10 48.03 112.72 48.98 112.22 C 49.43 112.76 49.88 113.31 50.33 113.85 C 48.57 114.99 46.47 117.20 44.19 116.64 C 42.02 116.26 41.56 114.40 40.53 112.74 C 40.37 110.52 40.30 108.48 41.59 106.54 C 42.92 104.35 45.13 104.01 47.34 103.14 Z" fill="#fefefe"/>
<path d="M 36.72 107.83 L 37.72 109.01 C 36.64 109.75 35.55 110.48 34.47 111.22 C 36.24 112.71 38.11 114.06 40.07 115.30 C 39.77 116.56 39.73 117.97 39.17 119.14 C 37.92 120.67 35.30 120.99 33.49 121.58 C 33.40 120.73 33.32 119.88 33.23 119.03 C 34.38 118.78 35.53 118.52 36.68 118.27 C 34.89 115.36 31.77 114.87 31.05 111.25 C 32.75 109.47 34.15 108.15 36.72 107.83 Z" fill="#fefefe"/>
<path d="M 144.13 110.26 C 149.98 108.41 155.91 114.40 153.39 120.31 C 155.89 118.62 157.85 117.43 161.00 117.62 C 164.07 118.83 166.63 120.47 167.22 123.96 C 167.94 128.54 164.72 131.94 161.14 134.18 C 157.19 136.59 152.50 136.31 148.16 135.24 C 143.31 132.96 139.44 129.35 138.17 123.98 C 136.96 118.95 138.68 112.03 144.13 110.26 Z" fill="#d81e05"/>
<path d="M 31.05 111.25 C 31.77 114.87 34.89 115.36 36.68 118.27 C 35.53 118.52 34.38 118.78 33.23 119.03 C 30.66 123.70 26.55 125.09 21.91 126.98 C 22.29 124.73 22.66 122.47 23.01 120.21 C 23.27 118.62 23.55 117.04 23.82 115.45 C 26.42 114.35 28.91 113.15 31.05 111.25 Z" fill="#336aa7"/>
<path d="M 164.14 112.90 C 167.35 114.66 170.49 116.53 173.63 118.41 C 175.04 126.93 176.71 135.43 177.93 143.97 C 178.65 148.88 177.79 153.27 175.91 157.80 C 165.68 152.11 155.60 146.15 145.46 140.31 C 146.36 138.62 147.26 136.93 148.16 135.24 C 152.50 136.31 157.19 136.59 161.14 134.18 C 164.72 131.94 167.94 128.54 167.22 123.96 C 166.63 120.47 164.07 118.83 161.00 117.62 C 162.03 116.03 163.05 114.45 164.14 112.90 Z" fill="#d6d7d9"/>
<path d="M 99.90 114.06 C 104.36 116.54 108.73 119.19 113.18 121.70 C 112.24 124.21 111.43 126.70 110.03 129.01 C 105.64 136.12 101.84 143.20 95.84 149.15 C 82.37 141.30 68.76 133.61 55.37 125.66 C 69.86 120.91 84.82 116.41 99.90 114.06 Z" fill="#0a5095"/>
<path d="M 23.01 120.21 C 22.66 122.47 22.29 124.73 21.91 126.98 C 21.61 128.70 21.29 130.42 20.95 132.13 C 19.64 133.29 18.28 134.37 16.91 135.45 C 17.76 130.58 18.57 125.69 19.47 120.82 C 20.65 120.61 21.83 120.40 23.01 120.21 Z" fill="#6689bf"/>
<path d="M 113.18 121.70 C 117.47 124.15 121.73 126.64 126.02 129.10 C 121.94 139.42 115.15 147.67 109.52 157.06 C 104.96 154.42 100.40 151.79 95.84 149.15 C 101.84 143.20 105.64 136.12 110.03 129.01 C 111.43 126.70 112.24 124.21 113.18 121.70 Z" fill="#0e4987"/>
<path d="M 42.29 128.35 L 44.81 127.32 C 44.85 129.33 44.77 131.31 44.58 133.30 C 47.02 131.73 48.91 130.08 52.03 130.81 C 57.12 131.60 59.84 137.01 57.64 141.64 C 53.45 149.45 42.85 151.28 35.83 146.20 C 31.79 143.63 29.96 139.72 28.78 135.24 C 33.15 132.71 37.70 130.45 42.29 128.35 Z" fill="#d81e05"/>
<path d="M 20.95 132.13 C 20.57 134.35 20.22 136.58 19.86 138.80 C 19.23 142.89 18.61 146.91 18.88 151.08 C 17.81 150.62 16.73 150.19 15.65 149.77 C 15.49 144.95 16.04 140.19 16.91 135.45 C 18.28 134.37 19.64 133.29 20.95 132.13 Z" fill="#4877b3"/>
<path d="M 26.58 136.56 C 25.24 137.46 23.92 138.39 22.61 139.32 C 22.44 141.15 22.27 142.97 22.10 144.79 C 36.91 153.30 51.69 161.86 66.47 170.41 C 62.46 172.91 58.58 175.63 54.61 178.21 C 50.38 177.20 46.19 176.03 42.07 174.63 C 39.37 173.59 36.74 172.40 34.10 171.23 L 33.73 171.06 C 30.16 168.63 26.09 165.97 23.54 162.44 C 21.02 159.01 20.13 155.06 18.88 151.08 C 18.61 146.91 19.23 142.89 19.86 138.80 C 22.28 136.85 23.33 136.02 26.58 136.56 Z" fill="#0a5095"/>
<path d="M 15.65 149.77 C 16.73 150.19 17.81 150.62 18.88 151.08 C 20.13 155.06 21.02 159.01 23.54 162.44 C 26.09 165.97 30.16 168.63 33.73 171.06 C 32.45 171.51 31.18 171.98 29.91 172.46 C 21.82 167.48 16.01 159.50 15.65 149.77 Z" fill="#2a66a8"/>
<path d="M 94.80 155.17 C 97.96 157.49 97.34 160.22 97.12 163.68 C 98.90 162.46 100.73 160.68 103.02 160.83 C 105.53 160.90 107.36 162.21 109.26 163.69 C 110.62 166.42 111.37 169.05 110.01 171.96 C 107.15 177.86 99.27 180.89 93.12 178.86 C 90.03 178.01 87.52 176.21 85.18 174.07 C 81.28 169.68 80.45 163.13 82.78 157.80 C 85.09 153.33 90.84 151.61 94.80 155.17 Z" fill="#d81e05"/>
<path d="M 116.76 161.25 C 125.20 166.10 133.69 170.90 142.04 175.91 C 127.19 179.24 113.54 180.75 100.98 190.31 C 94.26 186.51 87.59 182.62 80.89 178.75 C 79.98 178.21 79.07 177.67 78.16 177.13 C 80.49 176.09 82.83 175.07 85.18 174.07 C 87.52 176.21 90.03 178.01 93.12 178.86 C 99.27 180.89 107.15 177.86 110.01 171.96 C 111.37 169.05 110.62 166.42 109.26 163.69 C 111.84 163.09 114.30 162.23 116.76 161.25 Z" fill="#d6d7d9"/>
<path d="M 33.73 171.06 L 34.10 171.23 C 36.74 172.40 39.37 173.59 42.07 174.63 C 40.43 175.13 38.82 175.70 37.21 176.28 C 34.71 175.17 32.22 173.93 29.91 172.46 C 31.18 171.98 32.45 171.51 33.73 171.06 Z" fill="#5883ba"/>
<path d="M 66.47 170.41 C 70.38 172.63 74.29 174.86 78.16 177.13 C 79.07 177.67 79.98 178.21 80.89 178.75 C 79.62 180.20 78.34 181.65 77.06 183.09 C 75.43 182.67 73.80 182.28 72.15 181.94 C 68.84 181.21 65.54 180.49 62.19 179.95 C 59.64 179.47 57.13 178.83 54.61 178.21 C 58.58 175.63 62.46 172.91 66.47 170.41 Z" fill="#0d4b8a"/>
<path d="M 42.07 174.63 C 46.19 176.03 50.38 177.20 54.61 178.21 C 57.13 178.83 59.64 179.47 62.19 179.95 C 61.36 180.92 60.55 181.91 59.75 182.91 C 52.13 181.26 44.41 179.33 37.21 176.28 C 38.82 175.70 40.43 175.13 42.07 174.63 Z" fill="#7c96c7"/>
<path d="M 62.19 179.95 C 65.54 180.49 68.84 181.21 72.15 181.94 C 71.65 182.99 71.16 184.04 70.69 185.10 C 67.04 184.37 63.39 183.70 59.75 182.91 C 60.55 181.91 61.36 180.92 62.19 179.95 Z" fill="#5681b9"/>
<path d="M 72.15 181.94 C 73.80 182.28 75.43 182.67 77.06 183.09 C 78.19 183.39 79.32 183.69 80.44 184.01 C 79.92 185.07 79.41 186.13 78.91 187.20 C 76.19 186.43 73.45 185.72 70.69 185.10 C 71.16 184.04 71.65 182.99 72.15 181.94 Z" fill="#3c73b1"/>
<path d="M 80.44 184.01 C 87.69 186.12 94.35 189.85 99.99 194.87 C 100.00 196.54 100.01 198.22 100.02 199.89 C 94.34 193.57 86.98 189.60 78.91 187.20 C 79.41 186.13 79.92 185.07 80.44 184.01 Z" fill="#1d60a5"/>
</svg>