<?xml version="1.0" encoding="UTF-8" standalone="no"?>
<!DOCTYPE svg PUBLIC "-//W3C//DTD SVG 1.1//EN" "http://www.w3.org/Graphics/SVG/1.1/DTD/svg11.dtd">
<svg xmlns="http://www.w3.org/2000/svg" version="1.1" viewBox="0 0 200 200" width="200.0pt" height="200.0pt">
<path d="M 0.00 0.00 L 200.00 0.00 L 200.00 95.89 C 198.89 79.87 194.73 64.31 186.60 50.40 C 175.80 31.62 158.76 16.56 138.76 8.22 C 126.76 3.10 113.99 0.79 100.99 0.28 C 84.37 0.51 67.88 4.25 53.20 12.16 C 30.35 24.24 12.76 45.36 5.00 70.02 C 2.10 78.98 1.01 87.96 0.00 97.29 L 0.00 0.00 Z" fill-opacity="0"/>
<path d="M 100.99 0.28 C 113.99 0.79 126.76 3.10 138.76 8.22 C 158.76 16.56 175.80 31.62 186.60 50.40 C 194.73 64.31 198.89 79.87 200.00 95.89 L 200.00 105.20 C 198.72 121.13 194.60 136.59 186.44 150.41 C 175.43 169.44 158.09 184.49 137.71 192.72 C 127.63 196.88 117.01 199.01 106.19 200.00 L 93.74 200.00 C 77.70 198.57 62.15 194.09 48.40 185.61 C 29.76 174.39 15.15 156.99 7.23 136.74 C 2.77 125.77 1.03 114.32 0.00 102.59 L 0.00 97.29 C 1.01 87.96 2.10 78.98 5.00 70.02 C 12.76 45.36 30.35 24.24 53.20 12.16 C 67.88 4.25 84.37 0.51 100.99 0.28 Z" fill="#bba26e"/>
<path d="M 88.23 5.29 C 104.98 3.19 122.25 5.57 137.77 12.24 C 155.24 19.68 170.31 32.46 180.60 48.41 C 189.94 62.84 195.27 79.82 195.75 97.01 C 196.41 114.55 192.10 132.16 183.43 147.42 C 169.98 171.35 146.00 188.77 119.06 194.08 C 97.74 198.31 75.14 195.28 55.89 185.12 C 30.77 172.13 12.13 147.71 6.47 119.97 C 1.82 98.02 5.16 74.58 15.86 54.85 C 30.25 27.88 57.85 8.90 88.23 5.29 Z" fill="#030000"/>
<path d="M 97.31 9.19 C 98.47 9.13 99.64 9.08 100.81 9.03 C 101.35 15.11 101.65 21.21 102.18 27.29 C 100.86 27.35 99.54 27.40 98.22 27.45 C 95.53 23.37 92.82 19.31 90.02 15.32 C 90.26 19.57 90.57 23.83 90.85 28.08 L 87.35 28.31 C 86.84 22.20 86.37 16.08 86.10 9.95 C 87.41 9.87 88.72 9.78 90.04 9.70 C 92.71 13.78 95.40 17.85 98.21 21.83 C 97.86 17.62 97.55 13.41 97.31 9.19 Z" fill="#bba26e"/>
<path d="M 113.44 11.44 C 118.07 8.89 125.28 11.42 126.29 16.96 C 127.09 21.25 125.39 27.17 121.22 29.24 C 116.62 31.07 110.29 29.18 108.95 23.97 C 107.86 19.69 109.42 13.79 113.44 11.44 Z" fill="#bba26e"/>
<path d="M 75.90 12.29 L 76.98 15.35 C 73.95 16.42 70.93 17.47 67.90 18.52 C 68.26 19.76 68.63 21.00 68.99 22.24 C 71.79 21.26 74.59 20.27 77.39 19.27 C 77.79 20.27 78.19 21.27 78.59 22.28 C 75.77 23.27 72.95 24.25 70.13 25.23 C 70.63 26.71 71.13 28.19 71.64 29.67 C 74.81 28.54 77.99 27.43 81.17 26.30 C 81.58 27.34 81.99 28.37 82.40 29.40 C 78.00 30.97 73.59 32.51 69.16 34.00 C 67.15 28.23 65.19 22.45 63.14 16.70 C 67.39 15.22 71.64 13.75 75.90 12.29 Z" fill="#bba26e"/>
<path d="M 116.14 14.15 C 118.60 12.99 121.99 14.69 122.48 17.41 C 122.97 20.26 122.20 24.02 119.76 25.82 C 117.12 27.73 113.33 26.16 112.57 23.05 C 111.93 20.02 113.11 15.58 116.14 14.15 Z" fill="#030000"/>
<path d="M 138.44 19.51 C 142.64 18.15 148.22 21.22 149.45 25.44 C 150.62 29.78 147.95 34.90 144.40 37.39 C 139.22 41.04 130.69 36.37 131.11 30.00 C 131.29 25.76 134.28 20.87 138.44 19.51 Z" fill="#bba26e"/>
<path d="M 54.68 20.58 C 55.34 24.64 55.59 28.82 56.57 32.81 C 57.36 35.14 59.18 37.19 60.56 39.19 C 59.55 39.92 58.54 40.64 57.53 41.36 C 55.90 39.29 54.25 36.46 51.88 35.20 C 48.53 33.38 44.95 31.97 41.52 30.31 C 42.74 29.41 43.97 28.52 45.20 27.63 C 47.77 29.02 50.35 30.41 52.93 31.80 C 52.37 28.99 51.75 26.14 51.36 23.30 C 52.45 22.37 53.57 21.47 54.68 20.58 Z" fill="#bba26e"/>
<path d="M 139.22 23.22 C 142.44 21.48 146.46 24.36 145.87 27.96 C 145.53 31.67 141.52 36.98 137.36 34.62 C 132.52 32.03 135.55 25.29 139.22 23.22 Z" fill="#030000"/>
<path d="M 86.47 32.70 C 99.56 30.09 113.35 31.28 125.74 36.26 C 141.23 42.40 154.25 54.41 161.71 69.29 C 173.03 91.47 171.07 119.32 156.68 139.65 C 146.73 154.03 131.15 164.34 113.99 167.76 C 99.66 170.74 84.46 168.96 71.19 162.82 C 59.43 157.39 49.31 148.57 42.28 137.71 C 34.27 125.44 30.43 110.62 31.36 96.01 C 32.16 82.19 37.28 68.73 45.82 57.84 C 55.82 44.95 70.47 35.88 86.47 32.70 Z" fill="#bba26e"/>
<path d="M 160.88 32.04 C 163.60 34.95 167.69 38.15 168.88 42.02 C 169.27 46.29 166.34 47.10 163.06 48.42 C 161.39 50.91 159.54 53.26 157.63 55.57 C 156.75 54.48 155.86 53.40 154.98 52.31 C 156.53 50.61 158.07 48.91 159.58 47.18 C 158.18 45.53 156.75 43.91 155.31 42.29 C 153.54 43.93 151.78 45.57 150.01 47.21 C 149.16 46.28 148.32 45.36 147.48 44.44 C 151.95 40.31 156.25 35.99 160.88 32.04 Z" fill="#bba26e"/>
<path d="M 99.82 34.74 C 99.84 41.67 99.84 48.61 99.81 55.54 C 87.02 55.76 74.22 55.73 61.43 56.08 C 61.43 57.55 61.43 59.01 61.43 60.48 C 63.73 60.75 66.28 60.76 68.44 61.60 C 71.19 63.30 71.07 67.16 71.22 69.99 C 71.19 89.33 71.12 108.67 71.24 128.00 C 71.20 131.10 71.46 134.59 70.49 137.57 C 69.36 140.43 64.26 140.02 61.77 140.58 C 61.77 142.14 61.78 143.70 61.79 145.26 C 72.89 145.29 83.99 145.29 95.08 145.26 C 95.06 143.68 95.05 142.11 95.03 140.53 C 92.46 140.13 89.43 140.12 87.09 138.92 C 84.62 137.46 84.89 134.50 84.70 132.01 C 84.74 121.55 84.76 111.10 84.76 100.65 C 89.78 100.63 94.81 100.63 99.83 100.65 C 99.83 122.34 99.82 144.02 99.84 165.71 C 93.52 165.39 87.29 164.79 81.23 162.86 C 65.56 158.21 51.93 147.41 43.70 133.30 C 35.72 119.79 32.90 103.40 35.91 88.00 C 38.92 71.61 48.50 56.73 62.07 47.08 C 73.09 39.07 86.25 35.13 99.82 34.74 Z" fill="#db2f38"/>
<path d="M 100.47 34.70 C 106.84 35.14 113.10 35.75 119.22 37.70 C 135.55 42.64 149.67 54.23 157.73 69.27 C 165.49 83.57 167.52 100.74 163.49 116.48 C 159.79 131.21 150.69 144.48 138.35 153.32 C 127.29 161.36 114.11 165.40 100.48 165.77 C 100.53 143.83 100.27 121.88 100.62 99.94 C 102.79 101.15 105.36 102.06 106.78 104.23 C 108.96 107.47 109.99 111.76 111.10 115.48 C 112.80 115.43 114.50 115.39 116.21 115.34 C 114.30 105.36 112.55 95.35 110.68 85.36 C 109.34 85.34 108.00 85.32 106.66 85.30 C 106.36 87.38 106.23 89.60 105.54 91.59 C 104.50 93.41 102.22 94.60 100.62 95.87 C 100.27 84.14 100.54 72.39 100.47 60.65 C 105.07 60.63 110.09 60.30 114.55 61.54 C 118.28 62.62 121.81 64.67 124.51 67.47 C 127.20 70.31 128.23 74.10 129.45 77.71 C 131.11 77.71 132.77 77.71 134.43 77.72 C 133.41 70.21 132.53 62.69 131.54 55.18 C 121.18 55.27 110.82 55.45 100.46 55.54 C 100.46 48.60 100.45 41.65 100.47 34.70 Z" fill="#ffffff"/>
<path d="M 36.02 35.20 C 36.86 35.91 37.70 36.62 38.54 37.33 C 36.42 39.78 34.30 42.24 32.18 44.69 C 33.14 45.52 34.10 46.36 35.07 47.20 C 37.03 44.97 38.98 42.72 40.92 40.47 C 41.74 41.15 42.56 41.84 43.38 42.53 C 41.42 44.79 39.47 47.06 37.51 49.32 C 38.68 50.34 39.85 51.36 41.02 52.38 C 43.25 49.82 45.47 47.26 47.70 44.70 C 48.53 45.43 49.36 46.17 50.19 46.90 C 47.15 50.42 44.10 53.92 41.07 57.43 C 36.46 53.38 31.79 49.41 27.21 45.34 C 30.16 41.98 33.12 38.62 36.02 35.20 Z" fill="#bba26e"/>
<path d="M 161.14 37.00 C 162.86 38.71 164.42 40.54 165.95 42.40 C 164.82 43.24 163.65 44.24 162.37 44.83 C 160.55 43.55 158.93 41.82 157.35 40.26 C 158.60 39.16 159.84 38.05 161.14 37.00 Z" fill="#030000"/>
<path d="M 177.16 51.13 C 178.97 54.53 182.09 58.86 181.75 62.83 C 180.63 67.88 173.75 71.16 168.98 70.17 C 164.72 69.23 162.85 62.81 160.91 59.41 C 166.33 56.65 171.67 53.73 177.16 51.13 Z" fill="#bba26e"/>
<path d="M 22.25 52.59 C 23.22 53.07 24.19 53.54 25.17 54.02 C 23.78 56.76 22.38 59.49 20.97 62.21 C 22.21 62.84 23.46 63.47 24.70 64.09 C 25.93 61.72 27.15 59.35 28.38 56.99 C 29.33 57.44 30.28 57.89 31.22 58.34 C 30.03 60.76 28.82 63.18 27.60 65.59 C 29.88 66.75 32.16 67.91 34.43 69.07 C 33.86 70.20 33.29 71.34 32.72 72.47 C 27.25 69.73 21.80 66.95 16.34 64.18 C 18.33 60.33 20.29 56.46 22.25 52.59 Z" fill="#bba26e"/>
<path d="M 176.20 55.88 C 177.16 57.82 178.19 59.86 178.40 62.04 C 176.53 65.06 172.49 67.05 168.97 66.36 C 167.48 65.02 166.37 63.10 165.25 61.45 C 168.86 59.53 172.47 57.57 176.20 55.88 Z" fill="#030000"/>
<path d="M 84.76 60.76 C 89.78 60.74 94.80 60.74 99.82 60.78 C 99.83 72.28 99.83 83.78 99.83 95.29 C 94.81 95.32 89.79 95.33 84.76 95.30 C 84.74 83.79 84.74 72.27 84.76 60.76 Z" fill="#db2f38"/>
<path d="M 15.40 96.37 C 18.34 94.33 22.26 96.52 22.45 99.98 C 22.58 103.39 18.89 105.77 15.82 104.22 C 12.72 102.62 12.50 98.31 15.40 96.37 Z" fill="#bba26e"/>
<path d="M 180.18 96.17 C 183.10 94.57 186.91 96.62 186.89 100.01 C 187.07 103.65 183.08 105.89 180.01 104.04 C 177.03 102.22 177.12 97.84 180.18 96.17 Z" fill="#bba26e"/>
<path d="M 0.00 102.59 C 1.03 114.32 2.77 125.77 7.23 136.74 C 15.15 156.99 29.76 174.39 48.40 185.61 C 62.15 194.09 77.70 198.57 93.74 200.00 L 0.00 200.00 L 0.00 102.59 Z" fill-opacity="0"/>
<path d="M 200.00 105.20 L 200.00 200.00 L 106.19 200.00 C 117.01 199.01 127.63 196.88 137.71 192.72 C 158.09 184.49 175.43 169.44 186.44 150.41 C 194.60 136.59 198.72 121.13 200.00 105.20 Z" fill-opacity="0"/>
<path d="M 32.35 126.65 C 34.05 130.30 36.49 134.04 37.24 138.01 C 36.69 142.49 33.50 142.92 29.64 142.97 C 27.37 144.91 24.94 146.62 22.48 148.32 C 21.90 147.09 21.32 145.87 20.74 144.65 C 22.60 143.45 24.61 142.29 26.29 140.85 C 25.82 138.82 24.96 136.84 24.19 134.89 C 21.97 135.96 19.75 137.03 17.53 138.09 C 16.97 136.97 16.41 135.86 15.85 134.75 C 21.34 132.02 26.85 129.34 32.35 126.65 Z" fill="#bba26e"/>
<path d="M 168.50 126.32 C 173.85 129.23 179.24 132.08 184.64 134.91 C 184.07 135.98 183.51 137.04 182.94 138.11 C 179.25 136.15 175.59 134.15 171.86 132.26 C 174.89 135.32 178.04 138.25 181.18 141.18 C 180.60 142.34 180.02 143.50 179.44 144.66 C 175.17 143.74 170.90 142.79 166.59 142.07 C 170.26 144.14 174.00 146.04 177.74 147.98 C 177.17 149.06 176.61 150.14 176.05 151.22 C 170.64 148.34 165.22 145.50 159.83 142.60 C 160.71 140.94 161.59 139.29 162.48 137.63 C 167.08 138.75 171.69 139.82 176.31 140.84 C 172.82 137.60 169.30 134.38 165.79 131.17 C 166.69 129.55 167.59 127.93 168.50 126.32 Z" fill="#bba26e"/>
<path d="M 31.27 131.35 C 32.13 133.48 33.58 135.92 33.55 138.25 C 32.75 138.80 31.89 139.28 30.98 139.71 C 28.87 138.70 27.81 135.65 26.57 133.77 C 28.13 132.96 29.70 132.16 31.27 131.35 Z" fill="#030000"/>
<path d="M 39.41 146.45 C 45.38 144.86 51.72 151.76 49.56 157.62 C 48.37 161.08 44.64 164.45 41.06 165.24 C 36.48 166.38 31.79 162.34 30.81 158.05 C 29.88 152.92 34.74 147.74 39.41 146.45 Z" fill="#bba26e"/>
<path d="M 39.45 150.49 C 42.71 148.59 46.60 151.45 46.38 155.01 C 45.78 157.92 43.24 160.42 40.53 161.47 C 37.34 162.68 33.71 159.53 34.44 156.22 C 35.04 153.71 37.15 151.56 39.45 150.49 Z" fill="#030000"/>
<path d="M 153.15 149.63 C 159.20 151.95 165.06 154.75 171.02 157.26 C 170.07 158.31 169.11 159.36 168.16 160.41 C 167.02 159.81 165.87 159.20 164.72 158.60 C 163.17 160.25 161.62 161.90 160.07 163.55 C 160.71 164.72 161.35 165.89 161.99 167.05 C 161.06 168.03 160.12 169.00 159.18 169.98 C 156.27 164.20 153.12 158.54 150.31 152.72 C 151.22 151.65 152.17 150.63 153.15 149.63 Z" fill="#bba26e"/>
<path d="M 154.92 154.17 C 157.17 155.12 159.38 156.20 161.58 157.25 C 160.53 158.38 159.48 159.50 158.42 160.63 C 157.24 158.49 156.01 156.35 154.92 154.17 Z" fill="#030000"/>
<path d="M 55.29 157.54 C 59.49 160.23 63.68 162.94 67.85 165.69 C 67.21 166.58 66.56 167.46 65.92 168.35 C 64.40 167.36 62.87 166.38 61.35 165.40 C 58.64 169.64 55.91 173.86 53.15 178.06 C 52.07 177.35 50.99 176.64 49.91 175.94 C 52.65 171.72 55.38 167.50 58.11 163.28 C 56.55 162.26 54.99 161.25 53.44 160.23 C 54.05 159.33 54.67 158.43 55.29 157.54 Z" fill="#bba26e"/>
<path d="M 140.00 161.81 C 145.55 161.83 149.57 169.03 149.00 174.01 C 148.55 178.49 141.89 180.72 138.63 182.91 C 135.55 177.61 132.47 172.31 129.40 167.00 C 132.72 165.18 136.24 162.48 140.00 161.81 Z" fill="#bba26e"/>
<path d="M 139.88 165.35 C 143.20 166.18 145.50 170.82 145.28 174.04 C 144.40 175.95 142.00 177.16 140.39 178.43 C 138.30 174.88 136.23 171.32 134.18 167.74 C 136.02 166.89 137.90 165.80 139.88 165.35 Z" fill="#030000"/>
<path d="M 71.66 167.18 C 76.35 168.76 81.07 170.27 85.79 171.79 C 85.42 172.82 85.04 173.86 84.67 174.89 C 82.96 174.32 81.24 173.76 79.53 173.19 C 77.95 177.96 76.41 182.75 74.87 187.54 C 73.63 187.13 72.39 186.72 71.15 186.32 C 72.74 181.56 74.27 176.78 75.80 172.01 C 74.03 171.43 72.27 170.85 70.50 170.27 C 70.89 169.24 71.27 168.21 71.66 167.18 Z" fill="#bba26e"/>
<path d="M 121.01 170.23 C 123.09 170.25 124.82 172.06 125.40 173.96 C 125.45 175.52 125.04 177.17 124.76 178.71 C 126.23 181.35 127.35 184.13 128.47 186.93 C 127.16 187.23 125.84 187.53 124.53 187.82 C 123.77 185.74 123.09 183.56 122.08 181.59 C 119.98 181.46 117.79 181.94 115.72 182.24 C 116.28 184.63 116.85 187.01 117.44 189.39 C 116.21 189.72 114.99 190.05 113.76 190.38 C 112.37 184.41 111.00 178.43 109.57 172.47 C 113.29 171.61 117.17 170.31 121.01 170.23 Z" fill="#bba26e"/>
<path d="M 90.44 172.61 C 94.83 172.36 99.27 172.74 103.66 172.89 C 103.64 173.97 103.61 175.05 103.59 176.13 C 100.35 175.98 97.12 175.85 93.88 175.77 C 93.82 177.07 93.76 178.36 93.70 179.65 C 96.65 179.74 99.61 179.84 102.56 179.93 C 102.58 181.02 102.60 182.10 102.62 183.19 C 99.66 183.08 96.69 182.94 93.73 182.81 C 93.65 184.39 93.56 185.98 93.48 187.56 C 96.86 187.67 100.24 187.77 103.61 187.84 C 103.57 188.98 103.52 190.12 103.48 191.26 C 98.87 191.08 94.27 190.85 89.66 190.71 C 89.89 184.69 89.77 178.59 90.44 172.61 Z" fill="#bba26e"/>
<path d="M 113.95 174.58 C 116.01 174.19 118.12 173.72 120.20 173.58 C 121.70 174.36 121.76 175.38 121.99 176.90 C 120.25 178.51 117.36 178.94 115.14 179.65 C 114.74 177.96 114.34 176.27 113.95 174.58 Z" fill="#030000"/>
</svg>