<?xml version="1.0" encoding="UTF-8" standalone="no"?>
<!DOCTYPE svg PUBLIC "-//W3C//DTD SVG 1.1//EN" "http://www.w3.org/Graphics/SVG/1.1/DTD/svg11.dtd">
<svg xmlns="http://www.w3.org/2000/svg" version="1.1" viewBox="0 0 200 200" width="200.0pt" height="200.0pt">
<path d="M 0.00 0.00 L 200.00 0.00 L 200.00 200.00 L 0.00 200.00 L 0.00 0.00 Z" fill-opacity="0"/>
<path d="M 87.52 9.84 C 101.54 8.08 115.83 9.11 129.24 13.68 C 155.02 22.20 176.25 42.78 185.66 68.24 C 193.15 88.26 193.28 110.88 186.06 131.00 C 176.80 157.12 155.15 178.24 128.81 186.82 C 108.52 193.50 85.96 192.82 66.14 184.85 C 40.39 174.59 20.09 152.22 12.53 125.53 C 6.72 105.27 8.08 82.82 16.66 63.53 C 29.09 34.92 56.57 13.99 87.52 9.84 Z" fill="#009966"/>
<path d="M 88.50 27.85 C 106.10 25.00 124.60 28.74 139.59 38.40 C 152.13 46.44 162.21 58.35 167.89 72.13 C 173.98 86.88 175.13 103.59 170.96 119.01 C 167.15 133.49 158.73 146.65 147.25 156.26 C 136.96 164.93 124.28 170.66 110.97 172.63 C 96.42 174.83 81.20 172.50 67.98 166.01 C 53.09 158.71 40.80 146.24 33.78 131.21 C 28.13 119.07 25.83 105.29 27.40 91.98 C 29.12 75.59 36.69 59.97 48.39 48.39 C 59.15 37.52 73.39 30.22 88.50 27.85 Z" fill="#ffffff"/>
<path d="M 99.98 39.49 C 103.27 39.36 105.93 40.71 108.67 42.31 C 121.36 49.99 134.10 57.60 146.84 65.18 C 150.33 67.28 153.13 70.08 153.50 74.34 C 153.81 79.55 153.56 84.81 153.65 90.04 C 153.55 92.12 153.79 94.55 152.13 96.12 C 150.44 97.81 148.27 97.75 146.05 97.85 C 119.55 97.83 93.03 97.82 66.53 97.85 C 66.51 93.15 66.51 88.44 66.52 83.74 C 89.34 83.75 112.20 83.71 135.02 83.76 C 136.51 83.72 138.01 83.73 139.47 83.43 C 140.08 81.21 140.10 78.57 139.64 76.31 C 138.80 75.22 137.48 74.41 136.34 73.67 C 126.38 67.65 116.44 61.57 106.55 55.43 C 104.44 54.18 102.48 52.97 99.94 52.82 C 97.75 53.14 95.62 54.62 93.74 55.75 C 83.93 61.99 73.91 67.96 64.10 74.20 C 61.77 75.58 61.68 77.48 61.64 79.97 C 61.63 92.98 61.73 105.99 61.61 119.00 C 61.62 120.62 61.58 122.34 61.94 123.92 C 62.70 125.37 64.41 126.37 65.74 127.25 C 74.21 132.43 82.64 137.67 91.07 142.92 C 93.60 144.45 96.15 146.39 98.96 147.33 C 101.73 147.99 104.48 146.13 106.76 144.79 C 117.04 138.35 127.50 132.13 137.80 125.73 C 141.20 124.08 139.55 119.63 139.57 116.62 C 115.21 116.55 90.86 116.59 66.50 116.60 C 66.52 111.90 66.52 107.19 66.50 102.48 C 93.00 102.48 119.51 102.49 146.02 102.47 C 148.63 102.56 151.34 102.68 152.87 105.13 C 153.97 107.42 153.55 110.52 153.65 113.00 C 153.49 117.71 153.97 122.55 153.31 127.21 C 152.55 131.20 149.70 133.45 146.42 135.44 C 133.67 142.99 120.96 150.63 108.27 158.28 C 105.70 159.83 103.05 160.97 99.98 160.82 C 96.39 160.79 93.60 159.19 90.64 157.37 C 78.57 149.76 66.38 142.26 54.26 134.73 C 50.16 132.15 47.62 127.96 47.77 123.04 C 47.78 107.69 47.73 92.31 47.79 76.96 C 47.74 72.05 50.38 68.00 54.49 65.48 C 65.79 58.47 77.13 51.46 88.41 44.40 C 92.10 42.13 95.45 39.58 99.98 39.49 Z" fill="#009966"/>
<path d="M 35.67 140.47 C 37.86 143.42 40.05 146.37 42.25 149.30 C 41.42 149.96 40.59 150.62 39.76 151.28 C 38.54 149.66 37.31 148.03 36.09 146.40 L 34.61 147.57 C 35.77 149.13 36.93 150.69 38.10 152.25 C 37.29 152.93 36.48 153.61 35.67 154.29 C 34.47 152.71 33.26 151.13 32.06 149.55 C 30.89 150.48 29.73 151.42 28.56 152.36 C 27.56 151.00 26.55 149.65 25.55 148.29 C 28.93 145.69 32.29 143.07 35.67 140.47 Z" fill="#ffffff"/>
<path d="M 161.91 144.92 C 165.09 147.70 168.13 150.65 171.28 153.47 C 169.68 155.32 168.03 157.14 166.42 158.99 C 163.81 157.59 161.20 156.18 158.56 154.82 C 160.64 156.85 162.76 158.85 164.87 160.84 C 163.91 161.90 162.94 162.95 161.98 164.00 C 158.86 161.08 155.71 158.19 152.57 155.29 C 154.22 153.44 155.87 151.58 157.53 149.72 C 160.05 151.11 162.58 152.48 165.13 153.82 C 163.09 151.84 161.02 149.90 158.93 147.99 C 159.91 146.95 160.89 145.92 161.91 144.92 Z" fill="#ffffff"/>
<path d="M 43.78 152.42 C 46.59 152.97 48.61 155.54 50.53 157.48 C 49.78 158.32 49.02 159.17 48.27 160.02 C 46.86 158.72 45.42 157.46 43.95 156.24 C 42.67 157.45 41.42 158.70 40.21 159.98 C 41.45 161.53 42.73 163.02 44.06 164.49 C 43.31 165.31 42.55 166.12 41.80 166.93 C 39.60 164.94 36.77 162.97 36.38 159.79 C 35.71 155.80 39.66 151.44 43.78 152.42 Z" fill="#ffffff"/>
<path d="M 151.67 155.98 C 152.33 156.82 152.99 157.65 153.65 158.49 C 152.01 159.78 150.38 161.08 148.74 162.36 L 149.82 163.75 C 151.33 162.49 152.84 161.23 154.35 159.97 C 154.99 160.77 155.63 161.58 156.27 162.38 C 154.47 163.99 152.72 165.65 151.18 167.52 C 153.63 166.67 155.70 165.25 157.71 163.66 C 158.36 164.46 159.01 165.27 159.65 166.07 C 156.70 168.42 153.74 170.76 150.80 173.11 C 148.19 169.70 145.60 166.27 142.97 162.88 C 145.88 160.59 148.77 158.28 151.67 155.98 Z" fill="#ffffff"/>
<path d="M 58.06 164.35 C 61.16 164.25 64.17 166.74 66.66 168.36 C 66.12 169.35 65.59 170.34 65.06 171.33 C 63.01 170.08 59.80 166.85 57.66 169.63 C 55.67 171.81 57.07 173.08 57.83 175.44 C 58.73 174.29 59.62 173.14 60.51 171.99 C 61.69 172.67 62.87 173.35 64.05 174.04 C 63.01 175.89 61.97 177.75 60.93 179.60 C 57.89 178.18 53.98 176.86 52.50 173.57 C 50.54 169.79 53.64 164.20 58.06 164.35 Z" fill="#ffffff"/>
<path d="M 141.39 163.91 C 142.00 164.88 142.60 165.85 143.21 166.82 C 141.01 168.02 137.35 168.78 137.66 172.01 C 138.62 174.98 140.01 175.07 142.87 174.93 C 142.31 173.70 141.74 172.46 141.17 171.23 C 142.43 170.54 143.68 169.85 144.93 169.17 C 145.91 171.07 146.88 172.96 147.84 174.87 C 145.15 176.64 142.43 179.06 139.01 178.94 C 134.52 179.02 131.23 173.37 133.54 169.50 C 135.07 166.63 138.62 165.29 141.39 163.91 Z" fill="#ffffff"/>
<path d="M 68.32 169.35 C 71.32 170.05 74.62 171.26 77.33 172.72 C 78.36 173.38 79.79 174.52 79.30 175.89 C 79.26 177.38 77.41 178.48 76.48 179.52 C 76.52 181.63 76.47 183.74 76.43 185.86 C 74.75 185.28 73.09 184.69 71.42 184.11 C 71.67 182.71 71.92 181.31 72.17 179.91 C 71.46 179.60 70.74 179.27 70.04 178.93 C 69.55 180.31 69.06 181.68 68.57 183.05 C 67.02 182.47 65.47 181.89 63.92 181.31 C 65.42 177.34 66.55 173.20 68.32 169.35 Z" fill="#ffffff"/>
<path d="M 125.97 171.50 C 127.33 171.04 128.69 170.58 130.05 170.13 C 131.30 174.25 132.58 178.36 133.90 182.46 C 131.60 183.21 129.31 183.96 127.01 184.72 C 125.41 182.12 123.79 179.53 122.13 176.96 C 122.97 179.79 123.86 182.59 124.78 185.39 C 123.42 185.86 122.06 186.32 120.71 186.79 C 119.42 182.67 118.16 178.55 116.87 174.44 C 119.19 173.66 121.51 172.88 123.84 172.13 C 125.42 174.71 127.01 177.28 128.62 179.84 C 127.75 177.05 126.87 174.27 125.97 171.50 Z" fill="#ffffff"/>
<path d="M 71.31 173.26 C 72.57 173.99 73.82 174.72 75.07 175.46 C 73.89 175.98 72.74 176.51 71.46 176.77 C 71.33 175.61 71.27 174.44 71.31 173.26 Z" fill="#009966"/>
<path d="M 82.42 175.45 C 84.89 173.88 88.69 174.41 91.08 175.91 C 94.86 178.21 94.40 184.56 91.07 187.01 C 88.52 188.70 84.80 188.21 82.27 186.72 C 78.32 184.50 78.91 177.78 82.42 175.45 Z" fill="#ffffff"/>
<path d="M 115.33 174.39 C 116.08 178.66 116.77 182.94 117.50 187.21 C 115.86 187.48 114.22 187.73 112.58 187.99 C 111.89 183.78 111.22 179.56 110.52 175.34 C 112.12 175.02 113.73 174.69 115.33 174.39 Z" fill="#ffffff"/>
<path d="M 95.45 176.27 C 97.78 175.93 100.19 175.87 102.55 175.77 C 103.40 178.68 104.28 181.58 105.17 184.48 C 105.13 181.59 104.99 178.70 104.85 175.82 C 106.28 175.79 107.70 175.76 109.13 175.73 C 109.25 180.05 109.33 184.37 109.45 188.68 C 107.04 188.72 104.63 188.76 102.21 188.79 C 101.40 185.84 100.58 182.90 99.71 179.97 C 99.70 182.95 99.77 185.94 99.81 188.92 C 98.43 188.91 97.04 188.90 95.66 188.89 C 95.57 184.69 95.24 180.46 95.45 176.27 Z" fill="#ffffff"/>
<path d="M 86.21 178.06 C 86.61 177.04 87.33 177.29 88.37 178.82 C 89.04 180.89 88.39 183.23 87.06 184.90 C 83.48 185.09 84.37 179.60 86.21 178.06 Z" fill="#009966"/>
</svg>