<?xml version="1.0" encoding="UTF-8" standalone="no"?>
<!DOCTYPE svg PUBLIC "-//W3C//DTD SVG 1.1//EN" "http://www.w3.org/Graphics/SVG/1.1/DTD/svg11.dtd">
<svg xmlns="http://www.w3.org/2000/svg" version="1.1" viewBox="0 0 200 200" width="200.0pt" height="200.0pt">
<path d="M 0.00 0.00 L 200.00 0.00 L 200.00 200.00 L 0.00 200.00 L 0.00 0.00 Z" fill-opacity="0"/>
<path d="M 99.27 0.14 C 100.37 3.03 101.41 5.95 102.32 8.90 C 105.48 9.14 108.63 9.20 111.79 9.21 C 109.31 11.14 106.79 13.03 104.30 14.96 C 105.26 17.95 106.19 20.95 107.09 23.96 C 104.49 22.16 101.88 20.35 99.28 18.55 C 96.68 20.36 94.08 22.17 91.49 24.00 C 92.44 20.98 93.35 17.95 94.26 14.92 C 91.78 13.04 89.30 11.15 86.88 9.19 C 89.95 9.15 93.02 9.11 96.10 9.09 C 96.83 7.13 97.54 5.16 98.22 3.18 C 98.57 2.17 98.92 1.15 99.27 0.14 Z" fill="#d49f0f"/>
<path d="M 160.67 14.39 C 160.31 17.53 159.93 20.68 159.52 23.81 C 162.29 25.20 165.06 26.56 167.69 28.20 C 164.62 28.74 161.56 29.28 158.52 30.00 C 158.05 33.09 157.52 36.17 156.97 39.24 C 155.47 36.52 153.96 33.80 152.57 31.01 C 149.37 31.27 146.22 31.84 143.05 32.37 C 145.21 30.01 147.40 27.69 149.60 25.37 C 148.16 22.57 146.75 19.75 145.36 16.92 C 148.23 18.27 151.09 19.63 153.94 21.02 C 156.17 18.80 158.40 16.57 160.67 14.39 Z" fill="#d49f0f"/>
<path d="M 38.32 15.15 C 40.59 17.32 42.82 19.53 45.05 21.74 C 47.91 20.36 50.79 19.00 53.66 17.63 C 52.24 20.46 50.81 23.29 49.36 26.11 C 51.52 28.39 53.69 30.67 55.82 32.99 C 52.75 32.61 49.69 32.17 46.64 31.61 C 45.00 34.35 43.51 37.18 41.99 39.98 C 41.44 36.87 40.92 33.76 40.42 30.65 C 37.32 30.06 34.22 29.47 31.13 28.87 C 33.93 27.41 36.74 25.95 39.51 24.43 C 39.24 22.55 38.96 20.68 38.73 18.80 C 38.59 17.58 38.45 16.37 38.32 15.15 Z" fill="#d49f0f"/>
<path d="M 89.29 41.61 C 88.24 44.69 87.22 47.78 86.26 50.89 C 88.80 53.39 91.31 55.91 93.86 58.39 C 92.08 58.85 90.31 59.31 88.53 59.78 C 86.92 57.93 85.28 56.11 83.62 54.31 C 83.10 56.57 82.71 58.91 81.96 61.11 C 80.46 61.97 78.45 62.12 76.78 62.55 C 78.01 59.18 79.07 55.75 80.19 52.34 C 77.89 50.06 75.58 47.80 73.26 45.54 C 75.01 45.11 76.76 44.68 78.51 44.25 C 79.92 45.87 81.36 47.46 82.83 49.02 C 83.29 46.98 83.75 44.94 84.30 42.92 C 85.94 42.43 87.63 42.03 89.29 41.61 Z" fill="#010101"/>
<path d="M 100.10 46.38 C 102.13 46.13 104.99 45.76 106.71 47.03 C 104.60 47.66 102.17 47.38 100.08 46.76 L 100.10 46.38 Z" fill="#ca5672"/>
<path d="M 119.47 48.88 C 137.47 53.93 153.16 66.29 162.34 82.58 C 168.52 93.55 172.04 106.36 171.53 118.98 C 171.33 122.82 171.74 127.28 170.22 130.88 C 170.65 121.02 171.66 111.80 169.04 102.07 C 166.62 90.62 160.95 80.66 153.82 71.52 C 153.47 71.98 153.11 72.43 152.76 72.89 C 161.45 82.49 166.89 95.22 168.81 107.96 C 169.68 115.29 169.42 122.59 168.63 129.91 C 167.69 129.95 166.75 129.99 165.80 130.02 C 166.77 121.24 167.20 112.65 165.16 103.96 C 161.71 87.53 151.75 72.63 137.92 63.11 C 126.79 55.26 113.47 51.31 99.89 51.09 L 99.85 48.34 C 103.78 48.43 107.52 48.77 111.39 49.37 C 112.30 49.42 113.20 48.55 113.97 48.15 C 111.67 47.89 109.37 47.62 107.07 47.35 C 111.47 46.53 115.28 47.80 119.47 48.88 Z" fill="#ca5672"/>
<path d="M 114.66 48.85 L 115.02 48.57 C 124.30 50.61 133.21 54.57 140.94 60.08 C 145.19 63.02 148.76 66.64 152.55 70.12 C 152.09 70.45 151.64 70.78 151.19 71.11 C 149.64 69.17 148.00 67.45 146.09 65.87 C 137.00 57.93 125.46 51.72 113.46 49.86 C 113.86 49.53 114.26 49.19 114.66 48.85 Z" fill="#ffffff"/>
<path d="M 117.11 54.96 C 126.04 57.32 134.32 61.70 141.45 67.55 C 154.03 77.84 162.41 92.91 164.58 109.01 C 164.92 114.67 164.82 120.38 164.65 126.05 C 164.68 127.51 164.37 128.40 163.64 129.64 C 163.75 125.08 164.40 120.58 164.20 116.00 C 164.14 101.69 158.52 87.53 149.37 76.60 C 139.51 64.81 125.45 56.65 110.23 54.29 C 106.65 53.82 103.03 53.93 99.44 53.49 C 105.28 52.78 111.46 53.22 117.11 54.96 Z" fill="#ca5672"/>
<path d="M 56.93 54.30 C 62.16 57.64 67.33 61.06 72.53 64.44 C 71.14 65.42 69.75 66.41 68.37 67.39 C 67.30 66.64 66.24 65.88 65.18 65.13 C 63.41 66.43 61.64 67.73 59.86 69.03 C 60.25 70.28 60.64 71.52 61.03 72.76 C 59.75 73.67 58.47 74.59 57.19 75.51 C 55.54 69.57 53.93 63.63 52.34 57.68 C 53.81 56.48 55.35 55.35 56.93 54.30 Z" fill="#010101"/>
<path d="M 56.62 58.75 C 58.55 60.20 60.47 61.67 62.39 63.14 C 61.21 64.00 60.03 64.86 58.85 65.72 C 58.43 64.40 58.00 63.08 57.58 61.76 C 57.26 60.75 56.94 59.75 56.62 58.75 Z" fill="#ffffff"/>
<path d="M 38.04 72.50 C 41.91 75.10 45.70 77.82 49.59 80.40 C 51.45 81.72 53.82 83.12 54.56 85.42 C 55.46 87.72 53.65 89.83 52.63 91.75 C 51.29 91.97 49.96 92.20 48.63 92.43 C 49.34 90.14 50.94 87.36 48.56 85.46 C 44.32 82.17 39.67 79.37 35.30 76.25 C 36.21 74.99 37.10 73.73 38.04 72.50 Z" fill="#010101"/>
<path d="M 132.83 72.01 C 135.93 73.18 138.91 74.39 141.48 76.55 C 146.22 80.38 148.66 86.02 149.29 91.99 C 150.15 99.98 148.39 108.82 143.07 115.05 C 137.10 122.26 126.20 125.11 117.54 121.48 C 111.28 118.67 107.86 112.60 105.40 106.50 C 104.36 104.30 103.72 101.24 101.05 100.51 C 98.91 99.91 96.36 101.45 94.18 101.77 C 93.08 101.15 93.09 99.94 94.48 99.54 C 97.06 98.28 100.45 97.40 103.08 98.96 C 105.72 100.36 106.56 103.68 107.71 106.23 C 109.92 111.62 112.97 116.99 118.54 119.46 C 123.55 121.56 129.96 121.08 134.79 118.67 C 141.31 115.50 145.28 109.20 146.65 102.21 C 147.89 95.73 147.44 87.96 143.72 82.30 C 141.59 78.97 138.44 76.82 134.92 75.16 C 134.86 78.03 134.83 80.90 134.82 83.77 C 137.55 86.14 140.02 88.42 141.04 92.03 C 141.87 93.34 141.31 96.68 139.61 94.66 C 138.03 89.78 136.62 88.01 132.59 84.93 C 132.65 80.62 132.76 76.32 132.83 72.01 Z" fill="#010101"/>
<path d="M 111.04 75.51 C 117.11 74.47 122.77 76.09 127.85 79.40 C 127.57 80.08 127.29 80.76 127.01 81.44 C 122.10 78.32 116.80 76.71 110.96 77.82 C 100.75 79.72 92.07 87.56 82.00 91.06 C 79.75 91.71 76.85 93.31 74.67 91.89 C 75.67 90.32 77.11 90.22 78.76 89.71 C 90.37 86.54 99.05 77.62 111.04 75.51 Z" fill="#010101"/>
<path d="M 45.00 93.00 C 44.56 94.57 44.12 96.15 43.67 97.72 C 42.51 97.93 40.60 97.59 39.72 98.43 C 38.89 100.32 38.53 102.49 38.09 104.50 C 39.15 105.23 40.22 105.97 41.28 106.71 C 40.83 108.19 40.37 109.68 39.92 111.17 C 34.94 107.45 29.89 103.82 24.91 100.10 C 25.46 98.29 25.99 96.48 26.52 94.67 C 32.66 94.02 38.83 93.43 45.00 93.00 Z" fill="#010101"/>
<path d="M 67.37 93.39 C 71.81 92.93 76.65 95.40 80.36 97.63 C 93.56 105.76 105.89 115.19 117.12 125.88 C 119.08 127.97 122.03 130.28 122.85 133.09 C 123.30 136.13 119.23 136.58 117.28 137.71 C 117.56 139.33 118.20 141.04 117.77 142.65 C 116.17 144.79 113.93 143.89 111.69 144.81 C 110.21 145.23 108.20 146.57 106.88 145.17 C 104.31 143.12 106.06 138.77 106.56 136.11 C 104.36 134.97 101.55 134.87 101.35 131.85 C 101.49 129.75 100.85 125.44 104.11 125.88 C 103.89 128.02 103.65 130.15 103.45 132.29 C 105.21 133.16 107.57 133.72 108.95 135.15 C 108.60 137.98 107.67 140.64 107.70 143.53 C 110.48 142.90 112.95 141.82 115.87 141.81 C 115.50 140.24 115.07 138.79 115.11 137.16 C 116.17 135.20 119.16 134.46 121.02 133.45 C 116.23 127.46 110.23 122.58 104.41 117.62 C 98.04 112.19 91.23 107.37 84.25 102.76 C 79.22 99.56 73.71 95.47 67.51 95.52 C 68.11 97.44 71.80 99.00 71.00 101.02 C 67.91 101.53 63.03 95.05 67.37 93.39 Z" fill="#010101"/>
<path d="M 29.08 98.32 C 31.51 98.27 33.93 98.23 36.35 98.18 C 35.93 99.60 35.50 101.02 35.08 102.44 C 33.07 101.08 31.07 99.71 29.08 98.32 Z" fill="#ffffff"/>
<path d="M 77.33 100.83 C 76.41 101.91 75.49 102.98 74.57 104.05 C 76.57 104.30 78.84 104.03 80.46 105.47 C 81.05 107.03 80.87 108.95 80.54 110.56 C 78.93 112.02 77.71 110.92 75.87 110.66 C 75.23 114.99 73.78 118.41 76.87 122.25 C 74.44 124.94 71.09 123.24 68.03 122.94 C 67.82 119.43 71.53 121.79 73.61 121.60 C 71.93 117.38 73.02 113.31 73.97 109.04 C 74.98 107.56 77.38 108.77 78.77 108.98 C 78.66 108.20 78.55 107.43 78.44 106.65 C 75.66 106.38 73.59 106.66 71.86 104.06 C 73.26 102.58 74.98 98.23 77.33 100.83 Z" fill="#010101"/>
<path d="M 69.85 105.07 L 71.07 106.13 C 69.96 109.82 67.06 112.77 65.85 116.51 C 67.49 116.89 69.31 116.96 70.67 118.03 C 70.53 119.26 69.65 119.69 68.04 119.31 C 66.75 118.97 63.57 118.76 63.32 117.11 C 64.62 112.78 67.20 108.70 69.85 105.07 Z" fill="#010101"/>
<path d="M 87.19 107.26 C 90.34 109.38 93.37 111.69 96.38 114.00 C 95.85 115.57 95.35 117.15 94.92 118.75 C 96.03 119.72 97.67 120.27 97.56 121.99 C 97.63 124.62 98.03 127.24 98.06 129.87 C 95.90 133.03 93.96 135.95 92.51 139.53 C 91.59 141.93 89.65 141.75 87.52 142.33 C 84.47 142.88 81.71 143.79 78.89 145.05 C 76.57 144.26 73.49 144.00 71.51 142.58 C 70.87 138.12 66.49 137.79 65.34 133.80 C 64.67 131.46 66.91 129.31 68.18 127.60 C 68.02 126.67 67.87 125.75 67.71 124.82 C 69.81 125.32 74.06 123.88 74.09 127.08 C 73.03 127.14 71.96 127.20 70.90 127.26 C 69.83 129.22 68.18 130.95 67.38 133.03 C 68.81 136.69 72.95 136.84 73.31 141.14 C 75.11 141.67 76.91 142.18 78.71 142.69 C 82.26 141.02 85.99 140.36 89.77 139.48 C 91.94 136.10 93.20 132.30 95.91 129.16 C 95.54 126.81 95.39 124.46 95.33 122.08 C 94.06 120.74 92.44 120.21 92.73 118.04 C 93.04 116.94 93.37 115.84 93.74 114.76 C 92.42 113.79 91.09 112.82 89.77 111.84 C 89.90 113.86 90.04 115.88 90.17 117.90 C 88.79 119.72 87.52 122.31 85.50 123.47 C 83.44 124.26 80.73 125.00 78.64 123.96 C 79.91 121.49 83.12 122.53 85.05 121.06 C 86.17 119.89 87.04 118.44 87.95 117.10 C 87.69 113.82 87.37 110.54 87.19 107.26 Z" fill="#010101"/>
<path d="M 28.18 117.42 C 29.14 119.47 28.87 121.48 29.02 123.70 C 29.60 123.05 30.17 122.39 30.75 121.73 C 30.61 120.46 30.47 119.18 30.33 117.90 C 31.24 117.86 32.15 117.83 33.07 117.79 C 33.65 127.22 35.12 136.38 39.10 145.02 C 46.86 162.41 62.17 176.02 80.40 181.57 C 90.75 184.86 101.39 185.04 112.08 183.57 C 112.13 185.22 112.18 186.86 112.24 188.50 C 96.93 191.20 81.03 188.72 67.23 181.60 C 52.46 174.03 40.60 161.27 34.07 146.03 C 32.17 141.40 30.39 136.69 29.98 131.69 C 30.24 131.51 30.51 131.34 30.77 131.17 C 30.84 132.38 30.97 133.58 31.16 134.77 C 34.80 149.95 43.70 163.44 55.81 173.23 C 64.86 180.61 75.45 185.02 86.72 187.76 C 87.34 187.21 87.97 186.66 88.59 186.11 C 84.71 185.98 81.12 184.86 77.48 183.63 C 52.17 175.11 32.84 151.22 30.94 124.44 C 30.46 124.05 29.97 123.66 29.48 123.27 C 29.51 125.95 30.36 128.24 29.29 130.50 C 28.82 126.19 28.00 121.75 28.18 117.42 Z" fill="#ca5672"/>
<path d="M 35.54 117.38 C 35.70 124.95 36.69 132.39 39.32 139.52 C 45.88 158.06 61.30 173.06 80.02 179.09 C 90.49 182.59 101.42 182.88 112.27 181.22 C 111.40 181.66 110.50 182.02 109.59 182.32 C 91.82 184.98 73.21 180.11 59.23 168.75 C 45.54 157.92 36.62 141.43 35.09 124.03 C 34.96 121.79 35.13 119.59 35.54 117.38 Z" fill="#ca5672"/>
<path d="M 165.93 133.04 C 167.71 133.75 169.48 133.41 169.30 135.89 C 168.05 135.55 166.80 135.20 165.55 134.86 C 166.70 135.95 167.86 137.02 169.03 138.08 C 167.85 138.33 166.67 138.57 165.49 138.81 C 166.49 139.58 167.49 140.35 168.47 141.14 C 165.75 141.30 163.33 140.42 160.73 139.78 C 160.85 138.88 160.97 137.97 161.09 137.07 C 162.52 137.02 163.96 136.98 165.39 136.93 C 164.04 135.73 161.54 135.18 161.96 132.97 C 163.30 132.06 164.49 132.77 165.93 133.04 Z" fill="#ca5672"/>
<path d="M 99.13 137.88 C 99.94 142.04 96.26 147.13 94.41 150.70 C 97.61 149.90 101.15 148.23 104.46 148.27 L 105.24 149.97 C 101.54 151.00 97.82 151.81 94.24 153.23 C 93.16 153.48 90.96 154.83 90.66 153.01 C 92.92 148.28 96.06 144.36 97.16 139.09 C 97.32 137.96 97.97 137.55 99.13 137.88 Z" fill="#010101"/>
<path d="M 127.92 140.85 C 128.23 144.59 124.12 142.02 123.18 145.19 C 122.06 147.91 125.63 149.58 127.82 148.66 C 130.25 147.96 129.33 144.84 132.28 144.65 C 132.32 147.66 131.16 150.33 127.96 150.93 C 124.34 151.91 119.73 149.13 120.88 145.00 C 121.77 141.57 124.71 140.72 127.92 140.85 Z" fill="#010101"/>
<path d="M 158.42 144.34 C 161.04 144.20 163.80 144.83 166.37 145.33 C 165.05 145.84 163.72 146.31 162.38 146.78 C 163.00 148.00 163.60 149.22 164.18 150.46 C 161.81 149.23 159.94 147.42 158.22 145.41 L 158.42 144.34 Z" fill="#010101"/>
<path d="M 140.01 144.67 C 143.53 145.34 147.16 146.29 150.36 147.95 L 150.04 149.01 L 149.17 149.56 C 144.95 148.48 141.56 146.51 137.04 146.97 C 137.19 150.15 138.22 152.98 139.18 155.96 C 139.82 158.44 139.90 161.42 136.94 162.30 C 133.74 162.10 131.31 158.44 128.87 156.58 C 126.12 161.62 127.30 166.53 122.89 170.17 C 121.76 169.39 120.66 169.09 120.34 167.58 C 119.38 163.24 120.32 158.79 119.08 154.43 C 111.88 159.58 108.07 169.30 104.85 177.21 C 104.20 176.85 103.63 176.42 103.15 175.92 C 105.54 168.79 108.97 161.65 113.95 155.95 C 115.27 154.45 117.05 152.78 119.05 152.31 C 120.30 152.04 121.09 153.46 121.37 154.48 C 122.56 158.67 121.65 163.24 122.54 167.57 C 124.50 164.82 124.51 160.99 125.84 157.79 C 126.50 156.31 127.07 154.59 128.95 154.45 C 132.34 155.68 133.76 158.99 137.17 160.24 C 137.83 155.57 134.49 151.86 134.87 146.98 C 135.75 144.76 137.85 144.37 140.01 144.67 Z" fill="#010101"/>
<path d="M 54.02 145.39 C 63.92 145.70 74.41 152.03 83.56 154.22 C 82.71 153.11 81.85 152.01 80.99 150.91 C 81.58 150.51 82.18 150.12 82.78 149.73 C 84.00 151.27 86.33 152.94 85.36 155.19 C 83.97 157.17 82.11 156.04 80.19 155.66 C 72.23 153.14 63.41 148.36 55.01 147.71 C 53.42 147.40 50.47 148.27 49.44 146.89 C 49.43 144.75 52.59 145.59 54.02 145.39 Z" fill="#010101"/>
<path d="M 161.27 146.26 C 161.35 146.33 161.35 146.33 161.27 146.26 Z" fill="#ffffff"/>
<path d="M 160.85 154.09 C 160.59 155.31 159.88 156.46 159.34 157.58 C 157.32 156.38 155.31 155.16 153.33 153.91 C 153.98 152.97 154.61 152.04 155.36 151.18 C 157.54 149.84 160.41 151.78 160.85 154.09 Z" fill="#010101"/>
<path d="M 159.37 156.05 C 157.74 155.12 156.13 154.15 154.59 153.09 C 157.20 150.96 160.04 152.69 159.37 156.05 Z" fill="#ffffff"/>
<path d="M 151.39 157.32 C 152.74 157.57 153.02 158.61 153.81 159.59 C 154.79 160.01 155.79 160.41 156.80 160.78 C 156.56 161.21 156.33 161.64 156.10 162.07 C 154.07 161.09 152.07 160.04 150.11 158.92 C 151.87 160.67 153.69 162.30 155.20 164.27 C 152.71 163.87 150.66 161.54 148.74 160.01 C 149.53 159.01 150.32 158.04 151.39 157.32 Z" fill="#010101"/>
<path d="M 77.08 161.15 C 82.83 162.63 86.64 168.75 85.34 174.43 L 84.10 174.79 C 82.97 172.30 83.41 169.59 81.83 167.15 C 80.42 164.74 77.94 163.98 75.59 162.79 C 75.97 161.96 76.47 161.41 77.08 161.15 Z" fill="#010101"/>
<path d="M 147.14 162.38 C 146.47 163.60 146.04 164.88 145.84 166.20 C 146.99 165.70 148.14 165.17 149.27 164.63 C 148.68 165.37 148.19 166.16 147.81 167.00 C 147.67 169.46 150.40 166.85 151.38 166.65 C 150.68 168.00 149.75 169.04 148.68 170.10 C 147.04 168.42 145.39 166.76 143.74 165.10 C 144.84 164.14 145.97 163.24 147.14 162.38 Z" fill="#010101"/>
<path d="M 142.01 167.07 C 141.76 167.87 141.52 168.67 141.29 169.48 C 142.50 171.03 143.74 172.55 144.75 174.24 C 141.14 173.91 141.88 169.00 137.62 170.50 C 139.00 169.24 140.44 168.10 142.01 167.07 Z" fill="#010101"/>
<path d="M 136.26 171.74 C 135.51 172.61 134.75 173.47 133.99 174.32 C 136.30 174.97 137.86 174.78 139.20 177.03 C 137.90 178.14 137.15 179.55 135.18 179.28 C 136.33 178.40 137.06 177.39 137.38 176.23 C 136.20 176.18 135.01 176.14 133.82 176.10 C 133.45 175.40 133.10 174.70 132.74 174.00 C 133.83 172.74 134.61 172.16 136.26 171.74 Z" fill="#010101"/>
<path d="M 129.09 175.50 C 130.19 177.80 131.27 180.10 132.16 182.50 C 129.76 181.65 129.72 179.58 128.63 177.54 C 128.77 179.67 128.91 181.80 129.05 183.93 C 127.38 182.48 125.77 180.94 124.24 179.33 L 126.65 184.87 C 124.24 184.75 123.72 180.15 122.55 178.49 C 125.19 176.71 126.27 180.28 128.04 181.62 C 128.17 179.26 126.00 176.46 129.09 175.50 Z" fill="#010101"/>
<path d="M 116.78 179.70 L 118.84 181.40 C 118.17 181.87 117.50 182.34 116.83 182.81 C 118.43 185.47 117.19 186.16 115.97 188.44 C 115.89 185.47 115.90 182.57 116.78 179.70 Z" fill="#010101"/>
<path d="M 119.16 183.05 C 120.09 183.82 120.72 184.89 121.04 186.27 C 119.67 185.92 117.37 184.44 119.16 183.05 Z" fill="#010101"/>
<path d="M 91.52 186.91 C 97.08 187.41 102.65 187.52 108.21 186.84 C 109.70 186.53 110.68 187.22 111.95 187.82 C 104.34 189.00 97.15 188.91 89.52 188.18 C 89.07 187.64 88.62 187.10 88.18 186.55 C 89.30 186.67 90.41 186.79 91.52 186.91 Z" fill="#ffffff"/>
</svg>