<svg width="700" height="775" version="1.1" viewBox="0 0 700 775" xmlns="http://www.w3.org/2000/svg"><g><path d="m342.39011 4.5830616c-65.02149 54.1587204-120.80094 60.4891524-161.53122 51.6019934-40.72979-8.887046-65.26168-30.376788-65.26168-30.376788l-0.32838-0.288368c-4.91479-4.322422-12.31644-4.120738-16.990275 0.462959l-93.3468394 91.569772c-4.16000189 4.08162-4.96763599 10.50237-1.948839 15.49344l0.205244 0.33937 0.00391 6e-3c41.4666964 68.46539 43.4558644 129.6901 33.8769564 191.33539-9.57189 61.60016-31.6445789 122.90684-37.0103459 187.67697-0.0380152 0.3925-0.0575839 0.78658-0.0586411 1.18093v0.0215c0 30.12688 8.2740033 78.75815 37.452108 123.52181 45.776963 69.3817 103.835392 85.58528 160.740212 93.61731 34.2622 4.83604 71.58786 7.18205 117.39645 25.20033 10.63507 4.2675 17.49066 10.07804 21.51117 12.64079 11.65968 8.6203 15.66149 8.60964 27.45966-0.38841 3.92258-2.63126 10.64644-8.53973 21.14632-12.84873 39.9026-15.46492 71.47731-19.80217 117.55436-24.19275 60.86101-5.79932 116.55205-33.18905 157.45475-93.42825 29.74135-45.20125 39.54488-94.35886 39.27975-125.06565-5e-3 -0.29535-0.0196-0.59044-0.0449-0.88473l0.0254 0.22364c-6e-3 -0.10502-0.0234-0.21082-0.0293-0.31584-0.0119-0.16113-0.0269-0.32202-0.0449-0.48258-3.43273-59.59721-26.09091-120.38336-36.45326-182.9944-10.40941-62.89524-9.33936-126.61868 33.23581-194.7763l2e-3 -2e-3 0.21307-0.34135c3.11922-4.99853 2.35147-11.50206-1.84524-15.63075l-93.88262-92.358273c-4.63905-4.562835-11.98584-4.804003-16.91208-0.555158l-0.34794 0.300138-8e-3 0.0059s-24.50697 21.178557-65.00756 30.00799c-40.50484 8.830353-95.8141 2.675968-159.90404-50.3210102-0.0136-0.011149-0.0273-0.022257-0.041-0.033345-6.17703-4.69263116-10.76045-4.67875316-16.56006 0.078423z" fill="#ffdd25"/><path d="m350.71458 14.96753-0.31667 0.264829c-67.61178 56.324392-128.33317 62.792086-172.19742 53.221112-43.86426-9.570974-70.82867-33.185929-70.82867-33.185929l-0.34793-0.306024-93.346833 91.569782 0.205244 0.33937c43.130892 71.21339 45.373959 136.55664 35.548227 199.79039-9.82573 63.23375-31.756117 124.33151-36.918474 186.90406l-2e-3 0.0196v0.0216c0 27.71718 7.95135 74.52014 35.411398 116.64805 27.460048 42.1279 74.463068 79.54515 152.410138 88.34868l4e-3 2e-3h2e-3c59.76157 6.033 97.3077 16.61869 119.89562 25.68245 11.29395 4.53189 18.841 9.76203 23.56571 12.77368 2.43222 1.57464 6.95713 4.90717 6.95713 4.90717s4.30681-3.41983 6.84503-5.1367c4.66689-3.13053 12.15383-8.50002 23.37061-13.10323 22.43355-9.2064 59.82456-19.66879 119.58287-24.63687l4e-3 -2e-3h6e-3c74.70397-7.799 121.60369-45.56265 149.71069-88.28002 28.10702-42.71738 37.46296-90.35634 37.21169-118.09577v-0.0118l-2e-3 -0.0118c-3.12054-57.02852-25.71153-117.96902-36.37897-182.42348-10.66745-64.45447-9.44712-132.38363 34.97746-203.50192l0.21306-0.34134-93.88243-92.358374-0.34793 0.300138s-26.9199 23.258373-70.51395 32.762203c-43.59408 9.503832-103.8173 3.257849-170.51675-51.896971z" fill="#282828"/><path d="m589.9085 53.778874-0.3457 0.34375-546.2168 542.404296 0.158203 0.32226c17.358346 35.23501 42.985798 64.46696 73.154297 82.4336l0.33594 0.19922 549.69531-552.01172z" fill="#ffdd25"/><path d="m569.68975 179.58551c-2.9828-0.0281-5.74868 1.12173-7.88086 3.25391-2.11358 2.11358-3.2539 4.87526-3.25391 7.87109v0.0217c0.0306 2.96992 1.18622 5.70575 3.29297 7.8125s4.84063 3.26234 7.81055 3.29297h0.0429c2.96991-0.0306 5.70575-1.18622 7.8125-3.29297 2.10674-2.10675 3.26041-4.8426 3.29101-7.8125l2e-3 -0.01v-0.0117c0-2.99581-1.14033-5.75751-3.25391-7.87109-2.11122-2.11121-4.87134-3.25135-7.86328-3.25391zm-89.33008 1.25391-4.15625 4.15625 1.05274 1.39062c0.97375 1.28358 1.29687 2.26234 1.29687 2.88868 0 0.7221-0.16621 1.11543-0.65234 1.60156 0.0172-0.0172-0.56907 0.42948-1.48438 0.91406-0.91531 0.48457-2.19856 1.09125-3.82031 1.80078h-2e-3c-5.8832 2.58221-10.79463 5.8083-14.68555 9.69922-5.23404 5.23438-8.91608 11.52637-10.98828 18.76562v6e-3c-2.05367 7.24188-2.10741 14.65331-0.16797 22.0879v4e-3l2e-3 4e-3c1.96474 7.4014 5.59701 13.79037 10.84375 19.03711 4.97664 4.97664 10.95037 8.46665 17.80664 10.41015h4e-3l4e-3 2e-3c6.92916 1.9293 13.94537 1.78925 20.86328-0.40821h4e-3v-2e-3c6.93141-2.22022 13.31246-6.26754 19.09571-12.05078 4.4051-4.40511 7.60654-9.02401 9.53125-13.86328l2e-3 -4e-3 2e-3 -2e-3c1.91931-4.88052 2.78382-10.45016 2.65039-16.66797l-0.0156-0.80469-8.90234-8.90039 0.40039 5.3711c0.47761 6.41015 0.0545 11.569-1.15039 15.41992l-4e-3 2e-3v4e-3c-1.19094 3.85864-3.29118 7.29702-6.38477 10.39062-3.79065 3.79065-7.61942 5.8089-11.59375 6.3125-1e-3 1.8e-4 -3e-3 0-4e-3 0-4.03549 0.48135-8.36663-0.44364-13.11914-2.95312l-4e-3 -2e-3c-4.8513-2.57469-9.56505-6.1334-14.13672-10.70508-4.60876-4.60875-7.9648-9.52692-10.12304-14.77539v-2e-3h-2e-3c-1.63954-3.96817-2.05901-7.99279-1.27344-12.2539 0.78309-4.24767 2.63363-7.77818 5.63672-10.78126 3.61461-3.61462 7.88535-5.62672 13.09375-6.15234 5.12905-0.51761 10.4042 0.83938 16 4.27539l1.34571 0.82617 4.03711-4.03711zm-51.62695 139.70508c-2.9828-0.0281-5.74867 1.11977-7.88086 3.25195-2.11358 2.11358-3.25391 4.87527-3.25391 7.87109l-2e-3 0.01v0.0117c0.0306 2.96992 1.18817 5.70575 3.29492 7.8125s4.84063 3.26235 7.81055 3.29297h0.041c2.96993-0.0306 5.70771-1.18622 7.81446-3.29297s3.26039-4.84259 3.29101-7.8125l2e-3 -0.01v-0.0117c0-2.99582-1.14034-5.75752-3.25391-7.87109-2.11122-2.11122-4.87134-3.24939-7.86328-3.25195zm-119.18945 31.34179-2.57422 2.57422 23.54883 61.8086v2e-3c2.18316 5.68638 3.24424 9.78784 3.30664 11.74805 0.0398 2.0278-0.5543 3.85991-1.92774 5.7207l-1.01953 1.38476 4.06055 4.0625 20.26953-20.26757-4.1582-4.15821-1.40625 1.21094c-2.8727 2.46951-5.12362 3.75765-5.26172 3.79297l-4e-3 2e-3h-4e-3c-1.28733 0.33506-2.02035 0.13981-3.10937-0.94922-0.80003-0.80002-1.76799-2.34978-2.6875-4.62109l-6e-3 -0.01-2.41016-6.07617 16.65821-16.6582 8.09375 3.25586c1.20297 0.48632 2.13737 0.87417 2.79101 1.1543 0.65418 0.28037 1.19664 0.58234 0.94141 0.41992l0.0742 0.0469 0.0762 0.0391c0.4836 0.25147 0.86497 0.53295 1.17187 0.83985 0.41848 0.41848 0.41718 0.51364 0.35938 0.88476-0.13305 0.64957-0.98888 2.17443-2.87305 4.0586l-2.45703 2.45898 4.25977 4.25781 28.19531-28.19531-4.15039-4.15039-1.40625 1.19727c-1.49733 1.27384-2.77584 1.79184-3.90039 1.84375v2e-3c-1.45459 0.0677-5.53836-0.88259-11.32422-3.11523l-6e-3 -2e-3zm16.24804 28.96094 18.80469 7.44922-11.52539 11.52539zm-138.3457 95.30274-20.15234 20.15234 4.2832 4.2832 1.41406-1.46289c2.61653-2.71082 4.80416-3.6377 6.75586-3.45703 1.09207 0.11537 3.51236 1.44205 6.51758 4.44727l18.49414 18.49609-53.66016-6.11328-0.68164 0.68359-20.01367 20.01367 4.21289 4.21485 1.41211-1.32422c1.52504-1.42972 2.81663-2.22734 3.65039-2.49414 0.80472-0.25752 2.49701-0.37639 4.85156-0.10938h4e-3l1.81836 0.19532 36.50781 36.50781c2.59218 2.59219 3.61212 4.73385 3.62891 6.22851 0.0163 1.4536-1.00417 3.66104-3.67969 6.38477l-1.38867 1.41406 4.24609 4.24805 21.42969-21.42969-4.25976-4.25781-2.65235 2.65039c-1.4958 1.49579-3.15035 2.32046-5.1875 2.60156-1.5098 0.18986-3.68515-0.691-6.48437-3.49023l-29.34961-29.34961 74.46093 7.7168 3.40235-3.4043-45.07227-45.07227c-2.38836-2.38835-3.78783-4.29349-4.16406-5.18359-0.47316-1.17787-0.52081-2.0345-0.3418-2.7207l2e-3 -8e-3 2e-3 -0.01c0.14846-0.59385 1.14038-2.45395 3.00781-4.86914l1.07617-1.39258zm85.6582 0.0234c-2.9828-0.0281-5.75063 1.11977-7.88281 3.25196-2.11358 2.11357-3.25391 4.87721-3.25391 7.87304v0.0217c0.0306 2.96992 1.18622 5.70575 3.29297 7.8125s4.84258 3.26039 7.8125 3.29101h0.041c2.96991-0.0306 5.7077-1.18426 7.81445-3.29101 2.10674-2.10675 3.26041-4.8426 3.29102-7.8125v-0.0217c0-2.99581-1.14033-5.75946-3.25391-7.87304-2.11122-2.11121-4.86939-3.2494-7.86133-3.25196z" fill="#282828"/></g></svg>