<?xml version="1.0" encoding="UTF-8" standalone="no"?>
<!DOCTYPE svg PUBLIC "-//W3C//DTD SVG 1.1//EN" "http://www.w3.org/Graphics/SVG/1.1/DTD/svg11.dtd">
<svg xmlns="http://www.w3.org/2000/svg" version="1.1" viewBox="0 0 200 200" width="200.0pt" height="200.0pt">
<path d="M 0.00 0.00 L 200.00 0.00 L 200.00 200.00 L 0.00 200.00 L 0.00 0.00 Z" opacity="0"/>
<path d="M 99.50 21.39 L 99.63 21.53 C 101.32 24.79 101.20 30.09 101.59 33.80 L 100.57 34.66 C 99.78 35.81 100.27 37.65 100.16 39.00 C 100.25 41.42 99.47 44.44 100.22 46.76 C 101.34 47.22 102.54 47.39 103.81 47.24 L 104.82 47.86 C 107.01 49.06 108.10 50.58 110.82 50.39 C 112.32 49.90 114.05 49.86 115.36 49.19 C 115.37 48.15 114.60 47.49 113.05 47.22 C 114.99 47.27 116.52 48.21 118.37 48.61 C 118.83 49.36 119.30 50.10 119.80 50.82 C 117.88 50.36 119.09 48.80 116.94 48.41 C 115.26 48.47 114.45 50.96 113.01 51.47 C 111.44 50.16 107.85 50.43 105.87 50.72 C 105.46 52.35 103.04 54.47 103.80 56.03 C 104.85 56.41 108.06 55.22 108.21 53.99 C 107.90 53.44 107.62 52.87 107.37 52.29 C 108.44 52.34 109.50 52.38 110.57 52.40 C 111.64 56.37 114.92 53.90 118.06 54.77 C 117.89 55.33 117.84 55.93 117.90 56.56 C 113.64 57.12 109.30 56.22 105.08 56.81 C 103.47 56.85 101.76 56.48 100.19 56.81 C 99.21 56.41 98.13 56.37 96.95 56.68 C 96.02 56.67 95.10 56.74 94.20 56.88 C 90.08 56.37 85.61 57.10 81.41 56.59 C 79.53 55.45 78.49 54.19 76.06 54.83 C 76.89 54.75 77.73 54.66 78.55 54.54 C 79.77 52.23 76.63 52.04 77.91 49.95 C 78.80 47.74 80.57 46.70 82.42 45.37 C 84.62 44.09 86.60 44.84 89.01 44.67 C 90.50 44.55 91.51 44.55 92.95 44.97 L 94.14 44.14 C 96.68 44.14 95.86 40.80 94.02 40.50 C 92.48 40.60 92.06 39.46 90.61 39.35 C 90.71 38.46 90.71 37.56 90.58 36.65 C 91.96 36.09 92.24 34.99 93.98 35.36 C 96.53 35.55 97.08 35.25 98.13 33.00 C 98.95 29.01 97.82 25.28 99.50 21.39 Z" fill="#221212"/>
<path d="M 101.59 33.80 C 102.89 36.22 105.45 34.55 107.52 35.54 C 108.15 36.19 108.78 36.86 109.40 37.53 C 109.80 38.71 108.11 39.49 107.49 40.34 C 105.17 40.31 103.88 40.37 103.65 43.08 L 104.72 44.18 L 106.05 44.84 C 109.58 44.82 113.34 44.29 116.83 45.23 C 118.60 46.39 121.06 47.82 121.54 50.07 C 122.09 52.06 119.87 52.40 120.65 54.36 C 122.12 55.18 123.47 54.22 124.81 55.24 L 124.63 56.25 C 123.56 56.69 122.47 57.08 121.39 57.51 L 121.93 57.97 C 121.81 59.10 122.63 62.19 121.00 62.34 C 119.36 61.92 120.35 59.41 119.88 58.15 C 118.21 57.36 118.65 62.15 118.97 62.90 C 119.97 62.87 120.95 62.93 121.90 63.10 L 122.22 64.12 C 120.78 63.88 116.01 65.30 115.79 63.30 L 116.98 62.79 C 117.30 61.38 117.00 59.59 116.85 58.14 C 115.25 58.04 113.66 58.14 112.05 57.96 C 111.84 59.72 111.79 61.55 111.92 63.32 C 106.65 63.51 101.32 63.02 96.00 63.33 C 93.91 62.92 91.63 63.91 89.73 63.11 C 89.90 61.53 90.35 59.56 89.88 58.04 C 87.73 57.29 89.31 62.15 89.24 63.13 L 88.12 63.25 C 87.67 61.57 87.03 60.01 86.72 58.29 C 84.00 57.80 81.07 57.98 78.34 58.36 C 76.77 59.81 76.01 62.91 78.94 62.94 C 78.85 61.59 78.93 60.33 79.20 59.15 C 80.07 58.69 80.93 58.69 81.78 59.17 C 81.93 60.38 82.05 61.60 82.15 62.83 L 84.32 63.35 C 84.02 64.32 83.24 64.65 82.00 64.35 C 79.69 64.01 77.44 64.60 75.12 64.27 C 75.18 62.82 77.34 58.20 74.11 59.09 C 73.86 60.80 73.90 62.59 73.98 64.31 C 73.27 64.43 72.58 64.61 71.93 64.86 C 69.08 66.16 65.60 64.66 63.01 66.30 C 60.96 66.56 59.20 67.68 57.12 67.93 C 56.13 66.35 56.91 63.84 56.90 62.04 C 57.23 60.28 59.73 60.54 61.08 60.54 C 61.98 61.91 61.07 63.54 61.99 64.96 C 63.76 65.45 63.37 63.05 64.45 62.44 C 64.68 63.72 65.20 64.24 66.01 63.99 C 67.01 62.25 65.66 60.97 64.66 59.68 C 65.38 58.71 67.07 58.85 68.09 58.23 C 70.05 57.40 72.50 57.61 74.61 57.53 C 74.59 56.78 74.40 56.02 74.04 55.25 L 76.06 54.83 C 78.49 54.19 79.53 55.45 81.41 56.59 C 85.61 57.10 90.08 56.37 94.20 56.88 C 94.05 58.60 93.43 60.14 94.20 61.79 C 95.22 62.25 96.39 62.18 97.70 61.61 C 98.49 59.67 97.92 58.37 96.95 56.68 C 98.13 56.37 99.21 56.41 100.19 56.81 C 100.51 58.41 100.46 60.00 100.42 61.62 C 102.19 63.15 102.80 59.85 102.43 58.70 C 102.21 56.69 104.31 58.34 104.67 59.30 C 105.08 60.31 105.53 62.49 107.03 62.04 C 107.50 60.65 105.83 58.07 105.08 56.81 C 109.30 56.22 113.64 57.12 117.90 56.56 C 117.84 55.93 117.89 55.33 118.06 54.77 C 119.72 54.11 120.53 52.53 119.80 50.82 C 119.30 50.10 118.83 49.36 118.37 48.61 C 116.52 48.21 114.99 47.27 113.05 47.22 C 111.19 47.10 105.65 45.71 104.82 47.86 L 103.81 47.24 C 104.65 46.40 105.01 45.60 104.87 44.85 C 103.63 44.32 102.28 44.52 101.74 43.00 C 101.37 39.05 108.79 40.99 107.98 36.87 C 106.37 35.80 104.05 37.75 102.19 36.77 C 101.50 36.24 100.96 35.54 100.57 34.66 L 101.59 33.80 Z" fill="#ee0c11"/>
<path d="M 100.57 34.66 C 100.96 35.54 101.50 36.24 102.19 36.77 C 104.05 37.75 106.37 35.80 107.98 36.87 C 108.79 40.99 101.37 39.05 101.74 43.00 C 102.28 44.52 103.63 44.32 104.87 44.85 C 105.01 45.60 104.65 46.40 103.81 47.24 C 102.54 47.39 101.34 47.22 100.22 46.76 C 99.47 44.44 100.25 41.42 100.16 39.00 C 100.27 37.65 99.78 35.81 100.57 34.66 Z" fill="#ffffff"/>
<path d="M 98.88 35.91 C 99.49 38.94 99.26 43.77 98.93 46.88 C 97.95 47.23 96.96 47.42 95.96 47.45 C 95.17 46.59 92.66 45.35 94.81 44.34 C 97.11 44.66 97.83 43.77 97.49 41.53 C 95.71 39.99 91.58 40.21 90.96 38.01 L 91.62 36.68 C 94.29 36.10 96.13 37.48 98.88 35.91 Z" fill="#ffffff"/>
<path d="M 88.01 40.92 C 90.37 41.39 92.34 42.59 94.14 44.14 L 92.95 44.97 C 91.51 44.55 90.50 44.55 89.01 44.67 C 86.60 44.84 84.62 44.09 82.42 45.37 C 82.90 42.95 85.49 40.73 88.01 40.92 Z" fill="#dee2e2"/>
<path d="M 110.10 41.21 C 112.55 39.81 116.77 42.56 116.83 45.23 C 113.34 44.29 109.58 44.82 106.05 44.84 L 104.72 44.18 C 105.61 42.48 108.43 41.90 110.10 41.21 Z" fill="#e4ecec"/>
<path d="M 92.01 46.55 C 93.50 46.53 94.26 47.02 94.29 48.01 C 93.58 48.88 91.49 49.09 92.17 50.58 C 94.41 50.68 96.94 49.59 98.89 49.99 C 99.19 51.72 98.98 53.54 99.02 55.30 C 96.77 56.86 96.42 50.23 94.06 50.97 C 93.88 52.88 96.12 53.45 95.67 55.50 C 93.74 56.26 92.28 55.76 91.28 54.01 C 91.74 53.46 92.19 52.90 92.61 52.33 C 91.41 52.34 90.20 52.37 89.00 52.42 L 88.25 52.48 C 86.16 55.02 83.58 53.63 80.71 54.65 C 78.53 54.39 78.94 50.37 80.51 49.51 C 83.77 47.27 88.08 46.37 92.01 46.55 Z" fill="#fdfdfd"/>
<path d="M 113.05 47.22 C 114.60 47.49 115.37 48.15 115.36 49.19 C 114.05 49.86 112.32 49.90 110.82 50.39 C 108.10 50.58 107.01 49.06 104.82 47.86 C 105.65 45.71 111.19 47.10 113.05 47.22 Z" fill="#f9f9f9"/>
<path d="M 116.94 48.41 C 119.09 48.80 117.88 50.36 119.80 50.82 C 120.53 52.53 119.72 54.11 118.06 54.77 C 114.92 53.90 111.64 56.37 110.57 52.40 C 109.50 52.38 108.44 52.34 107.37 52.29 C 107.62 52.87 107.90 53.44 108.21 53.99 C 108.06 55.22 104.85 56.41 103.80 56.03 C 103.04 54.47 105.46 52.35 105.87 50.72 C 107.85 50.43 111.44 50.16 113.01 51.47 C 114.45 50.96 115.26 48.47 116.94 48.41 Z" fill="#ffffff"/>
<path d="M 100.80 49.90 C 101.87 49.75 102.99 49.83 104.16 50.16 L 104.39 50.96 C 103.31 52.09 102.54 55.54 100.81 55.33 C 100.25 53.99 100.15 51.21 100.80 49.90 Z" fill="#fafafa"/>
<path d="M 88.25 52.48 L 89.00 52.42 C 88.69 53.32 88.26 54.18 87.72 55.01 C 86.46 55.34 82.99 54.07 82.95 56.06 C 82.10 56.19 81.35 55.72 80.71 54.65 C 83.58 53.63 86.16 55.02 88.25 52.48 Z" fill="#d0d1d1"/>
<path d="M 87.72 55.01 C 87.59 56.98 84.21 56.20 82.95 56.06 C 82.99 54.07 86.46 55.34 87.72 55.01 Z" fill="#ebecec"/>
<path d="M 116.87 55.08 C 117.47 56.70 113.82 56.33 113.10 55.91 C 112.47 54.29 116.17 54.59 116.87 55.08 Z" fill="#fafcfc"/>
<path d="M 124.63 56.25 C 124.86 58.45 128.67 57.05 130.15 57.82 C 133.97 58.86 139.37 58.76 142.78 61.25 C 142.65 62.67 142.20 65.13 143.71 65.98 C 143.44 67.15 143.38 68.38 143.55 69.65 C 143.00 69.02 142.50 68.36 142.05 67.66 L 141.08 67.73 C 138.03 66.69 134.97 66.94 132.01 65.86 C 130.38 65.84 128.48 65.35 126.94 65.95 C 126.52 67.17 126.55 68.52 127.01 70.00 C 129.48 70.62 132.80 69.48 135.05 70.76 C 132.61 70.73 129.17 69.83 126.99 71.04 C 127.00 72.73 128.49 73.43 129.99 73.45 C 132.29 73.57 134.59 73.41 136.89 73.44 C 140.42 73.98 144.25 73.48 147.70 74.25 C 147.26 75.22 146.27 75.83 145.99 76.95 C 144.09 77.63 142.66 79.88 141.53 81.48 C 140.53 84.06 140.82 87.25 140.75 90.00 C 140.63 95.28 140.88 100.56 140.73 105.83 C 140.00 106.52 139.01 106.61 137.75 106.08 C 137.50 99.07 137.69 92.01 137.65 84.99 C 137.71 81.78 139.11 79.84 140.55 77.30 C 137.15 76.89 133.54 77.20 130.10 77.16 C 127.47 76.98 124.85 77.06 122.21 77.12 C 119.84 77.13 117.46 77.08 115.09 77.17 C 112.45 76.99 109.82 77.05 107.19 77.11 C 104.76 77.13 102.33 77.09 99.90 77.15 C 87.27 76.99 74.63 77.13 62.00 77.08 C 61.13 77.05 60.30 77.13 59.49 77.33 C 60.79 80.05 62.07 81.56 62.24 85.00 C 62.31 91.99 62.36 99.01 62.20 106.00 C 61.36 106.74 60.73 108.14 59.40 107.82 C 58.76 99.91 59.52 91.91 59.01 83.99 C 58.47 80.03 55.21 77.82 52.81 74.98 L 52.98 74.14 C 55.89 73.40 59.09 73.94 62.04 73.34 C 65.41 73.06 70.34 74.57 73.01 72.14 C 73.29 73.18 73.97 73.61 75.05 73.43 C 77.37 72.82 74.47 69.73 73.23 71.12 C 70.17 69.71 66.02 70.49 62.95 71.53 C 61.28 71.52 58.61 72.16 57.42 70.69 C 55.67 69.68 57.04 67.58 55.96 65.95 C 54.19 65.44 51.11 65.27 49.91 66.99 C 49.34 68.40 49.42 70.70 49.92 72.13 C 51.91 73.22 54.94 71.80 57.00 72.86 C 54.33 72.86 51.76 72.82 49.12 73.26 C 49.40 71.02 48.88 68.65 49.33 66.38 C 50.57 64.45 54.38 65.75 56.19 65.12 C 56.76 63.80 56.56 62.11 56.64 60.67 C 60.43 59.99 64.10 58.32 68.09 58.23 C 67.07 58.85 65.38 58.71 64.66 59.68 C 63.30 59.56 62.06 59.37 61.08 60.54 C 59.73 60.54 57.23 60.28 56.90 62.04 C 56.91 63.84 56.13 66.35 57.12 67.93 C 59.20 67.68 60.96 66.56 63.01 66.30 C 65.60 64.66 69.08 66.16 71.93 64.86 C 72.58 64.61 73.27 64.43 73.98 64.31 L 75.12 64.27 C 77.44 64.60 79.69 64.01 82.00 64.35 C 83.24 64.65 84.02 64.32 84.32 63.35 L 85.19 63.17 L 85.91 63.23 L 88.12 63.25 L 89.24 63.13 L 89.73 63.11 C 91.63 63.91 93.91 62.92 96.00 63.33 C 101.32 63.02 106.65 63.51 111.92 63.32 C 113.22 63.41 114.51 63.41 115.79 63.30 C 116.01 65.30 120.78 63.88 122.22 64.12 C 123.41 64.30 124.52 64.29 125.55 64.06 L 125.95 64.99 C 128.18 65.48 130.71 65.27 133.02 65.35 L 133.77 65.29 C 134.12 66.17 135.26 66.47 137.17 66.21 C 138.68 66.61 140.06 66.65 141.32 66.33 C 142.10 64.73 141.89 63.46 140.67 62.52 C 140.80 62.01 140.91 61.50 141.00 60.99 L 140.07 60.51 L 139.30 60.81 L 139.00 59.99 C 137.75 59.59 136.40 59.44 134.96 59.55 L 133.21 59.68 C 132.95 59.02 132.26 58.72 131.14 58.77 C 129.65 58.32 128.46 58.53 127.57 59.41 C 125.46 58.45 124.36 56.76 121.93 57.97 L 121.39 57.51 C 122.47 57.08 123.56 56.69 124.63 56.25 Z" fill="#010100"/>
<path d="M 94.20 56.88 C 95.10 56.74 96.02 56.67 96.95 56.68 C 97.92 58.37 98.49 59.67 97.70 61.61 C 96.39 62.18 95.22 62.25 94.20 61.79 C 93.43 60.14 94.05 58.60 94.20 56.88 Z" fill="#ff8c92"/>
<path d="M 100.19 56.81 C 101.76 56.48 103.47 56.85 105.08 56.81 C 105.83 58.07 107.50 60.65 107.03 62.04 C 105.53 62.49 105.08 60.31 104.67 59.30 C 104.31 58.34 102.21 56.69 102.43 58.70 C 102.80 59.85 102.19 63.15 100.42 61.62 C 100.46 60.00 100.51 58.41 100.19 56.81 Z" fill="#ff9297"/>
<path d="M 78.34 58.36 C 81.07 57.98 84.00 57.80 86.72 58.29 C 87.03 60.01 87.67 61.57 88.12 63.25 L 85.91 63.23 C 86.13 61.79 85.03 60.53 84.68 59.12 C 82.21 59.50 84.56 62.11 85.19 63.17 L 84.32 63.35 L 82.15 62.83 C 82.05 61.60 81.93 60.38 81.78 59.17 C 80.93 58.69 80.07 58.69 79.20 59.15 C 78.93 60.33 78.85 61.59 78.94 62.94 C 76.01 62.91 76.77 59.81 78.34 58.36 Z" fill="#ff868b"/>
<path d="M 89.88 58.04 C 90.35 59.56 89.90 61.53 89.73 63.11 L 89.24 63.13 C 89.31 62.15 87.73 57.29 89.88 58.04 Z" fill="#ffbcbf"/>
<path d="M 92.08 58.04 C 93.49 57.17 93.52 62.76 92.14 61.91 C 91.70 60.48 91.68 59.19 92.08 58.04 Z" fill="#ffcbcd"/>
<path d="M 95.20 58.11 C 96.52 57.71 97.36 59.80 96.72 60.79 C 94.73 62.29 94.76 59.29 95.20 58.11 Z" fill="#fe121b"/>
<path d="M 108.84 58.14 C 109.13 59.37 109.12 60.59 108.82 61.79 C 107.27 62.51 107.28 57.38 108.84 58.14 Z" fill="#ffbabd"/>
<path d="M 112.05 57.96 C 113.66 58.14 115.25 58.04 116.85 58.14 C 117.00 59.59 117.30 61.38 116.98 62.79 L 115.79 63.30 C 114.51 63.41 113.22 63.41 111.92 63.32 C 111.79 61.55 111.84 59.72 112.05 57.96 Z" fill="#ff898f"/>
<path d="M 119.88 58.15 C 120.35 59.41 119.36 61.92 121.00 62.34 C 122.63 62.19 121.81 59.10 121.93 57.97 C 124.36 56.76 125.46 58.45 127.57 59.41 C 128.46 58.53 129.65 58.32 131.14 58.77 C 132.40 60.54 132.16 61.95 131.81 63.98 C 128.64 65.74 131.36 59.44 128.95 60.09 C 128.91 61.55 128.87 62.78 128.82 63.80 C 127.05 63.87 126.53 60.24 125.00 59.53 C 123.79 60.33 123.47 61.46 124.04 62.90 C 124.57 62.80 125.09 62.66 125.60 62.50 L 125.55 64.06 C 124.52 64.29 123.41 64.30 122.22 64.12 L 121.90 63.10 C 120.95 62.93 119.97 62.87 118.97 62.90 C 118.65 62.15 118.21 57.36 119.88 58.15 Z" fill="#ff858a"/>
<path d="M 69.43 59.45 L 69.68 59.50 C 70.94 60.06 71.53 58.89 72.73 59.22 C 71.71 61.10 73.62 61.24 72.94 63.04 C 72.20 63.39 71.33 63.23 70.33 62.58 C 69.11 61.73 68.74 64.31 67.61 62.43 C 66.65 61.53 66.44 60.74 66.96 60.04 C 67.64 60.19 68.30 60.42 68.96 60.72 L 69.43 59.45 Z" fill="#ff848a"/>
<path d="M 74.11 59.09 C 77.34 58.20 75.18 62.82 75.12 64.27 L 73.98 64.31 C 73.90 62.59 73.86 60.80 74.11 59.09 Z" fill="#ff9da1"/>
<path d="M 84.68 59.12 C 85.03 60.53 86.13 61.79 85.91 63.23 L 85.19 63.17 C 84.56 62.11 82.21 59.50 84.68 59.12 Z" fill="#fe1e27"/>
<path d="M 114.87 59.12 C 115.42 60.00 115.38 60.90 114.75 61.84 C 112.21 63.55 113.71 58.76 114.87 59.12 Z" fill="#fe1f28"/>
<path d="M 131.14 58.77 C 132.26 58.72 132.95 59.02 133.21 59.68 C 132.91 61.53 133.02 63.48 133.02 65.35 C 130.71 65.27 128.18 65.48 125.95 64.99 L 125.55 64.06 L 125.60 62.50 C 125.09 62.66 124.57 62.80 124.04 62.90 C 123.47 61.46 123.79 60.33 125.00 59.53 C 126.53 60.24 127.05 63.87 128.82 63.80 C 128.87 62.78 128.91 61.55 128.95 60.09 C 131.36 59.44 128.64 65.74 131.81 63.98 C 132.16 61.95 132.40 60.54 131.14 58.77 Z" fill="#fa2026"/>
<path d="M 64.66 59.68 C 65.66 60.97 67.01 62.25 66.01 63.99 C 65.20 64.24 64.68 63.72 64.45 62.44 C 63.37 63.05 63.76 65.45 61.99 64.96 C 61.07 63.54 61.98 61.91 61.08 60.54 C 62.06 59.37 63.30 59.56 64.66 59.68 Z" fill="#fe6c71"/>
<path d="M 133.21 59.68 L 134.96 59.55 C 134.54 61.16 136.21 65.08 133.77 65.29 L 133.02 65.35 C 133.02 63.48 132.91 61.53 133.21 59.68 Z" fill="#ff868b"/>
<path d="M 134.96 59.55 C 136.40 59.44 137.75 59.59 139.00 59.99 L 139.30 60.81 C 139.12 61.86 138.96 62.92 138.84 63.98 C 137.05 64.44 139.11 59.89 136.19 61.10 C 135.28 63.43 137.33 64.06 137.17 66.21 C 135.26 66.47 134.12 66.17 133.77 65.29 C 136.21 65.08 134.54 61.16 134.96 59.55 Z" fill="#fa161d"/>
<path d="M 103.09 61.21 L 103.86 61.20 L 103.91 61.81 L 103.16 61.82 L 103.09 61.21 Z" fill="#ff6269"/>
<path d="M 136.19 61.10 C 139.11 59.89 137.05 64.44 138.84 63.98 C 138.96 62.92 139.12 61.86 139.30 60.81 L 140.07 60.51 L 141.00 60.99 C 140.91 61.50 140.80 62.01 140.67 62.52 C 141.89 63.46 142.10 64.73 141.32 66.33 C 140.06 66.65 138.68 66.61 137.17 66.21 C 137.33 64.06 135.28 63.43 136.19 61.10 Z" fill="#ff9196"/>
<path d="M 142.78 61.25 L 143.48 61.53 C 143.41 62.80 143.57 63.96 143.94 65.00 C 146.18 65.08 148.30 64.84 150.49 65.55 C 151.21 67.68 151.23 72.58 150.73 74.75 C 149.81 75.48 148.31 75.87 147.83 76.97 L 145.99 76.95 C 146.27 75.83 147.26 75.22 147.70 74.25 C 144.25 73.48 140.42 73.98 136.89 73.44 C 141.20 73.06 145.45 72.59 149.79 72.74 C 150.37 71.27 150.40 67.59 149.71 66.16 C 147.73 65.82 145.71 65.63 143.71 65.98 C 142.20 65.13 142.65 62.67 142.78 61.25 Z" fill="#8c6847"/>
<path d="M 58.88 63.07 L 59.50 64.63 L 59.80 65.99 C 57.84 67.39 57.23 62.55 58.88 63.07 Z" fill="#ffb2b6"/>
<path d="M 86.50 64.26 C 86.59 67.45 85.48 69.80 85.74 72.82 L 84.05 73.41 C 84.62 71.87 86.44 69.38 85.20 67.86 C 83.38 68.66 82.43 70.78 79.97 71.27 C 78.22 71.31 76.96 71.75 75.43 70.63 C 72.94 70.07 73.23 67.77 73.67 65.81 C 75.17 64.41 78.06 64.90 80.00 64.62 C 81.94 64.14 82.89 65.52 84.54 65.79 C 84.47 64.21 85.12 63.70 86.50 64.26 Z" fill="#ffffff"/>
<path d="M 96.12 63.86 L 96.47 64.91 C 95.56 65.86 95.14 67.49 94.02 68.13 C 92.92 68.15 91.15 66.67 91.41 65.44 C 92.78 64.89 94.67 62.94 96.12 63.86 Z" fill="#d7d8d8"/>
<path d="M 98.90 63.89 C 99.25 65.73 99.24 68.10 98.92 69.94 C 97.79 70.48 95.21 69.72 95.63 68.09 C 96.81 67.05 97.30 64.10 98.90 63.89 Z" fill="#f8f8f8"/>
<path d="M 100.96 63.72 C 102.33 64.57 102.81 66.85 103.88 68.13 C 104.98 70.28 101.37 70.43 100.25 69.75 C 100.52 68.30 99.45 64.24 100.96 63.72 Z" fill="#d1d2d2"/>
<path d="M 103.01 63.92 C 103.91 62.76 107.98 64.84 108.20 66.01 C 107.81 67.17 106.56 68.09 105.46 68.55 C 104.73 67.05 103.26 65.55 103.01 63.92 Z" fill="#e4e5e5"/>
<path d="M 115.33 65.66 C 118.21 63.75 120.72 64.87 124.01 64.87 C 125.87 64.73 126.78 66.31 126.31 68.00 C 125.86 69.72 127.01 71.58 126.24 73.15 C 125.20 73.43 124.12 73.49 122.98 73.33 C 123.52 72.57 123.87 71.79 124.03 70.97 C 122.31 70.70 120.78 71.60 118.98 71.06 C 116.89 70.66 115.72 69.24 114.55 67.59 C 114.12 68.36 113.84 69.15 113.71 69.97 C 113.64 68.30 113.58 66.66 113.20 65.02 C 113.53 62.99 115.07 64.27 115.33 65.66 Z" fill="#ffffff"/>
<path d="M 55.96 65.95 C 57.04 67.58 55.67 69.68 57.42 70.69 C 58.61 72.16 61.28 71.52 62.95 71.53 C 66.02 70.49 70.17 69.71 73.23 71.12 L 73.01 72.14 C 70.34 74.57 65.41 73.06 62.04 73.34 C 60.34 73.19 58.68 73.18 57.00 72.86 C 54.94 71.80 51.91 73.22 49.92 72.13 C 49.42 70.70 49.34 68.40 49.91 66.99 C 51.11 65.27 54.19 65.44 55.96 65.95 Z" fill="#fe000c"/>
<path d="M 72.80 66.00 C 72.91 67.01 72.69 68.05 72.12 69.11 C 70.16 70.17 67.98 68.84 65.99 70.25 C 63.21 70.32 61.71 71.88 59.04 71.02 C 57.61 70.20 57.53 68.91 59.04 68.13 C 61.35 67.44 63.55 66.43 65.95 66.47 C 67.84 66.16 71.10 64.90 72.80 66.00 Z" fill="#9e8623"/>
<path d="M 126.94 65.95 C 128.48 65.35 130.38 65.84 132.01 65.86 C 134.97 66.94 138.03 66.69 141.08 67.73 C 142.05 69.01 142.60 69.98 140.96 71.04 C 139.29 71.94 136.75 71.37 135.05 70.76 C 132.80 69.48 129.48 70.62 127.01 70.00 C 126.55 68.52 126.52 67.17 126.94 65.95 Z" fill="#9f8723"/>
<path d="M 143.71 65.98 C 145.71 65.63 147.73 65.82 149.71 66.16 C 150.40 67.59 150.37 71.27 149.79 72.74 C 145.45 72.59 141.20 73.06 136.89 73.44 C 134.59 73.41 132.29 73.57 129.99 73.45 C 128.49 73.43 127.00 72.73 126.99 71.04 C 129.17 69.83 132.61 70.73 135.05 70.76 C 136.75 71.37 139.29 71.94 140.96 71.04 C 142.60 69.98 142.05 69.01 141.08 67.73 L 142.05 67.66 C 142.50 68.36 143.00 69.02 143.55 69.65 C 143.38 68.38 143.44 67.15 143.71 65.98 Z" fill="#fe000b"/>
<path d="M 88.48 67.37 L 89.55 67.43 C 91.40 70.21 95.26 72.57 98.61 72.45 C 97.98 73.97 94.42 73.17 93.00 73.36 C 91.64 73.11 89.22 73.91 88.28 72.86 C 88.11 71.01 88.51 69.22 88.48 67.37 Z" fill="#ffffff"/>
<path d="M 110.83 67.23 C 111.24 68.81 111.74 71.59 111.19 73.11 C 107.87 73.43 103.42 73.90 100.34 72.45 C 104.50 72.95 108.15 69.70 110.83 67.23 Z" fill="#ffffff"/>
<path d="M 85.20 67.86 C 86.44 69.38 84.62 71.87 84.05 73.41 C 81.89 73.42 78.94 74.01 76.99 73.08 C 76.48 71.01 78.80 71.83 79.97 71.27 C 82.43 70.78 83.38 68.66 85.20 67.86 Z" fill="#ea2623"/>
<path d="M 114.55 67.59 C 115.72 69.24 116.89 70.66 118.98 71.06 C 120.78 71.60 122.31 70.70 124.03 70.97 C 123.87 71.79 123.52 72.57 122.98 73.33 C 120.37 73.73 117.62 73.57 115.01 73.31 C 115.22 72.33 114.87 71.53 113.96 70.92 L 113.71 69.97 C 113.84 69.15 114.12 68.36 114.55 67.59 Z" fill="#e22622"/>
<path d="M 73.23 71.12 C 74.47 69.73 77.37 72.82 75.05 73.43 C 73.97 73.61 73.29 73.18 73.01 72.14 L 73.23 71.12 Z" fill="#cac6b2"/>
<path d="M 113.96 70.92 C 114.87 71.53 115.22 72.33 115.01 73.31 L 114.06 73.15 L 113.96 70.92 Z" fill="#d59584"/>
<path d="M 49.12 73.26 C 51.76 72.82 54.33 72.86 57.00 72.86 C 58.68 73.18 60.34 73.19 62.04 73.34 C 59.09 73.94 55.89 73.40 52.98 74.14 L 52.81 74.98 C 55.21 77.82 58.47 80.03 59.01 83.99 C 59.52 91.91 58.76 99.91 59.40 107.82 C 60.73 108.14 61.36 106.74 62.20 106.00 C 63.20 108.35 62.12 111.53 63.17 113.78 C 65.14 114.17 68.77 114.16 70.74 113.76 C 71.31 107.95 70.45 101.77 70.99 95.99 C 72.20 95.37 76.12 94.88 76.22 96.98 C 76.40 102.46 75.74 108.27 76.31 113.70 C 77.88 114.16 80.00 114.22 81.53 113.57 C 81.78 107.95 80.99 101.36 81.97 95.97 C 83.32 95.30 84.68 95.30 86.02 95.98 L 86.45 96.98 C 86.48 102.51 86.43 108.04 86.45 113.58 C 87.98 114.22 91.02 114.22 92.55 113.58 C 92.57 108.04 92.51 102.51 92.55 96.98 L 92.97 95.98 C 94.32 95.30 95.68 95.30 97.04 95.97 L 97.47 96.97 C 97.50 102.50 97.47 108.04 97.47 113.57 C 98.21 113.87 99.03 113.98 99.93 113.90 C 102.36 113.97 104.80 113.99 107.23 113.90 C 109.87 113.99 112.48 114.11 115.11 113.90 C 117.49 113.96 119.87 114.00 122.25 113.89 C 124.88 113.98 127.49 114.11 130.12 113.90 C 132.37 113.88 134.72 114.16 136.95 113.80 C 137.50 111.37 136.96 108.49 137.75 106.08 C 139.01 106.61 140.00 106.52 140.73 105.83 C 140.88 100.56 140.63 95.28 140.75 90.00 C 140.82 87.25 140.53 84.06 141.53 81.48 C 142.66 79.88 144.09 77.63 145.99 76.95 C 145.68 78.79 146.29 79.47 147.83 79.01 L 147.55 79.53 C 142.91 78.30 141.75 83.58 141.86 87.03 C 142.23 89.82 145.03 88.41 146.35 90.51 C 146.80 92.35 146.85 94.14 146.77 96.02 C 147.17 97.62 148.91 97.15 149.96 98.06 C 151.57 99.57 153.61 99.07 154.94 101.03 C 152.15 100.50 149.23 98.24 146.52 97.46 C 145.90 94.67 147.09 92.39 144.81 90.08 C 143.77 89.94 143.58 91.96 143.21 92.72 C 144.32 93.08 144.81 93.70 144.68 94.59 C 143.68 93.88 142.85 93.68 142.17 93.99 C 141.80 95.52 141.91 96.77 143.40 97.54 C 143.59 98.37 143.90 99.14 144.31 99.84 C 147.29 100.47 148.22 102.16 148.76 104.98 C 148.09 104.43 147.02 104.06 146.50 103.41 C 147.47 101.41 145.07 100.80 143.59 100.39 C 143.44 98.56 142.95 97.81 142.12 98.12 C 141.61 101.28 141.87 104.80 141.99 108.02 C 142.41 109.94 143.07 110.42 145.08 110.30 C 143.04 111.40 142.79 110.55 140.96 110.02 L 140.56 111.56 C 139.55 110.88 138.69 110.68 137.99 110.97 C 137.52 112.08 137.56 113.05 138.11 113.87 C 142.16 114.73 146.33 113.33 150.12 114.85 C 151.45 114.31 152.38 113.67 153.89 114.20 C 153.65 114.89 153.03 115.52 152.03 116.10 C 152.35 117.48 153.22 118.72 153.77 120.04 C 152.03 119.61 152.01 117.39 151.01 116.03 C 148.84 114.49 147.86 116.30 146.06 114.50 C 144.64 114.45 143.35 114.67 142.16 115.16 C 141.50 123.02 142.08 131.98 141.83 140.00 C 142.03 141.31 140.64 144.04 142.79 144.14 C 142.35 144.75 141.77 145.30 141.05 145.81 C 140.24 147.52 139.40 149.20 138.72 150.96 L 138.47 151.82 C 142.03 152.23 144.77 150.91 148.01 149.78 C 149.72 149.61 152.95 149.25 153.91 151.06 C 155.05 152.32 154.20 154.13 152.91 154.89 C 147.42 157.96 140.99 159.42 134.93 159.98 C 133.59 158.83 135.78 155.62 133.22 156.42 L 133.28 156.71 C 130.47 157.26 128.02 159.36 125.01 159.75 C 119.21 161.53 113.72 159.84 108.03 162.13 L 108.02 162.98 C 108.94 163.02 109.86 163.08 110.78 163.14 L 111.03 163.67 C 110.00 163.76 108.98 163.85 107.96 163.95 C 106.77 163.84 105.58 163.77 104.39 163.72 C 105.79 160.66 110.14 160.12 113.05 159.52 C 120.44 159.70 128.10 158.95 134.01 154.05 C 137.91 150.95 139.50 146.64 140.63 141.95 C 140.85 135.09 140.81 128.16 140.68 121.30 C 139.75 120.88 138.86 120.84 138.01 121.17 C 137.22 126.04 137.95 131.92 137.68 136.98 C 136.46 136.25 135.85 135.25 134.40 136.36 C 134.34 140.61 134.30 144.90 134.40 149.15 C 133.77 150.20 133.13 151.08 132.13 151.80 C 132.90 146.99 132.29 141.88 132.49 137.00 C 132.98 134.39 128.94 132.68 127.17 133.99 C 126.78 140.64 126.75 147.65 127.20 154.31 C 126.68 154.75 125.99 155.05 125.15 155.20 C 125.03 148.13 125.23 141.05 125.05 133.98 C 125.00 131.58 120.78 130.96 119.45 132.43 C 118.93 140.29 119.61 148.33 119.10 156.20 L 117.92 156.23 C 117.40 148.58 117.99 140.83 117.62 133.17 C 117.49 130.19 114.21 130.19 112.22 131.10 C 111.93 132.02 111.81 132.98 111.88 134.00 C 111.99 141.41 111.68 148.87 112.05 156.27 C 111.70 156.76 111.03 157.00 110.03 157.01 C 110.07 148.68 110.19 140.30 109.98 131.99 C 109.75 129.25 107.11 129.46 105.13 130.05 C 104.05 131.98 104.31 133.86 104.27 136.00 C 104.32 143.71 104.21 151.42 104.33 159.13 L 103.01 160.13 C 102.69 159.14 102.56 158.09 102.62 157.00 C 102.64 149.00 102.64 140.99 102.63 132.98 C 102.91 131.22 101.76 130.25 100.05 130.82 C 99.81 129.27 99.93 127.75 100.05 126.19 C 106.05 126.83 112.42 126.04 118.50 126.59 C 120.89 127.60 123.51 127.28 126.00 128.22 C 129.66 128.22 133.65 131.06 137.01 130.93 C 137.98 128.35 137.23 124.80 137.45 121.99 L 137.00 121.17 C 124.87 120.72 112.13 120.94 99.94 121.07 C 97.55 120.87 95.16 120.82 92.78 121.07 C 90.14 120.96 87.53 120.84 84.90 121.08 C 82.52 120.88 80.15 120.81 77.77 121.07 C 75.13 120.97 72.52 120.83 69.89 121.08 C 67.33 120.88 64.77 120.79 62.21 121.10 L 59.95 121.15 L 59.46 121.96 C 59.44 127.98 59.46 133.99 59.45 140.00 C 59.30 147.07 63.65 153.88 70.12 156.74 C 75.72 159.49 81.44 159.49 87.51 159.60 C 89.11 160.10 94.26 160.66 94.00 163.02 L 92.35 163.31 L 92.01 162.18 C 89.33 161.21 86.87 160.71 84.00 160.79 C 77.98 160.81 72.23 159.57 67.00 156.61 L 66.28 156.49 C 66.25 157.62 66.15 158.73 65.95 159.82 C 64.48 160.66 63.38 159.80 61.94 159.50 C 56.48 158.96 50.60 157.30 46.18 153.93 C 45.03 152.07 46.07 150.39 47.98 149.78 C 50.46 149.53 52.84 149.43 55.08 150.69 C 57.01 151.87 59.60 152.12 61.77 151.61 L 61.19 151.05 C 60.60 149.24 59.63 147.58 58.90 145.81 C 58.24 145.27 57.67 144.74 57.20 144.24 C 59.25 143.52 57.96 141.61 58.11 140.00 C 57.88 131.77 58.34 123.23 57.78 115.05 C 55.81 114.75 54.21 113.86 52.56 115.42 L 52.45 115.40 C 51.40 114.92 49.95 115.63 48.98 116.04 C 48.39 117.13 47.91 118.27 47.34 119.37 C 46.08 120.53 44.81 121.46 44.19 123.14 C 43.53 123.68 42.86 123.90 42.17 123.81 C 43.35 120.54 46.79 119.73 47.87 116.85 C 48.02 115.30 46.16 115.39 46.11 114.20 C 47.28 113.79 48.36 113.99 49.34 114.80 C 53.55 113.63 57.69 114.47 62.00 113.89 C 62.83 111.85 62.37 110.70 60.05 110.68 C 60.40 110.15 60.68 109.63 60.90 109.11 C 57.67 108.49 58.34 112.28 54.89 110.31 C 56.39 110.32 58.14 109.84 57.98 108.01 C 58.00 104.74 58.32 101.25 57.81 98.04 C 57.06 97.99 56.59 98.78 56.40 100.41 C 54.89 100.52 54.17 101.10 53.22 102.21 C 53.31 102.67 53.39 103.12 53.47 103.58 C 52.66 104.00 51.93 104.49 51.27 105.06 C 51.75 101.73 52.81 100.78 55.82 99.69 C 56.21 96.66 58.82 97.23 57.83 94.00 C 57.18 93.70 56.34 93.89 55.31 94.57 C 55.20 93.69 55.69 93.08 56.78 92.72 C 56.61 92.21 56.41 91.69 56.17 91.16 C 56.94 90.18 57.61 89.49 57.85 88.22 C 58.44 85.70 57.68 82.84 56.35 80.66 C 55.32 78.95 54.11 79.48 52.45 79.54 L 52.20 79.07 C 54.79 79.47 54.07 77.13 52.20 76.93 C 51.42 75.84 50.32 75.43 49.20 74.80 L 49.12 73.26 Z" fill="#9e8623"/>
<path d="M 52.20 76.93 C 54.07 77.13 54.79 79.47 52.20 79.07 L 52.20 76.93 Z" fill="#af0206"/>
<path d="M 59.49 77.33 C 60.30 77.13 61.13 77.05 62.00 77.08 C 74.63 77.13 87.27 76.99 99.90 77.15 C 99.85 81.09 99.96 85.03 99.81 88.96 C 96.44 87.68 92.60 85.61 89.05 85.24 C 84.98 87.49 80.57 88.23 76.48 90.35 C 74.61 90.77 72.91 91.57 71.04 92.02 L 71.02 93.03 L 71.97 93.44 C 81.15 93.30 90.72 93.81 99.81 93.18 C 99.95 100.16 99.83 106.95 99.93 113.90 C 99.03 113.98 98.21 113.87 97.47 113.57 C 97.47 108.04 97.50 102.50 97.47 96.97 L 97.04 95.97 C 95.68 95.30 94.32 95.30 92.97 95.98 L 92.55 96.98 C 92.51 102.51 92.57 108.04 92.55 113.58 C 91.02 114.22 87.98 114.22 86.45 113.58 C 86.43 108.04 86.48 102.51 86.45 96.98 L 86.02 95.98 C 84.68 95.30 83.32 95.30 81.97 95.97 C 80.99 101.36 81.78 107.95 81.53 113.57 C 80.00 114.22 77.88 114.16 76.31 113.70 C 75.74 108.27 76.40 102.46 76.22 96.98 C 76.12 94.88 72.20 95.37 70.99 95.99 C 70.45 101.77 71.31 107.95 70.74 113.76 C 68.77 114.16 65.14 114.17 63.17 113.78 C 62.12 111.53 63.20 108.35 62.20 106.00 C 62.36 99.01 62.31 91.99 62.24 85.00 C 62.07 81.56 60.79 80.05 59.49 77.33 Z" fill="#fe000c"/>
<path d="M 99.90 77.15 C 102.33 77.09 104.76 77.13 107.19 77.11 C 107.57 89.09 107.47 101.89 107.23 113.90 C 104.80 113.99 102.36 113.97 99.93 113.90 C 99.83 106.95 99.95 100.16 99.81 93.18 C 99.94 91.76 99.94 90.35 99.81 88.96 C 99.96 85.03 99.85 81.09 99.90 77.15 Z" fill="#ffffff"/>
<path d="M 107.19 77.11 C 109.82 77.05 112.45 76.99 115.09 77.17 C 115.24 89.41 115.19 101.66 115.11 113.90 C 112.48 114.11 109.87 113.99 107.23 113.90 C 107.47 101.89 107.57 89.09 107.19 77.11 Z" fill="#fe000c"/>
<path d="M 115.09 77.17 C 117.46 77.08 119.84 77.13 122.21 77.12 L 122.43 78.02 C 122.33 89.82 122.69 102.19 122.25 113.89 C 119.87 114.00 117.49 113.96 115.11 113.90 C 115.19 101.66 115.24 89.41 115.09 77.17 Z" fill="#ffffff"/>
<path d="M 122.21 77.12 C 124.85 77.06 127.47 76.98 130.10 77.16 C 130.27 89.40 130.23 101.67 130.12 113.90 C 127.49 114.11 124.88 113.98 122.25 113.89 C 122.69 102.19 122.33 89.82 122.43 78.02 L 122.21 77.12 Z" fill="#fe000c"/>
<path d="M 130.10 77.16 C 133.54 77.20 137.15 76.89 140.55 77.30 C 139.11 79.84 137.71 81.78 137.65 84.99 C 137.69 92.01 137.50 99.07 137.75 106.08 C 136.96 108.49 137.50 111.37 136.95 113.80 C 134.72 114.16 132.37 113.88 130.12 113.90 C 130.23 101.67 130.27 89.40 130.10 77.16 Z" fill="#ffffff"/>
<path d="M 145.99 76.95 L 147.83 76.97 L 147.83 79.01 C 146.29 79.47 145.68 78.79 145.99 76.95 Z" fill="#b1130f"/>
<path d="M 84.24 85.98 C 83.92 87.37 82.01 87.26 80.93 87.81 C 76.13 89.56 71.06 91.54 66.23 93.27 C 66.52 94.04 66.95 94.78 67.52 95.47 C 68.41 95.47 69.24 95.62 70.02 95.94 C 70.53 97.12 70.72 99.72 70.01 100.82 C 68.45 100.95 66.89 99.11 65.97 98.01 C 62.53 94.05 62.83 87.29 66.67 83.69 C 71.59 78.58 80.87 79.63 84.24 85.98 Z" fill="#cec07b"/>
<path d="M 37.09 82.55 C 37.85 82.80 38.46 83.45 38.92 84.49 C 40.97 84.53 41.89 83.90 43.31 85.74 C 44.52 87.50 47.49 85.88 48.42 87.95 C 48.13 89.16 47.72 90.84 46.62 91.57 C 44.66 91.51 42.00 91.28 42.10 94.02 C 43.39 95.57 45.38 94.10 46.98 94.04 C 48.11 94.39 48.09 96.77 47.62 97.64 C 46.31 98.11 44.86 96.83 43.42 97.42 C 42.55 99.08 42.80 101.01 44.97 101.21 C 47.62 99.30 51.01 98.60 53.47 96.53 C 53.57 94.70 52.96 92.63 54.15 91.04 C 54.78 89.51 56.70 89.18 57.85 88.22 C 57.61 89.49 56.94 90.18 56.17 91.16 C 56.41 91.69 56.61 92.21 56.78 92.72 C 55.69 93.08 55.20 93.69 55.31 94.57 C 56.34 93.89 57.18 93.70 57.83 94.00 C 58.82 97.23 56.21 96.66 55.82 99.69 C 52.81 100.78 51.75 101.73 51.27 105.06 C 51.24 106.27 50.48 106.88 49.01 106.86 L 49.09 107.82 C 50.93 108.81 53.00 109.41 54.89 110.31 C 58.34 112.28 57.67 108.49 60.90 109.11 C 60.68 109.63 60.40 110.15 60.05 110.68 C 62.37 110.70 62.83 111.85 62.00 113.89 C 57.69 114.47 53.55 113.63 49.34 114.80 C 48.36 113.99 47.28 113.79 46.11 114.20 C 46.16 115.39 48.02 115.30 47.87 116.85 C 46.79 119.73 43.35 120.54 42.17 123.81 C 42.86 123.90 43.53 123.68 44.19 123.14 C 46.62 122.17 49.44 122.10 52.02 122.22 C 54.13 122.25 55.88 123.82 55.85 125.99 C 55.90 130.31 52.40 134.58 49.43 137.42 C 47.74 138.60 49.47 139.69 50.34 140.63 C 53.24 141.36 56.25 140.67 57.20 144.24 C 57.67 144.74 58.24 145.27 58.90 145.81 C 56.86 145.42 54.09 145.64 52.09 146.22 C 47.03 146.97 41.89 146.83 36.90 147.04 L 36.40 147.93 C 36.46 152.64 36.41 157.35 36.43 162.06 L 36.91 163.10 C 39.08 164.23 42.75 165.04 44.91 163.83 C 45.70 159.79 44.81 155.15 45.32 151.05 C 45.84 148.48 50.11 149.28 52.00 149.15 C 55.04 149.02 58.33 152.11 61.19 151.05 L 61.77 151.61 C 59.60 152.12 57.01 151.87 55.08 150.69 C 52.84 149.43 50.46 149.53 47.98 149.78 C 46.07 150.39 45.03 152.07 46.18 153.93 C 50.60 157.30 56.48 158.96 61.94 159.50 C 63.38 159.80 64.48 160.66 65.95 159.82 C 66.15 158.73 66.25 157.62 66.28 156.49 L 67.00 156.61 C 66.45 157.89 66.38 159.11 66.81 160.28 C 74.30 162.13 84.46 162.69 92.35 163.31 L 94.00 163.02 C 94.26 160.66 89.11 160.10 87.51 159.60 C 81.44 159.49 75.72 159.49 70.12 156.74 C 63.65 153.88 59.30 147.07 59.45 140.00 C 59.46 133.99 59.44 127.98 59.46 121.96 L 59.95 121.15 L 62.21 121.10 C 62.49 127.37 62.23 133.71 62.34 140.00 C 62.47 145.16 65.16 150.65 69.89 153.06 C 72.24 154.75 74.95 155.43 77.76 155.95 C 80.10 156.38 82.62 156.65 84.99 156.41 C 87.65 156.47 90.30 157.08 92.81 157.90 C 94.92 158.68 96.83 160.08 98.17 161.89 C 98.64 162.88 99.27 163.38 100.07 163.42 C 101.31 162.69 102.14 161.26 103.01 160.13 L 104.33 159.13 C 106.18 158.29 108.05 157.49 110.03 157.01 C 111.03 157.00 111.70 156.76 112.05 156.27 C 113.85 156.70 116.10 156.56 117.92 156.23 L 119.10 156.20 C 121.11 156.15 123.29 156.00 125.15 155.20 C 125.99 155.05 126.68 154.75 127.20 154.31 C 129.07 153.92 130.57 152.84 132.13 151.80 C 133.13 151.08 133.77 150.20 134.40 149.15 C 137.21 145.61 137.89 141.39 137.68 136.98 C 137.95 131.92 137.22 126.04 138.01 121.17 C 138.86 120.84 139.75 120.88 140.68 121.30 C 140.81 128.16 140.85 135.09 140.63 141.95 C 139.50 146.64 137.91 150.95 134.01 154.05 C 128.10 158.95 120.44 159.70 113.05 159.52 C 110.14 160.12 105.79 160.66 104.39 163.72 C 105.58 163.77 106.77 163.84 107.96 163.95 L 107.44 164.39 C 102.65 164.38 97.86 164.40 93.07 164.38 C 89.16 163.24 84.59 163.68 80.54 163.33 C 77.73 162.12 74.81 162.99 72.00 161.91 C 68.51 161.61 65.24 160.93 61.83 160.23 C 56.83 159.38 50.81 158.33 46.67 155.18 L 46.02 155.32 C 45.50 160.25 45.68 165.98 45.69 171.02 C 46.44 173.11 49.28 173.93 51.14 174.84 C 57.54 176.62 63.74 178.47 70.46 178.67 C 72.98 179.90 75.58 179.14 78.13 179.84 C 82.24 181.13 86.94 179.85 91.00 181.12 C 96.98 181.40 103.02 181.51 108.99 181.11 C 112.51 179.76 117.11 181.41 120.53 179.66 C 123.76 179.42 127.46 179.81 130.50 178.61 C 134.94 178.51 139.62 176.88 143.99 176.36 C 147.11 175.52 150.09 174.53 152.90 172.89 C 154.39 171.93 154.69 170.55 154.31 168.88 L 154.08 167.17 C 154.68 165.71 154.69 157.34 154.11 155.87 L 153.04 155.56 C 147.60 159.02 141.14 159.61 135.00 160.88 C 132.55 162.03 129.95 161.05 127.49 162.37 C 124.73 162.62 122.07 162.26 119.48 163.36 C 116.67 163.51 113.84 163.47 111.03 163.67 L 110.78 163.14 C 117.75 162.40 125.98 162.03 133.29 160.32 C 133.73 159.23 133.73 158.02 133.28 156.71 L 133.22 156.42 C 135.78 155.62 133.59 158.83 134.93 159.98 C 140.99 159.42 147.42 157.96 152.91 154.89 C 154.20 154.13 155.05 152.32 153.91 151.06 C 152.95 149.25 149.72 149.61 148.01 149.78 C 144.77 150.91 142.03 152.23 138.47 151.82 L 138.72 150.96 C 140.79 152.11 142.92 150.61 144.95 150.07 C 147.32 148.89 150.38 149.02 152.95 149.32 C 154.30 149.54 154.93 151.40 155.43 152.49 C 155.68 156.13 154.83 160.70 155.87 164.07 C 157.75 164.60 162.45 165.06 163.56 163.03 C 163.76 158.00 163.56 152.94 163.66 147.91 L 163.12 147.02 C 155.99 148.60 148.24 144.90 141.05 145.81 C 141.77 145.30 142.35 144.75 142.79 144.14 C 143.78 140.75 146.86 141.31 149.68 140.65 C 150.78 139.79 151.30 138.92 151.24 138.03 C 148.06 135.09 144.08 130.57 144.17 125.99 C 144.09 124.38 145.09 123.19 146.46 122.49 C 149.79 121.56 152.69 122.52 155.84 122.81 C 155.92 121.74 154.32 120.90 153.77 120.04 C 153.22 118.72 152.35 117.48 152.03 116.10 C 153.03 115.52 153.65 114.89 153.89 114.20 C 152.38 113.67 151.45 114.31 150.12 114.85 C 146.33 113.33 142.16 114.73 138.11 113.87 C 137.56 113.05 137.52 112.08 137.99 110.97 C 138.69 110.68 139.55 110.88 140.56 111.56 L 140.96 110.02 C 142.79 110.55 143.04 111.40 145.08 110.30 C 146.99 109.41 149.07 108.82 150.91 107.81 L 150.99 106.87 C 149.61 106.93 148.87 106.30 148.76 104.98 C 148.22 102.16 147.29 100.47 144.31 99.84 C 143.90 99.14 143.59 98.37 143.40 97.54 C 141.91 96.77 141.80 95.52 142.17 93.99 C 142.85 93.68 143.68 93.88 144.68 94.59 C 144.81 93.70 144.32 93.08 143.21 92.72 C 143.58 91.96 143.77 89.94 144.81 90.08 C 147.09 92.39 145.90 94.67 146.52 97.46 C 149.23 98.24 152.15 100.50 154.94 101.03 L 156.62 100.63 C 157.16 99.64 157.25 98.75 156.88 97.93 C 155.78 96.38 153.84 98.23 152.36 97.64 C 151.93 96.76 151.89 94.39 153.02 94.04 C 154.62 94.10 156.60 95.57 157.89 94.02 C 158.11 91.69 155.84 91.40 154.04 91.57 C 152.47 91.94 151.88 88.98 151.58 87.96 C 152.52 85.88 155.47 87.50 156.69 85.75 C 158.14 83.90 159.01 84.53 161.08 84.49 C 162.71 80.87 164.08 83.77 167.01 83.41 C 169.16 83.57 170.52 83.98 170.48 86.49 C 171.69 87.34 176.07 89.53 172.35 90.42 C 174.46 93.68 176.91 96.99 174.80 100.97 C 175.64 103.66 175.36 106.04 174.56 108.68 C 174.14 108.11 174.22 106.16 173.30 106.33 C 172.34 111.53 168.28 117.50 170.55 122.52 C 171.80 125.86 175.56 128.19 179.03 128.47 C 180.82 128.27 181.81 126.75 181.53 125.00 C 181.49 119.45 176.32 113.82 176.71 108.00 C 176.78 106.55 177.08 104.33 178.46 103.51 C 181.86 100.80 187.44 104.30 187.75 108.18 C 190.32 112.09 190.59 116.18 191.41 120.60 C 193.66 121.95 193.92 124.17 195.40 126.12 C 192.93 128.93 196.02 128.57 196.03 131.16 C 194.76 132.17 193.41 130.37 191.91 130.30 C 187.92 129.31 186.04 124.48 188.30 121.02 C 188.63 116.41 187.21 111.33 184.41 107.59 C 183.36 106.25 182.04 105.65 180.40 106.40 C 178.77 108.17 180.21 110.21 180.64 112.17 C 181.95 115.01 182.98 117.95 184.20 120.82 C 184.07 123.39 185.52 125.32 185.04 128.01 C 185.32 131.36 181.79 132.60 179.14 133.25 C 178.76 134.57 180.36 135.55 180.14 137.01 C 180.89 140.60 182.13 145.71 185.95 147.16 C 186.29 148.75 186.43 150.43 186.49 152.05 C 185.22 154.55 183.25 155.02 183.02 158.06 C 181.20 158.91 178.28 159.09 178.66 156.20 C 177.57 156.06 177.35 158.04 176.15 157.83 C 175.89 155.49 177.30 153.75 179.73 153.68 C 180.84 150.89 179.34 148.68 176.91 147.40 C 174.38 146.21 172.00 144.76 169.41 143.70 C 167.24 142.45 168.06 140.24 166.01 139.03 L 165.73 138.06 L 165.53 136.44 C 162.65 135.69 160.13 135.16 157.63 133.43 L 157.34 133.46 C 157.51 135.32 157.20 137.11 157.29 138.94 C 158.92 139.06 159.39 137.71 159.57 136.33 C 160.35 137.37 160.20 139.34 159.65 140.65 C 157.77 141.20 154.74 139.55 153.59 141.59 C 153.02 142.72 150.97 144.94 152.33 146.00 C 152.63 145.86 153.60 143.87 153.78 145.04 L 154.64 146.16 C 158.48 146.26 162.24 147.71 164.65 143.89 C 164.38 150.33 164.87 157.13 164.39 163.49 C 161.94 166.28 158.00 164.51 155.35 165.36 C 154.63 168.33 156.35 170.48 154.03 173.02 C 152.15 174.15 150.16 175.25 148.03 175.81 C 138.17 179.04 128.21 179.64 118.06 181.13 C 102.93 182.46 87.93 182.11 72.92 180.05 C 64.25 178.66 54.36 177.65 46.54 173.35 C 43.90 171.96 45.83 167.26 44.77 165.06 C 41.96 164.38 37.08 166.05 35.57 162.53 C 35.51 156.37 35.60 150.22 35.51 144.06 C 35.56 142.26 38.53 142.45 39.15 141.04 C 39.03 139.48 39.50 137.49 38.86 136.09 C 37.77 135.56 35.99 136.55 34.80 136.73 C 34.18 139.74 32.57 143.15 29.63 144.61 C 26.31 146.78 22.52 147.57 20.18 151.04 C 20.24 151.86 20.34 152.69 20.47 153.51 C 22.83 153.81 27.31 155.37 26.60 158.48 C 23.49 158.22 19.67 159.34 16.41 158.64 C 16.11 156.01 15.12 154.50 13.25 152.72 C 11.45 150.05 14.15 149.93 13.24 147.17 C 16.95 144.97 19.16 141.31 19.44 136.99 C 19.23 135.32 20.63 134.88 20.65 133.39 C 19.25 133.05 17.27 133.96 16.46 132.51 C 15.20 131.46 14.36 129.65 14.55 128.00 C 14.43 121.87 17.94 116.60 19.72 110.95 C 20.28 109.28 20.94 107.92 19.60 106.40 C 18.03 105.66 16.59 106.28 15.59 107.59 C 12.84 111.35 11.38 116.40 11.72 121.02 C 13.95 124.51 12.09 129.29 8.09 130.30 C 6.59 130.37 5.24 132.17 3.97 131.16 C 3.99 128.57 7.06 128.93 4.61 126.12 C 6.09 124.16 6.32 121.93 8.61 120.62 C 9.40 117.00 9.42 113.46 11.24 110.08 C 11.91 108.64 12.81 107.67 12.78 105.99 C 14.00 104.33 16.04 103.13 17.96 102.49 C 20.29 102.40 22.61 103.51 23.06 105.97 C 24.46 111.40 20.45 117.03 18.89 121.98 C 18.47 124.37 17.56 127.97 20.97 128.45 C 26.63 127.91 30.39 123.68 30.27 117.98 C 29.16 114.06 27.77 110.27 26.71 106.34 C 25.73 106.07 26.01 108.33 25.38 108.64 C 24.75 105.96 24.33 103.69 25.21 100.97 C 23.07 96.99 25.55 93.68 27.65 90.42 L 26.23 89.81 C 25.93 88.43 28.58 87.15 29.52 86.49 C 29.32 82.04 34.60 84.18 37.09 82.55 Z" fill="#000000"/>
<path d="M 89.05 85.24 C 92.60 85.61 96.44 87.68 99.81 88.96 C 99.94 90.35 99.94 91.76 99.81 93.18 C 90.72 93.81 81.15 93.30 71.97 93.44 L 71.02 93.03 L 71.04 92.02 C 72.91 91.57 74.61 90.77 76.48 90.35 C 80.57 88.23 84.98 87.49 89.05 85.24 Z" fill="#9e8623"/>
<path d="M 37.33 88.38 C 38.65 86.97 41.15 87.54 39.67 89.63 C 38.47 90.32 36.21 90.33 37.33 88.38 Z" fill="#60531c"/>
<path d="M 160.11 87.97 C 161.12 87.06 163.05 88.58 162.65 89.71 C 161.61 89.91 159.62 89.39 160.11 87.97 Z" fill="#7c6b26"/>
<path d="M 76.94 95.94 C 77.85 95.51 78.88 95.37 80.02 95.51 L 80.79 96.00 C 82.11 99.34 80.50 101.50 77.11 101.74 C 76.25 100.54 76.50 97.33 76.94 95.94 Z" fill="#cec17c"/>
<path d="M 57.81 98.04 C 58.32 101.25 58.00 104.74 57.98 108.01 C 58.14 109.84 56.39 110.32 54.89 110.31 C 53.00 109.41 50.93 108.81 49.09 107.82 L 49.01 106.86 C 50.48 106.88 51.24 106.27 51.27 105.06 C 51.93 104.49 52.66 104.00 53.47 103.58 C 53.39 103.12 53.31 102.67 53.22 102.21 C 54.17 101.10 54.89 100.52 56.40 100.41 C 56.59 98.78 57.06 97.99 57.81 98.04 Z" fill="#ffffff"/>
<path d="M 142.12 98.12 C 142.95 97.81 143.44 98.56 143.59 100.39 C 145.07 100.80 147.47 101.41 146.50 103.41 C 147.02 104.06 148.09 104.43 148.76 104.98 C 148.87 106.30 149.61 106.93 150.99 106.87 L 150.91 107.81 C 149.07 108.82 146.99 109.41 145.08 110.30 C 143.07 110.42 142.41 109.94 141.99 108.02 C 141.87 104.80 141.61 101.28 142.12 98.12 Z" fill="#ffffff"/>
<path d="M 52.45 115.40 L 52.56 115.42 C 54.21 113.86 55.81 114.75 57.78 115.05 C 58.34 123.23 57.88 131.77 58.11 140.00 C 57.96 141.61 59.25 143.52 57.20 144.24 C 56.25 140.67 53.24 141.36 50.34 140.63 C 49.47 139.69 47.74 138.60 49.43 137.42 C 52.40 134.58 55.90 130.31 55.85 125.99 C 55.88 123.82 54.13 122.25 52.02 122.22 C 49.44 122.10 46.62 122.17 44.19 123.14 C 44.81 121.46 46.08 120.53 47.34 119.37 C 47.91 118.27 48.39 117.13 48.98 116.04 C 49.95 115.63 51.40 114.92 52.45 115.40 Z" fill="#ffffff"/>
<path d="M 142.16 115.16 C 143.35 114.67 144.64 114.45 146.06 114.50 C 147.86 116.30 148.84 114.49 151.01 116.03 C 152.01 117.39 152.03 119.61 153.77 120.04 C 154.32 120.90 155.92 121.74 155.84 122.81 C 152.69 122.52 149.79 121.56 146.46 122.49 C 145.09 123.19 144.09 124.38 144.17 125.99 C 144.08 130.57 148.06 135.09 151.24 138.03 C 151.30 138.92 150.78 139.79 149.68 140.65 C 146.86 141.31 143.78 140.75 142.79 144.14 C 140.64 144.04 142.03 141.31 141.83 140.00 C 142.08 131.98 141.50 123.02 142.16 115.16 Z" fill="#ffffff"/>
<path d="M 62.21 121.10 C 64.77 120.79 67.33 120.88 69.89 121.08 C 69.79 131.73 69.80 142.40 69.89 153.06 C 65.16 150.65 62.47 145.16 62.34 140.00 C 62.23 133.71 62.49 127.37 62.21 121.10 Z" fill="#ffffff"/>
<path d="M 69.89 121.08 C 72.52 120.83 75.13 120.97 77.77 121.07 C 77.47 132.58 77.48 144.44 77.76 155.95 C 74.95 155.43 72.24 154.75 69.89 153.06 C 69.80 142.40 69.79 131.73 69.89 121.08 Z" fill="#fe000c"/>
<path d="M 77.77 121.07 C 80.15 120.81 82.52 120.88 84.90 121.08 C 84.89 132.84 84.71 144.66 84.99 156.41 C 82.62 156.65 80.10 156.38 77.76 155.95 C 77.48 144.44 77.47 132.58 77.77 121.07 Z" fill="#ffffff"/>
<path d="M 84.90 121.08 C 87.53 120.84 90.14 120.96 92.78 121.07 C 92.57 133.16 92.49 145.83 92.81 157.90 C 90.30 157.08 87.65 156.47 84.99 156.41 C 84.71 144.66 84.89 132.84 84.90 121.08 Z" fill="#fe000b"/>
<path d="M 92.78 121.07 C 95.16 120.82 97.55 120.87 99.94 121.07 C 99.87 122.78 99.92 124.48 100.05 126.19 C 99.93 127.75 99.81 129.27 100.05 130.82 C 99.84 141.66 99.82 152.58 100.07 163.42 C 99.27 163.38 98.64 162.88 98.17 161.89 C 96.83 160.08 94.92 158.68 92.81 157.90 C 92.49 145.83 92.57 133.16 92.78 121.07 Z" fill="#ffffff"/>
<path d="M 99.94 121.07 C 112.13 120.94 124.87 120.72 137.00 121.17 L 137.45 121.99 C 137.23 124.80 137.98 128.35 137.01 130.93 C 133.65 131.06 129.66 128.22 126.00 128.22 C 123.51 127.28 120.89 127.60 118.50 126.59 C 112.42 126.04 106.05 126.83 100.05 126.19 C 99.92 124.48 99.87 122.78 99.94 121.07 Z" fill="#fe000c"/>
<path d="M 184.20 120.82 C 185.69 122.64 185.65 125.77 185.91 128.01 C 186.19 130.75 183.77 134.11 180.88 133.93 L 180.39 134.91 C 181.38 138.07 181.68 142.34 184.22 144.78 C 185.15 145.89 186.78 146.34 187.52 147.55 C 186.11 149.68 188.45 149.69 187.61 151.94 C 186.59 154.22 183.63 156.05 183.84 158.87 C 180.32 159.09 176.81 159.24 173.32 158.64 C 173.00 157.73 173.08 156.70 173.57 155.56 C 175.43 155.06 175.99 153.34 178.01 153.44 C 180.15 152.80 179.67 150.89 178.25 149.75 C 175.54 147.09 171.36 145.69 168.01 143.99 C 167.29 142.41 166.40 140.73 166.01 139.03 C 168.06 140.24 167.24 142.45 169.41 143.70 C 172.00 144.76 174.38 146.21 176.91 147.40 C 179.34 148.68 180.84 150.89 179.73 153.68 C 177.30 153.75 175.89 155.49 176.15 157.83 C 177.35 158.04 177.57 156.06 178.66 156.20 C 178.28 159.09 181.20 158.91 183.02 158.06 C 183.25 155.02 185.22 154.55 186.49 152.05 C 186.43 150.43 186.29 148.75 185.95 147.16 C 182.13 145.71 180.89 140.60 180.14 137.01 C 180.36 135.55 178.76 134.57 179.14 133.25 C 181.79 132.60 185.32 131.36 185.04 128.01 C 185.52 125.32 184.07 123.39 184.20 120.82 Z" fill="#8c8153"/>
<path d="M 105.13 130.05 C 107.11 129.46 109.75 129.25 109.98 131.99 C 110.19 140.30 110.07 148.68 110.03 157.01 C 108.05 157.49 106.18 158.29 104.33 159.13 C 104.21 151.42 104.32 143.71 104.27 136.00 C 104.31 133.86 104.05 131.98 105.13 130.05 Z" fill="#ff000b"/>
<path d="M 100.05 130.82 C 101.76 130.25 102.91 131.22 102.63 132.98 C 102.64 140.99 102.64 149.00 102.62 157.00 C 102.56 158.09 102.69 159.14 103.01 160.13 C 102.14 161.26 101.31 162.69 100.07 163.42 C 99.82 152.58 99.84 141.66 100.05 130.82 Z" fill="#ff0006"/>
<path d="M 112.22 131.10 C 114.21 130.19 117.49 130.19 117.62 133.17 C 117.99 140.83 117.40 148.58 117.92 156.23 C 116.10 156.56 113.85 156.70 112.05 156.27 C 111.68 148.87 111.99 141.41 111.88 134.00 C 111.81 132.98 111.93 132.02 112.22 131.10 Z" fill="#ff000b"/>
<path d="M 119.45 132.43 C 120.78 130.96 125.00 131.58 125.05 133.98 C 125.23 141.05 125.03 148.13 125.15 155.20 C 123.29 156.00 121.11 156.15 119.10 156.20 C 119.61 148.33 118.93 140.29 119.45 132.43 Z" fill="#ff000b"/>
<path d="M 42.69 133.31 C 42.86 135.22 42.58 137.04 43.07 138.98 C 41.46 138.65 41.28 137.05 40.67 135.80 C 40.22 134.31 41.51 133.69 42.69 133.31 Z" fill="#796024"/>
<path d="M 157.34 133.46 L 157.63 133.43 C 160.13 135.16 162.65 135.69 165.53 136.44 L 165.73 138.06 C 164.97 136.92 164.04 136.36 162.93 136.39 C 160.58 136.59 161.56 139.47 161.41 141.05 C 162.16 142.32 164.35 142.22 164.65 143.89 C 162.24 147.71 158.48 146.26 154.64 146.16 L 153.78 145.04 C 153.60 143.87 152.63 145.86 152.33 146.00 C 150.97 144.94 153.02 142.72 153.59 141.59 C 154.74 139.55 157.77 141.20 159.65 140.65 C 160.20 139.34 160.35 137.37 159.57 136.33 C 159.39 137.71 158.92 139.06 157.29 138.94 C 157.20 137.11 157.51 135.32 157.34 133.46 Z" fill="#9e8623"/>
<path d="M 127.17 133.99 C 128.94 132.68 132.98 134.39 132.49 137.00 C 132.29 141.88 132.90 146.99 132.13 151.80 C 130.57 152.84 129.07 153.92 127.20 154.31 C 126.75 147.65 126.78 140.64 127.17 133.99 Z" fill="#fe000c"/>
<path d="M 40.67 135.80 C 41.28 137.05 41.46 138.65 43.07 138.98 C 44.36 139.31 45.00 139.87 45.86 140.84 L 44.00 141.04 C 42.48 141.45 41.16 141.45 40.03 141.04 C 39.60 139.91 39.05 136.19 40.67 135.80 Z" fill="#ca190d"/>
<path d="M 134.40 136.36 C 135.85 135.25 136.46 136.25 137.68 136.98 C 137.89 141.39 137.21 145.61 134.40 149.15 C 134.30 144.90 134.34 140.61 134.40 136.36 Z" fill="#ff000b"/>
<path d="M 44.00 141.04 L 45.86 140.84 L 46.79 142.15 C 46.61 143.36 46.69 144.80 46.03 145.84 C 43.89 146.68 41.26 146.36 38.99 146.32 C 37.09 146.59 35.72 144.68 37.12 143.24 C 39.11 141.99 42.08 142.20 44.00 141.04 Z" fill="#9e8623"/>
<path d="M 147.16 143.12 C 148.19 142.94 148.38 143.52 147.74 144.85 C 146.64 145.02 146.45 144.45 147.16 143.12 Z" fill="#7b6616"/>
<path d="M 52.09 146.22 C 54.09 145.64 56.86 145.42 58.90 145.81 C 59.63 147.58 60.60 149.24 61.19 151.05 C 58.33 152.11 55.04 149.02 52.00 149.15 C 50.11 149.28 45.84 148.48 45.32 151.05 C 44.81 155.15 45.70 159.79 44.91 163.83 C 42.75 165.04 39.08 164.23 36.91 163.10 L 36.43 162.06 C 36.41 157.35 36.46 152.64 36.40 147.93 L 36.90 147.04 C 41.89 146.83 47.03 146.97 52.09 146.22 Z" fill="#fe000c"/>
<path d="M 141.05 145.81 C 148.24 144.90 155.99 148.60 163.12 147.02 L 163.66 147.91 C 163.56 152.94 163.76 158.00 163.56 163.03 C 162.45 165.06 157.75 164.60 155.87 164.07 C 154.83 160.70 155.68 156.13 155.43 152.49 C 154.93 151.40 154.30 149.54 152.95 149.32 C 150.38 149.02 147.32 148.89 144.95 150.07 C 142.92 150.61 140.79 152.11 138.72 150.96 C 139.40 149.20 140.24 147.52 141.05 145.81 Z" fill="#fe000c"/>
<path d="M 46.02 155.32 L 46.67 155.18 C 50.81 158.33 56.83 159.38 61.83 160.23 C 65.24 160.93 68.51 161.61 72.00 161.91 C 74.81 162.99 77.73 162.12 80.54 163.33 C 84.59 163.68 89.16 163.24 93.07 164.38 C 97.86 164.40 102.65 164.38 107.44 164.39 L 107.96 163.95 C 108.98 163.85 110.00 163.76 111.03 163.67 C 113.84 163.47 116.67 163.51 119.48 163.36 C 122.07 162.26 124.73 162.62 127.49 162.37 C 129.95 161.05 132.55 162.03 135.00 160.88 C 141.14 159.61 147.60 159.02 153.04 155.56 L 154.11 155.87 C 154.69 157.34 154.68 165.71 154.08 167.17 C 151.93 166.82 151.46 167.85 152.19 169.73 C 152.89 169.66 153.60 169.38 154.31 168.88 C 154.69 170.55 154.39 171.93 152.90 172.89 C 150.09 174.53 147.11 175.52 143.99 176.36 C 139.62 176.88 134.94 178.51 130.50 178.61 C 127.46 179.81 123.76 179.42 120.53 179.66 C 117.11 181.41 112.51 179.76 108.99 181.11 C 103.02 181.51 96.98 181.40 91.00 181.12 C 86.94 179.85 82.24 181.13 78.13 179.84 C 75.58 179.14 72.98 179.90 70.46 178.67 C 63.74 178.47 57.54 176.62 51.14 174.84 C 49.28 173.93 46.44 173.11 45.69 171.02 C 45.68 165.98 45.50 160.25 46.02 155.32 Z" fill="#fe000c"/>
<path d="M 174.11 156.20 L 174.96 156.17 L 175.34 156.99 L 174.89 157.79 C 173.90 158.09 173.64 157.56 174.11 156.20 Z" fill="#181202"/>
<path d="M 67.00 156.61 C 72.23 159.57 77.98 160.81 84.00 160.79 C 86.87 160.71 89.33 161.21 92.01 162.18 L 92.35 163.31 C 84.46 162.69 74.30 162.13 66.81 160.28 C 66.38 159.11 66.45 157.89 67.00 156.61 Z" fill="#f9faf6"/>
<path d="M 133.28 156.71 C 133.73 158.02 133.73 159.23 133.29 160.32 C 125.98 162.03 117.75 162.40 110.78 163.14 C 109.86 163.08 108.94 163.02 108.02 162.98 L 108.03 162.13 C 113.72 159.84 119.21 161.53 125.01 159.75 C 128.02 159.36 130.47 157.26 133.28 156.71 Z" fill="#fafaf7"/>
<path d="M 51.89 162.96 C 51.31 162.67 50.72 162.39 50.13 162.12 C 49.53 163.47 51.07 164.30 51.70 165.30 C 52.59 167.02 52.90 169.07 51.76 170.76 C 49.56 171.66 47.45 169.61 48.37 167.34 C 49.11 168.00 49.70 170.04 50.81 169.80 C 51.96 166.57 46.79 165.49 48.51 161.46 C 49.71 159.17 52.67 160.79 51.89 162.96 Z" fill="#ffa0a4"/>
<path d="M 149.87 162.91 C 149.33 162.75 148.80 162.55 148.28 162.32 C 146.22 163.64 146.75 167.93 147.19 170.00 C 149.10 171.76 148.58 167.77 150.55 168.46 C 150.78 170.57 148.29 172.83 146.23 171.78 C 143.42 169.28 144.38 164.10 146.84 161.75 C 148.10 160.64 150.81 160.42 149.87 162.91 Z" fill="#ff8f94"/>
<path d="M 54.21 162.19 C 54.93 161.93 55.72 162.00 56.57 162.43 C 57.01 164.11 56.31 166.20 56.51 168.00 C 56.54 168.87 56.38 172.28 57.91 171.79 C 59.12 169.45 58.24 165.78 58.19 163.19 C 59.38 162.76 60.00 163.03 60.04 164.01 C 59.66 166.56 59.77 169.09 59.61 171.64 C 58.62 174.13 55.41 173.27 54.84 171.01 C 54.22 168.10 54.92 165.12 54.21 162.19 Z" fill="#ff7980"/>
<path d="M 62.16 164.16 C 64.31 163.31 64.72 166.63 65.25 167.94 C 67.15 168.43 65.84 165.27 66.38 164.38 C 66.79 164.69 67.18 165.01 67.56 165.35 C 64.94 168.67 68.08 171.08 66.68 174.69 C 65.02 173.84 64.94 168.85 63.00 169.03 C 62.32 170.80 62.69 172.12 63.56 173.69 L 62.17 173.81 C 62.32 170.47 62.74 167.49 62.16 164.16 Z" fill="#ffe5e6"/>
<path d="M 135.40 164.43 C 136.79 164.16 141.12 162.74 139.79 165.74 C 139.25 165.54 138.71 165.34 138.16 165.15 C 137.79 166.07 137.82 166.92 138.24 167.70 C 138.71 167.62 139.18 167.54 139.65 167.47 C 139.65 168.14 139.63 168.82 139.60 169.50 C 136.84 169.89 138.44 171.99 137.95 173.85 C 136.40 174.40 135.71 174.12 135.88 173.00 C 136.03 170.06 136.19 167.30 135.40 164.43 Z" fill="#ffa9ad"/>
<path d="M 69.39 165.43 C 70.62 164.76 72.17 164.82 73.30 165.67 C 76.47 167.75 76.78 172.58 74.05 175.13 C 72.77 176.27 70.75 175.32 69.47 174.65 C 70.34 171.77 70.05 168.35 69.39 165.43 Z" fill="#ffa7ab"/>
<path d="M 77.45 166.32 C 78.70 165.88 80.28 166.27 81.57 166.44 C 82.11 167.12 82.16 167.87 81.74 168.69 C 81.23 168.44 80.71 168.24 80.17 168.09 C 79.62 169.30 80.11 170.05 81.64 170.36 C 81.80 171.05 81.82 171.78 81.68 172.55 C 81.20 172.45 80.71 172.35 80.23 172.25 C 79.90 173.08 79.89 173.99 80.17 174.96 C 80.97 174.68 81.77 174.50 82.57 174.42 C 82.66 175.24 82.38 176.01 81.75 176.73 C 80.47 176.75 79.18 176.19 77.94 175.93 C 77.72 172.89 78.53 169.25 77.45 166.32 Z" fill="#ff9da1"/>
<path d="M 126.20 166.07 C 127.12 165.91 127.63 166.23 127.74 167.04 C 128.01 169.84 129.42 172.88 129.58 175.52 C 128.83 175.62 128.07 175.68 127.30 175.69 C 127.14 174.80 126.97 173.90 126.81 173.00 L 125.88 172.97 C 125.52 173.80 125.50 174.74 125.80 175.81 C 124.45 176.30 123.87 176.03 124.06 174.99 C 124.86 171.97 125.56 169.14 126.20 166.07 Z" fill="#ffa8ab"/>
<path d="M 72.09 167.09 C 73.40 166.49 74.08 169.09 73.98 169.99 C 74.09 171.21 73.95 174.28 72.10 173.95 C 71.63 172.08 71.63 168.96 72.09 167.09 Z" fill="#fe0a0e"/>
<path d="M 84.27 167.21 C 85.51 166.77 87.40 166.78 88.56 167.44 C 89.75 169.10 89.11 170.48 88.30 172.08 C 88.31 173.70 89.50 175.25 89.79 176.85 C 87.56 178.42 86.71 173.25 86.48 171.97 C 87.12 170.45 88.61 169.08 86.26 168.29 C 86.15 170.96 86.64 173.48 86.03 176.21 L 84.99 176.54 C 83.84 174.07 85.07 170.09 84.27 167.21 Z" fill="#ffb3b6"/>
<path d="M 91.39 167.42 C 92.15 167.30 92.90 167.28 93.63 167.38 C 94.37 169.94 93.18 173.27 94.08 175.89 C 94.65 175.74 95.21 175.55 95.75 175.33 C 96.06 176.07 96.00 176.82 95.57 177.57 C 94.33 178.03 92.73 177.51 91.41 177.51 C 92.06 174.12 92.15 170.82 91.39 167.42 Z" fill="#ff959a"/>
<path d="M 104.42 167.46 C 105.12 167.45 105.82 167.45 106.52 167.48 C 107.44 168.20 107.74 171.10 108.92 170.94 C 109.80 169.84 107.46 166.72 109.94 167.19 C 110.49 168.69 109.40 170.38 109.76 172.00 C 109.97 173.76 110.36 175.97 109.62 177.64 C 107.54 176.82 107.72 172.65 106.12 172.27 C 105.19 174.07 106.51 176.16 105.86 177.78 L 104.41 177.56 C 105.56 173.71 105.45 171.33 104.42 167.46 Z" fill="#ff9498"/>
<path d="M 112.41 167.44 C 113.77 167.05 115.31 167.37 116.74 167.26 C 119.03 168.85 118.96 172.70 117.79 174.92 C 116.89 177.08 114.42 177.03 112.47 176.69 C 113.28 173.85 113.09 170.32 112.41 167.44 Z" fill="#ffffff"/>
<path d="M 154.08 167.17 L 154.31 168.88 C 153.60 169.38 152.89 169.66 152.19 169.73 C 151.46 167.85 151.93 166.82 154.08 167.17 Z" fill="#ff7b82"/>
<path d="M 100.79 168.10 C 101.23 171.22 102.53 174.86 102.83 177.80 C 102.09 178.04 101.30 177.97 100.46 177.60 C 100.62 175.51 100.12 174.65 98.95 175.00 C 98.96 175.94 98.90 176.86 98.76 177.76 C 96.76 178.13 96.95 176.94 97.79 175.65 C 98.89 174.14 97.24 173.13 99.64 172.53 C 99.26 171.17 97.93 167.06 100.79 168.10 Z" fill="#ffa1a5"/>
<path d="M 114.83 168.03 C 117.00 167.32 116.73 170.72 116.80 172.00 C 116.77 173.25 116.67 176.19 114.86 176.01 C 114.18 174.59 114.18 169.46 114.83 168.03 Z" fill="#fe0304"/>
<path d="M 141.22 171.22 C 143.09 170.00 143.99 172.84 141.99 173.23 C 140.90 173.01 140.64 172.34 141.22 171.22 Z" fill="#ff999e"/>
<path d="M 132.01 172.95 C 133.45 172.65 133.98 173.20 133.61 174.61 C 132.60 175.40 131.93 175.19 131.59 173.98 L 132.01 172.95 Z" fill="#ff8489"/>
</svg>
