<?xml version="1.0" encoding="UTF-8" standalone="no"?>
<!DOCTYPE svg PUBLIC "-//W3C//DTD SVG 1.1//EN" "http://www.w3.org/Graphics/SVG/1.1/DTD/svg11.dtd">
<svg xmlns="http://www.w3.org/2000/svg" version="1.1" viewBox="0 0 200 200" width="200.0pt" height="200.0pt">
<path d="M 0.00 0.00 L 200.00 0.00 L 200.00 200.00 L 0.00 200.00 L 0.00 0.00 Z" fill="#ffffff"/>
<path d="M 100.00 0.01 C 101.69 3.37 103.13 6.89 105.04 10.12 C 105.32 10.69 105.84 11.03 106.60 11.17 C 110.21 11.98 113.94 12.29 117.60 12.82 C 114.63 15.67 111.68 18.54 108.75 21.42 C 109.47 25.45 110.16 29.48 110.85 33.51 C 107.22 31.60 103.60 29.70 99.98 27.78 C 96.37 29.70 92.74 31.61 89.12 33.51 C 89.79 29.50 90.48 25.49 91.24 21.49 C 88.33 18.57 85.36 15.69 82.39 12.83 C 86.40 12.26 90.40 11.65 94.42 11.16 C 95.87 8.36 97.28 5.55 98.66 2.72 C 99.11 1.82 99.55 0.91 100.00 0.01 Z" fill="#066095"/>
<path d="M 99.99 3.60 C 101.43 6.58 102.88 9.56 104.34 12.53 C 107.61 13.01 110.88 13.48 114.15 13.92 C 111.79 16.24 109.42 18.56 107.06 20.87 C 107.61 24.12 108.18 27.36 108.75 30.61 C 105.83 29.07 102.91 27.52 99.98 25.98 C 97.06 27.52 94.14 29.07 91.22 30.61 C 91.78 27.37 92.35 24.13 92.91 20.88 C 90.55 18.56 88.19 16.25 85.84 13.92 C 89.10 13.48 92.36 13.01 95.62 12.53 C 96.59 10.56 97.56 8.59 98.52 6.61 C 99.01 5.61 99.50 4.61 99.99 3.60 Z" fill="#f39200"/>
<path d="M 60.86 26.21 C 62.08 28.76 63.31 31.30 64.54 33.84 C 67.34 34.26 70.15 34.65 72.96 35.03 C 70.97 37.03 68.95 39.01 66.93 40.98 C 67.39 43.79 67.86 46.59 68.35 49.39 C 65.85 48.06 63.34 46.74 60.85 45.40 C 58.33 46.73 55.82 48.06 53.30 49.39 C 53.78 46.59 54.26 43.79 54.74 40.99 C 52.71 39.02 50.69 37.03 48.69 35.02 C 51.48 34.65 54.27 34.27 57.05 33.87 C 58.32 31.32 59.58 28.76 60.86 26.21 Z" fill="#066095"/>
<path d="M 139.11 26.20 C 140.39 28.76 141.66 31.32 142.93 33.89 C 145.71 34.28 148.50 34.65 151.28 35.01 C 149.28 37.02 147.26 39.01 145.22 40.99 C 145.70 43.79 146.19 46.59 146.67 49.39 C 144.15 48.06 141.64 46.73 139.12 45.40 C 136.62 46.73 134.12 48.06 131.62 49.39 C 132.11 46.59 132.58 43.79 133.04 40.99 C 131.02 39.01 129.00 37.03 127.01 35.02 C 129.82 34.65 132.62 34.26 135.42 33.84 C 136.23 32.18 137.04 30.52 137.84 28.85 C 138.26 27.97 138.69 27.08 139.11 26.20 Z" fill="#066095"/>
<path d="M 60.84 29.30 C 61.79 31.25 62.74 33.20 63.70 35.15 C 65.81 35.42 67.93 35.70 70.05 35.97 C 68.51 37.51 66.97 39.03 65.42 40.56 C 65.79 42.67 66.16 44.79 66.53 46.90 C 64.63 45.89 62.74 44.89 60.84 43.88 C 58.93 44.88 57.02 45.88 55.10 46.88 C 55.48 44.79 55.85 42.71 56.24 40.62 C 54.70 39.07 53.16 37.52 51.63 35.97 C 53.74 35.69 55.84 35.41 57.95 35.13 C 58.91 33.18 59.87 31.24 60.84 29.30 Z" fill="#f39200"/>
<path d="M 139.12 29.30 C 140.10 31.24 141.07 33.19 142.04 35.13 C 144.14 35.42 146.25 35.70 148.35 35.97 C 146.81 37.51 145.27 39.05 143.73 40.59 C 144.11 42.69 144.49 44.79 144.86 46.88 C 142.95 45.89 141.04 44.88 139.13 43.88 C 137.23 44.89 135.33 45.90 133.43 46.91 C 133.80 44.79 134.18 42.68 134.55 40.57 C 133.01 39.04 131.47 37.51 129.93 35.97 C 132.05 35.70 134.16 35.42 136.27 35.14 C 136.57 34.53 136.87 33.93 137.17 33.32 L 137.50 32.64 C 138.04 31.53 138.58 30.41 139.12 29.30 Z" fill="#f39200"/>
<path d="M 102.75 42.25 C 112.80 45.57 122.49 50.12 131.74 55.25 C 150.68 65.67 167.78 80.65 179.55 98.86 C 180.04 107.08 178.53 114.94 177.54 123.04 C 175.17 139.91 170.46 156.34 162.38 171.38 C 159.10 177.52 155.50 183.70 151.01 189.04 C 148.62 192.01 144.47 192.78 140.99 193.85 C 123.64 198.56 104.92 201.08 86.99 199.10 C 75.77 197.91 64.50 195.79 53.78 192.22 C 50.54 191.24 48.65 188.88 46.73 186.27 C 33.97 168.42 26.17 147.69 22.87 126.05 C 21.69 116.87 19.93 108.14 20.43 98.84 C 29.03 85.42 40.67 73.89 53.51 64.52 C 65.83 55.80 79.41 48.82 93.52 43.50 C 96.69 42.48 99.40 40.92 102.75 42.25 Z" fill="#066095"/>
<path d="M 96.48 47.62 C 99.07 46.70 100.80 46.66 103.39 47.59 C 114.42 51.59 125.05 56.82 135.09 62.90 C 149.10 71.37 161.51 82.54 171.41 95.58 C 173.41 98.17 174.62 100.62 174.35 103.99 C 173.92 115.63 172.23 127.26 169.54 138.58 C 165.87 154.13 159.21 168.98 150.18 182.15 C 148.31 184.85 146.44 187.23 143.11 188.12 C 129.30 192.35 114.45 194.79 100.00 194.88 C 85.55 194.79 70.69 192.36 56.88 188.13 C 53.85 187.30 51.96 185.25 50.23 182.76 C 43.24 172.78 37.71 161.73 33.76 150.22 C 29.23 136.66 26.82 122.24 25.78 108.00 C 25.65 105.42 25.39 102.63 25.97 100.09 C 26.76 97.83 28.40 95.77 29.84 93.88 C 39.43 81.78 51.10 71.31 64.28 63.26 C 74.46 57.04 85.27 51.71 96.48 47.62 Z" fill="#38b1e6"/>
<path d="M 90.49 58.76 C 111.71 55.66 133.47 63.26 148.05 78.97 C 159.41 91.03 166.03 107.39 165.87 124.00 C 166.02 139.67 160.15 155.11 149.94 166.96 C 139.52 179.11 124.66 187.26 108.77 189.35 C 99.43 190.48 89.95 189.90 80.93 187.12 C 66.45 182.76 53.69 173.26 45.28 160.72 C 38.00 149.94 33.98 137.03 34.10 124.00 C 33.94 106.91 40.95 90.08 52.92 77.93 C 62.91 67.65 76.30 60.81 90.49 58.76 Z" fill="#ffffff"/>
<path d="M 91.14 62.16 C 93.24 61.27 96.07 61.60 96.74 64.12 C 97.55 67.09 98.01 70.56 97.57 73.60 C 96.28 75.91 93.16 76.22 91.01 75.00 C 89.31 72.54 89.33 68.80 89.13 65.92 C 89.04 64.17 89.43 62.89 91.14 62.16 Z" fill="#066095"/>
<path d="M 102.67 61.47 C 103.87 61.60 105.07 61.73 106.27 61.86 C 106.36 64.70 106.48 67.53 106.62 70.37 C 107.05 67.62 107.52 64.87 107.99 62.13 C 109.25 62.23 110.51 62.33 111.76 62.43 C 110.68 66.82 109.62 71.20 108.54 75.59 C 106.80 75.41 105.06 75.23 103.31 75.05 C 103.09 70.52 102.83 66.00 102.67 61.47 Z" fill="#066095"/>
<path d="M 93.10 63.62 C 93.98 67.13 94.35 70.50 94.22 74.12 C 93.19 71.01 91.82 66.79 93.10 63.62 Z" fill="#ffffff"/>
<path d="M 118.39 64.34 C 120.00 64.64 121.57 65.19 123.13 65.67 C 122.31 70.15 121.49 74.63 120.62 79.10 C 119.57 78.74 118.53 78.38 117.48 78.02 C 117.49 76.90 117.49 75.77 117.48 74.65 C 116.80 75.57 116.12 76.49 115.44 77.42 C 114.39 77.01 113.35 76.60 112.30 76.19 C 114.37 72.28 116.03 68.08 118.39 64.34 Z" fill="#066095"/>
<path d="M 81.09 64.42 C 82.11 67.42 82.87 70.70 84.41 73.47 C 85.52 74.45 86.71 75.43 87.90 76.32 C 85.95 77.03 84.00 77.75 82.05 78.45 C 80.68 74.25 79.12 70.09 77.87 65.86 C 78.93 65.37 80.01 64.89 81.09 64.42 Z" fill="#066095"/>
<path d="M 70.90 69.23 C 72.06 69.69 73.06 70.61 74.07 71.34 C 73.31 71.97 72.55 72.60 71.79 73.23 C 70.64 72.79 69.49 72.37 68.33 71.96 C 70.45 74.20 73.06 74.08 75.75 75.13 C 76.84 76.13 77.57 77.48 77.85 78.93 C 77.45 81.33 74.70 83.00 72.37 82.66 C 71.20 81.88 70.16 80.85 69.10 79.93 C 70.04 79.33 70.97 78.74 71.91 78.15 C 72.98 78.95 74.07 79.73 75.17 80.49 C 73.58 76.65 70.76 77.93 67.64 76.32 C 66.52 75.08 65.46 73.14 66.53 71.54 C 67.53 70.17 69.20 69.27 70.90 69.23 Z" fill="#066095"/>
<path d="M 119.25 68.76 C 119.51 70.27 119.78 71.97 118.68 73.22 C 117.99 73.73 117.56 73.58 117.39 72.79 C 117.41 71.30 118.44 69.96 119.25 68.76 Z" fill="#ffffff"/>
<path d="M 130.95 68.60 C 133.83 71.32 132.20 73.29 131.61 76.55 C 132.62 74.89 133.65 73.24 134.69 71.60 C 135.50 72.14 136.31 72.69 137.13 73.23 C 134.78 77.04 132.40 80.84 130.03 84.64 C 129.17 84.08 128.30 83.53 127.44 82.98 C 127.94 81.08 128.43 79.19 128.91 77.29 C 127.90 78.87 126.90 80.45 125.90 82.04 C 125.06 81.51 124.22 80.98 123.38 80.44 C 125.90 76.49 128.30 72.47 130.95 68.60 Z" fill="#066095"/>
<path d="M 124.83 85.18 C 139.73 94.62 148.16 112.47 145.71 129.99 C 144.56 139.80 139.98 148.40 133.60 155.82 C 132.32 151.42 131.02 147.52 126.68 145.27 C 122.50 142.90 118.42 143.70 114.15 145.29 C 111.35 142.15 108.42 139.66 104.29 138.47 C 104.27 136.47 104.25 134.47 104.24 132.47 C 111.75 132.56 118.98 133.24 126.39 134.46 C 126.39 130.11 126.39 125.76 126.39 121.40 C 119.04 122.89 111.69 123.43 104.20 123.46 C 104.21 119.94 104.22 116.43 104.24 112.92 C 108.66 113.41 113.02 114.05 117.38 114.85 C 117.39 110.48 117.39 106.11 117.38 101.74 C 113.08 102.53 108.79 103.14 104.44 103.59 C 105.00 99.13 105.73 94.71 106.55 90.30 C 102.20 90.31 97.84 90.21 93.49 90.35 C 94.15 94.77 95.00 99.15 95.53 103.59 C 91.19 103.16 86.91 102.53 82.62 101.76 C 82.61 106.12 82.60 110.49 82.62 114.85 C 86.97 114.06 91.31 113.41 95.71 112.92 C 95.74 116.43 95.74 119.95 95.75 123.46 C 88.26 123.44 80.90 122.90 73.55 121.39 C 73.55 125.75 73.55 130.12 73.55 134.48 C 80.98 133.24 88.22 132.57 95.76 132.48 C 95.75 134.47 95.73 136.46 95.71 138.45 C 91.57 139.67 88.62 142.14 85.81 145.29 C 81.55 143.70 77.48 142.90 73.31 145.26 C 68.97 147.51 67.64 151.41 66.37 155.82 C 59.76 148.17 55.14 139.19 54.14 129.03 C 52.05 111.55 60.81 93.94 75.78 84.78 C 90.58 75.47 110.18 75.63 124.83 85.18 Z" fill="#e41b13"/>
<path d="M 93.49 90.35 C 97.84 90.21 102.20 90.31 106.55 90.30 C 105.73 94.71 105.00 99.13 104.44 103.59 C 108.79 103.14 113.08 102.53 117.38 101.74 C 117.39 106.11 117.39 110.48 117.38 114.85 C 113.02 114.05 108.66 113.41 104.24 112.92 C 104.22 116.43 104.21 119.94 104.20 123.46 C 111.69 123.43 119.04 122.89 126.39 121.40 C 126.39 125.76 126.39 130.11 126.39 134.46 C 118.98 133.24 111.75 132.56 104.24 132.47 C 104.25 134.47 104.27 136.47 104.29 138.47 C 103.81 138.29 103.33 138.12 102.85 137.95 C 102.84 135.69 102.83 133.44 102.83 131.18 C 110.31 131.06 117.71 131.74 125.10 132.84 C 125.10 129.59 125.10 126.34 125.10 123.08 C 117.65 124.37 110.40 124.88 102.83 124.77 C 102.83 120.34 102.83 115.90 102.84 111.47 C 107.28 111.86 111.69 112.45 116.10 113.13 C 116.00 109.89 115.92 106.65 115.90 103.40 C 111.62 104.17 107.37 104.69 103.03 104.96 C 103.40 100.50 104.07 96.09 104.89 91.70 C 101.63 91.70 98.36 91.70 95.09 91.70 C 95.89 96.10 96.58 100.51 96.94 104.97 C 92.56 104.70 88.23 104.15 83.90 103.41 C 83.90 106.65 83.90 109.89 83.90 113.14 C 88.31 112.45 92.72 111.86 97.17 111.48 C 97.17 115.90 97.17 120.33 97.12 124.76 C 89.56 124.89 82.36 124.37 74.91 123.10 C 74.90 126.35 74.89 129.61 74.85 132.86 C 82.25 131.75 89.64 131.07 97.12 131.19 C 97.12 133.44 97.12 135.69 97.11 137.94 C 96.64 138.11 96.17 138.28 95.71 138.45 C 95.73 136.46 95.75 134.47 95.76 132.48 C 88.22 132.57 80.98 133.24 73.55 134.48 C 73.55 130.12 73.55 125.75 73.55 121.39 C 80.90 122.90 88.26 123.44 95.75 123.46 C 95.74 119.95 95.74 116.43 95.71 112.92 C 91.31 113.41 86.97 114.06 82.62 114.85 C 82.60 110.49 82.61 106.12 82.62 101.76 C 86.91 102.53 91.19 103.16 95.53 103.59 C 95.00 99.15 94.15 94.77 93.49 90.35 Z" fill="#066095"/>
<path d="M 106.68 142.27 C 109.67 143.90 111.42 146.41 113.41 149.06 C 117.01 146.75 120.55 145.32 124.74 147.22 C 128.84 148.98 129.91 152.45 130.95 156.43 C 122.49 164.22 111.57 168.90 100.00 168.80 C 88.42 168.91 77.48 164.23 69.02 156.43 C 70.06 152.45 71.14 148.96 75.24 147.20 C 79.43 145.33 82.96 146.76 86.56 149.06 C 88.39 146.63 90.01 144.29 92.65 142.64 C 96.84 140.00 102.36 139.84 106.68 142.27 Z" fill="#066095"/>
<path d="M 141.40 150.47 C 145.44 152.50 149.48 154.53 153.52 156.54 C 152.94 157.43 152.36 158.31 151.77 159.20 C 150.64 158.96 149.51 158.73 148.38 158.51 C 149.13 159.31 149.88 160.11 150.63 160.90 C 149.92 161.82 149.21 162.74 148.50 163.66 C 145.19 160.64 141.86 157.64 138.55 154.62 C 138.95 154.04 139.35 153.46 139.75 152.88 C 140.30 152.07 140.85 151.27 141.40 150.47 Z" fill="#066095"/>
<path d="M 60.20 153.19 C 61.43 154.80 62.88 156.40 63.77 158.23 C 64.59 160.50 61.66 161.77 60.31 163.07 C 58.69 164.80 57.00 166.34 55.12 167.78 C 53.31 165.90 51.57 163.97 49.83 162.03 C 52.56 159.72 55.30 157.42 58.01 155.08 C 58.74 154.45 59.47 153.82 60.20 153.19 Z" fill="#066095"/>
<path d="M 144.22 155.28 C 145.23 154.99 148.02 156.35 147.27 157.62 C 146.19 158.26 143.90 156.45 144.22 155.28 Z" fill="#ffffff"/>
<path d="M 61.06 157.67 C 60.96 158.79 59.91 160.64 58.59 159.84 C 57.98 158.42 59.93 157.62 61.06 157.67 Z" fill="#ffffff"/>
<path d="M 136.42 157.32 C 139.08 160.97 141.72 164.64 144.37 168.30 C 143.10 169.51 141.82 170.71 140.54 171.91 C 136.98 169.09 133.41 166.29 129.91 163.40 C 130.82 162.59 131.72 161.78 132.63 160.97 C 134.73 162.83 136.83 164.68 138.95 166.51 C 137.25 164.29 135.52 162.08 133.78 159.87 C 134.66 159.02 135.54 158.17 136.42 157.32 Z" fill="#066095"/>
<path d="M 57.40 160.67 C 57.19 162.09 55.86 164.42 54.16 163.67 C 53.39 162.06 56.15 160.84 57.40 160.67 Z" fill="#ffffff"/>
<path d="M 67.74 161.45 C 69.47 162.91 71.21 164.23 72.66 165.96 C 72.73 168.30 70.99 169.47 69.64 171.11 C 68.39 173.07 67.12 175.02 65.84 176.96 C 64.95 176.34 64.07 175.71 63.18 175.09 C 64.51 173.17 65.81 171.25 66.93 169.20 C 65.21 170.77 63.68 172.51 62.17 174.27 C 61.29 173.61 60.41 172.94 59.53 172.28 C 62.28 168.68 65.00 165.05 67.74 161.45 Z" fill="#066095"/>
<path d="M 69.55 165.85 C 70.05 167.27 68.57 168.22 67.31 168.26 C 67.33 167.26 68.26 164.88 69.55 165.85 Z" fill="#ffffff"/>
<path d="M 126.99 165.40 C 129.87 168.89 132.75 172.37 135.63 175.85 C 134.72 176.44 133.81 177.03 132.90 177.61 C 132.01 176.90 131.12 176.20 130.22 175.50 C 130.52 176.54 130.81 177.59 131.12 178.63 C 130.13 179.22 129.15 179.80 128.17 180.39 C 126.37 176.26 124.54 172.13 122.70 168.02 C 124.13 167.15 125.56 166.27 126.99 165.40 Z" fill="#066095"/>
<path d="M 77.54 168.25 C 79.03 168.97 80.53 169.69 82.02 170.42 C 80.73 174.89 79.48 179.39 78.07 183.83 C 75.87 182.12 75.44 181.65 75.11 178.69 C 74.58 179.56 74.04 180.42 73.48 181.26 C 72.45 180.75 71.41 180.24 70.37 179.73 C 72.74 175.89 75.13 172.06 77.54 168.25 Z" fill="#066095"/>
<path d="M 127.15 170.20 C 128.92 171.07 130.45 172.81 129.13 174.77 C 127.87 173.52 127.09 172.00 127.15 170.20 Z" fill="#ffffff"/>
<path d="M 116.90 170.63 C 118.04 173.90 119.19 177.17 120.30 180.45 C 121.09 180.38 121.87 180.31 122.65 180.24 C 122.83 181.03 123.01 181.82 123.19 182.61 C 121.47 183.21 119.75 183.81 118.03 184.41 C 116.56 180.20 115.07 175.99 113.56 171.79 C 114.67 171.41 115.79 171.02 116.90 170.63 Z" fill="#066095"/>
<path d="M 84.87 171.65 C 87.61 172.05 90.25 172.76 92.92 173.45 C 88.57 176.69 88.64 181.09 87.41 185.90 L 84.03 185.07 C 84.74 182.06 85.66 178.93 85.93 175.86 C 85.54 174.47 85.22 173.06 84.87 171.65 Z" fill="#066095"/>
<path d="M 107.96 172.93 C 109.84 173.18 110.27 175.14 111.21 176.50 C 110.15 176.74 109.10 176.98 108.04 177.21 C 107.41 176.34 106.77 175.47 106.11 174.61 C 106.32 178.16 109.24 178.21 111.29 180.52 C 111.87 181.85 111.95 183.44 111.79 184.86 C 110.62 186.84 107.59 187.32 105.64 186.36 C 104.58 185.43 104.16 183.73 103.52 182.50 C 104.62 182.26 105.73 182.03 106.83 181.80 C 107.31 182.96 107.79 184.12 108.27 185.28 C 108.41 184.39 108.41 183.49 108.39 182.60 C 106.16 180.32 102.70 179.85 103.08 176.03 C 102.95 173.53 105.97 172.67 107.96 172.93 Z" fill="#066095"/>
<path d="M 77.77 174.10 C 77.98 175.57 77.42 177.11 75.86 177.50 C 75.58 176.04 76.40 174.64 77.77 174.10 Z" fill="#ffffff"/>
<path d="M 95.69 173.54 C 96.87 173.61 98.04 173.68 99.22 173.75 C 98.90 178.22 98.69 182.69 98.49 187.16 C 97.37 187.11 96.25 187.07 95.13 187.02 C 95.24 182.52 95.47 178.03 95.69 173.54 Z" fill="#066095"/>
</svg>