<?xml version="1.0" encoding="UTF-8" standalone="no"?>
<!DOCTYPE svg PUBLIC "-//W3C//DTD SVG 1.1//EN" "http://www.w3.org/Graphics/SVG/1.1/DTD/svg11.dtd">
<svg xmlns="http://www.w3.org/2000/svg" version="1.1" viewBox="0 0 200 200" width="200.0pt" height="200.0pt">
<path d="M 0.00 0.00 L 95.67 0.00 C 80.23 0.86 65.09 4.99 51.58 12.57 C 33.99 22.35 19.47 37.49 10.50 55.51 C 4.22 67.96 0.85 81.60 0.00 95.48 L 0.00 0.00 Z" fill="#ffffff"/>
<path d="M 95.67 0.00 L 105.73 0.00 C 121.93 1.29 137.69 5.89 151.59 14.42 C 168.84 24.84 182.80 40.52 191.11 58.88 C 196.42 70.47 199.26 82.98 200.00 95.69 L 200.00 104.51 C 199.08 120.14 194.84 135.44 187.07 149.06 C 177.17 166.59 161.91 180.98 143.82 189.84 C 131.85 195.78 118.87 198.92 105.59 200.00 L 95.47 200.00 C 79.85 199.08 64.55 194.85 50.94 187.07 C 33.41 177.16 19.01 161.91 10.17 143.82 C 4.06 131.49 0.79 118.01 0.00 104.30 L 0.00 95.48 C 0.85 81.60 4.22 67.96 10.50 55.51 C 19.47 37.49 33.99 22.35 51.58 12.57 C 65.09 4.99 80.23 0.86 95.67 0.00 Z" fill="#b79958"/>
<path d="M 105.73 0.00 L 200.00 0.00 L 200.00 95.69 C 199.26 82.98 196.42 70.47 191.11 58.88 C 182.80 40.52 168.84 24.84 151.59 14.42 C 137.69 5.89 121.93 1.29 105.73 0.00 Z" fill="#ffffff"/>
<path d="M 114.19 5.48 C 114.18 16.95 114.22 28.42 114.17 39.89 C 103.31 39.93 92.45 39.92 81.59 39.89 C 81.55 28.67 81.52 17.44 81.60 6.22 C 92.58 4.16 103.13 3.91 114.19 5.48 Z" fill="#ee352a"/>
<path d="M 118.65 6.28 C 130.17 8.64 141.52 13.06 151.33 19.58 C 151.19 26.35 151.30 33.12 151.26 39.89 C 140.39 39.91 129.52 39.91 118.65 39.90 C 118.63 28.69 118.63 17.49 118.65 6.28 Z" fill="#ffffff"/>
<path d="M 77.10 7.23 C 77.12 18.11 77.12 29.00 77.10 39.89 C 66.24 39.91 55.37 39.90 44.50 39.90 C 44.48 34.03 44.48 28.15 44.50 22.28 C 54.38 15.30 65.37 10.17 77.10 7.23 Z" fill="#ffffff"/>
<path d="M 155.76 22.49 C 158.70 24.62 161.49 26.88 164.19 29.30 C 161.45 32.19 158.62 35.00 155.74 37.75 C 155.70 32.66 155.69 27.58 155.76 22.49 Z" fill="#ee352a"/>
<path d="M 40.00 25.74 C 40.07 30.46 40.07 35.17 40.01 39.89 C 35.28 39.93 30.54 39.94 25.81 39.87 C 30.08 34.69 34.78 29.96 40.00 25.74 Z" fill="#ee352a"/>
<path d="M 167.45 32.42 C 178.75 43.76 187.22 57.85 191.71 73.23 C 197.48 92.87 196.70 114.32 189.47 133.47 C 179.83 159.31 158.68 180.33 132.75 189.74 C 112.30 197.28 89.30 197.46 68.73 190.26 C 55.07 185.53 42.65 177.64 32.42 167.45 C 60.90 138.96 89.37 110.45 117.89 82.00 C 123.09 82.00 128.30 81.99 133.50 82.01 C 133.53 91.89 133.49 101.77 133.52 111.66 C 127.52 109.64 121.31 108.81 115.06 110.10 C 102.16 112.55 91.63 123.13 89.26 136.05 C 86.96 147.68 91.37 159.94 100.52 167.45 C 109.18 174.72 121.57 176.99 132.21 173.12 C 134.91 172.17 137.00 170.71 139.95 170.80 C 146.90 170.79 153.85 170.84 160.80 170.81 C 160.81 164.88 160.81 158.95 160.81 153.03 C 158.23 153.02 155.65 153.01 153.08 153.00 C 153.05 123.17 153.09 93.33 153.06 63.50 C 147.51 63.47 141.97 63.51 136.42 63.47 C 146.04 53.77 155.74 44.14 165.39 34.46 C 166.08 33.78 166.76 33.10 167.45 32.42 Z" fill="#00509f"/>
<path d="M 22.47 44.51 C 28.29 44.11 34.19 44.48 40.02 44.37 C 40.06 55.24 40.04 66.10 40.03 76.97 C 29.11 76.99 18.18 76.98 7.26 76.97 C 10.26 65.48 15.23 53.97 22.47 44.51 Z" fill="#ffffff"/>
<path d="M 44.60 44.47 C 55.40 44.19 66.26 44.42 77.08 44.37 C 77.17 55.24 77.13 66.11 77.10 76.97 C 66.23 77.00 55.36 77.03 44.50 76.96 C 44.56 66.14 44.32 55.28 44.60 44.47 Z" fill="#ee352a"/>
<path d="M 114.18 44.37 C 114.21 55.24 114.19 66.10 114.19 76.97 C 103.32 76.99 92.45 76.98 81.58 76.97 C 81.56 66.11 81.58 55.26 81.56 44.40 C 92.43 44.33 103.31 44.37 114.18 44.37 Z" fill="#ffffff"/>
<path d="M 118.65 44.35 C 128.82 44.36 138.99 44.34 149.16 44.37 C 142.83 50.77 136.47 57.16 130.05 63.47 C 126.25 63.52 122.46 63.52 118.66 63.46 C 118.60 57.09 118.64 50.72 118.65 44.35 Z" fill="#ee352a"/>
<path d="M 118.68 67.94 C 128.66 67.91 138.64 67.91 148.62 67.94 C 148.65 97.77 148.61 127.61 148.64 157.45 C 151.21 157.46 153.79 157.47 156.36 157.49 C 156.37 160.45 156.37 163.40 156.35 166.35 C 151.09 166.37 145.83 166.36 140.57 166.36 C 140.55 165.33 140.53 164.31 140.51 163.28 C 134.45 168.34 126.95 171.18 118.99 170.44 C 108.21 169.60 98.52 162.20 94.85 152.03 C 91.40 142.81 93.16 132.04 99.41 124.43 C 105.50 116.85 115.38 112.86 125.03 114.17 C 129.79 114.68 133.94 116.68 137.99 119.12 C 137.90 105.26 137.98 91.41 137.94 77.56 C 131.52 77.52 125.09 77.59 118.66 77.51 C 118.65 74.32 118.66 71.13 118.68 67.94 Z" fill="#ffffff"/>
<path d="M 6.37 81.56 C 17.54 81.25 28.80 81.52 40.00 81.45 C 40.08 92.31 40.07 103.18 40.00 114.04 C 28.48 114.06 16.96 114.13 5.44 114.00 C 4.04 103.35 3.97 92.07 6.37 81.56 Z" fill="#ee352a"/>
<path d="M 44.59 81.54 C 55.40 81.30 66.27 81.51 77.10 81.45 C 77.13 92.32 77.12 103.18 77.10 114.05 C 66.24 114.06 55.37 114.09 44.50 114.03 C 44.56 103.21 44.35 92.35 44.59 81.54 Z" fill="#ffffff"/>
<path d="M 112.09 81.45 C 101.95 91.64 91.80 101.82 81.59 111.93 C 81.54 101.78 81.55 91.62 81.58 81.47 C 91.75 81.39 101.92 81.45 112.09 81.45 Z" fill="#ee352a"/>
<path d="M 0.00 104.30 C 0.79 118.01 4.06 131.49 10.17 143.82 C 19.01 161.91 33.41 177.16 50.94 187.07 C 64.55 194.85 79.85 199.08 95.47 200.00 L 0.00 200.00 L 0.00 104.30 Z" fill="#ffffff"/>
<path d="M 200.00 104.51 L 200.00 200.00 L 105.59 200.00 C 118.87 198.92 131.85 195.78 143.82 189.84 C 161.91 180.98 177.17 166.59 187.07 149.06 C 194.84 135.44 199.08 120.14 200.00 104.51 Z" fill="#ffffff"/>
<path d="M 6.25 118.51 C 17.51 118.50 28.77 118.49 40.03 118.51 C 40.05 129.38 40.05 140.26 40.03 151.13 C 33.13 151.14 26.23 151.16 19.33 151.11 C 12.93 140.92 8.66 130.31 6.25 118.51 Z" fill="#ffffff"/>
<path d="M 44.52 118.53 C 54.67 118.47 64.83 118.49 74.99 118.52 C 64.88 128.73 54.72 138.90 44.51 149.00 C 44.48 138.85 44.46 128.68 44.52 118.53 Z" fill="#ee352a"/>
<path d="M 117.45 123.58 C 125.02 121.93 133.05 125.23 137.30 131.69 C 141.74 138.27 141.49 147.34 136.68 153.66 C 132.03 159.92 123.73 162.76 116.21 160.58 C 108.03 158.30 102.18 150.51 102.36 142.00 C 102.38 133.19 108.85 125.36 117.45 123.58 Z" fill="#b79958"/>
<path d="M 116.44 128.48 C 123.87 125.76 132.26 129.61 135.07 136.98 C 137.98 144.37 134.18 152.98 126.79 155.83 C 119.25 158.87 110.44 154.92 107.69 147.28 C 104.87 139.75 108.90 131.17 116.44 128.48 Z" fill="#00509f"/>
<path d="M 22.39 155.61 C 27.56 155.55 32.73 155.56 37.90 155.60 C 35.10 158.52 32.25 161.40 29.30 164.19 C 27.52 162.17 25.77 160.12 24.14 157.97 C 23.55 157.19 22.97 156.40 22.39 155.61 Z" fill="#ee352a"/>
</svg>