<?xml version="1.0" encoding="UTF-8" standalone="no"?>
<svg xmlns:dc="http://purl.org/dc/elements/1.1/" xmlns:cc="http://creativecommons.org/ns#" xmlns:rdf="http://www.w3.org/1999/02/22-rdf-syntax-ns#" xmlns:svg="http://www.w3.org/2000/svg" xmlns="http://www.w3.org/2000/svg" xmlns:sodipodi="http://sodipodi.sourceforge.net/DTD/sodipodi-0.dtd" xmlns:inkscape="http://www.inkscape.org/namespaces/inkscape" inkscape:version="1.0 (4035a4f, 2020-05-01)" sodipodi:docname="76.svg" id="svg6299" height="200.0pt" width="200.0pt" viewBox="0 0 200 200" version="1.1">
  <metadata id="metadata6305">
    <rdf:RDF>
      <cc:Work rdf:about="">
        <dc:format>image/svg+xml</dc:format>
        <dc:type rdf:resource="http://purl.org/dc/dcmitype/StillImage"/>
      </cc:Work>
    </rdf:RDF>
  </metadata>
  <defs id="defs6303"/>
  <sodipodi:namedview inkscape:current-layer="svg6299" inkscape:cy="133.33333" inkscape:cx="133.33333" inkscape:zoom="1.75125" showgrid="false" id="namedview6301" inkscape:window-height="480" inkscape:window-width="640" inkscape:pageshadow="2" inkscape:pageopacity="0" guidetolerance="10" gridtolerance="10" objecttolerance="10" borderopacity="1" bordercolor="#666666" pagecolor="#ffffff"/>
  <path style="fill:#ffffff;fill-opacity:0" id="path6285" fill="#ffffff" d="M 0.00 0.00 L 200.00 0.00 L 200.00 200.00 L 0.00 200.00 L 0.00 0.00 Z"/>
  <path id="path6287" fill="#000000" d="M 51.21 15.47 C 83.70 15.25 116.69 15.42 149.23 15.38 C 165.52 43.65 181.82 71.92 198.15 100.16 C 181.80 128.40 165.57 156.80 149.11 184.97 C 116.45 184.85 83.78 184.97 51.12 184.91 C 34.80 156.66 18.50 128.40 2.19 100.14 C 18.50 72.18 34.84 43.27 51.21 15.47 Z"/>
  <path id="path6289" fill="#ffffff" d="M 59.10 30.14 L 59.69 29.84 C 86.69 29.59 113.87 29.78 140.89 29.75 C 154.47 53.18 167.90 76.71 181.55 100.09 C 168.04 123.61 154.44 147.09 140.89 170.58 C 113.74 170.61 86.59 170.61 59.44 170.58 C 45.90 147.09 32.33 123.62 18.80 100.12 C 32.26 76.83 45.86 53.54 59.10 30.14 Z"/>
  <path id="path6291" fill="#f6a800" d="M 61.99 32.22 C 87.84 32.24 113.70 32.13 139.55 32.27 C 152.58 54.91 165.62 77.55 178.73 100.15 C 165.56 122.80 152.60 145.67 139.31 168.24 C 113.18 168.17 87.04 168.23 60.91 168.20 C 47.80 145.54 34.77 122.83 21.62 100.19 C 34.26 78.30 46.91 56.43 59.50 34.52 C 60.18 33.65 60.62 31.94 61.99 32.22 Z"/>
  <path id="path6293" fill="#000000" d="M 76.65 37.22 C 80.70 47.45 84.73 57.68 88.84 67.87 C 96.38 67.81 103.93 67.89 111.47 67.83 C 115.58 57.63 119.52 47.36 123.75 37.22 C 134.79 59.59 145.73 82.02 156.84 104.35 C 145.45 111.13 134.00 117.85 122.59 124.60 C 120.97 125.35 120.73 126.67 120.22 128.22 C 116.80 139.82 113.16 151.36 109.71 162.95 C 103.39 163.15 96.92 163.25 90.61 162.88 C 86.90 150.40 83.06 137.96 79.33 125.49 C 67.43 118.35 55.37 111.48 43.51 104.29 C 54.72 82.02 65.46 59.50 76.65 37.22 Z"/>
  <path id="path6295" fill="#ffffff" d="M 123.66 92.67 C 123.76 98.70 123.66 104.72 123.72 110.74 C 118.09 110.78 112.46 110.81 106.83 110.73 C 112.41 104.68 118.16 98.80 123.66 92.67 Z"/>
  <path id="path6297" fill="#ffffff" d="M 76.64 92.66 C 77.41 93.47 78.17 94.29 78.93 95.11 C 83.78 100.34 88.60 105.61 93.56 110.73 C 87.92 110.81 82.28 110.76 76.64 110.77 C 76.62 104.73 76.62 98.70 76.64 92.66 Z"/>
</svg>