<?xml version="1.0" encoding="UTF-8" standalone="no"?>
<svg xmlns:dc="http://purl.org/dc/elements/1.1/" xmlns:cc="http://creativecommons.org/ns#" xmlns:rdf="http://www.w3.org/1999/02/22-rdf-syntax-ns#" xmlns:svg="http://www.w3.org/2000/svg" xmlns="http://www.w3.org/2000/svg" xmlns:sodipodi="http://sodipodi.sourceforge.net/DTD/sodipodi-0.dtd" xmlns:inkscape="http://www.inkscape.org/namespaces/inkscape" inkscape:version="1.0 (4035a4f, 2020-05-01)" sodipodi:docname="78.svg" id="svg2686" height="200.0pt" width="200.0pt" viewBox="0 0 200 200" version="1.1">
  <metadata id="metadata2692">
    <rdf:RDF>
      <cc:Work rdf:about="">
        <dc:format>image/svg+xml</dc:format>
        <dc:type rdf:resource="http://purl.org/dc/dcmitype/StillImage"/>
      </cc:Work>
    </rdf:RDF>
  </metadata>
  <defs id="defs2690"/>
  <sodipodi:namedview inkscape:current-layer="svg2686" inkscape:window-maximized="0" inkscape:window-y="23" inkscape:window-x="0" inkscape:cy="133.33333" inkscape:cx="133.33333" inkscape:zoom="1.5225" showgrid="false" id="namedview2688" inkscape:window-height="621" inkscape:window-width="845" inkscape:pageshadow="2" inkscape:pageopacity="0" guidetolerance="10" gridtolerance="10" objecttolerance="10" borderopacity="1" bordercolor="#666666" pagecolor="#ffffff"/>
  <path style="fill:#ffffff;fill-opacity:0" id="path2650" fill="#ffffff" d="M 0.00 0.00 L 200.00 0.00 L 200.00 200.00 L 100.34 200.00 C 103.04 197.43 106.03 195.24 109.02 193.02 C 127.01 179.35 145.06 165.74 163.04 152.05 C 170.58 146.40 174.63 137.40 174.57 128.04 C 174.56 92.36 174.55 56.66 174.57 20.97 C 174.55 17.75 174.03 14.72 171.61 12.38 C 168.78 9.69 164.20 8.57 160.52 7.58 C 120.49 -2.36 77.96 -2.25 37.99 7.95 C 34.01 9.06 29.44 10.32 27.03 13.98 C 24.93 17.15 25.42 21.37 25.36 25.00 C 25.40 57.00 25.37 89.00 25.38 121.00 C 25.42 125.57 25.07 130.53 26.11 134.97 C 27.60 141.72 31.38 147.92 36.93 152.09 C 54.72 165.59 72.59 179.11 90.41 192.63 C 93.54 195.05 96.80 197.10 99.40 200.00 L 0.00 200.00 L 0.00 0.00 Z"/>
  <path id="path2652" fill="#222e60" d="M 160.52 7.58 C 164.20 8.57 168.78 9.69 171.61 12.38 C 174.03 14.72 174.55 17.75 174.57 20.97 C 174.55 56.66 174.56 92.36 174.57 128.04 C 174.63 137.40 170.58 146.40 163.04 152.05 C 145.06 165.74 127.01 179.35 109.02 193.02 C 106.03 195.24 103.04 197.43 100.34 200.00 L 99.40 200.00 C 96.80 197.10 93.54 195.05 90.41 192.63 C 72.59 179.11 54.72 165.59 36.93 152.09 C 31.38 147.92 27.60 141.72 26.11 134.97 C 25.07 130.53 25.42 125.57 25.38 121.00 C 25.37 89.00 25.40 57.00 25.36 25.00 C 25.42 21.37 24.93 17.15 27.03 13.98 C 29.44 10.32 34.01 9.06 37.99 7.95 C 77.96 -2.25 120.49 -2.36 160.52 7.58 Z"/>
  <path id="path2654" fill="#ffffff" d="M 98.27 5.91 C 98.89 7.68 99.50 9.46 100.11 11.24 C 102.02 11.26 103.92 11.27 105.83 11.30 C 104.30 12.40 102.75 13.50 101.21 14.60 C 101.78 16.41 102.36 18.22 102.92 20.03 C 101.39 18.93 99.86 17.83 98.34 16.71 C 96.78 17.84 95.21 18.97 93.64 20.09 C 94.26 18.29 94.88 16.50 95.50 14.70 C 93.97 13.56 92.43 12.41 90.91 11.25 C 92.78 11.26 94.66 11.28 96.54 11.30 C 96.76 10.62 96.98 9.94 97.20 9.26 C 97.55 8.14 97.91 7.02 98.27 5.91 Z"/>
  <path id="path2656" fill="#ffffff" d="M 159.07 13.81 C 159.69 15.61 160.29 17.42 160.90 19.23 C 162.79 19.24 164.68 19.26 166.57 19.28 C 165.06 20.37 163.54 21.45 162.02 22.52 C 162.57 24.38 163.12 26.22 163.67 28.07 C 162.14 26.93 160.62 25.78 159.09 24.63 C 157.54 25.80 156.00 26.96 154.44 28.12 C 155.04 26.30 155.64 24.49 156.24 22.67 C 154.73 21.53 153.21 20.39 151.71 19.24 C 153.57 19.24 155.44 19.25 157.30 19.25 C 157.89 17.44 158.48 15.62 159.07 13.81 Z"/>
  <path id="path2658" fill="#ffffff" d="M 36.19 13.82 C 36.81 15.62 37.43 17.42 38.03 19.22 C 39.92 19.23 41.81 19.25 43.70 19.27 C 42.18 20.40 40.64 21.52 39.11 22.64 C 39.70 24.43 40.28 26.23 40.87 28.03 C 39.32 26.92 37.78 25.80 36.24 24.67 C 34.69 25.81 33.13 26.96 31.58 28.10 C 32.19 26.29 32.80 24.48 33.42 22.68 C 31.89 21.54 30.37 20.39 28.86 19.23 C 30.73 19.24 32.60 19.25 34.46 19.27 C 34.68 18.59 34.89 17.92 35.10 17.25 C 35.47 16.11 35.83 14.96 36.19 13.82 Z"/>
  <path id="path2660" fill="#ffffff" d="M 132.46 22.93 C 135.84 23.49 139.22 24.02 142.59 24.61 C 129.55 34.53 116.45 44.40 103.44 54.37 C 103.42 47.61 103.45 40.85 103.42 34.09 C 106.85 35.71 109.87 37.33 113.83 36.63 C 116.59 36.16 118.02 34.06 119.83 32.17 C 123.58 32.38 126.93 32.55 129.95 29.95 C 132.26 28.04 132.12 25.66 132.46 22.93 Z"/>
  <path id="path2662" fill="#ffffff" d="M 59.93 24.14 C 60.96 26.47 61.66 28.66 63.88 30.15 C 67.49 32.79 71.32 32.54 75.55 32.20 C 77.52 34.18 79.32 36.04 82.16 36.67 C 86.07 37.80 89.50 36.75 93.26 35.70 C 93.23 44.48 93.25 53.26 93.25 62.05 C 84.97 68.26 76.86 74.76 68.41 80.72 C 69.05 77.40 71.60 75.99 73.29 73.31 C 75.08 70.48 75.43 67.38 76.05 64.15 L 72.88 64.45 C 77.55 63.08 80.28 59.26 81.73 54.81 C 83.25 49.83 84.71 44.76 85.93 39.71 C 84.30 40.34 82.20 40.61 81.16 42.13 C 79.04 45.01 77.33 48.17 75.03 50.93 C 73.03 49.14 70.90 48.17 70.50 45.24 C 69.40 41.93 71.74 40.14 72.39 37.02 C 72.10 35.82 71.75 34.63 71.34 33.46 C 67.74 36.17 63.34 36.60 59.69 39.13 C 58.55 39.31 57.43 39.56 56.33 39.89 C 57.66 44.01 59.57 47.49 59.19 52.01 C 58.51 60.54 55.58 68.71 51.01 75.93 C 55.78 79.94 55.70 85.21 55.21 90.96 C 52.30 93.14 49.43 95.35 46.54 97.56 C 46.54 73.99 46.53 50.42 46.55 26.85 C 51.00 25.85 55.45 24.94 59.93 24.14 Z"/>
  <path id="path2664" fill="#ce3426" d="M 168.22 33.57 C 168.25 65.04 168.19 96.53 168.25 128.00 C 168.28 132.34 167.55 136.56 165.34 140.35 C 162.38 145.88 155.95 149.42 151.12 153.31 C 151.08 117.76 151.10 82.21 151.11 46.66 C 156.80 42.29 162.50 37.91 168.22 33.57 Z"/>
  <path id="path2666" fill="#ffffff" d="M 151.11 46.66 C 151.10 82.21 151.08 117.76 151.12 153.31 C 144.33 158.23 137.93 163.87 130.81 168.27 C 130.47 162.84 130.63 157.43 130.61 152.00 C 130.59 122.12 130.63 92.22 130.58 62.34 C 137.44 57.13 144.25 51.87 151.11 46.66 Z"/>
  <path id="path2668" fill="#ffffff" d="M 119.49 49.93 C 120.17 51.54 120.77 53.19 121.39 54.83 C 123.28 54.84 125.17 54.84 127.06 54.85 C 125.51 55.99 123.97 57.13 122.42 58.27 C 123.01 60.11 123.61 61.95 124.20 63.78 C 122.69 62.64 121.17 61.49 119.66 60.34 C 118.06 61.46 116.46 62.60 114.86 63.72 C 115.47 61.91 116.08 60.09 116.68 58.27 C 115.13 57.13 113.58 56.00 112.04 54.85 C 113.94 54.84 115.84 54.84 117.74 54.83 C 118.30 53.19 118.87 51.55 119.49 49.93 Z"/>
  <path id="path2670" fill="#ffffff" d="M 36.20 60.37 C 36.81 62.15 37.42 63.93 38.01 65.71 C 39.93 65.72 41.86 65.72 43.78 65.73 C 42.23 66.86 40.67 67.99 39.11 69.11 C 39.71 70.93 40.30 72.76 40.90 74.59 C 39.34 73.46 37.78 72.32 36.21 71.19 C 34.67 72.32 33.13 73.45 31.58 74.57 C 32.18 72.75 32.79 70.94 33.40 69.12 C 31.83 67.99 30.26 66.86 28.70 65.73 C 30.62 65.73 32.55 65.74 34.48 65.75 C 35.05 63.96 35.62 62.16 36.20 60.37 Z"/>
  <path id="path2672" fill="#ce3426" d="M 130.58 62.34 C 130.63 92.22 130.59 122.12 130.61 152.00 C 130.63 157.43 130.47 162.84 130.81 168.27 C 129.65 169.60 128.23 170.75 126.82 171.82 C 121.22 175.91 115.76 180.17 110.21 184.33 C 110.16 148.87 110.21 113.42 110.18 77.97 C 116.99 72.76 123.78 67.55 130.58 62.34 Z"/>
  <path id="path2674" fill="#ffffff" d="M 79.30 78.51 C 79.94 80.27 80.56 82.03 81.18 83.80 C 83.10 83.81 85.01 83.82 86.93 83.83 C 85.38 84.97 83.83 86.11 82.27 87.24 C 82.86 89.06 83.46 90.87 84.05 92.68 C 82.47 91.56 80.90 90.43 79.32 89.31 C 77.80 90.46 76.29 91.60 74.77 92.74 C 75.36 90.91 75.95 89.08 76.54 87.24 C 74.98 86.10 73.42 84.97 71.86 83.82 C 73.80 83.82 75.74 83.82 77.68 83.82 C 77.92 83.05 78.16 82.28 78.39 81.51 C 78.70 80.51 79.00 79.51 79.30 78.51 Z"/>
  <path id="path2676" fill="#ffffff" d="M 110.18 77.97 C 110.21 113.42 110.16 148.87 110.21 184.33 C 106.80 186.92 103.39 189.51 99.97 192.10 C 96.55 189.51 93.13 186.91 89.71 184.31 C 89.73 154.09 89.74 123.86 89.70 93.64 C 96.52 88.41 103.35 83.19 110.18 77.97 Z"/>
  <path id="path2678" fill="#ce3426" d="M 89.70 93.64 C 89.74 123.86 89.73 154.09 89.71 184.31 C 82.90 179.17 76.11 174.00 69.30 168.86 C 69.31 148.98 69.30 129.11 69.30 109.23 C 76.11 104.05 82.90 98.83 89.70 93.64 Z"/>
  <path id="path2680" fill="#ffffff" d="M 36.18 109.49 C 36.80 111.27 37.41 113.06 38.01 114.85 C 39.92 114.85 41.83 114.85 43.75 114.85 C 42.21 116.00 40.67 117.15 39.12 118.30 C 39.72 120.11 40.32 121.91 40.91 123.72 C 39.33 122.60 37.75 121.47 36.17 120.34 C 34.65 121.50 33.12 122.65 31.59 123.80 C 32.19 121.96 32.79 120.12 33.38 118.28 C 31.83 117.14 30.28 115.99 28.73 114.84 C 30.65 114.85 32.57 114.87 34.49 114.88 C 35.06 113.08 35.62 111.28 36.18 109.49 Z"/>
  <path id="path2682" fill="#ffffff" d="M 69.30 109.23 C 69.30 129.11 69.31 148.98 69.30 168.86 C 62.49 163.66 55.64 158.51 48.82 153.31 C 48.84 143.85 48.84 134.38 48.82 124.92 C 55.65 119.69 62.48 114.47 69.30 109.23 Z"/>
  <path id="path2684" fill="#ce3426" d="M 48.82 124.92 C 48.84 134.38 48.84 143.85 48.82 153.31 C 45.43 150.67 41.80 148.26 38.59 145.39 C 35.97 143.03 34.56 140.10 32.99 137.02 C 38.27 133.00 43.54 128.95 48.82 124.92 Z"/>
</svg>