<?xml version="1.0" encoding="utf-8"?>
<!-- Generator: Adobe Illustrator 25.2.0, SVG Export Plug-In . SVG Version: 6.00 Build 0)  -->
<svg version="1.1"
	 id="svg8" inkscape:export-filename="G:\Users\suitedoalex\sites\svg\granada-fc-logo-0.png" inkscape:export-xdpi="561.73712" inkscape:export-ydpi="561.73712" inkscape:version="0.92.4 (5da689c313, 2019-01-14)" sodipodi:docname="granada-fc-logo.svg" xmlns:cc="http://creativecommons.org/ns#" xmlns:dc="http://purl.org/dc/elements/1.1/" xmlns:inkscape="http://www.inkscape.org/namespaces/inkscape" xmlns:rdf="http://www.w3.org/1999/02/22-rdf-syntax-ns#" xmlns:sodipodi="http://sodipodi.sourceforge.net/DTD/sodipodi-0.dtd" xmlns:svg="http://www.w3.org/2000/svg"
	 xmlns="http://www.w3.org/2000/svg" xmlns:xlink="http://www.w3.org/1999/xlink" x="0px" y="0px" viewBox="0 0 976.64 700"
	 style="enable-background:new 0 0 976.64 700;" xml:space="preserve">
<style type="text/css">
	.st0{fill:#FFFFFF;}
	.st1{fill:#C31632;}
</style>
<sodipodi:namedview  bordercolor="#666666" borderopacity="1" gridtolerance="10" guidetolerance="10" id="namedview17" inkscape:current-layer="svg8" inkscape:cx="302.06403" inkscape:cy="336.56431" inkscape:pageopacity="0" inkscape:pageshadow="2" inkscape:window-height="837" inkscape:window-maximized="1" inkscape:window-width="1600" inkscape:window-x="-8" inkscape:window-y="-8" inkscape:zoom="0.93253536" objecttolerance="10" pagecolor="#ffffff" showgrid="false">
	</sodipodi:namedview>
<path id="rect832" inkscape:connector-curvature="0" inkscape:export-xdpi="181.38002" inkscape:export-ydpi="181.38002" class="st0" d="
	M489.16,113.17c27.6,0.5,50,22.1,51.5,49.6h53.5v312.78c-20.7,92.59-105.89,111.29-105.89,111.29s-85.19-18.7-105.79-111.29V162.77
	h53.5C437.56,134.67,460.96,112.77,489.16,113.17L489.16,113.17z"/>
<g>
	<path id="path847" inkscape:connector-curvature="0" class="st1" d="M482.16,472v12.7h12.58v-12.85
		c12.74-1.53,24.59-7.31,33.64-16.41l-8.67-8.75c-6.75,6.81-15.5,11.27-24.97,12.74v-50.79h61.73v-12.58h-61.69v-25.39
		c9.36,1.45,18.02,5.82,24.73,12.5l8.6-8.75c-9-8.95-20.73-14.64-33.33-16.17v-31.96l61.73-81.85v58.02h12.62l-0.23-95.33
		l-86.73,115.02v36.02c-31.44,3.3-54.25,31.46-50.95,62.9C434.04,447.94,455.28,469.18,482.16,472 M482.16,370.5v89.12
		c-24.6-3.27-41.89-25.85-38.63-50.45c2.67-20.12,18.5-35.96,38.63-38.63"/>
	<path id="path851" inkscape:connector-curvature="0" class="st1" d="M497.64,508.03c-0.21-0.17-0.45-0.31-0.7-0.39
		c-0.4-3.52,0.11-7.09,1.48-10.35c-0.2,0.39-2.97,4.61-5.78,4.61c-3.91,0-4.41-3.71-4.41-3.71s-0.39,2.19-3.24,3.09
		c-2.85,0.86-6.09-1.76-6.09-1.76s2.19,2.62,2.19,4.57c0,1.95-2.77,4.18-3.16,4.38c-6.96,4.37-11.23,11.98-11.33,20.2
		c0,12.66,9.65,22.93,21.64,22.93c11.96,0,21.64-10.28,21.64-22.93C509.98,520.03,505.26,512.07,497.64,508.03 M486.5,545.53
		c3.67-2.81,4.14-5.86,4.14-11.96s-9.81-8.67-9.81-14.61c0-5.47,7.35-8.63,8.24-8.99l0.2-0.12l-0.2,0.08
		c-0.47,0.27-1.76,1.41-1.76,7.07c0,6.95,10.2,5.24,10.2,14.57c0,9.34-10.86,14.14-11.06,13.91"/>
	<path id="path855" inkscape:connector-curvature="0" class="st1" d="M540.77,152.73c-1.58-28.91-26.3-51.07-55.21-49.49
		c-26.71,1.46-48.03,22.79-49.49,49.49h-53.52v312.83c20.59,92.59,105.76,111.27,105.76,111.27h0.08c0,0,85.17-18.68,105.8-111.27
		V152.73H540.77z M508.89,176.02c-6.25-2.15-13.56-3.24-20.86-3.24c-6.95,0-13.91,1.02-19.93,3.01c-2.9-5.14-4.52-10.9-4.73-16.8
		h50.24c-0.22,5.98-1.84,11.83-4.73,17.07 M514.87,185.82c-6.4,5.54-14.38,8.93-22.82,9.69v-16.14
		C501.82,179.92,510.18,182.31,514.87,185.82 M485.45,179.3v16.25c-8.76-0.63-17.07-4.1-23.68-9.88
		C466.62,181.99,475.29,179.65,485.45,179.3 M519.16,181.49c-1.43-1.13-2.96-2.12-4.57-2.97c7.85-12.38,7.89-33.01,0.12-45.32
		c1.68-0.86,3.2-1.88,4.57-2.93C531.75,145.08,531.7,166.73,519.16,181.49 M492.05,132.26v-16.14c8.48,0.78,16.53,4.18,22.89,9.77
		c-4.61,3.56-13.05,5.94-22.89,6.41 M508.97,135.7c2.93,5.18,4.53,11.01,4.69,16.96h-50.32c0.39-6.6,1.99-12.74,4.53-17.03
		C480.29,139.92,496.62,139.92,508.97,135.7 M485.45,132.3c-10.04-0.39-18.68-2.77-23.6-6.41c6.6-5.74,14.88-9.18,23.6-9.81V132.3z
		 M462.12,133.2c-7.62,12.46-7.5,32.94,0.23,45.01c-1.73,0.86-3.36,1.9-4.88,3.09c-12.32-14.77-12.29-36.25,0.08-50.99
		C458.88,131.32,460.4,132.26,462.12,133.2 M536.63,208.72l-9.81,12.58H407.74l0.27,136.59l74.62-98.92h-49.85v-12.58h75.17
		L395.12,396.13V208.72L536.63,208.72z M581.6,465.67c-14.73,79.23-93.26,98.61-93.26,98.61s-78.53-19.38-93.26-98.61v-48.91
		L581.6,170.23V465.67z"/>
</g>
</svg>
