<?xml version="1.0" encoding="UTF-8" standalone="no"?>
<!-- Created with Inkscape (http://www.inkscape.org/) -->
<svg xmlns:dc="http://purl.org/dc/elements/1.1/" xmlns:cc="http://creativecommons.org/ns#" xmlns:rdf="http://www.w3.org/1999/02/22-rdf-syntax-ns#" xmlns:svg="http://www.w3.org/2000/svg" xmlns="http://www.w3.org/2000/svg" xmlns:sodipodi="http://sodipodi.sourceforge.net/DTD/sodipodi-0.dtd" xmlns:inkscape="http://www.inkscape.org/namespaces/inkscape" width="232.53087" height="304.07922" viewBox="0 0 61.523791 80.454297" version="1.1" id="svg8" inkscape:version="0.92.3 (2405546, 2018-03-11)" sodipodi:docname="brugge.svg">
  <defs id="defs2"/>
  <sodipodi:namedview id="base" pagecolor="#00ffff" bordercolor="#666666" borderopacity="1.0" inkscape:pageopacity="0" inkscape:pageshadow="2" inkscape:zoom="2.8" inkscape:cx="-18.835217" inkscape:cy="116.77541" inkscape:document-units="mm" inkscape:current-layer="layer1" showgrid="false" fit-margin-left="1" fit-margin-top="1" fit-margin-right="1" fit-margin-bottom="1" units="px" inkscape:window-width="1920" inkscape:window-height="1001" inkscape:window-x="-9" inkscape:window-y="-9" inkscape:window-maximized="1"/>
  <metadata id="metadata5">
    <rdf:RDF>
      <cc:Work rdf:about="">
        <dc:format>image/svg+xml</dc:format>
        <dc:type rdf:resource="http://purl.org/dc/dcmitype/StillImage"/>
        <dc:title/>
      </cc:Work>
    </rdf:RDF>
  </metadata>
  <g inkscape:label="Layer 1" inkscape:groupmode="layer" id="layer1" transform="translate(-35.820801,-25.762393)">
    <g id="g143" transform="matrix(0.10974204,0,0,0.10974204,35.174525,25.083195)">
      <g id="Layer_5">
        <circle id="circle66" r="247" cy="459.89999" cx="287.10001" class="st0" style="fill:#ffffff"/>
        <path id="path68" d="m 215.7,244.5 -35.5,-89 15.8,-25.2 112.7,9.9 66.1,15.3 12.1,24.1 -30.6,64.9 -140.5,9.6 z" class="st0" inkscape:connector-curvature="0" style="fill:#ffffff"/>
      </g>
      <g id="_x2014_ÎÓÈ_x5F_1">
        <path id="path71" d="M 286.3,721.8 C 141.2,721.8 23.5,604.2 23.5,459 c 0,-111.3 69.2,-206.5 167,-244.8 l -0.1,-0.1 c -2.2,-2.7 -4.4,-5.5 -6.4,-8.5 -12.7,-18.8 -16,-57 12,-75.4 25.4,-16.7 56,-4.7 60.4,-2.8 v -0.2 c 0.6,-16 13.7,-28.8 29.8,-28.8 16.1,0 29.3,12.8 29.8,28.8 v 0.2 c 4.5,-1.9 35,-13.8 60.4,2.8 28,18.4 24.7,56.6 12,75.4 -2,3 -4.2,5.8 -6.4,8.5 l -0.1,0.1 c 97.8,38.3 167,133.4 167,244.8 0.1,145.2 -117.5,262.8 -262.6,262.8 z m 0,-23.6 C 418.2,698.2 525.5,590.9 525.5,459 525.5,327.1 418.2,219.8 286.3,219.8 154.4,219.9 47.1,327.1 47.1,459 c 0,131.9 107.3,239.2 239.2,239.2 z m 0,-554.3 c -3.1,0 -5.8,2.6 -7.3,6.4 h -0.1 c -3,-1.9 -17.5,-10.5 -35.2,-4 h -0.1 c -7,-2.1 -21.3,-4.5 -33.9,4.4 -17,12 -13.4,37.6 -5,50.9 7.3,11.6 17.6,21.5 22.3,25.7 l 0.1,0.1 0.6,7.4 c 18.7,-5.2 38.3,-8 58.6,-8 20.3,0 39.9,2.8 58.6,8 l 0.6,-7.4 0.1,-0.1 c 4.6,-4.2 15,-14.1 22.3,-25.7 8.4,-13.3 12,-38.9 -5,-50.9 -12.6,-8.9 -26.9,-6.4 -33.9,-4.4 h -0.1 c -17.7,-6.4 -32.2,2.1 -35.2,4 h -0.1 c -1.6,-3.9 -4.3,-6.4 -7.3,-6.4 z" inkscape:connector-curvature="0"/>
        <path id="path73" d="m 286.3,98.5 c 16.1,0 29.3,12.8 29.8,28.8 v 0.2 c 2.7,-1.1 14.8,-5.9 29.6,-5.9 9.8,0 20.7,2.1 30.9,8.7 28,18.4 24.7,56.6 12,75.4 -2,3 -4.2,5.8 -6.4,8.5 l -0.1,0.1 c 97.8,38.3 167,133.4 167,244.8 0,145.1 -117.6,262.8 -262.8,262.8 C 141.2,721.8 23.5,604.2 23.5,459 c 0,-111.3 69.2,-206.5 167,-244.8 l -0.1,-0.1 c -2.2,-2.7 -4.4,-5.5 -6.4,-8.5 -12.7,-18.8 -16,-57 12,-75.4 10.1,-6.6 21.1,-8.7 30.9,-8.7 14.8,0 26.9,4.8 29.6,5.9 v -0.2 c 0.5,-15.9 13.6,-28.7 29.8,-28.7 m 7.3,51.8 c -1.5,-3.9 -4.2,-6.4 -7.3,-6.4 -3.1,0 -5.8,2.6 -7.3,6.4 h -0.1 c -2.2,-1.4 -10.6,-6.4 -21.9,-6.4 -4.1,0 -8.6,0.7 -13.3,2.4 h -0.1 c -3.2,-0.9 -7.8,-1.9 -13.2,-1.9 -6.4,0 -13.8,1.5 -20.7,6.3 -17,12 -13.4,37.6 -5,50.9 7.3,11.6 17.6,21.5 22.3,25.7 l 0.1,0.1 c -103.4,26.4 -180,120.3 -180,231.8 0,131.9 107.3,239.2 239.2,239.2 131.9,0 239.2,-107.3 239.2,-239.2 0,-111.5 -76.6,-205.4 -180,-231.8 l 0.1,-0.1 c 4.6,-4.2 15,-14.1 22.3,-25.7 8.4,-13.3 12,-38.9 -5,-50.9 -6.9,-4.9 -14.3,-6.3 -20.7,-6.3 -5.3,0 -10,1 -13.2,1.9 h -0.1 c -4.7,-1.7 -9.2,-2.4 -13.3,-2.4 -11.4,0 -19.8,4.9 -22,6.4 m -7.3,69.6 c 20.4,0 40.2,2.6 59.2,7.4 l -0.6,7.4 c -18.7,-5.2 -38.3,-8 -58.6,-8 -20.3,0 -39.9,2.8 -58.6,8 l -0.6,-7.4 c 18.9,-4.9 38.8,-7.4 59.2,-7.4 m 0,-136.5 c -11.7,0 -22.9,4.5 -31.3,12.7 -3.8,3.6 -6.8,7.9 -9.1,12.4 -5.5,-1.2 -12,-2 -19,-2 -14.6,0 -27.8,3.8 -39.2,11.2 -14.2,9.3 -23.5,23.2 -26.9,40.3 -3.3,16.4 -0.6,35.1 6.8,49.7 -19.1,9 -37.2,20.3 -53.8,33.5 -21.5,17 -40.2,37 -55.9,59.5 C 25.5,347.2 8.3,402 8.3,459 c 0,37.5 7.4,73.9 21.8,108.2 14,33.1 34,62.8 59.6,88.3 25.6,25.5 55.2,45.6 88.3,59.6 34.3,14.5 70.7,21.8 108.2,21.8 37.5,0 73.9,-7.4 108.2,-21.8 33.1,-14 62.8,-34 88.3,-59.6 25.5,-25.5 45.6,-55.2 59.6,-88.3 C 556.8,532.9 564.1,496.5 564.1,459 564.1,402 547,347.2 514.6,300.6 499,278.1 480.2,258.1 458.7,241.1 442,227.9 424,216.7 404.9,207.6 c 7.4,-14.6 10.1,-33.3 6.8,-49.7 -3.4,-17.1 -12.7,-31 -26.9,-40.3 -11.4,-7.4 -24.5,-11.2 -39.2,-11.2 -7,0 -13.5,0.9 -19,2 -2.3,-4.6 -5.3,-8.8 -9.1,-12.4 C 309.1,87.9 298,83.4 286.3,83.4 Z m 0.4,88.4 14.4,-8.3 h 0.1 l 0.4,-0.2 0.4,-0.2 c 0.6,-0.4 6.2,-3.9 13.6,-3.9 2.7,0 5.4,0.5 8.1,1.5 l 0.5,0.2 0.5,0.1 h 0.1 l 4.3,1.2 4.3,-1.3 c 2.1,-0.6 5.3,-1.3 8.9,-1.3 4.7,0 8.6,1.2 12,3.6 9.1,6.4 5.4,23.2 0.9,30.4 -4.2,6.6 -9.7,12.8 -14,17.1 a 256.7,256.7 0 0 0 -54.7,-5.9 c -18.4,0 -36.8,2 -54.7,5.9 -4.4,-4.4 -9.9,-10.5 -14,-17.1 -4.5,-7.2 -8.2,-24 0.9,-30.4 3.4,-2.4 7.3,-3.6 12,-3.6 3.6,0 6.8,0.7 8.9,1.3 l 4.3,1.3 4.3,-1.2 h 0.1 l 0.5,-0.1 0.5,-0.2 c 2.6,-1 5.4,-1.5 8.1,-1.5 7.4,0 13,3.5 13.6,3.9 l 0.4,0.2 0.4,0.2 h 0.1 l 14.4,8.3 0.2,0.4 0.3,-0.2 0.3,0.2 z m -72.8,82.5 17.8,-5 c 17.7,-4.9 36,-7.4 54.5,-7.4 18.5,0 36.8,2.5 54.5,7.4 l 17.8,5 0.5,-7.1 c 17.5,6 34.1,14.2 49.7,24.4 20.4,13.4 38.3,29.9 53.4,49 15.2,19.3 27.1,40.8 35.3,63.9 8.4,23.9 12.7,48.9 12.7,74.5 0,123.5 -100.5,224 -224,224 -123.5,0 -224,-100.5 -224,-224 0,-25.5 4.3,-50.6 12.7,-74.5 8.2,-23.1 20,-44.6 35.3,-63.9 15.1,-19.2 33.1,-35.6 53.4,-49 15.6,-10.2 32.2,-18.4 49.7,-24.4 z" class="st0" inkscape:connector-curvature="0" style="fill:#ffffff"/>
        <path id="path75" d="m 248.5,286.1 -2.8,-13.2 -3.8,0.8 -0.4,-1.9 0.3,-0.1 c 1.7,-0.4 3.7,-1.2 3.7,-3.6 l -0.1,-0.4 2.1,-0.5 3.9,18.2 z m 19.9,-8.4 c -0.2,-2.7 1,-4.4 2.9,-4.8 v -0.1 c -1.6,-0.4 -2.7,-1.6 -2.8,-3.8 -0.2,-2.9 1.6,-4.8 4.7,-5 3.1,-0.2 5.1,1.4 5.3,4.3 0.1,2.2 -0.7,3.5 -2.3,4.2 v 0.1 c 1.9,0.2 3.3,1.7 3.5,4.4 0.2,3.6 -1.4,5.7 -5.2,5.9 -3.9,0.2 -5.9,-1.6 -6.1,-5.2 z m 5.2,-6.1 c 1.9,-0.1 2.2,-1.5 2.1,-3 -0.1,-1.5 -0.7,-2.7 -2.5,-2.6 -1.9,0.1 -2.2,1.5 -2.1,2.9 0.1,1.6 0.7,2.9 2.5,2.7 z m 0.6,9.1 c 2.1,-0.1 2.5,-1.7 2.4,-3.7 -0.1,-2 -0.8,-3.5 -2.8,-3.3 -2.1,0.1 -2.5,1.7 -2.4,3.7 0.1,1.9 0.7,3.5 2.8,3.3 z m 23.4,-2.4 c -0.1,1.1 0.3,2.4 1.8,2.6 2.8,0.2 3.2,-3.5 3.4,-6.2 l -0.1,-0.1 c -0.8,1.3 -2.1,1.8 -3.8,1.7 -2.5,-0.2 -4.4,-2.2 -4.2,-5.9 0.3,-4.3 2.3,-6.7 6.2,-6.4 4.7,0.3 5.3,4 4.9,9.3 -0.4,5.5 -1.8,9.9 -6.7,9.6 -3.2,-0.2 -4.9,-1.8 -4.7,-4.9 z m 3,-12.2 c -1.8,-0.1 -2.6,1.6 -2.8,3.8 -0.2,2.6 0.5,4.1 2.2,4.2 2.2,0.2 2.7,-1.7 2.9,-3.9 0.2,-2.2 -0.5,-3.9 -2.3,-4.1 z m 23.1,19.9 2.9,-13.2 -3.8,-0.8 0.4,-1.9 0.3,0.1 c 1.7,0.4 3.9,0.4 4.9,-1.8 l 0.1,-0.4 2.1,0.5 -4,18.1 z" inkscape:connector-curvature="0"/>
        <path id="path77" d="m 289.5,134.1 v 5.3 c 0,0.4 -0.3,0.7 -0.7,0.7 h -5.1 c -0.4,0 -0.7,-0.3 -0.7,-0.7 v -5.5 h -5.5 c -0.4,0 -0.7,-0.3 -0.7,-0.7 v -5.1 c 0,-0.4 0.3,-0.7 0.7,-0.7 h 5.5 v -5.5 c 0,-0.4 0.3,-0.7 0.7,-0.7 h 5.1 c 0.4,0 0.7,0.3 0.7,0.7 v 5.6 h 5.5 c 0.4,0 0.7,0.3 0.7,0.7 v 5.1 c 0,0.4 -0.3,0.7 -0.7,0.7 h -5.5 z" class="st0" inkscape:connector-curvature="0" style="fill:#ffffff"/>
        <circle id="circle79" r="11.3" cy="175.2" cx="286.29999"/>
        <circle id="circle81" r="6.1999998" cy="198.39999" cx="286.29999"/>
        <circle id="circle83" r="4.3000002" cy="235.60001" cx="286.29999"/>
        <circle id="circle85" r="4.3000002" cy="240.2" cx="239.39999"/>
        <path id="path87" d="m 109.6,544.4 -2.8,-6.9 c 0.4,-0.1 0.7,-0.2 0.9,-0.3 4.9,-2 6.7,-4.7 5.3,-8.2 -0.8,-1.9 -2,-3 -3.7,-3.3 -1.1,-0.2 -2.1,-0.1 -3.2,0.2 -1,0.3 -2.1,0.7 -3.4,1.2 l -14,5.7 c -3,1.2 -5,2.3 -6,3.3 -1.5,1.5 -1.8,3.3 -0.9,5.6 1.4,3.6 4.9,4.2 10.4,2 0.2,-0.1 0.6,-0.2 1.1,-0.4 l 2.8,6.9 c -0.7,0.3 -1.2,0.5 -1.6,0.6 -4.1,1.6 -7.7,2.1 -10.7,1.3 -3.6,-0.9 -6.3,-3.6 -8.1,-7.9 -1.9,-4.6 -1.7,-8.6 0.7,-11.9 1.2,-1.7 2.7,-3.1 4.6,-4.1 1.6,-0.8 3.5,-1.7 5.8,-2.7 l 11.7,-4.7 c 4,-1.6 7,-2.5 8.7,-2.6 3.2,-0.2 5.9,0.8 8.1,2.8 1.5,1.4 2.8,3.2 3.7,5.5 1.5,3.8 1.6,7.2 0.3,10.2 -1.4,3.1 -4.2,5.5 -8.4,7.2 -0.2,0.1 -0.7,0.3 -1.3,0.5 z m 22.9,9.9 -32.8,21 8,12.5 -5.5,3.5 -12,-18.8 38.3,-24.5 z m 25.1,31.9 5.1,5.4 -22.5,21 c -2.7,2.5 -4.9,4.1 -6.7,4.8 -4.7,1.9 -9.1,0.7 -13.2,-3.7 -3,-3.3 -4.3,-6.6 -3.8,-10.1 0.3,-2 1,-3.8 2.3,-5.3 1.1,-1.4 2.4,-2.9 4,-4.4 l 22.5,-21 5.1,5.4 -23.4,22 c -1.9,1.8 -3,3.3 -3.4,4.6 -0.4,1.6 0,3 1.4,4.5 1.3,1.4 2.8,2 4.4,1.7 1.3,-0.2 2.9,-1.3 4.8,-3 z m -12.1,50.5 26.2,-37.1 9.1,6.4 c 3.5,2.4 5.7,5.1 6.6,8 1,3.2 0.5,6.4 -1.8,9.6 -1.7,2.5 -3.9,3.9 -6.4,4.4 -1.7,0.3 -3.6,0.1 -5.9,-0.7 1.7,2 2.7,3.8 3.1,5.4 0.7,2.9 0.1,5.8 -2,8.7 -2.3,3.3 -5.3,5.1 -8.8,5.5 -3.3,0.3 -6.7,-0.7 -10.3,-3.3 z m 9.8,-1.1 3.1,2.2 c 2,1.4 3.9,2 5.6,1.8 1.7,-0.2 3.1,-1.1 4.2,-2.7 1.2,-1.7 1.6,-3.6 1.3,-5.6 -0.4,-2.1 -1.6,-3.9 -3.9,-5.5 l -2.2,-1.6 z m 11.8,-16.6 2.2,1.6 c 1.9,1.3 3.7,1.9 5.5,1.7 1.7,-0.2 3.2,-1.1 4.3,-2.6 1,-1.4 1.3,-2.9 0.9,-4.4 -0.3,-1.4 -1.6,-2.9 -3.6,-4.3 l -2.3,-1.7 z m 32.8,49.7 15,-42.9 10.5,3.7 c 4,1.4 6.8,3.4 8.6,5.9 1.9,2.8 2.2,6.1 1,9.7 -1,2.8 -2.7,4.8 -5,6 -1.5,0.8 -3.5,1.1 -5.8,0.9 2.2,1.5 3.7,2.9 4.5,4.3 1.5,2.5 1.7,5.5 0.5,9 -1.3,3.8 -3.6,6.4 -7,7.7 -3,1.2 -6.6,1.1 -10.8,-0.3 z m 9.2,-3.7 3.5,1.2 c 2.4,0.8 4.3,0.9 5.9,0.2 1.6,-0.7 2.7,-1.9 3.3,-3.7 0.7,-2 0.6,-3.9 -0.3,-5.7 -0.9,-1.9 -2.7,-3.3 -5.3,-4.2 l -2.6,-0.9 z m 6.7,-19.3 2.6,0.9 c 2.2,0.8 4.1,0.8 5.8,0.1 1.6,-0.7 2.7,-1.9 3.4,-3.7 0.6,-1.6 0.4,-3.1 -0.4,-4.5 -0.7,-1.3 -2.3,-2.3 -4.7,-3.1 l -2.7,-0.9 z m 37.9,18.7 -2.5,18.4 -7.4,-1 6.1,-45.1 11.6,1.6 c 4.1,0.6 7.1,1.9 9.1,4 2.5,2.7 3.5,6.3 2.9,10.8 -0.8,5.7 -3.5,9.4 -8.1,10.9 l 4.3,21.3 -7.8,-1 -3.8,-19.3 z m 0.9,-6.5 2.7,0.4 c 2.1,0.3 3.5,0.3 4.5,0.1 2.3,-0.6 3.7,-2.5 4.2,-5.9 0.3,-2.5 0,-4.3 -1.1,-5.6 -0.6,-0.8 -1.4,-1.3 -2.4,-1.6 -0.9,-0.3 -2,-0.5 -3.2,-0.6 l -2.7,-0.4 z m 50.5,-18.8 7.4,-0.6 2.3,30.7 c 0.3,3.7 0.1,6.4 -0.4,8.2 -1.5,4.9 -5.2,7.6 -11.2,8 -4.4,0.3 -7.8,-0.8 -10.2,-3.3 -1.4,-1.5 -2.3,-3.2 -2.7,-5.1 -0.4,-1.7 -0.7,-3.7 -0.9,-5.9 l -2.3,-30.7 7.4,-0.6 2.4,31.9 c 0.2,2.6 0.7,4.4 1.5,5.5 0.9,1.3 2.4,1.9 4.4,1.7 2,-0.1 3.3,-0.9 4.1,-2.3 0.6,-1.2 0.8,-3 0.6,-5.6 z m 37.7,15.9 13.1,-3.8 6.3,21.6 -3.7,1.1 -2.3,-3.3 c -0.6,1.5 -1.3,2.7 -2.1,3.6 -1.3,1.5 -3.1,2.6 -5.4,3.3 -2.9,0.8 -5.5,0.7 -7.9,-0.3 -2.5,-1 -4.5,-3.1 -6,-6.1 -0.7,-1.5 -1.6,-3.8 -2.5,-6.9 l -3.5,-12.1 c -1.2,-4.2 -1.8,-7.2 -1.7,-9 0.1,-3.2 1.3,-5.8 3.6,-7.8 1.6,-1.4 3.5,-2.4 5.9,-3.1 5.1,-1.5 9.3,-0.6 12.6,2.7 1.7,1.7 3.2,4.6 4.3,8.6 l -7.2,2.1 c -0.8,-2.6 -1.6,-4.4 -2.5,-5.4 -1.5,-1.7 -3.3,-2.2 -5.5,-1.6 -2,0.6 -3.2,1.8 -3.6,3.5 -0.2,1 -0.2,2.1 0,3.2 0.2,1 0.5,2.1 0.9,3.5 l 3.9,13.4 c 0.9,3.2 1.9,5.5 2.8,6.8 1.4,2 3.4,2.6 5.8,1.9 2.1,-0.6 3.3,-1.9 3.6,-3.9 0.2,-1.5 0,-3.6 -0.8,-6.3 l -0.5,-1.8 -5.9,1.7 z m 37.2,-14.9 12.1,-6.3 10.4,20 -3.4,1.8 -2.9,-2.8 c -0.3,1.6 -0.7,2.9 -1.3,3.9 -1,1.8 -2.6,3.2 -4.6,4.2 -2.6,1.4 -5.3,1.8 -7.8,1.3 -2.7,-0.5 -5,-2.1 -7.1,-4.8 -1,-1.3 -2.3,-3.4 -3.8,-6.3 L 365.8,640 c -2,-3.9 -3.2,-6.7 -3.4,-8.5 -0.5,-3.1 0.2,-5.9 2,-8.3 1.3,-1.7 3,-3.1 5.1,-4.2 4.7,-2.5 9,-2.4 12.9,0.1 2,1.4 4,3.9 5.9,7.5 l -6.6,3.5 c -1.3,-2.4 -2.4,-4 -3.5,-4.8 -1.8,-1.3 -3.7,-1.5 -5.7,-0.5 -1.9,1 -2.8,2.4 -2.9,4.1 0,1.1 0.2,2.1 0.6,3.1 0.4,0.9 0.9,2 1.5,3.2 l 6.4,12.3 c 1.6,3 2.9,5.1 4.1,6.2 1.8,1.7 3.8,1.9 6.1,0.7 1.9,-1 2.8,-2.5 2.8,-4.5 -0.1,-1.5 -0.7,-3.5 -2,-6 l -0.8,-1.6 -5.4,2.8 z m 27.4,-46.2 4.1,5.1 -11.3,8.9 7.4,9.4 8.3,-6.5 4.1,5.1 -8.3,6.5 8.6,10.9 11.3,-8.9 4.1,5.1 -17.1,13.5 -28.1,-35.7 z m 19.1,-20.5 3.5,-4.9 18.2,12.8 0.1,-0.1 -8.5,-26.6 3.8,-5.5 7.2,23.1 31,2.3 -3.8,5.5 -25.6,-2 2.4,7.9 12.8,9 -3.5,4.9 z m 19.9,-29.4 2.5,-5.8 40,6.6 0.1,-0.1 -32.5,-24.2 2.5,-5.8 37.4,29.2 -3,7 z M 286.3,254.1 c 16.9,0 33,-1.1 47.8,-3.2 4.4,-0.6 3.6,-1.7 -0.3,-2.4 -15.4,-2.7 -31.3,-4.1 -47.5,-4.1 -16.3,0 -32.2,1.4 -47.5,4.1 -3.9,0.7 -4.6,1.8 -0.3,2.4 14.8,2.1 30.9,3.2 47.8,3.2 z M 453.5,459 c 0,92.4 -74.9,167.2 -167.2,167.2 C 194,626.2 119,551.4 119,459 c 0,-92.4 74.9,-167.2 167.2,-167.2 92.4,0 167.3,74.9 167.3,167.2 z M 286.3,606 c 81,0 146.9,-65.9 146.9,-146.9 0,-81 -65.9,-146.9 -146.9,-146.9 -81,0 -146.9,65.9 -146.9,146.9 -0.1,81 65.9,146.9 146.9,146.9 z" inkscape:connector-curvature="0"/>
        <circle id="circle89" r="140.7" cy="459" cx="286.29999" class="st1" style="fill:#0078bf"/>
        <path id="path91" d="m 321.4,595.4 c -11.2,2.9 -23,4.4 -35.1,4.4 -11.6,0 -23,-1.4 -33.8,-4.1 l 0.1,-0.1 170.2,-170.2 0.1,-0.1 c 2.7,10.8 4.1,22.1 4.1,33.8 0,12.1 -1.5,23.9 -4.4,35.1 l -0.1,0.1 -101,101 z m -116,-21.2 c -13.3,-9.4 -24.9,-21 -34.3,-34.3 l 0.1,-0.1 L 367,344 l 0.1,-0.2 c 13.3,9.4 24.9,21 34.3,34.3 l -0.1,0.1 -195.8,195.9 z m -55.8,-81.4 c -2.7,-10.8 -4.1,-22.1 -4.1,-33.8 0,-12.1 1.5,-23.9 4.4,-35.1 h 0.1 l 101,-101 0.1,-0.1 c 11.2,-2.9 23,-4.4 35.2,-4.4 11.6,0 23,1.4 33.8,4.1 l -0.1,0.1 -170.3,170.1 z" inkscape:connector-curvature="0"/>
        <circle id="circle93" r="3.5" cy="236.7" cx="263.79999"/>
        <path id="path95" d="m 239.6,215.1 c -2.5,0.5 -5,1 -7.6,1.6 -4.8,-4.5 -12.4,-12.3 -17.8,-21 -5.4,-8.6 -9.3,-27.9 2,-35.9 4.2,-2.9 8.7,-4 12.9,-4.2 v 0.1 c -14.6,15.9 -3.8,40.6 1.5,48.1 3.4,4.9 6.5,8.6 9,11.3 z" inkscape:connector-curvature="0"/>
        <path id="path97" d="m 248.8,208.6 c -2.2,-2.2 -5.5,-6 -9.1,-11.2 -2.2,-3.2 -6.3,-11.1 -6.7,-19.1 -0.4,-8.3 3.3,-15.6 8.8,-18.8 12,-7.2 22.7,-4 27.9,-1.6 l 0.1,0.1 c -5.5,1.5 -15.9,5.9 -17.5,17.6 -2.1,15.7 10.5,30.9 15.1,35.9 h -0.1 c -4.8,0.4 -9.5,0.9 -14.2,1.5 0.1,-0.1 -2.7,-2.7 -4.3,-4.4 z" inkscape:connector-curvature="0"/>
        <circle id="circle99" r="4.3000002" cy="240.2" cx="333.10001"/>
        <circle id="circle101" r="3.5" cy="236.7" cx="308.70001"/>
        <path id="path103" d="m 333,215.1 c 2.5,0.5 5,1 7.6,1.6 4.8,-4.5 12.4,-12.3 17.8,-21 5.4,-8.6 9.3,-27.9 -2,-35.9 -4.2,-2.9 -8.7,-4 -12.9,-4.2 v 0.1 c 14.6,15.9 3.8,40.6 -1.5,48.1 -3.4,4.9 -6.5,8.6 -9,11.3 z" inkscape:connector-curvature="0"/>
        <path id="path105" d="m 323.7,208.6 c 2.2,-2.2 5.5,-6 9.1,-11.2 2.2,-3.2 6.3,-11.1 6.7,-19.1 0.4,-8.3 -3.3,-15.6 -8.8,-18.8 -12,-7.2 -22.7,-4 -27.9,-1.6 l -0.1,0.1 c 5.5,1.5 15.9,5.9 17.5,17.6 2.1,15.7 -10.5,30.9 -15.1,35.9 h 0.1 c 4.8,0.4 9.5,0.9 14.2,1.5 -0.1,-0.1 2.7,-2.7 4.3,-4.4 z" inkscape:connector-curvature="0"/>
        <path id="path107" d="m 185.4,294.2 c 0.2,0.1 0.2,0.2 0,0.4 -1.1,1.1 -6.1,5.6 -14,6.4 -7.8,0.8 -11.7,-1.6 -12.7,-2.3 -0.2,-0.1 -0.1,-0.3 0,-0.4 1.3,-1 6.8,-5.3 13.1,-6.1 7.1,-0.9 12.4,1.4 13.6,2 z M 99.9,476.6 c 0.2,-0.1 0.3,0 0.3,0.2 0.2,1.6 0.9,8.6 -3.4,15.8 -4.2,7 -8.7,8.9 -9.9,9.3 -0.2,0.1 -0.3,0 -0.3,-0.3 -0.1,-1.7 -0.2,-9 3.1,-14.9 3.7,-6.5 9,-9.5 10.2,-10.1 z m -35.4,6.1 c -0.2,0 -0.3,0.1 -0.3,0.3 0.2,1.6 1.5,8.5 7.5,14.2 5.9,5.6 10.6,6.2 11.8,6.2 0.2,0 0.2,-0.1 0.2,-0.4 -0.2,-2.5 -0.5,-7.2 -6.9,-13.4 -5.2,-5.1 -10.9,-6.6 -12.3,-6.9 z m -1.7,-22.8 c -0.2,-0.1 -0.3,0 -0.3,0.2 0.1,1.5 0.8,8.4 6.2,14.4 5.3,5.9 9.9,6.9 11,7 0.2,0 0.3,-0.1 0.2,-0.3 0,-2.5 0,-7.1 -5.7,-13.6 -4.6,-5.4 -10.1,-7.3 -11.4,-7.7 z m 35.9,-2.2 c 0.2,-0.1 0.3,0 0.3,0.2 0.1,1.6 0,8.5 -5,15.1 -4.8,6.4 -9.4,7.8 -10.6,8 -0.2,0 -0.3,-0.1 -0.3,-0.3 0.1,-1.7 0.7,-8.8 4.5,-14.2 4.3,-6 9.8,-8.3 11.1,-8.8 z m -0.8,-20.9 c 0.2,-0.1 0.3,0 0.3,0.2 -0.1,1.5 -0.6,8.2 -5.8,14.3 -5.1,5.9 -9.6,6.9 -10.8,7.1 -0.2,0 -0.3,-0.1 -0.3,-0.3 0.2,-1.6 1.3,-8.5 5.3,-13.4 4.6,-5.5 10,-7.5 11.3,-7.9 z m 3.6,-19.2 c 0.2,0 0.3,0.1 0.3,0.3 -0.2,1.5 -1.6,8 -7.5,13.3 -5.8,5.1 -10.3,5.6 -11.5,5.6 -0.2,0 -0.3,-0.1 -0.2,-0.4 0.4,-1.6 2.3,-8.1 6.9,-12.5 5.1,-4.8 10.7,-6 12,-6.3 z m 6.5,-17.9 c 0.2,0 0.3,0.1 0.2,0.3 -0.4,1.4 -2.6,7.7 -9,12.3 -6.3,4.4 -10.7,4.4 -11.9,4.3 -0.2,0 -0.2,-0.2 -0.2,-0.4 0.6,-1.5 3.3,-7.8 8.3,-11.6 5.7,-4.2 11.3,-4.8 12.6,-4.9 z m 9.1,-17.3 c 0.2,0 0.3,0.1 0.2,0.3 -0.7,1.3 -3.8,7.2 -11,10.6 -7,3.3 -11.5,2.4 -12.6,2.1 -0.2,-0.1 -0.2,-0.2 -0.1,-0.4 0.8,-1.4 4.6,-7.1 10.2,-10 6.2,-3.2 11.9,-2.8 13.3,-2.6 z m 8.3,-14.7 c 0.2,0 0.2,0.2 0.1,0.3 -0.8,1.3 -4.5,7 -12.1,9.7 -7.4,2.7 -11.9,1.4 -13,1 -0.2,-0.1 -0.2,-0.2 -0.1,-0.4 1,-1.3 5.3,-6.9 11.3,-9.3 6.7,-2.5 12.5,-1.6 13.8,-1.3 z m 10.4,-15.9 c 0.2,0.1 0.2,0.2 0.1,0.4 -0.9,1.2 -5.2,6.5 -13.1,8.5 -7.6,1.9 -11.9,0.2 -13,-0.3 -0.2,-0.1 -0.2,-0.2 0,-0.4 1.1,-1.2 6,-6.3 12.2,-8.1 6.9,-2.1 12.5,-0.6 13.8,-0.1 z m 9.9,-16.8 c 0.2,0.1 0.2,0.2 0.1,0.4 -0.9,1.2 -5.3,6.5 -13.2,8.5 -7.7,1.9 -12.1,0.2 -13.1,-0.4 -0.2,-0.1 -0.2,-0.2 0,-0.4 1.1,-1.2 6,-6.3 12.3,-8.1 6.9,-2 12.6,-0.4 13.9,0 z m 14.1,-14.2 c 0.2,0.1 0.2,0.2 0.1,0.4 -1,1.1 -5.7,6 -13.7,7.4 -7.8,1.3 -11.9,-0.8 -12.9,-1.4 -0.2,-0.1 -0.2,-0.3 0,-0.4 1.2,-1.1 6.4,-5.8 12.8,-7.1 7,-1.4 12.5,0.6 13.7,1.1 z m 14.3,-13.4 c 0.2,0.1 0.2,0.2 0,0.4 -1.1,1.1 -6.1,5.6 -14,6.3 -7.8,0.7 -11.7,-1.6 -12.7,-2.3 -0.2,-0.1 -0.1,-0.3 0,-0.4 1.3,-1 6.8,-5.3 13.1,-6.1 7.1,-0.9 12.4,1.5 13.6,2.1 z m -5.2,-19.2 c -0.1,0.4 0.1,0.6 0.4,0.5 1.8,-0.1 7.5,-0.6 13.3,-4.5 6,-4 8.2,-9 8.7,-10.3 0.1,-0.2 0,-0.3 -0.3,-0.4 -1.7,-0.1 -8.3,-0.4 -14.4,4 -5.8,4.3 -7.3,9.1 -7.7,10.7 z M 64.5,434.8 c -0.2,-0.1 -0.3,0 -0.3,0.2 -0.2,1.5 -1,8.2 3,15.1 3.9,6.7 8.1,8.6 9.2,9 0.2,0.1 0.3,0 0.3,-0.3 0.5,-2.4 1.5,-6.8 -2.7,-14.2 -3.5,-6.2 -8.3,-9.2 -9.5,-9.8 z m 4.2,-23.2 c -0.2,-0.1 -0.3,-0.1 -0.3,0.1 -0.4,1.5 -1.7,8.1 1.7,15.3 3.3,7.1 7.3,9.3 8.3,9.7 0.2,0.1 0.3,0 0.3,-0.2 0.7,-2.3 2,-6.6 -1.4,-14.4 -2.9,-6.4 -7.5,-9.8 -8.6,-10.5 z M 76.3,390 c -0.1,-0.1 -0.3,-0.1 -0.3,0.1 -0.5,1.4 -2.7,7.6 -0.3,15.1 2.3,7.3 5.9,9.9 6.9,10.5 0.2,0.1 0.3,0 0.4,-0.2 1,-2.2 2.8,-6.2 0.4,-14.2 -2.1,-6.5 -6.1,-10.4 -7.1,-11.3 z m 8.6,-21.6 c -0.1,-0.1 -0.3,-0.1 -0.3,0.1 -0.6,1.4 -3.2,7.6 -1.5,15.3 1.7,7.6 5.1,10.5 6,11.2 0.2,0.1 0.3,0 0.4,-0.2 1.1,-2.1 3.3,-6.1 1.5,-14.4 -1.5,-6.9 -5.2,-11.1 -6.1,-12 z m 11.3,-18.8 c -0.1,-0.2 -0.2,-0.1 -0.4,0 -0.8,1.3 -4.3,7 -3.7,14.9 0.6,7.7 3.5,11.1 4.3,11.9 0.1,0.1 0.2,0.1 0.4,-0.1 1.4,-2 4.2,-5.5 3.7,-14 -0.5,-6.9 -3.6,-11.6 -4.3,-12.7 z m 11.3,-18.4 c -0.1,-0.2 -0.2,-0.2 -0.4,0 -0.9,1.2 -4.6,6.8 -4.4,14.8 0.2,7.7 3,11.3 3.8,12.1 0.1,0.1 0.2,0.1 0.4,-0.1 1.5,-1.9 4.4,-5.3 4.3,-13.8 -0.1,-7 -2.9,-11.9 -3.7,-13 z m 12,-18.1 c -0.1,-0.2 -0.2,-0.2 -0.4,0 -0.9,1.2 -4.9,6.7 -4.9,14.6 0,7.7 2.6,11.4 3.4,12.2 0.1,0.1 0.2,0.1 0.4,-0.1 1.6,-1.8 4.6,-5.2 4.7,-13.7 0.2,-6.9 -2.5,-11.9 -3.2,-13 z m 14.7,-16.4 c -0.1,-0.2 -0.2,-0.2 -0.4,0 -1,1.1 -5.5,6.3 -6.2,14.3 -0.7,7.8 1.6,11.7 2.3,12.6 0.1,0.2 0.2,0.1 0.4,-0.1 1.8,-1.7 5.1,-4.8 6,-13.3 0.7,-7.2 -1.5,-12.3 -2.1,-13.5 z m 14.3,-14.4 c -0.1,-0.2 -0.2,-0.2 -0.4,0 -1.1,1.1 -5.6,6.2 -6.4,14.2 -0.8,7.8 1.5,11.7 2.1,12.7 0.1,0.2 0.2,0.1 0.4,0 1.8,-1.7 5.1,-4.7 6.2,-13.2 0.9,-7.3 -1.3,-12.5 -1.9,-13.7 z m 17.9,-11.6 c 0,-0.2 -0.2,-0.2 -0.3,-0.1 -1.3,0.9 -6.7,5 -9.1,12.6 -2.3,7.5 -0.9,11.8 -0.4,12.8 0.1,0.2 0.2,0.2 0.4,0 2.1,-1.3 6,-3.6 8.6,-11.8 2.3,-6.6 1.2,-12.2 0.8,-13.5 z m 220.7,23.5 c -0.2,0.1 -0.2,0.2 0,0.4 1.1,1.1 6.1,5.6 14,6.4 7.8,0.8 11.7,-1.6 12.7,-2.3 0.2,-0.1 0.1,-0.3 0,-0.4 -1.3,-1 -6.8,-5.3 -13.1,-6.1 -7.1,-0.9 -12.4,1.4 -13.6,2 z m 85.5,182.4 c -0.2,-0.1 -0.3,0 -0.3,0.2 -0.2,1.6 -0.9,8.6 3.4,15.8 4.2,7 8.7,8.9 9.9,9.3 0.2,0.1 0.3,0 0.3,-0.3 0.1,-1.7 0.2,-9 -3.1,-14.9 -3.6,-6.5 -8.9,-9.5 -10.2,-10.1 z m 35.4,6.1 c 0.2,0 0.3,0.1 0.3,0.3 -0.2,1.6 -1.5,8.5 -7.5,14.2 -5.9,5.6 -10.6,6.2 -11.8,6.2 -0.2,0 -0.2,-0.1 -0.2,-0.4 0.2,-2.5 0.5,-7.2 6.9,-13.4 5.2,-5.1 10.9,-6.6 12.3,-6.9 z m 1.8,-22.8 c 0.2,-0.1 0.3,0 0.3,0.2 -0.1,1.5 -0.8,8.4 -6.2,14.4 -5.3,5.9 -9.9,6.9 -11,7 -0.2,0 -0.2,-0.1 -0.2,-0.3 0,-2.5 0,-7.1 5.7,-13.6 4.6,-5.4 10,-7.3 11.4,-7.7 z m -35.9,-2.2 c -0.2,-0.1 -0.3,0 -0.3,0.2 -0.1,1.6 0,8.5 5,15.1 4.8,6.4 9.4,7.8 10.6,8 0.2,0 0.3,-0.1 0.3,-0.3 -0.1,-1.7 -0.7,-8.8 -4.5,-14.2 -4.4,-6 -9.8,-8.3 -11.1,-8.8 z m 0.7,-20.9 c -0.2,-0.1 -0.3,0 -0.3,0.2 0.1,1.5 0.6,8.2 5.8,14.3 5.1,5.9 9.6,6.9 10.8,7.1 0.2,0 0.3,-0.1 0.3,-0.3 -0.2,-1.6 -1.3,-8.5 -5.3,-13.4 -4.5,-5.5 -10,-7.5 -11.3,-7.9 z M 471,417.6 c -0.2,0 -0.3,0.1 -0.3,0.3 0.2,1.5 1.6,8 7.5,13.3 5.8,5.1 10.3,5.6 11.5,5.6 0.2,0 0.3,-0.1 0.2,-0.4 -0.4,-1.6 -2.3,-8.1 -6.9,-12.5 -5.1,-4.8 -10.6,-6 -12,-6.3 z m -6.5,-17.9 c -0.2,0 -0.3,0.1 -0.2,0.3 0.4,1.4 2.6,7.7 9,12.3 6.3,4.4 10.7,4.4 11.9,4.3 0.2,0 0.2,-0.2 0.2,-0.4 -0.6,-1.5 -3.3,-7.8 -8.3,-11.6 -5.7,-4.2 -11.3,-4.8 -12.6,-4.9 z m -9,-17.3 c -0.2,0 -0.3,0.1 -0.2,0.3 0.7,1.3 3.8,7.2 11,10.6 7,3.3 11.5,2.4 12.6,2.1 0.2,-0.1 0.2,-0.2 0.1,-0.4 -0.8,-1.4 -4.6,-7.1 -10.2,-10 -6.3,-3.2 -12,-2.8 -13.3,-2.6 z m -8.4,-14.7 c -0.2,0 -0.2,0.2 -0.1,0.3 0.8,1.3 4.5,7 12.1,9.7 7.4,2.7 11.9,1.4 13,1 0.2,-0.1 0.2,-0.2 0.1,-0.4 -1,-1.3 -5.3,-6.9 -11.3,-9.3 -6.7,-2.5 -12.4,-1.6 -13.8,-1.3 z m -10.4,-15.9 c -0.2,0.1 -0.2,0.2 -0.1,0.4 0.9,1.2 5.2,6.5 13.1,8.5 7.6,1.9 11.9,0.2 13,-0.3 0.2,-0.1 0.2,-0.2 0,-0.4 -1.1,-1.2 -6,-6.3 -12.2,-8.1 -6.9,-2.1 -12.5,-0.6 -13.8,-0.1 z M 426.8,335 c -0.2,0.1 -0.2,0.2 -0.1,0.4 0.9,1.2 5.3,6.5 13.2,8.5 7.7,1.9 12.1,0.2 13.1,-0.4 0.2,-0.1 0.2,-0.2 0,-0.4 -1.1,-1.2 -6,-6.3 -12.3,-8.1 -6.8,-2 -12.5,-0.4 -13.9,0 z m -14.1,-14.2 c -0.2,0.1 -0.2,0.2 -0.1,0.4 1,1.1 5.7,6 13.7,7.4 7.8,1.3 11.9,-0.8 12.9,-1.4 0.2,-0.1 0.2,-0.3 0,-0.4 -1.2,-1.1 -6.4,-5.8 -12.8,-7.1 -6.9,-1.4 -12.4,0.6 -13.7,1.1 z m -14.3,-13.4 c -0.2,0.1 -0.2,0.2 0,0.4 1.1,1.1 6.1,5.6 14,6.3 7.8,0.7 11.7,-1.6 12.7,-2.3 0.2,-0.1 0.1,-0.3 0,-0.4 -1.3,-1 -6.8,-5.3 -13.1,-6.1 -7.1,-0.9 -12.3,1.5 -13.6,2.1 z m 5.2,-19.2 c 0.1,0.4 -0.1,0.6 -0.4,0.5 -1.8,-0.1 -7.5,-0.6 -13.3,-4.5 -6,-4 -8.2,-9 -8.7,-10.3 -0.1,-0.2 0,-0.3 0.3,-0.4 1.7,-0.1 8.3,-0.4 14.4,4 5.8,4.3 7.4,9.1 7.7,10.7 z m 104.5,146.6 c 0.2,-0.1 0.3,0 0.3,0.2 0.2,1.5 1,8.2 -3,15.1 -3.9,6.7 -8.1,8.6 -9.2,9 -0.2,0.1 -0.3,0 -0.3,-0.3 -0.5,-2.4 -1.5,-6.8 2.7,-14.2 3.4,-6.2 8.3,-9.2 9.5,-9.8 z m -4.2,-23.2 c 0.2,-0.1 0.3,-0.1 0.3,0.1 0.4,1.5 1.7,8.1 -1.7,15.3 -3.3,7.1 -7.3,9.3 -8.3,9.7 -0.2,0.1 -0.3,0 -0.3,-0.2 -0.7,-2.3 -2,-6.6 1.4,-14.4 2.9,-6.4 7.5,-9.8 8.6,-10.5 z M 496.3,390 c 0.1,-0.1 0.3,-0.1 0.3,0.1 0.5,1.4 2.7,7.6 0.3,15.1 -2.3,7.3 -5.9,9.9 -6.9,10.5 -0.2,0.1 -0.3,0 -0.4,-0.2 -1,-2.2 -2.8,-6.2 -0.4,-14.2 2,-6.5 6,-10.4 7.1,-11.3 z m -8.6,-21.6 c 0.1,-0.1 0.3,-0.1 0.3,0.1 0.6,1.4 3.2,7.6 1.5,15.3 -1.7,7.6 -5.1,10.5 -6,11.2 -0.2,0.1 -0.3,0 -0.4,-0.2 -1.1,-2.1 -3.3,-6.1 -1.5,-14.4 1.4,-6.9 5.1,-11.1 6.1,-12 z m -11.3,-18.8 c 0.1,-0.2 0.2,-0.1 0.4,0 0.8,1.3 4.3,7 3.7,14.9 -0.6,7.7 -3.5,11.1 -4.3,11.9 -0.1,0.1 -0.2,0.1 -0.4,-0.1 -1.4,-2 -4.2,-5.5 -3.7,-14 0.5,-6.9 3.5,-11.6 4.3,-12.7 z M 465,331.2 c 0.1,-0.2 0.2,-0.2 0.4,0 0.9,1.2 4.6,6.8 4.4,14.8 -0.2,7.7 -3,11.3 -3.8,12.1 -0.1,0.1 -0.2,0.1 -0.4,-0.1 -1.5,-1.9 -4.4,-5.3 -4.3,-13.8 0.2,-7 3,-11.9 3.7,-13 z m -12,-18.1 c 0.1,-0.2 0.2,-0.2 0.4,0 0.9,1.2 4.9,6.7 4.9,14.6 0,7.7 -2.6,11.4 -3.4,12.2 -0.1,0.1 -0.2,0.1 -0.4,-0.1 -1.6,-1.8 -4.6,-5.2 -4.7,-13.7 -0.1,-6.9 2.5,-11.9 3.2,-13 z m -14.6,-16.4 c 0.1,-0.2 0.2,-0.2 0.4,0 1,1.1 5.5,6.3 6.2,14.3 0.7,7.8 -1.6,11.7 -2.3,12.6 -0.1,0.2 -0.2,0.1 -0.4,-0.1 -1.8,-1.7 -5.1,-4.8 -6,-13.3 -0.8,-7.2 1.5,-12.3 2.1,-13.5 z M 424,282.3 c 0.1,-0.2 0.2,-0.2 0.4,0 1.1,1.1 5.6,6.2 6.4,14.2 0.8,7.8 -1.5,11.7 -2.1,12.7 -0.1,0.2 -0.2,0.1 -0.4,0 -1.8,-1.7 -5.1,-4.7 -6.2,-13.2 -0.8,-7.3 1.3,-12.5 1.9,-13.7 z m -17.9,-11.6 c 0,-0.2 0.2,-0.2 0.3,-0.1 1.3,0.9 6.7,5 9.1,12.6 2.3,7.5 0.9,11.8 0.4,12.8 -0.1,0.2 -0.2,0.2 -0.4,0 -2.1,-1.3 -6,-3.6 -8.6,-11.8 -2.2,-6.6 -1.2,-12.2 -0.8,-13.5 z" class="st2" inkscape:connector-curvature="0" style="fill:#b48b13"/>
      </g>
      <path id="Layer_3" d="m 285.9,8.6 8.1,26 28,0.3 -21.1,17.6 7.3,24.9 -22.3,-14.8 -22.4,14.8 7.3,-24.9 -21.1,-17.6 28,-0.3 z" class="st3" inkscape:connector-curvature="0" style="fill:#d59f0f"/>
    </g>
  </g>
  <style id="style64">.st0{fill:#fff}.st1{fill:#0078bf}.st2{fill:#b48b13}.st3{fill:#d59f0f}</style>
</svg>