<?xml version="1.0" encoding="UTF-8" standalone="no"?>
<svg xmlns:dc="http://purl.org/dc/elements/1.1/" xmlns:cc="http://creativecommons.org/ns#" xmlns:rdf="http://www.w3.org/1999/02/22-rdf-syntax-ns#" xmlns:svg="http://www.w3.org/2000/svg" xmlns="http://www.w3.org/2000/svg" xmlns:sodipodi="http://sodipodi.sourceforge.net/DTD/sodipodi-0.dtd" xmlns:inkscape="http://www.inkscape.org/namespaces/inkscape" inkscape:version="1.0 (4035a4f, 2020-05-01)" sodipodi:docname="88.svg" id="svg4719" height="200.0pt" width="200.0pt" viewBox="0 0 200 200" version="1.1">
  <metadata id="metadata4725">
    <rdf:RDF>
      <cc:Work rdf:about="">
        <dc:format>image/svg+xml</dc:format>
        <dc:type rdf:resource="http://purl.org/dc/dcmitype/StillImage"/>
      </cc:Work>
    </rdf:RDF>
  </metadata>
  <defs id="defs4723"/>
  <sodipodi:namedview inkscape:current-layer="svg4719" inkscape:cy="133.33333" inkscape:cx="133.33333" inkscape:zoom="1.75125" showgrid="false" id="namedview4721" inkscape:window-height="480" inkscape:window-width="640" inkscape:pageshadow="2" inkscape:pageopacity="0" guidetolerance="10" gridtolerance="10" objecttolerance="10" borderopacity="1" bordercolor="#666666" pagecolor="#ffffff"/>
  <path style="fill:#ffffff;fill-opacity:0" id="path4639" fill="#ffffff" d="M 0.00 0.00 L 86.30 0.00 C 84.64 0.49 82.97 0.33 82.25 2.21 C 81.59 5.45 81.37 9.38 82.46 12.55 C 83.67 15.63 86.16 16.84 89.02 18.06 C 91.17 18.54 90.81 21.32 90.97 23.02 C 90.80 30.81 83.76 37.11 75.98 36.26 C 68.81 35.57 63.28 29.16 63.77 21.94 C 63.96 16.85 66.92 13.54 70.69 10.52 C 69.62 8.46 68.57 6.39 67.52 4.31 C 53.21 8.47 40.26 16.12 31.14 28.09 C 21.25 40.94 17.21 56.94 17.74 73.00 C 18.49 92.48 25.17 111.07 34.49 128.02 C 32.97 130.90 31.65 133.65 31.89 137.02 C 32.00 142.45 35.71 147.36 40.77 149.21 C 43.30 150.18 45.86 149.92 48.54 149.97 C 60.56 166.17 74.56 180.98 89.66 194.33 C 92.50 196.70 96.11 199.92 100.00 199.91 C 103.85 199.86 107.49 196.66 110.31 194.30 C 125.35 180.91 139.38 166.20 151.35 149.97 C 156.69 150.35 161.52 149.35 165.01 145.02 C 169.25 139.83 168.79 133.50 165.44 127.98 C 174.80 111.04 181.36 92.48 182.20 73.01 C 182.67 57.24 178.81 41.48 169.27 28.73 C 160.14 16.44 146.98 8.54 132.41 4.32 C 131.36 6.38 130.31 8.44 129.24 10.49 C 132.06 12.89 134.62 15.19 135.64 18.90 C 137.83 25.78 133.64 33.50 126.80 35.65 C 120.90 37.65 114.27 35.13 111.03 29.87 C 108.97 26.63 108.53 22.43 109.57 18.78 C 112.31 17.19 115.07 16.72 116.81 13.79 C 118.69 10.59 118.29 5.94 117.69 2.42 C 117.17 0.36 115.46 0.55 113.78 0.00 L 200.00 0.00 L 200.00 200.00 L 0.00 200.00 L 0.00 0.00 Z"/>
  <path id="path4641" fill="#000000" d="M 86.30 0.00 L 92.30 0.00 C 95.52 0.81 97.37 3.09 99.97 4.88 C 102.59 3.03 104.45 0.74 107.75 0.00 L 113.78 0.00 C 115.46 0.55 117.17 0.36 117.69 2.42 C 118.29 5.94 118.69 10.59 116.81 13.79 C 115.07 16.72 112.31 17.19 109.57 18.78 C 108.53 22.43 108.97 26.63 111.03 29.87 C 114.27 35.13 120.90 37.65 126.80 35.65 C 133.64 33.50 137.83 25.78 135.64 18.90 C 134.62 15.19 132.06 12.89 129.24 10.49 C 130.31 8.44 131.36 6.38 132.41 4.32 C 146.98 8.54 160.14 16.44 169.27 28.73 C 178.81 41.48 182.67 57.24 182.20 73.01 C 181.36 92.48 174.80 111.04 165.44 127.98 C 168.79 133.50 169.25 139.83 165.01 145.02 C 161.52 149.35 156.69 150.35 151.35 149.97 C 139.38 166.20 125.35 180.91 110.31 194.30 C 107.49 196.66 103.85 199.86 100.00 199.91 C 96.11 199.92 92.50 196.70 89.66 194.33 C 74.56 180.98 60.56 166.17 48.54 149.97 C 45.86 149.92 43.30 150.18 40.77 149.21 C 35.71 147.36 32.00 142.45 31.89 137.02 C 31.65 133.65 32.97 130.90 34.49 128.02 C 25.17 111.07 18.49 92.48 17.74 73.00 C 17.21 56.94 21.25 40.94 31.14 28.09 C 40.26 16.12 53.21 8.47 67.52 4.31 C 68.57 6.39 69.62 8.46 70.69 10.52 C 66.92 13.54 63.96 16.85 63.77 21.94 C 63.28 29.16 68.81 35.57 75.98 36.26 C 83.76 37.11 90.80 30.81 90.97 23.02 C 90.81 21.32 91.17 18.54 89.02 18.06 C 86.16 16.84 83.67 15.63 82.46 12.55 C 81.37 9.38 81.59 5.45 82.25 2.21 C 82.97 0.33 84.64 0.49 86.30 0.00 Z"/>
  <path id="path4643" fill="#ffffff" d="M 92.30 0.00 L 107.75 0.00 C 104.45 0.74 102.59 3.03 99.97 4.88 C 97.37 3.09 95.52 0.81 92.30 0.00 Z"/>
  <path id="path4645" fill="#9a9a9b" d="M 61.82 11.60 C 59.75 15.95 58.00 20.06 58.71 25.02 C 59.66 33.43 66.57 40.37 74.96 41.38 C 79.82 42.06 83.72 40.34 88.18 38.83 C 85.68 40.54 83.34 42.25 80.50 43.37 C 73.57 46.09 65.39 45.09 59.45 40.56 C 54.55 36.97 52.13 31.86 50.35 26.23 C 41.81 31.73 34.47 38.64 29.77 47.76 C 25.58 55.41 23.94 63.75 23.32 72.38 C 22.22 57.57 26.60 42.51 35.77 30.80 C 42.57 21.94 51.73 16.09 61.82 11.60 Z"/>
  <path id="path4647" fill="#9a9a9b" d="M 138.22 11.72 C 147.86 15.87 156.61 21.50 163.28 29.72 C 173.35 41.89 177.73 57.65 176.66 73.32 C 176.07 65.14 174.85 57.23 171.18 49.81 C 166.55 39.80 158.81 32.12 149.57 26.27 C 148.13 30.42 146.70 34.34 143.66 37.63 C 138.74 43.15 131.34 45.77 124.03 44.61 C 119.29 43.97 115.56 41.57 111.75 38.85 C 116.23 40.36 120.17 42.08 125.04 41.37 C 133.75 40.30 140.81 32.79 141.28 24.00 C 141.69 19.42 139.93 15.79 138.22 11.72 Z"/>
  <path id="path4649" fill="#dcb322" d="M 67.03 50.07 C 71.63 49.21 76.02 52.58 77.04 56.99 C 78.14 61.56 75.41 66.45 70.87 67.75 C 65.64 69.16 60.22 69.87 54.95 71.14 C 56.31 67.76 57.72 64.80 56.84 61.04 C 56.07 57.49 53.70 55.48 51.22 53.08 C 56.51 52.20 61.73 50.87 67.03 50.07 Z"/>
  <path id="path4651" fill="#dcb322" d="M 86.67 49.79 C 87.94 49.81 89.21 49.84 90.48 49.86 C 91.52 51.60 92.51 53.62 93.94 55.06 C 97.17 58.22 102.81 58.18 106.03 55.02 C 107.43 53.58 108.41 51.60 109.43 49.88 C 110.69 49.84 111.94 49.81 113.20 49.78 C 113.60 51.74 113.56 54.49 114.85 56.12 C 116.14 57.25 118.44 57.29 120.05 57.75 C 120.10 59.28 120.14 60.81 120.18 62.34 C 115.50 61.88 113.50 61.12 110.06 57.96 C 106.89 60.09 104.03 62.09 100.00 61.95 C 95.95 62.12 93.06 60.11 89.86 57.97 C 86.38 61.15 84.46 61.88 79.72 62.28 C 79.75 60.75 79.77 59.23 79.79 57.70 C 81.38 57.39 83.08 57.16 84.58 56.54 C 86.40 55.23 86.24 51.77 86.67 49.79 Z"/>
  <path id="path4653" fill="#dcb322" d="M 132.97 50.08 C 138.23 50.90 143.42 52.19 148.68 53.07 C 146.23 55.50 143.85 57.50 143.05 61.03 C 142.16 64.80 143.60 67.76 144.96 71.15 C 139.72 69.88 134.33 69.17 129.12 67.76 C 124.85 66.57 122.18 62.33 122.73 57.95 C 123.23 53.06 128.04 49.12 132.97 50.08 Z"/>
  <path id="path4655" fill="#dcb322" d="M 51.29 56.68 C 54.90 59.63 55.56 65.13 52.89 68.92 C 51.16 71.44 48.23 72.21 45.55 73.33 C 45.47 71.86 45.40 70.40 45.33 68.93 C 47.04 67.65 49.96 66.49 49.95 63.98 C 50.22 60.87 47.17 58.43 44.18 59.23 C 39.72 60.38 36.90 65.40 35.66 69.51 C 33.62 76.62 33.60 84.46 34.21 91.79 C 35.84 108.02 42.67 124.01 51.21 137.80 C 61.61 154.63 75.28 169.83 89.86 183.16 C 92.28 185.39 94.62 187.86 97.31 189.76 C 98.63 190.62 99.89 191.32 101.43 190.44 C 104.68 188.63 107.35 185.60 110.11 183.13 C 118.80 175.12 127.04 166.67 134.54 157.53 C 147.32 141.93 158.63 123.52 163.57 103.81 C 166.19 93.57 167.01 82.39 164.90 71.99 C 163.86 67.24 161.39 61.43 156.56 59.48 C 153.37 58.09 149.73 60.46 149.95 63.98 C 149.93 66.46 152.91 67.67 154.60 68.95 C 154.54 70.40 154.47 71.86 154.40 73.31 C 151.40 72.10 148.42 71.36 146.68 68.36 C 144.05 64.04 145.52 58.35 149.86 55.81 C 154.91 52.96 161.10 55.17 164.25 59.75 C 168.78 66.13 169.81 75.39 170.11 82.99 C 170.36 102.75 162.83 122.02 152.74 138.72 C 140.23 159.33 124.02 176.21 106.08 192.13 C 104.20 193.63 101.55 195.89 98.98 195.29 C 95.42 194.11 92.41 190.79 89.63 188.36 C 77.01 176.87 65.25 164.65 55.22 150.81 C 45.46 137.35 37.24 122.34 32.88 106.22 C 29.86 95.19 28.92 83.24 30.95 71.95 C 31.94 66.94 33.74 61.15 37.59 57.58 C 41.24 54.15 47.31 53.34 51.29 56.68 Z"/>
  <path id="path4657" fill="#014a99" d="M 45.92 60.90 C 47.29 61.56 47.83 62.68 48.40 64.01 C 46.99 65.58 45.23 66.13 43.38 67.04 C 43.40 69.67 43.44 72.30 43.49 74.93 C 48.41 74.33 53.28 73.45 58.15 72.49 C 58.14 80.89 58.17 89.30 58.11 97.70 C 51.34 99.11 44.54 100.41 37.77 101.82 C 35.69 91.66 34.71 80.49 37.44 70.37 C 38.59 66.37 41.25 61.29 45.92 60.90 Z"/>
  <path id="path4659" fill="#014a99" d="M 89.68 60.77 C 93.03 62.05 96.31 64.01 100.00 63.94 C 103.73 63.98 106.86 62.20 110.14 60.65 C 110.97 61.28 111.80 61.91 112.63 62.54 C 112.63 70.65 112.63 78.76 112.63 86.88 C 104.20 88.58 95.76 90.25 87.33 91.94 C 87.43 82.14 87.11 72.30 87.45 62.51 C 88.18 61.90 88.92 61.32 89.68 60.77 Z"/>
  <path id="path4661" fill="#014a99" d="M 158.70 63.30 C 162.04 66.77 162.87 72.06 163.97 76.56 C 156.64 78.23 149.23 79.60 141.85 81.07 C 141.84 78.21 141.83 75.35 141.82 72.48 C 146.66 73.46 151.52 74.33 156.43 74.92 C 156.47 72.27 156.51 69.63 156.54 66.99 C 154.96 66.29 153.39 65.66 151.89 64.78 C 151.92 63.91 152.02 63.06 152.20 62.24 C 154.30 59.77 156.86 61.55 158.70 63.30 Z"/>
  <path id="path4663" fill="#c90b2f" d="M 78.61 63.84 C 80.87 63.82 83.12 63.79 85.37 63.74 C 85.33 73.27 85.35 82.79 85.37 92.32 C 76.95 94.01 68.53 95.65 60.11 97.35 C 60.14 88.92 60.12 80.49 60.12 72.06 C 63.95 71.27 67.92 70.74 71.64 69.54 C 74.75 68.53 76.49 66.15 78.61 63.84 Z"/>
  <path id="path4665" fill="#c90b2f" d="M 114.57 63.74 C 116.81 63.79 119.04 63.81 121.28 63.82 C 123.43 66.17 125.17 68.54 128.35 69.55 C 132.06 70.75 136.01 71.28 139.83 72.07 C 139.84 75.21 139.84 78.34 139.85 81.47 C 131.43 83.17 123.00 84.81 114.59 86.51 C 114.60 78.92 114.61 71.33 114.57 63.74 Z"/>
  <path id="path4667" fill="#ffffff" d="M 164.03 78.68 C 164.32 85.91 163.93 93.04 162.50 100.14 C 123.53 107.96 84.52 115.58 45.57 123.48 C 42.51 117.07 40.12 110.53 38.25 103.69 C 80.17 95.37 122.12 86.98 164.03 78.68 Z"/>
  <path id="path4669" fill="#000000" d="M 141.47 85.51 C 143.70 84.91 146.66 83.98 148.87 84.97 C 150.85 88.11 149.93 93.27 149.83 96.86 C 149.10 101.17 144.72 100.93 141.38 101.96 C 141.42 96.49 141.15 90.97 141.47 85.51 Z"/>
  <path id="path4671" fill="#000000" d="M 133.59 86.93 C 133.54 91.46 133.87 96.08 133.45 100.59 C 132.80 103.97 129.01 105.32 125.99 104.14 C 123.92 99.75 125.28 93.59 124.90 88.78 C 125.85 88.54 126.80 88.31 127.75 88.07 C 128.09 92.77 126.85 98.37 128.74 102.74 C 129.42 102.15 130.06 101.52 130.64 100.84 C 131.08 96.46 130.73 91.97 130.81 87.56 C 131.74 87.35 132.66 87.14 133.59 86.93 Z"/>
  <path id="path4673" fill="#ffffff" d="M 144.38 87.23 L 146.45 86.58 C 147.48 89.54 147.22 93.03 147.09 96.12 C 147.22 97.82 145.47 98.60 144.47 99.69 C 144.17 95.57 144.01 91.36 144.38 87.23 Z"/>
  <path id="path4675" fill="#000000" d="M 109.96 91.67 C 112.69 91.15 115.42 90.63 118.19 90.35 C 116.97 93.24 115.23 93.02 112.63 93.82 C 112.66 95.19 112.68 96.55 112.70 97.92 C 113.91 97.63 115.11 97.33 116.32 97.04 C 116.33 97.87 116.33 98.70 116.34 99.53 C 115.11 99.79 113.88 100.06 112.65 100.32 C 112.66 101.92 112.67 103.51 112.68 105.10 C 114.33 104.76 115.99 104.42 117.64 104.08 C 117.71 104.87 117.78 105.65 117.85 106.44 C 115.21 107.01 112.56 107.58 109.92 108.15 C 109.92 102.65 109.91 97.16 109.96 91.67 Z"/>
  <path id="path4677" fill="#000000" d="M 108.19 92.01 C 108.22 92.82 108.24 93.63 108.27 94.44 C 107.34 94.66 106.40 94.89 105.47 95.11 C 105.49 99.74 105.49 104.37 105.47 108.99 C 104.52 109.17 103.58 109.35 102.64 109.52 C 102.66 104.98 102.63 100.45 102.70 95.91 L 99.08 95.35 C 101.41 92.59 104.86 92.89 108.19 92.01 Z"/>
  <path id="path4679" fill="#000000" d="M 98.24 93.92 C 98.35 99.41 98.28 104.90 98.31 110.40 C 97.51 110.57 96.70 110.75 95.89 110.93 C 94.67 107.72 93.53 104.50 92.26 101.32 C 92.12 104.59 92.44 107.97 92.00 111.21 L 89.81 112.78 C 89.67 107.53 89.50 102.22 89.78 96.97 C 90.19 96.08 90.90 95.23 91.89 94.42 C 93.24 97.51 94.39 100.67 95.72 103.77 C 95.78 100.69 95.76 97.61 95.74 94.54 C 96.57 94.33 97.41 94.12 98.24 93.92 Z"/>
  <path id="path4681" fill="#000000" d="M 155.99 96.54 C 155.05 97.92 154.03 99.21 152.92 100.45 C 152.73 99.27 152.55 98.08 152.37 96.90 C 153.58 96.76 154.78 96.65 155.99 96.54 Z"/>
  <path id="path4683" fill="#000000" d="M 81.67 97.59 C 82.77 97.15 83.89 96.76 85.03 96.41 C 85.94 101.79 87.09 107.11 88.07 112.47 C 87.18 112.62 86.28 112.78 85.39 112.93 C 85.21 111.76 85.02 110.60 84.84 109.43 C 83.92 109.64 83.00 109.85 82.08 110.07 C 81.29 112.66 81.20 113.64 78.62 115.02 C 79.40 109.20 80.30 103.30 81.67 97.59 Z"/>
  <path id="path4685" fill="#000000" d="M 75.46 99.01 C 76.27 98.47 77.10 97.95 77.94 97.46 C 77.19 103.38 75.77 109.23 74.60 115.09 C 73.68 115.29 72.75 115.49 71.83 115.69 C 70.65 110.45 69.57 105.19 68.39 99.95 L 71.15 99.40 C 71.89 103.03 72.50 106.69 73.08 110.36 C 74.09 106.64 74.27 102.64 75.46 99.01 Z"/>
  <path id="path4687" fill="#000000" d="M 138.55 99.51 C 138.75 100.45 138.94 101.39 139.12 102.34 C 137.97 102.46 136.82 102.58 135.66 102.70 C 135.95 101.87 136.24 101.03 136.54 100.20 C 137.20 99.96 137.87 99.72 138.55 99.51 Z"/>
  <path id="path4689" fill="#000000" d="M 67.67 100.31 C 66.67 103.38 64.88 102.93 62.27 103.80 C 62.27 105.11 62.26 106.43 62.25 107.74 C 63.76 107.60 65.26 107.48 66.77 107.38 C 65.57 109.50 64.37 109.88 62.24 110.71 C 62.27 112.14 62.30 113.58 62.33 115.01 C 64.23 114.74 66.13 114.49 68.04 114.32 C 67.13 117.75 62.34 117.25 59.50 118.17 C 59.53 112.70 59.41 107.23 59.53 101.76 C 62.21 101.09 64.93 100.64 67.67 100.31 Z"/>
  <path id="path4691" fill="#ffffff" d="M 83.19 100.51 C 83.65 102.68 84.06 104.85 84.47 107.03 C 83.70 107.21 82.93 107.39 82.17 107.57 C 82.53 105.22 82.85 102.87 83.19 100.51 Z"/>
  <path id="path4693" fill="#014a99" d="M 162.05 102.25 C 158.13 117.60 150.95 131.72 141.89 144.64 C 141.77 131.85 141.84 119.06 141.85 106.27 C 148.58 104.91 155.31 103.57 162.05 102.25 Z"/>
  <path id="path4695" fill="#000000" d="M 53.34 102.86 C 53.35 107.49 53.37 112.11 53.30 116.74 C 55.09 116.56 56.87 116.41 58.66 116.29 C 57.21 119.58 53.46 119.06 50.53 119.96 C 50.51 114.48 50.53 109.00 50.51 103.52 C 51.45 103.30 52.40 103.08 53.34 102.86 Z"/>
  <path id="path4697" fill="#c90b2f" d="M 139.84 106.63 C 139.85 118.42 139.78 130.21 139.90 142.00 C 139.87 144.98 140.06 147.59 138.03 150.01 C 130.98 159.34 122.93 168.05 114.62 176.29 C 114.59 170.23 114.55 164.16 114.66 158.10 C 117.61 153.39 119.89 148.73 119.01 142.97 C 118.30 137.57 114.42 134.35 114.57 129.01 C 114.47 123.23 114.67 117.44 114.59 111.66 C 123.01 110.02 131.43 108.35 139.84 106.63 Z"/>
  <path id="path4699" fill="#014a99" d="M 112.63 112.06 C 112.63 118.31 112.58 124.55 112.71 130.80 C 108.68 128.34 104.90 126.15 100.00 126.25 C 95.08 126.14 91.31 128.32 87.24 130.74 C 87.33 126.21 87.33 121.68 87.32 117.15 C 95.75 115.40 104.19 113.77 112.63 112.06 Z"/>
  <path id="path4701" fill="#c90b2f" d="M 85.33 117.47 C 85.27 122.27 85.75 127.23 85.07 131.98 C 83.45 136.91 80.38 140.42 80.77 146.01 C 80.62 152.17 85.54 156.07 85.38 161.99 C 85.48 166.75 85.31 171.52 85.32 176.29 C 77.43 168.59 70.05 160.41 63.19 151.79 C 61.61 149.68 60.05 147.86 60.14 145.05 C 59.97 137.53 60.22 130.00 60.12 122.48 C 68.53 120.86 76.94 119.20 85.33 117.47 Z"/>
  <path id="path4703" fill="#014a99" d="M 58.13 122.97 C 58.14 130.19 58.19 137.41 58.08 144.63 C 53.67 138.48 49.85 131.99 46.41 125.25 C 50.31 124.45 54.22 123.69 58.13 122.97 Z"/>
  <path id="path4705" fill="#dcb322" d="M 97.95 127.84 C 96.94 131.24 96.95 132.97 98.30 136.28 C 97.78 137.76 97.00 139.40 97.01 140.98 C 97.43 142.91 98.44 144.79 99.23 146.59 C 97.87 147.89 96.61 149.16 94.95 150.10 C 92.27 149.51 90.89 147.37 90.14 144.89 C 88.93 140.53 89.35 135.44 91.49 131.42 C 92.22 129.91 94.28 129.40 95.71 128.73 C 96.46 128.43 97.21 128.13 97.95 127.84 Z"/>
  <path id="path4707" fill="#dcb322" d="M 101.96 128.71 C 105.82 128.61 109.73 130.95 112.39 133.62 C 115.16 136.45 116.17 139.86 117.51 143.47 C 114.54 140.91 111.96 138.24 108.27 136.70 C 105.52 135.55 102.49 135.62 99.57 135.45 C 99.08 134.06 98.54 132.76 98.31 131.29 C 98.86 129.57 100.21 128.83 101.96 128.71 Z"/>
  <path id="path4709" fill="#dcb322" d="M 89.57 131.23 C 88.71 134.89 87.70 138.21 88.10 142.05 C 88.44 145.33 90.01 148.01 91.45 150.90 C 89.80 152.36 88.84 154.65 86.26 153.82 C 82.83 151.83 82.50 146.43 82.98 142.97 C 83.55 138.04 86.42 134.78 89.57 131.23 Z"/>
  <path id="path4711" fill="#dcb322" d="M 100.32 137.34 C 105.89 135.77 112.54 139.91 115.76 144.30 C 117.66 146.34 116.35 149.92 116.24 152.45 C 113.74 150.01 112.22 149.11 108.75 148.44 C 107.60 147.26 106.42 145.71 104.92 144.99 C 103.34 144.64 101.68 144.63 100.06 144.45 C 98.45 142.10 96.98 139.01 100.32 137.34 Z"/>
  <path id="path4713" fill="#dcb322" d="M 101.09 145.72 C 102.95 146.25 105.99 146.12 106.63 148.38 C 107.16 150.63 105.73 152.69 104.27 154.26 C 100.94 157.70 95.92 159.87 91.11 159.74 C 89.14 159.00 87.49 157.22 85.84 155.93 C 89.15 155.01 90.56 154.19 92.76 151.60 C 94.28 151.21 95.92 150.95 97.35 150.28 C 98.87 149.11 99.95 147.24 101.09 145.72 Z"/>
  <path id="path4715" fill="#dcb322" d="M 108.86 150.73 C 110.60 149.70 112.79 150.67 113.91 152.21 C 114.59 156.43 110.32 159.56 106.95 161.08 C 102.36 163.25 97.99 162.48 93.16 161.86 C 96.44 160.47 100.31 159.31 103.14 157.13 C 105.53 155.29 106.83 152.80 108.86 150.73 Z"/>
  <path id="path4717" fill="#014a99" d="M 87.26 160.12 C 91.30 162.55 95.12 164.68 100.00 164.57 C 104.86 164.66 108.68 162.53 112.69 160.09 C 112.58 164.73 112.73 169.38 112.69 174.02 C 112.55 175.99 112.79 177.72 111.33 179.24 C 107.98 183.03 103.85 186.20 99.97 189.42 C 95.83 185.85 90.59 182.34 87.63 177.71 C 86.80 171.97 87.55 165.94 87.26 160.12 Z"/>
</svg>