<?xml version="1.0" encoding="UTF-8" standalone="no"?>
<!DOCTYPE svg PUBLIC "-//W3C//DTD SVG 1.1//EN" "http://www.w3.org/Graphics/SVG/1.1/DTD/svg11.dtd">
<svg xmlns="http://www.w3.org/2000/svg" version="1.1" viewBox="0 0 200 200" width="200.0pt" height="200.0pt">
<path d="M 0.00 0.00 L 99.58 0.00 C 99.25 2.50 100.05 2.92 97.12 3.11 L 96.98 3.77 C 98.28 3.80 99.23 4.20 99.85 4.97 C 97.32 7.21 96.11 7.42 96.57 11.17 L 95.34 11.35 L 94.67 10.10 L 93.90 10.11 L 93.03 10.12 C 90.63 9.82 88.16 11.22 86.08 10.31 C 83.99 12.26 82.51 10.39 80.31 12.02 C 79.29 11.13 78.32 11.16 77.42 12.13 L 76.93 12.39 C 73.79 12.37 73.63 14.96 70.36 14.18 L 69.15 15.25 C 67.01 15.09 65.43 16.34 63.22 16.26 C 61.53 18.06 58.60 15.07 58.26 18.52 C 57.42 18.82 56.49 18.91 55.47 18.80 C 54.02 19.77 54.01 20.62 53.86 22.29 C 52.73 22.19 51.86 22.45 51.23 23.08 C 51.42 24.17 51.47 25.24 51.38 26.30 C 50.53 26.86 49.75 27.48 49.03 28.14 C 48.83 29.86 49.33 30.41 50.32 31.68 C 49.87 32.40 49.49 33.15 49.17 33.93 C 49.69 34.66 50.25 35.37 50.85 36.05 C 50.81 36.79 50.81 37.53 50.85 38.26 C 52.44 39.64 52.53 39.43 52.38 41.70 C 53.67 43.23 54.92 41.64 56.08 43.87 L 55.78 44.14 C 54.19 45.19 54.55 49.41 57.41 48.50 C 57.74 47.16 58.25 46.07 58.96 45.24 C 61.63 46.21 62.02 47.55 62.86 50.02 C 64.80 50.64 66.49 51.70 66.25 54.01 C 66.51 55.86 64.85 56.87 64.90 58.69 C 66.86 59.00 68.39 58.78 68.96 61.08 C 70.77 66.00 67.19 69.92 64.37 73.49 C 62.99 73.42 61.93 74.57 61.41 75.75 C 59.90 74.97 58.00 75.33 56.36 75.52 C 55.30 73.47 53.76 72.29 51.73 71.98 C 53.63 71.58 56.25 70.56 54.91 68.31 C 54.02 68.26 53.14 68.20 52.25 68.13 C 49.34 70.92 47.07 74.37 44.28 77.31 C 41.26 81.42 36.69 85.73 37.90 91.33 L 36.77 92.71 C 35.30 94.02 35.78 96.60 34.33 98.10 C 34.10 96.99 33.62 96.14 32.89 95.55 C 31.08 95.78 32.87 99.41 31.07 100.71 L 31.94 101.98 L 32.02 103.26 C 30.02 101.77 29.00 99.69 26.37 98.92 C 26.88 103.85 27.37 108.05 30.69 112.02 C 30.73 114.71 30.55 117.37 30.87 120.06 C 29.30 118.62 27.75 117.30 28.00 115.01 C 26.12 114.30 25.08 115.15 26.02 116.94 C 28.41 116.92 29.97 120.54 31.07 122.21 L 28.09 120.50 C 26.79 119.52 25.72 118.63 23.97 118.95 C 24.49 120.68 24.70 122.67 25.71 124.18 C 27.13 127.47 29.80 129.42 31.99 132.06 L 31.78 133.93 C 33.39 136.50 34.51 139.70 34.78 142.70 C 32.01 141.66 32.06 141.90 31.99 139.04 C 30.85 137.90 29.02 138.34 28.96 139.97 C 30.00 142.62 35.12 141.67 35.00 144.91 C 32.52 143.97 29.85 143.49 27.23 143.10 C 28.22 144.77 29.97 145.37 31.15 146.90 C 34.01 150.30 37.31 153.56 41.06 155.95 C 41.66 156.50 42.19 157.13 42.65 157.83 C 43.59 159.52 45.03 161.57 45.01 163.55 C 43.28 162.85 41.51 163.08 40.84 161.03 C 40.31 160.82 39.77 160.63 39.22 160.48 C 38.97 160.90 38.73 161.33 38.52 161.78 C 40.81 163.09 46.77 163.53 46.60 166.75 C 44.68 166.41 43.08 166.74 41.23 167.11 C 44.58 169.74 46.22 173.47 50.48 174.41 C 52.93 175.43 54.59 174.17 56.93 173.91 C 61.67 181.44 67.57 187.92 74.41 193.60 C 77.68 196.23 82.43 199.55 86.84 198.60 C 89.25 198.20 90.11 196.78 91.25 194.80 C 93.03 197.42 94.72 198.78 97.66 200.00 L 0.00 200.00 L 0.00 0.00 Z" fill="#ffffff"/>
<path d="M 99.58 0.00 L 100.41 0.00 C 100.81 2.53 99.88 3.04 102.96 2.99 L 103.02 3.78 C 101.69 3.79 100.74 4.20 100.17 4.99 C 101.97 6.80 103.99 7.22 103.49 10.29 L 103.90 11.63 C 104.67 11.22 105.35 10.62 105.93 9.83 C 107.19 9.20 107.62 10.11 108.83 10.31 C 110.29 10.07 111.51 10.48 112.89 10.85 C 112.19 12.18 112.27 13.07 113.11 13.54 C 115.04 14.12 115.30 12.55 114.83 11.05 C 116.71 11.59 117.90 10.80 119.69 11.97 C 120.40 11.65 121.13 11.46 121.87 11.39 C 122.43 11.88 122.98 12.38 123.51 12.91 C 125.91 12.31 126.95 15.24 129.64 14.21 C 130.37 15.14 131.42 15.49 132.78 15.26 C 134.26 16.07 135.02 16.56 136.79 16.35 C 138.38 17.44 139.45 16.39 141.06 16.92 C 141.66 17.70 142.24 18.50 142.78 19.33 C 143.72 19.32 144.65 19.33 145.59 19.37 C 145.66 20.34 145.72 21.31 145.76 22.28 C 148.23 22.27 148.14 22.15 149.29 24.17 C 148.28 25.80 148.66 26.93 150.43 27.58 C 151.04 28.78 150.82 30.89 149.60 31.76 C 150.14 32.45 150.56 33.19 150.87 33.98 C 150.31 34.66 149.73 35.32 149.13 35.96 C 149.97 38.91 147.39 38.77 147.72 41.69 L 147.09 42.44 C 147.17 41.41 147.23 40.38 147.29 39.36 C 149.05 38.22 149.90 35.79 147.09 35.72 C 144.49 37.14 147.75 39.39 144.27 39.64 C 146.84 35.31 147.70 29.81 144.73 25.48 C 143.90 24.32 142.97 23.22 141.91 22.20 L 141.30 24.17 C 144.33 27.66 145.24 32.10 143.43 36.39 C 142.35 39.25 140.54 41.54 138.78 43.98 C 137.91 43.46 137.01 43.12 136.09 42.98 C 133.69 44.21 134.25 47.50 137.04 47.29 C 138.63 47.08 138.28 45.04 139.86 44.87 C 141.66 44.37 142.75 41.62 143.99 40.31 L 145.58 42.56 L 144.08 43.56 C 144.99 44.86 145.29 46.31 144.99 47.91 C 143.85 48.82 143.17 48.85 142.04 47.91 C 142.18 46.60 141.83 45.74 140.99 45.33 C 138.43 46.21 137.98 47.73 137.12 50.04 C 135.14 50.61 133.62 51.73 133.83 54.01 C 133.59 55.85 135.08 56.93 135.11 58.69 C 129.26 58.28 130.00 65.73 132.30 69.04 C 129.09 67.02 129.06 57.90 134.45 58.22 C 134.81 54.99 131.11 56.85 129.64 57.64 C 128.98 59.09 128.20 60.46 127.51 61.88 C 127.72 65.59 129.55 71.87 133.52 72.94 L 133.63 73.36 L 133.68 73.87 L 134.25 73.60 L 134.33 74.72 L 135.43 75.42 L 135.71 76.31 C 133.08 74.15 130.07 71.65 128.62 68.52 C 127.30 66.26 127.41 63.93 127.04 61.40 C 125.74 61.60 124.44 62.12 123.16 62.96 C 124.03 60.45 129.42 61.68 128.66 57.37 C 127.63 57.88 126.58 58.29 125.49 58.60 C 119.76 60.14 113.65 61.23 107.72 61.36 C 110.37 59.88 114.94 61.55 117.63 58.84 C 119.43 58.31 121.60 57.60 122.81 56.06 C 120.47 53.04 116.35 53.93 113.04 51.55 C 106.97 50.87 101.11 50.13 94.99 50.73 C 91.99 51.05 88.97 51.25 85.98 51.60 C 84.13 52.41 82.32 53.25 80.43 53.96 C 80.03 55.63 81.62 56.19 81.01 58.05 C 84.01 58.58 87.47 59.38 90.18 60.75 C 95.77 61.66 101.39 60.87 106.95 61.52 L 106.29 62.58 L 105.13 62.37 C 101.55 61.23 97.38 61.57 93.80 62.61 C 86.85 64.74 79.74 63.83 72.98 61.50 C 72.78 67.39 70.83 70.71 66.51 74.51 L 64.29 73.99 L 64.27 76.01 C 63.04 76.97 62.32 75.90 61.06 77.48 C 59.47 77.07 56.50 78.53 56.35 76.21 C 54.63 77.21 52.19 75.09 52.66 73.40 C 49.88 71.43 50.00 75.13 47.41 76.03 C 48.63 77.75 50.42 79.15 51.39 81.01 C 49.79 80.22 48.91 78.22 47.61 76.99 C 45.59 77.13 45.51 78.93 47.00 79.99 C 48.07 80.74 49.21 83.17 50.58 83.00 C 49.39 84.24 52.14 85.03 51.82 86.85 C 50.08 84.04 48.19 81.71 45.79 79.42 C 44.93 79.51 44.55 80.23 44.65 81.59 C 42.10 82.28 43.06 82.99 44.23 84.51 C 45.60 86.52 46.78 88.69 48.31 90.57 C 48.54 91.35 48.71 92.13 48.81 92.93 C 47.13 89.67 45.11 86.53 42.91 83.59 L 41.74 83.63 C 40.00 86.74 45.61 89.85 45.96 93.14 C 44.16 91.13 43.01 88.48 41.14 86.44 L 40.01 86.64 C 40.00 88.37 40.16 89.25 41.21 90.61 C 42.68 92.97 43.92 95.53 44.99 98.10 C 42.69 96.51 42.16 90.11 39.01 89.80 C 38.76 90.74 38.69 91.72 38.80 92.75 L 36.77 92.71 L 37.90 91.33 C 36.69 85.73 41.26 81.42 44.28 77.31 C 47.07 74.37 49.34 70.92 52.25 68.13 C 53.14 68.20 54.02 68.26 54.91 68.31 C 56.25 70.56 53.63 71.58 51.73 71.98 C 53.76 72.29 55.30 73.47 56.36 75.52 C 58.00 75.33 59.90 74.97 61.41 75.75 C 61.93 74.57 62.99 73.42 64.37 73.49 C 67.19 69.92 70.77 66.00 68.96 61.08 C 68.39 58.78 66.86 59.00 64.90 58.69 C 64.85 56.87 66.51 55.86 66.25 54.01 C 66.49 51.70 64.80 50.64 62.86 50.02 C 62.02 47.55 61.63 46.21 58.96 45.24 C 58.25 46.07 57.74 47.16 57.41 48.50 C 54.55 49.41 54.19 45.19 55.78 44.14 C 55.32 45.68 55.39 47.05 55.97 48.24 C 58.03 48.18 56.88 45.98 58.23 45.21 C 60.11 44.59 60.87 45.74 62.23 46.74 C 62.76 46.32 63.29 45.91 63.82 45.50 C 63.38 46.32 62.94 47.14 62.50 47.96 C 62.85 48.93 63.39 49.70 64.10 50.28 C 67.23 49.38 70.25 48.11 73.37 47.18 C 73.27 49.16 74.51 49.43 75.86 50.40 C 77.79 50.00 80.67 50.95 79.31 47.80 L 79.93 45.96 C 78.32 46.35 76.68 46.66 75.01 46.88 C 77.02 45.40 81.10 45.58 83.55 45.68 C 84.05 45.19 84.57 44.73 85.11 44.29 C 87.39 44.74 91.21 43.17 92.78 44.92 C 90.47 44.52 87.87 45.08 85.71 44.40 C 85.05 45.72 84.49 47.09 84.00 48.49 C 86.45 49.08 88.98 47.84 91.51 47.78 C 94.30 47.70 96.91 47.77 99.63 46.98 C 99.16 45.07 99.50 44.43 100.65 45.05 L 100.35 46.98 C 104.21 48.16 108.10 47.29 111.97 48.33 C 113.38 48.71 114.76 48.76 116.10 48.48 C 115.56 47.09 114.95 45.73 114.28 44.40 C 112.48 44.65 108.68 45.50 107.27 44.05 C 109.83 44.13 112.34 44.35 114.90 44.28 C 115.44 44.72 115.95 45.19 116.44 45.68 C 118.29 45.87 119.84 44.63 120.45 46.98 C 122.87 45.46 125.87 47.23 128.30 47.74 C 131.09 48.10 133.16 49.84 135.93 50.20 C 136.69 49.94 137.04 49.20 136.97 47.96 C 133.93 47.84 132.06 45.24 129.42 46.62 C 129.09 45.95 128.70 45.33 128.23 44.78 C 125.33 45.11 122.70 45.10 121.04 42.30 C 120.19 42.83 119.42 43.50 118.75 44.34 C 119.39 42.18 118.12 42.35 116.54 42.18 C 113.89 43.44 111.98 41.95 109.74 40.75 C 110.20 39.54 112.61 38.22 111.03 37.13 C 110.20 35.65 108.22 36.64 108.04 38.11 L 109.00 39.99 C 107.31 42.72 101.22 41.89 100.41 38.58 C 102.18 38.80 104.12 39.01 104.60 36.85 C 104.89 33.55 100.54 34.22 100.90 30.70 C 100.17 30.62 99.44 30.52 98.72 30.42 C 98.59 26.23 98.48 21.83 98.72 17.67 C 99.39 17.19 100.27 17.14 101.36 17.52 C 101.49 21.90 101.30 26.72 101.37 31.13 L 102.09 32.77 L 103.21 32.76 C 105.01 27.41 104.03 22.35 103.34 16.94 C 102.28 16.00 101.09 15.30 100.09 14.25 C 99.05 14.59 98.56 15.36 98.61 16.57 C 97.67 16.74 96.94 17.12 96.41 17.72 C 96.24 23.05 94.90 27.73 96.95 32.95 L 99.46 32.03 C 98.42 33.76 96.22 33.82 95.15 36.03 C 97.14 37.51 98.40 37.15 99.30 39.93 C 98.19 40.22 97.25 40.73 96.49 41.46 C 94.64 42.24 92.88 40.77 91.25 41.12 L 90.72 43.28 C 90.84 41.43 90.45 41.63 89.01 41.13 C 87.86 42.73 85.05 43.04 83.39 42.16 C 81.82 42.30 80.85 42.37 81.22 44.35 C 80.60 43.45 79.84 42.82 78.95 42.43 C 77.21 45.05 74.47 45.23 71.63 44.68 C 71.16 45.82 70.47 46.63 69.56 47.09 C 69.86 46.08 70.45 45.14 71.34 44.28 C 70.91 42.48 70.32 40.49 68.17 42.14 C 66.80 43.30 68.83 44.32 68.90 45.76 C 67.77 46.42 66.37 47.50 65.01 47.24 C 65.30 46.13 65.37 45.05 65.24 44.00 C 63.72 42.47 62.87 43.36 61.26 44.02 C 60.58 43.47 59.89 42.94 59.17 42.44 C 58.12 42.81 57.09 43.29 56.08 43.87 C 54.92 41.64 53.67 43.23 52.38 41.70 C 52.53 39.43 52.44 39.64 50.85 38.26 C 50.81 37.53 50.81 36.79 50.85 36.05 C 50.25 35.37 49.69 34.66 49.17 33.93 C 49.49 33.15 49.87 32.40 50.32 31.68 C 49.33 30.41 48.83 29.86 49.03 28.14 C 49.75 27.48 50.53 26.86 51.38 26.30 C 51.47 25.24 51.42 24.17 51.23 23.08 C 51.86 22.45 52.73 22.19 53.86 22.29 C 54.01 20.62 54.02 19.77 55.47 18.80 C 56.49 18.91 57.42 18.82 58.26 18.52 C 58.60 15.07 61.53 18.06 63.22 16.26 C 65.43 16.34 67.01 15.09 69.15 15.25 L 70.36 14.18 C 73.63 14.96 73.79 12.37 76.93 12.39 C 75.00 13.56 73.01 12.90 73.94 16.04 C 76.20 16.28 76.34 16.37 77.24 14.27 C 78.52 14.85 79.36 15.67 80.23 13.93 C 80.61 12.00 79.67 11.40 77.42 12.13 C 78.32 11.16 79.29 11.13 80.31 12.02 C 82.51 10.39 83.99 12.26 86.08 10.31 C 88.16 11.22 90.63 9.82 93.03 10.12 C 90.05 11.81 92.89 12.19 93.94 13.66 C 92.76 13.91 91.59 14.18 90.42 14.48 C 86.74 15.98 81.84 14.56 78.62 16.62 C 75.38 19.32 76.28 22.62 75.91 26.30 C 74.93 23.09 75.97 20.51 76.62 17.44 C 73.37 16.82 73.42 22.94 73.59 25.03 C 72.90 28.43 76.65 30.68 76.30 33.78 C 77.21 33.83 78.12 33.89 79.03 33.97 C 79.31 31.66 76.05 29.35 75.99 26.60 C 78.03 27.46 78.43 25.97 79.78 24.81 C 81.84 21.88 85.68 20.15 89.15 21.58 C 91.90 21.65 93.34 17.67 95.76 18.62 C 95.21 17.02 95.18 15.23 95.66 13.26 L 94.02 13.65 C 94.70 12.05 94.66 10.87 93.90 10.11 L 94.67 10.10 L 95.34 11.35 L 96.57 11.17 C 96.11 7.42 97.32 7.21 99.85 4.97 C 99.23 4.20 98.28 3.80 96.98 3.77 L 97.12 3.11 C 100.05 2.92 99.25 2.50 99.58 0.00 Z" fill="#030000"/>
<path d="M 100.41 0.00 L 200.00 0.00 L 200.00 200.00 L 102.18 200.00 C 105.16 198.83 107.03 197.57 108.73 194.84 C 110.34 197.66 111.69 198.61 114.95 198.97 C 122.39 197.79 128.19 191.39 133.36 186.37 C 136.70 183.33 139.05 179.23 141.79 176.40 C 145.44 177.37 149.70 175.71 152.49 173.31 C 153.05 172.85 153.58 172.37 154.08 171.87 C 155.10 170.65 156.84 169.55 157.27 168.02 C 155.00 167.97 152.85 167.59 150.73 168.66 C 150.33 167.70 150.97 166.61 152.64 165.39 C 155.21 164.70 157.17 163.63 159.95 164.05 C 160.27 163.53 160.50 162.96 160.63 162.33 C 159.64 161.84 159.12 161.28 158.10 162.06 C 156.83 164.02 154.97 164.03 152.96 164.90 C 153.24 162.85 154.69 161.02 155.36 159.01 C 155.65 158.39 155.95 157.76 156.24 157.13 C 161.04 157.04 164.53 153.58 167.45 150.15 L 168.32 149.20 C 168.82 148.27 171.61 146.78 170.67 145.75 C 168.73 145.86 166.85 145.80 165.07 146.71 C 165.09 144.49 166.93 144.32 168.09 142.79 C 169.12 142.61 170.11 142.31 171.04 141.90 C 171.09 139.95 169.05 139.17 168.09 141.07 C 167.86 142.73 166.38 143.80 165.00 144.55 C 163.19 141.96 165.92 137.49 167.85 135.54 C 166.71 135.27 166.13 134.88 166.11 134.36 C 170.85 131.71 173.63 127.53 175.47 122.54 C 175.22 121.86 174.76 121.72 174.09 122.10 C 172.73 122.69 171.29 123.02 169.98 123.72 C 169.47 121.06 171.16 119.23 173.39 118.27 C 174.85 118.22 175.44 117.44 175.14 115.92 C 171.70 115.02 172.77 119.82 170.00 119.28 C 169.34 116.81 172.70 114.45 169.64 113.28 C 171.38 110.54 170.80 107.56 172.24 104.77 C 170.24 104.75 169.48 106.99 167.57 107.21 C 167.70 105.15 168.91 103.58 170.67 102.59 C 171.74 101.48 170.64 100.22 169.34 100.14 C 167.57 101.43 168.61 102.27 168.68 104.08 L 167.22 103.92 C 166.79 101.71 166.94 99.56 167.64 97.42 C 166.50 97.83 165.49 98.54 164.63 99.53 L 163.84 100.57 L 162.86 100.84 C 162.34 99.89 161.68 99.23 160.89 98.89 L 159.52 98.61 C 159.60 95.37 163.00 92.73 162.33 88.98 C 162.43 86.30 161.07 84.47 159.76 82.30 C 156.00 77.41 152.06 72.48 147.82 68.00 C 146.90 67.91 145.97 67.91 145.03 68.02 L 144.76 69.21 L 144.88 69.94 L 145.03 70.84 L 145.91 71.11 C 146.19 72.92 143.70 75.40 141.82 75.00 C 139.22 75.32 137.28 74.06 135.30 72.52 L 134.25 73.60 L 134.02 73.11 L 133.63 73.36 L 133.52 72.94 C 134.32 71.72 133.91 70.42 132.30 69.04 C 130.00 65.73 129.26 58.28 135.11 58.69 C 135.08 56.93 133.59 55.85 133.83 54.01 C 133.62 51.73 135.14 50.61 137.12 50.04 C 137.98 47.73 138.43 46.21 140.99 45.33 C 141.83 45.74 142.18 46.60 142.04 47.91 C 143.17 48.85 143.85 48.82 144.99 47.91 C 145.29 46.31 144.99 44.86 144.08 43.56 L 145.58 42.56 L 147.09 42.44 L 147.72 41.69 C 147.39 38.77 149.97 38.91 149.13 35.96 C 149.73 35.32 150.31 34.66 150.87 33.98 C 150.56 33.19 150.14 32.45 149.60 31.76 C 150.82 30.89 151.04 28.78 150.43 27.58 C 148.66 26.93 148.28 25.80 149.29 24.17 C 148.14 22.15 148.23 22.27 145.76 22.28 C 145.72 21.31 145.66 20.34 145.59 19.37 C 144.65 19.33 143.72 19.32 142.78 19.33 C 142.24 18.50 141.66 17.70 141.06 16.92 C 139.45 16.39 138.38 17.44 136.79 16.35 C 135.02 16.56 134.26 16.07 132.78 15.26 C 131.42 15.49 130.37 15.14 129.64 14.21 C 126.95 15.24 125.91 12.31 123.51 12.91 C 122.98 12.38 122.43 11.88 121.87 11.39 C 121.13 11.46 120.40 11.65 119.69 11.97 C 117.90 10.80 116.71 11.59 114.83 11.05 L 113.98 10.16 L 112.89 10.85 C 111.51 10.48 110.29 10.07 108.83 10.31 C 107.62 10.11 107.19 9.20 105.93 9.83 C 105.35 10.62 104.67 11.22 103.90 11.63 L 103.49 10.29 C 103.99 7.22 101.97 6.80 100.17 4.99 C 100.74 4.20 101.69 3.79 103.02 3.78 L 102.96 2.99 C 99.88 3.04 100.81 2.53 100.41 0.00 Z" fill="#ffffff"/>
<path d="M 103.21 10.80 C 101.39 12.61 100.83 13.24 98.23 12.25 C 97.61 13.85 96.85 15.36 96.03 16.86 C 95.66 13.87 95.36 13.80 98.02 12.41 C 97.14 10.74 96.33 9.38 97.62 7.68 C 100.19 4.49 103.57 7.44 103.21 10.80 Z" fill="#ffe300"/>
<path d="M 93.03 10.12 L 93.90 10.11 C 94.66 10.87 94.70 12.05 94.02 13.65 L 93.94 13.66 C 92.89 12.19 90.05 11.81 93.03 10.12 Z" fill="#ada00f"/>
<path d="M 86.11 10.96 C 88.20 10.87 88.19 13.59 86.14 13.72 C 84.63 13.36 84.38 11.14 86.11 10.96 Z" fill="#ccbd03"/>
<path d="M 88.88 11.03 C 90.25 10.43 91.07 10.68 91.33 11.80 C 90.88 13.88 87.53 12.84 88.88 11.03 Z" fill="#f0e402"/>
<path d="M 105.92 10.52 L 106.84 9.97 L 107.85 10.57 C 109.18 13.43 104.22 13.23 105.92 10.52 Z" fill="#c1b204"/>
<path d="M 111.56 11.85 C 110.63 13.43 109.65 13.41 108.61 11.79 C 109.68 10.21 110.67 10.23 111.56 11.85 Z" fill="#f1e002"/>
<path d="M 112.89 10.85 L 113.98 10.16 L 114.83 11.05 C 115.30 12.55 115.04 14.12 113.11 13.54 C 112.27 13.07 112.19 12.18 112.89 10.85 Z" fill="#cfbf03"/>
<path d="M 76.93 12.39 L 77.42 12.13 C 79.67 11.40 80.61 12.00 80.23 13.93 C 79.36 15.67 78.52 14.85 77.24 14.27 C 76.34 16.37 76.20 16.28 73.94 16.04 C 73.01 12.90 75.00 13.56 76.93 12.39 Z" fill="#c2b304"/>
<path d="M 82.02 11.79 C 84.03 11.25 85.16 13.29 82.98 14.11 C 81.57 14.37 80.17 12.46 82.02 11.79 Z" fill="#dacb03"/>
<path d="M 116.10 12.10 C 116.96 11.54 117.85 11.60 118.77 12.26 C 119.58 14.89 114.77 14.50 116.10 12.10 Z" fill="#d8ca03"/>
<path d="M 120.99 11.98 C 121.77 11.84 122.37 12.22 122.81 13.12 C 122.93 14.72 120.66 15.66 119.93 13.88 C 119.71 12.72 120.06 12.09 120.99 11.98 Z" fill="#d8c803"/>
<path d="M 101.64 12.83 L 102.99 12.22 C 103.68 12.98 104.29 13.81 104.83 14.71 L 104.91 14.82 C 106.45 19.43 106.95 24.16 106.83 29.00 C 106.57 30.87 106.76 33.28 105.01 34.46 C 103.52 33.92 103.12 33.15 103.79 32.14 C 104.88 28.92 105.00 25.32 104.38 21.99 C 104.42 18.38 103.84 15.71 101.64 12.83 Z" fill="#f3e201"/>
<path d="M 90.42 14.48 C 91.59 14.18 92.76 13.91 93.94 13.66 L 94.02 13.65 L 95.66 13.26 C 95.18 15.23 95.21 17.02 95.76 18.62 C 93.34 17.67 91.90 21.65 89.15 21.58 C 85.68 20.15 81.84 21.88 79.78 24.81 C 78.43 25.97 78.03 27.46 75.99 26.60 L 75.91 26.30 C 76.28 22.62 75.38 19.32 78.62 16.62 C 81.84 14.56 86.74 15.98 90.42 14.48 Z" fill="#ffffff"/>
<path d="M 100.09 14.25 C 101.09 15.30 102.28 16.00 103.34 16.94 C 104.03 22.35 105.01 27.41 103.21 32.76 L 102.09 32.77 L 101.37 31.13 C 101.30 26.72 101.49 21.90 101.36 17.52 C 100.27 17.14 99.39 17.19 98.72 17.67 C 98.48 21.83 98.59 26.23 98.72 30.42 C 99.44 30.52 100.17 30.62 100.90 30.70 C 100.54 34.22 104.89 33.55 104.60 36.85 C 104.12 39.01 102.18 38.80 100.41 38.58 C 101.22 41.89 107.31 42.72 109.00 39.99 L 108.04 38.11 C 108.22 36.64 110.20 35.65 111.03 37.13 C 112.61 38.22 110.20 39.54 109.74 40.75 C 111.98 41.95 113.89 43.44 116.54 42.18 C 118.12 42.35 119.39 42.18 118.75 44.34 C 119.42 43.50 120.19 42.83 121.04 42.30 C 122.70 45.10 125.33 45.11 128.23 44.78 C 128.70 45.33 129.09 45.95 129.42 46.62 C 132.06 45.24 133.93 47.84 136.97 47.96 C 137.04 49.20 136.69 49.94 135.93 50.20 C 133.16 49.84 131.09 48.10 128.30 47.74 C 125.87 47.23 122.87 45.46 120.45 46.98 C 119.84 44.63 118.29 45.87 116.44 45.68 C 115.95 45.19 115.44 44.72 114.90 44.28 C 112.34 44.35 109.83 44.13 107.27 44.05 C 108.68 45.50 112.48 44.65 114.28 44.40 C 114.95 45.73 115.56 47.09 116.10 48.48 C 114.76 48.76 113.38 48.71 111.97 48.33 C 108.10 47.29 104.21 48.16 100.35 46.98 L 100.65 45.05 C 99.50 44.43 99.16 45.07 99.63 46.98 C 96.91 47.77 94.30 47.70 91.51 47.78 C 88.98 47.84 86.45 49.08 84.00 48.49 C 84.49 47.09 85.05 45.72 85.71 44.40 C 87.87 45.08 90.47 44.52 92.78 44.92 C 91.21 43.17 87.39 44.74 85.11 44.29 C 84.57 44.73 84.05 45.19 83.55 45.68 C 81.10 45.58 77.02 45.40 75.01 46.88 C 76.68 46.66 78.32 46.35 79.93 45.96 L 79.31 47.80 C 80.67 50.95 77.79 50.00 75.86 50.40 C 74.51 49.43 73.27 49.16 73.37 47.18 C 70.25 48.11 67.23 49.38 64.10 50.28 C 63.39 49.70 62.85 48.93 62.50 47.96 C 62.94 47.14 63.38 46.32 63.82 45.50 C 63.29 45.91 62.76 46.32 62.23 46.74 C 60.87 45.74 60.11 44.59 58.23 45.21 C 56.88 45.98 58.03 48.18 55.97 48.24 C 55.39 47.05 55.32 45.68 55.78 44.14 L 56.08 43.87 C 57.09 43.29 58.12 42.81 59.17 42.44 C 59.89 42.94 60.58 43.47 61.26 44.02 C 62.87 43.36 63.72 42.47 65.24 44.00 C 65.37 45.05 65.30 46.13 65.01 47.24 C 66.37 47.50 67.77 46.42 68.90 45.76 C 68.83 44.32 66.80 43.30 68.17 42.14 C 70.32 40.49 70.91 42.48 71.34 44.28 C 70.45 45.14 69.86 46.08 69.56 47.09 C 70.47 46.63 71.16 45.82 71.63 44.68 C 74.47 45.23 77.21 45.05 78.95 42.43 C 79.84 42.82 80.60 43.45 81.22 44.35 C 80.85 42.37 81.82 42.30 83.39 42.16 C 85.05 43.04 87.86 42.73 89.01 41.13 C 90.45 41.63 90.84 41.43 90.72 43.28 L 91.25 41.12 C 92.88 40.77 94.64 42.24 96.49 41.46 C 97.25 40.73 98.19 40.22 99.30 39.93 C 98.40 37.15 97.14 37.51 95.15 36.03 C 96.22 33.82 98.42 33.76 99.46 32.03 L 96.95 32.95 C 94.90 27.73 96.24 23.05 96.41 17.72 C 96.94 17.12 97.67 16.74 98.61 16.57 C 98.56 15.36 99.05 14.59 100.09 14.25 Z" fill="#ffe900"/>
<path d="M 104.83 14.71 L 105.49 13.35 C 109.82 14.81 113.96 15.53 118.55 15.50 C 122.62 16.14 124.07 19.51 124.06 23.28 C 121.50 23.24 120.43 21.66 118.78 20.05 C 116.43 19.29 114.34 19.62 111.96 19.91 C 110.09 19.17 107.99 18.84 106.26 17.81 C 106.09 16.56 105.64 15.56 104.91 14.82 L 104.83 14.71 Z" fill="#ffffff"/>
<path d="M 123.74 13.72 L 124.71 13.28 C 126.05 14.00 126.40 14.80 125.77 15.67 C 124.45 16.21 123.63 15.92 123.28 14.78 L 123.74 13.72 Z" fill="#f5e901"/>
<path d="M 70.99 14.72 C 72.86 14.26 73.79 16.27 71.91 17.14 C 70.24 17.58 68.94 15.20 70.99 14.72 Z" fill="#ddcd03"/>
<path d="M 130.04 15.94 C 129.19 17.40 128.21 17.39 127.11 15.91 C 128.19 14.34 129.17 14.35 130.04 15.94 Z" fill="#f1e301"/>
<path d="M 69.33 15.59 L 69.29 18.31 C 68.42 19.07 67.39 18.99 66.18 18.06 C 65.50 18.60 64.82 19.14 64.14 19.67 C 60.95 18.64 62.41 16.24 65.00 16.58 C 66.42 16.77 67.77 15.54 69.33 15.59 Z" fill="#e5d802"/>
<path d="M 130.62 15.65 C 132.25 15.59 133.62 16.08 134.72 17.11 C 133.87 17.85 133.01 18.59 132.16 19.32 C 131.88 21.93 132.00 24.59 132.16 27.20 L 131.72 28.52 C 130.65 31.68 129.38 34.61 127.24 37.21 C 126.61 38.13 125.77 38.44 124.71 38.13 C 125.06 35.50 125.04 35.74 122.99 34.12 C 124.35 31.41 126.09 32.22 126.37 34.87 C 127.89 33.11 128.72 30.31 130.10 28.27 C 128.28 29.44 125.42 28.29 127.07 26.15 C 128.56 24.55 128.92 26.36 130.40 26.78 C 130.50 24.49 130.66 22.22 130.34 19.94 C 130.83 18.59 130.92 17.17 130.62 15.65 Z" fill="#d5c303"/>
<path d="M 123.98 17.06 C 127.90 19.40 126.52 26.44 125.30 30.03 C 123.53 31.63 123.76 34.20 120.95 34.04 L 120.81 33.06 C 123.49 29.53 125.07 25.55 124.29 21.05 C 124.18 19.78 123.07 18.13 123.98 17.06 Z" fill="#e9db02"/>
<path d="M 137.61 17.96 C 136.42 19.85 135.36 19.87 134.41 18.00 C 135.34 16.58 136.41 16.56 137.61 17.96 Z" fill="#fff800"/>
<path d="M 59.02 17.91 C 61.54 15.63 63.44 20.60 59.87 20.65 C 58.86 19.76 58.57 18.84 59.02 17.91 Z" fill="#f9ea01"/>
<path d="M 71.10 18.38 C 74.12 17.19 73.65 22.40 70.90 20.98 C 70.02 19.97 70.09 19.10 71.10 18.38 Z" fill="#e1d203"/>
<path d="M 76.62 17.44 C 75.97 20.51 74.93 23.09 75.91 26.30 L 75.99 26.60 C 76.05 29.35 79.31 31.66 79.03 33.97 C 78.12 33.89 77.21 33.83 76.30 33.78 C 76.65 30.68 72.90 28.43 73.59 25.03 C 73.42 22.94 73.37 16.82 76.62 17.44 Z" fill="#eadb02"/>
<path d="M 127.34 18.42 C 128.04 17.93 128.71 18.01 129.36 18.64 C 130.77 19.94 128.66 22.32 127.21 20.84 C 126.62 19.94 126.66 19.13 127.34 18.42 Z" fill="#d9c903"/>
<path d="M 138.44 18.21 C 139.70 16.06 142.40 18.25 141.10 20.01 C 139.66 21.25 137.50 20.04 138.44 18.21 Z" fill="#f5e601"/>
<path d="M 99.96 18.20 C 101.44 19.16 101.46 20.26 100.03 21.50 C 98.57 20.40 98.55 19.30 99.96 18.20 Z" fill="#f9e701"/>
<path d="M 58.65 19.53 C 58.54 22.34 57.23 24.02 54.60 22.16 C 54.18 18.97 56.12 18.87 58.65 19.53 Z" fill="#eddf01"/>
<path d="M 67.68 19.64 C 67.96 22.46 67.50 25.33 67.95 28.19 C 62.93 27.25 60.80 32.82 56.33 31.62 C 55.29 29.45 58.19 27.37 57.39 25.49 L 58.33 25.30 C 60.16 23.25 62.16 21.59 64.74 20.58 C 65.68 20.18 66.66 19.87 67.68 19.64 Z" fill="#ffffff"/>
<path d="M 69.13 19.76 C 69.42 21.43 69.56 23.25 69.58 25.22 C 68.94 25.73 68.17 25.91 67.86 24.94 C 68.78 23.69 67.30 19.98 69.13 19.76 Z" fill="#d3bb04"/>
<path d="M 132.39 19.79 C 133.49 19.88 134.49 20.16 135.40 20.63 C 136.89 21.65 139.44 22.09 140.19 23.73 C 143.11 26.41 145.19 31.47 143.32 35.17 C 141.67 35.07 140.64 33.03 138.98 32.89 C 137.89 32.45 135.99 32.83 135.27 31.84 C 135.12 30.97 134.94 30.11 134.74 29.25 C 133.70 29.10 132.69 28.86 131.72 28.52 L 132.16 27.20 C 132.64 24.81 131.90 22.16 132.39 19.79 Z" fill="#ffffff"/>
<path d="M 142.23 20.07 C 143.94 18.92 145.51 20.15 144.84 22.18 C 143.59 23.85 141.34 21.78 142.23 20.07 Z" fill="#fff100"/>
<path d="M 96.00 18.58 C 95.91 21.10 95.67 23.52 95.24 26.00 C 95.35 28.38 95.93 30.79 96.62 33.06 C 95.72 35.31 93.97 34.51 93.65 32.48 C 92.88 29.55 93.05 26.20 93.41 23.20 L 93.56 22.52 C 93.66 20.39 94.47 19.07 96.00 18.58 Z" fill="#d2c203"/>
<path d="M 71.12 22.18 C 71.88 22.09 72.46 22.42 72.85 23.18 C 73.40 24.95 70.52 25.63 70.13 23.92 C 70.07 23.03 70.40 22.45 71.12 22.18 Z" fill="#e9d802"/>
<path d="M 110.36 21.96 C 112.12 22.83 113.78 24.51 114.96 26.07 C 116.60 25.16 117.98 23.86 119.97 24.87 C 120.99 26.12 120.84 27.92 120.75 29.45 C 118.01 29.41 116.99 30.68 114.96 32.16 C 113.81 31.81 113.10 30.81 112.04 30.37 C 111.39 30.52 110.75 30.66 110.11 30.82 C 110.02 27.83 110.08 24.94 110.36 21.96 Z" fill="#ee1c24"/>
<path d="M 128.15 22.20 C 129.93 21.79 130.77 24.39 128.92 24.89 C 127.07 25.13 126.48 22.94 128.15 22.20 Z" fill="#ead802"/>
<path d="M 99.99 22.11 C 101.42 23.27 101.42 24.44 100.01 25.63 C 98.59 24.49 98.58 23.32 99.99 22.11 Z" fill="#fff300"/>
<path d="M 147.90 25.86 C 146.37 27.65 144.46 24.98 145.39 23.38 C 147.30 22.49 149.85 23.91 147.90 25.86 Z" fill="#ffef00"/>
<path d="M 91.05 24.34 C 91.61 26.86 91.68 29.50 91.38 32.06 C 91.24 33.52 89.41 34.63 88.05 34.41 C 85.75 31.83 82.59 29.35 79.16 28.66 C 79.02 26.79 81.65 25.66 82.95 24.72 C 85.69 24.00 88.28 25.64 91.05 24.34 Z" fill="#ed1b24"/>
<path d="M 141.91 22.20 C 142.97 23.22 143.90 24.32 144.73 25.48 C 147.70 29.81 146.84 35.31 144.27 39.64 C 147.75 39.39 144.49 37.14 147.09 35.72 C 149.90 35.79 149.05 38.22 147.29 39.36 C 147.23 40.38 147.17 41.41 147.09 42.44 L 145.58 42.56 L 143.99 40.31 C 142.75 41.62 141.66 44.37 139.86 44.87 C 138.28 45.04 138.63 47.08 137.04 47.29 C 134.25 47.50 133.69 44.21 136.09 42.98 C 137.01 43.12 137.91 43.46 138.78 43.98 C 140.54 41.54 142.35 39.25 143.43 36.39 C 145.24 32.10 144.33 27.66 141.30 24.17 L 141.91 22.20 Z" fill="#d7c703"/>
<path d="M 56.59 25.00 C 57.19 26.10 57.02 27.38 56.08 28.85 C 54.76 33.79 57.18 37.87 59.52 41.97 L 57.81 42.55 C 55.69 40.05 54.10 37.21 53.83 33.88 C 52.64 35.55 50.56 36.55 49.92 33.92 C 49.76 31.13 52.10 32.18 53.74 32.75 L 53.61 30.14 L 52.01 30.95 C 50.53 32.61 48.52 28.80 49.96 27.96 C 51.82 26.04 52.56 27.75 53.74 29.10 C 54.51 27.56 55.44 26.29 56.59 25.00 Z" fill="#e0d002"/>
<path d="M 70.42 26.28 L 71.59 25.70 L 72.66 26.18 L 73.01 27.18 L 72.60 28.33 L 71.40 28.78 C 70.96 27.97 70.63 27.14 70.42 26.28 Z" fill="#f9e901"/>
<path d="M 69.70 27.25 C 70.36 27.86 70.71 28.85 70.77 30.22 L 71.18 31.00 L 72.36 29.48 C 73.98 29.06 74.78 29.53 74.77 30.87 C 74.63 32.06 73.63 32.53 71.78 32.27 C 72.62 34.19 75.83 36.04 75.28 38.20 C 72.68 38.66 70.87 34.01 69.81 32.17 C 69.18 30.99 67.37 27.55 69.70 27.25 Z" fill="#ead902"/>
<path d="M 99.99 26.29 C 101.43 27.40 101.44 28.53 100.01 29.67 C 98.57 28.60 98.56 27.47 99.99 26.29 Z" fill="#fff100"/>
<path d="M 148.05 27.46 C 150.28 26.95 150.11 29.29 149.70 30.72 C 149.03 31.01 148.28 30.95 147.46 30.54 C 146.81 29.10 147.00 28.07 148.05 27.46 Z" fill="#fdeb00"/>
<path d="M 72.36 29.48 L 71.18 31.00 L 70.77 30.22 C 70.97 29.39 71.50 29.14 72.36 29.48 Z" fill="#201b03"/>
<path d="M 125.91 29.93 L 126.82 29.41 L 127.65 29.87 C 129.16 32.99 124.17 32.22 125.91 29.93 Z" fill="#fff300"/>
<path d="M 67.96 31.72 C 69.53 33.40 70.78 36.08 72.22 38.06 C 71.73 41.71 68.99 38.37 67.57 37.39 C 64.33 37.34 61.47 37.56 58.95 39.81 C 57.82 38.42 57.13 36.93 56.87 35.35 C 61.41 35.63 63.83 32.38 67.96 31.72 Z" fill="#ee1c24"/>
<path d="M 148.13 32.21 C 150.13 31.69 150.71 34.60 148.93 35.18 C 146.91 35.64 146.33 32.72 148.13 32.21 Z" fill="#f1dd01"/>
<path d="M 135.06 33.80 C 136.17 34.24 138.24 34.52 138.35 35.97 C 136.21 37.71 136.19 38.16 135.78 40.86 C 133.80 40.06 132.01 39.95 129.90 39.81 C 131.10 37.49 133.45 35.86 135.06 33.80 Z" fill="#f01c24"/>
<path d="M 81.44 35.67 C 82.75 36.34 84.19 36.18 84.45 37.98 C 85.00 42.48 75.10 44.14 75.35 38.89 C 76.17 37.86 77.09 37.01 77.61 35.78 C 78.49 33.72 80.17 34.50 81.44 35.67 Z" fill="#efde01"/>
<path d="M 99.01 34.92 L 100.02 34.51 L 101.02 34.88 C 102.59 37.24 97.50 37.22 99.01 34.92 Z" fill="#645706"/>
<path d="M 119.96 34.64 C 122.47 33.60 122.85 37.73 124.74 38.91 C 124.38 42.76 121.88 41.69 119.16 41.82 C 116.90 41.29 114.74 39.63 115.87 37.03 C 117.06 35.90 118.77 36.00 119.96 34.64 Z" fill="#f0de01"/>
<path d="M 52.18 36.23 C 54.09 35.63 54.53 37.93 53.04 38.82 C 51.66 38.78 50.38 36.96 52.18 36.23 Z" fill="#ecda02"/>
<path d="M 91.23 36.68 C 92.04 37.23 92.21 38.20 91.74 39.60 C 90.54 39.60 89.37 39.38 88.23 38.93 C 88.50 37.32 89.52 35.46 91.23 36.68 Z" fill="#cec103"/>
<path d="M 79.15 37.02 C 80.06 37.46 80.97 37.91 81.87 38.36 C 80.71 39.71 80.02 40.28 78.14 39.82 C 78.45 38.88 78.78 37.94 79.15 37.02 Z" fill="#7e6e06"/>
<path d="M 120.72 37.02 C 121.31 37.96 121.93 38.87 122.58 39.78 C 121.76 39.85 120.94 39.91 120.12 39.94 C 118.94 39.45 118.33 38.90 118.29 38.30 C 119.10 37.87 119.91 37.44 120.72 37.02 Z" fill="#877705"/>
<path d="M 96.22 38.70 L 97.73 38.64 L 97.76 39.98 L 96.22 40.08 L 96.22 38.70 Z" fill="#ffec00"/>
<path d="M 53.28 39.77 L 54.06 39.29 C 55.50 39.97 55.85 40.74 55.10 41.61 C 53.34 42.31 52.73 41.70 53.28 39.77 Z" fill="#fcf201"/>
<path d="M 99.11 41.06 L 100.02 40.68 L 100.94 41.05 L 100.94 41.86 C 99.50 42.37 98.88 42.10 99.11 41.06 Z" fill="#544807"/>
<path d="M 132.42 43.05 C 131.97 44.02 131.51 45.00 131.04 45.97 C 127.55 45.41 128.81 44.63 129.19 42.06 C 130.30 41.07 132.11 41.54 132.42 43.05 Z" fill="#dcc902"/>
<path d="M 92.62 43.16 C 97.37 42.92 102.33 42.88 107.08 43.17 L 107.32 44.36 C 103.92 44.88 100.45 44.08 97.00 44.48 C 95.66 44.30 92.37 45.41 92.62 43.16 Z" fill="#9e8b07"/>
<path d="M 116.52 47.07 C 117.59 46.08 118.61 46.06 119.60 47.01 C 119.79 49.00 116.55 48.76 116.52 47.07 Z" fill="#910e17"/>
<path d="M 121.31 46.70 C 122.40 46.84 123.49 47.00 124.57 47.21 C 125.61 47.30 126.57 47.72 127.45 48.47 C 129.83 48.29 131.48 49.22 132.38 51.26 C 127.95 49.45 125.88 51.65 121.65 50.09 C 120.99 49.34 120.88 48.22 121.31 46.70 Z" fill="#f9e201"/>
<path d="M 100.00 47.24 C 103.08 48.07 105.83 48.44 109.02 48.34 C 112.95 48.88 116.61 49.76 120.63 49.23 L 121.86 50.66 C 125.59 51.27 130.06 52.18 133.33 54.00 L 133.51 55.47 L 132.16 55.52 C 124.14 53.21 116.41 51.08 108.01 50.51 C 95.64 49.29 83.42 50.97 71.55 54.49 C 69.92 54.89 68.20 55.73 66.55 55.46 C 66.40 52.74 69.40 53.06 71.19 52.23 C 74.02 51.01 77.92 51.39 80.24 49.44 C 83.59 49.44 86.71 49.09 89.99 48.42 C 93.48 48.31 96.60 48.29 100.00 47.24 Z" fill="#eddc02"/>
<path d="M 94.99 50.73 C 101.11 50.13 106.97 50.87 113.04 51.55 C 116.35 53.93 120.47 53.04 122.81 56.06 C 121.60 57.60 119.43 58.31 117.63 58.84 C 114.94 61.55 110.37 59.88 107.72 61.36 L 106.95 61.52 C 101.39 60.87 95.77 61.66 90.18 60.75 C 87.47 59.38 84.01 58.58 81.01 58.05 C 81.62 56.19 80.03 55.63 80.43 53.96 C 82.32 53.25 84.13 52.41 85.98 51.60 C 88.97 51.25 91.99 51.05 94.99 50.73 Z" fill="#ed1b24"/>
<path d="M 70.37 57.62 C 71.03 59.07 71.80 60.44 72.52 61.85 C 72.11 64.04 72.04 66.67 70.82 68.58 C 69.74 70.02 69.29 72.60 67.02 71.84 C 67.04 69.76 69.11 68.67 69.46 66.57 C 70.39 63.13 70.19 58.33 65.58 58.22 C 65.21 55.04 68.92 56.86 70.37 57.62 Z" fill="#f8e601"/>
<path d="M 134.45 58.22 C 129.06 57.90 129.09 67.02 132.30 69.04 C 133.91 70.42 134.32 71.72 133.52 72.94 C 129.55 71.87 127.72 65.59 127.51 61.88 C 128.20 60.46 128.98 59.09 129.64 57.64 C 131.11 56.85 134.81 54.99 134.45 58.22 Z" fill="#f1e004"/>
<path d="M 71.27 57.38 C 72.34 57.82 73.43 58.21 74.53 58.55 C 79.05 59.78 83.72 60.65 88.38 61.07 L 89.34 61.98 L 88.38 63.05 C 83.87 63.72 79.05 63.02 74.76 61.54 C 73.00 61.47 70.64 59.16 71.27 57.38 Z" fill="#e7d302"/>
<path d="M 125.49 58.60 C 126.58 58.29 127.63 57.88 128.66 57.37 C 129.42 61.68 124.03 60.45 123.16 62.96 C 120.87 64.31 118.56 63.95 116.00 64.05 C 112.11 63.98 108.65 64.40 105.13 62.37 L 106.29 62.58 L 106.95 61.52 L 107.72 61.36 C 113.65 61.23 119.76 60.14 125.49 58.60 Z" fill="#fee500"/>
<path d="M 72.98 61.50 C 79.74 63.83 86.85 64.74 93.80 62.61 C 97.38 61.57 101.55 61.23 105.13 62.37 C 108.65 64.40 112.11 63.98 116.00 64.05 C 118.56 63.95 120.87 64.31 123.16 62.96 C 124.44 62.12 125.74 61.60 127.04 61.40 C 127.41 63.93 127.30 66.26 128.62 68.52 C 130.07 71.65 133.08 74.15 135.71 76.31 C 139.48 79.05 145.74 78.52 148.02 74.07 C 148.33 73.36 148.95 73.04 149.89 73.11 C 150.41 74.80 149.55 75.56 148.87 76.97 C 147.09 77.85 145.26 80.44 144.86 82.32 C 146.74 82.03 147.38 79.38 149.27 78.86 L 148.89 81.22 C 148.06 80.94 146.37 82.97 146.94 83.75 C 147.72 83.58 148.55 83.40 149.42 83.20 C 149.02 84.55 148.05 85.40 148.11 86.91 C 150.15 84.58 151.71 81.93 154.10 79.86 L 154.81 80.08 C 155.03 82.48 155.79 81.40 156.89 82.73 C 155.03 85.28 153.32 87.94 151.61 90.60 C 151.15 91.25 150.99 92.05 151.11 93.01 C 153.25 90.12 154.84 86.81 157.14 84.02 L 158.02 83.93 C 158.55 85.99 158.58 86.27 160.04 87.89 C 158.47 91.27 155.99 94.49 154.91 98.21 L 155.87 97.85 C 157.12 95.35 158.27 92.36 160.06 90.08 L 160.99 89.99 C 161.51 93.63 158.90 95.68 158.07 99.33 L 157.87 99.96 C 157.17 101.66 156.43 103.32 156.02 105.11 L 155.78 106.04 L 154.69 107.05 C 149.10 86.04 130.46 69.67 109.03 66.37 C 93.77 63.80 77.66 67.95 65.46 77.43 C 56.17 84.47 49.03 94.64 45.66 105.81 L 44.95 107.35 C 43.47 103.04 41.79 98.92 39.87 94.79 L 39.50 94.01 L 38.80 92.75 C 38.69 91.72 38.76 90.74 39.01 89.80 C 42.16 90.11 42.69 96.51 44.99 98.10 C 43.92 95.53 42.68 92.97 41.21 90.61 C 40.16 89.25 40.00 88.37 40.01 86.64 L 41.14 86.44 C 43.01 88.48 44.16 91.13 45.96 93.14 C 45.61 89.85 40.00 86.74 41.74 83.63 L 42.91 83.59 C 45.11 86.53 47.13 89.67 48.81 92.93 C 48.71 92.13 48.54 91.35 48.31 90.57 C 49.11 87.61 47.61 84.40 44.23 84.51 C 43.06 82.99 42.10 82.28 44.65 81.59 C 44.55 80.23 44.93 79.51 45.79 79.42 C 48.19 81.71 50.08 84.04 51.82 86.85 C 52.14 85.03 49.39 84.24 50.58 83.00 C 51.42 83.33 52.26 83.58 53.10 83.74 C 53.63 82.66 52.15 81.56 51.39 81.01 C 50.42 79.15 48.63 77.75 47.41 76.03 C 50.00 75.13 49.88 71.43 52.66 73.40 C 52.19 75.09 54.63 77.21 56.35 76.21 C 56.50 78.53 59.47 77.07 61.06 77.48 C 62.32 75.90 63.04 76.97 64.27 76.01 L 64.29 73.99 L 66.51 74.51 C 70.83 70.71 72.78 67.39 72.98 61.50 Z" fill="#ffe300"/>
<path d="M 109.03 66.37 C 130.46 69.67 149.10 86.04 154.69 107.05 C 154.91 108.53 154.87 109.84 156.06 110.92 L 156.37 111.73 C 155.85 114.88 157.16 117.79 157.01 120.98 C 156.96 122.67 157.16 124.33 157.30 126.01 C 156.05 128.95 156.29 132.45 155.62 135.58 C 154.71 138.05 154.17 140.62 153.10 143.03 L 152.80 143.75 C 152.49 144.49 152.18 145.23 151.89 145.98 C 151.47 147.05 151.02 148.11 150.57 149.17 C 149.03 151.32 147.89 153.68 146.27 155.78 C 146.08 155.97 145.88 156.19 145.68 156.42 C 144.88 157.53 144.08 158.63 143.13 159.62 C 135.58 169.06 124.26 175.72 112.57 178.48 C 111.04 178.45 109.64 178.84 108.18 179.21 C 106.41 179.37 104.64 179.51 102.86 179.49 C 100.84 179.23 99.04 179.26 97.04 179.61 C 85.34 178.94 74.00 175.10 64.94 167.56 C 63.94 166.45 62.80 165.49 61.58 164.64 C 59.19 162.24 56.94 159.81 54.71 157.26 C 51.74 152.91 49.33 148.75 47.05 143.98 C 46.72 142.93 46.40 141.87 46.07 140.82 C 45.77 139.81 45.46 138.81 45.16 137.80 C 44.92 136.43 44.55 135.11 44.09 133.80 C 43.99 131.53 43.68 129.27 43.33 127.03 L 42.31 127.63 C 43.60 124.94 42.91 121.25 43.15 118.32 C 43.53 114.73 44.37 111.21 44.78 107.69 L 44.95 107.35 L 45.66 105.81 C 49.03 94.64 56.17 84.47 65.46 77.43 C 77.66 67.95 93.77 63.80 109.03 66.37 Z" fill="#ed1b24"/>
<path d="M 145.03 68.02 C 145.97 67.91 146.90 67.91 147.82 68.00 C 152.06 72.48 156.00 77.41 159.76 82.30 C 161.07 84.47 162.43 86.30 162.33 88.98 C 163.00 92.73 159.60 95.37 159.52 98.61 L 158.07 99.33 C 158.90 95.68 161.51 93.63 160.99 89.99 L 160.06 90.08 C 158.27 92.36 157.12 95.35 155.87 97.85 L 154.91 98.21 C 155.99 94.49 158.47 91.27 160.04 87.89 C 158.58 86.27 158.55 85.99 158.02 83.93 L 157.14 84.02 C 154.84 86.81 153.25 90.12 151.11 93.01 C 150.99 92.05 151.15 91.25 151.61 90.60 C 153.32 87.94 155.03 85.28 156.89 82.73 C 155.79 81.40 155.03 82.48 154.81 80.08 L 154.10 79.86 C 151.71 81.93 150.15 84.58 148.11 86.91 C 148.05 85.40 149.02 84.55 149.42 83.20 C 150.91 81.82 153.42 79.85 153.98 77.96 L 152.79 77.11 C 151.31 78.30 150.40 80.08 148.89 81.22 L 149.27 78.86 C 150.24 78.98 152.71 76.41 151.89 75.35 C 150.81 74.96 150.08 77.01 148.87 76.97 C 149.55 75.56 150.41 74.80 149.89 73.11 C 148.95 73.04 148.33 73.36 148.02 74.07 C 145.74 78.52 139.48 79.05 135.71 76.31 C 138.42 76.16 140.66 78.08 143.73 76.79 C 146.76 75.53 148.95 72.63 147.71 69.29 C 146.86 68.93 145.87 68.91 144.76 69.21 L 145.03 68.02 Z" fill="#6d6210"/>
<path d="M 144.76 69.21 C 145.87 68.91 146.86 68.93 147.71 69.29 C 148.95 72.63 146.76 75.53 143.73 76.79 C 140.66 78.08 138.42 76.16 135.71 76.31 L 135.43 75.42 L 134.33 74.72 L 134.25 73.60 L 135.30 72.52 C 137.28 74.06 139.22 75.32 141.82 75.00 C 143.70 75.40 146.19 72.92 145.91 71.11 L 145.88 70.22 L 144.88 69.94 L 144.76 69.21 Z" fill="#e3d003"/>
<path d="M 144.88 69.94 L 145.88 70.22 L 145.91 71.11 L 145.03 70.84 L 144.88 69.94 Z" fill="#5c5221"/>
<path d="M 66.05 71.90 L 67.02 71.84 L 67.72 72.90 L 66.18 73.64 L 66.05 71.90 Z" fill="#fffe00"/>
<path d="M 133.52 72.94 L 133.63 73.36 L 133.52 72.94 Z" fill="#fffa00"/>
<path d="M 95.27 72.97 C 95.52 78.47 95.28 84.02 95.37 89.54 C 98.59 89.24 101.50 89.22 104.72 89.55 C 104.84 84.04 104.62 78.50 104.82 72.99 C 121.73 74.44 137.14 85.18 144.66 100.35 C 150.30 111.47 151.38 124.85 147.81 136.78 C 142.07 156.61 123.40 171.51 102.72 172.27 C 102.60 170.51 102.50 168.69 102.76 166.93 C 119.88 166.00 135.42 154.48 141.51 138.49 C 145.68 127.84 145.44 115.62 140.90 105.13 C 137.09 96.25 130.20 88.56 121.75 83.87 C 121.56 88.25 121.69 92.66 121.67 97.05 C 123.82 99.37 126.10 101.49 127.80 104.20 C 132.61 111.35 134.37 120.34 132.74 128.78 C 131.14 137.54 125.79 145.45 118.36 150.34 C 107.73 157.52 93.07 157.71 82.28 150.74 C 74.45 145.84 69.15 137.82 67.22 128.83 C 68.29 127.60 70.75 127.79 72.25 127.26 C 73.58 130.80 74.98 137.12 78.31 139.34 C 78.36 128.15 78.36 116.94 78.31 105.75 C 76.13 106.50 75.91 110.21 74.02 111.06 C 72.59 110.41 71.19 109.68 69.81 108.92 C 73.16 100.31 81.20 93.86 89.77 90.76 C 89.84 86.95 89.88 83.08 89.74 79.27 C 79.11 81.91 69.62 88.40 63.42 97.44 C 57.06 106.52 54.36 118.08 56.06 129.03 C 57.47 138.96 62.50 148.35 69.89 155.13 C 77.31 162.09 87.14 166.29 97.29 166.92 C 97.65 168.66 97.53 170.55 97.37 172.31 C 82.42 171.71 68.11 163.69 59.47 151.52 C 52.93 142.45 49.61 131.17 50.25 120.01 C 50.73 107.84 56.06 96.21 64.55 87.55 C 72.72 79.32 83.69 73.98 95.27 72.97 Z" fill="#ffe300"/>
<path d="M 133.63 73.36 L 134.02 73.11 L 134.25 73.60 L 133.68 73.87 L 133.63 73.36 Z" fill="#fffa00"/>
<path d="M 151.89 75.35 C 152.71 76.41 150.24 78.98 149.27 78.86 L 148.87 76.97 C 150.08 77.01 150.81 74.96 151.89 75.35 Z" fill="#efdd02"/>
<path d="M 47.61 76.99 C 48.91 78.22 49.79 80.22 51.39 81.01 L 50.58 83.00 C 49.21 83.17 48.07 80.74 47.00 79.99 C 45.51 78.93 45.59 77.13 47.61 76.99 Z" fill="#efde01"/>
<path d="M 50.99 77.12 L 51.83 77.14 L 51.94 77.98 L 51.07 77.96 L 50.99 77.12 Z" fill="#7f6e08"/>
<path d="M 148.87 76.97 L 149.27 78.86 C 147.38 79.38 146.74 82.03 144.86 82.32 C 145.26 80.44 147.09 77.85 148.87 76.97 Z" fill="#a49007"/>
<path d="M 51.94 77.98 C 53.04 77.95 55.38 81.04 54.95 82.02 C 53.94 82.81 51.33 78.86 51.94 77.98 Z" fill="#a38f08"/>
<path d="M 152.79 77.11 L 153.98 77.96 C 153.42 79.85 150.91 81.82 149.42 83.20 L 148.89 81.22 C 150.40 80.08 151.31 78.30 152.79 77.11 Z" fill="#fbea01"/>
<path d="M 110.32 79.32 C 112.23 79.72 114.11 80.37 115.91 81.13 C 116.56 84.90 116.10 89.30 116.14 93.19 C 114.16 92.47 112.19 91.62 110.29 90.72 C 110.24 86.93 110.19 83.10 110.32 79.32 Z" fill="#ed1a24"/>
<path d="M 51.39 81.01 C 52.15 81.56 53.63 82.66 53.10 83.74 C 52.26 83.58 51.42 83.33 50.58 83.00 L 51.39 81.01 Z" fill="#9b8807"/>
<path d="M 148.89 81.22 L 149.42 83.20 C 148.55 83.40 147.72 83.58 146.94 83.75 C 146.37 82.97 148.06 80.94 148.89 81.22 Z" fill="#9b8807"/>
<path d="M 44.23 84.51 C 47.61 84.40 49.11 87.61 48.31 90.57 C 46.78 88.69 45.60 86.52 44.23 84.51 Z" fill="#f5e501"/>
<path d="M 36.77 92.71 L 38.80 92.75 L 39.50 94.01 L 39.87 94.79 C 41.79 98.92 43.47 103.04 44.95 107.35 L 44.78 107.69 L 43.55 107.35 C 42.90 112.34 39.25 114.78 35.98 117.99 C 36.39 119.94 36.77 122.48 37.93 124.09 C 38.20 126.75 37.61 129.18 37.40 131.81 C 39.44 129.67 38.82 125.81 39.75 123.02 C 39.73 121.97 40.45 121.67 41.89 122.13 C 41.32 124.83 39.95 127.09 40.00 129.94 C 40.79 129.19 41.56 128.42 42.31 127.63 C 41.79 129.83 40.59 131.86 39.95 133.98 C 40.38 134.98 41.99 135.47 42.86 136.25 L 44.09 133.80 C 44.55 135.11 44.92 136.43 45.16 137.80 C 45.22 142.48 45.00 147.16 45.13 151.83 L 45.88 151.88 C 46.05 148.19 45.79 144.51 46.07 140.82 C 46.40 141.87 46.72 142.93 47.05 143.98 C 46.77 147.35 47.76 150.97 45.90 153.87 C 45.54 154.47 45.32 155.10 45.23 155.74 C 46.61 157.09 48.61 157.45 50.11 158.75 L 51.09 158.52 C 50.94 156.55 49.11 156.31 50.07 154.19 C 50.71 154.46 51.34 154.76 51.96 155.08 C 51.28 156.52 50.94 158.49 51.47 160.00 C 48.91 159.33 45.15 156.45 42.65 157.83 C 42.19 157.13 41.66 156.50 41.06 155.95 C 37.31 153.56 34.01 150.30 31.15 146.90 C 29.97 145.37 28.22 144.77 27.23 143.10 C 29.85 143.49 32.52 143.97 35.00 144.91 C 35.12 141.67 30.00 142.62 28.96 139.97 C 29.02 138.34 30.85 137.90 31.99 139.04 C 32.06 141.90 32.01 141.66 34.78 142.70 C 34.51 139.70 33.39 136.50 31.78 133.93 L 31.99 132.06 C 29.80 129.42 27.13 127.47 25.71 124.18 C 25.19 122.85 25.15 121.63 25.60 120.51 L 28.09 120.50 L 31.07 122.21 C 29.97 120.54 28.41 116.92 26.02 116.94 C 25.08 115.15 26.12 114.30 28.00 115.01 C 27.75 117.30 29.30 118.62 30.87 120.06 C 30.55 117.37 30.73 114.71 30.69 112.02 C 27.37 108.05 26.88 103.85 26.37 98.92 C 29.00 99.69 30.02 101.77 32.02 103.26 L 31.94 101.98 L 31.07 100.71 C 32.87 99.41 31.08 95.78 32.89 95.55 C 33.62 96.14 34.10 96.99 34.33 98.10 C 32.59 98.44 32.40 100.36 33.21 101.65 C 34.85 101.78 34.70 99.17 34.33 98.10 C 35.78 96.60 35.30 94.02 36.77 92.71 Z" fill="#007144"/>
<path d="M 39.50 94.01 L 39.87 94.79 L 39.50 94.01 Z" fill="#584b07"/>
<path d="M 95.37 95.22 C 98.05 94.37 102.01 94.47 104.72 95.18 C 104.86 109.36 104.56 123.76 104.87 137.91 C 106.62 137.93 108.37 137.93 110.11 137.89 C 110.44 124.45 110.16 110.50 110.25 97.00 C 112.25 97.12 114.70 98.70 116.15 100.03 C 116.32 106.32 116.12 112.63 116.23 118.92 C 117.86 119.29 120.07 119.36 121.66 118.85 C 121.71 114.46 121.59 110.07 121.69 105.68 L 122.70 106.28 C 130.68 117.29 129.33 133.07 119.50 142.48 C 110.19 151.80 94.16 153.38 83.84 144.98 C 83.78 130.02 83.74 114.99 83.86 100.03 C 85.34 98.67 87.83 97.25 89.82 96.86 C 89.92 104.16 89.60 111.60 89.96 118.86 C 91.70 118.92 93.44 118.91 95.18 118.92 C 95.63 111.23 95.22 102.99 95.37 95.22 Z" fill="#ed1b24"/>
<path d="M 27.62 96.42 C 29.21 94.89 30.56 96.08 30.29 98.14 C 30.36 100.48 26.32 97.65 27.62 96.42 Z" fill="#3a6753"/>
<path d="M 34.33 98.10 C 34.70 99.17 34.85 101.78 33.21 101.65 C 32.40 100.36 32.59 98.44 34.33 98.10 Z" fill="#00955b"/>
<path d="M 167.64 97.42 C 166.94 99.56 166.79 101.71 167.22 103.92 L 168.68 104.08 C 168.61 102.27 167.57 101.43 169.34 100.14 C 170.64 100.22 171.74 101.48 170.67 102.59 C 168.91 103.58 167.70 105.15 167.57 107.21 C 169.48 106.99 170.24 104.75 172.24 104.77 C 170.80 107.56 171.38 110.54 169.64 113.28 C 172.70 114.45 169.34 116.81 170.00 119.28 C 172.77 119.82 171.70 115.02 175.14 115.92 C 175.44 117.44 174.85 118.22 173.39 118.27 C 171.16 119.23 169.47 121.06 169.98 123.72 C 171.29 123.02 172.73 122.69 174.09 122.10 C 174.76 121.72 175.22 121.86 175.47 122.54 C 173.63 127.53 170.85 131.71 166.11 134.36 C 166.13 134.88 166.71 135.27 167.85 135.54 C 165.92 137.49 163.19 141.96 165.00 144.55 C 166.38 143.80 167.86 142.73 168.09 141.07 C 169.05 139.17 171.09 139.95 171.04 141.90 C 170.11 142.31 169.12 142.61 168.09 142.79 C 166.93 144.32 165.09 144.49 165.07 146.71 C 166.85 145.80 168.73 145.86 170.67 145.75 C 171.61 146.78 168.82 148.27 168.32 149.20 L 167.79 147.12 C 166.09 146.77 164.37 148.09 162.93 148.88 C 161.04 150.18 158.44 151.47 158.06 153.97 C 161.29 152.36 163.43 148.96 167.45 150.15 C 164.53 153.58 161.04 157.04 156.24 157.13 C 155.95 157.76 155.65 158.39 155.36 159.01 C 154.92 158.22 154.45 157.46 153.94 156.71 C 151.25 154.67 151.20 152.17 150.57 149.17 C 151.02 148.11 151.47 147.05 151.89 145.98 C 151.90 148.22 151.94 150.47 152.17 152.70 L 152.84 152.82 C 153.11 149.82 153.02 146.76 152.80 143.75 L 153.10 143.03 C 153.92 142.21 154.75 141.48 155.79 140.94 C 154.90 144.22 155.96 147.45 154.74 150.57 C 154.06 152.19 154.85 153.37 155.51 154.81 C 157.21 149.36 158.49 144.41 156.88 138.72 C 158.33 139.16 158.94 139.67 159.80 140.87 C 159.55 142.49 159.24 144.10 159.15 145.74 C 160.15 144.78 161.09 143.75 162.11 142.81 C 162.28 144.65 161.92 146.33 161.45 148.09 C 162.26 147.69 163.04 147.25 163.80 146.78 C 164.03 143.49 163.51 140.50 164.71 137.29 C 163.74 137.46 162.79 137.67 161.80 137.77 C 159.29 135.07 157.70 133.02 157.66 129.14 C 160.11 128.38 159.32 128.02 159.50 125.93 C 162.72 126.49 161.95 132.22 162.50 134.60 L 163.63 134.58 C 164.64 130.74 163.78 127.56 162.33 124.03 C 164.92 121.95 162.56 120.93 162.91 118.23 C 160.01 116.59 157.50 115.08 156.37 111.73 L 156.06 110.92 C 156.13 109.56 156.18 108.21 156.21 106.85 C 158.54 107.64 158.06 105.71 157.84 104.19 C 157.29 103.86 156.68 104.17 156.02 105.11 C 156.43 103.32 157.17 101.66 157.87 99.96 C 158.15 101.80 158.35 104.01 159.29 105.66 C 159.88 106.63 161.36 107.59 161.26 108.78 C 160.48 108.65 159.69 108.53 158.90 108.40 C 159.11 109.75 159.23 110.78 160.32 111.71 C 160.71 111.09 161.17 110.57 161.69 110.16 C 162.04 111.04 162.40 111.92 162.74 112.80 C 163.07 109.93 162.85 107.03 163.20 104.17 C 164.17 102.29 167.36 101.44 164.63 99.53 C 165.49 98.54 166.50 97.83 167.64 97.42 Z" fill="#006e42"/>
<path d="M 158.07 99.33 L 159.52 98.61 L 160.89 98.89 C 162.14 101.34 161.08 103.37 161.10 105.94 C 162.13 104.21 163.05 102.42 163.84 100.57 L 164.63 99.53 C 167.36 101.44 164.17 102.29 163.20 104.17 C 162.85 107.03 163.07 109.93 162.74 112.80 C 162.40 111.92 162.04 111.04 161.69 110.16 C 161.17 110.57 160.71 111.09 160.32 111.71 C 159.23 110.78 159.11 109.75 158.90 108.40 C 159.69 108.53 160.48 108.65 161.26 108.78 C 161.36 107.59 159.88 106.63 159.29 105.66 C 158.35 104.01 158.15 101.80 157.87 99.96 L 158.07 99.33 Z" fill="#01834f"/>
<path d="M 160.89 98.89 C 161.68 99.23 162.34 99.89 162.86 100.84 L 163.84 100.57 C 163.05 102.42 162.13 104.21 161.10 105.94 C 161.08 103.37 162.14 101.34 160.89 98.89 Z" fill="#28644b"/>
<path d="M 40.87 100.29 C 42.27 101.40 40.63 101.95 40.03 102.96 C 40.18 103.63 40.33 104.30 40.49 104.96 C 39.97 105.52 39.26 105.75 38.35 105.67 C 37.28 103.46 38.70 100.81 40.87 100.29 Z" fill="#009058"/>
<path d="M 157.84 104.19 C 158.06 105.71 158.54 107.64 156.21 106.85 L 155.78 106.04 L 156.02 105.11 C 156.68 104.17 157.29 103.86 157.84 104.19 Z" fill="#d9d8d9"/>
<path d="M 42.90 105.09 C 42.69 106.66 42.32 108.18 41.78 109.66 C 41.05 109.68 38.92 110.04 38.90 108.95 C 39.93 107.35 41.33 106.14 42.90 105.09 Z" fill="#00955b"/>
<path d="M 165.90 104.59 C 167.06 105.35 166.91 107.48 167.29 108.73 C 168.39 111.77 163.40 115.58 165.42 118.63 C 166.84 118.99 167.91 117.10 168.96 116.35 C 169.00 118.54 169.09 120.75 168.90 122.94 C 168.54 124.43 167.14 125.70 166.07 126.74 C 166.37 125.11 167.15 123.71 167.73 122.18 C 167.00 121.01 166.29 121.50 165.13 121.42 C 164.14 118.71 163.92 116.52 164.55 113.67 C 165.11 110.78 163.24 106.66 165.90 104.59 Z" fill="#008450"/>
<path d="M 155.78 106.04 L 156.21 106.85 C 156.18 108.21 156.13 109.56 156.06 110.92 C 154.87 109.84 154.91 108.53 154.69 107.05 L 155.78 106.04 Z" fill="#742c0e"/>
<path d="M 37.27 108.16 L 38.10 108.12 L 38.44 108.93 L 37.97 109.77 C 36.94 110.01 36.71 109.48 37.27 108.16 Z" fill="#01170c"/>
<path d="M 43.55 107.35 L 44.78 107.69 C 44.37 111.21 43.53 114.73 43.15 118.32 L 42.01 116.36 C 41.68 115.87 41.09 115.50 40.22 115.26 C 39.81 117.78 38.61 119.99 37.98 122.45 L 37.93 124.09 C 36.77 122.48 36.39 119.94 35.98 117.99 C 39.25 114.78 42.90 112.34 43.55 107.35 Z" fill="#ffffff"/>
<path d="M 33.13 111.23 C 33.62 111.12 33.99 111.62 34.24 112.71 C 34.34 113.34 36.04 116.02 34.40 115.77 C 33.05 114.67 32.35 112.86 33.13 111.23 Z" fill="#012917"/>
<path d="M 156.37 111.73 C 157.50 115.08 160.01 116.59 162.91 118.23 C 162.56 120.93 164.92 121.95 162.33 124.03 C 161.84 122.80 161.10 121.59 160.27 120.56 C 160.09 119.50 159.75 119.00 159.23 119.05 C 158.18 120.85 157.68 122.78 157.72 124.87 C 157.42 126.22 157.40 127.64 157.66 129.14 C 157.70 133.02 159.29 135.07 161.80 137.77 L 160.05 139.23 L 159.80 140.87 C 158.94 139.67 158.33 139.16 156.88 138.72 C 157.60 138.61 158.32 138.52 159.04 138.45 L 159.05 135.79 C 158.18 135.31 157.26 135.66 156.30 136.81 L 155.62 135.58 C 156.29 132.45 156.05 128.95 157.30 126.01 C 157.16 124.33 156.96 122.67 157.01 120.98 C 157.16 117.79 155.85 114.88 156.37 111.73 Z" fill="#ffffff"/>
<path d="M 40.22 115.26 C 41.09 115.50 41.68 115.87 42.01 116.36 C 40.26 118.16 39.48 120.48 37.98 122.45 C 38.61 119.99 39.81 117.78 40.22 115.26 Z" fill="#3c6e59"/>
<path d="M 42.01 116.36 L 43.15 118.32 C 42.91 121.25 43.60 124.94 42.31 127.63 C 41.56 128.42 40.79 129.19 40.00 129.94 C 39.95 127.09 41.32 124.83 41.89 122.13 C 40.45 121.67 39.73 121.97 39.75 123.02 C 38.82 125.81 39.44 129.67 37.40 131.81 C 37.61 129.18 38.20 126.75 37.93 124.09 L 37.98 122.45 C 39.48 120.48 40.26 118.16 42.01 116.36 Z" fill="#008752"/>
<path d="M 23.97 118.95 C 25.72 118.63 26.79 119.52 28.09 120.50 L 25.60 120.51 C 25.15 121.63 25.19 122.85 25.71 124.18 C 24.70 122.67 24.49 120.68 23.97 118.95 Z" fill="#4f7867"/>
<path d="M 159.23 119.05 C 159.75 119.00 160.09 119.50 160.27 120.56 C 159.49 122.09 158.91 123.60 157.72 124.87 C 157.68 122.78 158.18 120.85 159.23 119.05 Z" fill="#3d6956"/>
<path d="M 160.27 120.56 C 161.10 121.59 161.84 122.80 162.33 124.03 C 163.78 127.56 164.64 130.74 163.63 134.58 L 162.50 134.60 C 161.95 132.22 162.72 126.49 159.50 125.93 C 159.32 128.02 160.11 128.38 157.66 129.14 C 157.40 127.64 157.42 126.22 157.72 124.87 C 158.91 123.60 159.49 122.09 160.27 120.56 Z" fill="#018954"/>
<path d="M 43.33 127.03 C 43.68 129.27 43.99 131.53 44.09 133.80 L 42.86 136.25 C 41.99 135.47 40.38 134.98 39.95 133.98 C 40.59 131.86 41.79 129.83 42.31 127.63 L 43.33 127.03 Z" fill="#f5dfe0"/>
<path d="M 159.19 130.33 C 160.76 129.55 162.06 133.94 160.23 133.95 C 159.05 133.31 158.59 131.49 159.19 130.33 Z" fill="#00965c"/>
<path d="M 37.94 136.00 C 38.86 135.84 39.69 136.32 40.41 137.44 L 41.18 136.52 C 42.49 137.75 42.18 138.69 41.95 140.42 C 41.06 139.76 40.15 139.18 39.21 138.67 C 38.74 137.80 38.32 136.91 37.94 136.00 Z" fill="#c5c7c6"/>
<path d="M 155.62 135.58 L 156.30 136.81 C 157.26 135.66 158.18 135.31 159.05 135.79 L 159.04 138.45 C 158.32 138.52 157.60 138.61 156.88 138.72 C 158.49 144.41 157.21 149.36 155.51 154.81 C 154.85 153.37 154.06 152.19 154.74 150.57 C 155.96 147.45 154.90 144.22 155.79 140.94 C 154.75 141.48 153.92 142.21 153.10 143.03 C 154.17 140.62 154.71 138.05 155.62 135.58 Z" fill="#00935a"/>
<path d="M 164.71 137.29 C 163.51 140.50 164.03 143.49 163.80 146.78 C 163.04 147.25 162.26 147.69 161.45 148.09 C 161.92 146.33 162.28 144.65 162.11 142.81 C 161.09 143.75 160.15 144.78 159.15 145.74 C 159.24 144.10 159.55 142.49 159.80 140.87 L 160.05 139.23 L 161.80 137.77 C 162.79 137.67 163.74 137.46 164.71 137.29 Z" fill="#019158"/>
<path d="M 45.16 137.80 C 45.46 138.81 45.77 139.81 46.07 140.82 C 45.79 144.51 46.05 148.19 45.88 151.88 L 45.13 151.83 C 45.00 147.16 45.22 142.48 45.16 137.80 Z" fill="#158c55"/>
<path d="M 39.21 138.67 C 40.15 139.18 41.06 139.76 41.95 140.42 C 42.09 141.34 41.85 141.85 41.22 141.94 C 39.75 141.54 39.31 140.03 39.21 138.67 Z" fill="#273f34"/>
<path d="M 152.80 143.75 C 153.02 146.76 153.11 149.82 152.84 152.82 L 152.17 152.70 C 151.94 150.47 151.90 148.22 151.89 145.98 C 152.18 145.23 152.49 144.49 152.80 143.75 Z" fill="#129159"/>
<path d="M 47.05 143.98 C 49.33 148.75 51.74 152.91 54.71 157.26 C 54.42 159.52 54.78 161.71 54.83 163.96 C 54.15 163.31 53.53 162.62 52.96 161.89 L 52.89 161.27 L 52.38 160.92 L 51.47 160.00 C 50.94 158.49 51.28 156.52 51.96 155.08 C 51.34 154.76 50.71 154.46 50.07 154.19 C 49.11 156.31 50.94 156.55 51.09 158.52 L 50.11 158.75 C 48.61 157.45 46.61 157.09 45.23 155.74 C 45.32 155.10 45.54 154.47 45.90 153.87 C 47.76 150.97 46.77 147.35 47.05 143.98 Z" fill="#ffffff"/>
<path d="M 167.79 147.12 L 168.32 149.20 L 167.45 150.15 C 163.43 148.96 161.29 152.36 158.06 153.97 C 158.44 151.47 161.04 150.18 162.93 148.88 C 164.37 148.09 166.09 146.77 167.79 147.12 Z" fill="#028853"/>
<path d="M 150.57 149.17 C 151.20 152.17 151.25 154.67 153.94 156.71 C 152.77 157.38 151.64 158.11 150.56 158.89 L 150.08 159.06 L 149.83 159.50 C 149.05 160.44 148.14 161.12 147.09 161.54 C 146.95 160.56 147.01 159.63 147.26 158.75 C 148.06 158.32 148.60 157.75 148.89 157.02 C 148.46 156.11 147.58 155.70 146.27 155.78 C 147.89 153.68 149.03 151.32 150.57 149.17 Z" fill="#ffffff"/>
<path d="M 146.27 155.78 C 147.58 155.70 148.46 156.11 148.89 157.02 C 148.60 157.75 148.06 158.32 147.26 158.75 C 147.01 159.63 146.95 160.56 147.09 161.54 C 148.14 161.12 149.05 160.44 149.83 159.50 L 150.56 158.89 C 151.64 158.11 152.77 157.38 153.94 156.71 C 154.45 157.46 154.92 158.22 155.36 159.01 C 154.69 161.02 153.24 162.85 152.96 164.90 C 154.97 164.03 156.83 164.02 158.10 162.06 C 159.12 161.28 159.64 161.84 160.63 162.33 C 160.50 162.96 160.27 163.53 159.95 164.05 C 157.17 163.63 155.21 164.70 152.64 165.39 C 150.97 166.61 150.33 167.70 150.73 168.66 C 152.85 167.59 155.00 167.97 157.27 168.02 C 156.84 169.55 155.10 170.65 154.08 171.87 C 154.37 170.95 154.64 170.02 154.89 169.09 C 150.84 168.30 148.67 170.68 145.25 172.19 C 143.86 173.01 142.44 173.12 142.04 174.91 C 145.19 174.92 146.96 171.47 149.89 171.82 C 150.77 172.28 151.64 172.78 152.49 173.31 C 149.70 175.71 145.44 177.37 141.79 176.40 C 139.05 179.23 136.70 183.33 133.36 186.37 C 128.19 191.39 122.39 197.79 114.95 198.97 C 111.69 198.61 110.34 197.66 108.73 194.84 C 107.03 197.57 105.16 198.83 102.18 200.00 L 97.66 200.00 C 94.72 198.78 93.03 197.42 91.25 194.80 C 90.11 196.78 89.25 198.20 86.84 198.60 C 82.43 199.55 77.68 196.23 74.41 193.60 C 67.57 187.92 61.67 181.44 56.93 173.91 C 54.59 174.17 52.93 175.43 50.48 174.41 C 46.22 173.47 44.58 169.74 41.23 167.11 C 43.08 166.74 44.68 166.41 46.60 166.75 C 46.77 163.53 40.81 163.09 38.52 161.78 C 38.73 161.33 38.97 160.90 39.22 160.48 C 39.77 160.63 40.31 160.82 40.84 161.03 C 41.51 163.08 43.28 162.85 45.01 163.55 C 45.03 161.57 43.59 159.52 42.65 157.83 C 45.15 156.45 48.91 159.33 51.47 160.00 L 52.38 160.92 L 52.96 161.89 C 53.53 162.62 54.15 163.31 54.83 163.96 C 54.78 161.71 54.42 159.52 54.71 157.26 C 56.94 159.81 59.19 162.24 61.58 164.64 C 60.54 168.11 57.33 170.73 57.84 174.26 C 60.76 174.56 59.70 170.73 61.59 170.31 C 61.34 172.07 57.72 176.03 61.10 176.38 C 62.12 174.98 62.30 173.05 63.74 172.13 C 63.15 174.02 61.22 176.33 62.06 178.29 L 63.22 178.52 C 63.59 177.44 64.14 176.59 64.88 175.97 C 64.33 178.04 63.02 179.80 65.11 181.56 C 67.02 180.93 66.09 177.73 67.88 176.92 C 67.79 178.53 65.27 181.99 66.92 182.95 C 67.85 182.32 68.96 182.38 70.22 183.13 C 70.92 182.17 70.75 178.03 71.95 178.21 C 71.59 179.85 71.23 181.49 70.87 183.14 L 71.46 184.01 C 70.90 185.60 71.11 186.53 72.08 186.80 C 72.76 186.30 73.45 185.80 74.14 185.29 L 73.23 186.95 L 72.91 187.66 L 73.77 188.36 L 74.57 187.55 L 73.23 186.95 C 74.00 187.46 74.83 187.21 75.75 186.20 L 75.28 187.74 L 75.92 188.92 L 75.31 188.17 C 74.41 188.27 74.06 189.00 74.26 190.36 C 76.37 191.02 76.92 190.54 75.92 188.92 L 77.29 188.55 C 77.61 186.72 79.02 186.11 80.15 184.67 L 80.45 186.37 C 83.63 184.33 86.47 183.16 89.95 181.77 C 90.01 180.75 89.39 179.90 88.09 179.21 C 85.48 179.77 81.62 179.10 80.09 176.61 C 77.38 177.52 78.08 175.57 75.70 175.18 C 74.84 175.04 73.94 175.05 73.01 175.19 C 71.53 173.88 71.71 172.38 69.53 171.51 C 67.98 169.69 64.45 170.17 64.94 167.56 C 74.00 175.10 85.34 178.94 97.04 179.61 L 97.06 181.02 C 99.74 181.41 102.63 181.50 105.36 181.84 C 104.73 180.76 103.90 179.98 102.86 179.49 C 104.64 179.51 106.41 179.37 108.18 179.21 L 110.03 181.55 C 108.56 181.37 107.09 181.28 105.61 181.27 C 106.59 182.32 107.40 183.61 108.51 184.52 C 111.10 185.85 115.29 186.30 117.32 188.52 C 117.87 190.07 118.24 193.47 116.59 194.49 C 115.14 194.67 113.65 194.67 112.19 194.69 C 113.07 192.57 112.93 192.24 112.28 190.07 C 113.94 191.46 113.48 192.37 113.31 194.36 C 114.53 194.35 115.66 194.12 116.70 193.68 C 117.74 191.78 117.66 189.37 115.89 187.95 C 113.40 186.70 110.66 185.97 108.00 185.02 C 109.38 187.00 109.24 189.38 110.52 191.29 C 109.41 193.39 108.96 195.26 111.07 196.91 C 115.15 200.67 122.03 196.14 120.77 190.94 C 119.92 185.65 114.58 183.91 110.05 182.77 C 110.40 182.47 110.79 182.30 111.20 182.26 C 114.61 183.72 118.80 184.73 120.49 188.42 C 121.68 190.20 121.52 192.00 121.34 194.05 L 122.80 193.51 L 123.31 192.31 C 123.63 191.56 123.94 190.80 124.25 190.04 C 125.12 190.20 125.98 190.45 126.82 190.80 C 127.65 189.97 128.41 189.16 129.41 188.54 C 131.15 186.31 130.87 182.19 128.57 180.38 C 127.57 179.17 125.88 179.20 124.92 178.03 C 127.31 178.26 130.49 180.43 130.74 182.97 C 130.87 184.18 131.27 185.17 131.96 185.94 C 133.20 184.36 132.52 183.03 134.87 182.71 C 136.67 180.02 133.52 177.85 132.07 175.91 C 134.98 176.48 134.82 180.23 136.81 181.01 C 136.94 180.14 137.05 179.28 137.15 178.41 L 139.01 178.30 C 139.33 175.29 135.80 172.49 133.98 170.41 L 132.73 170.68 L 132.08 171.93 C 132.96 172.97 134.56 173.80 134.99 175.14 C 133.45 174.15 132.30 172.63 130.81 171.56 C 130.04 171.78 129.36 172.29 128.76 173.07 C 128.69 174.60 131.22 174.81 132.07 175.91 C 129.31 176.24 126.76 170.85 124.94 175.10 C 127.56 176.26 132.44 177.84 133.12 181.04 C 130.24 177.66 127.15 176.30 122.90 175.22 C 121.54 176.36 120.00 177.23 118.63 178.35 C 116.84 178.22 115.13 178.20 113.36 178.60 C 112.64 179.52 111.82 180.28 110.92 180.88 C 111.35 180.02 111.90 179.22 112.57 178.48 C 124.26 175.72 135.58 169.06 143.13 159.62 L 144.02 159.14 L 145.00 159.65 C 144.99 161.10 145.00 162.55 145.02 164.00 L 146.96 163.00 C 146.61 160.71 146.79 158.46 146.86 156.16 L 145.68 156.42 C 145.88 156.19 146.08 155.97 146.27 155.78 Z" fill="#016c41"/>
<path d="M 145.68 156.42 L 146.86 156.16 C 146.79 158.46 146.61 160.71 146.96 163.00 L 145.02 164.00 C 145.00 162.55 144.99 161.10 145.00 159.65 L 144.02 159.14 L 143.13 159.62 C 144.08 158.63 144.88 157.53 145.68 156.42 Z" fill="#cecfcb"/>
<path d="M 150.08 159.06 L 150.56 158.89 L 149.83 159.50 L 150.08 159.06 Z" fill="#012615"/>
<path d="M 48.78 161.35 C 49.66 162.48 50.36 163.69 50.94 165.00 C 49.78 164.67 48.64 164.25 47.57 163.69 C 47.69 162.62 48.00 162.07 48.78 161.35 Z" fill="#005733"/>
<path d="M 52.38 160.92 L 52.89 161.27 L 52.96 161.89 L 52.38 160.92 Z" fill="#474646"/>
<path d="M 143.82 164.31 C 144.44 165.31 144.41 166.40 143.74 167.59 C 142.40 168.09 142.44 163.72 143.82 164.31 Z" fill="#009158"/>
<path d="M 61.58 164.64 C 62.80 165.49 63.94 166.45 64.94 167.56 C 64.45 170.17 67.98 169.69 69.53 171.51 C 71.71 172.38 71.53 173.88 73.01 175.19 C 73.94 175.05 74.84 175.04 75.70 175.18 C 78.08 175.57 77.38 177.52 80.09 176.61 C 81.62 179.10 85.48 179.77 88.09 179.21 C 89.39 179.90 90.01 180.75 89.95 181.77 C 86.47 183.16 83.63 184.33 80.45 186.37 L 80.15 184.67 C 79.02 186.11 77.61 186.72 77.29 188.55 L 75.92 188.92 L 75.28 187.74 L 75.75 186.20 C 74.83 187.21 74.00 187.46 73.23 186.95 L 74.14 185.29 C 75.10 184.55 76.03 183.76 77.01 183.04 L 76.99 184.81 C 77.49 185.77 80.24 182.63 79.72 182.08 C 78.92 181.96 78.02 182.28 77.01 183.04 L 76.99 180.85 C 75.13 182.28 73.65 183.12 71.46 184.01 L 70.87 183.14 C 71.23 181.49 71.59 179.85 71.95 178.21 C 70.75 178.03 70.92 182.17 70.22 183.13 C 68.96 182.38 67.85 182.32 66.92 182.95 C 65.27 181.99 67.79 178.53 67.88 176.92 C 66.09 177.73 67.02 180.93 65.11 181.56 C 63.02 179.80 64.33 178.04 64.88 175.97 C 64.14 176.59 63.59 177.44 63.22 178.52 L 62.06 178.29 C 61.22 176.33 63.15 174.02 63.74 172.13 C 62.30 173.05 62.12 174.98 61.10 176.38 C 57.72 176.03 61.34 172.07 61.59 170.31 C 59.70 170.73 60.76 174.56 57.84 174.26 C 57.33 170.73 60.54 168.11 61.58 164.64 Z" fill="#ffe300"/>
<path d="M 137.08 167.00 C 140.31 166.32 141.06 170.66 141.06 172.94 L 140.09 172.84 C 139.75 170.89 135.73 168.79 137.08 167.00 Z" fill="#dfcc03"/>
<path d="M 136.67 169.03 C 138.69 171.15 140.49 173.42 140.44 176.51 L 139.20 176.37 C 138.37 173.62 136.21 172.35 134.53 170.10 C 134.69 168.94 135.40 168.58 136.67 169.03 Z" fill="#f4e201"/>
<path d="M 154.89 169.09 C 154.64 170.02 154.37 170.95 154.08 171.87 C 153.58 172.37 153.05 172.85 152.49 173.31 C 151.64 172.78 150.77 172.28 149.89 171.82 C 146.96 171.47 145.19 174.92 142.04 174.91 C 142.44 173.12 143.86 173.01 145.25 172.19 C 148.67 170.68 150.84 168.30 154.89 169.09 Z" fill="#008752"/>
<path d="M 132.73 170.68 L 133.98 170.41 C 135.80 172.49 139.33 175.29 139.01 178.30 L 137.15 178.41 C 137.33 177.02 136.97 176.20 136.07 175.93 L 135.80 175.15 L 134.99 175.14 C 134.56 173.80 132.96 172.97 132.08 171.93 L 132.73 170.68 Z" fill="#f3e201"/>
<path d="M 130.81 171.56 C 132.30 172.63 133.45 174.15 134.99 175.14 L 135.23 175.93 L 136.07 175.93 C 135.73 177.06 136.09 177.88 137.15 178.41 C 137.05 179.28 136.94 180.14 136.81 181.01 C 134.82 180.23 134.98 176.48 132.07 175.91 C 131.22 174.81 128.69 174.60 128.76 173.07 C 129.36 172.29 130.04 171.78 130.81 171.56 Z" fill="#eedb02"/>
<path d="M 132.07 175.91 C 133.52 177.85 136.67 180.02 134.87 182.71 C 132.52 183.03 133.20 184.36 131.96 185.94 C 131.27 185.17 130.87 184.18 130.74 182.97 C 130.49 180.43 127.31 178.26 124.92 178.03 C 125.88 179.20 127.57 179.17 128.57 180.38 C 130.87 182.19 131.15 186.31 129.41 188.54 C 128.82 186.19 129.12 183.59 127.19 181.82 C 125.60 180.58 123.67 179.37 121.71 178.86 C 121.59 180.41 123.12 180.75 124.06 181.69 L 121.74 182.07 C 123.18 184.23 125.57 185.24 124.99 188.19 C 122.78 184.68 119.50 180.71 114.93 181.00 C 115.62 182.68 118.54 182.98 119.92 184.16 C 122.91 186.07 123.65 188.89 123.31 192.31 L 122.80 193.51 L 121.34 194.05 C 121.52 192.00 121.68 190.20 120.49 188.42 C 118.80 184.73 114.61 183.72 111.20 182.26 C 110.79 182.30 110.40 182.47 110.05 182.77 C 114.58 183.91 119.92 185.65 120.77 190.94 C 122.03 196.14 115.15 200.67 111.07 196.91 C 108.96 195.26 109.41 193.39 110.52 191.29 C 109.24 189.38 109.38 187.00 108.00 185.02 C 110.66 185.97 113.40 186.70 115.89 187.95 C 117.66 189.37 117.74 191.78 116.70 193.68 C 115.66 194.12 114.53 194.35 113.31 194.36 C 113.48 192.37 113.94 191.46 112.28 190.07 C 112.93 192.24 113.07 192.57 112.19 194.69 C 113.65 194.67 115.14 194.67 116.59 194.49 C 118.24 193.47 117.87 190.07 117.32 188.52 C 115.29 186.30 111.10 185.85 108.51 184.52 C 107.40 183.61 106.59 182.32 105.61 181.27 C 107.09 181.28 108.56 181.37 110.03 181.55 L 108.18 179.21 C 109.64 178.84 111.04 178.45 112.57 178.48 C 111.90 179.22 111.35 180.02 110.92 180.88 C 111.82 180.28 112.64 179.52 113.36 178.60 C 115.13 178.20 116.84 178.22 118.63 178.35 C 120.00 177.23 121.54 176.36 122.90 175.22 C 127.15 176.30 130.24 177.66 133.12 181.04 C 132.44 177.84 127.56 176.26 124.94 175.10 C 126.76 170.85 129.31 176.24 132.07 175.91 Z" fill="#ffe400"/>
<path d="M 134.99 175.14 L 135.80 175.15 L 136.07 175.93 L 135.23 175.93 L 134.99 175.14 Z" fill="#7c6b06"/>
<path d="M 136.07 175.93 C 136.97 176.20 137.33 177.02 137.15 178.41 C 136.09 177.88 135.73 177.06 136.07 175.93 Z" fill="#938109"/>
<path d="M 102.86 179.49 C 103.90 179.98 104.73 180.76 105.36 181.84 C 102.63 181.50 99.74 181.41 97.06 181.02 L 97.04 179.61 C 99.04 179.26 100.84 179.23 102.86 179.49 Z" fill="#f4bc09"/>
<path d="M 121.71 178.86 C 123.67 179.37 125.60 180.58 127.19 181.82 C 129.12 183.59 128.82 186.19 129.41 188.54 C 128.41 189.16 127.65 189.97 126.82 190.80 C 125.98 190.45 125.12 190.20 124.25 190.04 C 123.94 190.80 123.63 191.56 123.31 192.31 C 123.65 188.89 122.91 186.07 119.92 184.16 C 118.54 182.98 115.62 182.68 114.93 181.00 C 119.50 180.71 122.78 184.68 124.99 188.19 C 125.57 185.24 123.18 184.23 121.74 182.07 L 124.06 181.69 C 124.80 183.61 125.92 185.50 126.97 187.27 C 128.36 187.18 127.04 184.89 127.04 184.08 C 126.84 182.70 125.25 182.03 124.06 181.69 C 123.12 180.75 121.59 180.41 121.71 178.86 Z" fill="#ab9707"/>
<path d="M 76.99 180.85 L 77.01 183.04 C 76.03 183.76 75.10 184.55 74.14 185.29 C 73.45 185.80 72.76 186.30 72.08 186.80 C 71.11 186.53 70.90 185.60 71.46 184.01 C 73.65 183.12 75.13 182.28 76.99 180.85 Z" fill="#c1af05"/>
<path d="M 79.72 182.08 C 80.24 182.63 77.49 185.77 76.99 184.81 L 77.01 183.04 C 78.02 182.28 78.92 181.96 79.72 182.08 Z" fill="#a08c08"/>
<path d="M 93.01 181.83 C 93.18 182.92 92.90 183.73 92.17 184.26 C 89.57 185.62 85.69 186.05 83.12 188.15 C 81.83 189.43 82.10 191.99 82.57 193.57 C 84.03 195.12 85.80 195.89 87.76 194.73 C 87.65 193.83 87.36 192.94 86.88 192.06 C 88.07 190.39 90.03 190.92 90.35 192.98 C 91.35 196.11 87.77 198.53 85.00 198.26 C 81.35 197.88 79.37 195.15 78.64 191.72 C 79.44 190.39 79.48 189.48 79.52 187.95 C 82.63 185.66 85.28 183.96 89.03 182.80 C 90.88 181.32 90.38 180.89 93.01 181.83 Z" fill="#f5e101"/>
<path d="M 104.93 183.90 C 103.63 183.99 101.36 183.77 100.41 182.84 C 100.10 181.01 105.74 182.63 104.93 183.90 Z" fill="#f0dc02"/>
<path d="M 124.06 181.69 C 125.25 182.03 126.84 182.70 127.04 184.08 C 127.04 184.89 128.36 187.18 126.97 187.27 C 125.92 185.50 124.80 183.61 124.06 181.69 Z" fill="#f7e501"/>
<path d="M 97.78 183.25 C 98.03 184.87 97.27 186.25 97.80 187.95 C 97.06 188.91 96.76 190.17 95.89 191.01 C 94.29 191.42 92.45 190.78 90.79 190.81 C 91.35 188.59 91.16 186.59 92.96 184.94 C 94.20 183.63 95.92 181.92 97.78 183.25 Z" fill="#f4df01"/>
<path d="M 98.74 183.06 L 99.82 183.09 L 100.26 183.86 L 99.78 184.75 L 98.78 184.85 L 98.19 183.96 L 98.74 183.06 Z" fill="#ebd103"/>
<path d="M 95.29 184.96 C 97.58 184.86 94.41 189.47 93.92 187.05 C 94.01 186.25 94.46 185.56 95.29 184.96 Z" fill="#a89408"/>
<path d="M 105.35 184.27 C 106.27 185.24 107.25 186.10 108.24 186.99 C 108.28 188.30 107.90 189.30 107.11 189.99 C 104.90 189.33 102.80 188.28 100.67 187.41 L 100.21 188.11 C 102.58 188.64 104.97 189.73 107.07 190.95 C 108.95 191.97 107.72 194.39 106.12 194.84 C 103.46 192.98 100.91 191.35 97.56 191.16 C 96.54 189.77 98.89 186.97 99.52 185.56 C 100.56 183.13 103.39 185.14 105.35 184.27 Z" fill="#ffe300"/>
<path d="M 91.85 185.06 C 90.95 187.01 90.49 188.66 90.37 190.80 C 89.14 190.58 87.96 190.60 86.83 190.84 C 86.26 192.24 87.02 194.29 85.03 194.44 C 82.12 194.18 81.85 189.28 84.14 188.02 C 85.48 187.24 87.00 186.71 88.46 186.22 C 89.58 185.79 90.71 185.41 91.85 185.06 Z" fill="#ffe300"/>
<path d="M 72.91 187.66 L 73.23 186.95 L 74.57 187.55 L 73.77 188.36 L 72.91 187.66 Z" fill="#fff000"/>
<path d="M 75.31 188.17 L 75.92 188.92 C 76.92 190.54 76.37 191.02 74.26 190.36 C 74.06 189.00 74.41 188.27 75.31 188.17 Z" fill="#f6e601"/>
<path d="M 90.73 190.92 C 93.83 192.44 98.90 190.67 101.17 193.00 C 101.30 194.51 99.28 195.35 98.09 195.62 C 96.05 195.82 93.59 196.58 92.06 194.78 C 91.54 193.53 91.09 192.24 90.73 190.92 Z" fill="#ffe500"/>
<path d="M 106.03 196.12 C 104.08 199.47 97.27 199.86 95.23 196.56 C 97.44 196.41 99.12 196.16 100.93 194.83 C 102.58 193.37 105.29 194.04 106.03 196.12 Z" fill="#f5df01"/>
</svg>