<?xml version="1.0" encoding="utf-8"?>
<!-- Generator: Adobe Illustrator 25.0.1, SVG Export Plug-In . SVG Version: 6.00 Build 0)  -->
<svg version="1.0" id="Layer_1" xmlns="http://www.w3.org/2000/svg" xmlns:xlink="http://www.w3.org/1999/xlink" x="0px" y="0px"
	 viewBox="0 0 330 238" style="enable-background:new 0 0 330 238;" xml:space="preserve">
<style type="text/css">
	.st0{fill:#F7E116;}
	.st1{fill:#E11419;}
	.st2{fill:#118146;}
	.st3{fill:none;}
</style>
<path d="M218.6,183.2v-0.4l0.3,0.1L218.6,183.2L218.6,183.2L218.6,183.2z M218.6,178.7v-0.5l0.3-0.2c0-0.4,0.2-0.8,0.5-1
	c0.6-0.4,1.4-0.4,1.9,0c0.3,0.2,0.4,0.5,0.4,0.8c-0.1,0.5-0.5,1-1,1.1c-0.4,0.1-0.8,0.1-1.1,0c-0.3-0.1-0.5-0.2-0.6-0.4
	C218.9,178.6,218.7,178.7,218.6,178.7L218.6,178.7z M218.6,172.4v-17.9c0.3,0.6,0.6,1.3,0.9,2c0.1,0.3,0.2,0.7,0.3,1v-0.7
	c0-0.7-0.1-1.4-0.2-2.2c-0.3,0-0.6-0.2-0.7-0.4l0,0c-0.1-0.1-0.2-0.2-0.2-0.3v-1.2c0.1-0.1,0.1-0.2,0.2-0.3c0.3-0.4,1-0.5,1.4-0.2
	c0.1,0.1,0.1,0.1,0.2,0.2c0.2,0.3,0.3,0.6,0.3,0.9c0,0.3-0.1,0.6-0.3,0.9l0,0c-0.1,0.1-0.2,0.2-0.4,0.3c0.1,0.7,0.1,1.5,0.2,2.2
	c0,0.4,0,0.9,0,1.4c0.6-1.4,1.5-2.7,2.6-3.7c0.1-0.1,0.3-0.2,0.4-0.3c-1-0.8-1.8-1.7-2.5-2.7c-0.7-1.1-1.2-2.3-1.4-3.5
	c-0.3-1.8-0.4-3.6-0.2-5.4c0.2-1.9,0.7-3.7,1.3-5.5l0.2-0.4l0.2,0.4c0.4,0.7,0.9,1.5,1.4,2.3s1.3,1.8,1.9,2.6
	c0.1-0.9,0.2-1.7,0.6-2.5l0,0c-0.5-1.1-0.7-2.4-0.7-3.6c-2-0.8-3.7-2-5-3.7c-0.1-0.2-0.3-0.4-0.4-0.6v-6.2c0.4-0.1,0.8-0.1,1.2-0.1
	c-0.5-1.1-0.8-2.3-1-3.6c-0.1,0.1-0.1,0.3-0.2,0.4V99.1c2.4,3.1,4.5,6.1,4.9,8.3c0.3,1.4,0.2,3-0.4,4.3l-0.8,1.7
	c-0.6,1.3-1.2,2.6-1.8,4c0.8,0,1.5,0.3,2.2,0.7c0.7,0.5,1.2,1.2,1.4,2.1c0.6-0.8,1.3-1.5,2-2.2c0.7-0.6,1.6-1.2,2.4-1.7
	c-0.3,1-0.5,2-0.6,3.1c-0.1,0.9,0,1.7,0.2,2.6c0.2,0.5,0.3,1,0.4,1.4c0.2-0.2,0.4-0.4,0.6-0.7c0.2-0.3,0.4-0.6,0.6-1
	c-0.2-0.1-0.3-0.3-0.4-0.5c-0.3-0.7-0.1-1.5,0.5-2c0.3-0.2,0.7-0.3,1-0.2c0.3,0.1,0.6,0.3,0.7,0.6c0.2,0.3,0.2,0.7,0.1,1.1
	c-0.1,0.4-0.3,0.7-0.6,0.9c-0.2,0.2-0.5,0.3-0.9,0.3c-0.2,0.4-0.4,0.8-0.7,1.1c-0.3,0.4-0.6,0.7-0.9,1c0,0.2,0,0.4,0,0.6
	c0,0.6,0,1.2-0.1,1.8c1.3-1.3,2.7-2.4,4.2-3.3c-0.4,1.3-0.7,2.6-0.9,4c-0.2,1.3-0.6,2.6-1.1,3.8c-0.3,0.8-0.7,1.5-1.1,2.3
	c0.7-0.6,1.4-1.2,2.2-1.7c-0.2,0.6-0.3,1.3-0.4,1.9c-0.5,1.4-0.6,2.9-0.5,4.3c0.2-0.2,0.4-0.4,0.6-0.6c0.7-0.4,1.2-1,1.5-1.6
	c0.1-0.6,0.5-1.1,1-1.4c0.3-0.2,0.6-0.3,1-0.3c0.3,0,0.6,0.2,0.7,0.6c0,0.3,0,0.6-0.2,0.8c-0.2,0.4-0.5,0.7-0.9,0.8
	c-0.4,0.2-0.9,0.3-1.4,0.2c-0.4,0.5-0.9,0.9-1.4,1.3c-0.3,0.2-0.5,0.5-0.7,0.7c-0.1,0-0.1,0.1-0.1,0.2c0,0.6,0,1.2-0.2,1.7
	c-0.1,0.5-0.3,1-0.5,1.4c1.8-1.1,3.7-1.8,5.7-2.1c-0.6,1.3-1,2.7-1.7,4c-0.8,1.7-1.9,3.2-3.2,4.5c-1.3,1.3-2.7,2.4-4.2,3.4
	c-0.4,0.3-0.7,0.7-1,1.1c0.9-0.4,1.9-0.7,2.9-0.8c-0.3,0.3-0.5,0.5-0.7,0.9c-1.1,1.7-2.8,4.4-2.6,6.5c0.1,0.3,0.1,0.7,0.2,1
	c0.1,0.4,0.2,0.8,0.3,1.2c0.5-0.6,0.9-1.1,1.4-1.5s1.1-1,1.6-1.4c-0.1-0.3-0.2-0.6-0.1-0.9c0.2-0.6,0.9-1,1.6-0.9
	c0.6,0.1,1,0.7,0.9,1.3c0,0.1,0,0.1,0,0.2c-0.2,0.6-0.9,1-1.6,0.9c-0.2,0-0.3-0.1-0.5-0.2c-0.6,0.4-1.1,0.9-1.6,1.4
	c-0.6,0.6-1.2,1.2-1.7,1.8c0,0.3,0,0.7-0.1,1c1.9-0.8,4-1.2,6.1-1c-0.4,0.4-0.7,0.8-1.1,1.2c-1,1.1-2.1,2.2-3.1,3.4
	c-1.4,1.8-3.2,3.4-5.1,4.6C221.5,171.8,220.1,172.2,218.6,172.4z M200.6,55.5c1.4,0.2,2.7,0.9,3.6,1.9c0.4,0.3,1,0.6,1.5,0.7
	c0.2-0.8,0.4-1.6,0.4-2.4c0.2-2.9-0.8-5.7-2.9-7.8c-0.8-0.9-1.7-1.7-2.7-2.3v-4.4c0,0,0,0.1,0,0.1c0.1-0.1,0.1-0.1,0.2-0.2
	c0.8-0.9,2.2-0.9,3.1,0c0.4,0.4,0.7,1,0.7,1.6v0.1c0.4-0.3,0.9-0.5,1.4-0.5c1.3,0,2.3,1,2.3,2.3c0,0.5-0.1,1-0.4,1.4
	c0.4-0.2,0.8-0.3,1.2-0.3c1.3,0,2.3,1,2.3,2.3c0,0.9-0.5,1.7-1.3,2.1c0.2,0,0.4-0.1,0.6-0.1c1.3,0,2.3,1,2.3,2.3
	c0,1.1-0.8,2.1-1.9,2.3c0.9,0.2,1.5,1.1,1.6,2c0,1.1-0.8,2-1.9,2.1c0.4,0.4,0.6,0.9,0.6,1.4c0,1-0.8,1.9-1.9,1.9l0,0l0,0
	c0.3,0.3,0.5,0.8,0.5,1.3c0,1-0.8,1.9-1.9,1.9l0,0c-0.3,0-0.6-0.1-0.8-0.2c-0.3,0.3-0.6,0.7-0.7,1.2c0.9,1.1,1.1,2.5,0.5,3.8
	c-0.3,0.7-1.1,1-1.8,0.7c-0.1,0-0.2-0.1-0.3-0.2c-0.6-0.4-0.8-1.3-0.4-1.9c-0.2-0.3-0.4-0.6-0.8-0.8c-0.3-0.1-0.7-0.1-1,0.1
	c-0.4,0.2-0.8,0.4-1.1,0.7l0,0c-0.4,0.4-0.8,0.9-1,1.4L200.6,55.5L200.6,55.5z M218.6,99.1v22.8c-0.4,1.1-0.8,2.3-1.2,3.5
	c0.3,0,0.5-0.1,0.8-0.1c0.1,0,0.3-0.1,0.4-0.1v6.2c-0.8-1.5-1.3-3.1-1.5-4.8c-0.1,0.2-0.1,0.3-0.2,0.5c-2.6-10.4-8.3-19.8-16.3-26.9
	v-5.4c0.4,0.2,0.7,0.3,1.1,0.4c0.9,0.3,1.9,0.4,2.9,0.3c1.4-0.1,2.6-1,3.2-2.3c0.2-0.5,0.3-1,0.2-1.6c-0.6,0-1.1-0.5-1.2-1.1
	c-0.1-0.8,0.5-1.6,1.3-1.7c0.8-0.1,1.6,0.1,2.2,0.7c0.6,0.5,1.1,1.1,1.5,1.7c0.8,1,1.8,2.2,3,3.6S217.4,97.6,218.6,99.1L218.6,99.1z
	 M218.6,152.7v1.2c-0.1-0.2-0.1-0.4-0.1-0.6C218.5,153.1,218.5,152.9,218.6,152.7L218.6,152.7z M218.6,154.5
	c-0.1-0.2-0.2-0.4-0.3-0.6c-0.4-0.6-0.8-1.2-1.2-1.7c-1,4.2-2.5,8.2-4.4,12c0,1.6,0.2,3.3,0.7,4.9c0.4,1.3,1.3,2.4,2.6,2.9
	c-2.6,1.3-4.8,3-6.7,5.2c0-0.5,0-1,0-1.5c0-0.6,0.1-1.3,0.2-1.9l0,0c0.3,0,0.6-0.1,0.8-0.3c0.2-0.2,0.3-0.6,0.4-0.9
	c0-0.1,0-0.3,0-0.4c0-0.2-0.1-0.5-0.3-0.6c-0.2-0.2-0.4-0.3-0.6-0.3c-0.1,0-0.2,0-0.2,0c-0.3,0-0.6,0.2-0.7,0.4
	c-0.2,0.3-0.3,0.5-0.3,0.9c0,0.3,0.1,0.6,0.2,0.9c0.1,0.1,0.2,0.2,0.3,0.3c-0.1,0.7-0.2,1.3-0.3,2c0,0.7,0,1.3,0.1,2
	c-0.5,0.7-1,1.4-1.4,2.1c0.1-1.2,0.1-2.4-0.1-3.6c-0.1-0.9-0.4-1.7-0.8-2.5c-1.5,1.8-3,3.5-4.7,5.1c0,0.9,0.2,1.7,0.4,2.6l-1.2-1.8
	c-0.1,0.1-0.3,0.3-0.4,0.4v15c1.2-1.5,2.2-2.9,3.2-4.4c2.8,0.7,5.8,0.1,8.3-1.4c2.5-1.6,4.7-3.6,6.5-5.9v-0.4h-0.1
	c-1.3-0.2-2.7-0.2-4,0c-1.1,0.2-2.2,0.5-3.2,0.9c1-1,1.9-2.1,2.7-3.3c0.9-0.2,1.8-0.5,2.7-0.8c0.7-0.2,1.3-0.5,2-0.8v-0.5
	c-0.7,0.3-1.4,0.6-2.1,0.9c-0.7,0.3-1.4,0.5-2.2,0.6c0.3-0.5,0.6-1.1,0.9-1.6c0.7-1.4,1.3-2.8,1.9-4.2c0.2-0.5,0.4-1,0.6-1.5
	l0.9-0.1L218.6,154.5z M195,52c0.8,0,1.7,0.1,2.5,0.3c0.5,0.9,0.7,1.9,0.8,2.9c0.8,0,1.6,0.1,2.4,0.3v14.4c-0.1,0.3-0.2,0.6-0.2,0.9
	c0,0.2,0,0.4-0.1,0.5c-0.2,0.4-0.5,0.7-0.9,0.9c-0.4,0.2-0.8,0.2-1.2,0.2h-0.1c-0.2,0.4-0.4,0.7-0.7,1c-0.4,0.5-0.7,1.1-0.8,1.7
	c0.2,0.2,0.4,0.5,0.4,0.8c0,0.2,0,0.4-0.1,0.6c-0.1,0.2-0.2,0.4-0.3,0.6c-0.1,0.1-0.3,0.2-0.4,0.3c0.6,0,1.2,0.3,1.6,0.8
	c0.3,0.4,0.4,0.9,0.2,1.4c-0.3,0.7-0.9,0.7-1.6,0.8c-0.6-0.1-1.1,0.1-1.5,0.6c-0.6,1-1,2.1-1.1,3.2c-0.1,1.2,0.1,2.5,0.6,3.6
	c0.7,1.7,1.8,3.3,3.1,4.7c0.9,0.9,2,1.7,3.1,2.3v5.4c-6.4-5.7-14-9.8-22.2-11.9V43.3c1.2-0.2,2.4-0.1,3.6,0.2c2,0.7,2.4,3,5.1,3.2
	h0.4c0-1.1-0.2-2.2-0.5-3.3c-0.3-1.2-1-2.3-2.1-3c-1.1-0.7-2.5-1-3.8-0.9c-1,0-1.9-0.1-2.7-0.1v-4.7c0.7,0.2,1.2,0.8,1.3,1.4
	c0.1-0.2,0.2-0.4,0.3-0.5l0,0c0.3-0.3,0.8-0.5,1.3-0.5c1,0,1.8,0.8,1.8,1.8c0,0,0,0,0,0V37c0.1-0.3,0.3-0.7,0.5-0.9l0,0
	c0.7-0.7,1.9-0.7,2.7,0c0.3,0.3,0.5,0.8,0.5,1.2c0.7-0.8,2-0.8,2.7,0c0.4,0.4,0.6,0.8,0.6,1.4c0,0.1,0,0.2,0,0.2
	c0.4-1,1.6-1.4,2.5-1c0.7,0.3,1.1,1,1.1,1.7v0.1c0-0.1,0.1-0.1,0.1-0.2l0,0c0.4-0.4,0.9-0.6,1.4-0.6c0.9,0,1.6,0.6,1.9,1.4l0.1-0.2
	l0,0c0.4-0.4,0.9-0.6,1.4-0.6c0.9,0,1.6,0.6,1.9,1.5v4.4c-1.7-1.1-3.5-1.8-5.4-2.2c0.1,0.4,0.1,0.8,0.1,1.1c0,0.1,0,0.1,0,0.2
	c0.2,1.8,0.2,3.6,0,5.5C195.3,50.8,195.2,51.4,195,52z M200.6,179.9v15c-2.5,3.2-5.3,6.1-8.4,8.8c-2.9,2.9-8.9,8.1-13.8,7.9v-19.7
	C186.7,189.6,194.3,185.6,200.6,179.9L200.6,179.9z M178.4,34.7v4.8c-0.5,0-1-0.1-1.5-0.2c-1.4-0.2-2.8-0.6-4.1-1
	c-0.6-0.2-1.3-0.4-1.9-0.5c-0.5-0.1-1-0.1-1.5-0.2l0.1,0.2c0.7,1.3,1.2,2.7,1.5,4.1c0.9,0.2,1.9,0.5,2.7,0.8c1.3,0.4,2.3,1,3.7,0.7
	l1-0.1v44.9c-8.7-2.2-17.9-2.2-26.6,0V44.7c0.4,0,0.9,0,1.3,0c0.8,0.2,1.6,0.3,2.4,0.2c1.7-0.5,2.7-2,4.3-2.7c0-0.1,0.1-0.2,0.1-0.2
	c0.2-0.6,0.3-1.2,0.5-1.8c0.2-0.9,0.4-1.8,0.7-2.7c-0.6,0.1-1.3,0.1-1.9,0.2c-0.7,0.1-1.3,0.3-1.9,0.5c-1.4,0.4-2.7,0.8-4.1,1
	c-0.4,0.1-0.9,0.1-1.4,0.2v-4.8c0.1,0,0.2,0,0.4,0c0.5,0,0.9,0.2,1.3,0.5l0,0c0.1,0.1,0.2,0.3,0.3,0.4c0.2-1,1.2-1.6,2.1-1.4
	c0.3,0.1,0.6,0.2,0.9,0.5c0.1,0.1,0.2,0.2,0.3,0.3c0.3-0.9,1.3-1.3,2.2-1c0.7,0.3,1.1,0.9,1.1,1.7c0.5,0,1-0.1,1.5-0.3
	c-0.2-0.5-0.3-0.9-0.3-1.4c0-1.7,1.2-3.1,2.9-3.4v-1.8h-2.1v-1.1h2.1v-2.2h1.1v2.2h2.1v1.1h-2.1v1.8c1.7,0.3,2.9,1.7,2.9,3.4
	c0,0.5-0.1,1-0.3,1.4c0.5,0.2,1,0.3,1.5,0.3c-0.1-1,0.6-1.8,1.6-1.9c0.8-0.1,1.6,0.5,1.8,1.3c0.1-0.1,0.2-0.2,0.3-0.3
	c0.3-0.3,0.8-0.5,1.3-0.5c0.9,0,1.6,0.6,1.8,1.5c0.1-0.2,0.2-0.3,0.3-0.4l0,0c0.3-0.3,0.8-0.5,1.3-0.5
	C178.1,34.6,178.3,34.6,178.4,34.7L178.4,34.7z M178.4,191.8v19.8c-0.4,0-0.8-0.1-1.2-0.2c-2.2-0.4-3.8-2.3-3.8-4.5
	c-1.7,4.7-6.9,7.1-11.5,5.4c-2.5-0.9-4.5-2.9-5.4-5.4c0,2.2-1.6,4.1-3.7,4.5c-0.3,0.1-0.7,0.1-1,0.1v-19.7c4.3,1.1,8.8,1.7,13.2,1.7
	C169.5,193.5,174,192.9,178.4,191.8z M151.8,34.6v4.8c-1,0.1-1.9,0.2-2.9,0.1c-1.3-0.1-2.6,0.2-3.8,0.9c-1,0.7-1.8,1.8-2.1,3
	c-0.4,1.3-0.6,2.6-0.5,4c0,1,0.2,2.1,0.5,3c1.5-0.6,2.8-1.7,3.7-3.1c1.3-1.5,3.1-2.5,5.1-2.7v43.5c-8.3,2.1-16,6.3-22.4,12v-5.4
	c1.2-0.6,2.2-1.4,3.1-2.3c1.3-1.3,2.4-2.9,3.1-4.7c0.4-1.1,0.7-2.4,0.6-3.6c-0.1-1.1-0.4-2.2-1-3.2c-0.4-0.4-0.9-0.6-1.5-0.6
	c-0.7,0-1.3,0-1.6-0.8c-0.2-0.5-0.1-1,0.2-1.4c0.4-0.5,1-0.8,1.6-0.8c-0.2-0.1-0.3-0.2-0.4-0.3c-0.1-0.2-0.3-0.3-0.3-0.5
	c-0.1-0.2-0.1-0.4,0-0.6c0-0.3,0.2-0.6,0.4-0.8c-0.1-0.6-0.4-1.2-0.8-1.7c-0.3-0.3-0.5-0.6-0.7-1h-0.2c-0.4,0-0.8-0.1-1.2-0.2
	c-0.4-0.2-0.7-0.5-0.9-0.9c-0.1-0.2-0.1-0.4-0.1-0.5c0-0.3-0.1-0.6-0.2-0.9v-17c1.5-1.3,3.6-1.8,5.5-1.3c-0.1-0.5-0.2-1-0.2-1.5
	c-0.2-1.8-0.2-3.6,0-5.5c0-0.1,0-0.1,0-0.2c0-0.4,0.1-0.8,0.1-1.2c-1.9,0.4-3.8,1.2-5.4,2.3v-4.3l0,0c0.2-0.9,1-1.6,1.9-1.6
	c0.5,0,1,0.2,1.4,0.6l0,0l0.2,0.2c0.3-1,1.5-1.6,2.5-1.3c0.3,0.1,0.5,0.2,0.7,0.4l0,0c0,0,0.1,0.1,0.1,0.2v-0.1c0-1.1,0.9-1.9,2-1.9
	c0.7,0,1.4,0.4,1.7,1.1c0-0.1,0-0.2,0-0.2c0-1.1,0.9-1.9,1.9-1.9c0.5,0,1,0.2,1.4,0.6c0.1-1,0.9-1.9,2-1.8c0.5,0,0.9,0.2,1.2,0.5
	l0,0c0.2,0.3,0.4,0.6,0.5,0.9v-0.1c0-1,0.8-1.8,1.8-1.8c0,0,0,0,0,0c0.4,0,0.9,0.2,1.2,0.5l0,0c0.2,0.1,0.3,0.3,0.3,0.5
	C150.5,35.4,151,34.8,151.8,34.6L151.8,34.6z M151.8,191.8v19.7c-4.9,0.4-11.1-4.9-14-7.8c-3.1-2.7-5.9-5.6-8.4-8.8v-15
	C135.8,185.6,143.4,189.7,151.8,191.8z M129.4,41.3v4.3c-1,0.6-1.9,1.4-2.7,2.3c-1.7,1.8-2.7,4.1-2.9,6.5c2.6,0.7,3.6-0.1,5.6-1.5
	v16.9c-0.3-0.5-0.6-1-1-1.3l0,0c-0.3-0.3-0.7-0.5-1.1-0.7c-0.3-0.1-0.7-0.2-1-0.1c-0.3,0.2-0.6,0.4-0.8,0.8c0.4,0.7,0.2,1.5-0.4,1.9
	c-0.6,0.5-1.5,0.3-1.9-0.3c-0.1-0.1-0.1-0.2-0.2-0.3c-0.3-0.7-0.3-1.4-0.2-2l0,0c0.1-0.7,0.4-1.3,0.8-1.8c-0.1-0.4-0.4-0.8-0.7-1.1
	c-0.3,0.1-0.5,0.2-0.8,0.2c-1,0-1.9-0.8-1.9-1.9c0,0,0,0,0,0c0-0.5,0.2-0.9,0.5-1.3l0,0c-1,0-1.9-0.8-1.9-1.9c0-0.5,0.2-1.1,0.6-1.4
	c-1.1-0.1-2-1.1-1.9-2.2c0.1-0.9,0.7-1.6,1.6-1.8c-1.3-0.1-2.2-1.2-2.1-2.5c0.1-1.3,1.2-2.2,2.5-2.1l0,0c0.2,0,0.4,0,0.6,0.1
	c-0.8-0.4-1.3-1.2-1.3-2.1c0-1.3,1-2.3,2.3-2.4c0.4,0,0.8,0.1,1.2,0.3c-0.3-0.4-0.4-0.9-0.4-1.3c0-1.3,1.1-2.3,2.3-2.3
	c0.5,0,1,0.2,1.4,0.5c0,0,0-0.1,0-0.1c0-1.2,1-2.2,2.2-2.2c0.6,0,1.2,0.2,1.6,0.7C129.2,41.2,129.3,41.2,129.4,41.3L129.4,41.3z
	 M129.4,94.7v5.4c-8,7.1-13.7,16.5-16.3,26.9c-0.3-1.1-0.6-2.1-1-3.2c0.1,0.5,0.1,1,0,1.6c-0.1,1.1-0.4,2.1-0.9,3.1
	c-0.7,1.2-1.5,2.4-2.4,3.4l-0.8,0.8v-28.7c2.1-3.4,4.6-6.6,7.3-9.5c1.1-1.3,2.2-2.6,3-3.6c0.4-0.6,1-1.2,1.5-1.7
	c0.6-0.5,1.4-0.8,2.1-0.7c0.8,0.1,1.4,0.9,1.4,1.7c-0.1,0.6-0.6,1.1-1.2,1.1c0,0.5,0,1.1,0.2,1.6c0.6,1.3,1.8,2.2,3.2,2.3
	C126.8,95.5,128.2,95.3,129.4,94.7L129.4,94.7z M129.4,179.8v15c-1.8-2.2-3.4-4.6-4.9-7c-1.6,1-3.5,1.3-5.3,1
	c-2.4-0.6-4.6-2-6.1-3.9c-0.4-0.6-0.9-1.1-1.5-1.6c-0.6-0.6-1.2-1.1-1.8-1.6c1.9-0.4,3.9-0.5,5.8-0.4c-0.4-0.3-0.7-0.7-1-1.1
	c-0.3-0.4-0.5-0.8-0.7-1.2c-1.7-0.3-3.2-0.9-4.7-1.8c-0.1,0.1-0.2,0.1-0.3,0.2c-0.3,0.1-0.7,0-0.9-0.1v-1.6h0.1
	c0.5-0.1,1.1,0.1,1.4,0.6c0.1,0.2,0.1,0.4,0.1,0.6c1.3,0.8,2.7,1.4,4.2,1.7c-0.1-0.3-0.2-0.5-0.3-0.8c-0.3-1.2-0.8-2.3-1.4-3.4
	c-0.6-1.1-1.3-2-2.1-2.9c-0.7-0.4-1.4-0.9-2-1.4v-15.4c0.3,0.5,0.6,1,0.8,1.6c0-0.1,0-0.3,0-0.5l0,0c0-0.3,0-0.7,0-1s0-0.7,0-1.1
	c-0.3-0.1-0.6-0.4-0.8-0.7c0-0.2-0.1-0.3-0.1-0.5l0,0v-15.7c0,0,0-0.1,0-0.1c0.4-1.2,0.9-2.4,1.3-3.7c1,0.9,1.7,1.9,2.2,3.1
	c0.1,0.2,0.1,0.3,0.2,0.5c0,1.1-0.1,2.3-0.1,3.4c0,1,0,1.9,0.1,2.8c-0.6,1.8-1.2,3.7-2,5.4c-0.4,1.1-0.8,2.1-1.2,3.1
	c0,0.1-0.1,0.2-0.1,0.3c0.3-0.2,0.6-0.3,0.9-0.3c0.5,0,0.9,0.3,1.1,0.8c0.1,0.3,0.1,0.7,0,1c-0.2,0.4-0.6,0.7-1,0.7v1
	c0,0.3,0,0.7,0,1l0.3,0.5c0.2,0.4,0.4,0.8,0.6,1.1c0.2-1.4,0.5-2.8,1-4.2c0.3-0.9,0.8-1.8,1.4-2.6c0.6,2.9,1.4,5.7,2.4,8.4
	c0.2,1.8,0.3,3.6,0.2,5.5c0,1.1-0.2,2.3-0.4,3.4c-0.2,0.8-0.6,1.5-1.1,2c0.2,0.6,0.2,1.2,0.2,1.9c0.8,0.3,1.5,0.6,2.2,0.9
	c1,0.5,1.9,1.1,2.7,1.9c0.1-0.9,0.1-1.7,0-2.6c-0.2,0-0.4-0.1-0.6-0.3c-0.4-0.4-0.4-1-0.1-1.4c0.3-0.4,0.8-0.5,1.2-0.2
	c0,0,0.1,0.1,0.1,0.1c0.4,0.4,0.4,1,0.1,1.4c-0.1,0.1-0.2,0.2-0.3,0.3c0.2,1,0.2,2.1,0,3.1c1.1,1.2,2.2,2.5,3,3.9
	c0.2,0.3,0.4,0.6,0.5,0.8c-0.3-2.5-0.5-5-0.4-7.5C124.4,175,126.8,177.5,129.4,179.8z M107.9,104.1v28.8c-1,1-2.1,1.9-3.2,2.7
	c0.7,2.2,1.2,4.5,1.4,6.8c0.2-0.7,0.4-1.5,0.6-2.2c0.4-1.1,0.8-2.3,1.2-3.4v15.7c-0.2,0.1-0.4,0.1-0.6,0.1c0,0.3-0.1,0.6-0.3,0.8
	c0.3,0.4,0.7,0.8,0.9,1.3v15.4c-1.1-0.8-2.1-1.6-3-2.5c-1.6-1.5-3.2-3.1-4.6-4.8c-0.8-0.9-1.7-1.6-2.7-2.3c-0.4-0.3-0.7-0.5-1-0.9
	c1.9-0.2,5.3,0.7,7.1,1.3l0.3,0.1c-0.1-0.4-0.1-0.8-0.1-1.3c-0.6-0.2-1.1-0.5-1.6-0.8c-0.5-0.3-1-0.6-1.4-1c-0.5,0-1.1-0.1-1.5-0.4
	c-0.4-0.3-0.7-0.8-0.8-1.3c0-0.1,0-0.3,0-0.4c0.2-0.5,0.7-0.8,1.2-0.9c0.2,0,0.4,0,0.5,0.1c0.5,0.2,0.8,0.6,0.9,1.1
	c0.1,0.5,0.1,1.1-0.1,1.6c0.4,0.3,0.9,0.6,1.4,0.9c0.4,0.3,0.9,0.5,1.3,0.7c-0.1-0.9-0.2-1.8-0.4-2.7c-0.3-1.1-0.6-2.2-1-3.2
	c-0.5-1.2-1.1-2.3-1.7-3.4c0.4,0.1,0.9,0.2,1.4,0.4c-0.7-1.2-1.6-2.3-2.6-3.2c-0.8-0.7-1.6-1.6-2.2-2.5c-0.9-1.2-1.6-2.5-2.3-3.9
	c-0.6-1.3-0.9-2.7-0.8-4.2c2.1,0.8,4,2,5.8,3.4c0.4,0.4,0.9,0.8,1.3,1.2c-0.6-1.2-1.3-2.3-2-3.3c-0.7-1-1.5-2-2.3-2.9
	c-0.1,0-0.3,0.1-0.4,0.1c-0.3,0-0.6-0.1-0.8-0.3c-0.2-0.2-0.4-0.5-0.4-0.8c0-0.3,0.1-0.6,0.3-0.8c0.2-0.2,0.5-0.3,0.9-0.3
	c0.3,0,0.6,0.1,0.8,0.3c0.2,0.2,0.4,0.5,0.4,0.8c0,0.3-0.1,0.6-0.3,0.8c0.9,0.9,1.6,1.9,2.3,2.9c0.3,0.5,0.7,1,1,1.6
	c-0.3-0.9-0.4-1.8-0.6-2.8c-0.2-2-0.2-4.1,0.1-6.1c-1.4-1.8-2.5-3.8-3.1-6c-0.6-2.1-0.9-4.2-0.8-6.4c1.3,0.8,2.6,1.7,3.6,2.8
	c0.6,0.6,1.1,1.3,1.5,2.1c-0.1-0.6-0.1-1.2-0.1-1.8l0,0c-0.3-0.7-0.7-1.3-1.1-1.9c-0.3-0.5-0.7-1-1.1-1.5c0,0-0.1,0-0.1,0
	c-0.3,0.1-0.7,0.1-1-0.1c-0.3-0.2-0.6-0.5-0.7-0.8c-0.1-0.3-0.1-0.7,0-1.1c0.1-0.3,0.4-0.6,0.8-0.7c0.3-0.1,0.7-0.1,1,0.1
	c0.3,0.2,0.6,0.4,0.7,0.8c0.1,0.3,0.1,0.7,0,1.1c-0.1,0.2-0.1,0.3-0.3,0.4c0.4,0.5,0.8,1,1.1,1.5c0.2,0.4,0.5,0.8,0.7,1.2
	c0-1.9,0.2-3.7,0.4-5.6c1.1,1.1,2.1,2.4,2.8,3.8c-0.2-1.2-0.2-2.5,0.1-3.8c0.4-1.3,1.1-2.5,2.2-3.5c-0.3-1.1-0.3-2.3-0.1-3.4
	C106.8,106.2,107.3,105.1,107.9,104.1L107.9,104.1z M107.9,175.7v1.6c-0.2-0.1-0.4-0.3-0.5-0.4c-0.2-0.4-0.1-0.8,0.2-1
	C107.7,175.8,107.8,175.7,107.9,175.7z"/>
<path class="st0" d="M169.3,46.5c0.1,1.5,0.1,2.9,0,4.4c0,1-0.1,2.1-0.3,3.1c-0.1,0.3-0.2,0.6-0.3,0.9c-0.4,0.6-0.3,1.4,0.3,1.9
	l0.2,0.1c0.1,0.1,0.3,0.2,0.5,0.2c0.2,0,0.4-0.1,0.5-0.3c0.1-0.1,0.1-0.1,0.2-0.2c0.4-0.6,0.7-1.4,0.8-2.1c0.2-1.2,0.3-2.5,0.2-3.7
	c0-2.2-0.1-4.4-0.5-6.6c-0.3-2.2-0.9-4.3-2-6.2c-0.2-0.4-0.5-0.8-0.8-1.1c-0.2-0.3-0.6-0.4-1-0.3c-0.8,0.4-0.6,1.2,0.1,1.6
	s1.3,2.2,1.6,4l0,0C169,43.6,169.2,45.1,169.3,46.5z"/>
<path class="st0" d="M190.3,73c-15.4-4.3-31.6-4.6-47.2-0.9c-0.7,0.2-0.3,0-0.7-0.2c-0.2-0.1-0.4,0.1-1,0.1s-0.6-0.4-0.3-0.8
	c0.3-0.4,0.7-0.4,0.6-0.6c-0.3,0.1-0.6,0.2-0.9,0.1c-0.3-0.1-0.1-0.5-0.6-0.4c-0.5,0.1-1,0.3-1,0.1c0-0.3,0.3-0.6,0.6-0.7
	c5.1-1.5,10.3-2.5,15.6-3c0.4,0.2,0.8,0.5,1.1,0.9c0.2-0.4,0.5-0.8,0.9-1.1c2.5-0.2,5-0.3,7.6-0.3s5,0.1,7.6,0.3
	c0.4,0.3,0.6,0.6,0.9,1.1c0.3-0.4,0.6-0.7,1-0.9c6.5,0.7,12.9,2.1,19.1,4.2c-1.3-0.1-2.6-0.4-3.8-0.8c-0.1,0.5,2.6,1.2,3.2,1.1
	c0.8,0,1.5,0.3,2.2,0.7c0.7,0.4,1.1,1-0.1,1.1c-1.2,0-2.3-0.3-3.4-0.9C191,71.9,189.7,72,190.3,73z"/>
<path class="st0" d="M161.9,36.9c1.6-0.5,0.7,1.2,0.3,1.8c-0.6,1.1-1,2.3-1.1,3.5l0,0c-0.3,1.7-0.4,3.5-0.4,4.3
	c-0.1,1.5-0.1,2.9,0,4.4c0,1,0.1,2.1,0.3,3.1c0.1,0.3,0.2,0.6,0.3,0.9c0.4,0.6,0.3,1.4-0.3,1.9c0,0-0.1,0.1-0.2,0.1
	c-0.2,0.1-0.3,0.2-0.5,0.2c-0.2,0-0.4-0.1-0.6-0.3c-0.1-0.1-0.1-0.1-0.2-0.2c-0.4-0.6-0.7-1.4-0.8-2.1c-0.2-1.2-0.3-2.5-0.2-3.7
	c0-1.5,0-3,0.3-4.5c0.3-1.4,0.8-2.8,1.4-4.1c0.2-0.6,0.4-1.3,0.5-1.9c0.2-1,0.4-2,0.8-2.9C161.7,37.2,161.8,37,161.9,36.9z"/>
<path class="st0" d="M163.2,40.3c0.2,0.7,0.7,1.2,1.5,1.4c-1,0.2-1.7,1.1-1.5,2.1c0.1,0.8,0.8,1.5,1.7,1.6c-1.1,0.2-1.8,1.2-1.7,2.3
	c0.1,0.9,0.8,1.5,1.7,1.7c-1.1,0-1.9,0.9-1.8,2c0,0.9,0.7,1.7,1.6,1.8c-0.8,0.2-1.3,0.9-1.3,1.7c0,0.1,0,0.2,0,0.3
	c-0.4,0.4-0.7,0.9-0.8,1.4c-0.3,0-0.6,0.1-0.8,0.2c0.5-0.7,0.3-1.2,0.1-2c-0.1-0.3-0.2-0.6-0.3-0.9c-0.2-1-0.3-2-0.4-3
	c0-1.3,0-2.8,0-4.3c0-0.7,0.2-2.3,0.4-3.8C161.6,41.7,162.3,40.7,163.2,40.3z"/>
<path class="st0" d="M168.3,56.7c-0.3-0.1-0.6-0.2-0.9-0.2c-0.1-0.5-0.4-1-0.8-1.4c0-0.1,0-0.2,0-0.3c0-0.8-0.6-1.5-1.3-1.7
	c1-0.2,1.7-1.2,1.6-2.2c-0.2-0.9-0.9-1.6-1.8-1.6c1.1-0.2,1.8-1.2,1.7-2.3c-0.1-0.9-0.8-1.5-1.6-1.7c1-0.1,1.8-1,1.7-2
	c-0.1-0.9-0.7-1.6-1.6-1.7c1-0.2,1.7-1.2,1.5-2.2c0,0,0,0,0,0c0.7,0.3,1.2,1,1.4,1.7c0.1,0.3,0.1,0.7,0.2,1l0,0
	c0.3,1.7,0.4,3.5,0.4,4.3c0.1,1.5,0.1,3,0,4.3c0,1-0.1,2-0.4,3c-0.1,0.3-0.2,0.6-0.3,0.9C167.8,55.3,167.8,56.1,168.3,56.7z"/>
<path class="st0" d="M164.7,61.3c-0.8,1.4-2.3,2.4-3.9,2.7c-1.6,0.1-3.3-0.4-4.6-1.3c-0.1-0.1-0.2-0.2-0.1-0.3c0,0,0.1-0.1,0.1-0.1
	c0.5-0.1,0.9-0.5,1-1c0.1-0.2,0.1-0.5,0.1-0.8c0-0.3-0.1-0.5-0.3-0.7l0,0c-0.3-0.4-0.7-0.6-1.2-0.6c-0.6,0-1.1,0.3-1.4,0.8
	c-0.1,0.2-0.1,0.4-0.1,0.7l0,0c0,0.2,0,0.5,0.1,0.7c0.2,0.5,0.7,0.9,1.3,0.9c0.1,0,0.2,0.1,0.2,0.3c0,0,0,0.1,0,0.1
	c-0.9,1.2-2.3,2-3.8,2.2c-1.6,0.2-3.2-0.2-4.5-1.1c-0.1-0.1-0.1-0.3,0-0.4c0,0,0.1-0.1,0.2-0.1c1,0.2,1.9-0.3,2.4-1.1
	c0.2-0.4,0.3-0.9,0.3-1.3c0-0.5-0.2-0.9-0.4-1.3c-0.5-0.6-1.3-0.9-2.1-0.7c-0.1,0-0.2,0-0.3-0.1c-0.2-0.7-0.7-1.2-1.4-1.3
	c-0.3-0.1-0.7-0.1-1,0c-0.3,0.1-0.6,0.2-0.8,0.4c-0.5,0.5-0.8,1.1-0.7,1.8c0,0.1-0.1,0.2-0.2,0.2c-0.8,0.2-1.3,0.8-1.4,1.6
	c-0.1,0.4,0,0.8,0.1,1.2c0.1,0.4,0.4,0.7,0.7,1c0.8,0.6,1.9,0.7,2.7,0.2c0.1-0.1,0.3,0,0.3,0.1c0,0.1,0,0.1,0,0.2
	c-0.8,1.2-2.1,2.2-3.5,2.6c-1.5,0.4-3.1,0.3-4.6-0.2c-0.1,0-0.2-0.2-0.1-0.3c0,0,0,0,0,0c0.3-0.5,0.3-1.1,0-1.6
	c-0.1-0.2-0.3-0.4-0.5-0.6c-0.2-0.2-0.5-0.2-0.8-0.2c-0.5,0-0.9,0.2-1.2,0.6c-0.3,0.4-0.4,1-0.2,1.5c0.1,0.5,0.5,0.9,1,1
	c0.1,0,0.2,0.2,0.1,0.3c0,0,0,0,0,0c-0.4,0.6-1,1.1-1.6,1.4c-0.7,0.3-1.5,0.5-2.2,0.4c-0.1,0-0.2-0.1-0.2-0.2c0,0,0-0.1,0-0.1
	c0.4-0.5,0.6-1,0.6-1.6c0-0.3,0-0.5-0.1-0.8c-0.3-0.7-1-1.1-1.7-1l0,0c-0.4,0-0.7,0.1-1,0.2c-0.3,0.2-0.6,0.4-0.8,0.7
	c-0.1,0.1-0.2,0.1-0.3,0c0,0,0,0,0,0c-0.3-0.6-0.8-1-1.3-1.3c-0.5-0.2-1-0.2-1.5-0.1c-0.5,0.1-1,0.4-1.4,0.8l0,0c-0.6,0.5-1,1.2-1,2
	l0,0c0,0.2,0,0.5,0,0.7c0,0.4,0.1,0.8,0.2,1.1c0.1,0.3,0.4,0.5,0.7,0.6h0.2c0.2,0,0.4-0.1,0.6-0.2c0.1-0.1,0.2-0.2,0.3-0.4
	c0.1-0.1,0.1-0.3,0.1-0.5c0-0.2-0.1-0.4-0.2-0.5c0-0.1,0-0.2,0-0.2c0.3-0.9,1.3-1.4,2.3-1.1c0.1,0,0.1,0,0.2,0.1
	c0.4,0.1,0.7,0.4,1,0.6c0.5,0.4,0.8,1.2,1.5,0.5l0,0c0.2-0.2,0.4-0.4,0.5-0.7c0.1-0.3,0.6-0.2,0.4,0.2c-0.1,0.3-0.3,0.6-0.6,0.9l0,0
	c-0.9,0.7-0.2,0.7-0.2,1.9c0,0.1,0,0.3,0.1,0.4c0.5,0.7,1.4,1,2.2,0.7c21-8.1,44.3-8.1,65.3,0c0.8,0.3,1.7,0,2.2-0.7
	c0.9-1.8-2.9-1.5-4.2-2.4c-0.7-0.3-1.3-0.8-1.7-1.4c-0.1-0.1,0-0.3,0.1-0.3c0.5-0.1,0.9-0.5,1-1c0.1-0.3,0.1-0.5,0.1-0.8
	c0-0.3-0.1-0.5-0.3-0.7c-0.3-0.4-0.7-0.6-1.2-0.6c-0.3,0-0.6,0.1-0.9,0.2c-0.2,0.1-0.4,0.3-0.5,0.6c-0.1,0.2-0.2,0.5-0.2,0.8
	c0,0.3,0.1,0.6,0.3,0.8c0.1,0.1,0,0.3-0.1,0.3c0,0,0,0,0,0c-1.5,0.5-3.1,0.6-4.6,0.2c-1.4-0.5-2.6-1.4-3.5-2.7
	c-0.1-0.2,0.1-0.4,0.3-0.3c0.8,0.5,1.9,0.5,2.7-0.2c0.3-0.3,0.6-0.6,0.7-1c0.2-0.4,0.2-0.8,0.1-1.2c-0.1-0.8-0.7-1.4-1.5-1.6
	c-0.1,0-0.2-0.1-0.2-0.2c0.1-0.7-0.2-1.4-0.7-1.8c-0.2-0.2-0.5-0.4-0.9-0.4c-0.3-0.1-0.7-0.1-1,0c-0.7,0.2-1.2,0.7-1.4,1.3
	c0,0.1-0.2,0.2-0.3,0.1c-0.8-0.2-1.6,0-2.1,0.7c-0.5,0.8-0.5,1.7-0.2,2.6c0.5,0.9,1.4,1.4,2.4,1.2c0.1,0,0.2,0.1,0.2,0.2
	c0,0.1,0,0.1-0.1,0.2c-1.3,0.9-2.9,1.3-4.5,1.1c-1.5-0.2-2.9-1-3.8-2.2c-0.1-0.1-0.1-0.2,0-0.3c0,0,0.1-0.1,0.1-0.1
	c0.6,0,1.1-0.4,1.3-0.9c0.1-0.2,0.1-0.5,0.1-0.7c0-0.2-0.1-0.5-0.2-0.7c-0.2-0.5-0.8-0.9-1.4-0.8c-0.5,0-1,0.2-1.2,0.6
	c-0.2,0.2-0.3,0.5-0.3,0.7c-0.1,0.3-0.1,0.5,0,0.8c0.1,0.5,0.5,0.9,1,1c0.1,0,0.2,0.2,0.1,0.3c0,0.1-0.1,0.1-0.1,0.1
	c-1.3,0.9-2.9,1.4-4.5,1.3c-1.6-0.2-3.1-1.2-3.9-2.7c-0.1-0.2,0.1-0.5,0.3-0.3c0.4,0.3,0.8,0.4,1.2,0.4c0.4,0,0.8-0.1,1.1-0.2l0,0
	c0.4-0.1,0.7-0.4,0.9-0.7c0.3-0.4,0.5-0.9,0.4-1.4c0-0.6-0.2-1.1-0.6-1.5c-0.4-0.4-0.9-0.6-1.5-0.6c-0.1,0-0.2-0.1-0.2-0.2
	c0-0.4-0.2-0.8-0.5-1.2c-0.3,0.5-0.8,0.9-1.4,0.9c0.4,1.9,0.4,1.7,2.4,2.2c-0.9-0.1-1.8,0.1-2.4,0.7c-0.6-0.6-1.5-0.9-2.4-0.7
	c2-0.5,2-0.3,2.4-2.2c-0.6,0-1.2-0.4-1.5-0.9c-0.3,0.3-0.5,0.7-0.5,1.1c0,0.1-0.1,0.2-0.2,0.2c-0.5,0-1.1,0.2-1.5,0.5
	c-0.4,0.3-0.6,0.7-0.6,1.2c0,0.3,0.2,0.6,0.4,0.8c0.1,0.1,0.3,0.2,0.4,0.2c0.1,0.1,0.3,0.1,0.4,0.1c0.2,0,0.4-0.1,0.6-0.3
	c0.1-0.1,0.2-0.1,0.3,0c0.1,0.1,0.1,0.1,0.1,0.2c0,0.3,0,0.5,0.1,0.8c0.1,0.2,0.2,0.3,0.4,0.5l0,0c0.2,0.1,0.3,0.2,0.5,0.2
	c0.2,0,0.4-0.1,0.5-0.2C164.6,60.9,164.9,61.2,164.7,61.3z"/>
<path class="st0" d="M165,38.5c-0.8,0-1.4,0.6-1.4,1.4s0.6,1.4,1.4,1.4c0.8,0,1.4-0.6,1.4-1.4c0,0,0,0,0,0
	C166.4,39.1,165.7,38.5,165,38.5z"/>
<path class="st0" d="M153.8,206.9c-0.4,0.9-1.3,1.5-2.3,1.3c-1.1-0.1-2.1-0.6-2.8-1.5c-0.3-0.4-0.5-0.8-0.6-1.3
	c-0.1-0.5-0.2-0.9-0.1-1.4c0.2-1.1,0.8-2.2,1.7-2.8c1.1-0.9,3.3-1.6,5.3-2.3c0.8-0.3,1.5-0.5,2.2-0.7c0.8-0.2,1.3-0.9,1.5-1.7
	c0.1-0.4-0.1-0.9-0.5-1.2c-0.5-0.2-1.1-0.2-1.5,0.2c-1.3,0.7-2.6,1.3-4,1.8c-0.7,0.3-1.4,0.5-2.2,0.9c-1.6,0.7-3,1.9-4,3.4
	c-1.2,1.7-1.4,3.9-0.6,5.8c0.5,1.2,1.4,2.1,2.6,2.8c1.3,0.8,2.9,1,4.3,0.6c1.2-0.3,2.2-1,2.9-2c0.8-1.3,0.7-2.9-0.2-4.1
	c-0.6-0.7-1.6-0.7-2.2-0.2c-0.2,0.1-0.3,0.3-0.4,0.5c-0.2,0.4-0.1,0.9,0.2,1.2C153.2,206.6,153.5,206.8,153.8,206.9z"/>
<path class="st0" d="M170.4,195c0.7,0.8,1.2,1.6,2,2.4c0.3,0.3,0.6,0.6,1,0.8c0.6,0.3,1.2,0.6,1.8,0.8c1.9,0.5,3.6,1.2,5.3,2.2
	c0.9,0.7,1.5,1.7,1.7,2.8c0.1,1-0.2,1.9-0.8,2.7c-0.7,0.8-1.7,1.4-2.8,1.5c-1,0.2-1.9-0.4-2.3-1.3c0.3-0.1,0.6-0.3,0.8-0.5
	c0.3-0.3,0.4-0.8,0.2-1.2c-0.4-0.8-1.3-1.1-2.1-0.7c-0.2,0.1-0.4,0.2-0.5,0.4c-0.9,1.2-1,2.8-0.2,4.1c0.7,1,1.7,1.7,2.9,2
	c1.5,0.4,3.1,0.2,4.4-0.6c1.1-0.6,2-1.6,2.5-2.8c0.8-1.9,0.5-4.1-0.6-5.8c-1-1.5-2.3-2.7-4-3.4c-0.7-0.3-1.5-0.6-2.2-0.9
	c-1.4-0.5-2.7-1.1-4-1.8C172.5,195.1,171.4,194.9,170.4,195z"/>
<path class="st1" d="M165,193.5c29.6,0,53.5-23.9,53.5-53.5c0-29.6-23.9-53.5-53.5-53.5c-29.6,0-53.5,23.9-53.5,53.5c0,0,0,0,0,0
	C111.6,169.5,135.5,193.4,165,193.5z"/>
<path class="st0" d="M169.8,196.3c0.6,0.4,1.1,0.8,1.6,1.3c1.7,1.7,2.6,3.9,2.6,6.3c0,0.4,0,0.9-0.1,1.3c0.1-0.2,0.3-0.4,0.4-0.6
	c0.3-0.3,0.6-0.5,1-0.6c0.4-0.1,0.7-0.1,1.1,0c0.3,0.1,0.6,0.3,0.8,0.5c0.2,0.2,0.3,0.4,0.4,0.6c0.1,0.3,0.2,0.6,0.1,0.9
	c-0.1,0.3-0.2,0.6-0.4,0.9c-0.2,0.1-0.3,0.3-0.5,0.4c0.1,0.2,0.3,0.4,0.5,0.5c0.3,0.1,0.7,0.2,1,0.2c1-0.1,1.8-0.6,2.5-1.3
	c0.3-0.3,0.5-0.7,0.6-1.1c0.1-0.4,0.1-0.8,0.1-1.2c-0.1-1-0.7-1.9-1.5-2.5c-1-0.8-3.2-1.5-5.1-2.1c-0.3-0.1-0.5-0.2-0.7-0.2
	c-0.4-0.1-0.8-0.3-1.2-0.6c-0.4-0.3-0.7-0.6-1-0.9c-0.4-0.4-0.7-0.8-1.1-1.2l0,0l-0.8-0.2C170,196.3,169.9,196.3,169.8,196.3z"/>
<path class="st0" d="M177.4,94.9c24.9,6.8,39.5,32.5,32.7,57.4c-4.4,15.9-16.8,28.3-32.7,32.7v-5.1c22-6.8,34.4-30.2,27.5-52.3
	c-3.2-10.3-10.2-18.9-19.6-24.2v12.8c13.1,11.2,14.6,30.8,3.5,43.9c-3.1,3.6-7,6.5-11.4,8.4v-5.5c8.5-4.6,13.8-13.5,13.9-23.1
	c0-6.1-2.1-12-6-16.6v13.4h-5v-18c-0.9-0.6-1.9-1.2-2.9-1.8v-5.5c1,0.4,1.9,0.9,2.9,1.4v-11.8c-0.9-0.4-1.9-0.7-2.9-1L177.4,94.9
	L177.4,94.9z M170.5,93.6c2.3,0.3,4.6,0.7,6.9,1.4v5.1c-0.9-0.3-1.9-0.6-2.9-0.8v11c1,0.3,1.9,0.7,2.9,1.1v5.5
	c-0.9-0.5-1.9-0.9-2.9-1.3v38.8h-4L170.5,93.6L170.5,93.6z M177.4,185.1c-2.3,0.6-4.6,1.1-6.9,1.4v-5c2.3-0.3,4.6-0.8,6.9-1.5V185.1
	z M177.4,168.6c-2.2,0.9-4.5,1.6-6.9,2.1v-5c2.4-0.5,4.7-1.4,6.9-2.5V168.6z M169.5,93.5c0.3,0.1,0.7,0.1,1,0.1v60.8h-1v-40.2
	c-3-0.5-6-0.5-9,0v22.5h-5v-21c-2,0.8-3.9,1.8-5.7,3.1v42.7c6,4.3,13.5,5.9,20.7,4.3v5c-1.8,0.3-3.7,0.5-5.5,0.5
	c-15.1,0-28-10.9-30.7-25.7l4.8-1c0.8,4.5,2.7,8.7,5.6,12.2v-33.3c-1.5,1.8-2.7,3.8-3.7,6l-4.4-2.2c3.7-8,10.5-14.1,18.9-16.8v-11
	c-22.5,5.3-36.4,27.8-31.1,50.2c4.2,18,19.7,31.1,38.1,32.2v5c-25.8-1.4-45.5-23.4-44.1-49.2c1.3-23.1,19.2-41.7,42.1-44v15.6
	c3-0.4,6-0.4,9,0C169.5,109.1,169.5,93.5,169.5,93.5z M170.5,186.5v-5c-1,0.1-2,0.2-3,0.3v5C168.5,186.6,169.5,186.5,170.5,186.5
	L170.5,186.5z"/>
<path class="st0" d="M165.1,199c-0.5,0.8-1,1.7-1.5,2.6c-0.4,0.7-0.9,1.4-1.4,2.1c-0.1,0.2-0.2,0.4,0,0.5c0.4,0.2,0.7,0.2,1.1,0.2
	c2.1,0.3,4,1.1,5.7,2.3c0.5,0.4,1.2,0.8,1.8,1.1c0.2,0,0.4-0.1,0.7-0.4l0,0c0.3-0.4,0.6-0.7,0.8-1.1c0.6-1-0.2-1.9-1.1-2.3
	c-2-1.1-4-1.9-6.2-2.5c-0.1,0-0.2-0.1-0.2-0.3c0-0.1,0.1-0.2,0.3-0.2c0,0,0,0,0.1,0c1.9,0.5,3.8,1.3,5.6,2.2c1,0.5,1.7-0.6,1.9-1.4
	c0.3-1.2-0.4-2.4-1.6-2.7c-1.6-0.5-3.2-0.9-4.9-1.2C165,197.6,165.6,198,165.1,199z"/>
<path class="st0" d="M171,197.8c-1.5-1.5-3.5-2.3-5.6-2.4l0,0c-0.2,0.1-0.2,0.5-0.2,0.7s0.1,1.1,0.5,1.1c1.6,0.2,3.1,0.6,4.7,1.1
	c0.2,0.1,0.5,0,0.6-0.1C171.1,198.1,171.1,197.9,171,197.8z"/>
<path class="st0" d="M164.5,212.2c0.2,0,0.3,0,0.5,0h0.2c0.1-0.4,0.1-0.7,0.1-1.1c0-0.1,0.1-0.2,0.2-0.3c0.1,0,0.2,0.1,0.3,0.2
	c0,0,0,0.1,0,0.1c0,0.3,0,0.7-0.1,1l0.9-0.1c0-0.4,0-0.8,0-1.2c0-0.1,0.1-0.2,0.2-0.2c0.1,0,0.2,0.1,0.2,0.2c0,0.4,0,0.8,0,1.1
	c0.3-0.1,0.5-0.1,0.8-0.2c0-0.4,0-0.9-0.1-1.3c0-0.1,0.1-0.2,0.2-0.3c0.1,0,0.2,0.1,0.3,0.2l0,0c0.1,0.4,0.1,0.8,0.1,1.2
	c0.3-0.1,0.5-0.2,0.8-0.4c0.1-0.4,0.1-0.8,0-1.1c0-0.1,0-0.3,0.2-0.3c0.1,0,0.3,0,0.3,0.2c0.1,0.3,0.1,0.7,0.1,1
	c0.3-0.2,0.4-0.5,0.4-0.8c0-0.1-0.1-0.2-0.1-0.2c-0.1-0.1-0.1-0.2,0.1-0.3c0.1-0.1,0.2-0.1,0.3,0.1c0,0,0,0,0,0.1l0,0
	c0.1-0.2,0.2-0.5,0.1-0.7c0-0.8-1-1.5-1.6-1.8c-2-0.9-2.9,0.7-4.4,1.4c-1.3,0.6-2.7,0.8-4.2,0.8c0.2,0.4,0.5,0.8,0.9,1.1l0.1-0.2
	c0.1-0.1,0.2-0.1,0.3-0.1c0.1,0.1,0.1,0.2,0.1,0.3l0,0l-0.2,0.2l0.3,0.2c0.1-0.1,0.2-0.2,0.2-0.4c0-0.1,0.1-0.2,0.3-0.2
	c0.1,0,0.2,0.1,0.2,0.3c0,0,0,0,0,0c0,0.2-0.1,0.4-0.2,0.6c0.2,0.1,0.3,0.2,0.5,0.3c0.1-0.2,0.2-0.4,0.2-0.6c0-0.1,0.1-0.2,0.3-0.2
	c0.1,0,0.2,0.1,0.2,0.3c0,0.2-0.1,0.5-0.2,0.7c0.2,0.1,0.5,0.2,0.8,0.3c0.1-0.3,0.1-0.5,0.1-0.8c0-0.1,0.1-0.3,0.2-0.3
	c0.1,0,0.3,0.1,0.3,0.2l0,0C164.6,211.6,164.6,211.9,164.5,212.2z"/>
<path class="st0" d="M160.4,209c0.6,0,1.2,0,1.7-0.1c1.2-0.2,3.3-0.8,3.9-1.9c0.3-0.5,0.1-1.1-0.4-1.4c0,0,0,0-0.1,0
	c-1.3-0.5-2.6-0.7-4-0.6c-0.5,0-0.9,0.2-1.3,0.3V209z M160.4,204.7c0.5-0.1,0.8-0.4,1.1-0.8c0.6-0.9,1.1-1.8,1.7-2.6
	c0.5-0.9,1-1.7,1.6-2.6c0.6-0.9,0.5-2.1-0.4-2.8c-0.1,0-0.1,0-0.1,0l0,0c-0.3-0.2-1.4-0.2-1.2,0.5c0.1,0.4,0.6,0.7,0.7,1.2
	c0,0.4-0.1,0.8-0.2,1.1c-0.6,1.2-1.2,2.4-2,3.6c-0.1,0.1-0.2,0.1-0.3,0.1c-0.1-0.1-0.1-0.2-0.1-0.3l0,0c0.8-1.1,1.4-2.3,2-3.5
	c0.1-0.3,0.2-0.5,0.2-0.8c-0.1-0.3-0.3-0.7-0.6-0.9c-0.7-0.4-1.5-0.4-2.2,0.1v2.6l0.5-0.8c0-0.1,0.2-0.2,0.3-0.1s0.2,0.2,0.1,0.3
	c0,0,0,0.1-0.1,0.1l-0.6,1.1c-0.1,0.1-0.2,0.2-0.2,0.3L160.4,204.7L160.4,204.7z M159,197.9c-2.7,2.6-3.3,6.6-1.5,9.9
	c0.7,0.9,1.8,1.3,2.9,1.2v-3.8c-0.1,0-0.3,0-0.4,0.1c-0.8,0-1.5-0.2-2.1-0.8c-0.2-0.2,0.1-0.6,0.3-0.3c0.5,0.4,1.1,0.7,1.8,0.7
	c0.2,0,0.3,0,0.4-0.1v-4.4l-0.5,0.7c-0.1,0.1-0.2,0.1-0.3,0.1c-0.1-0.1-0.1-0.2-0.1-0.3l0,0c0.2-0.4,0.5-0.7,0.7-1.1l0.2-0.2v-2.6
	C159.9,197.1,159.4,197.5,159,197.9z"/>
<path class="st0" d="M156.1,205.1c-0.1-0.4-0.1-0.9-0.1-1.3c0-2,0.7-4,2-5.6c-0.2,0.2-0.5,0.3-0.8,0.4c-0.6,0.2-1.4,0.5-2.2,0.8
	c-1.8,0.5-3.5,1.2-5.1,2.2c-0.8,0.6-1.3,1.5-1.5,2.5c-0.1,0.4,0,0.8,0.1,1.2c0.1,0.4,0.3,0.8,0.5,1.1c0.8,1,2.7,1.6,3.3,0
	c-0.1-0.2-0.2-0.4-0.2-0.6c0-0.3,0-0.6,0.1-0.9c0.1-0.2,0.2-0.5,0.4-0.6c0.2-0.2,0.5-0.4,0.8-0.5c0.4-0.1,0.7-0.1,1.1,0
	c0.4,0.1,0.7,0.3,1,0.6C155.9,204.6,156,204.9,156.1,205.1z"/>
<path class="st0" d="M165,194.9c1.9,0.1,3.8,0.5,5.6,1.1c-0.6-0.9-2.6-2.6-3.7-2.5H165c-0.6,0-1.2,0-1.7,0c-0.6,0-1,0.4-1,1
	c0,0.3,0.1,0.6,0.4,0.8C163.4,195,164.2,194.9,165,194.9z"/>
<path class="st0" d="M144.9,204.3c0.2-1,0.5-2,1.1-2.9c1-1.6,2.5-2.9,4.2-3.6c0.8-0.3,1.5-0.6,2.2-0.9c1.4-0.5,2.7-1.1,3.9-1.8
	l0.3-0.1c0.1-0.3,0.2-0.6,0.1-0.9c-0.4,0-0.8,0.1-1.2,0.1c-0.8,0.1-1.1,0.1-1.2-0.8c0-0.2,0-0.4-0.1-0.7c-0.3,0.1-0.6,0.3-0.9,0.4
	c-0.3,0.1-0.5,0.3-0.8,0.5c-0.1,0-0.2,0-0.2,0c-0.7-0.3-1.5-0.6-2.3-0.7c-0.8-0.2-1.5-0.2-2.3-0.1c-0.1,0-0.2-0.1-0.3-0.2
	c0-0.1,0-0.1,0-0.2c0.2-0.3,0.4-0.5,0.6-0.8c0.1-0.1,0.2-0.2,0.2-0.3c-0.1,0-0.3,0.1-0.4,0.1c-0.3,0.1-0.7,0.2-1,0.3
	c-0.1,0-0.2,0-0.3-0.2c0-0.1,0-0.1,0-0.2l0.5-0.9c-0.4,0-0.8,0.1-1.3,0.2c-0.5,0.1-1.1,0.3-1.6,0.5c-0.2,0.1-0.4-0.1-0.3-0.3
	l0.6-1.4l0,0c-0.6,0.1-1.3,0.3-1.9,0.4c-0.1,0-0.3-0.1-0.3-0.2c0,0,0-0.1,0-0.1l0.3-0.9c-0.1,0-0.1-0.1-0.2-0.1
	c-0.5,0.4-1.1,0.6-1.7,0.8c-0.4,0.1-0.9,0.1-1.3-0.1c-0.4-0.2-0.7-0.6-0.8-1c-0.2-0.6-0.2-1.2-0.1-1.8h-0.1l-0.7,0.6
	c-0.1,0.1-0.3,0.1-0.3-0.1c0,0,0-0.1,0-0.1l-0.1-1.1c0,0-0.1-0.1-0.1-0.1l-0.5,0.4l-0.1,0.1c-0.1,0.1-0.3,0.1-0.3,0c0,0,0-0.1,0-0.1
	c0-0.3,0-0.6,0-0.9c-0.2,0.2-0.5,0.3-0.8,0.4c-0.1,0-0.3,0-0.3-0.1c0,0,0,0,0-0.1c0-0.3,0-0.7,0-1.1c-0.1-0.1-0.1-0.1-0.2-0.2
	c-0.3,0.1-0.6,0.2-0.9,0.2c-0.3,0-0.7,0-1-0.2c-0.3-0.2-0.5-0.4-0.7-0.7c-0.2-0.4-0.3-0.9-0.3-1.4c-1.1-0.9-2.2-1.8-3.2-2.7
	c-0.1,0.3-0.1,0.5-0.2,0.8c-0.3,1.1-0.8,2.1-1.4,3c-0.5,0.7-1,1.5-1.3,2.4c-0.4,0.8-0.6,1.7-0.6,2.6c0.2,0.5,0.8,0.7,1.3,0.5
	c0.1,0,0.1-0.1,0.2-0.1c0.2-0.6,0.4-1.1,0.7-1.7s0.6-1.2,0.8-1.8c0.1-0.1,0.2-0.2,0.3-0.1c0.1,0.1,0.2,0.2,0.1,0.3
	c-0.3,0.6-0.5,1.2-0.8,1.8c-0.3,0.6-0.5,1.2-0.7,1.8c-0.1,0.4-0.1,0.9,0.1,1.3c0.1,0.3,0.5,0.5,0.8,0.4c0.4-0.1,0.7-0.3,0.9-0.7
	c0.2-0.5,0.4-1,0.6-1.4l0,0c0.2-0.5,0.4-1,0.6-1.5c0-0.1,0.2-0.2,0.3-0.2c0.1,0,0.2,0.2,0.2,0.3c0,0,0,0.1,0,0.1
	c-0.2,0.5-0.4,1-0.7,1.5l0,0c-0.2,0.5-0.4,1-0.6,1.6c-0.2,0.5-0.3,1-0.2,1.4c0.1,0.4,0.3,0.8,0.6,1c0.4,0.2,0.9-0.2,1-0.5
	c0.1-0.3,0.2-0.7,0.3-1l0.2-0.7c0-0.1,0.1-0.2,0.3-0.2c0.1,0,0.2,0.1,0.2,0.3c0,0,0,0,0,0.1l-0.3,0.7c-0.1,0.3-0.2,0.6-0.3,1
	c-0.2,0.5-0.2,1-0.1,1.5c0.1,0.5,0.3,0.9,0.6,1.3c0.2,0.3,0.4,0.6,0.8,0.4c0.2-0.1,0.4-0.3,0.5-0.5c0.3-0.8,0.6-1.6,0.8-2.4
	c0.2-0.5,0.3-0.9,0.4-1.2c0-0.1,0.1-0.2,0.3-0.2s0.2,0.1,0.2,0.3c0,0,0,0.1,0,0.1l-0.4,1.2c-0.3,0.8-0.5,1.6-0.8,2.4
	c-0.2,0.4-0.2,0.9-0.1,1.3c0.1,0.3,0.4,0.5,0.8,0.5c0.5,0,0.9-0.4,1-0.9c0-0.4,0.1-1,0.2-1.6s0.3-1.5,0.6-2.4c0-0.1,0.2-0.2,0.3-0.2
	c0.1,0,0.2,0.2,0.2,0.3c-0.2,0.9-0.4,1.7-0.6,2.4c-0.1,0.6-0.2,1.2-0.2,1.8c-0.1,0.2,0,0.5,0.1,0.7c0.1,0.2,0.3,0.2,0.5,0.1
	c0.4-0.1,0.6-0.5,0.8-0.9c0.3-0.6,0.5-1.2,0.7-1.8c0.2-0.9,0.4-1.8,0.6-2.6c0-0.1,0.1-0.2,0.2-0.2c0.1,0,0.2,0.1,0.2,0.2
	c0,0,0,0,0,0.1c-0.1,0.9-0.3,1.8-0.5,2.7c-0.2,0.7-0.4,1.3-0.8,1.9c-0.4,0.7-0.2,2.1,0.8,1.3c0.8-0.8,1.4-1.7,1.9-2.7
	c0.1-0.2,0.2-0.4,0.3-0.5c0-0.1,0.2-0.2,0.3-0.1c0.1,0,0.2,0.2,0.1,0.3c0,0,0,0.1-0.1,0.1c-0.1,0.1-0.2,0.3-0.3,0.5
	c-0.5,0.8-1,1.6-1.6,2.4c-0.4,0.5-1.1,1.3-0.9,2c0.1,0.3,0.3,0.5,0.7,0.5c0.6,0,1.1-0.6,1.4-1c0.4-0.7,0.9-1.4,1.4-2
	c0.5-0.7,1-1.4,1.6-2c0.1-0.1,0.2-0.1,0.3-0.1c0.1,0.1,0.1,0.2,0.1,0.3c0,0,0,0,0,0.1c-0.6,0.6-1.1,1.3-1.6,2
	c-0.5,0.6-0.9,1.3-1.4,1.9c-0.3,0.4-0.8,0.8-0.9,1.3c-0.1,0.3-0.1,0.7,0,1c0.1,0.2,0.3,0.3,0.5,0.3c0.4-0.1,0.8-0.4,1-0.7
	c0.7-1,1.4-1.9,2.1-2.8s1.5-1.7,2.3-2.6c0.1-0.1,0.2-0.1,0.3,0s0.1,0.2,0,0.3c-0.8,0.8-1.6,1.7-2.3,2.5c-0.7,0.9-1.4,1.8-2.1,2.7
	c-0.2,0.3-0.4,0.5-0.7,0.7c-0.3,0.6-0.2,1.3,0.1,1.9c0.1,0.1,0.2,0.2,0.4,0.4c0.7,0.4,1.2-0.9,1.4-1.3c0.4-1,1-1.9,1.7-2.7
	c0.7-0.8,1.5-1.4,2.3-2c0.1-0.1,0.2-0.1,0.3,0c0.1,0.1,0,0.3-0.1,0.3c-0.8,0.6-1.6,1.2-2.2,2c-0.7,0.8-1.2,1.6-1.6,2.6
	c-0.2,0.6-0.9,1.2-0.2,1.8c0.1,0.1,0.3,0.2,0.5,0.3c0.2,0,0.4,0,0.5,0C144.5,205.2,144.8,204.8,144.9,204.3z"/>
<path class="st0" d="M175.6,196.1c0.7,0.3,1.3,0.6,2,0.8c0.7,0.3,1.4,0.5,2.2,0.9c1.7,0.8,3.2,2,4.2,3.6c0.6,0.9,1,2,1.1,3.1
	c0.1,0.8,0,1.7-0.2,2.5c0.3,0.3,0.7,0.1,1-0.1c0.6-0.6,1.1-1.3,1.2-2.2c0.3-1,0.3-2,0.1-3c-0.6-1.6-1.6-3-3-4
	c-1.4-1.1-3.1-1.8-4.8-2.2c-0.1,0-0.2-0.1-0.2-0.3c0-0.1,0.1-0.2,0.3-0.2c0,0,0,0,0,0c1.8,0.4,3.5,1.1,5,2.3
	c1.4,1.1,2.5,2.6,3.1,4.3c0.1,0.4,0.2,0.8,0.2,1.2c0,0.3,0.2,0.5,0.4,0.6c0.5,0.3,0.7-0.4,0.8-0.8c0.2-1.5-0.1-3-1-4.3
	c-1.1-1.6-2.6-2.8-4.4-3.4c-0.1,0-0.2-0.1-0.2-0.3s0.1-0.2,0.3-0.2c0,0,0.1,0,0.1,0c1.9,0.7,3.5,1.9,4.7,3.6c1,1.4,1.4,3.2,1,4.9
	c-0.1,0.3-0.1,0.5,0.1,0.8c0.1,0.2,0.2,0.3,0.4,0.3c0.8-0.2,1-1.7,1.1-2.3c0.1-0.7,0.1-1.4,0.1-2.1c0-0.9-0.2-1.8-0.6-2.6
	c-0.6-1.2-2.5-2.1-4-2.8c-0.4-0.2-0.8-0.4-1.2-0.6c-0.1-0.1-0.2-0.2-0.1-0.3c0.1-0.1,0.2-0.2,0.3-0.1c0.4,0.2,0.8,0.4,1.2,0.6
	c1.6,0.8,3.5,1.7,4.2,3c0.4,0.9,0.6,1.8,0.6,2.8c0,0.7-0.1,1.4-0.2,2.1c0,0.6,0.4,0.8,0.8,0.4c0.8-0.8,1.2-1.7,1.3-2.8
	c0.2-1.1,0.1-2.3-0.3-3.4c-0.5-0.9-1.2-1.7-2.1-2.3c-1-0.6-2-1.2-3.1-1.6c-0.1,0-0.2-0.2-0.2-0.3c0-0.1,0.2-0.2,0.3-0.2c0,0,0,0,0,0
	c1.1,0.4,2.2,1,3.2,1.7c0.9,0.6,1.7,1.5,2.3,2.5c0.4,0.8,0.5,1.7,0.4,2.6c0,0.3-0.1,0.4,0.2,0.6c0.3,0.3,0.7,0.3,0.9,0
	c0.2-0.2,0.3-0.4,0.4-0.7c0.2-0.8,0.3-1.7,0.2-2.5c-0.2-2-2.1-3.5-4.2-4.6c-1.9-0.9-3.8-1.5-5.8-2l0,0c0.1,0.3,0.1,0.6,0,0.9
	c0,0.1-0.2,0.2-0.3,0.2c0,0,0,0-0.1,0c-0.3-0.2-0.6-0.3-0.9-0.5c0.1,0.3,0.3,0.7,0.3,1c0,0.1-0.1,0.2-0.2,0.3c0,0-0.1,0-0.1,0
	c-0.5-0.1-0.9-0.2-1.4-0.4l0,0c-0.1,0-0.4-0.2-0.5-0.2c0.3,0.3,0.7,0.7,1,1c0.2,0.1,0,0.4-0.2,0.4c-0.7-0.2-1.4-0.6-2-0.9
	c0.3,0.5,0.6,1,1,1.5c0.1,0.2-0.2,0.5-0.3,0.3c-0.7-0.5-1.4-1-2-1.5l-0.3,0.1c0.1,0.4,0.3,0.8,0.5,1.1s-0.2,0.4-0.4,0.3
	c-0.3-0.4-0.6-0.8-0.9-1.2l-1.4,0.4c0.4,0.4,0.9,0.9,1.3,1.3c0.1,0.1,0.1,0.2,0.1,0.3s-0.2,0.1-0.3,0.1c0,0,0,0-0.1,0
	c-0.5-0.5-1-1-1.5-1.5c-0.4,0.1-0.7,0.2-1,0.2l1.3,1.4c0.2,0.2-0.1,0.5-0.4,0.3l-1.5-1.6l-1.5,0.3c0.2,0.1,0.4,0.3,0.6,0.4
	c0.5,0.4,1,0.7,1.5,1c0.1,0.1,0.1,0.2,0.1,0.3s-0.2,0.1-0.3,0.1l0,0c-0.5-0.3-1-0.7-1.5-1c-0.3-0.2-0.6-0.5-0.9-0.7
	c-0.4,0.1-0.7,0.1-1.1,0.2c0.3,0.5,0.6,1.1,1,1.5c0.5,0.6,1.1,1.1,1.8,1.5L175.6,196.1z"/>
<path class="st0" d="M189.2,189.7c0.9,0.3,1.8,0.7,2.7,1.2c2.3,1.1,4.2,2.8,4.5,4.9c0,0.3,0,0.7,0,1.1c0.4,0.3,0.5,0.4,0.9,0
	c0.6-0.6,0.9-1.4,0.9-2.3c-0.2-1-0.6-1.9-1.3-2.7c-0.8-0.9-1.9-1.6-3-2.1c-0.7-0.3-1.4-0.7-2-1.2c-0.4-0.2-0.7-0.4-1.1-0.7
	c-0.3-0.3-0.7-0.4-1.1-0.4c-0.2,0-0.3,0.1-0.3,0.3c0.1,0.3,0.3,0.5,0.4,0.8c-0.3,0-0.6,0-0.9-0.1c-0.4-0.1-0.8-0.2-0.8,0
	C188.1,188.6,188.9,189.6,189.2,189.7z"/>
<path class="st0" d="M199.8,183.3c0.6,0.5,1.1,1.1,1.6,1.7c0.5,0.7,1,1.4,1.4,2.2c0.1,0.1,0.1,0.3,0.2,0.5c0.5,0.1,0.5,0.1,0.5-0.4
	c0-0.1,0-0.2,0-0.3c0-0.7-0.1-1.4-0.2-2.1c-0.2-0.8-0.5-1.5-0.9-2.2c-0.4-0.6-1-0.9-1.6-1c-0.2,0-0.4,0-0.6,0.1
	c-0.3,0-0.5,0.2-0.6,0.4C199.4,182.6,199.5,183.1,199.8,183.3z"/>
<path class="st0" d="M198.3,185.7c1.1,1.1,2.1,2.2,3,3.5c0.3,0.5,0.5,1,0.7,1.5c0.3,0.1,0.7,0.2,0.9-0.1c0.1-0.2,0.1-0.5,0.1-0.7
	c-0.1-0.8-0.3-1.6-0.6-2.4c-0.4-0.8-0.8-1.5-1.3-2.2c-0.4-0.6-0.9-1.1-1.5-1.6c-0.3-0.2-0.6-0.4-1-0.4c-0.4,0-0.7,0.2-0.9,0.5
	c-0.1,0.1-0.2,0.3-0.2,0.6C197.4,184.9,198,185.4,198.3,185.7z"/>
<path class="st0" d="M196.2,187.4c0.4,0.4,0.8,0.8,1.2,1.1c0.7,0.6,1.4,1.3,1.9,2.2c0.3,0.5,0.5,1,0.6,1.5c0,0.2,0.1,0.5,0.4,0.5
	c0.7,0,1.2-0.8,1.1-1.4c-0.1-0.7-0.3-1.3-0.7-1.8c-0.9-1.2-1.8-2.4-2.9-3.4c-0.2-0.2-0.4-0.4-0.6-0.6l0,0c-0.2-0.3-0.5-0.4-0.9-0.5
	c-0.2-0.1-0.5,0-0.7,0.2c-0.2,0.2-0.6,0.4-0.6,0.8C195.2,186.6,195.7,186.9,196.2,187.4z"/>
<path class="st0" d="M194.1,189.4c1.2,0.5,2.3,1.3,3.2,2.2c0.7,0.8,1.2,1.8,1.4,2.9c0,0.1,0,0.3,0,0.4h0.2c0.2,0,0.4-0.1,0.5-0.2
	c0.2-0.1,0.3-0.3,0.3-0.5c0-0.2,0-0.4,0-0.6c0-1-0.3-1.9-0.8-2.8c-0.5-0.8-1.1-1.4-1.8-2c-0.4-0.4-0.8-0.8-1.3-1.1s-0.8-0.8-1.3-1.2
	c-0.4-0.3-0.8-0.5-1.3-0.6c-0.2,0-0.4-0.1-0.5,0.1c0,0.3,0,0.7,0.1,1c-0.4-0.1-1.4-0.7-1.2,0.2C192,188.3,193.2,189,194.1,189.4z"/>
<path class="st0" d="M113.3,126.2c-1.4-4.4-3.1-8.8-5.1-12.9c-0.5-1.1-1.1-2.2-0.6-3.5c0.2-0.6,0.8-0.6,1.3-0.4
	c0.8,1.2,1.5,2.4,2.2,3.6c0.7,1.4,1.3,2.8,1.9,4.2c0,0.1,0.2,0.2,0.3,0.1c0.1,0,0.2-0.2,0.1-0.3l0,0c-0.5-1.4-1.2-2.9-1.9-4.2
	c-0.7-1.3-1.4-2.5-2.2-3.7c-0.5-0.7-0.6-1.5-0.4-2.3c0.1-0.4,0.4-0.8,0.9-0.9c0.1,0.2,0.2,0.4,0.3,0.6c0.8,1,1.5,2,2.1,3
	c0.7,1,1.3,2,1.9,3.1c0,0.1,0.2,0.2,0.3,0.1c0.1,0,0.2-0.2,0.1-0.3c0,0,0,0,0-0.1c-0.6-1.1-1.2-2.1-1.9-3.1s-1.4-2-2.1-3
	c-0.3-0.4-0.5-0.8-0.5-1.3c0-0.9,1-2.2,1.7-1.2c0.9,1.2,1.8,2.5,2.6,3.8s1.8,2.9,2.7,4.4c0,0.1,0.2,0.2,0.3,0.2
	c0.1,0,0.2-0.2,0.2-0.3c0,0,0-0.1,0-0.1c-0.9-1.5-1.8-3-2.7-4.4s-1.8-2.8-2.7-4c-0.2-0.2-0.3-0.5-0.3-0.8l0,0c0-0.2,0-0.4,0.1-0.5
	c0.2-0.4,0.7-0.5,1-0.2c0.1,0,0.1,0.1,0.1,0.1c1,1.2,1.9,2.4,2.7,3.6s1.7,2.5,2.5,3.8c0.1,0.1,0.2,0.1,0.3,0.1
	c0.1-0.1,0.1-0.2,0.1-0.3l0,0c-0.9-1.3-1.7-2.6-2.5-3.9s-1.8-2.5-2.9-3.8c-0.2-0.3-0.2-0.8,0-1.1l0.2-0.3c0.4-0.5,0.9-0.5,1.3-0.1
	c1.9,1.9,3.6,3.9,5,6.2c0,0.1,0.2,0.2,0.3,0.1s0.2-0.2,0.1-0.3c0,0,0-0.1-0.1-0.1c-1.4-2.3-3.1-4.4-5-6.3c-0.3-0.3-0.7-0.6-0.6-1.1
	c0-0.4,0.2-0.7,0.5-0.9c0.5-0.4,0.8-0.5,1.2,0c0.9,0.9,1.7,1.9,2.4,2.9c0.8,1.1,1.6,2.3,2.4,3.5c0.1,0.1,0.1,0.2,0.3,0.1
	s0.2-0.2,0.1-0.3c-0.8-1.2-1.6-2.4-2.4-3.5c-0.7-1-1.5-2-2.4-2.9c-0.4-0.4-0.7-0.8-0.3-1.3c0.6-1,1.1-0.4,1.7,0.3
	c0.8,0.9,1.6,1.8,2.3,2.8s1.5,2.1,2.2,3.2c0.1,0.1,0.1,0.2,0.3,0.1s0.1-0.2,0.1-0.3c-0.7-1.2-1.5-2.3-2.2-3.3c-0.8-1-1.6-2-2.4-2.9
	c-0.3-0.3-0.5-0.6-0.6-1c0-0.2,0.1-0.5,0.3-0.6c0.4-0.5,1.5-1.6,2-0.4c0.4,1,1.1,1.9,2,2.6c0.9,0.7,2,1.1,3.1,1.3
	c2.7,0.6,5.4-0.6,7.5-2.1c2.3-1.7,4.3-3.8,5.6-6.3c1.2-2.2,1.6-4.7,1.1-7.2c3.6,1.6,7.4,2.4,11.3,2.6c2.9,0.1,5.8-0.3,8.5-1.2
	c3.9-1.2,8-1.2,11.8,0c2.8,0.8,5.7,1.2,8.6,1.2c3.9-0.2,7.8-1,11.3-2.6c-0.5,2.5-0.1,5,1.2,7.2c1.4,2.5,3.3,4.7,5.6,6.3
	c2.1,1.5,4.8,2.7,7.5,2.1c1.1-0.2,2.2-0.7,3.1-1.4c0.9-0.7,1.6-1.6,2-2.6c0.5-1.2,1.6-0.1,2,0.4c0.2,0.2,0.3,0.4,0.3,0.6
	c-0.1,0.4-0.3,0.7-0.6,1c-0.8,0.9-1.6,1.9-2.4,2.9s-1.5,2.1-2.2,3.3c-0.1,0.1-0.1,0.2,0.1,0.3s0.3,0,0.3-0.1
	c0.7-1.1,1.4-2.2,2.2-3.2s1.5-1.9,2.4-2.8c0.6-0.6,1.1-1.2,1.7-0.3c0.3,0.6,0.1,0.9-0.3,1.3c-0.9,0.9-1.7,1.9-2.4,2.9
	c-0.8,1.1-1.6,2.3-2.4,3.5c-0.1,0.1-0.1,0.2,0.1,0.3s0.3,0,0.3-0.1c0.8-1.2,1.6-2.4,2.4-3.5c0.7-1,1.5-2,2.4-2.9
	c0.5-0.5,0.7-0.4,1.2,0c0.3,0.2,0.5,0.6,0.5,0.9c0.1,0.5-0.2,0.7-0.6,1.1c-1.9,1.9-3.6,4-5,6.3c-0.1,0.1-0.1,0.2,0,0.3
	c0.1,0.1,0.2,0.1,0.3,0c0,0,0-0.1,0.1-0.1c1.4-2.3,3.1-4.3,5-6.2c0.4-0.5,0.8-0.4,1.3,0.1c0.1,0.1,0.1,0.2,0.2,0.3
	c0.2,0.3,0.2,0.8,0,1.1c-1.1,1.3-2,2.5-2.9,3.8s-1.7,2.5-2.5,3.9c-0.1,0.1,0,0.2,0.1,0.3c0.1,0.1,0.2,0,0.3-0.1
	c0.9-1.3,1.7-2.6,2.5-3.8s1.7-2.4,2.7-3.6c0.3-0.3,0.8-0.3,1.1,0c0,0,0.1,0.1,0.1,0.1c0.1,0.1,0.2,0.3,0.1,0.5l0,0
	c0,0.3-0.1,0.6-0.3,0.8c-0.9,1.3-1.8,2.6-2.7,4s-1.8,2.9-2.7,4.4c-0.1,0.1-0.1,0.3,0,0.3c0.1,0.1,0.3,0.1,0.3,0c0,0,0-0.1,0-0.1
	c0.9-1.5,1.8-2.9,2.7-4.4s1.7-2.6,2.6-3.8c0.7-1,1.8,0.3,1.7,1.2c0,0.5-0.2,0.9-0.5,1.3c-0.7,1-1.4,2-2.1,3s-1.3,2.1-1.9,3.1
	c-0.1,0.1-0.1,0.3,0,0.3c0.1,0.1,0.3,0.1,0.3,0c0,0,0,0,0-0.1c0.6-1.1,1.2-2.1,1.9-3.1s1.4-2,2.1-3c0.1-0.2,0.2-0.4,0.3-0.6
	c0.4,0.1,0.8,0.5,0.9,0.9c0.2,0.8,0.1,1.6-0.4,2.3c-0.8,1.2-1.5,2.4-2.2,3.7c-0.7,1.4-1.4,2.8-1.9,4.2c0,0.1,0,0.3,0.1,0.3
	c0.1,0,0.3,0,0.3-0.1c0.5-1.4,1.1-2.8,1.7-4.1c0.6-1.2,1.3-2.5,2.1-3.6c0.5-0.2,1-0.2,1.3,0.4c0.5,1.3-0.1,2.4-0.6,3.5
	c-2,4.2-3.8,8.5-5.1,12.9c-7.6-28.6-37-45.5-65.5-37.9C132.6,93.3,118.2,107.7,113.3,126.2L113.3,126.2z"/>
<path class="st0" d="M207.4,90.3c0,0.7,0.6,0.7,1.1,0.7c0.4,2.2-1,4.3-3.3,4.8c-0.2,0-0.4,0.1-0.5,0.1c-1,0.1-2.1,0-3.1-0.3
	c-1.7-0.6-3.2-1.6-4.4-2.9c-1.4-1.4-2.5-3-3.2-4.8c-0.5-1.2-0.7-2.5-0.6-3.8c0.1-1.2,0.5-2.4,1.1-3.4c0.4-0.6,1.2-0.9,1.9-0.8
	c0.6,0,1-0.1,1.2-0.5c0.1-0.3,0.1-0.7-0.2-1c-0.3-0.4-0.8-0.6-1.2-0.6c-2.3-0.1-4.1,2-4.7,4c-0.7,2.5-0.3,5.1,0.9,7.3
	c1.3,2.4,3.2,4.5,5.5,6.1c2,1.5,4.6,2.6,7.1,2c1.1-0.2,2.1-0.7,2.9-1.3c0.8-0.6,1.5-1.5,1.9-2.4c0.4-0.8,0.5-1.7,0.4-2.6
	c0-0.4-0.2-0.7-0.4-1c-0.3-0.6-1-0.9-1.7-0.8C207.6,89.3,207.3,89.8,207.4,90.3z"/>
<path class="st0" d="M191.3,81c0.4-0.9,1-1.7,1.7-2.4c-6.3,2.4-14.6,3.8-23.2,4.2c3.1,1.2,6.4,1.7,9.7,1.6c3.7-0.2,7.3-1,10.7-2.4
	C190.6,81.8,191,81.5,191.3,81z"/>
<path class="st0" d="M122.7,90.3c0,0.7-0.6,0.7-1.1,0.7c-0.1,0.7-0.1,1.5,0.2,2.2c0.6,1.5,2,2.5,3.6,2.6c1,0.1,2.1,0,3.1-0.3
	c1.7-0.6,3.2-1.6,4.4-2.9c1.4-1.4,2.5-3,3.2-4.8c0.5-1.2,0.7-2.5,0.6-3.8c-0.1-1.2-0.5-2.4-1.1-3.4c-0.4-0.6-1.2-0.9-1.9-0.8
	c-0.5,0-1-0.1-1.2-0.5c-0.1-0.3-0.1-0.7,0.2-1c0.3-0.4,0.7-0.6,1.2-0.6c2.3-0.1,4.1,2,4.7,4c0.7,2.5,0.3,5.1-0.9,7.3
	c-1.3,2.4-3.2,4.5-5.5,6.1c-2,1.5-4.6,2.6-7.1,2c-1.1-0.2-2.1-0.7-2.9-1.3c-0.8-0.6-1.5-1.5-1.9-2.4c-0.4-0.8-0.5-1.7-0.4-2.6
	c0-0.4,0.2-0.7,0.4-1c0.3-0.6,1-0.9,1.7-0.8C122.4,89.3,122.8,89.8,122.7,90.3z"/>
<path class="st0" d="M154.2,83.9c-1.2,0.4-2.5,0.6-3.7,0.5c-3.7-0.2-7.3-1-10.7-2.4l0,0c-0.5-0.2-0.9-0.5-1.1-1l0,0
	c-0.4-0.9-1-1.7-1.8-2.4c5.4,1.9,11,3.2,16.7,3.7C154.6,82.4,155.4,83.4,154.2,83.9z"/>
<path class="st2" d="M116.8,181.6c0.6,0.1,1.2,0.3,1.8,0.6c1.8,0.8,3.5,1.9,5,3.2c-0.5-0.7-1.1-1.4-1.7-2c-1-1.1-2-2.2-3-3.2
	c-0.1-0.1-0.2-0.2-0.3-0.4c-0.5-0.1-1-0.3-1.5-0.5c-0.5-0.3-1-0.6-1.5-0.9c-0.1-0.1-0.1-0.2-0.1-0.3c0.1-0.1,0.2-0.1,0.3-0.1
	c0.5,0.3,1,0.6,1.5,0.9c0.2,0.1,0.5,0.2,0.7,0.3c-0.2-0.2-0.4-0.5-0.6-0.7c-0.4-0.6-0.8-1.1-1.2-1.6c-0.1-0.1,0-0.2,0.1-0.3
	c0.1-0.1,0.2,0,0.3,0.1l0,0c0.3,0.5,0.7,1.1,1.2,1.6s0.9,1.1,1.4,1.6c1,1,2,2.1,3,3.2c0.7,0.7,1.3,1.5,1.9,2.3
	c-0.5-1.2-0.9-2.5-1.1-3.8c-0.3-0.8-0.7-1.6-1.2-2.4c-1.4-2.5-3.4-4.6-5.9-6c-1.6-0.9-3.4-1.4-5.3-1.6c0.7,0.8,1.3,1.7,1.8,2.6
	c0.6,1.1,1.1,2.3,1.4,3.5c0.2,0.8,0.6,1.6,1.1,2.4C115.4,180.7,116,181.2,116.8,181.6z"/>
<path class="st2" d="M108.2,114.4c0.1,0.2,0.2,0.5,0.3,0.7c-0.2,0-0.4,0-0.6,0.1C108.1,115,108.2,114.7,108.2,114.4z"/>
<path class="st2" d="M109.6,117.4c0.7,1.5,1.3,3.1,1.9,4.7c-0.8,0.5-1.5,1.1-2.2,1.7v-1.6c0.4-0.2,0.7-0.3,0.7-1.1
	c0-0.2,0-0.4-0.2-0.6c-0.1,0.2-0.3,0.4-0.5,0.6v-3.3C109.4,117.7,109.5,117.6,109.6,117.4z M109.3,123.8c-0.3,0.3-0.6,0.6-0.8,0.8
	c-0.7,0.7-1.2,1.6-1.7,2.4c0.2-1,0.5-1.9,0.8-2.8c0-0.1,0-0.3-0.1-0.3s-0.3,0-0.3,0.1l0,0c-0.3,0.8-0.5,1.7-0.7,2.6
	c0-1.4-0.2-2.8-0.5-4.1c0.1-0.5,0.3-1,0.5-1.4c0.3-0.4,0.6-0.8,1-1.1c0.7-0.6,1.4-1.3,1.9-2.2v3.3c-0.1,0.1-0.2,0.1-0.3,0.2
	c-0.5,0.2-0.3,0.8-0.3,1.3c0.2-0.1,0.4-0.2,0.6-0.3L109.3,123.8L109.3,123.8z"/>
<path class="st2" d="M110.8,182c0.4,0.3,0.7,0.7,1.1,1c0.5,0.5,1,1,1.5,1.6c1.5,1.9,3.5,3.2,5.8,3.8c1.7,0.3,3.5,0,5-1l-0.2-0.3
	h-0.1c-1-0.6-2.2-0.9-3.3-1h-0.1c-0.2,0-0.5,0-0.7,0.1c-0.5,0.1-0.9,0.2-1.3,0.2c-0.3,0-0.7,0-1,0c-0.1,0-0.2-0.1-0.2-0.3
	s0.2-0.2,0.3-0.2c0.3,0,0.6,0,0.9,0c0.4,0,0.7-0.1,1.1-0.2c-0.3-0.1-0.5-0.2-0.8-0.3c-0.6-0.3-1.3-0.6-1.9-1
	c-0.1-0.1-0.2-0.1-0.1-0.3c0.1-0.2,0.2-0.1,0.3-0.1c0.6,0.4,1.2,0.7,1.9,1c0.5,0.2,1.1,0.4,1.6,0.6c1.3,0.1,2.5,0.5,3.6,1.1
	c0,0,0.1,0,0.2,0l0.1-0.1c-1.7-1.7-3.8-3.1-6-4.1C116,181.6,113.3,181.4,110.8,182z"/>
<path class="st2" d="M110.1,171.1c1,0.1,2.1,0.2,3.1,0.5c-0.5-0.7-1-1.4-1.6-1.9c-0.5-0.5-1-1-1.6-1.4c-0.5-0.1-1.1-0.1-1.6-0.1
	c-0.1,0-0.2-0.1-0.3-0.2c0-0.1,0.1-0.2,0.2-0.3c0,0,0.1,0,0.1,0c0.3,0,0.6,0,0.9,0c-0.1-0.1-0.2-0.2-0.4-0.3
	c-0.3-0.2-0.6-0.4-0.9-0.6c-0.6-0.1-1.2-0.3-1.7-0.6c-0.6-0.3-1.2-0.6-1.9-0.9c-0.3-0.1-0.1-0.6,0.2-0.4c0.7,0.4,1.3,0.7,1.9,0.9
	c0.1,0.1,0.3,0.1,0.5,0.2c-0.1-0.1-0.3-0.2-0.4-0.3c-0.8-0.6-1.5-1.2-2.2-1.8c-0.1-0.1-0.1-0.2-0.1-0.3c0.1-0.1,0.2-0.1,0.3-0.1
	c0,0,0,0,0.1,0c0.8,0.6,1.5,1.2,2.2,1.8s1.5,1.2,2.3,1.7c1,0.7,1.9,1.4,2.8,2.3c0.6,0.5,1.1,1.2,1.6,1.8c-0.1-1-0.4-2-1-2.9
	c-0.9-1.4-2-2.7-3.3-3.7c-1.7-1.4-3.6-2.5-5.6-3.2c-1.8-0.6-3.7-1.1-5.7-1.3l0,0c1,0.7,2,1.5,2.8,2.4c1.4,1.7,2.9,3.3,4.5,4.8
	C106.7,168.6,108.3,169.9,110.1,171.1z"/>
<path class="st2" d="M108.1,176.1c-0.3,0.1-0.4,0.3-0.3,0.5c0.2,0.3,0.5,0.4,0.9,0.4c0.2,0,0.3-0.2,0.3-0.4c0-0.1,0-0.1,0-0.1
	C108.8,176.2,108.4,176,108.1,176.1z"/>
<path class="st2" d="M118.4,170.5c-0.2,0.3-0.1,0.6,0.1,0.8c0.2,0.2,0.4,0.2,0.6,0c0,0,0,0,0,0C119.5,170.8,118.8,170,118.4,170.5z"
	/>
<path class="st2" d="M104.4,161.1c1,0.4,2.1,0.9,3,1.6c0.1-0.5,0.1-1,0.2-1.4s0.2-0.4,0.1-0.8c-0.2-0.7-0.5-1.5-0.9-2.2
	c-0.3-0.7-0.7-1.4-1.1-2c-0.2-0.3,0.2-0.5,0.4-0.3c0.4,0.6,0.8,1.3,1.2,2c0.3,0.6,0.5,1.2,0.8,1.8c0.4-1.3,0.9-2.2,0.2-3.6
	c-0.6-1.4-1.5-2.6-2.6-3.7c-1.2-1.1-2.6-1.8-4.1-2.2c0.5,0.8,0.9,1.7,1.2,2.6c0.4,1.1,0.8,2.2,1.1,3.3c0.2,1.1,0.4,2.1,0.5,3.2
	C104.3,160.1,104.4,160.6,104.4,161.1z"/>
<path class="st2" d="M108,163c0.5,0.4,1.1,0.8,1.6,1.2c0.3,0.3,0.6,0.5,0.9,0.8c0-0.6,0-1.1-0.2-1.7c-0.2-0.7-0.4-1.3-0.8-1.9
	c-0.1-0.1,0-0.3,0.1-0.3c0.1-0.1,0.3,0,0.3,0.1c0.4,0.6,0.6,1.3,0.8,2c0.2,0.7,0.2,1.5,0.2,2.2c0.6,0.6,1.1,1.2,1.5,1.8
	c0.1-1.2,0-2.3-0.2-3.5c-0.3-1.4-0.8-2.8-1.4-4.1c-0.5-1-1-2-1.5-3c0,1.1-0.2,2.2-0.6,3.2c-0.2,0.5-0.4,1-0.5,1.6
	C108.1,162,108,162.5,108,163z"/>
<path class="st2" d="M112.8,167.8c0.3,0.5,0.6,1.1,0.8,1.6c0.4-0.5,0.7-1,0.8-1.6c0.3-1.1,0.4-2.2,0.4-3.3c0.1-2.6-0.1-5.1-0.6-7.6
	c-0.6-1.9-1.1-3.8-1.5-5.7c-0.5,0.7-0.8,1.4-1.1,2.2c-0.5,1.5-0.9,3.1-1.1,4.7l0.6,1.3c0.6,1.3,1.1,2.6,1.4,4c0-0.7,0.1-1.5,0.1-2.1
	c0.1-1.3,0.1-2.5,0.1-3.7c0-0.1,0.1-0.2,0.2-0.2c0.1,0,0.2,0.1,0.2,0.2c0,0,0,0,0,0c0,1.2-0.1,2.5-0.2,3.8s-0.1,2.3-0.2,3.4
	C112.8,165.9,112.9,166.8,112.8,167.8z"/>
<path class="st2" d="M102.6,150.3c1,0.3,1.9,0.8,2.7,1.4c-0.5-1-1.1-2-1.7-3c-0.8-1.3-1.7-2.6-2.5-3.8l0,0c-0.6-0.2-1.1-0.5-1.6-0.8
	c-0.6-0.4-1.2-0.8-1.7-1.3c-0.1-0.1-0.1-0.2-0.1-0.3c0.1-0.1,0.2-0.1,0.3-0.1c0,0,0,0,0.1,0.1c0.5,0.4,1.1,0.9,1.7,1.2
	c0.3,0.2,0.7,0.4,1,0.5c-0.2-0.3-0.4-0.6-0.6-0.9c-0.3-0.5-0.7-1-1.1-1.4c-0.1-0.1-0.1-0.2,0-0.3c0.1-0.1,0.2-0.1,0.3,0
	c0,0,0,0,0,0.1c0.4,0.5,0.8,1,1.1,1.4c1.2,1.7,2.4,3.6,3.5,5.4c0.8,1.3,1.6,2.6,2.2,4l0,0c0.2,0.2,0.4,0.4,0.5,0.6
	c0.3-0.3,0.2-1.1-0.2-2.2c-0.8-2.1-1.8-4-3-5.9c-1.1-1.8-2.4-3.3-4-4.7c-1.5-1.3-3.2-2.4-5-3.1c0,1.1,0.2,2.3,0.7,3.3
	c0.6,1.3,1.4,2.6,2.2,3.8c0.6,0.9,1.3,1.7,2.1,2.4C100.8,147.6,101.8,148.9,102.6,150.3C102.5,150.3,102.6,150.3,102.6,150.3z"/>
<path class="st2" d="M109.2,151.8c-0.3-0.1-0.6,0.1-0.8,0.4c-0.3,0.6,0.3,1.1,0.8,1.1c0.3,0,0.5-0.1,0.6-0.4c0.1-0.2,0.1-0.4,0-0.6
	C109.8,152,109.5,151.8,109.2,151.8z"/>
<path class="st2" d="M100.7,157.5c0.1-0.4,0.2-0.9,0.1-1.4c-0.1-0.4-0.3-0.6-0.7-0.8c-0.1,0-0.2,0-0.3,0c-0.2,0-0.4,0.1-0.5,0.2
	c-0.1,0.1-0.2,0.2-0.3,0.4c0,0.1,0,0.2,0,0.3c0,0.4,0.3,0.8,0.6,1C99.9,157.4,100.3,157.5,100.7,157.5z"/>
<path class="st2" d="M103.9,144.7c0.4,0.8,0.9,1.6,1.2,2.3c-0.3-1.8-0.7-3.6-1.2-5.3c-0.7-2.2-1.6-4.2-2.7-6.2
	c-0.2-0.3,0.3-0.5,0.4-0.2c1.1,2,2,4.1,2.7,6.3c0.5,1.8,0.9,3.5,1.2,5.3c0-0.9,0.1-1.7,0.2-2.6v-0.1c-0.1-3-0.7-6-1.7-8.9
	c-0.7-1.9-1.9-3.6-3.6-4.8c-0.3,1.9-0.3,3.8-0.1,5.7c0.2,1.8,0.8,3.6,1.5,5.3C102.4,142.6,103.2,143.5,103.9,144.7z"/>
<path class="st2" d="M107,151.2c0.2-1.5,0.4-2.9,0.6-4.4c0.3-1.7,0.6-3.4,1-5c-0.1-0.4-0.1-0.8-0.1-1.3c0-0.5,0-0.9,0.1-1.3
	c0-0.1,0.1-0.2,0.2-0.3c0.1,0,0.2,0.1,0.3,0.2c0,0,0,0.1,0,0.1c-0.1,0.4-0.1,0.9-0.1,1.3c0,0.2,0,0.4,0.1,0.6
	c0.1-0.1,0.2-0.3,0.3-0.4c0.2-0.3,0.3-0.7,0.4-1c0-0.1,0.1-0.2,0.3-0.1c0.2,0.1,0.2,0.2,0.1,0.3c-0.1,0.4-0.3,0.8-0.5,1.1
	c-0.2,0.3-0.4,0.6-0.7,0.8c-0.4,1.7-0.7,3.4-1,5.1c-0.3,1.7-0.5,3.4-0.7,5.2c0.4-0.1,0.4-0.6,0.5-0.9c0.4-1,0.8-2.1,1.2-3.1
	c1-2.3,1.8-4.6,2.3-7V140c0-0.6,0-1.1,0-1.7c-0.1-0.7-0.3-1.4-0.5-2c-0.3-0.9-0.9-1.8-1.6-2.5c-0.3,1-0.7,2-1,3
	c-0.4,1.2-0.9,2.4-1.2,3.5c-0.8,2.5-1.2,5.1-1.1,7.7C106,149.2,106.7,150.2,107,151.2z"/>
<path class="st2" d="M102.6,131.7c-0.5-1.5-1.1-3-1.8-4.5c-0.8-1.8-1.9-3.6-3.2-5.1c-0.1-0.1-0.2-0.2,0-0.3s0.2-0.1,0.3,0
	c1.4,1.6,2.5,3.3,3.3,5.2c0.4,0.8,0.7,1.6,1,2.5c-0.5-1.8-0.8-3.6-1-5.5c-0.5-1.2-1.1-2.2-2-3.1c-0.8-0.9-1.8-1.7-2.8-2.3
	c0,1.8,0.2,3.7,0.8,5.4c0.6,1.8,1.4,3.6,2.6,5.2C100.6,130.2,101.7,130.6,102.6,131.7z"/>
<path class="st2" d="M104.3,134.5c0.1,0.2,0.2,0.4,0.2,0.6c0.4-0.2,0.5-1,0.8-2.2c0.1-0.3,0.2-0.7,0.2-1.1c0.7-3.1,0.6-6.4-0.2-9.5
	c-0.5-2.6-1.7-5-3.5-7c-0.4,2.8-0.4,5.6-0.2,8.3c0.3,3.4,1.1,6.7,2.3,9.9c0.1-1,0.2-2,0.3-3c0-1.3,0-2.8-0.1-4.2
	c-0.2-1.4-0.7-2.8-1.4-4c-0.2-0.4-0.5-0.9-0.7-1.3c0-0.1-0.1-0.2,0.1-0.3c0.2-0.1,0.3,0,0.3,0.1c0.2,0.4,0.4,0.9,0.6,1.3
	c0.2,0.5,0.5,1,0.7,1.5c0-0.4-0.1-0.8-0.1-1.3c-0.2-1-0.4-2-0.6-3c0-0.1-0.1-0.2,0.2-0.3c0.2-0.1,0.3,0.1,0.3,0.2
	c0.2,1,0.4,2.1,0.6,3.1s0.2,1.7,0.3,2.6c0,0.5,0.1,1,0.2,1.4c0.1,1.4,0.1,2.8,0.1,4.2C104.7,131.9,104.5,133.2,104.3,134.5z"/>
<path class="st2" d="M96.3,133c-0.2,0-0.4,0.1-0.5,0.2c-0.1,0.1-0.2,0.3-0.2,0.5c0,0.2,0.1,0.4,0.2,0.5c0.1,0.1,0.3,0.2,0.5,0.2
	c0.2,0,0.4-0.1,0.5-0.2c0.3-0.2,0.3-0.6,0.1-0.9c0,0-0.1-0.1-0.1-0.1C96.7,133,96.5,133,96.3,133z"/>
<path class="st2" d="M105.3,120.4c0.2-0.4,0.3-0.8,0.4-1.1c0.3-0.9,1-1.7,1.9-2.3c0.1-0.1,0.2-0.2,0.3-0.2c0.3-0.2,0.5,0.2,0.3,0.3
	c-0.1,0.1-0.2,0.2-0.3,0.2c-0.8,0.4-1.4,1.2-1.7,2c-0.1,0.3-0.2,0.6-0.3,0.9c-0.1,0.3-0.2,0.5-0.3,0.7c0,0.2,0.1,0.4,0.2,0.6
	c0.1-0.3,0.2-0.5,0.4-0.7c0.3-0.5,0.6-0.9,1.1-1.3c0.8-0.7,1.6-1.6,2.1-2.5c-0.1-0.4-0.2-1.2-0.5-1.4c-0.1-0.1-0.4-0.1-0.6,0
	c-0.4,0.2-0.9,0.5-1.2,0.8c-0.6,0.5-1,1.1-1.4,1.8C104.8,119.3,105,119.5,105.3,120.4z"/>
<path class="st2" d="M106.3,129.1c-0.1,0.9-0.2,1.9-0.4,2.8c0.1-0.1,0.2-0.2,0.3-0.3c0.3-0.3,0.6-0.6,0.8-1l0,0
	c0.5-0.8,1-1.4,1.4-2.1c0,0,0-0.1,0.3-0.5c0.1-0.1,0.2-0.1,0.3-0.1c0.1,0.1,0.1,0.2,0.1,0.3c0,0,0,0,0,0c0,0-0.1,0.2-0.3,0.4
	c-0.5,0.7-0.9,1.3-1.4,2.1l0,0c-0.3,0.4-0.5,0.8-0.9,1.1c-0.4,0.5-0.7,0.5-0.8,1.1c-0.1,0.6-0.2,1-0.3,1.4c1-0.8,2-1.7,2.9-2.7
	c0.9-1,1.7-2.1,2.3-3.3c0.5-0.9,0.8-1.9,0.9-2.9c0.1-0.9,0.1-1.9-0.1-2.8c-1,0.6-1.9,1.4-2.6,2.3
	C107.8,126.2,106.9,127.6,106.3,129.1C106.4,129.1,106.4,129.1,106.3,129.1z"/>
<path class="st2" d="M97.9,115.3c-0.2,0.1-0.4,0.2-0.5,0.4c-0.1,0.2-0.1,0.5,0,0.7c0.1,0.2,0.2,0.4,0.5,0.6c0.2,0.1,0.5,0.1,0.7,0.1
	c0.2-0.1,0.4-0.3,0.5-0.5c0.1-0.2,0.1-0.5,0-0.7c-0.1-0.2-0.3-0.4-0.5-0.6C98.4,115.2,98.1,115.2,97.9,115.3z"/>
<path class="st2" d="M105.2,117.8c0.4-0.5,0.8-1.1,1.3-1.5c0.7-0.7,1.4-1.2,1.2-2.4c-0.2-0.9-0.5-1.7-1-2.4
	c-0.8,0.9-1.5,1.9-1.8,3.1c-0.3,1.1-0.3,2.2-0.1,3.3c0.1-0.8,0.2-1.6,0.5-2.4c0.3-1.1,0.6-2.1,1.1-3.1c0-0.1,0.2-0.2,0.3-0.2
	c0.1,0,0.2,0.2,0.2,0.3c0,0,0,0.1,0,0.1c-0.5,1-0.8,2-1.1,3C105.5,116.2,105.3,117,105.2,117.8z"/>
<path class="st2" d="M125.8,184.5c0.1-1,0.2-1.9,0.1-2.9c-0.1-2.1-0.5-4.1-1.3-6.1c0-0.1,0-0.3,0.1-0.3c0,0,0,0,0,0
	c-0.7-0.8-1.3-1.6-2-2.4c-0.1,2.4,0.1,4.8,0.4,7.2c0.3,2.1,0.9,4.1,1.7,6C125.3,185.5,125.6,185,125.8,184.5z"/>
<path class="st2" d="M125.2,175.6c0.7,1.9,1.1,3.9,1.2,5.9c0,0.6,0,1.3,0,1.9c0.3-0.4,0.4-0.9,0.5-1.4c0.2-1.4,0.2-2.8,0.1-4.2
	c0-0.1,0-0.2,0.1-0.2C126.4,177,125.8,176.3,125.2,175.6z"/>
<path class="st2" d="M127.4,178c0.1,1.3,0,2.6-0.1,3.9c0.3-0.6,0.6-1.3,0.9-2c0.1-0.3,0.2-0.6,0.3-1
	C128.1,178.6,127.7,178.3,127.4,178z"/>
<path class="st2" d="M226.2,147.1c0,0.7,0,1.3-0.1,2c0.7-0.8,1.5-1.5,2.3-2.3c0-0.4,0.1-0.7,0.2-1.1c0.1-0.4,0.2-0.8,0.4-1.2
	c0-0.1,0.1-0.2,0.3-0.2c0.1,0,0.2,0.1,0.2,0.3c0,0,0,0,0,0.1c-0.1,0.4-0.3,0.8-0.4,1.1c0,0.1-0.1,0.3-0.1,0.5c1-1,2.1-2,3.2-3
	c0.1-0.1,0.2-0.1,0.3,0c0.1,0.1,0.1,0.2,0,0.3c0,0,0,0-0.1,0c-1.1,1-2.2,2-3.3,3c0.1,0,0.2,0,0.4,0c0.3,0,0.6,0,0.9,0
	c0.1,0,0.2,0.1,0.2,0.3c0,0.1-0.1,0.2-0.3,0.2c-0.3,0-0.6,0-0.9-0.1h-0.8c-1,0.9-1.9,1.9-2.8,2.9c-0.3,1.1-0.8,2.1-1.4,3.1
	c0.2-0.1,0.4-0.2,0.6-0.3c0.4-0.7,1-1.3,1.6-1.9c1.5-1,2.8-2.2,4.1-3.4c1.3-1.3,2.3-2.8,3.2-4.4c0.5-1,0.8-2.3,1.4-3.1
	c-1.7,0.3-3.2,0.9-4.7,1.7c-1.8,1.3-3.3,3-4.3,5.1C226.2,147,226.2,147,226.2,147.1z"/>
<path class="st2" d="M229.5,141.9c0.3-0.7,0.6-1.4,0.8-2.1c0.2-0.7,0.2-1.4,0.1-2.1c-0.1-1.5,0-3.1,0.5-4.6c0.1-0.3,0.1-0.5,0.2-0.7
	c-1.7,1.3-3.2,2.8-4.5,4.5c-1.2,1.6-1.9,3.5-1.9,5.5c0.6,0.9,1,1.9,1.3,2.9c0-0.7,0-1.5,0.1-2.1c0.1-0.9,0.2-1.7,0.4-2.5
	c0.2-0.7,0.5-1.3,0.9-1.8c0.3-0.4,0.7-0.8,1.1-1.1c0.1-0.1,0.3-0.1,0.3,0.1s0.1,0.3-0.1,0.3l0,0c-0.4,0.3-0.8,0.6-1.1,1
	c-0.3,0.5-0.6,1.1-0.8,1.7c0,0.2-0.1,0.3-0.1,0.5c0.2-0.2,0.4-0.4,0.6-0.6c0.4-0.4,0.8-0.7,1.3-1c0.1-0.1,0.3,0,0.3,0.1
	c0.1,0.1,0,0.3-0.1,0.3l0,0c-0.4,0.3-0.8,0.6-1.2,0.9c-0.4,0.3-0.7,0.7-1,1.1l0,0c0,0.3-0.1,0.7-0.1,1.1c-0.1,0.7-0.1,1.5-0.1,2.4
	C227.2,144.2,228.3,143,229.5,141.9z"/>
<path class="st2" d="M220.1,159.8L220.1,159.8c0,2.9-0.5,5.9-1.6,8.6c0.8-1.4,1.6-2.9,2.3-4.4c0.1-0.1,0.1-0.2,0.1-0.3l0,0
	c0-0.3,0.1-0.7,0.1-1c0-0.3-0.1-0.7-0.1-1c0-0.1,0.1-0.2,0.2-0.3c0.1,0,0.2,0.1,0.3,0.2c0.1,0.3,0.1,0.7,0.1,1
	c0.7-1.6,1.4-3.2,1.9-4.7c0-0.1,0.2-0.2,0.3-0.2c0.1,0,0.2,0.2,0.2,0.3c0,0,0,0,0,0c-0.6,1.6-1.3,3.1-2,4.7c0.1-0.1,0.1-0.1,0.2-0.2
	c0.4-0.3,0.8-0.6,1.1-0.8c0.1-0.1,0.3,0,0.3,0.1c0.1,0.1,0,0.3-0.1,0.3l0,0c-0.4,0.2-0.7,0.5-1.1,0.7c-0.5,0.3-0.8,0.7-1.1,1.2
	c-0.5,1-1,2-1.5,2.9c1-1,2-1.9,3.1-2.7c0.8-0.5,1.6-1,2.5-1.4c0.3-1,0.3-2-0.1-2.9c-0.1-0.4-0.2-0.7-0.3-1.1
	c-0.2-2.2,1.5-4.9,2.6-6.7c-1.5,0.4-3,1.2-4.2,2.2C221.8,155.9,220.7,157.7,220.1,159.8z"/>
<path class="st2" d="M230.6,119.5c-0.2,0-0.4,0-0.6,0.1c-0.2,0.2-0.3,0.4-0.4,0.6c-0.1,0.2-0.1,0.5,0,0.8c0.1,0.2,0.3,0.3,0.5,0.4
	c0.2,0,0.4,0,0.6-0.1c0.2-0.2,0.4-0.4,0.4-0.7c0.1-0.2,0-0.5-0.1-0.7C230.9,119.7,230.8,119.5,230.6,119.5z"/>
<path class="st2" d="M221.6,120.4c0.3,0.4,0.5,0.9,0.7,1.3c0.1,0.3,0.2,0.6,0.3,0.9c0.3-0.7,0.6-1.4,1-2c-0.1-0.9-0.6-1.7-1.3-2.2
	c-0.6-0.4-1.3-0.6-2-0.6c-0.7,1-1.1,2.2-1.2,3.4c0.2,1.3,0.6,2.6,1.1,3.8l0,0c0.6,0.1,1.1,0.4,1.6,0.8c0-0.6,0.1-1.2,0.3-1.8
	c0.1-0.3,0.1-0.5,0.2-0.8c-0.1-0.5-0.3-1-0.5-1.4c-0.2-0.4-0.4-0.9-0.6-1.3c0-0.1,0-0.2,0.1-0.3S221.6,120.2,221.6,120.4
	C221.6,120.3,221.6,120.4,221.6,120.4z"/>
<path class="st2" d="M222.6,124.2c-0.6,2.3-0.2,4.8,1.1,6.8c0.3,0.5,0.6,0.9,1,1.3c0-0.1,0.1-0.3,0.1-0.4c-0.5-1.9-0.6-3.8-0.3-5.7
	c0.1-0.7,0.2-1.5,0.4-2.2c-0.1-0.3-0.3-0.7-0.4-1c-0.1-0.4-0.2-0.8-0.2-1.2c0-0.3,0.4-0.3,0.5,0c0,0.3,0.1,0.7,0.2,1
	c0,0.2,0.1,0.3,0.2,0.5c0.3-1,0.6-1.9,1-2.8c0.1-0.1,0.2-0.2,0.3-0.1s0.2,0.2,0.1,0.3c-0.4,0.8-0.7,1.7-1,2.5c0-0.1,0.1-0.1,0.1-0.1
	c0.2-0.2,0.4-0.4,0.6-0.7c0.1-0.1,0.2-0.1,0.3-0.1c0.1,0.1,0.1,0.2,0.1,0.3l0,0c-0.2,0.3-0.4,0.5-0.6,0.7c-0.2,0.2-0.5,0.4-0.7,0.6
	c-0.2,0.7-0.3,1.5-0.4,2.2c0,0.4-0.1,0.8-0.1,1.2c0.1-0.1,0.3-0.3,0.4-0.4c0.2-0.2,0.4-0.4,0.5-0.7c0.1-0.1,0.2-0.2,0.3-0.1
	s0.2,0.2,0.1,0.3l0,0c-0.2,0.3-0.4,0.5-0.6,0.8c-0.3,0.3-0.5,0.6-0.7,0.9c0,1,0.1,1.9,0.3,2.9c0.7-1.5,1.6-2.9,2.7-4.2
	c0.2-0.8,0.4-1.6,0.3-2.4c0-0.8-0.2-1.7-0.4-2.5c-0.3-0.9-0.4-1.8-0.3-2.7c0.1-0.7,0.2-1.4,0.4-2.1c-0.5,0.3-0.9,0.6-1.4,1
	C224.5,119.8,223.2,121.9,222.6,124.2z"/>
<path class="st2" d="M218.5,128.4c0.4,0.2,0.7,0.3,1.1,0.4c-0.5-0.6-0.9-1.3-1.4-2c-0.1-0.1,0-0.2,0.1-0.3c0.1-0.1,0.2,0,0.3,0.1
	l0,0c0.4,0.6,0.9,1.2,1.3,1.9c0-0.2-0.1-0.5-0.1-0.7c-0.1-0.5-0.2-0.9-0.3-1.3c0-0.1,0-0.3,0.2-0.3c0.1,0,0.3,0,0.3,0.2
	c0.1,0.5,0.2,0.9,0.3,1.4c0.1,0.5,0.2,1,0.2,1.6l1,1.3c0.2,0.2,0.4,0.5,0.5,0.7c0-0.1,0-0.2,0-0.3l0,0c0-0.3,0-0.6,0-0.9
	c0-0.1,0.1-0.2,0.2-0.2c0.1,0,0.2,0.1,0.2,0.2c0,0,0,0,0,0c0,0.3,0,0.6,0,0.9l0,0c0,0.3,0,0.5-0.1,0.8c0.6,0.8,1.2,1.5,1.8,2.2
	c0.1-0.4,0.1-0.8,0.3-1.1l0,0c-0.4-0.5-0.8-1-1.1-1.6c-0.9-1.4-1.4-3-1.4-4.7c-1.1-1.3-2.2-1.1-3.6-0.9l-0.8,0.1
	c0.2,2.1,0.8,4.1,1.9,5.9c1.2,1.6,2.8,2.8,4.7,3.5c0-0.2,0-0.4,0-0.6c-0.7-0.8-1.4-1.6-2-2.5h-0.7c-0.2,0-0.5,0-0.7-0.1
	c-0.1,0-0.2-0.1-0.3-0.2c0-0.1,0.1-0.2,0.2-0.3c0,0,0.1,0,0.1,0c0.2,0,0.5,0,0.7,0c0.1,0,0.2,0,0.3,0c-0.2-0.3-0.5-0.6-0.7-0.9
	c-0.4-0.5-0.8-1-1.1-1.5c-0.6,0-1.2-0.2-1.7-0.4c-0.1,0-0.2-0.1-0.2-0.2c0-0.1,0.1-0.2,0.2-0.2C218.3,128.2,218.4,128.3,218.5,128.4
	z"/>
<path class="st2" d="M225.5,131.5c-0.6,1.2-0.9,2.5-0.9,3.9c-0.1,1.1,0.1,2.3,0.4,3.3c0.3-0.6,0.6-1.1,1-1.6l0,0
	c-0.1-0.5-0.1-1,0-1.5c0.4-1.7,1-3.3,1.8-4.8c0.4-0.7,0.7-1.4,1.1-2c0-0.3,0.1-0.6,0.1-0.8s0-0.5,0.1-0.7c0-0.1,0.1-0.2,0.2-0.3
	c0.1,0,0.2,0.1,0.3,0.2c0,0,0,0.1,0,0.1c0,0.1,0,0.3,0,0.4l0.8-1.3c0.1-0.1,0.1-0.2,0.3-0.1s0.1,0.2,0.1,0.3
	c-0.9,1.4-1.7,2.8-2.5,4.3c-0.1,0.2-0.2,0.4-0.3,0.7l0,0c0.3-0.2,0.5-0.4,0.8-0.5c0.1-0.1,0.3,0,0.3,0.1c0.1,0.1,0,0.3-0.1,0.3
	c-0.3,0.1-0.5,0.3-0.8,0.5c-0.2,0.2-0.5,0.4-0.7,0.6l0,0c-0.4,1-0.7,2-1,3c-0.1,0.3-0.1,0.6-0.1,0.9c0.6-0.8,1.3-1.6,2.1-2.3l0,0
	c0.7-1.1,1.4-2.3,1.9-3.5c0.5-1.2,0.9-2.5,1.1-3.7c0.2-0.9,0.3-1.9,0.5-2.8c-1.2,0.8-2.4,1.8-3.4,2.8
	C227.3,128.3,226.3,129.8,225.5,131.5z"/>
<path class="st2" d="M234.2,134.3c-0.4,0.3-0.7,0.7-0.8,1.2c0,0,0,0,0,0.1c0.3,0,0.7-0.1,1-0.2c0.3-0.1,0.5-0.3,0.6-0.6
	c0.1-0.2,0.3-0.7-0.1-0.8C234.7,134.1,234.4,134.2,234.2,134.3z"/>
<path class="st2" d="M223.8,142c-0.7-0.9-1.4-1.8-1.9-2.6c-0.4-0.7-0.8-1.3-1.2-1.9c-0.6,1.6-1,3.2-1.1,4.9
	c-0.2,1.8-0.1,3.5,0.2,5.3c0.2,1.2,0.7,2.3,1.3,3.4c0.6,0.9,1.3,1.7,2.1,2.4c-0.1-1.9-0.4-3.8-0.9-5.7c-0.4-0.2-0.7-0.5-1-0.7
	c-0.4-0.3-0.7-0.7-1-1.1c-0.1-0.1-0.1-0.2,0-0.3c0.1-0.1,0.2-0.1,0.3,0c0,0,0,0,0.1,0.1c0.3,0.4,0.6,0.7,1,1
	c0.2,0.2,0.3,0.3,0.5,0.4c-0.3-1.3-0.7-2.5-1.1-3.8c0-0.1,0-0.3,0.2-0.3c0.1,0,0.3,0,0.3,0.2c0.4,1.2,0.8,2.4,1.1,3.6
	c0.1-0.4,0.2-0.8,0.2-1.2c0-0.1,0.1-0.2,0.2-0.2c0.1,0,0.2,0.1,0.2,0.2l0,0c0,0.7-0.2,1.4-0.5,2.1c0.5,1.9,0.8,3.9,0.9,5.9
	C226.2,150,226.5,145.5,223.8,142z"/>
<path class="st2" d="M223.1,164.8c-2.4,1.6-4.4,3.8-5.6,6.4c1.3-0.6,2.6-1.2,3.8-2c0.1-0.3,0.2-0.7,0.3-1c0.1-0.4,0.3-0.7,0.5-1
	c0.1-0.1,0.1-0.2,0.3-0.1s0.1,0.2,0.1,0.3c-0.2,0.3-0.4,0.6-0.5,0.9c-0.1,0.1-0.1,0.2-0.1,0.4c1.5-1.1,3-2.4,4.3-3.7
	c0.1-0.1,0.2-0.1,0.3,0c0.1,0.1,0.1,0.2,0,0.3c0,0,0,0-0.1,0.1c-1.3,1.3-2.7,2.5-4.2,3.6c-1.3,1-2.7,1.8-4.2,2.4
	c-0.1,0.2-0.2,0.4-0.2,0.6c1.6-0.1,3.2-0.7,4.6-1.5c1.9-1.2,3.6-2.7,5-4.5c1.1-1.3,2.3-2.6,3.5-3.9
	C228.2,162.2,225.5,163.1,223.1,164.8z"/>
<path class="st2" d="M229.4,157.5c-0.1,0.3,0.1,0.7,0.4,0.8c0,0,0.1,0,0.1,0c0.4,0.1,0.9-0.2,1.1-0.6c0.1-0.3-0.1-0.7-0.4-0.8
	c0,0-0.1,0-0.1,0C230,156.8,229.6,157.1,229.4,157.5z"/>
<path class="st2" d="M219.1,152.7c-0.1,0.2-0.2,0.4-0.2,0.6c0,0.2,0.1,0.4,0.2,0.6l0,0c0.2,0.2,0.5,0.3,0.7,0.1
	c0.1,0,0.1-0.1,0.1-0.1l0,0c0.1-0.2,0.2-0.4,0.2-0.6c0-0.2-0.1-0.4-0.2-0.6c-0.2-0.2-0.5-0.3-0.8-0.1
	C219.2,152.6,219.2,152.7,219.1,152.7z"/>
<path class="st2" d="M217.1,163.8c-0.3,0.4-0.5,0.7-0.8,1.1c-0.2,0.4-0.5,0.8-0.6,1.2l0,0c0,1,0,1.9,0.1,2.9
	c0.1,0.9,0.4,1.8,0.8,2.6c0.6-0.3,1-2.3,1.3-3c1.3-3.7,2.4-7.8,1.1-12c-0.3-0.9-0.6-1.7-1.1-2.5c-0.3-0.5-0.6-1-0.9-1.4
	c-0.9,3.6-2.1,7-3.7,10.3l-0.1,0.2c-0.1,1.9,0.1,3.8,0.7,5.7c0.3,1.1,1.1,2.1,2.2,2.6c-0.3-0.8-0.6-1.6-0.7-2.4
	c-0.2-1.4-0.2-2.7-0.1-4.1c0.1-1.2,0.2-2.5,0.4-3.7c0.2-1.3,0.5-2.6,0.9-3.8c0-0.1,0.1-0.2,0.3-0.2s0.2,0.1,0.2,0.3c0,0,0,0.1,0,0.1
	c-0.4,1.2-0.7,2.5-0.9,3.8c-0.2,1.2-0.3,2.4-0.4,3.6l0,0c0.1-0.1,0.1-0.2,0.2-0.3c0.3-0.4,0.5-0.8,0.8-1.2c0.1-0.1,0.3-0.1,0.4,0
	C217.2,163.5,217.2,163.7,217.1,163.8z"/>
<path class="st2" d="M205.6,185.6c0.3-0.5,0.7-0.9,1-1.4c1.2-1.4,2.4-2.1,2.8-4c0.1-0.6,0.2-1.1,0.1-1.7c0-0.4,0.4-0.4,0.4-0.1
	c0,0.6,0,1.2-0.1,1.8c-0.1,0.2-0.1,0.5-0.2,0.7c0.5-0.5,0.9-1,1.4-1.5c0.8-0.9,1.4-1.9,1.9-3c0.1-0.1,0.2-0.2,0.3-0.1
	s0.2,0.2,0.1,0.3c-0.6,1.1-1.2,2.1-2,3.1c-0.3,0.3-0.5,0.7-0.9,1c0.4-0.2,0.7-0.4,1-0.5c0.1-0.1,0.2,0,0.3,0.1s0,0.2-0.1,0.3l0,0
	c-0.4,0.2-0.9,0.4-1.3,0.7c-1.4,0.9-2.5,2-3.5,3.2c-0.6,0.7-1.1,1.4-1.6,2.1c1.9-0.7,3.6-1.7,5.1-3c1.8-1.6,3.2-3.6,4.2-5.7
	c0.7-1.4,1.3-2.8,1.9-4.2c0.3-0.7,0.6-1.4,0.9-2.1C211.3,174.4,207.2,179,205.6,185.6z"/>
<path class="st2" d="M209.6,171.6c-0.2,0-0.3,0.1-0.4,0.3c-0.1,0.2-0.2,0.4-0.2,0.6c0,0.2,0.1,0.4,0.2,0.6c0.1,0.1,0.2,0.2,0.3,0.2
	c0.2,0,0.3,0,0.5-0.2c0.2-0.2,0.2-0.4,0.3-0.6c0-0.1,0-0.2,0-0.3c0-0.1-0.1-0.3-0.2-0.4c-0.1-0.1-0.2-0.2-0.3-0.2H209.6z"/>
<path class="st2" d="M219.7,177.4c-0.3,0.2-0.3,0.5-0.1,0.8c0.1,0.1,0.2,0.2,0.3,0.2c0.3,0.1,0.6,0.1,0.9,0c0.5-0.1,0.9-0.7,0.4-1.1
	C220.7,177.1,220.1,177.1,219.7,177.4z"/>
<path class="st2" d="M210.8,186.4c-0.5,0.6-1.1,1.1-1.6,1.6c1.1-0.6,2.4-1.2,3.7-1.9c0.1-0.1,0.3,0,0.3,0.1c0.1,0.1,0,0.3-0.1,0.3
	c-1.5,0.9-3,1.6-4.3,2.2c0.6,0,1.1,0.2,1.6,0.4c0.2,0.1,0.2,0.2,0.1,0.4c0.5-0.2,1-0.5,1.4-0.7c2.3-1.5,4.4-3.3,6.1-5.5
	c-2.9-0.4-5.9,0.3-8.4,1.9c-1.4,1-2.8,1.7-4.4,2.2c-0.4,0.3-0.7,0.8-0.9,1.2c-0.2,0.4-0.3,0.7-0.5,1.1c1.3-0.1,2.7-0.4,3.9-1
	c1-0.8,1.9-1.6,2.8-2.6c0.1-0.1,0.2-0.1,0.3-0.1C210.9,186,210.9,186.2,210.8,186.4C210.9,186.3,210.8,186.3,210.8,186.4z"/>
<path class="st2" d="M210.2,189.5C210.2,189.5,210.2,189.5,210.2,189.5c-0.7-0.3-1.4-0.4-2.1-0.4h-0.3c-1.2,0.5-2.5,0.9-3.8,1
	C206.1,190.6,208.3,190.4,210.2,189.5z"/>
<path class="st2" d="M205.8,178.4c-0.3,0.4-0.5,0.9-0.7,1.4c-0.2,0.5-0.3,1-0.4,1.5c0.2,0.9,0.5,1.8,1,2.6c0.3-1.1,0.8-2.1,1.3-3.1
	c0.2-1.5,0.2-3-0.1-4.5c-0.1-0.7-0.3-1.5-0.6-2.2c-1.2,1.5-2.6,2.9-4,4.3c0.1,2.4,0.8,4.8,2.1,6.9l0,0c0.2,0.4,0.4,0.8,0.6,1.2
	c0.1-0.7,0.3-1.4,0.5-2c-0.6-0.9-1-1.9-1.2-2.9c-0.1-0.4-0.8-0.9-1.1-1c-0.1-0.1-0.2-0.2-0.1-0.3c0.1-0.1,0.2-0.2,0.3-0.1l0,0
	c0.4,0.2,0.7,0.4,1,0.7c0.1-0.4,0.2-0.8,0.4-1.2c0.2-0.5,0.4-1.1,0.8-1.5c0-0.1,0.1-0.2,0.3-0.2c0.1,0,0.2,0.1,0.2,0.3
	C205.9,178.3,205.8,178.4,205.8,178.4z"/>
<path class="st0" d="M199.4,65.5c-0.5,0-1,0.2-1.4,0.5l0,0c-0.4,0.4-0.6,0.8-0.6,1.3c0,1.1,0.9,1.9,1.9,1.9c0.5,0,1-0.2,1.4-0.6l0,0
	c0.8-0.7,0.8-2,0-2.7C200.4,65.7,199.9,65.5,199.4,65.5L199.4,65.5z"/>
<path d="M165,67c-0.3,0.6-0.6,1-1.1,1.4h0.7c0.2-0.1,0.3-0.3,0.4-0.4c0.1,0.2,0.2,0.3,0.4,0.4h0.7C165.6,68,165.3,67.5,165,67z"/>
<path d="M165,63c-0.3,0.5-0.6,0.9-1.1,1.2h0.7c0.1-0.1,0.3-0.2,0.4-0.3c0.1,0.1,0.2,0.3,0.4,0.3h0.7C165.6,63.9,165.3,63.5,165,63z"
	/>
<path class="st0" d="M134.5,75.1c-0.7,0.2-1,0.6-1,0.9c0,0.1,0,0.3,0,0.4c0.1,0.1,0.1,0.3,0.2,0.4c0.3,0.3,0.8,0.4,1.2,0.3
	c10.8-3.4,20.4-5.1,30.1-5.1s19.3,1.7,30.1,5.1c0.4,0.2,0.9,0.1,1.2-0.3c0.1-0.1,0.2-0.2,0.2-0.4c0-0.1,0-0.3,0-0.4
	c-0.1-0.3-0.4-0.7-1-0.9C175.7,68.4,154.3,68.4,134.5,75.1L134.5,75.1z"/>
<path d="M151.2,68.9l-0.3,0.3c-1.5,1.4-3.7,1.8-5.6,1.1l-0.4-0.1l0.4-0.3c0.8-0.6,1.7-1,2.7-1.2c1-0.2,2-0.1,2.9,0.1L151.2,68.9z"/>
<path d="M156.1,63.7c-0.2,0.4-0.6,0.8-1,1.2l0.7-0.1c0.1-0.1,0.2-0.2,0.3-0.3c0.1,0.1,0.2,0.2,0.4,0.2l0.7-0.1
	C156.9,64.4,156.5,64.1,156.1,63.7z"/>
<path d="M146.9,64.8c-0.2,0.5-0.4,1-0.8,1.3l0.7-0.2c0.1-0.1,0.2-0.2,0.3-0.4c0.1,0.1,0.3,0.2,0.4,0.2l0.7-0.2
	C147.7,65.4,147.3,65.2,146.9,64.8z"/>
<path d="M137,67.4c-0.1,0.5-0.4,1-0.7,1.4l0.7-0.2c0.1-0.1,0.2-0.2,0.3-0.4c0.1,0.1,0.3,0.2,0.4,0.2l0.7-0.2
	C137.9,68,137.4,67.7,137,67.4z"/>
<path class="st1" d="M150.1,69.2c-0.7-0.1-1.5-0.1-2.2,0c-0.7,0.1-1.5,0.4-2.1,0.8C147.3,70.4,148.9,70.1,150.1,69.2z"/>
<path d="M178.8,68.9l0.3,0.3c1.5,1.4,3.7,1.8,5.6,1.1l0.5-0.1l-0.4-0.3c-0.8-0.6-1.7-1-2.7-1.2c-1-0.2-2-0.1-2.9,0.1L178.8,68.9z"/>
<path d="M173.9,63.7c0.2,0.5,0.6,0.8,1,1.2l-0.7-0.1c-0.1-0.1-0.2-0.2-0.3-0.3c-0.1,0.1-0.2,0.2-0.4,0.2l-0.7-0.1
	C173.1,64.4,173.5,64.1,173.9,63.7z"/>
<path d="M183.1,64.8c0.2,0.5,0.5,0.9,0.8,1.3l-0.7-0.2c-0.1-0.1-0.2-0.2-0.3-0.4c-0.1,0.1-0.3,0.2-0.4,0.2l-0.7-0.2
	C182.3,65.4,182.7,65.2,183.1,64.8z"/>
<path d="M193,67.4c0.1,0.5,0.4,1,0.7,1.4l-0.7-0.2c-0.1-0.1-0.2-0.2-0.3-0.4c-0.1,0.1-0.3,0.2-0.4,0.2l-0.7-0.2
	C192.1,68,192.6,67.7,193,67.4z"/>
<path class="st1" d="M179.9,69.2c0.7-0.1,1.5-0.1,2.2,0c0.7,0.1,1.5,0.4,2.1,0.8C182.7,70.4,181.1,70.1,179.9,69.2z"/>
<path d="M184.4,59.5c-0.1,2.1,0,1.5,1.8,2.5c-0.8-0.4-1.8-0.3-2.6,0.1c-0.5-0.8-1.3-1.3-2.2-1.3C183.6,60.8,183.4,61.3,184.4,59.5z"
	/>
<path class="st0" d="M162.1,62.9c0.6,0,1-0.4,1-1s-0.4-1-1-1c-0.6,0-1,0.4-1,1S161.6,62.9,162.1,62.9z"/>
<path d="M145.6,59.5c0.1,2.1,0,1.5-1.8,2.5c0.8-0.4,1.8-0.3,2.5,0.1c0.5-0.8,1.3-1.3,2.2-1.3C146.4,60.8,146.6,61.3,145.6,59.5z"/>
<path class="st0" d="M165,53.5c-0.7,0-1.2,0.5-1.2,1.2c0,0.7,0.5,1.2,1.2,1.2c0.7,0,1.2-0.5,1.2-1.2C166.2,54.1,165.7,53.5,165,53.5
	C165,53.5,165,53.5,165,53.5z"/>
<path class="st0" d="M165,45.8c-0.8,0-1.5,0.7-1.5,1.5c0,0.8,0.7,1.5,1.5,1.5s1.5-0.7,1.5-1.5l0,0C166.5,46.5,165.8,45.8,165,45.8
	C165,45.8,165,45.8,165,45.8z"/>
<path class="st0" d="M165,42.1c-0.8,0-1.4,0.6-1.4,1.4c0,0.8,0.6,1.4,1.4,1.4s1.4-0.6,1.4-1.4C166.4,42.7,165.8,42.1,165,42.1z"/>
<path class="st0" d="M165,49.8c-0.8,0-1.5,0.6-1.5,1.4c0,0.8,0.6,1.5,1.4,1.5c0.8,0,1.5-0.6,1.5-1.4c0,0,0,0,0,0
	C166.5,50.4,165.8,49.8,165,49.8z"/>
<path class="st0" d="M165,30.9c-1.7,0-3,1.3-3,3s1.3,3,3,3s3-1.3,3-3S166.7,30.9,165,30.9z"/>
<path class="st0" d="M188.2,55.5c-0.7,0-1.3,0.6-1.3,1.3l0,0c0,0.7,0.6,1.3,1.3,1.3c0.3,0,0.7-0.1,0.9-0.4l0,0
	c0.5-0.5,0.5-1.3,0-1.8C188.9,55.7,188.6,55.5,188.2,55.5z"/>
<path class="st0" d="M191.5,49c-0.4,0-0.7,0.2-1,0.4l0,0c-0.3,0.3-0.4,0.6-0.4,1c0,0.8,0.7,1.4,1.5,1.4c0.4,0,0.7-0.2,0.9-0.4l0,0
	c0.3-0.3,0.4-0.6,0.4-1C192.9,49.7,192.3,49,191.5,49z"/>
<path class="st0" d="M190.1,52.5c-0.8,0-1.4,0.6-1.4,1.4c0,0,0,0,0,0c0,0.8,0.6,1.4,1.4,1.4c0.7,0,1.3-0.6,1.3-1.4
	C191.5,53.1,190.9,52.5,190.1,52.5z"/>
<path class="st0" d="M191.8,45.6c-0.4,0-0.7,0.1-1,0.4l0,0c-0.3,0.3-0.4,0.6-0.4,1c0,0.8,0.6,1.4,1.4,1.4c0.4,0,0.7-0.1,1-0.4l0,0
	c0.3-0.3,0.4-0.6,0.4-1C193.2,46.3,192.6,45.7,191.8,45.6C191.8,45.6,191.8,45.6,191.8,45.6z"/>
<path class="st0" d="M191.5,42c-0.4,0-0.7,0.2-1,0.4l0,0c-0.3,0.3-0.4,0.6-0.4,1c0,0.8,0.7,1.4,1.4,1.4c0.4,0,0.8-0.2,1-0.4l0,0
	c0.3-0.3,0.4-0.6,0.4-1C193,42.6,192.3,42,191.5,42C191.5,42,191.5,42,191.5,42z"/>
<path class="st0" d="M191.9,38.3c-0.8,0-1.4,0.7-1.4,1.5c0,0.8,0.7,1.4,1.5,1.4c0.8,0,1.4-0.7,1.4-1.4
	C193.3,38.9,192.6,38.3,191.9,38.3C191.9,38.3,191.9,38.3,191.9,38.3z"/>
<path class="st0" d="M188.2,37.2c-0.8,0-1.5,0.6-1.5,1.4c0,0.8,0.6,1.5,1.4,1.5s1.5-0.6,1.5-1.4c0,0,0,0,0,0
	C189.7,37.9,189,37.2,188.2,37.2z"/>
<path class="st0" d="M185,36c-0.4,0-0.7,0.1-1,0.4l0,0c-0.6,0.6-0.6,1.4,0,2s1.4,0.6,2,0l0,0c0.3-0.3,0.4-0.6,0.4-1
	C186.4,36.6,185.8,36,185,36C185,36,185,36,185,36z"/>
<path class="st0" d="M181.3,35.5c-0.4,0-0.7,0.1-1,0.4l0,0c-0.3,0.3-0.4,0.6-0.4,1c0,0.7,0.6,1.3,1.4,1.3c0.4,0,0.7-0.1,1-0.4l0,0
	c0.2-0.3,0.4-0.6,0.4-0.9C182.7,36.2,182.1,35.6,181.3,35.5C181.3,35.6,181.3,35.5,181.3,35.5z"/>
<path class="st0" d="M177.9,35c-0.4,0-0.7,0.1-1,0.4l0,0c-0.5,0.5-0.5,1.4,0,1.9c0.3,0.3,0.6,0.4,1,0.4c0.4,0,0.7-0.1,1-0.4l0,0
	c0.3-0.2,0.4-0.6,0.4-1C179.3,35.7,178.7,35,177.9,35C177.9,35,177.9,35,177.9,35z"/>
<path class="st0" d="M174.5,34.5c-0.4,0-0.7,0.1-1,0.4c-0.2,0.3-0.4,0.6-0.4,1c0,0.7,0.6,1.4,1.3,1.4c0.4,0,0.7-0.1,1-0.4
	c0.3-0.3,0.4-0.6,0.4-1C175.8,35.2,175.2,34.6,174.5,34.5z"/>
<path class="st0" d="M171.4,34.3c-0.7,0-1.3,0.6-1.3,1.3s0.6,1.3,1.3,1.3s1.3-0.6,1.3-1.3c0,0,0,0,0,0
	C172.6,34.9,172.1,34.3,171.4,34.3z"/>
<path class="st0" d="M195.3,39.5c-0.4,0-0.8,0.2-1.1,0.4l0,0c-0.3,0.3-0.5,0.7-0.4,1.1c0,0.8,0.7,1.5,1.5,1.5c0.4,0,0.8-0.2,1.1-0.5
	l0,0c0.3-0.3,0.4-0.7,0.4-1C196.8,40.2,196.1,39.6,195.3,39.5z"/>
<path class="st0" d="M198.7,40.2c-0.4,0-0.8,0.2-1.1,0.4l0,0c-0.3,0.3-0.4,0.7-0.4,1.1c0,0.8,0.7,1.5,1.5,1.4c0.4,0,0.8-0.2,1-0.4
	l0,0c0.3-0.3,0.4-0.6,0.5-1C200.2,40.9,199.5,40.2,198.7,40.2z"/>
<path class="st0" d="M202.4,41c-0.5,0-0.9,0.2-1.2,0.5c-0.3,0.3-0.5,0.8-0.5,1.2c0,1,0.8,1.7,1.7,1.7c0.5,0,0.9-0.2,1.2-0.5
	c0.3-0.3,0.5-0.8,0.5-1.2C204.1,41.8,203.3,41,202.4,41z"/>
<path class="st0" d="M205.9,42.8c-0.5,0-0.9,0.2-1.3,0.6l0,0c-0.3,0.3-0.5,0.8-0.6,1.3c0,1,0.8,1.8,1.8,1.8c0.5,0,1-0.2,1.3-0.5l0,0
	c0.7-0.7,0.7-1.9,0-2.6C206.9,43,206.4,42.8,205.9,42.8z"/>
<path class="st0" d="M209,46.1c-1,0-1.9,0.9-1.9,1.9c0,1,0.9,1.9,1.9,1.9c1,0,1.9-0.9,1.9-1.9C210.9,47,210,46.1,209,46.1z"/>
<path class="st0" d="M210.7,50.5c-1,0-1.9,0.8-1.9,1.8c0,1,0.8,1.9,1.8,1.9c1,0,1.9-0.8,1.9-1.8c0,0,0,0,0,0
	C212.5,51.3,211.7,50.5,210.7,50.5z"/>
<path class="st0" d="M210.6,55c-0.9,0-1.6,0.7-1.6,1.6c0,0.9,0.7,1.6,1.6,1.6s1.6-0.7,1.6-1.6C212.2,55.7,211.5,55,210.6,55z"/>
<path class="st0" d="M209.5,58.6c-0.8,0.1-1.4,0.7-1.3,1.5c0.1,0.7,0.6,1.2,1.3,1.3c0.8,0.1,1.5-0.5,1.5-1.3
	c0.1-0.8-0.5-1.5-1.3-1.5C209.7,58.6,209.6,58.6,209.5,58.6z"/>
<path class="st0" d="M208.1,61.8c-0.8,0-1.4,0.6-1.4,1.4s0.6,1.4,1.4,1.4c0.8,0,1.4-0.6,1.4-1.4C209.5,62.4,208.9,61.8,208.1,61.8
	C208.1,61.8,208.1,61.8,208.1,61.8z"/>
<path class="st0" d="M193.6,49c-0.1,1.3-0.5,2.6-1,3.9c-0.6,1.3-1.2,2.5-2,3.7c-0.7,1-1.5,2-2.3,2.9c-0.1,0.2-0.2,0.3-0.2,0.4
	c0.1,0.3,0.2,0.5,0.4,0.7c0.1,0.1,0.1,0.1,0.2,0.2c0.3,0.2,0.7,0.1,0.9-0.1c0.5-0.3,0.9-0.8,1.3-1.3c1-1.3,1.8-2.8,2.5-4.3
	c0.8-1.6,1.3-3.3,1.5-5c0.2-1.9,0.2-3.7,0-5.6c-0.1-0.8-0.1-1.8-0.9-1.9c-0.2,0-0.3,0.2-0.4,0.5c-0.1,0.4-0.1,0.8,0,1.2
	C193.8,45.9,193.8,47.4,193.6,49z"/>
<path class="st0" d="M187.4,43.3c0.4,1.3,0.6,2.7,0.5,4.1c-0.1,1.4-0.3,2.7-0.8,4c-0.3,0.7-0.6,1.4-1,2.1c-0.4,0.6-0.8,1.3-1.3,1.9
	s-0.5,0.9-0.4,1s0.3,0.3,0.7,0.4c1,0.2,1.4-0.5,1.9-1.2c0.1-0.2,0.2-0.4,0.4-0.6c1.2-1.8,2-3.8,2.3-5.9c0.3-2.1,0.1-4.2-0.6-6.2
	c-0.1-0.5-0.4-0.9-0.7-1.3c-0.2-0.2-0.4-0.4-0.7-0.4c-0.6,0-0.7,0.3-0.7,0.7C187,42.4,187.3,42.8,187.4,43.3z"/>
<path class="st0" d="M141.8,55.5c0.7,0,1.3,0.6,1.3,1.3c0,0,0,0,0,0c0,0.7-0.6,1.3-1.3,1.3c-0.4,0-0.7-0.1-0.9-0.4l0,0
	c-0.5-0.5-0.5-1.3,0-1.8C141.1,55.7,141.5,55.5,141.8,55.5z"/>
<path class="st0" d="M138.5,49c0.4,0,0.7,0.2,1,0.4l0,0c0.3,0.3,0.4,0.6,0.4,1c0,0.8-0.6,1.4-1.4,1.4c-0.4,0-0.7-0.1-1-0.4l0,0
	c-0.3-0.3-0.4-0.6-0.4-1C137,49.7,137.7,49.1,138.5,49C138.5,49.1,138.5,49,138.5,49z"/>
<path class="st0" d="M139.9,52.5c0.8,0,1.4,0.6,1.4,1.4c0,0.8-0.6,1.4-1.4,1.4c-0.4,0-0.7-0.1-1-0.4c-0.3-0.3-0.4-0.6-0.4-1
	C138.5,53,139.1,52.4,139.9,52.5z"/>
<path class="st0" d="M138.2,45.6c0.4,0,0.7,0.1,1,0.4l0,0c0.3,0.3,0.4,0.6,0.4,1c0,0.8-0.6,1.4-1.4,1.4c-0.4,0-0.7-0.1-1-0.4l0,0
	c-0.5-0.6-0.5-1.5,0.1-2C137.5,45.8,137.9,45.7,138.2,45.6z"/>
<path class="st0" d="M138.5,42c0.4,0,0.7,0.2,1,0.4l0,0c0.6,0.6,0.6,1.5,0,2c-0.3,0.3-0.6,0.4-1,0.4c-0.4,0-0.7-0.2-1-0.4l0,0
	c-0.3-0.3-0.4-0.6-0.4-1C137.1,42.7,137.7,42,138.5,42C138.5,42,138.5,42,138.5,42z"/>
<path class="st0" d="M138.1,38.3c0.8,0,1.4,0.7,1.4,1.4c0,0.8-0.7,1.4-1.4,1.4s-1.4-0.7-1.4-1.4C136.7,38.9,137.4,38.3,138.1,38.3
	C138.1,38.3,138.1,38.3,138.1,38.3z"/>
<path class="st0" d="M141.8,37.2c0.8,0,1.5,0.6,1.5,1.4c0,0.8-0.6,1.5-1.4,1.5s-1.5-0.6-1.5-1.4c0,0,0,0,0,0
	C140.3,37.9,141,37.2,141.8,37.2z"/>
<path class="st0" d="M145,36c0.4,0,0.7,0.1,1,0.4l0,0c0.6,0.6,0.6,1.4,0,2s-1.4,0.6-2,0l0,0c-0.3-0.3-0.4-0.6-0.4-1
	C143.6,36.6,144.2,36,145,36C145,36,145,36,145,36z"/>
<path class="st0" d="M148.7,35.5c0.4,0,0.7,0.1,1,0.4l0,0c0.3,0.3,0.4,0.6,0.4,1c0,0.7-0.6,1.3-1.4,1.3c-0.4,0-0.7-0.1-1-0.4l0,0
	c-0.3-0.2-0.4-0.6-0.4-0.9C147.3,36.2,147.9,35.6,148.7,35.5C148.7,35.5,148.7,35.5,148.7,35.5z"/>
<path class="st0" d="M152.1,35c0.4,0,0.7,0.1,1,0.4l0,0c0.5,0.5,0.5,1.4,0,1.9c-0.3,0.3-0.6,0.4-1,0.4c-0.4,0-0.7-0.1-1-0.4l0,0
	c-0.3-0.2-0.4-0.6-0.4-1C150.7,35.7,151.3,35,152.1,35C152.1,35,152.1,35,152.1,35z"/>
<path class="st0" d="M155.5,34.5c0.4,0,0.7,0.1,1,0.4c0.2,0.3,0.4,0.6,0.4,1c0,0.7-0.6,1.4-1.3,1.4c-0.4,0-0.7-0.1-1-0.4
	c-0.3-0.3-0.4-0.6-0.4-1C154.2,35.2,154.8,34.6,155.5,34.5z"/>
<path class="st0" d="M158.6,34.3c0.7,0,1.3,0.6,1.3,1.3c0,0.7-0.6,1.3-1.3,1.3s-1.3-0.6-1.3-1.3c0,0,0,0,0,0
	C157.4,34.9,158,34.3,158.6,34.3z"/>
<path class="st0" d="M134.7,39.5c0.4,0,0.7,0.2,1,0.4l0,0c0.3,0.3,0.5,0.7,0.5,1.1c0,0.8-0.7,1.5-1.5,1.5c-0.4,0-0.7-0.2-1-0.5l0,0
	c-0.6-0.6-0.6-1.5,0-2.1C134,39.7,134.4,39.6,134.7,39.5L134.7,39.5z"/>
<path class="st0" d="M131.3,40.2c0.4,0,0.8,0.2,1.1,0.4l0,0c0.3,0.3,0.4,0.7,0.4,1.1c0,0.8-0.7,1.5-1.5,1.4c-0.4,0-0.7-0.2-1-0.4
	l0,0c-0.3-0.3-0.4-0.6-0.4-1C129.8,40.9,130.5,40.2,131.3,40.2z"/>
<path class="st0" d="M127.7,41c0.5,0,0.9,0.2,1.2,0.5c0.3,0.3,0.5,0.8,0.5,1.2c0,1-0.8,1.7-1.7,1.7c-0.5,0-0.9-0.2-1.2-0.5
	c-0.3-0.3-0.5-0.8-0.5-1.2C125.9,41.8,126.7,41,127.7,41z"/>
<path class="st0" d="M124.1,42.8c0.5,0,1,0.2,1.3,0.6l0,0c0.3,0.3,0.5,0.8,0.5,1.3c0,1-0.8,1.8-1.8,1.8c-0.5,0-0.9-0.2-1.3-0.5l0,0
	c-0.3-0.3-0.5-0.8-0.5-1.3C122.2,43.6,123.1,42.8,124.1,42.8z"/>
<path class="st0" d="M121,46.1c1,0,1.9,0.8,1.9,1.9c0,1-0.8,1.9-1.9,1.9s-1.9-0.8-1.9-1.9c0,0,0,0,0,0C119.1,47,120,46.1,121,46.1z"
	/>
<path class="st0" d="M119.3,50.5c1,0,1.9,0.8,1.9,1.8c0,1-0.8,1.9-1.8,1.9s-1.9-0.8-1.9-1.8c0,0,0,0,0,0
	C117.5,51.3,118.3,50.5,119.3,50.5z"/>
<path class="st0" d="M119.4,55c0.9,0,1.6,0.7,1.6,1.6c0,0.9-0.7,1.6-1.6,1.6c-0.9,0-1.6-0.7-1.6-1.6c0,0,0,0,0,0
	C117.9,55.7,118.6,55,119.4,55z"/>
<path class="st0" d="M120.5,58.6c0.8-0.1,1.5,0.5,1.5,1.3c0.1,0.8-0.5,1.5-1.3,1.5c-0.1,0-0.2,0-0.2,0c-0.8-0.1-1.4-0.7-1.3-1.5
	C119.3,59.2,119.8,58.7,120.5,58.6z"/>
<path class="st0" d="M121.9,61.8c0.8,0,1.4,0.6,1.4,1.4s-0.6,1.4-1.4,1.4s-1.4-0.6-1.4-1.4v0C120.5,62.4,121.2,61.8,121.9,61.8z"/>
<path class="st0" d="M136.4,49c0.1,1.3,0.5,2.6,1,3.9c0.6,1.3,1.2,2.5,2,3.7c0.7,1,1.4,2,2.3,2.9c0.1,0.2,0.2,0.3,0.2,0.4
	c-0.1,0.3-0.2,0.5-0.4,0.7c-0.1,0.1-0.1,0.1-0.2,0.2c-0.3,0.2-0.7,0.1-0.9-0.1c-0.5-0.4-0.9-0.8-1.3-1.3c-1-1.3-1.8-2.8-2.5-4.3
	c-0.8-1.6-1.3-3.3-1.5-5c-0.2-1.9-0.2-3.7,0-5.6c0.1-0.8,0.1-1.8,0.9-1.9c0.2,0,0.3,0.2,0.4,0.5c0,0.4,0,0.8,0,1.2
	C136.2,45.9,136.2,47.4,136.4,49z"/>
<path class="st0" d="M142.6,43.3c-0.4,1.3-0.6,2.7-0.5,4.1c0.1,1.4,0.3,2.7,0.8,4c0.3,0.7,0.6,1.4,1,2.1c0.4,0.6,0.8,1.3,1.2,1.9
	c0.4,0.6,0.5,0.9,0.5,1c-0.1,0.2-0.3,0.3-0.7,0.4c-1,0.2-1.4-0.5-1.9-1.2c-0.1-0.2-0.2-0.4-0.4-0.6c-1.2-1.8-2-3.8-2.4-5.9
	c-0.3-2.1-0.1-4.2,0.6-6.2c0.1-0.5,0.4-0.9,0.7-1.3c0.2-0.2,0.4-0.4,0.7-0.4c0.6,0,0.6,0.3,0.7,0.7C143,42.4,142.7,42.8,142.6,43.3z
	"/>
<path class="st0" d="M125.5,64.6c0.4-0.1,0.8-0.1,1.2-0.1c0.3,0,0.4-0.3,0.2-0.5c-0.9-1.1-1.6-2.4-2.2-3.7c-0.7-1.5-1.2-3-1.3-4.7
	c-0.2-2.9,0.8-5.7,2.7-7.8c-1.4,0.5-2.5,1.3-3.4,2.5c-1.7,2.3-1.5,5.2-0.8,7.8c0.7,2.2,1.7,4.3,3.1,6.2
	C125.1,64.5,125.3,64.6,125.5,64.6z"/>
<path class="st0" d="M203.1,45.4c-0.3-0.2-0.7-0.4-1-0.5c-0.5-0.2-1.2,0.3-0.7,0.7c0.6,0.4,0.8,0.7,1.2,1
	C203.1,46.9,204.2,46.1,203.1,45.4z"/>
<path class="st0" d="M202.2,65.2c-0.4,0.4-0.6,1-0.5,1.6c0,0.2,0.2,0.4,0.4,0.4c0.6-0.1,1-0.4,1.4-0.9c2.1-2.4,3.7-5.2,4.7-8.2
	c1.3-4.1,0-8.6-3.2-11.5c-0.7-0.6-1.5,0.6-1,1.2c1.9,2.1,2.9,4.9,2.7,7.8c-0.2,1.6-0.6,3.2-1.3,4.7
	C204.5,62.1,203.4,63.7,202.2,65.2z"/>
<path class="st1" d="M148.4,48.4c-0.9,1.1-2.4,1.3-2.8,2.7c-0.2,0.5,0.1,1.1,0.7,1.2c0,0,0.1,0,0.1,0c0.6,0.2,0.9-0.7,1.5-0.9
	c-0.3,0.3-0.5,0.7-0.3,1c0.2-0.3,0.5-0.5,0.8-0.6c-0.8,1.1-0.4,1.3,0.1,1.2c0.3,0,0.6-0.3,0.9-0.5c0,0.1-1.1,1.1-0.2,1.1
	c0.4-0.1,0.7-0.2,1-0.4c0,0.4-0.6,0.5-0.1,0.8c0.3,0.2,0.7-0.2,1-0.3c-0.7,1-0.4,1.1,0.1,1c0.4-0.1,0.6-0.5,1.1-0.5
	c-0.3,0.2-0.5,0.3-0.5,0.6c0,1,1,0.9,1.5,0.8c-0.4,0.3,0,1.4,0.2,1.5c1,0.1,1.2-0.2,2.1-0.4c1.3-0.4,1.6-2.2,1.5-4.4
	c0.1-1.6-0.1-3.1-0.6-4.6c-0.4-0.1-1.4,0.4-1.4,1c-0.1-0.3-0.2-0.5-0.4-0.5c-0.3,0-0.6,0.5-0.9,0.6c-1,0.4-0.1-0.9-0.1-0.9
	c-1.3-0.1-1.3,1.8-1.3-0.1c-0.9-0.1-1.5,1.8-1.5,0.1c-0.6-0.5-1,0-1.4,0.4S149,49,149,48.8s0.1-0.8,0.1-0.9
	C149,47.8,148.4,48.3,148.4,48.4z"/>
<path class="st1" d="M174.6,46.9c0.1,0.6,0.1,1.2-0.1,1.7c-0.6,2,0.3,3.8,0.2,5.8c0.8,0.5,0.7-0.3,0.9-0.9c0.4-2,2.3,3,4.4,0.9
	c0.8-1.1,2-1.7,3.4-1.8c1.8,1.1,1-4,0.5-4.2c-0.2-0.1-0.6,0.1-0.6,0.1c0-0.4-0.2-0.7-0.5-0.7c-0.4-0.1-0.6,0.2-0.7,0.7
	c-0.1,0.4-0.4,0.1-0.4-0.6c-0.2,0.2-0.4,0.5-0.5,0.7c-0.2,0.1,0,0-0.1-0.6c-0.2-0.6-0.4-0.9-0.6,0.1c-0.1,0.7-0.8,1.2-1.5,1.1
	c-0.2,0-0.3-0.1-0.5-0.2c-0.5-0.3-0.6-1.8-1.4-2c-0.4-0.1-0.1,0.4-0.4,0.4c-0.1,0-0.2-0.3-0.4-0.4s0.1,0.1-0.8-1.1
	C174.8,44.9,174.5,46.4,174.6,46.9z"/>
<path class="st1" d="M194.2,61c-0.4,0-0.8,0.3-0.9,0.7c-0.3,1,1.5,0.8,2.6,0.6c1.7-0.2,1.5,1.2,2.5,0.9c0.6-0.2,0.3-2.5,1-3.2
	c0.4-0.4,1.3-0.7,1.4-1.1c0.3-0.8-0.3-1.4-1.4-1.7c-0.4-0.1-0.5-0.6-1.2-0.5c-0.9,0-1.2,0.8-1.6,1.4c-0.3,0.5-0.7,1-1.3,1.2
	C194.6,59.7,194.5,60.5,194.2,61z"/>
<path class="st1" d="M134.6,59.7c1,1.4,2.5,2.5,3.4,2.4c0.7-0.1,1.1-1,0.7-2c-0.9-2.1-2.6-2.7-2.7-5c-1.3-0.6-2.9-0.1-4.5,0.7
	c-2,1.7-4.6,2.4-7.2,2c0.4,1.5,1.1,2.9,1.9,4.2c0.8,0.1,1.5-0.3,1.7-1.1c0.1-0.4,0.4-1.2,1.1-1.2c-0.5,0.3-0.8,1.2-0.4,1.4
	c0.8,0.4,1.2-1.9,1.9-2c-0.2,0.4-1,1.5-0.1,1.5c0.7-0.1,0.6-1.3,1.3-1.3c0.1,0.4-0.1,1.3,0.5,1.3c0.8-0.2,0.5-1.3,1-1.3
	C133,60.5,134.2,60.3,134.6,59.7z"/>
<path class="st1" d="M180.4,74.9c0.8,0.3,1.6,0.4,2.4,0.3c1.5,0,0.6,0.9,1.5,0.9c1.5,0,2.7,1.8,1.3,2.5c-0.5,0.1-1,0.2-1.5,0.2
	c-0.5,0.2,1.1,0.8-0.5,1.1c-0.6,0.1-2.3-0.4-2.3,0.6c0,0.6-1.8,1-2.3,1c-4.6,0.6-9.3,0.9-13.9,0.9c-3.1,0-6.2-0.1-9.2-0.4
	c-1-0.1-1-0.9-2-1.2c-0.7-0.1-1.3-0.1-2-0.1c-1.6-0.2-1.4-1.4-3-1.2c-1.3,0.2-2.6-0.7-2.4-1.3c0.1-0.4,1-0.6,2.2-0.7
	c-0.9-0.4-0.7-0.2-1.6-0.2c-1.1,0-1.4-0.2-1.1-0.6s2-0.4,0.8-0.6c-1.7-0.3,1.3-1.1,1.6-1.3c1.1-0.6,2.4-1.1,3.6-1.5
	c4.3-0.7,8.6-1,13-1c3.6,0,7.2,0.2,10.8,0.7C177.4,73.5,179,74,180.4,74.9z"/>
<rect x="88" y="19" class="st3" width="154" height="200"/>
</svg>
