<svg xmlns="http://www.w3.org/2000/svg" xmlns:xlink="http://www.w3.org/1999/xlink" width="210.746" height="281.063" viewBox="0 0 210.746 281.063"><defs><style>.a{fill:none;}.b{clip-path:url(#a);}.c{fill:#c71a1a;}.d{fill:#faa61a;}.e{fill:#2459ab;}.f{fill:#fff;}.g{fill:#c7ab59;}</style><clipPath id="a"><rect class="a" width="210.746" height="281.063"/></clipPath></defs><g class="b" transform="translate(0 0)"><path class="c" d="M127.994,155.684l-5.408-5.408L118.61,146.3A92.092,92.092,0,0,1,83.3,166.659l1.591,5.408,2.227,7.317.954,3.022a108.474,108.474,0,0,0,42.149-24.335Z" transform="translate(49.191 86.395)"/><path class="d" d="M98.775,173.024l-2.227-7.316L94.958,160.3a93.045,93.045,0,0,1-39.286,0l-1.591,5.408-2.227,7.316-.954,3.022a109.588,109.588,0,0,0,48.829,0Z" transform="translate(30.058 94.662)"/><path class="e" d="M31.311,146.3l-3.976,3.976-5.408,5.408L19.7,157.911a108.474,108.474,0,0,0,42.149,24.494l.954-3.022,2.227-7.317,1.591-5.408A92.091,92.091,0,0,1,31.311,146.3" transform="translate(11.633 86.395)"/><path d="M137.293,246.8l-.954-3.022-2.227-7.316-1.591-5.408a92.092,92.092,0,0,0,35.31-20.359l3.976,3.976,5.408,5.408,2.227,2.227A108.475,108.475,0,0,1,137.293,246.8M105.482,50.842A92.092,92.092,0,0,0,35.976,203.374l1.909,2.227-3.976,3.976L31.84,207.35a97.818,97.818,0,1,1,147.124,0l-1.909,2.227L173.08,205.6l1.909-2.227A92.092,92.092,0,0,0,105.482,50.842m0,200.725a108.951,108.951,0,0,1-24.494-2.7l.954-3.022,2.227-7.316,1.591-5.408a93.045,93.045,0,0,0,39.286,0l1.591,5.408,2.227,7.316.954,3.022a108.951,108.951,0,0,1-24.335,2.7m-28.789-15.11-2.227,7.316-.954,3.022a108.475,108.475,0,0,1-42.149-24.335l2.227-2.227L39,214.826l3.976-3.976a92.091,92.091,0,0,0,35.31,20.359Zm105.77-21.631,1.909-2.227a105.452,105.452,0,1,0-157.94,0l1.909,2.227-2.227,2.227-5.408,5.408,5.249,5.249a115.95,115.95,0,0,0,45.33,26.244l7.475,2.068a117.062,117.062,0,0,0,53.283,0l7.475-2.068a115.95,115.95,0,0,0,45.33-26.244l5.249-5.249-5.408-5.408Z" transform="translate(-0.03 22.004)"/><path class="f" d="M105.061,102.987l22.745,6.044v-14A27.834,27.834,0,0,0,99.972,67.2H65.934A27.834,27.834,0,0,0,38.1,95.034v8.271c0,11.929,6.68,23.54,22.108,27.675l39.6,10.5a6.362,6.362,0,0,1,5.249,6.362v10.338a5.09,5.09,0,0,1-5.09,5.09H65.934a5.09,5.09,0,0,1-5.09-5.09V147.84l-22.745-6.2v13.838a27.834,27.834,0,0,0,27.834,27.834H99.972a27.834,27.834,0,0,0,27.834-27.834v-8.112c0-11.929-6.68-23.54-22.108-27.675l-39.763-10.5a6.362,6.362,0,0,1-5.249-6.362V92.489a4.772,4.772,0,0,1,5.09-5.09h34.2a5.09,5.09,0,0,1,5.09,5.09Z" transform="translate(22.499 39.684)"/><path class="f" d="M102.629,42.2A97.818,97.818,0,0,0,28.987,204.434l1.909,2.227,3.976-3.976-1.909-2.227a92.092,92.092,0,1,1,139.172,0l-1.909,2.227,3.976,3.976,1.909-2.227A97.818,97.818,0,0,0,102.47,42.2" transform="translate(2.823 24.92)"/><path class="g" d="M81.83,24.494,94.554,15.11H78.808L73.877,0,68.946,15.11H53.2l12.724,9.384L60.994,39.763l12.883-9.384L86.76,39.763Z" transform="translate(31.416)"/><path class="g" d="M112.549,34.849l15.587-2.386-14-7.316,2.7-15.746L105.55,20.693l-14-7.316,7,14.156L87.1,38.825l15.746-2.545L110,50.595Z" transform="translate(51.435 5.551)"/><path class="g" d="M35.187,34.849,19.6,32.463l14-7.316L30.893,9.4,42.345,20.693l14-7.316-7,14.156L60.636,38.825,44.889,36.28,37.732,50.595Z" transform="translate(11.574 5.551)"/></g></svg>