<?xml version="1.0" encoding="UTF-8" standalone="no"?>
<svg xmlns:dc="http://purl.org/dc/elements/1.1/" xmlns:cc="http://creativecommons.org/ns#" xmlns:rdf="http://www.w3.org/1999/02/22-rdf-syntax-ns#" xmlns:svg="http://www.w3.org/2000/svg" xmlns="http://www.w3.org/2000/svg" xmlns:sodipodi="http://sodipodi.sourceforge.net/DTD/sodipodi-0.dtd" xmlns:inkscape="http://www.inkscape.org/namespaces/inkscape" inkscape:version="1.0 (4035a4f, 2020-05-01)" sodipodi:docname="92.svg" id="svg6145" height="200.0pt" width="200.0pt" viewBox="0 0 200 200" version="1.1">
  <metadata id="metadata6151">
    <rdf:RDF>
      <cc:Work rdf:about="">
        <dc:format>image/svg+xml</dc:format>
        <dc:type rdf:resource="http://purl.org/dc/dcmitype/StillImage"/>
      </cc:Work>
    </rdf:RDF>
  </metadata>
  <defs id="defs6149"/>
  <sodipodi:namedview inkscape:current-layer="svg6145" inkscape:cy="133.33333" inkscape:cx="133.33333" inkscape:zoom="1.75125" showgrid="false" id="namedview6147" inkscape:window-height="480" inkscape:window-width="640" inkscape:pageshadow="2" inkscape:pageopacity="0" guidetolerance="10" gridtolerance="10" objecttolerance="10" borderopacity="1" bordercolor="#666666" pagecolor="#ffffff"/>
  <path style="fill:#ffffff;fill-opacity:0" id="path6015" fill="#ffffff" d="M 0.00 0.00 L 200.00 0.00 L 200.00 200.00 L 0.00 200.00 L 0.00 0.00 Z"/>
  <path id="path6017" fill="#030201" d="M 97.54 2.41 C 98.70 2.43 99.86 2.45 101.02 2.48 C 100.99 4.12 100.97 5.77 100.95 7.41 C 102.24 7.42 103.53 7.43 104.83 7.43 C 104.81 8.58 104.80 9.72 104.78 10.86 C 103.37 10.88 101.97 10.91 100.56 10.94 C 101.19 13.00 101.69 13.84 103.48 15.14 C 104.15 15.63 104.84 16.10 105.53 16.58 C 103.78 18.13 103.44 20.63 106.03 21.27 C 109.20 21.58 109.85 18.32 107.38 16.49 C 107.88 16.15 108.38 15.81 108.88 15.47 C 109.67 16.43 110.34 17.51 111.03 18.55 C 112.78 18.70 114.38 19.00 116.05 19.50 C 117.50 17.77 118.43 16.22 121.03 16.59 C 123.73 17.16 124.12 19.02 124.77 21.34 C 125.85 21.16 126.94 20.99 128.03 20.82 C 129.85 20.95 130.74 22.93 131.84 24.17 C 133.14 24.68 135.08 24.95 135.91 26.13 C 136.43 27.25 136.81 28.43 137.15 29.62 C 139.02 31.74 139.51 32.71 139.58 35.61 C 140.71 37.92 141.20 39.07 140.42 41.65 C 141.78 45.00 141.67 45.67 139.67 48.62 C 139.17 50.05 139.10 51.95 137.72 52.79 C 135.89 53.55 133.75 53.60 131.82 54.07 C 130.49 56.28 129.90 58.29 127.29 59.35 C 126.59 59.17 125.89 59.00 125.19 58.80 C 109.15 51.40 89.53 51.62 73.39 58.65 C 72.69 58.92 71.98 59.18 71.27 59.43 C 68.60 58.23 67.96 56.56 67.00 53.98 C 65.06 53.70 62.94 53.63 61.09 52.94 C 59.41 52.16 59.52 50.39 58.92 48.83 C 56.98 45.87 56.88 45.08 57.92 41.67 C 57.49 39.21 57.92 37.79 58.91 35.58 C 58.95 32.77 59.60 31.66 61.44 29.65 C 61.97 28.25 62.10 26.29 63.37 25.39 C 64.43 24.94 65.50 24.55 66.60 24.21 C 67.84 22.85 68.84 20.61 70.99 20.86 C 71.93 20.99 72.87 21.14 73.80 21.33 C 74.46 19.27 74.59 17.44 76.96 16.74 C 79.72 15.91 80.95 17.65 82.50 19.50 C 84.20 18.94 85.79 18.65 87.58 18.61 C 88.32 17.35 88.84 15.87 90.13 15.08 C 91.56 14.46 93.42 15.14 94.91 15.37 C 96.32 13.90 97.81 13.36 97.62 11.02 C 96.33 10.91 95.04 10.83 93.75 10.76 C 93.74 9.65 93.73 8.54 93.72 7.43 C 95.01 7.43 96.30 7.43 97.59 7.43 C 97.57 5.76 97.55 4.09 97.54 2.41 Z"/>
  <path id="path6019" fill="#e7cc4c" d="M 108.88 15.47 C 108.38 15.81 107.88 16.15 107.38 16.49 C 109.85 18.32 109.20 21.58 106.03 21.27 C 103.44 20.63 103.78 18.13 105.53 16.58 C 104.84 16.10 104.15 15.63 103.48 15.14 C 105.48 14.87 107.07 14.26 108.88 15.47 Z"/>
  <path id="path6021" fill="#e7cc4c" d="M 91.49 16.51 C 94.60 15.93 95.78 20.45 92.47 21.30 C 89.33 21.68 88.39 17.47 91.49 16.51 Z"/>
  <path id="path6023" fill="#e7cc4c" d="M 97.54 16.55 C 99.01 14.67 101.35 16.12 101.79 18.03 C 101.58 19.28 101.14 20.24 99.83 20.58 C 97.69 21.19 95.66 18.03 97.54 16.55 Z"/>
  <path id="path6025" fill="#e7cc4c" d="M 77.45 18.43 C 79.16 17.42 81.81 20.26 80.21 22.10 C 79.16 23.94 75.77 23.21 75.89 21.01 C 75.75 19.81 76.27 18.95 77.45 18.43 Z"/>
  <path id="path6027" fill="#e7cc4c" d="M 119.47 18.46 C 122.54 17.27 124.27 22.07 120.94 23.11 C 117.91 23.62 116.58 19.88 119.47 18.46 Z"/>
  <path id="path6029" fill="#e7cc4c" d="M 84.49 20.57 C 87.27 19.08 89.55 23.23 86.82 24.95 C 83.78 25.99 81.64 22.40 84.49 20.57 Z"/>
  <path id="path6031" fill="#e7cc4c" d="M 112.33 20.34 C 114.23 19.68 116.13 22.18 114.98 23.96 C 114.08 25.50 111.83 25.58 110.88 24.04 C 109.84 22.62 110.73 20.82 112.33 20.34 Z"/>
  <path id="path6033" fill="#e7cc4c" d="M 70.51 22.61 C 72.46 21.90 74.54 24.42 73.27 26.17 C 72.77 27.31 71.04 27.76 69.99 27.05 C 68.06 26.02 68.46 23.26 70.51 22.61 Z"/>
  <path id="path6035" fill="#e3001b" d="M 96.61 21.97 C 95.37 23.32 94.20 24.75 92.97 26.12 C 92.25 27.30 93.44 29.03 93.64 30.33 C 92.15 34.31 93.93 38.16 94.59 42.19 C 91.27 43.20 88.46 43.36 85.01 42.96 C 84.64 40.87 84.10 39.20 83.04 37.36 C 83.55 35.78 84.13 34.25 84.80 32.73 C 87.35 29.91 87.49 26.07 90.08 23.19 C 92.25 22.76 94.43 22.33 96.61 21.97 Z"/>
  <path id="path6037" fill="#e3001b" d="M 101.82 22.12 C 104.07 22.34 106.27 22.80 108.49 23.21 C 109.31 24.48 110.14 25.74 110.95 27.01 C 111.64 31.05 114.69 33.58 115.52 37.48 C 115.14 38.16 114.74 38.83 114.31 39.48 C 114.09 40.63 113.88 41.78 113.67 42.94 C 110.25 43.33 107.37 43.24 104.06 42.23 C 104.55 40.34 104.76 38.47 104.84 36.52 C 106.00 33.75 106.06 33.15 104.70 30.44 C 105.16 29.18 106.20 27.56 105.77 26.22 C 104.45 24.85 103.16 23.46 101.82 22.12 Z"/>
  <path id="path6039" fill="#030201" d="M 27.79 26.20 C 28.99 28.20 28.00 29.98 27.66 32.09 C 40.82 46.27 54.02 60.41 67.19 74.57 C 69.17 73.27 71.16 72.01 73.18 70.79 C 72.30 68.45 71.26 66.86 72.74 64.33 C 71.62 63.84 70.52 63.33 69.42 62.80 C 69.50 62.66 69.58 62.51 69.66 62.36 C 70.81 62.90 71.96 63.43 73.10 63.98 C 73.59 63.65 74.08 63.32 74.57 62.98 C 82.36 59.67 90.51 58.09 98.95 57.67 L 99.37 57.67 C 107.70 58.09 115.85 59.58 123.57 62.82 C 124.16 63.07 124.75 63.30 125.34 63.52 C 126.14 63.43 126.93 63.32 127.72 63.19 C 127.20 63.58 126.69 63.97 126.19 64.38 C 126.80 67.15 126.56 68.34 125.27 70.78 C 136.78 77.07 145.91 87.46 150.43 99.79 C 153.89 109.02 154.63 118.99 152.98 128.69 C 158.31 132.16 162.87 136.18 167.08 140.94 C 172.26 146.74 177.84 152.14 183.41 157.56 C 174.49 159.87 166.26 163.85 158.40 168.61 C 165.55 175.74 172.55 183.02 179.71 190.14 C 177.06 191.89 174.41 193.64 171.78 195.40 C 164.61 188.18 157.55 180.85 150.32 173.69 C 138.07 182.01 126.30 190.53 112.02 195.06 C 103.26 197.80 94.22 198.79 85.41 195.60 C 83.20 194.85 81.91 193.25 80.35 191.64 C 76.01 186.98 71.28 182.57 66.07 178.89 C 63.02 176.64 59.32 175.99 56.32 173.73 C 52.69 171.01 49.81 167.36 47.55 163.45 C 43.95 157.05 38.85 151.43 33.15 146.82 C 29.02 143.44 24.44 141.89 22.38 136.53 C 19.40 128.74 15.07 120.45 15.38 112.00 C 15.26 104.74 17.98 98.17 18.23 91.00 C 18.40 85.90 16.30 81.93 15.71 76.84 C 14.17 63.86 16.82 51.08 20.01 38.55 C 17.51 37.85 15.42 37.50 14.36 34.83 C 12.37 30.50 16.52 26.92 19.41 24.35 C 22.19 22.01 26.15 23.13 27.79 26.20 Z"/>
  <path id="path6041" fill="#e3001b" d="M 82.04 23.60 C 78.64 26.64 78.09 31.53 76.65 35.74 C 75.46 37.51 74.07 39.25 73.19 41.19 C 72.84 42.50 73.73 44.07 74.00 45.36 C 72.69 46.12 71.39 46.87 70.00 47.46 C 68.48 47.18 67.00 46.71 65.51 46.30 C 65.40 44.94 65.27 43.58 65.14 42.22 C 65.89 39.05 66.69 35.89 67.65 32.77 C 68.60 31.69 69.54 30.59 70.49 29.50 C 71.67 29.05 72.91 28.63 74.02 28.02 C 74.83 27.04 75.12 25.63 75.62 24.47 C 78.24 24.91 79.63 24.70 82.04 23.60 Z"/>
  <path id="path6043" fill="#e7cc4c" d="M 98.27 23.25 C 99.84 21.89 101.53 24.05 100.35 25.48 C 98.80 26.62 96.87 24.79 98.27 23.25 Z"/>
  <path id="path6045" fill="#e7cc4c" d="M 125.45 23.43 C 126.60 22.03 128.51 22.22 129.38 23.69 C 130.67 25.27 128.95 27.71 127.03 27.38 C 125.18 26.99 124.18 25.02 125.45 23.43 Z"/>
  <path id="path6047" fill="#e3001b" d="M 116.94 23.97 C 118.95 24.55 120.63 24.80 122.72 24.55 C 123.54 26.01 123.68 27.78 125.43 28.35 C 128.03 29.33 129.33 30.79 130.92 32.98 C 131.36 34.48 131.86 35.96 132.38 37.43 C 132.75 39.09 133.11 40.75 133.49 42.40 C 133.28 43.60 133.07 44.80 132.86 46.01 C 131.56 46.60 130.26 47.18 128.97 47.78 C 127.49 46.97 126.01 46.16 124.54 45.32 C 124.86 44.20 125.15 43.07 125.40 41.93 C 124.97 39.63 122.99 37.55 121.71 35.62 C 121.51 33.49 120.85 31.89 119.82 30.05 C 119.55 27.25 118.80 26.01 116.94 23.97 Z"/>
  <path id="path6049" fill="#e7cc4c" d="M 24.77 26.17 C 27.20 27.87 25.21 30.24 24.35 32.20 C 37.98 46.83 51.59 61.47 65.23 76.07 C 64.16 77.03 63.08 77.99 62.00 78.95 C 48.97 64.90 35.56 50.58 22.45 36.51 C 21.11 34.73 17.69 36.16 16.74 34.17 C 15.14 31.88 17.63 29.63 19.04 28.01 C 20.55 26.48 22.59 24.51 24.77 26.17 Z"/>
  <path id="path6051" fill="#e7cc4c" d="M 65.33 26.32 C 66.91 25.82 68.64 27.34 68.39 28.99 C 68.00 30.87 65.96 31.89 64.45 30.48 C 62.89 29.33 63.49 26.80 65.33 26.32 Z"/>
  <path id="path6053" fill="#e7cc4c" d="M 81.53 26.56 C 84.07 24.42 87.23 28.42 84.49 30.39 C 82.05 32.14 79.15 28.53 81.53 26.56 Z"/>
  <path id="path6055" fill="#e7cc4c" d="M 94.60 26.22 C 95.30 25.54 95.98 25.50 96.66 26.09 C 97.66 27.43 96.03 29.98 94.55 28.48 C 94.08 27.73 94.09 26.97 94.60 26.22 Z"/>
  <path id="path6057" fill="#e7cc4c" d="M 101.61 26.57 C 103.16 24.23 104.78 27.10 103.73 28.69 C 101.67 28.94 102.07 28.10 101.61 26.57 Z"/>
  <path id="path6059" fill="#e7cc4c" d="M 114.29 26.22 C 115.79 25.93 116.84 25.91 117.62 27.39 C 118.87 29.09 116.26 31.69 114.40 30.62 C 112.55 29.58 112.46 27.32 114.29 26.22 Z"/>
  <path id="path6061" fill="#e7cc4c" d="M 131.45 26.50 C 133.19 25.67 135.22 26.96 134.93 28.95 C 134.97 30.95 131.89 31.91 130.75 30.22 C 129.49 28.89 130.16 27.46 131.45 26.50 Z"/>
  <path id="path6063" fill="#e7cc4c" d="M 99.10 28.21 C 101.02 28.01 101.31 30.48 99.73 31.20 C 97.66 31.54 96.96 28.73 99.10 28.21 Z"/>
  <path id="path6065" fill="#e7cc4c" d="M 62.37 31.64 C 65.39 30.62 67.16 35.11 63.96 36.17 C 61.10 37.32 59.37 32.75 62.37 31.64 Z"/>
  <path id="path6067" fill="#e7cc4c" d="M 79.41 32.45 C 80.86 30.59 83.93 33.58 82.19 35.11 C 80.50 37.66 77.09 34.16 79.41 32.45 Z"/>
  <path id="path6069" fill="#e7cc4c" d="M 95.79 31.81 C 97.27 32.89 98.67 34.07 100.18 35.11 C 101.42 36.15 102.69 37.18 103.74 38.41 C 103.72 39.91 101.87 40.88 100.93 41.91 C 103.13 42.98 105.54 44.40 107.99 44.66 C 110.94 45.02 113.43 44.14 116.20 43.34 C 115.87 42.34 115.58 41.33 115.34 40.31 C 116.87 38.97 118.70 37.94 120.39 36.82 C 122.00 38.67 123.32 40.56 124.39 42.78 C 123.52 43.42 122.64 44.05 121.76 44.68 C 124.34 47.25 126.50 48.78 130.10 49.66 C 130.66 49.08 131.23 48.50 131.80 47.93 C 133.68 48.46 135.56 49.00 137.44 49.57 C 135.14 51.93 130.96 51.62 127.98 51.11 C 123.74 50.22 121.53 47.27 119.08 44.01 C 112.34 47.38 105.53 47.37 99.28 42.95 C 93.05 47.39 86.17 47.32 79.44 44.04 C 77.28 46.89 75.41 49.54 71.86 50.75 C 68.53 51.77 64.39 51.85 61.27 50.12 C 62.59 48.86 64.77 48.53 66.45 47.88 C 67.26 48.47 68.08 49.06 68.90 49.65 C 72.14 48.61 74.27 47.14 76.68 44.80 C 75.82 43.91 74.98 43.02 74.13 42.12 C 75.38 40.20 76.69 38.42 78.39 36.87 C 79.95 37.96 81.59 38.94 83.08 40.13 C 82.83 41.19 82.58 42.25 82.33 43.31 C 84.91 44.09 87.26 44.91 90.01 44.72 C 92.70 44.57 95.26 43.05 97.64 41.92 C 96.48 40.66 94.79 40.02 94.90 38.10 C 95.88 37.26 96.89 36.45 97.93 35.68 C 96.66 35.20 95.39 34.71 94.14 34.19 C 94.60 33.37 94.93 32.25 95.79 31.81 Z"/>
  <path id="path6071" fill="#e7cc4c" d="M 102.98 31.81 C 104.60 33.38 104.41 33.64 103.03 35.30 C 102.14 34.54 101.28 33.74 100.46 32.91 C 101.29 32.51 102.13 32.15 102.98 31.81 Z"/>
  <path id="path6073" fill="#e7cc4c" d="M 116.52 32.52 C 118.15 30.47 121.37 33.65 119.31 35.30 C 117.60 37.43 114.51 34.23 116.52 32.52 Z"/>
  <path id="path6075" fill="#e7cc4c" d="M 135.99 31.54 C 136.62 32.17 137.25 32.81 137.89 33.44 C 136.49 36.22 137.82 37.50 139.41 39.74 C 136.68 41.74 137.50 42.26 139.73 44.05 C 139.44 45.87 138.35 48.39 136.11 46.96 C 133.96 45.94 134.78 43.74 136.43 42.61 C 134.48 39.90 134.49 39.69 134.65 36.41 C 134.04 35.58 133.40 34.77 132.72 33.98 C 133.11 32.58 134.39 31.05 135.99 31.54 Z"/>
  <path id="path6077" fill="#e7cc4c" d="M 63.48 37.49 C 65.45 39.25 62.90 40.41 62.38 42.32 C 62.69 43.42 63.87 44.49 63.74 45.66 C 63.19 46.68 61.05 48.19 60.15 46.93 C 57.46 45.54 60.02 43.24 60.89 41.51 C 60.10 40.20 58.73 39.48 59.82 37.92 C 60.85 36.66 62.21 36.14 63.48 37.49 Z"/>
  <path id="path6079" fill="#d77721" d="M 98.37 37.27 C 100.06 36.25 101.14 38.56 99.93 39.75 C 98.25 40.72 97.21 38.46 98.37 37.27 Z"/>
  <path id="path6081" fill="#ffffff" d="M 22.00 39.87 C 34.93 53.25 47.48 67.08 60.20 80.66 C 56.92 84.13 54.19 87.80 51.73 91.88 C 38.70 76.34 27.22 59.74 22.00 39.87 Z"/>
  <path id="path6083" fill="#030201" d="M 77.98 40.32 C 79.75 39.14 80.90 41.89 78.81 42.32 C 77.67 42.01 77.39 41.34 77.98 40.32 Z"/>
  <path id="path6085" fill="#d77721" d="M 118.44 40.32 C 119.66 39.09 121.85 40.19 120.86 41.89 C 119.66 43.11 117.45 41.99 118.44 40.32 Z"/>
  <path id="path6087" fill="#0567ae" d="M 20.62 43.57 C 22.55 47.98 24.03 52.48 26.29 56.75 C 27.36 59.07 28.98 61.34 28.63 64.00 C 28.37 68.47 27.80 72.66 28.94 77.08 C 31.69 86.02 32.10 95.75 30.77 104.97 C 30.04 110.80 28.62 117.18 29.22 123.02 C 29.57 126.86 30.89 130.35 32.48 133.83 C 26.26 130.38 20.88 124.41 18.29 117.77 C 15.25 109.69 19.01 101.15 19.86 93.02 C 20.61 87.10 18.21 82.62 17.51 76.86 C 16.08 66.00 18.25 54.18 20.62 43.57 Z"/>
  <path id="path6089" fill="#e7cc4c" d="M 126.69 52.34 C 129.04 53.43 129.32 54.67 127.59 56.68 C 124.27 55.86 121.17 54.25 117.84 53.37 C 102.18 48.93 85.52 50.45 70.66 56.94 C 70.23 54.80 69.02 53.82 71.47 52.54 C 88.49 45.05 109.60 45.06 126.69 52.34 Z"/>
  <path id="path6091" fill="#e7cc4c" d="M 125.19 58.80 C 123.83 58.96 122.47 59.13 121.10 59.31 C 121.92 60.48 122.74 61.65 123.57 62.82 C 115.85 59.58 107.70 58.09 99.37 57.67 C 100.75 56.90 102.11 56.11 103.45 55.27 C 99.98 54.03 98.41 54.09 94.96 55.29 C 96.24 56.17 97.63 56.85 98.95 57.67 C 90.51 58.09 82.36 59.67 74.57 62.98 C 75.50 61.81 76.45 60.66 77.34 59.46 C 76.03 59.19 74.71 58.92 73.39 58.65 C 89.53 51.62 109.15 51.40 125.19 58.80 Z"/>
  <path id="path6093" fill="#0567ae" d="M 103.45 55.27 C 102.11 56.11 100.75 56.90 99.37 57.67 L 98.95 57.67 C 97.63 56.85 96.24 56.17 94.96 55.29 C 98.41 54.09 99.98 54.03 103.45 55.27 Z"/>
  <path id="path6095" fill="#e3001b" d="M 87.18 55.18 C 89.11 54.90 90.05 54.38 91.50 56.05 C 90.32 57.88 87.46 58.21 85.49 58.65 C 84.02 58.73 82.16 59.47 81.26 57.90 C 82.44 55.79 85.07 55.73 87.18 55.18 Z"/>
  <path id="path6097" fill="#e3001b" d="M 108.00 55.00 C 111.09 54.81 114.32 55.64 117.05 57.04 L 116.71 58.81 C 113.56 58.90 109.30 58.51 107.00 56.12 L 108.00 55.00 Z"/>
  <path id="path6099" fill="#0567ae" d="M 73.39 58.65 C 74.71 58.92 76.03 59.19 77.34 59.46 C 76.45 60.66 75.50 61.81 74.57 62.98 C 74.08 63.32 73.59 63.65 73.10 63.98 C 71.96 63.43 70.81 62.90 69.66 62.36 C 70.20 61.38 70.74 60.40 71.27 59.43 C 71.98 59.18 72.69 58.92 73.39 58.65 Z"/>
  <path id="path6101" fill="#0567ae" d="M 121.10 59.31 C 122.47 59.13 123.83 58.96 125.19 58.80 C 125.89 59.00 126.59 59.17 127.29 59.35 C 127.89 60.47 128.50 61.59 129.10 62.72 L 127.72 63.19 C 126.93 63.32 126.14 63.43 125.34 63.52 C 124.75 63.30 124.16 63.07 123.57 62.82 C 122.74 61.65 121.92 60.48 121.10 59.31 Z"/>
  <path id="path6103" fill="#e7cc4c" d="M 124.15 66.05 C 123.88 67.21 123.61 68.36 123.34 69.52 C 118.93 67.89 114.66 66.14 110.01 65.27 C 98.41 62.88 86.31 64.53 75.61 69.54 C 75.10 68.48 74.55 67.45 74.21 66.32 C 77.57 64.00 81.92 62.95 85.83 61.91 C 98.39 58.96 112.60 60.16 124.15 66.05 Z"/>
  <path id="path6105" fill="#ffffff" d="M 29.03 62.62 C 31.79 67.05 34.39 71.56 37.20 75.96 C 34.76 86.15 38.78 95.03 37.52 105.01 C 36.86 111.89 36.03 118.36 37.81 125.18 C 38.77 130.00 40.57 134.50 42.59 138.95 C 38.87 137.84 35.49 136.30 32.48 133.83 C 30.89 130.35 29.57 126.86 29.22 123.02 C 28.62 117.18 30.04 110.80 30.77 104.97 C 32.10 95.75 31.69 86.02 28.94 77.08 C 28.16 72.25 28.48 67.46 29.03 62.62 Z"/>
  <path id="path6107" fill="#d77721" d="M 101.24 66.66 C 97.13 70.66 93.08 74.15 90.34 79.31 C 89.19 80.98 88.81 83.25 86.49 83.51 C 79.99 84.98 73.84 86.16 68.50 90.49 C 66.18 92.48 63.95 93.94 61.14 95.16 C 56.90 97.03 53.49 99.86 49.75 102.52 C 53.24 92.17 59.80 83.10 68.63 76.66 C 78.03 69.73 89.60 66.37 101.24 66.66 Z"/>
  <path id="path6109" fill="#d77721" d="M 105.33 67.33 C 108.57 67.03 112.15 68.43 115.32 69.13 C 109.28 72.80 104.68 77.45 100.40 83.02 C 109.24 88.50 117.38 94.66 125.14 101.58 C 130.77 95.80 134.40 89.71 135.71 81.64 C 138.02 83.93 140.09 86.34 142.02 88.96 C 138.68 96.05 133.78 103.55 127.40 108.22 C 120.31 109.11 113.55 110.01 106.90 112.86 C 100.46 106.68 93.84 99.65 90.98 91.01 C 89.59 87.09 90.56 83.18 92.79 79.81 C 96.00 74.96 100.23 70.22 105.33 67.33 Z"/>
  <path id="path6111" fill="#d77721" d="M 118.93 70.49 C 121.10 71.41 123.50 72.32 125.22 73.97 C 124.47 75.29 121.30 74.59 119.98 74.57 C 120.88 75.55 121.78 76.52 122.68 77.49 C 122.14 78.21 121.60 78.92 121.06 79.64 C 119.71 79.05 117.08 76.02 116.36 78.82 C 117.41 79.87 118.57 80.79 119.68 81.76 C 118.95 82.76 118.21 83.76 117.48 84.76 C 115.99 83.66 114.55 82.53 112.95 81.58 L 111.32 83.01 C 112.73 84.48 114.31 85.74 115.89 87.02 C 115.28 87.78 114.67 88.54 114.04 89.29 C 110.81 86.87 107.52 84.60 104.08 82.48 C 108.08 77.33 112.78 72.94 118.93 70.49 Z"/>
  <path id="path6113" fill="#d77721" d="M 127.55 75.22 C 129.78 76.24 131.74 78.12 133.59 79.71 C 132.32 87.04 130.02 92.57 125.04 98.14 C 122.09 95.65 119.11 93.21 116.09 90.82 C 116.68 90.04 117.27 89.26 117.86 88.49 C 119.31 89.67 120.76 91.27 122.58 91.82 C 124.69 89.45 120.61 87.86 119.33 86.17 C 120.09 85.19 120.84 84.22 121.60 83.24 C 122.71 83.97 123.85 84.63 125.02 85.23 C 126.82 83.77 123.92 82.33 123.09 81.06 C 123.47 80.42 123.85 79.77 124.23 79.13 C 125.33 79.42 126.99 80.96 127.92 79.93 C 128.24 78.69 126.49 77.61 125.88 76.66 C 126.43 76.17 126.98 75.69 127.55 75.22 Z"/>
  <path id="path6115" fill="#0567ae" d="M 37.59 76.57 C 41.77 82.50 46.12 88.17 50.71 93.78 C 43.31 108.35 42.83 125.05 48.96 140.16 C 46.84 139.81 44.68 139.48 42.59 138.95 C 40.57 134.50 38.77 130.00 37.81 125.18 C 36.44 118.42 36.95 111.78 37.79 105.00 C 38.97 94.54 34.81 86.22 37.59 76.57 Z"/>
  <path id="path6117" fill="#d77721" d="M 87.59 85.76 C 88.14 97.03 96.84 106.39 104.39 113.96 C 98.02 117.15 91.95 120.86 86.44 125.40 C 84.85 126.59 83.24 128.22 81.35 128.89 C 74.04 122.91 66.91 114.55 65.20 105.00 C 64.35 100.53 65.41 95.99 68.98 92.99 C 74.00 88.76 81.30 87.06 87.59 85.76 Z"/>
  <path id="path6119" fill="#d77721" d="M 143.74 91.55 C 150.27 102.42 152.52 114.76 150.77 127.29 C 142.65 122.86 135.93 116.69 129.83 109.80 C 135.73 104.37 139.91 98.55 143.74 91.55 Z"/>
  <path id="path6121" fill="#d77721" d="M 62.65 97.23 C 62.43 101.61 62.41 105.75 64.14 109.87 C 67.18 118.46 73.01 124.67 79.49 130.80 C 71.18 136.45 61.98 140.06 51.84 140.34 C 47.55 130.76 46.23 120.33 47.90 109.97 C 48.14 108.62 48.48 107.48 49.49 106.51 C 53.22 102.67 57.91 99.66 62.65 97.23 Z"/>
  <path id="path6123" fill="#0567ae" d="M 127.88 110.31 C 130.97 113.00 133.49 116.36 136.43 119.22 C 134.58 119.50 132.73 119.80 130.88 120.06 C 123.40 120.75 116.05 122.34 109.01 124.96 C 101.30 127.90 94.19 133.75 87.31 138.28 C 82.08 141.79 76.52 144.67 71.08 147.81 C 60.43 143.07 48.46 143.80 38.08 148.89 C 34.35 145.17 29.62 142.73 25.85 139.13 C 22.94 134.86 21.38 129.44 19.62 124.59 C 22.49 127.49 24.85 130.45 27.97 133.05 C 33.60 137.75 40.68 140.89 47.99 141.68 C 57.37 142.65 66.47 140.13 74.67 135.67 C 82.80 131.23 88.97 124.68 96.96 119.95 C 105.91 114.38 117.21 109.85 127.88 110.31 Z"/>
  <path id="path6125" fill="#ffffff" d="M 130.88 120.06 C 132.89 119.91 134.94 119.72 136.95 119.86 C 138.84 120.86 140.48 122.38 142.20 123.63 C 138.45 124.50 134.69 124.39 130.90 124.96 C 117.04 127.34 104.42 136.20 92.95 143.90 C 88.26 147.20 83.14 149.61 77.95 152.01 C 75.77 150.44 73.46 149.06 71.08 147.81 C 76.52 144.67 82.08 141.79 87.31 138.28 C 94.19 133.75 101.30 127.90 109.01 124.96 C 116.05 122.34 123.40 120.75 130.88 120.06 Z"/>
  <path id="path6127" fill="#0567ae" d="M 130.90 124.96 C 134.89 124.70 138.88 124.51 142.87 124.29 C 147.23 127.44 152.05 129.71 156.18 133.17 C 153.01 133.37 149.91 133.47 146.77 133.89 C 140.15 134.79 133.80 136.83 127.85 139.83 C 113.06 146.69 102.72 157.44 86.96 162.52 C 84.62 158.55 81.45 155.00 77.95 152.01 C 83.14 149.61 88.26 147.20 92.95 143.90 C 104.42 136.20 117.04 127.34 130.90 124.96 Z"/>
  <path id="path6129" fill="#ffffff" d="M 146.77 133.89 C 150.12 133.71 153.63 133.43 156.95 133.97 C 158.96 134.85 160.60 136.72 162.24 138.13 C 160.45 138.34 158.66 138.55 156.88 138.79 C 143.14 140.26 129.49 147.66 117.81 154.72 C 109.43 159.98 100.53 164.28 91.14 167.41 L 89.61 167.97 C 88.74 166.14 87.89 164.31 86.96 162.52 C 102.72 157.44 113.06 146.69 127.85 139.83 C 133.80 136.83 140.15 134.79 146.77 133.89 Z"/>
  <path id="path6131" fill="#0567ae" d="M 156.88 138.79 C 158.70 138.64 160.51 138.51 162.33 138.37 C 164.73 140.73 166.96 143.17 169.09 145.78 C 167.98 146.11 166.86 146.43 165.75 146.74 C 155.74 148.52 146.85 152.89 138.38 158.37 C 125.17 166.68 110.32 175.25 95.07 178.97 C 93.97 179.13 92.87 179.28 91.77 179.42 C 91.50 175.67 90.90 172.13 89.69 168.56 C 90.17 168.17 90.65 167.79 91.14 167.41 C 100.53 164.28 109.43 159.98 117.81 154.72 C 129.49 147.66 143.14 140.26 156.88 138.79 Z"/>
  <path id="path6133" fill="#ffffff" d="M 54.00 146.26 C 62.58 145.87 71.26 148.58 77.85 154.17 C 85.81 160.93 90.66 171.49 89.90 181.99 C 89.66 186.37 88.44 190.49 86.88 194.55 C 85.28 193.70 83.75 192.88 82.55 191.48 C 77.57 186.01 72.24 181.01 66.08 176.87 C 63.34 175.04 60.23 174.31 57.57 172.40 C 53.66 169.52 50.77 165.78 48.39 161.59 C 45.95 157.29 42.70 153.71 39.39 150.07 C 44.12 148.13 48.85 146.55 54.00 146.26 Z"/>
  <path id="path6135" fill="#ffffff" d="M 165.75 146.74 C 166.97 146.50 168.20 146.27 169.43 146.04 C 171.39 148.00 173.32 149.98 175.18 152.04 C 172.72 152.22 170.26 152.39 167.82 152.81 C 152.76 155.42 140.09 165.41 127.79 173.82 C 118.21 179.86 107.53 185.54 96.19 187.12 C 94.45 187.31 92.72 187.45 90.98 187.60 C 91.27 184.97 91.52 182.35 91.73 179.71 C 92.84 179.47 93.96 179.22 95.07 178.97 C 110.32 175.25 125.17 166.68 138.38 158.37 C 146.85 152.89 155.74 148.52 165.75 146.74 Z"/>
  <path id="path6137" fill="#0567ae" d="M 62.53 149.50 L 62.74 149.71 C 64.80 151.87 66.96 153.92 69.06 156.04 C 66.17 154.29 63.81 152.32 60.20 152.35 C 60.94 154.02 61.44 155.91 62.83 157.18 C 64.96 159.35 68.20 159.53 71.00 160.23 C 75.77 160.99 79.62 164.89 82.66 168.39 C 84.49 170.71 86.88 173.86 86.85 176.93 C 86.96 178.86 84.64 178.71 83.40 179.41 C 84.04 180.49 84.32 181.80 84.89 182.93 C 81.76 179.77 78.65 176.60 75.83 173.15 C 78.82 174.55 81.53 177.26 85.01 176.94 C 85.71 173.00 81.23 168.58 77.82 167.30 C 72.72 166.16 68.18 165.65 64.42 161.58 C 62.31 159.38 57.85 154.72 59.42 151.49 C 60.53 151.24 61.65 151.00 62.77 150.75 L 62.53 149.50 Z"/>
  <path id="path6139" fill="#0567ae" d="M 51.93 149.66 C 55.53 153.62 59.49 157.35 62.75 161.60 C 58.57 158.85 55.69 155.42 50.49 154.57 C 51.63 158.64 54.61 161.68 58.18 163.76 C 62.58 165.93 67.18 166.68 71.16 169.79 C 74.18 171.86 78.53 176.04 78.06 180.01 C 76.10 180.22 74.19 180.04 72.23 179.89 C 70.12 177.92 67.97 175.99 65.96 173.89 C 69.71 176.15 72.20 179.09 76.84 179.40 C 75.07 174.90 71.58 173.17 67.28 171.67 C 61.18 169.61 56.40 165.52 52.28 160.69 C 50.71 158.74 49.05 156.59 48.76 154.03 C 49.31 152.68 51.77 153.00 52.92 152.54 L 51.93 149.66 Z"/>
  <path id="path6141" fill="#0567ae" d="M 175.60 152.32 C 177.11 153.71 178.53 155.21 179.97 156.69 C 154.86 164.18 139.14 183.16 115.16 192.21 C 106.60 195.51 97.66 196.93 88.58 195.03 C 89.34 192.65 90.11 190.28 90.88 187.91 C 92.65 187.66 94.42 187.41 96.19 187.12 C 107.53 185.54 118.21 179.86 127.79 173.82 C 140.09 165.41 152.76 155.42 167.82 152.81 C 170.41 152.58 173.00 152.34 175.60 152.32 Z"/>
  <path id="path6143" fill="#e7cc4c" d="M 156.18 169.93 C 162.82 176.44 169.29 183.15 175.79 189.80 C 174.56 190.60 173.33 191.39 172.10 192.19 C 165.58 185.52 158.95 178.97 152.49 172.24 C 153.72 171.46 154.93 170.67 156.18 169.93 Z"/>
</svg>