<?xml version="1.0" encoding="UTF-8"?>
<svg width="363.62" height="502.07" version="1.1" viewBox="0 0 96.208 132.84" xmlns="http://www.w3.org/2000/svg">
 <g transform="translate(-116.95 288.55)">
  <g transform="matrix(.19751 0 0 -.19751 106.52 -132.62)">
   <path d="m296.38 247.25 57.486 177h186.06l-150.52 109.34 57.486 177-150.52-109.36-150.53 109.36 57.5-177-150.53-109.34h186.06z" fill="#ec162c"/>
   <path d="m238.03 789.52 9.6567-29.72h31.247l-25.28-18.367 9.6567-29.72-25.28 18.367-25.28-18.367 9.6562 29.72-25.28 18.367h31.247z" fill="#c8a66a"/>
   <path d="m354.75 789.52-9.6553-29.72h-31.248l25.28-18.367-9.6562-29.72 25.279 18.367 25.282-18.367-9.6582 29.72 25.282 18.367h-31.248z" fill="#c8a66a"/>
   <path d="m394.36 211.81 5.7383-12.793v-80.539h16.619v93.332z" fill="#ec162c"/>
   <path d="m200.02 118.48h-51.127v80.539l-5.7744 12.793h22.491v-77.573h40.285z" fill="#ec162c"/>
   <path d="m72.49 129.35v18.384c11.112-11.817 21.723-15.25 30.432-15.25 8.709 0 15.116 3.9385 15.216 11.11 0.0996 7.1699-4.3047 10.303-13.815 13.435-13.121 4.3203-19.956 7.1396-25.526 12.322-6.4072 5.959-9.0117 17.431-4.8052 27.273 4.4043 10.302 13.815 16.665 30.632 16.766 16.818 0.10156 27.429-10.604 27.429-10.604v-17.881s-7.2075 7.2744-15.616 10.708c-8.4092 3.4346-18.72 2.8281-22.824 0.10059-4.1045-2.7266-6.1309-9.0098-2.1025-13.736 4.3047-5.0498 12.313-6.4658 21.723-9.7969 9.4097-3.335 17.465-8.1807 20.722-16.465 4.605-11.717 1.4019-24.443-8.8091-32.02-10.211-7.5772-35.237-12.323-52.656 5.6543z" fill="#ec162c"/>
   <path d="m473.88 181.39 14.074-32.075h-28.056l13.981 32.075m-8.9121 20.988-36.971-83.905h18.479l6.5654 15.083h41.795l6.6309-15.083h18.521l-41.302 93.332h-18.15z" fill="#ec162c"/>
   <path d="m257.61 181.39 14.073-32.075h-28.054l13.981 32.075m-8.9121 20.988-36.97-83.905h18.478l6.5659 15.083h41.794l6.6318-15.083h18.519l-41.3 93.332h-18.149z" fill="#ec162c"/>
   <path d="m338.49 141.21-29.132 70.595h-18.436l38.491-93.332h18.138l38.505 93.332h-18.452z" fill="#ec162c"/>
  </g>
 </g>
</svg>