<?xml version="1.0" encoding="utf-8"?>
<!-- Generator: Adobe Illustrator 16.0.0, SVG Export Plug-In . SVG Version: 6.00 Build 0)  -->
<!DOCTYPE svg PUBLIC "-//W3C//DTD SVG 1.0//EN" "http://www.w3.org/TR/2001/REC-SVG-20010904/DTD/svg10.dtd">
<svg version="1.0" id="Layer_1" xmlns="http://www.w3.org/2000/svg" xmlns:xlink="http://www.w3.org/1999/xlink" x="0px" y="0px"
	 width="800px" height="800px" viewBox="0 0 800 800" enable-background="new 0 0 800 800" xml:space="preserve">
<g>
	<path fill="#3D195B" d="M622.477,368.818c-16.054,13.159-29.665,20.49-29.665,20.49l0.185,41.708
		c11.476,12.496,22.799,22.845,31.273,41.708C640.355,444.479,637.265,402.947,622.477,368.818 M609.426,505.349
		c0,0-3.283-17.205-17.23-33.261l-31.835,0.756c0,0-42.908,35.975-69.078,36.818c0,0,14.414,26.167,21.719,39.838
		c14.381-3.08,39.722-14.153,49.93-25.744c0,0,6.741,21.218,5.472,46.264C582.726,561.933,602.464,539.963,609.426,505.349
		 M568.401,430.021l-0.058-41.558c0,0-19.024-5.945-39.317-21.305c-40.776,6.006-90.15,46.023-90.15,46.023
		s16.677,30.872,34.928,64.192c32.081,4.375,79.351-35.158,94.604-47.351 M677.143,603.068l-26.234-28.34
		c-7.488,76.596-45.94,141.631-116.568,186.99l-10.797-41.313c-59.952,42.247-162.848,69.652-251.229,20.881
		c10.98-54.622,20.725-109.97-0.187-176.244c-48.941,73.938-92.253,102.911-92.253,102.911
		c-33.069-54.173-30.098-162.846-20.23-194.835l-55.034,16.628c0-36.517,26.943-113.984,65.984-157.5l-34.37-5.374h-0.037
		c23.355-46.565,58.222-86.705,100.883-116.854l0.062-0.034c-12.809,19.736-12.997,68.444,24.53,86.976
		c-15.934-27.25-17.851-60.933-1.21-78.378c16.645-17.593,44.642-11.557,62.529,2.085c-5.326-15.209-20.917-34.344-44.273-35.644
		h-0.036c44.113-22.149,94.201-34.614,147.193-34.614c9.901,0,19.77,0.424,29.424,1.268c15.402,6.037,38.018,27.223,48.566,40.408
		c0,0,0.74-15.542-8.103-34.313c57.389,13.642,84.764,36.429,96.241,47.415c2.35,24.201,9.773,38.719,19.582,61.717
		c-18.589-20.314-65.305-53.086-87.611-60.933c0,0-1.826,20.974-9.496,31.053c-44.421-31.267-66.233-39.145-66.233-39.145
		c-48.758,6.821-80.123,25.17-97.169,39.597l14.85,12.339c-29.388,8.815-48.478,33.442-48.478,33.442
		c0.217,0.45,26.263,4.071,26.263,4.071s-2.662,29.847,35.642,48.558c32.819,16.029,80-3.864,124.425,13.521
		c-29.205-32.896-49.406-47.595-49.406-47.595s-11.602-2.353-19.769-2.29c-10.209,0.058-25.43,2.017-42.104-4.318
		c-7.984-3.046-17.293-8.419-24.595-12.888c0,0,20.512-20.551,50.488-25.077c0,0,27.034,7.425,48.445,22.875
		c14.229-13.52,29.08-13.097,29.08-13.097s-14.727,13.399-10.269,29.635c21.374,18.59,44.58,45.21,44.58,45.21
		c23.634-12.615,75.017-9.722,85.568,2.231c-13.366-16.93-32.638-31.054-47.551-43.125c-1.821-6.335-18.095-28.426-20.848-30.477
		c0,0,15.468,4.648,29.295,16.744c3.962-5.521,11.386-11.133,21.503-13.608c10.393,8.511,12.25,21.578,11.972,23.751
		c-4.672,5.462-9.313,7.7-9.313,7.7l25.06,26.464l2.505-18.982c57.726,80.426,89.188,173.496,48.722,290.501 M221.262,94.066
		c33.29,14.877,54.666,33.651,58.562,36.519c-1.762-8.389-8.321-48.769-12.098-73.845c19.399,13.123,64.409,43.606,79.229,53.506
		c6.035-18.137,26.944-77.379,26.944-77.379s37.805,59.694,44.268,69.383c7.891-8.06,53.057-57.1,64.751-69.502
		c1.949,28.212,4.612,68.565,5.288,74.629c2.263-2.988,19.555-26.647,48.541-48.434c-12.559,24.142-18.563,57.458-21.222,84.226
		c-28.524-7.757-58.626-11.92-89.624-11.92c-59.551,0-115.482,15.268-163.837,42.1C253.282,147.482,239.511,115.314,221.262,94.066"
		/>
</g>
</svg>
