<?xml version="1.0" encoding="UTF-8" standalone="no"?>
<svg xmlns:dc="http://purl.org/dc/elements/1.1/" xmlns:cc="http://creativecommons.org/ns#" xmlns:rdf="http://www.w3.org/1999/02/22-rdf-syntax-ns#" xmlns:svg="http://www.w3.org/2000/svg" xmlns="http://www.w3.org/2000/svg" xmlns:sodipodi="http://sodipodi.sourceforge.net/DTD/sodipodi-0.dtd" xmlns:inkscape="http://www.inkscape.org/namespaces/inkscape" inkscape:version="1.0 (4035a4f, 2020-05-01)" sodipodi:docname="341.svg" id="svg11503" height="200.0pt" width="200.0pt" viewBox="0 0 200 200" version="1.1">
  <metadata id="metadata11509">
    <rdf:RDF>
      <cc:Work rdf:about="">
        <dc:format>image/svg+xml</dc:format>
        <dc:type rdf:resource="http://purl.org/dc/dcmitype/StillImage"/>
      </cc:Work>
    </rdf:RDF>
  </metadata>
  <defs id="defs11507"/>
  <sodipodi:namedview inkscape:current-layer="svg11503" inkscape:cy="133.33333" inkscape:cx="133.33333" inkscape:zoom="1.75125" showgrid="false" id="namedview11505" inkscape:window-height="480" inkscape:window-width="640" inkscape:pageshadow="2" inkscape:pageopacity="0" guidetolerance="10" gridtolerance="10" objecttolerance="10" borderopacity="1" bordercolor="#666666" pagecolor="#ffffff"/>
  <path style="fill:#fefeff;fill-opacity:0" id="path11257" fill="#fefeff" d="M 0.00 0.00 L 90.37 0.00 L 90.07 0.73 C 73.49 2.31 55.09 8.37 40.76 16.93 C 33.87 20.97 27.83 25.54 23.02 31.99 C 21.09 37.67 20.24 44.01 19.72 49.98 C 18.44 52.02 18.61 53.78 19.19 56.02 C 18.89 61.66 18.89 67.34 19.19 72.98 C 18.61 75.22 18.44 76.98 19.71 79.02 C 22.90 110.87 35.27 141.24 57.08 164.89 C 69.20 179.57 84.10 189.28 99.22 200.00 L 0.00 200.00 L 0.00 0.00 Z"/>
  <path id="path11259" fill="#8b93a7" d="M 90.37 0.00 L 94.15 0.00 C 92.96 1.49 91.72 1.68 90.07 0.73 L 90.37 0.00 Z"/>
  <path id="path11261" fill="#25385b" d="M 94.15 0.00 L 106.10 0.00 C 107.14 1.58 108.43 1.62 110.02 0.77 C 127.22 2.26 144.89 8.54 159.80 17.20 C 167.13 22.01 178.71 29.23 178.86 39.04 C 179.32 42.67 179.91 46.27 180.20 49.92 C 179.62 51.60 179.46 52.81 180.91 54.07 C 181.05 60.69 181.05 67.31 180.91 73.93 C 179.50 75.19 179.62 76.38 180.13 78.07 C 180.04 79.69 179.96 81.31 179.87 82.93 C 178.46 84.23 178.61 85.42 179.25 87.09 C 176.19 106.60 169.89 126.77 158.93 143.33 C 158.57 140.26 158.89 139.28 155.90 137.62 C 163.48 124.31 169.41 109.52 171.93 94.38 C 173.60 85.95 175.63 76.83 174.72 68.22 C 174.93 64.41 175.05 60.59 175.31 56.77 C 176.59 61.92 175.64 66.77 176.20 71.96 C 177.35 71.94 178.20 71.52 178.74 70.72 C 179.84 58.99 178.50 47.57 176.46 36.03 C 172.71 26.49 160.04 19.37 151.34 14.65 C 134.39 6.44 114.93 1.09 96.00 1.97 C 77.24 2.65 58.28 8.77 42.07 18.12 L 40.76 16.93 C 55.09 8.37 73.49 2.31 90.07 0.73 C 91.72 1.68 92.96 1.49 94.15 0.00 Z"/>
  <path id="path11263" fill="#8c93a5" d="M 106.10 0.00 L 109.87 0.00 L 110.02 0.77 C 108.43 1.62 107.14 1.58 106.10 0.00 Z"/>
  <path style="fill:#fefeff;fill-opacity:0.07287449" id="path11265" fill="#fefeff" d="M 109.87 0.00 L 200.00 0.00 L 200.00 200.00 L 100.53 200.00 C 109.24 193.78 119.34 188.16 126.76 180.39 C 139.67 170.56 150.47 157.10 158.93 143.33 C 169.89 126.77 176.19 106.60 179.25 87.09 C 180.46 85.70 180.39 84.62 179.87 82.93 C 179.96 81.31 180.04 79.69 180.13 78.07 C 181.48 76.77 181.39 75.63 180.91 73.93 C 181.05 67.31 181.05 60.69 180.91 54.07 C 181.39 52.37 181.46 51.27 180.20 49.92 C 179.91 46.27 179.32 42.67 178.86 39.04 C 178.71 29.23 167.13 22.01 159.80 17.20 C 144.89 8.54 127.22 2.26 110.02 0.77 L 109.87 0.00 Z"/>
  <path id="path11267" fill="#085192" d="M 96.00 1.97 C 114.93 1.09 134.39 6.44 151.34 14.65 C 160.04 19.37 172.71 26.49 176.46 36.03 C 175.29 36.15 174.12 36.21 172.94 36.26 C 170.46 32.66 167.46 29.53 163.83 27.07 C 160.83 24.37 157.62 22.18 153.93 20.52 C 150.02 18.52 146.14 16.39 142.08 14.70 C 138.26 13.10 134.25 11.90 130.30 10.69 C 126.77 9.36 123.11 8.58 119.38 8.06 C 112.15 6.09 104.68 5.58 97.22 6.20 C 80.26 6.05 62.59 11.81 47.66 19.65 C 41.41 22.48 36.12 26.64 31.02 31.17 C 30.08 30.68 29.15 30.16 28.24 29.63 C 31.57 24.87 37.48 21.63 42.07 18.12 C 58.28 8.77 77.24 2.65 96.00 1.97 Z"/>
  <path id="path11269" fill="#66520c" d="M 97.22 6.20 C 74.37 9.87 45.29 17.26 29.47 35.39 C 25.82 49.99 26.09 64.36 25.68 79.23 C 24.22 71.29 25.38 62.89 24.97 54.83 C 25.92 47.50 25.38 36.60 31.02 31.17 C 36.12 26.64 41.41 22.48 47.66 19.65 C 62.59 11.81 80.26 6.05 97.22 6.20 Z"/>
  <path id="path11271" fill="#a37a10" d="M 97.22 6.20 C 104.68 5.58 112.15 6.09 119.38 8.06 C 114.81 10.47 110.04 5.60 106.71 9.72 C 103.04 13.78 100.32 18.50 96.29 22.30 C 91.94 26.38 101.10 24.48 103.22 25.68 C 96.47 26.34 90.42 25.14 83.99 27.96 C 78.08 28.27 72.09 29.88 66.95 32.83 C 60.96 34.43 53.97 38.17 49.89 42.91 C 45.99 44.15 44.31 48.20 44.06 51.98 C 43.74 57.75 42.37 63.10 43.13 68.94 C 43.48 70.94 50.82 69.65 52.84 70.11 C 54.28 70.64 55.76 71.17 57.13 71.88 C 55.66 74.04 53.53 74.14 55.33 76.92 C 51.35 81.10 48.06 85.93 43.74 89.74 C 42.81 90.76 42.33 89.97 41.27 89.71 C 40.27 94.88 34.82 98.12 32.27 102.77 C 31.09 101.25 30.01 99.66 28.83 98.13 C 27.27 91.95 26.05 85.60 25.68 79.23 C 26.09 64.36 25.82 49.99 29.47 35.39 C 45.29 17.26 74.37 9.87 97.22 6.20 Z"/>
  <path id="path11273" fill="#af8a0e" d="M 119.38 8.06 C 123.11 8.58 126.77 9.36 130.30 10.69 C 123.14 12.52 118.99 21.83 113.91 26.95 C 110.36 26.29 106.81 25.95 103.22 25.68 C 101.10 24.48 91.94 26.38 96.29 22.30 C 100.32 18.50 103.04 13.78 106.71 9.72 C 110.04 5.60 114.81 10.47 119.38 8.06 Z"/>
  <path id="path11275" fill="#be9c0c" d="M 130.30 10.69 C 134.25 11.90 138.26 13.10 142.08 14.70 C 136.39 15.15 148.04 17.87 144.18 20.16 C 140.37 24.01 137.10 28.04 134.74 32.95 C 128.95 30.79 123.29 28.59 117.10 27.83 C 116.04 27.53 114.98 27.23 113.91 26.95 C 118.99 21.83 123.14 12.52 130.30 10.69 Z"/>
  <path id="path11277" fill="#ceb009" d="M 142.08 14.70 C 146.14 16.39 150.02 18.52 153.93 20.52 C 152.60 23.44 161.15 25.56 162.07 28.96 C 158.38 33.48 154.39 37.56 151.71 42.85 L 150.02 43.11 C 146.75 38.01 139.99 35.56 134.74 32.95 C 137.10 28.04 140.37 24.01 144.18 20.16 C 148.04 17.87 136.39 15.15 142.08 14.70 Z"/>
  <path id="path11279" fill="#124f88" d="M 40.76 16.93 L 42.07 18.12 C 37.48 21.63 31.57 24.87 28.24 29.63 C 29.15 30.16 30.08 30.68 31.02 31.17 C 25.38 36.60 25.92 47.50 24.97 54.83 C 23.73 54.50 22.49 54.20 21.22 54.06 C 18.87 87.89 27.66 122.69 47.85 150.17 C 50.38 152.79 51.78 158.33 56.27 155.78 C 63.58 163.74 70.18 171.64 79.07 178.01 C 85.02 183.47 91.79 188.13 98.68 192.32 C 100.32 193.61 101.71 191.94 103.22 191.22 C 114.78 184.02 124.73 175.12 134.73 165.95 C 135.74 166.43 136.74 166.92 137.74 167.42 C 135.06 171.86 127.76 175.50 126.76 180.39 C 119.34 188.16 109.24 193.78 100.53 200.00 L 99.22 200.00 C 84.10 189.28 69.20 179.57 57.08 164.89 C 35.27 141.24 22.90 110.87 19.71 79.02 C 20.39 76.78 20.66 74.97 19.19 72.98 C 18.89 67.34 18.89 61.66 19.19 56.02 C 20.66 54.03 20.39 52.22 19.72 49.98 C 20.24 44.01 21.09 37.67 23.02 31.99 C 27.83 25.54 33.87 20.97 40.76 16.93 Z"/>
  <path id="path11281" fill="#ddc507" d="M 153.93 20.52 C 157.62 22.18 160.83 24.37 163.83 27.07 C 165.35 30.57 168.40 32.42 170.54 35.39 C 171.80 40.63 172.80 46.48 173.05 51.86 C 167.08 59.84 159.42 67.42 154.62 76.05 C 154.40 76.65 154.18 77.25 153.95 77.85 L 153.03 77.89 C 151.02 78.42 148.25 76.81 150.01 79.96 C 150.00 80.82 150.00 81.69 149.99 82.55 C 148.87 83.31 147.77 84.12 146.69 84.94 C 144.73 83.47 143.57 80.80 140.81 81.93 C 138.75 79.55 137.73 77.94 134.32 77.61 C 130.63 74.81 124.39 76.15 120.01 76.22 C 121.51 80.43 125.78 85.57 130.12 86.99 C 131.96 88.47 133.55 90.05 135.04 91.87 C 135.30 93.79 135.71 95.11 136.86 96.66 C 132.39 100.07 138.38 103.59 140.08 106.84 L 137.84 107.18 L 136.90 107.02 C 134.67 104.00 132.27 101.10 130.00 98.11 C 129.97 94.02 125.30 91.09 123.04 87.88 C 122.17 86.85 121.25 85.86 120.18 85.03 C 116.84 89.03 117.20 98.81 119.86 103.09 C 120.78 104.22 121.83 105.12 122.88 106.13 C 125.32 109.70 128.20 112.79 131.16 115.93 L 130.87 118.05 C 127.52 115.80 126.18 111.00 122.00 114.88 C 116.93 112.52 118.41 117.89 117.57 120.89 C 115.69 123.64 112.84 126.44 113.00 129.97 C 112.93 139.32 113.04 148.68 113.03 158.04 C 112.89 159.56 113.34 160.77 111.91 161.77 C 111.97 134.00 112.23 105.95 111.79 78.21 C 104.66 78.27 95.62 76.96 88.94 78.90 C 88.53 79.49 88.13 80.09 87.74 80.69 L 87.02 81.16 C 87.14 79.41 86.78 77.36 89.09 77.12 C 96.65 76.62 104.30 77.40 111.85 76.86 C 114.30 74.17 118.58 72.05 112.89 70.06 C 116.26 70.04 119.63 70.01 123.00 69.97 C 134.24 69.88 145.56 70.29 156.78 69.79 C 157.26 65.50 157.29 61.00 156.30 56.77 C 156.27 51.00 155.59 47.27 151.71 42.85 C 154.39 37.56 158.38 33.48 162.07 28.96 C 161.15 25.56 152.60 23.44 153.93 20.52 Z"/>
  <path id="path11283" fill="#525c73" d="M 103.22 25.68 C 106.81 25.95 110.36 26.29 113.91 26.95 C 114.98 27.23 116.04 27.53 117.10 27.83 L 117.11 28.79 C 111.54 28.25 105.35 26.22 99.89 27.52 L 99.19 27.60 C 93.90 26.08 89.49 28.33 83.99 27.96 C 90.42 25.14 96.47 26.34 103.22 25.68 Z"/>
  <path id="path11285" fill="#094d8b" d="M 99.19 27.60 C 99.16 28.68 99.15 29.76 99.14 30.84 C 90.24 31.21 87.35 33.77 83.52 41.44 C 79.71 42.85 78.91 42.22 83.04 44.00 C 81.11 51.54 81.51 56.42 87.95 61.34 C 87.70 62.79 87.40 64.23 87.17 65.69 C 88.71 65.11 90.25 64.38 91.82 63.92 C 97.42 68.34 102.64 68.09 108.37 64.05 C 109.22 64.23 110.06 64.40 110.92 64.54 C 113.00 60.71 114.41 59.20 117.36 55.37 C 118.90 52.13 117.55 47.38 116.95 43.98 C 117.32 43.66 121.58 42.48 119.08 42.31 C 114.53 41.89 114.92 36.27 111.24 33.77 C 107.18 30.32 101.46 32.86 99.89 27.52 C 105.35 26.22 111.54 28.25 117.11 28.79 C 122.21 29.93 127.22 31.31 132.01 33.43 C 129.71 44.29 131.63 56.73 131.00 67.95 C 129.67 67.98 128.34 68.00 127.01 68.02 C 110.34 67.99 93.67 67.97 77.00 68.03 C 75.00 68.01 72.99 68.03 70.99 68.00 C 68.12 65.78 69.15 63.18 68.96 60.00 C 68.99 50.98 69.10 41.95 68.89 32.93 C 73.82 30.91 79.12 30.08 83.99 27.96 C 89.49 28.33 93.90 26.08 99.19 27.60 Z"/>
  <path id="path11287" fill="#dfdf80" d="M 163.83 27.07 C 167.46 29.53 170.46 32.66 172.94 36.26 C 173.25 43.18 175.26 49.80 175.31 56.77 C 175.05 60.59 174.93 64.41 174.72 68.22 C 173.39 63.40 174.59 58.57 173.30 53.74 L 173.05 51.86 C 172.80 46.48 171.80 40.63 170.54 35.39 C 168.40 32.42 165.35 30.57 163.83 27.07 Z"/>
  <path id="path11289" fill="#393e51" d="M 83.99 27.96 C 79.12 30.08 73.82 30.91 68.89 32.93 L 66.95 32.83 C 72.09 29.88 78.08 28.27 83.99 27.96 Z"/>
  <path id="path11291" fill="#cadbeb" d="M 99.19 27.60 L 99.89 27.52 C 101.46 32.86 107.18 30.32 111.24 33.77 C 114.92 36.27 114.53 41.89 119.08 42.31 C 121.58 42.48 117.32 43.66 116.95 43.98 C 116.10 43.54 115.22 43.13 114.33 42.73 C 110.38 39.73 106.34 36.80 102.37 33.81 C 101.28 32.83 100.20 31.84 99.14 30.84 C 99.15 29.76 99.16 28.68 99.19 27.60 Z"/>
  <path id="path11293" fill="#708199" d="M 117.10 27.83 C 123.29 28.59 128.95 30.79 134.74 32.95 C 139.99 35.56 146.75 38.01 150.02 43.11 C 143.94 39.82 138.73 35.56 132.01 33.43 C 127.22 31.31 122.21 29.93 117.11 28.79 L 117.10 27.83 Z"/>
  <path id="path11295" fill="#c9dbeb" d="M 99.14 30.84 C 98.71 31.89 98.26 32.92 97.80 33.95 C 93.62 36.36 90.22 39.86 85.87 42.14 C 84.89 42.71 83.96 43.34 83.04 44.00 C 78.91 42.22 79.71 42.85 83.52 41.44 C 87.35 33.77 90.24 31.21 99.14 30.84 Z"/>
  <path id="path11297" fill="#5f96c6" d="M 99.14 30.84 C 100.20 31.84 101.28 32.83 102.37 33.81 C 100.47 34.58 99.72 34.70 97.80 33.95 C 98.26 32.92 98.71 31.89 99.14 30.84 Z"/>
  <path id="path11299" fill="#282b3d" d="M 66.95 32.83 C 61.64 36.38 55.57 39.96 49.89 42.91 C 53.97 38.17 60.96 34.43 66.95 32.83 Z"/>
  <path id="path11301" fill="#0a4680" d="M 66.95 32.83 L 68.89 32.93 C 69.10 41.95 68.99 50.98 68.96 60.00 C 69.15 63.18 68.12 65.78 70.99 68.00 C 62.41 67.84 53.76 68.32 45.21 67.79 C 45.03 58.49 43.17 50.45 49.89 42.91 C 55.57 39.96 61.64 36.38 66.95 32.83 Z"/>
  <path id="path11303" fill="#f2f6fa" d="M 97.80 33.95 C 99.72 34.70 100.47 34.58 102.37 33.81 C 106.34 36.80 110.38 39.73 114.33 42.73 C 112.18 44.57 111.50 44.90 114.90 45.10 C 113.74 51.37 118.62 48.01 114.90 45.10 C 115.58 44.72 116.27 44.35 116.95 43.98 C 117.55 47.38 118.90 52.13 117.36 55.37 C 114.41 59.20 113.00 60.71 110.92 64.54 C 108.72 59.57 116.06 57.35 112.26 52.20 C 113.01 58.80 107.65 61.53 102.01 62.51 C 104.11 63.11 106.25 63.53 108.37 64.05 C 102.64 68.09 97.42 68.34 91.82 63.92 C 93.87 63.37 95.98 63.09 98.02 62.50 C 95.08 61.49 91.03 62.75 92.89 58.23 C 94.74 56.99 96.51 55.68 98.03 54.04 C 96.74 52.64 95.15 51.46 94.01 49.95 C 94.82 47.11 98.86 40.35 92.89 45.09 C 89.13 43.86 89.44 47.53 92.84 46.95 C 92.96 49.39 92.93 51.31 94.64 53.22 C 93.86 54.86 93.31 56.46 92.89 58.23 C 86.83 60.50 89.21 56.38 87.10 52.96 C 86.46 57.42 87.20 58.50 90.05 61.60 C 89.35 61.52 88.65 61.43 87.95 61.34 C 81.51 56.42 81.11 51.54 83.04 44.00 C 83.73 44.36 84.42 44.72 85.11 45.09 C 81.39 47.99 86.22 51.39 85.11 45.09 C 88.96 44.93 86.90 44.38 85.87 42.14 C 90.22 39.86 93.62 36.36 97.80 33.95 Z"/>
  <path id="path11305" fill="#0a4680" d="M 132.01 33.43 C 138.73 35.56 143.94 39.82 150.02 43.11 C 156.55 49.48 155.04 59.53 154.79 67.79 C 146.90 68.30 138.91 67.89 131.00 67.95 C 131.63 56.73 129.71 44.29 132.01 33.43 Z"/>
  <path id="path11307" fill="#4a89be" d="M 90.21 35.06 C 86.30 39.41 95.56 35.33 90.21 35.06 Z"/>
  <path id="path11309" fill="#4988bd" d="M 108.38 35.20 C 108.77 39.94 113.57 34.49 108.38 35.20 Z"/>
  <path id="path11311" fill="#114074" d="M 172.94 36.26 C 174.12 36.21 175.29 36.15 176.46 36.03 C 178.50 47.57 179.84 58.99 178.74 70.72 C 178.20 71.52 177.35 71.94 176.20 71.96 C 175.64 66.77 176.59 61.92 175.31 56.77 C 175.26 49.80 173.25 43.18 172.94 36.26 Z"/>
  <path id="path11313" fill="#6d999d" d="M 102.53 42.98 C 100.26 44.00 96.14 44.31 98.44 40.70 C 99.71 33.31 100.81 40.35 102.53 42.98 Z"/>
  <path id="path11315" fill="#4586bc" d="M 85.87 42.14 C 86.90 44.38 88.96 44.93 85.11 45.09 C 84.42 44.72 83.73 44.36 83.04 44.00 C 83.96 43.34 84.89 42.71 85.87 42.14 Z"/>
  <path id="path11317" fill="#1d243c" d="M 49.89 42.91 C 43.17 50.45 45.03 58.49 45.21 67.79 C 53.76 68.32 62.41 67.84 70.99 68.00 C 72.99 68.03 75.00 68.01 77.00 68.03 L 77.00 68.97 C 65.71 69.00 54.42 69.06 43.13 68.94 C 42.37 63.10 43.74 57.75 44.06 51.98 C 44.31 48.20 45.99 44.15 49.89 42.91 Z"/>
  <path id="path11319" fill="#a4ba94" d="M 94.01 49.95 C 95.15 51.46 96.74 52.64 98.03 54.04 C 96.90 53.76 95.77 53.49 94.64 53.22 C 92.93 51.31 92.96 49.39 92.84 46.95 L 92.89 45.09 C 98.86 40.35 94.82 47.11 94.01 49.95 Z"/>
  <path id="path11321" fill="#709ca1" d="M 103.91 43.19 C 106.47 45.61 107.58 45.30 110.99 45.29 C 109.90 46.10 108.75 46.83 107.67 47.67 C 106.52 54.92 104.16 45.44 103.91 43.19 Z"/>
  <path id="path11323" fill="#4585bc" d="M 114.33 42.73 C 115.22 43.13 116.10 43.54 116.95 43.98 C 116.27 44.35 115.58 44.72 114.90 45.10 C 111.50 44.90 112.18 44.57 114.33 42.73 Z"/>
  <path id="path11325" fill="#6884b1" d="M 150.02 43.11 L 151.71 42.85 C 155.59 47.27 156.27 51.00 156.30 56.77 C 155.96 60.78 156.16 64.80 155.79 68.79 C 146.23 69.30 136.57 68.88 126.99 68.97 L 127.01 68.02 C 128.34 68.00 129.67 67.98 131.00 67.95 C 138.91 67.89 146.90 68.30 154.79 67.79 C 155.04 59.53 156.55 49.48 150.02 43.11 Z"/>
  <path id="path11327" fill="#74a4cd" d="M 85.11 45.09 C 81.39 47.99 86.22 51.39 85.11 45.09 Z"/>
  <path id="path11329" fill="#1664aa" d="M 92.89 45.09 L 92.84 46.95 C 89.44 47.53 89.13 43.86 92.89 45.09 Z"/>
  <path id="path11331" fill="#5c94c4" d="M 114.90 45.10 C 113.74 51.37 118.62 48.01 114.90 45.10 Z"/>
  <path id="path11333" fill="#d7cd36" d="M 99.36 46.28 C 101.84 44.54 103.71 52.31 100.00 50.95 C 97.03 52.06 97.59 47.00 99.36 46.28 Z"/>
  <path id="path11335" fill="#829fbc" d="M 19.72 49.98 C 20.39 52.22 20.66 54.03 19.19 56.02 C 18.61 53.78 18.44 52.02 19.72 49.98 Z"/>
  <path id="path11337" fill="#8a8d9d" d="M 180.20 49.92 C 181.46 51.27 181.39 52.37 180.91 54.07 C 179.46 52.81 179.62 51.60 180.20 49.92 Z"/>
  <path id="path11339" fill="#659ac7" d="M 84.21 51.48 C 85.52 51.12 86.59 54.65 85.79 55.52 C 84.48 55.88 83.41 52.35 84.21 51.48 Z"/>
  <path id="path11341" fill="#4484bc" d="M 115.30 51.40 C 117.07 51.38 115.80 55.41 114.26 54.61 C 113.63 53.64 114.46 52.00 115.30 51.40 Z"/>
  <path id="path11343" fill="#a4b25a" d="M 105.43 53.10 C 104.54 53.69 103.65 54.29 102.76 54.90 C 100.47 53.23 105.08 50.18 105.43 53.10 Z"/>
  <path id="path11345" fill="#8ab2d4" d="M 112.26 52.20 C 116.06 57.35 108.72 59.57 110.92 64.54 C 110.06 64.40 109.22 64.23 108.37 64.05 C 106.25 63.53 104.11 63.11 102.01 62.51 C 107.65 61.53 113.01 58.80 112.26 52.20 Z"/>
  <path id="path11347" fill="#f3e102" d="M 173.05 51.86 L 173.30 53.74 C 172.50 63.08 173.53 72.52 172.71 81.84 C 172.44 85.82 170.44 90.58 171.93 94.38 C 169.41 109.52 163.48 124.31 155.90 137.62 C 150.22 148.26 142.15 156.64 134.73 165.95 C 124.73 175.12 114.78 184.02 103.22 191.22 C 101.71 191.94 100.32 193.61 98.68 192.32 C 91.79 188.13 85.02 183.47 79.07 178.01 C 78.22 176.12 77.18 174.58 75.83 173.02 C 79.92 168.62 83.51 163.95 86.80 158.91 C 87.24 160.75 86.59 162.53 88.85 163.11 C 92.15 164.40 94.47 166.76 96.98 169.16 C 99.34 171.68 100.70 171.79 102.96 169.07 C 105.42 166.37 108.44 164.53 111.28 162.29 L 111.91 161.77 C 113.34 160.77 112.89 159.56 113.03 158.04 C 113.04 148.68 112.93 139.32 113.00 129.97 C 112.84 126.44 115.69 123.64 117.57 120.89 C 118.10 122.51 118.80 123.87 119.74 125.28 C 120.03 129.47 119.41 132.56 122.82 135.63 C 122.28 139.66 128.35 143.66 131.03 146.09 C 134.59 143.41 137.49 139.03 139.69 135.18 C 137.08 131.26 132.86 125.89 128.10 124.78 C 126.44 122.99 124.73 121.26 123.03 119.52 L 122.85 118.84 C 122.56 117.52 122.28 116.20 122.00 114.88 C 126.18 111.00 127.52 115.80 130.87 118.05 C 134.76 122.41 137.97 127.48 142.80 130.87 C 145.28 126.75 147.70 122.24 149.86 117.92 C 146.97 114.00 143.28 110.54 140.08 106.84 C 138.38 103.59 132.39 100.07 136.86 96.66 C 141.78 101.61 146.28 107.06 151.15 112.09 C 154.29 108.53 155.93 101.02 156.61 96.32 C 153.25 92.52 149.49 89.26 146.69 84.94 C 147.77 84.12 148.87 83.31 149.99 82.55 C 152.89 85.10 155.00 88.31 157.73 91.01 C 157.77 86.03 159.01 81.14 158.91 76.20 C 157.49 76.10 156.05 76.05 154.62 76.05 C 159.42 67.42 167.08 59.84 173.05 51.86 Z"/>
  <path id="path11349" fill="#8bb2d4" d="M 87.10 52.96 C 89.21 56.38 86.83 60.50 92.89 58.23 C 91.03 62.75 95.08 61.49 98.02 62.50 C 95.98 63.09 93.87 63.37 91.82 63.92 C 90.25 64.38 88.71 65.11 87.17 65.69 C 87.40 64.23 87.70 62.79 87.95 61.34 C 88.65 61.43 89.35 61.52 90.05 61.60 C 87.20 58.50 86.46 57.42 87.10 52.96 Z"/>
  <path id="path11351" fill="#5990b8" d="M 94.64 53.22 C 95.77 53.49 96.90 53.76 98.03 54.04 C 96.51 55.68 94.74 56.99 92.89 58.23 C 93.31 56.46 93.86 54.86 94.64 53.22 Z"/>
  <path id="path11353" fill="#538cbc" d="M 105.43 53.10 C 105.95 54.71 106.48 56.30 106.90 57.95 C 105.36 57.11 104.03 56.11 102.76 54.90 C 103.65 54.29 104.54 53.69 105.43 53.10 Z"/>
  <path id="path11355" fill="#19365d" d="M 21.22 54.06 C 22.49 54.20 23.73 54.50 24.97 54.83 C 25.38 62.89 24.22 71.29 25.68 79.23 C 26.05 85.60 27.27 91.95 28.83 98.13 C 30.42 106.76 33.23 115.05 36.69 123.09 C 39.88 129.95 43.14 137.11 47.74 143.16 C 50.10 147.73 53.63 151.40 56.27 155.78 C 51.78 158.33 50.38 152.79 47.85 150.17 C 27.66 122.69 18.87 87.89 21.22 54.06 Z"/>
  <path id="path11357" fill="#e1db36" d="M 173.30 53.74 C 174.59 58.57 173.39 63.40 174.72 68.22 C 175.63 76.83 173.60 85.95 171.93 94.38 C 170.44 90.58 172.44 85.82 172.71 81.84 C 173.53 72.52 172.50 63.08 173.30 53.74 Z"/>
  <path id="path11359" fill="#a1a472" d="M 156.30 56.77 C 157.29 61.00 157.26 65.50 156.78 69.79 C 145.56 70.29 134.24 69.88 123.00 69.97 L 123.00 69.03 C 124.33 69.01 125.66 68.99 126.99 68.97 C 136.57 68.88 146.23 69.30 155.79 68.79 C 156.16 64.80 155.96 60.78 156.30 56.77 Z"/>
  <path id="path11361" fill="#6097c6" d="M 98.45 64.22 C 100.30 67.78 104.39 62.14 98.45 64.22 Z"/>
  <path id="path11363" fill="#385483" d="M 77.00 68.03 C 93.67 67.97 110.34 67.99 127.01 68.02 L 126.99 68.97 C 125.66 68.99 124.33 69.01 123.00 69.03 C 110.01 68.98 97.00 68.98 84.00 69.03 C 81.67 69.00 79.33 69.00 77.00 68.97 L 77.00 68.03 Z"/>
  <path id="path11365" fill="#584b2f" d="M 43.13 68.94 C 54.42 69.06 65.71 69.00 77.00 68.97 C 79.33 69.00 81.67 69.00 84.00 69.03 L 84.00 69.97 C 81.62 70.02 79.24 70.07 76.86 70.09 C 68.85 69.92 60.84 69.97 52.84 70.11 C 50.82 69.65 43.48 70.94 43.13 68.94 Z"/>
  <path id="path11367" fill="#7b7653" d="M 84.00 69.03 C 97.00 68.98 110.01 68.98 123.00 69.03 L 123.00 69.97 C 119.63 70.01 116.26 70.04 112.89 70.06 C 103.26 69.91 93.63 70.06 84.00 69.97 L 84.00 69.03 Z"/>
  <path id="path11369" fill="#af8a0d" d="M 52.84 70.11 C 60.84 69.97 68.85 69.92 76.86 70.09 C 81.92 71.41 78.23 72.88 77.02 75.88 C 76.35 76.57 75.67 77.25 74.98 77.93 C 73.09 77.93 71.20 77.91 69.32 77.82 C 68.37 74.98 63.55 75.95 61.32 76.30 C 55.47 83.31 48.75 89.95 43.02 97.00 C 44.03 98.40 44.22 101.48 45.41 98.01 C 45.99 100.18 46.56 102.34 46.87 104.57 C 46.24 107.37 47.15 109.73 47.73 112.45 C 44.48 115.51 42.01 119.64 38.34 122.16 C 37.30 121.14 36.75 121.45 36.69 123.09 C 33.23 115.05 30.42 106.76 28.83 98.13 C 30.01 99.66 31.09 101.25 32.27 102.77 C 34.82 98.12 40.27 94.88 41.27 89.71 C 42.33 89.97 42.81 90.76 43.74 89.74 C 48.06 85.93 51.35 81.10 55.33 76.92 C 53.53 74.14 55.66 74.04 57.13 71.88 C 55.76 71.17 54.28 70.64 52.84 70.11 Z"/>
  <path id="path11371" fill="#c09f0a" d="M 76.86 70.09 C 79.24 70.07 81.62 70.02 84.00 69.97 C 93.63 70.06 103.26 69.91 112.89 70.06 C 118.58 72.05 114.30 74.17 111.85 76.86 C 104.30 77.40 96.65 76.62 89.09 77.12 C 86.78 77.36 87.14 79.41 87.02 81.16 C 86.56 87.17 88.89 92.45 82.47 95.92 C 81.30 99.49 83.61 108.69 76.82 107.06 C 77.61 106.08 78.40 105.12 79.10 104.07 C 81.02 99.55 79.74 92.97 79.81 88.03 C 78.00 89.39 76.46 91.03 74.99 92.75 C 71.61 91.88 68.13 97.87 65.95 99.96 C 64.89 101.64 62.89 102.99 63.64 105.17 L 63.77 106.01 C 60.62 108.70 57.79 111.70 54.90 114.67 C 52.66 114.29 51.66 115.60 50.35 117.18 C 51.09 121.49 53.92 125.13 55.89 128.96 C 53.89 132.63 51.44 136.73 47.98 139.17 C 43.67 134.71 40.64 127.90 38.34 122.16 C 42.01 119.64 44.48 115.51 47.73 112.45 C 54.21 107.76 61.07 97.99 67.18 92.20 C 71.01 86.71 76.62 82.89 80.18 77.29 C 82.24 75.26 78.07 76.31 77.02 75.88 C 78.23 72.88 81.92 71.41 76.86 70.09 Z"/>
  <path id="path11373" fill="#9bb4cd" d="M 19.19 72.98 C 20.66 74.97 20.39 76.78 19.71 79.02 C 18.44 76.98 18.61 75.22 19.19 72.98 Z"/>
  <path id="path11375" fill="#9095a5" d="M 180.91 73.93 C 181.39 75.63 181.48 76.77 180.13 78.07 C 179.62 76.38 179.50 75.19 180.91 73.93 Z"/>
  <path id="path11377" fill="#dbbe02" d="M 41.14 76.20 C 42.77 76.40 52.36 74.48 50.43 77.82 C 48.83 78.39 42.30 76.84 43.29 79.79 C 43.12 81.89 42.95 83.98 42.68 86.07 C 41.46 82.87 40.64 79.65 41.14 76.20 Z"/>
  <path id="path11379" fill="#cbb106" d="M 61.32 76.30 C 63.55 75.95 68.37 74.98 69.32 77.82 C 66.55 78.24 62.61 77.04 61.05 79.97 C 56.85 85.19 51.59 89.27 47.73 94.82 C 46.87 95.85 45.98 96.78 45.41 98.01 C 44.22 101.48 44.03 98.40 43.02 97.00 C 48.75 89.95 55.47 83.31 61.32 76.30 Z"/>
  <path id="path11381" fill="#725b09" d="M 77.02 75.88 C 78.07 76.31 82.24 75.26 80.18 77.29 C 76.62 82.89 71.01 86.71 67.18 92.20 C 61.07 97.99 54.21 107.76 47.73 112.45 C 47.15 109.73 46.24 107.37 46.87 104.57 C 49.56 109.49 48.67 110.31 52.34 105.47 C 56.08 101.47 59.67 97.45 62.96 93.05 C 66.04 90.44 69.58 87.94 71.02 84.01 C 71.96 83.01 79.85 77.41 74.98 77.93 C 75.67 77.25 76.35 76.57 77.02 75.88 Z"/>
  <path id="path11383" fill="#f5ef87" d="M 120.01 76.22 C 124.39 76.15 130.63 74.81 134.32 77.61 C 130.57 78.02 126.82 77.95 123.06 78.18 C 125.49 81.12 128.30 83.56 130.12 86.99 C 125.78 85.57 121.51 80.43 120.01 76.22 Z"/>
  <path id="path11385" fill="#826c0a" d="M 154.62 76.05 C 156.05 76.05 157.49 76.10 158.91 76.20 C 159.01 81.14 157.77 86.03 157.73 91.01 C 155.00 88.31 152.89 85.10 149.99 82.55 C 150.00 81.69 150.00 80.82 150.01 79.96 C 151.37 81.10 152.71 82.25 154.00 83.47 C 155.90 90.83 159.30 75.31 153.95 77.85 C 154.18 77.25 154.40 76.65 154.62 76.05 Z"/>
  <path id="path11387" fill="#304569" d="M 50.43 77.82 C 49.79 80.79 45.99 83.23 44.24 85.76 C 43.93 83.77 43.66 81.77 43.29 79.79 C 42.30 76.84 48.83 78.39 50.43 77.82 Z"/>
  <path id="path11389" fill="#677ba4" d="M 69.32 77.82 C 71.20 77.91 73.09 77.93 74.98 77.93 C 79.85 77.41 71.96 83.01 71.02 84.01 C 71.84 82.32 72.81 80.72 73.71 79.08 C 69.38 78.84 65.24 78.70 61.05 79.97 C 62.61 77.04 66.55 78.24 69.32 77.82 Z"/>
  <path id="path11391" fill="#e5dd89" d="M 111.79 78.21 C 112.23 105.95 111.97 134.00 111.91 161.77 L 111.28 162.29 C 110.48 134.66 111.47 106.84 110.79 79.21 C 103.54 78.66 96.21 79.23 88.94 78.90 C 95.62 76.96 104.66 78.27 111.79 78.21 Z"/>
  <path id="path11393" fill="#144274" d="M 123.06 78.18 C 126.82 77.95 130.57 78.02 134.32 77.61 C 137.73 77.94 138.75 79.55 140.81 81.93 C 141.19 82.61 141.57 83.29 141.94 83.98 C 143.43 87.93 146.87 90.40 150.03 92.99 C 153.57 98.39 153.10 99.95 150.77 105.86 C 146.77 102.93 144.08 98.77 139.80 96.10 C 138.22 94.68 136.64 93.27 135.04 91.87 C 133.55 90.05 131.96 88.47 130.12 86.99 C 128.30 83.56 125.49 81.12 123.06 78.18 Z"/>
  <path id="path11395" fill="#294670" d="M 153.03 77.89 C 155.40 80.22 155.27 80.38 154.00 83.47 C 152.71 82.25 151.37 81.10 150.01 79.96 C 148.25 76.81 151.02 78.42 153.03 77.89 Z"/>
  <path id="path11397" fill="#6c7b95" d="M 153.03 77.89 L 153.95 77.85 C 159.30 75.31 155.90 90.83 154.00 83.47 C 155.27 80.38 155.40 80.22 153.03 77.89 Z"/>
  <path id="path11399" fill="#134274" d="M 73.71 79.08 C 72.81 80.72 71.84 82.32 71.02 84.01 C 67.91 86.59 64.36 89.09 62.96 93.05 C 59.67 97.45 56.08 101.47 52.34 105.47 C 47.07 107.67 46.71 97.95 47.73 94.82 C 51.59 89.27 56.85 85.19 61.05 79.97 C 65.24 78.70 69.38 78.84 73.71 79.08 Z"/>
  <path id="path11401" fill="#dace6a" d="M 88.94 78.90 C 88.87 106.66 89.38 134.51 88.68 162.25 C 86.93 135.50 88.79 107.62 87.74 80.69 C 88.13 80.09 88.53 79.49 88.94 78.90 Z"/>
  <path id="path11403" fill="#f9fbfd" d="M 88.94 78.90 C 96.21 79.23 103.54 78.66 110.79 79.21 C 111.47 106.84 110.48 134.66 111.28 162.29 C 108.44 164.53 105.42 166.37 102.96 169.07 C 100.79 169.64 99.17 169.65 96.98 169.16 C 94.47 166.76 92.15 164.40 88.85 163.11 L 88.68 162.25 C 89.38 134.51 88.87 106.66 88.94 78.90 Z"/>
  <path id="path11405" fill="#cbae09" d="M 87.02 81.16 L 87.74 80.69 C 88.79 107.62 86.93 135.50 88.68 162.25 L 88.85 163.11 C 86.59 162.53 87.24 160.75 86.80 158.91 C 87.20 146.36 86.98 133.75 86.94 121.20 C 85.70 122.47 84.54 123.79 83.22 124.98 C 82.99 121.53 83.09 118.16 82.36 114.77 C 82.29 106.76 78.49 115.19 77.84 117.91 C 77.60 118.50 77.36 119.08 77.11 119.67 C 75.45 121.15 73.78 122.62 71.98 123.92 C 69.83 124.83 65.07 127.44 66.81 130.36 C 65.79 131.88 62.80 134.04 63.10 135.87 C 64.78 138.70 66.85 141.85 69.60 143.72 C 70.43 142.52 71.20 141.27 71.94 140.02 C 73.98 138.38 75.93 136.65 77.93 134.96 L 78.94 136.09 C 75.38 139.36 71.83 147.92 66.29 146.52 C 63.33 148.87 61.99 152.97 58.90 155.42 C 55.02 151.62 52.43 145.90 47.74 143.16 C 43.14 137.11 39.88 129.95 36.69 123.09 C 36.75 121.45 37.30 121.14 38.34 122.16 C 40.64 127.90 43.67 134.71 47.98 139.17 C 51.44 136.73 53.89 132.63 55.89 128.96 C 56.33 129.60 56.79 130.22 57.27 130.82 C 60.20 128.49 65.48 123.92 65.26 119.91 C 66.17 118.63 67.07 117.34 67.95 116.05 C 71.43 113.52 74.02 110.26 76.82 107.06 C 83.61 108.69 81.30 99.49 82.47 95.92 C 88.89 92.45 86.56 87.17 87.02 81.16 Z"/>
  <path id="path11407" fill="#115fa7" d="M 106.94 86.32 C 106.53 83.26 107.84 82.08 103.80 81.65 C 109.56 79.62 110.47 81.92 106.94 86.32 Z"/>
  <path id="path11409" fill="#6f5a0c" d="M 146.69 84.94 C 149.49 89.26 153.25 92.52 156.61 96.32 C 155.93 101.02 154.29 108.53 151.15 112.09 C 146.28 107.06 141.78 101.61 136.86 96.66 C 135.71 95.11 135.30 93.79 135.04 91.87 C 136.64 93.27 138.22 94.68 139.80 96.10 C 142.56 100.98 147.37 104.54 150.85 108.97 C 153.02 102.64 157.87 97.27 150.03 92.99 C 148.57 89.06 145.06 86.54 141.94 83.98 C 141.57 83.29 141.19 82.61 140.81 81.93 C 143.57 80.80 144.73 83.47 146.69 84.94 Z"/>
  <path id="path11411" fill="#246eaf" d="M 103.80 81.65 C 103.44 83.76 103.29 85.72 103.57 87.84 C 101.43 89.97 100.29 93.17 99.22 95.94 C 102.60 98.12 105.59 97.30 109.19 96.44 C 107.53 100.39 103.48 100.62 99.96 99.01 C 96.58 97.16 94.30 101.93 90.73 99.18 L 91.73 97.89 C 93.56 99.09 94.28 98.95 95.43 97.07 C 95.94 96.35 96.42 95.61 96.88 94.87 C 97.87 93.33 98.64 91.69 99.38 90.02 C 100.14 88.60 100.48 87.30 100.59 85.69 C 101.57 84.27 102.60 82.89 103.80 81.65 Z"/>
  <path id="path11413" fill="#c3d8e9" d="M 103.80 81.65 C 107.84 82.08 106.53 83.26 106.94 86.32 C 105.91 86.98 104.69 87.39 103.57 87.84 C 103.29 85.72 103.44 83.76 103.80 81.65 Z"/>
  <path id="path11415" fill="#999eae" d="M 179.87 82.93 C 180.39 84.62 180.46 85.70 179.25 87.09 C 178.61 85.42 178.46 84.23 179.87 82.93 Z"/>
  <path id="path11417" fill="#5d6a84" d="M 71.02 84.01 C 69.58 87.94 66.04 90.44 62.96 93.05 C 64.36 89.09 67.91 86.59 71.02 84.01 Z"/>
  <path id="path11419" fill="#5e6f90" d="M 141.94 83.98 C 145.06 86.54 148.57 89.06 150.03 92.99 C 146.87 90.40 143.43 87.93 141.94 83.98 Z"/>
  <path id="path11421" fill="#eeda47" d="M 120.18 85.03 C 121.25 85.86 122.17 86.85 123.04 87.88 L 121.88 88.79 C 121.29 88.65 120.70 88.52 120.11 88.41 C 119.87 93.29 120.06 98.20 119.86 103.09 C 117.20 98.81 116.84 89.03 120.18 85.03 Z"/>
  <path id="path11423" fill="#8cb3d6" d="M 100.59 85.69 C 100.48 87.30 100.14 88.60 99.38 90.02 C 98.60 87.67 96.88 85.96 100.59 85.69 Z"/>
  <path id="path11425" fill="#839ac2" d="M 79.81 88.03 C 79.74 92.97 81.02 99.55 79.10 104.07 C 79.02 99.80 79.06 95.53 78.94 91.26 L 77.83 91.96 C 76.86 92.56 75.87 93.14 74.88 93.71 L 74.99 92.75 C 76.46 91.03 78.00 89.39 79.81 88.03 Z"/>
  <path id="path11427" fill="#2e2c35" d="M 120.11 88.41 C 120.70 88.52 121.29 88.65 121.88 88.79 C 122.64 89.97 123.41 91.13 124.20 92.29 C 123.17 92.00 122.15 91.70 121.12 91.46 C 120.74 96.56 120.53 101.42 122.88 106.13 C 121.83 105.12 120.78 104.22 119.86 103.09 C 120.06 98.20 119.87 93.29 120.11 88.41 Z"/>
  <path id="path11429" fill="#e8de95" d="M 123.04 87.88 C 125.30 91.09 129.97 94.02 130.00 98.11 C 127.84 96.35 125.97 94.43 124.20 92.29 C 123.41 91.13 122.64 89.97 121.88 88.79 L 123.04 87.88 Z"/>
  <path id="path11431" fill="#537096" d="M 78.94 91.26 C 79.06 95.53 79.02 99.80 79.10 104.07 C 78.40 105.12 77.61 106.08 76.82 107.06 C 74.02 110.26 71.43 113.52 67.95 116.05 C 70.11 111.04 75.34 107.74 77.84 102.87 C 78.28 99.29 77.95 95.56 77.83 91.96 L 78.94 91.26 Z"/>
  <path id="path11433" fill="#144375" d="M 121.12 91.46 C 122.15 91.70 123.17 92.00 124.20 92.29 C 125.97 94.43 127.84 96.35 130.00 98.11 C 132.27 101.10 134.67 104.00 136.90 107.02 C 138.45 110.95 141.62 112.67 144.19 115.82 C 147.39 118.52 143.64 122.57 142.05 125.14 C 139.57 123.19 137.44 120.87 134.81 119.10 C 133.59 118.04 132.37 116.99 131.16 115.93 C 128.20 112.79 125.32 109.70 122.88 106.13 C 120.53 101.42 120.74 96.56 121.12 91.46 Z"/>
  <path id="path11435" fill="#e8d866" d="M 74.99 92.75 L 74.88 93.71 L 74.07 95.00 C 70.22 97.95 66.81 101.51 63.64 105.17 C 62.89 102.99 64.89 101.64 65.95 99.96 C 68.13 97.87 71.61 91.88 74.99 92.75 Z"/>
  <path id="path11437" fill="#124376" d="M 77.83 91.96 C 77.95 95.56 78.28 99.29 77.84 102.87 C 75.34 107.74 70.11 111.04 67.95 116.05 C 67.07 117.34 66.17 118.63 65.26 119.91 C 63.18 121.44 61.69 123.44 60.00 125.36 C 55.90 125.08 54.25 118.97 54.48 115.54 L 54.90 114.67 C 57.79 111.70 60.62 108.70 63.77 106.01 C 67.59 103.04 72.09 99.52 74.07 95.00 L 74.88 93.71 C 75.87 93.14 76.86 92.56 77.83 91.96 Z"/>
  <path id="path11439" fill="#63789c" d="M 150.03 92.99 C 157.87 97.27 153.02 102.64 150.85 108.97 C 147.37 104.54 142.56 100.98 139.80 96.10 C 144.08 98.77 146.77 102.93 150.77 105.86 C 153.10 99.95 153.57 98.39 150.03 92.99 Z"/>
  <path id="path11441" fill="#242533" d="M 47.73 94.82 C 46.71 97.95 47.07 107.67 52.34 105.47 C 48.67 110.31 49.56 109.49 46.87 104.57 C 46.56 102.34 45.99 100.18 45.41 98.01 C 45.98 96.78 46.87 95.85 47.73 94.82 Z"/>
  <path id="path11443" fill="#5f6e86" d="M 74.07 95.00 C 72.09 99.52 67.59 103.04 63.77 106.01 L 63.64 105.17 C 66.81 101.51 70.22 97.95 74.07 95.00 Z"/>
  <path id="path11445" fill="#7daad0" d="M 96.88 94.87 C 96.42 95.61 95.94 96.35 95.43 97.07 C 93.76 95.44 92.81 96.20 91.73 97.89 L 90.73 99.18 C 88.27 95.94 94.58 94.56 96.88 94.87 Z"/>
  <path id="path11447" fill="#edf3f9" d="M 95.43 97.07 C 94.28 98.95 93.56 99.09 91.73 97.89 C 92.81 96.20 93.76 95.44 95.43 97.07 Z"/>
  <path id="path11449" fill="#8ab2d5" d="M 96.08 104.15 L 96.51 104.66 C 94.08 109.30 92.43 104.47 96.08 104.15 Z"/>
  <path id="path11451" fill="#226cae" d="M 96.08 104.15 C 98.46 104.27 99.95 103.28 100.61 106.21 C 99.74 110.97 94.17 115.10 95.12 119.91 C 102.70 121.17 102.13 105.40 107.95 105.05 C 106.54 110.13 103.30 114.53 102.11 119.76 C 103.41 119.72 104.70 119.60 106.00 119.54 C 106.48 122.97 103.76 122.19 101.60 121.30 C 98.85 119.00 95.24 123.66 92.72 121.28 C 88.93 116.95 101.43 108.24 96.51 104.66 L 96.08 104.15 Z"/>
  <path id="path11453" fill="#627494" d="M 136.90 107.02 L 137.84 107.18 C 141.05 110.72 145.21 114.08 147.52 118.23 C 146.25 121.53 144.36 124.64 142.62 127.72 C 139.51 125.44 136.59 122.56 134.81 119.10 C 137.44 120.87 139.57 123.19 142.05 125.14 C 143.64 122.57 147.39 118.52 144.19 115.82 C 141.62 112.67 138.45 110.95 136.90 107.02 Z"/>
  <path id="path11455" fill="#76600a" d="M 137.84 107.18 L 140.08 106.84 C 143.28 110.54 146.97 114.00 149.86 117.92 C 147.70 122.24 145.28 126.75 142.80 130.87 C 137.97 127.48 134.76 122.41 130.87 118.05 L 131.16 115.93 C 132.37 116.99 133.59 118.04 134.81 119.10 C 136.59 122.56 139.51 125.44 142.62 127.72 C 144.36 124.64 146.25 121.53 147.52 118.23 C 145.21 114.08 141.05 110.72 137.84 107.18 Z"/>
  <path id="path11457" fill="#856b04" d="M 82.36 114.77 C 80.82 121.62 84.51 131.25 78.94 136.09 L 77.93 134.96 C 78.47 134.06 79.35 133.14 79.53 132.08 C 80.40 126.88 80.00 121.42 79.89 116.17 C 79.20 116.73 78.51 117.31 77.84 117.91 C 78.49 115.19 82.29 106.76 82.36 114.77 Z"/>
  <path id="path11459" fill="#6e5809" d="M 54.90 114.67 L 54.48 115.54 C 51.43 119.33 55.25 122.73 56.64 126.42 C 57.36 129.27 58.85 126.19 60.00 125.36 C 61.69 123.44 63.18 121.44 65.26 119.91 C 65.48 123.92 60.20 128.49 57.27 130.82 C 56.79 130.22 56.33 129.60 55.89 128.96 C 53.92 125.13 51.09 121.49 50.35 117.18 C 51.66 115.60 52.66 114.29 54.90 114.67 Z"/>
  <path id="path11461" fill="#ecdf7c" d="M 122.00 114.88 C 122.28 116.20 122.56 117.52 122.85 118.84 C 117.97 114.22 120.77 122.61 119.74 125.28 C 118.80 123.87 118.10 122.51 117.57 120.89 C 118.41 117.89 116.93 112.52 122.00 114.88 Z"/>
  <path id="path11463" fill="#dec507" d="M 82.36 114.77 C 83.09 118.16 82.99 121.53 83.22 124.98 C 84.54 123.79 85.70 122.47 86.94 121.20 C 86.98 133.75 87.20 146.36 86.80 158.91 C 83.51 163.95 79.92 168.62 75.83 173.02 C 69.60 168.25 63.78 161.57 58.90 155.42 C 61.99 152.97 63.33 148.87 66.29 146.52 C 71.83 147.92 75.38 139.36 78.94 136.09 C 84.51 131.25 80.82 121.62 82.36 114.77 Z"/>
  <path id="path11465" fill="#1f2641" d="M 54.48 115.54 C 54.25 118.97 55.90 125.08 60.00 125.36 C 58.85 126.19 57.36 129.27 56.64 126.42 C 55.25 122.73 51.43 119.33 54.48 115.54 Z"/>
  <path id="path11467" fill="#8099ca" d="M 79.89 116.17 C 80.00 121.42 80.40 126.88 79.53 132.08 C 78.27 128.87 80.54 120.90 77.11 119.67 C 77.36 119.08 77.60 118.50 77.84 117.91 C 78.51 117.31 79.20 116.73 79.89 116.17 Z"/>
  <path id="path11469" fill="#322e31" d="M 122.85 118.84 L 123.03 119.52 C 118.72 121.94 121.25 132.41 123.80 135.99 L 122.82 135.63 C 119.41 132.56 120.03 129.47 119.74 125.28 C 120.77 122.61 117.97 114.22 122.85 118.84 Z"/>
  <path id="path11471" fill="#58708f" d="M 77.11 119.67 C 80.54 120.90 78.27 128.87 79.53 132.08 C 79.35 133.14 78.47 134.06 77.93 134.96 C 75.93 136.65 73.98 138.38 71.94 140.02 C 73.08 136.83 75.62 135.19 77.61 132.63 C 78.45 128.95 78.00 124.80 77.82 121.05 C 74.83 123.41 72.60 126.37 69.20 128.25 C 70.10 126.79 71.02 125.34 71.98 123.92 C 73.78 122.62 75.45 121.15 77.11 119.67 Z"/>
  <path id="path11473" fill="#184577" d="M 123.03 119.52 C 124.73 121.26 126.44 122.99 128.10 124.78 C 129.58 126.96 131.30 128.93 133.03 130.91 C 134.91 134.40 135.87 135.32 134.37 139.29 C 133.40 140.76 132.61 142.19 131.04 143.11 C 128.29 141.23 125.98 138.49 123.80 135.99 C 121.25 132.41 118.72 121.94 123.03 119.52 Z"/>
  <path id="path11475" fill="#144172" d="M 77.82 121.05 C 78.00 124.80 78.45 128.95 77.61 132.63 C 75.62 135.19 73.08 136.83 71.94 140.02 C 71.20 141.27 70.43 142.52 69.60 143.72 C 66.85 141.85 64.78 138.70 63.10 135.87 C 62.80 134.04 65.79 131.88 66.81 130.36 C 67.61 129.66 68.40 128.96 69.20 128.25 C 72.60 126.37 74.83 123.41 77.82 121.05 Z"/>
  <path id="path11477" fill="#ede394" d="M 71.98 123.92 C 71.02 125.34 70.10 126.79 69.20 128.25 C 68.40 128.96 67.61 129.66 66.81 130.36 C 65.07 127.44 69.83 124.83 71.98 123.92 Z"/>
  <path id="path11479" fill="#75600d" d="M 128.10 124.78 C 132.86 125.89 137.08 131.26 139.69 135.18 C 137.49 139.03 134.59 143.41 131.03 146.09 C 128.35 143.66 122.28 139.66 122.82 135.63 L 123.80 135.99 C 125.98 138.49 128.29 141.23 131.04 143.11 C 132.61 142.19 133.40 140.76 134.37 139.29 C 138.68 134.91 136.99 134.30 133.03 130.91 C 131.30 128.93 129.58 126.96 128.10 124.78 Z"/>
  <path id="path11481" fill="#2d74b2" d="M 110.05 126.36 C 106.93 129.89 102.71 127.33 102.21 133.11 C 101.15 136.00 104.63 134.27 106.24 134.65 C 104.10 136.89 101.25 136.79 100.03 140.00 C 98.30 143.59 96.07 146.38 92.08 143.53 C 97.40 142.86 97.52 140.42 98.75 135.89 C 97.38 136.35 96.08 136.95 94.76 137.51 C 95.42 133.43 99.89 136.36 99.97 131.02 C 101.27 128.48 95.43 128.11 96.56 130.42 C 97.80 134.09 91.68 128.27 95.28 127.24 C 100.20 126.78 105.13 127.17 110.05 126.36 Z"/>
  <path id="path11483" fill="#6b81a9" d="M 133.03 130.91 C 136.99 134.30 138.68 134.91 134.37 139.29 C 135.87 135.32 134.91 134.40 133.03 130.91 Z"/>
  <path id="path11485" fill="#194573" d="M 155.90 137.62 C 158.89 139.28 158.57 140.26 158.93 143.33 C 150.47 157.10 139.67 170.56 126.76 180.39 C 127.76 175.50 135.06 171.86 137.74 167.42 C 136.74 166.92 135.74 166.43 134.73 165.95 C 142.15 156.64 150.22 148.26 155.90 137.62 Z"/>
  <path id="path11487" fill="#b29802" d="M 81.89 140.34 C 82.12 146.43 82.12 152.86 81.83 158.95 C 79.94 157.55 78.14 156.30 77.55 153.88 C 81.52 156.74 79.50 150.34 80.42 148.17 C 81.12 146.57 80.38 140.07 81.89 140.34 Z"/>
  <path id="path11489" fill="#d8d86f" d="M 47.74 143.16 C 52.43 145.90 55.02 151.62 58.90 155.42 C 63.78 161.57 69.60 168.25 75.83 173.02 C 77.18 174.58 78.22 176.12 79.07 178.01 C 70.18 171.64 63.58 163.74 56.27 155.78 C 53.63 151.40 50.10 147.73 47.74 143.16 Z"/>
  <path id="path11491" fill="#2c587f" d="M 80.42 148.17 C 79.50 150.34 81.52 156.74 77.55 153.88 C 76.75 152.54 75.84 151.27 75.06 149.92 C 76.62 148.01 80.56 141.92 80.42 148.17 Z"/>
  <path id="path11493" fill="#1766ab" d="M 105.99 145.03 C 98.82 147.39 93.70 154.93 97.07 162.19 C 98.03 162.82 99.03 163.39 100.03 163.95 C 96.33 164.73 92.70 161.80 92.92 158.01 C 92.73 151.03 98.93 144.67 105.99 145.03 Z"/>
  <path id="path11495" fill="#2a4153" d="M 121.04 145.17 C 122.42 146.73 123.88 148.30 125.04 150.04 C 122.65 153.33 119.70 156.80 119.59 149.80 C 120.01 148.96 119.63 144.40 121.04 145.17 Z"/>
  <path id="path11497" fill="#b49b02" d="M 121.04 145.17 C 123.27 144.97 126.92 148.69 127.02 150.84 C 124.11 153.58 121.23 156.44 118.12 158.96 C 117.74 155.41 117.91 152.96 119.59 149.80 C 119.70 156.80 122.65 153.33 125.04 150.04 C 123.88 148.30 122.42 146.73 121.04 145.17 Z"/>
  <path id="path11499" fill="#6298c7" d="M 103.20 160.45 C 102.37 161.90 101.73 163.37 100.03 163.95 C 99.03 163.39 98.03 162.82 97.07 162.19 C 99.20 161.88 101.18 161.18 103.20 160.45 Z"/>
  <path id="path11501" fill="#b59431" d="M 96.98 169.16 C 99.17 169.65 100.79 169.64 102.96 169.07 C 100.70 171.79 99.34 171.68 96.98 169.16 Z"/>
</svg>