<?xml version="1.0" encoding="UTF-8" standalone="no"?>
<!DOCTYPE svg PUBLIC "-//W3C//DTD SVG 1.1//EN" "http://www.w3.org/Graphics/SVG/1.1/DTD/svg11.dtd">
<svg xmlns="http://www.w3.org/2000/svg" version="1.1" viewBox="0 0 200 200" width="200.0pt" height="200.0pt">
<path d="M 0.00 0.00 L 24.68 0.00 C 24.72 14.62 24.62 29.23 24.73 43.85 C 29.88 43.87 35.03 43.83 40.18 43.88 C 30.60 66.35 20.70 88.71 11.10 111.18 C 40.71 140.76 70.29 170.47 99.92 200.00 L 0.00 200.00 L 0.00 0.00 Z" fill="#ffffff"/>
<path d="M 24.68 0.00 L 175.32 0.00 C 175.28 14.62 175.38 29.23 175.27 43.85 C 170.12 43.87 164.97 43.83 159.82 43.88 C 169.40 66.36 179.30 88.71 188.90 111.18 C 159.29 140.75 129.71 170.47 100.08 200.00 L 99.92 200.00 C 70.29 170.47 40.71 140.76 11.10 111.18 C 20.70 88.71 30.60 66.35 40.18 43.88 C 35.03 43.83 29.88 43.87 24.73 43.85 C 24.62 29.23 24.72 14.62 24.68 0.00 Z" fill="#ed2329"/>
<path d="M 175.32 0.00 L 200.00 0.00 L 200.00 200.00 L 100.08 200.00 C 129.71 170.47 159.29 140.75 188.90 111.18 C 179.30 88.71 169.40 66.36 159.82 43.88 C 164.97 43.83 170.12 43.87 175.27 43.85 C 175.38 29.23 175.28 14.62 175.32 0.00 Z" fill="#ffffff"/>
<path d="M 32.56 7.84 C 77.52 7.83 122.48 7.83 167.44 7.84 C 167.47 17.20 167.49 26.56 167.43 35.92 C 122.48 35.92 77.52 35.92 32.57 35.92 C 32.51 26.56 32.53 17.20 32.56 7.84 Z" fill="#f8ef24"/>
<path d="M 40.46 12.02 C 41.66 12.02 42.86 12.02 44.06 12.02 C 45.06 16.71 46.01 21.40 46.97 26.09 C 48.11 21.45 48.99 16.74 50.01 12.06 C 51.26 12.05 52.51 12.04 53.76 12.03 C 54.74 16.97 55.84 21.88 56.77 26.83 C 57.54 21.89 58.65 17.02 59.59 12.12 C 60.77 12.08 61.95 12.04 63.14 12.00 C 61.61 18.55 60.05 25.09 58.51 31.64 C 57.25 31.62 56.00 31.61 54.74 31.59 C 53.69 26.86 52.60 22.13 51.77 17.35 C 50.98 22.13 49.97 26.86 48.95 31.60 C 47.67 31.61 46.40 31.61 45.12 31.62 C 43.56 25.09 42.02 18.55 40.46 12.02 Z" fill="#000000"/>
<path d="M 70.21 14.54 C 71.42 14.45 72.64 14.42 73.86 14.45 C 76.03 20.05 77.91 25.78 79.93 31.44 C 78.65 31.44 77.37 31.45 76.08 31.45 C 75.58 30.09 75.07 28.74 74.57 27.38 C 72.73 27.38 70.89 27.37 69.06 27.37 C 68.52 28.74 67.98 30.11 67.45 31.48 C 66.23 31.46 65.01 31.45 63.79 31.43 C 65.93 25.82 67.75 20.00 70.21 14.54 Z" fill="#000000"/>
<path d="M 96.37 14.64 C 99.74 14.45 103.14 14.61 106.52 14.60 C 106.36 15.54 106.19 16.47 106.03 17.41 C 103.99 17.42 101.96 17.42 99.92 17.43 C 99.93 18.67 99.94 19.91 99.95 21.16 C 101.59 21.17 103.24 21.19 104.88 21.21 C 104.86 22.19 104.83 23.17 104.81 24.14 C 103.18 24.14 101.55 24.14 99.93 24.14 C 99.93 26.58 99.93 29.02 99.92 31.46 C 98.72 31.46 97.51 31.45 96.30 31.45 C 96.35 25.85 96.15 20.23 96.37 14.64 Z" fill="#000000"/>
<path d="M 113.50 14.72 C 117.22 13.60 121.88 14.56 123.56 18.41 C 125.06 21.90 124.84 27.19 121.95 29.95 C 118.39 32.99 111.38 32.27 109.37 27.67 C 107.38 23.35 108.21 16.23 113.50 14.72 Z" fill="#000000"/>
<path d="M 79.88 14.59 C 84.43 14.58 88.98 14.56 93.52 14.60 L 92.65 17.39 C 91.17 17.53 89.66 17.52 88.17 17.54 C 88.16 22.17 88.17 26.81 88.17 31.45 C 86.99 31.45 85.81 31.45 84.63 31.45 C 84.62 26.80 84.63 22.16 84.63 17.51 C 83.05 17.49 81.46 17.47 79.88 17.45 L 79.88 14.59 Z" fill="#000000"/>
<path d="M 128.79 14.59 C 131.79 14.62 135.00 14.31 137.94 14.96 C 140.74 15.96 141.75 19.02 140.63 21.67 C 140.17 23.04 138.40 23.73 137.29 24.51 C 139.02 26.75 140.63 29.07 142.20 31.42 C 140.76 31.43 139.32 31.44 137.89 31.45 C 136.32 28.78 134.76 26.18 132.46 24.06 C 132.33 26.52 132.31 28.99 132.30 31.46 C 131.13 31.45 129.95 31.45 128.77 31.45 C 128.78 25.83 128.77 20.21 128.79 14.59 Z" fill="#000000"/>
<path d="M 145.83 14.57 C 149.74 14.69 155.02 13.81 157.82 17.22 C 160.63 20.95 160.07 28.23 155.62 30.58 C 152.76 31.92 148.93 31.36 145.84 31.45 C 145.83 25.82 145.83 20.20 145.83 14.57 Z" fill="#000000"/>
<path d="M 114.41 17.44 C 116.29 16.48 119.07 16.96 119.76 19.18 C 120.60 21.58 120.62 25.24 119.50 27.55 C 118.22 29.65 115.62 29.51 113.75 28.29 C 112.43 26.61 112.36 24.02 112.42 21.97 C 112.56 20.35 112.80 18.27 114.41 17.44 Z" fill="#f8ef24"/>
<path d="M 132.40 17.29 C 134.15 17.34 137.30 16.96 137.35 19.47 C 137.46 22.30 134.20 21.63 132.31 22.09 C 132.31 20.50 132.29 18.88 132.40 17.29 Z" fill="#f8ef24"/>
<path d="M 149.53 17.29 C 151.22 17.35 153.22 17.05 154.32 18.62 C 155.87 20.79 155.92 24.45 154.81 26.80 C 153.69 28.96 151.51 28.44 149.48 28.75 C 149.49 24.94 149.31 21.10 149.53 17.29 Z" fill="#f8ef24"/>
<path d="M 71.86 18.24 C 72.51 20.38 73.15 22.52 73.79 24.66 C 72.49 24.64 71.19 24.63 69.89 24.62 C 70.17 23.68 70.46 22.74 70.75 21.81 C 71.11 20.62 71.48 19.43 71.86 18.24 Z" fill="#f8ef24"/>
<path d="M 49.07 43.85 C 65.98 43.55 83.06 43.81 100.00 43.73 C 100.06 64.76 99.88 85.81 100.09 106.84 C 104.91 104.00 104.12 95.63 105.95 90.92 C 106.67 89.43 107.99 88.75 109.58 89.42 C 112.01 90.07 112.38 93.57 113.26 95.55 C 117.07 87.91 115.37 77.28 115.19 69.00 C 115.36 64.17 115.12 58.42 118.60 54.59 C 120.19 52.70 123.53 51.35 125.40 53.56 C 127.09 56.69 126.28 61.15 126.68 64.65 C 129.02 63.77 131.96 61.14 134.49 62.64 C 137.31 64.53 136.72 68.19 136.11 71.04 C 135.56 74.31 133.71 77.63 134.68 80.80 C 137.49 79.51 138.86 77.00 141.15 75.14 C 143.07 73.64 146.02 74.82 146.49 77.17 C 147.47 81.75 142.46 85.92 143.27 90.73 C 144.21 92.41 146.78 92.48 147.53 90.55 C 148.90 88.70 149.71 85.04 152.62 85.40 C 155.84 86.40 156.08 91.27 155.60 94.01 C 154.79 102.98 146.85 110.06 138.00 110.56 C 132.69 110.75 127.30 110.01 122.01 110.40 C 118.74 110.78 116.06 111.74 114.36 114.80 C 117.41 114.05 120.06 113.02 123.22 113.85 C 126.77 114.59 129.12 116.80 131.70 119.15 C 130.34 119.59 128.84 119.90 127.58 120.60 C 125.56 122.18 124.70 125.12 122.84 126.86 C 120.80 128.47 118.68 128.17 116.25 128.27 C 116.67 132.39 117.13 136.79 115.74 140.77 C 114.62 143.92 112.34 145.99 110.88 148.85 C 108.41 153.65 113.49 160.18 109.75 164.69 C 106.43 167.19 104.29 170.15 100.01 170.92 C 99.99 176.89 100.01 182.85 100.00 188.81 C 73.49 162.30 46.92 135.84 20.52 109.24 C 28.92 90.03 37.21 70.78 45.57 51.56 C 46.71 49.00 47.66 46.28 49.07 43.85 Z" fill="#000000"/>
<path d="M 100.00 43.73 C 117.00 43.74 134.00 43.71 151.00 43.74 C 160.52 65.55 169.96 87.44 179.47 109.26 C 153.06 135.85 126.48 162.29 100.00 188.81 C 100.01 182.85 99.99 176.89 100.01 170.92 C 104.29 170.15 106.43 167.19 109.75 164.69 C 113.49 160.18 108.41 153.65 110.88 148.85 C 112.34 145.99 114.62 143.92 115.74 140.77 C 117.13 136.79 116.67 132.39 116.25 128.27 C 118.68 128.17 120.80 128.47 122.84 126.86 C 124.70 125.12 125.56 122.18 127.58 120.60 C 128.84 119.90 130.34 119.59 131.70 119.15 C 129.12 116.80 126.77 114.59 123.22 113.85 C 120.06 113.02 117.41 114.05 114.36 114.80 C 116.06 111.74 118.74 110.78 122.01 110.40 C 127.30 110.01 132.69 110.75 138.00 110.56 C 146.85 110.06 154.79 102.98 155.60 94.01 C 156.08 91.27 155.84 86.40 152.62 85.40 C 149.71 85.04 148.90 88.70 147.53 90.55 C 146.78 92.48 144.21 92.41 143.27 90.73 C 142.46 85.92 147.47 81.75 146.49 77.17 C 146.02 74.82 143.07 73.64 141.15 75.14 C 138.86 77.00 137.49 79.51 134.68 80.80 C 133.71 77.63 135.56 74.31 136.11 71.04 C 136.72 68.19 137.31 64.53 134.49 62.64 C 131.96 61.14 129.02 63.77 126.68 64.65 C 126.28 61.15 127.09 56.69 125.40 53.56 C 123.53 51.35 120.19 52.70 118.60 54.59 C 115.12 58.42 115.36 64.17 115.19 69.00 C 115.37 77.28 117.07 87.91 113.26 95.55 C 112.38 93.57 112.01 90.07 109.58 89.42 C 107.99 88.75 106.67 89.43 105.95 90.92 C 104.12 95.63 104.91 104.00 100.09 106.84 C 99.88 85.81 100.06 64.76 100.00 43.73 Z" fill="#f8ef24"/>
<path d="M 75.84 53.22 C 81.40 55.64 83.34 61.30 83.32 67.00 C 83.10 75.26 81.94 83.72 82.38 92.03 C 82.68 96.25 84.75 99.35 86.44 103.07 C 85.74 104.54 84.59 105.06 82.99 104.64 C 77.45 103.40 72.49 98.94 67.87 96.17 C 66.01 95.16 63.50 95.29 62.62 97.50 C 61.83 99.73 63.98 102.41 64.82 104.37 C 59.96 105.82 55.92 103.85 52.07 101.03 C 54.84 104.35 58.62 106.43 63.03 106.14 C 64.37 105.78 66.63 105.18 65.59 103.33 C 64.77 100.97 61.31 98.13 65.00 96.54 C 67.97 95.96 70.68 99.42 73.09 100.84 C 76.51 102.96 80.79 106.46 84.98 106.13 C 88.19 103.75 87.98 99.57 88.42 95.99 C 88.80 93.44 88.22 90.92 90.91 89.51 C 92.59 88.96 93.48 90.79 93.97 92.07 C 95.44 96.28 95.44 100.99 96.58 105.22 C 97.34 107.72 100.10 109.16 102.29 107.29 C 105.99 103.25 105.22 96.29 107.14 92.15 C 107.95 90.22 109.75 91.14 110.33 92.67 C 111.71 96.39 111.22 101.05 111.95 104.93 C 112.56 106.79 114.46 106.76 116.02 106.26 C 121.02 103.50 124.69 98.46 129.45 95.41 C 132.33 93.94 133.57 93.89 136.25 95.89 C 134.85 97.94 133.16 99.70 131.47 101.50 C 130.58 102.40 130.91 104.30 132.38 104.60 C 136.45 105.69 139.98 104.42 143.47 102.40 C 139.86 103.58 136.73 104.17 132.91 103.82 C 133.09 100.95 135.43 100.05 136.70 97.70 C 136.84 96.35 136.95 95.15 135.75 94.23 C 134.03 93.43 131.88 93.51 130.11 94.12 C 124.13 96.41 119.90 103.40 113.68 104.83 C 112.23 100.17 115.00 97.37 115.80 93.01 C 118.14 83.93 116.24 73.31 116.71 63.98 C 116.94 61.09 117.72 57.84 119.52 55.50 C 120.90 54.12 123.28 53.40 124.49 55.41 C 125.56 58.86 124.53 63.12 125.91 66.34 C 128.72 66.80 131.99 62.33 134.45 64.55 C 136.33 67.62 134.16 71.98 133.42 75.18 C 132.96 77.11 131.97 80.65 134.29 81.74 C 136.93 81.96 139.14 78.54 141.06 77.07 C 142.51 75.60 143.86 76.45 145.60 76.70 C 145.72 81.17 142.92 83.95 141.76 87.96 C 141.01 90.86 142.71 93.94 145.90 93.92 C 149.61 92.92 148.92 87.86 152.94 86.82 C 153.59 88.90 154.41 90.80 154.19 93.02 C 153.83 97.76 150.68 102.14 147.33 105.33 C 144.03 108.56 139.39 108.99 135.01 109.20 C 129.48 109.38 122.30 107.87 117.10 110.07 C 113.72 111.71 113.01 114.66 112.49 118.10 C 114.96 116.91 117.14 115.37 119.99 115.44 C 122.96 115.30 125.42 116.31 127.90 117.81 C 125.31 119.82 124.06 122.61 122.08 125.09 C 119.74 127.17 117.34 126.81 114.61 125.81 C 115.37 130.04 115.81 134.72 114.94 138.96 C 113.65 142.96 110.25 145.82 108.68 149.80 C 108.08 149.54 107.47 149.28 106.87 149.02 C 107.66 152.93 109.27 157.06 109.17 161.06 C 108.95 163.21 107.42 163.77 105.90 164.96 C 105.29 163.59 104.69 162.21 104.09 160.84 C 104.26 162.86 104.85 165.09 104.42 167.08 C 103.23 169.92 100.14 168.72 97.98 167.96 C 96.57 166.71 97.50 163.75 97.52 162.05 C 96.84 163.33 96.14 164.60 95.42 165.86 C 94.20 164.70 92.22 163.80 91.97 162.00 C 91.30 157.64 93.45 152.69 94.09 148.34 C 93.38 149.30 92.67 150.26 91.96 151.23 C 90.67 145.77 86.48 142.71 84.29 137.84 C 83.34 134.28 84.46 129.94 85.23 126.42 C 83.11 127.33 81.46 128.28 79.34 126.66 C 75.83 123.59 74.80 119.34 70.07 117.51 C 72.89 115.32 75.32 114.02 79.04 114.30 C 82.94 114.16 85.19 116.37 87.71 118.95 C 86.96 116.17 86.62 113.67 84.06 111.91 C 77.98 107.77 70.81 109.05 64.01 109.23 C 55.65 109.18 47.08 104.29 45.60 95.53 C 45.30 92.75 44.94 88.24 47.22 86.14 C 50.01 85.51 50.69 89.14 52.24 90.77 C 53.58 92.78 55.36 92.50 57.48 92.65 C 58.13 90.14 58.30 88.16 57.31 85.70 C 56.74 83.47 54.84 80.46 56.38 78.37 C 59.23 76.99 60.99 79.47 63.33 80.63 C 64.45 81.29 66.19 81.01 66.51 79.56 C 67.39 75.95 64.89 71.69 64.57 68.01 C 64.52 66.09 63.70 63.67 66.08 62.91 C 68.36 62.49 69.49 64.31 71.19 65.48 C 76.46 62.88 71.55 56.99 75.84 53.22 Z" fill="#ed2329"/>
<path d="M 74.77 117.39 C 78.44 117.32 80.74 119.35 83.67 121.14 C 83.21 122.67 83.57 122.94 84.44 124.28 C 82.66 123.94 81.15 124.76 80.21 122.85 C 78.61 120.35 77.27 119.08 74.73 117.49 L 74.61 117.37 L 74.77 117.39 Z" fill="#000000"/>
<path d="M 122.26 117.97 C 119.07 120.26 117.83 124.78 113.68 124.31 C 114.47 123.46 115.27 122.62 116.08 121.79 L 112.59 121.58 C 115.78 119.53 118.51 118.55 122.26 117.97 Z" fill="#000000"/>
<path d="M 88.23 128.86 C 91.09 129.00 93.95 128.58 95.21 131.78 C 96.29 135.67 95.29 140.40 94.77 144.36 C 94.23 142.96 93.68 141.57 93.12 140.18 C 93.60 139.00 94.08 137.83 94.56 136.66 C 93.47 136.49 92.39 136.32 91.30 136.16 C 91.15 135.01 90.99 133.86 90.83 132.72 C 90.80 133.95 90.78 135.17 90.77 136.40 C 89.58 135.16 88.39 133.91 87.21 132.66 C 89.41 131.71 91.48 131.52 93.86 131.45 C 92.03 130.55 90.18 129.99 88.19 129.57 L 88.23 128.86 Z" fill="#000000"/>
<path d="M 112.48 130.64 C 110.19 130.77 107.90 130.92 105.63 131.22 C 107.75 131.85 109.89 132.44 112.02 133.06 C 109.60 135.94 108.51 136.79 104.64 137.32 C 105.55 140.07 105.25 141.33 104.40 144.02 C 103.64 141.12 102.86 137.98 102.89 134.98 C 103.03 132.80 103.48 130.67 105.57 129.58 C 107.75 128.42 110.40 129.86 112.48 130.64 Z" fill="#000000"/>
</svg>