<?xml version="1.0" encoding="UTF-8" standalone="no"?>
<svg xmlns:dc="http://purl.org/dc/elements/1.1/" xmlns:cc="http://creativecommons.org/ns#" xmlns:rdf="http://www.w3.org/1999/02/22-rdf-syntax-ns#" xmlns:svg="http://www.w3.org/2000/svg" xmlns="http://www.w3.org/2000/svg" xmlns:sodipodi="http://sodipodi.sourceforge.net/DTD/sodipodi-0.dtd" xmlns:inkscape="http://www.inkscape.org/namespaces/inkscape" sodipodi:docname="354.svg" xml:space="preserve" height="246.09093" width="197.98134" inkscape:version="1.0 (4035a4f, 2020-05-01)" version="1.1" id="svg2"><metadata id="metadata8"><rdf:RDF><cc:Work rdf:about=""><dc:format>image/svg+xml</dc:format><dc:type rdf:resource="http://purl.org/dc/dcmitype/StillImage"/><dc:title/></cc:Work></rdf:RDF></metadata><defs id="defs6"><clipPath id="clipPath92" clipPathUnits="userSpaceOnUse"><path inkscape:connector-curvature="0" id="path94" d="M 200.232,736.253 H 395.043 V 805.89 H 200.232 Z"/></clipPath><clipPath id="clipPath210" clipPathUnits="userSpaceOnUse"><path inkscape:connector-curvature="0" id="path212" d="m 230.984,789.567 h 0.233 v 1.427 h -0.233 z"/></clipPath><clipPath id="clipPath222" clipPathUnits="userSpaceOnUse"><path inkscape:connector-curvature="0" id="path224" d="M 200.232,736.253 H 395.043 V 805.89 H 200.232 Z"/></clipPath><clipPath id="clipPath540" clipPathUnits="userSpaceOnUse"><path inkscape:connector-curvature="0" id="path542" d="M 36,369.922 H 291.968 V 532.419 H 36 Z"/></clipPath><clipPath id="clipPath552" clipPathUnits="userSpaceOnUse"><path inkscape:connector-curvature="0" id="path554" d="M 303.307,369.922 H 559.275 V 532.419 H 303.307 Z"/></clipPath><clipPath id="clipPath564" clipPathUnits="userSpaceOnUse"><path inkscape:connector-curvature="0" id="path566" d="M 303.307,182.846 H 559.275 V 360.31 H 303.307 Z"/></clipPath><clipPath id="clipPath576" clipPathUnits="userSpaceOnUse"><path inkscape:connector-curvature="0" id="path578" d="M 221.926,28.921 H 373.35 V 64.724 H 221.926 Z"/></clipPath><clipPath id="clipPath676" clipPathUnits="userSpaceOnUse"><path inkscape:connector-curvature="0" id="path678" d="m 341.279,46.594 c 0,-8.928 7.174,-14.947 16.035,-14.947 v 0 c 8.853,0 16.036,6.019 16.036,14.947 v 0 c 0,8.92 -7.183,16.159 -16.036,16.159 v 0 c -8.861,0 -16.035,-7.239 -16.035,-16.159"/></clipPath><clipPath id="clipPath696" clipPathUnits="userSpaceOnUse"><path inkscape:connector-curvature="0" id="path698" d="M 221.926,28.921 H 373.35 V 64.724 H 221.926 Z"/></clipPath></defs><sodipodi:namedview inkscape:document-rotation="0" inkscape:current-layer="g10" inkscape:window-maximized="1" inkscape:window-y="-8" inkscape:window-x="-8" inkscape:cy="111.96753" inkscape:cx="186.05238" inkscape:zoom="2" fit-margin-bottom="0" fit-margin-right="0" fit-margin-left="0" fit-margin-top="0" showgrid="false" id="namedview4" inkscape:window-height="538" inkscape:window-width="1024" inkscape:pageshadow="2" inkscape:pageopacity="0" guidetolerance="10" gridtolerance="10" objecttolerance="10" borderopacity="1" bordercolor="#666666" pagecolor="#ffffff"/><g transform="matrix(1.25,0,0,-1.25,-185.9951,1086.9547)" inkscape:label="palace" inkscape:groupmode="layer" id="g10"><g transform="matrix(2.8531168,0,0,2.8531168,199.07567,713.66916)" id="g108"><path inkscape:connector-curvature="0" id="path110" style="fill:#ffffff;fill-opacity:1;fill-rule:nonzero;stroke:none" d="m 0,0 c 0,0 -7.722,3.873 -11.484,9.814 0.02,-5.105 -0.232,-11.473 -0.232,-11.473 L 0.103,-3.981 Z"/></g><g transform="matrix(2.8531168,0,0,2.8531168,257.29607,713.3693)" id="g112"><path inkscape:connector-curvature="0" id="path114" style="fill:#ffffff;fill-opacity:1;fill-rule:nonzero;stroke:none" d="M 0,0 C 0,0 7.722,3.568 11.484,9.508 11.464,4.404 11.717,-1.553 11.717,-1.553 L -0.103,-3.876 Z"/></g><path inkscape:connector-curvature="0" id="path116" style="fill:#ffffff;fill-opacity:1;fill-rule:nonzero;stroke:none;stroke-width:2.85311" d="m 257.53374,692.11213 h -58.60871 v 26.74794 h 58.60871 z"/><g transform="matrix(2.8531168,0,0,2.8531168,245.66735,716.8806)" id="g118"><path inkscape:connector-curvature="0" id="path120" style="fill:#ffffff;fill-opacity:1;fill-rule:nonzero;stroke:none" d="m 0,0 c 0,-3.322 -2.729,-6.018 -6.095,-6.018 -3.365,0 -6.094,2.696 -6.094,6.018 0,3.324 2.729,6.019 6.094,6.019 C -2.729,6.019 0,3.324 0,0"/></g><g transform="matrix(2.8531168,0,0,2.8531168,158.20963,707.91758)" id="g122"><path inkscape:connector-curvature="0" id="path124" style="fill:#ffffff;fill-opacity:1;fill-rule:nonzero;stroke:none" d="M 0,0 V 8.794 L -0.525,8.991 V 10.18 L 0,10.413 v 0.829 l -0.525,0.196 v 1.418 L 1.2,14.492 v 0.387 c 0,0 0.058,0.34 0.5,0.34 h 0.509 c 0,0 0.398,-0.058 0.398,-0.34 V 14.518 L 4.376,12.851 4.359,11.433 3.833,11.247 V 10.42 L 4.37,10.19 V 8.881 0.846 Z"/></g><g transform="matrix(2.8531168,0,0,2.8531168,298.74959,707.91758)" id="g126"><path inkscape:connector-curvature="0" id="path128" style="fill:#ffffff;fill-opacity:1;fill-rule:nonzero;stroke:none" d="M 0,0 V 8.794 L 0.525,8.991 V 10.18 L 0,10.413 v 0.829 l 0.525,0.196 v 1.418 L -1.2,14.492 v 0.387 c 0,0 -0.058,0.34 -0.5,0.34 h -0.51 c 0,0 -0.397,-0.058 -0.397,-0.34 v -0.361 l -1.769,-1.667 0.016,-1.418 0.526,-0.186 V 10.42 L -4.37,10.19 V 8.881 0.846 Z"/></g><g transform="matrix(2.8531168,0,0,2.8531168,226.75289,672.69098)" id="g130"><path inkscape:connector-curvature="0" id="path132" style="fill:#ffffff;fill-opacity:1;fill-rule:nonzero;stroke:none" d="m 0,0 c -4.271,0 -7.001,1.464 -9.877,3.007 -1.524,0.816 -3.099,1.661 -4.95,2.282 -5.236,1.758 -8.684,-0.396 -8.828,-0.489 l -0.698,1.076 c 0.164,0.107 4.083,2.593 9.934,0.629 1.953,-0.656 3.576,-1.527 5.147,-2.369 2.97,-1.592 5.771,-3.097 10.383,-2.82 4.314,0.259 7.279,1.725 10.146,3.143 1.222,0.605 2.377,1.176 3.601,1.636 0.079,0.03 0.173,0.067 0.281,0.109 1.534,0.607 6.205,2.449 10.238,-0.622 L 24.6,4.562 C 21.142,7.196 17.123,5.609 15.609,5.012 15.495,4.967 15.395,4.927 15.309,4.895 14.146,4.457 13.018,3.9 11.825,3.31 8.982,1.905 5.76,0.311 1.189,0.036 0.78,0.012 0.384,0 0,0"/></g><g transform="matrix(2.8531168,0,0,2.8531168,292.01969,679.30135)" id="g134"><path inkscape:connector-curvature="0" id="path136" style="fill:#ffffff;fill-opacity:1;fill-rule:nonzero;stroke:none" d="M 0,0 -0.907,0.584 C -1.11,0.715 -1.645,0.798 -2.188,0.711 -2.284,0.696 -2.385,0.673 -2.485,0.651 -2.94,0.55 -3.507,0.427 -3.947,0.78 c -0.18,0.145 -0.397,0.425 -0.397,0.939 -10e-4,0.391 0.168,0.739 0.475,0.978 1.002,0.779 3.461,0.235 4.191,0.05 0.485,-0.133 1.021,-0.128 1.126,-0.032 0.249,2.768 1.374,4.77 2.007,5.7 -4.546,2.748 -11.503,1.255 -14.111,-0.41 -3.887,-2.483 -7.128,-4.023 -11.267,-4.041 -3.527,-0.003 -6.52,1.45 -9.679,2.996 -1.769,0.866 -3.597,1.761 -5.607,2.436 -4.226,1.419 -9.033,-0.178 -10.859,-0.907 0.679,-0.934 1.714,-2.767 1.826,-5.391 0.099,-0.122 0.632,-0.153 1.111,-0.047 0.751,0.153 3.233,0.578 4.196,-0.248 0.295,-0.254 0.448,-0.608 0.429,-0.998 -0.025,-0.513 -0.254,-0.784 -0.442,-0.92 -0.456,-0.332 -1.016,-0.181 -1.467,-0.058 -0.1,0.026 -0.198,0.053 -0.292,0.072 -0.539,0.114 -1.077,0.057 -1.287,-0.065 l -0.932,-0.538 -0.036,1.484 c -0.368,-0.071 -1.411,-0.215 -2.055,0.277 -0.311,0.238 -0.485,0.579 -0.502,0.987 -0.144,3.355 -2.012,5.218 -2.031,5.236 l -0.649,0.634 0.816,0.398 c 0.273,0.133 6.773,3.245 12.58,1.296 2.09,-0.702 3.958,-1.617 5.762,-2.501 3.009,-1.473 5.851,-2.864 9.07,-2.864 h 0.043 c 3.83,0.016 6.89,1.48 10.584,3.84 3.054,1.948 11.042,3.62 16.087,0.014 L 5.314,8.688 4.855,8.158 C 4.837,8.138 3.025,5.993 2.719,2.623 2.683,2.216 2.493,1.883 2.171,1.661 1.511,1.205 0.488,1.391 0.105,1.483 Z"/></g><g transform="matrix(2.8531168,0,0,2.8531168,175.0205,687.29238)" id="g138"><path inkscape:connector-curvature="0" id="path140" style="fill:#ffffff;fill-opacity:1;fill-rule:nonzero;stroke:none" d="M 0,0 C 0,0 -0.638,0.64 -0.904,1.11 -1.429,2.041 -5.536,0.204 -5.536,0.204 l 1.12,-0.241"/></g><g transform="matrix(2.8531168,0,0,2.8531168,280.55154,686.59448)" id="g142"><path inkscape:connector-curvature="0" id="path144" style="fill:#ffffff;fill-opacity:1;fill-rule:nonzero;stroke:none" d="m 0,0 c 0,0 0.653,0.625 0.929,1.088 0.55,0.918 4.61,-1.015 4.61,-1.015 L 4.414,-0.142"/></g><g transform="matrix(2.8531168,0,0,2.8531168,157.86297,687.18793)" id="g146"><path inkscape:connector-curvature="0" id="path148" style="fill:#ffffff;fill-opacity:1;fill-rule:nonzero;stroke:none" d="m 0,0 c 0,0 -0.089,2.526 -0.655,3.646 -0.567,1.121 -0.794,2.249 -0.794,2.249 0,0 3.443,1.733 5.687,1.775 2.243,0.042 7.827,-0.928 9.566,-1.887 1.74,-0.96 6.429,-3.532 8.861,-4.057 2.433,-0.525 6.451,0.1 8.964,1.134 2.513,1.034 4.194,2.815 5.212,3.267 1.018,0.452 4.303,1.64 6.512,1.838 2.209,0.2 4.869,-0.705 6.368,-0.988 1.499,-0.283 1.278,-0.85 1.278,-0.85 L 49.196,0.389 c 0,0 -2.883,0.98 -4.816,1.036 -1.933,0.057 -5.221,-1.397 -6.24,-1.774 -1.017,-0.378 -5.496,-2.247 -6.938,-2.814 -1.442,-0.566 -6.313,-1.868 -9.089,-1.246 -2.775,0.623 -8.167,3.36 -9.577,4.06 C 11.125,0.35 6.024,2.031 5.348,1.71 4.672,1.39 0,0 0,0"/></g><g transform="matrix(2.8531168,0,0,2.8531168,238.16194,747.87544)" id="g150"><path inkscape:connector-curvature="0" id="path152" style="fill:#ffffff;fill-opacity:1;fill-rule:nonzero;stroke:none" d="m 0,0 c 0.011,-0.007 0.023,-0.011 0.033,-0.016 l -0.17,-0.028 z m 19.94,33.48 c -0.102,0.312 -0.633,0.553 -2.784,0.553 -0.838,0 -1.619,-0.034 -1.627,-0.034 -0.034,-0.001 -0.066,-0.008 -0.098,-0.017 -1.331,-0.097 -2.602,-0.404 -3.75,-0.903 1.523,1.837 3.895,2.985 5.329,3.551 0.074,0.03 0.286,0.127 0.331,0.196 0.069,0.11 0.187,0.21 0.09,0.389 -0.167,0.305 -0.819,0.384 -1.255,0.384 -0.468,0 -1.133,-0.064 -1.965,-0.189 C 13.815,37.365 13.424,37.301 13.05,37.219 13.033,37.216 13.016,37.212 13,37.206 11.348,36.835 9.785,36.095 8.48,35.066 8.297,34.921 8.121,34.771 7.948,34.618 l 1.051,1.789 c 0.569,0.929 1.184,1.788 1.834,2.552 0.044,0.051 0.073,0.113 0.086,0.178 0.026,0.13 0.174,0.334 0.09,0.437 -0.054,0.064 -0.174,0.172 -0.388,0.172 -0.19,0 -0.818,-0.064 -3.227,-1.894 -2.267,-1.584 -4.21,-3.636 -5.628,-5.945 -0.569,-1.02 -1.564,-2.913 -1.895,-4.246 -0.019,0.135 -0.038,0.269 -0.052,0.399 -0.06,0.535 -0.092,1.09 -0.101,1.748 -0.011,0.787 0.024,1.492 0.056,1.944 0.014,0.19 -0.022,0.638 -0.206,0.682 -0.185,0.046 -0.466,-0.323 -0.541,-0.498 -1.178,-2.697 -1.488,-4.94 -1.552,-6.278 l -0.431,-3.935 c -0.049,-0.272 -0.254,-1.586 -0.254,-1.586 -0.327,0.569 -0.557,0.991 -0.807,1.608 -0.009,0.021 -0.019,0.04 -0.031,0.06 l -0.371,0.593 c -0.009,0.016 -0.02,0.032 -0.032,0.045 -0.562,0.668 -1.13,1.013 -1.787,1.41 -0.923,0.56 -2.071,1.255 -3.777,3.229 -0.941,1.09 -2.032,3.291 -2.384,4.806 -0.698,3.001 -0.633,6.589 0.169,9.812 0.073,0.215 0.124,0.608 0.028,0.742 -0.073,0.102 -0.21,0.172 -0.337,0.172 -0.251,0 -0.478,-0.221 -2.052,-2.722 -0.004,-0.007 -0.008,-0.013 -0.012,-0.02 -1.033,-1.646 -1.763,-3.528 -2.108,-5.448 -0.077,-0.418 -0.134,-0.835 -0.174,-1.249 -0.365,0.908 -0.667,1.848 -0.903,2.807 -0.504,2.055 -0.671,4.141 -0.481,6.03 0.012,0.118 0.038,0.433 -0.046,0.517 -0.081,0.077 -0.193,0.122 -0.31,0.122 -0.347,0 -0.88,-0.447 -1.989,-3.41 -1.055,-2.82 -1.395,-5.405 -1.065,-8.232 -1.198,1.559 -1.738,3.753 -2.224,5.728 -0.121,0.49 -0.239,0.971 -0.364,1.431 -0.062,0.231 -0.229,0.79 -0.439,0.684 -0.015,-0.006 -0.029,-0.015 -0.043,-0.025 -0.001,-10e-4 -0.003,-0.002 -0.005,-0.003 -0.008,-0.005 -0.015,-0.011 -0.022,-0.018 -0.01,-0.008 -0.02,-0.015 -0.028,-0.023 -0.043,-0.041 -0.195,-0.529 -0.221,-0.582 -0.067,-0.126 -0.111,-0.31 -0.137,-0.578 -0.001,-0.013 -0.002,-0.025 -0.002,-0.038 0,-0.092 -0.006,-0.184 -0.011,-0.276 -0.006,-0.102 -0.013,-0.203 -0.013,-0.305 -0.143,-1.482 -0.256,-5.316 1.712,-9.323 l 0.045,-0.104 c 0.026,-0.06 0.053,-0.121 0.08,-0.182 0.214,-0.451 0.456,-0.866 0.688,-1.265 0.077,-0.132 0.152,-0.262 0.226,-0.392 0.272,-0.477 0.51,-0.768 0.755,-1.045 -1.111,0.227 -2.753,0.554 -3.545,0.673 -0.183,0.024 -0.357,-0.076 -0.423,-0.247 -0.065,-0.172 -0.003,-0.366 0.152,-0.466 0.661,-0.434 1.867,-1.521 3.133,-2.699 l -0.018,-0.005 2.246,-2.089 0.205,-0.192 c 0.733,-0.69 1.494,-1.403 2.221,-2.064 l -1.54,0.153 c -0.17,0.02 -0.335,-0.08 -0.4,-0.24 -0.066,-0.16 -0.019,-0.344 0.116,-0.453 l 3.584,-2.901 -0.003,-10e-4 1.568,-1.248 c 0.011,-0.011 0.02,-0.025 0.033,-0.035 l 2.691,-2.165 c 0.066,-0.053 0.149,-0.083 0.234,-0.086 l 0.69,-0.018 c -1.461,-0.607 -2.797,-0.627 -4.361,-0.103 -1.205,0.404 -2.359,1.033 -3.336,1.82 -0.139,0.112 -0.494,0.32 -0.637,0.214 -0.143,-0.107 -0.037,-0.501 0.03,-0.667 0.305,-0.747 0.867,-1.405 1.435,-1.997 -1.854,0.245 -3.546,0.756 -5.473,1.638 -0.159,0.073 -0.449,0.261 -0.563,0.13 -0.113,-0.132 -0.022,-0.55 0.072,-0.697 0.872,-1.353 1.571,-2.281 2.265,-3.004 0.73,-0.759 1.693,-1.536 2.167,-1.82 0.09,-0.056 0.333,-0.2 1.487,-0.2 0.436,0 0.921,0.022 1.328,0.061 0.051,0.005 0.101,0.01 0.149,0.014 -1.151,-0.407 -2.213,-0.558 -3.128,-0.443 -0.198,0.029 -0.649,0.009 -0.696,-0.184 -0.046,-0.195 0.327,-0.505 0.515,-0.572 1.373,-0.49 2.716,-0.825 4.002,-0.994 0.423,-0.119 1.628,-0.434 2.926,-0.548 0.088,-0.008 0.17,-0.008 0.249,-0.006 0.107,-0.011 0.214,-0.019 0.317,-0.03 0.498,-0.045 0.969,-0.09 1.471,-0.09 0.413,0 0.821,0.031 1.245,0.097 0.004,-0.051 0.017,-0.101 0.041,-0.148 L -9.007,2.637 C -9.089,2.623 -9.169,2.583 -9.228,2.518 -9.342,2.396 -9.366,2.214 -9.287,2.067 L -8.8,1.157 C -8.789,1.136 -8.776,1.115 -8.761,1.097 -8.757,1.094 -8.746,1.079 -8.725,1.054 -8.746,1.045 -8.766,1.032 -8.786,1.019 -8.918,0.927 -8.979,0.761 -8.94,0.605 c 0.252,-1.014 0.742,-1.37 1.101,-1.631 0.245,-0.177 0.393,-0.284 0.47,-0.562 0.052,-0.184 0.136,-0.39 0.224,-0.611 0.186,-0.464 0.466,-1.165 0.291,-1.443 C -7.089,-4.017 -7.25,-4.125 -7.519,-4.303 -7.686,-4.415 -7.894,-4.555 -8.148,-4.782 -8.757,-5.33 -8.8,-6.057 -8.274,-6.945 l 0.032,-0.052 c 0.08,-0.141 0.241,-0.216 0.402,-0.191 0.161,0.027 0.288,0.15 0.32,0.311 0.122,0.626 1.151,1.122 1.352,1.135 0.354,0.024 0.689,0.047 0.919,0.277 0.375,0.374 2.408,0.397 2.408,0.397 0,0 0.238,-0.008 0.613,-0.085 0.072,-0.036 0.146,-0.068 0.212,-0.11 0.065,-0.042 0.134,-0.064 0.211,-0.059 0.044,0 0.726,-0.275 0.782,-0.34 0.101,-0.119 1.254,-0.757 1.388,-0.829 0.078,-0.041 0.749,-0.936 0.846,-0.936 0.156,-0.23 0.215,-0.166 0.219,0.069 0.437,0.258 0.83,0.833 0.981,1.446 0.151,0.611 0.06,1.192 -0.26,1.681 -0.018,0.028 -0.039,0.053 -0.064,0.075 -0.068,0.062 -0.245,0.203 -0.453,0.367 -0.284,0.223 -0.758,0.596 -0.854,0.706 -0.288,0.329 -0.428,0.687 -0.567,1.094 0.11,0.007 0.213,0.06 0.283,0.148 0.073,0.092 0.1,0.215 0.074,0.33 l -0.052,0.225 c -0.08,0.344 -0.171,0.733 -0.244,1.16 l -0.005,0.022 c 0.017,-0.002 0.033,-0.003 0.049,-0.003 0.001,0 0.003,0.001 0.006,0 0.216,0 0.391,0.175 0.391,0.391 0,0.073 -0.02,0.141 -0.054,0.199 L 0.229,1.652 C 0.269,1.607 0.298,1.574 0.311,1.56 0.418,1.448 0.676,1.257 0.823,1.31 c 0.145,0.05 0.15,0.334 0.162,0.488 0.061,0.78 0.657,1.57 1.3,2.033 0.036,-0.106 0.071,-0.177 0.08,-0.194 0.067,-0.131 0.073,-0.416 0.22,-0.416 0.002,0 0.005,0 0.008,10e-4 0.148,0.002 0.26,0.208 0.473,0.428 0.269,0.28 0.495,0.522 0.778,0.605 L 5.193,3.712 C 5.273,3.471 5.44,3.079 5.734,2.841 5.987,2.637 6.233,2.482 6.679,2.199 6.726,2.169 6.776,2.138 6.829,2.104 6.788,2.084 6.744,2.064 6.693,2.046 6.539,1.991 6.096,1.845 6.095,1.681 6.095,1.518 6.535,1.37 6.689,1.313 6.988,1.201 7.318,1.141 7.641,1.141 c 0.664,0 1.245,0.238 1.596,0.651 0.289,0.341 0.4,0.773 0.321,1.247 C 9.499,3.394 9.359,4.27 9.314,4.552 L 9.679,5.747 C 9.69,5.784 9.696,5.824 9.696,5.863 9.693,6.429 9.531,7.061 9.216,7.742 L 9.201,7.787 C 9.187,7.834 9.163,7.876 9.134,7.912 9.117,7.948 9.1,7.979 9.085,8.008 9,8.194 8.896,8.38 8.763,8.584 7.796,10.178 6.42,11.477 6.362,11.532 6.245,11.641 6.015,11.832 5.87,11.765 5.725,11.697 5.695,11.384 5.704,11.224 l 0.005,-0.085 c -0.094,0.224 -0.454,0.599 -0.534,0.719 -0.174,0.26 -0.303,0.526 -0.35,0.717 1.161,5.371 4.714,8.947 4.749,8.983 0.064,0.064 0.105,0.148 0.113,0.239 0.77,7.685 9.547,11.068 9.636,11.101 0.033,0.012 0.26,0.083 0.288,0.103 0.305,0.225 0.354,0.402 0.329,0.479"/></g><g transform="matrix(2.8531168,0,0,2.8531168,226.76974,673.88104)" id="g154"><path inkscape:connector-curvature="0" id="path156" style="fill:#292d6b;fill-opacity:1;fill-rule:nonzero;stroke:none" d="m 0,0 c -4.187,0 -6.877,1.443 -9.712,2.963 -1.538,0.824 -3.126,1.675 -5.007,2.307 -5.436,1.826 -9.105,-0.505 -9.142,-0.528 l -0.299,0.459 c 0.158,0.102 3.929,2.497 9.616,0.588 1.924,-0.646 3.533,-1.509 5.091,-2.343 3.017,-1.618 5.866,-3.147 10.579,-2.864 4.387,0.264 7.385,1.746 10.285,3.181 1.214,0.601 2.361,1.168 3.569,1.622 0.081,0.031 0.177,0.068 0.286,0.111 1.645,0.649 6.013,2.371 9.88,-0.573 L 24.814,4.487 C 21.193,7.245 17.033,5.605 15.467,4.986 15.355,4.943 15.256,4.903 15.172,4.872 13.991,4.428 12.855,3.867 11.654,3.271 8.843,1.881 5.657,0.306 1.159,0.036 0.76,0.012 0.374,0 0,0"/></g><g transform="matrix(2.8531168,0,0,2.8531168,225.14603,686.20703)" id="g158"><path inkscape:connector-curvature="0" id="path160" style="fill:#1b458f;fill-opacity:1;fill-rule:nonzero;stroke:none" d="m 0,0 -0.124,0.004 -0.03,-0.912 0.113,-0.004 c 0.335,-0.01 0.522,0.131 0.533,0.451 C 0.503,-0.165 0.334,-0.011 0,0"/></g><g transform="matrix(2.8531168,0,0,2.8531168,233.02037,682.75877)" id="g162"><path inkscape:connector-curvature="0" id="path164" style="fill:#1b458f;fill-opacity:1;fill-rule:nonzero;stroke:none" d="M 0,0 0.621,0.085 0.172,1.108 Z"/></g><g transform="matrix(2.8531168,0,0,2.8531168,206.90603,687.3811)" id="g166"><path inkscape:connector-curvature="0" id="path168" style="fill:#1b458f;fill-opacity:1;fill-rule:nonzero;stroke:none" d="M 0,0 0.21,1.097 -0.559,0.281 Z"/></g><g transform="matrix(2.8531168,0,0,2.8531168,175.11891,703.16914)" id="g170"><path inkscape:connector-curvature="0" id="path172" style="fill:#1b458f;fill-opacity:1;fill-rule:nonzero;stroke:none" d="m 0,0 -0.202,0.012 -0.055,-0.91 0.207,-0.013 C 0.275,-0.93 0.462,-0.773 0.48,-0.473 0.497,-0.188 0.325,-0.019 0,0"/></g><g transform="matrix(2.8531168,0,0,2.8531168,250.21179,687.64075)" id="g174"><path inkscape:connector-curvature="0" id="path176" style="fill:#1b458f;fill-opacity:1;fill-rule:nonzero;stroke:none" d="M 0,0 0.571,0.258 -0.15,1.112 Z"/></g><g transform="matrix(2.8531168,0,0,2.8531168,293.03938,694.33871)" id="g178"><path inkscape:connector-curvature="0" id="path180" style="fill:#1b458f;fill-opacity:1;fill-rule:nonzero;stroke:none" d="m 0,0 c -0.264,-0.021 -0.494,0.175 -0.517,0.438 -0.021,0.264 0.175,0.495 0.44,0.517 C 0.186,0.977 0.417,0.78 0.438,0.517 0.461,0.253 0.263,0.022 0,0 M -0.75,2.708 C -0.916,2.87 -1.115,3 -1.38,3.029 -1.845,3.079 -2.186,2.764 -2.248,2.186 -2.312,1.597 -2.02,1.224 -1.55,1.173 -1.314,1.148 -1.095,1.208 -0.84,1.319 L -0.8,0.492 C -1.089,0.385 -1.388,0.328 -1.785,0.371 c -1.034,0.112 -1.58,0.84 -1.464,1.918 0.113,1.048 0.841,1.679 1.89,1.565 0.343,-0.037 0.615,-0.136 0.841,-0.284 z M -3.921,0.479 C -4.184,0.458 -4.415,0.654 -4.437,0.917 -4.458,1.181 -4.263,1.412 -3.998,1.434 -3.735,1.455 -3.504,1.259 -3.482,0.995 -3.461,0.732 -3.656,0.5 -3.921,0.479 M -5.332,0.263 -6.311,0.058 -7.01,3.385 -4.907,3.826 -4.736,3.016 -5.86,2.781 -5.748,2.245 -4.938,2.414 -4.634,1.638 -5.579,1.44 Z m -4.37,-1.531 -1.285,3.148 2.076,0.847 0.3,-0.734 -1.164,-0.474 0.184,-0.452 0.881,0.358 0.41,-0.678 -0.995,-0.406 0.206,-0.502 1.204,0.491 0.3,-0.734 z m -1.211,-0.651 c -0.935,-0.456 -1.785,-0.129 -2.259,0.846 -0.462,0.949 -0.181,1.871 0.768,2.331 0.31,0.151 0.593,0.212 0.864,0.207 l 0.261,-0.853 c -0.226,0.048 -0.464,0.053 -0.702,-0.064 -0.422,-0.205 -0.543,-0.654 -0.289,-1.177 0.258,-0.532 0.705,-0.692 1.13,-0.485 0.213,0.103 0.367,0.271 0.524,0.501 l 0.473,-0.68 c -0.188,-0.245 -0.41,-0.452 -0.77,-0.626 m -2.577,-1.245 -0.429,0.472 -0.975,-0.441 0.082,-0.589 -0.889,-0.402 -0.336,3.595 1.028,0.465 2.383,-2.536 z m -4.628,-1.719 -1.004,3.248 0.965,0.299 0.752,-2.429 0.918,0.284 0.385,-0.779 z m -1.692,-0.391 -0.277,0.574 -1.06,-0.146 -0.088,-0.589 -0.968,-0.133 0.7,3.545 1.118,0.153 1.565,-3.11 z m -3.998,0.777 -0.158,0.005 -0.034,-1.02 -1.004,0.034 0.114,3.4 1.177,-0.039 c 0.877,-0.03 1.402,-0.428 1.375,-1.212 -0.027,-0.802 -0.613,-1.197 -1.47,-1.168 m -3.098,-0.647 -2.005,0.649 1.044,3.233 0.961,-0.31 -0.782,-2.419 0.915,-0.295 z m -2.538,0.973 -0.982,0.318 0.096,0.63 -0.955,0.481 -0.407,-0.436 -0.872,0.439 2.582,2.523 1.009,-0.507 z m -4.603,2.253 1.189,2.27 -0.808,0.424 0.39,0.741 2.423,-1.269 -0.267,-0.806 -0.843,0.441 -1.189,-2.27 z m -1.042,2.888 c 0.61,-0.539 0.798,-0.915 0.579,-1.426 -0.316,-0.738 -0.975,-0.788 -1.609,-0.516 -0.458,0.196 -0.789,0.45 -1.08,0.756 l 0.46,0.699 c 0.289,-0.338 0.624,-0.621 0.936,-0.755 0.181,-0.078 0.325,-0.064 0.384,0.071 0.056,0.131 0.007,0.227 -0.355,0.56 -0.542,0.499 -0.742,0.832 -0.507,1.38 0.275,0.642 0.915,0.748 1.531,0.484 0.453,-0.193 0.695,-0.389 0.942,-0.666 l -0.458,-0.692 c -0.25,0.315 -0.533,0.544 -0.769,0.645 -0.185,0.079 -0.303,0.055 -0.349,-0.054 -0.053,-0.122 -0.008,-0.216 0.295,-0.486 m -3.071,-1.131 -0.974,0.265 0.312,1.15 -0.569,2.34 1.071,-0.152 0.276,-1.428 0.937,1.063 1.013,-0.276 -1.748,-1.792 z m -2.747,0.524 -0.559,1.125 -0.153,0.009 -0.063,-1.052 -0.999,0.06 0.204,3.395 1.299,-0.078 c 0.876,-0.053 1.354,-0.472 1.311,-1.2 -0.028,-0.458 -0.254,-0.77 -0.65,-0.944 l 0.683,-1.216 z m -3.14,-0.103 c -1.022,-0.195 -1.756,0.342 -1.959,1.408 -0.198,1.036 0.314,1.852 1.351,2.05 0.339,0.064 0.627,0.049 0.888,-0.027 l 0.03,-0.893 c -0.206,0.106 -0.435,0.173 -0.697,0.124 -0.46,-0.089 -0.695,-0.49 -0.586,-1.061 0.111,-0.581 0.5,-0.854 0.965,-0.765 0.232,0.044 0.425,0.166 0.636,0.347 l 0.28,-0.78 C -43.385,0.475 -43.655,0.334 -44.047,0.26 m 32.69,3.013 c -3.851,-2.458 -6.985,-3.924 -10.926,-3.94 -5.328,-0.02 -9.457,3.51 -15.08,5.399 -5.625,1.888 -12.097,-1.265 -12.097,-1.265 0,0 2.066,-2.018 2.222,-5.667 0,0 3.754,2.448 9.379,0.56 5.624,-1.889 8.538,-5.657 15.774,-5.221 6.302,0.378 9.886,3.296 13.934,4.819 1.256,0.472 5.886,2.625 9.891,-0.414 C 2.105,1.1 4.015,3.306 4.015,3.306 -0.778,6.731 -8.528,5.079 -11.357,3.273"/></g><g transform="matrix(2.8531168,0,0,2.8531168,168.45144,684.62384)" id="g182"><path inkscape:connector-curvature="0" id="path184" style="fill:#c4122e;fill-opacity:1;fill-rule:nonzero;stroke:none" d="M 0,0 C 0.284,0 0.56,-0.033 0.788,-0.08 0.898,-0.104 1.015,-0.135 1.131,-0.166 1.382,-0.233 1.724,-0.328 1.83,-0.25 1.869,-0.221 1.895,-0.136 1.901,-0.018 1.906,0.096 1.871,0.179 1.786,0.251 1.399,0.584 0.236,0.563 -0.76,0.442 L -0.747,-0.09 C -0.512,-0.025 -0.253,0 0,0 m 41.041,0.333 c -0.458,0 -0.845,-0.059 -1.044,-0.215 -0.088,-0.068 -0.128,-0.15 -0.128,-0.264 10e-4,-0.119 0.023,-0.205 0.061,-0.235 0.101,-0.082 0.448,-0.007 0.7,0.05 0.118,0.025 0.236,0.051 0.349,0.069 0.433,0.07 1.04,0.077 1.532,-0.083 l 0.037,0.531 c -0.498,0.086 -1.04,0.147 -1.507,0.147 m 1.941,-1.543 -0.377,0.243 c -0.309,0.199 -0.958,0.275 -1.543,0.181 -0.102,-0.016 -0.209,-0.041 -0.317,-0.064 -0.418,-0.091 -0.848,-0.186 -1.148,0.054 -0.171,0.138 -0.257,0.356 -0.257,0.65 -0.001,0.277 0.113,0.513 0.331,0.682 0.907,0.708 3.568,0.059 3.869,-0.017 0.263,-0.073 1.078,-0.222 1.427,0.021 0.098,0.067 0.149,0.162 0.162,0.299 0.278,3.057 1.662,5.144 2.168,5.815 C 42.682,9.732 35.333,8.209 32.447,6.451 29.161,4.447 25.598,2.491 21.385,2.473 H 21.337 C 17.91,2.473 14.977,3.91 11.872,5.43 10.093,6.302 8.253,7.202 6.22,7.885 1.466,9.48 -3.982,7.372 -5.352,6.78 -4.778,6.095 -3.433,4.188 -3.305,1.217 -3.3,1.08 -3.252,0.983 -3.158,0.911 -2.818,0.652 -2,0.762 -1.739,0.821 -1.431,0.884 1.257,1.405 2.131,0.654 2.341,0.475 2.444,0.234 2.431,-0.043 2.416,-0.336 2.319,-0.55 2.143,-0.678 1.831,-0.906 1.405,-0.79 0.992,-0.678 0.886,-0.65 0.78,-0.621 0.68,-0.6 0.099,-0.478 -0.552,-0.523 -0.871,-0.706 l -0.387,-0.225 -0.03,1.296 C -1.408,0.345 -1.522,0.324 -1.628,0.302 -1.749,0.275 -2.883,0.033 -3.479,0.488 -3.7,0.657 -3.823,0.9 -3.835,1.194 -3.986,4.696 -5.959,6.662 -5.979,6.682 L -6.248,6.946 -5.91,7.11 C -5.642,7.242 0.725,10.289 6.389,8.389 8.455,7.694 10.31,6.785 12.105,5.907 15.153,4.414 18.033,3.004 21.338,3.004 h 0.045 c 3.678,0.015 6.856,1.504 10.789,3.9 3.04,1.854 10.876,3.446 15.664,0.023 L 48.072,6.757 47.881,6.538 C 47.864,6.515 45.975,4.292 45.658,0.79 45.63,0.498 45.497,0.261 45.268,0.104 44.651,-0.323 43.529,-0.028 43.403,0.007 43.301,0.032 43.19,0.059 43.073,0.084 Z"/></g><g transform="matrix(2.8531168,0,0,2.8531168,226.77772,673.76401)" id="g186"><path inkscape:connector-curvature="0" id="path188" style="fill:#c4122e;fill-opacity:1;fill-rule:nonzero;stroke:none" d="m 0,0 c -4.186,0 -6.875,1.442 -9.709,2.962 -1.537,0.824 -3.128,1.676 -5.008,2.308 -5.424,1.821 -9.114,-0.506 -9.15,-0.53 l -0.289,0.444 c 0.157,0.104 3.929,2.496 9.608,0.588 1.924,-0.646 3.533,-1.509 5.09,-2.343 3.018,-1.618 5.868,-3.146 10.584,-2.864 4.388,0.263 7.388,1.747 10.289,3.181 1.213,0.601 2.36,1.168 3.567,1.621 0.081,0.031 0.177,0.069 0.286,0.112 1.644,0.648 6.009,2.371 9.872,-0.573 L 24.819,4.485 c -3.627,2.761 -7.79,1.118 -9.356,0.5 C 15.35,4.942 15.252,4.902 15.169,4.87 13.987,4.427 12.851,3.865 11.65,3.271 8.839,1.88 5.653,0.305 1.157,0.035 0.759,0.011 0.373,0 0,0"/></g><g transform="matrix(2.8531168,0,0,2.8531168,173.82103,685.1046)" id="g190"><path inkscape:connector-curvature="0" id="path192" style="fill:#c4122e;fill-opacity:1;fill-rule:nonzero;stroke:none" d="m 0,0 c -1.272,1.04 -1.765,2.049 -1.786,2.093 l 0.477,0.23 C -1.303,2.312 -0.839,1.371 0.336,0.41 Z"/></g><g transform="matrix(2.8531168,0,0,2.8531168,282.38214,684.7902)" id="g194"><path inkscape:connector-curvature="0" id="path196" style="fill:#c4122e;fill-opacity:1;fill-rule:nonzero;stroke:none" d="M 0,0 -0.312,0.429 C 1.057,1.424 1.22,2.484 1.221,2.495 L 1.747,2.421 C 1.739,2.369 1.549,1.126 0,0"/></g><g transform="matrix(2.8531168,0,0,2.8531168,245.28759,764.88145)" id="g198"><path inkscape:connector-curvature="0" id="path200" style="fill:#27409b;fill-opacity:1;fill-rule:nonzero;stroke:none" d="M 0,0 C 0.041,-0.04 0.078,-0.077 0.112,-0.108 0.112,-0.108 0.095,-0.062 0,0"/></g><g transform="matrix(2.8531168,0,0,2.8531168,237.199,823.73867)" id="g202"><path inkscape:connector-curvature="0" id="path204" style="fill:#27409b;fill-opacity:1;fill-rule:nonzero;stroke:none" d="M 0,0 C -0.082,0.393 -0.168,0.882 -0.233,1.427 -0.182,0.976 -0.108,0.505 0,0"/></g><g transform="matrix(2.8531168,0,0,2.8531168,-422.48948,-1428.989)" id="g206"><g clip-path="url(#clipPath210)" id="g208"><g transform="translate(231.2168,789.5673)" id="g214"><path inkscape:connector-curvature="0" id="path216" style="fill:#ffffff;fill-opacity:1;fill-rule:nonzero;stroke:none" d="M 0,0 C -0.082,0.393 -0.168,0.882 -0.233,1.427 -0.182,0.976 -0.108,0.505 0,0"/></g></g></g><g transform="matrix(2.8531168,0,0,2.8531168,-422.48948,-1428.989)" id="g218"><g clip-path="url(#clipPath222)" id="g220"><g transform="translate(235.0491,775.171)" id="g226"><path inkscape:connector-curvature="0" id="path228" style="fill:#f4f4f4;fill-opacity:1;fill-rule:nonzero;stroke:none" d="M 0,0 C 0.001,0.086 0,0 0,0"/></g><g transform="translate(240.2915,765.3142)" id="g230"><path inkscape:connector-curvature="0" id="path232" style="fill:#1b458f;fill-opacity:1;fill-rule:nonzero;stroke:none" d="m 0,0 c -0.143,-0.181 -0.371,-0.34 -0.614,-0.446 -0.268,-0.118 -0.555,-0.172 -0.771,-0.118 0.005,0.002 0.01,0.005 0.016,0.008 0.023,0.011 0.043,0.022 0.064,0.034 0.015,0.009 0.033,0.017 0.048,0.026 0.544,0.337 0.25,0.972 -0.315,1.62 l -0.01,0.002 -1.294,1.125 -0.069,0.061 -0.02,0.017 0.013,0.004 0.04,0.013 0.01,0.002 0.048,0.016 L -2.659,2.255 -2,1.883 -1.951,1.857 -1.659,1.692 -1.342,1.513 c 0.001,0 0.002,0.001 0.003,0.001 0.002,10e-4 0.004,10e-4 0.007,0.002 0.297,0.069 0.631,0.152 0.681,0.166 0.222,0.058 0.347,0.121 0.415,0.173 C -0.231,1.809 0.328,0.417 0,0 M -1.453,0.276 -1.921,0.657 -2.257,0.93 -2.341,1.189 -2.362,1.257 -2.479,1.611 -2.481,1.622 c 0.377,-0.223 0.675,-0.625 0.87,-0.946 0.041,-0.069 0.25,-0.475 0.25,-0.475 z m -2.438,3.199 -0.599,1.078 -1.53,0.771 1.25,-1.45 c -0.658,0.376 -1.78,0.973 -2.996,1.199 0,0 1.034,-0.966 1.527,-1.449 0.094,-0.061 0.111,-0.109 0.111,-0.109 -0.033,0.032 -0.071,0.069 -0.111,0.109 -0.146,0.094 -0.476,0.22 -1.232,0.263 -0.701,0.071 -1.532,0.255 -2.287,0.68 0,0 0.15,-0.221 0.459,-0.487 C -9.295,4.076 -9.29,4.073 -9.286,4.07 -9.285,4.069 -9.284,4.067 -9.282,4.066 -8.993,3.82 -8.568,3.54 -7.995,3.354 -7.951,3.339 -7.377,3.102 -7.331,3.089 -7.744,2.924 -8.09,2.727 -8.379,2.503 -8.938,2.072 -9.284,1.553 -9.491,1.025 c -0.357,-0.913 -0.684,-2.562 -0.432,-3.502 -0.792,1.064 -1.491,2.435 -1.102,3.987 -1.206,-0.679 -1.983,-0.457 -2.819,-0.334 -0.386,-0.52 -0.896,-1.769 -0.961,-2.84 -0.071,0.113 -0.137,0.236 -0.198,0.364 -0.312,0.665 -0.471,1.425 -0.51,2.155 -0.019,0.291 -0.017,0.572 0.006,0.829 v 0.002 l 2.756,1.955 -4.009,0.336 c 0.001,0.002 0.002,0.002 0.002,0.002 0.066,0.049 0.135,0.097 0.202,0.146 1.543,1.086 3.447,1.835 5.358,1.75 0.148,-0.005 0.296,-0.017 0.444,-0.034 -1.231,0.689 -3.392,0.656 -4.673,0.255 -1.739,-0.543 -2.429,-0.576 -4.29,-0.246 1.954,0.395 1.883,0.448 3.042,0.996 0.952,0.533 2.76,1.517 5.04,1.097 -0.559,0.245 -1.036,0.475 -1.715,0.637 -0.663,0.152 -1.744,0.3 -2.901,0.052 0,0 0.787,0.842 2.258,1.049 -2.007,1.81 -7.937,4.65 -7.937,4.65 8.42,-1.988 11.999,-5.94 12.533,-6.579 0.036,-0.028 0.07,-0.056 0.104,-0.083 -0.317,0.722 -2.184,5.076 -7.302,8.264 -0.709,0.442 -1.492,0.754 -2.215,1.173 -1.155,0.672 -2.223,1.416 -3.194,2.231 l 0.005,-0.016 c -9.522,7.562 -5.978,17.968 -5.978,17.968 -0.308,-2.414 0.101,-4.778 0.8,-6.883 0.444,-1.336 1.005,-2.565 1.575,-3.635 0.641,-1.202 1.292,-2.202 1.802,-2.922 1.185,-1.448 2.592,-2.686 4.222,-3.58 0,0 -7.186,4.894 -3.104,15.327 -0.159,-0.446 -2.985,-8.807 7.633,-16.089 0.205,-0.138 0.354,-0.133 0.415,-0.282 1.412,-3.401 6.853,-8.816 7.867,-11.421 -0.046,0.533 -0.091,1.066 -0.137,1.598 0.609,-0.655 1.086,-1.466 1.336,-2.325 0.046,0.526 0.093,1.325 0.138,1.851 0.879,-0.483 2.183,-1.492 3.259,-2.653 0,0 -0.012,0.012 -0.029,0.031 -0.039,0.042 -0.074,0.08 -0.107,0.115 0.016,-0.017 0.032,-0.034 0.046,-0.049 0.01,-0.011 0.017,-0.019 0.025,-0.028 C -2.221,6.329 -2.21,6.317 -2.2,6.306 -2.19,6.294 -2.182,6.287 -2.171,6.275 l -0.047,0.773 -0.023,0.36 c 0,0 1.626,-1.999 2.179,-3.545 C -0.031,3.775 -0.002,3.688 0.021,3.604 0.011,3.169 -0.051,2.877 -0.123,2.684 -0.185,2.52 -0.432,2.25 -0.486,2.21 -0.525,2.18 -0.55,2.171 -0.55,2.171 c 0.076,0.058 0.092,0.198 0.093,0.328 0.001,0.164 -0.034,0.335 -0.095,0.53 -0.057,0.183 -0.126,0.358 -0.183,0.492 -0.062,0.147 -0.11,0.244 -0.11,0.244 0.034,-0.359 0.016,-0.622 -0.026,-0.812 0,-0.005 -0.001,-0.011 -0.003,-0.017 C -0.956,2.578 -1.121,2.484 -1.165,2.465 -1.171,2.462 -1.176,2.46 -1.176,2.46 -1.188,2.518 -1.201,2.573 -1.215,2.623 -1.26,2.754 -1.311,2.882 -1.361,3.008 -1.545,3.468 -2.217,4.739 -2.437,5.182 -2.627,4.911 -2.373,4.28 -2.373,4.28 -2.287,4.113 -2.087,3.688 -2.087,3.688 -2.273,3.264 -1.998,2.795 -1.625,2.616 -1.73,2.569 -2.079,2.619 -2.324,2.761 -2.233,2.576 -1.905,2.135 -1.741,2.009 -2.213,2.126 -3.297,2.983 -3.891,3.475 M 0.114,5.262 C 0.1,5.306 0.092,5.331 0.092,5.331 c 0,0 0.004,-0.018 0.011,-0.045 -0.036,0.074 -0.072,0.148 -0.11,0.224 -0.086,0.189 -0.19,0.364 -0.301,0.534 -0.951,1.567 -2.335,2.865 -2.335,2.865 l 0.022,-0.381 c 10e-4,0 0.005,-0.002 0.005,-0.002 l 0.043,-0.595 c 0,0 -4.461,2.591 -6.364,4.979 -1.475,1.852 -3.173,3.871 -4.179,6.351 l -0.372,0.594 c -1.285,1.527 -2.625,1.239 -5.56,4.635 -1.006,1.165 -2.117,3.457 -2.469,4.973 -0.745,3.202 -0.612,6.847 0.18,10.027 0,0 0.372,1.086 -1.66,-2.143 l 0.001,0.002 c -1.017,-1.615 -1.729,-3.454 -2.069,-5.33 -0.173,-0.959 -0.251,-1.925 -0.22,-2.876 -0.689,1.373 -1.241,2.867 -1.619,4.409 -0.499,2.031 -0.694,4.142 -0.491,6.162 0,0 -0.357,0.348 -1.59,-2.947 -1.234,-3.297 -1.429,-6.11 -0.862,-9.261 -2.267,1.921 -2.78,5.44 -3.534,8.225 0,0 -10e-4,0 -10e-4,-0.002 h -0.001 c -10e-4,0 -0.002,-0.002 -0.004,-0.003 h -10e-4 c -0.006,-0.006 -0.016,-0.019 -0.028,-0.043 -0.029,-0.054 -0.068,-0.176 -0.093,-0.434 0,-0.201 -0.026,-0.401 -0.026,-0.601 -0.137,-1.395 -0.266,-5.184 1.678,-9.144 0.042,-0.092 0.08,-0.188 0.123,-0.278 0.276,-0.583 0.603,-1.109 0.9,-1.63 0.492,-0.868 0.875,-1.08 1.427,-1.845 -0.058,0.009 -3.394,0.709 -4.615,0.892 0.739,-0.484 2.091,-1.712 3.628,-3.152 0,0 4.603,-0.37 8.216,-3.043 0,0 -3.128,1.531 -6.887,1.792 0.221,-0.208 0.442,-0.416 0.664,-0.625 1.071,-1.007 2.146,-2.01 3.103,-2.854 l -0.014,0.001 -2.715,0.269 3.903,-3.157 0.701,-0.024 c 0,0 1.311,0.046 2.609,-0.247 1.384,-0.314 2.119,-0.763 2.119,-0.763 -0.773,0.262 -2.059,0.302 -2.835,0.252 -0.553,-0.035 -0.914,-0.19 -1.316,-0.246 l 0.229,-0.183 2.462,-1.98 2.193,-0.058 C -19.813,7.473 -21.63,7.019 -23.96,7.8 c -1.238,0.415 -2.438,1.065 -3.457,1.885 0.412,-1.011 1.369,-1.88 2.113,-2.646 -2.455,0.189 -4.433,0.757 -6.676,1.784 0.858,-1.331 1.54,-2.236 2.22,-2.945 0.679,-0.708 1.616,-1.475 2.085,-1.756 0.298,-0.179 1.67,-0.172 2.577,-0.084 0.17,0.016 0.326,0.034 0.453,0.056 0.208,0.034 0.468,0.09 0.745,0.154 0.933,0.215 2.056,0.529 1.994,0.488 -0.405,-0.263 -0.847,-0.521 -1.313,-0.76 -0.275,-0.141 -0.558,-0.276 -0.847,-0.4 -1.305,-0.56 -2.727,-0.908 -4.023,-0.744 1.449,-0.518 2.966,-0.897 4.502,-1.042 0.528,-0.051 0.72,-0.043 1.18,0.171 0.686,0.317 1.252,0.578 1.797,0.838 0.276,0.133 0.55,0.267 0.827,0.409 0.383,0.194 0.777,0.4 1.218,0.646 -0.254,-0.239 -0.51,-0.462 -0.772,-0.684 -0.147,-0.122 -0.297,-0.246 -0.449,-0.372 -0.53,-0.434 -1.097,-0.884 -1.744,-1.452 1.734,-0.121 2.738,-0.408 5.041,0.312 0,0 -0.474,-0.354 -1.133,-0.736 l 0.683,-1.34 -0.741,0.333 0.487,-0.91 c 0,0 0.346,-0.429 0.839,-0.787 l 0.167,-0.537 c -0.381,0.113 -0.869,0.52 -1.111,0.681 0.385,-1.546 1.304,-1.243 1.569,-2.18 0.178,-0.633 0.848,-1.767 0.469,-2.369 -0.445,-0.709 -0.737,-0.659 -1.364,-1.224 -0.727,-0.652 -0.167,-1.468 -0.017,-1.728 0.15,0.763 0.719,1.26 1.042,1.357 0.507,0.149 1.115,0.035 1.337,0.257 0.801,0.799 2.524,1.002 3.716,0.256 -0.552,0.892 -0.836,0.865 -1.934,1.182 1.94,-0.128 2.068,-0.553 3.017,-1.657 0.078,0.629 -0.444,1.429 -0.89,1.812 -0.139,0.118 -1.681,0.335 -3.179,0.465 -0.526,0.046 -0.739,0.722 -0.815,1.086 0.092,-0.053 0.516,-0.276 0.929,-0.271 -0.105,0.528 -0.25,1.127 -0.337,1.487 0.148,-0.067 0.299,-0.161 0.631,-0.172 l -0.217,0.886 c -0.102,0.708 -0.332,1.22 0.348,2.302 0.375,-0.263 0.541,-0.377 0.711,-0.568 0,0 0.141,-0.676 0.296,-1.037 0.03,-0.068 0.698,-0.639 0.722,-0.708 l -1.15,0.333 c 0,0 0.384,-0.873 1.143,-1.376 0.45,-0.159 0.85,-0.34 0.981,-0.515 0.135,-0.182 0.362,-0.672 0.255,-0.935 -0.086,-0.212 -0.697,0.694 -1.983,-0.386 0.878,-0.014 1.931,-0.254 2.158,-0.522 0.294,-0.348 0.505,-0.664 0.717,-0.791 0.934,-0.56 0.999,-0.854 0.924,-1.953 0.578,0.446 0.416,1.609 0.329,1.89 0.766,-0.919 0.598,-2.167 0.364,-2.655 0.574,0.319 1.27,1.588 0.613,2.591 -0.178,0.161 -1.149,0.888 -1.338,1.104 -0.487,0.557 -0.609,1.183 -0.848,1.818 0.169,-0.01 0.381,-0.078 0.551,-0.076 -0.086,0.376 -0.207,0.866 -0.301,1.407 -0.008,0.049 -0.017,0.099 -0.025,0.148 -0.003,0.02 -0.006,0.041 -0.009,0.061 -0.012,0.08 -0.024,0.161 -0.035,0.244 -0.002,0.019 -0.004,0.04 -0.006,0.059 -0.011,0.083 -0.02,0.167 -0.028,0.252 0.315,-0.202 0.532,-0.288 0.532,-0.288 l -0.54,1.464 v 0.004 c 0.01,0.11 0.024,0.221 0.042,0.332 0,0.006 0.002,0.015 0.003,0.021 0.016,0.1 0.037,0.201 0.06,0.3 0.004,0.016 0.008,0.033 0.012,0.049 0.021,0.091 0.049,0.181 0.079,0.271 0.007,0.022 0.012,0.043 0.02,0.065 0.038,0.107 0.081,0.215 0.129,0.319 -0.244,-0.524 0.474,-1.281 0.474,-1.281 0.09,1.16 1.127,2.243 1.997,2.634 -0.048,-0.322 0.119,-0.646 0.119,-0.646 0.257,0.548 0.782,0.763 1.158,0.849 l 0.704,-0.283 0.746,-0.3 0.196,-0.079 c 0,0 0.134,-0.593 0.464,-0.858 0.318,-0.257 0.648,-0.446 1.441,-0.956 -0.059,-0.197 -0.238,-0.382 -0.595,-0.511 1.127,-0.422 2.548,0.085 2.347,1.296 C 0.365,1.065 0.177,2.244 0.177,2.244 v 0.004 l 0.267,0.87 0.079,0.26 0.008,0.027 0.037,0.12 C 0.565,4.086 0.386,4.68 0.114,5.262"/></g><g transform="translate(247.1008,796.5867)" id="g234"><path inkscape:connector-curvature="0" id="path236" style="fill:#1b458f;fill-opacity:1;fill-rule:nonzero;stroke:none" d="m 0,0 0.065,-0.006 c -1.813,-0.11 -3.609,-0.635 -5.105,-1.585 1.232,2.399 3.953,4.024 6.359,4.976 0,0 0.297,0.462 -2.61,0.027 C -1.669,3.369 -2.044,3.309 -2.415,3.227 -2.421,3.226 -2.426,3.225 -2.432,3.224 h 0.005 C -4.025,2.87 -5.543,2.161 -6.825,1.15 -7.548,0.578 -8.199,-0.087 -8.744,-0.838 c -2.451,-3.259 -3.279,-6.11 -3.279,-6.11 0,0 -0.354,4.207 5.021,9.758 0.592,0.989 1.257,1.932 1.991,2.793 0,0 0.124,0.629 -2.919,-1.68 -2.201,-1.538 -4.123,-3.559 -5.509,-5.816 -0.498,-0.892 -1.564,-2.893 -1.873,-4.217 0.003,-0.039 0.005,-0.08 0.008,-0.119 0,0 0.033,-0.793 0.179,-1.848 0.177,-1.276 0.7,-3.038 0.7,-3.038 -0.356,0.727 -0.992,2.33 -1.203,3.068 -0.103,0.361 -0.185,0.701 -0.256,1.028 -0.044,0.204 -0.078,0.399 -0.111,0.592 -0.018,0.103 -0.035,0.21 -0.052,0.32 -0.025,0.174 -0.051,0.347 -0.07,0.516 -0.068,0.616 -0.094,1.199 -0.103,1.785 -0.011,0.773 0.023,1.472 0.058,1.977 -1.397,-3.203 -1.529,-5.67 -1.532,-6.658 -0.069,-0.63 -0.107,-1.1 -0.133,-1.494 0.362,-1.029 1.005,-2.402 2.157,-4.143 0,0 -1.036,0.577 -2.255,2.71 -0.049,-0.47 -0.135,-1.005 -0.321,-1.838 1.382,-2.348 2.768,-4.155 4.021,-5.534 v 2.794 c 0.448,-0.449 0.757,-0.798 0.969,-1.068 0.2,0.91 0.481,2.002 0.872,3.164 2.436,7.25 5.324,9.459 5.324,9.459 -2.658,-4.153 -5.097,-12.551 -4.995,-16.472 0.515,-0.439 0.975,-0.791 1.357,-1.059 -0.205,0.31 -0.379,0.662 -0.423,0.937 1.183,5.602 4.873,9.258 4.873,9.258 0.804,8.026 9.887,11.427 9.887,11.427 C 4.378,0.195 0,0 0,0"/></g><g transform="translate(248.463,750.3534)" id="g238"><path inkscape:connector-curvature="0" id="path240" style="fill:#d3d2d2;fill-opacity:1;fill-rule:nonzero;stroke:none" d="M 0,0 V 4.142 4.539 C -0.476,4.174 -0.923,3.848 -1.345,3.552 V 3.101 2.507 2.214 h -0.688 v 0.87 C -4.984,1.133 -6.444,0.929 -6.444,0.929 c 1.989,1.017 3.411,2.014 4.411,2.86 v 1.117 0.615 c -3.626,-3.115 -6.882,-4.719 -8.086,-5.256 0,-0.086 0,-0.351 10e-4,-0.721 h 5.346 0.871 c 1.241,0.206 2.568,0.305 3.9,0.248"/></g><g transform="translate(242.8501,749.535)" id="g242"><path inkscape:connector-curvature="0" id="path244" style="fill:#a7a5a6;fill-opacity:1;fill-rule:nonzero;stroke:none" d="M 0,0 C -0.973,-0.252 -1.856,-0.563 -2.598,-0.903 V 0 Z"/></g><g transform="translate(235.0387,745.7284)" id="g246"><path inkscape:connector-curvature="0" id="path248" style="fill:#a7a5a6;fill-opacity:1;fill-rule:nonzero;stroke:none" d="m 0,0 c -0.242,-0.108 -0.675,-0.298 -0.857,-0.375 l 0.003,0.922 V 2.439 H 0 V 0.547 Z"/></g><path inkscape:connector-curvature="0" id="path250" style="fill:#a7a5a6;fill-opacity:1;fill-rule:nonzero;stroke:none" d="m 235.038,748.507 h -0.853 v 2.143 h 0.853 z"/><g transform="translate(238.0002,747.497)" id="g252"><path inkscape:connector-curvature="0" id="path254" style="fill:#a7a5a6;fill-opacity:1;fill-rule:nonzero;stroke:none" d="M 0,0 V 0.67 H -0.762 V 0 -0.619 c 0.253,0.146 0.508,0.298 0.765,0.455 z"/></g><path inkscape:connector-curvature="0" id="path256" style="fill:#a7a5a6;fill-opacity:1;fill-rule:nonzero;stroke:none" d="m 238,748.507 h -0.762 v 2.143 H 238 Z"/><g transform="translate(235.9655,746.7413)" id="g258"><path inkscape:connector-curvature="0" id="path260" style="fill:#a7a5a6;fill-opacity:1;fill-rule:nonzero;stroke:none" d="M 0,0 V 1.426 H -0.587 V 0 l -0.001,-0.857 c 0.195,0.094 0.391,0.194 0.588,0.294 z"/></g><path inkscape:connector-curvature="0" id="path262" style="fill:#a7a5a6;fill-opacity:1;fill-rule:nonzero;stroke:none" d="m 235.965,748.507 h -0.587 v 2.143 h 0.587 z"/><path inkscape:connector-curvature="0" id="path264" style="fill:#a7a5a6;fill-opacity:1;fill-rule:nonzero;stroke:none" d="m 236.89,748.507 h -0.587 v 2.143 h 0.587 z"/><g transform="translate(236.8894,746.8913)" id="g266"><path inkscape:connector-curvature="0" id="path268" style="fill:#a7a5a6;fill-opacity:1;fill-rule:nonzero;stroke:none" d="M 0,0 V 1.276 H -0.588 V 0 -0.534 c 0.196,0.104 0.392,0.211 0.588,0.322 z"/></g><path inkscape:connector-curvature="0" id="path270" style="fill:#a7a5a6;fill-opacity:1;fill-rule:nonzero;stroke:none" d="m 238.003,752.468 h -3.818 v -1.479 h 3.818 z"/><g transform="translate(218.9817,747.2639)" id="g272"><path inkscape:connector-curvature="0" id="path274" style="fill:#a7a5a6;fill-opacity:1;fill-rule:nonzero;stroke:none" d="M 0,0 C -0.278,0.136 -0.558,0.273 -0.84,0.408 L -0.841,0.573 V 0.904 H 0 V 0.573 Z"/></g><path inkscape:connector-curvature="0" id="path276" style="fill:#a7a5a6;fill-opacity:1;fill-rule:nonzero;stroke:none" d="m 218.995,748.507 h -0.853 v 2.143 h 0.853 z"/><g transform="translate(221.1738,746.2025)" id="g278"><path inkscape:connector-curvature="0" id="path280" style="fill:#a7a5a6;fill-opacity:1;fill-rule:nonzero;stroke:none" d="M 0,0 C 0.258,-0.121 0.517,-0.24 0.774,-0.355 L 0.782,1.306 V 1.965 H 0 V 1.306 Z"/></g><path inkscape:connector-curvature="0" id="path282" style="fill:#a7a5a6;fill-opacity:1;fill-rule:nonzero;stroke:none" d="m 221.956,748.507 h -0.764 v 2.143 h 0.764 z"/><path inkscape:connector-curvature="0" id="path284" style="fill:#a7a5a6;fill-opacity:1;fill-rule:nonzero;stroke:none" d="m 219.907,748.507 h -0.586 v 2.143 h 0.586 z"/><path inkscape:connector-curvature="0" id="path286" style="fill:#a7a5a6;fill-opacity:1;fill-rule:nonzero;stroke:none" d="m 220.835,748.507 h -0.577 v 2.143 h 0.577 z"/><path inkscape:connector-curvature="0" id="path288" style="fill:#a7a5a6;fill-opacity:1;fill-rule:nonzero;stroke:none" d="m 221.959,752.468 h -3.818 v -1.479 h 3.818 z"/><g transform="translate(220.2502,746.6448)" id="g290"><path inkscape:connector-curvature="0" id="path292" style="fill:#a7a5a6;fill-opacity:1;fill-rule:nonzero;stroke:none" d="m 0,0 c 0.178,-0.087 0.4,-0.204 0.586,-0.295 v 0.43 1.387 H -0.002 V 0.135 Z"/></g><g transform="translate(217.215,748.1086)" id="g294"><path inkscape:connector-curvature="0" id="path296" style="fill:#a7a5a6;fill-opacity:1;fill-rule:nonzero;stroke:none" d="M 0,0 C 0.197,-0.091 0.392,-0.182 0.587,-0.275 V 0.291 1.426 H -0.001 V 0.291 Z"/></g><g transform="translate(219.3207,747.0981)" id="g298"><path inkscape:connector-curvature="0" id="path300" style="fill:#a7a5a6;fill-opacity:1;fill-rule:nonzero;stroke:none" d="m 0,0 0.098,-0.047 c 0.163,-0.08 0.325,-0.16 0.488,-0.239 V 0.161 1.069 H 0 V 0.161 Z"/></g><g transform="translate(207.8452,751.9562)" id="g302"><path inkscape:connector-curvature="0" id="path304" style="fill:#d3d2d2;fill-opacity:1;fill-rule:nonzero;stroke:none" d="M 0,0 V 2.937 C 0.475,2.571 0.922,2.245 1.344,1.949 V 0.611 H 2.032 V 1.48 C 4.983,-0.47 6.443,-0.673 6.443,-0.673 4.454,0.344 3.033,1.34 2.032,2.187 V 3.41 3.918 C 5.506,0.934 8.64,-0.664 9.956,-1.264 V -2.06 c 0,0 -5.286,-0.026 -5.418,0.002 -1.54,0.33 -3.095,0.352 -4.538,0.21"/></g><g transform="translate(215.9457,748.6572)" id="g306"><path inkscape:connector-curvature="0" id="path308" style="fill:#a7a5a6;fill-opacity:1;fill-rule:nonzero;stroke:none" d="M 0,0 C -0.74,0.306 -1.735,0.708 -2.289,0.893 H 0 Z"/></g><g transform="translate(216.287,748.7076)" id="g310"><path inkscape:connector-curvature="0" id="path312" style="fill:#a7a5a6;fill-opacity:1;fill-rule:nonzero;stroke:none" d="M 0,0 V 0.828 H 0.588 V 0 L 0.586,-0.442 c -0.058,0.027 -0.28,0.121 -0.588,0.25 z"/></g><g transform="translate(238.9873,748.1673)" id="g314"><path inkscape:connector-curvature="0" id="path316" style="fill:#a7a5a6;fill-opacity:1;fill-rule:nonzero;stroke:none" d="M 0,0 V 1.368 H -0.644 V 0 -0.628 c 0.212,0.132 0.427,0.267 0.643,0.404 z"/></g><g transform="translate(239.9146,748.6336)" id="g318"><path inkscape:connector-curvature="0" id="path320" style="fill:#a7a5a6;fill-opacity:1;fill-rule:nonzero;stroke:none" d="M 0,0 V 0.901 H -0.588 V 0 l 0.006,-0.475 c 0.18,0.106 0.375,0.211 0.582,0.313 z"/></g><g transform="translate(233.8511,750.9886)" id="g322"><path inkscape:connector-curvature="0" id="path324" style="fill:#a7a5a6;fill-opacity:1;fill-rule:nonzero;stroke:none" d="m 0,0 v 1.047 c 0,3.192 -2.586,5.779 -5.778,5.779 -3.192,0 -5.778,-2.587 -5.778,-5.779 V 0 l 0.984,0.001 c -0.063,0.31 -0.096,0.632 -0.096,0.962 0,2.682 2.174,4.855 4.855,4.855 2.682,0 4.855,-2.173 4.855,-4.855 0,-0.33 -0.033,-0.654 -0.095,-0.966 z"/></g><g transform="translate(209.1897,755.1962)" id="g326"><path inkscape:connector-curvature="0" id="path328" style="fill:#d3d2d2;fill-opacity:1;fill-rule:nonzero;stroke:none" d="m 0,0 v 1.298 l -1.344,1.36 V 1.458 1.133 C -1.16,0.847 -0.754,0.29 0,-0.435 Z"/></g><g transform="translate(248.463,756.3292)" id="g330"><path inkscape:connector-curvature="0" id="path332" style="fill:#d3d2d2;fill-opacity:1;fill-rule:nonzero;stroke:none" d="m 0,0 c -0.185,-0.286 -0.591,-0.843 -1.345,-1.568 v 0.669 1.064 L 0,1.524 V 0.481 Z"/></g><g transform="translate(227.1024,746.3987)" id="g334"><path inkscape:connector-curvature="0" id="path336" style="fill:#a7a5a6;fill-opacity:1;fill-rule:nonzero;stroke:none" d="m 0,0 c -0.155,0 -0.261,-0.102 -0.261,-0.279 0,-0.169 0.084,-0.263 0.261,-0.263 0.108,0 0.205,0.035 0.298,0.106 v 0.009 C 0.298,-0.151 0.177,0 0,0"/></g><g transform="translate(228.5635,746.3916)" id="g338"><path inkscape:connector-curvature="0" id="path340" style="fill:#a7a5a6;fill-opacity:1;fill-rule:nonzero;stroke:none" d="m 0,0 c -0.202,0 -0.313,-0.194 -0.313,-0.547 0,-0.354 0.111,-0.549 0.313,-0.549 0.201,0 0.309,0.195 0.309,0.549 C 0.309,-0.194 0.201,0 0,0"/></g><g transform="translate(229.9029,745.0687)" id="g342"><path inkscape:connector-curvature="0" id="path344" style="fill:#a7a5a6;fill-opacity:1;fill-rule:nonzero;stroke:none" d="m 0,0 c -0.186,0 -0.332,0.044 -0.451,0.108 l 0.042,0.247 c 0.113,-0.067 0.252,-0.117 0.411,-0.117 0.173,0 0.302,0.087 0.302,0.261 0,0.148 -0.097,0.239 -0.273,0.239 -0.1,0 -0.171,-0.019 -0.233,-0.044 l -0.189,0.042 0.053,0.786 H 0.495 L 0.533,1.283 H -0.115 L -0.142,0.934 c 0.056,0.016 0.126,0.031 0.225,0.031 0.297,0 0.491,-0.17 0.491,-0.452 C 0.574,0.181 0.331,0 0,0 m -1.339,0 c -0.358,0 -0.596,0.277 -0.596,0.775 0,0.496 0.238,0.776 0.596,0.776 0.355,0 0.594,-0.28 0.594,-0.776 C -0.745,0.277 -0.984,0 -1.339,0 m -1.757,-0.002 -0.036,0.236 c 0.298,0.06 0.53,0.192 0.608,0.448 -0.106,-0.068 -0.223,-0.11 -0.358,-0.11 -0.269,0 -0.449,0.161 -0.449,0.463 0,0.31 0.228,0.516 0.533,0.516 0.327,0 0.557,-0.219 0.557,-0.633 0,-0.524 -0.357,-0.822 -0.855,-0.92 M -3.69,0.029 h -0.282 v 1.219 l -0.305,-0.117 -0.031,0.223 0.368,0.17 h 0.25 z M 2.812,5.572 C 2.239,3.527 0.363,2.028 -1.864,2.028 c -2.228,0 -4.106,1.501 -4.677,3.547 L -7.608,5.581 V 1.589 L -7.61,0.628 c 2.005,-0.872 4.013,-1.511 6.195,-1.511 h 0.043 c 1.904,0.007 3.617,0.373 5.312,1.028 l 0.008,5.438 z"/></g><g transform="translate(206.5298,758.4846)" id="g346"><path inkscape:connector-curvature="0" id="path348" style="fill:#a7a5a6;fill-opacity:1;fill-rule:nonzero;stroke:none" d="M 0,0 C 0.202,-0.038 0.396,-0.087 0.579,-0.143 V -2.737 C 0.395,-2.68 0.202,-2.632 0,-2.594 Z"/></g><g transform="translate(206.1941,755.9425)" id="g350"><path inkscape:connector-curvature="0" id="path352" style="fill:#a7a5a6;fill-opacity:1;fill-rule:nonzero;stroke:none" d="m 0,0 c -0.188,0.023 -0.382,0.039 -0.579,0.044 l 0.001,2.594 C -0.484,2.635 -0.39,2.631 -0.296,2.624 -0.196,2.616 -0.097,2.606 0,2.594 Z"/></g><g transform="translate(204.699,755.9425)" id="g354"><path inkscape:connector-curvature="0" id="path356" style="fill:#a7a5a6;fill-opacity:1;fill-rule:nonzero;stroke:none" d="M 0,0 C 0.188,0.023 0.382,0.039 0.58,0.044 V 2.638 C 0.382,2.633 0.188,2.618 0,2.594 Z"/></g><g transform="translate(203.7857,755.7463)" id="g358"><path inkscape:connector-curvature="0" id="path360" style="fill:#a7a5a6;fill-opacity:1;fill-rule:nonzero;stroke:none" d="M 0,0 C 0.184,0.059 0.376,0.106 0.578,0.144 V 2.738 C 0.376,2.7 0.184,2.651 0,2.595 Z"/></g><g transform="translate(203.2621,760.592)" id="g362"><path inkscape:connector-curvature="0" id="path364" style="fill:#a7a5a6;fill-opacity:1;fill-rule:nonzero;stroke:none" d="M 0,0 C 0.125,0.057 0.256,0.11 0.394,0.157 V -0.155 Z"/></g><g transform="translate(205.2787,759.6818)" id="g366"><path inkscape:connector-curvature="0" id="path368" style="fill:#a7a5a6;fill-opacity:1;fill-rule:nonzero;stroke:none" d="m 0,0 c -0.198,-0.005 -0.392,-0.02 -0.58,-0.044 v 1.35 C -0.392,1.329 -0.198,1.344 0,1.351 Z"/></g><g transform="translate(206.1941,760.9877)" id="g370"><path inkscape:connector-curvature="0" id="path372" style="fill:#a7a5a6;fill-opacity:1;fill-rule:nonzero;stroke:none" d="m 0,0 c -0.188,0.023 -0.382,0.039 -0.579,0.044 v -1.35 C -0.382,-1.311 -0.188,-1.325 0,-1.35 Z"/></g><g transform="translate(206.5298,760.9357)" id="g374"><path inkscape:connector-curvature="0" id="path376" style="fill:#a7a5a6;fill-opacity:1;fill-rule:nonzero;stroke:none" d="M 0,0 C 0.202,-0.038 0.395,-0.087 0.579,-0.143 V -1.492 C 0.396,-1.436 0.202,-1.387 0,-1.351 Z"/></g><g transform="translate(204.3633,759.5853)" id="g378"><path inkscape:connector-curvature="0" id="path380" style="fill:#a7a5a6;fill-opacity:1;fill-rule:nonzero;stroke:none" d="M 0,0 C -0.201,-0.037 -0.395,-0.086 -0.578,-0.142 V 1.207 C -0.394,1.263 -0.201,1.312 0,1.351 Z"/></g><g transform="translate(207.2386,760.7491)" id="g382"><path inkscape:connector-curvature="0" id="path384" style="fill:#a7a5a6;fill-opacity:1;fill-rule:nonzero;stroke:none" d="M 0,0 C 0.14,-0.048 0.273,-0.101 0.399,-0.16 L 0,-0.313 Z"/></g><g transform="translate(203.2621,758.1408)" id="g386"><path inkscape:connector-curvature="0" id="path388" style="fill:#a7a5a6;fill-opacity:1;fill-rule:nonzero;stroke:none" d="M 0,0 C 0.125,0.058 0.256,0.11 0.394,0.157 V -0.155 Z"/></g><g transform="translate(207.2386,758.2979)" id="g390"><path inkscape:connector-curvature="0" id="path392" style="fill:#a7a5a6;fill-opacity:1;fill-rule:nonzero;stroke:none" d="M 0,0 C 0.14,-0.048 0.273,-0.101 0.399,-0.16 L 0,-0.313 Z"/></g><g transform="translate(207.6377,761.467)" id="g394"><path inkscape:connector-curvature="0" id="path396" style="fill:#a7a5a6;fill-opacity:1;fill-rule:nonzero;stroke:none" d="m 0,0 c -0.601,0.278 -1.363,0.444 -2.19,0.444 -0.826,0 -1.585,-0.166 -2.186,-0.442 v -0.563 c 0.601,0.277 1.36,0.441 2.186,0.441 0.827,0 1.589,-0.166 2.19,-0.443 z"/></g><g transform="translate(207.6377,758.995)" id="g398"><path inkscape:connector-curvature="0" id="path400" style="fill:#a7a5a6;fill-opacity:1;fill-rule:nonzero;stroke:none" d="m 0,0 c -0.601,0.277 -1.363,0.444 -2.19,0.444 -0.826,0 -1.585,-0.165 -2.186,-0.442 v -0.563 c 0.601,0.276 1.36,0.442 2.186,0.442 0.827,0 1.589,-0.167 2.19,-0.444 z"/></g><g transform="translate(207.6377,761.7147)" id="g402"><path inkscape:connector-curvature="0" id="path404" style="fill:#a7a5a6;fill-opacity:1;fill-rule:nonzero;stroke:none" d="m 0,0 c -0.601,0.278 -1.363,0.445 -2.19,0.445 -0.826,0 -1.585,-0.166 -2.186,-0.442 l 1.736,1.653 c 0.147,0.012 0.297,0.017 0.45,0.017 0.153,0 0.302,-0.005 0.45,-0.016 z"/></g><g transform="translate(204.9973,763.8331)" id="g406"><path inkscape:connector-curvature="0" id="path408" style="fill:#a7a5a6;fill-opacity:1;fill-rule:nonzero;stroke:none" d="m 0,0 v -0.273 c 0.147,0.011 0.298,0.016 0.45,0.016 0.153,0 0.303,-0.005 0.45,-0.016 V 0 C 0.9,0.103 0.676,0.107 0.618,0.109 0.563,0.109 0.506,0.11 0.45,0.11 0.393,0.11 0.337,0.109 0.281,0.109 0.221,0.107 0,0.109 0,0"/></g><g transform="translate(207.1088,752.9337)" id="g410"><path inkscape:connector-curvature="0" id="path412" style="fill:#a7a5a6;fill-opacity:1;fill-rule:nonzero;stroke:none" d="M 0,0 C -0.184,0.059 -0.377,0.106 -0.579,0.144 V 2.667 C -0.377,2.63 -0.184,2.582 0,2.525 Z"/></g><g transform="translate(206.1941,753.1299)" id="g414"><path inkscape:connector-curvature="0" id="path416" style="fill:#a7a5a6;fill-opacity:1;fill-rule:nonzero;stroke:none" d="M 0,0 C -0.187,0.024 -0.382,0.038 -0.579,0.044 V 2.568 C -0.382,2.563 -0.187,2.547 0,2.524 Z"/></g><g transform="translate(205.2787,753.1732)" id="g418"><path inkscape:connector-curvature="0" id="path420" style="fill:#a7a5a6;fill-opacity:1;fill-rule:nonzero;stroke:none" d="M 0,0 C -0.198,-0.005 -0.392,-0.019 -0.58,-0.043 V 2.481 C -0.392,2.506 -0.198,2.519 0,2.526 Z"/></g><g transform="translate(204.3633,753.0771)" id="g422"><path inkscape:connector-curvature="0" id="path424" style="fill:#a7a5a6;fill-opacity:1;fill-rule:nonzero;stroke:none" d="M 0,0 C -0.201,-0.037 -0.394,-0.086 -0.578,-0.143 V 2.382 C -0.394,2.439 -0.201,2.486 0,2.524 Z"/></g><g transform="translate(251.9475,758.4846)" id="g426"><path inkscape:connector-curvature="0" id="path428" style="fill:#a7a5a6;fill-opacity:1;fill-rule:nonzero;stroke:none" d="M 0,0 C 0.202,-0.038 0.395,-0.087 0.578,-0.143 V -2.737 C 0.395,-2.68 0.202,-2.632 0,-2.594 Z"/></g><g transform="translate(251.6116,755.9425)" id="g430"><path inkscape:connector-curvature="0" id="path432" style="fill:#a7a5a6;fill-opacity:1;fill-rule:nonzero;stroke:none" d="M 0,0 C -0.188,0.023 -0.381,0.039 -0.579,0.044 V 2.638 C -0.483,2.635 -0.39,2.631 -0.296,2.624 -0.196,2.616 -0.097,2.606 0,2.594 Z"/></g><g transform="translate(250.1167,755.9425)" id="g434"><path inkscape:connector-curvature="0" id="path436" style="fill:#a7a5a6;fill-opacity:1;fill-rule:nonzero;stroke:none" d="M 0,0 C 0.188,0.023 0.381,0.039 0.58,0.044 V 2.638 C 0.381,2.633 0.188,2.618 0,2.594 Z"/></g><g transform="translate(249.203,755.7463)" id="g438"><path inkscape:connector-curvature="0" id="path440" style="fill:#a7a5a6;fill-opacity:1;fill-rule:nonzero;stroke:none" d="M 0,0 C 0.184,0.059 0.377,0.106 0.578,0.144 V 2.738 C 0.377,2.7 0.184,2.651 0,2.595 Z"/></g><g transform="translate(248.6798,760.592)" id="g442"><path inkscape:connector-curvature="0" id="path444" style="fill:#a7a5a6;fill-opacity:1;fill-rule:nonzero;stroke:none" d="M 0,0 C 0.125,0.057 0.256,0.11 0.394,0.157 V -0.155 Z"/></g><g transform="translate(250.6964,759.6818)" id="g446"><path inkscape:connector-curvature="0" id="path448" style="fill:#a7a5a6;fill-opacity:1;fill-rule:nonzero;stroke:none" d="m 0,0 c -0.198,-0.005 -0.392,-0.02 -0.58,-0.044 v 1.35 C -0.392,1.329 -0.198,1.344 0,1.351 Z"/></g><g transform="translate(251.6116,760.9877)" id="g450"><path inkscape:connector-curvature="0" id="path452" style="fill:#a7a5a6;fill-opacity:1;fill-rule:nonzero;stroke:none" d="m 0,0 c -0.188,0.023 -0.381,0.039 -0.579,0.044 v -1.35 C -0.381,-1.311 -0.188,-1.325 0,-1.35 Z"/></g><g transform="translate(251.9475,760.9357)" id="g454"><path inkscape:connector-curvature="0" id="path456" style="fill:#a7a5a6;fill-opacity:1;fill-rule:nonzero;stroke:none" d="M 0,0 C 0.202,-0.038 0.395,-0.087 0.578,-0.143 V -1.492 C 0.395,-1.436 0.202,-1.387 0,-1.351 Z"/></g><g transform="translate(249.7807,759.5853)" id="g458"><path inkscape:connector-curvature="0" id="path460" style="fill:#a7a5a6;fill-opacity:1;fill-rule:nonzero;stroke:none" d="m 0,0 c -0.201,-0.037 -0.395,-0.086 -0.578,-0.142 v 1.349 c 0.184,0.056 0.377,0.105 0.579,0.144 z"/></g><g transform="translate(252.6564,760.7491)" id="g462"><path inkscape:connector-curvature="0" id="path464" style="fill:#a7a5a6;fill-opacity:1;fill-rule:nonzero;stroke:none" d="M 0,0 C 0.139,-0.048 0.273,-0.101 0.399,-0.16 L 0,-0.313 Z"/></g><g transform="translate(248.6798,758.1408)" id="g466"><path inkscape:connector-curvature="0" id="path468" style="fill:#a7a5a6;fill-opacity:1;fill-rule:nonzero;stroke:none" d="M 0,0 C 0.125,0.058 0.256,0.11 0.394,0.157 V -0.155 Z"/></g><g transform="translate(252.6564,758.2979)" id="g470"><path inkscape:connector-curvature="0" id="path472" style="fill:#a7a5a6;fill-opacity:1;fill-rule:nonzero;stroke:none" d="M 0,0 C 0.139,-0.048 0.273,-0.101 0.399,-0.16 L 0,-0.313 Z"/></g><g transform="translate(253.0554,761.467)" id="g474"><path inkscape:connector-curvature="0" id="path476" style="fill:#a7a5a6;fill-opacity:1;fill-rule:nonzero;stroke:none" d="m 0,0 c -0.602,0.278 -1.363,0.444 -2.19,0.444 -0.826,0 -1.585,-0.166 -2.186,-0.442 v -0.563 c 0.601,0.277 1.36,0.441 2.186,0.441 0.827,0 1.589,-0.166 2.19,-0.443 z"/></g><g transform="translate(253.0554,758.995)" id="g478"><path inkscape:connector-curvature="0" id="path480" style="fill:#a7a5a6;fill-opacity:1;fill-rule:nonzero;stroke:none" d="m 0,0 c -0.602,0.277 -1.363,0.444 -2.19,0.444 -0.826,0 -1.585,-0.165 -2.186,-0.442 v -0.563 c 0.601,0.276 1.36,0.442 2.186,0.442 0.827,0 1.589,-0.167 2.19,-0.444 z"/></g><g transform="translate(253.0554,761.7147)" id="g482"><path inkscape:connector-curvature="0" id="path484" style="fill:#a7a5a6;fill-opacity:1;fill-rule:nonzero;stroke:none" d="m 0,0 c -0.602,0.278 -1.363,0.445 -2.19,0.445 -0.826,0 -1.585,-0.166 -2.186,-0.442 l 1.735,1.653 c 0.148,0.012 0.298,0.017 0.451,0.017 0.153,0 0.302,-0.005 0.45,-0.016 z"/></g><g transform="translate(250.4148,763.8331)" id="g486"><path inkscape:connector-curvature="0" id="path488" style="fill:#a7a5a6;fill-opacity:1;fill-rule:nonzero;stroke:none" d="m 0,0 v -0.273 c 0.148,0.011 0.297,0.016 0.45,0.016 0.152,0 0.303,-0.005 0.45,-0.016 V 0 C 0.9,0.103 0.676,0.107 0.618,0.109 0.562,0.109 0.506,0.11 0.45,0.11 0.394,0.11 0.337,0.109 0.281,0.109 0.221,0.107 0,0.109 0,0"/></g><g transform="translate(252.5261,752.9337)" id="g490"><path inkscape:connector-curvature="0" id="path492" style="fill:#a7a5a6;fill-opacity:1;fill-rule:nonzero;stroke:none" d="M 0,0 C -0.184,0.059 -0.377,0.106 -0.578,0.144 V 2.667 C -0.377,2.63 -0.184,2.582 0,2.525 Z"/></g><g transform="translate(251.6116,753.1299)" id="g494"><path inkscape:connector-curvature="0" id="path496" style="fill:#a7a5a6;fill-opacity:1;fill-rule:nonzero;stroke:none" d="M 0,0 C -0.188,0.024 -0.381,0.038 -0.579,0.044 V 2.568 C -0.381,2.563 -0.188,2.547 0,2.524 Z"/></g><g transform="translate(250.6964,753.1732)" id="g498"><path inkscape:connector-curvature="0" id="path500" style="fill:#a7a5a6;fill-opacity:1;fill-rule:nonzero;stroke:none" d="M 0,0 C -0.198,-0.005 -0.392,-0.019 -0.58,-0.043 V 2.481 C -0.392,2.506 -0.198,2.519 0,2.526 Z"/></g><g transform="translate(249.7807,753.0771)" id="g502"><path inkscape:connector-curvature="0" id="path504" style="fill:#a7a5a6;fill-opacity:1;fill-rule:nonzero;stroke:none" d="M 0,0 C -0.201,-0.037 -0.394,-0.086 -0.578,-0.143 V 2.382 C -0.394,2.439 -0.201,2.486 0,2.524 Z"/></g><g transform="translate(204.3593,749.4693)" id="g506"><path inkscape:connector-curvature="0" id="path508" style="fill:#a7a5a6;fill-opacity:1;fill-rule:nonzero;stroke:none" d="m 0,0 c -0.198,-0.056 -0.39,-0.112 -0.573,-0.169 0,0.337 -0.001,1.27 -0.001,1.27 v 2.055 c 0,0 0.377,0.106 0.578,0.144 V 1.328 Z M 0.925,0.238 C 0.723,0.191 0.526,0.142 0.335,0.092 c 0,0.139 0.005,1.313 0.005,1.313 v 1.947 c 0,0 0.381,0.039 0.579,0.044 L 0.926,1.405 Z m 0.91,3.114 C 1.647,3.377 1.256,3.396 1.256,3.396 V 1.405 c 0,0 -0.003,-0.93 -0.003,-1.092 0.19,0.041 0.383,0.08 0.579,0.117 z M 2.75,1.489 V 3.156 C 2.566,3.214 2.171,3.3 2.171,3.3 V 1.489 L 2.166,0.49 c 0,0 0.384,0.063 0.58,0.09 z M 45.421,1.145 V 3.3 C 45.221,3.262 44.844,3.156 44.844,3.156 V 0.917 c 0,0 0.005,-0.043 0.005,-0.301 C 45.04,0.6 45.231,0.579 45.422,0.555 m 0.921,0.701 -0.006,2.14 C 46.139,3.391 45.758,3.352 45.758,3.352 V 1.256 c 0,0 -0.008,-0.552 -0.008,-0.746 0.2,-0.03 0.398,-0.063 0.595,-0.1 m 0.909,-0.208 c -0.193,0.052 -0.387,0.099 -0.583,0.142 0,0.147 0.002,0.912 0.002,0.912 v 2.14 c 0,0 0.392,-0.019 0.58,-0.044 V 1.256 Z m 0.913,-0.283 c -0.193,0.07 -0.387,0.132 -0.584,0.191 0,0.153 0.005,1.247 0.005,1.247 V 3.3 c 0,0 0.395,-0.086 0.579,-0.144 V 1.357 Z"/></g><g transform="translate(226.1732,750.2943)" id="g510"><path inkscape:connector-curvature="0" id="path512" style="fill:#c4122e;fill-opacity:1;fill-rule:nonzero;stroke:none" d="m 0,0 c 0.781,-0.427 1.53,-0.627 2.02,-0.717 0.011,-0.002 0.02,-0.004 0.029,-0.004 0.035,0 0.069,0.011 0.096,0.034 0.036,0.028 0.057,0.069 0.059,0.114 C 2.237,0.259 2.052,0.998 1.971,1.277 1.959,1.319 1.93,1.354 1.891,1.373 0.896,1.855 0.09,2.383 -0.504,2.945 -0.937,3.355 -1.252,3.774 -1.437,4.191 -1.46,4.242 -1.508,4.276 -1.563,4.282 -1.619,4.288 -1.673,4.262 -1.705,4.217 -2.033,3.746 -2.274,3.198 -2.4,2.634 -2.407,2.602 -2.403,2.568 -2.389,2.537 -1.897,1.452 -1.093,0.598 0,0"/></g><g transform="translate(225.8749,753.4811)" id="g514"><path inkscape:connector-curvature="0" id="path516" style="fill:#c4122e;fill-opacity:1;fill-rule:nonzero;stroke:none" d="M 0,0 C 0.029,-0.027 0.067,-0.042 0.107,-0.042 H 0.12 C 0.164,-0.039 0.205,-0.016 0.231,0.02 1.392,1.587 2.664,2.169 3.527,2.382 3.594,2.397 3.642,2.457 3.645,2.526 3.647,2.595 3.604,2.657 3.538,2.678 3.1,2.821 2.643,2.893 2.178,2.893 1.588,2.893 1.011,2.776 0.463,2.543 -0.059,2.32 -0.525,2.005 -0.925,1.605 -0.962,1.568 -0.977,1.512 -0.965,1.461 -0.901,1.2 -0.693,0.663 0,0"/></g><g transform="translate(226.3288,753.2783)" id="g518"><path inkscape:connector-curvature="0" id="path520" style="fill:#c4122e;fill-opacity:1;fill-rule:nonzero;stroke:none" d="m 0,0 c -0.049,-0.067 -0.036,-0.162 0.03,-0.212 0.478,-0.373 1.062,-0.732 1.739,-1.068 0.022,-0.01 0.045,-0.015 0.068,-0.015 0.044,0 0.087,0.018 0.117,0.054 C 2.359,-0.772 3.508,0.348 5.43,0.645 5.48,0.652 5.524,0.684 5.547,0.729 5.569,0.774 5.568,0.828 5.542,0.872 5.203,1.47 4.722,1.987 4.151,2.365 4.127,2.381 4.098,2.39 4.069,2.391 3.896,2.396 3.244,2.385 2.414,2.021 1.503,1.622 0.689,0.942 0,0"/></g><g transform="translate(232.1555,753.5414)" id="g522"><path inkscape:connector-curvature="0" id="path524" style="fill:#c4122e;fill-opacity:1;fill-rule:nonzero;stroke:none" d="M 0,0 C -0.025,0.067 -0.092,0.108 -0.163,0.099 -0.504,0.057 -0.839,-0.014 -1.159,-0.115 -1.198,-0.127 -1.232,-0.155 -1.25,-0.191 -1.268,-0.228 -1.272,-0.27 -1.259,-0.31 c 0.113,-0.349 0.309,-1.06 0.344,-1.896 0.022,-0.529 -0.024,-1.036 -0.136,-1.502 -0.075,-0.31 -0.18,-0.609 -0.312,-0.886 -0.032,-0.067 -0.012,-0.148 0.047,-0.191 0.028,-0.021 0.059,-0.03 0.092,-0.03 0.038,0 0.075,0.013 0.105,0.04 0.477,0.439 0.843,0.97 1.088,1.576 C 0.383,-2.172 0.394,-1.034 0,0"/></g><g transform="translate(228.2797,749.1976)" id="g526"><path inkscape:connector-curvature="0" id="path528" style="fill:#c4122e;fill-opacity:1;fill-rule:nonzero;stroke:none" d="M 0,0 C -0.023,0.034 -0.059,0.058 -0.1,0.065 -0.58,0.153 -1.317,0.342 -2.1,0.744 -3.033,1.223 -3.781,1.877 -4.323,2.687 -4.362,2.745 -4.435,2.77 -4.501,2.749 -4.566,2.727 -4.609,2.664 -4.606,2.595 -4.586,2.07 -4.47,1.557 -4.264,1.071 c 0.308,-0.723 0.803,-1.35 1.433,-1.815 0.605,-0.444 1.319,-0.728 2.066,-0.821 0.007,-0.002 0.012,-0.002 0.019,-0.002 0.044,0 0.086,0.02 0.116,0.054 0.326,0.376 0.547,0.847 0.654,1.396 C 0.032,-0.076 0.023,-0.034 0,0"/></g><g transform="translate(230.6088,753.1074)" id="g530"><path inkscape:connector-curvature="0" id="path532" style="fill:#c4122e;fill-opacity:1;fill-rule:nonzero;stroke:none" d="m 0,0 c -0.014,0.042 -0.044,0.076 -0.084,0.094 -0.04,0.018 -0.087,0.018 -0.126,-0.001 -1.047,-0.468 -1.69,-1.146 -1.918,-1.415 -0.034,-0.041 -0.046,-0.094 -0.031,-0.144 0.087,-0.29 0.233,-0.881 0.25,-1.586 0.01,-0.442 -0.033,-0.857 -0.128,-1.235 -0.091,-0.359 -0.232,-0.691 -0.418,-0.981 -0.031,-0.05 -0.032,-0.11 -0.003,-0.162 0.029,-0.046 0.078,-0.075 0.133,-0.075 h 0.009 c 0.44,0.024 0.88,0.12 1.308,0.281 0.019,0.006 0.037,0.017 0.052,0.032 0.453,0.426 0.792,0.937 1.006,1.517 0.179,0.486 0.272,1.027 0.277,1.606 C 0.333,-1.168 0.125,-0.386 0,0"/></g></g></g></g></svg>