<?xml version="1.0" encoding="UTF-8" standalone="no"?>
<svg
   xmlns:dc="http://purl.org/dc/elements/1.1/"
   xmlns:cc="http://creativecommons.org/ns#"
   xmlns:rdf="http://www.w3.org/1999/02/22-rdf-syntax-ns#"
   xmlns:svg="http://www.w3.org/2000/svg"
   xmlns="http://www.w3.org/2000/svg"
   xmlns:sodipodi="http://sodipodi.sourceforge.net/DTD/sodipodi-0.dtd"
   xmlns:inkscape="http://www.inkscape.org/namespaces/inkscape"
   inkscape:version="1.0 (4035a4f, 2020-05-01)"
   sodipodi:docname="58.svg"
   id="svg1168"
   height="200.0pt"
   width="200.0pt"
   viewBox="0 0 200 200"
   version="1.1">
  <metadata
     id="metadata1174">
    <rdf:RDF>
      <cc:Work
         rdf:about="">
        <dc:format>image/svg+xml</dc:format>
        <dc:type
           rdf:resource="http://purl.org/dc/dcmitype/StillImage" />
      </cc:Work>
    </rdf:RDF>
  </metadata>
  <defs
     id="defs1172" />
  <sodipodi:namedview
     inkscape:current-layer="svg1168"
     inkscape:cy="133.33333"
     inkscape:cx="133.33333"
     inkscape:zoom="1.75125"
     showgrid="false"
     id="namedview1170"
     inkscape:window-height="480"
     inkscape:window-width="640"
     inkscape:pageshadow="2"
     inkscape:pageopacity="0"
     guidetolerance="10"
     gridtolerance="10"
     objecttolerance="10"
     borderopacity="1"
     bordercolor="#666666"
     pagecolor="#ffffff" />
  <path
     style="fill:#ffffff;fill-opacity:0.00404858"
     id="path1144"
     fill="#ffffff"
     d="M 0.00 0.00 L 29.70 0.00 C 29.50 49.62 29.70 99.37 29.60 149.00 C 29.58 153.57 29.93 157.94 31.96 162.10 C 35.52 169.61 42.38 174.72 49.61 178.40 C 61.26 184.28 75.15 187.41 87.54 191.56 C 92.29 193.33 96.63 195.61 99.45 200.00 L 0.00 200.00 L 0.00 0.00 Z" />
  <path
     id="path1146"
     fill="#7b0039"
     d="M 29.70 0.00 L 170.33 0.00 C 170.53 49.62 170.33 99.37 170.44 149.00 C 170.51 153.55 170.05 157.98 168.03 162.11 C 164.47 169.56 157.53 174.71 150.32 178.32 C 138.40 184.18 124.16 187.30 111.71 191.78 C 107.14 193.44 103.05 195.99 100.17 200.00 L 99.45 200.00 C 96.63 195.61 92.29 193.33 87.54 191.56 C 75.15 187.41 61.26 184.28 49.61 178.40 C 42.38 174.72 35.52 169.61 31.96 162.10 C 29.93 157.94 29.58 153.57 29.60 149.00 C 29.70 99.37 29.50 49.62 29.70 0.00 Z" />
  <path
     style="fill:#ffffff;fill-opacity:0.00809717"
     id="path1148"
     fill="#ffffff"
     d="M 170.33 0.00 L 200.00 0.00 L 200.00 200.00 L 100.17 200.00 C 103.05 195.99 107.14 193.44 111.71 191.78 C 124.16 187.30 138.40 184.18 150.32 178.32 C 157.53 174.71 164.47 169.56 168.03 162.11 C 170.05 157.98 170.51 153.55 170.44 149.00 C 170.33 99.37 170.53 49.62 170.33 0.00 Z" />
  <path
     id="path1150"
     fill="#a3c3e9"
     d="M 34.58 5.19 C 78.18 5.23 121.79 5.23 165.39 5.20 C 165.40 51.46 165.37 97.73 165.41 144.00 C 165.37 149.41 165.87 155.34 163.34 160.31 C 160.11 166.85 153.77 171.29 147.34 174.35 C 135.88 179.70 122.22 182.38 110.41 186.41 C 106.32 187.76 103.05 190.26 99.88 193.08 C 96.59 190.11 93.03 187.66 88.79 186.23 C 75.47 181.88 59.45 178.99 47.46 171.56 C 40.09 166.96 34.49 160.10 34.59 151.02 C 34.58 102.41 34.59 53.80 34.58 5.19 Z" />
  <path
     id="path1152"
     fill="#7b0039"
     d="M 58.67 11.25 C 62.08 20.64 64.80 30.36 68.82 39.51 C 70.31 40.09 71.78 40.70 73.25 41.32 C 68.10 42.03 62.83 41.95 57.67 41.41 C 59.01 40.73 60.34 40.04 61.67 39.35 C 60.85 36.78 60.01 34.22 59.19 31.65 C 56.49 31.64 53.79 31.64 51.09 31.66 C 50.31 34.17 49.53 36.67 48.76 39.18 C 50.14 39.99 51.52 40.80 52.87 41.65 C 48.77 41.89 44.66 41.89 40.58 41.38 C 42.02 40.71 43.47 40.06 44.93 39.43 C 48.63 31.34 51.24 22.76 54.50 14.49 C 55.03 14.04 55.57 13.61 56.12 13.18 C 56.97 12.53 57.82 11.89 58.67 11.25 Z" />
  <path
     id="path1154"
     fill="#7b0039"
     d="M 82.65 12.59 C 81.40 13.27 80.14 13.95 78.88 14.60 C 81.29 20.84 83.73 27.06 86.16 33.29 C 88.67 27.20 91.04 21.06 93.32 14.88 C 92.13 14.00 90.96 13.10 89.81 12.17 C 93.65 12.12 97.66 12.08 101.50 12.44 C 99.38 13.89 97.25 14.62 96.04 17.01 C 91.89 24.94 89.22 33.64 85.47 41.73 C 84.87 43.42 82.53 42.28 82.34 40.75 C 79.13 32.88 76.21 24.87 72.92 17.03 C 71.96 14.57 69.78 14.02 67.79 12.50 C 72.70 11.90 77.74 11.95 82.65 12.59 Z" />
  <path
     id="path1156"
     fill="#7b0039"
     d="M 126.02 12.15 C 125.92 14.87 125.81 17.59 125.59 20.30 C 124.41 18.53 123.43 16.52 122.00 14.93 C 119.38 13.88 116.07 14.31 113.28 14.21 C 113.21 18.03 113.21 21.84 113.33 25.66 C 115.75 25.60 118.17 25.47 120.59 25.34 C 121.44 23.83 122.30 22.33 123.20 20.85 C 123.45 24.73 123.42 28.61 123.32 32.50 C 122.24 31.07 121.33 29.38 120.05 28.15 C 117.82 27.79 115.50 27.83 113.24 27.79 C 113.17 31.67 113.20 35.55 113.58 39.41 C 115.23 40.03 116.86 40.67 118.49 41.33 C 112.94 42.02 107.13 42.04 101.58 41.32 C 103.17 40.66 104.76 40.02 106.37 39.41 C 106.88 33.31 106.65 27.16 106.73 21.00 C 106.67 19.04 106.81 16.87 106.22 14.98 C 105.08 14.06 103.89 13.18 102.67 12.36 C 110.44 11.95 118.24 12.32 126.02 12.15 Z" />
  <path
     id="path1158"
     fill="#7b0039"
     d="M 157.02 12.60 C 157.18 15.35 157.33 18.10 157.41 20.86 C 154.96 18.05 153.26 13.97 149.06 13.63 C 143.68 12.88 139.02 16.90 137.91 22.00 C 136.69 27.40 137.35 34.37 141.88 38.15 C 144.87 40.83 149.56 41.27 152.84 38.85 C 155.02 37.03 156.58 34.45 158.45 32.32 C 158.20 35.21 157.76 38.04 157.17 40.87 C 151.56 42.19 146.39 43.34 140.72 41.42 C 135.14 39.75 130.88 34.91 130.42 29.03 C 129.80 22.94 132.52 16.91 137.98 13.95 C 144.15 10.50 150.39 11.39 157.02 12.60 Z" />
  <path
     id="path1160"
     fill="#a3c3e9"
     d="M 55.18 19.46 C 56.31 22.70 57.36 25.95 58.38 29.23 C 56.19 29.23 54.00 29.22 51.81 29.20 C 52.91 25.94 54.00 22.69 55.18 19.46 Z" />
  <path
     id="path1162"
     fill="#ffe300"
     d="M 94.02 47.28 C 94.22 48.51 94.42 49.74 94.63 50.97 C 96.60 49.82 98.75 48.35 100.99 47.86 C 103.04 47.53 105.22 47.74 107.29 47.81 C 106.36 48.75 105.44 49.68 104.51 50.61 C 108.97 50.63 112.95 50.37 116.53 53.47 C 120.03 56.73 122.45 60.63 126.82 62.96 C 125.74 63.29 124.67 63.62 123.60 63.94 C 125.21 68.00 126.04 72.03 128.84 75.51 C 127.44 75.46 126.06 75.38 124.67 75.30 C 124.72 79.02 124.83 82.60 126.02 86.17 C 124.88 85.77 123.74 85.34 122.62 84.86 C 122.58 90.01 121.02 94.36 123.53 99.21 C 121.86 98.58 120.19 97.95 118.52 97.31 C 117.87 102.04 116.50 106.06 118.29 110.75 C 120.18 115.69 122.61 120.32 123.81 125.52 C 127.98 127.80 133.12 130.81 138.03 130.19 C 141.53 129.73 143.19 126.33 142.74 123.08 C 142.00 117.53 137.60 113.86 134.05 109.97 C 130.10 105.76 127.05 101.00 127.61 94.96 C 128.03 90.93 130.46 88.46 132.91 85.50 C 133.39 82.78 133.08 79.45 135.54 77.61 C 138.14 75.50 140.82 73.57 143.12 71.11 C 142.94 72.55 142.75 73.98 142.57 75.41 C 145.88 73.23 149.03 71.03 151.58 67.95 C 151.51 69.59 151.43 71.22 151.34 72.86 C 154.07 71.12 155.83 69.36 157.68 66.72 C 157.87 69.43 158.36 72.31 157.77 74.97 C 157.02 78.59 155.04 81.48 153.14 84.56 C 154.39 84.90 155.63 85.25 156.88 85.61 C 153.52 87.25 150.59 89.63 147.25 91.25 C 143.05 93.01 138.63 90.90 134.69 89.44 C 133.04 92.50 131.45 95.15 132.43 98.79 C 134.36 106.95 144.61 111.72 147.01 120.06 C 148.69 125.80 146.18 132.34 140.24 134.24 C 134.39 135.97 128.53 132.98 123.35 130.56 C 122.72 133.56 121.66 136.93 122.01 140.00 C 122.43 143.10 124.82 145.70 128.05 145.81 C 131.47 146.14 134.01 143.12 136.52 141.27 C 136.29 143.91 135.94 146.53 135.53 149.16 C 137.12 148.72 138.70 148.29 140.29 147.86 C 138.37 151.16 135.90 153.63 133.00 156.07 L 137.18 155.71 C 134.82 158.10 132.14 160.45 130.39 163.32 C 128.89 165.76 127.64 168.35 126.22 170.84 C 125.13 170.18 124.06 169.52 122.92 168.97 C 119.35 171.38 117.38 176.39 113.61 178.68 C 111.16 180.25 108.51 179.65 105.76 179.59 C 105.03 180.38 104.29 181.18 103.55 181.97 C 103.51 180.93 103.48 179.89 103.44 178.84 C 102.25 178.03 101.06 177.21 99.88 176.39 C 98.67 177.12 97.47 177.85 96.27 178.59 C 97.38 176.47 98.52 174.36 99.68 172.26 C 98.13 172.39 96.58 172.60 95.03 172.73 C 96.37 170.92 97.69 168.79 99.46 167.37 C 101.51 166.43 103.82 165.95 106.00 165.34 C 107.06 166.20 108.15 167.04 109.26 167.85 C 112.31 166.80 115.16 165.83 117.47 163.47 C 119.70 161.37 120.70 158.74 121.75 155.95 C 119.86 155.39 117.95 154.85 116.05 154.33 C 114.59 156.36 113.09 158.32 111.49 160.25 C 110.71 158.55 109.91 156.86 109.10 155.18 C 107.56 156.44 105.97 157.65 104.43 158.92 C 104.04 157.03 104.15 154.65 102.97 153.08 C 101.32 150.39 98.96 148.44 99.33 145.00 C 99.86 140.78 102.28 137.04 102.99 132.79 C 100.63 136.64 99.09 140.61 95.47 143.54 C 92.57 145.90 92.73 150.18 95.19 152.78 C 96.72 153.99 98.82 154.55 100.57 155.36 C 98.13 156.22 95.70 156.83 93.15 157.31 C 94.88 158.03 96.58 158.78 98.29 159.55 C 95.77 160.05 93.52 160.24 90.96 159.96 C 86.79 159.04 82.89 163.01 79.03 164.47 C 78.35 163.25 77.62 162.08 76.84 160.93 C 72.73 161.69 69.58 164.67 65.77 165.68 C 63.87 166.02 61.75 165.49 59.85 165.23 C 59.25 166.14 58.64 167.04 58.04 167.95 C 58.08 166.00 58.13 164.04 58.18 162.09 C 57.13 161.32 56.08 160.55 55.03 159.78 C 54.18 160.75 53.34 161.71 52.49 162.68 C 53.28 159.82 54.27 157.04 55.23 154.23 C 53.95 154.62 52.66 155.00 51.37 155.36 C 53.36 152.71 54.87 151.80 57.91 150.63 C 56.68 150.08 55.45 149.56 54.21 149.05 C 58.53 147.14 62.26 148.54 65.81 151.24 C 69.47 154.29 74.13 153.96 78.33 152.32 C 80.19 151.47 81.76 150.20 82.06 148.05 C 80.77 145.07 78.39 142.50 76.57 139.81 C 74.71 138.87 72.86 137.91 71.07 136.83 C 72.79 136.63 74.51 136.39 76.22 136.16 C 74.42 135.04 72.77 133.75 71.07 132.50 C 72.39 132.31 73.70 132.14 75.02 131.97 C 77.19 129.94 78.78 127.46 82.01 127.27 C 85.80 126.91 89.45 126.70 93.02 125.22 C 90.51 122.41 88.02 119.59 85.62 116.68 C 79.89 117.56 72.64 119.14 68.55 123.59 C 67.01 126.42 66.61 129.82 65.23 132.77 C 65.25 133.68 65.27 134.59 65.30 135.50 C 64.07 133.92 62.81 132.37 61.53 130.83 C 60.31 131.46 59.08 132.09 57.84 132.70 C 57.49 133.59 57.13 134.48 56.77 135.36 C 56.38 132.94 56.15 130.50 55.91 128.07 C 55.29 127.75 54.68 127.44 54.07 127.12 C 53.72 126.32 53.37 125.52 53.02 124.71 C 51.68 125.01 50.34 125.31 48.99 125.61 C 50.83 123.92 52.77 122.38 54.74 120.85 C 54.42 120.04 54.10 119.24 53.78 118.43 C 52.79 118.55 51.80 118.68 50.81 118.81 C 51.53 117.85 52.25 116.90 52.98 115.95 C 54.68 115.66 56.38 115.36 58.08 115.07 C 59.48 116.25 60.87 117.45 62.27 118.65 C 67.43 115.18 72.27 111.15 77.22 107.34 C 75.29 105.56 73.36 103.76 71.44 101.96 C 71.03 103.05 70.62 104.13 70.21 105.22 C 68.03 100.48 65.52 96.10 59.97 95.02 C 56.99 95.33 53.70 98.83 50.36 98.54 C 49.15 97.68 48.13 96.45 47.11 95.37 C 48.18 95.58 49.26 95.78 50.34 95.99 C 50.60 95.37 50.86 94.75 51.12 94.12 C 52.41 93.26 53.71 92.40 54.98 91.50 C 53.02 90.36 50.97 89.91 48.74 89.58 C 48.07 89.04 47.41 88.50 46.75 87.96 C 45.44 88.21 44.14 88.46 42.84 88.72 C 44.95 86.47 47.07 84.22 48.98 81.78 C 47.08 80.71 45.16 79.69 43.20 78.73 C 45.69 78.02 47.95 77.69 50.55 77.71 C 51.03 76.98 51.54 76.24 51.93 75.45 C 51.07 74.16 50.09 72.94 49.13 71.70 C 52.25 72.37 54.46 73.70 56.93 75.64 C 57.32 78.36 57.38 81.74 58.80 84.15 C 59.85 86.09 61.96 86.45 63.83 87.29 C 67.37 88.56 70.44 90.68 73.88 92.13 C 76.69 93.31 79.44 93.29 82.44 93.55 C 80.98 95.28 79.57 97.03 78.21 98.83 C 80.95 96.91 82.83 94.37 84.82 91.75 C 87.02 88.85 90.29 87.26 92.59 84.55 C 94.00 82.65 93.79 80.67 92.02 79.07 C 88.68 80.22 86.40 82.52 84.45 85.37 L 82.81 83.95 L 82.65 87.54 C 79.66 84.57 79.10 82.98 78.58 78.75 C 80.01 78.90 81.47 79.11 82.91 79.12 C 84.65 77.96 85.27 75.21 86.15 73.44 C 84.12 73.29 82.17 72.92 80.18 73.22 C 78.44 73.51 78.20 75.66 77.29 76.94 C 75.47 74.78 73.89 72.49 72.37 70.11 C 76.97 66.64 80.15 61.88 84.73 58.42 C 86.50 53.36 90.45 50.93 94.02 47.28 Z" />
  <path
     id="path1164"
     fill="#ffffff"
     d="M 55.02 49.93 C 55.77 51.25 56.52 52.57 57.26 53.88 C 58.83 54.20 60.39 54.52 61.95 54.84 C 60.84 55.97 59.73 57.10 58.62 58.22 C 58.86 59.87 59.10 61.52 59.34 63.17 C 57.89 62.42 56.43 61.67 54.98 60.92 C 53.56 61.68 52.13 62.44 50.71 63.20 C 50.94 61.53 51.17 59.85 51.40 58.18 C 50.30 57.13 49.20 56.08 48.10 55.04 C 49.62 54.60 51.16 54.18 52.65 53.68 C 53.48 52.46 54.25 51.19 55.02 49.93 Z" />
  <path
     id="path1166"
     fill="#a3c3e9"
     d="M 86.64 63.19 C 85.78 64.46 84.93 65.84 83.89 66.95 C 82.61 67.27 81.82 66.56 81.52 64.82 C 83.16 64.04 84.89 63.64 86.64 63.19 Z" />
</svg>
