<?xml version="1.0" encoding="UTF-8" standalone="no"?>
<!DOCTYPE svg PUBLIC "-//W3C//DTD SVG 1.1//EN" "http://www.w3.org/Graphics/SVG/1.1/DTD/svg11.dtd">
<svg xmlns="http://www.w3.org/2000/svg" version="1.1" viewBox="0 0 200 200" width="200.0pt" height="200.0pt">
<path d="M 0.00 0.00 L 96.61 0.00 C 85.36 0.81 73.68 1.92 62.74 4.70 C 57.55 5.95 52.55 7.70 47.48 9.32 C 38.75 12.05 29.89 13.24 20.82 14.05 C 21.26 27.67 22.47 41.28 23.03 54.90 C 24.92 56.93 27.03 58.23 27.34 61.22 C 28.47 72.09 28.77 83.10 29.68 94.00 C 30.42 109.35 31.71 124.67 32.24 140.03 C 33.02 150.11 32.48 161.33 37.50 170.46 C 42.67 179.97 52.92 185.15 63.28 186.85 C 69.21 187.49 75.89 187.73 81.71 189.44 C 87.05 191.12 91.09 195.73 94.43 200.00 L 0.00 200.00 L 0.00 0.00 Z" fill-opacity="0"/>
<path d="M 96.61 0.00 L 103.52 0.00 L 104.52 0.05 L 105.30 0.10 C 119.60 1.23 133.62 2.89 147.25 7.62 C 157.56 11.35 168.30 13.17 179.19 14.05 C 178.71 27.67 177.49 41.28 176.97 54.91 C 174.76 57.11 172.61 58.66 172.49 62.07 C 170.44 91.33 168.63 120.72 167.17 150.01 C 166.75 158.01 165.49 166.96 160.53 173.53 C 155.17 180.99 145.77 185.37 136.89 186.81 C 130.66 187.52 123.56 187.71 117.54 189.70 C 112.18 191.76 109.09 195.83 105.49 200.00 L 94.43 200.00 C 91.09 195.73 87.05 191.12 81.71 189.44 C 75.89 187.73 69.21 187.49 63.28 186.85 C 52.92 185.15 42.67 179.97 37.50 170.46 C 32.48 161.33 33.02 150.11 32.24 140.03 C 31.71 124.67 30.42 109.35 29.68 94.00 C 28.77 83.10 28.47 72.09 27.34 61.22 C 27.03 58.23 24.92 56.93 23.03 54.90 C 22.47 41.28 21.26 27.67 20.82 14.05 C 29.89 13.24 38.75 12.05 47.48 9.32 C 52.55 7.70 57.55 5.95 62.74 4.70 C 73.68 1.92 85.36 0.81 96.61 0.00 Z" fill="#eb1a2f"/>
<path d="M 103.52 0.00 L 200.00 0.00 L 200.00 200.00 L 105.49 200.00 C 109.09 195.83 112.18 191.76 117.54 189.70 C 123.56 187.71 130.66 187.52 136.89 186.81 C 145.77 185.37 155.17 180.99 160.53 173.53 C 165.49 166.96 166.75 158.01 167.17 150.01 C 168.63 120.72 170.44 91.33 172.49 62.07 C 172.61 58.66 174.76 57.11 176.97 54.91 C 177.49 41.28 178.71 27.67 179.19 14.05 C 168.30 13.17 157.56 11.35 147.25 7.62 C 133.62 2.89 119.60 1.23 105.30 0.10 L 104.52 0.05 L 103.52 0.00 Z" fill-opacity="0"/>
<path d="M 147.73 12.43 C 156.45 15.45 165.49 17.10 174.65 18.01 C 173.98 29.62 173.32 41.23 172.59 52.83 C 170.86 54.82 168.85 56.42 168.49 59.17 C 167.49 65.88 167.44 72.74 166.87 79.50 C 165.59 101.68 163.88 123.84 163.05 146.03 C 162.65 152.72 162.33 160.38 159.52 166.54 C 156.55 173.09 150.87 177.67 144.26 180.24 C 134.54 184.35 124.32 181.92 114.26 186.27 C 109.83 188.40 106.62 191.99 103.40 195.58 C 101.15 195.59 98.90 195.59 96.66 195.58 C 93.42 192.00 90.13 188.38 85.69 186.26 C 75.73 181.93 65.32 184.33 55.74 180.26 C 50.99 178.39 46.69 175.52 43.49 171.49 C 39.69 166.74 38.30 160.96 37.61 155.03 C 36.61 145.46 36.69 135.65 35.98 126.02 C 34.76 105.85 33.54 85.67 32.20 65.49 C 32.01 63.14 31.85 60.74 31.30 58.44 C 30.81 56.29 28.81 54.46 27.41 52.83 C 26.64 41.23 25.99 29.62 25.36 18.01 C 32.86 17.24 40.52 16.01 47.76 13.86 C 57.02 10.78 66.27 7.91 75.96 6.53 C 99.72 3.04 124.97 4.46 147.73 12.43 Z" fill="#ffffff"/>
<path d="M 108.71 8.80 C 105.55 11.15 102.34 13.36 99.30 15.89 C 104.83 15.88 107.72 11.96 112.07 9.07 C 120.75 9.75 129.35 11.11 137.75 13.42 C 143.33 14.88 148.67 17.04 154.25 18.47 C 159.63 19.88 165.07 20.75 170.56 21.54 C 170.14 29.44 169.52 37.33 169.23 45.24 C 169.02 47.33 169.20 50.09 167.96 51.87 C 166.24 54.43 164.59 56.74 164.43 59.95 C 163.00 75.48 162.32 91.09 161.30 106.66 C 156.46 110.98 151.54 115.22 146.75 119.60 C 142.53 118.89 138.37 118.00 134.31 116.65 C 131.74 116.05 130.11 114.54 127.72 116.55 C 133.60 119.14 139.78 120.60 146.07 121.75 C 146.86 133.56 144.48 145.18 140.02 156.09 C 130.24 153.68 120.54 150.67 111.26 146.71 C 109.19 145.82 107.10 145.05 104.95 144.36 C 105.88 146.00 106.51 147.04 108.28 147.72 C 118.19 152.00 128.71 155.32 139.17 157.96 C 135.33 165.97 130.65 173.05 124.70 179.64 C 120.27 180.47 115.33 181.12 111.39 183.38 C 107.50 185.54 104.60 188.49 101.53 191.62 C 100.52 191.62 99.51 191.63 98.51 191.63 C 96.13 189.21 93.85 186.87 91.04 184.94 C 87.25 182.28 82.56 180.81 78.35 178.66 C 64.73 171.98 53.32 161.85 44.20 149.80 C 42.77 147.79 40.71 145.60 40.70 143.01 C 39.71 120.01 38.10 97.02 36.64 74.04 C 43.41 93.33 55.33 111.41 71.11 124.49 C 71.10 120.47 67.95 119.16 65.57 116.45 C 53.09 103.47 43.01 87.55 37.81 70.25 C 35.92 64.39 36.08 58.52 33.22 52.95 C 45.30 46.91 58.47 44.12 71.92 43.63 C 73.27 49.52 74.64 55.23 77.13 60.76 C 77.77 58.81 78.08 57.45 77.39 55.47 C 76.16 51.31 74.92 47.18 74.03 42.94 C 76.24 40.32 78.40 37.67 80.29 34.80 C 76.43 35.76 74.73 38.52 72.39 41.36 C 58.06 41.78 43.95 44.84 31.20 51.53 C 30.58 41.54 30.04 31.54 29.41 21.54 C 38.02 20.39 46.50 18.64 54.70 15.71 C 72.15 9.74 90.35 8.02 108.71 8.80 Z" fill="#eb1a2f"/>
<path d="M 87.52 18.49 C 93.75 18.11 100.00 18.49 106.23 18.02 C 104.18 22.08 103.25 26.42 102.27 30.84 C 101.07 30.84 99.87 30.84 98.66 30.84 C 98.14 29.11 97.61 27.38 97.08 25.66 C 96.64 27.39 96.21 29.11 95.77 30.84 C 94.52 30.87 93.27 30.89 92.03 30.91 C 90.92 26.51 89.55 22.55 87.52 18.49 Z" fill="#ffffff"/>
<path d="M 120.57 19.17 C 120.20 20.98 119.82 22.78 119.41 24.57 C 118.67 23.35 117.87 22.18 117.01 21.05 C 115.72 20.57 114.31 20.36 112.97 20.05 C 112.91 21.47 112.85 22.89 112.80 24.31 C 114.10 23.42 115.40 22.51 116.71 21.62 C 116.46 23.89 116.19 26.15 115.84 28.41 C 114.84 27.28 113.84 26.15 112.83 25.03 C 112.66 26.64 112.50 28.25 112.35 29.85 C 113.72 29.72 115.12 29.66 116.46 29.37 C 117.58 28.26 118.49 26.91 119.49 25.68 C 119.56 27.71 119.57 29.73 119.58 31.75 C 114.96 31.56 110.37 31.31 105.82 30.44 C 106.80 29.81 107.78 29.18 108.76 28.56 C 108.94 25.93 109.15 23.32 109.35 20.70 C 108.42 19.97 107.49 19.25 106.57 18.52 C 111.30 18.22 115.87 18.68 120.57 19.17 Z" fill="#ffffff"/>
<path d="M 86.07 18.54 C 86.21 20.37 86.33 22.21 86.44 24.05 C 84.87 22.73 83.33 21.40 81.73 20.13 C 81.94 23.21 82.25 26.29 82.54 29.37 C 83.55 29.94 84.55 30.52 85.56 31.10 C 82.58 31.70 79.57 32.08 76.54 32.34 C 77.30 31.43 78.06 30.52 78.84 29.62 C 78.58 26.76 78.31 23.91 78.05 21.05 C 77.39 21.34 76.73 21.62 76.07 21.91 C 75.66 23.16 75.23 24.41 74.81 25.66 C 74.18 23.74 73.58 21.82 72.97 19.90 C 77.34 19.45 81.71 18.99 86.07 18.54 Z" fill="#ffffff"/>
<path d="M 93.94 19.34 C 97.51 21.01 95.08 25.01 94.63 27.80 C 94.32 25.67 91.37 20.69 93.94 19.34 Z" fill="#eb1a2f"/>
<path d="M 98.97 19.77 C 100.26 19.72 101.56 19.68 102.86 19.65 C 102.30 22.29 101.69 24.92 101.05 27.55 C 100.32 24.96 99.63 22.37 98.97 19.77 Z" fill="#eb1a2f"/>
<path d="M 121.55 19.48 C 123.94 19.62 126.31 19.82 128.69 20.08 C 129.89 23.19 131.04 26.32 132.19 29.45 C 132.57 27.52 132.94 25.58 133.31 23.65 C 132.52 22.64 131.73 21.63 130.94 20.62 C 133.41 20.95 135.87 21.33 138.32 21.78 C 137.33 22.42 136.34 23.06 135.35 23.70 C 134.85 27.07 134.35 30.45 133.86 33.82 C 132.55 33.65 131.23 33.48 129.92 33.30 C 128.66 29.92 127.38 26.55 125.99 23.23 C 125.70 26.83 124.20 29.57 127.06 32.61 C 124.59 32.45 122.24 32.08 119.85 31.41 C 120.86 30.88 121.87 30.36 122.89 29.84 C 123.31 27.19 123.71 24.54 124.12 21.89 C 123.26 21.10 122.40 20.29 121.55 19.48 Z" fill="#ffffff"/>
<path d="M 63.17 21.52 C 63.54 23.18 63.92 24.83 64.30 26.49 C 63.87 26.59 63.45 26.70 63.02 26.80 C 61.14 24.97 59.67 22.66 56.98 24.95 C 55.26 26.74 56.58 33.04 59.21 33.69 C 62.82 34.27 62.79 30.78 64.35 28.50 C 64.71 30.23 65.46 31.70 64.31 33.35 C 62.65 35.65 58.99 36.23 56.40 35.54 C 51.49 34.01 50.46 25.58 55.24 23.26 C 57.72 22.25 60.57 22.12 63.17 21.52 Z" fill="#ffffff"/>
<path d="M 138.60 21.75 C 139.66 22.00 140.72 22.24 141.78 22.48 C 145.02 23.23 148.26 23.98 151.49 24.75 C 150.82 26.54 150.14 28.33 149.42 30.10 C 148.58 28.26 147.75 26.42 146.86 24.61 C 145.93 27.61 145.17 30.65 144.47 33.71 C 145.22 34.64 145.96 35.58 146.69 36.52 C 143.52 36.10 140.53 35.54 137.75 33.90 C 138.79 33.64 139.83 33.38 140.87 33.12 C 141.60 30.02 142.27 26.91 142.75 23.76 C 141.19 24.94 139.66 26.16 138.13 27.39 C 138.25 25.51 138.42 23.63 138.60 21.75 Z" fill="#ffffff"/>
<path d="M 153.34 25.51 C 157.29 26.23 161.19 27.74 165.04 28.93 C 164.40 30.71 163.76 32.48 163.10 34.24 C 162.55 32.89 161.96 31.56 161.32 30.25 C 160.26 29.31 158.82 28.76 157.57 28.09 C 157.25 29.59 156.92 31.09 156.62 32.59 C 157.97 31.82 159.32 31.05 160.67 30.28 C 160.02 32.53 159.33 34.76 158.58 36.97 C 157.86 35.76 157.11 34.56 156.34 33.39 C 155.71 34.64 155.10 35.90 154.52 37.18 C 155.95 37.56 157.38 37.94 158.82 38.32 C 160.08 37.21 161.36 36.12 162.65 35.05 C 162.23 37.07 161.76 39.07 161.26 41.07 C 156.67 39.64 152.35 38.87 148.25 36.22 C 149.30 36.05 150.36 35.88 151.41 35.71 C 152.21 32.12 155.03 28.76 152.27 25.41 C 152.63 25.44 152.98 25.47 153.34 25.51 Z" fill="#ffffff"/>
<path d="M 47.18 25.26 C 47.67 27.10 48.16 28.95 48.61 30.80 C 47.30 29.92 46.01 29.01 44.72 28.09 C 43.40 28.43 42.07 28.78 40.75 29.12 C 41.14 30.30 41.54 31.49 41.93 32.67 C 42.28 32.45 42.62 32.24 42.96 32.02 C 43.49 31.03 44.03 30.04 44.57 29.05 C 45.30 31.28 45.98 33.51 46.62 35.77 C 45.22 35.03 43.83 34.30 42.43 33.57 C 42.75 34.88 43.07 36.19 43.40 37.50 C 44.50 37.72 45.61 37.95 46.71 38.18 C 44.22 39.58 41.55 40.57 38.85 41.49 L 38.78 40.49 C 40.78 36.90 38.04 31.45 34.89 29.35 C 38.90 27.77 43.09 26.60 47.18 25.26 Z" fill="#ffffff"/>
<path d="M 68.29 30.63 C 70.60 30.82 71.09 33.15 68.81 33.74 C 66.43 34.27 66.01 30.86 68.29 30.63 Z" fill="#ffffff"/>
<path d="M 50.49 34.65 C 52.42 34.21 53.23 37.73 50.92 37.85 C 48.56 37.88 48.10 35.10 50.49 34.65 Z" fill="#ffffff"/>
<path d="M 101.28 39.51 C 101.87 40.08 102.46 40.65 103.06 41.21 C 106.42 41.42 108.44 42.78 110.99 44.79 C 113.35 44.49 116.40 43.48 118.65 44.43 C 120.02 45.38 120.75 47.33 121.67 48.69 C 120.41 48.08 119.20 47.44 117.89 46.95 C 116.50 47.17 115.10 47.65 113.75 48.07 C 116.95 50.61 117.99 52.29 119.14 56.20 C 120.20 56.50 121.25 56.81 122.31 57.12 C 118.96 57.88 117.04 57.52 113.79 56.30 C 114.87 60.02 117.09 60.32 119.95 62.14 C 120.89 64.58 120.38 67.74 120.54 70.33 C 119.35 68.52 118.39 66.51 117.05 64.80 C 115.82 63.86 114.26 64.13 113.79 65.78 C 115.36 68.18 117.11 70.13 117.66 73.05 C 118.11 75.39 119.35 76.89 120.86 78.63 C 118.71 77.79 116.79 77.69 115.63 75.45 C 114.17 72.95 112.94 72.28 110.25 71.17 C 110.68 74.08 112.03 75.63 113.96 77.66 C 111.86 77.10 109.78 76.52 107.72 75.86 C 107.30 76.73 106.87 77.61 106.45 78.48 C 108.73 79.07 111.46 79.16 113.52 80.32 C 113.94 81.67 114.31 83.02 114.64 84.39 C 113.04 83.26 112.28 81.80 110.10 82.22 C 106.80 82.61 105.37 82.10 102.65 80.38 C 105.27 85.52 108.58 90.29 112.52 94.51 C 116.00 98.41 121.45 98.21 125.19 101.81 C 126.63 103.32 127.61 105.38 128.69 107.15 C 129.70 105.31 131.57 103.17 131.17 100.96 C 130.53 97.79 126.75 95.53 125.46 92.63 C 124.96 87.45 126.91 83.10 124.12 78.16 C 126.27 79.85 129.15 80.69 129.11 83.92 C 129.60 86.82 128.33 91.03 131.27 92.78 C 132.85 92.39 133.46 92.74 133.59 90.79 C 133.99 86.78 131.04 82.36 128.72 79.28 C 126.69 76.33 123.57 73.98 124.85 69.98 C 126.28 65.23 127.99 60.79 128.10 55.72 C 128.95 58.55 129.78 61.37 130.54 64.22 C 131.27 61.18 132.98 57.49 131.37 54.52 C 130.15 51.97 128.70 49.54 127.50 46.98 C 128.61 47.67 129.71 48.36 130.82 49.04 C 131.99 45.83 130.74 43.50 129.74 40.50 C 131.04 41.91 133.08 43.34 133.73 45.20 C 134.33 47.23 132.32 49.34 131.43 51.04 C 134.14 53.99 138.20 57.46 136.79 61.96 C 135.21 65.76 133.12 69.15 132.26 73.26 C 134.08 69.81 136.84 67.23 139.05 64.10 C 141.25 60.26 139.83 57.00 138.54 53.22 C 140.32 55.76 143.15 58.77 143.31 61.98 C 142.95 67.08 138.71 71.86 138.24 76.98 C 138.04 79.74 138.47 82.60 138.65 85.37 C 139.35 82.19 140.07 79.79 142.73 77.68 C 146.15 74.93 145.32 71.52 145.81 67.61 C 146.59 70.61 147.77 73.94 147.56 77.05 C 147.09 79.29 145.44 81.29 144.61 83.44 C 143.82 86.23 144.24 89.48 143.19 92.19 C 141.33 94.37 137.83 95.89 136.61 98.52 C 136.01 100.94 136.61 103.67 136.39 106.16 C 135.12 107.45 133.28 108.34 131.72 109.25 C 134.14 108.62 138.01 108.79 139.65 106.69 C 139.93 103.76 138.72 99.82 140.18 97.19 C 141.02 95.31 143.89 95.21 145.63 94.59 C 144.53 96.04 143.13 97.49 142.44 99.19 C 141.98 102.02 143.23 105.19 143.39 108.06 C 142.77 110.37 140.21 111.38 138.05 111.55 C 134.81 111.64 131.41 110.19 128.29 109.39 C 127.33 111.77 126.55 114.85 124.73 116.73 C 122.01 119.15 117.74 119.67 114.98 121.97 C 112.25 124.71 112.64 129.02 111.39 132.40 C 106.95 135.68 102.05 137.20 98.97 142.21 C 100.56 142.27 102.16 142.33 103.75 142.37 C 101.74 143.70 99.74 145.04 97.73 146.38 C 99.41 146.92 101.09 147.44 102.78 147.95 C 101.58 150.49 100.28 152.96 98.87 155.40 C 96.71 151.34 93.82 146.59 93.57 141.94 C 94.99 140.01 97.18 138.55 98.99 136.99 C 101.96 134.56 104.56 131.78 107.11 128.93 C 104.78 122.86 101.10 116.48 100.44 109.98 C 100.39 105.57 103.26 103.82 106.06 101.08 C 104.39 101.85 102.12 102.47 100.91 103.90 C 99.76 105.51 99.25 107.66 98.59 109.50 C 94.95 108.94 91.62 108.75 88.62 106.36 C 83.07 102.12 78.54 96.38 75.00 90.39 C 79.50 90.66 85.36 91.66 89.55 89.57 C 92.15 88.39 92.60 85.74 93.79 83.38 C 91.31 85.75 89.73 88.47 86.00 88.77 C 78.87 89.87 73.89 85.37 66.96 85.63 C 65.01 85.66 62.90 85.95 61.68 87.67 C 59.85 90.71 60.17 94.98 60.22 98.40 C 61.28 97.62 62.32 96.84 63.36 96.04 C 63.69 97.19 64.03 98.34 64.39 99.49 C 63.50 99.53 62.62 99.57 61.74 99.61 C 62.06 100.89 62.40 102.17 62.73 103.44 C 63.79 103.35 64.85 103.25 65.91 103.15 C 65.89 105.25 65.85 107.35 65.76 109.45 C 64.29 108.66 62.83 107.87 61.36 107.09 C 59.86 105.06 56.69 102.89 57.05 100.13 C 57.17 94.17 58.87 88.55 58.11 82.52 C 63.11 80.17 68.72 82.60 74.11 80.82 C 74.49 78.44 74.70 76.23 76.24 74.27 C 79.05 70.41 84.17 68.14 87.95 65.23 C 94.38 65.80 100.49 63.62 102.96 57.23 C 101.21 59.09 99.61 61.22 97.23 62.27 C 94.37 63.59 91.45 63.32 88.46 63.94 C 86.69 64.41 85.04 65.30 83.26 65.78 C 82.03 64.33 81.19 62.64 80.25 60.99 C 83.47 58.21 86.62 55.73 89.12 52.23 C 91.50 48.64 94.65 45.90 96.36 41.87 C 96.94 42.75 97.52 43.63 98.11 44.50 C 99.20 42.86 100.25 41.19 101.28 39.51 Z" fill="#ffffff"/>
<path d="M 101.76 42.55 C 102.83 42.98 103.06 43.69 102.46 44.69 C 100.62 45.72 99.73 42.85 101.76 42.55 Z" fill="#eb1a2f"/>
<path d="M 150.20 43.13 C 151.36 42.91 152.53 42.74 153.72 42.63 C 150.09 46.44 145.93 49.82 141.99 53.32 C 141.40 52.77 140.80 52.21 140.20 51.66 C 143.50 48.85 146.55 45.46 150.20 43.13 Z" fill="#ffffff"/>
<path d="M 97.84 50.69 C 98.48 50.61 99.11 50.53 99.75 50.46 C 99.16 51.53 98.56 52.59 97.96 53.66 C 96.45 53.56 94.94 53.46 93.42 53.36 C 94.88 52.45 96.33 51.49 97.84 50.69 Z" fill="#eb1a2f"/>
<path d="M 69.59 58.44 C 70.79 60.51 71.50 63.10 72.91 65.06 C 74.16 66.78 75.69 68.32 77.12 69.89 C 75.51 71.91 73.93 73.95 72.35 75.99 C 70.01 71.96 69.56 66.74 66.79 63.11 C 62.12 63.05 58.92 67.13 55.80 70.04 C 56.97 70.98 58.15 71.93 59.32 72.87 L 55.70 72.08 C 56.63 73.07 57.55 74.07 58.48 75.07 C 57.01 76.84 55.50 78.56 53.93 80.25 C 53.18 76.80 52.13 73.40 51.51 69.92 C 52.35 67.69 55.24 66.43 57.08 65.06 C 59.75 63.41 61.49 60.86 63.91 58.96 C 65.52 58.14 67.82 58.33 69.59 58.44 Z" fill="#ffffff"/>
<path d="M 161.13 109.82 C 160.26 122.21 159.56 134.60 159.12 147.02 C 158.56 154.86 158.29 163.59 152.84 169.83 C 146.40 177.02 137.20 178.94 127.95 179.38 C 141.78 163.21 149.76 142.55 148.24 121.12 C 152.55 117.37 156.78 113.52 161.13 109.82 Z" fill="#eb1a2f"/>
<path d="M 92.51 110.29 C 94.44 110.61 96.38 110.94 98.30 111.30 C 99.42 115.94 101.87 120.19 102.86 124.81 C 101.76 126.39 100.41 128.99 98.12 128.08 C 91.85 126.64 85.75 125.48 79.30 125.18 C 79.55 126.94 79.84 128.69 80.16 130.44 C 79.03 129.57 77.89 128.72 76.74 127.88 C 77.34 129.01 77.95 130.14 78.57 131.26 C 75.93 132.70 73.25 134.04 70.47 135.19 C 71.01 131.01 72.58 126.96 74.16 123.08 C 75.25 120.02 79.39 121.49 81.76 121.68 C 85.63 122.13 91.03 124.29 94.64 122.43 C 94.43 118.34 92.96 114.38 92.51 110.29 Z" fill="#ffffff"/>
<path d="M 83.04 131.43 C 86.84 133.40 90.36 136.01 93.93 138.36 C 92.98 138.64 92.03 138.82 91.08 138.91 C 87.38 137.35 84.04 134.72 80.82 132.35 C 81.55 132.02 82.30 131.71 83.04 131.43 Z" fill="#ffffff"/>
<path d="M 40.98 149.34 C 50.14 162.02 61.37 172.86 75.59 179.68 C 69.86 179.08 64.10 179.13 58.75 177.23 C 53.17 175.28 48.12 172.13 45.07 166.93 C 41.95 161.60 41.52 155.35 40.98 149.34 Z" fill="#eb1a2f"/>
<path d="M 84.49 159.77 C 85.00 163.85 83.09 169.38 86.99 171.97 C 83.96 172.22 81.05 172.29 78.09 171.49 C 79.11 170.98 80.13 170.49 81.15 169.99 C 81.17 167.94 81.18 165.88 81.19 163.82 C 80.19 163.55 79.19 163.28 78.19 163.00 C 80.24 161.83 82.33 160.73 84.49 159.77 Z" fill="#ffffff"/>
<path d="M 98.69 163.39 C 100.06 167.60 97.99 172.64 92.99 172.45 C 91.50 172.79 87.57 170.83 89.18 169.11 C 90.31 166.26 92.77 170.07 93.17 171.44 C 94.14 170.15 95.10 168.85 96.05 167.54 C 94.08 167.47 92.02 167.52 90.09 167.14 C 88.19 165.77 87.79 163.16 89.47 161.45 C 92.01 159.06 97.58 159.70 98.69 163.39 Z" fill="#ffffff"/>
<path d="M 114.76 160.23 C 117.90 160.27 121.01 160.23 124.14 160.38 C 121.57 162.48 118.70 162.81 115.56 163.39 C 118.45 163.96 123.24 163.16 123.80 167.15 C 124.46 171.34 120.48 172.97 116.94 172.31 C 114.69 172.05 112.46 169.65 114.30 167.59 C 115.37 167.46 116.44 167.37 117.52 167.32 C 117.13 168.68 116.75 170.04 116.37 171.39 C 118.62 170.22 120.77 170.29 120.19 166.96 C 119.37 164.31 116.36 166.28 114.46 166.24 C 114.56 164.24 114.66 162.23 114.76 160.23 Z" fill="#ffffff"/>
<path d="M 105.01 159.94 C 105.51 160.51 106.02 161.08 106.52 161.65 C 105.70 162.82 104.90 164.00 104.11 165.19 C 105.90 165.17 107.83 164.95 109.59 165.35 C 112.09 166.24 112.37 169.75 110.39 171.31 C 107.97 173.09 103.49 172.90 101.84 170.12 C 100.54 167.84 101.22 164.83 101.93 162.45 C 102.95 161.60 103.97 160.76 105.01 159.94 Z" fill="#ffffff"/>
<path d="M 106.62 159.52 C 108.68 160.25 110.42 161.35 111.84 162.80 C 110.81 163.48 109.77 164.15 108.72 164.80 C 108.02 163.04 107.32 161.28 106.62 159.52 Z" fill="#ffffff"/>
<path d="M 92.29 162.49 L 94.06 161.32 C 95.50 163.26 95.63 164.39 94.05 166.28 C 91.74 165.60 92.19 164.48 92.29 162.49 Z" fill="#eb1a2f"/>
<path d="M 106.27 166.55 L 106.85 166.21 C 108.38 167.85 108.15 169.33 107.07 171.13 C 104.60 170.74 104.01 167.65 106.27 166.55 Z" fill="#eb1a2f"/>
</svg>
