<?xml version="1.0" encoding="UTF-8"?>
<!DOCTYPE svg PUBLIC "-//W3C//DTD SVG 1.1//EN" "http://www.w3.org/Graphics/SVG/1.1/DTD/svg11.dtd">
<!-- Creator: Brennpeter -->
<svg xmlns="http://www.w3.org/2000/svg" xml:space="preserve" width="35.316mm" height="52.974mm" style="shape-rendering:geometricPrecision; text-rendering:geometricPrecision; image-rendering:optimizeQuality; fill-rule:evenodd; clip-rule:evenodd" viewBox="0 0 35.316 52.974" xmlns:xlink="http://www.w3.org/1999/xlink" xmlns:a="http://ns.adobe.com/AdobeSVGViewerExtensions/3.0/" enable-background="new 0 0 133.47705 200.21729">
 <defs>
  <style type="text/css">
   <![CDATA[
    .fil0 {fill:#1D9053}
    .fil1 {fill:white}
   ]]>
  </style>
 </defs>
 <g id="Ebene_x0020_1">
  <metadata id="Brennpeter-Layer"/>
  <g id="Ebene_1">
   <polygon id="_44070144" class="fil0" points="17.6581,-0.0001 0.0001,26.4871 17.6581,52.9741 35.3159,26.4871 "/>
   <path id="_44070088" class="fil1" d="M17.6581 1.1744l-16.8749 25.3127 16.8749 25.3124 16.8749 -25.3124 -16.8749 -25.3127zm-15.5249 25.3127l15.5249 -23.2876 15.5249 23.2876 -15.5249 23.2875 -15.5249 -23.2875z"/>
   <path id="_44070864" class="fil1" d="M21.3038 42.406c0,0 5.2917,-10.2748 5.2917,-18.2122 0,-7.9375 -4.1892,-13.3173 -8.599,-13.3173 -3.3072,0 -4.4536,2.5135 -4.4536,3.9688 0,1.4553 1.411,2.6899 2.6898,2.6899 1.5434,0 2.1075,-1.0213 2.1075,-1.0213 1.9495,1.1535 5.3891,2.9174 5.2126,9.9729 -0.1235,4.9374 -0.7938,5.7769 -1.7198,8.6873 -1.411,-3.7042 -4.2331,-9.922 -4.2331,-9.922l-4.454 9.7455c0,0 -1.8354,-4.1902 -1.9403,-10.0982 -0.0125,-0.7056 -0.0125,-1.0165 0.265,-3.5741 1.984,0 3.1306,-0.7916 3.1306,-2.5998 0,-1.7454 -1.5434,-2.6457 -2.6458,-2.6457 -1.1024,0 -3.8805,1.1025 -3.8805,6.3501 0,9.1281 5.8649,19.8438 5.8649,19.8438l3.6602 -7.276 3.7038 7.4083z"/>
  </g>
 </g>
</svg>