<?xml version="1.0" encoding="UTF-8" standalone="no"?>
<svg xmlns:dc="http://purl.org/dc/elements/1.1/" xmlns:cc="http://creativecommons.org/ns#" xmlns:rdf="http://www.w3.org/1999/02/22-rdf-syntax-ns#" xmlns:svg="http://www.w3.org/2000/svg" xmlns="http://www.w3.org/2000/svg" xmlns:sodipodi="http://sodipodi.sourceforge.net/DTD/sodipodi-0.dtd" xmlns:inkscape="http://www.inkscape.org/namespaces/inkscape" inkscape:version="1.0 (4035a4f, 2020-05-01)" sodipodi:docname="16.svg" id="svg3110" height="200.0pt" width="200.0pt" viewBox="0 0 200 200" version="1.1">
  <metadata id="metadata3116">
    <rdf:RDF>
      <cc:Work rdf:about="">
        <dc:format>image/svg+xml</dc:format>
        <dc:type rdf:resource="http://purl.org/dc/dcmitype/StillImage"/>
      </cc:Work>
    </rdf:RDF>
  </metadata>
  <defs id="defs3114"/>
  <sodipodi:namedview inkscape:current-layer="svg3110" inkscape:cy="133.33333" inkscape:cx="133.33333" inkscape:zoom="1.75125" showgrid="false" id="namedview3112" inkscape:window-height="480" inkscape:window-width="640" inkscape:pageshadow="2" inkscape:pageopacity="0" guidetolerance="10" gridtolerance="10" objecttolerance="10" borderopacity="1" bordercolor="#666666" pagecolor="#ffffff"/>
  <path style="fill:#ffffff;fill-opacity:0.03238866" id="path2976" fill="#ffffff" d="M 0.00 0.00 L 23.15 0.00 C 22.84 39.62 23.17 79.36 22.99 119.00 C 22.82 129.21 24.33 139.61 27.70 149.27 C 34.14 167.58 47.86 183.11 65.21 191.81 C 74.07 196.44 83.63 198.61 93.46 200.00 L 0.00 200.00 L 0.00 0.00 Z"/>
  <path id="path2978" fill="#f6dc1d" d="M 23.15 0.00 L 176.01 0.00 C 176.00 41.34 175.99 82.68 176.01 124.01 C 175.93 137.22 172.47 150.38 165.83 161.81 C 157.16 176.90 143.25 188.81 126.97 194.98 C 120.50 197.53 113.85 198.68 107.07 200.00 L 93.46 200.00 C 83.63 198.61 74.07 196.44 65.21 191.81 C 47.86 183.11 34.14 167.58 27.70 149.27 C 24.33 139.61 22.82 129.21 22.99 119.00 C 23.17 79.36 22.84 39.62 23.15 0.00 Z"/>
  <path style="fill:#ffffff;fill-opacity:0" id="path2980" fill="#ffffff" d="M 176.01 0.00 L 200.00 0.00 L 200.00 200.00 L 107.07 200.00 C 113.85 198.68 120.50 197.53 126.97 194.98 C 143.25 188.81 157.16 176.90 165.83 161.81 C 172.47 150.38 175.93 137.22 176.01 124.01 C 175.99 82.68 176.00 41.34 176.01 0.00 Z"/>
  <path id="path2982" fill="#b42b31" d="M 25.20 2.20 C 29.06 1.62 33.10 1.84 37.00 1.83 C 82.77 1.94 128.55 1.73 174.31 1.93 C 174.58 37.28 174.35 72.65 174.43 108.00 C 174.30 118.89 175.09 128.99 172.70 139.69 C 168.23 160.44 154.53 178.70 135.99 188.98 C 120.15 197.89 101.12 200.55 83.40 196.62 C 71.62 194.01 60.54 188.49 51.34 180.67 C 38.18 169.56 29.04 153.87 26.07 136.89 C 24.45 127.83 24.90 119.14 24.85 110.00 C 24.84 75.67 24.89 41.29 24.82 6.97 C 24.86 5.37 24.94 3.78 25.20 2.20 Z"/>
  <path id="path2984" fill="#f6dc1d" d="M 27.46 4.46 C 31.93 3.96 36.51 4.28 41.00 4.24 C 84.65 4.25 128.29 4.24 171.94 4.24 C 172.22 21.84 172.16 39.53 171.98 57.14 C 133.66 57.37 95.32 57.17 57.00 57.24 C 47.08 57.18 37.15 57.39 27.24 57.10 C 27.21 43.07 27.29 29.03 27.22 15.00 C 27.22 11.51 27.04 7.93 27.46 4.46 Z"/>
  <path id="path2986" fill="#ffffff" d="M 29.16 6.14 C 30.76 5.91 32.36 5.84 33.98 5.82 C 79.43 5.93 124.89 5.75 170.34 5.91 C 170.43 22.48 170.56 39.08 170.27 55.64 C 123.20 55.56 76.12 55.59 29.04 55.63 C 28.65 43.76 28.96 31.87 28.85 20.00 C 28.90 15.41 28.57 10.70 29.16 6.14 Z"/>
  <path id="path2988" fill="#b42b31" d="M 44.19 14.49 C 54.01 14.17 63.89 14.49 73.72 14.37 C 73.72 16.59 73.71 18.81 73.71 21.04 C 66.70 21.21 59.68 21.15 52.66 21.10 C 52.65 22.82 52.63 24.53 52.62 26.24 C 59.31 26.27 66.00 26.24 72.70 26.27 C 72.70 28.43 72.70 30.60 72.70 32.76 C 66.02 32.79 59.34 32.76 52.66 32.80 C 52.63 36.06 52.62 39.31 52.62 42.57 C 49.75 42.56 46.87 42.55 44.00 42.55 C 43.98 33.23 43.52 23.77 44.19 14.49 Z"/>
  <path id="path2990" fill="#b42b31" d="M 82.25 14.48 C 88.46 13.76 94.81 13.70 101.05 13.97 C 103.75 14.20 107.51 14.35 109.32 16.70 C 110.72 18.80 110.61 22.00 110.92 24.44 C 108.42 24.47 105.92 24.49 103.43 24.49 C 102.03 23.28 100.82 21.32 98.84 21.28 C 94.55 20.98 89.88 20.69 85.66 21.64 C 83.63 22.73 83.85 27.02 83.76 29.02 C 84.00 31.21 83.56 34.97 86.51 35.41 C 91.09 36.15 95.94 35.68 100.58 35.63 C 101.51 34.40 102.40 33.12 103.43 31.96 C 105.98 31.34 108.81 31.63 111.41 31.60 C 111.06 34.66 111.65 39.76 108.31 41.38 C 104.42 43.23 99.23 42.77 95.00 42.91 C 89.92 42.74 84.20 43.31 79.33 41.72 C 75.85 40.38 75.48 37.27 75.28 33.99 C 75.20 29.02 74.81 23.73 75.87 18.86 C 76.75 15.85 79.42 14.87 82.25 14.48 Z"/>
  <path id="path2992" fill="#b42b31" d="M 125.52 14.57 C 130.10 14.08 134.80 14.44 139.41 14.43 C 145.84 26.71 152.55 38.86 158.87 51.21 C 155.41 51.06 150.66 52.02 147.49 50.69 C 144.91 46.65 143.15 42.05 140.96 37.78 C 135.09 37.73 129.22 37.68 123.35 37.85 C 121.28 42.36 119.08 46.80 116.91 51.26 C 107.27 51.47 97.65 51.01 88.01 51.33 C 87.88 49.07 87.77 46.81 87.67 44.55 C 95.08 44.52 102.49 44.58 109.90 44.47 C 113.93 36.35 118.20 28.36 122.24 20.25 C 123.23 18.34 124.18 16.27 125.52 14.57 Z"/>
  <path id="path2994" fill="#ffffff" d="M 132.13 20.45 C 134.35 23.98 136.00 27.65 137.73 31.43 C 134.04 31.52 130.35 31.52 126.65 31.45 C 128.34 27.70 130.03 24.00 132.13 20.45 Z"/>
  <path id="path2996" fill="#b42b31" d="M 43.90 44.60 C 51.24 44.52 58.59 44.57 65.94 44.56 C 65.92 46.81 65.92 49.05 65.92 51.30 C 58.59 51.29 51.25 51.33 43.91 51.27 C 43.90 49.05 43.89 46.82 43.90 44.60 Z"/>
  <path id="path2998" fill="#3c6543" d="M 65.94 44.56 C 73.18 44.55 80.42 44.56 87.67 44.55 C 87.77 46.81 87.88 49.07 88.01 51.33 C 80.65 51.29 73.29 51.30 65.92 51.30 C 65.92 49.05 65.92 46.81 65.94 44.56 Z"/>
  <path id="path3000" fill="#ffffff" d="M 88.45 45.38 C 95.38 45.37 102.31 45.36 109.24 45.40 C 109.24 47.10 109.24 48.81 109.24 50.51 C 102.31 50.48 95.38 50.46 88.45 50.53 C 88.44 48.81 88.44 47.10 88.45 45.38 Z"/>
  <path id="path3002" fill="#f6dc1d" d="M 27.48 59.60 C 32.28 59.13 37.18 59.49 42.00 59.43 C 85.30 59.40 128.60 59.49 171.90 59.41 C 172.34 74.93 171.99 90.47 172.10 106.00 C 171.93 117.53 172.90 129.06 170.19 140.20 C 165.96 158.68 154.11 175.03 138.07 185.07 C 122.79 194.71 103.90 198.22 86.17 194.84 C 71.42 192.08 57.64 184.57 47.30 173.69 C 36.92 162.91 30.03 148.86 27.94 134.03 C 26.93 127.19 27.24 119.96 27.21 113.00 C 27.21 99.00 27.24 85.00 27.19 71.00 C 27.21 67.23 26.97 63.35 27.48 59.60 Z"/>
  <path id="path3004" fill="#b42b31" d="M 29.26 61.37 C 33.47 60.92 37.78 61.19 42.00 61.16 C 61.23 61.19 80.47 61.18 99.70 61.17 C 99.68 63.56 99.68 65.94 99.72 68.33 C 93.34 69.77 88.12 72.91 83.92 77.92 C 77.64 85.33 73.12 95.16 73.81 105.04 C 74.05 110.08 75.88 114.90 79.78 118.23 C 83.46 121.47 88.00 122.26 92.59 123.44 C 92.59 125.22 92.58 127.00 92.58 128.78 C 88.84 128.43 84.96 127.55 81.21 127.81 C 78.05 128.97 75.49 132.36 73.08 134.66 C 74.65 137.99 75.27 141.78 77.04 144.99 C 78.92 146.55 82.63 145.48 84.90 145.40 C 86.73 152.35 87.51 159.42 88.20 166.55 C 92.01 166.55 95.83 166.56 99.65 166.53 C 99.71 175.81 99.56 185.10 99.74 194.39 C 84.60 194.40 69.67 189.53 57.54 180.47 C 43.57 170.17 33.66 154.67 30.31 137.64 C 28.53 129.00 28.94 120.75 28.91 112.00 C 28.90 97.32 28.96 82.65 28.86 67.97 C 28.88 65.79 28.91 63.53 29.26 61.37 Z"/>
  <path id="path3006" fill="#ffffff" d="M 99.70 61.17 C 123.24 61.17 146.78 61.20 170.31 61.15 C 170.57 80.76 170.33 100.39 170.44 120.00 C 170.52 127.45 170.01 134.79 168.02 142.01 C 163.66 158.32 153.28 172.84 139.27 182.28 C 127.66 190.13 113.77 194.46 99.74 194.39 C 99.56 185.10 99.71 175.81 99.65 166.53 C 103.52 166.49 107.39 166.49 111.26 166.53 C 111.79 159.03 112.45 151.66 114.85 144.49 C 117.07 145.52 118.95 146.97 121.42 145.61 C 124.30 144.13 123.56 141.09 124.33 138.40 C 124.98 137.13 125.95 136.02 126.80 134.88 C 123.93 132.53 121.27 129.22 118.00 127.52 C 114.28 127.79 110.60 128.50 106.89 128.86 C 106.81 126.98 106.75 125.10 106.70 123.22 C 111.12 122.41 115.21 121.74 118.81 118.82 C 123.15 115.53 125.31 110.42 125.50 105.06 C 126.13 95.51 122.07 86.15 116.17 78.84 C 112.00 73.55 106.36 69.71 99.72 68.33 C 99.68 65.94 99.68 63.56 99.70 61.17 Z"/>
  <path id="path3008" fill="#0c0c07" d="M 99.72 68.33 C 106.36 69.71 112.00 73.55 116.17 78.84 C 122.07 86.15 126.13 95.51 125.50 105.06 C 125.31 110.42 123.15 115.53 118.81 118.82 C 115.21 121.74 111.12 122.41 106.70 123.22 C 106.75 125.10 106.81 126.98 106.89 128.86 C 110.60 128.50 114.28 127.79 118.00 127.52 C 121.27 129.22 123.93 132.53 126.80 134.88 C 125.95 136.02 124.98 137.13 124.33 138.40 C 123.56 141.09 124.30 144.13 121.42 145.61 C 118.95 146.97 117.07 145.52 114.85 144.49 C 112.45 151.66 111.79 159.03 111.26 166.53 C 107.39 166.49 103.52 166.49 99.65 166.53 C 95.83 166.56 92.01 166.55 88.20 166.55 C 87.51 159.42 86.73 152.35 84.90 145.40 C 82.63 145.48 78.92 146.55 77.04 144.99 C 75.27 141.78 74.65 137.99 73.08 134.66 C 75.49 132.36 78.05 128.97 81.21 127.81 C 84.96 127.55 88.84 128.43 92.58 128.78 C 92.58 127.00 92.59 125.22 92.59 123.44 C 88.00 122.26 83.46 121.47 79.78 118.23 C 75.88 114.90 74.05 110.08 73.81 105.04 C 73.12 95.16 77.64 85.33 83.92 77.92 C 88.12 72.91 93.34 69.77 99.72 68.33 Z"/>
  <path id="path3010" fill="#3c6543" d="M 104.87 71.96 C 103.27 73.00 101.65 74.20 99.87 74.91 C 97.90 74.38 96.06 73.06 94.33 72.02 C 98.69 70.41 100.48 70.38 104.87 71.96 Z"/>
  <path id="path3012" fill="#3c6543" d="M 92.22 73.53 C 94.29 73.70 96.35 75.27 98.18 76.18 C 96.20 77.40 94.15 78.87 91.92 79.59 C 90.19 79.12 88.60 78.01 87.01 77.19 C 88.66 75.93 90.32 74.40 92.22 73.53 Z"/>
  <path id="path3014" fill="#3c6543" d="M 106.92 73.12 C 108.82 74.42 110.58 75.87 112.35 77.33 C 110.80 78.04 108.94 79.51 107.20 79.48 C 105.13 78.81 103.24 77.37 101.42 76.21 C 103.23 75.13 105.02 74.06 106.92 73.12 Z"/>
  <path id="path3016" fill="#3c6543" d="M 99.84 77.58 C 101.96 78.34 103.90 79.78 105.79 80.98 C 103.89 82.17 101.94 83.61 99.82 84.34 C 97.53 83.79 95.42 82.17 93.43 80.97 C 95.42 79.75 97.55 78.14 99.84 77.58 Z"/>
  <path id="path3018" fill="#3c6543" d="M 85.85 78.70 C 87.26 79.44 88.64 80.24 90.01 81.04 C 87.39 82.71 84.87 83.96 81.79 84.50 C 83.05 82.50 84.35 80.53 85.85 78.70 Z"/>
  <path id="path3020" fill="#3c6543" d="M 113.13 78.82 C 114.52 80.13 115.81 81.52 117.10 82.91 C 116.70 83.60 116.29 84.28 115.88 84.97 C 113.71 83.63 111.55 82.28 109.41 80.90 C 110.64 80.19 111.87 79.48 113.13 78.82 Z"/>
  <path id="path3022" fill="#3c6543" d="M 91.89 82.35 C 94.10 83.09 96.16 84.52 98.14 85.74 C 96.16 86.85 94.09 88.17 91.90 88.82 C 89.64 88.37 87.48 86.91 85.47 85.82 C 87.43 84.56 89.58 82.84 91.89 82.35 Z"/>
  <path id="path3024" fill="#3c6543" d="M 107.86 82.29 C 109.96 83.12 111.87 84.59 113.73 85.85 C 111.86 86.90 109.93 88.16 107.87 88.80 C 105.58 88.53 103.37 86.88 101.38 85.82 C 103.35 84.54 105.53 82.81 107.86 82.29 Z"/>
  <path id="path3026" fill="#3c6543" d="M 83.92 87.15 C 86.12 87.80 88.20 89.13 90.20 90.25 C 88.21 91.48 86.14 92.94 83.92 93.69 C 81.69 93.12 79.62 91.49 77.73 90.24 C 79.66 89.11 81.72 87.67 83.92 87.15 Z"/>
  <path id="path3028" fill="#3c6543" d="M 99.88 87.21 C 102.06 87.86 104.11 89.15 106.10 90.24 C 104.12 91.46 102.08 92.88 99.87 93.63 C 97.56 93.20 95.39 91.43 93.43 90.20 C 95.42 89.12 97.61 87.52 99.88 87.21 Z"/>
  <path id="path3030" fill="#3c6543" d="M 115.87 87.17 C 117.86 87.85 119.71 89.11 121.50 90.19 C 119.72 91.40 117.89 92.92 115.84 93.63 C 113.54 93.47 111.25 91.34 109.32 90.18 C 111.34 89.10 113.56 87.46 115.87 87.17 Z"/>
  <path id="path3032" fill="#3c6543" d="M 91.83 91.68 C 93.98 92.38 95.96 93.83 97.88 95.00 C 95.97 96.20 94.01 97.67 91.87 98.41 C 89.59 97.80 87.49 96.24 85.49 95.03 C 87.47 93.84 89.56 92.25 91.83 91.68 Z"/>
  <path id="path3034" fill="#3c6543" d="M 107.79 91.68 C 109.90 92.41 111.83 93.84 113.71 95.02 C 111.84 96.21 109.91 97.64 107.81 98.40 C 105.51 97.89 103.36 96.23 101.37 95.02 C 103.35 93.83 105.50 92.13 107.79 91.68 Z"/>
  <path id="path3036" fill="#3c6543" d="M 77.90 92.69 C 79.36 93.46 80.80 94.27 82.23 95.09 C 80.16 96.19 78.07 97.26 75.96 98.30 C 76.57 96.41 77.19 94.54 77.90 92.69 Z"/>
  <path id="path3038" fill="#3c6543" d="M 121.84 92.62 C 122.25 94.50 122.64 96.38 123.03 98.27 C 121.13 97.21 119.25 96.13 117.37 95.03 C 118.86 94.22 120.35 93.42 121.84 92.62 Z"/>
  <path id="path3040" fill="#3c6543" d="M 83.93 96.39 C 86.16 97.11 88.23 98.57 90.22 99.79 C 88.22 100.91 86.14 102.24 83.93 102.89 C 81.67 102.39 79.52 100.94 77.51 99.82 C 79.50 98.58 81.63 96.96 83.93 96.39 Z"/>
  <path id="path3042" fill="#3c6543" d="M 99.86 96.44 C 102.07 97.16 104.13 98.58 106.10 99.78 C 104.13 100.89 102.07 102.19 99.89 102.85 C 97.61 102.49 95.42 100.94 93.41 99.85 C 95.37 98.64 97.55 96.82 99.86 96.44 Z"/>
  <path id="path3044" fill="#3c6543" d="M 115.83 96.46 C 117.94 97.17 119.86 98.66 121.71 99.87 C 119.74 100.87 117.40 102.74 115.14 102.81 C 113.08 102.19 111.15 100.92 109.29 99.87 C 111.22 98.74 113.55 96.59 115.83 96.46 Z"/>
  <path id="path3046" fill="#3c6543" d="M 75.89 100.88 C 77.96 102.00 80.03 103.14 82.09 104.29 C 80.07 105.56 78.04 106.80 76.00 108.03 C 75.94 105.65 75.90 103.26 75.89 100.88 Z"/>
  <path id="path3048" fill="#3c6543" d="M 91.89 101.22 C 94.09 101.87 96.16 103.19 98.15 104.29 C 96.17 105.52 94.11 106.96 91.89 107.71 C 89.58 107.24 87.43 105.48 85.48 104.23 C 87.49 103.14 89.63 101.68 91.89 101.22 Z"/>
  <path id="path3050" fill="#3c6543" d="M 107.87 101.27 C 110.03 101.91 112.06 103.20 114.03 104.29 C 111.97 105.47 109.56 107.47 107.15 107.64 C 105.08 106.91 103.22 105.42 101.40 104.21 C 103.38 103.18 105.60 101.47 107.87 101.27 Z"/>
  <path id="path3052" fill="#3c6543" d="M 123.79 100.90 C 123.60 103.29 123.40 105.66 123.17 108.04 C 121.13 106.78 119.09 105.50 117.06 104.21 C 119.29 103.09 121.53 101.98 123.79 100.90 Z"/>
  <path id="path3054" fill="#3c6543" d="M 99.81 105.73 C 101.94 106.44 103.89 107.88 105.79 109.05 C 103.90 110.26 101.97 111.70 99.86 112.47 C 97.56 111.87 95.43 110.28 93.43 109.05 C 95.41 107.87 97.53 106.26 99.81 105.73 Z"/>
  <path id="path3056" fill="#3c6543" d="M 115.23 105.79 C 117.53 106.11 119.71 107.92 121.67 109.06 C 119.81 110.23 117.90 111.66 115.80 112.38 C 113.52 112.16 111.27 110.19 109.33 109.07 C 111.21 107.91 113.13 106.49 115.23 105.79 Z"/>
  <path id="path3058" fill="#3c6543" d="M 83.95 105.88 C 86.15 106.60 88.23 107.95 90.22 109.12 C 88.21 110.29 86.13 111.73 83.89 112.40 C 81.61 111.84 79.48 110.24 77.50 109.03 C 79.52 107.88 81.68 106.44 83.95 105.88 Z"/>
  <path id="path3060" fill="#3c6543" d="M 91.89 110.45 C 94.11 111.17 96.16 112.61 98.15 113.81 C 96.17 114.94 94.11 116.26 91.92 116.92 C 89.64 116.48 87.48 115.00 85.47 113.89 C 87.44 112.65 89.58 110.97 91.89 110.45 Z"/>
  <path id="path3062" fill="#3c6543" d="M 107.84 110.43 C 109.95 111.22 111.88 112.68 113.75 113.91 C 111.88 114.99 109.95 116.26 107.88 116.93 C 105.58 116.60 103.37 115.00 101.36 113.90 C 103.34 112.65 105.51 110.91 107.84 110.43 Z"/>
  <path id="path3064" fill="#3c6543" d="M 122.15 111.00 C 121.47 112.40 120.76 113.79 120.05 115.18 C 119.16 114.73 118.28 114.28 117.40 113.83 C 118.98 112.88 120.56 111.92 122.15 111.00 Z"/>
  <path id="path3066" fill="#3c6543" d="M 78.01 111.83 C 79.46 112.41 80.87 113.06 82.30 113.71 C 81.18 114.23 80.06 114.74 78.94 115.25 C 78.62 114.11 78.31 112.97 78.01 111.83 Z"/>
  <path id="path3068" fill="#3c6543" d="M 84.73 115.54 C 86.81 116.12 88.68 117.84 90.39 119.10 C 88.78 119.26 87.07 119.61 85.45 119.42 C 83.60 118.74 82.00 117.14 80.49 115.92 C 81.88 115.75 83.32 115.49 84.73 115.54 Z"/>
  <path id="path3070" fill="#3c6543" d="M 99.88 115.25 C 102.07 115.93 104.13 117.28 106.11 118.41 C 104.18 119.51 102.13 120.82 99.96 121.35 C 97.68 121.42 95.33 119.43 93.42 118.32 C 95.43 117.21 97.60 115.67 99.88 115.25 Z"/>
  <path id="path3072" fill="#3c6543" d="M 115.02 115.24 C 116.29 115.55 117.54 116.09 118.76 116.57 C 115.36 118.91 113.43 120.04 109.21 119.17 C 110.93 117.76 112.86 115.91 115.02 115.24 Z"/>
  <path id="path3074" fill="#3c6543" d="M 91.16 119.31 C 92.21 118.85 93.78 119.62 93.19 120.90 C 92.04 122.34 89.23 120.65 91.16 119.31 Z"/>
  <path id="path3076" fill="#3c6543" d="M 106.50 120.05 C 107.52 118.54 109.43 120.30 107.86 121.34 C 106.83 121.47 106.38 121.05 106.50 120.05 Z"/>
  <path id="path3078" fill="#f6dc1d" d="M 94.37 123.30 C 97.91 123.09 101.47 123.26 105.01 123.18 C 105.10 126.88 105.17 130.57 105.22 134.26 C 101.50 134.39 97.80 134.39 94.08 134.25 C 94.18 130.61 94.06 126.93 94.37 123.30 Z"/>
  <path id="path3080" fill="#f6dc1d" d="M 81.41 129.39 C 85.14 129.35 88.89 130.20 92.61 130.49 C 92.58 131.69 92.56 132.90 92.53 134.10 C 86.63 134.17 81.38 133.76 76.13 137.00 C 75.70 136.33 75.27 135.67 74.83 135.01 C 76.96 133.11 79.00 130.93 81.41 129.39 Z"/>
  <path id="path3082" fill="#f6dc1d" d="M 117.88 129.40 C 120.33 130.89 122.37 133.16 124.51 135.06 C 124.01 135.71 123.51 136.36 123.02 137.01 C 117.89 133.65 112.68 134.17 106.84 134.19 C 106.84 132.95 106.84 131.70 106.85 130.45 C 110.52 130.20 114.21 129.39 117.88 129.40 Z"/>
  <path id="path3084" fill="#f6dc1d" d="M 85.62 137.36 C 88.81 140.27 92.20 145.79 93.31 149.94 C 92.42 153.29 90.82 156.49 89.34 159.61 C 88.28 152.66 87.49 146.01 83.81 139.84 C 83.05 141.52 82.30 143.21 81.54 144.89 C 79.99 144.34 77.06 143.91 77.05 141.80 C 76.20 137.58 82.77 134.04 85.62 137.36 Z"/>
  <path id="path3086" fill="#f6dc1d" d="M 86.87 135.90 C 90.98 135.84 95.09 135.87 99.20 136.04 C 97.67 139.89 96.11 143.73 94.42 147.53 C 92.19 143.44 89.80 139.54 86.87 135.90 Z"/>
  <path id="path3088" fill="#f6dc1d" d="M 100.26 136.09 C 104.26 135.72 108.35 135.85 112.36 135.94 C 109.49 139.59 107.11 143.44 104.90 147.52 C 103.29 143.75 101.48 140.00 100.26 136.09 Z"/>
  <path id="path3090" fill="#f6dc1d" d="M 121.55 138.56 C 122.24 140.04 122.11 141.96 122.21 143.57 C 120.76 143.97 119.30 144.36 117.85 144.74 C 117.07 143.12 116.30 141.50 115.50 139.89 C 111.80 146.01 111.07 152.61 109.94 159.51 C 108.50 156.43 106.84 153.26 106.08 149.93 C 107.22 145.45 110.27 140.79 113.51 137.50 C 115.87 134.82 119.59 136.18 121.55 138.56 Z"/>
  <path id="path3092" fill="#f6dc1d" d="M 99.69 139.47 C 101.15 142.82 103.10 146.31 103.74 149.93 C 102.79 153.54 101.05 156.98 99.66 160.45 C 98.26 156.96 96.50 153.51 95.54 149.88 C 96.23 146.28 98.15 142.78 99.69 139.47 Z"/>
  <path id="path3094" fill="#f6dc1d" d="M 94.42 151.98 C 96.43 156.12 97.90 160.56 99.43 164.89 C 96.04 164.90 92.65 164.90 89.26 164.83 C 90.76 160.47 92.47 156.16 94.42 151.98 Z"/>
  <path id="path3096" fill="#f6dc1d" d="M 104.86 152.08 C 106.85 156.23 108.54 160.52 110.15 164.82 C 106.72 164.90 103.30 164.90 99.88 164.85 C 101.39 160.56 102.92 156.20 104.86 152.08 Z"/>
  <path id="path3098" fill="#ffffff" d="M 92.00 171.19 C 96.16 171.45 97.34 175.98 96.28 179.40 C 95.13 183.34 92.04 185.15 88.29 186.22 C 89.67 184.55 91.23 183.06 92.84 181.61 C 91.24 180.80 89.34 180.09 88.06 178.84 C 86.20 175.66 88.11 171.25 92.00 171.19 Z"/>
  <path id="path3100" fill="#b42b31" d="M 106.46 171.37 C 110.44 170.27 114.25 173.65 113.12 177.75 C 111.87 181.96 106.11 182.74 103.57 179.28 C 101.48 176.32 103.01 172.31 106.46 171.37 Z"/>
  <path id="path3102" fill="#ffffff" d="M 79.66 171.91 C 80.89 171.63 82.16 171.46 83.41 171.26 C 82.15 175.07 81.94 177.40 83.48 181.17 C 81.95 181.19 80.43 181.21 78.90 181.24 C 80.07 178.14 79.79 175.14 79.66 171.91 Z"/>
  <path id="path3104" fill="#b42b31" d="M 113.16 172.04 C 116.51 171.55 119.87 171.56 123.25 171.68 C 120.62 176.33 119.15 182.09 115.55 186.04 C 115.93 181.63 117.83 177.95 119.64 174.01 C 117.38 173.59 115.23 173.06 113.16 172.04 Z"/>
  <path id="path3106" fill="#b42b31" d="M 90.23 173.50 C 91.18 173.14 92.14 172.81 93.11 172.52 C 93.74 174.65 94.18 176.82 94.54 179.01 C 92.92 178.93 91.29 178.82 89.67 178.69 C 89.78 176.98 89.81 175.15 90.23 173.50 Z"/>
  <path id="path3108" fill="#ffffff" d="M 106.46 173.32 C 108.40 172.61 110.29 173.12 110.84 175.28 C 111.49 177.67 109.89 180.09 107.30 179.65 C 104.53 178.88 104.26 174.85 106.46 173.32 Z"/>
</svg>