<svg xmlns="http://www.w3.org/2000/svg" width="298" height="297.26" viewBox="0 0 298 297.26"><title>Deportivo Alaves logo - Brandlogos.net</title><path d="M512,363.37c82.29,0,149,66.54,149,148.63h0c0,82.09-66.71,148.63-149,148.63S363,594.09,363,512,429.71,363.37,512,363.37Z" transform="translate(-363 -363.37)" style="fill:#0232a0"/><path d="M512,367.32c80.11,0,145.05,64.78,145.05,144.68h0c0,79.91-64.94,144.68-145.05,144.68S366.95,591.91,366.95,512,431.89,367.32,512,367.32Z" transform="translate(-363 -363.37)" style="fill:#fff"/><path d="M512.07,371.26c77.79,0,140.86,63,140.86,140.62h0c0,77.66-63.06,140.62-140.86,140.62s-140.86-63-140.86-140.62S434.28,371.26,512.07,371.26Z" transform="translate(-363 -363.37)" style="fill:#0232a0"/><path d="M512.1,413.85a98,98,0,1,1-98.27,98,98.16,98.16,0,0,1,98.27-98Z" transform="translate(-363 -363.37)" style="fill:#fff"/><path d="M511.9,418a93.89,93.89,0,1,1-94.12,93.89A94,94,0,0,1,511.9,418Z" transform="translate(-363 -363.37)" style="fill:#0232a0"/><path d="M511.9,421.6a90.32,90.32,0,0,1,90.4,90.24h0a90.4,90.4,0,1,1-90.4-90.24Z" transform="translate(-363 -363.37)" style="fill:#fff"/><path d="M532.94,552.31a144.52,144.52,0,0,0-33.64,15.4c-13.13,8.28-23.27,16.95-32,30l-4.67,6.94L404.15,456.78l4.6-1.37c20-6,41.43-7.28,62.17-5a178.05,178.05,0,0,1,43.82,10.66l1.76.67,2.3,5.49a282.15,282.15,0,0,0,29,7.58A148.3,148.3,0,0,0,575,478c14.39.17,24-1.93,30.77-9.49,3.2-3.56,5.53-7.59,7.57-14.78a61.32,61.32,0,0,1,6.27,25.91,65.38,65.38,0,0,1-8,32.5c-5.93,10.61-14.22,19.07-24.09,26.07-14,10-30.88,16.62-47.35,21.37l-3.83,1.1Z" transform="translate(-363 -363.37)" style="fill:#fff"/><path d="M410,459.63,463.63,595.2c9.35-13.89,20-22.81,33.32-31.22a150.4,150.4,0,0,1,38.58-17.06l3.38,8.46c18.34-5.29,33.84-12.09,46-20.73,9.78-6.94,17.38-15,22.79-24.63,6.94-12.41,9.85-29.89,5.17-44.51-6.13,12.5-19.85,17.14-38,16.92-17-.2-37.78-4.69-59.37-11.6l-2.36-5.62a173.18,173.18,0,0,0-42.74-10.4c-19.89-2.21-40.75-1.06-60.43,4.82Z" transform="translate(-363 -363.37)" style="fill:#0232a0"/><path d="M604.51,479.29c-2.92,2.62-6.71,4.21-11.4,5.33a77,77,0,0,1-18.26,1.76,163.72,163.72,0,0,1-29.38-3.28,316.81,316.81,0,0,1-33.3-8.23l-2.66-6.74c-13-4.81-25.75-7.12-39.52-8.65a145.6,145.6,0,0,0-52.7,4L428,490.21c9.21-3.42,20.15-5.53,32.83-6.53,15.86-1.25,34.36-.73,55.67,2l2.29,5.86c23.12,2.51,43.11,2.85,58.52-.11,11.6-2.23,22.21-6.1,27.24-12.14ZM448.05,540.55l17.23,43.16c8.18-9.86,15.84-16.34,28.22-24.15A154.19,154.19,0,0,1,538.32,541l3.14,7.86c14.7-3.81,28.14-8.71,40.42-17.42,8.85-6.28,16.92-14.05,22.24-23.57a55.35,55.35,0,0,0,5.3-12.92c-8.5,9.29-19.12,16-30.12,21-14,6.35-29.45,10.09-46.14,12l-2.45-6.17c-18.39-.27-31.86,1-46.71,4.3-12.69,2.85-26.6,7.83-36,14.5Z" transform="translate(-363 -363.37)" style="fill:#fff"/><path d="M522.51,477.86c-3.29-.88-6.69-1.86-10.33-3l6.6,16.67q5.07.55,9.93,1Zm10.65,50.06,8.3,20.94c3.36-.87,6.65-1.8,9.88-2.82l-8.25-19.51q-4.89.81-9.93,1.39Z" transform="translate(-363 -363.37)" style="fill:#d9e0e7"/><path d="M518.76,491.54l14.4,36.38q5-.58,9.93-1.39l-14.39-34q-4.87-.41-9.94-1Z" transform="translate(-363 -363.37)" style="fill:#082e86"/><path d="M640.79,505h-2.24l-3.5,1.15.54,2.23,2.42-.67v11.49h2.78Z" transform="translate(-363 -363.37)" style="fill:#fff"/><path d="M388,504.91H385.8l-3.5,1.15.54,2.23,2.42-.67v11.49H388Z" transform="translate(-363 -363.37)" style="fill:#fff"/><path d="M402.86,511.71a8.12,8.12,0,0,0-1.28-5,5.35,5.35,0,0,0-4.5-2.05,5.09,5.09,0,0,0-5.24,5.09c0,2.85,2.42,4.44,5.09,4.44a4.21,4.21,0,0,0,3.11-1.22c-.1,2.13-1.25,3.81-3.1,3.9a4.26,4.26,0,0,1-3.26-1.43l-1.43,2.1a7.37,7.37,0,0,0,4.71,1.73,5.56,5.56,0,0,0,4-1.87A8.54,8.54,0,0,0,402.86,511.71Zm-5.56.22a2.57,2.57,0,0,1-2.71-2.29,2.32,2.32,0,0,1,2.54-2.58c1.91,0,2.87,1.16,2.81,2.45A2.48,2.48,0,0,1,397.3,511.93Z" transform="translate(-363 -363.37)" style="fill:#fff"/><path d="M626.87,516.67c1.7-1.53,4.09-3,5.34-5a4.69,4.69,0,0,0,.79-2.41,4.4,4.4,0,0,0-2.26-3.87,5.67,5.67,0,0,0-2.76-.61,5.91,5.91,0,0,0-2.76.86,7,7,0,0,0-2.19,2.31l1.93,1.47c.77-1.14,1.7-2.18,3.08-2.18a2.08,2.08,0,0,1,2.12,2.15,3.72,3.72,0,0,1-1.53,2.71l-5.84,4.9v2.1h10.29v-2.44Z" transform="translate(-363 -363.37)" style="fill:#fff"/><path d="M509.13,401.92l4.61.16.23-6.33,3.39.09,4.06,6.51,5.41.19-4.74-7.37a6.32,6.32,0,0,0,4.53-6.08A6.41,6.41,0,0,0,524.7,384c-1.62-1.5-4-1.95-6.84-2l-8-.29Zm8.81-15.83c2.14.08,4.06.66,4,3s-2,2.77-4.18,2.69l-3.62-.13.2-5.67Z" transform="translate(-363 -363.37)" style="fill:#fff"/><path d="M463.39,413.69l4.26-1.78-2.35-5.63,2.28-1c3.64-1.57,5.07-3.11,5.73-4.81a7,7,0,0,0-.19-5.34,6.83,6.83,0,0,0-4.17-3.92c-2.1-.68-4.27-.16-6.86.92l-6.55,2.74Zm1-17.91c2-.83,3.59-.62,4.37,1.25s-.08,3.27-2.19,4.15l-2.93,1.22L461.42,397Z" transform="translate(-363 -363.37)" style="fill:#fff"/><path d="M427.3,442l5-5.14a12.15,12.15,0,0,0,3.55-5.8,9.88,9.88,0,0,0-2.75-9.51,9.73,9.73,0,0,0-8.75-2.82,11.5,11.5,0,0,0-6.43,3.78l-5.17,5.29Zm-5.94-17.09a5.83,5.83,0,0,1,8.43,0,5.76,5.76,0,0,1,.18,8.41l-2.42,2.47-8.61-8.41Z" transform="translate(-363 -363.37)" style="fill:#fff"/><path d="M488.5,383.79a10.56,10.56,0,1,1-8.12,12.79A10.61,10.61,0,0,1,488.5,383.79Zm1,4.19a6.22,6.22,0,1,1-4.35,7.43A6,6,0,0,1,489.5,388Z" transform="translate(-363 -363.37)" style="fill:#fff"/><path d="M606.2,419.71a10.56,10.56,0,1,1-15.08-1.5A10.61,10.61,0,0,1,606.2,419.71Zm-3.29,2.78a6.22,6.22,0,1,1-8.59-.54A6,6,0,0,1,602.91,422.49Z" transform="translate(-363 -363.37)" style="fill:#fff"/><path d="M551.8,387.31l-16.39-3.9-1,4.13,5.91,1.4-3.71,15.62,4.54,1.08L544.88,390l5.94,1.41Z" transform="translate(-363 -363.37)" style="fill:#fff"/><path d="M565,392.33l-4.27-1.74L553,409.39l4.27,1.74Z" transform="translate(-363 -363.37)" style="fill:#fff"/><path d="M446.52,399.65l-12.8,8.53L445,425.08l13-8.64-2.3-3.45-9.13,6.08-2.22-3.33,7.91-5.27-2.27-3.41L442,412.33l-2.17-3.26,9-6Z" transform="translate(-363 -363.37)" style="fill:#fff"/><path d="M590.82,406.56l-4.31-2.64-11.68,9.23,2.88-14.62-4.38-2.68-3.69,21.64,3.52,2.16Z" transform="translate(-363 -363.37)" style="fill:#fff"/><path d="M567.26,606.72a7.1,7.1,0,0,0-3.41,4.63,6.26,6.26,0,0,0,1,4.43,5.19,5.19,0,0,0,3.61,2.41,10,10,0,0,0,3.7-.33c1.66-.36,5.18-2,6.18-.25.64,1.11-.35,2.23-1.22,2.81a9.79,9.79,0,0,1-6.71,1.1l-.75,4.12a12.94,12.94,0,0,0,9.74-1.8,7.91,7.91,0,0,0,3.41-4.33,6.06,6.06,0,0,0-.9-4.95,5.29,5.29,0,0,0-4.72-2.43,21.13,21.13,0,0,0-4.92,1c-1,.26-3.43,1.13-4-.58a2.21,2.21,0,0,1,1.2-2.43c1.73-1.15,3.55-1.18,5.8-1l.26-4.16a12.13,12.13,0,0,0-8.25,1.76Z" transform="translate(-363 -363.37)" style="fill:#fff"/><path d="M556.51,612.75l-14.54,5L548.62,637l14.73-5.1L562,628l-10.37,3.59-1.31-3.78,9-3.11-1.34-3.87-9,3.11-1.28-3.7,10.18-3.53Z" transform="translate(-363 -363.37)" style="fill:#fff"/><path d="M547,614.55l3.34-1.16,2.88-4.17-4.43-.25Z" transform="translate(-363 -363.37)" style="fill:#fff"/><path d="M536.93,619.25l-5,.62-3.39,14.49-6.84-13.24-5.1.63L527.16,641l4.1-.5Z" transform="translate(-363 -363.37)" style="fill:#fff"/><path d="M511.19,642l-4.86-.47L505,636.92l-8.33-.8-2.27,4.26-4.71-.45,10.67-19.46,4.11.39Zm-7.5-9.29-1.89-6.32-3.11,5.84Z" transform="translate(-363 -363.37)" style="fill:#fff"/><path d="M459.07,630.37,454.81,628l.61-4.77-7.29-4.1-3.8,3-4.13-2.32,17.63-13.47,3.6,2ZM456,618.84l.83-6.55-5.21,4.09Z" transform="translate(-363 -363.37)" style="fill:#fff"/><path d="M478.42,615.74l-4.4-1.39-6.1,19.37,14,4.41,1.25-4-9.59-3Z" transform="translate(-363 -363.37)" style="fill:#fff"/><path d="M453.48,495.71l3.46,8.72,5-1.21-1.93-4.89,3.06-.54a15,15,0,0,1,4.74-.26,10.61,10.61,0,0,1,4.21,1.59c3,2,5.36,6.27,4.26,9.9a5.69,5.69,0,0,1-4.06,3.79l-5.74,1.84-2.19-5.53-5,1.42,3.83,9.65,11-3.35c3.62-1.1,6.77-4.13,6.85-8.14l.2-11,6.88,7.7-2.93.33v3.85l5.78-.74,3.44,4,3.82-.51-17.15-19.18-3.53.34-.18,5.57a11.42,11.42,0,0,0-7.23-4.52C465.57,493.49,459.67,494.36,453.48,495.71Z" transform="translate(-363 -363.37)" style="fill:#fff"/></svg>