<?xml version="1.0" encoding="UTF-8" standalone="no"?>
<svg xmlns:dc="http://purl.org/dc/elements/1.1/" xmlns:cc="http://creativecommons.org/ns#" xmlns:rdf="http://www.w3.org/1999/02/22-rdf-syntax-ns#" xmlns:svg="http://www.w3.org/2000/svg" xmlns="http://www.w3.org/2000/svg" xmlns:sodipodi="http://sodipodi.sourceforge.net/DTD/sodipodi-0.dtd" xmlns:inkscape="http://www.inkscape.org/namespaces/inkscape" inkscape:version="1.0 (4035a4f, 2020-05-01)" sodipodi:docname="397.svg" id="svg9456" height="200.0pt" width="200.0pt" viewBox="0 0 200 200" version="1.1">
  <metadata id="metadata9462">
    <rdf:RDF>
      <cc:Work rdf:about="">
        <dc:format>image/svg+xml</dc:format>
        <dc:type rdf:resource="http://purl.org/dc/dcmitype/StillImage"/>
      </cc:Work>
    </rdf:RDF>
  </metadata>
  <defs id="defs9460"/>
  <sodipodi:namedview inkscape:current-layer="svg9456" inkscape:cy="133.33333" inkscape:cx="133.33333" inkscape:zoom="1.75125" showgrid="false" id="namedview9458" inkscape:window-height="480" inkscape:window-width="640" inkscape:pageshadow="2" inkscape:pageopacity="0" guidetolerance="10" gridtolerance="10" objecttolerance="10" borderopacity="1" bordercolor="#666666" pagecolor="#ffffff"/>
  <path style="fill:#ffffff;fill-opacity:0.03238866" id="path9382" fill="#ffffff" d="M 0.00 0.00 L 200.00 0.00 L 200.00 200.00 L 0.00 200.00 L 0.00 0.00 Z"/>
  <path id="path9384" fill="#0053a5" d="M 83.51 2.78 C 101.36 -0.18 119.93 1.62 136.75 8.37 C 156.22 16.09 173.01 30.16 184.06 47.95 C 200.36 73.76 203.43 107.03 192.47 135.48 C 185.85 152.83 174.22 168.21 159.34 179.31 C 146.57 188.88 131.49 195.28 115.73 197.75 C 96.29 200.70 76.14 198.13 58.33 189.69 C 31.02 177.05 10.43 151.63 3.86 122.25 C -1.12 100.28 1.48 76.73 11.53 56.53 C 25.24 28.41 52.62 7.87 83.51 2.78 Z"/>
  <path id="path9386" fill="#ffffff" d="M 89.49 5.87 C 105.15 4.15 121.16 6.25 135.76 12.20 C 152.52 18.96 167.19 30.65 177.64 45.39 C 186.93 58.50 192.85 73.98 194.51 89.98 C 196.59 108.53 192.92 127.72 184.23 144.23 C 171.64 168.32 148.48 186.42 121.96 192.54 C 100.81 197.57 78.05 195.05 58.55 185.44 C 33.34 173.21 14.27 149.55 7.87 122.24 C 3.54 104.12 4.67 84.67 11.19 67.21 C 17.79 49.31 29.95 33.55 45.57 22.59 C 58.51 13.43 73.74 7.66 89.49 5.87 Z"/>
  <path id="path9388" fill="#0049a1" d="M 87.13 12.16 C 89.44 11.05 92.51 11.93 93.41 14.44 C 94.07 16.66 94.64 19.56 93.78 21.78 C 92.26 25.00 86.74 25.16 85.44 21.66 C 84.58 18.63 83.41 13.73 87.13 12.16 Z"/>
  <path id="path9390" fill="#0054a6" d="M 97.79 10.32 C 101.11 12.21 102.67 15.23 104.68 18.28 C 104.67 15.92 104.66 13.56 104.66 11.20 L 107.26 11.25 C 107.25 15.34 107.25 19.43 107.25 23.52 C 106.47 23.51 105.69 23.50 104.91 23.50 C 103.38 21.14 101.85 18.78 100.30 16.44 C 100.29 18.79 100.29 21.15 100.29 23.51 L 97.59 23.51 C 97.60 19.11 97.54 14.72 97.79 10.32 Z"/>
  <path id="path9392" fill="#004ca2" d="M 82.44 14.77 C 81.16 15.31 79.88 15.85 78.59 16.38 C 79.36 19.28 80.61 22.32 80.75 25.33 L 78.99 27.19 C 77.93 23.82 76.99 20.41 76.07 17.00 C 75.02 17.24 73.97 17.48 72.92 17.72 L 72.26 15.52 C 75.35 14.96 79.88 12.20 82.44 14.77 Z"/>
  <path id="path9394" fill="#ffffff" d="M 88.31 14.31 C 89.07 14.25 89.83 14.25 90.57 14.31 C 91.42 16.49 91.69 18.83 91.49 21.15 C 89.44 22.34 87.98 22.15 87.57 19.61 C 87.43 18.65 86.57 13.82 88.31 14.31 Z"/>
  <path id="path9396" fill="#0252a5" d="M 122.89 14.53 C 124.87 14.37 127.37 14.87 127.80 17.16 C 128.20 18.78 125.94 20.06 125.02 21.16 L 125.53 22.60 C 126.90 22.35 128.27 22.12 129.64 21.89 C 128.77 23.20 127.89 24.50 127.00 25.81 C 127.45 26.83 127.89 27.86 128.33 28.89 C 126.99 28.32 125.66 27.75 124.32 27.18 C 122.64 26.67 119.93 26.55 118.87 24.95 C 117.31 22.91 119.70 20.68 120.54 18.76 C 121.27 17.27 121.81 15.82 122.89 14.53 Z"/>
  <path id="path9398" fill="#0051a5" d="M 68.01 17.49 C 69.64 20.89 71.57 24.38 72.59 28.01 L 71.08 30.13 C 70.19 28.40 69.33 26.66 68.47 24.92 C 67.30 25.46 66.14 26.00 64.97 26.54 C 65.68 28.08 66.40 29.61 67.11 31.15 C 66.29 31.49 65.46 31.82 64.64 32.15 C 62.95 28.39 61.26 24.63 59.52 20.89 C 60.36 20.57 61.20 20.24 62.04 19.92 C 62.70 21.41 63.36 22.90 64.02 24.39 C 65.19 23.85 66.36 23.31 67.54 22.77 C 66.84 21.13 66.14 19.48 65.45 17.84 C 66.30 17.71 67.15 17.60 68.01 17.49 Z"/>
  <path id="path9400" fill="#8eaed6" d="M 123.61 17.04 C 124.67 15.91 126.20 17.08 125.42 18.41 C 124.36 19.56 122.85 18.37 123.61 17.04 Z"/>
  <path id="path9402" fill="#b4c9e3" d="M 122.01 20.17 C 122.78 21.89 123.51 23.62 124.17 25.38 C 123.05 24.88 121.95 24.35 120.88 23.77 C 121.06 22.49 121.55 21.37 122.01 20.17 Z"/>
  <path id="path9404" fill="#004ea3" d="M 142.92 22.29 C 143.76 22.53 144.61 22.77 145.44 23.03 C 144.53 24.56 143.61 26.08 142.67 27.60 C 143.78 28.29 144.89 28.97 146.00 29.66 C 146.89 28.22 147.78 26.78 148.67 25.35 L 150.86 26.87 C 148.67 30.34 146.53 33.83 144.38 37.33 C 143.62 36.88 142.85 36.43 142.08 35.99 C 142.99 34.56 143.90 33.13 144.81 31.70 C 143.69 30.99 142.58 30.28 141.47 29.58 C 140.59 31.01 139.72 32.44 138.84 33.87 C 138.07 33.44 137.30 32.99 136.53 32.55 C 138.66 29.13 140.65 25.62 142.92 22.29 Z"/>
  <path id="path9406" fill="#0049a0" d="M 55.20 24.54 C 55.12 25.31 55.05 26.08 54.97 26.85 C 53.70 27.50 52.45 28.19 51.24 28.93 C 52.18 31.48 53.76 33.59 55.44 35.69 C 56.61 34.27 57.41 32.99 58.13 31.30 L 54.99 32.31 C 54.68 31.72 54.36 31.14 54.05 30.56 C 55.45 29.62 56.86 28.68 58.27 27.74 C 59.07 29.50 59.90 31.13 60.32 33.02 C 59.70 35.44 57.70 37.34 55.13 37.26 C 53.27 37.25 51.84 35.48 50.85 34.10 C 49.52 32.13 48.32 29.88 49.54 27.52 C 50.60 25.59 53.32 25.25 55.20 24.54 Z"/>
  <path id="path9408" fill="#0054a6" d="M 100.00 29.25 C 116.72 29.11 133.27 35.17 145.99 46.00 C 156.93 55.26 164.71 67.54 168.63 81.31 C 176.09 83.69 185.28 85.61 191.40 90.67 C 184.11 90.97 177.44 88.75 170.04 87.27 C 172.55 102.14 170.71 117.49 164.06 131.07 C 157.29 145.15 145.74 156.81 131.74 163.74 C 116.80 171.21 99.27 173.10 83.07 169.04 C 66.08 164.93 51.00 154.21 41.26 139.73 C 33.39 128.11 29.35 114.40 29.17 100.39 C 24.45 100.33 19.35 100.31 14.74 99.23 C 11.87 98.72 10.14 97.03 8.35 94.90 C 15.43 94.13 22.51 93.60 29.55 92.54 C 31.62 75.09 39.87 58.74 53.08 47.10 C 65.89 35.68 82.82 29.17 100.00 29.25 Z"/>
  <path id="path9410" fill="#0048a0" d="M 153.52 31.56 C 157.04 30.18 160.96 33.91 159.51 37.50 C 158.47 39.56 156.80 41.60 154.79 42.77 C 151.63 44.50 147.38 40.84 148.42 37.40 C 149.25 35.27 151.50 32.64 153.52 31.56 Z"/>
  <path id="path9412" fill="#1d60ad" d="M 43.62 31.92 C 46.38 34.85 48.89 38.03 51.55 41.06 C 50.85 41.65 50.14 42.24 49.44 42.83 C 46.61 39.59 43.77 36.36 41.12 32.97 L 43.62 31.92 Z"/>
  <path id="path9414" fill="#ffffff" d="M 155.14 33.17 C 156.18 34.36 158.18 34.98 156.89 36.82 C 156.14 38.06 155.17 39.21 154.02 40.11 C 152.84 41.30 151.33 39.67 150.05 39.34 C 151.59 37.15 153.24 35.05 155.14 33.17 Z"/>
  <path id="path9416" fill="#004aa1" d="M 38.81 38.23 C 41.41 38.64 41.51 41.16 42.41 43.14 C 44.09 43.62 45.78 44.10 47.46 44.58 C 46.78 45.26 46.11 45.94 45.43 46.62 C 43.18 46.17 40.92 45.73 38.63 45.45 C 39.95 46.95 41.32 48.40 42.70 49.84 L 40.92 51.65 C 37.87 48.82 34.82 45.99 31.75 43.18 C 33.59 41.58 36.06 37.68 38.81 38.23 Z"/>
  <path id="path9418" fill="#0051a4" d="M 163.77 37.28 C 164.26 38.05 164.75 38.82 165.23 39.59 C 164.06 41.90 162.63 44.14 161.28 46.35 C 163.69 45.25 166.10 44.16 168.51 43.08 C 169.17 43.76 169.83 44.43 170.49 45.11 C 166.12 46.74 161.34 49.86 156.65 49.70 C 158.33 46.44 160.21 43.29 162.06 40.13 C 162.63 39.18 163.20 38.23 163.77 37.28 Z"/>
  <path id="path9420" fill="#b2c8e3" d="M 38.53 39.97 C 39.97 42.55 38.99 43.22 37.80 45.65 C 36.92 44.62 36.01 43.62 35.19 42.54 C 36.28 41.65 37.39 40.79 38.53 39.97 Z"/>
  <path id="path9422" fill="#004ea3" d="M 172.31 47.98 C 173.98 50.23 175.47 52.62 177.00 54.97 C 176.30 55.35 175.60 55.73 174.91 56.11 C 173.90 54.54 172.89 52.97 171.89 51.40 C 171.14 51.88 170.39 52.36 169.64 52.84 C 170.58 54.21 171.50 55.59 172.43 56.96 C 171.73 57.33 171.02 57.70 170.31 58.07 C 169.45 56.76 168.60 55.45 167.74 54.13 C 166.96 54.63 166.18 55.12 165.40 55.62 C 166.48 57.17 167.56 58.71 168.65 60.25 L 166.73 61.73 C 165.16 59.39 163.59 57.04 162.02 54.69 C 165.45 52.45 168.81 50.09 172.31 47.98 Z"/>
  <path id="path9424" fill="#0050a4" d="M 29.01 48.69 C 30.51 49.29 31.72 50.21 33.03 51.13 C 34.44 51.91 36.40 52.59 37.26 54.01 C 37.62 56.74 35.02 59.62 33.72 61.89 C 30.21 59.63 26.71 57.34 23.20 55.06 C 24.82 52.93 26.35 49.60 29.01 48.69 Z"/>
  <path id="path9426" fill="#a7c0df" d="M 30.50 52.20 C 30.19 53.53 29.72 54.78 29.27 56.07 C 28.33 55.48 27.39 54.88 26.46 54.27 C 27.66 52.94 28.48 50.07 30.50 52.20 Z"/>
  <path id="path9428" fill="#b9cce5" d="M 33.08 53.80 C 33.78 54.21 34.47 54.63 35.16 55.06 C 34.56 56.30 33.91 57.51 33.27 58.72 C 32.34 58.04 31.42 57.36 30.50 56.68 C 31.35 55.71 32.20 54.74 33.08 53.80 Z"/>
  <path id="path9430" fill="#ffffff" d="M 93.74 80.36 C 103.05 84.52 111.44 91.53 120.10 96.89 C 122.01 98.05 124.03 98.98 126.12 99.74 C 122.98 96.96 118.99 94.90 115.44 92.63 C 123.19 88.47 131.07 84.31 139.45 81.50 C 145.83 79.22 152.48 78.38 159.15 79.94 C 169.38 82.32 180.22 84.91 189.49 89.97 C 180.28 89.40 171.13 86.22 162.01 84.82 C 159.84 84.46 157.77 84.89 155.73 85.60 C 147.93 88.38 141.72 92.78 134.67 96.84 C 137.46 97.47 140.10 97.89 142.59 99.37 C 146.62 101.70 149.19 105.04 153.80 106.28 C 150.47 109.06 146.65 109.27 142.54 109.81 C 145.18 110.26 147.76 110.83 150.31 111.63 L 149.65 112.26 C 145.92 113.54 142.01 114.16 138.26 115.40 C 129.07 118.42 118.76 121.99 109.03 122.08 C 96.94 121.59 85.02 117.27 72.98 116.40 C 66.31 115.99 61.25 119.18 55.04 120.26 C 48.03 120.48 40.97 116.67 37.26 110.73 C 36.32 109.13 35.31 106.92 35.85 105.05 C 36.71 102.49 39.94 103.38 41.98 103.36 C 49.68 104.26 57.22 105.29 65.01 104.62 C 71.79 104.20 77.54 101.97 84.13 100.46 C 85.51 101.08 86.90 101.67 88.31 102.23 C 84.05 97.98 79.10 95.64 73.01 95.66 C 56.13 95.56 37.96 100.23 20.94 99.12 C 16.91 98.83 13.41 97.90 9.87 95.92 C 17.32 94.94 24.81 94.50 32.23 93.18 C 49.02 90.65 64.55 83.80 81.25 80.11 C 85.51 79.29 89.63 78.48 93.74 80.36 Z"/>
  <path id="path9432" fill="#618dc4" d="M 141.56 103.79 C 142.18 104.31 142.80 104.83 143.42 105.35 C 142.59 105.83 141.77 106.30 140.95 106.78 C 140.05 106.25 139.15 105.71 138.25 105.18 C 139.36 104.73 140.44 104.21 141.56 103.79 Z"/>
  <path id="path9434" fill="#feb114" d="M 153.80 106.28 C 158.93 106.97 161.38 108.24 164.32 112.57 C 159.67 112.27 154.92 112.32 150.31 111.63 C 147.76 110.83 145.18 110.26 142.54 109.81 C 146.65 109.27 150.47 109.06 153.80 106.28 Z"/>
  <path id="path9436" fill="#004ca2" d="M 71.67 170.59 C 72.09 175.40 71.70 180.37 71.51 185.19 C 70.93 184.85 70.34 184.52 69.76 184.19 C 68.72 181.89 67.60 181.14 65.56 179.88 C 64.94 180.52 64.33 181.17 63.72 181.81 C 62.85 181.52 61.98 181.23 61.12 180.94 C 64.40 177.55 67.37 172.66 71.67 170.59 Z"/>
  <path id="path9438" fill="#0052a5" d="M 128.47 172.16 C 129.07 171.54 129.67 170.94 130.29 170.35 C 132.04 174.69 133.70 179.10 134.94 183.61 C 131.11 182.94 128.63 180.53 125.71 178.22 C 126.56 180.52 127.40 182.83 128.25 185.13 C 127.41 185.43 126.57 185.73 125.73 186.03 C 124.18 181.79 122.56 177.60 121.37 173.24 C 125.14 173.96 127.65 176.32 130.55 178.60 C 129.81 176.50 128.84 174.36 128.47 172.16 Z"/>
  <path id="path9440" fill="#0047a0" d="M 78.74 174.02 C 79.60 174.23 80.47 174.43 81.33 174.64 C 80.52 177.92 79.72 181.21 78.91 184.49 C 80.97 185.03 83.02 185.58 85.07 186.17 C 83.02 189.33 78.70 186.61 75.76 186.30 C 76.78 182.22 77.76 178.12 78.74 174.02 Z"/>
  <path id="path9442" fill="#9bb7da" d="M 69.96 174.85 C 69.81 176.61 69.59 178.37 69.35 180.12 C 68.50 179.38 67.64 178.64 66.79 177.90 C 67.77 176.80 68.85 175.82 69.96 174.85 Z"/>
  <path id="path9444" fill="#0048a0" d="M 112.15 176.16 C 114.21 175.05 117.14 175.52 118.37 177.61 C 119.42 179.80 119.80 182.43 119.64 184.83 C 119.06 188.27 114.20 189.64 111.80 187.14 C 110.41 185.59 110.13 182.96 109.85 180.99 C 109.54 179.02 110.35 177.08 112.15 176.16 Z"/>
  <path id="path9446" fill="#004aa1" d="M 89.67 176.26 C 92.37 176.79 96.82 176.16 98.31 178.96 C 98.19 180.39 97.97 181.77 97.68 183.17 C 97.73 185.51 98.78 188.02 95.94 189.12 C 93.56 189.49 91.04 189.18 88.63 189.13 C 89.01 184.84 89.36 180.55 89.67 176.26 Z"/>
  <path id="path9448" fill="#0048a0" d="M 102.74 176.18 L 105.08 177.50 C 105.80 181.36 105.58 185.47 105.83 189.39 C 104.98 189.45 104.13 189.51 103.29 189.56 C 103.04 185.10 102.68 180.65 102.74 176.18 Z"/>
  <path id="path9450" fill="#ffffff" d="M 114.95 178.02 C 116.91 178.83 116.95 182.32 117.09 184.09 C 116.87 186.05 115.06 185.57 113.60 186.16 C 113.06 183.69 112.50 181.27 112.45 178.73 C 113.27 178.40 114.10 178.16 114.95 178.02 Z"/>
  <path id="path9452" fill="#c6d5ea" d="M 91.95 178.89 C 92.99 178.91 94.02 178.94 95.06 178.96 C 95.53 179.74 96.00 180.52 96.47 181.31 C 94.89 181.47 93.32 181.70 91.78 182.10 C 91.84 181.03 91.89 179.96 91.95 178.89 Z"/>
  <path id="path9454" fill="#b3c8e3" d="M 91.69 183.40 C 93.17 183.96 94.64 184.50 96.19 184.81 C 95.79 185.58 95.40 186.35 95.00 187.12 C 93.76 187.06 92.52 186.99 91.28 186.92 C 91.42 185.75 91.55 184.58 91.69 183.40 Z"/>
</svg>