<svg id="svg" version="1.1" width="400" height="400" viewBox="0 0 400 400" xmlns="http://www.w3.org/2000/svg" xmlns:xlink="http://www.w3.org/1999/xlink"><g id="svgg"><path id="path0" d="M185.167 0.373 C 68.670 9.240,-15.458 115.133,2.205 230.667 C 15.728 319.119,88.216 388.914,176.833 398.810 C 309.815 413.661,419.407 298.141,397.320 166.399 C 380.352 65.192,287.565 -7.421,185.167 0.373 M216.687 5.826 C 354.111 17.921,436.051 165.077,373.809 288.000 C 321.311 391.678,190.086 426.651,93.096 362.814 C -10.231 294.807,-25.093 149.720,62.314 62.314 C 97.447 27.180,141.258 7.983,192.667 5.195 C 196.835 4.969,211.255 5.348,216.687 5.826 M191.500 76.207 C 154.059 79.171,120.515 97.990,99.009 128.097 C 97.858 129.708,96.980 131.091,97.058 131.169 C 97.210 131.321,100.944 133.000,101.130 133.000 C 101.192 133.000,102.424 131.387,103.868 129.417 C 151.899 63.880,250.004 64.683,297.313 131.000 C 298.294 132.375,299.123 133.535,299.154 133.578 C 299.186 133.621,300.214 133.258,301.440 132.771 L 303.669 131.887 303.115 131.027 C 280.288 95.597,233.964 72.846,191.500 76.207 M167.992 101.271 C 169.168 103.296,171.107 104.802,175.833 107.363 C 181.929 110.665,180.921 109.658,187.108 118.635 L 192.255 126.104 190.756 128.188 C 189.566 129.842,188.938 130.392,187.712 130.852 C 181.492 133.184,180.685 134.288,180.056 141.320 L 179.833 143.806 177.500 145.175 L 175.167 146.544 172.275 154.855 L 169.383 163.167 169.358 176.406 L 169.333 189.646 171.130 190.795 C 172.118 191.428,173.016 192.090,173.126 192.268 C 173.236 192.446,170.703 196.279,167.496 200.786 L 161.667 208.981 161.667 229.382 L 161.667 249.783 168.250 260.939 L 174.833 272.095 184.000 279.071 C 193.125 286.015,193.182 286.067,196.580 290.357 C 198.457 292.727,200.048 294.667,200.116 294.667 C 200.183 294.667,201.762 292.727,203.624 290.355 L 207.010 286.044 216.169 279.094 L 225.329 272.144 231.997 260.822 L 238.666 249.500 238.666 229.321 L 238.667 209.142 232.796 200.698 C 229.567 196.053,227.065 192.158,227.238 192.043 C 227.410 191.928,228.251 191.383,229.108 190.833 L 230.665 189.833 230.666 176.507 L 230.667 163.181 227.917 154.885 L 225.167 146.590 222.789 145.224 L 220.411 143.858 220.048 140.679 C 219.306 134.194,218.784 133.417,213.842 131.450 C 211.206 130.401,208.391 127.816,208.347 126.404 C 208.339 126.168,210.742 122.493,213.685 118.237 L 219.036 110.500 224.387 107.555 C 229.369 104.812,230.399 104.035,232.370 101.529 L 232.989 100.743 230.546 101.496 C 228.301 102.189,218.321 107.404,216.882 108.636 C 216.429 109.025,208.347 120.217,205.952 123.773 C 205.821 123.967,204.683 123.808,203.053 123.368 L 200.369 122.643 197.637 123.341 C 196.134 123.725,194.785 123.917,194.638 123.769 C 194.491 123.621,192.000 120.149,189.102 116.053 L 183.833 108.607 178.500 105.597 C 172.995 102.492,167.352 100.168,167.992 101.271 M128.623 110.520 C 128.166 110.977,128.155 111.338,128.531 113.499 L 128.958 115.958 136.180 124.729 C 143.767 133.944,166.166 158.540,166.492 158.013 C 166.596 157.844,167.039 156.760,167.476 155.603 C 167.913 154.446,168.580 152.719,168.958 151.765 L 169.645 150.031 150.505 132.648 L 131.366 115.266 130.489 112.633 C 129.558 109.838,129.439 109.704,128.623 110.520 M270.502 110.389 C 270.410 110.633,269.998 111.827,269.585 113.042 L 268.833 115.251 249.833 132.512 C 239.383 142.006,230.790 149.879,230.738 150.007 C 230.653 150.213,233.540 157.985,233.797 158.241 C 234.110 158.555,257.331 132.789,263.733 125.025 L 271.299 115.849 271.690 113.526 C 272.080 111.217,271.924 110.364,271.060 110.075 C 270.844 110.003,270.593 110.145,270.502 110.389 M190.655 138.833 C 190.664 139.374,190.032 139.741,187.307 140.779 C 183.448 142.248,183.319 142.226,184.429 140.276 C 184.881 139.483,186.126 137.258,187.196 135.333 L 189.141 131.833 189.893 135.000 C 190.306 136.742,190.649 138.467,190.655 138.833 M214.205 137.500 C 215.526 139.883,216.551 141.890,216.483 141.959 C 216.416 142.028,214.800 141.457,212.894 140.691 L 209.427 139.298 210.053 136.232 C 210.952 131.836,210.990 131.734,211.442 132.529 C 211.641 132.880,212.885 135.117,214.205 137.500 M94.333 134.892 C 94.333 135.148,106.351 154.333,106.512 154.333 C 106.583 154.333,115.085 156.291,125.404 158.684 C 135.724 161.077,147.992 163.920,152.667 165.000 C 157.342 166.081,162.104 167.185,163.250 167.453 L 165.333 167.941 165.333 165.703 L 165.333 163.466 148.583 156.684 C 139.371 152.953,127.108 147.989,121.333 145.652 C 115.558 143.314,107.121 139.896,102.583 138.054 C 98.046 136.213,94.333 134.790,94.333 134.892 M270.333 149.108 L 234.833 163.518 234.734 165.786 C 234.644 167.838,234.692 168.038,235.234 167.878 C 235.564 167.780,248.876 164.687,264.818 161.005 C 280.759 157.322,293.832 154.277,293.868 154.238 C 294.355 153.714,306.111 134.652,305.928 134.682 C 305.876 134.691,289.858 141.183,270.333 149.108 M80.517 138.160 C 71.116 140.648,70.333 140.962,70.333 142.240 C 70.333 143.187,77.571 168.986,77.953 169.398 C 78.134 169.594,101.251 157.527,101.859 156.919 C 102.036 156.742,91.874 139.704,89.928 136.917 C 89.131 135.775,89.937 135.668,80.517 138.160 M308.077 139.721 C 303.660 146.859,297.677 156.788,297.755 156.848 C 297.859 156.927,319.538 168.423,320.862 169.101 L 321.891 169.627 325.810 155.969 C 329.855 141.873,329.885 141.710,328.601 140.870 C 327.927 140.429,314.365 136.682,311.492 136.143 C 310.424 135.943,310.395 135.974,308.077 139.721 M217.410 146.175 L 222.943 149.017 223.471 150.565 C 224.160 152.589,224.388 152.574,219.495 150.838 C 217.150 150.006,215.176 149.379,215.110 149.446 C 215.043 149.512,217.315 151.495,220.157 153.852 C 225.269 158.092,225.332 158.161,226.030 160.257 C 226.418 161.422,226.682 162.425,226.618 162.485 C 226.553 162.545,223.275 160.849,219.333 158.716 L 212.167 154.837 200.475 154.740 L 188.784 154.643 181.191 158.676 C 177.015 160.894,173.554 162.662,173.501 162.604 C 173.447 162.547,173.777 161.497,174.232 160.271 C 175.047 158.077,175.143 157.973,180.188 153.789 C 183.008 151.451,185.267 149.489,185.209 149.431 C 185.151 149.373,183.184 150.006,180.838 150.838 C 176.017 152.548,176.096 152.553,176.736 150.604 C 177.201 149.192,177.305 149.116,182.688 146.275 L 188.167 143.384 200.022 143.359 L 211.878 143.333 217.410 146.175 M94.000 166.205 C 87.125 169.970,80.975 173.333,80.333 173.678 C 79.186 174.293,79.898 174.304,122.250 174.319 L 165.333 174.333 165.333 172.867 L 165.333 171.400 162.917 170.872 C 156.731 169.519,107.225 159.335,106.885 159.346 C 106.673 159.352,100.875 162.439,94.000 166.205 M263.740 165.325 C 248.105 168.580,235.259 171.301,235.194 171.372 C 235.129 171.442,234.971 172.137,234.842 172.917 L 234.608 174.333 277.721 174.330 L 320.833 174.327 319.167 173.382 C 310.843 168.659,293.311 159.341,292.805 159.370 C 292.454 159.390,279.374 162.070,263.740 165.325 M211.083 166.415 C 217.086 169.028,221.999 171.322,221.999 171.513 C 222.000 171.916,215.206 187.238,214.884 187.561 C 214.764 187.680,214.666 184.865,214.666 181.306 L 214.665 174.833 207.249 171.131 L 199.833 167.428 190.333 168.531 C 179.641 169.773,178.892 169.823,179.070 169.290 C 179.174 168.978,198.781 161.809,199.833 161.698 C 200.017 161.679,205.079 163.801,211.083 166.415 M77.889 178.142 C 76.440 181.918,75.603 204.346,76.595 212.833 C 83.674 273.420,130.763 318.997,191.124 323.686 C 253.909 328.563,311.415 283.640,322.144 221.333 C 324.431 208.053,324.500 190.290,322.306 179.417 L 321.953 177.667 319.607 177.667 C 317.343 177.667,317.267 177.693,317.440 178.417 C 318.388 182.382,319.333 193.172,319.333 200.030 C 319.333 255.140,281.068 303.502,227.436 316.174 C 217.928 318.421,211.012 319.168,199.833 319.158 C 125.555 319.088,69.034 251.429,82.540 178.750 L 82.741 177.667 80.406 177.667 C 78.692 177.667,78.023 177.793,77.889 178.142 M118.578 182.148 L 129.657 186.600 146.745 183.801 C 156.144 182.262,164.171 180.924,164.583 180.828 C 165.224 180.680,165.333 180.435,165.333 179.160 L 165.333 177.667 136.417 177.682 L 107.500 177.697 118.578 182.148 M234.667 179.152 C 234.667 180.566,234.718 180.645,235.750 180.825 C 240.651 181.679,269.495 186.350,270.082 186.385 C 270.694 186.421,291.835 178.255,292.306 177.801 C 292.382 177.727,279.444 177.667,263.556 177.667 L 234.667 177.667 234.667 179.152 M98.264 181.206 C 93.671 183.605,93.244 182.774,104.921 194.174 L 113.008 202.069 118.254 197.065 C 121.139 194.312,124.012 191.527,124.637 190.876 L 125.774 189.691 124.970 189.378 C 124.120 189.046,117.792 186.406,107.781 182.206 C 100.659 179.218,101.832 179.341,98.264 181.206 M294.500 181.292 C 292.483 182.161,287.120 184.427,282.581 186.328 L 274.328 189.783 279.772 195.030 C 282.765 197.915,285.704 200.688,286.302 201.191 L 287.389 202.106 296.038 193.470 C 306.576 182.947,306.307 183.543,301.667 181.030 C 298.618 179.379,298.971 179.366,294.500 181.292 M148.424 187.201 L 131.682 190.568 130.258 191.869 C 115.285 205.551,115.795 203.960,126.348 204.085 L 133.195 204.167 136.014 202.765 C 139.665 200.949,164.750 187.378,165.103 187.027 C 165.252 186.880,165.327 186.101,165.270 185.297 L 165.167 183.833 148.424 187.201 M234.667 185.431 L 234.667 186.861 240.417 189.998 C 268.579 205.361,266.464 204.488,274.749 204.177 C 283.943 203.833,283.853 204.594,275.594 197.020 L 268.529 190.542 252.190 187.271 C 232.972 183.424,234.667 183.602,234.667 185.431 M164.162 194.775 C 163.248 195.384,160.521 197.117,158.101 198.627 C 151.460 202.770,151.945 202.009,145.999 217.654 C 136.501 242.650,138.353 238.764,128.844 253.667 C 124.223 260.908,119.798 267.857,119.009 269.109 C 117.386 271.684,117.267 271.750,113.212 272.349 L 110.258 272.785 112.159 273.746 C 113.828 274.590,114.279 274.680,115.873 274.481 C 119.687 274.004,118.897 274.862,138.569 249.833 L 156.646 226.833 156.656 217.124 L 156.667 207.415 161.500 200.816 C 167.230 192.993,167.394 192.620,164.162 194.775 M234.000 193.906 C 234.000 194.077,236.175 197.187,238.833 200.816 L 243.667 207.415 243.669 217.124 L 243.672 226.833 259.586 247.038 C 268.339 258.150,276.524 268.552,277.776 270.152 C 281.150 274.463,284.337 275.584,288.104 273.784 L 290.077 272.840 286.649 272.268 C 282.460 271.569,284.175 273.618,272.740 255.651 L 263.077 240.469 260.073 232.651 C 258.420 228.351,255.534 220.783,253.659 215.833 C 248.977 203.477,248.229 202.161,244.728 200.133 C 243.869 199.636,241.309 198.040,239.039 196.587 C 234.599 193.745,234.000 193.426,234.000 193.906 M183.164 198.890 L 186.829 201.333 200.164 201.333 L 213.500 201.332 218.000 198.333 C 220.475 196.684,222.604 195.334,222.730 195.334 C 222.981 195.333,228.558 202.996,228.838 203.726 C 228.957 204.034,226.551 205.533,221.187 208.492 C 216.885 210.866,213.395 212.832,213.432 212.860 C 213.503 212.912,230.429 210.862,232.925 210.498 L 234.349 210.290 234.258 216.062 L 234.167 221.833 227.333 224.403 L 220.500 226.973 200.241 226.986 L 179.982 227.000 172.995 224.417 L 166.008 221.833 166.004 216.083 C 166.002 212.921,166.112 210.340,166.250 210.349 C 166.387 210.357,171.052 210.928,176.615 211.618 C 183.395 212.458,186.544 212.734,186.164 212.457 C 185.852 212.229,182.463 210.290,178.632 208.147 C 174.801 206.005,171.667 204.103,171.667 203.921 C 171.667 203.598,172.208 202.813,175.936 197.730 L 177.723 195.293 178.611 195.870 C 179.100 196.187,181.149 197.546,183.164 198.890 M181.163 239.501 L 188.160 242.000 200.107 242.000 L 212.054 242.000 219.208 239.459 C 225.140 237.351,227.523 236.707,226.639 237.450 C 226.563 237.514,223.625 239.764,220.111 242.450 L 213.721 247.333 200.131 247.333 L 186.541 247.333 180.854 243.006 C 171.362 235.784,171.344 235.994,181.163 239.501 M178.779 258.667 L 187.214 261.667 200.175 261.667 L 213.136 261.667 221.753 258.630 C 226.493 256.960,230.426 255.648,230.494 255.716 C 230.561 255.784,229.166 258.238,227.392 261.170 L 224.167 266.500 217.263 269.000 L 210.359 271.500 214.930 271.667 L 219.500 271.833 212.602 277.083 L 205.704 282.333 200.164 282.333 L 194.624 282.333 187.701 277.083 L 180.779 271.833 185.398 271.667 L 190.017 271.500 183.036 269.003 L 176.055 266.506 173.111 261.387 C 169.973 255.932,169.835 255.667,170.144 255.667 C 170.254 255.667,174.139 257.017,178.779 258.667 " stroke="none" fill="#0b0505" fill-rule="evenodd"/><path id="path1" d="M187.833 5.532 C 187.100 5.601,184.625 5.816,182.333 6.009 C 71.296 15.384,-9.519 118.939,7.529 230.000 C 22.914 330.228,114.315 402.369,215.518 394.161 C 332.155 384.701,414.075 275.607,390.800 160.736 C 372.644 71.128,293.663 6.189,202.000 5.503 C 194.942 5.450,188.567 5.463,187.833 5.532 M217.667 10.491 C 350.644 23.456,429.787 165.313,370.445 284.333 C 312.189 401.174,157.805 426.509,65.648 334.352 C -22.363 246.341,-3.882 100.115,103.333 36.173 C 129.582 20.518,157.866 12.029,191.000 9.860 C 195.024 9.596,212.809 10.017,217.667 10.491 M188.000 29.833 L 188.000 32.333 192.686 32.333 L 197.372 32.333 197.269 44.583 L 197.167 56.833 200.083 56.930 L 203.000 57.026 203.000 44.680 L 203.000 32.333 207.667 32.333 L 212.333 32.333 212.333 29.833 L 212.333 27.333 200.167 27.333 L 188.000 27.333 188.000 29.833 M171.750 29.568 C 169.237 30.159,169.248 29.089,171.643 39.536 C 172.730 44.279,173.593 48.185,173.560 48.217 C 173.527 48.249,169.566 44.914,164.758 40.805 C 159.949 36.695,155.880 33.333,155.715 33.333 C 154.407 33.333,150.667 34.479,150.667 34.880 C 150.667 35.141,152.092 41.566,153.833 49.158 C 155.575 56.750,157.000 63.024,157.000 63.100 C 157.000 63.243,162.415 62.022,162.605 61.837 C 162.662 61.781,161.802 57.793,160.692 52.974 C 159.583 48.156,158.729 44.159,158.796 44.093 C 158.862 44.027,162.048 46.630,165.875 49.877 C 169.702 53.124,173.627 56.454,174.596 57.275 L 176.359 58.770 179.013 58.164 C 180.472 57.830,181.667 57.461,181.667 57.343 C 181.667 57.225,180.242 50.920,178.500 43.333 C 176.758 35.746,175.333 29.417,175.333 29.269 C 175.333 28.897,174.202 28.991,171.750 29.568 M224.389 38.083 C 220.915 56.053,220.556 58.000,220.693 58.122 C 220.770 58.191,222.055 58.469,223.549 58.740 L 226.264 59.233 227.338 53.533 C 228.647 46.581,228.038 47.127,233.345 48.144 C 235.786 48.612,237.828 48.949,237.883 48.894 C 238.288 48.490,238.878 44.266,238.548 44.141 C 238.338 44.063,236.328 43.648,234.082 43.220 C 231.835 42.792,229.908 42.353,229.800 42.244 C 229.398 41.842,230.801 35.333,231.289 35.333 C 231.547 35.333,234.151 35.795,237.076 36.358 C 240.001 36.922,242.479 37.299,242.582 37.196 C 243.037 36.741,243.591 32.617,243.214 32.491 C 242.645 32.301,226.893 29.333,226.457 29.333 C 226.230 29.333,225.409 32.805,224.389 38.083 M257.833 40.449 C 245.350 44.577,242.781 61.390,253.583 68.272 C 266.777 76.679,282.447 62.262,275.497 48.109 C 272.527 42.063,264.059 38.391,257.833 40.449 M125.750 44.074 C 121.487 46.124,118.000 47.965,118.000 48.166 C 118.000 48.753,130.238 74.135,130.575 74.247 C 130.906 74.358,146.667 66.807,146.667 66.539 C 146.667 66.058,144.870 62.333,144.639 62.333 C 144.488 62.333,142.011 63.458,139.134 64.833 C 136.257 66.208,133.797 67.333,133.667 67.333 C 133.420 67.333,130.667 61.605,130.667 61.092 C 130.667 60.930,132.542 59.923,134.833 58.853 C 137.125 57.784,138.993 56.817,138.984 56.704 C 138.975 56.592,138.487 55.571,137.900 54.436 L 136.833 52.372 132.704 54.353 C 130.433 55.442,128.483 56.331,128.371 56.328 C 128.104 56.321,125.191 50.031,125.372 49.850 C 125.448 49.774,127.873 48.585,130.761 47.207 L 136.011 44.701 134.934 42.517 C 133.632 39.877,134.934 39.656,125.750 44.074 M264.889 45.831 C 269.200 47.112,271.519 50.478,271.265 55.088 C 270.865 62.349,264.760 67.010,258.667 64.706 C 247.364 60.435,253.311 42.393,264.889 45.831 M285.821 67.098 C 281.095 73.369,277.093 78.676,276.928 78.891 C 276.585 79.337,280.876 82.783,281.384 82.469 C 281.549 82.367,283.052 80.457,284.724 78.225 C 286.395 75.993,287.885 74.030,288.034 73.864 C 288.574 73.261,290.636 75.062,290.468 75.991 C 289.898 79.150,288.737 88.177,288.873 88.397 C 289.187 88.905,294.333 92.697,294.349 92.432 C 294.357 92.286,294.771 88.952,295.269 85.022 L 296.174 77.877 298.223 77.961 C 303.197 78.164,307.000 74.526,307.000 69.565 C 307.000 65.850,305.883 64.429,298.623 58.902 L 294.414 55.696 285.821 67.098 M98.833 60.960 C 98.283 61.104,97.308 61.491,96.667 61.819 C 95.296 62.521,86.333 69.668,86.333 70.058 C 86.333 70.767,104.436 92.698,104.880 92.528 C 105.936 92.123,108.955 89.472,108.820 89.068 C 108.741 88.831,107.141 86.752,105.265 84.448 L 101.854 80.260 102.911 79.316 L 103.968 78.372 110.067 80.875 C 116.939 83.695,116.077 83.693,119.575 80.890 C 122.125 78.847,122.521 79.228,114.721 76.212 C 107.131 73.277,107.912 73.811,108.548 71.987 C 110.635 66.001,104.815 59.394,98.833 60.960 M299.219 65.647 C 302.627 68.127,301.428 72.833,297.389 72.833 C 295.637 72.833,291.053 69.939,291.620 69.191 C 291.769 68.994,292.829 67.588,293.974 66.066 L 296.057 63.298 297.112 64.090 C 297.692 64.525,298.640 65.226,299.219 65.647 M102.500 67.681 C 104.429 69.607,104.021 71.612,101.167 74.230 L 98.833 76.370 97.744 75.102 C 97.145 74.404,96.026 73.029,95.257 72.045 L 93.860 70.257 95.347 68.969 C 98.609 66.144,100.602 65.785,102.500 67.681 M191.500 71.372 C 152.257 73.868,115.252 94.969,93.559 127.219 L 90.833 131.272 78.874 134.281 C 64.839 137.813,64.800 137.832,65.117 141.000 C 65.217 142.008,67.255 149.570,69.645 157.804 L 73.990 172.774 73.521 174.637 C 71.087 184.292,70.320 204.384,71.932 216.284 C 83.839 304.198,177.238 354.519,256.500 315.724 C 296.364 296.212,322.444 258.901,328.068 213.333 C 329.258 203.696,328.377 184.757,326.312 175.563 L 325.624 172.500 330.145 156.857 C 334.990 140.095,335.033 139.889,333.956 138.520 C 332.995 137.297,333.043 137.313,320.125 134.045 L 308.750 131.167 306.316 127.523 C 281.423 90.263,236.891 68.485,191.500 71.372 M215.500 76.808 C 250.657 81.687,281.032 100.001,301.600 128.719 C 302.737 130.305,303.667 131.676,303.667 131.764 C 303.667 132.139,299.291 133.755,299.041 133.472 C 298.894 133.304,297.493 131.429,295.930 129.306 C 253.048 71.069,168.729 64.167,116.879 114.650 C 111.408 119.976,103.595 129.210,101.713 132.572 C 101.427 133.083,101.197 133.052,99.039 132.205 L 96.679 131.279 97.967 129.382 C 118.425 99.257,151.845 79.981,190.167 76.206 C 193.745 75.853,211.695 76.280,215.500 76.808 M312.356 89.727 L 301.879 100.099 306.525 104.655 C 315.507 113.464,323.100 114.372,330.307 107.498 C 337.361 100.770,336.463 93.077,327.581 84.135 L 322.833 79.356 312.356 89.727 M72.500 85.389 C 70.400 86.180,68.606 87.807,64.798 92.376 L 60.861 97.100 62.287 98.366 C 68.240 103.649,83.428 116.036,83.657 115.796 C 86.508 112.809,91.800 105.852,92.370 104.343 C 94.926 97.576,88.790 90.584,82.714 93.341 C 81.914 93.703,81.224 94.000,81.179 94.000 C 81.134 94.000,81.170 93.253,81.257 92.339 C 81.705 87.681,76.786 83.777,72.500 85.389 M328.511 92.815 C 331.409 98.627,326.033 106.500,319.167 106.500 C 316.198 106.500,314.892 105.870,311.852 102.972 L 309.538 100.765 316.519 93.907 L 323.500 87.049 325.594 89.108 C 326.746 90.240,328.059 91.909,328.511 92.815 M75.344 91.506 C 78.048 92.904,77.869 95.137,74.754 98.864 L 73.560 100.292 71.097 98.254 C 69.742 97.133,68.575 96.122,68.504 96.007 C 68.305 95.684,72.016 91.642,72.804 91.324 C 73.823 90.912,74.256 90.943,75.344 91.506 M86.308 99.026 C 88.165 100.883,87.796 102.972,85.000 106.439 C 83.216 108.651,83.620 108.702,80.178 105.833 C 76.967 103.156,76.971 103.462,80.112 100.211 C 82.738 97.492,84.447 97.165,86.308 99.026 M170.569 101.593 C 172.009 102.102,175.558 103.847,178.457 105.471 C 184.424 108.812,183.407 107.751,190.970 118.530 L 194.733 123.894 197.558 123.245 C 200.369 122.600,200.396 122.600,203.048 123.266 L 205.714 123.936 206.869 122.329 C 207.504 121.445,209.955 117.985,212.316 114.640 L 216.610 108.558 222.221 105.399 C 226.955 102.735,232.475 100.364,232.917 100.805 C 233.611 101.500,229.327 104.960,224.480 107.619 L 219.167 110.534 213.747 118.350 C 210.766 122.649,208.397 126.349,208.482 126.572 C 209.001 127.931,211.257 130.366,212.319 130.714 C 218.327 132.681,219.356 133.957,220.110 140.381 L 220.510 143.788 222.838 145.149 L 225.167 146.511 228.059 155.006 L 230.951 163.500 230.975 176.580 L 231.000 189.660 229.167 190.877 C 226.840 192.422,226.449 191.409,233.000 200.824 L 238.667 208.968 238.652 229.401 L 238.638 249.833 232.023 261.000 L 225.408 272.167 216.226 279.167 C 207.127 286.103,207.014 286.205,203.676 290.417 C 201.824 292.754,200.201 294.657,200.071 294.646 C 199.940 294.635,198.258 292.657,196.333 290.251 C 192.856 285.904,192.775 285.832,183.806 279.030 L 174.779 272.184 168.056 260.782 L 161.333 249.380 161.333 229.309 L 161.333 209.238 167.052 201.203 C 170.197 196.783,172.909 192.987,173.078 192.768 C 173.295 192.486,172.790 191.996,171.360 191.102 L 169.333 189.835 169.333 176.517 L 169.333 163.198 172.197 154.810 L 175.061 146.423 177.350 145.134 L 179.638 143.845 179.844 142.006 C 180.732 134.073,181.492 132.963,187.500 130.833 C 189.474 130.134,192.303 126.727,191.780 125.679 C 191.626 125.369,189.225 121.827,186.445 117.808 L 181.390 110.500 176.058 107.580 C 171.486 105.076,170.480 104.375,168.997 102.663 C 167.012 100.372,167.049 100.347,170.569 101.593 M130.590 112.592 L 131.500 115.283 148.667 130.861 C 158.108 139.429,166.706 147.242,167.774 148.224 L 169.714 150.008 168.129 154.178 C 167.258 156.472,166.429 158.307,166.286 158.258 C 165.423 157.955,142.339 132.325,136.181 124.833 L 128.785 115.833 128.404 113.509 C 128.044 111.318,128.063 111.142,128.735 110.427 C 129.612 109.494,129.496 109.358,130.590 112.592 M271.861 112.912 C 271.744 114.056,271.555 115.237,271.440 115.536 C 270.415 118.208,234.351 158.872,233.679 158.114 C 233.343 157.735,230.667 150.710,230.667 150.207 C 230.667 149.987,239.254 142.009,249.750 132.478 L 268.833 115.148 269.458 113.158 C 270.641 109.389,270.579 109.484,271.379 110.206 C 271.993 110.761,272.049 111.074,271.861 112.912 M211.003 132.037 C 211.001 132.149,210.687 133.774,210.305 135.648 C 209.923 137.521,209.668 139.112,209.737 139.182 C 210.002 139.446,216.172 141.932,216.287 141.820 C 216.353 141.756,215.192 139.483,213.706 136.769 C 212.221 134.054,211.004 131.925,211.003 132.037 M186.272 137.087 C 184.863 139.691,183.749 141.861,183.797 141.908 C 183.915 142.026,190.099 139.637,190.423 139.349 C 190.698 139.104,189.346 132.327,189.026 132.343 C 188.920 132.348,187.681 134.483,186.272 137.087 M98.687 136.358 C 100.967 137.288,116.558 143.605,133.333 150.395 C 169.957 165.221,165.667 163.171,165.667 165.842 C 165.667 167.029,165.550 168.000,165.407 168.000 C 164.830 168.000,107.448 154.648,106.789 154.360 C 106.373 154.178,103.762 150.345,100.489 145.108 C 97.414 140.190,94.680 135.829,94.411 135.417 C 93.740 134.384,93.974 134.436,98.687 136.358 M306.000 134.877 C 306.000 135.473,293.870 154.329,293.393 154.475 C 292.821 154.650,237.247 167.550,235.583 167.894 L 234.667 168.083 234.667 165.776 L 234.667 163.468 270.083 149.092 C 306.147 134.452,306.000 134.511,306.000 134.877 M91.203 138.750 C 92.254 140.446,95.178 145.230,97.700 149.382 L 102.286 156.930 91.560 162.612 C 85.660 165.736,80.206 168.638,79.440 169.059 C 78.673 169.480,77.979 169.751,77.897 169.662 C 77.748 169.500,73.730 155.634,71.289 146.859 C 69.485 140.372,68.531 141.202,81.833 137.686 C 85.867 136.620,89.195 135.729,89.230 135.707 C 89.265 135.685,90.153 137.054,91.203 138.750 M319.333 138.011 C 328.015 140.253,329.453 140.817,329.591 142.030 C 329.674 142.760,322.311 169.133,321.914 169.531 C 321.758 169.686,298.540 157.559,297.878 156.976 C 297.719 156.837,300.182 152.472,303.351 147.278 C 310.771 135.115,310.411 135.654,311.000 135.835 C 311.275 135.919,315.025 136.898,319.333 138.011 M138.167 165.617 L 165.167 171.209 165.268 172.771 L 165.370 174.333 122.296 174.333 C 98.605 174.333,79.319 174.236,79.438 174.117 C 79.557 173.999,85.769 170.576,93.244 166.512 L 106.833 159.123 109.000 159.573 C 110.192 159.821,123.317 162.540,138.167 165.617 M308.000 167.171 C 314.692 170.801,320.309 173.898,320.483 174.052 C 320.658 174.207,301.412 174.333,277.715 174.333 L 234.630 174.333 234.732 172.777 L 234.833 171.221 253.167 167.431 C 263.250 165.347,276.375 162.622,282.333 161.377 L 293.167 159.113 294.500 159.842 C 295.233 160.242,301.308 163.540,308.000 167.171 M189.667 165.348 C 177.795 169.568,178.783 169.187,179.030 169.456 C 179.138 169.574,183.923 169.144,189.663 168.500 L 200.099 167.330 207.466 171.108 L 214.833 174.886 215.000 180.939 L 215.167 186.991 218.589 179.268 C 220.471 175.020,221.896 171.436,221.756 171.303 C 221.516 171.076,199.998 161.628,199.885 161.700 C 199.857 161.718,195.258 163.360,189.667 165.348 M322.129 177.917 C 322.224 178.237,322.530 180.075,322.807 182.000 C 332.527 249.377,286.351 312.028,219.167 322.620 C 148.369 333.781,82.399 281.971,76.317 210.431 C 75.578 201.731,76.238 185.870,77.625 179.000 L 77.861 177.833 80.264 177.735 C 82.058 177.662,82.666 177.747,82.665 178.069 C 82.664 178.306,82.370 180.499,82.010 182.942 C 71.470 254.583,127.392 319.131,200.000 319.131 C 272.720 319.131,328.568 254.508,317.989 182.603 C 317.630 180.163,317.336 177.979,317.335 177.750 C 317.332 177.027,321.911 177.186,322.129 177.917 M165.500 179.325 L 165.500 180.817 147.557 183.765 L 129.614 186.713 118.391 182.205 L 107.167 177.696 136.333 177.765 L 165.500 177.833 165.500 179.325 M281.694 182.173 L 270.554 186.649 253.027 183.795 C 243.387 182.225,235.313 180.883,235.083 180.814 C 234.830 180.737,234.667 180.096,234.667 179.177 L 234.667 177.667 263.750 177.682 L 292.833 177.697 281.694 182.173 M113.544 184.511 C 119.900 187.176,125.289 189.463,125.520 189.595 C 125.800 189.753,123.746 191.933,119.399 196.093 L 112.857 202.352 104.085 193.593 C 93.408 182.932,93.662 183.490,98.354 181.000 C 101.601 179.277,100.390 178.997,113.544 184.511 M301.425 180.869 C 303.888 182.099,305.333 183.181,305.333 183.794 C 305.333 183.984,301.258 188.224,296.278 193.216 L 287.222 202.294 280.773 196.096 C 277.226 192.687,274.408 189.814,274.511 189.711 C 274.875 189.347,297.841 179.733,298.425 179.700 C 298.750 179.682,300.100 180.208,301.425 180.869 M165.667 185.253 C 165.667 187.175,167.574 185.936,150.005 195.420 C 132.943 204.630,133.633 204.334,129.238 204.332 C 124.608 204.330,117.330 203.942,117.348 203.699 C 117.356 203.589,120.573 200.575,124.496 197.000 L 131.630 190.500 148.231 187.116 C 157.362 185.255,165.021 183.717,165.250 183.699 C 165.530 183.677,165.667 184.189,165.667 185.253 M252.548 187.259 L 268.596 190.504 275.867 197.169 L 283.137 203.833 278.985 204.093 C 276.702 204.236,272.956 204.311,270.661 204.260 L 266.489 204.167 254.182 197.543 C 247.413 193.900,240.253 190.027,238.271 188.936 L 234.667 186.952 234.667 185.283 C 234.667 183.636,234.679 183.616,235.583 183.814 C 236.088 183.924,243.722 185.474,252.548 187.259 M43.930 189.329 C 40.640 190.321,39.064 194.096,40.680 197.113 L 41.361 198.382 40.472 199.082 C 35.855 202.714,39.306 210.663,45.500 210.663 C 51.559 210.663,54.880 203.569,50.754 199.443 L 49.619 198.308 50.310 196.882 C 51.864 193.671,50.260 190.231,46.801 189.360 C 45.192 188.955,45.174 188.955,43.930 189.329 M348.305 189.319 C 344.861 190.362,343.269 194.613,345.296 197.354 L 345.975 198.273 345.192 198.786 C 340.802 201.663,342.681 209.135,348.099 210.347 C 355.052 211.903,360.222 203.298,354.866 199.085 L 353.981 198.389 354.698 197.014 C 356.907 192.776,352.882 187.931,348.305 189.319 M367.331 189.293 C 359.907 191.716,360.814 202.667,368.439 202.667 C 369.967 202.667,370.050 202.304,367.525 206.649 L 365.384 210.333 367.157 210.333 L 368.931 210.333 372.163 204.689 C 376.655 196.847,376.932 195.799,375.341 192.682 C 373.987 190.030,370.105 188.387,367.331 189.293 M29.417 190.272 L 28.000 191.159 28.000 200.746 L 28.000 210.333 29.667 210.333 L 31.333 210.333 31.333 199.833 C 31.333 194.058,31.221 189.345,31.083 189.359 C 30.946 189.373,30.196 189.784,29.417 190.272 M47.238 192.762 C 48.715 194.239,47.582 197.000,45.500 197.000 C 43.279 197.000,42.257 194.379,43.855 192.781 C 44.766 191.871,46.338 191.862,47.238 192.762 M351.455 192.691 C 352.566 193.565,352.634 195.137,351.609 196.229 C 350.087 197.848,347.533 196.764,347.533 194.500 C 347.533 192.275,349.672 191.288,351.455 192.691 M371.011 192.506 C 373.099 193.585,373.654 196.601,372.083 198.334 C 369.816 200.836,365.972 199.805,365.444 196.553 C 364.920 193.322,368.108 191.004,371.011 192.506 M161.533 200.913 L 156.684 207.500 156.676 217.210 L 156.667 226.919 139.291 249.043 C 129.734 261.211,121.374 271.734,120.713 272.427 C 118.561 274.684,115.085 275.243,112.035 273.823 C 109.816 272.790,109.784 272.818,113.933 272.129 L 117.339 271.563 127.142 256.192 C 135.102 243.709,137.206 240.163,138.338 237.327 C 139.105 235.405,142.126 227.533,145.052 219.833 C 151.734 202.246,151.738 202.239,156.969 199.189 C 158.361 198.376,161.000 196.734,162.833 195.539 C 167.415 192.551,167.282 193.102,161.533 200.913 M240.333 197.272 C 247.052 201.465,247.337 201.683,248.588 203.566 C 249.309 204.653,252.027 211.285,255.830 221.236 C 259.178 229.998,262.247 237.988,262.650 238.992 C 263.053 239.995,265.972 244.870,269.137 249.825 C 272.302 254.780,276.714 261.697,278.940 265.198 L 282.988 271.563 286.397 272.129 C 290.549 272.818,290.517 272.790,288.298 273.823 C 285.248 275.243,281.769 274.683,279.623 272.427 C 278.964 271.734,270.604 261.216,261.046 249.053 L 243.667 226.940 243.662 217.220 L 243.657 207.500 238.829 200.925 C 233.993 194.340,233.044 192.627,234.917 193.860 C 235.421 194.192,237.858 195.728,240.333 197.272 M47.592 200.668 C 50.778 202.611,49.543 207.219,45.738 207.584 C 44.117 207.740,43.948 207.682,42.842 206.575 C 39.525 203.258,43.576 198.220,47.592 200.668 M352.334 200.917 C 354.887 203.229,353.768 207.115,350.420 207.564 C 347.225 207.992,345.022 204.858,346.504 201.992 C 347.590 199.893,350.593 199.339,352.334 200.917 M173.385 237.162 C 173.474 237.252,176.386 239.500,179.857 242.159 L 186.167 246.993 200.103 246.997 L 214.039 247.000 220.376 242.134 C 223.861 239.458,226.651 237.207,226.576 237.132 C 226.501 237.057,223.265 238.122,219.383 239.498 L 212.327 242.000 200.076 242.000 L 187.826 242.000 180.867 239.500 C 174.458 237.198,172.949 236.726,173.385 237.162 M67.412 291.750 C 62.611 295.279,58.680 298.285,58.675 298.431 C 58.662 298.844,60.797 301.639,61.137 301.654 C 61.305 301.661,62.847 300.610,64.565 299.318 C 68.673 296.231,68.265 296.237,70.500 299.234 C 71.565 300.664,72.489 301.896,72.552 301.973 C 72.703 302.155,73.964 301.461,74.943 300.656 L 75.719 300.018 73.693 297.229 C 72.578 295.695,71.667 294.359,71.667 294.260 C 71.667 294.095,74.659 291.760,75.553 291.228 C 75.794 291.085,76.904 292.320,78.491 294.499 C 79.895 296.425,81.138 298.000,81.254 298.000 C 81.780 298.000,84.017 296.181,83.931 295.823 C 83.811 295.332,76.571 285.365,76.320 285.347 C 76.222 285.339,72.213 288.221,67.412 291.750 M324.588 287.655 C 322.872 288.191,321.498 289.297,318.421 292.617 L 315.343 295.940 317.755 298.247 C 319.081 299.516,322.706 302.936,325.811 305.847 L 331.454 311.140 334.728 307.653 C 338.214 303.941,339.005 302.685,339.254 300.470 C 339.758 296.006,335.251 292.235,331.656 294.111 L 330.812 294.552 330.823 292.635 C 330.842 289.123,327.762 286.663,324.588 287.655 M326.895 292.725 C 328.171 293.924,327.942 295.414,326.196 297.262 L 324.725 298.819 322.848 297.043 L 320.970 295.268 322.604 293.634 C 324.459 291.780,325.626 291.532,326.895 292.725 M333.647 297.823 C 335.791 298.932,335.575 301.179,333.052 304.000 L 331.711 305.500 329.641 303.448 L 327.570 301.397 328.795 299.902 C 330.646 297.643,332.097 297.021,333.647 297.823 M83.964 305.098 C 75.775 308.556,73.538 317.860,79.434 323.945 C 85.058 329.750,94.509 328.006,98.189 320.483 C 102.517 311.638,92.959 301.299,83.964 305.098 M306.922 305.778 L 305.344 307.193 308.394 310.680 C 316.407 319.841,316.524 320.041,315.303 322.562 C 314.461 324.303,312.881 325.333,311.056 325.333 C 309.306 325.333,308.562 324.685,302.944 318.257 C 300.560 315.529,298.490 313.343,298.345 313.398 C 297.106 313.874,295.311 316.093,295.747 316.609 C 299.824 321.435,305.500 327.737,306.229 328.244 C 312.980 332.948,322.806 324.803,319.417 317.313 C 318.904 316.177,308.956 304.278,308.580 304.348 C 308.536 304.356,307.790 305.000,306.922 305.778 M91.364 309.442 C 96.589 312.201,96.005 319.567,90.328 322.503 C 86.917 324.267,82.568 322.720,80.955 319.170 C 78.204 313.113,85.465 306.328,91.364 309.442 M108.705 322.743 C 99.732 324.064,95.891 335.844,102.345 342.252 C 108.055 347.921,117.157 346.346,120.740 339.069 C 124.914 330.591,118.108 321.360,108.705 322.743 M280.667 326.202 C 280.025 326.662,279.280 327.166,279.012 327.322 C 278.499 327.621,279.503 329.234,287.562 341.063 L 290.898 345.959 296.199 342.434 C 299.114 340.495,301.563 338.854,301.639 338.787 C 301.810 338.639,301.181 337.444,300.369 336.375 L 299.768 335.584 296.228 337.959 C 294.282 339.265,292.611 340.333,292.515 340.333 C 292.419 340.333,290.087 336.958,287.333 332.833 C 284.579 328.708,282.215 325.341,282.080 325.350 C 281.944 325.359,281.308 325.742,280.667 326.202 M113.034 327.046 C 118.144 328.757,119.374 335.241,115.352 339.263 C 112.512 342.103,108.795 342.354,105.826 339.907 C 99.938 335.054,105.786 324.620,113.034 327.046 M130.061 335.338 L 129.366 337.010 132.505 338.477 L 135.643 339.944 132.296 347.222 C 130.455 351.225,128.738 354.997,128.482 355.605 L 128.016 356.710 129.890 357.539 C 132.287 358.599,131.092 360.470,138.687 343.761 L 139.629 341.688 142.772 343.147 L 145.915 344.605 146.681 342.970 C 147.613 340.979,148.633 341.730,139.070 337.364 C 129.529 333.008,130.901 333.316,130.061 335.338 M264.020 334.530 C 255.707 337.550,253.539 347.641,259.819 354.088 C 266.094 360.530,277.847 356.362,278.397 347.500 L 278.500 345.833 276.640 345.735 L 274.779 345.637 274.358 347.519 C 272.606 355.347,262.450 354.598,260.639 346.507 C 259.464 341.254,264.592 336.614,269.588 338.410 C 270.370 338.691,271.073 338.818,271.150 338.693 C 271.228 338.568,271.591 337.705,271.957 336.776 L 272.623 335.087 271.728 334.661 C 270.295 333.979,265.750 333.902,264.020 334.530 M153.000 354.223 C 151.442 359.842,150.124 364.609,150.073 364.816 C 149.953 365.291,158.679 367.669,160.506 367.659 C 166.102 367.628,169.322 360.475,165.118 357.413 L 164.217 356.757 165.387 356.371 C 169.388 355.050,170.160 350.015,166.759 347.421 C 165.730 346.636,157.746 344.025,156.333 344.011 C 155.961 344.008,155.113 346.605,153.000 354.223 M226.000 347.736 C 225.175 347.918,224.464 348.100,224.419 348.142 C 224.277 348.275,228.567 369.344,228.779 369.557 C 228.971 369.748,241.667 367.364,241.667 367.137 C 241.667 366.226,240.845 363.670,240.556 363.681 C 240.342 363.688,238.442 364.052,236.333 364.490 C 234.225 364.927,232.400 365.183,232.278 365.059 C 232.156 364.935,231.271 360.896,230.312 356.083 C 228.886 348.926,228.472 347.340,228.035 347.369 C 227.741 347.389,226.825 347.554,226.000 347.736 M161.356 349.199 C 164.338 350.076,165.272 351.867,163.654 353.604 C 162.579 354.758,158.000 354.311,158.000 353.052 C 158.000 352.224,159.068 348.667,159.317 348.667 C 159.443 348.667,160.360 348.906,161.356 349.199 M178.807 359.722 C 175.859 365.466,173.534 370.261,173.640 370.375 C 173.746 370.490,174.776 370.664,175.928 370.761 L 178.022 370.939 179.217 368.553 C 179.874 367.240,180.431 366.151,180.456 366.132 C 180.767 365.888,188.471 367.016,188.667 367.334 C 188.811 367.566,189.114 368.634,189.342 369.708 C 189.570 370.781,189.924 371.790,190.128 371.951 C 190.459 372.210,194.667 372.785,194.667 372.571 C 194.667 372.284,188.411 349.967,188.300 349.855 C 188.224 349.780,187.264 349.619,186.165 349.498 L 184.167 349.277 178.807 359.722 M204.460 350.222 C 203.849 350.349,203.769 350.559,203.876 351.768 C 203.945 352.537,204.238 357.441,204.528 362.666 C 204.818 367.891,205.104 372.215,205.165 372.276 C 205.304 372.415,218.125 371.649,218.284 371.492 C 218.349 371.428,218.296 370.606,218.166 369.664 L 217.931 367.953 213.549 368.060 L 209.167 368.167 208.667 359.167 L 208.167 350.167 206.667 350.121 C 205.842 350.096,204.848 350.142,204.460 350.222 M186.695 359.383 L 187.561 362.714 185.030 362.483 C 183.639 362.356,182.464 362.222,182.421 362.186 C 182.377 362.149,183.041 360.669,183.897 358.897 C 184.752 357.124,185.536 355.758,185.640 355.862 C 185.744 355.966,186.219 357.550,186.695 359.383 M159.062 357.683 C 162.938 358.726,164.165 361.346,161.614 363.133 C 160.479 363.928,156.057 363.568,155.480 362.634 C 155.146 362.093,156.752 356.962,157.202 357.134 C 157.435 357.223,158.272 357.470,159.062 357.683 " stroke="none" fill="#faf9f8" fill-rule="evenodd"/><path id="path2" d="M185.667 10.372 C 74.847 19.217,-4.716 119.646,12.199 229.333 C 27.184 326.501,115.442 396.793,213.500 389.658 C 329.782 381.197,411.411 270.876,385.322 157.442 C 364.306 66.062,278.630 2.952,185.667 10.372 M202.417 27.331 L 212.333 27.333 212.333 30.000 L 212.333 32.667 207.886 32.667 L 203.439 32.667 203.219 39.220 C 203.099 42.825,203.000 48.300,203.000 51.387 L 203.000 57.000 200.000 57.000 L 197.000 57.000 197.000 44.667 L 197.000 32.333 192.333 32.333 L 187.667 32.333 187.667 29.889 C 187.667 26.885,187.670 26.882,190.333 27.128 C 191.525 27.238,196.963 27.330,202.417 27.331 M176.304 33.083 C 176.870 35.512,178.364 42.000,179.625 47.500 C 182.244 58.924,182.396 57.549,178.412 58.464 L 176.324 58.943 167.745 51.645 C 163.027 47.632,159.133 44.532,159.092 44.757 C 159.051 44.982,159.894 48.917,160.965 53.500 C 162.035 58.083,162.875 61.878,162.830 61.932 C 162.577 62.235,157.181 63.308,156.996 63.092 C 156.709 62.757,150.286 34.603,150.457 34.432 C 150.997 33.892,155.885 33.094,156.333 33.473 C 156.608 33.706,160.477 37.013,164.931 40.822 C 169.385 44.632,173.091 47.687,173.166 47.611 C 173.242 47.536,172.412 43.591,171.323 38.844 C 170.234 34.097,169.400 30.155,169.471 30.085 C 169.609 29.946,174.246 28.764,174.888 28.703 C 175.120 28.681,175.690 30.443,176.304 33.083 M235.500 30.857 C 244.896 32.658,243.830 32.093,243.311 34.994 C 242.784 37.946,243.469 37.788,236.846 36.480 C 233.736 35.866,231.151 35.405,231.101 35.455 C 230.958 35.597,229.650 42.096,229.747 42.180 C 229.794 42.221,231.840 42.642,234.293 43.115 C 236.746 43.588,238.822 44.044,238.906 44.128 C 239.041 44.263,238.531 47.300,238.139 48.693 C 238.008 49.161,237.478 49.119,233.412 48.320 C 230.894 47.825,228.797 47.449,228.752 47.486 C 228.707 47.522,228.170 50.127,227.559 53.275 C 226.947 56.422,226.361 59.083,226.256 59.189 C 225.681 59.764,220.288 58.224,220.455 57.533 C 220.548 57.148,221.768 50.833,223.165 43.500 C 226.180 27.676,225.858 28.957,226.773 29.161 C 227.173 29.250,231.100 30.013,235.500 30.857 M264.705 40.000 C 277.017 42.283,281.589 57.425,272.669 66.378 C 263.073 76.008,246.667 69.250,246.667 55.667 C 246.667 45.745,255.291 38.254,264.705 40.000 M135.984 44.524 C 135.993 44.720,133.594 46.025,130.654 47.424 L 125.307 49.968 126.282 51.900 C 126.818 52.964,127.489 54.390,127.773 55.071 L 128.289 56.309 132.444 54.321 C 137.463 51.920,136.765 51.883,138.146 54.625 L 139.300 56.916 134.997 58.951 L 130.695 60.986 131.219 62.243 C 131.507 62.934,132.174 64.354,132.700 65.397 L 133.657 67.295 139.207 64.637 C 142.260 63.176,144.803 62.026,144.859 62.081 C 144.915 62.137,145.417 63.201,145.976 64.447 L 146.992 66.711 139.154 70.509 C 134.844 72.599,131.086 74.351,130.803 74.404 C 130.372 74.485,118.662 50.944,117.831 48.325 C 117.692 47.889,119.307 46.988,125.745 43.909 L 133.833 40.041 134.900 42.104 C 135.487 43.238,135.975 44.327,135.984 44.524 M258.500 46.462 C 252.486 49.310,250.777 58.153,255.387 62.564 C 261.200 68.126,270.466 63.915,271.242 55.360 C 271.864 48.508,264.718 43.518,258.500 46.462 M299.615 59.504 C 304.945 63.575,306.017 64.687,306.827 66.981 C 308.748 72.426,304.404 78.211,298.446 78.142 C 296.020 78.115,296.389 77.163,295.298 86.259 C 294.719 91.087,294.422 92.644,294.104 92.522 C 292.929 92.071,288.667 88.519,288.667 87.991 C 288.667 87.663,289.042 84.817,289.500 81.667 C 290.519 74.662,290.532 75.272,289.344 74.394 L 288.354 73.662 284.833 78.334 L 281.311 83.006 279.072 81.311 C 277.841 80.378,276.833 79.421,276.833 79.184 C 276.833 78.727,294.016 55.712,294.379 55.683 C 294.495 55.674,296.851 57.393,299.615 59.504 M104.167 61.461 C 108.135 63.337,110.207 68.467,108.574 72.375 L 108.094 73.522 115.043 76.178 C 118.864 77.638,121.983 78.908,121.974 79.000 C 121.964 79.092,120.711 80.171,119.189 81.399 L 116.422 83.631 110.334 81.149 C 103.363 78.306,104.097 78.475,102.917 79.441 L 102.000 80.192 105.209 84.179 C 106.974 86.372,108.634 88.415,108.898 88.718 C 109.319 89.200,105.510 93.000,104.605 93.000 C 104.356 93.000,86.167 70.336,86.167 70.026 C 86.167 69.500,95.487 62.235,97.167 61.451 C 99.406 60.406,101.943 60.410,104.167 61.461 M293.736 66.524 C 291.353 69.739,291.338 69.503,294.042 71.309 C 300.026 75.305,304.062 69.575,298.356 65.184 C 295.883 63.281,296.210 63.186,293.736 66.524 M97.433 67.583 C 96.700 68.087,95.618 68.886,95.029 69.358 L 93.959 70.216 96.203 73.025 C 97.437 74.569,98.492 75.892,98.548 75.964 C 98.737 76.206,102.281 73.296,102.844 72.437 C 105.200 68.842,101.037 65.106,97.433 67.583 M216.167 71.971 C 253.141 76.964,286.036 97.216,306.609 127.653 L 308.965 131.138 319.992 133.856 C 334.108 137.335,334.668 137.588,334.666 140.491 C 334.665 141.229,332.658 148.782,330.206 157.275 L 325.748 172.717 326.355 175.109 C 328.916 185.187,329.549 203.225,327.809 216.537 C 317.781 293.255,242.655 344.189,167.833 324.997 C 102.107 308.138,60.154 242.276,73.031 176.167 L 73.745 172.500 69.323 157.167 C 66.890 148.733,64.885 141.219,64.867 140.468 C 64.800 137.732,65.464 137.435,79.403 133.974 L 90.640 131.183 93.182 127.445 C 115.297 94.933,150.980 74.383,190.833 71.207 C 195.447 70.840,211.335 71.319,216.167 71.971 M327.757 83.970 C 331.412 87.727,332.497 89.072,333.480 91.060 C 339.937 104.125,324.274 117.574,311.909 109.582 C 310.115 108.422,302.014 100.547,302.004 99.953 C 301.998 99.648,322.669 79.333,322.985 79.333 C 323.129 79.333,325.276 81.420,327.757 83.970 M78.565 86.208 C 80.600 87.847,81.367 89.463,81.259 91.882 L 81.167 93.930 82.497 93.251 C 88.869 89.996,95.618 98.211,92.213 105.078 C 91.338 106.843,83.907 116.000,83.350 116.000 C 83.088 116.000,62.823 99.223,61.223 97.682 C 60.277 96.771,68.434 87.245,71.508 85.670 C 73.589 84.603,76.884 84.855,78.565 86.208 M316.609 93.934 L 309.833 100.631 312.000 102.826 C 316.687 107.573,321.593 107.755,326.014 103.344 C 330.538 98.831,330.325 94.056,325.384 89.202 L 323.385 87.238 316.609 93.934 M70.969 93.083 C 68.327 95.831,68.324 95.673,71.065 98.033 L 73.467 100.100 74.609 98.800 C 79.231 93.536,75.766 88.095,70.969 93.083 M82.479 98.305 C 81.571 98.693,77.667 102.840,77.667 103.416 C 77.667 103.746,83.053 108.038,83.345 107.940 C 83.967 107.732,86.675 104.151,87.034 103.062 C 88.036 100.026,85.253 97.120,82.479 98.305 M194.105 143.583 C 197.555 143.637,203.105 143.637,206.438 143.583 C 209.772 143.528,206.950 143.484,200.167 143.484 C 193.383 143.484,190.656 143.529,194.105 143.583 M31.333 199.833 L 31.333 210.667 29.667 210.667 L 28.000 210.667 28.000 200.873 L 28.000 191.079 29.583 190.043 C 30.454 189.474,31.204 189.006,31.250 189.004 C 31.296 189.002,31.333 193.875,31.333 199.833 M48.810 190.126 C 51.005 191.800,51.718 194.990,50.384 197.167 L 49.771 198.167 51.044 199.621 C 55.858 205.121,49.355 213.052,42.411 210.151 C 37.923 208.276,36.810 202.438,40.309 199.135 C 41.238 198.259,41.271 198.150,40.772 197.599 C 40.181 196.946,39.801 194.171,40.126 192.877 C 40.991 189.432,45.872 187.885,48.810 190.126 M352.267 189.470 C 355.360 191.086,356.365 194.700,354.510 197.532 C 354.029 198.265,354.046 198.348,354.768 198.821 C 358.075 200.988,357.687 206.931,354.074 209.471 C 347.357 214.191,338.646 205.007,344.478 199.354 L 345.610 198.257 344.973 197.212 C 342.276 192.788,347.666 187.067,352.267 189.470 M371.927 189.518 C 375.724 191.104,377.275 195.131,375.531 198.876 C 374.466 201.163,369.287 210.102,368.848 210.412 C 368.388 210.735,365.333 210.738,365.333 210.415 C 365.333 210.277,366.238 208.606,367.344 206.703 C 368.450 204.800,369.312 203.220,369.261 203.191 C 369.209 203.162,368.417 202.950,367.500 202.720 C 361.092 201.109,359.966 192.736,365.770 189.844 C 367.747 188.859,370.057 188.736,371.927 189.518 M43.885 192.943 C 42.531 194.439,43.597 197.000,45.574 197.000 C 47.375 197.000,48.415 194.114,47.057 192.885 C 46.248 192.153,44.572 192.183,43.885 192.943 M348.218 192.943 C 346.237 195.133,349.538 198.218,351.650 196.149 C 352.362 195.452,352.270 193.355,351.503 192.794 C 350.609 192.141,348.873 192.219,348.218 192.943 M366.641 193.308 C 365.700 194.248,365.513 194.893,365.664 196.667 C 365.973 200.300,371.495 200.716,372.658 197.192 C 373.869 193.523,369.346 190.602,366.641 193.308 M348.791 200.230 C 347.130 200.556,345.883 202.981,346.392 204.896 C 347.435 208.815,353.671 207.852,353.665 203.772 C 353.663 201.876,351.255 199.632,349.667 200.047 C 349.575 200.071,349.181 200.153,348.791 200.230 M43.037 201.187 C 40.188 203.584,42.462 208.173,46.155 207.480 C 50.604 206.646,50.025 200.333,45.500 200.333 C 44.432 200.333,43.785 200.558,43.037 201.187 M193.939 261.916 C 197.480 261.970,203.180 261.970,206.605 261.916 C 210.031 261.862,207.133 261.818,200.167 261.818 C 193.200 261.818,190.397 261.862,193.939 261.916 M80.638 290.833 C 82.667 293.583,84.323 295.908,84.317 296.000 C 84.292 296.416,81.241 298.371,81.012 298.118 C 80.870 297.961,79.683 296.371,78.374 294.583 C 75.609 290.807,76.019 290.959,73.576 292.804 L 71.653 294.257 73.660 296.964 C 76.105 300.261,76.095 300.351,73.099 302.117 C 72.844 302.267,71.920 301.320,70.551 299.505 L 68.403 296.657 64.798 299.329 C 62.816 300.798,61.113 301.994,61.014 301.987 C 60.421 301.946,58.278 298.223,58.704 297.974 C 58.959 297.826,62.992 294.865,67.667 291.395 C 74.040 286.663,76.264 285.178,76.557 285.459 C 76.772 285.665,78.608 288.083,80.638 290.833 M328.916 288.274 C 330.274 289.241,331.089 291.060,330.948 292.808 L 330.833 294.218 332.305 293.775 C 335.920 292.687,339.367 295.620,339.404 299.816 C 339.426 302.272,338.709 303.525,334.906 307.672 L 331.571 311.309 330.013 309.904 C 325.439 305.781,315.333 296.167,315.333 295.940 C 315.333 295.317,322.275 288.516,323.500 287.939 C 325.186 287.145,327.534 287.290,328.916 288.274 M322.899 293.639 L 321.180 295.278 321.840 296.009 C 322.203 296.411,323.040 297.168,323.700 297.692 L 324.901 298.644 326.284 296.944 C 329.353 293.170,326.406 290.293,322.899 293.639 M329.471 299.390 C 327.341 301.405,327.319 301.111,329.767 303.339 L 331.701 305.098 332.879 303.966 C 335.130 301.802,335.585 299.888,334.182 298.485 C 332.837 297.140,331.599 297.377,329.471 299.390 M91.333 304.735 C 99.238 307.049,101.943 317.298,96.284 323.491 C 91.718 328.486,84.623 328.939,79.760 324.544 C 70.693 316.353,79.504 301.271,91.333 304.735 M313.679 309.859 C 321.544 318.874,322.232 321.965,317.449 326.796 C 312.149 332.150,308.143 331.067,300.336 322.167 C 294.451 315.459,294.684 316.102,297.370 313.972 L 298.574 313.017 303.638 318.822 C 309.698 325.768,311.028 326.481,313.824 324.281 C 317.091 321.711,316.586 320.273,309.612 312.296 L 305.190 307.238 306.794 305.785 C 308.846 303.928,308.141 303.510,313.679 309.859 M84.961 309.598 C 83.944 310.129,82.715 311.136,82.099 311.945 C 76.374 319.450,86.648 327.304,92.899 320.202 C 98.072 314.325,91.842 306.003,84.961 309.598 M115.449 323.490 C 125.502 328.246,123.966 342.520,113.077 345.534 C 106.399 347.383,99.435 342.210,99.063 335.126 C 98.585 326.028,107.472 319.717,115.449 323.490 M287.321 332.648 L 292.410 340.297 295.788 338.042 C 297.646 336.802,299.339 335.685,299.549 335.561 C 299.901 335.355,302.269 338.537,301.960 338.799 C 301.442 339.237,291.532 345.739,291.169 345.879 C 290.854 345.999,288.747 343.117,284.532 336.796 L 278.356 327.536 280.261 326.269 C 281.309 325.572,282.181 325.002,282.199 325.001 C 282.217 325.000,284.522 328.442,287.321 332.648 M109.374 327.001 C 101.362 328.892,102.044 341.333,110.161 341.333 C 118.426 341.333,120.437 329.033,112.500 327.035 C 110.881 326.627,110.953 326.628,109.374 327.001 M139.376 337.339 C 143.820 339.359,147.504 341.060,147.564 341.119 C 147.730 341.286,146.196 344.650,145.950 344.659 C 145.831 344.663,144.418 344.062,142.810 343.323 C 141.203 342.584,139.779 342.096,139.645 342.239 C 139.512 342.383,137.869 345.875,135.995 350.000 C 134.121 354.125,132.456 357.752,132.295 358.059 C 131.982 358.657,128.000 357.293,128.000 356.588 C 128.000 356.421,129.648 352.678,131.662 348.269 C 133.676 343.861,135.255 340.143,135.171 340.008 C 135.088 339.872,133.740 339.191,132.176 338.495 C 129.058 337.105,129.067 337.119,129.991 335.083 C 130.811 333.276,130.017 333.085,139.376 337.339 M270.592 334.175 C 272.795 334.829,272.870 334.996,271.957 337.199 C 271.302 338.780,271.097 339.009,270.513 338.811 C 262.635 336.145,257.410 344.416,262.972 350.750 C 266.669 354.961,273.719 352.614,274.259 346.991 C 274.423 345.282,274.432 345.270,275.421 345.467 C 275.968 345.577,276.944 345.667,277.588 345.667 L 278.760 345.667 278.567 347.539 C 277.615 356.756,265.663 360.778,259.499 353.955 C 251.388 344.977,259.324 330.829,270.592 334.175 M160.785 345.006 C 167.228 346.864,169.000 348.259,169.000 351.476 C 169.000 353.674,168.054 355.217,166.100 356.206 L 164.705 356.912 165.678 357.844 C 169.413 361.423,165.965 367.816,160.333 367.751 C 158.714 367.733,150.588 365.699,150.073 365.184 C 149.852 364.963,155.703 343.665,155.982 343.670 C 156.084 343.673,158.245 344.273,160.785 345.006 M230.500 356.000 C 231.458 360.777,232.334 364.778,232.447 364.892 C 232.561 365.005,234.524 364.724,236.811 364.268 C 241.402 363.351,241.132 363.265,241.509 365.775 C 241.721 367.192,241.681 367.316,240.952 367.490 C 238.191 368.147,228.803 369.918,228.634 369.813 C 228.297 369.605,224.167 348.388,224.415 348.140 C 224.673 347.882,228.430 347.055,228.629 347.213 C 228.701 347.269,229.542 351.223,230.500 356.000 M159.163 349.111 C 157.753 353.396,157.758 353.422,160.191 354.006 C 163.276 354.746,165.359 352.866,163.787 350.761 C 163.009 349.719,159.388 348.427,159.163 349.111 M188.434 349.677 C 188.792 350.089,194.757 372.354,194.563 372.549 C 194.439 372.672,193.325 372.636,192.086 372.470 L 189.833 372.167 189.188 369.626 L 188.542 367.085 184.835 366.709 C 182.796 366.502,180.978 366.333,180.795 366.333 C 180.612 366.333,179.954 367.383,179.333 368.667 C 178.354 370.690,178.086 371.000,177.315 371.000 C 175.897 371.000,173.333 370.595,173.335 370.371 C 173.336 370.124,183.205 350.785,183.824 349.818 C 184.232 349.179,187.905 349.068,188.434 349.677 M208.337 350.583 C 208.339 350.904,208.561 354.767,208.832 359.167 C 209.102 363.567,209.325 367.437,209.328 367.767 C 209.333 368.294,209.564 368.346,211.250 368.193 C 212.304 368.098,214.329 367.934,215.750 367.829 L 218.333 367.639 218.333 369.653 C 218.333 370.760,218.296 371.682,218.250 371.702 C 218.204 371.721,215.208 371.908,211.591 372.118 L 205.015 372.500 204.849 371.167 C 204.707 370.035,203.657 351.638,203.664 350.417 C 203.666 350.123,204.357 350.000,206.000 350.000 C 207.999 350.000,208.334 350.084,208.337 350.583 M184.051 358.885 C 183.271 360.457,182.723 361.834,182.834 361.945 C 183.023 362.134,187.065 362.639,187.257 362.498 C 187.360 362.421,185.749 356.304,185.581 356.136 C 185.519 356.075,184.831 357.312,184.051 358.885 M156.101 359.996 L 155.400 362.659 156.617 362.978 C 159.253 363.668,159.696 363.732,160.491 363.532 C 164.718 362.471,161.907 357.333,157.100 357.333 C 156.936 357.333,156.487 358.532,156.101 359.996 " stroke="none" fill="#e4040c" fill-rule="evenodd"/><path id="path3" d="M182.500 146.346 C 177.428 148.965,176.532 149.797,176.351 152.060 C 176.341 152.185,178.310 151.624,180.726 150.814 C 183.142 150.003,185.169 149.391,185.231 149.453 C 185.293 149.516,183.019 151.495,180.176 153.852 C 175.064 158.092,175.001 158.161,174.303 160.257 C 173.915 161.422,173.651 162.420,173.716 162.473 C 173.780 162.527,177.133 160.798,181.167 158.632 L 188.500 154.694 200.167 154.699 L 211.833 154.703 219.167 158.635 C 223.200 160.797,226.554 162.522,226.620 162.469 C 226.686 162.415,226.389 161.391,225.960 160.194 C 225.192 158.053,225.097 157.950,220.078 153.798 C 217.273 151.477,215.031 149.524,215.097 149.459 C 215.162 149.394,217.192 150.003,219.608 150.814 C 222.023 151.624,224.000 152.249,224.000 152.203 C 224.000 152.157,223.759 151.412,223.465 150.548 L 222.930 148.977 218.215 146.627 C 215.622 145.334,213.358 144.139,213.183 143.971 C 213.002 143.796,207.460 143.687,200.183 143.715 L 187.500 143.763 182.500 146.346 M174.696 199.496 C 173.030 201.787,171.667 203.776,171.667 203.914 C 171.667 204.053,175.115 206.106,179.329 208.476 C 183.544 210.846,186.956 212.820,186.913 212.861 C 186.836 212.935,169.770 210.898,167.242 210.514 L 165.984 210.323 166.075 216.044 L 166.167 221.765 173.128 224.382 L 180.089 227.000 200.151 227.000 L 220.212 227.000 227.189 224.396 L 234.167 221.792 234.258 216.046 L 234.349 210.300 233.258 210.490 C 231.380 210.816,213.510 212.955,213.419 212.864 C 213.372 212.816,216.856 210.840,221.163 208.472 C 225.469 206.104,228.933 204.004,228.861 203.805 C 228.633 203.177,222.944 195.333,222.717 195.334 C 222.598 195.334,220.475 196.684,218.000 198.333 L 213.500 201.332 200.048 201.333 L 186.595 201.333 182.548 198.562 C 180.321 197.038,178.326 195.687,178.112 195.560 C 177.869 195.416,176.595 196.884,174.696 199.496 M170.459 256.583 C 171.634 258.845,175.751 265.871,176.106 266.221 C 176.323 266.434,179.572 267.709,183.326 269.054 L 190.153 271.500 185.505 271.667 L 180.856 271.833 187.769 277.083 L 194.682 282.333 200.135 282.333 L 205.588 282.333 212.522 277.083 L 219.456 271.833 214.821 271.667 L 210.186 271.500 217.163 268.988 L 224.140 266.475 227.391 261.071 C 229.180 258.099,230.586 255.667,230.517 255.667 C 230.448 255.667,226.323 257.092,221.351 258.833 L 212.310 262.000 200.167 262.000 L 188.024 262.000 179.106 258.833 C 174.201 257.092,170.142 255.667,170.085 255.667 C 170.029 255.667,170.197 256.079,170.459 256.583 " stroke="none" fill="#fbbb04" fill-rule="evenodd"/><path id="path4" d="M197.250 5.248 C 198.762 5.310,201.237 5.310,202.750 5.248 C 204.262 5.186,203.025 5.136,200.000 5.136 C 196.975 5.136,195.737 5.186,197.250 5.248 M196.250 9.916 C 198.313 9.974,201.688 9.974,203.750 9.916 C 205.813 9.857,204.125 9.809,200.000 9.809 C 195.875 9.809,194.188 9.857,196.250 9.916 M186.917 10.235 C 187.329 10.315,188.004 10.315,188.417 10.235 C 188.829 10.156,188.492 10.091,187.667 10.091 C 186.842 10.091,186.504 10.156,186.917 10.235 M211.583 10.235 C 211.996 10.315,212.671 10.315,213.083 10.235 C 213.496 10.156,213.158 10.091,212.333 10.091 C 211.508 10.091,211.171 10.156,211.583 10.235 M187.806 27.450 C 187.712 27.697,187.687 28.935,187.752 30.200 L 187.869 32.500 187.935 29.935 L 188.000 27.370 189.583 27.245 L 191.167 27.120 189.573 27.060 C 188.498 27.020,187.923 27.146,187.806 27.450 M197.135 37.500 C 197.135 40.433,197.186 41.589,197.248 40.068 C 197.310 38.546,197.310 36.146,197.247 34.734 C 197.185 33.322,197.135 34.567,197.135 37.500 M203.073 36.917 L 203.146 41.500 203.249 37.093 L 203.353 32.685 207.926 32.582 L 212.500 32.480 207.750 32.406 L 203.000 32.333 203.073 36.917 M260.923 39.908 C 261.522 39.982,262.422 39.981,262.923 39.905 C 263.424 39.829,262.933 39.768,261.833 39.770 C 260.733 39.772,260.324 39.834,260.923 39.908 M251.151 44.417 L 249.833 45.833 251.250 44.516 C 252.567 43.290,252.820 43.000,252.568 43.000 C 252.513 43.000,251.876 43.637,251.151 44.417 M261.421 45.573 C 261.928 45.649,262.678 45.647,263.088 45.568 C 263.498 45.489,263.083 45.426,262.167 45.429 C 261.250 45.431,260.915 45.496,261.421 45.573 M65.812 58.750 L 64.833 59.833 65.917 58.854 C 66.926 57.942,67.153 57.667,66.896 57.667 C 66.838 57.667,66.351 58.154,65.812 58.750 M328.333 59.833 C 328.955 60.475,329.539 61.000,329.631 61.000 C 329.722 61.000,329.289 60.475,328.667 59.833 C 328.045 59.192,327.461 58.667,327.369 58.667 C 327.278 58.667,327.711 59.192,328.333 59.833 M70.484 60.750 L 69.167 62.167 70.583 60.849 C 71.362 60.124,72.000 59.487,72.000 59.432 C 72.000 59.180,71.710 59.433,70.484 60.750 M106.333 63.167 C 106.955 63.808,107.539 64.333,107.631 64.333 C 107.722 64.333,107.289 63.808,106.667 63.167 C 106.045 62.525,105.461 62.000,105.369 62.000 C 105.278 62.000,105.711 62.525,106.333 63.167 M304.333 63.500 C 304.955 64.142,305.539 64.667,305.631 64.667 C 305.722 64.667,305.289 64.142,304.667 63.500 C 304.045 62.858,303.461 62.333,303.369 62.333 C 303.278 62.333,303.711 62.858,304.333 63.500 M334.333 65.500 C 334.955 66.142,335.539 66.667,335.631 66.667 C 335.722 66.667,335.289 66.142,334.667 65.500 C 334.045 64.858,333.461 64.333,333.369 64.333 C 333.278 64.333,333.711 64.858,334.333 65.500 M260.750 65.239 C 261.254 65.315,262.079 65.315,262.583 65.239 C 263.087 65.162,262.675 65.100,261.667 65.100 C 260.658 65.100,260.246 65.162,260.750 65.239 M272.484 66.417 L 271.167 67.833 272.583 66.516 C 273.901 65.290,274.153 65.000,273.901 65.000 C 273.847 65.000,273.209 65.637,272.484 66.417 M340.333 65.104 C 340.333 65.162,340.821 65.649,341.417 66.188 L 342.500 67.167 341.521 66.083 C 340.608 65.074,340.333 64.847,340.333 65.104 M250.000 65.438 C 250.000 65.495,250.487 65.983,251.083 66.521 L 252.167 67.500 251.188 66.417 C 250.275 65.407,250.000 65.180,250.000 65.438 M301.077 69.000 C 301.077 69.642,301.146 69.904,301.230 69.583 C 301.314 69.262,301.314 68.737,301.230 68.417 C 301.146 68.096,301.077 68.358,301.077 69.000 M307.100 69.667 C 307.100 70.675,307.162 71.087,307.239 70.583 C 307.315 70.079,307.315 69.254,307.239 68.750 C 307.162 68.246,307.100 68.658,307.100 69.667 M60.484 70.750 L 59.167 72.167 60.583 70.849 C 61.362 70.124,62.000 69.487,62.000 69.432 C 62.000 69.180,61.710 69.433,60.484 70.750 M340.000 71.500 C 340.622 72.142,341.206 72.667,341.297 72.667 C 341.389 72.667,340.955 72.142,340.333 71.500 C 339.711 70.858,339.128 70.333,339.036 70.333 C 338.944 70.333,339.378 70.858,340.000 71.500 M260.917 70.908 C 261.512 70.982,262.487 70.982,263.083 70.908 C 263.679 70.834,263.192 70.773,262.000 70.773 C 260.808 70.773,260.321 70.834,260.917 70.908 M193.083 71.239 C 193.588 71.315,194.412 71.315,194.917 71.239 C 195.421 71.162,195.008 71.100,194.000 71.100 C 192.992 71.100,192.579 71.162,193.083 71.239 M204.750 71.239 C 205.254 71.315,206.079 71.315,206.583 71.239 C 207.088 71.162,206.675 71.100,205.667 71.100 C 204.658 71.100,204.246 71.162,204.750 71.239 M188.083 71.563 C 188.404 71.647,188.929 71.647,189.250 71.563 C 189.571 71.479,189.308 71.411,188.667 71.411 C 188.025 71.411,187.762 71.479,188.083 71.563 M210.417 71.563 C 210.737 71.647,211.262 71.647,211.583 71.563 C 211.904 71.479,211.642 71.411,211.000 71.411 C 210.358 71.411,210.096 71.479,210.417 71.563 M296.750 72.896 C 297.071 72.980,297.596 72.980,297.917 72.896 C 298.237 72.813,297.975 72.744,297.333 72.744 C 296.692 72.744,296.429 72.813,296.750 72.896 M298.083 78.230 C 298.404 78.314,298.929 78.314,299.250 78.230 C 299.571 78.146,299.308 78.077,298.667 78.077 C 298.025 78.077,297.762 78.146,298.083 78.230 M326.833 83.333 C 329.028 85.533,330.898 87.333,330.990 87.333 C 331.081 87.333,329.361 85.533,327.167 83.333 C 324.972 81.133,323.102 79.333,323.010 79.333 C 322.919 79.333,324.639 81.133,326.833 83.333 M193.921 80.902 C 194.335 80.982,194.935 80.979,195.254 80.896 C 195.573 80.812,195.233 80.747,194.500 80.751 C 193.767 80.754,193.506 80.823,193.921 80.902 M204.921 80.902 C 205.335 80.982,205.935 80.979,206.254 80.896 C 206.573 80.812,206.233 80.747,205.500 80.751 C 204.767 80.754,204.506 80.823,204.921 80.902 M311.830 90.083 L 305.167 96.833 311.917 90.170 C 315.629 86.505,318.667 83.467,318.667 83.420 C 318.667 83.183,318.022 83.812,311.830 90.083 M322.650 87.917 L 321.851 88.833 322.666 88.083 L 323.482 87.333 325.658 89.417 L 327.833 91.500 325.676 89.250 C 324.490 88.013,323.504 87.000,323.484 87.000 C 323.465 87.000,323.090 87.412,322.650 87.917 M89.333 93.771 C 89.333 93.828,89.821 94.316,90.417 94.854 L 91.500 95.833 90.521 94.750 C 89.608 93.740,89.333 93.513,89.333 93.771 M68.530 95.618 C 68.433 95.775,68.762 96.262,69.260 96.702 L 70.167 97.500 69.414 96.642 C 68.999 96.170,68.762 95.683,68.886 95.559 C 69.010 95.435,69.020 95.333,68.909 95.333 C 68.797 95.333,68.627 95.462,68.530 95.618 M310.659 99.507 L 309.522 100.682 311.674 102.757 L 313.826 104.833 311.844 102.754 L 309.862 100.674 310.996 99.504 C 311.620 98.860,312.056 98.333,311.964 98.333 C 311.872 98.333,311.285 98.862,310.659 99.507 M112.315 105.250 L 111.167 106.500 112.417 105.351 C 113.104 104.719,113.667 104.157,113.667 104.101 C 113.667 103.847,113.385 104.087,112.315 105.250 M287.986 106.083 C 288.803 106.954,289.516 107.667,289.569 107.667 C 289.820 107.667,289.555 107.367,288.083 105.986 L 286.500 104.500 287.986 106.083 M307.500 106.000 C 308.216 106.733,308.877 107.333,308.969 107.333 C 309.060 107.333,308.549 106.733,307.833 106.000 C 307.117 105.267,306.456 104.667,306.365 104.667 C 306.273 104.667,306.784 105.267,307.500 106.000 M330.315 107.583 L 329.167 108.833 330.417 107.685 C 331.580 106.615,331.820 106.333,331.565 106.333 C 331.510 106.333,330.947 106.896,330.315 107.583 M112.327 112.250 L 109.167 115.500 112.417 112.340 C 115.435 109.405,115.818 109.000,115.577 109.000 C 115.527 109.000,114.065 110.462,112.327 112.250 M287.833 112.667 C 289.107 113.950,290.224 115.000,290.315 115.000 C 290.407 115.000,289.440 113.950,288.167 112.667 C 286.893 111.383,285.776 110.333,285.685 110.333 C 285.593 110.333,286.560 111.383,287.833 112.667 M293.653 111.750 C 294.470 112.621,295.183 113.333,295.236 113.333 C 295.486 113.333,295.222 113.034,293.750 111.653 L 292.167 110.167 293.653 111.750 M104.982 112.583 L 103.833 113.833 105.083 112.685 C 105.771 112.053,106.333 111.490,106.333 111.435 C 106.333 111.180,106.051 111.420,104.982 112.583 M115.655 115.583 L 113.833 117.500 115.750 115.678 C 117.531 113.985,117.819 113.667,117.572 113.667 C 117.520 113.667,116.657 114.529,115.655 115.583 M284.167 115.667 C 285.070 116.583,285.883 117.333,285.975 117.333 C 286.067 117.333,285.403 116.583,284.500 115.667 C 283.597 114.750,282.783 114.000,282.692 114.000 C 282.600 114.000,283.264 114.750,284.167 115.667 M230.819 176.500 C 230.819 183.833,230.863 186.786,230.916 183.061 C 230.970 179.336,230.970 173.336,230.916 169.728 C 230.862 166.119,230.818 169.167,230.819 176.500 M165.443 165.833 C 165.444 167.117,165.504 167.601,165.577 166.909 C 165.649 166.218,165.648 165.168,165.574 164.576 C 165.500 163.984,165.441 164.550,165.443 165.833 M234.795 171.481 C 234.693 171.745,234.681 172.232,234.766 172.564 C 234.872 172.970,234.935 172.877,234.961 172.278 C 234.983 171.789,235.188 171.313,235.417 171.221 C 235.743 171.089,235.741 171.047,235.406 171.026 C 235.171 171.012,234.896 171.216,234.795 171.481 M214.667 181.333 C 214.667 184.878,214.754 187.690,214.862 187.583 C 215.089 187.356,215.048 175.270,214.820 175.042 C 214.735 174.958,214.667 177.789,214.667 181.333 M318.417 177.576 C 319.104 177.648,320.229 177.648,320.917 177.576 C 321.604 177.504,321.042 177.445,319.667 177.445 C 318.292 177.445,317.729 177.504,318.417 177.576 M165.387 179.222 C 165.357 179.986,165.146 180.687,164.917 180.779 C 164.590 180.911,164.593 180.953,164.927 180.974 C 165.508 181.009,165.741 180.284,165.577 178.948 C 165.451 177.922,165.436 177.944,165.387 179.222 M165.433 185.333 C 165.433 186.342,165.496 186.754,165.572 186.250 C 165.648 185.746,165.648 184.921,165.572 184.417 C 165.496 183.912,165.433 184.325,165.433 185.333 M389.751 187.500 C 389.754 188.233,389.823 188.494,389.902 188.079 C 389.982 187.665,389.979 187.065,389.896 186.746 C 389.812 186.427,389.747 186.767,389.751 187.500 M10.084 188.500 C 10.088 189.233,10.156 189.494,10.236 189.079 C 10.315 188.665,10.312 188.065,10.229 187.746 C 10.146 187.427,10.080 187.767,10.084 188.500 M124.812 190.750 L 123.833 191.833 124.917 190.854 C 125.926 189.942,126.153 189.667,125.896 189.667 C 125.838 189.667,125.351 190.154,124.812 190.750 M71.084 191.167 C 71.088 191.900,71.156 192.161,71.236 191.746 C 71.315 191.331,71.312 190.731,71.229 190.413 C 71.146 190.094,71.080 190.433,71.084 191.167 M328.424 191.333 C 328.424 192.158,328.489 192.496,328.569 192.083 C 328.648 191.671,328.648 190.996,328.569 190.583 C 328.489 190.171,328.424 190.508,328.424 191.333 M106.833 196.333 C 110.130 199.633,112.901 202.333,112.993 202.333 C 113.085 202.333,110.463 199.633,107.167 196.333 C 103.870 193.033,101.099 190.333,101.007 190.333 C 100.915 190.333,103.537 193.033,106.833 196.333 M368.587 192.236 C 369.002 192.315,369.602 192.312,369.921 192.229 C 370.239 192.146,369.900 192.080,369.167 192.084 C 368.433 192.088,368.173 192.156,368.587 192.236 M390.125 195.833 C 390.125 197.850,390.180 198.632,390.247 197.571 C 390.313 196.510,390.312 194.860,390.245 193.904 C 390.178 192.949,390.124 193.817,390.125 195.833 M278.653 194.083 C 279.470 194.954,280.183 195.667,280.236 195.667 C 280.486 195.667,280.222 195.367,278.750 193.986 L 277.167 192.500 278.653 194.083 M80.751 194.500 C 80.754 195.233,80.823 195.494,80.902 195.079 C 80.982 194.665,80.979 194.065,80.896 193.746 C 80.812 193.427,80.747 193.767,80.751 194.500 M319.084 194.500 C 319.088 195.233,319.156 195.494,319.236 195.079 C 319.315 194.665,319.312 194.065,319.229 193.746 C 319.146 193.427,319.080 193.767,319.084 194.500 M9.805 200.000 C 9.805 203.392,9.855 204.779,9.915 203.083 C 9.976 201.387,9.976 198.612,9.915 196.917 C 9.855 195.221,9.805 196.608,9.805 200.000 M5.137 200.000 C 5.137 203.208,5.187 204.521,5.248 202.917 C 5.309 201.313,5.309 198.688,5.248 197.083 C 5.187 195.479,5.137 196.792,5.137 200.000 M394.802 200.000 C 394.802 203.025,394.853 204.262,394.915 202.750 C 394.976 201.237,394.976 198.762,394.915 197.250 C 394.853 195.737,394.802 196.975,394.802 200.000 M70.796 200.167 C 70.797 202.550,70.850 203.481,70.914 202.236 C 70.978 200.991,70.978 199.041,70.913 197.903 C 70.848 196.765,70.796 197.783,70.796 200.167 M328.791 200.167 C 328.792 202.183,328.847 202.965,328.913 201.904 C 328.980 200.844,328.979 199.194,328.912 198.238 C 328.845 197.282,328.791 198.150,328.791 200.167 M116.667 198.500 C 115.857 199.325,115.270 200.000,115.361 200.000 C 115.453 200.000,116.190 199.325,117.000 198.500 C 117.810 197.675,118.397 197.000,118.305 197.000 C 118.214 197.000,117.476 197.675,116.667 198.500 M44.921 200.236 C 45.335 200.315,45.935 200.312,46.254 200.229 C 46.573 200.146,46.233 200.080,45.500 200.084 C 44.767 200.088,44.506 200.156,44.921 200.236 M390.125 204.167 C 390.125 206.183,390.180 206.965,390.247 205.904 C 390.313 204.844,390.312 203.194,390.245 202.238 C 390.178 201.282,390.124 202.150,390.125 204.167 M117.733 203.067 C 117.093 203.707,117.266 204.003,118.250 203.955 C 119.065 203.914,119.081 203.893,118.397 203.762 C 117.775 203.643,117.703 203.525,118.021 203.141 C 118.500 202.565,118.290 202.510,117.733 203.067 M367.667 202.796 C 367.667 202.866,368.117 202.990,368.667 203.071 C 369.217 203.152,369.667 203.094,369.667 202.942 C 369.667 202.791,369.217 202.667,368.667 202.667 C 368.117 202.667,367.667 202.725,367.667 202.796 M275.750 204.230 C 276.071 204.314,276.596 204.314,276.917 204.230 C 277.237 204.146,276.975 204.077,276.333 204.077 C 275.692 204.077,275.429 204.146,275.750 204.230 M80.751 205.500 C 80.754 206.233,80.823 206.494,80.902 206.079 C 80.982 205.665,80.979 205.065,80.896 204.746 C 80.812 204.427,80.747 204.767,80.751 205.500 M319.084 205.500 C 319.088 206.233,319.156 206.494,319.236 206.079 C 319.315 205.665,319.312 205.065,319.229 204.746 C 319.146 204.427,319.080 204.767,319.084 205.500 M349.254 207.569 C 349.669 207.649,350.269 207.646,350.587 207.562 C 350.906 207.479,350.567 207.414,349.833 207.417 C 349.100 207.421,348.839 207.489,349.254 207.569 M39.333 207.771 C 39.333 207.828,39.821 208.316,40.417 208.854 L 41.500 209.833 40.521 208.750 C 39.608 207.740,39.333 207.513,39.333 207.771 M328.417 208.833 C 328.421 209.567,328.489 209.827,328.569 209.413 C 328.649 208.998,328.646 208.398,328.562 208.079 C 328.479 207.761,328.414 208.100,328.417 208.833 M71.084 209.167 C 71.088 209.900,71.156 210.161,71.236 209.746 C 71.315 209.331,71.312 208.731,71.229 208.413 C 71.146 208.094,71.080 208.433,71.084 209.167 M161.490 229.333 C 161.490 240.608,161.532 245.221,161.583 239.583 C 161.634 233.946,161.634 224.721,161.583 219.083 C 161.532 213.446,161.490 218.058,161.490 229.333 M10.084 211.500 C 10.088 212.233,10.156 212.494,10.236 212.079 C 10.315 211.665,10.312 211.065,10.229 210.746 C 10.146 210.427,10.080 210.767,10.084 211.500 M28.750 210.572 C 29.254 210.648,30.079 210.648,30.583 210.572 C 31.087 210.496,30.675 210.433,29.667 210.433 C 28.658 210.433,28.246 210.496,28.750 210.572 M366.083 210.572 C 366.587 210.648,367.412 210.648,367.917 210.572 C 368.421 210.496,368.008 210.433,367.000 210.433 C 365.992 210.433,365.579 210.496,366.083 210.572 M389.751 212.500 C 389.754 213.233,389.823 213.494,389.902 213.079 C 389.982 212.665,389.979 212.065,389.896 211.746 C 389.812 211.427,389.747 211.767,389.751 212.500 M193.272 247.250 C 197.181 247.303,203.481 247.303,207.272 247.250 C 211.064 247.196,207.867 247.152,200.167 247.153 C 192.467 247.153,189.364 247.196,193.272 247.250 M115.333 284.167 C 116.329 285.175,117.219 286.000,117.311 286.000 C 117.402 286.000,116.662 285.175,115.667 284.167 C 114.671 283.158,113.781 282.333,113.689 282.333 C 113.598 282.333,114.338 283.158,115.333 284.167 M284.156 284.417 L 282.167 286.500 284.250 284.510 C 285.396 283.416,286.333 282.479,286.333 282.427 C 286.333 282.181,286.004 282.481,284.156 284.417 M289.333 285.833 C 288.524 286.658,287.936 287.333,288.028 287.333 C 288.120 287.333,288.857 286.658,289.667 285.833 C 290.476 285.008,291.064 284.333,290.972 284.333 C 290.880 284.333,290.143 285.008,289.333 285.833 M110.500 286.000 C 111.216 286.733,111.877 287.333,111.969 287.333 C 112.060 287.333,111.549 286.733,110.833 286.000 C 110.117 285.267,109.456 284.667,109.365 284.667 C 109.273 284.667,109.784 285.267,110.500 286.000 M104.000 286.438 C 104.000 286.495,104.487 286.983,105.083 287.521 L 106.167 288.500 105.188 287.417 C 104.275 286.407,104.000 286.180,104.000 286.438 M294.151 287.750 L 292.833 289.167 294.250 287.849 C 295.567 286.624,295.820 286.333,295.568 286.333 C 295.513 286.333,294.876 286.971,294.151 287.750 M113.833 289.333 C 114.549 290.067,115.210 290.667,115.302 290.667 C 115.394 290.667,114.883 290.067,114.167 289.333 C 113.451 288.600,112.790 288.000,112.698 288.000 C 112.606 288.000,113.117 288.600,113.833 289.333 M285.667 289.500 C 284.857 290.325,284.270 291.000,284.361 291.000 C 284.453 291.000,285.190 290.325,286.000 289.500 C 286.810 288.675,287.397 288.000,287.305 288.000 C 287.214 288.000,286.476 288.675,285.667 289.500 M317.667 293.167 C 316.857 293.992,316.270 294.667,316.361 294.667 C 316.453 294.667,317.190 293.992,318.000 293.167 C 318.810 292.342,319.397 291.667,319.305 291.667 C 319.214 291.667,318.476 292.342,317.667 293.167 M322.484 293.750 L 321.167 295.167 322.583 293.849 C 323.901 292.624,324.153 292.333,323.901 292.333 C 323.847 292.333,323.209 292.971,322.484 293.750 M287.315 294.583 L 286.167 295.833 287.417 294.685 C 288.580 293.615,288.820 293.333,288.565 293.333 C 288.510 293.333,287.947 293.896,287.315 294.583 M112.333 294.833 C 112.955 295.475,113.539 296.000,113.631 296.000 C 113.722 296.000,113.289 295.475,112.667 294.833 C 112.045 294.192,111.461 293.667,111.369 293.667 C 111.278 293.667,111.711 294.192,112.333 294.833 M316.833 297.667 C 317.549 298.400,318.210 299.000,318.302 299.000 C 318.394 299.000,317.883 298.400,317.167 297.667 C 316.451 296.933,315.790 296.333,315.698 296.333 C 315.606 296.333,316.117 296.933,316.833 297.667 M321.986 302.417 C 322.803 303.287,323.516 304.000,323.569 304.000 C 323.820 304.000,323.555 303.701,322.083 302.319 L 320.500 300.833 321.986 302.417 M330.082 303.832 L 331.663 305.488 332.582 304.503 L 333.500 303.519 332.577 304.323 L 331.655 305.127 330.077 303.652 L 328.500 302.176 330.082 303.832 M336.479 305.750 L 335.500 306.833 336.583 305.854 C 337.179 305.316,337.667 304.828,337.667 304.771 C 337.667 304.513,337.392 304.740,336.479 305.750 M327.319 307.417 C 328.137 308.287,328.849 309.000,328.903 309.000 C 329.153 309.000,328.888 308.701,327.417 307.319 L 325.833 305.833 327.319 307.417 M332.511 309.988 C 331.991 310.532,331.414 310.883,331.231 310.770 C 331.034 310.648,331.002 310.733,331.153 310.977 C 331.365 311.321,333.667 309.603,333.667 309.101 C 333.667 308.857,333.398 309.063,332.511 309.988 M193.587 319.236 C 194.002 319.315,194.602 319.312,194.921 319.229 C 195.239 319.146,194.900 319.080,194.167 319.084 C 193.433 319.088,193.173 319.156,193.587 319.236 M205.254 319.236 C 205.669 319.315,206.269 319.312,206.587 319.229 C 206.906 319.146,206.567 319.080,205.833 319.084 C 205.100 319.088,204.839 319.156,205.254 319.236 M92.479 320.750 L 91.500 321.833 92.583 320.854 C 93.593 319.942,93.820 319.667,93.562 319.667 C 93.505 319.667,93.017 320.154,92.479 320.750 M79.333 324.167 C 79.955 324.808,80.539 325.333,80.631 325.333 C 80.722 325.333,80.289 324.808,79.667 324.167 C 79.045 323.525,78.461 323.000,78.369 323.000 C 78.278 323.000,78.711 323.525,79.333 324.167 M86.587 323.236 C 87.002 323.315,87.602 323.312,87.921 323.229 C 88.239 323.146,87.900 323.080,87.167 323.084 C 86.433 323.088,86.173 323.156,86.587 323.236 M304.000 326.438 C 304.000 326.495,304.487 326.983,305.083 327.521 L 306.167 328.500 305.188 327.417 C 304.275 326.407,304.000 326.180,304.000 326.438 M339.649 328.917 L 338.500 330.167 339.750 329.018 C 340.438 328.386,341.000 327.824,341.000 327.768 C 341.000 327.513,340.718 327.753,339.649 328.917 M60.833 329.667 C 61.549 330.400,62.210 331.000,62.302 331.000 C 62.394 331.000,61.883 330.400,61.167 329.667 C 60.451 328.933,59.790 328.333,59.698 328.333 C 59.606 328.333,60.117 328.933,60.833 329.667 M188.083 328.563 C 188.404 328.647,188.929 328.647,189.250 328.563 C 189.571 328.479,189.308 328.411,188.667 328.411 C 188.025 328.411,187.762 328.479,188.083 328.563 M210.417 328.563 C 210.737 328.647,211.262 328.647,211.583 328.563 C 211.904 328.479,211.642 328.411,211.000 328.411 C 210.358 328.411,210.096 328.479,210.417 328.563 M192.923 328.908 C 193.522 328.982,194.422 328.981,194.923 328.905 C 195.424 328.829,194.933 328.768,193.833 328.770 C 192.733 328.772,192.324 328.834,192.923 328.908 M204.750 328.905 C 205.254 328.982,206.079 328.982,206.583 328.905 C 207.088 328.829,206.675 328.767,205.667 328.767 C 204.658 328.767,204.246 328.829,204.750 328.905 M122.095 333.833 C 122.098 334.750,122.163 335.085,122.239 334.579 C 122.316 334.072,122.314 333.322,122.235 332.912 C 122.156 332.502,122.093 332.917,122.095 333.833 M57.667 333.104 C 57.667 333.162,58.154 333.649,58.750 334.188 L 59.833 335.167 58.854 334.083 C 57.942 333.074,57.667 332.847,57.667 333.104 M341.146 334.083 L 340.167 335.167 341.250 334.188 C 342.260 333.275,342.487 333.000,342.229 333.000 C 342.172 333.000,341.684 333.487,341.146 334.083 M267.088 333.906 C 267.595 333.982,268.345 333.980,268.755 333.901 C 269.165 333.822,268.750 333.760,267.833 333.762 C 266.917 333.765,266.581 333.829,267.088 333.906 M259.146 337.417 L 258.167 338.500 259.250 337.521 C 259.846 336.983,260.333 336.495,260.333 336.438 C 260.333 336.180,260.058 336.407,259.146 337.417 M70.167 339.000 C 70.883 339.733,71.544 340.333,71.635 340.333 C 71.727 340.333,71.216 339.733,70.500 339.000 C 69.784 338.267,69.123 337.667,69.031 337.667 C 68.940 337.667,69.451 338.267,70.167 339.000 M266.917 338.235 C 267.329 338.315,268.004 338.315,268.417 338.235 C 268.829 338.156,268.492 338.091,267.667 338.091 C 266.842 338.091,266.504 338.156,266.917 338.235 M104.333 338.438 C 104.333 338.495,104.821 338.983,105.417 339.521 L 106.500 340.500 105.521 339.417 C 104.608 338.407,104.333 338.180,104.333 338.438 M328.649 339.917 L 327.500 341.167 328.750 340.018 C 329.913 338.949,330.153 338.667,329.899 338.667 C 329.843 338.667,329.281 339.229,328.649 339.917 M65.000 340.438 C 65.000 340.495,65.487 340.983,66.083 341.521 L 67.167 342.500 66.188 341.417 C 65.275 340.407,65.000 340.180,65.000 340.438 M109.587 341.569 C 110.002 341.649,110.602 341.646,110.921 341.562 C 111.239 341.479,110.900 341.414,110.167 341.417 C 109.433 341.421,109.173 341.489,109.587 341.569 M260.424 344.667 C 260.424 345.492,260.489 345.829,260.569 345.417 C 260.648 345.004,260.648 344.329,260.569 343.917 C 260.489 343.504,260.424 343.842,260.424 344.667 M274.379 346.250 C 274.416 347.005,274.449 347.038,274.566 346.437 C 274.644 346.036,274.961 345.641,275.270 345.559 C 275.669 345.454,275.615 345.399,275.083 345.372 C 274.468 345.340,274.341 345.498,274.379 346.250 M109.917 345.902 C 110.329 345.981,111.004 345.981,111.417 345.902 C 111.829 345.822,111.492 345.757,110.667 345.757 C 109.842 345.757,109.504 345.822,109.917 345.902 M203.757 352.333 C 203.757 353.158,203.822 353.496,203.902 353.083 C 203.981 352.671,203.981 351.996,203.902 351.583 C 203.822 351.171,203.757 351.508,203.757 352.333 M208.429 354.833 C 208.431 355.750,208.496 356.085,208.573 355.579 C 208.649 355.072,208.647 354.322,208.568 353.912 C 208.489 353.502,208.426 353.917,208.429 354.833 M204.091 358.333 C 204.091 359.158,204.156 359.496,204.235 359.083 C 204.315 358.671,204.315 357.996,204.235 357.583 C 204.156 357.171,204.091 357.508,204.091 358.333 M208.757 360.667 C 208.757 361.492,208.822 361.829,208.902 361.417 C 208.981 361.004,208.981 360.329,208.902 359.917 C 208.822 359.504,208.757 359.842,208.757 360.667 M167.077 361.333 C 167.077 361.975,167.146 362.238,167.230 361.917 C 167.314 361.596,167.314 361.071,167.230 360.750 C 167.146 360.429,167.077 360.692,167.077 361.333 M204.429 364.167 C 204.431 365.083,204.496 365.419,204.573 364.912 C 204.649 364.405,204.647 363.655,204.568 363.245 C 204.489 362.835,204.426 363.250,204.429 364.167 M209.095 366.500 C 209.098 367.417,209.163 367.752,209.239 367.245 C 209.316 366.739,209.314 365.989,209.235 365.579 C 209.156 365.169,209.093 365.583,209.095 366.500 M217.063 367.903 C 217.734 368.006,217.994 368.266,218.097 368.937 C 218.220 369.747,218.238 369.729,218.283 368.750 C 218.330 367.730,218.270 367.670,217.250 367.717 C 216.271 367.762,216.253 367.780,217.063 367.903 M211.583 368.235 C 211.996 368.315,212.671 368.315,213.083 368.235 C 213.496 368.156,213.158 368.091,212.333 368.091 C 211.508 368.091,211.171 368.156,211.583 368.235 M204.757 370.000 C 204.757 370.825,204.822 371.162,204.902 370.750 C 204.981 370.337,204.981 369.662,204.902 369.250 C 204.822 368.837,204.757 369.175,204.757 370.000 M215.250 371.902 C 215.662 371.981,216.338 371.981,216.750 371.902 C 217.162 371.822,216.825 371.757,216.000 371.757 C 215.175 371.757,214.838 371.822,215.250 371.902 M209.250 372.235 C 209.662 372.315,210.338 372.315,210.750 372.235 C 211.162 372.156,210.825 372.091,210.000 372.091 C 209.175 372.091,208.838 372.156,209.250 372.235 M183.083 389.563 C 183.404 389.647,183.929 389.647,184.250 389.563 C 184.571 389.479,184.308 389.411,183.667 389.411 C 183.025 389.411,182.762 389.479,183.083 389.563 M187.587 389.902 C 188.002 389.982,188.602 389.979,188.921 389.896 C 189.239 389.812,188.900 389.747,188.167 389.751 C 187.433 389.754,187.173 389.823,187.587 389.902 M211.250 389.902 C 211.662 389.981,212.338 389.981,212.750 389.902 C 213.162 389.822,212.825 389.757,212.000 389.757 C 211.175 389.757,210.838 389.822,211.250 389.902 M196.583 390.249 C 198.463 390.308,201.537 390.308,203.417 390.249 C 205.296 390.189,203.758 390.141,200.000 390.141 C 196.242 390.141,194.704 390.189,196.583 390.249 M197.250 394.915 C 198.762 394.976,201.237 394.976,202.750 394.915 C 204.262 394.853,203.025 394.802,200.000 394.802 C 196.975 394.802,195.737 394.853,197.250 394.915 " stroke="none" fill="#ec5b64" fill-rule="evenodd"/></g></svg>