<?xml version="1.0" encoding="UTF-8" standalone="no"?>
<svg xmlns:dc="http://purl.org/dc/elements/1.1/" xmlns:cc="http://creativecommons.org/ns#" xmlns:rdf="http://www.w3.org/1999/02/22-rdf-syntax-ns#" xmlns:svg="http://www.w3.org/2000/svg" xmlns="http://www.w3.org/2000/svg" xmlns:sodipodi="http://sodipodi.sourceforge.net/DTD/sodipodi-0.dtd" xmlns:inkscape="http://www.inkscape.org/namespaces/inkscape" inkscape:version="1.0 (4035a4f, 2020-05-01)" sodipodi:docname="471.svg" id="svg10638" height="200.0pt" width="200.0pt" viewBox="0 0 200 200" version="1.1">
  <metadata id="metadata10644">
    <rdf:RDF>
      <cc:Work rdf:about="">
        <dc:format>image/svg+xml</dc:format>
        <dc:type rdf:resource="http://purl.org/dc/dcmitype/StillImage"/>
      </cc:Work>
    </rdf:RDF>
  </metadata>
  <defs id="defs10642"/>
  <sodipodi:namedview inkscape:current-layer="svg10638" inkscape:cy="133.33333" inkscape:cx="133.33333" inkscape:zoom="1.75125" showgrid="false" id="namedview10640" inkscape:window-height="480" inkscape:window-width="640" inkscape:pageshadow="2" inkscape:pageopacity="0" guidetolerance="10" gridtolerance="10" objecttolerance="10" borderopacity="1" bordercolor="#666666" pagecolor="#ffffff"/>
  <path style="fill:#ffffff;fill-opacity:0.01619433" id="path10536" fill="#ffffff" d="M 0.00 0.00 L 65.79 0.00 C 62.47 5.64 60.09 11.96 53.36 14.33 C 46.26 16.54 38.37 16.89 30.97 17.03 C 29.52 17.19 28.26 16.92 27.23 18.16 C 23.74 22.00 20.90 26.47 17.87 30.68 C 24.45 41.89 29.98 55.83 28.98 69.02 C 28.84 72.36 27.93 75.48 26.97 78.66 C 23.96 79.49 20.96 80.37 17.97 81.27 C 18.24 82.86 18.50 84.45 18.77 86.03 C 16.34 87.21 13.91 88.42 11.50 89.66 C 12.82 91.21 14.14 92.76 15.46 94.31 C 13.18 96.29 10.86 98.22 8.50 100.11 C 10.87 101.89 13.27 103.63 15.68 105.36 C 13.14 113.14 9.88 121.77 9.91 130.00 C 9.84 135.65 9.69 140.93 11.63 146.33 C 14.85 155.98 21.84 163.44 30.53 168.50 C 45.95 177.57 64.32 180.55 81.61 183.97 C 80.29 187.78 78.98 191.60 77.77 195.45 C 83.14 194.26 88.25 192.33 93.54 190.84 C 94.62 193.91 95.76 196.96 96.95 200.00 L 0.00 200.00 L 0.00 0.00 Z"/>
  <path id="path10538" fill="#d3d3d3" d="M 65.79 0.00 L 66.85 0.00 C 70.42 3.97 73.36 8.08 77.73 11.27 C 90.17 20.93 108.94 21.01 121.44 11.42 C 125.88 8.27 128.98 4.11 132.43 0.00 L 133.72 0.00 C 135.85 4.18 138.18 9.12 141.84 12.15 C 146.23 15.48 153.11 15.92 158.41 16.58 C 162.71 17.18 167.30 16.54 171.49 17.51 C 174.81 20.84 177.45 24.99 180.22 28.78 C 181.85 30.49 180.07 32.60 179.41 34.36 C 174.64 43.34 171.26 52.84 170.14 62.98 C 169.58 68.43 170.88 73.34 172.27 78.54 C 175.60 79.49 178.86 80.55 182.10 81.74 C 181.46 83.13 180.82 84.51 180.18 85.89 C 182.64 87.07 185.08 88.29 187.50 89.57 C 186.31 91.24 185.12 92.92 183.93 94.60 C 186.19 96.38 188.43 98.17 190.65 100.00 C 188.52 101.73 186.12 103.36 184.31 105.43 C 183.95 106.80 184.79 108.53 185.12 109.86 C 187.33 116.25 189.31 122.41 189.28 129.26 C 189.17 133.96 189.44 138.87 188.54 143.49 C 186.20 152.83 180.25 160.93 172.27 166.28 C 156.49 177.13 135.31 180.55 116.84 184.09 C 118.04 188.36 119.24 192.63 120.28 196.94 C 115.68 195.13 111.20 193.05 106.77 190.85 C 103.97 193.83 101.40 197.01 98.61 200.00 L 96.95 200.00 C 95.76 196.96 94.62 193.91 93.54 190.84 C 88.25 192.33 83.14 194.26 77.77 195.45 C 78.98 191.60 80.29 187.78 81.61 183.97 C 64.32 180.55 45.95 177.57 30.53 168.50 C 21.84 163.44 14.85 155.98 11.63 146.33 C 9.69 140.93 9.84 135.65 9.91 130.00 C 9.88 121.77 13.14 113.14 15.68 105.36 C 13.27 103.63 10.87 101.89 8.50 100.11 C 10.86 98.22 13.18 96.29 15.46 94.31 C 14.14 92.76 12.82 91.21 11.50 89.66 C 13.91 88.42 16.34 87.21 18.77 86.03 C 18.50 84.45 18.24 82.86 17.97 81.27 C 20.96 80.37 23.96 79.49 26.97 78.66 C 27.93 75.48 28.84 72.36 28.98 69.02 C 29.98 55.83 24.45 41.89 17.87 30.68 C 20.90 26.47 23.74 22.00 27.23 18.16 C 28.26 16.92 29.52 17.19 30.97 17.03 C 38.37 16.89 46.26 16.54 53.36 14.33 C 60.09 11.96 62.47 5.64 65.79 0.00 Z"/>
  <path style="fill:#ffffff;fill-opacity:0.0242915" id="path10540" fill="#ffffff" d="M 66.85 0.00 L 132.43 0.00 C 128.98 4.11 125.88 8.27 121.44 11.42 C 108.94 21.01 90.17 20.93 77.73 11.27 C 73.36 8.08 70.42 3.97 66.85 0.00 Z"/>
  <path style="fill:#ffffff;fill-opacity:0" id="path10542" fill="#ffffff" d="M 133.72 0.00 L 200.00 0.00 L 200.00 200.00 L 98.61 200.00 C 101.40 197.01 103.97 193.83 106.77 190.85 C 111.20 193.05 115.68 195.13 120.28 196.94 C 119.24 192.63 118.04 188.36 116.84 184.09 C 135.31 180.55 156.49 177.13 172.27 166.28 C 180.25 160.93 186.20 152.83 188.54 143.49 C 189.44 138.87 189.17 133.96 189.28 129.26 C 189.31 122.41 187.33 116.25 185.12 109.86 C 184.79 108.53 183.95 106.80 184.31 105.43 C 186.12 103.36 188.52 101.73 190.65 100.00 C 188.43 98.17 186.19 96.38 183.93 94.60 C 185.12 92.92 186.31 91.24 187.50 89.57 C 185.08 88.29 182.64 87.07 180.18 85.89 C 180.82 84.51 181.46 83.13 182.10 81.74 C 178.86 80.55 175.60 79.49 172.27 78.54 C 170.88 73.34 169.58 68.43 170.14 62.98 C 171.26 52.84 174.64 43.34 179.41 34.36 C 180.07 32.60 181.85 30.49 180.22 28.78 C 177.45 24.99 174.81 20.84 171.49 17.51 C 167.30 16.54 162.71 17.18 158.41 16.58 C 153.11 15.92 146.23 15.48 141.84 12.15 C 138.18 9.12 135.85 4.18 133.72 0.00 Z"/>
  <path id="path10544" fill="#000000" d="M 132.04 8.63 L 132.18 8.48 C 134.88 12.44 137.23 16.13 141.75 18.24 C 149.81 22.09 160.06 21.57 168.63 22.63 C 171.20 24.57 173.17 28.31 175.24 30.87 C 169.62 41.46 164.94 53.92 164.85 66.02 C 165.05 71.53 165.92 77.53 168.30 82.54 C 170.37 83.54 172.67 84.14 174.85 84.85 C 174.24 86.15 173.64 87.45 173.03 88.75 C 175.20 89.67 177.37 90.59 179.54 91.51 C 178.48 92.82 177.42 94.13 176.36 95.44 C 178.32 96.96 180.29 98.46 182.25 99.97 C 180.56 101.18 178.88 102.38 177.19 103.59 C 180.46 111.74 183.42 120.20 184.30 128.99 C 185.13 137.80 183.31 146.77 177.85 153.88 C 171.86 161.71 162.82 166.41 153.76 169.76 C 139.89 174.79 124.59 177.33 110.06 179.76 C 110.82 182.43 111.58 185.11 112.33 187.78 C 110.08 186.72 107.84 185.65 105.60 184.57 C 103.45 186.81 101.34 189.10 99.21 191.37 C 98.32 188.99 97.41 186.62 96.48 184.26 C 92.98 185.39 89.48 186.52 85.97 187.62 C 86.89 184.97 87.83 182.32 88.77 179.68 C 74.79 177.33 60.18 174.86 46.78 170.19 C 38.06 167.10 28.75 162.51 22.68 155.34 C 17.08 148.85 14.65 140.46 14.84 131.97 C 15.27 121.75 18.61 112.90 22.09 103.47 C 20.42 102.31 18.75 101.15 17.08 99.99 C 19.06 98.48 21.02 96.96 22.98 95.42 C 21.93 94.11 20.87 92.81 19.82 91.50 C 22.00 90.57 24.18 89.66 26.37 88.75 C 25.74 87.46 25.10 86.16 24.47 84.87 C 26.71 84.10 29.18 83.53 31.24 82.35 C 33.73 76.35 34.73 69.47 34.39 63.00 C 33.61 51.87 29.29 40.64 24.11 30.84 C 26.18 28.06 28.25 25.27 30.33 22.49 C 38.92 21.90 48.72 21.93 56.78 18.63 C 61.69 16.61 64.34 12.73 67.15 8.47 C 70.61 12.23 74.28 15.68 78.73 18.25 C 88.83 24.30 101.71 25.40 112.83 21.78 C 120.38 19.30 126.84 14.59 132.04 8.63 Z"/>
  <path id="path10546" fill="#ffffff" d="M 68.16 21.62 C 75.99 27.49 84.14 31.04 93.89 32.32 C 93.85 47.73 93.89 63.13 93.87 78.54 C 92.03 78.54 90.20 78.55 88.36 78.56 C 88.48 72.89 89.05 65.66 86.32 60.51 C 84.78 57.64 82.20 57.94 79.41 57.14 C 81.85 56.43 84.23 56.65 85.92 54.51 C 84.14 54.29 82.36 54.14 80.57 54.01 L 80.64 52.64 C 82.88 52.62 84.27 52.29 86.22 51.24 C 88.00 50.70 90.00 50.89 90.73 48.83 C 91.41 46.91 90.02 45.78 89.17 44.22 C 89.63 43.39 90.09 42.56 90.55 41.73 C 89.14 39.49 88.36 38.89 85.77 38.20 C 84.43 37.12 83.04 36.13 81.61 35.17 C 81.45 35.89 81.29 36.61 81.15 37.33 C 84.40 38.13 83.97 38.81 82.92 41.41 C 81.96 40.01 81.23 38.44 80.75 36.69 C 79.24 37.84 77.45 38.77 76.15 40.14 C 75.98 41.30 75.85 42.47 75.78 43.64 C 75.03 47.01 75.35 47.46 77.53 50.03 C 76.92 50.72 76.32 51.42 75.71 52.11 C 74.76 50.79 73.78 49.51 72.72 48.28 C 72.70 49.81 72.72 51.33 72.78 52.85 C 71.62 51.98 70.42 50.82 69.02 50.41 C 67.20 50.15 65.44 51.84 63.99 52.79 C 64.18 51.08 64.32 49.37 64.41 47.65 C 62.83 48.55 62.11 49.95 61.18 51.42 C 60.62 50.62 60.05 49.81 59.49 49.01 C 61.62 46.45 61.84 46.01 61.14 42.71 C 61.05 41.54 60.92 40.38 60.74 39.23 C 59.14 37.51 57.13 35.75 55.01 34.70 C 53.48 34.88 52.31 36.34 51.18 37.29 C 50.02 37.71 48.66 37.95 47.67 38.70 C 46.25 40.26 47.31 41.64 47.49 43.49 C 46.97 44.71 45.48 46.51 46.21 47.83 C 46.93 49.95 48.85 49.75 50.68 50.27 C 52.64 51.32 54.04 51.70 56.30 51.69 L 56.43 53.09 C 54.82 53.16 53.22 53.22 51.62 53.30 C 51.67 53.87 51.73 54.44 51.79 55.02 C 53.73 55.45 55.68 55.81 57.59 56.36 C 55.15 57.50 52.65 57.72 51.41 60.42 C 48.94 65.73 49.51 72.81 49.63 78.55 C 46.96 78.54 44.29 78.54 41.62 78.55 C 45.61 62.56 41.27 45.70 34.90 30.93 C 47.00 30.14 58.43 29.84 68.16 21.62 Z"/>
  <path id="path10548" fill="#0aa853" d="M 131.00 21.51 C 132.93 22.79 134.81 24.18 136.69 25.54 C 136.77 43.17 136.57 60.81 136.79 78.45 C 133.50 78.52 130.21 78.54 126.91 78.52 C 126.90 62.01 126.98 45.50 126.86 29.00 C 126.85 27.66 126.94 26.34 127.12 25.03 C 127.98 23.57 129.68 22.53 131.00 21.51 Z"/>
  <path id="path10550" fill="#0aa853" d="M 148.49 29.52 C 153.82 29.89 159.09 30.78 164.44 30.96 C 157.98 46.04 153.87 62.19 157.70 78.55 C 154.59 78.54 151.48 78.54 148.37 78.54 C 148.48 62.23 148.20 45.82 148.49 29.52 Z"/>
  <path id="path10552" fill="#0aa853" d="M 115.34 30.24 C 115.30 46.34 115.35 62.44 115.32 78.54 C 112.08 78.54 108.84 78.54 105.60 78.54 C 105.61 63.13 105.54 47.71 105.64 32.30 C 108.89 31.69 112.12 31.00 115.34 30.24 Z"/>
  <path id="path10554" fill="#ffffff" d="M 56.70 36.55 C 55.82 37.85 54.90 39.14 53.95 40.40 C 53.66 39.32 53.39 38.25 53.17 37.16 C 54.32 36.78 55.50 36.68 56.70 36.55 Z"/>
  <path id="path10556" fill="#ffffff" d="M 49.31 39.31 C 51.74 38.61 52.81 41.48 50.60 42.58 C 48.48 42.71 47.76 40.72 49.31 39.31 Z"/>
  <path id="path10558" fill="#ffffff" d="M 57.82 38.84 C 58.45 39.31 59.04 39.81 59.59 40.35 C 58.71 42.99 57.19 43.45 60.44 45.25 C 59.51 45.74 58.16 48.48 57.33 46.63 C 55.71 45.50 57.57 44.66 58.00 43.32 C 57.31 42.39 56.60 41.49 55.90 40.57 C 56.51 39.96 57.15 39.38 57.82 38.84 Z"/>
  <path id="path10560" fill="#ffffff" d="M 78.22 40.30 C 79.99 39.04 81.51 41.21 80.24 43.11 C 78.05 43.93 76.29 41.82 78.22 40.30 Z"/>
  <path id="path10562" fill="#ffffff" d="M 85.64 40.66 C 86.81 38.73 89.85 42.12 88.03 42.85 C 86.64 44.64 84.00 42.49 85.64 40.66 Z"/>
  <path id="path10564" fill="#ffffff" d="M 54.17 40.71 C 54.96 42.29 55.48 43.59 55.48 45.39 C 54.04 45.25 52.60 45.11 51.19 44.80 C 52.18 43.43 53.17 42.07 54.17 40.71 Z"/>
  <path id="path10566" fill="#ffffff" d="M 82.94 41.69 C 83.94 43.15 84.81 44.70 85.64 46.26 C 84.24 46.23 82.85 46.18 81.45 46.12 C 81.53 44.48 81.95 43.03 82.94 41.69 Z"/>
  <path id="path10568" fill="#ffffff" d="M 48.37 45.44 C 48.63 44.57 49.34 44.61 50.51 45.58 C 52.08 47.21 49.30 49.56 48.15 47.84 C 46.86 47.13 47.94 46.30 48.37 45.44 Z"/>
  <path id="path10570" fill="#d3d3d3" d="M 76.94 44.98 C 77.98 44.84 79.00 44.79 80.02 44.84 C 80.60 46.42 80.25 47.55 78.96 48.25 C 76.56 47.87 77.13 46.96 76.94 44.98 Z"/>
  <path id="path10572" fill="#ffffff" d="M 87.11 46.10 L 88.01 45.69 C 88.58 46.41 89.12 47.17 89.60 47.97 C 88.65 49.24 87.79 49.62 87.02 49.10 C 85.65 49.31 85.93 46.06 87.11 46.10 Z"/>
  <path id="path10574" fill="#ffffff" d="M 53.15 47.19 C 55.05 45.46 56.99 49.06 54.84 49.89 C 53.38 51.19 51.33 47.95 53.15 47.19 Z"/>
  <path id="path10576" fill="#ffffff" d="M 81.23 48.46 C 82.49 47.39 83.64 47.54 84.68 48.92 C 84.50 49.90 83.93 50.68 82.97 51.25 C 80.98 50.64 81.32 50.27 81.23 48.46 Z"/>
  <path id="path10578" fill="#ffffff" d="M 69.08 52.25 C 71.02 53.47 71.71 55.39 72.30 57.48 C 73.46 62.11 73.55 66.62 73.66 71.35 C 70.31 71.35 66.95 71.35 63.59 71.35 C 63.63 66.51 63.68 61.24 64.87 56.52 C 65.55 54.31 66.42 52.34 69.08 52.25 Z"/>
  <path id="path10580" fill="#ffffff" d="M 59.22 60.76 C 61.32 63.62 61.41 67.95 61.74 71.34 C 58.27 71.35 54.81 71.35 51.34 71.34 C 51.68 67.93 51.65 63.50 53.56 60.53 C 54.94 58.46 57.91 58.82 59.22 60.76 Z"/>
  <path id="path10582" fill="#ffffff" d="M 79.35 60.33 C 80.75 59.03 83.07 59.27 84.19 60.83 C 86.27 63.56 86.25 68.06 86.65 71.34 C 82.91 71.35 79.17 71.35 75.43 71.33 C 76.03 67.68 76.34 62.92 79.35 60.33 Z"/>
  <path id="path10584" fill="#ffffff" d="M 51.49 72.28 C 54.86 72.05 58.27 72.21 61.66 72.18 C 61.66 74.30 61.67 76.43 61.67 78.55 C 58.30 78.54 54.93 78.54 51.56 78.55 C 51.49 76.47 51.37 74.36 51.49 72.28 Z"/>
  <path id="path10586" fill="#ffffff" d="M 63.74 72.27 C 67.04 72.05 70.37 72.21 73.68 72.17 C 73.68 74.30 73.68 76.42 73.68 78.55 C 70.32 78.54 66.96 78.54 63.60 78.55 C 63.62 76.46 63.57 74.35 63.74 72.27 Z"/>
  <path id="path10588" fill="#ffffff" d="M 75.65 72.27 C 79.30 72.04 82.98 72.22 86.63 72.18 C 86.57 74.30 86.50 76.42 86.41 78.54 C 82.78 78.54 79.14 78.54 75.51 78.55 C 75.52 76.46 75.48 74.35 75.65 72.27 Z"/>
  <path id="path10590" fill="#0aa853" d="M 40.17 84.54 C 43.73 84.12 47.41 84.40 51.00 84.37 C 87.14 84.38 123.29 84.36 159.43 84.37 C 162.02 91.46 165.40 98.17 168.40 105.08 C 122.60 105.12 76.79 105.12 30.99 105.08 C 33.10 99.92 35.68 94.99 37.72 89.81 C 38.46 88.04 39.13 86.16 40.17 84.54 Z"/>
  <path id="path10592" fill="#ffffff" d="M 48.19 88.32 C 49.36 88.21 50.54 88.09 51.71 87.98 C 50.86 90.50 49.65 93.23 49.72 95.92 C 50.62 96.65 51.65 97.24 52.79 97.69 C 52.89 94.53 52.91 91.38 52.89 88.22 C 53.97 88.23 55.06 88.23 56.15 88.24 C 56.13 92.13 56.09 96.01 55.90 99.90 C 53.68 99.83 51.37 99.92 49.18 99.51 C 47.60 99.21 46.79 97.50 46.59 96.06 C 46.35 93.51 47.47 90.74 48.19 88.32 Z"/>
  <path id="path10594" fill="#ffffff" d="M 67.84 88.02 C 68.08 88.99 68.31 89.95 68.55 90.92 C 67.26 90.89 65.97 90.86 64.69 90.82 C 66.35 92.90 67.94 95.00 69.20 97.36 C 70.26 97.28 71.31 97.20 72.36 97.12 C 72.38 98.05 72.39 98.99 72.41 99.92 C 70.95 99.68 69.51 99.41 68.05 99.20 C 65.53 99.65 63.58 100.73 61.66 98.33 C 60.80 98.80 59.97 99.34 59.14 99.86 C 58.66 99.79 58.17 99.73 57.68 99.67 C 57.66 98.89 57.65 98.10 57.63 97.32 C 60.32 97.39 62.99 97.31 65.67 97.18 C 64.40 95.28 61.30 92.82 61.46 90.41 C 61.86 87.42 65.71 88.47 67.84 88.02 Z"/>
  <path id="path10596" fill="#ffffff" d="M 84.84 88.02 C 85.07 88.99 85.31 89.95 85.55 90.91 C 84.25 90.89 82.94 90.87 81.64 90.84 C 83.07 92.75 85.24 94.71 85.91 97.04 C 85.69 100.74 81.84 99.51 79.29 99.95 C 79.02 99.04 78.76 98.12 78.49 97.20 C 79.88 97.19 81.28 97.18 82.67 97.16 C 81.37 95.20 77.66 92.33 78.59 89.73 C 79.62 87.71 82.92 88.35 84.84 88.02 Z"/>
  <path id="path10598" fill="#ffffff" d="M 95.74 88.01 C 95.78 91.95 95.77 95.89 95.77 99.82 C 94.75 99.83 93.73 99.84 92.71 99.85 C 92.69 98.63 92.67 97.41 92.65 96.19 C 91.54 96.21 90.42 96.23 89.31 96.25 C 89.71 97.49 90.11 98.73 90.51 99.98 C 89.61 100.53 88.70 101.09 87.79 101.64 C 86.59 97.83 85.25 94.43 87.76 90.76 C 89.77 87.98 92.71 88.37 95.74 88.01 Z"/>
  <path id="path10600" fill="#ffffff" d="M 103.45 88.02 C 103.63 88.96 103.82 89.89 104.00 90.83 C 102.74 90.84 101.48 90.84 100.21 90.85 C 101.86 92.86 103.45 94.89 104.73 97.16 C 106.19 97.18 107.65 97.17 109.11 97.17 C 107.43 95.07 105.77 92.97 104.19 90.80 C 106.16 87.80 108.17 88.23 111.38 88.07 C 111.56 89.01 111.74 89.94 111.91 90.87 C 110.64 90.87 109.36 90.88 108.09 90.88 C 109.74 92.95 111.37 95.04 112.96 97.16 C 110.96 100.11 109.22 99.79 105.97 100.03 C 105.49 99.25 105.00 98.47 104.52 97.70 C 102.67 100.49 100.49 99.65 97.65 99.88 C 97.49 98.99 97.33 98.09 97.16 97.19 C 98.48 97.18 99.79 97.17 101.11 97.16 C 99.57 94.77 96.25 92.46 97.31 89.29 C 98.74 87.86 101.55 88.29 103.45 88.02 Z"/>
  <path id="path10602" fill="#ffffff" d="M 114.63 88.57 C 115.71 88.26 116.81 88.00 117.92 87.78 C 117.17 90.12 116.15 92.61 115.87 95.05 C 115.70 96.57 117.65 97.69 118.90 97.14 C 119.34 94.19 119.14 91.12 119.19 88.15 L 122.25 88.19 C 122.15 92.09 122.18 95.99 122.25 99.90 C 119.76 99.68 116.33 100.28 114.14 98.92 C 111.72 96.19 112.85 91.37 114.63 88.57 Z"/>
  <path id="path10604" fill="#ffffff" d="M 126.17 88.25 C 128.48 87.38 132.55 87.72 133.60 90.36 C 134.64 94.02 133.21 99.35 129.01 100.25 C 124.82 99.93 123.37 95.55 123.48 91.96 C 123.59 90.15 124.46 88.86 126.17 88.25 Z"/>
  <path id="path10606" fill="#ffffff" d="M 135.45 88.44 C 136.41 88.22 137.38 88.03 138.35 87.87 C 138.39 90.99 138.39 94.10 138.40 97.22 C 139.67 97.21 140.94 97.20 142.22 97.19 C 142.02 98.06 141.82 98.94 141.62 99.81 C 139.52 99.82 137.42 99.82 135.32 99.83 C 135.35 96.05 135.12 92.21 135.45 88.44 Z"/>
  <path id="path10608" fill="#ffffff" d="M 144.43 88.50 C 146.87 87.32 151.28 87.58 152.46 90.46 C 153.58 93.86 151.91 99.37 147.98 100.16 C 142.95 100.66 139.96 90.76 144.43 88.50 Z"/>
  <path id="path10610" fill="#0aa853" d="M 130.59 91.38 C 131.23 93.77 129.83 95.95 128.99 98.09 C 127.62 96.13 126.36 94.44 126.61 91.89 C 127.51 90.21 129.24 90.39 130.59 91.38 Z"/>
  <path id="path10612" fill="#0aa853" d="M 149.56 92.19 C 149.94 94.75 148.54 96.19 147.05 98.02 C 146.32 95.92 145.18 93.77 145.59 91.48 C 146.47 90.20 149.59 90.37 149.56 92.19 Z"/>
  <path id="path10614" fill="#0aa853" d="M 92.65 90.56 C 92.68 91.53 92.71 92.51 92.73 93.49 C 91.65 93.45 90.58 93.41 89.51 93.36 C 90.49 92.33 91.52 91.42 92.65 90.56 Z"/>
  <path id="path10616" fill="#0aa853" d="M 28.83 110.86 C 33.60 110.72 38.37 110.86 43.13 110.84 C 43.13 127.18 43.19 143.52 43.10 159.86 C 37.89 157.12 33.06 154.37 29.23 149.77 C 24.13 143.66 22.85 135.71 23.93 127.99 C 24.85 122.14 26.41 116.27 28.83 110.86 Z"/>
  <path id="path10618" fill="#0aa853" d="M 67.57 111.06 C 69.03 110.86 70.53 110.82 72.00 110.79 C 91.95 110.88 111.92 110.79 131.87 110.84 C 131.88 129.77 131.87 148.70 131.88 167.64 C 125.24 168.96 118.59 170.65 111.86 171.37 C 111.07 170.31 110.41 169.11 109.87 167.76 C 116.21 164.53 121.73 160.50 125.01 153.99 C 129.95 144.85 129.26 133.18 123.32 124.65 C 117.70 116.45 108.02 111.48 98.03 112.17 C 88.35 112.70 79.47 118.27 74.74 126.72 C 69.91 135.15 69.82 145.93 74.58 154.41 C 77.78 160.43 82.96 164.44 88.96 167.45 C 88.69 168.83 88.42 170.21 88.16 171.59 C 81.20 170.50 74.30 169.14 67.42 167.63 C 67.54 148.81 67.21 129.86 67.57 111.06 Z"/>
  <path id="path10620" fill="#0aa853" d="M 156.26 110.85 C 161.12 110.80 165.97 110.80 170.83 110.91 C 174.24 121.10 177.86 131.57 174.32 142.30 C 171.30 151.04 164.15 155.89 156.22 159.81 C 156.28 143.49 156.21 127.17 156.26 110.85 Z"/>
  <path id="path10622" fill="#ffffff" d="M 97.63 114.10 C 103.28 113.28 108.77 115.17 113.73 117.72 C 113.31 120.18 112.87 122.63 112.43 125.08 C 110.06 125.05 107.53 125.27 105.21 124.74 C 101.91 123.33 98.86 121.28 95.67 119.63 C 96.28 117.75 96.85 115.91 97.63 114.10 Z"/>
  <path id="path10624" fill="#ffffff" d="M 117.11 120.23 C 121.31 124.01 123.91 128.40 125.76 133.70 C 124.09 133.58 122.41 133.46 120.74 133.32 C 119.20 131.13 117.68 128.93 116.12 126.75 C 116.42 124.57 116.75 122.40 117.11 120.23 Z"/>
  <path id="path10626" fill="#ffffff" d="M 92.91 122.42 C 96.21 124.13 99.40 126.03 102.65 127.83 C 102.84 130.31 103.05 132.79 103.27 135.27 C 99.13 137.86 94.94 140.37 90.80 142.96 C 89.12 141.75 87.44 140.52 85.78 139.28 C 85.84 134.55 85.93 129.83 86.20 125.11 C 88.43 124.19 90.65 123.23 92.91 122.42 Z"/>
  <path id="path10628" fill="#ffffff" d="M 78.90 123.68 C 80.03 124.12 81.16 124.57 82.28 125.03 C 82.19 129.36 82.30 133.72 82.00 138.05 C 82.01 140.30 80.49 141.49 79.31 143.23 C 77.11 142.90 74.90 142.62 72.69 142.33 C 72.81 135.39 74.48 129.13 78.90 123.68 Z"/>
  <path id="path10630" fill="#ffffff" d="M 120.25 137.16 C 122.33 137.24 124.42 137.45 126.49 137.64 C 126.83 146.23 125.06 151.77 119.93 158.54 C 118.38 157.81 116.83 157.08 115.28 156.34 C 115.16 151.39 115.15 146.44 115.17 141.49 C 116.85 140.04 118.50 138.53 120.25 137.16 Z"/>
  <path id="path10632" fill="#ffffff" d="M 105.72 138.23 C 107.57 139.35 109.43 140.47 111.27 141.59 C 111.32 146.47 111.33 151.35 111.43 156.23 C 109.52 157.19 107.61 158.15 105.71 159.12 C 101.59 156.62 97.47 154.10 93.35 151.60 C 93.26 149.72 93.17 147.85 93.08 145.97 C 97.30 143.39 101.50 140.80 105.72 138.23 Z"/>
  <path id="path10634" fill="#ffffff" d="M 73.28 146.36 C 74.97 146.50 76.67 146.64 78.36 146.78 C 80.13 149.42 81.84 152.10 83.54 154.77 C 82.95 156.79 82.35 158.80 81.74 160.80 C 78.50 157.57 75.86 153.94 74.37 149.58 C 74.00 148.51 73.63 147.44 73.28 146.36 Z"/>
  <path id="path10636" fill="#ffffff" d="M 91.05 154.67 C 95.33 157.11 99.46 159.80 103.69 162.33 C 103.62 164.03 103.55 165.73 103.47 167.43 C 96.47 167.92 91.21 166.85 85.14 163.42 C 85.81 161.01 86.39 158.51 87.34 156.20 C 88.44 155.48 89.82 155.11 91.05 154.67 Z"/>
</svg>