<?xml version="1.0" encoding="utf-8"?>
<!-- Generator: Adobe Illustrator 25.0.0, SVG Export Plug-In . SVG Version: 6.00 Build 0)  -->
<svg version="1.1" id="Calque_1" xmlns="http://www.w3.org/2000/svg" xmlns:xlink="http://www.w3.org/1999/xlink" x="0px" y="0px"
	 width="200px" height="286.2px" viewBox="0 0 200 286.2" style="enable-background:new 0 0 200 286.2;" xml:space="preserve">
<style type="text/css">
	.st0{fill:#731013;}
</style>
<g>
	<g>
		<path class="st0" d="M78.2,54.2v58h-29v43.5h29v14.5h-58v43.5h58v29l43.5,43.5v-72.5h58v-43.5h-58v-14.5h29v-43.5h-29V97.7
			C107.2,83.2,92.8,68.7,78.2,54.2"/>
		<path class="st0" d="M8.1,7.8h16V0h-16H0v41.1h8.1V26h15.6v-7.8H8.1V7.8z M35.3,26.4c0-4.7,3.5-8.1,7.9-8.1c3.1,0,5.7,1.6,6.7,4.1
			h8c-1.4-6.7-7.4-11.5-14.7-11.5c-8.9,0-15.5,6.8-15.5,15.5S34.3,42,43.2,42c7.3,0,13.3-4.8,14.7-11.6h-8c-1,2.5-3.6,4.1-6.7,4.1
			C38.8,34.4,35.3,31.1,35.3,26.4 M109.7,41.1h8.1V0h-9.2L97.7,25.2L86.8,0h-1.1h-8.1v41.1h8.1V13.5l9.1,21.1h5.9l9.1-21.1V41.1z
			 M146.2,23.6h-14.8c0.9-3.7,3.7-5.9,7.7-5.9C142.3,17.7,145.3,19.4,146.2,23.6 M153.5,29.6c0.2-1,0.3-2,0.3-3.1
			c0-8.6-6-15.5-14.6-15.5c-9.3,0-15.6,6.8-15.6,15.5S129.8,42,139.3,42c6.6,0,11.7-3.4,13.6-9.3l-7.5,0.1c-1,1.7-3.4,2.9-6.1,2.9
			c-3.8,0-6.9-1.9-7.9-6.1L153.5,29.6L153.5,29.6z M200,34h-13l12.5-17.2v-5h-30.6V2.3h-7.6v9.4h-5.1V19h5.1v22.1h7.6V18.9h20.3
			l-12.4,17.2v5H200V34z"/>
	</g>
</g>
</svg>
