<?xml version="1.0" encoding="UTF-8" standalone="no"?>
<svg xmlns:dc="http://purl.org/dc/elements/1.1/" xmlns:cc="http://creativecommons.org/ns#" xmlns:rdf="http://www.w3.org/1999/02/22-rdf-syntax-ns#" xmlns:svg="http://www.w3.org/2000/svg" xmlns="http://www.w3.org/2000/svg" xmlns:sodipodi="http://sodipodi.sourceforge.net/DTD/sodipodi-0.dtd" xmlns:inkscape="http://www.inkscape.org/namespaces/inkscape" inkscape:version="1.0 (4035a4f, 2020-05-01)" sodipodi:docname="558.svg" id="svg18728" height="200.0pt" width="200.0pt" viewBox="0 0 200 200" version="1.1">
  <metadata id="metadata18734">
    <rdf:RDF>
      <cc:Work rdf:about="">
        <dc:format>image/svg+xml</dc:format>
        <dc:type rdf:resource="http://purl.org/dc/dcmitype/StillImage"/>
      </cc:Work>
    </rdf:RDF>
  </metadata>
  <defs id="defs18732"/>
  <sodipodi:namedview inkscape:current-layer="svg18728" inkscape:cy="133.33333" inkscape:cx="133.33333" inkscape:zoom="1.75125" showgrid="false" id="namedview18730" inkscape:window-height="480" inkscape:window-width="640" inkscape:pageshadow="2" inkscape:pageopacity="0" guidetolerance="10" gridtolerance="10" objecttolerance="10" borderopacity="1" bordercolor="#666666" pagecolor="#ffffff"/>
  <path style="fill:#ffffff;fill-opacity:0" id="path18680" fill="#ffffff" d="M 0.00 0.00 L 200.00 0.00 L 200.00 200.00 L 0.00 200.00 L 0.00 0.00 Z"/>
  <path id="path18682" fill="#e5254e" d="M 99.94 0.04 C 104.93 6.53 111.19 11.39 117.02 16.98 C 120.69 20.51 119.85 25.39 117.29 29.28 C 115.56 31.97 110.77 33.07 108.61 30.37 C 106.95 28.01 110.74 25.00 108.90 23.08 C 107.96 22.61 107.05 22.64 106.17 23.16 C 105.00 25.42 105.05 28.36 104.79 30.86 C 103.46 31.21 102.30 31.84 101.06 32.43 C 98.59 32.95 97.37 31.27 95.08 30.92 C 94.74 28.86 95.27 22.50 92.01 22.69 C 88.21 23.83 92.45 27.23 91.67 29.64 C 90.56 32.52 86.38 32.34 84.18 30.88 C 81.58 28.91 80.35 25.14 80.42 21.98 C 80.52 19.05 82.92 16.77 84.94 14.92 C 89.54 10.96 94.23 6.81 98.18 2.18 C 98.77 1.48 99.36 0.76 99.94 0.04 Z"/>
  <path id="path18684" fill="#ab9455" d="M 108.09 32.88 C 109.07 33.91 110.59 35.14 110.67 36.64 C 112.01 37.26 113.12 36.69 114.45 36.78 C 115.42 37.28 116.64 37.90 117.18 38.87 C 119.84 42.07 117.21 47.13 115.14 49.90 L 114.43 48.90 C 114.85 47.90 115.03 46.92 114.97 45.94 C 113.76 46.82 113.59 48.41 111.81 48.13 C 111.63 47.16 111.94 46.07 112.72 44.85 C 112.53 43.84 112.26 42.84 111.90 41.85 C 114.04 41.52 115.40 44.87 117.17 45.29 C 117.99 42.10 116.71 39.01 113.86 37.38 C 112.67 37.63 111.48 37.88 110.29 38.12 C 111.22 40.46 109.10 42.16 107.45 43.43 C 107.29 44.31 107.19 45.20 107.14 46.10 C 105.62 46.10 104.72 45.04 105.73 43.72 C 106.40 42.44 105.89 41.92 104.22 42.14 C 104.15 43.14 104.11 44.14 104.10 45.15 L 102.54 45.34 C 102.90 43.92 103.06 42.50 103.03 41.07 C 102.40 41.34 101.77 41.60 101.14 41.85 C 102.28 39.43 100.13 37.62 100.98 34.87 C 101.41 35.90 101.81 36.95 102.19 38.00 C 102.97 38.31 103.79 38.54 104.64 38.69 C 106.19 38.97 107.58 39.52 109.02 40.11 C 110.79 37.18 108.30 32.30 104.72 33.32 C 103.49 33.57 102.27 33.83 101.04 34.11 L 101.09 33.17 C 103.53 32.57 105.63 31.95 108.09 32.88 Z"/>
  <path id="path18686" fill="#ab9455" d="M 93.17 32.82 C 91.09 35.04 89.24 36.83 90.89 40.10 C 92.23 39.60 93.57 39.10 94.94 38.68 C 95.83 37.09 95.12 34.45 94.82 32.72 C 96.01 32.40 97.34 32.55 98.81 33.15 C 100.49 35.86 97.66 39.50 98.83 41.81 C 98.21 41.58 97.59 41.34 96.97 41.09 C 96.94 42.50 97.11 43.91 97.49 45.31 L 95.91 45.19 C 95.88 44.17 95.82 43.16 95.75 42.16 C 91.41 41.56 97.21 45.87 92.91 46.09 C 92.87 44.78 92.55 43.63 91.94 42.64 C 91.38 43.11 90.79 43.54 90.18 43.93 L 90.71 42.00 C 89.33 39.96 88.55 37.87 89.51 35.45 C 90.55 34.46 91.50 32.35 93.17 32.82 Z"/>
  <path id="path18688" fill="#ffffff" d="M 109.02 40.11 C 107.58 39.52 106.19 38.97 104.64 38.69 C 104.53 36.90 104.62 35.11 104.72 33.32 C 108.30 32.30 110.79 37.18 109.02 40.11 Z"/>
  <path id="path18690" fill="#e5254e" d="M 95.67 33.66 C 97.25 33.25 98.22 33.67 98.58 34.92 C 98.46 36.72 97.92 37.96 96.97 38.64 C 94.69 38.35 95.24 35.19 95.67 33.66 Z"/>
  <path id="path18692" fill="#e5254e" d="M 101.04 34.11 C 102.27 33.83 103.49 33.57 104.72 33.32 C 104.62 35.11 104.53 36.90 104.64 38.69 C 103.79 38.54 102.97 38.31 102.19 38.00 C 101.81 36.95 101.41 35.90 100.98 34.87 L 101.04 34.11 Z"/>
  <path id="path18694" fill="#ab9455" d="M 87.06 36.79 C 86.63 38.31 84.86 37.78 84.06 39.04 C 82.36 40.94 82.66 42.89 82.83 45.25 C 84.58 44.79 85.94 41.44 88.12 41.84 C 86.57 44.79 87.65 45.23 88.41 48.02 C 86.45 48.54 86.31 46.93 85.03 45.98 C 85.02 46.95 85.20 47.92 85.54 48.89 L 84.85 49.93 C 82.49 47.13 81.79 43.72 82.12 40.09 C 83.15 37.74 84.59 37.06 87.06 36.79 Z"/>
  <path id="path18696" fill="#e5254e" d="M 64.03 42.69 C 68.28 43.27 71.33 47.29 72.88 51.00 C 70.36 50.57 65.75 48.22 64.03 51.09 C 62.31 55.58 67.62 58.89 71.53 58.84 C 71.69 61.49 71.92 64.14 72.05 66.79 C 69.15 66.54 65.97 67.88 64.39 70.38 C 63.11 72.30 63.47 75.33 66.08 75.81 C 68.24 75.91 70.48 75.09 72.57 74.59 C 71.40 79.33 65.81 84.60 60.50 82.36 C 55.27 80.29 54.11 73.01 58.38 69.37 C 59.12 68.56 61.86 67.70 60.87 66.34 C 58.93 66.29 57.00 66.22 55.07 66.18 C 53.75 67.42 53.04 68.73 51.00 68.77 C 47.34 68.34 47.15 64.63 43.61 62.84 C 46.34 61.28 47.26 58.15 50.04 56.90 C 52.47 56.24 53.46 57.75 55.00 59.21 C 57.06 59.20 59.14 59.13 61.20 59.01 L 60.97 58.10 C 58.37 56.18 56.02 54.58 55.81 51.02 C 55.32 46.26 59.25 42.22 64.03 42.69 Z"/>
  <path id="path18698" fill="#ab9455" d="M 109.11 43.13 L 109.86 43.09 L 109.89 43.84 L 109.14 43.88 L 109.11 43.13 Z"/>
  <path id="path18700" fill="#e5254e" d="M 138.95 43.04 C 144.06 44.64 145.87 51.30 142.33 55.32 C 141.38 56.66 138.88 57.35 138.66 58.99 C 140.76 59.14 142.87 59.23 144.97 59.18 C 146.50 57.68 147.51 56.20 149.95 56.93 C 152.66 58.32 153.60 61.27 156.30 62.86 C 152.72 64.63 152.69 68.16 148.90 68.79 C 146.92 68.73 146.16 67.45 144.91 66.19 C 143.39 66.54 139.32 65.59 138.68 67.03 C 139.84 68.61 141.92 69.20 142.94 71.04 C 144.99 74.06 144.42 78.31 141.79 80.79 C 139.58 83.03 135.80 83.49 133.08 81.95 C 130.30 80.35 128.42 77.59 127.02 74.77 C 129.95 74.60 134.29 77.76 136.09 73.97 C 137.12 69.51 131.79 66.40 127.91 66.76 C 127.82 64.17 128.17 61.42 128.38 58.82 C 132.15 58.99 137.65 55.45 135.88 51.15 C 134.22 48.10 129.57 50.71 127.08 50.90 C 128.84 46.35 133.55 41.17 138.95 43.04 Z"/>
  <path id="path18702" fill="#ab9455" d="M 98.06 44.11 L 98.89 44.05 L 98.98 44.88 L 98.13 44.94 L 98.06 44.11 Z"/>
  <path id="path18704" fill="#ab9455" d="M 101.03 44.12 L 101.86 44.05 L 101.93 44.88 L 101.10 44.94 L 101.03 44.12 Z"/>
  <path id="path18706" fill="#ab9455" d="M 91.08 45.17 L 91.85 45.11 L 91.92 45.89 L 91.14 45.95 L 91.08 45.17 Z"/>
  <path id="path18708" fill="#ab9455" d="M 108.06 45.18 L 108.84 45.11 L 108.91 45.88 L 108.14 45.95 L 108.06 45.18 Z"/>
  <path id="path18710" fill="#ab9455" d="M 97.84 46.71 C 98.56 46.28 99.27 45.84 99.97 45.39 C 100.70 45.84 101.43 46.28 102.17 46.70 C 103.01 46.40 103.85 46.17 104.70 46.01 C 106.58 47.25 106.78 47.79 109.07 46.75 C 109.79 47.37 110.51 48.02 111.21 48.71 C 113.02 49.05 114.96 48.82 114.58 51.42 C 113.68 51.57 112.80 51.77 111.94 52.02 C 112.29 52.79 112.70 53.54 113.18 54.25 C 112.52 56.18 108.65 53.36 107.19 53.32 C 102.96 52.09 97.03 52.08 92.81 53.35 C 91.24 53.43 87.80 56.07 86.84 54.32 C 87.35 53.61 87.76 52.86 88.07 52.06 C 87.26 51.78 86.43 51.56 85.58 51.41 C 84.30 48.01 88.73 49.71 89.76 47.81 C 91.14 45.91 92.35 48.17 93.89 46.88 C 95.55 45.52 96.06 46.20 97.84 46.71 Z"/>
  <path id="path18712" fill="#ffffff" d="M 99.99 47.53 C 101.09 48.09 101.94 48.72 102.78 49.62 C 101.85 50.15 100.90 50.66 99.94 51.15 C 99.04 50.73 98.16 50.26 97.30 49.76 L 97.32 49.21 C 98.15 48.51 99.04 47.95 99.99 47.53 Z"/>
  <path id="path18714" fill="#ffffff" d="M 94.84 49.17 C 96.08 52.03 92.02 52.02 90.26 52.69 C 90.06 51.85 90.01 51.02 90.09 50.21 C 91.56 49.80 93.33 48.78 94.84 49.17 Z"/>
  <path id="path18716" fill="#ffffff" d="M 105.14 49.10 C 106.70 48.88 108.37 49.82 109.85 50.24 C 110.14 51.37 109.89 52.19 109.10 52.68 C 107.51 51.85 103.64 51.91 105.14 49.10 Z"/>
  <path id="path18718" fill="#8cbbe7" d="M 92.81 53.35 C 97.33 53.83 102.69 53.88 107.19 53.32 C 108.65 53.36 112.52 56.18 113.18 54.25 C 115.45 53.07 118.48 53.74 121.00 53.57 C 122.83 53.73 125.19 53.17 126.84 53.99 C 127.60 68.27 123.90 83.07 116.18 95.14 C 112.29 101.31 106.57 106.00 99.97 109.02 C 92.96 105.83 86.90 100.71 82.95 94.03 C 75.85 82.59 72.15 67.34 73.10 53.95 C 75.15 53.17 77.80 53.74 80.00 53.57 C 82.23 53.72 84.92 53.09 86.84 54.32 C 87.80 56.07 91.24 53.43 92.81 53.35 Z"/>
  <path id="path18720" fill="#ffffff" d="M 92.81 53.35 C 97.03 52.08 102.96 52.09 107.19 53.32 C 102.69 53.88 97.33 53.83 92.81 53.35 Z"/>
  <path id="path18722" fill="#ffffff" d="M 79.01 59.96 C 90.72 59.37 103.17 59.90 115.00 59.70 C 116.45 59.81 118.44 59.39 119.69 60.22 C 119.73 61.06 119.73 61.92 119.71 62.78 C 117.82 63.26 115.97 63.11 114.00 63.13 C 103.62 63.11 93.25 63.13 82.87 63.11 L 82.44 63.96 C 83.31 74.66 87.25 85.58 94.14 93.89 C 96.21 96.55 99.13 98.42 101.25 100.98 C 100.64 101.96 99.89 102.68 98.99 103.13 C 90.64 97.04 84.85 86.98 81.66 77.29 C 80.01 71.83 78.58 65.66 79.01 59.96 Z"/>
  <path id="path18724" fill="#ffffff" d="M 88.24 67.40 C 98.68 67.51 109.16 67.40 119.61 67.46 C 119.69 68.55 119.72 69.65 119.69 70.76 C 110.60 71.55 101.22 70.76 92.07 71.15 C 93.03 76.61 95.30 82.10 98.18 86.82 C 100.39 90.44 103.70 92.45 106.76 95.17 C 106.62 95.92 106.01 96.60 104.94 97.18 C 95.85 92.33 91.49 82.66 88.75 73.20 C 88.43 71.41 87.34 69.08 88.24 67.40 Z"/>
  <path id="path18726" fill="#e5254e" d="M 94.24 107.40 C 96.13 108.48 97.99 109.77 99.96 110.68 C 101.95 109.67 103.82 108.48 105.72 107.31 C 107.39 111.70 110.70 113.91 114.87 115.66 C 109.90 143.23 105.02 170.90 100.26 198.50 L 99.53 198.76 C 98.50 190.47 96.71 182.25 95.39 174.00 C 91.90 154.72 88.67 135.36 85.08 116.10 L 85.24 115.37 C 89.73 113.85 92.17 111.66 94.24 107.40 Z"/>
</svg>