<?xml version="1.0" encoding="UTF-8" standalone="no"?>
<!DOCTYPE svg PUBLIC "-//W3C//DTD SVG 1.1//EN" "http://www.w3.org/Graphics/SVG/1.1/DTD/svg11.dtd">
<svg xmlns="http://www.w3.org/2000/svg" version="1.1" viewBox="0 0 200 200" width="200.0pt" height="200.0pt">
<path d="M 0.00 0.00 L 96.39 0.00 C 91.79 1.27 88.19 2.63 87.03 7.71 C 89.12 7.62 91.20 7.50 93.28 7.38 C 93.87 8.61 95.74 10.20 94.82 11.61 C 93.20 14.32 89.43 17.68 86.09 15.98 C 82.97 14.25 80.55 10.42 77.17 8.93 C 74.66 7.87 71.69 7.61 69.00 7.29 C 58.38 6.24 47.66 6.00 36.99 6.37 C 31.84 6.94 27.02 6.49 24.20 11.67 C 21.10 12.36 17.43 12.96 14.75 14.74 C 13.53 15.53 13.10 17.47 12.53 18.73 C 11.65 19.24 10.76 19.76 9.89 20.29 C 11.42 21.78 12.93 23.53 15.00 24.24 C 16.64 24.61 18.46 24.19 20.12 24.09 C 23.24 26.48 25.03 26.85 28.96 26.73 C 32.70 29.69 36.96 30.17 41.59 29.88 C 44.92 32.03 47.92 32.67 51.84 32.81 C 55.02 34.68 56.81 35.27 60.57 34.88 C 65.64 36.63 70.56 35.44 75.93 36.14 C 79.54 38.01 84.16 35.55 88.19 35.89 C 87.22 36.65 86.24 37.41 85.25 38.15 L 88.51 39.50 C 87.68 40.20 86.85 40.89 86.01 41.58 C 86.83 41.97 87.66 42.37 88.48 42.76 C 87.58 43.53 86.68 44.29 85.78 45.05 L 88.32 46.14 C 86.97 46.75 85.63 47.37 84.30 48.01 C 85.68 48.54 87.05 49.11 88.40 49.71 L 85.35 49.86 C 85.48 50.57 85.60 51.28 85.73 51.99 C 87.16 52.12 88.60 52.25 90.03 52.39 L 89.99 52.83 C 88.37 53.44 86.76 54.08 85.15 54.71 C 85.13 52.66 85.07 50.62 84.75 48.59 C 83.49 51.76 84.29 54.90 80.74 56.41 L 79.62 56.58 C 80.55 50.28 83.55 45.18 85.68 39.32 C 81.52 44.40 79.45 50.75 77.54 56.93 C 64.16 59.47 51.24 64.53 39.36 71.13 C 36.34 93.88 38.85 117.13 47.60 138.41 C 58.30 164.35 77.74 185.66 101.74 200.00 L 0.00 200.00 L 0.00 0.00 Z" fill="none"/>
<path d="M 96.39 0.00 L 100.95 0.00 C 104.09 1.41 106.37 3.76 109.17 5.69 C 108.63 6.29 108.10 6.90 107.56 7.50 L 109.86 8.96 L 109.10 10.14 C 109.75 11.34 110.37 12.57 110.95 13.82 L 112.29 14.16 L 111.21 16.43 C 117.42 16.36 118.67 11.14 123.83 8.91 C 127.24 7.46 131.35 7.33 135.01 7.04 C 146.22 6.46 157.84 5.62 169.01 7.06 C 172.45 7.50 174.05 8.84 175.97 11.61 C 179.17 12.44 183.11 13.18 185.74 15.26 C 186.53 16.25 186.97 17.59 187.46 18.75 C 188.40 19.21 189.34 19.67 190.28 20.14 C 188.97 21.46 187.64 23.16 185.89 23.89 C 183.93 24.69 182.18 24.09 180.16 23.87 C 176.88 26.39 175.46 26.98 171.20 26.63 C 167.47 29.67 163.34 30.19 158.67 29.97 C 155.40 32.07 152.02 32.30 148.33 33.01 C 145.23 34.38 143.06 35.42 139.53 34.82 C 134.96 36.62 130.70 35.44 125.97 36.06 C 124.00 36.18 122.03 37.01 120.07 36.84 C 117.62 36.55 115.18 36.13 112.72 35.90 C 113.69 36.63 114.66 37.35 115.63 38.08 C 114.36 38.75 113.10 39.43 111.84 40.12 C 113.26 40.38 114.67 40.60 116.11 40.70 C 119.18 45.56 121.29 50.87 122.87 56.38 L 121.68 56.43 C 119.08 56.82 116.73 56.42 114.20 55.85 C 114.55 56.33 114.89 56.81 115.24 57.30 C 131.96 58.88 147.88 64.36 162.58 72.37 C 164.88 92.10 163.33 112.05 156.86 130.89 C 147.22 159.03 127.21 182.45 101.86 197.77 C 79.26 184.12 60.84 164.02 50.28 139.74 C 41.17 118.73 38.17 94.95 41.16 72.30 C 51.00 67.08 61.18 62.76 72.04 60.14 C 76.00 59.16 80.03 58.51 83.99 57.48 C 82.91 57.10 81.83 56.74 80.74 56.41 C 84.29 54.90 83.49 51.76 84.75 48.59 C 85.07 50.62 85.13 52.66 85.15 54.71 C 86.76 54.08 88.37 53.44 89.99 52.83 L 90.03 52.39 C 88.60 52.25 87.16 52.12 85.73 51.99 C 85.60 51.28 85.48 50.57 85.35 49.86 L 88.40 49.71 C 87.05 49.11 85.68 48.54 84.30 48.01 C 85.63 47.37 86.97 46.75 88.32 46.14 L 85.78 45.05 C 86.68 44.29 87.58 43.53 88.48 42.76 C 87.66 42.37 86.83 41.97 86.01 41.58 C 86.85 40.89 87.68 40.20 88.51 39.50 L 85.25 38.15 C 86.24 37.41 87.22 36.65 88.19 35.89 C 84.16 35.55 79.54 38.01 75.93 36.14 C 70.56 35.44 65.64 36.63 60.57 34.88 C 56.81 35.27 55.02 34.68 51.84 32.81 C 47.92 32.67 44.92 32.03 41.59 29.88 C 36.96 30.17 32.70 29.69 28.96 26.73 C 25.03 26.85 23.24 26.48 20.12 24.09 C 18.46 24.19 16.64 24.61 15.00 24.24 C 12.93 23.53 11.42 21.78 9.89 20.29 C 10.76 19.76 11.65 19.24 12.53 18.73 C 13.10 17.47 13.53 15.53 14.75 14.74 C 17.43 12.96 21.10 12.36 24.20 11.67 C 27.02 6.49 31.84 6.94 36.99 6.37 C 47.66 6.00 58.38 6.24 69.00 7.29 C 71.69 7.61 74.66 7.87 77.17 8.93 C 80.55 10.42 82.97 14.25 86.09 15.98 C 89.43 17.68 93.20 14.32 94.82 11.61 C 95.74 10.20 93.87 8.61 93.28 7.38 C 91.20 7.50 89.12 7.62 87.03 7.71 C 88.19 2.63 91.79 1.27 96.39 0.00 Z" fill="#000000"/>
<path d="M 100.95 0.00 L 200.00 0.00 L 200.00 200.00 L 101.84 200.00 C 124.00 186.93 142.30 167.69 153.42 144.41 C 164.25 121.88 167.75 95.73 164.27 71.04 C 151.51 64.08 137.29 58.55 122.87 56.38 C 121.29 50.87 119.18 45.56 116.11 40.70 C 114.67 40.60 113.26 40.38 111.84 40.12 C 113.10 39.43 114.36 38.75 115.63 38.08 C 114.66 37.35 113.69 36.63 112.72 35.90 C 115.18 36.13 117.62 36.55 120.07 36.84 C 122.03 37.01 124.00 36.18 125.97 36.06 C 130.70 35.44 134.96 36.62 139.53 34.82 C 143.06 35.42 145.23 34.38 148.33 33.01 C 152.02 32.30 155.40 32.07 158.67 29.97 C 163.34 30.19 167.47 29.67 171.20 26.63 C 175.46 26.98 176.88 26.39 180.16 23.87 C 182.18 24.09 183.93 24.69 185.89 23.89 C 187.64 23.16 188.97 21.46 190.28 20.14 C 189.34 19.67 188.40 19.21 187.46 18.75 C 186.97 17.59 186.53 16.25 185.74 15.26 C 183.11 13.18 179.17 12.44 175.97 11.61 C 174.05 8.84 172.45 7.50 169.01 7.06 C 157.84 5.62 146.22 6.46 135.01 7.04 C 131.35 7.33 127.24 7.46 123.83 8.91 C 118.67 11.14 117.42 16.36 111.21 16.43 L 112.29 14.16 L 110.95 13.82 C 110.37 12.57 109.75 11.34 109.10 10.14 L 109.86 8.96 L 107.56 7.50 C 108.10 6.90 108.63 6.29 109.17 5.69 C 106.37 3.76 104.09 1.41 100.95 0.00 Z" fill="none"/>
<path d="M 96.08 0.85 C 97.89 0.82 99.69 0.78 101.49 0.74 C 100.66 3.04 100.23 2.89 102.19 4.89 L 101.13 2.42 C 101.79 2.27 102.44 2.12 103.09 1.97 C 103.76 3.51 104.40 5.06 105.07 6.59 C 105.52 7.58 105.99 8.57 106.48 9.55 C 107.02 10.89 107.64 12.18 108.29 13.47 C 108.75 16.26 110.74 17.30 112.77 18.91 C 119.17 15.99 121.38 9.56 127.94 8.90 C 137.82 7.29 148.37 8.23 158.39 7.96 C 158.52 8.48 158.64 9.00 158.77 9.52 C 156.01 9.45 153.29 9.50 150.57 9.98 C 155.19 10.45 159.78 10.99 164.36 11.73 C 163.16 9.71 160.94 10.01 159.24 8.42 C 162.57 8.41 165.66 8.63 168.78 9.81 C 167.62 10.16 166.47 10.52 165.31 10.88 C 165.22 11.24 165.14 11.60 165.06 11.96 C 169.56 12.83 174.03 13.86 178.47 14.98 C 179.55 16.57 180.71 18.06 181.96 19.51 C 180.98 19.90 180.00 20.28 179.01 20.66 C 171.11 17.99 163.11 15.52 154.99 13.62 C 161.26 17.21 167.94 19.66 174.70 22.14 C 172.17 22.98 169.83 23.39 167.22 22.51 C 161.01 20.62 155.24 17.40 149.08 15.29 C 153.43 19.04 158.41 21.67 163.70 23.82 C 161.26 24.17 158.75 24.87 156.28 24.84 C 150.76 22.42 146.18 18.30 140.49 16.10 C 144.64 21.16 149.88 24.74 155.47 28.02 C 153.15 28.26 150.70 28.76 148.38 28.52 C 143.25 26.27 138.52 23.10 133.43 20.73 C 136.17 24.66 139.72 27.52 143.70 30.09 C 142.30 30.35 140.90 30.61 139.50 30.86 C 135.62 28.41 132.28 25.31 128.59 22.62 C 130.25 26.12 132.62 28.94 135.29 31.72 L 131.90 31.39 C 128.46 29.00 126.36 24.37 123.77 21.11 C 124.62 24.85 125.95 28.39 127.47 31.90 C 126.06 31.67 124.67 31.38 123.30 31.03 C 121.46 28.67 120.46 25.67 118.94 23.08 C 119.19 26.79 120.03 30.23 121.20 33.74 C 119.90 32.81 118.06 32.10 117.47 30.53 C 116.75 28.05 116.84 25.31 116.50 22.75 C 115.55 26.05 115.08 29.41 114.78 32.82 C 114.36 32.59 113.94 32.37 113.52 32.14 C 113.75 28.18 113.21 25.12 111.81 21.44 C 112.18 26.07 112.32 29.88 109.76 33.96 C 110.21 34.66 110.67 35.36 111.12 36.06 L 109.37 36.07 C 109.73 37.69 110.07 39.30 110.29 40.95 C 110.58 41.55 110.88 42.14 111.18 42.74 L 109.52 43.53 C 110.40 44.92 111.27 46.32 112.13 47.72 C 109.87 47.67 106.75 48.99 105.63 46.25 C 104.65 43.48 104.42 40.46 103.63 37.62 C 102.98 41.57 102.54 46.06 104.24 49.81 C 105.23 51.12 107.12 51.79 108.49 52.65 C 106.29 53.23 104.12 53.92 101.92 54.55 C 99.92 54.58 97.92 54.57 95.92 54.36 C 94.79 53.80 93.66 53.24 92.52 52.70 C 94.26 51.59 97.06 50.84 97.56 48.61 C 98.57 44.73 98.08 40.32 97.73 36.36 C 96.85 39.50 96.82 43.30 95.20 46.15 C 93.66 48.58 91.28 47.71 88.83 47.94 C 89.57 46.61 90.33 45.28 91.10 43.97 C 90.66 43.78 90.22 43.60 89.78 43.42 C 90.48 41.14 90.97 38.81 91.52 36.50 L 90.51 36.61 C 90.74 34.48 90.52 33.10 89.68 31.16 C 88.26 27.80 88.96 24.73 89.15 21.25 C 88.42 23.05 87.43 25.04 87.31 26.98 C 86.97 29.70 88.06 31.60 85.45 33.46 C 84.91 29.19 84.37 25.01 82.90 20.95 C 82.89 24.07 83.36 27.54 82.51 30.55 C 82.02 32.42 80.31 32.64 78.85 33.60 C 79.88 30.20 80.72 26.81 81.14 23.27 C 78.82 26.68 77.62 29.92 73.25 31.18 C 74.38 28.35 75.48 25.51 76.29 22.57 C 72.75 26.42 70.62 30.44 64.93 31.24 C 67.09 28.17 69.24 25.15 70.70 21.66 C 66.31 24.92 62.88 30.42 56.82 30.20 C 60.27 27.21 63.83 24.53 66.53 20.78 C 62.07 22.80 57.98 25.48 53.63 27.69 C 50.84 29.41 47.65 28.17 44.57 28.00 C 50.03 24.68 55.25 21.25 59.41 16.31 C 53.65 18.29 49.25 22.58 43.72 24.86 C 41.29 24.86 38.81 24.14 36.41 23.79 C 41.49 21.46 46.38 19.23 50.60 15.46 C 44.23 17.56 38.24 20.98 31.80 22.80 C 29.57 23.51 27.64 22.61 25.50 22.03 C 32.08 19.48 39.32 17.21 45.35 13.60 C 36.35 15.06 27.56 19.11 18.47 19.58 C 19.49 18.04 20.52 16.51 21.50 14.94 C 30.75 12.78 40.07 11.25 49.50 10.05 C 43.68 9.10 37.93 10.03 31.90 10.49 C 32.22 9.95 32.54 9.42 32.86 8.89 C 37.91 8.43 42.93 7.92 48.00 7.94 C 56.76 7.87 66.14 7.56 74.75 9.32 C 79.66 10.50 82.60 16.52 86.98 18.05 C 90.97 17.82 95.76 14.14 96.24 10.04 C 94.25 7.79 91.59 6.18 89.42 4.09 C 91.58 2.84 93.77 1.79 96.08 0.85 Z" fill="#ffffff"/>
<path d="M 93.84 3.14 C 95.85 3.24 97.61 2.54 99.20 4.07 C 98.82 4.75 98.39 5.40 97.93 6.01 C 95.65 6.35 95.19 4.51 93.84 3.14 Z" fill="#000000"/>
<path d="M 100.88 6.20 C 102.32 5.32 103.40 7.84 101.57 7.99 C 100.60 7.64 100.37 7.05 100.88 6.20 Z" fill="#000000"/>
<path d="M 99.02 8.35 C 99.70 9.33 99.50 10.01 98.40 10.38 C 96.45 9.97 96.98 7.20 99.02 8.35 Z" fill="#000000"/>
<path d="M 102.71 9.81 C 103.50 10.28 103.80 10.99 103.61 11.94 C 102.22 12.23 100.79 10.00 102.71 9.81 Z" fill="#000000"/>
<path d="M 100.75 12.20 C 101.65 12.91 102.84 15.16 101.00 15.46 C 99.30 15.02 99.57 13.07 100.75 12.20 Z" fill="#000000"/>
<path d="M 104.86 13.17 C 106.34 13.09 107.30 14.91 106.48 16.11 C 104.83 16.98 104.43 14.24 104.86 13.17 Z" fill="#000000"/>
<path d="M 97.68 13.62 C 97.75 16.39 97.94 17.76 95.81 19.77 C 95.43 17.20 96.27 15.66 97.68 13.62 Z" fill="#000000"/>
<path d="M 104.02 16.67 C 104.79 18.17 106.33 19.71 105.90 21.48 C 102.83 22.69 104.49 18.31 104.02 16.67 Z" fill="#000000"/>
<path d="M 100.65 17.99 C 101.41 19.55 102.03 21.14 102.19 22.89 C 101.41 23.53 100.62 24.15 99.80 24.74 C 99.72 22.36 100.00 20.28 100.65 17.99 Z" fill="#000000"/>
<path d="M 93.05 20.69 C 93.05 22.36 93.08 23.99 92.90 25.66 L 90.88 25.58 C 91.08 23.68 92.09 22.27 93.05 20.69 Z" fill="#000000"/>
<path d="M 96.32 22.51 C 97.01 23.95 97.65 25.41 98.27 26.88 C 97.47 27.12 96.66 27.37 95.86 27.61 C 95.99 25.91 96.15 24.21 96.32 22.51 Z" fill="#000000"/>
<path d="M 107.50 21.95 C 108.05 24.94 109.58 25.81 106.73 27.97 C 106.50 25.75 106.79 24.06 107.50 21.95 Z" fill="#000000"/>
<path d="M 103.37 25.65 C 104.34 26.58 104.53 27.64 103.94 28.85 C 101.71 30.19 102.12 26.46 103.37 25.65 Z" fill="#000000"/>
<path d="M 99.78 29.18 C 100.67 29.89 101.78 32.16 99.94 32.40 C 98.22 31.92 98.54 30.03 99.78 29.18 Z" fill="#000000"/>
<path d="M 85.68 39.32 C 83.55 45.18 80.55 50.28 79.62 56.58 C 78.93 56.69 78.23 56.81 77.54 56.93 C 79.45 50.75 81.52 44.40 85.68 39.32 Z" fill="#000000"/>
<path d="M 115.44 40.98 C 117.59 45.81 119.64 50.64 121.04 55.75 C 119.95 55.18 118.87 54.60 117.79 54.02 C 117.41 53.41 117.01 52.81 116.59 52.24 C 115.92 52.59 115.26 52.97 114.62 53.38 C 113.57 53.10 112.52 52.81 111.48 52.50 C 113.33 52.07 115.19 51.67 117.06 51.32 C 115.98 48.98 115.48 47.43 113.16 46.11 C 113.82 45.74 114.48 45.38 115.15 45.01 C 114.30 44.34 113.44 43.66 112.59 42.99 C 113.54 42.32 114.49 41.65 115.44 40.98 Z" fill="#ffffff"/>
<path d="M 113.66 48.93 L 114.35 48.46 L 115.09 48.82 L 115.16 49.65 L 114.47 50.12 L 113.72 49.76 L 113.66 48.93 Z" fill="#ffffff"/>
<path d="M 95.92 54.36 C 97.92 54.57 99.92 54.58 101.92 54.55 C 102.82 55.05 103.71 55.56 104.58 56.09 C 102.36 56.60 100.12 56.65 97.85 56.72 C 97.22 55.92 96.57 55.13 95.92 54.36 Z" fill="#deb73f"/>
<path d="M 114.20 55.85 C 116.73 56.42 119.08 56.82 121.68 56.43 L 122.87 56.38 C 137.29 58.55 151.51 64.08 164.27 71.04 C 167.75 95.73 164.25 121.88 153.42 144.41 C 142.30 167.69 124.00 186.93 101.84 200.00 L 101.74 200.00 C 77.74 185.66 58.30 164.35 47.60 138.41 C 38.85 117.13 36.34 93.88 39.36 71.13 C 51.24 64.53 64.16 59.47 77.54 56.93 C 78.23 56.81 78.93 56.69 79.62 56.58 L 80.74 56.41 C 81.83 56.74 82.91 57.10 83.99 57.48 C 80.03 58.51 76.00 59.16 72.04 60.14 C 61.18 62.76 51.00 67.08 41.16 72.30 C 38.17 94.95 41.17 118.73 50.28 139.74 C 60.84 164.02 79.26 184.12 101.86 197.77 C 127.21 182.45 147.22 159.03 156.86 130.89 C 163.33 112.05 164.88 92.10 162.58 72.37 C 147.88 64.36 131.96 58.88 115.24 57.30 C 114.89 56.81 114.55 56.33 114.20 55.85 Z" fill="#deb73f"/>
<path d="M 87.31 56.97 C 86.95 57.95 86.34 58.24 85.48 57.84 C 84.58 56.48 87.05 55.18 87.31 56.97 Z" fill="#deb73f"/>
<path d="M 90.86 56.09 L 91.59 55.68 L 92.32 56.08 L 92.32 56.89 L 91.59 57.29 L 90.86 56.90 L 90.86 56.09 Z" fill="#deb73f"/>
<path d="M 90.10 66.81 C 91.09 66.42 92.09 66.05 93.09 65.71 C 93.72 68.80 94.28 71.90 94.93 74.99 C 95.53 72.03 96.03 69.05 96.51 66.07 C 97.66 66.02 98.81 65.98 99.96 65.93 C 100.23 70.49 100.53 75.05 100.87 79.60 L 98.02 79.74 C 97.93 77.07 97.83 74.40 97.68 71.74 C 97.04 74.40 96.44 77.07 95.82 79.74 C 95.08 79.70 94.34 79.67 93.60 79.63 C 93.09 77.10 92.56 74.59 92.00 72.07 C 91.92 74.54 91.98 77.10 91.58 79.53 L 88.91 80.67 C 89.18 76.11 89.02 71.25 90.10 66.81 Z" fill="#deb73f"/>
<path d="M 104.43 66.46 C 107.09 64.84 109.73 66.72 110.60 69.39 C 111.48 72.42 111.45 77.48 108.51 79.47 C 105.92 81.01 103.27 79.16 102.40 76.61 C 101.47 73.49 101.53 68.60 104.43 66.46 Z" fill="#deb73f"/>
<path d="M 84.01 67.17 C 85.01 67.06 86.01 66.95 87.01 66.83 C 87.01 71.39 87.02 75.94 87.01 80.50 C 85.97 80.62 84.94 80.75 83.90 80.88 C 83.89 76.31 83.90 71.74 84.01 67.17 Z" fill="#deb73f"/>
<path d="M 112.69 66.04 C 113.67 66.29 114.65 66.53 115.63 66.78 C 116.62 69.55 117.66 72.30 118.74 75.03 C 118.64 72.16 118.55 69.29 118.56 66.42 L 121.03 67.83 C 121.52 72.21 121.18 76.70 121.21 81.10 C 120.28 80.94 119.34 80.78 118.41 80.61 C 117.39 77.86 116.38 75.11 115.26 72.40 C 115.30 74.95 115.38 77.50 115.45 80.05 L 112.70 79.98 C 112.67 75.33 112.67 70.69 112.69 66.04 Z" fill="#deb73f"/>
<path d="M 83.49 67.68 C 82.59 69.24 81.64 70.61 80.37 71.89 C 80.30 75.22 80.31 78.54 80.29 81.87 C 79.23 81.98 78.18 82.08 77.12 82.18 C 77.14 78.63 77.14 75.08 77.14 71.53 L 74.92 72.11 C 74.89 71.07 74.87 70.02 74.84 68.98 C 77.71 68.46 80.59 68.00 83.49 67.68 Z" fill="#deb73f"/>
<path d="M 123.35 68.26 C 125.39 68.41 127.44 68.77 129.46 69.08 C 129.50 70.06 129.53 71.04 129.56 72.02 L 125.67 71.80 C 126.83 72.91 128.04 73.96 129.26 75.00 C 129.37 75.64 129.48 76.28 129.59 76.93 C 128.33 76.97 127.08 77.02 125.82 77.07 C 126.91 79.16 127.78 79.61 129.80 80.65 C 129.79 81.40 129.78 82.15 129.76 82.90 C 127.60 82.52 125.43 82.14 123.26 81.78 C 123.29 77.28 123.06 72.75 123.35 68.26 Z" fill="#deb73f"/>
<path d="M 106.17 67.95 C 108.34 71.06 108.06 74.24 106.97 77.70 C 103.91 75.28 105.41 71.10 106.17 67.95 Z" fill="#000000"/>
<path d="M 73.15 70.86 C 75.02 72.62 73.24 75.06 72.66 77.00 C 73.22 78.90 73.77 80.82 74.30 82.73 C 73.32 83.04 72.34 83.34 71.36 83.65 C 70.69 81.82 70.02 80.00 69.23 78.23 C 69.10 80.19 69.03 82.15 68.97 84.11 C 67.97 84.46 66.98 84.80 65.98 85.14 C 66.04 80.54 65.86 75.93 66.09 71.33 C 67.97 70.90 71.67 69.04 73.15 70.86 Z" fill="#deb73f"/>
<path d="M 131.59 69.18 C 135.83 71.13 135.61 75.36 137.28 79.29 C 137.20 76.63 137.08 73.97 136.97 71.31 C 137.94 71.58 138.91 71.86 139.87 72.13 C 139.83 76.65 139.84 81.17 139.88 85.69 C 138.89 85.45 137.90 85.21 136.90 84.97 C 135.98 82.15 135.07 79.33 134.06 76.55 C 134.01 79.11 134.03 81.66 134.03 84.22 C 133.17 83.93 132.31 83.63 131.45 83.34 C 131.47 78.61 131.39 73.89 131.59 69.18 Z" fill="#deb73f"/>
<path d="M 61.94 72.92 C 65.29 73.95 64.98 79.14 64.49 81.82 C 63.99 85.33 61.58 86.73 58.89 88.55 C 57.56 86.74 55.99 85.46 55.99 83.04 C 55.68 79.00 57.20 73.45 61.94 72.92 Z" fill="#deb73f"/>
<path d="M 69.95 72.67 C 72.32 73.38 70.91 76.25 69.07 76.71 C 68.81 75.51 68.33 73.07 69.95 72.67 Z" fill="#000000"/>
<path d="M 147.84 74.81 C 147.78 75.80 147.72 76.79 147.66 77.78 C 146.46 77.44 145.25 77.11 144.04 76.78 C 145.35 78.86 147.02 80.86 148.04 83.10 C 148.70 84.83 148.52 87.00 146.63 87.83 C 143.50 88.20 141.34 86.55 141.12 83.29 C 142.66 83.90 144.19 84.52 145.72 85.14 C 144.53 82.33 141.41 79.21 141.35 76.16 C 142.30 72.39 145.27 74.23 147.84 74.81 Z" fill="#deb73f"/>
<path d="M 60.79 75.28 C 61.93 79.16 61.83 81.88 60.51 85.69 C 58.61 81.87 58.53 78.97 60.79 75.28 Z" fill="#000000"/>
<path d="M 54.93 78.08 C 56.15 82.45 53.51 84.29 50.71 86.91 C 50.74 88.27 50.77 89.63 50.81 90.99 C 49.76 91.55 48.71 92.12 47.66 92.68 C 47.65 88.11 47.54 83.52 47.70 78.95 C 49.41 78.22 54.01 75.25 54.93 78.08 Z" fill="#deb73f"/>
<path d="M 149.46 75.86 C 151.34 76.70 153.23 77.55 155.11 78.37 C 155.21 79.32 155.31 80.26 155.41 81.21 L 151.73 80.33 C 152.75 81.56 153.80 82.76 154.86 83.93 C 154.99 84.47 155.12 85.00 155.25 85.53 C 154.26 85.92 153.27 86.33 152.29 86.76 C 153.73 88.58 155.19 90.32 156.29 92.39 C 153.96 91.54 151.68 90.58 149.43 89.55 C 149.51 84.99 149.48 80.42 149.46 75.86 Z" fill="#deb73f"/>
<path d="M 51.09 78.96 C 53.09 81.35 51.90 82.15 50.84 84.52 C 50.83 82.66 50.90 80.81 51.09 78.96 Z" fill="#000000"/>
<path d="M 101.83 84.39 L 102.05 84.39 C 111.44 84.61 120.74 85.55 129.79 88.18 C 139.27 90.80 148.19 94.87 156.73 99.73 C 155.56 111.92 152.98 123.88 148.23 135.20 C 138.89 157.89 122.33 176.77 101.83 190.08 C 101.78 178.05 101.99 165.99 101.72 153.96 C 95.98 153.57 90.74 152.67 85.59 150.00 C 85.99 148.67 86.40 147.35 86.81 146.03 C 91.83 148.47 96.24 149.45 101.83 149.67 C 101.86 142.23 101.81 134.78 101.86 127.34 C 98.82 126.32 95.85 125.17 92.92 123.84 C 91.83 126.11 90.83 129.19 88.47 130.42 C 84.67 132.45 80.17 132.00 76.00 132.11 C 76.00 136.07 75.99 140.02 75.95 143.97 C 74.28 143.99 72.61 144.00 70.94 144.01 C 70.95 132.74 70.94 121.47 70.94 110.21 C 76.13 110.32 80.89 109.95 85.97 110.70 C 86.57 106.72 87.18 103.11 90.33 100.28 C 93.71 97.26 97.60 97.01 101.88 96.53 C 101.83 92.48 101.84 88.44 101.83 84.39 Z" fill="#ffffff"/>
<path d="M 101.80 96.58 C 106.67 96.79 110.83 97.57 115.37 99.31 C 115.05 100.71 114.72 102.10 114.39 103.49 C 110.28 102.10 106.27 101.33 101.95 100.88 C 101.90 99.45 101.85 98.01 101.80 96.58 Z" fill="#000000"/>
<path d="M 101.79 100.77 C 101.56 107.44 102.51 114.68 101.29 121.20 C 98.51 120.96 95.41 119.52 93.33 117.66 C 90.29 114.59 90.56 108.89 92.25 105.22 C 94.17 101.41 98.13 101.52 101.79 100.77 Z" fill="#000000"/>
<path d="M 132.78 111.25 C 132.59 112.64 132.39 114.04 132.20 115.44 C 128.93 114.56 125.52 113.58 122.11 114.21 C 119.26 114.91 117.87 117.31 117.22 119.99 C 116.29 124.54 116.20 129.46 117.11 134.02 C 117.75 136.78 119.09 139.32 121.98 140.19 C 125.47 141.33 129.03 139.78 132.32 138.70 C 132.65 140.06 132.99 141.43 133.32 142.79 C 130.26 143.68 127.20 144.77 123.98 144.66 C 121.64 144.56 119.47 143.72 117.28 142.99 C 115.96 146.08 114.83 148.93 111.90 150.86 C 109.25 152.64 105.27 154.15 102.12 153.29 C 101.94 152.15 101.77 151.00 101.63 149.85 C 104.90 149.13 108.09 149.18 110.27 146.23 C 112.60 142.96 112.53 137.92 111.66 134.18 C 110.24 129.89 105.43 128.62 101.70 127.10 C 101.83 125.42 101.95 123.73 102.18 122.06 C 105.40 122.67 108.12 124.14 110.99 125.63 C 111.58 120.38 112.40 115.23 116.90 111.84 C 121.67 108.51 127.60 109.59 132.78 111.25 Z" fill="#000000"/>
<path d="M 76.01 114.37 C 79.01 114.57 83.71 113.78 86.15 115.83 C 88.19 118.27 87.68 122.95 86.73 125.78 C 85.10 129.41 79.21 127.89 76.00 128.22 C 76.00 123.60 75.99 118.99 76.01 114.37 Z" fill="#000000"/>
</svg>
