<?xml version="1.0" encoding="UTF-8" standalone="no"?>
<!DOCTYPE svg PUBLIC "-//W3C//DTD SVG 1.1//EN" "http://www.w3.org/Graphics/SVG/1.1/DTD/svg11.dtd">
<svg xmlns="http://www.w3.org/2000/svg" version="1.1" viewBox="0 0 200 200" width="200.0pt" height="200.0pt">
<path d="M 0.00 0.00 L 200.00 0.00 L 200.00 71.87 C 198.36 69.24 197.25 68.23 194.06 68.19 C 174.18 68.08 154.28 68.33 134.40 68.08 C 134.30 59.74 135.57 51.60 137.08 43.42 C 126.90 49.08 116.80 53.89 105.02 55.03 C 91.46 56.44 77.77 51.62 66.17 44.90 C 65.26 44.40 64.36 43.90 63.45 43.41 C 64.53 51.70 66.26 59.71 65.91 68.14 C 48.94 68.22 31.97 68.16 15.00 68.17 C 11.48 68.22 7.85 67.91 4.36 68.43 C 2.20 68.75 1.32 70.57 0.00 72.09 L 0.00 0.00 Z" fill="#ffffff"/>
<path d="M 63.45 43.41 C 64.36 43.90 65.26 44.40 66.17 44.90 C 77.77 51.62 91.46 56.44 105.02 55.03 C 116.80 53.89 126.90 49.08 137.08 43.42 C 135.57 51.60 134.30 59.74 134.40 68.08 C 154.28 68.33 174.18 68.08 194.06 68.19 C 197.25 68.23 198.36 69.24 200.00 71.87 L 200.00 76.38 C 199.18 77.87 198.79 79.47 196.94 79.93 C 194.40 80.52 191.64 80.44 189.05 80.53 C 188.25 83.16 187.88 86.85 185.16 88.21 C 182.16 89.75 177.99 89.26 174.68 89.40 C 173.70 91.96 173.40 94.40 170.63 95.64 C 166.44 97.41 160.98 96.77 156.51 96.90 C 155.59 98.99 154.97 101.68 152.90 102.93 C 151.07 103.98 148.52 103.91 146.46 104.18 C 145.47 106.03 144.68 108.81 142.60 109.67 C 140.17 110.77 137.11 110.88 134.47 111.14 C 132.22 118.93 128.54 126.12 123.33 132.34 C 116.12 140.96 107.97 148.84 100.20 156.95 C 92.15 148.85 84.27 140.87 76.83 132.14 C 71.69 125.96 68.19 118.81 65.83 111.15 C 62.98 110.80 59.29 110.78 56.83 109.15 C 55.44 107.98 54.81 105.83 53.99 104.23 C 51.99 103.97 49.77 103.95 47.88 103.21 C 45.50 102.13 44.82 99.09 43.88 96.89 C 39.34 96.79 33.76 97.37 29.52 95.56 C 27.12 94.59 26.50 91.50 25.54 89.35 C 22.24 89.22 17.80 89.82 14.92 88.01 C 12.32 86.28 12.11 83.30 11.42 80.53 C 7.79 80.33 4.56 80.96 1.42 78.76 C 0.93 77.87 0.45 76.97 0.00 76.06 L 0.00 72.09 C 1.32 70.57 2.20 68.75 4.36 68.43 C 7.85 67.91 11.48 68.22 15.00 68.17 C 31.97 68.16 48.94 68.22 65.91 68.14 C 66.26 59.71 64.53 51.70 63.45 43.41 Z" fill="#a99431"/>
<path d="M 130.89 52.08 C 130.07 58.38 129.41 64.63 130.10 70.99 C 131.11 80.80 132.00 90.61 131.46 100.57 C 130.76 110.59 127.12 120.04 120.89 127.92 C 114.57 135.82 107.13 142.97 100.19 150.34 C 93.98 143.99 87.86 137.70 81.99 131.01 C 78.44 126.94 75.41 122.46 73.11 117.57 C 85.87 103.09 98.63 88.60 111.39 74.11 C 111.91 77.11 112.29 80.60 111.36 83.55 C 110.57 85.90 108.72 88.03 107.27 90.02 C 108.43 91.37 109.59 92.72 110.76 94.06 C 114.59 88.74 114.60 83.12 115.27 76.87 C 116.17 79.65 115.56 84.34 118.96 85.44 C 120.62 85.08 121.61 83.93 122.94 82.95 C 121.59 82.63 120.25 82.33 118.90 82.02 C 119.28 79.84 119.79 77.73 120.50 75.63 C 119.68 74.81 118.86 73.98 118.05 73.16 C 116.90 73.91 115.75 74.65 114.59 75.39 C 114.57 73.77 114.53 72.15 114.53 70.54 C 115.99 68.94 117.41 67.32 118.84 65.69 C 120.04 65.75 121.24 65.81 122.45 65.88 C 122.04 68.39 120.21 72.23 121.47 74.57 C 122.97 76.62 124.67 75.48 126.50 74.73 C 125.66 72.78 123.82 70.34 124.19 68.14 C 125.11 65.82 126.88 63.82 128.19 61.71 C 126.19 61.71 124.20 61.69 122.20 61.79 C 124.99 58.74 127.70 55.64 130.31 52.45 L 129.23 54.06 C 129.79 53.40 130.34 52.74 130.89 52.08 Z" fill="#ffffff"/>
<path d="M 69.44 52.03 C 78.76 56.39 88.62 59.71 99.00 59.89 C 110.16 60.16 120.21 56.82 130.31 52.45 C 127.70 55.64 124.99 58.74 122.20 61.79 C 117.09 62.05 112.71 64.03 108.40 66.64 C 109.44 69.09 110.54 71.58 111.39 74.11 C 98.63 88.60 85.87 103.09 73.11 117.57 C 66.99 104.01 68.58 89.35 69.87 74.95 C 70.89 67.22 70.61 59.71 69.44 52.03 Z" fill="#216432"/>
<path d="M 74.94 61.32 C 78.50 63.63 81.40 66.55 84.08 69.81 C 87.18 66.37 89.76 64.60 94.12 62.97 C 94.13 64.23 94.14 65.49 94.14 66.75 C 92.88 67.35 91.61 67.95 90.35 68.56 C 90.53 72.26 90.59 76.19 91.34 79.83 C 92.04 83.12 93.65 85.87 95.23 88.80 C 94.21 90.11 93.19 91.42 92.16 92.73 C 88.50 85.69 87.82 78.39 87.49 70.59 C 86.85 71.34 86.21 72.09 85.57 72.83 C 85.43 74.64 85.30 76.44 85.13 78.23 C 83.64 76.25 82.20 74.23 80.79 72.18 C 80.35 79.82 79.59 87.08 75.63 93.82 C 74.60 92.45 73.57 91.08 72.55 89.71 C 75.50 83.63 78.17 76.84 77.29 69.94 C 76.19 67.03 74.91 64.55 74.94 61.32 Z" fill="#a99431"/>
<path d="M 122.20 61.79 C 124.20 61.69 126.19 61.71 128.19 61.71 C 126.88 63.82 125.11 65.82 124.19 68.14 C 123.82 70.34 125.66 72.78 126.50 74.73 C 124.67 75.48 122.97 76.62 121.47 74.57 C 120.21 72.23 122.04 68.39 122.45 65.88 C 121.24 65.81 120.04 65.75 118.84 65.69 L 116.19 66.08 C 114.30 66.96 114.76 68.82 114.53 70.54 C 114.53 72.15 114.57 73.77 114.59 75.39 C 115.75 74.65 116.90 73.91 118.05 73.16 C 118.86 73.98 119.68 74.81 120.50 75.63 C 119.79 77.73 119.28 79.84 118.90 82.02 C 120.25 82.33 121.59 82.63 122.94 82.95 C 121.61 83.93 120.62 85.08 118.96 85.44 C 115.56 84.34 116.17 79.65 115.27 76.87 C 114.60 83.12 114.59 88.74 110.76 94.06 C 109.59 92.72 108.43 91.37 107.27 90.02 C 108.72 88.03 110.57 85.90 111.36 83.55 C 112.29 80.60 111.91 77.11 111.39 74.11 C 110.54 71.58 109.44 69.09 108.40 66.64 C 112.71 64.03 117.09 62.05 122.20 61.79 Z" fill="#a99431"/>
<path d="M 116.19 66.08 L 118.84 65.69 C 117.41 67.32 115.99 68.94 114.53 70.54 C 114.76 68.82 114.30 66.96 116.19 66.08 Z" fill="#216432"/>
<path d="M 0.00 76.06 C 0.45 76.97 0.93 77.87 1.42 78.76 C 4.56 80.96 7.79 80.33 11.42 80.53 C 12.11 83.30 12.32 86.28 14.92 88.01 C 17.80 89.82 22.24 89.22 25.54 89.35 C 26.50 91.50 27.12 94.59 29.52 95.56 C 33.76 97.37 39.34 96.79 43.88 96.89 C 44.82 99.09 45.50 102.13 47.88 103.21 C 49.77 103.95 51.99 103.97 53.99 104.23 C 54.81 105.83 55.44 107.98 56.83 109.15 C 59.29 110.78 62.98 110.80 65.83 111.15 C 68.19 118.81 71.69 125.96 76.83 132.14 C 84.27 140.87 92.15 148.85 100.20 156.95 C 107.97 148.84 116.12 140.96 123.33 132.34 C 128.54 126.12 132.22 118.93 134.47 111.14 C 137.11 110.88 140.17 110.77 142.60 109.67 C 144.68 108.81 145.47 106.03 146.46 104.18 C 148.52 103.91 151.07 103.98 152.90 102.93 C 154.97 101.68 155.59 98.99 156.51 96.90 C 160.98 96.77 166.44 97.41 170.63 95.64 C 173.40 94.40 173.70 91.96 174.68 89.40 C 177.99 89.26 182.16 89.75 185.16 88.21 C 187.88 86.85 188.25 83.16 189.05 80.53 C 191.64 80.44 194.40 80.52 196.94 79.93 C 198.79 79.47 199.18 77.87 200.00 76.38 L 200.00 200.00 L 0.00 200.00 L 0.00 76.06 Z" fill="#ffffff"/>
<path d="M 109.20 109.40 C 107.61 112.15 106.29 114.99 105.04 117.91 C 103.17 115.86 102.86 113.48 102.23 110.89 C 98.94 113.26 96.64 115.61 96.75 119.95 C 96.89 123.80 95.93 130.19 99.22 132.92 C 100.82 134.35 102.77 133.43 103.59 131.63 C 104.92 129.29 103.75 127.73 102.97 125.50 C 104.16 124.50 105.35 123.50 106.54 122.50 C 106.56 127.15 107.90 133.24 103.42 136.37 C 99.97 138.82 95.80 136.14 94.10 132.91 C 92.30 128.68 90.53 124.14 92.66 119.67 C 94.07 116.46 95.69 111.60 99.02 109.96 C 102.22 108.94 105.94 108.40 109.20 109.40 Z" fill="#a99431"/>
</svg>