<?xml version="1.0" encoding="UTF-8" standalone="no"?>
<svg xmlns:dc="http://purl.org/dc/elements/1.1/" xmlns:cc="http://creativecommons.org/ns#" xmlns:rdf="http://www.w3.org/1999/02/22-rdf-syntax-ns#" xmlns:svg="http://www.w3.org/2000/svg" xmlns="http://www.w3.org/2000/svg" xmlns:sodipodi="http://sodipodi.sourceforge.net/DTD/sodipodi-0.dtd" xmlns:inkscape="http://www.inkscape.org/namespaces/inkscape" inkscape:version="1.0 (4035a4f, 2020-05-01)" sodipodi:docname="65.svg" id="svg4089" height="200.0pt" width="200.0pt" viewBox="0 0 200 200" version="1.1">
  <metadata id="metadata4095">
    <rdf:RDF>
      <cc:Work rdf:about="">
        <dc:format>image/svg+xml</dc:format>
        <dc:type rdf:resource="http://purl.org/dc/dcmitype/StillImage"/>
      </cc:Work>
    </rdf:RDF>
  </metadata>
  <defs id="defs4093"/>
  <sodipodi:namedview inkscape:current-layer="svg4089" inkscape:cy="133.33333" inkscape:cx="133.33333" inkscape:zoom="1.75125" showgrid="false" id="namedview4091" inkscape:window-height="480" inkscape:window-width="640" inkscape:pageshadow="2" inkscape:pageopacity="0" guidetolerance="10" gridtolerance="10" objecttolerance="10" borderopacity="1" bordercolor="#666666" pagecolor="#ffffff"/>
  <path style="fill:#ffffff;fill-opacity:0" id="path3937" fill="#ffffff" d="M 0.00 0.00 L 96.31 0.00 C 81.14 0.69 66.21 4.60 52.84 11.83 C 35.54 21.10 21.10 35.54 11.83 52.84 C 4.84 65.70 1.15 79.88 0.00 94.43 L 0.00 0.00 Z"/>
  <path id="path3939" fill="#012f60" d="M 96.31 0.00 L 105.57 0.00 L 107.24 0.18 C 123.16 1.50 138.65 6.34 152.25 14.77 C 169.00 25.04 182.59 40.31 190.82 58.16 C 196.23 69.67 199.02 82.05 200.00 94.69 L 200.00 105.55 C 198.76 121.83 194.17 137.65 185.62 151.62 C 175.33 168.65 159.91 182.49 141.84 190.82 C 130.33 196.22 117.95 199.02 105.30 200.00 L 94.45 200.00 C 78.17 198.76 62.35 194.17 48.38 185.62 C 31.56 175.46 17.86 160.30 9.50 142.52 C 3.72 130.36 0.64 117.12 0.00 103.69 L 0.00 94.43 C 1.15 79.88 4.84 65.70 11.83 52.84 C 21.10 35.54 35.54 21.10 52.84 11.83 C 66.21 4.60 81.14 0.69 96.31 0.00 Z"/>
  <path style="fill:#ffffff;fill-opacity:0" id="path3941" fill="#ffffff" d="M 105.57 0.00 L 200.00 0.00 L 200.00 94.69 C 199.02 82.05 196.23 69.67 190.82 58.16 C 182.59 40.31 169.00 25.04 152.25 14.77 C 138.65 6.34 123.16 1.50 107.24 0.18 L 105.57 0.00 Z"/>
  <path id="path3943" fill="#7ab3db" d="M 88.51 4.76 C 108.76 2.30 129.68 6.45 147.38 16.61 C 171.71 30.39 189.34 54.96 194.31 82.50 C 198.43 104.56 194.56 127.90 183.38 147.38 C 169.61 171.71 145.04 189.34 117.50 194.32 C 95.44 198.44 72.09 194.58 52.62 183.39 C 28.75 169.87 11.31 145.95 5.98 119.03 C 1.40 96.52 5.17 72.54 16.62 52.62 C 31.39 26.47 58.62 8.19 88.51 4.76 Z"/>
  <path id="path3945" fill="#012f60" d="M 93.27 6.42 C 109.23 5.27 125.43 8.25 139.89 15.10 C 164.56 26.65 183.54 49.18 190.57 75.52 C 196.63 97.75 194.13 122.08 183.57 142.57 C 170.98 167.40 147.12 185.89 119.87 191.69 C 97.94 196.48 74.45 193.10 54.82 182.19 C 30.73 168.99 13.10 145.03 7.94 118.02 C 4.36 99.83 6.31 80.63 13.56 63.56 C 20.76 46.51 33.11 31.73 48.57 21.58 C 61.86 12.80 77.38 7.54 93.27 6.42 Z"/>
  <path id="path3947" fill="#ffffff" d="M 84.50 11.73 C 100.56 8.94 117.34 10.54 132.53 16.49 C 149.16 22.94 163.70 34.48 173.81 49.18 C 189.49 71.66 193.78 101.13 185.40 127.21 C 180.23 143.52 170.26 158.21 157.06 169.09 C 144.53 179.48 129.14 186.34 113.02 188.66 C 97.20 190.97 80.79 189.02 66.00 182.93 C 50.21 176.47 36.39 165.39 26.60 151.42 C 11.22 129.73 6.46 101.35 13.70 75.77 C 18.32 59.21 27.85 44.11 40.77 32.76 C 53.05 21.90 68.34 14.53 84.50 11.73 Z"/>
  <path id="path3949" fill="#012f60" d="M 90.94 17.12 C 92.09 17.10 93.25 17.09 94.40 17.07 C 94.45 19.11 94.50 21.14 94.55 23.18 C 96.63 23.13 98.70 23.08 100.78 23.03 C 100.74 20.98 100.69 18.93 100.65 16.88 C 101.80 16.86 102.95 16.83 104.10 16.81 C 104.23 21.99 104.36 27.18 104.48 32.36 C 103.32 32.38 102.16 32.39 100.99 32.40 C 100.96 30.34 100.92 28.27 100.88 26.21 C 98.79 26.27 96.70 26.33 94.61 26.40 C 94.67 28.47 94.73 30.53 94.78 32.60 C 93.63 32.63 92.48 32.65 91.34 32.68 C 91.19 27.50 91.08 22.31 90.94 17.12 Z"/>
  <path id="path3951" fill="#012f60" d="M 112.39 17.82 C 116.24 18.59 120.07 19.44 123.90 20.27 C 123.68 21.28 123.45 22.29 123.22 23.29 C 120.53 22.70 117.83 22.12 115.14 21.54 L 114.46 24.53 C 116.68 25.03 118.89 25.52 121.11 26.01 C 120.60 26.94 120.09 27.87 119.58 28.80 C 117.66 28.40 115.74 28.00 113.82 27.59 C 113.60 28.63 113.37 29.67 113.14 30.71 C 115.89 31.30 118.64 31.90 121.38 32.51 L 120.75 35.49 C 116.87 34.69 113.00 33.84 109.13 33.00 C 110.21 27.94 111.33 22.89 112.39 17.82 Z"/>
  <path id="path3953" fill="#012f5f" d="M 84.52 19.91 C 84.07 20.93 83.63 21.95 83.18 22.97 C 80.79 22.65 78.74 21.86 76.80 23.81 C 74.12 26.69 76.06 31.87 80.00 32.19 C 82.40 32.23 83.46 30.70 85.06 29.22 C 85.97 29.75 86.89 30.28 87.80 30.80 C 85.43 34.12 82.16 36.13 77.96 35.19 C 72.54 33.86 70.18 26.94 73.52 22.51 C 76.30 18.99 80.45 18.64 84.52 19.91 Z"/>
  <path id="path3955" fill="#012f5f" d="M 132.02 24.10 C 135.68 23.93 137.85 26.19 139.91 28.87 C 139.01 29.40 138.11 29.93 137.22 30.45 C 136.15 29.42 135.09 27.94 133.69 27.35 C 131.80 26.73 130.64 28.20 132.25 29.63 C 133.56 31.01 135.18 32.24 136.27 33.79 C 137.87 36.65 135.23 40.47 132.00 40.23 C 128.17 39.99 126.06 37.51 123.91 34.66 C 124.87 34.16 125.83 33.65 126.79 33.15 C 128.16 34.91 131.31 39.12 133.43 35.92 C 132.05 33.82 129.96 32.52 128.46 30.57 C 126.82 28.01 129.06 24.25 132.02 24.10 Z"/>
  <path id="path3957" fill="#012f60" d="M 63.33 25.10 C 66.03 29.53 68.70 33.97 71.41 38.40 C 70.57 38.91 69.73 39.43 68.89 39.94 C 65.07 38.45 61.27 36.94 57.45 35.45 C 59.12 38.24 60.81 41.03 62.49 43.81 C 61.53 44.41 60.56 45.01 59.60 45.60 C 56.87 41.17 54.17 36.72 51.51 32.25 C 52.41 31.71 53.31 31.17 54.21 30.64 C 57.91 32.07 61.59 33.54 65.29 34.97 C 63.67 32.27 62.04 29.58 60.40 26.89 C 61.38 26.29 62.35 25.70 63.33 25.10 Z"/>
  <path id="path3959" fill="#012f60" d="M 144.96 29.95 C 148.38 32.56 151.81 35.14 155.19 37.80 C 154.54 38.63 153.88 39.46 153.23 40.30 C 152.00 39.35 150.76 38.40 149.53 37.45 C 147.00 40.70 144.51 44.00 142.00 47.28 C 141.08 46.58 140.16 45.88 139.24 45.18 C 141.74 41.90 144.26 38.63 146.72 35.32 C 145.47 34.35 144.22 33.38 142.97 32.41 C 143.64 31.59 144.30 30.77 144.96 29.95 Z"/>
  <path id="path3961" fill="#012f60" d="M 137.07 50.89 C 139.68 53.21 142.61 53.00 145.87 53.58 C 146.91 57.06 146.73 60.20 149.10 62.93 C 158.68 75.34 162.99 91.45 161.18 107.00 C 159.74 120.03 153.95 132.45 144.99 142.00 C 135.80 151.88 123.35 158.62 110.01 160.75 C 106.50 161.27 103.35 162.82 99.91 163.53 C 96.36 162.88 93.10 161.23 89.51 160.67 C 75.16 158.27 61.94 150.53 52.66 139.36 C 44.15 129.18 39.09 116.26 38.49 103.00 C 37.78 88.95 42.01 74.74 50.48 63.48 C 52.89 60.58 52.75 57.30 53.64 53.68 C 56.07 53.19 58.80 53.08 61.07 52.12 C 64.91 49.52 68.53 46.72 72.77 44.77 C 93.24 34.49 118.94 36.86 137.07 50.89 Z"/>
  <path id="path3963" fill="#012f60" d="M 41.21 41.28 L 41.89 41.51 C 47.08 43.30 52.20 45.28 57.35 47.15 C 56.54 48.02 55.73 48.89 54.92 49.76 C 53.71 49.34 52.49 48.92 51.28 48.49 C 49.84 50.06 48.40 51.61 46.95 53.16 C 47.44 54.36 47.94 55.55 48.43 56.75 C 47.63 57.55 46.82 58.35 46.02 59.14 C 43.75 53.99 41.52 48.82 39.22 43.68 C 39.88 42.88 40.55 42.08 41.21 41.28 Z"/>
  <path id="path3965" fill="#d9e1e8" d="M 132.24 51.64 C 130.25 51.45 128.26 51.23 126.28 50.95 C 110.24 41.87 89.77 41.92 73.71 50.93 C 71.75 51.20 69.79 51.41 67.82 51.59 C 86.76 38.54 113.33 38.54 132.24 51.64 Z"/>
  <path id="path3967" fill="#012f5f" d="M 159.84 42.33 C 162.36 45.33 164.87 48.33 167.38 51.33 C 166.60 52.00 165.81 52.66 165.03 53.33 C 163.24 51.21 161.47 49.09 159.70 46.97 C 158.90 47.63 158.11 48.28 157.31 48.94 C 158.83 50.75 160.35 52.57 161.87 54.37 C 160.83 54.74 159.80 55.10 158.76 55.47 C 157.49 53.96 156.22 52.45 154.95 50.94 C 154.13 51.62 153.31 52.30 152.49 52.98 C 154.32 55.14 156.13 57.32 157.88 59.56 C 157.11 60.17 156.34 60.79 155.57 61.41 C 152.96 58.42 150.43 55.37 147.91 52.32 C 151.89 48.99 155.85 45.65 159.84 42.33 Z"/>
  <path id="path3969" fill="#7ab4dc" d="M 126.28 50.95 C 108.78 49.62 91.22 49.60 73.71 50.93 C 89.77 41.92 110.24 41.87 126.28 50.95 Z"/>
  <path id="path3971" fill="#b3c1ce" d="M 43.27 45.26 C 45.06 45.81 46.78 46.51 48.51 47.20 C 47.46 48.27 46.40 49.32 45.34 50.37 C 44.62 48.67 43.88 47.00 43.27 45.26 Z"/>
  <path id="path3973" fill="#fbc24e" d="M 83.00 53.98 C 88.56 53.70 94.35 53.18 99.88 53.74 L 99.84 55.06 L 99.32 56.02 C 86.47 55.98 73.66 57.01 61.00 59.22 C 57.94 73.10 56.97 87.49 57.52 101.67 C 71.62 101.72 85.71 101.60 99.81 101.68 C 99.82 102.89 99.84 104.10 99.85 105.30 C 95.53 105.31 91.20 105.31 86.88 105.31 C 81.78 105.30 76.68 105.30 71.59 105.31 C 67.05 105.32 62.51 105.32 57.97 105.28 L 58.02 105.73 C 57.97 114.70 60.35 123.28 65.17 130.85 C 72.90 143.11 85.50 151.29 99.07 155.82 L 99.87 156.09 C 99.86 157.45 99.85 158.82 99.85 160.18 C 91.60 157.35 83.79 153.51 76.89 148.14 C 67.67 141.03 60.35 131.34 56.76 120.21 C 55.23 115.56 54.76 110.86 54.39 106.00 C 53.14 89.65 54.61 73.02 58.37 57.06 C 66.45 55.33 74.77 54.58 83.00 53.98 Z"/>
  <path id="path3975" fill="#e9ad01" d="M 99.88 53.74 C 113.59 53.04 127.59 54.70 141.13 56.87 C 145.61 74.37 146.70 92.88 144.84 110.83 C 143.94 120.24 140.03 128.92 134.40 136.43 C 125.66 148.00 113.43 155.53 99.85 160.18 C 99.85 158.82 99.86 157.45 99.87 156.09 C 103.33 155.00 106.70 153.56 109.97 152.01 C 113.56 150.25 116.97 148.22 120.22 145.89 C 122.94 143.91 125.47 141.71 127.83 139.31 C 130.73 136.31 133.24 133.02 135.36 129.43 C 137.39 125.91 139.01 122.16 140.10 118.25 C 141.20 113.98 141.59 109.68 141.92 105.31 C 137.80 105.30 133.68 105.30 129.57 105.32 C 124.92 105.31 120.26 105.31 115.61 105.32 C 110.36 105.30 105.10 105.31 99.85 105.30 C 99.84 104.10 99.82 102.89 99.81 101.68 C 105.32 101.63 110.81 101.82 116.32 101.53 C 114.25 100.92 112.15 100.20 110.02 99.85 C 106.93 100.07 104.20 101.20 101.02 100.76 C 97.59 100.60 94.12 98.77 90.94 100.21 C 88.32 101.27 85.88 100.72 83.21 100.27 C 80.39 98.28 77.61 96.25 74.67 94.45 C 77.93 95.22 81.22 95.65 84.55 95.93 C 84.54 94.94 84.53 93.94 84.51 92.95 C 83.04 93.41 81.57 93.86 80.10 94.30 C 81.56 92.16 83.54 90.97 85.71 89.68 C 88.25 88.21 89.78 85.99 91.38 83.61 C 91.42 85.68 91.72 87.69 92.19 89.71 C 92.81 90.83 93.49 91.92 94.21 92.98 C 91.38 92.81 88.56 92.71 85.72 92.72 C 85.71 93.88 85.69 95.03 85.67 96.19 C 90.43 96.43 95.18 96.59 99.94 96.56 L 99.69 93.39 C 99.11 93.00 98.51 92.61 97.91 92.24 C 103.29 89.56 106.38 86.87 109.30 81.57 C 109.10 85.79 110.55 89.27 113.21 92.48 C 113.59 84.78 113.46 77.06 113.57 69.35 C 111.67 69.82 109.77 70.30 107.85 70.69 C 109.93 69.47 112.00 68.56 114.31 67.85 C 114.33 71.18 114.34 74.51 114.39 77.84 L 115.81 77.29 C 115.34 77.79 114.86 78.30 114.40 78.81 C 114.40 82.42 114.43 86.03 114.77 89.63 C 118.32 86.70 120.51 82.91 122.87 79.05 C 123.20 80.40 123.52 81.75 123.87 83.09 C 124.44 85.37 125.32 87.49 126.17 89.67 C 122.07 91.05 117.84 92.34 113.89 94.10 C 117.06 95.68 121.66 93.80 125.05 93.60 C 124.03 96.14 120.73 98.38 121.58 101.20 C 122.89 101.79 124.58 101.67 125.99 101.72 C 131.37 101.68 136.75 101.69 142.13 101.69 C 142.81 87.50 141.62 73.20 138.79 59.28 C 126.14 56.93 113.41 56.06 100.55 55.99 L 99.84 55.06 L 99.88 53.74 Z"/>
  <path id="path3977" fill="#012f60" d="M 30.68 54.17 C 35.31 56.62 39.98 59.00 44.57 61.54 C 44.01 62.52 43.45 63.50 42.90 64.48 C 39.96 62.94 37.01 61.39 34.06 59.87 C 35.32 62.17 36.59 64.47 37.85 66.78 C 35.24 67.05 32.64 67.31 30.03 67.57 C 32.98 69.13 35.95 70.68 38.91 72.24 C 38.32 73.23 37.73 74.21 37.14 75.19 C 32.61 72.74 28.03 70.39 23.49 67.97 C 24.09 66.87 24.69 65.77 25.30 64.67 C 27.84 64.50 30.37 64.33 32.91 64.14 C 31.65 61.97 30.32 59.84 29.11 57.64 C 29.59 56.47 30.14 55.32 30.68 54.17 Z"/>
  <path id="path3979" fill="#ffffff" d="M 99.32 56.02 L 99.84 55.06 L 100.55 55.99 C 113.41 56.06 126.14 56.93 138.79 59.28 C 141.62 73.20 142.81 87.50 142.13 101.69 C 136.75 101.69 131.37 101.68 125.99 101.72 C 124.58 101.67 122.89 101.79 121.58 101.20 C 120.73 98.38 124.03 96.14 125.05 93.60 C 121.66 93.80 117.06 95.68 113.89 94.10 C 117.84 92.34 122.07 91.05 126.17 89.67 C 125.32 87.49 124.44 85.37 123.87 83.09 C 123.87 80.17 124.07 77.23 124.21 74.31 C 121.38 75.26 118.58 76.15 115.81 77.29 L 114.39 77.84 C 114.34 74.51 114.33 71.18 114.31 67.85 C 112.00 68.56 109.93 69.47 107.85 70.69 C 109.77 70.30 111.67 69.82 113.57 69.35 C 113.46 77.06 113.59 84.78 113.21 92.48 C 110.55 89.27 109.10 85.79 109.30 81.57 L 109.70 79.30 C 104.61 80.95 99.38 82.46 94.46 84.57 C 93.22 85.81 92.88 88.11 92.19 89.71 C 91.72 87.69 91.42 85.68 91.38 83.61 L 91.46 81.87 C 90.17 79.72 89.25 77.82 89.31 75.24 L 89.52 74.06 C 88.28 74.43 87.04 74.80 85.80 75.17 C 85.72 73.41 85.64 71.65 85.56 69.89 C 83.36 70.77 81.25 71.78 79.27 73.08 C 81.05 72.85 82.77 72.50 84.51 72.06 C 84.59 73.16 84.67 74.27 84.75 75.37 C 82.66 76.28 80.62 77.28 78.59 78.32 C 75.29 79.07 72.79 82.16 70.61 84.58 C 68.37 87.10 67.11 89.58 66.19 92.82 C 68.70 93.89 71.47 94.76 73.74 96.28 C 75.28 97.70 76.44 99.58 77.70 101.25 C 79.68 100.28 80.98 99.99 83.21 100.27 C 85.88 100.72 88.32 101.27 90.94 100.21 C 94.12 98.77 97.59 100.60 101.02 100.76 C 104.20 101.20 106.93 100.07 110.02 99.85 C 112.15 100.20 114.25 100.92 116.32 101.53 C 110.81 101.82 105.32 101.63 99.81 101.68 C 85.71 101.60 71.62 101.72 57.52 101.67 C 56.97 87.49 57.94 73.10 61.00 59.22 C 73.66 57.01 86.47 55.98 99.32 56.02 Z"/>
  <path id="path3981" fill="#012f5f" d="M 171.31 57.33 C 172.71 60.53 175.81 64.48 175.29 68.06 C 173.97 72.00 169.99 72.64 166.59 70.80 C 165.56 72.63 164.50 74.44 163.40 76.23 C 162.81 75.07 162.22 73.91 161.63 72.76 C 162.59 71.08 163.56 69.41 164.54 67.75 C 164.17 66.89 163.79 66.03 163.42 65.17 C 161.92 65.93 160.43 66.68 158.93 67.44 C 158.45 66.36 157.98 65.28 157.50 64.20 C 161.29 62.41 165.01 60.49 168.75 58.62 C 169.60 58.19 170.45 57.76 171.31 57.33 Z"/>
  <path id="path3983" fill="#fbc24e" d="M 101.02 60.24 C 101.04 61.73 101.06 63.22 101.08 64.70 C 102.57 64.19 104.06 63.67 105.54 63.16 L 105.24 64.40 C 102.87 67.63 99.26 69.35 96.86 72.53 C 95.91 73.27 94.94 73.99 93.97 74.70 C 93.30 72.03 92.55 69.79 94.40 67.38 C 96.94 65.44 100.45 66.51 100.20 62.37 C 98.44 62.73 96.68 63.11 94.91 63.39 C 96.73 61.89 98.82 61.05 101.02 60.24 Z"/>
  <path id="path3985" fill="#ffffff" d="M 170.10 61.88 C 171.09 64.07 173.80 67.42 170.04 68.54 C 167.94 68.56 167.05 65.24 166.08 63.81 C 167.41 63.16 168.75 62.49 170.10 61.88 Z"/>
  <path id="path3987" fill="#eaaf0d" d="M 105.24 64.40 C 105.08 66.43 105.66 67.97 106.44 69.79 C 105.57 70.13 104.71 70.46 103.83 70.78 C 101.47 71.24 99.14 71.76 96.86 72.53 C 99.26 69.35 102.87 67.63 105.24 64.40 Z"/>
  <path id="path3989" fill="#fefefd" d="M 148.57 68.06 C 158.45 82.92 160.84 102.11 154.96 118.95 C 149.56 134.75 137.19 147.68 121.74 153.95 C 125.27 151.25 128.64 148.40 132.02 145.51 C 149.97 134.09 159.05 110.69 155.07 89.97 C 154.02 84.94 152.73 79.20 149.54 75.08 C 149.12 72.75 148.78 70.41 148.57 68.06 Z"/>
  <path id="path3991" fill="#7ab4dc" d="M 51.04 68.62 C 49.36 83.40 49.02 98.22 51.10 113.00 C 53.15 125.24 59.23 135.67 67.18 145.00 C 50.03 133.46 41.30 111.22 44.76 90.99 C 45.54 85.59 47.40 80.56 49.59 75.59 C 50.40 73.69 50.34 72.94 49.51 71.05 L 49.72 70.66 C 50.15 69.97 50.59 69.29 51.04 68.62 Z"/>
  <path id="path3993" fill="#fbc24d" d="M 85.56 69.89 C 85.64 71.65 85.72 73.41 85.80 75.17 C 87.04 74.80 88.28 74.43 89.52 74.06 L 89.31 75.24 C 86.51 78.78 81.81 80.62 79.81 84.62 L 78.90 85.60 C 78.26 83.27 78.18 81.04 78.27 78.63 C 77.65 79.62 77.02 80.61 76.38 81.60 C 73.56 83.83 70.66 88.13 72.70 91.72 C 70.92 91.44 69.35 91.34 67.59 91.87 C 69.13 93.74 72.44 93.73 74.67 94.45 C 77.61 96.25 80.39 98.28 83.21 100.27 C 80.98 99.99 79.68 100.28 77.70 101.25 C 76.44 99.58 75.28 97.70 73.74 96.28 C 71.47 94.76 68.70 93.89 66.19 92.82 C 67.11 89.58 68.37 87.10 70.61 84.58 C 72.79 82.16 75.29 79.07 78.59 78.32 C 80.62 77.28 82.66 76.28 84.75 75.37 C 84.67 74.27 84.59 73.16 84.51 72.06 C 82.77 72.50 81.05 72.85 79.27 73.08 C 81.25 71.78 83.36 70.77 85.56 69.89 Z"/>
  <path id="path3995" fill="#fbc24e" d="M 106.44 69.79 C 106.65 70.43 106.80 71.07 106.90 71.72 C 104.70 75.61 101.29 77.74 97.73 80.21 L 97.43 81.63 C 96.51 82.40 95.58 83.16 94.65 83.92 C 93.30 81.28 91.88 78.50 93.66 75.65 C 96.99 73.49 101.43 72.81 105.09 71.25 L 103.83 70.78 C 104.71 70.46 105.57 70.13 106.44 69.79 Z"/>
  <path id="path3997" fill="#fefefd" d="M 49.51 71.05 C 50.34 72.94 50.40 73.69 49.59 75.59 C 47.40 80.56 45.54 85.59 44.76 90.99 C 41.30 111.22 50.03 133.46 67.18 145.00 C 70.65 148.05 74.08 151.10 77.84 153.80 C 60.30 146.49 46.95 130.67 43.11 112.01 C 40.12 98.07 42.54 83.45 49.51 71.05 Z"/>
  <path id="path3999" fill="#e9ad01" d="M 106.90 71.72 C 107.12 74.74 107.95 76.73 109.54 79.26 C 105.35 79.42 101.27 79.79 97.43 81.63 L 97.73 80.21 C 101.29 77.74 104.70 75.61 106.90 71.72 Z"/>
  <path id="path4001" fill="#fbc24e" d="M 124.21 74.31 C 124.07 77.23 123.87 80.17 123.87 83.09 C 123.52 81.75 123.20 80.40 122.87 79.05 C 120.51 82.91 118.32 86.70 114.77 89.63 C 114.43 86.03 114.40 82.42 114.40 78.81 C 114.86 78.30 115.34 77.79 115.81 77.29 C 118.58 76.15 121.38 75.26 124.21 74.31 Z"/>
  <path id="path4003" fill="#e9ac01" d="M 89.31 75.24 C 89.25 77.82 90.17 79.72 91.46 81.87 L 90.70 81.97 C 86.85 82.20 83.26 82.82 79.81 84.62 C 81.81 80.62 86.51 78.78 89.31 75.24 Z"/>
  <path id="path4005" fill="#7ab4dc" d="M 149.54 75.08 C 152.73 79.20 154.02 84.94 155.07 89.97 C 159.05 110.69 149.97 134.09 132.02 145.51 C 139.96 136.33 146.13 126.09 148.38 114.01 C 150.47 100.94 150.09 88.22 149.54 75.08 Z"/>
  <path id="path4007" fill="#fefefd" d="M 78.27 78.63 C 78.18 81.04 78.26 83.27 78.90 85.60 L 79.81 84.62 C 83.26 82.82 86.85 82.20 90.70 81.97 C 86.92 83.59 82.92 84.60 79.17 86.24 C 77.11 88.94 78.66 91.77 80.10 94.30 C 81.57 93.86 83.04 93.41 84.51 92.95 C 84.53 93.94 84.54 94.94 84.55 95.93 C 81.22 95.65 77.93 95.22 74.67 94.45 C 72.44 93.73 69.13 93.74 67.59 91.87 C 69.35 91.34 70.92 91.44 72.70 91.72 L 75.38 92.24 C 75.13 88.60 75.29 85.10 76.38 81.60 C 77.02 80.61 77.65 79.62 78.27 78.63 Z"/>
  <path id="path4009" fill="#fbc24e" d="M 109.70 79.30 L 109.30 81.57 C 106.38 86.87 103.29 89.56 97.91 92.24 C 98.51 92.61 99.11 93.00 99.69 93.39 C 98.47 94.00 97.25 94.62 96.04 95.24 C 95.42 94.50 94.81 93.74 94.21 92.98 C 93.49 91.92 92.81 90.83 92.19 89.71 C 92.88 88.11 93.22 85.81 94.46 84.57 C 99.38 82.46 104.61 80.95 109.70 79.30 Z"/>
  <path id="path4011" fill="#e9ae08" d="M 76.38 81.60 C 75.29 85.10 75.13 88.60 75.38 92.24 L 72.70 91.72 C 70.66 88.13 73.56 83.83 76.38 81.60 Z"/>
  <path id="path4013" fill="#fbc24e" d="M 90.70 81.97 L 91.46 81.87 L 91.38 83.61 C 89.78 85.99 88.25 88.21 85.71 89.68 C 83.54 90.97 81.56 92.16 80.10 94.30 C 78.66 91.77 77.11 88.94 79.17 86.24 C 82.92 84.60 86.92 83.59 90.70 81.97 Z"/>
  <path id="path4015" fill="#ffffff" d="M 85.72 92.72 C 88.56 92.71 91.38 92.81 94.21 92.98 C 94.81 93.74 95.42 94.50 96.04 95.24 C 97.25 94.62 98.47 94.00 99.69 93.39 L 99.94 96.56 C 95.18 96.59 90.43 96.43 85.67 96.19 C 85.69 95.03 85.71 93.88 85.72 92.72 Z"/>
  <path id="path4017" fill="#ffffff" d="M 101.12 92.81 C 104.98 92.91 110.78 92.24 113.90 94.91 C 109.54 95.35 105.44 96.62 101.05 96.64 C 101.07 95.36 101.09 94.08 101.12 92.81 Z"/>
  <path id="path4019" fill="#80b6db" d="M 22.01 95.53 C 22.05 98.73 22.04 101.93 22.01 105.12 L 19.93 105.13 C 19.93 102.99 19.96 100.81 19.80 98.67 C 19.10 98.07 18.40 97.47 17.71 96.87 C 19.04 95.96 20.46 95.89 22.01 95.53 Z"/>
  <path id="path4021" fill="#8abcde" d="M 29.92 96.01 C 31.35 96.95 31.05 98.47 31.30 99.97 C 31.29 101.81 32.03 104.06 29.91 104.98 C 28.20 105.54 25.32 105.51 24.46 103.58 C 24.37 101.34 24.65 99.07 24.82 96.84 C 26.53 95.71 27.89 95.17 29.92 96.01 Z"/>
  <path id="path4023" fill="#8abcde" d="M 173.14 96.93 C 174.69 99.27 174.22 103.26 171.86 104.93 C 169.87 105.57 167.26 105.71 166.68 103.19 C 168.29 103.10 169.91 103.02 171.52 102.94 C 169.62 101.83 166.43 101.77 166.40 98.99 C 166.42 95.43 171.13 94.44 173.14 96.93 Z"/>
  <path id="path4025" fill="#8dbee0" d="M 182.21 95.39 C 182.36 97.94 182.30 100.20 183.72 102.42 C 182.89 103.49 182.05 104.55 181.22 105.61 C 180.69 104.86 180.16 104.10 179.63 103.35 C 178.02 103.16 176.52 102.90 175.03 102.24 C 177.06 99.91 179.04 96.16 182.21 95.39 Z"/>
  <path id="path4027" fill="#d0e4f0" d="M 27.12 97.28 C 28.79 96.34 29.95 98.45 28.72 99.68 C 27.06 100.65 25.83 98.50 27.12 97.28 Z"/>
  <path id="path4029" fill="#e5f1f6" d="M 169.99 97.28 C 170.79 97.26 171.39 97.61 171.79 98.32 C 172.41 100.29 169.22 100.88 168.72 99.03 C 168.69 98.10 169.12 97.52 169.99 97.28 Z"/>
  <path id="path4031" fill="#fafcfc" d="M 179.28 100.26 C 179.95 100.94 179.95 100.94 179.28 100.26 Z"/>
  <path id="path4033" fill="#d1e5f0" d="M 30.10 102.34 C 28.36 103.48 28.15 104.03 26.08 102.98 L 26.05 102.00 C 28.17 100.56 28.11 101.06 30.10 102.34 Z"/>
  <path style="fill:#ffffff;fill-opacity:0" id="path4035" fill="#ffffff" d="M 0.00 103.69 C 0.64 117.12 3.72 130.36 9.50 142.52 C 17.86 160.30 31.56 175.46 48.38 185.62 C 62.35 194.17 78.17 198.76 94.45 200.00 L 0.00 200.00 L 0.00 103.69 Z"/>
  <path id="path4037" fill="#a8c9e8" d="M 57.97 105.28 C 62.51 105.32 67.05 105.32 71.59 105.31 C 75.77 111.10 80.54 116.48 85.15 121.93 C 83.92 122.62 82.66 123.24 81.41 123.86 C 82.17 125.03 82.94 126.20 83.69 127.39 C 83.98 131.53 87.08 134.13 86.72 138.52 C 84.11 138.02 82.93 135.56 81.27 133.71 C 73.57 124.35 65.92 114.93 58.02 105.73 L 57.97 105.28 Z"/>
  <path id="path4039" fill="#7ab4dc" d="M 71.59 105.31 C 76.68 105.30 81.78 105.30 86.88 105.31 C 89.37 108.64 91.98 111.78 94.86 114.79 C 92.01 117.95 88.40 119.36 85.15 121.93 C 80.54 116.48 75.77 111.10 71.59 105.31 Z"/>
  <path id="path4041" fill="#a8c9e8" d="M 86.88 105.31 C 91.20 105.31 95.53 105.31 99.85 105.30 C 102.53 108.56 105.24 111.79 107.92 115.05 C 108.89 116.17 109.30 117.21 109.59 118.64 C 106.37 115.91 102.61 113.65 99.91 110.39 C 98.36 112.05 96.83 113.60 94.86 114.79 C 91.98 111.78 89.37 108.64 86.88 105.31 Z"/>
  <path id="path4043" fill="#7ab4dc" d="M 99.85 105.30 C 105.10 105.31 110.36 105.30 115.61 105.32 C 121.84 113.61 128.70 121.49 135.36 129.43 C 133.24 133.02 130.73 136.31 127.83 139.31 C 124.32 134.76 120.72 130.29 116.74 126.13 C 117.22 125.38 117.70 124.64 118.20 123.91 C 115.07 122.52 112.66 120.12 109.59 118.64 C 109.30 117.21 108.89 116.17 107.92 115.05 C 105.24 111.79 102.53 108.56 99.85 105.30 Z"/>
  <path id="path4045" fill="#a8c9e8" d="M 115.61 105.32 C 120.26 105.31 124.92 105.31 129.57 105.32 C 132.79 109.87 136.43 114.06 140.10 118.25 C 139.01 122.16 137.39 125.91 135.36 129.43 C 128.70 121.49 121.84 113.61 115.61 105.32 Z"/>
  <path id="path4047" fill="#7ab4dc" d="M 129.57 105.32 C 133.68 105.30 137.80 105.30 141.92 105.31 C 141.59 109.68 141.20 113.98 140.10 118.25 C 136.43 114.06 132.79 109.87 129.57 105.32 Z"/>
  <path id="path4049" fill="#7ab4dc" d="M 58.02 105.73 C 65.92 114.93 73.57 124.35 81.27 133.71 C 82.93 135.56 84.11 138.02 86.72 138.52 C 87.25 139.28 87.79 140.04 88.32 140.80 C 88.34 142.14 88.36 143.48 88.38 144.82 C 89.06 144.73 89.73 144.64 90.41 144.55 C 93.32 148.31 96.55 151.76 99.07 155.82 C 85.50 151.29 72.90 143.11 65.17 130.85 C 60.35 123.28 57.97 114.70 58.02 105.73 Z"/>
  <path style="fill:#ffffff;fill-opacity:0" id="path4051" fill="#ffffff" d="M 200.00 105.55 L 200.00 200.00 L 105.30 200.00 C 117.95 199.02 130.33 196.22 141.84 190.82 C 159.91 182.49 175.33 168.65 185.62 151.62 C 194.17 137.65 198.76 121.83 200.00 105.55 Z"/>
  <path id="path4053" fill="#012f5f" d="M 99.91 110.39 C 102.61 113.65 106.37 115.91 109.59 118.64 C 112.66 120.12 115.07 122.52 118.20 123.91 C 117.70 124.64 117.22 125.38 116.74 126.13 L 116.16 127.26 C 115.85 131.21 113.00 133.71 113.11 137.81 C 112.01 140.20 111.39 142.37 111.08 144.98 C 108.73 144.41 106.70 143.99 104.31 144.69 C 102.25 144.26 100.31 143.78 98.19 144.22 C 95.59 144.70 93.02 144.20 90.41 144.55 C 89.73 144.64 89.06 144.73 88.38 144.82 C 88.36 143.48 88.34 142.14 88.32 140.80 C 87.79 140.04 87.25 139.28 86.72 138.52 C 87.08 134.13 83.98 131.53 83.69 127.39 C 82.94 126.20 82.17 125.03 81.41 123.86 C 82.66 123.24 83.92 122.62 85.15 121.93 C 88.40 119.36 92.01 117.95 94.86 114.79 C 96.83 113.60 98.36 112.05 99.91 110.39 Z"/>
  <path id="path4055" fill="#ac1f29" d="M 99.13 113.36 C 100.85 112.42 101.79 114.66 100.66 115.87 C 98.99 117.04 97.98 114.47 99.13 113.36 Z"/>
  <path id="path4057" fill="#d61a1c" d="M 96.96 115.95 C 98.85 116.38 99.40 117.12 99.36 119.08 C 95.77 119.34 94.48 122.39 91.16 123.48 C 90.94 124.45 90.73 125.42 90.51 126.38 C 88.94 125.21 87.10 124.52 88.05 122.13 C 89.63 120.64 92.01 120.22 93.52 118.53 C 94.54 117.68 95.59 116.15 96.96 115.95 Z"/>
  <path id="path4059" fill="#e51917" d="M 102.99 116.12 C 104.15 115.99 105.00 117.51 105.85 118.16 C 107.40 119.85 109.38 120.46 111.26 121.66 C 111.82 122.92 112.23 124.25 112.68 125.56 L 113.49 123.50 L 115.69 124.31 C 115.41 124.85 115.12 125.38 114.84 125.91 C 113.48 125.81 112.11 125.70 110.75 125.58 L 113.47 127.80 C 114.53 129.13 112.73 130.93 112.30 132.28 C 111.21 134.15 111.69 136.80 110.52 138.48 C 108.93 139.13 106.86 139.23 105.70 140.52 C 107.04 140.41 108.39 140.29 109.74 140.17 C 109.70 141.13 109.67 142.09 109.63 143.05 C 108.67 142.39 107.71 141.72 106.76 141.06 C 105.90 141.57 105.05 142.08 104.19 142.59 C 100.11 140.76 96.48 143.75 93.03 141.13 C 92.11 141.77 91.19 142.42 90.28 143.06 C 90.25 142.06 90.21 141.06 90.18 140.06 C 91.31 140.29 92.43 140.53 93.56 140.77 L 93.51 139.43 C 92.19 139.06 89.74 139.28 88.91 137.98 C 88.47 135.79 88.41 133.68 87.24 131.71 C 86.86 130.64 85.69 129.28 86.20 128.17 C 86.44 126.41 88.95 126.63 90.24 126.46 C 88.17 130.05 91.44 131.90 91.41 135.90 C 93.08 137.10 94.76 138.27 96.46 139.43 C 98.87 139.10 101.06 139.10 103.47 139.42 C 105.04 138.36 106.70 137.33 108.10 136.05 C 108.98 133.71 109.28 131.28 110.60 129.07 C 109.94 127.17 109.26 125.27 108.56 123.38 C 105.37 122.23 103.99 119.29 100.52 119.04 C 100.43 117.31 101.13 116.05 102.99 116.12 Z"/>
  <path id="path4061" fill="#e51918" d="M 99.30 120.59 C 99.42 122.74 99.44 124.90 99.47 127.06 C 98.70 127.46 97.94 127.85 97.18 128.24 C 94.95 127.47 92.83 126.89 91.14 125.13 C 93.57 123.77 96.35 120.08 99.30 120.59 Z"/>
  <path id="path4063" fill="#e51818" d="M 101.97 120.12 C 104.14 121.76 106.48 123.26 108.48 125.11 C 107.03 127.59 102.93 128.33 100.35 127.37 C 100.67 125.37 99.59 120.94 101.97 120.12 Z"/>
  <path id="path4065" fill="#c31c22" d="M 84.45 124.16 C 85.44 123.31 87.95 124.37 87.01 125.77 C 85.95 126.62 83.72 125.58 84.45 124.16 Z"/>
  <path id="path4067" fill="#a8c9e8" d="M 116.16 127.26 L 116.74 126.13 C 120.72 130.29 124.32 134.76 127.83 139.31 C 125.47 141.71 122.94 143.91 120.22 145.89 C 118.04 143.00 115.88 140.18 113.11 137.81 C 113.00 133.71 115.85 131.21 116.16 127.26 Z"/>
  <path id="path4069" fill="#e51918" d="M 90.43 127.44 C 92.93 127.82 95.21 128.43 97.57 129.34 C 97.67 130.13 97.77 130.91 97.88 131.70 C 96.55 133.39 95.20 135.06 93.79 136.69 C 91.56 134.40 91.08 130.45 90.43 127.44 Z"/>
  <path id="path4071" fill="#e4b651" d="M 99.13 128.33 C 100.78 127.40 102.11 129.39 100.79 130.65 C 99.16 131.59 97.79 129.58 99.13 128.33 Z"/>
  <path id="path4073" fill="#e51918" d="M 109.43 128.85 C 108.59 131.53 107.82 134.44 106.25 136.76 C 104.34 134.42 101.57 132.77 102.23 129.36 C 104.31 128.91 108.18 126.16 109.43 128.85 Z"/>
  <path id="path4075" fill="#e51918" d="M 100.94 131.69 C 102.29 133.38 103.57 135.08 104.53 137.04 C 103.08 139.33 98.29 138.05 95.93 138.11 C 94.65 136.04 98.50 131.20 100.94 131.69 Z"/>
  <path id="path4077" fill="#7ab4dc" d="M 113.11 137.81 C 115.88 140.18 118.04 143.00 120.22 145.89 C 116.97 148.22 113.56 150.25 109.97 152.01 C 107.95 149.67 106.03 147.26 104.31 144.69 C 106.70 143.99 108.73 144.41 111.08 144.98 C 111.39 142.37 112.01 140.20 113.11 137.81 Z"/>
  <path id="path4079" fill="#a8c9e8" d="M 98.19 144.22 C 100.31 143.78 102.25 144.26 104.31 144.69 C 106.03 147.26 107.95 149.67 109.97 152.01 C 106.70 153.56 103.33 155.00 99.87 156.09 L 99.07 155.82 C 96.55 151.76 93.32 148.31 90.41 144.55 C 93.02 144.20 95.59 144.70 98.19 144.22 Z"/>
  <path id="path4081" fill="#012f5f" d="M 87.76 168.31 C 88.15 169.31 86.66 170.44 86.22 171.28 C 84.15 170.33 82.43 168.92 80.07 170.01 C 76.43 171.69 76.44 177.39 80.03 179.11 C 82.49 180.21 84.13 178.85 86.26 177.85 C 86.98 178.59 87.71 179.34 88.43 180.08 C 85.40 182.62 81.85 183.66 78.10 181.93 C 73.46 179.71 72.27 173.38 75.40 169.41 C 78.33 165.67 84.15 165.46 87.76 168.31 Z"/>
  <path id="path4083" fill="#012f60" d="M 91.61 166.64 C 92.79 166.64 93.96 166.64 95.14 166.65 C 95.10 171.96 95.25 177.24 95.02 182.56 C 93.88 182.52 92.74 182.48 91.61 182.44 C 91.62 177.17 91.61 171.90 91.61 166.64 Z"/>
  <path id="path4085" fill="#012f5f" d="M 98.42 166.62 C 102.78 166.65 107.13 166.64 111.49 166.64 C 111.49 167.73 111.49 168.81 111.49 169.90 C 109.89 169.90 108.29 169.90 106.69 169.90 C 106.69 174.12 106.72 178.33 106.62 182.55 C 105.47 182.51 104.31 182.47 103.15 182.44 C 103.17 178.27 103.16 174.09 103.16 169.92 C 101.54 169.90 99.93 169.89 98.31 169.87 C 98.35 168.79 98.38 167.71 98.42 166.62 Z"/>
  <path id="path4087" fill="#012f5f" d="M 112.92 166.65 C 114.29 166.64 115.66 166.64 117.02 166.64 C 118.27 168.75 119.53 170.85 120.78 172.94 C 122.06 170.83 123.34 168.72 124.64 166.61 C 125.96 166.63 127.28 166.64 128.61 166.66 C 126.95 169.31 125.18 171.90 123.54 174.57 C 121.89 176.74 122.66 179.86 122.50 182.48 C 121.33 182.48 120.17 182.48 119.01 182.47 C 118.99 180.41 119.13 178.27 118.81 176.23 C 117.69 173.83 116.03 171.66 114.65 169.40 C 114.07 168.49 113.50 167.57 112.92 166.65 Z"/>
</svg>