<?xml version="1.0" encoding="UTF-8" standalone="no"?>
<svg xmlns:dc="http://purl.org/dc/elements/1.1/" xmlns:cc="http://creativecommons.org/ns#" xmlns:rdf="http://www.w3.org/1999/02/22-rdf-syntax-ns#" xmlns:svg="http://www.w3.org/2000/svg" xmlns="http://www.w3.org/2000/svg" xmlns:sodipodi="http://sodipodi.sourceforge.net/DTD/sodipodi-0.dtd" xmlns:inkscape="http://www.inkscape.org/namespaces/inkscape" inkscape:version="1.0 (4035a4f, 2020-05-01)" sodipodi:docname="66.svg" id="svg21782" height="200.0pt" width="200.0pt" viewBox="0 0 200 200" version="1.1">
  <metadata id="metadata21788">
    <rdf:RDF>
      <cc:Work rdf:about="">
        <dc:format>image/svg+xml</dc:format>
        <dc:type rdf:resource="http://purl.org/dc/dcmitype/StillImage"/>
      </cc:Work>
    </rdf:RDF>
  </metadata>
  <defs id="defs21786"/>
  <sodipodi:namedview inkscape:current-layer="svg21782" inkscape:cy="133.33333" inkscape:cx="133.33333" inkscape:zoom="1.75125" showgrid="false" id="namedview21784" inkscape:window-height="480" inkscape:window-width="640" inkscape:pageshadow="2" inkscape:pageopacity="0" guidetolerance="10" gridtolerance="10" objecttolerance="10" borderopacity="1" bordercolor="#666666" pagecolor="#ffffff"/>
  <path style="fill:#ffffff;fill-opacity:0" id="path21630" fill="#ffffff" d="M 0.00 0.00 L 200.00 0.00 L 200.00 200.00 L 0.00 200.00 L 0.00 0.00 Z"/>
  <path id="path21632" fill="#b80100" d="M 99.99 2.00 C 103.15 3.68 104.37 7.40 106.02 10.02 C 110.16 6.96 115.61 3.41 121.01 4.27 C 126.23 5.29 128.82 10.44 129.49 15.29 L 130.06 15.79 C 137.77 19.03 145.03 23.16 151.58 28.37 C 152.99 29.41 153.96 30.76 155.64 31.39 L 156.11 29.69 C 156.14 30.49 156.01 31.18 155.80 31.95 C 160.59 36.11 164.55 40.91 168.53 45.79 C 168.58 43.11 168.71 40.73 170.74 38.75 C 172.51 37.09 175.05 37.77 176.50 39.47 C 180.15 43.50 183.99 47.36 187.80 51.22 C 189.53 52.95 190.09 56.35 188.17 58.15 C 186.64 59.70 184.82 59.31 182.87 59.07 C 182.77 60.07 182.69 61.07 182.64 62.07 C 183.85 64.06 186.61 65.19 188.36 66.76 C 188.91 68.40 188.25 70.53 188.18 72.23 C 188.91 73.57 189.61 74.69 189.59 76.28 C 189.29 75.12 188.99 74.26 188.08 73.41 C 187.28 80.34 184.56 86.55 178.91 90.84 C 183.87 91.35 188.47 93.49 191.62 97.42 C 195.42 101.81 196.12 107.46 195.06 113.03 C 192.91 121.79 183.98 127.62 175.08 126.17 C 179.34 129.88 181.53 135.38 180.65 141.00 C 179.83 145.81 177.17 150.50 174.48 154.50 C 165.71 167.33 152.77 177.31 138.38 183.08 C 138.24 183.49 138.19 183.92 138.23 184.38 L 137.19 183.71 C 134.04 185.17 130.69 186.06 127.53 187.45 C 126.18 190.96 123.83 194.83 119.97 195.90 C 120.22 197.02 120.80 197.38 121.65 198.05 C 120.73 197.78 119.97 197.15 119.36 196.18 C 114.75 197.05 110.75 195.72 107.76 192.06 C 105.68 195.94 102.75 198.94 97.99 198.56 C 94.14 198.13 91.96 195.64 90.00 192.59 C 86.34 196.09 81.33 197.63 76.56 195.42 C 73.27 193.74 71.94 190.88 70.32 187.77 C 59.75 184.18 49.57 179.84 40.50 173.20 C 39.32 172.35 38.39 171.24 36.94 170.96 C 36.25 169.35 34.40 168.39 33.21 167.11 C 30.44 164.65 28.55 162.10 25.95 159.83 C 25.40 158.58 24.27 156.71 22.95 156.19 C 22.91 155.57 22.72 155.04 22.38 154.59 C 19.39 150.41 17.25 145.93 15.87 140.98 C 15.92 138.73 15.89 136.50 15.86 134.26 C 16.15 133.94 16.50 133.64 16.90 133.36 C 17.55 130.33 19.62 128.64 21.15 126.20 C 17.47 126.67 14.01 126.02 10.78 124.22 C 9.82 123.71 9.05 123.06 7.92 123.00 C 7.72 121.70 6.16 120.62 5.07 120.02 C 4.54 118.60 4.13 117.24 4.35 115.69 C 7.11 119.88 10.41 123.24 15.50 124.34 C 24.74 126.82 34.65 119.52 35.12 110.01 C 36.04 101.92 30.03 94.13 22.03 92.82 C 14.77 91.41 7.44 95.39 4.37 102.06 C 3.26 97.93 8.16 94.24 11.46 92.91 C 11.58 92.53 11.71 92.16 11.84 91.78 C 13.76 92.37 16.04 90.92 18.04 90.80 C 13.73 87.78 11.21 83.89 9.78 78.85 C 9.27 79.04 8.75 79.23 8.24 79.42 C 8.77 79.07 9.31 78.73 9.85 78.40 C 7.98 74.42 8.92 69.45 7.31 65.45 C 7.70 65.95 8.13 66.42 8.59 66.85 C 10.42 65.10 12.64 63.88 14.44 62.07 C 14.52 61.03 14.46 60.02 14.26 59.03 C 12.27 59.36 10.42 59.76 8.85 58.15 C 6.96 56.23 7.42 53.10 9.30 51.33 C 13.28 47.30 17.23 43.24 21.01 39.02 C 22.28 37.89 24.13 37.31 25.70 38.23 C 28.02 39.64 28.38 42.26 28.64 44.73 C 29.54 44.52 30.24 43.84 30.75 42.68 C 40.30 30.84 52.73 21.43 66.87 15.75 C 67.80 13.28 68.04 10.82 69.62 8.59 C 71.41 5.77 74.64 3.88 78.02 4.15 C 83.15 4.65 86.84 7.29 90.94 10.08 C 92.45 7.49 94.23 4.47 96.68 2.67 C 97.61 2.06 98.90 1.35 99.99 2.00 Z"/>
  <path id="path21634" fill="#fff200" d="M 96.92 4.12 C 100.84 2.17 101.92 7.03 103.52 9.46 C 100.98 9.74 98.45 9.99 95.89 9.91 C 96.94 8.95 98.00 8.04 98.89 6.92 C 98.11 6.05 97.46 5.12 96.92 4.12 Z"/>
  <path id="path21636" fill="#fff200" d="M 76.97 5.94 C 80.42 5.55 83.12 7.02 85.77 9.01 L 85.60 10.27 C 81.48 11.67 77.00 12.22 72.81 13.57 C 71.90 13.19 71.88 12.53 72.73 11.57 C 74.54 12.63 77.57 11.97 78.44 10.02 C 78.38 8.67 77.88 7.95 76.94 7.86 C 75.71 7.53 74.96 9.17 74.12 9.87 C 72.73 7.55 74.73 5.96 76.97 5.94 Z"/>
  <path id="path21638" fill="#fff200" d="M 121.64 6.36 C 123.21 7.42 123.19 8.09 122.87 9.87 C 121.94 9.17 121.15 8.08 120.03 7.76 C 118.52 8.09 117.48 9.88 118.97 11.00 C 120.91 12.77 122.71 11.96 125.00 11.63 L 124.47 13.68 C 119.77 12.48 115.11 11.21 110.31 10.40 C 110.08 8.85 111.71 8.56 112.71 7.76 C 115.29 6.07 118.70 5.39 121.64 6.36 Z"/>
  <path id="path21640" fill="#f10000" d="M 70.41 10.31 C 71.26 10.61 71.99 11.08 72.73 11.57 C 71.88 12.53 71.90 13.19 72.81 13.57 C 71.89 13.71 70.97 13.82 70.04 13.90 C 69.95 12.69 70.08 11.49 70.41 10.31 Z"/>
  <path id="path21642" fill="#fff200" d="M 125.19 15.75 C 142.64 21.65 157.92 33.47 168.38 48.59 C 173.43 55.67 179.23 62.65 186.61 67.39 L 187.00 68.05 C 186.82 74.58 185.24 82.63 180.38 87.38 C 175.98 91.78 168.96 92.27 163.61 89.37 C 157.08 85.96 151.89 79.17 147.78 73.21 C 139.96 62.25 129.63 52.14 117.01 46.97 C 105.45 42.10 92.16 42.00 80.51 46.63 C 67.52 51.77 57.11 61.82 49.08 73.02 C 44.79 79.20 39.54 86.24 32.62 89.61 C 27.17 92.35 20.22 91.57 15.97 87.03 C 11.38 82.12 9.87 74.51 9.80 68.00 C 10.25 67.39 10.81 66.87 11.48 66.45 C 18.76 61.47 24.70 53.86 29.72 46.69 C 39.61 33.02 53.64 22.37 69.45 16.47 C 87.24 10.00 107.24 9.75 125.19 15.75 Z"/>
  <path id="path21644" fill="#f10000" d="M 119.99 16.10 C 137.93 20.96 153.82 32.22 164.97 47.01 C 169.49 53.34 174.00 59.42 179.82 64.65 C 178.38 66.46 178.55 68.63 177.89 70.90 C 176.53 76.13 174.85 81.10 169.65 83.64 C 166.19 85.56 163.30 84.35 159.65 84.40 C 153.47 79.28 150.21 72.85 145.19 66.83 C 137.41 57.20 127.37 48.65 115.60 44.44 C 103.44 39.98 89.62 40.47 77.79 45.75 C 65.52 51.16 55.51 60.99 47.74 71.75 C 44.29 76.71 40.31 82.27 35.32 85.78 C 32.83 85.01 30.54 86.14 28.09 84.80 C 22.36 82.31 20.09 76.83 18.83 71.09 C 18.16 68.99 18.76 65.98 16.97 64.56 C 21.77 60.14 25.95 55.05 29.76 49.76 C 40.55 34.23 56.55 22.07 74.76 16.67 C 89.35 12.33 105.30 12.13 119.99 16.10 Z"/>
  <path id="path21646" fill="#fff200" d="M 85.89 20.31 C 86.94 20.30 87.58 20.86 87.81 21.98 L 87.03 22.77 C 84.71 22.48 82.79 22.21 80.91 23.90 C 76.83 27.39 79.46 35.57 85.01 35.39 C 86.99 35.65 88.31 33.41 90.12 33.81 C 91.67 35.66 89.36 36.31 88.08 37.07 C 85.74 37.99 82.78 38.13 80.33 37.61 C 75.09 36.14 72.60 29.09 75.65 24.62 C 77.84 21.45 82.14 19.89 85.89 20.31 Z"/>
  <path id="path21648" fill="#fff200" d="M 93.07 19.78 C 94.34 19.30 95.77 19.26 97.38 19.65 C 97.56 21.89 97.33 24.13 97.42 26.38 C 99.50 26.31 101.58 26.35 103.66 26.45 C 103.91 24.26 103.72 22.06 103.95 19.87 C 105.25 19.49 106.66 19.48 108.16 19.85 C 108.44 25.21 108.17 30.71 107.99 36.08 C 106.66 36.42 105.25 36.44 103.76 36.13 C 103.46 33.62 103.84 31.10 103.68 28.58 C 101.58 28.64 99.47 28.61 97.37 28.52 C 97.15 31.01 97.47 33.56 97.04 36.02 C 95.64 36.20 94.29 36.19 92.97 35.99 C 92.59 30.65 92.92 25.14 93.07 19.78 Z"/>
  <path id="path21650" fill="#fff200" d="M 116.49 21.35 C 119.39 21.33 122.96 23.31 125.79 24.26 C 125.89 27.83 121.88 24.58 120.04 25.00 C 119.59 26.27 118.87 27.51 119.06 28.90 C 120.39 29.71 124.63 29.87 123.08 32.24 C 121.57 32.84 119.67 31.42 118.09 31.13 C 117.44 32.56 116.19 34.53 116.62 36.09 C 118.06 37.05 123.22 37.13 121.72 39.74 C 118.64 39.95 114.95 37.70 111.86 36.96 L 111.34 36.13 C 113.23 31.27 114.79 26.28 116.49 21.35 Z"/>
  <path id="path21652" fill="#fff200" d="M 66.97 25.93 L 67.60 26.37 C 70.36 30.86 73.30 35.27 75.91 39.85 C 74.97 40.49 74.01 41.11 73.04 41.70 C 68.37 40.16 63.74 38.38 59.18 36.53 C 60.56 39.94 64.17 43.40 64.90 46.81 C 63.94 47.43 62.97 48.01 61.98 48.54 C 59.52 45.44 57.70 41.81 55.48 38.52 C 54.79 37.21 53.41 35.83 53.26 34.34 C 54.20 33.79 55.12 33.24 56.04 32.66 C 60.46 33.82 64.63 36.24 69.11 37.11 C 68.05 33.87 65.37 31.17 63.95 28.05 C 64.53 26.99 65.95 26.47 66.97 25.93 Z"/>
  <path id="path21654" fill="#fff200" d="M 132.12 28.27 C 135.74 27.87 139.52 30.49 140.79 33.85 C 137.97 36.08 138.42 32.47 136.04 31.61 C 134.73 30.99 132.87 31.99 133.45 33.57 C 134.81 36.82 138.01 39.87 135.41 43.46 C 133.01 46.83 128.49 45.49 125.87 43.14 C 124.61 41.83 121.71 39.26 125.10 38.42 C 126.50 39.90 126.86 41.62 128.95 42.34 C 130.25 42.64 131.86 41.40 131.73 40.04 C 131.13 37.63 129.07 35.50 128.67 33.02 C 128.50 30.93 129.91 28.53 132.12 28.27 Z"/>
  <path id="path21656" fill="#fff200" d="M 144.79 35.25 C 148.05 38.10 151.31 41.02 154.44 44.00 C 153.49 47.46 151.44 43.99 149.97 43.02 C 146.42 45.29 143.45 50.41 140.00 53.13 C 139.16 52.39 136.97 51.30 137.11 50.06 C 140.02 46.63 143.16 43.38 146.09 39.97 C 145.71 38.49 143.09 37.63 143.18 36.15 C 143.71 35.37 144.25 35.07 144.79 35.25 Z"/>
  <path id="path21658" fill="#fff200" d="M 25.08 40.46 C 27.18 41.28 27.15 46.04 26.90 47.90 C 23.98 52.65 19.99 56.82 16.19 60.88 C 15.99 59.27 15.29 57.98 16.76 56.75 C 19.84 53.77 22.36 50.36 24.80 46.86 C 24.41 45.67 23.19 44.88 22.32 44.01 C 23.37 42.99 24.08 41.35 25.08 40.46 Z"/>
  <path id="path21660" fill="#f10000" d="M 175.60 40.40 C 176.32 42.75 175.73 43.44 174.02 44.92 C 173.20 43.50 172.23 42.20 171.19 40.95 C 172.45 39.63 174.02 39.94 175.60 40.40 Z"/>
  <path id="path21662" fill="#fff200" d="M 171.19 40.95 C 172.23 42.20 173.20 43.50 174.02 44.92 C 173.14 45.45 172.60 46.11 172.40 46.91 C 174.62 50.20 176.97 53.38 179.80 56.19 C 181.48 57.67 181.38 58.34 181.15 60.53 L 180.16 60.39 C 176.58 56.54 172.71 52.52 170.10 47.91 C 169.85 45.62 170.03 43.00 171.19 40.95 Z"/>
  <path id="path21664" fill="#fff200" d="M 44.97 43.06 C 49.00 44.62 52.93 46.44 56.94 48.05 C 58.12 48.60 59.66 48.95 60.52 49.95 C 59.63 50.95 58.78 51.96 57.78 52.86 C 56.19 53.12 54.67 51.57 53.02 51.55 C 51.90 52.72 50.79 53.89 49.68 55.07 C 49.54 57.76 53.16 59.07 49.92 61.36 L 49.16 60.95 C 46.64 55.99 44.09 51.03 41.66 46.01 C 42.39 45.09 43.63 42.90 44.97 43.06 Z"/>
  <path id="path21666" fill="#fff200" d="M 177.45 43.22 C 179.60 44.74 181.19 47.07 183.15 48.85 C 184.86 50.81 187.52 52.28 187.81 55.01 C 187.77 56.47 186.40 57.54 185.00 57.58 C 181.06 55.44 179.29 52.03 176.10 48.93 C 174.62 47.22 175.76 46.24 176.73 44.72 L 177.45 43.22 Z"/>
  <path id="path21668" fill="#fff200" d="M 19.20 43.26 C 20.06 44.29 20.75 45.41 21.48 46.52 C 22.19 48.33 19.88 49.76 18.98 51.10 C 17.08 53.74 14.78 55.90 11.99 57.58 C 9.62 57.43 8.44 55.06 9.87 53.05 C 12.11 50.31 14.94 47.99 17.28 45.30 C 17.92 44.62 18.56 43.94 19.20 43.26 Z"/>
  <path id="path21670" fill="#ffffff" d="M 95.00 44.96 C 105.37 44.12 115.69 47.01 124.43 52.57 C 125.27 53.20 126.86 53.74 127.03 54.88 C 107.92 54.85 88.73 54.86 69.61 54.87 C 69.89 53.64 72.68 52.20 73.87 52.03 C 74.64 54.25 76.10 53.38 77.99 53.65 C 92.69 53.58 107.83 53.68 122.46 53.60 L 122.75 53.38 C 108.17 53.43 93.58 53.36 79.00 53.42 C 77.06 53.27 74.94 53.96 73.81 51.91 C 74.32 50.88 75.13 50.67 76.23 51.28 C 76.13 49.20 76.67 50.07 78.20 50.24 C 78.26 49.85 78.32 49.46 78.40 49.08 C 83.82 47.04 89.14 45.20 95.00 44.96 Z"/>
  <path id="path21672" fill="#fff200" d="M 158.03 47.92 C 159.56 50.19 162.51 52.48 163.32 54.97 C 161.25 57.80 160.04 52.60 158.24 52.34 C 157.08 53.12 156.09 53.96 155.15 55.00 C 155.76 56.34 159.80 58.96 156.96 60.05 C 155.36 59.80 154.58 57.36 153.07 56.66 C 151.80 57.71 150.37 58.64 149.39 59.95 C 150.46 61.56 152.58 63.06 153.03 64.94 C 152.41 65.63 151.82 65.90 151.26 65.75 C 149.07 63.20 146.82 60.68 144.80 58.00 C 148.02 54.58 152.11 51.78 155.60 48.60 C 156.29 48.18 157.33 46.69 158.03 47.92 Z"/>
  <path id="path21674" fill="#f10000" d="M 46.00 48.15 C 47.63 48.78 49.19 49.56 50.78 50.26 C 50.41 51.25 49.21 52.85 48.10 52.91 C 47.25 51.30 46.14 50.00 46.00 48.15 Z"/>
  <path id="path21676" fill="#fff200" d="M 35.02 53.02 C 39.37 55.87 43.50 60.07 47.69 63.31 C 47.25 64.65 45.94 65.77 45.01 66.79 C 41.99 64.88 39.58 61.65 36.40 60.11 C 38.14 63.67 40.17 67.13 41.72 70.77 C 41.29 71.65 40.71 72.07 40.00 72.00 C 36.30 71.15 32.71 69.72 29.12 68.50 C 31.35 71.38 34.99 73.15 37.29 75.99 C 36.81 76.65 36.32 77.30 35.82 77.95 L 35.09 77.81 C 31.00 74.62 27.09 71.10 23.05 67.82 C 23.09 66.62 24.81 64.76 25.90 64.40 C 29.63 65.58 33.32 67.08 37.14 67.96 C 36.36 63.98 33.05 60.23 32.19 56.26 C 33.09 55.12 33.93 53.99 35.02 53.02 Z"/>
  <path id="path21678" fill="#fff200" d="M 72.00 56.44 C 91.18 56.51 110.37 56.30 129.54 56.55 C 130.46 57.35 131.43 58.10 132.39 58.84 C 131.01 58.24 129.49 58.05 127.83 58.27 C 108.89 58.30 89.94 58.30 71.00 58.26 C 69.06 58.12 67.36 58.62 65.69 57.43 C 67.40 55.94 69.84 56.63 72.00 56.44 Z"/>
  <path id="path21680" fill="#f10000" d="M 65.69 57.43 C 67.36 58.62 69.06 58.12 71.00 58.26 C 89.94 58.30 108.89 58.30 127.83 58.27 C 128.46 61.31 129.80 64.14 130.49 67.15 C 130.78 70.56 130.41 73.97 130.95 77.38 C 127.07 76.91 123.21 76.91 119.31 76.87 C 119.20 75.88 119.10 74.88 118.99 73.89 C 117.42 73.63 115.79 73.71 114.21 73.67 C 114.16 73.00 114.20 72.32 114.33 71.64 C 115.75 71.89 117.05 71.80 118.24 71.38 C 118.21 68.54 118.39 65.66 118.12 62.82 C 116.22 62.45 114.52 63.35 113.68 61.15 C 112.85 61.24 112.02 61.77 111.19 62.73 C 110.24 62.68 109.29 62.64 108.34 62.59 C 108.12 65.60 108.23 68.64 108.25 71.66 C 109.69 71.97 113.50 71.03 111.82 73.71 C 108.69 73.71 105.54 73.82 102.42 73.58 C 101.82 71.17 105.24 71.92 106.67 71.64 C 106.64 68.62 106.70 65.61 106.60 62.59 C 105.68 62.64 104.77 62.69 103.86 62.74 C 103.02 62.04 102.15 61.47 101.25 61.03 C 100.38 63.34 98.77 62.46 96.78 62.80 C 96.45 65.65 96.69 68.57 96.64 71.43 C 97.89 71.79 99.21 71.87 100.62 71.66 C 100.63 72.32 100.65 72.98 100.70 73.64 C 97.82 73.78 94.94 73.70 92.06 73.74 C 91.07 73.99 90.71 73.38 90.96 71.92 C 92.24 71.79 93.51 71.71 94.79 71.68 C 94.78 68.65 94.94 65.60 94.67 62.59 C 93.72 62.64 92.77 62.69 91.82 62.73 C 91.17 62.14 90.53 61.55 89.89 60.95 C 89.32 61.35 88.84 61.88 88.45 62.54 C 87.23 62.64 86.02 62.74 84.80 62.82 C 84.63 65.66 84.92 68.51 84.79 71.36 C 85.96 71.79 87.25 71.89 88.67 71.64 C 88.86 72.34 88.90 73.02 88.81 73.70 C 83.31 73.96 78.98 73.70 73.73 71.99 C 72.87 73.61 75.23 75.44 74.29 76.97 C 71.15 76.93 67.39 76.60 64.40 77.68 L 64.35 78.82 C 64.22 80.65 63.94 82.46 63.66 84.27 C 63.39 100.79 63.58 117.50 63.56 134.05 C 65.38 137.40 69.60 138.88 72.45 141.46 C 74.31 143.24 78.51 144.38 78.86 147.12 C 73.29 144.22 67.62 140.23 62.46 136.62 C 62.42 111.28 62.27 85.77 62.53 60.45 C 63.59 59.45 64.59 58.37 65.69 57.43 Z"/>
  <path id="path21682" fill="#b80100" d="M 68.96 58.97 C 68.35 61.20 67.21 63.23 66.62 65.46 C 66.03 68.90 66.66 72.48 66.04 75.96 L 64.95 75.92 C 64.33 70.72 64.56 65.23 64.54 59.98 C 65.03 57.87 67.47 58.51 68.96 58.97 Z"/>
  <path id="path21684" fill="#b80100" d="M 127.83 58.27 C 129.49 58.05 131.01 58.24 132.39 58.84 C 133.29 64.35 132.46 70.52 132.81 76.18 L 132.36 77.32 L 130.95 77.38 C 130.41 73.97 130.78 70.56 130.49 67.15 C 129.80 64.14 128.46 61.31 127.83 58.27 Z"/>
  <path id="path21686" fill="#fff200" d="M 132.39 58.84 L 133.41 59.66 C 133.78 66.75 133.22 73.92 133.69 81.01 C 133.17 99.66 133.71 118.51 133.40 137.19 C 128.76 139.24 124.77 142.73 120.44 145.38 C 113.84 149.34 107.56 153.79 101.11 157.98 C 100.07 158.56 98.85 160.25 97.58 159.33 C 96.28 158.11 94.43 157.56 93.21 156.43 C 95.90 156.63 100.27 154.43 101.66 152.07 L 100.97 150.19 C 99.60 148.18 98.20 146.25 97.35 143.93 C 98.07 142.06 102.06 141.45 101.16 139.04 C 99.75 136.47 96.38 133.18 97.14 130.06 C 101.50 134.51 105.63 139.20 110.02 143.62 C 112.31 143.50 110.89 140.40 110.88 139.00 C 110.21 135.88 111.55 133.00 111.31 129.96 C 110.94 128.40 109.13 128.46 107.90 128.01 C 107.03 126.48 108.62 124.72 107.93 123.04 C 106.32 122.16 104.82 124.51 103.08 123.86 C 103.72 122.11 104.65 120.18 106.07 118.95 C 108.29 119.44 112.20 120.83 113.13 123.00 C 113.23 129.99 113.13 136.98 113.16 143.97 C 114.11 144.93 117.30 145.15 116.71 142.96 C 116.48 136.30 116.63 129.62 116.59 122.95 C 116.81 121.17 118.28 119.84 118.22 118.01 C 118.15 116.23 118.94 114.73 119.08 113.01 C 118.35 109.63 115.84 108.12 116.50 104.32 C 118.35 104.08 120.21 104.24 122.06 104.04 C 122.42 102.10 122.18 100.00 122.16 98.03 C 121.99 96.27 122.42 94.75 123.02 93.12 C 122.22 91.78 121.58 90.43 120.45 89.31 C 119.72 90.62 119.03 91.96 118.31 93.27 C 118.77 94.48 119.26 95.63 119.39 96.94 C 119.35 97.81 119.31 98.69 119.26 99.57 C 118.32 99.79 117.35 99.84 116.34 99.70 C 116.24 97.40 116.35 95.29 117.05 93.07 C 116.34 92.22 115.89 89.22 114.55 89.49 C 113.87 90.67 113.27 91.88 112.60 93.05 C 113.45 95.24 113.48 97.32 113.46 99.63 C 112.50 99.82 111.53 99.82 110.55 99.64 C 110.57 97.36 110.52 95.22 111.36 93.06 C 110.65 91.87 110.08 90.39 109.03 89.48 C 108.10 90.58 107.51 91.83 106.84 93.08 C 108.31 96.77 107.10 100.39 107.81 104.09 C 109.52 104.17 111.23 104.20 112.94 104.18 C 113.27 105.13 113.25 105.97 112.87 106.69 C 109.75 106.53 106.84 109.68 104.09 108.95 C 104.82 107.66 106.46 106.93 107.57 105.97 C 106.62 104.36 104.54 103.66 103.61 102.09 C 103.98 99.19 103.68 96.49 104.68 93.77 C 105.10 92.53 106.32 91.48 106.37 90.18 C 105.33 90.06 104.28 89.93 103.24 89.78 C 102.57 88.35 102.09 86.62 101.00 85.46 C 99.56 86.72 99.08 90.07 97.02 90.20 C 94.31 90.38 94.64 86.47 92.42 85.25 C 91.81 86.72 91.20 88.18 90.60 89.65 C 89.40 89.90 88.18 90.07 86.94 90.16 C 88.70 94.18 91.86 97.49 92.63 102.11 C 91.15 104.21 89.02 105.18 88.92 108.00 C 89.00 110.61 90.74 111.91 91.76 114.13 C 91.58 116.23 90.17 118.52 88.99 120.24 C 86.93 121.10 87.12 118.24 86.84 117.02 C 86.60 114.36 86.35 111.65 86.46 108.97 C 86.62 106.47 89.07 104.47 89.30 102.08 C 85.93 99.91 84.65 96.56 83.82 92.81 L 83.58 91.92 C 82.82 91.90 82.03 92.19 81.20 92.79 C 80.17 92.33 79.11 91.98 78.03 91.72 C 76.15 93.03 76.15 96.27 74.07 97.58 C 72.69 97.17 71.32 96.86 69.96 96.66 C 70.92 98.79 71.68 100.82 71.96 103.17 L 72.20 104.91 C 74.62 102.75 78.33 98.93 81.78 101.24 C 82.16 103.11 80.11 104.02 79.00 105.14 C 78.99 106.42 80.93 106.55 81.37 107.74 C 82.26 114.90 81.11 122.47 82.58 129.52 C 83.99 132.57 86.37 131.56 89.11 131.95 C 89.80 135.85 87.95 140.11 88.65 144.06 C 89.55 146.22 91.29 147.89 92.09 150.14 C 91.62 151.61 91.67 153.32 91.01 154.70 C 86.88 152.44 82.96 149.50 78.86 147.12 C 78.51 144.38 74.31 143.24 72.45 141.46 C 69.60 138.88 65.38 137.40 63.56 134.05 C 63.58 117.50 63.39 100.79 63.66 84.27 C 64.74 84.35 65.82 84.33 66.92 84.24 C 83.58 83.89 100.32 84.18 117.00 84.09 C 121.25 84.15 125.54 83.93 129.78 84.25 C 130.95 84.49 132.06 84.49 133.13 84.25 C 133.06 82.17 133.83 80.03 132.05 78.50 L 130.90 78.87 C 129.28 79.40 127.69 79.26 126.00 79.28 C 105.98 79.22 85.95 79.36 65.94 79.21 L 64.35 78.82 L 64.40 77.68 C 67.39 76.60 71.15 76.93 74.29 76.97 C 75.23 75.44 72.87 73.61 73.73 71.99 C 78.98 73.70 83.31 73.96 88.81 73.70 C 88.90 73.02 88.86 72.34 88.67 71.64 C 87.25 71.89 85.96 71.79 84.79 71.36 C 84.92 68.51 84.63 65.66 84.80 62.82 C 86.02 62.74 87.23 62.64 88.45 62.54 C 88.84 61.88 89.32 61.35 89.89 60.95 C 90.53 61.55 91.17 62.14 91.82 62.73 C 92.77 62.69 93.72 62.64 94.67 62.59 C 94.94 65.60 94.78 68.65 94.79 71.68 C 93.51 71.71 92.24 71.79 90.96 71.92 C 90.71 73.38 91.07 73.99 92.06 73.74 C 94.94 73.70 97.82 73.78 100.70 73.64 C 100.65 72.98 100.63 72.32 100.62 71.66 C 99.21 71.87 97.89 71.79 96.64 71.43 C 96.69 68.57 96.45 65.65 96.78 62.80 C 98.77 62.46 100.38 63.34 101.25 61.03 C 102.15 61.47 103.02 62.04 103.86 62.74 C 104.77 62.69 105.68 62.64 106.60 62.59 C 106.70 65.61 106.64 68.62 106.67 71.64 C 105.24 71.92 101.82 71.17 102.42 73.58 C 105.54 73.82 108.69 73.71 111.82 73.71 C 113.50 71.03 109.69 71.97 108.25 71.66 C 108.23 68.64 108.12 65.60 108.34 62.59 C 109.29 62.64 110.24 62.68 111.19 62.73 C 112.02 61.77 112.85 61.24 113.68 61.15 C 114.52 63.35 116.22 62.45 118.12 62.82 C 118.39 65.66 118.21 68.54 118.24 71.38 C 117.05 71.80 115.75 71.89 114.33 71.64 C 114.20 72.32 114.16 73.00 114.21 73.67 C 115.79 73.71 117.42 73.63 118.99 73.89 C 119.10 74.88 119.20 75.88 119.31 76.87 C 123.21 76.91 127.07 76.91 130.95 77.38 L 132.36 77.32 L 132.81 76.18 C 132.46 70.52 133.29 64.35 132.39 58.84 Z"/>
  <path id="path21688" fill="#fff200" d="M 166.02 58.28 C 168.42 60.60 171.19 63.28 172.64 66.31 C 174.03 70.46 170.02 73.03 166.26 72.47 C 164.99 74.32 164.93 78.49 163.11 79.44 C 162.07 78.58 161.06 77.69 160.03 76.83 C 160.38 74.35 162.95 71.63 162.68 69.27 L 162.00 68.51 C 160.09 68.90 158.57 71.33 156.93 72.43 C 155.83 71.77 154.24 70.39 154.02 69.07 C 157.99 65.44 162.01 61.87 166.02 58.28 Z"/>
  <path id="path21690" fill="#ffffff" d="M 60.72 62.15 C 60.42 84.75 60.68 107.40 60.59 130.00 C 60.69 132.65 60.39 135.38 60.75 138.00 C 68.95 143.20 77.09 148.51 85.27 153.75 C 86.22 154.45 87.76 154.91 88.06 156.13 C 87.13 156.07 86.20 155.90 85.28 155.64 C 68.14 151.18 52.65 140.12 41.25 126.75 C 38.23 123.65 34.37 122.46 30.08 122.75 C 32.88 120.12 35.13 117.23 36.14 113.46 C 36.66 113.76 37.17 114.06 37.69 114.35 C 37.06 113.98 36.60 113.51 36.32 112.93 C 37.92 106.78 35.86 100.07 31.26 95.74 C 30.22 94.45 28.48 94.36 27.93 92.72 C 33.20 91.83 37.52 88.94 41.23 85.23 C 48.19 78.70 53.16 68.07 60.72 62.15 Z"/>
  <path id="path21692" fill="#ffffff" d="M 136.06 62.54 C 137.63 62.33 138.27 64.00 137.76 65.29 C 139.23 64.25 142.39 67.89 141.83 69.26 C 142.20 69.25 142.58 69.25 142.95 69.28 C 145.19 72.33 147.39 75.40 149.60 78.47 C 154.44 84.94 160.65 91.42 169.01 92.77 C 168.52 94.37 166.75 94.45 165.78 95.77 C 161.57 99.86 159.71 105.17 160.41 111.02 C 159.40 109.49 159.97 107.01 159.62 105.19 C 159.24 111.59 162.02 118.52 166.96 122.74 C 164.48 122.74 162.11 122.72 159.81 123.78 C 155.52 125.44 152.83 130.23 149.35 133.35 C 138.42 143.95 123.72 153.52 108.54 156.07 L 109.15 155.24 C 118.16 149.44 126.99 143.74 136.03 137.92 C 136.09 112.82 136.31 87.63 136.06 62.54 Z"/>
  <path id="path21694" fill="#f10000" d="M 167.78 63.26 C 168.81 64.77 169.96 65.81 168.53 67.59 C 167.48 69.62 163.36 68.50 163.54 66.48 C 164.79 65.45 166.17 63.59 167.78 63.26 Z"/>
  <path id="path21696" fill="#fff200" d="M 83.06 63.87 L 84.00 63.72 C 83.66 66.55 82.48 70.48 80.85 72.77 C 79.49 72.25 76.72 72.62 76.27 71.07 C 78.57 68.70 80.81 66.28 83.06 63.87 Z"/>
  <path id="path21698" fill="#b80100" d="M 16.97 64.56 C 18.76 65.98 18.16 68.99 18.83 71.09 C 20.09 76.83 22.36 82.31 28.09 84.80 C 30.54 86.14 32.83 85.01 35.32 85.78 C 30.69 89.37 24.73 90.83 19.49 87.53 C 13.72 83.90 11.94 75.24 11.62 68.93 C 13.11 67.22 15.28 66.10 16.97 64.56 Z"/>
  <path id="path21700" fill="#b80100" d="M 179.82 64.65 C 181.44 66.19 183.75 67.27 185.08 69.03 C 184.88 74.27 183.66 80.20 180.49 84.50 C 177.65 88.42 172.68 90.19 167.97 89.06 C 164.68 88.36 162.19 86.48 159.65 84.40 C 163.30 84.35 166.19 85.56 169.65 83.64 C 174.85 81.10 176.53 76.13 177.89 70.90 C 178.55 68.63 178.38 66.46 179.82 64.65 Z"/>
  <path id="path21702" fill="#b80100" d="M 64.35 78.82 L 65.94 79.21 C 66.84 80.77 66.67 82.44 66.92 84.24 C 65.82 84.33 64.74 84.35 63.66 84.27 C 63.94 82.46 64.22 80.65 64.35 78.82 Z"/>
  <path id="path21704" fill="#f10000" d="M 65.94 79.21 C 85.95 79.36 105.98 79.22 126.00 79.28 C 127.69 79.26 129.28 79.40 130.90 78.87 C 129.45 80.73 129.60 81.99 129.78 84.25 C 125.54 83.93 121.25 84.15 117.00 84.09 C 100.32 84.18 83.58 83.89 66.92 84.24 C 66.67 82.44 66.84 80.77 65.94 79.21 Z"/>
  <path id="path21706" fill="#b80100" d="M 130.90 78.87 L 132.05 78.50 C 133.83 80.03 133.06 82.17 133.13 84.25 C 132.06 84.49 130.95 84.49 129.78 84.25 C 129.60 81.99 129.45 80.73 130.90 78.87 Z"/>
  <path id="path21708" fill="#f10000" d="M 92.42 85.25 C 94.64 86.47 94.31 90.38 97.02 90.20 C 99.08 90.07 99.56 86.72 101.00 85.46 C 102.09 86.62 102.57 88.35 103.24 89.78 C 104.28 89.93 105.33 90.06 106.37 90.18 C 106.32 91.48 105.10 92.53 104.68 93.77 C 103.68 96.49 103.98 99.19 103.61 102.09 C 104.54 103.66 106.62 104.36 107.57 105.97 C 106.46 106.93 104.82 107.66 104.09 108.95 C 106.84 109.68 109.75 106.53 112.87 106.69 C 113.25 105.97 113.27 105.13 112.94 104.18 C 111.23 104.20 109.52 104.17 107.81 104.09 C 107.10 100.39 108.31 96.77 106.84 93.08 C 107.51 91.83 108.10 90.58 109.03 89.48 C 110.08 90.39 110.65 91.87 111.36 93.06 C 110.52 95.22 110.57 97.36 110.55 99.64 C 111.53 99.82 112.50 99.82 113.46 99.63 C 113.48 97.32 113.45 95.24 112.60 93.05 C 113.27 91.88 113.87 90.67 114.55 89.49 C 115.89 89.22 116.34 92.22 117.05 93.07 C 116.35 95.29 116.24 97.40 116.34 99.70 C 117.35 99.84 118.32 99.79 119.26 99.57 C 119.31 98.69 119.35 97.81 119.39 96.94 C 120.31 97.30 121.24 97.66 122.16 98.03 C 122.18 100.00 122.42 102.10 122.06 104.04 C 120.21 104.24 118.35 104.08 116.50 104.32 C 115.84 108.12 118.35 109.63 119.08 113.01 C 118.94 114.73 118.15 116.23 118.22 118.01 C 118.28 119.84 116.81 121.17 116.59 122.95 C 116.63 129.62 116.48 136.30 116.71 142.96 C 117.30 145.15 114.11 144.93 113.16 143.97 C 113.13 136.98 113.23 129.99 113.13 123.00 C 112.20 120.83 108.29 119.44 106.07 118.95 C 104.65 120.18 103.72 122.11 103.08 123.86 C 104.82 124.51 106.32 122.16 107.93 123.04 C 108.62 124.72 107.03 126.48 107.90 128.01 C 109.13 128.46 110.94 128.40 111.31 129.96 C 111.55 133.00 110.21 135.88 110.88 139.00 C 110.89 140.40 112.31 143.50 110.02 143.62 C 105.63 139.20 101.50 134.51 97.14 130.06 C 96.38 133.18 99.75 136.47 101.16 139.04 C 102.06 141.45 98.07 142.06 97.35 143.93 C 98.20 146.25 99.60 148.18 100.97 150.19 C 97.96 150.53 95.10 150.55 92.09 150.14 C 91.29 147.89 89.55 146.22 88.65 144.06 C 87.95 140.11 89.80 135.85 89.11 131.95 C 86.37 131.56 83.99 132.57 82.58 129.52 C 81.11 122.47 82.26 114.90 81.37 107.74 C 80.93 106.55 78.99 106.42 79.00 105.14 C 80.11 104.02 82.16 103.11 81.78 101.24 C 78.33 98.93 74.62 102.75 72.20 104.91 L 71.96 103.17 C 75.15 98.45 78.58 95.18 83.82 92.81 C 84.65 96.56 85.93 99.91 89.30 102.08 C 89.07 104.47 86.62 106.47 86.46 108.97 C 86.35 111.65 86.60 114.36 86.84 117.02 C 87.12 118.24 86.93 121.10 88.99 120.24 C 90.17 118.52 91.58 116.23 91.76 114.13 C 90.74 111.91 89.00 110.61 88.92 108.00 C 89.02 105.18 91.15 104.21 92.63 102.11 C 91.86 97.49 88.70 94.18 86.94 90.16 C 88.18 90.07 89.40 89.90 90.60 89.65 C 91.20 88.18 91.81 86.72 92.42 85.25 Z"/>
  <path id="path21710" fill="#b80100" d="M 120.45 89.31 C 121.58 90.43 122.22 91.78 123.02 93.12 C 122.42 94.75 121.99 96.27 122.16 98.03 C 121.24 97.66 120.31 97.30 119.39 96.94 C 119.26 95.63 118.77 94.48 118.31 93.27 C 119.03 91.96 119.72 90.62 120.45 89.31 Z"/>
  <path id="path21712" fill="#b80100" d="M 78.03 91.72 C 79.11 91.98 80.17 92.33 81.20 92.79 C 82.03 92.19 82.82 91.90 83.58 91.92 L 83.82 92.81 C 78.58 95.18 75.15 98.45 71.96 103.17 C 71.68 100.82 70.92 98.79 69.96 96.66 C 71.32 96.86 72.69 97.17 74.07 97.58 C 76.15 96.27 76.15 93.03 78.03 91.72 Z"/>
  <path id="path21714" fill="#fff200" d="M 22.03 92.82 C 30.03 94.13 36.04 101.92 35.12 110.01 C 34.65 119.52 24.74 126.82 15.50 124.34 C 10.41 123.24 7.11 119.88 4.35 115.69 C 4.44 111.15 4.40 106.60 4.37 102.06 C 7.44 95.39 14.77 91.41 22.03 92.82 Z"/>
  <path id="path21716" fill="#fff200" d="M 94.13 93.38 C 95.94 93.03 96.80 97.62 94.13 96.01 C 93.49 94.91 93.49 94.03 94.13 93.38 Z"/>
  <path id="path21718" fill="#fff200" d="M 100.28 93.31 C 101.94 93.26 101.17 96.16 99.93 96.39 C 98.11 96.04 99.30 93.91 100.28 93.31 Z"/>
  <path id="path21720" fill="#fff200" d="M 172.43 93.46 C 175.24 92.50 178.12 92.18 181.03 92.85 C 188.22 94.05 193.88 100.74 194.01 107.99 C 194.46 115.30 189.24 122.34 182.17 124.16 C 174.29 126.57 165.49 121.85 162.81 114.13 C 159.77 105.86 164.13 96.43 172.43 93.46 Z"/>
  <path id="path21722" fill="#f10000" d="M 16.47 94.59 C 24.49 92.94 32.59 98.82 33.42 106.99 C 34.44 115.04 28.15 122.58 20.02 122.88 C 13.16 123.43 6.74 118.49 5.29 111.81 C 3.32 104.09 8.74 96.08 16.47 94.59 Z"/>
  <path id="path21724" fill="#f10000" d="M 176.23 94.40 C 184.00 93.39 191.39 99.18 192.19 106.98 C 193.22 115.30 186.41 123.02 178.01 122.85 C 169.97 123.04 163.30 115.98 163.70 108.00 C 163.97 101.02 169.33 95.27 176.23 94.40 Z"/>
  <path id="path21726" fill="#fff200" d="M 12.75 97.23 C 13.46 100.04 11.31 102.99 9.99 105.36 C 8.58 105.15 8.10 102.79 8.55 101.62 C 9.73 99.98 11.21 98.52 12.75 97.23 Z"/>
  <path id="path21728" fill="#fff200" d="M 14.57 96.65 C 17.70 96.19 23.40 95.32 25.70 97.95 C 24.94 100.11 21.89 100.42 20.00 99.96 C 18.20 99.52 15.83 99.28 14.46 97.97 L 14.57 96.65 Z"/>
  <path id="path21730" fill="#fff200" d="M 176.99 96.26 C 178.78 96.42 181.38 95.88 182.87 96.94 C 182.57 99.35 178.85 99.42 177.02 99.94 C 175.54 100.33 171.73 100.06 171.93 97.82 C 173.70 96.56 174.76 96.15 176.99 96.26 Z"/>
  <path id="path21732" fill="#fff200" d="M 184.21 98.11 C 185.84 97.83 187.12 99.89 188.09 100.92 C 189.21 101.95 188.82 105.22 187.05 105.30 C 186.31 102.97 183.98 100.57 184.21 98.11 Z"/>
  <path id="path21734" fill="#fff200" d="M 27.01 99.06 C 29.14 99.99 31.75 103.40 29.77 105.71 C 27.85 108.78 23.98 111.67 20.17 110.82 C 19.48 107.86 21.10 104.13 22.51 101.54 C 24.00 100.69 25.52 99.91 27.01 99.06 Z"/>
  <path id="path21736" fill="#fff200" d="M 169.97 99.03 C 172.03 100.33 175.01 100.72 175.65 103.30 C 176.32 105.41 178.07 108.79 176.86 110.88 C 172.94 111.33 169.33 108.78 167.37 105.55 C 166.65 102.72 167.57 100.59 169.97 99.03 Z"/>
  <path id="path21738" fill="#fff200" d="M 14.20 100.15 C 15.81 99.95 19.74 100.79 20.81 101.91 C 17.85 108.09 18.14 114.03 19.63 120.54 C 17.06 120.42 13.25 119.52 11.73 117.30 C 9.32 112.14 10.88 104.62 14.20 100.15 Z"/>
  <path id="path21740" fill="#fff200" d="M 182.85 100.07 C 185.94 103.64 187.00 109.44 186.52 114.04 C 186.54 117.88 180.94 121.03 177.74 119.33 C 179.30 113.17 179.10 107.77 176.44 101.97 C 177.26 100.76 181.41 99.90 182.85 100.07 Z"/>
  <path id="path21742" fill="#fff200" d="M 96.18 101.29 C 97.07 101.26 97.96 101.25 98.85 101.26 C 99.17 102.68 98.47 103.61 97.91 104.82 C 96.64 105.05 96.10 102.21 96.18 101.29 Z"/>
  <path id="path21744" fill="#fff200" d="M 7.20 105.06 C 10.87 106.46 9.34 111.00 8.97 113.96 L 7.78 113.21 C 7.10 110.61 7.38 107.73 7.20 105.06 Z"/>
  <path id="path21746" fill="#fff200" d="M 190.44 105.33 C 190.58 108.48 190.41 112.41 188.35 114.98 C 188.11 112.38 187.52 109.60 187.73 107.01 C 188.58 106.03 188.98 105.07 190.44 105.33 Z"/>
  <path id="path21748" fill="#fff200" d="M 31.63 106.17 C 31.56 109.70 31.21 112.97 28.63 115.61 C 26.41 117.74 24.87 120.07 21.43 119.60 C 20.34 117.83 19.02 114.31 20.31 112.48 C 22.58 112.32 24.73 111.97 26.63 110.64 C 28.57 109.41 29.80 107.48 31.63 106.17 Z"/>
  <path id="path21750" fill="#fff200" d="M 165.87 106.92 C 167.70 107.60 168.78 109.44 170.47 110.52 C 172.55 112.01 174.82 112.25 177.26 112.64 C 177.67 114.93 177.06 117.79 175.64 119.67 C 169.85 119.66 165.03 112.30 165.87 106.92 Z"/>
  <path id="path21752" fill="#fff200" d="M 112.07 111.88 C 113.66 112.76 113.34 114.32 112.68 115.71 C 110.97 115.36 107.59 114.49 107.39 112.41 C 108.74 111.57 110.60 111.15 112.07 111.88 Z"/>
  <path id="path21754" fill="#fff200" d="M 34.04 124.57 C 39.29 125.49 41.34 129.65 44.91 133.07 C 57.43 145.93 74.47 156.34 92.50 158.59 C 93.85 159.13 94.79 160.05 95.91 160.93 C 74.02 158.78 54.94 147.23 40.43 131.09 C 38.36 128.66 36.40 126.50 33.02 126.18 C 26.28 125.07 19.90 130.30 19.22 136.98 C 18.56 142.03 21.52 147.27 24.20 151.35 C 32.91 164.80 45.84 174.37 60.52 180.46 C 79.13 188.44 100.16 190.32 119.87 185.68 C 140.14 180.80 159.61 170.07 171.45 152.47 C 174.50 147.87 178.29 141.71 177.01 135.98 C 175.91 129.62 169.39 124.90 162.99 126.26 C 158.71 126.82 156.33 130.86 153.60 133.73 C 142.48 144.97 129.53 153.88 114.21 158.31 C 109.85 159.64 105.40 160.11 100.93 160.87 C 103.19 158.63 104.91 158.23 108.02 157.98 C 124.87 154.82 140.67 144.70 152.42 132.44 C 155.43 129.49 157.57 125.69 161.96 124.73 C 169.91 122.32 178.56 128.85 179.06 136.97 C 179.91 143.21 175.90 149.55 172.53 154.51 C 160.76 171.16 143.17 181.27 123.81 186.69 C 107.28 191.21 89.56 191.17 73.02 186.73 C 55.16 181.72 38.59 172.74 26.87 158.06 C 22.86 152.93 18.43 146.60 17.57 140.01 C 16.48 130.89 24.87 122.51 34.04 124.57 Z"/>
  <path id="path21756" fill="#b80100" d="M 33.02 126.18 C 36.40 126.50 38.36 128.66 40.43 131.09 C 39.81 132.19 38.05 131.40 36.99 131.53 C 32.90 131.77 27.72 133.83 25.89 137.77 C 23.68 141.22 24.09 146.29 25.14 150.07 L 24.20 151.35 C 21.52 147.27 18.56 142.03 19.22 136.98 C 19.90 130.30 26.28 125.07 33.02 126.18 Z"/>
  <path id="path21758" fill="#b80100" d="M 162.99 126.26 C 169.39 124.90 175.91 129.62 177.01 135.98 C 178.29 141.71 174.50 147.87 171.45 152.47 C 170.53 149.48 172.28 146.87 171.18 143.88 C 170.55 139.08 166.65 135.21 162.10 133.90 C 159.16 132.76 156.62 133.60 153.60 133.73 C 156.33 130.86 158.71 126.82 162.99 126.26 Z"/>
  <path id="path21760" fill="#f10000" d="M 36.99 131.53 C 38.05 131.40 39.81 132.19 40.43 131.09 C 54.94 147.23 74.02 158.78 95.91 160.93 C 98.25 162.63 98.60 162.19 100.93 160.87 C 105.40 160.11 109.85 159.64 114.21 158.31 C 129.53 153.88 142.48 144.97 153.60 133.73 C 156.62 133.60 159.16 132.76 162.10 133.90 C 166.65 135.21 170.55 139.08 171.18 143.88 C 172.28 146.87 170.53 149.48 171.45 152.47 C 159.61 170.07 140.14 180.80 119.87 185.68 C 100.16 190.32 79.13 188.44 60.52 180.46 C 45.84 174.37 32.91 164.80 24.20 151.35 L 25.14 150.07 C 24.09 146.29 23.68 141.22 25.89 137.77 C 27.72 133.83 32.90 131.77 36.99 131.53 Z"/>
  <path id="path21762" fill="#fff200" d="M 54.14 152.03 C 55.41 152.00 57.35 153.07 58.11 154.08 C 56.56 157.43 54.51 160.55 52.84 163.85 C 52.24 165.07 51.79 166.32 52.37 167.65 C 53.72 169.28 55.75 170.24 57.46 168.43 C 60.15 165.06 61.76 160.76 64.17 157.17 C 65.45 157.78 66.67 158.47 67.89 159.20 C 66.51 162.91 64.10 166.62 62.07 170.05 C 58.86 174.43 53.16 172.09 49.97 169.03 C 47.67 166.92 47.54 163.69 49.04 161.08 C 50.74 158.06 52.34 154.98 54.14 152.03 Z"/>
  <path id="path21764" fill="#fff200" d="M 142.98 153.11 C 148.74 152.22 152.78 159.80 150.54 164.57 C 148.85 168.62 144.40 170.14 140.92 172.33 L 140.01 172.36 C 137.43 167.62 134.33 163.05 132.05 158.17 C 135.41 156.40 139.12 153.35 142.98 153.11 Z"/>
  <path id="path21766" fill="#f10000" d="M 143.52 156.60 C 145.53 158.07 146.84 160.58 147.29 162.98 C 147.55 165.54 145.28 167.46 143.07 168.19 C 140.71 165.21 138.91 161.43 137.02 158.09 C 138.89 156.61 141.16 155.45 143.52 156.60 Z"/>
  <path id="path21768" fill="#fff200" d="M 127.77 160.19 C 129.40 163.34 125.29 162.76 123.60 163.93 C 123.67 165.15 123.99 166.35 124.54 167.54 C 126.01 168.87 129.74 164.89 130.24 168.04 C 129.85 169.89 126.23 169.20 125.56 170.96 C 126.05 172.31 126.55 173.65 127.04 175.00 C 129.15 175.46 133.20 171.76 133.80 175.06 C 131.28 177.05 126.88 177.48 123.85 178.87 C 121.63 174.28 120.50 168.77 118.63 163.93 L 118.82 162.95 C 121.81 162.09 124.72 160.82 127.77 160.19 Z"/>
  <path id="path21770" fill="#fff200" d="M 72.03 161.09 C 73.26 161.25 74.66 161.49 75.65 162.29 C 77.37 166.33 79.06 170.39 80.60 174.50 L 81.45 174.66 C 82.26 171.16 83.02 167.60 84.27 164.23 C 85.47 164.51 86.66 164.85 87.84 165.21 C 86.94 170.48 85.11 175.67 83.84 180.88 C 82.79 181.11 81.65 180.99 80.41 180.52 C 78.38 176.51 77.01 172.16 75.02 168.13 L 74.16 168.00 C 73.35 171.27 72.46 174.52 71.64 177.79 C 70.28 177.95 69.16 177.45 67.90 177.04 C 68.72 171.82 70.52 166.23 72.03 161.09 Z"/>
  <path id="path21772" fill="#fff200" d="M 114.12 164.30 L 115.10 164.82 C 115.09 167.61 112.81 166.41 110.87 167.07 C 110.49 171.45 112.39 176.73 112.29 181.25 C 111.13 181.50 109.95 181.72 108.77 181.91 L 107.97 181.20 C 107.39 176.96 106.77 172.71 106.29 168.45 C 104.80 166.95 100.61 170.00 101.21 166.22 C 105.43 165.28 109.84 164.95 114.12 164.30 Z"/>
  <path id="path21774" fill="#fff200" d="M 92.83 166.64 C 93.98 165.82 95.48 165.82 97.33 166.62 C 97.14 171.98 96.64 177.33 96.54 182.70 C 95.10 182.80 93.68 182.75 92.24 182.67 C 92.13 177.34 92.75 171.98 92.83 166.64 Z"/>
  <path id="path21776" fill="#fff200" d="M 72.50 188.34 C 74.98 189.64 78.62 189.68 81.41 190.05 C 81.74 190.80 81.84 191.64 81.72 192.58 C 83.65 194.15 85.95 191.98 87.77 191.18 C 86.84 194.37 80.73 195.73 77.99 194.19 C 74.80 193.06 74.63 190.47 72.50 188.34 Z"/>
  <path id="path21778" fill="#fff200" d="M 124.86 188.56 C 123.25 191.16 122.35 193.67 119.05 194.47 C 115.09 195.67 112.15 193.83 109.33 191.29 C 112.00 191.56 112.95 193.80 115.98 192.94 C 116.82 191.46 115.11 190.92 114.11 190.31 C 117.63 190.21 121.48 189.55 124.86 188.56 Z"/>
  <path id="path21780" fill="#fff200" d="M 92.33 191.66 C 95.85 191.76 99.31 191.88 102.82 191.49 C 101.69 192.22 99.49 192.38 99.52 193.96 C 101.59 196.74 104.07 192.40 105.79 191.32 C 105.08 194.21 102.17 197.19 99.00 197.00 C 96.18 197.24 92.34 194.67 92.33 191.66 Z"/>
</svg>