<?xml version="1.0" encoding="UTF-8" standalone="no"?>
<!DOCTYPE svg PUBLIC "-//W3C//DTD SVG 1.1//EN" "http://www.w3.org/Graphics/SVG/1.1/DTD/svg11.dtd">
<svg xmlns="http://www.w3.org/2000/svg" version="1.1" viewBox="0 0 200 200" width="200.0pt" height="200.0pt">
<path d="M 0.00 0.00 L 9.94 0.00 C 7.99 14.28 8.00 28.69 9.38 43.02 C 10.75 59.53 14.14 75.91 19.44 91.61 C 32.54 129.10 55.54 163.39 85.73 189.25 C 90.06 193.09 94.94 196.23 99.31 200.00 L 0.00 200.00 L 0.00 0.00 Z" fill-opacity="0"/>
<path d="M 9.94 0.00 L 190.06 0.00 L 190.15 0.81 L 190.22 1.50 C 192.03 20.28 191.65 39.39 188.65 58.03 C 183.49 92.25 168.68 124.55 148.33 152.36 C 134.75 170.84 118.98 186.57 100.39 200.00 L 99.31 200.00 C 94.94 196.23 90.06 193.09 85.73 189.25 C 55.54 163.39 32.54 129.10 19.44 91.61 C 14.14 75.91 10.75 59.53 9.38 43.02 C 8.00 28.69 7.99 14.28 9.94 0.00 Z" fill="#ffe401"/>
<path d="M 190.06 0.00 L 200.00 0.00 L 200.00 200.00 L 100.39 200.00 C 118.98 186.57 134.75 170.84 148.33 152.36 C 168.68 124.55 183.49 92.25 188.65 58.03 C 191.65 39.39 192.03 20.28 190.22 1.50 L 190.15 0.81 L 190.06 0.00 Z" fill-opacity="0" />
<path d="M 14.45 7.21 C 16.66 7.08 18.89 7.13 21.10 7.12 C 22.41 11.92 23.51 16.78 24.62 21.62 C 25.95 16.83 27.05 11.97 28.25 7.14 C 32.96 7.25 37.66 7.25 42.37 7.15 C 43.59 11.80 44.57 16.51 45.86 21.14 C 47.31 16.53 48.27 11.82 49.47 7.15 C 54.22 7.25 58.94 7.26 63.69 7.12 C 64.76 11.99 65.92 16.85 67.21 21.66 C 68.32 16.85 69.50 12.07 70.56 7.24 C 72.86 7.19 75.17 7.15 77.48 7.10 C 75.44 15.33 73.04 23.47 70.87 31.66 C 68.36 31.65 65.86 31.65 63.36 31.63 C 61.14 23.79 59.50 15.62 56.60 8.01 C 55.56 9.19 55.37 10.54 54.94 12.01 C 53.24 18.58 51.46 25.14 49.56 31.66 C 47.14 31.66 44.71 31.66 42.29 31.66 C 39.85 23.88 38.20 15.80 35.57 8.09 C 34.37 9.35 34.06 10.85 33.60 12.47 C 31.95 18.88 30.15 25.26 28.42 31.64 C 25.95 31.65 23.49 31.65 21.02 31.65 C 18.84 23.51 16.36 15.41 14.45 7.21 Z" fill="#000000"/>
<path d="M 86.69 7.20 C 88.93 7.08 91.19 7.16 93.43 7.19 C 94.57 11.93 95.65 16.68 96.88 21.39 C 98.22 16.69 99.26 11.89 100.45 7.15 C 102.75 7.16 105.05 7.16 107.35 7.17 C 105.05 15.31 102.90 23.49 100.63 31.64 C 98.17 31.65 95.72 31.66 93.27 31.67 C 91.05 23.53 88.54 15.42 86.69 7.20 Z" fill="#000000"/>
<path d="M 108.53 7.28 C 114.18 6.95 119.87 7.26 125.52 7.17 C 125.52 9.31 125.52 11.45 125.52 13.59 C 121.94 13.59 118.36 13.59 114.79 13.59 C 114.74 14.34 114.68 15.09 114.63 15.84 C 117.70 15.88 120.78 15.89 123.85 15.90 C 123.85 17.97 123.84 20.04 123.84 22.12 C 120.80 22.12 117.76 22.12 114.72 22.13 C 114.72 23.03 114.73 23.93 114.73 24.82 C 118.33 24.83 121.92 24.84 125.52 24.84 C 125.52 27.11 125.52 29.37 125.52 31.64 C 119.82 31.66 114.12 31.65 108.42 31.66 C 108.51 23.54 108.22 15.39 108.53 7.28 Z" fill="#000000"/>
<path d="M 127.57 7.16 C 129.68 7.16 131.78 7.15 133.89 7.15 C 135.90 10.98 137.86 14.83 140.04 18.57 C 140.09 14.77 140.09 10.97 140.08 7.17 C 142.11 7.16 144.14 7.15 146.17 7.13 C 146.17 15.31 146.18 23.49 146.17 31.67 C 144.15 31.66 142.13 31.66 140.11 31.65 C 138.01 27.63 136.02 23.55 134.00 19.49 C 134.00 23.55 134.00 27.61 134.00 31.67 C 131.85 31.66 129.71 31.65 127.56 31.64 C 127.58 23.48 127.56 15.32 127.57 7.16 Z" fill="#000000"/>
<path d="M 148.39 7.28 C 150.50 7.09 152.64 7.14 154.76 7.12 C 154.76 12.98 154.75 18.83 154.77 24.69 C 157.85 24.68 160.94 24.68 164.03 24.67 C 164.03 27.00 164.03 29.34 164.02 31.67 C 158.78 31.64 153.53 31.65 148.28 31.66 C 148.37 23.54 148.08 15.38 148.39 7.28 Z" fill="#000000"/>
<path d="M 171.32 7.20 C 176.83 5.17 182.62 7.85 184.67 13.31 C 186.29 18.28 186.06 25.23 182.14 29.14 C 178.53 33.04 171.49 33.02 167.90 29.11 C 164.44 25.57 163.88 19.58 164.98 14.97 C 165.65 11.51 168.01 8.50 171.32 7.20 Z" fill="#000000"/>
<path d="M 173.27 13.28 C 175.88 12.56 178.28 13.14 178.94 16.04 C 179.29 18.64 179.71 22.62 177.74 24.68 C 176.50 26.16 174.30 26.52 172.84 25.15 C 170.36 23.16 170.77 19.77 170.94 16.94 C 171.01 15.56 171.90 13.76 173.27 13.28 Z" fill="#ffe401"/>
<path d="M 79.83 20.41 C 81.25 20.24 82.69 20.23 84.11 20.16 C 84.11 21.68 84.11 23.19 84.11 24.71 C 82.59 24.72 81.07 24.73 79.54 24.74 C 79.62 23.30 79.66 21.85 79.83 20.41 Z" fill="#000000"/>
<path d="M 15.05 37.70 C 24.96 37.69 34.88 37.69 44.79 37.71 C 48.04 63.85 55.80 89.04 67.41 112.67 C 67.49 87.68 67.41 62.68 67.45 37.69 C 76.65 37.71 85.86 37.68 95.06 37.70 C 95.06 40.73 95.06 43.76 95.06 46.79 C 86.57 48.55 79.54 54.42 76.36 62.48 C 74.54 66.69 74.53 71.54 75.00 76.03 C 76.79 86.37 84.88 94.37 95.06 96.59 C 95.06 103.00 95.06 109.40 95.06 115.81 C 75.17 115.85 55.28 115.80 35.39 115.83 C 23.47 91.79 15.47 64.65 15.05 37.70 Z" fill="#000000"/>
<path d="M 104.80 37.69 C 114.05 37.70 123.30 37.69 132.54 37.70 C 132.54 62.62 132.51 87.54 132.55 112.46 C 144.07 88.95 151.93 63.72 155.01 37.69 C 165.01 37.71 175.01 37.68 185.00 37.71 C 184.13 65.04 176.52 91.35 164.58 115.83 C 144.65 115.83 124.73 115.80 104.81 115.85 C 104.80 109.43 104.81 103.00 104.81 96.58 C 110.35 95.28 115.43 92.49 119.14 88.12 C 124.73 81.57 126.87 72.20 124.01 63.98 C 121.32 55.17 113.76 48.65 104.81 46.78 C 104.81 43.75 104.81 40.72 104.80 37.69 Z" fill="#000000"/>
<path d="M 104.81 46.78 C 113.76 48.65 121.32 55.17 124.01 63.98 C 126.87 72.20 124.73 81.57 119.14 88.12 C 115.43 92.49 110.35 95.28 104.81 96.58 C 101.56 96.94 98.31 96.94 95.06 96.59 C 84.88 94.37 76.79 86.37 75.00 76.03 C 74.53 71.54 74.54 66.69 76.36 62.48 C 79.54 54.42 86.57 48.55 95.06 46.79 C 98.33 46.15 101.54 46.15 104.81 46.78 Z" fill="#ffffff"/>
<path d="M 92.59 49.62 C 93.21 51.31 93.83 52.99 94.46 54.68 C 91.83 57.50 89.16 60.29 86.56 63.14 C 84.67 62.60 82.78 62.05 80.88 61.50 C 82.19 58.98 83.31 56.28 84.90 53.93 C 86.38 52.68 88.32 51.90 90.01 50.98 C 90.88 50.53 91.74 50.08 92.59 49.62 Z" fill="#000000"/>
<path d="M 107.29 49.63 C 109.76 50.97 112.25 52.25 114.76 53.50 C 116.26 56.10 117.64 58.77 119.00 61.45 C 117.12 62.02 115.25 62.59 113.37 63.16 C 110.73 60.32 108.05 57.53 105.38 54.72 C 105.99 53.01 106.63 51.31 107.29 49.63 Z" fill="#000000"/>
<path d="M 104.27 63.89 C 105.23 67.08 106.01 70.30 106.87 73.51 C 104.55 75.12 102.25 76.75 99.95 78.39 C 97.62 76.74 95.30 75.09 92.95 73.47 C 93.83 70.31 94.71 67.14 95.44 63.94 C 98.38 63.92 101.33 63.91 104.27 63.89 Z" fill="#000000"/>
<path d="M 78.45 69.91 C 80.19 70.35 81.94 70.79 83.69 71.21 C 84.65 74.88 85.71 78.51 86.64 82.18 C 85.35 83.57 84.05 84.95 82.76 86.34 C 81.30 83.84 79.54 81.41 78.44 78.73 C 78.11 75.83 78.42 72.83 78.45 69.91 Z" fill="#000000"/>
<path d="M 121.50 69.87 C 121.59 72.74 121.67 75.62 121.76 78.49 C 120.20 81.10 118.70 83.74 117.19 86.38 C 115.83 84.96 114.47 83.54 113.11 82.12 C 114.25 78.51 115.15 74.84 116.25 71.22 C 118.00 70.78 119.75 70.32 121.50 69.87 Z" fill="#000000"/>
<path d="M 108.24 89.37 C 107.39 90.96 106.54 92.54 105.68 94.12 C 101.87 94.13 98.07 94.13 94.26 94.13 C 93.35 92.56 92.44 90.99 91.52 89.42 C 93.63 88.74 95.64 88.03 97.80 87.52 C 101.05 86.49 105.08 88.53 108.24 89.37 Z" fill="#000000"/>
<path d="M 38.31 121.63 C 50.15 121.59 61.99 121.60 73.83 121.63 C 81.18 132.65 90.09 142.45 99.95 151.27 C 109.87 142.45 118.63 132.57 126.12 121.61 C 137.93 121.61 149.74 121.61 161.55 121.61 C 146.59 149.40 125.10 174.00 99.96 193.03 C 91.93 187.20 84.50 180.52 77.41 173.59 C 62.83 159.00 49.74 142.40 39.79 124.30 C 39.29 123.41 38.80 122.52 38.31 121.63 Z" fill="#000000"/>
<path d="M 132.50 134.65 C 134.11 134.46 135.50 136.80 136.54 137.76 C 138.36 139.51 136.08 142.07 135.28 143.77 C 135.53 141.87 136.71 139.82 135.62 138.05 L 132.51 139.15 C 133.26 138.28 133.99 137.42 134.73 136.55 C 134.00 136.34 133.27 136.14 132.54 135.94 C 131.89 136.84 131.23 137.74 130.56 138.62 C 131.14 137.15 131.28 135.74 132.50 134.65 Z" fill="#ffe401"/>
<path d="M 129.91 138.67 C 131.47 140.24 134.05 142.00 132.30 144.44 C 130.57 146.85 128.34 144.50 127.69 142.49 C 127.20 140.89 128.99 139.72 129.91 138.67 Z" fill="#ffe401"/>
<path d="M 129.72 140.45 C 132.07 141.16 133.15 145.29 129.44 143.44 C 128.82 141.86 128.91 140.87 129.72 140.45 Z" fill="#000000"/>
<path d="M 125.89 143.66 C 126.92 144.71 128.21 145.78 128.85 147.12 C 129.51 149.07 128.88 151.17 128.45 153.10 C 128.24 151.17 128.08 149.22 127.95 147.28 C 127.28 148.30 126.60 149.33 125.93 150.35 C 125.18 149.38 123.57 148.31 123.59 147.00 C 123.47 145.61 125.07 144.62 125.89 143.66 Z" fill="#ffe401"/>
<path d="M 126.52 146.05 C 127.08 147.05 126.89 147.84 125.97 148.41 C 124.32 147.69 124.39 144.71 126.52 146.05 Z" fill="#000000"/>
<path d="M 121.33 148.48 C 122.82 149.83 124.15 151.35 125.56 152.78 C 125.00 153.26 124.43 153.75 123.87 154.23 C 122.83 151.58 123.57 151.45 120.56 151.04 C 120.81 150.18 121.06 149.33 121.33 148.48 Z" fill="#ffe401"/>
<path d="M 118.12 152.84 C 117.41 154.00 116.68 155.16 115.93 156.30 C 117.45 156.16 118.97 156.01 120.49 155.87 C 120.09 158.27 119.83 159.24 117.75 160.77 C 118.40 159.43 119.06 158.10 119.73 156.78 C 118.53 157.11 117.33 157.45 116.13 157.79 C 115.76 157.12 115.40 156.46 115.04 155.79 C 116.02 154.76 117.06 153.79 118.12 152.84 Z" fill="#ffe401"/>
<path d="M 112.05 154.46 C 113.76 156.82 115.37 159.24 117.07 161.60 C 116.03 162.51 114.00 165.26 112.73 163.29 C 110.83 161.23 111.88 159.73 112.49 157.45 C 112.36 156.45 112.21 155.45 112.05 154.46 Z" fill="#ffe401"/>
<path d="M 113.53 158.77 C 114.43 159.78 115.53 161.43 114.76 162.78 C 112.73 163.40 112.38 159.92 113.53 158.77 Z" fill="#000000"/>
<path d="M 109.36 161.41 C 110.80 163.23 111.94 165.10 112.86 167.22 C 111.42 165.77 110.08 164.23 108.69 162.73 C 108.65 165.16 109.51 167.29 110.21 169.56 C 109.02 167.91 107.85 166.24 106.64 164.60 C 107.54 163.53 108.44 162.46 109.36 161.41 Z" fill="#ffe401"/>
<path d="M 103.31 164.00 L 104.04 163.61 L 104.75 164.04 L 104.72 164.86 L 103.99 165.25 L 103.29 164.82 L 103.31 164.00 Z" fill="#ffe401"/>
<path d="M 104.67 165.02 C 106.26 167.07 107.43 169.12 108.30 171.57 C 106.39 169.67 104.90 167.80 104.67 165.02 Z" fill="#ffe401"/>
<path d="M 103.81 167.25 C 103.08 168.40 102.33 169.55 101.58 170.68 C 102.68 170.50 103.78 170.31 104.88 170.12 C 105.34 170.82 105.79 171.52 106.25 172.22 C 105.00 173.18 103.76 174.15 102.51 175.11 C 103.40 173.96 104.30 172.81 105.20 171.67 C 103.87 171.65 102.54 171.61 101.21 171.53 C 99.55 169.37 102.54 168.51 103.81 167.25 Z" fill="#ffe401"/>
</svg>