<?xml version="1.0" encoding="UTF-8" standalone="no"?>
<svg xmlns:dc="http://purl.org/dc/elements/1.1/" xmlns:cc="http://creativecommons.org/ns#" xmlns:rdf="http://www.w3.org/1999/02/22-rdf-syntax-ns#" xmlns:svg="http://www.w3.org/2000/svg" xmlns="http://www.w3.org/2000/svg" xmlns:sodipodi="http://sodipodi.sourceforge.net/DTD/sodipodi-0.dtd" xmlns:inkscape="http://www.inkscape.org/namespaces/inkscape" inkscape:version="1.0 (4035a4f, 2020-05-01)" sodipodi:docname="1.svg" id="svg1021" height="200.0pt" width="200.0pt" viewBox="0 0 200 200" version="1.1">
  <metadata id="metadata1027">
    <rdf:RDF>
      <cc:Work rdf:about="">
        <dc:format>image/svg+xml</dc:format>
        <dc:type rdf:resource="http://purl.org/dc/dcmitype/StillImage"/>
      </cc:Work>
    </rdf:RDF>
  </metadata>
  <defs id="defs1025"/>
  <sodipodi:namedview inkscape:current-layer="svg1021" inkscape:cy="133.33333" inkscape:cx="133.33333" inkscape:zoom="1.75125" showgrid="false" id="namedview1023" inkscape:window-height="480" inkscape:window-width="640" inkscape:pageshadow="2" inkscape:pageopacity="0" guidetolerance="10" gridtolerance="10" objecttolerance="10" borderopacity="1" bordercolor="#666666" pagecolor="#ffffff"/>
  <path style="fill:#ffffff;fill-opacity:0.01214575" id="path949" fill="#ffffff" d="M 0.00 0.00 L 200.00 0.00 L 200.00 200.00 L 67.69 200.00 C 73.33 199.39 78.81 199.09 84.24 197.27 C 99.44 192.53 112.21 181.04 118.33 166.32 C 125.23 150.20 123.75 131.28 114.81 116.25 C 117.11 117.50 118.78 118.30 120.10 120.71 C 122.11 120.93 123.15 121.81 124.64 123.07 C 125.15 122.63 125.66 122.20 126.17 121.76 C 127.41 122.90 128.60 124.10 129.91 125.15 C 131.47 125.96 133.65 125.88 135.07 126.93 C 136.88 130.79 137.77 135.64 140.36 139.15 C 140.65 139.98 140.94 140.82 141.23 141.65 C 144.05 143.78 146.28 146.46 148.25 149.37 C 151.72 151.56 153.37 155.28 155.16 158.84 C 157.24 163.53 158.86 168.92 157.25 174.01 C 156.18 178.83 151.95 180.82 152.68 186.16 C 155.26 186.32 157.37 186.25 159.76 185.16 C 160.73 182.37 162.40 180.05 163.83 177.51 C 164.69 174.44 163.48 170.51 162.75 167.48 C 161.70 163.44 161.73 159.33 162.21 155.21 C 166.37 158.96 170.10 165.07 171.54 170.47 C 173.28 176.51 167.57 181.08 167.24 186.85 C 167.60 190.27 171.34 189.89 173.61 188.61 C 176.04 186.98 176.70 183.17 177.33 180.50 C 177.90 180.00 178.47 179.50 179.03 179.01 C 177.96 174.34 176.74 169.87 176.70 165.02 C 176.55 161.92 177.02 158.54 176.28 155.52 C 175.05 152.54 171.21 150.69 171.07 147.01 C 170.06 136.05 173.52 125.81 171.81 114.73 C 174.58 114.84 177.06 115.12 179.57 113.68 C 183.40 111.41 186.03 106.98 187.48 102.88 L 186.88 100.81 C 186.68 98.48 186.66 96.22 186.83 93.89 C 185.75 95.25 184.69 96.63 183.64 98.01 C 183.25 97.60 182.86 97.19 182.48 96.78 C 179.76 100.91 176.35 107.04 170.90 107.63 C 168.33 107.12 167.44 104.90 166.02 102.98 C 159.11 92.33 149.72 84.77 139.50 77.51 C 132.34 73.15 130.01 62.95 123.08 57.91 C 118.87 55.05 112.97 54.27 108.85 51.20 C 105.08 48.43 103.26 44.28 100.25 40.76 C 98.16 38.24 95.63 36.46 93.01 34.55 C 92.98 31.83 93.76 27.93 91.97 25.68 C 89.29 24.60 85.44 27.43 83.10 28.58 C 84.54 22.49 87.05 16.89 91.17 12.14 C 94.47 7.81 99.06 5.05 102.61 1.01 C 97.22 -0.68 92.57 1.46 87.94 4.02 C 83.06 7.20 79.48 11.87 75.12 15.46 C 77.23 10.34 80.91 6.70 84.57 2.71 C 80.70 2.75 77.06 3.51 74.10 6.17 C 68.60 11.89 64.62 18.52 62.06 26.03 C 59.51 23.53 57.47 21.83 53.69 21.82 C 55.00 26.44 54.70 30.49 58.81 33.76 C 57.07 38.05 59.68 41.59 58.70 45.94 C 58.13 51.05 54.98 56.79 56.18 61.76 C 57.08 65.22 60.04 65.53 62.49 67.54 C 64.69 70.36 63.58 75.46 63.74 78.82 C 66.84 76.12 67.75 72.63 68.85 68.85 C 69.08 71.51 69.35 74.16 69.86 76.79 C 75.30 71.12 72.93 63.97 76.51 58.06 C 76.73 59.51 76.94 60.97 77.12 62.43 C 80.11 64.36 81.20 67.53 82.75 70.56 C 77.22 74.68 71.85 80.87 64.88 83.60 C 58.54 84.97 52.53 86.10 47.28 90.24 C 45.59 91.58 45.05 93.49 44.11 95.36 C 30.45 101.28 19.68 114.17 15.29 128.31 C 9.44 146.72 13.94 167.72 27.12 181.88 C 34.85 190.39 45.24 196.34 56.50 198.63 C 59.96 199.30 63.51 199.51 67.00 200.00 L 0.00 200.00 L 0.00 0.00 Z"/>
  <path id="path951" fill="#020000" d="M 102.61 1.01 C 99.06 5.05 94.47 7.81 91.17 12.14 C 87.05 16.89 84.54 22.49 83.10 28.58 C 85.44 27.43 89.29 24.60 91.97 25.68 C 93.76 27.93 92.98 31.83 93.01 34.55 C 95.63 36.46 98.16 38.24 100.25 40.76 C 103.26 44.28 105.08 48.43 108.85 51.20 C 112.97 54.27 118.87 55.05 123.08 57.91 C 130.01 62.95 132.34 73.15 139.50 77.51 C 149.72 84.77 159.11 92.33 166.02 102.98 C 167.44 104.90 168.33 107.12 170.90 107.63 C 176.35 107.04 179.76 100.91 182.48 96.78 C 182.86 97.19 183.25 97.60 183.64 98.01 C 184.69 96.63 185.75 95.25 186.83 93.89 C 186.66 96.22 186.68 98.48 186.88 100.81 L 187.48 102.88 C 186.03 106.98 183.40 111.41 179.57 113.68 C 177.06 115.12 174.58 114.84 171.81 114.73 C 173.52 125.81 170.06 136.05 171.07 147.01 C 171.21 150.69 175.05 152.54 176.28 155.52 C 177.02 158.54 176.55 161.92 176.70 165.02 C 176.74 169.87 177.96 174.34 179.03 179.01 C 178.47 179.50 177.90 180.00 177.33 180.50 C 176.70 183.17 176.04 186.98 173.61 188.61 C 171.34 189.89 167.60 190.27 167.24 186.85 C 167.57 181.08 173.28 176.51 171.54 170.47 C 170.10 165.07 166.37 158.96 162.21 155.21 C 161.73 159.33 161.70 163.44 162.75 167.48 C 163.48 170.51 164.69 174.44 163.83 177.51 C 162.40 180.05 160.73 182.37 159.76 185.16 C 157.37 186.25 155.26 186.32 152.68 186.16 C 151.95 180.82 156.18 178.83 157.25 174.01 C 158.86 168.92 157.24 163.53 155.16 158.84 C 153.37 155.28 151.72 151.56 148.25 149.37 C 146.28 146.46 144.05 143.78 141.23 141.65 C 140.94 140.82 140.65 139.98 140.36 139.15 C 137.77 135.64 136.88 130.79 135.07 126.93 C 133.65 125.88 131.47 125.96 129.91 125.15 C 128.60 124.10 127.41 122.90 126.17 121.76 C 125.66 122.20 125.15 122.63 124.64 123.07 C 123.15 121.81 122.11 120.93 120.10 120.71 C 118.78 118.30 117.11 117.50 114.81 116.25 C 109.03 107.90 102.04 100.72 92.89 96.10 C 88.24 93.61 83.27 92.15 78.19 90.84 C 78.65 93.17 79.12 95.49 79.62 97.81 C 79.90 99.12 80.19 100.43 80.47 101.75 C 81.57 106.94 82.71 112.13 83.84 117.32 C 84.92 115.74 85.99 114.17 87.07 112.59 C 87.34 116.24 87.62 119.88 87.89 123.53 C 74.14 127.43 60.38 131.31 46.61 135.14 C 47.29 127.64 47.75 120.13 48.46 112.64 C 49.51 114.18 50.55 115.72 51.60 117.25 C 52.77 112.07 53.87 106.87 55.01 101.67 C 55.30 100.36 55.57 99.05 55.86 97.74 C 56.34 95.51 56.80 93.28 57.25 91.05 C 55.06 92.53 52.69 94.77 50.07 95.37 C 48.11 95.60 46.08 95.40 44.11 95.36 C 45.05 93.49 45.59 91.58 47.28 90.24 C 52.53 86.10 58.54 84.97 64.88 83.60 C 71.85 80.87 77.22 74.68 82.75 70.56 C 81.20 67.53 80.11 64.36 77.12 62.43 C 76.94 60.97 76.73 59.51 76.51 58.06 C 72.93 63.97 75.30 71.12 69.86 76.79 C 69.35 74.16 69.08 71.51 68.85 68.85 C 67.75 72.63 66.84 76.12 63.74 78.82 C 63.58 75.46 64.69 70.36 62.49 67.54 C 60.04 65.53 57.08 65.22 56.18 61.76 C 54.98 56.79 58.13 51.05 58.70 45.94 C 59.68 41.59 57.07 38.05 58.81 33.76 C 54.70 30.49 55.00 26.44 53.69 21.82 C 57.47 21.83 59.51 23.53 62.06 26.03 C 64.62 18.52 68.60 11.89 74.10 6.17 C 77.06 3.51 80.70 2.75 84.57 2.71 C 80.91 6.70 77.23 10.34 75.12 15.46 C 79.48 11.87 83.06 7.20 87.94 4.02 C 92.57 1.46 97.22 -0.68 102.61 1.01 Z"/>
  <path id="path953" fill="#ffffff" d="M 99.72 2.13 C 93.06 5.98 87.85 12.38 83.90 18.88 C 82.52 22.10 81.16 25.41 80.51 28.87 C 80.32 30.95 78.09 32.22 76.73 33.65 C 79.11 33.49 81.18 33.83 83.14 32.19 C 85.76 30.09 88.20 28.03 91.39 26.81 C 91.61 29.13 92.00 31.22 91.24 33.50 C 90.47 35.92 88.59 37.59 86.90 39.39 C 86.92 40.91 86.96 42.42 87.01 43.93 C 87.95 42.72 88.86 41.50 89.74 40.26 L 90.93 41.66 C 91.48 40.01 92.00 38.36 92.72 36.77 C 93.04 40.29 91.72 43.48 92.46 46.96 C 93.92 44.84 95.26 42.65 96.94 40.69 C 99.91 43.73 100.81 45.41 100.41 49.79 C 99.15 50.04 97.90 50.35 96.67 50.72 C 95.91 52.10 95.47 53.70 94.94 55.18 C 93.86 55.40 92.78 55.62 91.70 55.84 C 91.13 58.91 91.11 61.53 91.66 64.62 C 92.71 63.52 93.09 62.37 93.53 60.95 C 94.55 59.81 95.60 58.71 96.69 57.63 C 97.00 56.90 97.30 56.16 97.61 55.42 C 100.26 54.35 101.21 53.42 102.72 51.00 C 107.22 51.92 111.06 54.72 113.27 58.74 C 114.61 62.44 113.34 67.18 113.27 71.07 C 114.55 72.50 116.71 73.97 116.78 76.04 C 117.53 79.69 113.64 81.29 111.75 83.78 C 109.50 86.38 109.21 88.47 110.90 91.60 C 111.49 90.49 112.08 89.38 112.67 88.27 L 114.45 89.47 C 116.15 87.05 118.00 85.09 120.22 83.15 C 122.30 81.48 122.73 78.07 123.72 75.67 C 123.58 73.59 121.72 69.55 125.21 69.41 C 125.71 71.05 125.83 72.71 126.04 74.40 C 127.15 73.77 128.25 73.14 129.35 72.50 C 129.13 74.15 128.90 75.81 128.67 77.46 C 129.45 77.63 130.22 77.81 130.99 77.99 C 130.74 79.08 130.48 80.18 130.23 81.27 C 135.00 81.41 139.58 81.85 143.89 84.08 C 149.31 86.95 154.08 91.75 154.82 98.12 C 153.61 98.14 152.40 98.17 151.19 98.19 C 150.80 102.85 151.34 106.46 155.37 109.33 C 155.11 107.10 154.76 104.87 154.51 102.64 C 156.60 102.79 158.54 102.49 160.35 103.75 C 161.15 104.71 161.55 106.04 162.08 107.17 C 163.25 107.49 164.41 107.81 165.58 108.13 C 165.28 113.73 159.55 112.43 156.67 116.68 C 158.71 117.35 161.52 117.38 163.21 118.79 C 164.89 121.51 162.80 125.91 162.66 128.93 C 163.51 133.53 167.05 137.56 166.34 142.41 C 163.23 141.80 161.56 137.42 159.28 135.47 C 159.65 137.38 160.17 139.14 161.20 140.79 C 164.65 146.59 168.84 151.97 172.18 157.83 C 173.22 159.57 172.88 161.27 172.96 163.22 C 173.93 167.84 174.72 172.48 175.40 177.14 C 175.50 180.88 174.12 183.59 170.43 184.79 C 170.80 179.25 173.82 175.48 172.68 170.07 C 170.54 160.44 163.29 153.18 156.63 146.38 C 153.26 142.52 150.07 138.51 146.68 134.67 C 145.76 131.98 143.81 129.74 143.39 126.98 C 142.57 121.98 142.61 116.97 141.17 112.05 C 139.69 112.76 138.21 113.48 136.74 114.22 C 135.26 113.24 133.77 112.25 132.26 111.30 C 132.26 112.76 132.28 114.21 132.30 115.67 C 130.44 114.83 128.57 114.13 126.62 113.52 C 125.90 109.61 123.37 107.12 121.53 103.75 C 120.21 102.89 118.89 102.02 117.56 101.18 C 117.28 100.57 117.01 99.96 116.73 99.36 C 115.65 98.67 114.58 97.99 113.50 97.30 C 113.49 96.17 113.47 95.03 113.45 93.90 C 111.82 92.88 109.78 92.02 108.50 90.56 C 107.39 88.40 106.99 85.86 106.20 83.58 C 103.36 87.07 105.09 92.80 102.02 96.51 C 98.96 96.38 96.25 92.96 93.52 91.56 C 92.71 90.75 91.87 89.97 91.01 89.21 C 90.71 88.50 90.42 87.78 90.12 87.07 C 88.40 85.57 86.82 84.11 84.65 83.28 C 84.08 82.77 83.51 82.27 82.94 81.76 C 81.32 81.61 79.62 81.27 78.00 81.46 C 74.12 82.62 70.62 85.65 67.56 88.23 C 65.57 88.41 63.58 88.62 61.59 88.80 C 62.99 86.20 65.24 84.93 67.76 83.61 C 71.84 81.50 75.30 78.65 78.92 75.87 C 80.51 74.74 81.95 73.48 83.99 73.37 C 87.50 76.04 90.71 81.55 95.03 82.87 C 97.69 83.64 97.77 81.34 98.94 79.62 C 99.33 80.86 99.72 82.10 100.10 83.33 C 101.92 79.61 103.23 75.31 106.70 72.73 C 108.04 72.03 109.88 72.61 111.37 72.27 C 111.45 70.59 110.94 69.08 110.45 67.50 C 109.41 64.39 109.25 61.12 108.30 57.97 C 106.48 60.43 105.01 63.10 103.39 65.71 C 102.78 66.03 102.18 66.34 101.58 66.66 C 101.40 71.79 98.08 74.26 95.81 78.43 C 94.32 75.34 92.46 72.54 91.49 69.21 C 91.02 67.32 89.73 66.27 88.39 64.98 C 88.25 64.30 88.12 63.61 87.98 62.93 C 87.42 62.59 86.86 62.25 86.30 61.91 C 86.08 61.22 85.86 60.53 85.64 59.83 C 84.66 59.35 83.73 58.81 82.82 58.23 C 82.80 56.21 83.09 54.21 83.04 52.20 C 82.11 51.34 81.13 50.53 80.11 49.76 C 81.77 47.59 83.57 45.56 84.98 43.21 C 80.21 43.13 77.86 47.07 75.66 50.64 C 72.98 55.36 70.28 61.63 65.02 63.98 C 61.66 65.37 57.94 63.93 57.57 60.07 C 57.44 53.78 61.40 47.62 60.64 40.98 C 60.62 38.79 59.21 35.04 61.70 33.76 C 64.16 32.87 66.67 32.81 68.90 31.30 L 72.29 33.13 C 71.94 31.35 70.92 29.07 71.42 27.24 C 72.11 25.07 74.78 23.92 76.57 22.76 L 73.22 22.44 C 75.15 19.69 76.95 18.34 79.93 16.85 C 79.04 16.65 78.14 16.45 77.25 16.24 C 79.41 14.38 81.57 12.96 84.11 11.67 L 81.39 11.07 C 84.07 9.49 86.65 8.31 89.63 7.45 L 86.54 6.92 C 89.12 5.33 91.93 4.25 94.39 2.48 C 96.16 2.18 97.93 2.16 99.72 2.13 Z"/>
  <path id="path955" fill="#ffffff" d="M 80.84 4.05 C 75.45 9.74 72.29 16.67 69.74 23.99 C 69.02 26.41 67.52 28.28 68.25 30.91 C 65.77 31.75 64.95 31.29 63.56 28.96 C 62.95 26.16 65.23 25.14 66.95 23.53 L 64.01 23.40 C 65.37 21.39 66.70 19.91 68.69 18.53 C 67.95 18.38 67.21 18.23 66.46 18.08 C 67.80 16.77 69.17 15.52 70.62 14.35 C 70.51 13.63 70.39 12.90 70.27 12.17 C 71.36 11.28 72.45 10.39 73.55 9.51 C 73.90 8.72 74.25 7.93 74.60 7.15 C 76.56 5.84 78.69 4.99 80.84 4.05 Z"/>
  <path id="path957" fill="#ffffff" d="M 55.19 22.63 C 58.44 24.47 61.11 26.29 61.52 30.31 C 62.79 32.98 59.77 32.82 58.65 31.30 C 56.22 28.97 55.96 25.73 55.19 22.63 Z"/>
  <path id="path959" fill="#020000" d="M 91.38 28.89 C 89.82 33.33 88.14 36.81 83.51 38.67 C 83.92 37.00 83.92 34.56 85.36 33.39 C 87.25 31.76 89.41 30.43 91.38 28.89 Z"/>
  <path id="path961" fill="#020000" d="M 76.79 37.25 C 77.78 38.07 78.55 39.01 79.40 39.98 C 78.22 39.53 77.04 39.08 75.87 38.63 C 74.60 38.60 73.34 38.58 72.07 38.58 C 73.72 37.69 74.79 36.50 76.79 37.25 Z"/>
  <path id="path963" fill="#020000" d="M 69.00 38.66 C 70.32 43.14 68.14 46.51 65.44 49.87 C 66.07 47.26 66.76 44.67 67.20 42.01 C 67.37 40.45 67.96 39.77 69.00 38.66 Z"/>
  <path id="path965" fill="#020000" d="M 75.04 39.66 C 76.11 39.81 78.13 41.90 76.61 42.60 C 74.83 44.60 72.83 42.88 70.72 42.46 C 72.11 41.32 73.21 40.08 75.04 39.66 Z"/>
  <path id="path967" fill="#020000" d="M 71.07 46.25 C 71.51 48.58 72.17 50.64 71.01 52.91 C 67.88 53.18 68.39 51.48 69.28 49.44 C 69.86 48.36 70.46 47.30 71.07 46.25 Z"/>
  <path id="path969" fill="#020000" d="M 65.63 55.77 C 64.87 56.95 64.31 59.19 62.81 59.61 C 61.74 59.64 60.65 59.20 59.62 58.94 C 60.76 58.32 61.91 57.71 63.05 57.11 C 63.91 56.66 64.77 56.21 65.63 55.77 Z"/>
  <path id="path971" fill="#020000" d="M 137.61 84.55 C 140.41 83.31 144.40 86.64 146.88 87.79 C 146.23 89.24 145.57 90.69 144.94 92.15 C 143.59 92.05 142.25 91.97 140.90 91.91 C 138.44 90.16 134.71 87.86 137.61 84.55 Z"/>
  <path id="path973" fill="#ffffff" d="M 56.98 87.01 C 58.76 86.52 60.55 86.04 62.34 85.57 C 61.30 86.81 60.28 88.06 59.25 89.31 C 55.66 90.65 52.45 92.14 48.46 91.59 C 50.89 89.71 53.50 88.39 56.34 87.27 L 56.98 87.01 Z"/>
  <path id="path975" fill="#ed1c24" d="M 68.95 90.06 C 71.91 89.94 74.94 90.47 77.87 90.82 C 77.43 92.91 76.99 94.99 76.55 97.07 C 70.59 96.25 64.85 96.16 58.90 97.17 C 58.41 94.94 57.94 92.72 57.49 90.48 C 58.36 91.18 59.22 91.88 60.09 92.59 C 63.09 91.91 65.94 90.64 68.95 90.06 Z"/>
  <path id="path977" fill="#ed1c24" d="M 57.25 91.05 C 56.80 93.28 56.34 95.51 55.86 97.74 C 43.94 101.05 33.45 108.32 26.84 118.86 C 17.05 134.01 16.79 154.39 26.20 169.78 C 33.98 182.78 47.88 191.62 62.98 193.03 C 80.23 194.85 97.68 186.76 107.49 172.48 C 117.45 158.36 118.95 139.20 111.32 123.69 C 105.14 110.87 93.36 101.41 79.62 97.81 C 79.12 95.49 78.65 93.17 78.19 90.84 C 83.27 92.15 88.24 93.61 92.89 96.10 C 102.04 100.72 109.03 107.90 114.81 116.25 C 123.75 131.28 125.23 150.20 118.33 166.32 C 112.21 181.04 99.44 192.53 84.24 197.27 C 78.81 199.09 73.33 199.39 67.69 200.00 L 67.00 200.00 C 63.51 199.51 59.96 199.30 56.50 198.63 C 45.24 196.34 34.85 190.39 27.12 181.88 C 13.94 167.72 9.44 146.72 15.29 128.31 C 19.68 114.17 30.45 101.28 44.11 95.36 C 46.08 95.40 48.11 95.60 50.07 95.37 C 52.69 94.77 55.06 92.53 57.25 91.05 Z"/>
  <path id="path979" fill="#ffffff" d="M 58.90 97.17 C 64.85 96.16 70.59 96.25 76.55 97.07 C 76.30 98.24 76.05 99.41 75.80 100.58 C 70.29 99.91 65.16 99.91 59.65 100.59 C 59.40 99.45 59.15 98.31 58.90 97.17 Z"/>
  <path id="path981" fill="#ffffff" d="M 55.86 97.74 C 55.57 99.05 55.30 100.36 55.01 101.67 C 43.95 105.20 34.39 112.51 28.71 122.70 C 25.26 128.57 23.65 135.04 22.84 141.75 C 30.79 139.64 38.68 137.30 46.61 135.14 C 60.38 131.31 74.14 127.43 87.89 123.53 C 93.39 121.96 98.90 120.40 104.41 118.88 C 98.99 111.62 91.88 105.84 83.30 102.75 C 82.36 102.41 81.42 102.08 80.47 101.75 C 80.19 100.43 79.90 99.12 79.62 97.81 C 93.36 101.41 105.14 110.87 111.32 123.69 C 118.95 139.20 117.45 158.36 107.49 172.48 C 97.68 186.76 80.23 194.85 62.98 193.03 C 47.88 191.62 33.98 182.78 26.20 169.78 C 16.79 154.39 17.05 134.01 26.84 118.86 C 33.45 108.32 43.94 101.05 55.86 97.74 Z"/>
  <path id="path983" fill="#ed1c24" d="M 59.65 100.59 C 65.16 99.91 70.29 99.91 75.80 100.58 C 74.59 106.16 73.39 111.75 72.17 117.32 C 71.09 115.74 70.01 114.17 68.92 112.59 C 68.59 117.46 68.37 122.35 67.86 127.20 C 67.14 122.36 66.78 117.48 66.49 112.59 C 65.41 114.13 64.34 115.67 63.26 117.21 C 62.04 111.68 60.85 106.13 59.65 100.59 Z"/>
  <path id="path985" fill="#ed1c24" d="M 55.01 101.67 C 53.87 106.87 52.77 112.07 51.60 117.25 C 50.55 115.72 49.51 114.18 48.46 112.64 C 47.75 120.13 47.29 127.64 46.61 135.14 C 38.68 137.30 30.79 139.64 22.84 141.75 C 23.65 135.04 25.26 128.57 28.71 122.70 C 34.39 112.51 43.95 105.20 55.01 101.67 Z"/>
  <path id="path987" fill="#ed1c24" d="M 80.47 101.75 C 81.42 102.08 82.36 102.41 83.30 102.75 C 91.88 105.84 98.99 111.62 104.41 118.88 C 98.90 120.40 93.39 121.96 87.89 123.53 C 87.62 119.88 87.34 116.24 87.07 112.59 C 85.99 114.17 84.92 115.74 83.84 117.32 C 82.71 112.13 81.57 106.94 80.47 101.75 Z"/>
  <path id="path989" fill="#ffffff" d="M 184.21 105.01 C 183.12 109.04 176.39 113.52 172.86 109.88 C 176.46 107.86 180.52 106.91 184.21 105.01 Z"/>
  <path id="path991" fill="#ed1c24" d="M 97.61 123.71 C 97.50 126.40 97.36 129.10 97.24 131.79 C 95.70 131.62 93.99 131.18 92.44 131.47 C 89.94 132.29 88.20 134.48 87.67 137.03 C 88.08 138.51 88.43 139.65 90.17 139.80 C 92.61 140.14 94.97 137.82 96.83 136.51 C 96.40 139.27 96.03 142.04 95.66 144.82 C 91.86 146.42 87.28 148.71 83.19 146.79 C 79.46 144.93 78.96 140.72 79.99 137.04 C 82.33 129.08 89.44 124.15 97.61 123.71 Z"/>
  <path id="path993" fill="#ed1c24" d="M 78.00 128.99 C 77.86 131.07 77.71 133.16 77.56 135.25 C 74.85 136.22 71.13 136.03 70.09 139.26 C 72.25 138.77 74.39 138.20 76.52 137.61 C 76.36 139.48 76.21 141.35 76.06 143.22 C 74.07 143.80 72.09 144.38 70.10 144.95 C 69.82 147.46 69.58 149.98 69.33 152.49 C 66.60 153.27 63.87 154.04 61.13 154.80 C 61.80 147.57 62.43 140.34 63.23 133.12 C 68.16 131.77 73.06 130.33 78.00 128.99 Z"/>
  <path id="path995" fill="#ed1c24" d="M 48.17 137.36 C 47.46 144.58 46.77 151.81 46.13 159.04 C 43.44 159.78 40.75 160.53 38.07 161.29 C 38.45 156.42 38.90 151.55 39.41 146.69 C 38.25 147.06 37.10 147.44 35.94 147.81 C 36.17 145.55 36.38 143.29 36.59 141.03 C 40.43 139.76 44.30 138.55 48.17 137.36 Z"/>
  <path id="path997" fill="#ed1c24" d="M 112.62 142.81 C 113.16 158.67 105.67 173.43 92.53 182.29 C 91.75 171.24 90.76 160.21 89.99 149.16 C 96.58 147.35 103.15 145.48 109.72 143.63 C 110.69 143.36 111.65 143.09 112.62 142.81 Z"/>
  <path id="path999" fill="#020000" d="M 89.99 149.16 C 90.76 160.21 91.75 171.24 92.53 182.29 C 77.73 192.19 57.58 192.18 42.83 182.20 C 43.48 175.46 43.95 168.71 44.46 161.96 C 59.63 157.66 74.81 153.39 89.99 149.16 Z"/>
  <path id="path1001" fill="#ed1c24" d="M 53.25 150.28 C 54.85 149.58 56.06 149.75 57.60 150.52 C 59.19 154.19 55.30 157.31 51.98 157.57 C 50.34 157.60 48.94 156.85 49.13 155.02 C 49.32 152.86 51.32 151.04 53.25 150.28 Z"/>
  <path id="path1003" fill="#ffffff" d="M 157.12 155.45 C 158.10 156.28 158.61 157.55 158.65 159.26 C 158.07 159.47 157.47 159.55 156.84 159.50 C 156.66 158.68 155.57 155.39 157.12 155.45 Z"/>
  <path id="path1005" fill="#ffffff" d="M 85.18 157.12 C 86.41 156.79 87.63 156.46 88.85 156.13 C 88.51 160.84 88.10 165.54 87.70 170.24 C 86.46 170.61 85.22 170.97 83.98 171.34 C 83.00 169.12 81.98 166.91 80.95 164.70 C 80.89 167.14 80.93 169.68 80.54 172.08 L 77.06 173.46 C 77.29 168.63 77.62 163.81 78.12 159.01 C 79.38 158.72 80.65 158.43 81.92 158.15 C 82.78 160.38 83.64 162.61 84.48 164.84 C 84.71 162.27 84.92 159.69 85.18 157.12 Z"/>
  <path id="path1007" fill="#ffffff" d="M 65.70 158.58 C 65.57 161.19 65.48 161.34 62.81 161.85 C 63.72 160.41 63.47 158.22 65.70 158.58 Z"/>
  <path id="path1009" fill="#ffffff" d="M 62.37 159.09 L 61.19 162.62 C 63.44 163.21 66.66 162.75 67.52 165.44 C 68.46 168.79 67.57 172.66 65.30 175.30 C 63.45 177.50 59.42 179.41 57.08 176.89 C 54.20 172.63 57.07 165.51 61.73 163.65 C 60.96 163.04 60.19 162.41 59.43 161.78 C 60.25 160.45 61.02 159.88 62.37 159.09 Z"/>
  <path id="path1011" fill="#ffffff" d="M 159.49 160.09 C 160.29 163.70 160.52 167.49 160.57 171.19 C 160.92 171.53 161.26 171.88 161.61 172.22 C 161.71 174.34 161.83 176.46 161.93 178.58 C 160.45 180.22 159.48 183.72 156.93 183.54 C 154.31 181.97 156.64 180.29 157.17 178.16 C 159.88 172.42 159.42 166.33 157.41 160.45 C 158.10 160.32 158.80 160.20 159.49 160.09 Z"/>
  <path id="path1013" fill="#ffffff" d="M 73.79 160.28 C 73.52 163.47 73.25 166.66 73.00 169.85 C 74.07 169.59 75.15 169.33 76.22 169.06 C 76.19 170.52 76.17 171.97 76.14 173.43 C 73.65 174.18 71.15 174.90 68.65 175.61 C 69.13 170.90 69.50 166.18 69.84 161.45 C 71.16 161.06 72.47 160.67 73.79 160.28 Z"/>
  <path id="path1015" fill="#ed1c24" d="M 44.46 161.96 C 43.95 168.71 43.48 175.46 42.83 182.20 C 36.77 178.13 32.10 172.74 28.29 166.56 C 33.66 164.97 39.08 163.53 44.46 161.96 Z"/>
  <path id="path1017" fill="#ffffff" d="M 56.90 164.97 C 55.61 167.61 54.30 170.24 53.00 172.88 C 54.04 174.95 55.09 177.02 56.14 179.09 C 54.63 179.51 53.13 179.94 51.64 180.38 C 50.95 178.66 50.27 176.94 49.56 175.23 C 49.37 177.17 49.20 179.12 49.05 181.07 C 47.80 181.41 46.54 181.75 45.29 182.10 C 45.78 177.44 45.73 172.58 46.70 168.00 C 47.86 167.52 49.03 167.08 50.22 166.68 C 50.02 168.73 49.82 170.78 49.66 172.83 C 50.69 170.64 51.68 168.43 52.65 166.21 C 54.06 165.79 55.48 165.38 56.90 164.97 Z"/>
  <path id="path1019" fill="#020000" d="M 63.19 167.21 C 63.82 169.28 64.51 171.08 62.71 172.79 C 62.08 173.27 60.45 174.13 60.24 172.80 C 59.00 170.29 61.14 168.34 63.19 167.21 Z"/>
</svg>