<?xml version="1.0" encoding="UTF-8" standalone="no"?>
<svg xmlns:dc="http://purl.org/dc/elements/1.1/" xmlns:cc="http://creativecommons.org/ns#" xmlns:rdf="http://www.w3.org/1999/02/22-rdf-syntax-ns#" xmlns:svg="http://www.w3.org/2000/svg" xmlns="http://www.w3.org/2000/svg" xmlns:sodipodi="http://sodipodi.sourceforge.net/DTD/sodipodi-0.dtd" xmlns:inkscape="http://www.inkscape.org/namespaces/inkscape" inkscape:version="1.0 (4035a4f, 2020-05-01)" sodipodi:docname="10.svg" id="svg2226" height="200.0pt" width="200.0pt" viewBox="0 0 200 200" version="1.1">
  <metadata id="metadata2232">
    <rdf:RDF>
      <cc:Work rdf:about="">
        <dc:format>image/svg+xml</dc:format>
        <dc:type rdf:resource="http://purl.org/dc/dcmitype/StillImage"/>
      </cc:Work>
    </rdf:RDF>
  </metadata>
  <defs id="defs2230"/>
  <sodipodi:namedview inkscape:current-layer="svg2226" inkscape:cy="133.33333" inkscape:cx="133.33333" inkscape:zoom="1.75125" showgrid="false" id="namedview2228" inkscape:window-height="480" inkscape:window-width="640" inkscape:pageshadow="2" inkscape:pageopacity="0" guidetolerance="10" gridtolerance="10" objecttolerance="10" borderopacity="1" bordercolor="#666666" pagecolor="#ffffff"/>
  <path style="fill:#ffffff;fill-opacity:0" id="path2188" fill="#ffffff" d="M 0.00 0.00 L 200.00 0.00 L 200.00 200.00 L 0.00 200.00 L 0.00 0.00 Z"/>
  <path id="path2190" fill="#d30029" d="M 13.72 3.54 C 71.24 3.53 128.76 3.53 186.28 3.54 C 186.03 27.86 187.45 51.13 182.93 74.98 C 177.95 99.91 167.34 123.75 152.18 144.15 C 137.54 163.99 119.57 180.70 100.00 195.59 C 78.15 178.99 58.21 159.97 42.86 137.09 C 27.14 113.51 16.97 85.82 14.70 57.52 C 13.16 39.65 13.89 21.48 13.72 3.54 Z"/>
  <path id="path2192" fill="#ffffff" d="M 17.43 7.24 C 72.23 7.05 127.76 7.20 182.65 7.17 C 182.44 27.33 183.46 46.39 180.68 66.16 C 178.63 81.99 173.62 97.57 167.02 112.07 C 152.54 143.80 127.36 169.96 100.00 191.01 C 80.46 176.00 62.04 158.30 47.90 138.05 C 36.77 122.21 28.59 104.48 23.35 85.86 C 16.04 59.86 17.42 33.95 17.43 7.24 Z"/>
  <path id="path2194" fill="#d30029" d="M 68.09 11.12 C 73.91 12.39 78.06 18.15 81.26 22.77 C 83.48 20.98 85.74 19.48 88.27 18.15 C 89.15 19.12 90.01 20.07 90.86 21.00 C 87.16 24.62 82.71 29.62 82.29 35.00 C 82.33 38.45 85.16 42.59 87.75 44.72 C 90.71 44.74 93.27 43.77 95.82 42.37 C 95.51 37.80 94.74 33.55 92.81 29.37 C 96.89 26.28 99.38 23.09 101.15 18.27 C 105.31 19.88 109.38 20.70 113.81 21.12 C 113.63 25.94 112.10 29.61 109.36 33.52 C 106.96 31.14 104.91 29.73 101.66 28.70 C 103.92 32.68 106.01 36.62 107.17 41.07 C 112.00 40.55 115.61 37.08 117.61 32.85 C 118.71 29.15 118.07 25.51 119.83 21.87 C 121.98 16.93 126.73 13.74 131.98 12.95 C 136.48 12.18 140.64 13.16 144.93 14.40 C 144.96 16.20 145.05 18.00 145.17 19.80 C 141.73 18.86 138.54 17.73 134.94 18.76 C 133.07 19.36 131.59 20.97 131.55 22.99 C 131.73 26.08 133.68 27.90 135.62 30.04 C 139.28 24.50 144.03 21.44 150.32 19.50 C 151.85 16.31 153.53 13.83 156.00 11.29 C 162.26 13.15 165.90 17.78 169.38 22.97 C 171.78 21.25 174.26 19.83 176.95 18.60 C 177.62 19.65 178.40 20.61 179.08 21.66 C 175.42 25.14 171.34 29.80 170.67 34.99 C 170.17 40.62 176.74 44.29 177.54 49.99 C 178.72 56.28 175.61 60.92 172.29 65.87 C 173.11 67.90 174.03 69.76 174.06 71.99 C 174.07 74.65 172.96 76.72 171.93 79.08 C 169.59 78.31 167.49 77.27 164.96 77.71 C 159.87 78.60 155.81 82.65 154.97 87.77 C 146.69 87.11 140.45 81.48 133.70 77.27 C 129.99 74.95 124.95 72.35 120.46 73.53 C 118.16 74.21 117.85 76.97 119.53 78.49 C 121.65 80.19 125.35 79.76 127.93 79.90 C 127.07 82.37 126.49 84.89 126.08 87.48 C 123.56 86.91 121.23 86.56 119.22 84.80 C 114.16 80.64 113.57 72.03 118.66 67.66 C 121.91 64.80 126.15 64.97 130.22 64.55 C 126.35 63.82 122.95 62.72 119.37 61.08 C 120.58 59.60 121.80 58.12 123.01 56.65 C 126.69 57.99 130.52 59.79 134.49 58.58 C 136.69 57.91 140.05 56.61 140.43 54.00 C 140.18 51.53 137.14 50.45 135.02 50.25 C 128.92 49.61 123.06 53.92 117.00 54.31 C 114.98 54.35 112.88 53.93 110.88 53.62 C 116.41 52.05 121.18 50.10 124.28 44.95 C 119.83 47.13 115.78 48.91 110.66 47.98 C 112.70 47.00 114.87 46.07 116.69 44.72 C 118.60 43.18 119.56 41.16 120.72 39.07 C 116.46 42.55 112.62 44.49 107.10 45.25 C 107.05 56.84 107.14 68.43 107.05 80.02 C 104.85 81.00 102.71 81.65 100.34 82.10 C 100.34 84.53 100.36 86.95 100.44 89.38 C 98.94 90.33 97.35 91.04 95.70 91.69 C 95.61 76.77 95.65 61.85 95.68 46.94 C 93.55 47.59 91.41 48.19 89.26 48.75 C 89.53 53.37 89.25 57.74 86.77 61.78 C 86.04 63.11 84.83 64.41 84.34 65.83 C 84.79 67.86 85.86 69.94 85.71 71.99 C 85.66 74.53 84.52 76.46 83.48 78.69 C 81.02 77.71 78.84 76.71 76.13 77.34 C 70.93 78.48 67.63 82.54 66.34 87.55 C 57.93 86.10 52.18 81.20 45.26 76.76 C 41.66 74.52 36.37 71.77 32.08 73.13 C 29.61 73.73 29.56 77.20 31.62 78.34 C 33.83 79.66 37.10 79.35 39.61 79.44 C 38.68 81.92 38.12 84.45 37.73 87.07 C 35.17 86.45 32.81 86.06 30.77 84.24 C 26.00 80.19 25.23 72.29 29.76 67.77 C 33.01 64.45 37.08 64.36 41.45 64.46 C 37.99 63.22 34.48 62.13 31.08 60.71 C 32.22 59.21 33.36 57.71 34.51 56.22 C 38.12 57.39 42.25 59.39 46.03 58.15 C 48.11 57.57 51.32 56.25 51.81 53.89 C 52.11 51.49 49.50 50.10 47.54 49.56 C 42.52 48.28 37.92 50.96 33.01 51.70 C 29.08 52.52 25.35 51.77 21.59 50.62 C 27.04 49.34 32.05 48.76 35.89 44.21 C 30.85 45.23 26.15 46.39 21.02 44.97 C 25.38 43.69 29.19 42.41 32.07 38.68 C 28.28 39.70 24.70 40.60 20.73 40.02 C 24.14 38.13 27.38 36.91 29.12 33.11 C 30.36 29.68 29.74 25.60 31.18 22.14 C 32.84 17.77 36.57 14.48 41.01 13.12 C 46.35 11.49 51.61 12.30 56.76 14.13 C 56.76 15.80 56.75 17.47 56.74 19.13 C 53.53 18.44 49.51 17.25 46.35 18.39 C 44.34 19.10 43.24 20.90 43.31 23.00 C 43.34 25.97 45.41 27.67 47.16 29.79 C 50.94 24.19 55.19 21.32 61.55 19.20 C 63.56 16.95 65.09 12.16 68.09 11.12 Z"/>
  <path id="path2196" fill="#ffffff" d="M 150.96 24.86 C 155.83 24.08 161.42 27.27 162.75 32.11 C 163.72 35.78 161.42 39.62 157.89 40.75 C 155.24 41.40 152.16 40.95 149.47 40.70 C 146.57 36.78 142.73 34.16 138.61 31.68 C 141.83 28.06 146.16 25.59 150.96 24.86 Z"/>
  <path id="path2198" fill="#ffffff" d="M 67.82 26.29 C 71.25 27.40 72.93 30.02 74.63 32.98 C 72.57 38.24 70.91 44.35 71.52 50.02 C 72.15 55.11 75.49 59.18 76.40 64.00 C 76.66 65.85 75.82 67.34 74.23 68.23 C 72.06 69.41 69.53 70.68 67.04 70.78 C 60.19 70.44 54.27 67.14 47.71 65.33 C 51.99 64.75 55.90 64.27 59.24 61.25 C 64.48 56.59 64.70 48.36 61.51 42.49 C 58.93 37.85 54.68 35.26 50.65 32.04 C 54.96 27.68 61.64 24.32 67.82 26.29 Z"/>
  <path id="path2200" fill="#ffffff" d="M 151.56 46.63 C 159.31 48.34 165.31 56.20 165.13 64.06 C 164.75 68.42 161.13 70.80 157.02 71.00 C 150.38 71.09 143.17 67.81 136.85 65.89 C 136.74 65.77 136.63 65.64 136.53 65.51 C 141.69 65.33 146.43 63.89 149.51 59.50 C 152.36 55.49 152.00 51.28 151.56 46.63 Z"/>
  <path id="path2202" fill="#d30029" d="M 62.15 90.77 C 62.17 94.95 62.30 99.14 62.11 103.31 L 59.60 103.65 C 59.59 100.77 59.60 97.89 59.65 95.01 C 58.40 95.28 57.18 95.62 55.96 96.02 C 56.59 93.88 59.85 90.37 62.15 90.77 Z"/>
  <path id="path2204" fill="#d30029" d="M 73.63 93.16 C 74.13 94.26 73.03 95.50 72.76 96.62 C 73.50 98.21 74.60 99.03 74.03 100.95 C 73.07 104.80 66.85 104.74 65.78 101.03 C 65.35 99.32 66.24 98.16 66.89 96.67 C 66.62 95.51 65.66 94.25 66.11 93.10 C 66.81 89.81 73.00 89.84 73.63 93.16 Z"/>
  <path id="path2206" fill="#d30029" d="M 130.10 90.74 C 133.89 91.78 133.80 96.43 133.42 99.55 C 133.01 102.31 130.98 104.17 128.12 103.75 C 125.95 103.52 126.04 101.93 124.96 100.39 C 126.53 100.21 127.96 100.75 129.26 102.03 C 129.81 100.97 130.51 100.17 131.38 99.36 C 128.55 99.13 125.61 99.57 125.10 95.98 C 124.56 92.57 126.60 90.25 130.10 90.74 Z"/>
  <path id="path2208" fill="#d30029" d="M 142.53 92.41 C 143.48 94.06 142.55 95.04 142.02 96.59 C 143.07 98.18 143.99 99.03 143.39 101.09 C 142.31 103.70 139.26 104.46 136.86 103.21 C 135.72 102.56 135.29 101.02 134.72 99.91 C 136.68 99.87 137.60 100.56 139.12 101.63 C 141.27 101.29 140.95 100.00 140.68 98.32 C 139.71 97.90 138.73 97.48 137.76 97.06 C 138.80 96.08 139.86 95.15 140.72 93.99 C 138.63 91.37 137.82 94.51 135.14 94.53 C 135.34 90.40 140.33 89.32 142.53 92.41 Z"/>
  <path id="path2210" fill="#ffffff" d="M 68.44 93.49 C 69.84 91.96 71.35 92.70 71.34 94.51 C 70.70 96.66 67.83 95.68 68.44 93.49 Z"/>
  <path id="path2212" fill="#ffffff" d="M 128.14 93.19 C 130.34 91.26 131.99 96.58 129.51 97.35 C 127.39 97.87 126.82 94.23 128.14 93.19 Z"/>
  <path id="path2214" fill="#000000" d="M 100.00 94.64 C 104.05 97.47 108.10 100.25 112.53 102.48 C 128.32 110.70 145.44 113.73 163.09 114.40 C 148.82 143.78 125.81 167.37 100.00 186.91 C 74.19 167.37 51.18 143.79 36.91 114.40 C 59.62 113.66 81.55 108.44 100.00 94.64 Z"/>
  <path id="path2216" fill="#ffffff" d="M 68.42 98.47 C 70.81 96.00 72.92 99.92 70.68 101.66 C 68.43 102.08 67.82 100.35 68.42 98.47 Z"/>
  <path id="path2218" fill="#ffdd00" d="M 100.00 99.22 C 116.91 111.13 136.44 116.16 156.81 117.97 C 143.42 144.24 123.33 164.94 100.00 182.58 C 76.67 164.94 56.57 144.24 43.19 117.97 C 63.56 116.16 83.09 111.13 100.00 99.22 Z"/>
  <path id="path2220" fill="#000000" d="M 99.33 108.62 C 97.89 111.05 96.15 113.02 96.07 115.98 C 95.77 118.45 96.91 120.23 97.95 122.33 C 100.42 122.36 102.90 122.35 105.38 122.39 C 104.75 118.65 104.49 115.24 107.37 112.36 C 109.61 110.01 112.15 110.28 115.14 110.08 C 113.17 112.20 111.24 113.91 110.87 116.97 C 110.47 119.10 111.42 120.64 112.24 122.48 C 114.72 122.57 117.19 122.70 119.67 122.88 C 119.65 120.04 119.14 117.56 121.29 115.30 C 123.37 113.20 125.55 113.86 128.20 113.83 C 126.73 115.62 124.51 117.56 124.39 119.99 C 124.39 121.35 124.77 123.30 126.43 123.44 C 129.46 124.05 132.92 124.21 135.88 125.23 C 138.08 126.09 140.08 127.63 142.04 128.95 C 119.75 126.55 98.23 125.25 75.97 128.99 C 70.98 129.81 67.34 133.41 61.98 132.73 C 60.00 132.48 58.82 131.16 57.20 130.10 C 58.87 128.38 60.60 124.73 63.02 124.04 C 65.76 123.08 68.31 125.78 70.99 125.56 C 73.18 125.36 75.37 124.82 77.52 124.38 C 76.31 120.75 75.72 117.36 77.99 113.99 C 80.02 110.96 83.00 110.22 86.45 109.89 C 83.95 113.25 80.63 116.63 82.82 121.13 C 84.26 124.49 88.64 122.40 91.42 122.50 C 89.90 118.70 89.78 114.81 92.59 111.59 C 94.40 109.36 96.65 109.05 99.33 108.62 Z"/>
  <path id="path2222" fill="#000000" d="M 101.91 127.64 C 99.71 131.20 97.72 134.59 100.37 138.61 C 102.19 139.31 104.41 139.07 106.33 139.20 C 106.03 136.82 105.31 134.86 106.67 132.65 C 108.25 130.00 110.74 129.36 113.50 128.48 C 111.45 131.88 109.05 135.23 112.11 138.97 C 113.96 139.27 115.85 139.37 117.71 139.52 C 117.81 137.90 117.31 135.77 118.39 134.43 C 119.71 132.52 121.69 132.18 123.66 131.14 C 122.03 134.26 121.07 136.11 122.21 139.68 C 127.00 140.92 131.51 141.49 135.37 144.90 C 117.81 142.79 100.58 141.87 82.99 144.40 C 78.92 144.86 75.94 147.86 71.99 148.09 C 69.78 147.96 68.75 146.83 67.47 145.21 C 69.56 142.88 70.42 140.06 73.93 139.83 C 76.96 141.76 79.59 140.90 82.89 140.45 C 82.31 137.53 81.30 134.84 83.09 132.09 C 84.62 129.66 86.91 129.21 89.48 128.43 C 88.46 130.39 86.68 132.73 86.72 135.02 C 86.68 137.06 88.01 138.26 89.10 139.82 C 91.07 139.59 93.05 139.37 95.03 139.23 C 94.37 137.09 93.41 135.41 94.37 133.15 C 95.81 129.80 98.67 128.68 101.91 127.64 Z"/>
  <path id="path2224" fill="#000000" d="M 107.01 145.27 C 106.25 147.10 105.16 149.02 104.87 150.99 C 104.71 152.65 105.66 154.11 106.24 155.61 C 107.76 155.65 109.29 155.68 110.81 155.71 C 110.80 153.49 110.26 151.55 111.63 149.60 C 113.12 147.45 115.26 147.26 117.55 146.42 C 115.81 149.40 113.30 152.66 116.16 155.89 C 119.74 156.75 122.50 156.83 124.99 159.91 C 116.89 159.58 109.19 158.00 101.00 158.95 C 95.46 159.73 90.38 159.78 85.38 162.36 C 82.72 163.68 78.70 164.31 77.23 161.05 C 78.32 159.48 80.05 156.55 82.14 156.37 C 85.35 156.84 88.27 157.50 91.56 156.90 C 91.07 154.24 90.12 152.14 91.60 149.58 C 93.08 146.92 95.46 146.37 98.19 145.63 C 96.31 148.59 93.83 151.30 96.06 154.90 C 97.01 156.93 99.13 155.80 100.96 156.06 C 100.73 153.89 99.75 151.06 101.07 149.10 C 102.48 146.79 104.66 146.21 107.01 145.27 Z"/>
</svg>