<?xml version="1.0" encoding="UTF-8" standalone="no"?>
<svg xmlns:dc="http://purl.org/dc/elements/1.1/" xmlns:cc="http://creativecommons.org/ns#" xmlns:rdf="http://www.w3.org/1999/02/22-rdf-syntax-ns#" xmlns:svg="http://www.w3.org/2000/svg" xmlns="http://www.w3.org/2000/svg" xmlns:sodipodi="http://sodipodi.sourceforge.net/DTD/sodipodi-0.dtd" xmlns:inkscape="http://www.inkscape.org/namespaces/inkscape" inkscape:version="1.0 (4035a4f, 2020-05-01)" sodipodi:docname="103.svg" id="svg6229" height="200.0pt" width="200.0pt" viewBox="0 0 200 200" version="1.1">
  <metadata id="metadata6235">
    <rdf:RDF>
      <cc:Work rdf:about="">
        <dc:format>image/svg+xml</dc:format>
        <dc:type rdf:resource="http://purl.org/dc/dcmitype/StillImage"/>
      </cc:Work>
    </rdf:RDF>
  </metadata>
  <defs id="defs6233"/>
  <sodipodi:namedview inkscape:current-layer="svg6229" inkscape:cy="133.33333" inkscape:cx="133.33333" inkscape:zoom="1.75125" showgrid="false" id="namedview6231" inkscape:window-height="480" inkscape:window-width="640" inkscape:pageshadow="2" inkscape:pageopacity="0" guidetolerance="10" gridtolerance="10" objecttolerance="10" borderopacity="1" bordercolor="#666666" pagecolor="#ffffff"/>
  <path style="fill:#fdfdfe;fill-opacity:0" id="path6191" fill="#fdfdfe" d="M 0.00 0.00 L 200.00 0.00 L 200.00 200.00 L 0.00 200.00 L 0.00 0.00 Z"/>
  <path id="path6193" fill="#002037" d="M 93.01 5.23 C 103.54 3.35 114.27 5.91 123.11 11.83 C 135.30 19.95 142.98 31.54 149.32 44.48 C 147.14 47.61 144.85 50.60 142.33 53.47 C 142.34 70.54 142.34 87.61 142.33 104.68 C 148.38 104.67 154.44 104.69 160.49 104.66 C 160.41 106.02 160.34 107.38 160.26 108.74 C 152.96 108.67 145.66 108.70 138.37 108.71 C 138.36 91.59 138.37 74.47 138.37 57.35 C 133.65 61.01 128.81 64.09 123.39 66.62 C 123.30 80.67 123.47 94.71 123.30 108.75 C 116.22 108.67 109.15 108.69 102.08 108.73 C 102.11 113.71 102.11 118.70 102.13 123.69 C 109.21 123.67 116.29 123.67 123.36 123.68 C 123.36 145.12 123.39 166.56 123.35 188.00 C 122.04 188.85 120.72 189.69 119.40 190.52 C 119.42 169.55 119.39 148.58 119.42 127.61 C 113.64 127.63 107.86 127.61 102.09 127.63 C 102.16 150.23 102.07 172.83 102.13 195.43 C 96.56 195.42 91.13 194.83 85.90 192.80 C 86.03 151.90 85.88 110.98 85.98 70.08 C 79.96 68.40 74.38 66.23 68.93 63.16 C 68.92 102.70 69.02 142.25 68.89 181.79 C 62.17 175.38 56.72 167.53 52.61 159.22 C 52.52 126.20 52.59 93.03 52.58 60.00 C 52.43 54.57 53.58 49.91 50.57 45.03 C 55.12 34.99 60.99 25.68 69.05 18.07 C 75.76 11.70 83.84 6.91 93.01 5.23 Z"/>
  <path id="path6195" fill="#fdfdfe" d="M 96.92 9.35 C 103.05 8.13 108.39 9.93 114.00 12.15 C 114.00 14.17 114.00 16.19 114.01 18.21 C 110.74 16.50 107.45 15.34 103.87 14.48 C 103.78 18.30 103.79 22.11 103.82 25.93 C 105.90 25.71 107.97 25.46 110.03 25.12 C 110.04 27.32 110.04 29.52 110.05 31.72 C 108.03 31.32 105.98 31.07 103.93 30.83 C 104.03 36.11 103.37 41.92 104.73 47.00 C 101.97 47.00 99.21 47.00 96.44 47.00 C 97.12 45.04 97.70 43.13 97.64 41.03 C 97.65 33.02 97.62 25.01 97.65 17.00 C 97.70 14.41 97.25 11.90 96.92 9.35 Z"/>
  <path id="path6197" fill="#fdfdfe" d="M 81.55 13.64 C 85.44 11.91 90.45 13.98 91.58 18.19 C 92.60 21.52 90.76 24.93 89.33 27.85 C 92.55 29.80 95.06 31.88 95.11 35.97 C 95.83 42.07 89.91 47.37 84.03 47.08 C 79.73 47.12 75.42 47.00 71.12 47.00 C 72.45 42.63 71.92 38.49 72.00 34.00 C 71.93 29.69 72.43 25.82 71.20 21.64 C 74.40 18.84 77.72 15.53 81.55 13.64 Z"/>
  <path id="path6199" fill="#002037" d="M 83.09 19.40 C 85.42 19.58 86.26 22.33 85.21 24.15 C 83.79 26.79 80.32 28.45 77.84 29.91 C 77.96 27.49 77.57 24.70 78.29 22.37 C 79.60 20.97 81.27 19.98 83.09 19.40 Z"/>
  <path id="path6201" fill="#fdfdfe" d="M 123.00 19.49 C 125.56 19.36 127.55 20.82 129.69 21.98 C 128.97 23.53 128.23 25.08 127.51 26.63 C 124.92 25.88 122.99 24.44 120.67 26.65 C 118.01 29.16 117.73 36.28 119.96 39.08 C 122.48 41.88 124.99 40.47 127.92 39.41 C 128.50 41.09 129.08 42.78 129.65 44.47 C 127.14 45.68 124.89 46.87 121.98 46.51 C 118.04 46.21 114.74 43.47 113.38 39.81 C 112.04 35.86 112.07 31.42 113.34 27.46 C 114.82 23.28 118.44 19.82 123.00 19.49 Z"/>
  <path id="path6203" fill="#002037" d="M 85.92 33.04 C 88.41 33.91 89.43 36.18 88.89 38.70 C 86.66 41.83 81.46 41.37 78.05 41.70 C 78.02 39.74 77.99 37.78 77.97 35.81 C 80.28 34.53 83.17 32.59 85.92 33.04 Z"/>
  <path id="path6205" fill="#b71c32" d="M 50.57 45.03 C 53.58 49.91 52.43 54.57 52.58 60.00 C 52.59 93.03 52.52 126.20 52.61 159.22 C 44.20 142.63 40.16 123.51 39.56 105.00 C 38.92 84.55 42.19 63.78 50.57 45.03 Z"/>
  <path id="path6207" fill="#fdfdfe" d="M 92.00 50.18 C 96.88 50.66 97.73 58.10 95.33 61.31 C 93.02 64.32 88.79 63.81 87.04 60.47 C 89.67 60.69 91.56 61.19 93.90 59.62 C 92.08 58.95 88.56 59.39 87.69 57.29 C 85.86 54.03 88.38 50.21 92.00 50.18 Z"/>
  <path id="path6209" fill="#fdfdfe" d="M 102.35 50.32 C 104.78 49.02 107.46 51.79 108.07 54.00 C 109.41 57.54 108.14 62.97 104.00 63.91 C 97.60 63.47 97.06 52.79 102.35 50.32 Z"/>
  <path id="path6211" fill="#fdfdfe" d="M 116.43 50.54 C 120.48 52.18 120.12 58.56 116.87 60.86 C 114.62 62.69 112.50 62.17 110.09 61.05 C 111.91 60.31 113.76 59.69 115.61 59.05 C 114.13 58.34 112.47 57.75 111.13 56.79 C 109.75 54.86 110.62 53.26 111.21 51.24 C 112.91 50.69 114.68 49.51 116.43 50.54 Z"/>
  <path id="path6213" fill="#fdfdfe" d="M 85.04 50.18 C 85.08 54.15 85.07 58.11 85.07 62.07 C 84.00 61.62 82.94 61.17 81.87 60.73 C 81.88 58.38 81.89 56.04 81.92 53.70 C 80.95 53.64 79.98 53.58 79.02 53.53 C 80.90 51.79 82.42 50.61 85.04 50.18 Z"/>
  <path id="path6215" fill="#002037" d="M 91.24 52.44 L 93.30 53.27 C 93.10 54.63 92.78 55.96 92.46 57.30 C 91.47 56.71 90.48 56.12 89.49 55.55 C 90.04 54.49 90.60 53.45 91.24 52.44 Z"/>
  <path id="path6217" fill="#002037" d="M 102.96 52.73 C 104.70 53.13 105.10 53.53 105.66 55.18 C 106.47 57.79 104.97 59.58 103.92 61.82 C 103.04 60.60 101.78 59.29 101.42 57.80 C 101.05 55.87 101.99 54.31 102.96 52.73 Z"/>
  <path id="path6219" fill="#002037" d="M 113.55 53.53 C 113.99 52.87 114.83 52.63 116.09 52.83 C 116.34 53.87 116.86 56.59 114.94 56.06 C 113.90 56.72 112.57 54.00 113.55 53.53 Z"/>
  <path id="path6221" fill="#b71c32" d="M 138.37 57.35 C 138.37 74.47 138.36 91.59 138.37 108.71 C 145.66 108.70 152.96 108.67 160.26 108.74 C 159.97 113.76 159.43 118.75 158.63 123.71 C 151.86 123.65 145.08 123.64 138.31 123.75 C 138.45 140.39 138.29 157.04 138.40 173.68 C 134.19 179.14 129.14 184.20 123.35 188.00 C 123.39 166.56 123.36 145.12 123.36 123.68 C 116.29 123.67 109.21 123.67 102.13 123.69 C 102.11 118.70 102.11 113.71 102.08 108.73 C 109.15 108.69 116.22 108.67 123.30 108.75 C 123.47 94.71 123.30 80.67 123.39 66.62 C 128.81 64.09 133.65 61.01 138.37 57.35 Z"/>
  <path id="path6223" fill="#b71c32" d="M 68.93 63.16 C 74.38 66.23 79.96 68.40 85.98 70.08 C 85.88 110.98 86.03 151.90 85.90 192.80 C 79.51 190.37 73.81 186.51 68.89 181.79 C 69.02 142.25 68.92 102.70 68.93 63.16 Z"/>
  <path id="path6225" fill="#fdfdfe" d="M 119.43 68.14 C 119.37 80.33 119.44 92.52 119.40 104.70 C 113.63 104.66 107.87 104.68 102.10 104.68 C 102.11 93.60 102.14 82.52 102.09 71.44 C 108.18 71.09 113.64 70.05 119.43 68.14 Z"/>
  <path id="path6227" fill="#002037" d="M 138.31 123.75 C 145.08 123.64 151.86 123.65 158.63 123.71 C 158.42 125.01 158.22 126.32 158.02 127.62 C 152.78 127.62 147.55 127.61 142.31 127.63 C 142.39 141.14 142.27 154.64 142.37 168.14 C 141.07 170.00 139.77 171.86 138.40 173.68 C 138.29 157.04 138.45 140.39 138.31 123.75 Z"/>
</svg>