<?xml version="1.0" encoding="utf-8"?>
<!DOCTYPE svg PUBLIC "-//W3C//DTD SVG 1.1//EN" "http://www.w3.org/Graphics/SVG/1.1/DTD/svg11.dtd">
<svg version="1.1"
	 id="svg2" sodipodi:docname="AFC-Bournemouth-(2013).svg" inkscape:version="0.48.3.1 r9886" xmlns:dc="http://purl.org/dc/elements/1.1/" xmlns:cc="http://creativecommons.org/ns#" xmlns:rdf="http://www.w3.org/1999/02/22-rdf-syntax-ns#" xmlns:svg="http://www.w3.org/2000/svg" xmlns:sodipodi="http://sodipodi.sourceforge.net/DTD/sodipodi-0.dtd" xmlns:inkscape="http://www.inkscape.org/namespaces/inkscape"
	 xmlns="http://www.w3.org/2000/svg" xmlns:xlink="http://www.w3.org/1999/xlink" x="0px" y="0px" width="240.882px"
	 height="315.83px" viewBox="0 0 240.882 315.83" enable-background="new 0 0 240.882 315.83" xml:space="preserve">
<sodipodi:namedview  id="namedview397" inkscape:current-layer="svg2" inkscape:window-y="0" inkscape:window-x="0" fit-margin-bottom="0" fit-margin-right="0" inkscape:window-height="480" inkscape:window-width="640" inkscape:pageshadow="2" inkscape:pageopacity="0" inkscape:cy="166.09904" inkscape:cx="-312.961" inkscape:zoom="0.21796875" fit-margin-left="0" fit-margin-top="0" showgrid="false" guidetolerance="10" gridtolerance="10" objecttolerance="10" borderopacity="1" bordercolor="#666666" pagecolor="#ffffff" inkscape:window-maximized="0">
	</sodipodi:namedview>
<g>
	<defs>
		<rect id="SVGID_1_" y="-0.001" width="240.882" height="315.831"/>
	</defs>
	<clipPath id="SVGID_2_">
		<use xlink:href="#SVGID_1_"  overflow="visible"/>
	</clipPath>
	<path id="path14" inkscape:connector-curvature="0" clip-path="url(#SVGID_2_)" fill="#FFFFFF" d="M120.441,157.444v0.008
		c0-0.049,0-0.085,0-0.133C120.441,157.367,120.441,157.395,120.441,157.444"/>
</g>
<g>
	<defs>
		<path id="SVGID_3_" d="M10.918,36.173v79.367c16.879,138.167,110.13,191.982,110.13,191.982s101.705-69.367,108.824-191.982
			V36.173H10.918z"/>
	</defs>
	<clipPath id="SVGID_4_">
		<use xlink:href="#SVGID_3_"  overflow="visible"/>
	</clipPath>
	
		<linearGradient id="polygon29_1_" gradientUnits="userSpaceOnUse" x1="-177.5923" y1="-140.5996" x2="-176.5927" y2="-140.5996" gradientTransform="matrix(105.0628 -272.7982 272.7982 105.0628 57088.9102 -33385.2109)">
		<stop  offset="0" style="stop-color:#8B0304"/>
		<stop  offset="1" style="stop-color:#ED1C24"/>
	</linearGradient>
	<polygon id="polygon29" clip-path="url(#SVGID_4_)" fill="url(#polygon29_1_)" points="201.591,380.957 -80.089,272.474 
		39.199,-37.261 320.88,71.222 	"/>
</g>
<g>
	<defs>
		<rect id="SVGID_5_" y="-0.001" width="240.882" height="315.831"/>
	</defs>
	<clipPath id="SVGID_6_">
		<use xlink:href="#SVGID_5_"  overflow="visible"/>
	</clipPath>
	<path id="path39" inkscape:connector-curvature="0" clip-path="url(#SVGID_6_)" fill="#FFFFFF" d="M143.052,148.961
		L143.052,148.961c1.539,0.14,3.097,0.224,4.668,0.243C146.148,149.185,144.591,149.101,143.052,148.961"/>
</g>
<g>
	<defs>
		<rect id="SVGID_7_" y="-0.001" width="240.882" height="315.831"/>
	</defs>
	<clipPath id="SVGID_8_">
		<use xlink:href="#SVGID_7_"  overflow="visible"/>
	</clipPath>
	<polygon id="polygon41" clip-path="url(#SVGID_8_)" fill="#FFFFFF" points="139.583,148.571 139.583,148.585 139.591,148.571 	"/>
</g>
<g>
	<defs>
		<rect id="SVGID_9_" y="-0.001" width="240.882" height="315.831"/>
	</defs>
	<clipPath id="SVGID_10_">
		<use xlink:href="#SVGID_9_"  overflow="visible"/>
	</clipPath>
	<path id="path43" inkscape:connector-curvature="0" clip-path="url(#SVGID_10_)" fill="#FFFFFF" d="M95.748,139.645l-24.595-0.652
		l-0.442,9.763c0,0-3.613-0.209-7.423,0c-3.815,0.23-4.03,5.522-4.03,5.522s-2.974-0.211-6.149,0.633
		c-3.178,0.852-2.754,5.736-2.754,5.736s-8.279,0.215-11.035,3.393c-2.759,3.195-3.176,9.754-0.413,13.576
		c2.749,3.822,18.442,26.297,22.473,35.208c4.031,8.921,4.674,39.047,4.674,39.047l0.238,0.719l0.011,0.007
		c14.067,17.363,31.788,34.082,54.166,49.088c7.58-5.076,14.626-10.375,21.169-15.818l-40.797-47.09l2.499-2.166l0.792-0.043
		c0.265-0.017,0.524-0.029,0.797-0.029c1.47,0.014,2.906,0.184,4.551,0.178c2.619,0,5.704-0.371,9.693-2.474
		c1.638-0.882,2.711-2.109,3.431-3.604c0.724-1.503,1.054-3.246,1.034-4.929c0.02-1.806-0.408-3.539-0.889-4.479
		c-0.769-1.573-2.513-2.804-4.434-3.572c-1.908-0.785-3.847-1.096-4.543-1.174c-0.203-0.036-0.271-0.036-0.271-0.036h-0.122
		l-2.32-0.412l-7.661-8.536l3.631-3.135l6.499,7.227l0.503,0.086c0.496,0.055,2.328,0.273,4.524,0.984l-9.041-10.448l3.629-3.153
		l53.987,62.332c0.642-0.718,1.262-1.43,1.884-2.146l-53.733-62.022l3.626-3.143l53.274,61.48c0.609-0.729,1.22-1.477,1.818-2.201
		l-52.959-61.125l1.257-1.088c0,0,1.833,0.521,4.712,0.629l50.043,57.77c0.59-0.761,1.188-1.514,1.771-2.279l-48.138-55.562
		c1.681-0.127,3.533-0.437,5.486-1.004l45.597,52.628c0.564-0.785,1.123-1.559,1.688-2.354l-44.445-51.293
		c1.611-0.814,2.76-1.938,3.563-3.216l43.713,50.45c0.543-0.802,1.102-1.629,1.627-2.438l-44.082-50.881
		c0.812-2.847,0.572-5.711,0.42-6.851l46.371,53.524c0.526-0.834,1.049-1.672,1.563-2.512l-50.292-58.046v-7.331l52.888,61.045
		c0.571-0.99,1.144-1.975,1.699-2.974l-63.115-73.13c-0.64-0.164-1.262-0.357-1.892-0.534c-2.565-0.754-5.058-1.674-7.478-2.741
		c-0.459-0.206-0.912-0.438-1.364-0.663c-1.534-0.73-3.037-1.514-4.504-2.369c-0.51-0.299-1.015-0.61-1.518-0.925
		c-1.419-0.888-2.79-1.824-4.127-2.827c-0.418-0.308-0.84-0.612-1.253-0.942c-1.583-1.246-3.097-2.564-4.545-3.956
		c-0.083-0.077-0.178-0.145-0.26-0.226C100.584,133.097,95.748,139.645,95.748,139.645"/>
</g>
<g>
	<defs>
		<rect id="SVGID_11_" width="240.882" height="315.83"/>
	</defs>
	<clipPath id="SVGID_12_">
		<use xlink:href="#SVGID_11_"  overflow="visible"/>
	</clipPath>
	<path id="path53" inkscape:connector-curvature="0" clip-path="url(#SVGID_12_)" fill="#FFFFFF" d="M17.291,145.43
		c2.586,13.644,6.573,28.806,12.732,44.604c0.472,1.196,0.994,2.405,1.483,3.61c-0.489-1.205-1.012-2.414-1.483-3.617
		C23.864,174.235,19.877,159.073,17.291,145.43"/>
</g>
<g>
	<defs>
		<rect id="SVGID_13_" width="240.882" height="315.83"/>
	</defs>
	<clipPath id="SVGID_14_">
		<use xlink:href="#SVGID_13_"  overflow="visible"/>
	</clipPath>
	<path id="path55" inkscape:connector-curvature="0" clip-path="url(#SVGID_14_)" d="M0.04,17.138V50.4H0l0.068,45.977
		c-0.02,1.04-0.028,2.14-0.028,3.306c0,1.131,0.016,2.353,0.036,3.598v0.194H0.08c0.079,4.65,0.313,10.036,0.798,16.069
		c1.611,19.807,6.041,46.438,17.228,75.143c15.541,39.914,44.303,83.89,96.422,118.435l5.869,3.744l5.974-3.732
		c4.891-3.245,9.576-6.565,14.057-9.942c40.313-30.521,64.709-66.797,79.26-100.832l0.061-0.146l0.117-0.297
		c1.036-2.418,2.019-4.833,2.963-7.239c0.981-2.546,1.92-5.063,2.803-7.571c13.05-36.861,15.246-69.479,15.255-87.427
		c0-0.674-0.011-1.282-0.017-1.913l0.017-0.008V57.81v-7.409V17.139C162.229-5.713,78.692-5.713,0.04,17.138 M196.471,213.71
		l-17.468-19.54l0,0v-57.762c8.873-9.547,13.158-22.528,12.947-36.785c-0.19-13.32-4.125-25.888-12.947-35.743V44.736
		c5.043,0.693,12.461,2.008,17.484,2.877l-0.015,166.097H196.471z M160.707,172.894l-1.601-1.683l-16.151-18.72
		c0.681-0.01,1.363-0.01,2.041-0.042c4.941-0.278,11.268-2.271,15.711-3.865V172.894L160.707,172.894z M145.317,282.774
		l-35.75-41.254c1.072,0,2.267-0.072,3.551-0.268l34.313,39.656C146.729,281.511,146.019,282.149,145.317,282.774 M151.003,277.688
		l-32.712-37.771c0.88-0.339,1.773-0.742,2.701-1.207l32.078,37.071C152.395,276.419,151.701,277.051,151.003,277.688
		 M156.539,272.444l-31.691-36.616c0.654-0.736,1.202-1.515,1.678-2.34l32.018,36.964
		C157.873,271.115,157.219,271.769,156.539,272.444 M161.912,267.004l-33.645-38.828c0.115-0.834,0.174-1.646,0.174-2.468
		c0-0.584-0.031-1.174-0.089-1.75l35.517,40.984C163.228,265.637,162.563,266.332,161.912,267.004 M194.781,223.428l-52.889-61.044
		v7.331l50.292,58.046c-0.517,0.84-1.036,1.678-1.563,2.512l-46.373-53.524c0.155,1.14,0.394,4.004-0.418,6.851l44.082,50.881
		c-0.524,0.809-1.082,1.636-1.627,2.438l-43.713-50.45c-0.804,1.276-1.951,2.4-3.563,3.216l44.445,51.293
		c-0.563,0.795-1.121,1.568-1.688,2.354l-45.598-52.628c-1.953,0.567-3.807,0.877-5.485,1.004l48.138,55.562
		c-0.581,0.767-1.181,1.52-1.771,2.279l-50.043-57.77c-2.879-0.108-4.713-0.629-4.713-0.629l-1.256,1.088L174,253.36
		c-0.602,0.726-1.211,1.473-1.819,2.201l-53.274-61.48l-3.626,3.143l53.734,62.022c-0.623,0.716-1.244,1.428-1.886,2.146
		l-53.986-62.332l-3.629,3.153l9.041,10.448c-2.196-0.711-4.028-0.932-4.524-0.984l-0.503-0.086l-6.499-7.227l-3.631,3.135
		l7.661,8.536l2.32,0.411h0.121c0,0,0.068,0,0.271,0.037c0.696,0.078,2.635,0.389,4.543,1.174c1.921,0.77,3.665,1.998,4.433,3.572
		c0.48,0.94,0.908,2.674,0.889,4.479c0.021,1.683-0.312,3.426-1.033,4.929c-0.721,1.494-1.793,2.723-3.432,3.604
		c-3.988,2.103-7.072,2.474-9.692,2.474c-1.645,0.006-3.081-0.164-4.551-0.178c-0.271,0-0.532,0.014-0.798,0.029l-0.792,0.043
		l-2.499,2.166l40.797,47.09c-6.543,5.443-13.59,10.742-21.169,15.818C98.086,286.679,80.368,269.96,66.3,252.601l-0.01-0.011
		c-15.751-19.408-26.863-39.584-34.786-58.946c-0.487-1.203-1.011-2.414-1.481-3.608c-6.16-15.8-10.147-30.96-12.733-44.604
		c-2.887-15.267-3.989-28.565-4.317-38.69V54.303c47.845-12.304,98.865-15.999,147.732-11.608v7.849
		c-5.98-2.403-13.966-4.715-20.536-4.76c-28.779-0.25-51.14,23.975-50.706,53.159c0.424,27.914,21.378,50.993,48.169,53.333
		l58.847,68.181C195.921,221.455,195.351,222.438,194.781,223.428 M213.991,181.627c0,0.006,0.26,0.01,0.258,0.015V50.966
		c4.655,1.032,9.032,2.136,13.66,3.324v52.454l0.05-0.035C227.395,124.254,224.494,151.476,213.991,181.627"/>
</g>
<g>
	<defs>
		<rect id="SVGID_15_" y="-0.001" width="240.882" height="315.831"/>
	</defs>
	<clipPath id="SVGID_16_">
		<use xlink:href="#SVGID_15_"  overflow="visible"/>
	</clipPath>
	<path id="path65" inkscape:connector-curvature="0" clip-path="url(#SVGID_16_)" fill="#FFFFFF" d="M101.567,123.029l18.453,5.308
		l11.06,16.658c3.325,0.796,6.772,1.25,10.301,1.281c3.484,0.018,6.859-0.377,10.103-1.099l10.278-16.203l18.679-5.269
		c3.384-5.86,5.513-12.575,6.044-19.789l-12.063-15.34l0.5-19.904c-0.721-0.845-1.467-1.677-2.242-2.461
		c-4.133-4.187-8.998-7.599-14.385-9.992l-17.771,6.691l-18.392-7.091c-5.457,2.339-10.339,5.749-14.438,9.972
		c-0.699,0.729-1.365,1.484-2.034,2.261l1.158,19.485l-11.823,15.601C95.728,110.335,98.024,117.098,101.567,123.029
		 M140.777,79.423l19.859,14.75l-7.147,23.558l-24.296-0.159l-7.822-23.665L140.777,79.423z"/>
</g>
<g>
	<defs>
		<rect id="SVGID_17_" y="-0.001" width="240.882" height="315.831"/>
	</defs>
	<clipPath id="SVGID_18_">
		<use xlink:href="#SVGID_17_"  overflow="visible"/>
	</clipPath>
	<polygon id="polygon67" clip-path="url(#SVGID_18_)" points="160.636,93.908 140.777,79.158 121.373,93.641 129.193,117.306 
		153.489,117.465 	"/>
</g>
<g>
	<defs>
		<rect id="SVGID_19_" y="-0.001" width="240.882" height="315.831"/>
	</defs>
	<clipPath id="SVGID_20_">
		<use xlink:href="#SVGID_19_"  overflow="visible"/>
	</clipPath>
	<path id="path69" inkscape:connector-curvature="0" clip-path="url(#SVGID_20_)" fill="#FFFFFF" d="M109.567,241.521l35.75,41.254
		c0.702-0.625,1.412-1.264,2.113-1.865l-34.312-39.656C111.834,241.448,110.639,241.521,109.567,241.521"/>
</g>
<g>
	<defs>
		<rect id="SVGID_21_" y="-0.001" width="240.882" height="315.831"/>
	</defs>
	<clipPath id="SVGID_22_">
		<use xlink:href="#SVGID_21_"  overflow="visible"/>
	</clipPath>
	<path id="path71" inkscape:connector-curvature="0" clip-path="url(#SVGID_22_)" fill="#FFFFFF" d="M118.291,239.917l32.712,37.771
		c0.697-0.637,1.394-1.27,2.066-1.907l-32.078-37.072C120.064,239.174,119.171,239.577,118.291,239.917"/>
</g>
<g>
	<defs>
		<rect id="SVGID_23_" y="-0.001" width="240.882" height="315.831"/>
	</defs>
	<clipPath id="SVGID_24_">
		<use xlink:href="#SVGID_23_"  overflow="visible"/>
	</clipPath>
	<path id="path73" inkscape:connector-curvature="0" clip-path="url(#SVGID_24_)" fill="#FFFFFF" d="M124.847,235.828l31.691,36.616
		c0.682-0.674,1.334-1.33,2.004-1.993l-32.019-36.964C126.049,234.313,125.501,235.091,124.847,235.828"/>
</g>
<g>
	<defs>
		<rect id="SVGID_25_" y="-0.001" width="240.882" height="315.831"/>
	</defs>
	<clipPath id="SVGID_26_">
		<use xlink:href="#SVGID_25_"  overflow="visible"/>
	</clipPath>
	<path id="path75" inkscape:connector-curvature="0" clip-path="url(#SVGID_26_)" fill="#FFFFFF" d="M128.352,223.959
		c0.06,0.576,0.09,1.166,0.09,1.75c0,0.819-0.06,1.634-0.174,2.467l33.646,38.829c0.649-0.673,1.315-1.367,1.957-2.061
		L128.352,223.959L128.352,223.959z"/>
</g>
<g>
	<defs>
		<path id="SVGID_27_" d="M19.744,26.683c0.049-0.234,0.113-0.362,0.309-0.408c0.206-0.042,0.247,0.058,0.292,0.277
			c0.45,1.963,0.9,3.921,1.354,5.886c-1.101,0.241-2.202,0.494-3.302,0.736C18.848,31.014,19.295,28.853,19.744,26.683
			 M20.053,23.095c-1.53,0.339-3.164,1.054-3.675,3.323c-1.097,4.891-2.196,9.786-3.294,14.681c0.006,0.049-0.031,0.104-0.023,0.123
			c-0.008,0.22,0.161,0.321,0.378,0.27c1.033-0.246,2.063-0.495,3.097-0.729c0.222-0.055,0.394-0.278,0.444-0.512
			c0.266-1.284,0.527-2.576,0.796-3.861c1.515-0.351,3.028-0.691,4.545-1.017c0.264,1.168,0.531,2.338,0.796,3.501
			c0.046,0.216,0.22,0.357,0.449,0.307c1.031-0.222,2.068-0.436,3.107-0.654c0.222-0.047,0.373-0.214,0.373-0.437
			c0.004-0.018-0.02-0.06-0.02-0.109c-1.105-4.409-2.208-8.807-3.303-13.202c-0.361-1.44-1.28-1.858-2.327-1.858
			C20.961,22.921,20.502,22.994,20.053,23.095"/>
	</defs>
	<clipPath id="SVGID_28_">
		<use xlink:href="#SVGID_27_"  overflow="visible"/>
	</clipPath>
	
		<linearGradient id="polygon92_1_" gradientUnits="userSpaceOnUse" x1="-175.1128" y1="-141.0596" x2="-174.1128" y2="-141.0596" gradientTransform="matrix(119.8945 89.6408 -89.6408 119.8945 8375.8945 32645.8984)">
		<stop  offset="0" style="stop-color:#A8996E"/>
		<stop  offset="0.4417" style="stop-color:#FFE5C7"/>
		<stop  offset="1" style="stop-color:#A8996E"/>
	</linearGradient>
	<polygon id="polygon92" clip-path="url(#SVGID_28_)" fill="url(#polygon92_1_)" points="4.122,34.866 18.072,16.209 35.98,29.598 
		22.031,48.256 	"/>
</g>
<g>
	<defs>
		<path id="SVGID_29_" d="M38.682,19.645c-0.784,0.03-1.899,0.049-4.308,0.505c-2.873,0.547-5.429,1.79-5.429,5.868v11.59
			c0,0.251,0.202,0.41,0.449,0.361c0.961-0.192,1.926-0.386,2.89-0.578c0.244-0.048,0.448-0.284,0.448-0.531v-6.548
			c1.918-0.371,3.843-0.734,5.768-1.082c0.238-0.043,0.449-0.283,0.443-0.526v-2.133c0-0.25-0.195-0.416-0.443-0.368
			c-1.925,0.343-3.85,0.711-5.768,1.082v-2.018c0-1.171,0.377-1.604,1.423-1.802c1.51-0.286,3.014-0.565,4.526-0.841
			c0.245-0.04,0.446-0.283,0.446-0.523v-2.088c0.003-0.273-0.123-0.369-0.396-0.369C38.715,19.644,38.699,19.644,38.682,19.645"/>
	</defs>
	<clipPath id="SVGID_30_">
		<use xlink:href="#SVGID_29_"  overflow="visible"/>
	</clipPath>
	
		<linearGradient id="polygon109_1_" gradientUnits="userSpaceOnUse" x1="-175.1128" y1="-141.0508" x2="-174.1128" y2="-141.0508" gradientTransform="matrix(119.8777 89.6283 -89.6283 119.8777 8382.2617 32631.3164)">
		<stop  offset="0" style="stop-color:#A8996E"/>
		<stop  offset="0.4417" style="stop-color:#FFE5C7"/>
		<stop  offset="1" style="stop-color:#A8996E"/>
	</linearGradient>
	<polygon id="polygon109" clip-path="url(#SVGID_30_)" fill="url(#polygon109_1_)" points="20.133,31.43 32.598,14.759 
		47.942,26.232 35.478,42.903 	"/>
</g>
<g>
	<defs>
		<path id="SVGID_31_" d="M48.187,17.716c-3.401,0.536-6.617,2.871-6.615,8.213v2.824c-0.002,5.338,3.219,6.564,6.615,6.026
			c1.564-0.252,2.863-0.672,3.332-0.901c0.318-0.13,0.496-0.269,0.496-0.588v-2.174c0-0.263-0.141-0.433-0.429-0.392
			c-0.02,0.007-0.049,0.014-0.067,0.014c-0.854,0.199-2.079,0.507-3.313,0.698c-1.542,0.251-2.775-0.362-2.775-3.34v-2.822
			c0-2.988,1.233-3.995,2.775-4.243c1.233-0.192,2.459-0.276,3.313-0.334c0.018-0.006,0.052-0.013,0.067-0.018
			c0.292-0.037,0.429-0.235,0.429-0.505v-2.176c-0.01-0.319-0.178-0.376-0.496-0.416c-0.194-0.038-0.533-0.064-0.976-0.064
			C49.924,17.518,49.102,17.571,48.187,17.716"/>
	</defs>
	<clipPath id="SVGID_32_">
		<use xlink:href="#SVGID_31_"  overflow="visible"/>
	</clipPath>
	
		<linearGradient id="polygon126_1_" gradientUnits="userSpaceOnUse" x1="-175.1123" y1="-141.0439" x2="-174.1085" y2="-141.0439" gradientTransform="matrix(119.8459 89.6041 -89.6041 119.8459 8386.3691 32614.0352)">
		<stop  offset="0" style="stop-color:#A8996E"/>
		<stop  offset="0.4417" style="stop-color:#FFE5C7"/>
		<stop  offset="1" style="stop-color:#A8996E"/>
	</linearGradient>
	<polygon id="polygon126" clip-path="url(#SVGID_32_)" fill="url(#polygon126_1_)" points="33.034,28.935 45.316,12.507 
		60.555,23.9 48.272,40.328 	"/>
</g>
<g>
	<defs>
		<path id="SVGID_33_" d="M64.102,25.176c0.837-0.103,1.679-0.203,2.517-0.307C68.417,24.663,69,25.519,69,26.596v0.245
			c0,1.26-0.745,2.057-3.06,2.329c-0.313,0.035-1.482,0.151-1.838,0.199C64.102,27.969,64.102,26.578,64.102,25.176 M64.102,18.636
			c0.312-0.066,1.344-0.197,1.702-0.239c2.315-0.278,3.107,0.203,3.107,1.433v0.338c0,0.967-0.523,1.83-2.293,2.036
			c-0.838,0.1-1.68,0.203-2.517,0.307C64.101,21.213,64.101,19.922,64.102,18.636 M65.515,15.297
			c-1.436,0.167-3.254,0.535-4.019,0.747c-0.877,0.249-1.188,0.605-1.188,1.608v13.635c0,1.012,0.34,1.259,1.234,1.3
			c0.873,0.043,2.629-0.064,4.106-0.246c3.886-0.461,7.086-1.868,7.082-5.813v-0.336c0-1.541-0.809-2.657-2-3.104
			c1.187-0.718,1.882-2.038,1.887-3.504V19.18c0-2.94-1.953-4.019-5.023-4.019C66.948,15.161,66.252,15.209,65.515,15.297"/>
	</defs>
	<clipPath id="SVGID_34_">
		<use xlink:href="#SVGID_33_"  overflow="visible"/>
	</clipPath>
	
		<linearGradient id="polygon143_1_" gradientUnits="userSpaceOnUse" x1="-175.1123" y1="-141.0547" x2="-174.1159" y2="-141.0547" gradientTransform="matrix(119.8908 89.6377 -89.6377 119.8908 8396.8398 32616.543)">
		<stop  offset="0" style="stop-color:#A8996E"/>
		<stop  offset="0.4417" style="stop-color:#FFE5C7"/>
		<stop  offset="1" style="stop-color:#A8996E"/>
	</linearGradient>
	<polygon id="polygon143" clip-path="url(#SVGID_34_)" fill="url(#polygon143_1_)" points="51.931,26.366 64.764,9.202 
		81.111,21.425 68.278,38.589 	"/>
</g>
<g>
	<defs>
		<path id="SVGID_35_" d="M78.833,23.76v-2.674c0-2.689,0.878-3.914,2.771-4.079c1.897-0.154,2.787,0.918,2.791,3.61v2.666
			c0,2.695-0.9,3.908-2.791,4.063c-0.123,0.011-0.242,0.017-0.357,0.017C79.6,27.361,78.833,26.274,78.833,23.76 M81.603,13.644
			c-3.713,0.313-6.662,2.613-6.662,7.81v2.674c0,5.205,2.943,6.897,6.662,6.578c3.717-0.312,6.666-2.509,6.671-7.708v-2.673
			c0-4.828-2.543-6.715-5.878-6.715C82.137,13.61,81.872,13.621,81.603,13.644"/>
	</defs>
	<clipPath id="SVGID_36_">
		<use xlink:href="#SVGID_35_"  overflow="visible"/>
	</clipPath>
	
		<linearGradient id="polygon160_1_" gradientUnits="userSpaceOnUse" x1="-175.1123" y1="-141.0493" x2="-174.1123" y2="-141.0493" gradientTransform="matrix(119.8571 89.613 -89.613 119.8571 8400.9551 32598.5586)">
		<stop  offset="0" style="stop-color:#A8996E"/>
		<stop  offset="0.4417" style="stop-color:#FFE5C7"/>
		<stop  offset="1" style="stop-color:#A8996E"/>
	</linearGradient>
	<polygon id="polygon160" clip-path="url(#SVGID_36_)" fill="url(#polygon160_1_)" points="66.589,24.781 79.722,7.216 
		96.626,19.855 83.493,37.419 	"/>
</g>
<g>
	<defs>
		<path id="SVGID_37_" d="M103.508,12.516c-0.979,0.037-1.957,0.073-2.938,0.119c-0.247,0.006-0.452,0.2-0.45,0.44v9.983
			c0,2.289-0.627,3.275-2.662,3.373c-2.026,0.103-2.636-0.815-2.636-3.111v-9.974c0-0.246-0.202-0.414-0.455-0.404
			c-0.984,0.056-1.969,0.115-2.956,0.182c-0.248,0.012-0.45,0.21-0.45,0.447v9.983c-0.001,5.119,2.912,6.266,6.497,6.086
			c3.585-0.176,6.527-1.623,6.524-6.733v-9.981c0-0.245-0.224-0.41-0.463-0.41C103.519,12.516,103.509,12.516,103.508,12.516"/>
	</defs>
	<clipPath id="SVGID_38_">
		<use xlink:href="#SVGID_37_"  overflow="visible"/>
	</clipPath>
	
		<linearGradient id="polygon177_1_" gradientUnits="userSpaceOnUse" x1="-175.1104" y1="-141.0444" x2="-174.1139" y2="-141.0444" gradientTransform="matrix(119.815 89.581 -89.581 119.815 8404.7734 32577.9727)">
		<stop  offset="0" style="stop-color:#A8996E"/>
		<stop  offset="0.4417" style="stop-color:#FFE5C7"/>
		<stop  offset="1" style="stop-color:#A8996E"/>
	</linearGradient>
	<polygon id="polygon177" clip-path="url(#SVGID_38_)" fill="url(#polygon177_1_)" points="82.661,23.615 95.63,6.27 
		112.283,18.721 99.314,36.066 	"/>
</g>
<g>
	<defs>
		<path id="SVGID_39_" d="M110.894,19.73v-4.305c0.269-0.036,1.443-0.097,1.761-0.11c1.896-0.031,2.954,0.596,2.954,1.959v0.297
			c0,1.515-0.742,2.129-3.118,2.172c-0.086,0.002-0.276,0.003-0.497,0.003C111.579,19.746,111.054,19.742,110.894,19.73
			 M112.655,12.063c-1.626,0.026-3.546,0.213-4.584,0.399c-0.691,0.127-1.019,0.337-1.017,1.104v15.048
			c0,0.245,0.209,0.437,0.451,0.43c0.978-0.025,1.958-0.048,2.933-0.072c0.25-0.008,0.451-0.207,0.456-0.457v-5.69
			c0.229-0.007,0.536-0.001,0.846,0.004c0.265,0.006,0.532,0.01,0.751,0.006c0.084-0.01,0.17-0.017,0.251-0.024
			c1.01,1.867,2.019,3.748,3.032,5.629c0.111,0.228,0.192,0.443,0.442,0.443c1.154-0.012,2.308-0.012,3.465-0.018
			c0.247,0,0.338-0.112,0.338-0.269c0-0.068-0.027-0.156-0.068-0.247c-1.143-2.11-2.278-4.208-3.413-6.309
			c1.649-0.665,2.918-2.124,2.913-4.501v-0.288c0-3.883-2.829-5.189-6.555-5.189C112.816,12.062,112.736,12.063,112.655,12.063"/>
	</defs>
	<clipPath id="SVGID_40_">
		<use xlink:href="#SVGID_39_"  overflow="visible"/>
	</clipPath>
	
		<linearGradient id="polygon194_1_" gradientUnits="userSpaceOnUse" x1="-175.1118" y1="-141.0581" x2="-174.1118" y2="-141.0581" gradientTransform="matrix(119.8262 89.5893 -89.5893 119.8262 8410.3594 32574.5664)">
		<stop  offset="0" style="stop-color:#A8996E"/>
		<stop  offset="0.4417" style="stop-color:#FFE5C7"/>
		<stop  offset="1" style="stop-color:#A8996E"/>
	</linearGradient>
	<polygon id="polygon194" clip-path="url(#SVGID_40_)" fill="url(#polygon194_1_)" points="98.905,22.96 111.702,5.844 
		128.166,18.154 115.37,35.269 	"/>
</g>
<g>
	<defs>
		<path id="SVGID_41_" d="M123.242,12.209c-0.463,0-0.843,0.384-0.843,0.848v15.358c0,0.253,0.202,0.456,0.452,0.456
			c0.887,0.006,1.775,0.012,2.664,0.019c0.246,0.002,0.457-0.192,0.453-0.439V19.37c0-0.141,0.043-0.184,0.109-0.184
			c0.065,0,0.117,0.043,0.201,0.184c1.721,2.963,3.436,5.945,5.149,8.93c0.362,0.611,0.704,0.714,1.174,0.727
			c0.733,0.017,1.476,0.036,2.21,0.06c0.475,0.019,0.879-0.346,0.884-0.824c0-5.126,0-10.259,0-15.379
			c0-0.249-0.206-0.441-0.45-0.446c-0.889-0.025-1.777-0.055-2.666-0.073c-0.244-0.013-0.451,0.164-0.451,0.41v9.484
			c0.011,0.161-0.068,0.198-0.114,0.198c-0.063,0-0.095-0.043-0.175-0.183c-1.788-3.121-3.572-6.23-5.354-9.335
			c-0.271-0.477-0.493-0.705-0.948-0.705c-0.762-0.012-1.523-0.019-2.283-0.025C123.253,12.209,123.244,12.209,123.242,12.209"/>
	</defs>
	<clipPath id="SVGID_42_">
		<use xlink:href="#SVGID_41_"  overflow="visible"/>
	</clipPath>
	
		<linearGradient id="polygon211_1_" gradientUnits="userSpaceOnUse" x1="-175.1143" y1="-141.0503" x2="-174.1107" y2="-141.0503" gradientTransform="matrix(119.8824 89.6313 -89.6313 119.8824 8420.5898 32581.6445)">
		<stop  offset="0" style="stop-color:#A8996E"/>
		<stop  offset="0.4417" style="stop-color:#FFE5C7"/>
		<stop  offset="1" style="stop-color:#A8996E"/>
	</linearGradient>
	<polygon id="polygon211" clip-path="url(#SVGID_42_)" fill="url(#polygon211_1_)" points="114.296,23.047 127.167,5.832 
		143.8,18.268 130.929,35.483 	"/>
</g>
<g>
	<defs>
		<path id="SVGID_43_" d="M138.769,17.166v7.442c0,4.084,2.568,4.923,5.486,5.075c2.436,0.118,3.586,0.018,4.377-0.05
			c0.315-0.023,0.441-0.146,0.441-0.446v-2.082c0-0.245-0.195-0.464-0.441-0.477c-1.529-0.087-3.053-0.179-4.58-0.258
			c-1.067-0.049-1.449-0.422-1.44-1.599v-2.369c1.944,0.091,3.894,0.198,5.839,0.313c0.246,0.018,0.449-0.168,0.449-0.417v-2.13
			c0-0.246-0.203-0.462-0.449-0.48c-1.945-0.122-3.895-0.222-5.839-0.313v-2.042c0-1.163,0.38-1.508,1.44-1.453
			c1.527,0.079,3.051,0.164,4.58,0.259c0.242,0.012,0.449-0.173,0.441-0.419v-2.094c0-0.286-0.126-0.405-0.441-0.472
			c-0.785-0.164-1.922-0.41-4.354-0.534c-0.259-0.014-0.513-0.021-0.765-0.021C140.927,12.599,138.769,13.443,138.769,17.166"/>
	</defs>
	<clipPath id="SVGID_44_">
		<use xlink:href="#SVGID_43_"  overflow="visible"/>
	</clipPath>
	
		<linearGradient id="polygon228_1_" gradientUnits="userSpaceOnUse" x1="-175.1123" y1="-141.0459" x2="-174.1123" y2="-141.0459" gradientTransform="matrix(119.8477 89.6057 -89.6057 119.8477 8423.5742 32564.9922)">
		<stop  offset="0" style="stop-color:#A8996E"/>
		<stop  offset="0.4417" style="stop-color:#FFE5C7"/>
		<stop  offset="1" style="stop-color:#A8996E"/>
	</linearGradient>
	<polygon id="polygon228" clip-path="url(#SVGID_44_)" fill="url(#polygon228_1_)" points="130.52,23.633 142.468,7.653 
		157.333,18.767 145.384,34.747 	"/>
</g>
<g>
	<defs>
		<path id="SVGID_45_" d="M151.91,14.042v15.586c-0.01,0.24,0.209,0.325,0.385,0.336c0.992,0.069,1.979,0.143,2.974,0.217
			c0.201,0.019,0.36-0.173,0.36-0.428v-9.345c0-0.155,0.068-0.173,0.11-0.173c0.065,0.007,0.12,0.061,0.183,0.173
			c0.676,1.285,1.351,2.578,2.025,3.862c0.161,0.276,0.383,0.408,0.678,0.438c0.599,0.048,1.2,0.094,1.801,0.149
			c0.296,0.03,0.521-0.068,0.682-0.316c0.67-1.18,1.344-2.349,2.02-3.519c0.069-0.104,0.117-0.146,0.18-0.146
			c0.051,0.007,0.117,0.042,0.117,0.191v9.351c0,0.256,0.156,0.465,0.357,0.49c0.993,0.088,1.979,0.184,2.967,0.288
			c0.183,0.018,0.392-0.024,0.385-0.277V15.357c0.01-0.47-0.338-0.817-0.805-0.863c-0.707-0.073-1.416-0.146-2.119-0.212
			c-0.479-0.042-0.784,0.152-0.992,0.52c-1.146,2.021-2.297,4.047-3.447,6.074c-0.086,0.174-0.152,0.283-0.24,0.271
			c-0.088,0-0.158-0.125-0.246-0.308c-1.154-2.227-2.297-4.451-3.447-6.669c-0.205-0.405-0.521-0.645-0.996-0.681
			c-0.703-0.052-1.41-0.107-2.116-0.155c-0.026-0.002-0.055-0.003-0.083-0.003C152.209,13.331,151.906,13.6,151.91,14.042"/>
	</defs>
	<clipPath id="SVGID_46_">
		<use xlink:href="#SVGID_45_"  overflow="visible"/>
	</clipPath>
	
		<linearGradient id="polygon245_1_" gradientUnits="userSpaceOnUse" x1="-175.1152" y1="-141.0508" x2="-174.112" y2="-141.0508" gradientTransform="matrix(119.8974 89.6426 -89.6426 119.8974 8431.7539 32572.2188)">
		<stop  offset="0" style="stop-color:#A8996E"/>
		<stop  offset="0.4417" style="stop-color:#FFE5C7"/>
		<stop  offset="1" style="stop-color:#A8996E"/>
	</linearGradient>
	<polygon id="polygon245" clip-path="url(#SVGID_46_)" fill="url(#polygon245_1_)" points="143.328,24.802 157.367,6.025 
		175.714,19.743 161.675,38.52 	"/>
</g>
<g>
	<defs>
		<path id="SVGID_47_" d="M176.533,29.127c-1.889-0.235-2.768-1.477-2.768-4.161v-2.673c0.01-2.69,0.881-3.736,2.768-3.498
			c1.885,0.227,2.782,1.489,2.782,4.178v2.674c0,2.445-0.746,3.511-2.296,3.511C176.867,29.158,176.703,29.147,176.533,29.127
			 M169.88,21.857v2.671c0,5.203,2.949,7.506,6.651,7.965c3.701,0.457,6.644-1.13,6.644-6.333v-2.67c0-5.202-2.938-7.61-6.644-8.062
			c-0.383-0.047-0.757-0.072-1.12-0.072C172.248,15.356,169.88,17.193,169.88,21.857"/>
	</defs>
	<clipPath id="SVGID_48_">
		<use xlink:href="#SVGID_47_"  overflow="visible"/>
	</clipPath>
	
		<linearGradient id="polygon262_1_" gradientUnits="userSpaceOnUse" x1="-175.1128" y1="-141.0493" x2="-174.1128" y2="-141.0493" gradientTransform="matrix(119.8693 89.6217 -89.6217 119.8693 8435.0898 32557.5117)">
		<stop  offset="0" style="stop-color:#A8996E"/>
		<stop  offset="0.4417" style="stop-color:#FFE5C7"/>
		<stop  offset="1" style="stop-color:#A8996E"/>
	</linearGradient>
	<polygon id="polygon262" clip-path="url(#SVGID_48_)" fill="url(#polygon262_1_)" points="161.439,26.642 174.645,8.978 
		191.613,21.665 178.408,39.328 	"/>
</g>
<g>
	<defs>
		<path id="SVGID_49_" d="M185.846,17.293v9.98c0.01,5.118,2.899,6.865,6.45,7.429c3.554,0.566,6.462-0.275,6.462-5.387v-9.982
			c0-0.247-0.228-0.463-0.472-0.502c-0.965-0.17-1.934-0.331-2.899-0.489c-0.249-0.049-0.449,0.103-0.449,0.35v9.981
			c0,2.289-0.623,3.145-2.641,2.823c-2.011-0.318-2.615-1.369-2.615-3.658v-9.976c0-0.247-0.201-0.455-0.448-0.498
			c-0.976-0.143-1.959-0.289-2.938-0.432c-0.023-0.004-0.049-0.006-0.071-0.006C186.011,16.926,185.846,17.074,185.846,17.293"/>
	</defs>
	<clipPath id="SVGID_50_">
		<use xlink:href="#SVGID_49_"  overflow="visible"/>
	</clipPath>
	
		<linearGradient id="polygon279_1_" gradientUnits="userSpaceOnUse" x1="-175.1152" y1="-141.0459" x2="-174.1118" y2="-141.0459" gradientTransform="matrix(119.8562 89.6117 -89.6117 119.8562 8439.248 32547.1094)">
		<stop  offset="0" style="stop-color:#A8996E"/>
		<stop  offset="0.4417" style="stop-color:#FFE5C7"/>
		<stop  offset="1" style="stop-color:#A8996E"/>
	</linearGradient>
	<polygon id="polygon279" clip-path="url(#SVGID_50_)" fill="url(#polygon279_1_)" points="177.05,28.691 190.476,10.734 
		207.555,23.503 194.128,41.46 	"/>
</g>
<g>
	<defs>
		<path id="SVGID_51_" d="M200.791,19.688v2.31c0.01,0.249,0.198,0.465,0.455,0.507c1.207,0.222,2.418,0.438,3.631,0.669v13.042
			c0,0.252,0.201,0.486,0.447,0.534c0.975,0.187,1.945,0.375,2.914,0.559c0.248,0.046,0.45-0.111,0.445-0.367V23.897
			c1.199,0.236,2.406,0.477,3.607,0.717c0.242,0.055,0.471-0.078,0.465-0.33v-2.317c0-0.238-0.22-0.465-0.465-0.513
			c-3.673-0.752-7.357-1.447-11.047-2.109c-0.033-0.006-0.064-0.009-0.094-0.009C200.948,19.336,200.798,19.474,200.791,19.688"/>
	</defs>
	<clipPath id="SVGID_52_">
		<use xlink:href="#SVGID_51_"  overflow="visible"/>
	</clipPath>
	
		<linearGradient id="polygon296_1_" gradientUnits="userSpaceOnUse" x1="-175.1094" y1="-141.0464" x2="-174.113" y2="-141.0464" gradientTransform="matrix(119.8824 89.6318 -89.6318 119.8824 8444.9512 32548.9023)">
		<stop  offset="0" style="stop-color:#A8996E"/>
		<stop  offset="0.4417" style="stop-color:#FFE5C7"/>
		<stop  offset="1" style="stop-color:#A8996E"/>
	</linearGradient>
	<polygon id="polygon296" clip-path="url(#SVGID_52_)" fill="url(#polygon296_1_)" points="192.149,30.894 205.083,13.595 
		221.403,25.797 208.47,43.096 	"/>
</g>
<g>
	<defs>
		<path id="SVGID_53_" d="M214.858,22.407v15.791c0,0.248,0.194,0.488,0.44,0.541c0.974,0.202,1.943,0.413,2.908,0.624
			c0.24,0.046,0.445-0.109,0.445-0.355v-6.479c1.829,0.396,3.648,0.803,5.475,1.225v6.479c0,0.252,0.203,0.498,0.441,0.559
			c0.967,0.222,1.934,0.453,2.9,0.681c0.238,0.058,0.438-0.097,0.438-0.343V25.34c0-0.243-0.2-0.471-0.438-0.532
			c-0.967-0.225-1.935-0.452-2.9-0.675c-0.246-0.059-0.445,0.077-0.441,0.318v5.961c-1.826-0.416-3.646-0.827-5.475-1.225v-5.968
			c0-0.246-0.195-0.468-0.445-0.522c-0.965-0.21-1.936-0.423-2.908-0.621c-0.037-0.008-0.07-0.012-0.104-0.012
			C215,22.064,214.858,22.197,214.858,22.407"/>
	</defs>
	<clipPath id="SVGID_54_">
		<use xlink:href="#SVGID_53_"  overflow="visible"/>
	</clipPath>
	
		<linearGradient id="polygon313_1_" gradientUnits="userSpaceOnUse" x1="-175.1089" y1="-141.0508" x2="-174.1122" y2="-141.0508" gradientTransform="matrix(119.8477 89.6054 -89.6054 119.8477 8445.8867 32535.0898)">
		<stop  offset="0" style="stop-color:#A8996E"/>
		<stop  offset="0.4417" style="stop-color:#FFE5C7"/>
		<stop  offset="1" style="stop-color:#A8996E"/>
	</linearGradient>
	<polygon id="polygon313" clip-path="url(#SVGID_54_)" fill="url(#polygon313_1_)" points="205.521,34.551 219.537,15.805 
		237.246,29.044 223.229,47.79 	"/>
</g>
</svg>
