<?xml version="1.0" encoding="UTF-8" standalone="no"?>
<svg xmlns:dc="http://purl.org/dc/elements/1.1/" xmlns:cc="http://creativecommons.org/ns#" xmlns:rdf="http://www.w3.org/1999/02/22-rdf-syntax-ns#" xmlns:svg="http://www.w3.org/2000/svg" xmlns="http://www.w3.org/2000/svg" xmlns:sodipodi="http://sodipodi.sourceforge.net/DTD/sodipodi-0.dtd" xmlns:inkscape="http://www.inkscape.org/namespaces/inkscape" inkscape:version="1.0 (4035a4f, 2020-05-01)" sodipodi:docname="107.svg" id="svg6852" height="200.0pt" width="200.0pt" viewBox="0 0 200 200" version="1.1">
  <metadata id="metadata6858">
    <rdf:RDF>
      <cc:Work rdf:about="">
        <dc:format>image/svg+xml</dc:format>
        <dc:type rdf:resource="http://purl.org/dc/dcmitype/StillImage"/>
      </cc:Work>
    </rdf:RDF>
  </metadata>
  <defs id="defs6856"/>
  <sodipodi:namedview inkscape:current-layer="svg6852" inkscape:cy="133.33333" inkscape:cx="133.33333" inkscape:zoom="1.75125" showgrid="false" id="namedview6854" inkscape:window-height="480" inkscape:window-width="640" inkscape:pageshadow="2" inkscape:pageopacity="0" guidetolerance="10" gridtolerance="10" objecttolerance="10" borderopacity="1" bordercolor="#666666" pagecolor="#ffffff"/>
  <path style="fill:#ffffff;fill-opacity:0" id="path6804" fill="#ffffff" d="M 0.00 0.00 L 30.18 0.00 C 29.54 5.21 29.82 10.72 29.79 16.00 C 29.79 60.00 29.81 104.00 29.78 148.00 C 29.83 152.43 29.48 157.15 30.35 161.50 C 32.03 168.79 37.33 174.59 43.53 178.47 C 52.23 183.83 62.86 186.14 73.00 186.11 C 79.37 186.16 86.37 186.71 91.93 190.13 C 95.80 192.50 97.45 196.42 100.00 200.00 L 0.00 200.00 L 0.00 0.00 Z"/>
  <path id="path6806" fill="#ffd520" d="M 30.18 0.00 L 170.05 0.00 C 170.26 4.32 170.15 8.67 170.16 13.00 C 170.16 60.67 170.17 108.34 170.16 156.00 C 170.22 162.19 167.76 168.05 163.53 172.53 C 156.93 179.71 147.45 183.52 138.01 185.19 C 128.04 187.12 118.96 184.62 109.35 189.35 C 104.64 191.68 102.66 195.75 100.01 200.00 L 100.00 200.00 C 97.45 196.42 95.80 192.50 91.93 190.13 C 86.37 186.71 79.37 186.16 73.00 186.11 C 62.86 186.14 52.23 183.83 43.53 178.47 C 37.33 174.59 32.03 168.79 30.35 161.50 C 29.48 157.15 29.83 152.43 29.78 148.00 C 29.81 104.00 29.79 60.00 29.79 16.00 C 29.82 10.72 29.54 5.21 30.18 0.00 Z"/>
  <path style="fill:#ffffff;fill-opacity:0" id="path6808" fill="#ffffff" d="M 170.05 0.00 L 200.00 0.00 L 200.00 200.00 L 100.01 200.00 C 102.66 195.75 104.64 191.68 109.35 189.35 C 118.96 184.62 128.04 187.12 138.01 185.19 C 147.45 183.52 156.93 179.71 163.53 172.53 C 167.76 168.05 170.22 162.19 170.16 156.00 C 170.17 108.34 170.16 60.67 170.16 13.00 C 170.15 8.67 170.26 4.32 170.05 0.00 Z"/>
  <path id="path6810" fill="#00275d" d="M 32.55 3.39 C 36.34 3.05 40.20 3.29 44.00 3.25 C 85.17 3.25 126.33 3.25 167.50 3.24 C 167.51 51.83 167.48 100.42 167.51 149.00 C 167.46 153.56 167.87 158.16 166.47 162.56 C 164.79 167.69 161.17 171.71 156.89 174.87 C 151.15 179.04 144.16 181.41 137.21 182.60 C 127.71 184.29 119.29 182.32 110.00 186.06 C 105.60 187.69 102.55 190.90 99.95 194.69 C 98.00 192.02 96.16 189.51 93.27 187.77 C 87.29 184.12 79.84 183.48 73.00 183.46 C 63.44 183.35 53.77 181.49 45.49 176.52 C 40.41 173.44 35.74 168.91 33.67 163.23 C 31.96 158.65 32.47 153.82 32.41 149.00 C 32.43 104.33 32.41 59.67 32.41 15.00 C 32.46 11.14 32.22 7.24 32.55 3.39 Z"/>
  <path id="path6812" fill="#ffffff" d="M 97.58 5.47 C 97.50 11.41 97.55 17.35 97.51 23.30 C 76.54 23.25 55.57 23.30 34.60 23.27 C 34.61 17.34 34.60 11.40 34.60 5.47 C 55.60 5.47 76.59 5.46 97.58 5.47 Z"/>
  <path id="path6814" fill="#e03a3e" d="M 97.58 5.47 C 99.20 5.48 100.82 5.48 102.44 5.48 C 102.29 11.39 102.46 17.32 102.37 23.24 C 123.36 23.32 144.35 23.26 165.34 23.28 C 165.34 24.94 165.34 26.60 165.34 28.26 C 144.38 28.32 123.40 28.14 102.45 28.34 C 102.28 34.28 102.45 40.22 102.38 46.16 L 99.93 46.18 C 100.02 50.25 100.06 54.32 100.04 58.39 C 98.71 58.69 97.35 59.04 96.00 59.19 C 93.39 58.68 90.94 57.05 88.32 56.75 C 85.20 56.92 81.91 57.10 78.90 57.95 C 77.52 58.85 76.61 60.54 75.63 61.85 C 80.35 63.73 84.02 67.16 86.68 71.43 C 87.71 73.36 88.49 75.83 86.59 77.49 C 83.83 80.35 82.03 83.58 80.15 87.04 C 78.16 86.24 75.72 85.27 74.75 83.20 C 73.58 80.15 73.45 77.06 71.71 74.17 C 70.17 71.38 67.70 70.00 65.03 68.48 C 65.40 71.00 65.87 73.49 66.42 75.98 C 63.04 76.52 60.74 77.45 57.95 79.44 C 61.60 80.48 65.31 81.02 68.86 82.43 C 66.20 85.81 63.55 89.10 61.76 93.06 C 65.47 92.55 68.05 91.59 71.13 89.47 C 74.30 90.87 77.47 91.76 80.87 92.42 C 81.69 97.27 82.91 101.85 84.57 106.48 C 81.48 108.05 78.56 109.09 75.14 109.70 C 73.69 107.71 72.34 105.35 70.43 103.79 C 68.51 102.58 65.79 102.41 63.60 102.03 C 64.81 104.42 66.13 106.76 67.51 109.06 C 65.12 109.47 62.77 109.96 60.41 110.53 C 63.04 113.32 65.11 114.55 68.78 115.72 C 67.77 118.11 66.83 120.53 66.05 123.01 C 69.18 122.22 72.00 120.99 74.82 119.42 C 77.20 122.86 79.30 124.33 83.14 125.89 C 82.95 121.83 82.70 118.73 79.71 115.61 C 83.06 115.45 86.44 114.71 89.79 114.80 C 92.88 116.91 95.46 119.87 98.10 122.51 C 94.89 124.41 91.26 125.30 87.99 127.02 C 85.78 128.35 85.14 130.51 85.09 132.97 C 84.72 138.01 87.52 141.66 89.00 146.50 C 83.53 145.80 78.54 144.45 73.06 146.11 C 75.01 147.78 77.21 148.97 79.52 150.09 C 78.03 151.03 73.18 151.11 74.15 153.80 C 75.99 154.99 78.55 154.70 80.69 154.86 C 80.25 157.25 79.84 159.64 79.56 162.06 C 83.94 159.74 86.38 156.03 89.10 152.07 C 91.87 154.86 94.60 157.49 98.12 159.33 C 98.12 157.37 98.51 154.92 97.66 153.10 C 96.31 151.45 94.19 150.37 92.46 149.16 C 93.72 148.40 94.98 147.63 96.24 146.86 C 97.60 147.89 98.95 148.92 100.30 149.95 C 100.01 152.02 99.71 154.10 99.39 156.17 C 100.29 167.65 99.95 179.30 100.09 190.82 C 96.78 187.59 93.30 184.76 88.79 183.40 C 79.36 180.21 70.54 182.22 60.93 180.09 C 52.46 178.34 43.83 174.58 38.46 167.52 C 35.64 163.88 34.49 159.58 34.55 155.01 C 34.61 118.74 34.53 82.42 34.60 46.16 C 55.58 46.14 76.56 46.17 97.54 46.14 C 97.53 40.18 97.53 34.22 97.55 28.26 C 76.56 28.26 55.58 28.27 34.60 28.25 C 34.60 26.59 34.60 24.93 34.60 23.27 C 55.57 23.30 76.54 23.25 97.51 23.30 C 97.55 17.35 97.50 11.41 97.58 5.47 Z"/>
  <path id="path6816" fill="#ffffff" d="M 102.44 5.48 C 123.40 5.46 144.37 5.47 165.33 5.47 C 165.32 11.41 165.31 17.34 165.34 23.28 C 144.35 23.26 123.36 23.32 102.37 23.24 C 102.46 17.32 102.29 11.39 102.44 5.48 Z"/>
  <path id="path6818" fill="#ffffff" d="M 34.60 28.25 C 55.58 28.27 76.56 28.26 97.55 28.26 C 97.53 34.22 97.53 40.18 97.54 46.14 C 76.56 46.17 55.58 46.14 34.60 46.16 C 34.61 40.19 34.61 34.22 34.60 28.25 Z"/>
  <path id="path6820" fill="#ffffff" d="M 102.45 28.34 C 123.40 28.14 144.38 28.32 165.34 28.26 C 165.31 34.21 165.33 40.17 165.32 46.13 C 144.34 46.17 123.36 46.10 102.38 46.16 C 102.45 40.22 102.28 34.28 102.45 28.34 Z"/>
  <path id="path6822" fill="#ffd520" d="M 103.97 53.86 C 104.25 55.72 104.52 57.58 104.77 59.45 C 105.37 59.84 105.96 60.24 106.56 60.63 C 105.56 62.77 104.52 64.89 103.43 66.98 C 104.57 69.11 105.74 71.22 106.91 73.33 C 110.60 70.25 114.24 67.14 118.06 64.22 C 118.94 65.41 119.82 66.61 120.68 67.82 C 117.37 70.70 114.03 73.34 111.16 76.69 C 116.97 73.15 121.97 68.37 127.55 64.47 C 128.90 65.95 130.20 67.48 131.49 69.02 C 126.05 73.51 119.74 77.12 114.77 82.12 C 120.88 78.88 126.30 74.47 132.35 71.08 C 133.10 72.96 133.78 74.86 134.42 76.78 C 128.78 80.44 122.51 83.28 117.22 87.43 C 122.12 85.87 126.43 83.04 131.26 81.36 C 132.65 81.79 133.01 84.08 133.72 85.23 C 128.14 88.24 122.02 89.97 116.51 93.08 C 120.24 92.48 123.81 91.37 127.45 90.41 C 127.65 92.03 127.83 93.65 128.00 95.28 C 123.82 96.45 119.59 97.41 115.38 98.46 C 113.59 100.69 111.83 102.84 109.36 104.37 C 105.53 106.80 102.13 109.51 98.86 112.66 C 95.84 112.45 92.97 112.40 90.05 113.28 C 85.65 114.53 81.22 114.76 76.67 114.58 C 78.61 116.32 80.44 118.13 82.20 120.06 C 80.85 120.90 79.50 121.73 78.15 122.57 C 77.11 120.90 76.07 119.24 75.04 117.56 C 73.93 118.53 72.83 119.50 71.72 120.47 C 70.54 119.63 69.35 118.78 68.16 117.95 C 69.67 116.82 71.20 115.72 72.75 114.64 C 69.91 114.56 67.27 114.37 64.67 113.14 C 63.77 112.41 62.86 111.68 61.95 110.96 C 63.66 110.65 65.37 110.34 67.07 109.99 C 68.64 110.34 70.20 110.69 71.77 111.03 C 70.07 109.54 68.34 108.08 66.62 106.62 C 67.03 106.34 67.43 106.06 67.84 105.77 C 66.72 104.89 65.63 103.97 64.54 103.05 C 65.72 103.28 66.91 103.50 68.09 103.71 C 71.32 105.03 72.36 107.80 74.65 110.11 C 79.24 111.07 84.38 106.93 88.86 105.83 C 87.84 101.95 87.47 98.02 87.06 94.05 C 86.16 98.17 87.13 101.90 87.96 105.92 L 85.35 105.46 C 83.48 101.61 82.57 97.18 81.84 92.98 C 81.15 88.61 81.74 84.21 84.83 80.86 C 86.43 78.74 89.37 77.25 88.63 74.21 C 87.97 69.95 83.52 66.32 80.88 63.24 C 83.49 64.59 86.03 66.03 88.72 67.23 C 85.22 63.76 80.88 62.68 76.33 61.26 C 79.16 57.89 82.16 58.13 86.18 57.68 C 90.30 57.08 92.92 59.87 96.83 60.20 C 100.14 60.07 102.12 56.12 103.97 53.86 Z"/>
  <path id="path6824" fill="#00275d" d="M 88.25 61.37 C 89.79 60.24 91.77 61.98 90.48 63.54 C 89.02 64.68 86.84 62.86 88.25 61.37 Z"/>
  <path id="path6826" fill="#ffd520" d="M 66.11 70.47 C 67.50 69.51 68.72 72.00 66.92 72.29 C 65.97 71.98 65.70 71.37 66.11 70.47 Z"/>
  <path id="path6828" fill="#ffd520" d="M 69.18 71.81 C 71.33 75.08 72.71 78.02 73.40 81.91 C 74.14 85.80 77.62 86.87 80.83 88.18 C 80.83 89.29 80.83 90.39 80.83 91.49 C 76.97 90.95 73.77 89.97 70.57 87.68 C 69.57 88.86 68.55 90.03 67.52 91.19 C 66.71 90.31 65.90 89.44 65.09 88.56 C 66.80 86.55 68.99 84.96 69.04 82.11 C 67.66 80.19 65.46 80.40 63.33 79.73 C 63.32 78.82 63.30 77.90 63.28 76.99 C 65.21 77.15 67.14 77.32 69.07 77.49 C 68.16 76.27 67.25 75.05 66.34 73.83 C 67.29 73.15 68.24 72.48 69.18 71.81 Z"/>
  <path id="path6830" fill="#ffd520" d="M 61.43 78.09 C 63.43 78.33 62.29 80.61 60.71 79.79 C 60.16 79.01 60.40 78.44 61.43 78.09 Z"/>
  <path id="path6832" fill="#e03a3e" d="M 102.91 85.04 C 107.03 87.42 108.11 92.80 109.15 97.03 C 108.62 97.75 108.09 98.48 107.57 99.21 C 107.02 100.71 107.41 102.98 105.52 103.44 C 102.86 104.49 99.74 104.61 96.92 104.76 C 100.33 103.09 105.11 103.34 106.93 99.86 C 103.40 100.38 99.94 101.27 96.42 101.85 C 100.13 99.81 104.08 98.55 108.05 97.16 C 107.67 96.26 107.29 95.35 106.91 94.45 C 103.29 96.11 99.71 97.79 95.90 98.99 C 99.32 96.06 103.26 94.16 107.24 92.14 C 106.55 91.28 105.87 90.42 105.19 89.56 C 102.00 92.05 98.84 94.53 95.25 96.43 C 97.91 93.15 101.18 90.64 104.46 88.03 C 103.84 87.31 103.22 86.59 102.60 85.88 C 99.82 88.32 97.02 90.69 93.81 92.56 C 96.05 90.09 99.59 85.53 102.91 85.04 Z"/>
  <path id="path6834" fill="#ffd520" d="M 65.75 90.70 C 65.40 91.55 64.72 91.92 63.71 91.80 C 63.29 90.44 65.36 88.78 65.75 90.70 Z"/>
  <path id="path6836" fill="#ffd520" d="M 129.93 99.93 C 131.46 100.71 132.79 102.04 134.12 103.11 C 133.52 103.43 132.92 103.75 132.32 104.07 C 130.92 103.31 128.58 100.60 126.85 101.82 C 124.97 103.37 125.53 106.11 126.00 108.18 C 127.93 115.55 133.53 123.07 133.85 131.02 C 133.99 133.86 132.49 135.93 129.79 136.71 C 126.46 137.60 122.40 136.07 119.06 135.46 C 116.28 139.89 114.41 141.43 109.57 143.48 C 113.87 146.38 119.29 142.31 122.75 147.30 C 124.07 152.50 116.06 156.65 116.79 161.04 C 120.07 163.20 123.33 164.52 125.59 167.96 C 120.77 167.37 117.84 166.26 114.03 163.26 C 113.27 165.11 112.53 166.98 111.84 168.86 C 110.33 168.26 108.81 167.68 107.28 167.11 C 108.96 165.59 110.67 164.09 112.35 162.56 C 107.62 162.72 104.07 164.73 100.16 167.13 C 100.79 165.36 101.41 163.60 102.00 161.82 C 103.67 161.54 105.34 161.28 107.02 161.04 C 104.57 159.76 100.93 158.55 99.50 156.04 C 100.50 156.08 101.51 156.13 102.51 156.20 C 104.95 157.09 107.78 158.72 110.43 158.11 C 114.64 157.53 116.23 151.93 115.88 148.35 C 112.25 149.29 108.83 151.55 104.96 150.61 C 101.50 149.75 97.31 147.57 95.77 144.17 C 94.47 139.98 95.07 134.59 98.57 131.58 C 101.43 129.08 104.97 127.55 107.80 124.97 C 103.78 126.95 98.75 129.31 96.20 133.13 C 93.58 137.20 94.14 141.64 95.51 146.04 C 94.08 147.16 92.68 148.31 91.31 149.51 C 93.51 151.02 95.73 152.49 97.83 154.15 L 95.09 153.96 C 96.08 155.23 97.00 156.55 97.90 157.89 C 96.39 156.96 94.91 156.00 93.46 154.99 C 92.16 153.63 91.03 151.79 88.95 151.66 C 86.76 153.00 85.38 155.76 83.91 157.82 C 82.88 157.56 81.85 157.30 80.81 157.05 C 82.11 155.57 83.45 154.13 84.82 152.70 C 82.75 153.26 80.68 153.80 78.60 154.31 L 78.01 151.48 C 80.16 151.32 82.30 151.17 84.45 150.95 C 82.53 150.23 80.61 149.54 78.68 148.87 C 78.68 147.82 78.68 146.77 78.68 145.73 C 82.55 146.43 86.00 147.62 89.96 146.59 C 89.00 143.22 87.31 140.17 86.16 136.88 C 84.98 133.19 85.81 128.38 89.90 126.97 C 92.46 125.64 97.74 125.29 98.58 122.08 C 96.29 118.92 93.02 116.46 90.35 113.61 C 93.26 113.40 96.07 113.39 98.97 113.62 C 101.31 111.48 103.69 109.41 106.09 107.35 C 106.58 109.48 106.76 112.11 107.96 113.98 C 111.47 119.44 116.35 122.93 119.24 128.82 C 120.61 132.34 124.34 133.56 127.82 133.54 C 129.73 133.52 131.73 132.17 131.35 130.04 C 130.54 123.68 126.80 117.21 124.54 111.26 C 123.62 108.70 122.89 105.63 123.48 102.94 C 124.16 100.15 127.38 98.75 129.93 99.93 Z"/>
  <path id="path6838" fill="#ffd520" d="M 134.31 104.77 C 136.09 106.27 139.36 107.63 140.18 109.99 C 140.62 112.69 139.71 115.76 139.26 118.41 C 136.95 116.13 134.69 114.25 133.79 111.01 C 133.08 108.87 133.86 106.87 134.31 104.77 Z"/>
  <path id="path6840" fill="#ffd520" d="M 69.66 119.75 C 70.44 121.22 68.47 121.80 67.34 121.67 C 67.39 120.45 68.29 118.77 69.66 119.75 Z"/>
  <path id="path6842" fill="#ffd520" d="M 82.07 123.84 C 81.13 123.92 80.39 123.57 79.86 122.79 C 80.80 121.26 82.52 122.22 82.07 123.84 Z"/>
  <path id="path6844" fill="#ffd520" d="M 77.73 147.65 C 76.75 148.13 75.93 147.89 75.28 146.93 C 75.90 145.30 78.89 145.77 77.73 147.65 Z"/>
  <path id="path6846" fill="#ffd520" d="M 75.42 152.14 C 76.62 150.97 78.36 152.25 77.50 153.72 C 76.32 154.87 74.53 153.60 75.42 152.14 Z"/>
  <path id="path6848" fill="#ffd520" d="M 81.19 158.17 L 82.04 158.18 L 82.40 158.91 L 81.91 159.62 L 81.07 159.61 L 80.71 158.88 L 81.19 158.17 Z"/>
  <path id="path6850" fill="#ffd520" d="M 108.27 168.76 C 110.22 167.53 111.01 170.30 108.92 170.76 C 107.83 170.50 107.61 169.84 108.27 168.76 Z"/>
</svg>