<?xml version="1.0" encoding="UTF-8" standalone="no"?>
<svg xmlns:dc="http://purl.org/dc/elements/1.1/" xmlns:cc="http://creativecommons.org/ns#" xmlns:rdf="http://www.w3.org/1999/02/22-rdf-syntax-ns#" xmlns:svg="http://www.w3.org/2000/svg" xmlns="http://www.w3.org/2000/svg" xmlns:sodipodi="http://sodipodi.sourceforge.net/DTD/sodipodi-0.dtd" xmlns:inkscape="http://www.inkscape.org/namespaces/inkscape" inkscape:version="1.0 (4035a4f, 2020-05-01)" sodipodi:docname="109.svg" id="svg15192" height="200.0pt" width="200.0pt" viewBox="0 0 200 200" version="1.1">
  <metadata id="metadata15198">
    <rdf:RDF>
      <cc:Work rdf:about="">
        <dc:format>image/svg+xml</dc:format>
        <dc:type rdf:resource="http://purl.org/dc/dcmitype/StillImage"/>
      </cc:Work>
    </rdf:RDF>
  </metadata>
  <defs id="defs15196"/>
  <sodipodi:namedview inkscape:current-layer="svg15192" inkscape:cy="133.33333" inkscape:cx="133.33333" inkscape:zoom="1.75125" showgrid="false" id="namedview15194" inkscape:window-height="480" inkscape:window-width="640" inkscape:pageshadow="2" inkscape:pageopacity="0" guidetolerance="10" gridtolerance="10" objecttolerance="10" borderopacity="1" bordercolor="#666666" pagecolor="#ffffff"/>
  <path style="fill:#ffffff;fill-opacity:0.04453441" id="path15164" fill="#ffffff" d="M 0.00 0.00 L 68.22 0.00 C 67.55 6.43 68.05 12.98 67.91 19.44 C 66.68 19.44 65.45 19.45 64.22 19.45 C 64.23 13.01 64.22 6.58 64.23 0.14 C 63.11 0.16 61.99 0.19 60.87 0.21 C 60.89 6.15 60.87 12.08 60.85 18.01 C 60.95 19.57 60.73 20.95 61.99 22.10 C 64.60 22.39 67.39 22.40 70.00 22.12 C 70.85 21.52 71.25 20.83 71.21 20.04 C 71.34 13.37 71.23 6.68 71.23 0.00 L 75.23 0.00 C 74.59 7.39 75.07 14.89 74.93 22.30 C 77.34 22.20 80.10 22.56 82.20 21.23 C 84.38 19.90 85.48 17.55 85.43 15.03 C 85.53 10.02 85.45 5.01 85.41 0.00 L 100.43 0.00 C 100.43 7.38 100.10 14.87 100.56 22.23 L 103.67 22.37 C 103.71 17.21 103.60 12.05 103.73 6.89 C 104.94 9.37 106.40 11.82 107.26 14.43 C 107.57 17.02 107.37 19.68 107.39 22.29 C 108.50 22.28 109.61 22.27 110.71 22.26 C 110.68 14.84 110.75 7.42 110.67 0.00 L 123.70 0.00 L 123.25 0.09 C 120.00 0.30 116.76 0.00 113.50 0.23 L 113.10 3.10 C 114.25 3.07 115.40 3.04 116.54 3.01 C 116.58 9.43 116.55 15.85 116.56 22.28 C 117.82 22.27 119.07 22.27 120.33 22.27 C 120.34 15.85 120.31 9.43 120.35 3.02 C 121.39 3.04 122.44 3.07 123.48 3.09 C 123.63 2.05 123.81 1.02 124.02 0.00 L 126.24 0.00 C 126.35 6.89 126.03 13.84 126.38 20.72 C 126.56 22.72 129.62 22.15 131.00 22.32 C 132.87 22.15 135.15 22.82 136.40 21.08 C 136.73 14.08 136.51 7.01 136.48 0.00 L 140.92 0.00 C 139.13 2.34 139.73 6.14 139.93 8.92 C 141.21 11.34 144.64 12.54 146.59 14.45 C 146.87 16.09 146.80 17.80 146.84 19.46 C 145.60 19.45 144.37 19.45 143.13 19.45 C 143.13 18.06 143.13 16.67 143.13 15.28 C 142.00 15.25 140.87 15.23 139.73 15.20 C 139.76 17.10 139.69 19.04 139.91 20.93 C 140.91 22.67 142.28 22.14 143.99 22.32 C 146.30 22.40 148.39 22.30 150.49 21.22 C 150.48 18.49 150.48 15.77 150.44 13.04 C 148.15 11.09 145.70 9.37 143.19 7.71 C 143.16 6.10 143.15 4.49 143.13 2.88 C 144.22 2.88 145.31 2.87 146.40 2.87 C 146.42 4.35 146.46 5.83 146.49 7.31 C 147.52 6.81 148.90 6.52 149.65 5.64 C 149.88 4.27 149.73 2.81 149.64 1.43 L 148.15 0.00 L 200.00 0.00 L 200.00 200.00 L 0.00 200.00 L 0.00 0.00 Z"/>
  <path id="path15166" fill="#131516" d="M 68.22 0.00 L 71.23 0.00 C 71.23 6.68 71.34 13.37 71.21 20.04 C 71.25 20.83 70.85 21.52 70.00 22.12 C 67.39 22.40 64.60 22.39 61.99 22.10 C 60.73 20.95 60.95 19.57 60.85 18.01 C 60.87 12.08 60.89 6.15 60.87 0.21 C 61.99 0.19 63.11 0.16 64.23 0.14 C 64.22 6.58 64.23 13.01 64.22 19.45 C 65.45 19.45 66.68 19.44 67.91 19.44 C 68.05 12.98 67.55 6.43 68.22 0.00 Z"/>
  <path id="path15168" fill="#131516" d="M 75.23 0.00 L 78.31 0.00 C 78.43 6.42 78.25 12.84 78.43 19.26 C 80.02 18.36 81.56 18.12 81.88 16.02 C 82.53 10.75 81.90 5.32 82.25 0.00 L 85.41 0.00 C 85.45 5.01 85.53 10.02 85.43 15.03 C 85.48 17.55 84.38 19.90 82.20 21.23 C 80.10 22.56 77.34 22.20 74.93 22.30 C 75.07 14.89 74.59 7.39 75.23 0.00 Z"/>
  <path style="fill:#ffffff;fill-opacity:0" id="path15170" fill="#ffffff" d="M 78.31 0.00 L 82.25 0.00 C 81.90 5.32 82.53 10.75 81.88 16.02 C 81.56 18.12 80.02 18.36 78.43 19.26 C 78.25 12.84 78.43 6.42 78.31 0.00 Z"/>
  <path id="path15172" fill="#131516" d="M 100.43 0.00 L 103.47 0.00 C 104.93 2.75 106.04 5.62 107.30 8.45 C 107.40 5.64 107.42 2.82 107.47 0.00 L 110.67 0.00 C 110.75 7.42 110.68 14.84 110.71 22.26 C 109.61 22.27 108.50 22.28 107.39 22.29 C 107.37 19.68 107.57 17.02 107.26 14.43 C 106.40 11.82 104.94 9.37 103.73 6.89 C 103.60 12.05 103.71 17.21 103.67 22.37 L 100.56 22.23 C 100.10 14.87 100.43 7.38 100.43 0.00 Z"/>
  <path style="fill:#ffffff;fill-opacity:0" id="path15174" fill="#ffffff" d="M 103.47 0.00 L 107.47 0.00 C 107.42 2.82 107.40 5.64 107.30 8.45 C 106.04 5.62 104.93 2.75 103.47 0.00 Z"/>
  <path id="path15176" fill="#131516" d="M 123.70 0.00 L 124.02 0.00 C 123.81 1.02 123.63 2.05 123.48 3.09 C 122.44 3.07 121.39 3.04 120.35 3.02 C 120.31 9.43 120.34 15.85 120.33 22.27 C 119.07 22.27 117.82 22.27 116.56 22.28 C 116.55 15.85 116.58 9.43 116.54 3.01 C 115.40 3.04 114.25 3.07 113.10 3.10 L 113.50 0.23 C 116.76 0.00 120.00 0.30 123.25 0.09 L 123.70 0.00 Z"/>
  <path id="path15178" fill="#131516" d="M 126.24 0.00 L 129.23 0.00 C 129.82 6.45 129.37 12.99 129.52 19.47 C 130.77 19.46 132.02 19.45 133.27 19.44 C 133.22 13.20 133.38 6.93 133.23 0.70 L 132.66 0.00 L 136.48 0.00 C 136.51 7.01 136.73 14.08 136.40 21.08 C 135.15 22.82 132.87 22.15 131.00 22.32 C 129.62 22.15 126.56 22.72 126.38 20.72 C 126.03 13.84 126.35 6.89 126.24 0.00 Z"/>
  <path style="fill:#ffffff;fill-opacity:0" id="path15180" fill="#ffffff" d="M 129.23 0.00 L 132.66 0.00 L 133.23 0.70 C 133.38 6.93 133.22 13.20 133.27 19.44 C 132.02 19.45 130.77 19.46 129.52 19.47 C 129.37 12.99 129.82 6.45 129.23 0.00 Z"/>
  <path id="path15182" fill="#131516" d="M 140.92 0.00 L 148.15 0.00 L 149.64 1.43 C 149.73 2.81 149.88 4.27 149.65 5.64 C 148.90 6.52 147.52 6.81 146.49 7.31 C 146.46 5.83 146.42 4.35 146.40 2.87 C 145.31 2.87 144.22 2.88 143.13 2.88 C 143.15 4.49 143.16 6.10 143.19 7.71 C 145.70 9.37 148.15 11.09 150.44 13.04 C 150.48 15.77 150.48 18.49 150.49 21.22 C 148.39 22.30 146.30 22.40 143.99 22.32 C 142.28 22.14 140.91 22.67 139.91 20.93 C 139.69 19.04 139.76 17.10 139.73 15.20 C 140.87 15.23 142.00 15.25 143.13 15.28 C 143.13 16.67 143.13 18.06 143.13 19.45 C 144.37 19.45 145.60 19.45 146.84 19.46 C 146.80 17.80 146.87 16.09 146.59 14.45 C 144.64 12.54 141.21 11.34 139.93 8.92 C 139.73 6.14 139.13 2.34 140.92 0.00 Z"/>
  <path id="path15184" fill="#131516" d="M 50.55 0.15 C 52.90 0.16 55.26 0.15 57.62 0.14 C 57.51 5.76 57.89 11.45 57.45 17.05 C 56.60 21.15 53.26 22.15 49.52 22.47 C 49.53 21.36 49.54 20.25 49.55 19.14 C 51.19 18.60 53.60 19.20 53.70 16.85 C 54.05 12.28 53.74 7.64 53.82 3.05 C 52.75 3.05 51.68 3.06 50.61 3.07 L 50.55 0.15 Z"/>
  <path id="path15186" fill="#131516" d="M 88.64 0.15 C 91.44 0.16 94.28 0.05 97.07 0.29 L 97.55 3.07 C 95.84 3.01 94.13 2.94 92.42 2.89 C 92.41 5.11 92.40 7.34 92.40 9.57 C 93.85 9.56 95.30 9.55 96.74 9.55 L 96.09 12.32 C 94.87 12.40 93.64 12.44 92.40 12.45 C 92.40 14.77 92.40 17.10 92.41 19.43 C 94.10 19.41 95.79 19.39 97.48 19.37 C 97.36 20.33 97.25 21.29 97.13 22.26 C 94.30 22.27 91.47 22.27 88.63 22.27 C 88.63 14.90 88.63 7.52 88.64 0.15 Z"/>
  <path id="path15188" fill="#131516" d="M 49.52 40.11 C 69.76 40.18 90.00 40.15 110.24 40.13 C 110.26 69.08 110.27 98.05 110.25 127.00 C 110.25 136.99 107.07 146.77 100.09 154.06 C 91.05 163.88 76.85 169.56 64.96 175.16 C 60.73 169.99 57.24 164.32 54.86 158.07 C 62.22 154.71 70.10 151.38 76.74 146.75 C 81.89 143.11 86.36 138.61 88.51 132.56 C 90.18 128.05 89.89 123.72 89.91 119.00 C 89.90 98.51 89.90 78.03 89.91 57.54 C 76.44 57.54 62.97 57.54 49.50 57.55 C 49.51 51.74 49.48 45.92 49.52 40.11 Z"/>
  <path id="path15190" fill="#131516" d="M 129.82 40.15 C 136.71 40.14 143.61 40.14 150.50 40.15 C 150.49 69.43 150.51 98.72 150.49 128.00 C 150.60 133.12 149.51 137.89 148.90 142.99 C 146.95 156.11 141.41 168.53 132.09 178.08 C 122.87 187.74 111.70 193.98 99.89 199.90 C 93.04 196.54 86.37 192.86 80.03 188.60 C 90.12 183.38 101.10 178.22 110.03 171.04 C 116.27 166.07 121.44 159.89 124.67 152.55 C 128.63 143.55 129.83 133.76 129.81 124.00 C 129.82 96.05 129.81 68.10 129.82 40.15 Z"/>
</svg>