<?xml version="1.0" encoding="UTF-8" standalone="no"?>
<svg xmlns:dc="http://purl.org/dc/elements/1.1/" xmlns:cc="http://creativecommons.org/ns#" xmlns:rdf="http://www.w3.org/1999/02/22-rdf-syntax-ns#" xmlns:svg="http://www.w3.org/2000/svg" xmlns="http://www.w3.org/2000/svg" xmlns:sodipodi="http://sodipodi.sourceforge.net/DTD/sodipodi-0.dtd" xmlns:inkscape="http://www.inkscape.org/namespaces/inkscape" inkscape:version="1.0 (4035a4f, 2020-05-01)" sodipodi:docname="110.svg" id="svg3751" height="200.0pt" width="200.0pt" viewBox="0 0 200 200" version="1.1">
  <metadata id="metadata3757">
    <rdf:RDF>
      <cc:Work rdf:about="">
        <dc:format>image/svg+xml</dc:format>
        <dc:type rdf:resource="http://purl.org/dc/dcmitype/StillImage"/>
      </cc:Work>
    </rdf:RDF>
  </metadata>
  <defs id="defs3755"/>
  <sodipodi:namedview inkscape:current-layer="svg3751" inkscape:cy="133.33333" inkscape:cx="133.33333" inkscape:zoom="1.75125" showgrid="false" id="namedview3753" inkscape:window-height="480" inkscape:window-width="640" inkscape:pageshadow="2" inkscape:pageopacity="0" guidetolerance="10" gridtolerance="10" objecttolerance="10" borderopacity="1" bordercolor="#666666" pagecolor="#ffffff"/>
  <path style="fill:#ffffff;fill-opacity:0.00809717" id="path3647" fill="#ffffff" d="M 0.00 0.00 L 200.00 0.00 L 200.00 34.17 C 196.00 33.87 192.01 33.90 188.00 33.94 C 170.00 33.92 152.00 33.94 134.00 33.92 C 129.82 33.91 125.78 34.24 121.93 36.02 C 115.58 38.74 112.45 44.38 106.25 47.43 C 102.77 49.15 98.72 49.53 95.13 47.89 C 91.99 46.49 89.97 43.75 87.60 41.39 C 82.89 36.44 75.78 33.79 69.00 33.90 C 46.08 33.93 23.16 33.85 0.24 33.93 C 3.10 36.05 5.89 38.49 9.35 39.56 C 11.98 40.45 14.43 40.51 16.62 42.36 C 18.86 44.23 21.23 45.21 24.01 46.02 C 26.79 46.71 28.46 48.96 31.10 49.84 C 37.66 51.89 43.58 55.84 50.03 58.07 C 54.38 60.06 58.81 61.63 62.92 64.10 C 67.20 66.65 71.92 68.31 76.15 70.93 C 78.27 72.16 80.80 72.90 83.09 73.79 C 81.80 74.23 80.51 74.68 79.22 75.12 C 79.42 75.76 79.62 76.39 79.82 77.03 C 78.22 77.75 76.62 78.46 75.02 79.17 C 75.79 79.71 76.57 80.24 77.35 80.77 C 72.67 81.00 67.98 80.91 63.29 80.99 C 63.21 95.00 63.30 109.00 63.24 123.00 C 63.10 130.91 65.39 138.86 69.30 145.70 C 74.95 155.45 84.42 162.47 94.98 166.14 C 96.76 166.69 98.36 167.30 100.22 166.63 C 107.96 164.21 115.49 160.02 121.09 154.08 C 128.79 146.18 133.11 135.01 132.95 124.00 C 132.87 109.59 133.08 95.18 132.84 80.77 C 126.59 80.82 120.33 80.64 114.09 80.91 C 113.43 80.27 112.76 79.63 112.10 79.00 C 113.60 77.60 115.03 76.15 116.39 74.61 C 120.17 73.61 122.98 72.35 126.29 70.16 C 123.49 69.87 119.08 71.33 116.61 69.43 C 119.76 69.04 122.82 69.53 125.96 69.62 C 132.23 67.83 137.47 63.77 143.91 61.99 C 146.18 61.40 147.64 59.85 149.57 58.66 C 155.03 56.87 159.97 53.75 165.20 51.38 C 167.63 50.48 170.04 49.72 172.20 48.21 C 174.56 46.52 177.29 46.12 179.86 44.91 C 182.53 43.48 184.44 41.36 187.49 40.64 C 192.22 39.34 196.10 37.39 200.00 34.43 L 200.00 200.00 L 0.00 200.00 L 0.00 0.00 Z"/>
  <path id="path3649" fill="#cba019" d="M 0.24 33.93 C 23.16 33.85 46.08 33.93 69.00 33.90 C 75.78 33.79 82.89 36.44 87.60 41.39 C 89.97 43.75 91.99 46.49 95.13 47.89 C 98.72 49.53 102.77 49.15 106.25 47.43 C 112.45 44.38 115.58 38.74 121.93 36.02 C 125.78 34.24 129.82 33.91 134.00 33.92 C 152.00 33.94 170.00 33.92 188.00 33.94 C 192.01 33.90 196.00 33.87 200.00 34.17 L 200.00 34.43 C 196.10 37.39 192.22 39.34 187.49 40.64 C 184.44 41.36 182.53 43.48 179.86 44.91 C 177.29 46.12 174.56 46.52 172.20 48.21 C 170.04 49.72 167.63 50.48 165.20 51.38 C 159.97 53.75 155.03 56.87 149.57 58.66 C 147.64 59.85 146.18 61.40 143.91 61.99 C 137.47 63.77 132.23 67.83 125.96 69.62 C 122.82 69.53 119.76 69.04 116.61 69.43 C 119.08 71.33 123.49 69.87 126.29 70.16 C 122.98 72.35 120.17 73.61 116.39 74.61 C 115.03 76.15 113.60 77.60 112.10 79.00 L 112.15 79.12 C 112.51 80.24 112.92 81.34 113.32 82.44 C 112.05 83.93 110.65 85.26 109.19 86.56 C 109.46 83.13 108.89 82.39 111.94 80.69 C 108.89 80.76 107.07 84.88 104.44 86.29 C 104.36 82.52 104.89 82.73 107.28 80.58 C 104.96 80.11 104.65 81.78 103.30 83.19 C 102.27 84.61 100.83 85.27 99.38 86.15 C 99.54 84.84 99.71 83.54 99.85 82.24 C 98.27 80.87 96.57 81.07 94.63 80.91 L 94.23 82.57 C 93.40 84.96 91.64 85.72 89.64 86.99 C 89.94 85.29 90.14 83.59 90.25 81.88 C 88.89 83.80 87.50 85.44 85.67 86.92 C 85.61 85.37 85.56 83.83 85.52 82.29 C 86.29 81.92 87.07 81.55 87.84 81.18 C 85.84 79.37 85.56 81.97 84.27 83.18 C 83.15 85.09 81.52 85.97 79.62 87.00 C 80.18 85.68 80.71 84.36 81.22 83.04 L 81.09 82.44 C 79.93 81.67 78.67 81.20 77.35 80.77 C 76.57 80.24 75.79 79.71 75.02 79.17 C 76.62 78.46 78.22 77.75 79.82 77.03 C 79.62 76.39 79.42 75.76 79.22 75.12 C 80.51 74.68 81.80 74.23 83.09 73.79 C 80.80 72.90 78.27 72.16 76.15 70.93 C 71.92 68.31 67.20 66.65 62.92 64.10 C 58.81 61.63 54.38 60.06 50.03 58.07 C 43.58 55.84 37.66 51.89 31.10 49.84 C 28.46 48.96 26.79 46.71 24.01 46.02 C 21.23 45.21 18.86 44.23 16.62 42.36 C 14.43 40.51 11.98 40.45 9.35 39.56 C 5.89 38.49 3.10 36.05 0.24 33.93 Z"/>
  <path id="path3651" fill="#ffffff" d="M 4.57 35.48 C 15.21 35.16 25.88 35.41 36.53 35.35 C 37.79 36.39 39.05 37.41 40.31 38.44 C 32.87 38.45 25.43 38.45 18.00 38.45 C 13.18 38.35 8.71 38.27 4.57 35.48 Z"/>
  <path id="path3653" fill="#ffffff" d="M 39.33 35.47 C 48.88 35.17 58.45 35.43 68.01 35.32 C 73.67 35.13 79.16 37.01 83.78 40.22 C 87.38 42.76 90.26 46.79 94.08 48.96 C 96.95 50.54 99.84 49.23 101.23 52.82 C 98.45 52.37 95.84 51.76 93.00 51.74 C 85.24 51.74 77.48 51.86 69.72 51.68 C 69.33 51.28 68.95 50.88 68.57 50.48 C 76.79 50.53 85.01 50.64 93.23 50.42 L 90.15 48.62 C 81.84 48.23 73.46 48.76 65.15 48.41 C 63.72 48.42 62.74 47.73 61.58 46.98 C 70.32 46.62 79.09 46.99 87.84 46.79 C 86.54 45.48 85.04 43.19 82.99 43.22 C 73.66 43.00 64.29 43.33 54.96 43.11 C 53.34 43.09 52.19 42.26 50.86 41.49 C 61.04 41.14 71.25 41.60 81.44 41.25 C 78.92 39.23 76.37 37.61 73.02 37.64 C 63.67 37.56 54.31 37.70 44.96 37.62 C 42.63 37.72 41.11 36.83 39.33 35.47 Z"/>
  <path id="path3655" fill="#ffffff" d="M 136.00 35.41 C 144.20 35.52 152.40 35.28 160.60 35.53 C 159.19 36.89 158.08 37.74 156.02 37.68 C 147.02 37.76 138.00 37.67 128.99 37.67 C 125.65 37.52 123.36 39.24 120.64 40.85 C 130.27 41.43 139.95 40.80 149.58 41.31 C 147.82 42.38 146.16 43.31 144.03 43.29 C 136.02 43.45 127.99 43.26 119.98 43.32 C 117.50 43.07 115.54 45.35 113.64 46.69 C 121.96 46.63 130.28 46.73 138.60 46.60 L 138.78 47.78 C 128.38 49.56 117.54 47.42 107.07 49.17 C 113.87 45.04 118.15 38.39 125.46 36.21 C 128.92 35.10 132.40 35.41 136.00 35.41 Z"/>
  <path id="path3657" fill="#ffffff" d="M 165.96 35.32 C 175.94 35.43 185.94 35.17 195.91 35.48 C 191.94 38.09 187.60 38.37 183.00 38.44 C 175.36 38.48 167.72 38.40 160.08 38.49 C 162.03 37.05 163.32 35.02 165.96 35.32 Z"/>
  <path id="path3659" fill="#ffffff" d="M 18.61 41.61 C 28.53 41.30 38.48 41.53 48.41 41.49 C 49.60 42.49 50.81 43.48 52.01 44.48 C 45.01 44.42 38.00 44.46 31.00 44.46 C 26.58 44.34 22.34 44.29 18.61 41.61 Z"/>
  <path id="path3661" fill="#ffffff" d="M 157.00 41.43 C 165.27 41.58 173.55 41.30 181.82 41.58 C 178.41 44.19 174.17 44.32 170.03 44.45 C 162.85 44.44 155.65 44.48 148.47 44.41 C 149.56 43.48 150.67 42.50 151.88 41.71 C 153.51 41.30 155.33 41.47 157.00 41.43 Z"/>
  <path id="path3663" fill="#ffffff" d="M 28.86 46.94 C 37.90 46.61 46.96 46.89 56.01 46.77 C 58.74 46.49 60.22 48.17 62.31 49.54 C 57.21 49.57 52.10 49.51 47.00 49.54 C 41.79 49.53 36.87 49.77 31.76 48.50 C 30.78 47.99 29.82 47.47 28.86 46.94 Z"/>
  <path id="path3665" fill="#ffffff" d="M 143.97 46.79 C 153.09 46.85 162.24 46.63 171.35 46.95 C 168.19 49.35 163.80 49.36 160.00 49.52 C 152.66 49.58 145.33 49.50 137.99 49.56 C 139.91 48.36 141.56 46.60 143.97 46.79 Z"/>
  <path id="path3667" fill="#ffffff" d="M 101.10 50.39 C 104.44 49.98 107.65 49.41 111.02 49.86 C 117.87 50.64 124.88 49.66 131.72 50.37 C 133.33 50.65 133.61 52.46 134.28 53.67 C 129.97 54.20 125.66 54.21 121.33 54.16 L 121.33 55.28 C 124.51 55.15 127.61 55.15 130.73 55.91 C 134.22 54.15 137.70 53.84 141.51 54.64 C 143.83 55.50 143.98 57.34 144.76 59.41 C 140.69 56.45 136.68 57.56 131.99 57.34 C 130.26 57.54 128.69 56.89 127.58 58.53 C 131.73 58.83 135.90 58.49 140.04 58.83 C 141.45 58.86 142.54 60.00 143.65 60.74 C 137.09 60.98 130.54 61.02 123.99 60.54 C 120.49 60.99 116.60 65.15 112.92 63.26 C 111.82 61.47 111.67 60.45 109.36 59.96 C 110.13 58.74 110.48 57.41 110.40 56.00 C 111.35 55.24 112.29 54.49 113.25 53.75 C 108.48 53.74 104.55 54.31 101.10 50.39 Z"/>
  <path id="path3669" fill="#ffffff" d="M 38.66 51.41 C 46.37 50.55 54.24 51.31 62.00 50.97 C 64.73 50.73 66.89 51.58 69.28 52.74 C 63.55 53.15 57.75 52.90 52.00 52.98 C 47.52 52.90 42.89 53.11 38.66 51.41 Z"/>
  <path id="path3671" fill="#ffffff" d="M 134.95 51.21 C 138.93 50.82 143.01 51.06 147.00 51.02 C 152.05 51.08 156.73 50.75 161.69 51.38 C 157.17 53.16 152.78 52.74 148.00 52.81 C 144.05 52.71 140.07 52.99 136.13 52.71 C 135.69 52.26 135.29 51.76 134.95 51.21 Z"/>
  <path id="path3673" fill="#ffffff" d="M 77.62 54.60 C 85.68 54.20 94.12 55.36 102.03 53.78 C 103.04 54.08 104.04 54.42 105.02 54.80 L 101.15 56.21 C 102.20 56.72 103.25 57.24 104.31 57.76 C 102.91 58.84 101.51 59.91 100.12 61.00 L 103.88 61.65 C 102.47 62.58 101.20 63.48 100.15 64.81 C 102.67 63.98 104.02 64.14 106.44 64.96 C 104.61 66.42 102.19 67.38 100.00 66.08 C 98.27 65.04 96.83 63.03 99.31 61.60 C 98.50 61.04 97.69 60.48 96.88 59.92 C 98.36 58.46 99.91 58.11 101.90 57.57 C 100.16 57.05 98.67 56.99 96.85 57.15 C 96.34 56.66 95.84 56.17 95.34 55.68 C 88.92 55.55 82.21 56.39 75.88 55.22 C 76.45 54.97 77.03 54.76 77.62 54.60 Z"/>
  <path id="path3675" fill="#ffffff" d="M 155.24 54.75 C 152.36 56.28 150.27 56.66 146.99 56.44 C 145.84 56.53 144.88 55.98 144.10 54.78 C 147.80 54.52 151.54 54.56 155.24 54.75 Z"/>
  <path id="path3677" fill="#ffffff" d="M 45.74 54.97 C 52.49 54.68 59.25 54.94 66.00 54.83 C 69.47 54.95 72.52 54.13 75.48 56.38 C 66.69 56.49 57.72 56.87 48.95 56.21 C 47.88 55.81 46.80 55.40 45.74 54.97 Z"/>
  <path id="path3679" fill="#ffffff" d="M 108.88 55.01 C 109.36 56.73 106.10 56.77 105.03 56.59 C 105.34 54.82 107.44 53.97 108.88 55.01 Z"/>
  <path id="path3681" fill="#ffffff" d="M 109.39 57.35 C 107.81 60.15 105.96 60.39 102.86 60.50 C 104.86 58.32 106.57 57.78 109.39 57.35 Z"/>
  <path id="path3683" fill="#ffffff" d="M 53.41 58.49 C 59.21 57.84 65.16 58.27 71.00 58.14 C 74.79 58.28 78.08 57.40 81.44 59.59 C 75.98 59.96 70.47 59.71 65.00 59.81 C 60.94 59.76 57.24 60.12 53.41 58.49 Z"/>
  <path id="path3685" fill="#ffffff" d="M 80.88 58.29 C 86.15 58.04 91.46 58.19 96.73 58.28 C 95.68 59.12 94.53 59.83 93.26 60.41 C 94.59 60.86 95.91 61.35 97.23 61.83 L 93.05 63.30 C 94.80 63.83 96.54 64.36 98.28 64.92 C 96.70 65.54 95.12 66.15 93.53 66.74 C 93.36 65.63 93.20 64.52 93.04 63.42 L 90.07 63.53 C 92.47 61.75 92.81 62.06 92.29 59.14 C 88.41 59.08 84.69 59.24 80.88 58.29 Z"/>
  <path id="path3687" fill="#ffffff" d="M 146.53 58.26 L 147.05 58.25 L 147.06 58.78 L 146.54 58.79 L 146.53 58.26 Z"/>
  <path id="path3689" fill="#ffffff" d="M 60.55 61.65 C 68.93 60.95 77.40 61.45 85.80 61.31 C 86.23 61.73 86.66 62.15 87.09 62.57 C 78.33 62.41 69.17 63.32 60.55 61.65 Z"/>
  <path id="path3691" fill="#ffffff" d="M 88.33 61.14 L 89.03 60.74 L 89.75 61.17 L 89.75 61.99 L 89.05 62.40 L 88.33 61.97 L 88.33 61.14 Z"/>
  <path id="path3693" fill="#ffffff" d="M 110.09 62.11 C 107.80 63.46 106.64 63.67 104.01 63.40 C 106.05 60.90 107.16 59.50 110.09 62.11 Z"/>
  <path id="path3695" fill="#ffffff" d="M 122.18 62.33 C 127.74 62.36 133.40 62.09 138.93 62.58 C 133.79 64.39 127.55 63.25 122.10 63.46 L 122.18 62.33 Z"/>
  <path id="path3697" fill="#ffffff" d="M 83.00 63.80 C 84.69 64.00 87.01 63.19 87.86 65.13 C 81.02 65.28 73.78 65.78 67.08 64.28 C 72.27 63.33 77.73 64.08 83.00 63.80 Z"/>
  <path id="path3699" fill="#ffffff" d="M 89.43 64.23 C 91.73 64.54 89.81 66.51 88.40 65.77 C 87.90 65.06 88.24 64.54 89.43 64.23 Z"/>
  <path id="path3701" fill="#ffffff" d="M 118.55 65.47 C 123.50 65.01 128.52 65.19 133.47 65.50 C 128.67 66.40 123.30 66.79 118.55 65.47 Z"/>
  <path id="path3703" fill="#ffffff" d="M 85.49 66.60 L 85.39 67.73 C 80.81 67.72 76.35 67.93 71.81 67.22 C 76.16 66.06 81.00 66.90 85.49 66.60 Z"/>
  <path id="path3705" fill="#ffffff" d="M 93.34 68.04 C 90.72 69.03 88.41 69.99 85.70 68.71 C 88.60 67.64 90.47 65.43 93.34 68.04 Z"/>
  <path id="path3707" fill="#ffffff" d="M 98.05 66.62 C 99.11 67.03 100.17 67.44 101.21 67.88 C 98.95 69.78 96.82 70.26 94.00 69.11 C 94.50 67.01 96.36 67.28 98.05 66.62 Z"/>
  <path id="path3709" fill="#ffffff" d="M 107.92 66.06 C 106.05 68.47 104.65 69.19 101.78 69.87 C 103.16 67.40 105.42 66.96 107.92 66.06 Z"/>
  <path id="path3711" fill="#ffffff" d="M 129.36 67.41 C 125.12 67.88 120.87 68.02 116.63 67.51 C 120.34 65.85 125.42 66.99 129.36 67.41 Z"/>
  <path id="path3713" fill="#ffffff" d="M 115.57 69.39 C 116.47 71.37 113.31 73.05 111.97 73.98 C 108.72 76.23 105.17 75.05 101.74 76.84 C 103.98 76.99 106.23 77.12 108.48 77.25 C 106.17 78.64 104.07 79.42 101.42 79.89 C 101.74 81.40 101.32 82.22 100.17 82.36 L 100.82 79.74 C 99.43 79.70 98.03 79.66 96.63 79.62 C 101.46 75.62 106.78 72.46 111.85 68.82 C 113.21 68.00 114.54 68.15 115.57 69.39 Z"/>
  <path id="path3715" fill="#ffffff" d="M 76.09 69.10 C 78.37 68.38 80.82 68.34 83.10 69.11 C 81.31 70.44 77.96 70.17 76.09 69.10 Z"/>
  <path id="path3717" fill="#ffffff" d="M 94.01 69.54 C 95.01 70.49 96.51 71.02 95.63 72.65 C 92.00 75.80 87.29 76.72 82.59 75.99 C 85.56 73.07 89.97 70.55 94.01 69.54 Z"/>
  <path id="path3719" fill="#ffffff" d="M 81.30 77.35 C 83.30 77.22 85.37 77.58 87.35 77.82 C 84.20 79.78 81.14 79.94 77.51 79.89 C 78.72 79.00 79.96 78.02 81.30 77.35 Z"/>
  <path id="path3721" fill="#3f5b8a" d="M 112.15 79.12 L 112.10 79.00 C 112.76 79.63 113.43 80.27 114.09 80.91 C 120.33 80.64 126.59 80.82 132.84 80.77 C 133.08 95.18 132.87 109.59 132.95 124.00 C 133.11 135.01 128.79 146.18 121.09 154.08 C 115.49 160.02 107.96 164.21 100.22 166.63 C 98.36 167.30 96.76 166.69 94.98 166.14 C 84.42 162.47 74.95 155.45 69.30 145.70 C 65.39 138.86 63.10 130.91 63.24 123.00 C 63.30 109.00 63.21 95.00 63.29 80.99 C 67.98 80.91 72.67 81.00 77.35 80.77 C 78.67 81.20 79.93 81.67 81.09 82.44 C 75.74 82.67 70.36 82.49 65.00 82.57 C 65.08 97.05 64.96 111.56 65.06 126.04 C 65.76 135.72 69.88 145.33 76.74 152.26 C 82.18 157.83 89.11 161.94 96.54 164.22 C 99.10 165.25 101.59 163.69 104.00 162.87 C 114.42 158.77 123.24 151.15 127.72 140.76 C 129.89 135.78 131.19 130.46 131.20 125.00 C 131.19 110.79 131.21 96.57 131.19 82.36 C 125.23 82.36 119.27 82.23 113.32 82.44 C 112.92 81.34 112.51 80.24 112.15 79.12 Z"/>
  <path id="path3723" fill="#ffffff" d="M 87.84 81.18 C 87.07 81.55 86.29 81.92 85.52 82.29 C 85.56 83.83 85.61 85.37 85.67 86.92 C 87.50 85.44 88.89 83.80 90.25 81.88 C 90.14 83.59 89.94 85.29 89.64 86.99 C 91.64 85.72 93.40 84.96 94.23 82.57 C 96.10 82.48 97.98 82.37 99.85 82.24 C 99.71 83.54 99.54 84.84 99.38 86.15 C 100.83 85.27 102.27 84.61 103.30 83.19 C 104.65 81.78 104.96 80.11 107.28 80.58 C 104.89 82.73 104.36 82.52 104.44 86.29 C 107.07 84.88 108.89 80.76 111.94 80.69 C 108.89 82.39 109.46 83.13 109.19 86.56 C 110.65 85.26 112.05 83.93 113.32 82.44 C 119.27 82.23 125.23 82.36 131.19 82.36 C 131.21 96.57 131.19 110.79 131.20 125.00 C 131.19 130.46 129.89 135.78 127.72 140.76 C 123.24 151.15 114.42 158.77 104.00 162.87 C 101.59 163.69 99.10 165.25 96.54 164.22 C 89.11 161.94 82.18 157.83 76.74 152.26 C 69.88 145.33 65.76 135.72 65.06 126.04 C 64.96 111.56 65.08 97.05 65.00 82.57 C 70.36 82.49 75.74 82.67 81.09 82.44 L 81.22 83.04 C 80.71 84.36 80.18 85.68 79.62 87.00 C 81.52 85.97 83.15 85.09 84.27 83.18 C 85.56 81.97 85.84 79.37 87.84 81.18 Z"/>
  <path id="path3725" fill="#ffffff" d="M 81.10 81.03 L 81.76 80.56 L 82.45 80.98 L 82.48 81.84 L 81.82 82.31 L 81.13 81.90 L 81.10 81.03 Z"/>
  <path id="path3727" fill="#ffffff" d="M 90.29 81.21 L 90.99 80.79 L 91.70 81.21 L 91.72 82.04 L 91.02 82.46 L 90.30 82.04 L 90.29 81.21 Z"/>
  <path id="path3729" fill="#3f5b8a" d="M 94.63 80.91 C 96.57 81.07 98.27 80.87 99.85 82.24 C 97.98 82.37 96.10 82.48 94.23 82.57 L 94.63 80.91 Z"/>
  <path id="path3731" fill="#3f5b8a" d="M 77.70 91.37 C 77.45 92.24 77.21 93.10 76.97 93.97 C 76.33 93.15 75.67 92.36 74.97 91.60 L 73.47 93.01 C 74.73 94.80 76.08 96.40 76.82 98.49 C 79.08 98.58 79.74 98.28 81.14 100.32 C 77.48 100.28 73.82 100.29 70.15 100.40 C 70.09 99.50 70.02 98.61 69.95 97.72 C 71.24 98.29 73.00 101.34 74.02 99.12 C 75.92 97.61 70.50 95.00 71.82 93.03 C 72.35 90.48 75.84 91.55 77.70 91.37 Z"/>
  <path id="path3733" fill="#3f5b8a" d="M 85.99 91.37 C 85.80 92.16 85.61 92.96 85.42 93.76 C 84.63 93.00 83.88 92.26 82.96 91.64 C 80.31 93.59 85.04 95.83 84.91 98.47 C 85.74 98.63 86.56 98.78 87.39 98.94 C 86.86 99.53 86.31 100.10 85.74 100.65 L 84.38 99.28 L 80.99 101.09 C 81.69 100.11 82.38 99.13 83.08 98.14 C 82.11 96.83 79.38 94.86 80.00 93.07 C 81.28 90.38 83.56 91.62 85.99 91.37 Z"/>
  <path id="path3735" fill="#3f5b8a" d="M 90.88 91.06 C 91.84 90.94 92.80 90.85 93.76 90.78 C 92.63 93.77 91.77 96.71 91.13 99.84 C 93.21 99.05 95.32 98.36 97.45 97.69 C 98.36 96.84 99.28 96.00 100.18 95.14 C 101.10 93.46 102.11 92.02 103.44 90.64 C 103.91 93.43 102.98 97.39 104.64 99.72 C 107.19 97.23 109.32 94.28 111.39 91.39 C 109.56 91.93 107.99 92.73 106.41 93.78 C 106.73 92.93 107.04 92.07 107.35 91.21 C 109.58 91.15 111.81 91.11 114.04 91.10 C 111.93 94.18 109.47 96.98 107.34 100.04 C 109.38 99.42 111.21 98.51 113.05 97.47 C 112.56 98.38 112.09 99.31 111.53 100.18 C 107.96 100.45 104.34 100.18 100.75 100.27 C 101.16 99.31 101.57 98.35 101.97 97.38 L 98.81 97.51 C 98.33 98.40 97.87 99.30 97.44 100.21 C 94.45 100.18 91.47 100.17 88.48 100.19 C 89.73 97.20 90.40 94.25 90.88 91.06 Z"/>
  <path id="path3737" fill="#3f5b8a" d="M 115.74 91.08 C 116.70 90.96 117.66 90.87 118.63 90.80 C 117.38 93.86 116.39 96.86 116.19 100.17 L 113.33 100.21 C 114.49 97.23 115.13 94.20 115.74 91.08 Z"/>
  <path id="path3739" fill="#3f5b8a" d="M 122.28 91.34 C 123.94 91.05 125.66 90.79 126.96 92.09 C 129.15 96.05 124.26 102.20 119.93 100.01 C 116.76 97.77 119.39 92.53 122.28 91.34 Z"/>
  <path id="path3741" fill="#ffffff" d="M 123.15 92.04 L 123.95 91.42 C 126.70 92.28 124.67 97.00 123.61 98.63 C 122.67 99.97 121.75 100.17 120.86 99.23 C 120.19 97.24 121.43 93.36 123.15 92.04 Z"/>
  <path id="path3743" fill="#3f5b8a" d="M 70.25 103.92 C 88.77 103.66 107.32 103.79 125.86 103.78 C 126.00 110.19 125.90 116.59 125.95 123.00 C 126.08 130.34 123.94 137.66 119.71 143.68 C 115.34 149.93 109.02 154.29 101.94 156.97 C 100.52 157.45 98.68 158.32 97.20 157.77 C 86.13 154.51 76.54 146.49 72.54 135.51 C 68.79 126.01 70.65 114.18 70.25 103.92 Z"/>
  <path id="path3745" fill="#87d8f7" d="M 124.01 105.34 C 124.10 111.89 124.06 118.45 124.06 125.00 C 124.20 136.31 117.63 146.87 107.92 152.47 C 107.59 136.76 107.83 121.01 107.79 105.29 C 113.20 105.43 118.60 105.37 124.01 105.34 Z"/>
  <path id="path3747" fill="#87d8f7" d="M 72.00 105.46 C 77.75 105.38 83.49 105.54 89.23 105.33 C 89.28 121.11 89.47 136.92 89.14 152.69 C 79.15 146.99 72.45 136.57 72.03 125.01 C 71.94 118.49 72.03 111.98 72.00 105.46 Z"/>
  <path id="path3749" fill="#ffffff" d="M 89.23 105.33 C 95.42 105.17 101.61 105.21 107.79 105.29 C 107.83 121.01 107.59 136.76 107.92 152.47 C 104.96 154.15 101.53 156.03 98.10 156.30 C 94.95 155.74 91.89 154.29 89.14 152.69 C 89.47 136.92 89.28 121.11 89.23 105.33 Z"/>
</svg>