<?xml version="1.0" encoding="UTF-8" standalone="no"?>
<svg xmlns:dc="http://purl.org/dc/elements/1.1/" xmlns:cc="http://creativecommons.org/ns#" xmlns:rdf="http://www.w3.org/1999/02/22-rdf-syntax-ns#" xmlns:svg="http://www.w3.org/2000/svg" xmlns="http://www.w3.org/2000/svg" xmlns:sodipodi="http://sodipodi.sourceforge.net/DTD/sodipodi-0.dtd" xmlns:inkscape="http://www.inkscape.org/namespaces/inkscape" inkscape:version="1.0 (4035a4f, 2020-05-01)" sodipodi:docname="115.svg" id="svg12034" height="200.0pt" width="200.0pt" viewBox="0 0 200 200" version="1.1">
  <metadata id="metadata12040">
    <rdf:RDF>
      <cc:Work rdf:about="">
        <dc:format>image/svg+xml</dc:format>
        <dc:type rdf:resource="http://purl.org/dc/dcmitype/StillImage"/>
      </cc:Work>
    </rdf:RDF>
  </metadata>
  <defs id="defs12038"/>
  <sodipodi:namedview inkscape:current-layer="svg12034" inkscape:cy="133.33333" inkscape:cx="133.33333" inkscape:zoom="1.75125" showgrid="false" id="namedview12036" inkscape:window-height="480" inkscape:window-width="640" inkscape:pageshadow="2" inkscape:pageopacity="0" guidetolerance="10" gridtolerance="10" objecttolerance="10" borderopacity="1" bordercolor="#666666" pagecolor="#ffffff"/>
  <path style="fill:#ffffff;fill-opacity:0.01619433" id="path11854" fill="#ffffff" d="M 0.00 0.00 L 200.00 0.00 L 200.00 106.37 C 196.83 107.33 193.64 107.90 190.91 109.87 C 187.84 112.08 185.41 115.52 183.17 118.53 C 187.47 116.89 191.94 115.24 195.86 112.81 C 197.96 111.45 198.91 109.42 200.00 107.27 L 200.00 200.00 L 0.00 200.00 L 0.00 107.27 C 1.09 109.44 2.01 111.47 4.13 112.82 C 8.05 115.24 12.51 116.88 16.79 118.53 C 14.57 115.52 12.14 112.09 9.08 109.88 C 6.32 107.91 3.22 107.27 0.00 106.43 L 0.00 0.00 Z"/>
  <path id="path11856" fill="#a69331" d="M 93.02 0.52 C 96.30 0.50 98.33 4.09 98.15 7.04 C 98.00 9.38 96.35 11.19 95.10 13.04 C 97.18 15.53 99.44 17.56 99.59 21.03 C 99.93 24.64 97.95 28.46 94.00 28.69 C 90.28 28.93 87.78 25.46 87.72 22.02 C 87.57 19.06 89.16 17.12 90.59 14.73 C 88.82 12.23 86.93 10.29 87.06 6.99 C 86.99 3.55 89.39 0.42 93.02 0.52 Z"/>
  <path id="path11858" fill="#a69331" d="M 111.56 1.45 C 113.60 2.85 114.53 5.68 114.91 8.02 C 115.69 13.31 114.51 19.06 111.53 23.53 C 109.22 26.89 105.06 29.46 100.89 28.30 C 102.81 27.13 105.10 26.25 106.83 24.83 C 108.67 23.03 109.79 20.35 111.07 18.15 C 109.40 18.28 107.05 19.27 105.50 18.37 C 103.27 17.08 102.42 14.48 102.30 12.04 C 102.10 8.38 102.88 4.30 105.77 1.79 C 107.32 0.37 109.86 0.24 111.56 1.45 Z"/>
  <path id="path11860" fill="#ffffff" d="M 90.51 3.42 C 91.94 1.52 93.96 2.24 94.87 4.16 C 96.19 7.28 94.84 9.52 93.28 12.16 C 91.36 9.72 88.29 6.71 90.51 3.42 Z"/>
  <path id="path11862" fill="#ffffff" d="M 109.02 1.86 C 111.32 4.19 111.75 5.76 111.77 8.98 C 111.49 11.84 112.58 15.54 109.02 16.53 C 106.24 16.47 106.16 14.20 105.78 12.03 C 105.62 8.13 105.54 4.37 109.02 1.86 Z"/>
  <path id="path11864" fill="#a69331" d="M 77.38 2.64 C 79.17 11.01 80.59 19.46 82.24 27.86 C 83.50 28.27 84.76 28.69 86.01 29.11 C 82.77 30.14 79.56 30.90 76.20 31.42 C 77.15 30.54 78.10 29.66 79.05 28.79 C 77.99 21.76 76.49 14.79 75.20 7.80 C 74.03 8.36 72.86 8.91 71.69 9.46 C 72.76 7.97 73.85 6.49 75.06 5.11 C 75.82 4.28 76.59 3.45 77.38 2.64 Z"/>
  <path id="path11866" fill="#a69331" d="M 133.00 5.61 C 131.15 6.15 129.11 6.47 127.37 7.32 C 125.23 8.76 123.68 11.25 122.06 13.23 C 124.97 13.54 127.30 13.26 128.68 16.32 C 130.71 21.04 128.62 28.49 123.91 30.98 C 120.17 32.53 117.67 29.25 116.81 26.03 C 115.37 19.59 117.50 11.96 122.51 7.53 C 125.43 5.07 129.42 3.36 133.00 5.61 Z"/>
  <path id="path11868" fill="#a69331" d="M 64.80 8.61 C 60.09 15.45 55.35 23.40 48.60 28.38 C 48.42 26.42 47.96 24.71 48.65 22.80 C 50.71 16.73 55.80 11.99 61.72 9.72 C 62.74 9.34 63.77 8.97 64.80 8.61 Z"/>
  <path id="path11870" fill="#a69331" d="M 135.18 8.61 C 136.21 8.97 137.25 9.34 138.28 9.72 C 141.91 11.15 145.15 13.38 147.66 16.38 C 150.51 19.86 152.53 23.76 151.40 28.38 C 145.42 24.16 141.08 17.10 136.85 11.17 C 136.29 10.32 135.73 9.47 135.18 8.61 Z"/>
  <path id="path11872" fill="#a69331" d="M 46.67 14.72 C 46.38 22.03 45.70 30.36 42.15 36.88 C 41.24 34.73 39.81 32.83 40.41 30.40 C 41.51 24.89 43.81 19.54 46.67 14.72 Z"/>
  <path id="path11874" fill="#a69331" d="M 153.28 14.69 C 156.11 19.53 158.50 24.89 159.57 30.41 C 160.13 32.91 158.75 34.69 157.82 36.88 C 154.28 30.33 153.63 22.02 153.28 14.69 Z"/>
  <path id="path11876" fill="#a69331" d="M 66.17 15.94 C 65.44 18.95 64.65 22.36 62.95 24.98 C 61.43 27.26 58.86 29.04 56.75 30.76 C 51.60 34.82 46.97 39.37 42.13 43.77 C 43.41 38.75 44.49 34.14 48.57 30.59 C 54.23 25.56 60.21 20.60 66.17 15.94 Z"/>
  <path id="path11878" fill="#ffffff" d="M 92.03 15.86 C 93.97 17.42 96.48 19.48 96.75 22.13 C 96.96 23.77 96.55 26.16 94.76 26.75 C 93.73 27.46 92.20 26.25 91.66 25.36 C 89.93 22.23 90.56 18.93 92.03 15.86 Z"/>
  <path style="fill:#ffffff;fill-opacity:0" id="path11880" fill="#ffffff" d="M 121.89 15.50 C 123.78 15.41 124.68 15.72 125.58 17.42 C 126.57 22.12 125.58 26.88 122.01 30.26 C 118.61 27.34 119.16 23.76 119.80 19.78 C 120.13 18.15 120.71 16.70 121.89 15.50 Z"/>
  <path id="path11882" fill="#a69331" d="M 133.83 15.95 C 139.76 20.59 145.78 25.61 151.42 30.60 C 155.48 34.15 156.55 38.75 157.83 43.75 C 153.00 39.36 148.38 34.81 143.23 30.77 C 141.12 29.05 138.56 27.27 137.04 24.99 C 135.34 22.35 134.51 18.98 133.83 15.95 Z"/>
  <path id="path11884" fill="#a69331" d="M 34.04 27.67 C 34.29 35.42 30.47 42.01 26.05 48.06 C 26.22 40.74 27.06 31.82 34.04 27.67 Z"/>
  <path id="path11886" fill="#a69331" d="M 165.99 27.66 C 172.92 31.97 173.77 40.63 173.89 48.05 C 169.50 41.94 165.66 35.46 165.99 27.66 Z"/>
  <path id="path11888" fill="#a69331" d="M 37.88 33.77 C 39.39 40.11 36.75 47.26 33.85 52.87 C 30.95 57.40 28.31 62.13 25.17 66.49 C 24.86 59.29 27.12 52.55 30.07 46.08 C 32.49 41.88 35.23 37.82 37.88 33.77 Z"/>
  <path id="path11890" fill="#9c9a9a" d="M 121.22 37.56 C 135.99 42.50 148.80 52.81 156.87 66.12 C 164.65 78.86 167.89 94.23 165.97 109.03 C 164.57 120.35 160.15 131.20 153.33 140.33 C 146.49 131.29 139.55 122.34 132.73 113.30 C 131.30 111.43 129.78 109.63 128.19 107.88 C 128.21 107.70 128.22 107.52 128.23 107.34 C 128.48 94.97 128.32 82.58 128.31 70.21 C 109.43 70.25 90.55 70.26 71.68 70.21 C 71.68 82.55 71.50 94.90 71.77 107.24 C 71.78 107.46 71.80 107.68 71.81 107.90 C 68.35 111.52 65.59 115.59 62.53 119.53 C 57.23 126.45 51.92 133.37 46.66 140.31 C 31.94 120.98 29.36 93.80 39.95 71.96 C 46.68 57.81 58.56 46.23 72.87 39.86 C 87.91 33.07 105.61 32.29 121.22 37.56 Z"/>
  <path id="path11892" fill="#a69331" d="M 162.07 33.75 C 164.74 37.80 167.49 41.89 169.91 46.10 C 172.84 52.48 175.10 59.39 174.82 66.50 C 171.68 62.14 169.03 57.42 166.14 52.89 C 163.22 47.23 160.57 40.16 162.07 33.75 Z"/>
  <path id="path11894" fill="#a69331" d="M 60.95 36.36 C 55.25 42.14 49.43 45.73 41.46 47.54 C 46.39 40.61 52.36 36.97 60.95 36.36 Z"/>
  <path id="path11896" fill="#a69331" d="M 139.03 36.35 C 142.55 36.86 145.87 37.23 149.04 38.95 C 153.00 40.93 155.91 44.05 158.53 47.55 C 152.01 45.98 146.34 43.29 141.46 38.64 C 140.64 37.89 139.83 37.12 139.03 36.35 Z"/>
  <path id="path11898" fill="#a69331" d="M 20.78 38.52 C 23.56 45.25 24.15 52.19 23.67 59.41 C 19.69 54.21 17.09 48.22 19.61 41.70 C 19.99 40.63 20.38 39.57 20.78 38.52 Z"/>
  <path id="path11900" fill="#a69331" d="M 179.24 38.57 C 180.18 41.22 181.33 44.17 181.44 47.01 C 181.21 51.70 179.13 55.72 176.32 59.38 C 175.88 52.20 176.33 45.23 179.24 38.57 Z"/>
  <path id="path11902" fill="#ffffff" d="M 93.36 40.15 C 95.98 40.05 98.76 39.64 101.36 40.01 L 102.76 41.77 C 100.47 41.22 98.22 40.82 95.87 40.62 C 95.91 42.70 95.96 44.78 96.01 46.86 C 98.30 46.53 99.71 46.47 101.27 44.56 C 101.41 46.29 101.56 48.02 101.75 49.74 C 101.20 49.01 100.64 48.28 100.09 47.56 C 98.78 47.60 97.47 47.66 96.16 47.71 C 96.38 49.97 96.60 52.23 96.83 54.48 C 99.86 53.99 101.61 53.37 103.93 51.30 C 103.56 52.41 103.19 53.52 102.81 54.63 C 100.02 54.81 97.23 55.01 94.44 55.23 C 94.87 50.02 94.47 45.25 93.36 40.15 Z"/>
  <path id="path11904" fill="#ffffff" d="M 118.13 40.24 C 120.56 40.18 123.08 41.85 125.25 42.81 C 124.77 44.40 124.31 45.98 123.87 47.57 C 123.14 45.76 123.02 42.69 120.94 41.88 C 118.38 40.75 115.95 42.54 114.74 44.73 C 113.12 47.54 111.84 52.20 113.92 55.04 C 115.53 57.52 119.34 56.24 121.83 56.44 C 120.26 56.99 118.66 57.64 117.01 57.87 C 113.77 57.91 111.11 55.19 110.71 52.04 C 110.05 47.17 112.86 41.08 118.13 40.24 Z"/>
  <path id="path11906" fill="#ffffff" d="M 83.36 42.43 C 84.77 41.78 86.46 41.71 87.98 41.42 C 88.47 42.73 88.97 44.04 89.48 45.34 C 87.62 44.18 86.55 41.87 84.11 43.03 C 81.50 46.16 86.41 47.36 88.41 48.67 C 91.07 49.72 92.66 52.47 91.15 55.13 C 90.22 57.13 86.91 56.69 85.07 57.12 C 84.52 55.89 83.97 54.67 83.41 53.44 C 84.63 54.32 85.87 55.30 87.19 56.01 C 88.30 55.79 89.40 55.51 90.49 55.17 C 90.12 54.01 89.69 52.88 89.20 51.77 C 87.28 50.33 84.80 49.57 82.96 48.03 C 81.69 46.30 81.46 43.83 83.36 42.43 Z"/>
  <path id="path11908" fill="#ffffff" d="M 76.11 44.99 C 76.85 45.91 77.55 46.86 78.25 47.82 C 77.20 47.37 76.16 46.94 75.11 46.51 C 73.83 47.23 72.55 47.96 71.28 48.69 C 72.17 50.34 73.07 51.98 73.96 53.63 C 75.05 53.05 76.13 52.46 77.22 51.88 C 77.35 50.98 77.48 50.09 77.61 49.19 C 78.39 50.66 79.20 52.11 80.01 53.56 C 77.55 52.90 76.50 53.35 74.28 54.45 C 75.35 56.35 76.41 58.25 77.49 60.14 C 80.55 58.54 81.61 57.58 83.00 54.35 C 83.09 55.59 83.17 56.83 83.25 58.07 C 80.76 59.44 78.26 60.80 75.79 62.20 C 74.12 57.50 71.96 52.52 68.40 48.94 C 70.99 47.66 73.52 46.26 76.11 44.99 Z"/>
  <path id="path11910" fill="#ffffff" d="M 134.47 49.06 C 133.49 54.62 131.77 59.89 131.25 65.53 C 130.36 64.95 129.47 64.37 128.57 63.80 C 129.27 62.24 129.98 60.67 130.69 59.12 C 129.07 58.37 127.65 57.28 126.03 56.54 C 125.06 57.87 124.09 59.21 123.13 60.55 C 122.55 60.10 121.96 59.66 121.38 59.21 C 125.10 56.71 128.50 53.81 131.99 51.01 C 132.81 50.36 133.64 49.71 134.47 49.06 Z"/>
  <path id="path11912" fill="#ffffff" d="M 64.08 51.41 C 65.77 56.27 70.53 59.73 73.67 63.92 C 68.87 62.73 64.12 61.35 59.33 60.09 C 61.91 63.16 64.55 66.12 67.69 68.63 C 67.03 69.38 66.38 70.14 65.72 70.89 C 65.36 69.42 65.24 68.05 64.18 66.88 C 61.77 63.81 59.08 61.02 55.93 58.70 C 56.92 58.27 57.82 57.87 58.93 58.02 C 62.62 58.66 66.19 60.01 69.83 60.90 C 67.59 58.04 65.20 55.47 62.30 53.29 C 62.89 52.66 63.48 52.03 64.08 51.41 Z"/>
  <path id="path11914" fill="#a69331" d="M 12.04 51.16 C 13.13 52.69 13.92 54.04 13.98 55.97 C 14.38 61.99 13.43 68.14 12.99 74.15 C 11.37 68.66 9.72 62.75 9.87 56.99 C 9.90 54.72 10.78 52.99 12.04 51.16 Z"/>
  <path id="path11916" fill="#a69331" d="M 187.96 51.17 C 189.48 53.34 190.23 55.31 190.16 58.01 C 190.01 63.46 188.52 68.94 187.03 74.16 C 186.57 69.79 186.18 65.39 185.88 61.01 C 185.82 57.40 185.47 54.10 187.96 51.17 Z"/>
  <path id="path11918" fill="#9c9a9a" d="M 132.15 51.93 C 131.68 53.97 131.21 56.01 130.73 58.05 C 129.55 57.36 128.38 56.67 127.20 55.98 C 128.85 54.63 130.50 53.28 132.15 51.93 Z"/>
  <path id="path11920" fill="#a69331" d="M 39.49 54.63 C 37.47 62.73 31.61 67.93 24.61 71.88 C 28.25 64.56 32.71 59.23 39.49 54.63 Z"/>
  <path id="path11922" fill="#a69331" d="M 160.56 54.62 C 167.38 59.44 171.64 64.41 175.36 71.88 C 169.36 68.38 164.05 64.27 161.45 57.58 C 161.14 56.60 160.84 55.61 160.56 54.62 Z"/>
  <path id="path11924" fill="#ffffff" d="M 143.24 56.28 C 143.94 56.82 144.58 57.43 145.17 58.11 C 141.42 60.93 138.10 64.19 134.64 67.36 C 135.75 68.57 136.89 69.75 138.00 70.95 C 139.30 70.81 140.60 70.66 141.90 70.52 C 140.66 71.26 139.42 72.00 138.17 72.74 C 136.24 70.67 134.29 68.62 132.31 66.60 C 136.39 63.55 140.02 60.25 143.24 56.28 Z"/>
  <path id="path11926" fill="#a69331" d="M 18.47 58.27 C 22.54 64.36 21.64 70.72 20.40 77.53 C 19.18 83.18 18.61 88.47 18.67 94.26 C 16.53 90.75 14.95 87.20 14.95 83.00 C 14.94 75.81 15.31 68.71 17.48 61.80 C 17.80 60.62 18.13 59.45 18.47 58.27 Z"/>
  <path id="path11928" fill="#a69331" d="M 181.50 58.53 C 184.42 66.74 185.26 75.33 184.95 84.00 C 184.83 87.83 183.24 91.01 181.33 94.22 C 181.37 88.54 180.80 83.34 179.62 77.80 C 178.49 71.25 177.21 64.27 181.50 58.53 Z"/>
  <path id="path11930" fill="#ffffff" d="M 53.08 62.27 C 55.32 66.67 60.66 69.51 64.80 71.89 C 64.16 72.83 63.53 73.78 62.90 74.73 C 60.22 70.49 55.29 67.57 50.97 65.24 C 51.68 64.25 52.38 63.26 53.08 62.27 Z"/>
  <path id="path11932" fill="#a69331" d="M 5.58 67.69 C 10.96 73.87 13.02 81.29 14.05 89.25 C 11.42 85.10 8.53 81.02 6.34 76.62 C 4.91 73.84 5.47 70.69 5.58 67.69 Z"/>
  <path id="path11934" fill="#ffffff" d="M 152.50 68.65 C 154.97 69.52 155.85 72.88 156.93 75.01 C 155.65 75.86 154.37 76.71 153.11 77.58 C 154.39 74.82 156.38 72.26 152.79 70.20 C 148.68 69.08 142.62 72.53 142.31 77.02 C 142.57 79.38 145.47 80.61 147.13 82.04 C 143.79 80.95 141.12 80.01 140.80 76.00 C 141.37 70.83 147.63 66.99 152.50 68.65 Z"/>
  <path id="path11936" fill="#a69331" d="M 194.41 67.61 C 194.51 70.78 195.08 73.68 193.62 76.63 C 191.44 81.01 188.60 85.07 185.96 89.18 C 186.88 82.45 188.30 76.05 192.31 70.42 C 193.00 69.48 193.70 68.54 194.41 67.61 Z"/>
  <path id="path11938" fill="#ffffff" d="M 71.68 70.21 C 90.55 70.26 109.43 70.25 128.31 70.21 C 128.32 82.58 128.48 94.97 128.23 107.34 C 118.70 95.17 109.45 82.78 99.99 70.56 C 90.52 82.73 81.36 95.16 71.77 107.24 C 71.50 94.90 71.68 82.55 71.68 70.21 Z"/>
  <path id="path11940" fill="#ffffff" d="M 58.66 75.35 C 60.69 78.53 58.08 82.38 56.87 85.43 C 53.30 82.41 49.17 80.94 45.04 78.91 C 44.31 79.11 43.59 79.31 42.86 79.52 C 44.10 77.11 45.25 74.07 47.31 72.26 C 50.73 69.25 56.60 71.92 58.66 75.35 Z"/>
  <path id="path11942" fill="#000000" d="M 99.99 70.56 C 109.45 82.78 118.70 95.17 128.23 107.34 C 128.22 107.52 128.21 107.70 128.19 107.88 C 127.72 114.15 126.25 120.25 124.01 126.11 L 123.84 126.52 C 115.78 116.26 107.99 105.78 99.99 95.46 C 92.01 105.75 84.24 116.21 76.18 126.43 L 76.07 126.57 C 73.86 120.53 72.24 114.34 71.81 107.90 C 71.80 107.68 71.78 107.46 71.77 107.24 C 81.36 95.16 90.52 82.73 99.99 70.56 Z"/>
  <path id="path11944" fill="#9c9a9a" d="M 49.99 72.85 C 52.74 72.82 55.81 74.27 57.45 76.50 C 58.81 78.37 57.68 80.73 57.33 82.75 C 53.06 80.75 48.77 78.91 44.82 76.28 C 46.28 75.11 47.97 72.88 49.99 72.85 Z"/>
  <path id="path11946" fill="#a69331" d="M 27.28 76.63 C 28.05 84.37 27.16 94.33 21.90 100.50 C 20.94 93.40 22.18 85.93 25.48 79.57 C 26.05 78.57 26.65 77.59 27.28 76.63 Z"/>
  <path id="path11948" fill="#a69331" d="M 172.71 76.63 C 173.33 77.60 173.92 78.58 174.50 79.57 C 177.78 85.95 179.05 93.37 178.10 100.48 C 172.80 94.35 171.92 84.35 172.71 76.63 Z"/>
  <path id="path11950" fill="#ffffff" d="M 158.98 79.34 C 159.33 80.33 159.67 81.34 160.00 82.34 C 154.98 83.21 150.29 84.93 145.72 87.14 C 145.38 86.29 145.05 85.45 144.71 84.60 C 149.76 83.49 154.64 82.29 158.98 79.34 Z"/>
  <path id="path11952" fill="#ffffff" d="M 39.05 83.68 C 43.43 86.48 48.41 85.97 52.98 88.04 C 57.00 90.12 55.49 97.01 51.05 97.37 C 46.33 97.32 41.77 95.63 37.01 95.53 C 37.16 94.22 37.31 92.90 37.45 91.59 C 40.54 94.55 45.99 94.68 50.04 95.28 C 53.74 95.96 55.72 91.39 52.83 89.07 C 48.58 87.29 43.17 86.10 38.55 86.64 C 38.70 85.65 38.86 84.66 39.05 83.68 Z"/>
  <path id="path11954" fill="#ffffff" d="M 153.44 87.58 C 156.84 87.02 160.42 87.44 162.22 90.74 C 163.78 94.04 161.49 97.16 158.47 98.45 C 154.84 100.03 149.22 99.84 147.48 95.64 C 146.08 91.29 149.56 88.39 153.44 87.58 Z"/>
  <path id="path11956" fill="#9c9a9a" d="M 154.44 89.49 C 156.50 89.23 158.83 89.09 160.57 90.42 C 161.72 91.34 162.18 92.87 161.32 94.16 C 159.80 96.75 155.69 97.34 152.97 97.40 C 150.73 97.36 148.27 96.61 148.06 94.00 C 148.24 90.83 151.90 89.94 154.44 89.49 Z"/>
  <path id="path11958" fill="#a69331" d="M 9.25 90.50 C 10.26 90.91 11.23 91.39 12.15 91.94 C 16.90 95.46 19.26 100.81 20.41 106.47 C 21.46 112.02 22.57 117.50 24.27 122.90 C 20.73 119.38 17.40 116.01 15.64 111.22 C 13.11 104.45 11.69 97.32 9.25 90.50 Z"/>
  <path id="path11960" fill="#a69331" d="M 190.74 90.50 C 188.40 97.09 186.92 103.93 184.62 110.51 C 182.90 115.58 179.46 119.20 175.73 122.87 C 177.60 116.99 178.64 110.97 179.91 104.95 C 181.05 100.00 183.65 94.94 187.84 91.92 C 188.77 91.38 189.73 90.91 190.74 90.50 Z"/>
  <path id="path11962" fill="#a69331" d="M 1.07 90.83 C 2.15 91.47 3.23 92.13 4.30 92.81 C 9.85 97.26 11.28 104.03 13.43 110.46 C 10.27 107.92 7.14 105.53 5.08 101.94 C 3.19 98.55 2.19 94.52 1.07 90.83 Z"/>
  <path id="path11964" fill="#a69331" d="M 198.90 90.84 C 197.85 94.32 196.90 98.02 195.26 101.29 C 193.23 105.19 189.87 107.77 186.54 110.49 C 188.65 104.19 190.00 97.81 195.15 93.19 C 196.38 92.38 197.63 91.60 198.90 90.84 Z"/>
  <path id="path11966" fill="#ffffff" d="M 99.99 95.46 C 107.99 105.78 115.78 116.26 123.84 126.52 C 119.05 137.97 111.24 146.10 100.00 151.35 C 89.02 146.33 80.58 137.71 76.18 126.43 C 84.24 116.21 92.01 105.75 99.99 95.46 Z"/>
  <path id="path11968" fill="#a69331" d="M 25.66 103.93 C 29.97 111.38 29.24 118.96 28.41 127.18 C 26.91 124.24 25.54 121.31 24.96 118.03 C 24.17 113.05 22.87 108.58 25.66 103.93 Z"/>
  <path id="path11970" fill="#a69331" d="M 174.34 103.91 C 175.00 105.48 175.98 107.24 176.04 108.96 C 175.96 115.30 174.68 121.59 171.57 127.15 C 170.80 118.92 169.97 111.37 174.34 103.91 Z"/>
  <path id="path11972" fill="#a69331" d="M 0.00 106.43 C 3.22 107.27 6.32 107.91 9.08 109.88 C 12.14 112.09 14.57 115.52 16.79 118.53 C 12.51 116.88 8.05 115.24 4.13 112.82 C 2.01 111.47 1.09 109.44 0.00 107.27 L 0.00 106.43 Z"/>
  <path id="path11974" fill="#a69331" d="M 200.00 106.37 L 200.00 107.27 C 198.91 109.42 197.96 111.45 195.86 112.81 C 191.94 115.24 187.47 116.89 183.17 118.53 C 185.41 115.52 187.84 112.08 190.91 109.87 C 193.64 107.90 196.83 107.33 200.00 106.37 Z"/>
  <path id="path11976" fill="#a69331" d="M 12.57 122.58 C 16.13 123.42 19.43 124.20 22.05 126.94 C 28.52 133.53 30.77 142.57 37.25 149.29 C 32.75 146.69 27.85 144.63 24.62 140.41 C 19.90 134.89 17.02 128.30 12.57 122.58 Z"/>
  <path id="path11978" fill="#a69331" d="M 187.40 122.59 C 182.96 128.30 180.08 134.88 175.36 140.40 C 172.11 144.64 167.27 146.66 162.72 149.29 C 169.21 142.56 171.46 133.52 177.94 126.93 C 180.55 124.18 183.85 123.42 187.40 122.59 Z"/>
  <path id="path11980" fill="#a69331" d="M 195.16 124.20 C 194.00 126.98 192.87 130.48 190.36 132.30 C 186.77 134.98 182.91 137.31 179.12 139.70 C 182.53 134.04 185.81 127.96 192.22 125.26 C 193.19 124.90 194.17 124.54 195.16 124.20 Z"/>
  <path id="path11982" fill="#a69331" d="M 4.72 124.20 C 6.00 124.63 7.27 125.09 8.54 125.56 C 14.47 128.56 17.56 134.21 20.84 139.69 C 17.06 137.32 13.21 134.98 9.63 132.31 C 7.06 130.45 6.02 126.95 4.72 124.20 Z"/>
  <path id="path11984" fill="#9c9a9a" d="M 76.07 126.57 L 76.18 126.43 C 80.58 137.71 89.02 146.33 100.00 151.35 C 111.24 146.10 119.05 137.97 123.84 126.52 L 124.01 126.11 C 125.83 129.76 128.52 132.66 131.01 135.99 C 134.95 141.21 139.02 146.33 142.87 151.60 C 128.68 163.21 110.25 169.01 91.97 166.64 C 79.09 165.16 67.13 159.72 57.11 151.57 C 63.35 143.18 69.87 134.99 76.07 126.57 Z"/>
  <path id="path11986" fill="#a69331" d="M 32.94 130.65 C 38.65 136.02 42.14 143.98 42.94 151.71 C 39.92 148.84 37.35 145.42 35.08 141.93 C 32.93 138.84 33.21 134.27 32.94 130.65 Z"/>
  <path id="path11988" fill="#a69331" d="M 166.90 130.69 C 166.74 134.34 167.11 138.80 164.91 141.92 C 162.63 145.40 160.06 148.82 157.05 151.71 C 157.80 143.99 161.35 136.15 166.90 130.69 Z"/>
  <path id="path11990" fill="#a69331" d="M 8.92 140.90 C 16.98 140.44 24.27 143.85 30.15 149.15 C 25.92 148.41 21.60 147.78 17.47 146.60 C 14.02 145.55 11.45 143.37 8.92 140.90 Z"/>
  <path id="path11992" fill="#a69331" d="M 191.07 140.91 C 188.54 143.36 185.97 145.53 182.53 146.59 C 178.39 147.78 174.06 148.40 169.82 149.15 C 175.71 143.84 183.00 140.43 191.07 140.91 Z"/>
  <path id="path11994" fill="#a69331" d="M 26.71 152.46 C 30.43 152.40 33.83 152.12 37.33 153.63 C 42.37 155.50 45.62 159.01 49.62 162.36 C 52.84 165.11 56.54 166.45 60.41 167.98 C 56.74 167.72 52.72 167.86 49.19 166.75 C 40.36 163.41 34.16 157.83 26.71 152.46 Z"/>
  <path id="path11996" fill="#a69331" d="M 173.26 152.46 C 165.81 157.83 159.63 163.40 150.81 166.75 C 147.27 167.85 143.25 167.72 139.57 167.98 C 143.45 166.45 147.15 165.11 150.37 162.35 C 154.36 159.00 157.62 155.48 162.66 153.63 C 166.15 152.13 169.55 152.39 173.26 152.46 Z"/>
  <path id="path11998" fill="#a69331" d="M 47.48 153.44 C 48.50 153.73 49.52 154.03 50.53 154.34 C 53.43 155.35 56.16 156.39 58.28 158.70 C 60.92 161.59 63.01 165.08 65.07 168.40 C 61.25 166.04 57.35 163.81 53.58 161.37 C 50.54 159.40 49.21 156.48 47.48 153.44 Z"/>
  <path id="path12000" fill="#a69331" d="M 152.50 153.43 C 150.77 156.47 149.46 159.40 146.41 161.36 C 142.63 163.80 138.73 166.04 134.91 168.40 C 136.97 165.08 139.06 161.58 141.71 158.68 C 144.47 155.64 148.72 154.60 152.50 153.43 Z"/>
  <path id="path12002" fill="#a69331" d="M 19.00 155.98 C 22.64 156.06 26.08 156.10 29.47 157.58 C 33.68 159.46 37.57 162.43 41.08 165.37 C 32.66 163.59 24.92 163.05 19.00 155.98 Z"/>
  <path id="path12004" fill="#a69331" d="M 180.96 155.98 C 175.09 163.04 167.29 163.60 158.89 165.38 C 162.42 162.42 166.30 159.45 170.53 157.57 C 173.93 156.08 177.32 156.09 180.96 155.98 Z"/>
  <path id="path12006" fill="#a69331" d="M 54.03 169.94 C 49.05 170.69 44.02 171.63 38.98 171.85 C 35.56 172.01 32.64 170.80 29.57 169.46 C 37.63 167.01 46.02 167.62 54.03 169.94 Z"/>
  <path id="path12008" fill="#a69331" d="M 170.46 169.47 C 167.36 170.77 164.46 172.00 161.01 171.85 C 155.96 171.63 150.93 170.69 145.93 169.93 C 153.97 167.62 162.37 167.02 170.46 169.47 Z"/>
  <path id="path12010" fill="#a69331" d="M 70.75 169.63 C 79.26 168.50 87.15 171.63 93.74 176.82 C 86.47 176.76 79.56 175.91 73.47 171.61 C 72.56 170.96 71.65 170.30 70.75 169.63 Z"/>
  <path id="path12012" fill="#a69331" d="M 129.23 169.65 C 126.52 171.63 123.86 173.49 120.70 174.68 C 115.96 176.47 111.24 176.69 106.23 176.83 C 112.82 171.62 120.72 168.48 129.23 169.65 Z"/>
  <path id="path12014" fill="#a69331" d="M 68.76 174.28 C 74.59 177.03 80.76 178.07 87.04 179.21 C 81.41 180.88 75.86 181.94 70.00 180.74 C 63.12 179.40 56.57 176.81 49.68 175.42 C 55.37 171.20 62.52 171.42 68.76 174.28 Z"/>
  <path id="path12016" fill="#a69331" d="M 150.29 175.43 C 143.40 176.78 136.88 179.42 130.00 180.74 C 124.23 181.92 118.67 180.96 113.14 179.22 C 117.25 178.31 121.57 177.74 125.54 176.47 C 128.48 175.53 131.23 174.15 134.13 173.17 C 139.66 171.40 145.56 171.90 150.29 175.43 Z"/>
  <path id="path12018" fill="#a69331" d="M 41.46 178.76 C 50.41 177.92 58.35 179.37 66.68 182.55 C 61.45 182.74 56.19 183.05 50.95 182.97 C 47.36 182.97 44.36 180.58 41.46 178.76 Z"/>
  <path id="path12020" fill="#a69331" d="M 158.53 178.75 C 155.63 180.57 152.63 182.97 149.04 182.97 C 143.80 183.06 138.54 182.74 133.30 182.55 C 141.67 179.36 149.53 177.93 158.53 178.75 Z"/>
  <path id="path12022" fill="#a69331" d="M 96.03 179.88 C 91.68 183.25 87.47 186.70 83.35 190.32 C 78.58 194.29 73.75 196.21 67.51 196.58 C 72.85 192.10 76.25 187.33 82.21 184.18 C 85.49 182.23 89.07 181.39 92.76 180.62 C 93.85 180.37 94.94 180.13 96.03 179.88 Z"/>
  <path id="path12024" fill="#a69331" d="M 103.92 179.86 C 108.82 181.05 113.36 181.59 117.78 184.19 C 123.73 187.34 127.13 192.10 132.45 196.57 C 125.95 196.22 120.98 194.07 116.09 189.88 C 112.18 186.35 108.05 183.13 103.92 179.86 Z"/>
  <path id="path12026" fill="#a69331" d="M 98.12 181.60 C 95.85 188.80 92.64 195.42 86.15 199.72 C 86.58 196.77 86.79 193.18 88.75 190.79 C 91.49 187.40 94.82 184.43 98.12 181.60 Z"/>
  <path id="path12028" fill="#a69331" d="M 101.84 181.65 C 105.21 184.41 108.49 187.42 111.23 190.81 C 113.20 193.20 113.41 196.77 113.84 199.72 C 107.36 195.48 104.13 188.79 101.84 181.65 Z"/>
  <path id="path12030" fill="#a69331" d="M 80.26 183.66 C 72.94 188.15 63.94 190.03 55.42 189.72 C 62.79 183.82 71.20 183.54 80.26 183.66 Z"/>
  <path id="path12032" fill="#a69331" d="M 119.71 183.62 C 128.77 183.62 137.14 183.75 144.52 189.73 C 137.02 190.00 129.51 188.56 122.71 185.35 C 121.69 184.81 120.69 184.23 119.71 183.62 Z"/>
</svg>