<?xml version="1.0" encoding="UTF-8" standalone="no"?>
<svg xmlns:dc="http://purl.org/dc/elements/1.1/" xmlns:cc="http://creativecommons.org/ns#" xmlns:rdf="http://www.w3.org/1999/02/22-rdf-syntax-ns#" xmlns:svg="http://www.w3.org/2000/svg" xmlns="http://www.w3.org/2000/svg" xmlns:sodipodi="http://sodipodi.sourceforge.net/DTD/sodipodi-0.dtd" xmlns:inkscape="http://www.inkscape.org/namespaces/inkscape" inkscape:version="1.0 (4035a4f, 2020-05-01)" sodipodi:docname="18.svg" id="svg4996" height="200.0pt" width="200.0pt" viewBox="0 0 200 200" version="1.1">
  <metadata id="metadata5002">
    <rdf:RDF>
      <cc:Work rdf:about="">
        <dc:format>image/svg+xml</dc:format>
        <dc:type rdf:resource="http://purl.org/dc/dcmitype/StillImage"/>
      </cc:Work>
    </rdf:RDF>
  </metadata>
  <defs id="defs5000"/>
  <sodipodi:namedview inkscape:current-layer="svg4996" inkscape:cy="133.33333" inkscape:cx="133.33333" inkscape:zoom="1.75125" showgrid="false" id="namedview4998" inkscape:window-height="480" inkscape:window-width="640" inkscape:pageshadow="2" inkscape:pageopacity="0" guidetolerance="10" gridtolerance="10" objecttolerance="10" borderopacity="1" bordercolor="#666666" pagecolor="#ffffff"/>
  <path style="fill:#ffffff;fill-opacity:0" id="path4968" fill="#ffffff" d="M 0.00 0.00 L 200.00 0.00 L 200.00 200.00 L 0.00 200.00 L 0.00 0.00 Z"/>
  <path id="path4970" fill="#000000" d="M 99.68 6.99 C 118.78 38.08 137.82 69.21 156.97 100.27 C 137.89 131.41 118.73 162.51 99.66 193.66 C 80.48 162.56 61.39 131.40 42.29 100.25 C 61.50 69.23 80.41 37.96 99.68 6.99 Z"/>
  <path id="path4972" fill="#ffffff" d="M 99.69 23.72 C 115.36 49.21 130.93 74.77 146.70 100.21 C 131.10 125.83 115.29 151.34 99.67 176.96 C 83.89 151.43 68.24 125.82 52.54 100.24 C 68.36 74.81 83.81 49.10 99.69 23.72 Z"/>
  <path id="path4974" fill="#000000" d="M 99.66 30.10 C 114.06 53.37 128.42 77.00 142.81 100.27 C 128.43 123.72 114.02 147.15 99.65 170.61 C 85.20 147.18 70.82 123.70 56.43 100.23 C 70.95 76.96 85.10 53.34 99.66 30.10 Z"/>
  <path id="path4976" fill="#ffffff" d="M 88.89 52.71 C 96.06 52.57 103.23 52.72 110.40 52.65 C 113.22 57.16 115.97 61.72 118.79 66.23 C 106.01 66.23 93.24 66.24 80.47 66.23 C 83.30 61.74 85.95 57.13 88.89 52.71 Z"/>
  <path id="path4978" fill="#ffffff" d="M 80.29 70.35 C 88.18 70.11 96.10 70.34 104.00 70.25 C 107.92 70.31 111.61 69.82 115.24 71.65 C 121.83 74.91 125.21 82.97 123.75 90.04 C 123.16 93.78 121.49 97.05 119.52 100.24 C 122.73 105.60 125.01 111.12 123.69 117.51 C 122.35 124.55 116.40 130.38 109.01 130.38 C 99.41 130.45 89.80 130.40 80.20 130.39 C 80.30 110.41 80.13 90.30 80.29 70.35 Z"/>
  <path id="path4980" fill="#000000" d="M 82.96 72.99 C 89.97 72.77 96.99 72.96 104.00 72.87 C 107.55 72.90 111.36 72.63 114.56 74.45 C 119.91 77.48 122.26 84.14 120.97 90.01 C 120.22 93.89 118.28 97.09 116.06 100.29 C 119.57 105.19 122.28 110.82 120.99 117.00 C 119.83 122.72 115.10 127.63 109.02 127.60 C 100.31 127.68 91.60 127.62 82.89 127.61 C 82.94 109.40 82.79 91.19 82.96 72.99 Z"/>
  <path id="path4982" fill="#ffffff" d="M 105.78 83.38 C 108.53 83.57 110.59 86.34 110.50 89.00 C 110.41 91.92 107.98 94.35 105.06 94.39 C 100.90 94.53 96.73 94.37 92.57 94.43 C 92.58 90.72 92.58 87.01 92.56 83.31 C 96.96 83.36 101.39 83.13 105.78 83.38 Z"/>
  <path id="path4984" fill="#000000" d="M 106.43 85.55 C 109.34 86.93 109.20 91.30 106.04 92.27 C 102.24 92.70 98.35 92.39 94.53 92.44 C 94.53 90.07 94.52 87.70 94.50 85.32 C 98.42 85.39 102.56 84.91 106.43 85.55 Z"/>
  <path id="path4986" fill="#ffffff" d="M 63.76 93.63 C 68.31 93.49 72.88 93.61 77.43 93.59 C 77.42 98.09 77.43 102.60 77.41 107.10 C 72.87 107.10 68.34 107.09 63.81 107.13 C 62.35 104.85 60.94 102.55 59.55 100.23 C 60.96 98.03 62.28 95.78 63.76 93.63 Z"/>
  <path id="path4988" fill="#ffffff" d="M 125.81 93.59 C 129.02 93.58 132.24 93.58 135.45 93.54 C 136.89 95.75 138.29 98.00 139.69 100.25 C 138.24 102.37 137.07 105.38 135.11 107.01 C 132.04 107.25 128.93 107.08 125.86 107.09 C 124.89 104.79 123.87 102.54 122.75 100.30 C 123.88 98.10 124.89 95.88 125.81 93.59 Z"/>
  <path id="path4990" fill="#ffffff" d="M 92.57 106.23 C 96.71 106.28 100.86 106.13 105.00 106.26 C 108.07 106.17 110.69 108.96 110.48 112.01 C 110.43 114.86 107.90 117.31 105.05 117.33 C 100.90 117.49 96.73 117.32 92.57 117.36 C 92.58 113.65 92.58 109.94 92.57 106.23 Z"/>
  <path id="path4992" fill="#000000" d="M 94.53 108.20 C 98.47 108.36 102.64 107.83 106.51 108.50 C 109.38 110.10 109.15 114.10 106.01 115.23 C 102.21 115.60 98.34 115.32 94.52 115.37 C 94.53 112.98 94.53 110.59 94.53 108.20 Z"/>
  <path id="path4994" fill="#ffffff" d="M 118.76 134.47 C 115.95 138.89 113.24 143.38 110.53 147.87 C 103.31 147.99 96.09 147.85 88.87 147.95 C 86.02 143.49 83.35 138.92 80.49 134.46 C 93.25 134.42 106.01 134.40 118.76 134.47 Z"/>
</svg>