<?xml version="1.0" encoding="UTF-8" standalone="no"?>
<!DOCTYPE svg PUBLIC "-//W3C//DTD SVG 1.1//EN" "http://www.w3.org/Graphics/SVG/1.1/DTD/svg11.dtd">
<svg xmlns="http://www.w3.org/2000/svg" version="1.1" viewBox="0 0 200 200" width="200.0pt" height="200.0pt">
<path d="M 0.00 0.00 L 200.00 0.00 L 200.00 200.00 L 0.00 200.00 L 0.00 0.00 Z" fill-opacity="0"/>
<path d="M 176.66 4.81 C 173.48 10.59 171.27 16.73 168.68 22.76 L 165.14 22.23 C 165.43 23.17 165.72 24.11 166.03 25.05 C 163.05 27.05 160.28 26.22 156.94 26.40 C 153.83 28.15 150.70 29.86 147.58 31.58 C 145.81 31.02 143.90 30.20 142.04 30.13 C 140.01 30.65 138.06 32.28 136.03 32.51 C 134.11 31.95 132.29 31.02 130.44 30.27 C 130.42 31.55 130.56 32.80 130.84 34.00 C 134.31 36.50 138.28 38.18 141.65 40.86 C 147.29 34.40 153.69 29.26 162.60 28.66 C 160.60 33.15 157.57 37.05 155.48 41.51 C 153.45 45.85 151.37 50.24 149.95 54.82 C 150.66 55.85 151.35 56.89 152.05 57.92 C 150.09 61.69 148.69 65.68 147.58 69.77 C 158.43 71.63 166.37 82.05 164.88 93.03 C 164.11 99.62 160.28 104.68 155.07 108.53 C 160.09 111.23 165.24 113.64 170.72 115.28 C 170.74 115.78 170.75 116.28 170.77 116.78 C 153.41 111.47 137.07 101.52 129.16 84.52 C 126.13 85.65 123.08 86.72 120.07 87.89 C 118.18 88.54 116.44 89.38 114.44 88.65 C 112.17 87.94 110.63 85.28 109.76 83.21 C 107.58 77.69 107.15 71.05 109.30 65.45 C 110.54 62.17 113.45 59.70 117.00 59.45 C 119.35 59.67 121.23 60.54 123.57 59.52 C 127.80 57.87 132.27 54.96 134.63 51.00 C 134.09 50.32 133.55 49.67 132.98 49.02 C 132.36 51.45 131.53 53.13 129.99 55.10 C 129.39 54.88 128.78 54.67 128.18 54.46 C 130.60 51.75 130.31 48.83 130.43 45.48 C 131.08 45.37 131.74 45.26 132.39 45.14 C 136.18 50.16 140.52 54.80 144.63 59.56 C 142.94 68.50 138.97 76.41 132.33 82.71 C 136.40 81.24 139.76 79.87 142.22 76.20 C 146.80 70.83 147.67 64.72 150.09 58.36 C 145.81 52.98 143.31 46.28 139.06 40.95 C 136.24 38.39 132.44 36.96 129.34 34.73 C 129.27 33.16 129.19 31.60 129.10 30.03 C 124.93 26.64 126.02 21.15 121.74 17.70 C 119.72 21.94 119.77 26.37 120.36 30.93 C 122.75 31.30 124.88 30.70 127.25 30.55 C 124.88 31.58 123.70 33.28 122.23 35.27 C 121.06 35.79 119.75 36.01 118.52 36.34 C 118.02 41.59 118.24 47.53 120.70 52.31 C 121.79 54.49 123.61 55.34 125.81 56.09 C 125.83 56.38 125.85 56.68 125.86 56.97 C 123.24 56.87 121.10 56.80 119.36 54.62 C 115.93 50.38 115.70 43.41 115.89 38.22 C 113.33 40.79 110.16 43.62 108.61 46.94 C 107.50 49.91 108.92 53.72 110.44 56.35 C 108.76 61.34 106.60 66.10 105.21 71.20 C 101.76 83.15 99.90 96.74 102.61 109.01 C 103.67 114.34 106.12 118.86 108.14 123.83 C 105.51 126.49 102.81 129.05 100.04 131.55 C 95.44 129.20 90.98 126.67 86.62 123.89 C 86.48 119.57 86.72 115.37 87.25 111.08 C 91.29 108.84 95.41 106.77 99.72 105.11 C 98.87 97.64 99.37 90.18 100.53 82.78 C 86.45 81.25 72.87 87.26 64.77 98.86 C 55.32 111.92 56.05 130.51 65.75 143.23 C 74.50 155.04 89.81 160.76 104.16 157.43 C 111.18 155.81 117.47 152.12 122.56 147.06 L 123.57 148.24 C 115.71 155.99 105.12 160.57 93.99 159.95 C 77.18 159.42 62.23 147.13 57.75 131.04 C 53.60 116.83 58.14 101.00 69.11 91.11 C 71.85 88.37 75.55 86.96 77.94 83.98 C 82.14 79.02 86.38 74.22 89.65 68.57 C 91.72 64.94 94.48 61.44 96.00 57.58 C 100.56 51.85 103.61 44.89 108.13 39.12 C 111.77 34.94 118.78 36.39 122.97 32.89 C 121.71 32.23 120.36 31.64 119.16 30.86 C 118.87 29.00 118.84 27.07 118.82 25.18 C 118.83 24.20 118.84 23.22 118.86 22.23 C 103.09 24.05 87.83 27.55 73.45 34.45 C 60.21 40.76 48.65 50.25 40.34 62.37 C 30.33 76.56 25.59 93.71 25.79 111.00 C 26.10 124.77 28.93 138.68 34.52 151.29 C 32.71 152.57 30.89 153.82 29.04 155.03 C 19.62 136.59 17.38 114.28 20.49 94.00 C 23.56 74.34 32.56 55.76 46.56 41.56 C 60.70 27.14 78.77 17.81 98.02 12.15 C 123.69 4.66 150.09 3.52 176.66 4.81 Z" fill="#030000"/>
<path d="M 132.65 12.03 C 138.05 12.29 140.98 17.49 146.09 17.15 C 149.88 16.24 153.23 13.40 157.18 12.63 C 160.00 12.10 163.20 13.51 166.04 13.33 C 167.43 13.01 168.78 12.55 170.14 12.12 C 169.09 13.12 168.31 14.18 166.85 14.59 C 162.67 16.02 158.40 12.85 154.42 15.29 C 151.28 17.10 148.29 18.52 144.87 19.73 C 148.05 19.99 151.16 19.64 154.30 20.34 C 150.69 20.57 147.29 21.47 143.83 22.46 C 141.79 22.90 139.29 23.72 137.36 22.57 C 136.34 21.37 136.12 20.04 134.55 19.48 C 131.58 18.31 127.96 18.75 124.95 17.71 L 123.99 15.80 C 123.92 16.81 123.85 17.83 123.78 18.84 C 122.64 17.62 121.50 16.40 120.35 15.18 C 124.51 13.57 128.26 12.16 132.72 13.99 C 132.70 13.34 132.67 12.69 132.65 12.03 Z" fill="#ffffff"/>
<path d="M 133.68 13.08 C 135.02 13.61 136.27 14.41 137.42 15.46 C 136.22 15.77 134.77 15.14 133.58 14.91 C 133.29 14.16 133.33 13.55 133.68 13.08 Z" fill="#030000"/>
<path d="M 124.14 18.78 C 127.70 20.35 131.31 20.27 135.09 20.72 C 135.37 21.49 135.71 22.23 136.11 22.92 C 138.92 24.89 141.97 26.46 144.64 28.66 C 142.14 28.65 139.53 28.96 137.05 28.58 C 135.71 27.79 134.43 26.91 133.11 26.10 C 134.40 28.96 136.29 29.85 139.08 31.02 C 135.68 31.85 133.09 30.29 130.06 29.04 C 127.60 27.75 126.78 24.57 125.70 22.20 C 125.19 21.05 124.67 19.91 124.14 18.78 Z" fill="#ffffff"/>
<path d="M 157.16 22.84 C 157.28 23.51 157.40 24.18 157.52 24.84 C 154.28 25.17 152.02 28.43 149.01 28.80 C 146.40 28.15 144.09 26.21 141.74 24.94 C 142.69 24.88 143.64 24.81 144.58 24.73 C 146.00 25.86 147.12 27.04 149.01 27.23 C 151.01 27.18 152.95 25.42 154.63 24.50 C 152.26 24.36 149.89 24.21 147.52 24.14 L 146.65 24.14 C 150.37 22.76 153.20 22.28 157.16 22.84 Z" fill="#ffffff"/>
<path d="M 156.97 21.69 C 159.39 21.84 161.81 22.04 164.24 22.13 C 164.69 22.82 165.14 23.51 165.59 24.20 C 163.21 24.99 160.85 24.74 158.41 24.72 C 157.93 23.71 157.44 22.70 156.97 21.69 Z" fill="#ffffff"/>
<path d="M 146.65 24.14 L 147.52 24.14 C 149.89 24.21 152.26 24.36 154.63 24.50 C 152.95 25.42 151.01 27.18 149.01 27.23 C 147.12 27.04 146.00 25.86 144.58 24.73 L 146.65 24.14 Z" fill="#006f51"/>
<path d="M 118.82 25.18 C 118.84 27.07 118.87 29.00 119.16 30.86 C 120.36 31.64 121.71 32.23 122.97 32.89 C 118.78 36.39 111.77 34.94 108.13 39.12 C 103.61 44.89 100.56 51.85 96.00 57.58 C 94.71 57.83 93.42 58.11 92.14 58.41 L 91.49 58.61 C 78.42 62.94 66.54 69.97 57.64 80.61 C 48.64 91.30 43.30 104.99 43.13 119.00 C 42.95 126.92 44.47 134.89 48.21 141.92 C 44.41 144.55 40.59 147.16 36.81 149.83 C 27.73 129.44 25.31 104.77 32.63 83.49 C 38.38 66.67 49.91 51.49 65.00 42.00 C 80.97 31.93 100.24 27.26 118.82 25.18 Z" fill="#006f51"/>
<path d="M 166.03 25.05 L 167.70 25.93 C 164.67 36.18 163.80 46.59 163.85 57.24 C 159.24 56.30 154.56 55.74 149.95 54.82 C 151.37 50.24 153.45 45.85 155.48 41.51 C 157.57 37.05 160.60 33.15 162.60 28.66 C 153.69 29.26 147.29 34.40 141.65 40.86 C 138.28 38.18 134.31 36.50 130.84 34.00 C 130.56 32.80 130.42 31.55 130.44 30.27 C 132.29 31.02 134.11 31.95 136.03 32.51 C 138.06 32.28 140.01 30.65 142.04 30.13 C 143.90 30.20 145.81 31.02 147.58 31.58 C 150.70 29.86 153.83 28.15 156.94 26.40 C 160.28 26.22 163.05 27.05 166.03 25.05 Z" fill="#006f51"/>
<path d="M 160.91 30.09 C 159.91 31.58 158.93 33.06 157.72 34.39 C 152.47 36.64 149.21 43.52 145.47 47.63 C 144.43 45.83 143.41 44.03 142.41 42.20 C 147.24 36.17 153.04 31.35 160.91 30.09 Z" fill="#ffffff"/>
<path d="M 157.72 34.39 C 155.04 40.75 151.33 46.62 148.90 53.11 C 147.71 51.31 146.55 49.50 145.47 47.63 C 149.21 43.52 152.47 36.64 157.72 34.39 Z" fill="#9da2aa"/>
<path d="M 115.74 36.43 C 112.78 39.88 108.38 43.23 106.42 47.36 C 105.30 49.86 106.21 51.90 106.67 54.42 C 101.27 61.21 95.04 67.92 90.38 75.41 C 89.18 77.26 89.00 79.20 88.49 81.29 C 85.20 82.23 82.03 83.39 78.88 84.72 C 81.50 81.44 84.58 78.45 86.97 74.99 C 93.82 63.59 100.93 52.29 107.88 40.93 C 109.53 37.83 112.56 37.12 115.74 36.43 Z" fill="#ffffff"/>
<path d="M 135.94 52.23 C 137.64 54.21 139.37 56.15 141.23 57.98 C 138.18 63.58 135.60 69.38 130.61 73.65 C 128.43 75.59 125.85 75.89 125.22 79.13 C 126.20 73.35 125.06 67.38 122.23 62.26 C 128.19 60.78 132.64 57.36 135.94 52.23 Z" fill="#ffffff"/>
<path d="M 149.95 54.82 C 154.56 55.74 159.24 56.30 163.85 57.24 C 164.19 69.66 166.11 81.79 168.17 94.01 C 169.34 101.15 170.54 108.03 170.72 115.28 C 165.24 113.64 160.09 111.23 155.07 108.53 C 160.28 104.68 164.11 99.62 164.88 93.03 C 166.37 82.05 158.43 71.63 147.58 69.77 C 148.69 65.68 150.09 61.69 152.05 57.92 C 151.35 56.89 150.66 55.85 149.95 54.82 Z" fill="#ffdd00"/>
<path d="M 108.01 55.61 C 107.36 58.89 105.97 61.84 104.96 65.00 C 103.28 70.23 101.98 75.56 100.97 80.96 C 97.16 80.74 93.44 80.77 89.63 81.22 C 89.97 78.90 90.31 76.78 91.85 74.92 C 96.16 69.27 100.78 63.86 105.18 58.29 C 106.05 57.33 107.00 56.44 108.01 55.61 Z" fill="#ffdd00"/>
<path d="M 91.49 58.61 L 92.14 58.41 C 93.42 58.11 94.71 57.83 96.00 57.58 C 94.48 61.44 91.72 64.94 89.65 68.57 C 86.38 74.22 82.14 79.02 77.94 83.98 C 75.55 86.96 71.85 88.37 69.11 91.11 C 58.14 101.00 53.60 116.83 57.75 131.04 C 62.23 147.13 77.18 159.42 93.99 159.95 C 105.12 160.57 115.71 155.99 123.57 148.24 C 125.62 150.62 127.79 152.79 129.97 155.04 C 125.46 161.14 119.02 164.63 112.02 167.12 C 98.97 171.66 84.13 171.54 71.64 165.36 C 61.46 160.42 53.61 151.73 48.21 141.92 C 44.47 134.89 42.95 126.92 43.13 119.00 C 43.30 104.99 48.64 91.30 57.64 80.61 C 66.54 69.97 78.42 62.94 91.49 58.61 Z" fill="#ffdd00"/>
<path d="M 141.23 57.98 C 141.92 58.84 143.41 59.74 143.13 60.95 C 141.27 72.38 133.57 81.54 122.95 85.96 C 123.73 83.69 124.55 81.44 125.22 79.13 C 125.85 75.89 128.43 75.59 130.61 73.65 C 135.60 69.38 138.18 63.58 141.23 57.98 Z" fill="#9da2aa"/>
<path d="M 114.77 60.14 C 119.08 60.80 120.67 64.04 122.03 67.73 C 117.43 67.73 114.23 69.12 110.36 71.40 C 110.52 66.83 111.67 63.52 114.77 60.14 Z" fill="#9da2aa"/>
<path d="M 122.03 67.73 C 123.82 74.71 123.77 81.93 119.17 87.83 C 117.39 87.79 116.00 87.61 114.73 86.25 C 111.03 82.21 110.31 76.67 110.36 71.40 C 114.23 69.12 117.43 67.73 122.03 67.73 Z" fill="#ffffff"/>
<path d="M 145.20 74.00 C 148.70 74.05 151.50 75.60 154.45 77.27 C 152.35 80.00 149.96 82.47 147.70 85.07 C 146.66 84.78 145.63 84.49 144.60 84.21 C 144.72 81.17 143.12 76.44 145.20 74.00 Z" fill="#ffdd00"/>
<path d="M 142.51 78.25 C 142.60 80.22 142.69 82.20 142.79 84.18 C 141.82 84.69 140.86 85.20 139.89 85.71 C 138.68 84.57 137.47 83.42 136.26 82.26 C 137.57 81.60 138.87 80.95 140.14 80.22 C 140.94 79.57 141.73 78.91 142.51 78.25 Z" fill="#ffdd00"/>
<path d="M 155.89 78.71 C 158.59 81.72 159.89 84.70 160.67 88.64 C 157.18 88.78 153.69 89.00 150.20 89.09 C 149.77 88.14 149.34 87.20 148.90 86.25 C 151.23 83.74 153.46 81.12 155.89 78.71 Z" fill="#ffdd00"/>
<path d="M 131.12 83.58 C 135.10 82.13 136.17 84.94 138.92 86.99 C 138.33 88.13 137.67 89.22 136.93 90.26 C 137.73 91.95 138.63 93.59 139.45 95.27 C 138.46 94.50 137.47 93.71 136.49 92.93 C 136.56 92.01 136.63 91.10 136.69 90.18 C 134.02 90.01 133.71 88.48 132.54 86.50 C 132.06 85.53 131.58 84.56 131.12 83.58 Z" fill="#ffdd00"/>
<path d="M 75.78 90.50 C 78.86 90.13 81.56 91.06 84.44 91.95 C 84.08 96.22 83.53 100.43 82.49 104.59 C 77.89 107.01 73.07 109.39 68.03 110.70 C 67.04 106.79 66.37 102.96 66.47 98.91 C 69.16 95.85 72.18 92.47 75.78 90.50 Z" fill="#030000"/>
<path d="M 150.43 91.23 C 153.68 90.38 157.45 90.72 160.81 90.41 C 160.39 94.72 159.43 97.39 157.07 100.96 C 154.52 98.57 151.95 96.20 149.27 93.95 C 149.64 93.03 150.02 92.13 150.43 91.23 Z" fill="#ffdd00"/>
<path d="M 139.70 95.71 C 140.95 96.02 142.20 96.36 143.44 96.73 C 143.62 97.87 143.78 99.02 143.92 100.17 C 142.13 98.91 140.80 97.63 139.70 95.71 Z" fill="#ffdd00"/>
<path d="M 148.18 95.24 C 150.73 97.57 153.32 99.87 155.91 102.15 C 154.29 103.48 152.61 104.67 150.85 105.80 C 149.08 104.56 147.34 103.28 145.63 101.96 C 145.53 100.24 145.43 98.52 145.32 96.80 C 146.27 96.28 147.23 95.76 148.18 95.24 Z" fill="#ffdd00"/>
<path d="M 64.77 98.86 C 64.08 105.47 63.40 111.92 64.62 118.53 C 65.19 121.26 65.52 124.99 67.62 127.00 C 66.56 129.97 65.32 132.90 64.16 135.84 C 66.09 140.14 68.71 145.50 73.15 147.68 C 76.38 147.44 79.61 144.78 82.40 143.20 C 84.08 145.88 89.47 146.63 92.34 147.69 L 93.16 146.52 C 94.95 149.69 96.63 152.90 98.81 155.84 C 104.01 155.51 109.49 153.80 113.74 150.75 C 114.48 147.98 113.67 144.48 113.78 141.55 C 114.78 141.05 115.79 140.55 116.79 140.05 C 118.65 142.43 120.58 144.76 122.56 147.06 C 117.47 152.12 111.18 155.81 104.16 157.43 C 89.81 160.76 74.50 155.04 65.75 143.23 C 56.05 130.51 55.32 111.92 64.77 98.86 Z" fill="#9da2aa"/>
<path d="M 161.03 119.74 C 164.18 120.33 167.23 121.22 169.04 124.08 C 170.31 126.39 169.34 129.57 169.07 132.06 C 162.36 131.42 155.81 129.97 149.13 129.14 C 149.61 126.58 149.59 123.51 151.61 121.61 C 154.13 119.25 157.82 119.23 161.03 119.74 Z" fill="#030000"/>
<path d="M 69.03 123.19 C 72.48 125.47 76.05 127.41 79.66 129.41 C 81.69 133.30 82.24 138.17 83.68 142.35 L 82.40 143.20 C 79.61 144.78 76.38 147.44 73.15 147.68 C 68.71 145.50 66.09 140.14 64.16 135.84 C 65.32 132.90 66.56 129.97 67.62 127.00 C 68.08 125.72 68.55 124.45 69.03 123.19 Z" fill="#030000"/>
<path d="M 157.93 123.94 C 160.74 124.28 163.38 124.31 165.05 126.92 C 161.61 126.62 158.19 126.07 154.79 125.45 C 155.78 124.33 156.39 124.04 157.93 123.94 Z" fill="#ffffff"/>
<path d="M 159.83 135.25 C 162.70 135.14 165.57 134.97 168.44 134.82 C 167.94 136.34 167.44 137.86 166.95 139.38 C 164.45 139.28 161.95 139.23 159.44 139.29 C 161.63 140.05 163.85 140.74 166.06 141.41 C 165.69 142.84 165.29 144.26 164.91 145.69 C 158.44 143.68 152.07 141.38 145.65 139.24 C 146.67 136.85 147.28 133.14 149.48 131.56 C 153.13 129.47 158.17 131.50 159.83 135.25 Z" fill="#030000"/>
<path d="M 156.39 137.99 C 154.60 137.54 152.87 137.01 151.14 136.37 L 151.44 136.13 C 153.41 134.17 155.56 135.92 156.39 137.99 Z" fill="#ffffff"/>
<path d="M 101.22 137.09 C 105.38 137.36 109.46 138.55 113.66 138.82 C 113.70 139.73 113.75 140.64 113.78 141.55 C 113.67 144.48 114.48 147.98 113.74 150.75 C 109.49 153.80 104.01 155.51 98.81 155.84 C 96.63 152.90 94.95 149.69 93.16 146.52 C 95.57 143.22 98.21 139.85 101.22 137.09 Z" fill="#030000"/>
<path d="M 144.29 142.15 C 150.79 144.13 157.15 146.67 163.59 148.87 C 162.77 150.23 161.96 151.58 161.13 152.93 C 160.41 152.59 159.68 152.26 158.96 151.92 C 158.46 152.66 157.97 153.39 157.48 154.12 C 158.22 154.70 158.95 155.28 159.69 155.86 C 158.89 157.20 158.10 158.53 157.30 159.86 C 152.16 155.41 146.91 151.07 141.65 146.75 C 142.49 145.20 143.31 143.60 144.29 142.15 Z" fill="#030000"/>
<path d="M 148.23 147.33 C 150.46 148.30 152.69 149.29 154.88 150.34 L 154.07 151.38 C 151.94 150.45 150.12 148.67 148.23 147.33 Z" fill="#ffffff"/>
<path d="M 48.15 147.76 C 49.76 149.77 51.25 151.91 52.76 154.00 C 51.44 154.95 50.12 155.90 48.80 156.86 C 48.14 156.00 47.48 155.13 46.82 154.27 C 46.10 154.81 45.38 155.35 44.67 155.89 C 45.30 156.66 45.93 157.43 46.57 158.19 C 45.21 159.22 43.82 160.21 42.37 161.11 C 41.85 160.31 41.33 159.51 40.81 158.71 C 38.75 160.15 36.72 161.63 34.73 163.17 C 33.73 162.00 32.80 160.78 31.96 159.48 C 37.43 155.68 42.72 151.62 48.15 147.76 Z" fill="#030000"/>
<path d="M 140.85 148.30 C 142.16 149.36 143.48 150.42 144.81 151.47 C 144.31 152.09 143.80 152.70 143.30 153.31 C 147.22 156.38 151.15 159.45 155.16 162.39 C 154.34 163.64 153.49 164.87 152.63 166.09 C 148.57 163.19 144.67 160.06 140.72 157.00 C 140.19 157.59 139.65 158.17 139.11 158.76 C 137.83 157.75 136.53 156.77 135.22 155.79 C 136.97 153.19 138.91 150.77 140.85 148.30 Z" fill="#030000"/>
<path d="M 50.35 157.39 C 52.65 156.32 55.11 156.02 57.04 157.95 C 59.15 159.99 58.51 162.88 57.31 165.21 C 55.30 168.90 51.91 172.36 47.87 173.74 C 45.99 174.47 43.77 174.13 42.34 172.66 C 40.53 171.00 40.93 167.88 41.87 165.87 C 43.51 162.40 46.89 159.03 50.35 157.39 Z" fill="#030000"/>
<path d="M 134.85 156.14 C 135.93 157.39 137.03 158.64 138.12 159.88 C 137.57 160.46 137.01 161.05 136.45 161.63 C 139.89 165.27 143.38 168.88 146.60 172.72 C 145.50 173.67 144.41 174.62 143.32 175.57 C 139.96 171.92 136.52 168.34 133.18 164.66 C 132.56 165.14 131.94 165.62 131.32 166.10 C 130.17 164.85 129.07 163.57 128.01 162.24 C 130.35 160.27 132.58 158.19 134.85 156.14 Z" fill="#030000"/>
<path d="M 53.68 161.29 C 53.41 164.76 49.56 168.15 46.53 169.44 L 45.67 168.15 C 47.31 165.38 50.21 161.55 53.68 161.29 Z" fill="#ffffff"/>
<path d="M 60.82 162.03 C 62.96 163.62 66.45 165.28 67.38 167.93 C 68.11 171.82 65.17 176.13 61.15 176.72 C 60.42 179.52 59.81 182.35 59.11 185.17 C 57.76 184.26 56.43 183.34 55.10 182.41 C 55.95 179.98 56.79 177.54 57.63 175.11 C 56.13 177.13 54.70 179.20 53.30 181.29 C 52.07 180.46 50.84 179.63 49.61 178.80 C 52.79 173.95 56.14 169.22 59.29 164.35 C 59.80 163.58 60.31 162.81 60.82 162.03 Z" fill="#030000"/>
<path d="M 127.32 162.77 C 131.31 168.17 135.12 173.70 139.07 179.14 C 137.81 179.99 136.54 180.83 135.26 181.67 C 131.49 176.15 127.52 170.77 123.71 165.28 C 124.91 164.44 126.11 163.60 127.32 162.77 Z" fill="#030000"/>
<path d="M 122.91 166.60 C 123.83 168.41 124.79 170.20 125.82 171.96 C 124.39 171.60 123.01 171.55 121.67 171.81 C 122.37 173.83 123.79 173.86 125.52 174.61 C 129.45 175.70 131.54 181.27 129.76 184.75 C 128.62 186.69 126.81 186.71 124.88 187.42 C 123.78 185.47 122.74 183.50 121.66 181.54 C 123.26 182.06 126.65 183.49 125.61 180.29 C 123.45 179.00 120.75 178.75 119.25 176.70 C 117.58 174.57 116.55 170.65 118.38 168.35 C 119.58 166.82 121.14 166.87 122.91 166.60 Z" fill="#030000"/>
<path d="M 62.55 168.16 C 63.33 170.77 61.88 172.49 59.27 172.61 C 60.18 170.97 61.07 169.37 62.55 168.16 Z" fill="#ffffff"/>
<path d="M 69.65 168.23 C 72.54 168.70 75.47 170.57 78.24 171.60 C 77.58 173.08 77.01 174.70 76.11 176.05 L 73.95 175.42 C 72.02 179.99 70.09 184.56 68.10 189.11 C 66.72 188.51 65.34 187.92 63.96 187.32 C 65.88 182.76 68.08 178.25 69.75 173.60 L 67.83 172.40 C 68.40 170.99 69.01 169.60 69.65 168.23 Z" fill="#030000"/>
<path d="M 78.74 171.75 C 80.21 172.11 81.67 172.47 83.14 172.83 C 82.13 177.82 80.79 182.82 80.30 187.89 L 81.92 187.56 C 83.25 182.90 84.02 178.04 84.93 173.28 C 86.42 173.47 87.91 173.68 89.39 173.89 C 88.49 178.55 87.62 183.23 86.55 187.85 C 86.09 189.78 84.93 192.16 82.89 192.79 C 79.54 194.04 75.90 191.65 75.76 188.03 C 76.13 182.57 77.89 177.17 78.74 171.75 Z" fill="#030000"/>
<path d="M 104.36 173.04 C 106.07 172.69 107.78 172.34 109.48 171.98 C 112.07 178.24 115.00 184.43 117.18 190.84 C 115.77 191.15 114.36 191.46 112.96 191.76 C 112.56 189.73 111.39 189.08 109.44 189.80 C 109.48 190.73 109.52 191.66 109.57 192.59 C 108.04 192.91 106.51 193.24 104.97 193.55 C 104.93 186.96 104.50 180.38 104.37 173.79 L 104.36 173.04 Z" fill="#030000"/>
<path d="M 97.55 173.87 C 98.95 173.83 100.35 173.79 101.75 173.76 C 102.26 180.41 102.14 187.08 102.47 193.75 C 101.10 193.85 99.72 193.95 98.35 194.06 C 97.01 190.50 96.03 186.84 94.74 183.26 C 95.30 186.87 95.36 190.50 95.39 194.15 C 94.01 194.17 92.64 194.19 91.26 194.22 C 90.73 187.56 90.80 180.87 90.56 174.20 C 91.93 174.13 93.30 174.07 94.66 174.01 C 95.94 177.60 97.05 181.25 98.28 184.86 C 97.85 181.19 97.59 177.56 97.55 173.87 Z" fill="#030000"/>
<path d="M 108.46 179.43 L 108.61 179.80 C 109.34 181.60 109.92 183.48 110.50 185.34 C 109.94 185.34 109.38 185.34 108.82 185.35 C 108.63 183.52 108.48 181.68 108.47 179.85 L 108.46 179.43 Z" fill="#ffffff"/>
</svg>