<?xml version="1.0" encoding="UTF-8"?>
<!DOCTYPE svg PUBLIC "-//W3C//DTD SVG 1.1//EN" "http://www.w3.org/Graphics/SVG/1.1/DTD/svg11.dtd">
<!-- Creator: CorelDRAW X5 -->
<svg xmlns="http://www.w3.org/2000/svg" xml:space="preserve" width="54.1866mm" height="83.82mm" style="shape-rendering:geometricPrecision; text-rendering:geometricPrecision; image-rendering:optimizeQuality; fill-rule:evenodd; clip-rule:evenodd"
viewBox="0 0 5419 8382"
 xmlns:xlink="http://www.w3.org/1999/xlink"
 xmlns:svg="http://www.w3.org/2000/svg">
 <defs>
  <style type="text/css">
   <![CDATA[
    .fil2 {fill:black;fill-rule:nonzero}
    .fil7 {fill:#0044A7;fill-rule:nonzero}
    .fil5 {fill:#CC1323;fill-rule:nonzero}
    .fil3 {fill:#D69300;fill-rule:nonzero}
    .fil6 {fill:#D8B80A;fill-rule:nonzero}
    .fil1 {fill:#E6E6E8;fill-rule:nonzero}
    .fil8 {fill:#FDE607;fill-rule:nonzero}
    .fil0 {fill:#FFDF00;fill-rule:nonzero}
    .fil4 {fill:#FFF7D6;fill-rule:nonzero}
   ]]>
  </style>
 </defs>
 <g id="Layer_x0020_1">
  <metadata id="CorelCorpID_0Corel-Layer"/>
 </g>
 <g id="Layer_x0020_1_0">
  <metadata id="CorelCorpID_1Corel-Layer"/>
  <g id="Cádiz_x0020_CF_x0020_Logo.cdr">
   <path class="fil0" d="M1815 4031l-3 -39c-8,16 -10,31 3,39z"/>
   <path class="fil0" d="M1836 4155c-5,-16 -23,-18 -39,-21 -13,16 16,13 13,29 10,0 23,18 31,0l-5 -8z"/>
   <polygon class="fil0" points="1839,4199 1826,4218 1831,4218 "/>
   <path class="fil0" d="M1930 4278c-10,-26 3,-68 -39,-76 24,31 18,52 39,76z"/>
   <path class="fil0" d="M1867 4249l-8 0 0 24c10,-5 5,-16 8,-24z"/>
   <path class="fil0" d="M1901 4351c-13,-10 0,-31 -16,-37 3,13 5,32 16,37z"/>
   <path class="fil0" d="M1969 4359c-3,-8 -10,-5 -18,-5 -5,13 8,18 18,16l0 -10z"/>
   <path class="fil0" d="M2268 3942c3,-21 -23,-34 -39,-45 -21,24 -55,32 -70,47 -31,8 -36,45 -55,66 -34,31 -76,-8 -102,29 -8,3 -23,8 -31,-3 -10,-13 8,-16 0,-31 34,-32 63,-26 104,-26 0,-16 21,-42 26,-58l-55 39 -52 -3c-16,5 -8,21 -18,31 -13,16 -29,-5 -39,-10 5,-26 21,-45 42,-63 -16,3 -23,26 -34,18 -13,29 -34,50 -21,79 -8,24 34,39 39,60 -39,8 -76,3 -112,-11l23 21c-44,29 21,45 3,79 16,-8 29,5 39,3 52,24 55,97 55,150 21,24 44,-10 60,-24 8,8 21,18 26,29 -3,0 -5,8 -10,5l0 16c13,3 26,5 42,10 26,-24 16,-55 8,-84 5,-24 0,-76 44,-84 37,-18 10,-58 23,-92 -13,-8 -16,-18 -13,-32 8,-8 16,-16 29,-13 26,-8 13,-31 8,-50 -31,11 -36,47 -49,66 -8,-11 -29,3 -31,-18 8,-29 18,-63 47,-79 21,3 47,-16 63,0l18 18c-21,73 55,79 86,131l-10 8c-34,24 -34,71 -68,97 -31,-26 -3,-55 -29,-84 -23,0 -8,24 -13,31 -16,24 13,32 29,45 0,8 -3,16 -8,21 -13,21 -36,0 -52,-5l13 53c5,5 21,3 18,16 -13,21 -31,39 -49,13 -10,21 -8,47 -13,66 36,34 -26,39 -34,73 36,31 73,58 102,94 21,-13 10,-37 13,-55 -8,-34 -68,-94 -13,-118 18,5 31,29 44,34l0 -5c18,-45 -21,-87 3,-121 21,-16 39,13 42,31 10,13 -8,34 16,34 5,-21 -16,-37 5,-55 -18,-16 8,-29 10,-52 10,-11 31,0 36,11 0,3 -3,5 -5,3l5 8c-21,50 3,84 5,131 -21,21 -47,-8 -68,-3 -3,39 13,81 26,118 -21,21 -36,-24 -57,-18 10,16 5,37 16,50 29,55 29,163 99,163 8,13 42,8 23,34 -8,10 -34,18 -36,5 -31,-3 -3,39 -31,45l21 21 -23 37c39,3 89,-26 112,-63 -5,-39 -16,-73 -16,-115 -13,-10 -29,-21 -34,-39 0,-11 -3,-32 10,-39 -10,-39 -49,-66 -52,-105 21,-8 44,21 65,24 -36,-76 13,-131 16,-210 -23,-34 8,-68 -18,-102 0,-13 18,-21 31,-16 13,24 23,68 29,94 3,-18 5,-39 21,-52 5,3 8,11 13,10 5,-8 13,0 18,5 5,16 -10,21 -8,34 -39,55 -68,105 -68,176 44,-5 52,-58 91,-73 -21,-60 8,-131 -23,-186 -10,-29 -8,-45 -5,-71 -13,-42 0,-87 0,-136 -52,-39 -109,-8 -156,-5 26,13 18,39 26,58 -3,16 -21,42 3,52 23,26 -13,39 -29,42 -10,-11 -3,-29 -18,-34 -10,-21 -8,-42 3,-63 -13,-45 -62,-47 -78,-81z"/>
   <path class="fil0" d="M3243 3447c-18,-8 -49,-11 -63,0 -60,-3 -112,26 -146,73 8,8 -3,13 -5,21 29,-21 70,47 78,-8 23,-8 29,24 47,24 3,24 21,47 -3,66 -31,-18 -34,26 -65,10 -26,34 -55,-29 -78,5 -8,8 -3,18 5,24l5 -8 21 21c-18,8 -5,29 -29,24 -23,-5 -49,-21 -49,-50 -44,45 -13,110 0,147l39 -34c26,-13 57,-3 76,3 -5,60 60,79 81,126 8,24 13,50 29,73 21,0 52,3 73,-13 21,-39 -39,-31 -44,-60 10,-47 49,-3 70,0 44,-11 8,-45 13,-71 13,-26 -10,-50 -3,-76 18,-16 44,-26 68,-34 -44,-60 16,-108 42,-152 3,-16 -26,-13 -13,-29 -36,-21 -57,-55 -107,-66 0,10 -23,16 -5,26 16,24 37,55 18,81 -13,21 -29,42 -52,50 -26,-8 -52,21 -70,-3 16,-13 23,-31 29,-50 -3,-31 -42,-18 -63,-26 -8,-29 10,-53 23,-79 10,-3 26,5 36,16 -25,45 48,35 52,80 -1,-31 -10,-50 -39,-67l29 -45 0 0z"/>
   <path class="fil0" d="M3425 3646c10,-11 16,-31 5,-42 -8,24 -47,29 -39,55l34 -13z"/>
   <path class="fil0" d="M3430 3690c-16,18 -26,-13 -36,-16 21,11 0,29 21,37 8,-10 23,-5 21,-21l-5 0z"/>
   <path class="fil0" d="M3347 3774l0 -13 -5 0 -3 18c5,5 0,13 3,16l0 -17c2,-2 3,-4 5,-4z"/>
   <path class="fil0" d="M3409 3790c-8,0 -23,0 -18,10 8,0 21,-3 18,-10z"/>
   <path class="fil0" d="M3034 3803c-34,-18 -42,60 -70,16 3,29 -8,81 8,113 16,-16 26,-37 39,-52 78,3 -8,60 8,89l21 -39c8,0 26,-8 34,8 -18,55 52,115 -13,157 -10,18 8,34 -13,45 -8,3 -21,8 -23,-3 -50,-42 49,-68 10,-123 -5,37 -42,29 -55,58 -13,18 -16,39 -13,55 -36,71 -57,139 -57,212 26,32 16,76 44,102 16,5 29,26 44,21 16,-32 -16,-16 -26,-32 -23,-26 -26,-52 -23,-84 31,-34 -39,-50 -13,-81 26,-26 47,18 65,34 -5,32 -21,55 -5,84 18,-24 -21,-66 23,-73 47,-5 16,52 21,76 13,50 73,52 99,94 42,26 29,79 63,113l5 -13c8,5 31,0 39,10 -16,47 -42,105 -8,149 16,-13 0,-31 10,-42 18,0 44,-8 47,21 39,26 8,-34 31,-50 13,-5 10,24 26,8 31,-37 -21,-55 -36,-84 -44,-76 -83,-165 -156,-226l5 -11c-34,-58 5,-118 16,-170 65,-29 0,55 65,47 -10,26 -26,50 -50,66 3,18 -13,45 10,60 44,-5 70,-8 104,-31 16,-21 21,-52 18,-76 10,-13 0,-50 31,-47 26,5 13,26 18,42 42,-18 36,39 44,60l26 -50c-18,-26 -16,-58 -8,-87 16,3 50,-3 42,16 13,-21 21,-52 44,-76 29,-21 81,-24 107,-21 5,-24 -31,-29 -44,-45l0 10c-31,21 -70,-3 -96,31 -10,-8 -21,-21 -26,-34 -13,50 -76,66 -99,110l-29 -29c16,-8 21,-24 21,-39 -13,-18 0,-55 -18,-79 5,-10 10,-42 34,-32 8,5 10,13 13,21l16 -13c0,-21 -13,-45 0,-63 13,-24 34,0 42,13l-10 -47c-23,-16 -3,-76 -50,-47l5 55c-13,42 -34,89 -76,105 26,16 -5,29 -16,39 -42,26 -86,0 -120,-24 -65,-34 -34,-110 -86,-144 -13,16 -39,13 -52,-5 5,-3 5,-8 5,-16 -13,-3 -23,3 -34,-16 0,-16 10,-31 21,-39z"/>
   <polygon class="fil1" points="3204,2820 3204,2825 3214,2825 "/>
   <path class="fil1" d="M3300 2825c-5,-8 -16,-3 -18,3 8,-3 18,3 18,-3z"/>
   <polygon class="fil1" points="3136,2825 3125,2825 3136,2830 "/>
   <path class="fil1" d="M3529 2783l-26 -31c-151,-3 -328,3 -469,-3 -37,5 -52,42 -50,76 8,8 21,29 34,31 29,8 39,-13 52,-31 0,-13 -13,-24 -26,-21l13 13c-10,11 -21,24 -31,29 -13,-13 -29,-34 -23,-52 16,-13 23,-29 42,-31 21,8 44,3 60,24l315 -3c10,-16 29,-24 44,-26 16,10 42,5 49,29 -3,16 8,47 -18,55 -16,-3 -39,-18 -29,-39 -3,0 -8,0 -10,3 -16,16 0,37 16,45 18,-3 39,8 55,-8 -3,-18 16,-37 3,-58z"/>
   <path class="fil1" d="M2232 2830c-3,-5 -13,-5 -13,3 5,0 13,3 13,-3z"/>
   <path class="fil1" d="M2313 2830c-3,-8 -8,0 -13,0l8 5 5 -5z"/>
   <path class="fil1" d="M2073 2830l-16 0c-5,10 16,5 16,0z"/>
   <path class="fil1" d="M2154 2833c-5,0 -13,-5 -16,0l16 0z"/>
   <path class="fil1" d="M3375 3237c16,18 31,52 57,65 -2,1 -4,2 -7,3 3,3 5,0 7,-3 17,-10 1,-30 6,-44 -13,-37 16,-79 -5,-102 -133,66 -313,92 -466,87 -3,13 3,29 10,42 13,-5 29,-3 39,-13 26,3 8,26 23,34l5 -5c5,-8 -3,-16 -10,-24 8,-3 13,-16 26,-11 23,8 47,-10 68,-5 -13,21 -3,45 5,63l26 -8 5 21c-5,18 -23,16 -39,18 -70,13 -8,-39 -39,-71 -31,21 -3,81 -52,84l-42 -71 -10 0c3,34 -21,55 -16,89 104,3 221,-29 318,-39 8,-10 10,5 16,3 23,-21 62,-8 89,-26l0 -5 26 -3c0,-3 8,-8 0,-10 -18,5 -49,10 -42,-16 -5,3 -10,-3 -13,3 5,8 10,16 0,26 -42,0 -78,10 -112,13 5,-24 3,-58 -10,-79 -13,5 5,13 -5,18 -8,10 -13,0 -21,-3 -3,21 -3,45 16,66 -16,5 -39,16 -55,3 13,-18 3,-45 -3,-63 -5,3 -10,11 -16,10 -5,-3 -18,-10 -13,-18 29,-31 94,-18 138,-37 8,-3 13,16 18,0l8 8c8,16 8,29 3,47 52,32 13,-47 47,-73 13,0 18,16 21,26l0 0z"/>
   <path class="fil1" d="M2469 2809c-8,-16 -5,-39 -29,-47 -159,-13 -320,-3 -500,3l-10 18c-5,24 -26,58 5,76 23,5 44,5 60,-8 5,-11 16,-29 3,-39 -5,0 -16,-3 -16,3l5 13c-10,5 -10,26 -26,21 -10,-5 -13,-16 -21,-24 5,-24 3,-47 31,-55 21,18 47,-8 57,24 63,8 154,-5 221,0 44,-8 102,18 135,-24 16,0 42,0 55,13 13,26 5,50 -18,66 -13,-10 -29,-29 -21,-39 -23,-3 0,18 -16,24 8,24 29,37 52,26 29,0 21,-34 31,-50z"/>
   <path class="fil1" d="M2261 3245c-78,-11 -162,-37 -229,-63 -8,52 3,115 -8,170 8,-5 26,0 39,3 83,21 188,45 274,47l3 -24c13,-45 78,-50 60,-105l-68 -8c-21,-3 -55,-8 -70,-21z"/>
   <path class="fil1" d="M3403 3362c-62,13 -130,32 -187,37l52 8c44,21 73,37 117,63l17 18 0 -125z"/>
   <path class="fil1" d="M2050 3599l0 43 0 23 0 93 0 17c6,30 55,-5 73,25 21,3 42,10 60,-10 29,-81 42,-144 68,-226 23,-45 83,-63 73,-123 -96,-8 -180,-24 -274,-47 2,28 1,55 0,81l0 123z"/>
   <path class="fil1" d="M2352 3929l0 -215c-52,42 -68,105 -86,157 37,13 31,84 86,58z"/>
   <path class="fil1" d="M2050 2875l0 269c37,31 95,23 125,53l8 -5c61,8 98,36 158,34l0 -358c-8,-4 -19,11 -30,6 -39,-42 -83,26 -115,-10 -18,-8 -29,16 -47,13 -33,-28 -64,1 -99,-2z"/>
   <path class="fil1" d="M3403 3122l0 -257c-19,8 -38,-1 -56,-6 -23,-8 -50,18 -73,3 -26,-24 -42,21 -68,5 -30,-36 -66,16 -94,1l0 329c15,12 27,-2 40,-2 94,-21 168,-31 252,-73l0 0z"/>
   <path class="fil1" d="M3044 2691c3,6 7,13 11,19l349 -3c20,-11 66,15 73,-16l-433 0z"/>
   <path class="fil1" d="M2409 2691l-435 0c-2,9 11,20 13,27 125,8 247,-5 373,0 21,-2 47,-3 49,-27z"/>
   <path class="fil2" d="M2027 4148c0,0 7,-7 17,-14 10,-7 23,-16 38,-20l7 25c-14,4 -32,17 -43,28l-18 -19zm1119 -390l0 0c0,0 9,-2 22,-3 12,-1 28,-1 43,4l-8 25c-14,-5 -37,-3 -51,0l-5 -26zm-989 -502l0 0c26,11 63,11 91,21 -13,8 -10,24 -5,31l3 5 18 -21c-5,0 -3,-5 -3,-8 8,-8 29,0 39,5 -29,18 -42,58 -70,79 -23,-29 -3,-108 -49,-94l-10 58 29 0c-5,8 0,21 -13,21l-60 -15c10,1 11,-23 23,-37 -13,-13 10,-31 -10,-42 -8,3 -13,16 -5,24 -13,24 -47,3 -47,34l10 13c-10,13 -31,3 -42,-5l-8 -5c26,-5 13,-34 26,-47l-10 -31c18,-21 37,13 60,5 3,18 24,8 34,10zm198 52l0 0c-26,21 3,47 -18,71 -21,3 -39,10 -55,-8 -10,-26 36,-26 16,-50 -5,-42 47,-26 57,-13zm-421 -633l0 0 496 0 0 12 21 0c-21,34 19,42 41,67 8,31 21,63 10,97 -26,46 -71,47 -112,45l0 311 0 29 10 -3c3,-16 10,-42 18,-45 26,-60 99,-66 146,-79 47,-21 29,-84 29,-113 -36,-45 -21,-87 -31,-134 3,-50 55,-71 91,-97l5 5c34,-26 70,0 102,-3 55,26 65,73 81,118 36,87 -104,142 -60,223 23,-3 65,13 86,24 42,3 57,47 83,71 23,5 55,-10 65,5 15,-4 31,-2 45,-7l0 -309c-36,10 -80,-3 -105,-37 -21,-45 0,-84 21,-121 8,-16 37,-5 31,-32 -2,-8 -5,-13 -8,-17l16 0 0 -12 496 0 0 12 7 0c-5,7 -8,17 -7,28 21,-3 34,26 50,37 5,37 18,63 0,100 -23,42 -68,39 -107,39l0 163c5,3 8,-3 13,-3 16,8 34,24 34,47 -23,31 -13,58 -23,92 -13,50 26,118 -23,155l0 207c10,29 23,60 23,87 31,79 -65,165 -5,236 13,21 0,52 23,63l21 -18 8 8c8,3 8,-8 16,-8 26,5 55,-26 78,-37 18,3 16,37 10,55 13,18 34,29 55,39 -10,29 -49,68 -3,87 2,4 12,86 -37,68 -39,-3 -78,-10 -104,24 -13,50 -52,105 -76,157l1 186c-15,159 -65,218 -151,311l-36 2c4,-13 13,-29 3,-40 -21,5 -47,18 -70,26 -16,-5 -10,-21 -13,-31 -36,-5 -81,-13 -112,-34 -8,-89 -3,-171 -8,-252 -10,-3 -21,-24 -36,-16 -21,60 -44,118 -89,165 23,34 70,24 91,60 -29,21 -21,31 -10,58 -49,13 -102,-10 -151,-16 29,31 78,60 104,97 -26,24 -68,47 -109,37 -49,29 -60,-60 -112,-34 -60,-8 -16,-79 -23,-108 -8,0 -16,3 -21,-3 -16,21 10,58 -21,79l-159 66 -89 -34c-34,34 -78,37 -117,50 -31,0 -50,-45 -86,-24 -18,-26 18,-47 29,-71l-76 -3c-23,10 -39,-21 -60,3 4,8 7,16 11,24l-77 0c-6,-10 -11,-20 -15,-30 -108,-190 -186,-336 -292,-528l-18 -162c0,-26 5,-39 5,-63 36,-60 44,-157 102,-186 5,-11 34,-16 55,-21 15,-28 56,-22 85,-33l0 -358c-5,-6 -11,-12 -20,-16 -8,-45 23,-100 13,-157 -10,-26 18,-60 -5,-81 10,-22 -8,-42 12,-58l0 -222c-26,12 -62,2 -90,-8 -31,-26 -31,-79 -23,-108 13,-21 29,-42 52,-50 15,-15 -7,-31 -13,-44l9 0 0 -12zm475 16l0 0 -435 0c-2,9 11,20 13,27 125,8 247,-5 373,0 21,-2 47,-3 49,-27zm635 0l0 0c3,6 7,13 11,19l349 -3c20,-11 66,15 73,-16l-433 0zm359 431l0 0 0 -257c-19,8 -38,-1 -56,-6 -23,-8 -49,18 -73,3 -26,-24 -42,21 -68,5 -31,-36 -66,16 -94,1l0 329c15,12 27,-2 40,-2 94,-21 168,-31 252,-73zm-1354 -247l0 0 0 269c37,31 95,23 125,53l8 -5c61,8 97,36 158,34l0 -358c-8,-4 -19,11 -30,6 -39,-42 -83,26 -115,-11 -18,-8 -29,16 -47,13 -33,-28 -64,1 -99,-2zm698 1812l0 0c32,-40 -40,-30 -42,-68l-2 58c13,0 29,18 44,10zm-435 29l0 0c-34,-45 -47,-105 -65,-152l-5 8c-18,24 -23,50 8,68 10,10 8,26 -5,34 -29,-5 -21,39 -23,58 8,37 44,5 70,16 13,-5 29,-13 21,-31zm841 -105l0 0c5,-29 -26,-55 -31,-81 0,66 -3,121 3,184l55 8c8,-37 -18,-76 -26,-110zm-440 -52l0 0c5,-18 31,-39 3,-58 5,21 -8,37 -3,58zm-602 -45l0 0c-8,-13 -18,-24 -36,-26 -78,92 65,113 34,205 10,0 39,31 47,5 10,-3 18,0 26,8 8,-13 -3,-31 8,-45 18,-18 -29,-37 -34,-47 -8,24 -21,-3 -31,8 -39,-8 8,-29 -3,-50l-18 5c-10,-8 -13,-18 -18,-31 10,-3 26,-16 26,-31zm453 68l0 0 -49 -50c-29,-5 -10,-71 -49,-52 0,13 -10,26 0,37 -13,31 -26,66 -26,97 47,26 26,97 44,136 21,3 39,-16 57,-16 39,-26 57,-50 47,-100 -8,-18 -8,-45 -23,-52zm417 -81l0 0c-31,-10 -70,-29 -83,-66 8,24 -8,39 -8,58 8,18 -3,52 -3,71l5 8c-18,39 -16,84 -16,126 31,-21 68,37 94,-5l-49 -34c-37,-63 57,-94 60,-157zm-427 18l0 0c-5,-29 -16,-66 -16,-89 -21,29 -5,63 16,89zm-537 -58l0 0c-18,-3 -36,-18 -52,-37 8,16 10,50 29,68l23 -31zm1310 3l0 0 -65 -73c-8,3 -26,-5 -21,10l63 76c21,50 34,100 86,126 21,-24 36,-66 34,-102l-50 -29c-8,11 -16,16 -29,13 -10,3 -16,-13 -18,-21zm-1232 -79l0 0c-23,13 -47,-10 -73,-8 -8,13 -29,16 -16,29 10,16 31,13 47,13 18,-3 44,-18 42,-34zm-128 -26l0 0c-3,-8 -10,-5 -18,-5 -5,13 8,18 18,16l0 -10zm-68 -8l0 0c-13,-11 0,-32 -16,-37 3,13 5,31 16,37zm1498 -8l0 0 -10 -8c-26,-126 -23,47 -78,37 0,18 23,29 29,37 13,-3 29,13 44,16l16 -81 0 0zm-1532 -94l0 0 -8 0 0 24c10,-5 5,-16 8,-24zm63 29l0 0c-10,-26 3,-68 -39,-76 23,31 18,52 39,76zm-104 -60l0 0 5 0 8 -18 -13 18zm912 -24l0 0 -8 -16c-8,60 -39,118 -10,176l-5 5c8,10 10,34 18,34 29,-58 8,-134 5,-199zm-901 -39l0 0c-5,-16 -23,-18 -39,-21 -13,16 16,13 13,29 10,0 23,18 31,0l-5 -8zm401 -60l0 0c-3,-37 -26,-13 -47,-5 18,13 26,0 47,5zm1157 -21l0 0c16,-8 31,-29 39,-47 -18,10 -31,29 -39,47zm-96 -79l0 0c-29,-8 -52,11 -75,5l8 8c13,3 31,24 44,3l5 5c5,-5 16,-13 18,-21zm-1482 37l0 0 -3 -39c-8,16 -10,32 3,39zm1170 -16l0 0c13,-4 -1,-13 -6,-20 0,-2 0,-4 -1,-7 -2,1 -1,4 1,7 0,8 -6,15 6,20zm-1102 -26l0 0c-13,8 -31,8 -26,26 5,11 16,11 21,13 5,-13 -5,-26 5,-39zm789 493l0 0c38,-84 -33,-191 -3,-273l10 -21c-4,7 -8,14 -10,21 -16,13 -52,81 -68,24 18,-37 47,-63 55,-108 13,3 34,3 34,16 8,-39 34,-89 21,-131 -29,11 -47,-26 -62,-45 -26,-8 -68,-13 -89,8 -3,71 -8,118 3,181 8,55 23,110 23,165 8,5 26,-16 34,5 5,8 16,21 0,29 -47,-11 -29,45 -42,68 -10,105 91,202 29,312 -37,37 -96,34 -122,73 18,0 26,-21 39,-29 13,-5 21,18 26,31 -10,0 -13,11 -16,18 52,-21 99,-34 146,-66l-21 -24c18,-18 8,-47 10,-63 -26,-58 10,-134 3,-194zm956 -490l0 0c-13,-10 -52,-26 -39,-50 -16,16 -39,34 -60,18 -34,16 -47,60 -52,87l16 -11c39,0 39,-52 81,-42 10,16 -3,26 13,42l18 -24 24 -21 0 0zm-1777 -60l0 0c-24,-10 -21,37 -29,47 18,-8 29,-31 29,-47zm1459 21l0 0c21,-5 39,-34 31,-52l-36 26c0,8 -13,29 5,26zm-417 228l0 0c44,-73 52,-207 26,-283l-44 45c-81,3 -44,110 -115,134 8,76 21,142 34,223l21 -3c23,21 10,42 26,63 -10,5 -18,16 -29,16 -21,-5 -18,-16 -21,-34l-26 73c-39,97 60,181 26,278 -5,18 -10,45 13,58l-29 29c-10,39 39,13 50,24 23,8 23,52 52,29 -23,-16 5,-31 8,-45 -91,-47 -39,-155 -34,-228 16,-81 -18,-150 21,-228 -18,-58 13,-102 21,-149zm-625 -239l0 0c3,-21 -23,-34 -39,-45 -21,24 -55,32 -70,47 -31,8 -36,45 -55,66 -34,32 -76,-8 -102,29 -8,3 -23,8 -31,-3 -10,-13 8,-16 0,-32 34,-31 63,-26 104,-26 0,-16 21,-42 26,-58l-55 39 -52 -3c-16,5 -8,21 -18,31 -13,16 -29,-5 -39,-10 5,-26 21,-45 42,-63 -16,3 -23,26 -34,18 -13,29 -34,50 -21,79 -8,24 34,39 39,60 -39,8 -76,3 -112,-10l23 21c-44,29 21,45 3,79 16,-8 29,5 39,3 52,24 55,97 55,150 21,24 44,-10 60,-24 8,8 21,18 26,29 -3,0 -5,8 -10,5l0 16c13,3 26,5 42,10 26,-24 16,-55 8,-84 5,-24 0,-76 44,-84 37,-18 10,-58 23,-92 -13,-8 -16,-18 -13,-31 8,-8 16,-16 29,-13 26,-8 13,-32 8,-50 -31,10 -36,47 -49,66 -8,-11 -29,3 -31,-18 8,-29 18,-63 47,-79 21,3 47,-16 63,0l18 18c-21,73 55,79 86,131l-10 8c-34,24 -34,71 -68,97 -31,-26 -3,-55 -29,-84 -23,0 -8,24 -13,31 -16,24 13,31 29,45 0,8 -3,16 -8,21 -13,21 -36,0 -52,-5l13 52c5,5 21,3 18,16 -13,21 -31,39 -50,13 -10,21 -8,47 -13,66 36,34 -26,39 -34,73 36,31 73,58 102,94 21,-13 10,-37 13,-55 -8,-34 -68,-94 -13,-118 18,5 31,29 44,34l0 -5c18,-45 -21,-87 3,-121 21,-16 39,13 42,32 10,13 -8,34 16,34 5,-21 -16,-37 5,-55 -18,-16 8,-29 10,-52 10,-11 31,0 36,11 0,3 -3,5 -5,3l5 8c-21,50 3,84 5,131 -21,21 -47,-8 -68,-3 -3,39 13,81 26,118 -21,21 -36,-24 -57,-18 10,16 5,37 16,50 29,55 29,163 99,163 8,13 42,8 23,34 -8,11 -34,18 -36,5 -31,-3 -3,39 -31,45l21 21 -23 37c39,3 89,-26 112,-63 -5,-39 -16,-73 -16,-115 -13,-11 -29,-21 -34,-39 0,-10 -3,-31 10,-39 -10,-39 -49,-66 -52,-105 21,-8 44,21 65,24 -36,-76 13,-131 16,-210 -23,-34 8,-68 -18,-102 0,-13 18,-21 31,-16 13,24 23,68 29,94 3,-18 5,-39 21,-52 5,3 8,10 13,10 5,-8 13,0 18,5 5,16 -10,21 -8,34 -39,55 -68,105 -68,176 44,-5 52,-58 91,-73 -21,-60 8,-131 -23,-186 -10,-29 -8,-45 -5,-71 -13,-42 0,-87 0,-136 -52,-39 -109,-8 -156,-5 26,13 18,39 26,58 -3,16 -21,42 3,52 23,26 -13,39 -29,42 -10,-11 -3,-29 -18,-34 -10,-21 -8,-42 3,-63 -13,-45 -62,-47 -78,-81zm-182 -115l0 0c-29,-18 -65,8 -102,0 -34,26 -83,26 -117,58 3,16 29,24 21,45 16,-13 31,-24 47,-42 34,8 55,-37 83,-24 18,16 0,31 -10,42l-5 -3 -10 13 39 3c42,-16 23,-65 55,-92zm948 -24l0 0c-34,-18 -42,60 -70,16 3,29 -8,81 8,113 16,-16 26,-37 39,-52 78,3 -8,60 8,89l21 -39c8,0 26,-8 34,8 -18,55 52,115 -13,157 -10,18 8,34 -13,45 -8,3 -21,8 -23,-3 -49,-42 50,-68 10,-123 -5,37 -42,29 -55,58 -13,18 -16,39 -13,55 -36,71 -57,139 -57,212 26,31 16,76 44,102 16,5 29,26 44,21 16,-32 -16,-16 -26,-32 -23,-26 -26,-52 -23,-84 31,-34 -39,-50 -13,-81 26,-26 47,18 65,34 -5,31 -21,55 -5,84 18,-24 -21,-66 23,-73 47,-5 16,53 21,76 13,50 73,52 99,94 42,26 29,79 63,113l5 -13c8,5 31,0 39,10 -16,47 -42,105 -8,150 16,-13 0,-31 10,-42 18,0 44,-8 47,21 39,26 8,-34 31,-50 13,-5 10,24 26,8 31,-37 -21,-55 -36,-84 -44,-76 -83,-165 -156,-226l5 -11c-34,-58 5,-118 16,-170 65,-29 0,55 65,47 -10,26 -26,50 -50,66 3,18 -13,45 10,60 44,-5 70,-8 104,-31 16,-21 21,-52 18,-76 10,-13 0,-50 31,-47 26,5 13,26 18,42 42,-18 36,39 44,60l26 -50c-18,-26 -16,-58 -8,-87 16,3 49,-3 42,16 13,-21 21,-52 44,-76 29,-21 81,-24 107,-21 5,-24 -31,-29 -44,-45l0 10c-31,21 -70,-3 -96,31 -10,-8 -21,-21 -26,-34 -13,50 -75,66 -99,110l-29 -29c16,-8 21,-24 21,-39 -13,-18 0,-55 -18,-79 5,-10 10,-42 34,-32 8,5 10,13 13,21l16 -13c0,-21 -13,-45 0,-63 13,-24 34,0 42,13l-10 -47c-23,-16 -3,-76 -49,-47l5 55c-13,42 -34,89 -76,105 26,16 -5,29 -16,39 -42,26 -86,0 -120,-24 -65,-34 -34,-110 -86,-144 -13,16 -39,13 -52,-5 5,-3 5,-8 5,-16 -13,-3 -23,3 -34,-16 0,-16 10,-31 21,-39l0 0zm375 -13l0 0c-8,0 -23,0 -18,10 8,0 21,-3 18,-10zm-63 -16l0 0 0 -13 -5 0 -3 18c5,5 0,13 3,16l0 -17c2,-2 3,-4 5,-4zm-659 -31l0 0c-42,8 -65,-24 -107,-26 -5,8 -21,18 -10,29 42,-18 68,8 102,26 36,11 68,-16 104,-39 -34,5 -62,21 -89,10zm-336 186l0 0 0 -215c-52,42 -68,105 -86,157 36,13 31,84 86,58zm550 -184l0 0c-18,-16 -29,-79 -63,-47l16 29 -117 81c-63,29 -89,-24 -146,-29 -10,16 -21,-8 -34,-8l0 45c31,34 -10,73 0,110 42,-11 89,-10 128,8 13,-13 3,-53 29,-55 16,47 29,102 49,142 16,-37 34,-71 34,-105 13,-10 -8,-24 13,-31 18,-13 34,8 42,18l42 -37c21,-8 23,-31 26,-45l-18 -76zm529 -55l0 0c-16,18 -26,-13 -36,-16 21,11 0,29 21,37 8,-11 23,-5 21,-21l-5 0zm-521 -45l0 0c3,-3 0,-18 -10,-13 0,11 -5,29 5,31l5 -18zm516 0l0 0c10,-11 16,-31 5,-42 -8,24 -47,29 -39,55l34 -13zm-396 -60l0 0c-8,-5 -10,-16 -10,-26l-21 29c18,-8 55,5 78,13l0 -5c-13,-13 -29,-16 -47,-10zm-188 -47l0 0c-34,0 -13,37 -29,52 13,13 31,34 44,42l-5 -66c3,-16 -23,-13 -10,-29zm-359 -79l0 0 -10 0c-31,58 -52,118 -78,176l-3 260 8 5c-16,5 3,16 -5,26l10 0c26,-3 76,-18 107,-5 -10,-10 16,-24 5,-39 34,-26 -16,-55 0,-79 -10,-39 18,-71 26,-105 -10,-76 -55,-157 -60,-239zm761 -13l0 0c-18,-8 -49,-11 -63,0 -60,-3 -112,26 -146,73 8,8 -3,13 -5,21 29,-21 70,47 78,-8 24,-8 29,24 47,24 3,24 21,47 -3,66 -31,-18 -34,26 -65,11 -26,34 -55,-29 -78,5 -8,8 -3,18 5,24l5 -8 21 21c-18,8 -5,29 -29,24 -23,-5 -49,-21 -49,-50 -44,45 -13,110 0,147l39 -34c26,-13 57,-3 76,3 -5,60 60,79 81,126 8,24 13,50 29,73 21,0 52,3 73,-13 21,-39 -39,-31 -44,-60 10,-47 50,-3 70,0 44,-10 8,-45 13,-71 13,-26 -10,-50 -3,-76 18,-16 44,-26 68,-34 -44,-60 16,-108 42,-152 3,-16 -26,-13 -13,-29 -36,-21 -57,-55 -107,-66 0,10 -23,16 -5,26 16,24 36,55 18,81 -13,21 -29,42 -52,50 -26,-8 -52,21 -70,-3 16,-13 23,-31 29,-50 -3,-31 -42,-18 -63,-26 -8,-29 10,-52 23,-79 10,-3 26,5 36,16 -25,45 48,35 52,80 -1,-31 -10,-50 -39,-67l29 -45zm-172 -24l0 0c-21,-5 -39,3 -55,-5l-34 13 16 73 44 -50c10,-5 29,-21 29,-31zm-1021 176l0 0 0 43 0 23 0 93 0 17c6,30 55,-5 73,25 21,3 42,10 60,-11 29,-81 42,-144 68,-226 23,-45 83,-63 73,-123 -96,-8 -180,-24 -274,-47 2,28 1,55 0,81l0 123zm1354 -236l0 0c-62,13 -130,32 -187,37l52 8c44,21 73,37 117,63l17 18 0 -125zm-1143 -118l0 0c-78,-10 -162,-37 -229,-63 -8,52 3,115 -8,171 8,-5 26,0 39,3 83,21 188,45 273,47l3 -24c13,-45 78,-50 60,-105l-68 -8c-21,-3 -55,-8 -70,-21zm208 -435l0 0c-8,-16 -5,-39 -29,-47 -159,-13 -320,-3 -500,3l-10 18c-5,24 -26,58 5,76 23,5 44,5 60,-8 5,-11 16,-29 3,-39 -5,0 -16,-3 -16,3l5 13c-10,5 -10,26 -26,21 -10,-5 -13,-16 -21,-24 5,-24 3,-47 31,-55 21,18 47,-8 57,24 63,8 154,-5 221,0 44,-8 102,18 135,-24 16,0 42,0 55,13 13,26 5,50 -18,66 -13,-10 -29,-29 -21,-39 -23,-3 0,18 -16,24 8,24 29,37 52,26 29,0 21,-34 31,-50zm906 428l0 0c16,18 31,52 57,65 -2,1 -4,2 -7,3 3,3 5,0 7,-3 17,-10 1,-30 6,-44 -13,-37 16,-79 -5,-102 -133,66 -313,92 -466,87 -3,13 3,29 10,42 13,-5 29,-3 39,-13 26,3 8,26 23,34l5 -5c5,-8 -3,-16 -10,-24 8,-3 13,-16 26,-11 23,8 47,-10 68,-5 -13,21 -3,45 5,63l26 -8 5 21c-5,18 -23,16 -39,18 -70,13 -8,-39 -39,-71 -31,21 -3,81 -52,84l-42 -71 -10 0c3,34 -21,55 -16,89 104,3 221,-29 318,-39 8,-11 10,5 16,3 23,-21 63,-8 89,-26l0 -5 26 -3c0,-3 8,-8 0,-10 -18,5 -49,10 -42,-16 -5,3 -10,-3 -13,3 5,8 10,16 0,26 -42,0 -78,10 -112,13 5,-24 3,-58 -10,-79 -13,5 5,13 -5,18 -8,11 -13,0 -21,-3 -3,21 -3,45 16,66 -16,5 -39,16 -55,3 13,-18 3,-45 -3,-63 -5,3 -10,11 -16,10 -5,-3 -18,-11 -13,-18 29,-31 94,-18 138,-37 8,-3 13,16 18,0l8 8c8,16 8,29 3,47 52,31 13,-47 47,-73 13,0 18,16 21,26zm-1222 -404l0 0c-5,0 -13,-5 -16,0l16 0zm-81 -3l0 0 -16 0c-5,11 16,5 16,0zm240 0l0 0c-3,-8 -8,0 -13,0l8 5 5 -5zm-81 0l0 0c-3,-5 -13,-5 -13,3 5,0 13,3 13,-3zm701 451l0 0 -8 0c5,50 -29,84 -52,121 18,29 16,60 16,87 -31,42 13,81 36,113 94,-31 8,-115 13,-176 -39,-50 23,-89 -5,-144zm-375 -60l0 0c-10,-24 23,-84 -29,-60 0,39 -13,73 -13,113 -13,149 21,265 63,396 18,13 47,3 57,24 21,-8 50,24 76,8 -36,-18 -60,-53 -86,-81 -16,3 -31,10 -44,-3 5,-21 8,-32 13,-50 18,-16 39,-26 57,-3 23,45 57,115 122,115 18,3 39,-13 42,-26 -57,-52 -122,-121 -164,-181 -60,-60 -78,-163 -94,-252zm177 -121l0 0c-36,5 -73,21 -107,-3 -5,21 -39,26 -34,47 23,5 57,21 86,18 0,-16 -18,-34 3,-47 10,3 18,0 31,8 -5,16 21,31 3,47 -10,13 -31,13 -31,0l-13 26c-23,-3 -52,-3 -76,-10 -3,45 21,87 23,134 36,8 18,45 23,60l8 -5c16,16 31,-10 49,-10 3,-31 16,-58 -3,-84 5,-11 16,-29 31,-24 16,31 21,55 16,92 13,52 -49,60 -81,66 16,26 39,63 65,81 3,-18 21,-47 5,-71 5,-11 18,-18 31,-18 47,47 -23,105 13,147l3 -16c18,-21 34,-50 60,-18 5,-32 5,-66 0,-92 -5,-45 -65,-13 -73,-53 10,-34 60,-8 78,-8 -29,-8 5,-26 8,-39 60,18 -3,-79 65,-68l-3 -31c-10,-24 -34,-63 -70,-66l-8 29c-24,8 -60,13 -86,5 -8,-50 52,-21 76,-42 -31,-18 -91,0 -94,-55l0 0zm10 -194l0 0c-23,-29 -57,-26 -96,-26 -16,5 -13,18 -5,26 55,-18 26,39 39,66 26,-3 62,73 83,11l-18 -45 -42 8c-23,-5 -10,-26 -5,-39 13,8 29,-3 36,-3 8,5 -8,18 8,21l0 -18zm39 -66l0 0c-8,-29 -55,-37 -81,-42 -31,5 -81,16 -83,47 16,3 26,-3 44,-10 34,16 94,-8 115,45 10,21 3,55 18,63 16,-39 -10,-71 -13,-102zm-302 412l0 0c-8,-24 13,-53 -3,-76 -50,42 -37,89 -39,144 -70,39 -65,129 -89,184 -96,68 -89,199 -130,296 -16,21 -47,39 -73,37l21 11c5,11 13,24 5,37 23,-13 50,-26 63,-50 8,-105 117,-157 138,-260 -18,18 -34,-3 -39,-18 10,-26 44,-18 65,-34 55,-97 86,-178 81,-270zm1047 -470l0 0 -26 -31c-151,-3 -328,3 -469,-3 -36,5 -52,42 -50,76 8,8 21,29 34,31 29,8 39,-13 52,-31 0,-13 -13,-24 -26,-21l13 13c-10,11 -21,24 -31,29 -13,-13 -29,-34 -23,-52 16,-13 23,-29 42,-32 21,8 44,3 60,24l315 -3c10,-16 29,-24 44,-26 16,11 42,5 50,29 -3,16 8,47 -18,55 -16,-3 -39,-18 -29,-39 -3,0 -8,0 -10,3 -16,16 0,37 16,45 18,-3 39,8 55,-8 -3,-18 16,-37 3,-58zm-393 47l0 0 0 -5 -10 0 10 5zm164 -5l0 0c-5,-8 -16,-3 -18,3 8,-3 18,3 18,-3zm-96 0l0 0 10 0 -10 -5 0 5z"/>
   <path class="fil3" d="M2784 2841c-8,-29 -55,-37 -81,-42 -31,5 -81,16 -83,47 16,3 26,-3 44,-11 34,16 94,-8 115,45 10,21 3,55 18,63 16,-39 -10,-71 -13,-102z"/>
   <path class="fil3" d="M2558 3221c-10,-24 23,-84 -29,-60 0,39 -13,73 -13,113 -13,150 21,265 62,396 18,13 47,3 57,24 21,-8 49,24 76,8 -36,-18 -60,-52 -86,-81 -16,3 -31,10 -44,-3 5,-21 8,-32 13,-50 18,-16 39,-26 57,-3 23,45 57,115 122,115 18,3 39,-13 42,-26 -57,-52 -122,-121 -164,-181 -60,-60 -78,-163 -94,-252z"/>
   <path class="fil3" d="M2901 3746c-18,-16 -29,-79 -63,-47l16 29 -117 81c-62,29 -89,-24 -146,-29 -10,16 -21,-8 -34,-8l0 45c31,34 -10,73 0,110 42,-10 89,-10 128,8 13,-13 3,-52 29,-55 16,47 29,102 49,142 16,-37 34,-71 34,-105 13,-11 -8,-24 13,-31 18,-13 34,8 42,18l42 -37c21,-8 23,-31 26,-45l-18 -76z"/>
   <path class="fil3" d="M2688 3743c-42,8 -65,-24 -107,-26 -5,8 -21,18 -10,29 42,-18 68,8 102,26 36,11 68,-16 104,-39 -34,5 -62,21 -89,10z"/>
   <path class="fil0" d="M3029 3586c-8,-5 -10,-16 -10,-26l-21 29c18,-8 55,5 78,13l0 -5c-13,-13 -29,-16 -47,-11z"/>
   <path class="fil0" d="M3310 3953c21,-5 39,-34 31,-52l-36 26c0,8 -13,29 5,26z"/>
   <path class="fil0" d="M3628 3992c-13,-10 -52,-26 -39,-50 -16,16 -39,34 -60,18 -34,16 -47,60 -52,87l16 -10c39,0 39,-52 81,-42 10,16 -3,26 13,42l18 -24 23 -21z"/>
   <path class="fil0" d="M2985 4016c13,-4 -1,-13 -6,-20 0,-2 0,-4 -1,-7 -2,2 -1,4 1,7 0,8 -6,16 6,20z"/>
   <path class="fil0" d="M3297 3995c-29,-8 -52,11 -76,5l8 8c13,3 31,24 44,3l5 5c5,-5 16,-13 18,-21z"/>
   <path class="fil0" d="M3394 4073c16,-8 31,-29 39,-47 -18,10 -31,29 -39,47z"/>
   <path class="fil0" d="M3399 4344l-10 -8c-26,-126 -23,47 -78,37 0,18 23,29 29,37 13,-3 29,13 44,16l16 -81 0 0z"/>
   <path class="fil0" d="M3329 4464l-65 -73c-8,3 -26,-5 -21,10l62 76c21,50 34,100 86,126 21,-24 36,-66 34,-102l-49 -29c-8,11 -16,16 -29,13 -10,3 -16,-13 -18,-21z"/>
   <path class="fil0" d="M2982 4501c-31,-11 -70,-29 -83,-66 8,24 -8,39 -8,58 8,18 -3,52 -3,71l5 8c-18,39 -16,84 -16,126 31,-21 68,37 94,-5l-49 -34c-37,-63 57,-94 60,-157z"/>
   <path class="fil1" d="M3154 4611c5,-29 -26,-55 -31,-81 0,66 -3,121 3,184l55 8c8,-37 -18,-76 -26,-110z"/>
   <path class="fil4" d="M2482 3252c-8,-24 13,-52 -3,-76 -50,42 -37,89 -39,144 -70,39 -65,129 -89,184 -96,68 -89,199 -130,296 -16,21 -47,39 -73,37l21 11c5,11 13,24 5,37 23,-13 50,-26 63,-50 8,-105 117,-157 138,-260 -18,18 -34,-3 -39,-18 10,-26 44,-18 65,-34 55,-97 86,-178 81,-270l0 0z"/>
   <path class="fil4" d="M2745 2906c-23,-29 -57,-26 -96,-26 -16,5 -13,18 -5,26 55,-18 26,39 39,66 26,-3 63,73 83,11l-18 -45 -42 8c-23,-5 -10,-26 -5,-39 13,8 29,-3 36,-3 8,5 -8,18 8,21l0 -18z"/>
   <path class="fil4" d="M2735 3100c-36,5 -73,21 -107,-3 -5,21 -39,26 -34,47 23,5 57,21 86,18 0,-16 -18,-34 3,-47 10,3 18,0 31,8 -5,16 21,31 3,47 -10,13 -31,13 -31,0l-13 26c-23,-3 -52,-3 -76,-10 -3,45 21,87 23,134 36,8 18,45 23,60l8 -5c16,16 31,-10 49,-10 3,-32 16,-58 -3,-84 5,-10 16,-29 31,-24 16,32 21,55 16,92 13,52 -49,60 -81,66 16,26 39,63 65,81 3,-18 21,-47 5,-71 5,-10 18,-18 31,-18 47,47 -23,105 13,147l3 -16c18,-21 34,-50 60,-18 5,-32 5,-66 0,-92 -5,-45 -65,-13 -73,-52 10,-34 60,-8 78,-8 -29,-8 5,-26 8,-39 60,18 -3,-79 65,-68l-3 -31c-10,-24 -34,-63 -70,-66l-8 29c-23,8 -60,13 -86,5 -8,-50 52,-21 76,-42 -31,-18 -91,0 -94,-55z"/>
   <path class="fil4" d="M2933 3281l-8 0c5,50 -29,84 -52,121 18,29 16,60 16,87 -31,42 13,81 37,113 94,-32 8,-115 13,-176 -39,-50 23,-89 -5,-144z"/>
   <path class="fil4" d="M2841 3538c-34,0 -13,37 -29,52 13,13 31,34 44,42l-5 -66c3,-16 -23,-13 -10,-29z"/>
   <path class="fil4" d="M2894 4181c44,-73 52,-207 26,-283l-44 45c-81,3 -44,110 -115,134 8,76 21,142 34,223l21 -3c23,21 10,42 26,63 -10,5 -18,16 -29,16 -21,-5 -18,-16 -21,-34l-26 73c-39,97 60,181 26,278 -5,18 -10,45 13,58l-29 29c-10,39 39,13 49,24 23,8 24,52 52,29 -23,-16 5,-32 8,-45 -91,-47 -39,-155 -34,-228 16,-81 -18,-150 21,-228 -18,-58 13,-102 21,-150z"/>
   <path class="fil4" d="M2672 4483c38,-84 -33,-191 -3,-273l10 -21c-4,7 -8,14 -10,21 -16,13 -52,81 -68,24 18,-37 47,-63 55,-108 13,3 34,3 34,16 8,-39 34,-89 21,-131 -29,11 -47,-26 -62,-45 -26,-8 -68,-13 -89,8 -3,71 -8,118 3,181 8,55 23,110 23,165 8,5 26,-16 34,5 5,8 16,21 0,29 -47,-11 -29,45 -42,68 -10,105 91,202 29,312 -37,37 -96,34 -122,73 18,0 26,-21 39,-29 13,-5 21,18 26,31 -10,0 -13,10 -16,18 52,-21 99,-34 146,-66l-21 -24c18,-18 8,-47 10,-63 -26,-58 10,-134 3,-194z"/>
   <path class="fil0" d="M2086 3827c-29,-18 -65,8 -102,0 -34,26 -83,26 -117,58 3,16 29,24 21,45 16,-13 31,-24 47,-42 34,8 55,-37 83,-24 18,16 0,31 -10,42l-5 -3 -10 13 39 3c42,-16 23,-66 55,-92z"/>
   <path class="fil0" d="M1852 3932c-23,-10 -21,37 -29,47 18,-8 29,-32 29,-47z"/>
   <path class="fil0" d="M1883 3989c-13,8 -31,8 -26,26 5,11 16,11 21,13 5,-13 -5,-26 5,-39z"/>
   <path class="fil0" d="M2096 4386c-23,13 -47,-11 -73,-8 -8,13 -29,16 -16,29 10,16 31,13 47,13 18,-3 44,-18 42,-34z"/>
   <path class="fil0" d="M2555 4519c-5,-29 -16,-66 -16,-89 -21,29 -5,63 16,89z"/>
   <path class="fil0" d="M2112 4514c-8,-13 -18,-24 -36,-26 -78,92 65,113 34,205 10,0 39,32 47,5 10,-3 18,0 26,8 8,-13 -3,-31 8,-45 18,-18 -29,-37 -34,-47 -8,24 -21,-3 -31,8 -39,-8 8,-29 -3,-50l-18 5c-10,-8 -13,-18 -18,-31 10,-3 26,-16 26,-31z"/>
   <path class="fil0" d="M2714 4559c5,-18 31,-39 3,-58 5,21 -8,37 -3,58z"/>
   <path class="fil0" d="M2313 4716c-34,-45 -47,-105 -65,-152l-5 8c-18,24 -23,50 8,68 10,11 8,26 -5,34 -29,-5 -21,39 -23,58 8,37 44,5 70,16 13,-5 29,-13 21,-31z"/>
   <path class="fil0" d="M2748 4687c32,-40 -40,-30 -42,-68l-2 58c13,0 29,18 44,10z"/>
   <path class="fil0" d="M2237 4094c-3,-37 -26,-13 -47,-5 18,13 26,0 47,5z"/>
   <path class="fil0" d="M2737 4194l-8 -16c-8,60 -39,118 -10,176l-5 5c8,11 10,34 18,34 29,-58 8,-134 5,-199z"/>
   <path class="fil5" d="M1617 2124c0,0 347,-239 1134,-239 786,0 1216,235 1216,235l-2349 5z"/>
   <path class="fil6" d="M2986 1464c48,-11 101,13 141,7 13,9 29,-2 42,4 -5,13 -22,2 -33,9 -46,7 -71,52 -88,88 -13,39 2,75 20,110l46 42c-80,-11 -185,-7 -269,-20 -106,7 -218,2 -314,9 -5,-13 -9,4 -16,2 -69,-6 -135,9 -201,18 9,-20 37,-31 49,-55 18,-31 20,-77 11,-107 -20,-48 -62,-87 -113,-85l-2 -6c48,-9 80,0 132,-17l4 5c5,-13 15,6 20,-7 64,0 119,-7 185,-9 126,4 263,-7 388,9zm-28 99l0 0c-80,-33 -170,-66 -256,-99 -35,18 -73,26 -106,46l-4 -4c-44,17 -95,48 -137,57 -4,11 -18,15 -11,31 49,35 119,46 170,74 35,7 69,35 104,28 79,-40 170,-61 241,-101 9,-9 2,-22 -2,-31z"/>
   <path class="fil6" d="M2774 63c16,37 4,87 2,131 15,29 60,11 86,20 73,13 146,46 163,131 4,59 -5,129 -27,180 -33,109 -77,191 -148,282 -11,0 -18,6 -22,15 -7,87 -26,162 40,225 66,28 137,11 194,-29 35,-20 57,-61 86,-81 18,11 33,9 55,9 29,77 79,179 168,204 27,4 49,7 77,6 4,6 7,6 11,2 4,-7 13,0 18,0 62,-15 128,-42 168,-96 27,-18 42,-52 79,-26l5 -4c6,15 37,-4 31,20 15,35 27,74 48,112 46,83 117,129 210,123 7,-6 20,-9 29,-9 69,-22 132,-72 186,-121 15,-2 31,13 48,11 11,85 11,169 79,230 7,-6 11,15 22,11 20,17 46,4 68,13 71,-4 143,-52 186,-112 15,5 27,24 38,33 -82,88 -165,190 -294,204 -22,-17 -69,-11 -84,-40 -9,-4 -18,-20 -27,-31 -29,-46 -40,-94 -62,-145 -9,-13 -22,-15 -37,-9 -55,52 -124,81 -196,87 -16,-4 -44,-2 -57,-11 -7,6 -15,-4 -22,-7 -9,15 -9,-6 -20,-4 -9,-6 -26,4 -31,-11 -33,-11 -79,-46 -90,-85 -27,-29 -42,-85 -55,-123 -11,-9 -27,-9 -37,-2 -37,63 -86,90 -143,120 -73,41 -143,-4 -208,-6 -62,-24 -108,-98 -112,-147 -4,-4 -11,-9 -5,-13 -5,-17 -2,-44 -27,-46 -35,7 -37,52 -53,77 -42,63 -111,99 -181,99 -99,6 -154,-85 -192,-166 -4,-13 0,-18 -5,-31 -11,-11 -24,-33 -40,-18l-15 17 4 2c-31,87 -77,195 -190,199 -7,-6 -13,7 -16,-2 -26,7 -46,-4 -71,-9 -53,-22 -113,-81 -126,-138 -7,-13 -27,-33 -44,-18 -6,9 -22,24 -11,37 -13,70 -55,145 -126,169 -90,20 -185,35 -267,-28 -33,-24 -60,-61 -86,-88 -13,-4 -33,4 -37,20 -9,88 -77,182 -148,210 -77,22 -143,33 -223,-4 -2,-11 -16,-4 -22,-11 -37,-9 -62,-72 -101,-39 -33,81 -53,193 -152,219l-4 -6c-20,2 -37,6 -55,0 -106,-31 -177,-101 -256,-191 2,-17 26,-24 31,-35 20,29 59,48 84,77 16,0 31,18 49,22 55,15 113,11 159,-22 48,-57 58,-123 60,-191 4,-9 2,-20 5,-33l48 -13c66,72 183,151 285,123 104,-22 157,-144 183,-236 7,-18 29,-11 48,-15 33,-40 49,15 73,28 7,13 29,29 44,35 49,44 115,64 188,52 7,4 24,0 33,-9 42,-7 88,-39 117,-81l-4 -2c22,-22 22,-39 38,-63 16,-18 11,-77 53,-59 7,-6 20,-4 27,-4 64,77 170,138 261,110 77,-55 69,-153 53,-228 -71,-72 -126,-162 -159,-250 -11,-13 -15,-39 -22,-53 -11,-37 -26,-94 -26,-138 11,-13 0,-35 7,-48 13,-59 60,-101 117,-114 37,-15 69,-9 104,-13 37,-26 11,-66 11,-98l-6 0c9,-13 11,-35 16,-48 33,-29 79,-28 111,-20 9,6 18,18 31,17zm-165 236l0 0c-16,-31 -60,-28 -82,-31 -46,5 -80,37 -95,79 4,13 -9,28 -4,37l-4 6c4,68 11,166 53,221 7,37 49,74 71,105 15,7 27,35 44,26 16,-7 16,-22 20,-37 -2,-59 -4,-120 -6,-168 4,-77 0,-149 2,-237zm342 0l0 0c-31,-37 -97,-37 -139,-22 -22,6 -11,29 -16,44l2 112c2,68 -4,158 4,223 -5,26 -5,48 4,76 7,9 13,6 26,6 57,-42 95,-96 113,-158 20,-37 33,-74 31,-112 18,-17 -9,-39 9,-55 0,-40 -9,-77 -33,-112zm-199 92l0 0c-16,-17 -29,-41 -55,-37 -40,18 -55,68 -53,107 -24,98 -11,191 0,295 15,9 9,31 11,37 9,18 22,44 46,42 13,0 33,-2 42,-17 57,-142 40,-287 9,-427z"/>
   <path class="fil2" d="M-1 1992l5421 0 -2711 6392 -2710 -6392zm1266 705l0 0 1451 3550 1473 -3550c0,0 -2924,0 -2924,0z"/>
   <polygon class="fil7" points="5278,2067 2705,8260 2689,6410 4274,2631 2682,2631 2682,2067 "/>
   <polygon class="fil8" points="114,2067 2774,2067 2774,2631 1182,2631 2716,6346 2716,8257 "/>
   <path class="fil5" d="M3247 1583c-16,-40 -44,-48 -84,-53 -24,2 -49,18 -59,42 -11,20 -9,48 0,68 4,24 33,37 51,40 9,-6 15,20 22,2 16,7 35,-13 49,-18 22,-24 24,-55 20,-81z"/>
   <path class="fil5" d="M2324 1585c-16,-7 -22,-37 -44,-42 -38,-15 -69,0 -95,28 -13,18 -13,59 -6,81 5,13 22,22 35,33 27,9 46,11 71,-2 18,-15 40,-31 42,-55 -5,-17 -4,-24 -4,-42z"/>
   <path class="fil5" d="M4050 1719c-27,-28 -66,-29 -102,-15 -29,31 -38,59 -27,99 20,42 57,44 95,44 27,-11 40,-33 53,-57 4,-26 -5,-50 -18,-72z"/>
   <path class="fil5" d="M1503 1753c-13,-28 -38,-28 -59,-41 -7,9 -16,-4 -27,2 -16,18 -33,6 -44,31 -17,22 -16,53 -11,77 11,29 44,50 73,50 20,-9 44,-6 59,-28 20,-28 20,-66 9,-92z"/>
   <path class="fil2" d="M2870 1581c-55,-24 -112,-46 -168,-64 -59,24 -110,50 -161,64 26,13 53,17 77,35 24,4 51,18 75,22 26,18 53,-15 77,-15 35,-18 66,-30 101,-42zm88 -18l0 0c4,9 11,22 2,31 -71,41 -163,61 -241,101 -35,7 -70,-20 -104,-28 -51,-28 -121,-39 -170,-74 -7,-17 7,-20 11,-31 42,-9 93,-41 137,-57l4 4c33,-20 71,-28 106,-46 86,33 175,66 256,99zm-1740 285l0 0c-42,-18 -79,-46 -124,-57 -18,48 -29,99 -40,147 40,26 79,29 112,55 9,-4 15,13 18,-2 7,-50 29,-96 35,-144zm3126 -48l0 0 -5 -31c-42,2 -86,44 -132,57 22,50 22,96 42,147 35,-13 69,-35 104,-46 9,-2 16,-6 24,-15 0,-7 0,-13 -5,-18 -4,-31 -22,-68 -27,-94zm-1708 -41l0 0c-20,0 -40,2 -59,-2 -154,17 -296,18 -442,48 -46,0 -97,17 -139,18 -101,22 -197,44 -304,70 -26,7 -48,17 -68,17 -68,28 -128,35 -199,66 -11,2 -31,11 -42,7 -27,17 -51,28 -80,31l2 7 91 -6 6 6c69,-9 141,6 210,-6 15,-4 31,-9 44,-7 179,-55 382,-94 561,-120 66,-7 133,-24 199,-17 84,-11 172,-22 267,-15l4 -4c29,9 69,-4 102,2 79,-4 141,4 218,6 9,2 26,9 35,4 139,6 292,35 435,59 73,15 137,20 205,46 16,-4 35,6 51,9 53,24 119,20 170,24 59,-4 97,0 154,-4 9,-4 31,2 42,-2l4 4c5,-6 24,2 22,-7 -15,-7 -33,-11 -46,-13 -82,-39 -166,-48 -247,-77 -60,-15 -121,-26 -172,-46l0 4c-108,-26 -247,-53 -360,-63l0 -4c-88,-13 -183,-18 -280,-28 -9,5 -20,-17 -29,-2 -115,-9 -252,-11 -355,-7zm-1133 -7l0 0c-13,-28 -38,-28 -58,-41 -7,9 -16,-4 -27,2 -16,18 -33,6 -44,31 -16,22 -16,53 -11,77 11,29 44,50 73,50 20,-9 44,-6 59,-28 20,-28 20,-66 9,-92zm2547 -33l0 0c-27,-28 -66,-29 -102,-15 -29,31 -38,59 -27,99 20,42 57,44 95,44 27,-11 40,-33 53,-57 4,-26 -5,-50 -18,-72zm-2691 -37l0 0c-35,11 -66,24 -97,29 -31,22 -79,24 -110,48 40,29 106,26 124,79 -9,50 -33,105 -40,153 48,-24 102,-40 150,-57 11,-9 27,0 29,-17 -44,-6 -82,-42 -102,-79 -18,-61 5,-123 46,-156zm2777 0l0 0c-26,-7 -55,-13 -79,-22 24,11 37,33 53,53 7,31 22,83 -5,116 -15,41 -64,70 -104,72 53,13 108,33 157,50 7,2 24,17 37,11l-5 -2c-7,-46 -29,-101 -40,-147 13,-35 53,-35 79,-55 18,-4 27,-13 44,-18 4,-9 -11,-7 -13,-17 -37,4 -69,-28 -102,-31 -7,-9 -20,-2 -20,-9zm-2163 -2l0 0c-15,-26 -38,-42 -68,-35 -79,18 -168,33 -247,46 -18,7 -26,26 -27,44 -2,15 -2,44 22,53 58,6 113,-15 166,-20 60,-26 159,6 154,-88zm1700 -7l0 0 -64 -11c-75,2 -146,-52 -218,-13 -13,7 -11,35 -11,52 7,15 22,35 40,35 46,17 102,11 154,28 44,4 91,22 133,6 18,-9 20,-42 15,-57 -2,-29 -29,-33 -49,-39zm-1349 -88l0 0c-16,-7 -22,-37 -44,-42 -38,-15 -69,0 -95,28 -13,18 -13,59 -5,81 5,13 22,22 35,33 27,9 46,11 71,-2 18,-15 40,-31 42,-55 -5,-17 -4,-24 -4,-42l0 0zm923 -2l0 0c-16,-41 -44,-48 -84,-53 -24,2 -49,18 -58,42 -11,20 -9,48 0,68 4,24 33,37 51,40 9,-6 15,20 22,2 16,7 35,-13 49,-18 22,-24 24,-55 20,-81zm-1031 -96l0 0c-117,4 -243,44 -362,59 -22,4 -42,18 -68,13 -112,35 -249,61 -362,101 20,7 59,-4 82,22 29,15 42,50 55,70 16,53 -16,103 -38,138 18,0 40,-20 64,-17 35,-15 66,-13 104,-29 -37,2 -81,-9 -102,-50 -24,-37 -13,-66 -2,-103 22,-35 64,-57 104,-55 6,0 26,-11 35,-6l7 -6c84,-11 154,-41 232,-22 35,13 51,48 62,81 0,37 -15,64 -38,90 49,-7 91,-11 139,-24 31,0 64,-2 88,-13 -37,-2 -59,-33 -77,-53 -20,-37 -29,-88 -9,-122 18,-35 51,-68 86,-75zm7 -2l0 0 13 2 0 -4 -13 2zm1064 7l0 0c-15,-7 -55,-7 -77,-11 7,4 20,4 26,6l-2 4 44 39c20,42 35,87 13,133 -18,35 -51,63 -90,72 44,9 93,6 144,18 -7,-29 -24,-53 -20,-88 9,-35 38,-64 73,-79 9,2 27,-4 42,-4 11,6 31,4 40,11 58,6 124,22 187,28 31,9 58,9 82,33 27,31 33,64 24,109 -11,24 -27,50 -55,57 22,9 46,22 68,22 22,-5 37,22 55,9 22,18 42,11 68,22 -2,-7 -16,-6 -13,-17 -22,-2 -9,-29 -27,-39 -9,-50 -9,-105 33,-138 27,-22 53,-41 88,-37l0 -4c-60,-15 -115,-37 -174,-48 -66,-13 -113,-29 -174,-39 -20,-9 -46,-5 -66,-13 -88,-13 -199,-48 -289,-46zm-302 -30l0 0c-124,-17 -261,-5 -388,-9 -66,2 -121,9 -185,9 -5,13 -15,-6 -20,7l-4 -6c-51,17 -84,7 -132,17l2 6c51,-2 93,37 113,85 9,30 7,76 -11,107 -13,24 -40,35 -49,55 66,-9 132,-24 201,-18 7,2 11,-15 16,-2 97,-7 208,-2 314,-9 84,13 188,9 269,20l-46 -42c-18,-35 -33,-72 -20,-110 16,-37 42,-81 88,-88 11,-7 27,4 33,-9 -13,-6 -29,6 -42,-4 -40,6 -93,-18 -141,-7zm-1951 -29l0 0c-38,13 -80,12 -120,1 -2,0 -4,-1 -6,-2l126 0zm-228 0l0 0c58,59 119,105 199,128 18,6 35,2 55,0l4 6c67,-17 98,-74 121,-134l55 0c-9,26 -20,49 -33,75 51,-13 106,-33 152,-52 -20,-5 -38,-14 -56,-24l322 0c-30,9 -60,17 -90,24 -15,13 -42,7 -60,22 -166,42 -305,94 -466,160 -9,13 -16,28 -20,42 5,35 22,52 53,63 113,-42 252,-94 377,-136 38,-15 82,-22 119,-35 75,-20 161,-44 241,-59l7 -7 4 6c136,-38 279,-63 426,-79l1027 0c9,1 19,2 28,3 15,0 29,0 42,4 18,2 38,6 55,6 197,28 404,79 592,127 90,20 177,63 265,85 20,17 59,18 79,35 29,2 57,22 86,24 15,0 33,-15 42,-28 18,-26 2,-50 -11,-72 -68,-28 -126,-50 -192,-76 -55,-17 -112,-28 -165,-55l-2 7c-9,-13 -27,-4 -37,-15 -46,-9 -90,-26 -132,-41 -10,6 -26,1 -39,-5l227 0c-4,2 -9,4 -13,5 20,18 51,9 73,24 24,13 46,20 73,20 -9,-15 -16,-32 -23,-49l55 0c6,14 13,27 21,40 9,11 18,28 27,31 15,29 62,24 84,40 85,-10 149,-56 206,-112l67 0c-59,62 -125,117 -206,141 35,29 38,77 35,110 -13,39 -51,77 -93,77 6,57 42,116 38,175 -29,18 -78,66 -116,94 0,0 -818,-23 -727,-27 2,-17 -13,-2 -18,-6 -2,-4 2,-4 2,-6 -7,2 -15,2 -22,-2 -40,-7 -97,-20 -137,-24 -51,-15 -110,-17 -161,-24 -13,-4 -37,-7 -48,-5 -35,-11 -82,-15 -124,-13 -241,-28 -486,-26 -737,4 -9,4 -18,-7 -24,4 -53,-2 -112,18 -165,15l0 4c-108,22 -218,37 -316,64 3,1 6,1 8,2 6,0 11,-1 14,-1 5,-1 5,0 0,0 -5,4 -9,3 -14,1 -107,5 -655,8 -729,7l-5 3c-4,0 -5,0 -9,-4 -3,0 2,0 14,0 -30,-39 -133,-32 -105,-102l35 -131c-24,-11 -51,-11 -66,-37 -18,-6 -22,-28 -31,-42 -2,-37 -2,-79 33,-109 -91,-29 -165,-99 -231,-170l60 -1z"/>
   <path class="fil2" d="M2609 298c-2,88 2,160 -2,237 2,48 4,109 5,168 -4,15 -4,29 -20,37 -16,9 -29,-18 -44,-26 -22,-31 -64,-68 -71,-105 -42,-55 -49,-153 -53,-221l4 -6c-5,-9 7,-24 4,-37 15,-42 49,-74 95,-79 22,4 66,0 82,31zm-49 17l0 0c-26,0 -57,-4 -73,24 -27,64 -5,125 6,195 15,42 40,87 71,118 -4,-26 4,-48 -4,-72 15,-94 -6,-179 0,-265zm391 -17l0 0c24,35 33,72 33,112 -18,17 9,39 -9,55 2,39 -11,75 -31,112 -18,63 -57,116 -113,158 -13,0 -18,4 -26,-5 -9,-28 -9,-50 -4,-76 -7,-64 -2,-155 -4,-223l-2 -112c6,-15 -5,-39 16,-44 42,-15 108,-15 139,22zm-31 37l0 0c-18,-28 -46,-22 -75,-18 0,112 0,219 7,331 59,-88 110,-204 68,-313zm-188 247l0 0c-4,-57 -6,-116 -26,-169l-11 22c-20,118 -26,234 13,344 15,-57 26,-112 24,-169 7,-7 -5,-22 0,-28zm20 -191l0 0c31,140 48,285 -9,427 -9,15 -29,17 -42,17 -24,2 -37,-24 -46,-42 -2,-6 4,-28 -11,-37 -11,-103 -24,-197 0,-295 -2,-39 13,-88 53,-107 26,-4 38,20 55,37zm-896 939l0 0c-37,-17 -77,-46 -108,-76 -15,41 -37,77 -59,116 44,-11 90,-17 130,-29 9,-4 31,-2 37,-11zm1874 24l0 0c-24,-37 -40,-75 -62,-112 -37,24 -66,63 -110,77l9 7 5 -6c46,15 99,17 157,33zm-1389 -92l0 0c-26,-22 -59,-52 -80,-79 -7,31 -31,64 -51,92 31,2 60,-6 88,-2 11,-7 33,-6 44,-11zm867 2l0 0c-27,-28 -35,-61 -51,-87 -20,28 -55,61 -77,77 42,11 82,15 128,13l0 -4zm-2461 -66l0 0c-15,-31 -49,-42 -79,-48 -35,4 -80,28 -93,66 -4,28 -2,61 15,88 13,15 31,29 46,35 57,6 73,4 111,-41 13,-31 24,-68 0,-101zm2040 42l0 0c-35,-28 -59,-72 -79,-107 -18,40 -48,79 -77,110 20,-2 44,6 68,2 31,-2 64,6 88,-6zm2055 -63l0 0c-11,-20 -29,-42 -53,-48 -33,-22 -62,2 -93,13 -15,17 -33,33 -33,59 -4,39 9,77 44,99 22,9 49,20 79,9 26,-13 46,-33 59,-59 6,-24 13,-46 -2,-74zm-3894 -24l0 0c-16,-44 -40,-99 -88,-122 -37,-17 -66,7 -99,22 17,29 4,75 20,103 29,-6 55,-22 84,-29 16,4 26,17 22,33 -20,20 -51,29 -77,41 -9,6 -2,17 0,22 2,17 -5,50 13,55 40,7 77,7 113,-6 37,-35 15,-74 11,-120zm3708 -125l0 0c-24,-20 -59,-28 -86,-28 -69,22 -90,101 -106,162 5,24 -11,61 16,81 38,22 88,18 130,2 -9,-24 7,-42 2,-68 -20,-9 -46,-24 -71,-31 -15,-9 -17,-29 -4,-41 35,-7 69,11 99,28 15,-39 15,-68 20,-105zm-3446 -20l0 0c-11,-26 -33,-46 -60,-55 -42,-7 -84,6 -106,42 -26,41 -11,85 13,118 16,13 38,31 60,22l4 6c26,0 57,-7 73,-28 18,-33 33,-70 16,-105zm3170 -31l0 0c-22,-37 -59,-57 -101,-52 -33,13 -62,37 -75,72 -11,44 11,87 46,112 11,-4 22,15 33,9 35,-2 64,0 86,-35 27,-28 24,-79 11,-107zm-3689 11l0 0c-13,-24 -22,-44 -42,-66 -55,-46 -121,-53 -190,-46 -26,15 -64,13 -84,28 16,17 38,29 59,48l0 11c24,0 44,35 55,52l4 -2c26,35 60,72 80,107 7,-2 5,13 15,11 18,-13 42,-29 62,-22 22,-9 46,0 73,4 -9,-42 -15,-88 -31,-123zm4322 -131l0 0c-11,0 -20,-2 -29,-9 -57,-6 -113,-11 -168,17 -84,41 -104,144 -117,219l48 -11c33,4 60,5 93,24 27,-31 46,-63 71,-98 40,-52 91,-92 135,-131l-33 -11 0 0zm-3282 -13l0 0c-11,-15 -26,-26 -42,-29 -31,-7 -64,4 -88,22 -35,33 -38,77 -22,114 16,28 38,35 60,50 29,6 57,4 75,-15 6,6 9,-7 16,-7 26,-28 33,-68 24,-103 -9,-11 -13,-28 -24,-31zm2090 -15l0 0c-26,-33 -77,-40 -112,-20 -20,15 -46,33 -48,64 -9,31 2,61 24,85 24,26 60,35 91,28 22,-13 49,-22 57,-50 5,-9 11,-26 9,-35 4,-26 -2,-53 -22,-72zm-2338 -37l0 0c-33,-9 -64,-7 -97,-11 -27,-7 -57,-4 -86,15 -11,9 -13,29 -15,44 9,98 48,210 141,247 60,7 130,4 170,-48 -48,-22 -51,-66 -80,-99 -46,9 -97,17 -146,18 -13,-6 -27,-13 -22,-29 20,-33 62,-22 93,-26 31,-11 53,-2 82,-17 4,-11 -4,-20 7,-29 -6,-28 -29,-42 -48,-64zm2636 -17l0 0c-55,-35 -128,-7 -183,-2l-53 59c15,13 13,33 13,42l4 -6 6 6c53,0 91,11 144,13 13,4 24,20 20,33 -11,26 -49,15 -64,18 -35,-9 -77,-11 -110,-17 -7,35 -37,66 -59,90 -15,-6 -13,9 -15,17 42,33 86,44 137,44 53,-4 110,-46 132,-105 27,-59 55,-133 27,-193zm-1806 -9l0 0c-16,-26 -37,-48 -66,-55 -35,-4 -62,0 -91,29 -27,31 -29,74 -17,107 18,37 55,53 90,53 27,0 55,-11 70,-35 22,-26 26,-70 15,-99zm951 -26l0 0c-15,-24 -55,-42 -84,-39 -37,9 -71,37 -82,77 -4,39 11,72 38,99 26,13 46,17 73,13 26,-7 53,-24 66,-48 15,-37 13,-74 -11,-103zm-1320 -105l0 0c-7,0 -16,7 -22,-2l-2 7c-64,31 -166,55 -170,145l38 39c44,-17 97,-35 143,-52 5,4 16,-11 22,4 11,9 15,20 9,33 -51,31 -102,37 -152,64 6,40 -13,81 -22,122l53 9c7,-9 20,2 29,-7l5 4c16,-7 35,-20 53,-22 64,-35 77,-112 77,-173 -5,-55 -13,-125 -62,-171zm1665 53l0 0c-26,-20 -62,-37 -95,-55 -7,0 -22,-11 -26,-4 -46,-11 -46,46 -64,74 2,31 -24,61 -11,94 -15,9 9,17 -4,26 7,33 9,74 33,101 35,53 99,64 155,66 11,-9 27,4 33,-15 -20,-35 -27,-74 -22,-110 4,-13 -17,-13 -22,-13 -46,-24 -99,-26 -133,-55 -9,-13 4,-22 5,-31 4,-9 15,-2 20,-7 7,11 20,-4 22,15 11,-6 24,-2 26,6 27,7 55,17 86,29 27,17 31,-24 53,-31 -2,-31 -16,-75 -57,-88zm-1898 -298l0 0c-58,-42 -133,-13 -196,0 -51,13 -95,31 -130,77 -26,112 46,193 121,276 27,17 49,88 88,37 18,-20 -7,-61 -9,-90 0,-28 -15,-50 -16,-70 -9,-39 -11,-64 -22,-99 2,-15 18,-15 26,-20 16,-2 20,18 27,26 18,79 40,158 57,236 13,-2 26,2 44,2 9,-17 15,-46 20,-68 2,-11 13,-26 6,-31 22,-92 48,-201 -15,-274zm2134 -24l0 0c-16,-9 -44,-9 -62,-17 -44,6 -99,18 -110,66 -9,7 7,18 -7,22l4 6c-4,17 0,35 -11,53 5,33 7,64 11,96 0,15 7,26 11,39 13,41 22,79 37,116 16,-2 48,11 49,-18 0,-20 9,-39 7,-53l4 -6c15,-55 24,-118 42,-177 4,-6 16,-13 24,-11 11,6 20,15 22,28 -16,74 -29,142 -48,212 -22,35 15,50 38,63 37,-39 79,-83 113,-129 31,-52 73,-118 66,-179 -27,-87 -113,-98 -190,-110zm-1629 1068l0 0c169,-19 343,-27 516,-30 11,7 24,-6 33,2 11,-4 24,-2 33,-4l4 4c4,0 5,-4 7,-4 150,3 286,12 434,31l-1027 1 0 0zm-1029 0l0 0c11,-29 20,-59 31,-85 38,-33 64,29 101,39 5,7 20,0 22,11 80,37 146,26 223,4 71,-28 139,-122 148,-210 4,-17 24,-24 37,-20 26,28 53,64 86,88 82,63 177,48 267,28 71,-24 113,-99 126,-169 -11,-13 5,-28 11,-37 16,-15 37,6 44,18 13,57 73,116 126,138 26,6 46,17 71,9 4,9 9,-4 16,2 113,-4 159,-112 190,-199l-4 -2 15 -17c16,-15 29,7 40,18 5,13 2,18 5,31 38,81 93,171 192,166 69,0 139,-37 181,-99 16,-26 18,-70 53,-77 26,2 22,29 27,46 -5,4 2,9 5,13 4,50 49,123 112,147 66,2 135,46 208,6 57,-29 106,-57 143,-120 9,-7 26,-7 37,2 13,39 27,94 55,123 11,39 57,74 90,85 5,15 22,6 31,11 11,-2 11,18 20,4 7,4 15,13 22,7 13,9 40,7 57,11 71,-6 141,-35 196,-87 15,-6 27,-4 37,9 16,37 26,72 41,105l-54 0c-6,-16 -12,-33 -19,-48 -30,13 -64,35 -91,48l-227 0c-4,-2 -8,-4 -11,-6 -13,-4 -31,2 -40,-11 -26,9 -48,-15 -73,-11 -13,0 -15,-15 -26,-4 -139,-44 -291,-50 -437,-81l-9 6c-86,-13 -152,-20 -243,-29 -47,2 -82,-2 -122,-6 -40,13 -84,-11 -124,2 -27,-7 -53,4 -80,-6 -37,7 -73,6 -108,4 -37,13 -68,0 -102,11 -205,7 -380,37 -572,68 -13,-5 -20,17 -29,4 -42,15 -84,17 -122,33l-6 -4c-41,8 -82,19 -124,30l-322 0c-18,-10 -35,-21 -54,-28 -3,10 -6,19 -9,27l-55 1zm-438 0l0 0c-15,-15 -29,-31 -43,-46 -22,0 -40,-6 -66,-4 -44,-11 -101,-52 -108,-103 -7,-40 2,-83 18,-121 -62,-87 -137,-191 -229,-238l-22 -2c7,-20 -22,2 -5,-15 -4,-2 -6,-2 -6,-2 0,0 8,1 6,-7 13,-22 40,-11 55,-31 15,-6 22,4 29,-11l22 -2c11,-9 33,-11 49,-17 33,-11 59,2 97,-6 2,9 18,0 24,11 9,-6 22,-2 37,2 64,26 124,87 141,158 42,-11 102,-35 150,-4 75,44 101,140 112,219 -9,28 -6,61 -33,83 -35,37 -84,22 -126,31 35,52 88,64 137,68 31,-4 60,-20 77,-52 11,-57 31,-101 26,-164 -57,-13 -90,-61 -104,-110 -4,-39 2,-85 27,-118 40,-44 95,-61 154,-46 48,11 77,52 95,96 2,26 15,68 -9,92 -5,18 -15,35 -26,48 57,55 115,110 192,116 57,4 110,-35 141,-85 13,-18 16,-42 31,-59l-5 -7c-64,35 -161,40 -223,-4 -88,-72 -110,-169 -124,-272l7 -9c-6,-20 0,-48 22,-63 40,-35 77,-26 121,-26 16,-15 29,11 48,-4 -37,-42 -64,-88 -86,-134l4 -6c-20,-18 -13,-46 -22,-70 -6,-68 35,-110 88,-144 26,-18 62,-15 93,-33 81,-24 183,-41 247,33 18,22 26,52 29,77 20,66 -2,134 -6,199l6 4c44,-26 93,-66 144,-68 5,13 13,-4 18,2 93,33 95,158 102,247 6,68 -37,131 -90,173 -42,24 -95,41 -139,37l0 11c35,31 79,53 119,61 38,7 69,-2 102,-9 26,-22 57,-41 75,-70 24,-31 35,-68 46,-103 -42,-22 -69,-68 -82,-114 -7,-57 20,-110 69,-144 29,-17 62,-13 88,-17 49,9 95,39 117,90 20,55 4,118 -40,164 37,59 119,109 194,98 49,-39 42,-109 33,-166 -31,-24 -48,-61 -71,-85l4 -2c-44,-61 -88,-129 -104,-201 -33,-98 -53,-206 -2,-295 4,-4 9,-9 4,-13 31,-28 64,-64 108,-66 22,-15 51,-9 77,-22 9,2 22,7 22,-7 2,-4 -4,-4 -4,-6 18,-18 2,-40 4,-55 -6,-35 35,-66 42,-81 22,-6 40,-24 68,-17 13,0 35,-11 46,4 29,0 55,11 75,42 22,41 13,68 16,112l11 9 4 -4c88,13 177,35 216,129 13,59 20,122 6,175 -13,7 2,17 -6,24 -33,125 -91,258 -186,357 -4,52 -11,107 24,158 82,26 159,-40 201,-96 -18,-33 -55,-68 -44,-112 -2,-9 -5,-33 5,-48 22,-50 44,-77 102,-94 58,-13 119,17 152,66 0,6 9,18 13,28 20,44 0,87 -20,131 -11,31 -82,35 -44,77 20,64 66,123 137,144 2,0 0,7 6,6 18,-4 38,7 57,0 53,-2 101,-35 137,-70 -86,-6 -181,-39 -216,-127 -4,-24 -26,-53 -15,-85l-7 -6c-5,-81 22,-160 62,-221 24,-28 57,-18 88,-17l5 6c9,-4 24,2 33,9 31,17 53,26 82,42 -5,-39 -11,-85 -13,-123 -2,-15 -7,-33 4,-48 -9,-9 0,-24 0,-35 5,-55 51,-99 102,-121l31 -4 18 0c64,-7 143,26 201,42l7 11c2,-2 2,-5 2,-7 40,13 80,64 95,103 -9,7 5,15 4,22 2,86 -47,162 -99,230l4 7c42,-4 82,-6 128,2 11,6 33,13 44,29l9 7c-6,11 18,22 4,37 22,48 -13,85 -11,136 -31,87 -91,182 -196,186 -42,6 -90,-9 -128,-22 -9,15 7,26 7,39 26,44 60,81 108,103 95,26 179,-48 239,-110 -13,-31 -31,-61 -40,-88 6,-42 11,-90 46,-120 18,-17 38,-26 59,-33l4 4c35,-18 75,-4 117,13 37,28 59,74 60,110 4,39 -11,85 -42,110 -18,22 -53,24 -68,48 13,72 13,151 68,193 55,29 115,-6 161,-35l18 -24c-24,-9 -51,-2 -77,-7 -26,-11 -51,-20 -69,-44 -22,-81 -4,-160 40,-234 31,-42 75,-64 128,-66 4,7 9,7 15,2 4,0 5,6 9,7 13,-7 33,11 49,11 20,-28 26,-64 48,-85 18,-28 53,-55 84,-70 80,-39 159,-18 249,2 13,4 35,6 37,20 15,-7 24,7 40,13 27,48 -42,33 -62,57 -71,59 -146,142 -190,221 6,44 40,77 18,123 -13,57 -64,88 -117,99 -15,7 -38,-2 -51,0 -23,27 -46,54 -70,80l-67 0c31,-29 59,-62 88,-93 -11,-9 -24,-28 -38,-33 -44,61 -115,109 -186,112 -22,-9 -48,4 -68,-13 -11,4 -15,-17 -22,-11 -68,-61 -68,-145 -79,-230 -16,2 -33,-13 -48,-11 -55,50 -117,99 -186,121 -9,0 -22,4 -29,9 -93,6 -165,-41 -210,-123 -20,-39 -33,-77 -48,-112 5,-24 -26,-6 -31,-20l-6 4c-37,-26 -51,7 -79,26 -40,53 -106,81 -168,96 -6,0 -15,-7 -18,0 -4,4 -7,4 -11,-2 -27,2 -49,-2 -77,-6 -90,-26 -139,-127 -168,-204 -22,0 -37,2 -55,-9 -29,20 -51,61 -86,81 -57,41 -128,57 -194,30 -66,-63 -48,-138 -40,-225 4,-9 11,-15 22,-15 71,-90 115,-173 148,-282 22,-52 31,-121 27,-180 -16,-85 -90,-118 -163,-131 -26,-9 -71,9 -86,-20 2,-44 15,-94 -2,-131 -13,2 -22,-11 -31,-17 -33,-7 -79,-9 -111,20 -6,13 -7,35 -16,48l5 0c0,31 26,72 -11,98 -35,4 -68,-2 -104,13 -57,13 -104,55 -117,114 -7,13 4,35 -7,48 0,44 15,101 26,138 7,15 11,40 22,53 33,88 88,179 159,250 16,76 24,173 -53,228 -91,28 -197,-33 -261,-110 -7,0 -20,-2 -27,4 -42,-18 -37,41 -53,59 -16,24 -16,40 -38,63l4 2c-29,42 -75,74 -117,81 -9,9 -26,13 -33,9 -73,13 -139,-7 -188,-52 -15,-6 -37,-22 -44,-35 -24,-13 -40,-68 -73,-28 -18,4 -40,-4 -48,15 -26,92 -79,214 -183,236 -102,28 -219,-51 -285,-123l-48 13c-4,13 -2,24 -5,33 -2,68 -13,134 -60,191 -12,9 -25,16 -39,20l-126 0c-16,-6 -29,-21 -44,-21 -26,-29 -64,-48 -84,-77 -6,11 -29,18 -31,35 19,22 38,43 57,63l-60 0z"/>
   <path class="fil6" d="M690 987c-13,-24 -22,-44 -42,-66 -55,-46 -121,-53 -190,-46 -26,15 -64,13 -84,28 16,17 38,29 59,48l0 11c24,0 44,35 55,52l4 -2c26,35 60,72 80,107 7,-2 5,13 15,11 18,-13 42,-29 62,-22 22,-9 46,0 73,4 -9,-42 -15,-88 -31,-123z"/>
   <path class="fil6" d="M1209 1007c-11,-26 -33,-46 -60,-55 -42,-7 -84,5 -106,42 -26,41 -11,85 13,118 16,13 38,31 60,22l4 5c26,0 57,-7 73,-28 18,-33 33,-70 16,-105z"/>
   <path class="fil6" d="M948 1152c-16,-44 -40,-99 -88,-121 -37,-17 -66,7 -99,22 17,29 4,75 20,103 29,-6 55,-22 84,-30 16,4 26,17 22,33 -20,20 -51,29 -77,40 -9,6 -2,17 0,22 2,17 -6,50 13,55 40,7 77,7 113,-6 37,-35 15,-74 11,-120z"/>
   <path class="fil6" d="M746 1197c-15,-31 -49,-42 -79,-48 -35,4 -80,28 -93,66 -4,28 -2,61 15,88 13,15 31,29 46,35 57,6 73,4 111,-40 13,-31 24,-68 0,-101z"/>
   <path class="fil6" d="M2768 1294c-27,-7 -53,4 -80,-6 -37,7 -73,6 -108,4 -37,13 -68,0 -102,11 -205,7 -380,37 -572,68 -13,-6 -20,17 -29,4 -42,15 -84,17 -123,33l-5 -4c-69,13 -141,37 -214,53 -15,13 -42,7 -60,22 -166,42 -305,94 -466,160 -9,13 -16,28 -20,42 5,35 22,52 53,63 113,-42 252,-94 377,-136 38,-15 82,-22 119,-35 75,-20 161,-44 241,-59l7 -7 4 6c293,-81 618,-103 942,-109 11,7 24,-5 33,2 11,-4 24,-2 33,-4l4 4c4,0 6,-4 7,-4 159,4 303,13 463,35 15,0 29,0 42,4 18,2 38,6 55,6 197,28 404,79 592,127 90,20 177,63 265,85 20,17 59,18 79,35 29,2 57,22 86,24 15,0 33,-15 42,-28 18,-26 2,-50 -11,-72 -68,-28 -126,-50 -192,-76 -55,-17 -112,-28 -165,-55l-2 7c-9,-13 -27,-4 -37,-15 -46,-9 -90,-26 -132,-40 -13,7 -38,-4 -49,-11 -13,-4 -31,2 -40,-11 -26,9 -47,-15 -73,-11 -13,0 -15,-15 -26,-4 -139,-44 -291,-50 -437,-81l-9 6c-86,-13 -152,-20 -243,-29 -48,2 -82,-2 -122,-6 -40,13 -84,-11 -124,2l0 0z"/>
   <path class="fil6" d="M3288 1493c-15,-7 -55,-7 -77,-11 7,4 20,4 26,6l-2 4 44 39c20,42 35,87 13,133 -18,35 -51,63 -90,72 44,9 93,6 144,18 -7,-29 -24,-53 -20,-88 9,-35 38,-64 73,-79 9,2 27,-4 42,-4 11,6 31,4 40,11 58,5 124,22 186,28 31,9 59,9 82,33 27,31 33,64 24,109 -11,24 -27,50 -55,57 22,9 46,22 68,22 22,-6 37,22 55,9 22,18 42,11 68,22 -2,-7 -16,-6 -13,-17 -22,-2 -9,-29 -27,-39 -9,-50 -9,-105 33,-138 27,-22 53,-41 88,-37l0 -4c-60,-15 -115,-37 -174,-48 -66,-13 -113,-29 -174,-39 -20,-9 -46,-6 -66,-13 -88,-13 -199,-48 -289,-46z"/>
   <path class="fil6" d="M2216 1488c-117,4 -243,44 -362,59 -22,4 -42,18 -68,13 -112,35 -249,61 -362,101 20,7 58,-4 82,22 29,15 42,50 55,70 16,53 -16,103 -38,138 18,0 40,-20 64,-17 35,-15 66,-13 104,-29 -37,2 -80,-9 -102,-50 -24,-37 -13,-66 -2,-103 22,-35 64,-57 104,-55 5,0 26,-11 35,-6l7 -6c84,-11 154,-41 232,-22 35,13 51,48 62,81 0,37 -15,64 -38,90 49,-7 91,-11 139,-24 31,0 64,-2 88,-13 -37,-2 -59,-33 -77,-53 -20,-37 -29,-88 -9,-121 18,-35 51,-68 86,-75z"/>
   <path class="fil6" d="M3673 1673l-64 -11c-75,2 -146,-52 -218,-13 -13,7 -11,35 -11,52 7,15 22,35 40,35 46,17 102,11 154,28 44,4 91,22 133,6 18,-9 20,-42 15,-57 -2,-29 -29,-33 -49,-39z"/>
   <path class="fil6" d="M1973 1681c-15,-26 -38,-42 -68,-35 -79,18 -168,33 -247,46 -18,7 -26,26 -27,44 -2,15 -2,44 22,53 58,5 113,-15 166,-20 60,-26 159,6 154,-88z"/>
   <path class="fil6" d="M4136 1683c-26,-7 -55,-13 -79,-22 24,11 37,33 53,53 7,31 22,83 -6,116 -15,40 -64,70 -104,72 53,13 108,33 157,50 7,2 24,17 37,11l-5 -2c-7,-46 -29,-101 -40,-147 13,-35 53,-35 79,-55 18,-4 27,-13 44,-18 4,-9 -11,-7 -13,-17 -37,4 -69,-28 -102,-31 -7,-9 -20,-2 -20,-9z"/>
   <path class="fil6" d="M1359 1683c-35,11 -66,24 -97,29 -31,22 -79,24 -110,48 40,29 106,26 124,79 -9,50 -33,105 -40,153 48,-24 102,-40 150,-57 11,-9 27,0 29,-17 -44,-5 -82,-42 -102,-79 -18,-61 6,-123 46,-156z"/>
   <path class="fil6" d="M2637 1760c-20,0 -40,2 -59,-2 -154,17 -296,18 -442,48 -46,0 -97,17 -139,18 -101,22 -197,44 -304,70 -26,7 -48,17 -68,17 -68,28 -128,35 -199,66 -11,2 -31,11 -42,7 -27,17 -51,28 -80,31l2 7 91 -6 6 6c69,-9 141,6 210,-6 15,-4 31,-9 44,-7 179,-55 382,-94 561,-120 66,-7 133,-24 199,-17 84,-11 172,-22 267,-15l4 -4c29,9 69,-4 102,2 79,-4 141,4 218,6 9,2 26,9 35,4 139,6 292,35 435,59 73,15 137,20 205,46 16,-4 35,6 51,9 53,24 119,20 170,24 59,-4 97,0 154,-4 9,-4 31,2 42,-2l4 4c5,-6 24,2 22,-7 -15,-7 -33,-11 -46,-13 -82,-39 -166,-48 -247,-77 -60,-15 -121,-26 -172,-46l0 4c-108,-26 -247,-53 -360,-63l0 -4c-88,-13 -183,-18 -280,-28 -9,6 -20,-17 -29,-2 -115,-9 -252,-11 -355,-7z"/>
   <path class="fil6" d="M4344 1800l-5 -31c-42,2 -86,44 -132,57 22,50 22,96 42,147 35,-13 69,-35 104,-46 9,-2 16,-6 24,-15 0,-7 0,-13 -5,-18 -4,-31 -22,-68 -27,-94z"/>
   <path class="fil6" d="M1218 1848c-42,-18 -79,-46 -124,-57 -18,48 -29,99 -40,147 40,26 79,29 112,55 9,-4 15,13 18,-2 7,-50 29,-96 35,-144z"/>
   <path class="fil6" d="M2870 1581c-55,-24 -112,-46 -168,-64 -59,24 -110,50 -161,64 26,13 53,17 77,35 24,4 51,18 75,22 26,18 53,-15 77,-15 35,-18 66,-30 101,-42z"/>
   <path class="fil6" d="M3843 366c-16,-9 -44,-9 -62,-17 -44,6 -99,18 -110,66 -9,7 7,18 -7,22l4 6c-4,17 0,35 -11,53 5,33 7,64 11,96 0,15 7,26 11,39 13,41 22,79 37,116 16,-2 48,11 49,-18 0,-20 9,-39 7,-53l4 -6c15,-55 24,-118 42,-177 4,-6 16,-13 24,-11 11,6 20,15 22,28 -16,74 -29,142 -48,212 -22,35 15,50 38,63 37,-39 79,-83 113,-129 31,-52 73,-118 66,-179 -27,-87 -113,-98 -190,-110z"/>
   <path class="fil6" d="M1710 390c-58,-42 -133,-13 -196,0 -51,13 -95,31 -130,77 -26,112 46,193 121,276 27,17 49,88 88,37 18,-20 -7,-61 -9,-90 0,-28 -15,-50 -16,-70 -9,-39 -11,-64 -22,-99 2,-15 18,-15 26,-20 16,-2 20,18 27,26 18,79 40,158 57,236 13,-2 26,2 44,2 9,-17 15,-46 20,-68 2,-11 13,-26 6,-31 22,-92 47,-201 -15,-274z"/>
   <path class="fil6" d="M3608 689c-26,-20 -62,-37 -95,-55 -7,0 -22,-11 -26,-4 -46,-11 -46,46 -64,74 2,31 -24,61 -11,94 -15,9 9,17 -4,26 7,33 9,74 33,101 35,53 99,64 155,66 11,-9 27,4 33,-15 -20,-35 -27,-74 -22,-110 4,-13 -16,-13 -22,-13 -46,-24 -99,-26 -133,-55 -9,-13 4,-22 6,-31 4,-9 15,-2 20,-7 7,11 20,-4 22,15 11,-6 24,-2 26,6 27,7 55,17 86,29 27,17 31,-24 53,-31 -2,-31 -16,-76 -57,-88z"/>
   <path class="fil6" d="M1942 635c-7,0 -16,7 -22,-2l-2 7c-64,31 -166,55 -170,145l38 39c44,-17 97,-35 143,-52 6,4 16,-11 22,4 11,9 15,20 9,33 -51,31 -102,37 -152,64 5,41 -13,81 -22,122l53 9c7,-9 20,2 29,-7l5 4c16,-7 35,-20 53,-22 64,-35 77,-112 77,-173 -5,-55 -13,-125 -62,-171z"/>
   <path class="fil6" d="M3262 740c-15,-24 -55,-42 -84,-39 -37,9 -71,37 -82,77 -4,39 11,72 38,99 26,13 46,17 73,13 26,-7 53,-24 66,-48 15,-37 13,-74 -11,-103z"/>
   <path class="fil6" d="M2311 766c-16,-26 -37,-48 -66,-55 -35,-4 -62,0 -91,29 -27,31 -29,74 -16,107 18,37 55,53 90,53 27,0 55,-11 69,-35 22,-26 26,-70 15,-99l0 0z"/>
   <path class="fil6" d="M4118 775c-55,-35 -128,-7 -183,-2l-53 59c15,13 13,33 13,42l4 -6 5 6c53,0 91,11 144,13 13,4 24,20 20,33 -11,26 -49,15 -64,18 -35,-9 -77,-11 -110,-17 -7,35 -37,66 -59,90 -15,-6 -13,9 -15,17 42,33 86,44 137,44 53,-4 110,-46 132,-105 27,-59 55,-133 27,-193z"/>
   <path class="fil6" d="M1481 792c-33,-9 -64,-7 -97,-11 -27,-7 -57,-4 -86,15 -11,9 -13,29 -15,44 9,98 48,210 141,247 60,7 130,4 170,-48 -48,-22 -51,-66 -80,-99 -46,9 -97,17 -146,18 -13,-6 -27,-13 -22,-29 20,-33 62,-22 93,-26 31,-11 53,-2 82,-17 4,-11 -4,-20 7,-29 -5,-28 -29,-42 -48,-64z"/>
   <path class="fil6" d="M3820 829c-26,-33 -77,-40 -112,-20 -20,15 -46,33 -48,64 -9,31 2,61 24,85 24,26 60,35 91,28 22,-13 49,-22 57,-50 6,-9 11,-26 9,-35 4,-26 -2,-53 -22,-72z"/>
   <path class="fil6" d="M1730 843c-11,-15 -26,-26 -42,-29 -31,-7 -64,4 -88,22 -35,33 -38,77 -22,114 16,28 38,35 60,50 29,6 57,4 75,-15 5,6 9,-7 16,-7 26,-28 33,-68 24,-103 -9,-11 -13,-28 -24,-31z"/>
   <path class="fil6" d="M5012 856c-11,0 -20,-2 -29,-9 -57,-6 -113,-11 -168,17 -84,40 -104,144 -117,219l48 -11c33,4 60,6 93,24 27,-31 46,-63 71,-98 40,-52 91,-92 135,-131l-33 -11 0 0z"/>
   <path class="fil6" d="M4379 976c-22,-37 -59,-57 -101,-52 -33,13 -62,37 -75,72 -11,44 11,87 46,112 11,-4 22,15 33,9 35,-2 64,0 86,-35 27,-28 24,-79 11,-107z"/>
   <path class="fil6" d="M4655 1027c-24,-20 -59,-28 -86,-28 -69,22 -90,101 -106,162 6,24 -11,61 16,81 38,22 88,18 130,2 -9,-24 7,-42 2,-68 -20,-9 -46,-24 -71,-31 -15,-9 -17,-29 -4,-41 35,-7 69,11 99,28 15,-39 15,-68 20,-105z"/>
   <path class="fil6" d="M4842 1176c-11,-20 -29,-42 -53,-48 -33,-22 -62,2 -93,13 -15,17 -33,33 -33,59 -4,39 9,77 44,99 22,9 49,20 79,9 26,-13 46,-33 59,-59 6,-24 13,-46 -2,-74z"/>
   <path class="fil2" d="M1837 2180c-7,-4 -17,-8 -32,-12 -15,-5 -35,-7 -61,-7 -25,0 -49,7 -73,21 -24,14 -44,36 -61,66 -16,30 -25,69 -25,118 1,64 16,114 46,151 30,37 70,56 119,57 23,0 41,-2 56,-5 15,-3 26,-6 33,-9l-3 -83c-4,3 -12,7 -24,12 -12,5 -28,8 -48,9 -27,-1 -49,-13 -66,-36 -17,-23 -26,-55 -27,-94 0,-41 9,-73 25,-96 16,-23 38,-35 67,-35 19,0 34,3 46,8 11,5 20,10 26,14l4 -78z"/>
   <path class="fil2" d="M2054 2410l-80 0 42 -165 1 0 37 165zm38 156l0 0 85 0 -114 -398 -91 0 -118 398 80 0 24 -89 111 0 22 89z"/>
   <path class="fil2" d="M2298 2237l21 0c32,0 56,12 70,36 15,23 22,56 22,97 0,37 -7,67 -21,90 -14,23 -36,35 -66,36l-26 0 0 -259zm-83 329l0 0 115 0c30,0 58,-7 84,-20 26,-14 46,-35 62,-64 16,-29 24,-66 24,-112 0,-50 -8,-89 -23,-119 -15,-30 -35,-51 -59,-64 -24,-13 -49,-19 -76,-19l-126 0 0 398z"/>
   <polygon class="fil2" points="2637,2566 2553,2566 2553,2168 2637,2168 "/>
   <polygon class="fil2" points="2915,2168 2688,2168 2688,2240 2822,2240 2685,2489 2685,2566 2918,2566 2918,2494 2778,2494 2915,2241 "/>
   <path class="fil2" d="M3341 2180c-7,-4 -17,-8 -32,-12 -15,-4 -35,-7 -61,-7 -25,0 -49,7 -73,21 -24,14 -45,36 -61,66 -16,30 -25,69 -25,118 1,64 16,114 46,151 30,37 70,56 119,57 23,0 41,-2 56,-5 15,-3 26,-6 33,-9l-3 -83c-4,3 -12,7 -24,12 -12,5 -28,8 -48,9 -27,-1 -49,-13 -66,-36 -17,-23 -26,-55 -27,-94 0,-41 9,-73 25,-96 16,-23 38,-35 67,-35 19,0 34,3 46,8 12,5 20,10 27,14l4 -78z"/>
   <polygon class="fil2" points="3459,2566 3386,2566 3386,2480 3459,2480 "/>
   <polygon class="fil2" points="3602,2330 3602,2237 3718,2237 3718,2168 3522,2168 3522,2566 3602,2566 3602,2399 3714,2399 3714,2330 "/>
   <polygon class="fil2" points="3796,2566 3723,2566 3723,2481 3796,2481 "/>
  </g>
 </g>
</svg>
