<?xml version="1.0" encoding="UTF-8" standalone="no"?>
<svg xmlns:dc="http://purl.org/dc/elements/1.1/" xmlns:cc="http://creativecommons.org/ns#" xmlns:rdf="http://www.w3.org/1999/02/22-rdf-syntax-ns#" xmlns:svg="http://www.w3.org/2000/svg" xmlns="http://www.w3.org/2000/svg" xmlns:sodipodi="http://sodipodi.sourceforge.net/DTD/sodipodi-0.dtd" xmlns:inkscape="http://www.inkscape.org/namespaces/inkscape" inkscape:version="1.0 (4035a4f, 2020-05-01)" sodipodi:docname="340.svg" id="svg13716" height="200.0pt" width="200.0pt" viewBox="0 0 200 200" version="1.1">
  <metadata id="metadata13722">
    <rdf:RDF>
      <cc:Work rdf:about="">
        <dc:format>image/svg+xml</dc:format>
        <dc:type rdf:resource="http://purl.org/dc/dcmitype/StillImage"/>
      </cc:Work>
    </rdf:RDF>
  </metadata>
  <defs id="defs13720"/>
  <sodipodi:namedview inkscape:current-layer="svg13716" inkscape:cy="133.33333" inkscape:cx="133.33333" inkscape:zoom="1.75125" showgrid="false" id="namedview13718" inkscape:window-height="480" inkscape:window-width="640" inkscape:pageshadow="2" inkscape:pageopacity="0" guidetolerance="10" gridtolerance="10" objecttolerance="10" borderopacity="1" bordercolor="#666666" pagecolor="#ffffff"/>
  <path style="fill:#ffffff;fill-opacity:0" id="path13554" fill="#ffffff" d="M 0.00 0.00 L 200.00 0.00 L 200.00 200.00 L 0.00 200.00 L 0.00 0.00 Z"/>
  <path id="path13556" fill="#010000" d="M 112.51 2.75 C 118.44 4.08 124.81 6.50 129.35 10.66 C 132.46 13.60 134.51 17.45 133.51 21.83 C 132.25 26.86 128.40 29.55 124.30 32.21 C 124.77 36.08 125.01 39.75 124.32 43.63 C 127.51 42.76 130.65 41.51 134.00 42.22 C 138.31 43.02 141.61 45.32 145.06 47.88 C 147.01 44.72 148.49 40.72 151.21 38.16 C 154.44 35.92 158.25 38.00 161.14 39.80 C 166.61 43.35 169.04 49.30 174.45 52.55 C 178.34 54.86 183.05 54.49 187.38 54.31 C 182.12 64.92 176.72 75.45 171.42 86.03 C 164.12 85.64 157.30 83.55 151.95 78.38 C 150.41 78.16 148.87 77.92 147.34 77.68 C 147.48 102.12 147.31 126.56 147.39 151.00 C 147.37 153.29 147.51 155.67 147.11 157.93 C 146.26 160.28 144.32 161.28 142.14 162.17 C 128.08 167.59 114.07 173.06 100.01 178.50 C 86.21 173.13 72.42 167.75 58.60 162.45 C 56.82 161.71 54.81 161.00 53.66 159.34 C 52.49 157.72 52.73 155.91 52.63 154.00 C 52.73 128.55 52.55 103.09 52.70 77.64 C 51.17 77.90 49.64 78.15 48.11 78.39 C 42.79 83.56 35.87 85.65 28.59 85.99 C 23.28 75.43 18.01 64.84 12.65 54.30 C 17.98 54.63 22.96 54.82 27.39 51.35 C 32.00 47.59 34.51 42.17 40.06 39.07 C 42.64 37.74 46.16 36.02 48.79 38.14 C 51.57 40.65 53.07 44.69 55.00 47.87 C 58.45 45.35 61.70 43.04 66.00 42.22 C 69.33 41.51 72.53 42.72 75.69 43.61 C 75.21 39.97 75.40 36.41 75.63 32.77 C 74.64 31.01 72.04 29.90 70.59 28.39 C 66.86 25.10 65.05 19.95 67.27 15.24 C 69.52 10.54 74.58 7.37 79.22 5.39 C 89.58 1.09 101.60 0.53 112.51 2.75 Z"/>
  <path id="path13558" fill="#fecc05" d="M 118.00 7.06 C 122.96 8.93 129.03 12.39 130.31 17.96 C 131.29 23.36 127.12 27.84 122.43 29.76 C 123.87 27.53 126.00 25.46 126.96 22.97 C 127.88 19.42 125.25 16.33 122.49 14.49 C 117.75 11.41 111.56 10.14 106.01 9.58 C 97.69 8.87 88.54 9.45 80.77 12.75 C 77.77 14.06 73.93 16.59 73.17 20.00 C 72.16 24.13 75.71 26.58 77.59 29.82 C 72.71 27.67 68.16 22.73 70.00 17.04 C 71.89 11.56 78.31 8.26 83.47 6.56 C 94.39 3.11 107.21 3.17 118.00 7.06 Z"/>
  <path id="path13560" fill="#ffffff" d="M 92.09 14.45 L 92.45 14.40 C 86.52 16.96 83.02 19.68 78.92 24.63 C 78.38 23.42 77.89 22.18 77.47 20.92 C 79.57 17.31 85.15 15.89 88.93 14.92 C 89.98 14.73 91.03 14.57 92.09 14.45 Z"/>
  <path id="path13562" fill="#ffffff" d="M 107.70 14.46 L 107.78 14.47 C 112.60 15.14 119.74 16.55 122.59 20.92 C 122.15 22.17 121.66 23.40 121.12 24.61 C 117.26 19.94 113.50 16.86 107.85 14.53 L 107.73 14.47 L 107.70 14.46 Z"/>
  <path id="path13564" fill="#ffffff" d="M 91.90 17.21 C 94.52 19.26 97.21 21.12 100.01 22.90 C 102.82 21.10 105.62 19.31 108.16 17.14 C 110.05 18.14 111.92 19.18 113.78 20.23 C 113.53 23.87 113.61 27.50 113.71 31.14 C 116.58 33.03 119.47 34.85 122.57 36.34 C 122.77 41.30 121.72 45.34 119.64 49.78 C 116.86 47.20 112.20 49.37 108.78 49.65 C 107.13 52.43 105.47 55.21 103.83 57.99 C 104.35 58.79 104.88 59.58 105.41 60.38 C 101.71 60.87 98.36 60.86 94.66 60.38 C 95.18 59.58 95.70 58.78 96.23 57.98 C 94.56 55.21 92.93 52.42 91.26 49.64 C 87.82 49.38 83.18 47.18 80.42 49.81 C 78.30 45.27 77.29 41.40 77.48 36.33 C 80.58 34.85 83.48 33.02 86.35 31.14 C 86.42 27.50 86.48 23.87 86.24 20.24 C 88.11 19.18 89.95 18.12 91.90 17.21 Z"/>
  <path id="path13566" fill="#010000" d="M 100.02 27.71 C 103.46 30.01 106.73 32.56 110.10 34.96 C 108.68 38.86 107.80 43.09 105.98 46.82 C 101.95 47.07 97.90 46.86 93.87 46.91 C 92.55 42.93 91.26 38.94 89.95 34.95 C 93.33 32.56 96.59 30.01 100.02 27.71 Z"/>
  <path id="path13568" fill="#da2128" d="M 47.06 39.55 C 48.44 40.23 49.08 41.52 49.25 43.00 C 48.84 45.37 47.21 46.90 45.52 48.43 C 44.15 45.80 42.81 43.16 41.49 40.51 C 43.27 40.10 45.23 39.34 47.06 39.55 Z"/>
  <path id="path13570" fill="#da2128" d="M 152.17 40.06 C 153.88 38.78 156.68 40.01 158.48 40.61 C 157.18 43.23 155.86 45.85 154.52 48.46 C 152.72 46.95 151.47 45.06 150.40 42.99 C 150.93 41.98 151.52 41.00 152.17 40.06 Z"/>
  <path id="path13572" fill="#ffffff" d="M 41.49 40.51 C 42.81 43.16 44.15 45.80 45.52 48.43 C 42.56 50.63 39.58 52.75 36.94 55.35 C 36.21 52.74 35.07 50.30 33.78 47.93 C 35.99 45.05 38.64 42.73 41.49 40.51 Z"/>
  <path id="path13574" fill="#ffffff" d="M 158.48 40.61 C 161.50 42.60 164.02 45.08 166.26 47.91 C 164.98 50.31 163.85 52.76 163.11 55.38 C 160.49 52.75 157.52 50.62 154.52 48.46 C 155.86 45.85 157.18 43.23 158.48 40.61 Z"/>
  <path id="path13576" fill="#ffffff" d="M 68.62 44.18 C 69.54 50.67 70.32 57.18 71.25 63.67 C 68.69 64.01 66.24 64.60 63.93 65.78 C 62.04 59.95 60.18 54.11 58.21 48.30 C 61.33 46.00 64.71 44.44 68.62 44.18 Z"/>
  <path id="path13578" fill="#ffffff" d="M 131.62 44.20 C 135.43 44.48 138.78 46.05 141.82 48.29 C 139.92 54.13 137.97 59.96 136.13 65.81 C 133.82 64.61 131.36 64.00 128.79 63.67 C 129.74 57.20 130.53 50.69 131.37 44.20 L 131.62 44.20 Z"/>
  <path id="path13580" fill="#ffffff" d="M 50.91 45.81 L 51.04 45.61 L 51.22 45.30 C 51.85 46.72 52.55 48.12 53.08 49.58 C 51.79 51.08 50.32 52.32 48.79 53.56 L 48.15 53.91 C 47.49 52.88 46.82 51.86 46.15 50.85 C 47.95 49.37 49.45 47.62 50.91 45.81 Z"/>
  <path id="path13582" fill="#da2128" d="M 68.62 44.18 C 71.30 44.64 73.88 45.43 76.43 46.35 C 77.34 48.24 78.27 50.13 79.22 52.00 C 79.45 56.83 79.31 61.68 79.26 66.51 C 76.69 65.23 74.06 64.28 71.25 63.67 C 70.32 57.18 69.54 50.67 68.62 44.18 Z"/>
  <path id="path13584" fill="#da2128" d="M 131.37 44.20 C 130.53 50.69 129.74 57.20 128.79 63.67 C 125.99 64.28 123.37 65.22 120.82 66.50 C 120.75 61.65 120.60 56.78 120.87 51.95 C 121.81 50.09 122.73 48.23 123.62 46.35 C 126.15 45.45 128.71 44.66 131.37 44.20 Z"/>
  <path id="path13586" fill="#ffffff" d="M 148.94 45.54 L 149.09 45.73 C 150.60 47.60 152.11 49.42 154.00 50.93 C 153.26 51.77 152.51 52.61 151.76 53.45 L 151.22 53.43 C 149.63 52.16 148.16 50.77 146.69 49.37 C 147.44 48.09 148.17 46.81 148.94 45.54 Z"/>
  <path id="path13588" fill="#da2128" d="M 33.78 47.93 C 35.07 50.30 36.21 52.74 36.94 55.35 C 38.92 62.95 43.30 69.88 46.40 77.09 C 43.98 78.89 41.53 80.59 38.73 81.77 C 34.41 72.96 29.95 64.23 25.61 55.43 C 29.02 53.63 31.40 50.87 33.78 47.93 Z"/>
  <path id="path13590" fill="#da2128" d="M 166.26 47.91 C 168.63 50.87 171.03 53.62 174.45 55.42 C 170.15 64.25 165.67 72.99 161.28 81.77 C 158.49 80.62 156.06 78.91 153.68 77.09 C 156.74 69.87 161.14 62.97 163.11 55.38 C 163.85 52.76 164.98 50.31 166.26 47.91 Z"/>
  <path id="path13592" fill="#da2128" d="M 58.21 48.30 C 60.18 54.11 62.04 59.95 63.93 65.78 C 61.27 67.49 58.83 69.47 56.43 71.54 C 53.95 66.44 51.53 61.33 49.06 56.23 C 52.15 53.61 54.97 50.74 58.21 48.30 Z"/>
  <path id="path13594" fill="#da2128" d="M 141.82 48.29 C 145.07 50.73 147.89 53.63 150.98 56.24 C 148.51 61.34 146.11 66.46 143.60 71.53 C 141.23 69.47 138.79 67.50 136.13 65.81 C 137.97 59.96 139.92 54.13 141.82 48.29 Z"/>
  <path id="path13596" fill="#da2128" d="M 46.15 50.85 C 46.82 51.86 47.49 52.88 48.15 53.91 L 48.79 53.56 C 45.54 56.13 42.99 58.48 38.56 57.17 C 40.81 54.68 43.33 52.67 46.15 50.85 Z"/>
  <path id="path13598" fill="#da2128" d="M 154.00 50.93 C 156.67 52.70 159.27 54.28 161.15 56.96 C 157.55 59.17 153.90 55.53 151.22 53.43 L 151.76 53.45 C 152.51 52.61 153.26 51.77 154.00 50.93 Z"/>
  <path id="path13600" fill="#ffffff" d="M 79.22 52.00 C 81.61 55.18 84.46 57.95 87.88 60.00 C 87.86 63.90 87.87 67.80 87.93 71.71 C 85.07 69.93 82.22 68.10 79.26 66.51 C 79.31 61.68 79.45 56.83 79.22 52.00 Z"/>
  <path id="path13602" fill="#ffffff" d="M 120.87 51.95 C 120.60 56.78 120.75 61.65 120.82 66.50 C 117.84 68.10 114.97 69.93 112.11 71.72 C 112.19 67.81 112.20 63.90 112.16 59.99 C 115.60 57.93 118.45 55.13 120.87 51.95 Z"/>
  <path id="path13604" fill="#da2128" d="M 21.95 56.42 C 22.44 57.57 22.94 58.73 23.43 59.89 C 21.81 60.27 20.20 60.65 18.58 61.04 C 17.91 59.69 17.24 58.34 16.57 57.00 C 18.37 56.82 20.16 56.66 21.95 56.42 Z"/>
  <path id="path13606" fill="#ffffff" d="M 21.95 56.42 C 23.19 56.12 24.41 55.79 25.61 55.43 C 29.95 64.23 34.41 72.96 38.73 81.77 C 37.58 82.17 36.41 82.52 35.24 82.84 C 34.51 81.47 33.79 80.09 33.07 78.72 C 31.39 79.13 29.72 79.54 28.04 79.94 C 27.42 78.68 26.79 77.43 26.16 76.18 C 27.81 75.74 29.46 75.31 31.11 74.88 C 30.55 73.71 29.99 72.55 29.39 71.40 L 28.84 71.33 C 27.31 71.63 25.78 72.03 24.27 72.41 C 23.64 71.15 23.01 69.90 22.38 68.65 C 24.06 68.18 25.73 67.70 27.41 67.22 C 26.74 66.04 26.07 64.86 25.40 63.68 C 23.74 64.04 22.08 64.40 20.41 64.74 C 19.80 63.51 19.20 62.27 18.58 61.04 C 20.20 60.65 21.81 60.27 23.43 59.89 C 22.94 58.73 22.44 57.57 21.95 56.42 Z"/>
  <path id="path13608" fill="#ffffff" d="M 174.45 55.42 C 175.63 55.77 176.82 56.10 178.01 56.40 C 177.54 57.57 177.07 58.73 176.59 59.89 C 178.22 60.27 179.84 60.64 181.47 61.02 C 180.80 62.33 180.14 63.65 179.48 64.96 C 177.88 64.51 176.28 64.05 174.68 63.59 C 174.01 64.79 173.33 66.00 172.66 67.20 C 174.32 67.69 175.99 68.17 177.66 68.64 C 177.02 69.92 176.38 71.20 175.73 72.47 C 174.09 72.01 172.44 71.55 170.80 71.09 C 170.19 72.35 169.59 73.60 168.98 74.87 C 170.61 75.30 172.24 75.74 173.87 76.18 C 173.25 77.43 172.62 78.69 172.00 79.95 C 170.32 79.54 168.63 79.12 166.95 78.70 C 166.27 80.08 165.58 81.45 164.90 82.83 C 163.67 82.53 162.48 82.17 161.28 81.77 C 165.67 72.99 170.15 64.25 174.45 55.42 Z"/>
  <path id="path13610" fill="#da2128" d="M 178.01 56.40 C 179.85 56.65 181.69 56.80 183.54 56.97 C 182.85 58.32 182.16 59.67 181.47 61.02 C 179.84 60.64 178.22 60.27 176.59 59.89 C 177.07 58.73 177.54 57.57 178.01 56.40 Z"/>
  <path id="path13612" fill="#ffffff" d="M 49.06 56.23 C 51.53 61.33 53.95 66.44 56.43 71.54 C 54.04 73.69 51.71 75.50 48.52 76.29 C 46.00 71.00 43.54 65.68 40.99 60.40 C 43.94 59.45 46.67 58.25 49.06 56.23 Z"/>
  <path id="path13614" fill="#ffffff" d="M 150.98 56.24 C 153.39 58.24 156.13 59.45 159.07 60.42 C 156.49 65.69 154.05 71.02 151.51 76.31 C 148.34 75.47 145.99 73.69 143.60 71.53 C 146.11 66.46 148.51 61.34 150.98 56.24 Z"/>
  <path id="path13616" fill="#da2128" d="M 87.88 60.00 C 90.68 61.40 93.65 62.37 96.71 63.04 C 96.77 67.29 97.00 71.29 96.23 75.52 C 93.15 74.88 90.55 73.38 87.93 71.71 C 87.87 67.80 87.86 63.90 87.88 60.00 Z"/>
  <path id="path13618" fill="#da2128" d="M 112.16 59.99 C 112.20 63.90 112.19 67.81 112.11 71.72 C 109.58 73.26 107.14 74.89 104.15 75.32 L 103.37 74.50 C 103.17 70.68 103.24 66.87 103.29 63.04 C 106.36 62.37 109.34 61.39 112.16 59.99 Z"/>
  <path id="path13620" fill="#ffffff" d="M 96.71 63.04 C 98.89 63.21 101.10 63.21 103.29 63.04 C 103.24 66.87 103.17 70.68 103.37 74.50 L 104.15 75.32 C 100.89 76.96 99.56 77.09 96.23 75.52 C 97.00 71.29 96.77 67.29 96.71 63.04 Z"/>
  <path id="path13622" fill="#da2128" d="M 20.41 64.74 C 22.08 64.40 23.74 64.04 25.40 63.68 C 26.07 64.86 26.74 66.04 27.41 67.22 C 25.73 67.70 24.06 68.18 22.38 68.65 C 21.72 67.35 21.06 66.05 20.41 64.74 Z"/>
  <path id="path13624" fill="#da2128" d="M 174.68 63.59 C 176.28 64.05 177.88 64.51 179.48 64.96 C 178.87 66.19 178.27 67.42 177.66 68.64 C 175.99 68.17 174.32 67.69 172.66 67.20 C 173.33 66.00 174.01 64.79 174.68 63.59 Z"/>
  <path id="path13626" fill="#da2128" d="M 28.84 71.33 L 29.39 71.40 C 29.99 72.55 30.55 73.71 31.11 74.88 C 29.46 75.31 27.81 75.74 26.16 76.18 C 25.53 74.92 24.90 73.67 24.27 72.41 C 25.78 72.03 27.31 71.63 28.84 71.33 Z"/>
  <path id="path13628" fill="#da2128" d="M 170.80 71.09 C 172.44 71.55 174.09 72.01 175.73 72.47 C 175.11 73.71 174.49 74.94 173.87 76.18 C 172.24 75.74 170.61 75.30 168.98 74.87 C 169.59 73.60 170.19 72.35 170.80 71.09 Z"/>
  <path id="path13630" fill="#ffffff" d="M 53.90 76.57 C 65.60 76.54 77.30 76.57 89.00 76.53 C 92.89 76.39 96.01 78.77 99.99 78.84 C 104.03 78.92 107.01 76.38 111.00 76.54 C 122.72 76.56 134.44 76.55 146.17 76.55 C 146.09 90.43 146.14 104.32 146.14 118.20 C 144.51 118.81 142.75 119.72 141.00 119.81 C 139.27 119.67 137.54 118.81 135.92 118.20 C 134.34 118.80 132.66 119.58 130.98 119.81 C 129.17 119.77 127.33 118.82 125.64 118.22 C 123.89 118.83 121.91 119.88 120.02 119.78 C 118.44 119.47 116.88 118.79 115.37 118.20 C 113.68 118.81 111.83 119.78 110.02 119.81 C 108.38 119.58 106.73 118.82 105.19 118.22 C 103.53 118.82 101.76 119.68 100.00 119.80 C 98.27 119.66 96.54 118.82 94.92 118.22 C 93.34 118.82 91.66 119.57 89.98 119.81 C 88.18 119.80 86.34 118.80 84.67 118.19 C 83.15 118.78 81.57 119.47 79.98 119.78 C 78.09 119.88 76.11 118.83 74.36 118.22 C 72.67 118.82 70.83 119.78 69.02 119.79 C 67.37 119.57 65.74 118.80 64.19 118.22 C 62.53 118.82 60.76 119.68 59.00 119.81 C 57.27 119.69 55.53 118.80 53.92 118.18 C 53.92 104.31 53.96 90.44 53.90 76.57 Z"/>
  <path id="path13632" fill="#da2128" d="M 28.04 79.94 C 29.72 79.54 31.39 79.13 33.07 78.72 C 33.79 80.09 34.51 81.47 35.24 82.84 C 33.49 83.21 31.72 83.50 29.96 83.79 C 29.32 82.51 28.68 81.22 28.04 79.94 Z"/>
  <path id="path13634" fill="#da2128" d="M 166.95 78.70 C 168.63 79.12 170.32 79.54 172.00 79.95 C 171.36 81.25 170.72 82.56 170.07 83.86 C 168.35 83.54 166.62 83.22 164.90 82.83 C 165.58 81.45 166.27 80.08 166.95 78.70 Z"/>
  <path id="path13636" fill="#010000" d="M 96.98 79.42 C 100.10 79.00 102.42 80.40 105.08 81.71 C 107.61 80.57 110.21 78.98 113.08 79.85 C 115.60 80.62 118.04 81.71 120.47 82.74 C 123.37 83.87 123.22 87.63 125.52 89.50 C 126.73 90.80 128.64 92.08 128.71 94.00 C 128.93 95.75 127.19 97.48 126.32 98.89 C 126.34 100.76 127.43 103.29 125.64 104.61 C 123.35 106.32 120.36 108.27 117.83 109.62 C 114.63 111.09 112.09 108.81 109.58 107.16 C 107.75 108.30 105.92 109.44 104.11 110.62 C 105.49 112.14 106.92 113.61 108.35 115.08 C 105.25 115.83 102.16 116.77 99.03 117.35 C 96.03 116.70 93.04 115.93 90.07 115.14 C 91.42 113.65 92.84 112.22 94.27 110.80 C 93.20 109.86 92.13 108.93 91.06 108.00 C 88.73 109.78 86.15 112.61 82.98 112.30 C 80.33 112.07 78.13 109.40 76.06 107.88 C 74.51 106.55 72.02 105.14 71.50 103.06 C 70.75 100.55 72.53 98.01 73.57 95.82 C 73.50 93.73 72.83 90.82 74.05 89.00 C 75.31 86.88 78.06 86.34 80.20 85.45 C 81.33 84.39 82.49 83.02 83.93 82.41 C 85.69 82.31 87.35 82.54 89.13 82.59 C 91.86 81.47 93.79 79.50 96.98 79.42 Z"/>
  <path id="path13638" fill="#0db14b" d="M 96.99 82.43 C 99.95 82.21 102.65 84.10 105.16 85.45 C 106.94 84.46 108.90 82.82 110.98 82.62 C 113.90 83.14 117.39 84.53 119.89 86.13 C 120.59 87.45 121.05 88.92 121.58 90.31 C 122.90 91.51 124.19 92.58 125.27 94.01 C 125.06 95.69 123.10 97.05 122.08 98.33 C 122.64 99.59 123.21 100.84 123.78 102.09 C 121.29 103.69 118.83 106.05 115.99 106.94 C 113.65 107.06 111.29 104.55 109.40 103.34 C 109.22 102.56 109.04 101.78 108.86 101.00 C 107.71 101.29 106.55 101.57 105.40 101.85 C 104.70 101.15 104.01 100.45 103.31 99.76 C 98.71 101.12 95.92 101.05 91.36 99.66 C 91.07 101.58 91.88 103.85 90.03 105.08 C 88.20 106.69 86.20 108.26 83.99 109.32 C 82.52 109.53 81.49 108.42 80.42 107.59 C 78.40 105.81 76.15 104.12 74.42 102.05 C 74.44 100.16 75.91 98.30 76.71 96.62 C 76.81 94.76 76.00 91.75 77.23 90.28 C 79.70 88.96 82.20 88.05 84.33 86.17 C 85.66 84.74 88.19 86.22 89.82 86.54 C 91.93 84.89 94.15 82.52 96.99 82.43 Z"/>
  <path id="path13640" fill="#ffffff" d="M 95.07 103.26 C 95.58 104.61 95.33 106.13 93.89 106.74 C 93.29 105.38 93.68 103.92 95.07 103.26 Z"/>
  <path id="path13642" fill="#ffffff" d="M 105.64 104.30 C 105.80 105.07 105.79 105.83 105.60 106.56 C 104.76 106.72 103.89 106.74 102.99 106.62 C 101.80 104.56 103.97 103.85 105.64 104.30 Z"/>
  <path id="path13644" fill="#31a5db" d="M 53.92 118.18 C 55.53 118.80 57.27 119.69 59.00 119.81 C 60.76 119.68 62.53 118.82 64.19 118.22 C 65.74 118.80 67.37 119.57 69.02 119.79 C 70.83 119.78 72.67 118.82 74.36 118.22 C 76.11 118.83 78.09 119.88 79.98 119.78 C 81.57 119.47 83.15 118.78 84.67 118.19 C 86.34 118.80 88.18 119.80 89.98 119.81 C 91.66 119.57 93.34 118.82 94.92 118.22 C 96.54 118.82 98.27 119.66 100.00 119.80 C 101.76 119.68 103.53 118.82 105.19 118.22 C 106.73 118.82 108.38 119.58 110.02 119.81 C 111.83 119.78 113.68 118.81 115.37 118.20 C 116.88 118.79 118.44 119.47 120.02 119.78 C 121.91 119.88 123.89 118.83 125.64 118.22 C 127.33 118.82 129.17 119.77 130.98 119.81 C 132.66 119.58 134.34 118.80 135.92 118.20 C 137.54 118.81 139.27 119.67 141.00 119.81 C 142.75 119.72 144.51 118.81 146.14 118.20 C 146.15 119.34 146.15 120.48 146.15 121.61 C 144.47 122.23 142.78 122.94 141.00 123.20 C 139.26 123.04 137.54 122.17 135.90 121.54 C 134.32 122.18 132.70 122.91 131.02 123.20 C 129.20 123.22 127.37 122.15 125.70 121.50 C 124.15 122.13 122.65 122.76 121.01 123.16 C 119.11 123.27 117.13 122.16 115.36 121.53 C 113.66 122.16 111.82 123.19 109.98 123.21 C 108.34 122.93 106.70 122.15 105.15 121.51 C 103.50 122.14 101.77 123.08 100.00 123.20 C 98.26 122.98 96.53 122.17 94.90 121.54 C 93.31 122.19 91.70 122.90 90.01 123.20 C 88.20 123.22 86.37 122.15 84.70 121.50 C 83.15 122.13 81.65 122.76 80.01 123.16 C 78.11 123.27 76.13 122.16 74.36 121.53 C 72.66 122.15 70.82 123.21 68.99 123.19 C 67.33 122.80 65.77 122.16 64.15 121.64 C 62.46 122.17 60.73 122.91 58.99 123.20 C 57.22 122.92 55.60 122.26 53.92 121.65 C 53.92 120.50 53.92 119.34 53.92 118.18 Z"/>
  <path id="path13646" fill="#ffffff" d="M 64.15 121.64 C 65.77 122.16 67.33 122.80 68.99 123.19 C 70.82 123.21 72.66 122.15 74.36 121.53 C 76.13 122.16 78.11 123.27 80.01 123.16 C 81.65 122.76 83.15 122.13 84.70 121.50 C 86.37 122.15 88.20 123.22 90.01 123.20 C 91.70 122.90 93.31 122.19 94.90 121.54 C 96.53 122.17 98.26 122.98 100.00 123.20 C 101.77 123.08 103.50 122.14 105.15 121.51 C 106.70 122.15 108.34 122.93 109.98 123.21 C 111.82 123.19 113.66 122.16 115.36 121.53 C 117.13 122.16 119.11 123.27 121.01 123.16 C 122.65 122.76 124.15 122.13 125.70 121.50 C 127.37 122.15 129.20 123.22 131.02 123.20 C 132.70 122.91 134.32 122.18 135.90 121.54 C 137.54 122.17 139.26 123.04 141.00 123.20 C 142.78 122.94 144.47 122.23 146.15 121.61 L 146.13 123.88 C 144.27 124.74 142.30 125.84 140.18 125.51 C 138.71 125.15 137.28 124.49 135.88 123.93 C 134.30 124.52 132.69 125.30 131.02 125.57 C 129.19 125.60 127.36 124.55 125.66 123.96 C 123.87 124.56 121.88 125.65 119.98 125.52 C 118.38 125.13 116.90 124.52 115.37 123.94 C 113.66 124.54 111.81 125.60 109.98 125.57 C 108.34 125.28 106.74 124.55 105.17 123.97 C 103.52 124.56 101.77 125.47 100.00 125.58 C 98.27 125.51 96.53 124.54 94.92 123.94 C 93.33 124.53 91.69 125.35 90.00 125.57 C 88.19 125.56 86.34 124.55 84.66 123.96 C 82.87 124.57 80.88 125.65 78.98 125.52 C 77.38 125.13 75.91 124.53 74.37 123.94 C 72.67 124.55 70.81 125.61 68.98 125.57 C 67.32 125.29 65.72 124.53 64.14 123.94 C 62.73 124.50 61.30 125.15 59.82 125.50 C 57.72 125.85 55.78 124.75 53.95 123.89 L 53.92 121.65 C 55.60 122.26 57.22 122.92 58.99 123.20 C 60.73 122.91 62.46 122.17 64.15 121.64 Z"/>
  <path id="path13648" fill="#31a5db" d="M 53.95 123.89 C 55.78 124.75 57.72 125.85 59.82 125.50 C 61.30 125.15 62.73 124.50 64.14 123.94 C 65.72 124.53 67.32 125.29 68.98 125.57 C 70.81 125.61 72.67 124.55 74.37 123.94 C 75.91 124.53 77.38 125.13 78.98 125.52 C 80.88 125.65 82.87 124.57 84.66 123.96 C 86.34 124.55 88.19 125.56 90.00 125.57 C 91.69 125.35 93.33 124.53 94.92 123.94 C 96.53 124.54 98.27 125.51 100.00 125.58 C 101.77 125.47 103.52 124.56 105.17 123.97 C 106.74 124.55 108.34 125.28 109.98 125.57 C 111.81 125.60 113.66 124.54 115.37 123.94 C 116.90 124.52 118.38 125.13 119.98 125.52 C 121.88 125.65 123.87 124.56 125.66 123.96 C 127.36 124.55 129.19 125.60 131.02 125.57 C 132.69 125.30 134.30 124.52 135.88 123.93 C 137.28 124.49 138.71 125.15 140.18 125.51 C 142.30 125.84 144.27 124.74 146.13 123.88 C 146.13 125.03 146.13 126.19 146.14 127.34 C 144.50 127.93 142.74 128.78 141.00 128.87 C 139.27 128.74 137.53 127.95 135.89 127.38 C 134.08 128.01 131.93 129.07 129.99 128.84 C 128.49 128.51 127.11 127.92 125.68 127.37 C 124.14 127.94 122.62 128.59 121.00 128.86 C 119.11 128.97 117.10 127.98 115.34 127.36 C 113.90 127.92 112.52 128.52 111.01 128.84 C 109.08 129.10 106.96 127.99 105.16 127.34 C 103.51 127.92 101.75 128.77 100.00 128.87 C 98.28 128.76 96.55 127.93 94.93 127.35 C 93.10 128.00 90.94 129.08 88.99 128.84 C 87.49 128.51 86.11 127.92 84.68 127.37 C 83.14 127.94 81.62 128.59 80.00 128.86 C 78.11 128.97 76.10 127.98 74.34 127.36 C 72.90 127.92 71.52 128.52 70.01 128.84 C 68.08 129.07 65.94 128.00 64.13 127.37 C 62.50 127.94 60.74 128.81 59.00 128.87 C 57.29 128.68 55.58 127.94 53.94 127.43 C 53.95 126.25 53.95 125.07 53.95 123.89 Z"/>
  <path id="path13650" fill="#ffffff" d="M 53.94 127.43 C 55.58 127.94 57.29 128.68 59.00 128.87 C 60.74 128.81 62.50 127.94 64.13 127.37 C 65.94 128.00 68.08 129.07 70.01 128.84 C 71.52 128.52 72.90 127.92 74.34 127.36 C 76.10 127.98 78.11 128.97 80.00 128.86 C 81.62 128.59 83.14 127.94 84.68 127.37 C 86.11 127.92 87.49 128.51 88.99 128.84 C 90.94 129.08 93.10 128.00 94.93 127.35 C 96.55 127.93 98.28 128.76 100.00 128.87 C 101.75 128.77 103.51 127.92 105.16 127.34 C 106.96 127.99 109.08 129.10 111.01 128.84 C 112.52 128.52 113.90 127.92 115.34 127.36 C 117.10 127.98 119.11 128.97 121.00 128.86 C 122.62 128.59 124.14 127.94 125.68 127.37 C 127.11 127.92 128.49 128.51 129.99 128.84 C 131.93 129.07 134.08 128.01 135.89 127.38 C 137.53 127.95 139.27 128.74 141.00 128.87 C 142.74 128.78 144.50 127.93 146.14 127.34 C 146.14 128.16 146.14 128.98 146.14 129.80 C 144.49 130.39 142.76 131.23 141.00 131.36 C 139.25 131.24 137.54 130.40 135.89 129.83 C 134.06 130.48 131.92 131.66 129.96 131.37 C 128.47 130.99 127.09 130.39 125.66 129.81 C 124.12 130.42 122.65 131.06 121.02 131.39 C 119.14 131.53 117.14 130.45 115.40 129.81 C 113.95 130.39 112.55 130.98 111.04 131.37 C 109.10 131.64 106.95 130.46 105.15 129.80 C 103.50 130.40 101.77 131.35 100.00 131.44 C 98.25 131.28 96.54 130.42 94.89 129.83 C 93.31 130.42 91.68 131.22 90.00 131.42 C 88.18 131.38 86.36 130.41 84.66 129.81 C 83.12 130.42 81.65 131.06 80.02 131.39 C 78.14 131.53 76.14 130.45 74.39 129.81 C 72.94 130.41 71.58 131.03 70.04 131.39 C 68.09 131.62 65.96 130.48 64.16 129.81 C 62.51 130.39 60.76 131.29 59.00 131.36 C 57.26 131.23 55.55 130.40 53.92 129.82 C 53.92 129.02 53.93 128.23 53.94 127.43 Z"/>
  <path id="path13652" fill="#da2128" d="M 53.92 129.82 C 55.55 130.40 57.26 131.23 59.00 131.36 C 60.76 131.29 62.51 130.39 64.16 129.81 C 65.96 130.48 68.09 131.62 70.04 131.39 C 71.58 131.03 72.94 130.41 74.39 129.81 C 76.14 130.45 78.14 131.53 80.02 131.39 C 81.65 131.06 83.12 130.42 84.66 129.81 C 86.36 130.41 88.18 131.38 90.00 131.42 C 91.68 131.22 93.31 130.42 94.89 129.83 C 96.54 130.42 98.25 131.28 100.00 131.44 C 101.77 131.35 103.50 130.40 105.15 129.80 C 106.95 130.46 109.10 131.64 111.04 131.37 C 112.55 130.98 113.95 130.39 115.40 129.81 C 117.14 130.45 119.14 131.53 121.02 131.39 C 122.65 131.06 124.12 130.42 125.66 129.81 C 127.09 130.39 128.47 130.99 129.96 131.37 C 131.92 131.66 134.06 130.48 135.89 129.83 C 137.54 130.40 139.25 131.24 141.00 131.36 C 142.76 131.23 144.49 130.39 146.14 129.80 C 146.11 137.87 146.15 145.94 146.16 154.01 C 146.02 155.88 146.27 158.28 144.51 159.50 C 141.99 161.14 138.90 162.02 136.11 163.13 C 124.07 167.76 112.06 172.48 100.03 177.13 C 87.73 172.41 75.48 167.57 63.18 162.85 C 60.64 161.84 57.80 161.00 55.53 159.45 C 53.77 158.25 54.06 155.87 53.90 154.01 C 53.88 145.95 53.95 137.88 53.92 129.82 Z"/>
  <path id="path13654" fill="#010000" d="M 99.54 135.74 L 100.43 136.71 C 100.68 137.55 100.92 138.40 101.14 139.25 L 102.56 138.51 C 108.00 135.21 115.31 141.62 112.96 147.67 C 114.25 147.69 115.54 147.72 116.82 147.76 C 115.71 148.45 114.60 149.14 113.48 149.83 C 114.54 150.94 115.78 152.07 116.58 153.39 C 116.96 156.37 116.74 159.30 114.59 161.59 C 113.12 163.47 111.22 163.19 109.08 163.75 C 109.52 164.96 109.95 166.18 110.38 167.39 C 109.30 166.59 108.23 165.78 107.16 164.96 C 106.29 166.64 106.02 168.28 104.19 169.18 C 99.86 171.67 94.08 170.12 92.89 164.90 C 91.84 165.74 90.78 166.57 89.72 167.40 C 90.10 166.18 90.49 164.97 90.88 163.75 C 89.57 163.53 88.28 163.25 87.00 162.89 C 82.44 159.84 81.71 153.24 86.53 149.95 C 85.49 149.15 84.45 148.35 83.45 147.50 C 84.74 147.61 86.02 147.72 87.31 147.84 C 85.27 142.97 88.58 138.93 93.20 137.67 C 95.47 137.03 97.14 138.43 99.10 139.32 C 99.24 138.13 99.39 136.93 99.54 135.74 Z"/>
  <path id="path13656" fill="#ffffff" d="M 96.92 138.96 C 99.85 141.42 99.40 146.38 99.48 149.80 C 98.06 148.89 96.70 147.93 95.38 146.90 C 96.00 148.45 96.64 149.99 97.27 151.53 C 92.99 150.31 89.17 149.37 87.02 145.02 C 90.39 143.47 93.45 141.58 95.83 138.70 C 93.11 140.24 90.53 141.98 87.65 143.24 C 89.36 140.07 93.27 136.98 96.92 138.96 Z"/>
  <path id="path13658" fill="#ffffff" d="M 105.15 138.35 C 107.87 138.18 109.89 140.10 111.79 141.76 C 109.79 141.25 107.79 140.76 105.78 140.32 C 107.36 141.55 108.93 142.78 110.47 144.05 L 111.79 141.76 C 112.36 143.43 113.14 145.27 111.95 146.87 C 109.91 149.66 105.90 150.58 102.77 151.53 C 103.39 149.99 104.02 148.46 104.65 146.92 C 103.32 147.91 101.97 148.87 100.58 149.79 C 100.59 147.10 100.46 143.99 101.40 141.44 C 102.04 139.79 103.28 138.42 105.15 138.35 Z"/>
  <path id="path13660" fill="#ffffff" d="M 105.78 140.32 C 107.79 140.76 109.79 141.25 111.79 141.76 L 110.47 144.05 C 108.93 142.78 107.36 141.55 105.78 140.32 Z"/>
  <path id="path13662" fill="#010000" d="M 38.09 144.53 C 41.70 148.07 45.09 151.75 49.12 154.85 C 51.00 156.20 51.93 158.07 53.11 159.98 C 54.16 161.79 55.95 162.37 57.76 163.16 C 71.85 168.58 85.91 174.07 99.99 179.51 C 113.86 174.20 127.68 168.76 141.55 163.45 C 143.07 162.82 144.84 162.20 146.08 161.10 C 147.74 159.21 148.33 156.94 150.37 155.34 C 154.54 151.95 158.45 148.41 161.97 144.35 C 167.61 151.23 173.36 158.03 179.01 164.90 C 165.34 179.20 148.10 189.87 128.97 195.06 C 107.65 200.90 84.32 200.13 63.49 192.67 C 47.33 186.96 32.87 177.25 21.05 164.89 C 26.74 158.12 32.26 151.17 38.09 144.53 Z"/>
  <path id="path13664" fill="#ffffff" d="M 87.19 150.76 C 90.82 150.78 93.49 151.34 96.81 152.77 C 95.41 153.64 94.01 154.53 92.61 155.41 C 94.29 155.44 95.97 155.44 97.65 155.41 C 94.64 159.52 92.27 163.98 86.32 162.14 C 86.93 161.57 87.54 161.00 88.15 160.43 C 87.33 157.58 86.19 154.93 84.86 152.28 C 85.64 151.78 86.42 151.27 87.19 150.76 Z"/>
  <path id="path13666" fill="#fecc05" d="M 98.16 151.15 C 100.90 148.71 104.36 152.52 102.00 154.98 C 99.26 157.72 95.54 153.52 98.16 151.15 Z"/>
  <path id="path13668" fill="#ffffff" d="M 115.28 151.89 C 113.94 154.68 112.74 157.49 111.89 160.47 C 112.50 161.03 113.11 161.58 113.71 162.13 C 107.76 164.00 105.30 159.46 102.39 155.28 C 104.04 155.39 105.69 155.50 107.33 155.62 C 105.97 154.67 104.64 153.67 103.34 152.63 C 107.61 151.03 110.87 150.06 115.28 151.89 Z"/>
  <path id="path13670" fill="#ffffff" d="M 84.06 153.47 C 85.23 155.27 86.14 157.20 87.03 159.14 C 86.34 159.58 85.65 160.02 84.96 160.46 C 84.50 158.14 84.11 155.84 84.06 153.47 Z"/>
  <path id="path13672" fill="#ffffff" d="M 115.75 154.05 C 115.99 156.36 115.48 158.50 114.97 160.74 C 114.39 160.17 113.81 159.59 113.24 159.01 C 113.66 157.85 114.12 156.71 114.60 155.58 C 114.97 155.06 115.36 154.55 115.75 154.05 Z"/>
  <path id="path13674" fill="#ffffff" d="M 98.92 156.03 C 99.07 157.31 99.22 158.58 99.37 159.86 L 100.67 159.88 C 100.84 158.61 101.01 157.33 101.18 156.06 C 104.38 159.60 106.89 162.88 105.34 167.91 C 103.76 167.44 102.18 166.86 100.55 166.59 C 98.47 166.66 96.41 167.31 94.35 167.62 C 93.48 162.72 95.70 159.40 98.92 156.03 Z"/>
  <path id="path13676" fill="#fecc05" d="M 159.59 157.26 C 160.87 158.68 162.09 160.16 163.31 161.63 C 161.05 160.66 159.46 158.83 156.88 159.90 C 157.39 163.77 160.74 167.45 164.08 169.25 C 167.01 169.13 165.20 165.17 165.51 163.30 C 166.18 165.18 167.07 166.87 166.86 168.91 C 165.76 170.93 163.75 171.06 161.81 170.19 C 158.69 168.62 156.03 165.33 155.60 161.82 C 155.17 159.47 158.04 158.42 159.59 157.26 Z"/>
  <path id="path13678" fill="#fecc05" d="M 41.03 157.72 C 42.24 158.65 43.33 159.77 44.46 160.83 C 43.36 162.07 42.28 163.32 41.19 164.57 C 41.36 162.48 42.65 160.37 41.05 158.60 C 40.02 159.17 39.04 159.82 38.10 160.55 C 38.88 162.08 39.66 163.61 40.45 165.13 C 38.96 167.37 37.98 169.94 34.99 170.40 C 33.42 170.09 32.07 167.97 30.89 166.93 C 32.14 165.54 33.38 164.14 34.62 162.75 C 33.83 165.55 33.00 167.22 34.68 169.97 C 35.59 169.07 36.50 168.17 37.39 167.26 C 36.96 166.14 36.56 165.00 36.20 163.86 C 34.74 161.17 38.38 157.61 41.03 157.72 Z"/>
  <path id="path13680" fill="#fecc05" d="M 152.12 163.20 C 153.23 164.63 154.27 166.11 155.34 167.57 C 153.33 166.44 151.56 165.51 149.16 165.52 C 150.08 167.33 151.05 169.11 152.04 170.89 C 152.51 169.95 152.98 169.02 153.44 168.08 C 154.38 169.63 155.34 171.16 156.30 172.69 C 155.07 172.05 153.84 171.40 152.60 170.76 C 153.45 172.33 154.30 173.89 155.16 175.44 C 156.02 175.54 156.89 175.65 157.76 175.75 C 156.49 176.75 155.22 177.75 153.96 178.75 C 152.89 174.22 149.74 170.10 146.21 167.16 C 148.18 165.84 150.11 164.46 152.12 163.20 Z"/>
  <path id="path13682" fill="#fecc05" d="M 46.29 164.31 C 48.33 162.94 51.41 164.53 51.45 166.98 C 51.50 170.68 48.73 174.68 45.47 176.34 C 43.29 177.36 40.94 176.54 40.46 174.05 C 40.14 170.21 42.93 166.04 46.29 164.31 Z"/>
  <path id="path13684" fill="#010000" d="M 48.07 165.26 L 49.75 165.26 C 50.14 169.24 46.33 173.89 43.02 175.75 L 42.04 174.92 C 41.85 171.46 45.30 167.14 48.07 165.26 Z"/>
  <path id="path13686" fill="#ffffff" d="M 104.49 168.19 C 101.21 169.79 99.15 169.53 95.61 168.85 C 98.78 167.20 101.03 167.38 104.49 168.19 Z"/>
  <path id="path13688" fill="#fecc05" d="M 54.72 167.92 C 56.01 168.66 57.31 169.40 58.60 170.13 C 57.85 170.55 57.10 170.98 56.34 171.40 C 54.90 174.33 52.77 177.40 52.21 180.64 C 53.30 181.68 54.24 181.91 55.04 181.32 C 57.27 179.06 58.55 175.73 60.03 172.94 C 59.80 172.20 59.58 171.46 59.36 170.72 C 60.39 171.18 61.43 171.64 62.46 172.10 C 59.50 174.94 58.32 178.73 55.88 181.89 C 54.08 184.06 50.35 182.60 50.29 179.89 C 50.59 176.83 52.97 173.90 54.25 171.14 C 54.43 170.07 54.59 169.00 54.72 167.92 Z"/>
  <path id="path13690" fill="#fecc05" d="M 140.46 170.49 C 141.63 175.31 143.90 179.55 145.80 184.10 C 142.41 181.80 139.26 179.21 136.01 176.74 C 137.03 179.07 138.09 181.39 139.15 183.71 C 139.96 184.16 140.78 184.61 141.59 185.06 C 140.42 185.63 139.24 186.19 138.07 186.75 C 138.20 185.86 138.32 184.98 138.45 184.10 C 136.73 180.48 135.59 176.89 132.65 174.00 C 133.49 173.68 134.32 173.36 135.16 173.03 C 137.56 174.90 139.95 176.78 142.38 178.62 C 141.59 176.78 140.78 174.96 139.96 173.14 C 139.15 172.73 138.35 172.33 137.54 171.92 C 138.50 171.42 139.47 170.94 140.46 170.49 Z"/>
  <path id="path13692" fill="#fecc05" d="M 63.99 173.04 C 66.39 173.66 68.72 174.70 71.01 175.62 C 70.28 177.37 69.55 179.12 68.83 180.87 C 68.88 178.93 68.90 177.00 68.89 175.07 C 66.31 178.99 64.41 183.20 64.11 187.94 C 62.95 187.40 61.80 186.83 60.66 186.23 C 63.37 182.54 64.88 178.42 66.13 174.04 C 64.60 175.31 63.10 176.62 61.64 177.96 C 62.41 176.32 63.11 174.62 63.99 173.04 Z"/>
  <path id="path13694" fill="#fecc05" d="M 127.46 175.61 C 129.12 175.40 130.42 176.35 131.39 177.60 C 133.32 180.17 134.27 183.68 133.64 186.85 C 133.17 188.54 131.33 190.22 129.50 189.44 C 126.36 188.21 124.78 184.10 124.47 181.00 C 124.29 178.67 124.86 176.17 127.46 175.61 Z"/>
  <path id="path13696" fill="#fecc05" d="M 72.67 176.17 C 73.88 176.45 75.09 176.73 76.30 177.00 C 75.32 178.79 74.46 180.63 73.62 182.49 L 76.15 183.19 C 75.18 183.64 74.21 184.10 73.24 184.55 C 72.74 186.66 72.44 188.46 72.99 190.61 C 71.70 190.24 70.41 189.88 69.13 189.52 C 71.42 185.42 72.81 180.90 72.67 176.17 Z"/>
  <path id="path13698" fill="#010000" d="M 127.07 177.18 L 127.93 176.43 C 130.37 178.94 131.65 182.55 131.92 185.98 C 131.99 186.93 131.70 187.85 131.04 188.76 C 128.34 187.36 127.70 184.70 126.86 182.02 C 126.69 180.71 125.56 177.93 127.07 177.18 Z"/>
  <path id="path13700" fill="#fecc05" d="M 77.63 177.47 C 78.73 177.80 79.83 178.12 80.93 178.45 C 79.06 182.67 77.19 187.18 77.61 191.89 C 76.44 191.55 75.28 191.21 74.11 190.88 C 75.95 186.71 77.42 182.05 77.63 177.47 Z"/>
  <path id="path13702" fill="#fecc05" d="M 121.16 177.81 C 121.68 179.48 122.22 181.15 122.76 182.82 C 121.44 181.51 120.19 180.14 118.97 178.73 C 119.49 183.26 120.11 187.67 122.18 191.80 C 120.95 192.02 119.72 192.24 118.50 192.47 C 119.13 187.97 117.62 183.60 116.48 179.29 C 115.91 180.96 115.40 182.66 114.84 184.34 C 114.56 182.71 114.25 181.09 113.99 179.45 C 116.36 178.81 118.76 178.33 121.16 177.81 Z"/>
  <path id="path13704" fill="#fecc05" d="M 87.12 178.67 C 87.89 183.65 88.17 188.64 89.14 193.59 C 87.92 193.45 86.70 193.32 85.48 193.18 C 86.00 191.81 86.42 190.53 86.31 189.03 L 83.64 188.62 C 82.25 190.11 83.32 191.26 83.61 192.94 C 82.50 192.72 81.39 192.50 80.28 192.28 C 83.20 188.02 84.45 183.07 87.12 178.67 Z"/>
  <path id="path13706" fill="#fecc05" d="M 104.21 180.27 C 106.42 180.20 108.69 180.00 110.90 180.20 C 113.03 180.94 112.92 184.57 112.40 186.32 C 111.04 187.30 109.38 187.98 107.87 188.70 C 108.57 190.35 109.25 192.01 109.84 193.71 C 108.28 193.79 106.72 193.87 105.16 193.95 C 105.65 193.38 106.13 192.81 106.62 192.24 C 106.27 188.88 106.05 185.41 105.42 182.10 C 105.02 181.49 104.62 180.88 104.21 180.27 Z"/>
  <path id="path13708" fill="#fecc05" d="M 92.45 180.09 C 93.59 180.23 94.72 180.37 95.85 180.51 C 96.43 183.36 97.18 186.13 98.14 188.87 C 97.71 190.72 97.26 192.57 96.77 194.42 C 95.81 190.93 95.08 187.40 94.18 183.91 C 93.90 187.47 93.28 190.72 94.90 194.07 C 93.97 194.05 93.04 194.04 92.11 194.02 C 93.28 189.34 94.08 184.79 92.45 180.09 Z"/>
  <path id="path13710" fill="#fecc05" d="M 98.96 180.69 C 100.20 180.54 101.43 180.39 102.67 180.24 C 101.39 184.57 100.72 190.00 102.51 194.28 C 101.21 194.25 99.91 194.23 98.60 194.21 C 100.20 189.68 99.55 185.32 98.96 180.69 Z"/>
  <path id="path13712" fill="#010000" d="M 107.50 180.85 C 111.67 181.20 111.47 185.64 108.40 187.45 C 108.03 185.25 107.75 183.06 107.50 180.85 Z"/>
  <path id="path13714" fill="#010000" d="M 85.12 185.18 C 86.59 185.14 86.37 187.50 85.22 187.87 C 83.78 187.82 83.99 185.60 85.12 185.18 Z"/>
</svg>