<?xml version="1.0" encoding="UTF-8" standalone="no"?>
<!DOCTYPE svg PUBLIC "-//W3C//DTD SVG 1.1//EN" "http://www.w3.org/Graphics/SVG/1.1/DTD/svg11.dtd">
<svg xmlns="http://www.w3.org/2000/svg" version="1.1" viewBox="0 0 200 200" width="200.0pt" height="200.0pt">
<path d="M 0.00 0.00 L 20.13 0.00 C 20.13 14.12 20.13 28.23 20.13 42.35 C 23.23 42.48 27.43 42.04 30.06 43.95 C 32.28 45.50 32.55 48.48 32.63 50.96 C 32.64 90.96 32.63 130.97 32.64 170.98 C 54.85 180.71 77.11 190.34 99.35 200.00 L 0.00 200.00 L 0.00 0.00 Z" opacity="0"/>
<path d="M 20.13 0.00 L 44.28 0.00 C 44.28 2.47 44.29 4.94 44.29 7.40 C 47.17 7.41 50.04 7.41 52.92 7.43 C 52.92 4.95 52.93 2.48 52.93 0.00 L 78.14 0.00 C 78.15 2.50 78.15 4.99 78.16 7.49 C 81.04 7.50 83.93 7.50 86.81 7.50 C 86.82 5.00 86.82 2.50 86.83 0.00 L 112.17 0.00 C 112.18 2.50 112.18 5.00 112.19 7.50 C 115.07 7.50 117.96 7.50 120.84 7.49 C 120.85 4.99 120.85 2.50 120.86 0.00 L 146.07 0.00 C 146.08 2.48 146.08 4.95 146.08 7.43 C 148.96 7.41 151.83 7.41 154.71 7.40 C 154.71 4.94 154.72 2.47 154.72 0.00 L 178.87 0.00 C 178.87 14.12 178.87 28.23 178.87 42.35 C 175.77 42.48 171.57 42.04 168.94 43.95 C 166.72 45.50 166.45 48.48 166.37 50.96 C 166.36 90.96 166.37 130.97 166.36 170.98 C 144.15 180.70 121.89 190.35 99.64 200.00 L 99.35 200.00 C 77.11 190.34 54.85 180.71 32.64 170.98 C 32.63 130.97 32.64 90.96 32.63 50.96 C 32.55 48.48 32.28 45.50 30.06 43.95 C 27.43 42.04 23.23 42.48 20.13 42.35 C 20.13 28.23 20.13 14.12 20.13 0.00 Z" fill="#ed1b2e"/>
<path d="M 44.28 0.00 L 52.93 0.00 C 52.93 2.48 52.92 4.95 52.92 7.43 C 50.04 7.41 47.17 7.41 44.29 7.40 C 44.29 4.94 44.28 2.47 44.28 0.00 Z" fill="#ffffff"/>
<path d="M 78.14 0.00 L 86.83 0.00 C 86.82 2.50 86.82 5.00 86.81 7.50 C 83.93 7.50 81.04 7.50 78.16 7.49 C 78.15 4.99 78.15 2.50 78.14 0.00 Z" fill="#ffffff"/>
<path d="M 112.17 0.00 L 120.86 0.00 C 120.85 2.50 120.85 4.99 120.84 7.49 C 117.96 7.50 115.07 7.50 112.19 7.50 C 112.18 5.00 112.18 2.50 112.17 0.00 Z" fill="#ffffff"/>
<path d="M 146.07 0.00 L 154.72 0.00 C 154.72 2.47 154.71 4.94 154.71 7.40 C 151.83 7.41 148.96 7.41 146.08 7.43 C 146.08 4.95 146.08 2.48 146.07 0.00 Z" fill="#ffffff"/>
<path d="M 178.87 0.00 L 200.00 0.00 L 200.00 200.00 L 99.64 200.00 C 121.89 190.35 144.15 180.70 166.36 170.98 C 166.37 130.97 166.36 90.96 166.37 50.96 C 166.45 48.48 166.72 45.50 168.94 43.95 C 171.57 42.04 175.77 42.48 178.87 42.35 C 178.87 28.23 178.87 14.12 178.87 0.00 Z" opacity="0"/>
<path d="M 41.81 2.48 C 41.82 4.95 41.82 7.42 41.82 9.89 C 46.39 9.89 50.95 9.89 55.52 9.90 C 55.52 7.42 55.52 4.95 55.52 2.47 C 62.20 2.47 68.89 2.47 75.57 2.48 C 75.57 4.96 75.57 7.45 75.57 9.94 C 80.15 9.93 84.74 9.93 89.32 9.93 C 89.33 7.45 89.34 4.96 89.35 2.48 C 96.12 2.47 102.88 2.47 109.65 2.48 C 109.66 4.96 109.67 7.45 109.68 9.93 C 114.26 9.93 118.85 9.93 123.43 9.94 C 123.43 7.45 123.43 4.96 123.43 2.48 C 130.11 2.47 136.79 2.47 143.48 2.47 C 143.48 4.95 143.48 7.42 143.48 9.90 C 148.05 9.89 152.61 9.89 157.18 9.89 C 157.18 7.42 157.18 4.95 157.19 2.48 C 163.58 2.48 169.97 2.43 176.36 2.52 C 176.33 14.94 176.36 27.36 176.34 39.78 C 172.63 40.24 168.82 40.09 166.15 43.15 C 163.30 46.51 163.91 51.88 163.83 56.00 C 163.85 93.81 163.89 131.62 163.81 169.42 C 143.95 178.02 124.09 186.62 104.27 195.31 C 101.93 196.18 100.01 197.83 97.50 196.50 C 76.79 187.46 55.93 178.39 35.19 169.42 C 35.09 129.96 35.19 90.45 35.14 50.98 C 35.03 47.68 34.55 44.38 31.82 42.17 C 29.24 40.10 25.78 40.18 22.66 39.78 C 22.64 27.35 22.68 14.92 22.64 2.48 C 29.03 2.47 35.42 2.47 41.81 2.48 Z" fill="#ffffff"/>
<path d="M 25.16 4.94 C 29.89 4.94 34.62 4.94 39.35 4.95 C 39.36 7.45 39.36 9.96 39.37 12.46 C 45.62 12.50 51.86 12.36 58.10 12.33 C 58.11 9.86 58.11 7.40 58.11 4.94 C 63.11 4.94 68.11 4.94 73.10 4.95 C 73.10 7.45 73.10 9.95 73.11 12.45 C 79.34 12.45 85.56 12.47 91.79 12.43 C 91.79 9.94 91.80 7.44 91.80 4.95 C 96.93 4.94 102.07 4.94 107.20 4.95 C 107.20 7.44 107.21 9.94 107.21 12.43 C 113.44 12.47 119.66 12.45 125.89 12.45 C 125.90 9.95 125.90 7.45 125.90 4.95 C 130.89 4.94 135.89 4.94 140.89 4.94 C 140.89 7.40 140.89 9.86 140.90 12.33 C 147.14 12.36 153.38 12.50 159.63 12.46 C 159.64 9.96 159.64 7.45 159.65 4.95 C 164.38 4.94 169.11 4.94 173.84 4.94 C 173.85 15.75 173.85 26.56 173.84 37.36 C 170.50 38.07 167.48 38.43 164.93 40.93 C 161.90 43.83 161.40 47.99 161.33 51.97 C 161.31 90.59 161.39 129.22 161.29 167.84 C 141.41 176.40 121.55 185.04 101.72 193.71 C 98.96 195.35 96.44 193.13 93.83 192.19 C 75.14 184.05 56.45 175.89 37.71 167.84 C 37.60 129.22 37.69 90.59 37.67 51.97 C 37.60 47.99 37.10 43.83 34.07 40.93 C 31.52 38.43 28.50 38.07 25.16 37.36 C 25.15 26.56 25.15 15.75 25.16 4.94 Z" fill="#ed1b2e"/>
<path d="M 35.56 16.53 C 78.19 16.52 120.81 16.52 163.44 16.53 C 163.46 23.12 163.45 29.71 163.45 36.30 C 120.82 36.30 78.18 36.30 35.55 36.30 C 35.55 29.71 35.54 23.12 35.56 16.53 Z" fill="#ffffff"/>
<path d="M 37.58 18.56 C 78.86 18.54 120.14 18.54 161.42 18.56 C 161.43 23.77 161.43 28.99 161.42 34.20 C 120.14 34.21 78.86 34.21 37.58 34.20 C 37.57 28.99 37.57 23.77 37.58 18.56 Z" fill="#0061aa"/>
<path d="M 43.52 22.36 C 44.23 22.19 44.95 22.03 45.67 21.89 C 45.70 24.89 45.70 27.90 45.69 30.91 C 44.93 30.88 44.18 30.86 43.42 30.84 C 43.41 28.02 43.26 25.17 43.52 22.36 Z" fill="#ffffff"/>
<path d="M 63.28 23.83 C 61.55 23.86 59.82 23.89 58.09 23.92 C 59.66 25.08 62.49 26.07 63.21 28.00 C 63.35 31.83 56.72 31.96 55.95 28.65 C 57.78 28.87 59.62 29.02 61.46 29.13 C 59.95 27.81 57.82 27.04 56.52 25.53 C 55.12 21.47 62.00 20.90 63.28 23.83 Z" fill="#ffffff"/>
<path d="M 64.02 22.05 C 64.82 22.09 65.60 22.16 66.39 22.26 C 67.05 23.76 67.67 25.28 68.28 26.80 C 69.01 25.25 69.72 23.69 70.46 22.14 C 71.11 22.17 71.76 22.20 72.42 22.23 C 73.11 23.69 73.92 25.08 74.73 26.48 C 75.31 25.06 75.87 23.64 76.43 22.22 C 77.27 22.16 78.11 22.10 78.95 22.05 C 77.63 25.23 76.24 28.38 74.83 31.51 C 73.50 29.63 72.31 27.67 71.34 25.58 C 70.42 27.71 69.36 29.66 68.09 31.60 C 66.65 28.47 65.10 25.33 64.02 22.05 Z" fill="#ffffff"/>
<path d="M 80.44 22.34 C 81.13 22.19 81.82 22.05 82.52 21.93 C 82.54 24.91 82.53 27.89 82.53 30.87 C 81.80 30.87 81.08 30.87 80.35 30.87 C 80.33 28.04 80.18 25.16 80.44 22.34 Z" fill="#ffffff"/>
<path d="M 92.69 22.22 C 92.88 23.00 93.08 23.77 93.29 24.54 C 90.67 23.98 86.87 22.97 86.84 26.96 C 88.05 30.26 91.00 28.76 93.50 28.31 C 93.00 31.75 89.13 31.24 86.70 30.32 C 84.00 28.86 83.80 24.99 86.15 23.09 C 87.82 21.66 90.63 22.23 92.69 22.22 Z" fill="#ffffff"/>
<path d="M 95.30 22.31 C 96.02 22.18 96.73 22.06 97.45 21.96 C 97.46 23.18 97.47 24.40 97.48 25.61 C 98.88 25.62 100.29 25.63 101.69 25.63 C 101.70 24.49 101.71 23.34 101.72 22.20 C 102.43 22.14 103.13 22.09 103.83 22.03 C 103.87 25.00 103.87 27.98 103.84 30.95 C 103.12 30.90 102.41 30.86 101.70 30.82 C 101.70 29.67 101.70 28.52 101.70 27.37 C 100.30 27.37 98.89 27.38 97.48 27.38 C 97.47 28.54 97.47 29.69 97.46 30.85 C 96.71 30.87 95.97 30.88 95.22 30.90 C 95.20 28.05 95.04 25.15 95.30 22.31 Z" fill="#ffffff"/>
<path d="M 118.10 22.27 C 118.73 24.64 116.40 23.49 114.94 24.00 C 114.92 26.29 114.92 28.58 114.91 30.87 L 112.67 30.88 C 112.66 28.61 112.66 26.35 112.65 24.08 C 111.26 23.76 109.88 23.40 108.51 23.01 C 111.65 21.71 114.79 21.99 118.10 22.27 Z" fill="#ffffff"/>
<path d="M 122.32 22.36 C 125.71 21.34 129.89 22.85 129.43 27.03 C 129.20 31.28 123.01 32.08 120.48 29.52 C 118.44 27.21 119.27 23.32 122.32 22.36 Z" fill="#ffffff"/>
<path d="M 130.35 21.81 C 133.63 22.03 133.59 24.35 134.82 26.74 C 135.61 25.09 136.36 23.41 137.13 21.75 C 139.37 22.37 139.57 24.18 140.74 25.91 C 142.85 24.44 141.93 21.86 145.42 21.87 C 144.20 25.26 142.71 28.49 141.02 31.67 C 140.04 29.59 138.86 27.63 137.70 25.65 C 136.78 27.63 135.86 29.62 134.89 31.58 C 132.89 28.54 131.62 25.20 130.35 21.81 Z" fill="#ffffff"/>
<path d="M 146.81 21.77 C 150.02 22.45 151.24 24.91 153.34 27.13 C 153.36 25.46 153.39 23.79 153.42 22.11 C 154.14 22.13 154.86 22.14 155.59 22.15 C 155.59 25.18 155.61 28.21 155.54 31.23 C 152.37 30.35 151.09 27.89 148.99 25.61 C 148.97 27.38 148.95 29.14 148.93 30.91 L 146.77 30.86 C 146.76 27.83 146.75 24.80 146.81 21.77 Z" fill="#ffffff"/>
<path d="M 48.20 22.32 L 50.70 21.81 C 50.56 23.27 50.41 24.74 50.26 26.20 C 51.21 25.66 52.17 25.12 53.12 24.57 L 51.01 23.98 C 51.75 23.23 52.49 22.47 53.23 21.71 C 54.18 22.78 54.73 23.87 54.89 24.98 C 54.54 27.55 52.25 27.12 50.31 27.62 C 50.30 28.70 50.29 29.78 50.28 30.86 L 48.10 30.90 C 48.06 28.01 47.96 25.17 48.20 22.32 Z" fill="#ffffff"/>
<path d="M 123.23 24.18 C 126.37 22.68 128.82 27.15 125.77 28.84 C 122.45 30.53 119.91 25.84 123.23 24.18 Z" fill="#0061aa"/>
<path d="M 44.03 39.85 C 81.01 39.85 117.99 39.85 154.97 39.85 C 154.98 68.70 154.97 97.56 154.97 126.41 C 117.99 126.41 81.01 126.41 44.03 126.41 C 44.03 97.56 44.02 68.70 44.03 39.85 Z" fill="#ffffff"/>
<path d="M 46.13 41.85 C 81.71 41.85 117.29 41.85 152.87 41.85 C 152.92 69.36 152.88 96.86 152.89 124.37 C 117.30 124.40 81.70 124.40 46.11 124.37 C 46.12 96.86 46.08 69.36 46.13 41.85 Z" fill="#0061aa"/>
<path d="M 62.23 43.27 C 62.99 43.24 63.75 43.22 64.51 43.24 C 64.42 44.76 64.31 46.29 64.12 47.81 C 65.58 47.87 67.05 47.92 68.51 47.98 C 68.14 45.72 66.36 43.06 69.99 42.83 C 69.89 44.59 69.62 46.32 69.30 48.06 C 70.63 48.22 71.97 48.39 73.31 48.56 C 73.29 47.15 73.28 45.75 73.27 44.34 C 74.15 44.33 75.03 44.31 75.92 44.30 C 75.51 46.03 74.87 47.50 74.00 49.04 C 75.42 49.43 76.84 49.82 78.27 50.21 C 78.49 48.95 78.61 47.62 79.02 46.40 L 81.45 45.92 C 81.01 47.83 80.10 49.29 78.83 50.74 C 80.02 51.42 81.20 52.11 82.38 52.81 C 82.91 51.27 83.15 49.72 84.38 48.58 C 85.20 48.42 85.75 48.86 86.03 49.91 C 85.21 51.06 84.23 51.99 83.24 53.02 C 84.24 53.71 85.23 54.40 86.22 55.09 C 87.18 53.61 87.26 50.47 89.71 51.38 C 90.46 53.61 88.17 54.11 86.79 55.24 C 90.50 58.00 93.26 63.78 97.95 64.33 C 106.49 65.42 113.17 62.26 121.02 60.35 C 127.05 58.97 132.20 60.49 137.33 63.62 C 140.58 63.31 143.11 61.71 146.54 62.59 C 149.50 63.29 152.64 65.53 151.15 68.97 C 148.96 73.67 142.51 76.19 139.34 80.21 C 137.69 81.94 138.78 84.69 138.80 86.83 C 135.75 86.46 132.96 86.61 130.43 84.61 C 128.38 83.15 128.27 79.75 129.67 77.81 C 133.91 72.63 142.49 72.70 145.67 66.94 C 143.81 65.37 142.15 65.26 139.80 65.22 C 140.58 66.80 141.61 68.18 142.70 69.54 C 138.71 72.12 133.82 73.31 130.23 76.32 C 127.41 78.42 127.41 83.58 130.46 85.49 C 132.45 87.00 135.37 87.13 137.77 87.52 C 138.90 92.24 142.45 93.83 146.30 96.03 C 145.11 99.87 143.75 103.66 142.57 107.50 C 141.77 110.40 142.47 113.01 142.75 115.93 C 140.60 116.93 139.77 118.48 138.49 120.32 C 136.04 121.05 133.09 120.45 130.59 120.10 C 132.53 116.88 135.33 114.88 136.07 110.96 C 136.62 108.12 138.85 104.11 137.64 101.35 C 134.17 98.44 130.04 96.01 125.88 94.19 C 121.72 92.20 119.13 88.33 114.65 86.75 C 115.78 87.59 116.93 88.41 118.10 89.20 C 112.65 91.31 107.26 94.21 101.52 95.41 C 97.38 96.28 93.92 95.05 89.96 94.11 C 89.23 99.39 89.81 104.19 91.90 109.09 C 93.69 111.87 95.43 114.36 96.00 117.71 C 94.80 119.27 93.82 121.00 92.55 122.49 C 90.62 123.57 87.63 122.79 85.49 122.83 C 86.90 119.97 88.62 117.34 88.05 113.98 C 87.69 109.96 84.36 108.50 83.30 104.81 C 82.18 100.63 79.11 97.79 77.57 93.81 C 74.71 92.50 72.18 91.11 70.64 88.22 C 68.38 84.34 70.27 80.07 70.32 75.97 C 69.91 72.97 68.27 69.98 67.11 67.20 C 65.38 69.89 63.91 72.70 62.07 75.31 C 62.63 77.83 62.89 78.08 60.97 80.09 C 60.22 78.78 59.47 77.47 58.62 76.23 C 58.49 77.66 58.36 79.10 58.25 80.54 C 56.29 80.03 54.38 79.46 52.49 78.77 C 50.56 72.59 50.81 66.33 49.82 60.01 C 49.34 56.92 50.18 54.14 51.11 51.24 C 50.48 51.97 49.85 52.70 49.22 53.44 C 48.56 52.31 47.90 51.19 47.24 50.06 L 49.90 50.89 C 49.66 49.59 49.44 48.30 49.23 47.00 C 51.25 47.96 53.19 49.01 55.07 50.23 C 56.17 49.83 57.28 49.43 58.38 49.03 C 57.15 47.24 56.70 46.03 56.57 43.84 C 59.76 44.38 58.65 46.06 59.29 48.57 C 60.65 48.30 62.01 48.04 63.37 47.78 C 62.77 46.26 62.00 44.97 62.23 43.27 Z" fill="#ffffff"/>
<path d="M 53.79 60.18 C 54.59 61.58 52.84 62.43 52.05 63.27 C 51.89 62.25 51.75 61.23 51.63 60.20 C 52.36 60.09 53.75 58.77 53.79 60.18 Z" fill="#0061aa"/>
<path d="M 53.40 76.81 L 54.22 76.86 L 54.74 77.61 L 54.45 78.36 L 53.64 78.32 L 53.11 77.57 L 53.40 76.81 Z" fill="#0061aa"/>
<path d="M 143.79 77.24 C 142.48 80.08 141.13 82.82 138.93 85.09 C 139.05 82.49 139.11 80.96 140.99 79.08 C 141.92 78.46 142.85 77.85 143.79 77.24 Z" fill="#ffffff"/>
<path d="M 55.01 85.22 C 59.59 84.80 64.38 85.47 68.94 85.93 C 70.45 90.31 73.51 92.35 77.05 94.97 C 70.29 96.45 65.32 93.56 59.27 91.33 C 59.44 95.26 60.09 97.66 62.49 100.75 C 61.96 102.09 61.45 103.43 60.96 104.78 C 58.96 105.95 56.96 106.92 54.76 107.68 C 55.00 105.14 55.47 102.51 55.29 99.96 C 54.34 95.98 51.46 92.20 50.82 87.96 C 51.33 85.87 53.18 85.53 55.01 85.22 Z" fill="#ffffff"/>
<path d="M 118.89 90.29 C 121.70 92.18 124.22 94.34 127.31 95.82 C 127.86 97.68 128.61 99.34 129.56 101.03 C 125.60 105.06 121.50 107.88 120.67 113.93 C 118.99 114.90 117.47 116.09 115.87 117.19 C 113.67 117.84 111.01 117.22 108.73 117.11 C 113.02 113.50 116.47 109.25 119.82 104.79 C 120.63 103.71 121.08 102.57 120.55 101.24 C 119.02 97.54 116.51 94.87 116.22 90.63 C 117.11 90.47 118.00 90.36 118.89 90.29 Z" fill="#ffffff"/>
<path d="M 66.18 104.79 C 64.04 106.45 61.69 108.43 59.09 109.28 C 59.87 106.41 63.66 105.39 66.18 104.79 Z" fill="#ffffff"/>
<path d="M 69.84 105.80 L 69.32 107.51 C 70.55 108.02 71.77 108.54 72.99 109.06 L 71.32 110.21 C 72.96 114.94 72.55 117.78 70.00 121.94 C 69.50 121.70 69.00 121.46 68.51 121.21 C 67.44 122.01 66.35 122.73 65.20 123.41 C 63.58 122.08 61.81 120.94 59.89 119.98 L 60.59 122.45 C 59.84 121.65 59.55 121.19 59.52 120.09 C 58.10 119.22 56.77 118.29 55.51 117.19 L 57.48 117.84 C 57.86 116.89 58.24 115.94 58.62 114.98 C 61.18 116.20 63.68 117.53 65.95 119.25 C 63.44 119.20 60.94 118.42 58.45 118.56 C 60.96 119.41 63.47 120.00 65.71 121.48 C 66.04 119.57 66.51 118.04 67.48 116.37 C 67.11 115.15 66.73 113.94 66.35 112.73 C 67.53 112.44 68.71 112.14 69.88 111.83 C 69.34 114.06 69.77 115.66 70.75 117.61 C 70.78 115.15 70.69 112.69 70.56 110.24 C 67.67 111.66 65.43 113.29 62.04 112.23 C 64.25 109.96 66.91 109.21 69.66 107.79 C 66.54 108.38 63.80 109.78 60.88 110.93 C 62.22 107.08 66.19 106.06 69.84 105.80 Z" fill="#ffffff"/>
<path d="M 56.84 108.79 C 58.15 109.59 59.46 110.36 60.77 111.15 C 62.08 112.93 63.74 113.38 65.65 114.28 C 66.09 115.34 66.47 116.44 66.79 117.55 C 62.50 117.13 59.84 114.42 57.03 111.47 C 57.59 113.15 57.62 114.72 57.13 116.17 C 54.57 113.08 57.05 112.10 56.84 108.79 Z" fill="#ffffff"/>
<path d="M 73.03 112.28 C 74.47 111.85 74.66 115.10 73.13 114.57 C 72.46 113.80 72.43 113.03 73.03 112.28 Z" fill="#ffffff"/>
<path d="M 69.14 118.36 C 70.20 117.60 70.65 117.81 70.49 119.00 L 69.77 119.52 L 68.99 119.14 L 69.14 118.36 Z" fill="#0061aa"/>
<path d="M 44.04 129.32 C 81.01 129.33 117.99 129.33 154.96 129.32 C 154.96 129.97 154.96 130.62 154.96 131.27 C 151.08 131.90 147.53 133.41 143.78 134.48 C 137.88 136.04 132.78 131.45 126.99 131.45 C 122.64 131.65 118.34 134.45 114.04 134.79 C 109.05 135.11 103.99 131.26 98.99 131.46 C 94.53 131.80 90.36 134.58 86.01 134.81 C 81.34 134.93 76.71 131.66 72.01 131.45 C 66.21 131.46 61.13 136.04 55.22 134.48 C 51.47 133.42 47.92 131.90 44.04 131.27 C 44.04 130.62 44.04 129.97 44.04 129.32 Z" fill="#0061aa"/>
<path d="M 44.04 131.27 C 47.92 131.90 51.47 133.42 55.22 134.48 C 61.13 136.04 66.21 131.46 72.01 131.45 C 76.71 131.66 81.34 134.93 86.01 134.81 C 90.36 134.58 94.53 131.80 98.99 131.46 C 103.99 131.26 109.05 135.11 114.04 134.79 C 118.34 134.45 122.64 131.65 126.99 131.45 C 132.78 131.45 137.88 136.04 143.78 134.48 C 147.53 133.41 151.08 131.90 154.96 131.27 C 154.96 132.44 154.97 133.61 154.97 134.79 C 150.82 135.38 147.09 137.21 143.04 138.14 C 137.22 139.31 131.78 134.32 125.97 135.05 C 121.97 135.56 118.05 137.96 114.02 138.31 C 109.02 138.58 103.95 134.75 98.98 134.99 C 94.65 135.27 90.44 138.03 86.00 138.32 C 81.35 138.43 76.69 135.12 72.02 134.98 C 66.60 134.88 61.43 139.25 55.96 138.14 C 51.91 137.21 48.19 135.38 44.04 134.79 C 44.04 133.61 44.04 132.44 44.04 131.27 Z" fill="#ffffff"/>
<path d="M 44.04 134.79 C 48.19 135.38 51.91 137.21 55.96 138.14 C 61.43 139.25 66.60 134.88 72.02 134.98 C 76.69 135.12 81.35 138.43 86.00 138.32 C 90.44 138.03 94.65 135.27 98.98 134.99 C 103.95 134.75 109.02 138.58 114.02 138.31 C 118.05 137.96 121.97 135.56 125.97 135.05 C 131.78 134.32 137.22 139.31 143.04 138.14 C 147.09 137.21 150.82 135.38 154.97 134.79 C 154.97 135.87 154.97 136.96 154.97 138.05 C 150.83 138.71 147.08 140.53 143.03 141.43 C 137.76 142.56 132.21 138.17 127.00 138.26 C 122.63 138.43 118.32 141.29 113.96 141.60 C 109.01 141.88 103.95 138.05 98.99 138.27 C 94.62 138.57 90.34 141.40 85.96 141.61 C 81.32 141.73 76.65 138.43 72.01 138.26 C 67.06 138.19 61.96 142.03 56.99 141.58 C 52.53 140.96 48.55 138.66 44.04 138.09 C 44.04 136.99 44.04 135.89 44.04 134.79 Z" fill="#0061aa"/>
<path d="M 44.04 138.09 C 48.55 138.66 52.53 140.96 56.99 141.58 C 61.96 142.03 67.06 138.19 72.01 138.26 C 76.65 138.43 81.32 141.73 85.96 141.61 C 90.34 141.40 94.62 138.57 98.99 138.27 C 103.95 138.05 109.01 141.88 113.96 141.60 C 118.32 141.29 122.63 138.43 127.00 138.26 C 132.21 138.17 137.76 142.56 143.03 141.43 C 147.08 140.53 150.83 138.71 154.97 138.05 C 154.97 139.21 154.97 140.38 154.97 141.55 C 151.10 142.21 147.55 143.73 143.80 144.79 C 137.76 146.55 132.01 141.10 125.96 141.82 C 121.97 142.42 118.05 144.74 114.02 145.13 C 109.04 145.40 103.95 141.55 98.98 141.76 C 94.66 142.09 90.37 144.86 86.02 145.14 C 81.72 145.22 77.32 142.44 73.04 141.82 C 66.98 141.10 61.25 146.55 55.20 144.79 C 51.45 143.73 47.90 142.20 44.02 141.55 C 44.02 140.40 44.02 139.24 44.04 138.09 Z" fill="#ffffff"/>
<path d="M 44.02 141.55 C 47.90 142.20 51.45 143.73 55.20 144.79 C 61.25 146.55 66.98 141.10 73.04 141.82 C 77.32 142.44 81.72 145.22 86.02 145.14 C 90.37 144.86 94.66 142.09 98.98 141.76 C 103.95 141.55 109.04 145.40 114.02 145.13 C 118.05 144.74 121.97 142.42 125.96 141.82 C 132.01 141.10 137.76 146.55 143.80 144.79 C 147.55 143.73 151.10 142.21 154.97 141.55 C 154.97 143.46 154.97 145.36 154.96 147.26 C 117.99 147.26 81.02 147.26 44.04 147.26 C 44.03 145.36 44.03 143.45 44.02 141.55 Z" fill="#0061aa"/>
<path d="M 44.04 150.18 C 81.01 150.18 117.99 150.18 154.96 150.18 C 154.97 155.75 154.97 161.32 154.96 166.89 C 117.99 166.90 81.01 166.90 44.04 166.89 C 44.03 161.32 44.03 155.75 44.04 150.18 Z" fill="#ffffff"/>
<path d="M 46.21 152.39 C 81.60 152.16 117.44 152.36 152.88 152.29 C 152.90 156.50 152.90 160.71 152.90 164.92 C 117.30 164.92 81.70 164.92 46.10 164.92 C 46.19 160.75 45.92 156.55 46.21 152.39 Z" fill="#0061aa"/>
<path d="M 50.59 155.29 C 52.31 155.15 54.09 155.28 55.81 155.35 L 51.53 157.16 L 55.97 158.99 C 54.75 159.12 53.52 159.24 52.29 159.36 C 52.22 160.42 52.14 161.48 52.06 162.54 C 49.43 161.55 50.57 157.47 50.59 155.29 Z" fill="#ffffff"/>
<path d="M 59.36 155.38 C 61.59 154.64 64.49 155.49 64.84 158.11 C 65.27 161.24 61.77 162.93 59.19 161.76 C 56.25 160.79 56.36 156.21 59.36 155.38 Z" fill="#ffffff"/>
<path d="M 68.47 155.55 C 71.08 154.35 74.82 155.68 74.39 159.01 C 74.09 161.88 70.68 162.81 68.36 161.59 C 65.97 160.43 66.08 156.66 68.47 155.55 Z" fill="#ffffff"/>
<path d="M 75.35 155.32 C 77.55 155.50 81.55 154.33 83.13 156.27 C 82.14 156.40 81.15 156.53 80.16 156.65 C 80.16 158.40 80.16 160.15 80.15 161.91 L 78.31 161.92 C 78.31 160.26 78.29 158.59 78.27 156.93 C 77.10 156.64 76.13 156.10 75.35 155.32 Z" fill="#ffffff"/>
<path d="M 84.40 155.23 C 86.10 155.08 87.74 155.35 89.41 155.67 C 89.46 157.54 90.24 159.78 89.59 161.57 C 87.97 162.14 86.00 162.00 84.29 162.04 C 84.27 159.78 84.21 157.48 84.40 155.23 Z" fill="#ffffff"/>
<path d="M 94.29 155.31 C 94.95 155.27 95.62 155.26 96.29 155.29 C 97.33 157.58 98.25 159.91 99.15 162.26 C 97.71 161.76 96.33 161.13 94.98 160.42 L 96.13 157.70 L 94.68 157.63 C 94.69 158.73 94.70 159.82 94.70 160.92 C 93.59 161.39 92.48 161.86 91.37 162.34 C 92.26 160.00 92.98 157.45 94.29 155.31 Z" fill="#ffffff"/>
<path d="M 100.86 155.53 C 101.38 155.29 101.91 155.07 102.45 154.86 C 102.49 156.73 102.50 158.60 102.51 160.47 C 104.04 160.63 105.33 160.78 106.63 161.66 C 104.66 161.83 102.70 161.90 100.73 161.94 C 100.72 159.82 100.60 157.64 100.86 155.53 Z" fill="#ffffff"/>
<path d="M 107.83 155.51 C 108.35 155.29 108.89 155.09 109.42 154.89 C 109.46 156.76 109.47 158.63 109.49 160.49 C 111.04 160.71 112.37 160.53 113.52 161.75 C 111.58 161.87 109.64 161.91 107.70 161.92 C 107.69 159.80 107.57 157.62 107.83 155.51 Z" fill="#ffffff"/>
<path d="M 125.22 156.59 C 122.91 157.02 120.25 155.78 119.70 158.93 C 120.90 161.38 123.19 160.13 125.43 160.48 C 123.21 163.00 118.50 162.69 118.08 158.97 C 117.65 155.03 123.01 153.83 125.22 156.59 Z" fill="#ffffff"/>
<path d="M 126.93 155.53 C 127.44 155.29 127.96 155.06 128.48 154.84 C 128.53 156.73 128.55 158.61 128.57 160.50 C 130.14 160.77 131.45 160.41 132.50 161.81 C 130.60 161.89 128.69 161.91 126.78 161.91 C 126.77 159.80 126.65 157.63 126.93 155.53 Z" fill="#ffffff"/>
<path d="M 135.23 154.94 C 135.63 156.48 134.84 160.45 136.99 160.74 C 140.30 160.42 137.12 155.31 140.42 154.78 C 140.38 156.73 140.77 159.06 140.05 160.90 C 138.07 163.02 133.66 162.49 133.67 159.07 C 133.84 157.46 132.82 155.03 135.23 154.94 Z" fill="#ffffff"/>
<path d="M 142.89 155.26 C 144.29 155.18 146.02 155.00 147.30 155.63 C 148.25 157.23 148.86 160.01 147.79 161.70 C 146.14 161.91 144.45 161.93 142.78 161.97 C 142.76 159.74 142.70 157.47 142.89 155.26 Z" fill="#ffffff"/>
<path d="M 59.36 157.31 C 61.32 155.50 63.69 157.34 62.76 159.79 C 60.96 161.80 57.49 159.82 59.36 157.31 Z" fill="#0061aa"/>
<path d="M 69.14 157.17 C 71.08 155.35 73.87 158.03 72.04 160.02 C 69.99 161.96 67.08 159.09 69.14 157.17 Z" fill="#0061aa"/>
<path d="M 86.21 156.74 L 86.94 156.36 L 87.65 156.81 L 87.62 157.64 L 86.88 158.02 L 86.18 157.56 L 86.21 156.74 Z" fill="#0061aa"/>
<path d="M 145.30 157.23 C 145.30 157.23 145.30 157.23 145.30 157.23 Z" fill="#0061aa"/>
<path d="M 86.27 159.19 C 88.15 158.12 89.51 160.60 87.13 161.00 C 85.86 160.67 85.58 160.07 86.27 159.19 Z" fill="#0061aa"/>
<path d="M 54.35 170.85 C 84.44 170.70 114.56 170.70 144.65 170.85 C 130.41 177.32 115.88 183.22 101.56 189.52 C 99.19 190.76 97.56 189.50 95.36 188.65 C 81.75 182.60 67.89 177.04 54.35 170.85 Z" fill="#0061aa"/>
</svg>
