<?xml version="1.0" encoding="UTF-8"?>
<!-- Generator: Adobe Illustrator 13.0.2, SVG Export Plug-In . SVG Version: 6.00 Build 14948)  -->
<!DOCTYPE svg PUBLIC "-//W3C//DTD SVG 1.0//EN" "http://www.w3.org/TR/2001/REC-SVG-20010904/DTD/svg10.dtd">
<svg version="1.0" id="Layer_1" xmlns="http://www.w3.org/2000/svg" xmlns:xlink="http://www.w3.org/1999/xlink" x="0px" y="0px" width="340.666px" height="392.657px" viewBox="0 0 340.666 392.657" enable-background="new 0 0 340.666 392.657" xml:space="preserve">
<path fill="#F6E300" d="M170.333,392.657c9.001,0,170.333-86.667,170.333-327.001V0H0v65.656  C0,305.99,161.332,392.657,170.333,392.657z"/>
<path fill="#225BA5" d="M8.504,52.157c0,7.849,0,13.499,0,13.499c0,52.813,7.997,102.14,23.771,146.612  c12.805,36.104,30.72,69.082,53.247,98.018c37.892,48.672,76.528,70.135,84.812,73.546c8.283-3.411,46.92-24.874,84.812-73.546  c22.527-28.936,40.442-61.913,53.247-98.018c15.772-44.473,23.771-93.8,23.771-146.612c0,0,0-5.65,0-13.499H8.504z"/>
<g>
	<path fill="#F6E300" d="M73,292.814l14.496-14.495c29.617-29.618,120.489-96.139,214.837-115.589v-20.907   C200,161.49,103.379,233.444,73,263.823V292.814z"/>
	<path fill="#33519E" d="M302.333,120.948l-3.869,0.744C200.269,140.563,111.981,202.713,73,236.086v27.737   c30.379-30.379,127-102.333,229.333-122V120.948z"/>
</g>
<g>
	<path fill="#848484" d="M227.833,126.74c-3.563-1.688-8.917-0.938-8.917-12c5.667,0,7.667-1.188,7.667-4.584   c-3.313-1.15-7.333-3.604-7.333-10.583c0-5.021-4.167-8.646-10.333-10.333c-1.021,0-1.334-1.938-1.334-3.25   c0-2.25,1.333-4.5,1.333-6.5c-2.896,0-7.333,4-7.333,4v-5.75c-1.875,0-2.833,1.583-2.833,1.583h-7l-4.417,4.167h-18   c-5.334,0-6.5,5.5-6.5,5.5c-13.166,0-17.5,5.667-17.5,9.75c0,0-2,4.75-2,9c0,2.917,6.334,3.25,12,3.25   c4.486,0,6.597-2.642,9.689-4.083l0.479,0.271c1.462,0.832,2.335,2.399,2.629,4.648c-1.443-0.401-2.995-0.712-4.797-0.712   c-7.5,0-13.625,4.25-20.75,4.25c-6.125,0-6-4.75-10.625-4.75c-1.75,0-4.25,1.375-4.25,5.5c0,5.5,5.625,9.375,12.25,9.375   c11.375,0,9.375-7.5,23.75-7.5c1.445,0,2.768,0.136,3.998,0.346c-0.241,1.165-0.529,2.245-0.802,3.149   c-1.315-0.703-2.891-1.245-4.821-1.245c-5.25,0-9,4.583-9,7.75c0,1.833,1.25,3.5,1.25,3.5h7.75c-1.875,1.875-3,4.25-3,4.25   c-1.866,0-3.666,0.588-5.339,1.629c-3.34-1.86-7.653-3.629-12.036-3.629c-6.805,0-12.856-3.992-17.874-8.875   c-1.885-1.833-2.772-3.96-4.247-5.621c-1.535-1.731-3.668-2.996-6.246-4.879c-1.724-1.078-3.463-2.875-5.258-2.875   c-1.25,0-2.5,1.25-2.5,1.25s-2.25-3.125-6.625-3.125c-5.5,0-10.25,4.125-10.25,8.75c0,6.25,3.625,8,3.625,8   s-1.375,2.75-1.375,5.375c0,8.5,5.375,11.375,11.375,11.375c5.875,0,4.75-1.625,7.75-1.625c7,0,15.125,14.625,31.875,14.625   c0.604,0,1.22-0.026,1.823-0.068c-0.129,1.142-0.198,2.292-0.198,3.443c-9.75,0-11.084,6.25-17.75,6.25   c-12.334,0-11-6.25-19.75-6.25c-5.084,0-9,2.333-9,5.75c-3.416,0-5.75,4.75-5.75,8.5c0,5.583,6,7.75,6,7.75s-1.083,2.167-1.083,4   c0,4.667,3.75,5.5,6.25,5.5c7.499,0,3.167-4.417,13.333-4.417c14.666,0,12.834-4.583,17.5-4.583c6.778,0,8.57,0.233,15.107,0.248   c22.986-13.84,49.049-27.437,77.024-38.669c0.073-1.209,0.118-2.467,0.118-3.663c0-6.291-2-8.333-2-8.333   S227.833,131.74,227.833,126.74z"/>
	<g>
		<path fill="#C1C1C1" d="M168.875,112.042c2.353,0.712,4.462,1.573,6.958,1.573c0.519,0,0.994-0.021,1.45-0.047    c-0.369-4.72-3.033-7.578-8.2-7.578c-1.238,0-2.285,0.227-3.231,0.573C167.163,107.31,168.534,108.852,168.875,112.042z"/>
		<path fill="#C1C1C1" d="M168.404,118.463c-0.254,1.228-0.563,2.387-0.867,3.383c2.124,1.293,3.501,2.895,4.546,2.895    c1.776,0,3.042-1.297,3.889-3.106C174.322,120.489,171.809,119.156,168.404,118.463z"/>
	</g>
	<path fill="#C1C1C1" d="M128.417,116.115c0,4.859,5.069,8.666,11.541,8.666c5.133,0,7.329-1.526,9.872-3.295   c2.835-1.971,6.049-4.205,13.878-4.205c5.803,0,9.928,1.896,12.545,3.687c0.68-1.738,1.08-3.937,1.08-6.228   c0,0-0.01-0.248-0.019-0.481c-0.659,0.029-1.481,0.064-1.481,0.064c-2.137,0-3.947-0.581-5.865-1.196   c-1.997-0.641-4.063-1.304-6.635-1.304c-3.688,0-7.116,1.085-10.431,2.133c-3.29,1.041-6.693,2.117-10.319,2.117   c-3.552,0-5.186-1.492-6.627-2.81c-1.186-1.084-2.122-1.94-3.998-1.94C130.643,111.323,128.417,112.333,128.417,116.115z"/>
	<path fill="#C1C1C1" d="M203.325,120.599c0.17-0.097,0.387-0.037,0.483,0.133c4.139,7.304,11.523,8.594,18.147,10.092l1.651,0.042   c0.014,0,1.424,0.029,2.43-0.947c0.631-0.613,0.938-1.556,1.019-2.711c-0.551-0.202-1.52-0.558-1.52-0.558   c-3.266-1.044-7.329-2.344-7.329-11.909v-0.357c-0.006,0-0.01,0.003-0.016,0.003c-0.274-0.013-6.758-0.365-10.977-6.103   c-0.116-0.157-0.082-0.379,0.075-0.495c0.158-0.116,0.38-0.082,0.495,0.075c4.013,5.457,10.438,6.14,10.501,6.143   c0.105,0.005,0.172,0.016,0.216,0.025h0.414c5.51,0,6.787-1.16,6.929-3.417c-4.896-1.886-7.304-5.491-7.304-11.041   c0-3.768-2.6-6.872-7.218-8.767c-0.444,3.098-2.407,6.767-2.407,6.767s0.334-2.333,0.334-4.167c0-0.863-0.222-2.243-0.457-3.464   c-0.021-0.006-0.042-0.013-0.063-0.019l0.062,0.008c-0.001-0.002-0.001-0.004-0.001-0.006c-1.403-0.119-1.916-2.081-1.916-3.936   c0-1.264,0.37-2.476,0.727-3.647c0.219-0.715,0.389-1.386,0.495-2.029c-2.137,0.521-4.999,2.768-6.038,3.703l-1.184,1.065   c0,0,0-5.261,0-6.493c-0.962,0.296-1.494,1.063-1.521,1.105l-0.208,0.334l-0.396,0.004c0,0-6.2,0-6.719,0   c-0.372,0.352-4.417,4.166-4.417,4.166h-18.281c-4.682,0-5.763,4.738-5.807,4.94l-0.121,0.559c4.762,0,9.928,1.459,9.928,1.459   h8.833c0,0-7.291,5.375-8.416,7c-4.917-4.917-10.345-8.459-10.345-8.459l-0.572,0.001c-11.611,0-15.765,4.362-16.616,7.701   c0,0-0.634,4.341,5.033,4.341c0,0-0.5,2-0.5,3c0,4.917,4.583,5.541,4.583,5.541c2.905,0,4.721-1.178,6.644-2.425   c1.951-1.266,3.97-2.575,7.106-2.575c5.777,0,8.959,3.359,8.959,9.459c0,5.157-1.865,10.708-5.959,10.708   c-0.871,0-1.707-0.649-2.766-1.472c-1.645-1.277-3.897-3.028-7.234-3.028c-4.81,0-8.291,4.206-8.291,7.042   c0,1.164,0.605,2.284,0.921,2.791c0.688,0,9.081,0,9.081,0l-1.21,1.21c-1.761,1.761-2.85,4.03-2.86,4.053l-0.192,0.404h-0.448   c-7.603,0-14.791,11.198-14.791,23.042v0.708h-0.709c-5.123,0-7.759,1.754-10.309,3.45c-2.165,1.439-4.21,2.8-7.441,2.8   c-6.916,0-9.726-1.939-12.205-3.65c-2.021-1.395-3.765-2.6-7.545-2.6c-4.804,0-8.291,2.121-8.291,5.042v0.354   c3.179,0,6.779,1.633,8.292,3.146c0.138,0.139,0.139,0.363,0,0.501c-0.139,0.139-0.363,0.139-0.501,0   c-1.419-1.418-4.889-2.938-7.791-2.938c-0.196,0-0.354-0.158-0.354-0.354h-0.354c-1.76,0-2.98,1.569-3.551,2.505   c-0.934,1.529-1.49,3.506-1.49,5.287c0,5.008,5.307,7.001,5.533,7.084l0.745,0.271l-0.353,0.711   c-0.011,0.021-1.01,2.044-1.01,3.684c0,3.96,3.014,4.791,5.542,4.791c3.171,0,3.939-0.771,4.912-1.749   c1.246-1.25,2.658-2.667,8.421-2.667c9.15,0,11.663-1.788,13.498-3.094c1.123-0.8,2.093-1.49,4.002-1.49l15.75,0.25   c0.129,0,0.334-0.013,0.596-0.037c11.225-6.722,23.171-13.376,35.705-19.722c-0.852-0.502-1.459-0.957-1.515-1l-0.474-0.358   l0.541-0.246c0.043-0.021,4.375-2.029,4.375-5.012c0-0.838-0.604-1.427-1.304-2.109c-0.912-0.889-1.946-1.896-1.946-3.724   c0-0.602,0.137-1.261,0.278-1.783c-1.754,1.084-3.83,1.805-6.257,1.805c-4.867,0-6.704-2.29-6.779-2.387l-0.25-0.321l0.353-0.203   c0.063-0.037,6.322-3.705,6.322-8.193c0-0.298-0.11-0.47-0.293-0.755c-0.351-0.549-0.832-1.3-0.832-3.37   c0-3.672,1.169-6.974,3.574-10.092c0.119-0.155,0.342-0.184,0.497-0.064c0.09,0.07,0.138,0.175,0.138,0.281   c0,0.075-0.024,0.151-0.074,0.216c-2.306,2.99-3.426,6.149-3.426,9.659c0,1.863,0.399,2.486,0.72,2.987   c0.208,0.325,0.405,0.633,0.405,1.138c0,4.266-4.852,7.657-6.286,8.566c0.641,0.573,2.438,1.829,5.932,1.829   c9.297,0,13.251-11.271,13.29-11.385c0.063-0.187,0.264-0.284,0.449-0.222c0.185,0.063,0.284,0.265,0.221,0.45   c-0.028,0.084-2.092,5.966-6.757,9.415c-0.095,0.261-0.516,1.462-0.516,2.429c0,1.528,0.88,2.387,1.731,3.217   c0.747,0.727,1.519,1.479,1.519,2.616c0,2.804-3.022,4.714-4.257,5.381c0.332,0.227,0.823,0.542,1.384,0.854   c6.182-3.118,12.506-6.159,18.955-9.096c1.639-4.332,3.376-9.619,3.376-12.555c0-2.73-0.966-5.264-0.976-5.289   c-0.071-0.183,0.02-0.388,0.202-0.458s0.388,0.02,0.458,0.202c0.042,0.108,1.024,2.679,1.024,5.545   c0,2.914-1.588,7.903-3.167,12.148c6.134-2.778,12.372-5.468,18.719-8.028c0.082-1.259,0.135-2.616,0.135-3.954   c0-5.839-1.785-7.824-1.804-7.843l-1.005-1.08c-5.962-0.701-14.576-2.318-18.874-9.902   C203.096,120.911,203.155,120.694,203.325,120.599z"/>
	<path fill="#C1C1C1" d="M141.708,134.448c-6.084,0-12.092-2.968-18.368-9.075c-1.133-1.102-1.903-2.273-2.648-3.407   c-0.533-0.812-1.037-1.578-1.635-2.252c-1.084-1.222-2.537-2.238-4.219-3.416l-1.915-1.36c0.041,0.027-1.445-1.015-1.445-1.015   c-1.146-0.848-2.332-1.725-3.395-1.725c-0.567,0-1.215,0.402-1.638,0.732l0,0c0.643,1.883,3.263,7.685,3.263,7.685   s-3.531-3.063-4.21-6.793l-0.488-0.666c-0.085-0.116-2.114-2.833-6.052-2.833c-5.083,0-9.541,3.758-9.541,8.042   c0,5.679,3.098,7.298,3.229,7.364l0.631,0.316l-0.31,0.636c-0.014,0.026-1.301,2.638-1.301,5.059   c0,9.28,6.683,10.666,10.666,10.666c3.251,0,4.187-0.495,5.012-0.932c0.646-0.341,1.313-0.693,2.738-0.693   c2.99,0,5.931,2.269,9.652,5.142c5.477,4.225,12.291,9.483,22.223,9.483c0.633,0,1.28-0.031,1.914-0.078   c1.001-7.369,4.547-14.209,9.201-17.513C149.859,136.065,145.795,134.448,141.708,134.448z M114.333,135.865   c-4.813,0-11.5-4.938-11.5-6.75c2.188-1.25,4.563-3.813,5.375-5.375c1.469,1.469,4.188,4.313,5.25,5.375   c0,0.625-0.875,0.5-0.875,2.375c0,1.375,5.25,3.313,5.25,3.75S115.708,135.865,114.333,135.865z"/>
	<path fill="#848484" d="M254.179,133.155c0.701-16.016,5.168-18.04,6.779-18.04c0.875,0,0.875,2.75,6,2.75   c18.625,0,22.25-14.125,22.25-24.5c-3.75,0-11,4.875-14.625,4.875c-5.75,0-3.875-2.5-11.25-2.5c-7,0-10.75,3.25-10.75,13.25   c0,0.5-9.875,4.875-9.875,26c0,0.669,0.024,1.351,0.062,2.034C246.545,135.686,250.349,134.394,254.179,133.155z"/>
	<path fill="#C1C1C1" d="M253.459,133.386c0.711-17.522,5.845-18.979,7.499-18.979c0.604,0,0.95,0.448,1.255,0.844   c0.584,0.76,1.468,1.906,4.745,1.906c18.193,0,21.354-14.029,21.524-22.979c-1.729,0.247-4.086,1.266-6.415,2.304   c-2.847,1.27-5.536,2.468-7.484,2.468c-2.875,0-4.024-0.619-5.136-1.218c-1.168-0.63-2.377-1.282-6.114-1.282   c-7.132,0-10.041,3.634-10.041,12.542c0,0.415-0.269,0.622-0.756,0.998c-6.051,4.672-9.119,13.084-9.119,25.002   c0,0.588,0.017,1.187,0.047,1.787C246.774,135.609,250.105,134.476,253.459,133.386z"/>
	<path fill="#848484" d="M248.107,178.808c-0.511,14.271-3.618,30.058-22.149,30.058c0-7.506-4.419-13.284-8.519-17.033   c-28.594,13.378-54.862,29.048-76.73,43.998c2.833,3.067,5.624,6.257,5.624,8.535c0,2.875-1,3.875-1,3.875s-3,0-4.375,0   c-4.328,0-7.288-2.847-9.597-5.876c-8.1,5.789-15.459,11.394-21.967,16.635c1.584,1.604,3.508,2.241,4.563,2.241   c16.75,0,18.375,4.75,36,4.75c16,0,21-4.125,21-9c0-7.251-4.438-7.625-4.438-11.438c0-2.813,3.188-5.438,5.438-5.438   c0.301,0,0.612,0.007,0.928,0.018c2.02,15.108,22.072,15.473,22.072,24.732c0,6.625-7.125,14.5-13.25,14.5   c-7.375,0-5-2.5-14.125-2.5c-6.625,0-10,2.75-10,6.625c0,3.125,2.25,3.875,2.25,3.875s-2.5,1.625-2.5,5.375   c0,5.125,7.625,4.75,7.625,4.75s-1.25,1.25-1.25,2.75c0,3.5,4.5,4.5,10.75,4.5c9.625,0,12.375-3,16-3s2.75,0.375,6.625,0.375   c6,0,8.801-12.171,15.686-20.436c5.622-6.749,14.689-3.314,14.689-13.439c0-9.25-7.875-7.875-7.875-18.125   c0-14.375,11.125-8.875,11.125-27.625c22.875-4.375,27.125-15.126,27.125-39.625c0-2.531-0.119-5.158-0.273-7.526   C254.393,176.456,251.242,177.614,248.107,178.808z"/>
	<path fill="#C1C1C1" d="M248.844,178.526c-0.415,13.815-3.268,31.048-22.886,31.048h-0.709v-0.709   c0-7.357-4.469-13.051-8.523-16.702c-13.393,6.293-26.27,13.085-38.418,20.064c1.67,2.98,3.048,5.607,3.153,5.81l0.224,0.427   l-0.315,0.365c-0.08,0.092-7.952,9.297-7.952,18.786c0,9.7,7.017,13.795,13.208,17.408c4.649,2.713,9.042,5.276,9.042,9.842   c0,7.106-7.437,15.209-13.959,15.209c-3.637,0-5.068-0.614-6.453-1.208c-1.48-0.636-3.013-1.292-7.672-1.292   c-5.817,0-9.291,2.211-9.291,5.916c0,2.542,1.7,3.18,1.772,3.205l1.327,0.475l-1.169,0.787c-0.089,0.06-2.181,1.492-2.181,4.783   c0,0.985,0.32,1.771,0.98,2.399c1.898,1.811,5.861,1.645,5.901,1.643l1.813-0.086l-1.276,1.294c-0.011,0.01-1.044,1.07-1.044,2.25   c0,2.587,3.19,3.791,10.041,3.791c5.846,0,9.028-1.103,11.586-1.989c1.564-0.542,2.916-1.011,4.414-1.011   c1.828,0,2.563,0.097,3.274,0.189c0.701,0.091,1.427,0.186,3.351,0.186c3.252,0,5.672-4.462,8.474-9.629   c1.853-3.419,3.954-7.294,6.667-10.551c2.389-2.867,5.35-3.982,7.961-4.966c3.812-1.435,6.564-2.471,6.564-8.021   c0-4.226-1.745-6.078-3.593-8.041c-2.007-2.131-4.282-4.546-4.282-10.084c0-7.008,2.655-9.613,5.223-12.133   c2.902-2.848,5.902-5.793,5.902-15.492v-0.586l0.576-0.11c22.86-4.372,26.549-15.057,26.549-38.929c0-2.44-0.111-4.978-0.259-7.279   C254.18,176.539,251.506,177.519,248.844,178.526z"/>
	<path fill="#C1C1C1" d="M180.833,218.365c0,0-1.416-2.706-3.139-5.785c-13.074,7.533-25.291,15.278-36.393,22.848   c2.943,3.19,5.74,6.414,5.74,8.938c0,3.08-1.084,4.253-1.208,4.376l-0.021,0.021c1.235,0.147,2.921,0.213,5.228,0.104   c0.199,0,0.341-0.044,0.423-0.13c0.129-0.136,0.121-0.376,0.12-0.379l0.998-0.073c0.005,0.067,0.04,0.672-0.381,1.128   c-0.191,0.207-0.548,0.454-1.136,0.453c-4.105,0.195-6.908-0.118-8.41-0.915h-1.697c-4.63,0-7.784-3.05-10.169-6.174   c-4.249,3.046-8.286,6.036-12.108,8.952c0.347,0.216,0.569,0.346,0.569,0.346s-0.338-0.037-0.903-0.092   c-2.935,2.243-5.745,4.441-8.406,6.577c1.427,1.424,3.126,1.973,4.018,1.973c8.356,0,13.089,1.195,17.666,2.352   c4.669,1.18,9.498,2.398,18.334,2.398c13.275,0,20.292-2.867,20.292-8.291c0-3.958-1.378-5.706-2.593-7.248   c-0.949-1.204-1.845-2.341-1.845-4.189c0-3.166,3.462-6.146,6.146-6.146c0.273,0,0.555,0.006,0.839,0.015   c-0.054-0.583-0.089-1.18-0.089-1.806C172.708,227.74,180.833,218.365,180.833,218.365z"/>
</g>
<g>
	<path fill="#225BA5" d="M14.615,15.439v25.976h5.194c0,0,0-10.245,0-11.031c0.755,0,7.313,0,7.313,0v-4.819c0,0-6.558,0-7.313,0   c0-0.682,0-4.623,0-5.306c0.759,0,7.688,0,7.688,0v-4.819H14.615z"/>
	<path fill="#225BA5" d="M15.041,40.99V15.865h12.031v3.969h-7.688v6.156h7.313v3.969h-7.313V40.99H15.041z"/>
	<path fill="#225BA5" d="M31.609,15.439v25.976h5.194c0,0,0-9.655,0-10.438c0.409,0,0.966,0,0.966,0c0.76,0,1.318,0.162,1.659,0.482   c0.219,0.207,0.562,0.692,0.946,1.829l2.696,8.126h5.72l-3.656-10.395c-0.425-1.213-0.978-2.015-1.631-2.466   c0.997-0.354,1.888-0.889,2.55-1.778c0.85-1.135,1.281-2.515,1.281-4.1c0-3.251-1.213-5.409-3.605-6.414   c-1.306-0.554-3.597-0.823-7.004-0.823H31.609z M37.799,20.259c1.329,0,2.314,0.151,2.928,0.448   c0.822,0.424,1.227,1.206,1.227,2.388c0,1.315-0.431,3.063-4.154,3.063c0,0-0.578,0-0.995,0c0-0.696,0-5.203,0-5.899   C37.221,20.259,37.799,20.259,37.799,20.259z"/>
	<path fill="#225BA5" d="M32.034,40.99V15.865h4.691c3.318,0,5.599,0.264,6.84,0.79c2.229,0.937,3.344,2.943,3.344,6.021   c0,1.499-0.399,2.78-1.197,3.846c-0.818,1.101-1.909,1.756-3.273,1.966v0.071c0.956,0.094,1.721,0.961,2.295,2.602l3.457,9.829   h-4.813l-2.601-7.837c-0.332-0.984-0.685-1.651-1.058-2.003c-0.424-0.398-1.074-0.598-1.95-0.598h-1.392V40.99H32.034z    M36.378,19.834v6.75h1.421c3.053,0,4.579-1.163,4.579-3.489c0-1.344-0.488-2.268-1.466-2.771c-0.675-0.327-1.713-0.49-3.113-0.49   H36.378z"/>
	<path fill="#225BA5" d="M54.54,18.732c-1.87,2.363-2.818,5.599-2.818,9.616c0,4.039,0.938,7.297,2.785,9.683   c1.964,2.536,4.742,3.821,8.258,3.821c3.464,0,6.227-1.297,8.211-3.856c1.868-2.421,2.815-5.667,2.815-9.647   c0-3.959-0.958-7.182-2.848-9.58c-1.975-2.499-4.727-3.767-8.179-3.767C59.261,15.002,56.494,16.258,54.54,18.732z M58.427,34.403   L58.427,34.403c-0.878-1.556-1.323-3.59-1.323-6.046c0-2.373,0.459-4.364,1.365-5.919c1.027-1.761,2.433-2.617,4.296-2.617   c1.861,0,3.261,0.855,4.279,2.616c0.906,1.557,1.365,3.548,1.365,5.92c0,2.456-0.444,4.49-1.322,6.046   c-0.998,1.77-2.412,2.63-4.322,2.63C60.843,37.033,59.424,36.173,58.427,34.403z"/>
	<path fill="#225BA5" d="M52.147,28.349c0-3.938,0.908-7.056,2.726-9.353c1.878-2.379,4.509-3.568,7.892-3.568   c3.331,0,5.946,1.201,7.845,3.604c1.838,2.332,2.757,5.438,2.757,9.317c0,3.902-0.909,7.031-2.727,9.387   c-1.908,2.462-4.533,3.692-7.875,3.692c-3.393,0-6.033-1.219-7.922-3.657C53.046,35.45,52.147,32.31,52.147,28.349z M56.679,28.357   c0,2.542,0.459,4.627,1.377,6.255c1.07,1.897,2.64,2.847,4.709,2.847c2.059,0,3.622-0.949,4.692-2.847   c0.918-1.628,1.378-3.713,1.378-6.255c0-2.46-0.475-4.504-1.423-6.133c-1.091-1.886-2.64-2.828-4.647-2.828   c-2.009,0-3.563,0.942-4.663,2.828C57.152,23.854,56.679,25.897,56.679,28.357z"/>
	<path fill="#225BA5" d="M80.563,16.827L80.563,16.827c-1.657,1.427-2.496,3.534-2.496,6.265c0,2.505,0.878,4.474,2.61,5.853   c0.171,0.136,0.852,0.54,4.639,2.489c1.493,0.771,2.22,1.684,2.22,2.786c0,0.905-0.366,1.603-1.119,2.134   c-0.665,0.457-1.411,0.68-2.278,0.68c-1.532,0-3.103-0.498-4.668-1.481l-0.588-0.369l-0.502,5.572l0.337,0.098   c2.298,0.664,4.205,1,5.669,1c2.469,0,4.473-0.618,5.956-1.837c1.708-1.39,2.575-3.476,2.575-6.2c0-2.537-0.878-4.535-2.608-5.938   c-0.28-0.231-1.07-0.741-4.65-2.479c-1.466-0.715-2.21-1.563-2.21-2.519c0-1.11,0.323-1.906,0.989-2.434   c0.524-0.422,1.175-0.626,1.991-0.626c1.429,0,2.846,0.352,4.212,1.044l0.555,0.281l0.501-5.1l-0.302-0.116   c-1.597-0.616-3.396-0.929-5.347-0.929C83.824,15.002,81.979,15.616,80.563,16.827z"/>
	<path fill="#225BA5" d="M91.242,16.327l-0.408,4.159c-1.433-0.727-2.901-1.09-4.404-1.09c-0.908,0-1.66,0.239-2.256,0.718   c-0.767,0.607-1.15,1.529-1.15,2.767c0,1.137,0.816,2.104,2.45,2.901c2.632,1.277,4.155,2.086,4.568,2.426   c1.634,1.324,2.45,3.193,2.45,5.607c0,2.602-0.807,4.56-2.42,5.872c-1.411,1.16-3.307,1.74-5.686,1.74   c-1.432,0-3.282-0.328-5.551-0.983l0.408-4.532c1.642,1.031,3.273,1.547,4.895,1.547c0.947,0,1.788-0.253,2.523-0.758   c0.866-0.611,1.299-1.438,1.299-2.481c0-1.266-0.816-2.32-2.45-3.164c-2.823-1.453-4.347-2.268-4.568-2.443   c-1.634-1.301-2.45-3.141-2.45-5.521c0-2.613,0.782-4.594,2.348-5.941c1.342-1.148,3.078-1.723,5.209-1.723   C87.956,15.428,89.688,15.728,91.242,16.327z"/>
	<rect x="97.486" y="15.439" fill="#225BA5" width="5.194" height="25.976"/>
	<path fill="#225BA5" d="M97.912,40.99V15.865h4.344V40.99H97.912z"/>
	<path fill="#225BA5" d="M121.758,15.439c0,0,0,14.255,0,17.325c-1.244-2.852-7.56-17.325-7.56-17.325h-6.034v25.976h5.007   c0,0,0-14.255,0-17.315c1.245,2.841,7.591,17.315,7.591,17.315h6.003V15.439H121.758z"/>
	<path fill="#225BA5" d="M108.59,40.99V15.865h5.33l8.203,18.8h0.061v-18.8h4.156V40.99h-5.301l-8.233-18.782h-0.06V40.99H108.59z"/>
	<path fill="#225BA5" d="M134.354,18.732c-1.869,2.363-2.817,5.599-2.817,9.616c0,4.039,0.937,7.297,2.785,9.683   c1.964,2.536,4.742,3.821,8.257,3.821c3.465,0,6.228-1.297,8.212-3.856c1.868-2.421,2.815-5.667,2.815-9.647   c0-3.959-0.958-7.182-2.848-9.58c-1.976-2.499-4.727-3.767-8.18-3.767C139.075,15.002,136.308,16.258,134.354,18.732z    M138.24,34.403L138.24,34.403c-0.878-1.556-1.322-3.59-1.322-6.046c0-2.373,0.459-4.364,1.364-5.919   c1.028-1.761,2.433-2.617,4.296-2.617c1.862,0,3.262,0.855,4.279,2.616c0.907,1.557,1.366,3.548,1.366,5.92   c0,2.456-0.445,4.49-1.323,6.046c-0.998,1.77-2.412,2.63-4.322,2.63C140.657,37.033,139.238,36.173,138.24,34.403z"/>
	<path fill="#225BA5" d="M131.961,28.349c0-3.938,0.909-7.056,2.727-9.353c1.878-2.379,4.508-3.568,7.891-3.568   c3.332,0,5.947,1.201,7.846,3.604c1.837,2.332,2.756,5.438,2.756,9.317c0,3.902-0.908,7.031-2.726,9.387   c-1.909,2.462-4.534,3.692-7.876,3.692c-3.393,0-6.033-1.219-7.921-3.657C132.859,35.45,131.961,32.31,131.961,28.349z    M136.492,28.357c0,2.542,0.459,4.627,1.378,6.255c1.069,1.897,2.639,2.847,4.708,2.847c2.059,0,3.623-0.949,4.693-2.847   c0.918-1.628,1.377-3.713,1.377-6.255c0-2.46-0.475-4.504-1.423-6.133c-1.09-1.886-2.64-2.828-4.647-2.828   c-2.009,0-3.563,0.942-4.663,2.828C136.967,23.854,136.492,25.897,136.492,28.357z"/>
	<path fill="#225BA5" d="M171.975,15.439c0,0,0,14.252,0,17.324c-1.246-2.854-7.56-17.324-7.56-17.324h-6.034v25.976h5.007   c0,0,0-14.255,0-17.315c1.245,2.841,7.59,17.315,7.59,17.315h6.003V15.439H171.975z"/>
	<path fill="#225BA5" d="M158.807,40.99V15.865h5.33l8.203,18.8h0.06v-18.8h4.156V40.99h-5.3l-8.233-18.782h-0.06V40.99H158.807z"/>
	<path fill="#225BA5" d="M182.816,15.439v25.976h13.662v-4.819c0,0-7.701,0-8.469,0c0-0.702,0-5.509,0-6.212c0.76,0,7.688,0,7.688,0   v-4.819c0,0-6.928,0-7.688,0c0-0.682,0-4.623,0-5.306c0.767,0,8.406,0,8.406,0v-4.819H182.816z"/>
	<path fill="#225BA5" d="M183.241,40.99V15.865h12.75v3.969h-8.406v6.156h7.688v3.969h-7.688v7.063h8.469v3.969H183.241z"/>
	<path fill="#225BA5" d="M214.634,18.624L214.634,18.624c-2.179,2.437-3.283,5.88-3.283,10.234c0,4.212,1.156,7.496,3.437,9.76   c2.148,2.146,5.128,3.234,8.856,3.234c1.381,0,3.071-0.271,5.025-0.805l0.327-0.09l-0.233-5.267l-0.611,0.365   c-1.085,0.648-2.602,0.977-4.508,0.977c-2.137,0-3.789-0.785-5.054-2.401c-1.233-1.558-1.858-3.62-1.858-6.134   c0-2.517,0.626-4.611,1.861-6.226c1.275-1.648,2.895-2.451,4.948-2.451c1.679,0,3.176,0.426,4.448,1.266l0.607,0.4l0.374-5.284   l-0.27-0.122c-1.571-0.716-3.273-1.079-5.059-1.079C219.825,15.002,216.795,16.221,214.634,18.624z"/>
	<path fill="#225BA5" d="M228.369,36.422l0.188,4.216c-1.925,0.526-3.563,0.79-4.913,0.79c-3.629,0-6.48-1.037-8.557-3.111   c-2.208-2.191-3.312-5.345-3.312-9.458c0-4.266,1.058-7.583,3.175-9.95c2.086-2.32,4.983-3.48,8.692-3.48   c1.733,0,3.36,0.347,4.883,1.04l-0.302,4.265c-1.35-0.891-2.91-1.336-4.683-1.336c-2.175,0-3.937,0.873-5.286,2.618   c-1.299,1.698-1.948,3.859-1.948,6.483s0.649,4.756,1.948,6.396c1.338,1.71,3.135,2.565,5.389,2.565   C225.636,37.459,227.212,37.113,228.369,36.422z"/>
	<path fill="#225BA5" d="M239.535,15.439l-8.707,25.976h5.398c0,0,1.714-5.223,1.887-5.75c0.553,0,7.584,0,8.139,0   c0.171,0.53,1.857,5.75,1.857,5.75h5.683l-8.745-25.976H239.535z M242.2,22.274c0.547,1.811,2.33,7.713,2.59,8.571   c-0.854,0-4.325,0-5.179,0C239.871,29.987,241.653,24.086,242.2,22.274z"/>
	<path fill="#225BA5" d="M231.419,40.99l8.422-25.125h4.9L253.2,40.99h-4.781l-1.857-5.75h-8.756l-1.887,5.75H231.419z    M245.362,31.271l-3.131-10.364h-0.063l-3.13,10.364H245.362z"/>
	<path fill="#225BA5" d="M257.46,15.439v25.976h13.568v-4.819c0,0-7.608,0-8.375,0c0-0.816,0-21.156,0-21.156H257.46z"/>
	<path fill="#225BA5" d="M257.885,40.99V15.865h4.344v21.156h8.375v3.969H257.885z"/>
	<path fill="#225BA5" d="M277.05,18.624L277.05,18.624c-2.179,2.437-3.283,5.88-3.283,10.234c0,4.212,1.156,7.496,3.437,9.76   c2.148,2.146,5.128,3.234,8.856,3.234c1.381,0,3.071-0.271,5.025-0.805l0.327-0.09l-0.233-5.267l-0.611,0.365   c-1.085,0.648-2.602,0.977-4.508,0.977c-2.137,0-3.789-0.785-5.054-2.401c-1.233-1.558-1.858-3.62-1.858-6.134   c0-2.517,0.626-4.611,1.861-6.226c1.275-1.648,2.895-2.451,4.948-2.451c1.679,0,3.176,0.426,4.448,1.266l0.607,0.4l0.374-5.284   l-0.27-0.122c-1.571-0.716-3.273-1.079-5.059-1.079C282.241,15.002,279.211,16.221,277.05,18.624z"/>
	<path fill="#225BA5" d="M290.785,36.422l0.188,4.216c-1.925,0.526-3.563,0.79-4.913,0.79c-3.629,0-6.48-1.037-8.557-3.111   c-2.208-2.191-3.312-5.345-3.312-9.458c0-4.266,1.058-7.583,3.175-9.95c2.086-2.32,4.983-3.48,8.692-3.48   c1.733,0,3.36,0.347,4.883,1.04l-0.302,4.265c-1.35-0.891-2.91-1.336-4.683-1.336c-2.175,0-3.937,0.873-5.286,2.618   c-1.299,1.698-1.948,3.859-1.948,6.483s0.649,4.756,1.948,6.396c1.338,1.71,3.135,2.565,5.389,2.565   C288.052,37.459,289.628,37.113,290.785,36.422z"/>
	<rect x="295.254" y="15.439" fill="#225BA5" width="5.193" height="25.976"/>
	<path fill="#225BA5" d="M295.679,40.99V15.865h4.344V40.99H295.679z"/>
	<path fill="#225BA5" d="M307.874,18.732c-1.869,2.362-2.817,5.598-2.817,9.616c0,4.039,0.937,7.297,2.784,9.683   c1.964,2.536,4.742,3.821,8.258,3.821c3.465,0,6.228-1.298,8.211-3.856c1.869-2.421,2.815-5.666,2.815-9.647   c0-3.959-0.957-7.182-2.847-9.58c-1.975-2.499-4.727-3.767-8.18-3.767C312.595,15.002,309.827,16.258,307.874,18.732z    M310.438,28.357c0-2.372,0.46-4.363,1.365-5.919c1.028-1.761,2.434-2.617,4.296-2.617c1.861,0,3.261,0.856,4.279,2.616   c0.906,1.557,1.366,3.548,1.366,5.92c0,2.456-0.445,4.49-1.322,6.046c-0.998,1.77-2.412,2.63-4.323,2.63   c-1.921,0-3.341-0.86-4.339-2.63C310.883,32.848,310.438,30.813,310.438,28.357z"/>
	<path fill="#225BA5" d="M305.481,28.349c0-3.938,0.908-7.056,2.727-9.353c1.877-2.379,4.508-3.568,7.891-3.568   c3.332,0,5.947,1.201,7.846,3.604c1.837,2.332,2.756,5.438,2.756,9.317c0,3.902-0.908,7.031-2.727,9.387   c-1.908,2.462-4.533,3.692-7.875,3.692c-3.393,0-6.033-1.219-7.922-3.657C306.38,35.45,305.481,32.31,305.481,28.349z    M310.013,28.357c0,2.542,0.459,4.627,1.377,6.255c1.07,1.897,2.64,2.847,4.709,2.847c2.059,0,3.623-0.949,4.693-2.847   c0.918-1.628,1.377-3.713,1.377-6.255c0-2.46-0.475-4.504-1.423-6.133c-1.091-1.886-2.64-2.828-4.647-2.828   c-2.009,0-3.563,0.942-4.663,2.828C310.487,23.854,310.013,25.897,310.013,28.357z"/>
</g>
</svg>