<?xml version="1.0" encoding="UTF-8"?>
<!-- Generator: Adobe Illustrator 14.0.0, SVG Export Plug-In . SVG Version: 6.00 Build 43363)  -->
<svg version="1.2" baseProfile="tiny" id="Layer_1" xmlns:svg="http://www.w3.org/2000/svg" xmlns="http://www.w3.org/2000/svg" xmlns:xlink="http://www.w3.org/1999/xlink" x="0px" y="0px" width="525px" height="580px" viewBox="0 0 525 580" xml:space="preserve">
<path id="path9808" fill="#FCBC17" d="M462.822,187.627c-6.26-25.937-11.662-48.337-13.09-61.012  c-3.685-32.753,10.778-55.086,10.93-55.298l4.13-6.262L418.847,7.591l-6.354,1.556c-42.106,10.358-96.817,16.049-154.054,16.049  l-1.295-0.005l-1.295,0.005c-57.237,0-111.948-5.691-154.054-16.049l-6.354-1.556L49.494,65.055l4.13,6.262  c0.151,0.212,14.614,22.545,10.929,55.298c-1.427,12.674-6.83,35.075-13.089,61.012c-11.707,48.511-26.272,108.89-26.272,151.575  c0,77.699,31.734,116.361,125.756,153.209l9.678,3.76c36.267,14.052,75.443,26.268,88.336,56.065  c4.211,8.086,5.294,10.246,8.181,20.744c2.887-10.498,3.97-12.658,8.181-20.744c12.893-29.798,52.068-42.014,88.336-56.065  l9.678-3.76c94.021-36.849,125.756-75.511,125.756-153.209C489.094,296.518,474.527,236.137,462.822,187.627z"/>
<path id="path9810" fill="#E13327" d="M470.297,267.535c-5.042-26.177-11.572-53.258-17.425-77.507  c-6.263-26.031-11.701-48.281-13.311-62.268c-0.461-4.092-0.667-8.042-0.667-11.828c0.017-21.979,6.838-38.259,10.643-45.705  c1.295-2.518,2.181-3.938,2.563-4.523c0.006-0.009,0.011-0.016,0.017-0.022l0.023-0.036c0.002-0.004,0.005-0.008,0.008-0.013  l-37.216-46.547c-43.236,10.622-98.565,16.333-156.496,16.345h-0.043l-1.253-0.006v510.117c3.833-7.822,9.191-14.508,15.402-20.201  c6.908-6.333,14.867-11.518,23.35-16.063c16.969-9.065,36.15-15.689,54.059-22.646l9.649-3.749  c34.699-13.584,60.227-27.286,78.251-42.482c18.026-15.251,28.804-31.684,34.992-52.546c4.092-13.92,6.014-29.916,6.012-48.652  C478.872,319,475.348,293.689,470.297,267.535z"/>
<path id="path9812" d="M257.138,35.424l-1.291,0.006c-57.931-0.012-113.263-5.723-156.488-16.343l-0.008-0.002L62.135,65.632  c0.021,0.032,0.03,0.046,0.053,0.081c0.033,0.05,0.059,0.091,0.088,0.135c0.056,0.086,0.115,0.182,0.185,0.292  c0.138,0.222,0.311,0.506,0.518,0.857c0.412,0.7,0.955,1.665,1.586,2.882c1.263,2.432,2.876,5.874,4.476,10.213  c3.196,8.672,6.345,20.965,6.347,35.839c0,3.786-0.206,7.734-0.665,11.827c-1.609,13.987-7.049,36.238-13.311,62.269  c-5.853,24.25-12.382,51.33-17.425,77.507c-5.05,26.153-8.575,51.465-8.561,71.666c-0.002,18.735,1.919,34.733,6.012,48.651  c4.105,13.93,10.312,25.83,19.283,36.778c17.861,21.841,47.639,40.129,93.932,58.239l9.669,3.757  c13.434,5.209,27.591,10.263,40.98,16.264c13.378,6.018,26.064,12.956,36.438,22.45c6.212,5.693,11.57,12.379,15.402,20.201V35.424  H257.138z"/>
<path id="path9814" fill="#FFFFFF" d="M95.15,344.535c-2.099-2.154-5.434-3.391-8.453-3.391c-3.067,0-6.939,1.187-6.939,4.896  c0,7.375,18.514,7.274,18.514,17.224c0,5.759-6.029,11.147-14.423,11.147c-3.282,0-6.566-0.487-9.639-1.617l-1.559-6.727  c3.176,2.748,7.588,4.466,11.788,4.466c3.067,0,7.694-1.83,7.694-5.602c0-8.395-18.514-6.877-18.514-18.299  c0-6.781,6.947-9.367,13.514-9.367c2.686,0,5.436,0.379,8.016,1.181L95.15,344.535"/>
<path id="path9816" fill="#FFFFFF" d="M113.549,366.549c0,3.072-0.053,5.166,2.801,6.838v0.158h-10.663v-0.158  c2.7-1.023,2.373-4.945,2.373-7.375v-24.006h-4.74c-2.314,0-4.731,0.592-6.405,2.148h-0.162l1.886-6.407h0.16  c0.649,0.274,1.349,0.274,2.045,0.38h21.427c0.918,0,1.777-0.05,2.476-0.38h0.16l-1.718,6.407h-0.168  c-0.7-1.875-2.849-2.148-4.631-2.148h-4.84L113.549,366.549"/>
<path id="path9818" fill="#FFFFFF" d="M137.558,342.705l-5.33,13.564h10.607L137.558,342.705 M130.832,360.254l-2.803,7.594  c-1.127,3.011-1.505,4.578,1.077,5.541v0.156h-9.908v-0.156c3.123-1.562,4.041-4.572,5.221-7.639l8.99-22.451  c0.758-1.936,1.782-4.201-0.8-5.008v-0.162h8.503l11.197,27.621c1.237,3.066,2.205,6.077,5.277,7.639v0.156h-11.038v-0.156  c2.636-1.182,2.208-1.779,0.752-5.541l-2.907-7.594H130.832z"/>
<path id="path9820" fill="#FFFFFF" d="M167.216,369.303c1.29,0.269,2.585,0.375,3.931,0.375c8.019,0,15.181-4.197,15.181-13.515  c0-9.418-5.279-14.157-14.269-14.157c-1.609,0-3.226,0.211-4.843,0.592V369.303 M161.727,345.508c0-2.479,0.375-6.412-2.37-7.219  v-0.162h13.189c12.269,0,19.918,6.676,19.918,17.393c0,10.599-8.131,18.023-20.187,18.023h-12.921v-0.156  c2.691-1.836,2.37-4.416,2.37-7.588L161.727,345.508L161.727,345.508z"/>
<path id="path9822" fill="#FFFFFF" d="M202.848,369.022l6.835,0.655c3.554,0.324,7.266-0.812,9.961-3.179h0.159l-2.417,7.046  h-22.451v-0.158c2.75-0.961,2.423-4.945,2.423-7.375v-20.291c0-2.474,0.327-6.408-2.423-7.432v-0.162h17.224  c0.918,0,1.833,0.112,2.532-0.269h0.16v6.295h-0.16c-1.667-1.937-3.872-2.149-6.354-2.149c-1.886,0-3.771,0.057-5.49,0.375v10.018  h6.407c0.859,0,1.724,0,2.364-0.33h0.168v5.708h-0.168c-0.859-1.556-3.117-1.505-4.79-1.505h-3.981L202.848,369.022"/>
<path id="path9824" fill="#FFFFFF" d="M247.934,338.129c7.213,0,11.145,3.771,11.145,8.668c0,4.733-4.144,8.455-8.556,9.473  l7.748,9.744c2.258,2.803,5.657,5.596,8.721,7.531h-4.957c-2.848,0-4.625-0.699-6.242-2.686l-6.566-8.131l-4.955-7.588  c4.309-0.644,9.317-2.641,9.317-7.699c0-3.873-3.341-6.133-6.944-5.971c-1.24,0.056-2.426,0.211-3.663,0.431v24.112  c0,2.474-0.322,6.414,2.423,7.375v0.158h-10.279v-0.158c2.745-0.961,2.367-4.945,2.367-7.375v-20.291  c0-2.474,0.378-6.407-2.367-7.432v-0.162H247.934"/>
<path id="path9826" fill="#FFFFFF" d="M273.059,369.022l6.842,0.655c3.553,0.324,7.266-0.812,9.955-3.179h0.164l-2.416,7.046  h-22.451v-0.158c2.744-0.961,2.416-4.945,2.416-7.375v-20.291c0-2.474,0.328-6.408-2.416-7.432v-0.162h17.224  c0.912,0,1.827,0.112,2.526-0.269h0.162v6.295h-0.162c-1.668-1.937-3.873-2.149-6.35-2.149c-1.886,0-3.763,0.057-5.495,0.375v10.018  h6.413c0.859,0,1.719,0,2.367-0.33h0.159v5.708h-0.159c-0.861-1.556-3.125-1.505-4.793-1.505h-3.987L273.059,369.022"/>
<path id="path9828" fill="#FFFFFF" d="M298.031,366.549c0,3.022-0.057,5.166,2.798,6.838v0.158h-9.53v-0.158  c2.854-1.672,2.854-3.815,2.854-6.838v-21.477c0-3.01,0-5.165-2.804-6.782v-0.161h7.862v0.049c0.218,0.649,0.438,0.918,0.809,1.354  l0.756,1.075l19.7,24.874v-20.408c0-3.011,0.054-5.165-2.801-6.782v-0.162h9.478v0.162c-2.796,1.617-2.796,3.771-2.796,6.782v30.201  c-3.827-1.293-5.494-3.067-7.861-6.134l-18.464-23.418V366.549"/>
<path id="path9830" fill="#FFFFFF" d="M335.438,366.549c0,3.022-0.053,5.166,2.802,6.838v0.158h-9.535v-0.158  c2.858-1.672,2.858-3.815,2.858-6.838v-21.477c0-3.01,0-5.165-2.801-6.782v-0.161h7.862v0.049c0.21,0.649,0.428,0.918,0.8,1.354  l0.764,1.075l19.7,24.874v-20.408c0-3.011,0.051-5.165-2.803-6.782v-0.162h9.474v0.162c-2.798,1.617-2.798,3.771-2.798,6.782v30.201  c-3.822-1.293-5.49-3.067-7.855-6.134l-18.468-23.418V366.549"/>
<path id="path9832" fill="#FFFFFF" d="M382.965,342.705l-5.324,13.564h10.602L382.965,342.705 M376.242,360.254l-2.795,7.594  c-1.137,3.011-1.515,4.578,1.071,5.541v0.156h-9.901v-0.156c3.116-1.562,4.035-4.572,5.221-7.639l8.99-22.451  c0.75-1.936,1.771-4.201-0.81-5.008v-0.162h8.503l11.197,27.621c1.24,3.066,2.208,6.077,5.271,7.639v0.156h-11.029v-0.156  c2.641-1.182,2.208-1.779,0.75-5.541l-2.904-7.594H376.242z"/>
<path id="path9834" fill="#FFFFFF" d="M407.198,345.721c0-2.474,0.366-6.408-2.373-7.432v-0.162h10.227v0.162  c-2.692,1.023-2.37,5.008-2.37,7.432v20.291c0,2.43-0.322,6.352,2.37,7.375v0.158h-10.227v-0.158  c2.686-0.961,2.373-4.945,2.373-7.375V345.721"/>
<path id="path9836" fill="#FFFFFF" d="M438.507,344.535c-2.099-2.154-5.439-3.391-8.447-3.391c-3.071,0-6.943,1.187-6.943,4.896  c0,7.375,18.52,7.274,18.52,17.224c0,5.759-6.032,11.147-14.435,11.147c-3.282,0-6.562-0.487-9.63-1.617l-1.56-6.727  c3.173,2.748,7.585,4.466,11.785,4.466c3.066,0,7.703-1.83,7.703-5.602c0-8.395-18.521-6.877-18.521-18.299  c0-6.781,6.939-9.367,13.505-9.367c2.692,0,5.438,0.379,8.022,1.181V344.535"/>
<path id="path9838" fill="#FFFFFF" d="M131.664,409.19c0,1.349-0.24,3.553,1.262,4.119v0.089h-5.686v-0.089  c1.536-0.538,1.352-2.771,1.352-4.119v-11.343c0-1.389,0.185-3.582-1.352-4.152V393.6h9.627c0.515,0,1.024,0.067,1.416-0.146h0.089  v3.481h-0.089c-0.929-1.047-2.168-1.17-3.553-1.17c-1.049,0-2.104,0.039-3.067,0.213v5.602h3.609c0.448,0,0.935,0,1.295-0.185h0.092  v3.184h-0.092c-0.481-0.895-1.746-0.833-2.68-0.833h-2.225v5.444"/>
<path id="path9840" fill="#FFFFFF" d="M145.049,403.168c0,4.214,2.979,8.545,7.708,8.545c4.572,0,7.49-3.335,7.49-7.829  c0-4.387-2.798-8.628-7.555-8.628C148.029,395.256,145.049,398.625,145.049,403.168 M163.678,403.292  c0,6.14-5.086,10.587-11.074,10.587c-5.954,0-10.979-4.27-10.979-10.437c0-5.719,4.96-10.498,11.281-10.353  C159.226,393.057,163.678,397.875,163.678,403.292z"/>
<path id="path9842" fill="#FFFFFF" d="M170.622,403.168c0,4.214,2.974,8.545,7.703,8.545c4.572,0,7.49-3.335,7.49-7.829  c0-4.387-2.798-8.628-7.549-8.628C173.596,395.256,170.622,398.625,170.622,403.168 M189.245,403.292  c0,6.14-5.081,10.587-11.068,10.587c-5.959,0-10.985-4.27-10.985-10.437c0-5.719,4.961-10.498,11.281-10.353  C184.794,393.057,189.245,397.875,189.245,403.292z"/>
<path id="path9844" fill="#FFFFFF" d="M200.345,409.492c0,1.712-0.034,2.887,1.567,3.816v0.089h-5.959v-0.089  c1.505-0.565,1.323-2.771,1.323-4.119v-13.424h-2.647c-1.295,0-2.649,0.336-3.581,1.214h-0.093l1.055-3.587h0.089  c0.361,0.15,0.758,0.15,1.142,0.207h11.975c0.518,0,0.999-0.028,1.388-0.207h0.092l-0.962,3.587h-0.092  c-0.389-1.063-1.595-1.214-2.591-1.214h-2.706V409.492"/>
<path id="path9846" fill="#FFFFFF" d="M216.699,401.579c1.956,0,4.751-0.666,4.751-3.134c0-2.076-1.925-3.156-3.73-2.977  l-2.017,0.211v5.898L216.699,401.579 M218.321,411.232c2.465,0.241,4.969-0.907,4.969-3.755c0-2.928-2.832-4.187-5.479-4.035  l-2.109,0.118v7.431L218.321,411.232z M212.636,397.813c0-1.354,0.207-3.548-1.324-4.119V393.6h7.129  c3.97,0,6.292,1.689,6.292,4.371c0,2.009-1.295,3.155-3.008,3.899c2.703,0.576,4.899,2.384,4.899,5.327  c0,2.316-1.595,4.303-3.612,5.271c-2.102,1.024-4.479,0.93-6.738,0.93h-4.963v-0.089c1.502-0.565,1.324-2.771,1.324-4.147  L212.636,397.813L212.636,397.813z"/>
<path id="path9848" fill="#FFFFFF" d="M240.417,396.162l-2.974,7.583h5.926L240.417,396.162 M236.659,405.966l-1.564,4.242  c-0.632,1.685-0.845,2.563,0.602,3.101v0.089h-5.537v-0.089c1.743-0.873,2.258-2.563,2.918-4.271l5.025-12.546  c0.422-1.085,0.99-2.346-0.454-2.798V393.6h4.757l6.256,15.438c0.694,1.707,1.24,3.397,2.946,4.271v0.089h-6.167v-0.089  c1.475-0.661,1.234-0.991,0.425-3.101l-1.628-4.242H236.659z"/>
<path id="path9850" fill="#FFFFFF" d="M263.584,411.232c2.045,0.123,3.822-0.571,5.33-1.83h0.092l-1.572,3.996h-12.358v-0.089  c1.53-0.538,1.351-2.771,1.351-4.119v-11.343c0-1.389,0.179-3.582-1.351-4.152V393.6h5.741v0.096  c-1.53,0.57-1.323,2.798-1.323,4.152v13.116L263.584,411.232"/>
<path id="path9852" fill="#FFFFFF" d="M281.336,411.232c2.04,0.123,3.822-0.571,5.322-1.83h0.092l-1.564,3.996h-12.363v-0.089  c1.527-0.538,1.346-2.771,1.346-4.119v-11.343c0-1.389,0.182-3.582-1.346-4.152V393.6h5.746v0.096  c-1.541,0.57-1.328,2.798-1.328,4.152v13.116L281.336,411.232"/>
<path id="path9854" fill="#FFFFFF" d="M324.604,397.332c-1.656-1.052-3.582-1.718-5.567-1.718c-4.149,0-7.037,3.044-7.037,7.409  c0,4.416,3.008,8.359,7.638,8.359c2.258,0,4.508-0.816,6.416-1.891h0.086l-1.536,3.492c-1.421,0.655-2.979,0.896-4.544,0.896  c-7.099,0-11.494-3.968-11.494-10.402c0-6.234,4.396-10.358,10.565-10.358c1.835,0,3.69,0.335,5.473,0.755L324.604,397.332"/>
<path id="path9856" fill="#FFFFFF" d="M340.054,411.232c2.045,0.123,3.816-0.571,5.321-1.83h0.087l-1.56,3.996h-12.366v-0.089  c1.536-0.538,1.354-2.771,1.354-4.119v-11.343c0-1.389,0.183-3.582-1.354-4.152V393.6h5.74v0.096  c-1.526,0.57-1.317,2.798-1.317,4.152v13.116L340.054,411.232"/>
<path id="path9858" fill="#FFFFFF" d="M362.91,411.411c-1.323,1.746-3.788,2.468-5.896,2.468c-1.983,0-4.091-0.627-5.45-2.099  c-1.592-1.746-1.53-3.766-1.53-5.926v-8.041c0-1.354,0.207-3.548-1.329-4.119V393.6h5.725v0.095  c-1.505,0.571-1.323,2.765-1.323,4.119v8.041c0,3.996,1.685,5.858,4.784,5.858c1.686,0,3.4-0.693,4.391-2.104  c0.662-0.901,0.629-1.651,0.629-2.736v-9.06c0-1.354,0.189-3.548-1.323-4.119V393.6h5.719l0.028,0.095  c-1.531,0.571-1.353,2.765-1.353,4.152v11.343c0,1.349-0.179,3.553,1.353,4.119v0.089h-4.424V411.411"/>
<path id="path9860" fill="#FFFFFF" d="M377.109,401.579c1.962,0,4.763-0.666,4.763-3.134c0-2.076-1.925-3.156-3.735-2.977  l-2.017,0.211v5.898L377.109,401.579 M378.738,411.232c2.468,0.241,4.966-0.907,4.966-3.755c0-2.928-2.823-4.187-5.471-4.035  l-2.114,0.118v7.431L378.738,411.232z M373.053,397.813c0-1.354,0.207-3.548-1.323-4.119V393.6h7.129c3.977,0,6.29,1.689,6.29,4.371  c0,2.009-1.293,3.155-3.008,3.899c2.706,0.576,4.905,2.384,4.905,5.327c0,2.316-1.592,4.303-3.615,5.271  c-2.104,1.024-4.479,0.93-6.737,0.93h-4.963v-0.089c1.509-0.565,1.323-2.771,1.323-4.147L373.053,397.813L373.053,397.813z"/>
<path id="path9862" fill="#FCBC17" d="M218.379,442.44c2.423-0.846,4.577-2.585,5.828-4.769h0.078v15.361  c0,1.556-0.104,2.809,1.371,3.766v0.073h-5.725v-0.073c1.69-0.828,1.609-2.104,1.609-3.766v-10.515h-3.162L218.379,442.44"/>
<path id="path9864" fill="#FCBC17" d="M239.867,455.736c4.354-0.901,8.333-4.879,8.333-9.457c0-2.781-1.553-5.825-4.689-5.825  c-2.342,0-3.976,1.818-3.976,4.113c0,2.474,1.634,4.432,4.149,4.432c1.002,0,2.012-0.347,2.882-0.868l-1.852,2.262  c-0.708,0.273-1.444,0.408-2.205,0.408c-3.193,0-5.719-2.373-5.719-5.662c0-3.974,3.237-6.62,7.076-6.62  c4.281,0,7.084,3.352,7.084,7.465c0,3.133-1.656,6.155-4.087,8.091c-2.485,1.953-5.255,2.938-8.366,3.346L239.867,455.736"/>
<path id="path9866" fill="#FCBC17" d="M265.652,447.7c0,2.742,0.898,7.481,4.412,7.481c2.697,0,4.229-3.318,4.229-7.163  c0-3.89-1.637-7.319-4.391-7.382C266.467,440.639,265.652,445.053,265.652,447.7 M262.74,447.969c0-5.035,2.477-9.451,7.267-9.451  c5.044,0,7.199,4.874,7.199,9.29c0,4.438-2.185,9.501-7.302,9.501C265.63,457.258,262.74,453.005,262.74,447.969z"/>
<path id="path9868" fill="#FCBC17" d="M288.641,442.44c2.42-0.846,4.574-2.585,5.822-4.769h0.087v15.361  c0,1.556-0.108,2.809,1.356,3.766v0.073h-5.713v-0.073c1.693-0.828,1.606-2.104,1.606-3.766v-10.515h-3.159V442.44"/>
<polygon id="polygon9870" fill="#FFFFFF" points="309.684,71.938 204.606,71.938 142.282,135.11 142.282,239.024 206.258,304.272   308.035,304.272 308.772,303.521 372.004,239.024 372.004,135.109 "/>
<path id="path9872" fill="#E13327" d="M233.572,151.461c0-12.552,9.816-22.806,22.187-23.521V74.445h-50.103l-60.866,61.694v101.862  l62.523,63.765h48.446V174.987C243.388,174.272,233.572,164.013,233.572,151.461z"/>
<path id="path9874" d="M308.636,74.444h-50.103v53.496c12.372,0.722,22.181,10.973,22.181,23.52c0,12.547-9.81,22.803-22.181,23.525  v126.78h48.449L369.496,238V136.139L308.636,74.444z"/>
<path id="path9876" fill="#FFFFFF" d="M263.704,124.046l0.618-8.192c0,0,12.219-0.621,22.99,8.282c0,0,8.688-25.473,20.909-30.85  c0,0,0.825,3.307,1.646,3.52c0.836,0.201,3.729-3.111,4.565-2.899c0.82,0.207-1.038,11.388,24.84,21.119l-1.448,6.833  c0,0-31.676-2.49-31.676,16.351c0,8.489,12.217,23.189,14.278,25.881c2.082,2.691,15.324,13.458,17.186,42.237  c0,0,4.768-3.525,4.768-12.63c0-9.11-5.38-27.33-5.38-33.956s-1.044-24.426,16.972-24.426v9.104c0,0-6.103-0.174-6.835,7.868  c-0.613,6.833,8.285,36.854,4.145,48.242c-3.4,9.356-5.177,13.039-11.8,18.215c-6.625,5.176-27.747,21.947-7.457,36.849  l-18.838,34.163c0,0-10.974,3.934-11.799,3.934c-0.831,0-3.11,0.42-1.455-1.449c1.659-1.858,16.153-15.316,16.153-30.016  c0-14.701-21.323-19.261-21.323-41.41c0-14.7,12.837-23.604,12.837-23.604s-2.279-5.383-4.555-7.241  c-2.283-1.869-14.91-9.323-16.768-13.878c0,0-12.429,10.146-22.364,10.772c0,0-2.482-4.348-2.689-7.454  c0,0,24.829-3.173,24.349-29.154C285.165,128.467,263.704,124.046,263.704,124.046"/>
<path id="path9878" fill="#FFFFFF" d="M250.576,124.046l-0.618-8.192c0,0-12.21-0.621-22.985,8.282c0,0-8.69-25.473-20.903-30.85  c0,0-0.831,3.307-1.662,3.52c-0.826,0.201-3.724-3.111-4.55-2.899c-0.831,0.207,1.033,11.388-24.846,21.119l1.45,6.833  c0,0,31.678-2.49,31.678,16.351c0,8.489-12.219,23.189-14.287,25.881c-2.073,2.691-15.321,13.458-17.185,42.237  c0,0-4.762-3.525-4.762-12.63c0-9.11,5.38-27.33,5.38-33.956s1.038-24.426-16.972-24.426v9.104c0,0,6.097-0.174,6.83,7.868  c0.619,6.833-8.279,36.854-4.141,48.242c3.402,9.356,5.174,13.039,11.802,18.215c6.625,5.176,27.742,21.947,7.457,36.849  l18.836,34.163c0,0,10.973,3.934,11.802,3.934c0.825,0,3.108,0.42,1.452-1.449c-1.657-1.858-16.155-15.316-16.155-30.016  c0-14.701,21.329-19.261,21.329-41.41c0-14.7-12.837-23.604-12.837-23.604s2.277-5.383,4.558-7.241  c2.275-1.869,14.902-9.323,16.765-13.878c0,0,12.423,10.146,22.358,10.772c0,0,2.487-4.348,2.694-7.454  c0,0-24.829-3.173-24.348-29.154C229.122,128.467,250.576,124.046,250.576,124.046"/>
<path id="path9880" fill="#FFFFFF" d="M213.896,256.221l19.045,27.604l11.455,1.931c0,0,1.931,0,0.826-1.651  c-1.105-1.662-13.937-16.569-15.179-20.296c-1.243-3.727-4.144-6.9,0.962-13.945c5.106-7.034,14.904-13.66,14.904-27.739  c0-14.079-12.006-25.422-27.738-25.12c-7.037,0.146-1.36,4.393-0.694,5.249c1.525,1.931,5.797,7.868,6.766,16.844  c1.061,9.876-3.867,15.864-3.867,16.692c0,2.35,3.592,2.765,3.592,8.696C223.968,251.392,213.896,256.221,213.896,256.221"/>
<path id="path9882" fill="#FFFFFF" d="M300.066,256.221l-19.043,27.604l-11.461,1.931c0,0-1.931,0-0.824-1.651  c1.1-1.662,13.941-16.569,15.185-20.296c1.239-3.727,4.138-6.9-0.968-13.945c-5.104-7.034-14.91-13.66-14.91-27.739  c0-14.079,12.011-25.422,27.747-25.12c7.036,0.146,1.356,4.393,0.694,5.249c-1.525,1.931-5.801,7.868-6.769,16.844  c-1.065,9.876,3.867,15.864,3.867,16.692c0,2.35-3.593,2.765-3.593,8.696C289.99,251.392,300.066,256.221,300.066,256.221"/>
</svg>