<?xml version="1.0" encoding="UTF-8" standalone="no"?>
<!DOCTYPE svg PUBLIC "-//W3C//DTD SVG 20010904//EN" "http://www.w3.org/TR/2001/REC-SVG-20010904/DTD/svg10.dtd">
<svg version="1.0" xmlns="http://www.w3.org/2000/svg" width="252.000000pt" height="300.000000pt" viewBox="0 0 252.000000 300.000000" preserveAspectRatio="xMidYMid meet">

<g transform="translate(0.000000,300.000000) scale(0.100000,-0.100000)" fill="#000000" stroke="none">
<path d="M662 2848 c-17 -17 -17 -181 1 -176 6 3 13 14 15 26 2 12 10 22 17 22 7 0 15 -10 17 -22 2 -12 9 -23 16 -26 9 -3 12 19 12 86 0 73 -3 91 -16 96 -25 9 -49 7 -62 -6z m49 -30 c-1 -5 -1 -21 -1 -38 0 -20 -5 -30 -15 -30 -11 0 -15 11 -15 41 0 31 4 40 16 37 8 -2 15 -6 15 -10z"/>
<path d="M880 2764 c0 -72 3 -95 13 -91 6 2 12 20 12 40 0 21 2 37 5 37 3 0 13 -18 22 -40 27 -65 38 -50 38 56 0 72 -3 95 -12 92 -7 -3 -14 -22 -16 -43 l-3 -39 -19 42 c-30 66 -40 53 -40 -54z"/>
<path d="M1112 2848 c-16 -16 -16 -150 0 -166 16 -16 63 -15 77 2 7 8 11 30 9 48 -2 25 -8 34 -25 36 -16 2 -23 -2 -23 -12 0 -9 5 -16 11 -16 6 0 9 -8 7 -17 -2 -10 -10 -18 -18 -18 -20 0 -22 116 -2 123 7 2 16 -5 19 -17 6 -25 26 -23 31 3 8 38 -56 64 -86 34z"/>
<path d="M1330 2765 l0 -95 40 0 c29 0 40 4 40 15 0 9 -9 15 -25 15 -20 0 -25 5 -25 25 0 18 5 25 20 25 11 0 20 7 20 15 0 8 -9 15 -20 15 -15 0 -20 7 -20 25 0 20 5 25 25 25 16 0 25 6 25 15 0 11 -11 15 -40 15 l-40 0 0 -95z"/>
<path d="M1550 2764 c0 -72 3 -95 13 -92 6 3 13 14 15 26 4 29 16 28 30 -3 6 -14 15 -25 20 -25 18 0 20 13 6 35 -10 16 -12 25 -5 30 15 9 14 98 -1 113 -7 7 -27 12 -45 12 l-33 0 0 -96z m60 26 c0 -29 -4 -40 -15 -40 -11 0 -15 11 -15 40 0 29 4 40 15 40 11 0 15 -11 15 -40z"/>
<path d="M1792 2851 c-9 -5 -12 -24 -10 -52 3 -40 6 -44 31 -47 21 -3 27 -9 27 -28 0 -30 -26 -32 -33 -3 -7 27 -27 15 -27 -16 0 -27 28 -40 66 -31 23 6 25 11 22 54 -3 43 -5 47 -30 50 -22 3 -28 9 -28 28 0 15 6 24 15 24 8 0 15 -7 15 -15 0 -8 7 -15 15 -15 20 0 20 46 -1 54 -22 8 -47 7 -62 -3z"/>
<path d="M313 2449 l-151 -190 121 -238 c627 -1222 973 -1891 977 -1891 4 0 221 420 485 932 263 513 509 992 547 1064 l68 131 -146 184 c-80 101 -151 189 -156 194 -11 10 6 -23 131 -253 33 -62 61 -118 61 -125 0 -7 -58 -133 -129 -282 l-129 -270 -76 2 -76 2 0 -162 0 -162 -82 -174 -83 -174 -5 334 -5 334 -77 3 -78 3 0 -510 0 -509 -79 -167 c-44 -92 -82 -169 -85 -172 -3 -4 -6 96 -6 221 0 141 -4 235 -11 247 -23 45 -115 44 -139 -1 -6 -11 -10 -115 -10 -246 0 -125 -3 -225 -6 -221 -3 3 -41 80 -85 172 l-79 167 0 509 0 509 -80 0 -80 0 -1 -337 -1 -338 -84 175 -85 174 2 161 1 160 -79 3 -79 3 -131 273 -130 274 56 103 c131 241 151 279 148 279 -2 0 -71 -86 -154 -191z"/>
<path d="M556 2554 c-25 -25 -26 -32 -26 -128 l0 -101 150 -150 150 -150 0 -47 0 -48 -95 0 -95 0 0 60 0 60 -55 0 -55 0 0 -86 c0 -81 1 -87 29 -115 l29 -29 145 0 c142 0 146 1 176 26 31 26 31 27 31 123 l0 97 -150 149 -150 149 0 53 0 53 95 0 95 0 0 -60 0 -60 55 0 55 0 0 89 c0 82 -2 90 -26 115 -27 26 -28 26 -179 26 -151 0 -152 0 -179 -26z"/>
<path d="M1097 2569 c-44 -25 -47 -52 -47 -369 0 -330 3 -346 58 -369 20 -9 76 -11 172 -9 141 3 142 3 166 31 21 25 24 38 24 113 l0 84 -60 0 -60 0 0 -60 0 -60 -90 0 -90 0 0 270 0 270 90 0 90 0 0 -60 0 -60 60 0 60 0 0 86 c0 81 -1 87 -29 115 l-29 29 -149 0 c-82 0 -156 -5 -166 -11z"/>
<path d="M1603 2556 l-28 -24 -3 -313 c-2 -224 1 -321 9 -341 21 -51 54 -60 216 -56 145 3 145 3 169 31 l24 28 0 320 0 321 -29 29 -29 29 -151 0 c-144 0 -151 -1 -178 -24z m267 -356 l0 -270 -90 0 -90 0 0 270 0 270 90 0 90 0 0 -270z"/>
<path d="M1180 1584 c0 -117 1 -126 18 -118 22 11 102 11 125 0 16 -8 17 1 17 118 l0 126 -80 0 -80 0 0 -126z"/>
</g>
</svg>