<?xml version="1.0" encoding="UTF-8" standalone="no"?>
<!DOCTYPE svg PUBLIC "-//W3C//DTD SVG 1.1//EN" "http://www.w3.org/Graphics/SVG/1.1/DTD/svg11.dtd">
<svg xmlns="http://www.w3.org/2000/svg" version="1.1" viewBox="0 0 200 200" width="200.0pt" height="200.0pt">
<path d="M 0.00 0.00 L 100.43 0.00 C 74.85 10.51 47.91 19.36 20.53 23.61 C 18.48 44.59 17.40 65.96 19.03 87.00 C 19.93 97.09 21.51 107.98 25.69 117.28 C 29.83 126.69 35.08 135.65 40.82 144.16 C 50.78 158.76 62.54 172.49 76.08 183.89 C 83.47 190.11 91.64 195.79 100.36 200.00 L 0.00 200.00 L 0.00 0.00 Z" fill="none"/>
<path d="M 100.43 0.00 L 100.76 0.00 C 126.31 10.56 153.15 19.36 180.53 23.56 C 182.48 44.21 183.57 65.29 182.05 86.00 C 181.11 96.76 179.61 108.07 175.05 117.95 C 168.08 133.35 158.47 147.72 147.77 160.77 C 134.89 176.27 118.95 191.06 100.75 200.00 L 100.36 200.00 C 91.64 195.79 83.47 190.11 76.08 183.89 C 62.54 172.49 50.78 158.76 40.82 144.16 C 35.08 135.65 29.83 126.69 25.69 117.28 C 21.51 107.98 19.93 97.09 19.03 87.00 C 17.40 65.96 18.48 44.59 20.53 23.61 C 47.91 19.36 74.85 10.51 100.43 0.00 Z" fill="#193460"/>
<path d="M 100.76 0.00 L 200.00 0.00 L 200.00 200.00 L 100.75 200.00 C 118.95 191.06 134.89 176.27 147.77 160.77 C 158.47 147.72 168.08 133.35 175.05 117.95 C 179.61 108.07 181.11 96.76 182.05 86.00 C 183.57 65.29 182.48 44.21 180.53 23.56 C 153.15 19.36 126.31 10.56 100.76 0.00 Z" fill="none"/>
<path d="M 100.20 6.24 C 103.11 6.42 106.08 8.17 108.81 9.15 C 130.51 17.66 152.81 24.42 175.85 28.17 C 177.48 47.22 178.96 66.94 177.27 86.01 C 176.50 96.81 175.03 107.52 170.45 117.44 C 164.32 130.85 156.05 143.39 146.89 154.91 C 134.96 169.68 120.43 183.59 103.66 192.67 C 101.43 193.82 100.36 194.31 98.04 192.98 C 82.86 184.96 69.40 172.71 58.23 159.77 C 47.91 147.70 38.83 134.41 31.84 120.14 C 28.64 113.66 26.47 106.98 25.31 99.84 C 21.50 75.62 23.07 52.44 25.19 28.19 C 47.49 24.58 69.00 18.07 90.08 10.03 C 93.42 8.79 96.72 7.03 100.20 6.24 Z" fill="#8e846f"/>
<path d="M 100.71 8.46 C 104.67 9.40 108.37 11.45 112.22 12.79 C 132.05 20.16 152.78 26.70 173.77 29.71 C 175.05 38.39 175.17 47.25 175.79 56.00 C 176.00 66.63 176.24 77.40 175.13 87.98 C 145.22 79.42 113.78 76.04 82.74 78.11 L 82.61 79.02 L 82.09 79.02 C 79.07 78.46 76.03 78.51 72.99 78.87 C 56.98 80.73 41.26 83.42 25.78 88.00 C 24.18 68.77 25.24 49.11 27.09 29.92 C 49.04 26.37 70.21 19.95 90.93 11.97 C 94.11 10.83 97.37 8.95 100.71 8.46 Z" fill="#193460"/>
<path d="M 49.28 32.24 C 51.82 32.01 54.40 32.10 56.94 32.09 C 56.96 38.47 56.94 44.86 56.95 51.24 C 62.26 51.24 67.57 51.25 72.88 51.23 C 72.88 44.86 72.89 38.48 72.88 32.11 C 75.48 32.11 78.07 32.11 80.67 32.12 C 80.67 44.59 80.68 57.05 80.67 69.52 C 78.07 69.52 75.48 69.52 72.89 69.51 C 72.88 65.73 72.88 61.94 72.88 58.15 C 67.57 58.15 62.26 58.15 56.95 58.15 C 56.95 61.94 56.95 65.73 56.96 69.53 C 54.35 69.52 51.75 69.52 49.15 69.52 C 49.27 57.11 48.96 44.64 49.28 32.24 Z" fill="#ffffff"/>
<path d="M 103.48 31.45 C 105.16 34.20 106.44 37.26 107.77 40.21 C 112.16 49.99 116.64 59.73 121.05 69.51 C 118.32 69.52 115.59 69.51 112.86 69.51 C 112.27 68.10 111.69 66.69 111.10 65.27 C 106.07 65.28 101.05 65.28 96.02 65.28 C 95.44 66.69 94.85 68.10 94.26 69.51 C 91.74 69.52 89.23 69.51 86.72 69.51 C 92.32 56.84 97.63 44.00 103.48 31.45 Z" fill="#ffffff"/>
<path d="M 157.05 39.16 C 155.11 40.58 153.16 41.99 151.21 43.39 C 149.61 41.97 147.86 40.12 145.83 39.35 C 141.83 37.90 136.89 38.77 133.91 41.90 C 129.62 46.33 129.47 54.04 133.12 58.90 C 136.23 63.01 142.36 64.28 146.90 61.93 C 148.71 60.88 150.23 59.15 151.71 57.69 C 153.72 59.08 155.72 60.48 157.72 61.90 C 155.32 64.63 153.02 67.17 149.56 68.57 C 141.97 71.58 132.79 69.90 127.30 63.69 C 120.66 56.33 120.97 44.04 128.10 37.10 C 136.13 29.30 150.43 29.68 157.05 39.16 Z" fill="#ffffff"/>
<path d="M 103.41 46.04 C 104.82 50.36 106.51 54.56 108.29 58.73 C 105.08 58.75 101.87 58.75 98.66 58.74 C 99.92 55.70 101.25 52.62 102.31 49.52 C 102.69 48.36 103.05 47.20 103.41 46.04 Z" fill="#193460"/>
<path d="M 82.09 79.02 L 82.61 79.02 C 88.64 79.46 94.52 79.00 100.59 79.04 C 100.60 86.91 100.52 94.79 100.66 102.66 C 98.88 104.02 97.08 105.34 95.27 106.65 C 97.06 107.26 98.84 107.88 100.66 108.40 C 100.60 109.79 100.55 111.18 100.50 112.57 C 97.06 113.68 93.57 114.49 90.04 115.24 C 85.06 116.24 81.03 121.52 75.98 121.86 C 68.88 122.57 65.69 109.94 72.19 107.22 C 74.93 105.90 76.80 107.79 79.23 108.78 C 82.73 110.79 86.83 109.15 90.38 108.18 C 88.23 107.36 86.06 106.58 83.88 105.84 C 86.43 105.61 89.19 105.47 91.64 104.73 L 91.89 103.39 C 87.41 100.68 82.20 99.33 76.97 100.16 C 72.16 100.84 66.70 102.71 64.30 107.29 C 60.65 114.30 62.40 124.27 69.07 128.90 C 73.91 132.48 79.17 133.06 84.94 133.97 C 83.56 136.05 82.25 138.62 80.10 139.98 C 78.13 141.26 76.01 142.34 73.96 143.49 C 75.19 143.45 76.42 143.42 77.64 143.38 L 77.47 145.83 C 78.63 145.20 79.79 144.56 80.95 143.92 C 81.91 144.21 82.86 144.50 83.82 144.79 C 84.29 144.35 84.76 143.92 85.23 143.48 C 85.18 141.65 84.22 140.12 85.68 138.66 C 87.16 137.07 89.16 135.89 90.94 134.67 C 90.64 133.16 90.32 131.64 90.00 130.13 C 91.46 131.56 92.92 133.28 94.72 134.27 C 96.71 134.96 99.05 134.84 101.14 134.84 L 100.00 137.16 C 97.53 138.41 95.34 139.82 93.27 141.67 C 95.73 140.64 98.04 139.53 100.57 138.68 C 100.62 156.40 100.54 174.12 100.62 191.84 C 85.60 184.74 72.35 172.93 61.35 160.64 C 49.60 147.29 39.25 132.32 31.93 116.08 C 28.10 107.65 26.96 99.04 25.93 89.94 C 44.27 84.55 63.11 81.20 82.15 79.63 L 82.09 79.02 Z" fill="#79bde9"/>
<path d="M 100.59 79.04 C 125.72 79.06 150.99 82.99 175.09 90.05 C 174.21 97.26 173.18 104.93 170.75 111.80 C 168.53 117.87 165.45 123.67 162.27 129.29 C 153.09 145.14 141.63 159.74 128.23 172.23 C 119.96 180.03 110.74 186.65 100.62 191.84 C 100.54 174.12 100.62 156.40 100.57 138.68 C 104.51 138.07 108.48 138.39 112.41 138.02 L 114.19 135.18 C 109.40 135.40 104.69 136.20 100.00 137.16 L 101.14 134.84 C 104.84 133.78 108.48 132.60 112.05 131.13 C 113.36 132.12 114.68 133.09 116.00 134.06 C 115.26 136.07 114.51 138.08 113.75 140.08 C 111.53 141.11 109.45 142.25 107.41 143.60 C 108.69 143.54 109.98 143.47 111.26 143.40 L 111.10 145.94 C 112.57 145.04 114.04 144.16 115.51 143.27 L 116.41 145.13 C 117.49 144.44 118.57 143.76 119.65 143.09 C 118.66 142.02 117.64 140.97 116.64 139.91 C 118.37 137.16 120.31 134.90 122.71 132.71 C 121.25 130.02 120.30 127.32 119.54 124.35 C 120.45 125.46 121.33 126.63 122.34 127.64 C 125.53 128.40 128.76 128.33 131.83 129.74 C 131.09 131.28 131.19 133.90 129.20 134.30 C 126.92 134.93 124.38 134.79 122.03 134.92 C 121.18 136.07 120.33 137.22 119.49 138.38 C 123.21 138.83 127.32 139.84 131.04 139.26 C 135.10 138.49 138.19 135.16 138.54 131.03 C 138.94 127.52 136.89 124.44 135.52 121.37 C 134.56 120.27 133.64 119.14 132.74 117.99 C 130.63 117.21 128.94 116.77 127.69 114.73 C 126.08 114.73 124.47 114.75 122.86 114.78 C 122.75 114.04 122.65 113.30 122.55 112.56 C 120.17 113.07 117.79 113.61 115.42 114.17 L 115.05 111.81 C 112.75 112.49 110.47 113.21 108.19 113.95 L 107.55 111.71 C 105.17 112.55 102.80 113.42 100.43 114.32 L 100.50 112.57 C 100.55 111.18 100.60 109.79 100.66 108.40 C 108.71 108.85 112.16 103.32 119.23 101.04 C 116.84 100.71 114.49 100.41 112.11 100.00 C 107.81 98.05 104.07 99.99 100.66 102.66 C 100.52 94.79 100.60 86.91 100.59 79.04 Z" fill="#193460"/>
<path d="M 86.36 86.50 C 86.56 88.20 86.75 89.91 86.94 91.61 C 88.17 90.78 89.41 89.94 90.64 89.12 C 90.54 91.75 90.29 94.33 89.93 96.93 C 85.40 96.55 81.05 96.53 76.52 96.90 C 76.01 94.26 75.78 91.82 76.07 89.14 C 77.27 90.07 78.48 90.99 79.67 91.93 C 79.64 90.23 79.61 88.52 79.59 86.82 C 80.86 88.46 82.11 90.11 83.34 91.78 C 84.33 90.00 85.34 88.25 86.36 86.50 Z" fill="#ffffff"/>
<path d="M 112.11 100.00 C 114.49 100.41 116.84 100.71 119.23 101.04 C 112.16 103.32 108.71 108.85 100.66 108.40 C 98.84 107.88 97.06 107.26 95.27 106.65 C 97.08 105.34 98.88 104.02 100.66 102.66 C 104.07 99.99 107.81 98.05 112.11 100.00 Z" fill="#ffffff"/>
<path d="M 76.97 100.16 C 82.20 99.33 87.41 100.68 91.89 103.39 L 91.64 104.73 C 89.19 105.47 86.43 105.61 83.88 105.84 C 86.06 106.58 88.23 107.36 90.38 108.18 C 86.83 109.15 82.73 110.79 79.23 108.78 C 76.80 107.79 74.93 105.90 72.19 107.22 C 65.69 109.94 68.88 122.57 75.98 121.86 C 81.03 121.52 85.06 116.24 90.04 115.24 C 93.57 114.49 97.06 113.68 100.50 112.57 L 100.43 114.32 C 102.80 113.42 105.17 112.55 107.55 111.71 L 108.19 113.95 C 110.47 113.21 112.75 112.49 115.05 111.81 L 115.42 114.17 C 117.79 113.61 120.17 113.07 122.55 112.56 C 122.65 113.30 122.75 114.04 122.86 114.78 C 124.47 114.75 126.08 114.73 127.69 114.73 C 128.94 116.77 130.63 117.21 132.74 117.99 C 133.64 119.14 134.56 120.27 135.52 121.37 C 136.89 124.44 138.94 127.52 138.54 131.03 C 138.19 135.16 135.10 138.49 131.04 139.26 C 127.32 139.84 123.21 138.83 119.49 138.38 C 120.33 137.22 121.18 136.07 122.03 134.92 C 124.38 134.79 126.92 134.93 129.20 134.30 C 131.19 133.90 131.09 131.28 131.83 129.74 C 128.76 128.33 125.53 128.40 122.34 127.64 C 121.33 126.63 120.45 125.46 119.54 124.35 C 120.30 127.32 121.25 130.02 122.71 132.71 C 120.31 134.90 118.37 137.16 116.64 139.91 C 117.64 140.97 118.66 142.02 119.65 143.09 C 118.57 143.76 117.49 144.44 116.41 145.13 L 115.51 143.27 C 114.04 144.16 112.57 145.04 111.10 145.94 L 111.26 143.40 C 109.98 143.47 108.69 143.54 107.41 143.60 C 109.45 142.25 111.53 141.11 113.75 140.08 C 114.51 138.08 115.26 136.07 116.00 134.06 C 114.68 133.09 113.36 132.12 112.05 131.13 C 108.48 132.60 104.84 133.78 101.14 134.84 C 99.05 134.84 96.71 134.96 94.72 134.27 C 92.92 133.28 91.46 131.56 90.00 130.13 C 90.32 131.64 90.64 133.16 90.94 134.67 C 89.16 135.89 87.16 137.07 85.68 138.66 C 84.22 140.12 85.18 141.65 85.23 143.48 C 84.76 143.92 84.29 144.35 83.82 144.79 C 82.86 144.50 81.91 144.21 80.95 143.92 C 79.79 144.56 78.63 145.20 77.47 145.83 L 77.64 143.38 C 76.42 143.42 75.19 143.45 73.96 143.49 C 76.01 142.34 78.13 141.26 80.10 139.98 C 82.25 138.62 83.56 136.05 84.94 133.97 C 79.17 133.06 73.91 132.48 69.07 128.90 C 62.40 124.27 60.65 114.30 64.30 107.29 C 66.70 102.71 72.16 100.84 76.97 100.16 Z" fill="#ffffff"/>
<path d="M 79.61 102.12 C 80.73 101.11 82.73 102.34 81.87 103.76 C 80.75 104.78 78.76 103.53 79.61 102.12 Z" fill="#79bde9"/>
<path d="M 114.19 135.18 L 112.41 138.02 C 108.48 138.39 104.51 138.07 100.57 138.68 C 98.04 139.53 95.73 140.64 93.27 141.67 C 95.34 139.82 97.53 138.41 100.00 137.16 C 104.69 136.20 109.40 135.40 114.19 135.18 Z" fill="#ffffff"/>
<path d="M 86.60 156.94 C 86.70 161.63 86.68 166.31 86.67 171.00 C 85.58 171.00 84.50 170.99 83.42 170.98 C 83.42 167.97 83.41 164.97 83.43 161.97 L 79.86 162.60 C 80.64 161.24 81.13 159.33 82.36 158.30 C 83.69 157.66 85.19 157.35 86.60 156.94 Z" fill="#ffffff"/>
<path d="M 98.71 159.30 C 99.09 160.83 98.86 162.52 98.86 164.09 C 98.95 165.66 99.35 167.38 98.98 168.91 C 97.52 171.86 92.47 171.94 90.73 169.24 C 90.17 166.41 90.25 161.85 90.99 159.05 C 92.73 156.65 97.17 156.73 98.71 159.30 Z" fill="#ffffff"/>
<path d="M 102.42 157.55 C 105.61 157.25 108.87 157.42 112.07 157.50 C 111.28 162.30 109.24 166.47 107.50 170.96 C 106.32 170.98 105.13 171.00 103.95 171.02 C 105.34 167.47 106.73 163.91 108.12 160.36 C 107.47 160.39 106.82 160.41 106.17 160.44 C 104.90 161.92 104.09 162.36 102.29 162.99 C 102.28 161.19 102.24 159.34 102.42 157.55 Z" fill="#ffffff"/>
<path d="M 116.41 157.44 C 119.08 156.83 121.72 158.09 122.16 160.96 C 122.23 163.79 118.94 166.18 117.27 168.19 C 118.88 168.20 120.49 168.20 122.10 168.20 C 122.10 169.13 122.09 170.07 122.08 171.00 C 119.12 171.00 116.17 171.00 113.22 170.99 C 113.23 170.05 113.25 169.10 113.26 168.16 C 115.15 165.85 118.59 163.47 118.99 160.39 C 116.83 160.69 114.74 161.31 112.59 161.68 C 113.71 160.19 114.32 157.77 116.41 157.44 Z" fill="#ffffff"/>
<path d="M 94.31 159.93 C 96.27 159.56 97.01 162.21 95.11 162.90 C 93.13 163.24 92.55 160.70 94.31 159.93 Z" fill="#79bde9"/>
<path d="M 93.57 166.08 C 94.82 164.70 96.79 166.06 95.88 167.71 C 94.62 169.08 92.67 167.73 93.57 166.08 Z" fill="#79bde9"/>
</svg>
