<?xml version="1.0" encoding="UTF-8" standalone="no"?>
<svg
   xmlns:dc="http://purl.org/dc/elements/1.1/"
   xmlns:cc="http://creativecommons.org/ns#"
   xmlns:rdf="http://www.w3.org/1999/02/22-rdf-syntax-ns#"
   xmlns:svg="http://www.w3.org/2000/svg"
   xmlns="http://www.w3.org/2000/svg"
   id="svg1190"
   version="1.1"
   viewBox="0 0 63.841587 81.375"
   height="81.375mm"
   width="63.841587mm">
  <defs
     id="defs1184">
    <clipPath
       id="clipPath312"
       clipPathUnits="userSpaceOnUse">
      <path
         id="path310"
         d="M 0,0 H 595.276 V 765.354 H 0 Z" />
    </clipPath>
    <clipPath
       id="clipPath344"
       clipPathUnits="userSpaceOnUse">
      <path
         id="path342"
         d="M 0,0 H 595.276 V 765.354 H 0 Z" />
    </clipPath>
  </defs>
  <metadata
     id="metadata1187">
    <rdf:RDF>
      <cc:Work
         rdf:about="">
        <dc:format>image/svg+xml</dc:format>
        <dc:type
           rdf:resource="http://purl.org/dc/dcmitype/StillImage" />
        <dc:title></dc:title>
      </cc:Work>
    </rdf:RDF>
  </metadata>
  <g
     transform="translate(-94.150254,-123.96201)"
     id="layer1">
    <g
       transform="matrix(0.95359205,0,0,-0.95359205,-69.953148,675.19502)"
       id="g1182">
      <g
         id="g302"
         transform="translate(175.1414,575.2334)">
        <path
           d="M 0,0 V -1.902 H 2.796 V -3.561 H 0 V -7.11 H -2.003 V 1.659 H 3.353 V 0 Z"
           style="fill:#fcd405;fill-opacity:1;fill-rule:nonzero;stroke:none"
           id="path304" />
      </g>
      <g
         id="g306">
        <g
           id="g308"
           clip-path="url(#clipPath312)">
          <g
             id="g314"
             transform="translate(179.0989,572.5435)">
            <path
               d="m 0,0 c 0,2.69 1.73,4.467 4.313,4.467 1.292,0 2.394,-0.438 3.211,-1.398 L 6.268,1.777 c -0.379,0.617 -1.09,1.031 -1.943,1.031 -1.351,0 -2.263,-1.137 -2.263,-2.832 0,-1.718 0.936,-2.855 2.322,-2.855 0.984,0 1.6,0.497 2.062,1.339 L 7.797,-2.749 C 6.979,-3.934 5.818,-4.538 4.337,-4.538 1.742,-4.538 0,-2.713 0,0"
               style="fill:#fcd405;fill-opacity:1;fill-rule:nonzero;stroke:none"
               id="path316" />
          </g>
        </g>
      </g>
      <g
         id="g318"
         transform="translate(190.4504,576.8921)">
        <path
           d="M 0,0 H 1.232 L 5.842,-5.107 5.794,0 H 7.785 V -8.768 H 6.564 L 1.955,-3.661 2.003,-8.768 H 0 Z"
           style="fill:#fcd405;fill-opacity:1;fill-rule:nonzero;stroke:none"
           id="path320" />
      </g>
      <g
         id="g322"
         transform="translate(204.8828,569.6284)">
        <path
           d="m 0,0 h -3.188 l -0.497,-1.505 h -2.133 l 3.306,8.769 h 1.848 L 2.631,-1.505 H 0.498 Z M -0.557,1.659 -1.588,4.775 -2.63,1.659 Z"
           style="fill:#fcd405;fill-opacity:1;fill-rule:nonzero;stroke:none"
           id="path324" />
      </g>
      <g
         id="g326"
         transform="translate(208.3545,576.8921)">
        <path
           d="M 0,0 H 1.232 L 5.842,-5.107 5.794,0 h 1.991 v -8.768 h -1.22 l -4.61,5.107 0.048,-5.107 H 0 Z"
           style="fill:#fcd405;fill-opacity:1;fill-rule:nonzero;stroke:none"
           id="path328" />
      </g>
      <g
         id="g330"
         transform="translate(223.8296,575.2334)">
        <path
           d="M 0,0 H -2.311 V -7.11 H -4.313 V 0 H -6.624 V 1.659 H 0 Z"
           style="fill:#fcd405;fill-opacity:1;fill-rule:nonzero;stroke:none"
           id="path332" />
      </g>
      <g
         id="g334"
         transform="translate(230.6018,569.7825)">
        <path
           d="M 0,0 V -1.659 H -5.706 V 7.11 H 0.006 V 5.451 H -3.703 V 3.549 h 3.318 V 1.89 H -3.703 V 0 Z"
           style="fill:#fcd405;fill-opacity:1;fill-rule:nonzero;stroke:none"
           id="path336" />
      </g>
      <g
         id="g338">
        <g
           id="g340"
           clip-path="url(#clipPath344)">
          <g
             id="g346"
             transform="translate(231.8396,569.1309)">
            <path
               d="M 0,0 0.735,1.351 C 1.446,0.747 2.168,0.533 2.82,0.533 c 0.794,0 1.256,0.285 1.256,0.83 0,0.557 -0.545,0.841 -1.374,1.114 l -0.391,0.13 c -1.41,0.45 -2.429,1.066 -2.429,2.5 0,1.659 1.232,2.773 3.092,2.773 0.96,0 1.943,-0.32 2.797,-1.007 L 4.906,5.474 C 4.313,5.984 3.721,6.221 3.045,6.221 2.37,6.221 1.943,5.913 1.943,5.439 1.943,4.906 2.489,4.657 3.211,4.42 L 3.602,4.29 C 4.858,3.875 6.15,3.14 6.15,1.564 6.15,-0.059 4.87,-1.126 2.974,-1.126 1.837,-1.126 0.782,-0.723 0,0"
               style="fill:#fcd405;fill-opacity:1;fill-rule:nonzero;stroke:none"
               id="path348" />
          </g>
          <g
             id="g350"
             transform="translate(215.4265,503.8535)">
            <path
               d="m 0,0 c 0,1.074 0.556,2.071 1.471,2.635 2.16,1.333 4.47,2.783 5.995,3.821 3.252,2.214 5.244,3.841 5.244,9.169 v 42.484 h 4.935 V 15.625 C 17.645,8.044 14.145,5.032 10.243,2.377 7.183,0.294 0.841,-3.538 0,-4.046 Z"
               style="fill:#fcd405;fill-opacity:1;fill-rule:nonzero;stroke:none"
               id="path352" />
          </g>
          <g
             id="g354"
             transform="translate(218.7808,516.8977)">
            <path
               d="m 0,0 -27.627,31.778 c -0.137,0.157 -0.396,0.06 -0.396,-0.148 V 2.892 c 0,-1.182 0.603,-2.283 1.6,-2.919 l 3.335,-2.128 v 20.466 c 0,0.25 0.309,0.365 0.473,0.177 L -5.081,-1.676 c 0.517,-0.595 1.394,-0.717 2.055,-0.288 z"
               style="fill:#fcd405;fill-opacity:1;fill-rule:nonzero;stroke:none"
               id="path356" />
          </g>
          <g
             id="g358"
             transform="translate(220.3611,561.9612)">
            <path
               d="m 0,0 h -3.42 c -0.835,0 -1.512,-0.677 -1.512,-1.512 l -0.003,-19.593 c 0,-0.249 -0.309,-0.365 -0.473,-0.177 L -22.825,-1.25 C -23.517,-0.456 -24.519,0 -25.572,0 h -4.88 L -0.396,-34.568 C -0.259,-34.725 0,-34.628 0,-34.42 Z"
               style="fill:#fcd405;fill-opacity:1;fill-rule:nonzero;stroke:none"
               id="path360" />
          </g>
          <g
             id="g362"
             transform="translate(205.96,505.324)">
            <path
               d="M 0,0 C -0.07,0.209 -0.199,0.286 -0.306,0.313 -0.344,0.322 -0.378,0.326 -0.408,0.326 -0.438,0.326 -0.472,0.322 -0.51,0.313 -0.617,0.286 -0.746,0.209 -0.816,0 l -3.174,-9.305 3.582,-2.246 3.582,2.246 z"
               style="fill:#fcd405;fill-opacity:1;fill-rule:nonzero;stroke:none"
               id="path364" />
          </g>
          <g
             id="g366"
             transform="translate(209.668,505.4871)">
            <path
               d="M 0,0 C 1.318,0.336 2.708,1.156 2.779,1.2 2.82,1.223 2.845,1.27 2.845,1.321 2.845,1.371 2.82,1.418 2.779,1.442 2.718,1.479 1.719,2.068 0.616,2.454 0.076,2.642 -0.49,2.783 -0.983,2.783 -2.515,2.783 -3.288,1.451 -3.32,1.394 -3.345,1.349 -3.345,1.292 -3.32,1.247 -3.301,1.213 -3.002,0.698 -2.419,0.305 -2.244,0.186 -2.043,0.08 -1.815,0 c 0.247,-0.086 0.523,-0.142 0.831,-0.142 0.308,0 0.642,0.056 0.984,0.142"
               style="fill:#fcd405;fill-opacity:1;fill-rule:nonzero;stroke:none"
               id="path368" />
          </g>
          <g
             id="g370"
             transform="translate(200.9392,507.9822)">
            <path
               d="m 0,0 c -1.148,-0.383 -2.218,-1.015 -2.283,-1.053 -0.04,-0.024 -0.066,-0.071 -0.066,-0.121 0,-0.051 0.026,-0.098 0.066,-0.121 0.073,-0.044 1.461,-0.865 2.781,-1.2 0.34,-0.086 0.675,-0.142 0.981,-0.142 0.31,0 0.586,0.056 0.833,0.142 0.277,0.098 0.516,0.235 0.716,0.384 0.508,0.38 0.77,0.831 0.789,0.863 0.025,0.045 0.025,0.102 0,0.147 C 3.785,-1.044 3.013,0.288 1.479,0.288 1.024,0.288 0.504,0.167 0,0"
               style="fill:#fcd405;fill-opacity:1;fill-rule:nonzero;stroke:none"
               id="path372" />
          </g>
          <g
             id="g374"
             transform="translate(205.4795,507.8186)">
            <path
               d="m 0,0 c 0.022,-0.014 0.047,-0.021 0.073,-0.021 0.024,0 0.05,0.007 0.072,0.021 0.058,0.036 1.389,0.894 1.389,2.604 0,1.669 -1.285,4.089 -1.341,4.191 C 0.145,6.884 0,6.884 -0.047,6.795 -0.103,6.693 -1.39,4.271 -1.39,2.605 -1.39,0.894 -0.058,0.036 0,0"
               style="fill:#fcd405;fill-opacity:1;fill-rule:nonzero;stroke:none"
               id="path376" />
          </g>
          <g
             id="g378"
             transform="translate(195.6924,503.8416)">
            <path
               d="m 0,0 c 0,1.074 -0.557,2.071 -1.471,2.635 -2.16,1.333 -4.471,2.795 -5.996,3.833 -3.252,2.214 -5.244,3.841 -5.244,9.169 v 42.484 h -4.935 V 15.637 c 0,-7.581 3.5,-10.593 7.402,-13.248 C -7.184,0.306 -0.841,-3.538 0,-4.046 Z"
               style="fill:#fcd405;fill-opacity:1;fill-rule:nonzero;stroke:none"
               id="path380" />
          </g>
        </g>
      </g>
    </g>
  </g>
</svg>
