<?xml version="1.0" encoding="UTF-8" standalone="no"?>
<!DOCTYPE svg PUBLIC "-//W3C//DTD SVG 1.1//EN" "http://www.w3.org/Graphics/SVG/1.1/DTD/svg11.dtd">
<svg xmlns="http://www.w3.org/2000/svg" version="1.1" viewBox="0 0 200 200" width="200.0pt" height="200.0pt">
<path d="M 0.00 0.00 L 92.76 0.00 C 87.20 1.30 81.52 1.73 76.01 3.18 C 58.75 7.47 42.65 16.50 30.05 29.05 C 16.98 41.80 7.58 58.29 3.18 76.01 C 1.74 81.45 1.35 87.06 0.00 92.52 L 0.00 0.00 Z" fill="#ffffff"/>
<path d="M 92.76 0.00 L 105.98 0.00 L 106.74 0.10 C 113.59 1.24 120.32 1.93 127.01 3.88 C 142.08 8.07 156.00 15.88 167.57 26.41 C 181.99 39.58 192.45 57.01 197.16 75.98 C 198.56 81.41 199.22 86.82 200.00 92.36 L 200.00 108.70 C 199.08 113.86 198.57 118.95 197.26 124.02 C 192.98 141.44 183.90 157.55 171.34 170.34 C 158.62 183.17 142.51 192.53 124.99 197.02 C 119.54 198.49 114.04 199.07 108.48 200.00 L 92.10 200.00 C 78.60 198.46 65.50 195.02 53.50 188.53 C 30.19 176.26 12.21 154.60 4.58 129.37 C 2.09 121.61 1.19 113.74 0.00 105.71 L 0.00 92.52 C 1.35 87.06 1.74 81.45 3.18 76.01 C 7.58 58.29 16.98 41.80 30.05 29.05 C 42.65 16.50 58.75 7.47 76.01 3.18 C 81.52 1.73 87.20 1.30 92.76 0.00 Z" fill="#a8489b"/>
<path d="M 105.98 0.00 L 200.00 0.00 L 200.00 92.36 C 199.22 86.82 198.56 81.41 197.16 75.98 C 192.45 57.01 181.99 39.58 167.57 26.41 C 156.00 15.88 142.08 8.07 127.01 3.88 C 120.32 1.93 113.59 1.24 106.74 0.10 L 105.98 0.00 Z" fill="#ffffff"/>
<path d="M 89.18 8.25 C 105.58 6.24 122.43 8.80 137.54 15.47 C 162.65 26.53 182.17 48.98 189.41 75.48 C 195.35 96.74 193.35 119.93 183.82 139.85 C 171.88 165.08 148.37 184.11 121.15 190.37 C 99.63 195.42 76.47 192.44 56.97 182.04 C 32.21 169.02 14.11 144.58 9.13 117.02 C 5.35 96.79 8.56 75.38 18.20 57.19 C 32.12 30.52 59.24 11.63 89.18 8.25 Z" fill="#ecbf1c"/>
<path d="M 101.02 23.06 C 104.49 22.64 107.18 26.20 106.63 29.37 C 105.48 29.41 104.31 29.24 103.12 28.87 C 99.72 27.98 96.59 29.01 93.27 29.69 C 95.25 26.61 96.88 23.31 101.02 23.06 Z" fill="#030000"/>
<path d="M 86.00 25.06 C 89.62 24.72 91.77 28.24 93.97 30.49 C 91.16 30.31 87.91 29.69 85.15 30.36 C 82.71 31.04 80.41 32.46 78.13 33.54 C 79.74 30.02 81.54 25.47 86.00 25.06 Z" fill="#030000"/>
<path d="M 115.74 25.32 C 119.28 26.68 120.72 30.34 122.24 33.50 C 119.66 32.32 116.86 30.53 114.02 30.16 C 111.83 29.85 109.59 30.52 107.43 30.16 C 108.39 27.12 112.34 24.06 115.74 25.32 Z" fill="#030000"/>
<path d="M 117.00 32.75 C 132.73 36.59 146.40 46.07 155.92 59.11 C 155.66 56.03 155.01 52.60 155.86 49.60 C 158.12 49.97 160.21 50.42 161.56 52.44 C 162.91 55.15 162.29 58.72 163.61 61.43 C 164.89 63.53 167.95 63.73 170.11 64.35 C 170.68 65.99 171.21 67.65 171.72 69.32 C 167.34 69.43 164.55 68.29 160.88 66.14 C 164.31 70.10 170.72 72.53 171.33 77.96 C 172.10 83.11 168.80 87.43 163.85 88.57 C 158.98 89.72 154.85 87.79 151.07 84.90 C 147.29 82.16 145.65 77.91 142.88 74.08 C 135.91 64.01 126.79 55.08 114.84 51.36 C 102.61 47.68 88.23 48.59 77.06 55.07 C 66.76 61.07 59.47 70.37 53.40 80.42 C 49.72 85.99 41.78 90.90 35.02 88.11 C 29.76 86.20 27.28 80.01 30.01 75.05 C 32.20 71.50 36.48 69.40 39.35 66.34 C 35.78 68.27 32.91 69.44 28.72 69.26 C 29.15 67.67 29.60 66.07 30.07 64.48 C 32.48 63.71 35.78 63.52 37.00 60.93 C 37.91 58.31 37.64 55.25 38.66 52.67 C 39.75 50.47 42.59 50.11 44.70 49.36 C 44.91 52.59 44.77 55.77 44.47 58.98 C 51.11 50.28 59.21 42.93 69.06 38.04 C 83.75 30.71 101.06 28.48 117.00 32.75 Z" fill="#030000"/>
<path d="M 102.00 32.59 C 120.45 33.12 138.48 41.41 150.49 55.50 C 154.73 60.18 157.32 66.05 162.03 69.94 C 163.97 71.62 166.31 73.07 167.98 75.01 C 170.34 77.95 169.82 82.53 166.95 84.94 C 164.38 87.08 160.60 87.38 157.50 86.36 C 153.52 84.72 150.02 81.89 147.80 78.17 C 142.11 68.81 134.57 59.60 125.10 53.86 C 119.94 50.66 114.32 49.05 108.47 47.64 C 111.13 46.82 112.86 45.74 114.89 43.86 C 114.00 43.47 113.10 43.11 112.18 42.81 C 110.58 43.10 109.06 44.68 107.64 43.34 C 106.65 41.83 107.23 38.74 108.91 37.80 C 110.97 38.38 112.98 39.12 115.03 39.72 C 114.26 33.83 105.29 33.23 103.95 39.00 C 102.77 42.99 105.08 44.90 107.45 47.58 C 99.65 47.02 91.99 47.12 84.50 49.64 C 72.91 53.40 64.26 61.53 57.20 71.19 C 53.40 76.02 51.89 81.12 46.46 84.45 C 42.88 87.01 38.36 87.92 34.40 85.62 C 30.82 83.63 29.77 78.54 32.19 75.26 C 33.94 73.08 36.56 71.52 38.63 69.64 C 42.97 65.91 45.03 61.29 48.78 56.81 C 61.51 40.98 81.77 32.03 102.00 32.59 Z" fill="#a8489b"/>
<path d="M 99.07 34.29 C 100.74 38.25 102.54 42.10 103.60 46.29 C 101.79 45.78 100.29 45.16 98.70 44.16 C 97.93 44.18 97.15 44.21 96.37 44.24 C 93.84 46.33 90.50 46.78 87.32 46.67 C 85.47 45.57 83.82 44.09 82.12 42.76 C 82.57 44.58 83.02 46.40 83.47 48.22 C 82.40 48.48 81.34 48.74 80.27 49.00 C 79.25 45.36 78.30 41.69 77.49 37.99 C 78.52 37.78 79.55 37.56 80.58 37.35 C 82.36 38.87 84.14 40.39 85.93 41.90 C 85.56 39.93 85.18 37.97 84.80 36.01 C 85.86 35.87 86.93 35.73 87.99 35.59 C 88.84 39.21 89.76 42.79 91.04 46.29 C 92.61 43.25 93.59 40.04 94.52 36.76 C 95.43 34.31 96.89 34.75 99.07 34.29 Z" fill="#ecbf1c"/>
<path d="M 115.03 39.72 C 112.98 39.12 110.97 38.38 108.91 37.80 C 107.23 38.74 106.65 41.83 107.64 43.34 C 109.06 44.68 110.58 43.10 112.18 42.81 C 113.10 43.11 114.00 43.47 114.89 43.86 C 112.86 45.74 111.13 46.82 108.47 47.64 L 107.45 47.58 C 105.08 44.90 102.77 42.99 103.95 39.00 C 105.29 33.23 114.26 33.83 115.03 39.72 Z" fill="#ecbf1c"/>
<path d="M 118.18 37.10 C 119.26 37.29 120.33 37.52 121.39 37.80 C 120.49 41.48 119.31 45.04 118.15 48.63 C 117.06 48.37 115.98 48.11 114.90 47.85 C 115.87 44.26 116.69 40.51 118.18 37.10 Z" fill="#ecbf1c"/>
<path d="M 97.34 38.04 C 97.84 39.20 98.31 40.38 98.77 41.55 C 97.91 41.57 97.04 41.58 96.17 41.60 C 96.55 40.41 96.94 39.22 97.34 38.04 Z" fill="#a8489b"/>
<path d="M 125.22 41.29 C 127.88 40.27 131.31 41.93 132.74 44.26 C 134.39 47.02 132.64 50.58 130.29 52.31 C 127.47 54.33 123.22 52.17 121.67 49.49 C 120.43 46.47 122.24 42.52 125.22 41.29 Z" fill="#ecbf1c"/>
<path d="M 126.40 44.44 C 127.37 43.82 128.15 43.76 128.74 44.25 C 131.97 45.50 127.97 52.23 125.40 49.58 C 123.58 48.01 125.14 45.81 126.40 44.44 Z" fill="#a8489b"/>
<path d="M 138.03 46.55 C 141.12 49.39 139.40 52.38 139.23 55.98 C 140.54 54.57 141.85 53.17 143.17 51.76 C 144.04 52.46 144.91 53.16 145.78 53.86 C 143.25 56.70 140.68 59.50 138.07 62.26 C 137.30 61.53 136.52 60.79 135.75 60.05 C 135.99 57.84 136.22 55.63 136.43 53.42 C 135.17 54.63 133.92 55.86 132.67 57.09 C 131.80 56.43 130.94 55.76 130.07 55.09 C 132.68 52.18 135.20 49.19 138.03 46.55 Z" fill="#ecbf1c"/>
<path d="M 60.94 48.54 C 64.52 47.45 68.42 51.59 68.34 55.02 C 67.67 57.76 64.56 59.90 62.62 61.82 C 59.94 59.06 57.37 56.23 54.93 53.26 C 56.80 51.62 58.73 49.69 60.94 48.54 Z" fill="#ecbf1c"/>
<path d="M 71.82 50.36 C 72.42 51.22 73.00 52.09 73.56 52.98 C 72.57 53.63 71.57 54.27 70.56 54.90 C 70.06 53.95 69.55 53.00 69.05 52.05 C 69.97 51.48 70.88 50.90 71.82 50.36 Z" fill="#ecbf1c"/>
<path d="M 62.11 51.27 C 64.36 53.66 65.65 54.31 64.08 57.76 C 62.35 56.24 60.71 54.64 59.20 52.89 C 60.16 52.33 61.13 51.79 62.11 51.27 Z" fill="#a8489b"/>
<path d="M 100.13 57.06 C 103.71 60.98 107.27 64.62 112.25 66.74 C 119.93 70.28 128.11 70.01 136.13 67.84 C 137.82 82.93 135.57 98.39 129.25 112.22 C 122.79 126.40 112.25 138.91 100.12 148.60 C 88.12 138.68 77.98 127.00 71.38 112.79 C 64.83 98.83 62.55 83.20 64.20 67.90 C 71.45 69.65 78.62 70.33 85.76 67.69 C 91.71 65.70 96.13 61.74 100.13 57.06 Z" fill="#030000"/>
<path d="M 100.08 59.07 C 103.18 62.08 106.06 65.08 110.00 67.02 C 117.80 71.24 126.63 71.58 135.12 69.46 C 135.77 79.11 135.43 89.12 132.73 98.47 C 132.38 98.92 132.00 99.34 131.58 99.74 L 132.61 94.07 C 132.06 94.37 131.51 94.68 130.96 94.98 C 130.65 97.14 130.20 99.27 129.73 101.39 C 129.32 101.49 128.92 101.59 128.51 101.71 C 128.70 102.67 128.88 103.64 129.06 104.60 L 127.38 104.30 C 127.63 105.11 127.90 105.92 128.17 106.73 C 128.94 106.60 129.70 106.46 130.47 106.34 C 128.61 110.58 126.62 114.76 124.64 118.94 C 124.35 118.21 124.06 117.48 123.78 116.75 L 124.63 115.98 C 125.82 114.12 126.75 112.13 127.71 110.15 C 125.07 110.28 125.35 112.85 123.57 114.51 C 124.25 111.83 125.82 109.17 125.99 106.39 C 124.96 107.70 124.02 109.08 123.10 110.47 C 123.28 103.81 123.19 97.14 123.19 90.48 C 125.40 90.48 127.61 90.49 129.82 90.53 C 129.17 93.81 127.93 97.21 127.96 100.57 C 130.29 97.91 130.39 92.64 131.25 89.19 C 110.79 89.20 90.30 89.07 69.85 89.26 L 69.15 89.29 C 69.46 91.20 69.74 93.11 70.00 95.02 C 70.45 94.89 70.90 94.75 71.35 94.60 C 71.13 93.23 70.90 91.86 70.64 90.50 C 72.83 90.49 75.01 90.48 77.19 90.48 C 77.31 97.07 76.95 103.69 77.44 110.26 C 76.76 110.39 76.08 110.53 75.41 110.66 C 78.26 116.68 81.96 122.06 85.59 127.61 C 83.96 127.11 83.27 125.81 82.10 124.66 L 82.00 125.17 C 82.03 123.83 81.39 122.25 79.88 122.13 C 80.15 120.78 79.37 119.25 78.01 118.88 L 78.14 118.02 L 77.51 117.25 L 76.65 117.22 L 77.37 116.63 C 76.08 114.26 74.87 111.86 73.62 109.47 C 74.58 109.55 75.53 109.65 76.49 109.61 C 74.28 105.12 73.03 100.43 71.48 95.71 C 70.56 96.77 71.10 98.75 70.99 100.07 C 70.28 99.22 69.60 98.33 68.87 97.49 L 68.86 101.31 C 67.42 99.54 66.84 96.60 67.15 94.35 C 67.90 95.34 68.62 96.36 69.43 97.31 L 68.73 92.41 C 67.82 92.83 66.92 93.25 66.02 93.67 C 65.20 85.57 64.86 77.56 65.31 69.42 C 70.21 71.07 75.32 70.12 80.16 71.39 C 76.47 72.44 72.07 70.78 68.77 72.65 C 80.56 74.55 91.79 71.02 100.19 62.53 C 105.19 67.67 111.19 70.72 118.05 72.62 C 118.67 72.14 119.28 71.66 119.90 71.19 C 112.14 70.44 105.71 66.38 100.36 60.93 C 99.36 61.37 98.35 61.80 97.34 62.21 C 98.22 61.12 99.09 60.06 100.08 59.07 Z" fill="#ffffff"/>
<path d="M 149.93 59.29 C 150.91 60.05 151.79 60.97 152.68 61.83 C 150.60 65.40 148.54 68.98 146.23 72.42 C 145.67 71.62 145.11 70.81 144.56 70.00 C 144.45 68.86 144.97 66.94 143.75 66.30 C 141.97 65.25 140.09 64.44 138.46 63.14 C 142.20 61.70 146.00 60.09 149.93 59.29 Z" fill="#ecbf1c"/>
<path d="M 96.98 62.67 L 97.34 62.21 L 97.82 62.53 L 97.48 63.03 L 96.98 62.67 Z" fill="#ffffff"/>
<path d="M 97.48 63.03 C 96.43 64.62 95.14 66.09 93.09 66.16 C 93.57 64.15 95.48 63.00 97.48 63.03 Z" fill="#ffffff"/>
<path d="M 148.07 63.00 C 148.39 64.39 147.16 66.52 145.62 65.36 C 144.38 63.68 146.62 62.65 148.07 63.00 Z" fill="#a8489b"/>
<path d="M 55.36 65.08 C 56.19 65.42 57.00 65.84 57.79 66.32 C 57.56 67.53 56.75 68.68 56.19 69.77 C 55.33 69.09 54.48 68.41 53.64 67.72 C 54.18 66.81 54.75 65.93 55.36 65.08 Z" fill="#ecbf1c"/>
<path d="M 48.78 65.64 C 47.96 68.01 46.14 69.23 44.52 70.98 C 45.04 72.96 47.11 74.26 49.04 74.53 C 51.37 73.54 50.20 71.95 50.29 69.99 C 50.98 69.36 51.68 68.73 52.38 68.10 C 53.95 71.06 54.28 73.27 51.88 75.88 C 48.27 80.48 39.74 75.36 41.96 70.04 C 43.22 66.67 45.37 65.94 48.78 65.64 Z" fill="#ecbf1c"/>
<path d="M 93.09 66.16 C 92.34 67.58 88.91 70.13 87.58 68.20 C 89.22 67.34 91.18 65.99 93.09 66.16 Z" fill="#ffffff"/>
<path d="M 155.91 66.83 C 156.59 67.75 157.24 68.70 157.89 69.64 C 155.55 71.16 153.21 72.68 150.87 74.19 C 151.79 75.80 152.71 77.41 153.63 79.02 C 152.80 79.43 151.98 79.83 151.15 80.23 C 149.59 77.80 148.04 75.37 146.50 72.93 C 149.60 70.78 152.60 68.66 155.91 66.83 Z" fill="#ecbf1c"/>
<path d="M 86.75 68.72 C 86.80 69.14 86.85 69.55 86.91 69.96 C 84.15 70.49 81.48 71.73 78.70 70.95 C 80.36 70.48 82.03 70.03 83.70 69.60 C 84.72 69.31 85.74 69.02 86.75 68.72 Z" fill="#ffffff"/>
<path d="M 95.82 69.10 C 96.42 69.48 97.02 69.86 97.63 70.22 C 99.63 70.32 101.62 70.37 103.62 70.49 C 103.89 70.01 104.17 69.54 104.44 69.06 C 105.37 70.99 106.92 72.16 108.42 73.60 C 110.46 75.48 111.11 78.56 110.09 81.13 C 108.94 84.18 105.72 85.14 104.45 88.22 C 103.94 87.71 103.43 87.19 102.92 86.68 C 100.15 86.70 97.52 86.85 94.89 87.77 C 94.28 85.30 96.31 81.95 92.91 81.39 C 92.88 79.05 92.89 76.71 92.82 74.37 C 93.91 75.05 94.75 74.99 95.34 74.17 C 95.23 72.31 93.35 73.28 92.82 74.37 C 91.87 75.79 90.43 77.15 90.75 79.01 C 90.95 81.01 92.25 82.24 93.49 83.68 C 93.51 84.27 93.52 84.86 93.54 85.44 C 91.18 83.09 89.01 80.44 90.00 76.89 C 90.91 73.18 94.42 72.55 95.82 69.10 Z" fill="#030000"/>
<path d="M 66.29 70.95 L 69.87 70.97 C 69.03 71.71 68.18 72.43 67.32 73.15 C 67.13 77.36 67.34 81.53 67.69 85.73 C 67.16 85.51 66.63 85.30 66.11 85.09 C 66.21 80.42 65.84 75.59 66.29 70.95 Z" fill="#030000"/>
<path d="M 104.23 71.65 C 104.23 72.86 104.24 74.08 104.24 75.29 C 102.54 75.28 100.83 75.28 99.12 75.27 C 98.55 74.00 97.99 72.71 97.43 71.43 C 99.71 71.27 101.97 71.39 104.23 71.65 Z" fill="#ffffff"/>
<path d="M 134.14 70.78 C 134.52 76.84 134.24 82.88 133.98 88.94 C 133.45 88.33 132.91 87.72 132.38 87.11 C 133.13 82.24 133.23 77.34 133.07 72.43 C 128.29 73.15 123.85 73.30 119.03 72.90 C 119.64 72.43 120.25 71.97 120.87 71.51 C 125.35 72.20 129.74 71.69 134.14 70.78 Z" fill="#030000"/>
<path d="M 95.34 74.17 C 94.75 74.99 93.91 75.05 92.82 74.37 C 93.35 73.28 95.23 72.31 95.34 74.17 Z" fill="#ffffff"/>
<path d="M 105.47 72.06 C 107.19 73.77 108.62 75.45 109.71 77.65 C 108.13 76.78 106.61 75.82 105.10 74.84 C 105.21 73.91 105.33 72.98 105.47 72.06 Z" fill="#ffffff"/>
<path d="M 94.84 76.39 C 95.48 77.40 95.52 79.71 94.86 80.71 C 93.45 81.04 93.55 76.29 94.84 76.39 Z" fill="#ffffff"/>
<path d="M 98.60 76.26 C 99.25 77.80 99.90 79.33 100.56 80.87 C 99.15 80.85 97.73 80.83 96.32 80.82 C 96.34 79.37 96.34 77.92 96.40 76.48 C 97.13 76.40 97.86 76.33 98.60 76.26 Z" fill="#ffffff"/>
<path d="M 99.87 76.34 C 101.31 76.33 102.74 76.38 104.17 76.49 C 104.24 77.92 104.31 79.35 104.37 80.78 C 103.57 80.78 102.77 80.76 101.97 80.72 C 100.97 79.48 100.38 77.84 99.87 76.34 Z" fill="#ffffff"/>
<path d="M 105.96 76.47 C 107.56 77.60 107.60 79.61 105.96 80.72 C 104.85 79.90 104.89 77.32 105.96 76.47 Z" fill="#ffffff"/>
<path d="M 109.72 79.30 C 108.76 82.05 107.29 83.48 105.03 85.11 C 103.95 81.95 107.78 80.92 109.72 79.30 Z" fill="#ffffff"/>
<path d="M 96.33 81.92 L 96.99 81.89 C 98.37 81.84 99.74 81.79 101.12 81.74 C 101.67 83.16 102.23 84.58 102.77 86.01 C 100.64 85.91 98.52 85.78 96.39 85.61 C 96.37 84.38 96.35 83.15 96.33 81.92 Z" fill="#ffffff"/>
<path d="M 102.90 82.20 L 103.73 82.18 L 104.21 82.89 L 103.85 83.64 L 103.03 83.66 L 102.55 82.95 L 102.90 82.20 Z" fill="#ffffff"/>
<path d="M 68.04 92.37 L 67.62 92.37 C 67.01 90.42 66.70 88.31 66.71 86.26 C 68.64 85.96 68.05 91.25 68.04 92.37 Z" fill="#030000"/>
<path d="M 69.85 89.26 C 90.30 89.07 110.79 89.20 131.25 89.19 C 130.39 92.64 130.29 97.91 127.96 100.57 C 127.93 97.21 129.17 93.81 129.82 90.53 C 127.61 90.49 125.40 90.48 123.19 90.48 C 123.19 97.14 123.28 103.81 123.10 110.47 C 124.02 109.08 124.96 107.70 125.99 106.39 C 125.82 109.17 124.25 111.83 123.57 114.51 C 125.35 112.85 125.07 110.28 127.71 110.15 C 126.75 112.13 125.82 114.12 124.63 115.98 L 123.78 116.75 C 121.87 118.30 121.60 119.12 121.27 121.60 C 120.16 123.65 118.88 125.59 117.61 127.55 L 117.04 126.44 L 117.54 124.55 C 115.81 124.86 114.54 127.23 113.90 128.73 C 111.20 131.39 108.82 134.36 106.18 137.08 C 104.20 138.94 102.18 140.78 100.15 142.61 C 96.12 139.06 92.42 135.21 88.71 131.34 L 88.34 130.96 L 87.83 131.27 C 88.07 130.01 87.09 127.92 85.63 128.99 C 86.11 129.93 86.85 130.69 87.83 131.27 L 88.31 131.67 L 88.71 131.34 L 89.08 134.60 C 86.28 132.19 84.37 129.30 82.05 126.45 L 81.79 127.83 L 82.00 125.17 L 82.10 124.66 C 83.27 125.81 83.96 127.11 85.59 127.61 C 81.96 122.06 78.26 116.68 75.41 110.66 C 76.08 110.53 76.76 110.39 77.44 110.26 C 76.95 103.69 77.31 97.07 77.19 90.48 C 75.01 90.48 72.83 90.49 70.64 90.50 C 70.90 91.86 71.13 93.23 71.35 94.60 C 70.90 94.75 70.45 94.89 70.00 95.02 C 69.74 93.11 69.46 91.20 69.15 89.29 L 69.85 89.26 Z" fill="#030000"/>
<path d="M 133.40 89.57 C 133.19 90.54 133.27 93.81 131.85 93.85 C 131.83 92.47 131.89 91.08 132.02 89.69 C 132.47 89.30 132.93 89.26 133.40 89.57 Z" fill="#030000"/>
<path d="M 86.42 90.47 C 89.45 90.48 92.48 90.48 95.51 90.49 C 95.52 105.79 95.53 121.09 95.50 136.39 C 92.41 133.51 89.48 130.37 87.00 126.94 C 86.19 125.96 86.46 124.22 86.36 123.02 C 86.44 112.17 86.35 101.32 86.42 90.47 Z" fill="#ffffff"/>
<path d="M 104.81 90.49 C 107.85 90.48 110.89 90.48 113.93 90.50 C 113.85 101.34 113.88 112.18 113.92 123.01 C 113.82 124.27 114.12 126.10 113.25 127.11 C 110.77 130.50 107.78 133.54 104.81 136.50 C 104.79 121.16 104.79 105.83 104.81 90.49 Z" fill="#ffffff"/>
<path d="M 46.02 92.89 C 45.47 93.41 44.94 93.96 44.44 94.52 C 45.23 95.53 46.09 96.49 46.92 97.47 C 48.50 97.31 49.56 97.12 50.89 96.17 C 53.03 98.54 53.70 100.08 53.88 103.34 C 52.77 103.38 51.66 103.44 50.55 103.50 C 50.41 105.51 50.32 107.53 50.24 109.55 C 51.20 109.81 52.15 110.08 53.11 110.34 C 50.98 112.90 48.85 115.19 45.46 115.97 C 45.61 114.92 45.77 113.88 45.92 112.84 C 44.64 112.31 43.37 111.66 42.03 111.34 C 40.66 111.69 39.36 112.35 38.06 112.86 C 38.27 113.91 38.47 114.97 38.68 116.02 C 35.59 115.12 33.58 112.99 31.69 110.52 C 32.60 110.11 33.52 109.70 34.43 109.29 L 34.39 108.51 C 34.22 107.28 34.79 105.19 33.79 104.27 C 32.82 102.92 31.86 103.11 30.53 103.84 L 30.25 104.02 C 30.20 100.50 31.77 97.72 34.37 95.45 L 34.40 97.85 C 36.65 97.00 38.72 96.84 39.74 94.33 L 38.20 92.90 C 40.83 92.63 43.40 92.39 46.02 92.89 Z" fill="#ffffff"/>
<path d="M 161.99 93.08 L 160.40 94.29 C 161.23 95.35 162.11 96.37 162.96 97.41 C 164.60 97.31 165.51 97.16 166.89 96.15 C 168.86 98.43 169.73 100.27 169.84 103.31 C 168.73 103.37 167.63 103.43 166.53 103.50 C 166.39 105.55 166.30 107.61 166.22 109.68 C 167.19 109.76 168.17 109.84 169.14 109.92 C 167.09 112.75 164.72 114.93 161.48 116.34 C 161.63 115.24 161.78 114.13 161.94 113.03 C 160.89 112.40 159.83 111.79 158.76 111.19 C 157.22 111.68 155.75 112.32 154.26 112.93 C 154.45 114.07 154.64 115.22 154.83 116.37 C 151.84 115.02 149.63 113.19 147.61 110.61 C 148.53 110.16 149.45 109.72 150.37 109.28 L 150.21 108.47 C 150.33 107.40 150.47 106.33 150.62 105.26 C 149.09 103.98 148.74 102.48 146.53 103.84 L 146.21 103.99 C 146.20 100.52 147.80 97.75 150.29 95.45 L 150.40 97.86 C 152.50 97.09 154.49 96.80 155.87 94.83 C 155.48 94.17 155.06 93.53 154.61 92.90 C 157.11 92.49 159.53 92.35 161.99 93.08 Z" fill="#ffffff"/>
<path d="M 37.90 92.91 L 38.20 92.90 L 39.74 94.33 C 38.72 96.84 36.65 97.00 34.40 97.85 L 34.37 95.45 C 35.47 94.51 36.72 93.74 37.90 92.91 Z" fill="#030000"/>
<path d="M 46.02 92.89 C 47.82 93.74 49.36 94.93 50.89 96.17 C 49.56 97.12 48.50 97.31 46.92 97.47 C 46.09 96.49 45.23 95.53 44.44 94.52 C 44.94 93.96 45.47 93.41 46.02 92.89 Z" fill="#030000"/>
<path d="M 153.98 93.00 L 154.61 92.90 C 155.06 93.53 155.48 94.17 155.87 94.83 C 154.49 96.80 152.50 97.09 150.40 97.86 L 150.29 95.45 C 151.40 94.49 152.72 93.74 153.98 93.00 Z" fill="#030000"/>
<path d="M 161.99 93.08 C 163.84 93.77 165.35 94.96 166.89 96.15 C 165.51 97.16 164.60 97.31 162.96 97.41 C 162.11 96.37 161.23 95.35 160.40 94.29 L 161.99 93.08 Z" fill="#030000"/>
<path d="M 39.49 99.38 C 41.27 99.11 43.11 99.10 44.90 99.03 C 45.24 100.22 45.58 101.39 45.87 102.59 C 43.45 102.45 41.04 102.31 38.62 102.07 C 38.87 101.16 39.16 100.26 39.49 99.38 Z" fill="#a8489b"/>
<path d="M 155.54 99.37 C 157.29 99.11 159.10 99.11 160.86 99.04 C 161.21 100.24 161.56 101.43 161.85 102.64 C 159.45 102.47 157.09 102.20 154.71 101.81 C 154.96 100.98 155.24 100.17 155.54 99.37 Z" fill="#a8489b"/>
<path d="M 131.15 100.29 C 132.35 100.18 132.61 100.64 131.94 101.67 C 130.81 101.94 130.55 101.49 131.15 100.29 Z" fill="#ffffff"/>
<path d="M 71.16 101.30 C 72.33 101.27 72.62 101.73 72.03 102.69 L 71.15 102.69 L 70.69 101.89 L 71.16 101.30 Z" fill="#ffffff"/>
<path d="M 38.62 102.07 C 41.04 102.31 43.45 102.45 45.87 102.59 L 45.75 104.56 C 44.56 105.44 43.35 106.27 42.13 107.11 C 40.83 106.14 39.53 105.18 38.27 104.17 L 38.62 102.07 Z" fill="#030000"/>
<path d="M 69.08 102.31 C 70.24 102.27 70.53 102.73 69.94 103.70 L 69.06 103.70 L 68.60 102.89 L 69.08 102.31 Z" fill="#ffffff"/>
<path d="M 154.71 101.81 C 157.09 102.20 159.45 102.47 161.85 102.64 L 161.71 104.55 C 160.53 105.43 159.32 106.26 158.11 107.10 C 156.75 106.08 155.40 105.08 154.04 104.08 C 154.26 103.32 154.49 102.56 154.71 101.81 Z" fill="#030000"/>
<path d="M 33.79 104.27 C 34.79 105.19 34.22 107.28 34.39 108.51 C 33.00 107.03 31.66 105.53 30.53 103.84 C 31.86 103.11 32.82 102.92 33.79 104.27 Z" fill="#030000"/>
<path d="M 53.88 103.34 C 53.83 105.70 53.68 108.04 53.11 110.34 C 52.15 110.08 51.20 109.81 50.24 109.55 C 50.32 107.53 50.41 105.51 50.55 103.50 C 51.66 103.44 52.77 103.38 53.88 103.34 Z" fill="#030000"/>
<path d="M 130.04 103.49 L 130.95 103.39 L 131.39 104.15 L 130.90 104.76 C 129.72 104.92 129.43 104.49 130.04 103.49 Z" fill="#ffffff"/>
<path d="M 150.62 105.26 C 150.47 106.33 150.33 107.40 150.21 108.47 C 148.92 106.97 147.65 105.47 146.53 103.84 C 148.74 102.48 149.09 103.98 150.62 105.26 Z" fill="#030000"/>
<path d="M 169.84 103.31 C 169.84 105.54 169.73 107.75 169.14 109.92 C 168.17 109.84 167.19 109.76 166.22 109.68 C 166.30 107.61 166.39 105.55 166.53 103.50 C 167.63 103.43 168.73 103.37 169.84 103.31 Z" fill="#030000"/>
<path d="M 30.25 104.02 L 30.53 103.84 C 31.66 105.53 33.00 107.03 34.39 108.51 L 34.43 109.29 C 33.52 109.70 32.60 110.11 31.69 110.52 C 30.68 108.46 30.06 106.35 30.25 104.02 Z" fill="#030000"/>
<path d="M 71.92 103.46 C 73.25 104.08 73.77 106.28 74.18 107.59 C 73.75 107.71 73.33 107.78 72.90 107.79 C 72.26 106.35 71.93 104.91 71.92 103.46 Z" fill="#ffffff"/>
<path d="M 146.21 103.99 L 146.53 103.84 C 147.65 105.47 148.92 106.97 150.21 108.47 L 150.37 109.28 C 149.45 109.72 148.53 110.16 147.61 110.61 C 146.71 108.47 146.05 106.34 146.21 103.99 Z" fill="#030000"/>
<path d="M 69.29 103.73 C 72.24 106.88 73.02 111.94 75.44 115.62 L 74.31 115.85 C 72.29 111.94 70.44 108.01 69.29 103.73 Z" fill="#ffffff"/>
<path d="M 0.00 105.71 C 1.19 113.74 2.09 121.61 4.58 129.37 C 12.21 154.60 30.19 176.26 53.50 188.53 C 65.50 195.02 78.60 198.46 92.10 200.00 L 0.00 200.00 L 0.00 105.71 Z" fill="#ffffff"/>
<path d="M 200.00 108.70 L 200.00 200.00 L 108.48 200.00 C 114.04 199.07 119.54 198.49 124.99 197.02 C 142.51 192.53 158.62 183.17 171.34 170.34 C 183.90 157.55 192.98 141.44 197.26 124.02 C 198.57 118.95 199.08 113.86 200.00 108.70 Z" fill="#ffffff"/>
<path d="M 42.03 111.34 C 43.37 111.66 44.64 112.31 45.92 112.84 C 45.77 113.88 45.61 114.92 45.46 115.97 L 45.05 115.98 C 42.99 115.97 40.93 115.92 38.87 115.83 C 38.59 114.84 38.32 113.85 38.06 112.86 C 39.36 112.35 40.66 111.69 42.03 111.34 Z" fill="#030000"/>
<path d="M 158.76 111.19 C 159.83 111.79 160.89 112.40 161.94 113.03 C 159.05 114.47 157.15 113.84 154.26 112.93 C 155.75 112.32 157.22 111.68 158.76 111.19 Z" fill="#030000"/>
<path d="M 38.06 112.86 C 38.32 113.85 38.59 114.84 38.87 115.83 C 40.93 115.92 42.99 115.97 45.05 115.98 C 42.93 116.00 40.80 116.05 38.68 116.02 C 38.47 114.97 38.27 113.91 38.06 112.86 Z" fill="#ffffff"/>
<path d="M 154.26 112.93 C 157.15 113.84 159.05 114.47 161.94 113.03 C 161.78 114.13 161.63 115.24 161.48 116.34 C 159.27 116.57 157.04 116.56 154.83 116.37 C 154.64 115.22 154.45 114.07 154.26 112.93 Z" fill="#030000"/>
<path d="M 74.31 115.85 C 75.11 116.28 75.89 116.74 76.65 117.22 C 76.63 118.38 77.08 118.93 78.01 118.88 L 77.85 119.59 C 77.94 120.67 78.45 121.47 79.37 121.98 L 79.88 122.13 L 79.85 122.77 C 80.06 123.73 80.57 124.58 81.38 125.34 L 82.00 125.17 L 81.79 127.83 C 79.01 124.01 76.44 120.07 74.31 115.85 Z" fill="#ffffff"/>
<path d="M 76.65 117.22 L 77.51 117.25 L 78.14 118.02 L 78.01 118.88 C 77.08 118.93 76.63 118.38 76.65 117.22 Z" fill="#030000"/>
<path d="M 78.01 118.88 C 79.37 119.25 80.15 120.78 79.88 122.13 L 79.37 121.98 C 78.45 121.47 77.94 120.67 77.85 119.59 L 78.01 118.88 Z" fill="#030000"/>
<path d="M 123.37 119.21 L 124.34 119.18 C 122.15 122.74 119.70 126.13 117.46 129.66 C 117.31 128.59 117.18 127.51 117.04 126.44 L 117.61 127.55 C 118.88 125.59 120.16 123.65 121.27 121.60 C 121.94 120.79 122.58 119.91 123.37 119.21 Z" fill="#ffffff"/>
<path d="M 49.55 121.51 C 54.90 122.95 58.02 128.59 61.61 132.42 C 73.14 145.32 90.91 151.61 108.01 148.93 C 120.49 147.12 131.86 140.60 139.98 130.99 C 143.26 127.25 145.95 122.67 151.15 121.44 C 155.98 120.20 161.20 124.14 161.68 128.99 C 161.91 133.04 159.27 136.84 156.81 139.83 C 147.85 150.07 137.21 158.73 124.66 164.18 C 124.02 167.43 123.88 170.84 120.59 172.56 C 116.50 174.09 112.82 171.00 109.95 168.49 C 112.91 168.67 116.14 169.51 119.09 169.06 C 120.47 168.13 121.38 166.42 122.36 165.11 C 115.90 166.79 109.78 168.85 103.00 168.75 C 94.34 169.31 86.11 167.50 77.87 165.04 C 78.85 166.37 79.79 167.82 80.98 168.96 C 83.08 169.65 85.78 168.91 87.88 168.59 C 88.43 169.00 88.97 169.42 89.51 169.84 C 86.49 171.36 83.07 174.13 79.53 172.45 C 76.44 170.60 76.32 167.26 75.59 164.10 C 63.13 158.77 52.78 150.20 43.83 140.14 C 41.41 137.31 38.95 133.84 38.65 130.01 C 38.35 124.55 44.31 119.96 49.55 121.51 Z" fill="#030000"/>
<path d="M 79.88 122.13 C 81.39 122.25 82.03 123.83 82.00 125.17 L 81.38 125.34 C 80.57 124.58 80.06 123.73 79.85 122.77 L 79.88 122.13 Z" fill="#030000"/>
<path d="M 49.54 123.55 C 53.78 125.01 56.74 130.09 59.74 133.26 C 69.03 143.75 82.01 150.28 95.99 151.32 C 112.25 152.62 128.35 146.40 139.49 134.50 C 143.01 131.12 146.02 125.30 150.68 123.61 C 154.56 122.06 159.31 124.98 159.66 129.12 C 159.97 132.84 157.27 136.32 154.97 138.99 C 147.04 147.64 138.27 155.48 127.60 160.60 C 113.50 167.40 96.96 168.72 81.98 164.17 C 67.49 159.88 55.72 150.31 45.67 139.34 C 43.48 136.82 40.84 133.46 40.67 130.01 C 40.46 125.50 45.29 122.00 49.54 123.55 Z" fill="#a8489b"/>
<path d="M 117.54 124.55 L 117.04 126.44 L 116.40 127.28 C 115.76 127.87 115.08 128.41 114.37 128.90 L 113.90 128.73 C 114.54 127.23 115.81 124.86 117.54 124.55 Z" fill="#ffffff"/>
<path d="M 81.79 127.83 L 82.05 126.45 C 84.37 129.30 86.28 132.19 89.08 134.60 L 89.51 134.99 L 89.87 134.45 L 90.50 137.78 C 87.23 134.85 84.41 131.35 81.79 127.83 Z" fill="#ffffff"/>
<path d="M 87.83 131.27 C 86.85 130.69 86.11 129.93 85.63 128.99 C 87.09 127.92 88.07 130.01 87.83 131.27 Z" fill="#ffffff"/>
<path d="M 113.90 128.73 L 113.64 131.55 L 113.05 131.43 L 112.84 131.91 L 112.57 132.35 L 113.05 132.54 C 110.23 133.19 109.13 136.73 106.18 137.08 C 108.82 134.36 111.20 131.39 113.90 128.73 Z" fill="#ffffff"/>
<path d="M 117.14 128.78 C 116.71 129.70 116.24 130.61 115.75 131.50 C 114.68 132.82 113.58 134.11 112.51 135.43 L 111.06 135.37 L 113.05 132.54 L 113.31 132.16 L 112.84 131.91 L 113.35 132.03 L 113.64 131.55 L 117.14 128.78 Z" fill="#ffffff"/>
<path d="M 87.83 131.27 L 88.34 130.96 L 88.71 131.34 L 88.31 131.67 L 87.83 131.27 Z" fill="#ffffff"/>
<path d="M 113.05 131.43 L 113.64 131.55 L 113.35 132.03 L 112.84 131.91 L 113.05 131.43 Z" fill="#030000"/>
<path d="M 88.71 131.34 C 92.42 135.21 96.12 139.06 100.15 142.61 C 102.18 140.78 104.20 138.94 106.18 137.08 L 107.42 137.45 C 105.54 139.30 102.63 141.06 101.93 143.70 L 101.71 143.40 C 100.34 143.38 99.15 143.12 97.85 142.69 L 97.64 142.01 L 97.04 142.03 L 96.63 141.61 L 96.26 142.03 L 96.60 140.76 C 94.31 138.69 92.22 136.44 89.87 134.45 L 89.43 134.07 L 89.08 134.60 L 88.71 131.34 Z" fill="#ffffff"/>
<path d="M 112.57 132.35 L 112.84 131.91 L 113.31 132.16 L 113.05 132.54 L 112.57 132.35 Z" fill="#030000"/>
<path d="M 113.05 132.54 L 111.06 135.37 L 110.69 135.80 L 110.89 136.27 L 110.16 136.52 L 110.19 137.31 L 109.45 137.20 L 108.91 137.86 L 108.26 138.42 L 108.36 139.19 L 107.53 139.22 L 107.22 140.01 L 106.47 140.08 L 106.09 140.81 L 105.41 141.23 L 105.31 142.01 L 104.57 142.05 L 104.15 142.68 L 101.93 143.70 C 102.63 141.06 105.54 139.30 107.42 137.45 L 106.18 137.08 C 109.13 136.73 110.23 133.19 113.05 132.54 Z" fill="#030000"/>
<path d="M 89.08 134.60 L 89.43 134.07 L 89.87 134.45 L 89.51 134.99 L 89.08 134.60 Z" fill="#030000"/>
<path d="M 89.87 134.45 C 92.22 136.44 94.31 138.69 96.60 140.76 L 96.26 142.03 L 93.47 139.93 L 93.08 139.63 L 92.64 139.94 L 92.71 139.20 L 92.07 138.93 L 92.01 138.23 L 91.32 138.15 L 91.07 137.58 L 90.50 137.78 L 89.87 134.45 Z" fill="#030000"/>
<path d="M 110.69 135.80 L 111.06 135.37 L 111.42 135.87 L 110.89 136.27 L 110.69 135.80 Z" fill="#ffffff"/>
<path d="M 110.16 136.52 L 110.89 136.27 L 110.90 136.94 L 110.19 137.31 L 110.16 136.52 Z" fill="#ffffff"/>
<path d="M 90.50 137.78 L 91.07 137.58 L 91.32 138.15 L 90.50 137.78 Z" fill="#ffffff"/>
<path d="M 109.45 137.20 L 110.19 137.31 L 109.67 137.95 L 108.91 137.86 L 109.45 137.20 Z" fill="#ffffff"/>
<path d="M 91.32 138.15 L 92.01 138.23 L 92.07 138.93 L 91.36 138.85 L 91.32 138.15 Z" fill="#ffffff"/>
<path d="M 108.26 138.42 L 108.91 137.86 L 109.02 138.62 L 108.36 139.19 L 108.26 138.42 Z" fill="#ffffff"/>
<path d="M 92.07 138.93 L 92.71 139.20 L 92.64 139.94 L 92.02 139.59 L 92.07 138.93 Z" fill="#ffffff"/>
<path d="M 107.53 139.22 L 108.36 139.19 L 107.97 139.94 L 107.22 140.01 L 107.53 139.22 Z" fill="#ffffff"/>
<path d="M 92.64 139.94 L 93.08 139.63 L 93.47 139.93 L 93.16 140.27 L 92.64 139.94 Z" fill="#ffffff"/>
<path d="M 106.47 140.08 L 107.22 140.01 L 106.90 140.79 L 106.09 140.81 L 106.47 140.08 Z" fill="#ffffff"/>
<path d="M 65.11 141.11 C 66.41 141.73 67.65 142.52 68.87 143.25 C 68.22 145.27 67.57 147.29 66.96 149.31 C 68.63 148.08 70.27 146.82 71.92 145.56 C 73.11 146.41 74.30 147.26 75.49 148.12 C 73.44 151.28 71.30 154.35 69.05 157.37 C 68.29 156.86 67.53 156.35 66.78 155.84 C 68.21 153.69 69.63 151.53 70.97 149.32 C 68.93 151.04 66.92 152.81 64.91 154.59 C 64.23 154.06 63.55 153.53 62.87 153.00 C 63.61 150.91 64.33 148.82 64.97 146.70 C 63.56 148.33 62.22 150.02 60.89 151.73 C 60.17 151.17 59.44 150.60 58.72 150.03 C 60.83 147.07 62.71 143.85 65.11 141.11 Z" fill="#ecbf1c"/>
<path d="M 93.47 139.93 L 96.26 142.03 L 96.67 142.36 L 97.04 142.03 L 97.18 142.72 L 97.85 142.69 L 98.03 143.20 C 98.44 144.25 99.11 144.91 100.06 145.18 L 101.62 144.98 L 102.10 145.61 C 101.43 146.07 100.76 146.52 100.09 146.98 C 97.87 144.89 94.53 142.86 93.47 139.93 Z" fill="#ffffff"/>
<path d="M 96.26 142.03 L 96.63 141.61 L 97.04 142.03 L 96.67 142.36 L 96.26 142.03 Z" fill="#030000"/>
<path d="M 105.41 141.23 L 106.09 140.81 L 106.05 141.60 L 105.31 142.01 L 105.41 141.23 Z" fill="#ffffff"/>
<path d="M 97.04 142.03 L 97.64 142.01 L 97.85 142.69 L 97.18 142.72 L 97.04 142.03 Z" fill="#030000"/>
<path d="M 104.57 142.05 L 105.31 142.01 L 104.89 142.71 L 104.15 142.68 L 104.57 142.05 Z" fill="#ffffff"/>
<path d="M 97.85 142.69 C 99.15 143.12 100.34 143.38 101.71 143.40 L 101.93 143.70 L 101.62 144.98 L 100.06 145.18 C 99.11 144.91 98.44 144.25 98.03 143.20 L 97.85 142.69 Z" fill="#030000"/>
<path d="M 101.93 143.70 L 104.15 142.68 C 104.07 143.99 103.23 144.76 101.62 144.98 L 101.93 143.70 Z" fill="#ffffff"/>
<path d="M 132.83 143.12 C 136.33 144.81 139.48 147.31 142.71 149.47 C 140.33 150.62 137.81 151.28 135.28 151.96 C 135.23 152.94 135.19 153.92 135.15 154.90 C 134.36 155.44 133.57 155.99 132.78 156.53 C 131.52 152.65 130.34 148.77 129.45 144.79 C 130.46 144.24 131.63 143.09 132.83 143.12 Z" fill="#ecbf1c"/>
<path d="M 133.26 147.26 C 134.52 146.48 136.54 148.23 135.50 149.54 C 134.10 150.80 132.36 148.58 133.26 147.26 Z" fill="#a8489b"/>
<path d="M 125.06 148.57 C 127.59 149.96 127.03 151.68 126.84 154.15 C 128.28 155.37 129.73 156.59 131.15 157.84 C 130.06 158.19 128.96 158.49 127.85 158.75 C 125.96 158.26 124.22 157.01 122.50 156.13 C 122.99 157.69 123.48 159.25 123.97 160.81 C 122.97 161.22 121.96 161.64 120.95 162.05 C 119.35 158.66 117.81 155.23 116.30 151.79 C 119.01 150.56 122.05 148.78 125.06 148.57 Z" fill="#ecbf1c"/>
<path d="M 80.02 150.00 C 81.11 150.32 82.18 150.67 83.26 151.04 C 83.56 155.24 83.36 159.39 83.02 163.58 C 80.99 162.20 79.25 160.51 77.43 158.88 C 75.24 159.65 73.92 159.66 71.67 159.16 C 74.22 155.92 76.99 152.80 80.02 150.00 Z" fill="#ecbf1c"/>
<path d="M 113.89 151.91 C 114.95 155.70 115.90 159.51 116.65 163.38 L 113.70 163.49 C 111.84 160.61 111.47 156.30 110.64 152.96 C 111.71 152.60 112.80 152.25 113.89 151.91 Z" fill="#ecbf1c"/>
<path d="M 121.27 152.26 C 122.07 151.56 122.84 151.50 123.58 152.06 C 124.69 154.35 119.86 154.88 121.27 152.26 Z" fill="#a8489b"/>
<path d="M 87.93 152.67 C 90.02 152.93 92.19 153.15 94.21 153.77 C 98.91 154.83 98.09 163.42 93.86 164.56 C 91.33 164.85 88.60 164.22 86.10 163.84 C 86.63 160.11 87.14 156.35 87.93 152.67 Z" fill="#ecbf1c"/>
<path d="M 80.63 154.36 C 81.38 155.52 80.59 157.56 79.07 157.47 C 76.95 156.78 78.96 153.19 80.63 154.36 Z" fill="#a8489b"/>
<path d="M 99.04 153.96 C 102.14 153.69 105.21 153.36 108.31 153.57 L 108.57 155.09 C 106.38 155.96 104.00 156.35 101.75 157.03 C 103.91 157.52 106.10 157.69 108.30 157.95 C 108.58 161.45 103.31 158.64 102.45 162.21 C 104.70 162.22 106.94 162.17 109.19 162.10 C 109.12 162.94 109.05 163.78 108.98 164.63 C 106.00 164.85 102.96 165.20 99.97 165.12 C 99.19 161.50 99.26 157.65 99.04 153.96 Z" fill="#ecbf1c"/>
<path d="M 91.92 155.62 C 95.46 157.32 93.99 162.38 90.04 162.26 C 90.51 160.39 89.85 156.53 91.92 155.62 Z" fill="#a8489b"/>
<path d="M 93.44 169.02 C 94.44 169.56 95.45 170.10 96.46 170.62 C 100.52 172.29 103.47 170.89 107.09 169.04 C 106.19 171.92 105.82 174.46 102.91 175.94 C 99.35 177.61 96.22 175.87 94.25 172.82 C 93.97 171.56 93.69 170.29 93.44 169.02 Z" fill="#030000"/>
</svg>