<?xml version="1.0" encoding="UTF-8" standalone="no"?>
<!DOCTYPE svg PUBLIC "-//W3C//DTD SVG 1.1//EN" "http://www.w3.org/Graphics/SVG/1.1/DTD/svg11.dtd">
<svg xmlns="http://www.w3.org/2000/svg" version="1.1" viewBox="0 0 200 200" width="200.0pt" height="200.0pt">
<path d="M 0.00 0.00 L 100.21 0.00 C 79.16 18.52 50.93 28.01 23.01 26.54 C 18.42 26.63 13.81 25.43 9.23 25.18 C 8.85 43.57 11.04 62.11 15.20 80.02 C 23.26 114.34 39.63 146.33 64.43 171.57 C 74.37 181.75 85.62 190.71 97.61 198.36 C 98.33 198.80 98.94 199.35 99.45 200.00 L 0.00 200.00 L 0.00 0.00 Z" fill="#ffffff"/>
<path d="M 100.21 0.00 L 100.86 0.00 L 101.87 1.19 C 125.98 21.80 158.95 30.42 190.13 25.24 L 191.17 25.73 C 191.28 31.15 191.22 36.58 191.21 42.01 C 190.01 54.42 188.78 67.09 185.60 79.18 C 177.57 114.63 160.29 147.72 134.46 173.45 C 124.22 183.58 112.77 192.18 100.69 200.00 L 99.45 200.00 C 98.94 199.35 98.33 198.80 97.61 198.36 C 85.62 190.71 74.37 181.75 64.43 171.57 C 39.63 146.33 23.26 114.34 15.20 80.02 C 11.04 62.11 8.85 43.57 9.23 25.18 C 13.81 25.43 18.42 26.63 23.01 26.54 C 50.93 28.01 79.16 18.52 100.21 0.00 Z" fill="#bb2c2c"/>
<path d="M 100.86 0.00 L 200.00 0.00 L 200.00 200.00 L 100.69 200.00 C 112.77 192.18 124.22 183.58 134.46 173.45 C 160.29 147.72 177.57 114.63 185.60 79.18 C 188.78 67.09 190.01 54.42 191.21 42.01 C 191.22 36.58 191.28 31.15 191.17 25.73 L 190.13 25.24 C 158.95 30.42 125.98 21.80 101.87 1.19 L 100.86 0.00 Z" fill="#ffffff"/>
<path d="M 100.05 5.25 C 101.12 5.30 102.04 6.55 102.92 7.11 C 120.18 21.02 141.92 29.27 164.00 30.76 C 171.79 30.98 179.53 30.99 187.26 29.89 L 187.74 30.88 C 187.20 65.42 178.77 100.69 162.03 131.03 C 148.15 156.40 128.04 178.10 103.71 193.73 C 102.58 194.34 101.34 195.64 100.04 195.70 C 78.93 182.48 60.64 164.87 46.94 144.04 C 30.44 119.23 20.31 90.37 15.80 61.01 C 14.58 50.91 13.00 39.62 13.52 29.51 C 23.84 30.66 34.17 31.36 44.50 29.73 C 64.92 27.21 84.35 18.50 100.05 5.25 Z" fill="#ffffff"/>
<path d="M 63.07 34.03 C 62.02 33.81 61.03 33.83 60.10 34.08 C 60.59 35.77 62.74 36.85 63.63 38.41 C 64.68 39.65 63.56 40.80 62.87 41.85 C 60.87 43.18 57.57 42.15 58.40 39.35 C 60.02 39.51 60.31 41.67 61.90 40.88 C 62.86 37.68 58.08 37.50 58.79 34.03 C 59.16 32.03 63.82 30.78 63.07 34.03 Z" fill="#646464"/>
<path d="M 110.94 34.84 C 111.77 34.14 112.65 33.68 113.56 33.46 C 114.67 35.27 113.60 38.69 114.13 40.90 C 115.94 40.79 116.98 39.87 118.80 40.74 C 119.84 38.56 120.46 35.74 122.04 33.94 L 122.87 33.99 C 124.33 36.54 125.13 39.66 127.00 41.90 C 129.27 40.85 127.18 35.75 127.89 33.88 C 130.27 33.21 133.23 33.20 134.09 36.06 C 133.67 37.00 133.24 37.94 132.80 38.89 C 134.05 40.12 134.53 41.19 134.25 42.12 C 132.24 42.45 131.68 39.54 130.06 38.98 C 130.16 40.31 130.00 41.43 129.58 42.35 C 127.86 42.29 126.17 42.31 124.46 42.39 C 123.80 40.59 122.68 39.06 122.79 37.15 L 122.15 37.11 C 122.15 39.15 120.85 40.35 119.96 42.05 C 117.20 41.58 114.67 42.66 111.91 42.08 C 111.95 39.75 112.07 37.36 111.95 35.03 C 111.17 35.13 110.38 35.24 109.60 35.36 C 107.68 33.37 106.93 33.07 104.32 34.29 C 102.94 36.85 103.05 39.94 106.06 41.01 C 108.63 41.36 108.80 39.09 110.81 38.25 C 110.76 40.00 110.00 41.70 108.18 42.20 C 104.36 43.75 100.37 39.66 101.76 35.82 C 102.77 31.45 108.87 30.53 110.94 34.84 Z" fill="#717171"/>
<path d="M 79.53 33.57 C 80.21 33.57 80.88 33.57 81.56 33.58 C 81.97 36.07 81.49 39.15 81.67 41.78 L 80.95 42.06 C 78.70 41.00 77.15 38.24 75.00 36.95 C 74.97 38.65 75.06 40.36 75.10 42.06 C 73.58 42.22 71.70 42.52 70.26 41.90 C 69.62 39.69 67.94 39.54 68.94 36.99 L 68.09 37.10 C 67.99 38.70 66.42 42.70 64.42 42.54 C 64.14 41.98 64.22 41.37 64.66 40.69 C 65.91 38.56 66.55 35.86 68.04 33.94 L 68.85 34.02 C 70.03 36.28 70.86 38.74 72.20 40.90 L 73.13 41.06 C 74.00 39.37 72.44 34.61 74.04 33.85 C 76.18 34.81 77.88 37.53 79.90 38.94 C 80.19 37.09 79.85 35.37 79.53 33.57 Z" fill="#636363"/>
<path d="M 87.02 33.57 C 88.12 33.65 91.17 33.03 90.92 34.93 C 89.97 35.01 89.02 35.09 88.07 35.16 C 87.51 37.37 88.61 40.59 87.56 42.45 C 86.88 42.46 86.19 42.47 85.50 42.48 C 85.99 40.00 86.11 37.65 85.94 35.13 C 84.94 35.09 83.94 35.06 82.94 35.04 C 82.57 32.47 85.57 33.89 87.02 33.57 Z" fill="#787878"/>
<path d="M 93.21 34.12 L 93.98 33.85 C 95.90 36.04 96.81 39.82 98.61 42.41 C 97.64 42.40 96.67 42.39 95.70 42.38 C 95.15 40.95 95.25 38.86 93.05 39.75 C 91.28 40.36 92.71 43.00 89.90 42.05 C 90.12 39.46 92.34 36.69 93.21 34.12 Z" fill="#727272"/>
<path d="M 139.38 34.35 C 141.61 32.71 142.18 36.98 139.46 37.34 L 139.48 39.02 C 138.33 40.17 138.15 43.30 135.94 41.98 C 136.98 39.40 138.33 36.94 139.38 34.35 Z" fill="#535353"/>
<path d="M 130.12 35.22 C 132.13 34.14 132.75 36.77 130.94 37.43 C 129.76 37.11 129.48 36.37 130.12 35.22 Z" fill="#fefefe"/>
<path d="M 93.14 37.12 L 93.96 37.13 L 93.95 37.94 L 93.14 37.94 L 93.14 37.12 Z" fill="#ffffff"/>
<path d="M 140.95 36.60 L 141.92 36.59 C 142.62 38.64 143.98 40.41 144.61 42.46 C 143.92 42.43 143.22 42.41 142.52 42.37 C 141.41 40.01 139.54 39.44 140.95 36.60 Z" fill="#6c6c6c"/>
<path d="M 164.83 45.51 L 164.67 46.83 C 162.10 52.04 157.79 56.25 152.32 58.33 C 149.48 61.14 146.76 61.58 142.88 61.48 C 141.60 62.72 140.58 64.06 138.98 64.93 C 135.98 66.25 133.25 65.75 130.19 65.14 C 127.89 67.13 126.87 66.78 123.96 66.52 C 123.50 67.15 123.00 67.72 122.44 68.24 C 120.96 68.51 119.19 67.81 117.92 68.63 C 116.66 69.58 115.40 69.30 113.97 69.65 C 113.50 70.25 113.24 70.98 113.20 71.84 C 116.99 73.40 121.01 74.31 124.61 76.41 C 127.65 77.95 130.26 80.08 133.12 81.89 C 141.69 84.79 149.74 88.84 157.45 93.56 C 158.82 94.47 160.11 95.38 160.89 96.87 C 157.21 96.93 153.64 96.22 149.95 97.01 C 152.27 101.19 154.08 105.02 155.51 109.61 C 153.00 108.79 151.33 105.87 148.78 104.94 C 147.81 106.49 149.64 107.26 149.46 108.99 C 150.60 115.00 150.96 120.98 149.56 127.00 C 147.09 142.80 135.25 156.60 120.52 162.59 C 103.55 169.79 83.12 166.89 68.95 155.06 C 64.12 151.11 59.38 145.71 57.01 139.93 C 58.72 139.88 58.21 142.28 59.90 141.91 C 58.23 138.32 56.13 134.80 55.28 130.77 C 53.95 128.64 54.83 126.39 54.04 123.97 C 53.01 116.19 54.36 110.44 55.91 103.07 C 55.19 103.68 54.57 104.40 54.02 105.22 C 51.34 105.21 49.13 108.18 47.13 109.73 C 47.31 104.88 50.48 100.67 52.05 97.02 C 48.36 96.14 44.78 97.02 41.12 96.82 C 42.04 95.52 43.23 94.44 44.58 93.60 C 52.28 88.90 60.33 84.79 68.90 81.93 C 73.40 78.87 77.67 75.79 82.88 73.99 C 84.34 73.22 86.47 73.27 87.61 72.08 C 86.44 71.04 86.00 69.80 86.28 68.37 C 84.86 68.43 83.55 68.92 82.12 68.98 C 81.46 68.50 80.81 68.01 80.17 67.50 C 78.88 68.23 77.44 68.63 75.87 68.68 C 75.14 68.21 74.74 67.37 74.68 66.18 C 72.88 65.80 70.81 66.97 68.87 66.77 C 68.22 66.20 67.56 65.66 66.89 65.13 C 64.24 65.12 61.64 65.45 58.98 65.17 C 57.18 64.30 56.10 62.62 54.13 61.96 C 51.12 60.28 48.19 61.85 46.60 58.31 C 42.89 56.96 40.09 54.43 37.32 51.67 C 36.23 50.24 34.76 49.33 35.32 47.32 C 38.38 46.80 41.78 49.90 44.99 49.35 C 54.52 49.84 63.52 48.85 72.97 47.77 C 77.18 47.73 82.58 46.81 85.72 50.33 C 87.38 52.58 88.74 58.22 91.88 58.82 C 92.71 56.13 89.25 53.12 87.57 51.36 C 86.72 50.31 88.06 49.25 89.08 49.37 C 90.68 49.39 92.30 49.01 93.88 49.23 C 95.88 50.63 97.85 52.26 99.63 53.93 C 99.60 54.69 99.61 55.45 99.66 56.21 C 101.68 58.09 104.85 60.70 107.57 58.53 C 110.29 56.71 108.81 54.05 110.79 51.82 C 113.49 48.46 117.86 47.30 122.00 47.24 C 128.48 47.47 134.59 48.53 141.00 48.47 C 148.78 48.56 157.53 48.48 164.83 45.51 Z" fill="#030202"/>
<path d="M 161.81 48.24 C 160.56 50.49 156.22 50.20 154.00 50.19 L 153.88 49.16 C 156.60 49.24 159.17 47.96 161.81 48.24 Z" fill="#835904"/>
<path d="M 40.09 49.09 L 40.87 49.03 L 40.91 49.81 L 40.13 49.87 L 40.09 49.09 Z" fill="#ba7800"/>
<path d="M 68.02 49.24 C 71.38 48.20 74.53 48.67 78.01 48.65 C 81.15 48.62 84.51 50.33 86.16 53.05 C 86.87 54.40 87.04 56.06 87.56 57.50 C 88.26 58.66 89.83 59.32 90.94 60.06 C 92.62 61.64 93.60 61.60 93.80 59.07 C 92.92 55.86 91.03 53.15 88.59 50.92 L 88.79 49.94 C 89.89 50.17 90.99 50.45 92.07 50.78 C 92.54 51.43 93.02 52.06 93.51 52.68 L 93.76 50.92 C 95.11 50.96 96.08 52.32 97.10 53.10 C 97.21 56.38 98.80 57.36 100.38 59.92 C 100.11 61.89 100.91 63.60 100.65 65.58 C 99.80 65.72 98.95 65.89 98.12 66.09 C 98.36 66.65 98.90 67.06 99.74 67.33 C 99.54 68.15 99.34 68.97 99.14 69.79 C 99.90 70.47 100.51 71.23 100.99 72.05 C 99.56 71.82 98.18 71.31 96.79 70.96 C 96.64 70.19 96.48 69.43 96.31 68.68 C 93.29 66.98 93.76 65.77 93.58 62.73 C 92.43 60.53 91.34 63.25 89.88 62.21 C 87.04 60.57 86.33 56.35 83.93 54.06 C 83.01 53.28 81.36 51.47 80.10 51.92 C 80.27 52.48 80.41 53.04 80.52 53.60 C 79.40 53.54 78.29 53.58 77.17 53.71 L 77.14 52.58 C 78.70 53.10 79.64 52.89 79.98 51.95 L 79.18 51.05 C 72.74 49.71 66.47 50.23 60.00 50.74 C 54.36 50.61 48.74 50.63 43.10 50.70 L 43.53 50.23 C 48.97 49.89 54.54 50.55 60.00 50.17 C 62.65 49.55 65.33 49.55 68.02 49.24 Z" fill="#ffae09"/>
<path d="M 119.99 48.92 C 125.30 49.19 130.76 48.33 135.98 49.19 L 136.16 50.25 C 133.37 50.99 129.95 49.83 127.00 49.98 C 122.19 49.78 116.39 49.96 113.45 54.44 C 111.51 57.53 110.79 62.06 106.17 61.80 C 105.98 59.24 110.19 59.80 110.73 56.81 C 110.96 51.50 114.91 48.71 119.99 48.92 Z" fill="#d19007"/>
<path d="M 137.69 49.70 C 141.33 49.10 145.26 50.15 148.99 49.77 C 150.02 49.97 153.54 48.78 152.98 50.77 C 147.91 51.28 142.87 51.18 137.80 50.84 L 137.69 49.70 Z" fill="#d79207"/>
<path d="M 72.02 50.71 C 73.61 50.73 75.11 51.02 75.01 52.95 C 73.38 53.41 72.31 52.58 70.84 52.13 C 70.00 53.20 71.70 54.81 71.99 55.98 C 72.78 56.17 73.36 55.66 73.70 54.46 C 75.32 54.16 76.23 57.36 76.71 58.54 C 73.23 57.87 69.54 57.98 66.00 58.06 C 61.45 59.62 56.80 60.52 51.97 60.10 C 50.83 60.17 49.04 59.39 49.08 58.06 C 56.47 58.03 63.67 57.11 71.04 56.77 C 71.35 55.43 69.07 54.53 68.05 54.76 C 60.72 55.56 55.29 57.88 48.04 56.97 C 47.20 56.54 45.15 56.20 45.15 55.06 C 50.19 54.34 55.20 55.31 60.24 54.43 C 63.42 53.88 66.78 54.53 69.89 53.95 L 69.92 53.21 C 68.35 53.16 67.18 52.75 66.40 51.98 C 67.16 49.98 70.33 50.80 72.02 50.71 Z" fill="#ae7806"/>
<path d="M 126.20 51.21 C 127.29 51.17 131.45 51.48 131.03 53.07 C 129.52 52.77 125.16 54.02 126.20 51.21 Z" fill="#956605"/>
<path d="M 40.90 51.79 C 48.04 52.06 55.62 51.44 62.87 52.01 L 62.84 52.73 C 59.46 52.81 56.37 54.14 53.00 54.16 C 48.82 54.16 44.99 54.70 41.09 52.81 L 40.90 51.79 Z" fill="#d38f08"/>
<path d="M 120.25 52.15 C 121.43 51.47 122.02 51.71 122.02 52.85 C 121.13 54.16 119.36 53.97 120.25 52.15 Z" fill="#684704"/>
<path d="M 134.13 52.13 C 135.18 51.25 137.25 52.55 136.59 53.81 C 135.39 54.63 133.22 53.75 134.13 52.13 Z" fill="#664503"/>
<path d="M 142.13 52.41 C 143.34 51.80 145.21 54.07 143.07 54.25 C 142.01 53.86 141.70 53.25 142.13 52.41 Z" fill="#7a5305"/>
<path d="M 145.14 52.28 C 149.43 52.34 153.76 51.77 158.02 51.89 C 158.34 53.32 156.08 53.90 155.02 53.98 C 152.10 54.03 148.92 54.62 146.05 54.01 C 145.04 53.78 144.74 53.20 145.14 52.28 Z" fill="#d59308"/>
<path d="M 118.07 53.32 L 118.83 53.31 L 119.30 54.06 L 119.02 54.91 C 117.86 55.10 117.55 54.57 118.07 53.32 Z" fill="#926305"/>
<path d="M 127.41 54.48 C 128.61 54.87 129.68 55.25 130.99 55.08 C 135.71 54.66 140.26 55.95 145.00 55.76 C 147.68 55.95 150.57 55.17 153.16 55.75 C 153.42 58.47 147.06 56.39 146.65 59.75 C 143.87 60.68 140.94 60.61 138.11 59.87 C 137.88 59.10 138.00 58.26 138.48 57.33 C 134.80 57.74 131.48 55.36 128.14 55.84 C 128.99 57.04 129.24 58.05 128.89 58.89 C 127.67 58.72 126.49 58.12 125.42 57.54 C 125.36 56.38 126.81 55.40 127.41 54.48 Z" fill="#926305"/>
<path d="M 77.22 55.03 C 78.68 53.81 80.00 56.64 78.20 56.81 C 77.23 56.42 76.90 55.83 77.22 55.03 Z" fill="#8c5f05"/>
<path d="M 83.11 56.98 C 83.38 59.03 85.19 59.38 85.94 61.01 C 83.11 61.70 82.00 57.82 80.92 55.95 C 80.68 53.59 83.12 56.02 83.11 56.98 Z" fill="#7e5605"/>
<path d="M 115.34 55.30 C 117.54 54.59 117.38 57.41 119.02 58.19 C 119.74 58.04 120.15 57.32 120.25 56.04 C 122.69 55.62 121.78 57.51 121.14 58.79 C 122.86 58.99 124.39 59.35 125.98 60.05 C 125.09 61.15 124.66 62.12 123.96 63.16 C 122.75 63.03 122.57 61.09 121.95 60.22 C 121.06 60.04 120.14 59.97 119.21 60.00 C 119.44 60.62 119.64 61.25 119.83 61.89 C 119.13 62.83 118.56 64.28 117.13 63.85 C 117.31 62.64 117.85 61.47 117.86 60.24 C 116.98 59.40 115.99 58.68 115.13 57.81 C 115.03 56.99 115.10 56.15 115.34 55.30 Z" fill="#906305"/>
<path d="M 79.10 58.09 C 80.95 56.89 82.14 59.61 80.01 60.06 C 78.92 59.76 78.62 59.10 79.10 58.09 Z" fill="#674604"/>
<path d="M 132.26 57.98 C 133.21 57.82 134.16 57.84 135.11 58.05 C 135.36 58.85 135.50 59.67 135.52 60.53 C 136.74 60.69 137.95 60.87 139.16 61.05 C 138.51 62.82 138.03 64.47 135.94 64.86 C 133.34 64.61 130.70 63.46 128.09 63.73 C 126.99 63.55 126.57 62.98 126.82 62.02 C 128.14 61.93 129.46 61.84 130.79 61.75 C 130.23 61.25 129.69 60.76 129.14 60.25 C 130.40 60.22 131.65 60.15 132.90 60.06 C 132.69 59.37 132.47 58.67 132.26 57.98 Z" fill="#9f6c06"/>
<path d="M 68.94 58.98 C 70.55 59.78 72.57 60.60 71.87 62.79 C 68.51 63.34 64.77 63.85 61.37 63.93 C 61.46 63.33 61.55 62.72 61.65 62.12 C 60.92 61.93 60.18 61.75 59.45 61.56 C 59.51 61.05 59.71 60.55 60.04 60.07 C 62.99 59.48 65.99 59.65 68.94 58.98 Z" fill="#b87d06"/>
<path d="M 76.47 60.09 C 77.90 60.00 79.43 61.06 78.63 62.59 C 76.57 63.95 73.45 65.99 70.93 65.11 L 70.98 64.06 C 72.84 63.40 74.74 63.01 76.65 62.57 C 76.62 61.74 76.56 60.92 76.47 60.09 Z" fill="#9f6d05"/>
<path d="M 63.14 61.25 C 64.92 60.92 68.00 60.68 69.72 61.24 C 69.90 61.82 69.35 62.08 68.08 62.04 C 67.17 61.94 62.94 62.74 63.14 61.25 Z" fill="#1f1501"/>
<path d="M 82.24 61.42 C 83.29 61.03 86.98 62.13 85.83 63.80 C 85.02 64.70 81.34 62.62 82.24 61.42 Z" fill="#b17906"/>
<path d="M 113.97 62.05 C 115.02 61.68 115.72 62.00 116.05 63.01 C 116.04 64.79 113.19 63.15 113.97 62.05 Z" fill="#a36e06"/>
<path d="M 121.00 63.09 C 123.01 63.70 126.27 63.47 127.66 64.98 C 127.16 67.38 123.52 65.00 122.03 64.91 C 120.77 65.15 118.87 62.90 121.00 63.09 Z" fill="#da9506"/>
<path d="M 82.01 64.07 C 82.90 66.09 75.54 68.39 77.09 65.14 C 78.71 64.27 80.10 63.58 82.01 64.07 Z" fill="#a97605"/>
<path d="M 112.27 64.31 C 114.80 64.54 117.35 64.90 119.85 65.28 L 120.12 66.34 C 118.55 67.94 115.42 65.27 113.17 66.18 C 114.46 66.70 115.14 67.36 115.20 68.16 C 114.22 68.22 113.23 68.27 112.25 68.32 C 110.81 69.62 109.41 70.83 107.35 70.89 C 108.69 67.96 111.54 67.51 112.27 64.31 Z" fill="#a67106"/>
<path d="M 108.28 65.23 L 109.07 64.75 L 109.93 65.04 L 109.94 65.92 L 109.06 66.39 L 108.25 66.06 L 108.28 65.23 Z" fill="#d59308"/>
<path d="M 91.75 66.86 C 91.47 67.76 88.94 70.13 88.03 69.80 C 87.08 68.77 91.38 64.43 91.75 66.86 Z" fill="#c88b07"/>
<path d="M 92.44 68.44 C 93.80 67.19 95.31 69.67 94.84 70.89 C 92.98 71.65 90.56 71.78 88.56 72.15 C 88.68 70.54 91.33 69.56 92.44 68.44 Z" fill="#d2d2d3"/>
<path d="M 99.94 73.88 C 99.00 76.84 97.97 78.00 99.22 81.15 C 97.04 82.05 95.89 82.18 93.61 81.49 C 92.72 80.23 92.12 79.09 91.73 77.57 C 92.19 76.99 92.66 76.42 93.13 75.84 C 93.85 77.29 94.71 78.24 94.35 79.95 C 95.64 79.95 96.29 79.30 96.37 78.04 C 95.96 76.16 94.36 74.79 96.03 73.06 C 97.47 71.28 99.15 71.90 99.94 73.88 Z" fill="#cb8e07"/>
<path d="M 89.00 72.92 C 90.50 72.76 92.97 71.69 94.19 72.74 C 93.95 73.84 93.60 74.87 93.13 75.84 C 92.66 76.42 92.19 76.99 91.73 77.57 C 87.10 79.09 83.13 80.69 78.18 79.15 C 76.84 79.73 75.62 80.39 74.23 80.75 C 75.44 79.37 77.11 78.67 78.23 77.15 C 81.51 75.21 85.40 74.13 89.00 72.92 Z" fill="#ffffff"/>
<path d="M 101.33 72.32 C 104.15 71.54 105.85 73.81 108.41 74.66 C 108.38 75.34 108.35 76.02 108.33 76.70 C 108.91 77.73 110.16 78.76 110.01 80.00 C 109.05 79.77 108.13 79.45 107.26 79.05 C 107.18 77.71 107.04 76.38 106.85 75.06 C 105.23 74.52 105.28 77.97 104.82 78.93 C 105.84 79.64 106.58 80.34 107.05 81.03 C 106.43 81.51 105.75 81.92 105.02 82.25 C 104.05 81.87 103.07 81.52 102.08 81.19 C 102.27 79.96 102.48 78.76 102.44 77.51 C 101.90 75.68 100.77 74.34 101.33 72.32 Z" fill="#ffb209"/>
<path d="M 110.32 73.32 C 112.00 72.51 114.30 73.39 116.02 73.82 C 119.21 75.05 122.51 76.05 125.34 78.02 L 125.57 79.40 C 120.18 80.39 115.45 79.39 110.40 77.61 C 109.78 76.20 109.29 74.68 110.32 73.32 Z" fill="#ffffff"/>
<path d="M 100.05 79.02 L 100.94 78.94 L 101.01 79.86 L 100.12 79.91 L 100.05 79.02 Z" fill="#ffb009"/>
<path d="M 112.00 79.03 L 112.90 78.99 L 112.95 79.89 L 112.05 79.94 L 112.00 79.03 Z" fill="#c0c0bf"/>
<path d="M 88.57 81.49 C 92.65 82.54 96.74 82.88 100.93 83.18 C 100.96 84.33 101.01 85.48 101.09 86.63 C 100.24 87.73 99.44 88.65 98.27 89.42 C 99.20 90.05 100.19 90.61 101.13 91.23 C 101.09 92.09 101.05 92.95 101.01 93.81 C 95.66 93.78 90.36 92.18 85.00 91.97 C 75.47 91.13 65.45 95.64 57.43 100.42 C 54.91 101.75 52.73 103.95 50.07 104.91 C 50.20 101.83 53.82 98.92 53.78 96.23 C 51.31 94.95 48.79 95.30 46.03 94.93 C 46.36 93.67 48.48 93.17 49.47 92.43 C 61.31 85.85 74.62 79.25 88.57 81.49 Z" fill="#00774a"/>
<path d="M 112.99 81.61 C 119.39 81.12 126.70 80.90 132.74 83.28 C 140.79 86.00 148.53 89.80 155.77 94.24 L 156.04 95.01 C 153.27 95.34 150.80 95.02 148.19 96.21 C 148.44 99.11 151.99 101.83 152.00 104.96 C 151.30 104.75 150.64 104.42 150.02 103.97 C 142.58 98.75 133.88 94.06 124.88 92.34 C 116.43 90.91 109.27 93.48 101.01 93.81 C 101.05 92.95 101.09 92.09 101.13 91.23 L 102.92 90.81 C 102.27 90.21 101.62 89.61 100.97 89.01 C 101.24 88.37 101.88 87.91 102.87 87.63 C 102.56 87.12 101.97 86.79 101.09 86.63 C 101.01 85.48 100.96 84.33 100.93 83.18 C 105.02 82.91 108.96 82.34 112.99 81.61 Z" fill="#b9232e"/>
<path d="M 79.18 85.29 C 80.20 85.77 80.82 87.07 81.65 87.84 C 81.84 87.01 82.03 86.17 82.23 85.34 C 83.86 85.50 85.15 86.22 86.68 86.73 L 87.53 85.50 C 88.84 85.31 88.96 87.67 90.12 88.18 C 91.80 88.43 91.80 86.38 93.15 86.27 C 94.65 86.41 96.36 86.80 97.63 87.64 C 97.42 88.66 97.16 89.67 96.85 90.68 C 94.83 90.42 92.89 89.68 90.89 89.36 C 88.29 89.22 86.06 89.95 83.61 88.76 C 80.29 89.52 76.44 90.02 73.06 89.79 C 70.71 91.57 68.00 91.04 65.55 92.51 C 62.93 93.66 60.03 95.29 57.23 95.76 C 56.69 94.90 56.24 94.01 55.89 93.09 C 57.23 91.34 60.60 90.21 62.68 89.26 C 63.28 90.43 62.67 92.23 64.47 91.87 C 64.20 90.93 64.08 89.99 64.11 89.07 C 66.52 88.57 67.81 88.21 69.92 86.91 C 70.45 87.44 70.98 87.98 71.50 88.54 C 73.87 89.14 73.72 85.33 75.93 85.80 C 76.45 86.36 76.89 87.00 77.26 87.70 C 78.12 87.69 78.59 85.89 79.18 85.29 Z" fill="#002c1b"/>
<path d="M 116.02 85.61 C 117.29 85.36 118.28 85.05 119.59 85.42 C 121.07 85.83 122.34 84.69 123.72 85.27 C 124.32 86.33 124.42 87.56 124.02 88.96 C 122.00 89.14 120.01 89.36 118.01 89.71 C 116.96 89.31 116.06 88.56 115.07 88.03 C 114.35 88.65 113.62 89.25 112.87 89.82 C 110.30 89.42 109.12 89.67 106.71 90.71 C 104.69 91.84 102.66 88.81 104.08 87.18 C 105.41 85.66 106.64 86.77 108.30 86.33 C 111.01 85.95 113.28 84.88 116.02 85.61 Z" fill="#581115"/>
<path d="M 118.22 86.18 C 120.05 86.31 118.90 89.07 117.34 87.90 C 117.03 87.18 117.32 86.61 118.22 86.18 Z" fill="#ad212b"/>
<path d="M 127.68 86.22 C 128.14 88.04 128.64 88.54 130.50 88.62 C 130.90 87.85 131.42 87.26 132.06 86.85 C 134.32 86.93 133.57 88.21 134.08 89.82 C 134.98 89.26 135.84 88.51 136.82 88.13 C 137.01 89.07 137.18 90.02 137.34 90.97 C 138.04 90.59 138.81 89.55 139.59 89.51 C 141.10 90.89 142.63 91.62 144.72 91.30 C 147.27 92.56 145.80 96.60 143.24 95.72 C 140.00 93.11 135.51 91.90 131.46 91.38 C 130.48 90.75 129.62 89.95 128.67 89.27 C 127.39 89.48 126.25 90.35 125.03 89.90 C 124.20 87.81 124.58 84.28 127.68 86.22 Z" fill="#490e12"/>
<path d="M 101.09 86.63 C 101.97 86.79 102.56 87.12 102.87 87.63 C 101.88 87.91 101.24 88.37 100.97 89.01 C 101.62 89.61 102.27 90.21 102.92 90.81 L 101.13 91.23 C 100.19 90.61 99.20 90.05 98.27 89.42 C 99.44 88.65 100.24 87.73 101.09 86.63 Z" fill="#1b1b14"/>
<path d="M 105.17 88.20 C 106.31 87.59 106.84 87.84 106.75 88.93 L 105.99 89.36 L 105.19 89.01 L 105.17 88.20 Z" fill="#b9242e"/>
<path d="M 81.84 93.10 C 83.03 94.15 83.51 95.24 83.29 96.37 C 81.10 96.73 78.81 95.18 76.57 95.00 L 76.31 93.89 C 78.12 93.48 79.99 93.25 81.84 93.10 Z" fill="#c6c3c6"/>
<path d="M 118.92 93.24 L 119.64 93.83 C 118.84 94.88 118.29 96.65 117.02 97.19 C 114.80 97.50 112.70 97.90 110.54 98.51 C 110.17 97.26 110.42 95.84 111.29 94.25 C 113.71 93.51 116.42 93.59 118.92 93.24 Z" fill="#ffffff"/>
<path d="M 122.99 93.36 C 123.86 93.70 126.42 93.26 125.88 94.82 C 123.91 95.19 121.83 96.38 119.84 96.21 C 119.24 94.62 121.24 92.49 122.99 93.36 Z" fill="#b5babc"/>
<path d="M 143.14 93.15 L 143.94 92.75 L 144.72 93.09 L 144.73 93.85 C 143.57 94.53 143.04 94.29 143.14 93.15 Z" fill="#bf252f"/>
<path d="M 83.54 93.63 C 85.55 93.12 88.67 93.72 90.71 94.26 C 91.60 95.84 91.84 97.25 91.43 98.48 C 89.34 97.82 87.13 97.66 85.08 97.01 C 84.47 95.92 83.96 94.79 83.54 93.63 Z" fill="#ffffff"/>
<path d="M 74.86 95.08 C 83.61 98.17 92.74 99.99 102.01 100.28 C 105.65 99.79 109.41 99.69 112.97 98.78 C 118.47 98.22 123.76 95.97 129.00 94.68 C 132.87 95.24 131.04 99.41 130.85 101.99 C 128.88 125.34 119.42 149.37 101.01 164.61 C 98.52 162.59 96.24 160.30 94.02 157.99 C 79.00 141.14 71.42 118.47 71.08 96.08 C 71.03 94.58 73.88 94.51 74.86 95.08 Z" fill="#f2ad07"/>
<path d="M 92.32 94.33 C 93.91 94.49 95.49 94.71 97.06 94.99 C 97.55 96.48 97.61 97.86 97.24 99.12 C 95.85 98.85 94.23 98.98 92.97 98.27 C 92.51 96.95 92.29 95.64 92.32 94.33 Z" fill="#fdfdfd"/>
<path d="M 104.76 94.91 C 106.42 94.77 108.06 94.57 109.69 94.33 C 109.73 95.63 109.49 96.94 109.00 98.25 C 107.74 98.95 106.13 98.87 104.74 99.18 C 104.11 97.85 104.12 96.43 104.76 94.91 Z" fill="#fdfdfd"/>
<path d="M 69.94 96.03 C 70.29 98.44 70.53 101.71 70.30 104.11 C 68.62 103.46 66.96 102.63 65.38 101.76 C 66.08 100.06 67.81 96.04 69.94 96.03 Z" fill="#ffffff"/>
<path d="M 98.36 95.36 C 100.15 95.04 101.82 95.10 103.38 95.54 C 103.45 96.78 103.37 97.97 103.14 99.13 C 101.74 99.35 100.30 99.36 98.82 99.16 C 98.50 97.94 98.35 96.67 98.36 95.36 Z" fill="#ffffff"/>
<path d="M 73.03 96.99 L 74.03 96.98 C 81.26 99.14 88.48 101.04 96.00 101.89 C 104.92 102.56 114.06 101.06 122.62 98.58 C 124.66 98.08 126.88 96.84 128.98 97.01 C 128.78 118.95 120.68 141.47 105.71 157.70 C 104.28 159.07 102.81 161.01 101.01 161.82 C 99.60 161.10 98.47 159.75 97.33 158.66 C 81.75 142.45 73.47 119.26 73.03 96.99 Z" fill="#583c24"/>
<path d="M 132.23 95.97 C 133.42 96.13 134.29 96.87 134.83 98.21 C 135.43 99.20 136.05 100.17 136.68 101.13 C 136.40 102.32 132.66 103.88 131.54 103.62 C 131.63 102.23 131.75 100.85 131.92 99.47 C 132.03 98.30 132.13 97.14 132.23 95.97 Z" fill="#f5f6f6"/>
<path d="M 65.06 97.98 L 65.06 98.93 C 62.22 103.81 60.32 109.37 59.82 115.00 L 58.96 114.98 C 59.23 111.58 56.42 109.13 57.79 106.13 C 58.85 104.00 59.10 101.43 61.11 99.96 C 61.58 100.09 62.05 100.21 62.52 100.32 C 63.23 99.51 63.81 97.74 65.06 97.98 Z" fill="#959595"/>
<path d="M 137.13 98.19 C 138.56 97.75 139.98 101.01 140.35 102.09 C 139.53 104.71 138.29 101.03 137.76 100.23 C 137.20 99.50 136.99 98.82 137.13 98.19 Z" fill="#959595"/>
<path d="M 74.39 99.19 C 75.82 98.69 77.64 99.50 79.06 99.84 C 85.84 101.86 92.58 103.28 99.67 103.40 C 100.38 104.87 100.49 107.13 99.66 108.56 C 92.84 109.09 87.37 114.39 86.48 121.14 C 86.10 123.38 86.95 125.55 86.77 127.74 C 85.43 129.09 83.85 131.19 82.07 131.83 L 81.55 131.48 C 77.13 121.09 75.27 110.39 74.39 99.19 Z" fill="#b7232d"/>
<path d="M 127.01 98.44 L 127.85 98.99 C 127.62 101.30 128.04 104.48 126.02 106.03 C 124.47 107.43 123.01 109.61 120.90 109.97 C 121.02 108.96 121.05 107.96 121.00 106.97 C 118.52 106.06 119.69 108.89 117.94 109.44 C 116.50 108.96 115.28 107.75 116.12 106.19 C 117.17 105.58 118.88 106.04 118.59 104.41 C 117.68 103.86 116.50 103.79 115.05 104.19 C 115.38 102.10 116.91 101.10 118.83 100.58 C 121.57 99.92 124.26 99.04 127.01 98.44 Z" fill="#053676"/>
<path d="M 141.00 100.42 C 142.79 100.35 142.96 103.16 141.13 102.90 C 140.39 101.82 140.34 101.00 141.00 100.42 Z" fill="#818282"/>
<path d="M 61.17 102.20 L 61.80 102.14 L 61.83 102.78 L 61.20 102.84 L 61.17 102.20 Z" fill="#474747"/>
<path d="M 114.43 101.92 L 114.28 102.94 C 111.65 105.09 109.17 107.44 106.72 109.80 C 105.19 109.51 103.72 108.96 102.16 108.71 C 101.13 107.56 101.82 105.10 101.69 103.62 L 102.82 103.16 C 106.80 103.41 110.52 102.41 114.43 101.92 Z" fill="#ffffff"/>
<path d="M 143.95 101.59 C 145.29 103.99 146.56 107.08 146.35 109.83 C 146.74 108.62 147.35 107.96 148.16 107.86 C 148.73 108.87 148.69 109.87 148.05 110.84 C 146.73 112.74 147.39 115.79 147.29 118.00 C 147.14 120.80 147.49 123.63 147.30 126.40 L 145.83 126.41 C 145.21 121.76 146.10 116.86 145.41 112.20 C 144.54 110.63 144.14 110.14 144.64 108.28 C 144.18 109.03 143.64 109.68 142.99 110.22 C 141.58 109.04 143.38 106.75 143.69 105.25 C 142.12 105.92 142.88 109.25 141.19 109.02 C 140.83 107.34 139.85 105.63 139.97 103.91 C 140.58 104.10 141.18 104.28 141.79 104.46 C 142.49 103.47 142.43 101.29 143.95 101.59 Z" fill="#959595"/>
<path d="M 65.04 102.88 C 66.86 103.90 69.16 104.48 70.70 105.87 C 70.61 108.20 72.13 111.12 71.28 113.25 C 68.22 112.36 64.91 112.21 61.94 111.18 C 62.55 108.61 63.27 104.80 65.04 102.88 Z" fill="#ffffff"/>
<path d="M 136.92 102.79 C 138.75 104.45 139.48 108.63 140.05 111.09 C 136.89 111.49 133.59 112.62 130.44 112.54 C 130.94 110.21 130.92 107.12 131.93 105.04 C 133.61 104.33 135.28 103.59 136.92 102.79 Z" fill="#ffffff"/>
<path d="M 60.11 104.18 C 61.13 103.98 61.39 104.52 60.87 105.80 C 59.85 106.01 59.59 105.47 60.11 104.18 Z" fill="#595959"/>
<path d="M 115.05 104.19 C 116.50 103.79 117.68 103.86 118.59 104.41 C 118.88 106.04 117.17 105.58 116.12 106.19 C 115.28 107.75 116.50 108.96 117.94 109.44 C 119.69 108.89 118.52 106.06 121.00 106.97 C 121.05 107.96 121.02 108.96 120.90 109.97 L 119.98 110.95 C 115.98 112.00 112.93 109.07 114.30 105.07 L 115.05 104.19 Z" fill="#adbdd3"/>
<path d="M 114.30 105.07 C 112.93 109.07 115.98 112.00 119.98 110.95 C 119.64 112.66 117.12 115.71 115.22 115.08 L 114.65 113.45 C 112.01 114.09 109.75 113.47 107.20 114.76 C 107.75 113.43 109.93 113.46 109.98 112.11 C 109.33 111.65 108.60 111.30 107.78 111.05 C 108.94 108.80 111.69 105.46 114.30 105.07 Z" fill="#053676"/>
<path d="M 53.20 106.15 L 54.10 106.08 L 54.54 106.96 L 54.09 107.87 C 52.92 108.08 52.62 107.51 53.20 106.15 Z" fill="#4e4e4e"/>
<path d="M 59.12 107.22 C 60.12 107.01 60.37 107.55 59.87 108.86 C 58.85 109.06 58.60 108.52 59.12 107.22 Z" fill="#5e5e5e"/>
<path d="M 126.93 106.92 L 126.98 107.95 C 124.29 126.99 116.57 145.27 102.77 158.92 C 102.34 159.44 101.91 159.67 101.47 159.60 C 101.82 152.22 101.63 144.78 101.57 137.40 C 102.27 136.41 104.06 136.52 105.15 136.08 C 112.14 133.90 116.55 125.86 114.23 118.82 C 117.99 114.60 122.66 110.67 126.93 106.92 Z" fill="#ffffff"/>
<path d="M 52.14 108.87 L 53.42 108.52 L 53.73 109.86 C 53.03 116.10 53.77 122.32 53.47 128.48 L 52.12 128.28 C 51.31 122.70 50.44 117.44 51.74 111.82 C 51.89 110.84 52.02 109.85 52.14 108.87 Z" fill="#828282"/>
<path d="M 97.85 110.20 C 98.72 112.00 96.36 112.48 95.09 111.99 C 94.66 110.79 96.92 109.53 97.85 110.20 Z" fill="#d09807"/>
<path d="M 99.37 110.39 C 100.90 109.58 103.11 110.06 104.76 110.26 C 104.91 111.92 102.75 114.34 101.06 113.11 C 99.97 112.24 98.42 112.13 99.37 110.39 Z" fill="#eba406"/>
<path d="M 142.99 110.22 C 143.95 111.17 143.14 113.63 142.90 114.84 C 141.64 115.75 141.57 109.51 142.99 110.22 Z" fill="#9f9f9f"/>
<path d="M 56.67 110.62 L 57.99 110.71 C 59.04 115.91 58.67 121.04 58.08 126.26 L 56.80 126.43 C 56.22 121.31 56.47 115.79 56.67 110.62 Z" fill="#9e9e9e"/>
<path d="M 107.78 111.05 C 108.60 111.30 109.33 111.65 109.98 112.11 C 109.93 113.46 107.75 113.43 107.20 114.76 C 109.75 113.47 112.01 114.09 114.65 113.45 L 115.22 115.08 C 113.91 115.82 112.97 116.85 112.06 118.03 C 110.66 118.75 109.03 120.05 108.06 117.95 C 109.19 116.12 111.35 118.01 110.90 115.39 C 109.33 115.79 107.54 117.24 106.03 115.97 C 104.88 114.36 106.19 113.21 106.92 111.80 L 107.78 111.05 Z" fill="#9eb2cb"/>
<path d="M 55.75 112.23 C 56.17 113.43 56.09 115.49 55.79 116.74 C 54.17 117.50 54.26 111.52 55.75 112.23 Z" fill="#818181"/>
<path d="M 95.09 111.99 C 94.17 113.38 92.71 114.38 91.83 115.79 C 91.05 116.65 90.56 119.15 89.04 118.03 C 88.93 116.61 90.34 115.21 91.17 114.15 C 92.26 113.13 93.37 111.49 95.09 111.99 Z" fill="#f0ad09"/>
<path d="M 106.92 111.80 C 106.19 113.21 104.88 114.36 106.03 115.97 C 107.54 117.24 109.33 115.79 110.90 115.39 C 111.35 118.01 109.19 116.12 108.06 117.95 C 109.03 120.05 110.66 118.75 112.06 118.03 L 112.27 119.82 L 111.03 120.97 C 108.06 121.70 106.56 126.17 103.47 125.78 C 104.14 124.80 104.43 122.62 105.85 122.60 C 106.89 122.49 107.27 121.96 106.98 121.01 C 106.07 121.21 105.17 121.50 104.28 121.91 C 103.12 120.62 101.91 118.91 99.92 119.28 C 98.82 120.01 97.37 120.81 96.75 122.03 C 97.55 123.69 100.19 126.91 102.09 127.27 C 99.75 132.47 92.70 135.90 89.03 140.03 C 88.25 140.63 87.27 142.33 86.17 141.87 C 84.73 139.38 83.22 136.73 82.43 133.96 C 84.12 131.85 86.48 128.62 89.21 128.04 C 88.26 130.73 89.94 134.21 93.00 134.06 C 95.02 134.28 95.42 132.74 96.52 131.47 C 97.24 130.61 98.42 130.10 98.88 129.09 C 97.09 128.70 94.09 129.66 93.73 131.85 C 92.21 132.85 90.36 130.78 91.13 129.22 C 92.33 128.60 93.76 129.07 93.70 127.34 C 92.80 126.97 91.82 126.77 90.75 126.75 C 93.08 123.02 96.93 120.20 100.02 117.02 C 102.05 115.14 104.26 112.73 106.92 111.80 Z" fill="#053676"/>
<path d="M 143.90 111.64 L 145.04 111.64 C 145.71 116.46 145.26 121.58 145.33 126.46 L 143.87 126.38 C 143.11 121.54 142.83 116.46 143.90 111.64 Z" fill="#949494"/>
<path d="M 147.91 111.86 L 149.04 111.71 C 149.75 116.00 149.67 120.93 149.10 125.24 L 147.97 125.21 C 147.59 120.80 147.61 116.29 147.91 111.86 Z" fill="#909090"/>
<path d="M 61.67 112.66 C 64.90 112.68 68.41 113.84 71.64 114.38 C 72.67 115.92 72.69 118.38 73.19 120.18 C 69.46 120.70 65.56 120.58 61.79 120.94 C 60.55 119.09 61.58 114.94 61.67 112.66 Z" fill="#ffffff"/>
<path d="M 100.82 114.20 L 100.84 114.92 C 98.91 116.91 96.56 119.08 94.30 120.69 C 93.55 119.87 92.30 119.12 92.01 118.02 C 93.70 114.52 96.91 111.37 100.82 114.20 Z" fill="#ffad09"/>
<path d="M 140.49 112.48 C 140.68 115.06 141.23 118.05 140.57 120.56 C 136.86 120.30 133.31 119.37 129.58 119.25 C 128.77 117.88 129.93 115.67 130.15 114.13 C 133.39 113.44 137.19 112.40 140.49 112.48 Z" fill="#ffffff"/>
<path d="M 55.71 120.27 C 56.12 121.49 56.13 123.53 55.81 124.78 C 54.31 125.55 54.11 119.43 55.71 120.27 Z" fill="#808080"/>
<path d="M 90.01 119.71 C 91.38 119.70 92.88 120.57 93.27 121.92 C 91.86 123.17 90.13 125.89 88.13 125.93 C 88.33 124.04 86.71 119.05 90.01 119.71 Z" fill="#fead09"/>
<path d="M 99.92 119.28 C 101.91 118.91 103.12 120.62 104.28 121.91 C 105.17 121.50 106.07 121.21 106.98 121.01 C 107.27 121.96 106.89 122.49 105.85 122.60 C 104.43 122.62 104.14 124.80 103.47 125.78 C 102.98 126.25 102.52 126.74 102.09 127.27 C 100.19 126.91 97.55 123.69 96.75 122.03 C 97.37 120.81 98.82 120.01 99.92 119.28 Z" fill="#bac8da"/>
<path d="M 112.27 119.82 C 114.17 120.47 113.84 126.28 111.97 126.63 C 109.80 125.26 109.33 122.98 111.03 120.97 L 112.27 119.82 Z" fill="#fcb208"/>
<path d="M 58.89 121.01 L 59.82 121.00 C 59.71 126.85 62.37 131.89 64.07 137.21 C 63.44 136.96 62.82 136.71 62.21 136.47 C 62.65 137.39 63.06 138.33 63.45 139.28 L 62.04 139.95 L 60.93 139.06 C 60.30 136.41 59.06 134.08 58.07 131.56 C 57.32 130.14 57.01 128.54 57.83 127.07 C 58.98 125.39 58.57 123.02 58.89 121.01 Z" fill="#929292"/>
<path d="M 101.85 124.92 C 100.95 124.98 99.09 122.90 98.98 122.04 C 100.27 119.06 104.74 123.36 101.85 124.92 Z" fill="#18417d"/>
<path d="M 128.66 120.55 C 132.26 119.98 136.70 121.52 140.48 121.56 C 141.04 124.06 139.73 127.54 138.99 130.06 C 135.27 128.77 131.65 127.19 127.91 125.95 L 127.35 125.11 C 127.61 124.22 127.90 123.33 128.21 122.45 L 128.66 120.55 Z" fill="#ffffff"/>
<path d="M 61.79 121.84 C 65.58 121.71 69.37 121.78 73.15 121.37 C 74.50 122.24 74.37 124.75 74.91 126.17 C 71.40 128.00 67.44 128.98 63.86 130.74 L 62.98 130.26 C 62.62 127.74 60.91 124.23 61.79 121.84 Z" fill="#ffffff"/>
<path d="M 142.32 122.16 L 142.86 122.17 C 143.02 123.47 143.85 125.85 143.06 126.91 C 141.34 127.33 142.02 123.00 142.32 122.16 Z" fill="#a0a0a0"/>
<path d="M 108.05 124.29 L 109.04 124.78 C 110.55 128.28 105.45 132.43 102.09 130.87 L 101.98 130.01 C 103.57 127.83 106.06 126.13 108.05 124.29 Z" fill="#ffad09"/>
<path d="M 90.75 126.75 C 91.82 126.77 92.80 126.97 93.70 127.34 C 93.76 129.07 92.33 128.60 91.13 129.22 C 90.36 130.78 92.21 132.85 93.73 131.85 C 94.09 129.66 97.09 128.70 98.88 129.09 C 98.42 130.10 97.24 130.61 96.52 131.47 C 95.42 132.74 95.02 134.28 93.00 134.06 C 89.94 134.21 88.26 130.73 89.21 128.04 C 89.74 127.62 90.25 127.19 90.75 126.75 Z" fill="#9bafc9"/>
<path d="M 126.91 126.84 C 130.76 127.93 134.46 129.68 138.25 130.97 C 138.67 133.22 135.96 136.50 135.03 138.64 L 134.05 138.73 C 131.17 136.38 128.01 134.40 125.08 132.12 C 125.48 130.32 126.23 128.56 126.91 126.84 Z" fill="#ffffff"/>
<path d="M 146.14 126.50 C 147.03 128.23 146.50 129.65 145.74 131.26 C 144.32 135.94 142.10 141.06 138.49 144.48 L 140.23 144.66 C 140.18 145.57 139.71 146.38 138.84 147.10 C 138.31 146.98 137.79 146.84 137.28 146.69 C 135.07 148.89 132.88 151.11 130.66 153.29 C 130.79 153.80 130.92 154.30 131.03 154.81 C 128.26 156.74 124.88 159.58 121.54 160.13 C 121.35 158.37 124.14 156.62 125.71 156.35 C 124.19 156.87 123.10 157.17 121.65 156.13 C 121.90 155.45 122.19 154.79 122.52 154.13 C 121.80 154.52 121.08 154.91 120.37 155.29 C 121.10 156.14 122.76 156.68 122.49 157.93 C 121.17 159.73 119.92 160.17 118.71 159.24 C 118.92 158.55 119.14 157.86 119.37 157.18 C 118.45 155.94 116.65 156.90 115.72 157.52 C 116.72 157.97 117.68 158.42 118.60 158.88 L 118.38 160.13 C 116.21 161.47 114.01 158.02 111.72 158.45 C 112.94 159.44 115.89 159.01 115.55 161.28 C 114.65 161.44 113.75 161.62 112.86 161.81 C 112.38 163.85 111.81 163.93 109.87 164.09 C 107.26 164.20 104.91 166.72 102.38 165.40 C 103.13 162.55 107.50 160.58 109.20 158.20 C 110.07 156.64 111.93 157.20 113.52 156.50 C 123.55 153.38 131.62 146.87 137.17 137.99 C 138.15 138.07 139.54 138.44 140.47 138.17 C 140.81 137.53 141.12 136.88 141.42 136.23 C 140.64 135.17 139.92 136.02 138.87 136.15 C 137.66 134.76 140.11 132.76 140.19 131.14 C 140.95 129.94 140.50 127.44 142.26 127.59 C 143.76 131.28 139.79 131.58 142.58 134.76 C 142.38 133.06 140.72 131.51 143.44 131.22 C 143.13 130.04 142.40 129.15 142.91 127.91 C 143.43 128.04 143.96 128.18 144.47 128.35 C 144.45 126.97 145.00 126.36 146.14 126.50 Z" fill="#838383"/>
<path d="M 59.12 128.15 C 60.11 127.93 60.37 128.48 59.87 129.79 C 58.86 129.99 58.60 129.44 59.12 128.15 Z" fill="#5e5e5e"/>
<path d="M 75.09 127.38 C 76.03 128.90 77.08 131.27 77.30 133.03 C 74.28 135.31 70.96 137.18 68.00 139.55 C 66.11 137.62 64.59 134.46 63.86 131.86 C 67.55 130.25 71.41 129.00 75.09 127.38 Z" fill="#ffffff"/>
<path d="M 111.94 128.08 L 111.98 128.95 C 110.27 131.96 105.80 135.89 102.14 134.92 C 101.42 132.14 105.22 132.96 106.76 131.83 C 108.56 131.25 110.12 126.91 111.94 128.08 Z" fill="#eeab08"/>
<path d="M 60.12 131.21 C 61.13 131.02 61.38 131.56 60.88 132.83 C 59.84 133.02 59.59 132.48 60.12 131.21 Z" fill="#5a5a5a"/>
<path d="M 101.00 131.75 C 101.21 133.15 101.07 134.45 100.60 135.63 C 99.38 135.82 98.39 135.59 97.63 134.96 C 97.24 133.89 99.93 131.35 101.00 131.75 Z" fill="#d99c08"/>
<path d="M 61.18 134.26 L 61.79 134.20 L 61.82 134.82 L 61.21 134.88 L 61.18 134.26 Z" fill="#494949"/>
<path d="M 124.93 133.30 C 127.83 135.69 131.04 137.69 134.02 139.97 C 132.41 142.18 130.45 145.04 128.04 146.38 C 126.10 143.90 123.74 141.67 121.97 139.08 C 122.44 137.88 122.95 136.69 123.49 135.52 C 123.72 134.45 124.20 133.71 124.93 133.30 Z" fill="#ffffff"/>
<path d="M 77.12 134.39 L 78.14 134.47 C 78.87 136.41 79.87 138.30 80.80 140.14 C 78.86 142.40 76.46 145.18 74.10 146.91 C 72.14 144.99 70.32 143.03 68.60 140.89 C 70.27 138.43 74.79 136.65 77.12 134.39 Z" fill="#ffffff"/>
<path d="M 99.84 137.22 C 100.45 139.00 100.11 141.13 100.19 143.00 C 100.04 148.29 100.44 153.63 99.99 158.89 C 98.50 158.43 97.37 156.75 96.31 155.67 C 93.14 151.79 89.75 147.78 87.45 143.32 C 89.43 141.06 91.70 138.96 94.00 137.02 C 95.65 135.35 97.96 136.77 99.84 137.22 Z" fill="#b7232d"/>
<path d="M 63.95 138.09 L 64.85 137.99 L 64.95 138.89 L 64.05 138.99 L 63.95 138.09 Z" fill="#bdbdbd"/>
<path d="M 62.82 140.24 C 63.94 140.50 65.03 140.55 66.11 140.40 C 72.46 149.37 81.53 155.32 92.23 157.77 C 92.33 158.72 92.62 159.32 93.10 159.55 C 95.90 160.32 96.83 162.79 99.31 164.18 L 99.76 165.48 C 88.58 165.38 77.87 161.10 69.21 154.07 C 71.09 150.98 66.03 150.58 66.33 147.50 C 65.27 146.22 65.55 145.35 65.43 143.85 C 64.53 142.71 63.47 141.53 62.82 140.24 Z" fill="#ffffff"/>
<path d="M 121.05 140.68 L 121.91 140.82 C 123.49 142.93 125.58 144.82 127.00 147.01 L 126.91 147.74 C 124.98 149.23 122.96 150.57 120.89 151.87 C 119.36 150.76 118.69 148.49 117.56 146.96 C 118.70 144.85 119.97 142.83 121.05 140.68 Z" fill="#ffffff"/>
<path d="M 80.99 141.77 L 81.80 142.09 C 82.59 144.05 84.54 145.98 84.75 148.01 C 83.82 149.20 83.31 151.37 81.99 152.10 C 79.63 151.13 77.49 149.43 75.44 147.94 C 76.66 145.68 79.28 143.78 80.99 141.77 Z" fill="#ffffff"/>
<path d="M 59.55 142.68 L 60.97 142.26 C 63.44 145.50 66.12 149.05 68.41 152.33 L 67.14 152.73 C 64.36 149.96 60.96 146.34 59.55 142.68 Z" fill="#959595"/>
<path d="M 67.02 143.98 L 67.75 143.76 C 68.45 144.67 71.40 146.69 70.34 147.86 C 69.36 147.94 66.57 144.90 67.02 143.98 Z" fill="#717171"/>
<path d="M 70.59 147.72 L 71.77 147.86 C 77.15 152.80 84.15 156.41 91.27 157.98 L 91.55 159.30 L 90.07 159.36 C 83.01 157.60 76.10 153.91 70.79 148.91 L 70.59 147.72 Z" fill="#6d6d6d"/>
<path d="M 85.94 149.01 C 87.28 151.07 89.09 152.98 90.17 155.16 C 88.06 155.42 85.55 153.76 83.56 153.03 C 83.08 152.36 85.06 148.83 85.94 149.01 Z" fill="#e6e7ea"/>
<path d="M 117.04 148.15 C 117.88 149.40 118.58 150.72 119.42 151.97 L 119.09 152.83 C 116.86 153.59 114.34 155.24 111.99 155.20 C 112.46 153.37 114.33 152.01 115.22 150.30 C 115.66 149.37 116.27 148.65 117.04 148.15 Z" fill="#ececee"/>
<path d="M 125.22 152.21 L 125.79 152.22 L 125.78 152.79 L 125.21 152.78 L 125.22 152.21 Z" fill="#3e3e3e"/>
<path d="M 124.32 154.17 L 125.05 153.75 L 125.85 154.08 L 125.87 154.87 C 124.76 155.49 124.24 155.26 124.32 154.17 Z" fill="#797979"/>
<path d="M 127.30 154.21 C 129.18 153.08 129.43 155.30 127.79 155.91 C 126.84 155.84 126.68 155.27 127.30 154.21 Z" fill="#707070"/>
<path d="M 118.90 160.85 C 118.86 162.03 117.95 162.36 116.16 161.85 C 116.08 160.60 117.00 160.26 118.90 160.85 Z" fill="#a5a5a5"/>
<path d="M 86.90 169.09 C 87.19 170.72 87.15 172.37 87.33 174.01 L 88.83 173.46 C 89.78 169.13 94.01 170.23 95.78 173.31 C 96.81 172.54 97.88 171.90 99.01 171.39 C 101.31 171.75 102.12 174.33 104.11 171.73 C 105.68 172.47 105.41 176.50 105.26 178.04 C 103.26 178.68 104.21 175.14 103.79 174.00 L 102.91 174.06 C 102.44 176.00 102.31 177.45 100.12 178.08 C 98.33 179.11 96.86 177.13 95.69 176.06 C 93.62 175.75 92.30 178.57 90.79 178.57 C 90.63 176.95 89.68 176.25 88.78 175.02 C 87.75 175.28 86.81 175.68 85.73 175.67 C 85.99 174.49 85.87 173.44 85.36 172.52 C 83.83 173.11 83.07 174.30 81.32 173.82 C 83.09 172.33 84.85 170.01 86.90 169.09 Z" fill="#1c1c1c"/>
<path d="M 117.00 168.95 C 117.03 169.67 116.46 170.12 115.28 170.31 C 115.36 171.63 119.50 171.67 119.03 173.92 C 118.17 175.65 116.78 175.82 115.01 175.70 C 113.43 176.65 112.05 177.41 110.13 177.00 C 110.14 174.90 109.00 173.05 108.97 171.05 C 110.23 170.61 111.52 169.88 112.88 170.19 C 113.42 171.70 111.24 171.46 111.03 172.81 L 113.12 173.02 C 112.49 173.98 112.10 174.92 111.97 175.85 C 113.55 174.96 115.05 174.15 116.88 173.86 C 116.84 172.46 113.66 172.87 113.65 170.97 C 113.93 169.06 115.30 168.73 117.00 168.95 Z" fill="#757575"/>
<path d="M 91.97 171.44 C 93.43 172.31 97.00 173.21 95.67 175.42 C 94.42 175.60 93.21 175.96 92.03 176.52 C 89.01 175.64 89.32 172.52 91.97 171.44 Z" fill="#fefefe"/>
<path d="M 106.94 171.61 C 109.26 172.84 106.97 174.33 108.15 175.77 C 108.64 176.45 108.91 177.17 108.94 177.92 C 107.63 177.87 104.86 175.69 105.99 174.23 C 106.87 173.12 104.94 171.52 106.94 171.61 Z" fill="#686868"/>
<path d="M 101.33 174.01 C 101.85 175.70 100.62 177.25 99.06 177.76 C 97.33 177.04 96.23 175.14 97.41 173.43 C 98.83 171.58 100.39 172.03 101.33 174.01 Z" fill="#fdfdfd"/>
</svg>