<?xml version="1.0" encoding="UTF-8" standalone="no"?>
<!DOCTYPE svg PUBLIC "-//W3C//DTD SVG 1.1//EN" "http://www.w3.org/Graphics/SVG/1.1/DTD/svg11.dtd">
<svg xmlns="http://www.w3.org/2000/svg" version="1.1" viewBox="0 0 200 200" width="200.0pt" height="200.0pt">
<path d="M 0.00 0.00 L 98.57 0.00 C 98.05 1.07 97.53 2.14 97.02 3.22 C 96.53 2.18 96.03 1.14 95.55 0.10 C 94.43 0.22 93.32 0.37 92.21 0.54 L 91.46 3.16 C 89.80 2.78 89.59 2.49 88.53 1.21 C 87.22 1.39 85.91 1.57 84.60 1.75 C 85.55 4.46 86.52 7.17 87.45 9.88 C 88.72 9.97 89.99 10.05 91.26 10.14 C 91.10 12.23 90.20 12.97 88.76 14.30 C 89.31 15.58 89.90 16.84 90.51 18.09 C 89.48 18.24 88.45 18.39 87.41 18.54 C 87.42 19.52 87.43 20.50 87.42 21.48 C 86.68 20.73 86.05 19.87 85.55 18.91 C 84.12 19.04 82.69 19.20 81.26 19.36 C 81.07 20.40 80.87 21.44 80.66 22.47 C 79.85 21.76 79.14 20.94 78.53 20.01 C 77.33 19.85 76.13 19.70 74.93 19.55 L 75.95 17.02 C 76.50 14.32 72.40 14.61 73.04 11.80 C 74.10 11.37 75.19 11.03 76.27 10.68 C 76.69 7.82 77.01 4.97 77.25 2.09 C 75.89 2.28 74.54 2.47 73.18 2.65 C 72.88 3.50 72.57 4.35 72.27 5.20 C 69.98 3.86 69.54 2.44 66.52 3.26 C 66.03 4.35 65.53 5.43 65.02 6.51 C 64.57 5.61 64.11 4.71 63.66 3.80 C 61.30 4.79 59.94 4.26 59.62 7.34 C 58.90 6.76 58.17 6.17 57.45 5.58 C 56.38 5.79 55.32 6.00 54.25 6.21 C 54.20 7.21 54.16 8.20 54.12 9.20 C 50.92 7.70 50.34 7.82 47.12 9.09 C 48.63 11.48 50.15 13.87 51.70 16.23 C 53.37 16.14 54.73 16.03 56.27 16.79 C 55.65 18.06 54.53 19.39 54.36 20.81 C 55.01 21.89 55.81 22.90 56.57 23.91 C 55.58 24.31 54.59 24.70 53.60 25.09 C 53.76 26.13 53.91 27.16 54.05 28.20 C 53.23 27.41 52.41 26.63 51.60 25.83 C 50.31 26.28 49.02 26.73 47.73 27.17 C 47.78 28.25 47.83 29.32 47.86 30.40 C 46.70 29.86 45.88 29.03 45.01 28.12 C 43.79 28.47 42.56 28.81 41.34 29.15 C 41.35 27.78 41.22 26.44 40.95 25.14 C 39.53 24.03 37.86 23.47 36.63 22.08 C 37.80 21.41 38.96 20.75 40.13 20.10 C 39.56 17.21 39.10 14.31 38.62 11.41 C 37.38 11.96 36.14 12.52 34.92 13.10 C 34.87 14.91 34.27 15.83 33.12 15.86 L 31.36 13.98 C 29.39 15.48 27.61 15.29 28.53 18.38 C 27.61 17.89 26.69 17.38 25.77 16.88 C 23.55 18.52 22.66 18.13 23.12 21.39 C 22.25 20.90 21.38 20.42 20.51 19.94 C 19.39 20.61 18.28 21.28 17.17 21.95 C 19.53 24.18 21.90 26.39 24.31 28.57 C 25.20 28.17 26.10 27.76 27.00 27.35 C 32.35 33.23 35.77 41.00 40.06 47.71 C 39.46 48.53 38.87 49.35 38.27 50.17 C 39.24 52.65 40.95 52.90 43.01 54.19 C 42.51 55.21 41.97 56.20 41.38 57.18 C 42.04 58.16 42.70 59.13 43.38 60.10 C 43.47 87.40 43.39 114.70 43.42 142.00 C 43.48 149.18 44.48 156.28 47.08 163.00 C 52.56 177.80 64.47 190.08 79.14 195.94 C 84.64 198.22 90.37 199.17 96.23 200.00 L 0.00 200.00 L 0.00 0.00 Z" fill="none"/>
<path d="M 98.57 0.00 L 101.48 0.00 C 101.98 1.08 102.48 2.16 102.96 3.25 C 104.42 0.75 104.00 -0.16 107.40 0.34 C 108.32 1.53 108.31 2.85 109.99 3.09 C 110.50 2.47 111.00 1.83 111.48 1.18 C 112.81 1.38 114.14 1.58 115.47 1.77 C 114.54 4.49 113.58 7.20 112.63 9.92 C 111.32 10.00 110.01 10.08 108.70 10.18 C 109.14 12.15 109.74 12.90 111.24 14.18 C 110.77 15.50 110.24 16.80 109.71 18.10 C 110.71 18.26 111.72 18.41 112.73 18.57 C 112.66 19.38 112.60 20.19 112.53 21.00 L 113.85 21.00 L 114.08 18.87 C 115.65 19.01 117.21 19.15 118.78 19.30 C 118.95 20.35 119.13 21.41 119.32 22.46 C 120.32 21.80 120.83 20.94 121.42 19.94 C 122.62 19.87 123.82 19.81 125.03 19.75 C 124.64 18.51 124.28 17.26 123.96 16.01 C 124.78 14.89 125.89 14.29 127.01 13.49 C 126.95 12.78 126.89 12.07 126.83 11.35 C 125.87 11.23 124.90 11.11 123.93 11.00 C 123.44 8.03 123.05 5.06 122.83 2.06 C 124.14 2.26 125.44 2.47 126.75 2.69 C 127.63 3.91 127.40 5.33 129.34 4.79 L 130.45 2.84 C 131.49 2.99 132.52 3.14 133.56 3.29 C 134.01 4.38 134.47 5.46 134.94 6.54 L 136.41 3.80 C 138.83 4.78 140.02 4.27 140.43 7.37 C 141.14 6.77 141.85 6.17 142.55 5.56 C 143.58 5.76 144.61 5.95 145.64 6.15 C 145.84 7.13 146.05 8.11 146.29 9.08 C 147.28 8.89 148.23 8.47 149.12 7.82 C 150.42 8.23 151.72 8.66 153.01 9.10 C 151.44 11.52 149.94 13.97 148.26 16.31 C 146.36 16.13 145.37 15.90 143.72 17.04 C 144.49 18.11 145.27 19.18 146.05 20.24 C 145.21 21.48 144.35 22.70 143.48 23.91 C 144.51 24.30 145.54 24.69 146.56 25.08 C 146.36 26.13 146.17 27.17 145.98 28.23 C 146.81 27.45 147.63 26.66 148.44 25.87 C 149.79 26.31 151.13 26.75 152.48 27.19 C 152.35 28.25 152.23 29.32 152.11 30.39 C 153.30 29.84 154.23 29.03 155.18 28.17 C 156.36 28.50 157.53 28.84 158.70 29.16 C 158.78 27.81 158.91 26.47 159.09 25.14 C 160.56 24.05 162.26 23.63 163.41 22.11 C 162.25 21.40 161.09 20.71 159.93 20.01 C 160.56 17.19 161.01 14.37 161.37 11.51 C 164.89 12.54 165.05 13.29 166.87 16.35 L 168.52 13.88 C 170.51 15.41 172.61 15.18 171.49 18.36 C 172.42 17.93 173.34 17.49 174.27 17.06 C 175.22 17.53 176.17 18.01 177.13 18.48 C 177.01 19.46 176.90 20.44 176.79 21.42 C 177.72 20.94 178.65 20.46 179.58 19.97 C 180.69 20.63 181.80 21.29 182.91 21.94 C 180.53 24.16 178.18 26.39 175.78 28.58 C 174.87 28.17 173.96 27.76 173.05 27.35 C 167.74 33.25 164.33 41.01 160.01 47.74 C 160.63 48.57 161.26 49.39 161.88 50.22 C 160.84 52.68 159.28 53.03 156.99 54.10 C 157.57 55.10 158.14 56.09 158.72 57.08 C 158.06 58.09 157.39 59.09 156.70 60.08 C 156.61 83.72 156.69 107.36 156.66 131.00 C 156.59 139.60 157.15 147.53 155.13 156.02 C 151.54 171.38 141.45 184.95 127.67 192.67 C 120.28 196.97 112.15 199.01 103.72 200.00 L 96.23 200.00 C 90.37 199.17 84.64 198.22 79.14 195.94 C 64.47 190.08 52.56 177.80 47.08 163.00 C 44.48 156.28 43.48 149.18 43.42 142.00 C 43.39 114.70 43.47 87.40 43.38 60.10 C 42.70 59.13 42.04 58.16 41.38 57.18 C 41.97 56.20 42.51 55.21 43.01 54.19 C 40.95 52.90 39.24 52.65 38.27 50.17 C 38.87 49.35 39.46 48.53 40.06 47.71 C 35.77 41.00 32.35 33.23 27.00 27.35 C 26.10 27.76 25.20 28.17 24.31 28.57 C 21.90 26.39 19.53 24.18 17.17 21.95 C 18.28 21.28 19.39 20.61 20.51 19.94 C 21.38 20.42 22.25 20.90 23.12 21.39 C 22.66 18.13 23.55 18.52 25.77 16.88 C 26.69 17.38 27.61 17.89 28.53 18.38 C 27.61 15.29 29.39 15.48 31.36 13.98 L 33.12 15.86 C 34.27 15.83 34.87 14.91 34.92 13.10 C 36.14 12.52 37.38 11.96 38.62 11.41 C 39.10 14.31 39.56 17.21 40.13 20.10 C 38.96 20.75 37.80 21.41 36.63 22.08 C 37.86 23.47 39.53 24.03 40.95 25.14 C 41.22 26.44 41.35 27.78 41.34 29.15 C 42.56 28.81 43.79 28.47 45.01 28.12 C 45.88 29.03 46.70 29.86 47.86 30.40 C 47.83 29.32 47.78 28.25 47.73 27.17 C 49.02 26.73 50.31 26.28 51.60 25.83 C 52.41 26.63 53.23 27.41 54.05 28.20 C 53.91 27.16 53.76 26.13 53.60 25.09 C 54.59 24.70 55.58 24.31 56.57 23.91 C 55.81 22.90 55.01 21.89 54.36 20.81 C 54.53 19.39 55.65 18.06 56.27 16.79 C 54.73 16.03 53.37 16.14 51.70 16.23 C 50.15 13.87 48.63 11.48 47.12 9.09 C 50.34 7.82 50.92 7.70 54.12 9.20 C 54.16 8.20 54.20 7.21 54.25 6.21 C 55.32 6.00 56.38 5.79 57.45 5.58 C 58.17 6.17 58.90 6.76 59.62 7.34 C 59.94 4.26 61.30 4.79 63.66 3.80 C 64.11 4.71 64.57 5.61 65.02 6.51 C 65.53 5.43 66.03 4.35 66.52 3.26 C 69.54 2.44 69.98 3.86 72.27 5.20 C 72.57 4.35 72.88 3.50 73.18 2.65 C 74.54 2.47 75.89 2.28 77.25 2.09 C 77.01 4.97 76.69 7.82 76.27 10.68 C 75.19 11.03 74.10 11.37 73.04 11.80 C 72.40 14.61 76.50 14.32 75.95 17.02 L 74.93 19.55 C 76.13 19.70 77.33 19.85 78.53 20.01 C 79.14 20.94 79.85 21.76 80.66 22.47 C 80.87 21.44 81.07 20.40 81.26 19.36 C 82.69 19.20 84.12 19.04 85.55 18.91 C 86.05 19.87 86.68 20.73 87.42 21.48 C 87.43 20.50 87.42 19.52 87.41 18.54 C 88.45 18.39 89.48 18.24 90.51 18.09 C 89.90 16.84 89.31 15.58 88.76 14.30 C 90.20 12.97 91.10 12.23 91.26 10.14 C 89.99 10.05 88.72 9.97 87.45 9.88 C 86.52 7.17 85.55 4.46 84.60 1.75 C 85.91 1.57 87.22 1.39 88.53 1.21 C 89.59 2.49 89.80 2.78 91.46 3.16 L 92.21 0.54 C 93.32 0.37 94.43 0.22 95.55 0.10 C 96.03 1.14 96.53 2.18 97.02 3.22 C 97.53 2.14 98.05 1.07 98.57 0.00 Z" fill="#010000"/>
<path d="M 101.48 0.00 L 200.00 0.00 L 200.00 200.00 L 103.72 200.00 C 112.15 199.01 120.28 196.97 127.67 192.67 C 141.45 184.95 151.54 171.38 155.13 156.02 C 157.15 147.53 156.59 139.60 156.66 131.00 C 156.69 107.36 156.61 83.72 156.70 60.08 C 157.39 59.09 158.06 58.09 158.72 57.08 C 158.14 56.09 157.57 55.10 156.99 54.10 C 159.28 53.03 160.84 52.68 161.88 50.22 C 161.26 49.39 160.63 48.57 160.01 47.74 C 164.33 41.01 167.74 33.25 173.05 27.35 C 173.96 27.76 174.87 28.17 175.78 28.58 C 178.18 26.39 180.53 24.16 182.91 21.94 C 181.80 21.29 180.69 20.63 179.58 19.97 C 178.65 20.46 177.72 20.94 176.79 21.42 C 176.90 20.44 177.01 19.46 177.13 18.48 C 176.17 18.01 175.22 17.53 174.27 17.06 C 173.34 17.49 172.42 17.93 171.49 18.36 C 172.61 15.18 170.51 15.41 168.52 13.88 L 166.87 16.35 C 165.05 13.29 164.89 12.54 161.37 11.51 C 161.01 14.37 160.56 17.19 159.93 20.01 C 161.09 20.71 162.25 21.40 163.41 22.11 C 162.26 23.63 160.56 24.05 159.09 25.14 C 158.91 26.47 158.78 27.81 158.70 29.16 C 157.53 28.84 156.36 28.50 155.18 28.17 C 154.23 29.03 153.30 29.84 152.11 30.39 C 152.23 29.32 152.35 28.25 152.48 27.19 C 151.13 26.75 149.79 26.31 148.44 25.87 C 147.63 26.66 146.81 27.45 145.98 28.23 C 146.17 27.17 146.36 26.13 146.56 25.08 C 145.54 24.69 144.51 24.30 143.48 23.91 C 144.35 22.70 145.21 21.48 146.05 20.24 C 145.27 19.18 144.49 18.11 143.72 17.04 C 145.37 15.90 146.36 16.13 148.26 16.31 C 149.94 13.97 151.44 11.52 153.01 9.10 C 151.72 8.66 150.42 8.23 149.12 7.82 C 148.23 8.47 147.28 8.89 146.29 9.08 C 146.05 8.11 145.84 7.13 145.64 6.15 C 144.61 5.95 143.58 5.76 142.55 5.56 C 141.85 6.17 141.14 6.77 140.43 7.37 C 140.02 4.27 138.83 4.78 136.41 3.80 L 134.94 6.54 C 134.47 5.46 134.01 4.38 133.56 3.29 C 132.52 3.14 131.49 2.99 130.45 2.84 L 129.34 4.79 C 127.40 5.33 127.63 3.91 126.75 2.69 C 125.44 2.47 124.14 2.26 122.83 2.06 C 123.05 5.06 123.44 8.03 123.93 11.00 C 124.90 11.11 125.87 11.23 126.83 11.35 C 126.89 12.07 126.95 12.78 127.01 13.49 C 125.89 14.29 124.78 14.89 123.96 16.01 C 124.28 17.26 124.64 18.51 125.03 19.75 C 123.82 19.81 122.62 19.87 121.42 19.94 C 120.83 20.94 120.32 21.80 119.32 22.46 C 119.13 21.41 118.95 20.35 118.78 19.30 C 117.21 19.15 115.65 19.01 114.08 18.87 L 113.85 21.00 L 112.53 21.00 C 112.60 20.19 112.66 19.38 112.73 18.57 C 111.72 18.41 110.71 18.26 109.71 18.10 C 110.24 16.80 110.77 15.50 111.24 14.18 C 109.74 12.90 109.14 12.15 108.70 10.18 C 110.01 10.08 111.32 10.00 112.63 9.92 C 113.58 7.20 114.54 4.49 115.47 1.77 C 114.14 1.58 112.81 1.38 111.48 1.18 C 111.00 1.83 110.50 2.47 109.99 3.09 C 108.31 2.85 108.32 1.53 107.40 0.34 C 104.00 -0.16 104.42 0.75 102.96 3.25 C 102.48 2.16 101.98 1.08 101.48 0.00 Z" fill="none"/>
<path d="M 93.96 1.00 C 94.53 1.91 95.11 2.82 95.69 3.72 C 96.62 3.75 97.56 3.78 98.49 3.81 C 99.00 2.72 99.50 1.63 100.01 0.55 C 100.53 1.63 101.06 2.71 101.58 3.79 C 102.51 3.79 103.44 3.78 104.37 3.78 C 104.92 2.86 105.47 1.94 106.03 1.02 C 106.63 2.10 107.23 3.17 107.83 4.25 C 110.36 4.39 111.67 3.60 113.85 2.34 C 113.20 4.55 112.48 6.71 111.53 8.82 C 103.85 8.49 96.11 8.59 88.42 8.76 C 87.53 6.59 86.89 4.42 86.40 2.12 C 87.52 2.85 88.65 3.56 89.79 4.25 C 90.68 4.17 91.58 4.08 92.47 3.98 C 92.96 2.98 93.46 1.99 93.96 1.00 Z" fill="#b58b2b"/>
<path d="M 68.14 4.12 C 68.94 4.82 69.70 5.56 70.50 6.27 C 71.33 6.22 72.16 6.15 72.99 6.07 C 73.89 5.03 74.77 4.09 75.96 3.38 C 75.76 5.61 75.46 7.83 75.13 10.04 C 67.51 11.65 59.92 13.43 52.31 15.11 C 51.17 13.09 49.19 11.14 49.63 8.67 C 50.50 9.34 51.36 10.01 52.22 10.69 C 53.29 10.34 54.37 9.98 55.44 9.63 C 55.56 8.63 55.67 7.62 55.79 6.62 C 56.80 7.29 57.81 7.98 58.82 8.66 C 59.61 8.46 60.39 8.26 61.18 8.06 C 61.45 7.11 61.73 6.17 62.00 5.22 C 62.97 6.05 63.93 6.88 64.90 7.71 C 66.47 6.80 67.19 5.58 68.14 4.12 Z" fill="#b58b2b"/>
<path d="M 124.21 3.63 C 126.17 4.62 127.20 6.21 129.55 6.59 C 130.39 5.64 131.24 4.70 132.09 3.76 C 132.53 4.91 132.97 6.06 133.40 7.21 C 135.56 7.23 136.48 6.63 138.16 5.35 C 138.40 6.26 138.64 7.16 138.88 8.06 C 139.72 8.25 140.56 8.44 141.40 8.62 C 142.33 7.95 143.27 7.28 144.22 6.61 C 144.38 7.61 144.54 8.61 144.70 9.61 C 145.73 9.95 146.76 10.29 147.80 10.62 C 148.84 10.05 149.89 9.49 150.95 8.93 C 150.14 11.21 149.12 13.15 147.77 15.14 C 140.17 13.37 132.56 11.70 124.94 10.03 C 124.63 7.89 124.30 5.79 124.21 3.63 Z" fill="#b58b2b"/>
<path d="M 108.29 10.13 L 107.38 11.82 C 104.70 12.42 101.74 12.11 99.00 12.20 C 96.21 12.05 93.73 12.70 91.42 10.74 C 96.79 9.35 102.76 10.25 108.29 10.13 Z" fill="#ae8629"/>
<path d="M 128.29 12.31 C 133.64 13.11 138.95 14.46 144.16 15.87 L 142.22 17.45 C 137.52 16.69 132.89 15.43 128.23 14.46 C 128.23 13.75 128.25 13.03 128.29 12.31 Z" fill="#a37d26"/>
<path d="M 72.51 12.39 C 72.00 13.88 71.15 14.69 69.95 14.84 C 65.93 15.71 61.92 16.79 57.85 17.41 L 56.02 15.85 C 61.43 14.43 66.93 12.98 72.51 12.39 Z" fill="#af8629"/>
<path d="M 37.25 12.62 C 37.85 14.86 38.36 17.13 38.83 19.41 C 34.16 21.98 29.40 24.38 24.80 27.08 C 22.66 25.44 20.69 23.80 19.26 21.45 C 21.49 22.35 22.41 22.65 24.66 21.84 C 24.66 20.70 24.66 19.56 24.67 18.43 C 25.71 18.93 26.75 19.43 27.79 19.94 C 28.44 19.53 29.08 19.12 29.73 18.72 C 29.87 17.68 30.02 16.65 30.17 15.62 C 31.13 16.19 32.08 16.76 33.03 17.34 C 33.90 16.89 34.78 16.45 35.65 16.00 C 36.18 14.87 36.71 13.74 37.25 12.62 Z" fill="#b58b2b"/>
<path d="M 90.84 13.75 C 94.50 13.25 98.30 13.60 102.00 13.50 C 105.08 13.60 107.79 12.92 110.49 14.83 C 108.56 16.77 106.45 16.24 104.00 16.34 C 99.63 16.20 95.22 16.54 90.87 16.15 L 90.14 14.95 L 90.84 13.75 Z" fill="#c0942e"/>
<path d="M 162.82 12.61 C 163.36 13.73 163.89 14.85 164.42 15.98 C 165.27 16.42 166.12 16.87 166.98 17.31 C 168.03 16.75 169.09 16.19 170.14 15.64 C 170.18 16.67 170.21 17.70 170.24 18.74 C 171.12 19.14 172.00 19.55 172.88 19.95 C 173.63 19.36 174.38 18.78 175.14 18.19 C 175.27 19.36 175.39 20.53 175.49 21.70 C 177.78 22.71 178.51 22.36 180.81 21.40 C 179.42 23.63 177.57 25.35 175.62 27.07 C 170.79 24.61 166.04 21.98 161.27 19.40 C 161.74 17.12 162.23 14.86 162.82 12.61 Z" fill="#b58b2b"/>
<path d="M 75.34 17.00 C 72.71 18.87 69.88 19.03 66.84 19.73 C 63.43 20.42 60.06 21.42 56.62 21.94 L 55.32 20.09 C 58.90 17.83 63.90 17.78 67.94 16.54 C 70.69 16.18 73.19 14.38 75.34 17.00 Z" fill="#b48a2a"/>
<path d="M 126.84 15.52 C 130.32 15.99 133.72 17.04 137.18 17.71 C 139.64 18.28 142.61 18.62 144.74 20.03 C 144.32 21.58 143.42 22.13 142.06 21.66 C 139.09 21.12 136.19 20.30 133.24 19.70 C 130.21 19.00 127.39 18.85 124.77 16.98 L 126.84 15.52 Z" fill="#bd912d"/>
<path d="M 91.60 17.77 C 97.23 17.67 102.86 17.67 108.48 17.76 C 109.55 24.04 110.77 30.29 111.74 36.59 C 110.64 36.30 109.53 36.01 108.42 35.72 C 106.71 30.00 104.58 26.71 100.05 22.85 C 98.12 24.67 96.14 26.42 94.72 28.68 C 93.31 30.91 92.66 33.31 91.49 35.61 C 90.54 36.12 89.50 36.48 88.36 36.69 C 89.29 30.36 90.55 24.08 91.60 17.77 Z" fill="#b58b2b"/>
<path d="M 74.00 19.58 C 76.40 25.17 78.83 30.75 81.25 36.34 C 80.03 36.50 78.81 36.65 77.59 36.81 C 75.08 31.99 71.65 28.95 66.93 26.37 C 63.45 30.67 62.04 34.95 61.35 40.39 C 60.36 40.61 59.37 40.83 58.38 41.05 C 58.34 35.35 57.14 28.76 57.93 23.25 C 63.18 21.69 68.65 20.79 74.00 19.58 Z" fill="#b58b2b"/>
<path d="M 83.96 19.52 C 84.60 20.48 85.24 21.44 85.87 22.41 C 86.66 22.25 87.44 22.08 88.23 21.91 C 88.76 20.86 89.37 19.88 90.06 18.96 C 89.83 20.74 89.54 22.48 89.21 24.24 C 85.85 24.75 82.50 25.19 79.10 25.37 C 80.75 26.68 81.43 27.96 81.14 29.20 L 80.00 29.30 C 78.34 26.71 77.33 23.43 76.05 20.60 C 77.48 21.24 78.23 22.01 79.13 23.28 C 80.06 23.09 80.98 22.89 81.90 22.68 C 82.58 21.62 83.27 20.57 83.96 19.52 Z" fill="#9b7624"/>
<path d="M 110.70 20.52 C 110.68 20.58 110.68 20.58 110.70 20.52 Z" fill="#967223"/>
<path d="M 117.44 20.08 C 117.50 21.08 117.55 22.07 117.61 23.07 C 118.77 23.16 119.93 23.24 121.09 23.32 C 121.93 22.30 122.85 21.37 123.84 20.53 C 122.91 23.51 121.09 26.01 120.39 29.07 L 118.70 29.19 C 119.09 27.81 119.48 26.42 119.88 25.04 C 117.04 24.79 114.02 24.78 111.27 24.01 L 110.27 22.16 C 111.61 22.26 112.95 22.37 114.28 22.47 C 115.30 20.95 115.53 20.30 117.44 20.08 Z" fill="#c6982f"/>
<path d="M 126.06 19.58 C 131.53 20.65 136.93 22.02 142.40 23.08 C 142.45 29.08 142.11 35.08 141.68 41.06 C 140.69 40.80 139.70 40.55 138.71 40.29 C 138.06 34.84 136.61 30.64 133.13 26.35 C 128.07 29.19 125.25 31.93 122.28 36.92 C 121.14 36.71 119.99 36.50 118.85 36.28 C 121.28 30.73 123.71 25.17 126.06 19.58 Z" fill="#b58b2b"/>
<path d="M 36.22 22.44 L 36.56 24.34 C 34.60 25.95 32.25 27.29 29.89 28.20 L 27.84 26.94 C 30.57 25.31 33.36 23.83 36.22 22.44 Z" fill="#aa8228"/>
<path d="M 164.01 22.63 C 166.87 23.74 169.62 25.39 172.24 26.96 L 170.17 28.16 C 167.73 27.24 165.38 25.87 163.37 24.22 L 164.01 22.63 Z" fill="#ab8328"/>
<path d="M 38.94 24.98 C 39.53 25.58 40.08 26.23 40.59 26.92 C 37.90 28.79 35.02 30.27 32.13 31.78 C 31.52 31.08 30.91 30.38 30.30 29.67 C 33.03 27.96 35.90 26.08 38.94 24.98 Z" fill="#ac8429"/>
<path d="M 100.02 24.05 C 103.62 27.46 106.48 31.33 107.26 36.35 C 103.97 33.81 103.30 29.09 100.03 26.24 C 98.69 27.88 97.35 29.44 96.39 31.34 C 95.33 33.28 94.85 35.19 92.75 36.30 C 93.73 31.34 96.42 27.49 100.02 24.05 Z" fill="#a67f27"/>
<path d="M 161.08 24.99 C 164.20 26.08 167.12 28.02 169.93 29.75 L 167.89 31.54 C 164.93 30.40 162.15 28.68 159.52 26.93 C 159.99 26.24 160.51 25.59 161.08 24.99 Z" fill="#af8629"/>
<path d="M 56.20 24.90 C 56.44 26.59 56.62 28.28 56.78 29.98 C 53.15 31.41 49.47 32.65 45.81 33.98 C 44.81 32.74 43.81 31.50 42.81 30.26 L 44.32 29.34 C 44.88 30.11 45.44 30.88 45.99 31.65 C 47.14 31.22 48.28 30.78 49.41 30.34 L 49.34 27.99 C 51.58 26.59 51.41 28.15 52.86 29.48 C 53.59 29.06 54.31 28.63 55.02 28.18 C 55.25 27.01 55.64 25.91 56.20 24.90 Z" fill="#ba8f2c"/>
<path d="M 81.84 26.27 C 83.05 26.11 84.25 25.95 85.46 25.80 C 85.57 26.96 85.43 28.00 85.04 28.92 C 82.24 29.38 82.56 28.48 81.84 26.27 Z" fill="#927022"/>
<path d="M 86.99 26.08 C 88.83 24.62 89.59 27.60 87.73 28.16 C 86.67 27.92 86.43 27.23 86.99 26.08 Z" fill="#a88028"/>
<path d="M 112.00 26.23 L 112.85 26.25 L 113.27 26.96 L 112.83 27.66 L 111.99 27.65 L 111.56 26.93 L 112.00 26.23 Z" fill="#d2a133"/>
<path d="M 114.67 25.87 C 115.75 25.97 116.84 26.08 117.92 26.19 C 117.90 27.10 117.87 28.00 117.84 28.90 C 116.85 28.91 115.85 28.90 114.85 28.89 C 114.78 27.88 114.72 26.88 114.67 25.87 Z" fill="#977323"/>
<path d="M 143.59 25.23 L 144.82 25.70 C 144.99 26.77 145.15 27.85 145.30 28.93 C 147.73 29.23 147.67 28.57 149.38 27.02 C 151.05 29.12 150.84 30.74 153.77 31.63 C 154.91 30.00 156.15 29.44 157.49 29.95 C 156.44 31.34 155.35 32.71 154.25 34.06 C 150.67 32.69 147.04 31.44 143.42 30.16 C 143.47 28.52 143.53 26.88 143.59 25.23 Z" fill="#aa8228"/>
<path d="M 67.19 27.72 C 71.40 29.82 74.59 33.31 76.72 37.47 C 73.05 36.16 71.10 31.83 67.79 29.67 C 65.13 32.95 65.57 37.56 62.78 40.50 C 62.68 35.74 64.29 31.46 67.19 27.72 Z" fill="#a47d26"/>
<path d="M 132.92 27.60 C 135.67 31.48 137.45 35.67 137.30 40.51 C 134.75 37.56 134.69 33.12 132.66 29.74 C 128.84 31.60 127.22 36.13 123.35 37.46 C 125.63 33.06 128.65 30.08 132.92 27.60 Z" fill="#a67f27"/>
<path d="M 40.10 28.99 C 44.05 33.66 47.69 38.58 51.61 43.27 C 50.52 43.65 49.43 44.03 48.34 44.41 C 44.29 40.59 40.93 38.82 35.51 37.53 C 34.61 35.99 33.71 34.44 32.82 32.89 C 35.22 31.56 37.63 30.18 40.10 28.99 Z" fill="#b58b2b"/>
<path d="M 159.99 29.09 C 162.51 30.10 164.88 31.58 167.27 32.89 C 166.37 34.44 165.48 35.99 164.58 37.53 C 159.14 38.80 155.79 40.62 151.74 44.44 C 150.67 44.04 149.60 43.64 148.54 43.23 C 152.41 38.58 155.99 33.63 159.99 29.09 Z" fill="#b58b2b"/>
<path d="M 80.01 30.12 C 81.55 30.15 82.93 29.99 84.31 30.79 C 83.79 31.64 83.25 32.49 82.71 33.33 C 83.82 33.30 84.93 33.27 86.04 33.25 C 86.00 34.12 85.95 34.98 85.88 35.85 C 84.71 36.01 83.53 36.14 82.34 36.23 C 81.78 34.07 81.02 32.11 80.01 30.12 Z" fill="#886720"/>
<path d="M 85.21 30.16 C 86.12 29.46 87.00 29.40 87.86 29.98 C 89.18 32.44 83.69 32.85 85.21 30.16 Z" fill="#a67f27"/>
<path d="M 112.18 30.00 C 113.28 29.01 115.95 29.96 114.90 31.60 C 113.78 32.61 111.23 31.62 112.18 30.00 Z" fill="#a67f27"/>
<path d="M 116.18 30.15 C 117.60 29.90 118.71 30.19 120.03 30.65 C 119.00 32.43 118.26 34.10 117.75 36.11 C 116.53 36.10 115.31 36.09 114.08 36.07 C 114.18 35.16 114.28 34.25 114.38 33.34 C 115.17 33.29 115.96 33.25 116.75 33.20 C 116.53 32.19 116.35 31.17 116.18 30.15 Z" fill="#87671f"/>
<path d="M 54.66 32.18 C 56.50 30.87 57.71 32.74 56.43 34.33 C 55.16 35.57 53.64 33.25 54.66 32.18 Z" fill="#9f7926"/>
<path d="M 143.28 32.06 C 144.88 30.83 146.74 32.76 145.41 34.34 C 143.92 35.81 142.31 33.43 143.28 32.06 Z" fill="#977324"/>
<path d="M 52.85 32.65 C 53.27 33.45 53.66 34.25 54.05 35.07 C 52.12 35.86 50.11 36.54 48.13 37.22 C 47.57 36.38 47.02 35.54 46.46 34.70 C 47.48 34.65 48.50 34.59 49.52 34.52 C 50.59 33.80 51.67 33.15 52.85 32.65 Z" fill="#906d22"/>
<path d="M 147.07 33.45 C 148.42 32.44 150.77 33.94 149.48 35.50 C 148.04 36.75 145.70 35.07 147.07 33.45 Z" fill="#a88128"/>
<path d="M 152.53 34.58 C 153.69 35.76 152.07 36.91 150.88 36.93 C 150.54 35.80 150.99 33.90 152.53 34.58 Z" fill="#a78028"/>
<path d="M 56.90 36.12 C 58.04 37.69 54.29 39.69 53.63 37.79 C 53.53 36.28 55.72 35.37 56.90 36.12 Z" fill="#a37c26"/>
<path d="M 146.37 37.04 C 146.93 39.59 143.07 38.50 142.90 36.76 C 143.24 35.19 145.84 35.95 146.37 37.04 Z" fill="#a07a26"/>
<path d="M 51.03 37.36 C 51.91 37.23 52.48 37.50 52.74 38.16 C 52.93 39.92 50.32 40.46 49.64 38.91 C 49.59 38.15 50.06 37.63 51.03 37.36 Z" fill="#997424"/>
<path d="M 157.69 48.31 C 159.15 49.28 161.88 49.81 159.32 51.72 C 140.75 42.88 120.49 39.11 100.00 38.88 C 79.88 39.20 60.20 42.61 41.92 51.25 C 39.41 52.54 39.16 49.96 41.02 49.01 C 54.64 42.65 69.59 38.84 84.54 37.40 C 109.16 34.86 134.98 38.25 157.69 48.31 Z" fill="#c4972f"/>
<path d="M 150.85 38.16 C 150.35 40.08 148.31 40.75 147.31 38.81 C 147.12 36.42 149.67 37.36 150.85 38.16 Z" fill="#926f22"/>
<path d="M 56.24 39.31 L 57.03 39.31 L 57.44 40.05 L 57.06 40.80 L 56.26 40.80 L 55.86 40.06 L 56.24 39.31 Z" fill="#88671f"/>
<path d="M 142.99 39.39 L 143.78 39.37 L 144.16 40.12 L 143.77 40.88 L 142.98 40.89 L 142.59 40.15 L 142.99 39.39 Z" fill="#926f22"/>
<path d="M 163.93 38.67 C 161.63 42.12 156.49 43.45 153.14 45.83 C 153.88 42.61 158.07 40.93 160.77 39.64 C 161.82 39.29 162.87 38.97 163.93 38.67 Z" fill="#9f7925"/>
<path d="M 36.08 38.64 C 40.47 40.06 44.80 41.39 47.22 45.67 C 43.46 43.79 38.77 41.92 36.08 38.64 Z" fill="#9f7925"/>
<path d="M 53.25 40.15 C 55.61 39.57 55.99 42.07 53.83 42.69 C 51.53 42.98 51.05 40.93 53.25 40.15 Z" fill="#9b7624"/>
<path d="M 145.15 40.38 C 146.22 39.60 148.39 40.43 148.29 41.86 C 147.43 43.72 143.78 42.30 145.15 40.38 Z" fill="#9d7825"/>
<path d="M 101.00 40.36 C 120.04 40.55 139.78 44.11 157.09 52.24 C 156.03 53.63 156.45 54.65 154.40 53.71 C 130.49 43.72 104.06 40.88 78.47 44.59 C 66.41 46.30 54.91 49.94 43.64 54.46 C 43.32 52.62 43.85 51.54 45.24 51.22 C 62.57 43.59 82.13 40.31 101.00 40.36 Z" fill="#bf932d"/>
<path d="M 154.01 54.98 C 155.39 55.81 159.44 56.86 156.06 58.44 C 152.80 57.34 149.75 55.72 146.51 54.58 C 130.48 48.73 113.02 46.32 96.00 46.79 C 79.42 47.26 62.39 50.41 47.19 57.21 C 45.69 57.88 44.13 58.18 42.51 58.38 C 43.08 55.92 44.75 55.59 46.78 54.68 C 80.57 40.78 120.30 40.87 154.01 54.98 Z" fill="#b2892a"/>
<path d="M 141.77 54.23 C 146.00 55.74 150.63 57.05 154.43 59.48 C 124.99 59.79 95.45 59.52 66.00 59.61 C 59.24 59.53 52.45 59.79 45.69 59.47 C 51.17 56.20 57.68 54.48 63.75 52.63 C 89.16 45.93 116.68 46.33 141.77 54.23 Z" fill="#ffffff"/>
<path d="M 45.61 61.75 C 63.77 61.73 81.94 61.73 100.10 61.75 C 100.13 62.63 100.17 63.51 100.20 64.39 C 98.08 64.19 95.96 64.01 93.83 63.84 C 93.81 66.60 93.81 69.36 93.81 72.12 L 95.36 72.06 C 95.42 71.04 95.47 70.02 95.53 69.00 C 96.24 69.03 96.94 69.06 97.64 69.09 C 98.31 70.50 99.08 71.69 100.06 72.90 C 100.10 73.89 100.13 74.87 100.15 75.86 C 97.27 75.85 94.39 75.86 91.51 75.86 C 91.60 80.21 91.12 84.73 91.80 89.03 C 93.13 92.82 96.42 94.14 100.11 94.79 C 100.17 99.14 100.10 103.49 100.21 107.84 C 98.77 108.61 97.34 109.40 95.91 110.20 C 96.67 110.82 97.44 111.45 98.21 112.07 L 97.61 114.09 C 97.12 115.56 96.60 117.02 96.09 118.49 C 94.89 119.79 93.45 120.90 93.03 122.69 C 91.96 126.72 90.51 130.86 90.25 135.03 C 90.02 137.64 91.26 139.54 92.28 141.82 C 92.01 144.22 91.23 147.01 91.77 149.39 C 92.66 150.45 93.87 151.26 94.95 152.12 C 95.47 146.16 93.92 140.43 94.28 134.48 C 95.27 134.86 96.25 135.25 97.24 135.63 C 97.93 135.47 98.63 135.31 99.32 135.15 C 99.02 136.46 98.73 137.77 98.44 139.08 C 99.61 143.52 97.85 147.00 96.75 151.20 C 97.51 150.37 98.26 149.53 99.02 148.70 C 98.75 151.26 98.99 154.28 97.65 156.52 C 96.10 159.44 94.57 162.30 92.25 164.70 C 93.17 160.73 94.70 157.08 94.91 152.96 C 93.16 157.89 91.80 162.84 90.76 167.97 C 92.42 168.24 94.08 168.51 95.73 168.78 C 95.54 167.50 95.35 166.21 95.15 164.92 C 95.55 164.22 95.95 163.51 96.35 162.80 C 96.43 160.87 96.80 159.32 97.55 157.54 C 97.80 158.67 98.04 159.79 98.28 160.92 C 100.25 158.24 102.31 155.62 104.30 152.95 C 103.62 158.84 99.32 161.00 96.35 165.58 C 100.28 166.03 100.55 161.76 103.08 159.56 C 102.98 162.26 102.10 164.19 100.71 166.43 C 98.78 166.82 97.10 166.52 95.97 168.50 C 97.34 168.45 98.71 168.38 100.09 168.30 C 100.14 175.89 100.31 183.51 99.94 191.10 L 98.12 188.15 C 97.59 188.73 97.07 189.30 96.55 189.88 C 97.62 191.03 97.74 192.34 96.91 193.80 C 96.06 193.94 95.21 194.06 94.36 194.16 C 94.80 191.88 95.47 189.84 96.41 187.73 L 93.24 188.26 C 92.85 190.63 92.74 193.05 92.53 195.44 C 93.95 195.66 95.42 196.01 96.86 195.95 C 98.64 195.17 99.06 193.60 99.95 192.02 C 100.01 193.94 100.09 195.85 100.18 197.76 C 90.07 197.76 80.05 194.93 71.49 189.54 C 55.92 179.86 45.97 162.34 45.63 144.00 C 45.55 116.60 45.60 89.16 45.61 61.75 Z" fill="#d2232a"/>
<path d="M 100.10 61.75 C 118.21 61.74 136.32 61.75 154.43 61.75 C 154.44 86.50 154.43 111.25 154.43 136.00 C 154.41 141.08 154.68 145.96 153.82 151.01 C 151.67 165.78 143.21 179.41 130.96 187.93 C 122.00 194.27 111.14 197.65 100.18 197.76 C 100.09 195.85 100.01 193.94 99.95 192.02 C 99.95 191.72 99.94 191.41 99.94 191.10 C 100.31 183.51 100.14 175.89 100.09 168.30 C 101.01 168.24 101.94 168.19 102.86 168.13 L 103.49 168.09 C 104.77 167.83 106.05 167.55 107.32 167.24 C 103.95 161.66 104.69 156.12 104.62 149.92 C 106.62 148.30 107.09 146.85 107.67 144.45 L 106.37 144.70 C 106.62 143.17 106.83 141.63 107.02 140.09 L 106.78 138.27 C 107.36 136.95 107.93 135.64 108.40 134.27 C 109.15 132.39 109.54 130.57 109.76 128.55 L 108.56 128.58 L 107.19 128.65 C 106.10 129.50 105.04 130.37 103.97 131.24 C 101.92 134.89 97.26 132.32 93.92 132.67 C 94.78 132.04 95.65 131.42 96.52 130.81 C 98.18 131.37 99.85 131.94 101.52 132.48 L 101.18 130.17 L 101.15 130.04 L 101.83 129.37 C 102.69 128.14 102.42 126.94 102.49 125.53 C 102.97 124.86 103.43 124.18 103.89 123.50 L 104.42 122.36 L 105.28 120.44 L 105.55 124.71 C 106.31 123.44 107.06 122.17 107.83 120.90 C 107.55 120.27 107.27 119.64 106.99 119.01 C 105.99 118.82 104.99 118.64 103.99 118.45 L 104.98 115.78 C 103.37 115.44 101.76 116.31 101.02 114.51 C 101.92 114.58 102.81 114.60 103.71 114.57 C 103.78 113.86 103.81 113.14 103.81 112.41 L 105.68 110.95 C 104.11 109.04 103.15 108.47 100.72 107.96 L 100.21 107.84 C 100.10 103.49 100.17 99.14 100.11 94.79 C 103.77 94.14 107.06 92.84 108.33 89.04 C 108.95 84.72 108.49 80.21 108.61 75.85 C 105.79 75.85 102.97 75.86 100.15 75.86 C 100.13 74.87 100.10 73.89 100.06 72.90 C 100.14 70.07 100.27 67.22 100.20 64.39 C 100.17 63.51 100.13 62.63 100.10 61.75 Z" fill="#ffffff"/>
<path d="M 136.55 63.81 C 138.29 63.38 139.44 64.23 140.94 64.96 C 140.86 67.33 141.00 69.69 141.13 72.06 C 139.28 72.10 137.00 72.62 135.26 71.90 C 132.55 70.20 132.95 64.27 136.55 63.81 Z" fill="#406d9b"/>
<path d="M 65.69 66.64 C 63.75 66.42 62.05 64.34 60.61 66.40 C 62.06 67.16 64.80 67.37 65.58 68.94 C 66.26 71.15 64.00 72.57 61.99 72.33 C 59.98 72.30 59.59 70.78 58.43 69.47 C 60.69 69.79 62.34 71.52 64.30 69.76 C 62.67 68.73 58.77 68.56 59.00 66.05 C 60.08 62.50 64.80 63.22 65.69 66.64 Z" fill="#194579"/>
<path d="M 70.42 64.14 C 72.74 63.90 75.99 63.13 76.74 66.14 C 76.95 69.13 74.59 68.98 72.40 69.56 C 72.25 70.55 72.10 71.54 71.95 72.54 C 69.04 71.84 70.51 66.38 70.42 64.14 Z" fill="#2e4270"/>
<path d="M 83.21 64.19 C 86.58 62.64 89.44 65.51 88.89 68.91 C 88.44 72.00 84.96 73.44 82.52 71.45 C 80.23 69.46 80.56 65.66 83.21 64.19 Z" fill="#184579"/>
<path d="M 93.83 63.84 C 95.96 64.01 98.08 64.19 100.20 64.39 C 100.27 67.22 100.14 70.07 100.06 72.90 C 99.08 71.69 98.31 70.50 97.64 69.09 C 96.94 69.06 96.24 69.03 95.53 69.00 C 95.47 70.02 95.42 71.04 95.36 72.06 L 93.81 72.12 C 93.81 69.36 93.81 66.60 93.83 63.84 Z" fill="#164579"/>
<path d="M 104.40 64.10 C 106.80 64.10 109.20 64.11 111.60 64.26 C 110.84 65.11 109.84 65.69 108.61 65.99 C 108.42 67.95 108.96 70.66 107.97 72.39 C 105.91 71.65 107.20 67.43 106.87 65.70 L 104.42 65.52 L 104.40 64.10 Z" fill="#003b77"/>
<path d="M 115.59 64.40 C 116.15 64.21 116.71 64.04 117.28 63.88 C 117.29 66.55 117.28 69.21 117.29 71.88 C 116.69 71.92 116.09 71.95 115.49 71.98 C 115.47 69.47 115.34 66.91 115.59 64.40 Z" fill="#003272"/>
<path d="M 122.39 64.00 C 124.88 63.57 125.87 67.71 127.19 69.21 C 127.18 67.51 127.17 65.81 127.16 64.11 L 128.85 64.12 C 128.83 66.91 128.81 69.71 128.68 72.50 C 126.14 71.34 125.39 69.07 123.93 66.88 C 123.93 68.58 123.93 70.27 123.92 71.97 L 122.23 71.89 C 122.23 69.27 122.17 66.61 122.39 64.00 Z" fill="#01437e"/>
<path d="M 72.26 65.28 C 73.22 65.45 74.18 65.71 75.13 66.06 C 74.75 67.96 73.80 68.19 72.02 67.93 C 72.06 67.04 72.14 66.15 72.26 65.28 Z" fill="#962f43"/>
<path d="M 86.11 65.80 C 88.19 67.85 86.54 69.78 85.01 71.45 C 84.33 70.43 82.81 69.32 82.96 68.00 C 82.71 66.44 84.72 64.39 86.11 65.80 Z" fill="#d4232a"/>
<path d="M 97.02 64.96 C 97.84 65.64 98.65 66.34 99.44 67.05 C 97.39 67.34 95.79 68.72 94.70 66.15 C 95.46 65.74 96.24 65.34 97.02 64.96 Z" fill="#8d3247"/>
<path d="M 139.04 65.39 L 139.05 66.25 C 138.84 67.31 138.17 67.92 137.47 68.67 C 138.15 69.06 138.83 69.45 139.50 69.84 C 138.64 70.30 137.78 70.76 136.92 71.22 C 136.36 70.22 135.80 69.22 135.28 68.19 L 135.35 67.44 C 136.23 65.81 137.46 65.13 139.04 65.39 Z" fill="#c7d5e2"/>
<path d="M 58.94 75.87 C 64.68 75.85 70.42 75.85 76.16 75.87 C 75.98 80.33 76.76 85.30 75.58 89.62 C 72.75 96.22 62.26 96.17 59.51 89.55 C 58.40 85.22 59.06 80.32 58.94 75.87 Z" fill="#01437e"/>
<path d="M 91.51 75.86 C 94.39 75.86 97.27 75.85 100.15 75.86 C 102.97 75.86 105.79 75.85 108.61 75.85 C 108.49 80.21 108.95 84.72 108.33 89.04 C 107.06 92.84 103.77 94.14 100.11 94.79 C 96.42 94.14 93.13 92.82 91.80 89.03 C 91.12 84.73 91.60 80.21 91.51 75.86 Z" fill="#01457f"/>
<path d="M 123.87 75.86 C 129.63 75.85 135.40 75.85 141.17 75.86 C 140.97 80.34 141.77 85.31 140.60 89.65 C 137.74 96.22 127.26 96.20 124.47 89.59 C 123.29 85.26 124.05 80.33 123.87 75.86 Z" fill="#01437d"/>
<path d="M 61.20 78.19 C 62.66 78.17 64.13 78.15 65.60 78.14 C 65.21 79.47 66.05 82.60 64.04 82.45 C 61.17 83.38 61.39 80.01 61.20 78.19 Z" fill="#ffffff"/>
<path d="M 69.63 78.12 C 71.06 78.14 72.50 78.17 73.94 78.19 C 73.54 79.82 74.31 82.13 72.09 82.48 L 69.76 82.30 C 69.69 80.91 69.64 79.52 69.63 78.12 Z" fill="#ffffff"/>
<path d="M 93.80 78.28 C 95.19 78.14 96.61 78.14 98.00 78.10 C 97.85 79.65 97.69 81.20 97.51 82.75 C 96.34 82.44 94.49 82.68 93.94 81.37 C 93.78 80.36 93.73 79.33 93.80 78.28 Z" fill="#ffffff"/>
<path d="M 102.23 78.15 C 103.62 78.16 105.02 78.16 106.41 78.16 C 106.34 79.28 106.23 80.39 106.07 81.50 C 104.52 82.74 102.30 82.84 101.82 85.00 C 101.39 86.99 99.99 86.36 98.44 86.82 C 98.25 85.34 98.09 83.86 97.94 82.37 C 99.06 82.31 100.17 82.18 101.26 82.00 C 102.99 81.36 102.02 79.65 102.23 78.15 Z" fill="#ffffff"/>
<path d="M 126.15 78.20 C 127.66 78.17 129.17 78.15 130.68 78.13 C 130.26 79.46 131.02 82.60 129.03 82.45 C 126.21 83.39 126.34 80.01 126.15 78.20 Z" fill="#ffffff"/>
<path d="M 134.56 78.12 C 135.99 78.14 137.43 78.17 138.86 78.20 C 138.48 79.84 139.34 82.13 137.09 82.47 L 134.77 82.32 C 134.67 80.92 134.60 79.52 134.56 78.12 Z" fill="#ffffff"/>
<path d="M 65.51 82.05 C 66.95 82.13 68.39 82.24 69.82 82.40 C 69.71 83.77 69.57 85.14 69.40 86.51 C 68.15 86.47 66.89 86.42 65.63 86.37 C 65.59 84.93 65.54 83.49 65.51 82.05 Z" fill="#f4f6f9"/>
<path d="M 130.38 82.04 C 131.59 82.13 132.79 82.22 133.99 82.31 L 134.75 82.42 C 134.64 83.78 134.52 85.14 134.38 86.50 C 133.15 86.45 131.91 86.39 130.68 86.31 C 130.58 85.21 130.50 84.10 130.44 82.99 L 130.38 82.04 Z" fill="#f4f6f9"/>
<path d="M 61.34 86.29 C 62.77 86.21 64.18 86.28 65.61 86.35 C 65.54 87.69 65.47 89.04 65.39 90.38 C 64.33 90.42 62.74 90.95 61.85 90.20 C 61.09 89.22 61.39 87.48 61.34 86.29 Z" fill="#ffffff"/>
<path d="M 69.77 86.21 C 71.16 86.22 72.54 86.25 73.93 86.27 C 73.72 87.53 73.91 89.18 73.20 90.27 C 72.22 90.94 70.73 90.42 69.62 90.35 C 69.67 88.97 69.72 87.59 69.77 86.21 Z" fill="#ffffff"/>
<path d="M 93.81 86.33 C 95.15 86.21 96.51 86.21 97.85 86.18 C 97.90 87.53 97.94 88.88 97.99 90.23 C 96.84 90.41 95.66 90.91 94.54 90.41 C 93.59 89.36 93.79 87.65 93.81 86.33 Z" fill="#ffffff"/>
<path d="M 106.41 86.21 C 106.17 87.46 106.48 89.48 105.48 90.40 C 104.21 91.09 103.36 90.46 102.16 90.04 C 102.14 88.79 102.14 87.55 102.17 86.30 C 103.58 86.24 105.00 86.22 106.41 86.21 Z" fill="#ffffff"/>
<path d="M 126.30 86.31 C 127.76 86.23 129.20 86.27 130.66 86.31 C 130.57 87.67 130.48 89.03 130.39 90.39 C 129.08 90.38 127.19 91.25 126.50 89.64 C 126.32 88.55 126.25 87.44 126.30 86.31 Z" fill="#ffffff"/>
<path d="M 134.73 86.20 C 136.11 86.22 137.49 86.25 138.87 86.27 C 138.69 87.58 138.79 89.09 138.23 90.30 C 137.14 90.89 135.79 90.42 134.61 90.33 C 134.64 88.95 134.68 87.58 134.73 86.20 Z" fill="#ffffff"/>
<path d="M 50.40 98.26 C 51.74 98.12 54.38 97.34 55.07 98.94 C 53.77 99.02 52.46 99.11 51.15 99.22 C 51.04 101.90 51.07 104.59 51.25 107.26 C 49.61 104.41 49.83 101.38 50.40 98.26 Z" fill="#9b1b1e"/>
<path d="M 57.15 98.07 C 58.26 98.07 59.38 98.08 60.49 98.11 C 60.84 99.06 61.19 100.01 61.56 100.95 C 60.42 100.17 59.25 99.43 58.08 98.69 C 57.27 99.73 56.45 100.77 55.64 101.80 L 55.28 99.90 C 55.88 99.27 56.51 98.66 57.15 98.07 Z" fill="#8d1f1d"/>
<path d="M 63.34 98.30 C 66.00 98.14 68.70 98.14 71.36 98.28 L 71.82 98.96 C 70.91 99.74 69.99 100.53 69.07 101.31 C 68.52 100.65 67.98 100.00 67.43 99.35 C 66.95 100.08 66.46 100.81 65.97 101.54 C 65.51 100.86 65.05 100.18 64.59 99.50 C 63.66 100.15 62.73 100.79 61.79 101.43 C 62.29 100.37 62.81 99.33 63.34 98.30 Z" fill="#8d211c"/>
<path d="M 75.52 97.95 C 76.94 98.19 78.32 98.56 79.69 98.97 C 81.35 98.20 82.94 98.05 84.75 98.01 C 84.79 101.39 85.52 104.37 83.77 107.46 C 83.98 104.56 83.98 101.66 83.96 98.75 C 81.99 99.10 80.78 99.87 79.25 101.08 C 77.92 100.11 76.56 99.26 75.09 98.50 L 75.52 97.95 Z" fill="#8d221d"/>
<path d="M 125.12 98.36 C 125.79 99.39 126.48 100.40 127.19 101.40 C 127.57 100.42 127.94 99.44 128.31 98.45 C 130.05 98.53 131.79 98.53 133.53 98.50 C 133.68 99.36 133.83 100.23 133.98 101.10 C 134.65 99.95 135.33 98.80 136.01 97.66 C 136.69 98.92 137.38 100.17 138.06 101.44 C 138.67 100.39 139.28 99.34 139.88 98.29 C 140.98 98.37 142.08 98.48 143.18 98.61 L 144.23 101.36 C 144.60 100.34 144.97 99.31 145.34 98.28 C 146.73 98.37 148.11 98.45 149.49 98.53 C 149.51 102.62 150.19 106.22 147.69 109.80 C 147.18 110.57 146.65 111.33 146.12 112.08 C 143.72 112.05 141.33 112.06 138.94 112.08 C 139.05 112.93 139.16 113.78 139.27 114.62 C 141.65 114.47 144.03 114.31 146.41 114.12 C 146.17 118.40 146.55 122.64 146.55 126.92 C 144.13 126.46 141.69 126.24 139.23 126.20 C 139.10 127.13 138.97 128.06 138.85 129.00 C 141.43 128.98 144.00 128.95 146.57 128.90 C 146.65 132.97 146.64 137.02 146.50 141.08 C 144.02 141.08 141.53 141.08 139.04 141.10 L 139.07 143.05 C 141.54 143.03 144.01 143.00 146.48 142.96 C 146.47 145.00 146.47 147.04 146.46 149.08 C 144.00 149.05 141.53 149.03 139.07 149.02 L 139.03 150.93 C 141.51 150.94 143.99 150.95 146.47 150.95 C 146.51 154.61 146.75 158.25 146.63 161.91 L 146.60 162.45 C 137.21 162.92 127.76 162.53 118.36 162.64 C 118.30 146.43 118.29 130.20 118.39 113.99 C 118.62 110.55 115.76 108.40 115.58 105.04 C 115.44 102.88 115.52 100.67 115.56 98.50 C 116.94 98.44 118.33 98.37 119.71 98.30 C 120.04 99.29 120.37 100.27 120.70 101.25 L 121.84 98.57 C 122.92 98.42 124.03 98.40 125.12 98.36 Z" fill="#9b7624"/>
<path d="M 51.15 99.22 C 52.46 99.11 53.77 99.02 55.07 98.94 L 55.28 99.90 L 55.64 101.80 C 56.45 100.77 57.27 99.73 58.08 98.69 C 59.25 99.43 60.42 100.17 61.56 100.95 L 61.79 101.43 C 62.73 100.79 63.66 100.15 64.59 99.50 C 65.05 100.18 65.51 100.86 65.97 101.54 C 66.46 100.81 66.95 100.08 67.43 99.35 C 67.98 100.00 68.52 100.65 69.07 101.31 C 69.99 100.53 70.91 99.74 71.82 98.96 C 72.26 99.78 72.68 100.59 73.09 101.41 C 73.75 100.43 74.41 99.46 75.09 98.50 C 76.56 99.26 77.92 100.11 79.25 101.08 C 80.78 99.87 81.99 99.10 83.96 98.75 C 83.98 101.66 83.98 104.56 83.77 107.46 C 82.78 109.69 81.41 111.40 81.56 113.99 C 81.66 130.10 81.60 146.32 81.54 162.44 C 72.20 162.34 62.86 162.35 53.52 162.43 C 53.37 146.29 53.55 130.14 53.53 113.99 C 53.64 111.35 52.28 109.55 51.25 107.26 C 51.07 104.59 51.04 101.90 51.15 99.22 Z" fill="#997524"/>
<path d="M 51.50 104.26 C 54.99 103.84 58.46 103.94 61.96 104.01 L 61.99 104.91 C 58.60 104.89 54.67 105.51 51.50 104.26 Z" fill="#c1952e"/>
<path d="M 64.24 104.33 C 65.55 103.77 70.07 103.01 70.64 104.62 C 68.81 105.40 65.97 105.43 64.24 104.33 Z" fill="#c1942e"/>
<path d="M 82.98 103.99 L 83.01 104.95 C 79.28 105.06 75.58 105.05 71.88 104.53 C 75.56 103.85 79.26 103.84 82.98 103.99 Z" fill="#bf932d"/>
<path d="M 116.83 104.04 C 120.60 103.83 124.36 103.88 128.09 104.53 C 124.53 104.98 120.97 105.20 117.39 104.87 L 116.83 104.04 Z" fill="#bf932d"/>
<path d="M 147.89 104.03 L 147.89 104.93 C 144.42 105.00 140.98 105.10 137.53 104.68 C 140.65 103.45 144.56 104.09 147.89 104.03 Z" fill="#c1952e"/>
<path d="M 59.54 106.71 C 61.94 106.47 64.39 106.56 66.80 106.56 C 66.80 107.85 66.80 109.14 66.80 110.43 C 64.31 110.42 61.82 110.42 59.33 110.41 C 59.38 109.17 59.41 107.93 59.54 106.71 Z" fill="#b98e2c"/>
<path d="M 68.44 106.71 C 70.82 106.48 73.26 106.57 75.65 106.59 C 75.65 107.86 75.65 109.14 75.65 110.42 C 73.17 110.42 70.70 110.41 68.22 110.40 C 68.28 109.17 68.31 107.93 68.44 106.71 Z" fill="#b98e2c"/>
<path d="M 133.44 106.70 C 135.84 106.47 138.28 106.57 140.69 106.59 C 140.69 107.87 140.70 109.15 140.70 110.43 C 138.21 110.42 135.72 110.41 133.23 110.40 C 133.28 109.17 133.31 107.93 133.44 106.70 Z" fill="#b98e2c"/>
<path d="M 100.21 107.84 L 100.28 108.36 L 100.72 108.42 L 100.72 107.96 C 103.15 108.47 104.11 109.04 105.68 110.95 L 103.81 112.41 L 103.28 112.27 C 101.40 111.56 100.13 111.68 98.21 112.07 C 97.44 111.45 96.67 110.82 95.91 110.20 C 97.34 109.40 98.77 108.61 100.21 107.84 Z" fill="#d0772c"/>
<path d="M 100.21 107.84 L 100.72 107.96 L 100.72 108.42 L 100.28 108.36 L 100.21 107.84 Z" fill="#634b17"/>
<path d="M 147.69 109.80 C 147.17 111.18 146.86 112.50 146.84 113.98 C 146.65 129.95 147.04 145.95 146.63 161.91 C 146.75 158.25 146.51 154.61 146.47 150.95 L 146.46 149.08 C 146.47 147.04 146.47 145.00 146.48 142.96 L 146.50 141.08 C 146.64 137.02 146.65 132.97 146.57 128.90 L 146.55 126.92 C 146.55 122.64 146.17 118.40 146.41 114.12 C 144.03 114.31 141.65 114.47 139.27 114.62 C 139.16 113.78 139.05 112.93 138.94 112.08 C 141.33 112.06 143.72 112.05 146.12 112.08 C 146.65 111.33 147.18 110.57 147.69 109.80 Z" fill="#b88e2c"/>
<path d="M 103.28 112.27 C 100.83 112.95 99.30 114.64 97.40 116.20 L 97.61 114.09 L 98.21 112.07 C 100.13 111.68 101.40 111.56 103.28 112.27 Z" fill="#74a7bf"/>
<path d="M 53.69 112.31 C 56.15 112.13 58.61 112.03 61.07 111.98 C 60.96 112.87 60.85 113.76 60.74 114.66 C 57.72 114.42 55.45 115.34 53.69 112.31 Z" fill="#b88e2c"/>
<path d="M 62.67 112.08 C 66.16 111.95 69.63 111.99 73.10 112.36 C 71.44 115.45 66.19 114.42 63.33 114.05 L 62.67 112.08 Z" fill="#b88d2c"/>
<path d="M 73.73 112.04 C 76.23 112.03 78.73 112.06 81.22 112.14 C 80.93 113.56 80.19 114.25 79.02 114.23 C 76.65 114.19 73.91 115.38 73.73 112.04 Z" fill="#ba902c"/>
<path d="M 103.28 112.27 L 103.81 112.41 C 103.81 113.14 103.78 113.86 103.71 114.57 C 102.81 114.60 101.92 114.58 101.02 114.51 C 101.76 116.31 103.37 115.44 104.98 115.78 L 103.99 118.45 C 104.99 118.64 105.99 118.82 106.99 119.01 C 107.27 119.64 107.55 120.27 107.83 120.90 C 107.06 122.17 106.31 123.44 105.55 124.71 L 105.28 120.44 L 104.42 122.36 C 102.51 122.99 101.20 123.61 99.73 124.99 C 99.25 123.54 98.97 121.94 98.28 120.59 C 97.64 119.82 96.90 119.12 96.09 118.49 C 96.60 117.02 97.12 115.56 97.61 114.09 L 97.40 116.20 C 99.30 114.64 100.83 112.95 103.28 112.27 Z" fill="#75624c"/>
<path d="M 118.78 112.31 C 121.20 112.13 123.62 112.04 126.05 111.99 C 125.93 112.87 125.82 113.76 125.71 114.64 C 122.73 114.38 120.45 115.37 118.78 112.31 Z" fill="#b88e2c"/>
<path d="M 127.95 112.08 C 130.99 112.02 134.03 112.02 137.08 112.08 C 136.96 112.90 136.84 113.71 136.71 114.52 C 133.91 114.55 131.10 114.55 128.29 114.52 C 128.18 113.71 128.06 112.90 127.95 112.08 Z" fill="#b88e2c"/>
<path d="M 57.05 116.09 C 60.35 116.02 63.63 116.02 66.92 116.10 L 66.94 117.90 C 63.63 117.99 60.33 117.99 57.02 117.92 L 57.05 116.09 Z" fill="#bb902c"/>
<path d="M 68.20 116.14 C 71.47 116.02 74.72 116.00 77.99 116.06 L 78.00 117.93 C 74.73 118.01 71.47 117.98 68.19 117.84 L 68.20 116.14 Z" fill="#ba8f2c"/>
<path d="M 98.64 116.25 C 100.16 116.61 101.67 117.05 103.18 117.48 C 102.54 118.60 101.89 119.73 101.25 120.85 C 100.23 119.39 99.31 117.90 98.64 116.25 Z" fill="#bb9d80"/>
<path d="M 122.03 116.09 C 125.31 116.01 128.57 116.03 131.85 116.15 L 131.85 117.86 C 128.56 117.98 125.29 118.00 122.00 117.91 L 122.03 116.09 Z" fill="#ba8f2c"/>
<path d="M 133.20 116.17 C 136.46 116.04 139.70 116.02 142.96 116.09 L 142.97 117.91 C 139.70 118.00 136.44 117.98 133.18 117.85 L 133.20 116.17 Z" fill="#bb8f2c"/>
<path d="M 96.09 118.49 C 96.90 119.12 97.64 119.82 98.28 120.59 L 96.31 120.57 C 96.63 121.39 96.97 122.21 97.33 123.02 C 94.86 124.90 95.08 127.38 94.44 130.15 C 95.13 130.36 95.83 130.58 96.52 130.81 C 95.65 131.42 94.78 132.04 93.92 132.67 C 92.51 134.06 93.40 137.55 93.15 139.40 C 91.07 138.44 91.84 136.83 91.51 134.96 C 90.93 130.70 92.85 127.02 93.03 122.69 C 93.45 120.90 94.89 119.79 96.09 118.49 Z" fill="#72c2ef"/>
<path d="M 54.37 120.37 C 55.61 119.85 60.30 118.95 60.64 120.66 C 58.80 121.62 56.18 121.32 54.37 120.37 Z" fill="#be922d"/>
<path d="M 64.04 120.64 C 65.33 121.02 66.59 121.55 67.85 122.03 C 68.94 121.48 70.04 120.92 71.13 120.36 C 71.53 122.19 71.88 124.01 72.20 125.85 C 71.39 124.61 70.58 123.37 69.76 122.13 C 68.30 124.01 67.99 125.53 67.79 127.85 C 69.36 128.01 70.93 128.19 72.49 128.40 C 69.43 129.59 66.33 129.05 63.06 129.02 C 63.05 126.08 62.78 123.40 64.04 120.64 Z" fill="#b68c2b"/>
<path d="M 74.23 120.33 C 76.43 119.53 78.67 119.22 80.71 120.61 C 78.60 121.22 76.12 121.82 74.23 120.33 Z" fill="#bf932d"/>
<path d="M 96.31 120.57 L 98.28 120.59 C 98.97 121.94 99.25 123.54 99.73 124.99 C 100.35 126.49 101.09 127.93 101.83 129.37 L 101.15 130.04 C 99.91 127.68 98.57 125.38 97.33 123.02 C 96.97 122.21 96.63 121.39 96.31 120.57 Z" fill="#d19245"/>
<path d="M 119.42 120.38 C 120.64 119.88 125.33 118.92 125.63 120.66 C 123.84 121.67 121.20 121.30 119.42 120.38 Z" fill="#bd912b"/>
<path d="M 129.06 120.50 C 130.29 121.06 131.48 121.75 132.66 122.41 C 133.80 121.70 134.94 121.00 136.08 120.30 C 136.73 122.44 136.69 124.14 136.33 126.33 C 135.94 125.37 135.91 122.07 134.13 122.99 C 133.57 124.46 133.27 125.93 132.92 127.46 C 134.02 127.56 135.12 127.67 136.21 127.79 L 136.96 129.04 C 134.09 129.05 131.23 129.04 128.36 129.01 C 128.39 128.47 128.41 127.93 128.43 127.38 C 129.65 127.51 130.87 127.63 132.09 127.75 C 131.73 125.91 131.31 124.10 130.81 122.29 C 129.47 123.58 128.97 124.86 128.45 126.63 C 128.36 124.49 128.14 122.52 129.06 120.50 Z" fill="#b98e2c"/>
<path d="M 57.47 122.55 C 58.87 122.39 60.30 122.38 61.71 122.34 C 61.72 123.15 61.74 123.95 61.75 124.76 C 60.09 124.81 58.42 124.87 56.76 124.91 C 56.98 124.12 57.21 123.33 57.47 122.55 Z" fill="#b88e2c"/>
<path d="M 77.75 122.39 C 77.89 123.28 78.02 124.17 78.14 125.06 C 75.88 124.55 73.52 125.75 72.81 122.91 C 74.44 122.71 76.11 122.50 77.75 122.39 Z" fill="#b58b2b"/>
<path d="M 122.47 122.56 C 123.87 122.40 125.30 122.39 126.70 122.35 C 126.74 123.16 126.77 123.97 126.80 124.78 C 125.11 124.82 123.43 124.85 121.74 124.87 C 121.97 124.09 122.21 123.32 122.47 122.56 Z" fill="#b88e2c"/>
<path d="M 138.56 122.56 C 139.94 122.40 141.34 122.38 142.73 122.33 C 142.82 123.19 142.91 124.05 143.00 124.91 C 141.35 124.85 139.70 124.79 138.05 124.72 C 138.20 124.00 138.37 123.28 138.56 122.56 Z" fill="#b88e2c"/>
<path d="M 65.81 122.43 C 66.31 124.12 66.72 125.83 67.07 127.56 C 66.01 127.62 64.95 127.67 63.89 127.73 C 64.03 125.38 63.70 123.97 65.81 122.43 Z" fill="#382a0c"/>
<path d="M 93.03 122.69 C 92.85 127.02 90.93 130.70 91.51 134.96 C 91.84 136.83 91.07 138.44 93.15 139.40 C 93.40 137.55 92.51 134.06 93.92 132.67 C 97.26 132.32 101.92 134.89 103.97 131.24 C 105.04 130.37 106.10 129.50 107.19 128.65 L 108.56 128.58 C 108.10 129.74 107.63 130.90 107.16 132.05 C 103.70 133.33 100.72 134.59 100.22 138.71 C 98.86 141.55 100.40 144.14 100.89 147.04 C 101.77 150.24 100.17 154.04 99.82 157.29 C 102.70 153.84 102.59 149.90 104.21 145.90 C 105.21 143.81 104.02 143.47 102.85 142.00 L 102.86 140.16 C 103.49 140.44 104.11 140.72 104.74 141.00 C 105.50 140.70 106.26 140.39 107.02 140.09 C 106.83 141.63 106.62 143.17 106.37 144.70 L 107.67 144.45 C 107.09 146.85 106.62 148.30 104.62 149.92 C 104.69 156.12 103.95 161.66 107.32 167.24 C 106.05 167.55 104.77 167.83 103.49 168.09 C 104.47 167.23 104.95 166.21 104.95 165.01 C 103.39 165.28 102.55 166.59 102.86 168.13 C 101.94 168.19 101.01 168.24 100.09 168.30 C 98.71 168.38 97.34 168.45 95.97 168.50 C 97.10 166.52 98.78 166.82 100.71 166.43 C 102.10 164.19 102.98 162.26 103.08 159.56 C 100.55 161.76 100.28 166.03 96.35 165.58 C 99.32 161.00 103.62 158.84 104.30 152.95 C 102.31 155.62 100.25 158.24 98.28 160.92 C 98.04 159.79 97.80 158.67 97.55 157.54 C 96.80 159.32 96.43 160.87 96.35 162.80 C 95.95 163.51 95.55 164.22 95.15 164.92 C 95.35 166.21 95.54 167.50 95.73 168.78 C 94.08 168.51 92.42 168.24 90.76 167.97 C 91.80 162.84 93.16 157.89 94.91 152.96 C 94.70 157.08 93.17 160.73 92.25 164.70 C 94.57 162.30 96.10 159.44 97.65 156.52 C 98.99 154.28 98.75 151.26 99.02 148.70 C 98.26 149.53 97.51 150.37 96.75 151.20 C 97.85 147.00 99.61 143.52 98.44 139.08 C 98.73 137.77 99.02 136.46 99.32 135.15 C 98.63 135.31 97.93 135.47 97.24 135.63 C 96.25 135.25 95.27 134.86 94.28 134.48 C 93.92 140.43 95.47 146.16 94.95 152.12 C 93.87 151.26 92.66 150.45 91.77 149.39 C 91.23 147.01 92.01 144.22 92.28 141.82 C 91.26 139.54 90.02 137.64 90.25 135.03 C 90.51 130.86 91.96 126.72 93.03 122.69 Z" fill="#351214"/>
<path d="M 104.42 122.36 L 103.89 123.50 C 103.43 124.18 102.97 124.86 102.49 125.53 C 102.42 126.94 102.69 128.14 101.83 129.37 C 101.09 127.93 100.35 126.49 99.73 124.99 C 101.20 123.61 102.51 122.99 104.42 122.36 Z" fill="#d64439"/>
<path d="M 130.81 122.29 C 131.31 124.10 131.73 125.91 132.09 127.75 C 130.87 127.63 129.65 127.51 128.43 127.38 L 128.45 126.63 C 128.97 124.86 129.47 123.58 130.81 122.29 Z" fill="#3d2d0e"/>
<path d="M 134.13 122.99 C 135.91 122.07 135.94 125.37 136.33 126.33 L 136.21 127.79 C 135.12 127.67 134.02 127.56 132.92 127.46 C 133.27 125.93 133.57 124.46 134.13 122.99 Z" fill="#3e2e0e"/>
<path d="M 97.33 123.02 C 97.13 125.46 97.15 127.76 97.50 130.18 C 98.73 130.16 99.95 130.16 101.18 130.17 L 101.52 132.48 C 99.85 131.94 98.18 131.37 96.52 130.81 C 95.83 130.58 95.13 130.36 94.44 130.15 C 95.08 127.38 94.86 124.90 97.33 123.02 Z" fill="#50353b"/>
<path d="M 97.33 123.02 C 98.57 125.38 99.91 127.68 101.15 130.04 L 101.18 130.17 C 99.95 130.16 98.73 130.16 97.50 130.18 C 97.15 127.76 97.13 125.46 97.33 123.02 Z" fill="#d52929"/>
<path d="M 55.23 126.40 C 57.07 126.16 58.98 126.23 60.84 126.23 C 61.19 127.11 61.54 127.99 61.88 128.86 C 59.20 129.00 56.54 128.99 53.86 128.78 C 54.28 127.97 54.74 127.18 55.23 126.40 Z" fill="#b68c2a"/>
<path d="M 74.29 126.38 C 76.39 126.15 78.57 126.26 80.68 126.30 C 80.78 127.17 80.87 128.03 80.97 128.90 C 78.50 128.97 76.03 129.02 73.56 129.03 C 73.78 128.14 74.02 127.26 74.29 126.38 Z" fill="#b68c2a"/>
<path d="M 108.25 126.27 C 108.73 126.75 108.73 126.75 108.25 126.27 Z" fill="#b69a7e"/>
<path d="M 120.34 126.47 C 122.15 126.18 124.03 126.25 125.86 126.22 C 125.96 127.17 126.06 128.11 126.16 129.06 C 123.73 128.99 121.30 128.90 118.87 128.73 C 119.33 127.95 119.82 127.20 120.34 126.47 Z" fill="#b68c2a"/>
<path d="M 139.23 126.20 C 141.69 126.24 144.13 126.46 146.55 126.92 L 146.57 128.90 C 144.00 128.95 141.43 128.98 138.85 129.00 C 138.97 128.06 139.10 127.13 139.23 126.20 Z" fill="#b68c2a"/>
<path d="M 108.56 128.58 L 109.76 128.55 C 109.54 130.57 109.15 132.39 108.40 134.27 C 105.35 134.25 105.01 136.15 106.78 138.27 L 107.02 140.09 C 106.26 140.39 105.50 140.70 104.74 141.00 C 104.11 140.72 103.49 140.44 102.86 140.16 L 102.85 142.00 C 101.91 140.97 101.03 139.87 100.22 138.71 C 100.72 134.59 103.70 133.33 107.16 132.05 C 107.63 130.90 108.10 129.74 108.56 128.58 Z" fill="#6ab2db"/>
<path d="M 57.06 130.90 C 64.03 130.71 71.01 130.72 77.98 130.93 L 77.99 132.77 C 76.24 132.85 74.49 132.94 72.74 133.03 C 72.73 134.35 72.72 135.66 72.71 136.98 C 74.46 137.13 76.21 137.28 77.96 137.44 C 77.88 138.06 77.80 138.68 77.72 139.30 C 76.02 139.50 74.31 139.71 72.61 139.91 C 72.67 141.48 72.73 143.05 72.80 144.62 C 74.72 145.11 77.65 144.33 78.42 146.66 C 76.67 146.84 74.91 147.00 73.16 147.15 C 72.84 148.32 72.52 149.49 72.20 150.66 C 71.57 150.78 70.95 150.91 70.32 151.04 C 70.22 148.55 70.14 146.07 70.05 143.58 C 68.36 143.58 66.67 143.59 64.98 143.60 C 64.92 146.22 64.83 148.83 64.60 151.44 C 63.36 150.16 62.57 148.68 61.84 147.08 C 60.09 146.95 58.34 146.84 56.59 146.70 C 57.45 144.51 61.09 144.76 63.09 144.11 C 63.03 142.75 62.97 141.39 62.91 140.03 C 61.03 139.78 59.16 139.53 57.28 139.28 C 57.21 138.70 57.14 138.12 57.06 137.54 C 58.92 137.30 60.86 137.11 62.66 136.62 C 63.08 135.54 63.07 134.47 62.61 133.41 C 60.84 132.91 58.88 132.82 57.05 132.66 L 57.06 130.90 Z" fill="#b88e2c"/>
<path d="M 122.05 130.98 C 129.01 130.73 135.98 130.76 142.94 130.98 L 142.95 132.74 C 141.20 132.84 139.46 132.93 137.71 133.01 C 137.64 134.04 136.91 135.55 137.50 136.47 C 139.04 137.33 141.18 137.26 142.91 137.58 C 142.84 138.15 142.77 138.72 142.70 139.30 C 140.97 139.49 139.24 139.69 137.51 139.88 C 137.56 141.48 137.62 143.09 137.70 144.69 C 139.66 145.14 142.54 144.35 143.42 146.66 C 141.62 146.82 139.82 146.96 138.03 147.08 C 137.67 148.21 137.32 149.34 136.97 150.46 C 136.38 150.79 135.79 151.13 135.20 151.47 C 135.18 148.93 135.03 146.40 134.87 143.86 C 133.33 143.86 131.79 143.86 130.25 143.87 C 130.19 146.51 130.01 149.14 129.80 151.78 C 128.78 150.23 127.74 148.70 126.74 147.14 C 125.01 146.98 123.28 146.81 121.56 146.62 C 122.76 143.68 128.88 146.18 128.04 142.03 C 128.26 139.17 124.15 139.72 122.29 139.20 C 122.22 138.66 122.15 138.12 122.08 137.58 C 123.92 137.33 125.86 137.13 127.64 136.61 C 128.10 135.53 128.09 134.47 127.60 133.42 C 125.84 132.88 123.87 132.81 122.03 132.64 L 122.05 130.98 Z" fill="#b98e2c"/>
<path d="M 65.10 132.57 C 66.77 132.58 68.45 132.59 70.12 132.59 C 70.12 135.21 70.12 137.82 70.12 140.43 C 68.46 140.44 66.80 140.44 65.14 140.45 C 65.14 137.82 65.12 135.20 65.10 132.57 Z" fill="#000000"/>
<path d="M 130.10 132.57 C 131.77 132.58 133.44 132.58 135.11 132.59 C 135.10 135.20 135.10 137.82 135.11 140.43 C 133.45 140.44 131.79 140.45 130.14 140.46 C 130.14 137.83 130.12 135.20 130.10 132.57 Z" fill="#000000"/>
<path d="M 53.69 134.53 C 55.90 134.66 60.55 133.10 61.43 135.94 C 58.92 135.77 55.38 136.82 53.69 134.53 Z" fill="#b0882a"/>
<path d="M 74.60 134.50 C 76.89 134.13 79.80 133.70 81.44 135.74 C 78.83 135.96 76.23 136.01 73.62 135.93 L 74.60 134.50 Z" fill="#b1892a"/>
<path d="M 108.40 134.27 C 107.93 135.64 107.36 136.95 106.78 138.27 C 105.01 136.15 105.35 134.25 108.40 134.27 Z" fill="#636972"/>
<path d="M 126.35 136.00 C 123.78 136.03 121.25 135.87 118.72 135.36 C 120.89 134.81 125.48 132.78 126.35 136.00 Z" fill="#b28929"/>
<path d="M 100.22 138.71 C 101.03 139.87 101.91 140.97 102.85 142.00 C 104.02 143.47 105.21 143.81 104.21 145.90 C 102.59 149.90 102.70 153.84 99.82 157.29 C 100.17 154.04 101.77 150.24 100.89 147.04 C 100.40 144.14 98.86 141.55 100.22 138.71 Z" fill="#c52027"/>
<path d="M 53.63 141.29 C 56.08 141.08 58.54 141.06 60.99 141.02 L 60.96 143.14 C 58.64 142.84 54.68 144.01 53.63 141.29 Z" fill="#b98f2c"/>
<path d="M 74.03 141.01 C 76.19 141.37 80.63 140.01 81.30 142.83 C 78.89 142.99 76.47 143.08 74.06 143.14 L 74.03 141.01 Z" fill="#b98f2c"/>
<path d="M 125.96 140.97 L 125.93 143.15 C 123.44 143.14 121.14 142.99 118.82 142.00 C 121.15 141.10 123.49 140.98 125.96 140.97 Z" fill="#ba8f2c"/>
<path d="M 139.04 141.10 C 141.53 141.08 144.02 141.08 146.50 141.08 L 146.48 142.96 C 144.01 143.00 141.54 143.03 139.07 143.05 L 139.04 141.10 Z" fill="#b98e2c"/>
<path d="M 93.97 141.93 C 93.67 143.93 95.15 148.96 92.03 149.20 C 92.00 147.86 91.98 146.53 91.98 145.20 C 92.22 143.64 92.89 142.55 93.97 141.93 Z" fill="#5c9abb"/>
<path d="M 130.25 143.87 C 131.79 143.86 133.33 143.86 134.87 143.86 C 135.03 146.40 135.18 148.93 135.20 151.47 L 135.14 152.16 L 132.78 152.10 L 132.12 152.09 L 129.84 152.14 L 129.80 151.78 C 130.01 149.14 130.19 146.51 130.25 143.87 Z" fill="#000000"/>
<path d="M 60.77 148.66 C 60.91 149.43 61.04 150.20 61.16 150.98 C 58.98 150.68 54.59 151.94 53.63 149.34 C 55.99 148.99 58.39 148.75 60.77 148.66 Z" fill="#b88e2c"/>
<path d="M 74.06 148.92 C 76.32 149.27 80.62 147.95 81.41 150.82 C 78.95 150.93 76.48 150.96 74.02 150.98 L 74.06 148.92 Z" fill="#bb902c"/>
<path d="M 119.54 149.30 C 121.63 148.95 123.82 148.97 125.94 148.90 L 125.98 151.03 C 123.70 150.97 121.43 150.92 119.16 150.74 L 119.54 149.30 Z" fill="#b98e2a"/>
<path d="M 139.07 149.02 C 141.53 149.03 144.00 149.05 146.46 149.08 L 146.47 150.95 C 143.99 150.95 141.51 150.94 139.03 150.93 L 139.07 149.02 Z" fill="#ba8f2c"/>
<path d="M 57.48 152.65 C 60.57 152.22 63.77 152.40 66.88 152.35 C 66.91 153.20 66.94 154.05 66.96 154.89 C 63.55 155.00 60.13 155.01 56.71 154.87 C 56.95 154.12 57.21 153.38 57.48 152.65 Z" fill="#b78d2b"/>
<path d="M 68.53 152.54 C 71.57 152.21 74.71 152.44 77.77 152.50 C 77.87 153.30 77.97 154.10 78.07 154.91 C 74.68 155.01 71.31 154.99 67.93 154.80 C 68.11 154.04 68.31 153.29 68.53 152.54 Z" fill="#b78d2b"/>
<path d="M 122.37 152.66 C 124.85 152.39 127.35 152.26 129.84 152.14 L 132.12 152.09 C 131.96 153.00 131.79 153.91 131.62 154.83 C 128.34 154.98 125.09 155.01 121.81 154.88 C 121.99 154.14 122.17 153.39 122.37 152.66 Z" fill="#b78d2b"/>
<path d="M 132.78 152.10 L 135.14 152.16 C 137.68 152.26 140.20 152.43 142.73 152.60 C 142.84 153.37 142.95 154.13 143.06 154.89 C 139.87 155.00 136.71 154.98 133.53 154.81 C 133.29 153.90 133.04 153.00 132.78 152.10 Z" fill="#b78d2b"/>
<path d="M 53.62 156.41 C 56.03 156.21 58.45 156.13 60.86 156.08 L 60.91 157.96 C 58.40 157.70 55.33 158.71 53.62 156.41 Z" fill="#b2892a"/>
<path d="M 63.13 156.15 C 66.00 156.11 69.02 155.85 71.85 156.37 C 72.31 156.67 72.72 157.09 73.08 157.61 C 69.74 157.99 66.40 158.00 63.05 157.89 L 63.13 156.15 Z" fill="#b1882a"/>
<path d="M 74.14 156.09 C 76.43 156.37 80.25 155.24 81.44 157.73 C 79.00 157.87 76.55 157.91 74.10 157.92 L 74.14 156.09 Z" fill="#b3892a"/>
<path d="M 119.57 156.40 C 121.63 156.08 123.77 156.12 125.85 156.08 L 125.89 157.95 C 123.65 157.90 121.42 157.86 119.18 157.69 L 119.57 156.40 Z" fill="#b1882a"/>
<path d="M 56.97 159.14 C 60.32 159.03 63.66 159.04 67.01 159.16 C 66.90 159.94 66.79 160.73 66.68 161.52 C 63.55 161.56 60.43 161.58 57.30 161.57 C 57.19 160.76 57.08 159.95 56.97 159.14 Z" fill="#b88e2c"/>
<path d="M 68.44 159.32 C 72.52 158.75 76.86 159.18 80.95 159.42 C 80.89 160.07 80.83 160.72 80.78 161.37 C 76.57 161.52 72.38 161.59 68.17 161.55 C 68.25 160.80 68.34 160.06 68.44 159.32 Z" fill="#b88e2c"/>
<path d="M 122.06 159.13 C 125.32 159.04 128.56 159.06 131.82 159.19 L 131.83 160.86 C 128.56 160.98 125.31 161.00 122.04 160.90 L 122.06 159.13 Z" fill="#b88e2c"/>
<path d="M 133.24 159.20 C 136.47 159.07 139.69 159.04 142.93 159.13 L 142.94 160.91 C 139.68 161.00 136.45 160.98 133.19 160.84 L 133.24 159.20 Z" fill="#b88e2c"/>
<path d="M 104.95 165.01 C 104.95 166.21 104.47 167.23 103.49 168.09 L 102.86 168.13 C 102.55 166.59 103.39 165.28 104.95 165.01 Z" fill="#8a1b1c"/>
<path d="M 138.07 167.33 C 140.62 167.67 143.12 168.57 145.60 169.24 C 145.38 169.67 145.15 170.09 144.93 170.52 C 144.08 170.79 143.23 171.07 142.40 171.38 C 142.18 172.77 142.03 174.16 141.96 175.56 C 140.20 173.52 138.13 171.37 136.99 168.91 C 136.71 168.21 137.07 167.68 138.07 167.33 Z" fill="#3c6b9a"/>
<path d="M 62.79 168.07 C 64.96 169.57 64.57 171.59 63.09 173.44 C 62.58 172.34 62.76 169.07 61.03 169.05 C 59.75 169.71 57.46 170.66 58.23 172.45 C 59.40 173.08 60.57 173.68 61.76 174.26 C 59.82 175.12 58.79 175.47 57.25 173.73 C 54.36 170.54 59.67 165.75 62.79 168.07 Z" fill="#224475"/>
<path d="M 139.55 169.05 C 140.99 168.40 142.10 171.10 140.24 171.01 C 139.30 170.46 139.07 169.81 139.55 169.05 Z" fill="#91acc6"/>
<path d="M 67.46 172.67 C 66.59 174.79 65.04 176.27 63.46 177.85 C 64.24 179.10 65.00 180.35 65.74 181.61 C 63.62 180.84 62.16 179.45 60.61 177.89 C 62.53 176.06 64.59 172.74 67.46 172.67 Z" fill="#33416e"/>
<path d="M 134.96 172.24 C 136.44 173.38 138.01 174.49 139.39 175.76 C 140.10 176.18 140.18 176.76 139.62 177.51 C 138.72 178.91 137.50 180.29 135.85 180.78 C 133.36 180.71 130.97 178.58 130.99 176.04 C 131.45 173.77 133.13 173.22 134.96 172.24 Z" fill="#46729e"/>
<path d="M 135.32 174.68 L 135.36 176.81 L 137.90 177.02 C 137.26 177.70 136.60 178.35 135.92 178.99 C 134.79 179.19 133.82 177.70 133.00 177.06 L 132.73 176.06 C 133.18 175.11 134.05 174.65 135.32 174.68 Z" fill="#dfe6ee"/>
<path d="M 72.10 177.06 C 71.14 179.59 69.37 181.56 68.73 184.23 C 71.83 183.85 72.61 180.62 75.53 179.37 C 74.79 182.14 73.34 184.45 70.92 186.04 C 69.11 186.03 66.53 184.15 67.07 182.13 C 68.10 180.09 69.56 177.32 72.10 177.06 Z" fill="#2d4270"/>
<path d="M 127.93 178.49 C 130.45 179.54 132.70 181.47 134.72 183.27 C 133.43 183.46 132.25 183.48 130.96 183.36 C 130.24 184.73 129.52 186.08 128.55 187.28 C 127.61 184.53 126.78 181.75 125.95 178.98 C 126.61 178.79 127.27 178.63 127.93 178.49 Z" fill="#386897"/>
<path d="M 129.06 180.83 C 129.90 181.17 130.22 181.85 130.03 182.87 C 128.63 183.27 127.17 181.16 129.06 180.83 Z" fill="#9ab1ca"/>
<path d="M 76.90 181.27 C 78.68 182.26 80.28 183.34 81.80 184.69 C 80.78 186.24 80.12 190.00 78.00 190.27 C 76.37 189.76 74.79 188.90 73.26 188.14 C 74.46 185.84 75.67 183.55 76.90 181.27 Z" fill="#234375"/>
<path d="M 123.65 182.31 C 124.96 184.10 126.13 186.45 126.72 188.59 C 125.04 188.99 123.58 186.97 121.84 186.75 C 122.16 187.86 122.50 188.97 122.84 190.07 C 122.34 190.41 121.84 190.74 121.34 191.08 C 120.13 188.76 118.93 186.44 117.75 184.10 C 119.31 183.52 122.05 181.29 123.65 182.31 Z" fill="#386897"/>
<path d="M 77.00 183.88 C 78.16 183.42 80.60 184.09 79.84 185.70 C 78.57 186.63 76.95 185.28 77.00 183.88 Z" fill="#943044"/>
<path d="M 122.91 184.07 C 123.78 185.64 121.33 186.80 120.18 185.82 C 119.24 184.26 121.79 183.11 122.91 184.07 Z" fill="#c0cfde"/>
<path d="M 83.43 185.02 C 85.59 184.88 88.51 185.56 89.18 187.95 C 87.47 187.62 85.76 187.25 84.05 186.90 C 85.50 187.99 86.96 189.06 88.42 190.13 C 86.62 190.10 84.83 190.06 83.03 190.02 C 84.80 191.16 86.59 191.73 87.39 193.85 C 85.25 193.33 83.15 192.68 81.05 192.00 C 81.77 189.67 82.45 187.24 83.43 185.02 Z" fill="#443e67"/>
<path d="M 116.82 185.80 C 117.30 187.60 118.99 190.15 118.08 191.94 C 116.59 192.86 114.73 193.32 113.07 193.88 C 112.25 191.47 111.40 189.06 110.65 186.63 C 112.81 185.85 114.54 184.69 116.82 185.80 Z" fill="#2c6091"/>
<path d="M 76.12 186.47 C 77.16 185.86 79.03 187.32 78.04 188.36 C 76.96 188.91 75.21 187.59 76.12 186.47 Z" fill="#bd2833"/>
<path d="M 115.82 186.99 C 115.82 188.35 114.21 189.63 113.01 188.66 C 112.13 186.85 114.61 186.53 115.82 186.99 Z" fill="#aec1d5"/>
<path d="M 93.24 188.26 L 96.41 187.73 C 95.47 189.84 94.80 191.88 94.36 194.16 C 95.21 194.06 96.06 193.94 96.91 193.80 C 97.74 192.34 97.62 191.03 96.55 189.88 C 97.07 189.30 97.59 188.73 98.12 188.15 L 99.94 191.10 C 99.94 191.41 99.95 191.72 99.95 192.02 C 99.06 193.60 98.64 195.17 96.86 195.95 C 95.42 196.01 93.95 195.66 92.53 195.44 C 92.74 193.05 92.85 190.63 93.24 188.26 Z" fill="#38426c"/>
<path d="M 101.16 188.31 C 103.15 187.91 105.12 188.01 107.13 188.13 C 105.97 189.92 104.21 190.01 102.36 190.74 C 103.81 190.87 105.25 191.05 106.69 191.27 C 106.44 192.75 103.61 192.99 102.52 193.80 C 104.20 193.92 105.87 194.01 107.55 194.09 C 106.93 196.91 103.32 195.69 101.19 196.03 C 101.13 193.68 100.21 190.46 101.16 188.31 Z" fill="#4a78a3"/>
<path d="M 117.04 190.18 C 116.91 190.89 116.41 191.45 115.54 191.83 C 113.75 192.43 113.27 190.59 114.64 189.67 C 115.86 189.17 116.66 189.34 117.04 190.18 Z" fill="#b2c4d7"/>
</svg>
