<?xml version="1.0" encoding="UTF-8" standalone="no"?>
<svg xmlns:dc="http://purl.org/dc/elements/1.1/" xmlns:cc="http://creativecommons.org/ns#" xmlns:rdf="http://www.w3.org/1999/02/22-rdf-syntax-ns#" xmlns:svg="http://www.w3.org/2000/svg" xmlns="http://www.w3.org/2000/svg" xmlns:sodipodi="http://sodipodi.sourceforge.net/DTD/sodipodi-0.dtd" xmlns:inkscape="http://www.inkscape.org/namespaces/inkscape" inkscape:version="1.0 (4035a4f, 2020-05-01)" sodipodi:docname="61.svg" id="svg1697" height="200.0pt" width="200.0pt" viewBox="0 0 200 200" version="1.1">
  <metadata id="metadata1703">
    <rdf:RDF>
      <cc:Work rdf:about="">
        <dc:format>image/svg+xml</dc:format>
        <dc:type rdf:resource="http://purl.org/dc/dcmitype/StillImage"/>
      </cc:Work>
    </rdf:RDF>
  </metadata>
  <defs id="defs1701"/>
  <sodipodi:namedview inkscape:current-layer="svg1697" inkscape:cy="133.33333" inkscape:cx="133.33333" inkscape:zoom="1.75125" showgrid="false" id="namedview1699" inkscape:window-height="480" inkscape:window-width="640" inkscape:pageshadow="2" inkscape:pageopacity="0" guidetolerance="10" gridtolerance="10" objecttolerance="10" borderopacity="1" bordercolor="#666666" pagecolor="#ffffff"/>
  <path style="fill:#ffffff;fill-opacity:0" id="path1477" fill="#ffffff" d="M 0.00 0.00 L 97.44 0.00 C 93.02 0.83 88.31 1.01 83.83 1.85 C 63.21 5.18 43.82 15.29 29.23 30.23 C 13.17 46.42 3.02 68.24 1.10 90.98 C -0.25 100.58 0.92 109.94 2.51 119.45 C 7.01 142.66 20.03 163.76 38.59 178.36 C 54.82 191.22 75.29 198.92 96.02 199.55 C 96.85 199.47 97.59 199.62 98.24 200.00 L 0.00 200.00 L 0.00 0.00 Z"/>
  <path id="path1479" fill="#e46316" d="M 97.44 0.00 L 102.89 0.00 L 103.69 0.25 C 112.95 1.10 121.96 2.29 130.82 5.24 C 153.93 12.60 174.05 28.75 186.24 49.72 C 194.05 62.99 198.72 78.19 199.61 93.56 L 200.00 94.49 L 200.00 105.78 L 199.59 106.63 C 198.46 127.30 190.44 147.35 177.29 163.31 C 160.15 184.38 134.15 197.86 107.00 199.43 C 105.52 199.64 103.79 199.29 102.46 200.00 L 98.24 200.00 C 97.59 199.62 96.85 199.47 96.02 199.55 C 75.29 198.92 54.82 191.22 38.59 178.36 C 20.03 163.76 7.01 142.66 2.51 119.45 C 0.92 109.94 -0.25 100.58 1.10 90.98 C 3.02 68.24 13.17 46.42 29.23 30.23 C 43.82 15.29 63.21 5.18 83.83 1.85 C 88.31 1.01 93.02 0.83 97.44 0.00 Z"/>
  <path style="fill:#ffffff;fill-opacity:0" id="path1481" fill="#ffffff" d="M 102.89 0.00 L 200.00 0.00 L 200.00 94.49 L 199.61 93.56 C 198.72 78.19 194.05 62.99 186.24 49.72 C 174.05 28.75 153.93 12.60 130.82 5.24 C 121.96 2.29 112.95 1.10 103.69 0.25 L 102.89 0.00 Z"/>
  <path id="path1483" fill="#083282" d="M 96.00 3.01 C 115.65 2.08 135.51 7.29 152.11 17.86 C 173.87 31.48 189.72 53.92 195.19 79.01 C 199.99 100.80 197.18 124.12 187.00 144.00 C 176.59 164.70 158.56 181.34 137.10 190.07 C 114.85 199.24 89.08 199.66 66.53 191.27 C 45.47 183.55 27.39 168.26 16.18 148.85 C 5.54 130.72 1.25 109.03 3.81 88.20 C 6.71 63.56 19.53 40.39 38.82 24.80 C 54.79 11.57 75.28 3.81 96.00 3.01 Z"/>
  <path id="path1485" fill="#e46316" d="M 96.32 7.44 C 98.44 7.35 100.59 7.36 102.72 7.39 C 103.08 12.31 102.70 17.38 102.89 22.33 C 104.94 22.82 107.19 22.30 109.30 22.55 C 109.33 24.21 109.33 25.88 109.30 27.54 C 105.02 27.87 100.61 27.69 96.31 27.64 C 96.09 20.96 96.08 14.12 96.32 7.44 Z"/>
  <path id="path1487" fill="#e46316" d="M 88.79 8.11 C 89.08 9.44 89.37 10.78 89.64 12.12 C 88.60 14.23 82.12 12.02 84.12 15.97 C 86.05 16.06 88.02 15.30 89.94 15.08 C 90.56 16.44 91.03 18.41 90.89 19.89 C 89.18 20.59 85.98 20.21 85.03 21.79 L 85.86 24.05 C 87.89 23.81 89.92 22.96 91.96 23.03 C 92.22 24.52 93.03 26.21 92.73 27.70 C 88.57 28.45 84.28 29.59 80.12 30.06 C 78.63 23.66 77.20 16.77 76.25 10.28 C 80.25 9.55 84.82 8.16 88.79 8.11 Z"/>
  <path id="path1489" fill="#ffffff" d="M 97.37 8.47 C 98.81 8.44 100.26 8.43 101.70 8.42 C 101.96 13.35 101.71 18.40 101.80 23.35 C 103.87 23.92 106.25 23.37 108.41 23.43 C 108.41 24.47 108.42 25.51 108.45 26.55 C 104.73 26.60 101.02 26.54 97.30 26.59 C 97.32 20.56 97.20 14.50 97.37 8.47 Z"/>
  <path id="path1491" fill="#ffffff" d="M 88.24 9.63 C 89.71 13.83 84.25 11.44 82.48 13.36 C 82.67 14.77 83.05 16.13 83.51 17.47 C 85.41 17.05 87.52 16.13 89.46 16.44 C 91.20 20.72 86.49 19.08 84.15 20.19 C 84.18 21.66 84.43 23.14 84.62 24.59 C 86.52 25.96 91.99 22.30 91.75 26.05 L 91.25 27.12 C 87.69 27.26 84.19 28.91 80.70 28.68 C 79.94 22.93 77.71 16.40 77.64 10.79 C 80.93 10.96 85.37 8.49 88.24 9.63 Z"/>
  <path id="path1493" fill="#e46316" d="M 127.64 14.33 C 128.13 15.50 128.81 17.49 126.87 17.61 C 125.40 17.59 124.21 17.97 123.31 18.75 C 126.56 21.03 127.44 24.70 124.95 27.97 C 120.86 32.57 112.61 30.08 111.66 24.04 C 112.30 22.81 114.41 22.83 115.64 22.30 C 116.49 23.62 117.05 26.91 119.22 25.20 L 119.85 24.00 C 118.27 22.19 116.34 21.00 114.99 18.95 C 113.43 16.01 114.65 12.13 117.68 10.69 C 121.20 9.06 126.15 10.60 127.64 14.33 Z"/>
  <path id="path1495" fill="#ffffff" d="M 125.83 13.26 C 127.21 14.40 127.62 18.31 124.84 16.43 C 123.97 14.59 122.43 12.47 120.34 14.29 C 118.53 18.97 125.61 19.36 125.39 24.00 C 125.32 28.43 120.09 30.58 116.42 28.70 C 114.79 28.14 111.42 24.80 114.06 23.43 C 115.76 23.77 116.27 26.82 118.14 26.58 C 120.55 26.96 121.45 23.65 119.70 22.35 C 117.40 20.16 114.56 18.71 115.53 14.95 C 116.19 10.19 123.25 10.20 125.83 13.26 Z"/>
  <path id="path1497" fill="#e46316" d="M 67.92 12.77 L 68.57 13.36 C 71.27 19.24 74.17 25.02 76.85 30.90 C 75.03 32.00 73.05 32.89 71.11 33.77 C 69.74 32.17 69.05 29.83 68.08 27.95 C 67.46 25.85 65.75 27.44 64.59 28.02 C 65.07 30.57 67.38 32.89 67.64 35.47 C 65.76 36.29 63.94 37.21 62.07 38.05 L 61.49 37.54 C 58.79 31.81 55.85 25.82 53.26 20.08 C 54.18 18.73 57.39 18.03 58.92 17.04 C 60.36 18.71 60.99 21.29 62.12 23.24 C 63.35 23.38 64.34 22.94 65.08 21.91 C 64.47 19.68 62.73 17.70 62.30 15.43 C 64.16 14.52 66.00 13.52 67.92 12.77 Z"/>
  <path id="path1499" fill="#ffffff" d="M 67.15 14.18 L 68.08 14.61 C 70.49 19.82 72.87 25.11 75.60 30.16 C 74.76 31.32 73.06 31.62 71.91 32.46 C 69.97 31.15 69.22 27.35 67.86 25.29 C 66.33 25.93 64.84 26.67 63.32 27.34 C 63.23 29.88 66.49 32.63 66.15 35.03 C 64.85 35.34 63.21 37.18 61.98 36.32 C 59.56 31.16 57.25 25.88 54.49 20.88 C 54.79 19.48 57.07 19.25 58.11 18.40 C 60.16 19.22 60.29 23.62 62.06 24.78 C 63.28 24.09 66.24 23.49 66.53 22.11 C 65.71 20.16 63.97 18.05 63.71 15.99 C 64.81 15.20 65.95 14.60 67.15 14.18 Z"/>
  <path id="path1501" fill="#083282" d="M 121.18 15.12 C 122.69 14.19 124.22 16.45 123.17 17.74 C 121.88 18.09 120.56 16.24 121.18 15.12 Z"/>
  <path id="path1503" fill="#e46316" d="M 136.31 15.19 L 137.05 14.75 C 140.65 16.56 144.25 18.38 147.82 20.24 C 148.12 21.63 146.49 23.53 145.84 24.77 C 143.85 24.41 139.90 20.07 139.54 24.04 C 140.73 25.49 144.12 25.73 144.61 27.61 C 143.83 28.59 143.35 31.03 142.05 31.17 C 140.45 30.49 138.81 29.10 137.09 28.92 C 136.31 29.84 135.12 31.54 136.95 32.07 C 138.34 32.74 139.72 33.39 141.06 34.12 C 141.18 35.59 139.83 37.11 139.31 38.48 C 135.49 37.14 131.55 34.65 127.82 32.88 L 127.70 32.03 C 130.64 26.45 133.47 20.82 136.31 15.19 Z"/>
  <path id="path1505" fill="#ffffff" d="M 137.85 16.18 C 140.70 17.91 143.76 19.21 146.66 20.84 C 146.59 21.97 146.06 22.83 145.09 23.41 C 143.56 22.49 141.88 21.36 140.11 21.01 C 139.10 21.84 138.53 23.52 138.17 24.76 C 139.87 25.76 142.28 26.37 143.54 27.90 L 142.09 29.94 C 140.13 29.42 138.49 27.82 136.55 27.40 C 135.83 28.88 135.05 30.33 134.34 31.81 C 136.16 32.89 138.14 33.60 139.89 34.81 L 139.00 37.03 C 135.65 36.16 131.99 33.85 128.94 32.16 C 131.04 27.38 133.69 22.81 135.96 18.10 C 136.34 16.81 136.97 16.17 137.85 16.18 Z"/>
  <path id="path1507" fill="#e46316" d="M 49.74 27.31 C 49.79 28.85 49.48 31.09 48.68 32.42 C 45.81 31.67 43.06 31.86 42.07 35.10 C 41.69 38.63 46.31 43.40 49.92 41.97 C 52.86 40.45 52.17 37.83 52.06 35.08 C 53.60 34.76 55.15 34.35 56.72 34.25 C 58.58 40.40 55.78 46.79 49.22 48.22 C 41.10 50.48 33.19 41.01 36.46 33.46 C 38.64 28.14 44.29 25.79 49.74 27.31 Z"/>
  <path id="path1509" fill="#ffffff" d="M 48.23 27.89 C 48.75 28.77 48.72 29.83 48.16 31.08 C 45.30 31.32 43.33 30.70 41.60 33.49 C 39.51 37.82 44.49 43.37 48.84 43.30 C 52.55 42.80 53.65 39.43 53.26 36.09 C 53.86 35.61 54.65 35.36 55.62 35.32 C 57.00 37.20 56.24 40.26 55.38 42.24 C 53.08 47.35 45.73 49.25 41.33 45.72 C 38.06 43.21 35.30 38.29 37.30 34.22 C 38.78 29.61 43.64 27.29 48.23 27.89 Z"/>
  <path id="path1511" fill="#e46316" d="M 162.59 28.34 C 160.14 35.90 157.77 43.73 154.94 51.14 C 153.08 50.20 151.52 48.29 149.93 46.91 C 150.36 45.55 151.03 44.27 151.54 42.94 C 150.92 41.99 150.06 41.19 148.99 40.55 C 147.58 41.05 146.38 41.94 145.00 42.53 C 143.96 41.80 141.81 40.41 141.76 39.11 C 148.73 35.60 155.59 31.79 162.59 28.34 Z"/>
  <path id="path1513" fill="#e46316" d="M 100.00 30.47 C 116.37 30.28 132.68 36.24 145.15 46.83 C 158.38 57.91 167.24 74.02 169.34 91.18 C 171.58 108.05 167.37 125.63 157.63 139.61 C 148.35 153.15 134.15 163.19 118.27 167.38 C 104.05 171.22 88.69 170.34 74.97 165.00 C 58.97 158.80 45.50 146.47 37.90 131.09 C 31.29 117.92 29.16 102.70 31.67 88.19 C 34.52 71.08 44.11 55.36 57.88 44.84 C 69.84 35.58 84.87 30.43 100.00 30.47 Z"/>
  <path id="path1515" fill="#ffffff" d="M 160.46 30.54 L 160.56 31.89 C 158.40 37.46 156.75 43.24 154.84 48.90 C 153.55 49.29 151.56 47.24 151.14 46.18 C 151.52 44.90 152.20 43.72 152.56 42.44 C 151.43 41.50 150.33 40.07 149.03 39.43 C 147.70 40.13 146.39 40.87 145.04 41.53 L 143.21 39.92 L 143.93 39.08 C 148.60 36.72 153.26 34.33 157.88 31.86 C 158.74 31.42 159.59 30.98 160.46 30.54 Z"/>
  <path id="path1517" fill="#ffffff" d="M 118.83 35.28 C 136.70 40.30 152.04 53.07 160.42 69.60 C 165.30 79.26 167.91 90.17 167.63 101.00 C 167.63 115.57 162.38 129.99 153.49 141.49 C 143.37 154.56 128.15 163.78 111.84 166.50 C 91.38 170.19 69.64 163.79 54.49 149.53 C 42.36 138.39 34.39 122.44 33.19 105.99 C 30.83 83.43 41.28 60.00 59.48 46.46 C 76.07 33.57 98.71 29.42 118.83 35.28 Z"/>
  <path id="path1519" fill="#e46316" d="M 152.44 37.38 C 155.09 35.59 154.76 39.43 153.01 39.80 C 151.41 39.63 150.50 38.05 152.44 37.38 Z"/>
  <path id="path1521" fill="#083282" d="M 108.97 46.43 C 109.72 48.19 110.43 49.78 112.00 50.96 C 115.54 53.82 119.58 53.27 123.50 54.47 C 124.20 56.72 126.65 56.84 127.22 58.96 C 125.49 60.86 124.19 62.97 122.84 65.17 C 121.95 64.44 121.02 63.81 120.04 63.28 C 118.53 64.17 116.23 66.53 117.68 68.32 C 118.55 68.67 119.59 68.68 120.81 68.34 C 120.55 70.28 120.57 72.24 120.88 74.22 C 118.95 72.82 117.14 71.39 114.74 72.72 C 112.08 75.14 113.06 81.46 116.98 82.19 C 118.87 82.44 119.43 80.88 120.93 80.34 C 121.49 82.41 122.36 84.92 120.90 86.83 C 119.21 89.05 116.76 89.47 114.11 89.22 C 114.33 90.47 113.85 92.34 114.71 93.33 C 116.66 95.81 116.27 99.09 117.08 102.00 C 117.77 106.25 118.98 110.85 121.67 114.29 C 123.72 118.10 129.02 119.89 132.94 118.05 C 135.86 116.49 136.68 113.03 136.01 109.98 C 134.90 104.27 128.19 100.44 127.35 94.85 C 126.68 90.49 129.97 87.51 132.91 84.88 C 135.27 82.76 139.11 80.14 139.70 76.84 C 140.43 72.35 133.89 68.43 131.04 72.79 C 130.43 73.89 129.98 75.01 129.21 76.02 C 129.10 74.16 128.81 72.54 129.77 70.84 C 133.06 66.46 140.81 66.48 143.98 70.98 C 146.36 74.39 145.31 78.71 142.65 81.62 C 139.47 85.74 132.75 88.20 130.89 93.00 C 132.85 92.32 133.95 90.60 136.15 90.37 C 139.42 89.58 142.67 90.62 144.55 93.47 C 146.52 96.15 145.56 99.29 143.86 101.84 C 142.30 99.97 143.46 97.57 141.10 95.90 C 138.29 93.25 133.27 95.11 133.20 99.03 C 133.18 100.60 133.38 101.38 134.48 102.51 C 136.88 105.11 139.37 108.42 139.95 111.99 C 140.96 115.70 138.59 119.84 134.96 121.07 C 129.64 122.85 123.66 120.87 119.52 117.30 L 119.17 117.68 C 120.04 121.69 122.72 125.88 127.00 126.75 C 129.07 127.61 130.54 126.72 132.63 126.70 C 130.86 129.40 128.96 131.77 128.23 135.03 C 126.87 139.43 127.53 143.73 127.62 148.09 C 127.04 150.13 125.65 149.57 123.99 149.83 C 123.50 150.38 123.14 151.07 122.92 151.89 C 121.12 152.08 122.03 149.45 120.08 149.35 C 117.48 149.25 117.59 151.01 116.63 152.80 C 114.96 152.42 115.55 151.09 115.27 149.77 C 113.87 148.82 109.60 149.17 109.95 151.70 C 107.96 151.44 108.58 148.57 108.00 147.03 C 108.96 142.82 114.55 143.20 117.88 143.36 C 119.66 143.79 120.39 141.18 121.02 139.99 C 122.69 136.49 123.22 131.80 119.87 129.14 C 118.36 128.97 116.80 128.99 115.32 128.66 C 113.68 127.94 113.31 125.95 112.46 124.52 C 111.33 123.56 109.25 123.83 107.85 123.78 C 104.78 124.31 101.98 125.45 100.04 127.99 C 98.92 129.31 99.05 131.45 100.42 132.56 C 101.42 133.83 103.56 133.69 104.29 135.06 C 102.68 136.00 100.92 136.19 99.52 137.52 C 96.80 140.04 97.13 144.56 95.00 147.00 C 93.75 148.42 90.62 147.39 89.71 149.04 C 89.53 149.91 89.38 150.78 89.28 151.67 C 88.76 151.46 88.24 151.23 87.73 150.99 C 87.52 150.16 87.48 149.28 87.61 148.36 C 85.49 148.37 83.92 147.81 82.58 149.93 C 82.32 151.19 81.81 152.91 80.50 151.09 C 80.51 150.16 80.58 149.23 80.69 148.31 C 79.36 148.42 77.68 147.96 76.49 148.60 C 75.40 149.28 75.47 150.68 74.15 151.11 L 73.72 150.10 C 75.25 147.32 72.84 145.81 74.07 143.18 C 77.30 139.48 84.77 143.89 88.27 140.29 C 91.53 138.05 92.21 133.45 93.41 129.94 C 93.02 127.96 89.42 127.87 89.59 125.03 C 88.97 121.29 92.32 119.66 94.95 117.94 C 99.41 115.20 105.53 113.91 109.23 110.25 C 111.91 107.67 109.45 103.07 106.10 102.90 C 106.12 104.38 107.25 106.76 105.78 107.78 C 104.66 108.78 102.69 108.71 101.28 109.15 C 99.79 107.37 98.82 105.74 97.96 103.58 C 96.83 104.14 96.24 105.47 95.34 106.35 C 92.78 109.24 89.51 111.11 85.91 112.40 C 84.40 111.88 83.75 109.84 82.02 110.16 C 79.32 109.95 76.88 111.12 75.46 113.41 C 75.08 114.83 74.75 115.85 73.75 116.98 C 73.80 120.36 73.84 123.75 73.72 127.13 C 73.93 127.83 74.50 128.36 75.43 128.72 C 75.29 129.79 75.80 131.51 75.08 132.32 C 73.03 133.62 76.53 135.00 74.88 136.89 C 73.78 139.57 70.11 139.50 68.61 137.24 C 69.71 137.14 70.80 137.02 71.89 136.87 C 73.34 136.38 73.24 134.52 72.61 133.38 C 71.27 132.54 69.65 132.49 68.13 132.20 L 67.86 131.12 C 69.28 130.78 70.83 130.96 71.90 129.87 C 72.33 125.31 71.90 120.58 72.09 115.99 C 71.94 114.23 74.59 113.54 73.16 111.91 C 72.05 112.26 70.94 112.65 69.85 113.08 C 69.86 112.06 69.87 111.05 69.89 110.03 C 68.91 109.96 67.91 110.04 66.90 110.27 C 67.36 109.27 67.73 108.26 68.01 107.22 C 67.06 107.11 66.10 107.04 65.14 107.01 C 64.64 105.85 66.79 105.10 67.52 104.48 C 69.51 103.03 72.63 103.73 75.01 103.49 C 77.40 103.54 79.45 102.68 81.45 101.46 C 86.71 98.34 92.08 95.41 97.34 92.30 L 97.93 91.31 C 95.91 91.09 93.39 91.53 91.70 90.29 C 91.38 89.65 91.05 89.02 90.71 88.40 C 89.78 88.28 89.07 89.85 88.33 90.32 C 85.78 92.36 81.06 92.86 79.14 89.68 C 80.08 89.43 81.04 89.30 82.04 89.31 C 83.06 88.62 82.52 86.60 82.49 85.51 C 80.13 83.63 76.71 83.04 73.85 82.59 C 73.86 88.67 73.86 94.75 73.85 100.83 L 72.14 100.91 C 71.90 94.65 72.24 88.37 71.98 82.12 L 69.89 81.86 C 68.28 81.57 66.97 81.39 66.73 79.46 C 66.63 77.86 64.93 77.17 65.80 75.60 C 67.62 73.27 64.41 72.59 66.49 70.43 C 67.55 68.42 71.07 70.39 70.72 67.90 C 69.55 67.77 68.37 67.70 67.18 67.70 C 67.40 66.90 67.61 66.11 67.82 65.31 C 63.12 62.69 64.28 58.32 64.47 53.77 C 66.43 51.24 68.49 48.76 71.98 48.77 C 76.81 48.75 81.14 53.12 80.73 58.02 C 80.59 62.19 77.88 65.56 74.15 67.24 C 73.95 68.32 74.38 70.12 74.86 71.11 C 77.96 71.99 81.09 73.71 84.02 75.14 C 87.46 78.42 91.11 80.69 91.17 85.98 C 94.16 86.16 94.53 83.13 95.49 81.04 L 94.56 78.93 C 96.08 75.71 98.26 72.58 99.19 69.04 C 98.39 67.16 94.95 66.57 93.48 64.90 L 94.84 63.82 C 97.07 65.93 100.64 63.12 102.32 61.43 C 102.52 59.98 103.19 56.38 101.62 55.56 C 100.40 55.39 99.13 55.51 97.82 55.92 C 98.51 52.36 102.27 53.21 104.68 52.31 C 104.25 49.93 107.33 47.72 108.97 46.43 Z"/>
  <path id="path1523" fill="#9d98b5" d="M 75.46 54.57 C 78.81 56.89 75.99 63.19 72.69 63.67 C 72.51 62.44 71.93 61.42 70.96 60.61 C 72.30 59.49 74.40 59.27 73.85 57.09 C 73.65 55.31 72.27 55.25 70.94 54.54 C 72.65 53.80 73.80 53.35 75.46 54.57 Z"/>
  <path id="path1525" fill="#ffffff" d="M 70.94 54.54 C 72.27 55.25 73.65 55.31 73.85 57.09 C 74.40 59.27 72.30 59.49 70.96 60.61 C 68.64 58.32 68.66 56.85 70.94 54.54 Z"/>
  <path id="path1527" fill="#ffffff" d="M 112.39 57.41 C 113.60 57.04 114.66 57.04 115.57 57.38 C 115.85 58.08 116.24 58.66 116.76 59.12 C 116.84 57.76 117.27 56.95 118.05 56.69 C 120.63 57.07 116.88 60.14 116.21 60.69 C 115.00 59.82 112.38 59.21 112.39 57.41 Z"/>
  <path id="path1529" fill="#9d98b5" d="M 94.84 63.82 L 93.48 64.90 C 94.95 66.57 98.39 67.16 99.19 69.04 C 98.26 72.58 96.08 75.71 94.56 78.93 L 95.49 81.04 C 94.53 83.13 94.16 86.16 91.17 85.98 C 91.11 80.69 87.46 78.42 84.02 75.14 C 86.47 75.31 89.25 76.12 91.68 75.67 C 93.08 73.88 94.25 71.90 95.36 69.93 C 94.64 67.92 92.19 67.50 92.49 65.00 C 92.12 62.87 93.40 62.04 94.84 63.82 Z"/>
  <path id="path1531" fill="#e46316" d="M 132.82 63.94 C 131.85 66.59 130.43 69.03 127.18 68.58 C 125.61 67.96 123.08 67.16 123.97 64.96 C 125.51 64.53 126.43 65.95 128.00 65.95 C 130.04 65.96 130.87 64.21 132.82 63.94 Z"/>
  <path id="path1533" fill="#ffffff" d="M 17.51 69.69 C 21.20 68.46 25.07 69.46 27.73 72.27 C 31.31 75.96 31.29 82.00 27.64 85.64 C 23.59 89.88 16.73 89.58 13.08 84.98 C 8.74 79.69 11.19 71.93 17.51 69.69 Z"/>
  <path id="path1535" fill="#ffffff" d="M 177.45 69.50 C 180.73 68.62 184.58 69.58 186.97 72.03 C 190.96 75.95 190.70 82.78 186.35 86.32 C 181.68 90.35 174.38 88.93 171.47 83.53 C 168.47 78.06 171.47 71.14 177.45 69.50 Z"/>
  <path id="path1537" fill="#e46316" d="M 17.14 71.25 C 18.79 70.54 20.03 70.44 20.86 70.95 C 21.39 72.82 16.70 72.65 17.14 71.25 Z"/>
  <path id="path1539" fill="#9d98b5" d="M 69.90 71.10 C 71.06 71.75 72.11 72.66 72.85 73.77 C 71.27 73.85 69.67 73.86 68.08 73.81 C 66.18 72.22 67.80 70.10 69.90 71.10 Z"/>
  <path id="path1541" fill="#9d98b5" d="M 139.70 76.84 C 139.11 80.14 135.27 82.76 132.91 84.88 C 129.97 87.51 126.68 90.49 127.35 94.85 C 128.19 100.44 134.90 104.27 136.01 109.98 C 136.68 113.03 135.86 116.49 132.94 118.05 C 129.02 119.89 123.72 118.10 121.67 114.29 C 124.16 115.16 126.26 116.27 129.01 115.90 C 131.95 115.67 133.73 112.78 133.00 109.98 C 132.09 105.92 127.82 102.80 125.86 99.10 C 123.70 95.39 123.42 90.76 126.31 87.34 C 128.92 83.51 134.12 81.06 136.00 76.93 C 136.05 73.10 134.07 73.38 131.04 72.79 C 133.89 68.43 140.43 72.35 139.70 76.84 Z"/>
  <path id="path1543" fill="#e46316" d="M 176.70 71.15 L 180.17 70.59 C 179.23 72.29 178.98 73.07 176.84 72.00 L 176.70 71.15 Z"/>
  <path id="path1545" fill="#e46316" d="M 21.50 71.00 C 23.98 71.56 26.50 71.76 27.54 74.43 C 25.09 75.19 22.76 74.51 20.36 73.95 C 19.79 73.08 20.17 72.09 21.50 71.00 Z"/>
  <path id="path1547" fill="#e46316" d="M 181.77 71.07 C 183.34 71.79 186.78 72.02 186.58 74.36 C 184.10 75.18 182.03 74.42 179.58 74.00 L 179.15 72.77 C 180.05 72.24 180.92 71.68 181.77 71.07 Z"/>
  <path id="path1549" fill="#e46316" d="M 14.65 72.77 C 17.50 70.64 20.71 75.71 23.59 75.44 C 23.75 77.24 24.72 77.92 23.04 79.36 C 19.97 77.46 16.77 75.88 13.64 74.13 L 14.65 72.77 Z"/>
  <path id="path1551" fill="#e46316" d="M 173.76 72.94 C 176.80 70.81 178.90 74.50 181.64 75.27 C 183.58 75.60 183.84 77.57 182.99 79.14 L 182.16 79.32 C 179.29 77.42 176.27 75.79 173.17 74.31 L 173.76 72.94 Z"/>
  <path id="path1553" fill="#e46316" d="M 13.11 74.84 C 16.48 75.73 19.94 78.13 22.97 79.90 C 23.15 80.77 22.83 81.62 21.99 82.47 C 20.01 81.79 18.15 80.78 16.16 80.09 C 16.77 81.55 20.15 81.74 21.50 82.76 C 22.47 84.38 19.54 86.79 18.15 85.17 C 15.25 83.89 11.68 82.48 12.07 78.53 L 15.02 79.59 C 14.40 78.96 13.61 78.49 12.67 78.16 C 12.24 77.23 12.39 76.13 13.11 74.84 Z"/>
  <path id="path1555" fill="#9d98b5" d="M 67.27 75.26 C 69.03 74.65 71.73 75.12 72.88 76.71 C 71.01 77.04 66.43 79.00 67.27 75.26 Z"/>
  <path id="path1557" fill="#e46316" d="M 173.06 74.64 C 176.13 76.28 179.39 77.90 182.21 79.94 L 182.42 80.87 C 181.83 82.51 181.08 82.92 180.16 82.11 C 177.39 80.81 174.69 79.37 171.92 78.07 C 171.66 76.48 172.04 75.34 173.06 74.64 Z"/>
  <path id="path1559" fill="#e46316" d="M 182.99 75.12 C 184.03 75.32 188.12 73.87 187.69 75.83 C 186.70 76.20 182.55 77.13 182.99 75.12 Z"/>
  <path id="path1561" fill="#e46316" d="M 26.53 76.19 C 27.15 79.32 25.44 82.34 24.11 85.03 C 26.40 83.69 26.91 78.54 27.48 76.20 C 29.01 76.48 29.55 77.76 29.10 80.03 C 28.71 82.77 25.95 87.30 22.69 86.46 C 21.62 86.29 21.30 85.55 21.72 84.24 C 22.93 82.59 23.49 80.34 24.19 78.44 C 24.28 76.61 25.06 75.86 26.53 76.19 Z"/>
  <path id="path1563" fill="#e46316" d="M 186.57 76.51 C 187.92 75.92 188.58 76.75 188.56 79.01 C 188.37 81.21 187.27 85.23 184.60 85.36 C 184.40 83.18 185.98 81.69 186.18 79.48 C 186.33 78.49 186.46 77.50 186.57 76.51 Z"/>
  <path id="path1565" fill="#e46316" d="M 185.84 76.61 C 186.55 79.71 184.37 83.22 183.22 86.06 C 182.05 86.24 181.02 86.71 180.13 87.50 C 178.06 87.38 177.16 86.75 177.43 85.58 C 178.53 85.65 179.63 85.69 180.73 85.70 C 181.39 83.82 182.41 82.11 183.01 80.20 L 183.26 79.49 C 183.54 77.60 184.40 76.64 185.84 76.61 Z"/>
  <path id="path1567" fill="#9d98b5" d="M 71.61 79.73 C 70.25 80.40 69.11 80.44 68.21 79.82 C 67.51 77.94 71.93 78.45 71.61 79.73 Z"/>
  <path id="path1569" fill="#e46316" d="M 171.60 78.58 C 174.79 79.75 177.83 81.57 180.97 82.95 L 181.22 83.94 C 180.63 84.60 179.88 85.12 178.98 85.48 C 176.11 84.52 174.36 84.06 172.16 81.81 C 171.69 80.73 171.51 79.66 171.60 78.58 Z"/>
  <path id="path1571" fill="#9d98b5" d="M 69.89 81.86 L 71.98 82.12 C 72.24 88.37 71.90 94.65 72.14 100.91 L 73.85 100.83 C 77.13 100.35 80.21 97.70 82.91 95.87 C 85.70 93.77 88.77 92.18 91.70 90.29 C 93.39 91.53 95.91 91.09 97.93 91.31 L 97.34 92.30 C 92.08 95.41 86.71 98.34 81.45 101.46 C 79.45 102.68 77.40 103.54 75.01 103.49 C 72.63 103.73 69.51 103.03 67.52 104.48 C 66.79 105.10 64.64 105.85 65.14 107.01 C 66.10 107.04 67.06 107.11 68.01 107.22 C 67.73 108.26 67.36 109.27 66.90 110.27 C 67.91 110.04 68.91 109.96 69.89 110.03 C 69.87 111.05 69.86 112.06 69.85 113.08 C 70.94 112.65 72.05 112.26 73.16 111.91 C 74.59 113.54 71.94 114.23 72.09 115.99 C 71.90 120.58 72.33 125.31 71.90 129.87 C 70.83 130.96 69.28 130.78 67.86 131.12 C 67.38 128.08 70.15 128.62 69.84 126.02 C 69.49 120.99 70.75 115.86 68.56 111.44 C 67.79 111.26 67.01 111.08 66.24 110.91 C 65.80 108.65 66.74 108.19 63.96 107.80 C 64.14 105.83 65.26 104.03 66.92 102.95 C 67.77 102.24 69.38 101.91 69.80 100.86 C 69.90 94.53 69.71 88.19 69.89 81.86 Z"/>
  <path id="path1573" fill="#ffffff" d="M 73.85 82.59 C 76.71 83.04 80.13 83.63 82.49 85.51 C 82.52 86.60 83.06 88.62 82.04 89.31 C 81.04 89.30 80.08 89.43 79.14 89.68 C 81.06 92.86 85.78 92.36 88.33 90.32 C 89.07 89.85 89.78 88.28 90.71 88.40 C 91.05 89.02 91.38 89.65 91.70 90.29 C 88.77 92.18 85.70 93.77 82.91 95.87 C 80.21 97.70 77.13 100.35 73.85 100.83 C 73.86 94.75 73.86 88.67 73.85 82.59 Z"/>
  <path id="path1575" fill="#e46316" d="M 15.79 84.93 L 17.24 85.01 L 17.44 86.19 L 15.94 86.09 L 15.79 84.93 Z"/>
  <path id="path1577" fill="#9d98b5" d="M 174.97 85.04 C 176.42 84.55 177.12 84.91 177.06 86.11 L 176.16 86.46 L 175.07 85.89 L 174.97 85.04 Z"/>
  <path id="path1579" fill="#9d98b5" d="M 184.60 85.36 L 184.37 85.83 L 184.60 85.36 Z"/>
  <path id="path1581" fill="#e46316" d="M 18.75 86.09 L 20.27 85.83 L 20.85 86.32 C 21.01 87.43 20.32 87.63 18.79 86.93 L 18.75 86.09 Z"/>
  <path id="path1583" fill="#9d98b5" d="M 141.10 95.90 C 143.46 97.57 142.30 99.97 143.86 101.84 C 142.99 102.98 141.78 103.76 140.35 103.94 C 140.28 101.94 140.75 100.26 139.34 98.59 C 137.92 96.36 134.78 97.59 133.20 99.03 C 133.27 95.11 138.29 93.25 141.10 95.90 Z"/>
  <path id="path1585" fill="#9d98b5" d="M 106.10 102.90 C 109.45 103.07 111.91 107.67 109.23 110.25 C 105.53 113.91 99.41 115.20 94.95 117.94 C 92.32 119.66 88.97 121.29 89.59 125.03 C 89.42 127.87 93.02 127.96 93.41 129.94 C 92.21 133.45 91.53 138.05 88.27 140.29 C 84.77 143.89 77.30 139.48 74.07 143.18 C 72.84 145.81 75.25 147.32 73.72 150.10 C 72.86 147.32 72.42 142.19 75.55 140.60 C 78.66 139.20 83.65 141.62 86.38 139.36 C 88.72 137.12 89.42 133.05 89.56 129.96 C 87.06 127.68 85.21 126.07 86.41 122.37 C 88.90 116.36 95.73 112.05 101.28 109.15 C 102.69 108.71 104.66 108.78 105.78 107.78 C 107.25 106.76 106.12 104.38 106.10 102.90 Z"/>
  <path style="fill:#ffffff;fill-opacity:0" id="path1587" fill="#ffffff" d="M 199.59 106.63 L 200.00 105.78 L 200.00 200.00 L 102.46 200.00 C 103.79 199.29 105.52 199.64 107.00 199.43 C 134.15 197.86 160.15 184.38 177.29 163.31 C 190.44 147.35 198.46 127.30 199.59 106.63 Z"/>
  <path id="path1589" fill="#ffffff" d="M 18.98 110.80 C 21.96 112.07 25.60 109.54 26.37 113.76 C 27.46 114.23 28.93 114.26 29.57 115.36 C 30.06 117.62 30.69 119.79 31.32 122.01 C 30.96 122.99 30.25 123.74 29.18 124.25 C 29.37 125.18 29.42 126.09 29.36 127.00 C 27.65 128.83 25.02 129.90 22.98 131.40 C 22.00 131.22 21.07 130.79 20.17 130.11 C 16.32 132.49 15.60 128.86 12.62 127.30 C 10.87 126.11 11.39 124.91 11.92 123.24 C 10.80 121.93 9.62 121.40 10.52 119.49 C 12.47 116.77 11.34 112.84 15.86 113.35 C 16.50 112.16 17.33 110.40 18.98 110.80 Z"/>
  <path id="path1591" fill="#ffffff" d="M 182.03 110.99 C 184.39 110.22 184.83 111.75 185.96 113.35 C 187.82 113.28 188.93 113.47 189.52 115.42 C 190.06 118.67 193.19 120.28 189.95 123.19 C 191.55 127.43 187.54 127.65 185.45 130.36 C 184.21 131.55 182.70 130.54 181.36 130.13 C 180.64 130.73 179.85 131.17 179.01 131.45 C 177.10 130.63 175.62 129.12 173.70 128.26 C 172.11 127.33 171.93 126.49 172.60 124.74 C 172.27 124.16 171.71 123.60 170.92 123.05 C 169.81 121.04 171.92 118.20 171.97 115.90 C 172.81 113.33 175.18 115.24 175.68 112.78 C 176.23 110.22 180.21 111.71 182.03 110.99 Z"/>
  <path id="path1593" fill="#e46316" d="M 18.06 111.90 C 20.19 112.25 22.48 111.99 24.53 112.47 C 26.51 114.23 23.58 116.20 22.80 117.76 C 21.81 118.01 21.29 117.19 21.22 115.29 C 20.36 116.19 20.81 117.76 19.18 117.54 C 18.44 115.58 15.83 113.81 18.06 111.90 Z"/>
  <path id="path1595" fill="#e46316" d="M 183.88 112.07 C 185.59 113.51 183.10 116.86 181.89 117.89 C 181.29 117.03 180.77 116.11 180.33 115.15 C 180.22 116.09 180.08 117.03 179.92 117.97 C 178.19 117.48 174.53 112.99 177.87 112.25 C 179.89 112.41 181.90 111.91 183.88 112.07 Z"/>
  <path id="path1597" fill="#e46316" d="M 18.03 118.93 L 15.99 119.08 C 16.50 119.66 16.93 120.29 17.28 120.95 C 16.00 121.84 11.93 123.18 11.39 120.94 C 11.81 119.02 12.91 117.30 13.39 115.36 C 14.74 112.35 18.45 117.36 18.03 118.93 Z"/>
  <path id="path1599" fill="#e46316" d="M 178.18 119.44 C 177.22 119.55 176.26 119.52 175.28 119.37 C 175.98 120.18 177.77 120.62 177.20 121.88 C 175.70 122.40 173.67 123.70 172.10 122.93 C 171.01 120.97 173.12 118.32 173.04 116.07 C 174.60 113.49 178.13 117.92 178.18 119.44 Z"/>
  <path id="path1601" fill="#e46316" d="M 186.99 114.31 C 188.96 115.05 189.03 118.36 190.15 120.03 C 191.29 123.35 185.64 122.07 184.45 120.90 C 184.92 120.31 185.40 119.73 185.90 119.16 C 184.49 119.28 183.69 118.94 183.49 118.14 C 184.40 116.80 185.40 114.88 186.99 114.31 Z"/>
  <path id="path1603" fill="#e46316" d="M 27.13 115.09 C 29.21 115.65 28.90 117.30 29.23 118.98 C 29.43 120.12 30.71 121.66 29.67 122.64 C 28.30 123.99 25.79 122.17 24.27 121.86 C 24.64 121.04 25.16 120.26 25.83 119.50 L 23.67 119.36 C 23.55 117.63 25.86 115.99 27.13 115.09 Z"/>
  <path id="path1605" fill="#e46316" d="M 19.10 119.05 C 22.11 117.04 24.97 121.30 21.94 123.11 C 19.36 124.74 16.79 121.12 19.10 119.05 Z"/>
  <path id="path1607" fill="#e46316" d="M 179.15 119.20 C 181.81 117.30 184.76 120.12 182.81 122.79 C 180.29 125.01 177.07 121.82 179.15 119.20 Z"/>
  <path id="path1609" fill="#e46316" d="M 18.14 122.82 C 17.65 123.73 17.27 124.66 17.00 125.61 C 17.79 124.97 18.63 124.40 19.51 123.91 C 20.29 125.70 20.02 129.13 18.01 130.06 C 16.31 128.70 13.38 127.00 12.48 125.03 C 13.05 123.13 16.44 122.53 18.14 122.82 Z"/>
  <path id="path1611" fill="#e46316" d="M 178.32 122.90 C 178.31 123.89 178.23 124.89 178.08 125.89 C 178.74 125.26 179.44 124.73 180.19 124.32 C 181.13 125.74 181.41 130.15 178.98 130.28 C 177.23 128.83 174.45 127.88 173.25 126.00 C 173.89 124.12 176.59 123.33 178.32 122.90 Z"/>
  <path id="path1613" fill="#e46316" d="M 183.75 122.85 C 185.19 122.43 190.29 123.54 189.03 125.89 C 187.37 127.26 185.65 128.55 184.06 130.02 C 181.35 129.70 182.05 126.35 181.91 124.46 C 182.73 124.19 183.72 124.60 184.86 125.69 C 184.47 124.75 184.10 123.80 183.75 122.85 Z"/>
  <path id="path1615" fill="#e46316" d="M 23.09 123.16 C 24.86 122.79 26.72 124.05 28.09 125.08 C 28.87 127.06 27.32 127.25 26.03 128.07 C 24.77 128.66 23.53 130.40 22.08 130.14 C 20.26 129.13 21.18 126.46 21.01 124.72 C 21.76 124.31 22.71 124.73 23.85 125.97 L 23.09 123.16 Z"/>
  <path id="path1617" fill="#9d98b5" d="M 107.85 123.78 C 109.25 123.83 111.33 123.56 112.46 124.52 C 113.31 125.95 113.68 127.94 115.32 128.66 C 116.80 128.99 118.36 128.97 119.87 129.14 C 123.22 131.80 122.69 136.49 121.02 139.99 C 120.39 141.18 119.66 143.79 117.88 143.36 C 114.55 143.20 108.96 142.82 108.00 147.03 C 108.58 148.57 107.96 151.44 109.95 151.70 L 109.78 152.93 L 108.28 152.83 C 107.69 150.54 107.14 147.83 107.72 145.50 C 109.54 141.96 114.47 142.51 117.75 141.70 C 119.11 139.06 119.50 132.99 115.41 132.56 C 111.71 131.13 109.11 127.41 107.85 123.78 Z"/>
  <path id="path1619" fill="#9d98b5" d="M 68.13 132.20 C 69.65 132.49 71.27 132.54 72.61 133.38 C 73.24 134.52 73.34 136.38 71.89 136.87 C 70.80 137.02 69.71 137.14 68.61 137.24 L 67.94 136.00 C 68.19 135.24 68.44 134.48 68.71 133.72 C 68.55 133.20 68.35 132.70 68.13 132.20 Z"/>
  <path id="path1621" fill="#ffffff" d="M 42.65 153.04 C 44.03 154.96 46.01 156.30 47.34 158.23 L 45.87 159.84 C 45.19 159.13 44.56 158.37 44.00 157.58 L 43.56 156.99 C 42.37 157.23 41.55 158.54 42.51 159.51 C 43.47 160.33 44.95 162.01 42.95 162.67 C 41.97 161.91 41.21 160.58 40.06 160.10 C 38.97 161.16 37.94 162.29 36.90 163.39 C 35.87 162.87 35.07 162.02 34.50 160.84 C 37.45 158.55 39.67 155.24 42.65 153.04 Z"/>
  <path id="path1623" fill="#e46316" d="M 42.65 153.04 C 44.77 153.82 46.51 156.44 48.19 158.00 C 47.75 158.77 47.17 159.46 46.46 160.06 L 45.87 159.84 L 47.34 158.23 C 46.01 156.30 44.03 154.96 42.65 153.04 Z"/>
  <path id="path1625" fill="#e46316" d="M 156.90 152.69 C 156.74 153.86 155.95 154.57 154.52 154.82 C 154.80 153.56 155.59 152.85 156.90 152.69 Z"/>
  <path id="path1627" fill="#ffffff" d="M 156.90 152.69 C 159.73 152.09 160.97 153.54 162.23 155.77 C 164.34 156.96 166.15 158.19 165.16 160.97 C 163.79 162.77 161.90 164.86 160.00 166.04 C 157.12 163.51 154.55 160.58 151.74 157.96 C 152.47 156.71 153.52 155.82 154.52 154.82 C 155.95 154.57 156.74 153.86 156.90 152.69 Z"/>
  <path id="path1629" fill="#e46316" d="M 159.31 156.91 C 159.39 158.03 157.37 159.90 156.76 158.27 C 158.06 157.63 158.12 156.80 156.93 155.76 C 158.17 154.79 158.65 156.04 159.31 156.91 Z"/>
  <path id="path1631" fill="#083282" d="M 156.93 155.76 C 158.12 156.80 158.06 157.63 156.76 158.27 C 156.05 157.05 156.11 156.22 156.93 155.76 Z"/>
  <path id="path1633" fill="#e46316" d="M 43.56 156.99 L 44.00 157.58 C 41.10 158.50 45.44 160.88 45.53 162.79 C 47.38 160.61 50.31 159.91 52.84 161.33 C 55.67 162.66 57.47 166.73 55.42 169.41 C 55.70 166.57 56.07 164.41 53.53 162.52 C 49.64 159.13 43.56 162.93 44.16 167.85 C 44.43 172.81 50.34 174.32 53.80 171.37 C 54.40 171.58 55.03 171.71 55.67 171.76 C 55.30 173.79 55.09 175.59 56.37 177.36 C 57.99 179.96 62.09 180.59 64.40 178.64 C 67.25 176.41 67.21 173.11 66.02 169.95 C 68.16 171.35 67.59 175.48 66.32 177.36 C 64.08 181.41 57.93 181.30 55.67 177.32 C 54.42 175.53 54.97 173.84 54.99 171.78 C 53.75 172.14 52.57 172.64 51.43 173.30 C 48.73 174.08 45.22 172.72 44.09 170.04 C 42.97 167.79 43.57 165.59 44.71 163.47 C 42.63 163.09 41.68 162.33 40.17 160.94 C 39.08 162.00 38.05 163.12 36.94 164.15 C 35.95 163.96 34.26 162.21 34.01 161.23 L 34.50 160.84 C 35.07 162.02 35.87 162.87 36.90 163.39 C 37.94 162.29 38.97 161.16 40.06 160.10 C 41.21 160.58 41.97 161.91 42.95 162.67 C 44.95 162.01 43.47 160.33 42.51 159.51 C 41.55 158.54 42.37 157.23 43.56 156.99 Z"/>
  <path id="path1635" fill="#e46316" d="M 150.62 159.35 C 152.31 161.61 154.03 163.85 155.68 166.14 C 157.45 170.30 153.67 174.45 149.38 172.63 C 146.73 170.86 144.95 167.46 143.00 164.95 C 143.44 163.89 144.96 162.97 145.94 162.39 C 148.20 163.75 149.59 168.21 152.05 169.30 L 153.02 168.90 C 152.71 167.34 151.54 166.44 150.95 165.04 C 152.33 165.88 153.99 167.63 153.45 169.42 C 152.68 169.71 151.91 169.83 151.14 169.80 C 149.32 167.80 147.87 165.41 146.16 163.30 C 143.13 163.86 143.80 165.67 145.42 167.36 C 147.17 169.15 148.25 172.23 150.93 172.50 C 154.14 172.65 156.01 169.93 155.44 166.90 C 154.36 165.27 153.10 163.76 151.99 162.15 C 151.37 160.85 150.50 160.17 149.37 160.12 C 147.75 162.62 150.79 162.68 150.95 165.04 C 149.82 164.01 148.47 162.46 147.94 161.03 C 148.46 160.30 149.61 159.08 150.62 159.35 Z"/>
  <path id="path1637" fill="#e46316" d="M 161.76 159.17 C 161.90 160.07 161.91 160.95 161.80 161.80 C 160.45 161.95 159.63 161.63 159.33 160.83 C 158.70 158.66 160.33 159.30 161.76 159.17 Z"/>
  <path id="path1639" fill="#083282" d="M 160.05 159.89 L 161.16 159.82 L 161.30 160.94 L 160.14 160.98 L 160.05 159.89 Z"/>
  <path id="path1641" fill="#ffffff" d="M 149.37 160.12 C 150.50 160.17 151.37 160.85 151.99 162.15 C 153.10 163.76 154.36 165.27 155.44 166.90 C 156.01 169.93 154.14 172.65 150.93 172.50 C 148.25 172.23 147.17 169.15 145.42 167.36 C 143.80 165.67 143.13 163.86 146.16 163.30 C 147.87 165.41 149.32 167.80 151.14 169.80 C 151.91 169.83 152.68 169.71 153.45 169.42 C 153.99 167.63 152.33 165.88 150.95 165.04 C 150.79 162.68 147.75 162.62 149.37 160.12 Z"/>
  <path id="path1643" fill="#ffffff" d="M 53.53 162.52 C 56.07 164.41 55.70 166.57 55.42 169.41 C 54.97 170.11 54.43 170.77 53.80 171.37 C 50.34 174.32 44.43 172.81 44.16 167.85 C 43.56 162.93 49.64 159.13 53.53 162.52 Z"/>
  <path id="path1645" fill="#e46316" d="M 51.52 163.63 C 55.15 165.53 51.03 171.72 47.60 170.38 C 45.89 167.49 48.17 163.33 51.52 163.63 Z"/>
  <path id="path1647" fill="#083282" d="M 52.53 165.93 C 52.10 167.53 51.20 168.89 49.72 169.68 C 48.00 170.74 46.72 168.47 47.73 167.01 C 48.54 164.97 51.63 162.30 52.53 165.93 Z"/>
  <path id="path1649" fill="#e46316" d="M 65.03 168.99 C 62.97 168.25 60.97 167.73 58.83 168.53 C 57.73 169.26 56.87 170.22 55.89 171.10 C 56.86 167.49 62.65 166.00 65.03 168.99 Z"/>
  <path id="path1651" fill="#e46316" d="M 138.89 167.02 C 140.69 168.93 141.85 173.25 143.87 174.40 C 144.82 173.77 145.81 173.27 146.85 172.92 C 147.90 173.82 148.29 174.78 148.04 175.80 C 145.89 176.75 143.50 179.01 141.22 179.18 C 139.30 175.80 137.26 172.44 135.33 169.07 L 135.38 168.51 C 136.44 168.07 137.72 166.72 138.89 167.02 Z"/>
  <path id="path1653" fill="#ffffff" d="M 58.83 168.53 C 60.97 167.73 62.97 168.25 65.03 168.99 L 66.02 169.95 C 67.21 173.11 67.25 176.41 64.40 178.64 C 62.09 180.59 57.99 179.96 56.37 177.36 C 55.09 175.59 55.30 173.79 55.67 171.76 L 55.89 171.10 C 56.87 170.22 57.73 169.26 58.83 168.53 Z"/>
  <path id="path1655" fill="#ffffff" d="M 137.94 167.59 L 139.13 168.16 C 140.29 170.69 141.84 173.04 143.22 175.47 C 144.84 174.92 146.99 172.02 147.76 175.15 C 145.83 176.42 143.79 177.52 141.84 178.77 C 140.12 176.46 138.93 173.77 137.35 171.37 L 136.93 170.74 C 135.76 169.27 136.09 168.22 137.94 167.59 Z"/>
  <path id="path1657" fill="#e46316" d="M 63.40 170.60 C 64.97 173.22 62.88 178.10 59.48 177.40 C 56.42 175.38 59.75 168.70 63.40 170.60 Z"/>
  <path id="path1659" fill="#e46316" d="M 135.77 172.21 C 135.42 173.02 135.03 173.81 134.59 174.58 C 133.35 174.55 132.29 173.71 131.09 173.98 C 127.82 175.13 130.65 181.62 133.79 179.87 C 134.40 179.09 134.91 178.22 135.32 177.28 C 136.04 176.98 136.87 176.94 137.79 177.16 C 138.69 180.71 134.69 184.21 131.20 183.57 C 125.92 183.30 123.59 175.83 127.41 172.43 C 129.87 170.17 133.17 170.19 135.77 172.21 Z"/>
  <path id="path1661" fill="#083282" d="M 61.89 170.74 C 65.38 171.55 62.55 176.73 60.06 177.04 C 57.39 175.70 59.65 171.22 61.89 170.74 Z"/>
  <path id="path1663" fill="#e46316" d="M 69.23 171.17 C 72.06 172.05 74.81 173.21 77.57 174.26 C 77.46 175.13 77.23 175.99 76.87 176.83 C 75.99 176.89 75.11 176.97 74.24 177.06 L 73.29 178.22 L 73.42 176.40 C 74.40 176.18 75.44 176.14 76.53 176.28 L 76.96 174.72 C 74.57 174.04 70.65 171.18 68.40 172.87 L 69.23 171.17 Z"/>
  <path id="path1665" fill="#ffffff" d="M 130.96 171.37 C 133.61 170.98 134.74 171.76 134.33 173.71 C 132.93 173.36 131.61 173.31 130.40 173.57 C 127.78 175.16 129.43 181.21 132.86 180.73 C 135.41 180.79 134.83 176.95 137.29 177.55 C 137.96 179.07 136.55 180.56 135.59 181.64 C 132.37 184.64 126.61 182.51 126.26 178.02 C 125.53 174.83 127.78 171.76 130.96 171.37 Z"/>
  <path id="path1667" fill="#ffffff" d="M 68.40 172.87 C 70.65 171.18 74.57 174.04 76.96 174.72 L 76.53 176.28 C 75.44 176.14 74.40 176.18 73.42 176.40 L 73.29 178.22 L 73.17 178.81 C 71.88 180.04 71.79 182.28 70.88 183.79 C 70.03 184.03 69.11 183.93 68.14 183.48 C 68.24 180.46 70.92 177.48 70.76 174.48 L 68.57 173.84 L 68.40 172.87 Z"/>
  <path id="path1669" fill="#e46316" d="M 68.57 173.84 L 70.76 174.48 C 70.92 177.48 68.24 180.46 68.14 183.48 C 69.11 183.93 70.03 184.03 70.88 183.79 C 71.79 182.28 71.88 180.04 73.17 178.81 C 72.63 180.65 72.15 183.48 70.86 184.90 C 69.63 184.81 68.39 184.18 67.28 183.65 C 67.91 181.00 69.15 178.46 70.07 175.88 C 69.84 175.14 69.34 174.46 68.57 173.84 Z"/>
  <path id="path1671" fill="#e46316" d="M 79.41 174.52 C 81.44 175.17 84.77 175.20 86.18 176.80 C 83.98 176.35 81.83 175.45 79.60 175.26 C 78.80 178.91 77.52 182.74 77.23 186.43 C 79.85 186.83 83.36 188.85 85.46 186.39 C 85.84 183.50 86.85 180.85 87.19 177.98 C 88.31 178.88 87.31 181.02 86.87 182.05 C 86.01 183.58 87.13 185.98 85.40 187.17 C 83.13 189.42 79.00 187.34 76.32 186.67 C 77.26 182.64 77.97 178.39 79.41 174.52 Z"/>
  <path id="path1673" fill="#ffffff" d="M 79.60 175.26 C 81.83 175.45 83.98 176.35 86.18 176.80 L 87.19 177.98 C 86.85 180.85 85.84 183.50 85.46 186.39 C 83.36 188.85 79.85 186.83 77.23 186.43 C 77.52 182.74 78.80 178.91 79.60 175.26 Z"/>
  <path id="path1675" fill="#e46316" d="M 93.32 176.13 L 94.32 176.40 C 95.33 180.92 97.43 185.40 98.19 189.92 C 96.91 189.91 95.63 189.80 94.38 189.61 C 94.00 188.65 93.59 187.70 93.17 186.76 C 91.19 186.26 91.07 187.97 89.97 189.06 C 89.05 189.08 88.12 189.04 87.20 188.94 C 88.96 184.56 91.51 180.50 93.32 176.13 Z"/>
  <path id="path1677" fill="#e46316" d="M 112.62 176.28 C 113.59 178.96 113.59 182.15 114.18 184.97 C 115.41 185.63 117.58 184.31 118.40 185.46 C 118.51 186.17 118.60 186.89 118.66 187.61 C 116.81 188.35 112.12 189.62 110.50 188.65 C 109.98 184.85 109.18 180.88 108.83 177.10 C 109.74 176.27 111.44 176.41 112.62 176.28 Z"/>
  <path id="path1679" fill="#e46316" d="M 100.14 177.23 C 101.42 177.18 102.97 176.93 104.18 177.43 C 104.38 180.33 104.03 183.48 104.68 186.30 C 105.97 186.26 107.24 186.31 108.50 186.45 C 108.56 187.46 108.58 188.48 108.56 189.49 C 105.89 189.64 103.15 189.91 100.48 189.69 C 100.30 185.58 99.85 181.33 100.14 177.23 Z"/>
  <path id="path1681" fill="#ffffff" d="M 112.28 176.85 C 112.73 179.79 113.37 182.69 113.63 185.65 C 115.41 186.54 118.13 183.91 118.09 187.30 C 115.96 187.59 112.90 188.96 110.94 188.16 C 110.56 184.61 110.12 181.21 109.31 177.72 C 110.29 177.03 111.28 176.74 112.28 176.85 Z"/>
  <path id="path1683" fill="#e46316" d="M 82.33 178.12 L 82.38 178.98 L 82.38 179.68 L 83.08 179.70 L 83.94 179.76 C 83.68 180.86 83.07 181.32 82.11 181.16 C 81.02 180.80 81.13 178.27 82.33 178.12 Z"/>
  <path id="path1685" fill="#083282" d="M 82.33 178.12 C 83.61 177.80 84.15 178.34 83.94 179.76 L 83.08 179.70 L 82.38 178.98 L 82.33 178.12 Z"/>
  <path id="path1687" fill="#ffffff" d="M 100.70 177.86 C 101.97 177.45 102.92 177.59 103.56 178.28 C 103.81 181.07 103.37 184.21 104.08 186.88 C 105.16 186.87 106.24 186.84 107.32 186.80 L 108.23 188.03 C 107.40 189.79 102.94 189.20 101.22 189.03 C 100.54 185.63 100.60 181.36 100.70 177.86 Z"/>
  <path id="path1689" fill="#083282" d="M 82.38 178.98 L 83.08 179.70 L 82.38 179.68 L 82.38 178.98 Z"/>
  <path id="path1691" fill="#ffffff" d="M 94.20 178.16 C 94.98 181.77 96.94 185.70 97.34 189.23 C 94.24 189.74 94.62 188.45 93.58 186.24 C 92.81 186.16 92.05 186.14 91.29 186.20 C 90.56 187.72 89.62 188.58 88.46 188.78 C 88.27 186.05 91.03 182.98 92.00 180.32 C 92.45 178.63 93.18 177.91 94.20 178.16 Z"/>
  <path id="path1693" fill="#083282" d="M 81.10 182.92 C 82.70 181.45 83.52 184.67 81.84 185.18 C 80.58 184.87 80.33 184.12 81.10 182.92 Z"/>
  <path id="path1695" fill="#e46316" d="M 92.18 183.44 L 92.98 183.40 L 93.49 184.06 L 93.08 184.78 L 92.20 184.74 L 91.77 184.08 L 92.18 183.44 Z"/>
</svg>