<?xml version="1.0" encoding="UTF-8" standalone="no"?>
<svg xmlns:dc="http://purl.org/dc/elements/1.1/" xmlns:cc="http://creativecommons.org/ns#" xmlns:rdf="http://www.w3.org/1999/02/22-rdf-syntax-ns#" xmlns:svg="http://www.w3.org/2000/svg" xmlns="http://www.w3.org/2000/svg" xmlns:sodipodi="http://sodipodi.sourceforge.net/DTD/sodipodi-0.dtd" xmlns:inkscape="http://www.inkscape.org/namespaces/inkscape" inkscape:version="1.0 (4035a4f, 2020-05-01)" sodipodi:docname="67.svg" id="svg24630" height="200.0pt" width="200.0pt" viewBox="0 0 200 200" version="1.1">
  <metadata id="metadata24636">
    <rdf:RDF>
      <cc:Work rdf:about="">
        <dc:format>image/svg+xml</dc:format>
        <dc:type rdf:resource="http://purl.org/dc/dcmitype/StillImage"/>
      </cc:Work>
    </rdf:RDF>
  </metadata>
  <defs id="defs24634"/>
  <sodipodi:namedview inkscape:current-layer="svg24630" inkscape:cy="133.33333" inkscape:cx="133.33333" inkscape:zoom="1.75125" showgrid="false" id="namedview24632" inkscape:window-height="480" inkscape:window-width="640" inkscape:pageshadow="2" inkscape:pageopacity="0" guidetolerance="10" gridtolerance="10" objecttolerance="10" borderopacity="1" bordercolor="#666666" pagecolor="#ffffff"/>
  <path style="fill:#ffffff;fill-opacity:0" id="path24374" fill="#ffffff" d="M 0.00 0.00 L 86.87 0.00 C 85.05 0.91 83.28 1.71 83.16 4.02 C 82.96 6.46 84.77 7.40 86.26 8.93 C 86.31 16.63 85.31 24.27 85.80 32.00 C 85.53 45.51 85.74 58.98 85.72 72.52 C 83.60 74.90 83.53 74.82 84.70 78.14 C 81.66 74.41 77.63 73.56 73.47 71.63 C 71.75 70.81 69.74 70.93 68.43 72.43 C 66.71 74.67 65.90 77.69 64.72 80.24 C 62.24 75.07 59.01 71.09 53.87 68.39 C 56.03 68.69 57.93 68.97 60.05 68.57 C 59.02 67.70 57.99 66.81 56.98 65.92 C 58.29 66.62 59.58 67.38 60.87 68.13 C 60.26 68.79 59.65 69.46 59.05 70.13 L 61.60 69.72 C 62.99 69.56 62.26 67.89 62.54 66.91 C 62.75 65.43 63.75 64.36 63.25 62.94 C 61.88 58.35 57.66 56.77 54.98 52.79 C 54.60 51.50 54.18 50.23 53.78 48.95 L 54.25 47.84 L 52.04 47.80 L 52.09 47.21 L 54.68 47.70 L 54.31 45.24 L 52.11 45.71 C 52.00 44.40 51.87 43.09 51.75 41.79 C 50.22 43.38 48.76 45.01 46.95 46.30 C 47.04 44.84 47.16 43.39 47.26 41.94 C 45.97 42.63 44.95 43.52 43.92 44.54 C 41.93 44.04 41.19 44.47 39.45 45.31 C 38.48 47.61 35.91 48.54 35.03 51.08 C 33.71 54.40 30.57 57.55 30.56 61.17 L 32.78 62.30 C 29.54 62.71 30.91 64.61 30.62 66.95 L 33.23 67.36 C 32.58 68.64 31.86 69.89 31.26 71.18 C 34.71 72.07 33.72 75.44 36.70 77.00 C 40.19 79.37 43.56 82.30 42.84 86.99 C 42.79 89.35 41.30 90.20 39.58 91.42 C 41.74 94.42 41.08 96.83 37.81 98.41 C 38.37 99.60 38.96 100.69 39.29 101.96 C 38.53 103.01 37.33 103.76 36.31 104.57 C 36.83 105.76 37.34 106.96 37.84 108.16 C 32.12 106.15 28.53 99.85 28.24 94.01 C 27.89 89.42 29.69 85.34 28.76 80.75 C 27.83 81.85 27.23 83.09 26.64 84.41 C 25.87 84.52 25.10 84.63 24.33 84.74 C 23.15 86.75 21.99 88.76 20.55 90.60 C 18.74 95.65 19.03 98.93 20.62 103.98 C 19.56 104.34 18.51 104.70 17.45 105.06 C 18.15 106.35 18.85 107.65 19.54 108.95 C 17.54 110.88 16.29 113.25 14.74 115.52 C 16.84 117.10 15.04 119.09 14.52 121.08 C 17.25 121.94 16.35 124.71 16.67 126.95 C 20.08 128.45 21.96 130.34 23.41 133.80 C 25.37 129.82 23.52 126.93 22.67 123.03 C 21.80 120.06 24.04 116.57 27.02 115.92 C 29.43 115.48 31.82 115.97 34.20 116.32 C 33.37 116.92 32.55 117.54 31.73 118.17 C 32.49 119.12 33.26 120.08 34.02 121.04 C 33.26 122.69 32.31 123.86 31.01 125.11 C 31.95 126.03 32.87 126.97 33.76 127.94 C 33.28 128.62 32.79 129.30 32.30 129.98 C 34.68 133.10 34.03 136.94 36.37 140.10 L 36.87 140.75 C 40.46 149.51 52.37 150.60 59.23 145.24 C 60.99 143.53 61.63 141.46 62.45 139.22 C 60.21 138.04 61.03 135.09 60.16 132.86 C 58.27 128.81 55.19 126.06 52.02 123.06 C 50.61 120.62 49.22 122.06 46.96 122.21 C 42.63 122.15 37.31 119.99 38.12 114.70 C 39.90 115.95 41.58 117.43 43.47 118.49 C 45.65 119.68 47.81 119.40 50.14 119.99 C 51.54 120.74 52.49 122.37 53.55 123.52 C 53.75 121.83 53.48 120.31 54.61 118.91 C 55.37 121.31 55.70 123.76 55.97 126.26 C 56.63 124.74 57.27 123.21 57.91 121.69 C 58.21 124.50 58.49 127.31 58.93 130.10 C 59.45 128.64 59.96 127.17 60.46 125.70 C 60.58 127.54 60.71 129.38 60.85 131.22 C 62.12 133.55 61.78 135.61 61.55 138.14 C 62.80 138.46 63.48 139.09 63.57 140.04 C 65.27 148.40 73.47 153.67 80.29 157.72 C 87.59 161.53 94.48 165.41 99.76 171.93 C 96.83 172.04 93.90 172.00 90.98 171.69 C 78.78 170.34 66.18 168.68 54.55 164.53 C 54.97 162.26 56.43 158.47 54.28 156.68 C 49.88 152.92 44.07 153.84 38.79 153.41 C 34.61 151.63 31.48 149.43 27.01 152.04 C 25.63 151.68 24.27 151.29 22.90 150.89 C 23.73 147.31 25.13 143.95 26.35 140.49 C 26.75 139.65 25.69 138.47 25.01 138.08 C 21.49 136.01 17.37 134.83 13.41 133.92 C 10.62 133.32 7.55 134.40 6.47 137.21 C 4.09 143.09 2.21 149.20 0.00 155.16 L 0.00 0.00 Z"/>
  <path id="path24376" fill="#000000" d="M 86.87 0.00 L 88.05 0.00 C 89.94 1.28 90.66 2.35 91.52 4.42 C 94.36 4.06 97.16 3.84 99.99 4.32 C 104.70 5.01 108.37 7.53 113.00 9.10 C 121.96 12.13 131.81 13.12 140.78 9.60 C 138.75 14.98 133.11 18.01 127.81 19.30 C 118.32 21.59 107.54 19.08 98.00 17.86 C 94.31 17.38 91.32 18.14 88.06 19.84 C 89.30 24.03 91.16 27.74 94.26 30.87 L 95.07 29.68 L 98.22 29.63 C 97.14 30.51 96.07 31.39 95.00 32.27 L 99.14 31.37 L 97.88 34.53 C 97.34 33.93 96.80 33.34 96.25 32.74 C 95.66 33.44 95.08 34.15 94.49 34.85 C 94.02 30.80 91.12 29.02 88.75 26.04 C 88.66 27.82 88.57 29.61 88.46 31.39 L 90.76 31.54 C 90.70 32.72 90.69 33.91 90.70 35.09 C 91.56 35.83 94.39 36.17 93.66 37.62 C 91.97 39.41 89.92 39.73 87.60 40.10 C 89.71 43.35 94.10 40.75 97.03 40.32 C 96.03 38.68 95.02 37.06 93.99 35.44 L 97.55 35.24 C 97.55 36.08 97.54 36.91 97.54 37.75 C 98.56 37.17 99.58 36.59 100.60 36.02 C 100.45 35.39 100.31 34.76 100.17 34.14 C 100.72 33.25 101.27 32.36 101.81 31.47 L 99.01 31.90 C 99.61 29.98 100.21 28.06 100.80 26.14 C 101.51 26.61 102.22 27.09 102.92 27.56 C 102.54 27.12 102.17 26.68 101.80 26.22 C 101.54 25.35 101.29 24.47 101.03 23.59 C 99.97 24.94 98.93 26.22 98.53 27.93 C 97.41 28.46 96.28 28.99 95.17 29.54 C 95.90 28.62 96.65 27.72 97.43 26.83 C 98.26 23.46 100.89 22.31 103.25 20.13 C 106.08 20.59 107.64 21.84 109.65 23.76 C 108.68 28.06 108.74 32.13 105.40 35.41 C 102.20 37.90 101.98 43.25 104.36 46.32 C 104.90 43.97 105.10 41.55 105.65 39.21 C 106.69 37.56 108.60 36.41 110.01 35.07 C 111.24 34.71 112.46 34.34 113.69 33.97 L 112.82 31.55 C 114.39 32.01 115.33 32.64 116.49 33.77 C 117.87 33.27 119.09 32.96 120.58 32.94 C 119.46 35.02 119.28 37.28 118.45 39.42 C 117.56 39.82 116.65 40.19 115.73 40.53 C 114.73 43.17 114.58 44.15 111.35 43.96 C 111.33 45.31 111.29 46.67 111.25 48.02 C 108.81 49.88 106.62 51.61 106.65 54.98 C 106.23 61.31 108.21 66.85 110.10 72.87 C 111.94 73.49 114.10 72.39 116.01 72.92 C 117.74 73.22 118.00 74.45 118.88 75.74 C 122.21 74.14 125.58 72.55 129.00 71.20 C 133.71 70.21 134.39 74.98 135.90 78.19 L 136.33 79.70 L 138.71 79.34 C 137.64 81.99 136.25 84.54 135.35 87.25 C 135.17 89.19 135.51 91.19 135.63 93.12 L 137.32 95.24 C 138.59 92.54 138.00 89.61 139.22 86.90 C 139.26 89.45 139.24 92.00 139.29 94.54 C 136.24 97.95 132.18 101.08 129.99 105.11 C 129.10 111.76 130.52 119.28 130.43 125.99 C 130.34 127.53 131.20 128.27 132.12 129.34 C 131.75 127.17 130.83 124.58 131.34 122.40 C 132.52 120.15 135.16 122.48 136.91 122.91 C 135.47 121.53 134.01 120.18 132.56 118.84 C 133.08 116.01 131.88 113.75 131.61 111.03 C 131.93 109.07 132.31 107.02 133.15 105.21 C 135.39 102.52 139.81 101.58 142.90 100.05 C 143.49 98.97 144.07 97.81 144.83 96.84 C 146.80 96.04 148.95 95.63 151.03 95.23 C 149.01 96.90 146.74 97.99 145.11 100.13 C 143.41 102.23 141.12 102.79 138.73 103.79 C 140.78 105.89 144.26 105.31 146.93 105.13 C 150.22 104.49 154.39 103.30 156.54 100.55 C 157.56 99.04 156.74 97.82 156.50 96.20 C 153.74 98.35 151.16 99.57 147.59 99.62 C 150.31 98.45 153.10 98.34 155.11 96.12 C 156.62 94.71 155.84 92.54 155.82 90.75 C 152.89 90.65 150.24 90.39 148.88 87.40 C 148.06 84.93 150.22 83.24 151.42 81.35 C 150.20 82.23 148.98 83.12 147.75 84.00 C 148.14 81.86 148.12 79.22 149.27 77.34 C 150.50 74.90 152.48 73.51 154.46 71.74 C 159.15 71.28 161.14 67.21 161.71 63.03 C 161.92 60.13 161.88 56.40 160.13 53.92 C 158.66 51.50 155.35 50.69 152.91 49.43 C 149.31 49.94 147.95 52.35 145.89 54.93 C 143.57 57.92 139.31 59.93 139.20 64.13 C 140.41 67.50 143.32 62.50 145.35 63.75 C 145.51 64.91 145.65 66.08 145.76 67.26 C 146.11 66.19 146.47 65.13 146.84 64.07 C 148.16 63.13 148.93 62.40 149.57 60.86 C 150.32 61.85 151.08 62.83 151.84 63.81 C 153.55 63.24 155.26 62.67 156.97 62.10 C 157.65 60.95 158.34 59.81 159.08 58.70 C 158.44 61.70 156.58 63.75 155.23 66.44 C 147.80 68.17 142.17 72.08 138.59 78.90 L 137.57 78.67 C 139.50 74.29 142.71 71.77 146.01 68.55 L 141.91 69.15 C 142.61 67.99 143.32 66.83 144.03 65.67 C 142.74 66.89 141.45 68.05 139.91 68.94 L 142.75 70.07 C 140.09 70.20 137.39 69.33 139.67 66.42 C 139.10 65.98 138.52 65.55 137.94 65.12 C 138.55 62.68 138.69 60.46 140.63 58.64 C 143.28 56.11 145.85 53.63 148.02 50.66 C 148.22 49.40 148.44 48.15 148.63 46.89 C 148.07 47.80 147.52 48.71 146.98 49.63 L 146.73 46.01 C 149.09 46.44 151.19 46.71 153.49 45.87 L 154.43 45.62 C 154.35 44.30 154.26 42.98 154.17 41.67 C 155.46 42.51 156.43 43.44 157.40 44.65 C 158.10 44.38 158.79 44.11 159.48 43.84 C 161.99 45.77 164.32 47.85 166.08 50.52 C 167.24 53.34 168.86 55.88 170.29 58.56 C 170.66 59.59 170.52 60.70 169.88 61.90 C 170.75 63.51 170.55 65.04 170.52 66.80 L 167.85 67.58 C 168.73 68.77 169.61 69.95 170.51 71.13 C 169.62 71.34 168.72 71.56 167.83 71.78 C 167.08 75.54 164.66 76.75 161.85 78.85 C 158.08 81.67 156.56 88.71 161.75 91.02 C 161.28 92.32 160.03 93.67 160.69 95.02 C 161.09 96.78 162.35 97.36 163.74 98.25 C 163.12 99.62 161.38 100.83 162.65 102.30 C 163.40 102.95 164.18 103.56 164.99 104.14 C 164.57 105.45 164.15 106.76 163.76 108.08 C 167.66 105.95 170.47 103.11 171.97 98.86 C 174.61 92.58 171.74 87.51 172.29 80.70 C 174.33 82.06 174.03 84.55 176.86 84.59 C 178.65 87.76 181.04 89.82 181.49 93.23 C 182.37 96.72 181.80 100.10 180.57 103.41 C 181.68 103.83 182.78 104.26 183.89 104.68 C 183.16 105.92 182.43 107.16 181.69 108.39 C 183.74 110.30 185.06 112.64 186.55 114.96 C 184.67 117.03 186.14 118.27 186.81 120.47 C 183.98 121.44 185.11 123.79 184.70 126.16 C 181.56 127.92 179.39 129.73 178.06 133.18 C 176.11 129.10 178.12 126.05 178.78 122.01 C 179.37 119.28 177.61 116.53 175.07 115.59 C 172.50 114.85 169.48 115.59 166.91 116.00 C 167.85 116.58 168.79 117.15 169.74 117.72 C 169.02 118.72 167.90 119.73 167.70 120.96 C 167.82 122.46 169.52 123.62 170.44 124.72 C 169.59 125.39 168.83 126.13 168.18 126.94 C 168.56 129.03 168.90 129.52 168.27 131.80 C 167.10 131.38 165.94 130.94 164.78 130.50 C 165.94 129.72 166.62 128.53 166.82 126.93 C 164.28 128.38 162.15 129.66 159.09 129.65 L 159.05 130.84 C 160.75 130.77 162.45 130.67 164.14 130.55 C 164.64 131.04 165.14 131.54 165.62 132.04 C 163.20 132.28 160.78 132.46 158.35 132.63 C 156.81 128.85 153.94 126.62 151.15 123.81 C 148.87 125.60 146.54 126.70 146.46 129.99 C 146.25 135.90 153.89 139.24 158.15 135.10 C 158.62 134.27 159.11 133.44 159.60 132.62 C 160.77 134.27 165.83 134.58 166.33 132.14 C 166.70 132.80 167.08 133.45 167.46 134.11 C 165.60 140.28 162.44 145.92 155.80 147.68 C 149.64 149.55 140.04 145.98 139.41 138.77 C 140.57 136.66 141.03 134.36 141.86 132.13 C 143.40 128.75 145.85 126.00 148.75 123.73 C 148.43 122.08 148.07 120.43 147.66 118.80 C 145.81 120.46 146.44 122.50 146.16 124.77 L 144.77 124.73 C 144.66 123.71 144.54 122.68 144.42 121.65 C 143.26 124.16 143.33 126.74 142.95 129.41 C 142.28 127.93 141.94 126.31 141.92 124.56 C 141.21 127.14 140.69 129.68 140.63 132.36 L 139.55 132.56 C 139.65 134.15 139.83 135.78 139.70 137.37 C 137.53 139.79 137.49 142.98 135.66 145.65 C 132.12 151.32 125.15 155.20 119.57 158.67 C 112.90 162.28 106.71 165.84 102.10 172.07 C 117.02 171.52 131.96 169.08 146.28 164.81 C 146.01 162.28 144.09 158.58 146.75 156.76 C 150.81 153.40 157.75 153.75 162.74 153.58 C 165.04 152.26 167.28 150.84 170.03 150.84 C 171.39 151.06 172.69 151.80 173.94 152.38 C 175.02 151.81 177.32 151.65 177.70 150.39 C 176.93 147.07 175.59 143.98 174.53 140.76 C 173.92 139.09 175.71 138.57 176.79 137.81 C 180.76 135.72 185.49 134.08 190.02 134.30 C 192.77 134.66 194.37 137.38 195.13 139.81 C 196.74 144.77 198.67 149.64 200.00 154.68 L 200.00 158.62 C 196.48 165.98 187.22 170.47 180.03 173.45 C 180.39 176.37 181.91 179.88 179.05 182.02 C 169.12 188.78 155.82 191.89 144.48 195.18 C 132.16 198.22 119.68 199.20 107.06 200.00 L 91.43 200.00 C 78.60 199.18 65.93 197.89 53.51 194.38 C 45.49 192.06 37.77 190.35 30.20 186.72 C 27.18 185.24 23.71 184.00 21.10 181.86 C 18.68 179.51 19.80 176.31 20.51 173.49 C 13.90 170.60 5.52 166.84 1.51 160.55 C 0.99 159.69 0.48 158.82 0.00 157.94 L 0.00 155.16 C 2.21 149.20 4.09 143.09 6.47 137.21 C 7.55 134.40 10.62 133.32 13.41 133.92 C 17.37 134.83 21.49 136.01 25.01 138.08 C 25.69 138.47 26.75 139.65 26.35 140.49 C 25.13 143.95 23.73 147.31 22.90 150.89 C 24.27 151.29 25.63 151.68 27.01 152.04 C 31.48 149.43 34.61 151.63 38.79 153.41 C 44.07 153.84 49.88 152.92 54.28 156.68 C 56.43 158.47 54.97 162.26 54.55 164.53 C 66.18 168.68 78.78 170.34 90.98 171.69 C 93.90 172.00 96.83 172.04 99.76 171.93 C 94.48 165.41 87.59 161.53 80.29 157.72 C 73.47 153.67 65.27 148.40 63.57 140.04 C 63.48 139.09 62.80 138.46 61.55 138.14 C 61.78 135.61 62.12 133.55 60.85 131.22 C 60.71 129.38 60.58 127.54 60.46 125.70 C 59.96 127.17 59.45 128.64 58.93 130.10 C 58.49 127.31 58.21 124.50 57.91 121.69 C 57.27 123.21 56.63 124.74 55.97 126.26 C 55.70 123.76 55.37 121.31 54.61 118.91 C 53.48 120.31 53.75 121.83 53.55 123.52 C 52.49 122.37 51.54 120.74 50.14 119.99 C 47.81 119.40 45.65 119.68 43.47 118.49 C 41.58 117.43 39.90 115.95 38.12 114.70 C 37.31 119.99 42.63 122.15 46.96 122.21 C 49.22 122.06 50.61 120.62 52.02 123.06 C 55.19 126.06 58.27 128.81 60.16 132.86 C 61.03 135.09 60.21 138.04 62.45 139.22 C 61.63 141.46 60.99 143.53 59.23 145.24 C 52.37 150.60 40.46 149.51 36.87 140.75 C 39.60 141.09 39.82 143.23 41.21 145.19 C 41.61 143.47 42.49 142.40 43.84 141.98 C 45.10 142.81 46.19 143.83 47.21 144.94 C 45.21 144.80 42.64 142.22 41.84 145.22 C 45.56 146.81 49.03 148.24 53.00 146.39 C 52.79 145.52 52.48 144.70 52.08 143.94 C 49.32 142.34 45.90 141.68 42.74 141.55 C 41.95 141.02 41.18 140.47 40.41 139.91 L 41.84 138.75 C 40.73 138.24 39.61 137.74 38.50 137.24 L 42.28 135.85 C 39.84 135.72 37.40 135.63 34.96 135.54 L 37.98 137.50 C 37.46 138.38 36.92 139.24 36.37 140.10 C 34.03 136.94 34.68 133.10 32.30 129.98 C 32.79 129.30 33.28 128.62 33.76 127.94 C 32.87 126.97 31.95 126.03 31.01 125.11 C 32.31 123.86 33.26 122.69 34.02 121.04 C 33.26 120.08 32.49 119.12 31.73 118.17 C 32.55 117.54 33.37 116.92 34.20 116.32 C 31.82 115.97 29.43 115.48 27.02 115.92 C 24.04 116.57 21.80 120.06 22.67 123.03 C 23.52 126.93 25.37 129.82 23.41 133.80 C 21.96 130.34 20.08 128.45 16.67 126.95 C 16.35 124.71 17.25 121.94 14.52 121.08 C 15.04 119.09 16.84 117.10 14.74 115.52 C 16.29 113.25 17.54 110.88 19.54 108.95 C 18.85 107.65 18.15 106.35 17.45 105.06 C 18.51 104.70 19.56 104.34 20.62 103.98 C 19.03 98.93 18.74 95.65 20.55 90.60 C 21.99 88.76 23.15 86.75 24.33 84.74 C 25.10 84.63 25.87 84.52 26.64 84.41 C 27.23 83.09 27.83 81.85 28.76 80.75 C 29.69 85.34 27.89 89.42 28.24 94.01 C 28.53 99.85 32.12 106.15 37.84 108.16 C 37.34 106.96 36.83 105.76 36.31 104.57 C 37.33 103.76 38.53 103.01 39.29 101.96 C 38.96 100.69 38.37 99.60 37.81 98.41 C 41.08 96.83 41.74 94.42 39.58 91.42 C 41.30 90.20 42.79 89.35 42.84 86.99 C 43.56 82.30 40.19 79.37 36.70 77.00 C 33.72 75.44 34.71 72.07 31.26 71.18 C 31.86 69.89 32.58 68.64 33.23 67.36 L 30.62 66.95 C 30.91 64.61 29.54 62.71 32.78 62.30 L 30.56 61.17 C 30.57 57.55 33.71 54.40 35.03 51.08 C 35.91 48.54 38.48 47.61 39.45 45.31 C 41.19 44.47 41.93 44.04 43.92 44.54 C 44.95 43.52 45.97 42.63 47.26 41.94 C 47.16 43.39 47.04 44.84 46.95 46.30 C 48.76 45.01 50.22 43.38 51.75 41.79 C 51.87 43.09 52.00 44.40 52.11 45.71 L 54.31 45.24 L 54.68 47.70 L 52.09 47.21 L 52.04 47.80 L 54.25 47.84 L 53.78 48.95 C 53.38 49.82 52.98 50.68 52.58 51.55 C 51.42 50.80 50.24 50.06 49.06 49.34 C 46.07 50.97 42.97 51.15 41.14 54.18 C 38.18 59.93 38.97 67.01 43.91 71.44 C 44.95 71.60 45.99 71.75 47.03 71.91 C 51.21 75.25 53.77 78.74 53.74 84.35 C 52.82 83.45 51.91 82.55 51.01 81.63 L 49.76 81.76 C 51.56 83.66 53.40 84.85 52.62 87.82 C 51.30 90.75 48.50 90.68 45.74 90.92 C 45.59 92.29 45.49 93.67 45.45 95.05 C 47.24 98.48 50.93 98.47 54.18 99.79 C 50.40 99.89 47.77 98.57 44.80 96.43 C 43.45 100.83 46.23 102.98 50.00 104.18 C 53.82 105.24 59.64 106.51 63.07 104.07 C 59.19 102.77 56.85 101.71 54.68 98.10 C 53.03 97.39 51.56 96.90 50.47 95.36 C 52.39 95.79 54.35 96.20 56.20 96.87 C 57.37 97.57 58.02 99.21 58.82 100.30 C 62.40 102.00 68.82 103.10 69.41 107.81 C 70.91 111.81 68.84 114.95 69.23 118.99 C 67.85 120.35 66.45 121.70 65.05 123.04 C 66.84 122.21 68.11 121.16 70.21 121.81 C 71.36 123.94 70.03 127.09 69.71 129.38 C 70.53 128.20 71.52 127.42 71.41 125.85 C 71.32 119.30 72.05 112.58 72.16 106.06 C 69.95 101.41 65.11 98.21 62.34 94.65 C 62.09 92.20 62.41 89.65 62.63 87.21 C 64.12 89.71 62.21 94.04 65.00 95.23 C 65.17 93.08 65.31 90.93 65.52 88.79 C 66.03 90.99 66.32 93.22 66.68 95.45 C 66.73 92.99 66.61 90.53 66.59 88.07 L 68.75 88.52 C 69.33 84.83 70.14 80.71 69.40 77.01 C 70.59 76.42 71.81 75.56 73.13 75.34 C 75.71 75.58 77.98 78.13 80.17 79.36 C 79.51 79.77 78.85 80.18 78.19 80.59 C 79.17 82.62 79.13 83.92 78.73 86.11 C 83.26 87.32 89.27 86.78 92.70 83.27 C 92.38 81.77 92.10 80.26 91.84 78.75 C 89.76 78.86 87.75 78.82 85.67 78.65 C 87.52 80.03 89.24 81.47 90.86 83.11 C 87.34 85.33 83.70 84.98 79.73 84.95 C 79.85 83.41 80.00 81.86 80.18 80.31 C 80.97 81.63 81.30 82.82 81.60 84.35 C 83.19 83.63 81.44 80.57 81.50 79.28 C 82.96 79.98 84.28 80.95 85.46 82.21 L 85.62 80.21 C 82.25 76.11 77.89 74.26 73.05 72.42 C 71.55 71.80 70.21 72.01 69.01 73.07 C 67.91 75.58 67.33 78.33 66.66 80.98 C 65.95 83.34 67.09 85.10 67.19 87.65 C 65.25 86.26 64.65 83.34 63.72 81.22 C 61.63 75.28 57.06 71.04 51.58 68.18 L 54.60 68.08 C 53.24 66.77 51.84 65.63 50.25 64.62 L 50.80 68.12 C 49.11 67.52 47.42 66.91 45.75 66.26 C 44.77 63.66 42.80 61.81 42.25 58.99 C 42.92 60.03 43.53 61.09 44.13 62.16 C 46.02 62.88 47.95 63.39 49.93 63.81 C 50.61 62.71 51.29 61.62 51.96 60.51 C 52.09 61.87 52.62 62.84 53.54 63.44 C 54.86 64.26 54.90 65.72 55.32 67.08 C 55.61 65.60 56.13 64.26 56.87 63.04 C 57.95 63.89 59.02 64.75 60.08 65.62 C 60.94 65.15 61.79 64.69 62.64 64.22 C 61.30 59.97 58.08 57.89 55.23 54.80 L 54.98 52.79 C 57.66 56.77 61.88 58.35 63.25 62.94 C 63.75 64.36 62.75 65.43 62.54 66.91 C 62.26 67.89 62.99 69.56 61.60 69.72 L 59.05 70.13 C 59.65 69.46 60.26 68.79 60.87 68.13 C 59.58 67.38 58.29 66.62 56.98 65.92 C 57.99 66.81 59.02 67.70 60.05 68.57 C 57.93 68.97 56.03 68.69 53.87 68.39 C 59.01 71.09 62.24 75.07 64.72 80.24 C 65.90 77.69 66.71 74.67 68.43 72.43 C 69.74 70.93 71.75 70.81 73.47 71.63 C 77.63 73.56 81.66 74.41 84.70 78.14 C 83.53 74.82 83.60 74.90 85.72 72.52 C 85.74 58.98 85.53 45.51 85.80 32.00 C 85.31 24.27 86.31 16.63 86.26 8.93 C 84.77 7.40 82.96 6.46 83.16 4.02 C 83.28 1.71 85.05 0.91 86.87 0.00 Z"/>
  <path style="fill:#ffffff;fill-opacity:0" id="path24378" fill="#ffffff" d="M 88.05 0.00 L 200.00 0.00 L 200.00 154.68 C 198.67 149.64 196.74 144.77 195.13 139.81 C 194.37 137.38 192.77 134.66 190.02 134.30 C 185.49 134.08 180.76 135.72 176.79 137.81 C 175.71 138.57 173.92 139.09 174.53 140.76 C 175.59 143.98 176.93 147.07 177.70 150.39 C 177.32 151.65 175.02 151.81 173.94 152.38 C 172.69 151.80 171.39 151.06 170.03 150.84 C 167.28 150.84 165.04 152.26 162.74 153.58 C 157.75 153.75 150.81 153.40 146.75 156.76 C 144.09 158.58 146.01 162.28 146.28 164.81 C 131.96 169.08 117.02 171.52 102.10 172.07 C 106.71 165.84 112.90 162.28 119.57 158.67 C 125.15 155.20 132.12 151.32 135.66 145.65 C 137.49 142.98 137.53 139.79 139.70 137.37 C 139.83 135.78 139.65 134.15 139.55 132.56 L 140.63 132.36 C 140.69 129.68 141.21 127.14 141.92 124.56 C 141.94 126.31 142.28 127.93 142.95 129.41 C 143.33 126.74 143.26 124.16 144.42 121.65 C 144.54 122.68 144.66 123.71 144.77 124.73 L 146.16 124.77 C 146.44 122.50 145.81 120.46 147.66 118.80 C 148.07 120.43 148.43 122.08 148.75 123.73 C 145.85 126.00 143.40 128.75 141.86 132.13 C 141.03 134.36 140.57 136.66 139.41 138.77 C 140.04 145.98 149.64 149.55 155.80 147.68 C 162.44 145.92 165.60 140.28 167.46 134.11 C 167.08 133.45 166.70 132.80 166.33 132.14 C 165.83 134.58 160.77 134.27 159.60 132.62 C 159.11 133.44 158.62 134.27 158.15 135.10 C 153.89 139.24 146.25 135.90 146.46 129.99 C 146.54 126.70 148.87 125.60 151.15 123.81 C 153.94 126.62 156.81 128.85 158.35 132.63 C 160.78 132.46 163.20 132.28 165.62 132.04 C 165.14 131.54 164.64 131.04 164.14 130.55 C 162.45 130.67 160.75 130.77 159.05 130.84 L 159.09 129.65 C 162.15 129.66 164.28 128.38 166.82 126.93 C 166.62 128.53 165.94 129.72 164.78 130.50 C 165.94 130.94 167.10 131.38 168.27 131.80 C 168.90 129.52 168.56 129.03 168.18 126.94 C 168.83 126.13 169.59 125.39 170.44 124.72 C 169.52 123.62 167.82 122.46 167.70 120.96 C 167.90 119.73 169.02 118.72 169.74 117.72 C 168.79 117.15 167.85 116.58 166.91 116.00 C 169.48 115.59 172.50 114.85 175.07 115.59 C 177.61 116.53 179.37 119.28 178.78 122.01 C 178.12 126.05 176.11 129.10 178.06 133.18 C 179.39 129.73 181.56 127.92 184.70 126.16 C 185.11 123.79 183.98 121.44 186.81 120.47 C 186.14 118.27 184.67 117.03 186.55 114.96 C 185.06 112.64 183.74 110.30 181.69 108.39 C 182.43 107.16 183.16 105.92 183.89 104.68 C 182.78 104.26 181.68 103.83 180.57 103.41 C 181.80 100.10 182.37 96.72 181.49 93.23 C 181.04 89.82 178.65 87.76 176.86 84.59 C 174.03 84.55 174.33 82.06 172.29 80.70 C 171.74 87.51 174.61 92.58 171.97 98.86 C 170.47 103.11 167.66 105.95 163.76 108.08 C 164.15 106.76 164.57 105.45 164.99 104.14 C 164.18 103.56 163.40 102.95 162.65 102.30 C 161.38 100.83 163.12 99.62 163.74 98.25 C 162.35 97.36 161.09 96.78 160.69 95.02 C 160.03 93.67 161.28 92.32 161.75 91.02 C 156.56 88.71 158.08 81.67 161.85 78.85 C 164.66 76.75 167.08 75.54 167.83 71.78 C 168.72 71.56 169.62 71.34 170.51 71.13 C 169.61 69.95 168.73 68.77 167.85 67.58 L 170.52 66.80 C 170.55 65.04 170.75 63.51 169.88 61.90 C 170.52 60.70 170.66 59.59 170.29 58.56 C 168.86 55.88 167.24 53.34 166.08 50.52 C 164.32 47.85 161.99 45.77 159.48 43.84 C 158.79 44.11 158.10 44.38 157.40 44.65 C 156.43 43.44 155.46 42.51 154.17 41.67 C 154.26 42.98 154.35 44.30 154.43 45.62 L 153.49 45.87 C 152.24 44.48 150.99 43.09 149.64 41.79 C 149.51 42.99 149.38 44.20 149.26 45.41 C 148.19 45.33 147.35 45.53 146.73 46.01 L 146.98 49.63 C 147.52 48.71 148.07 47.80 148.63 46.89 C 148.44 48.15 148.22 49.40 148.02 50.66 C 145.85 53.63 143.28 56.11 140.63 58.64 C 138.69 60.46 138.55 62.68 137.94 65.12 C 138.52 65.55 139.10 65.98 139.67 66.42 C 137.39 69.33 140.09 70.20 142.75 70.07 L 139.91 68.94 C 141.45 68.05 142.74 66.89 144.03 65.67 C 143.32 66.83 142.61 67.99 141.91 69.15 L 146.01 68.55 C 142.71 71.77 139.50 74.29 137.57 78.67 L 135.90 78.19 C 134.39 74.98 133.71 70.21 129.00 71.20 C 125.58 72.55 122.21 74.14 118.88 75.74 C 118.00 74.45 117.74 73.22 116.01 72.92 C 114.10 72.39 111.94 73.49 110.10 72.87 C 108.21 66.85 106.23 61.31 106.65 54.98 C 106.62 51.61 108.81 49.88 111.25 48.02 C 111.29 46.67 111.33 45.31 111.35 43.96 C 114.58 44.15 114.73 43.17 115.73 40.53 C 116.65 40.19 117.56 39.82 118.45 39.42 C 119.28 37.28 119.46 35.02 120.58 32.94 C 119.09 32.96 117.87 33.27 116.49 33.77 C 115.33 32.64 114.39 32.01 112.82 31.55 L 113.69 33.97 C 112.46 34.34 111.24 34.71 110.01 35.07 C 108.60 36.41 106.69 37.56 105.65 39.21 C 105.10 41.55 104.90 43.97 104.36 46.32 C 101.98 43.25 102.20 37.90 105.40 35.41 C 108.74 32.13 108.68 28.06 109.65 23.76 C 107.64 21.84 106.08 20.59 103.25 20.13 C 100.89 22.31 98.26 23.46 97.43 26.83 C 96.65 27.72 95.90 28.62 95.17 29.54 L 95.07 29.68 L 94.26 30.87 C 91.16 27.74 89.30 24.03 88.06 19.84 C 91.32 18.14 94.31 17.38 98.00 17.86 C 107.54 19.08 118.32 21.59 127.81 19.30 C 133.11 18.01 138.75 14.98 140.78 9.60 C 131.81 13.12 121.96 12.13 113.00 9.10 C 108.37 7.53 104.70 5.01 99.99 4.32 C 97.16 3.84 94.36 4.06 91.52 4.42 C 90.66 2.35 89.94 1.28 88.05 0.00 Z"/>
  <path id="path24380" fill="#c5c6c8" d="M 88.52 2.44 L 88.89 2.88 L 88.52 2.44 Z"/>
  <path id="path24382" fill="#e12d27" d="M 88.89 2.88 C 90.16 3.50 90.48 4.14 89.85 4.80 C 89.03 4.89 88.71 4.25 88.89 2.88 Z"/>
  <path id="path24384" fill="#c5c6c8" d="M 87.27 3.77 L 87.63 4.35 C 87.83 8.23 87.66 12.12 87.88 16.01 C 87.89 18.32 88.39 20.47 87.54 22.59 C 86.98 16.35 87.22 10.02 87.27 3.77 Z"/>
  <path id="path24386" fill="#e12d27" d="M 95.16 5.41 C 95.95 5.32 96.74 5.25 97.53 5.20 C 97.66 6.44 97.79 7.67 97.92 8.91 C 100.01 9.48 102.09 10.10 104.16 10.80 C 104.19 9.51 104.23 8.22 104.27 6.93 C 110.76 9.48 116.93 12.02 123.97 12.66 C 128.71 13.21 133.30 12.57 137.97 11.86 C 134.82 16.22 130.03 17.48 125.02 18.46 C 118.39 19.94 111.20 18.49 104.51 17.38 C 103.92 15.86 104.16 13.92 104.03 12.29 C 102.01 11.94 100.00 11.58 97.98 11.22 C 97.80 12.92 97.64 14.62 97.36 16.30 L 94.57 16.52 C 94.70 14.89 94.84 13.25 94.97 11.62 C 92.72 11.68 90.52 12.02 88.30 12.44 C 88.74 9.28 92.24 9.83 94.59 9.06 C 94.73 7.83 94.92 6.62 95.16 5.41 Z"/>
  <path id="path24388" fill="#00abe5" d="M 93.34 5.19 C 93.56 6.10 93.79 7.01 94.01 7.93 C 92.17 8.39 90.34 8.84 88.50 9.27 C 88.29 5.76 90.89 6.33 93.34 5.19 Z"/>
  <path id="path24390" fill="#00abe5" d="M 98.54 5.34 C 101.39 6.03 103.29 5.21 103.89 8.84 C 102.23 8.70 100.58 8.46 98.95 8.12 L 98.54 5.34 Z"/>
  <path id="path24392" fill="#00abe5" d="M 93.87 12.62 C 93.82 13.94 93.78 15.27 93.73 16.60 C 91.97 17.02 90.21 17.45 88.44 17.86 C 88.53 16.52 88.64 15.18 88.76 13.84 C 90.43 13.31 92.14 12.95 93.87 12.62 Z"/>
  <path id="path24394" fill="#00abe5" d="M 98.80 12.43 C 100.39 12.77 101.96 13.16 103.52 13.63 C 103.51 14.91 103.50 16.18 103.50 17.46 C 101.81 17.11 100.13 16.75 98.45 16.39 C 98.56 15.07 98.68 13.75 98.80 12.43 Z"/>
  <path id="path24396" fill="#f2be30" d="M 103.55 21.32 C 104.71 21.69 105.81 22.15 106.86 22.70 C 108.05 24.37 107.64 26.03 107.82 27.98 C 107.32 27.14 106.83 26.31 106.34 25.47 C 105.29 25.14 104.23 24.81 103.18 24.47 C 103.30 23.42 103.43 22.37 103.55 21.32 Z"/>
  <path id="path24398" fill="#f2be30" d="M 88.09 23.98 C 88.35 25.47 88.16 26.74 87.52 27.78 C 85.72 28.02 87.00 24.38 88.09 23.98 Z"/>
  <path id="path24400" fill="#f2be30" d="M 101.03 23.59 C 101.29 24.47 101.54 25.35 101.80 26.22 C 102.17 26.68 102.54 27.12 102.92 27.56 C 102.22 27.09 101.51 26.61 100.80 26.14 C 100.21 28.06 99.61 29.98 99.01 31.90 L 101.81 31.47 C 101.27 32.36 100.72 33.25 100.17 34.14 C 100.31 34.76 100.45 35.39 100.60 36.02 C 99.58 36.59 98.56 37.17 97.54 37.75 C 97.54 36.91 97.55 36.08 97.55 35.24 L 93.99 35.44 C 95.02 37.06 96.03 38.68 97.03 40.32 C 94.10 40.75 89.71 43.35 87.60 40.10 C 89.92 39.73 91.97 39.41 93.66 37.62 C 94.39 36.17 91.56 35.83 90.70 35.09 C 90.69 33.91 90.70 32.72 90.76 31.54 L 88.46 31.39 C 88.57 29.61 88.66 27.82 88.75 26.04 C 91.12 29.02 94.02 30.80 94.49 34.85 C 95.08 34.15 95.66 33.44 96.25 32.74 C 96.80 33.34 97.34 33.93 97.88 34.53 L 99.14 31.37 L 95.00 32.27 C 96.07 31.39 97.14 30.51 98.22 29.63 L 95.07 29.68 L 95.17 29.54 C 96.28 28.99 97.41 28.46 98.53 27.93 C 98.93 26.22 99.97 24.94 101.03 23.59 Z"/>
  <path id="path24402" fill="#f2be30" d="M 115.67 33.71 C 115.09 35.60 113.59 36.41 112.25 37.74 C 113.65 37.32 115.06 36.90 116.47 36.48 C 117.19 35.49 117.92 34.49 118.65 33.51 C 118.56 35.01 118.41 36.51 118.21 37.99 C 116.87 40.59 115.15 38.39 113.16 37.95 C 113.74 38.94 114.32 39.94 114.91 40.93 C 114.38 41.74 113.86 42.56 113.34 43.37 L 113.43 40.19 C 112.75 39.87 112.07 39.57 111.38 39.28 L 111.57 38.35 C 110.92 37.79 110.25 37.94 109.56 38.82 L 108.86 39.07 C 107.02 39.31 106.85 41.86 106.02 43.27 C 106.32 41.63 105.89 39.56 107.35 38.44 C 109.51 36.23 112.95 35.16 115.67 33.71 Z"/>
  <path id="path24404" fill="#ffffff" d="M 88.99 35.05 C 89.94 35.95 90.78 36.98 91.63 37.98 C 90.78 38.39 89.92 38.66 89.03 38.77 C 88.59 37.66 88.57 36.42 88.99 35.05 Z"/>
  <path id="path24406" fill="#000000" d="M 111.57 38.35 L 111.38 39.28 L 109.56 38.82 C 110.25 37.94 110.92 37.79 111.57 38.35 Z"/>
  <path id="path24408" fill="#f2be30" d="M 97.46 39.24 L 98.02 39.09 L 98.13 39.66 L 97.57 39.81 L 97.46 39.24 Z"/>
  <path id="path24410" fill="#f2be30" d="M 101.63 38.21 C 101.57 40.25 101.56 42.28 101.62 44.33 C 100.49 44.33 99.35 44.32 98.21 44.32 C 97.77 45.12 97.33 45.92 96.89 46.72 C 96.10 45.59 95.31 44.45 94.51 43.33 C 96.06 42.28 97.60 41.24 99.11 40.13 C 99.96 39.50 100.80 38.86 101.63 38.21 Z"/>
  <path id="path24412" fill="#ffffff" d="M 108.86 39.07 L 109.56 38.82 L 111.38 39.28 C 112.07 39.57 112.75 39.87 113.43 40.19 L 111.41 41.41 L 109.47 39.00 C 109.72 40.83 110.13 42.38 110.88 44.05 C 109.79 44.06 108.70 44.07 107.61 44.08 C 107.70 42.18 107.95 40.76 108.86 39.07 Z"/>
  <path id="path24414" fill="#000000" d="M 149.64 41.79 C 150.99 43.09 152.24 44.48 153.49 45.87 C 151.19 46.71 149.09 46.44 146.73 46.01 C 147.35 45.53 148.19 45.33 149.26 45.41 C 149.38 44.20 149.51 42.99 149.64 41.79 Z"/>
  <path id="path24416" fill="#e12d27" d="M 87.66 44.60 C 88.36 44.45 89.06 44.31 89.77 44.19 C 89.57 45.53 89.37 46.87 89.14 48.20 C 88.08 56.29 88.88 64.70 88.73 72.86 C 88.06 70.27 87.52 67.70 87.61 65.00 C 87.73 58.20 87.57 51.39 87.66 44.60 Z"/>
  <path id="path24418" fill="#f2be30" d="M 45.26 44.52 C 45.97 45.62 46.68 46.73 47.40 47.83 C 44.99 48.98 42.72 49.88 40.85 51.87 C 37.57 55.13 36.95 60.65 37.47 65.02 C 37.70 68.27 40.13 70.17 39.49 73.46 C 38.18 73.29 36.86 73.12 35.55 72.94 C 36.54 73.92 37.52 74.91 38.48 75.92 C 41.34 75.67 42.65 73.54 45.21 72.24 C 44.55 73.61 43.97 75.02 43.50 76.46 C 45.18 75.70 46.65 74.68 48.19 73.70 C 46.83 75.10 45.44 76.47 44.08 77.87 C 42.98 77.42 41.88 76.97 40.78 76.53 C 41.15 77.49 41.52 78.46 41.88 79.42 C 39.76 78.00 37.07 76.72 35.44 74.72 C 34.37 71.44 35.80 69.42 37.18 66.61 C 35.77 67.98 34.40 69.40 33.00 70.77 C 33.73 67.72 34.27 65.92 36.61 63.86 L 33.07 64.74 C 34.03 63.91 34.96 63.05 35.84 62.15 L 33.62 62.33 C 33.00 61.16 35.27 60.05 35.93 59.45 C 34.59 59.65 33.25 59.84 31.90 60.02 C 33.29 59.00 34.67 57.99 36.06 57.00 C 35.52 56.22 34.98 55.45 34.44 54.68 C 35.63 54.19 36.83 53.71 38.02 53.23 C 37.41 52.66 36.79 52.09 36.18 51.53 C 37.69 50.49 39.15 49.51 40.93 48.99 C 40.62 47.96 40.31 46.93 40.01 45.90 C 41.06 46.80 42.10 47.71 43.12 48.64 L 42.30 44.71 C 43.25 45.75 44.19 46.81 45.12 47.87 L 45.26 44.52 Z"/>
  <path id="path24420" fill="#c5c6c8" d="M 50.11 45.23 L 50.94 45.19 L 51.30 45.89 L 50.83 46.62 L 49.99 46.66 L 49.64 45.96 L 50.11 45.23 Z"/>
  <path id="path24422" fill="#f2be30" d="M 156.11 44.68 L 156.27 47.95 C 157.10 46.83 157.92 45.71 158.76 44.60 L 158.39 48.18 C 159.36 47.42 160.32 46.65 161.29 45.90 C 160.87 46.96 160.45 48.01 160.02 49.06 L 162.95 48.16 C 162.37 49.11 161.79 50.05 161.21 51.00 C 162.06 51.22 162.91 51.44 163.77 51.65 C 163.74 52.76 163.72 53.87 163.70 54.97 C 164.67 54.63 165.64 54.28 166.61 53.94 C 166.13 54.94 165.66 55.95 165.18 56.95 C 166.60 57.81 168.01 58.71 169.35 59.70 L 165.61 59.19 C 166.89 60.44 168.15 61.70 169.40 62.98 L 164.98 61.72 C 165.92 62.57 166.86 63.41 167.81 64.25 C 167.33 64.72 166.85 65.19 166.38 65.67 C 165.70 65.04 164.99 64.44 164.30 63.84 C 163.83 59.80 163.78 56.16 161.28 52.73 C 159.39 49.97 156.67 49.09 153.76 47.81 C 154.54 46.77 155.32 45.72 156.11 44.68 Z"/>
  <path id="path24424" fill="#c5c6c8" d="M 90.32 45.88 C 91.65 45.74 92.98 45.60 94.31 45.47 C 94.67 46.23 95.03 46.99 95.39 47.75 C 98.30 48.11 98.68 45.63 101.15 45.62 C 101.71 46.28 102.25 46.95 102.77 47.64 C 104.75 47.39 105.41 46.85 106.71 45.44 C 107.89 45.58 109.08 45.72 110.26 45.86 C 109.30 46.97 108.33 48.09 107.34 49.19 C 106.31 49.98 105.42 50.80 104.57 51.77 C 101.80 51.89 99.03 51.84 96.26 51.75 C 95.85 51.18 95.43 50.61 95.01 50.04 C 92.76 49.32 91.69 47.67 90.32 45.88 Z"/>
  <path id="path24426" fill="#c5c6c8" d="M 53.78 48.95 C 54.18 50.23 54.60 51.50 54.98 52.79 L 55.23 54.80 C 58.08 57.89 61.30 59.97 62.64 64.22 C 61.79 64.69 60.94 65.15 60.08 65.62 C 59.02 64.75 57.95 63.89 56.87 63.04 C 56.13 64.26 55.61 65.60 55.32 67.08 C 54.90 65.72 54.86 64.26 53.54 63.44 C 52.62 62.84 52.09 61.87 51.96 60.51 C 51.29 61.62 50.61 62.71 49.93 63.81 C 47.95 63.39 46.02 62.88 44.13 62.16 C 43.53 61.09 42.92 60.03 42.25 58.99 C 42.80 61.81 44.77 63.66 45.75 66.26 C 47.42 66.91 49.11 67.52 50.80 68.12 L 50.25 64.62 C 51.84 65.63 53.24 66.77 54.60 68.08 L 51.58 68.18 C 57.06 71.04 61.63 75.28 63.72 81.22 C 64.65 83.34 65.25 86.26 67.19 87.65 C 67.09 85.10 65.95 83.34 66.66 80.98 C 67.33 78.33 67.91 75.58 69.01 73.07 C 70.21 72.01 71.55 71.80 73.05 72.42 C 77.89 74.26 82.25 76.11 85.62 80.21 L 85.46 82.21 C 84.28 80.95 82.96 79.98 81.50 79.28 C 81.44 80.57 83.19 83.63 81.60 84.35 C 81.30 82.82 80.97 81.63 80.18 80.31 C 80.00 81.86 79.85 83.41 79.73 84.95 C 83.70 84.98 87.34 85.33 90.86 83.11 C 89.24 81.47 87.52 80.03 85.67 78.65 C 87.75 78.82 89.76 78.86 91.84 78.75 C 92.10 80.26 92.38 81.77 92.70 83.27 C 89.27 86.78 83.26 87.32 78.73 86.11 C 79.13 83.92 79.17 82.62 78.19 80.59 C 78.85 80.18 79.51 79.77 80.17 79.36 C 77.98 78.13 75.71 75.58 73.13 75.34 C 71.81 75.56 70.59 76.42 69.40 77.01 C 70.14 80.71 69.33 84.83 68.75 88.52 L 66.59 88.07 C 66.61 90.53 66.73 92.99 66.68 95.45 C 66.32 93.22 66.03 90.99 65.52 88.79 C 65.31 90.93 65.17 93.08 65.00 95.23 C 62.21 94.04 64.12 89.71 62.63 87.21 C 62.41 89.65 62.09 92.20 62.34 94.65 C 65.11 98.21 69.95 101.41 72.16 106.06 C 72.05 112.58 71.32 119.30 71.41 125.85 C 71.52 127.42 70.53 128.20 69.71 129.38 C 70.03 127.09 71.36 123.94 70.21 121.81 C 68.11 121.16 66.84 122.21 65.05 123.04 C 66.45 121.70 67.85 120.35 69.23 118.99 C 68.84 114.95 70.91 111.81 69.41 107.81 C 68.82 103.10 62.40 102.00 58.82 100.30 C 58.02 99.21 57.37 97.57 56.20 96.87 C 54.35 96.20 52.39 95.79 50.47 95.36 C 51.56 96.90 53.03 97.39 54.68 98.10 C 56.85 101.71 59.19 102.77 63.07 104.07 C 59.64 106.51 53.82 105.24 50.00 104.18 C 46.23 102.98 43.45 100.83 44.80 96.43 C 47.77 98.57 50.40 99.89 54.18 99.79 C 50.93 98.47 47.24 98.48 45.45 95.05 C 45.49 93.67 45.59 92.29 45.74 90.92 C 48.50 90.68 51.30 90.75 52.62 87.82 C 53.40 84.85 51.56 83.66 49.76 81.76 L 51.01 81.63 C 51.91 82.55 52.82 83.45 53.74 84.35 C 53.77 78.74 51.21 75.25 47.03 71.91 C 45.99 71.75 44.95 71.60 43.91 71.44 C 38.97 67.01 38.18 59.93 41.14 54.18 C 42.97 51.15 46.07 50.97 49.06 49.34 C 50.24 50.06 51.42 50.80 52.58 51.55 C 52.98 50.68 53.38 49.82 53.78 48.95 Z"/>
  <path id="path24428" fill="#ffffff" d="M 89.14 48.20 C 91.21 49.83 93.10 51.54 94.68 53.66 C 94.78 59.97 93.15 65.62 91.20 71.54 C 90.58 72.14 89.76 72.58 88.73 72.86 C 88.88 64.70 88.08 56.29 89.14 48.20 Z"/>
  <path id="path24430" fill="#c5c6c8" d="M 152.91 49.43 C 155.35 50.69 158.66 51.50 160.13 53.92 C 161.88 56.40 161.92 60.13 161.71 63.03 C 161.14 67.21 159.15 71.28 154.46 71.74 C 152.48 73.51 150.50 74.90 149.27 77.34 C 148.12 79.22 148.14 81.86 147.75 84.00 C 148.98 83.12 150.20 82.23 151.42 81.35 C 150.22 83.24 148.06 84.93 148.88 87.40 C 150.24 90.39 152.89 90.65 155.82 90.75 C 155.84 92.54 156.62 94.71 155.11 96.12 C 153.10 98.34 150.31 98.45 147.59 99.62 C 151.16 99.57 153.74 98.35 156.50 96.20 C 156.74 97.82 157.56 99.04 156.54 100.55 C 154.39 103.30 150.22 104.49 146.93 105.13 C 144.26 105.31 140.78 105.89 138.73 103.79 C 141.12 102.79 143.41 102.23 145.11 100.13 C 146.74 97.99 149.01 96.90 151.03 95.23 C 148.95 95.63 146.80 96.04 144.83 96.84 C 144.07 97.81 143.49 98.97 142.90 100.05 C 139.81 101.58 135.39 102.52 133.15 105.21 C 132.31 107.02 131.93 109.07 131.61 111.03 C 131.88 113.75 133.08 116.01 132.56 118.84 C 134.01 120.18 135.47 121.53 136.91 122.91 C 135.16 122.48 132.52 120.15 131.34 122.40 C 130.83 124.58 131.75 127.17 132.12 129.34 C 131.20 128.27 130.34 127.53 130.43 125.99 C 130.52 119.28 129.10 111.76 129.99 105.11 C 132.18 101.08 136.24 97.95 139.29 94.54 C 139.24 92.00 139.26 89.45 139.22 86.90 C 138.00 89.61 138.59 92.54 137.32 95.24 L 135.63 93.12 C 135.51 91.19 135.17 89.19 135.35 87.25 C 136.25 84.54 137.64 81.99 138.71 79.34 L 136.33 79.70 L 135.90 78.19 L 137.57 78.67 L 138.59 78.90 C 142.17 72.08 147.80 68.17 155.23 66.44 C 156.58 63.75 158.44 61.70 159.08 58.70 C 158.34 59.81 157.65 60.95 156.97 62.10 C 155.26 62.67 153.55 63.24 151.84 63.81 C 151.08 62.83 150.32 61.85 149.57 60.86 C 148.93 62.40 148.16 63.13 146.84 64.07 C 146.47 65.13 146.11 66.19 145.76 67.26 C 145.65 66.08 145.51 64.91 145.35 63.75 C 143.32 62.50 140.41 67.50 139.20 64.13 C 139.31 59.93 143.57 57.92 145.89 54.93 C 147.95 52.35 149.31 49.94 152.91 49.43 Z"/>
  <path id="path24432" fill="#000000" d="M 48.09 53.52 C 49.41 53.46 51.85 53.08 52.78 54.13 C 53.27 56.74 47.69 54.76 48.09 53.52 Z"/>
  <path id="path24434" fill="#ffffff" d="M 96.43 53.60 C 99.08 53.43 101.80 53.39 104.45 53.62 L 105.18 55.38 C 102.25 55.41 99.32 55.43 96.39 55.37 C 96.38 54.78 96.40 54.19 96.43 53.60 Z"/>
  <path id="path24436" fill="#000000" d="M 148.92 53.20 C 150.64 53.27 152.36 53.30 154.08 53.32 C 151.90 55.52 149.66 55.58 146.70 55.88 C 147.43 54.99 148.18 54.09 148.92 53.20 Z"/>
  <path id="path24438" fill="#c5c6c8" d="M 95.95 56.54 C 99.00 56.37 102.04 56.42 105.09 56.59 C 105.16 59.15 105.24 61.70 105.32 64.26 C 102.19 64.32 99.07 64.29 95.94 64.19 C 95.91 61.64 95.91 59.09 95.95 56.54 Z"/>
  <path id="path24440" fill="#f2be30" d="M 164.30 63.84 C 164.99 64.44 165.70 65.04 166.38 65.67 C 167.16 67.15 167.77 68.70 168.31 70.29 C 167.22 69.49 166.14 68.68 165.06 67.86 C 165.52 69.25 165.98 70.65 166.45 72.04 C 165.50 74.22 165.71 75.92 162.62 75.73 C 163.56 74.76 164.51 73.80 165.47 72.85 C 163.30 73.29 161.87 73.83 161.71 71.04 C 162.60 68.64 163.64 66.32 164.30 63.84 Z"/>
  <path id="path24442" fill="#ffffff" d="M 151.33 65.71 C 150.61 67.00 148.59 68.22 147.12 68.32 C 147.09 66.81 150.44 63.57 151.33 65.71 Z"/>
  <path id="path24444" fill="#c5c6c8" d="M 94.91 65.48 C 98.53 64.78 102.49 65.12 106.16 65.36 L 106.42 68.16 C 102.47 68.20 98.52 68.18 94.56 68.07 L 94.91 65.48 Z"/>
  <path id="path24446" fill="#ffffff" d="M 93.75 69.71 C 98.28 69.66 102.80 69.70 107.33 69.76 C 107.48 70.36 107.62 70.97 107.77 71.58 C 102.95 71.56 98.13 71.60 93.32 71.44 C 93.46 70.86 93.60 70.28 93.75 69.71 Z"/>
  <path id="path24448" fill="#ffffff" d="M 128.26 72.32 C 129.62 72.19 131.86 71.83 132.41 73.49 C 133.61 76.30 134.22 79.32 135.36 82.17 C 134.60 84.50 133.88 86.84 133.12 89.17 C 133.00 85.18 131.12 80.53 132.43 76.69 C 130.17 75.66 128.33 74.50 125.85 75.76 C 124.02 77.09 122.40 78.69 120.60 80.07 C 120.51 81.32 120.42 82.57 120.35 83.83 L 119.20 83.84 C 119.57 82.34 119.94 80.85 120.32 79.35 C 119.04 79.74 117.76 80.13 116.49 80.53 C 116.58 81.98 116.29 83.31 115.62 84.53 L 115.84 80.56 L 112.68 83.85 C 112.56 81.44 116.10 80.19 117.62 78.67 C 120.69 75.73 124.44 74.05 128.26 72.32 Z"/>
  <path id="path24450" fill="#000000" d="M 40.20 73.30 C 40.80 73.62 40.80 73.62 40.20 73.30 Z"/>
  <path id="path24452" fill="#f2be30" d="M 156.14 71.96 C 157.10 72.64 158.05 73.33 159.00 74.02 C 160.55 75.28 161.89 75.79 163.86 76.19 C 161.00 78.09 158.78 79.90 157.72 83.30 C 154.09 83.18 151.86 84.65 150.88 88.18 C 149.13 86.86 150.10 84.63 151.58 83.60 C 153.12 82.81 155.00 82.57 156.67 82.20 L 156.79 81.10 C 154.05 80.79 151.58 80.74 148.86 81.36 C 150.87 78.01 154.38 80.15 157.28 80.68 C 158.49 79.32 159.73 78.00 161.06 76.75 C 159.77 76.58 158.63 76.16 157.62 75.49 C 157.12 74.32 156.62 73.15 156.14 71.96 Z"/>
  <path id="path24454" fill="#f2be30" d="M 160.53 73.24 L 161.10 73.28 L 161.10 73.87 L 160.52 73.82 L 160.53 73.24 Z"/>
  <path id="path24456" fill="#f2be30" d="M 87.08 74.23 C 89.21 74.11 90.18 75.93 91.47 77.28 C 89.15 77.49 87.40 77.66 85.36 76.33 C 85.71 75.38 85.69 74.04 87.08 74.23 Z"/>
  <path id="path24458" fill="#f2be30" d="M 90.41 73.80 C 92.14 74.08 93.77 74.48 95.43 75.06 C 94.87 75.66 94.30 76.24 93.72 76.81 C 92.31 77.00 91.24 74.64 90.41 73.80 Z"/>
  <path id="path24460" fill="#f2be30" d="M 95.76 73.75 C 99.13 73.94 101.01 74.61 102.09 77.97 C 98.76 77.46 97.64 76.45 95.76 73.75 Z"/>
  <path id="path24462" fill="#f2be30" d="M 102.36 74.30 C 103.29 73.68 105.28 74.26 105.73 75.28 C 105.24 77.19 101.54 76.30 102.36 74.30 Z"/>
  <path id="path24464" fill="#f2be30" d="M 106.94 74.09 C 110.15 74.09 110.99 74.92 112.98 77.32 C 109.54 78.46 108.00 77.35 106.94 74.09 Z"/>
  <path id="path24466" fill="#f2be30" d="M 116.83 75.24 C 118.10 76.22 116.39 77.92 115.18 77.92 C 114.07 76.95 113.19 75.81 112.28 74.66 C 113.84 74.30 115.76 73.54 116.83 75.24 Z"/>
  <path id="path24468" fill="#f2be30" d="M 151.54 76.45 C 153.91 76.75 154.73 77.26 156.32 79.05 C 154.60 78.53 152.90 77.93 151.20 77.33 L 151.54 76.45 Z"/>
  <path id="path24470" fill="#f2be30" d="M 50.01 77.00 C 49.28 78.47 47.18 78.75 45.72 78.82 C 46.38 77.04 48.28 76.43 50.01 77.00 Z"/>
  <path id="path24472" fill="#ffffff" d="M 72.32 77.18 C 74.03 76.85 75.65 77.93 77.24 78.54 C 75.04 78.82 72.88 79.18 70.72 79.69 C 71.23 78.84 71.76 78.00 72.32 77.18 Z"/>
  <path id="path24474" fill="#f2be30" d="M 99.79 80.12 C 101.23 83.76 98.71 87.74 95.65 89.66 C 90.59 93.00 83.59 93.81 77.79 92.23 C 74.31 91.20 70.31 88.20 71.15 84.08 C 71.49 81.87 73.56 79.24 75.94 80.87 C 78.66 82.60 77.32 84.46 76.48 86.77 C 82.26 88.67 90.31 88.63 94.27 83.23 C 93.74 81.25 92.69 80.04 94.10 78.11 C 96.13 76.40 98.96 77.96 99.79 80.12 Z"/>
  <path id="path24476" fill="#ffffff" d="M 128.90 76.91 C 129.42 77.53 129.92 78.16 130.40 78.81 C 128.49 78.76 126.57 78.67 124.66 78.54 C 126.05 77.76 127.23 76.91 128.90 76.91 Z"/>
  <path id="path24478" fill="#000000" d="M 157.20 77.37 C 157.77 77.73 157.77 77.73 157.20 77.37 Z"/>
  <path id="path24480" fill="#f2be30" d="M 107.59 78.40 C 109.22 80.15 106.22 83.00 108.38 84.58 C 112.48 88.33 119.91 88.77 124.87 86.61 C 124.42 84.23 122.94 81.86 125.91 80.54 C 129.03 79.44 130.35 82.46 130.49 85.00 C 130.61 88.96 126.44 91.53 123.04 92.33 C 116.25 93.77 107.72 92.64 103.02 87.02 C 100.88 84.88 101.01 81.05 102.69 78.70 C 104.15 77.55 106.13 76.77 107.59 78.40 Z"/>
  <path id="path24482" fill="#f2be30" d="M 41.88 79.42 C 43.55 79.26 45.14 81.95 44.67 83.37 C 43.17 84.21 42.32 80.39 41.88 79.42 Z"/>
  <path id="path24484" fill="#ffffff" d="M 114.59 79.02 C 113.30 80.47 111.94 81.84 110.58 83.22 C 114.66 86.35 118.74 85.17 123.42 84.73 C 122.31 85.78 121.40 86.43 119.84 86.48 C 116.72 86.68 113.12 86.18 110.40 84.59 C 108.52 83.59 109.86 81.57 109.93 79.94 C 111.48 79.59 113.04 79.31 114.59 79.02 Z"/>
  <path id="path24486" fill="#000000" d="M 122.14 80.41 C 123.66 79.93 123.80 83.00 122.23 82.61 C 121.53 81.90 121.49 81.16 122.14 80.41 Z"/>
  <path id="path24488" fill="#ffffff" d="M 86.46 81.23 C 87.94 81.04 88.77 81.59 88.93 82.87 C 87.29 82.95 86.47 82.41 86.46 81.23 Z"/>
  <path id="path24490" fill="#c5c6c8" d="M 85.26 82.55 L 85.85 82.50 L 85.93 83.08 L 85.34 83.13 L 85.26 82.55 Z"/>
  <path id="path24492" fill="#f2be30" d="M 28.28 84.70 C 27.24 89.36 26.84 93.79 27.50 98.56 C 26.90 98.42 26.29 98.28 25.69 98.14 C 25.67 95.01 26.11 91.75 25.47 88.75 C 24.55 94.70 24.74 99.20 26.81 104.86 L 28.63 104.73 C 27.88 103.16 27.14 101.58 26.39 100.01 C 26.85 99.46 27.31 98.91 27.77 98.36 C 28.47 102.84 31.40 105.49 34.62 108.31 C 33.06 108.46 29.14 107.48 28.34 109.32 C 27.50 111.74 29.53 112.37 31.22 113.32 C 32.07 113.76 32.92 114.18 33.79 114.57 C 30.02 114.17 27.32 114.44 23.73 115.61 C 23.13 115.39 22.55 115.14 21.97 114.86 C 20.71 116.86 19.39 118.47 19.66 121.01 C 20.07 123.80 21.14 126.52 21.81 129.26 C 16.05 126.03 16.38 119.72 16.83 113.98 C 18.26 111.58 19.18 110.58 21.86 109.61 C 20.74 108.39 19.73 107.10 18.76 105.76 C 21.38 104.80 23.33 104.61 26.09 104.78 C 24.33 101.91 23.49 98.81 22.51 95.62 C 22.24 97.81 22.82 99.80 23.45 101.88 C 23.01 102.64 22.57 103.39 22.12 104.14 C 19.78 100.49 20.39 97.22 20.92 93.22 C 21.91 91.43 22.81 89.60 23.69 87.75 C 25.26 86.78 26.78 85.77 28.28 84.70 Z"/>
  <path id="path24494" fill="#e12d27" d="M 173.02 84.34 C 173.90 85.00 174.78 85.66 175.66 86.34 C 176.22 89.86 176.94 93.16 176.48 96.74 L 175.53 96.06 C 175.34 93.22 175.82 90.74 173.83 88.39 L 173.63 87.64 C 173.40 86.54 173.20 85.44 173.02 84.34 Z"/>
  <path id="path24496" fill="#f2be30" d="M 49.12 86.14 C 48.73 87.20 47.40 90.16 45.98 89.66 C 44.70 87.37 47.21 86.29 49.12 86.14 Z"/>
  <path id="path24498" fill="#ffffff" d="M 154.82 86.49 C 156.01 87.57 156.05 88.63 154.96 89.68 C 153.61 88.65 153.56 87.59 154.82 86.49 Z"/>
  <path id="path24500" fill="#f2be30" d="M 175.66 86.34 C 176.44 86.89 177.21 87.46 177.96 88.04 C 180.10 91.82 181.17 95.68 180.71 100.06 C 180.45 101.98 178.98 103.17 177.79 104.57 C 179.32 104.66 180.84 104.76 182.35 104.89 C 181.69 106.72 180.78 107.83 179.35 109.12 C 181.12 110.03 182.87 110.28 183.72 112.29 C 184.51 114.41 184.63 116.80 185.10 119.02 C 184.33 121.97 183.50 124.81 181.89 127.43 C 181.30 127.14 180.71 126.85 180.12 126.55 C 179.61 127.91 179.15 129.09 178.08 130.11 C 178.39 128.07 179.16 126.94 180.55 125.48 C 182.19 120.64 182.05 118.09 178.88 113.98 C 178.47 114.50 178.06 115.03 177.65 115.56 C 175.09 113.83 172.40 113.84 169.43 113.94 L 170.15 113.39 C 171.32 112.16 174.26 111.08 173.00 109.01 C 172.36 107.02 168.47 108.10 166.87 107.91 C 169.47 105.64 171.78 103.26 173.04 99.97 C 174.61 96.18 174.15 92.36 173.83 88.39 C 175.82 90.74 175.34 93.22 175.53 96.06 C 175.14 98.97 174.13 101.60 172.86 104.22 C 173.95 104.43 175.04 104.65 176.13 104.87 C 178.36 101.70 178.73 98.89 178.71 95.09 C 177.66 98.60 177.65 101.94 174.46 104.31 C 175.15 101.79 175.91 99.30 176.48 96.74 C 176.94 93.16 176.22 89.86 175.66 86.34 Z"/>
  <path id="path24502" fill="#f2be30" d="M 69.82 89.13 C 73.04 90.53 75.15 92.50 75.90 96.02 C 77.36 102.53 75.90 111.26 73.06 117.27 C 72.63 114.46 72.78 111.79 73.13 108.99 C 73.53 106.37 72.37 104.41 71.37 102.12 C 71.21 100.23 71.01 98.34 70.69 96.47 C 69.65 96.39 68.61 96.30 67.57 96.22 C 68.28 93.84 69.03 91.48 69.82 89.13 Z"/>
  <path id="path24504" fill="#f2be30" d="M 131.28 88.87 L 131.94 89.87 C 132.89 91.85 133.32 93.93 133.81 96.06 L 131.19 96.47 C 130.07 97.86 130.57 100.30 130.40 101.99 C 126.85 107.23 129.62 111.89 128.63 117.92 C 126.17 111.00 123.82 102.20 126.02 94.99 C 126.78 92.03 128.84 90.47 131.28 88.87 Z"/>
  <path id="path24506" fill="#f2be30" d="M 157.74 89.57 C 158.44 90.13 159.13 90.70 159.81 91.28 C 159.42 94.74 159.37 95.99 161.70 98.85 C 161.49 99.87 161.31 100.91 161.17 101.94 C 161.53 103.15 162.84 104.03 163.63 104.97 C 163.27 106.05 162.91 107.14 162.55 108.22 C 159.81 102.27 157.67 96.22 157.74 89.57 Z"/>
  <path id="path24508" fill="#f2be30" d="M 43.76 89.76 C 43.66 96.35 41.83 102.55 38.92 108.41 C 38.53 107.33 38.15 106.24 37.77 105.16 C 38.76 104.16 39.74 103.14 40.71 102.12 C 40.28 101.14 39.86 100.16 39.43 99.18 C 40.27 98.00 42.07 96.65 41.76 95.04 C 41.66 92.43 40.96 91.30 43.76 89.76 Z"/>
  <path id="path24510" fill="#ffffff" d="M 94.40 92.46 C 94.47 113.55 94.45 134.65 94.30 155.74 C 91.35 153.95 88.36 152.24 85.33 150.58 C 85.33 131.97 85.31 113.36 85.41 94.74 C 88.46 94.18 91.46 93.47 94.40 92.46 Z"/>
  <path id="path24512" fill="#ffffff" d="M 107.21 92.52 C 110.17 93.49 113.20 94.14 116.25 94.76 C 115.82 113.41 116.47 132.10 115.89 150.74 C 112.97 152.37 110.14 154.13 107.27 155.85 C 107.17 134.74 107.27 113.62 107.21 92.52 Z"/>
  <path id="path24514" fill="#000000" d="M 178.71 95.09 C 178.73 98.89 178.36 101.70 176.13 104.87 C 175.04 104.65 173.95 104.43 172.86 104.22 C 174.13 101.60 175.14 98.97 175.53 96.06 L 176.48 96.74 C 175.91 99.30 175.15 101.79 174.46 104.31 C 177.65 101.94 177.66 98.60 178.71 95.09 Z"/>
  <path id="path24516" fill="#c5c6c8" d="M 67.90 98.12 C 69.09 97.23 70.85 99.64 69.04 99.90 C 67.95 99.57 67.56 98.97 67.90 98.12 Z"/>
  <path id="path24518" fill="#c5c6c8" d="M 133.92 97.85 C 133.95 99.16 133.27 99.77 131.90 99.67 C 131.79 98.23 132.46 97.62 133.92 97.85 Z"/>
  <path id="path24520" fill="#ffffff" d="M 157.89 100.99 C 158.09 102.55 159.25 104.46 157.64 105.63 C 155.70 107.51 153.09 108.91 150.46 109.50 C 146.15 110.03 142.20 110.37 139.41 106.39 C 143.00 106.37 146.22 106.85 149.68 105.66 C 152.88 104.82 155.29 102.91 157.89 100.99 Z"/>
  <path id="path24522" fill="#ffffff" d="M 43.25 102.04 C 45.37 102.14 47.16 103.96 49.09 104.84 C 53.38 107.12 57.62 106.63 62.29 106.44 C 60.91 107.66 59.88 109.71 57.82 109.70 C 54.91 109.89 51.72 110.05 48.89 109.23 C 45.70 107.77 42.38 106.21 43.25 102.04 Z"/>
  <path id="path24524" fill="#ffffff" d="M 64.92 104.61 C 67.06 106.28 66.96 108.53 67.67 110.94 C 66.86 113.69 66.27 116.51 65.36 119.23 C 65.04 120.68 63.33 121.17 62.24 121.97 C 63.30 123.91 64.37 123.53 62.17 125.11 C 62.52 126.51 64.57 127.99 62.82 129.08 C 61.13 124.65 59.01 121.04 55.41 117.88 C 58.74 113.56 61.72 109.02 64.92 104.61 Z"/>
  <path id="path24526" fill="#ffffff" d="M 136.98 104.47 C 139.69 109.15 143.12 113.26 146.16 117.71 C 142.30 121.15 140.19 125.06 138.57 129.91 C 138.41 128.95 138.25 127.98 138.09 127.01 C 138.67 126.32 139.25 125.64 139.83 124.96 L 137.98 123.90 C 138.53 123.24 139.08 122.57 139.64 121.91 C 138.42 120.99 136.55 120.52 136.25 118.87 C 135.44 116.25 134.66 113.60 134.19 110.90 C 134.52 108.58 134.62 105.66 136.98 104.47 Z"/>
  <path id="path24528" fill="#ffffff" d="M 41.78 105.87 C 44.09 107.87 46.31 109.76 49.28 110.71 C 52.58 111.93 55.79 111.43 59.21 111.26 C 54.68 116.40 45.50 114.80 41.24 110.13 C 41.39 108.70 41.56 107.29 41.78 105.87 Z"/>
  <path id="path24530" fill="#ffffff" d="M 159.07 106.14 C 160.61 106.12 160.80 109.07 159.93 109.86 C 158.38 112.05 155.59 113.46 152.95 113.69 C 148.89 113.72 145.39 114.71 142.44 111.27 C 145.93 111.23 149.04 111.73 152.39 110.42 C 155.06 109.55 156.86 107.75 159.07 106.14 Z"/>
  <path id="path24532" fill="#ffffff" d="M 36.50 110.02 C 35.62 110.90 34.57 111.58 33.34 112.06 C 33.97 113.00 34.59 113.94 35.22 114.89 L 33.79 114.57 C 32.92 114.18 32.07 113.76 31.22 113.32 C 30.02 112.02 29.32 111.30 29.32 109.47 C 31.72 109.56 34.12 109.73 36.50 110.02 Z"/>
  <path id="path24534" fill="#c5c6c8" d="M 168.17 109.03 C 170.07 108.78 171.06 108.71 172.69 109.86 C 171.85 111.04 171.02 112.23 170.15 113.39 L 169.43 113.94 C 168.33 114.22 167.23 114.49 166.13 114.75 C 166.70 113.80 167.26 112.85 167.83 111.90 C 166.72 111.26 165.68 110.54 164.71 109.73 C 165.86 109.48 167.01 109.24 168.17 109.03 Z"/>
  <path id="path24536" fill="#f2be30" d="M 37.78 111.13 C 37.64 111.97 37.35 115.05 36.05 114.61 C 34.80 113.02 36.04 111.46 37.78 111.13 Z"/>
  <path id="path24538" fill="#ffffff" d="M 39.78 110.43 C 42.14 112.43 44.35 114.62 47.44 115.42 C 50.06 116.02 53.09 115.57 55.75 115.49 C 52.31 120.52 44.67 118.71 40.75 115.31 C 38.96 113.84 39.55 112.44 39.78 110.43 Z"/>
  <path id="path24540" fill="#ffffff" d="M 161.49 110.06 C 161.57 111.68 162.40 113.65 160.90 114.87 C 156.91 118.26 149.55 120.39 145.99 115.24 C 151.03 115.81 155.27 115.65 159.34 112.32 C 160.07 111.58 160.78 110.82 161.49 110.06 Z"/>
  <path id="path24542" fill="#f2be30" d="M 163.86 111.06 C 165.23 110.95 166.85 112.44 165.73 113.73 C 164.12 114.62 163.51 112.21 163.86 111.06 Z"/>
  <path id="path24544" fill="#000000" d="M 178.56 110.83 C 182.09 112.79 183.02 114.55 182.96 118.57 C 181.95 115.68 180.20 113.36 178.56 110.83 Z"/>
  <path id="path24546" fill="#000000" d="M 23.09 111.47 C 20.70 114.16 19.30 116.54 17.95 119.88 C 18.10 116.13 19.11 112.63 23.09 111.47 Z"/>
  <path id="path24548" fill="#ffffff" d="M 163.28 113.86 L 163.57 117.11 C 160.99 121.69 153.18 123.73 149.42 119.57 C 153.86 119.70 157.64 119.13 161.13 116.22 C 161.85 115.44 162.57 114.65 163.28 113.86 Z"/>
  <path id="path24550" fill="#f2be30" d="M 165.25 116.23 C 166.88 116.41 168.87 118.78 166.83 119.94 C 165.53 120.02 165.21 117.19 165.25 116.23 Z"/>
  <path id="path24552" fill="#f2be30" d="M 35.89 117.16 C 35.97 118.52 35.70 119.75 34.79 120.79 C 32.94 119.37 33.86 117.60 35.89 117.16 Z"/>
  <path id="path24554" fill="#e12d27" d="M 20.92 118.30 L 21.76 118.24 L 22.17 118.91 L 21.75 119.64 L 20.91 119.71 L 20.49 119.03 L 20.92 118.30 Z"/>
  <path id="path24556" fill="#c5c6c8" d="M 36.80 118.17 C 38.46 119.77 39.99 121.77 42.21 122.58 C 44.46 123.47 46.66 123.44 49.05 123.72 C 44.99 128.34 34.36 125.18 36.80 118.17 Z"/>
  <path id="path24558" fill="#ffffff" d="M 164.39 117.77 C 164.51 119.53 165.38 121.43 163.85 122.79 C 160.70 125.97 156.18 126.28 152.61 123.55 C 156.31 123.46 159.50 122.92 162.42 120.51 C 163.09 119.60 163.74 118.69 164.39 117.77 Z"/>
  <path id="path24560" fill="#ffffff" d="M 166.05 122.35 C 165.88 123.62 165.65 124.88 165.35 126.12 C 162.59 128.37 158.76 129.17 155.71 126.91 C 157.47 126.69 159.33 126.62 161.06 126.18 C 163.02 125.41 164.50 123.74 166.05 122.35 Z"/>
  <path id="path24562" fill="#f2be30" d="M 33.42 124.73 L 33.99 124.76 L 33.95 125.34 L 33.37 125.31 L 33.42 124.73 Z"/>
  <path id="path24564" fill="#c5c6c8" d="M 35.37 122.88 C 36.27 123.58 37.17 124.28 38.07 124.98 C 40.43 126.80 42.99 126.76 45.82 127.10 C 42.46 130.48 34.59 128.61 35.37 122.88 Z"/>
  <path id="path24566" fill="#ffffff" d="M 50.39 124.29 C 52.96 125.58 55.78 127.80 55.23 131.05 C 55.05 135.03 50.58 137.63 46.94 137.32 C 45.09 136.86 43.22 136.18 42.85 134.06 C 43.94 130.20 47.52 126.94 50.39 124.29 Z"/>
  <path id="path24568" fill="#c5c6c8" d="M 34.67 127.05 C 37.79 129.30 39.87 129.82 43.70 130.08 C 41.74 132.03 39.40 131.78 36.90 131.34 C 34.84 130.92 34.86 128.72 34.67 127.05 Z"/>
  <path id="path24570" fill="#f2be30" d="M 64.85 129.79 C 66.61 129.98 68.31 130.44 70.02 130.88 C 70.13 133.96 70.07 136.81 71.30 139.70 C 73.11 144.29 76.66 147.76 80.99 150.02 C 88.18 153.93 95.18 157.43 101.02 163.33 C 107.41 155.83 117.39 152.90 125.02 147.01 C 130.04 142.98 132.15 136.92 131.69 130.58 C 133.47 130.17 135.25 129.79 137.05 129.48 C 137.60 136.77 136.47 143.74 130.92 148.92 C 120.97 157.13 109.59 160.66 100.91 170.75 C 95.14 164.10 87.79 160.09 80.30 155.70 C 75.09 152.48 69.96 149.62 66.94 144.04 C 64.41 139.52 64.50 134.81 64.85 129.79 Z"/>
  <path id="path24572" fill="#ffffff" d="M 34.99 132.14 C 37.10 132.35 39.21 132.67 41.31 132.96 C 40.67 135.27 37.57 134.27 35.80 134.38 C 35.51 133.64 35.24 132.89 34.99 132.14 Z"/>
  <path id="path24574" fill="#c5c6c8" d="M 159.69 135.28 C 161.92 135.14 164.16 135.01 166.39 134.82 C 165.69 135.75 164.99 136.69 164.29 137.62 C 162.57 137.06 161.04 136.53 159.69 135.28 Z"/>
  <path id="path24576" fill="#f2be30" d="M 11.98 135.26 C 16.63 135.72 21.24 137.33 25.15 139.91 C 23.80 143.58 22.82 147.20 21.06 150.70 L 19.81 148.95 C 20.31 146.23 21.47 143.60 22.34 140.98 C 19.14 139.06 16.02 137.49 12.18 137.64 C 10.53 137.60 9.47 139.55 9.99 140.99 C 10.98 145.54 16.21 148.95 20.13 150.86 C 22.27 152.07 25.90 152.49 27.04 154.78 C 21.99 154.23 17.10 151.90 13.00 148.98 C 9.86 146.58 7.11 143.13 7.50 138.95 C 7.61 136.83 9.87 134.97 11.98 135.26 Z"/>
  <path id="path24578" fill="#ffffff" d="M 34.96 135.54 C 37.40 135.63 39.84 135.72 42.28 135.85 L 38.50 137.24 C 39.61 137.74 40.73 138.24 41.84 138.75 L 40.41 139.91 C 41.18 140.47 41.95 141.02 42.74 141.55 C 45.90 141.68 49.32 142.34 52.08 143.94 C 52.48 144.70 52.79 145.52 53.00 146.39 C 49.03 148.24 45.56 146.81 41.84 145.22 C 42.64 142.22 45.21 144.80 47.21 144.94 C 46.19 143.83 45.10 142.81 43.84 141.98 C 42.49 142.40 41.61 143.47 41.21 145.19 C 39.82 143.23 39.60 141.09 36.87 140.75 L 36.37 140.10 C 36.92 139.24 37.46 138.38 37.98 137.50 L 34.96 135.54 Z"/>
  <path id="path24580" fill="#f2be30" d="M 189.04 135.47 C 191.70 135.56 193.13 137.43 193.22 139.98 C 193.16 143.96 189.92 147.67 186.78 149.80 C 182.88 152.38 178.26 154.54 173.55 154.91 C 174.69 152.93 176.90 152.69 178.85 151.80 C 183.50 150.00 188.63 146.55 190.63 141.81 C 191.28 139.71 190.32 137.96 188.04 137.82 C 184.56 138.05 181.38 139.33 178.49 141.25 C 179.14 144.06 182.03 148.34 179.97 150.89 C 177.96 147.96 176.55 143.53 175.84 140.07 C 179.39 137.49 184.68 135.74 189.04 135.47 Z"/>
  <path id="path24582" fill="#ffffff" d="M 159.70 138.26 C 161.54 138.22 163.38 138.24 165.23 138.28 C 164.51 139.08 163.79 139.88 163.06 140.67 C 161.70 140.09 160.71 139.31 159.70 138.26 Z"/>
  <path id="path24584" fill="#00abe5" d="M 12.98 138.85 C 16.02 138.72 18.41 140.08 20.94 141.56 C 20.03 143.97 19.14 146.40 18.24 148.81 C 15.84 147.05 13.51 145.55 12.01 142.89 C 11.13 141.44 10.42 138.82 12.98 138.85 Z"/>
  <path id="path24586" fill="#00abe5" d="M 189.48 139.95 C 189.37 144.33 185.66 146.61 182.60 149.05 C 181.34 146.49 180.51 144.07 179.99 141.27 C 182.25 140.40 187.55 137.69 189.48 139.95 Z"/>
  <path id="path24588" fill="#ffffff" d="M 158.40 140.55 C 156.97 142.02 155.53 143.48 154.06 144.91 L 157.79 143.48 L 159.83 143.86 C 159.59 142.68 159.42 141.49 159.31 140.29 C 160.60 140.73 161.89 141.17 163.17 141.62 C 161.66 142.89 160.16 144.29 158.50 145.36 C 156.00 147.04 152.64 146.80 149.76 146.58 C 148.86 145.91 148.83 143.62 150.16 143.28 C 152.70 141.96 155.67 141.38 158.40 140.55 Z"/>
  <path id="path24590" fill="#00abe5" d="M 6.07 142.26 C 7.55 144.71 8.84 147.04 11.02 148.95 C 15.30 152.75 20.80 154.39 26.11 156.22 C 24.83 161.60 23.08 166.79 21.28 172.01 C 15.04 169.89 9.28 167.16 4.63 162.37 C 2.89 160.48 1.00 157.66 1.67 154.96 C 2.70 150.62 4.71 146.52 6.07 142.26 Z"/>
  <path id="path24592" fill="#00abe5" d="M 194.66 142.79 C 195.75 145.87 196.91 148.94 197.94 152.04 C 198.74 154.87 199.39 157.94 197.43 160.47 C 193.37 166.28 185.75 169.82 179.23 172.09 C 177.35 167.00 176.00 161.76 174.42 156.58 C 179.55 154.68 184.36 153.19 188.73 149.75 C 191.35 147.80 192.56 145.22 194.66 142.79 Z"/>
  <path id="path24594" fill="#f2be30" d="M 30.15 152.17 C 33.53 151.55 36.00 153.89 38.48 155.76 C 41.76 154.35 44.93 154.94 48.32 155.56 C 50.22 155.97 52.55 156.64 53.80 158.25 C 54.07 159.57 54.10 161.02 52.60 161.56 C 49.70 162.79 45.92 162.04 42.97 161.23 C 38.77 160.00 36.98 156.69 33.59 154.44 C 32.57 153.77 31.50 153.78 30.40 154.46 C 30.42 156.76 32.52 157.58 34.18 158.71 C 41.15 162.57 49.38 164.73 57.03 166.80 C 67.85 169.82 79.36 172.62 90.63 172.72 C 90.69 173.73 90.69 174.10 89.89 174.83 C 81.89 174.03 73.81 173.04 66.00 171.12 C 55.71 168.72 44.94 166.05 35.29 161.70 C 32.76 160.45 29.13 158.70 28.10 155.89 C 27.35 154.22 28.41 152.54 30.15 152.17 Z"/>
  <path id="path24596" fill="#f2be30" d="M 172.05 152.96 C 173.76 154.94 172.22 157.20 170.60 158.60 C 166.98 161.57 162.20 163.40 157.82 164.95 C 148.42 168.09 138.76 170.53 129.02 172.39 C 116.82 174.57 104.07 176.04 91.70 174.81 C 92.32 173.45 93.23 173.36 94.62 173.36 C 110.95 173.71 127.34 171.60 143.04 167.09 C 151.62 164.88 161.01 162.31 168.59 157.60 C 169.85 156.98 171.40 153.92 168.92 154.13 C 164.85 154.47 162.28 160.49 158.04 161.32 C 153.77 162.22 149.88 163.61 146.36 160.12 C 147.15 158.83 147.45 157.54 148.90 156.86 C 152.72 154.96 157.79 155.02 161.96 155.17 L 161.04 156.13 C 156.85 157.11 152.91 156.15 149.20 159.07 C 150.42 160.00 151.34 160.88 152.99 160.62 C 156.85 160.22 159.89 158.30 162.63 155.67 C 165.34 153.27 168.32 151.10 172.05 152.96 Z"/>
  <path id="path24598" fill="#00abe5" d="M 33.30 156.21 L 33.84 156.21 L 33.84 156.75 L 33.30 156.75 L 33.30 156.21 Z"/>
  <path id="path24600" fill="#000000" d="M 38.74 156.17 C 43.49 156.68 47.80 155.86 51.72 159.09 C 48.73 161.72 45.44 160.30 42.31 158.81 C 41.11 157.95 39.92 157.07 38.74 156.17 Z"/>
  <path id="path24602" fill="#00abe5" d="M 27.13 157.51 C 32.86 163.02 39.84 165.11 47.22 167.40 C 60.93 171.50 74.67 174.99 89.00 176.00 C 99.85 177.46 110.35 176.18 121.14 174.95 C 132.81 173.56 144.67 170.04 155.97 166.75 C 161.91 164.78 169.17 162.45 173.43 157.65 C 174.85 162.77 176.35 167.85 178.22 172.83 C 178.93 174.97 180.02 177.81 179.19 180.00 C 178.75 181.15 177.37 181.76 176.38 182.37 C 163.79 189.08 150.31 192.51 136.46 195.53 C 115.34 199.42 93.44 199.74 72.17 196.89 C 58.74 194.67 45.21 191.54 32.57 186.42 C 29.16 184.94 25.61 183.51 22.50 181.46 C 20.74 180.23 20.65 178.11 21.23 176.20 C 22.75 170.91 24.88 165.82 26.31 160.49 C 26.59 159.50 26.86 158.50 27.13 157.51 Z"/>
  <path id="path24604" fill="#00abe5" d="M 45.01 157.96 C 46.06 157.30 49.63 157.62 48.82 159.45 C 47.64 160.02 45.21 159.46 45.01 157.96 Z"/>
  <path id="path24606" fill="#00abe5" d="M 155.81 158.10 C 156.30 159.77 153.07 159.73 152.07 159.60 C 152.06 157.67 154.49 157.07 155.81 158.10 Z"/>
  <path style="fill:#ffffff;fill-opacity:0" id="path24608" fill="#ffffff" d="M 0.00 157.94 C 0.48 158.82 0.99 159.69 1.51 160.55 C 5.52 166.84 13.90 170.60 20.51 173.49 C 19.80 176.31 18.68 179.51 21.10 181.86 C 23.71 184.00 27.18 185.24 30.20 186.72 C 37.77 190.35 45.49 192.06 53.51 194.38 C 65.93 197.89 78.60 199.18 91.43 200.00 L 0.00 200.00 L 0.00 157.94 Z"/>
  <path style="fill:#ffffff;fill-opacity:0" id="path24610" fill="#ffffff" d="M 200.00 158.62 L 200.00 200.00 L 107.06 200.00 C 119.68 199.20 132.16 198.22 144.48 195.18 C 155.82 191.89 169.12 188.78 179.05 182.02 C 181.91 179.88 180.39 176.37 180.03 173.45 C 187.22 170.47 196.48 165.98 200.00 158.62 Z"/>
  <path id="path24612" fill="#00abe5" d="M 51.42 163.22 L 52.16 162.84 L 52.88 163.26 L 52.87 164.07 L 52.13 164.46 L 51.41 164.04 L 51.42 163.22 Z"/>
  <path id="path24614" fill="#000000" d="M 31.48 168.79 C 32.29 169.24 33.09 169.70 33.88 170.17 C 34.78 172.46 35.45 174.84 36.24 177.17 C 37.58 174.98 38.02 173.90 37.62 171.38 C 42.29 173.52 47.41 175.17 52.39 176.38 C 52.09 178.53 52.13 180.60 52.35 182.77 C 53.33 181.57 54.30 180.35 55.25 179.12 C 54.90 178.37 54.56 177.62 54.22 176.88 C 55.33 177.08 56.44 177.28 57.55 177.47 C 57.49 179.59 57.59 181.65 57.85 183.75 C 59.33 181.91 60.39 180.31 60.71 177.90 C 61.16 178.26 61.60 178.62 62.05 178.98 C 59.88 181.96 58.35 185.27 55.97 188.06 C 55.70 185.66 55.46 183.26 55.17 180.86 C 53.53 182.82 52.05 184.89 50.56 186.96 C 50.11 183.21 49.76 179.45 49.11 175.73 C 48.52 176.47 47.94 177.21 47.36 177.96 C 46.69 175.56 46.11 175.30 43.90 174.30 C 43.43 175.78 42.96 177.27 42.49 178.76 C 43.67 178.22 44.85 177.68 46.02 177.13 C 45.41 178.70 44.83 180.28 44.31 181.89 C 43.85 180.59 43.54 179.46 42.11 178.87 C 41.85 180.42 41.61 181.97 41.38 183.52 C 43.62 183.61 45.28 183.03 47.25 182.10 C 46.71 183.03 46.17 183.97 45.63 184.92 C 43.12 184.23 40.64 183.46 38.17 182.66 C 39.58 179.72 40.59 176.63 41.48 173.50 C 39.68 172.95 38.68 173.26 38.47 174.43 C 37.42 176.99 36.44 179.56 35.18 182.03 C 34.11 178.80 33.17 175.52 32.03 172.31 C 31.11 174.15 30.28 176.00 29.52 177.90 C 29.87 178.47 30.21 179.04 30.56 179.62 C 29.47 179.18 28.39 178.74 27.31 178.31 C 27.88 177.93 28.44 177.56 29.01 177.18 C 30.18 174.42 31.44 171.87 31.48 168.79 Z"/>
  <path id="path24616" fill="#000000" d="M 167.84 169.58 C 171.77 169.53 174.16 174.62 171.72 177.68 C 170.19 179.30 167.70 180.10 165.74 181.13 C 165.14 177.83 163.87 174.91 162.00 172.14 C 160.88 172.18 160.56 173.09 161.03 174.88 C 158.75 173.76 158.36 173.52 155.87 174.69 C 156.54 175.94 157.22 177.19 157.91 178.43 C 158.49 177.57 159.07 176.71 159.66 175.85 C 160.09 177.23 160.53 178.62 160.97 179.99 C 159.82 179.41 158.67 178.84 157.51 178.26 C 157.96 179.78 158.40 181.30 158.85 182.81 C 161.36 182.46 162.18 180.75 163.53 178.93 C 163.60 179.91 163.68 180.88 163.75 181.86 C 160.98 182.86 158.21 183.84 155.44 184.82 C 155.78 184.25 156.11 183.68 156.45 183.12 C 155.32 181.11 154.89 174.85 151.79 175.37 C 152.07 176.32 152.35 177.26 152.64 178.20 C 151.38 177.52 150.09 176.89 148.78 176.29 C 149.41 179.62 150.23 182.86 151.73 185.92 C 150.26 186.24 148.78 186.57 147.31 186.90 C 147.73 186.35 148.15 185.80 148.56 185.25 C 147.79 182.55 147.06 179.84 146.24 177.15 C 145.28 177.95 144.61 179.05 144.22 180.44 L 144.06 179.25 C 143.45 179.85 142.83 180.45 142.22 181.05 C 142.65 182.78 143.07 184.50 143.46 186.24 C 143.92 186.69 144.38 187.15 144.84 187.61 C 143.43 187.92 142.04 188.25 140.64 188.58 C 140.76 186.68 140.74 184.85 140.26 183.00 C 139.63 181.07 139.95 179.22 137.37 178.88 C 137.29 182.51 137.93 186.01 138.47 189.57 C 135.72 187.37 133.16 184.94 130.40 182.75 C 130.75 185.43 130.93 187.85 132.61 190.05 C 131.56 190.18 130.52 190.32 129.47 190.46 C 129.85 190.00 130.23 189.54 130.61 189.08 C 130.08 186.63 130.22 183.30 128.82 181.21 C 127.66 180.86 127.15 181.14 127.29 182.07 C 127.24 184.50 127.87 187.15 127.38 189.53 C 126.06 191.95 121.69 192.14 120.32 189.70 C 119.52 186.87 119.86 184.06 118.38 181.40 C 119.86 181.31 121.34 181.22 122.81 181.12 C 122.44 181.71 122.07 182.30 121.70 182.90 C 121.99 185.01 122.11 187.21 122.68 189.27 C 123.20 191.00 126.10 190.80 126.68 189.08 C 126.83 186.99 126.63 184.85 126.52 182.76 C 126.04 182.11 125.56 181.45 125.08 180.80 C 127.08 180.57 129.08 180.30 131.08 180.02 C 133.03 181.69 134.98 183.34 137.04 184.88 C 136.78 182.79 136.35 181.05 135.32 179.21 C 144.20 177.53 153.19 175.30 161.58 171.89 C 163.56 171.11 165.69 169.72 167.84 169.58 Z"/>
  <path id="path24618" fill="#00abe5" d="M 164.90 170.91 C 168.99 169.03 173.09 177.62 168.30 179.26 C 167.06 176.58 165.58 173.77 164.90 170.91 Z"/>
  <path id="path24620" fill="#000000" d="M 71.08 180.37 C 71.04 181.32 70.99 182.26 70.95 183.21 C 69.66 181.88 68.34 180.61 66.93 179.41 C 65.65 180.50 64.42 181.27 64.12 183.06 C 63.60 185.07 63.28 188.30 65.95 188.84 C 67.31 188.72 68.67 188.57 70.02 188.38 C 67.89 190.12 64.73 190.27 62.68 188.32 C 60.11 185.99 60.95 181.49 63.88 179.85 C 65.84 178.51 68.96 179.95 71.08 180.37 Z"/>
  <path id="path24622" fill="#000000" d="M 75.89 180.32 C 77.08 183.96 77.93 187.69 79.30 191.28 C 79.65 190.12 80.00 188.97 80.35 187.81 C 81.15 189.11 81.63 190.46 83.09 191.18 C 84.49 191.20 85.21 190.51 85.26 189.09 C 83.83 187.85 81.94 186.92 80.73 185.45 C 80.17 183.92 80.86 182.10 82.39 181.45 C 88.85 181.62 95.09 182.70 101.64 182.11 C 100.45 185.54 100.60 188.91 101.52 192.39 C 100.43 192.34 99.34 192.30 98.24 192.25 C 98.38 190.50 98.52 188.76 98.54 187.00 C 98.41 185.56 99.03 183.05 97.12 182.62 L 96.76 185.12 C 95.81 184.08 94.75 183.18 93.66 182.30 C 93.29 185.64 93.22 188.90 93.60 192.24 C 92.51 192.20 91.41 192.16 90.31 192.12 C 90.89 188.87 91.07 185.58 91.15 182.28 C 90.04 182.74 89.02 183.42 88.11 184.31 C 87.67 184.36 87.23 184.41 86.79 184.46 C 85.02 182.37 84.63 181.07 81.77 182.92 C 83.33 184.50 85.16 185.75 86.80 187.23 C 87.82 188.95 86.94 190.38 85.57 191.49 C 82.31 191.85 78.88 191.15 75.59 191.04 C 75.83 189.68 76.09 188.83 75.24 187.59 C 74.15 187.63 73.06 187.69 71.97 187.77 C 72.11 188.74 72.25 189.72 72.39 190.70 C 71.61 190.55 70.82 190.40 70.04 190.26 C 72.07 186.98 73.77 183.53 75.89 180.32 Z"/>
  <path id="path24624" fill="#000000" d="M 114.43 181.73 C 114.60 182.78 114.78 183.83 114.95 184.88 C 113.21 183.14 112.40 182.35 109.73 182.35 C 109.80 183.86 109.87 185.37 109.94 186.88 C 110.89 186.21 111.83 185.53 112.77 184.86 C 112.79 186.31 112.82 187.76 112.85 189.20 C 112.13 188.39 111.40 187.58 110.67 186.78 C 110.22 188.27 110.01 189.82 110.04 191.44 C 112.61 191.56 113.89 190.39 115.74 188.90 C 115.51 189.85 115.29 190.79 115.07 191.73 C 112.51 191.84 109.96 192.04 107.41 192.31 C 107.72 189.44 107.60 186.59 107.37 183.72 C 106.97 183.22 106.57 182.72 106.18 182.22 C 108.93 182.01 111.68 181.82 114.43 181.73 Z"/>
  <path id="path24626" fill="#00abe5" d="M 73.89 185.38 L 74.72 185.34 L 75.10 186.07 L 74.67 186.81 L 73.85 186.84 L 73.46 186.12 L 73.89 185.38 Z"/>
  <path id="path24628" fill="#000000" d="M 105.31 190.17 C 107.10 190.25 105.53 192.96 104.28 192.10 C 103.97 191.28 104.31 190.64 105.31 190.17 Z"/>
</svg>