<?xml version="1.0" encoding="UTF-8"?>
<!-- Generator: Adobe Illustrator 13.0.2, SVG Export Plug-In . SVG Version: 6.00 Build 14948)  -->
<!DOCTYPE svg PUBLIC "-//W3C//DTD SVG 1.0//EN" "http://www.w3.org/TR/2001/REC-SVG-20010904/DTD/svg10.dtd">
<svg version="1.0" id="Ebene_1" xmlns="http://www.w3.org/2000/svg" xmlns:xlink="http://www.w3.org/1999/xlink" x="0px" y="0px" width="485.14px" height="566.929px" viewBox="0 0 485.14 566.929" enable-background="new 0 0 485.14 566.929" xml:space="preserve">
<path fill-rule="evenodd" clip-rule="evenodd" fill="#FBC900" d="M41.74,105.176L19.79,51.87l46.244-19.911l14.855,33.709  l55.301-12.917l-6.551-34.938l60.145-11.217l7.871,37.81l70.252-0.544l7.84-36.19l61.316,8.464l-8.02,37.558l60.026,10.681  l12.238-34.422l47.513,17.032L430.327,96.22c-0.591,1.554-1.196,3.106-1.813,4.654C300.687,66.055,171.983,60.213,41.74,105.176  L41.74,105.176z M406.648,158.17c-11.198,52.217-14.278,110.466-2.883,162.823c0.882,4.049,1.853,8.078,2.92,12.082  c6.615,24.838,16.108,46.563,30.766,67.83l0.313,0.455l2.12,5.377c-60.444,23.955-121.41,32.551-189.39,34.504  c-71.264,2.047-142.227-11.033-202.203-30.48l1.852-4.51l0.051-0.109c10.166-21.633,17.589-46.178,22.625-69.523  c12.627-58.535,7.267-114.813-12.391-171.102l-0.034-0.097l-0.023-0.078C178.4,123.901,293.393,127.998,406.648,158.17  L406.648,158.17z M461.251,463.267l0.028,3.965l-0.014,0.188c-1.263,17.797-6.231,31.627-18.806,44.438  c-1.332,1.357-2.708,2.67-4.11,3.953c-31.028,28.408-75.551,16.223-113.226,17.055c-5.239,0.115-10.474,0.613-15.653,1.402  c-12.522,1.904-25.004,5.518-36.768,10.191c-9.14,3.633-18.765,8.213-26.952,13.697l-2.785,1.865l-2.719-1.959  c-22.612-16.291-49.611-22.943-77.181-22.461c-4.332,0.076-8.671,0.447-12.971,0.961c-7.613,0.908-15.147,2.289-22.687,3.666  c-3.139,0.572-6.284,1.152-9.438,1.633c-2.421,0.369-4.989,0.725-7.439,0.74c-7.002,0.041-14.008-0.732-20.809-2.41  c-33.762-8.334-54.274-36.232-65.495-67.566l-0.624-1.744l0.696-1.697c69.004,23.34,149.467,41.764,232.472,38.262  C328.006,504.44,403.074,482.974,461.251,463.267L461.251,463.267z"/>
<path fill-rule="evenodd" clip-rule="evenodd" fill="#DD1822" d="M239.597,250.871c90.373,0,163.663,42.462,163.663,94.822  s-73.29,94.82-163.663,94.82c-90.374,0-163.663-42.461-163.663-94.82S149.224,250.871,239.597,250.871L239.597,250.871z"/>
<path fill-rule="evenodd" clip-rule="evenodd" d="M34.756,103.119l-22.34-54.251l56.54-24.344l15.226,34.55l45.43-10.611  l-6.598-35.184L194.205,0l8.055,38.696l61.062-0.473l7.991-36.892l72.572,10.018l-8.068,37.786l49.515,8.811l12.535-35.255  l58.29,20.896l-20.435,54.405c3.614,1.344,7.214,2.737,10.796,4.187l10.331,4.182l-30.863,64.799l-9.202-3.799  c-1.906-0.787-3.832-1.553-5.771-2.302c-10.05,49.936-12.511,105.07-1.703,154.728c0.863,3.965,1.814,7.91,2.858,11.83  c6.448,24.209,15.668,45.338,29.955,66.07l0.682,0.988l0.436,1.104c0.609-0.213,1.218-0.428,1.827-0.643l8.682-3.064l31.392,61.789  l-9.94,4.553c-2.715,1.242-5.47,2.463-8.254,3.666l0.01,1.334l-0.029,0.408c-1.575,22.201-8.481,37.287-24.745,52.174  c-7.18,6.574-15.418,11.428-24.571,14.707c-29.812,10.68-61.645,3.156-92.359,3.836c-24.379,0.537-56.184,10.83-76.342,24.332  l-6.06,4.059l-5.918-4.264c-21.59-15.555-47.446-21.852-73.764-21.391c-4.139,0.072-8.289,0.43-12.398,0.92  c-7.495,0.895-14.917,2.258-22.339,3.615c-5.567,1.016-12.233,2.432-17.863,2.465c-46.774,0.279-76.77-32.1-91.679-73.738  l-1.359-3.797l0.075-0.182c-2.739-1.172-5.454-2.367-8.137-3.596L0,462.626l29.113-64.939l9.214,3.424  c2.259,0.84,4.522,1.67,6.791,2.492c9.951-21.211,17.22-45.305,22.155-68.18c12.054-55.877,7.393-109.592-10.592-163.317  c-2.487,1.196-4.91,2.456-7.249,3.783l-10.113,5.735L9.635,114.048l9.458-4.28C24.22,107.448,29.448,105.233,34.756,103.119  L34.756,103.119z M433.207,403.245c-15.453-22.523-24.665-44.459-31.183-68.928c-15.612-58.615-11.245-122.71-0.983-172.894  c-53.143-18.28-116.694-23.417-171.555-21.606c-23.919,0.79-48.007,2.953-71.704,6.275c-20.564,2.882-41.264,6.687-61.333,12.046  c-9.806,2.618-20.224,5.772-30.115,9.735c18.786,55.65,23.811,111.304,11.2,169.762c-5.006,23.203-12.772,48.547-22.48,69.498  c26.013,9.053,52.603,16.756,79.664,21.75c23.971,4.424,47.388,6.326,71.707,7.119c12.137,0.396,24.279,0.584,36.417,0.928  c35.728,1.014,71.272-2.898,106.223-10.188C377.623,420.788,405.609,412.622,433.207,403.245L433.207,403.245z M456.146,470.577  c-66.038,26.51-148.264,41.961-216.796,41.076c-67.058-0.865-144.275-11.055-208.763-35.832  c17.183,43.57,47.067,62.152,79.917,61.955c8.857-0.053,32.471-6.646,52.479-6.998c28.002-0.49,56.132,6.113,80.084,23.371  c16.132-10.807,49.822-25.396,81.951-26.107c36.912-0.814,80.759,11.051,110.075-15.789  C445.474,502.749,453.881,491.999,456.146,470.577L456.146,470.577z M13.838,457.417c67.611,30.971,154.85,42.826,225.647,43.74  c69.104,0.893,160.878-16.023,231.344-48.289l-22.269-43.834c-60.339,21.301-130.601,40.529-206.018,38.389  c-60.958-1.73-108.045,0.623-207.873-36.473L13.838,457.417L13.838,457.417z M425.836,94.457l16.746-44.585l-38.352-13.749  l-11.986,33.715l-68.962-12.271l7.979-37.364l-51.748-7.143l-7.711,35.595l-78.065,0.605l-7.714-37.056l-50.755,9.466l6.512,34.729  L78.088,71.276l-14.54-32.995L26.057,54.423l18.505,44.938C83.516,85.003,126.236,75.84,166.41,71.013  c19.587-2.354,39.33-3.747,59.058-4.001C293.041,66.139,361.691,72.424,425.836,94.457L425.836,94.457z M23.421,119.332  c54.681-24.744,131.384-40.909,202.182-41.824c69.104-0.893,145.553,5.488,216.977,34.401l-21.79,45.749  c-55.07-22.736-126.768-30.474-191.65-28.332c-60.951,2.012-143.963,14.223-184.886,37.431L23.421,119.332L23.421,119.332z"/>
<path d="M65.406,142.393c-0.434,1.705-1.628,3.966-2.612,5.082c-0.982,1.113-2.31,2.009-3.971,2.685  c-3.644,1.481-7.113,1.42-10.402-0.193c-3.29-1.613-5.773-4.484-7.446-8.599c-1.69-4.158-1.911-7.94-0.669-11.347  c1.241-3.406,3.739-5.872,7.492-7.397c3.269-1.329,6.251-1.633,8.954-0.908c2.697,0.727,4.805,2.377,6.304,4.958l-5.469,2.223  c-0.883-1.218-1.974-1.979-3.282-2.271c-1.309-0.292-2.789-0.105-4.427,0.56c-2.182,0.887-3.573,2.382-4.167,4.49  c-0.594,2.107-0.319,4.566,0.828,7.388c1.152,2.834,2.701,4.789,4.653,5.868c1.95,1.073,4.06,1.152,6.326,0.231  c1.698-0.69,2.914-1.769,3.654-3.239c0.735-1.468,0.881-3.133,0.443-4.99l-5.91,2.403l-1.813-4.46l10.799-4.39l5.736,14.11  l-3.596,1.461L65.406,142.393L65.406,142.393z"/>
<path d="M339.241,121.969c-1.234,1.253-3.407,2.603-4.819,3.069c-1.41,0.465-3.008,0.569-4.783,0.314  c-3.894-0.561-6.857-2.364-8.883-5.417c-2.025-3.053-2.721-6.785-2.089-11.181c0.64-4.442,2.357-7.82,5.149-10.133  c2.79-2.314,6.19-3.183,10.2-2.606c3.493,0.502,6.221,1.745,8.188,3.735c1.961,1.989,2.947,4.477,2.94,7.461l-5.844-0.841  c-0.146-1.498-0.705-2.705-1.688-3.617c-0.982-0.913-2.354-1.499-4.104-1.75c-2.33-0.335-4.287,0.253-5.863,1.772  c-1.576,1.52-2.58,3.781-3.014,6.796c-0.436,3.028-0.086,5.497,1.055,7.415c1.143,1.911,2.924,3.043,5.345,3.392  c1.814,0.261,3.409-0.057,4.79-0.952c1.375-0.896,2.342-2.26,2.9-4.084l-6.314-0.909l0.686-4.765l11.538,1.66l-2.169,15.077  l-3.842-0.553L339.241,121.969L339.241,121.969z"/>
<path d="M75.607,127.873c0.853,2.977,2.18,5.098,3.975,6.367c1.794,1.269,3.878,1.56,6.253,0.879  c2.399-0.688,4.031-2.044,4.894-4.075c0.862-2.031,0.863-4.534,0.009-7.51c-0.851-2.97-2.179-5.091-3.985-6.356  c-1.807-1.265-3.91-1.551-6.31-0.863c-2.375,0.681-3.988,2.032-4.839,4.052C74.753,122.388,74.752,124.891,75.607,127.873  L75.607,127.873z M69.937,129.499c-1.252-4.367-1.055-8.173,0.591-11.419c1.646-3.245,4.486-5.45,8.527-6.608  c4.035-1.157,7.618-0.794,10.749,1.088c3.13,1.882,5.32,5.004,6.569,9.359c1.25,4.361,1.047,8.169-0.609,11.424  c-1.657,3.255-4.503,5.462-8.538,6.619c-4.042,1.159-7.618,0.794-10.735-1.092C73.372,136.983,71.188,133.86,69.937,129.499  L69.937,129.499z"/>
<path d="M122.397,108.155l-1.539,12.472l7.65-1.487L122.397,108.155L122.397,108.155z M118.03,103.279l6.545-1.272l15.292,25.622  l-5.951,1.157l-2.972-5.3l-10.677,2.075l-0.712,6.016l-5.97,1.161L118.03,103.279L118.03,103.279z"/>
<path d="M207.6,97.498l-3.213,12.149l7.78-0.437L207.6,97.498L207.6,97.498z M203.933,92.075l6.657-0.374l11.681,27.457l-6.053,0.34  l-2.227-5.654l-10.859,0.61l-1.521,5.864l-6.073,0.341L203.933,92.075L203.933,92.075z"/>
<path d="M304.975,98.886l-5.053,11.506l7.754,0.771L304.975,98.886L304.975,98.886z M302.191,92.961l6.635,0.66l7.296,28.933  l-6.033-0.6l-1.326-5.93l-10.822-1.076l-2.409,5.559l-6.053-0.602L302.191,92.961L302.191,92.961z"/>
<polygon points="143.397,126.916 139.531,99.332 145.246,98.53 146.687,108.81 158.066,107.215 156.625,96.936 162.34,96.134   166.206,123.719 160.491,124.52 158.777,112.291 147.398,113.886 149.112,126.115 143.397,126.916 "/>
<polygon points="171.671,122.964 169.037,94.896 189.423,92.982 189.881,97.862 175.193,99.24 175.755,105.224 189.188,103.964   189.638,108.764 176.206,110.025 176.883,117.246 192.26,115.803 192.747,120.986 171.671,122.964 "/>
<polygon points="264.702,118.639 266.108,90.481 286.558,91.503 286.314,96.397 271.58,95.661 271.28,101.665 284.754,102.338   284.514,107.153 271.04,106.48 270.678,113.723 286.103,114.494 285.843,119.694 264.702,118.639 "/>
<polygon points="371.141,131.804 378.128,104.492 397.965,109.566 396.751,114.313 382.459,110.657 380.969,116.48 394.04,119.825   392.845,124.496 379.774,121.152 377.977,128.178 392.94,132.006 391.649,137.051 371.141,131.804 "/>
<path d="M230.958,114.152l4.649-0.081c2.69-0.047,4.629-0.787,5.807-2.218c1.183-1.425,1.744-3.727,1.688-6.886  c-0.055-3.147-0.657-5.456-1.806-6.911c-1.149-1.462-2.912-2.169-5.301-2.128l-5.353,0.093L230.958,114.152L230.958,114.152z   M225.367,119.336l-0.491-28.172l11.033-0.192c4.322-0.076,7.568,1.037,9.73,3.331c2.163,2.293,3.289,5.813,3.371,10.56  c0.046,2.572-0.307,4.851-1.056,6.83c-0.749,1.979-1.864,3.579-3.332,4.799c-1.107,0.914-2.369,1.576-3.792,1.993  c-1.423,0.41-3.417,0.641-5.997,0.686L225.367,119.336L225.367,119.336z"/>
<polygon points="347.325,126.981 352.72,99.223 358.433,100.333 354.034,122.965 367.583,125.598 366.585,130.726 347.325,126.981   "/>
<path d="M397.827,129.718l5.457,1.668c-0.244,1.533,0.026,2.808,0.805,3.829c0.779,1.015,2.109,1.81,3.997,2.387  c1.607,0.492,2.903,0.575,3.895,0.251c0.99-0.318,1.653-1.041,1.996-2.162c0.499-1.632-1.432-3.694-5.788-6.197  c-0.06-0.032-0.111-0.061-0.151-0.087c-0.116-0.063-0.29-0.164-0.526-0.304c-2.343-1.315-3.944-2.473-4.8-3.484  c-0.769-0.896-1.239-1.939-1.424-3.119c-0.184-1.181-0.063-2.465,0.365-3.867c0.8-2.617,2.304-4.35,4.506-5.203  c2.199-0.846,4.979-0.759,8.337,0.267c3.14,0.96,5.367,2.452,6.684,4.475c1.313,2.03,1.61,4.402,0.883,7.136l-5.313-1.625  c0.299-1.332,0.103-2.475-0.586-3.428c-0.696-0.955-1.875-1.69-3.538-2.199c-1.451-0.444-2.652-0.504-3.61-0.177  s-1.597,1.01-1.916,2.057c-0.437,1.426,0.767,2.952,3.602,4.595c0.77,0.446,1.372,0.794,1.798,1.047  c1.804,1.096,3.079,1.915,3.812,2.438c0.737,0.532,1.358,1.063,1.863,1.591c0.904,0.944,1.48,1.999,1.722,3.17  c0.241,1.17,0.148,2.456-0.28,3.858c-0.855,2.797-2.459,4.677-4.816,5.639s-5.248,0.922-8.68-0.127  c-3.383-1.034-5.797-2.63-7.235-4.787C397.437,135.205,397.084,132.659,397.827,129.718L397.827,129.718z"/>
<path d="M119.378,474.405l5.421,1.135c3.138,0.658,5.586,0.313,7.332-1.039c1.751-1.342,3.011-3.869,3.783-7.555  c0.769-3.67,0.679-6.51-0.27-8.506c-0.948-2.002-2.809-3.289-5.596-3.873l-6.244-1.307L119.378,474.405L119.378,474.405z   M111.511,478.95l6.879-32.857l12.869,2.695c5.041,1.055,8.517,3.205,10.422,6.441c1.906,3.236,2.283,7.625,1.124,13.16  c-0.628,3-1.64,5.555-3.034,7.654c-1.393,2.102-3.111,3.666-5.139,4.695c-1.529,0.77-3.169,1.203-4.933,1.313  c-1.762,0.1-4.14-0.16-7.147-0.789L111.511,478.95L111.511,478.95z"/>
<polygon points="150.533,485.05 153.96,451.63 178.233,454.12 177.638,459.929 160.149,458.136 159.418,465.261 175.412,466.901   174.826,472.616 158.833,470.976 157.951,479.573 176.26,481.45 175.627,487.624 150.533,485.05 "/>
<polygon points="220.547,491.491 221.25,457.903 245.645,458.413 245.523,464.253 227.947,463.884 227.796,471.046 243.871,471.382   243.75,477.126 227.676,476.79 227.496,485.431 245.897,485.815 245.767,492.019 220.547,491.491 "/>
<polygon points="325.465,485.903 320.551,452.669 344.689,449.099 345.543,454.876 328.152,457.446 329.2,464.534 345.104,462.181   345.945,467.866 330.041,470.218 331.304,478.767 349.512,476.075 350.419,482.212 325.465,485.903 "/>
<polygon points="193.145,489.327 183.975,454.995 191.617,455.538 196.954,481.114 206,456.563 213.548,457.101 199.747,489.798   193.145,489.327 "/>
<polygon points="254.965,492.157 253.824,458.581 261.053,458.335 275.47,480.942 274.685,457.872 281.501,457.64 282.643,491.216   275.508,491.458 260.998,468.854 261.782,491.925 254.965,492.157 "/>
<polygon points="301.474,489.187 298.611,461.743 288.699,462.776 288.076,456.806 314.707,454.028 315.33,459.999 305.487,461.024   308.35,488.468 301.474,489.187 "/>
<path d="M364.304,459.978l7.752-1.918c1.678-0.414,2.825-1.061,3.451-1.939c0.618-0.877,0.747-2.045,0.384-3.514  c-0.344-1.389-0.99-2.348-1.933-2.879c-0.943-0.531-2.183-0.604-3.696-0.229l-8.056,1.992L364.304,459.978L364.304,459.978z   M362.168,479.634l-7.921-32.037l15.539-3.842c3.49-0.863,6.267-0.754,8.313,0.324c2.055,1.074,3.459,3.154,4.219,6.229  c0.483,1.953,0.479,3.688-0.022,5.197c-0.494,1.508-1.454,2.691-2.874,3.547c1.52,0.152,2.692,0.658,3.538,1.527  c0.838,0.873,1.563,2.371,2.183,4.496l1.068,3.746c0.007,0.029,0.018,0.074,0.032,0.133c0.509,1.898,1.213,2.963,2.1,3.168  l0.242,0.98l-7.232,1.789c-0.342-0.396-0.647-0.904-0.938-1.533c-0.282-0.631-0.559-1.398-0.807-2.307l-0.923-3.348  c-0.564-1.965-1.268-3.217-2.114-3.74c-0.848-0.531-2.152-0.578-3.904-0.146l-6.986,1.729l3.08,12.459L362.168,479.634  L362.168,479.634z"/>
<path fill-rule="evenodd" clip-rule="evenodd" fill="#FFFFFF" d="M219.423,208.322c-4.954-0.55-6.604-5.039-5.665-9.272  c2.733,2.327,4.413,4.297,6.842,1.755c0.278-3.263-0.595-5.017,3.078-8.307c1.555-1.393,4.216-2.345,6.236-2.302  c0.039-4.061,4.475-6.324,7.919-6.556c3.745-0.42,7.535,0.489,10.774,2.278c1.556,0.859,4.452,2.906,6.107,3.21  c2.904,0.444,3.788-0.779,4.667-3.031c3.891,2.175,3.527,6.35-0.005,9.183c1.603,2.411,4.078,4.476,6.391,5.925l-0.574,3.279  c-1.243-0.054-3.214,0.518-4.362,0.823c0.983,2.777,0.796,6.234,1.212,8.998c0.07,0.466,0.168,0.941,0.293,1.414  c-0.069-2.248,0.124-3.963,1.481-5.813c1.898-2.588,4.738-4.731,7.394-6.495c6.555-4.356,13.598-10.343,18.383-16.9  c5.993-8.213,7.981-12.561,11.287-26.458c7.163,5.954,9.71,19.747,7.487,28.346c7.589-7.638,11.396-14.521,14.927-24.56l3.742-0.754  c6.484,10.153,5.593,29.115-5.328,44.065c10.509-4.2,20.541-11.835,27.472-21.754c7.305,19.917-7.785,38.43-24.877,49.218  c14.88,1.322,25.003-2.179,34.241-5.467c-3.78,19.782-20.251,26.909-38.95,29.226c10.912,10.232,21.501,14.225,35.627,14.568  c-9.587,16.106-31.792,14.657-48.103,9.199c8.842,11.579,25.852,23.468,39.042,26.46c-8.632,8.959-23.753,8.533-34.762,4.914  c-8.208-2.699-16.274-7.475-21.691-12.645c3.471,7.695,9.738,14.764,11.96,17.607c-17.496,3.264-35.45-15.631-43.569-31.412  c-2.055,4.082-2.306,7.176-0.249,10.414c2.13,3.355,7.006,4.121,10.619,5.16l0.71,0.914c-1.015,0.57-2.31,1.301-3.263,2.328  c-1.204,1.295,0.264,2.441,1.922,3.828c8.026,6.707,16.086,12.678,25.354,18.254c-4.933,2.139-11.972,4.459-17.261,5.488  c9.953,11.076,15.488,23.979,15.488,38.105c-0.119,35.303-24.595,55.775-53.978,55.775c-33.112-0.359-56.359-28.635-54.815-55.859  c-0.391-15.455,6.063-28.775,17.126-38.775c-5.688-1.318-10.278-2.543-16.142-5.24c8.137-5.094,20.894-13.225,26.25-19.668  c0.836-1.008,1.115-2.162,0.464-3.041l-0.356-3.055c5.84-0.949,10.902-3.346,8.029-14.947c-2.256,3.689-3.77,5.045-6.567,8.328  c-7.715,9.049-22.837,21.508-34.936,23.523l-0.553-4.4c4.959-5.33,7.071-6.838,10.426-13.258  c-14.393,11.955-33.724,16.428-52.333,10.303l0.015-4.754c10.33-4.078,24.787-13.561,36.364-25.045  c-21.041,6.297-38.64,0.34-46.76-11.47c13.835-1.161,25.254-5.253,35.076-11.88c-16.957-2.913-34.484-10.77-38.095-29.339  l3.713-2.115c9.879,5.759,18.539,8.229,31.762,7.945c-17.898-9.922-28.467-28.977-26.876-47.765l4.042-1.153  c6.025,8.623,11.785,13.899,21.765,18.439c-4.946-9.536-8.366-29.423-1.296-41.738l4.874,1.511  c2.444,11.963,5.127,21.159,14.243,30.179c-1.96-9.247-3.386-29.484,6.924-34.82c1.127,8.69,4.992,18.981,10.372,26.162  c2.163,2.886,4.658,5.537,7.096,8.189c4.064,4.418,8.492,7.476,13.481,10.701c3.268,2.112,7.625,4.735,9.245,8.428  c0.553,1.261,0.783,2.583,0.741,3.957c-0.026,0.837-0.151,1.593-0.362,2.278l2.289,1.228c-1.048-2.284-1.361-4.309-1.585-6.727  C221.067,210.833,220.298,210.124,219.423,208.322L219.423,208.322z M263.899,220.967l-0.696-1.49  c-0.273,0.452-0.775,0.975-1.926,1.365c1.4,3.926,3.055,6.014,5.962,8.222c-1.147,0.956-4.408,2.108-6.912,1.454  c2.148,3.235,4.826,5.1,6.406,8.303c2.627-0.5,4.282-0.896,7.021-0.807c2.098,0.067,4.395,0.474,6.242,0.97  c2.75-1.379,3.965-6.291,0.688-8.507c-3.075-2.079-5.976-2.808-9.468-3.92c-2.914-0.717-5.301-2.396-6.922-4.926  C264.158,221.418,264.026,221.196,263.899,220.967L263.899,220.967z M218.048,222.256c-1.596,2.014-3.129,2.198-5.919,3.088  c-1.335,0.426-2.684,0.811-4.028,1.205c-2.677,0.784-6.166,1.765-8.479,3.329c-1.555,1.052-2.146,2.396-2.247,4.247  c-0.052,0.966,1.179,3.237,2.012,4.483c4.928-1.41,8.166-1.464,12.89,0.344c4.08-2.471,5.685-8.093,8.182-12.112  C219.261,225.807,217.843,224.446,218.048,222.256L218.048,222.256z"/>
<path fill-rule="evenodd" clip-rule="evenodd" d="M258.633,204.119c1.67,0.275,3.322-1.038,5.784-0.931  c-3.135-1.963-5.91-6.691-7.009-8.294c2.256-1.237,3.781-3.495,2.9-6.292c-1.684,2.303-3.533,3.243-5.828,2.885  c-3.776-0.673-8.396-6.442-15.95-5.594c-1.91,0.214-4.465,1.26-5.864,3.291c-1.057,1.535-0.91,2.776,1.064,4.15  c1.248,0.868,3.001,1.935,4.12,3.686c1.947,3.049,2.635,6.744,1.928,9.602c-0.468,1.891-1.686,3.385-3.893,4.022  c-0.051,4.174-3.771,5.854-5.864,6.194c-1.753,0.284-3.683,0.205-6.108-1.051c0.319,3.438,2.255,4.655,3.711,5.571  c-0.633,0.6-3.509,3.423-7.063-0.181c-0.32,2.989,1.396,4.747,4.13,5.213c-3.352,5.108-7.004,12.62-11.255,14.605  c-4.707-2-8.579-1.439-14.726-0.901c-1.047-1.294-2.838-4.495-2.753-6.044c0.129-2.381,1.002-4.083,2.869-5.345  c3.177-2.148,8.427-3.292,12.871-4.71c4.88-1.558,7.485-3.448,7.606-7.364c0.271-8.706-12.178-10.214-23.093-22.083  c-7.733-8.409-13.395-14.236-15.518-30.597c-4.54,2.694-7.512,14.308-2.514,33.284c-9.059-7.553-16.642-18.986-19.635-33.643  c-6.919,11.177-6.131,30.687,2.993,45.016c-10.206-3.512-19.604-11.174-26.938-21.67c-1.975,23.317,10.22,38.51,28.375,48.369  c-9.737,3.796-21.79,1.95-36.636-6.705c2.774,14.267,14.268,25.082,39.389,28.495c-7.103,5.468-20.911,12.571-35.199,14.726  c8.376,9.394,24.748,13.673,49.207,4.43c-11.708,13.667-27.091,24.036-42.622,32.325c18.416,6.061,38.814,1.441,57.229-16.402  c-3.196,9.131-9.212,16.492-15.923,23.705c13.518-2.25,31.619-17.783,40.946-34.6c2.575,6.387,3.713,12.533,1.056,16.719  c-1.328,2.092-4.29,4.256-8.521,4.443l0.162,1.527c0.515-0.074,2.292,0.355,1.663,2.262c-1.776,5.391-16.713,15.201-24.291,19.945  c5.523,2.068,10.996,3.436,16.6,4.35c-12.251,9.416-20.133,24.186-19.713,40.789c0.718,28.43,22.893,51.244,51.122,51.244  s50.883-22.336,50.883-51.244c0-14.486-6.677-29.746-17.661-39.734c5.818-0.928,11.49-2.443,17.216-4.926  c-7.578-4.742-23.474-16.59-25.369-19.705c-1.043-1.713,1.567-2.875,2.082-2.801l-0.587-1.166c-3.453-1.029-6.624-2.775-7.951-4.865  c-2.656-4.184-0.801-10.092,1.773-16.479c10.524,22.206,27.069,35.821,39.51,34.721c-6.711-7.215-11.172-15.414-14.367-24.545  c16.379,18.443,38.334,27.971,57.108,17.24c-15.052-5.057-33.787-20.213-40.228-31.248c24.459,9.244,41.19,6.162,49.566-3.232  c-17.042-1.556-27.139-9.258-34.96-17.121c25.122-2.934,35.897-11.115,38.671-25.381c-8.859,4.464-29.771,6.31-34.959,3.592  c17.795-10.218,32.504-27.925,27.775-46.214c-7.333,10.496-19.485,18.996-30.649,21.67c14.272-16.723,14.342-35.635,7.424-46.812  c-5.748,16.333-11.295,24.773-19.636,31.607c5.956-16.462,1.547-26.998-2.634-31.008c-3.799,14.684-8.743,21.948-16.476,30.357  c-8.186,8.901-15.821,11.13-19.013,15.48c-1.064,1.45-1.274,2.75-1.207,4.926c0.122,2.599,1.889,8.081,7.846,9.519  c4.444,1.419,6.702,1.965,9.878,4.112c1.866,1.262,2.381,3.205,2.51,5.584c0.084,1.549-1.467,4.152-3.592,5.566  c-2.305-0.202-4.664-0.955-6.688-1.021c-3.01-0.097-5.616,0.479-8.447,1.013c-0.096-0.043-0.187-0.091-0.271-0.146  c-1.646-3.758-3.697-5.332-5.178-6.942c-1.15-1.253-2.795-2.77-1.958-4.875c2.075,0.94,3.492,1.14,5.986,0.659  c-2.729-2.687-4.895-5.628-4.43-10.116c0.778,0.5,2.016,0.659,3.113,0.598c-0.899-1.329-1.585-3.117-1.884-5.106  C260.07,210.718,260.51,206.641,258.633,204.119L258.633,204.119z M246.482,193.105c0.245,0.086,0.576-0.276,0.419-0.482  c-1.56-2.042-5.223-3.863-9.017-3.661c-1.748,0.093-4.291,1.179-3.349,3.477c0.294,0.719,1.46,1.279,2.268,1.292  c0.485,0.008,0.671-0.343,1.058-0.57C239.641,192.116,242.24,191.605,246.482,193.105L246.482,193.105z M207.836,329.2  c-0.197-0.951,0.012-2.291,1.031-3.32c3.356-3.07,9.842-6.605,13.964-8.352c0.001-3.783,4.013-6.367,6.648-6.197  c-0.978,2.555-0.399,4.568-0.18,6.943c3.403,0,2.889,1.365,5.583,1.52l-0.11,1.129c-7.18,0.398-14.024,1.211-20.178,4.262  C212.236,326.353,209.977,327.698,207.836,329.2L207.836,329.2z M241.494,320.698l0.043-1.766c2.561-0.338,2.52-0.992,5.517-1.436  c0.34-1.713,2.234-2.947-0.002-6.523c2.936-0.35,6.827,2.053,6.229,5.535c4.542,2.828,10.968,6.539,14.323,9.609  c0.937,0.945,1.004,2.387,0.746,3.49c-2.596-2.074-5.399-3.861-8.386-5.293C254.405,321.649,248.374,320.706,241.494,320.698  L241.494,320.698z M250.432,354.194c0.697-2.674,2.234-6.008,3.053-8.563c-0.119-1.475-2.514-1.215-2.634-0.656  c-0.681,1.994-1.073,3.861-1.728,5.867c-0.297,0.912-0.744,1.854-1.129,2.848c-1.193,3.086-1.02,4.416-3.858,4.475  c-5.457,0.109-10.965,0.596-16.392,3.211c-2.17,4.496-3.323,12.904-3.023,18.432l-16.015,8.018c-2.043-1.07-3.812-2.484-5.203-3.674  c-2.253-1.928-4.415-2.857-5.808-4.936c-0.836-1.248-1.396-3.217-1.534-5.205c-0.216-3.131-0.162-7.24,0.673-10.557  c-0.16-1.043-1.691-0.307-1.834-0.447c-0.731,0.572-1.704,5.738-1.48,10.193c0.125,2.498,0.584,5.814,0.834,6.988  c-0.484,3.166-0.881,5.523-2.046,8.408c-2.08-5.4-3.282-11.248-3.436-17.346c-0.048-1.904,0.313-15.732,7.079-22.979  c0.469,3.129,0.565,8.219,0.935,10.605c3.934-3.951,11.822-12.4,17.696-7.727c2.474,1.969,5.482,4.766,7.487,6.402  c0.912,0.744,1.617,0.963,1.971,1.256c0.524,0.35,2.413-0.764,1.36-1.658c-4.39-3.734-7.301-6.041-8.925-7.68  c-1.263-1.273-1.701-2.238-1.757-2.545c-0.744-4.074-0.315-7.652,1.333-11.129c1.168-2.465,7.336-6.371,17.029-6.801  c1.305-0.059-0.082-2.406-0.723-2.473c-8.06,0.018-15.31,5.256-16.071,5.195c-1.831-0.146-3.261-0.482-5.475-0.793  c6.1-4.91,16.478-8.543,26.631-8.543c2.982,0,5.53,0.621,8.345,1.125c-1.015,1.316-2.516,2.568-4.508,3.766  c5.626,3.27,8.104,5.641,11.513,12.699c3.897-0.656,13.529-1.41,15.456-0.025c0.618,0.445,0.768,0.773,1.223,1.361  c1.298,1.68,3.281,4.615,3.591,5.045c0.465,0.691,2.127-0.635,1.414-1.629c-0.81-1.129-2.263-3.209-3.114-4.527  c-0.74-1.145-0.611-2.715,0.006-2.939c0.37-0.135,0.878,0.467,1.586,1.23c5.891,6.369,10.058,13.906,11.844,22.877  c-1.215-0.293-2.631-0.691-3.774-1.906c-1.337,5.566-3.013,11.393-6.585,16.643c0.897,4.219,1.656,9.865,1.915,17.6  c1.462,0.031,2.847-0.166,4.277-0.227c-3.705,7.443-9.243,13.758-16.067,18.355c0.239-1.553,0.785-3.043,1.341-3.529  c0.414-0.363,1.533-1.365,2.454-2.26c1.342-1.303,2.892-2.828,4.009-4.1c0.925-1.055,1.677-2.121,2.095-3.018  c0.708-2.004-2.087-1.262-2.13-1.195c-0.862,1.32-5.01,5.748-7.145,7.611c-1.848,1.615-1.835,1.666-4.34,2.152  c-2.802,0.543-10.918,0.297-11.182-1.072l-2.896-11.984c-0.298-1.23-2.811-0.543-2.729,0.02c0.883,4.098,2.439,8.893,2.647,12.77  c-1.378,2.016-11.945,8.594-13.988,9.963c0.608,0.814,1.342,1.623,2,2.742c-6.083-0.336-11.812-1.787-17.022-4.146  c-1.361-0.617-7.793-3.801-10.494-7.838c2.661-0.393,3.215-0.551,4.171,0.197c0.434,0.338,1.434,1.48,2.486,2.217  c2.804,1.965,5.271,3.09,7.862,3.537c0.932,0.242,0.653-2.311,0.155-2.32c-1.571-0.291-3.819-1.301-6.125-2.789  c-2.598-1.68-3.918-5.463-4.531-8.324c-0.598-2.791-1.317-6.596-1.181-10.305l16.233-8.551c4.839,4.096,10.375,7.367,16.695,9.1  c6.375-3.836,10.818-7.961,13.928-12.602c0.926-1.383,2.272-1.295,4.569-0.871c2.669,0.49,5.502,0.756,8.201,0.902  c0.599,0.119,0.957-2.514,0.119-2.635c-4.168-0.221-8.231-0.797-12.387-2.135c-1.845-5.479-4.085-9.045-6.797-12.189  C248.253,358.474,249.549,357.575,250.432,354.194L250.432,354.194z M225.149,307.878l5.81-7.088  c0.898,1.102,2.036,2.203,3.114,3.064c1.287-1.301,2.625-2.502,4.073-3.484c1.337,1.242,2.674,2.703,4.012,4.264  c1.652-0.711,2.8-2.268,4.133-3.783l5.03,8.289c-1.69-0.984-3.979-2.418-5.49-2.414c-0.925,0.002-2.389,1.27-5.11,2.895  c-0.958-2.703-1.797-4.945-2.754-6.367c-1.215,1.99-1.91,4.154-2.635,6.307c-1.782-1.109-4.283-3.063-5.046-3.092  C228.688,306.409,227.021,307.388,225.149,307.878L225.149,307.878z M251.25,297.651c-0.459-0.971-0.604-0.572-0.563,0.518  c0.123,3.172,1.446,7.52,3.211,9.598c1.771,2.086,4.728,3.34,6.982,2.225C257.071,306.993,253.214,301.813,251.25,297.651  L251.25,297.651z M225.23,299.239c0.582-0.902,0.61-0.5,0.489,0.586c-0.305,2.734-1.962,7.135-3.841,9.111  c-1.726,1.814-4.689,3.053-7.483,1.496C218.566,307.962,222.736,303.106,225.23,299.239L225.23,299.239z M263.674,279.87  c2.779,0.572,7.992,0.917,12.283-1.053c0.4,3.794-2.559,6.263-4.96,6.624C267.498,285.968,263.814,284.005,263.674,279.87  L263.674,279.87z M279.725,277.324c2.881-0.575,6.731-2.493,9.056-7.032c1.648,2.725,1.24,5.869-0.921,7.729  C286.367,279.306,282.111,280.406,279.725,277.324L279.725,277.324z M291.601,266.577c2.871-1.305,5.816-4.04,6.983-9.013  c2.673,2.163,2.435,5.555,0.873,7.942C298.379,267.156,294.75,268.875,291.601,266.577L291.601,266.577z M299.52,252.545  c1.914-1.833,4.179-5.66,4.751-10.96c3.13,1.424,3.671,5.065,2.759,7.767C306.4,251.22,303.901,254.017,299.52,252.545  L299.52,252.545z M304.658,235.656c0.771-2.32,0.558-7.111-0.923-10.571c4.105-0.086,5.492,2.849,5.626,5.205  C309.473,232.259,308.458,235.633,304.658,235.656L304.658,235.656z M301.476,220.181c-0.817-2.813-3.926-6.3-7.962-7.689  c3.198-2.588,6.552-1.772,8.263-0.146C303.034,213.541,304.395,217.123,301.476,220.181L301.476,220.181z M289.174,210.102  c-1.82-2.295-5.005-4.243-9.266-4.001c1.981-3.605,4.923-3.443,7.306-2.654C288.826,203.979,290.719,206.167,289.174,210.102  L289.174,210.102z M299.118,206.43c2.122,1.098,4.765,3.486,6.002,5.172c4.712-4.178,10.693-12.499,10.122-21.172  C311.5,197.84,304.29,203.665,299.118,206.43L299.118,206.43z M276.18,287.634c-2.646,0.654-5.811,0.883-7.475,0.09  c1.825,6.494,5.841,10.473,12.273,14.238C278.652,297.175,276.236,293.349,276.18,287.634L276.18,287.634z M292.176,278.7  c-1.691,2.33-3.845,4.191-6.188,4.833c5.426,4.953,12.212,12.188,22.665,12.955C301.511,291.649,295.258,285.464,292.176,278.7  L292.176,278.7z M305.327,261.635c-0.39,3.19-2.532,5.823-4.444,7.134c6.604,4.09,22.008,8.682,28.817,6.681  C320.54,272.884,311.314,267.481,305.327,261.635L305.327,261.635z M310.768,243.535c0.471,1.217,0.566,3.628-0.334,5.85  c6.387,0.555,17.497-0.75,21.717-5.424C321.836,245.019,314.625,243.978,310.768,243.535L310.768,243.535z M309.819,221.744  c1.068,2.367,1.991,4.792,1.579,7.187c6.783-2.819,16.029-10.024,18.311-17.417C322.962,217.254,317.165,220.585,309.819,221.744  L309.819,221.744z M286.978,200.291c2.281,0.433,4.21,1.355,5.725,3.162c4.334-5.577,7.255-12.042,6.295-19.186  C295.871,191.918,291.583,196.661,286.978,200.291L286.978,200.291z M213.979,279.979c-3.011,0.94-8.261,0.961-12.166-1.999  c-0.691,3.753,2.068,6.442,4.435,6.989C209.696,285.765,213.521,284.091,213.979,279.979L213.979,279.979z M197.824,277.711  c-3.078-0.689-6.94-2.823-8.501-7.693c-2.473,2.905-1.723,6.356,0.292,8.373C191.007,279.784,195.213,280.604,197.824,277.711  L197.824,277.711z M185.432,264.422c-2.872-1.305-5.817-4.04-6.983-9.014c-2.673,2.164-2.435,5.555-0.874,7.942  C178.653,265.001,182.283,266.72,185.432,264.422L185.432,264.422z M177.592,250.224c-1.64-2.083-3.347-6.188-3.173-11.517  c-3.299,0.973-4.343,4.503-3.817,7.306C170.964,247.951,173.047,251.07,177.592,250.224L177.592,250.224z M173.692,234.099  c-0.771-2.319-0.558-7.111,0.923-10.571c-4.105-0.087-5.492,2.849-5.626,5.204C168.876,230.702,169.892,234.077,173.692,234.099  L173.692,234.099z M177.712,218.864c0.817-2.813,3.925-6.3,7.961-7.689c-3.199-2.588-6.552-1.772-8.263-0.146  C176.154,212.224,174.793,215.806,177.712,218.864L177.712,218.864z M189.851,208.07c2.054-2.088,5.427-3.686,9.639-2.992  c-1.587-3.796-4.581-4.618-6.944-3.774C190.61,201.994,188.733,203.993,189.851,208.07L189.851,208.07z M179.247,206.197  c-2.218,0.89-5.077,3.013-6.47,4.574c-4.29-4.61-9.208-13.444-7.807-22.023C167.983,196.484,174.364,202.95,179.247,206.197  L179.247,206.197z M199.639,288.278c2.507,1.066,6.93,1.039,8.7,0.521c-2.836,6.121-7.585,10.355-14.534,13.051  C196.863,297.493,198.676,293.911,199.639,288.278L199.639,288.278z M185.574,278.101c1.692,2.33,3.964,4.67,6.309,5.312  c-5.425,4.952-11.853,11.231-21.587,10.92C177.438,289.495,182.493,284.386,185.574,278.101L185.574,278.101z M172.783,261.037  c0.27,3.549,3.011,5.823,5.282,7.134c-6.603,4.09-18.296,6.527-25.105,4.526C161.641,270.13,167.395,266.403,172.783,261.037  L172.783,261.037z M167.462,242.696c-0.351,2.055-0.088,4.466,1.412,6.928c-6.387,0.555-15.342-1.468-19.562-6.143  C159.626,244.54,163.486,243.737,167.462,242.696L167.462,242.696z M168.873,221.06c-1.244,2.28-2.023,5.133-1.793,7.553  c-6.552-3.321-13.391-10.103-14.979-16.196C158.604,217.463,161.635,219.352,168.873,221.06L168.873,221.06z M192.187,199.51  c-2.336,0.5-4.348,1.332-5.987,2.633c-3.813-5.946-6.389-12.551-4.789-19.578C183.835,190.468,187.927,195.48,192.187,199.51  L192.187,199.51z"/>
<path fill-rule="evenodd" clip-rule="evenodd" d="M234.705,205.175c0.371-1.476-1.131-3.627-2.247-4.507  c-1.271-1.002-2.936-0.984-4.455-0.714c-0.897,0.16-1.56,0.529-2.267,1.103l-1.476,1.196l-0.14-1.895  c-0.379-5.156,3.117-7.945,8.044-7.093c4.719,0.817,6.988,6.665,6.731,10.952c-0.215,3.574-3.326,5.704-6.574,6.404  c-2.847,0.613-5.881-0.544-6.406-3.712l-0.254-1.534l1.499,0.415c0.883,0.244,1.851,0.337,2.766,0.348  c1.07,0.012,2.216-0.086,3.259-0.338C233.495,205.724,234.466,205.444,234.705,205.175L234.705,205.175z M235.646,205.496  c-0.386,1.36-5.495,2.151-8.752,1.25c0.462,2.785,3.201,3.338,5.218,2.903c3.281-0.707,5.625-2.728,5.791-5.493  c0.244-4.048-1.913-9.222-5.909-9.914c-3.62-0.626-7.262,0.896-6.884,6.042c0.943-0.764,1.753-1.137,2.719-1.309  c1.829-0.325,3.732-0.28,5.244,0.912C234.867,201.302,236.114,203.845,235.646,205.496L235.646,205.496z"/>
<path fill-rule="evenodd" clip-rule="evenodd" d="M232.336,205.05c-1.277-1.521-3.385-2.311-4.911-2.223  c-2.987,0.173-4.373,2.017-6.887,2.042c-1.751,0.017-2.955-0.361-4.492-1.802c1.138,2.443,2.481,3.621,4.492,3.844  c2.606,0.29,4.562-2.042,7.127-2.583C228.882,204.073,231.099,204.669,232.336,205.05L232.336,205.05z"/>
</svg>