<?xml version="1.0" encoding="UTF-8" standalone="no"?>
<!DOCTYPE svg PUBLIC "-//W3C//DTD SVG 1.1//EN" "http://www.w3.org/Graphics/SVG/1.1/DTD/svg11.dtd">
<svg xmlns="http://www.w3.org/2000/svg" version="1.1" viewBox="0 0 200 200" width="200.0pt" height="200.0pt">
<path d="M 0.00 0.00 L 200.00 0.00 L 200.00 98.28 C 199.49 82.45 195.68 66.86 188.11 52.90 C 177.93 33.85 161.38 18.25 141.73 9.26 C 115.16 -3.09 83.30 -2.86 56.92 9.92 C 36.74 19.53 20.02 36.12 10.24 56.22 C -2.64 82.32 -3.22 113.91 8.66 140.48 C 17.68 160.92 33.76 178.10 53.54 188.47 C 66.97 195.65 81.86 199.29 97.04 200.00 L 0.00 200.00 L 0.00 0.00 Z" fill="#ffffff"/>
<path d="M 141.73 9.26 C 161.38 18.25 177.93 33.85 188.11 52.90 C 195.68 66.86 199.49 82.45 200.00 98.28 L 200.00 102.93 C 199.27 118.62 195.39 134.00 187.79 147.79 C 177.32 167.00 160.44 182.60 140.42 191.42 C 128.52 196.77 115.70 199.41 102.71 200.00 L 97.04 200.00 C 81.86 199.29 66.97 195.65 53.54 188.47 C 33.76 178.10 17.68 160.92 8.66 140.48 C -3.22 113.91 -2.64 82.32 10.24 56.22 C 20.02 36.12 36.74 19.53 56.92 9.92 C 83.30 -2.86 115.16 -3.09 141.73 9.26 Z" fill="#015397"/>
<path d="M 94.43 6.59 C 110.73 5.63 127.16 8.91 141.74 16.26 C 167.41 28.99 186.42 53.74 191.89 81.89 C 195.98 102.81 192.85 124.97 182.77 143.78 C 169.28 169.41 143.67 187.95 115.03 192.46 C 95.76 195.55 75.65 192.61 58.22 183.78 C 45.76 177.61 34.94 168.54 26.30 157.68 C 13.50 141.33 6.26 120.80 6.45 100.00 C 6.17 71.47 19.96 43.84 42.37 26.34 C 57.23 14.68 75.57 7.66 94.43 6.59 Z" fill="#ffffff"/>
<path d="M 89.50 9.76 C 114.91 6.79 140.98 14.87 160.07 31.91 C 172.29 42.68 181.53 56.66 186.53 72.17 C 190.83 85.31 191.82 99.31 189.99 112.98 C 187.47 130.63 179.61 147.43 167.66 160.65 C 156.44 173.24 141.67 182.55 125.49 187.29 C 109.02 192.09 90.98 192.10 74.51 187.28 C 59.01 182.74 44.83 174.00 33.81 162.19 C 21.31 148.99 12.97 131.97 10.22 113.99 C 7.89 98.56 9.43 82.60 14.99 68.00 C 21.61 50.36 33.90 35.03 49.53 24.53 C 61.44 16.49 75.24 11.45 89.50 9.76 Z" fill="#015397"/>
<path d="M 96.19 13.77 C 97.95 13.58 99.73 13.57 101.49 13.51 C 100.68 22.94 100.06 32.39 99.37 41.83 C 97.15 42.16 94.93 42.45 92.71 42.73 C 89.92 33.56 87.14 24.37 84.52 15.15 C 86.38 14.90 88.24 14.66 90.10 14.43 C 91.91 21.68 93.27 29.06 95.39 36.22 C 96.07 28.78 95.14 21.13 96.19 13.77 Z" fill="#ffffff"/>
<path d="M 114.88 15.34 C 116.58 15.72 118.27 16.11 119.97 16.49 C 119.08 20.06 118.16 23.62 117.31 27.20 C 118.84 27.43 120.38 27.65 121.92 27.88 C 122.82 24.55 123.72 21.22 124.61 17.89 C 126.35 18.37 128.10 18.85 129.85 19.32 C 127.11 28.32 124.67 37.41 122.08 46.45 C 120.43 45.89 118.79 45.34 117.15 44.78 C 118.17 41.01 119.26 37.25 120.45 33.52 C 118.94 33.04 117.42 32.57 115.90 32.11 C 114.92 35.93 113.89 39.73 113.01 43.57 C 111.33 43.23 109.65 42.88 107.97 42.53 C 110.03 33.41 112.69 24.43 114.88 15.34 Z" fill="#ffffff"/>
<path d="M 74.63 19.42 C 76.54 20.18 77.83 22.56 79.07 24.10 C 77.68 24.83 76.28 25.55 74.88 26.27 C 73.72 25.36 72.51 23.41 70.95 23.42 C 68.02 24.39 69.40 28.47 71.51 29.44 C 74.29 30.24 77.39 29.96 80.12 30.86 C 83.93 32.70 84.90 36.94 85.53 40.75 C 86.84 40.47 89.00 38.42 89.89 40.08 C 90.91 41.25 90.46 42.46 89.58 43.53 C 87.91 44.03 86.62 42.26 85.27 41.42 C 84.07 45.80 79.18 48.23 74.90 47.45 C 72.21 46.27 71.30 43.97 69.96 41.58 C 71.37 40.90 72.78 40.22 74.18 39.54 C 75.57 40.90 76.45 43.66 78.83 42.75 C 81.57 42.14 80.14 37.70 78.33 36.65 C 74.81 35.34 69.89 36.68 67.38 33.61 C 65.12 31.16 63.49 27.03 64.70 23.76 C 66.29 20.19 70.95 18.30 74.63 19.42 Z" fill="#ffffff"/>
<path d="M 137.36 24.41 C 140.79 23.42 144.65 25.58 146.41 28.50 C 147.54 31.53 146.69 34.68 145.34 37.48 C 143.52 41.14 141.46 44.75 138.97 47.99 C 137.43 49.81 135.58 51.86 133.00 51.83 C 128.99 52.15 123.87 48.38 124.73 43.99 C 125.49 39.56 128.15 35.27 130.44 31.44 C 132.12 28.87 134.39 25.53 137.36 24.41 Z" fill="#ffffff"/>
<path d="M 139.93 28.21 C 140.84 29.02 141.73 29.84 142.61 30.68 C 140.26 35.75 137.66 40.86 134.35 45.39 C 133.46 46.30 132.44 47.99 130.98 47.34 C 128.33 45.92 130.34 43.13 131.13 41.14 C 133.60 36.75 136.03 31.46 139.93 28.21 Z" fill="#015397"/>
<path d="M 47.46 32.47 C 48.97 31.28 51.23 31.07 52.91 32.00 C 56.42 34.35 59.56 37.86 57.57 42.32 C 59.46 42.37 61.21 41.72 62.63 43.32 C 65.09 45.70 67.23 48.39 69.75 50.72 C 68.31 51.63 66.80 53.20 65.11 53.51 C 62.59 51.29 60.69 48.03 57.87 46.23 C 56.55 46.04 55.15 47.25 53.97 47.72 C 56.53 50.91 59.16 54.04 61.86 57.12 C 60.60 58.24 59.33 59.36 58.06 60.48 C 51.95 53.29 45.88 46.07 39.77 38.88 C 42.29 36.72 44.73 34.37 47.46 32.47 Z" fill="#ffffff"/>
<path d="M 154.81 34.01 C 156.09 35.07 157.31 36.18 158.55 37.28 C 153.32 42.91 148.03 48.48 142.77 54.09 C 144.56 55.77 146.35 57.46 148.15 59.13 C 147.07 60.43 145.99 61.72 144.91 63.02 C 141.65 60.17 138.49 57.25 135.38 54.24 C 141.94 47.60 148.10 40.50 154.81 34.01 Z" fill="#ffffff"/>
<path d="M 50.08 36.46 C 51.46 37.66 53.67 39.09 53.74 41.11 C 53.68 42.47 52.53 43.76 51.97 44.95 C 50.00 42.98 48.17 40.87 46.38 38.74 C 47.60 37.96 48.83 37.19 50.08 36.46 Z" fill="#015397"/>
<path d="M 103.56 37.18 C 104.51 39.03 106.10 41.40 102.99 42.09 C 99.75 41.36 101.24 38.15 103.56 37.18 Z" fill="#ffffff"/>
<path d="M 33.92 45.39 C 35.27 46.46 36.59 47.58 37.90 48.71 C 36.37 50.80 34.87 52.92 33.37 55.04 C 34.98 56.20 36.58 57.37 38.18 58.55 C 39.69 56.44 41.19 54.33 42.72 52.24 C 44.06 53.25 45.41 54.26 46.76 55.26 C 45.36 57.28 43.96 59.29 42.52 61.29 C 44.36 62.60 46.20 63.91 48.04 65.22 C 49.61 63.04 51.19 60.85 52.82 58.71 C 54.17 59.72 55.52 60.72 56.87 61.74 C 54.34 65.27 51.89 68.87 49.32 72.38 C 41.66 66.96 33.77 61.87 26.18 56.35 C 28.89 52.79 31.26 48.99 33.92 45.39 Z" fill="#ffffff"/>
<path d="M 96.56 49.03 C 111.32 47.98 126.35 53.69 136.59 64.41 C 149.04 76.94 154.15 95.99 149.46 113.04 C 145.44 128.56 133.73 141.72 118.82 147.57 C 108.70 151.59 97.48 152.32 86.96 149.46 C 72.63 145.72 60.31 135.46 53.93 122.12 C 49.65 113.17 47.89 102.82 49.40 92.98 C 50.90 81.83 56.32 71.22 64.43 63.43 C 72.99 54.98 84.57 49.86 96.56 49.03 Z" fill="#ffffff"/>
<path d="M 136.43 68.46 C 112.19 66.71 87.84 66.74 63.60 68.45 C 70.14 60.78 79.06 55.39 88.86 53.05 C 106.02 48.76 125.04 54.93 136.43 68.46 Z" fill="#015397"/>
<path d="M 169.09 50.71 C 172.43 52.17 175.26 56.39 174.32 60.09 C 173.61 62.00 171.58 63.49 170.14 64.87 C 169.23 63.47 168.31 62.08 167.39 60.69 C 168.39 59.70 169.40 58.70 170.41 57.70 C 169.72 56.79 168.94 56.00 168.06 55.33 C 166.21 55.39 164.37 56.74 163.80 58.51 C 163.43 61.88 165.01 65.95 162.91 68.84 C 160.98 71.43 157.22 73.54 153.98 73.56 C 150.18 73.47 147.56 69.39 146.71 66.08 C 145.92 62.29 149.27 60.36 151.84 58.44 C 152.67 59.81 153.49 61.18 154.32 62.55 C 153.08 63.97 151.16 64.93 151.43 67.08 C 153.32 70.58 158.64 67.27 158.06 64.03 C 158.00 61.22 156.97 58.05 158.63 55.57 C 160.72 52.36 165.21 49.71 169.09 50.71 Z" fill="#ffffff"/>
<path d="M 178.25 64.39 C 179.95 69.17 181.74 73.88 183.07 78.79 C 181.49 79.22 179.90 79.65 178.31 80.06 C 177.71 78.56 177.11 77.06 176.49 75.57 C 169.41 78.34 162.15 80.66 154.96 83.13 C 154.43 81.45 153.91 79.76 153.39 78.08 C 160.65 75.85 167.74 73.13 174.96 70.78 C 174.47 69.20 173.97 67.62 173.47 66.04 C 175.06 65.50 176.66 64.95 178.25 64.39 Z" fill="#ffffff"/>
<path d="M 19.98 70.06 C 27.11 72.84 34.18 75.78 41.25 78.69 C 42.16 76.43 43.06 74.16 43.95 71.89 C 45.59 72.49 47.22 73.10 48.85 73.72 C 47.23 77.60 45.63 81.50 44.05 85.40 C 35.37 81.85 26.66 78.38 17.99 74.83 C 18.63 73.23 19.27 71.63 19.98 70.06 Z" fill="#ffffff"/>
<path d="M 63.05 69.39 C 63.45 77.46 62.90 85.14 64.09 93.19 C 65.55 103.26 68.45 113.56 73.61 122.39 C 80.01 132.99 88.75 141.84 99.26 148.40 C 81.79 148.06 65.51 138.08 57.35 122.64 C 48.28 105.98 50.19 83.56 63.05 69.39 Z" fill="#015397"/>
<path d="M 100.00 69.68 C 111.48 69.60 122.83 70.50 134.32 70.92 C 134.33 76.65 134.40 82.27 133.82 87.98 C 132.72 102.08 128.25 117.07 119.27 128.22 C 118.30 128.14 117.55 127.78 117.03 127.14 C 114.43 124.09 112.17 120.75 109.87 117.48 C 114.33 118.08 118.78 118.71 123.24 119.28 C 120.40 115.67 117.02 112.58 114.10 109.03 C 118.79 108.83 123.48 108.83 128.16 108.53 C 124.87 105.72 121.23 103.34 118.03 100.43 C 121.99 98.72 126.93 98.77 131.15 97.82 C 127.31 94.82 122.85 92.98 118.82 90.24 C 122.97 88.47 127.11 86.66 131.29 84.92 C 131.40 81.21 131.45 77.50 131.44 73.79 C 127.93 73.63 124.43 73.46 120.92 73.31 C 119.24 78.00 117.67 82.64 115.68 87.21 C 113.80 82.48 112.25 77.65 110.45 72.89 C 108.57 77.33 107.15 81.93 105.41 86.42 C 103.27 81.96 101.97 77.26 100.16 72.67 C 97.99 77.13 96.94 81.97 94.71 86.42 C 92.96 81.94 91.56 77.36 89.72 72.92 C 87.86 77.64 86.29 82.47 84.46 87.20 C 82.45 82.66 80.91 78.01 79.17 73.29 C 75.67 73.45 72.17 73.63 68.67 73.81 C 68.63 77.51 68.65 81.22 68.76 84.93 C 72.95 86.65 77.10 88.45 81.27 90.23 C 77.26 92.99 72.80 94.87 68.91 97.81 C 73.18 98.74 78.07 98.73 82.09 100.46 C 78.85 103.34 75.23 105.74 71.93 108.56 C 76.64 108.75 81.35 108.81 86.06 108.99 C 83.19 112.63 79.72 115.69 76.80 119.29 C 81.27 118.71 85.74 118.11 90.20 117.48 C 87.52 121.12 84.83 126.07 81.06 128.64 C 67.87 111.92 65.26 91.62 65.73 70.93 C 77.18 70.48 88.57 69.61 100.00 69.68 Z" fill="#e20130"/>
<path d="M 136.96 69.42 C 146.48 79.63 150.18 95.47 147.47 109.01 C 144.92 123.07 135.72 135.52 123.22 142.37 C 116.34 146.23 108.64 148.11 100.77 148.40 C 108.60 143.39 115.44 137.49 121.13 130.10 C 129.61 119.67 133.80 107.14 135.85 94.00 C 137.17 85.66 136.56 77.77 136.96 69.42 Z" fill="#015397"/>
<path d="M 15.78 83.52 C 17.45 83.66 19.14 84.01 20.78 84.32 C 20.51 86.99 20.27 89.67 20.07 92.34 C 22.00 92.46 23.93 92.59 25.85 92.71 C 26.15 90.25 26.40 87.78 26.64 85.31 C 28.33 85.47 30.01 85.63 31.70 85.79 C 31.51 88.31 31.31 90.83 31.13 93.36 C 33.29 93.52 35.46 93.70 37.63 93.87 C 37.95 91.32 38.25 88.77 38.49 86.21 C 40.19 86.37 41.89 86.54 43.59 86.70 C 43.16 91.00 42.63 95.29 42.33 99.60 C 33.01 98.89 23.74 97.59 14.41 97.12 C 14.73 92.58 15.02 88.00 15.78 83.52 Z" fill="#ffffff"/>
<path d="M 184.29 83.50 C 184.57 87.93 185.35 92.39 185.30 96.82 C 183.69 97.09 182.08 97.31 180.45 97.48 C 180.13 94.72 179.85 91.97 179.59 89.21 C 177.60 89.39 175.62 89.58 173.64 89.77 C 173.92 92.28 174.19 94.79 174.44 97.30 C 172.73 97.42 171.02 97.54 169.31 97.66 C 169.02 95.18 168.75 92.71 168.50 90.22 C 166.34 90.42 164.18 90.61 162.02 90.80 C 162.21 93.48 162.41 96.16 162.59 98.84 C 160.99 98.99 159.38 99.14 157.76 99.19 C 156.72 95.02 156.64 90.35 156.31 86.05 C 165.64 85.25 174.97 84.40 184.29 83.50 Z" fill="#ffffff"/>
<path d="M 116.58 90.69 C 117.16 96.93 115.76 102.72 111.13 107.13 C 105.47 113.08 95.31 113.38 89.41 107.62 C 86.57 104.94 83.29 100.27 84.02 96.20 C 86.07 99.73 86.85 103.28 89.88 106.11 C 94.09 110.31 100.56 111.63 105.99 109.05 C 111.71 106.38 114.49 101.09 115.71 95.13 C 112.33 97.40 108.95 99.55 105.02 100.76 C 106.06 98.50 107.83 97.17 108.12 94.52 C 108.62 94.39 109.11 94.27 109.61 94.15 L 109.79 97.14 C 112.73 95.54 114.01 92.62 116.58 90.69 Z" fill="#015397"/>
<path d="M 83.28 90.57 C 85.41 92.41 86.94 94.85 89.13 96.60 C 89.96 96.33 90.61 95.33 91.08 93.61 C 91.29 94.84 91.63 96.00 92.05 97.18 C 93.63 98.33 94.70 98.69 94.88 100.81 C 90.94 99.33 87.39 97.17 83.77 95.06 C 83.56 93.57 83.39 92.07 83.28 90.57 Z" fill="#015397"/>
<path d="M 96.88 98.99 C 99.05 98.72 101.28 98.82 103.46 98.78 C 103.53 99.51 103.60 100.24 103.66 100.98 C 101.01 101.20 98.49 101.16 95.84 100.79 C 96.17 100.18 96.52 99.58 96.88 98.99 Z" fill="#015397"/>
<path d="M 113.82 98.58 C 111.64 103.67 104.88 104.77 100.00 104.83 C 95.34 104.77 88.39 103.69 86.43 98.70 C 90.88 100.74 94.96 102.82 100.00 102.62 C 105.19 102.86 109.27 100.66 113.82 98.58 Z" fill="#015397"/>
<path d="M 42.59 101.12 C 42.61 102.74 42.67 104.32 42.59 105.93 C 39.47 106.83 36.02 106.66 32.81 107.09 C 26.79 107.52 20.79 108.21 14.78 108.63 C 14.64 106.91 14.50 105.20 14.36 103.48 C 23.76 102.63 33.17 101.67 42.59 101.12 Z" fill="#ffffff"/>
<path d="M 158.08 101.03 C 167.28 101.45 176.52 102.44 185.70 103.28 C 185.56 105.01 185.42 106.74 185.28 108.48 C 175.92 107.58 166.55 106.82 157.18 106.03 C 157.49 104.75 157.12 101.84 158.08 101.03 Z" fill="#ffffff"/>
<path d="M 200.00 102.93 L 200.00 200.00 L 102.71 200.00 C 115.70 199.41 128.52 196.77 140.42 191.42 C 160.44 182.60 177.32 167.00 187.79 147.79 C 195.39 134.00 199.27 118.62 200.00 102.93 Z" fill="#ffffff"/>
<path d="M 90.43 104.80 C 93.68 105.58 96.62 106.65 100.00 106.63 C 103.40 106.66 106.33 105.58 109.60 104.82 C 104.69 110.30 95.37 110.20 90.43 104.80 Z" fill="#015397"/>
<path d="M 43.01 107.62 C 43.54 109.45 44.03 111.30 44.52 113.14 C 41.22 115.42 37.91 117.67 34.79 120.20 C 38.71 121.05 42.14 119.84 45.93 119.03 C 46.28 120.70 46.62 122.37 46.95 124.03 C 37.88 126.26 28.77 128.38 19.70 130.61 C 19.26 128.93 18.82 127.25 18.37 125.57 C 22.04 124.69 25.75 123.85 29.36 122.77 C 25.45 121.58 20.93 121.55 17.23 119.88 C 16.60 118.28 16.32 116.51 15.91 114.84 C 20.31 115.82 24.69 116.89 29.10 117.85 C 33.75 114.46 38.30 110.92 43.01 107.62 Z" fill="#ffffff"/>
<path d="M 156.73 108.22 C 165.90 110.53 175.01 113.06 184.16 115.42 C 183.62 117.41 183.06 119.39 182.49 121.37 C 176.41 121.34 170.28 120.53 164.23 121.04 C 169.50 123.66 175.73 124.38 181.36 126.06 C 180.94 127.71 180.52 129.35 180.09 131.00 C 171.02 128.40 161.91 125.92 152.90 123.11 C 153.49 121.24 154.07 119.37 154.66 117.50 C 161.08 117.62 167.44 117.65 173.85 118.05 C 168.12 115.78 162.03 114.85 156.24 112.86 C 156.32 111.32 156.54 109.76 156.73 108.22 Z" fill="#ffffff"/>
<path d="M 97.46 124.39 C 95.54 128.01 93.56 131.60 91.47 135.13 C 94.32 137.33 97.18 139.51 100.04 141.70 C 102.91 139.52 105.78 137.33 108.66 135.15 C 106.57 131.66 104.60 128.12 102.84 124.46 C 106.91 125.48 110.96 126.61 115.04 127.63 C 116.33 127.91 117.29 128.40 118.27 129.29 C 113.19 135.75 107.04 141.32 100.01 145.59 C 92.79 141.25 86.73 135.52 81.45 128.99 C 86.27 126.92 92.35 125.93 97.46 124.39 Z" fill="#e20130"/>
<path d="M 38.04 132.71 C 39.96 133.41 40.65 135.45 41.73 137.00 C 40.56 138.56 39.95 140.47 37.96 141.08 C 36.29 141.87 33.85 140.43 32.97 138.94 C 31.02 135.84 34.70 131.62 38.04 132.71 Z" fill="#ffffff"/>
<path d="M 161.30 133.31 C 163.86 131.29 167.80 134.09 167.69 137.00 C 167.89 140.05 163.87 142.65 161.28 140.72 C 158.40 139.18 158.46 134.86 161.30 133.31 Z" fill="#ffffff"/>
<path d="M 52.22 134.16 C 53.63 135.42 55.03 136.69 56.43 137.96 C 51.93 143.94 47.21 149.76 42.87 155.85 C 48.99 151.55 54.63 146.58 60.64 142.12 C 61.95 143.43 63.27 144.74 64.58 146.04 C 56.74 151.45 48.95 156.93 41.17 162.42 C 39.56 160.87 37.94 159.33 36.30 157.80 C 41.49 149.85 47.08 142.14 52.22 134.16 Z" fill="#ffffff"/>
<path d="M 144.49 138.61 C 148.05 137.37 151.13 140.22 153.58 142.40 C 157.00 145.80 161.17 149.53 163.10 154.02 C 165.60 159.01 158.19 165.82 153.52 162.32 C 149.92 160.26 146.92 156.90 144.13 153.88 C 142.21 151.66 139.79 148.83 139.36 145.84 C 138.97 142.61 141.69 139.74 144.49 138.61 Z" fill="#ffffff"/>
<path d="M 144.43 143.39 C 144.82 141.53 147.16 143.43 147.98 144.04 C 152.07 147.95 156.53 152.10 159.33 157.05 C 158.58 158.80 157.50 159.17 156.10 158.16 C 152.25 155.41 149.18 151.47 146.00 147.99 C 145.11 146.75 143.29 144.98 144.43 143.39 Z" fill="#015397"/>
<path d="M 64.50 148.59 C 68.92 146.79 75.50 150.94 74.70 155.98 C 74.27 159.82 71.77 163.59 69.87 166.88 C 67.96 169.89 65.57 173.76 62.26 175.33 C 57.99 177.07 51.40 172.91 52.23 168.00 C 52.47 164.14 55.09 160.27 57.00 157.00 C 58.91 154.03 61.21 150.13 64.50 148.59 Z" fill="#ffffff"/>
<path d="M 130.43 149.47 C 132.21 148.64 134.04 148.10 135.88 149.11 C 138.92 150.73 140.96 154.49 142.62 157.39 C 144.50 160.95 146.73 164.98 147.18 169.03 C 147.35 173.60 141.56 177.10 137.51 175.37 C 134.71 173.86 132.78 170.44 131.22 167.76 C 129.30 164.14 126.94 160.11 126.43 156.00 C 126.09 152.96 127.79 150.72 130.43 149.47 Z" fill="#ffffff"/>
<path d="M 68.12 152.03 C 68.69 152.74 69.21 153.47 69.70 154.23 C 69.77 157.01 67.59 159.93 66.31 162.31 C 64.33 165.39 62.35 169.68 59.05 171.48 C 57.69 170.97 57.07 170.14 57.19 169.01 C 57.34 166.85 58.76 164.69 59.79 162.82 C 62.31 158.75 64.05 154.82 68.12 152.03 Z" fill="#015397"/>
<path d="M 131.41 153.55 L 132.97 152.48 C 136.98 156.00 139.02 161.89 141.41 166.57 C 142.18 168.58 143.79 172.07 139.95 171.49 C 137.20 168.70 135.55 164.67 133.73 161.24 C 132.71 158.99 130.92 156.08 131.41 153.55 Z" fill="#015397"/>
<path d="M 78.10 154.12 C 80.01 154.45 81.80 154.99 83.66 155.52 C 83.61 161.78 83.17 168.10 83.57 174.36 C 85.43 168.69 86.64 162.82 88.22 157.07 C 89.80 157.32 91.37 157.58 92.95 157.84 C 90.72 166.93 88.14 175.93 85.94 185.03 C 84.01 184.62 82.08 184.19 80.15 183.74 C 80.07 177.05 80.49 170.36 80.32 163.67 C 78.06 169.69 76.96 176.13 75.17 182.32 C 73.54 181.93 71.91 181.54 70.28 181.16 C 72.88 172.18 75.13 162.98 78.10 154.12 Z" fill="#ffffff"/>
<path d="M 121.03 155.77 C 124.08 157.06 125.34 161.06 126.21 163.97 C 127.35 168.47 128.76 173.39 128.39 178.05 C 127.54 184.08 117.40 186.22 115.21 179.82 C 113.89 177.67 117.89 177.72 119.05 177.09 C 120.57 178.68 120.62 180.13 123.22 179.24 C 123.86 176.51 123.16 174.06 122.77 171.34 C 120.59 173.71 118.56 175.78 115.17 173.88 C 111.77 171.01 110.87 165.17 111.26 160.99 C 111.74 156.57 117.20 154.47 121.03 155.77 Z" fill="#ffffff"/>
<path d="M 104.92 157.52 C 105.97 157.61 107.02 157.72 108.06 157.83 C 108.45 167.08 108.74 176.31 109.37 185.55 C 107.56 185.57 105.75 185.59 103.93 185.60 C 103.76 179.21 103.36 172.84 103.31 166.45 C 101.75 166.43 100.20 166.41 98.64 166.40 C 98.60 165.24 98.55 164.08 98.51 162.91 C 99.83 162.45 101.19 162.04 102.44 161.40 C 103.54 160.38 104.16 158.80 104.92 157.52 Z" fill="#ffffff"/>
<path d="M 117.38 159.44 C 118.37 159.21 119.12 159.50 119.64 160.33 C 121.20 162.64 122.14 165.76 121.59 168.55 C 119.44 171.02 117.96 167.71 117.28 165.87 C 116.77 163.86 115.56 161.06 117.38 159.44 Z" fill="#015397"/>
</svg>