<?xml version="1.0" encoding="UTF-8" standalone="no"?>
<svg xmlns:dc="http://purl.org/dc/elements/1.1/" xmlns:cc="http://creativecommons.org/ns#" xmlns:rdf="http://www.w3.org/1999/02/22-rdf-syntax-ns#" xmlns:svg="http://www.w3.org/2000/svg" xmlns="http://www.w3.org/2000/svg" xmlns:sodipodi="http://sodipodi.sourceforge.net/DTD/sodipodi-0.dtd" xmlns:inkscape="http://www.inkscape.org/namespaces/inkscape" sodipodi:docname="721.svg" inkscape:version="1.0 (4035a4f, 2020-05-01)" id="svg8" version="1.1" viewBox="0 0 19.999985 10.325778" height="103.25777" width="199.99985">
  <defs id="defs2"/>
  <sodipodi:namedview inkscape:document-rotation="0" fit-margin-bottom="0" fit-margin-right="0" fit-margin-left="0" fit-margin-top="0" units="px" showgrid="false" inkscape:current-layer="layer1" inkscape:document-units="px" inkscape:cy="-70.030176" inkscape:cx="276.70257" inkscape:zoom="0.61313868" inkscape:pageshadow="2" inkscape:pageopacity="0.0" borderopacity="1.0" bordercolor="#666666" pagecolor="#ffffff" id="base"/>
  <metadata id="metadata5">
    <rdf:RDF>
      <cc:Work rdf:about="">
        <dc:format>image/svg+xml</dc:format>
        <dc:type rdf:resource="http://purl.org/dc/dcmitype/StillImage"/>
        <dc:title/>
      </cc:Work>
    </rdf:RDF>
  </metadata>
  <g transform="translate(-10.907963,81.160486)" id="layer1" inkscape:groupmode="layer" inkscape:label="Layer 1">
    <path id="path1938" d="m 16.072753,-81.088472 c 0.01484,2.419403 -0.02922,4.840247 0.0214,7.258929 0.126626,0.676756 0.686266,1.147343 1.142084,1.613103 1.60298,1.438457 4.088416,1.804466 6.026892,0.857959 0.984009,-0.468679 1.87003,-1.21543 2.380857,-2.190756 0.201197,-0.623367 0.04928,-1.287802 0.09921,-1.92947 0.002,-1.893914 0.0024,-3.787972 0.0021,-5.681779 -3.224189,0 -6.448378,0 -9.672568,0 v 0.03603 0.03602 z" style="fill:#ffffff;stroke-width:0.0360245" inkscape:connector-curvature="0"/>
    <path id="path1940" d="m 18.942461,-75.891403 c 0.735548,0.531973 1.772764,0.616378 2.584395,0.180014 0.880762,-0.456286 1.4136,-1.394687 1.332221,-2.407011 -0.01535,-0.146583 -0.03829,-0.289996 -0.07698,-0.428691 0.249109,0.374331 0.391585,0.817143 0.391585,1.294251 0,1.28946 -1.045429,2.33489 -2.334853,2.33489 -0.780866,0 -1.473328,-0.383553 -1.8964,-0.973381" style="fill:#d9d9d9;stroke-width:0.0360245" inkscape:connector-curvature="0"/>
    <path id="path1942" d="m 18.576813,-75.187125 -1.438457,0.974822 0.102094,0.14961 0.646026,-0.438598 0.09824,0.149609 -0.538133,0.364208 c -0.03638,0.02468 -0.06391,0.07115 -0.08347,0.107893 l 0.101445,0.152852 c 0.02259,-0.04471 0.04326,-0.0834 0.08347,-0.110451 l 0.478404,-0.322383 c 0.08862,-0.06002 0.0991,-0.113441 0.08862,-0.159264 0.04485,0.02273 0.09258,0.03743 0.161173,-0.009 l 0.455926,-0.308874 c 0.05177,-0.03498 0.07842,-0.09377 0.07835,-0.151555 0,-0.03469 -0.0093,-0.06848 -0.03019,-0.09954 l -0.203574,-0.299255 z m -0.04752,0.251739 0.101445,0.148997 -0.496381,0.333299 -0.102094,-0.145755 0.49703,-0.336505 z m 0.35448,0.274218 -1.100655,1.353043 0.276128,0.228611 c 0.07756,0.06322 0.192226,0.0508 0.255593,-0.02698 l 0.336505,-0.411616 c 0.06787,-0.08329 0.06315,-0.134839 0.03981,-0.175943 0.04957,0.0089 0.09838,0.01041 0.150906,-0.05393 l 0.34742,-0.427682 c 0.05937,-0.07277 0.05216,-0.177205 -0.01286,-0.242084 h -6.6e-4 c -0.0043,-0.0043 -0.0086,-0.0083 -0.01347,-0.01221 l -0.278684,-0.231169 z m 0.02378,0.257503 0.141288,0.114306 -0.379518,0.462986 -0.14064,-0.114306 z m -0.493175,0.603626 0.141288,0.114306 -0.379518,0.468137 -0.140639,-0.114305 z m 4.910494,-0.89283 c -0.12414,-0.08102 -0.159516,-0.249001 -0.07846,-0.373142 0.08091,-0.12414 0.249001,-0.159516 0.373141,-0.07846 l 0.164812,0.107461 -0.09827,0.150582 -0.227819,-0.148745 -0.09828,0.150582 1.151522,0.751291 0.09828,-0.150583 -0.500524,-0.326381 -0.0424,0.0651 -0.150582,-0.09828 0.140676,-0.21557 0.587991,0.383624 c 0.12414,0.08091 0.159516,0.249001 0.07846,0.373142 -0.08091,0.12414 -0.249001,0.159516 -0.373141,0.07846 l -1.025401,-0.668974 z m 0.862102,1.242519 -0.124933,0.129328 -1.247527,-1.205054 0.124933,-0.129328 z m -0.907096,0.487123 -0.181203,-0.310387 0.155301,-0.09078 0.271877,0.465868 -0.465725,0.271841 -0.0906,-0.155194 -0.386975,-1.366227 -0.151015,0.08822 0.181204,0.310674 -0.15523,0.09049 -0.271985,-0.465688 0.465689,-0.271985 0.09064,0.155337 0.387083,1.366084 z m -1.732777,-0.949713 0.348681,-0.08747 c 0.09654,-0.02432 0.193811,0.0339 0.217948,0.130625 l 0.145539,0.579633 c 0.02432,0.09655 -0.03401,0.193848 -0.130625,0.217948 l -0.174322,0.04373 0.1892,0.75392 -0.174322,0.04373 -0.422135,-1.682162 z m 0.363487,0.710331 0.174322,-0.04373 -0.145539,-0.579634 -0.174322,0.04373 z m -0.483953,1.072051 -0.179329,0.01153 -0.111352,-1.730975 0.17933,-0.01153 z m -0.574086,-1.522393 -0.358407,-0.02817 -0.0468,0.595844 0.268779,0.02107 -0.01398,0.179149 -0.268815,-0.02118 -0.04669,0.595772 0.358408,0.02817 -0.01409,0.179185 -0.358408,-0.02817 c -0.09935,-0.0077 -0.172989,-0.09388 -0.165244,-0.193235 l 0.107749,-1.370731 c 0.0077,-0.09936 0.09392,-0.172881 0.193272,-0.1651 l 0.358407,0.02817 -0.01419,0.179258 z m -0.852951,-0.39382 -0.507945,1.469546 0.169892,0.05868 0.117511,-0.339747 0.169784,0.05872 -0.176232,0.509746 -0.509746,-0.176375 0.566629,-1.639257 z m 0.151663,-2.623481 c -0.54613,-0.131237 -0.919056,-0.263447 -0.919056,-0.263447 -0.05847,-0.563819 -0.009,-1.054076 -0.009,-1.054076 0.236969,-0.123384 0.877232,-0.409346 0.877232,-0.409346 0.304875,0.345331 0.59534,0.808857 0.59534,0.808857 -0.140243,0.273102 -0.54433,0.918084 -0.54433,0.918084 m -0.900576,-2.294038 c -0.05443,0.0892 -0.214453,0.358984 -0.359236,0.680502 -0.136208,0.170612 -0.255377,0.344214 -0.307072,0.42019 0.116395,-0.428115 0.351058,-0.808029 0.666273,-1.100692 m 2.450383,1.357582 c 5.2e-4,0 0.203719,-0.426169 0.450054,-0.771968 0,0 0.473001,0.222343 0.695596,0.404158 0,0 0.08228,0.253973 0.02742,0.999931 0,0 -0.28236,0.163479 -0.690949,0.263988 0,0 -0.278217,-0.468283 -0.482008,-0.896145 m -1.059263,1.750645 1.009766,-0.02723 0.194784,0.550057 c -0.382219,0.227098 -0.841279,0.345727 -0.841279,0.345727 -0.481539,-0.104976 -0.759396,-0.314278 -0.759396,-0.314278 z m 0.197378,-3.731054 c 0.307577,0 0.602005,0.05847 0.871432,0.16701 -0.0094,0.04388 -0.04226,0.166325 -0.136641,0.323283 -0.486402,-0.06405 -1.027418,-0.01441 -1.027418,-0.01441 l -0.450053,-0.356354 c 0.233907,-0.07771 0.483448,-0.119565 0.74286,-0.119565 m -1.495375,4.126602 c -0.387659,-0.322779 -0.66775,-0.76887 -0.782379,-1.278075 0.125473,0.130192 0.366837,0.377464 0.366837,0.377464 0.145719,0.301092 0.508665,0.823303 0.508665,0.823303 -0.02608,0.02947 -0.067,0.0594 -0.09301,0.07731 m 1.572936,-5.484363 h -4.620137 v 2.688505 l 0.473866,-0.224468 v -1.989271 h 4.146415 4.146416 v 1.991072 l 0.473866,0.224469 v -2.690669 z m 4.479282,2.581152 c -0.01942,-0.0099 -0.04028,-0.01931 -0.0603,-0.02875 v -2.350596 h -4.419121 -4.41912 v 2.349155 l -0.0603,0.02839 c 8.2e-5,-1.246014 0,-1.315686 0,-2.437775 h 4.479281 4.479282 c 2.4e-4,1.217446 -4e-4,1.224111 0,2.439576 z m -0.332902,4.175956 c -0.01394,0.252891 -0.08041,0.395296 -0.195577,0.575418 -0.875863,1.259812 -2.309888,2.083367 -3.950803,2.083367 -1.640878,0 -3.075048,-0.823555 -3.950802,-2.083367 -0.115171,-0.180122 -0.181564,-0.322347 -0.195577,-0.575418 l 0.0018,-1.508308 h -0.473865 l -0.0018,1.406394 c -6.78e-4,0.53518 0.0629,0.661482 0.189128,0.879214 0.965239,1.424443 2.580432,2.359962 4.431009,2.359962 1.850576,0 3.465914,-0.935447 4.431009,-2.359962 0.126265,-0.217588 0.189128,-0.344034 0.189128,-0.879214 v -1.406394 h -0.473866 z m 0.272597,-0.254693 v -1.199975 h 0.0603 v 1.256029 c -0.0018,0.313305 -0.0041,0.629023 -0.170576,0.87453 -0.214417,0.326381 -0.484169,0.646242 -0.781298,0.923018 -0.989953,0.899603 -2.175878,1.382619 -3.527516,1.389392 -1.351565,-0.0067 -2.537563,-0.489825 -3.527515,-1.389392 -0.297094,-0.276776 -0.566881,-0.596781 -0.781298,-0.923018 -0.166469,-0.245507 -0.168775,-0.561225 -0.170576,-0.87453 v -1.232397 l 0.06211,-0.01949 v 1.176199 c 0.0085,0.317483 -0.01625,0.669875 0.160273,0.919308 0.228827,0.348681 0.513528,0.677188 0.837568,0.970715 0.966104,0.846575 2.107071,1.303005 3.419442,1.312047 1.312263,-0.0092 2.453266,-0.465472 3.419442,-1.312047 0.323932,-0.293527 0.60867,-0.622071 0.837569,-0.970715 0.176628,-0.249433 0.153608,-0.582156 0.162146,-0.899819 z" style="fill:#001b46;fill-rule:evenodd;stroke-width:0.0360245" inkscape:connector-curvature="0"/>
    <path id="path1944" d="m 23.931129,-78.841446 c -0.184589,-0.0033 -0.351887,0.113441 -0.469399,0.229655 -0.18322,0.02237 -0.288556,0.203106 -0.441912,0.286935 -0.288556,0.250406 -0.624412,0.543249 -0.675963,0.943481 0.0201,0.07551 0.03837,0.110451 -0.04053,0.149718 -0.09694,0.164631 -0.167838,0.346375 -0.312981,0.468318 -0.06484,0.166901 -0.352139,0.195793 -0.310711,0.396269 0.0076,0.09712 0.185958,0.09118 0.122699,0.203754 0.206745,0.149754 0.477613,0.01048 0.641704,-0.132858 0.191866,-0.01452 0.369791,0.147484 0.563999,0.174502 0.136028,0.01304 0.264852,0.07327 0.399511,0.06193 0.07871,-0.01978 0.13783,-0.13484 0.157607,0 0.06535,0.207969 0.277605,0.32494 0.485214,0.32422 0.239022,0.121943 0.584461,0.296625 0.813937,0.06416 0.03664,-0.170503 0.249865,-0.01823 0.378256,-0.06193 0.189777,-0.0043 0.249218,-0.262726 0.06866,-0.337729 -0.111388,-0.06445 -0.275263,-0.04759 -0.373754,-0.104687 0.07771,-0.101337 -0.0048,-0.254333 -0.05515,-0.309594 0.0709,-0.04096 0.112973,-0.117944 0.199251,-0.0428 0.0032,0.247992 0.319285,0.224792 0.4886,0.245434 0.08675,-0.0053 -0.07356,0.138803 0.0304,0.160993 0.450991,0.36727 1.074502,0.493464 1.641383,0.401889 0.05494,-0.01963 0.09698,-0.129363 0.138478,-0.03152 0.119601,0.131165 0.311288,0.202385 0.478441,0.181203 0.07979,0.192407 0.366189,0.360965 0.509962,0.137361 0.02882,-0.07061 0.02133,-0.112972 0.09568,-0.05631 0.15069,0.07871 0.379482,-0.04503 0.308478,-0.22627 0.02179,-0.168774 -0.131165,-0.30664 -0.283693,-0.323103 -0.08754,-0.0942 -0.231601,-0.06052 -0.33211,-0.06981 -0.08754,-0.08938 -0.340539,-0.01704 -0.288195,-0.203755 -0.258548,-0.03375 -0.543249,-0.07796 -0.776796,-0.148601 0.03224,-0.04546 0.153465,0.03221 0.225153,0.0068 0.119061,0.02947 0.322563,-0.08653 0.190246,-0.208257 -0.119746,-0.10584 -0.370656,-0.10656 -0.453693,-0.146368 1.189528,0.17861 2.354199,0.484926 3.520311,0.77341 0.110919,0.0034 0.368386,0.05274 0.32984,-0.130589 -0.47048,-0.311251 -1.056742,-0.372349 -1.584608,-0.552003 -0.687347,-0.189669 -1.41288,-0.361685 -2.086501,-0.526461 0.153896,-0.132426 0.02017,-0.382004 -0.01462,-0.502109 0.236753,0.103282 0.623007,0.134047 0.733998,-0.157607 0.05397,-0.168307 -0.07914,-0.342665 -0.229655,-0.38503 -4.8e-4,-0.195685 -0.21204,-0.266761 -0.367018,-0.301705 -0.143485,-0.06906 -0.359956,-0.07832 -0.448072,0.07994 0.07879,0.12677 -0.142765,0.06085 -0.210527,0.102453 -0.22753,0.02356 -0.449657,0.315683 -0.254333,0.509962 0.0709,0.09046 0.196082,0.194605 0.236429,0.275804 -0.106668,-0.0086 -0.240103,0.02176 -0.285962,0.121582 -0.105372,-0.02756 -0.217228,-0.05674 -0.318601,-0.09006 0.09799,-0.160741 -0.01978,-0.373321 -0.202709,-0.389965 -0.613137,-0.268814 -1.180666,-0.666128 -1.8259,-0.856265 -0.03772,-0.0075 -0.07655,-0.0062 -0.114846,-0.0045 z m 2.823237,1.965494 c 0.08109,0.0027 0.299039,0.07709 0.09258,0.02302 -0.02752,-0.0054 -0.075,-0.016 -0.09258,-0.02302 z m -3.187084,0.10584 c 0.09309,-0.01805 0.120033,0.07875 0.06081,0.115963 -0.01131,-0.04053 -0.05551,-0.09215 -0.06081,-0.115963 z m 1.076231,0.27919 c 0.03988,0.0072 -0.02759,0.01787 0,0 z" style="fill:#ffffff;stroke-width:0.0360245" inkscape:connector-curvature="0"/>
    <g id="g1954" style="fill:#da0034" transform="matrix(0.03602446,0,0,0.03602446,10.713033,-81.435208)">
      <path id="path1946" d="m 494.69,154.22 c 3.119,0.845 2.196,4.449 2.868,6.954 -0.121,0.17 -0.364,0.542 -0.615,0.492 -1.159,-0.492 -3.04,-0.136 -3.905,-1.223 -0.365,-1.287 -0.844,-2.203 -0.973,-3.662 0.3,-1.102 1.466,-2.439 2.625,-2.561 z" inkscape:connector-curvature="0"/>
      <path id="path1948" d="m 465.95,100.33 c -3.798,-0.69 -7.164,-2.063 -10.876,-3.118 -1.416,-0.722 -3.557,-0.594 -5.114,-0.491 -1.638,0.625 2.657,4.552 3.358,5.497 0.751,0.998 2.06,3.97 2.26,5.178 1.882,3.715 1.418,7.741 -3.54,7.03 -2.236,0.64 -4.164,-0.181 -6.102,-0.307 -1.739,-0.672 -6.338,-1.698 -6.845,-3.572 0.493,-1.392 9.92,0.156 11.701,-1.046 0.851,-0.572 -4.136,-5.569 -4.387,-6.213 -1.187,-2.973 -7.02,-6.61 -7.69,-9.304 -1.424,-5.765 9.247,-6.525 12.888,-7.302 0.765,-0.16 4.253,-1.03 3.574,-2.264 -0.072,-0.132 -0.993,-0.425 -1.393,-0.986 l 0.031,-1.362 c 1.584,-0.723 6.491,-0.317 7.868,1.407 0.429,0.16 4.917,0.914 5.097,1.319 2.232,1.769 1.383,4.826 -0.286,5.271 -2.415,3.565 -3.01,2.725 2.792,3.551 1.467,-0.636 -0.762,-1.607 0.941,-1.964 1.825,0.066 3.269,0.28 4.154,1.78 0.608,1.251 0.402,3.604 -0.392,4.771 -1.431,2.145 -5.599,2.563 -8.04,2.123 z" inkscape:connector-curvature="0"/>
      <path id="path1950" d="m 486.45,152.01 c 0.207,-0.638 4.234,0.07 4.456,0.851 0.322,1.158 -3.419,1.708 -4.456,-0.851 z" inkscape:connector-curvature="0"/>
      <path id="path1952" d="m 388.69,145.55 c -1.087,0.115 -1.223,-1.215 -2.196,-1.466 -1.824,1.339 -1.696,3.663 -3.534,4.957 -0.98,0.165 -2.325,-0.429 -3.427,-0.672 -0.722,-0.387 -1.458,-1.116 -1.458,-1.917 0.372,-1.452 1.23,-2.732 1.53,-4.257 0.787,-2.388 3.663,-0.794 5.422,-0.794 1.96,0.487 3.663,-0.3 5.372,-0.679 0.494,0.078 0.795,0.437 1.109,0.737 0.365,0.735 0.235,1.587 -0.072,2.26 -0.542,1.045 -1.644,1.704 -2.746,1.831 z" inkscape:connector-curvature="0"/>
    </g>
    <path id="path1956" d="m 17.884783,-78.841446 c 0.18459,-0.0033 0.351887,0.113441 0.469399,0.229655 0.18322,0.02237 0.288556,0.203106 0.441912,0.286935 0.288556,0.250406 0.624412,0.543249 0.675963,0.943481 -0.0201,0.07551 -0.03837,0.110451 0.04053,0.149718 0.09694,0.164631 0.167838,0.346375 0.312981,0.468318 0.06484,0.166901 0.352139,0.195793 0.310711,0.396269 -0.0076,0.09712 -0.185958,0.09118 -0.122699,0.203754 -0.206745,0.149754 -0.477613,0.01048 -0.641704,-0.132858 -0.191866,-0.01452 -0.369791,0.147484 -0.563999,0.174502 -0.136028,0.01304 -0.264852,0.07327 -0.399511,0.06193 -0.07871,-0.01978 -0.13783,-0.13484 -0.157607,0 -0.06535,0.207969 -0.277605,0.32494 -0.485214,0.32422 -0.239022,0.121943 -0.584461,0.296625 -0.813937,0.06416 -0.03664,-0.170503 -0.249865,-0.01823 -0.378256,-0.06193 -0.189777,-0.0043 -0.249217,-0.262726 -0.06866,-0.337729 0.111388,-0.06445 0.275263,-0.04759 0.373754,-0.104687 -0.07771,-0.101337 0.0048,-0.254333 0.05515,-0.309594 -0.0709,-0.04096 -0.112972,-0.117944 -0.199251,-0.0428 -0.0032,0.247992 -0.319285,0.224792 -0.4886,0.245434 -0.08675,-0.0053 0.07356,0.138803 -0.0304,0.160993 -0.450991,0.36727 -1.074502,0.493464 -1.641383,0.401889 -0.05494,-0.01963 -0.09698,-0.129363 -0.138478,-0.03152 -0.119601,0.131165 -0.311287,0.202385 -0.478441,0.181203 -0.07979,0.192407 -0.366188,0.360965 -0.509962,0.137361 -0.02882,-0.07061 -0.02133,-0.112972 -0.09568,-0.05631 -0.15069,0.07871 -0.379482,-0.04503 -0.308478,-0.22627 -0.02179,-0.168774 0.131166,-0.30664 0.283693,-0.323103 0.08754,-0.0942 0.231601,-0.06052 0.33211,-0.06981 0.08754,-0.08938 0.340539,-0.01704 0.288195,-0.203755 0.258548,-0.03375 0.543249,-0.07796 0.776796,-0.148601 -0.03224,-0.04546 -0.153464,0.03221 -0.225153,0.0068 -0.119061,0.02947 -0.322563,-0.08653 -0.190245,-0.208257 0.119745,-0.10584 0.370655,-0.10656 0.453692,-0.146368 -1.189528,0.17861 -2.354199,0.484926 -3.520311,0.77341 -0.110919,0.0034 -0.368386,0.05274 -0.32984,-0.130589 0.47048,-0.311251 1.056742,-0.372349 1.584608,-0.552003 0.687347,-0.189669 1.41288,-0.361685 2.086501,-0.526461 -0.153896,-0.132426 -0.02017,-0.382004 0.01463,-0.502109 -0.236753,0.103282 -0.623007,0.134047 -0.733998,-0.157607 -0.05396,-0.168307 0.07915,-0.342665 0.229656,-0.38503 4.8e-4,-0.195685 0.21204,-0.266761 0.367017,-0.301705 0.143485,-0.06906 0.359956,-0.07832 0.448072,0.07994 -0.07879,0.12677 0.142765,0.06085 0.210527,0.102453 0.227531,0.02356 0.449657,0.315683 0.254333,0.509962 -0.0709,0.09046 -0.196081,0.194605 -0.236429,0.275804 0.106669,-0.0086 0.240103,0.02176 0.285962,0.121582 0.105372,-0.02756 0.217228,-0.05674 0.318601,-0.09006 -0.09799,-0.160741 0.01978,-0.373321 0.202709,-0.389965 0.613137,-0.268814 1.180666,-0.666128 1.8259,-0.856265 0.03772,-0.0075 0.07655,-0.0062 0.114846,-0.0045 z m -2.823237,1.965494 c -0.08109,0.0027 -0.299039,0.07709 -0.09258,0.02302 0.02752,-0.0054 0.075,-0.016 0.09258,-0.02302 z m 3.187084,0.10584 c -0.09309,-0.01805 -0.120033,0.07875 -0.06081,0.115963 0.01131,-0.04053 0.05551,-0.09215 0.06081,-0.115963 z m -1.076231,0.27919 c -0.03988,0.0072 0.0276,0.01787 0,0 z" style="fill:#ffffff;stroke-width:0.0360245" inkscape:connector-curvature="0"/>
    <g id="g1970" style="fill:#da0034" transform="matrix(0.03602446,0,0,0.03602446,10.713033,-81.435208)">
      <path id="path1958" d="m 71.32,154.22 c -3.119,0.845 -2.196,4.449 -2.868,6.954 0.121,0.17 0.364,0.542 0.615,0.492 1.159,-0.492 3.04,-0.136 3.905,-1.223 0.365,-1.287 0.844,-2.203 0.973,-3.662 -0.3,-1.102 -1.466,-2.439 -2.625,-2.561 z" inkscape:connector-curvature="0"/>
      <path id="path1960" d="m 100.06,100.33 c 3.798,-0.69 7.164,-2.063 10.876,-3.118 1.416,-0.722 3.557,-0.594 5.114,-0.491 1.638,0.625 -2.657,4.552 -3.358,5.497 -0.751,0.998 -2.06,3.97 -2.26,5.178 -1.882,3.715 -1.418,7.741 3.54,7.03 2.236,0.64 4.164,-0.181 6.102,-0.307 1.739,-0.672 6.338,-1.698 6.845,-3.572 -0.493,-1.392 -9.92,0.156 -11.701,-1.046 -0.851,-0.572 4.136,-5.569 4.387,-6.213 1.187,-2.973 7.02,-6.61 7.69,-9.304 1.424,-5.765 -9.247,-6.525 -12.888,-7.302 -0.765,-0.16 -4.253,-1.03 -3.574,-2.264 0.072,-0.132 0.993,-0.425 1.393,-0.986 l -0.031,-1.362 c -1.584,-0.723 -6.491,-0.317 -7.868,1.407 -0.429,0.16 -4.917,0.914 -5.097,1.319 -2.232,1.769 -1.383,4.826 0.286,5.271 2.415,3.565 3.01,2.725 -2.792,3.551 -1.467,-0.636 0.762,-1.607 -0.941,-1.964 -1.825,0.066 -3.269,0.28 -4.154,1.78 -0.608,1.251 -0.402,3.604 0.392,4.771 1.431,2.145 5.599,2.563 8.04,2.123 z" inkscape:connector-curvature="0"/>
      <path id="path1962" d="m 79.56,152.01 c -0.207,-0.638 -4.234,0.07 -4.456,0.851 -0.322,1.158 3.419,1.708 4.456,-0.851 z" inkscape:connector-curvature="0"/>
      <path id="path1964" d="m 255.05,137.74 c -2.776,-1.925 -4.371,-4.907 -6.566,-7.367 -0.816,-0.916 -1.946,-1.561 -2.711,-2.404 -0.486,-0.543 -3.612,-7.254 -4.134,-8.419 l -0.68,-0.361 c -5.687,0.307 -11.38,0.383 -17.07,0.529 -2.467,0.064 -5.658,0.583 -8.08,0.269 -0.357,-0.058 -0.451,-0.344 -0.357,-0.673 5.379,-1.824 15.2,1.073 18.92,-3.901 0.486,-0.684 0.408,-1.85 1.331,-2.082 0.972,0.49 1.995,0.944 3.118,0.683 l 0.487,-0.683 c -0.852,-3.537 -1.781,-7.274 -4.091,-10.189 -3.655,-4.614 -12.568,-14.364 -17.632,-16.896 -2.275,-1.145 -5.079,-5.151 -5.98,-3.73 0.043,0.49 -0.236,0.923 -0.558,1.273 -2.217,0.461 -2.146,-3.741 -5.122,-5.543 -2.997,-1.81 -6.924,-2.762 -10.372,-2.02 -4.234,0.922 -8.604,3.172 -12.445,5.125 -8.47,4.288 -16.932,8.581 -25.437,12.804 -4.01,1.992 -8.04,4.213 -12.16,5.994 -0.965,0.422 -2.36,0.576 -2.811,1.713 -0.58,1.517 0.715,3.756 1.967,4.585 2.611,1.735 6.645,-0.418 9.156,-1.406 l 0.415,0.233 c -1.845,2.331 -3.941,2.382 -6.588,2.929 -2.096,0.44 -4.191,1.556 -6.294,2.149 -2.854,0.805 -5.651,1.699 -8.469,2.604 -1.18,0.383 -3.125,0.662 -2.804,2.388 -0.401,0.959 -1.481,0.824 -2.318,0.966 -9.249,1.695 -18.498,4.02 -27.718,5.988 -5.729,1.237 -11.459,2.624 -17.14,4.084 -18.977,4.936 -37.969,9.664 -56.709,15.458 -1.838,0.565 -11.609,3.404 -12.424,4.198 1.18,0.271 30.765,-7.79 35.15,-8.854 27.611,-6.725 55.614,-11.688 83.6,-16.524 26.523,-4.588 53.42,-8.162 80.12,-11.605 4.643,-0.586 9.321,-1.273 13.97,-1.706 2.99,-0.272 3.498,0.74 5.558,2.679 -0.014,1.327 -5.537,0.984 -6.774,1.108 -0.2,-0.16 -0.186,-0.411 -0.064,-0.607 0.88,-0.476 1.796,-0.851 2.446,-1.656 l -0.314,-0.668 c -9.721,0.83 -19.506,2.632 -29.16,4.109 -14.764,2.271 -29.592,4.478 -44.3,7.121 -9.871,1.785 -19.621,4.273 -29.478,6.162 v 0.429 c 17.818,-1.888 35.4,-6.172 53.15,-8.654 l 0.065,0.473 c -4.307,1.326 -8.763,2.02 -13.13,3.075 -20.11,4.771 -40.41,8.776 -60.54,13.59 3.563,-0.5 7.125,-0.943 10.68,-1.401 1.352,0.829 -0.336,2.274 0.365,3.963 1.209,2.911 3.54,0.164 3.784,1.646 0.1,0.571 -0.673,2.46 -1.273,2.811 -8.126,0.951 -16.07,3.255 -24.17,4.271 l -0.128,0.658 5.064,0.143 0.558,0.422 c 0.028,1.252 -1.817,0.823 -2.625,0.966 -2.861,0.551 -5.701,1.245 -8.548,1.781 -6.316,1.181 -5.457,6.02 -9.885,7.132 -0.457,0.114 -0.787,0.4 -1.102,0.73 -0.085,1.787 2.354,-0.824 3.047,0.871 -0.458,1.803 -1.48,3.52 -0.722,5.423 0.265,0.687 0.701,1.431 1.466,1.646 3.806,1.073 5.3,-5.724 7.69,-7.07 1.945,-1.108 4.327,1.345 6.831,-0.07 1.431,-0.801 2.868,-1.589 4.263,-2.439 1.516,-0.909 3.434,-4.407 5.629,-3.97 1.71,0.343 2.311,2.946 5.122,3.176 4.521,0.372 9.291,0.515 13.79,-0.129 7.361,-1.038 19.792,-4.65 25.26,-9.757 -0.7,-2.074 -6.909,-0.229 -8.418,0 1.402,-2.962 -0.494,-4.277 1.037,-5.01 l 6.344,-0.607 c 1.875,-0.165 3.792,-0.709 5.701,-0.923 1.917,-0.2 3.956,-0.086 5.837,-0.357 1.167,-0.172 3.068,-0.529 3.662,-1.66 -0.165,-0.914 -0.836,-2.103 -0.186,-2.975 0.809,-1.088 2.983,-1.323 4.213,-1.774 1.645,-0.614 2.997,-1.831 4.692,-2.317 1.932,0.594 0.243,3.591 2.511,4.206 2.088,0.593 7.182,-2.117 8.541,-0.415 0,0.915 -0.623,2.289 0.235,2.976 1.374,1.109 3.069,1.316 4.464,2.762 1.767,1.816 4.249,5.25 3.476,7.981 -0.808,2.819 -7.424,5.98 -9.893,4.4 -1.623,-1.038 -1.48,-3.392 -3.776,-2.697 -2.682,0.837 -5.486,1.016 -8.176,1.774 -2.239,0.636 -5.357,1.101 -7.381,2.089 -0.301,0.135 -0.844,0.657 -0.494,1.029 1.052,1.137 11.09,-0.086 13.06,-0.308 0.916,-0.093 1.724,-0.136 2.375,0.615 1.23,1.409 -1.538,1.809 -0.729,3.104 1.13,1.773 4.077,2.425 5.987,1.953 3.462,-0.845 7.146,-2.318 10.415,-3.749 1.044,-0.472 2.188,-1.202 3.247,-1.56 2.583,-0.844 5.422,0.544 7.203,-2.389 1.603,-2.625 3.741,-5.586 3.784,-8.77 0.028,-2.604 -1.631,-4.227 -2.561,-6.48 -0.343,-0.802 -1.981,-4.942 -1.953,-5.551 0.028,-0.4 1.746,-4.398 2.132,-4.449 l 11.287,-1.409 c 0.215,-0.028 0.873,0.465 0.923,0.68 0.458,2.289 -2.99,4.95 -4.22,6.523 -0.458,0.586 -1.41,2.153 -1.159,2.934 0.429,1.287 2.275,-0.688 2.504,0.786 0.165,1.037 -2.196,2.675 -1.953,4.577 0.208,1.589 0.322,3.928 1.953,4.7 2.718,1.294 2.968,-0.938 4.206,-0.98 0.5,-0.007 1.251,0.279 1.832,0.301 1.695,0.022 3.283,-0.529 4.885,-0.965 3.205,-0.881 12.904,-5.423 15.494,-5.071 3.04,0.429 4.735,5.657 14.04,5.922 l 0.493,-0.737 c -3.168,-3.054 -5.493,-1.022 -8.783,-7.683 -0.887,-1.78 -2.396,-3.783 -3.792,-5.185 -0.057,-0.279 0.064,-0.616 0.372,-0.673 5.623,2 6.481,10.815 14.886,10.128 l 0.429,-0.486 c -0.386,-0.951 -2.052,-1.264 -2.881,-1.836 z M 181.152,93.977 c 0.651,-0.805 1.517,-1.349 2.389,-1.874 1.137,0.118 1.795,0.371 2.933,0 2.54,-0.874 12.667,-3.538 14.877,-3.12 0.144,0.694 -0.937,0.784 -1.395,0.916 -6.05,1.667 -12.389,3.126 -18.563,4.328 z m 40.4,6.417 c -11.652,1.706 -35.822,5.135 -35.822,5.135 l 1.652,-0.762 34.893,-5.683 c 0.357,-0.061 0.729,0.064 1.022,0.247 0.258,0.851 -1.251,1 -1.745,1.063 z m -86.21,47.19 -11.896,3.048 c -0.25,0 -0.672,-0.079 -0.865,-0.394 0.058,-0.479 0.586,-1.174 1.081,-1.366 3.047,-0.852 6.04,-1.095 9.03,-1.695 1.831,-0.386 2.589,-0.344 3.984,-0.473 l -1.331,0.88 z m 64,1.983 c -0.301,-0.052 -0.665,-0.229 -0.737,-0.601 0.68,-2.568 2.075,-6.095 0.122,-8.671 l -2.804,-6.04 c 0.236,-0.836 1.159,-0.973 1.895,-1.216 0.544,-0.051 1.095,0.479 1.223,1.037 l 3.291,7.755 c 0.729,3.054 -1.045,5.793 -2.99,7.74 z m 31.08,-13.03 c -0.945,0.122 -2.268,0.438 -3.01,-0.135 -0.45,-0.873 0.251,-1.753 0.63,-2.567 0.873,-1.06 2.189,-1.381 3.505,-1.381 0.315,0.25 0.393,0.564 0.393,0.872 -0.143,1.259 -0.393,2.582 -1.516,3.211 z" inkscape:connector-curvature="0"/>
      <path id="path1966" d="m 177.32,145.55 c 1.087,0.115 1.223,-1.215 2.196,-1.466 1.824,1.339 1.696,3.663 3.534,4.957 0.98,0.165 2.325,-0.429 3.427,-0.672 0.722,-0.387 1.458,-1.116 1.458,-1.917 -0.372,-1.452 -1.23,-2.732 -1.53,-4.257 -0.787,-2.388 -3.663,-0.794 -5.422,-0.794 -1.96,0.487 -3.663,-0.3 -5.372,-0.679 -0.494,0.078 -0.795,0.437 -1.109,0.737 -0.365,0.735 -0.235,1.587 0.072,2.26 0.542,1.045 1.644,1.704 2.746,1.831 z" inkscape:connector-curvature="0"/>
      <path id="path1968" d="m 310.96,137.74 c 2.776,-1.925 4.371,-4.907 6.566,-7.367 0.816,-0.916 1.946,-1.561 2.711,-2.404 0.486,-0.543 3.612,-7.254 4.134,-8.419 l 0.68,-0.361 c 5.687,0.307 11.38,0.383 17.07,0.529 2.467,0.064 5.658,0.583 8.08,0.269 0.357,-0.058 0.451,-0.344 0.357,-0.673 -5.379,-1.824 -15.2,1.073 -18.92,-3.901 -0.486,-0.684 -0.408,-1.85 -1.331,-2.082 -0.972,0.49 -1.995,0.944 -3.118,0.683 l -0.487,-0.683 c 0.852,-3.537 1.781,-7.274 4.091,-10.189 3.655,-4.614 12.568,-14.364 17.632,-16.896 2.275,-1.145 5.079,-5.151 5.98,-3.73 -0.043,0.49 0.236,0.923 0.558,1.273 2.217,0.461 2.146,-3.741 5.122,-5.543 2.997,-1.81 6.924,-2.762 10.372,-2.02 4.234,0.922 8.604,3.172 12.445,5.125 8.47,4.288 16.932,8.581 25.437,12.804 4.01,1.992 8.04,4.213 12.16,5.994 0.965,0.422 2.36,0.576 2.811,1.713 0.58,1.517 -0.715,3.756 -1.967,4.585 -2.611,1.735 -6.645,-0.418 -9.156,-1.406 l -0.415,0.233 c 1.845,2.331 3.941,2.382 6.588,2.929 2.096,0.44 4.191,1.556 6.294,2.149 2.854,0.805 5.651,1.699 8.469,2.604 1.18,0.383 3.125,0.662 2.804,2.388 0.401,0.959 1.481,0.824 2.318,0.966 9.249,1.695 18.498,4.02 27.718,5.988 5.729,1.237 11.459,2.624 17.14,4.084 18.977,4.936 37.969,9.664 56.709,15.458 1.838,0.565 11.609,3.404 12.424,4.198 -1.18,0.271 -30.765,-7.79 -35.15,-8.854 -27.611,-6.725 -55.614,-11.688 -83.6,-16.524 -26.523,-4.588 -53.42,-8.162 -80.12,-11.605 -4.643,-0.586 -9.321,-1.273 -13.97,-1.706 -2.99,-0.272 -3.498,0.74 -5.558,2.679 0.014,1.327 5.537,0.984 6.774,1.108 0.2,-0.16 0.186,-0.411 0.064,-0.607 -0.88,-0.476 -1.796,-0.851 -2.446,-1.656 l 0.314,-0.668 c 9.721,0.83 19.506,2.632 29.16,4.109 14.764,2.271 29.592,4.478 44.3,7.121 9.871,1.785 19.621,4.273 29.478,6.162 v 0.429 c -17.818,-1.888 -35.4,-6.172 -53.15,-8.654 l -0.065,0.473 c 4.307,1.326 8.763,2.02 13.13,3.075 20.11,4.771 40.41,8.776 60.54,13.59 -3.563,-0.5 -7.125,-0.943 -10.68,-1.401 -1.352,0.829 0.336,2.274 -0.365,3.963 -1.209,2.911 -3.54,0.164 -3.784,1.646 -0.1,0.571 0.673,2.46 1.273,2.811 8.126,0.951 16.07,3.255 24.17,4.271 l 0.128,0.658 -5.064,0.143 -0.558,0.422 c -0.028,1.252 1.817,0.823 2.625,0.966 2.861,0.551 5.701,1.245 8.548,1.781 6.316,1.181 5.457,6.02 9.885,7.132 0.457,0.114 0.787,0.4 1.102,0.73 0.085,1.787 -2.354,-0.824 -3.047,0.871 0.458,1.803 1.48,3.52 0.722,5.423 -0.265,0.687 -0.701,1.431 -1.466,1.646 -3.806,1.073 -5.3,-5.724 -7.69,-7.07 -1.945,-1.108 -4.327,1.345 -6.831,-0.07 -1.431,-0.801 -2.868,-1.589 -4.263,-2.439 -1.516,-0.909 -3.434,-4.407 -5.629,-3.97 -1.71,0.343 -2.311,2.946 -5.122,3.176 -4.521,0.372 -9.291,0.515 -13.79,-0.129 -7.361,-1.038 -19.792,-4.65 -25.26,-9.757 0.7,-2.074 6.909,-0.229 8.418,0 -1.402,-2.962 0.494,-4.277 -1.037,-5.01 l -6.344,-0.607 c -1.875,-0.165 -3.792,-0.709 -5.701,-0.923 -1.917,-0.2 -3.956,-0.086 -5.837,-0.357 -1.167,-0.172 -3.068,-0.529 -3.662,-1.66 0.165,-0.914 0.836,-2.103 0.186,-2.975 -0.809,-1.088 -2.983,-1.323 -4.213,-1.774 -1.645,-0.614 -2.997,-1.831 -4.692,-2.317 -1.932,0.594 -0.243,3.591 -2.511,4.206 -2.088,0.593 -7.182,-2.117 -8.541,-0.415 0,0.915 0.623,2.289 -0.235,2.976 -1.374,1.109 -3.069,1.316 -4.464,2.762 -1.767,1.816 -4.249,5.25 -3.476,7.981 0.808,2.819 7.424,5.98 9.893,4.4 1.623,-1.038 1.48,-3.392 3.776,-2.697 2.682,0.837 5.486,1.016 8.176,1.774 2.239,0.636 5.357,1.101 7.381,2.089 0.301,0.135 0.844,0.657 0.494,1.029 -1.052,1.137 -11.09,-0.086 -13.06,-0.308 -0.916,-0.093 -1.724,-0.136 -2.375,0.615 -1.23,1.409 1.538,1.809 0.729,3.104 -1.13,1.773 -4.077,2.425 -5.987,1.953 -3.462,-0.845 -7.146,-2.318 -10.415,-3.749 -1.044,-0.472 -2.188,-1.202 -3.247,-1.56 -2.583,-0.844 -5.422,0.544 -7.203,-2.389 -1.603,-2.625 -3.741,-5.586 -3.784,-8.77 -0.028,-2.604 1.631,-4.227 2.561,-6.48 0.343,-0.802 1.981,-4.942 1.953,-5.551 -0.028,-0.4 -1.746,-4.398 -2.132,-4.449 l -11.287,-1.409 c -0.215,-0.028 -0.873,0.465 -0.923,0.68 -0.458,2.289 2.99,4.95 4.22,6.523 0.458,0.586 1.41,2.153 1.159,2.934 -0.429,1.287 -2.275,-0.688 -2.504,0.786 -0.165,1.037 2.196,2.675 1.953,4.577 -0.208,1.589 -0.322,3.928 -1.953,4.7 -2.718,1.294 -2.968,-0.938 -4.206,-0.98 -0.5,-0.007 -1.251,0.279 -1.832,0.301 -1.695,0.022 -3.283,-0.529 -4.885,-0.965 -3.205,-0.881 -12.904,-5.423 -15.494,-5.071 -3.04,0.429 -4.735,5.657 -14.04,5.922 l -0.493,-0.737 c 3.168,-3.054 5.493,-1.022 8.783,-7.683 0.887,-1.78 2.396,-3.783 3.792,-5.185 0.057,-0.279 -0.064,-0.616 -0.372,-0.673 -5.623,2 -6.481,10.815 -14.886,10.128 l -0.429,-0.486 c 0.386,-0.951 2.052,-1.264 2.881,-1.836 z m 73.898,-43.763 c -0.651,-0.805 -1.517,-1.349 -2.389,-1.874 -1.137,0.118 -1.795,0.371 -2.933,0 -2.54,-0.874 -12.667,-3.538 -14.877,-3.12 -0.144,0.694 0.937,0.784 1.395,0.916 6.05,1.667 12.389,3.126 18.563,4.328 z m -40.4,6.417 c 11.652,1.706 35.822,5.135 35.822,5.135 l -1.652,-0.762 -34.893,-5.683 c -0.357,-0.061 -0.729,0.064 -1.022,0.247 -0.258,0.851 1.251,1 1.745,1.063 z m 86.21,47.19 11.896,3.048 c 0.25,0 0.672,-0.079 0.865,-0.394 -0.058,-0.479 -0.586,-1.174 -1.081,-1.366 -3.047,-0.852 -6.04,-1.095 -9.03,-1.695 -1.831,-0.386 -2.589,-0.344 -3.984,-0.473 l 1.331,0.88 z m -64,1.983 c 0.301,-0.052 0.665,-0.229 0.737,-0.601 -0.68,-2.568 -2.075,-6.095 -0.122,-8.671 l 2.804,-6.04 c -0.236,-0.836 -1.159,-0.973 -1.895,-1.216 -0.544,-0.051 -1.095,0.479 -1.223,1.037 l -3.291,7.755 c -0.729,3.054 1.045,5.793 2.99,7.74 z m -31.08,-13.03 c 0.945,0.122 2.268,0.438 3.01,-0.135 0.45,-0.873 -0.251,-1.753 -0.63,-2.567 -0.873,-1.06 -2.189,-1.381 -3.505,-1.381 -0.315,0.25 -0.393,0.564 -0.393,0.872 0.143,1.259 0.393,2.582 1.516,3.211 z" inkscape:connector-curvature="0"/>
    </g>
  </g>
</svg>