<?xml version="1.0" encoding="UTF-8" standalone="no"?>
<svg viewBox="0 0 484.00236 499.99972" version="1.1" id="svg39" sodipodi:docname="Logo Côme 1907 - .svg" width="484.00238" height="499.99973" inkscape:version="1.2 (dc2aeda, 2022-05-15)" xmlns:inkscape="http://www.inkscape.org/namespaces/inkscape" xmlns:sodipodi="http://sodipodi.sourceforge.net/DTD/sodipodi-0.dtd" xmlns="http://www.w3.org/2000/svg" xmlns:svg="http://www.w3.org/2000/svg">
  <sodipodi:namedview id="namedview41" pagecolor="#ffffff" bordercolor="#666666" borderopacity="1.0" inkscape:showpageshadow="2" inkscape:pageopacity="0.0" inkscape:pagecheckerboard="0" inkscape:deskcolor="#d1d1d1" showgrid="false" inkscape:zoom="0.54795792" inkscape:cx="211.69509" inkscape:cy="228.1197" inkscape:window-width="1440" inkscape:window-height="900" inkscape:window-x="0" inkscape:window-y="0" inkscape:window-maximized="0" inkscape:current-layer="svg39"/>
  <defs id="defs11">
    <style id="style9">.cls-1,.cls-3{fill:#10416a;}.cls-1{stroke:#fff;stroke-miterlimit:10;stroke-width:11px;}.cls-2{fill:#fff;}</style>
  </defs>
  <path id="path687" style="color:#000000;fill:#ffffff;stroke:none;stroke-width:12.769px;stroke-miterlimit:10;-inkscape-stroke:none" d="m 184.83544,0 v 68.647011 c -23.86244,0.338164 -46.61052,0.82602 -64.33248,1.607463 -19.45949,0.858056 -33.13617,1.760716 -40.47675,3.575412 l -11.59459,2.802288 0.1383,33.060666 v 0.002 c 0.0936,18.02869 0.17787,36.3253 0.23806,54.67638 H 0 v 114.28396 h 68.77171 c 1.97395,35.42547 14.57371,67.23818 38.22766,95.91719 20.89368,25.3389 46.42964,46.85126 77.87234,65.86058 v 59.56679 h 114.29304 v -59.58946 c 24.22427,-14.55224 46.49866,-32.13537 66.1304,-52.47717 l 0.0136,-0.0136 0.0136,-0.0136 c 31.31372,-32.8426 47.87732,-69.0808 49.92432,-109.25073 h 68.7557 v -114.3293 h -68.6855 v -6.90597 c 0,-22.53519 -0.082,-45.77926 0.127,-68.755837 v -0.0023 l 0.1,-12.025356 -11.6694,-2.847634 c -7.3007,-1.778492 -20.97451,-2.689409 -40.42712,-3.554714 -17.71612,-0.788065 -40.46405,-1.285357 -64.32794,-1.630135 V 0 Z"/>
  <path style="fill:#10416a;fill-opacity:1;stroke-width:1.16082" d="m 408.94407,157.41917 c 0,-22.51988 -0.081,-45.78268 0.1277,-68.813323 l 0.058,-6.964913 -6.756,-1.648362 c -11.434,-2.785965 -56.55499,-4.503977 -109.62762,-5.165644 V 6.3850548 H 191.22094 V 74.873361 c -53.07263,0.650058 -98.20527,2.321637 -109.66255,5.154035 l -6.72114,1.625146 0.11608,28.010558 c 0.10448,20.1402 0.20895,40.559 0.26699,61.09388 H 6.38377 v 101.5136 h 68.39544 c 0.71971,36.63544 12.88509,68.82494 37.1462,98.24009 21.11529,25.60766 46.90869,47.28015 79.33035,66.44526 v 56.65957 h 101.52521 v -56.71761 a 316.54366,316.54366 0 0 0 67.9195,-53.39766 c 32.0966,-33.66374 48.0347,-70.11345 48.5454,-111.22965 h 68.3723 V 170.71055 h -68.6857 z" id="path17"/>
  <path class="cls-2" d="M 92.41205,95.930613 V 109.5238 c 0.27859,51.40105 0.55719,104.55494 -0.19734,156.95429 -0.48754,34.82457 10.34289,65.17998 33.12977,92.8655 28.03377,33.98878 65.13353,60.76886 116.5462,84.0781 43.67,-19.49014 78.49456,-43.07798 106.11044,-72.06362 30.85456,-32.35202 45.12105,-67.32749 43.60035,-107.01588 v 0 c -0.7197,-18.38737 -0.5456,-36.76313 -0.3715,-54.55848 v -1.16082 c 0.093,-8.12573 0.1742,-16.18181 0.1742,-24.2379 v -26.95421 c 0,-20.11699 -0.081,-40.8492 0.058,-61.523384 -46.16576,-5.270117 -252.89597,-5.281725 -299.05012,0.02322 z" id="path15" style="stroke-width:1.16082"/>
  <g id="g624" transform="matrix(1.1608187,0,0,1.1608187,-714.97592,4.2374418)">
    <path class="cls-3" d="m 753.3132,215.07008 v -11.91 a 1.63,1.63 0 0 0 -1.77,-1.77 h -11 a 1.58,1.58 0 0 0 -1.76,1.77 v 8.82 c 0,3 -1.55,4.42 -4.42,4.42 h -5.73 c -2.87,0 -4.41,-1.44 -4.41,-4.42 v -50.3 c 0,-2.87 1.43,-4.41 4.41,-4.41 h 5.73 c 2.87,0 4.42,1.54 4.42,4.41 v 8.83 a 1.57,1.57 0 0 0 1.76,1.76 h 11 a 1.62,1.62 0 0 0 1.77,-1.76 v -11.92 c 0,-10.36 -5.63,-15.88 -15.89,-15.88 h -12.35 c -10.37,0 -16,5.52 -16,15.88 v 56.48 c 0,10.37 5.63,15.88 16,15.88 h 12.35 c 10.26,0 15.89,-5.51 15.89,-15.88 z" id="path19"/>
    <path class="cls-3" d="m 764.3332,215.07008 c 0,10.37 5.51,15.88 15.88,15.88 h 12.35 c 10.38,0 15.89,-5.51 15.89,-15.88 v -56.48 c 0,-10.36 -5.51,-15.88 -15.89,-15.88 h -12.35 c -10.37,0 -15.88,5.52 -15.88,15.88 z m 14.67,-53.72 c 0,-2.87 1.54,-4.41 4.41,-4.41 h 6.4 c 2.87,0 4.41,1.54 4.41,4.41 v 51 c 0,3 -1.54,4.42 -4.41,4.42 h -6.4 c -2.87,0 -4.41,-1.44 -4.41,-4.42 z" id="path21"/>
    <path class="cls-3" d="m 821.6832,230.95008 h 10.15 a 2,2 0 0 0 2.2,-2.2 v -49.64 h 0.77 l 10.92,49.86 a 2.29,2.29 0 0 0 2.43,2 h 5.4 a 2.29,2.29 0 0 0 2.43,-2 l 10.94,-49.86 h 0.77 v 49.64 a 2,2 0 0 0 2.21,2.2 h 10.26 a 2,2 0 0 0 2.2,-2.2 v -83.83 a 2,2 0 0 0 -2.2,-2.21 h -14.58 a 2.3,2.3 0 0 0 -2.43,2 l -12.23,54.92 -12.25,-54.93 a 2.29,2.29 0 0 0 -2.42,-2 h -14.57 a 2,2 0 0 0 -2.21,2.21 v 83.84 a 2,2 0 0 0 2.21,2.2 z" id="path23"/>
    <path class="cls-3" d="m 923.8032,142.71008 h -12.35 c -10.37,0 -15.88,5.52 -15.88,15.88 v 56.48 c 0,10.37 5.51,15.88 15.88,15.88 h 12.35 c 10.38,0 15.89,-5.51 15.89,-15.88 v -56.48 c 0,-10.36 -5.51,-15.88 -15.89,-15.88 z m 1.66,69.6 c 0,3 -1.54,4.42 -4.41,4.42 h -6.4 c -2.87,0 -4.41,-1.44 -4.41,-4.42 v -50.96 c 0,-2.87 1.54,-4.41 4.41,-4.41 h 6.4 c 2.87,0 4.41,1.54 4.41,4.41 z" id="path25"/>
  </g>
  <g id="g618" transform="matrix(1.1608187,0,0,1.1608187,-714.97592,4.2374418)">
    <rect class="cls-3" x="759.48322" y="96.270081" width="7.6100001" height="30.25" rx="0.81999999" id="rect27"/>
    <path class="cls-3" d="m 785.5332,116.35008 a 5.34,5.34 0 0 0 1.62,1.08 4.73,4.73 0 0 0 2,0.41 h 9.64 a 0.81,0.81 0 0 1 0.58,0.22 0.71,0.71 0 0 1 0.24,0.56 v 7.09 a 0.84,0.84 0 0 0 0.21,0.58 0.75,0.75 0 0 0 0.57,0.24 h 6 a 0.77,0.77 0 0 0 0.58,-0.24 0.78,0.78 0 0 0 0.24,-0.58 v -24.36 a 4.85,4.85 0 0 0 -0.41,-1.999995 5.09,5.09 0 0 0 -2.67,-2.68 4.93,4.93 0 0 0 -2,-0.41 h -13 a 4.9,4.9 0 0 0 -2,0.41 5.34,5.34 0 0 0 -1.62,1.08 4.81,4.81 0 0 0 -1.08,1.6 5.18,5.18 0 0 0 -0.38,1.999995 v 11.45 a 5.2,5.2 0 0 0 0.38,2 4.81,4.81 0 0 0 1.1,1.55 z m 5.88,-13.2 h 8.43 v 7.61 h -8.43 z" id="path29"/>
    <path class="cls-3" d="m 827.4532,125.05008 a 5.07,5.07 0 0 0 3.59,1.47 h 13 a 5,5 0 0 0 2,-0.39 4.81,4.81 0 0 0 1.6,-1.08 5.73,5.73 0 0 0 1.08,-1.62 4.9,4.9 0 0 0 0.41,-2 v -20.08 a 4.85,4.85 0 0 0 -0.41,-1.999995 5.5,5.5 0 0 0 -1.08,-1.6 5.13,5.13 0 0 0 -1.6,-1.08 4.86,4.86 0 0 0 -2,-0.41 h -13 a 4.86,4.86 0 0 0 -2,0.41 5.34,5.34 0 0 0 -1.62,1.08 4.81,4.81 0 0 0 -1.08,1.6 5,5 0 0 0 -0.39,1.999995 v 20.14 a 5.05,5.05 0 0 0 0.39,2 5,5 0 0 0 1.11,1.56 z m 5.88,-21.44 h 8.42 v 15.56 h -8.42 z" id="path31"/>
    <path class="cls-3" d="m 867.2932,103.35008 h 13.48 l -10.24,19.71 -1.47,2.8 c -0.2,0.47 0,0.7 0.48,0.7 h 6.87 a 1.4,1.4 0 0 0 0.69,-0.2 1.05,1.05 0 0 0 0.48,-0.5 l 0.69,-1.29 8.55,-16.22 2.08,-4 a 3.7,3.7 0 0 0 0.28,-0.74 3.32,3.32 0 0 0 0.11,-0.78 v -5.699995 a 0.83,0.83 0 0 0 -0.22,-0.58 0.71,0.71 0 0 0 -0.56,-0.24 h -21.22 a 0.72,0.72 0 0 0 -0.82,0.82 v 5.439995 a 0.71,0.71 0 0 0 0.24,0.56 0.79,0.79 0 0 0 0.58,0.22 z" id="path33"/>
  </g>
  <g id="g877" transform="matrix(1.1608187,0,0,1.1608187,-714.97592,4.2374418)">
    <g id="g890">
      <path d="m 900.4532,255.29008 c -0.4,0.23 -0.84,0.46 -1.31,0.71 -0.47,0.25 -1,0.5 -1.49,0.75 a 63.43,63.43 0 0 1 -17.84,5.6 c -8.73,1.31 -17.55,0.76 -26.33,-0.41 -5.09,-0.77 -10.14,-1.73 -15.19,-2.79 -5.27,-1.13 -10.52,-2.35 -15.78,-3.51 -5.26,-1.16 -10.45,-2.19 -15.71,-3.06 a 94.76,94.76 0 0 0 -12.68,-1.1 c -8.9,0 -19.69,1 -28,4.41 -6.26,2.92 -10,4.1 -15.08,9.13 -1,1 -1.86,1.93 -2.62,2.78 -0.38,0.42 -0.73,0.82 -1.05,1.19 l -0.86,1 c -1,1.26 -1.18,1.5 -1.58,2 l -1.92,2.68 c 0,0 0.59,-0.37 1.7,-1 l 0.93,-0.54 1.13,-0.63 c 0.81,-0.44 1.74,-0.93 2.8,-1.45 a 65.54,65.54 0 0 1 17.84,-5.51 c 8.71,-1.33 17.57,-0.75 26.33,0.41 5.09,0.76 10.14,1.71 15.2,2.76 5.26,1.13 10.51,2.31 15.76,3.47 5.25,1.16 10.45,2.15 15.71,3 a 132.7,132.7 0 0 0 15,1.37 65.73,65.73 0 0 0 25.65,-4.71 58.81,58.81 0 0 0 17,-11.76 c 0.49,-0.5 1,-1 1.39,-1.43 l 1.23,-1.34 c 0.76,-0.84 1.4,-1.6 1.91,-2.22 l 1.58,-2 -1.7,1 c -0.55,0.35 -1.21,0.75 -2.02,1.2 z" id="path35" style="fill:#10416a;fill-opacity:1"/>
      <path style="fill:#10416a;fill-opacity:1" d="m 748.18128,332.31328 c 6.90693,-0.0258 15.2826,0.51037 22.06286,1.82734 5,1 10.04883,2.16924 15.04883,3.44922 5.19998,1.36 10.38986,2.77969 15.58984,4.17969 5.2,1.4 10.3408,2.62117 15.55078,3.70117 4.9334,0.96937 9.91805,1.65668 14.92969,2.0586 8.75991,0.55547 17.54241,-0.64785 25.83008,-3.53907 6.4496,-2.59732 12.38531,-6.3221 17.5293,-11 0.51,-0.47 1.00093,-0.91937 1.46093,-1.35937 0.46,-0.44 0.8793,-0.88125 1.2793,-1.28125 0.8,-0.8 1.47,-1.52891 2,-2.12891 l 1.66016,-1.91992 c 0,0 -0.61,0.35 -1.75,1 -0.57,0.31 -1.26961,0.66986 -2.09961,1.08984 l -1.33985,0.63868 c -0.48,0.23333 -0.99125,0.46474 -1.53125,0.6914 -5.75411,2.46817 -11.84367,4.06577 -18.06836,4.74024 -8.77998,0.91 -17.57103,-0.002 -26.29101,-1.60156 -5,-1 -10.00002,-2.18852 -15,-3.47852 -5.21,-1.37 -10.39963,-2.83047 -15.59961,-4.23047 -5.2,-1.4 -10.3408,-2.65977 -15.55078,-3.75977 -4.16402,-0.84186 -8.37989,-1.40302 -12.61914,-1.67968 -8.88998,-0.42 -19.72041,0.0689 -28.15039,3.1289 l -3.57732,1.5703 c 0,0 1.53577,2.65519 8.63555,7.90314 z" id="path872" sodipodi:nodetypes="cccsccccsscccccccccsccccc"/>
      <path style="fill:#10416a;fill-opacity:1" d="m 724.92383,307.04102 c 14.19996,-2.88 28.78885,-2.75118 43.29883,-1.70118 8.62998,0.78 17.23986,1.88016 25.83984,3.16016 8.99998,1.37 17.92088,2.84953 26.88086,4.26953 8.95998,1.42 17.80049,2.59 26.73047,3.5 8.44044,0.75558 16.9169,1.03272 25.38867,0.83008 14.99998,-0.87 29.11096,-3.84947 42.71094,-10.43945 5.97464,-3.20124 11.72405,-6.97619 16.96758,-11.27149 3.40374,-5.04143 6.35934,-10.16973 8.91797,-15.38281 -9.05984,4.95713 -18.88425,8.58916 -28.9754,10.78516 -14.56996,3.05998 -29.46111,2.99843 -44.37109,1.89843 -8.62998,-0.79 -17.23963,-1.90945 -25.84961,-3.18945 -8.99998,-1.4 -17.93064,-2.92914 -26.89062,-4.36914 -8.96,-1.44 -17.81002,-2.64986 -26.75,-3.58984 -7.12796,-0.6846 -14.2941,-0.88558 -21.44922,-0.60157 -14.99998,0.84 -33.06018,3.55993 -46.66016,10.16993 -2,1.06998 -7.00298,3.59824 -8.72298,4.53824 l 7.80628,14.82493 z" id="path783" sodipodi:nodetypes="cccsccccccccscccccc"/>
    </g>
  </g>
</svg>