<?xml version="1.0" encoding="UTF-8" standalone="no"?>
<!DOCTYPE svg PUBLIC "-//W3C//DTD SVG 1.1//EN" "http://www.w3.org/Graphics/SVG/1.1/DTD/svg11.dtd">
<svg xmlns="http://www.w3.org/2000/svg" version="1.1" viewBox="0 0 200 200" width="200.0pt" height="200.0pt">
<path d="M 0.00 0.00 L 200.00 0.00 L 200.00 2.20 C 197.01 2.41 193.99 2.32 191.00 2.32 C 127.33 2.29 63.67 2.34 0.00 2.30 L 0.00 0.00 Z" fill="#ffffff"/>
<path d="M 0.00 2.30 C 63.67 2.34 127.33 2.29 191.00 2.32 C 193.99 2.32 197.01 2.41 200.00 2.20 L 200.00 2.70 L 199.82 2.91 C 196.68 6.05 194.91 9.85 192.56 13.54 C 186.32 23.63 180.10 33.74 173.87 43.84 C 172.02 46.97 169.83 49.40 169.12 53.08 C 167.32 54.66 166.18 56.67 165.00 58.72 C 164.31 58.00 163.61 57.27 162.92 56.55 L 162.55 56.19 C 167.31 48.45 172.12 40.74 176.79 32.96 L 177.37 32.08 C 125.73 31.91 74.07 31.99 22.43 32.04 L 22.91 33.00 C 26.96 40.49 31.59 47.68 35.86 55.05 C 35.16 55.74 34.46 56.44 33.76 57.15 L 32.95 56.95 C 30.33 53.43 28.35 49.44 26.03 45.72 C 17.33 31.27 8.88 16.64 0.00 2.30 L 0.00 2.30 Z" fill="#cf9902"/>
<path d="M 0.00 2.30 C 8.88 16.64 17.33 31.27 26.03 45.72 C 28.35 49.44 30.33 53.43 32.95 56.95 L 33.76 57.15 C 37.83 57.59 39.83 60.37 42.85 62.73 C 42.69 63.79 42.49 64.85 42.24 65.90 C 41.70 67.33 41.13 68.74 40.55 70.15 C 45.12 77.63 49.50 85.22 54.08 92.70 C 55.20 94.53 56.13 96.41 56.92 98.41 C 51.38 89.46 46.16 80.32 40.61 71.39 L 39.46 70.88 C 38.69 70.57 37.91 70.27 37.14 69.95 C 34.29 67.93 31.72 65.54 28.83 63.57 C 30.01 61.65 31.37 59.91 32.74 58.12 C 22.38 40.88 12.09 23.59 1.71 6.36 C 1.13 5.39 0.56 4.41 0.00 3.42 L 0.00 2.30 Z" fill="#24691a"/>
<path d="M 199.82 2.91 L 200.00 2.70 L 200.00 4.10 L 199.99 3.86 C 192.39 15.69 185.15 27.76 177.70 39.68 C 174.83 44.17 172.28 48.82 169.12 53.08 C 169.83 49.40 172.02 46.97 173.87 43.84 C 180.10 33.74 186.32 23.63 192.56 13.54 C 194.91 9.85 196.68 6.05 199.82 2.91 Z" fill="#937e3a"/>
<path d="M 0.00 3.42 C 0.56 4.41 1.13 5.39 1.71 6.36 C 12.09 23.59 22.38 40.88 32.74 58.12 C 31.37 59.91 30.01 61.65 28.83 63.57 C 25.78 69.05 27.57 75.97 28.90 81.73 C 27.87 80.89 26.83 80.08 25.76 79.28 C 24.39 78.30 22.93 77.41 21.46 76.57 C 20.51 76.05 19.56 75.53 18.60 75.02 C 18.73 80.54 19.13 85.96 21.03 91.19 C 19.54 90.75 18.04 90.33 16.53 89.91 C 18.10 95.78 19.43 101.30 23.42 106.08 C 21.25 105.81 19.07 105.58 16.89 105.37 C 19.57 110.56 22.45 116.17 27.82 119.05 L 30.25 119.53 C 27.22 119.90 24.20 120.39 21.19 120.89 C 23.83 124.14 26.59 127.24 29.93 129.80 C 31.27 130.66 32.67 131.42 34.10 132.11 L 35.48 132.28 C 32.82 132.73 30.20 133.36 27.59 134.00 C 31.62 137.19 35.75 140.23 40.22 142.80 C 38.75 143.71 37.29 144.63 35.85 145.59 C 31.77 142.39 27.70 139.14 23.51 136.07 C 25.83 144.94 28.85 153.62 31.13 162.50 C 26.16 166.14 21.17 169.77 16.36 173.62 C 25.09 176.45 33.86 179.18 42.57 182.06 C 42.25 183.95 41.92 185.83 41.59 187.72 C 56.68 190.80 71.75 193.99 86.83 197.09 C 98.10 198.88 108.73 197.47 119.80 195.38 C 130.06 193.55 140.55 191.74 150.50 188.58 C 153.08 187.68 156.10 186.79 158.22 185.01 C 158.25 182.98 157.81 181.08 157.25 179.14 C 165.05 176.57 172.89 174.11 180.71 171.60 C 176.30 167.82 171.43 164.65 166.90 161.03 C 165.44 160.04 166.36 159.15 166.58 157.78 C 168.95 149.87 171.44 141.98 173.59 134.01 C 168.82 137.36 164.51 141.25 159.65 144.45 C 158.73 143.88 157.80 143.31 156.86 142.76 C 157.86 142.21 158.85 141.66 159.83 141.08 C 163.30 138.96 166.46 136.48 169.67 134.00 C 167.01 133.36 164.34 132.69 161.66 132.18 L 163.28 132.02 C 168.71 129.66 172.29 125.31 176.02 120.91 C 173.04 120.43 170.06 119.93 167.08 119.43 L 169.12 119.13 C 174.55 116.62 177.72 110.43 180.35 105.38 C 178.18 105.58 176.01 105.80 173.84 106.07 C 177.77 101.30 179.13 95.76 180.70 89.93 C 179.18 90.34 177.66 90.77 176.15 91.20 C 178.14 85.97 178.49 80.54 178.61 74.99 C 176.10 76.37 173.61 77.75 171.27 79.41 C 170.24 80.16 169.23 80.94 168.27 81.77 C 169.76 75.99 171.38 69.10 168.40 63.55 C 167.46 62.08 166.45 60.68 165.45 59.25 C 166.71 57.21 167.93 55.16 169.12 53.08 C 172.28 48.82 174.83 44.17 177.70 39.68 C 185.15 27.76 192.39 15.69 199.99 3.86 L 200.00 4.10 L 200.00 200.00 L 0.00 200.00 L 0.00 3.42 Z" fill="#ffffff"/>
<path d="M 7.05 5.11 C 69.36 5.09 132.65 5.08 194.94 5.12 L 194.36 5.94 C 131.80 5.94 69.22 5.94 6.66 5.94 C 6.05 5.18 6.18 4.91 7.05 5.11 Z" fill="#c9ae6a"/>
<path d="M 6.66 5.94 C 69.22 5.94 131.80 5.94 194.36 5.94 C 189.34 13.85 184.20 21.69 179.08 29.54 C 126.25 29.59 73.41 29.50 20.57 29.59 C 15.84 21.77 11.23 13.85 6.66 5.94 Z" fill="#ffffff"/>
<path d="M 99.38 11.71 C 101.82 11.53 104.53 11.37 106.90 12.09 C 109.99 13.19 110.21 17.80 107.44 19.40 C 105.97 20.07 104.19 20.11 102.61 20.40 C 102.59 21.46 102.57 22.52 102.55 23.58 C 101.46 23.58 100.38 23.58 99.29 23.57 C 99.33 19.63 99.09 15.64 99.38 11.71 Z" fill="#cf9800"/>
<path d="M 151.86 11.55 C 151.90 15.56 151.90 19.58 151.87 23.59 C 150.77 23.58 149.68 23.57 148.58 23.56 C 148.59 19.61 148.49 15.66 148.63 11.72 C 149.71 11.65 150.78 11.59 151.86 11.55 Z" fill="#cf9800"/>
<path d="M 32.27 12.79 C 33.89 13.65 31.71 14.83 31.20 15.65 C 29.78 15.21 28.30 13.88 26.80 14.69 C 24.56 16.04 24.75 19.86 27.32 20.69 C 28.58 21.04 30.05 19.95 31.19 19.51 C 31.93 20.25 32.66 21.00 33.39 21.76 C 31.06 23.03 29.17 24.37 26.35 23.60 C 22.44 22.58 20.73 18.08 22.60 14.57 C 24.46 11.12 29.26 10.40 32.27 12.79 Z" fill="#cf9800"/>
<path d="M 34.73 11.63 C 35.84 11.64 36.94 11.64 38.05 11.65 C 38.06 14.66 38.06 17.66 38.07 20.67 C 39.99 20.67 41.90 20.68 43.82 20.68 L 43.85 23.55 C 40.81 23.57 37.77 23.58 34.72 23.57 C 34.72 19.59 34.72 15.61 34.73 11.63 Z" fill="#cf9800"/>
<path d="M 44.78 11.64 C 45.89 11.64 47.00 11.64 48.11 11.64 C 48.14 14.28 47.92 17.05 48.39 19.66 C 48.99 21.22 51.83 21.21 52.32 19.54 C 52.74 16.95 52.53 14.24 52.56 11.63 C 53.67 11.63 54.79 11.64 55.90 11.64 C 55.86 14.58 56.15 17.70 55.54 20.59 C 54.27 25.09 45.58 24.90 44.99 20.01 C 44.60 17.26 44.78 14.40 44.78 11.64 Z" fill="#cf9800"/>
<path d="M 57.86 11.63 C 60.65 11.74 64.11 11.18 66.71 12.27 C 68.84 13.68 67.77 15.48 67.00 17.32 C 68.20 19.10 69.49 20.65 67.55 22.54 C 65.03 24.23 60.80 23.39 57.85 23.57 C 57.85 19.59 57.85 15.61 57.86 11.63 Z" fill="#cf9800"/>
<path d="M 74.80 11.59 C 77.51 11.72 81.01 11.26 83.44 12.60 C 87.05 14.68 87.04 20.33 83.53 22.50 C 81.13 23.96 77.52 23.49 74.79 23.61 C 74.79 19.61 74.79 15.60 74.80 11.59 Z" fill="#cf9800"/>
<path d="M 87.87 11.64 C 91.07 11.63 94.27 11.63 97.46 11.63 C 97.47 12.57 97.47 13.50 97.48 14.43 C 95.39 14.43 93.30 14.43 91.21 14.42 L 91.10 16.23 C 93.02 16.24 94.95 16.26 96.88 16.27 C 96.89 17.13 96.89 17.99 96.90 18.85 C 95.01 18.86 93.12 18.87 91.23 18.88 L 91.03 20.70 C 93.20 20.73 95.38 20.76 97.55 20.78 C 97.56 21.70 97.57 22.63 97.58 23.56 C 94.35 23.57 91.12 23.58 87.88 23.57 C 87.86 19.60 87.86 15.62 87.87 11.64 Z" fill="#cf9800"/>
<path d="M 113.34 12.34 C 115.94 10.80 119.51 11.15 121.61 13.39 C 123.74 15.65 123.78 19.35 121.71 21.67 C 119.10 24.61 114.06 24.51 111.63 21.39 C 109.41 18.52 110.21 14.19 113.34 12.34 Z" fill="#cf9800"/>
<path d="M 124.95 11.62 C 127.77 11.84 132.82 10.81 134.80 13.25 C 136.57 15.99 135.05 17.68 133.31 19.75 C 134.19 21.02 135.07 22.29 135.94 23.55 C 134.73 23.56 133.52 23.57 132.31 23.57 C 131.19 22.00 130.02 20.57 128.41 19.46 C 128.34 20.83 128.27 22.20 128.21 23.57 C 127.12 23.57 126.03 23.56 124.94 23.56 C 124.94 19.58 124.94 15.60 124.95 11.62 Z" fill="#cf9800"/>
<path d="M 136.58 11.64 C 140.08 11.63 143.59 11.63 147.09 11.65 C 147.07 12.61 147.05 13.56 147.02 14.52 C 145.84 14.53 144.66 14.54 143.47 14.55 C 143.46 17.56 143.45 20.57 143.44 23.58 C 142.34 23.57 141.24 23.56 140.14 23.55 C 140.14 20.55 140.14 17.55 140.10 14.55 C 138.92 14.54 137.74 14.53 136.57 14.51 L 136.58 11.64 Z" fill="#cf9800"/>
<path d="M 153.15 11.61 C 154.40 11.64 155.64 11.66 156.89 11.69 C 157.73 14.12 158.56 16.57 159.41 19.00 C 160.47 16.63 161.37 14.21 162.18 11.75 C 163.41 11.69 164.64 11.64 165.88 11.59 C 164.29 15.65 162.68 19.69 160.96 23.69 C 159.99 23.69 159.01 23.69 158.04 23.69 C 156.33 19.69 154.73 15.66 153.15 11.61 Z" fill="#cf9800"/>
<path d="M 169.17 12.16 C 171.86 10.77 175.39 11.29 177.37 13.66 C 179.36 16.05 179.19 19.78 176.96 21.96 C 174.17 24.72 169.14 24.36 166.92 21.06 C 164.88 18.06 165.96 13.83 169.17 12.16 Z" fill="#cf9800"/>
<path d="M 60.92 13.96 C 61.92 13.98 62.91 14.01 63.90 14.05 C 64.42 14.68 64.93 15.33 65.42 15.98 C 64.00 16.27 62.58 16.55 61.16 16.81 C 61.08 15.86 61.00 14.91 60.92 13.96 Z" fill="#efddab"/>
<path d="M 78.23 14.41 C 80.62 14.56 82.89 14.90 82.76 17.88 C 82.60 20.56 80.11 20.38 78.15 20.94 C 78.11 18.77 78.05 16.57 78.23 14.41 Z" fill="#ffffff"/>
<path d="M 102.52 14.29 C 103.70 13.96 106.55 14.22 106.08 15.99 C 106.62 17.85 103.49 17.72 102.36 17.86 C 102.36 16.67 102.41 15.48 102.52 14.29 Z" fill="#efddab"/>
<path d="M 128.42 14.45 C 130.22 14.56 131.60 14.03 132.51 15.99 C 131.51 17.61 129.80 17.24 128.16 17.58 C 128.22 16.53 128.31 15.49 128.42 14.45 Z" fill="#ffffff"/>
<path d="M 114.45 15.43 C 116.04 13.69 118.82 14.17 119.64 16.39 C 120.33 18.42 119.20 20.73 116.92 20.83 C 114.08 20.85 112.86 17.60 114.45 15.43 Z" fill="#ffffff"/>
<path d="M 170.23 15.22 C 171.61 13.77 174.22 14.26 175.03 16.10 C 176.07 18.28 174.65 21.00 172.10 20.82 C 169.35 20.62 168.35 17.03 170.23 15.22 Z" fill="#ffffff"/>
<path d="M 61.35 18.57 C 62.77 18.57 64.16 18.72 65.58 18.86 C 64.96 22.05 63.13 20.69 60.69 21.11 C 60.89 20.25 61.11 19.41 61.35 18.57 Z" fill="#f0dfaf"/>
<path d="M 22.43 32.04 C 74.07 31.99 125.73 31.91 177.37 32.08 L 176.79 32.96 C 125.56 33.09 74.16 33.00 22.91 33.00 L 22.43 32.04 Z" fill="#83660d"/>
<path d="M 22.91 33.00 C 74.16 33.00 125.56 33.09 176.79 32.96 C 172.12 40.74 167.31 48.45 162.55 56.19 C 160.40 54.03 158.10 52.06 155.75 50.13 C 154.49 54.99 153.80 59.88 154.64 64.89 C 154.94 65.81 155.26 66.73 155.60 67.63 C 147.24 80.92 139.18 94.40 130.84 107.71 C 133.04 99.50 133.23 91.01 129.99 83.05 C 127.28 76.27 122.41 70.82 116.31 66.90 C 120.01 59.53 123.87 52.24 127.67 44.93 C 126.75 44.25 125.83 43.57 124.90 42.90 C 124.24 43.56 123.57 44.21 122.90 44.87 C 122.22 44.79 121.54 44.70 120.86 44.62 C 119.80 47.23 119.53 49.39 119.66 52.21 C 118.16 51.77 116.66 51.69 115.11 51.66 C 114.50 49.74 113.90 47.81 113.30 45.89 C 110.63 47.60 108.31 49.29 104.99 49.31 C 103.05 49.50 102.16 48.06 100.75 47.03 C 102.98 45.99 105.22 45.00 107.46 43.97 C 106.55 40.66 104.26 39.41 101.61 37.63 C 101.62 36.86 101.64 36.09 101.66 35.32 C 100.72 34.70 99.77 34.08 98.81 33.48 C 97.16 35.74 96.18 38.17 93.82 39.83 C 92.57 40.89 90.49 42.37 91.69 44.19 C 93.56 45.38 95.72 46.14 97.73 47.10 C 93.73 51.29 88.85 48.78 85.18 45.67 C 84.45 47.89 83.68 50.09 82.77 52.23 C 81.40 51.84 80.12 51.81 78.93 52.14 C 78.82 49.48 78.64 47.04 77.44 44.63 C 76.81 44.68 76.18 44.72 75.55 44.76 C 73.39 42.44 72.92 43.35 70.66 44.83 C 74.36 51.66 77.73 58.68 81.49 65.47 L 82.23 66.38 C 76.81 69.94 72.16 74.37 69.21 80.22 C 64.76 88.70 64.62 98.16 66.90 107.31 C 58.75 93.47 50.55 79.65 42.24 65.90 C 42.49 64.85 42.69 63.79 42.85 62.73 C 43.24 58.43 42.52 54.28 41.47 50.13 C 39.55 51.72 37.64 53.31 35.86 55.05 C 31.59 47.68 26.96 40.49 22.91 33.00 Z" fill="#ffffff"/>
<path d="M 98.81 33.48 C 99.77 34.08 100.72 34.70 101.66 35.32 C 101.64 36.09 101.62 36.86 101.61 37.63 C 104.26 39.41 106.55 40.66 107.46 43.97 C 105.22 45.00 102.98 45.99 100.75 47.03 C 102.16 48.06 103.05 49.50 104.99 49.31 C 108.31 49.29 110.63 47.60 113.30 45.89 C 113.90 47.81 114.50 49.74 115.11 51.66 C 115.71 53.98 117.98 53.87 119.66 52.70 L 119.66 52.21 C 119.53 49.39 119.80 47.23 120.86 44.62 C 121.54 44.70 122.22 44.79 122.90 44.87 C 123.57 44.21 124.24 43.56 124.90 42.90 C 125.83 43.57 126.75 44.25 127.67 44.93 C 123.87 52.24 120.01 59.53 116.31 66.90 C 122.41 70.82 127.28 76.27 129.99 83.05 C 133.23 91.01 133.04 99.50 130.84 107.71 C 139.18 94.40 147.24 80.92 155.60 67.63 L 156.06 68.74 C 156.53 69.84 156.98 70.94 157.42 72.05 C 157.13 72.47 156.84 72.90 156.56 73.33 C 153.67 75.79 152.13 79.01 150.20 82.18 C 147.97 85.99 145.26 89.12 144.12 93.49 L 144.04 93.62 C 140.47 97.17 137.75 101.73 136.11 106.48 L 136.06 106.55 C 133.29 109.11 132.14 110.95 131.10 114.60 L 131.02 114.80 C 128.28 115.16 128.01 116.90 128.15 119.30 L 128.00 119.60 C 125.31 120.58 125.02 121.52 125.05 124.26 L 124.98 124.52 C 123.50 125.07 122.82 125.98 122.95 127.24 L 122.95 127.49 C 121.75 127.86 121.11 128.90 121.05 130.59 L 120.68 131.22 L 120.31 131.81 C 119.79 132.63 119.27 133.45 118.75 134.27 L 118.41 134.83 C 117.91 135.71 117.42 136.59 116.93 137.48 C 115.50 138.08 114.83 139.00 114.92 140.24 L 114.91 140.64 C 112.35 141.28 112.12 142.90 112.05 145.23 L 112.00 145.47 C 110.52 145.89 109.90 146.88 110.16 148.45 C 109.17 150.18 108.13 151.88 107.03 153.54 C 105.58 153.92 104.92 154.88 105.05 156.43 C 104.71 157.18 104.39 157.93 104.07 158.69 C 102.65 158.69 101.95 159.60 101.96 161.42 L 101.13 163.60 C 105.55 161.59 109.94 159.51 114.27 157.28 L 114.34 159.42 C 110.34 161.87 106.09 163.72 101.85 165.69 C 105.50 167.23 109.29 168.33 112.86 170.06 C 118.21 169.50 123.43 168.20 128.78 167.63 C 127.25 167.27 125.72 166.90 124.19 166.51 C 124.37 165.51 124.55 164.52 124.75 163.52 L 125.60 163.32 C 126.44 166.18 128.63 165.26 131.00 165.65 C 134.73 165.93 137.75 164.44 141.13 163.13 C 144.50 161.65 147.74 160.84 149.92 157.59 C 150.52 157.21 151.13 156.83 151.74 156.46 C 151.60 157.20 151.46 157.94 151.33 158.68 C 152.01 161.31 152.02 163.99 152.46 166.65 C 153.65 170.28 155.47 173.68 156.65 177.33 L 157.25 179.14 C 157.81 181.08 158.25 182.98 158.22 185.01 C 156.10 186.79 153.08 187.68 150.50 188.58 C 140.55 191.74 130.06 193.55 119.80 195.38 C 108.73 197.47 98.10 198.88 86.83 197.09 C 71.75 193.99 56.68 190.80 41.59 187.72 C 41.92 185.83 42.25 183.95 42.57 182.06 C 42.68 181.43 42.79 180.79 42.90 180.16 C 44.53 172.71 45.21 165.48 45.62 157.89 L 47.12 157.32 L 48.10 157.81 L 47.87 158.19 C 47.61 158.67 47.36 159.16 47.12 159.65 C 47.79 160.46 48.44 161.28 49.10 162.09 C 56.33 163.92 63.61 165.58 70.90 167.20 C 70.93 165.93 70.96 164.66 71.00 163.39 L 72.55 163.28 C 72.56 164.69 72.56 166.10 72.57 167.51 C 76.60 168.44 80.64 169.29 84.74 169.87 C 88.23 168.27 91.84 167.10 95.45 165.81 C 91.19 163.67 86.90 161.90 82.83 159.38 L 82.93 157.30 C 87.14 159.39 91.35 161.48 95.67 163.34 C 90.42 154.54 85.25 145.67 79.83 136.99 C 79.31 136.10 78.80 135.20 78.29 134.30 L 78.03 133.72 L 77.90 133.40 L 77.67 133.06 C 75.57 129.88 73.75 126.53 71.70 123.32 C 72.30 120.89 71.57 119.24 69.02 118.70 L 68.89 118.27 C 68.92 115.89 68.71 114.17 66.01 113.68 L 65.90 113.29 C 65.99 110.54 65.71 109.58 63.02 108.58 L 62.86 108.30 C 63.02 105.53 62.71 104.59 60.02 103.57 L 59.86 103.28 C 59.95 100.91 59.72 99.12 57.02 98.66 L 56.92 98.41 C 56.13 96.41 55.20 94.53 54.08 92.70 C 49.50 85.22 45.12 77.63 40.55 70.15 C 41.13 68.74 41.70 67.33 42.24 65.90 C 50.55 79.65 58.75 93.47 66.90 107.31 C 64.62 98.16 64.76 88.70 69.21 80.22 C 72.16 74.37 76.81 69.94 82.23 66.38 C 84.24 65.41 86.26 64.50 88.39 63.81 C 91.93 63.60 95.46 63.12 99.00 63.04 C 102.53 63.12 106.05 63.60 109.57 63.88 C 111.65 64.56 113.72 65.26 115.83 65.86 C 110.92 61.69 103.22 60.65 96.99 60.92 C 91.39 61.03 86.44 63.04 81.49 65.47 C 77.73 58.68 74.36 51.66 70.66 44.83 C 72.92 43.35 73.39 42.44 75.55 44.76 C 76.18 44.72 76.81 44.68 77.44 44.63 C 78.64 47.04 78.82 49.48 78.93 52.14 L 78.96 52.69 C 79.97 53.35 82.30 53.69 82.77 52.23 C 83.68 50.09 84.45 47.89 85.18 45.67 C 88.85 48.78 93.73 51.29 97.73 47.10 C 95.72 46.14 93.56 45.38 91.69 44.19 C 90.49 42.37 92.57 40.89 93.82 39.83 C 96.18 38.17 97.16 35.74 98.81 33.48 Z" fill="#cf9800"/>
<path d="M 97.48 40.52 C 99.50 40.05 101.52 40.26 102.64 42.23 C 102.55 45.16 97.74 45.50 96.17 43.79 C 94.63 42.67 96.15 40.90 97.48 40.52 Z" fill="#f50605"/>
<path d="M 56.97 43.94 C 60.48 43.56 62.86 45.23 65.48 47.25 C 64.30 48.30 63.12 49.34 61.92 50.37 C 59.98 49.32 58.36 47.76 56.01 48.76 C 52.42 50.38 52.47 56.36 56.18 57.79 C 58.62 58.65 60.02 57.17 61.97 56.04 C 63.19 56.94 64.41 57.85 65.63 58.77 C 63.32 60.78 61.28 62.59 58.01 62.58 C 52.94 62.85 48.55 59.07 48.28 53.98 C 47.85 48.76 51.74 44.25 56.97 43.94 Z" fill="#cf9800"/>
<path d="M 133.23 44.38 C 137.29 44.24 142.54 43.69 146.18 45.78 C 151.46 48.81 151.52 57.19 146.47 60.46 C 142.93 62.92 137.25 62.10 133.13 62.21 C 133.22 56.27 132.94 50.31 133.23 44.38 Z" fill="#cf9800"/>
<path d="M 138.24 48.62 C 139.92 48.63 141.95 48.59 143.40 49.59 C 145.98 51.41 145.63 56.29 142.51 57.37 C 141.09 57.73 139.60 57.83 138.15 58.00 C 138.12 54.89 137.96 51.72 138.24 48.62 Z" fill="#ffffff"/>
<path d="M 41.47 50.13 C 42.52 54.28 43.24 58.43 42.85 62.73 C 39.83 60.37 37.83 57.59 33.76 57.15 C 34.46 56.44 35.16 55.74 35.86 55.05 C 37.64 53.31 39.55 51.72 41.47 50.13 Z" fill="#2c8324"/>
<path d="M 115.11 51.66 C 116.66 51.69 118.16 51.77 119.66 52.21 L 119.66 52.70 C 117.98 53.87 115.71 53.98 115.11 51.66 Z" fill="#a98e4a"/>
<path d="M 155.75 50.13 C 158.10 52.06 160.40 54.03 162.55 56.19 L 162.92 56.55 C 159.58 58.97 156.33 60.92 154.64 64.89 C 153.80 59.88 154.49 54.99 155.75 50.13 Z" fill="#2c8124"/>
<path d="M 78.93 52.14 C 80.12 51.81 81.40 51.84 82.77 52.23 C 82.30 53.69 79.97 53.35 78.96 52.69 L 78.93 52.14 Z" fill="#9a7f3d"/>
<path d="M 98.22 53.38 C 99.88 52.42 101.04 54.58 99.81 55.79 C 98.12 56.77 96.96 54.60 98.22 53.38 Z" fill="#373c5a"/>
<path d="M 169.12 53.08 C 167.93 55.16 166.71 57.21 165.45 59.25 C 166.45 60.68 167.46 62.08 168.40 63.55 C 165.29 65.62 162.46 67.77 160.38 70.92 C 158.80 70.39 157.40 69.74 156.06 68.74 L 155.60 67.63 C 155.26 66.73 154.94 65.81 154.64 64.89 C 156.33 60.92 159.58 58.97 162.92 56.55 C 163.61 57.27 164.31 58.00 165.00 58.72 C 166.18 56.67 167.32 54.66 169.12 53.08 Z" fill="#24691a"/>
<path d="M 95.34 54.58 L 94.76 56.87 C 93.24 57.59 88.30 59.60 89.70 55.99 C 91.38 55.12 93.50 54.92 95.34 54.58 Z" fill="#628e05"/>
<path d="M 102.67 54.58 C 104.76 54.97 106.81 55.44 108.85 56.00 C 108.57 56.77 108.28 57.55 108.00 58.33 C 105.55 57.31 102.79 58.02 102.67 54.58 Z" fill="#608f05"/>
<path d="M 83.88 56.90 C 85.16 56.95 86.45 57.00 87.73 57.05 C 87.04 58.27 86.35 59.48 85.66 60.69 C 84.33 60.66 83.01 60.64 81.69 60.62 C 82.43 59.38 83.15 58.14 83.88 56.90 Z" fill="#e52108"/>
<path d="M 110.19 57.08 C 111.49 57.02 112.80 56.96 114.10 56.90 C 114.84 58.16 115.57 59.42 116.31 60.69 C 115.00 60.68 113.68 60.65 112.37 60.60 C 111.60 59.47 110.90 58.26 110.19 57.08 Z" fill="#e52108"/>
<path d="M 96.99 60.92 C 103.22 60.65 110.92 61.69 115.83 65.86 C 113.72 65.26 111.65 64.56 109.57 63.88 C 102.91 61.21 95.08 61.27 88.39 63.81 C 86.26 64.50 84.24 65.41 82.23 66.38 L 81.49 65.47 C 86.44 63.04 91.39 61.03 96.99 60.92 Z" fill="#9e760c"/>
<path d="M 109.57 63.88 C 106.05 63.60 102.53 63.12 99.00 63.04 C 95.46 63.12 91.93 63.60 88.39 63.81 C 95.08 61.27 102.91 61.21 109.57 63.88 Z" fill="#d3ad2b"/>
<path d="M 28.83 63.57 C 31.72 65.54 34.29 67.93 37.14 69.95 C 35.94 72.20 34.86 74.54 33.73 76.84 C 32.68 78.96 31.72 81.13 30.89 83.35 C 30.22 82.81 29.56 82.27 28.90 81.73 C 27.57 75.97 25.78 69.05 28.83 63.57 Z" fill="#19490c"/>
<path d="M 168.40 63.55 C 171.38 69.10 169.76 75.99 168.27 81.77 L 166.63 83.45 C 165.66 81.18 164.55 78.97 163.48 76.75 C 162.52 74.76 161.50 72.82 160.38 70.92 C 162.46 67.77 165.29 65.62 168.40 63.55 Z" fill="#19490c"/>
<path d="M 105.48 68.04 C 105.30 86.74 105.38 105.46 105.44 124.17 L 104.14 124.24 C 104.23 105.70 104.21 87.14 104.15 68.59 C 100.54 68.08 97.31 68.07 93.70 68.62 C 93.68 87.16 93.60 105.70 93.74 124.24 L 92.45 124.16 C 92.53 105.46 92.52 86.74 92.45 68.03 C 96.71 67.68 101.23 67.67 105.48 68.04 Z" fill="#5277a1"/>
<path d="M 92.45 68.03 C 92.52 86.74 92.53 105.46 92.45 124.16 C 87.97 123.09 83.15 120.98 80.02 117.50 C 79.89 103.38 80.39 89.20 79.76 75.10 C 82.89 71.34 87.85 69.30 92.45 68.03 Z" fill="#0b1f6f"/>
<path d="M 104.15 68.59 C 104.21 87.14 104.23 105.70 104.14 124.24 C 100.67 124.34 97.21 124.34 93.74 124.24 C 93.60 105.70 93.68 87.16 93.70 68.62 C 97.31 68.07 100.54 68.08 104.15 68.59 Z" fill="#ffffff"/>
<path d="M 105.48 68.04 C 110.15 69.39 116.18 71.65 118.69 76.13 C 117.39 78.35 117.64 80.55 117.62 83.00 C 117.76 94.53 117.51 106.06 117.76 117.58 C 114.43 121.13 110.10 123.02 105.44 124.17 C 105.38 105.46 105.30 86.74 105.48 68.04 Z" fill="#0b1f6f"/>
<path d="M 156.06 68.74 C 157.40 69.74 158.80 70.39 160.38 70.92 C 161.50 72.82 162.52 74.76 163.48 76.75 C 160.54 78.90 157.85 80.73 154.10 81.08 C 154.96 78.08 156.33 75.31 157.58 72.46 L 157.42 72.05 C 156.98 70.94 156.53 69.84 156.06 68.74 Z" fill="#33952c"/>
<path d="M 37.14 69.95 C 37.91 70.27 38.69 70.57 39.46 70.88 C 40.36 74.77 42.44 78.16 43.39 82.02 C 39.99 80.61 36.86 78.75 33.73 76.84 C 34.86 74.54 35.94 72.20 37.14 69.95 Z" fill="#33962c"/>
<path d="M 39.46 70.88 L 40.61 71.39 C 46.16 80.32 51.38 89.46 56.92 98.41 L 57.02 98.66 C 57.62 100.71 58.30 101.82 59.86 103.28 L 60.02 103.57 C 60.60 105.70 61.24 106.81 62.86 108.30 L 63.02 108.58 C 63.60 110.70 64.23 111.84 65.90 113.29 L 66.01 113.68 C 66.42 115.62 67.46 116.95 68.89 118.27 L 69.02 118.70 C 69.47 120.52 70.53 121.90 71.70 123.32 C 73.75 126.53 75.57 129.88 77.67 133.06 L 78.03 133.72 L 78.29 134.30 C 77.63 134.45 77.16 134.34 76.88 133.96 C 74.87 131.34 72.80 128.89 70.10 126.95 C 69.84 127.78 69.58 128.62 69.34 129.46 C 68.80 125.59 67.00 122.27 64.70 119.18 C 63.92 118.13 63.10 117.10 62.28 116.07 C 61.70 117.38 61.13 118.69 60.56 120.01 C 59.67 115.54 58.08 111.82 55.17 108.29 L 54.93 107.99 C 53.98 109.85 53.09 111.73 52.26 113.65 C 52.28 112.48 52.26 111.30 52.22 110.13 C 51.96 108.33 51.64 106.54 51.20 104.77 C 49.47 100.09 46.22 96.83 42.84 93.31 C 43.78 89.54 44.27 85.86 43.39 82.02 C 42.44 78.16 40.36 74.77 39.46 70.88 Z" fill="#ffffff"/>
<path d="M 157.42 72.05 L 157.58 72.46 C 156.33 75.31 154.96 78.08 154.10 81.08 C 153.09 84.95 153.15 88.13 154.17 91.99 L 154.35 93.14 C 150.99 97.21 147.31 100.33 145.76 105.61 C 145.21 108.24 144.96 110.88 144.69 113.55 C 143.93 111.64 143.13 109.74 142.31 107.86 C 139.47 111.54 137.75 115.17 136.48 119.63 L 136.33 120.17 C 135.94 118.77 135.50 117.38 135.04 116.01 C 133.69 117.68 132.35 119.33 131.16 121.11 C 129.50 123.73 128.38 126.43 127.80 129.48 L 127.15 126.83 C 125.80 128.01 124.43 129.19 123.16 130.46 C 120.86 133.03 118.99 135.77 118.31 139.21 C 117.87 141.87 116.25 143.77 115.17 146.15 C 114.13 149.67 114.21 153.63 114.27 157.28 C 109.94 159.51 105.55 161.59 101.13 163.60 L 101.96 161.42 C 103.06 160.90 103.77 159.99 104.07 158.69 C 104.39 157.93 104.71 157.18 105.05 156.43 C 106.23 155.91 106.89 154.94 107.03 153.54 C 108.13 151.88 109.17 150.18 110.16 148.45 C 111.30 147.76 111.91 146.77 112.00 145.47 L 112.05 145.23 C 113.41 143.91 114.87 142.69 114.91 140.64 L 114.92 140.24 C 116.12 140.13 116.79 139.21 116.93 137.48 C 117.42 136.59 117.91 135.71 118.41 134.83 L 118.75 134.27 C 119.27 133.45 119.79 132.63 120.31 131.81 L 120.68 131.22 L 121.05 130.59 C 122.46 129.74 123.10 128.71 122.95 127.49 L 122.95 127.24 C 124.10 127.12 124.78 126.21 124.98 124.52 L 125.05 124.26 C 126.77 122.85 127.40 121.72 128.00 119.60 L 128.15 119.30 C 129.56 117.96 130.48 116.70 131.02 114.80 L 131.10 114.60 C 132.98 112.03 134.64 109.41 136.06 106.55 L 136.11 106.48 C 139.03 102.38 141.73 98.09 144.04 93.62 L 144.12 93.49 C 148.52 87.05 152.84 80.19 156.56 73.33 C 156.84 72.90 157.13 72.47 157.42 72.05 Z" fill="#ffffff"/>
<path d="M 156.56 73.33 C 152.84 80.19 148.52 87.05 144.12 93.49 C 145.26 89.12 147.97 85.99 150.20 82.18 C 152.13 79.01 153.67 75.79 156.56 73.33 Z" fill="#9d8436"/>
<path d="M 18.60 75.02 C 19.56 75.53 20.51 76.05 21.46 76.57 C 22.93 77.41 24.39 78.30 25.76 79.28 C 25.24 82.86 24.81 86.37 25.44 89.97 C 26.48 95.02 25.33 99.82 25.67 104.95 C 26.56 105.90 27.43 106.85 28.30 107.81 C 27.76 111.57 27.63 115.25 27.82 119.05 C 22.45 116.17 19.57 110.56 16.89 105.37 C 19.07 105.58 21.25 105.81 23.42 106.08 C 19.43 101.30 18.10 95.78 16.53 89.91 C 18.04 90.33 19.54 90.75 21.03 91.19 C 19.13 85.96 18.73 80.54 18.60 75.02 Z" fill="#2e8726"/>
<path d="M 79.76 75.10 C 80.39 89.20 79.89 103.38 80.02 117.50 C 73.58 111.22 69.46 103.16 70.29 93.97 C 70.93 86.46 74.75 80.49 79.76 75.10 Z" fill="#ffffff"/>
<path d="M 118.69 76.13 L 119.10 76.38 L 119.34 76.57 L 119.57 76.78 C 126.14 83.76 129.42 93.53 126.80 102.96 C 125.36 108.79 121.93 113.41 117.76 117.58 C 117.51 106.06 117.76 94.53 117.62 83.00 C 117.64 80.55 117.39 78.35 118.69 76.13 Z" fill="#ffffff"/>
<path d="M 119.10 76.38 L 119.57 76.78 L 119.34 76.57 L 119.10 76.38 Z" fill="#aa9050"/>
<path d="M 178.61 74.99 C 178.49 80.54 178.14 85.97 176.15 91.20 C 177.66 90.77 179.18 90.34 180.70 89.93 C 179.13 95.76 177.77 101.30 173.84 106.07 C 176.01 105.80 178.18 105.58 180.35 105.38 C 177.72 110.43 174.55 116.62 169.12 119.13 C 169.43 115.25 169.30 111.54 168.83 107.68 C 169.63 106.79 170.47 105.90 171.16 104.94 C 172.23 100.18 170.16 95.69 171.75 90.87 C 172.83 86.95 172.52 83.25 171.27 79.41 C 173.61 77.75 176.10 76.37 178.61 74.99 Z" fill="#2e8827"/>
<path d="M 33.73 76.84 C 36.86 78.75 39.99 80.61 43.39 82.02 C 44.27 85.86 43.78 89.54 42.84 93.31 L 42.10 92.71 C 38.75 90.31 35.26 88.03 31.55 86.20 C 31.28 88.50 31.07 90.81 30.97 93.12 C 29.94 89.71 30.03 86.77 30.89 83.35 C 31.72 81.13 32.68 78.96 33.73 76.84 Z" fill="#2a7a21"/>
<path d="M 163.48 76.75 C 164.55 78.97 165.66 81.18 166.63 83.45 C 167.24 87.01 167.01 90.46 166.17 93.96 L 165.61 92.06 C 162.11 93.32 159.27 95.31 156.57 97.83 C 155.85 95.84 154.97 93.95 154.17 91.99 C 153.15 88.13 153.09 84.95 154.10 81.08 C 157.85 80.73 160.54 78.90 163.48 76.75 Z" fill="#27711d"/>
<path d="M 25.76 79.28 C 26.83 80.08 27.87 80.89 28.90 81.73 C 29.56 82.27 30.22 82.81 30.89 83.35 C 30.03 86.77 29.94 89.71 30.97 93.12 C 31.18 93.97 31.39 94.82 31.62 95.66 C 29.67 99.07 29.06 102.88 30.23 106.67 C 31.16 107.97 32.37 109.08 33.49 110.22 C 33.21 113.45 33.00 116.68 32.86 119.92 C 31.99 119.78 31.12 119.65 30.25 119.53 L 27.82 119.05 C 27.63 115.25 27.76 111.57 28.30 107.81 C 27.43 106.85 26.56 105.90 25.67 104.95 C 25.33 99.82 26.48 95.02 25.44 89.97 C 24.81 86.37 25.24 82.86 25.76 79.28 Z" fill="#226418"/>
<path d="M 171.27 79.41 C 172.52 83.25 172.83 86.95 171.75 90.87 C 170.16 95.69 172.23 100.18 171.16 104.94 C 170.47 105.90 169.63 106.79 168.83 107.68 C 169.30 111.54 169.43 115.25 169.12 119.13 L 167.08 119.43 L 166.79 119.46 C 165.84 119.57 164.90 119.71 163.95 119.88 C 163.75 116.69 163.58 113.50 163.48 110.30 C 164.56 109.16 165.76 108.05 166.62 106.73 C 167.40 104.13 167.25 101.30 166.13 98.81 L 165.12 97.77 C 165.53 96.52 165.89 95.25 166.17 93.96 C 167.01 90.46 167.24 87.01 166.63 83.45 L 168.27 81.77 C 169.23 80.94 170.24 80.16 171.27 79.41 Z" fill="#226317"/>
<path d="M 31.55 86.20 C 35.26 88.03 38.75 90.31 42.10 92.71 C 41.01 96.48 40.11 100.19 38.38 103.73 C 36.95 106.28 36.38 107.68 36.96 110.62 C 36.41 110.95 35.86 111.28 35.31 111.61 L 36.14 112.11 L 36.18 112.63 L 36.51 112.90 L 38.11 113.89 L 38.54 115.14 C 39.12 116.51 39.83 117.86 40.53 119.19 C 40.48 117.77 40.42 116.36 40.37 114.95 C 44.08 115.13 47.66 115.55 51.31 116.26 C 50.80 117.82 50.37 119.40 50.05 121.01 C 47.03 120.45 44.39 120.30 41.36 120.85 C 40.04 120.91 38.72 120.87 37.39 120.74 C 36.24 120.54 35.10 120.31 33.96 120.11 L 32.86 119.92 C 33.00 116.68 33.21 113.45 33.49 110.22 C 32.37 109.08 31.16 107.97 30.23 106.67 C 29.06 102.88 29.67 99.07 31.62 95.66 C 31.39 94.82 31.18 93.97 30.97 93.12 C 31.07 90.81 31.28 88.50 31.55 86.20 Z" fill="#1c5210"/>
<path d="M 154.17 91.99 C 154.97 93.95 155.85 95.84 156.57 97.83 C 157.08 99.37 157.55 100.93 158.01 102.49 L 158.21 103.68 C 153.76 103.70 150.00 104.27 145.76 105.61 C 147.31 100.33 150.99 97.21 154.35 93.14 L 154.17 91.99 Z" fill="#34982d"/>
<path d="M 165.61 92.06 L 166.17 93.96 C 165.89 95.25 165.53 96.52 165.12 97.77 C 164.76 98.31 163.07 100.99 164.67 100.85 C 165.41 100.46 165.89 99.78 166.13 98.81 C 167.25 101.30 167.40 104.13 166.62 106.73 C 165.76 108.05 164.56 109.16 163.48 110.30 C 163.58 113.50 163.75 116.69 163.95 119.88 C 162.60 120.15 161.26 120.47 159.91 120.72 C 158.70 120.87 157.48 121.02 156.27 121.17 L 154.89 121.83 C 154.60 119.11 151.12 120.17 149.27 120.32 C 148.34 121.40 147.67 122.78 147.08 124.07 C 147.10 121.42 146.69 118.84 146.03 116.28 C 149.46 116.04 152.89 115.74 156.31 115.34 C 156.70 116.24 157.09 117.13 157.49 118.03 C 157.88 117.09 158.28 116.16 158.67 115.22 L 159.10 114.14 L 160.31 112.94 C 161.54 113.08 163.37 111.26 161.32 111.03 L 159.90 112.17 L 159.07 112.42 L 159.22 111.54 C 159.77 110.31 160.36 109.10 160.94 107.88 C 159.96 106.09 158.95 104.30 158.01 102.49 C 157.55 100.93 157.08 99.37 156.57 97.83 C 159.27 95.31 162.11 93.32 165.61 92.06 Z" fill="#1a4c0e"/>
<path d="M 42.10 92.71 L 42.84 93.31 C 46.22 96.83 49.47 100.09 51.20 104.77 C 47.24 104.17 43.30 103.66 39.29 103.68 L 38.38 103.73 C 40.11 100.19 41.01 96.48 42.10 92.71 Z" fill="#34992e"/>
<path d="M 144.04 93.62 C 141.73 98.09 139.03 102.38 136.11 106.48 C 137.75 101.73 140.47 97.17 144.04 93.62 Z" fill="#a1893f"/>
<path d="M 31.21 98.05 C 32.60 97.32 33.75 99.73 32.94 100.77 C 31.62 101.48 30.45 99.02 31.21 98.05 Z" fill="#39843f"/>
<path d="M 165.12 97.77 L 166.13 98.81 C 165.89 99.78 165.41 100.46 164.67 100.85 C 163.07 100.99 164.76 98.31 165.12 97.77 Z" fill="#428e4b"/>
<path d="M 57.02 98.66 C 59.72 99.12 59.95 100.91 59.86 103.28 C 58.30 101.82 57.62 100.71 57.02 98.66 Z" fill="#a69252"/>
<path d="M 158.01 102.49 C 158.95 104.30 159.96 106.09 160.94 107.88 C 160.36 109.10 159.77 110.31 159.22 111.54 C 158.95 108.91 158.60 106.30 158.21 103.68 L 158.01 102.49 Z" fill="#9bc294"/>
<path d="M 38.38 103.73 L 39.29 103.68 C 38.89 105.80 38.49 107.92 37.92 110.00 L 36.96 110.62 C 36.38 107.68 36.95 106.28 38.38 103.73 Z" fill="#9ebe96"/>
<path d="M 39.29 103.68 C 43.30 103.66 47.24 104.17 51.20 104.77 C 51.64 106.54 51.96 108.33 52.22 110.13 C 47.99 109.54 43.79 109.15 39.52 109.08 C 39.18 111.10 38.84 113.11 38.54 115.14 L 38.11 113.89 C 38.26 112.82 37.78 112.26 36.68 112.23 L 36.14 112.11 L 35.31 111.61 C 35.86 111.28 36.41 110.95 36.96 110.62 L 37.92 110.00 C 38.49 107.92 38.89 105.80 39.29 103.68 Z" fill="#2b7f23"/>
<path d="M 60.02 103.57 C 62.71 104.59 63.02 105.53 62.86 108.30 C 61.24 106.81 60.60 105.70 60.02 103.57 Z" fill="#a79251"/>
<path d="M 158.21 103.68 C 158.60 106.30 158.95 108.91 159.22 111.54 L 159.07 112.42 L 159.10 114.14 L 158.67 115.22 C 158.33 113.25 157.97 111.29 157.61 109.33 C 154.02 109.60 150.06 109.47 146.63 110.63 C 144.75 112.42 145.60 114.11 146.03 116.28 C 146.69 118.84 147.10 121.42 147.08 124.07 C 146.97 125.16 146.85 126.25 146.74 127.34 L 146.25 128.37 L 146.20 126.01 C 146.08 124.01 145.90 122.01 145.72 120.00 C 142.59 120.45 139.80 120.14 137.51 122.73 C 137.16 121.69 136.81 120.66 136.48 119.63 C 137.75 115.17 139.47 111.54 142.31 107.86 C 143.13 109.74 143.93 111.64 144.69 113.55 C 144.96 110.88 145.21 108.24 145.76 105.61 C 150.00 104.27 153.76 103.70 158.21 103.68 Z" fill="#2c8224"/>
<path d="M 136.06 106.55 C 134.64 109.41 132.98 112.03 131.10 114.60 C 132.14 110.95 133.29 109.11 136.06 106.55 Z" fill="#a28a3e"/>
<path d="M 54.93 107.99 L 55.17 108.29 C 58.08 111.82 59.67 115.54 60.56 120.01 C 61.13 118.69 61.70 117.38 62.28 116.07 C 63.10 117.10 63.92 118.13 64.70 119.18 C 63.09 123.44 63.61 127.57 63.61 132.00 C 63.66 135.89 63.59 139.78 63.45 143.67 C 63.10 143.30 62.76 142.92 62.42 142.54 C 61.27 140.24 60.04 137.98 58.90 135.67 C 58.01 132.96 57.76 130.51 58.09 127.66 C 58.37 125.48 58.72 123.32 59.02 121.15 C 56.51 120.45 54.04 119.87 51.41 120.02 C 50.92 121.78 50.48 123.54 50.13 125.34 C 50.09 123.90 50.06 122.45 50.05 121.01 C 50.37 119.40 50.80 117.82 51.31 116.26 C 51.62 115.39 51.94 114.52 52.26 113.65 C 53.09 111.73 53.98 109.85 54.93 107.99 Z" fill="#2e8726"/>
<path d="M 39.52 109.08 C 43.79 109.15 47.99 109.54 52.22 110.13 C 52.26 111.30 52.28 112.48 52.26 113.65 C 51.94 114.52 51.62 115.39 51.31 116.26 C 47.66 115.55 44.08 115.13 40.37 114.95 C 40.42 116.36 40.48 117.77 40.53 119.19 C 39.83 117.86 39.12 116.51 38.54 115.14 C 38.84 113.11 39.18 111.10 39.52 109.08 Z" fill="#246819"/>
<path d="M 63.02 108.58 C 65.71 109.58 65.99 110.54 65.90 113.29 C 64.23 111.84 63.60 110.70 63.02 108.58 Z" fill="#a79250"/>
<path d="M 157.61 109.33 C 157.97 111.29 158.33 113.25 158.67 115.22 C 158.28 116.16 157.88 117.09 157.49 118.03 C 157.09 117.13 156.70 116.24 156.31 115.34 C 152.89 115.74 149.46 116.04 146.03 116.28 C 145.60 114.11 144.75 112.42 146.63 110.63 C 150.06 109.47 154.02 109.60 157.61 109.33 Z" fill="#236619"/>
<path d="M 161.32 111.03 C 163.37 111.26 161.54 113.08 160.31 112.94 L 159.90 112.17 L 161.32 111.03 Z" fill="#558c4f"/>
<path d="M 36.14 112.11 L 36.68 112.23 L 36.51 112.90 L 36.18 112.63 L 36.14 112.11 Z" fill="#7eb883"/>
<path d="M 36.68 112.23 C 37.78 112.26 38.26 112.82 38.11 113.89 L 36.51 112.90 L 36.68 112.23 Z" fill="#8c890e"/>
<path d="M 159.07 112.42 L 159.90 112.17 L 160.31 112.94 L 159.10 114.14 L 159.07 112.42 Z" fill="#938f0a"/>
<path d="M 66.01 113.68 C 68.71 114.17 68.92 115.89 68.89 118.27 C 67.46 116.95 66.42 115.62 66.01 113.68 Z" fill="#a9934f"/>
<path d="M 131.02 114.80 C 130.48 116.70 129.56 117.96 128.15 119.30 C 128.01 116.90 128.28 115.16 131.02 114.80 Z" fill="#a28b44"/>
<path d="M 135.04 116.01 C 135.50 117.38 135.94 118.77 136.33 120.17 C 135.19 126.59 135.38 133.04 136.34 139.47 C 135.23 141.39 134.08 143.28 132.81 145.11 L 132.36 145.48 C 132.44 141.66 132.27 137.83 132.32 134.00 C 132.31 129.53 132.88 125.39 131.16 121.11 C 132.35 119.33 133.69 117.68 135.04 116.01 Z" fill="#27721e"/>
<path d="M 30.25 119.53 C 31.12 119.65 31.99 119.78 32.86 119.92 L 33.96 120.11 C 33.27 120.75 32.59 121.39 31.92 122.05 C 31.61 125.02 32.40 127.61 29.93 129.80 C 26.59 127.24 23.83 124.14 21.19 120.89 C 24.20 120.39 27.22 119.90 30.25 119.53 Z" fill="#2f8b28"/>
<path d="M 69.02 118.70 C 71.57 119.24 72.30 120.89 71.70 123.32 C 70.53 121.90 69.47 120.52 69.02 118.70 Z" fill="#aa934e"/>
<path d="M 166.79 119.46 L 167.08 119.43 C 170.06 119.93 173.04 120.43 176.02 120.91 C 172.29 125.31 168.71 129.66 163.28 132.02 C 162.40 131.39 161.52 130.76 160.63 130.13 C 160.45 127.20 160.19 124.27 159.94 121.34 L 159.91 120.72 C 161.26 120.47 162.60 120.15 163.95 119.88 C 164.90 119.71 165.84 119.57 166.79 119.46 Z" fill="#2a7c22"/>
<path d="M 33.96 120.11 C 35.10 120.31 36.24 120.54 37.39 120.74 L 37.33 121.66 C 37.13 124.34 37.16 127.08 36.73 129.73 C 35.95 130.61 34.99 131.35 34.10 132.11 C 32.67 131.42 31.27 130.66 29.93 129.80 C 32.40 127.61 31.61 125.02 31.92 122.05 C 32.59 121.39 33.27 120.75 33.96 120.11 Z" fill="#266f1c"/>
<path d="M 50.05 121.01 C 50.06 122.45 50.09 123.90 50.13 125.34 C 50.12 126.09 50.11 126.84 50.10 127.59 C 50.05 128.83 49.99 130.07 49.92 131.30 L 47.85 131.49 C 46.02 131.71 44.19 131.96 42.36 132.13 L 41.26 132.14 C 41.80 129.65 42.32 127.16 42.96 124.69 L 44.10 124.57 C 43.19 123.33 42.27 122.09 41.36 120.85 C 44.39 120.30 47.03 120.45 50.05 121.01 Z" fill="#153c07"/>
<path d="M 51.41 120.02 C 54.04 119.87 56.51 120.45 59.02 121.15 C 58.72 123.32 58.37 125.48 58.09 127.66 C 55.27 127.44 52.97 125.82 51.34 129.11 C 50.93 128.60 50.52 128.09 50.10 127.59 C 50.11 126.84 50.12 126.09 50.13 125.34 C 50.48 123.54 50.92 121.78 51.41 120.02 Z" fill="#246a1a"/>
<path d="M 64.70 119.18 C 67.00 122.27 68.80 125.59 69.34 129.46 C 68.34 133.31 68.04 137.21 67.59 141.14 C 67.14 142.93 66.63 144.70 66.11 146.47 C 65.20 145.56 64.32 144.62 63.45 143.67 C 63.59 139.78 63.66 135.89 63.61 132.00 C 63.61 127.57 63.09 123.44 64.70 119.18 Z" fill="#1c5110"/>
<path d="M 123.22 120.17 C 115.02 133.54 106.79 146.88 98.59 160.25 C 90.45 147.10 82.76 133.68 74.75 120.45 C 78.47 123.46 82.08 126.35 86.61 128.02 C 94.88 131.54 105.46 131.23 113.47 127.06 C 117.19 125.38 120.17 122.83 123.22 120.17 Z" fill="#ffffff"/>
<path d="M 128.00 119.60 C 127.40 121.72 126.77 122.85 125.05 124.26 C 125.02 121.52 125.31 120.58 128.00 119.60 Z" fill="#a69252"/>
<path d="M 136.33 120.17 L 136.48 119.63 C 136.81 120.66 137.16 121.69 137.51 122.73 C 138.04 124.20 138.60 125.66 139.10 127.14 C 139.27 129.99 138.92 132.77 138.53 135.59 C 137.83 136.90 137.09 138.19 136.34 139.47 C 135.38 133.04 135.19 126.59 136.33 120.17 Z" fill="#359c2f"/>
<path d="M 145.72 120.00 C 145.90 122.01 146.08 124.01 146.20 126.01 C 143.83 126.38 141.47 126.75 139.10 127.14 C 138.60 125.66 138.04 124.20 137.51 122.73 C 139.80 120.14 142.59 120.45 145.72 120.00 Z" fill="#256b1b"/>
<path d="M 149.27 120.32 C 151.12 120.17 154.60 119.11 154.89 121.83 L 154.15 124.83 C 154.62 127.30 155.27 129.73 155.88 132.16 L 154.77 132.16 C 152.99 131.97 151.22 131.69 149.44 131.51 L 147.25 131.31 C 147.07 129.99 146.90 128.67 146.74 127.34 C 146.85 126.25 146.97 125.16 147.08 124.07 C 147.67 122.78 148.34 121.40 149.27 120.32 Z" fill="#174008"/>
<path d="M 37.39 120.74 C 38.72 120.87 40.04 120.91 41.36 120.85 C 42.27 122.09 43.19 123.33 44.10 124.57 L 42.96 124.69 C 41.09 123.67 39.24 122.61 37.33 121.66 L 37.39 120.74 Z" fill="#a2c092"/>
<path d="M 156.27 121.17 C 157.48 121.02 158.70 120.87 159.91 120.72 L 159.94 121.34 C 157.99 122.47 156.04 123.61 154.15 124.83 L 154.89 121.83 L 156.27 121.17 Z" fill="#c3dcc4"/>
<path d="M 37.33 121.66 C 39.24 122.61 41.09 123.67 42.96 124.69 C 42.32 127.16 41.80 129.65 41.26 132.14 L 39.38 132.18 C 38.08 132.21 36.78 132.25 35.48 132.28 L 34.10 132.11 C 34.99 131.35 35.95 130.61 36.73 129.73 C 37.16 127.08 37.13 124.34 37.33 121.66 Z" fill="#1e5913"/>
<path d="M 131.16 121.11 C 132.88 125.39 132.31 129.53 132.32 134.00 C 132.27 137.83 132.44 141.66 132.36 145.48 L 131.08 146.55 C 130.58 144.75 130.10 142.94 129.69 141.11 C 129.16 137.21 128.79 133.31 127.80 129.48 C 128.38 126.43 129.50 123.73 131.16 121.11 Z" fill="#194a0d"/>
<path d="M 159.94 121.34 C 160.19 124.27 160.45 127.20 160.63 130.13 C 161.52 130.76 162.40 131.39 163.28 132.02 L 161.66 132.18 L 160.66 132.20 C 159.06 132.20 157.47 132.17 155.88 132.16 C 155.27 129.73 154.62 127.30 154.15 124.83 C 156.04 123.61 157.99 122.47 159.94 121.34 Z" fill="#1e5813"/>
<path d="M 43.94 124.90 C 45.52 124.34 46.61 126.74 46.86 127.98 C 45.54 127.66 43.41 126.55 43.94 124.90 Z" fill="#58730c"/>
<path d="M 124.98 124.52 C 124.78 126.21 124.10 127.12 122.95 127.24 C 122.82 125.98 123.50 125.07 124.98 124.52 Z" fill="#a5904e"/>
<path d="M 146.20 126.01 L 146.25 128.37 C 144.77 131.42 143.01 134.34 141.32 137.28 C 140.71 137.96 140.10 138.64 139.50 139.32 C 139.17 138.08 138.85 136.83 138.53 135.59 C 138.92 132.77 139.27 129.99 139.10 127.14 C 141.47 126.75 143.83 126.38 146.20 126.01 Z" fill="#1b4f0f"/>
<path d="M 58.09 127.66 C 57.76 130.51 58.01 132.96 58.90 135.67 C 58.47 136.88 58.05 138.08 57.63 139.29 C 57.13 138.72 56.63 138.15 56.12 137.58 C 54.44 134.81 52.93 131.94 51.34 129.11 C 52.97 125.82 55.27 127.44 58.09 127.66 Z" fill="#1b4f0f"/>
<path d="M 70.10 126.95 C 72.80 128.89 74.87 131.34 76.88 133.96 C 77.16 134.34 77.63 134.45 78.29 134.30 C 78.80 135.20 79.31 136.10 79.83 136.99 C 79.36 137.23 78.89 137.46 78.43 137.71 C 78.98 139.69 79.46 141.62 80.54 143.39 C 79.05 146.91 79.58 150.33 79.45 154.02 C 79.46 154.86 79.17 155.67 78.57 156.44 C 77.77 155.84 76.93 155.39 76.04 155.11 C 76.10 154.13 76.08 153.26 75.81 152.32 C 72.62 148.85 69.81 145.32 67.59 141.14 C 68.04 137.21 68.34 133.31 69.34 129.46 C 69.58 128.62 69.84 127.78 70.10 126.95 Z" fill="#297c21"/>
<path d="M 113.47 127.06 C 105.46 131.23 94.88 131.54 86.61 128.02 C 90.08 128.42 93.53 129.05 97.00 129.42 C 102.54 130.00 107.91 128.04 113.47 127.06 Z" fill="#a88736"/>
<path d="M 50.10 127.59 C 50.52 128.09 50.93 128.60 51.34 129.11 C 52.93 131.94 54.44 134.81 56.12 137.58 C 53.87 135.65 51.88 133.53 49.92 131.30 C 49.99 130.07 50.05 128.83 50.10 127.59 Z" fill="#b9c6a0"/>
<path d="M 122.95 127.49 C 123.10 128.71 122.46 129.74 121.05 130.59 C 121.11 128.90 121.75 127.86 122.95 127.49 Z" fill="#a38839"/>
<path d="M 127.15 126.83 L 127.80 129.48 C 128.79 133.31 129.16 137.21 129.69 141.11 C 127.50 145.27 124.67 148.88 121.49 152.32 C 120.87 152.59 120.25 152.85 119.63 153.12 C 119.35 148.72 119.34 144.36 119.57 139.96 C 120.89 138.92 122.22 137.90 123.54 136.87 C 123.43 134.73 123.30 132.60 123.16 130.46 C 124.43 129.19 125.80 128.01 127.15 126.83 Z" fill="#2d8826"/>
<path d="M 146.25 128.37 L 146.74 127.34 C 146.90 128.67 147.07 129.99 147.25 131.31 C 145.38 133.42 143.51 135.48 141.32 137.28 C 143.01 134.34 144.77 131.42 146.25 128.37 Z" fill="#c5d3ae"/>
<path d="M 47.85 131.49 C 49.01 133.06 50.17 134.64 51.40 136.17 C 50.14 135.57 48.87 134.98 47.60 134.41 C 45.86 133.63 44.12 132.86 42.36 132.13 C 44.19 131.96 46.02 131.71 47.85 131.49 Z" fill="#bdc6ab"/>
<path d="M 47.85 131.49 L 49.92 131.30 C 51.88 133.53 53.87 135.65 56.12 137.58 C 56.63 138.15 57.13 138.72 57.63 139.29 C 59.02 140.80 60.29 142.25 62.29 142.96 L 62.42 142.54 C 62.76 142.92 63.10 143.30 63.45 143.67 C 64.32 144.62 65.20 145.56 66.11 146.47 C 68.08 148.12 70.19 149.62 72.29 151.10 C 70.55 150.58 68.80 150.12 67.04 149.66 C 65.62 148.65 64.29 147.53 63.01 146.35 C 62.82 145.78 62.64 145.21 62.47 144.64 L 62.42 144.45 L 62.43 144.11 C 60.90 143.74 59.38 143.37 57.85 143.02 C 57.65 142.35 57.42 141.69 57.18 141.03 L 57.66 140.03 C 55.58 138.73 53.49 137.44 51.40 136.17 C 50.17 134.64 49.01 133.06 47.85 131.49 Z" fill="#b59519"/>
<path d="M 120.68 131.22 L 120.31 131.81 L 120.68 131.22 Z" fill="#928659"/>
<path d="M 123.16 130.46 C 123.30 132.60 123.43 134.73 123.54 136.87 C 122.22 137.90 120.89 138.92 119.57 139.96 C 119.34 144.36 119.35 148.72 119.63 153.12 C 120.25 152.85 120.87 152.59 121.49 152.32 C 122.58 151.91 123.69 151.51 124.79 151.12 C 126.55 150.60 128.33 150.15 130.11 149.69 C 131.16 149.48 132.22 149.29 133.28 149.11 C 135.45 151.66 134.68 154.99 134.60 158.10 C 132.20 157.20 129.81 156.38 127.27 156.05 C 125.55 155.79 123.82 155.54 122.11 155.22 L 121.45 154.93 L 120.30 153.94 C 118.81 155.30 117.32 156.65 115.82 157.99 C 117.26 157.66 118.70 157.33 120.16 157.05 L 121.97 156.63 C 122.71 158.86 123.42 161.10 123.98 163.38 C 120.43 162.75 117.54 160.92 114.34 159.42 L 114.27 157.28 C 114.21 153.63 114.13 149.67 115.17 146.15 C 116.25 143.77 117.87 141.87 118.31 139.21 C 118.99 135.77 120.86 133.03 123.16 130.46 Z" fill="#1c5110"/>
<path d="M 147.25 131.31 L 149.44 131.51 C 148.15 133.03 146.99 134.64 145.73 136.19 C 143.97 137.24 142.24 138.27 140.60 139.51 L 139.96 141.02 C 139.67 141.67 139.43 142.34 139.25 143.03 C 137.62 143.40 136.00 143.82 134.38 144.22 L 134.94 145.79 C 133.38 147.13 131.79 148.51 130.11 149.69 C 128.33 150.15 126.55 150.60 124.79 151.12 C 126.95 149.68 129.03 148.14 131.08 146.55 L 132.36 145.48 L 132.81 145.11 C 135.20 143.34 137.56 141.60 139.50 139.32 C 140.10 138.64 140.71 137.96 141.32 137.28 C 143.51 135.48 145.38 133.42 147.25 131.31 Z" fill="#b39219"/>
<path d="M 149.44 131.51 C 151.22 131.69 152.99 131.97 154.77 132.16 C 153.95 132.51 153.13 132.87 152.31 133.23 C 150.13 134.23 147.92 135.19 145.73 136.19 C 146.99 134.64 148.15 133.03 149.44 131.51 Z" fill="#b7c4ae"/>
<path d="M 35.48 132.28 C 36.78 132.25 38.08 132.21 39.38 132.18 C 39.52 135.31 39.94 138.36 40.38 141.46 C 42.10 141.36 43.82 141.26 45.55 141.16 C 45.23 144.19 44.90 147.21 44.56 150.24 C 43.54 150.77 42.51 151.30 41.48 151.83 L 41.14 151.67 C 38.31 150.40 35.38 149.35 32.52 148.14 C 33.15 147.61 33.79 147.09 34.43 146.58 L 35.85 145.59 C 37.29 144.63 38.75 143.71 40.22 142.80 C 35.75 140.23 31.62 137.19 27.59 134.00 C 30.20 133.36 32.82 132.73 35.48 132.28 Z" fill="#2e8626"/>
<path d="M 39.38 132.18 L 41.26 132.14 L 42.36 132.13 C 44.12 132.86 45.86 133.63 47.60 134.41 C 47.38 136.17 47.16 137.92 46.97 139.67 C 49.31 140.37 51.62 141.02 54.09 141.04 L 53.77 141.43 C 51.39 143.75 51.73 145.54 52.19 148.61 L 54.02 149.15 C 52.73 149.63 51.45 150.17 50.19 150.71 C 48.31 151.54 46.47 152.38 44.71 153.43 C 43.64 152.89 42.56 152.36 41.48 151.83 C 42.51 151.30 43.54 150.77 44.56 150.24 C 44.90 147.21 45.23 144.19 45.55 141.16 C 43.82 141.26 42.10 141.36 40.38 141.46 C 39.94 138.36 39.52 135.31 39.38 132.18 Z" fill="#236719"/>
<path d="M 77.67 133.06 L 77.90 133.40 L 78.03 133.72 L 77.67 133.06 Z" fill="#978856"/>
<path d="M 92.69 131.28 C 94.17 131.28 95.64 131.28 97.11 131.28 C 97.10 135.29 97.11 139.30 97.13 143.31 C 99.69 143.30 102.26 143.30 104.83 143.30 C 104.81 144.60 104.79 145.89 104.76 147.18 C 100.74 147.17 96.72 147.17 92.70 147.16 C 92.69 141.87 92.69 136.57 92.69 131.28 Z" fill="#cf9800"/>
<path d="M 154.77 132.16 L 155.88 132.16 C 157.47 132.17 159.06 132.20 160.66 132.20 C 160.07 135.13 159.92 138.09 159.83 141.08 C 158.85 141.66 157.86 142.21 156.86 142.76 C 156.75 145.54 156.75 148.32 156.79 151.10 C 154.80 151.63 152.78 152.03 150.75 152.43 C 150.08 152.01 149.39 151.60 148.70 151.20 C 148.68 148.35 148.65 145.50 148.60 142.65 C 147.38 142.29 146.16 141.94 144.94 141.58 C 147.61 140.86 150.29 140.16 152.98 139.51 C 153.08 137.31 152.84 135.37 152.31 133.23 C 153.13 132.87 153.95 132.51 154.77 132.16 Z" fill="#28771f"/>
<path d="M 160.66 132.20 L 161.66 132.18 C 164.34 132.69 167.01 133.36 169.67 134.00 C 166.46 136.48 163.30 138.96 159.83 141.08 C 159.92 138.09 160.07 135.13 160.66 132.20 Z" fill="#308c28"/>
<path d="M 118.75 134.27 L 118.41 134.83 L 118.75 134.27 Z" fill="#8b783b"/>
<path d="M 152.31 133.23 C 152.84 135.37 153.08 137.31 152.98 139.51 C 150.29 140.16 147.61 140.86 144.94 141.58 C 146.16 141.94 147.38 142.29 148.60 142.65 C 148.65 145.50 148.68 148.35 148.70 151.20 L 146.69 150.25 C 144.70 149.54 142.67 149.08 140.60 148.68 C 140.19 148.60 139.77 148.53 139.36 148.45 L 139.10 148.41 C 137.70 147.56 136.32 146.68 134.94 145.79 L 134.38 144.22 C 136.00 143.82 137.62 143.40 139.25 143.03 C 140.68 142.74 142.06 142.36 143.31 141.56 C 142.24 140.92 141.13 140.74 139.96 141.02 L 140.60 139.51 C 142.24 138.27 143.97 137.24 145.73 136.19 C 147.92 135.19 150.13 134.23 152.31 133.23 Z" fill="#1c5210"/>
<path d="M 47.60 134.41 C 48.87 134.98 50.14 135.57 51.40 136.17 C 53.49 137.44 55.58 138.73 57.66 140.03 L 57.18 141.03 C 56.15 140.98 55.12 140.99 54.09 141.04 C 51.62 141.02 49.31 140.37 46.97 139.67 C 47.16 137.92 47.38 136.17 47.60 134.41 Z" fill="#194a0d"/>
<path d="M 173.59 134.01 C 171.44 141.98 168.95 149.87 166.58 157.78 C 166.36 159.15 165.44 160.04 166.90 161.03 C 171.43 164.65 176.30 167.82 180.71 171.60 C 172.89 174.11 165.05 176.57 157.25 179.14 L 156.65 177.33 C 159.83 176.38 162.99 175.39 166.14 174.37 C 169.78 173.21 173.43 172.08 177.05 170.83 C 172.60 167.57 168.17 164.29 163.79 160.94 C 165.97 153.55 168.32 146.20 170.33 138.75 C 167.31 140.99 164.34 143.30 161.40 145.63 C 160.82 145.23 160.24 144.83 159.65 144.45 C 164.51 141.25 168.82 137.36 173.59 134.01 Z" fill="#967e42"/>
<path d="M 58.90 135.67 C 60.04 137.98 61.27 140.24 62.42 142.54 L 62.29 142.96 C 60.29 142.25 59.02 140.80 57.63 139.29 C 58.05 138.08 58.47 136.88 58.90 135.67 Z" fill="#d2e2ca"/>
<path d="M 138.53 135.59 C 138.85 136.83 139.17 138.08 139.50 139.32 C 137.56 141.60 135.20 143.34 132.81 145.11 C 134.08 143.28 135.23 141.39 136.34 139.47 C 137.09 138.19 137.83 136.90 138.53 135.59 Z" fill="#c3dbbb"/>
<path d="M 23.51 136.07 C 27.70 139.14 31.77 142.39 35.85 145.59 L 34.43 146.58 C 31.82 144.70 29.31 142.68 26.72 140.76 C 28.73 148.23 31.11 155.59 33.26 163.02 C 28.88 166.35 24.44 169.60 20.05 172.92 C 23.86 174.21 27.70 175.39 31.53 176.61 C 35.31 177.84 39.10 179.03 42.90 180.16 C 42.79 180.79 42.68 181.43 42.57 182.06 C 33.86 179.18 25.09 176.45 16.36 173.62 C 21.17 169.77 26.16 166.14 31.13 162.50 C 28.85 153.62 25.83 144.94 23.51 136.07 Z" fill="#93793c"/>
<path d="M 79.83 136.99 C 85.25 145.67 90.42 154.54 95.67 163.34 C 91.35 161.48 87.14 159.39 82.93 157.30 C 82.94 152.80 83.36 147.17 80.54 143.39 C 79.46 141.62 78.98 139.69 78.43 137.71 C 78.89 137.46 79.36 137.23 79.83 136.99 Z" fill="#ffffff"/>
<path d="M 116.93 137.48 C 116.79 139.21 116.12 140.13 114.92 140.24 C 114.83 139.00 115.50 138.08 116.93 137.48 Z" fill="#a99555"/>
<path d="M 170.33 138.75 C 168.32 146.20 165.97 153.55 163.79 160.94 C 168.17 164.29 172.60 167.57 177.05 170.83 C 173.43 172.08 169.78 173.21 166.14 174.37 C 163.52 166.46 159.47 158.98 157.60 150.87 C 160.08 150.10 162.49 149.15 164.91 148.23 C 163.74 147.36 162.58 146.49 161.40 145.63 C 164.34 143.30 167.31 140.99 170.33 138.75 Z" fill="#f9f9f9"/>
<path d="M 26.72 140.76 C 29.31 142.68 31.82 144.70 34.43 146.58 C 33.79 147.09 33.15 147.61 32.52 148.14 C 35.38 149.35 38.31 150.40 41.14 151.67 C 37.75 159.91 34.61 168.24 31.53 176.61 C 27.70 175.39 23.86 174.21 20.05 172.92 C 24.44 169.60 28.88 166.35 33.26 163.02 C 31.11 155.59 28.73 148.23 26.72 140.76 Z" fill="#f9f9f9"/>
<path d="M 54.09 141.04 C 55.12 140.99 56.15 140.98 57.18 141.03 C 57.42 141.69 57.65 142.35 57.85 143.02 C 56.38 142.73 54.99 142.35 53.77 141.43 L 54.09 141.04 Z" fill="#a9be9f"/>
<path d="M 114.91 140.64 C 114.87 142.69 113.41 143.91 112.05 145.23 C 112.12 142.90 112.35 141.28 114.91 140.64 Z" fill="#aa9552"/>
<path d="M 139.96 141.02 C 141.13 140.74 142.24 140.92 143.31 141.56 C 142.06 142.36 140.68 142.74 139.25 143.03 C 139.43 142.34 139.67 141.67 139.96 141.02 Z" fill="#b0be9c"/>
<path d="M 53.77 141.43 C 54.99 142.35 56.38 142.73 57.85 143.02 C 59.38 143.37 60.90 143.74 62.43 144.11 L 62.42 144.45 C 62.38 144.91 62.34 145.36 62.29 145.82 C 60.92 146.66 59.57 147.51 58.21 148.36 C 56.82 148.61 55.42 148.88 54.02 149.15 L 52.19 148.61 C 51.73 145.54 51.39 143.75 53.77 141.43 Z" fill="#1a4a0d"/>
<path d="M 67.59 141.14 C 69.81 145.32 72.62 148.85 75.81 152.32 C 74.64 151.92 73.46 151.51 72.29 151.10 C 70.19 149.62 68.08 148.12 66.11 146.47 C 66.63 144.70 67.14 142.93 67.59 141.14 Z" fill="#dfead7"/>
<path d="M 129.69 141.11 C 130.10 142.94 130.58 144.75 131.08 146.55 C 129.03 148.14 126.95 149.68 124.79 151.12 C 123.69 151.51 122.58 151.91 121.49 152.32 C 124.67 148.88 127.50 145.27 129.69 141.11 Z" fill="#e4efe0"/>
<path d="M 156.86 142.76 C 157.80 143.31 158.73 143.88 159.65 144.45 C 160.24 144.83 160.82 145.23 161.40 145.63 C 162.58 146.49 163.74 147.36 164.91 148.23 C 162.49 149.15 160.08 150.10 157.60 150.87 L 156.79 151.10 C 156.75 148.32 156.75 145.54 156.86 142.76 Z" fill="#32932b"/>
<path d="M 62.42 144.45 L 62.47 144.64 C 62.64 145.21 62.82 145.78 63.01 146.35 C 64.29 147.53 65.62 148.65 67.04 149.66 L 65.84 149.45 C 63.86 149.16 61.86 148.93 59.88 148.61 L 58.21 148.36 C 59.57 147.51 60.92 146.66 62.29 145.82 C 62.34 145.36 62.38 144.91 62.42 144.45 Z" fill="#aebd9a"/>
<path d="M 80.54 143.39 C 83.36 147.17 82.94 152.80 82.93 157.30 L 82.83 159.38 C 80.65 160.35 78.60 161.59 76.44 162.61 C 76.39 160.69 76.35 158.77 76.32 156.84 C 77.46 157.07 78.21 156.93 78.57 156.44 C 79.17 155.67 79.46 154.86 79.45 154.02 C 79.58 150.33 79.05 146.91 80.54 143.39 Z" fill="#163f08"/>
<path d="M 112.00 145.47 C 111.91 146.77 111.30 147.76 110.16 148.45 C 109.90 146.88 110.52 145.89 112.00 145.47 Z" fill="#a9924d"/>
<path d="M 134.94 145.79 C 136.32 146.68 137.70 147.56 139.10 148.41 C 137.16 148.62 135.21 148.86 133.28 149.11 C 132.22 149.29 131.16 149.48 130.11 149.69 C 131.79 148.51 133.38 147.13 134.94 145.79 Z" fill="#b4c9ad"/>
<path d="M 58.21 148.36 L 59.88 148.61 C 59.70 152.72 59.67 156.82 59.75 160.93 C 55.58 160.66 51.96 158.60 47.87 158.19 L 48.10 157.81 C 51.12 155.77 50.16 153.87 50.19 150.71 C 51.45 150.17 52.73 149.63 54.02 149.15 C 55.42 148.88 56.82 148.61 58.21 148.36 Z" fill="#2a7b21"/>
<path d="M 139.10 148.41 L 139.36 148.45 C 139.77 148.53 140.19 148.60 140.60 148.68 C 139.94 152.90 138.71 156.65 141.97 160.15 C 139.39 160.74 136.78 160.94 134.15 161.21 C 134.31 160.17 134.48 159.14 134.60 158.10 C 134.68 154.99 135.45 151.66 133.28 149.11 C 135.21 148.86 137.16 148.62 139.10 148.41 Z" fill="#256b1b"/>
<path d="M 59.88 148.61 C 61.86 148.93 63.86 149.16 65.84 149.45 C 65.61 151.41 65.38 153.35 65.29 155.32 L 66.83 156.04 L 67.30 156.50 C 65.52 157.34 63.74 158.20 61.96 159.05 C 62.34 159.76 62.73 160.47 63.12 161.17 C 61.99 161.09 60.87 161.01 59.75 160.93 C 59.67 156.82 59.70 152.72 59.88 148.61 Z" fill="#216117"/>
<path d="M 140.60 148.68 C 142.67 149.08 144.70 149.54 146.69 150.25 C 146.10 153.15 145.86 155.95 145.88 158.91 C 144.58 159.33 143.28 159.76 141.97 160.15 C 138.71 156.65 139.94 152.90 140.60 148.68 Z" fill="#2b7f23"/>
<path d="M 65.84 149.45 L 67.04 149.66 C 68.80 150.12 70.55 150.58 72.29 151.10 C 73.46 151.51 74.64 151.92 75.81 152.32 C 76.08 153.26 76.10 154.13 76.04 155.11 L 74.89 155.82 C 72.20 155.78 69.52 155.92 66.83 156.04 L 65.29 155.32 C 65.38 153.35 65.61 151.41 65.84 149.45 Z" fill="#19470c"/>
<path d="M 50.19 150.71 C 50.16 153.87 51.12 155.77 48.10 157.81 L 47.12 157.32 C 45.67 156.53 44.23 155.73 42.79 154.92 C 43.42 154.42 44.07 153.92 44.71 153.43 C 46.47 152.38 48.31 151.54 50.19 150.71 Z" fill="#34982d"/>
<path d="M 146.69 150.25 L 148.70 151.20 C 149.39 151.60 150.08 152.01 150.75 152.43 C 152.01 153.23 153.24 154.06 154.47 154.88 C 153.56 155.40 152.65 155.93 151.74 156.46 C 151.13 156.83 150.52 157.21 149.92 157.59 C 148.57 158.03 147.23 158.47 145.88 158.91 C 145.86 155.95 146.10 153.15 146.69 150.25 Z" fill="#32942b"/>
<path d="M 156.79 151.10 L 157.60 150.87 C 159.47 158.98 163.52 166.46 166.14 174.37 C 162.99 175.39 159.83 176.38 156.65 177.33 C 155.47 173.68 153.65 170.28 152.46 166.65 C 152.02 163.99 152.01 161.31 151.33 158.68 C 151.46 157.94 151.60 157.20 151.74 156.46 C 152.65 155.93 153.56 155.40 154.47 154.88 C 153.24 154.06 152.01 153.23 150.75 152.43 C 152.78 152.03 154.80 151.63 156.79 151.10 Z" fill="#e9e9e9"/>
<path d="M 41.14 151.67 L 41.48 151.83 C 42.56 152.36 43.64 152.89 44.71 153.43 C 44.07 153.92 43.42 154.42 42.79 154.92 C 44.23 155.73 45.67 156.53 47.12 157.32 L 45.62 157.89 C 45.21 165.48 44.53 172.71 42.90 180.16 C 39.10 179.03 35.31 177.84 31.53 176.61 C 34.61 168.24 37.75 159.91 41.14 151.67 Z" fill="#e8e8e8"/>
<path d="M 107.03 153.54 C 106.89 154.94 106.23 155.91 105.05 156.43 C 104.92 154.88 105.58 153.92 107.03 153.54 Z" fill="#ab9146"/>
<path d="M 120.30 153.94 L 121.45 154.93 C 120.44 155.50 120.01 156.21 120.16 157.05 C 118.70 157.33 117.26 157.66 115.82 157.99 C 117.32 156.65 118.81 155.30 120.30 153.94 Z" fill="#968511"/>
<path d="M 76.04 155.11 C 76.93 155.39 77.77 155.84 78.57 156.44 C 78.21 156.93 77.46 157.07 76.32 156.84 L 75.37 156.42 L 74.89 155.82 L 76.04 155.11 Z" fill="#88ae7a"/>
<path d="M 121.45 154.93 L 122.11 155.22 L 121.97 156.63 L 120.16 157.05 C 120.01 156.21 120.44 155.50 121.45 154.93 Z" fill="#8db584"/>
<path d="M 122.11 155.22 C 123.82 155.54 125.55 155.79 127.27 156.05 C 127.62 158.23 128.08 160.39 128.51 162.56 C 127.54 162.82 126.57 163.07 125.60 163.32 L 124.75 163.52 L 123.98 163.38 C 123.42 161.10 122.71 158.86 121.97 156.63 L 122.11 155.22 Z" fill="#256c1b"/>
<path d="M 66.83 156.04 C 69.52 155.92 72.20 155.78 74.89 155.82 L 75.37 156.42 C 74.37 156.73 73.37 157.05 72.37 157.38 C 71.91 159.39 71.45 161.39 71.00 163.39 C 69.79 162.96 68.57 162.53 67.34 162.16 C 67.55 160.26 67.67 158.40 67.30 156.50 L 66.83 156.04 Z" fill="#287720"/>
<path d="M 127.27 156.05 C 129.81 156.38 132.20 157.20 134.60 158.10 C 134.48 159.14 134.31 160.17 134.15 161.21 C 132.24 161.53 130.39 162.06 128.51 162.56 C 128.08 160.39 127.62 158.23 127.27 156.05 Z" fill="#2f8a28"/>
<path d="M 67.30 156.50 C 67.67 158.40 67.55 160.26 67.34 162.16 C 65.94 161.77 64.55 161.41 63.12 161.17 C 62.73 160.47 62.34 159.76 61.96 159.05 C 63.74 158.20 65.52 157.34 67.30 156.50 Z" fill="#31912a"/>
<path d="M 72.37 157.38 C 73.37 157.05 74.37 156.73 75.37 156.42 L 76.32 156.84 C 76.35 158.77 76.39 160.69 76.44 162.61 C 75.16 162.90 73.86 163.12 72.55 163.28 L 71.00 163.39 C 71.45 161.39 71.91 159.39 72.37 157.38 Z" fill="#205e15"/>
<path d="M 47.87 158.19 C 51.96 158.60 55.58 160.66 59.75 160.93 C 60.87 161.01 61.99 161.09 63.12 161.17 C 64.55 161.41 65.94 161.77 67.34 162.16 C 68.57 162.53 69.79 162.96 71.00 163.39 C 70.96 164.66 70.93 165.93 70.90 167.20 C 63.61 165.58 56.33 163.92 49.10 162.09 C 48.44 161.28 47.79 160.46 47.12 159.65 C 47.36 159.16 47.61 158.67 47.87 158.19 Z" fill="#dbdbdb"/>
<path d="M 149.92 157.59 C 147.74 160.84 144.50 161.65 141.13 163.13 C 137.75 164.44 134.73 165.93 131.00 165.65 C 128.63 165.26 126.44 166.18 125.60 163.32 C 126.57 163.07 127.54 162.82 128.51 162.56 C 130.39 162.06 132.24 161.53 134.15 161.21 C 136.78 160.94 139.39 160.74 141.97 160.15 C 143.28 159.76 144.58 159.33 145.88 158.91 C 147.23 158.47 148.57 158.03 149.92 157.59 Z" fill="#dbdbdb"/>
<path d="M 82.83 159.38 C 86.90 161.90 91.19 163.67 95.45 165.81 C 91.84 167.10 88.23 168.27 84.74 169.87 C 80.64 169.29 76.60 168.44 72.57 167.51 C 72.56 166.10 72.56 164.69 72.55 163.28 C 73.86 163.12 75.16 162.90 76.44 162.61 C 78.60 161.59 80.65 160.35 82.83 159.38 Z" fill="#ffffff"/>
<path d="M 104.07 158.69 C 103.77 159.99 103.06 160.90 101.96 161.42 C 101.95 159.60 102.65 158.69 104.07 158.69 Z" fill="#ae9855"/>
<path d="M 114.34 159.42 C 117.54 160.92 120.43 162.75 123.98 163.38 L 124.75 163.52 C 124.55 164.52 124.37 165.51 124.19 166.51 C 125.72 166.90 127.25 167.27 128.78 167.63 C 123.43 168.20 118.21 169.50 112.86 170.06 C 109.29 168.33 105.50 167.23 101.85 165.69 C 106.09 163.72 110.34 161.87 114.34 159.42 Z" fill="#ffffff"/>
<path d="M 150.45 160.57 C 150.52 163.41 150.11 165.94 151.39 168.57 C 153.66 173.68 155.78 178.79 156.91 184.29 C 147.24 188.86 135.97 190.76 125.53 192.79 C 112.39 195.13 100.43 197.74 86.96 195.54 C 72.43 192.52 57.88 189.51 43.36 186.47 C 44.70 178.18 46.80 170.69 46.78 162.30 C 49.82 164.39 53.05 164.62 56.53 165.51 C 66.62 167.78 76.74 170.40 86.99 171.77 C 107.49 173.61 129.20 170.98 147.82 161.82 C 148.70 161.41 149.57 160.99 150.45 160.57 Z" fill="#ffffff"/>
<path d="M 98.89 167.32 C 102.10 168.08 105.17 169.49 108.30 170.52 C 101.95 170.75 95.61 170.83 89.26 170.49 C 92.40 169.41 95.61 167.75 98.89 167.32 Z" fill="#ffffff"/>
<path d="M 57.91 171.53 C 58.98 171.77 60.05 172.01 61.12 172.25 C 60.51 175.06 59.86 177.86 59.18 180.65 C 60.97 181.11 62.76 181.56 64.56 182.01 C 64.34 183.10 64.13 184.19 63.91 185.28 C 61.00 184.63 58.09 183.97 55.19 183.28 C 56.07 179.36 56.99 175.44 57.91 171.53 Z" fill="#cf9800"/>
<path d="M 125.02 171.92 C 126.16 172.08 127.30 172.24 128.44 172.40 C 127.64 173.33 126.83 174.26 126.03 175.18 C 127.25 175.12 128.47 175.06 129.69 175.00 C 129.81 175.97 129.92 176.94 130.04 177.91 C 127.70 178.31 125.49 178.42 123.46 179.77 C 125.52 179.71 127.60 179.49 129.66 179.52 L 130.27 182.18 C 128.05 182.64 126.00 182.55 124.21 184.16 C 126.50 184.03 128.78 183.75 131.05 183.44 C 131.14 184.54 131.22 185.65 131.31 186.75 C 128.25 187.15 125.20 187.60 122.14 188.04 C 121.51 184.04 120.92 180.03 120.39 176.02 C 121.41 175.91 122.44 175.81 123.46 175.71 C 123.98 174.45 124.50 173.18 125.02 171.92 Z" fill="#cf9800"/>
<path d="M 141.85 173.45 L 140.59 176.17 C 138.92 176.45 137.45 176.26 135.93 177.04 C 137.90 177.36 139.99 177.40 141.90 177.97 C 144.18 179.25 143.89 183.37 141.54 184.52 C 138.95 186.00 136.58 185.31 133.82 184.97 C 134.20 183.93 134.59 182.89 134.97 181.86 C 136.93 181.95 138.65 182.39 140.46 181.38 C 138.49 181.03 136.43 180.91 134.50 180.38 C 132.15 179.11 132.47 174.93 134.86 173.81 C 137.22 172.47 139.35 173.10 141.85 173.45 Z" fill="#cf9800"/>
<path d="M 69.53 174.04 C 72.60 174.62 75.66 175.22 78.72 175.83 C 78.52 176.90 78.32 177.96 78.12 179.03 C 75.90 178.60 73.67 178.22 71.41 178.00 C 73.11 179.57 75.11 179.65 77.26 180.16 C 77.10 181.12 76.95 182.08 76.79 183.04 C 74.72 182.70 72.64 182.41 70.55 182.25 C 72.42 184.03 74.64 183.91 77.04 184.49 C 76.86 185.57 76.69 186.64 76.51 187.71 C 73.36 187.15 70.22 186.52 67.13 185.68 C 68.01 181.82 68.79 177.93 69.53 174.04 Z" fill="#cf9800"/>
<path d="M 83.24 177.27 C 86.64 175.96 89.26 177.49 91.70 179.76 C 90.89 180.41 90.09 181.05 89.28 181.69 C 88.17 181.13 87.04 180.65 85.88 180.24 C 83.70 180.37 82.14 182.69 83.30 184.68 C 84.17 186.14 86.32 185.87 87.78 186.31 C 85.84 184.53 85.12 184.66 85.60 181.77 C 87.43 182.15 89.25 182.53 91.08 182.92 C 90.65 184.92 90.22 186.93 89.79 188.93 C 86.92 189.33 84.44 189.94 81.91 188.06 C 78.25 185.40 79.01 178.97 83.24 177.27 Z" fill="#cf9800"/>
<path d="M 113.97 177.04 C 115.02 176.91 116.08 176.79 117.13 176.67 C 117.63 180.62 118.13 184.56 118.67 188.50 C 117.76 188.70 116.85 188.90 115.94 189.10 C 114.04 187.25 112.16 185.39 110.27 183.53 C 110.51 185.59 110.75 187.64 110.98 189.70 C 109.90 189.77 108.81 189.83 107.73 189.90 C 107.26 185.85 106.74 181.81 106.27 177.76 C 110.48 177.11 111.86 180.57 114.63 182.93 C 114.41 180.97 114.18 179.00 113.97 177.04 Z" fill="#cf9800"/>
<path d="M 97.29 178.14 C 98.20 177.98 99.12 177.86 100.05 177.78 C 102.01 181.79 103.62 185.99 105.36 190.10 C 104.19 190.12 103.01 190.13 101.84 190.15 C 101.47 189.44 101.09 188.74 100.72 188.03 C 99.39 188.07 98.06 188.11 96.73 188.16 C 95.44 190.57 94.40 189.96 92.03 190.26 C 93.76 186.23 95.19 181.99 97.29 178.14 Z" fill="#cf9800"/>
<path d="M 98.69 182.86 C 100.05 183.61 99.82 186.00 98.04 184.87 C 97.63 184.06 97.84 183.39 98.69 182.86 Z" fill="#ece0be"/>
</svg>