<?xml version="1.0" encoding="UTF-8" standalone="no"?>
<svg xmlns:dc="http://purl.org/dc/elements/1.1/" xmlns:cc="http://creativecommons.org/ns#" xmlns:rdf="http://www.w3.org/1999/02/22-rdf-syntax-ns#" xmlns:svg="http://www.w3.org/2000/svg" xmlns="http://www.w3.org/2000/svg" xmlns:sodipodi="http://sodipodi.sourceforge.net/DTD/sodipodi-0.dtd" xmlns:inkscape="http://www.inkscape.org/namespaces/inkscape" inkscape:version="1.0 (4035a4f, 2020-05-01)" sodipodi:docname="81.svg" id="svg3236" height="200.0pt" width="200.0pt" viewBox="0 0 200 200" version="1.1">
  <metadata id="metadata3242">
    <rdf:RDF>
      <cc:Work rdf:about="">
        <dc:format>image/svg+xml</dc:format>
        <dc:type rdf:resource="http://purl.org/dc/dcmitype/StillImage"/>
      </cc:Work>
    </rdf:RDF>
  </metadata>
  <defs id="defs3240"/>
  <sodipodi:namedview inkscape:current-layer="svg3236" inkscape:window-maximized="0" inkscape:window-y="23" inkscape:window-x="0" inkscape:cy="133.33333" inkscape:cx="133.33333" inkscape:zoom="1.65" showgrid="false" id="namedview3238" inkscape:window-height="621" inkscape:window-width="851" inkscape:pageshadow="2" inkscape:pageopacity="0" guidetolerance="10" gridtolerance="10" objecttolerance="10" borderopacity="1" bordercolor="#666666" pagecolor="#ffffff"/>
  <path style="fill:#ffffff;fill-opacity:0.00404858" id="path3152" fill="#ffffff" d="M 0.00 0.00 L 69.62 0.00 C 61.48 6.01 52.16 9.46 42.00 9.62 C 33.69 10.22 26.31 9.43 18.57 6.30 C 15.81 10.38 12.50 13.99 9.97 18.23 C 17.35 27.35 22.23 38.14 22.58 50.00 C 23.30 68.23 14.22 86.74 1.17 99.16 C 4.50 102.42 7.74 105.77 10.98 109.12 C 10.17 124.02 11.89 138.58 19.17 151.82 C 26.68 165.60 39.23 175.61 53.73 181.28 C 63.77 185.34 74.33 187.21 85.09 187.97 C 89.68 192.21 94.86 195.77 99.43 200.00 L 0.00 200.00 L 0.00 0.00 Z"/>
  <path id="path3154" fill="#010000" d="M 69.62 0.00 L 69.62 0.00 C 78.81 6.90 89.33 11.43 101.00 11.10 C 111.92 10.90 121.64 6.46 130.26 0.02 C 135.22 3.37 140.16 6.34 146.01 7.86 C 152.50 9.73 159.27 9.80 166.00 9.72 C 171.38 9.65 176.34 8.09 181.36 6.30 C 184.10 10.38 187.41 13.99 189.96 18.21 C 182.57 27.32 177.70 38.16 177.32 50.00 C 176.64 68.26 185.71 86.70 198.74 99.17 C 195.50 102.47 192.06 105.64 189.08 109.16 C 189.27 118.15 189.17 127.03 186.89 135.83 C 183.33 150.95 174.15 164.54 161.27 173.27 C 147.39 182.86 131.57 186.67 114.98 188.07 C 110.15 191.92 105.13 196.03 100.37 200.00 L 99.43 200.00 C 94.86 195.77 89.68 192.21 85.09 187.97 C 74.33 187.21 63.77 185.34 53.73 181.28 C 39.23 175.61 26.68 165.60 19.17 151.82 C 11.89 138.58 10.17 124.02 10.98 109.12 C 7.74 105.77 4.50 102.42 1.17 99.16 C 14.22 86.74 23.30 68.23 22.58 50.00 C 22.23 38.14 17.35 27.35 9.97 18.23 C 12.50 13.99 15.81 10.38 18.57 6.30 C 26.31 9.43 33.69 10.22 42.00 9.62 C 52.16 9.46 61.48 6.01 69.62 0.00 Z"/>
  <path style="fill:#ffffff;fill-opacity:0.00404858" id="path3156" fill="#ffffff" d="M 69.62 0.00 L 200.00 0.00 L 200.00 200.00 L 100.37 200.00 C 105.13 196.03 110.15 191.92 114.98 188.07 C 131.57 186.67 147.39 182.86 161.27 173.27 C 174.15 164.54 183.33 150.95 186.89 135.83 C 189.17 127.03 189.27 118.15 189.08 109.16 C 192.06 105.64 195.50 102.47 198.74 99.17 C 185.71 86.70 176.64 68.26 177.32 50.00 C 177.70 38.16 182.57 27.32 189.96 18.21 C 187.41 13.99 184.10 10.38 181.36 6.30 C 176.34 8.09 171.38 9.65 166.00 9.72 C 159.27 9.80 152.50 9.73 146.01 7.86 C 140.16 6.34 135.22 3.37 130.26 0.02 C 121.64 6.46 111.92 10.90 101.00 11.10 C 89.33 11.43 78.81 6.90 69.62 0.00 Z"/>
  <path id="path3158" fill="#e6bf01" d="M 69.63 5.30 C 78.37 11.34 88.27 15.27 99.00 15.39 C 110.39 15.71 121.08 11.73 130.32 5.26 C 134.69 8.02 139.17 10.45 144.18 11.86 C 150.00 13.64 155.91 13.88 162.00 14.17 C 168.09 14.38 174.00 13.28 179.81 11.53 C 181.40 13.71 183.06 15.83 184.73 17.95 C 177.08 28.01 172.66 40.31 172.99 53.01 C 173.34 69.99 181.12 86.84 192.67 99.13 C 189.90 101.96 187.11 104.77 184.43 107.69 C 185.08 116.47 184.95 125.38 182.86 133.97 C 180.03 146.53 173.27 158.08 163.33 166.31 C 150.49 177.10 133.51 182.26 116.99 183.41 C 115.07 183.71 113.26 183.28 111.83 184.79 C 108.02 188.25 104.04 191.47 99.99 194.64 C 96.50 191.93 93.03 189.21 89.76 186.24 C 88.21 184.96 87.22 183.53 85.01 183.59 C 74.66 182.94 64.49 181.07 54.86 177.14 C 41.77 171.92 30.42 162.92 23.43 150.56 C 16.02 137.39 14.20 122.59 15.51 107.70 C 12.84 104.75 10.03 101.94 7.24 99.12 C 20.10 85.51 28.41 65.89 26.69 47.01 C 25.84 36.37 21.55 26.45 15.20 17.95 C 16.86 15.80 18.53 13.66 20.18 11.50 C 26.27 13.47 32.61 14.44 39.01 14.14 C 44.98 13.80 50.78 13.52 56.52 11.62 C 61.27 10.24 65.40 7.79 69.63 5.30 Z"/>
  <path id="path3160" fill="#010000" d="M 69.57 13.20 C 81.49 20.64 95.23 23.51 109.14 21.37 L 109.93 22.77 L 107.36 22.93 C 105.10 23.06 102.84 23.24 100.58 23.37 L 99.27 23.39 C 91.52 23.27 84.27 21.74 77.16 18.68 C 74.46 17.69 71.91 15.64 69.16 15.01 C 64.61 17.11 60.21 19.27 55.25 20.30 C 46.07 22.26 36.24 22.79 26.93 21.43 C 30.13 27.02 32.37 33.05 33.77 39.33 C 35.31 46.53 35.43 53.92 34.41 61.20 C 33.38 67.69 31.58 73.96 29.04 80.02 C 37.77 79.93 46.51 80.00 55.24 79.98 C 62.56 79.98 69.87 79.97 77.19 79.98 C 84.55 79.98 91.90 79.95 99.26 79.99 L 100.60 80.00 C 102.85 80.00 105.11 80.01 107.36 80.00 C 109.88 79.98 112.41 79.98 114.93 79.99 C 117.58 80.01 120.23 80.01 122.88 79.99 C 125.37 79.97 127.87 79.98 130.36 79.99 C 132.97 80.01 135.58 80.01 138.19 79.99 C 140.74 79.98 143.30 79.98 145.85 80.00 C 148.41 80.01 150.97 80.01 153.54 80.00 C 156.07 79.98 158.61 79.98 161.15 79.99 C 164.41 80.01 167.66 80.00 170.92 80.01 C 166.11 68.62 163.87 56.31 165.42 43.98 C 166.45 36.03 169.12 28.43 173.01 21.44 C 169.07 21.94 165.13 22.08 161.17 22.12 C 158.64 22.10 156.10 21.99 153.58 21.74 C 150.99 21.40 148.41 21.00 145.84 20.54 C 143.23 20.04 140.70 19.24 138.20 18.32 C 135.54 17.22 132.98 15.92 130.35 14.76 C 127.93 16.18 125.47 17.52 122.89 18.61 C 120.27 19.64 117.61 20.58 114.92 21.44 C 113.11 21.71 110.51 23.27 109.25 21.36 C 116.76 19.94 123.86 17.25 130.35 13.20 C 136.18 16.31 142.22 18.79 148.80 19.74 C 157.56 20.99 166.79 21.33 175.50 19.60 C 171.19 26.82 168.08 34.62 166.93 42.98 C 164.73 55.73 167.71 69.59 172.88 81.31 C 124.26 81.30 75.64 81.30 27.02 81.31 C 30.28 73.88 32.60 66.10 33.37 58.01 C 34.84 44.56 31.41 31.10 24.40 19.60 C 39.24 22.13 56.31 20.91 69.57 13.20 Z"/>
  <path id="path3162" fill="#cc0732" d="M 69.16 15.01 C 71.91 15.64 74.46 17.69 77.16 18.68 C 77.20 25.55 77.24 32.42 77.13 39.29 C 84.50 39.33 91.87 39.30 99.24 39.31 C 98.51 46.43 98.55 54.09 99.24 61.22 C 91.90 61.31 84.56 61.19 77.22 61.26 C 77.13 67.50 77.23 73.74 77.19 79.98 C 69.87 79.97 62.56 79.98 55.24 79.98 C 55.22 73.73 55.24 67.49 55.23 61.25 C 48.29 61.22 41.35 61.30 34.41 61.20 C 35.43 53.92 35.31 46.53 33.77 39.33 C 40.93 39.29 48.08 39.32 55.24 39.31 C 55.23 32.97 55.21 26.64 55.25 20.30 C 60.21 19.27 64.61 17.11 69.16 15.01 Z"/>
  <path id="path3164" fill="#cc0732" d="M 130.35 14.76 C 130.37 36.51 130.34 58.25 130.36 79.99 C 127.87 79.98 125.37 79.97 122.88 79.99 C 122.89 59.53 122.89 39.07 122.89 18.61 C 125.47 17.52 127.93 16.18 130.35 14.76 Z"/>
  <path id="path3166" fill="#e6bf01" d="M 130.35 14.76 C 132.98 15.92 135.54 17.22 138.20 18.32 C 138.19 38.88 138.22 59.44 138.19 79.99 C 135.58 80.01 132.97 80.01 130.36 79.99 C 130.34 58.25 130.37 36.51 130.35 14.76 Z"/>
  <path id="path3168" fill="#cc0732" d="M 138.20 18.32 C 140.70 19.24 143.23 20.04 145.84 20.54 C 145.84 40.36 145.82 60.18 145.85 80.00 C 143.30 79.98 140.74 79.98 138.19 79.99 C 138.22 59.44 138.19 38.88 138.20 18.32 Z"/>
  <path id="path3170" fill="#ffffff" d="M 77.16 18.68 C 84.27 21.74 91.52 23.27 99.27 23.39 C 99.26 28.70 99.30 34.00 99.24 39.31 C 91.87 39.30 84.50 39.33 77.13 39.29 C 77.24 32.42 77.20 25.55 77.16 18.68 Z"/>
  <path id="path3172" fill="#e6bf01" d="M 122.89 18.61 C 122.89 39.07 122.89 59.53 122.88 79.99 C 120.23 80.01 117.58 80.01 114.93 79.99 C 114.91 60.48 114.92 40.96 114.92 21.44 C 117.61 20.58 120.27 19.64 122.89 18.61 Z"/>
  <path id="path3174" fill="#ffffff" d="M 55.25 20.30 C 55.21 26.64 55.23 32.97 55.24 39.31 C 48.08 39.32 40.93 39.29 33.77 39.33 C 32.37 33.05 30.13 27.02 26.93 21.43 C 36.24 22.79 46.07 22.26 55.25 20.30 Z"/>
  <path id="path3176" fill="#e6bf01" d="M 145.84 20.54 C 148.41 21.00 150.99 21.40 153.58 21.74 C 153.53 41.16 153.61 60.58 153.54 80.00 C 150.97 80.01 148.41 80.01 145.85 80.00 C 145.82 60.18 145.84 40.36 145.84 20.54 Z"/>
  <path id="path3178" fill="#cc0732" d="M 109.14 21.37 L 109.25 21.36 C 110.51 23.27 113.11 21.71 114.92 21.44 C 114.92 40.96 114.91 60.48 114.93 79.99 C 112.41 79.98 109.88 79.98 107.36 80.00 C 107.40 60.97 107.40 41.95 107.36 22.93 L 109.93 22.77 L 109.14 21.37 Z"/>
  <path id="path3180" fill="#cc0732" d="M 153.58 21.74 C 156.10 21.99 158.64 22.10 161.17 22.12 C 161.10 41.41 161.15 60.71 161.15 79.99 C 158.61 79.98 156.07 79.98 153.54 80.00 C 153.61 60.58 153.53 41.16 153.58 21.74 Z"/>
  <path id="path3182" fill="#e6bf01" d="M 161.17 22.12 C 165.13 22.08 169.07 21.94 173.01 21.44 C 169.12 28.43 166.45 36.03 165.42 43.98 C 163.87 56.31 166.11 68.62 170.92 80.01 C 167.66 80.00 164.41 80.01 161.15 79.99 C 161.15 60.71 161.10 41.41 161.17 22.12 Z"/>
  <path id="path3184" fill="#e6bf01" d="M 107.36 22.93 C 107.40 41.95 107.40 60.97 107.36 80.00 C 105.11 80.01 102.85 80.00 100.60 80.00 C 100.54 61.12 100.56 42.24 100.58 23.37 C 102.84 23.24 105.10 23.06 107.36 22.93 Z"/>
  <path id="path3186" fill="#010000" d="M 99.27 23.39 L 100.58 23.37 C 100.56 42.24 100.54 61.12 100.60 80.00 L 99.26 79.99 C 99.26 73.73 99.30 67.47 99.24 61.22 C 99.23 53.91 99.23 46.61 99.24 39.31 C 99.30 34.00 99.26 28.70 99.27 23.39 Z"/>
  <path id="path3188" fill="#cc0732" d="M 99.24 39.31 C 99.23 46.61 99.23 53.91 99.24 61.22 C 98.55 54.09 98.51 46.43 99.24 39.31 Z"/>
  <path id="path3190" fill="#ffffff" d="M 34.41 61.20 C 41.35 61.30 48.29 61.22 55.23 61.25 C 55.24 67.49 55.22 73.73 55.24 79.98 C 46.51 80.00 37.77 79.93 29.04 80.02 C 31.58 73.96 33.38 67.69 34.41 61.20 Z"/>
  <path id="path3192" fill="#ffffff" d="M 77.22 61.26 C 84.56 61.19 91.90 61.31 99.24 61.22 C 99.30 67.47 99.26 73.73 99.26 79.99 C 91.90 79.95 84.55 79.98 77.19 79.98 C 77.23 73.74 77.13 67.50 77.22 61.26 Z"/>
  <path id="path3194" fill="#010000" d="M 67.26 84.79 C 72.06 84.60 76.89 84.78 81.69 84.72 C 81.68 86.13 81.66 87.54 81.65 88.95 C 78.31 88.94 74.97 88.94 71.63 88.94 C 71.61 90.02 71.60 91.11 71.58 92.19 C 73.54 92.19 75.51 92.18 77.47 92.17 C 77.48 93.59 77.49 95.01 77.49 96.44 C 75.53 96.43 73.57 96.42 71.60 96.41 C 71.61 99.16 71.62 101.91 71.62 104.65 C 70.15 104.65 68.68 104.65 67.21 104.65 C 67.29 98.03 67.13 91.40 67.26 84.79 Z"/>
  <path id="path3196" fill="#010000" d="M 106.18 88.95 C 104.88 89.57 103.58 90.20 102.28 90.81 C 100.35 88.80 98.21 87.77 95.79 89.80 C 93.34 92.34 93.50 98.46 96.81 100.28 C 99.47 101.38 100.78 100.11 102.48 98.22 C 103.68 98.92 104.89 99.61 106.08 100.31 C 103.63 104.91 98.70 106.14 94.13 103.90 C 87.76 100.03 88.19 88.14 95.12 85.08 C 99.58 83.33 103.78 84.83 106.18 88.95 Z"/>
  <path id="path3198" fill="#010000" d="M 116.32 84.84 C 120.36 84.83 124.89 84.23 128.80 85.24 C 132.50 86.70 132.75 90.98 130.43 93.82 C 134.22 97.06 132.97 102.94 128.25 104.33 C 124.40 104.97 120.32 104.53 116.41 104.65 C 116.38 98.05 116.52 91.44 116.32 84.84 Z"/>
  <path id="path3200" fill="#e6bf01" d="M 126.21 88.88 C 127.67 88.89 127.79 90.31 127.45 91.42 C 125.56 92.45 122.94 92.04 120.83 92.20 C 120.81 91.07 120.65 89.92 120.68 88.78 C 122.52 88.72 124.38 88.67 126.21 88.88 Z"/>
  <path id="path3202" fill="#e6bf01" d="M 120.70 95.82 C 122.88 95.92 125.62 95.44 127.61 96.46 C 128.67 97.67 128.30 99.44 127.02 100.34 C 124.93 100.59 122.77 100.52 120.67 100.54 C 120.68 98.96 120.69 97.39 120.70 95.82 Z"/>
  <path id="path3204" fill="#010000" d="M 22.45 108.18 C 73.77 108.08 126.17 108.16 177.60 108.14 C 179.08 119.43 177.65 131.68 173.22 142.20 C 168.29 153.93 158.87 162.99 147.53 168.53 C 132.19 175.95 115.83 177.52 99.00 177.15 C 81.96 177.51 64.26 175.27 49.18 166.83 C 37.17 160.18 28.10 149.07 24.40 135.81 C 22.00 127.01 20.92 117.20 22.45 108.18 Z"/>
  <path id="path3206" fill="#002496" d="M 23.50 109.49 C 30.28 109.24 37.10 109.45 43.89 109.42 C 43.76 126.86 43.90 144.30 43.82 161.74 C 34.50 155.00 28.06 144.96 25.22 133.86 C 23.33 126.00 22.47 117.53 23.50 109.49 Z"/>
  <path id="path3208" fill="#002496" d="M 88.83 109.41 C 88.75 114.01 88.76 118.60 88.81 123.19 C 81.77 127.68 77.63 135.61 78.57 144.00 C 79.21 150.70 83.18 156.56 88.80 160.15 C 88.70 165.37 88.77 170.60 88.74 175.83 C 81.20 175.28 73.56 174.34 66.27 172.30 C 66.35 151.34 66.36 130.37 66.27 109.41 C 73.79 109.38 81.31 109.38 88.83 109.41 Z"/>
  <path id="path3210" fill="#002496" d="M 133.69 109.41 C 133.60 130.36 133.61 151.33 133.69 172.29 C 126.42 174.33 118.73 175.27 111.21 175.83 C 111.17 170.60 111.25 165.37 111.14 160.15 C 117.34 156.16 121.45 149.46 121.46 142.00 C 121.68 134.31 117.49 127.32 111.13 123.19 C 111.20 118.60 111.21 114.01 111.12 109.41 C 118.64 109.38 126.17 109.38 133.69 109.41 Z"/>
  <path id="path3212" fill="#8b2448" d="M 43.89 109.42 C 51.35 109.43 58.81 109.44 66.27 109.41 C 66.36 130.37 66.35 151.34 66.27 172.30 C 58.21 170.02 50.57 166.75 43.82 161.74 C 43.90 144.30 43.76 126.86 43.89 109.42 Z"/>
  <path id="path3214" fill="#8b2448" d="M 88.83 109.41 C 96.26 109.44 103.69 109.44 111.12 109.41 C 111.21 114.01 111.20 118.60 111.13 123.19 C 104.01 119.07 95.93 119.09 88.81 123.19 C 88.76 118.60 88.75 114.01 88.83 109.41 Z"/>
  <path id="path3216" fill="#8b2448" d="M 133.69 109.41 C 141.14 109.44 148.58 109.44 156.02 109.42 C 156.10 126.86 155.99 144.31 156.07 161.76 C 149.33 166.77 141.73 169.98 133.69 172.29 C 133.61 151.33 133.60 130.36 133.69 109.41 Z"/>
  <path id="path3218" fill="#002496" d="M 156.02 109.42 C 162.84 109.39 169.66 109.35 176.48 109.43 C 177.42 120.01 176.35 131.31 172.24 141.18 C 168.85 149.36 163.23 156.54 156.07 161.76 C 155.99 144.31 156.10 126.86 156.02 109.42 Z"/>
  <path id="path3220" fill="#010000" d="M 111.13 123.19 C 117.49 127.32 121.68 134.31 121.46 142.00 C 121.45 149.46 117.34 156.16 111.14 160.15 C 105.12 163.51 97.89 164.21 91.52 161.43 C 90.60 161.02 89.70 160.59 88.80 160.15 C 83.18 156.56 79.21 150.70 78.57 144.00 C 77.63 135.61 81.77 127.68 88.81 123.19 C 95.93 119.09 104.01 119.07 111.13 123.19 Z"/>
  <path id="path3222" fill="#e6bf01" d="M 101.11 121.40 C 111.23 122.03 119.17 129.89 120.26 139.93 C 115.61 133.36 108.55 127.63 100.02 128.72 C 96.76 128.16 97.44 121.23 101.11 121.40 Z"/>
  <path id="path3224" fill="#e6bf01" d="M 97.81 121.27 C 96.27 125.01 96.00 126.28 98.37 129.64 C 96.57 132.15 95.18 134.69 96.24 137.87 C 96.77 139.75 98.78 141.04 99.16 142.91 C 96.90 146.75 92.91 147.63 89.61 144.39 C 85.07 139.71 86.99 130.41 88.82 124.85 C 91.19 122.86 94.90 122.09 97.81 121.27 Z"/>
  <path id="path3226" fill="#e6bf01" d="M 87.06 125.99 C 85.22 132.93 83.97 139.98 89.03 145.92 C 86.22 148.76 85.03 149.22 80.98 149.34 C 78.06 140.78 80.10 131.87 87.06 125.99 Z"/>
  <path id="path3228" fill="#e6bf01" d="M 104.03 129.90 C 110.98 131.27 117.50 136.37 120.00 143.06 C 120.20 145.15 119.37 147.39 118.98 149.43 C 116.47 146.14 114.58 144.82 110.25 145.51 C 109.37 142.88 108.30 140.66 105.47 139.77 C 103.27 139.07 101.70 140.11 99.69 140.87 C 97.62 138.59 96.48 136.03 97.80 133.01 C 98.79 130.30 101.32 129.38 104.03 129.90 Z"/>
  <path id="path3230" fill="#e6bf01" d="M 106.95 142.06 C 109.13 144.08 109.34 147.15 107.40 149.43 C 102.04 155.43 94.73 157.07 86.99 157.42 C 84.92 155.39 83.23 153.32 81.66 150.89 C 85.57 150.34 87.42 149.60 90.07 146.62 C 91.86 147.09 93.71 148.27 95.54 147.48 C 97.82 146.73 99.25 145.34 100.26 143.18 C 101.26 140.37 105.00 140.20 106.95 142.06 Z"/>
  <path id="path3232" fill="#e6bf01" d="M 111.98 146.62 C 115.51 146.18 119.65 150.39 116.48 153.49 C 110.19 162.30 97.99 164.47 88.86 158.75 C 96.35 157.88 103.17 156.23 108.29 150.30 C 109.50 148.90 109.81 146.57 111.98 146.62 Z"/>
  <path id="path3234" fill="#8b2448" d="M 88.80 160.15 C 89.70 160.59 90.60 161.02 91.52 161.43 C 97.89 164.21 105.12 163.51 111.14 160.15 C 111.25 165.37 111.17 170.60 111.21 175.83 C 103.80 176.06 96.15 176.03 88.74 175.83 C 88.77 170.60 88.70 165.37 88.80 160.15 Z"/>
</svg>