<?xml version="1.0" encoding="UTF-8" standalone="no"?>
<!DOCTYPE svg PUBLIC "-//W3C//DTD SVG 1.1//EN" "http://www.w3.org/Graphics/SVG/1.1/DTD/svg11.dtd">
<svg xmlns="http://www.w3.org/2000/svg" version="1.1" viewBox="0 0 200 200" width="200.0pt" height="200.0pt">
<path d="M 0.00 0.00 L 200.00 0.00 L 200.00 200.00 L 0.00 200.00 L 0.00 0.00 Z" fill="none"/>
<path d="M 99.99 4.24 C 102.01 4.31 104.06 3.79 106.07 4.00 C 108.19 4.28 107.81 7.27 108.39 8.86 C 108.87 9.81 109.41 10.76 109.77 11.76 C 109.30 12.61 108.81 13.43 108.28 14.23 C 108.23 15.48 108.13 16.72 107.98 17.96 C 107.35 19.98 104.31 19.00 102.73 19.44 C 104.97 23.07 107.35 26.04 112.00 25.93 C 115.88 26.02 117.94 23.63 120.39 21.05 C 118.90 20.60 116.82 20.61 115.60 19.55 C 115.53 18.11 115.74 16.62 115.87 15.18 C 115.55 14.16 115.28 13.14 115.05 12.11 C 115.70 11.25 116.40 10.43 117.13 9.63 C 117.63 8.26 118.04 6.94 118.76 5.66 C 120.50 4.85 122.09 5.98 123.80 6.42 C 126.54 7.50 129.42 7.11 132.19 7.85 C 133.50 9.19 132.83 11.04 132.87 12.72 C 133.24 13.76 133.56 14.81 133.81 15.88 C 133.19 16.80 132.45 17.64 131.74 18.49 C 131.33 19.87 130.97 21.21 130.41 22.53 C 128.78 22.64 127.14 22.60 125.48 22.41 C 127.37 26.29 129.33 29.64 133.95 30.37 C 137.64 30.85 139.35 28.61 141.44 26.09 C 139.90 25.53 138.14 25.08 136.74 24.22 C 135.60 21.81 137.44 20.77 138.55 18.85 C 138.85 17.26 138.84 15.17 139.81 13.81 C 140.95 13.21 142.21 12.90 143.45 12.51 C 144.55 11.77 145.68 10.61 147.00 10.32 C 149.54 10.77 151.54 12.62 152.49 14.99 C 152.06 16.51 150.93 17.86 150.10 19.19 C 149.47 21.13 148.39 22.62 147.25 24.27 C 145.94 27.17 146.11 30.26 143.89 32.89 C 141.85 35.37 139.16 35.91 136.18 36.62 C 137.74 37.59 140.63 37.88 140.85 40.11 C 141.58 42.46 137.98 43.38 136.68 44.86 C 136.97 46.51 138.19 48.01 138.95 49.50 C 141.90 49.48 144.85 49.48 147.80 49.50 C 147.84 84.00 147.78 118.50 147.83 153.00 C 147.74 156.06 147.89 159.24 145.64 161.62 C 143.59 163.78 140.87 164.20 138.01 164.25 C 128.02 164.33 118.00 164.10 108.01 164.32 C 103.81 164.56 102.08 167.45 100.17 170.73 C 98.87 168.66 97.93 166.32 95.61 165.20 C 93.48 164.10 91.33 164.26 89.00 164.21 C 80.33 164.26 71.66 164.24 62.99 164.26 C 59.87 164.22 56.78 163.92 54.57 161.46 C 52.74 159.35 52.69 156.67 52.62 154.01 C 52.65 119.18 52.62 84.32 52.63 49.49 C 55.55 49.48 58.48 49.48 61.40 49.54 C 62.16 48.05 63.55 46.54 63.75 44.86 C 62.60 43.62 59.58 42.63 59.46 40.84 C 59.35 38.12 62.17 37.69 64.09 36.66 C 61.32 35.89 58.80 35.43 56.81 33.17 C 54.36 30.59 54.18 27.34 53.41 24.03 C 51.44 22.39 50.97 21.54 50.37 19.07 C 49.23 17.16 47.11 16.00 48.61 13.59 C 49.84 11.81 52.73 9.26 54.89 11.07 C 56.82 12.28 58.96 13.02 60.90 14.19 C 61.52 15.56 61.58 17.26 61.81 18.74 C 62.73 20.11 63.68 21.38 64.29 22.93 C 63.33 25.30 61.06 25.15 58.97 26.04 C 61.01 28.41 62.49 30.62 66.00 30.44 C 70.87 29.85 73.00 26.39 74.97 22.34 C 73.42 22.33 71.24 23.10 69.84 22.26 C 69.32 21.02 68.97 19.69 68.59 18.40 C 67.89 17.60 67.23 16.77 66.59 15.92 C 66.89 14.86 67.24 13.81 67.62 12.77 C 67.59 11.15 66.98 9.35 67.98 7.97 C 69.52 7.36 71.38 7.42 73.02 7.21 C 75.80 7.01 78.15 5.63 80.86 5.26 C 82.40 6.10 82.65 8.14 83.34 9.66 C 84.05 10.46 84.73 11.28 85.38 12.13 C 85.09 13.16 84.76 14.17 84.38 15.18 C 84.53 16.60 85.08 18.28 84.64 19.66 C 83.57 20.72 81.35 20.55 79.99 20.97 C 82.51 23.82 84.85 26.24 89.02 25.93 C 93.44 25.75 95.50 22.84 97.64 19.44 C 95.80 19.23 94.13 19.42 92.50 18.61 C 92.30 17.23 92.30 15.81 92.26 14.40 C 91.70 13.55 91.16 12.69 90.64 11.81 C 91.09 10.73 91.60 9.67 92.17 8.63 C 92.59 7.08 92.23 4.76 93.98 4.06 C 95.93 3.74 98.01 4.26 99.99 4.24 Z" fill="#020104"/>
<path d="M 94.24 5.85 L 94.85 5.32 C 98.63 5.92 102.18 5.84 105.97 5.38 C 106.31 7.63 106.79 9.54 107.80 11.58 C 106.46 13.65 106.41 15.61 106.31 18.02 C 104.48 17.76 102.65 17.51 100.81 17.29 C 101.74 19.82 102.45 22.60 104.51 24.47 C 107.99 27.80 113.66 28.34 117.70 25.72 C 120.04 24.27 121.30 21.70 122.71 19.43 C 120.76 19.29 118.82 19.16 116.88 19.03 C 117.26 17.65 117.65 16.26 118.05 14.89 C 117.58 14.18 117.12 13.48 116.65 12.78 C 118.28 10.89 119.17 9.08 119.97 6.73 C 123.95 8.32 127.24 8.92 131.56 8.98 C 131.36 10.33 131.16 11.69 130.95 13.04 C 131.32 13.78 131.68 14.53 132.04 15.28 C 130.50 17.16 129.76 19.21 129.06 21.51 C 127.31 20.88 125.56 20.26 123.81 19.65 C 124.41 22.48 124.68 25.14 126.53 27.49 C 129.20 30.89 134.00 33.07 138.18 31.17 C 141.13 29.85 142.03 27.33 143.41 24.67 C 141.52 24.29 139.62 23.91 137.73 23.52 C 139.47 20.59 140.63 18.09 140.96 14.62 C 142.05 14.45 143.14 14.27 144.23 14.10 C 145.20 13.23 146.17 12.36 147.13 11.49 C 148.51 12.61 149.86 13.77 151.19 14.95 C 150.39 15.95 149.59 16.95 148.79 17.95 C 147.73 17.22 146.66 16.50 145.56 15.83 C 144.45 17.85 143.67 20.06 142.78 22.18 C 143.68 22.52 144.58 22.86 145.48 23.20 C 144.55 27.54 144.44 31.77 139.98 34.03 C 132.71 37.16 124.90 32.93 122.00 25.88 C 118.70 28.72 115.71 31.27 111.00 30.68 C 106.22 30.17 103.20 27.25 100.17 23.84 C 96.86 27.65 93.38 30.78 88.02 30.75 C 83.89 30.78 81.36 28.37 78.44 25.87 C 76.86 28.59 75.63 31.16 72.82 32.84 C 68.70 35.34 62.97 36.19 58.92 33.09 C 55.89 30.76 55.73 26.74 54.96 23.31 C 55.81 22.93 56.66 22.55 57.52 22.16 C 56.65 19.95 55.83 17.72 55.01 15.48 C 53.94 16.35 52.87 17.22 51.81 18.10 C 50.92 17.04 50.03 15.97 49.15 14.90 C 50.58 13.73 52.04 12.60 53.55 11.53 C 54.34 12.29 55.12 13.06 55.90 13.82 C 57.01 14.11 58.10 14.45 59.17 14.85 C 60.06 17.87 60.98 20.49 62.47 23.27 C 60.71 23.91 58.83 24.37 57.01 24.86 C 58.39 27.32 59.30 29.85 62.06 31.07 C 66.21 33.09 70.97 31.03 73.72 27.68 C 75.70 25.32 75.97 22.59 76.67 19.69 C 74.76 20.29 72.85 20.90 70.94 21.51 C 70.75 20.14 70.56 18.77 70.37 17.40 C 69.70 16.89 69.02 16.37 68.35 15.86 C 69.10 13.53 69.28 11.41 69.22 8.97 C 73.53 8.93 76.51 8.33 80.45 6.59 C 80.86 7.90 81.25 9.21 81.65 10.52 C 82.43 11.17 83.20 11.82 83.98 12.47 C 83.43 13.29 82.88 14.10 82.33 14.92 C 82.74 16.29 83.15 17.65 83.56 19.01 C 81.61 19.15 79.66 19.30 77.71 19.46 C 78.90 21.39 80.13 23.67 81.90 25.12 C 85.76 28.31 92.00 28.11 95.65 24.67 C 97.90 22.66 98.59 20.06 99.69 17.35 C 97.72 17.53 95.75 17.73 93.78 17.93 C 93.93 16.56 94.08 15.20 94.23 13.84 C 93.54 13.16 92.86 12.48 92.18 11.81 C 92.75 10.89 93.33 9.99 93.87 9.06 C 94.01 7.99 94.13 6.92 94.24 5.85 Z" fill="#ffe500"/>
<path d="M 96.87 8.21 C 99.13 8.09 101.43 8.09 103.68 8.34 C 103.88 10.49 103.86 12.69 103.71 14.85 C 101.36 15.15 98.95 15.14 96.58 15.24 C 96.65 12.90 96.62 10.54 96.87 8.21 Z" fill="#2a2004"/>
<path d="M 78.86 10.18 C 79.46 12.37 79.84 14.62 80.29 16.85 C 78.05 17.20 75.73 17.83 73.45 17.80 C 72.81 15.75 72.35 13.64 71.79 11.56 C 74.13 11.04 76.48 10.46 78.86 10.18 Z" fill="#231a03"/>
<path d="M 98.57 10.05 C 99.64 10.03 100.71 10.01 101.78 10.00 C 101.78 11.13 101.78 12.27 101.78 13.40 C 100.72 13.38 99.67 13.36 98.61 13.33 C 98.60 12.24 98.59 11.14 98.57 10.05 Z" fill="#ff1e27"/>
<path d="M 121.70 10.07 C 123.98 10.45 126.24 11.02 128.49 11.53 C 127.97 13.76 127.50 15.99 127.06 18.23 C 124.79 17.69 122.48 17.24 120.24 16.56 C 120.43 14.36 120.88 12.12 121.70 10.07 Z" fill="#271b03"/>
<path d="M 74.53 13.02 C 75.48 12.57 76.45 12.15 77.43 11.75 C 77.61 13.03 77.79 14.30 77.98 15.57 C 76.88 15.73 75.77 15.89 74.67 16.05 C 74.61 15.04 74.52 14.03 74.53 13.02 Z" fill="#ff1e27"/>
<path d="M 123.35 12.30 C 124.15 12.21 124.96 12.15 125.77 12.12 C 125.90 13.45 126.01 14.77 126.10 16.10 C 124.70 15.99 123.30 15.89 121.91 15.78 C 122.36 14.60 122.80 13.43 123.35 12.30 Z" fill="#ca181f"/>
<path d="M 54.29 17.60 C 54.79 19.29 55.25 20.99 55.68 22.70 C 54.33 22.14 53.00 21.54 51.70 20.88 C 52.50 19.74 53.37 18.65 54.29 17.60 Z" fill="#a51319"/>
<path d="M 146.56 17.70 C 147.29 19.10 147.92 20.53 148.56 21.97 C 147.29 21.89 146.03 21.81 144.76 21.71 C 145.32 20.35 145.92 19.02 146.56 17.70 Z" fill="#c2171e"/>
<path d="M 100.18 26.17 C 101.98 27.56 103.72 29.03 105.51 30.45 C 101.97 30.33 98.47 30.34 94.93 30.47 C 96.69 29.05 98.41 27.58 100.18 26.17 Z" fill="#e4d001"/>
<path d="M 121.55 28.45 C 123.20 30.52 124.69 32.68 125.98 35.00 C 129.80 36.03 133.72 37.05 137.33 38.67 C 138.37 39.09 139.17 39.89 139.72 41.08 C 138.60 41.91 137.50 42.07 136.42 41.55 C 122.23 36.18 106.10 33.31 91.00 35.40 C 92.70 36.76 94.36 36.18 96.36 36.22 C 96.39 37.19 96.42 38.15 96.45 39.11 C 94.91 39.27 93.37 39.44 91.83 39.62 C 91.46 37.25 91.28 36.75 89.33 35.38 C 86.93 35.58 84.55 35.85 82.16 36.09 C 82.96 36.70 83.77 37.31 84.59 37.91 L 82.50 38.89 C 83.38 39.37 84.25 39.85 85.12 40.33 C 83.41 40.65 81.70 40.97 79.99 41.29 C 79.74 40.23 79.50 39.18 79.25 38.12 L 82.75 37.98 C 82.19 37.45 81.64 36.93 81.08 36.40 C 76.70 37.63 72.31 38.55 68.03 40.13 C 65.74 40.89 63.64 42.00 61.20 41.88 C 60.05 38.67 65.20 38.09 67.19 37.09 C 85.34 31.05 105.78 29.73 124.32 34.73 C 124.36 34.16 124.39 33.60 124.43 33.04 C 121.72 32.54 119.02 32.05 116.30 31.60 C 118.06 30.56 119.78 29.46 121.55 28.45 Z" fill="#ffe900"/>
<path d="M 79.03 28.38 C 80.70 29.49 82.38 30.58 84.08 31.65 C 80.78 32.18 77.55 32.84 74.31 33.66 C 75.34 32.60 76.34 31.52 77.32 30.43 C 77.89 29.75 78.46 29.07 79.03 28.38 Z" fill="#e4cf03"/>
<path d="M 103.94 38.05 C 101.51 38.58 99.61 39.76 97.35 38.02 C 99.04 34.44 101.63 36.60 103.94 38.05 Z" fill="#c6171e"/>
<path d="M 104.17 36.07 C 106.22 36.24 108.28 36.40 110.33 36.56 C 109.50 37.00 108.68 37.45 107.85 37.89 C 108.60 38.50 109.35 39.11 110.10 39.71 C 108.10 39.50 106.10 39.30 104.09 39.13 C 104.12 38.11 104.15 37.09 104.17 36.07 Z" fill="#ffed00"/>
<path d="M 90.85 37.95 C 88.38 39.42 87.41 39.74 84.48 39.17 C 87.22 37.04 87.61 37.07 90.85 37.95 Z" fill="#a21319"/>
<path d="M 112.93 37.16 C 113.77 37.64 114.61 38.13 115.44 38.64 C 114.57 39.11 113.69 39.58 112.82 40.04 C 111.93 39.28 111.05 38.51 110.16 37.74 C 111.08 37.53 112.00 37.34 112.93 37.16 Z" fill="#b3151c"/>
<path d="M 115.92 37.21 C 117.63 37.56 119.33 37.94 121.03 38.30 C 120.85 39.16 120.68 40.03 120.50 40.89 C 118.54 40.92 116.61 41.00 114.69 41.44 C 118.89 42.44 123.11 43.19 127.23 44.47 C 131.11 45.75 134.76 46.51 137.79 49.45 C 132.20 50.23 128.03 47.66 122.80 46.42 C 105.64 41.98 87.23 42.67 70.52 48.60 C 67.85 49.63 65.31 49.61 62.49 49.40 C 64.04 48.23 65.55 47.09 67.40 46.42 C 82.41 40.77 98.69 39.21 114.54 41.55 C 115.53 40.68 116.53 39.82 117.52 38.97 C 116.98 38.39 116.45 37.80 115.92 37.21 Z" fill="#ffea00"/>
<path d="M 75.38 39.36 C 76.45 39.01 77.63 39.21 78.92 39.94 C 77.76 41.94 74.29 43.57 73.03 40.89 C 73.78 40.30 74.56 39.79 75.38 39.36 Z" fill="#d61921"/>
<path d="M 122.43 39.28 C 125.42 38.47 126.20 40.27 127.80 42.32 C 125.69 42.11 123.65 41.98 121.72 41.02 L 122.43 39.28 Z" fill="#d01920"/>
<path d="M 71.60 40.34 C 72.10 41.26 72.59 42.18 73.06 43.11 C 71.21 43.81 69.36 44.51 67.51 45.23 C 67.52 43.94 67.51 42.66 67.49 41.37 C 68.86 41.02 70.23 40.65 71.60 40.34 Z" fill="#c5b104"/>
<path d="M 128.58 40.07 C 130.55 40.76 132.53 41.45 134.50 42.16 C 133.58 42.38 132.65 42.59 131.73 42.80 C 132.32 43.62 132.92 44.43 133.51 45.25 C 131.53 44.60 129.56 43.94 127.59 43.29 C 127.92 42.22 128.25 41.14 128.58 40.07 Z" fill="#c7b204"/>
<path d="M 65.04 43.26 L 65.86 43.25 L 66.28 43.97 L 65.87 44.70 L 65.05 44.70 L 64.63 43.98 L 65.04 43.26 Z" fill="#820e14"/>
<path d="M 135.01 42.96 C 136.82 43.33 135.89 45.72 134.32 44.69 C 133.80 43.80 134.03 43.23 135.01 42.96 Z" fill="#56080c"/>
<path d="M 90.88 44.18 C 93.64 46.37 92.52 48.63 90.97 51.12 C 90.59 48.77 90.45 46.53 90.88 44.18 Z" fill="#780d12"/>
<path d="M 93.89 45.01 L 96.34 45.05 C 95.99 47.16 95.95 48.97 94.37 50.58 C 94.16 48.73 94.01 46.87 93.89 45.01 Z" fill="#a81319"/>
<path d="M 97.92 44.51 C 101.01 45.18 98.82 49.01 98.83 51.07 C 97.58 48.72 97.08 47.16 97.92 44.51 Z" fill="#7a0d12"/>
<path d="M 101.09 44.10 C 103.96 46.15 103.47 48.35 101.24 50.62 C 101.08 48.44 101.04 46.28 101.09 44.10 Z" fill="#a91319"/>
<path d="M 106.00 43.98 C 106.06 46.27 106.01 48.52 105.82 50.79 C 104.23 47.85 103.83 46.82 106.00 43.98 Z" fill="#981217"/>
<path d="M 108.16 44.26 C 110.58 46.79 110.71 48.16 108.15 50.65 C 108.04 48.51 108.05 46.40 108.16 44.26 Z" fill="#9d1218"/>
<path d="M 84.12 45.78 C 86.48 47.73 85.15 48.91 83.97 51.04 C 83.86 49.25 83.91 47.49 84.12 45.78 Z" fill="#7f0e13"/>
<path d="M 86.84 45.81 L 89.55 45.90 C 89.01 47.57 88.46 49.14 87.46 50.60 C 87.23 49.01 87.03 47.41 86.84 45.81 Z" fill="#a81319"/>
<path d="M 111.74 46.10 C 113.73 44.78 114.10 49.68 112.30 49.84 C 110.95 49.36 110.94 47.07 111.74 46.10 Z" fill="#a9131a"/>
<path d="M 115.19 45.23 C 115.78 46.19 117.53 47.41 116.80 48.70 C 116.28 49.38 115.73 50.03 115.15 50.67 C 115.10 48.87 115.12 47.05 115.19 45.23 Z" fill="#951117"/>
<path d="M 80.23 47.12 C 81.94 46.10 82.91 48.45 81.76 49.63 C 80.08 50.65 79.09 48.28 80.23 47.12 Z" fill="#9b1218"/>
<path d="M 118.52 47.19 C 120.23 46.12 121.15 48.58 120.04 49.73 C 118.37 50.76 117.40 48.33 118.52 47.19 Z" fill="#8e1016"/>
<path d="M 77.09 48.06 L 77.91 48.06 L 78.32 48.78 L 77.91 49.51 L 77.09 49.51 L 76.68 48.78 L 77.09 48.06 Z" fill="#ca1820"/>
<path d="M 122.10 48.03 C 123.91 46.83 125.02 49.58 122.92 50.03 C 121.79 49.73 121.52 49.06 122.10 48.03 Z" fill="#941117"/>
<path d="M 73.28 48.96 L 74.00 48.55 L 74.72 48.97 L 74.72 49.79 L 74.00 50.20 L 73.28 49.79 L 73.28 48.96 Z" fill="#640a0f"/>
<path d="M 126.22 49.20 C 126.71 49.70 126.71 49.70 126.22 49.20 Z" fill="#941017"/>
<path d="M 54.35 51.29 C 84.82 51.03 115.65 51.26 146.16 51.18 C 146.16 85.45 146.16 119.73 146.17 154.01 C 146.06 156.09 146.08 158.92 144.52 160.52 C 142.58 162.50 139.61 162.56 137.02 162.61 C 128.68 162.59 120.34 162.60 112.00 162.56 C 109.81 162.59 107.31 162.52 105.23 163.27 C 103.35 163.99 101.70 165.60 100.18 166.90 C 97.76 164.67 95.56 162.69 92.04 162.66 C 82.36 162.45 72.66 162.67 62.98 162.60 C 60.56 162.52 58.16 162.51 56.24 160.82 C 54.31 159.03 54.31 156.46 54.22 154.03 C 54.23 120.69 54.24 87.31 54.21 53.98 C 54.22 53.08 54.27 52.18 54.35 51.29 Z" fill="#ffe800"/>
<path d="M 57.86 54.82 C 86.05 54.79 114.24 54.82 142.43 54.80 C 142.43 61.12 142.43 67.43 142.43 73.75 C 114.24 73.69 86.04 73.78 57.85 73.71 C 57.86 67.41 57.86 61.11 57.86 54.82 Z" fill="#020000"/>
<path d="M 64.21 58.25 C 68.13 57.98 72.08 58.10 76.01 58.10 C 77.87 58.24 80.17 57.92 81.58 59.39 C 82.20 61.01 81.31 62.06 80.77 63.51 C 81.75 65.80 83.07 68.81 80.03 70.16 C 74.80 70.85 69.37 70.31 64.10 70.44 C 64.14 66.39 63.92 62.30 64.21 58.25 Z" fill="#ffe400"/>
<path d="M 90.29 58.25 C 96.22 57.94 102.19 58.23 108.12 58.15 L 108.15 60.38 C 103.57 60.39 98.99 60.33 94.41 60.45 C 94.72 61.25 95.03 62.05 95.37 62.85 C 98.83 63.36 102.44 63.09 105.93 63.12 L 105.94 64.81 C 102.25 64.81 98.55 64.81 94.86 64.82 C 94.86 66.70 94.86 68.58 94.87 70.46 C 93.31 70.46 91.74 70.47 90.18 70.47 C 90.22 66.41 90.00 62.31 90.29 58.25 Z" fill="#ffe700"/>
<path d="M 116.97 58.24 C 122.02 57.94 127.11 58.22 132.17 58.14 L 132.24 60.41 C 127.79 60.41 123.33 60.39 118.87 60.41 C 118.84 62.99 118.83 65.58 118.83 68.16 C 123.28 68.18 127.74 68.18 132.19 68.17 L 132.23 70.44 C 127.13 70.38 122.01 70.65 116.93 70.37 C 116.10 70.36 115.33 70.01 114.62 69.33 C 113.77 66.46 113.98 63.06 114.34 60.11 C 114.63 58.77 115.68 58.28 116.97 58.24 Z" fill="#ffe600"/>
<path d="M 42.03 58.70 C 45.76 59.54 45.60 63.38 44.20 66.18 C 41.42 71.66 36.52 72.86 32.52 77.00 C 35.81 77.34 36.06 77.58 37.90 80.08 C 37.00 80.85 36.05 81.54 35.06 82.17 C 33.89 81.90 32.73 81.59 31.58 81.24 C 30.40 83.53 29.37 85.90 28.34 88.26 C 30.79 86.10 32.84 83.96 36.17 83.21 C 38.08 82.69 41.08 82.86 42.45 84.46 C 44.12 86.18 42.53 88.75 41.11 90.10 C 37.23 93.60 31.64 94.78 26.59 95.32 C 26.33 96.01 26.08 96.71 25.82 97.40 C 27.80 97.06 30.49 96.18 30.73 99.12 C 31.37 101.99 27.56 101.75 25.74 101.80 C 24.86 104.24 24.32 106.75 23.89 109.30 C 26.58 105.61 28.86 100.31 33.99 99.71 C 37.24 99.48 39.31 102.78 37.59 105.62 C 34.95 110.34 28.51 113.07 23.60 114.70 C 23.55 116.88 23.52 119.07 23.54 121.26 C 24.44 119.51 24.28 115.43 26.96 116.11 C 28.59 115.77 28.96 118.24 29.56 119.31 C 31.55 118.60 33.65 117.10 35.74 118.30 C 38.42 119.44 38.38 122.68 36.76 124.72 C 33.76 128.48 28.45 130.36 23.97 131.60 C 24.27 134.35 24.57 137.11 25.04 139.84 C 25.65 138.19 26.04 136.33 26.95 134.81 C 29.83 133.98 29.88 135.60 31.38 137.49 C 33.91 135.98 36.14 134.37 39.17 135.78 C 41.42 137.04 41.33 140.00 39.95 141.87 C 36.92 145.94 31.72 148.23 27.04 149.81 C 27.80 152.31 28.54 154.79 29.53 157.21 C 29.62 155.10 29.43 152.99 29.56 150.89 C 31.82 149.24 32.85 150.32 34.62 151.83 C 36.37 150.54 37.62 148.71 40.07 149.54 C 42.69 150.62 42.91 153.63 42.27 156.05 C 41.04 161.05 37.83 164.60 34.04 167.88 C 35.64 170.54 37.28 173.15 38.98 175.74 C 39.73 171.05 40.91 164.15 45.52 161.62 C 48.65 160.16 51.57 162.63 51.04 165.95 C 49.94 171.42 45.45 175.39 40.91 178.21 C 44.22 182.12 47.73 185.46 51.77 188.61 C 53.30 186.84 54.82 185.06 56.34 183.28 C 53.73 180.63 51.09 178.02 48.46 175.40 C 63.92 175.36 79.38 175.31 94.83 175.42 C 94.98 177.58 95.09 179.73 95.18 181.89 C 98.57 181.85 101.95 181.85 105.34 181.89 C 105.36 179.75 105.39 177.61 105.44 175.47 C 120.94 175.25 136.45 175.38 151.94 175.40 C 149.33 178.02 146.70 180.63 144.07 183.24 C 145.59 185.06 147.12 186.87 148.67 188.66 C 152.65 185.48 156.15 182.10 159.51 178.26 C 154.84 175.21 150.70 171.71 149.35 166.03 C 148.79 162.55 152.02 160.01 155.18 161.76 C 159.54 164.39 160.59 171.16 161.56 175.71 C 163.16 173.11 164.77 170.52 166.33 167.90 C 162.26 164.38 158.92 160.44 157.92 154.99 C 157.37 152.70 158.54 149.63 161.15 149.36 C 163.25 149.12 164.33 150.73 165.81 151.90 C 167.25 150.84 167.71 149.55 169.74 150.21 C 171.81 150.96 170.42 154.42 170.62 156.04 C 169.45 155.68 168.29 155.26 167.13 154.84 C 167.68 157.90 168.13 160.96 168.79 164.00 C 169.28 161.87 169.59 159.77 169.53 157.57 C 170.24 156.78 170.96 156.02 171.69 155.26 C 172.25 153.45 172.80 151.64 173.35 149.83 C 168.76 148.25 163.16 145.81 160.33 141.66 C 158.90 139.55 159.08 136.88 161.50 135.65 C 164.60 134.46 166.67 136.03 169.10 137.70 C 169.91 136.71 170.40 134.24 172.00 134.66 C 174.33 133.94 174.60 138.47 175.28 139.76 C 175.82 137.06 176.16 134.32 176.53 131.59 C 171.80 130.32 166.62 128.52 163.50 124.51 C 161.92 122.45 162.08 119.82 164.39 118.43 C 166.78 117.14 168.51 118.43 170.76 119.20 C 171.48 117.93 171.49 116.51 173.09 116.10 C 176.10 115.31 176.01 119.30 176.91 121.18 C 176.84 119.01 176.78 116.85 176.77 114.68 C 171.71 113.05 165.00 110.10 162.55 105.07 C 161.35 101.76 163.71 99.30 167.05 99.77 C 171.44 100.47 174.16 106.01 176.49 109.32 C 176.08 106.75 175.57 104.22 174.64 101.79 C 172.58 101.44 170.60 102.55 169.81 99.97 C 168.76 98.78 170.96 97.43 171.55 96.41 C 172.57 96.89 173.59 97.37 174.61 97.85 C 174.36 97.02 174.11 96.19 173.86 95.35 C 168.65 94.77 162.30 93.42 158.59 89.40 C 156.92 87.48 156.58 84.50 159.40 83.46 C 164.50 81.66 168.42 84.94 171.99 88.09 C 170.97 85.72 169.94 83.36 168.81 81.04 C 167.72 81.55 166.64 82.06 165.55 82.57 C 164.35 81.42 162.88 80.92 163.32 78.93 C 163.74 77.04 166.44 77.50 167.85 77.04 C 164.97 73.68 160.83 72.40 158.05 68.96 C 156.22 66.73 154.43 63.45 155.70 60.55 C 157.20 58.10 160.06 58.34 162.22 59.77 C 165.96 62.47 166.79 66.70 167.24 71.02 C 167.41 74.29 168.97 76.80 170.42 79.62 C 170.05 78.57 169.67 77.51 169.30 76.45 C 170.49 75.47 171.32 74.47 173.01 74.49 C 174.40 75.30 174.94 76.50 174.65 78.08 C 173.62 78.95 172.55 79.76 171.44 80.52 C 171.78 82.80 172.43 85.01 173.09 87.23 C 173.57 84.30 173.67 80.97 175.36 78.46 C 176.47 76.66 178.56 74.88 180.82 75.31 C 183.25 76.12 183.72 78.76 183.42 81.02 C 182.53 86.43 179.43 91.20 175.60 95.01 C 176.39 98.56 177.03 102.11 177.57 105.70 C 179.08 101.87 181.16 97.13 186.06 97.34 C 188.87 97.51 189.14 100.63 188.57 102.81 C 187.05 107.81 182.53 111.97 178.34 114.87 C 178.47 116.82 178.59 118.77 178.80 120.72 C 179.40 119.27 179.40 114.51 182.02 115.45 C 183.83 115.16 183.93 117.93 184.47 119.15 C 186.70 118.42 189.05 117.35 191.29 118.66 C 193.28 120.07 192.94 122.84 191.52 124.53 C 188.30 128.45 182.98 130.34 178.18 131.45 C 177.76 135.74 177.16 140.00 176.31 144.23 C 179.61 140.30 183.42 136.49 189.06 137.71 C 191.69 138.56 192.35 141.54 190.59 143.60 C 187.06 147.81 180.23 149.41 175.00 150.04 C 174.59 151.72 174.16 153.38 173.69 155.04 C 174.53 154.05 175.40 151.15 176.96 151.65 C 179.58 151.68 180.27 154.79 178.55 156.49 C 177.05 156.69 175.48 156.56 173.96 156.67 C 172.24 158.16 171.46 160.81 170.44 162.81 C 173.20 161.05 175.53 159.21 178.94 158.94 C 181.56 158.76 184.22 159.30 185.40 161.93 C 185.64 164.07 184.56 165.63 182.76 166.63 C 178.16 169.13 172.91 169.09 167.83 168.69 C 166.48 170.98 165.09 173.23 163.62 175.45 C 167.86 173.83 173.74 172.31 177.74 175.22 C 180.50 177.50 179.04 181.07 175.88 181.85 C 171.04 182.83 165.37 181.10 160.92 179.12 C 157.58 183.67 152.73 186.69 149.41 191.16 C 139.06 191.24 128.71 191.21 118.35 191.17 C 118.33 192.92 118.30 194.66 118.26 196.40 C 106.30 196.74 94.31 196.54 82.35 196.51 C 82.17 194.74 82.03 192.96 81.88 191.19 C 71.57 191.20 61.25 191.23 50.94 191.18 C 47.61 186.73 42.84 183.62 39.47 179.14 C 35.08 181.04 29.66 182.71 24.86 181.95 C 21.71 181.33 19.90 177.93 22.44 175.45 C 26.21 172.20 32.62 173.87 36.76 175.37 C 35.30 173.18 33.91 170.96 32.57 168.69 C 27.59 169.07 22.72 169.13 18.12 166.89 C 16.26 165.90 14.74 164.40 15.13 162.11 C 15.31 160.03 18.16 158.98 19.95 158.91 C 24.03 158.70 26.76 160.74 30.01 162.78 C 28.93 160.57 27.84 158.38 26.45 156.35 C 24.82 156.33 22.28 157.58 21.26 155.72 C 20.79 153.73 20.95 152.33 23.03 151.49 C 25.49 151.69 25.79 153.49 27.00 155.19 C 26.44 153.48 25.90 151.76 25.37 150.04 C 20.45 149.45 14.97 148.09 11.05 144.92 C 9.55 143.60 7.91 141.25 9.32 139.33 C 10.64 137.06 13.83 137.25 16.02 137.87 C 19.58 138.97 21.62 141.49 24.06 144.10 C 23.21 139.91 22.64 135.72 22.26 131.46 C 17.50 130.38 12.49 128.57 9.13 124.86 C 7.61 123.05 6.90 120.59 8.92 118.83 C 11.01 117.22 13.83 118.44 16.02 119.17 C 16.40 117.49 16.28 116.27 17.91 115.30 C 18.96 115.64 20.00 116.01 21.02 116.40 C 21.14 117.94 21.29 119.48 21.49 121.01 C 21.82 118.94 21.89 116.86 21.98 114.77 C 17.81 111.93 14.21 108.56 12.17 103.86 C 11.37 101.79 11.06 99.45 12.87 97.81 C 14.70 96.81 16.83 97.39 18.40 98.59 C 20.69 100.31 21.75 103.07 22.96 105.55 C 23.34 101.98 24.03 98.47 24.84 94.97 C 20.74 91.11 17.45 85.67 16.85 80.01 C 16.79 77.32 18.47 74.41 21.55 75.46 C 26.38 77.48 26.79 82.60 27.15 87.17 C 27.79 85.20 28.70 83.13 28.91 81.08 C 27.64 79.27 25.38 78.52 25.71 76.08 C 26.49 74.97 27.60 74.44 29.04 74.49 C 30.90 75.69 30.56 77.14 30.84 79.06 C 32.05 75.63 33.18 72.49 33.44 68.80 C 33.94 64.29 36.77 58.53 42.03 58.70 Z" fill="#020000"/>
<path d="M 68.81 60.07 C 71.42 60.09 74.13 59.93 76.72 60.33 L 77.80 62.27 C 75.01 63.44 71.82 63.09 68.82 63.16 C 68.82 62.13 68.81 61.10 68.81 60.07 Z" fill="#000000"/>
<path d="M 43.53 60.34 C 44.04 66.91 39.46 70.03 34.48 73.10 C 35.05 69.34 35.19 64.92 37.97 61.99 C 39.53 60.30 41.43 60.61 43.53 60.34 Z" fill="#008b3d"/>
<path d="M 157.01 61.02 C 159.43 59.46 161.60 60.93 163.14 62.88 C 165.17 65.63 165.51 69.81 166.01 73.10 C 161.62 70.46 156.23 66.93 157.01 61.02 Z" fill="#008b3d"/>
<path d="M 68.82 64.77 C 71.23 64.92 74.30 64.41 76.54 65.31 C 76.96 66.29 77.36 67.27 77.73 68.27 C 74.75 68.47 71.78 68.51 68.80 68.52 C 68.81 67.27 68.81 66.02 68.82 64.77 Z" fill="#010000"/>
<path d="M 84.31 68.26 C 85.19 68.12 86.09 68.02 87.00 67.98 C 87.15 69.34 86.79 70.43 85.94 71.23 C 84.26 70.16 83.35 70.60 84.31 68.26 Z" fill="#857704"/>
<path d="M 105.94 68.00 C 106.89 68.03 107.84 68.11 108.78 68.24 C 109.59 70.33 108.30 71.34 106.31 70.73 C 106.13 69.83 106.00 68.92 105.94 68.00 Z" fill="#897a05"/>
<path d="M 133.88 67.80 C 135.86 67.98 137.36 68.24 136.63 70.60 C 135.83 70.77 135.03 70.89 134.21 70.96 C 134.05 69.91 133.94 68.86 133.88 67.80 Z" fill="#897b04"/>
<path d="M 19.12 77.05 C 21.78 76.41 23.43 78.39 24.42 80.57 C 25.96 84.42 25.33 88.95 24.93 92.96 C 21.51 88.94 17.10 82.53 19.12 77.05 Z" fill="#008b3d"/>
<path d="M 180.99 76.74 C 181.62 78.11 182.07 79.41 181.79 80.94 C 181.06 85.59 178.61 89.35 175.46 92.74 C 175.06 88.36 174.19 82.75 176.92 78.92 C 177.90 77.42 179.30 77.02 180.99 76.74 Z" fill="#008c3d"/>
<path d="M 57.85 77.41 C 86.05 77.35 114.24 77.40 142.43 77.38 C 142.45 102.59 142.40 127.80 142.46 153.00 C 142.34 154.90 142.66 156.89 141.35 158.43 C 139.34 158.98 137.08 158.90 135.00 158.92 C 126.66 158.80 118.34 159.23 110.00 158.95 C 106.36 158.74 103.35 159.93 100.20 161.60 C 96.13 159.21 92.71 158.71 88.00 158.96 C 81.00 159.24 74.01 158.78 67.00 158.92 C 64.34 158.88 61.32 159.12 58.77 158.28 C 57.87 156.34 57.88 154.10 57.83 152.00 C 57.89 127.14 57.84 102.27 57.85 77.41 Z" fill="#030000"/>
<path d="M 74.90 79.07 C 80.48 78.82 86.10 78.95 91.71 78.92 C 91.75 84.05 91.72 89.17 91.74 94.30 C 86.13 94.31 80.51 94.29 74.90 94.31 C 74.90 89.23 74.91 84.15 74.90 79.07 Z" fill="#ffffff"/>
<path d="M 108.61 78.92 C 114.22 78.92 119.83 78.92 125.45 78.92 C 125.48 84.04 125.46 89.17 125.47 94.29 C 119.84 94.31 114.22 94.30 108.60 94.30 C 108.60 89.17 108.59 84.05 108.61 78.92 Z" fill="#ffffff"/>
<path d="M 35.17 85.18 C 37.70 84.15 39.95 85.15 42.47 85.64 C 39.01 91.65 33.22 92.77 26.88 93.74 C 29.12 90.24 31.08 86.76 35.17 85.18 Z" fill="#008b3d"/>
<path d="M 159.00 85.12 C 161.27 84.60 163.49 84.38 165.68 85.36 C 169.32 86.96 171.46 90.51 173.56 93.68 C 168.83 92.97 163.84 92.20 160.20 88.78 C 159.07 87.75 158.97 86.57 159.00 85.12 Z" fill="#008b3d"/>
<path d="M 59.62 94.44 C 64.70 94.16 69.84 94.44 74.93 94.35 C 74.94 99.94 74.84 105.56 75.04 111.15 C 80.60 111.10 86.15 111.15 91.71 111.09 C 91.75 116.71 91.73 122.33 91.72 127.95 C 86.10 127.93 80.51 127.84 74.90 128.10 C 74.95 133.67 74.92 139.24 74.92 144.81 C 80.54 144.85 86.15 144.83 91.77 144.84 C 91.77 139.20 91.78 133.56 91.75 127.92 C 97.36 127.91 102.97 127.85 108.57 127.98 C 108.55 133.62 108.55 139.26 108.56 144.89 C 102.95 144.85 97.34 144.87 91.73 144.87 C 91.73 149.02 91.73 153.17 91.73 157.32 C 86.12 157.31 80.51 157.33 74.91 157.30 C 74.90 153.15 74.91 149.01 74.89 144.86 C 69.76 144.87 64.63 144.85 59.50 144.90 C 59.49 139.24 59.49 133.58 59.50 127.92 C 64.63 127.89 69.76 127.90 74.89 127.91 C 74.91 122.32 74.90 116.73 74.90 111.14 C 69.76 111.16 64.62 111.17 59.49 111.14 C 59.59 105.58 59.30 99.99 59.62 94.44 Z" fill="#ffffff"/>
<path d="M 108.55 94.33 C 108.56 99.93 108.56 105.53 108.56 111.13 C 102.96 111.17 97.36 111.16 91.76 111.15 C 91.78 105.55 91.77 99.95 91.77 94.35 C 97.36 94.34 102.96 94.36 108.55 94.33 Z" fill="#ffffff"/>
<path d="M 125.51 94.33 C 130.62 94.36 135.72 94.35 140.83 94.34 C 140.85 99.95 140.85 105.55 140.83 111.16 C 135.72 111.15 130.62 111.17 125.51 111.13 C 125.51 105.53 125.51 99.93 125.51 94.33 Z" fill="#ffffff"/>
<path d="M 18.34 100.65 C 21.49 104.02 21.79 108.87 22.29 113.21 C 17.53 109.28 13.10 105.62 12.99 98.91 C 15.01 99.22 16.86 98.99 18.34 100.65 Z" fill="#008b3d"/>
<path d="M 187.26 98.68 C 187.52 105.49 182.90 109.34 178.06 113.21 C 178.60 109.09 178.96 104.09 181.87 100.86 C 183.25 99.18 185.28 99.18 187.26 98.68 Z" fill="#008b3d"/>
<path d="M 36.40 104.32 C 34.45 108.79 28.41 111.21 24.18 112.88 C 26.12 108.98 28.56 103.66 32.66 101.62 C 34.57 100.50 37.47 101.95 36.40 104.32 Z" fill="#008b3d"/>
<path d="M 167.46 101.50 C 171.78 103.38 174.22 108.91 176.14 112.88 C 172.05 111.19 166.41 108.93 164.23 104.79 C 162.83 102.48 165.32 100.45 167.46 101.50 Z" fill="#008b3d"/>
<path d="M 108.59 111.10 C 114.21 111.14 119.84 111.14 125.47 111.09 C 125.47 116.72 125.46 122.34 125.47 127.96 C 119.84 127.91 114.21 127.90 108.57 127.97 C 108.61 122.34 108.60 116.72 108.59 111.10 Z" fill="#ffffff"/>
<path d="M 14.65 120.38 C 18.40 122.27 20.09 126.28 21.86 129.83 C 16.34 127.97 10.47 126.58 8.80 120.18 C 10.88 119.94 12.69 119.32 14.65 120.38 Z" fill="#008b3d"/>
<path d="M 17.52 119.65 C 19.43 120.41 20.76 121.67 22.15 123.11 C 22.07 124.17 21.99 125.22 21.91 126.28 C 20.33 124.13 18.74 122.03 17.52 119.65 Z" fill="#9f9d9d"/>
<path d="M 32.98 119.63 C 35.24 119.12 37.02 120.64 35.98 122.89 C 33.84 126.83 28.25 128.58 24.28 129.91 C 26.20 126.06 28.30 120.72 32.98 119.63 Z" fill="#008b3d"/>
<path d="M 170.09 120.86 C 173.11 123.14 174.52 126.64 176.12 129.94 C 172.28 128.61 167.76 127.20 165.06 123.96 C 164.09 122.75 163.91 121.85 164.29 120.35 C 166.22 118.92 168.31 119.60 170.09 120.86 Z" fill="#008b3d"/>
<path d="M 183.10 119.47 C 181.64 122.15 179.97 124.35 177.73 126.43 C 178.69 122.87 179.38 120.79 183.10 119.47 Z" fill="#a09d9d"/>
<path d="M 191.36 119.81 C 190.84 126.41 183.69 128.08 178.51 129.80 C 180.27 126.39 182.00 122.50 185.50 120.53 C 187.22 119.52 189.43 119.84 191.36 119.81 Z" fill="#008b3d"/>
<path d="M 27.98 120.33 C 26.62 122.92 25.05 125.36 23.07 127.52 C 23.33 125.86 23.43 123.88 24.21 122.35 C 24.92 121.18 26.80 120.90 27.98 120.33 Z" fill="#a5a3a3"/>
<path d="M 172.49 120.49 C 173.58 120.81 174.66 121.15 175.74 121.50 C 176.82 123.48 177.05 125.49 177.22 127.71 C 175.50 125.39 173.97 122.95 172.49 120.49 Z" fill="#bdbbba"/>
<path d="M 125.51 127.93 C 130.61 127.89 135.71 127.90 140.81 127.90 C 140.86 133.56 140.84 139.22 140.84 144.88 C 135.73 144.86 130.62 144.85 125.51 144.89 C 125.51 139.24 125.51 133.58 125.51 127.93 Z" fill="#ffffff"/>
<path d="M 34.45 137.48 C 36.36 136.74 39.17 136.26 39.48 139.02 C 38.02 143.94 31.46 146.42 27.16 148.10 C 28.77 144.32 30.49 139.42 34.45 137.48 Z" fill="#008b3d"/>
<path d="M 166.35 137.67 C 170.13 139.92 171.65 144.30 173.21 148.16 C 169.21 146.53 164.52 144.68 161.87 141.10 C 160.97 139.84 160.88 138.85 161.35 137.38 C 163.09 136.81 164.73 136.69 166.35 137.67 Z" fill="#008b3d"/>
<path d="M 16.29 139.66 C 20.40 141.32 22.47 144.84 24.78 148.37 C 19.88 147.46 12.43 146.12 10.17 140.97 C 11.31 138.36 14.09 138.98 16.29 139.66 Z" fill="#008b3d"/>
<path d="M 29.92 138.85 C 28.70 141.52 27.37 144.11 25.91 146.65 C 25.75 145.05 25.39 143.31 25.62 141.71 C 25.99 139.57 28.30 139.65 29.92 138.85 Z" fill="#a29f9f"/>
<path d="M 174.70 141.30 C 175.28 142.86 174.74 144.86 174.72 146.49 C 173.07 144.12 171.73 141.58 170.43 139.00 C 172.07 139.63 173.96 139.44 174.70 141.30 Z" fill="#adaaaa"/>
<path d="M 187.92 139.13 C 190.09 139.65 190.47 140.49 189.45 142.48 C 186.42 146.30 180.17 147.57 175.63 148.40 C 178.42 143.97 181.93 138.66 187.92 139.13 Z" fill="#008b3d"/>
<path d="M 108.60 144.86 C 114.22 144.82 119.84 144.82 125.47 144.86 C 125.47 149.01 125.47 153.17 125.46 157.33 C 119.84 157.31 114.22 157.31 108.60 157.32 C 108.60 153.17 108.60 149.01 108.60 144.86 Z" fill="#ffffff"/>
<path d="M 38.94 150.90 C 40.52 151.17 41.04 152.55 40.89 154.01 C 40.51 159.13 37.33 162.70 33.78 166.07 C 33.88 162.24 33.80 157.86 35.33 154.28 C 36.05 152.64 37.04 151.19 38.94 150.90 Z" fill="#008b3d"/>
<path d="M 160.24 151.23 C 162.57 150.25 164.07 152.22 164.99 154.08 C 166.60 157.67 166.55 162.26 166.61 166.12 C 164.25 163.71 161.99 161.52 160.62 158.37 C 159.69 156.01 158.85 153.60 160.24 151.23 Z" fill="#008b3d"/>
<path d="M 33.47 153.78 C 33.20 157.31 32.69 160.80 31.62 164.19 C 30.56 160.06 29.38 156.60 33.47 153.78 Z" fill="#969393"/>
<path d="M 23.02 160.85 C 26.78 161.82 29.20 164.55 31.81 167.23 C 27.17 167.32 19.10 167.68 16.32 163.04 C 17.22 160.15 20.61 160.29 23.02 160.85 Z" fill="#008b3d"/>
<path d="M 180.03 160.51 C 182.13 160.76 185.36 161.59 183.22 164.21 C 179.71 167.55 173.08 167.34 168.58 167.24 C 171.88 163.82 174.88 160.56 180.03 160.51 Z" fill="#008b3d"/>
<path d="M 49.49 165.01 C 48.89 170.35 44.65 173.76 40.55 176.63 C 41.17 172.43 41.83 167.13 44.95 163.94 C 46.53 162.53 49.37 162.19 49.49 165.01 Z" fill="#008b3d"/>
<path d="M 155.74 164.26 C 158.56 167.45 159.27 172.54 159.93 176.60 C 154.88 173.31 150.60 169.47 150.99 162.88 C 152.63 163.18 154.61 162.80 155.74 164.26 Z" fill="#008b3d"/>
<path d="M 178.67 178.02 C 174.15 182.43 167.25 180.14 162.33 177.68 C 168.07 175.43 173.43 173.29 178.67 178.02 Z" fill="#008b3d"/>
<path d="M 26.96 175.26 C 31.03 174.72 34.66 176.40 38.29 177.96 C 34.57 179.35 31.00 180.53 26.97 180.50 C 25.08 180.24 22.94 180.47 22.83 178.00 C 23.27 175.99 25.22 175.59 26.96 175.26 Z" fill="#008b3d"/>
<path d="M 52.23 176.93 C 65.30 176.96 78.38 176.95 91.45 176.94 C 88.49 178.88 85.28 180.50 82.45 182.62 C 81.92 184.85 82.16 187.32 82.08 189.61 C 72.46 189.59 62.84 189.61 53.22 189.60 C 54.97 187.50 56.71 185.40 58.48 183.31 C 56.37 181.21 54.30 179.07 52.23 176.93 Z" fill="#ffffff"/>
<path d="M 108.94 176.93 C 122.02 176.96 135.09 176.95 148.16 176.94 C 146.10 179.04 144.01 181.13 141.94 183.23 C 143.65 185.39 145.41 187.49 147.17 189.60 C 137.55 189.61 127.93 189.58 118.31 189.62 C 118.30 187.33 118.30 185.04 118.29 182.76 C 116.06 181.32 113.79 179.93 111.53 178.54 C 110.67 178.01 109.80 177.47 108.94 176.93 Z" fill="#ffffff"/>
<path d="M 93.43 177.38 C 93.47 178.92 93.49 180.46 93.51 181.99 C 91.02 182.01 88.53 182.03 86.04 182.04 C 87.66 180.97 89.29 179.92 90.94 178.91 C 91.77 178.40 92.60 177.89 93.43 177.38 Z" fill="#d0cfcf"/>
<path d="M 106.95 177.47 C 109.42 178.95 111.87 180.45 114.28 182.04 C 111.82 182.01 109.37 181.98 106.92 181.94 C 106.93 180.45 106.94 178.96 106.95 177.47 Z" fill="#ecebeb"/>
<path d="M 83.73 183.52 C 94.74 183.54 105.75 183.50 116.76 183.54 C 116.74 187.32 116.75 191.11 116.73 194.89 C 105.72 194.82 94.72 194.96 83.71 194.88 C 83.69 191.10 83.71 187.31 83.73 183.52 Z" fill="#ffffff"/>
<path d="M 92.70 184.46 C 92.86 187.96 92.88 191.45 92.43 194.93 C 89.63 193.24 90.65 191.12 90.31 188.34 C 89.53 188.00 88.74 187.66 87.96 187.33 C 88.58 186.88 89.21 186.45 89.85 186.03 C 90.79 185.49 91.74 184.97 92.70 184.46 Z" fill="#4a4848"/>
<path d="M 98.86 186.19 C 99.56 188.22 99.62 191.58 98.48 193.47 C 95.99 195.21 94.76 193.72 93.27 191.64 C 94.41 191.76 95.55 191.93 96.68 192.11 C 96.55 190.01 96.70 187.93 96.64 185.83 C 96.37 187.00 96.10 188.17 95.85 189.34 C 95.70 191.04 94.32 189.93 93.48 189.52 C 93.76 188.04 94.08 186.56 94.44 185.09 C 96.18 185.19 98.04 184.15 98.86 186.19 Z" fill="#0d0b0b"/>
<path d="M 104.79 185.21 C 105.91 187.54 105.78 190.50 105.15 192.95 C 103.85 194.98 102.18 193.65 100.23 193.57 C 100.16 191.06 99.96 188.41 100.37 185.93 C 101.06 184.43 103.50 184.91 104.79 185.21 Z" fill="#0f0d0d"/>
<path d="M 107.03 185.03 C 108.31 184.88 109.59 184.92 110.89 185.14 C 111.40 187.68 111.83 190.64 111.32 193.20 C 110.60 193.74 109.84 194.10 109.03 194.29 C 107.55 194.45 104.39 191.63 106.84 190.84 C 107.91 191.26 108.96 191.70 110.01 192.18 C 109.22 191.18 108.42 190.18 107.62 189.18 C 108.38 188.37 109.15 187.56 109.91 186.75 C 108.61 187.27 107.30 187.80 105.99 188.32 C 106.30 187.21 106.64 186.11 107.03 185.03 Z" fill="#232021"/>
<path d="M 102.05 186.17 C 102.55 186.48 103.05 186.79 103.53 187.12 C 103.64 188.67 103.69 190.22 103.75 191.77 C 103.17 192.11 102.59 192.44 102.00 192.78 C 102.00 190.58 101.95 188.37 102.05 186.17 Z" fill="#817c7d"/>
</svg>
