<?xml version="1.0" encoding="UTF-8" standalone="no"?>
<svg xmlns:dc="http://purl.org/dc/elements/1.1/" xmlns:cc="http://creativecommons.org/ns#" xmlns:rdf="http://www.w3.org/1999/02/22-rdf-syntax-ns#" xmlns:svg="http://www.w3.org/2000/svg" xmlns="http://www.w3.org/2000/svg" xmlns:sodipodi="http://sodipodi.sourceforge.net/DTD/sodipodi-0.dtd" xmlns:inkscape="http://www.inkscape.org/namespaces/inkscape" inkscape:version="1.0 (4035a4f, 2020-05-01)" sodipodi:docname="83.svg" id="svg3985" height="200.0pt" width="200.0pt" viewBox="0 0 200 200" version="1.1">
  <metadata id="metadata3991">
    <rdf:RDF>
      <cc:Work rdf:about="">
        <dc:format>image/svg+xml</dc:format>
        <dc:type rdf:resource="http://purl.org/dc/dcmitype/StillImage"/>
      </cc:Work>
    </rdf:RDF>
  </metadata>
  <defs id="defs3989"/>
  <sodipodi:namedview inkscape:current-layer="svg3985" inkscape:cy="133.33333" inkscape:cx="133.33333" inkscape:zoom="1.75125" showgrid="false" id="namedview3987" inkscape:window-height="480" inkscape:window-width="640" inkscape:pageshadow="2" inkscape:pageopacity="0" guidetolerance="10" gridtolerance="10" objecttolerance="10" borderopacity="1" bordercolor="#666666" pagecolor="#ffffff"/>
  <path style="fill:#ffffff;fill-opacity:0.0242915" id="path3953" fill="#ffffff" d="M 0.00 0.00 L 200.00 0.00 L 200.00 200.00 L 100.23 200.00 C 113.11 195.92 124.73 188.80 133.06 178.03 C 137.95 171.74 141.58 164.42 143.83 156.79 C 145.34 152.01 144.75 147.11 144.84 142.00 C 144.84 101.65 144.81 61.30 144.85 20.95 C 137.33 20.96 129.81 20.89 122.29 21.00 C 121.53 14.96 119.27 9.48 114.52 5.50 C 106.68 -1.52 94.07 -1.71 86.00 5.04 C 80.95 9.00 78.48 14.71 77.70 20.97 C 70.19 20.91 62.67 20.95 55.16 20.95 C 55.20 61.63 55.18 102.32 55.17 143.00 C 55.24 146.98 54.82 151.28 55.74 155.16 C 59.24 169.00 67.57 181.45 79.14 189.83 C 85.40 194.46 92.38 197.51 99.70 200.00 L 0.00 200.00 L 0.00 0.00 Z"/>
  <path id="path3955" fill="#c21f30" d="M 114.52 5.50 C 119.27 9.48 121.53 14.96 122.29 21.00 C 129.81 20.89 137.33 20.96 144.85 20.95 C 144.81 61.30 144.84 101.65 144.84 142.00 C 144.75 147.11 145.34 152.01 143.83 156.79 C 141.58 164.42 137.95 171.74 133.06 178.03 C 124.73 188.80 113.11 195.92 100.23 200.00 L 99.70 200.00 C 92.38 197.51 85.40 194.46 79.14 189.83 C 67.57 181.45 59.24 169.00 55.74 155.16 C 54.82 151.28 55.24 146.98 55.17 143.00 C 55.18 102.32 55.20 61.63 55.16 20.95 C 62.67 20.95 70.19 20.91 77.70 20.97 C 78.48 14.71 80.95 9.00 86.00 5.04 C 94.07 -1.71 106.68 -1.52 114.52 5.50 Z"/>
  <path id="path3957" fill="#ffffff" d="M 101.43 5.07 C 105.23 5.61 108.60 7.24 111.60 9.59 C 108.20 11.02 104.89 11.99 101.22 12.41 C 101.25 9.97 101.22 7.50 101.43 5.07 Z"/>
  <path id="path3959" fill="#ffffff" d="M 98.60 4.89 C 98.65 7.41 98.69 9.93 98.70 12.45 C 95.06 11.99 91.77 11.01 88.40 9.60 C 91.38 7.12 94.87 5.80 98.60 4.89 Z"/>
  <path id="path3961" fill="#ffffff" d="M 88.77 11.84 C 87.84 14.90 86.83 17.77 86.66 21.00 C 86.42 24.83 87.42 28.32 88.66 31.89 C 87.92 32.21 87.17 32.53 86.43 32.86 C 83.34 27.90 81.74 22.57 83.72 16.82 C 84.84 14.45 85.38 11.18 88.77 11.84 Z"/>
  <path id="path3963" fill="#ffffff" d="M 111.21 11.84 L 113.51 11.97 C 118.70 18.25 117.82 26.35 113.54 32.86 C 112.79 32.53 112.04 32.20 111.29 31.87 C 112.45 28.64 113.45 25.48 113.38 22.00 C 113.40 18.38 112.24 15.23 111.21 11.84 Z"/>
  <path id="path3965" fill="#ffffff" d="M 91.00 13.79 C 97.53 15.46 102.44 15.44 108.97 13.79 C 109.66 16.14 110.26 18.52 110.83 20.90 C 103.60 20.91 96.37 20.92 89.14 20.89 C 89.71 18.51 90.32 16.14 91.00 13.79 Z"/>
  <path id="path3967" fill="#ffffff" d="M 89.28 23.60 C 96.45 23.27 103.66 23.56 110.83 23.49 C 110.26 25.84 109.66 28.18 108.97 30.50 C 102.38 28.79 97.58 28.79 90.99 30.52 C 90.32 28.24 89.61 25.96 89.28 23.60 Z"/>
  <path id="path3969" fill="#ffffff" d="M 139.64 27.86 C 139.51 65.24 139.62 102.62 139.58 140.00 C 139.51 144.47 139.85 149.03 139.34 153.48 C 138.20 160.25 135.29 166.78 131.41 172.42 C 123.91 183.38 112.62 190.84 99.98 194.59 C 83.19 189.68 68.88 177.85 62.74 161.24 C 58.92 152.14 60.83 142.73 60.37 132.40 C 86.80 97.55 113.21 62.70 139.64 27.86 Z"/>
  <path id="path3971" fill="#ffffff" d="M 98.70 31.81 C 98.68 34.30 98.67 36.80 98.66 39.30 C 94.73 38.47 91.67 37.20 88.38 34.88 C 91.59 33.20 95.10 32.23 98.70 31.81 Z"/>
  <path id="path3973" fill="#ffffff" d="M 101.25 31.81 C 104.87 32.21 108.37 33.22 111.60 34.90 C 108.27 37.20 105.26 38.48 101.30 39.31 C 101.28 36.81 101.27 34.31 101.25 31.81 Z"/>
  <path id="path3975" fill="#ffffff" d="M 60.51 44.58 C 80.44 44.25 100.55 44.59 120.51 44.43 C 119.17 46.23 117.81 48.02 116.47 49.83 C 99.65 49.94 82.82 49.85 66.00 49.88 C 66.01 69.04 65.99 88.20 66.01 107.36 C 76.54 93.51 87.05 79.63 97.56 65.76 C 90.49 65.77 83.43 65.76 76.36 65.77 C 76.37 63.93 76.37 62.09 76.37 60.24 C 87.08 60.25 97.79 60.25 108.49 60.24 C 92.48 81.43 76.42 102.59 60.35 123.74 C 60.51 97.43 60.19 70.85 60.51 44.58 Z"/>
  <path id="path3977" fill="#c21f30" d="M 134.11 43.80 C 134.09 57.21 134.10 70.62 134.10 84.03 C 132.40 84.03 130.70 84.03 129.00 84.04 C 129.00 75.81 129.00 67.59 129.00 59.37 C 120.18 70.94 111.41 82.56 102.62 94.15 C 102.59 98.60 102.60 103.05 102.62 107.51 C 108.37 108.53 112.46 110.54 116.94 114.23 C 115.77 115.42 114.60 116.61 113.43 117.81 C 109.99 115.16 106.85 113.63 102.63 112.58 C 102.59 116.25 102.61 119.93 102.58 123.61 C 111.37 123.68 120.16 123.61 128.95 123.66 C 128.92 125.41 128.89 127.17 128.87 128.93 C 120.11 128.91 111.35 128.92 102.59 128.92 C 102.62 136.17 102.58 143.42 102.62 150.67 C 107.00 149.59 110.14 148.02 113.62 145.18 C 114.80 146.38 115.99 147.57 117.17 148.77 C 112.58 152.74 108.54 154.57 102.59 155.76 C 102.60 157.51 102.61 159.25 102.62 161.00 C 100.83 161.00 99.04 161.00 97.25 161.00 C 97.26 159.25 97.27 157.51 97.28 155.76 C 94.89 155.17 92.51 154.68 90.25 153.74 C 81.73 150.15 75.57 141.32 75.67 132.00 C 75.42 125.28 78.31 118.75 83.16 114.16 C 87.06 110.39 91.97 108.45 97.25 107.51 C 97.27 102.47 97.28 97.42 97.24 92.38 C 109.53 76.19 121.77 59.96 134.11 43.80 Z"/>
  <path id="path3979" fill="#ffffff" d="M 97.25 112.57 C 97.28 125.27 97.27 137.97 97.25 150.67 C 92.81 149.57 88.73 147.87 85.65 144.37 C 79.01 137.38 79.08 125.71 85.74 118.76 C 88.81 115.28 92.86 113.70 97.25 112.57 Z"/>
  <path id="path3981" fill="#c21f30" d="M 102.06 167.64 C 102.78 167.48 103.49 167.31 104.21 167.14 C 103.91 168.09 103.62 169.04 103.32 170.00 C 105.92 172.37 108.46 174.22 108.97 177.97 C 109.87 183.38 105.72 189.27 100.00 189.11 C 94.64 189.29 90.39 184.20 90.83 178.98 C 90.73 174.04 95.29 172.22 97.56 167.87 C 99.09 167.94 100.54 167.88 102.06 167.64 Z"/>
  <path id="path3983" fill="#ffffff" d="M 99.57 171.26 C 99.88 172.78 99.39 175.18 100.72 176.23 C 102.29 178.05 104.57 179.09 103.93 181.89 C 103.21 184.02 100.97 185.70 99.42 187.26 C 100.07 185.37 101.36 183.12 100.84 181.10 C 99.71 179.05 97.88 177.73 96.68 175.76 C 97.05 173.95 98.40 172.60 99.57 171.26 Z"/>
</svg>