<?xml version="1.0" encoding="UTF-8" standalone="no"?>
<!DOCTYPE svg PUBLIC "-//W3C//DTD SVG 1.1//EN" "http://www.w3.org/Graphics/SVG/1.1/DTD/svg11.dtd">
<svg xmlns="http://www.w3.org/2000/svg" version="1.1" viewBox="0 0 200 200" width="200.0pt" height="200.0pt">
<path d="M 0.00 0.00 L 98.27 0.00 C 89.20 0.74 81.02 5.44 76.16 13.16 C 73.00 17.93 71.93 23.34 71.82 28.98 C 60.22 28.88 48.61 28.99 37.00 28.91 C 34.51 29.05 32.32 28.52 30.36 30.41 C 28.58 31.95 28.80 33.84 28.71 35.98 C 28.74 46.89 28.73 57.80 28.73 68.71 C 27.07 68.71 25.41 68.70 23.75 68.70 C 23.75 78.32 23.76 87.94 23.75 97.57 C 25.41 97.56 27.08 97.56 28.74 97.55 C 28.75 117.37 28.67 137.25 28.77 157.06 C 29.02 163.49 34.44 167.65 39.74 170.26 C 53.84 177.00 72.39 179.01 86.36 187.61 C 91.26 190.73 97.06 194.67 99.71 200.00 L 0.00 200.00 L 0.00 0.00 Z" fill-opacity="0"/>
<path d="M 98.27 0.00 L 101.49 0.00 L 102.48 0.10 L 103.32 0.22 C 113.00 1.31 121.61 7.61 125.64 16.45 C 127.65 20.42 127.97 24.62 128.15 28.99 C 139.77 28.87 151.38 29.00 163.00 28.91 C 165.50 29.05 167.68 28.52 169.66 30.41 C 171.36 31.97 171.22 33.85 171.30 35.98 C 171.27 46.89 171.28 57.80 171.28 68.71 C 172.94 68.71 174.60 68.70 176.27 68.70 C 176.27 78.32 176.26 87.94 176.27 97.56 C 174.60 97.56 172.94 97.56 171.27 97.55 C 171.30 116.71 171.26 135.86 171.29 155.01 C 171.35 157.95 170.89 160.70 169.22 163.16 C 166.53 167.12 161.88 169.66 157.57 171.49 C 143.77 177.24 127.24 179.53 114.30 187.22 C 108.99 190.45 103.27 194.51 100.13 200.00 L 99.71 200.00 C 97.06 194.67 91.26 190.73 86.36 187.61 C 72.39 179.01 53.84 177.00 39.74 170.26 C 34.44 167.65 29.02 163.49 28.77 157.06 C 28.67 137.25 28.75 117.37 28.74 97.55 C 27.08 97.56 25.41 97.56 23.75 97.57 C 23.76 87.94 23.75 78.32 23.75 68.70 C 25.41 68.70 27.07 68.71 28.73 68.71 C 28.73 57.80 28.74 46.89 28.71 35.98 C 28.80 33.84 28.58 31.95 30.36 30.41 C 32.32 28.52 34.51 29.05 37.00 28.91 C 48.61 28.99 60.22 28.88 71.82 28.98 C 71.93 23.34 73.00 17.93 76.16 13.16 C 81.02 5.44 89.20 0.74 98.27 0.00 Z" fill="#000000"/>
<path d="M 101.49 0.00 L 200.00 0.00 L 200.00 200.00 L 100.13 200.00 C 103.27 194.51 108.99 190.45 114.30 187.22 C 127.24 179.53 143.77 177.24 157.57 171.49 C 161.88 169.66 166.53 167.12 169.22 163.16 C 170.89 160.70 171.35 157.95 171.29 155.01 C 171.26 135.86 171.30 116.71 171.27 97.55 C 172.94 97.56 174.60 97.56 176.27 97.56 C 176.26 87.94 176.27 78.32 176.27 68.70 C 174.60 68.70 172.94 68.71 171.28 68.71 C 171.28 57.80 171.27 46.89 171.30 35.98 C 171.22 33.85 171.36 31.97 169.66 30.41 C 167.68 28.52 165.50 29.05 163.00 28.91 C 151.38 29.00 139.77 28.87 128.15 28.99 C 127.97 24.62 127.65 20.42 125.64 16.45 C 121.61 7.61 113.00 1.31 103.32 0.22 L 102.48 0.10 L 101.49 0.00 Z" fill-opacity="0"/>
<path d="M 96.41 2.35 C 101.78 1.37 107.92 2.74 112.68 5.36 C 117.97 8.17 121.41 12.70 124.26 17.84 C 118.04 12.98 110.89 9.77 102.95 9.21 C 99.91 9.06 97.68 7.41 95.13 5.91 C 95.50 4.70 95.88 3.50 96.41 2.35 Z" fill="#ffffff"/>
<path d="M 93.46 2.68 C 93.41 4.15 93.44 5.61 93.53 7.07 C 94.97 8.34 96.83 9.28 98.49 10.23 C 96.62 12.01 93.22 13.96 93.41 16.87 C 93.68 21.15 96.67 23.06 99.08 26.13 C 98.68 31.44 91.23 34.66 87.52 30.44 C 81.91 24.74 80.76 15.07 83.89 7.87 C 86.28 5.32 90.28 4.01 93.46 2.68 Z" fill="#ffffff"/>
<path d="M 102.95 11.26 C 111.14 11.96 120.40 15.76 125.38 22.55 C 126.44 26.08 125.86 30.30 125.76 33.95 C 124.29 32.32 122.76 30.02 120.68 29.21 C 118.56 28.83 116.32 29.02 114.18 29.02 C 112.81 27.40 111.42 25.38 109.59 24.27 C 106.83 23.06 103.16 23.87 100.27 24.17 C 97.99 21.72 95.32 19.73 95.49 16.01 C 97.09 14.02 100.08 10.43 102.95 11.26 Z" fill="#ffffff"/>
<path d="M 80.64 10.34 C 80.13 14.31 79.70 18.12 80.81 22.04 C 81.49 25.84 83.66 28.59 85.44 31.88 C 83.57 35.89 80.35 39.21 75.56 37.63 C 72.77 29.67 73.52 20.57 78.38 13.56 C 79.12 12.48 79.88 11.41 80.64 10.34 Z" fill="#ffffff"/>
<path d="M 101.62 26.11 C 103.87 25.69 106.63 25.32 108.79 26.23 C 110.27 27.25 111.40 28.85 112.58 30.19 C 110.24 35.30 107.48 40.44 102.64 43.60 C 96.59 47.26 90.31 47.74 83.47 48.50 C 80.79 46.09 78.62 43.33 76.59 40.37 C 78.54 39.96 80.89 39.74 82.63 38.71 C 84.52 37.38 85.91 35.08 87.22 33.20 C 90.49 34.55 93.03 35.04 96.28 33.26 C 99.68 31.86 100.08 29.04 101.62 26.11 Z" fill="#ffffff"/>
<path d="M 36.99 30.94 C 48.60 31.01 60.20 31.01 71.80 30.98 C 72.97 38.39 76.16 45.10 82.06 49.89 C 91.86 58.27 107.35 58.45 117.37 50.35 C 123.57 45.56 127.00 38.69 128.19 31.03 C 140.79 30.94 153.39 31.04 166.00 31.01 C 153.63 43.48 141.41 56.12 129.14 68.70 C 96.36 68.71 63.57 68.71 30.79 68.70 C 30.76 58.47 30.83 48.23 30.73 38.00 C 30.81 36.19 30.60 34.04 31.33 32.36 C 32.42 30.64 35.23 31.13 36.99 30.94 Z" fill="#e43b3b"/>
<path d="M 114.61 31.21 C 117.32 30.93 120.41 30.27 122.21 32.84 C 123.53 34.69 125.03 37.32 123.54 39.49 C 119.38 48.34 109.87 54.54 100.00 54.17 C 94.83 54.38 90.39 52.76 85.90 50.39 C 93.06 49.53 101.50 48.18 106.85 42.86 C 110.45 39.52 112.18 35.33 114.61 31.21 Z" fill="#ffffff"/>
<path d="M 166.00 31.01 L 167.38 31.02 C 168.52 32.29 169.33 33.07 169.20 34.93 C 169.27 46.18 169.19 57.45 169.22 68.71 C 155.86 68.69 142.50 68.71 129.14 68.70 C 141.41 56.12 153.63 43.48 166.00 31.01 Z" fill="#ffffff"/>
<path d="M 25.83 70.76 C 75.28 70.77 124.73 70.77 174.18 70.76 C 174.18 79.00 174.18 87.25 174.18 95.49 C 124.73 95.48 75.28 95.47 25.83 95.49 C 25.83 87.25 25.83 79.00 25.83 70.76 Z" fill="#ffffff"/>
<path d="M 36.85 75.29 C 40.68 74.96 44.57 75.18 48.42 75.12 C 48.40 76.97 48.37 78.83 48.32 80.69 C 46.31 79.99 44.36 79.22 42.41 78.37 L 42.32 81.41 C 43.39 81.42 44.45 81.42 45.52 81.42 L 45.56 84.26 C 44.40 84.31 43.23 84.37 42.07 84.43 C 42.49 86.65 43.03 88.85 43.51 91.06 C 41.19 91.03 38.87 90.98 36.56 90.90 C 37.00 89.53 37.45 88.18 37.95 86.84 C 38.30 82.76 37.76 79.23 36.85 75.29 Z" fill="#000000"/>
<path d="M 62.35 75.11 C 62.32 77.02 62.29 78.94 62.24 80.85 C 60.24 80.10 58.33 79.18 56.37 78.34 C 56.32 81.45 56.33 84.55 56.32 87.66 C 57.12 87.68 57.92 87.69 58.71 87.71 L 58.79 85.20 C 60.03 85.21 61.27 85.23 62.51 85.24 C 62.52 87.17 62.52 89.10 62.53 91.03 C 59.70 91.03 56.88 91.03 54.05 91.01 C 53.39 90.36 52.73 89.70 52.06 89.05 C 52.12 85.15 51.81 81.17 52.23 77.29 C 53.64 73.88 59.38 75.47 62.35 75.11 Z" fill="#000000"/>
<path d="M 89.68 75.19 C 91.44 75.15 93.20 75.12 94.96 75.08 C 96.25 77.50 97.54 79.92 98.77 82.36 C 100.03 79.94 101.30 77.53 102.59 75.13 C 104.25 75.13 105.90 75.11 107.56 75.13 C 107.44 76.03 107.32 76.92 107.20 77.82 C 105.65 82.03 106.50 86.83 107.66 91.02 C 105.88 91.02 104.10 91.03 102.32 91.03 C 102.32 88.29 102.34 85.54 102.32 82.80 C 101.09 84.96 99.88 87.15 98.69 89.34 C 97.48 87.01 96.25 84.70 95.02 82.40 C 95.00 85.27 95.00 88.15 95.00 91.03 C 93.18 91.03 91.37 91.02 89.56 91.02 C 90.00 89.55 90.45 88.09 90.99 86.65 C 91.36 82.50 90.86 79.15 89.68 75.19 Z" fill="#000000"/>
<path d="M 133.22 75.26 C 136.92 74.98 140.66 75.16 144.38 75.14 C 144.36 77.06 144.33 78.98 144.28 80.89 C 142.50 80.41 141.26 79.91 139.81 78.76 C 139.34 78.69 138.86 78.63 138.39 78.56 C 138.39 79.52 138.39 80.47 138.39 81.43 C 139.53 81.44 140.67 81.45 141.81 81.45 L 141.87 84.39 C 140.71 84.40 139.55 84.40 138.39 84.41 C 138.39 85.49 138.39 86.57 138.39 87.65 C 138.90 87.65 139.40 87.65 139.91 87.66 C 141.32 85.76 142.27 85.73 144.47 85.24 C 144.53 87.17 144.56 89.10 144.59 91.03 C 140.76 91.03 136.93 91.03 133.10 91.02 C 133.53 88.26 134.21 85.80 134.15 83.01 C 134.17 80.38 133.35 77.89 133.22 75.26 Z" fill="#000000"/>
<path d="M 148.94 75.32 C 150.54 75.10 152.17 75.07 153.78 74.98 C 155.32 78.05 156.87 81.10 158.29 84.22 C 158.20 81.18 158.19 78.14 158.20 75.10 C 159.91 75.13 161.62 75.15 163.33 75.18 C 162.06 79.27 161.76 82.50 162.05 86.76 C 162.58 88.16 163.03 89.59 163.46 91.02 C 161.66 91.02 159.85 91.03 158.04 91.04 C 156.48 88.06 154.95 85.08 153.52 82.03 C 153.64 85.03 153.70 88.03 153.76 91.04 C 151.99 91.03 150.21 91.02 148.43 91.02 C 148.90 89.59 149.38 88.17 149.93 86.77 C 149.99 84.34 150.00 81.92 149.99 79.49 C 149.55 78.77 149.12 78.05 148.69 77.32 C 148.75 76.65 148.84 75.98 148.94 75.32 Z" fill="#000000"/>
<path d="M 74.23 75.20 C 78.00 75.10 81.76 75.12 85.52 75.13 C 85.50 77.06 85.46 78.98 85.40 80.91 C 83.64 80.40 82.33 79.88 81.00 78.64 C 80.53 78.63 80.07 78.63 79.61 78.62 C 79.62 79.56 79.63 80.49 79.63 81.42 C 80.76 81.45 81.89 81.47 83.02 81.50 L 83.05 84.37 C 81.91 84.38 80.77 84.40 79.63 84.41 C 79.62 85.46 79.61 86.51 79.61 87.56 C 80.10 87.64 80.59 87.71 81.09 87.78 C 82.53 85.69 83.25 85.75 85.63 85.26 C 85.70 87.18 85.74 89.10 85.77 91.03 C 81.90 91.03 78.03 91.03 74.16 91.02 C 74.52 89.65 74.90 88.28 75.31 86.93 C 75.39 84.38 75.44 81.87 75.16 79.33 C 74.85 77.96 74.54 76.58 74.23 75.20 Z" fill="#000000"/>
<path d="M 111.34 75.19 C 113.08 75.15 114.81 75.12 116.55 75.09 C 117.87 77.50 119.17 79.92 120.43 82.36 C 121.67 79.92 122.94 77.51 124.20 75.08 C 125.92 75.11 127.64 75.14 129.36 75.18 C 128.12 79.21 127.70 82.43 128.06 86.65 C 128.59 88.09 129.04 89.55 129.48 91.02 C 127.63 91.02 125.79 91.03 123.95 91.03 C 123.95 88.22 123.95 85.41 123.94 82.60 C 122.75 84.85 121.56 87.10 120.41 89.37 C 119.20 87.14 117.97 84.92 116.74 82.71 C 116.73 85.48 116.73 88.26 116.74 91.03 C 114.96 91.03 113.17 91.03 111.39 91.02 C 112.73 87.00 113.19 82.89 112.34 78.70 C 112.01 77.53 111.68 76.36 111.34 75.19 Z" fill="#000000"/>
<path d="M 30.79 97.56 C 54.19 97.55 77.60 97.53 101.00 97.58 C 79.05 119.98 57.01 142.58 35.10 165.03 C 32.56 162.48 30.69 159.79 30.80 156.04 C 30.75 136.59 30.81 117.02 30.79 97.56 Z" fill="#e43b3b"/>
<path d="M 101.00 97.58 C 123.73 97.52 146.48 97.58 169.22 97.55 C 169.22 116.71 169.21 135.87 169.24 155.02 C 169.20 157.14 169.14 159.14 168.05 161.03 C 165.92 165.28 160.94 167.79 156.76 169.60 C 144.14 174.85 128.72 177.25 115.94 183.96 C 109.89 187.06 104.60 191.11 100.01 196.13 C 95.24 190.89 89.70 186.78 83.38 183.60 C 73.56 178.60 61.93 175.93 51.46 172.58 C 45.66 170.72 40.04 168.68 35.10 165.03 C 57.01 142.58 79.05 119.98 101.00 97.58 Z" fill="#ffffff"/>
<path d="M 136.13 101.47 C 136.20 105.12 135.87 108.59 137.20 112.07 C 135.46 111.98 133.72 111.80 131.98 111.71 C 133.85 109.46 133.65 107.25 133.82 104.53 C 132.99 104.74 132.16 104.96 131.33 105.17 C 132.28 102.36 133.55 102.35 136.13 101.47 Z" fill="#000000"/>
<path d="M 139.93 102.24 C 142.00 102.02 144.16 102.10 146.24 102.12 C 146.35 105.20 146.91 108.79 145.89 111.74 C 144.12 112.07 142.25 112.14 140.48 111.81 C 140.03 110.76 139.61 109.70 139.23 108.62 C 140.75 109.08 142.26 109.57 143.77 110.08 L 143.88 108.24 C 142.51 108.23 141.13 108.21 139.75 108.19 C 139.59 106.14 139.17 104.22 139.93 102.24 Z" fill="#000000"/>
<path d="M 148.33 102.30 C 150.21 101.81 152.13 101.83 154.03 102.21 C 154.58 103.63 154.70 105.25 154.97 106.74 C 153.93 107.67 152.89 108.60 151.83 109.51 C 153.40 110.03 154.67 110.46 155.89 111.63 C 153.06 112.04 150.22 112.04 147.37 111.89 C 149.19 109.21 151.52 107.28 152.49 104.08 L 150.43 103.92 L 150.29 106.03 L 147.54 105.89 C 147.76 104.68 148.02 103.48 148.33 102.30 Z" fill="#000000"/>
<path d="M 156.31 101.92 C 158.50 101.92 160.69 101.92 162.88 101.92 L 162.94 104.07 C 161.37 104.01 159.78 103.98 158.19 103.98 C 159.79 104.65 161.56 105.10 163.05 105.99 C 163.20 107.57 163.24 109.20 163.01 110.77 C 161.90 112.65 158.74 111.81 156.85 112.12 C 156.47 110.77 156.11 109.41 155.75 108.05 C 157.31 108.70 158.82 109.44 160.33 110.19 C 160.31 109.18 160.30 108.16 160.30 107.15 C 158.94 107.16 157.58 107.18 156.23 107.19 C 156.25 105.44 156.28 103.68 156.31 101.92 Z" fill="#000000"/>
<path d="M 142.17 104.22 C 143.93 102.99 144.89 105.96 142.93 106.34 C 141.83 105.96 141.58 105.25 142.17 104.22 Z" fill="#ffffff"/>
<path d="M 90.88 149.22 C 92.52 149.25 94.15 149.26 95.79 149.28 C 95.78 150.76 95.77 152.24 95.77 153.72 L 97.63 153.74 C 97.63 152.24 97.63 150.75 97.63 149.25 C 99.22 149.26 100.82 149.26 102.42 149.26 C 102.41 150.75 102.41 152.24 102.40 153.72 L 104.32 153.71 C 104.31 152.23 104.30 150.76 104.29 149.28 C 105.89 149.26 107.48 149.25 109.08 149.23 C 109.09 150.93 109.09 152.64 109.09 154.34 C 108.26 154.35 107.42 154.35 106.59 154.35 C 106.59 157.30 106.60 160.25 106.60 163.21 L 109.08 163.14 C 109.08 163.98 109.08 164.81 109.08 165.65 C 103.01 165.62 96.94 165.62 90.87 165.65 C 90.87 164.81 90.87 163.97 90.87 163.13 L 93.44 163.22 C 93.45 160.25 93.45 157.29 93.45 154.33 C 92.59 154.34 91.73 154.35 90.86 154.35 C 90.87 152.64 90.87 150.93 90.88 149.22 Z" fill="#000000"/>
<path d="M 55.48 155.25 C 56.52 156.73 57.05 156.92 58.73 157.41 C 57.75 158.86 57.34 159.68 57.37 161.51 C 55.98 161.30 54.72 161.27 53.33 161.45 C 53.18 159.60 52.89 159.01 51.83 157.55 C 53.17 156.90 54.36 156.22 55.48 155.25 Z" fill="#e43b3b"/>
<path d="M 67.33 155.14 C 68.38 156.44 69.18 156.95 70.72 157.52 C 69.64 159.03 69.21 159.67 69.41 161.62 C 67.65 161.08 66.32 161.25 64.56 161.60 C 64.99 160.81 65.41 160.01 65.83 159.22 C 65.03 158.76 64.23 158.31 63.43 157.86 C 64.96 157.11 66.24 156.46 67.33 155.14 Z" fill="#e43b3b"/>
<path d="M 79.94 155.39 L 80.35 157.13 C 81.19 157.10 82.03 157.07 82.86 157.02 C 82.18 158.40 81.58 159.80 81.04 161.24 C 79.57 161.32 78.11 161.39 76.64 161.39 C 77.02 160.64 77.40 159.90 77.78 159.16 C 76.98 158.69 76.17 158.22 75.36 157.76 C 76.94 157.06 78.47 156.31 79.94 155.39 Z" fill="#e43b3b"/>
<path d="M 120.54 155.53 C 121.82 156.42 123.22 157.10 124.62 157.80 C 123.82 158.26 123.01 158.72 122.21 159.18 C 122.61 159.93 123.02 160.67 123.42 161.41 C 121.89 161.39 120.37 161.37 118.84 161.34 C 118.59 159.80 118.07 158.73 117.24 157.43 C 118.68 156.97 119.47 156.63 120.54 155.53 Z" fill="#e43b3b"/>
<path d="M 132.59 155.16 C 133.66 156.21 134.79 156.91 136.13 157.59 C 134.84 159.27 134.71 159.44 134.88 161.66 C 133.12 161.05 132.32 161.04 130.54 161.70 C 130.76 159.71 130.41 159.05 129.30 157.51 C 130.84 156.94 131.57 156.48 132.59 155.16 Z" fill="#e43b3b"/>
<path d="M 144.15 155.14 C 145.57 156.23 147.08 157.06 148.70 157.83 C 147.89 158.28 147.08 158.73 146.27 159.19 C 146.58 159.92 146.89 160.65 147.20 161.38 C 145.73 161.31 144.29 161.31 142.82 161.39 C 142.56 159.71 142.02 158.48 141.17 157.03 C 142.04 157.07 142.91 157.11 143.77 157.13 L 144.15 155.14 Z" fill="#e43b3b"/>
<path d="M 98.35 159.11 C 99.52 158.92 100.71 158.82 101.89 158.70 C 101.91 160.13 101.92 161.55 101.94 162.97 C 100.59 162.93 99.25 162.90 97.90 162.86 C 98.04 161.61 98.12 160.34 98.35 159.11 Z" fill="#ffffff"/>
</svg>