<?xml version="1.0" encoding="UTF-8" standalone="no"?>
<!DOCTYPE svg PUBLIC "-//W3C//DTD SVG 1.1//EN" "http://www.w3.org/Graphics/SVG/1.1/DTD/svg11.dtd">
<svg xmlns="http://www.w3.org/2000/svg" version="1.1" viewBox="0 0 200 200" width="200.0pt" height="200.0pt">
<path d="M 0.00 0.00 L 98.68 0.00 C 82.74 0.63 67.03 4.40 52.96 12.02 C 35.01 21.63 20.12 36.76 10.96 54.95 C 4.42 67.55 1.10 81.28 0.00 95.38 L 0.00 0.00 Z" fill-opacity="0"/>
<path d="M 98.68 0.00 L 101.54 0.00 L 102.57 0.04 L 103.32 0.08 C 118.84 0.85 134.10 4.76 147.76 12.25 C 167.00 22.65 182.61 39.49 191.51 59.47 C 196.29 69.98 198.95 81.20 200.00 92.68 L 200.00 107.63 C 198.44 126.63 191.70 144.94 180.21 160.19 C 163.27 182.94 136.78 197.60 108.51 200.00 L 91.69 200.00 C 73.91 198.34 56.72 192.22 42.20 181.78 C 35.72 177.30 30.26 171.81 24.88 166.09 C 9.75 149.06 1.26 127.03 0.00 104.35 L 0.00 95.38 C 1.10 81.28 4.42 67.55 10.96 54.95 C 20.12 36.76 35.01 21.63 52.96 12.02 C 67.03 4.40 82.74 0.63 98.68 0.00 Z" fill="#d7b161"/>
<path d="M 101.54 0.00 L 200.00 0.00 L 200.00 92.68 C 198.95 81.20 196.29 69.98 191.51 59.47 C 182.61 39.49 167.00 22.65 147.76 12.25 C 134.10 4.76 118.84 0.85 103.32 0.08 L 102.57 0.04 L 101.54 0.00 Z" fill-opacity="0"/>
<path d="M 115.04 4.22 C 135.19 7.28 154.25 16.91 168.64 31.36 C 180.02 42.57 188.39 56.62 193.12 71.86 C 174.94 71.83 156.74 72.06 138.56 71.74 C 139.54 70.23 140.31 67.81 142.16 67.24 C 144.21 66.37 146.36 65.72 148.43 64.91 C 145.10 62.46 141.47 63.77 137.49 62.37 C 132.78 60.54 129.23 56.07 128.63 51.04 C 128.03 45.60 130.61 40.20 135.02 37.02 C 137.39 35.33 140.74 34.76 143.50 33.88 C 142.35 32.68 141.95 31.69 140.07 31.82 C 135.94 31.41 130.13 32.81 126.56 30.43 C 123.46 28.65 123.57 25.26 122.46 22.17 C 120.52 24.30 118.82 27.07 115.96 28.01 C 112.22 29.31 107.42 29.18 104.05 26.92 C 101.95 25.64 101.70 22.10 100.87 19.97 C 97.73 21.97 98.76 25.78 95.42 27.40 C 92.04 29.24 86.85 29.27 83.39 27.63 C 81.08 26.20 79.41 23.88 77.14 22.35 C 76.57 25.21 77.25 27.75 74.66 29.68 C 70.72 33.41 62.97 31.05 57.91 32.00 L 57.39 33.97 C 60.48 35.18 63.71 35.50 66.23 37.75 C 71.03 41.85 73.18 48.72 70.69 54.66 C 68.50 59.85 63.69 63.17 58.02 63.20 C 55.89 63.62 53.46 62.72 52.34 65.03 C 54.54 66.19 57.04 66.62 59.22 67.78 C 60.26 68.93 60.96 70.45 61.73 71.80 C 43.54 72.00 25.34 71.84 7.15 71.88 C 15.40 44.74 35.78 22.00 61.87 10.89 C 78.54 3.72 97.12 1.52 115.04 4.22 Z" fill="#db2c39"/>
<path d="M 98.72 29.84 C 98.90 34.94 98.18 40.37 99.15 45.37 L 101.23 46.55 C 101.80 40.94 101.58 35.42 101.60 29.80 C 104.21 30.82 107.16 32.21 109.99 32.27 C 112.62 32.23 115.34 31.50 117.90 30.91 C 116.13 35.63 113.78 40.22 112.45 45.09 L 114.07 46.51 C 117.41 42.15 118.65 36.24 121.01 31.29 C 124.66 33.62 127.76 34.64 132.06 35.17 C 130.27 37.26 128.13 39.50 127.00 42.02 C 126.02 44.46 125.75 47.24 125.29 49.82 C 108.55 49.93 91.79 49.90 75.04 49.83 C 74.54 47.19 74.15 44.36 73.14 41.86 C 72.03 39.36 69.90 37.16 68.11 35.12 C 72.45 34.67 75.62 33.72 79.21 31.20 C 81.46 36.15 82.91 41.78 85.94 46.30 L 87.81 45.57 C 86.79 40.59 84.20 35.91 82.52 31.11 C 84.96 31.59 87.51 32.20 90.01 32.25 C 92.93 32.22 96.01 30.86 98.72 29.84 Z" fill="#fbbd9f"/>
<path d="M 74.63 52.55 C 91.65 52.58 108.67 52.48 125.69 52.60 C 126.96 55.84 128.09 58.88 130.61 61.39 C 132.84 63.76 135.60 64.79 138.55 65.95 C 137.39 67.88 136.36 69.83 135.42 71.87 C 111.89 71.90 88.36 71.91 64.84 71.86 C 63.89 69.83 62.86 67.87 61.72 65.94 C 64.61 64.80 67.32 63.80 69.53 61.52 C 72.15 58.96 73.31 55.87 74.63 52.55 Z" fill="#ffffff"/>
<path d="M 6.38 75.17 C 9.20 74.75 12.15 74.89 15.00 74.88 C 74.67 74.99 134.37 74.79 194.04 74.98 C 197.69 89.28 198.28 103.29 195.75 117.84 C 132.02 117.86 68.27 117.86 4.53 117.84 C 2.16 103.87 2.36 88.82 6.38 75.17 Z" fill="#ffffff"/>
<path d="M 59.59 81.36 C 62.56 82.41 62.11 86.71 58.94 86.96 C 56.80 87.08 56.37 85.38 55.26 83.96 C 56.57 82.63 57.36 80.64 59.59 81.36 Z" fill="#d7b161"/>
<path d="M 64.83 80.71 C 67.60 80.57 70.37 80.51 73.15 80.49 C 73.18 90.21 73.07 99.92 73.20 109.64 C 74.54 110.16 75.87 110.69 77.20 111.23 C 72.87 111.89 68.87 111.85 64.55 111.23 C 65.94 110.69 67.34 110.17 68.75 109.65 C 68.88 100.65 68.89 91.61 68.74 82.61 C 67.43 81.98 66.13 81.35 64.83 80.71 Z" fill="#d7b161"/>
<path d="M 77.12 80.69 C 79.86 80.55 82.61 80.50 85.36 80.49 C 85.40 90.22 85.26 99.95 85.44 109.68 C 86.79 110.13 88.14 110.58 89.49 111.04 C 85.33 112.11 81.37 111.70 77.15 111.49 C 78.42 110.81 79.71 110.16 80.99 109.49 C 81.33 100.56 81.23 91.57 81.05 82.64 C 79.74 82.00 78.42 81.35 77.12 80.69 Z" fill="#d7b161"/>
<path d="M 10.97 81.90 C 15.13 81.85 19.28 81.84 23.44 81.98 C 22.14 82.67 20.84 83.37 19.54 84.06 C 21.03 90.93 23.20 97.66 25.06 104.45 C 27.84 96.82 29.67 88.77 32.76 81.29 L 34.23 81.33 C 37.64 88.74 39.66 96.82 42.77 104.38 C 44.42 97.60 46.66 90.87 47.75 83.98 C 46.47 83.34 45.20 82.69 43.93 82.04 C 47.02 81.92 50.11 81.87 53.20 81.80 C 51.50 83.43 49.83 84.78 49.20 87.17 C 47.01 94.40 45.32 101.79 43.24 109.06 C 42.83 110.59 41.94 111.77 41.01 113.02 C 37.61 105.07 35.22 96.69 32.13 88.61 C 30.21 93.39 28.82 98.30 27.23 103.19 C 26.00 106.76 25.60 110.12 22.99 113.03 C 19.21 103.51 17.76 93.00 13.68 83.64 C 12.78 83.05 11.88 82.47 10.97 81.90 Z" fill="#d7b161"/>
<path d="M 158.26 81.89 C 163.27 81.76 168.44 81.60 173.42 82.14 C 171.67 82.77 169.89 83.28 168.10 83.76 C 167.63 92.39 167.83 101.10 167.97 109.75 C 169.83 110.18 171.68 110.63 173.53 111.11 C 168.30 111.97 162.96 111.96 157.73 111.14 C 159.49 110.64 161.26 110.18 163.03 109.72 C 163.22 101.03 163.33 92.28 162.96 83.59 C 161.65 83.40 160.33 83.19 159.03 82.95 L 158.26 81.89 Z" fill="#d7b161"/>
<path d="M 174.80 81.80 C 179.41 81.80 184.02 81.79 188.63 81.80 L 188.58 83.20 C 187.15 83.27 185.71 83.33 184.27 83.40 C 183.93 92.21 184.09 101.04 184.17 109.85 C 185.93 110.15 187.68 110.46 189.42 110.82 C 186.64 112.07 183.99 111.65 181.00 111.74 C 178.53 111.66 176.29 112.02 174.08 110.69 C 175.78 110.43 177.49 110.20 179.20 109.99 C 179.23 101.18 179.68 92.25 178.97 83.48 C 177.57 83.33 176.16 83.21 174.75 83.10 L 174.80 81.80 Z" fill="#d7b161"/>
<path d="M 105.94 92.08 C 108.72 94.53 108.98 97.89 109.71 101.30 C 105.13 101.35 100.54 101.35 95.96 101.40 C 96.23 103.82 96.17 106.61 97.15 108.86 C 98.27 111.29 101.37 111.26 103.54 110.49 C 106.39 109.52 106.98 105.93 108.32 103.57 C 108.88 105.35 109.18 106.56 108.25 108.25 C 105.58 113.52 97.32 113.58 93.83 109.16 C 90.75 105.29 90.62 99.17 92.84 94.87 C 95.23 90.20 101.89 88.65 105.94 92.08 Z" fill="#d7b161"/>
<path d="M 126.97 90.27 C 129.58 90.16 130.72 91.87 132.50 93.41 C 134.28 91.97 135.54 90.37 138.02 90.30 C 140.98 90.07 144.19 90.77 144.96 94.07 C 145.65 99.20 145.09 104.53 145.29 109.71 C 146.66 110.21 148.01 110.71 149.37 111.23 C 145.27 111.79 141.24 111.82 137.13 111.47 C 138.35 110.82 139.59 110.20 140.83 109.57 C 141.01 104.46 141.77 98.62 140.32 93.66 C 138.44 91.09 134.21 92.40 133.33 95.29 C 132.00 99.86 132.71 105.19 132.83 109.91 C 134.10 110.25 135.36 110.60 136.62 110.95 C 132.80 112.07 128.44 112.13 124.62 110.96 C 125.83 110.60 127.04 110.26 128.25 109.92 C 128.30 104.70 128.86 99.22 128.01 94.06 C 126.06 90.74 121.49 92.52 120.67 95.79 C 119.66 100.24 120.23 105.14 120.19 109.69 C 121.56 110.19 122.93 110.70 124.30 111.22 C 119.95 111.70 115.90 112.26 111.62 110.99 C 113.00 110.58 114.38 110.19 115.77 109.81 C 115.90 104.14 115.96 98.48 115.67 92.81 C 114.38 92.27 113.08 91.72 111.79 91.17 C 114.53 90.92 117.27 90.70 120.01 90.48 L 119.63 93.38 C 122.04 91.82 123.89 90.07 126.97 90.27 Z" fill="#d7b161"/>
<path d="M 52.53 91.12 C 55.32 90.91 58.12 90.73 60.91 90.52 C 60.81 96.87 60.71 103.16 60.95 109.50 C 62.20 110.15 63.45 110.80 64.69 111.46 C 60.53 111.68 56.62 112.13 52.53 111.05 C 53.85 110.58 55.18 110.12 56.51 109.67 C 56.67 104.06 56.68 98.45 56.51 92.84 C 55.18 92.27 53.85 91.70 52.53 91.12 Z" fill="#d7b161"/>
<path d="M 103.08 92.96 C 104.34 94.92 104.46 97.73 104.88 99.98 C 101.90 100.07 98.92 100.10 95.95 100.11 C 96.35 97.84 96.32 94.73 97.79 92.84 C 99.23 91.13 101.73 91.16 103.08 92.96 Z" fill="#ffffff"/>
<path d="M 0.00 104.35 C 1.26 127.03 9.75 149.06 24.88 166.09 C 30.26 171.81 35.72 177.30 42.20 181.78 C 56.72 192.22 73.91 198.34 91.69 200.00 L 0.00 200.00 L 0.00 104.35 Z" fill-opacity="0"/>
<path d="M 200.00 107.63 L 200.00 200.00 L 108.51 200.00 C 136.78 197.60 163.27 182.94 180.21 160.19 C 191.70 144.94 198.44 126.63 200.00 107.63 Z" fill-opacity="0"/>
<path d="M 5.26 120.90 C 23.89 120.65 42.63 120.87 61.28 120.80 C 61.32 126.87 61.29 132.93 61.26 139.00 C 61.37 142.14 61.15 145.14 63.27 147.71 C 65.17 150.17 67.85 150.39 70.65 151.16 C 71.44 153.60 71.35 156.80 74.23 157.75 C 77.24 158.52 80.60 158.18 83.69 158.25 C 85.46 160.25 87.34 162.58 89.60 164.04 C 91.05 164.88 92.64 165.74 94.27 166.19 C 102.73 168.84 111.41 165.68 116.23 158.30 L 116.40 158.08 C 119.64 158.15 123.50 158.67 126.58 157.53 C 128.91 156.49 128.93 153.31 129.61 151.17 C 132.23 150.45 135.07 150.14 136.89 147.89 C 138.86 145.55 138.87 142.91 138.93 140.01 C 138.92 133.61 138.87 127.21 138.91 120.81 C 157.65 120.79 176.38 120.78 195.12 120.81 C 189.75 145.99 174.02 168.51 152.26 182.25 C 126.22 199.05 92.34 202.05 63.68 190.32 C 34.31 178.57 11.66 151.93 5.26 120.90 Z" fill="#273e84"/>
<path d="M 64.29 120.81 C 88.17 120.79 112.05 120.78 135.92 120.81 C 135.93 126.88 135.91 132.94 136.01 139.00 C 135.90 141.52 136.23 144.30 134.11 146.10 C 132.28 147.95 128.85 147.58 126.47 147.88 C 126.28 149.99 126.39 152.51 125.50 154.46 C 123.35 155.51 120.47 155.10 118.13 155.25 C 117.56 156.20 116.98 157.15 116.40 158.08 L 116.23 158.30 C 113.20 159.17 110.97 160.62 108.52 162.52 C 104.23 165.65 99.39 165.94 94.27 166.19 C 92.64 165.74 91.05 164.88 89.60 164.04 C 96.96 165.22 103.79 164.23 109.81 159.65 C 106.36 158.94 103.41 157.75 99.90 158.86 C 93.60 160.56 86.41 160.64 81.84 155.29 C 79.64 155.04 76.51 155.65 74.68 154.26 C 74.03 152.23 73.97 149.97 73.73 147.86 C 71.17 147.57 67.97 147.95 66.03 145.97 C 64.05 144.18 64.37 141.43 64.25 139.01 C 64.28 132.94 64.30 126.88 64.29 120.81 Z" fill="#ffffff"/>
<path d="M 99.42 128.59 C 107.15 128.67 115.16 132.91 117.47 140.66 C 115.18 138.89 113.38 136.70 111.34 134.68 C 108.97 132.36 106.11 131.11 103.05 129.96 C 101.84 129.51 100.63 129.05 99.42 128.59 Z" fill="#d7b161"/>
<path d="M 94.97 130.15 C 103.29 129.61 110.50 134.52 114.85 141.34 C 110.98 141.92 108.21 140.89 104.90 139.11 C 99.53 136.19 93.77 134.48 87.93 132.80 C 90.24 131.56 92.25 130.25 94.97 130.15 Z" fill="#d7b161"/>
<path d="M 132.02 130.46 C 130.52 132.51 129.31 134.56 128.37 136.93 C 129.96 136.64 131.55 136.33 133.13 136.02 C 134.03 137.38 134.92 138.76 135.81 140.13 C 133.74 142.51 132.58 143.37 129.26 142.78 C 127.24 140.73 126.57 137.31 127.64 134.65 C 128.53 132.92 130.57 131.71 132.02 130.46 Z" fill="#d7b161"/>
<path d="M 72.37 131.91 C 71.42 135.64 70.47 139.38 69.62 143.13 C 68.54 142.90 67.46 142.67 66.38 142.45 C 66.96 142.06 67.54 141.68 68.12 141.30 C 68.82 138.76 69.52 136.22 70.22 133.68 L 66.91 133.39 C 68.73 132.89 70.55 132.40 72.37 131.91 Z" fill="#d7b161"/>
<path d="M 81.68 136.78 C 80.71 137.72 79.74 138.65 78.77 139.59 C 79.09 141.14 80.36 142.78 79.28 144.26 C 77.27 146.48 73.80 145.55 72.55 143.00 C 72.54 141.58 73.98 140.36 74.73 139.22 C 74.69 138.06 74.66 136.89 74.64 135.73 C 77.60 133.40 79.33 134.31 81.68 136.78 Z" fill="#d7b161"/>
<path d="M 123.31 134.65 C 125.77 135.91 126.23 139.48 125.87 141.92 C 125.51 144.46 122.78 145.69 120.96 147.16 C 122.48 145.23 123.72 143.29 124.84 141.10 C 122.62 141.06 119.47 142.42 118.41 139.59 C 116.92 136.20 120.22 133.73 123.31 134.65 Z" fill="#d7b161"/>
<path d="M 78.07 134.86 C 78.77 135.28 79.46 135.73 80.14 136.18 C 79.29 137.30 79.12 138.84 77.45 138.81 C 76.80 137.92 76.17 137.01 75.57 136.07 C 76.40 135.66 77.23 135.25 78.07 134.86 Z" fill="#ffffff"/>
<path d="M 86.77 134.57 C 88.97 134.85 91.04 135.41 93.18 135.94 C 90.60 140.08 88.27 143.96 88.06 148.99 C 87.73 152.39 89.08 155.11 90.44 158.10 C 87.49 156.83 83.74 155.92 82.02 152.95 C 80.37 150.05 80.85 145.89 81.67 142.78 C 82.54 139.88 84.11 136.22 86.77 134.57 Z" fill="#d7b161"/>
<path d="M 123.85 141.09 L 121.04 140.24 C 119.53 138.67 120.07 136.91 120.13 134.96 C 124.16 135.40 123.36 137.85 123.85 141.09 Z" fill="#ffffff"/>
<path d="M 95.22 136.80 C 97.69 137.44 100.10 138.60 102.43 139.62 C 100.64 142.61 98.69 145.46 98.33 149.03 C 98.01 151.87 98.96 154.38 99.69 157.07 C 97.42 157.42 95.15 157.75 92.88 158.10 C 91.45 155.46 90.01 153.12 89.94 150.01 C 89.82 145.25 92.20 140.38 95.22 136.80 Z" fill="#d7b161"/>
<path d="M 132.17 137.05 C 132.77 138.69 134.46 141.63 132.00 142.53 C 129.49 142.55 129.72 139.04 129.00 137.35 C 130.05 137.24 131.11 137.14 132.17 137.05 Z" fill="#ffffff"/>
<path d="M 77.13 144.79 C 74.41 144.93 74.61 144.02 73.43 142.00 C 74.12 141.36 74.83 140.76 75.57 140.18 C 77.57 140.36 79.12 143.25 77.13 144.79 Z" fill="#ffffff"/>
<path d="M 104.14 140.85 C 106.41 141.54 108.68 142.71 110.99 143.11 C 113.39 143.34 116.02 141.95 118.23 141.11 C 118.63 143.11 119.03 145.11 119.43 147.11 C 116.96 148.16 114.77 149.28 112.00 149.22 C 107.97 149.24 104.53 147.80 100.89 146.25 C 101.93 144.39 102.86 142.56 104.14 140.85 Z" fill="#d7b161"/>
<path d="M 100.33 148.19 C 104.09 149.44 108.01 151.10 112.02 151.09 C 114.58 151.04 117.22 149.96 119.64 149.18 C 118.66 152.04 118.42 154.88 115.55 156.52 C 111.25 158.96 105.67 156.96 101.28 155.68 C 100.69 153.17 100.40 150.77 100.33 148.19 Z" fill="#d7b161"/>
<path d="M 116.23 158.30 C 111.41 165.68 102.73 168.84 94.27 166.19 C 99.39 165.94 104.23 165.65 108.52 162.52 C 110.97 160.62 113.20 159.17 116.23 158.30 Z" fill="#d7b161"/>
<path d="M 84.13 168.07 C 85.28 168.19 86.43 168.32 87.59 168.44 C 87.57 173.09 87.58 177.73 87.52 182.38 C 88.05 183.05 88.58 183.72 89.12 184.39 C 85.07 184.28 81.03 184.28 76.98 184.33 C 77.68 183.87 78.39 183.42 79.09 182.96 C 79.09 180.29 79.09 177.61 79.09 174.94 C 78.39 174.52 77.69 174.11 76.99 173.69 C 78.44 173.60 79.88 173.51 81.32 173.42 C 81.31 176.82 81.30 180.22 81.32 183.61 C 82.66 183.56 84.01 183.51 85.35 183.45 C 85.34 179.03 85.56 174.55 85.20 170.14 C 84.85 169.45 84.49 168.76 84.13 168.07 Z" fill="#d7b161"/>
<path d="M 90.01 168.02 C 91.38 168.19 92.75 168.36 94.12 168.52 C 94.03 170.48 93.94 172.43 93.84 174.39 C 96.02 173.65 97.68 172.38 99.70 174.30 C 102.04 176.85 101.89 182.76 98.49 184.40 C 95.61 184.57 92.70 184.21 89.81 184.27 C 90.44 183.82 91.08 183.37 91.71 182.92 C 91.65 178.53 91.85 174.10 91.55 169.71 C 91.04 169.14 90.53 168.58 90.01 168.02 Z" fill="#d7b161"/>
<path d="M 63.48 169.09 C 67.78 169.09 72.08 169.08 76.38 169.04 C 76.35 170.51 76.31 171.98 76.27 173.44 C 75.51 172.23 74.75 171.02 73.99 169.82 C 73.06 169.75 72.13 169.69 71.20 169.63 C 71.19 174.11 71.19 178.59 71.17 183.06 C 71.94 183.46 72.72 183.87 73.49 184.27 C 71.19 184.31 68.88 184.34 66.57 184.38 C 67.28 183.82 67.99 183.25 68.69 182.69 C 68.69 178.35 68.69 174.01 68.68 169.67 C 67.77 169.69 66.86 169.72 65.95 169.75 C 65.14 170.93 64.33 172.12 63.52 173.31 C 63.51 171.90 63.49 170.49 63.48 169.09 Z" fill="#d7b161"/>
<path d="M 80.15 168.51 C 82.06 169.35 82.13 170.40 80.72 171.80 C 79.72 171.44 78.80 170.87 77.97 170.08 L 80.15 168.51 Z" fill="#d7b161"/>
<path d="M 136.46 172.61 C 136.56 173.01 136.66 173.41 136.76 173.82 C 135.30 175.64 134.96 177.90 133.82 179.85 C 132.05 180.80 129.82 180.95 127.91 181.49 C 130.21 182.12 132.58 182.40 134.88 183.03 C 136.35 184.04 136.42 186.92 134.96 187.97 C 131.88 190.27 127.34 189.94 125.36 186.32 C 126.01 185.54 126.66 184.76 127.31 183.98 C 127.38 182.74 127.45 181.49 127.53 180.25 C 126.58 177.90 125.41 175.90 127.94 174.02 C 130.63 173.13 133.67 173.16 136.46 172.61 Z" fill="#d7b161"/>
<path d="M 103.16 173.53 C 104.33 173.50 105.50 173.47 106.67 173.44 C 106.61 176.60 106.43 179.96 106.93 183.08 L 109.10 183.58 C 111.78 182.19 110.87 177.44 111.18 174.91 C 110.39 174.53 109.60 174.14 108.81 173.76 C 110.31 173.64 111.82 173.51 113.32 173.39 C 113.25 176.80 113.24 180.21 113.26 183.61 C 114.64 183.57 116.02 183.52 117.41 183.47 C 117.46 180.04 117.64 176.77 116.32 173.52 C 118.68 173.69 120.96 173.68 123.29 173.29 C 123.81 174.00 124.34 174.72 124.86 175.43 C 124.23 175.88 123.59 176.34 122.96 176.79 C 122.15 175.86 121.34 174.94 120.54 174.02 C 119.87 177.02 119.54 179.95 119.44 183.02 C 120.35 183.43 121.27 183.84 122.18 184.25 C 116.36 184.22 110.53 184.44 104.71 184.36 C 104.52 181.51 104.46 178.65 104.20 175.80 C 103.87 175.04 103.52 174.28 103.16 173.53 Z" fill="#d7b161"/>
<path d="M 131.07 173.43 C 132.92 175.95 133.63 178.00 130.98 180.34 C 127.58 178.89 128.09 175.04 131.07 173.43 Z" fill="#273e84"/>
<path d="M 95.10 174.96 C 96.51 173.73 98.35 174.59 98.52 176.42 C 98.92 178.50 99.02 181.10 97.96 183.01 C 96.75 184.06 94.63 183.36 94.34 181.70 C 93.62 179.70 93.56 176.60 95.10 174.96 Z" fill="#273e84"/>
<path d="M 134.35 186.06 C 133.25 189.17 131.10 188.17 128.43 188.73 C 128.23 187.11 127.46 186.01 128.69 184.60 C 130.76 184.23 133.33 183.65 134.35 186.06 Z" fill="#273e84"/>
</svg>