<?xml version="1.0" encoding="UTF-8" standalone="no"?>
<!DOCTYPE svg PUBLIC "-//W3C//DTD SVG 1.1//EN" "http://www.w3.org/Graphics/SVG/1.1/DTD/svg11.dtd">
<svg xmlns="http://www.w3.org/2000/svg" version="1.1" viewBox="0 0 200 200" width="200.0pt" height="200.0pt">
<path d="M 0.00 0.00 L 42.55 0.00 C 31.76 12.76 20.77 25.35 9.97 38.10 C 15.52 43.81 20.13 49.95 22.25 57.75 C 23.80 64.16 23.21 71.01 19.71 76.70 C 16.18 82.52 12.61 87.89 11.57 94.81 C 10.23 103.42 10.33 113.08 13.73 121.24 C 16.32 127.67 20.79 133.46 25.76 138.24 C 32.75 144.79 40.38 150.28 47.99 156.02 C 60.92 165.86 73.87 175.17 85.89 186.15 C 90.62 190.50 95.71 194.83 99.55 200.00 L 0.00 200.00 L 0.00 0.00 Z" fill-opacity="0"/>
<path d="M 42.55 0.00 L 157.35 0.00 L 158.07 0.84 L 158.58 1.46 C 168.97 13.74 179.54 25.86 189.94 38.13 C 184.01 44.09 179.14 50.81 177.33 59.17 C 176.41 64.77 176.74 70.44 179.50 75.49 C 182.58 81.10 186.28 85.76 187.73 92.18 C 190.29 103.15 189.68 115.98 183.91 125.90 C 179.03 134.44 172.09 140.45 164.49 146.47 C 145.91 160.93 127.00 173.74 109.89 189.89 C 106.57 193.14 103.07 196.36 100.25 200.00 L 99.55 200.00 C 95.71 194.83 90.62 190.50 85.89 186.15 C 73.87 175.17 60.92 165.86 47.99 156.02 C 40.38 150.28 32.75 144.79 25.76 138.24 C 20.79 133.46 16.32 127.67 13.73 121.24 C 10.33 113.08 10.23 103.42 11.57 94.81 C 12.61 87.89 16.18 82.52 19.71 76.70 C 23.21 71.01 23.80 64.16 22.25 57.75 C 20.13 49.95 15.52 43.81 9.97 38.10 C 20.77 25.35 31.76 12.76 42.55 0.00 Z" fill="#1a4990"/>
<path d="M 157.35 0.00 L 200.00 0.00 L 200.00 200.00 L 100.25 200.00 C 103.07 196.36 106.57 193.14 109.89 189.89 C 127.00 173.74 145.91 160.93 164.49 146.47 C 172.09 140.45 179.03 134.44 183.91 125.90 C 189.68 115.98 190.29 103.15 187.73 92.18 C 186.28 85.76 182.58 81.10 179.50 75.49 C 176.74 70.44 176.41 64.77 177.33 59.17 C 179.14 50.81 184.01 44.09 189.94 38.13 C 179.54 25.86 168.97 13.74 158.58 1.46 L 158.07 0.84 L 157.35 0.00 Z" fill-opacity="0"/>
<path d="M 47.26 10.64 C 82.39 10.40 117.66 10.61 152.80 10.54 C 113.08 50.91 73.50 91.26 33.78 131.64 C 29.77 127.53 26.08 123.60 23.73 118.27 C 20.67 111.68 20.67 103.54 21.79 96.50 C 22.97 89.53 27.23 85.26 30.14 79.14 C 33.58 72.10 34.23 63.78 32.50 56.19 C 30.96 49.45 27.69 43.56 23.70 37.98 C 31.60 28.91 39.28 19.63 47.26 10.64 Z" fill="#ffffff"/>
<path d="M 154.06 13.80 C 155.00 14.63 155.91 15.48 156.83 16.33 C 154.98 17.92 153.13 19.51 151.28 21.10 C 157.42 27.45 163.53 33.86 169.99 39.89 C 168.37 41.46 166.78 43.05 165.22 44.67 C 159.42 38.04 153.09 31.86 146.94 25.56 C 145.32 27.45 143.71 29.35 142.10 31.27 C 141.23 30.33 140.36 29.40 139.49 28.47 C 144.54 23.76 149.28 18.77 154.06 13.80 Z" fill="#ffffff"/>
<path d="M 79.69 23.37 C 79.67 25.29 79.66 27.21 79.66 29.13 C 74.77 28.71 69.87 28.45 64.96 28.39 C 64.84 33.05 64.77 37.71 64.79 42.38 C 69.66 42.30 74.52 42.20 79.38 41.86 C 79.38 43.76 79.39 45.65 79.42 47.55 C 74.55 47.22 69.68 47.13 64.80 46.88 C 64.70 54.04 64.86 61.10 65.34 68.24 C 61.74 68.10 58.15 68.10 54.55 68.21 C 55.37 53.29 55.37 38.23 54.54 23.31 C 62.92 23.67 71.31 23.82 79.69 23.37 Z" fill="#ec2027"/>
<path d="M 138.00 30.11 C 144.46 37.54 151.45 44.60 158.62 51.33 C 157.04 52.92 155.47 54.53 153.92 56.17 C 150.77 52.59 147.48 49.13 144.15 45.71 C 141.17 48.53 138.29 51.45 135.47 54.44 C 138.78 57.89 142.16 61.25 145.65 64.52 C 144.05 66.09 142.48 67.69 140.93 69.31 C 134.37 61.98 127.44 54.87 120.26 48.15 C 121.87 46.55 123.45 44.95 125.01 43.31 C 127.59 46.29 130.27 49.16 132.99 52.01 C 135.94 49.08 138.86 46.12 141.74 43.12 C 138.94 40.35 136.12 37.61 133.20 34.98 C 134.16 34.03 135.12 33.09 136.06 32.13 C 136.71 31.46 137.36 30.79 138.00 30.11 Z" fill="#ffffff"/>
<path d="M 176.17 37.96 C 173.09 42.59 170.14 47.15 168.45 52.51 C 165.36 61.62 165.83 72.02 170.46 80.53 C 172.85 85.09 176.25 89.14 177.60 94.17 C 179.02 99.69 179.12 105.64 178.32 111.25 C 177.00 119.17 172.50 125.39 166.85 130.84 C 159.19 138.08 150.10 144.26 141.75 150.75 C 127.22 161.62 112.95 172.34 99.97 185.10 C 88.21 173.69 75.38 163.62 62.25 153.85 C 100.22 115.25 138.15 76.50 176.17 37.96 Z" fill="#ec2027"/>
<path d="M 119.28 50.78 C 120.21 52.19 121.15 53.61 122.09 55.02 C 118.55 55.24 115.55 55.14 113.29 58.33 C 109.67 63.37 112.76 69.56 116.53 73.48 C 120.00 77.05 125.14 79.83 129.97 77.01 C 133.66 74.87 134.50 71.38 135.24 67.46 C 136.05 68.72 136.86 69.98 137.69 71.23 C 135.34 76.28 131.98 80.56 126.61 82.56 C 122.24 84.18 117.38 83.12 113.84 80.19 C 109.42 76.51 105.97 70.92 106.99 64.97 C 108.23 58.16 113.18 53.53 119.28 50.78 Z" fill="#ffffff"/>
<path d="M 100.39 68.24 C 101.28 69.14 102.18 70.04 103.08 70.93 C 100.78 72.97 98.50 75.01 96.21 77.06 C 98.34 79.36 100.50 81.64 102.71 83.88 C 104.76 81.61 106.82 79.33 108.87 77.05 C 109.71 77.98 110.56 78.90 111.40 79.83 C 109.15 81.86 106.95 83.94 104.77 86.03 C 107.26 88.67 109.79 91.27 112.39 93.80 C 114.48 91.55 116.50 89.24 118.46 86.87 C 119.39 87.74 120.31 88.61 121.24 89.49 C 117.35 93.09 113.62 96.82 110.08 100.77 C 103.57 93.28 96.48 86.27 89.33 79.41 C 92.44 76.51 95.49 73.58 98.37 70.45 C 99.04 69.71 99.72 68.98 100.39 68.24 Z" fill="#ffffff"/>
<path d="M 87.00 84.74 C 90.77 84.78 94.04 88.32 94.41 91.95 C 94.37 93.75 93.75 95.58 93.29 97.31 C 98.60 98.83 103.94 100.21 109.32 101.46 C 107.54 103.22 105.78 105.00 104.07 106.82 C 99.06 105.24 94.05 103.65 89.03 102.11 C 92.16 105.58 95.52 108.80 98.97 111.96 C 97.36 113.55 95.76 115.15 94.19 116.78 C 87.70 109.40 80.70 102.35 73.55 95.61 C 76.10 93.13 78.43 90.44 80.96 87.93 C 82.67 86.33 84.50 84.70 87.00 84.74 Z" fill="#ffffff"/>
<path d="M 85.71 90.30 C 88.11 91.56 90.35 94.22 90.43 97.02 C 89.89 98.54 89.03 99.97 88.23 101.38 C 85.41 98.46 82.50 95.60 79.79 92.57 C 81.52 91.40 83.52 88.68 85.71 90.30 Z" fill="#1a4990"/>
<path d="M 150.75 100.07 C 150.20 102.43 149.68 104.80 149.17 107.17 C 147.26 105.35 145.31 103.23 142.86 102.16 C 138.38 100.26 133.06 101.21 129.50 104.52 C 125.40 108.31 124.01 113.59 123.72 119.00 C 123.58 124.19 124.67 129.75 128.37 133.62 C 131.60 137.04 136.40 138.34 140.99 137.54 C 144.69 136.93 147.38 134.93 150.44 132.93 C 149.95 135.01 149.46 137.10 148.99 139.19 C 139.95 142.99 127.55 142.95 119.94 136.09 C 113.89 130.71 112.54 122.64 114.04 114.96 C 115.15 108.50 119.13 102.89 125.08 100.04 C 133.22 96.18 142.56 96.54 150.75 100.07 Z" fill="#ffffff"/>
<path d="M 71.95 97.04 C 72.83 97.96 73.71 98.88 74.59 99.80 C 72.76 101.37 70.96 102.97 69.17 104.58 C 75.31 110.86 81.32 117.33 87.82 123.25 C 86.20 124.84 84.62 126.45 83.05 128.09 C 77.25 121.44 71.03 115.24 64.83 108.97 C 63.19 110.85 61.57 112.76 59.98 114.69 C 59.07 113.78 58.16 112.87 57.25 111.95 C 61.66 107.81 65.96 103.55 70.06 99.10 C 70.69 98.41 71.32 97.73 71.95 97.04 Z" fill="#ffffff"/>
<path d="M 56.00 113.56 C 59.10 116.94 62.09 120.42 65.32 123.68 C 68.14 126.66 71.25 129.79 72.11 133.96 C 72.89 137.70 71.15 140.99 68.67 143.66 C 65.89 146.62 62.19 149.07 57.94 148.45 C 54.50 147.91 52.20 145.48 49.88 143.11 C 46.12 139.12 42.33 135.17 38.36 131.39 C 39.95 129.79 41.51 128.18 43.05 126.55 C 47.89 131.95 52.64 138.17 58.66 142.29 C 62.89 145.42 68.41 141.41 69.23 136.97 C 69.35 133.97 67.10 130.94 65.29 128.72 C 61.50 124.33 57.22 120.36 53.03 116.37 C 54.01 115.43 55.00 114.48 56.00 113.56 Z" fill="#ffffff"/>
</svg>