<?xml version="1.0" encoding="UTF-8" standalone="no"?>
<!DOCTYPE svg PUBLIC "-//W3C//DTD SVG 1.1//EN" "http://www.w3.org/Graphics/SVG/1.1/DTD/svg11.dtd">
<svg xmlns="http://www.w3.org/2000/svg" version="1.1" viewBox="0 0 200 200" width="200.0pt" height="200.0pt">
<path d="M 0.00 0.00 L 95.19 0.00 C 85.39 1.17 75.15 2.26 65.82 5.42 C 49.65 10.34 34.63 19.72 23.26 32.25 C 18.20 47.88 17.74 65.60 19.06 81.87 C 21.22 98.68 25.86 115.48 33.23 130.78 C 46.37 158.23 68.95 181.40 94.87 197.10 C 96.29 198.08 98.02 198.74 99.17 200.00 L 0.00 200.00 L 0.00 0.00 Z" fill-opacity="0"/>
<path d="M 95.19 0.00 L 106.11 0.00 L 106.74 0.17 C 115.24 1.20 123.93 2.12 132.15 4.60 C 149.29 9.32 165.06 18.85 177.13 31.91 C 178.28 33.56 178.43 36.06 179.04 37.98 C 179.97 42.96 181.07 47.95 181.67 52.98 C 182.38 60.62 182.22 68.34 182.08 76.00 C 181.23 89.53 177.97 103.04 173.61 115.85 C 161.10 151.94 133.86 181.44 100.84 200.00 L 99.17 200.00 C 98.02 198.74 96.29 198.08 94.87 197.10 C 68.95 181.40 46.37 158.23 33.23 130.78 C 25.86 115.48 21.22 98.68 19.06 81.87 C 17.74 65.60 18.20 47.88 23.26 32.25 C 34.63 19.72 49.65 10.34 65.82 5.42 C 75.15 2.26 85.39 1.17 95.19 0.00 Z" fill="#11763a"/>
<path d="M 106.11 0.00 L 200.00 0.00 L 200.00 200.00 L 100.84 200.00 C 133.86 181.44 161.10 151.94 173.61 115.85 C 177.97 103.04 181.23 89.53 182.08 76.00 C 182.22 68.34 182.38 60.62 181.67 52.98 C 181.07 47.95 179.97 42.96 179.04 37.98 C 178.43 36.06 178.28 33.56 177.13 31.91 C 165.06 18.85 149.29 9.32 132.15 4.60 C 123.93 2.12 115.24 1.20 106.74 0.17 L 106.11 0.00 Z" fill-opacity="0"/>
<path d="M 130.83 6.43 C 147.90 11.19 163.57 20.29 175.54 33.44 C 182.24 56.40 181.44 81.06 175.00 104.02 C 169.05 126.34 157.87 147.19 142.19 164.19 C 130.41 177.58 116.39 188.41 101.06 197.45 L 99.99 197.66 C 76.51 184.10 56.08 165.29 41.86 142.11 C 32.48 126.74 26.20 109.68 22.90 92.00 C 20.33 80.14 20.00 67.92 20.85 55.85 C 21.84 48.45 22.77 40.32 25.25 33.30 C 40.79 16.35 62.29 6.24 84.98 3.44 C 100.25 1.53 115.95 2.42 130.83 6.43 Z" fill="#ffee00"/>
<path d="M 89.69 4.06 C 99.12 3.67 108.98 3.40 118.28 5.09 L 118.32 6.17 C 115.37 7.11 111.16 5.71 108.01 5.70 C 101.96 4.96 95.48 6.04 89.63 5.33 L 89.69 4.06 Z" fill="#fffcca"/>
<path d="M 88.11 4.36 L 89.30 4.72 L 89.20 5.86 C 66.03 8.02 43.66 17.52 27.81 34.84 C 25.75 41.08 24.65 48.59 23.86 55.17 L 22.72 55.32 L 22.38 54.11 C 23.06 47.36 24.30 40.69 26.19 34.17 C 41.98 16.66 64.80 6.55 88.11 4.36 Z" fill="#fffdd7"/>
<path d="M 118.66 5.72 C 121.75 4.98 125.71 6.62 128.84 7.23 C 145.90 11.53 161.65 20.52 173.79 33.29 C 175.80 36.27 176.02 40.69 176.79 44.16 C 179.77 58.60 179.75 73.48 177.25 87.99 C 173.32 111.49 164.41 133.95 149.94 152.98 C 136.67 170.48 119.91 185.05 100.94 196.09 L 100.02 196.18 C 77.26 183.14 57.48 164.73 43.50 142.48 C 35.24 129.09 29.16 114.37 25.71 99.01 C 21.98 84.89 21.01 70.29 22.08 55.75 L 23.30 55.63 C 23.98 60.82 22.89 66.64 23.39 72.02 C 24.91 99.31 33.87 126.79 49.89 149.06 C 62.40 166.45 78.43 181.11 96.70 192.29 C 97.93 192.94 99.50 194.50 100.94 194.13 C 122.25 181.67 141.04 164.26 154.52 143.53 C 166.55 124.91 173.45 103.88 176.50 82.01 C 178.00 66.28 177.41 50.31 173.00 35.07 C 159.12 19.56 139.28 10.13 118.88 6.84 L 118.66 5.72 Z" fill="#fffcd2"/>
<path d="M 87.98 9.30 C 99.88 8.23 112.31 8.46 124.01 11.12 C 140.86 14.68 156.62 22.97 168.79 35.21 C 170.85 37.03 170.96 40.67 171.63 43.21 C 174.44 55.64 174.56 68.23 173.47 80.87 C 170.47 101.37 164.66 120.97 153.59 138.62 C 152.46 140.28 152.11 142.44 150.04 143.07 C 151.49 139.95 153.36 137.02 154.95 133.96 C 158.21 127.51 160.88 120.82 163.14 113.96 L 163.08 112.88 C 157.01 111.94 149.85 112.81 143.57 112.44 L 143.28 112.13 C 149.84 112.81 156.54 112.03 163.13 112.56 L 163.80 111.89 C 171.29 88.07 172.75 62.79 166.42 38.54 C 159.93 31.23 151.53 25.30 142.80 20.93 C 134.15 16.06 124.06 13.44 114.31 11.85 C 109.18 11.48 104.15 10.63 99.00 10.75 C 95.08 10.86 90.44 10.41 86.73 11.73 C 85.88 13.73 86.34 16.44 86.60 18.58 L 86.09 18.97 C 86.03 16.53 86.47 13.74 85.76 11.39 C 75.98 12.03 66.99 14.80 57.84 18.10 L 56.92 18.35 C 57.82 17.25 58.77 16.63 60.08 16.10 C 68.99 12.49 78.39 10.16 87.98 9.30 Z" fill="#b0da1f"/>
<path d="M 85.76 11.39 C 86.47 13.74 86.03 16.53 86.09 18.97 C 84.15 20.15 82.71 21.74 80.94 23.07 C 74.91 25.28 68.87 27.39 62.85 29.64 C 61.15 29.32 59.74 28.54 57.93 28.70 C 57.90 27.47 57.88 26.23 57.88 25.00 C 59.68 25.73 62.55 28.35 63.41 25.01 C 62.14 22.31 60.23 23.44 57.89 23.28 C 57.90 21.55 57.91 19.82 57.84 18.10 C 66.99 14.80 75.98 12.03 85.76 11.39 Z" fill="#ffed00"/>
<path d="M 99.00 10.75 C 104.15 10.63 109.18 11.48 114.31 11.85 C 114.57 25.14 114.56 38.54 114.31 51.83 C 108.56 49.46 101.81 48.73 95.85 50.73 C 92.49 51.79 90.04 54.30 86.65 55.21 C 85.78 53.32 86.48 50.86 86.14 48.78 C 90.68 43.91 97.35 40.56 100.96 34.96 C 102.71 32.51 102.55 29.86 102.48 27.00 C 102.38 23.22 99.53 20.09 96.09 18.84 C 92.89 17.43 89.89 18.02 86.60 18.58 C 86.34 16.44 85.88 13.73 86.73 11.73 C 90.44 10.41 95.08 10.86 99.00 10.75 Z" fill="#006d2c"/>
<path d="M 114.31 11.85 C 124.06 13.44 134.15 16.06 142.80 20.93 C 142.52 49.91 142.66 79.08 142.76 108.07 C 141.40 96.44 139.15 85.27 134.35 74.52 C 130.77 66.82 126.20 59.76 119.06 54.90 C 117.54 53.78 115.77 53.03 114.31 51.83 C 114.56 38.54 114.57 25.14 114.31 11.85 Z" fill="#ffed00"/>
<path d="M 56.92 18.35 L 57.84 18.10 C 57.91 19.82 57.90 21.55 57.89 23.28 C 55.01 23.17 50.97 24.58 50.96 28.00 C 51.56 31.30 55.48 31.16 57.99 30.31 L 58.11 31.22 C 56.61 32.06 52.75 32.45 52.13 33.90 C 54.16 34.21 56.05 33.90 58.02 33.39 L 58.15 34.06 C 57.03 35.16 55.57 36.28 55.57 38.00 C 55.57 39.74 56.78 40.28 57.90 41.30 C 57.89 64.98 57.91 88.66 57.89 112.33 C 51.61 112.44 45.28 112.52 39.00 112.34 L 38.14 111.90 C 36.33 107.08 34.58 102.14 33.81 97.03 C 32.39 90.84 31.20 84.51 30.81 78.17 C 31.27 74.76 31.02 71.41 30.89 68.00 C 30.72 63.80 31.50 59.91 30.80 55.74 C 31.33 49.27 32.00 42.32 34.15 36.18 C 35.23 32.50 39.04 31.63 40.23 28.21 C 45.47 24.48 51.04 20.96 56.92 18.35 Z" fill="#006d2c"/>
<path d="M 96.09 18.84 C 99.53 20.09 102.38 23.22 102.48 27.00 C 102.55 29.86 102.71 32.51 100.96 34.96 C 97.35 40.56 90.68 43.91 86.14 48.78 C 84.15 50.79 81.90 53.68 85.45 55.57 C 85.85 55.46 86.25 55.34 86.65 55.21 C 90.04 54.30 92.49 51.79 95.85 50.73 C 101.81 48.73 108.56 49.46 114.31 51.83 C 115.77 53.03 117.54 53.78 119.06 54.90 C 126.20 59.76 130.77 66.82 134.35 74.52 C 139.15 85.27 141.40 96.44 142.76 108.07 C 142.91 109.42 143.09 110.78 143.28 112.13 L 143.57 112.44 C 149.85 112.81 157.01 111.94 163.08 112.88 L 163.14 113.96 C 160.88 120.82 158.21 127.51 154.95 133.96 C 153.36 137.02 151.49 139.95 150.04 143.07 C 147.40 147.06 144.75 151.03 141.78 154.79 C 130.64 169.48 116.56 180.69 101.01 190.39 L 99.98 190.56 C 82.32 179.87 66.76 166.15 54.35 149.62 C 37.78 127.72 28.42 100.27 26.62 73.00 C 26.16 60.85 27.37 48.23 30.62 36.51 C 33.45 33.38 36.77 30.62 40.23 28.21 C 39.04 31.63 35.23 32.50 34.15 36.18 C 32.00 42.32 31.33 49.27 30.80 55.74 C 29.27 58.65 30.27 62.78 30.08 66.00 C 30.38 69.87 29.20 74.59 30.81 78.17 C 31.20 84.51 32.39 90.84 33.81 97.03 C 34.58 102.14 36.33 107.08 38.14 111.90 L 39.00 112.34 C 45.28 112.52 51.61 112.44 57.89 112.33 C 67.26 112.46 76.63 112.39 86.00 112.36 C 88.18 112.48 90.59 111.39 92.61 110.61 C 97.60 108.52 102.73 106.73 107.70 104.61 C 108.96 103.44 109.10 100.91 109.47 99.27 C 108.53 97.98 106.57 97.52 105.20 96.78 C 98.48 93.98 91.30 90.31 86.17 85.05 C 84.97 84.00 84.04 81.37 82.42 81.16 C 82.42 82.65 81.99 83.54 81.11 83.82 C 78.05 81.87 76.40 80.14 75.40 76.58 C 73.50 77.64 72.68 75.65 71.52 74.49 C 69.81 72.37 69.45 70.15 69.75 67.48 C 68.89 67.79 68.10 67.84 67.39 67.66 C 65.50 62.30 65.60 56.50 68.51 51.52 C 72.10 45.27 78.89 40.72 84.70 36.73 C 86.14 35.91 86.83 34.67 86.03 33.08 C 84.75 32.39 83.41 31.37 82.01 31.02 C 78.28 31.37 74.56 31.77 70.84 32.24 C 67.79 32.62 64.28 32.30 61.41 33.45 C 60.08 34.97 57.49 36.32 58.30 38.70 C 59.87 40.21 61.25 39.34 62.86 38.55 C 61.74 40.63 59.98 40.75 57.90 41.30 C 56.78 40.28 55.57 39.74 55.57 38.00 C 55.57 36.28 57.03 35.16 58.15 34.06 L 58.62 33.24 L 58.02 33.39 C 56.05 33.90 54.16 34.21 52.13 33.90 C 52.75 32.45 56.61 32.06 58.11 31.22 C 59.49 31.35 60.05 30.98 59.79 30.11 L 57.99 30.31 C 55.48 31.16 51.56 31.30 50.96 28.00 C 50.97 24.58 55.01 23.17 57.89 23.28 C 60.23 23.44 62.14 22.31 63.41 25.01 C 62.55 28.35 59.68 25.73 57.88 25.00 C 55.61 25.08 54.82 25.58 53.47 27.33 C 53.52 27.80 53.76 28.25 54.18 28.68 C 55.39 28.89 56.65 28.89 57.93 28.70 C 59.74 28.54 61.15 29.32 62.85 29.64 C 68.87 27.39 74.91 25.28 80.94 23.07 C 82.71 21.74 84.15 20.15 86.09 18.97 L 86.60 18.58 C 89.89 18.02 92.89 17.43 96.09 18.84 Z" fill="#003716"/>
<path d="M 87.96 20.83 C 91.69 19.91 96.07 20.19 98.68 23.36 C 101.64 26.74 100.91 31.84 98.13 35.09 C 93.64 40.31 85.94 44.25 82.38 50.17 C 80.40 53.35 81.91 57.80 86.00 57.73 C 90.70 57.20 93.98 52.87 98.99 52.54 C 106.41 51.23 113.24 53.26 119.07 57.88 C 125.20 62.26 129.41 69.24 129.29 76.89 C 133.81 82.41 137.98 89.54 138.65 96.74 C 136.58 90.95 132.88 85.66 128.80 81.10 L 128.04 80.82 C 127.28 81.69 125.92 82.22 126.39 83.59 C 133.64 89.92 138.21 98.57 140.66 107.79 C 139.24 106.02 138.59 103.54 137.38 101.59 C 133.94 94.89 129.36 89.37 123.48 84.67 C 122.36 84.95 120.04 84.03 120.16 85.75 C 123.97 88.62 127.53 91.77 130.56 95.47 C 135.61 101.42 138.76 108.27 141.48 115.52 C 140.32 115.64 140.88 113.84 139.93 113.21 C 133.91 102.57 126.70 93.20 115.96 86.96 C 115.29 87.35 114.64 87.78 114.00 88.24 C 103.87 84.45 94.58 79.19 87.17 71.21 C 89.46 76.27 94.57 80.71 99.01 83.96 C 106.26 89.38 114.83 91.62 122.21 96.67 C 127.83 100.39 132.37 105.41 135.93 111.11 C 135.74 112.19 135.85 114.37 134.17 113.96 C 132.32 111.13 130.15 108.58 127.59 106.38 C 119.13 99.00 108.52 96.36 98.81 91.34 C 92.54 88.13 87.05 83.72 83.28 77.71 C 82.67 76.88 82.19 75.54 81.19 75.13 C 80.50 76.28 81.35 80.61 79.28 79.78 C 77.18 76.73 77.04 73.65 76.74 70.10 C 75.47 70.74 74.89 72.41 74.03 73.52 C 70.58 72.09 71.98 66.68 72.99 63.84 C 71.47 63.02 70.35 65.01 68.64 64.59 C 67.28 57.93 69.60 52.01 74.45 47.45 C 80.29 41.27 88.04 38.64 92.60 31.94 L 92.43 30.66 C 90.55 30.89 88.88 31.47 87.02 30.92 C 84.58 30.47 82.96 28.51 83.14 26.00 C 82.99 23.30 85.72 21.60 87.96 20.83 Z" fill="#ffffff"/>
<path d="M 142.80 20.93 C 151.53 25.30 159.93 31.23 166.42 38.54 C 172.75 62.79 171.29 88.07 163.80 111.89 L 163.13 112.56 C 156.54 112.03 149.84 112.81 143.28 112.13 C 143.09 110.78 142.91 109.42 142.76 108.07 C 142.66 79.08 142.52 49.91 142.80 20.93 Z" fill="#006d2c"/>
<path d="M 94.05 25.86 C 93.39 25.70 92.73 25.54 92.08 25.36 C 91.40 25.89 90.72 26.41 90.03 26.92 C 89.03 26.12 88.25 25.03 87.32 24.14 C 89.74 21.39 93.23 22.38 94.05 25.86 Z" fill="#75857b"/>
<path d="M 57.88 25.00 C 57.88 26.23 57.90 27.47 57.93 28.70 C 56.65 28.89 55.39 28.89 54.18 28.68 C 53.76 28.25 53.52 27.80 53.47 27.33 C 54.82 25.58 55.61 25.08 57.88 25.00 Z" fill="#006c2e"/>
<path d="M 80.93 25.04 L 80.97 26.04 C 81.47 28.39 78.79 26.43 78.30 27.71 C 79.26 27.68 80.22 27.68 81.18 27.70 L 81.11 28.93 C 75.81 29.74 70.34 30.67 65.03 30.99 L 65.21 30.23 C 70.50 28.62 75.68 26.73 80.93 25.04 Z" fill="#bcc5c0"/>
<path d="M 57.99 30.31 L 59.79 30.11 C 60.05 30.98 59.49 31.35 58.11 31.22 L 57.99 30.31 Z" fill="#adad05"/>
<path d="M 82.01 31.02 C 83.41 31.37 84.75 32.39 86.03 33.08 C 86.83 34.67 86.14 35.91 84.70 36.73 C 78.89 40.72 72.10 45.27 68.51 51.52 C 65.60 56.50 65.50 62.30 67.39 67.66 C 68.10 67.84 68.89 67.79 69.75 67.48 C 69.45 70.15 69.81 72.37 71.52 74.49 C 72.68 75.65 73.50 77.64 75.40 76.58 C 76.40 80.14 78.05 81.87 81.11 83.82 C 81.99 83.54 82.42 82.65 82.42 81.16 C 84.04 81.37 84.97 84.00 86.17 85.05 C 86.11 94.11 86.43 103.33 86.00 112.36 C 76.63 112.39 67.26 112.46 57.89 112.33 C 57.91 88.66 57.89 64.98 57.90 41.30 C 59.98 40.75 61.74 40.63 62.86 38.55 C 61.25 39.34 59.87 40.21 58.30 38.70 C 57.49 36.32 60.08 34.97 61.41 33.45 C 64.28 32.30 67.79 32.62 70.84 32.24 C 74.56 31.77 78.28 31.37 82.01 31.02 Z" fill="#ffed00"/>
<path d="M 58.02 33.39 L 58.62 33.24 L 58.15 34.06 L 58.02 33.39 Z" fill="#657709"/>
<path d="M 86.14 48.78 C 86.48 50.86 85.78 53.32 86.65 55.21 C 86.25 55.34 85.85 55.46 85.45 55.57 C 81.90 53.68 84.15 50.79 86.14 48.78 Z" fill="#fff500"/>
<path d="M 30.80 55.74 C 31.50 59.91 30.72 63.80 30.89 68.00 C 31.02 71.41 31.27 74.76 30.81 78.17 C 29.20 74.59 30.38 69.87 30.08 66.00 C 30.27 62.78 29.27 58.65 30.80 55.74 Z" fill="#26651a"/>
<path d="M 86.17 85.05 C 91.30 90.31 98.48 93.98 105.20 96.78 C 106.57 97.52 108.53 97.98 109.47 99.27 C 109.10 100.91 108.96 103.44 107.70 104.61 C 102.73 106.73 97.60 108.52 92.61 110.61 C 90.59 111.39 88.18 112.48 86.00 112.36 C 86.43 103.33 86.11 94.11 86.17 85.05 Z" fill="#006d2c"/>
<path d="M 113.14 100.04 C 115.47 99.39 115.56 102.18 113.74 102.91 C 111.54 103.45 111.64 100.83 113.14 100.04 Z" fill="#064b1c"/>
<path d="M 118.90 103.01 C 122.77 105.02 126.14 107.73 129.20 110.82 C 129.75 111.15 129.92 111.71 129.71 112.52 C 124.55 112.29 119.36 112.42 114.19 112.43 C 114.62 110.36 114.59 108.01 114.22 105.93 C 115.92 105.35 117.26 102.82 118.90 103.01 Z" fill="#ffee00"/>
<path d="M 114.22 105.93 C 114.59 108.01 114.62 110.36 114.19 112.43 C 113.13 112.57 112.11 112.80 111.12 113.12 C 109.03 118.86 109.62 124.44 109.52 130.40 C 108.70 130.62 107.88 130.84 107.07 131.07 C 105.98 133.32 110.83 134.76 109.39 137.08 C 108.33 135.72 107.10 134.42 106.21 132.94 C 106.19 131.27 106.33 129.61 106.34 127.94 C 107.13 128.58 107.98 130.20 109.11 129.82 C 109.07 127.30 109.39 124.59 108.96 122.12 L 108.06 121.53 C 109.56 117.12 110.34 112.62 111.41 108.11 C 111.70 106.50 112.95 106.50 114.22 105.93 Z" fill="#006e2d"/>
<path d="M 107.47 109.17 C 106.83 112.12 106.45 115.11 105.64 118.02 C 105.11 120.05 104.38 121.92 104.62 124.06 C 104.01 123.44 103.43 122.80 102.88 122.12 L 103.90 121.85 C 104.36 119.22 106.28 115.51 105.00 113.03 C 102.76 112.32 99.32 112.50 97.06 113.10 C 96.57 114.60 96.21 116.14 95.66 117.62 C 94.70 116.83 93.81 115.95 92.83 115.17 C 89.80 114.88 87.96 119.34 85.33 119.76 C 86.91 117.94 88.65 116.15 90.47 114.57 C 91.84 114.22 93.42 114.72 94.83 114.79 C 96.04 112.56 96.74 112.15 99.16 111.45 C 101.92 110.88 104.68 108.82 107.47 109.17 Z" fill="#00702e"/>
<path d="M 78.86 114.95 C 78.09 116.78 76.43 117.66 77.10 119.79 C 79.50 118.80 80.79 116.92 83.67 117.25 C 81.73 119.73 79.22 120.94 80.08 124.59 C 80.72 124.47 81.35 124.34 81.99 124.22 C 81.59 125.64 81.24 127.99 79.31 127.77 C 78.92 125.55 78.97 123.39 78.85 121.15 C 78.00 121.38 77.15 121.58 76.29 121.74 C 75.46 119.47 75.62 115.00 78.86 114.95 Z" fill="#005121"/>
<path d="M 52.60 121.29 C 54.00 123.97 55.07 126.80 56.55 129.43 C 56.15 130.02 55.67 130.24 55.13 130.10 C 54.64 129.50 54.16 128.89 53.69 128.28 C 52.93 128.02 52.09 127.97 51.18 128.15 C 50.10 129.02 50.04 130.72 48.27 129.88 C 49.59 127.07 50.58 123.66 52.60 121.29 Z" fill="#acbfb4"/>
<path d="M 59.40 121.45 C 62.08 121.19 65.16 122.05 65.55 125.14 C 66.08 128.53 63.32 130.65 60.14 130.42 C 57.70 130.52 58.81 127.49 58.57 126.00 C 58.78 124.50 57.95 122.37 59.40 121.45 Z" fill="#93aa9c"/>
<path d="M 71.39 121.40 C 73.07 120.80 75.54 122.18 76.28 123.72 C 78.13 126.20 75.95 130.09 73.03 130.32 C 70.43 130.85 67.64 128.68 67.76 126.00 C 67.60 123.67 69.33 122.08 71.39 121.40 Z" fill="#a8baaf"/>
<path d="M 84.47 121.46 C 86.29 121.44 88.84 121.37 90.06 122.99 C 91.63 124.38 91.57 127.61 89.94 128.95 C 88.74 130.40 85.86 130.71 84.32 129.71 C 84.22 126.98 84.12 124.18 84.47 121.46 Z" fill="#abbeb3"/>
<path d="M 118.56 121.45 C 118.86 122.58 119.07 123.73 119.21 124.90 C 120.06 124.99 120.92 124.99 121.80 124.89 C 122.23 123.55 121.21 120.88 123.55 121.47 C 124.00 123.89 123.75 126.47 123.79 128.94 C 123.96 129.94 123.36 130.32 121.99 130.07 C 121.98 129.00 121.95 127.94 121.92 126.87 C 118.71 125.12 119.04 127.61 118.80 129.90 C 117.44 130.48 116.84 130.18 116.99 128.99 C 117.02 126.70 116.83 124.35 117.10 122.08 C 117.21 121.50 117.70 121.29 118.56 121.45 Z" fill="#9bb1a4"/>
<path d="M 129.58 121.49 L 130.43 121.54 C 131.58 124.36 133.12 127.11 134.04 130.00 L 133.02 130.27 C 131.40 128.27 131.26 127.51 128.38 128.31 C 127.69 129.93 126.89 130.49 125.99 130.00 C 126.72 127.07 128.58 124.38 129.58 121.49 Z" fill="#b5c5bb"/>
<path d="M 150.56 121.45 C 151.87 121.98 153.14 122.19 152.98 123.95 C 151.49 124.03 150.57 122.74 149.06 123.01 C 146.44 123.61 146.09 127.36 148.42 128.57 C 150.01 129.30 150.95 128.74 151.80 127.38 C 150.48 127.17 149.86 126.67 149.93 125.89 C 151.36 125.40 152.64 125.52 153.76 126.27 C 153.53 130.73 147.89 131.88 145.77 128.15 C 143.43 125.10 147.12 120.52 150.56 121.45 Z" fill="#b6c6bd"/>
<path d="M 93.95 121.93 C 95.30 121.46 96.78 121.39 98.40 121.72 L 98.40 122.93 C 96.79 122.77 95.63 123.13 94.93 124.00 C 95.70 124.78 96.84 125.11 98.34 124.99 L 98.33 126.11 C 97.32 126.19 96.31 126.30 95.31 126.44 C 95.25 127.15 95.25 127.86 95.30 128.58 C 96.34 128.72 97.38 128.83 98.43 128.91 L 98.45 130.13 C 96.91 130.35 95.43 130.29 94.03 129.97 C 93.65 127.41 93.78 124.52 93.95 121.93 Z" fill="#d2dcd6"/>
<path d="M 101.80 122.04 L 102.88 122.12 C 103.43 122.80 104.01 123.44 104.62 124.06 C 105.64 125.13 106.39 126.27 107.77 126.87 C 107.85 125.11 107.43 123.18 108.06 121.53 L 108.96 122.12 C 109.39 124.59 109.07 127.30 109.11 129.82 C 107.98 130.20 107.13 128.58 106.34 127.94 C 105.66 127.22 104.97 126.50 104.26 125.81 L 103.09 125.09 C 102.81 126.33 104.13 130.74 101.87 130.07 C 101.34 127.74 101.53 124.43 101.80 122.04 Z" fill="#dae3de"/>
<path d="M 139.14 121.93 L 139.97 121.77 C 140.88 122.99 141.36 124.27 141.41 125.62 L 139.03 125.23 L 139.10 126.91 C 140.04 126.55 140.95 126.11 141.86 125.60 C 142.37 126.92 142.97 128.17 143.64 129.42 C 142.52 131.33 141.72 128.76 140.87 128.10 C 139.97 128.00 139.10 128.03 138.25 128.19 C 137.56 129.42 136.76 130.06 135.84 130.11 C 135.98 127.45 138.26 124.55 139.14 121.93 Z" fill="#c8d4cc"/>
<path d="M 60.33 123.26 C 62.53 122.77 64.41 124.69 63.71 126.85 C 63.06 128.36 61.92 128.66 60.39 128.64 C 60.23 126.86 60.27 125.05 60.33 123.26 Z" fill="#00300e"/>
<path d="M 71.15 123.11 C 73.12 122.56 75.36 123.74 75.00 125.99 C 75.45 128.08 72.59 129.53 70.98 128.43 C 68.78 127.03 69.14 124.48 71.15 123.11 Z" fill="#003716"/>
<path d="M 86.15 123.10 C 87.60 123.14 88.72 123.29 89.18 124.85 C 90.35 126.65 88.14 128.95 86.27 128.79 C 85.87 126.97 86.04 124.96 86.15 123.10 Z" fill="#003311"/>
<path d="M 52.15 124.97 C 53.14 124.89 53.39 125.52 52.90 126.88 C 50.91 127.44 51.07 126.07 52.15 124.97 Z" fill="#40664c"/>
<path d="M 129.18 125.17 C 131.05 123.96 131.95 126.95 130.00 127.12 C 128.96 127.00 128.69 126.36 129.18 125.17 Z" fill="#497058"/>
<path d="M 104.26 125.81 C 104.97 126.50 105.66 127.22 106.34 127.94 C 106.33 129.61 106.19 131.27 106.21 132.94 C 107.10 134.42 108.33 135.72 109.39 137.08 C 113.46 139.81 116.95 142.47 118.58 147.36 C 122.33 156.47 117.86 167.84 108.88 171.89 C 105.69 173.15 102.48 174.56 98.98 174.00 C 91.70 172.68 85.10 168.68 82.53 161.43 C 79.23 153.92 82.04 144.38 88.36 139.36 C 90.23 137.71 93.32 137.62 95.03 136.00 C 95.39 134.39 91.82 135.56 92.27 134.19 C 95.63 133.67 99.44 134.59 102.65 133.61 C 103.88 131.35 103.84 128.31 104.26 125.81 Z" fill="#00210d"/>
<path d="M 104.11 137.27 C 111.11 138.11 117.28 144.88 117.90 151.84 C 117.03 152.96 115.71 154.26 114.16 153.76 C 111.61 152.84 111.14 150.15 109.99 148.01 C 108.36 144.43 106.05 141.45 103.28 138.69 C 102.97 137.63 103.25 137.15 104.11 137.27 Z" fill="#914a00"/>
<path d="M 97.95 138.07 C 97.48 139.64 96.03 140.95 94.97 142.16 C 94.05 141.55 92.81 140.63 93.33 139.37 C 94.79 138.74 96.35 138.12 97.95 138.07 Z" fill="#6d4003"/>
<path d="M 101.03 139.71 C 102.30 139.60 103.30 141.07 104.13 141.88 C 106.44 144.60 108.29 147.87 109.68 151.15 C 109.58 154.71 105.30 156.73 102.25 154.72 C 101.37 153.18 102.00 150.80 100.81 149.21 C 99.51 146.93 97.39 146.84 95.21 145.88 C 96.52 143.56 98.88 141.31 101.03 139.71 Z" fill="#914a00"/>
<path d="M 88.46 141.56 C 89.62 141.11 91.61 141.86 92.84 142.09 C 94.02 143.64 93.19 145.76 92.16 147.16 C 88.71 151.79 85.75 156.81 85.56 162.75 C 83.70 161.60 83.53 158.96 83.12 156.99 C 82.14 151.27 84.26 145.50 88.46 141.56 Z" fill="#914a00"/>
<path d="M 94.03 147.88 C 96.82 147.43 99.87 148.90 99.95 151.99 C 100.56 154.08 97.24 154.82 96.25 156.30 C 94.13 158.80 95.34 160.92 95.70 163.69 C 94.44 164.69 92.41 165.34 92.15 167.09 C 92.01 168.24 91.61 168.96 90.96 169.26 C 89.06 168.16 87.35 166.32 87.27 164.02 C 86.71 159.56 88.77 155.68 90.88 151.91 C 91.76 150.52 92.67 148.84 94.03 147.88 Z" fill="#914a00"/>
<path d="M 110.95 153.95 C 113.73 155.54 114.77 155.61 117.93 154.95 C 118.39 157.50 117.73 159.15 115.86 160.85 C 111.98 164.30 105.89 164.50 100.98 164.19 C 99.52 163.91 98.09 164.25 97.38 162.66 C 95.90 159.66 96.80 156.77 99.98 155.58 C 102.02 156.20 103.84 157.44 106.03 157.13 C 108.15 156.90 109.22 154.95 110.95 153.95 Z" fill="#914a00"/>
<path d="M 114.82 164.03 L 114.84 164.81 C 110.24 171.13 101.52 173.98 94.25 170.81 C 93.17 169.43 93.23 166.67 95.08 165.98 C 97.31 164.72 100.50 166.08 103.00 165.95 C 107.28 166.21 110.84 165.28 114.82 164.03 Z" fill="#924a00"/>
<path d="M 91.47 175.38 C 92.27 175.06 92.97 175.06 93.59 175.38 C 94.35 177.14 94.00 179.94 93.83 181.85 L 92.21 181.81 C 91.95 179.65 91.88 177.53 91.47 175.38 Z" fill="#72907e"/>
<path d="M 97.03 174.89 C 98.33 175.10 98.78 176.43 99.88 176.85 C 100.60 176.22 101.33 175.60 102.07 174.99 C 104.33 175.26 104.86 178.03 105.25 179.86 C 106.31 180.60 107.20 180.70 107.94 180.16 L 107.86 179.26 C 106.86 179.04 106.13 178.60 105.64 177.96 C 105.76 177.03 106.02 176.19 106.43 175.42 C 107.28 175.04 108.09 174.95 108.87 175.15 C 108.85 175.97 108.72 176.81 108.47 177.66 C 109.19 178.76 110.22 179.80 109.05 181.02 C 107.41 183.04 105.96 181.79 104.15 180.93 C 102.14 180.78 103.38 178.29 102.92 176.98 C 101.70 177.01 101.16 177.39 101.28 178.12 C 100.82 180.12 103.17 180.25 103.27 181.99 C 100.81 182.51 100.33 181.01 99.73 179.04 C 98.27 178.99 97.73 182.08 96.15 181.97 C 96.06 180.33 95.72 179.36 94.99 177.91 C 94.73 176.10 95.78 175.78 97.03 174.89 Z" fill="#89a293"/>
<path d="M 96.30 177.15 C 97.60 176.54 98.15 176.81 97.96 177.95 C 96.72 178.41 96.17 178.15 96.30 177.15 Z" fill="#1c3e24"/>
</svg>