<?xml version="1.0" encoding="UTF-8" standalone="no"?>
<!DOCTYPE svg PUBLIC "-//W3C//DTD SVG 1.1//EN" "http://www.w3.org/Graphics/SVG/1.1/DTD/svg11.dtd">
<svg xmlns="http://www.w3.org/2000/svg" version="1.1" viewBox="0 0 200 200" width="200.0pt" height="200.0pt">
<path d="M 0.00 0.00 L 94.15 0.00 C 91.16 1.08 87.20 0.55 83.98 1.30 C 76.08 3.05 68.43 4.37 61.12 8.14 C 55.60 9.87 50.87 12.89 45.97 15.89 C 26.12 28.48 11.51 48.10 4.48 70.45 C 2.83 74.35 2.92 78.51 1.54 82.46 C 1.03 86.10 0.56 89.77 0.49 93.44 L 0.00 93.69 L 0.00 0.00 Z" fill-opacity="0"/>
<path d="M 94.15 0.00 L 105.32 0.00 L 105.56 0.49 C 134.64 1.43 162.56 16.83 179.87 40.08 C 186.06 48.24 190.79 57.30 194.26 66.93 C 196.47 71.78 196.68 77.43 198.39 82.49 C 199.06 86.60 199.53 90.86 199.51 95.02 C 199.44 95.86 199.60 96.58 200.00 97.18 L 200.00 98.27 L 199.53 98.58 C 200.15 111.17 197.75 123.59 193.42 135.38 C 190.86 140.94 188.74 147.16 185.13 152.04 C 168.76 179.55 138.50 197.91 106.53 199.64 L 105.87 200.00 L 92.68 200.00 L 92.43 199.53 C 83.96 199.35 75.43 196.96 67.34 194.58 C 53.30 189.58 40.38 181.72 29.79 171.21 C 17.71 159.20 8.79 144.37 4.02 128.01 C 2.65 121.26 0.59 114.26 0.50 106.98 C 0.56 106.16 0.39 105.46 0.00 104.87 L 0.00 93.69 L 0.49 93.44 C 0.56 89.77 1.03 86.10 1.54 82.46 C 2.92 78.51 2.83 74.35 4.48 70.45 C 11.51 48.10 26.12 28.48 45.97 15.89 C 50.87 12.89 55.60 9.87 61.12 8.14 C 68.43 4.37 76.08 3.05 83.98 1.30 C 87.20 0.55 91.16 1.08 94.15 0.00 Z" fill="#d0a42f"/>
<path d="M 105.32 0.00 L 200.00 0.00 L 200.00 97.18 C 199.60 96.58 199.44 95.86 199.51 95.02 C 199.53 90.86 199.06 86.60 198.39 82.49 C 196.68 77.43 196.47 71.78 194.26 66.93 C 190.79 57.30 186.06 48.24 179.87 40.08 C 162.56 16.83 134.64 1.43 105.56 0.49 L 105.32 0.00 Z" fill-opacity="0"/>
<path d="M 92.00 4.01 C 99.35 3.31 106.60 3.80 113.93 4.51 C 123.83 6.42 134.07 9.20 143.03 13.95 C 163.23 23.94 179.27 41.19 188.33 61.77 C 192.60 72.50 195.93 83.23 195.55 94.92 C 196.90 100.96 195.51 107.74 195.46 113.92 C 193.91 121.48 192.13 129.57 188.67 136.52 C 188.40 137.34 188.17 138.17 187.98 139.02 C 180.08 156.55 167.16 171.57 150.81 181.78 C 145.72 184.54 140.44 187.99 134.92 189.73 C 128.35 191.87 122.01 194.39 115.13 195.28 C 107.66 196.02 99.38 196.91 92.02 195.53 C 87.97 195.69 84.08 195.00 80.08 194.49 C 67.07 191.15 54.63 186.35 43.83 178.22 C 26.57 165.90 13.39 147.54 7.70 127.08 C 4.21 117.21 3.46 106.40 3.78 95.99 C 4.94 92.36 4.17 88.71 4.84 84.99 C 6.04 77.71 8.25 70.76 10.69 63.82 C 12.11 60.27 14.05 57.00 15.55 53.49 C 26.56 33.95 44.12 18.31 65.07 10.20 C 70.58 8.53 75.79 6.32 81.54 5.48 C 84.97 4.14 88.41 4.42 92.00 4.01 Z" fill="#ffffff"/>
<path d="M 95.50 27.64 C 99.26 28.79 99.74 32.51 101.53 35.43 C 103.17 38.13 101.93 40.81 102.54 43.82 C 102.25 44.51 101.94 45.19 101.62 45.87 C 101.08 47.08 99.84 48.56 100.08 49.90 C 100.86 49.55 101.56 49.25 102.19 48.99 C 102.88 50.46 100.70 52.58 100.37 54.12 C 100.88 54.67 101.35 55.23 101.77 55.79 C 101.10 56.11 100.39 56.36 99.65 56.53 C 98.28 58.32 98.58 61.85 98.19 64.10 C 97.55 67.45 101.23 68.57 100.72 72.10 C 99.90 71.95 99.43 71.56 99.31 70.93 C 98.20 67.12 95.96 64.26 94.13 60.83 C 95.04 61.30 95.96 61.68 96.91 61.98 C 97.61 59.40 97.23 56.70 98.33 54.15 C 99.35 51.91 97.65 50.40 99.10 48.02 C 98.73 47.25 98.35 46.47 97.97 45.70 C 97.06 45.73 96.16 45.73 95.26 45.71 C 94.04 44.55 93.95 43.03 92.04 42.74 C 90.02 42.75 87.99 43.13 85.98 43.18 C 83.74 42.94 84.59 40.94 84.48 39.42 C 83.71 39.28 83.19 39.79 82.91 40.93 C 82.11 42.21 82.40 44.03 80.91 44.57 L 79.63 44.01 C 79.52 43.03 79.53 42.04 79.67 41.03 C 79.99 39.99 80.33 38.95 80.69 37.92 C 80.98 37.24 81.31 36.58 81.68 35.95 C 82.36 34.95 83.99 32.33 81.38 33.25 C 80.02 35.50 79.80 34.92 77.30 34.70 C 76.42 33.57 75.52 32.40 74.84 31.15 C 75.65 31.68 76.42 32.27 77.15 32.94 C 79.12 32.66 81.10 32.79 83.09 32.73 C 84.28 31.64 85.19 29.73 87.00 29.74 C 89.80 29.46 92.65 27.33 95.50 27.64 Z" fill="#000000"/>
<path d="M 69.49 30.43 C 70.96 30.25 72.59 30.22 74.00 30.71 L 72.25 31.30 C 72.01 32.12 72.04 33.03 72.35 34.04 C 71.95 34.79 71.55 35.54 71.15 36.29 C 69.47 36.87 66.76 37.01 67.04 39.43 C 67.67 40.19 68.40 40.91 68.92 41.75 C 69.28 42.51 69.61 43.30 69.89 44.11 C 67.71 43.28 66.78 41.35 64.94 40.10 C 63.93 40.64 63.19 42.58 61.93 42.28 C 59.07 42.10 56.37 42.12 53.87 43.73 C 51.74 44.96 50.34 44.88 48.09 44.08 C 47.18 44.56 46.59 45.33 46.30 46.38 C 45.33 46.58 44.57 46.47 44.02 46.05 C 46.61 45.85 45.93 44.19 46.07 42.23 C 48.33 41.53 49.83 42.00 51.98 42.73 C 54.03 42.86 54.86 41.48 56.48 40.59 C 59.11 40.02 61.69 40.51 64.31 40.28 C 64.89 38.42 64.14 36.79 65.10 34.89 C 61.65 34.46 56.35 37.95 53.01 38.47 C 48.23 36.66 42.97 36.96 38.78 40.01 C 38.78 40.89 38.74 41.77 38.64 42.64 C 37.17 42.92 35.73 43.14 36.13 41.07 C 36.85 39.65 38.82 39.12 40.13 38.34 C 44.37 36.18 48.07 34.12 52.99 35.65 C 55.94 35.50 59.18 34.31 62.09 33.67 C 64.38 33.67 66.17 32.74 67.93 34.65 C 70.46 33.91 69.55 32.36 69.49 30.43 Z" fill="#000000"/>
<path d="M 72.25 31.30 L 74.00 30.71 L 74.84 31.15 C 75.52 32.40 76.42 33.57 77.30 34.70 C 79.80 34.92 80.02 35.50 81.38 33.25 C 83.99 32.33 82.36 34.95 81.68 35.95 C 79.46 36.31 76.69 35.66 74.30 35.77 C 73.82 34.38 73.17 33.81 72.35 34.04 C 72.04 33.03 72.01 32.12 72.25 31.30 Z" fill="#ec1c30"/>
<path d="M 72.35 34.04 C 73.17 33.81 73.82 34.38 74.30 35.77 C 76.69 35.66 79.46 36.31 81.68 35.95 C 81.31 36.58 80.98 37.24 80.69 37.92 C 78.54 38.45 76.23 36.57 74.35 37.36 C 73.96 38.24 73.83 39.22 73.96 40.30 L 73.07 40.09 C 72.57 39.28 72.46 38.28 72.76 37.09 L 71.93 36.63 L 71.61 36.22 L 71.15 36.29 C 71.55 35.54 71.95 34.79 72.35 34.04 Z" fill="#ffffff"/>
<path d="M 71.15 36.29 L 71.61 36.22 L 71.93 36.63 C 71.67 39.24 69.50 40.54 67.04 39.43 C 66.76 37.01 69.47 36.87 71.15 36.29 Z" fill="#ffffff"/>
<path d="M 104.28 36.45 C 106.31 36.13 108.11 36.49 109.98 37.24 C 113.28 37.18 115.94 38.85 119.02 39.58 C 121.13 39.63 122.78 41.19 124.89 41.60 C 127.34 42.24 128.73 44.19 131.08 45.07 C 140.28 50.47 148.32 58.20 153.20 67.83 C 167.39 91.79 161.16 125.11 139.74 142.74 C 138.61 143.56 136.41 146.25 135.28 144.08 C 135.81 143.36 136.43 142.72 137.15 142.15 C 148.56 133.06 155.99 119.19 158.38 104.92 C 158.77 98.44 159.78 90.41 157.94 84.08 C 156.14 72.24 148.93 60.91 140.49 52.52 C 138.31 51.29 136.85 49.50 134.91 47.98 C 129.39 44.72 125.27 41.41 118.91 40.01 C 113.88 38.17 109.52 37.24 104.28 36.45 Z" fill="#000000"/>
<path d="M 71.93 36.63 L 72.76 37.09 C 72.46 38.28 72.57 39.28 73.07 40.09 L 73.96 40.30 C 75.03 40.45 76.02 40.76 76.91 41.23 C 76.75 42.25 76.33 43.22 75.67 44.11 C 75.17 44.85 75.09 45.64 75.42 46.47 C 76.03 46.83 76.59 47.22 77.12 47.65 C 75.61 48.51 74.18 49.01 72.43 48.56 C 72.20 46.92 72.48 46.34 73.41 45.00 C 74.26 44.26 74.38 42.32 72.93 42.47 C 70.86 42.82 70.95 39.76 68.92 41.75 C 68.40 40.91 67.67 40.19 67.04 39.43 C 69.50 40.54 71.67 39.24 71.93 36.63 Z" fill="#000000"/>
<path d="M 74.35 37.36 C 76.23 36.57 78.54 38.45 80.69 37.92 C 80.33 38.95 79.99 39.99 79.67 41.03 C 78.75 41.16 77.83 41.23 76.91 41.23 C 76.02 40.76 75.03 40.45 73.96 40.30 C 73.83 39.22 73.96 38.24 74.35 37.36 Z" fill="#ec1c30"/>
<path d="M 46.00 39.25 C 47.35 39.12 49.38 38.30 48.62 40.56 C 46.48 40.73 44.34 40.81 42.19 40.78 C 42.36 39.46 45.06 39.56 46.00 39.25 Z" fill="#000000"/>
<path d="M 84.48 39.42 C 84.59 40.94 83.74 42.94 85.98 43.18 C 87.99 43.13 90.02 42.75 92.04 42.74 C 93.95 43.03 94.04 44.55 95.26 45.71 C 96.16 45.73 97.06 45.73 97.97 45.70 C 98.35 46.47 98.73 47.25 99.10 48.02 C 97.65 50.40 99.35 51.91 98.33 54.15 C 97.23 56.70 97.61 59.40 96.91 61.98 C 95.96 61.68 95.04 61.30 94.13 60.83 L 92.12 61.18 C 93.48 64.64 95.98 67.10 96.28 71.02 C 96.40 73.93 98.54 75.63 99.12 78.30 C 98.12 78.73 97.16 78.74 96.24 78.33 C 94.77 74.90 93.88 71.24 92.30 67.82 C 91.46 65.90 91.62 64.00 91.39 61.97 C 91.02 59.65 89.27 58.07 88.98 55.73 C 91.24 56.01 91.12 58.46 93.03 59.28 C 95.31 58.83 97.28 55.47 96.68 53.27 C 95.00 54.43 93.00 58.92 90.80 56.04 C 90.83 55.35 91.49 54.89 92.78 54.69 C 92.80 51.73 90.12 55.13 88.61 52.42 C 87.60 52.67 86.74 52.58 86.05 52.16 C 85.87 50.85 85.78 49.51 85.78 48.16 C 84.98 47.30 83.98 46.74 83.12 45.95 C 83.39 44.32 83.82 42.44 82.91 40.93 C 83.19 39.79 83.71 39.28 84.48 39.42 Z" fill="#ffffff"/>
<path d="M 98.26 40.18 C 100.06 40.00 99.80 41.77 100.41 42.98 C 101.57 45.34 98.19 45.58 97.37 44.10 C 97.54 42.74 97.83 41.44 98.26 40.18 Z" fill="#ffffff"/>
<path d="M 72.93 42.47 C 74.38 42.32 74.26 44.26 73.41 45.00 C 73.17 44.29 72.38 44.20 71.02 44.74 L 69.89 44.11 C 69.61 43.30 69.28 42.51 68.92 41.75 C 70.95 39.76 70.86 42.82 72.93 42.47 Z" fill="#d0a42f"/>
<path d="M 76.91 41.23 C 77.83 41.23 78.75 41.16 79.67 41.03 C 79.53 42.04 79.52 43.03 79.63 44.01 C 78.40 43.44 76.29 45.51 75.67 44.11 C 76.33 43.22 76.75 42.25 76.91 41.23 Z" fill="#ffffff"/>
<path d="M 82.91 40.93 C 83.82 42.44 83.39 44.32 83.12 45.95 C 82.68 47.45 82.70 48.56 84.00 49.54 C 83.09 51.81 84.24 54.76 84.64 57.09 C 81.87 56.19 81.45 51.26 81.46 48.82 C 81.51 47.63 81.59 46.45 81.70 45.26 C 80.26 46.98 78.51 45.93 77.12 47.65 C 76.59 47.22 76.03 46.83 75.42 46.47 C 75.09 45.64 75.17 44.85 75.67 44.11 C 76.29 45.51 78.40 43.44 79.63 44.01 L 80.91 44.57 C 82.40 44.03 82.11 42.21 82.91 40.93 Z" fill="#ec1c30"/>
<path d="M 46.07 42.23 C 45.93 44.19 46.61 45.85 44.02 46.05 C 42.59 45.17 41.18 46.83 39.48 46.54 C 39.48 45.87 39.49 45.20 39.50 44.53 C 41.85 45.24 43.68 42.66 46.07 42.23 Z" fill="#000000"/>
<path d="M 102.54 43.82 C 103.73 43.75 104.74 43.95 105.58 44.44 C 106.37 45.63 103.81 47.26 103.03 47.95 C 102.38 48.12 101.91 47.42 101.62 45.87 C 101.94 45.19 102.25 44.51 102.54 43.82 Z" fill="#ec1c30"/>
<path d="M 109.93 44.31 C 109.88 45.56 110.02 46.74 110.35 47.87 C 111.27 48.30 114.79 48.63 115.05 47.30 C 115.92 48.13 116.72 48.87 117.87 49.32 C 122.73 51.27 126.33 55.73 126.73 61.01 C 127.20 61.62 127.89 62.04 128.79 62.27 L 128.86 62.99 C 127.58 63.63 124.88 63.20 124.50 61.54 C 123.36 58.73 122.01 56.03 120.67 53.31 C 118.38 49.85 114.63 49.20 110.88 48.35 C 110.24 48.86 109.78 49.59 109.51 50.54 C 108.52 51.88 107.41 50.68 106.28 50.32 C 106.38 51.50 106.82 52.60 106.81 53.78 L 104.90 53.86 C 104.59 51.43 103.90 49.63 105.47 47.42 C 107.31 47.00 107.04 49.66 109.03 48.96 C 111.28 47.25 106.05 43.82 109.93 44.31 Z" fill="#000000"/>
<path d="M 109.93 44.31 C 111.67 45.32 113.49 46.07 115.05 47.30 C 114.79 48.63 111.27 48.30 110.35 47.87 C 110.02 46.74 109.88 45.56 109.93 44.31 Z" fill="#d0a42f"/>
<path d="M 40.25 45.43 C 40.79 45.57 40.79 45.57 40.25 45.43 Z" fill="#000000"/>
<path d="M 68.69 45.35 C 67.38 46.82 65.30 47.41 63.92 48.90 C 57.10 53.89 51.66 61.13 47.32 68.30 C 44.80 73.82 41.13 80.23 41.22 86.42 C 39.52 88.95 41.05 92.27 39.75 94.97 C 39.73 97.82 39.28 101.26 40.11 103.97 L 40.95 103.95 C 44.74 100.51 48.99 99.69 54.00 99.89 C 55.71 93.18 59.23 86.79 62.78 80.85 C 63.92 78.82 63.34 76.80 65.90 75.77 C 67.02 75.25 69.90 74.00 70.11 76.05 C 69.79 77.86 68.64 77.52 67.38 78.40 C 65.47 79.68 65.04 81.82 64.06 83.77 C 63.66 84.47 63.22 85.17 62.75 85.84 C 61.52 87.06 60.71 88.25 59.93 89.79 C 59.07 90.75 58.43 91.62 57.93 92.80 C 57.21 94.09 56.02 95.60 56.04 97.12 C 56.94 97.47 57.92 97.66 58.98 97.72 C 57.29 97.21 54.39 97.69 55.88 100.01 C 57.08 101.17 58.77 101.81 60.13 102.83 C 61.07 103.52 61.84 104.75 62.98 105.04 C 63.67 104.67 64.20 104.03 64.59 103.14 C 65.43 102.52 66.22 101.90 66.93 101.13 C 67.78 100.20 68.55 99.19 69.17 98.10 C 70.56 96.30 70.84 94.30 70.87 92.09 C 70.95 90.64 71.84 88.62 71.15 87.29 L 72.04 87.66 C 73.29 87.10 74.25 86.11 75.49 85.52 C 76.76 84.98 78.15 86.48 77.71 87.71 C 76.54 89.07 74.75 89.34 73.48 90.46 C 72.39 93.19 72.23 96.35 70.88 98.94 C 69.09 101.94 66.12 103.54 64.02 106.07 C 65.52 110.43 66.43 114.48 65.10 119.09 C 63.09 123.57 59.13 127.75 53.99 128.18 C 50.94 128.38 49.66 130.68 47.96 132.68 C 45.09 131.58 46.04 131.69 42.86 132.17 C 42.57 131.19 42.14 130.30 41.57 129.50 C 40.70 128.18 41.74 126.58 41.90 125.17 C 36.47 119.93 35.48 112.39 39.51 105.96 C 37.88 103.82 38.34 101.55 38.01 99.00 C 36.98 79.60 47.23 60.34 62.10 48.26 C 63.88 47.25 66.53 44.44 68.69 45.35 Z" fill="#000000"/>
<path d="M 91.52 45.34 C 91.29 45.84 91.12 46.36 91.02 46.89 L 92.54 47.45 C 92.40 48.55 90.26 48.40 89.47 48.44 C 88.34 47.43 88.02 46.63 86.35 46.50 C 84.93 43.98 90.42 44.58 91.52 45.34 Z" fill="#000000"/>
<path d="M 83.12 45.95 C 83.98 46.74 84.98 47.30 85.78 48.16 C 85.78 49.51 85.87 50.85 86.05 52.16 C 86.74 52.58 87.60 52.67 88.61 52.42 C 90.12 55.13 92.80 51.73 92.78 54.69 C 91.49 54.89 90.83 55.35 90.80 56.04 C 93.00 58.92 95.00 54.43 96.68 53.27 C 97.28 55.47 95.31 58.83 93.03 59.28 C 91.12 58.46 91.24 56.01 88.98 55.73 L 86.88 55.80 C 84.57 54.42 85.87 52.24 84.91 49.95 L 84.00 49.54 C 82.70 48.56 82.68 47.45 83.12 45.95 Z" fill="#000000"/>
<path d="M 81.46 48.82 C 81.45 51.26 81.87 56.19 84.64 57.09 C 87.45 59.72 86.00 61.80 85.80 65.02 C 86.54 66.73 86.15 68.46 86.58 70.22 L 85.47 69.94 C 83.77 66.76 85.62 62.90 83.99 60.08 C 80.78 57.22 80.91 52.73 81.46 48.82 Z" fill="#000000"/>
<path d="M 84.00 49.54 L 84.91 49.95 C 85.87 52.24 84.57 54.42 86.88 55.80 C 86.64 58.92 88.34 60.79 89.37 63.51 C 89.60 65.79 89.30 67.90 88.80 70.11 L 86.58 70.22 C 86.15 68.46 86.54 66.73 85.80 65.02 C 86.00 61.80 87.45 59.72 84.64 57.09 C 84.24 54.76 83.09 51.81 84.00 49.54 Z" fill="#ffffff"/>
<path d="M 113.99 49.95 C 114.05 52.09 110.97 53.63 110.60 55.97 C 109.91 61.64 113.90 65.05 113.68 70.48 C 114.56 72.80 114.38 75.10 114.59 77.50 C 115.74 79.25 115.53 81.20 113.00 80.24 C 110.99 78.75 110.39 76.40 110.38 74.01 C 110.29 70.06 108.50 66.81 107.89 62.99 C 107.44 60.04 105.81 57.36 107.51 54.52 C 108.64 52.42 111.19 48.73 113.99 49.95 Z" fill="#ec1c30"/>
<path d="M 117.32 52.68 C 121.84 55.87 119.80 61.35 123.85 64.33 C 124.92 64.51 125.96 64.75 126.98 65.07 C 127.43 66.12 127.33 67.44 126.68 69.03 C 127.33 70.37 128.71 71.26 129.58 72.50 C 132.19 73.27 132.41 74.25 131.94 76.83 C 131.10 77.25 130.15 77.07 129.08 76.29 C 127.37 75.72 127.36 72.82 125.25 73.18 C 124.82 75.43 127.99 74.66 127.05 76.97 C 126.91 79.01 124.69 77.86 123.88 76.98 C 123.02 74.84 123.26 72.90 120.67 72.01 L 120.01 71.23 C 117.68 68.22 115.46 64.89 112.51 62.47 C 111.34 61.51 111.70 58.76 113.55 59.45 C 116.23 61.17 117.93 64.56 119.89 67.04 C 121.24 68.68 121.78 72.33 124.58 71.61 C 124.87 70.44 124.90 69.33 124.66 68.28 C 121.73 66.61 119.42 64.87 118.52 61.44 C 117.52 58.14 115.82 56.33 113.40 54.04 C 113.18 50.88 115.44 51.19 117.32 52.68 Z" fill="#ec1c30"/>
<path d="M 86.88 55.80 L 88.98 55.73 C 89.27 58.07 91.02 59.65 91.39 61.97 C 91.62 64.00 91.46 65.90 92.30 67.82 C 93.88 71.24 94.77 74.90 96.24 78.33 C 95.23 79.90 92.89 79.07 91.79 78.01 C 91.09 75.73 90.79 72.93 89.37 71.02 L 88.80 70.11 C 89.30 67.90 89.60 65.79 89.37 63.51 C 88.34 60.79 86.64 58.92 86.88 55.80 Z" fill="#ec1c30"/>
<path d="M 101.23 57.08 L 102.09 57.05 C 102.78 58.96 103.28 60.83 104.54 62.47 C 107.47 66.33 107.40 71.31 107.57 75.93 C 107.72 78.70 109.82 80.45 109.04 83.35 C 107.84 83.64 106.93 83.24 106.31 82.17 C 103.15 76.52 105.36 70.20 101.81 65.10 C 100.43 62.77 100.60 59.61 101.23 57.08 Z" fill="#ec1c30"/>
<path d="M 92.12 61.18 L 94.13 60.83 C 95.96 64.26 98.20 67.12 99.31 70.93 C 99.43 71.56 99.90 71.95 100.72 72.10 C 101.96 74.24 104.06 76.74 102.01 79.09 C 101.03 78.88 100.07 78.61 99.12 78.30 C 98.54 75.63 96.40 73.93 96.28 71.02 C 95.98 67.10 93.48 64.64 92.12 61.18 Z" fill="#ec1c30"/>
<path d="M 131.57 65.39 C 131.51 66.85 130.61 68.54 131.10 69.91 C 132.80 69.91 134.01 69.33 135.50 70.48 C 136.12 72.73 135.01 74.64 136.44 76.54 C 137.56 78.26 137.00 79.41 134.86 79.16 C 133.35 78.38 132.06 78.33 130.99 79.02 C 129.63 78.48 127.99 80.09 127.13 81.01 L 126.68 80.02 C 127.70 79.07 129.02 78.30 129.74 77.10 L 129.08 76.29 C 130.15 77.07 131.10 77.25 131.94 76.83 C 134.48 76.31 133.66 74.32 133.62 72.38 C 132.30 72.38 131.02 72.32 129.78 72.21 L 129.30 71.09 C 130.10 69.37 130.06 66.61 131.57 65.39 Z" fill="#000000"/>
<path d="M 85.47 69.94 L 86.58 70.22 L 88.80 70.11 L 89.37 71.02 C 90.39 73.99 88.01 76.80 91.79 78.01 C 92.89 79.07 95.23 79.90 96.24 78.33 C 97.16 78.74 98.12 78.73 99.12 78.30 C 100.07 78.61 101.03 78.88 102.01 79.09 C 102.77 79.98 105.09 84.67 106.31 82.17 C 106.93 83.24 107.84 83.64 109.04 83.35 C 113.43 84.32 113.51 80.85 117.49 80.53 C 117.56 76.83 115.48 73.69 115.10 70.23 L 115.71 70.33 C 117.75 73.01 119.58 76.60 119.66 80.00 C 119.96 82.35 117.92 82.11 117.40 83.88 C 119.38 87.37 119.09 91.24 120.12 94.87 C 120.20 99.51 120.52 104.16 120.39 108.80 C 121.67 109.62 122.64 110.47 123.82 108.96 C 123.24 110.26 123.20 111.44 123.68 112.48 C 125.48 112.77 126.35 110.89 126.54 109.40 C 127.89 109.71 128.32 110.17 129.70 109.38 C 129.25 110.49 129.27 111.42 129.76 112.18 C 130.79 111.86 131.75 111.44 132.63 110.89 C 132.53 110.39 132.48 109.89 132.50 109.40 C 134.45 107.42 132.51 105.17 131.92 103.01 C 130.74 98.58 132.90 93.29 133.90 88.90 C 134.36 88.07 134.62 85.97 135.83 86.05 C 135.80 89.64 134.49 92.89 134.23 96.43 C 133.29 97.92 133.37 99.36 133.74 101.03 C 135.46 104.47 135.09 109.00 133.36 112.35 C 131.05 111.99 129.53 115.40 126.91 115.46 C 124.82 115.32 124.32 117.66 122.40 115.65 C 121.72 114.15 123.83 110.20 120.79 111.01 C 119.97 112.40 120.04 114.26 119.63 115.82 C 119.41 117.22 117.52 117.30 117.62 118.90 C 119.08 121.78 120.11 125.02 122.06 127.60 C 122.73 127.31 123.38 126.95 124.01 126.50 C 126.43 127.36 128.65 128.77 129.65 131.25 C 131.81 137.40 133.25 144.26 136.45 149.97 C 136.53 151.47 136.56 152.62 137.30 153.97 C 136.71 154.96 136.32 155.97 136.12 157.01 C 137.84 157.35 137.59 153.69 137.86 152.72 L 138.97 152.48 C 141.65 154.87 140.10 157.16 141.12 159.99 C 139.18 162.84 141.00 166.82 139.94 169.99 C 139.56 171.10 139.40 172.29 139.46 173.54 C 137.22 174.72 136.41 175.13 135.75 177.72 C 133.68 177.52 130.83 179.60 129.66 177.02 C 128.78 172.25 130.86 166.90 131.30 161.96 L 131.94 161.53 C 132.95 161.89 133.89 161.99 134.77 161.82 L 134.76 161.17 C 133.81 161.07 132.86 161.00 131.90 160.94 L 131.82 159.84 C 132.77 159.76 133.72 159.72 134.68 159.73 C 134.59 159.23 133.69 159.05 131.97 159.19 C 131.13 157.02 128.98 156.44 128.71 154.08 C 128.56 152.99 127.40 152.10 126.69 151.32 C 121.78 145.85 116.32 141.78 113.11 134.96 C 111.91 132.39 109.95 132.26 107.55 131.41 C 104.05 126.94 102.92 121.93 103.41 116.32 C 104.78 117.24 104.07 118.60 104.21 120.00 C 104.10 122.76 105.54 124.77 106.86 127.06 C 108.24 129.23 111.41 128.86 113.18 130.85 C 114.40 132.43 114.73 134.51 115.85 136.20 C 116.36 137.69 116.95 138.98 118.06 140.12 C 119.09 141.11 120.22 143.07 121.72 143.23 C 121.93 144.53 123.21 145.34 124.11 146.18 C 125.12 146.95 126.04 147.87 126.90 148.81 C 127.60 149.63 128.33 150.42 129.10 151.18 C 129.48 151.69 129.90 152.18 130.35 152.64 C 131.90 152.88 133.26 152.33 134.56 151.52 C 134.77 149.73 133.90 148.57 133.26 147.00 L 132.51 145.94 C 132.50 144.34 132.47 142.96 131.41 141.67 C 131.41 139.55 130.73 137.49 129.40 135.84 C 129.41 133.91 128.38 132.17 126.98 130.91 C 126.36 129.92 125.70 129.61 124.99 129.96 C 124.75 130.98 124.57 132.01 124.43 133.06 C 124.60 131.35 125.48 128.64 123.08 128.16 C 122.01 128.75 121.07 128.92 120.28 128.67 C 118.17 125.44 117.08 121.64 117.27 117.77 C 111.98 117.01 106.73 115.24 101.79 113.22 L 101.25 112.12 C 101.25 105.76 100.42 98.95 97.85 93.08 C 97.49 92.14 96.90 91.60 96.08 91.45 C 90.89 91.24 85.98 91.75 80.89 92.75 L 79.73 92.27 C 78.91 90.33 80.30 88.14 79.77 86.00 C 79.01 80.95 77.97 75.26 72.27 73.75 L 72.25 73.17 C 76.48 72.17 81.28 72.36 85.63 72.57 C 85.83 71.78 85.78 70.90 85.47 69.94 Z" fill="#000000"/>
<path d="M 89.37 71.02 C 90.79 72.93 91.09 75.73 91.79 78.01 C 88.01 76.80 90.39 73.99 89.37 71.02 Z" fill="#ffffff"/>
<path d="M 118.16 71.31 L 120.01 71.23 L 120.67 72.01 C 122.05 74.63 121.63 77.20 124.57 78.43 C 126.04 80.52 122.06 80.40 121.01 80.06 C 119.26 78.71 120.91 77.26 120.53 75.40 C 120.50 73.40 118.85 72.84 118.16 71.31 Z" fill="#000000"/>
<path d="M 74.40 77.58 L 74.63 77.44 C 75.49 78.23 75.95 79.03 74.98 79.96 C 73.45 81.20 71.38 82.96 69.28 82.69 C 70.15 81.99 71.34 81.78 72.18 81.00 C 72.68 79.54 72.98 78.42 74.40 77.58 Z" fill="#000000"/>
<path d="M 130.99 79.02 L 130.92 79.94 C 129.68 80.54 128.65 81.81 127.30 82.06 L 127.13 81.01 C 127.99 80.09 129.63 78.48 130.99 79.02 Z" fill="#ffffff"/>
<path d="M 130.99 79.02 C 132.06 78.33 133.35 78.38 134.86 79.16 L 135.07 81.26 C 133.09 82.26 131.79 82.14 130.92 79.94 L 130.99 79.02 Z" fill="#ec1c30"/>
<path d="M 126.68 80.02 L 127.13 81.01 L 127.30 82.06 C 126.70 82.79 126.00 83.16 125.22 83.17 C 124.70 81.66 125.23 80.58 126.68 80.02 Z" fill="#ec1c30"/>
<path d="M 130.92 79.94 C 131.79 82.14 133.09 82.26 135.07 81.26 C 136.18 80.74 137.26 80.54 138.32 80.68 C 138.92 82.28 137.11 83.28 136.05 84.15 C 133.70 85.44 131.14 84.92 129.08 83.35 C 127.20 84.33 124.22 86.70 122.27 84.77 C 122.15 83.95 122.16 83.11 122.30 82.25 C 123.35 83.17 123.68 84.41 125.22 83.17 C 126.00 83.16 126.70 82.79 127.30 82.06 C 128.65 81.81 129.68 80.54 130.92 79.94 Z" fill="#000000"/>
<path d="M 64.06 83.77 C 67.27 82.59 69.67 84.67 71.15 87.29 C 71.84 88.62 70.95 90.64 70.87 92.09 C 69.82 92.27 69.14 91.93 68.81 91.05 C 67.45 88.24 65.35 87.23 62.75 85.84 C 63.22 85.17 63.66 84.47 64.06 83.77 Z" fill="#ec1c30"/>
<path d="M 62.75 85.84 C 65.35 87.23 67.45 88.24 68.81 91.05 C 69.14 91.93 69.82 92.27 70.87 92.09 C 70.84 94.30 70.56 96.30 69.17 98.10 C 67.96 95.42 67.43 92.94 64.83 91.19 C 63.47 90.13 61.64 90.20 59.93 89.79 C 60.71 88.25 61.52 87.06 62.75 85.84 Z" fill="#ffffff"/>
<path d="M 126.64 86.28 C 126.73 90.85 126.53 95.45 126.55 100.02 C 126.79 102.40 123.91 104.24 122.81 106.17 L 121.78 106.12 C 121.20 105.34 121.14 104.32 121.58 103.06 C 127.34 98.93 122.76 91.09 126.64 86.28 Z" fill="#000000"/>
<path d="M 59.93 89.79 C 61.64 90.20 63.47 90.13 64.83 91.19 C 67.43 92.94 67.96 95.42 69.17 98.10 C 68.55 99.19 67.78 100.20 66.93 101.13 L 65.95 101.50 C 64.51 101.20 64.89 99.02 64.19 97.90 C 62.83 95.56 60.37 93.85 57.93 92.80 C 58.43 91.62 59.07 90.75 59.93 89.79 Z" fill="#ec1c30"/>
<path d="M 57.93 92.80 C 60.37 93.85 62.83 95.56 64.19 97.90 C 64.89 99.02 64.51 101.20 65.95 101.50 L 66.93 101.13 C 66.22 101.90 65.43 102.52 64.59 103.14 C 64.11 100.68 61.10 98.76 58.98 97.72 C 57.92 97.66 56.94 97.47 56.04 97.12 C 56.02 95.60 57.21 94.09 57.93 92.80 Z" fill="#ffffff"/>
<path d="M 120.12 94.87 C 122.16 96.46 120.35 100.81 121.58 103.06 C 121.14 104.32 121.20 105.34 121.78 106.12 L 122.81 106.17 C 123.21 107.09 123.55 108.01 123.82 108.96 C 122.64 110.47 121.67 109.62 120.39 108.80 C 120.52 104.16 120.20 99.51 120.12 94.87 Z" fill="#ffffff"/>
<path d="M 176.42 96.49 C 179.48 96.47 182.53 96.49 185.59 96.47 L 185.60 97.57 C 184.04 97.70 182.29 97.25 180.85 97.89 C 180.59 99.65 184.31 100.11 185.52 100.60 C 186.29 103.00 180.25 101.80 180.98 104.16 C 182.25 104.97 184.10 104.37 185.57 104.49 L 185.58 105.54 C 182.53 105.55 179.48 105.53 176.43 105.54 C 176.42 104.87 176.44 104.22 176.48 103.56 C 178.15 102.89 181.15 102.69 181.98 100.99 C 181.20 98.94 175.70 99.44 176.42 96.49 Z" fill="#000000"/>
<path d="M 58.98 97.72 C 61.10 98.76 64.11 100.68 64.59 103.14 C 64.20 104.03 63.67 104.67 62.98 105.04 C 61.84 104.75 61.07 103.52 60.13 102.83 C 58.77 101.81 57.08 101.17 55.88 100.01 C 54.39 97.69 57.29 97.21 58.98 97.72 Z" fill="#ec1c30"/>
<path d="M 199.53 98.58 L 200.00 98.27 L 200.00 200.00 L 105.87 200.00 L 106.53 199.64 C 138.50 197.91 168.76 179.55 185.13 152.04 C 188.74 147.16 190.86 140.94 193.42 135.38 C 197.75 123.59 200.15 111.17 199.53 98.58 Z" fill-opacity="0"/>
<path d="M 53.84 101.25 C 54.40 103.65 49.33 103.11 48.07 102.74 C 47.34 100.37 52.64 101.30 53.84 101.25 Z" fill="#ffffff"/>
<path d="M 60.83 105.79 C 56.52 106.27 52.58 107.29 49.38 110.39 C 47.50 112.07 46.40 109.47 46.25 107.88 C 47.21 106.55 48.91 105.87 49.97 104.53 C 51.67 104.15 52.95 104.53 54.47 103.40 C 56.39 101.06 60.47 103.52 60.83 105.79 Z" fill="#ffffff"/>
<path d="M 47.87 104.03 C 48.35 105.75 44.84 106.09 43.78 106.68 C 42.19 107.07 41.46 109.10 39.87 108.98 C 39.25 107.75 40.91 106.50 41.49 105.47 C 43.00 103.31 45.59 103.29 47.87 104.03 Z" fill="#ffffff"/>
<path d="M 0.00 104.87 C 0.39 105.46 0.56 106.16 0.50 106.98 C 0.59 114.26 2.65 121.26 4.02 128.01 C 8.79 144.37 17.71 159.20 29.79 171.21 C 40.38 181.72 53.30 189.58 67.34 194.58 C 75.43 196.96 83.96 199.35 92.43 199.53 L 92.68 200.00 L 0.00 200.00 L 0.00 104.87 Z" fill-opacity="0"/>
<path d="M 61.97 106.95 C 62.99 107.10 64.20 109.78 63.78 110.70 C 61.74 111.60 60.34 113.01 58.01 113.10 C 55.72 113.09 54.67 114.18 53.08 115.60 C 51.62 116.15 49.09 113.66 49.22 112.23 C 52.65 108.45 57.05 107.39 61.97 106.95 Z" fill="#ffffff"/>
<path d="M 44.90 108.08 C 45.54 109.37 45.26 110.58 46.51 111.48 C 48.57 113.04 48.41 115.54 51.14 116.60 C 53.67 117.27 54.76 121.12 51.98 122.13 C 50.12 121.97 48.15 121.34 46.49 120.47 C 43.75 118.02 42.38 114.65 42.24 111.00 C 41.85 109.26 43.20 107.91 44.90 108.08 Z" fill="#ffffff"/>
<path d="M 184.73 108.29 C 184.78 110.55 183.37 108.59 182.03 109.89 C 181.05 112.51 182.12 113.04 183.70 114.70 C 181.06 114.22 178.31 112.37 175.93 111.09 C 175.32 110.84 175.17 110.32 175.46 109.54 C 178.21 108.17 181.72 108.60 184.73 108.29 Z" fill="#000000"/>
<path d="M 178.16 110.23 C 179.54 109.14 181.71 109.85 180.76 111.80 C 180.20 112.78 177.48 111.25 178.16 110.23 Z" fill="#ffffff"/>
<path d="M 40.00 110.52 L 40.83 110.96 C 41.27 115.58 43.26 121.39 48.32 122.59 C 49.67 123.17 51.43 123.12 51.70 124.91 C 51.44 126.14 50.87 126.92 49.99 127.27 C 48.68 126.72 47.32 126.61 45.95 126.29 C 41.00 123.83 37.89 118.54 38.42 112.99 C 38.34 111.79 38.87 110.97 40.00 110.52 Z" fill="#ffffff"/>
<path d="M 127.04 111.06 L 127.92 111.03 L 127.95 111.96 L 127.09 111.98 L 127.04 111.06 Z" fill="#ffffff"/>
<path d="M 64.26 112.67 C 65.17 115.28 63.89 121.48 60.81 122.27 C 60.01 120.35 61.23 118.11 60.74 116.00 C 60.02 114.05 62.53 111.84 64.26 112.67 Z" fill="#ffffff"/>
<path d="M 59.26 114.70 C 60.29 118.21 58.89 121.62 58.19 125.04 C 56.72 126.77 54.87 126.63 52.85 126.98 C 51.94 124.99 53.30 123.07 54.47 121.53 C 55.61 119.39 53.96 118.12 54.26 116.24 C 55.55 115.21 57.66 113.34 59.26 114.70 Z" fill="#ffffff"/>
<path d="M 175.46 115.51 C 178.07 114.82 180.65 115.37 182.41 117.48 C 182.93 119.61 182.64 121.70 181.51 123.58 C 178.43 122.88 175.74 121.36 172.46 121.39 C 173.23 119.10 173.29 116.94 175.46 115.51 Z" fill="#000000"/>
<path d="M 178.03 116.34 C 180.98 116.69 182.72 119.15 181.06 121.91 C 178.72 121.70 176.27 120.82 174.10 120.09 C 174.32 117.81 175.40 115.94 178.03 116.34 Z" fill="#ffffff"/>
<path d="M 113.28 122.25 C 114.59 122.13 115.47 123.69 116.28 124.53 C 116.20 126.86 116.10 129.18 116.38 131.50 L 115.52 131.54 C 115.53 130.33 115.55 129.12 115.56 127.91 C 114.83 125.95 112.24 124.54 113.28 122.25 Z" fill="#000000"/>
<path d="M 172.48 123.58 C 175.08 122.96 175.43 124.53 176.97 126.10 C 178.14 126.37 179.36 126.46 180.63 126.39 L 180.54 127.46 C 178.70 127.61 175.86 126.45 175.34 129.03 C 175.68 131.20 179.05 129.96 178.51 132.54 C 175.48 131.51 172.54 129.88 169.58 128.61 C 170.48 127.10 171.02 124.56 172.48 123.58 Z" fill="#000000"/>
<path d="M 172.21 125.26 C 174.12 123.65 176.39 125.89 174.91 127.95 C 173.59 130.64 169.74 127.45 172.21 125.26 Z" fill="#ffffff"/>
<path d="M 124.99 129.96 C 125.70 129.61 126.36 129.92 126.98 130.91 C 126.04 132.90 127.33 135.82 125.80 137.89 C 124.05 140.95 121.10 140.65 118.06 140.12 C 116.95 138.98 116.36 137.69 115.85 136.20 C 117.30 136.17 118.62 136.60 120.01 136.90 C 122.16 137.00 123.70 134.83 124.43 133.06 C 124.57 132.01 124.75 130.98 124.99 129.96 Z" fill="#ec1c30"/>
<path d="M 169.69 130.29 C 170.28 131.95 166.59 134.59 168.95 135.45 C 172.14 136.73 170.36 132.96 172.64 133.36 C 172.52 134.29 172.09 135.18 171.36 136.03 C 171.57 137.14 172.49 137.75 174.13 137.86 C 176.08 137.11 174.99 133.91 177.57 134.45 C 177.05 136.05 175.54 138.14 174.57 139.55 C 171.91 139.25 169.55 136.24 166.79 135.94 C 166.40 136.99 165.95 138.02 165.44 139.01 C 167.23 140.73 169.69 141.75 171.60 143.38 C 171.86 144.03 171.78 144.45 171.36 144.64 C 169.23 143.20 167.19 141.65 164.97 140.34 C 162.92 141.47 162.47 143.16 161.34 144.99 C 163.25 146.88 165.95 148.44 167.61 150.69 C 164.62 151.49 162.87 146.00 159.95 146.43 C 159.43 146.94 158.87 147.34 158.26 147.63 L 158.49 146.47 C 160.92 143.75 162.97 141.01 164.80 137.85 C 166.71 135.77 167.46 131.93 169.69 130.29 Z" fill="#000000"/>
<path d="M 126.98 130.91 C 128.38 132.17 129.41 133.91 129.40 135.84 C 128.57 138.27 129.41 140.44 127.12 142.21 C 125.59 143.45 123.68 142.54 121.72 143.23 C 120.22 143.07 119.09 141.11 118.06 140.12 C 121.10 140.65 124.05 140.95 125.80 137.89 C 127.33 135.82 126.04 132.90 126.98 130.91 Z" fill="#ffffff"/>
<path d="M 40.91 133.14 C 44.42 134.51 48.05 139.98 45.54 143.59 C 44.29 144.67 43.26 143.47 42.26 142.73 C 41.85 141.10 42.63 139.73 41.68 138.09 C 41.27 136.67 38.28 136.14 38.08 138.06 C 38.48 140.67 40.74 143.70 40.33 146.48 C 39.47 148.27 38.25 150.67 36.02 150.85 C 29.75 152.87 24.17 143.36 27.36 138.34 C 29.14 137.68 29.84 139.04 30.77 140.24 C 30.63 141.47 29.88 142.75 30.32 143.92 C 30.94 145.54 32.66 147.54 34.60 146.61 C 36.39 143.83 33.03 142.04 33.39 139.00 C 32.52 134.58 36.93 131.56 40.91 133.14 Z" fill="#000000"/>
<path d="M 51.49 133.50 C 53.06 133.50 53.16 134.89 53.78 136.01 C 56.37 138.54 59.06 140.95 61.95 143.13 C 68.14 147.09 73.84 151.06 81.13 152.75 C 92.21 156.15 104.75 157.11 116.00 154.00 C 119.01 153.20 121.86 151.85 124.85 151.08 C 125.53 152.84 124.11 153.16 122.92 153.86 C 117.87 156.16 112.57 157.59 107.00 157.70 C 97.54 158.04 87.78 157.80 78.86 154.30 C 71.31 151.59 64.20 147.14 58.50 141.50 C 56.36 139.03 52.80 136.40 51.49 133.50 Z" fill="#000000"/>
<path d="M 129.40 135.84 C 130.73 137.49 131.41 139.55 131.41 141.67 C 130.15 144.99 127.99 147.44 124.11 146.18 C 123.21 145.34 121.93 144.53 121.72 143.23 C 123.68 142.54 125.59 143.45 127.12 142.21 C 129.41 140.44 128.57 138.27 129.40 135.84 Z" fill="#ec1c30"/>
<path d="M 131.41 141.67 C 132.47 142.96 132.50 144.34 132.51 145.94 C 130.82 148.52 129.39 147.13 127.07 148.00 L 126.90 148.81 C 126.04 147.87 125.12 146.95 124.11 146.18 C 127.99 147.44 130.15 144.99 131.41 141.67 Z" fill="#ffffff"/>
<path d="M 49.23 144.21 C 50.43 144.01 51.63 145.80 52.55 146.44 C 54.69 148.50 57.66 150.48 58.40 153.49 C 59.05 158.09 53.47 161.97 49.39 159.58 C 47.68 158.78 46.63 156.95 44.99 156.19 C 43.08 156.75 41.88 159.75 40.02 160.68 C 39.13 160.10 36.50 158.73 37.35 157.35 C 41.29 152.94 45.29 148.61 49.23 144.21 Z" fill="#000000"/>
<path d="M 132.51 145.94 L 133.26 147.00 C 134.54 149.92 131.77 151.86 129.10 151.18 C 128.33 150.42 127.60 149.63 126.90 148.81 L 127.07 148.00 C 129.39 147.13 130.82 148.52 132.51 145.94 Z" fill="#ec1c30"/>
<path d="M 133.26 147.00 C 133.90 148.57 134.77 149.73 134.56 151.52 C 133.26 152.33 131.90 152.88 130.35 152.64 C 129.90 152.18 129.48 151.69 129.10 151.18 C 131.77 151.86 134.54 149.92 133.26 147.00 Z" fill="#ffffff"/>
<path d="M 50.43 149.56 C 52.22 150.44 55.04 152.95 53.27 155.18 C 51.21 157.52 49.02 155.06 47.49 153.53 C 47.06 152.05 49.69 150.74 50.43 149.56 Z" fill="#ffffff"/>
<path d="M 156.47 149.51 C 160.57 148.94 165.06 154.72 160.96 157.96 C 158.03 159.78 154.89 156.75 153.80 154.10 C 152.87 152.16 154.59 150.01 156.47 149.51 Z" fill="#000000"/>
<path d="M 155.98 150.96 C 158.13 149.16 162.89 153.93 161.23 156.25 C 158.29 158.89 152.18 153.47 155.98 150.96 Z" fill="#ffffff"/>
<path d="M 152.50 155.49 C 153.33 156.61 153.43 157.76 153.71 159.07 C 154.57 160.00 157.19 160.20 156.80 161.78 C 155.25 162.05 152.92 159.11 151.60 160.55 C 149.60 162.44 153.34 162.83 152.51 165.54 C 151.15 165.70 150.77 163.12 149.71 162.36 C 148.97 161.00 146.10 159.22 146.54 157.64 C 148.74 156.53 149.72 154.33 152.50 155.49 Z" fill="#000000"/>
<path d="M 64.16 156.15 C 65.76 156.11 67.32 157.51 68.69 158.26 C 69.07 159.46 68.46 160.90 68.22 162.11 C 66.88 167.05 65.97 172.13 64.99 177.14 C 64.07 178.03 61.84 176.71 61.09 175.94 C 60.17 174.38 61.94 173.01 60.63 171.36 C 59.28 170.36 57.71 169.31 56.05 168.96 C 54.88 169.51 54.19 170.65 52.98 171.14 C 51.99 170.85 51.08 170.42 50.24 169.83 L 50.23 169.19 C 54.69 164.69 59.45 160.39 64.16 156.15 Z" fill="#000000"/>
<path d="M 138.78 157.34 C 139.21 158.25 137.13 161.53 136.10 160.83 C 135.61 159.85 137.72 156.89 138.78 157.34 Z" fill="#ffffff"/>
<path d="M 152.53 157.98 C 151.92 159.15 151.09 159.99 150.05 160.49 C 149.07 160.02 147.34 158.69 148.55 157.55 C 150.06 156.18 151.72 155.45 152.53 157.98 Z" fill="#ffffff"/>
<path d="M 121.89 159.16 C 121.78 159.67 121.24 160.03 120.26 160.24 L 120.15 161.14 L 121.78 161.36 C 121.45 161.90 121.19 162.47 121.00 163.06 C 122.53 164.03 123.27 163.40 123.22 161.17 L 123.85 161.15 C 123.51 162.89 123.82 163.33 124.65 164.76 C 123.79 164.52 122.92 164.31 122.04 164.12 L 121.65 165.72 C 120.35 165.32 121.05 161.27 119.14 162.05 C 117.81 164.25 119.41 167.12 121.98 167.26 C 125.40 167.80 127.92 164.00 125.90 161.16 C 125.47 160.01 123.33 160.20 123.25 159.23 C 128.11 158.61 128.87 165.90 124.92 167.73 C 122.61 167.89 119.39 168.57 118.30 165.88 C 116.34 163.54 118.79 158.55 121.89 159.16 Z" fill="#000000"/>
<path d="M 63.67 161.36 C 63.75 163.47 62.83 165.53 62.56 167.63 C 61.58 167.96 58.71 166.70 59.35 165.38 C 60.85 164.09 62.24 162.72 63.67 161.36 Z" fill="#ffffff"/>
<path d="M 74.19 161.16 C 77.32 161.92 80.38 162.92 83.51 163.65 C 86.30 164.37 88.20 167.15 87.72 170.01 C 87.57 172.43 85.48 173.64 83.72 174.90 C 82.50 177.13 84.37 181.11 84.48 183.50 C 82.65 183.57 81.07 183.40 79.46 182.49 C 78.94 180.05 78.68 177.46 78.48 174.96 C 78.07 173.69 74.98 173.08 74.95 175.01 C 74.36 176.84 73.92 178.70 73.49 180.56 C 72.20 180.97 70.49 180.08 69.26 179.67 C 69.21 177.88 70.08 176.57 70.47 174.91 C 71.74 170.31 72.42 165.62 74.19 161.16 Z" fill="#000000"/>
<path d="M 132.10 163.17 C 132.98 162.20 135.86 162.83 134.33 164.34 C 133.16 165.35 131.47 165.00 132.10 163.17 Z" fill="#d0a42f"/>
<path d="M 114.36 165.51 C 116.80 170.80 120.29 176.28 122.59 181.50 C 121.25 181.81 119.83 182.45 118.45 182.48 C 116.96 181.43 117.01 178.90 115.04 178.83 C 113.44 179.24 111.62 179.36 110.15 180.13 C 109.76 181.20 109.55 182.35 109.54 183.59 C 108.16 184.44 107.00 184.62 106.04 184.13 C 106.62 177.79 107.08 170.92 108.70 164.75 C 110.45 164.53 113.54 163.10 114.36 165.51 Z" fill="#000000"/>
<path d="M 77.60 165.49 C 79.71 165.90 82.38 166.37 83.40 168.51 C 83.76 169.70 82.28 170.72 81.52 171.41 C 79.66 171.65 78.23 170.85 76.47 170.45 C 76.46 168.58 76.67 167.13 77.60 165.49 Z" fill="#ffffff"/>
<path d="M 89.55 165.45 C 94.18 164.89 98.99 165.45 103.67 165.35 C 104.08 166.67 103.95 168.19 103.58 169.50 C 102.18 169.60 100.08 168.75 99.05 169.85 C 98.88 174.68 99.16 179.79 98.60 184.56 C 97.22 184.55 95.83 184.55 94.44 184.52 C 94.27 179.65 94.99 174.41 94.37 169.63 C 93.19 169.21 91.90 169.10 90.49 169.32 C 88.98 168.58 89.79 166.86 89.55 165.45 Z" fill="#000000"/>
<path d="M 132.16 166.11 C 133.37 165.56 133.91 165.79 133.78 166.80 C 132.54 167.30 132.00 167.07 132.16 166.11 Z" fill="#d0a42f"/>
<path d="M 111.41 169.37 L 111.58 169.59 C 112.28 171.70 113.84 173.41 114.56 175.43 C 113.20 175.80 111.85 176.18 110.50 176.57 C 110.49 174.21 110.40 171.53 111.41 169.37 Z" fill="#ffffff"/>
<path d="M 131.28 169.32 C 132.18 168.95 135.14 168.91 134.64 170.54 C 133.57 170.47 132.50 170.43 131.43 170.44 L 131.28 169.32 Z" fill="#ffffff"/>
</svg>