<?xml version="1.0" encoding="UTF-8" standalone="no"?>
<!DOCTYPE svg PUBLIC "-//W3C//DTD SVG 1.1//EN" "http://www.w3.org/Graphics/SVG/1.1/DTD/svg11.dtd">
<svg xmlns="http://www.w3.org/2000/svg" version="1.1" viewBox="0 0 200 200" width="200.0pt" height="200.0pt">
<path d="M 0.00 0.00 L 200.00 0.00 L 200.00 96.01 C 199.07 87.84 196.53 79.93 191.92 73.07 C 184.60 61.91 172.72 54.03 159.55 51.76 C 153.97 50.73 148.63 51.03 143.00 51.00 C 114.33 51.00 85.67 51.00 57.00 51.00 C 51.38 51.02 46.03 50.73 40.45 51.78 C 26.82 54.14 14.59 62.58 7.35 74.34 C 2.91 81.38 0.61 89.42 0.00 97.68 L 0.00 0.00 Z" fill-opacity="0"/>
<path d="M 40.45 51.78 C 46.03 50.73 51.38 51.02 57.00 51.00 C 85.67 51.00 114.33 51.00 143.00 51.00 C 148.63 51.03 153.97 50.73 159.55 51.76 C 172.72 54.03 184.60 61.91 191.92 73.07 C 196.53 79.93 199.07 87.84 200.00 96.01 L 200.00 104.20 C 199.08 112.82 196.28 121.13 191.28 128.25 C 184.10 138.72 172.60 146.19 160.12 148.50 C 156.23 149.27 151.97 148.96 148.00 149.00 C 115.00 149.01 82.00 148.98 49.00 149.02 C 31.85 149.97 14.75 139.33 6.47 124.53 C 2.49 117.70 0.49 110.02 0.00 102.17 L 0.00 97.68 C 0.61 89.42 2.91 81.38 7.35 74.34 C 14.59 62.58 26.82 54.14 40.45 51.78 Z" fill="#1a171b"/>
<path d="M 50.00 53.13 C 83.98 53.17 118.02 53.08 152.00 53.17 C 168.09 53.42 183.08 62.27 191.30 76.06 C 177.36 80.18 163.44 84.38 149.45 88.32 C 147.21 83.11 144.41 78.14 142.02 73.00 C 140.67 70.33 139.31 66.92 136.62 65.34 C 134.66 64.11 132.25 64.24 130.03 64.17 C 110.02 64.26 89.93 64.15 69.94 64.22 C 66.48 64.11 64.38 65.88 62.93 68.87 C 54.44 86.26 45.86 103.80 37.34 121.18 C 29.07 123.93 20.61 126.24 12.23 128.65 L 11.35 128.15 C 6.20 121.14 3.04 112.72 2.32 104.04 C 0.88 88.50 7.87 72.81 20.09 63.18 C 28.54 56.48 39.23 52.99 50.00 53.13 Z" fill="#db0021"/>
<path d="M 69.94 64.22 C 89.93 64.15 110.02 64.26 130.03 64.17 C 132.25 64.24 134.66 64.11 136.62 65.34 C 139.31 66.92 140.67 70.33 142.02 73.00 C 144.41 78.14 147.21 83.11 149.45 88.32 C 149.67 90.48 149.60 92.52 148.67 94.51 C 146.38 99.73 143.70 104.78 141.49 110.04 C 146.91 110.22 152.40 109.78 157.80 110.25 C 161.22 110.81 162.34 113.64 163.71 116.40 C 165.41 120.32 167.61 124.07 168.98 128.11 C 170.15 132.60 166.64 136.52 162.08 136.25 C 142.08 136.31 121.99 136.22 101.98 136.29 C 99.39 136.21 96.66 136.34 94.73 134.31 C 92.61 131.96 91.23 128.87 89.59 126.17 C 81.84 126.11 74.07 126.09 66.32 126.18 C 64.00 129.72 62.06 136.01 57.07 136.15 C 51.38 136.40 45.61 136.29 39.92 136.22 C 36.36 136.25 33.35 133.71 33.57 130.01 C 34.18 126.92 36.01 124.02 37.34 121.18 C 45.86 103.80 54.44 86.26 62.93 68.87 C 64.38 65.88 66.48 64.11 69.94 64.22 Z" fill="#1a171b"/>
<path d="M 69.98 67.37 C 90.30 67.28 110.73 67.36 131.07 67.33 C 133.47 67.32 135.61 67.78 136.87 70.03 C 139.57 74.79 141.75 79.86 144.31 84.71 C 145.55 87.37 147.14 89.82 145.88 92.82 C 143.78 98.21 140.79 103.23 138.65 108.60 C 138.11 110.16 137.86 111.61 139.31 112.76 C 145.19 113.94 151.70 112.58 157.68 113.44 C 159.19 113.85 159.98 116.17 160.69 117.42 C 162.39 121.34 164.61 125.10 165.98 129.14 C 166.39 131.68 164.55 133.22 162.09 133.05 C 142.09 133.11 121.98 133.02 101.97 133.09 C 100.54 133.00 98.78 133.16 97.48 132.49 C 94.67 130.15 93.75 125.18 90.64 123.37 C 85.24 122.51 79.48 123.23 74.00 122.99 C 71.06 123.15 67.39 122.49 64.67 123.68 C 62.24 125.88 61.23 129.55 59.00 131.98 C 57.87 133.27 55.60 132.96 54.04 133.08 C 49.34 133.03 44.64 133.19 39.95 133.00 C 38.21 132.90 37.40 132.57 36.66 130.92 C 36.85 129.51 37.41 128.27 38.00 127.00 C 47.24 108.23 56.41 89.36 65.61 70.57 C 66.68 68.51 67.42 67.27 69.98 67.37 Z" fill="#ffffff"/>
<path d="M 89.50 69.47 C 96.43 84.11 103.37 98.75 110.30 113.40 C 108.52 117.23 106.50 120.97 104.83 124.85 C 103.79 127.01 104.56 128.83 104.93 131.03 C 102.23 130.60 98.43 132.07 97.24 128.82 C 94.92 125.40 93.99 121.05 89.04 120.95 C 81.40 120.85 73.64 120.67 66.01 121.05 C 62.15 121.39 60.94 125.35 59.12 128.13 C 58.32 129.23 57.76 131.06 56.10 130.89 C 50.28 131.04 44.45 130.91 38.63 130.88 C 47.44 112.09 56.87 93.57 65.84 74.85 C 66.70 73.10 67.52 71.22 68.70 69.66 C 75.58 69.17 82.59 69.61 89.50 69.47 Z" fill="#1a171b"/>
<path d="M 91.85 69.46 C 104.58 69.46 117.31 69.49 130.04 69.44 C 131.72 69.58 134.01 69.15 134.96 70.94 C 137.68 75.68 139.83 80.78 142.41 85.61 C 143.17 87.37 144.86 89.91 144.00 91.82 C 141.83 97.50 138.58 102.77 136.47 108.48 C 135.44 111.05 136.51 113.93 139.11 114.98 C 144.80 116.08 151.81 114.54 157.32 115.74 C 159.98 120.45 162.40 125.65 164.24 130.74 C 146.16 131.17 128.03 130.84 109.94 130.92 C 107.13 131.29 105.62 128.17 106.70 125.85 C 111.82 114.66 117.55 103.69 122.64 92.47 C 123.76 90.06 122.57 86.80 119.72 86.51 C 113.12 86.19 106.47 86.51 99.86 86.39 C 97.18 80.76 94.50 75.12 91.85 69.46 Z" fill="#1a171b"/>
<path d="M 191.30 76.06 C 197.88 87.10 199.71 100.74 196.11 113.10 C 192.95 124.41 185.36 134.26 175.34 140.36 C 167.75 145.08 158.93 147.30 150.01 147.22 C 117.35 147.26 84.66 147.22 51.99 147.24 C 46.19 147.26 40.51 146.86 34.97 145.02 C 25.52 142.08 17.28 136.04 11.35 128.15 L 12.23 128.65 C 20.61 126.24 29.07 123.93 37.34 121.18 C 36.01 124.02 34.18 126.92 33.57 130.01 C 33.35 133.71 36.36 136.25 39.92 136.22 C 45.61 136.29 51.38 136.40 57.07 136.15 C 62.06 136.01 64.00 129.72 66.32 126.18 C 74.07 126.09 81.84 126.11 89.59 126.17 C 91.23 128.87 92.61 131.96 94.73 134.31 C 96.66 136.34 99.39 136.21 101.98 136.29 C 121.99 136.22 142.08 136.31 162.08 136.25 C 166.64 136.52 170.15 132.60 168.98 128.11 C 167.61 124.07 165.41 120.32 163.71 116.40 C 162.34 113.64 161.22 110.81 157.80 110.25 C 152.40 109.78 146.91 110.22 141.49 110.04 C 143.70 104.78 146.38 99.73 148.67 94.51 C 149.60 92.52 149.67 90.48 149.45 88.32 C 163.44 84.38 177.36 80.18 191.30 76.06 Z" fill="#ffffff"/>
<path d="M 100.83 88.46 C 107.05 88.62 113.37 88.16 119.56 88.66 C 121.48 89.26 121.03 90.92 120.42 92.37 C 117.54 98.61 114.43 104.76 111.46 110.96 C 107.95 103.44 104.37 95.97 100.83 88.46 Z" fill="#1a171b"/>
<path d="M 104.19 90.61 C 109.09 90.56 113.99 90.54 118.88 90.69 C 117.65 93.32 116.39 95.94 115.12 98.56 C 112.99 99.10 110.89 99.73 108.77 100.31 C 107.24 97.08 105.71 93.84 104.19 90.61 Z" fill="#db0021"/>
<path d="M 79.59 93.25 C 81.12 95.92 82.00 99.01 83.18 101.85 C 84.21 104.58 85.52 107.28 86.24 110.10 C 86.61 111.57 85.43 112.88 83.95 112.85 C 80.10 113.05 75.86 113.05 72.00 112.86 C 70.50 112.97 68.86 111.57 69.51 110.03 C 71.17 104.73 73.46 99.57 75.49 94.40 C 76.05 92.51 78.24 91.57 79.59 93.25 Z" fill="#ffffff"/>
<path d="M 77.87 94.21 C 80.11 99.70 82.28 105.23 84.37 110.78 C 80.02 110.81 75.67 110.81 71.32 110.78 C 73.46 105.24 75.60 99.70 77.87 94.21 Z" fill="#1a171b"/>
<path d="M 115.12 98.56 C 113.92 101.08 112.69 103.57 111.47 106.07 C 110.57 104.15 109.68 102.23 108.77 100.31 C 110.89 99.73 112.99 99.10 115.12 98.56 Z" fill="#ffffff"/>
<path d="M 77.82 100.34 C 78.98 103.05 80.10 105.78 81.19 108.52 C 78.98 108.53 76.76 108.53 74.55 108.53 C 75.62 105.79 76.71 103.06 77.82 100.34 Z" fill="#db0021"/>
<path d="M 0.00 102.17 C 0.49 110.02 2.49 117.70 6.47 124.53 C 14.75 139.33 31.85 149.97 49.00 149.02 C 82.00 148.98 115.00 149.01 148.00 149.00 C 151.97 148.96 156.23 149.27 160.12 148.50 C 172.60 146.19 184.10 138.72 191.28 128.25 C 196.28 121.13 199.08 112.82 200.00 104.20 L 200.00 200.00 L 0.00 200.00 L 0.00 102.17 Z" fill-opacity="0"/>
</svg>