<?xml version="1.0" encoding="UTF-8" standalone="no"?>
<!DOCTYPE svg PUBLIC "-//W3C//DTD SVG 1.1//EN" "http://www.w3.org/Graphics/SVG/1.1/DTD/svg11.dtd">
<svg xmlns="http://www.w3.org/2000/svg" version="1.1" viewBox="0 0 200 200" width="200.0pt" height="200.0pt">
<path d="M 0.00 0.00 L 200.00 0.00 L 200.00 200.00 L 0.00 200.00 L 0.00 0.00 Z" fill-opacity="0"/>
<path d="M 24.29 5.15 C 74.70 5.03 125.69 5.12 176.16 5.10 C 176.19 19.37 176.17 33.64 176.17 47.91 C 160.12 47.89 144.08 47.95 128.04 47.88 C 120.32 47.81 112.60 47.86 104.88 47.85 C 101.81 47.86 98.75 47.86 95.68 47.86 C 88.00 47.86 80.32 47.82 72.64 47.88 C 56.50 47.98 40.37 47.84 24.23 47.95 C 24.26 33.70 24.12 19.40 24.29 5.15 Z" fill="#ef3e33"/>
<path d="M 31.65 14.12 C 34.84 14.27 38.46 13.69 41.52 14.56 C 45.29 16.39 45.33 22.61 44.07 25.96 C 42.60 29.39 39.57 29.20 36.38 29.44 C 36.38 32.66 36.38 35.88 36.36 39.10 C 34.79 39.09 33.21 39.09 31.64 39.10 C 31.62 30.77 31.60 22.44 31.65 14.12 Z" fill="#ffffff"/>
<path d="M 46.16 14.19 C 49.96 14.01 53.78 14.17 57.59 14.12 C 57.59 15.70 57.59 17.28 57.60 18.86 C 55.33 18.87 53.06 18.88 50.80 18.89 C 50.78 20.49 50.75 22.09 50.73 23.69 C 52.89 23.70 55.04 23.76 57.20 23.85 C 57.19 25.43 57.18 27.00 57.16 28.57 C 55.01 28.58 52.87 28.62 50.72 28.70 C 50.75 30.54 50.78 32.37 50.80 34.21 C 53.16 34.22 55.51 34.23 57.86 34.23 C 57.83 35.84 57.81 37.45 57.78 39.05 C 53.90 39.12 50.02 39.10 46.14 39.09 C 46.10 30.80 46.03 22.48 46.16 14.19 Z" fill="#ffffff"/>
<path d="M 70.96 15.04 C 72.93 17.34 72.73 19.91 72.95 22.75 C 71.43 22.76 69.92 22.77 68.41 22.78 C 68.15 21.17 68.46 18.66 67.07 17.58 C 64.50 16.91 64.61 20.36 64.48 21.99 C 64.56 26.30 63.71 31.60 65.58 35.57 C 66.18 35.54 66.79 35.52 67.39 35.50 C 68.42 33.48 68.42 31.39 68.54 29.18 C 70.08 29.19 71.62 29.20 73.16 29.20 C 72.98 32.21 73.03 36.32 70.37 38.34 C 67.60 40.10 62.84 40.15 61.03 36.95 C 59.36 33.81 59.52 29.48 59.47 26.00 C 59.53 22.87 59.45 18.92 61.11 16.16 C 63.10 12.96 68.23 12.76 70.96 15.04 Z" fill="#ffffff"/>
<path d="M 79.24 14.19 C 83.12 14.00 87.01 14.17 90.89 14.13 C 90.85 16.22 91.04 18.15 90.09 20.09 C 88.05 24.79 86.03 29.50 84.02 34.22 C 86.30 34.22 88.59 34.23 90.87 34.24 C 90.85 35.85 90.84 37.47 90.83 39.08 C 86.76 39.11 82.68 39.10 78.61 39.09 C 78.67 37.01 78.34 35.15 79.23 33.20 C 81.25 28.42 83.34 23.66 85.38 18.88 C 83.31 18.88 81.25 18.87 79.18 18.86 C 79.17 17.31 79.15 15.74 79.24 14.19 Z" fill="#ffffff"/>
<path d="M 92.07 14.14 C 93.63 14.14 95.19 14.13 96.76 14.12 C 97.41 19.19 97.75 24.28 98.65 29.32 C 99.30 24.26 99.83 19.18 100.53 14.12 C 102.03 14.14 103.54 14.15 105.04 14.16 C 105.73 19.15 106.18 24.19 107.15 29.13 C 108.02 24.23 108.35 19.19 108.78 14.23 C 110.33 14.18 111.88 14.13 113.43 14.07 C 112.39 22.40 111.07 30.69 110.03 39.01 C 108.23 39.10 106.44 39.10 104.65 38.86 C 104.08 34.03 103.57 29.18 102.84 24.37 C 102.55 24.78 102.27 25.19 101.99 25.60 C 102.17 30.08 101.22 34.60 100.75 39.05 C 98.99 39.08 97.24 39.05 95.48 38.96 C 94.45 30.67 93.09 22.43 92.07 14.14 Z" fill="#ffffff"/>
<path d="M 118.23 14.25 C 121.10 12.95 125.05 13.28 126.94 16.06 C 128.67 18.82 128.57 22.86 128.62 26.00 C 128.58 29.29 128.77 33.30 127.31 36.32 C 125.27 40.92 116.90 40.53 115.55 35.55 C 114.21 31.30 114.52 26.40 114.69 21.99 C 114.88 19.40 115.57 15.48 118.23 14.25 Z" fill="#ffffff"/>
<path d="M 131.15 14.19 C 132.69 14.10 134.21 14.12 135.76 14.13 C 135.74 20.82 135.74 27.52 135.75 34.21 C 138.02 34.22 140.29 34.23 142.55 34.24 C 142.56 35.82 142.57 37.39 142.57 38.96 C 138.76 39.18 134.94 39.10 131.12 39.09 C 131.12 30.79 131.03 22.48 131.15 14.19 Z" fill="#ffffff"/>
<path d="M 143.86 14.13 C 145.46 14.14 147.07 14.15 148.68 14.15 C 148.64 20.84 148.64 27.53 148.67 34.21 C 150.91 34.22 153.16 34.23 155.40 34.24 C 155.42 35.82 155.44 37.39 155.46 38.96 C 151.66 39.18 147.87 39.10 144.06 39.09 C 143.67 30.78 143.93 22.45 143.86 14.13 Z" fill="#ffffff"/>
<path d="M 156.81 14.13 C 160.70 14.12 164.59 14.12 168.49 14.13 C 168.47 15.70 168.46 17.27 168.45 18.85 C 166.14 18.81 163.83 18.90 161.52 19.02 C 161.53 20.59 161.54 22.17 161.55 23.75 C 163.73 23.75 165.91 23.76 168.10 23.78 C 168.06 25.39 168.02 27.00 167.99 28.60 C 165.84 28.60 163.69 28.59 161.54 28.59 C 161.55 30.47 161.57 32.36 161.58 34.24 C 163.97 34.23 166.36 34.23 168.75 34.24 C 168.74 35.83 168.73 37.43 168.73 39.02 C 164.78 39.14 160.83 39.10 156.89 39.08 C 156.73 30.77 156.77 22.45 156.81 14.13 Z" fill="#ffffff"/>
<path d="M 36.48 18.31 C 40.04 18.21 40.27 20.77 39.59 23.64 C 39.42 24.92 37.36 24.77 36.40 25.03 C 36.37 22.80 36.30 20.53 36.48 18.31 Z" fill="#ef3e33"/>
<path d="M 120.35 18.27 C 121.55 16.23 123.33 18.27 123.40 19.86 C 123.85 23.98 123.77 28.27 123.50 32.41 C 123.34 33.91 122.94 36.05 120.91 35.51 C 119.09 33.71 119.68 30.38 119.50 28.00 C 119.67 24.97 119.04 21.02 120.35 18.27 Z" fill="#ef3e33"/>
<path d="M 24.23 47.95 C 40.37 47.84 56.50 47.98 72.64 47.88 C 72.58 55.55 72.63 63.22 72.62 70.90 C 72.61 73.52 72.60 76.14 72.59 78.76 C 72.31 84.74 73.49 89.45 76.13 94.73 C 70.84 92.13 66.11 90.94 60.16 91.24 C 57.55 91.26 54.94 91.28 52.32 91.26 C 42.96 91.20 33.59 91.36 24.23 91.17 C 24.21 76.76 24.21 62.36 24.23 47.95 Z" fill="#54bceb"/>
<path d="M 72.64 47.88 C 80.32 47.82 88.00 47.86 95.68 47.86 C 95.68 55.53 95.67 63.21 95.69 70.88 C 88.00 70.90 80.31 70.86 72.62 70.90 C 72.63 63.22 72.58 55.55 72.64 47.88 Z" fill="#005daa"/>
<path d="M 95.68 47.86 C 98.75 47.86 101.81 47.86 104.88 47.85 C 104.87 55.51 104.88 63.17 104.87 70.83 C 112.56 70.95 120.26 70.84 127.96 70.89 C 127.83 73.52 127.94 76.14 128.06 78.77 C 120.33 78.76 112.61 78.75 104.88 78.77 C 104.86 88.53 104.89 98.29 104.86 108.05 C 101.75 108.48 98.80 108.48 95.69 108.07 C 95.67 98.31 95.67 88.56 95.69 78.81 C 87.99 78.70 80.29 78.79 72.59 78.76 C 72.60 76.14 72.61 73.52 72.62 70.90 C 80.31 70.86 88.00 70.90 95.69 70.88 C 95.67 63.21 95.68 55.53 95.68 47.86 Z" fill="#ffffff"/>
<path d="M 104.88 47.85 C 112.60 47.86 120.32 47.81 128.04 47.88 C 128.11 55.54 128.24 63.23 127.96 70.89 C 120.26 70.84 112.56 70.95 104.87 70.83 C 104.88 63.17 104.87 55.51 104.88 47.85 Z" fill="#005daa"/>
<path d="M 128.04 47.88 C 144.08 47.95 160.12 47.89 176.17 47.91 C 176.16 62.35 176.16 76.79 176.17 91.24 C 166.90 91.30 157.63 91.23 148.37 91.25 C 145.72 91.28 143.08 91.26 140.43 91.22 C 134.73 90.88 129.77 92.18 124.66 94.59 C 126.97 89.54 128.35 84.37 128.06 78.77 C 127.94 76.14 127.83 73.52 127.96 70.89 C 128.24 63.23 128.11 55.54 128.04 47.88 Z" fill="#54bceb"/>
<path d="M 72.59 78.76 C 80.29 78.79 87.99 78.70 95.69 78.81 C 95.67 88.56 95.67 98.31 95.69 108.07 C 92.29 107.51 89.25 106.13 86.14 104.73 C 87.50 107.85 88.85 110.92 89.44 114.30 C 79.67 114.30 69.90 114.35 60.13 114.27 C 60.22 106.60 60.18 98.92 60.16 91.24 C 66.11 90.94 70.84 92.13 76.13 94.73 C 73.49 89.45 72.31 84.74 72.59 78.76 Z" fill="#005daa"/>
<path d="M 104.88 78.77 C 112.61 78.75 120.33 78.76 128.06 78.77 C 128.35 84.37 126.97 89.54 124.66 94.59 C 129.77 92.18 134.73 90.88 140.43 91.22 C 140.49 98.92 140.46 106.62 140.45 114.32 C 130.66 114.33 120.88 114.26 111.09 114.35 C 111.75 111.00 113.05 107.90 114.44 104.80 C 111.30 106.13 108.26 107.50 104.86 108.05 C 104.89 98.29 104.86 88.53 104.88 78.77 Z" fill="#005daa"/>
<path d="M 24.23 91.17 C 33.59 91.36 42.96 91.20 52.32 91.26 C 52.33 98.95 52.33 106.63 52.32 114.31 C 42.95 114.30 33.57 114.34 24.19 114.28 C 24.26 106.58 24.20 98.88 24.23 91.17 Z" fill="#005daa"/>
<path d="M 148.37 91.25 C 157.63 91.23 166.90 91.30 176.17 91.24 C 176.17 98.92 176.18 106.61 176.16 114.30 C 166.87 114.27 157.57 114.41 148.28 114.23 C 148.40 106.57 148.24 98.91 148.37 91.25 Z" fill="#005daa"/>
<path d="M 86.14 104.73 C 89.25 106.13 92.29 107.51 95.69 108.07 C 98.80 108.48 101.75 108.48 104.86 108.05 C 108.26 107.50 111.30 106.13 114.44 104.80 C 113.05 107.90 111.75 111.00 111.09 114.35 C 110.73 117.44 110.74 120.50 111.13 123.58 C 111.75 126.99 113.11 129.93 114.46 133.08 C 111.35 131.68 108.26 130.37 104.88 129.78 C 101.82 129.39 98.76 129.42 95.69 129.75 C 92.26 130.36 89.19 131.75 86.04 133.16 C 87.53 130.08 88.89 127.00 89.46 123.59 C 89.84 120.51 89.83 117.38 89.44 114.30 C 88.85 110.92 87.50 107.85 86.14 104.73 Z" fill="#54bceb"/>
<path d="M 24.15 123.61 C 33.54 123.55 42.93 123.58 52.31 123.59 C 52.33 131.25 52.34 138.91 52.31 146.56 C 44.50 146.59 36.69 146.52 28.89 146.61 C 26.07 139.24 24.58 131.48 24.15 123.61 Z" fill="#005daa"/>
<path d="M 60.13 123.62 C 69.90 123.53 79.68 123.59 89.46 123.59 C 88.89 127.00 87.53 130.08 86.04 133.16 C 89.19 131.75 92.26 130.36 95.69 129.75 C 95.66 139.55 95.68 149.35 95.68 159.15 C 87.98 159.15 80.29 159.15 72.59 159.15 C 72.26 153.30 73.62 148.27 76.10 143.05 C 70.60 145.94 66.38 146.84 60.16 146.59 C 60.17 138.93 60.22 131.28 60.13 123.62 Z" fill="#005daa"/>
<path d="M 111.13 123.58 C 120.90 123.58 130.67 123.57 140.45 123.59 C 140.49 131.26 140.44 138.92 140.47 146.58 C 135.98 146.73 131.67 146.34 127.54 144.46 C 126.57 144.07 125.61 143.69 124.65 143.30 C 127.10 148.39 128.31 153.48 128.03 159.17 C 120.31 159.12 112.60 159.17 104.89 159.14 C 104.86 149.35 104.87 139.57 104.88 129.78 C 108.26 130.37 111.35 131.68 114.46 133.08 C 113.11 129.93 111.75 126.99 111.13 123.58 Z" fill="#005daa"/>
<path d="M 148.26 123.66 C 157.57 123.49 166.90 123.60 176.22 123.60 C 175.71 131.51 174.29 139.30 171.39 146.70 C 163.71 146.42 156.01 146.63 148.33 146.58 C 148.29 138.94 148.40 131.30 148.26 123.66 Z" fill="#005daa"/>
<path d="M 76.10 143.05 C 73.62 148.27 72.26 153.30 72.59 159.15 C 72.60 161.71 72.60 164.27 72.61 166.83 C 72.62 174.63 72.62 182.42 72.60 190.22 C 52.72 182.71 36.39 166.52 28.89 146.61 C 36.69 146.52 44.50 146.59 52.31 146.56 C 54.92 146.56 57.54 146.57 60.16 146.59 C 66.38 146.84 70.60 145.94 76.10 143.05 Z" fill="#54bceb"/>
<path d="M 124.65 143.30 C 125.61 143.69 126.57 144.07 127.54 144.46 C 131.67 146.34 135.98 146.73 140.47 146.58 C 143.09 146.57 145.71 146.57 148.33 146.58 C 156.01 146.63 163.71 146.42 171.39 146.70 C 163.97 166.52 147.78 182.47 128.09 190.10 C 128.07 182.33 128.22 174.55 128.01 166.78 C 127.89 164.24 127.91 161.71 128.03 159.17 C 128.31 153.48 127.10 148.39 124.65 143.30 Z" fill="#54bceb"/>
<path d="M 72.61 166.83 C 80.30 166.83 87.99 166.79 95.68 166.85 C 95.68 176.30 95.68 185.76 95.68 195.21 C 87.78 194.63 79.99 193.15 72.60 190.22 C 72.62 182.42 72.62 174.63 72.61 166.83 Z" fill="#005daa"/>
<path d="M 104.88 166.83 C 112.59 166.79 120.30 166.87 128.01 166.78 C 128.22 174.55 128.07 182.33 128.09 190.10 C 120.65 193.06 112.84 194.55 104.88 195.22 C 104.86 185.76 104.87 176.29 104.88 166.83 Z" fill="#005daa"/>
</svg>